<?xml version="1.0" encoding="UTF-8"?><svg xmlns="http://www.w3.org/2000/svg" viewBox="0 0 523.99 37.81"><defs><style>.d{fill:#42210b;}</style></defs><g id="a"/><g id="b"><g id="c"><g><g><path class="d" d="M60.04,16.51c.85-1.82,1.36-3.23,1.66-4.74,2.69,.45,3.07,.55,3.1,.82,.03,.27-.32,.42-1.15,.55-1.43,1.8-2.07,2.52-2.83,3.27,2.14-.26,3.21-.38,5.35-.64,.65-.99,.84-1.29,1.53-2.17,1.33,.73,1.72,.96,2.93,1.68,.19,.14,.25,.25,.27,.36,.02,.14-.11,.23-.34,.26-4.5,.52-6.75,.78-11.25,1.33-.81,1.68-.98,1.92-2.46,4.06,3.02-.37,4.53-.55,7.55-.91,.4-.66,.55-.87,1.01-1.47,.84,.45,1.11,.59,1.9,1.08,.24,.16,.34,.29,.36,.4,.03,.25-.68,.57-.81,.81-2.08,4.01,1.2,10.2,1.8,14.14,0,.22-.06,.3-.23,.39-.13,.06-.92,.22-1.25,.26-.39,.05-.54-.05-.57-.35l-.17-1.42c-4.96,.59-7.44,.89-12.39,1.51,.07,.53,.1,.8,.17,1.34,.03,.44-.26,.59-1.33,.72-.44,.06-.56-.01-.6-.31v-.05c-.26-2.9-.37-3.72-.93-8.13-.68-5.34-.79-6.21-1.19-8.51,1.17,.35,1.53,.47,2.61,1.03,1.38-.17,2.06-.26,3.44-.43,.36-1.43,.46-2.19,.63-3.84-3.58,.44-5.37,.67-8.96,1.12-.72,.09-1.22,.18-2.06,.43-.12-.41-.18-.61-.3-1.01,.85,.03,2.51-.07,3.65-.22,2.07-.26,3.1-.39,5.17-.65q-.18-.12-.51-.68c-.52-.99-1.49-2.19-2.61-3.24l.11-.24c1.09,.33,2.08,.76,2.99,1.23,.61,.34,.87,.67,.94,1.16,.07,.57-.13,1.23-.52,1.73,2.13-.26,3.19-.39,5.32-.65Zm5.23,7.92c-.16-1.39-.25-2.08-.41-3.46-5,.59-7.49,.9-12.49,1.53,.17,1.38,.26,2.08,.44,3.46,4.98-.63,7.48-.93,12.46-1.52Zm-12.38,2.15c.19,1.53,.29,2.29,.48,3.82,4.97-.63,7.46-.93,12.43-1.52-.18-1.53-.27-2.29-.45-3.82-4.98,.59-7.48,.89-12.46,1.52Zm.56,4.44c.21,1.63,.31,2.45,.51,4.09,4.96-.62,7.43-.93,12.39-1.51l-.48-4.09c-4.97,.59-7.46,.89-12.42,1.52Z"/><path class="d" d="M87.17,18.17c2.07-3.31,3.39-6.15,3.97-8.42,2.13,.67,2.69,.89,2.71,1.16,.02,.22-.19,.32-.78,.38l-.42,.04c-1.32,2.81-2.25,4.48-3.71,6.65,.77-.08,1.15-.12,1.92-.2,.48-.82,.62-1.06,1.16-1.86,1.03,.7,1.33,.91,2.31,1.7,.09,.1,.16,.15,.16,.2,.01,.11-.15,.24-.31,.25-2.28,.23-3.42,.35-5.7,.58-1.03,1.43-1.88,2.46-3.09,3.75,2.13-.23,3.19-.34,5.32-.56,.34-.5,.44-.65,.78-1.16,.74,.39,.95,.54,1.63,.91,.24,.14,.33,.24,.34,.35,.02,.16-.56,.43-.69,.68-.76,1.56,.96,8.48,1.07,10,.02,.34-.23,.49-1.19,.59-.47,.05-.56,0-.58-.24l-.14-1.37c-2.45,.25-3.67,.38-6.12,.64,.07,.63,.1,.95,.17,1.58,.02,.41-.17,.51-1.21,.63-.47,.05-.56,0-.59-.35-.23-2.35-.2-2.38-.97-9.51-1.25,1.13-1.84,1.61-3.3,2.65-.09-.13-.14-.2-.23-.33,1.55-1.44,2.2-2.12,3.4-3.46-.07-.68-.13-.93-.27-1.74,.73,.23,.9,.26,1.42,.43,1.02-1.21,1.59-1.96,2.49-3.3-2.1,.22-3.15,.33-5.25,.56-.83,.09-1.36,.17-2.01,.36-.12-.37-.18-.56-.3-.93,.76,.03,1.58,.02,2.24-.05,1.34-.15,2.02-.22,3.36-.36-.18-1.73-.27-2.59-.46-4.32-1.06,.11-1.59,.17-2.65,.28-.75,.08-1.08,.14-1.66,.29l-.27-.94c.72,.09,1.33,.08,2.03,0,.99-.11,1.49-.16,2.48-.27-.08-.79-.13-1.18-.21-1.97-.1-.98-.17-1.36-.35-2.23,.62,.02,1.13,.02,1.45,.04,1.33,0,1.65,.08,1.67,.32,.02,.22-.27,.41-1.11,.75,.12,1.16,.18,1.74,.3,2.9,.33-.04,.5-.05,.84-.09q.48-.82,.91-1.59c.86,.68,1.14,.9,1.91,1.51,.06,.08,.1,.16,.11,.21,.01,.11-.12,.21-.26,.22-1.37,.14-2.06,.21-3.43,.36,.18,1.73,.27,2.59,.45,4.32,.26-.03,.38-.04,.64-.07Zm3.84,4.3c-2.46,.25-3.69,.38-6.15,.64,.15,1.41,.23,2.11,.38,3.52,2.46-.26,3.68-.39,6.14-.64-.14-1.41-.22-2.11-.36-3.52Zm-5.71,4.8l.47,4.37c2.45-.26,3.67-.39,6.12-.64-.18-1.75-.27-2.62-.45-4.37-2.46,.25-3.68,.38-6.14,.64Zm9.51-15.53c-.11-1.07-.18-1.78-.32-2.92,1,.4,1.32,.53,2.24,.99,1.75-.17,2.63-.26,4.39-.43,.42-.57,.58-.75,1.01-1.26,.83,.47,1.1,.64,1.83,1.12,.3,.25,.4,.35,.41,.46,.02,.19-.27,.38-1.04,.65-.99,2.66-1.48,3.7-3.5,7.73,1.93,.83,2.8,1.4,3.71,2.46,1.05,1.22,1.75,2.81,1.9,4.45,.14,1.48-.22,2.72-1,3.54-.48,.51-1.04,.82-2.29,1.16-.25-.89-.45-1.18-1.05-1.33-.48-.12-1.25-.24-2.32-.3v-.41c2.43-.13,2.96-.15,3.79-.23,.61-.06,.84-.25,.94-.7,.11-.5,.15-1.37,.09-1.97-.13-1.34-.8-3.07-1.57-4.1-.64-.85-1.28-1.39-2.87-2.4,1.05-3.33,1.64-5.65,2.15-8.27-1.91,.18-2.87,.28-4.78,.46,.71,7.23,1.07,10.84,1.78,18.07,.02,.19,.09,.78,.2,1.72,.06,.54,.16,1.36,.27,2.43,.02,.19,0,.25-.11,.34-.1,.09-.7,.23-1.28,.29-.39,.04-.48-.04-.5-.31-.16-1.74-.2-2.27-.34-3.72-.13-1.28-.19-1.92-.32-3.2l-1.43-14.35Z"/><path class="d" d="M113.8,11.27c-.11-1.26-.21-2.1-.55-4.36,1.05,.4,1.37,.54,2.48,1.02,7.28-.63,10.92-.93,18.21-1.49,.52-.59,.67-.79,1.17-1.33,.82,.46,1.06,.61,1.74,1.11,.24,.15,.33,.25,.34,.36,.02,.27-.24,.51-1.05,.96,.11,1.51,.24,3.26,.4,5.29,.7,9.34,1.25,12.83,1.32,16.07,0,.38-.29,.55-1.31,.62-.33,.03-.45-.08-.5-.38-.03-.44-.05-.66-.08-1.1-7.49,.57-11.23,.87-18.72,1.53,.03,.35,.05,.53,.08,.88,.01,.47-.23,.57-1.47,.68-.33,.03-.45-.04-.47-.29-.18-3.32-.25-4.42-.51-7.37-.21-2.35-.31-3.53-.52-5.88-.21-2.53-.32-3.79-.53-6.32Zm3.37,17.68c7.49-.65,11.23-.96,18.73-1.53-.62-8.15-.93-12.23-1.55-20.38-7.58,.58-11.38,.89-18.96,1.55,.71,8.14,1.07,12.21,1.78,20.36Zm9.73-15.51c.42,1.07,.65,1.49,1.3,2.27,1.22-.1,1.84-.15,3.06-.24,.45-.67,.6-.87,1.14-1.49,.92,.64,1.19,.84,2.08,1.49,.03,.08,.07,.13,.07,.19,0,.11-.15,.2-.43,.23-2.15,.16-3.22,.25-5.37,.42,.7,.63,1.26,1.03,2.11,1.51,1.41,.8,2.35,1.14,3.91,1.43v.3c-.61,.16-.73,.33-1.26,1.47-1.36-.58-2.15-1.05-3.25-1.92-.18,.1-.27,.15-.45,.26,.02,.25,.04,.47,.04,.55,.03,.38,.26,.86,.25,2.4,0,.35-.29,.52-1.01,.58-.47,.04-.59,0-.61-.25l-.05-.57c-2.42,.19-3.63,.29-6.04,.5,.09,1.09,.14,1.64,.23,2.74,.03,.36,.31,.41,1.61,.31,.36-.03,1.15-.08,2.3-.16,.16-.01,.39-.03,.44-.04,1.08-.09,3.24-.31,3.53-.37,.4-.08,.49-.18,.7-.66,.26-.6,.47-1.41,.83-2.96l.36,.03c-.03,1.14-.05,1.71-.09,2.84l.02,.22c.02,.22,.1,.27,.61,.37,.26,.06,.41,.22,.43,.49,.04,.49-.34,.71-1.35,.88-1.17,.19-3.06,.38-6.54,.66-2.49,.2-3.19,.21-3.7,.03-.37-.13-.56-.39-.66-.91l-.03-.38q0-.08-.05-.96c-.04-.48-.06-.72-.1-1.2-.11-1.29-.12-1.4-.25-2.32,.84,.29,1.09,.38,1.91,.75,2.32-.19,3.48-.29,5.79-.47-.07-.85-.1-1.28-.17-2.14-1.54,.12-2.32,.19-3.86,.31-1,.08-1.27,.13-2.15,.32-.11-.39-.17-.58-.28-.97,.76,.1,1.38,.11,2.38,.02,1.49-.12,2.23-.18,3.72-.3,.33-.34,.5-.5,.83-.84-.52-.56-.77-.85-1.15-1.45-1.79,.14-2.69,.22-4.48,.37-.53,1.01-.96,1.6-1.93,2.67-1.46,1.64-2.52,2.61-4.12,3.77l-.28-.28c2.46-2.48,3.7-4.07,4.69-6.02-.88,.07-1.32,.11-2.2,.19-.89,.08-1.8,.24-2.4,.4-.12-.42-.17-.63-.29-1.05,.93,.11,1.61,.11,2.64,.02,1.02-.09,1.54-.13,2.56-.22,.4-.92,.6-1.48,.89-2.44-1.11,.09-1.67,.14-2.78,.23-.95,.08-1.56,.19-2.13,.35-.11-.41-.17-.61-.29-1.02,.82,.09,1.5,.12,2.36,.05,1.21-.1,1.82-.15,3.04-.26,.41-1.55,.56-2.77,.61-4.52,.96,.06,2.2,.14,2.49,.21,.22,.05,.35,.14,.36,.27,.02,.22-.25,.38-1.04,.66-.19,1.42-.31,2.04-.66,3.22,.85-.07,1.27-.1,2.12-.17,1.12-1.74,1.97-3.44,2.15-4.3,2.4,.83,2.57,.9,2.59,1.12,.01,.14-.18,.26-.4,.28-.03,0-.48,0-.84,.01-.98,1.15-1.06,1.24-2.92,2.85,1.16-.09,1.74-.14,2.9-.23,.45-.7,.6-.9,1.14-1.55,.98,.64,1.27,.84,2.14,1.52,.06,.08,.09,.13,.1,.19,0,.11-.15,.23-.34,.25-2.59,.2-3.88,.3-6.46,.51Zm-8.76-4.01c1.2,.5,1.67,.74,2.53,1.27,.53,.31,.69,.55,.72,.93,.06,.66-.32,1.54-.65,1.57-.2,.02-.32-.08-.65-.72-.63-1.13-1.26-1.93-2.23-2.79l.29-.27Zm6.39,4.2c-.31,.96-.59,1.62-.97,2.45,1.51-.13,2.27-.19,3.78-.31-.36-.69-.57-1.14-1-2.29-.72,.06-1.09,.09-1.81,.15Z"/><path class="d" d="M149.56,22.5c.14,2.08,.5,2.44,.43,5.56,0,.25-.14,.37-.69,.49-.11,.03-.63,.13-.68,.13-.25,.02-.45-.11-.47-.33v-.16q-.5-9.19-.95-15.68c-.33-4.82-.49-6.68-.71-8.32,.87,.38,1.13,.5,1.89,.97,1.18-.08,1.76-.12,2.94-.2,.36-.52,.46-.66,.88-1.16,.74,.56,.98,.71,1.66,1.24,.21,.21,.3,.31,.31,.42,.01,.19-.07,.25-.89,.58q-1.73,4.52-2.79,6.57c1.07,.92,1.59,1.49,2.14,2.39,.72,1.18,1.24,2.78,1.32,3.99,.08,1.23-.21,2.38-.75,2.99-.54,.61-1,.84-2.02,.99-.12-.98-.3-1.16-1.7-1.68,.03,.48,.05,.72,.08,1.21Zm-.11-1.62c.7,.09,1.32,.13,1.82,.1,.5-.03,.71-.25,.89-.83,.13-.42,.17-.84,.13-1.41-.07-1.12-.35-2.4-.76-3.5-.41-1.1-.75-1.57-1.61-2.4,.72-2.14,1.21-4.49,1.51-7.26-1.2,.08-1.8,.12-2.99,.2,.41,6.04,.61,9.06,1.02,15.1Zm4.29-5.57c.65,.1,.96,.1,1.46,.07,.28-.02,.42-.03,.7-.04,.36-.49,.46-.66,.82-1.13,.67,.4,.87,.52,1.51,.98,.24,.21,.32,.28,.33,.36,.01,.16-.17,.34-.64,.53,.16,2.58,.24,3.87,.4,6.44,.78,1.38,1.41,2.03,2.46,2.46,.85,.35,2.03,.45,4.07,.33,2.88-.17,5.05-.48,7.98-1.16l.02,.36c-.94,.52-1.41,1.07-1.61,2.04-1.69,.11-2.53,.17-4.22,.29-5.75,.33-7.59-.48-9.49-4.14-1.13,1.45-1.62,2.06-2.94,3.49-.01,.22-.02,.42-.02,.55,.01,.43-.12,.7-.29,.71-.11,0-.25-.07-.35-.25-.06-.08-.22-.37-.44-.82-.32-.66-.32-.69-.67-1.33,1.27-.52,2.02-.99,3.74-2.28-.17-2.75-.26-4.13-.44-6.88-.36,.02-.53,.03-.89,.06-.31,.02-.58,.06-1.25,.16-.1-.32-.15-.49-.25-.81Zm.41-9.25c1.03,.7,1.69,1.21,2.43,1.96,.78,.79,1.09,1.34,1.13,1.91,.04,.71-.56,1.77-1.01,1.8-.25,.02-.4-.17-.58-.79-.54-1.84-1.06-2.96-2.17-4.62l.21-.26Zm13.46,.29c.51-.83,.7-1.08,1.3-1.86,1.05,.74,1.37,.97,2.4,1.77,.12,.1,.18,.18,.18,.24,0,.14-.18,.28-.35,.29-3.2,.17-4.8,.26-8,.45-.57,1.27-1.09,2.35-1.53,3.01,.29,.12,.32,.15,1.21,.59,1.85-.11,2.78-.16,4.63-.27,.39-.49,.52-.63,.95-1.1,.75,.45,.99,.61,1.68,1.06,.18,.16,.24,.23,.24,.32,.01,.19-.26,.43-.83,.68,.12,2.08,.17,3.13,.29,5.21,.15,2.66,.28,2.79,.35,5.24,.02,.65-.15,.97-.49,1.26-.42,.37-.91,.57-1.98,.77-.14-.95-.6-1.23-2.5-1.51l-.02-.38c1.06,.08,1.37,.06,2.81,0h.08c.28-.02,.36-.11,.34-.41l-.21-3.65c-2,.11-3,.17-5,.29,.12,2.06,.18,3.09,.31,5.15-.02,.19-.07,.25-.2,.31s-.9,.22-1.18,.24c-.25,.01-.34-.12-.36-.45-.13-2.35-.25-5.1-.38-7.27-.03-.49-.16-2.19-.37-5.12-.87,1.35-1.37,1.93-2.5,3.1l-.4-.22c1.89-2.79,2.72-4.46,3.37-6.75-.69,.04-1.04,.06-1.73,.1-.92,.06-1.28,.11-2.26,.25-.09-.38-.14-.57-.23-.95,1.1,.1,1.61,.12,2.45,.07,.78-.05,1.17-.07,1.96-.12,.62-2.24,.65-2.32,.71-3.67,2.78,.33,3.17,.42,3.19,.67,.01,.22-.96,.2-1.34,.57-.4,.39-.45,1.51-.76,2.33,1.68-.1,2.52-.15,4.2-.24Zm.32,7.66c-.06-1.13-.1-1.69-.16-2.82-2.01,.11-3.01,.17-5.02,.29,.07,1.13,.1,1.69,.17,2.82,2-.12,3.01-.18,5.01-.29Zm-4.97,.89c.07,1.14,.1,1.71,.17,2.85,2-.12,3-.18,5-.29-.06-1.14-.1-1.71-.16-2.85-2,.11-3.01,.17-5.01,.29Z"/><path class="d" d="M179.82,13.61c1.21,.13,1.82,.13,3.66,.04,6.58-.31,9.87-.45,16.46-.69,.74-1.07,1.01-1.38,1.84-2.4,1.46,1.05,1.92,1.39,3.32,2.52,.06,.05,.09,.13,.09,.16,0,.08-.11,.17-.3,.17-8.55,.29-12.83,.47-21.38,.87-1.67,.08-2.17,.13-3.44,.36-.1-.41-.15-.62-.25-1.03Z"/><path class="d" d="M225.82,22.7c2.97-.94,4.86-2.12,6.41-3.95,1.59-1.87,2.4-4.13,2.36-6.66-.04-2.66-1.17-4.76-3.26-6.01-1.25-.77-3.1-1.21-4.86-1.17-.34,0-.53,.01-.98,.08,.69,.95,.9,1.46,.92,2.26,.05,2.14-1.43,6.2-3.47,9.58-1.67,2.78-3.01,4.17-4.03,4.19-.47,.01-.94-.2-1.23-.54-.26-.31-.32-.43-.82-1.74-.27-.71-.44-1.03-1.29-2.55-.47-.87-.68-1.6-.71-2.48-.05-1.73,.84-3.79,2.36-5.51,2.2-2.42,5.86-4,9.53-4.07,2.83-.06,5.45,.8,7.26,2.39,1.82,1.59,2.74,3.75,2.78,6.41,.05,3.43-1.93,6.51-5.39,8.41-1.59,.88-3.02,1.35-5.37,1.81-.08-.19-.12-.28-.2-.46Zm-9.34-8.32c.04,1.32,.49,2.65,1.21,3.59,.4,.48,.77,.78,1.08,.77,.61-.02,1.9-1.53,3.22-3.71,1.98-3.29,3.38-6.86,3.35-8.57,0-.41-.1-.68-.42-1.36-4.85,.96-8.54,5.05-8.43,9.27Z"/><path class="d" d="M252.57,11.7c1.26,.3,2.65,.81,3.77,1.44,.92,.52,1.28,1.07,1.29,1.92,0,.69-.27,1.32-.61,1.32-.03,0-.22-.11-.31-.16-.17-.14-.19-.16-.7-.9-.87-1.18-1.87-2.11-3.44-3.12,.01,2.36,.02,3.54,.03,5.9,.06,5.03,.22,5.2,.12,6.32-.03,.32-.3,.47-.99,.47h-.36c-.41,0-.57-.08-.61-.27-.05-.24,.01-2.42,.04-6.37-.01-1.91-.02-2.87-.03-4.78-1.36,1.38-2.46,2.27-4.37,3.52l-.31-.41c1.79-1.5,3.06-2.83,4.61-4.9,1.55-2.07,2.43-3.56,3.4-5.65-2.25,.01-3.37,.02-5.62,.04-.62,0-1.03,.04-1.98,.15-.08-.41-.12-.61-.21-1.01,.76,.16,1.54,.23,2.18,.23,.9,0,1.34-.01,2.24-.02l-.02-2.88c0-1.1-.04-1.46-.24-2.39,.62,.05,1.09,.1,1.4,.13,1.35,.1,1.71,.18,1.71,.46,0,.22-.22,.36-1.06,.64,0,1.62,.01,2.42,.02,4.04,.63,0,.94,0,1.57,0,.56-.63,.75-.8,1.34-1.38,.76,.6,.98,.79,1.66,1.37,.25,.27,.31,.36,.31,.44,0,.22-.14,.27-1.4,.55-1.17,2.06-1.92,3.17-3.44,5.04v.27Zm5.79-1.42c-.59,0-1.11,.06-2.23,.2-.09-.42-.14-.63-.23-1.04,1.14,.19,1.56,.21,2.46,.21,1.58,0,2.38,0,3.96,0,0-2.48,0-3.72,0-6.21,0-1.43-.03-2.14-.2-3.43,.59,.08,1.18,.14,1.46,.17,1.46,.14,1.8,.25,1.79,.5,0,.22-.31,.41-1.12,.71,0,3.31,0,4.96-.01,8.27,1.15,0,1.72,0,2.87,0,.65-.82,.98-1.23,1.63-2.05,1.17,.97,1.53,1.27,2.64,2.29,.06,.06,.11,.17,.11,.19,0,.11-.14,.22-.28,.22-2.79-.02-4.18-.02-6.97-.02,0,4.98,0,7.47-.02,12.44,1.35,0,2.03,0,3.38,0,.75-.9,1-1.2,1.86-2.14,1.13,.97,1.46,1.3,2.56,2.4,.08,.06,.14,.17,.14,.19,0,.11-.14,.19-.28,.19-5.79-.03-8.68-.04-14.47-.02-1.13,0-1.61,.03-2.63,.2-.1-.42-.15-.63-.25-1.04,.97,.13,1.88,.21,2.88,.21,1.96,0,2.94,0,4.9,0,0-4.98,0-7.47,0-12.44-1.58,0-2.38,0-3.96,0Z"/><path class="d" d="M296.08,11.5c2.28-1.03,3.78-1.93,5.15-3.16,1.98,1.12,2.34,1.35,2.34,1.54,0,.16-.2,.24-.54,.23-.11,0-.64-.04-1-.05-1.92,.86-3.8,1.48-5.96,1.93-.01,.63-.02,.94-.03,1.56,0,.38,.05,.48,.32,.53,.19,.04,1.53,.11,2.28,.13,.25,0,.68,0,1.39,0,.36,0,.72,.02,1.14,.03,1.06,.02,1.2,0,1.37-.27,.2-.3,.82-1.71,1.33-3.02l.33,.04c-.09,.87-.13,1.3-.22,2.16,0,.19,0,.33-.01,.47v.16c0,.14,0,.17,.49,.34,.36,.13,.58,.34,.57,.67-.02,.91-.78,1.02-5.95,.9-4.48-.1-4.72-.18-4.75-1.58,.05-2.81,.08-4.22,.14-7.03-2.3-.04-3.45-.06-5.76-.1-.69,1.01-1.06,1.47-1.74,2.17,1.57,.02,2.36,.04,3.94,.06,.48-.43,.62-.54,1.13-.94,.63,.51,.83,.65,1.43,1.15,.19,.17,.25,.25,.24,.33,0,.16-.14,.22-1.1,.5-1.89,2.6-3.39,3.92-6.05,5.26-1.96,.99-3.83,1.62-6.48,2.2l-.13-.44c3.23-1.12,5.31-2.13,7.28-3.59-.22-.03-.28-.09-.44-.31-.65-.97-1.45-1.78-2.11-2.17-1.83,1.38-2.7,1.89-4.32,2.56-.1-.15-.15-.23-.25-.39,1.74-1.08,2.89-2.08,4.48-3.79,.94-1.03,1.45-1.68,2.02-2.64-1.31-.02-1.96-.03-3.27-.04-1.2-.02-1.4-.02-2.38,.14-.07-.43-.11-.64-.18-1.07,.86,.2,1.59,.29,2.57,.31,7.12,.09,10.69,.15,17.81,.32,.74-.75,.97-.99,1.75-1.72,1.04,.88,1.34,1.16,2.36,2.06,.05,.08,.11,.17,.11,.22,0,.11-.12,.16-.31,.16-3.55-.09-5.33-.13-8.89-.2-.04,1.75-.05,2.62-.09,4.37Zm-.78-8.75c0-.14,.03-.19,.03-.22,.03-1.21-.02-1.81-.09-2.31,2.41,.29,3.11,.45,3.1,.7,0,.19-.23,.3-1.19,.52q-.05,1.04-.06,1.34c1.73,.04,2.59,.05,4.32,.1,.8-.81,1.06-1.05,1.84-1.77,1.1,.91,1.46,1.19,2.58,2.13,.05,.08,.11,.17,.11,.22,0,.11-.12,.16-.29,.16-3.43-.09-5.14-.13-8.57-.2-.01,.58,.03,.87,0,1.57-.01,.31-.29,.38-1.55,.35-.28,0-.34-.06-.33-.25,.03-.86,.08-1.18,.09-1.7-2.15-.04-3.23-.06-5.38-.1v.33c-.02,.2-.03,.3-.04,.49,0,.16,.04,.37,.04,.71,0,.16-.03,.22-.12,.27-.11,.08-.73,.13-1.51,.11-.17,0-.25-.06-.28-.22,.07-.93,.1-1.23,.11-1.73-2.14-.03-3.21-.05-5.35-.07-1.18-.01-1.4,.01-2.24,.11-.07-.4-.11-.59-.18-.99,.78,.17,1.34,.23,2.44,.25,2.14,.03,3.21,.04,5.35,.07,.03-.3,.04-.55,.04-.77,.01-.74-.01-1.04-.09-1.76,.59,.09,1.09,.15,1.4,.19,1.34,.16,1.65,.25,1.65,.49,0,.19-.26,.3-1.19,.53-.01,.69-.01,.8-.02,1.35,2.15,.04,3.23,.06,5.38,.1Zm-7.25,15.64c.06-.55,.1-.88,.1-1.34,0-.44-.02-.69-.09-1.18,.58,.09,1.03,.18,1.33,.21,1.19,.18,1.66,.33,1.66,.52s-.14,.24-1.04,.53c-.1,.82-.1,.93-.16,1.29,2.05,.03,3.08,.05,5.13,.09,.03-1.37,0-1.4-.06-2.31,2.66,.3,2.88,.33,2.88,.58,0,.19-.06,.22-.98,.58,0,.47-.01,.71-.02,1.18,1.7,.04,2.55,.05,4.25,.09,.77-.83,1-1.08,1.77-1.8,1.12,.88,1.44,1.16,2.5,2.12,.05,.08,.11,.17,.11,.22,0,.08-.14,.19-.25,.19-3.36-.09-5.04-.13-8.41-.2-.02,1.18-.03,1.35-.03,1.67-.01,.69-.02,.85-.03,4.04,0,.14-.06,.19-.14,.24-.14,.08-.86,.15-1.47,.13-.25,0-.33-.09-.33-.31,.12-1.84,.16-2.61,.19-4.01,.01-.73,.02-1.09,.04-1.81-2.09-.04-3.13-.06-5.22-.09-.39,1.86-.91,2.84-1.92,3.7-1.74,1.48-4.1,2.3-7.51,2.62-.04-.17-.06-.25-.11-.41,3.24-.76,4.89-1.48,6.1-2.7,.81-.81,1.3-1.77,1.6-3.24-2.02-.03-3.03-.05-5.05-.07-1.03-.01-1.44,0-2.17,.14-.07-.4-.11-.59-.18-.99,.8,.17,1.28,.21,2.36,.22,2.07,.03,3.1,.04,5.16,.07Zm-1.71-8.6c-.54,.51-.82,.76-1.38,1.22,.53,.09,1.04,.23,1.72,.49,.94,.36,1.25,.62,1.24,1.09,0,.33-.09,.55-.24,.79,1.38-1.11,2.2-2.03,3.21-3.52-1.82-.03-2.73-.05-4.55-.07Z"/><path class="d" d="M319.52,9.86c-.47-.02-.7-.02-2.49,.05-.1-.39-.15-.58-.25-.97q.61,.1,2.73,.28c2.21,.08,3.32,.12,5.53,.2q.01-.36,.05-1.34c.03-.77,.02-1.15-.04-1.95q3.01,.44,3,.69c0,.11-.07,.22-.29,.35,0,0-.11,.05-.34,.18-.09,.05-.23,.11-.26,.15-.32,.54-.05,1.18-.11,2,1.97,.08,2.95,.12,4.91,.2,.61-.66,.91-.98,1.52-1.64,1.03,.87,1.35,1.16,2.37,2.05,.08,.09,.1,.14,.1,.2,0,.11-.12,.19-.26,.18-3.48-.15-5.22-.22-8.7-.36-.07,1.12-.12,1.7-.25,2.93,1.97,.08,2.96,.12,4.93,.2,.63-.69,.95-1.03,1.58-1.72,1.05,.92,1.37,1.21,2.44,2.22,.03,.03,.05,.09,.05,.11,0,.08-.12,.19-.26,.18-3.53-.15-5.29-.23-8.82-.36-.16,1.26-.3,1.94-.56,3.03,2.88,.11,4.32,.17,7.2,.29,.79-.85,1.02-1.11,1.86-1.84,1.13,.93,1.48,1.25,2.6,2.29,.11,.11,.16,.2,.16,.25,0,.08-.09,.13-.17,.13-4.57-.21-6.85-.3-11.42-.48,1.05,1.61,2.19,2.69,4.12,3.9,2.13,1.34,4.74,2.12,8.27,2.53v.3c-1.03,.31-1.52,.87-1.88,2.06-3.23-.89-5.64-2.23-7.8-4.35-1.52-1.46-2.37-2.54-3.25-4.17-.65,1.68-1.61,2.93-3.13,4.12-2.57,2.02-5.38,3.11-9.74,3.8-.04-.14-.06-.22-.1-.36,3.21-.89,5.44-1.94,7.54-3.54,1.82-1.39,2.87-2.7,3.49-4.38-2.72-.1-4.08-.15-6.81-.24-1.25-.04-1.67-.03-2.65,.11-.1-.42-.15-.63-.25-1.05,.86,.14,2.13,.29,2.91,.31,2.8,.09,4.2,.14,7,.25,.32-1.09,.42-1.69,.59-3.03-2.05-.08-3.07-.11-5.12-.18-.61-.02-1.14-.01-2.43,.06-.12-.4-.18-.6-.3-1,.58,.1,2.36,.3,2.72,.31,2.08,.07,3.12,.11,5.21,.19,.13-1.23,.17-1.64,.25-2.93-2.19-.08-3.28-.12-5.47-.2Zm15.78-4.86c.54-.55,.81-.82,1.35-1.37,1.03,.73,1.33,.97,2.37,1.67,.24,.23,.4,.4,.4,.54,0,.08-.07,.17-.15,.21-.1,.05-.4,.12-.74,.19-.65,.14-.99,.2-1.05,.23-1.13,.88-1.68,1.3-2.89,2.15l-.33-.21c.66-1.1,.91-1.61,1.38-2.77-7.33-.32-10.99-.46-18.33-.7-.26,2.03-1.51,4.13-2.4,4.1-.42-.01-.87-.88-.84-1.59,.01-.33,.16-.54,.67-.89,1.29-.87,1.67-1.49,2.25-3.69l.48,.02q-.03,1.02-.07,1.43c3.14,.1,4.7,.16,7.84,.28,.03-.69,.04-1.04,.06-1.73,.02-.63,.01-1.02-.01-1.87,1.17,.15,2.47,.39,2.87,.49,.27,.07,.39,.15,.38,.26,0,.19-.04,.22-1.21,.75-.03,.87-.05,1.3-.08,2.17,3.22,.12,4.84,.19,8.06,.33Z"/><path class="d" d="M346.24,26c.9-2.43,1.33-4.28,2.06-8.83,2.27,.72,2.52,.82,2.51,1.07,0,.16-.21,.26-.97,.39-1.52,4.54-1.83,5.27-3.25,7.51-.14-.05-.21-.08-.35-.13Zm1.63-19.91c.76,.48,1.03,.69,1.67,1.24,1.11-1.9,1.83-3.42,2.43-5.15,2.32,.87,2.75,1.08,2.74,1.33-.01,.19-.27,.26-1.25,.32q-1.26,1.47-3.57,3.8c1.26,1.11,1.52,1.43,1.49,1.92-.05,.85-.51,1.76-.9,1.74-.2-.01-.3-.18-.45-.57-.53-1.6-1.2-2.73-2.46-4.36,.12-.1,.18-.16,.29-.26Zm3.42,9.03c-1.18,.18-1.29,.21-2.9,.45-.18,.76-.27,.95-.47,.94-.11,0-.22-.12-.26-.32,0,0-.16-.78-.44-2.3,.53,.11,.75,.15,1.11,.17,.2,.01,.53,.03,1.28,.04,1.02-1.29,1.44-1.91,2.63-3.74,1.52-2.34,2.05-3.24,2.79-4.88,2.11,1,2.62,1.27,2.61,1.52-.01,.22-.3,.29-1.33,.26-2.59,3.21-3.85,4.71-5.83,6.83,2.01,.02,2.99,0,4.7-.08-.28-1.03-.42-1.45-.84-2.47l.26-.23c1.51,1.57,2.45,3.08,2.41,3.9-.03,.58-.73,1.58-1.09,1.56-.08,0-.19-.1-.24-.23-.06-.16-.07-.17-.22-1.11-.02-.22-.08-.5-.19-1.06q-1.41,.28-2.2,.43c-.13,2.35-.19,3.52-.32,5.87-.11,2.57-.16,3.85-.27,6.42-.08,.41-.3,.48-1.41,.42-.39-.02-.47-.08-.48-.33-.08-1.89,.14-2.11,.41-6.61,.12-2.18,.17-3.27,.29-5.46Zm2.07,12.08c2.08-.55,3.27-.98,4.81-1.71,1.25-.59,1.63-.81,2.27-1.38,.46,.25,.59,.31,1.02,.58,.39,.23,.58,.35,.96,.58,.19,.09,.24,.15,.24,.23,0,.14-.32,.28-.57,.27-.25-.01-.5-.06-.8-.16-2.51,1.14-4.34,1.59-7.85,1.97-.04-.16-.05-.23-.09-.39Zm.93-9.85c.58,.58,.71,.76,1.29,1.78,.65,1.14,.88,1.7,.85,2.22-.05,.82-.75,2.02-1.2,2-.25-.01-.29-.18-.35-1.15-.1-1.65-.34-2.85-.88-4.7,.11-.06,.17-.09,.29-.15Zm14.99-5.54c.69-.67,.89-.85,1.61-1.47,.9,.8,1.19,1.07,2.08,1.95,.1,.12,.13,.17,.12,.23,0,.08-.12,.16-.29,.15-5.55-.37-8.33-.54-13.88-.86-1.09-.06-1.59-.06-2.46,.05-.05-.42-.08-.63-.14-1.05,.88,.24,1.27,.29,2.64,.37,1.58,.09,2.38,.14,3.96,.23,.05-.9,.08-1.35,.14-2.25-1.16-.07-1.74-.1-2.9-.17-.78-.05-1.57,0-2.19,.09-.05-.45-.08-.68-.13-1.14,.71,.26,1.27,.35,2.36,.41,1.16,.07,1.74,.1,2.9,.17,.05-.87,.08-1.3,.13-2.17-1.45-.09-2.18-.13-3.64-.21-.84-.05-1.29-.02-2.05,.07-.04-.43-.06-.65-.11-1.08,.72,.23,1.27,.32,2.2,.37,1.46,.08,2.18,.13,3.64,.21,0-.14,.01-.21,.02-.36,.07-1.21,.07-1.59-.01-2.56,2.2,.33,3.01,.54,2.99,.82-.01,.22-.36,.39-1.13,.56l-.1,1.64c1.54,.09,2.32,.14,3.86,.24,.66-.65,.87-.83,1.53-1.44,.88,.8,1.14,1.04,1.93,1.86,.13,.15,.18,.23,.18,.31,0,.11-.09,.13-.29,.12-2.9-.19-4.35-.28-7.24-.46-.05,.87-.08,1.3-.13,2.17,1.3,.08,1.94,.12,3.24,.2,.57-.6,.72-.78,1.29-1.35,.88,.74,1.11,1.01,1.93,1.8,.08,.09,.13,.17,.13,.23,0,.11-.12,.16-.32,.14-2.52-.16-3.79-.24-6.31-.4-.06,.9-.08,1.35-.14,2.25,1.84,.11,2.76,.17,4.6,.29Zm-10.02,11.96c-.04,.22-.1,.3-.3,.34-.28,.09-.7,.12-1.03,.11-.28-.02-.36-.08-.43-.3,.18-1.75,.39-4.82,.54-7.42,.06-1.12,.1-2.22,.11-3.76,.92,.52,1.16,.67,1.97,1.24,3.04,.18,4.56,.27,7.6,.46,.5-.46,.65-.59,1.19-1.05,.61,.51,.8,.66,1.41,1.16,.21,.23,.28,.35,.28,.43-.01,.19-.22,.32-.93,.63-.05,.81-.08,1.22-.13,2.03-.14,2.19-.18,2.82-.34,6.56-.04,.19-.1,.24-.27,.29-.17,.04-.87,.08-1.17,.06-.19-.01-.27-.07-.34-.27,.01-.2,.02-.3,.03-.49-3.26-.21-4.88-.31-8.14-.5l-.03,.49Zm8.72-8.69c-3.27-.21-4.91-.31-8.18-.5-.05,.87-.08,1.3-.13,2.17,3.27,.19,4.9,.29,8.17,.5,.05-.87,.08-1.3,.14-2.17Zm-8.35,2.3c-.05,.89-.08,1.33-.13,2.22,3.26,.19,4.9,.29,8.16,.5,.06-.89,.08-1.33,.14-2.22-3.27-.21-4.9-.31-8.17-.5Zm-.17,2.85l-.14,2.41c3.26,.19,4.89,.29,8.14,.5,.06-.96,.09-1.45,.15-2.41-3.26-.21-4.89-.31-8.15-.5Zm5.21,4.44c3.73,.75,4.9,1.08,5.78,1.61,.51,.28,.77,.9,.72,1.64-.03,.47-.16,.76-.35,.75-.11,0-.24-.1-.37-.22-.29-.27-1-.78-1.72-1.24-1.38-.91-2.57-1.54-4.3-2.17,.1-.15,.15-.22,.24-.37Z"/><path class="d" d="M389.65,5.96c.84,.06,2.14,.42,2.79,.74,.54,.26,.74,.55,.71,.94v.05c-.02,.22-.05,.22-.28,.69-.41,.9-.87,3.24-1.05,5.51-.13,1.62,.07,2.04,.93,2.11,.58,.05,1.21-.13,3.84-1.1,.52-.21,.83-.26,1.17-.24,.67,.05,1.29,.68,1.24,1.26-.03,.36-.25,.64-.65,.77-.2,.07-.6,.17-1.91,.42-3.44,.66-5.35,1.34-7.19,2.52-1.58,1.02-2.33,2.05-2.43,3.34-.15,1.97,1.35,3.1,4.42,3.34,1.71,.13,4.45,.02,6.48-.28,.28-.03,.39-.05,.56-.04,.72,.06,1.44,.81,1.38,1.46-.04,.49-.37,.71-1.26,.8-.9,.09-3.67,.06-5.33-.07-2.01-.16-3.53-.49-4.65-.99-1.79-.81-2.85-2.47-2.71-4.28,.12-1.59,1.12-3.03,3.06-4.4,.89-.65,1.85-1.18,3.56-1.93-.61-.05-.86-.15-1.3-.51-.39-.33-.59-.96-.65-2.14-.03-.66-.02-1.27,.06-3.33,.09-2.33,.1-2.76-.09-3.17-.25-.54-.78-.86-1.94-1.14,.45-.32,.68-.39,1.24-.35Z"/><path class="d" d="M412.61,20.41c2.14-2.65,3.18-4.21,4.64-6.91,.89-1.71,1.87-3.72,2.35-4.97,.19-.48,.27-.72,.44-1.42,2.34,.88,2.96,1.19,2.94,1.44-.02,.22-.37,.35-1.11,.45-1.72,2.95-2.54,4.2-4.02,6.24,.47,.1,1.26,.37,1.66,.54,.22,.08,.35,.2,.34,.31-.01,.14-.16,.21-.94,.46-.22,2.3-.32,3.45-.54,5.74-.09,.93-.22,2.15-.36,3.53-.05,.51-.08,.9-.11,1.15-.08,.88-.11,1.15-.34,4.52v.14c-.03,.16-.13,.26-.32,.3-.25,.05-1.06,.07-1.45,.03-.28-.03-.39-.19-.37-.48,.04-.67,.41-3.82,1.01-9.37,.21-2.29,.32-3.43,.53-5.72-1.65,2.08-2.34,2.82-4.04,4.4l-.3-.39Zm8.41-7.77c1.51,.42,2.11,.56,3.06,.65,4.44,.43,6.66,.65,11.09,1.11,.78-.75,1.03-.97,1.79-1.75,1.22,1.01,1.58,1.35,2.65,2.41,.1,.09,.2,.24,.19,.3-.01,.11-.13,.21-.25,.2-6.2-.66-9.31-.97-15.51-1.57-1.42-.14-1.79-.14-2.83-.13-.08-.48-.12-.72-.19-1.2Zm.89,7.73c.98,.29,1.69,.44,2.86,.55,3.37,.33,5.06,.5,8.43,.85,.77-.72,.99-.95,1.76-1.61q1.02,.96,2.35,2.21c.1,.12,.14,.24,.14,.29-.01,.11-.16,.18-.35,.16-4.96-.52-7.44-.77-12.4-1.26-1-.1-1.53-.12-2.65-.09-.06-.44-.09-.65-.15-1.09Zm.39-3.77c.79,.24,1.98,.47,2.89,.56,3.36,.33,5.04,.5,8.4,.84,.72-.75,.94-.98,1.69-1.65,1.08,1,1.41,1.28,2.41,2.24,.07,.12,.12,.21,.12,.23-.01,.11-.16,.23-.3,.22-4.95-.52-7.42-.77-12.37-1.25-1-.1-1.59-.13-2.74-.13-.04-.42-.06-.63-.09-1.06Zm1.06,15.33v.11c-.02,.14-.06,.22-.17,.26-.12,.04-.98,.07-1.45,.02-.25-.02-.35-.15-.32-.39,.31-2.95,.56-5,.67-6.09,.13-1.34,.17-1.72,.19-2.85,.98,.62,1.26,.81,2.2,1.57,3.56,.35,5.33,.53,8.89,.89,.55-.47,.73-.61,1.23-1.12,.75,.63,.95,.82,1.56,1.41,.05,.06,.1,.12,.12,.18,.1,.09,.15,.21,.14,.26-.05,.22-.83,.33-1.01,.53-1.12,1.27-.44,4.18-.59,6.46v.08c-.02,.14-.09,.25-.24,.31-.11,.05-1.04,.06-1.39,.02-.22-.02-.32-.14-.32-.39,.05-.47,.07-.7,.12-1.17-3.82-.39-5.72-.59-9.54-.96-.03,.35-.05,.52-.09,.87Zm.32-22.65c.83,.22,1.96,.44,2.77,.52,3.01,.29,4.51,.45,7.51,.75,.78-.75,1.03-.94,1.78-1.64,1.06,.97,1.34,1.24,2.28,2.25,.1,.12,.17,.24,.17,.29,0,.08-.1,.16-.21,.14-4.63-.49-6.95-.72-11.59-1.18-1.01-.1-1.51-.12-2.56-.08-.06-.43-.09-.64-.15-1.06Zm-.17,21.15c3.82,.37,5.73,.56,9.54,.96,.22-2.11,.33-3.16,.54-5.27-3.83-.4-5.74-.59-9.57-.96-.21,2.11-.31,3.17-.51,5.28Z"/><path class="d" d="M453.76,24.42c-.09,.79-.14,1.18-.23,1.96q.29,.2,2.21,1.28c.94,.55,1.77,1.35,1.89,1.83,.07,.28,.11,.73,.06,1.17-.06,.55-.3,.88-.6,.84-.28-.03-.37-.18-1.3-1.78-.44-.77-1.47-2.05-2.29-2.92-.5,4.37-.57,5.41-.88,8.63-.04,.43-.05,.44-1.58,.37-.19-.05-.26-.14-.24-.33q.79-4.97,1.01-6.88c.09-.83,.14-1.24,.24-2.07-.73,1.27-1.6,2.22-3.31,3.77-1.12,1.03-1.91,1.61-3.52,2.54-.1-.17-.16-.25-.26-.42,1.47-1.19,2.95-2.71,4.49-4.67,.98-1.24,1.52-2.04,2.36-3.55-.88-.1-1.31-.15-2.19-.25-.04,.33-.06,.49-.09,.82-.06,.32-.26,.36-1.29,.24-.42-.05-.5-.12-.46-.44,.17-1.28,.47-3.48,.72-5.72,.08-.68,.12-1.29,.16-2.22,.77,.47,.97,.63,1.63,1.26,1.02,.12,1.53,.17,2.56,.29,.13-1.11,.19-1.67,.32-2.78-1.5-.17-2.26-.26-3.76-.43-.56-.06-1.29-.06-1.69-.02-.02-.41-.03-.62-.06-1.03,.54,.23,1.06,.34,1.95,.44,1.45,.16,2.17,.24,3.62,.41l.02-.22c.19-1.69,.25-2.4,.28-3.67,2.79,.59,2.98,.65,2.95,.95-.03,.25-.35,.35-1.33,.46l-.31,2.67c.88,.1,1.32,.15,2.2,.26,.61-.59,.83-.82,1.44-1.41,.81,.81,1.06,1.09,1.8,2.01,.05,.09,.06,.17,.06,.23-.01,.11-.16,.17-.3,.16-2.1-.25-3.16-.37-5.26-.62-.13,1.11-.19,1.67-.32,2.78,1.03,.12,1.55,.18,2.59,.3,.46-.33,.59-.43,1.05-.73,.48,.44,.64,.57,1.15,.99,.2,.19,.3,.31,.29,.42-.02,.19-.68,.37-.86,.59-.61,.77-.22,2.13-.6,5.54-.03,.27-.21,.36-.71,.3-.31-.04-.46-.05-.78-.09-.14-.02-.16-.05-.21-.13,.04-.33,.06-.49,.1-.82-1.09-.13-1.63-.19-2.71-.32Zm-.99-5.62c-1.02-.12-1.53-.17-2.56-.29-.22,1.92-.33,2.88-.54,4.8,1.02,.11,1.53,.17,2.55,.29,.22-1.92,.33-2.88,.55-4.8Zm4.34,.5c-1.09-.13-1.63-.19-2.72-.32-.22,1.92-.33,2.88-.55,4.8,1.09,.13,1.63,.19,2.72,.32,.22-1.92,.34-2.88,.56-4.8Zm-3.14,16.36c1.76-.54,3.06-1.14,4.71-2.1,.87-.53,1.46-.99,2.56-1.96,.46,.36,.84,.66,1.08,.82,.41,.33,.69,.55,.79,.62,.2,.16,.3,.29,.29,.37-.03,.22-.35,.32-.73,.27-.22-.03-.5-.06-.8-.12-2.57,1.35-4.48,1.95-7.83,2.45-.03-.14-.04-.2-.07-.34Zm13.61-20.78c-1.48,1.89-1.64,2.07-2.79,3.2,1.86,.23,2.79,.34,4.64,.57,.48-.47,.64-.59,1.17-.99,.48,.47,.91,.86,1.29,1.21,.17,.19,.24,.31,.23,.39-.02,.19-.24,.33-.83,.56-.1,.76-.14,1.14-.24,1.91-.25,1.96-.75,6.22-1.18,10.32v.05c-.04,.27-.44,.33-1.54,.2-.3-.04-.35-.1-.36-.27l.09-.76c-2.76-.34-4.14-.51-6.9-.84l-.07,.55c-.05,.16-.09,.23-.2,.25-.1,.02-.95,0-1.25-.04-.25-.03-.35-.15-.32-.37v-.05c.64-4.57,.73-5.17,.83-5.99,.76-6.41,.83-6.98,.86-8.14,.81,.54,1.07,.71,1.89,1.22,.52,.06,.78,.09,1.31,.16,.48-1.16,.74-1.88,1.12-3.41-1.58-.19-2.37-.29-3.96-.48-.36-.04-1.04-.04-1.47,.02-.05-.42-.08-.62-.13-1.04,.51,.2,1.01,.31,1.68,.39,3.48,.41,5.22,.63,8.7,1.06,.76-.68,.99-.87,1.72-1.56,.93,.95,1.21,1.23,2.1,2.23,.1,.12,.14,.24,.13,.29-.01,.08-.13,.15-.24,.14-2.51-.32-3.76-.47-6.27-.78Zm1.97,4.42c-2.78-.35-4.17-.52-6.95-.85-.15,1.23-.22,1.85-.37,3.08,2.78,.33,4.16,.5,6.94,.85,.15-1.23,.23-1.85,.38-3.08Zm-7.4,2.86c-.16,1.34-.24,2.01-.4,3.35,2.77,.33,4.15,.5,6.92,.85,.17-1.34,.25-2.01,.42-3.35-2.77-.34-4.16-.51-6.93-.85Zm-.48,3.98c-.18,1.46-.26,2.19-.44,3.65,2.76,.33,4.14,.5,6.9,.84,.18-1.46,.27-2.19,.45-3.65-2.77-.34-4.15-.51-6.92-.85Zm3.44,5.81q.66,.36,3.08,1.6c1.71,.88,2.45,1.44,2.62,2.07,.08,.29,.13,.71,.11,.93-.09,.74-.34,1.17-.65,1.14-.19-.02-.34-.15-.56-.46-.44-.69-1-1.38-1.84-2.28-.71-.75-1.25-1.21-3.01-2.61,.1-.15,.15-.23,.24-.38Z"/></g><g><path class="d" d="M31.37,29.33c-10.42,1.44-20.83,2.99-31.22,4.64-.06-.39-.09-.59-.16-.98,10.39-1.66,20.81-3.21,31.24-4.65l.14,.99Z"/><path class="d" d="M523.84,34.57c-10.38-1.66-20.79-3.2-31.21-4.64l.14-.99c10.42,1.44,20.84,2.99,31.22,4.64-.06,.39-.09,.59-.16,.98Z"/></g></g></g></g></svg>