<svg xmlns="http://www.w3.org/2000/svg" width="67.202" height="387.112"><path data-name="パス 4089" d="M40.638 108.119a33.273 33.273 0 0 0 4.7-3.6v12.217l1.854-.117v-12.237a6.943 6.943 0 0 1 2.465 2.059l.58.841a1 1 0 0 0 .812.493.949.949 0 0 0 .928-.9c0-.812-1.015-1.537-1.247-1.682a10.054 10.054 0 0 0-3.538-1.507v-1.015a34.143 34.143 0 0 0 4.321-5.568l.928-.145c.232-.029.435-.116.435-.348 0-.087 0-.2-.261-.377l-2.143-1.566-.931 1.252h-2.32v-4.147c.986-.522 1.1-.58 1.1-.841s-.406-.29-.522-.319l-2.465-.2v5.51h-4.7l.348.812h8.294a34.644 34.644 0 0 1-9.077 10.9Zm26.506 6.964v-.725l-2.581-2-1.682 1.913h-4.35v-13.282h7.714v-.609l-2.639-2.03-1.653 1.827h-3.422v-8.381c1.044-.319 1.16-.348 1.16-.667 0-.348-.435-.435-.551-.435l-2.468-.29v9.773h-6.58l.406.812h6.174v13.282h-7.45l.406.812Zm-15.457 19.616a12.44 12.44 0 0 1-2.726 2.987 1.2 1.2 0 0 0-.489-1.015 3.945 3.945 0 0 0-1.943-.812c.7-.551.841-.7 1.392-1.16Zm-10.15 7.685c5.249-1.16 8.294-3.132 10.585-5.394.551-.551.986-1.015 1.479-1.537.783-.2 1.044-.29 1.044-.551a.647.647 0 0 0-.261-.435l-1.682-1.248-.551.667h-3.479l1.508-1.856h15.775l.029-.464L63.896 130l-1.16 1.219H41.363l.435.812h6.032a16.469 16.469 0 0 1-6.119 5.6l.261.435a11.509 11.509 0 0 0 3.712-1.682 5.861 5.861 0 0 1 1.334 1.1c.493.638.551.725 1.015.957a19 19 0 0 1-6.641 3.508Zm7.6 2.117a4.947 4.947 0 0 1-1.945 3.364 11.927 11.927 0 0 1-4.553 2.32l.116.493a13.628 13.628 0 0 0 5.568-2.03 5.391 5.391 0 0 0 2.668-4.147h5.829v6.09l1.8-.29v-5.8h8.12v-.609l-2.409-1.773-1.359 1.628h-4.354v-1.74c.928-.261 1.015-.29 1.015-.609 0-.29-.2-.435-.522-.464l-2.291-.2v3.016h-5.829l.058-1.885c.928-.319 1.044-.348 1.044-.58 0-.377-.58-.406-.7-.406l-2.146-.087v2.958h-8.435l.319.754Zm-.319-16.1v2.059l1.74-.2v-1.854h5.566v1.943l1.8-.2v-1.74h8.41l.029-.464-2.148-1.656-1.189 1.3h-5.104v-2c.87-.261 1.1-.348 1.1-.638 0-.377-.493-.406-.609-.435l-2.289-.141v3.219h-5.568v-2.146c.928-.29 1.073-.319 1.073-.58 0-.406-.609-.435-.7-.435l-2.117-.145v3.306h-7.8l.435.812Zm15.95 7.6-.551 1.421c-.174.522-.58 1.421-1.566 1.421h-4.526c-.928 0-1.044-.348-1.044-.87v-1.592a45.536 45.536 0 0 0 5.539-1.362l.928.319a.653.653 0 0 0 .2.029c.174 0 .406-.058.406-.29a.276.276 0 0 0-.058-.2l-1.653-2a20.584 20.584 0 0 1-5.365 2.813v-1.89c.928-.29 1.044-.319 1.044-.551 0-.2-.116-.319-.493-.377l-2.257-.377v6.467c0 .986.667 1.45 2 1.45h6.09c.9.029 2.523 0 2.929-1.392-.551-.116-1.189-.261-1.1-1.566l.116-1.45Zm-13.864 35.598a2.661 2.661 0 0 0 2.668 2.668 2.68 2.68 0 0 0 2.668-2.668 2.661 2.661 0 0 0-2.668-2.668 2.68 2.68 0 0 0-2.668 2.668Zm-1.653 43.135-3.6-2.929a30.331 30.331 0 0 1 3.654-2.581Zm-2.2-.493a4.528 4.528 0 0 1 1.276 1.6 11.341 11.341 0 0 0 .667 1.45.216.216 0 0 0 .2.087 2.7 2.7 0 0 0 1.711-2.523c0-.29-.116-1.6-.116-1.856-.029-.667-.058-4.292-.087-4.64a17.051 17.051 0 0 1 8-2.523 4.669 4.669 0 0 1 4.843 4.582 4.38 4.38 0 0 1-4.64 4.321 7.216 7.216 0 0 1-2.987-.609l-1.679-.788c-.087-.029-.145-.058-.464-.2l-.29.464c1.479.986 3.683 2.378 6.119 2.378 3.422 0 5.742-2.349 5.742-5.307 0-3.393-2.726-5.8-6.525-5.8-2.784 0-5.075.957-8.149 2.32.058-2.407.116-4.611.29-6.061a2.026 2.026 0 0 1 .348-.087l2.494-.638 1.508-.435c.377-.058 1.044-.232 1.044-.551 0-.522-1.1-1.276-1.566-1.276-.2 0-.261.058-.9.551a8.515 8.515 0 0 1-2.378.812c-.116.029-.232.058-.377.087a14.532 14.532 0 0 1 .58-3.857l.435-.812c0-.029.029-.087.029-.116 0-.319-1.421-1.305-4.437-1.45l-.145.609c2 .522 2.175.58 2.117 2.552l-.174 3.422a17.432 17.432 0 0 1-3.857.551c-.87 0-1.276-.377-2.088-1.537l-.464.261a5.132 5.132 0 0 0 1.334 2.262 1.276 1.276 0 0 0 1.073.406c.551 0 3.045-.377 3.567-.435a1.811 1.811 0 0 0 .348-.029l-.081 1.94c-.087 2.262-.087 3.1-.087 4.524l-4.613 2.813a4.258 4.258 0 0 1-1.74.609c-.754 0-1.044-.957-1.218-1.566l-.493.029a2.554 2.554 0 0 0-.058.493 3.573 3.573 0 0 0 2.523 3.045c.232 0 .87-.609 1.131-.841a1.053 1.053 0 0 1 .261-.2Zm12.379-12.528.142.522a12.322 12.322 0 0 1 2.61-.377 4.359 4.359 0 0 1 1.392.232 7.264 7.264 0 0 0 1.189.551.614.614 0 0 0 .551-.58c0-1.044-2.349-4.031-7.076-5.191l-.261.493c2.958 1.45 4.06 2.871 4.06 3.074 0 .145-.145.232-.348.319Zm-8.526 27.736v6.47h-7.221v-6.47Zm-10.469 23.229a16.821 16.821 0 0 0 3.857-4.524 18.42 18.42 0 0 0 2.378-6.67h4.7a22.575 22.575 0 0 1-.783 6.322 6.789 6.789 0 0 1-1.334 2.61H45.22l.029.58 1.421.232a1.052 1.052 0 0 1 .986 1.131c.029.319.058.406.319.406a3.556 3.556 0 0 0 .609-.116l.928-.261a4.794 4.794 0 0 0 2.291-2.2 13.754 13.754 0 0 0 1.131-4.959l.2-2.552.058-.725c.96-.352 1.08-.381 1.08-.671s-.319-.493-.435-.551l-2-1.16-.725 1.1h-4.35c.174-1.624.232-2.117.348-3.944h3.8v.725l1.885-.377v-7.105c.551-.174.9-.29.9-.551 0-.232-.261-.464-.493-.609l-1.863-1.19-.667 1.015h-6.989l-1.769-.957v10.353l1.769-.319v-.986h1.537c-.261 4.263-.464 6.989-2.088 10.846A14.141 14.141 0 0 1 40 252.327Zm17.837-7.424v-13.862c.609-.232.957-.377.957-.7 0-.348-.435-.435-.638-.464l-2.2-.348v15.809Zm4.814 4.988h-4.062l.029.638 1.45.174c1.1.145 1.16.551 1.218.841.116.638.261.754.551.754a5.727 5.727 0 0 0 2.059-.754 1.675 1.675 0 0 0 .725-1.508v-21.344c.957-.522 1.044-.58 1.044-.841s-.319-.348-.493-.377l-2.407-.435Zm-15.72 31.651a43.728 43.728 0 0 1-3.567-3.451c1.015-1.3 2.755-3.48 3.625-4.437Zm-.261 3.277c.029.116.116.319.319.319.435 0 1.073-.87 1.16-1.015a2.767 2.767 0 0 0 .348-1.682c0-.232-.029-1.218-.029-1.421-.029-1.073-.029-2.146-.029-3.219v-3.364c0-.551 0-1.6.029-2.2a34.388 34.388 0 0 1 5.452-4.269c.986-.638 3.045-1.914 4.64-1.914a1.754 1.754 0 0 1 1.363.7 3.224 3.224 0 0 1 .435 1.885 5.824 5.824 0 0 1-.029.725l-.7 7.917a32.282 32.282 0 0 0-.087 2.03c0 .928 0 4.437 3.016 4.437 2.175 0 3.538-2 4.205-2.987l-.58-.435c-1.363 1.682-2.088 2.233-3.132 2.233a1.555 1.555 0 0 1-1.131-.406 4.55 4.55 0 0 1-.667-2.7c0-1.45.087-2.929.232-4.379.087-1.073.667-5.829.667-6.815a3.538 3.538 0 0 0-.783-2.552 3.632 3.632 0 0 0-2.291-.812c-3.248 0-8.149 3.915-10.643 6.09l.058-1.508a10.993 10.993 0 0 1 1.624-1.537c.319-.2.754-.464.754-.754 0-.406-.87-1.073-1.044-1.073a1.873 1.873 0 0 0-.551.261 3.455 3.455 0 0 1-.609.232 8.828 8.828 0 0 1 .406-3.016 3.687 3.687 0 0 0 .348-1.044c0-.7-1.769-1.566-4.5-1.537l-.087.667c1.943.319 2.436.493 2.407 1.74l-.058 2.958c0 .2-.029.551-.029.783a14.76 14.76 0 0 1-3.6.9c-.87 0-1.363-.348-2.059-1.421l-.435.2c.667 1.943 1.943 3.364 2.436 3.364.2 0 .783-.58.928-.667a19.622 19.622 0 0 1 2.668-1.189 27.973 27.973 0 0 1-.116 2.842 90.942 90.942 0 0 1-6.148 7.453 1.017 1.017 0 0 0-.348.58c0 .638.435 1.537.9 1.537.2 0 .348-.232.406-.319.522-.841.58-.957 1.16-1.769 1.769 2.03 3.277 3.77 3.509 4.93Zm5.423 13.99a3.431 3.431 0 0 1 .667 1.827 28.156 28.156 0 0 1-3.567 9.889c-.522.928-2.03 3.567-2.668 3.567-.7 0-3.074-1.943-3.074-5.858a9.652 9.652 0 0 1 8.642-9.425Zm1.189 18.908a15.99 15.99 0 0 0 7.221-2.149c2.03-1.3 4.263-3.538 4.263-8.381 0-6.061-4.5-9.6-10.3-9.6-6.09 0-12.586 3.944-12.586 11.368 0 5.336 3.915 7.337 4.756 7.337 2.465 0 7.453-11.832 7.453-15.051a3.861 3.861 0 0 0-1.131-2.552 6.152 6.152 0 0 1 1.218-.087c3.77 0 8.845 1.827 8.845 8.236a8.954 8.954 0 0 1-4.524 8.236 16.942 16.942 0 0 1-5.302 2.094ZM40.58 340.497a23.622 23.622 0 0 0 7.511-4.292 33.487 33.487 0 0 0 5.51-5.771 33.1 33.1 0 0 0 3.683 4.669 25.848 25.848 0 0 0 5.481 4.437l1.479.783a1.362 1.362 0 0 1 .261.174c.377-.667.609-1.131 2.175-1.218l.174-.406a29.359 29.359 0 0 1-9.682-6.032 23.088 23.088 0 0 1-2.523-2.9 6.831 6.831 0 0 0 .9-.174c.058 0 .116-.087.116-.174 0-.232-.551-.551-.754-.638l-2.2-.957a2.809 2.809 0 0 1-.2.261l-1.3 2.03a32.282 32.282 0 0 1-6.339 6.815 24.8 24.8 0 0 1-4.524 2.871Zm9.048 4.205-2.056 6.525-5.22.174 1.334 2.2c.058.087.261.435.58.435s.406-.2.754-.87l15.2-1.943a7.562 7.562 0 0 1 .812 1.1l.58 1.073a1.514 1.514 0 0 0 1.189.841 1.133 1.133 0 0 0 1.16-1.1c0-1.943-3.6-4.727-7.482-6.119l-.29.29a20.563 20.563 0 0 1 3.422 3.1l-11.02.754 3.654-6.467h13.6v-.667l-2.378-1.885-1.508 1.74H40.986l.406.812Zm10.179-5.307v-.58l-2.059-1.624-1.363 1.392-9.367.058.406.754Zm-2.871 46.064c-.928.058-1.537.058-1.943.058-2.291 0-6.728 0-6.728-2.755 0-2.407 3.074-3.712 6.09-4.959v1.044l-.058 2.407c0 .377.058 1.015.754 1.015.986 0 1.131-.957 1.073-2.349l-.087-2.088a5.437 5.437 0 0 0-.029-.609c1.015-.29 2.349-.7 3.654-.986l2.523-.58a11.248 11.248 0 0 1 1.682-.261c.725 0 1.131 0 1.131-.464a4.229 4.229 0 0 0-1.392-2.32 7.447 7.447 0 0 0-1.363-.957l-.377.493c.58.435.841.638.841.9 0 .464-.783.783-.928.841l-4.9 1.885c-.174.058-.725.261-.986.348-.174-1.363-.406-3.393-3.132-3.393a9.687 9.687 0 0 0-4.2 1.218l1.189-1.6c.957-1.3 1.653-2.2 2.349-3.1 3.857-.464 5.858-.725 7.54-1.015.116-.029.986-.174.986-.58 0-.493-1.16-1.276-1.566-1.276a3.25 3.25 0 0 0-.638.319 5.565 5.565 0 0 1-1.334.377l-2.349.406c-.551.087-1.131.174-1.566.232 1.16-1.479 1.276-1.653 1.508-1.885.261-.261.7-.7.7-.9 0-.754-2.059-1.334-4.321-1.45l-.087.667c1.276.232 1.827.348 1.827.9a9.027 9.027 0 0 1-1.566 2.9c-.754.058-3.161.261-4.031.261-2 0-2.436-.493-3.074-1.45l-.464.232c1.015 2.407 1.508 2.668 3.306 2.581l1.682-.087c.406-.029 1.1-.058 1.537-.087a50.212 50.212 0 0 1-6.303 7.627c-.7.551-.7.783-.7.986 0 .435.348 1.479.87 1.479.406 0 .957-1.015 1.015-1.131.087-.145 3.451-4.727 7.076-4.727 1.972 0 2.059 1.74 2.146 3.045-4.118 1.682-7.25 3.422-7.25 6.293a3.52 3.52 0 0 0 1.943 3.248c1.566.754 3.857.9 6.96.9 1.392 0 4.872-.087 6.554-.29.116 0 .638-.058.638-.406 0-.464-1.044-1.6-1.537-1.6a4.172 4.172 0 0 0-.7.261 4.005 4.005 0 0 1-1.45.232Z" fill="#26110e"/><path data-name="パス 4090" d="M.493 105.861a30.325 30.325 0 0 0 3.538-2.755v13.485l1.885-.2V102.7c.9-.435.986-.464.986-.754 0-.319-.087-.348-.986-.725 1.421-1.566 1.8-2.03 2.842-3.364.319.029.812.087.9.087.116 0 .348 0 .348-.29 0-.145-.029-.2-.493-.522l-2.06-1.363A33.31 33.31 0 0 1 0 105.455Zm.29-7.8a25.683 25.683 0 0 0 7.163-5.626 4.449 4.449 0 0 0 .986.174.359.359 0 0 0 .377-.319c0-.174-.2-.348-.319-.435l-2.233-1.508a30.359 30.359 0 0 1-6.38 7.337Zm17.889 3.392v12.644h-4.4l.025.667 1.566.232c1.16.145 1.189.377 1.218.783.058.464.058.783.58.783.058 0 2.929-.406 2.929-2.059v-13.05h6.061v-.667l-2.579-1.972-1.51 1.827H7.917l.464.812Zm-8.149-7.627h14.243v-.58l-2.552-1.972-1.392 1.745H10.15ZM7.54 149.692a28.014 28.014 0 0 0 8.7-2.059c4-1.885 5.6-4.669 5.6-8.99 0-1.653-.29-4.06-1.827-5.452a5.565 5.565 0 0 0-3.886-1.218 18.162 18.162 0 0 0-6.064 1.566 12.931 12.931 0 0 1-3.045 1.015c-1.3 0-1.8-1.363-2.088-2.117l-.58.2a6.214 6.214 0 0 0 1.015 2.642 3.473 3.473 0 0 0 2.32 1.508c.232 0 .29-.087.435-.319.551-.9 4.93-3.422 8.178-3.422a3.638 3.638 0 0 1 2.581.986c.87.783 1.16 2.639 1.16 4.031 0 3.944-1.1 5.771-3.219 7.424-2.9 2.291-6.061 2.958-9.367 3.654Zm5.191-21.257c-.841.493-1.392.87-1.856 1.16l.319.464a23.343 23.343 0 0 1 2.958-1.305 14.732 14.732 0 0 1 2.813-.725l1.276-.116c.2-.029.377-.145.377-.29 0-.493-1.16-1.479-1.624-1.479-.232 0-1.131.261-1.334.29a24.922 24.922 0 0 1-3.045.2 4.937 4.937 0 0 1-4.06-1.392l-.29.29c1.537 2.407 2.552 2.465 5.22 2.465Zm6.554 44.846v2.871H7.946v-2.9Zm.029-.812-11.342-.029v-2.321l11.339.029Zm-11.342 4.466h11.342v1.015l1.769-.231-.029-7.28c.87-.2.957-.232.957-.551 0-.174-.029-.261-.551-.58l-1.827-1.1-.638 1.131h-10.9l-1.86-1.22v9.628l1.74-.174Zm2.9-10.382a2.352 2.352 0 0 0 .261-.841 3.769 3.769 0 0 0-.87-2 8.374 8.374 0 0 0-2.143-1.683l9.309-.029a27.989 27.989 0 0 1-1.537 4.553Zm15.863.812v-.638l-2.263-2.175-1.595 2h-6.205l2.5-3.133c1.015 0 1.131 0 1.131-.319 0-.087-.029-.174-.232-.29l-1.363-.841 5.017-.029v-.406l-2.353-1.854-1.246 1.479-5.6.029v-1.131c.931-.493 1.046-.551 1.046-.783 0-.377-.464-.435-.551-.435l-2.609-.32v2.7l-9.251.029.464.783 3.422-.029a5.924 5.924 0 0 1 1.711 2.61l.2.986a6.038 6.038 0 0 0 .348.928l-8.99-.029.464.841ZM.986 182.039a.929.929 0 0 0-.493.783 1.02 1.02 0 0 0 1.131.928c1.711 0 3.248-2.291 3.364-5.336l-.493-.116a5.143 5.143 0 0 1-1.972 2.871Zm16.936-.812c-.2.7-.609 1.45-1.421 1.45h-5.858c-.58 0-.9 0-.9-.435v-2.61c.928-.435 1.044-.493 1.044-.754a.464.464 0 0 0-.261-.377l-2.494-.406v5.017c0 1.044 1.015 1.044 2.436 1.044h7.222c1.8 0 2.262-.928 2.436-1.305-.957-.551-1.044-.957-1.044-1.363v-2.378l-.551.029Zm-6.525-3.451a6.116 6.116 0 0 1 2.2 2.32c.232.464.435.9 1.015.9a.812.812 0 0 0 .841-.783c0-1.827-2.871-2.436-3.915-2.668Zm12.383 5.481a.872.872 0 0 0 .7.319 1.017 1.017 0 0 0 .986-1.015 4.074 4.074 0 0 0-2.32-2.9 14.274 14.274 0 0 0-2.991-1.042l-.261.377a7.566 7.566 0 0 1 2.842 2.523ZM7.656 209.775v2.262l-7.018.928 1.015 1.885c.029.029.145.261.377.261.29 0 .348-.145.609-.638l5.017-1.131v3.248h-3.1v.522l1.624.29c.493.087.7.174.725.754.029.319.029.435.29.435a3.45 3.45 0 0 0 1.8-.7 2.047 2.047 0 0 0 .493-1.334v-3.65l4.93-1.276-.146-.464-4.785.609v-2h6a10.125 10.125 0 0 0 2 4.669 23.831 23.831 0 0 1-6.322 3.274l.087.493a22.311 22.311 0 0 0 7.163-2.726 12.3 12.3 0 0 0 4.292 2.668 6.744 6.744 0 0 0 2.32.493 1.634 1.634 0 0 0 1.508-.9 1.928 1.928 0 0 1-.928-1.45 1.456 1.456 0 0 1 .058-.348l.551-2.552-.58-.174-1.479 3.132c-.087.2-.174.319-.406.319a3.547 3.547 0 0 1-1.044-.377l-1.769-.957c-.2-.116-.725-.551-.986-.754.319-.261.783-.58.986-.754l1.1-.9c.116-.087.348-.29.435-.377l.957.029c.29.029.435-.087.435-.232a.488.488 0 0 0-.174-.319l-1.912-1.562c-1.479 1.624-1.624 1.769-2.9 2.987a8.1 8.1 0 0 1-1.74-3.683h9.222v-.667l-2.059-1.653-1.363 1.508h-5.945a25.429 25.429 0 0 1-.377-3.567c.87-.464.957-.493.957-.725 0-.319-.377-.348-.551-.348l-2.262-.087.522 4.727h-5.8v-2.871l2.117-.464a6.452 6.452 0 0 0 .957.406.215.215 0 0 0 .2-.2.387.387 0 0 0-.116-.29l-1.36-1.625a60.626 60.626 0 0 1-9.193 2.61l-1.392.319.2.406a42.114 42.114 0 0 0 6.757-.841v2.552H.461l.464.812Zm19.082-6.293v-.551l-2.233-1.769-1.533 1.508h-8.559v-2.551h8.959v-.61l-2-1.537-1.16 1.334h-5.799v-2.378h11.136v-.7l-2.436-1.8-1.541 1.691h-4.549l2.349-2.352c.841 0 .928 0 .928-.29 0-.087-.029-.174-.261-.319l-2.03-1.16-2 4.118h-5.537a1 1 0 0 0 .609-.928 2.261 2.261 0 0 0-1.073-1.624 12.708 12.708 0 0 0-2.987-1.392l-.29.319a8.311 8.311 0 0 1 2.346 2.958 1.09 1.09 0 0 0 .841.667h-8.41l.464.812h10.585v2.378H3.422l.464.812h8.671v2.552H.58l.435.812Zm-7.946 1.392a6.3 6.3 0 0 1 2.407 2.523c.348.783.522.841.783.841a.868.868 0 0 0 .841-.9c0-1.682-2.32-2.465-3.683-2.929Zm-10.12 23.734c1.392.116 2.32.2 2.32 1.8 0 .522-.116 2.784-.116 3.277 0 3.422.522 4 1.421 4.843-3.219 1.276-7.888 3.335-7.888 7.424a4.357 4.357 0 0 0 3.163 4.261c2.233.667 6.061.725 8.468.725a51.322 51.322 0 0 0 7.453-.493c.319-.029.783-.174.783-.551 0-.522-1.247-1.508-1.595-1.508a2.016 2.016 0 0 0-.667.29 7.231 7.231 0 0 1-2.146.406l-2.059.116c-.754.058-2.059.058-2.784.058-5.046 0-9.338 0-9.338-3.6 0-2.059 1.45-3.857 5.8-5.6a54.7 54.7 0 0 1 9.367-2.581l1.914-.261c.2-.029.464-.145.464-.377 0-.522-1.508-1.653-1.8-1.653a5.524 5.524 0 0 0-.87.377c-.087.029-1.044.377-1.218.435l-1.247.464-2.639.87c-.725.261-1.8.667-2.146.783-.667-.522-.841-1.6-.841-3.567a21.4 21.4 0 0 1 .493-4.756c.29-.493.319-.551.319-.754 0-.319-.87-1.1-3.277-1.1-.2 0-.725 0-1.334.029Zm-1.856 41.743h13.571v5.858H6.815Zm0 15.863v-1.827h13.571v1.624l2-.348V264c.928-.174 1.015-.2 1.015-.464a.418.418 0 0 0-.261-.348l-2.291-1.508-.812 1.131H7.221l-2.378-1.131-.058 24.824Zm13.571-9.195v6.612H6.815v-6.612ZM6.815 263.594h13.572v5.945H6.815Zm2.871 44.556v6.469H3.509v-6.467Zm0-7.018v6.206H3.509v-6.206ZM3.509 318.3v-2.871h6.177v1.769l1.914-.319v-15.428c.725-.29.812-.319.812-.58 0-.174-.261-.377-.319-.406l-1.74-1.334-.812 1.189H5.829l2.233-4.147c1.015-.261 1.189-.29 1.189-.493 0-.174-.29-.319-.493-.377l-2.813-.725a26.733 26.733 0 0 1-.957 5.742H3.772l-2.117-1.131v19.459Zm9.077-11.107a20.141 20.141 0 0 0 4.2-6.786h6.96v8.178a36.847 36.847 0 0 1-.551 5.974 7.751 7.751 0 0 1-1.479 3.567h-5.534v.435l2.668.551c.406.058.493.522.493.9 0 .435 0 .638.754.638a5.119 5.119 0 0 0 4.118-2.7c.928-1.943 1.45-5.162 1.45-11.078v-6.148c.725-.29.783-.319.783-.435a.385.385 0 0 0-.174-.29l-1.914-1.566-.87 1.16h-6.351c.522-1.363.7-1.769 1.218-3.277.928-.261 1.044-.29 1.044-.522 0-.2-.145-.319-.493-.464l-2.436-.87a31.013 31.013 0 0 1-4.35 12.412Zm2.291-1.074a4.057 4.057 0 0 1 .986.812 10.1 10.1 0 0 1 1.479 2.523l.58 1.6a.869.869 0 0 0 .754.609 1.428 1.428 0 0 0 1.218-1.45 4.24 4.24 0 0 0-1.537-2.639 11.718 11.718 0 0 0-3.248-1.855Z" fill="#26110e"/><path data-name="パス 1929" d="M55.66 58.835H14.607a9.5 9.5 0 0 1-9.48-9.48V9.48A9.5 9.5 0 0 1 14.607 0h41.04a9.5 9.5 0 0 1 9.48 9.48v39.876a9.5 9.5 0 0 1-9.467 9.479Z" fill="#005748"/><path data-name="パス 1930" d="M20.517 46.604a1.425 1.425 0 0 0 1.351-1.475c0-1.078-1.128-2.466-4.56-3.036a24.617 24.617 0 0 0 3.618-4.932 1.893 1.893 0 0 0 1.152-.322l-2.466-2.416-1.549 1.45h-.793v-4.337c.768-.1 1.016-.273 1.078-.644l-3.742-.347v5.341h-3.715l.149.5h7.162a24.528 24.528 0 0 1-7.658 10.417l.248.223a21.5 21.5 0 0 0 3.817-2.416v9.269h.471a2.66 2.66 0 0 0 2.169-.843V42.565a7.974 7.974 0 0 1 2.218 3.618 1.623 1.623 0 0 0 1.05.421Z" fill="#fff"/><path data-name="パス 1931" d="M30.22 52.094h-1.871v-11.97h4.312c.694 0 1.016-.124 1.227-.446l-2.652-2.02-1.45 1.97h-1.447v-8.079c.743-.1.991-.322 1.053-.669l-3.817-.347v9.1h-4.584l.124.5h4.461v11.97H19.44l.124.5h13.643c.669 0 1.016-.1 1.227-.421l-2.726-2.119Z" fill="#fff"/><path data-name="パス 1932" d="m51.534 37.51-3.222-.248v4.882c0 2.02.471 2.515 2.962 2.515h3.917c2.342 0 3.148-.446 3.148-1.326 0-.347-.1-.471-.991-.793l-.025-1.722H57.1c-.843 1.9-1.053 1.9-1.9 1.9h-3.717c-.743 0-.768 0-.768-.545v-1.351a34.637 34.637 0 0 0 5.341-1.128 2.553 2.553 0 0 0 .768.149.785.785 0 0 0 .57-.174l-2.292-1.945a22.179 22.179 0 0 1-4.387 2.416v-2.144c.621-.09.769-.214.819-.486Z" fill="#fff"/><path data-name="パス 1933" d="M42.141 33.618v2.268c2.243 0 2.54-.57 2.54-.62v-1.648h5.39v2.144c2.367 0 2.59-.595 2.59-.62v-1.524h5.341c.644 0 .917-.1 1.128-.421l-2.54-1.871-1.338 1.784h-2.59v-1.767c.719-.1.917-.248.942-.62l-3.545-.247v2.639h-5.39v-1.772c.719-.1.892-.248.942-.62l-3.495-.247v2.639h-6.332l.124.5h6.233Z" fill="#fff"/><path data-name="パス 1934" d="m55.846 34.833-1.338 1.623H36.676l.149.5h4.833a14.4 14.4 0 0 1-4.833 4.957l.149.372a17.215 17.215 0 0 0 2.59-1.152 4.03 4.03 0 0 1 1.252 1.8 1.1 1.1 0 0 0 .867.3 14.321 14.321 0 0 1-5.267 2.554l.174.471c5.564-.818 8.178-2.739 10.545-6.208a1.587 1.587 0 0 0 1.1-.322l-2.292-1.822-1.152 1.152h-2.144a12.986 12.986 0 0 0 1.97-2.094h12.59c.669 0 .966-.1 1.177-.421Zm-11.115 4.721a12.589 12.589 0 0 1-2.218 2.937.842.842 0 0 0 .05-.248c0-.62-.62-1.3-2.367-1.45a16.752 16.752 0 0 0 1.871-1.252h2.664Z" fill="#fff"/><path data-name="パス 1935" d="m56.552 46.158-1.425 1.8h-2.268v-2.094c.57-.1.744-.248.768-.52l-3.4-.273v2.887h-5.688v-2.069c.644-.074.843-.248.867-.545l-3.47-.273v2.887h-6.152l.149.5h5.985c-.149 2-1.3 3.891-5.688 5.155l.149.3c6.332-1.016 7.881-3.172 8.129-5.465h5.712v5.465c2.119 0 2.615-.644 2.615-.669v-4.783h5.105c.694 0 .991-.124 1.2-.446Z" fill="#fff"/><path data-name="パス 1936" d="M13.291 15.391v-3.693h4.178c1.177 0 1.7.508 1.7 1.326 0 .719-.558 1.066-1.574 1.066h-1.95v1.71h3.606a2.521 2.521 0 0 0 2.76-2.259 2.441 2.441 0 0 0-.009-.579c0-1.76-.855-2.949-2.689-2.949h-6.01V7.584h-2.85v2.429H8.671v1.7h1.784V16.1c0 4.746 4.064 4.622 4.064 4.622h7.088v-1.7s-5.18-.124-5.6-.124c-1.227-.014-2.716-1.255-2.716-3.507Z" fill="#fff"/><path data-name="パス 1937" d="M25.991 20.483a5.288 5.288 0 0 0 4.091-1.35 18.555 18.555 0 0 0 5.031-6.716h-3.022c-.223.558-4.126 6.791-6.06 5.663-.582-.335-.62-.669-.62-2.515V7.633h-2.727v8.154c.002 4.399 2.245 4.696 3.307 4.696Z" fill="#fff"/><path data-name="パス 1938" d="M48.237 10.015v-1.7H35.486v1.7h3.755v2.763h-3.755v1.561h3.755v1.945c0 3.792 1.524 4.374 4.114 4.374h4.362v-1.7s-1.945-.087-2.714-.087c-1.933 0-3.284-.533-3.284-2.33v-2.206h6.506v-1.561h-6.506v-2.759Z" fill="#fff"/><path data-name="パス 1939" d="M55.474 16.196c0 3.618-1.809 4.511-3.792 4.511h-2.7v-1.7h2.243c1.078 0 1.685-1.177 1.685-2.9v-3.024h4.746c1.177 0 1.574-.657 1.574-1.45a1.468 1.468 0 0 0-1.321-1.6 1.435 1.435 0 0 0-.254 0h-8.674v-1.7h9.529c4.622 0 4.548 6.468.743 6.468h-3.779Z" fill="#fff"/><path data-name="パス 1940" d="M60.245 19.306a.632.632 0 0 0 .421-.644c0-.421-.285-.682-.83-.682h-1.2v2.528h.446v-1.041h.644c.409 0 .5.211.5.669a.649.649 0 0 0 .074.372h.471a1.128 1.128 0 0 1-.136-.669c-.018-.396-.244-.508-.39-.533Zm-.458-.174h-.719v-.793h.719c.223 0 .434.062.434.384a.379.379 0 0 1-.345.412.343.343 0 0 1-.09 0Z" fill="#fff"/><path data-name="パス 1941" d="M59.576 17.15a2.119 2.119 0 1 0 2.119 2.119 2.118 2.118 0 0 0-2.117-2.119Zm0 3.916a1.809 1.809 0 1 1 1.809-1.809 1.8 1.8 0 0 1-1.791 1.809Z" fill="#fff"/><path data-name="長方形 1490" fill="#fff" d="M8.299 26.022h53.668v.632H8.299z"/></svg>