<svg xmlns="http://www.w3.org/2000/svg" width="96.786" height="553.335"><g fill="#26110e"><path data-name="パス 4091" d="M87.455 2.838v5.375h-4.601l-2.451-1.161.043 8.342h-4.257V2.838Zm0 6.493v6.063h-4.558V9.331ZM72.706 33.067V16.598H91.54l-.086 14.018h-4.3l.043.6 1.637.561a1.288 1.288 0 0 1 .731 1.247c0 .516.043.516.258.516.129 0 2.924-.3 3.569-.86.688-.559.688-2.064.688-2.408V17.243c.9-.344 1.161-.473 1.161-.731 0-.215-.215-.387-.387-.516l-2.8-1.763-.9 1.161h-1.12V3.526c1.29-.559 1.419-.6 1.419-.9 0-.172-.172-.344-.387-.516L88.271.003l-1.075 1.634H76.447L73.734.473v14.921h-.86l-2.795-1.161v19.178Zm11.653-11.479v5.59h-5.375v-5.59Zm-5.375 8.77v-2.021h5.375v1.333l2.322-.387.043-7.1c1.118-.43 1.247-.473 1.247-.774 0-.172-.215-.344-.258-.387l-2.623-1.844-.989 1.29h-4.687l-2.838-1.032-.086 11.309Zm17.372 4.6H74.254c-5.547-.043-7.224-1.5-8.385-2.623V18.361c1.2-.473 1.333-.516 1.333-.731a1.1 1.1 0 0 0-.473-.6l-2.967-2.021-1.2 1.806h-4.859l.43 1.075h5.031l-.043 13.932-5.895 3.051 1.763 2.795c.258.387.387.473.516.473.43 0 .473-.172.645-1.505l4.128-4.515c2.107 2.752 5.2 5.461 14.19 5.461h15.695a3.067 3.067 0 0 1 2.193-1.978ZM59.204 2.666a12.82 12.82 0 0 1 3.87 3.7c1.548 2.623 1.806 2.623 2.279 2.623a1.512 1.512 0 0 0 1.419-1.634c0-3.913-5.848-5.16-7.31-5.461Zm14.1 75.286-6.231 12.685-8.041.172 1.548 3.87c.215.559.43.645.645.645.473 0 .6-.258 1.2-1.419.473-.086 2.322-.258 2.666-.3l11.012-1.033 12.083-1.333 1.634-.172a3.018 3.018 0 0 0 .258.387l1.935 4.085a1.022 1.022 0 0 0 .989.559 1.877 1.877 0 0 0 1.72-2.064c0-2.537-2.881-5.891-4.386-7.353a25.228 25.228 0 0 0-7.654-5.031l-.473.731a29.249 29.249 0 0 1 6.966 7.568l-20.554.645c2.494-3.311 3.483-4.859 7.224-10.535l1.289-.215c.344-.043.731-.129.731-.516 0-.129 0-.258-.559-.473l-2.881-.9h22.146l.043-1.032-3.827-3.1-2.236 2.925H78.253V66.514h14.921l-.043-.86-3.569-3.053-2.064 2.709h-9.2v-6.063c1.333-.559 1.462-.6 1.462-.9 0-.43-.387-.559-.645-.6l-3.827-.473v8.041h-15.31l.6 1.2h14.708v10.233H56.624l.688 1.2Zm1.978 44.283a5.087 5.087 0 0 1 .989 2.709c0 1.075-1.161 7.181-5.289 14.663-.774 1.376-3.01 5.289-3.956 5.289-1.032 0-4.558-2.881-4.558-8.686a14.311 14.311 0 0 1 12.818-13.975Zm1.767 28.036a23.71 23.71 0 0 0 10.707-3.183c3.01-1.935 6.321-5.246 6.321-12.427 0-8.987-6.665-14.233-15.265-14.233-9.03 0-18.662 5.848-18.662 16.856 0 7.912 5.8 10.879 7.052 10.879 3.655 0 11.051-17.544 11.051-22.317a5.726 5.726 0 0 0-1.677-3.783 9.122 9.122 0 0 1 1.806-.129c5.59 0 13.115 2.709 13.115 12.212 0 5.719-2.408 9.589-6.708 12.212a25.121 25.121 0 0 1-7.869 3.1Zm-6.063 48.669c2.881-1.075 3.7-1.462 5.547-2.279l-.215-.731-9.073 2.451v-17.329h8.256v-.774l-3.483-3.053-1.849 2.623h-12.9l.645 1.2h6.536v17.974l-7.138 1.591 1.419 3.1c.129.215.387.86.731.86.3 0 .387-.172 1.075-1.72 1.892-.645 3.7-1.29 6.579-2.408Zm21.027-13.588-.086 8a77.458 77.458 0 0 1-.731 9.976 18.463 18.463 0 0 1-1.5 5.074h-7.573l.043.9 3.655.43c.946.129 1.118.473 1.2.9.258 1.161.3 1.29.86 1.29 3.7 0 4.859-3.827 5.16-4.816a26.543 26.543 0 0 0 1.118-5.848c.3-3.225.43-6.149.473-8.385l.086-7.1c.946-.3 1.419-.43 1.419-.86 0-.3-.43-.645-.645-.774l-2.838-1.978-1.161 1.978h-7.005l.172-8.772c1.462-.6 1.634-.645 1.634-1.032 0-.516-.774-.645-1.161-.688l-3.399-.459v10.96h-8.469l.6 1.2h7.869c-.129 2.322-.473 9.288-4.386 15.222a27.567 27.567 0 0 1-7.611 7.267 48.5 48.5 0 0 1-6.192 3.4l.387.86c3.44-1.333 10.793-4.171 15.308-10.32 4.558-6.149 4.945-12.3 5.246-16.426Zm-1.505 72.62v3.268H78.382v-3.268Zm-12.126-4.128h12.126v2.924H78.382Zm0 9.847v-1.247h12.126v1.161l2.494-.344v-13.244c1.333-.516 1.462-.559 1.462-.9s-.516-.645-.688-.774l-2.623-1.419-.817 1.548H78.941l-3.225-1.419v17.025Zm12.126-14.018v2.967H78.382v-2.967Zm-19.307 20.515a40.147 40.147 0 0 0 9.633-4.046l.43-.258h1.547c.129-.043.215-.172.215-.387s-.258-.473-.559-.688l-2.408-1.721a33.226 33.226 0 0 1-9.159 6.493Zm-13.029-2.881a41.878 41.878 0 0 0 4.6-10.277c.473-.215 1.161-.559 1.161-.817a.677.677 0 0 0-.6-.6l-3.44-.774-.172 1.72a39.048 39.048 0 0 1-2.194 10.529Zm6.837-15.652v18.361l2.58-.387v-18.541l3.526-.731c.129.3.645 1.72.774 1.978a1.076 1.076 0 0 0 .86.731 1.71 1.71 0 0 0 1.333-1.72c0-1.075-1.118-3.784-5.246-5.848l-.3.6a15.6 15.6 0 0 1 2.236 3.354l-7.869.6c.516-.559 2.838-3.053 3.268-3.612l2.967-3.526c1.591-1.978 1.763-2.193 2.365-2.967 1.376-.086 1.505-.086 1.505-.473 0-.344-.43-.645-.6-.731l-2.8-1.634a63.748 63.748 0 0 1-8.471 12.9l-3.913.086 1.247 2.451c.215.387.6 1.2.86 1.2.387 0 .516-.387.731-1.118Zm.6-20.6c-.172.344-.215.387-.215.473l-1.032 2.236a41.185 41.185 0 0 1-2.838 5.246 7.755 7.755 0 0 1-.9-.344 14.132 14.132 0 0 0-2.494-.731l-.215.516a18.085 18.085 0 0 1 3.01 2.881l1.2 1.849a1.182 1.182 0 0 0 .946.645 1.355 1.355 0 0 0 1.2-1.376c0-1.118-1.118-2.193-1.849-2.881l5.117-5.547c1.419 0 1.548 0 1.548-.516 0-.258-.172-.473-.6-.731Zm3.139 23.951a27.433 27.433 0 0 1 2.193 7.224c.043.387.258 1.118 1.032 1.118a1.761 1.761 0 0 0 1.461-1.807c0-2.193-2.408-5.246-4.042-6.837Zm3.913-9.03h24.125l-.043-.774-3.053-2.322-1.591 1.892h-6.45v-3.1h8.944v-.86l-2.795-2.279-1.464 1.938h-4.685v-3.139H95.84v-.688l-3.182-2.58-1.849 2.064h-5.16v-3.1c1.505-.387 1.677-.43 1.677-.817 0-.516-.559-.645-1.118-.688l-3.268-.258v4.859h-9.806l.645 1.2h9.161v3.139h-8.256l.645 1.2h7.611v3.1H72.061Zm13.373 17.93a23 23 0 0 1 6.665 4.6c.258.215 1.333 1.419 1.978 1.419a1.217 1.217 0 0 0 1.247-1.2c0-1.333-1.419-2.279-1.677-2.494-1.978-1.376-3.913-2.064-7.955-2.881Zm-4.212 59.462c-1.376.086-2.279.086-2.881.086-3.4 0-9.976 0-9.976-4.085 0-3.569 4.558-5.5 9.03-7.353v1.548l-.086 3.569c0 .559.086 1.5 1.118 1.5 1.462 0 1.677-1.419 1.591-3.483l-.129-3.1a8.062 8.062 0 0 0-.043-.9c1.505-.43 3.483-1.032 5.418-1.462l3.741-.86a16.68 16.68 0 0 1 2.494-.387c1.075 0 1.677 0 1.677-.688a6.271 6.271 0 0 0-2.064-3.44 11.043 11.043 0 0 0-2.021-1.419l-.559.731c.86.645 1.247.946 1.247 1.333 0 .688-1.161 1.161-1.376 1.247l-7.267 2.8c-.258.086-1.075.387-1.462.516-.258-2.021-.6-5.031-4.644-5.031a14.363 14.363 0 0 0-6.235 1.806l1.763-2.365a198.345 198.345 0 0 1 3.483-4.6c5.719-.688 8.686-1.075 11.18-1.505.172-.043 1.462-.258 1.462-.86 0-.731-1.72-1.892-2.322-1.892a4.817 4.817 0 0 0-.946.473 8.254 8.254 0 0 1-1.978.559l-3.483.6c-.817.129-1.677.258-2.322.344 1.72-2.193 1.892-2.451 2.236-2.795.387-.387 1.032-1.032 1.032-1.333 0-1.118-3.053-1.978-6.407-2.15l-.129.989c1.892.344 2.709.516 2.709 1.333 0 .645-1.118 2.623-2.322 4.3-1.118.086-4.687.387-5.977.387-2.967 0-3.612-.731-4.558-2.15l-.688.344c1.5 3.569 2.236 3.956 4.9 3.827l2.494-.129c.6-.043 1.634-.086 2.279-.129a74.453 74.453 0 0 1-9.331 11.309c-1.032.817-1.032 1.161-1.032 1.462 0 .645.516 2.193 1.29 2.193.6 0 1.419-1.505 1.505-1.677.129-.215 5.117-7.009 10.492-7.009 2.924 0 3.053 2.58 3.182 4.515-6.106 2.494-10.75 5.074-10.75 9.331a5.22 5.22 0 0 0 2.883 4.82c2.322 1.118 5.719 1.333 10.32 1.333 2.064 0 7.224-.129 9.718-.43.172 0 .946-.086.946-.6 0-.688-1.548-2.365-2.279-2.365a6.187 6.187 0 0 0-1.032.387 5.938 5.938 0 0 1-2.15.344Z"/><path data-name="パス 4092" d="M12.556 183.405v9.46H4.343v-9.46Zm-.043-9.761.043 8.6H4.343v-8.6Zm-8.17 23.564v-3.139h8.213v1.806l2.752-.387v-21.285c.946-.258 1.548-.43 1.548-.817a1.2 1.2 0 0 0-.6-.731l-3.139-2.021-1.075 1.806H4.734l-3.139-1.677.086 26.832Zm28.466-15.48-.043 8.041H22.575v-1.2l.086-2.193v-4.648Zm-10.148-9.116h10.191v8H22.661Zm10.148 18.318-.086 12.126-5.977.043-.043.774 2.279.473c2.021.43 2.064 1.032 2.107 1.892.043.473.172.688.559.688a7.154 7.154 0 0 0 3.186-1.29 2.751 2.751 0 0 0 .86-2.15l-.129-30.186c1.075-.387 1.548-.559 1.548-.9s-.731-.9-.817-.946l-2.666-1.892-1.165 1.846h-9.159l-3.483-2.064v17.114c0 10.1-3.1 15.007-12.212 19.952l.344.774a30.871 30.871 0 0 0 9.761-6.106 16.139 16.139 0 0 0 4.644-10.148Zm-4.945 54.775v14.018H9.89v-14.018Zm0-13.674v12.513H9.89v-12.513ZM9.89 264.281v-3.354h17.974v3.225l2.924-.516v-31.175c.774-.258 1.2-.387 1.2-.731 0-.3-.387-.645-.645-.774l-2.877-1.978-1.332 1.81h-16.6l-3.483-1.806v35.772Zm8 35.124c.258.258 4.773 5.031 5.676 5.977 3.225 3.311 10.793 10.492 13.244 10.492a1.287 1.287 0 0 0 1.376-1.29c0-.731-.215-.9-2.236-2.193-6.796-4.343-13.977-11.696-15.138-12.903-4-4.214-4.859-5.117-6.493-5.117-2.279 0-3.741 1.763-7.783 6.708-.3.344-1.419 1.72-2.021 2.623-.688.946-1.247 1.376-1.849 1.376-.688 0-1.462-.731-2.107-1.376l-.559.344a5.906 5.906 0 0 0 2.494 2.924 7.9 7.9 0 0 0 2.838 1.032c.473 0 .516-.172.86-1.548a41 41 0 0 1 4.859-7.912c.344-.473 1.677-2.15 3.01-2.15.473 0 1.118.258 2.193 1.376Zm-6.321 46.046c2.064.172 3.44.3 3.44 2.666 0 .774-.172 4.128-.172 4.859 0 5.074.774 5.934 2.107 7.181-4.773 1.892-11.7 4.945-11.7 11.008a6.46 6.46 0 0 0 4.69 6.323c3.311.989 8.987 1.075 12.556 1.075a76.1 76.1 0 0 0 11.051-.731c.473-.043 1.161-.258 1.161-.817 0-.774-1.849-2.236-2.365-2.236a2.99 2.99 0 0 0-.989.43 10.721 10.721 0 0 1-3.182.6l-3.053.172c-1.118.086-3.053.086-4.128.086-7.482 0-13.846 0-13.846-5.332 0-3.053 2.15-5.719 8.6-8.3a81.112 81.112 0 0 1 13.889-3.827l2.838-.387c.3-.043.688-.215.688-.559 0-.774-2.236-2.451-2.666-2.451a8.191 8.191 0 0 0-1.29.559c-.129.043-1.548.559-1.806.645l-1.849.688-3.909 1.291c-1.075.387-2.666.989-3.182 1.161-.989-.774-1.247-2.365-1.247-5.289 0-1.419.258-6.192.731-7.052.43-.731.473-.817.473-1.118 0-.473-1.29-1.634-4.859-1.634-.3 0-1.075 0-1.978.043Zm-3.053 89.046c6.966-.258 12.083-.731 16.426-2.193 1.935-.688 10.836-3.655 10.836-13.373a11.62 11.62 0 0 0-3.268-8.514c-1.935-1.806-5.418-2.537-8.385-2.537a67.12 67.12 0 0 0-15.007 2.365l-2.881.731a5.949 5.949 0 0 1-1.892.3c-1.505 0-2.365-1.075-3.182-2.236l-.688.387a9.391 9.391 0 0 0 2.236 3.7 6.26 6.26 0 0 0 3.268 1.763c.215 0 .946-.817 1.118-.946 3.737-2.796 13.285-4.43 17.155-4.43a10.2 10.2 0 0 1 6.582 2.15c1.591 1.462 2.236 3.87 2.236 6.278 0 4.73-1.935 9.2-9.546 12.556-2.15.946-5.848 2.365-15.136 3.1Zm-2.064 44.2a81.092 81.092 0 0 1-4.9 10.363 3.212 3.212 0 0 0-.559 1.505c0 .989.989 2.279 1.634 2.279.3 0 .516-.258.817-.989.215-.473 1.032-2.752 1.2-3.225l7.568-18.842 1.376-.215a40.452 40.452 0 0 0 5.461-1.075c1.161-.258 1.806-.43 1.806-.989 0-.774-1.462-1.677-1.935-1.677a11.822 11.822 0 0 0-1.548.645 26.838 26.838 0 0 1-4.128 1.032 32.631 32.631 0 0 1 2.236-4.945 5.486 5.486 0 0 0 .645-.989c0-.387-1.376-1.634-6.407-1.892l-.172.817c2.021.516 2.795.688 2.795 1.677a5.905 5.905 0 0 1-.215 1.2l-.559 1.849c-.258.774-.645 1.935-.946 2.752a38.09 38.09 0 0 1-4.945.516c-1.634 0-2.58-.43-3.913-2.279l-.688.43c1.462 3.1 2.064 3.87 4.6 3.87a31.03 31.03 0 0 0 4.128-.344c-.387 1.075-.6 1.677-1.72 4.515Zm19.049 9.46c.043.473.129 1.161.129 1.634a2.859 2.859 0 0 1-1.419 2.795 10.261 10.261 0 0 1-4.472.9c-1.161 0-5.375 0-5.375-3.053 0-2.408 2.58-3.225 5.2-3.225a17.582 17.582 0 0 1 5.935.946Zm8.428-13.76a1.145 1.145 0 0 0 .516.129.949.949 0 0 0 .946-.989c0-2.838-5.418-5.977-12.513-6.106l-.215.774a20.6 20.6 0 0 1 7.224 3.053 10.227 10.227 0 0 0-3.225 1.247c-1.634.9-2.666 1.849-2.666 4.644a54.853 54.853 0 0 0 1.247 8.815 24.127 24.127 0 0 0-5.074-.559c-6.192 0-7.31 3.483-7.31 5.16 0 4.687 6.106 4.945 7.353 4.945 1.849 0 5.5-.516 6.88-1.806a4.544 4.544 0 0 0 1.032-3.139 11.332 11.332 0 0 0-.086-1.2 29.65 29.65 0 0 1 5.891 3.311c.3.215 1.376 1.075 1.892 1.075a1.035 1.035 0 0 0 .9-1.075c.043-2.924-8.428-5.762-9.073-5.977a66.224 66.224 0 0 1-1.548-9.8 4.27 4.27 0 0 1 .989-3.1 3.906 3.906 0 0 1 2.838-1.247 4.039 4.039 0 0 1 2.236.688Zm4.3 46.519a.856.856 0 0 0 .645.344c.516 0 1.118-.473 1.118-1.419 0-2.451-3.311-4-6.665-4.773l-.344.6a13.873 13.873 0 0 1 3.784 3.268Zm-9.847-3.354a14.948 14.948 0 0 1 3.612 3.741c1.419 2.408 1.634 2.408 1.978 2.408.516 0 1.118-.473 1.118-1.462 0-1.892-2.881-4.429-6.364-5.246Zm-6.321.731c1.118.6 2.623 1.376 2.623 2.322 0 .559-.774 1.161-1.2 1.462l-10.492 6.665c-4.257 2.881-7.009 4.9-7.009 6.364 0 .688.258 1.247 1.935 2.064 1.591.731 11.352 6.45 16.6 13.459a15.889 15.889 0 0 0 1.935 2.451 1.305 1.305 0 0 0 .731.258c.645 0 1.247-.9 1.247-1.677 0-2.107-2.451-4.257-7.009-8a75.211 75.211 0 0 0-10.588-7.01c-2.021-1.161-2.322-1.5-2.322-1.892 0-.86 1.419-1.806 3.053-2.838 1.075-.645 10.621-6.665 14.577-7.955 2.365-.817 2.494-.86 2.494-1.376 0-.688-1.677-3.7-6.235-5.117Z"/></g></svg>