<svg xmlns="http://www.w3.org/2000/svg" width="776" height="801"><path data-name="長方形 2744" fill="#3b4180" d="M493 349.148h283v73H493z"/><path data-name="長方形 2745" fill="#ffeed5" d="M310 0h206v57H310z"/><path data-name="パス 4085" d="M351.831 17.507c0 .357 0 1.3-.4 1.659l-.777.672a1.442 1.442 0 0 0-.546 1.029c0 .756.777.945 1.071 1.029l.147.336h4.7v1.428H354.2l-2.411-1.092v7.161l2.184-.378v-.588h2.058v1.722h-5.586l.273.588h5.313v2.436l2.226-.378v-2.058h6.006v-.4l-1.763-1.532h.042v-4.305c.462-.252.651-.336.651-.546s-.294-.4-.4-.462l-1.893-1.239-.651 1.071h-2v-1.428h5.531v-.462l-1.617-1.428-1.05 1.28-2.856.021v-.965c.252-.126.672-.336.672-.609 0-.189-.315-.336-.546-.357l-2.352-.29v2.222h-3.969a2.08 2.08 0 0 0 .8-1.764 6.832 6.832 0 0 0-.126-1.071h8.61c-.4.966-.5 1.239-.84 2l.294.231c.168-.105.4-.231.525-.315l1.175-.719a3.833 3.833 0 0 1 .525-.294 6.1 6.1 0 0 0 .651.084c.126 0 .672-.084.672-.336a.836.836 0 0 0-.336-.588l-1.912-1.596-.819.945h-8.715c-.1-.294-.126-.378-.252-.714Zm6.426 8.946h2.163v1.743h-2.163Zm0-.588v-1.617h2.163v1.617Zm-4.284 0v-1.617h2.058v1.617Zm2.058 2.331h-2.058v-1.743h2.058Zm2.226.567h2.163v.714l1.911-.294-1.029 1.3h-3.045Zm-12.6-10.164c.735.378 1.176.693 1.386 1.281l.5 1.407a1.053 1.053 0 0 0 .924.567 1.24 1.24 0 0 0 1.176-1.365 1.971 1.971 0 0 0-1.029-1.722 5.083 5.083 0 0 0-2.856-.609Zm1.869 14.07c-1.239.42-1.6.546-2.646.861l.966 2.121c.105.231.273.4.42.4.294 0 .378-.483.42-.735.252-.273.441-.462.651-.651l1.05-1.092c.168-.168.567-.588.861-.9 1.512 2.247 2.31 3.024 5.313 3.024h8.862a1.645 1.645 0 0 1 1.071-1.575v-.42h-11.13a4.034 4.034 0 0 1-3.528-1.449v-5.231c.336-.147.777-.315.777-.567 0-.168-.294-.378-.462-.483l-1.995-1.3-.756 1.214h-2.352l.231.588h2.247Zm23.016-12.075a2.554 2.554 0 0 1-.987 2.373c-1.029.8-1.113.945-1.113 1.344a1.18 1.18 0 0 0 1.239 1.2c.84 0 1.722-.777 1.722-2.373 0-.189-.021-.609-.063-1.092h12.7c-.252.714-.336.966-.777 1.995l-2.1-1.365-.663 1.089h-5.38l-2.478-.987v5.985l2.226-.378v-.609h1.407l-.1 1.386c-.021.168-.042.672-.063.882h-2.126l-2.877-1.2v7.287l2.373-.4v-.987h8.778v1.078l2.352-.378v-4.2c.42-.147.777-.294.777-.588 0-.189-.189-.336-.42-.5l-2.163-1.414-.819 1.3h-4.83c.21-.315.462-.672.672-.924l.63-.861.357-.483h1.869v.756l2.31-.378v-3.043c.147-.042.672-.231.672-.525 0-.042-.021-.126-.021-.189.189-.105.462-.252.567-.294l1.176-.63c.147-.063.42-.231.63-.336.819 0 1.323 0 1.323-.441a.866.866 0 0 0-.42-.609l-2.289-1.68-.756 1.071h-2.415c.147-.147.378-.357.441-.42l1.365-1.449c.105-.105.336-.336.525-.5.252-.021.945-.126.945-.483 0-.189-.189-.357-.525-.5l-2.268-.9-.462 1.438c-.5 1.533-.8 2.268-1.008 2.814h-5.985c.525-.378.714-.651.714-1.134a2.188 2.188 0 0 0-.777-1.554 5.686 5.686 0 0 0-2.478-1.05l-.21.336a3.122 3.122 0 0 1 .961 1.575l.336 1.113a1.2 1.2 0 0 0 .567.714h-2.368c-.063-.294-.084-.357-.21-.882Zm4.326 3.738h5.817v2.877h-5.817Zm7.392 6.279v3.57h-8.778v-3.57Zm-6.636-13.104a3.5 3.5 0 0 1 .987 1.533l.289 1.092a1.2 1.2 0 0 0 1.05.819 1.165 1.165 0 0 0 1.113-1.281c0-1.533-1.827-2.079-3.255-2.478Zm16.926 4.431.273.588h6.867l.021 5.418h-6.237l.273.567h5.964v5.964h-8.169l.252.588h18.795v-.483l-2.31-1.869-1.365 1.764h-4.746v-5.964h6.51v-.42l-2.247-1.743-1.281 1.6h-2.982v-5.426H410v-.437l-2.267-1.743-1.281 1.6Zm4.914-4.179c1.491.8 1.575 1.008 2.373 2.9.168.4.4.987 1.2.987a1.249 1.249 0 0 0 1.281-1.26c0-2.31-3.045-2.814-4.683-3.066Zm29.652 4.163v-3.281c.567-.189.84-.294.84-.588 0-.147-.168-.315-.4-.357l-2.814-.4v4.626h-4.913l.252.567h3.819a28.417 28.417 0 0 1-4.935 9.3v-8.213c.357-.168.588-.294.588-.483 0-.273-.4-.378-.84-.5.567-1.113.756-1.47 1.764-3.654.4-.105.819-.189.819-.525a.551.551 0 0 0-.42-.441l-2.706-.676a32.424 32.424 0 0 1-3.822 10.773l.378.315c.987-1.176 1.218-1.47 1.932-2.457v10.206l2.31-.4v-3.78l.168.252a22.782 22.782 0 0 0 5.607-5.9v4.767h-3.318l.294.567h3.024v4.389l2.373-.42V31.64h3.36v-.5l-1.785-1.386-1.155 1.323h-.42v-7.711a16.266 16.266 0 0 0 4.872 8.547c.609-1.134.9-1.344 1.827-1.638l.126-.336a17.143 17.143 0 0 1-6.615-7.455h6.237v-.441l-2-1.68-1.276 1.559Zm11.676-3.528c.441.21 1.239.588 1.239 1.47a9.393 9.393 0 0 1-.231 1.785l-.588 3.339a24.8 24.8 0 0 0-.357 4.074c0 3.276.735 6.279 2.289 6.279a.94.94 0 0 0 .861-.987.62.62 0 0 0-.042-.273l-.252-1.071a7.221 7.221 0 0 1-.084-1.134c0-1.092.273-1.911 1.239-4.6l.462-1.344-.483-.21-.588 1.2c-.42.861-.777 1.575-1.092 2.226l-.483.945a7.377 7.377 0 0 1-.21-1.7c0-2.415.756-5.712 1.638-6.867.441-.567.483-.63.483-.84a3.487 3.487 0 0 0-.8-1.386 4.987 4.987 0 0 0-2.835-1.365Zm12.075 13.041c-.021.987-.063 2.31-2.5 2.31-1.239 0-2.247-.5-2.247-1.449 0-.5.315-1.47 2.058-1.47a7.057 7.057 0 0 1 2.689.604Zm-6.573-10.127c.42 1.449.945 2.814 2.856 2.814.315 0 .651-.021.966-.021l1.176-.063a16.199 16.199 0 0 0 1.365-.126c0 .252 0 .819.021 1.239l.1 3.717c0 .21.021.672.021.9a8.218 8.218 0 0 0-2-.252c-2.877 0-3.654 1.575-3.654 2.772 0 1.554 1.47 2.835 3.8 2.835 3.7 0 3.885-1.638 3.99-2.6a10.282 10.282 0 0 1 1.26 1.071l.714.735c.378.4.63.4.735.4.525 0 .924-.42.924-1.113 0-.462-.147-.8-.966-1.491a11.013 11.013 0 0 0-2.73-1.659l-.084-1.386c-.168-2.583-.168-3.612-.168-5.4 1.512-.21 1.7-.231 3-.483.252-.042.777-.147.777-.546 0-.525-1.113-1.365-1.449-1.365a3.16 3.16 0 0 0-.714.336 6.4 6.4 0 0 1-1.6.357c.021-.273.042-.735.084-.987l.105-.63a2.979 2.979 0 0 1 .105-.462c.189-.42.21-.462.21-.588 0-.462-.483-.735-.819-.9a7.432 7.432 0 0 0-3.4-.693l-.105.525c1.617.336 1.68.777 1.743 1.722l.042 1.029c.021.4.042 1.05.042 1.3-1.722.189-3.066.273-3.738.273-1.155 0-1.554-.357-2.163-1.449Zm25.977 9.723a1.712 1.712 0 1 0 1.743 1.722 1.73 1.73 0 0 0-1.743-1.722Zm-.441-.777h.945v-3.57a9.048 9.048 0 0 0 2.835-.777 3.563 3.563 0 0 0 2.037-3.085c0-2.268-2.121-3.927-5.4-3.927-3.7 0-5.019 2.394-5.019 3.654a1.868 1.868 0 0 0 1.722 2.037 1.346 1.346 0 0 0 1.386-1.323 1.479 1.479 0 0 0-.63-1.176c-.672-.462-.714-.483-.714-.672 0-1.3 1.827-1.848 2.982-1.848a2.946 2.946 0 0 1 3.108 3.234 3.459 3.459 0 0 1-.693 2.163 3.482 3.482 0 0 1-2.562 1.176Z" fill="#461c00"/><path data-name="長方形 2746" fill="#ffeed5" d="M142 351h273v57H142z"/><path data-name="パス 4083" d="M195.844 375.395a20.231 20.231 0 0 1-1.533 1.764c-.336-.588-.525-.777-1.722-.966.378-.315.525-.42.945-.8Zm11.025-2.037v-.436l-1.89-1.449-1.134 1.318h-15.057l.252.567h3.927a16.979 16.979 0 0 1-4.284 4.578l.21.336a16.029 16.029 0 0 0 3.066-1.617 1.732 1.732 0 0 1 .588.756 5.374 5.374 0 0 0 .462.924 16.788 16.788 0 0 1-4.515 2.646l.126.42a18 18 0 0 0 9.618-5.479c.357-.021.4-.021.483-.1v2.52a1.334 1.334 0 0 0 1.344 1.407h5.335c1.3 0 1.575-.945 1.764-1.659-.945-.147-1.155-.672-1.071-1.89h-.42l-.273.924c-.147.525-.252.8-.84.8h-2.94c-.483 0-.672-.084-.672-.588v-.786a43.341 43.341 0 0 0 4.41-.861 1.8 1.8 0 0 0 .5.084c.168 0 .273-.063.273-.231a.352.352 0 0 0-.126-.294l-1.74-1.449a21.652 21.652 0 0 1-3.318 2.31v-1.3c.525-.21.777-.294.777-.525 0-.189-.294-.294-.5-.315l-2.5-.231v1.6l-1.788-1.392-.9.882h-1.851c.441-.441.651-.651 1.407-1.47Zm-13.083-5.292v2.142h-5.4l.231.567h5.166v1.638l2.247-.4v-1.238h3.213v1.6l2.268-.4v-1.2h5.775v-.42l-1.908-1.512-1.2 1.365h-2.664v-.966c.714-.336.777-.357.777-.567s-.315-.294-.483-.294l-2.562-.21v2.037h-3.213v-1.071c.525-.231.777-.336.777-.546 0-.189-.294-.273-.441-.294Zm8.19 14.007v-.945c.462-.21.777-.336.777-.567 0-.21-.336-.294-.483-.294l-2.562-.21v2.016h-3.339v-1.092c.42-.147.714-.273.714-.567 0-.168-.168-.315-.4-.357l-2.6-.21v2.226H188.3l.231.567h5.481c-.378 2.835-2.52 3.549-4.578 4.074l.084.462a10.241 10.241 0 0 0 5.334-1.7 3.615 3.615 0 0 0 1.47-2.835h3.381v4.431l2.268-.378v-4.054h5.418v-.441l-2.011-1.577-1.2 1.449Zm12.642-14.196a33.891 33.891 0 0 1-3.718 10.689l.441.273a10.786 10.786 0 0 0 1.743-2.058v10.416l2.184-.42v-11.949c.4-.21.567-.294.567-.525 0-.189-.1-.21-.924-.483a33.428 33.428 0 0 0 1.806-4.032c.315-.021.861-.084.861-.462 0-.147-.189-.294-.378-.378Zm10.227 2.856c.42-.357.672-.567 1.491-1.365.63-.042.966-.063.966-.336 0-.189-.231-.294-.378-.378l-2.016-.8-.294.8a15.578 15.578 0 0 1-.924 2.079h-2.415a.9.9 0 0 0 .357-.8c0-1.2-1.722-1.869-2.94-1.932l-.192.338a3.244 3.244 0 0 1 .966 1.575 1.871 1.871 0 0 0 .483.819h-3.273l.231.567h4.641v1.638h-4.074l.273.588h3.8v1.617h-5.753l.273.567h5.25a24.363 24.363 0 0 1-5.25 2.247l.1.441c1.134-.1 1.533-.147 2.961-.336v1.533h-3.36l.273.588h3.087v1.659l-1.6.147-1.554.168.756 1.89c.063.168.147.315.294.315.21 0 .231-.252.273-.546l1.827-.588v1.827h-2.112v.4c1.05.21 1.3.252 1.365.945.063.609.063.714.588.714a3.536 3.536 0 0 0 1.512-.378 1.666 1.666 0 0 0 .714-1.638v-2.542l2.058-.693-.042-.4-1.008.084-1.008.105v-1.47h2.52a10.428 10.428 0 0 0 1.134 3.7 14.008 14.008 0 0 1-3.381 2.64l.252.4a12.692 12.692 0 0 0 3.8-2.016 5.094 5.094 0 0 0 3.318 2.079 1.6 1.6 0 0 0 1.575-.987 1.289 1.289 0 0 1-.8-1.218 3.444 3.444 0 0 1 .1-.756l.42-1.449-.378-.189a10.292 10.292 0 0 1-1.407 2.289 3.222 3.222 0 0 1-1.26-1.008 11.181 11.181 0 0 0 1.575-1.806c.441-.084.672-.126.672-.315a.453.453 0 0 0-.231-.315l-1.764-1.029a10.638 10.638 0 0 1-1.071 2.037 8.325 8.325 0 0 1-.525-2.058h4.641v-.5l-1.567-1.259a2.728 2.728 0 0 0 .084-.567 1.4 1.4 0 0 0-.609-1.071 3.309 3.309 0 0 0-1.554-.483l-.21.315a3.242 3.242 0 0 1 .63 1.533c.084.294.21.882.777.882a1.849 1.849 0 0 0 .357-.042l-.42.609h-2.184a31.24 31.24 0 0 1-.084-2.625c.441-.168.63-.231.63-.483 0-.273-.357-.336-.5-.357l-2.2-.357c.021 2.2.063 2.793.126 3.822h-2.466v-1.89c.567-.126.735-.168 1.2-.273a2.4 2.4 0 0 0 .546.126c.147 0 .315-.042.315-.231a.375.375 0 0 0-.147-.273l-1.431-1.347h8.61v-.488l-1.617-1.4-1.05 1.323h-3.822v-1.623h4.62v-.5l-1.554-1.218-1.05 1.134h-2.016V371.3h5.985v-.478l-1.659-1.391-.987 1.3Zm17.955.651a3 3 0 0 1 .567 1.6 25.025 25.025 0 0 1-3.15 8.505c-.252.441-.483.714-.8.714-.987 0-2.121-1.953-2.121-3.969a7.018 7.018 0 0 1 5.5-6.825Zm.945 14.338c2.478-.21 8.925-.861 8.925-7.812 0-4.746-3.339-7.686-8.043-7.686-5.355 0-9.219 3.885-9.219 8.526a6.4 6.4 0 0 0 1.827 4.788 3.89 3.89 0 0 0 2.394 1.323c1.113 0 2.31-2.247 2.667-2.961 1.344-2.6 2.6-6.09 2.6-8.127 0-1.365-.378-1.7-1.344-2.52.21-.021.672-.063 1.008-.063a5.754 5.754 0 0 1 5.9 6.153 7.772 7.772 0 0 1-1.428 4.536 9.518 9.518 0 0 1-5.418 3.3Zm16.884-11.524a3.429 3.429 0 0 1-1.113.189c-.819 0-.924-.924-.966-1.26l-.55.126a3.843 3.843 0 0 0 .945 2.688 1.39 1.39 0 0 0 .966.609c.147 0 .189-.042.63-.378a6.2 6.2 0 0 1 1.911-1.071l-.294.693a82.4 82.4 0 0 1-3.671 7.728l-.378.5a.916.916 0 0 0-.189.567c0 .5.777 1.785 1.428 1.785.483 0 .693-.567.9-1.155l.8-2.121 2.962-7.325c.105-.252.462-1.134.546-1.323a6.434 6.434 0 0 1 1.176-.168c.756 0 1.743.168 1.743 1.869a20.514 20.514 0 0 1-1.617 7.245c-.714-.294-1.029-.42-2.5-1.092l-.651-.273-.21.441c2.184 1.533 2.226 2.037 2.289 3.045.084.882.672.987.861.987 3.108 0 3.927-8.022 3.927-9.6 0-3.213-1.533-3.717-3.36-3.717a10.645 10.645 0 0 0-1.113.063 9.475 9.475 0 0 1 1.114-1.928l.378-.5a.576.576 0 0 0 .168-.378c0-.273-.336-.672-1.155-1.071a6.631 6.631 0 0 0-3.045-.651l-.147.525c.9.273 1.6.483 1.6 1.218a18.467 18.467 0 0 1-.945 3.129c-.336.063-.987.21-1.26.294Zm9.03-2.037a7.574 7.574 0 0 1 2.709 3.108 14.3 14.3 0 0 1 1.428 4.242c-.189.042-.546.1-.714.147l-1.449.294a22.15 22.15 0 0 1-.546.126l.084.5c2.205-.021 2.625.189 3.024 1.071.231.546.42.609.63.609a1.244 1.244 0 0 0 .84-.4 2.157 2.157 0 0 0 .441-1.47 9.991 9.991 0 0 0-1.617-5.145 8.66 8.66 0 0 0-4.557-3.507Zm11.928.063c.693 1.932 1.344 2.562 2.478 2.562a12.417 12.417 0 0 0 1.68-.164 80.125 80.125 0 0 1-3.024 7.5l-.441.9a7.033 7.033 0 0 1-.651 1.155c-.294.4-.336.525-.336.756a1.708 1.708 0 0 0 1.512 1.6c.525 0 .735-.672 1.113-1.764 1.3-4.074 2.793-7.791 3.864-10.458.924-.147 1.722-.294 3.864-.756.588-.126 1.176-.273 1.176-.651 0-.609-1.113-1.344-1.407-1.344a4.833 4.833 0 0 0-.672.315 10.29 10.29 0 0 1-2.226.63 13.625 13.625 0 0 1 .84-1.848c.294-.483.336-.525.336-.714 0-.693-1.827-1.218-3.36-1.218-.21 0-.588.021-.651.021l-.168.441c.441.042 1.512.168 1.512 1.092a8.445 8.445 0 0 1-.483 1.974l-.21.672a15.512 15.512 0 0 1-2.415.315c-1.008 0-1.365-.378-1.911-1.239Zm7.392 4.851a10.816 10.816 0 0 1 4.137-.861l-.609.5a18.652 18.652 0 0 0-1.512 1.344l.315.357a8.435 8.435 0 0 1 5.838-1.827c.336 0 .756 0 .756-.588 0-1.281-1.554-1.554-2.52-1.554a14.276 14.276 0 0 0-2.961.357 8.916 8.916 0 0 0-3.654 1.827Zm-.9 3.969a6.062 6.062 0 0 0 .9 2.961c1.113 1.533 2.793 2.037 6.657 2.037 2.6 0 3.486-.189 3.486-.987 0-.588-1.092-1.554-1.7-1.554a5.863 5.863 0 0 0-.777.294 17.812 17.812 0 0 1-2.688.147c-3.465 0-4.914-.819-5.376-3ZM305 371.552c.357 1.764.672 2.814 2.667 2.814.378 0 1.134-.042 1.428-.063a41.859 41.859 0 0 0-1.134 6.048c0 .882.945 1.974 1.449 1.974.294 0 .336-.105.819-1.071a6.607 6.607 0 0 1 5.082-2.877 2.711 2.711 0 0 1 3 2.562 4.073 4.073 0 0 1-1.743 3.213c-1.911 1.428-4.242 1.68-6.447 1.911l-1.008.084v.588a29.238 29.238 0 0 0 7.413-.756c3.15-.861 4.158-2.9 4.158-4.6 0-2.541-2.142-3.885-4.473-3.885a11.89 11.89 0 0 0-6.132 1.764 28.514 28.514 0 0 1 .84-5.082 60.337 60.337 0 0 0 6.468-.84c.609-.126 1.092-.294 1.092-.672a2.145 2.145 0 0 0-1.491-1.47.576.576 0 0 0-.357.126 2.222 2.222 0 0 1-.546.294 22.28 22.28 0 0 1-4.662.9 8.11 8.11 0 0 1 .945-1.911c.525-.567.588-.63.588-.84 0-.735-1.932-1.113-2.94-1.113-.378 0-.987.063-1.281.084v.5c.756.042 1.47.084 1.47.861a2.713 2.713 0 0 1-.126.756c-.084.273-.5 1.554-.588 1.848a15.347 15.347 0 0 1-1.722.126c-1.533 0-1.743-.4-2.289-1.47Zm22.89-2.163c.441.21 1.239.588 1.239 1.47a9.393 9.393 0 0 1-.231 1.785l-.588 3.339a24.8 24.8 0 0 0-.357 4.074c0 3.276.735 6.279 2.289 6.279a.94.94 0 0 0 .861-.987.62.62 0 0 0-.042-.273l-.252-1.071a7.22 7.22 0 0 1-.084-1.134c0-1.092.273-1.911 1.239-4.6l.462-1.344-.483-.21-.588 1.2c-.42.861-.777 1.575-1.092 2.226l-.483.945a7.376 7.376 0 0 1-.21-1.7c0-2.415.756-5.712 1.638-6.867.441-.567.483-.63.483-.84a3.487 3.487 0 0 0-.8-1.386 4.987 4.987 0 0 0-2.835-1.365Zm12.075 13.041c-.021.987-.063 2.31-2.5 2.31-1.239 0-2.247-.5-2.247-1.449 0-.5.315-1.47 2.058-1.47a7.057 7.057 0 0 1 2.691.609Zm-6.571-10.122c.42 1.449.945 2.814 2.856 2.814.315 0 .651-.021.966-.021l1.176-.063a16.199 16.199 0 0 0 1.365-.126c0 .252 0 .819.021 1.239l.1 3.717c0 .21.021.672.021.9a8.218 8.218 0 0 0-2-.252c-2.877 0-3.654 1.575-3.654 2.772 0 1.554 1.47 2.835 3.8 2.835 3.7 0 3.885-1.638 3.99-2.6a10.281 10.281 0 0 1 1.26 1.071l.714.735c.378.4.63.4.735.4.525 0 .924-.42.924-1.113 0-.462-.147-.8-.966-1.491a11.013 11.013 0 0 0-2.73-1.659l-.084-1.386c-.168-2.583-.168-3.612-.168-5.4 1.512-.21 1.7-.231 3-.483.252-.042.777-.147.777-.546 0-.525-1.113-1.365-1.449-1.365a3.16 3.16 0 0 0-.714.336 6.4 6.4 0 0 1-1.6.357c.021-.273.042-.735.084-.987l.1-.63a2.98 2.98 0 0 1 .105-.462c.189-.42.21-.462.21-.588 0-.462-.483-.735-.819-.9a7.432 7.432 0 0 0-3.4-.693l-.105.525c1.617.336 1.68.777 1.743 1.722l.042 1.029c.021.4.042 1.05.042 1.3-1.722.189-3.066.273-3.738.273-1.155 0-1.554-.357-2.163-1.449Zm25.977 9.723a1.712 1.712 0 1 0 1.743 1.722 1.73 1.73 0 0 0-1.743-1.722Zm-.441-.777h.945v-3.57a9.048 9.048 0 0 0 2.835-.777 3.563 3.563 0 0 0 2.037-3.085c0-2.268-2.121-3.927-5.4-3.927-3.7 0-5.019 2.394-5.019 3.654a1.868 1.868 0 0 0 1.722 2.037 1.346 1.346 0 0 0 1.386-1.323 1.479 1.479 0 0 0-.63-1.176c-.672-.462-.714-.483-.714-.672 0-1.3 1.827-1.848 2.982-1.848a2.946 2.946 0 0 1 3.108 3.234 3.459 3.459 0 0 1-.693 2.163 3.482 3.482 0 0 1-2.562 1.176Z" fill="#461c00"/><path data-name="長方形 2747" fill="#ffeed5" d="M0 563h273v82H0z"/><path data-name="パス 4081" d="m48.594 580.045-.378 1.05a25.342 25.342 0 0 1-1.428 3.4h-8.715l-2.415-1.237v7.959a33.854 33.854 0 0 1-.252 4.242 7.768 7.768 0 0 1-1.006 3.423l.4.252c2.058-2.352 3.024-3.969 3.024-8.652v-1.071h.861v6.678c-.672.084-.777.105-1.26.168l.966 1.974a.407.407 0 0 0 .315.231c.168 0 .21-.1.357-.714l.777-.336c.756-.336 1.848-.84 3.024-1.365v3.15l2.016-.378.231.357a11.346 11.346 0 0 0 4.032-2.688 9.093 9.093 0 0 0 3.087 2.646c.294-1.134.609-1.407 1.491-1.722l.1-.336a9.947 9.947 0 0 1-3.547-2.054 16.941 16.941 0 0 0 2.1-6.027h1.26v-.466l-2.016-1.6-1.118 1.493h-2.1a15.716 15.716 0 0 0 .756-1.869c.462-.063.756-.126.756-.336 0-.1-.126-.231-.315-.294l-2.436-.651a18.416 18.416 0 0 1-.672 3.4l-1.402-1.088-.945 1.26h-1.365v-1.869h2.856v-.42l-1.638-1.281-.9 1.113h-4.644l.315.588h2.079v1.869h-3v-3.78H53.55v-.525l-2.1-1.68-1.218 1.638h-2.457c.378-.357 2.184-2.2 2.6-2.625.588-.042.924-.084.924-.336 0-.126-.147-.294-.378-.4Zm-3.717 9.366h1.407a22.981 22.981 0 0 1-1.323 3.633l.4.273a13.7 13.7 0 0 0 1.827-2.52 12.906 12.906 0 0 0 1.092 4.242 9.231 9.231 0 0 1-3.4 3.7Zm-4.242 3.885v-1.785h2.226v1.785Zm0-2.352v-1.533h2.226v1.533Zm1.47 4.6c-.63.105-.756.105-1.47.231v-1.912h2.226v1.575Zm8.127-6.552a20.1 20.1 0 0 1-1.26 4.6 9.745 9.745 0 0 1-1.407-3.486c.231-.483.273-.567.546-1.113Zm-12.789-8.254a3.2 3.2 0 0 1 1.157 1.554l.315.84c.1.315.4.9 1.008.9a1.232 1.232 0 0 0 1.177-1.341 1.824 1.824 0 0 0-.78-1.449 5.009 5.009 0 0 0-2.73-.882Zm4.809-.189a3.507 3.507 0 0 1 1.134 1.932c.147.651.294 1.407 1.155 1.407a1.258 1.258 0 0 0 1.159-1.323 2.111 2.111 0 0 0-.966-1.617 4.86 4.86 0 0 0-2.356-.756Zm18.627 5.649a3.429 3.429 0 0 1-1.113.189c-.819 0-.924-.924-.966-1.26l-.546.126a3.843 3.843 0 0 0 .946 2.688 1.39 1.39 0 0 0 .966.609c.147 0 .189-.042.63-.378a6.2 6.2 0 0 1 1.911-1.071l-.294.693a82.4 82.4 0 0 1-3.676 7.728l-.378.5a.916.916 0 0 0-.189.567c0 .5.777 1.785 1.428 1.785.483 0 .693-.567.9-1.155l.8-2.121 2.962-7.325c.1-.252.462-1.134.546-1.323a6.434 6.434 0 0 1 1.176-.168c.756 0 1.743.168 1.743 1.869a20.514 20.514 0 0 1-1.617 7.245c-.714-.294-1.029-.42-2.5-1.092l-.651-.273-.21.441c2.184 1.533 2.226 2.037 2.289 3.045.084.882.672.987.861.987 3.108 0 3.927-8.022 3.927-9.6 0-3.213-1.533-3.717-3.36-3.717a10.645 10.645 0 0 0-1.113.063 9.475 9.475 0 0 1 1.114-1.928l.378-.5a.576.576 0 0 0 .168-.378c0-.273-.336-.672-1.155-1.071a6.631 6.631 0 0 0-3.045-.651l-.147.525c.9.273 1.6.483 1.6 1.218a18.467 18.467 0 0 1-.945 3.129c-.336.063-.987.21-1.26.294Zm9.03-2.037a7.574 7.574 0 0 1 2.709 3.108 14.3 14.3 0 0 1 1.428 4.242c-.189.042-.546.1-.714.147l-1.449.294a22.15 22.15 0 0 1-.546.126l.084.5c2.205-.021 2.625.189 3.024 1.071.231.546.42.609.63.609a1.244 1.244 0 0 0 .84-.4 2.157 2.157 0 0 0 .441-1.47 9.991 9.991 0 0 0-1.617-5.145 8.66 8.66 0 0 0-4.557-3.507Zm12.558-2.352c.756.42 1.155.63 1.155 1.659a4.33 4.33 0 0 1-.1.819l-.273 1.26a31.806 31.806 0 0 0-.9 6.4c0 3.507 1.008 6.027 2.184 6.027a.957.957 0 0 0 .9-.945 3.4 3.4 0 0 0-.147-.8 4.588 4.588 0 0 1-.1-.9c0-1.47 1.092-4.473 1.554-5.775l-.5-.21c-.567 1.2-.609 1.281-1.6 3.171l-.462.924a8.669 8.669 0 0 1-.189-1.743c0-2.646 1.071-6.2 1.7-6.909.336-.4.378-.441.378-.588a2.822 2.822 0 0 0-.672-1.449 5.447 5.447 0 0 0-2.655-1.361Zm9.849 5.481a9.691 9.691 0 0 1 4.557-2.058c.819-.126 1.155-.168 1.155-.693a1.436 1.436 0 0 0-.628-1.117c-.357-.252-.924-.336-2.289-.336-3.927 0-5.418 1.092-7.161 2.772l.252.378c1.449-.8 2.583-1.239 5.649-1.3a35.732 35.732 0 0 0-2.541 2.5l.336.357Zm-4.326 4.683c.5 3.57 1.407 5.523 6.237 5.523a27.657 27.657 0 0 0 3.591-.189c.252-.063.945-.21.945-.8 0-.546-.672-1.575-1.239-1.575-.147 0-.84.252-1.008.294a17.154 17.154 0 0 1-2.835.21c-4.263 0-4.746-2.058-5.082-3.549Zm19.278-12.096a33.891 33.891 0 0 1-3.717 10.689l.441.273a10.786 10.786 0 0 0 1.743-2.058v10.416l2.184-.42v-11.949c.4-.21.567-.294.567-.525 0-.189-.1-.21-.924-.483a33.429 33.429 0 0 0 1.806-4.032c.315-.021.861-.084.861-.462 0-.147-.189-.294-.378-.378Zm10.227 2.856c.42-.357.672-.567 1.491-1.365.63-.042.966-.063.966-.336 0-.189-.231-.294-.378-.378l-2.016-.8-.294.8a15.579 15.579 0 0 1-.924 2.079h-2.415a.9.9 0 0 0 .357-.8c0-1.2-1.722-1.869-2.94-1.932l-.189.336a3.244 3.244 0 0 1 .966 1.575 1.871 1.871 0 0 0 .483.819h-3.276l.231.567h4.643v1.64h-4.076l.276.584h3.8v1.621h-5.756l.273.567h5.25a24.363 24.363 0 0 1-5.25 2.247l.1.441c1.134-.1 1.533-.147 2.961-.336v1.533h-3.36l.273.588h3.087v1.659l-1.6.147-1.554.168.756 1.89c.063.168.147.315.294.315.21 0 .231-.252.273-.546l1.827-.588v1.827h-2.112v.4c1.05.21 1.3.252 1.365.945.063.609.063.714.588.714a3.536 3.536 0 0 0 1.512-.378 1.666 1.666 0 0 0 .714-1.638v-2.542l2.058-.693-.042-.4-1.008.084-1.008.105v-1.47h2.52a10.428 10.428 0 0 0 1.134 3.7 14.007 14.007 0 0 1-3.381 2.64l.252.4a12.692 12.692 0 0 0 3.8-2.016 5.094 5.094 0 0 0 3.318 2.079 1.6 1.6 0 0 0 1.575-.987 1.289 1.289 0 0 1-.8-1.218 3.444 3.444 0 0 1 .1-.756l.42-1.449-.378-.189a10.292 10.292 0 0 1-1.401 2.291 3.222 3.222 0 0 1-1.26-1.008 11.181 11.181 0 0 0 1.575-1.806c.441-.084.672-.126.672-.315a.453.453 0 0 0-.231-.315l-1.764-1.029a10.638 10.638 0 0 1-1.071 2.037 8.325 8.325 0 0 1-.525-2.058h4.641v-.5l-1.573-1.261a2.728 2.728 0 0 0 .084-.567 1.4 1.4 0 0 0-.609-1.071 3.309 3.309 0 0 0-1.554-.483l-.21.315a3.242 3.242 0 0 1 .63 1.533c.084.294.21.882.777.882a1.849 1.849 0 0 0 .357-.042l-.42.609h-2.184a31.24 31.24 0 0 1-.084-2.625c.441-.168.63-.231.63-.483 0-.273-.357-.336-.5-.357l-2.2-.357c.021 2.2.063 2.793.126 3.822h-2.466v-1.89c.567-.126.735-.168 1.2-.273a2.4 2.4 0 0 0 .546.126c.147 0 .315-.042.315-.231a.375.375 0 0 0-.147-.273l-1.431-1.347h8.61v-.488l-1.617-1.4-1.05 1.323h-3.822v-1.623h4.62v-.5l-1.554-1.218-1.05 1.134h-2.016V583.3h5.985v-.478l-1.659-1.391-.987 1.3Zm20.181-2.583c0 1.953 0 2.478.021 4.284h-10.6l.252.567h10.374a38.488 38.488 0 0 0 .315 4.179L136 587.647l-1.134 1.428h-7.077l.21.567h3.549v5.943c-.189.021-.546.042-.714.063l-.672.063c-.882.084-1.848.147-2.751.21l1.512 2.751a.48.48 0 0 0 .336.231c.21 0 .294-.273.441-.693l7.182-2.268 1.785-.588-.063-.5-4.683.5v-5.712h4.158v-.168a16.758 16.758 0 0 0 1.659 5.355c1.26 2.373 3.213 4.158 4.662 4.158a2.226 2.226 0 0 0 1.89-1.323 2.156 2.156 0 0 1-.987-1.89 2.56 2.56 0 0 1 .084-.672l.483-1.869-.378-.21a25.712 25.712 0 0 1-1.785 2.856c-3.465-3.192-3.528-8.631-3.57-10.878h6.153v-.462l-1.848-1.575-1.218 1.47h-3.087v-2.982a4.048 4.048 0 0 0 .609-.294 3.919 3.919 0 0 1 1.05 1.554c.21.546.462 1.071 1.155 1.071a1.142 1.142 0 0 0 1.029-1.2c0-1.575-1.827-1.659-3.087-1.722-.042-.147-.084-.315-.483-.357Zm18.249 1.428c1.176.231 1.47.357 1.47 1.449 0 .462-.084 2.73-.084 3.234a2.81 2.81 0 0 0 .966 2.436c-2.52 1.176-5.355 2.646-5.355 5.5a3.5 3.5 0 0 0 3.15 3.507 25.248 25.248 0 0 0 5.418.42 31.513 31.513 0 0 0 4.956-.273.808.808 0 0 0 .693-.777c0-1.05-1.533-1.785-1.68-1.785-.021 0-.693.252-.819.273a25.255 25.255 0 0 1-4.6.315c-2.331 0-5.67-.084-5.67-2.331 0-3.318 8.484-4.914 10.983-5l.8-.042c.4 0 .672-.147.672-.525 0-.882-1.47-1.932-1.932-1.932-.147 0-.168.021-.441.252a2.578 2.578 0 0 1-.777.336l-3 1.071c-.189.063-.756.273-.987.378a3.758 3.758 0 0 1-.315-1.575 14.158 14.158 0 0 1 .327-3.487c.021-.1.357-.546.357-.672 0-.672-1.05-.945-1.512-1.071a9.541 9.541 0 0 0-2.625-.189Zm19.975-.273c1.26.315 1.7.588 1.7 1.6 0 .357-.483 4.557-.567 5.418a30.528 30.528 0 0 0-.231 3.192c0 2.814.315 4.1 1.281 5.145a5.125 5.125 0 0 0 3.654 1.386c5.229 0 7.6-5.523 8.694-8.043l-.483-.252c-1.869 3.066-5.061 6.09-8.316 6.09-3.087 0-3.15-2.5-3.15-4.6a22.992 22.992 0 0 1 .5-5.019 13.048 13.048 0 0 1 .777-2.373c.231-.378.273-.483.273-.672 0-.357-.546-2.163-3.99-2.352Zm38.22 2.961c.609.063.882-.084.882-.462 0-.63-1.344-1.848-1.974-1.848a4.738 4.738 0 0 0-.693.273c-.462.126-1.869.273-2.478.357-2.205.252-6.342.756-8.673 1.26l-1.47.315a5.134 5.134 0 0 1-.819.1 1.965 1.965 0 0 1-1.848-1.092l-.462.21c1.008 2.751 2.961 3.087 3.066 3.087.147 0 .231-.021.567-.273a4.341 4.341 0 0 1 1.617-.693l1.26-.378c.735-.21 4.011-.8 4.683-.924a10.432 10.432 0 0 0-2.646 2.6 9.576 9.576 0 0 0-1.806 5.334c0 5.943 6.447 6.174 7.6 6.174.84 0 1.365-.168 1.365-.882 0-.567-.651-1.7-1.239-1.7-.126 0-.8.063-.945.063a6.808 6.808 0 0 1-3.4-.9 3.982 3.982 0 0 1-1.764-3.57 7.887 7.887 0 0 1 2.667-5.775 4.8 4.8 0 0 1 3.843-1.449c.735 0 1.575.042 1.911.084Zm13.734-.882a3 3 0 0 1 .567 1.6 25.025 25.025 0 0 1-3.15 8.505c-.252.441-.483.714-.8.714-.987 0-2.121-1.953-2.121-3.969a7.018 7.018 0 0 1 5.5-6.825Zm.945 14.343c2.478-.21 8.925-.861 8.925-7.812 0-4.746-3.339-7.686-8.043-7.686-5.355 0-9.219 3.885-9.219 8.526a6.4 6.4 0 0 0 1.827 4.788 3.89 3.89 0 0 0 2.394 1.323c1.113 0 2.31-2.247 2.667-2.961 1.344-2.6 2.6-6.09 2.6-8.127 0-1.365-.378-1.7-1.344-2.52.21-.021.672-.063 1.008-.063a5.754 5.754 0 0 1 5.9 6.153 7.772 7.772 0 0 1-1.428 4.536 9.518 9.518 0 0 1-5.418 3.3ZM74.025 618.403v-6.027h1.89v6.027Zm-4.389-6.594.252.567h1.827v6.027h-2.478l.315.567h2.163c-.1 6.258-.567 7.623-2.331 9.723l.378.315c4.158-2.94 4.2-5.88 4.263-10.038h1.89v9.87l2.31-.483v-9.387H81.9v-.462l-1.722-1.428-1.071 1.323h-.882v-6.027H81.1v-.462l-1.8-1.407-1.2 1.3Zm15.351-1.3a19.9 19.9 0 0 1-5.687 6.424l.168.378a20.3 20.3 0 0 0 7.056-4.6c.063 0 .483.063.5.063.21 0 .462-.168.462-.357a.64.64 0 0 0-.294-.441Zm.8 5.061a20.24 20.24 0 0 1-6.678 7.329l.189.42a16.731 16.731 0 0 0 4.2-2.247 27.3 27.3 0 0 0 3.8-3.339c.147.021.4.063.441.063a.4.4 0 0 0 .42-.378.616.616 0 0 0-.294-.462Zm.378 5.313a26.672 26.672 0 0 1-3.7 4.7 15.591 15.591 0 0 1-4.032 3.045l.189.42c2.037-.651 5.04-1.6 8.946-5.88.525.021 1.008.021 1.008-.315a.876.876 0 0 0-.357-.525Zm16.861-10.733c0 1.953 0 2.478.021 4.284h-10.6l.252.567h10.369a38.488 38.488 0 0 0 .315 4.179l-2.037-1.533-1.134 1.428h-7.077l.21.567h3.549v5.943c-.189.021-.546.042-.714.063l-.672.063c-.882.084-1.848.147-2.751.21l1.512 2.751a.48.48 0 0 0 .336.231c.21 0 .294-.273.441-.693l7.182-2.268 1.785-.588-.063-.5-4.683.5v-5.712h4.158v-.168a16.758 16.758 0 0 0 1.659 5.355c1.26 2.373 3.213 4.158 4.662 4.158a2.226 2.226 0 0 0 1.89-1.323 2.156 2.156 0 0 1-.987-1.89 2.561 2.561 0 0 1 .084-.672l.483-1.869-.378-.21a25.714 25.714 0 0 1-1.785 2.856c-3.465-3.192-3.528-8.631-3.57-10.878h6.153v-.462l-1.848-1.575-1.218 1.47h-3.087v-2.982a4.049 4.049 0 0 0 .609-.294 3.919 3.919 0 0 1 1.05 1.554c.21.546.462 1.071 1.155 1.071a1.142 1.142 0 0 0 1.029-1.2c0-1.575-1.827-1.659-3.087-1.722-.042-.147-.084-.315-.483-.357Zm14.511 3.108c.777 1.953 1.239 2.373 2.6 2.373.4 0 .84-.042 1.554-.105a33.162 33.162 0 0 1-2.079 2.877 45.018 45.018 0 0 1-2.079 2.373c-.441.4-.462.5-.462.756 0 .693.546 1.428.9 1.428.147 0 .273-.063.462-.357l.42-.525.462-.63c.147-.231 2.415-3.024 4.347-3.024 1.134 0 1.281.609 1.386 1.848-1.05.462-1.995.882-2.9 1.386a3.924 3.924 0 0 0-2.163 3.276 3.051 3.051 0 0 0 2.478 2.982 16.7 16.7 0 0 0 4.452.42 27.756 27.756 0 0 0 4.242-.252 1 1 0 0 0 .9-.924c0-.609-1.113-1.491-1.491-1.491a7.837 7.837 0 0 0-.924.294 30.263 30.263 0 0 1-3.843.273c-2.373 0-4.389-.231-4.389-1.764 0-1.407 1.554-2.184 3.7-2.982 0 .294 0 .8-.021 1.092l-.063.756c-.021.273-.084 1.176.8 1.176a1.631 1.631 0 0 0 1.2-.651 5.1 5.1 0 0 0 .231-1.764c0-.42-.021-.9-.063-1.3a23.125 23.125 0 0 1 5.271-1.008c.609 0 .8-.084.8-.42a2.2 2.2 0 0 0-.63-1.365 6.206 6.206 0 0 0-2.247-1.449l-.315.357a1.385 1.385 0 0 1 .735.819c0 .231-.441.441-.609.525-.672.252-1.764.651-2.436.9l-.714.294c-.168-.8-.42-2.058-2.562-2.058-.861 0-1.218.168-2.814.9.777-1.05 1.029-1.386 2.1-2.982l2.667-.294a15.822 15.822 0 0 0 2.856-.483c.273-.063.84-.21.84-.588 0-.5-1.155-1.26-1.491-1.26-.084 0-.1.021-.441.189a2.305 2.305 0 0 1-.861.294l-.672.147c-.483.126-1.323.252-1.785.315a8.347 8.347 0 0 1 .945-1.05c.336-.294.483-.5.483-.693 0-.441-1.176-1.155-4.116-1.2l-.168.5c.8.147 1.533.273 1.533.84a6.044 6.044 0 0 1-.861 1.869c-.987.1-1.974.21-2.793.21a1.942 1.942 0 0 1-1.932-1.134Zm31.332 2.982.021-.651c.042-.714.063-1.491.084-3.906.462-.189.735-.315.735-.63 0-.189-.189-.357-.525-.378l-2.793-.273.021 1.554c.021 1.785 0 2.751-.042 4.284h-7.539l.252.567h7.245c-.189 2.94-.5 6.363-3.633 9.282a12.186 12.186 0 0 1-4.074 2.625l.168.42a16.969 16.969 0 0 0 6.552-3.234c2.73-2.289 3.15-6.048 3.381-8.022a14.438 14.438 0 0 0 6.867 11.044 2.349 2.349 0 0 1 2.016-1.7l.168-.378a16.346 16.346 0 0 1-6.531-5.208 16.313 16.313 0 0 1-2.142-4.83h8.358v-.462l-2.373-1.911-1.385 1.807Zm28.6-1.806c.021 2.352 0 5.439-.252 8.022a15.625 15.625 0 0 1-.756 3.675h-3.549v.462c1.89.294 2.142.672 2.163 1.239.042.861.042.924.525.924a4.33 4.33 0 0 0 2.52-.945c1.05-1.05 1.218-3.066 1.344-4.746a80.842 80.842 0 0 0 .336-9.723c.693-.21.777-.231.777-.462a.5.5 0 0 0-.231-.336l-2.268-1.533-.777 1.26H169.2l.294.567h2.94c-.021 5.733-.042 8.568-1.176 10.689a10.294 10.294 0 0 1-5.565 4.809l.21.441c2.037-.693 5.292-1.785 7.119-4.6 1.575-2.457 1.659-6.111 1.743-11.34h2.709Zm-11.193-2.247c.672-.357.756-.4.756-.588s-.21-.294-.4-.315l-2.625-.294v5.817l-2.436.462.273.483 2.163-.4v5.334a1.777 1.777 0 0 0 .21.84c.294.546.588.735 1.617.735h3.4c.5 0 1.491-.315 1.932-2.121-.462-.1-1.239-.273-1.134-2.058l.042-1.05h-.441l-.546 2.079c-.21.882-.546 1.113-.966 1.113h-1.365c-.378 0-.483-.147-.483-.462v-4.85l5.376-.987-.042-.462-2.226-1.218-1.008 1.743-2.1.4Zm20.139-.378c.756.42 1.155.63 1.155 1.659a4.329 4.329 0 0 1-.105.819l-.273 1.26a31.807 31.807 0 0 0-.9 6.405c0 3.507 1.008 6.027 2.184 6.027a.957.957 0 0 0 .9-.945 3.4 3.4 0 0 0-.147-.8 4.588 4.588 0 0 1-.1-.9c0-1.47 1.092-4.473 1.554-5.775l-.5-.21c-.567 1.2-.609 1.281-1.6 3.171l-.462.924a8.668 8.668 0 0 1-.189-1.743c0-2.646 1.071-6.195 1.7-6.909.336-.4.378-.441.378-.588a2.822 2.822 0 0 0-.672-1.449 5.447 5.447 0 0 0-2.646-1.365Zm9.849 5.481a9.691 9.691 0 0 1 4.557-2.058c.819-.126 1.155-.168 1.155-.693a1.436 1.436 0 0 0-.63-1.113c-.357-.252-.924-.336-2.289-.336-3.927 0-5.418 1.092-7.161 2.772l.252.378c1.449-.8 2.583-1.239 5.649-1.3a35.732 35.732 0 0 0-2.541 2.5l.336.357Zm-4.326 4.683c.5 3.57 1.407 5.523 6.237 5.523a27.657 27.657 0 0 0 3.591-.189c.252-.063.945-.21.945-.8 0-.546-.672-1.575-1.239-1.575-.147 0-.84.252-1.008.294a17.154 17.154 0 0 1-2.835.21c-4.263 0-4.746-2.058-5.082-3.549Z" fill="#461c00"/><path data-name="長方形 2748" fill="#ffeed5" d="M310 563h273v82H310z"/><path data-name="パス 4082" d="M386.713 590.776v-.567l-2.058-1.659-1.323 1.659h-15.351l.294.567h7.833v5.859h-2.94v.546c1.449.231 1.827.4 1.932 1.092.1.777.126.861.462.861a5.929 5.929 0 0 0 2.037-.5 1.533 1.533 0 0 0 .84-1.638v-6.22Zm-14.6 1.05a24.962 24.962 0 0 1-4.326 5.943l.294.357a25.278 25.278 0 0 0 5.775-4.452c.147 0 .42.021.441.021.189 0 .441-.1.441-.294a.525.525 0 0 0-.294-.378Zm10.9-5.565a31.287 31.287 0 0 0 2.646-1.722 4.8 4.8 0 0 0 .525.042c.084 0 .483 0 .483-.315a.745.745 0 0 0-.294-.525l-2.073-1.764-.819 1.008h-5.126v-1.743c.5-.252.735-.378.735-.609 0-.189-.294-.294-.5-.315l-2.566-.189v2.856h-5.481c-.063-.42-.084-.546-.147-.861h-.5a2.209 2.209 0 0 1-1.47 2.289c-.672.378-.714.714-.714 1.008a1.246 1.246 0 0 0 1.26 1.239c.231 0 1.638-.021 1.638-2.6v-.487h13c-.315.966-.483 1.365-.924 2.457Zm-12.013.504.252.567h11.597v-.5l-1.911-1.537-1.26 1.47Zm8.82 5.712a10.467 10.467 0 0 1 3.906 3.927c.4.735.714 1.344 1.386 1.344a1.193 1.193 0 0 0 1.113-1.281 2.876 2.876 0 0 0-1.113-2.058c-1.092-.987-3.318-1.743-5.061-2.331Zm16.742-8.883h1.953c-.63 1.05-.84 1.386-1.722 2.709h-.231Zm9.87 2.016a22.694 22.694 0 0 1-1.491 6.678 12.043 12.043 0 0 1-1.827-4.452c.315-.672.441-.924.693-1.491l.294-.735Zm-9.87-2.588v-1.633c.693-.294.777-.315.777-.525s-.315-.294-.5-.336l-2.524-.336v2.83h-2.751l.252.567h2.5v2.714h-3.277l.252.567h5.082a37.122 37.122 0 0 1-1.47 1.869h-3.255l.21.567h2.542a22.775 22.775 0 0 1-3.633 3.339l.273.378a25.149 25.149 0 0 0 5-3.717h1.95c-.273.42-.357.588-.777 1.155l-.483.63-1.491-.169v2.121c-1.26.126-1.869.189-4.389.336l.987 2.079c.084.168.21.357.336.357.1 0 .147-.042.525-.525.357-.084 1.155-.315 1.743-.462l.8-.21v1.932h-2.5v.483c1.68.42 1.806.462 1.806 1.449 0 .5.063.651.5.651a4.209 4.209 0 0 0 1.743-.483c.735-.441.735-1.029.735-1.806v-2.855l1.113-.294c.4-.1.63-.189 1.155-.336l2.079-.567-.042-.441c-1.995.168-2.562.231-3.4.336l-.9.084v-1.26a44.01 44.01 0 0 0 2.709-1.617 2.341 2.341 0 0 0 .378.042c.168 0 .462-.084.462-.294a.744.744 0 0 0-.315-.462l-1.806-1.3-.735.861h-1.6c.777-.8.987-1.029 1.722-1.869h3.738a17.966 17.966 0 0 1-1.365 4.1l.462.189a20.473 20.473 0 0 0 1.512-2.478 16.491 16.491 0 0 0 1.533 5.061 12.043 12.043 0 0 1-1.725 2.178 12.98 12.98 0 0 1-4.494 2.94l.231.42a12.758 12.758 0 0 0 3.507-1.344 11.456 11.456 0 0 0 3.36-2.478 18.114 18.114 0 0 0 3.36 3.507 2.082 2.082 0 0 1 1.659-1.659l.1-.441a13.823 13.823 0 0 1-3.843-2.793 21.326 21.326 0 0 0 2.268-7.707l.1-.756h1.3v-.316l-1.894-1.638-1.154 1.386h-2.689c.462-1.26.651-1.764 1.155-3.276.672-.294.819-.378.819-.567 0-.147-.21-.315-.42-.357l-2.793-.5a29.37 29.37 0 0 1-.861 6.027l-1.511-1.264-1.008 1.2h-.862a43.092 43.092 0 0 0 2.793-3.843c.567-.084.861-.126.861-.357a.429.429 0 0 0-.252-.357l-2.226-1.2c-.42.966-.546 1.218-.966 2.079l-1.008-.819-1.008 1.213Zm22.365 7.8v-4.057h3.738v4.057Zm.462-10.756c-1.869 5.796-4.242 8.211-5.689 9.656l.315.4a24.66 24.66 0 0 0 2.541-1.932v8.106c0 1.953.714 2.541 2.352 2.541h10.624c2.331 0 3.045-.273 3.381-2.331-1.113-.231-1.134-.882-1.092-3.57h-.546l-.357 1.575c-.546 2.226-1.26 2.226-2.373 2.226h-8.484c-.861 0-1.134-.21-1.134-1.092v-4.26h9.639v1.113l2.331-.357v-4.809c.483-.21.756-.315.756-.567 0-.168-.147-.294-.4-.462l-2.053-1.302-.819 1.176h-3c.4-.357 2.31-2.184 2.73-2.583.483 0 1.029 0 1.029-.42a.668.668 0 0 0-.315-.462l-2.125-1.49-.861 1.113H421.3c.231-.357.252-.42.483-.777.378-.063.819-.147.819-.462 0-.189-.231-.315-.42-.357Zm-.42 6.111-.269-.189a26.64 26.64 0 0 0 2.222-3.066h4.851a35.715 35.715 0 0 1-1.743 3.255Zm5.922 4.645v-4.057h3.675v4.057Zm12.684-5.565a3.6 3.6 0 0 0 .525 2.163 2.362 2.362 0 0 0 1.344 1.134c.189 0 .315-.1.693-.4a6.986 6.986 0 0 1 1.89-1.05l-.315.714a74.7 74.7 0 0 1-3.675 7.749l-.378.5a.854.854 0 0 0-.21.546c0 .567.819 1.806 1.449 1.806.42 0 .651-.546.693-.63.168-.378.84-2.247 1.008-2.688l2.436-6.006.525-1.323c.126-.294.357-.882.546-1.323a7.688 7.688 0 0 1 1.239-.147c.8 0 1.7.21 1.7 1.89a21.5 21.5 0 0 1-1.6 7.2 6.892 6.892 0 0 1-.756-.315l-1.827-.8c-.084-.042-.462-.189-.588-.252l-.21.462a7.968 7.968 0 0 1 1.536 1.245 2.6 2.6 0 0 1 .8 2.1.909.909 0 0 0 .9.693c2.814 0 3.843-7.476 3.843-9.576 0-1.2-.21-2.6-1.113-3.171a4 4 0 0 0-2.226-.588c-.252 0-.483.021-1.155.084a12.242 12.242 0 0 1 1.113-1.932l.378-.5a.635.635 0 0 0 .168-.378c0-.273-.882-1.638-4.2-1.722l-.147.525c.483.1 1.6.378 1.6 1.176a14.488 14.488 0 0 1-.945 3.15c-.966.21-1.092.252-2.121.525a5.755 5.755 0 0 1-1.47.273c-.756 0-.882-1.029-.9-1.26Zm11.508-.987a7.292 7.292 0 0 1 2.817 3.041 13.037 13.037 0 0 1 1.47 4.221c-.168.042-.609.1-.735.126l-1.344.273c-.168.042-.189.042-.546.1l.084.5c2.394 0 2.667.546 2.961 1.176.231.546.462.588.651.588.231 0 1.26-.231 1.26-1.785a9.9 9.9 0 0 0-2.016-5.649 8.574 8.574 0 0 0-4.329-3.039Zm3.444.021c.231.441.462.588.756.588a.994.994 0 0 0 .84-1.071c0-1.68-2.436-2.247-3.612-2.52l-.21.315a4.33 4.33 0 0 1 1.699 1.719Zm2.142-1.638c.168.231.4.5.693.5a.964.964 0 0 0 .819-1.029 1.784 1.784 0 0 0-.693-1.3 5.845 5.845 0 0 0-3.234-.966l-.147.336a5.289 5.289 0 0 1 2.121 1.828Zm6.153 1.2c.525 1.6.882 2.625 2.226 2.625.21 0 .63-.042 1.029-.084l.672-.084c-.588 1.554-.987 2.562-1.533 3.78-.126.294-1.533 3.318-1.848 3.843l-.336.546c-.4.8-.441.882-.441 1.029 0 .546.651 1.638 1.365 1.638.168 0 .378-.063.651-.567.168-.294.756-1.974.9-2.331l2.31-5.859c.252-.651.609-1.554.924-2.31.42-.063 1.68-.231 2.184-.336l1.26-.231c.357-.063.819-.189.819-.651 0-.4-1.008-1.3-1.428-1.3-.126 0-.189.042-.714.357a7.537 7.537 0 0 1-1.365.378c.126-.294.546-1.281.651-1.449a3.716 3.716 0 0 0 .5-.84c0-.441-.861-.756-1.218-.882a8.9 8.9 0 0 0-2.9-.315l-.147.5c1.365.1 1.533.462 1.533 1.134a5.39 5.39 0 0 1-.378 1.617l-.231.63a19.061 19.061 0 0 1-2.394.294 1.854 1.854 0 0 1-1.638-1.281Zm11.529 10.962c.042.924 0 1.428-.441 1.806a3.2 3.2 0 0 1-2.058.588c-1.617 0-2.52-.672-2.52-1.47 0-.378.273-1.365 2.226-1.365a10.317 10.317 0 0 1 2.793.434Zm-.735-10.059a8.813 8.813 0 0 1 3.8 1.974c-1.428.126-3.7.546-3.7 2.9a23.48 23.48 0 0 0 .378 3.4 9.446 9.446 0 0 0-1.638-.168c-2.121 0-4.1.945-4.1 2.877 0 1.407 1.3 2.9 4.368 2.9a4.833 4.833 0 0 0 2.9-.756 2.417 2.417 0 0 0 1.008-2.058 18.268 18.268 0 0 1 1.806 1.239l.672.546a1.021 1.021 0 0 0 .609.273.98.98 0 0 0 .9-1.071 1.937 1.937 0 0 0-1.071-1.575 15.6 15.6 0 0 0-3.108-1.533 27.867 27.867 0 0 1-.735-4.557 1.536 1.536 0 0 1 1.407-1.743 1.943 1.943 0 0 1 1.491.588 1.525 1.525 0 0 0 .84.462c.546 0 .84-.567.84-1.092 0-.966-1.029-1.848-1.827-2.268a11.015 11.015 0 0 0-4.767-.777Zm19.194.5c-.567.378-3.549 2.5-4.032 2.919a1.839 1.839 0 0 0-.651 1.218c0 .525.483.9 1.428 1.491a21.527 21.527 0 0 1 7.329 6.636c.378.609.672 1.029 1.2 1.029 1.071 0 1.071-1.575 1.071-1.68 0-.441 0-1.113-2.289-3.087a50.705 50.705 0 0 0-6.156-4.16c-.378-.231-.5-.378-.5-.546a.732.732 0 0 1 .315-.483 27.575 27.575 0 0 1 2.373-1.554 26.772 26.772 0 0 1 6.321-3c.378-.063.693-.126.693-.525 0-.525-.8-1.323-.966-1.449a4.863 4.863 0 0 0-2.688-1.365l-.273.357c.273.147 1.092.546 1.092 1.029 0 .315-.294.546-.756.84Zm16.023 8.778a3.854 3.854 0 0 1 2.058 2.73c.357 1.113.525 1.659 1.365 1.659a1.393 1.393 0 0 0 1.323-1.512 2.831 2.831 0 0 0-1.071-2.1 8 8 0 0 0-3.465-1.26Zm-113.547 28.38h-9.156v-4.032h9.156Zm0 5.418v1.113l2.436-.42V614.56c.483-.231.714-.336.714-.567 0-.189-.21-.357-.378-.462l-2.079-1.365-.84 1.323h-5c.588-.819.819-1.176 1.365-2.058.567-.147.924-.252.924-.546 0-.147-.21-.294-.42-.336l-3.022-.527-.021 1.05c-.021 1.3-.063 1.785-.1 2.415h-2.6l-2.52-1.26v16.9l2.394-.378v-.917Zm0-10.017h-9.156v-3.759h9.156Zm0 9.45h-9.156v-4.263h9.156Zm24.171-.084v1.407l2.31-.4V616.03c.483-.189.756-.315.756-.567 0-.126-.126-.273-.4-.441l-2.037-1.365-.8 1.365h-4.2v-3.318c.567-.231.882-.336.882-.651 0-.231-.315-.357-.588-.378l-2.58-.253v4.6h-4.116l-2.415-1.386v15.162l2.352-.336v-1.281Zm-6.657-6.699h-4.179v-4.893h4.179Zm0 6.132h-4.179v-5.565h4.179Zm2.289-6.132v-4.893h4.368v4.893Zm0 .567h4.368v5.565h-4.368Zm13.083-7.2c.525 1.6.882 2.625 2.226 2.625.21 0 .63-.042 1.029-.084l.672-.084c-.588 1.554-.987 2.562-1.533 3.78-.126.294-1.533 3.318-1.848 3.843l-.336.546c-.4.8-.441.882-.441 1.029 0 .546.651 1.638 1.365 1.638.168 0 .378-.063.651-.567.168-.294.756-1.974.9-2.331l2.31-5.859c.252-.651.609-1.554.924-2.31.42-.063 1.68-.231 2.184-.336l1.26-.231c.357-.063.819-.189.819-.651 0-.4-1.008-1.3-1.428-1.3-.126 0-.189.042-.714.357a7.537 7.537 0 0 1-1.365.378c.126-.294.546-1.281.651-1.449a3.716 3.716 0 0 0 .5-.84c0-.441-.861-.756-1.218-.882a8.9 8.9 0 0 0-2.9-.315l-.147.5c1.365.1 1.533.462 1.533 1.134a5.39 5.39 0 0 1-.378 1.617l-.231.63a19.061 19.061 0 0 1-2.394.294 1.854 1.854 0 0 1-1.638-1.281Zm11.528 10.959c.042.924 0 1.428-.441 1.806a3.2 3.2 0 0 1-2.058.588c-1.617 0-2.52-.672-2.52-1.47 0-.378.273-1.365 2.226-1.365a10.317 10.317 0 0 1 2.793.441Zm-.735-10.059a8.813 8.813 0 0 1 3.8 1.974c-1.428.126-3.7.546-3.7 2.9a23.48 23.48 0 0 0 .378 3.4 9.446 9.446 0 0 0-1.638-.168c-2.121 0-4.1.945-4.1 2.877 0 1.407 1.3 2.9 4.368 2.9a4.833 4.833 0 0 0 2.9-.756 2.417 2.417 0 0 0 1.008-2.058 18.271 18.271 0 0 1 1.806 1.239l.672.546a1.021 1.021 0 0 0 .609.273.98.98 0 0 0 .9-1.071 1.937 1.937 0 0 0-1.071-1.575 15.6 15.6 0 0 0-3.108-1.533 27.868 27.868 0 0 1-.735-4.557 1.536 1.536 0 0 1 1.407-1.743 1.943 1.943 0 0 1 1.491.588 1.525 1.525 0 0 0 .84.462c.546 0 .84-.567.84-1.092 0-.966-1.029-1.848-1.827-2.268a11.015 11.015 0 0 0-4.767-.777Zm16.359 3.654v-6.027h1.89v6.027Zm-4.389-6.594.252.567h1.827v6.027h-2.478l.315.567h2.163c-.105 6.258-.567 7.623-2.331 9.723l.378.315c4.158-2.94 4.2-5.88 4.263-10.038h1.89v9.87l2.31-.483v-9.387h3.676v-.462l-1.722-1.428-1.071 1.323h-.882v-6.027h2.875v-.462l-1.8-1.407-1.2 1.3Zm15.351-1.3a19.9 19.9 0 0 1-5.691 6.426l.168.378a20.3 20.3 0 0 0 7.056-4.6c.063 0 .483.063.5.063.21 0 .462-.168.462-.357a.64.64 0 0 0-.294-.441Zm.8 5.061a20.24 20.24 0 0 1-6.678 7.329l.189.42a16.731 16.731 0 0 0 4.2-2.247 27.3 27.3 0 0 0 3.8-3.339c.147.021.4.063.441.063a.4.4 0 0 0 .42-.378.616.616 0 0 0-.294-.462Zm.378 5.313a26.672 26.672 0 0 1-3.7 4.7 15.591 15.591 0 0 1-4.032 3.045l.189.42c2.037-.651 5.04-1.6 8.946-5.88.525.021 1.008.021 1.008-.315a.876.876 0 0 0-.357-.525Zm16.863-10.731c0 1.953 0 2.478.021 4.284h-10.606l.252.567h10.374a38.484 38.484 0 0 0 .315 4.179l-2.037-1.533-1.134 1.428h-7.077l.21.567h3.549v5.943c-.189.021-.546.042-.714.063l-.672.063c-.882.084-1.848.147-2.751.21l1.512 2.751a.48.48 0 0 0 .336.231c.21 0 .294-.273.441-.693l7.182-2.268 1.785-.588-.063-.5-4.683.5v-5.714h4.158v-.168a16.758 16.758 0 0 0 1.659 5.355c1.26 2.373 3.213 4.158 4.662 4.158a2.226 2.226 0 0 0 1.89-1.323 2.156 2.156 0 0 1-.987-1.89 2.561 2.561 0 0 1 .084-.672l.483-1.869-.378-.21a25.714 25.714 0 0 1-1.785 2.856c-3.465-3.192-3.528-8.631-3.57-10.878h6.153v-.462l-1.848-1.575-1.218 1.47h-3.087v-2.982a4.049 4.049 0 0 0 .609-.294 3.919 3.919 0 0 1 1.05 1.554c.21.546.462 1.071 1.155 1.071a1.142 1.142 0 0 0 1.029-1.2c0-1.575-1.827-1.659-3.087-1.722-.042-.147-.084-.315-.483-.357Zm23.456 2.77c-1.3.147-1.743.21-6.7 1.05a10.836 10.836 0 0 1-1.659.21c-.966 0-1.26-.378-1.785-1.05l-.42.273c1.092 2.646 2.835 3.066 3.108 3.066a.367.367 0 0 0 .252-.084c.483-.42.5-.42.777-.525a36.535 36.535 0 0 1 6.2-1.512l.861-.168a10.549 10.549 0 0 0-2.688 2.625 9.692 9.692 0 0 0-1.848 5.355 5.316 5.316 0 0 0 3.045 5.145 10.953 10.953 0 0 0 4.536 1.05c1.029 0 1.3-.357 1.3-.882 0-.609-.777-1.743-1.3-1.743-.126 0-.735.084-.861.084-.378 0-5.1-.063-5.1-4.326a8.334 8.334 0 0 1 2.478-5.691 5.128 5.128 0 0 1 4.1-1.68c.714 0 1.491.042 1.827.063.147.021.9.1 1.071.1.252 0 .651-.084.651-.5 0-.588-1.449-1.785-2.037-1.785a2.619 2.619 0 0 0-.567.252 3.262 3.262 0 0 1-1.239.231Zm3.8 6.741a1.092 1.092 0 0 0 .882.672c.462 0 .777-.483.777-1.008 0-1.869-2.289-2.226-3.57-2.436l-.189.4a4.79 4.79 0 0 1 1.7 1.7Zm.084-3.822a6.234 6.234 0 0 1 2.037 1.89c.546.756.714.966 1.071.966a.824.824 0 0 0 .84-.945 1.729 1.729 0 0 0-.777-1.449 5.242 5.242 0 0 0-2.982-.8Z" fill="#461c00"/><path data-name="長方形 2749" fill="#ffeed5" d="M142 209h273v57H142z"/><path data-name="パス 4084" d="M230.973 231.322a24 24 0 0 1-7.791 9.492l.294.42a24.405 24.405 0 0 0 7.539-5.632c.168-.189 1.827-2.268 2.184-2.688 1.801 4.053 3.654 5.754 7.707 7.749.483-1.365.84-1.6 1.68-1.806l.1-.462-.945-.315a15.455 15.455 0 0 1-8.127-5.4c.21-.042.714-.105.714-.483 0-.168-.168-.357-.63-.441Zm3.381 10.668v-3.196c.693-.336.861-.42.861-.651 0-.21-.336-.315-.546-.336l-2.73-.315v11.256h-2.877v-6.972c.672-.294.756-.336.756-.546 0-.231-.315-.294-.525-.315l-2.541-.252v8.085h-2.94l.252.567H242.1v-.441l-2.055-1.722-1.281 1.6h-4.41v-6.199h5.355v-.483l-1.953-1.554-1.281 1.47Zm23.546-6.01c-.462 1.6-.672 2.2-.945 2.94h-2.924a1.263 1.263 0 0 0 .42-1.008c0-.924-.861-1.533-1.7-1.932Zm2.331-.567.609-.588c.525-.5.9-.882 1.743-1.764.252-.042.63-.084.63-.315a.434.434 0 0 0-.273-.357l-2.294-1.008a41.42 41.42 0 0 1-1.365 4.032h-.756v-3.234c.357-.168.609-.273.609-.525 0-.168-.21-.315-.42-.336l-2.314-.168v4.263h-1.445V232.2c.672-.315.756-.336.756-.546s-.357-.294-.525-.315l-2.352-.21v4.284h-6.216l.21.567h4.6a3.439 3.439 0 0 1 .651 1.911 1.325 1.325 0 0 0 .356 1.031h-4.788l.252.588h6.7v1.7H248.7l.273.567h5.627v1.89h-7.877l.21.567h5.667a25.444 25.444 0 0 1-6.048 5.355l.147.42a23.9 23.9 0 0 0 7.9-4.431v4.536l2.352-.378v-5.167a12.126 12.126 0 0 0 7.119 5.187 2.109 2.109 0 0 1 1.512-1.911v-.462c-5.229-.756-7.182-2.331-8.19-3.15h8.064v-.462l-1.974-1.575-1.239 1.47h-5.293v-1.89h6.468v-.462l-1.785-1.428-1.239 1.323h-3.444v-1.7h7.287v-.487l-1.974-1.614-1.176 1.514h-3.066c.735-.777.987-1.029 2.163-2.163.273-.021.693-.063.693-.378 0-.168-.1-.21-.42-.4h4.935v-.484l-1.932-1.575-1.239 1.491Zm-11.576-3.507a2.5 2.5 0 0 1 .882 1.533l.126.84c.063.483.273 1.071 1.05 1.071a1.176 1.176 0 0 0 1.239-1.239 1.718 1.718 0 0 0-.546-1.239 4.928 4.928 0 0 0-2.562-1.239Zm21.945 4.032.273.588h6.867l.021 5.418h-6.237l.273.567h5.964v5.964h-8.169l.252.588h18.795v-.483l-2.31-1.869-1.365 1.764h-4.746v-5.964h6.51v-.42l-2.247-1.743-1.281 1.6h-2.982v-5.426h7.833v-.437l-2.268-1.743-1.283 1.596Zm4.914-4.179c1.491.8 1.575 1.008 2.373 2.9.168.4.4.987 1.2.987a1.249 1.249 0 0 0 1.281-1.26c0-2.31-3.045-2.814-4.683-3.066Zm29.652 4.163v-3.281c.567-.189.84-.294.84-.588 0-.147-.168-.315-.4-.357l-2.814-.4v4.626h-4.913l.252.567h3.822a28.417 28.417 0 0 1-4.935 9.3v-8.213c.357-.168.588-.294.588-.483 0-.273-.4-.378-.84-.5.567-1.113.756-1.47 1.764-3.654.4-.105.819-.189.819-.525a.551.551 0 0 0-.42-.441l-2.709-.676a32.424 32.424 0 0 1-3.82 10.773l.378.315c.987-1.176 1.218-1.47 1.932-2.457v10.206l2.31-.4v-3.78l.168.252a22.782 22.782 0 0 0 5.607-5.9v4.767h-3.32l.294.567h3.024v4.389l2.373-.42v-3.969h3.36v-.5l-1.785-1.386-1.155 1.323h-.42v-7.711a16.266 16.266 0 0 0 4.872 8.547c.609-1.134.9-1.344 1.827-1.638l.126-.336a17.143 17.143 0 0 1-6.615-7.455h6.237v-.441l-2-1.68-1.276 1.559Zm21.567-2c-1.3.147-1.743.21-6.7 1.05a10.837 10.837 0 0 1-1.659.21c-.966 0-1.26-.378-1.785-1.05l-.42.273c1.092 2.646 2.835 3.066 3.108 3.066a.367.367 0 0 0 .252-.084c.483-.42.5-.42.777-.525a36.535 36.535 0 0 1 6.194-1.512l.861-.168a10.549 10.549 0 0 0-2.688 2.625 9.692 9.692 0 0 0-1.848 5.355 5.316 5.316 0 0 0 3.045 5.145 10.952 10.952 0 0 0 4.536 1.05c1.029 0 1.3-.357 1.3-.882 0-.609-.777-1.743-1.3-1.743-.126 0-.735.084-.861.084-.378 0-5.1-.063-5.1-4.326a8.334 8.334 0 0 1 2.478-5.691 5.128 5.128 0 0 1 4.1-1.68c.714 0 1.491.042 1.827.063.147.021.9.1 1.071.1.252 0 .651-.084.651-.5 0-.588-1.449-1.785-2.037-1.785a2.618 2.618 0 0 0-.567.252 3.262 3.262 0 0 1-1.239.231Zm3.8 6.741a1.092 1.092 0 0 0 .882.672c.462 0 .777-.483.777-1.008 0-1.869-2.289-2.226-3.57-2.436l-.189.4a4.79 4.79 0 0 1 1.7 1.7Zm.084-3.822a6.234 6.234 0 0 1 2.037 1.89c.546.756.714.966 1.071.966a.824.824 0 0 0 .84-.945 1.729 1.729 0 0 0-.777-1.449 5.242 5.242 0 0 0-2.982-.8Z" fill="#461c00"/><path data-name="長方形 2750" fill="#461c00" d="M400 57h26v74h-26z"/><path data-name="長方形 2751" fill="#461c00" d="M265 108h26v90h-26z"/><path data-name="長方形 2752" fill="#461c00" d="M635 108v26H278v-26z"/><path data-name="長方形 2753" fill="#461c00" d="M265 408h26v74h-26z"/><path data-name="長方形 2754" fill="#461c00" d="M447 459v26H143v-26z"/><path data-name="長方形 2755" fill="#ffeed5" d="M493 209h283v57H493z"/><path data-name="パス 4086" d="M539.273 231.322a24 24 0 0 1-7.791 9.492l.294.42a24.405 24.405 0 0 0 7.539-5.632c.168-.189 1.827-2.268 2.184-2.688 1.806 4.053 3.654 5.754 7.707 7.749.483-1.365.84-1.6 1.68-1.806l.1-.462-.945-.315a15.455 15.455 0 0 1-8.127-5.4c.21-.042.714-.105.714-.483 0-.168-.168-.357-.63-.441Zm3.381 10.668v-3.196c.693-.336.861-.42.861-.651 0-.21-.336-.315-.546-.336l-2.73-.315v11.256h-2.877v-6.972c.672-.294.756-.336.756-.546 0-.231-.315-.294-.525-.315l-2.541-.252v8.085h-2.94l.252.567H550.4v-.441l-2.055-1.722-1.281 1.6h-4.41v-6.199h5.355v-.483l-1.953-1.554-1.281 1.47Zm23.541-6.01c-.462 1.6-.672 2.2-.945 2.94h-2.919a1.263 1.263 0 0 0 .42-1.008c0-.924-.861-1.533-1.7-1.932Zm2.331-.567.609-.588c.525-.5.9-.882 1.743-1.764.252-.042.63-.084.63-.315a.434.434 0 0 0-.273-.357l-2.289-1.008a41.422 41.422 0 0 1-1.365 4.032h-.756v-3.234c.357-.168.609-.273.609-.525 0-.168-.21-.315-.42-.336l-2.314-.168v4.263h-1.445V232.2c.672-.315.756-.336.756-.546s-.357-.294-.525-.315l-2.352-.21v4.284h-6.216l.21.567h4.6a3.439 3.439 0 0 1 .651 1.911 1.325 1.325 0 0 0 .356 1.031h-4.788l.252.588h6.7v1.7H557l.273.567h5.627v1.89h-7.877l.21.567h5.667a25.444 25.444 0 0 1-6.048 5.355l.147.42a23.9 23.9 0 0 0 7.9-4.431v4.536l2.352-.378v-5.167a12.126 12.126 0 0 0 7.119 5.187 2.109 2.109 0 0 1 1.512-1.911v-.462c-5.229-.756-7.182-2.331-8.19-3.15h8.064v-.462l-1.974-1.575-1.239 1.47h-5.293v-1.89h6.468v-.462l-1.785-1.428-1.239 1.323h-3.444v-1.7h7.287v-.487l-1.974-1.614-1.176 1.514h-3.066c.735-.777.987-1.029 2.163-2.163.273-.021.693-.063.693-.378 0-.168-.1-.21-.42-.4h4.935v-.484l-1.932-1.575-1.239 1.491Zm-11.571-3.507a2.5 2.5 0 0 1 .882 1.533l.126.84c.063.483.273 1.071 1.05 1.071a1.176 1.176 0 0 0 1.239-1.239 1.718 1.718 0 0 0-.546-1.239 4.928 4.928 0 0 0-2.562-1.239Zm26.67.672c1.176.231 1.47.357 1.47 1.449 0 .462-.084 2.73-.084 3.234a2.81 2.81 0 0 0 .966 2.436c-2.52 1.176-5.355 2.646-5.355 5.5a3.5 3.5 0 0 0 3.15 3.507 25.248 25.248 0 0 0 5.418.42 31.513 31.513 0 0 0 4.956-.273.808.808 0 0 0 .693-.777c0-1.05-1.533-1.785-1.68-1.785-.021 0-.693.252-.819.273a25.255 25.255 0 0 1-4.6.315c-2.331 0-5.67-.084-5.67-2.331 0-3.318 8.484-4.914 10.983-5l.8-.042c.4 0 .672-.147.672-.525 0-.882-1.47-1.932-1.932-1.932-.147 0-.168.021-.441.252a2.578 2.578 0 0 1-.777.336l-3 1.071c-.189.063-.756.273-.987.378a3.758 3.758 0 0 1-.315-1.575 14.158 14.158 0 0 1 .327-3.487c.021-.1.357-.546.357-.672 0-.672-1.05-.945-1.512-1.071a9.541 9.541 0 0 0-2.625-.189Zm20.685.714c1.008 2.415 1.848 2.919 3.717 2.919.9 0 1.764-.084 2.394-.126a7.089 7.089 0 0 0-.714.525l-1.344 1.05c-.147.126-.315.231-.462.357l.357.441a18.686 18.686 0 0 1 3.171-1.848 14.921 14.921 0 0 1 3.528-.9c.21-.021.609-.042.609-.483a2.639 2.639 0 0 0-1.659-1.764c-.189 0-1.092.336-1.281.378a32.152 32.152 0 0 1-5.208.5 2.7 2.7 0 0 1-2.73-1.319Zm.8 7.77a6.5 6.5 0 0 0-1.491 3.675 3.186 3.186 0 0 0 .981 2.415c1.008.987 2.331 1.533 6.888 1.533a32.972 32.972 0 0 0 5.061-.294c.189-.042.966-.252.966-.819 0-.588-1.05-1.785-1.638-1.785-.147 0-.84.336-1.008.378a22.037 22.037 0 0 1-4.158.294c-5 0-5.964-1.05-5.964-2.688a4.218 4.218 0 0 1 .945-2.331Zm9.345-8.883a6.912 6.912 0 0 1 2.373 2.5c.252.525.42.651.735.651.714 0 .819-.84.819-1.113a1.852 1.852 0 0 0-.861-1.47 5.756 5.756 0 0 0-2.9-.9Zm1.993-1.386a4.79 4.79 0 0 1 2.331 2.058c.567.882.63.966.924.966a1.016 1.016 0 0 0 .84-1.113 1.756 1.756 0 0 0-.63-1.282 5.426 5.426 0 0 0-3.276-.987Zm9.912 15.771a5.414 5.414 0 0 0-.693.21l-1.218.42a8.391 8.391 0 0 1-.777.231l1.008 2.142a.586.586 0 0 0 .462.4c.273 0 .357-.357.462-.819l2.436-2.415c1.68 2.646 2.142 3.045 6.321 3.045h7.875a1.662 1.662 0 0 1 .987-1.617v-.4h-1.974a1.9 1.9 0 0 0 .21-.693 1.489 1.489 0 0 0-.588-1.008 4.266 4.266 0 0 0-1.871-.756l1.722-.294v-5.229c.546-.252.8-.378.8-.63 0-.147-.147-.273-.4-.4l-2.079-1.176-.588.945h-5.67l-2.226-.861v7.663l2.1-.378v-.357h.441a19.206 19.206 0 0 1-3.192 2.814 2.4 2.4 0 0 1-1.344-1.113v-5.436c.588-.273.8-.378.8-.609 0-.21-.357-.441-.4-.462l-2.1-1.323-.714 1.264h-2.373l.273.588h2.31Zm12.2-4.41h-5.9v-1.26h5.9Zm0 1.848h-5.9v-1.28h5.9Zm0 .588v.651a20.874 20.874 0 0 0-2.2-.252l-.126.462a7.024 7.024 0 0 1 3.465 2.31h-7.039a12.223 12.223 0 0 1-2.016-.147 29.132 29.132 0 0 0 4.011-1.449 3.424 3.424 0 0 0 .42.042c.063 0 .42 0 .42-.294a.516.516 0 0 0-.273-.357l-1.743-.966Zm0-4.263h-5.9v-1.239h5.9Zm-4.074-5.46h-2.205v-1.445h2.205Zm2.205 0v-1.445h2.247v1.445Zm-2.205.588v1.3h-6.279l.21.588h14.553v-.421l-1.616-1.4-1.054 1.235h-3.612v-1.3h2.247v.651l2.065-.422v-1.743c.5-.252.735-.357.735-.588 0-.189-.357-.378-.42-.42l-1.974-1.134-.567 1.05h-2.079v-.567c.546-.231.777-.336.777-.609 0-.294-.378-.336-.609-.357l-2.376-.231v1.764h-2.226l-1.932-.987v4.452l1.953-.336v-.525Zm-9.886-2.94a5.011 5.011 0 0 1 1.239.861c.252.231.294.378.777 1.617.252.63.588.945 1.071.945a1.268 1.268 0 0 0 1.2-1.323c0-1.932-2.562-2.331-4.137-2.562Zm27.888 2.9v-3.026c.462-.189.714-.273.714-.588a.415.415 0 0 0-.42-.357l-2.629-.357v4.326h-3.108l.231.567h1.995v.819c.042 7.35-.168 10.311-2.226 13.041l.357.294c3.36-3.234 3.969-5.649 4.137-10.437h1.323a37.632 37.632 0 0 1-.546 7.833h-2.31v.42c.756.168 1.281.294 1.281.945 0 .042-.042.525-.042.609 0 .336.084.378.357.378s2.142-.273 2.688-1.638c.672-1.68.735-6.069.756-8.064.336-.147.609-.273.609-.483a.62.62 0 0 0-.252-.4l-2.016-1.365-.714 1.2h-1.113v-2.31c.252-.168.567-.378.567-.588 0-.084-.1-.21-.126-.252h4.074v-.443l-1.785-1.449-1.134 1.323Zm6.468 3.276.756-1.176c.4-.063.861-.126.861-.441a.578.578 0 0 0-.42-.441l-2.394-.546a22.373 22.373 0 0 1-2.079 5.985l.336.21a16.093 16.093 0 0 0 2.562-3.024h.567c0 1.995 0 2.373-.084 3.549h-3.528l.252.588h3.213a6.277 6.277 0 0 1-1.953 4.158 8.508 8.508 0 0 1-3.57 2.142l.189.42c4.3-1.029 6.573-2.394 7.434-6.006a8.785 8.785 0 0 0 3.927 5.943c.336-1.3.693-1.491 1.407-1.659l.042-.378a10.206 10.206 0 0 1-5.04-4.62h4.766v-.42l-2-1.661-1.26 1.491h-1.659a33.449 33.449 0 0 0 .147-3.549h3.972v-.441l-1.974-1.638-1.2 1.512Zm-.693-3.906c.462-.777.588-1.029 1.092-1.974.588-.147.861-.21.861-.462a.637.637 0 0 0-.441-.483l-2.461-.758a22.775 22.775 0 0 1-1.953 6.552l-.42.861.336.231a22.441 22.441 0 0 0 2.625-3.4h8.232v-.42l-1.934-1.556-1.218 1.407Zm17.724 13.356v-5.525h7.623v5.523Zm-2.394-7.329v9.28l2.394-.378v-1.008h7.623v1.008l2.394-.42v-6.048c.462-.273.672-.378.672-.609 0-.189-.252-.357-.4-.462l-2.124-1.453-.84 1.323h-7.329Zm4.532-9.79a22.509 22.509 0 0 1-7.917 9.051l.294.4c3.486-1.659 6.51-3.234 9.639-7.833a12.218 12.218 0 0 0 2.625 3.864 17.251 17.251 0 0 0 5.1 3.57c.168-1.239.483-1.6 1.428-1.995l.1-.42a16.115 16.115 0 0 1-5.943-2.814 15.524 15.524 0 0 1-2.793-2.331c.567-.042.672-.294.672-.42 0-.231-.357-.336-.483-.357Zm-3.36 7.35.273.567h9.429v-.46l-2.058-1.512-1.134 1.407Zm24.045-.15v8.442l2.31-.441v-1.654h3.318v1.365l2.268-.378V240.6c.462-.189.8-.315.8-.609 0-.147-.126-.294-.441-.5l-2.016-1.344-.735 1.218H701.1Zm10.017 9.429h-2.856v.42c1.869.357 2.016.651 2.016 1.47 0 .63.168.693.441.693a4.083 4.083 0 0 0 1.911-.525 1.492 1.492 0 0 0 .8-1.428v-14.38c.42-.168.84-.315.84-.63 0-.189-.252-.336-.483-.483l-2.123-1.344-.735 1.26H697.13l-2.583-1.302v18.9l2.394-.462v-16.569h11.886Zm-7.707-3.649v-4.074h3.318v4.074Zm-3.42-7.854.273.567h10.206v-.441l-2.019-1.659-1.323 1.533Zm29.733-2.226c-1.3.147-1.743.21-6.7 1.05a10.837 10.837 0 0 1-1.659.21c-.966 0-1.26-.378-1.785-1.05l-.42.273c1.092 2.646 2.835 3.066 3.108 3.066a.367.367 0 0 0 .252-.084c.483-.42.5-.42.777-.525a36.535 36.535 0 0 1 6.2-1.512l.861-.168a10.549 10.549 0 0 0-2.688 2.625 9.692 9.692 0 0 0-1.848 5.355 5.316 5.316 0 0 0 3.045 5.145 10.952 10.952 0 0 0 4.536 1.05c1.029 0 1.3-.357 1.3-.882 0-.609-.777-1.743-1.3-1.743-.126 0-.735.084-.861.084-.378 0-5.1-.063-5.1-4.326a8.334 8.334 0 0 1 2.478-5.691 5.128 5.128 0 0 1 4.1-1.68c.714 0 1.491.042 1.827.063.147.021.9.1 1.071.1.252 0 .651-.084.651-.5 0-.588-1.449-1.785-2.037-1.785a2.619 2.619 0 0 0-.567.252 3.262 3.262 0 0 1-1.239.231Zm3.8 6.741a1.092 1.092 0 0 0 .882.672c.462 0 .777-.483.777-1.008 0-1.869-2.289-2.226-3.57-2.436l-.189.4a4.79 4.79 0 0 1 1.7 1.7Zm.084-3.822a6.234 6.234 0 0 1 2.037 1.89c.546.756.714.966 1.071.966a.824.824 0 0 0 .84-.945 1.729 1.729 0 0 0-.777-1.449 5.242 5.242 0 0 0-2.982-.8Z" fill="#461c00"/><path data-name="パス 4087" d="M595.19 396.703v-7.89h10.89v7.89Zm-3.42-10.47v13.26l3.42-.54v-1.44h10.89v1.44l3.42-.6v-8.64c.66-.39.96-.54.96-.87 0-.27-.36-.51-.57-.66l-3.03-2.07-1.2 1.89h-10.47Zm6.48-13.98a32.155 32.155 0 0 1-11.31 12.93l.42.57c4.98-2.37 9.3-4.62 13.77-11.19a17.454 17.454 0 0 0 3.75 5.52 24.644 24.644 0 0 0 7.29 5.1c.24-1.77.69-2.28 2.04-2.85l.15-.6a23.022 23.022 0 0 1-8.49-4.02 22.178 22.178 0 0 1-3.99-3.33c.81-.06.96-.42.96-.6 0-.33-.51-.48-.69-.51Zm-4.8 10.5.39.81h13.47v-.66l-2.94-2.16-1.62 2.01Zm34.35-.21v12.06l3.3-.63v-2.37h4.74v1.95l3.24-.54v-7.08c.66-.27 1.14-.45 1.14-.87 0-.21-.18-.42-.63-.72l-2.88-1.92-1.05 1.74h-4.59Zm14.31 13.47h-4.08v.6c2.67.51 2.88.93 2.88 2.1 0 .9.24.99.63.99a5.833 5.833 0 0 0 2.73-.75 2.132 2.132 0 0 0 1.14-2.04v-20.55c.6-.24 1.2-.45 1.2-.9 0-.27-.36-.48-.69-.69l-3.03-1.92-1.05 1.8H625.4l-3.69-1.86v27l3.42-.66v-23.67h16.98Zm-11.01-5.22v-5.82h4.74v5.82Zm-4.89-11.22.39.81h14.58v-.63l-2.88-2.37-1.89 2.19Zm37.71 3.21a28.9 28.9 0 0 1-2.19 2.52c-.48-.84-.75-1.11-2.46-1.38.54-.45.75-.6 1.35-1.14Zm15.75-2.91v-.63l-2.7-2.07-1.62 1.89h-21.51l.36.81h5.61a24.256 24.256 0 0 1-6.12 6.54l.3.48a22.9 22.9 0 0 0 4.38-2.31 2.475 2.475 0 0 1 .84 1.08 7.678 7.678 0 0 0 .66 1.32 23.983 23.983 0 0 1-6.45 3.78l.18.6c7.23-1.92 9.75-3.96 13.74-7.83.51-.03.57-.03.69-.15v3.6a1.906 1.906 0 0 0 1.92 2.01h7.62c1.86 0 2.25-1.35 2.52-2.37-1.35-.21-1.65-.96-1.53-2.7h-.6l-.39 1.32c-.21.75-.36 1.14-1.2 1.14h-4.2c-.69 0-.96-.12-.96-.84v-1.11a61.916 61.916 0 0 0 6.3-1.23 2.571 2.571 0 0 0 .72.12c.24 0 .39-.09.39-.33a.5.5 0 0 0-.18-.42l-2.49-2.07a30.931 30.931 0 0 1-4.74 3.3v-1.86c.75-.3 1.11-.42 1.11-.75 0-.27-.42-.42-.72-.45l-3.57-.33v2.28l-2.55-1.98-1.29 1.26h-2.64c.63-.63.93-.93 2.01-2.1Zm-18.69-7.56v3.06h-7.71l.33.81h7.38v2.34l3.21-.57v-1.77h4.59v2.28l3.24-.57v-1.71h8.25v-.6l-2.73-2.16-1.71 1.95h-3.81v-1.38c1.02-.48 1.11-.51 1.11-.81s-.45-.42-.69-.42l-3.66-.3v2.91h-4.59v-1.53c.75-.33 1.11-.48 1.11-.78 0-.27-.42-.39-.63-.42Zm11.7 20.01v-1.35c.66-.3 1.11-.48 1.11-.81 0-.3-.48-.42-.69-.42l-3.66-.3v2.88h-4.77v-1.56c.6-.21 1.02-.39 1.02-.81 0-.24-.24-.45-.57-.51l-3.72-.3v3.18h-8.25l.33.81h7.83c-.54 4.05-3.6 5.07-6.54 5.82l.12.66c2.19-.24 5.22-.57 7.62-2.43a5.165 5.165 0 0 0 2.1-4.05h4.83v6.33l3.24-.54v-5.79h7.74v-.63l-2.88-2.25-1.71 2.07Z" fill="#fff"/><path data-name="長方形 2756" fill="#803b3b" d="M310 728h273v73H310z"/><path data-name="パス 4079" d="M376.33 772.495c-.27-.15-.75-.42-1.14-.6a23.744 23.744 0 0 1 3.12-2.43v4.17c-.3-.15-.69-.36-.9-.48Zm-3.96-14.64c.96 2.58 1.74 3.48 3.12 3.48.42 0 2.37-.21 3.03-.3-.12 2.67-.15 3.45-.21 5.94-.48.27-.99.51-1.47.78l-2.97 1.59a3.186 3.186 0 0 1-1.35.48c-.84 0-.87-1.02-.9-1.68l-.72.06a6.66 6.66 0 0 0-.18 1.29c0 1.62 1.86 3.99 2.85 3.99.27 0 .33-.09.99-.96 2.13 1.59 2.67 2.34 2.97 3.99.18.93.39 1.23.78 1.23.57 0 2.79-1.41 2.79-3.27 0-.33-.09-2.01-.12-2.37-.09-1.68-.12-2.46-.12-4.29a15.187 15.187 0 0 1 7.5-2.49c2.46 0 4.47 1.5 4.47 4.23 0 2.88-1.86 4.8-4.98 4.8-1.59 0-2.85-.63-4.62-1.59l-.39.6c1.2.99 3.78 3.03 7.02 3.03a5.835 5.835 0 0 0 6.18-6.03c0-3.75-2.73-6.48-7.41-6.48a22.2 22.2 0 0 0-7.77 1.92c.06-2.19.09-2.85.3-5.19l3.78-.78c1.56-.3 2.25-.45 2.25-1.11 0-.78-1.29-1.89-2.13-1.89-.21 0-.27.03-.78.36a9.708 9.708 0 0 1-2.79.93 28.059 28.059 0 0 1 .45-2.82 6.656 6.656 0 0 0 .6-1.23c0-.57-1.86-1.89-6-1.95l-.12.78c1.68.27 2.4.66 2.4 2.25 0 .87-.09 2.55-.15 3.51a23.234 23.234 0 0 1-3.21.36 3.5 3.5 0 0 1-1.26-.3c-.42-.18-.66-.39-1.17-1.2Zm14.91-1.68a11.154 11.154 0 0 1 4.65 3.33l-2.55 1.11c-.21.09-.72.33-1.08.48l.21.69a13.577 13.577 0 0 1 3.57-.54 4.2 4.2 0 0 1 1.71.42 4.974 4.974 0 0 0 1.05.54 1.294 1.294 0 0 0 1.05-1.38 4.322 4.322 0 0 0-1.14-2.55c-2.07-2.34-5.82-2.64-7.29-2.76Zm26.19 5.04h-6.12v-6.75h6.12Zm-10.32 17.52c6.03-4.71 6.84-9.36 7.2-11.94h3.33c-.12 2.88-.24 6.27-1.29 8.49h-4.29l.03.66c1.71.15 2.49.48 2.55 1.47.03.87.06 1.23.75 1.23.36 0 1.38-.27 1.47-.27a3.519 3.519 0 0 0 2.43-1.44c.78-1.26 1.11-3.9 1.35-7.23l.18-2.01c.75-.33 1.05-.45 1.05-.81 0-.24-.21-.45-.57-.66l-2.79-1.77-.96 1.53h-3.15c.09-.78.12-1.11.18-2.4l.06-1.53h2.79v1.05l3.24-.54v-7.26c.51-.18 1.05-.39 1.05-.75 0-.24-.36-.51-.51-.6l-2.97-1.95-1.02 1.62h-5.91l-3.15-1.59v11.49l3.12-.6c-.36 9.78-2.52 12.69-4.62 15.3Zm22.38-26.55v22.89h-4.59v.75c1.44.09 2.79.18 2.88 1.44.06 1.05.09 1.29.84 1.29a8.707 8.707 0 0 0 2.79-.69 2.4 2.4 0 0 0 1.35-2.22v-21.57c.51-.21 1.11-.48 1.11-.9 0-.3-.48-.51-.93-.57Zm-6.24 2.76v16.32l3.15-.51v-14.01c.75-.36 1.05-.51 1.05-.84s-.42-.51-.75-.57Zm20.73 15.6c1.44-2.16 1.71-2.55 2.64-3.75 0 .54-.03 1.8-.03 2.28v3.69c-.75-.63-.84-.72-1.68-1.44Zm.57-17.49c2.04.33 2.46.39 2.46 2.07 0 .63-.06 2.28-.12 3.18a12.64 12.64 0 0 1-3.48.99c-1.2 0-1.65-1.2-1.83-1.74l-.69.15a5.031 5.031 0 0 0 1.26 3.51c.18.21.93 1.02 1.44 1.02.27 0 .33-.09 1.05-.72a10.62 10.62 0 0 1 2.19-1.2l-.12 2.85c-2.1 2.7-4.77 5.79-5.43 6.39-.57.57-.87.81-.87 1.35a4.869 4.869 0 0 0 .69 2.01.891.891 0 0 0 .75.33.819.819 0 0 0 .72-.39c.27-.45.72-1.2 1.02-1.65 1.41 1.77 2.55 3.33 2.64 4.53l.06 1.02c.06.75.33.87.69.87 1.11 0 2.37-1.65 2.37-2.73 0-.24-.12-1.44-.15-1.71-.09-1.86-.09-5.04-.09-6.93 0-.75 0-1.23.06-2.28a27.474 27.474 0 0 1 4.89-4.14c1.08-.75 2.73-1.77 3.87-1.77 1.83 0 1.92 1.5 1.92 2.82 0 .36-.63 8.88-.63 10.56 0 1.29.06 4.65 3.39 4.65 3.51 0 4.59-3.72 4.86-4.65l-.66-.33c-.45.84-1.38 2.58-2.85 2.58-1.59 0-1.59-1.83-1.59-3.06a57.6 57.6 0 0 1 .42-6.27 47.311 47.311 0 0 0 .42-4.92c0-2.34-1.41-3.36-3.51-3.36-2.79 0-6.42 2.28-10.41 6.12 0-.48.03-.69.06-1.47a14.161 14.161 0 0 1 1.89-1.71c.33-.24.39-.39.39-.54a2.627 2.627 0 0 0-1.5-1.59c-.15 0-.21.03-.69.33a5.418 5.418 0 0 1 .84-2.64.986.986 0 0 0 .21-.48c0-.6-1.86-1.89-4.17-1.89a16.859 16.859 0 0 0-1.8.12Zm40.41 2.85a4.289 4.289 0 0 1 .81 2.28c0 1.35-1.62 7.29-4.5 12.15-.36.63-.69 1.02-1.14 1.02-1.41 0-3.03-2.79-3.03-5.67a10.025 10.025 0 0 1 7.86-9.75Zm1.35 20.49c3.54-.3 12.75-1.23 12.75-11.16 0-6.78-4.77-10.98-11.49-10.98-7.65 0-13.17 5.55-13.17 12.18a9.141 9.141 0 0 0 2.61 6.84 5.557 5.557 0 0 0 3.42 1.89c1.59 0 3.3-3.21 3.81-4.23 1.92-3.72 3.72-8.7 3.72-11.61 0-1.95-.54-2.43-1.92-3.6.3-.03.96-.09 1.44-.09 3.78 0 8.43 2.46 8.43 8.79a11.1 11.1 0 0 1-2.04 6.48c-2.13 2.94-5.19 3.93-7.74 4.71Zm31.86-25.53c-3.06 5.07-6.39 9.21-12.15 12.6l.3.6a28.937 28.937 0 0 0 13.89-10.08 24.512 24.512 0 0 0 10.89 9.87c.6-1.65.96-2.01 2.28-2.61l.15-.66c-4.26-1.2-8.4-2.58-12.54-7.14 1.14-.36 1.26-.39 1.26-.69a.611.611 0 0 0-.39-.45Zm-5.52 10.86.39.81h13.32v-.69l-2.61-2.01-1.68 1.89Zm-6.03 5.61.39.81h7.74l-.3 1.32c-.6 2.82-.84 3.57-1.14 4.62l-1.95.03c-1.08.03-2.61.06-3.45.09l1.53 3.63a.646.646 0 0 0 .51.42c.33 0 .63-.63.81-.93 1.83-.3 10.89-1.71 12.93-2.07l2.61-.48.36.69.63 1.44a1.9 1.9 0 0 0 1.74 1.38 1.905 1.905 0 0 0 1.77-2.1 3.935 3.935 0 0 0-1.5-2.88 14.1 14.1 0 0 0-6.87-3.33l-.27.6 2.04 1.59a13.418 13.418 0 0 1 1.41 1.59l-1.56.06c-.54 0-.9 0-1.56.03l-4.68.15c-.18 0-1.02.03-1.29.03l-1.32.03c1.95-3.03 2.43-3.87 3.57-5.91h13.71v-.69l-2.94-2.4-1.86 2.28Z" fill="#fff"/><path data-name="長方形 2757" fill="#004b35" d="M0 728h271v73H0z"/><path data-name="パス 4080" d="M108.65 769.645a28.594 28.594 0 0 0 4.14-2.85v11.85l3.3-.63v-12.87a6.072 6.072 0 0 1 1.95 2.67c.21.48.75 1.59 1.92 1.59a1.483 1.483 0 0 0 1.35-1.56 2.94 2.94 0 0 0-.78-1.83c-.93-.96-2.7-1.35-4.44-1.71v-.33a36.9 36.9 0 0 0 4.38-5.31c.9-.06 1.38-.09 1.38-.48 0-.06-.03-.3-.12-.36l-3.3-2.34-1.11 1.59h-1.2v-4.08c.81-.39 1.11-.54 1.11-.81 0-.33-.54-.42-.75-.45l-3.69-.33v5.67h-4.17l.27.81h8.13a39.519 39.519 0 0 1-8.88 11.22Zm16.02-18.15v9.93h-5.7l.42.84h5.28v13.77h-6.96l.3.84h17.91v-.69l-2.97-2.37-1.83 2.22h-3.03v-13.77h7.17v-.69l-3.03-2.28-1.8 2.13h-2.34v-8.1c.93-.39 1.29-.54 1.29-.9s-.63-.45-.78-.48Zm27.75 10.14a28.9 28.9 0 0 1-2.19 2.52c-.48-.84-.75-1.11-2.46-1.38.54-.45.75-.6 1.35-1.14Zm15.75-2.91v-.63l-2.7-2.07-1.62 1.89h-21.51l.36.81h5.61a24.256 24.256 0 0 1-6.12 6.54l.3.48a22.9 22.9 0 0 0 4.38-2.31 2.475 2.475 0 0 1 .84 1.08 7.678 7.678 0 0 0 .66 1.32 23.983 23.983 0 0 1-6.45 3.78l.18.6c7.23-1.92 9.75-3.96 13.74-7.83.51-.03.57-.03.69-.15v3.6a1.906 1.906 0 0 0 1.92 2.01h7.62c1.86 0 2.25-1.35 2.52-2.37-1.35-.21-1.65-.96-1.53-2.7h-.6l-.39 1.32c-.21.75-.36 1.14-1.2 1.14h-4.2c-.69 0-.96-.12-.96-.84v-1.11a61.916 61.916 0 0 0 6.3-1.23 2.571 2.571 0 0 0 .72.12c.24 0 .39-.09.39-.33a.5.5 0 0 0-.18-.42l-2.49-2.07a30.931 30.931 0 0 1-4.74 3.3v-1.86c.75-.3 1.11-.42 1.11-.75 0-.27-.42-.42-.72-.45l-3.57-.33v2.28l-2.55-1.98-1.29 1.26h-2.64c.63-.63.93-.93 2.01-2.1Zm-18.69-7.56v3.06h-7.71l.33.81h7.38v2.34l3.21-.57v-1.77h4.59v2.28l3.24-.57v-1.71h8.25v-.6l-2.73-2.16-1.71 1.95h-3.81v-1.38c1.02-.48 1.11-.51 1.11-.81s-.45-.42-.69-.42l-3.66-.3v2.91h-4.59v-1.53c.75-.33 1.11-.48 1.11-.78 0-.27-.42-.39-.63-.42Zm11.7 20.01v-1.35c.66-.3 1.11-.48 1.11-.81 0-.3-.48-.42-.69-.42l-3.66-.3v2.88h-4.77v-1.56c.6-.21 1.02-.39 1.02-.81 0-.24-.24-.45-.57-.51l-3.72-.3v3.18h-8.25l.33.81h7.83c-.54 4.05-3.6 5.07-6.54 5.82l.12.66c2.19-.24 5.22-.57 7.62-2.43a5.165 5.165 0 0 0 2.1-4.05h4.83v6.33l3.24-.54v-5.79h7.74v-.63l-2.88-2.25-1.71 2.07Z" fill="#fff"/><path data-name="パス 4071" d="m278.5 218.5 22.228-25.5h-44.456Z" fill="#461c00"/><path data-name="長方形 2758" fill="#461c00" d="M123 459h26v90h-26z"/><path data-name="パス 4072" d="m136.5 569.5 22.228-25.5h-44.456Z" fill="#461c00"/><path data-name="長方形 2759" fill="#461c00" d="M433 459h26v90h-26z"/><path data-name="パス 4073" d="m446.5 569.5 22.228-25.5h-44.456Z" fill="#461c00"/><path data-name="長方形 2760" fill="#461c00" d="M123 645h26v68h-26z"/><path data-name="パス 4074" d="m136.5 733.5 22.228-25.5h-44.456Z" fill="#461c00"/><path data-name="長方形 2761" fill="#461c00" d="M433 645h26v68h-26z"/><path data-name="パス 4075" d="m446.5 733.5 22.228-25.5h-44.456Z" fill="#461c00"/><path data-name="長方形 2762" fill="#461c00" d="M620 108h26v90h-26z"/><path data-name="パス 4076" d="m633.5 218.5 22.228-25.5h-44.456Z" fill="#461c00"/><path data-name="長方形 2763" fill="#461c00" d="M265 266h26v68h-26z"/><path data-name="パス 4077" d="m278.5 355.5 22.228-25.5h-44.456Z" fill="#461c00"/><path data-name="長方形 2764" fill="#461c00" d="M620 266h26v68h-26z"/><path data-name="パス 4078" d="m633.5 355.5 22.228-25.5h-44.456Z" fill="#461c00"/></svg>