<svg xmlns="http://www.w3.org/2000/svg" width="325.157" height="519.579" viewBox="0 0 325.157 519.579">
  <g id="グループ_1716" data-name="グループ 1716" transform="translate(-827.951 -11184.085)">
    <g id="グループ_1715" data-name="グループ 1715">
      <path id="パス_3975" data-name="パス 3975" d="M1135.994,11194.862a13,13,0,0,1,3.24,1.271,1.791,1.791,0,0,1,1.1,1.681c0,.6-.24,1.152-.528,1.152a1.556,1.556,0,0,1-.264-.145c-.145-.12-.168-.144-.6-.792a10.537,10.537,0,0,0-2.952-2.736v5.16c.025,4.393.025,4.393.072,5.521-.072.313-.263.408-.864.408h-.311c-.361,0-.456-.048-.529-.24,0-.264.025-2.111.073-5.568v-4.176a20.08,20.08,0,0,1-3.793,3.048l-.264-.36a22.722,22.722,0,0,0,4.009-4.248,24.825,24.825,0,0,0,2.952-4.92h-4.825a12.7,12.7,0,0,0-1.7.119l-.168-.888a8.936,8.936,0,0,0,1.872.216h1.921v-2.52a8.136,8.136,0,0,0-.193-2.089c.529.048.937.1,1.2.12,1.153.1,1.464.168,1.464.408,0,.192-.191.313-.912.552v3.528h1.345c.479-.552.647-.7,1.151-1.2.649.528.841.7,1.417,1.2.216.24.264.313.264.385,0,.191-.12.239-1.2.479a26.657,26.657,0,0,1-2.977,4.394Zm4.993-1.225a15,15,0,0,0-1.921.168l-.191-.912a10.107,10.107,0,0,0,2.112.192h3.409v-5.425a20.151,20.151,0,0,0-.168-3c.5.072,1.007.12,1.248.144,1.248.12,1.536.217,1.536.433,0,.192-.265.36-.96.624v7.225h2.471l1.393-1.8c1.008.84,1.319,1.1,2.28,1.992a.409.409,0,0,1,.1.168.237.237,0,0,1-.24.191h-6v10.873h2.927c.649-.792.865-1.056,1.609-1.872a30.1,30.1,0,0,1,2.232,2.088.31.31,0,0,1,.119.168c0,.1-.119.169-.239.169h-12.554a11.631,11.631,0,0,0-2.28.167l-.216-.912a17.211,17.211,0,0,0,2.5.192h4.25v-10.873Z" fill="#333"/>
      <path id="パス_3976" data-name="パス 3976" d="M1144.659,11225.607a15.8,15.8,0,0,0,4.368-2.856c1.729.936,2.04,1.128,2.04,1.3,0,.145-.168.216-.456.216-.095,0-.551-.023-.863-.023a23.663,23.663,0,0,1-5.089,1.8v1.368c0,.336.048.408.288.456.168.024,1.321.072,1.968.072.217,0,.576,0,1.2-.024h.985c.912,0,1.032-.023,1.175-.264a23.494,23.494,0,0,0,1.08-2.664l.289.023-.144,1.9v.552c0,.12,0,.12.432.288a.584.584,0,0,1,.5.576c0,.792-.648.912-5.113.912-3.864,0-4.08-.072-4.128-1.3v-6.145h-4.944a12.126,12.126,0,0,1-1.465,1.92h3.385c.408-.384.528-.48.96-.84.552.432.72.552,1.248.984.168.144.216.216.216.287,0,.145-.12.192-.936.456a12.755,12.755,0,0,1-5.137,4.681,21.55,21.55,0,0,1-5.568,1.992l-.12-.384a21.491,21.491,0,0,0,6.24-3.217c-.191-.023-.239-.071-.384-.264a6.526,6.526,0,0,0-1.847-1.872,14.234,14.234,0,0,1-3.7,2.28l-.216-.337a16.966,16.966,0,0,0,3.816-3.359,13.206,13.206,0,0,0,1.7-2.328h-2.807a8.879,8.879,0,0,0-2.04.144l-.169-.936a9.3,9.3,0,0,0,2.209.239h15.289c.624-.672.816-.888,1.464-1.535.912.743,1.176.983,2.064,1.752a.467.467,0,0,1,.1.191c0,.1-.1.145-.264.145h-7.633Zm-.816-7.633a.908.908,0,0,1,.024-.192,11.835,11.835,0,0,0-.12-2.016c2.065.216,2.664.336,2.664.552,0,.168-.191.264-1.008.48-.024.912-.024.912-.024,1.176h3.7c.673-.72.889-.937,1.536-1.584.961.768,1.273,1.008,2.257,1.8a.476.476,0,0,1,.1.192c0,.1-.1.144-.24.144h-7.345c0,.5,0,.721.024,1.368-.024.288-.24.336-1.32.336-.24,0-.288-.048-.288-.216.024-.768.048-1.032.048-1.488h-4.609v.288l-.023.433c0,.144.023.312.048.624,0,.144-.025.192-.1.239a4.069,4.069,0,0,1-1.3.12c-.143,0-.216-.048-.239-.191.048-.816.071-1.08.071-1.513h-4.584a10.76,10.76,0,0,0-1.92.12l-.168-.864a8.679,8.679,0,0,0,2.088.192h4.584a6.711,6.711,0,0,0,.025-.672,10.915,10.915,0,0,0-.1-1.536c.5.071.936.12,1.2.144,1.152.12,1.416.192,1.416.408,0,.168-.217.264-1.009.48v1.176Zm-6,13.777a10.642,10.642,0,0,0,.072-1.177,5.249,5.249,0,0,0-.1-1.031c.5.071.889.145,1.153.168,1.032.144,1.44.264,1.44.432s-.12.216-.889.48c-.071.72-.071.815-.12,1.128h4.441a14.553,14.553,0,0,0-.1-2.017c2.305.216,2.5.24,2.5.456,0,.168-.048.192-.84.528v1.032h3.672c.649-.744.841-.96,1.488-1.608.985.744,1.273.984,2.208,1.8a.469.469,0,0,1,.1.192c0,.072-.12.168-.216.168h-7.273v1.464c0,.6,0,.744.049,3.528a.226.226,0,0,1-.12.216,4.417,4.417,0,0,1-1.273.145c-.216,0-.288-.072-.288-.264.072-1.608.1-2.28.1-3.5v-1.584h-4.512a5.144,5.144,0,0,1-1.608,3.265c-1.489,1.319-3.529,2.063-6.481,2.376l-.1-.36c2.808-.7,4.224-1.344,5.256-2.424a5.141,5.141,0,0,0,1.345-2.856h-4.369a8.4,8.4,0,0,0-1.872.144l-.168-.863a8.552,8.552,0,0,0,2.04.168Zm-1.584-7.489c-.456.456-.7.673-1.177,1.08a7.85,7.85,0,0,1,1.488.408c.817.313,1.08.528,1.08.938a1.316,1.316,0,0,1-.191.694,12.09,12.09,0,0,0,2.712-3.12Z" fill="#333"/>
      <path id="パス_3977" data-name="パス 3977" d="M1141.563,11266.552a10.916,10.916,0,0,0,5.617-3.336,8.537,8.537,0,0,0,2.135-5.784,5.954,5.954,0,0,0-2.711-5.3,7.926,7.926,0,0,0-4.153-1.1,5.433,5.433,0,0,0-.84.049,3.131,3.131,0,0,1,.744,1.992c0,1.872-1.344,5.376-3.168,8.3-1.512,2.4-2.689,3.576-3.577,3.576a1.39,1.39,0,0,1-1.055-.5,4.688,4.688,0,0,1-.673-1.536,14.966,14.966,0,0,0-1.056-2.257,4.607,4.607,0,0,1-.552-2.184,7.5,7.5,0,0,1,2.161-4.753,11.636,11.636,0,0,1,8.256-3.36,9.122,9.122,0,0,1,6.193,2.208,7.328,7.328,0,0,1,2.3,5.641,8.268,8.268,0,0,1-4.777,7.272,14.292,14.292,0,0,1-4.681,1.488Zm-7.9-7.464a5.617,5.617,0,0,0,.96,3.168c.336.433.648.7.912.7.528,0,1.681-1.3,2.857-3.169,1.776-2.832,3.048-5.928,3.048-7.416a2.668,2.668,0,0,0-.337-1.2C1136.931,11251.911,1133.666,11255.392,1133.666,11259.088Z" fill="#333"/>
      <path id="パス_3978" data-name="パス 3978" d="M1149.268,11294.7c.6-.72.792-.937,1.416-1.584.96.72,1.248.96,2.184,1.777a.531.531,0,0,1,.1.215c0,.072-.1.144-.24.144H1142.5v.168a2.837,2.837,0,0,1-.024.385v.407c0,.673.024,1.032.072,3.625-.024.24-.192.312-.84.336-.264,0-.456.023-.552.023h-.049c-.191,0-.263-.048-.263-.216.048-2.88.048-2.88.048-4.729h-7.633a14.27,14.27,0,0,0-2.016.1l-.144-.841a10.691,10.691,0,0,0,2.184.192h7.609v-.528c0-1.2,0-1.3-.024-1.992,2.28.217,2.472.24,2.472.48,0,.168-.168.264-.84.5v1.536Zm-17.906-12.409a16.354,16.354,0,0,1,2.617,1.008c.5.265.647.48.647.937,0,.7-.239,1.248-.552,1.248-.168,0-.263-.1-.456-.384a9.958,9.958,0,0,0-2.376-2.545Zm.384,5.736c.481.072,1.536.216,1.632.216.288,0,.385-.1.912-.96,1.273-2.136,1.273-2.136,2.257-3.888.695-1.248,1.176-2.112,1.464-2.616l.336.144-3.336,7.44a2.059,2.059,0,0,0-.24.841,2.591,2.591,0,0,0,.335,1.1,3.823,3.823,0,0,1,.384,1.561,1.6,1.6,0,0,1-1.464,1.488c-.36,0-.551-.168-.551-.5,0-.049.023-.288.071-1.009.024-.5.048-.936.048-1.176a2.064,2.064,0,0,0-.48-1.561c-.263-.264-.384-.336-1.44-.744Zm1.416-9.36c2.761.888,3.288,1.248,3.288,2.184,0,.624-.239,1.177-.527,1.177-.145,0-.217-.1-.408-.384a10.322,10.322,0,0,0-2.449-2.713Zm15.386,6.024c.5-.6.647-.792,1.151-1.32.817.648,1.08.84,1.9,1.536a.421.421,0,0,1,.1.192c0,.1-.1.144-.191.144h-5.545v2.425h2.473c.551-.6.719-.792,1.271-1.345.864.672,1.1.889,1.945,1.584.072.1.1.145.1.192,0,.072-.1.12-.217.12h-5.568v2.641h3.385c.527-.625.672-.816,1.2-1.393.84.672,1.08.888,1.92,1.632.072.1.1.145.1.192,0,.072-.073.12-.241.12h-11.64v.552a.21.21,0,0,1-.144.216,4.3,4.3,0,0,1-1.129.145c-.191,0-.263-.072-.263-.264.048-2.257.048-2.257.048-7.945a17.779,17.779,0,0,1-2.592,2.616l-.241-.192a24.624,24.624,0,0,0,3.433-5.352,17.166,17.166,0,0,0,1.248-3c1.968.648,2.4.84,2.4,1.057,0,.192-.241.288-.769.288h-.216c-.648,1.056-.864,1.368-1.44,2.184h3.6a16.514,16.514,0,0,0,1.489-3.456c.431.144.767.24.983.313,1.177.384,1.417.5,1.417.7s-.265.265-1.057.313l-2.208,2.136h4.1a16.383,16.383,0,0,1,1.2-1.344c.792.624,1.056.84,1.872,1.536a.5.5,0,0,1,.12.216c0,.1-.1.146-.217.146h-6.36v2.423Zm-4.032,0v-2.423h-3.841v2.423Zm0,2.977v-2.425h-3.841v2.425Zm-3.841,3.192h3.841v-2.641h-3.841Z" fill="#333"/>
      <path id="パス_3979" data-name="パス 3979" d="M1130.33,11321.223a33.492,33.492,0,0,0,3.288-6.216,19.414,19.414,0,0,0,1.513-5.617c2.351.624,2.567.7,2.567.937,0,.216-.239.312-.912.384a35.045,35.045,0,0,1-2.88,6.337c1.153.144,1.536.264,1.536.479,0,.145-.143.288-.624.5v4.753l.025,7.9v.072c0,.359-.288.479-1.153.479-.408,0-.5-.048-.5-.312.071-1.849.071-2.473.071-4.393v-8.4a20.859,20.859,0,0,1-2.592,3.384Zm4.8,9.121c1.584-3.528,2.015-6.024,2.015-12a20.047,20.047,0,0,0-.143-3.5,8.922,8.922,0,0,1,1.943,1.057h10.61c.576-.672.767-.864,1.343-1.512a21.289,21.289,0,0,1,1.849,1.752c.1.1.12.144.12.191,0,.1-.072.12-.264.12h-13.849a39.24,39.24,0,0,1-.576,8.064,13.327,13.327,0,0,1-2.737,6.025Zm10.656-17.953v-1.345c0-.408,0-.768-.048-1.416,2.017.264,2.449.36,2.449.624,0,.192-.313.36-.865.456v1.681h1.92l1.177-1.537a22.618,22.618,0,0,1,1.92,1.705c.1.1.143.168.143.239,0,.1-.1.145-.336.145h-4.8c0,.984,0,.984.023,1.9v.12c0,.24-.384.36-1.2.36-.336,0-.432-.072-.432-.312.025-1.153.025-1.368.025-2.064h-3.193c.024,1.008.024,1.656.048,1.944v.071c0,.265-.384.385-1.176.385-.337,0-.48-.071-.48-.265v-.048c.024-1.1.024-1.392.048-2.088h-2.04a8.207,8.207,0,0,0-1.872.144l-.193-.936a11.211,11.211,0,0,0,2.089.24h2.016c0-1.513-.024-1.9-.073-2.761a17.065,17.065,0,0,1,2.209.408c.192.072.289.168.289.264,0,.192-.217.313-.865.48v1.608Zm.24,13.225c.073,4.225.073,4.225.073,4.536a.3.3,0,0,1-.1.265,2.963,2.963,0,0,1-1.056.168c-.312,0-.431-.072-.431-.288,0-.648.023-2.185.047-4.681H1141.4v4.824c0,.385-.216.48-1.128.48-.384,0-.48-.072-.48-.312,0-.84,0-.84.1-3.792v-.96c0-5.9-.025-7.129-.1-8.329.792.36,1.032.48,1.776.889h7.609c.311-.385.432-.5.767-.889.672.456.865.6,1.464,1.032.145.12.217.216.217.288,0,.145-.144.264-.721.624v5.593c.048,3.384.048,3.384.073,4.32a1.073,1.073,0,0,1-.264.888c-.312.313-.648.433-1.944.672-.145-.647-.241-.792-.576-.983a5.013,5.013,0,0,0-1.489-.408l.048-.384a21.374,21.374,0,0,0,2.377.144c.191-.023.216-.048.216-.288v-3.408Zm-1.464-6.648h-3.144v2.736h3.144Zm0,3.288h-3.144v2.809h3.144Zm4.777-.552v-2.736h-3.313v2.736Zm-3.313,3.36h3.313v-2.809h-3.313Z" fill="#333"/>
      <path id="パス_3980" data-name="パス 3980" d="M1137.339,11351.8c-.048.216-.408,1.729-1.08,4.513a9.436,9.436,0,0,0-.408,2.544,3.479,3.479,0,0,1-.073,1.032.589.589,0,0,1-.576.408c-.408,0-.767-.336-1.032-.984a14.243,14.243,0,0,1-.84-5.112,21.622,21.622,0,0,1,.192-2.568,36.73,36.73,0,0,1,.84-4.536,11.162,11.162,0,0,0,.336-2.232,4.268,4.268,0,0,0-.672-2.256c.529.023.96.336,1.609,1.176a3.244,3.244,0,0,1,.887,1.9c0,.385-.024.479-.5,1.44a20.257,20.257,0,0,0-1.3,3.815,13.108,13.108,0,0,0-.313,2.977,9.094,9.094,0,0,0,.456,3.168,18.723,18.723,0,0,0,.864-2.04l1.273-3.36Zm3.024,1.2a9.062,9.062,0,0,0-.072,1.008c0,2.641,1.512,3.721,5.232,3.721a11.308,11.308,0,0,0,2.04-.168,3.765,3.765,0,0,0,1.273-.384,1.184,1.184,0,0,1,.359-.072,1.848,1.848,0,0,1,1.513,1.416c0,.288-.192.48-.528.6a12.081,12.081,0,0,1-3,.264c-3,0-5.137-.5-6.217-1.464a3.988,3.988,0,0,1-1.3-3.12,6.473,6.473,0,0,1,.288-1.9Zm-.049-7.633a3.763,3.763,0,0,0,2.233.648,12.748,12.748,0,0,0,4.824-1.08c.313-.168.36-.192.528-.192a1.824,1.824,0,0,1,.84.336c.5.288.744.576.744.889s-.168.456-.671.552a13.79,13.79,0,0,0-3.409.84,24.471,24.471,0,0,0-3.1,1.705l-.24-.24c1.08-.912,1.9-1.585,2.281-1.873-.505.024-.769.049-.985.049a4.229,4.229,0,0,1-3.264-1.345Z" fill="#333"/>
      <path id="パス_3981" data-name="パス 3981" d="M1137.41,11383c-.431,1.513-1.1,4.129-1.391,5.3a8.165,8.165,0,0,0-.313,2.04c-.023.769-.048.864-.168,1.057a.543.543,0,0,1-.456.264c-.407,0-.744-.336-1.032-1.08a14.214,14.214,0,0,1-.768-4.824,35.421,35.421,0,0,1,1.08-7.993,10.477,10.477,0,0,0,.361-2.16,3.738,3.738,0,0,0-.7-2.112c.552.024,1.008.336,1.68,1.2a3.406,3.406,0,0,1,.864,1.824c0,.265,0,.265-.383,1.057a18.746,18.746,0,0,0-1.825,7.824,9.527,9.527,0,0,0,.384,2.977l1.009-2.4,1.3-3.1Zm2.4-4.344a4.988,4.988,0,0,0,3.1.983,12.906,12.906,0,0,0,2.737-.336v-1.056c0-2.688-.025-3-.336-3.337a2.454,2.454,0,0,0-1.585-.552,1.332,1.332,0,0,1,1.152-.384,7.058,7.058,0,0,1,1.633.216c.695.216,1.055.5,1.055.864,0,.168,0,.192-.215.744a10.716,10.716,0,0,0-.5,3.216,5.813,5.813,0,0,0,2.208-.983c.24-.24.311-.265.528-.265a2.854,2.854,0,0,1,1.128.313.514.514,0,0,1,.312.432c0,.528-1.752,1.248-4.249,1.729a47.485,47.485,0,0,0,.312,6.528c2.784.744,3.961,1.68,3.961,3.072,0,.5-.216.888-.481.888-.191,0-.359-.119-.839-.6a7.4,7.4,0,0,0-2.592-1.92,5.226,5.226,0,0,1,.023.576c0,1.728-1.44,2.76-3.84,2.76-2.088,0-3.552-1.008-3.552-2.448,0-1.656,1.776-2.712,4.512-2.712.456,0,.792.023,1.464.071v-.407l-.048-2.569-.024-3.071a10.671,10.671,0,0,1-2.112.191,4.776,4.776,0,0,1-3.96-1.68Zm3.672,8.761c-1.9,0-3.072.624-3.072,1.68,0,.84.936,1.416,2.352,1.416,1.32,0,2.257-.384,2.64-1.128a3.005,3.005,0,0,0,.312-1.68A7.739,7.739,0,0,0,1143.483,11387.416Z" fill="#333"/>
      <path id="パス_3982" data-name="パス 3982" d="M1147.155,11403.326a21.8,21.8,0,0,1,4.681,2.3,2.421,2.421,0,0,1,1.272,2.088c0,.816-.432,1.608-.888,1.608a.855.855,0,0,1-.312-.145c-.168-.144-.168-.144-1.224-1.728a18.765,18.765,0,0,0-3.7-3.816Z" fill="#333"/>
      <path id="パス_3983" data-name="パス 3983" d="M1084.016,11187.062c.431-.5.551-.648,1.007-1.128.769.576,1.008.744,1.777,1.295.12.121.168.192.168.265,0,.216-.384.384-1.321.576a24.5,24.5,0,0,1-7.392,7.32,23.54,23.54,0,0,1-7.488,3.145l-.1-.336a29.165,29.165,0,0,0,7.729-4.345,22.419,22.419,0,0,0,5.617-6.24h-5.233a21.168,21.168,0,0,1-2.232,2.16,11.472,11.472,0,0,1,2.208,1.152,1.167,1.167,0,0,1,.553.96c0,.5-.385,1.176-.7,1.176-.168,0-.24-.1-.384-.359-.12-.217-.576-1.032-.84-1.44a3.793,3.793,0,0,0-1.152-1.248,19.856,19.856,0,0,1-5.136,3.072l-.168-.264a26,26,0,0,0,5.544-4.705,12.2,12.2,0,0,0,2.544-4.032,24.1,24.1,0,0,1,2.376.84c.121.049.168.12.168.192a.351.351,0,0,1-.072.168.986.986,0,0,1-.36.12,2.9,2.9,0,0,0-.648.192c-.528.672-.7.863-1.224,1.464Zm-.985,8.5a22.687,22.687,0,0,1-2.183,1.921c1.128.647,1.8,1.056,2.015,1.2.672.5.84.768.84,1.319s-.432,1.345-.744,1.345c-.119,0-.191-.1-.312-.336-.144-.312-.671-1.3-.984-1.824a6.377,6.377,0,0,0-1.128-1.464,26.442,26.442,0,0,1-6.648,3.527l-.145-.287c4.753-2.616,8.354-5.809,9.961-8.881,1.776.456,2.28.647,2.28.863s-.288.385-1.08.553c-.6.7-.792.912-1.343,1.512h5.136a10.058,10.058,0,0,1,1.152-1.1c.792.552,1.032.72,1.776,1.271.1.072.145.12.145.192,0,.168,0,.168-1.273.6a18.292,18.292,0,0,1-3.841,4.681,21,21,0,0,1-8.928,4.7,44.929,44.929,0,0,1-5.424,1.032l-.12-.359a35.492,35.492,0,0,0,9.528-3.457,20.2,20.2,0,0,0,5.425-4.608,16.111,16.111,0,0,0,1.56-2.4Z" fill="#333"/>
      <path id="パス_3984" data-name="パス 3984" d="M1081.016,11216.391a5.057,5.057,0,0,1,2.664,1.271c.383.385.527.624.527.96,0,.313-.119.456-1.392,1.488a60.091,60.091,0,0,0-4.416,4.152c-.84.937-1.152,1.488-1.152,1.944a2.009,2.009,0,0,0,.72,1.248,22.833,22.833,0,0,0,1.68,1.584c2.617,2.425,3.84,3.769,4.416,4.9a3.091,3.091,0,0,1,.361,1.584c0,.912-.313,1.44-.817,1.44-.311,0-.408-.12-.816-.984a22.631,22.631,0,0,0-2.016-3.384,44.235,44.235,0,0,0-3.5-4.345,3.123,3.123,0,0,1-.913-2.016c0-.769.385-1.416,1.849-3.217,2.9-3.528,3.624-4.536,3.624-5.112,0-.408-.311-.768-1.32-1.416A1.114,1.114,0,0,1,1081.016,11216.391Z" fill="#333"/>
      <path id="パス_3985" data-name="パス 3985" d="M1080.967,11266.552a10.911,10.911,0,0,0,5.617-3.336,8.538,8.538,0,0,0,2.136-5.784,5.955,5.955,0,0,0-2.712-5.3,7.927,7.927,0,0,0-4.153-1.1,5.414,5.414,0,0,0-.839.049,3.137,3.137,0,0,1,.744,1.992c0,1.872-1.345,5.376-3.169,8.3-1.512,2.4-2.689,3.576-3.576,3.576a1.393,1.393,0,0,1-1.056-.5,4.687,4.687,0,0,1-.673-1.536,14.869,14.869,0,0,0-1.056-2.257,4.618,4.618,0,0,1-.551-2.184,7.5,7.5,0,0,1,2.16-4.753,11.637,11.637,0,0,1,8.257-3.36,9.119,9.119,0,0,1,6.192,2.208,7.329,7.329,0,0,1,2.3,5.641,8.268,8.268,0,0,1-4.777,7.272,14.285,14.285,0,0,1-4.68,1.488Zm-7.9-7.464a5.624,5.624,0,0,0,.96,3.168c.336.433.649.7.912.7.529,0,1.681-1.3,2.857-3.169,1.776-2.832,3.049-5.928,3.049-7.416a2.681,2.681,0,0,0-.337-1.2C1076.335,11251.911,1073.07,11255.392,1073.07,11259.088Z" fill="#333"/>
      <path id="パス_3986" data-name="パス 3986" d="M1086.031,11293.287h2.377c.7-.72.912-.937,1.608-1.632,1.008.744,1.32.983,2.328,1.823.072.072.1.12.1.169a.206.206,0,0,1-.168.191h-6.241v1.992c.025,1.752.025,1.752.025,2.425-.1,1.056-.6,1.392-2.712,1.728-.265-.7-.481-.96-.96-1.152a6.869,6.869,0,0,0-1.368-.312c-.649-.12-.649-.12-1.153-.24v-.312l1.489.071c.983.049,1.7.072,2.112.072h.743c.169-.048.217-.1.217-.288v-3.984h-11.281c-.6,0-1.3.024-2.9.1l-.168-.816a28.473,28.473,0,0,0,3.073.168h11.281v-2.376h-9.361v.84c-.024.264-.168.336-.84.36-.193,0-.336.023-.384.023h-.072a.419.419,0,0,1-.432-.264c.071-1.393.1-2.544.1-5.041,0-1.92-.025-2.687-.1-4.176.84.384,1.08.528,1.92.984h4.752v-2.257h-6.193c-1.08,0-2.28.048-3.12.12l-.24-.864a22.74,22.74,0,0,0,3.456.192h6.1v-.744c0-.48-.048-1.393-.12-2.017,2.592.36,2.76.385,2.76.648,0,.192-.072.24-1.007.6v1.513h6.408c.6-.7.792-.889,1.416-1.536,1.032.7,1.344.912,2.328,1.68a.494.494,0,0,1,.12.217c0,.1-.072.191-.143.191H1081.64v2.257h5.16c.431-.456.576-.575,1.008-.984a12.642,12.642,0,0,1,1.488,1.224c.1.1.12.145.12.216,0,.145-.12.24-.744.7,0,2.784.024,6.073.048,6.7-.073.336-.336.432-1.224.432-.36,0-.48-.048-.5-.264v-.744h-.961Zm-10.776.984a15.532,15.532,0,0,1,2.688,1.656c.888.672,1.08.936,1.08,1.416,0,.624-.48,1.512-.84,1.512-.192,0-.264-.1-.552-.7a12.676,12.676,0,0,0-2.616-3.624Zm4.752-10.081h-4.944v2.663h4.944Zm0,3.216h-4.944v2.952h4.944Zm6.985-3.216h-5.352v2.663h5.352Zm0,3.216h-5.352v2.952h5.352Z" fill="#333"/>
      <path id="パス_3987" data-name="パス 3987" d="M1073.047,11317.767v13.13c0,.215-.049.264-.265.312-.168.023-.887.1-1.176.1-.215,0-.288-.048-.312-.216.049-2.929.072-6.841.072-12.073,0-6-.023-8.4-.095-9.48.864.456,1.1.6,1.9,1.08h4.68a10.647,10.647,0,0,1,.841-1.057c.624.456.815.6,1.416,1.057.143.144.215.239.215.336,0,.144-.168.288-.744.647-.024,3.145-.024,3.145-.024,3.648,0,1.08,0,1.08.024,3.528,0,.145-.048.168-.192.217a3.9,3.9,0,0,1-1.1.119c-.264,0-.336-.047-.336-.216v-1.128Zm4.9-6.6h-4.9v2.616h4.9Zm0,3.168h-4.9v2.881h4.9Zm6.288,3.433v.864a.215.215,0,0,1-.168.24,7.081,7.081,0,0,1-1.152.12c-.288,0-.384-.049-.384-.217v-.048c.048-1.608.048-1.873.048-4.152,0-3.624,0-3.769-.1-4.969.817.408,1.081.553,1.9,1.009h4.776c.384-.48.528-.624.936-1.08.6.432.768.552,1.32.96.264.191.361.288.361.384,0,.168-.217.36-.7.624v11.187c.024,4.487.024,4.487.073,6.407a1.311,1.311,0,0,1-.673,1.3,7.331,7.331,0,0,1-2.3.792c-.192-.815-.36-1.056-.864-1.3a15.2,15.2,0,0,0-3.073-.72l.025-.312c2.736.1,2.855.1,4.776.145.239-.024.288-.049.288-.288v-10.945Zm5.089-6.6h-5.089v2.616h5.089Zm0,3.168h-5.089v2.881h5.089Z" fill="#333"/>
      <path id="パス_3988" data-name="パス 3988" d="M1077.511,11345.559c-.073,3.1-.1,3.408-.24,5.376h1.632a18.648,18.648,0,0,1,1.3-1.487c.864.7,1.128.936,1.92,1.68a.3.3,0,0,1,.1.168.231.231,0,0,1-.216.192h-4.752a15.451,15.451,0,0,1-.48,2.736c.192.1.192.1.48.264a15.4,15.4,0,0,1,4.032,2.736,1.661,1.661,0,0,1,.432,1.128c0,.84-.336,1.608-.7,1.608-.168,0-.265-.1-.409-.36a15.4,15.4,0,0,0-2.16-3.121,11.256,11.256,0,0,0-1.8-1.8,12.291,12.291,0,0,1-1.679,3.479,11.261,11.261,0,0,1-4.393,3.648l-.216-.312a11.492,11.492,0,0,0,3.865-4.488,15.44,15.44,0,0,0,1.416-5.521h-3.433a9.179,9.179,0,0,0-1.512.12l-.24-.841a9.734,9.734,0,0,0,2.04.168h3.193c.144-1.92.167-2.376.192-5.376h-1.992a15.165,15.165,0,0,1-3.025,4.057l-.288-.265a20.3,20.3,0,0,0,2.809-5.736,16.02,16.02,0,0,0,.767-2.977c2.137.433,2.617.576,2.617.816s-.241.336-1.08.432a30.869,30.869,0,0,1-1.489,3.121h4.585c.5-.673.672-.889,1.224-1.536a25.581,25.581,0,0,1,1.921,1.7.682.682,0,0,1,.119.216.186.186,0,0,1-.192.168Zm11.593-.937a9.571,9.571,0,0,1,.864-1.151,11.111,11.111,0,0,1,1.392,1.151c.144.12.216.217.216.288,0,.12-.12.24-.744.648v8.3c0,.048.048,3.769.072,6.24-.048.385-.312.5-1.176.5-.384,0-.48-.071-.5-.336v-1.224h-4.8v1.608c-.048.312-.217.384-1.057.384-.456,0-.576-.048-.624-.336.072-2.5.1-4.249.1-8.089,0-6.24-.025-8.209-.1-9.145a16.713,16.713,0,0,1,1.9,1.151Zm-4.68,13.874h4.8v-13.321h-4.8Z" fill="#333"/>
      <path id="パス_3989" data-name="パス 3989" d="M1070.07,11376.3a9.487,9.487,0,0,0,1.729.192h2.328a10.829,10.829,0,0,1,1.08-1.272c.695.6.912.816,1.607,1.488a.248.248,0,0,1,.121.191c0,.072-.1.145-.264.145H1071.8c-.408,0-.769.023-1.585.072Zm.432,3.072a6.955,6.955,0,0,0,1.753.192h1.68a11.714,11.714,0,0,1,1.032-1.2,18.912,18.912,0,0,1,1.632,1.439c.072.072.1.12.1.168,0,.1-.1.145-.36.145h-4.08c-.433,0-.792.023-1.585.1Zm.049,3.192a11.674,11.674,0,0,0,1.7.168h1.7c.407-.528.552-.671.983-1.176.745.575.96.768,1.657,1.392a.288.288,0,0,1,.1.192q0,.144-.36.144h-4.08a13.641,13.641,0,0,0-1.513.1Zm.168-9.289a8.607,8.607,0,0,0,1.536.168h1.727c.433-.552.553-.72.985-1.271.767.647.984.84,1.679,1.512.073.072.1.12.1.168,0,.072-.1.144-.217.144h-4.271a10,10,0,0,0-1.417.1Zm1.536,19.946c0,.359-.217.432-1.177.432-.24,0-.336-.072-.336-.264.025-1.7.048-3.433.048-4.776,0-2.448,0-2.762-.071-3.673.792.384,1.031.528,1.824.984h2.04c.288-.433.384-.553.695-.984.576.432.721.576,1.2.984.167.144.216.24.216.312,0,.145-.049.192-.673.672v2.9c0,.408,0,1.368.025,2.9-.025.336-.313.456-1.128.456-.24,0-.336-.071-.336-.264v-1.08h-2.328Zm0-1.944h2.328v-4.8h-2.328Zm15-10.2a24.518,24.518,0,0,0,.528,4.513,17.876,17.876,0,0,0,1.632-3.433c.816.288,1.8.672,2.064.816.144.071.216.144.216.239,0,.217-.312.313-1.128.385-1.392,2.448-1.656,2.9-2.209,3.768a8.857,8.857,0,0,0,2.065,3.169,35.718,35.718,0,0,0,1.345-4.368l.335.048-.456,4.776c-.024.24-.024.24-.024.264,0,.216,0,.24.384.744a1.107,1.107,0,0,1,.217.648.544.544,0,0,1-.6.6,2.076,2.076,0,0,1-1.344-.672,11.474,11.474,0,0,1-2.856-3.912,20.822,20.822,0,0,1-6.433,5.112l-.216-.312a16.136,16.136,0,0,0,2.953-2.4,3.327,3.327,0,0,0-.336.048,1.645,1.645,0,0,1-.313.023c-.264,0-.384-.071-.384-.191v-.24h-3.216v.936c-.024.36-.264.456-1.128.456-.24,0-.336-.071-.36-.264.072-2.185.1-3.408.1-5.328s-.024-2.952-.048-4.225c.72.384.96.5,1.656.912h2.88a9.275,9.275,0,0,1,.744-.889c.5.36.672.48,1.176.864.193.168.265.265.265.336,0,.12-.12.192-.672.456v4.081c-.025.552-.025.888-.025,1.151,0,.433,0,.721.048,1.488a25.944,25.944,0,0,0,2.713-3.528,21.588,21.588,0,0,1-.961-6.072h-7.32a13.611,13.611,0,0,0-2.208.12l-.168-.84a11.644,11.644,0,0,0,2.376.168h2.856a39.625,39.625,0,0,0,1.3-4.488c1.729.527,1.993.647,1.993.84,0,.168-.121.216-.888.288-.217.408-.217.408-.937,1.728a11.582,11.582,0,0,1-.984,1.633h3.936c-.072-1.608-.143-4.345-.168-6.913a13.536,13.536,0,0,0-.12-1.656,19.618,19.618,0,0,1,2.449.408c.192.073.288.168.288.288,0,.168-.336.36-1.08.624-.048,1.393-.048,2.064-.048,3.024,0,1.512.024,2.809.095,4.225h1.369c.552-.673.744-.889,1.32-1.536l2.088,1.728a.476.476,0,0,1,.144.217c0,.071-.095.144-.192.144Zm-4.416-5.856.912-1.225c.7.6.911.793,1.584,1.441.1.095.12.144.12.191,0,.1-.1.144-.288.144h-6.337a9.578,9.578,0,0,0-1.68.12l-.169-.888a8.457,8.457,0,0,0,1.849.216h1.416v-1.776a8.624,8.624,0,0,0-.1-1.368c.5.048.912.1,1.153.12,1.2.145,1.464.216,1.464.432,0,.192-.193.288-1.008.553v2.04Zm-4.657.768a7.377,7.377,0,0,1,1.488,1.608c.456.624.553.864.553,1.272,0,.6-.456,1.392-.817,1.392-.168,0-.216-.071-.312-.647a9.707,9.707,0,0,0-1.1-3.457Zm4.512,7.753h-3.216v2.713h3.216Zm-3.216,3.265v3.145h3.216v-3.145Zm8.593-12.985c2.04,1.056,3,1.92,3,2.664,0,.7-.5,1.656-.888,1.656-.168,0-.216-.1-.408-.72a8.87,8.87,0,0,0-1.872-3.385Z" fill="#333"/>
      <path id="パス_3990" data-name="パス 3990" d="M1075.423,11419.5a12.157,12.157,0,0,0,3.72,1.632c.528,0,.936-.5,1.56-2.016a18.446,18.446,0,0,0,1.416-6.432q0-1.513-.647-1.945a1.8,1.8,0,0,0-1.08-.24,8.392,8.392,0,0,0-2.5.48c-.336.84-.336.84-1.392,3.264-.12.288-.6,1.417-1.416,3.36-.96,2.257-1.752,3.984-2.137,4.656-.168.313-.359.456-.576.456-.432,0-.7-.624-.7-1.655a1.6,1.6,0,0,1,.551-1.345c1.081-1.32,2.113-3.288,4.416-8.353a17.083,17.083,0,0,0-3.12,1.248,1.253,1.253,0,0,1-.7.264,1.774,1.774,0,0,1-1.056-.72,3.813,3.813,0,0,1-.792-1.824,1.589,1.589,0,0,1,.144-.528c.505.984.937,1.32,1.824,1.32a24.952,24.952,0,0,0,4.081-.84,13.53,13.53,0,0,0,.984-3.937c0-.744-.48-1.176-1.848-1.608a.983.983,0,0,1,.7-.264,6.712,6.712,0,0,1,1.632.313c1.08.312,1.68.768,1.68,1.272,0,.167-.048.264-.336.7a25.343,25.343,0,0,0-1.536,3.24,9.163,9.163,0,0,1,2.089-.264c2.063,0,3.047,1.224,3.047,3.743,0,3.073-1.224,7.058-2.616,8.594a3.506,3.506,0,0,1-2.3,1.08.558.558,0,0,1-.648-.552c-.048-.624-.144-.744-2.664-2.809Zm10.585-9.673a8.339,8.339,0,0,1,4.392,2.88,5.65,5.65,0,0,1,1.369,3.385c0,.84-.361,1.32-.961,1.32a.959.959,0,0,1-.552-.168,1.463,1.463,0,0,0-.985-.265,21.165,21.165,0,0,0-3,.217l-.095-.312a36.758,36.758,0,0,0,3.672-1.224,7.219,7.219,0,0,0-4.033-5.5Zm.816-4.8a10.158,10.158,0,0,1,2.136,1.488c.864.769,1.2,1.32,1.2,1.9s-.336,1.008-.744,1.008c-.312,0-.312,0-1.057-1.56a11.325,11.325,0,0,0-1.847-2.521Zm2.472-1.392a10.63,10.63,0,0,1,2.3,1.368c.912.7,1.223,1.176,1.223,1.847,0,.577-.24.985-.6.985-.217,0-.361-.12-.553-.456a12.31,12.31,0,0,0-2.64-3.433Z" fill="#333"/>
      <path id="パス_3991" data-name="パス 3991" d="M1073.623,11442.518c.023.479.023.84.023,1.08a17.831,17.831,0,0,1-.528,4.32c-.5,1.656-1.512,3.1-2.231,3.1-.336,0-.673-.624-.673-1.3a1.2,1.2,0,0,1,.6-1.2,5.107,5.107,0,0,0,1.609-2.28,11.718,11.718,0,0,0,.767-3.72Zm2.735-.336c0-1.752-.023-2.089-.071-2.881.527.072.936.145,1.2.192,1.32.216,1.608.313,1.608.528,0,.191-.24.336-1.1.6v8.929a38.086,38.086,0,0,0,6.12-7.849,50.851,50.851,0,0,0,2.569-4.7,6.247,6.247,0,0,0,.36-1.032q.72.324,1.08.5c1.151.5,1.392.648,1.392.864,0,.24-.12.264-1.2.313a39.833,39.833,0,0,1-10.321,13.248v2.3c0,.24.024.313.192.36a21.411,21.411,0,0,0,3.24.12,17.311,17.311,0,0,0,3.625-.192c.191-.1.288-.288.5-1.056.311-1.057.576-2.232,1.032-4.513l.336.024-.24,5.112v.048c0,.169.048.216.431.288.505.12.744.312.744.647,0,.36-.311.648-.912.792a30.249,30.249,0,0,1-4.992.265c-3.624,0-4.392-.048-4.944-.241a.973.973,0,0,1-.672-1.055l.023-.769v-.984a26.261,26.261,0,0,1-5.639,3.313l-.265-.36a27.737,27.737,0,0,0,5.9-4.271Zm.7-7.513a18.312,18.312,0,0,1,5.232,1.656,1.619,1.619,0,0,1,1.032,1.632c0,.6-.215,1.056-.5,1.056-.144,0-.288-.071-.528-.312a15.965,15.965,0,0,0-5.376-3.648Zm10.873,8.16a22.766,22.766,0,0,1,3.5,4.32,2.548,2.548,0,0,1,.528,1.465c0,1.056-.672,2.472-1.152,2.472-.216,0-.312-.191-.5-.983a22.416,22.416,0,0,0-2.712-7.081Z" fill="#333"/>
      <path id="パス_3992" data-name="パス 3992" d="M1085.84,11478.855a14.448,14.448,0,0,1-2.952,3.84,33.56,33.56,0,0,1,5.568,1.849,2.693,2.693,0,0,1,1.2,2.016c0,.337-.168.576-.408.576-.168,0-.264-.072-1.656-.937a27.771,27.771,0,0,0-5.616-2.712,13.333,13.333,0,0,1-4.921,2.616,21.489,21.489,0,0,1-6.6,1.008v-.407a24.84,24.84,0,0,0,6.505-1.608,15.637,15.637,0,0,0,3.552-2.088,25.282,25.282,0,0,0-4.2-.984c-.289.336-.409.479-.816.936a.416.416,0,0,1-.336.192,5.284,5.284,0,0,1-1.2-.24.124.124,0,0,1-.072-.1c0-.072.023-.1.263-.384,1.489-1.824,1.945-2.4,2.785-3.576h-4.68a7.76,7.76,0,0,0-1.969.119l-.143-.936a6.021,6.021,0,0,0,2.135.264h5.041a14.764,14.764,0,0,0,1.584-2.687c1.945.575,2.136.672,2.136.815,0,.168-.24.265-.984.36-.5.792-.624.984-.984,1.512h9.408c.649-.744.841-.936,1.489-1.584.936.744,1.224.984,2.064,1.752.1.12.144.192.144.24,0,.1-.1.145-.239.145Zm-1.656-8.521h3.528c.408-.456.552-.6.96-1.031.576.432.744.575,1.32,1.031.192.168.24.24.24.313,0,.144-.072.216-.72.6.024,3.528.024,3.528.12,4.9v.072c0,.288-.288.36-1.32.36-.24,0-.336-.1-.336-.312v-.768h-13.9v.647c0,.313-.192.385-1.249.385-.216,0-.311-.072-.311-.265.047-1.464.047-2.208.047-3.1,0-.744,0-.744-.023-2.28-.024-.5-.024-.984-.024-1.465.816.336,1.08.48,1.944.912h3.288v-3.048H1072.4a11.168,11.168,0,0,0-1.7.144l-.143-.936a7.011,7.011,0,0,0,2.088.24h15.529c.624-.7.816-.889,1.416-1.513.937.7,1.224.937,2.136,1.681a.679.679,0,0,1,.144.239.161.161,0,0,1-.168.145h-7.512Zm-10.1.553v4.056h3.672v-4.056Zm4.609,7.969c-.841,1.2-1.273,1.8-2.042,2.76,2.569.336,3.409.48,4.681.72a10.994,10.994,0,0,0,2.689-3.479Zm.527-11.569v3.048h3.48v-3.048Zm0,7.656h3.48v-4.056h-3.48Zm4.969,0h3.792v-4.056h-3.792Z" fill="#333"/>
      <path id="パス_3993" data-name="パス 3993" d="M1072.206,11502.325a1.361,1.361,0,0,0,1.08.408c.673,0,1.273-.12,6.673-1.416.864-.216,2.232-.528,3.889-.84a26.281,26.281,0,0,0,3.24-.792,2.994,2.994,0,0,1,.84-.192,3.2,3.2,0,0,1,1.3.5c.48.288.7.6.7.912,0,.36-.288.6-.744.6a3.342,3.342,0,0,1-.456-.024,3.36,3.36,0,0,0-.672-.047,8.513,8.513,0,0,0-8.065,8.016,4.869,4.869,0,0,0,3.193,4.681,7.265,7.265,0,0,0,2.424.576,1.192,1.192,0,0,1,1.007.384,1.967,1.967,0,0,1,.721,1.152c0,.384-.36.672-.864.672a9.913,9.913,0,0,1-4.9-1.729,6.374,6.374,0,0,1-2.784-5.376,8.893,8.893,0,0,1,2.616-5.856,12.446,12.446,0,0,1,3.913-2.761,40.567,40.567,0,0,0-10.729,3.217,1.581,1.581,0,0,1-.96.336,2.65,2.65,0,0,1-1.849-1.416,3.441,3.441,0,0,1-.624-1.608,1.042,1.042,0,0,1,.264-.648A2.617,2.617,0,0,0,1072.206,11502.325Zm14.258,2.16a12.32,12.32,0,0,1,2.136,1.488c.864.792,1.2,1.345,1.2,1.921s-.336,1.008-.744,1.008c-.312,0-.312,0-1.056-1.561a11.528,11.528,0,0,0-1.849-2.544Zm2.472-1.392a11.674,11.674,0,0,1,2.3,1.368c.912.7,1.224,1.2,1.224,1.848,0,.576-.239.984-.6.984-.216,0-.36-.12-.551-.456a11.485,11.485,0,0,0-2.641-3.408Z" fill="#333"/>
      <path id="パス_3994" data-name="パス 3994" d="M1073.623,11531.605a3.757,3.757,0,0,0,3.359,1.416,8.084,8.084,0,0,0,1.393-.12c.144-1.08.264-2.255.264-2.664,0-.864-.384-1.248-1.56-1.608a.884.884,0,0,1,.7-.264,5.772,5.772,0,0,1,2.088.552c.6.312.888.6.888.984,0,.216,0,.216-.312.624a5.627,5.627,0,0,0-.744,2.16,10.8,10.8,0,0,0,4.512-1.7.711.711,0,0,1,.6-.264,4.116,4.116,0,0,1,1.128.191.562.562,0,0,1,.383.529c0,.432-.479.719-2.063,1.271a32.82,32.82,0,0,1-4.825,1.128,26.7,26.7,0,0,0-.456,3.624,14.139,14.139,0,0,1,3.84-.768v-.145c0-.456-.192-.792-.768-1.321a2.414,2.414,0,0,1,.265-.047,1.875,1.875,0,0,1,1.536,1.44,8.156,8.156,0,0,1,4.656,1.7,4.75,4.75,0,0,1,1.632,3.792c0,3.648-3.72,6.385-9.361,6.865l-.072-.384c4.872-1.2,7.585-3.7,7.585-7.033a3.922,3.922,0,0,0-1.752-3.408,6.486,6.486,0,0,0-2.784-.84,12.132,12.132,0,0,1-1.513,3.288,14.012,14.012,0,0,1-2.568,3.12,5.8,5.8,0,0,0,.6,1.008,1.794,1.794,0,0,1,.264,1.009c0,.647-.216,1.1-.552,1.1-.408,0-.816-.647-1.392-2.112-1.536,1.393-3.193,2.28-4.153,2.28-.576,0-.839-.264-1.152-1.1a5.39,5.39,0,0,0-.456-.912,2.37,2.37,0,0,1-.456-1.44c0-1.248.744-2.5,2.257-3.769a13.431,13.431,0,0,1,3.24-1.92c.024-.36.024-.36.144-1.776.024-.408.072-.792.216-2.136-.456.023-.672.048-.912.048a4.162,4.162,0,0,1-4.008-2.208Zm.84,10.081a4.069,4.069,0,0,0-.744,2.256c0,.889.36,1.465.912,1.465a7.475,7.475,0,0,0,3.576-1.944,17.833,17.833,0,0,1-.36-3.864v-.864A8.6,8.6,0,0,0,1074.463,11541.687Zm4.464-2.664a17.026,17.026,0,0,0,.336,3.5,13.075,13.075,0,0,0,3.432-5.185,12.127,12.127,0,0,0-3.768.912Z" fill="#333"/>
      <path id="パス_3995" data-name="パス 3995" d="M1078.543,11580.593a12.586,12.586,0,0,0,6.337-11.449,11.317,11.317,0,0,0-.889-4.944,1.965,1.965,0,0,0-1.7-1.057c-1.2,0-2.3,1.032-3.168,3a13.5,13.5,0,0,0-1.128,5.16c0,.408.024.672.1,1.488a3.386,3.386,0,0,1,.024.5c0,.456-.216.72-.624.72-.912,0-1.512-1.944-1.512-4.92a28.772,28.772,0,0,1,.768-6.433,10.01,10.01,0,0,0,.264-1.752c0-.769-.336-1.225-1.3-1.705a1.5,1.5,0,0,1,.432-.119,3.724,3.724,0,0,1,1.92.792c.672.479.936.863.936,1.344a1.425,1.425,0,0,1-.336.912,17.255,17.255,0,0,0-1.728,7.152c0,.216,0,.456.024.889h.048c.72-3.072,1.608-5.064,2.784-6.289a3.891,3.891,0,0,1,2.929-1.416c2.3,0,3.935,2.832,3.935,6.841a11.915,11.915,0,0,1-2.616,7.849,12.16,12.16,0,0,1-5.3,3.792Z" fill="#333"/>
      <path id="パス_3996" data-name="パス 3996" d="M1086.56,11590.525a21.792,21.792,0,0,1,4.68,2.3,2.42,2.42,0,0,1,1.273,2.088c0,.816-.433,1.608-.889,1.608a.845.845,0,0,1-.311-.145c-.168-.144-.168-.144-1.225-1.728a18.759,18.759,0,0,0-3.7-3.816Z" fill="#333"/>
      <path id="パス_3997" data-name="パス 3997" d="M1025.436,11199.688h2.377c.7-.721.912-.937,1.607-1.633,1.009.744,1.32.983,2.328,1.824.072.071.1.119.1.168a.207.207,0,0,1-.168.191h-6.241v1.992c.024,1.752.024,1.752.024,2.425-.1,1.056-.6,1.392-2.712,1.728-.265-.7-.48-.96-.96-1.152a6.75,6.75,0,0,0-1.368-.312c-.649-.12-.649-.12-1.152-.24v-.312l1.488.071c.983.049,1.7.072,2.112.072h.743c.169-.048.217-.1.217-.288v-3.984h-11.281c-.6,0-1.3.024-2.9.1l-.168-.816a28.47,28.47,0,0,0,3.072.169h11.281v-2.377h-9.361v.84c-.024.264-.168.336-.84.36-.192,0-.336.023-.384.023h-.072a.42.42,0,0,1-.432-.264c.072-1.393.1-2.544.1-5.041,0-1.92-.024-2.687-.1-4.176.84.384,1.08.528,1.92.984h4.752v-2.257h-6.192c-1.08,0-2.281.048-3.12.12l-.241-.864a22.758,22.758,0,0,0,3.456.192h6.1v-.744c0-.48-.048-1.393-.12-2.017,2.593.36,2.761.384,2.761.648,0,.192-.073.24-1.008.6v1.513h6.408c.6-.7.792-.889,1.416-1.536,1.032.7,1.344.912,2.328,1.68a.484.484,0,0,1,.12.217c0,.1-.072.191-.143.191h-10.129v2.257h5.16c.432-.456.576-.576,1.008-.984a12.571,12.571,0,0,1,1.488,1.224c.1.1.12.145.12.216,0,.145-.12.24-.744.7,0,2.784.025,6.073.048,6.7-.072.336-.336.432-1.224.432-.36,0-.48-.048-.5-.264v-.744h-.96Zm-10.777.983a15.609,15.609,0,0,1,2.689,1.656c.887.672,1.08.936,1.08,1.416,0,.624-.481,1.512-.841,1.512-.191,0-.264-.1-.552-.7a12.656,12.656,0,0,0-2.616-3.624Zm4.752-10.081h-4.944v2.664h4.944Zm0,3.216h-4.944v2.952h4.944Zm6.985-3.216h-5.352v2.664h5.352Zm0,3.216h-5.352v2.952h5.352Z" fill="#333"/>
      <path id="パス_3998" data-name="パス 3998" d="M1012.451,11224.167v13.129c0,.216-.049.265-.264.313-.168.023-.888.1-1.176.1-.216,0-.288-.048-.313-.216.049-2.929.073-6.841.073-12.073,0-6-.024-8.4-.1-9.48.864.456,1.1.6,1.9,1.08h4.68a10.8,10.8,0,0,1,.841-1.057c.624.456.815.6,1.416,1.057.143.144.216.24.216.336,0,.144-.168.288-.745.647-.024,3.145-.024,3.145-.024,3.648,0,1.08,0,1.08.024,3.528,0,.145-.047.168-.192.217a3.9,3.9,0,0,1-1.1.119c-.265,0-.336-.048-.336-.216v-1.128Zm4.9-6.6h-4.9v2.616h4.9Zm0,3.168h-4.9v2.881h4.9Zm6.288,3.433v.864a.216.216,0,0,1-.168.24,7.108,7.108,0,0,1-1.153.12c-.288,0-.383-.049-.383-.217v-.048c.047-1.608.047-1.872.047-4.152,0-3.624,0-3.769-.1-4.969.816.408,1.08.553,1.9,1.009h4.777c.383-.48.527-.624.935-1.08.6.432.769.552,1.321.96.263.191.36.288.36.384,0,.168-.217.36-.7.624v11.186c.023,4.488.023,4.488.072,6.408a1.311,1.311,0,0,1-.673,1.3,7.32,7.32,0,0,1-2.3.792c-.192-.815-.36-1.056-.864-1.3a15.185,15.185,0,0,0-3.072-.72l.024-.312c2.736.1,2.856.1,4.777.145.239-.024.288-.049.288-.288v-10.945Zm5.089-6.6h-5.089v2.616h5.089Zm0,3.168h-5.089v2.881h5.089Z" fill="#333"/>
      <path id="パス_3999" data-name="パス 3999" d="M1020.636,11253.639a27.1,27.1,0,0,1-2.281,1.873,9.975,9.975,0,0,1,2.329,2.352,10.083,10.083,0,0,1,1.679,6.145c0,2.04-.239,2.977-.983,3.769-.553.6-1.057.816-2.664,1.1-.145-1.2-.481-1.393-3.528-2.041v-.359c1.127.144,3.359.288,4.2.288.96,0,1.032-.024,1.175-.528a11.191,11.191,0,0,0,.313-2.9,15.425,15.425,0,0,0-.12-2.04,22.918,22.918,0,0,1-3.217,2.448,38.545,38.545,0,0,1-5.185,2.736,16.629,16.629,0,0,1-2.664.864l-.143-.337a34.054,34.054,0,0,0,7.56-4.44,27.662,27.662,0,0,0,3.313-3,6.041,6.041,0,0,0-.6-1.512,28.137,28.137,0,0,1-3.456,2.448,26.276,26.276,0,0,1-3.841,1.944,17.878,17.878,0,0,1-2.664.84l-.191-.312a31.776,31.776,0,0,0,6.216-3.552,24.847,24.847,0,0,0,3.072-2.593c-.311-.336-.432-.432-1.032-1.008a23.543,23.543,0,0,1-2.568,1.536,19.934,19.934,0,0,1-5.064,1.968l-.168-.312a29.65,29.65,0,0,0,5.977-3.36,19.136,19.136,0,0,0,2.4-2.017h-3.432a10.869,10.869,0,0,0-2.064.168l-.288-.983a13.015,13.015,0,0,0,2.664.264h9.481a16.606,16.606,0,0,1,1.176-1.464c.936.72,1.224.936,2.184,1.7a.349.349,0,0,1,.12.192c0,.071-.1.119-.239.119h-5.761a21.119,21.119,0,0,0,1.824,5.064,15.822,15.822,0,0,0,3.408-3.792,17.743,17.743,0,0,1,2.208,1.248.3.3,0,0,1,.168.264c0,.145-.288.266-.7.266l-.72-.025a24.036,24.036,0,0,1-4.177,2.448,14.6,14.6,0,0,0,2.977,3.816,13.8,13.8,0,0,0,4.177,2.761l-.145.312a3.58,3.58,0,0,0-.6-.072c-.624,0-1.033.288-1.633,1.152a15.35,15.35,0,0,1-3.336-3.456c-1.464-1.944-2.28-3.744-3.336-7.32a21.648,21.648,0,0,1-.648-2.665Zm-1.1-4.008v-1.2a12.808,12.808,0,0,0-.048-1.416c.552.072.985.1,1.273.12.935.048,1.512.191,1.512.408,0,.168-.409.384-1.008.5v1.584h6.984a7.025,7.025,0,0,1,.985-1.1,20.344,20.344,0,0,1,2.135,1.656c.12.1.168.168.168.265,0,.048-.048.1-.143.144a5.1,5.1,0,0,1-.576.12c-.336.048-.625.1-.888.143-.841.6-1.129.817-2.065,1.562l-.288-.168a10.508,10.508,0,0,0,.865-2.064h-15.915a5.535,5.535,0,0,1-.912,2.9,1.589,1.589,0,0,1-1.031.816c-.36,0-.841-.816-.841-1.464,0-.192.073-.288.456-.6a4.755,4.755,0,0,0,1.393-1.775,5.721,5.721,0,0,0,.624-2.017h.336c.024.456.024.888.024,1.032a3.728,3.728,0,0,1-.024.552Z" fill="#333"/>
      <path id="パス_4000" data-name="パス 4000" d="M1020.371,11297.751a10.912,10.912,0,0,0,5.617-3.336,8.538,8.538,0,0,0,2.136-5.784,5.955,5.955,0,0,0-2.712-5.3,7.925,7.925,0,0,0-4.152-1.1,5.327,5.327,0,0,0-.84.05,3.133,3.133,0,0,1,.744,1.991c0,1.872-1.345,5.376-3.169,8.3-1.512,2.4-2.688,3.576-3.576,3.576a1.394,1.394,0,0,1-1.056-.5,4.713,4.713,0,0,1-.673-1.536,14.782,14.782,0,0,0-1.055-2.257,4.607,4.607,0,0,1-.552-2.184,7.5,7.5,0,0,1,2.16-4.753,11.638,11.638,0,0,1,8.257-3.36,9.119,9.119,0,0,1,6.192,2.208,7.325,7.325,0,0,1,2.3,5.641,8.269,8.269,0,0,1-4.776,7.272,14.3,14.3,0,0,1-4.681,1.488Zm-7.9-7.464a5.617,5.617,0,0,0,.96,3.168c.336.432.648.7.912.7.528,0,1.68-1.3,2.856-3.169,1.776-2.832,3.049-5.928,3.049-7.416a2.668,2.668,0,0,0-.337-1.2C1015.739,11283.11,1012.475,11286.591,1012.475,11290.287Z" fill="#333"/>
      <path id="パス_4001" data-name="パス 4001" d="M1017.18,11330.175a12.572,12.572,0,0,0,4.608-4.9c.863-1.824,1.224-3.864,1.344-7.705a37.589,37.589,0,0,0-5.353.721v.815c0,.1,0,1.032.048,2.736,0,.072,0,.408.025.912.023.24.023.456.023.6,0,.864-.216,1.32-.624,1.32-.456,0-1.224-1.2-1.224-1.921a1.068,1.068,0,0,1,.12-.479,4.531,4.531,0,0,0,.264-1.152c.025-.24.072-1.1.1-2.568a12.052,12.052,0,0,0-3.1.937,2.475,2.475,0,0,1-.889.264c-.744,0-2.16-1.656-2.16-2.544a.558.558,0,0,1,.073-.216,2.587,2.587,0,0,0,1.967,1.128c.265,0,.985-.1,1.681-.192.648-.1.648-.1,1.584-.264.48-.1.48-.1.792-.145a15.6,15.6,0,0,0-.336-3.24,2.258,2.258,0,0,0-.792-1.1c-.072-.049-.288-.168-.672-.385a.565.565,0,0,1,.529-.191,4.526,4.526,0,0,1,2.04.744c.576.336.839.7.839,1.1a1.918,1.918,0,0,1-.1.528,9.851,9.851,0,0,0-.217,2.353c2.041-.288,2.041-.288,5.377-.648.024-.6.024-.7.024-1.536,0-1.9-.1-2.641-.408-3.048a2.785,2.785,0,0,0-1.633-.889,1.746,1.746,0,0,1,.937-.264,6.182,6.182,0,0,1,2.28.552c.552.24.84.576.84.938a1.078,1.078,0,0,1-.12.431,12.364,12.364,0,0,0-.456,3.673,8.1,8.1,0,0,0,2.9-.5,1.324,1.324,0,0,1,.672-.168c.792,0,2.16.912,2.16,1.416a.466.466,0,0,1-.5.433,3.027,3.027,0,0,1-.432-.024,25.785,25.785,0,0,0-2.808-.191h-.888c-.768.023-.768.023-1.128.023-.144,4.513-.576,6.648-1.656,8.449a12.258,12.258,0,0,1-5.52,4.536Z" fill="#333"/>
      <path id="パス_4002" data-name="パス 4002" d="M1015.475,11351.655a12.526,12.526,0,0,1-1.44,5.232c-.576,1.009-1.1,1.512-1.656,1.512-.432,0-.72-.576-.72-1.392a.914.914,0,0,1,.6-.96,6.987,6.987,0,0,0,2.784-4.465Zm-2.592-4.417a2.924,2.924,0,0,0,2.808,1.3,38.783,38.783,0,0,0,4.128-.385v-.576c0-2.256-.048-2.784-.336-3.264-.24-.433-.6-.672-1.608-1.032a.959.959,0,0,1,.721-.264,6.823,6.823,0,0,1,2.088.479c.816.336,1.175.672,1.175,1.08,0,.24-.047.336-.263.744a6.162,6.162,0,0,0-.481,2.616,12.064,12.064,0,0,0,4.225-1.2.767.767,0,0,1,.456-.168h.048a3.864,3.864,0,0,1,1.465.48c.455.24.671.479.671.72,0,.313-.288.456-1.1.552-.984.1-1.056.12-3.048.385-1.488.216-2.4.336-2.736.384-.025,1.248-.025,1.464-.025,2.04a60.416,60.416,0,0,0,.265,6.457c.023.264.023.5.023.792a4,4,0,0,1-.408,1.92c-.263.624-.551.888-.96.888-.311,0-.5-.216-.7-.768-.168-.528-.479-.864-1.319-1.416-.456-.312-.96-.6-1.465-.937l-.528-.312-.432-.288.12-.24a23.543,23.543,0,0,0,4.009,1.056c.095-1.56.12-2.5.168-9.049-1.153.145-3,.288-3.769.288a3.3,3.3,0,0,1-3.5-2.088Zm11.593,3.984a15.089,15.089,0,0,1,3.744,3.024,2.447,2.447,0,0,1,.744,1.776c0,1.008-.432,1.9-.888,1.9-.288,0-.336-.072-.744-1.272a13.73,13.73,0,0,0-3.1-5.16Zm5.209-8.28a2.629,2.629,0,1,1-2.617-2.616A2.629,2.629,0,0,1,1029.685,11342.942Zm-4.465,0a1.864,1.864,0,0,0,1.848,1.848,1.836,1.836,0,1,0-1.848-1.848Z" fill="#333"/>
      <path id="パス_4003" data-name="パス 4003" d="M1019.8,11377.021c0-1.728-.072-2.231-.385-2.64a2.547,2.547,0,0,0-1.319-.816.976.976,0,0,1,.767-.312,5.29,5.29,0,0,1,2.161.7c.792.408,1.032.648,1.032,1.032,0,.24-.048.336-.336.744-.24.384-.288,1.44-.288,10.585-.025,5.064-.168,5.929-.96,5.929-.216,0-.384-.168-.5-.48a9.675,9.675,0,0,1-.217-2.976Z" fill="#333"/>
      <path id="パス_4004" data-name="パス 4004" d="M1016.675,11404.094a4.842,4.842,0,0,1,1.776.408c1.008.384,1.584.863,1.584,1.319,0,.169,0,.169-.143.528a18.148,18.148,0,0,0-.433,5.232,21.669,21.669,0,0,1,5.593,1.345c1.08.5,1.488.983,1.488,1.848,0,.7-.216,1.1-.576,1.1-.24,0-.264,0-.888-.576a13.811,13.811,0,0,0-5.64-3.12c.023,1.512.023,2.256.023,2.976v3.5c0,.72,0,.72.049,2.736.023.5.023.912.023,1.271a1.52,1.52,0,0,1-.12.816.543.543,0,0,1-.432.216c-.576,0-1.536-1.3-1.536-2.088a1.811,1.811,0,0,1,.12-.672c.36-1.152.5-4.272.5-10.394a39.172,39.172,0,0,0-.168-4.128,2.459,2.459,0,0,0-1.824-2.137A.964.964,0,0,1,1016.675,11404.094Z" fill="#333"/>
      <path id="パス_4005" data-name="パス 4005" d="M1014.827,11450.7a12.156,12.156,0,0,0,3.72,1.632c.528,0,.936-.5,1.56-2.016a18.445,18.445,0,0,0,1.416-6.433q0-1.512-.647-1.944a1.8,1.8,0,0,0-1.08-.24,8.393,8.393,0,0,0-2.5.48c-.336.84-.336.84-1.392,3.264-.12.288-.6,1.417-1.416,3.36-.96,2.257-1.752,3.984-2.137,4.656-.167.313-.359.456-.576.456-.431,0-.7-.624-.7-1.655a1.6,1.6,0,0,1,.552-1.345c1.08-1.32,2.112-3.288,4.416-8.353a16.976,16.976,0,0,0-3.12,1.248,1.256,1.256,0,0,1-.7.264,1.773,1.773,0,0,1-1.055-.72,3.8,3.8,0,0,1-.792-1.824,1.605,1.605,0,0,1,.143-.528c.5.984.937,1.32,1.824,1.32a24.978,24.978,0,0,0,4.082-.84,13.555,13.555,0,0,0,.983-3.937c0-.744-.48-1.176-1.848-1.608a.983.983,0,0,1,.7-.264,6.715,6.715,0,0,1,1.631.313c1.08.312,1.68.768,1.68,1.271,0,.168-.048.265-.336.7a25.335,25.335,0,0,0-1.536,3.24,9.169,9.169,0,0,1,2.089-.264c2.063,0,3.048,1.224,3.048,3.744,0,3.072-1.225,7.057-2.616,8.593a3.506,3.506,0,0,1-2.305,1.08.558.558,0,0,1-.648-.552c-.047-.624-.144-.744-2.664-2.809Zm10.585-9.673a8.345,8.345,0,0,1,4.393,2.88,5.654,5.654,0,0,1,1.368,3.385c0,.84-.36,1.32-.961,1.32a.96.96,0,0,1-.552-.168,1.462,1.462,0,0,0-.984-.265,21.148,21.148,0,0,0-3,.217l-.1-.312a36.635,36.635,0,0,0,3.672-1.224,7.22,7.22,0,0,0-4.032-5.5Zm.817-4.8a10.191,10.191,0,0,1,2.135,1.489c.865.769,1.2,1.32,1.2,1.9s-.335,1.008-.744,1.008c-.312,0-.312,0-1.056-1.559a11.346,11.346,0,0,0-1.848-2.521Zm2.471-1.391a10.608,10.608,0,0,1,2.305,1.368c.912.7,1.224,1.176,1.224,1.848,0,.576-.241.984-.6.984-.217,0-.36-.12-.553-.456a12.329,12.329,0,0,0-2.639-3.433Z" fill="#333"/>
      <path id="パス_4006" data-name="パス 4006" d="M1013.027,11473.718c.024.479.024.84.024,1.08a17.825,17.825,0,0,1-.529,4.32c-.5,1.656-1.511,3.1-2.231,3.1-.336,0-.673-.625-.673-1.3a1.2,1.2,0,0,1,.6-1.2,5.109,5.109,0,0,0,1.608-2.279,11.731,11.731,0,0,0,.768-3.721Zm2.736-.336c0-1.752-.024-2.089-.072-2.881.528.072.936.146,1.2.192,1.319.216,1.607.313,1.607.528,0,.191-.239.336-1.1.6v8.929a38.159,38.159,0,0,0,6.12-7.849,50.8,50.8,0,0,0,2.568-4.7,6.135,6.135,0,0,0,.36-1.032q.72.324,1.08.5c1.152.5,1.392.648,1.392.864,0,.24-.12.264-1.2.313a39.838,39.838,0,0,1-10.32,13.249v2.3c0,.24.023.313.191.36a21.412,21.412,0,0,0,3.24.12,17.3,17.3,0,0,0,3.625-.192c.192-.1.288-.288.5-1.056.312-1.057.576-2.232,1.032-4.513l.336.024-.24,5.112v.048c0,.168.048.216.432.288.505.12.744.312.744.647,0,.36-.312.648-.912.792a30.16,30.16,0,0,1-4.993.265c-3.624,0-4.392-.048-4.944-.24a.975.975,0,0,1-.672-1.056l.024-.769v-.984a26.3,26.3,0,0,1-5.64,3.313l-.265-.359a27.807,27.807,0,0,0,5.905-4.272Zm.7-7.513a18.3,18.3,0,0,1,5.232,1.656,1.62,1.62,0,0,1,1.033,1.632c0,.6-.216,1.056-.5,1.056-.145,0-.288-.071-.529-.312a15.955,15.955,0,0,0-5.376-3.648Zm10.873,8.16a22.766,22.766,0,0,1,3.5,4.32,2.542,2.542,0,0,1,.528,1.465c0,1.056-.672,2.472-1.152,2.472-.216,0-.312-.191-.5-.983a22.367,22.367,0,0,0-2.712-7.081Z" fill="#333"/>
      <path id="パス_4007" data-name="パス 4007" d="M1009.354,11516.607a25.151,25.151,0,0,0,4.993-4.3,10.9,10.9,0,0,0,2.257-3.145c1.919.937,2.28,1.152,2.28,1.416,0,.168-.217.288-.6.288h-.624a16.593,16.593,0,0,1-3.864,3.553,22.075,22.075,0,0,1-4.273,2.448Zm.216-7.08a19.447,19.447,0,0,0,4.633-3.674,12.44,12.44,0,0,0,2.4-2.9c1.7,1.009,2.087,1.3,2.087,1.561,0,.145-.144.24-.408.24a5.143,5.143,0,0,1-.816-.072,27.956,27.956,0,0,1-3.7,3.024,19.169,19.169,0,0,1-4.008,2.16Zm.1-6.24a24.235,24.235,0,0,0,4.08-3.434,11.721,11.721,0,0,0,2.065-2.567c1.727.888,2.16,1.152,2.16,1.368,0,.168-.217.264-.624.264h-.553a25.067,25.067,0,0,1-3.336,2.616,19.233,19.233,0,0,1-3.553,2.064Zm5.568,14.833a20.475,20.475,0,0,0,4.344-2.376,8.291,8.291,0,0,0,2.137-1.872c1.9.84,2.256,1.008,2.256,1.176a.168.168,0,0,1-.073.144,1.333,1.333,0,0,1-.479.12h-.384a2.3,2.3,0,0,1-.408.024,16.713,16.713,0,0,1-3.385,1.848,31.407,31.407,0,0,1-3.864,1.32Zm10.465-19.562a17.526,17.526,0,0,1-1.944,2.952h4.08l.912-1.057a18.678,18.678,0,0,1,1.488,1.152c.145.12.193.192.193.288,0,.145-.073.192-.744.576v4.1c0,2.5,0,3.24.071,7.032,0,.168-.071.24-.239.289a6.2,6.2,0,0,1-1.033.095c-.336,0-.432-.071-.432-.288v-.647h-6.864v.576c-.024.24-.289.312-1.273.312-.287,0-.384-.071-.384-.264v-.072c.048-.912.1-6.769.1-9.5,0-1.9-.024-2.544-.1-3.624a14.521,14.521,0,0,1,1.8,1.032h1.728a22.113,22.113,0,0,0,.671-2.952h-3.576a5.72,5.72,0,0,0-1.439.168l-.193-.889a8.24,8.24,0,0,0,1.657.168h7.872a12.988,12.988,0,0,0,1.32-1.536c.816.648,1.513,1.225,2.137,1.753.071.071.12.119.12.168a.2.2,0,0,1-.217.168Zm2.352,3.5h-6.864v2.928h6.864Zm-6.864,3.479v3.24h6.864v-3.24Zm0,3.792v3.169h6.864v-3.169Zm4.392,4.849a9.5,9.5,0,0,1,1.441.384c.311.072.792.24,1.487.433a4.275,4.275,0,0,1,2.184,1.128,3.116,3.116,0,0,1,.193,1.248c0,.528-.145.768-.456.768-.217,0-.385-.1-.7-.455a15.157,15.157,0,0,0-4.272-3.241Z" fill="#333"/>
      <path id="パス_4008" data-name="パス 4008" d="M1011.61,11533.525a1.361,1.361,0,0,0,1.08.408c.673,0,1.273-.12,6.673-1.416.865-.216,2.233-.528,3.889-.84a26.229,26.229,0,0,0,3.24-.792,3.01,3.01,0,0,1,.84-.192,3.2,3.2,0,0,1,1.3.5c.48.288.7.6.7.912,0,.36-.288.6-.744.6a3.34,3.34,0,0,1-.456-.024,3.293,3.293,0,0,0-.672-.048,8.514,8.514,0,0,0-8.064,8.017,4.871,4.871,0,0,0,3.192,4.681,7.265,7.265,0,0,0,2.424.576,1.194,1.194,0,0,1,1.008.384,1.964,1.964,0,0,1,.72,1.152c0,.384-.36.672-.864.672a9.91,9.91,0,0,1-4.9-1.729,6.371,6.371,0,0,1-2.784-5.376,8.888,8.888,0,0,1,2.616-5.856,12.44,12.44,0,0,1,3.912-2.761,40.568,40.568,0,0,0-10.729,3.217,1.581,1.581,0,0,1-.96.336,2.646,2.646,0,0,1-1.848-1.416,3.43,3.43,0,0,1-.624-1.608,1.046,1.046,0,0,1,.263-.648A2.624,2.624,0,0,0,1011.61,11533.525Zm14.258,2.16a12.325,12.325,0,0,1,2.136,1.488c.864.792,1.2,1.345,1.2,1.921s-.336,1.008-.744,1.008c-.312,0-.312,0-1.056-1.561a11.528,11.528,0,0,0-1.848-2.544Zm2.472-1.392a11.711,11.711,0,0,1,2.305,1.368c.912.7,1.223,1.2,1.223,1.848,0,.576-.239.984-.6.984-.216,0-.361-.12-.552-.456a11.487,11.487,0,0,0-2.641-3.408Z" fill="#333"/>
      <path id="パス_4009" data-name="パス 4009" d="M1016.867,11580.087c2.784-1.9,3.96-3.432,4.561-6a2.748,2.748,0,0,1-1.536.479c-1.681,0-2.953-1.487-2.953-3.456,0-2.112,1.321-3.672,3.1-3.672a2.414,2.414,0,0,1,1.345.408c0-.408.023-1.729.023-2.5a4.789,4.789,0,0,0-.023-.479,32.871,32.871,0,0,0-6.049,1.2,8.851,8.851,0,0,0-1.56.647,2.238,2.238,0,0,1-.552.12,2.466,2.466,0,0,1-1.536-.912,3.564,3.564,0,0,1-.96-1.752.8.8,0,0,1,.12-.288,2.787,2.787,0,0,0,2.328,1.225,12.614,12.614,0,0,0,2.064-.217c2.832-.455,3.7-.575,6.145-.84a8,8,0,0,0-.265-2.664c-.263-.672-.84-1.008-2.063-1.176.288-.36.456-.433,1.1-.433a8.019,8.019,0,0,1,2.328.336c.577.192.913.5.913.841,0,.191-.024.239-.24.647a6.034,6.034,0,0,0-.528,2.328c.624-.071.624-.071,1.56-.144a10.811,10.811,0,0,0,3.192-.433,2.2,2.2,0,0,1,.889-.264,4.243,4.243,0,0,1,2.04.889.737.737,0,0,1,.383.647c0,.264-.168.408-.528.408a9.584,9.584,0,0,1-1.3-.145,25.629,25.629,0,0,0-3.7-.239c-.888,0-1.584.023-2.568.1-.1.912-.168,2.376-.168,3.265,0,.168,0,.456.024.815a6.266,6.266,0,0,1,.768,3.192,8.321,8.321,0,0,1-2.592,6.1,12.249,12.249,0,0,1-3.576,2.28Zm3.048-12.072c-1.08,0-1.92,1.128-1.92,2.592,0,1.513.817,2.616,1.944,2.616,1.033,0,1.537-.768,1.537-2.256C1021.476,11568.975,1020.972,11568.015,1019.915,11568.015Z" fill="#333"/>
      <path id="パス_4010" data-name="パス 4010" d="M1031.917,11593.622a3.1,3.1,0,1,1-3.1-3.1A3.074,3.074,0,0,1,1031.917,11593.622Zm-5.425,0a2.346,2.346,0,0,0,2.328,2.328,2.328,2.328,0,1,0-2.328-2.328Z" fill="#333"/>
      <path id="パス_4011" data-name="パス 4011" d="M960.616,11198.344H967q.936-1.009,1.656-1.8c1.225,1.008,1.225,1.008,2.3,1.92.12.145.168.217.168.288s-.1.146-.216.146h-10.3v1.079c0,4.513,0,4.513.048,5.929a.3.3,0,0,1-.216.336,7.212,7.212,0,0,1-1.272.144c-.24,0-.361-.1-.361-.24v-.071c.048-1.824.073-3.384.073-6.1v-1.079h-7.441a11.9,11.9,0,0,0-2.328.143l-.168-.888a8.6,8.6,0,0,0,2.5.192h7.441v-3.7h-4.752v1.009c0,.288-.433.408-1.321.408-.264,0-.36-.072-.383-.265.047-1.776.071-4.056.071-6.24,0-2.4-.024-3.673-.071-4.776a17.585,17.585,0,0,1,1.823,1.1h11.09c.551-.6.551-.6,1.008-1.1.647.479.839.624,1.44,1.1.191.169.287.265.287.36,0,.168-.119.288-.815.769v1.943c0,3.192.023,5.113.12,6.481,0,.359-.336.457-1.416.457-.288,0-.385-.073-.385-.289v-.961h-4.968Zm4.968-11.905H954.136v3.48h11.448Zm-11.448,4.032v3.624h11.448v-3.624Z" fill="#333"/>
      <path id="パス_4012" data-name="パス 4012" d="M958.888,11226.279c-1.752,4.032-2.256,5.448-2.256,6.409a2.9,2.9,0,0,0,.143.815,2.018,2.018,0,0,1,.048.384.567.567,0,0,1-.527.6,4.514,4.514,0,0,1-2.641-2.041,11,11,0,0,1-1.632-4.8,27.178,27.178,0,0,1-.168-4.225c-.024-2.232-.192-2.784-1.224-4.128h.216a3.562,3.562,0,0,1,1.8,1.176,2.9,2.9,0,0,1,1.081,1.9,4.135,4.135,0,0,1-.073.624,18.751,18.751,0,0,0-.431,3.576,10.284,10.284,0,0,0,.551,3.48,3.5,3.5,0,0,0,1.248,1.872c.264-.384.264-.384.792-1.272.769-1.3.769-1.3,2.017-3.384.384-.624.384-.624.7-1.152Zm5.112-4.345a7.485,7.485,0,0,1,5.425,7.177c0,1.152-.481,1.9-1.2,1.9a1.153,1.153,0,0,1-.72-.265,3.2,3.2,0,0,0-1.8-.288c-.552,0-1.008,0-1.824.049l-.071-.36c1.943-.528,3.023-.84,3.24-.912.479-.168.552-.264.552-.72a8.7,8.7,0,0,0-.745-3.145,6.632,6.632,0,0,0-2.976-3.145Z" fill="#333"/>
      <path id="パス_4013" data-name="パス 4013" d="M955.647,11253.375c.457-.6.6-.792,1.105-1.416l1.943,1.608a.482.482,0,0,1,.12.216c0,.1-.1.144-.239.144h-5.785v4.129h3c.48-.553.625-.721,1.129-1.272.744.624.96.816,1.632,1.464a.547.547,0,0,1,.12.24c0,.072-.1.12-.24.12h-5.641v2.664l-.023.984c2.784-.744,4.1-1.128,5.664-1.7l.144.336a37.053,37.053,0,0,1-5.808,2.664c-.025.816-.025,1.177-.025,1.464,0,.553,0,.576.048,3-.023.216-.072.288-.264.336a7.093,7.093,0,0,1-1.152.12c-.24,0-.336-.072-.336-.24v-.048c.12-1.824.144-2.521.144-4.009-.48.216-.816.36-1.032.433-.144.863-.24,1.056-.432,1.056-.216,0-.36-.312-1.153-2.424,1.009-.192,1.489-.288,2.641-.576v-7.152c0-3.577-.024-4.681-.192-6.7a10.173,10.173,0,0,1,1.776.864,12.111,12.111,0,0,0,3.721-2.688c.456.265.815.433,1.055.553,1.321.6,1.416.672,1.416.863,0,.168-.191.265-.5.265a7.707,7.707,0,0,1-.864-.1,22.506,22.506,0,0,1-4.824,1.633v3.168Zm15.6,12.961c-1.225.384-1.368.528-1.776,1.681a16.434,16.434,0,0,1-5.617-3.5,12.705,12.705,0,0,1-2.472,1.656,19.678,19.678,0,0,1-6.433,2.064l-.1-.336a21.869,21.869,0,0,0,6.553-3.072,13.617,13.617,0,0,0,1.56-1.3,11.842,11.842,0,0,1-2.688-5.569c-.432.024-.552.049-1.032.1l-.192-.912a19.662,19.662,0,0,0,2.88.191h4.512c.336-.407.456-.552.84-.96.721.528.937.7,1.608,1.248.145.12.193.192.193.288,0,.145-.1.168-1.08.5a13.157,13.157,0,0,1-3.145,5.137,14.714,14.714,0,0,0,6.433,2.521Zm-1.2-16.657-.12,3.7v.1c0,.313.072.385.648.576a.575.575,0,0,1,.36.48c0,.456-.84.672-2.617.672h-.288c-.408,0-.84-.024-1.271-.024-1.2,0-1.465-.216-1.465-1.151v-5.041h-3.072c-.168,3.024-.288,3.793-.864,4.944a7.408,7.408,0,0,1-3.216,3.289l-.216-.24a7.6,7.6,0,0,0,2.352-4.032,17.262,17.262,0,0,0,.336-3.913c0-.6-.024-.96-.072-1.632a11.447,11.447,0,0,1,1.824,1.032H965.2c.336-.432.433-.577.84-1.032.648.552.841.744,1.465,1.272.1.1.119.144.119.191,0,.145-.239.288-.84.528v4.177c0,.264.193.336,1.1.336.576,0,.7-.048.816-.288a26.81,26.81,0,0,0,.96-3.937Zm-8.209,8.209c-.168,0-.264,0-.985.048a9.344,9.344,0,0,0,2.929,4.753,11.852,11.852,0,0,0,2.664-4.8Z" fill="#333"/>
      <path id="パス_4014" data-name="パス 4014" d="M951.688,11294.918c0,1.992,0,1.992.023,3.5v1.08c0,.264-.072.336-.264.384a8.228,8.228,0,0,1-.864.048c-.36,0-.432-.048-.456-.312.048-4.393.048-4.393.048-12.289,0-6.77,0-7.465-.1-9.049a9,9,0,0,1,1.752,1.128h2.641c.336-.408.456-.553.815-.96.6.5.769.672,1.32,1.15.193.218.289.337.289.409,0,.168-.144.265-.84.48a48.85,48.85,0,0,1-2.832,5.16,11.629,11.629,0,0,1,1.752,2.064,6.822,6.822,0,0,1,1.007,3.48,3.951,3.951,0,0,1-1.08,2.952,2.971,2.971,0,0,1-1.824.768c-.24-1.1-.456-1.344-1.391-1.536Zm0-1.968c.815.048,1.439.1,1.775.1.48,0,.7-.1.841-.432a5.324,5.324,0,0,0,.311-1.944,6.293,6.293,0,0,0-1.992-4.872,40.066,40.066,0,0,0,1.849-5.833h-2.784Zm8.976-10.489c.432-.576.576-.72,1.032-1.248.744.624.984.84,1.728,1.561.024.048.048.071.048.12s-.1.144-.168.119h-4.368v3.7c1.512-.312,2.76-.647,4.272-1.1l.168.312a48.335,48.335,0,0,1-6.288,2.641c-.025.528-.12.744-.336.744s-.385-.384-.864-2.137a6.263,6.263,0,0,0,1.559-.168v-6.7c0-.168,0-.576-.023-1.176,0-.168-.025-.456-.025-.816,1.969.265,2.4.36,2.4.576,0,.168-.288.313-.864.408v3.168Zm.264,8.521a17.587,17.587,0,0,0,.936-3.168c1.992.528,2.3.672,2.3.912,0,.192-.288.313-.792.313h-.216a13.545,13.545,0,0,1-1.656,1.943h5.352c.361-.456.457-.6.84-1.031.649.456.84.6,1.393,1.031.216.192.264.288.264.36,0,.192-.216.36-.745.624-.047,1.8-.047,2.664-.047,3.648,0,1.008,0,1.992.047,4.177-.023.191-.072.264-.215.312-.048.024-.985.1-1.1.1a.221.221,0,0,1-.239-.216.139.139,0,0,0-.025-.1v-1.225h-7.8v1.009c-.073.264-.241.359-.745.384a3.37,3.37,0,0,0-.479.048h-.049c-.216,0-.311-.1-.311-.312.072-1.969.072-1.969.072-7.537,0-.984-.024-1.44-.1-2.376a15.617,15.617,0,0,1,1.753,1.1Zm6.1.553h-7.8v2.832h7.8Zm-7.8,3.384v3.192h7.8v-3.192Zm5.953-11.449a17.365,17.365,0,0,0,2.015-1.9,7.3,7.3,0,0,0,1.393-1.633c1.439.744,2.016,1.129,2.016,1.345,0,.12-.192.24-.409.24a2.414,2.414,0,0,1-.7-.1,33.467,33.467,0,0,1-4.32,2.448v2.5c0,.36.023.456.095.5a4.429,4.429,0,0,0,1.56.144,6.594,6.594,0,0,0,2.017-.144,1.037,1.037,0,0,0,.336-.553c.072-.336.192-.744.336-1.271.12-.385.264-.937.48-1.681l.312.048-.168,2.713v.384c0,.216.024.264.215.36.385.191.433.264.433.527a.736.736,0,0,1-.648.7,15.755,15.755,0,0,1-2.4.12h-.359c-.624,0-1.153-.024-1.584-.024-1.633,0-2.065-.288-2.065-1.512l.024-1.3v-5.425a9.108,9.108,0,0,0-.119-1.7c2.135.288,2.471.36,2.471.6,0,.169-.263.288-.935.433Z" fill="#333"/>
      <path id="パス_4015" data-name="パス 4015" d="M955.527,11317.646a18.691,18.691,0,0,0-3.12,1.248,1.259,1.259,0,0,1-.7.265,1.774,1.774,0,0,1-1.056-.721,3.8,3.8,0,0,1-.792-1.824,1.579,1.579,0,0,1,.144-.527c.5,1.008.936,1.319,1.824,1.319a24.8,24.8,0,0,0,4.08-.84,13.5,13.5,0,0,0,.985-3.937c0-.744-.457-1.151-1.848-1.607a1.08,1.08,0,0,1,.72-.24,6.6,6.6,0,0,1,1.608.312c1.08.313,1.68.744,1.68,1.248,0,.192-.048.288-.336.7a23.212,23.212,0,0,0-1.536,3.265,8.379,8.379,0,0,1,2.087-.288c2.065,0,3.049,1.224,3.049,3.744,0,3.072-1.224,7.057-2.616,8.617a3.4,3.4,0,0,1-2.3,1.08.557.557,0,0,1-.647-.553c-.072-.672-.12-.72-2.665-2.808l.217-.312a12.065,12.065,0,0,0,3.719,1.656c.553,0,.937-.5,1.561-2.017a18.562,18.562,0,0,0,1.416-6.456c0-1.608-.432-2.185-1.7-2.185a7.8,7.8,0,0,0-2.521.5c-.336.816-.336.816-1.391,3.265-.1.24-.576,1.368-1.416,3.36-.961,2.256-1.753,3.985-2.137,4.656-.168.313-.36.456-.576.456-.432,0-.7-.624-.7-1.656a1.576,1.576,0,0,1,.552-1.344,16.18,16.18,0,0,0,1.777-2.832c.911-1.776.911-1.776,1.92-3.984Zm9.362-1.536a8.334,8.334,0,0,1,4.391,2.881,5.657,5.657,0,0,1,1.368,3.408c0,.815-.359,1.3-.96,1.3a.911.911,0,0,1-.551-.168,1.554,1.554,0,0,0-.985-.24,21.251,21.251,0,0,0-3,.216l-.095-.336a36.956,36.956,0,0,0,3.672-1.224,6.153,6.153,0,0,0-.745-2.3,6.964,6.964,0,0,0-3.288-3.192Z" fill="#333"/>
      <path id="パス_4016" data-name="パス 4016" d="M957.016,11341.238a4.947,4.947,0,0,0,3.047,2.112c.457.144,1.177.336,1.729.456a1.491,1.491,0,0,1,.984.6,1.736,1.736,0,0,1,.528,1.057.526.526,0,0,1-.575.5c-.073,0-.193-.024-.505-.072a8.122,8.122,0,0,0-1.176-.072,20.559,20.559,0,0,0-4.584.672,2.376,2.376,0,0,0-1.1.433.926.926,0,0,0-.263.647,2.411,2.411,0,0,0,.143.7,1.9,1.9,0,0,1,.168.768c0,.12-.023.336-.072.768-.168,1.272-.336,3.265-.384,4.873,2.9-1.944,5.641-2.977,7.825-2.977,2.688,0,4.584,1.561,4.584,3.744,0,2.208-1.727,4.08-4.728,5.112a17.608,17.608,0,0,1-5.448.937l-.073-.384a13.794,13.794,0,0,0,6.025-2.137c1.656-1.176,2.4-2.376,2.4-3.889a2.6,2.6,0,0,0-2.9-2.616,9.542,9.542,0,0,0-5.736,2.616,5.506,5.506,0,0,0-1.321,1.513c-.24.36-.408.479-.672.479-.36,0-.672-.239-1.055-.792a2.766,2.766,0,0,1-.5-1.224c0-.024.048-.216.071-.384a9.782,9.782,0,0,0,.265-1.44c.048-.48.168-1.152.288-1.992a27.028,27.028,0,0,0,.456-3.168c0-.841.071-1.057.384-1.368a5.918,5.918,0,0,1,2.471-1.1,21.163,21.163,0,0,0,2.833-.912,7.549,7.549,0,0,1-2.184-1.368,5,5,0,0,1-1.225-1.92Z" fill="#333"/>
      <path id="パス_4017" data-name="パス 4017" d="M967.48,11388.3c.6-.72.792-.937,1.416-1.584.96.72,1.249.96,2.185,1.776a.539.539,0,0,1,.1.216c0,.072-.1.144-.24.144H960.712v.168a2.844,2.844,0,0,1-.024.385v.407c0,.673.024,1.032.072,3.625-.024.24-.192.312-.84.336-.264,0-.456.023-.552.023h-.049c-.191,0-.263-.048-.263-.216.048-2.88.048-2.88.048-4.729h-7.633a14.268,14.268,0,0,0-2.016.1l-.144-.841a10.686,10.686,0,0,0,2.184.192H959.1v-.528c0-1.2,0-1.3-.024-1.992,2.28.217,2.472.24,2.472.48,0,.168-.168.264-.84.5v1.536Zm-17.9-12.409a16.3,16.3,0,0,1,2.616,1.008c.5.265.648.48.648.937,0,.7-.239,1.248-.552,1.248-.168,0-.264-.1-.456-.384a9.957,9.957,0,0,0-2.376-2.545Zm.384,5.736c.48.072,1.536.217,1.632.217.288,0,.385-.1.912-.961,1.272-2.136,1.272-2.136,2.257-3.888.7-1.248,1.176-2.112,1.464-2.616l.336.144-3.336,7.44a2.064,2.064,0,0,0-.241.841,2.6,2.6,0,0,0,.336,1.1,3.84,3.84,0,0,1,.384,1.561,1.6,1.6,0,0,1-1.464,1.488c-.36,0-.551-.168-.551-.5,0-.048.023-.287.071-1.008.024-.5.048-.936.048-1.176a2.064,2.064,0,0,0-.48-1.561c-.264-.264-.384-.336-1.44-.744Zm1.416-9.359c2.761.887,3.288,1.247,3.288,2.183,0,.624-.239,1.177-.527,1.177-.145,0-.217-.1-.408-.384a10.321,10.321,0,0,0-2.449-2.713Zm15.386,6.023c.5-.6.647-.792,1.151-1.32.817.648,1.08.84,1.9,1.536a.421.421,0,0,1,.095.192c0,.1-.095.144-.191.144h-5.545v2.425h2.473c.551-.6.719-.793,1.271-1.345.864.672,1.105.889,1.944,1.584.073.1.1.145.1.192,0,.072-.1.12-.217.12h-5.568v2.641h3.385c.527-.625.672-.816,1.2-1.393.84.672,1.08.888,1.92,1.632.072.1.1.145.1.193,0,.071-.073.119-.241.119h-11.64v.552a.209.209,0,0,1-.144.216,4.3,4.3,0,0,1-1.129.145c-.191,0-.263-.072-.263-.265.047-2.256.047-2.256.047-7.944a17.721,17.721,0,0,1-2.591,2.616l-.241-.192a24.624,24.624,0,0,0,3.433-5.352,17.165,17.165,0,0,0,1.248-3c1.968.648,2.4.841,2.4,1.057,0,.191-.24.288-.768.288h-.216c-.648,1.056-.864,1.368-1.44,2.184h3.6a16.539,16.539,0,0,0,1.489-3.456c.431.144.767.24.983.313,1.177.384,1.417.5,1.417.7s-.265.265-1.057.313l-2.208,2.136h4.1a16.394,16.394,0,0,1,1.2-1.344c.792.624,1.056.84,1.872,1.536a.5.5,0,0,1,.12.216c0,.1-.1.145-.217.145h-6.36v2.424Zm-4.032,0v-2.424h-3.841v2.424Zm0,2.977v-2.425h-3.841v2.425Zm-3.841,3.192h3.841v-2.641h-3.841Z" fill="#333"/>
      <path id="パス_4018" data-name="パス 4018" d="M948.543,11414.823a33.495,33.495,0,0,0,3.288-6.216,19.408,19.408,0,0,0,1.513-5.617c2.351.624,2.567.7,2.567.937,0,.216-.239.312-.912.384a35.049,35.049,0,0,1-2.88,6.337c1.152.144,1.536.264,1.536.479,0,.145-.143.288-.624.5v4.753l.025,7.9v.072c0,.359-.288.479-1.153.479-.408,0-.5-.048-.5-.311.072-1.85.072-2.474.072-4.394v-8.4a20.851,20.851,0,0,1-2.592,3.384Zm4.8,9.121c1.584-3.528,2.015-6.024,2.015-12a20.018,20.018,0,0,0-.143-3.5,8.878,8.878,0,0,1,1.943,1.056h10.61c.576-.672.767-.864,1.343-1.512a21.289,21.289,0,0,1,1.849,1.752c.1.1.12.144.12.191,0,.1-.072.12-.265.12H956.968a39.245,39.245,0,0,1-.576,8.064,13.327,13.327,0,0,1-2.737,6.025ZM964,11405.991v-1.345c0-.408,0-.768-.048-1.416,2.017.264,2.448.36,2.448.623,0,.193-.312.361-.864.457v1.681h1.92l1.177-1.536a22.444,22.444,0,0,1,1.92,1.7c.1.1.143.168.143.239,0,.1-.095.145-.336.145h-4.8c0,.984,0,.984.023,1.9v.119c0,.24-.384.36-1.2.36-.336,0-.432-.072-.432-.312.025-1.152.025-1.368.025-2.064h-3.193c.024,1.008.024,1.656.048,1.944v.071c0,.265-.384.385-1.176.385-.337,0-.48-.072-.48-.265v-.048c.024-1.1.024-1.392.048-2.088h-2.04a8.207,8.207,0,0,0-1.872.144l-.193-.936a11.212,11.212,0,0,0,2.089.24h2.016c0-1.513-.024-1.9-.073-2.761a17.065,17.065,0,0,1,2.209.408c.192.072.288.168.288.264,0,.192-.216.313-.864.48v1.608Zm.24,13.225c.073,4.225.073,4.225.073,4.536a.3.3,0,0,1-.1.265,2.963,2.963,0,0,1-1.056.168c-.312,0-.431-.072-.431-.288,0-.648.023-2.185.047-4.681h-3.169v4.824c0,.385-.215.481-1.128.481-.383,0-.479-.073-.479-.313,0-.84,0-.84.1-3.792v-.96c0-5.9-.025-7.129-.1-8.329.792.36,1.032.48,1.775.889h7.61c.311-.385.431-.5.767-.889.672.456.865.6,1.464,1.032.145.12.217.216.217.288,0,.145-.145.264-.721.624v5.593c.048,3.384.048,3.384.073,4.32a1.073,1.073,0,0,1-.264.888c-.313.313-.649.433-1.944.672-.145-.647-.241-.792-.577-.983a5,5,0,0,0-1.488-.408l.048-.384a21.35,21.35,0,0,0,2.377.144c.191-.023.216-.048.216-.288v-3.408Zm-1.464-6.648h-3.144v2.736h3.144Zm0,3.288h-3.144v2.809h3.144Zm4.777-.552v-2.736H964.24v2.736Zm-3.313,3.36h3.313v-2.809H964.24Z" fill="#333"/>
      <path id="パス_4019" data-name="パス 4019" d="M951.711,11438.414a3.949,3.949,0,0,0,3,1.128,12.721,12.721,0,0,0,2.568-.312,6.475,6.475,0,0,0,.841-2.448c0-.648-.456-1.032-1.7-1.344a1.9,1.9,0,0,1,1.08-.265,5.064,5.064,0,0,1,1.872.408c.6.24.863.5.863.792,0,.168-.1.336-.383.7-.216.288-.5.72-.7.983-.431.7-.431.7-.6.937a7.9,7.9,0,0,0,3.456-1.536.673.673,0,0,1,.456-.168c.936,0,1.608.336,1.608.792,0,.288-.312.528-1.032.768a38.411,38.411,0,0,1-5.232,1.368c-.432.6-.72,1.032-1.273,1.872-.647,1.009-.84,1.272-1.3,1.921a6.5,6.5,0,0,1,3.1-.96,2.66,2.66,0,0,1,2.687,2.4c.409-.191.409-.191,2.353-1.175,2.376-1.2,2.952-1.585,2.952-2.017,0-.408-.408-.841-1.1-1.129a1.159,1.159,0,0,1,.551-.144c1.056,0,2.712,1.464,2.712,2.424,0,.433-.191.6-.864.744a38.96,38.96,0,0,0-6.432,2.473c.024.768.024.912.024,1.944a6.609,6.609,0,0,1-.193,2.063.756.756,0,0,1-.671.456.719.719,0,0,1-.768-.72,2.729,2.729,0,0,1,.023-.408,22.462,22.462,0,0,0,.168-2.568,12.2,12.2,0,0,0-2.807,1.9,3.212,3.212,0,0,0-1.177,2.232c0,1.3,1.32,1.92,4.009,1.92a17.373,17.373,0,0,0,4.824-.672,1.781,1.781,0,0,1,.456-.072c.744,0,1.681.672,1.681,1.2,0,.311-.265.551-.744.647a26.772,26.772,0,0,1-4.3.336,12.407,12.407,0,0,1-4.872-.7,2.63,2.63,0,0,1-1.777-2.544,4.562,4.562,0,0,1,1.729-3.289,17.364,17.364,0,0,1,2.975-2.136,4.018,4.018,0,0,0-.336-1.9,1.363,1.363,0,0,0-1.223-.72c-1.584,0-3.481,1.272-5.209,3.48-.456.624-.648.768-.888.768-.384,0-.648-.5-.648-1.271,0-.5.024-.528.7-1.08a19.345,19.345,0,0,0,4.465-5.161,9.109,9.109,0,0,1-1.609.145,3.879,3.879,0,0,1-3.576-1.849Z" fill="#333"/>
      <path id="パス_4020" data-name="パス 4020" d="M952.671,11476.215a16.548,16.548,0,0,1-3.7,2.952l-.216-.312a21.077,21.077,0,0,0,4.009-4.657,16.872,16.872,0,0,0,2.063-3.7c.528.217.912.385,1.152.48,1.033.408,1.248.528,1.248.72,0,.217-.311.336-.912.336a.56.56,0,0,1-.168-.023,30.251,30.251,0,0,1-2.664,3.36c1.3.288,1.584.384,1.584.6,0,.168-.095.216-.767.433v4.1c0,1.272,0,1.272.023,4.417v1.752c-.023.192-.072.217-.288.264a7.828,7.828,0,0,1-.983.1c-.409,0-.529-.048-.529-.216v-.12q.072-.936.144-5.833Zm-3.408-4.1a24.7,24.7,0,0,0,3.528-3.984,20.275,20.275,0,0,0,1.752-2.76,13.816,13.816,0,0,1,2.185,1.056.673.673,0,0,1,.12.24c0,.144-.241.264-.5.264-.145,0-.336-.023-.553-.023a23.148,23.148,0,0,1-6.288,5.5Zm9.432,1.729a15.541,15.541,0,0,0-2.111.168l-.192-.96a8.758,8.758,0,0,0,2.3.239h8.929c.625-.768.816-.983,1.44-1.7a26.89,26.89,0,0,1,2.113,1.921c.072.1.095.144.095.168,0,.1-.12.168-.215.168h-4.8v4.8c0,2.16,0,3.36.048,6.385v.216a1.262,1.262,0,0,1-.769,1.177,6.666,6.666,0,0,1-2.232.672c-.048-.769-.24-1.057-.816-1.32a5.936,5.936,0,0,0-1.32-.289l-1.608-.239v-.407c1.848.119,2.568.168,4.56.216.336-.024.408-.072.408-.336v-10.873Zm-1.248-6.816a11.171,11.171,0,0,0,2.4.239h6.312c.553-.72.721-.936,1.3-1.607.961.72,1.249.96,2.209,1.8a.317.317,0,0,1,.071.168c0,.1-.143.192-.288.192h-9.6a12.066,12.066,0,0,0-2.233.168Z" fill="#333"/>
      <path id="パス_4021" data-name="パス 4021" d="M960.184,11512.791a13.886,13.886,0,0,0,6.648-2.9,5.022,5.022,0,0,0,2.017-3.889,3.34,3.34,0,0,0-3.577-3.48c-2.328,0-5.424,1.272-7.968,3.288-.456.336-.672.456-.96.456-.889,0-2.328-1.728-2.328-2.832a1.026,1.026,0,0,1,.168-.48c.383.841.912,1.32,1.488,1.32a8,8,0,0,0,2.111-.672,30.4,30.4,0,0,1,5.473-1.729,10.635,10.635,0,0,1,1.872-.144c3.144,0,5.352,1.921,5.352,4.656a5.635,5.635,0,0,1-2.591,4.513c-1.92,1.32-4.033,1.968-7.609,2.377Z" fill="#333"/>
      <path id="パス_4022" data-name="パス 4022" d="M951.279,11533.406a1.361,1.361,0,0,0,1.08.407c.672,0,1.272-.12,6.649-1.416,1.008-.24,2.3-.527,3.888-.84a25.434,25.434,0,0,0,3.241-.768,3.032,3.032,0,0,1,.84-.192,3.194,3.194,0,0,1,1.295.5c.481.313.7.576.7.912,0,.36-.288.6-.744.6a3.151,3.151,0,0,1-.432-.023,3.549,3.549,0,0,0-.673-.048c-4.1,0-8.064,3.912-8.064,7.944a4.867,4.867,0,0,0,3.168,4.729,7.537,7.537,0,0,0,2.448.576,1.228,1.228,0,0,1,1.009.384,2.105,2.105,0,0,1,.719,1.152c0,.408-.36.672-.887.672a9.915,9.915,0,0,1-4.873-1.728,6.344,6.344,0,0,1-2.785-5.377,8.94,8.94,0,0,1,2.617-5.856,12.331,12.331,0,0,1,3.912-2.736,38.584,38.584,0,0,0-6.888,1.656,26.847,26.847,0,0,0-3.841,1.536,1.581,1.581,0,0,1-.96.336,2.648,2.648,0,0,1-1.848-1.416,3.43,3.43,0,0,1-.624-1.608.945.945,0,0,1,.264-.624A2.667,2.667,0,0,0,951.279,11533.406Z" fill="#333"/>
      <path id="パス_4023" data-name="パス 4023" d="M950.631,11565.543a4.013,4.013,0,0,0,2.856,1.225,10.535,10.535,0,0,0,2.4-.312c.023-.7.023-1.776.023-2.208,0-2.521-.288-3.024-1.943-3.312a1.348,1.348,0,0,1,1.031-.336,5.624,5.624,0,0,1,2.473.6.988.988,0,0,1,.528.769c0,.144,0,.144-.265.624a9.128,9.128,0,0,0-.744,3.576,6.864,6.864,0,0,0,2.616-1.392,1.142,1.142,0,0,1,.577-.24,2.927,2.927,0,0,1,.912.216.612.612,0,0,1,.408.528c0,.336-.216.527-1.08.936a16.7,16.7,0,0,1-3.5,1.177c-.024.336-.024.336-.072,1.2-.025.647-.073,1.7-.1,3.144a17.777,17.777,0,0,1,6.36-1.32c3.288,0,5.353,1.561,5.353,4.1a4.09,4.09,0,0,1-4.105,4.177c-2.208,0-3.792-1.464-4.632-4.248l.36-.12a7.125,7.125,0,0,0,1.44,2.088,3.211,3.211,0,0,0,2.281.912,3.034,3.034,0,0,0,3-3.288c0-1.849-1.248-2.856-3.553-2.856a15.494,15.494,0,0,0-6.5,1.729c0,2.544,0,2.544.023,3.264.025.456.025.721.025.912a2.81,2.81,0,0,1-.313,1.416,1.458,1.458,0,0,1-1.152.889c-.336,0-.336,0-1.8-1.3a9.982,9.982,0,0,0-1.608-1.08,1.14,1.14,0,0,1-.792-1.008,2.076,2.076,0,0,1,.72-1.344,11.927,11.927,0,0,1,3.817-2.473c.023-.336.023-.7.048-1.152.048-1.08.048-1.08.12-3.456a11.227,11.227,0,0,1-1.872.168,3.991,3.991,0,0,1-3.577-1.968Zm2.64,9.721q-.72.756-.72,1.152c0,.24.312.5.961.744a5.018,5.018,0,0,0,1.487.384c.288,0,.408-.168.433-.6.12-2.16.168-3.337.168-3.48A10.083,10.083,0,0,0,953.271,11575.264Zm10.706-12.145a7.946,7.946,0,0,1,3.528.864,2.731,2.731,0,0,1,1.68,2.111.662.662,0,0,1-.72.7,1.415,1.415,0,0,1-.361-.048,3.165,3.165,0,0,0-.5-.048,15.514,15.514,0,0,0-2.953.647l-.144-.239a16.963,16.963,0,0,0,2.616-1.536,3.605,3.605,0,0,0-1.512-1.488,6.643,6.643,0,0,0-1.656-.624Z" fill="#333"/>
      <path id="パス_4024" data-name="パス 4024" d="M959.824,11590.79a5.056,5.056,0,0,1,2.664,1.271c.384.385.528.624.528.96,0,.313-.12.456-1.392,1.488a59.885,59.885,0,0,0-4.416,4.152c-.841.937-1.152,1.488-1.152,1.944a2.007,2.007,0,0,0,.719,1.247,22.4,22.4,0,0,0,1.681,1.585c2.616,2.425,3.84,3.769,4.416,4.9a3.091,3.091,0,0,1,.36,1.584c0,.912-.312,1.44-.816,1.44-.312,0-.408-.12-.816-.984a22.621,22.621,0,0,0-2.016-3.384,44.451,44.451,0,0,0-3.505-4.345,3.128,3.128,0,0,1-.912-2.016c0-.769.385-1.416,1.849-3.217,2.9-3.528,3.624-4.536,3.624-5.112,0-.408-.312-.768-1.321-1.416A1.114,1.114,0,0,1,959.824,11590.79Z" fill="#333"/>
      <path id="パス_4025" data-name="パス 4025" d="M953.919,11633.774c-.048.527-.071.743-.071,1.079,0,2.856,1.8,4.2,5.664,4.2a16.146,16.146,0,0,0,5.3-.864.911.911,0,0,1,.409-.1,2.866,2.866,0,0,1,1.319.479,1.145,1.145,0,0,1,.528.84c0,.36-.263.624-.767.744a27.561,27.561,0,0,1-5.593.48c-2.689,0-4.393-.336-5.593-1.152a4.605,4.605,0,0,1-1.992-3.792,6.374,6.374,0,0,1,.385-2.017Zm.744-9.481a5.631,5.631,0,0,0,3.673,1.057,18.691,18.691,0,0,0,4.992-.721,2.44,2.44,0,0,1,.432-.1,1.647,1.647,0,0,1,1.44,1.248c0,.408-.143.48-1.752.84a19.647,19.647,0,0,0-3.505,1.177c-.575.216-.575.216-1.967.815-.48.192-.48.216-.936.385l-.169-.36c.744-.433,1.129-.672,1.753-1.008,1.632-.889,1.632-.889,2.016-1.129-.528.049-1.369.072-1.8.072a6.551,6.551,0,0,1-2.736-.647,5.99,5.99,0,0,1-1.68-1.393Z" fill="#333"/>
      <path id="パス_4026" data-name="パス 4026" d="M956.439,11653.646a7.756,7.756,0,0,1,2.424.455c.481.191.673.432.673.768v.048c0,.192-.024.192-.192.624a18.878,18.878,0,0,0-.529,4.873c0,1.416.193,1.776.937,1.776.5,0,1.032-.192,3.216-1.225a2.091,2.091,0,0,1,.984-.288,1.17,1.17,0,0,1,1.152,1.008.761.761,0,0,1-.5.721,15.614,15.614,0,0,1-1.609.5,16.362,16.362,0,0,0-6,2.688,3.861,3.861,0,0,0-1.872,3.072c0,1.728,1.368,2.616,4.032,2.616a28.017,28.017,0,0,0,5.57-.7,2.318,2.318,0,0,1,.479-.072,1.365,1.365,0,0,1,1.3,1.176c0,.433-.264.648-1.032.793a37.314,37.314,0,0,1-4.609.312,12.292,12.292,0,0,1-4.08-.552,3.805,3.805,0,0,1-2.616-3.553c0-1.392.769-2.712,2.353-4.032a15.312,15.312,0,0,1,2.927-1.92,1.618,1.618,0,0,1-1.151-.36c-.36-.264-.576-.792-.7-1.824-.072-.576-.1-1.1-.168-2.9-.072-2.04-.1-2.4-.288-2.76-.265-.455-.72-.7-1.729-.864A1.272,1.272,0,0,1,956.439,11653.646Z" fill="#333"/>
      <path id="パス_4027" data-name="パス 4027" d="M955.623,11695c-.432,1.513-1.1,4.129-1.392,5.3a8.206,8.206,0,0,0-.312,2.04c-.023.769-.048.864-.168,1.057a.543.543,0,0,1-.456.264c-.407,0-.744-.336-1.032-1.08a14.217,14.217,0,0,1-.768-4.824,35.42,35.42,0,0,1,1.08-7.993,10.477,10.477,0,0,0,.361-2.16,3.738,3.738,0,0,0-.7-2.112c.552.024,1.008.336,1.68,1.2a3.406,3.406,0,0,1,.864,1.824c0,.265,0,.265-.384,1.057a18.76,18.76,0,0,0-1.824,7.824,9.527,9.527,0,0,0,.384,2.977l1.009-2.4,1.3-3.1Zm2.4-4.344a4.992,4.992,0,0,0,3.1.983,12.889,12.889,0,0,0,2.736-.336v-1.056c0-2.688-.024-3-.335-3.337a2.456,2.456,0,0,0-1.585-.552,1.331,1.331,0,0,1,1.152-.384,7.057,7.057,0,0,1,1.633.216c.7.216,1.055.5,1.055.864,0,.168,0,.192-.215.744a10.718,10.718,0,0,0-.5,3.216,5.821,5.821,0,0,0,2.208-.983c.24-.24.311-.265.528-.265a2.854,2.854,0,0,1,1.128.313.513.513,0,0,1,.311.432c0,.528-1.752,1.248-4.248,1.729a47.485,47.485,0,0,0,.312,6.528c2.784.744,3.961,1.68,3.961,3.072,0,.5-.216.888-.481.888-.191,0-.359-.119-.839-.6a7.4,7.4,0,0,0-2.592-1.92,5.24,5.24,0,0,1,.023.576c0,1.728-1.44,2.76-3.84,2.76-2.089,0-3.552-1.008-3.552-2.448,0-1.656,1.776-2.712,4.512-2.712.456,0,.792.023,1.464.071v-.407l-.048-2.569-.024-3.071a10.671,10.671,0,0,1-2.112.191,4.776,4.776,0,0,1-3.96-1.68Zm3.673,8.761c-1.9,0-3.072.624-3.072,1.68,0,.84.936,1.416,2.352,1.416,1.32,0,2.256-.384,2.64-1.128a3.015,3.015,0,0,0,.312-1.68A7.739,7.739,0,0,0,961.7,11699.416Z" fill="#333"/>
      <path id="パス_4028" data-name="パス 4028" d="M887.731,11195.943a28.315,28.315,0,0,0,7.273-6.265,23.038,23.038,0,0,0,3.528-5.16c.576.168,1.056.312,1.344.384,1.32.384,1.416.432,1.416.624s-.168.264-.96.456a14.157,14.157,0,0,0,4.8,4.944,19.647,19.647,0,0,0,5.88,2.856l-.1.359c-.816.072-1.176.385-1.776,1.416a25.349,25.349,0,0,1-5.04-3.6,21.044,21.044,0,0,1-4.248-5.761,28.629,28.629,0,0,1-5.809,6.288,22.972,22.972,0,0,1-6.121,3.745Zm16.009,1.7c.7-.816.7-.816,1.321-1.584,1.007.744,1.32.983,2.3,1.824.1.1.119.144.119.191,0,.072-.071.12-.215.12h-6.7v6.5h5.569c.624-.792.816-1.032,1.463-1.824,1.1.864,1.441,1.128,2.5,2.04.1.1.144.168.144.24,0,.048-.048.1-.144.1H890.827a14.232,14.232,0,0,0-1.968.12l-.168-.912a9.459,9.459,0,0,0,2.329.24H893.2v-7.945a15.216,15.216,0,0,0-.048-1.584c2.281.24,2.665.313,2.665.576,0,.168-.264.336-.936.624v8.329h3.984v-11.569c0-1.032,0-1.3-.048-2.088,2.16.216,2.712.312,2.712.576,0,.191-.192.312-.96.6v5.425Z" fill="#333"/>
      <path id="パス_4029" data-name="パス 4029" d="M899.78,11226.807h4.393c.527-.576.672-.769,1.223-1.32.817.672,1.081.888,1.9,1.584.072.072.1.12.1.168,0,.072-.073.12-.241.12H899.78v2.185h6.456c.6-.648.792-.841,1.417-1.465.911.7,1.176.937,2.064,1.656a.735.735,0,0,1,.1.216c0,.1-.1.145-.264.145h-9.408a14.106,14.106,0,0,0,2.807,2.208,18.909,18.909,0,0,0,4.8,1.9,18.381,18.381,0,0,0,2.544.408v.359c-.84.24-1.08.456-1.656,1.488a19.944,19.944,0,0,1-5.305-2.688,19.549,19.549,0,0,1-3.552-3.408v2.376c0,.456,0,1.969.024,4.489-.024.359-.192.407-1.392.407-.24,0-.288-.071-.288-.288v-.048c.048-1.151.12-3.768.12-4.656v-1.992a22.067,22.067,0,0,1-4.872,3.841,23,23,0,0,1-5.017,2.088l-.167-.384a24.768,24.768,0,0,0,5.952-3.48,14.586,14.586,0,0,0,2.688-2.616H891.6a16.564,16.564,0,0,0-2.5.191l-.145-.983a11.158,11.158,0,0,0,2.641.24h6.648v-2.185h-4.3a20.946,20.946,0,0,0-2.351.144l-.145-.96a11.463,11.463,0,0,0,2.5.265h4.3v-2.209h-5.665a18.411,18.411,0,0,0-2.231.12l-.168-.936a9.2,9.2,0,0,0,2.4.264h3.745a2.2,2.2,0,0,1-.264-.576,8.837,8.837,0,0,0-1.369-2.568l.217-.288H891.26a15.423,15.423,0,0,0-2.377.12l-.168-.983a9.3,9.3,0,0,0,2.545.312H896.4v-2.208c0-.769-.024-1.225-.072-2.16,2.088.168,2.472.24,2.472.5,0,.192-.192.288-.912.5v3.36h2.425v-2.208c0-1.032,0-1.32-.049-2.136a9.983,9.983,0,0,1,2.257.287c.168.049.24.12.24.24,0,.193-.145.265-.937.5v3.313h1.393c1.559-2.568,1.848-3.1,2.136-4.1.719.288,1.679.7,2.112.937.168.1.216.144.216.24,0,.191-.193.264-1.032.288-1.728,1.7-1.825,1.8-2.785,2.64h3.049l1.344-1.512c.96.72,1.248.96,2.16,1.752.1.1.12.144.12.192,0,.1-.072.119-.24.119h-7.608c.792.456.792.456,1.847,1.057.217.12.336.24.336.336,0,.168-.191.24-.527.24a5.272,5.272,0,0,1-.528-.024c-.289.24-.529.433-.672.552a19.288,19.288,0,0,1-1.561,1.272h4.1c.576-.576.744-.768,1.343-1.32.912.648,1.2.864,2.065,1.585a.257.257,0,0,1,.072.168c0,.071-.072.119-.264.119H899.78Zm-8.136-10.825c2.087.96,2.952,1.656,2.952,2.4,0,.576-.456,1.344-.792,1.344-.216,0-.336-.168-.576-.744a9.4,9.4,0,0,0-1.8-2.784Zm3.36,4.632c1.992,1.417,2.472,1.9,2.472,2.448a1.381,1.381,0,0,1-.576.984h4.056a11.47,11.47,0,0,0,1.608-3.433Z" fill="#333"/>
      <path id="パス_4030" data-name="パス 4030" d="M894.956,11258.2c-.048.216-.408,1.729-1.08,4.513a9.437,9.437,0,0,0-.408,2.544,3.543,3.543,0,0,1-.072,1.032.591.591,0,0,1-.577.408c-.408,0-.767-.336-1.032-.984a14.246,14.246,0,0,1-.84-5.112,21.657,21.657,0,0,1,.193-2.568,36.864,36.864,0,0,1,.839-4.536,11.164,11.164,0,0,0,.336-2.232,4.275,4.275,0,0,0-.671-2.256c.528.023.96.336,1.608,1.176a3.24,3.24,0,0,1,.888,1.9c0,.384-.025.479-.5,1.44a20.261,20.261,0,0,0-1.3,3.815,13.108,13.108,0,0,0-.313,2.977,9.083,9.083,0,0,0,.456,3.167,18.679,18.679,0,0,0,.865-2.039l1.272-3.36Zm3.024,1.2a9.352,9.352,0,0,0-.072,1.008c0,2.641,1.512,3.721,5.233,3.721a11.324,11.324,0,0,0,2.04-.168,3.755,3.755,0,0,0,1.272-.384,1.19,1.19,0,0,1,.36-.072,1.847,1.847,0,0,1,1.512,1.416c0,.288-.192.48-.528.6a12.135,12.135,0,0,1-3,.263c-3,0-5.137-.5-6.217-1.464a3.988,3.988,0,0,1-1.3-3.12,6.47,6.47,0,0,1,.288-1.9Zm-.048-7.633a3.751,3.751,0,0,0,2.232.648,12.749,12.749,0,0,0,4.824-1.08c.313-.168.361-.192.529-.192a1.821,1.821,0,0,1,.839.336c.5.288.745.576.745.889s-.168.456-.672.552a13.767,13.767,0,0,0-3.408.84,24.507,24.507,0,0,0-3.1,1.7l-.239-.239c1.08-.912,1.9-1.585,2.28-1.873-.505.024-.769.049-.985.049a4.229,4.229,0,0,1-3.264-1.345Z" fill="#333"/>
      <path id="パス_4031" data-name="パス 4031" d="M895.844,11279.245a7.767,7.767,0,0,1,2.424.456c.48.191.672.432.672.768v.048c0,.192-.024.192-.192.624a18.888,18.888,0,0,0-.528,4.873c0,1.416.192,1.776.936,1.776.5,0,1.032-.192,3.216-1.225a2.094,2.094,0,0,1,.984-.288,1.17,1.17,0,0,1,1.153,1.008.762.762,0,0,1-.5.721,15.614,15.614,0,0,1-1.609.5,16.349,16.349,0,0,0-6,2.688,3.863,3.863,0,0,0-1.873,3.073c0,1.727,1.369,2.615,4.033,2.615a28.016,28.016,0,0,0,5.569-.7,2.318,2.318,0,0,1,.479-.072,1.364,1.364,0,0,1,1.3,1.176c0,.433-.263.648-1.032.793a37.3,37.3,0,0,1-4.608.312,12.288,12.288,0,0,1-4.08-.552,3.8,3.8,0,0,1-2.617-3.553c0-1.392.769-2.712,2.353-4.032a15.357,15.357,0,0,1,2.928-1.92,1.62,1.62,0,0,1-1.152-.36c-.36-.264-.576-.792-.7-1.824-.072-.576-.1-1.1-.168-2.9-.072-2.04-.1-2.4-.288-2.76-.265-.456-.72-.7-1.728-.864A1.27,1.27,0,0,1,895.844,11279.245Z" fill="#333"/>
      <path id="パス_4032" data-name="パス 4032" d="M899.588,11325.59a13.872,13.872,0,0,0,6.648-2.9,5.019,5.019,0,0,0,2.017-3.889,3.339,3.339,0,0,0-3.576-3.48c-2.328,0-5.425,1.272-7.969,3.288-.456.336-.672.456-.96.456-.889,0-2.328-1.728-2.328-2.833a1.039,1.039,0,0,1,.168-.479c.384.841.912,1.32,1.488,1.32a8.005,8.005,0,0,0,2.112-.672,30.394,30.394,0,0,1,5.472-1.729,10.644,10.644,0,0,1,1.872-.144c3.145,0,5.353,1.92,5.353,4.656a5.636,5.636,0,0,1-2.592,4.513c-1.92,1.32-4.032,1.968-7.608,2.376Z" fill="#333"/>
      <path id="パス_4033" data-name="パス 4033" d="M890.684,11346.206a1.36,1.36,0,0,0,1.08.407c.672,0,1.271-.12,6.648-1.416,1.008-.24,2.3-.527,3.889-.84a25.45,25.45,0,0,0,3.24-.768,3,3,0,0,1,.84-.192,3.2,3.2,0,0,1,1.3.5c.48.313.7.576.7.912,0,.36-.288.6-.744.6a3.151,3.151,0,0,1-.432-.023,3.538,3.538,0,0,0-.673-.048c-4.1,0-8.064,3.912-8.064,7.944a4.867,4.867,0,0,0,3.168,4.729,7.537,7.537,0,0,0,2.448.576,1.225,1.225,0,0,1,1.009.384,2.1,2.1,0,0,1,.72,1.152c0,.408-.361.672-.888.672a9.91,9.91,0,0,1-4.873-1.729,6.343,6.343,0,0,1-2.784-5.376,8.943,8.943,0,0,1,2.616-5.856,12.33,12.33,0,0,1,3.912-2.736,38.6,38.6,0,0,0-6.888,1.656,26.714,26.714,0,0,0-3.84,1.536,1.585,1.585,0,0,1-.96.336,2.65,2.65,0,0,1-1.849-1.416,3.43,3.43,0,0,1-.624-1.608.947.947,0,0,1,.265-.624A2.651,2.651,0,0,0,890.684,11346.206Z" fill="#333"/>
      <path id="パス_4034" data-name="パス 4034" d="M900.021,11386.527V11389H905.8c.551-.624.744-.816,1.32-1.416.888.672,1.152.888,2.064,1.632a.47.47,0,0,1,.1.192.156.156,0,0,1-.144.144h-9.12v2.616h6.839c.577-.72.744-.912,1.345-1.584.984.792,1.272,1.032,2.16,1.824a.34.34,0,0,1,.048.144.206.206,0,0,1-.192.168h-18.53a23.056,23.056,0,0,0-2.9.1l-.12-.841a29.985,29.985,0,0,0,3.024.192h6.7v-2.616H893.4c-.936,0-2.185.048-2.9.1l-.168-.863a21.372,21.372,0,0,0,3.073.216h4.992v-2.473H893.4v.84c-.073.217-.336.265-1.2.265-.311,0-.408-.072-.408-.312.072-1.319.12-3.192.12-4.872,0-.528-.023-1.488-.023-2.328-.025-.96-.025-1.248-.025-1.752.865.456,1.153.624,1.993,1.128h4.536v-2.137h-6.7c-1.055,0-1.9.024-2.64.1l-.119-.816a24.4,24.4,0,0,0,2.759.168h6.7v-2.256a73.132,73.132,0,0,1-7.92.359l-.049-.407c5.688-.337,11.689-1.488,14.834-2.784,1.8,1.248,2.16,1.56,2.16,1.775a.194.194,0,0,1-.216.168,3.722,3.722,0,0,1-1.152-.264,45.643,45.643,0,0,1-6.024.984v2.424h6.5a13.693,13.693,0,0,1,1.465-1.68c.96.768,1.272,1.008,2.208,1.872a.321.321,0,0,1,.073.168.207.207,0,0,1-.193.191H900.021v2.137h4.992a8.65,8.65,0,0,1,.912-.984c.7.48.912.648,1.584,1.176.1.1.12.145.12.192,0,.168-.1.24-.769.624,0,5.5,0,5.641.049,6.673-.024.191-.072.264-.217.288a3.511,3.511,0,0,1-.983.12c-.336,0-.408-.048-.456-.24v-.816Zm-1.633-6.48H893.4v2.544h4.992Zm0,3.1H893.4v2.832h4.992Zm6.865-3.1h-5.232v2.544h5.232Zm0,3.1h-5.232v2.832h5.232Z" fill="#333"/>
      <path id="パス_4035" data-name="パス 4035" d="M904.053,11416.456a14.451,14.451,0,0,1-2.952,3.84,33.558,33.558,0,0,1,5.568,1.849,2.7,2.7,0,0,1,1.2,2.016c0,.336-.168.576-.408.576-.168,0-.264-.072-1.656-.936a27.7,27.7,0,0,0-5.617-2.713,13.335,13.335,0,0,1-4.92,2.616,21.488,21.488,0,0,1-6.6,1.008v-.407a24.84,24.84,0,0,0,6.505-1.608,15.673,15.673,0,0,0,3.552-2.088,25.369,25.369,0,0,0-4.2-.984c-.288.336-.408.479-.815.936a.416.416,0,0,1-.336.192,5.284,5.284,0,0,1-1.2-.24.124.124,0,0,1-.072-.1c0-.072.023-.1.263-.384,1.489-1.824,1.945-2.4,2.784-3.576h-4.679a7.653,7.653,0,0,0-1.969.119l-.144-.936a6.03,6.03,0,0,0,2.136.264h5.041a14.773,14.773,0,0,0,1.584-2.687c1.945.575,2.136.672,2.136.815,0,.168-.24.265-.984.36-.5.792-.624.984-.984,1.512h9.408c.649-.744.841-.936,1.489-1.584.936.744,1.224.984,2.064,1.752.1.12.144.192.144.24,0,.1-.1.145-.24.145Zm-1.657-8.521h3.529c.408-.456.552-.6.96-1.032.576.433.744.576,1.32,1.032.191.168.24.24.24.313,0,.144-.072.216-.72.6.024,3.528.024,3.528.12,4.9v.072c0,.288-.288.36-1.321.36-.239,0-.336-.1-.336-.312v-.768h-13.9v.647c0,.313-.192.385-1.249.385-.216,0-.312-.072-.312-.265.048-1.464.048-2.208.048-3.1,0-.744,0-.744-.023-2.28-.025-.5-.025-.984-.025-1.465.817.336,1.081.48,1.945.912h3.288v-3.048h-5.353a11.158,11.158,0,0,0-1.7.144l-.143-.936a7.011,7.011,0,0,0,2.088.24h15.529c.624-.7.816-.889,1.416-1.513.936.7,1.224.937,2.136,1.681a.679.679,0,0,1,.144.239.161.161,0,0,1-.168.145H902.4Zm-10.1.553v4.056h3.672v-4.056Zm4.608,7.969c-.84,1.2-1.272,1.8-2.041,2.76,2.569.336,3.409.48,4.681.72a10.994,10.994,0,0,0,2.689-3.479Zm.528-11.569v3.048h3.48v-3.048Zm0,7.656h3.48v-4.056h-3.48Zm4.968,0h3.792v-4.056H902.4Z" fill="#333"/>
      <path id="パス_4036" data-name="パス 4036" d="M890.443,11439.134a3.853,3.853,0,0,0,3.025,1.393,10.471,10.471,0,0,0,2.183-.288,9.919,9.919,0,0,0,.865-3.408c0-.792-.384-1.272-1.537-1.849a1.029,1.029,0,0,1,.577-.168,5.027,5.027,0,0,1,1.92.553c.816.407,1.128.672,1.128,1.008a1.025,1.025,0,0,1-.24.624c-.1.192-.6,1.176-1.464,2.952a6.248,6.248,0,0,0,2.664-1.32.589.589,0,0,1,.5-.191c.936,0,1.632.312,1.632.72,0,.624-1.488,1.224-5.3,2.113-.216.479-.625,1.463-1.272,2.9-.721,1.656-2.568,5.688-2.784,6.1-.361.647-.576.863-.864.863-.409,0-.745-.744-.745-1.7a1.016,1.016,0,0,1,.264-.863,10.7,10.7,0,0,0,1.152-1.44,31.8,31.8,0,0,0,3-5.641,7.069,7.069,0,0,1-1.127.1,3.884,3.884,0,0,1-2.113-.5,4.92,4.92,0,0,1-1.752-1.752Zm12.7,1.345a8.474,8.474,0,0,1,4.1,1.32c.936.6,1.512,1.319,1.512,1.872a.626.626,0,0,1-.624.7.906.906,0,0,1-.552-.191,3.772,3.772,0,0,0-2.352-.5c-1.92,0-2.521.527-2.521,2.183a34.29,34.29,0,0,0,.48,4.13,10.836,10.836,0,0,1,3.409,1.56,2.289,2.289,0,0,1,.96,1.9c0,.479-.192.816-.48.816-.24,0-.336-.072-.841-.624a8.694,8.694,0,0,0-2.9-2.112v.456a2.689,2.689,0,0,1-.672,2.04,4.431,4.431,0,0,1-3.12,1.032c-2.16,0-3.648-1.032-3.648-2.545,0-1.68,1.824-2.855,4.488-2.855a7.778,7.778,0,0,1,1.44.119c-.072-1.9-.072-2.088-.072-2.376,0-1.968.192-2.712.841-3.432a4.473,4.473,0,0,1,2.279-1.129c.361-.1.408-.119,1.3-.312a6.692,6.692,0,0,0-3.1-1.656Zm-1.3,10.513a6.716,6.716,0,0,0-2.065-.288c-2.04,0-3.288.7-3.288,1.824,0,.888.912,1.416,2.4,1.416,1.943,0,2.952-.792,2.952-2.3Z" fill="#333"/>
      <path id="パス_4037" data-name="パス 4037" d="M832.992,11187.278a5.2,5.2,0,0,1,2.256.744c.408.264.624.552.624.84,0,.072-.048.313-.072.528a30.306,30.306,0,0,0-.216,4.128c0,.313,0,.864.024,1.824v.816a6.8,6.8,0,0,1-.072,1.3c-.048.336-.24.528-.48.528-.312,0-.624-.288-.912-.816a3.3,3.3,0,0,1-.432-1.344,1.893,1.893,0,0,1,.1-.528,15.491,15.491,0,0,0,.312-3.912c0-1.752-.1-2.328-.456-2.881-.288-.479-.5-.624-1.416-1.031A1.123,1.123,0,0,1,832.992,11187.278Zm2.52,18.17a14.846,14.846,0,0,0,4.848-4.776c1.345-2.28,1.7-4.345,1.7-10.009,0-2.4-.1-3.169-.456-3.625a2.98,2.98,0,0,0-1.727-.864,1.23,1.23,0,0,1,.983-.359,7.115,7.115,0,0,1,2.449.672c.6.288.864.6.864.96,0,.168,0,.168-.144.576a27.306,27.306,0,0,0-.408,5.137c-.12,3.479-.265,4.584-.769,6-1.007,2.761-3.576,5.16-7.152,6.6Z" fill="#333"/>
      <path id="パス_4038" data-name="パス 4038" d="M829.151,11234.992a34.677,34.677,0,0,0,6.457-5.257,42.669,42.669,0,0,0,4.584-5.977,16,16,0,0,0,1.632-3.1,25.59,25.59,0,0,0-5.064,1.056,12.522,12.522,0,0,0-2.016.648,1.124,1.124,0,0,1-.408.071c-.528,0-1.032-.432-1.56-1.368a2.955,2.955,0,0,1-.505-1.439.966.966,0,0,1,.168-.48c.7,1.248,1.2,1.608,2.257,1.608a38.264,38.264,0,0,0,5.04-.672,6.243,6.243,0,0,0,2.257-.672.956.956,0,0,1,.552-.217c.5,0,1.872,1.225,1.872,1.681a.558.558,0,0,1-.313.456c-.5.336-.5.336-1.368,1.632-1.151,1.729-1.151,1.729-3.023,4.177,3.384,1.776,5.28,3,6.216,4.056a3.185,3.185,0,0,1,.912,2.377c0,.768-.239,1.248-.648,1.248a.756.756,0,0,1-.552-.385,6.963,6.963,0,0,1-.576-.961,20.582,20.582,0,0,0-5.712-5.879,26.112,26.112,0,0,1-5.809,5.4,21.317,21.317,0,0,1-4.2,2.352Z" fill="#333"/>
      <path id="パス_4039" data-name="パス 4039" d="M830.928,11258.774a26.864,26.864,0,0,0,5.04-5.881,8.8,8.8,0,0,0,1.585-3.24c0-.312-.1-.5-.456-.815a3.629,3.629,0,0,0-.576-.433,3.559,3.559,0,0,1-.433-.216.818.818,0,0,1,.456-.144,4.413,4.413,0,0,1,1.969.647c.767.433,1.128.841,1.128,1.225,0,.288-.025.311-1.3,2.184a2.607,2.607,0,0,0,.624.1,16.912,16.912,0,0,0,2.88-.48,7.37,7.37,0,0,0,1.9-.647.647.647,0,0,1,.408-.145c.576,0,1.944,1.248,1.944,1.776,0,.216-.072.336-.36.6a4.959,4.959,0,0,0-1.152,1.7,28.066,28.066,0,0,1-7.081,9.025,21.662,21.662,0,0,1-5.952,3.744l-.168-.336a26.71,26.71,0,0,0,5.3-4.3,29.519,29.519,0,0,0,6.553-9.5,4.1,4.1,0,0,0,.384-1.224c0-.1-.072-.168-.216-.168a18.262,18.262,0,0,0-3.049.768,2.166,2.166,0,0,1-.792.168,2.193,2.193,0,0,1-1.488-.7,24.022,24.022,0,0,1-6.912,6.577Z" fill="#333"/>
      <path id="パス_4040" data-name="パス 4040" d="M834.816,11289.543a21.049,21.049,0,0,1,4.008,2.424,52.6,52.6,0,0,0,5.5-5.809c.575-.744.768-1.008.768-1.128s-.144-.192-.384-.192a57.041,57.041,0,0,0-7.44,1.08,17.986,17.986,0,0,0-4.729,1.3,1.525,1.525,0,0,1-.672.191c-.432,0-1.032-.456-1.608-1.248a3.691,3.691,0,0,1-.84-1.824,1.186,1.186,0,0,1,.144-.552,2.924,2.924,0,0,0,1.152,1.2,2.628,2.628,0,0,0,1.464.289,73.148,73.148,0,0,0,7.944-.865c2.257-.288,3.481-.456,3.7-.5a1.511,1.511,0,0,0,.769-.288,1.082,1.082,0,0,1,.6-.168c.408,0,.888.336,1.68,1.152.7.72,1.008,1.176,1.008,1.487a.5.5,0,0,1-.288.48c-.12.048-.12.048-.6.216a4.936,4.936,0,0,0-1.344.889c-.216.168-.84.647-1.776,1.319-.505.385-1.2.912-2.041,1.561-1.223.937-1.655,1.272-2.519,1.824,1.608,1.368,2.064,2.016,2.064,3.024,0,.936-.337,1.584-.816,1.584-.336,0-.529-.192-.84-.864a19.869,19.869,0,0,0-2.328-3.528,21.748,21.748,0,0,0-2.785-2.737Z" fill="#333"/>
      <path id="パス_4041" data-name="パス 4041" d="M828.672,11325.807a43.826,43.826,0,0,0,6.553-3.864,42.89,42.89,0,0,0,6.887-6.217,47.373,47.373,0,0,0-5.183,1.176,9.25,9.25,0,0,0-2.041.672c-.48.192-.528.217-.744.217-.816,0-2.04-1.562-2.04-2.568a.792.792,0,0,1,.12-.433,2.486,2.486,0,0,0,2.424,1.3,31.127,31.127,0,0,0,4.968-.721c1.921-.384,1.969-.384,2.448-.647a1.137,1.137,0,0,1,.624-.24,2.788,2.788,0,0,1,1.393.84c.336.313.432.48.432.7,0,.168-.072.264-.432.456a9.538,9.538,0,0,0-2.088,1.632,43.16,43.16,0,0,1-3.385,2.809,2.964,2.964,0,0,1,.769,1.153c.144.383.144.454.144,1.606l-.025,1.44c0,1.512.025,3.336.072,4.128a4.865,4.865,0,0,1,.025.553c0,.576-.216.888-.576.888s-.7-.312-1.033-.936a3.082,3.082,0,0,1-.456-1.32.9.9,0,0,1,.1-.359,3.869,3.869,0,0,0,.313-1.369c.143-1.56.191-2.5.191-3.384a5.017,5.017,0,0,0-.168-1.9,30.921,30.921,0,0,1-9.12,4.7Zm6.624-15.842a3.551,3.551,0,0,0,1.513,1.008,7.183,7.183,0,0,0,2.208.337,6.286,6.286,0,0,0,1.584-.169,1.663,1.663,0,0,1,.383-.071,1.694,1.694,0,0,1,1.369,1.3c0,.384-.384.552-1.224.552a10.511,10.511,0,0,1-3.984-.744,5.635,5.635,0,0,1-2.113-1.992Zm5.448,11.065a19.02,19.02,0,0,1,5.858,1.248,2.007,2.007,0,0,1,1.271,1.872c0,.552-.24.913-.624.913-.144,0-.264-.073-.7-.409a20.081,20.081,0,0,0-5.857-3.265Z" fill="#333"/>
      <path id="パス_4042" data-name="パス 4042" d="M829.68,11348.559a12.838,12.838,0,0,1,4.2,1.416,1.711,1.711,0,0,1,.912,1.584c0,.625-.312,1.152-.672,1.152-.24,0-.384-.1-.744-.552a11.681,11.681,0,0,0-3.841-3.288Zm18.529-.6a28.385,28.385,0,0,1-3.576,4.1,52.78,52.78,0,0,1-9.1,6.984,12.085,12.085,0,0,0-1.848,1.32.807.807,0,0,1-.552.239c-.48,0-1.032-.456-1.7-1.439a4.022,4.022,0,0,1-.744-1.849.8.8,0,0,1,.215-.552,2.289,2.289,0,0,0,1.8,1.488c.528,0,2.112-.792,4.609-2.353a55.8,55.8,0,0,0,10.608-8.16Zm-15.889-3.648c3.84.912,5.065,1.656,5.065,3.048,0,.672-.288,1.2-.649,1.2-.263,0-.263,0-1.3-1.271a10.927,10.927,0,0,0-3.288-2.641Zm10.273-2.064a11.122,11.122,0,0,1,2.136,1.464c.864.792,1.2,1.345,1.2,1.921s-.336,1.008-.744,1.008c-.312,0-.312,0-1.081-1.561a10.057,10.057,0,0,0-1.824-2.52Zm2.472-1.416a11.776,11.776,0,0,1,2.3,1.393c.912.7,1.225,1.176,1.225,1.848,0,.576-.24.984-.6.984-.216,0-.36-.12-.552-.48a12.2,12.2,0,0,0-2.64-3.408Z" fill="#333"/>
      <path id="パス_4043" data-name="パス 4043" d="M833.88,11378.247a29.049,29.049,0,0,1,5.665,3.145,29.628,29.628,0,0,0,2.592-4.8,3.027,3.027,0,0,0,.336-1.3c0-.576-.384-1.057-1.3-1.608a.646.646,0,0,1,.408-.145,4.2,4.2,0,0,1,1.8.673c.96.6,1.584,1.248,1.584,1.7,0,.239-.1.408-.408.744a9.073,9.073,0,0,0-1.32,1.848c-1.129,1.824-1.129,1.824-2.448,3.769,2.567,1.992,3,2.544,3,3.816,0,.744-.24,1.3-.576,1.3-.24,0-.288-.048-.888-.937a17.287,17.287,0,0,0-2.448-2.928,27.991,27.991,0,0,1-5.041,5.4,22.868,22.868,0,0,1-5.04,3.288l-.216-.359a32.666,32.666,0,0,0,4.56-3.864,43.377,43.377,0,0,0,4.68-5.545,33.379,33.379,0,0,0-5.16-3.889Z" fill="#333"/>
      <path id="パス_4044" data-name="パス 4044" d="M831.1,11407.022a13.716,13.716,0,0,1,4.633,1.8,1.844,1.844,0,0,1,.815,1.632c0,.792-.264,1.344-.672,1.344-.264,0-.384-.119-1.032-.96a12.452,12.452,0,0,0-3.912-3.528Zm17.065,1.368a24.965,24.965,0,0,1-5.04,6.457,47.473,47.473,0,0,1-6.745,5.473c-1.128.792-1.248.888-1.416,1.1-.384.456-.528.576-.84.576-.984,0-2.808-2.3-2.808-3.528a1.143,1.143,0,0,1,.12-.479,3.654,3.654,0,0,0,.864,1.056,1.557,1.557,0,0,0,.96.5,5.958,5.958,0,0,0,2.328-1.008,34.882,34.882,0,0,0,5.736-3.96,37.991,37.991,0,0,0,6.457-6.409Z" fill="#333"/>
      <path id="パス_4045" data-name="パス 4045" d="M834.888,11435.293a4.842,4.842,0,0,1,1.776.408c1.008.384,1.584.863,1.584,1.32,0,.168,0,.168-.144.527a18.163,18.163,0,0,0-.432,5.232,21.669,21.669,0,0,1,5.593,1.345c1.08.5,1.488.983,1.488,1.848,0,.7-.216,1.1-.576,1.1-.24,0-.264,0-.888-.576a13.814,13.814,0,0,0-5.641-3.12c.024,1.512.024,2.256.024,2.976v3.5c0,.72,0,.72.049,2.736.023.5.023.912.023,1.271a1.52,1.52,0,0,1-.12.816.543.543,0,0,1-.432.216c-.576,0-1.536-1.3-1.536-2.088a1.811,1.811,0,0,1,.12-.672c.36-1.152.5-4.272.5-10.394a39.172,39.172,0,0,0-.168-4.128,2.461,2.461,0,0,0-1.824-2.137A.964.964,0,0,1,834.888,11435.293Z" fill="#333"/>
      <path id="パス_4046" data-name="パス 4046" d="M835.248,11466.445a7.756,7.756,0,0,1,2.424.456c.48.191.673.432.673.768v.048c0,.192-.025.192-.193.624a18.888,18.888,0,0,0-.528,4.873c0,1.416.192,1.776.937,1.776.5,0,1.032-.192,3.215-1.225a2.1,2.1,0,0,1,.985-.288,1.17,1.17,0,0,1,1.152,1.008.762.762,0,0,1-.5.721,15.635,15.635,0,0,1-1.608.5,16.354,16.354,0,0,0-6,2.688,3.861,3.861,0,0,0-1.872,3.072c0,1.728,1.368,2.616,4.032,2.616a28.007,28.007,0,0,0,5.569-.7,2.325,2.325,0,0,1,.48-.072,1.365,1.365,0,0,1,1.3,1.176c0,.433-.264.648-1.033.793a37.3,37.3,0,0,1-4.608.312,12.288,12.288,0,0,1-4.08-.552,3.805,3.805,0,0,1-2.616-3.553c0-1.392.768-2.712,2.352-4.032a15.357,15.357,0,0,1,2.928-1.92,1.618,1.618,0,0,1-1.151-.36c-.361-.264-.576-.792-.7-1.824-.072-.576-.1-1.1-.168-2.9-.072-2.04-.1-2.4-.288-2.76-.264-.456-.719-.7-1.728-.864A1.271,1.271,0,0,1,835.248,11466.445Z" fill="#333"/>
      <path id="パス_4047" data-name="パス 4047" d="M827.951,11501.39a16.82,16.82,0,0,0,2.833.192h14.929c.672-.816.889-1.057,1.584-1.8,1.009.792,1.3,1.057,2.257,1.9.095.12.143.191.143.264,0,.12-.143.192-.36.192H830.784c-.864.023-.864.023-1.536.023-.553.024-.553.024-1.08.071Zm3.289-3.265a28.822,28.822,0,0,0,3.144.216h8.472c.624-.72.841-.936,1.513-1.632.936.744,1.2.984,2.088,1.776a.506.506,0,0,1,.12.264c0,.072-.12.145-.312.145H834.384c-.6.023-1.152.023-1.656.048a7.942,7.942,0,0,0-1.32.072Zm.1,6.433a15.408,15.408,0,0,0,2.52.216h8.9a13.9,13.9,0,0,1,1.488-1.607c.912.72,1.176.936,2.064,1.7a.728.728,0,0,1,.144.264c0,.095-.144.192-.336.192H833.856c-.72.023-.72.023-1.3.048a6.78,6.78,0,0,0-1.008.048Zm0,3.313a16.08,16.08,0,0,0,2.52.168h8.761c.624-.72.816-.96,1.487-1.68l2.209,1.752a.5.5,0,0,1,.12.264c0,.1-.168.216-.312.216H833.856c-.432,0-1.56.048-2.3.1Zm1.992,10.057c-.048.384-.288.48-1.272.48-.336,0-.432-.072-.456-.336.047-1.44.072-2.929.072-5.905,0-.792,0-1.176-.072-2.063a11.233,11.233,0,0,1,2.016,1.151h10.3c.432-.5.576-.672,1.008-1.128a17.847,17.847,0,0,1,1.536,1.1c.168.144.24.24.24.312,0,.192-.144.312-.864.769-.024.72-.024,1.08-.024,1.344,0,1.824.024,3.433.072,4.272a.325.325,0,0,1-.24.36,4.24,4.24,0,0,1-1.1.144c-.265,0-.36-.071-.408-.288v-1.3h-10.8Zm0-1.632h10.8v-4.488h-10.8Z" fill="#333"/>
      <path id="パス_4048" data-name="パス 4048" d="M833.088,11536.311a1.092,1.092,0,0,0,.768.287c.576,0,1.008-.119,4.128-1.128a8.293,8.293,0,0,0,2.256-.84c.217-.144.288-.168.408-.168a3.009,3.009,0,0,1,1.969,2.017c0,.287-.1.359-.7.6a4.914,4.914,0,0,0-1.345.96c-.815.672-3.336,3.145-4.8,4.729a5.745,5.745,0,0,1,2.689-.84,2.367,2.367,0,0,1,1.584.6c.527.48.7.912,1.08,2.5.311,1.393.744,1.681,2.424,1.681a14.143,14.143,0,0,0,1.488-.1,2.322,2.322,0,0,0,.84-.265.829.829,0,0,1,.312-.071,2.334,2.334,0,0,1,1.152.552c.432.336.6.552.6.84,0,.552-.719.744-2.808.744a7.118,7.118,0,0,1-3.865-.769,2.835,2.835,0,0,1-1.343-1.872,15.056,15.056,0,0,1-.313-1.848,1.38,1.38,0,0,0-1.439-1.368c-1.08,0-2.545.864-4.033,2.376a24.951,24.951,0,0,0-2.472,2.952c-.24.313-.408.456-.576.456-.408,0-.865-.888-.865-1.632a.75.75,0,0,1,.384-.672,26.42,26.42,0,0,0,3.481-3,82.037,82.037,0,0,0,5.881-6.48c.408-.552.5-.7.5-.84,0-.1-.095-.144-.263-.144-.817,0-3.361,1.08-5.641,2.4a2,2,0,0,1-.936.36c-.384,0-.768-.336-1.1-.984a4.277,4.277,0,0,1-.432-1.536,1.135,1.135,0,0,1,.384-.863A2.588,2.588,0,0,0,833.088,11536.311Zm3-7.993a6.573,6.573,0,0,0,3.12,1.536,8.673,8.673,0,0,0,1.753.264,1.381,1.381,0,0,1,1.032.5,1.721,1.721,0,0,1,.575,1.08.476.476,0,0,1-.479.456,2.155,2.155,0,0,1-.336-.023,2.305,2.305,0,0,0-.433-.024,15.046,15.046,0,0,0-1.992.168c-.191.024-1.439.24-3.767.624l-.1-.312c1.849-.6,3.721-1.176,4.32-1.344a6.409,6.409,0,0,1-3.935-2.713Z" fill="#333"/>
      <path id="パス_4049" data-name="パス 4049" d="M831.168,11563.646a4.918,4.918,0,0,0,3.864,1.3,21.942,21.942,0,0,0,3.433-.288c-.1-3.673-.265-4.009-2.089-4.272.336-.336.528-.384,1.2-.384a6.7,6.7,0,0,1,2.017.312c.576.192.815.432.815.792,0,.145,0,.145-.311.816a7.743,7.743,0,0,0-.433,2.544,12.221,12.221,0,0,0,4.465-1.416.683.683,0,0,1,.288-.1,3.067,3.067,0,0,1,1.248.407.722.722,0,0,1,.408.576c0,.337-.384.528-1.872.889a40.737,40.737,0,0,1-4.585.84c-.023.624-.023.984-.023,1.536,0,.648,0,1.128.023,2.185a19.964,19.964,0,0,0,2.737-.648,3.75,3.75,0,0,0,1.2-.6.575.575,0,0,1,.36-.1,2.776,2.776,0,0,1,1.224.36.493.493,0,0,1,.288.456c0,.432-.336.623-1.848,1.032a25.956,25.956,0,0,1-3.913.7c.049.936.049,1.319.072,2.16.048.912.073,1.271.145,1.872a12.442,12.442,0,0,1,5.28,2.063,2.073,2.073,0,0,1,.7,1.584c0,.5-.216.84-.528.84-.24,0-.336-.071-.96-.671a13.709,13.709,0,0,0-2.016-1.488,8.6,8.6,0,0,0-2.4-1.009c.049.528.072.769.072,1.057a2.392,2.392,0,0,1-.816,2.016,5.387,5.387,0,0,1-3.216.889c-2.4,0-4.056-1.057-4.056-2.568,0-1.7,2.232-2.9,5.424-2.9.384,0,.624,0,1.2.024-.025-1.152-.025-1.32-.025-1.656v-2.089c-.96.049-1.416.072-1.776.072a6.563,6.563,0,0,1-3.192-.528,2.088,2.088,0,0,1-1.08-1.824c0-.168.024-.407.048-.672l.36.024c.024.744.144,1.08.5,1.368a5.073,5.073,0,0,0,2.808.528,19.777,19.777,0,0,0,2.328-.169v-1.68l-.048-1.752v-.288c-1.32.12-2.28.168-3.095.168-2.281,0-3.265-.456-4.465-2.064Zm5.328,11.81a7.472,7.472,0,0,0-2.616.456q-1.3.5-1.3,1.44c0,.863.984,1.367,2.616,1.367a3.979,3.979,0,0,0,2.737-.863,1.838,1.838,0,0,0,.528-1.248c.023-.168.048-.721.048-.912v-.072A14.1,14.1,0,0,0,836.5,11575.456Z" fill="#333"/>
      <path id="パス_4050" data-name="パス 4050" d="M835.08,11611.286c2.784-1.9,3.96-3.433,4.561-6a2.749,2.749,0,0,1-1.537.479c-1.68,0-2.952-1.487-2.952-3.456,0-2.112,1.321-3.672,3.1-3.672a2.415,2.415,0,0,1,1.345.408c0-.408.023-1.729.023-2.5a4.789,4.789,0,0,0-.023-.479,32.87,32.87,0,0,0-6.049,1.2,8.892,8.892,0,0,0-1.561.647,2.22,2.22,0,0,1-.551.12,2.466,2.466,0,0,1-1.536-.912,3.564,3.564,0,0,1-.96-1.752.785.785,0,0,1,.12-.288,2.787,2.787,0,0,0,2.328,1.225,12.727,12.727,0,0,0,2.064-.217c2.832-.456,3.7-.575,6.145-.84a8,8,0,0,0-.265-2.664c-.264-.672-.84-1.008-2.063-1.176.288-.36.456-.433,1.1-.433a8.019,8.019,0,0,1,2.328.336c.576.192.912.5.912.841,0,.191-.023.239-.239.647a6.014,6.014,0,0,0-.528,2.328c.624-.071.624-.071,1.559-.144a10.813,10.813,0,0,0,3.193-.433,2.2,2.2,0,0,1,.888-.264,4.236,4.236,0,0,1,2.04.889.736.736,0,0,1,.384.647c0,.264-.168.408-.528.408a9.584,9.584,0,0,1-1.3-.145,25.628,25.628,0,0,0-3.7-.239c-.888,0-1.584.023-2.569.1-.095.912-.168,2.376-.168,3.265,0,.168,0,.456.025.815a6.275,6.275,0,0,1,.767,3.192,8.32,8.32,0,0,1-2.591,6.1,12.241,12.241,0,0,1-3.577,2.28Zm3.048-12.072c-1.08,0-1.92,1.128-1.92,2.592,0,1.513.816,2.616,1.944,2.616,1.033,0,1.536-.768,1.536-2.256C839.688,11600.174,839.185,11599.214,838.128,11599.214Z" fill="#333"/>
      <path id="パス_4051" data-name="パス 4051" d="M850.13,11624.822a3.1,3.1,0,1,1-3.1-3.1A3.074,3.074,0,0,1,850.13,11624.822Zm-5.425,0a2.346,2.346,0,0,0,2.328,2.328,2.328,2.328,0,1,0-2.328-2.328Z" fill="#333"/>
    </g>
  </g>
</svg>
