<?xml version="1.0" encoding="utf-8"?>
<!-- Generator: Adobe Illustrator 26.0.1, SVG Export Plug-In . SVG Version: 6.00 Build 0)  -->
<svg version="1.1" id="レイヤー_1" xmlns="http://www.w3.org/2000/svg" xmlns:xlink="http://www.w3.org/1999/xlink" x="0px"
	 y="0px" viewBox="0 0 73.1 410.7" style="enable-background:new 0 0 73.1 410.7;" xml:space="preserve">
<style type="text/css">
	.st0{fill:#005748;}
	.st1{fill:#FFFFFF;}
	.st2{fill:#222222;}
</style>
<path class="st0" d="M55.3,53.2H18.2c-4.7,0-8.6-3.8-8.6-8.6V8.6c0-4.7,3.8-8.6,8.6-8.6h37.1c4.7,0,8.6,3.8,8.6,8.6v36.1
	C63.9,49.4,60.1,53.2,55.3,53.2z"/>
<path class="st1" d="M23.6,42.2c0.7,0,1.2-0.6,1.2-1.3c0-1-1-2.2-4.1-2.7c1.3-1.3,2.4-2.8,3.3-4.5c0.4,0,0.7-0.1,1-0.3l-2.2-2.2
	l-1.4,1.3h-0.7v-3.9c0.7-0.1,0.9-0.2,1-0.6l-3.4-0.3v4.8h-3.4l0.1,0.4h6.5c-1.4,3.7-3.8,7-6.9,9.4l0.2,0.2c1.2-0.6,2.4-1.3,3.5-2.2
	v8.4h0.4c0.7,0.1,1.5-0.2,2-0.8v-9.5c1,0.9,1.6,2,2,3.3C22.9,42,23.2,42.1,23.6,42.2z"/>
<path class="st1" d="M32.3,47.1h-1.7V36.3h3.9c0.6,0,0.9-0.1,1.1-0.4l-2.4-1.8l-1.3,1.8h-1.3v-7.3c0.7-0.1,0.9-0.3,1-0.6l-3.5-0.3
	v8.2H24l0.1,0.4h4v10.8h-5.5l0.1,0.4H35c0.6,0,0.9-0.1,1.1-0.4l-2.5-1.9L32.3,47.1z"/>
<path class="st1" d="M51.6,33.9l-2.9-0.2v4.4c0,1.8,0.4,2.3,2.7,2.3h3.5c2.1,0,2.8-0.4,2.8-1.2c0-0.3-0.1-0.4-0.9-0.7l0-1.6h-0.2
	c-0.8,1.7-1,1.7-1.7,1.7h-3.4c-0.7,0-0.7,0-0.7-0.5v-1.2c1.6-0.2,3.3-0.6,4.8-1c0.2,0.1,0.5,0.1,0.7,0.1c0.2,0,0.4,0,0.5-0.2
	l-2.1-1.8c-1.2,0.9-2.6,1.6-4,2.2v-1.9C51.4,34.3,51.6,34.2,51.6,33.9z"/>
<path class="st1" d="M43.1,30.4v2.1c2,0,2.3-0.5,2.3-0.6v-1.5h4.9v1.9c2.1,0,2.3-0.5,2.3-0.6v-1.4h4.8c0.6,0,0.8-0.1,1-0.4l-2.3-1.7
	L55,30h-2.3v-1.6c0.7-0.1,0.8-0.2,0.9-0.6l-3.2-0.2V30h-4.9v-1.6c0.7-0.1,0.8-0.2,0.9-0.6l-3.2-0.2V30h-5.7l0.1,0.4L43.1,30.4
	L43.1,30.4z"/>
<path class="st1" d="M55.5,31.5L54.3,33H38.2l0.1,0.4h4.4c-1.1,1.8-2.6,3.4-4.4,4.5l0.1,0.3c0.8-0.3,1.6-0.6,2.3-1
	c0.5,0.4,0.9,1,1.1,1.6c0.2,0.2,0.5,0.3,0.8,0.3c-1.4,1.1-3,1.9-4.8,2.3l0.2,0.4c5-0.7,7.4-2.5,9.5-5.6c0.4,0,0.7-0.1,1-0.3
	l-2.1-1.6l-1,1h-1.9c0.7-0.6,1.3-1.2,1.8-1.9h11.4c0.6,0,0.9-0.1,1.1-0.4L55.5,31.5z M45.5,35.8c-0.5,1-1.2,1.9-2,2.7
	c0-0.1,0-0.1,0-0.2c0-0.6-0.6-1.2-2.1-1.3c0.6-0.3,1.2-0.7,1.7-1.1L45.5,35.8L45.5,35.8z"/>
<path class="st1" d="M56.2,41.8l-1.3,1.6h-2.1v-1.9c0.5-0.1,0.7-0.2,0.7-0.5l-3.1-0.2v2.6h-5.1v-1.9c0.6-0.1,0.8-0.2,0.8-0.5
	l-3.1-0.2v2.6h-5.6l0.1,0.4h5.4c-0.1,1.8-1.2,3.5-5.1,4.7l0.1,0.3c5.7-0.9,7.1-2.9,7.4-4.9h5.2v4.9c1.9,0,2.4-0.6,2.4-0.6v-4.3h4.6
	c0.6,0,0.9-0.1,1.1-0.4L56.2,41.8z"/>
<path class="st1" d="M17,13.9v-3.3h3.8c1.1,0,1.5,0.5,1.5,1.2c0,0.6-0.5,1-1.4,1h-1.8v1.5h3.3c1.3,0.1,2.4-0.8,2.5-2
	c0-0.2,0-0.3,0-0.5c0-1.6-0.8-2.7-2.4-2.7H17V6.9h-2.6v2.2h-1.6v1.5h1.6v4c0,4.3,3.7,4.2,3.7,4.2h6.4v-1.5c0,0-4.7-0.1-5.1-0.1
	C18.4,17.1,17,16,17,13.9z"/>
<path class="st1" d="M28.5,18.5c1.4,0.1,2.7-0.3,3.7-1.2c2-1.7,3.5-3.7,4.6-6.1H34c-0.2,0.5-3.7,6.1-5.5,5.1
	C28,16.1,28,15.8,28,14.1V6.9h-2.5v7.4C25.5,18.3,27.5,18.5,28.5,18.5z"/>
<path class="st1" d="M48.6,9.1V7.5H37.1v1.5h3.4v2.5h-3.4V13h3.4v1.8c0,3.4,1.4,4,3.7,4h3.9v-1.5c0,0-1.8-0.1-2.5-0.1
	c-1.7,0-3-0.5-3-2.1v-2h5.9v-1.4h-5.9V9.1L48.6,9.1z"/>
<path class="st1" d="M55.2,14.7c0,3.3-1.6,4.1-3.4,4.1h-2.4v-1.5h2c1,0,1.5-1.1,1.5-2.6v-2.7h4.3c1.1,0,1.4-0.6,1.4-1.3
	c0.1-0.7-0.5-1.4-1.2-1.5c-0.1,0-0.2,0-0.2,0h-7.8V7.5h8.6c4.2,0,4.1,5.9,0.7,5.9h-3.4V14.7z"/>
<path class="st1" d="M59.5,17.5c0.2-0.1,0.4-0.3,0.4-0.6c0-0.4-0.3-0.6-0.8-0.6H58v2.3h0.4v-0.9H59c0.4,0,0.4,0.2,0.4,0.6
	c0,0.1,0,0.2,0.1,0.3H60c-0.1-0.2-0.1-0.4-0.1-0.6C59.8,17.6,59.6,17.5,59.5,17.5z M59.1,17.3h-0.7v-0.7h0.7c0.2,0,0.4,0.1,0.4,0.3
	C59.5,17.1,59.3,17.3,59.1,17.3C59.1,17.3,59.1,17.3,59.1,17.3L59.1,17.3z"/>
<path class="st1" d="M58.9,15.5c-1.1,0-1.9,0.9-1.9,1.9c0,1.1,0.9,1.9,1.9,1.9s1.9-0.9,1.9-1.9C60.8,16.4,59.9,15.5,58.9,15.5
	C58.9,15.5,58.9,15.5,58.9,15.5z M58.9,19.1c-0.9,0-1.6-0.7-1.6-1.6s0.7-1.6,1.6-1.6c0.9,0,1.6,0.7,1.6,1.6
	C60.5,18.3,59.8,19.1,58.9,19.1C58.9,19.1,58.9,19.1,58.9,19.1z"/>
<path class="st1" d="M12.5,23.5h48.5v0.6H12.5V23.5z"/>
<path class="st2" d="M50.1,92.2c1.5-1.8,2.8-3.8,4-5.9c1.4-0.3,1.6-0.4,1.6-0.6c0-0.1-0.1-0.2-0.4-0.5c-0.8-0.7-1-0.9-1.9-1.6
	c-0.7,0.7-0.9,0.9-1.5,1.6h-1.8v-4.7c1-0.3,1.2-0.5,1.2-0.7c0-0.3-0.4-0.4-2-0.5c-0.4,0-0.9-0.1-1.6-0.2C48,80,48,80.9,48,81.9v3.4
	h-2.6c-0.8,0-1.7-0.1-2.5-0.3l0.2,1.2c0.8-0.1,1.5-0.2,2.3-0.2h6.4c-1.1,2.3-2.4,4.5-3.9,6.6c-1.5,2.1-3.3,4-5.3,5.7l0.4,0.5
	c1.8-1.1,3.5-2.5,5.1-4.1v5.6c-0.1,4.6-0.1,7.1-0.1,7.4c0.1,0.3,0.2,0.3,0.7,0.3H49c0.8,0,1.1-0.1,1.2-0.5c-0.1-1.5-0.1-1.5-0.1-7.4
	v-6.9c1.5,1,2.9,2.2,3.9,3.6c0.6,0.9,0.6,0.9,0.8,1.1c0.1,0.1,0.2,0.1,0.4,0.2c0.4,0,0.7-0.7,0.7-1.5c0-1-0.6-1.9-1.5-2.2
	c-1.4-0.8-2.8-1.3-4.3-1.7L50.1,92.2z M61.3,90.9v14.5h-5.7c-1.1,0-2.2-0.1-3.3-0.3l0.3,1.2c1-0.2,2-0.2,3-0.2h16.7
	c0.2,0,0.3-0.1,0.3-0.2c0-0.1-0.1-0.2-0.2-0.2c-0.9-1-1.9-1.9-3-2.8c-1,1.1-1.3,1.4-2.1,2.5h-3.9V90.9h8c0.2,0,0.3-0.1,0.3-0.3
	c0-0.1-0.1-0.2-0.1-0.2c-1.3-1.2-1.7-1.5-3-2.7l-1.9,2.4h-3.3v-9.6c0.9-0.4,1.3-0.6,1.3-0.8c0-0.3-0.4-0.4-2-0.6
	c-0.3,0-1-0.1-1.7-0.2c0.2,1.3,0.2,2.7,0.2,4v7.2h-4.5c-0.9,0-1.9-0.1-2.8-0.3l0.3,1.2c0.8-0.1,1.7-0.2,2.6-0.2L61.3,90.9z
	 M61.6,124.8h10.2c0.2,0,0.4-0.1,0.4-0.2c0-0.1-0.1-0.2-0.1-0.3c-1.2-1-1.5-1.3-2.8-2.3c-0.9,0.9-1.1,1.2-2,2H47c-1,0-2-0.1-2.9-0.3
	l0.2,1.2c0.9-0.2,1.8-0.2,2.7-0.2h3.7c-0.6,1.1-1.4,2.2-2.3,3.1c-1.5,1.7-3.2,3.3-5.1,4.5l0.3,0.4c1.8-0.8,3.5-1.8,4.9-3
	c1,0.7,1.8,1.5,2.5,2.5c0.2,0.3,0.3,0.3,0.5,0.4c-2.5,1.9-5.3,3.3-8.3,4.3l0.2,0.5c2.6-0.5,5.1-1.4,7.4-2.7c2.8-1.4,5.2-3.6,6.8-6.2
	c1.1-0.4,1.2-0.4,1.2-0.6c0-0.1-0.1-0.2-0.3-0.4c-0.7-0.6-0.9-0.7-1.7-1.3c-0.6,0.5-0.7,0.6-1.3,1.1h-4.5c0.7-0.8,1.4-1.6,2-2.6h6.6
	v8.2c0.1,1.6,0.4,1.7,5.5,1.7c6,0,6.8-0.2,6.8-1.2c0-0.4-0.3-0.7-0.7-0.8c-0.6-0.2-0.6-0.2-0.6-0.4v-0.7l0.2-2.5l-0.4,0
	c-0.4,1.2-0.9,2.4-1.4,3.6c-0.2,0.3-0.4,0.4-1.6,0.4h-1.3c-0.8,0-1.3,0-1.6,0c-0.9,0-2.4-0.1-2.6-0.1c-0.3-0.1-0.4-0.2-0.4-0.6v-1.8
	c2.3-0.5,4.6-1.3,6.8-2.4c0.4,0,1,0,1.2,0c0.4,0,0.6-0.1,0.6-0.3c0-0.2-0.4-0.5-2.7-1.7c-1.7,1.6-3.7,2.9-5.8,3.8L61.6,124.8z
	 M55.7,128.1c-1,1.6-2.2,3-3.6,4.2c0.2-0.3,0.3-0.6,0.3-0.9c0-0.5-0.4-0.8-1.4-1.2c-0.6-0.2-1.3-0.4-2-0.5c0.6-0.5,1-0.8,1.6-1.4
	L55.7,128.1z M54.4,119.8v-1.6c1.1-0.3,1.3-0.4,1.3-0.6c0-0.3-0.4-0.4-1.9-0.5c-0.4,0-0.9-0.1-1.6-0.2c0.1,0.7,0.1,1.4,0.1,2
	c0,0.3,0,0.5,0,0.9h-6.1c-0.9,0-1.9-0.1-2.8-0.3l0.2,1.2c0.8-0.1,1.7-0.2,2.6-0.2h6.1c0,0.6,0,0.9-0.1,2c0,0.2,0.1,0.3,0.3,0.3
	c0.6,0,1.2,0,1.7-0.2c0.1-0.1,0.1-0.1,0.1-0.3c0-0.4-0.1-0.6-0.1-0.8l0-0.6v-0.4h6.1c0,0.6,0,1-0.1,2c0,0.2,0.1,0.3,0.4,0.3
	c1.4,0,1.7-0.1,1.8-0.4c0-0.9,0-1.2,0-1.8h9.8c0.2,0,0.3-0.1,0.3-0.2c0-0.1-0.1-0.2-0.1-0.3c-1.3-1.1-1.7-1.4-3-2.4
	c-0.7,0.7-1.4,1.4-2,2.1h-4.9c0-0.4,0-0.4,0-1.6c1.1-0.3,1.3-0.4,1.3-0.6c0-0.3-0.8-0.4-3.6-0.7c0.1,0.9,0.2,1.8,0.2,2.7
	c0,0.1,0,0.2,0,0.3L54.4,119.8z M46.6,138.1c-0.9,0-1.8,0-2.7-0.2l0.2,1.2c0.8-0.2,1.7-0.2,2.5-0.2h5.8c-0.2,1.4-0.8,2.8-1.8,3.8
	c-1.4,1.4-3.3,2.3-7,3.2l0.1,0.5c3.9-0.4,6.7-1.4,8.6-3.2c1.2-1.1,2-2.7,2.1-4.3h6v2.1c0,1.6,0,2.5-0.1,4.7c0,0.3,0.1,0.4,0.4,0.4
	c0.6,0,1.1,0,1.7-0.2c0.1-0.1,0.2-0.2,0.2-0.3c-0.1-3.7-0.1-3.9-0.1-4.7v-2h9.7c0.1,0,0.3-0.1,0.3-0.2c0-0.1-0.1-0.2-0.1-0.3
	c-1.2-1.1-1.6-1.4-2.9-2.4c-0.9,0.9-1.1,1.2-2,2.1h-4.9v-1.4c1.1-0.4,1.1-0.5,1.1-0.7c0-0.3-0.3-0.3-3.3-0.6
	c0.1,0.9,0.1,1.8,0.1,2.7h-5.9c0.1-0.4,0.1-0.5,0.2-1.5c1-0.4,1.2-0.4,1.2-0.6s-0.5-0.4-1.9-0.6c-0.4,0-0.9-0.1-1.5-0.2
	c0.1,0.5,0.1,0.9,0.1,1.4c0,0.5,0,1-0.1,1.6L46.6,138.1z M57.8,166.5c-1.6,0-2.9,1.3-2.9,2.9s1.3,2.9,2.9,2.9c1.6,0,2.9-1.3,2.9-2.9
	c0,0,0,0,0,0C60.7,167.8,59.4,166.5,57.8,166.5z M45,201.9c1,1.7,2.8,2.7,4.8,2.6c0.8,0,1.7-0.1,2.5-0.2c-0.1,3.2-0.1,3.2-0.2,4.6
	c0,0.6,0,1.1-0.1,1.5c-2.8,1.4-3.9,2.1-5.1,3.3c-0.5,0.5-0.9,1.1-1,1.8c0,0.6,0.5,1.2,1.1,1.3c0.8,0.4,1.5,0.9,2.1,1.4
	c2,1.7,2,1.7,2.4,1.7c0.7-0.1,1.3-0.5,1.5-1.2c0.3-0.6,0.4-1.2,0.4-1.9c0-0.3,0-0.6,0-1.2c0-1,0-1,0-4.4c2.7-1.4,5.6-2.2,8.7-2.3
	c3.1,0,4.7,1.3,4.7,3.8c0,2.6-1.7,4.4-4,4.4c-1.1,0-2.2-0.4-3-1.2c-0.8-0.8-1.5-1.7-1.9-2.8l-0.5,0.2c1.1,3.7,3.2,5.7,6.2,5.7
	c3,0,5.5-2.4,5.5-5.4c0,0,0-0.1,0-0.1c0-3.4-2.8-5.5-7.1-5.5c-2.9,0.1-5.8,0.7-8.5,1.8c0-1.9,0.1-3.3,0.1-4.2
	c0.1-1.2,0.1-1.2,0.1-1.6c1.6-0.3,3.2-0.9,4.7-1.6c1.2-0.5,1.4-0.8,1.4-1.2c0-0.3-0.2-0.6-0.5-0.7c-0.4-0.2-0.8-0.3-1.2-0.3
	c-0.3,0-0.5,0.1-0.8,0.3c-1,0.9-2.2,1.5-3.5,1.9c0-1.6,0.3-3.3,1-4.8c0.4-0.6,0.4-0.6,0.4-0.8c0-0.4-0.3-0.8-0.7-1
	c-1-0.5-2.2-0.8-3.3-0.8c-0.5-0.1-1,0.1-1.4,0.4c2.2,0.4,2.6,1.1,2.6,4.4c0,0.6,0,2,0,2.9c-1,0.3-2.1,0.4-3.2,0.4
	c-1.4,0-2.8-0.6-3.8-1.6L45,201.9z M51.9,212.1c0,0.2-0.1,1.8-0.2,4.6c0,0.6-0.2,0.8-0.6,0.8c-0.7-0.1-1.4-0.2-2-0.5
	c-0.9-0.3-1.3-0.7-1.3-1c0-0.4,0.3-0.9,1-1.5C49.8,213.6,50.8,212.8,51.9,212.1L51.9,212.1z M63.1,198.8c0.8,0.2,1.5,0.5,2.2,0.8
	c0.9,0.4,1.6,1.1,2,2c-1.1,0.8-2.3,1.5-3.5,2.1L64,204c1.3-0.4,2.6-0.7,3.9-0.9c0.2,0,0.5,0,0.7,0.1c0.2,0,0.3,0.1,0.5,0.1
	c0.5,0,0.9-0.3,1-0.8c0,0,0-0.1,0-0.1c0-1-0.8-2-2.2-2.8c-1.5-0.7-3.1-1.1-4.7-1.2L63.1,198.8z M47.1,241.7h2.1
	c-0.1,2.4-0.4,4.8-0.9,7.2c-0.8,3.9-2.8,7.4-5.7,10.1l0.3,0.4c0.8-0.5,1.6-1.1,2.3-1.7c1.7-1.6,3-3.5,4-5.6c0.7-1.7,1.2-3.4,1.5-5.2
	h4.6c-0.2,2.8-0.6,5.7-1.2,8.5c-0.3,1.1-0.5,1.4-1.2,1.4c-0.5,0-2.5-0.2-4.3-0.4l-0.1,0.5c3,0.7,3.5,1,3.5,2.4
	c0.8-0.1,1.6-0.3,2.4-0.6c0.6-0.4,1.1-0.9,1.3-1.6c0.8-3.1,1.3-6.2,1.5-9.4c1-0.5,1-0.5,1-0.7c0-0.1,0-0.2-0.3-0.4
	c-0.5-0.5-1.1-1.1-1.7-1.5c-0.4,0.4-0.8,0.7-1.1,1.2h-4.4c0.3-1.5,0.4-3,0.5-4.5h4.3v1.3c0,0.3,0.2,0.4,0.7,0.4
	c0.5,0,0.9-0.1,1.3-0.2c0.2-0.1,0.3-0.2,0.3-0.4c-0.1-3.1-0.1-3.3-0.2-8.6c0.5-0.4,0.8-0.5,0.9-0.5c0.1-0.1,0.1-0.2,0.1-0.3
	c0-0.1-0.1-0.3-0.4-0.5c-0.6-0.5-1.2-1-1.9-1.4c-0.5,0.6-0.6,0.8-1.1,1.4h-7.6c-0.9-0.6-1.8-1.1-2.8-1.4c0.1,1.4,0.1,3.6,0.1,6.9
	c0,2,0,2.9-0.1,5.2v0.1c0,0.3,0.2,0.4,0.6,0.4c0.4,0,0.8,0,1.2-0.1c0.3-0.1,0.3-0.2,0.3-0.4L47.1,241.7z M47.1,233.7h8.5v7.2h-8.5
	L47.1,233.7z M63.5,234.6c1.1-0.3,1.3-0.4,1.3-0.7c0-0.4-0.9-0.6-3.5-0.8c0.1,0.9,0.2,3.8,0.2,8.6c0,4.4,0,8.3-0.1,10.3v0.1
	c0,0.2,0.2,0.4,0.5,0.4H62c0.2,0,0.4,0,0.5,0c0.9,0,1.2-0.2,1.2-0.5v-0.2c-0.1-3.7-0.1-4-0.1-5.2L63.5,234.6z M67.9,256.3
	c0,0.3-0.1,0.4-0.5,0.4c-1.2,0-2.4-0.1-3.6-0.2c-0.4,0-0.9-0.1-1.6-0.1v0.5c1.2,0.2,2.3,0.5,3.5,1c0.5,0.3,0.5,0.3,0.9,1.6
	c2.7-0.6,3.6-1.1,3.6-2.2v-0.4c-0.1-2.4-0.1-2.4-0.2-12.1v-12c0.7-0.3,1-0.5,1.1-0.5c0.1-0.1,0.1-0.2,0.1-0.3c0-0.3-0.5-0.4-2-0.7
	c-0.5,0-1-0.1-1.5-0.2c0.1,0.9,0.2,1.7,0.2,2.6L67.9,256.3z M47.2,286.2c-0.6,1-1.3,2-2.1,2.8c-0.5,0.5-0.5,0.6-0.5,1
	c0,0.6,0.1,1.2,0.4,1.8c0.2,0.5,0.4,0.7,0.7,0.7c0.3,0,0.4-0.2,1.1-1.7c1.1,1.1,2,2.2,2.8,3.5c0.1,0.2,0.4,1.2,0.5,1.5
	c0.2,0.6,0.4,0.9,0.8,0.9c0.8,0,1.4-1.5,1.4-3.3c0-0.5,0-1-0.1-1.5c-0.2-2.5-0.3-4-0.3-5.7c0-0.5,0-0.9,0-1.7
	c1.5-1.8,3.1-3.5,4.9-5.1c2.6-2.3,4.2-3.2,5.6-3.2c1.2,0,2,0.9,2,2.5c0,1.2-0.1,1.6-0.8,5.1c-0.4,1.9-0.7,3.8-0.8,5.7
	c0,2.9,1.3,4.5,3.7,4.5c2.3,0,4.8-1.3,7.1-3.7l-0.3-0.4c-1.7,1.3-3.8,2.1-6,2.3c-0.6,0-1.2-0.2-1.6-0.5c-0.6-0.4-0.8-1.1-0.8-2.4
	c0-1.8,0.2-3.5,0.6-5.2c0.4-1.5,0.6-3.1,0.6-4.7c0.1-1-0.2-2-0.9-2.8c-0.6-0.7-1.6-1.2-2.5-1.2c-1.4,0-2.9,0.7-5.2,2.3
	c-2,1.5-3.8,3.1-5.6,4.9c0-0.4,0-0.8,0.1-1.2c0.3-0.7,0.6-1.4,1-2.1c0.4-0.7,0.4-0.7,0.4-0.9c0-0.3-0.2-0.5-0.9-1.2
	c0.1-0.9,0.3-1.7,0.6-2.5c0.3-1,0.3-1,0.3-1.3c0-0.6-0.6-1.4-1.7-2.1c-0.6-0.5-1.3-0.8-2-0.9c-0.2,0-0.3,0.1-0.4,0.2
	c1.5,1.2,1.8,1.7,1.8,3.6c0,1.1-0.1,2.3-0.2,3.4c-1.4,0.9-3,1.5-4.6,1.9c-0.7,0-1.4-0.5-2.1-1.5c-0.1,0.2-0.1,0.4-0.1,0.5
	c0,1,1.5,2.9,2.4,2.9c0.3,0,0.5-0.1,1.1-0.5c0.6-0.4,2.3-1.6,3.2-2.2c0,0.5,0,0.5-0.1,1.1c0,0.8,0,0.8-0.1,1.3L47.2,286.2z
	 M50.7,283.2c-0.1,1.3-0.1,2-0.1,3.6c0,4.8,0,4.8-0.1,6c-1.2-0.8-2.3-1.6-3.4-2.6c0.6-1.3,1-2,1.7-3.4
	C50.2,284.2,50.2,284.2,50.7,283.2z M57.7,333.5c2.2-0.3,4.3-1,6.2-2c4-2.1,6.4-5.7,6.4-9.7c0.1-2.8-1-5.6-3.1-7.5
	c-2.3-2-5.2-3-8.3-2.9c-4.1,0-8.1,1.6-11,4.5c-1.7,1.7-2.7,3.9-2.9,6.3c0,1,0.3,2,0.7,2.9c0.6,1,1,2,1.4,3c0.2,0.7,0.5,1.4,0.9,2
	c0.3,0.4,0.9,0.7,1.4,0.7c1.2,0,2.8-1.6,4.8-4.8c2.4-3.9,4.2-8.6,4.2-11.1c0-1-0.4-1.9-1-2.7c0.4,0,0.7-0.1,1.1-0.1
	c1.9,0,3.9,0.5,5.5,1.5c2.4,1.5,3.8,4.2,3.6,7.1c0,2.8-1,5.6-2.8,7.7c-2,2.2-4.6,3.8-7.5,4.4L57.7,333.5z M56.9,312.4
	c0.3,0.5,0.4,1,0.4,1.6c0,2-1.7,6.1-4.1,9.9c-1.6,2.5-3.1,4.2-3.8,4.2c-0.4,0-0.8-0.4-1.2-0.9c-0.8-1.2-1.3-2.7-1.3-4.2
	C47,318,51.3,313.4,56.9,312.4L56.9,312.4z M70.5,362.7c0.1,0,0.3-0.1,0.3-0.2c0,0-0.1-0.2-0.2-0.3c-1.3-1.1-1.7-1.4-3.1-2.5
	c-0.6,0.7-1.2,1.5-1.8,2.2H47.3c-0.9,0-1.7-0.1-2.5-0.3l0.3,1.2c0.7-0.1,1.5-0.2,2.3-0.2h6.5c-0.9,2.6-2.1,5.1-3.4,7.4
	c-0.2,0-0.4,0-0.6,0c-0.4,0-0.8,0-1.3,0c-1.8-0.1-1.8-0.1-2.6-0.1c0.2,0.9,0.4,2.2,0.6,3.1c0.1,0.5,0.2,0.6,0.4,0.6
	c0.3,0,0.4-0.2,0.7-1.1c5.8-0.5,11.5-1.3,17.2-2.5c0.6,0.9,1.2,1.9,1.7,2.9c0.2,0.4,0.3,0.5,0.5,0.5c0.2,0,0.4-0.1,0.5-0.3
	c0.3-0.6,0.5-1.3,0.5-2c-0.1-0.9-0.5-1.7-1.2-2.2c-1.9-1.8-4.1-3.4-6.4-4.8l-0.3,0.3c1.6,1.5,2.9,3.2,4.2,5c-3.2,0.4-8,0.6-13,0.7
	c1.9-2.1,2.2-2.7,5.5-7.4L70.5,362.7z M43.2,359.8c2.8-1.4,5.3-3.1,7.6-5.2c2.7-2.3,5-5,6.9-8c0.3,0.9,0.8,1.7,1.3,2.4
	c1.3,1.9,2.8,3.6,4.4,5.2c2.1,2.1,4.5,3.8,7.1,5.1c0.6-1.8,1-2.3,2.3-2.6v-0.3c-2.7-0.6-5.4-1.7-7.7-3.2c-2.8-1.7-5.2-4.1-6.9-6.9
	c0.7,0,1.2-0.3,1.2-0.6c0-0.3-0.3-0.4-3.8-1.2c-0.2,0.8-0.6,1.6-1.1,2.3c-2,3.2-4.3,6.1-7,8.6c-1.4,1.4-3,2.7-4.7,3.8L43.2,359.8z
	 M49.7,357.5c1.2-0.1,1.7-0.1,2.2-0.1h12.7c0.3,0,0.4-0.1,0.4-0.2c0-0.1-0.1-0.2-0.2-0.3c-1.2-1.1-1.7-1.4-2.9-2.4
	c-0.8,0.9-1,1.2-1.8,2.1H52c-0.9,0-1.7-0.1-2.6-0.3L49.7,357.5z M57.8,394.5c-1.6,0-2.9,1.3-2.9,2.9c0,1.6,1.3,2.9,2.9,2.9
	c1.6,0,2.9-1.3,2.9-2.9c0,0,0,0,0,0C60.7,395.8,59.4,394.5,57.8,394.5z"/>
<path class="st2" d="M1.2,94.8c2.8-1.4,5.3-3.1,7.6-5.2c2.8-2.5,5.3-5.4,7.2-8.7c1.5,2.9,3.4,5.6,5.7,7.9c2,2.2,4.4,3.9,7,5.2
	c0.7-1.5,1.2-2,2.5-2.1l0.1-0.4c-3-0.8-5.8-2.1-8.3-4c-2.7-1.8-4.9-4.2-6.6-6.9c0.9-0.2,1.2-0.4,1.2-0.6c0-0.3-0.4-0.4-2.1-0.8
	c-0.4-0.1-0.9-0.2-1.6-0.3c-0.1,0.5-0.3,1.1-0.6,1.6c-1,1.9-2.2,3.6-3.5,5.3c-2.5,3.3-5.6,6.2-9,8.5L1.2,94.8z M9,91.5
	c0.7-0.1,1.4-0.2,2.1-0.2H22c0.4,0,0.4,0,0.4-0.2c0-0.1-0.1-0.2-0.3-0.4c-1.2-1-1.5-1.2-2.7-2.1c-0.7,0.8-1,1.1-1.7,1.9h-6.7
	c-0.8,0-1.6-0.1-2.4-0.3L9,91.5z M8.7,105.6h13.5v1.5c0,0.3,0.2,0.4,0.5,0.4c0.5,0,1.1-0.1,1.6-0.2c0.2-0.1,0.3-0.2,0.3-0.4v-0.1
	c-0.1-5-0.1-5-0.1-9.6c0.8-0.3,1.1-0.5,1.1-0.7c0-0.1-0.1-0.2-0.3-0.4c-0.7-0.6-1.3-1.1-2-1.6c-0.5,0.5-0.9,1.1-1.3,1.6H9
	c-0.8-0.6-1.7-1.1-2.6-1.6c0.1,1.2,0.1,2.4,0.1,4.9c0,1.3,0,2.9-0.1,7.9c0,0.4,0.1,0.4,0.4,0.4c0.6,0,1.1-0.1,1.7-0.2
	c0.2-0.1,0.2-0.2,0.2-0.4V105.6z M8.7,96.7h13.5v8.2H8.7L8.7,96.7z M6,119.8h19.6v22.4c0,0.3-0.1,0.4-0.4,0.4h-0.2
	c-1.9-0.1-1.9-0.1-5.9-0.2v0.5c2.8,0.4,3,0.4,3.5,0.7c0.5,0.3,0.8,0.6,1.1,1.8c1.1-0.1,2.2-0.4,3.2-0.9c0.6-0.2,1-0.9,1-1.5v-2.6
	c-0.1-5.5-0.1-5.5-0.1-6.6v-13c0.3-0.2,0.5-0.4,0.6-0.4c0.1-0.1,0.1-0.1,0.2-0.1c0.3-0.2,0.4-0.3,0.4-0.4s-0.1-0.3-0.4-0.4
	c-0.7-0.6-1.5-1.1-2.2-1.6c-0.5,0.7-0.7,0.9-1.2,1.6H6.5c-1.2-0.6-1.6-0.8-2.8-1.4c0.1,1.6,0.1,6.3,0.1,12.4
	c0,4.5-0.1,11.5-0.2,14.9c0,0.4,0.2,0.5,0.8,0.5c1.3,0,1.7-0.1,1.7-0.6C6,139.8,6,139.8,6,137.1L6,119.8z M8,125.3
	c0.9-0.2,1.8-0.3,2.7-0.3h13.2c0.2,0,0.3-0.1,0.4-0.3c0-0.1-0.1-0.2-0.2-0.3c-1.1-1-1.5-1.3-2.6-2.2c-0.5,0.7-1.1,1.4-1.6,2.1h-9
	c-1.1,0-2.2-0.2-3.2-0.4L8,125.3z M12.2,137.1h7.3v1.9c0,0.4,0.2,0.5,0.6,0.5c1.2,0,1.6-0.1,1.6-0.6c-0.1-1.7-0.1-3.2-0.1-6
	c0-0.6,0-1.5,0-2.7c0.7-0.6,0.9-0.8,0.9-1c0-0.1-0.1-0.2-0.3-0.4c-0.6-0.5-1.3-1-2-1.4c-0.5,0.6-0.7,0.8-1.2,1.4h-6.5
	c-0.8-0.5-1.7-0.9-2.6-1.2c0.1,1.3,0.1,2.8,0.1,6c0,2,0,3.3-0.1,5.8v0.1c0,0.3,0.2,0.4,0.7,0.4c0.4,0,0.9-0.1,1.3-0.2
	c0.2-0.1,0.3-0.3,0.3-0.4L12.2,137.1z M12.2,129.5h7.3v6.8h-7.3V129.5z M19.6,162.8h10.2c0.2,0,0.4-0.1,0.4-0.2
	c0-0.1-0.1-0.2-0.1-0.3c-1.2-1-1.5-1.3-2.8-2.3c-0.9,0.9-1.1,1.2-2,2H5c-1,0-2-0.1-2.9-0.3l0.2,1.2c0.9-0.2,1.8-0.2,2.7-0.2h3.7
	c-0.6,1.1-1.4,2.2-2.3,3.1c-1.5,1.7-3.2,3.3-5.1,4.5l0.3,0.4c1.8-0.8,3.5-1.8,4.9-3c1,0.7,1.8,1.5,2.5,2.5c0.2,0.3,0.3,0.3,0.5,0.4
	C7,172.6,4.2,174,1.2,175l0.2,0.5c2.6-0.5,5.1-1.4,7.4-2.7c2.8-1.4,5.2-3.6,6.8-6.2c1.1-0.4,1.2-0.4,1.2-0.6c0-0.1-0.1-0.2-0.3-0.4
	c-0.7-0.6-0.9-0.7-1.7-1.3c-0.6,0.5-0.7,0.6-1.3,1.1H9.1c0.7-0.8,1.4-1.6,2-2.6h6.6v8.2c0.1,1.6,0.4,1.7,5.5,1.7
	c6,0,6.8-0.2,6.8-1.2c0-0.4-0.3-0.7-0.7-0.8c-0.6-0.2-0.6-0.2-0.6-0.4v-0.7l0.2-2.5l-0.4,0c-0.4,1.2-0.9,2.4-1.4,3.6
	c-0.2,0.3-0.4,0.4-1.6,0.4h-1.3c-0.8,0-1.3,0-1.6,0c-0.9,0-2.4-0.1-2.6-0.1c-0.3-0.1-0.4-0.2-0.4-0.6v-1.8c2.3-0.5,4.6-1.3,6.8-2.4
	c0.4,0,1,0,1.2,0c0.4,0,0.6-0.1,0.6-0.3c0-0.2-0.4-0.5-2.7-1.7c-1.7,1.6-3.7,2.9-5.8,3.8L19.6,162.8z M13.7,166.1
	c-1,1.6-2.2,3-3.6,4.2c0.2-0.3,0.3-0.6,0.3-0.9c0-0.5-0.4-0.8-1.4-1.2c-0.6-0.2-1.3-0.4-2-0.5c0.6-0.5,1-0.8,1.6-1.4L13.7,166.1z
	 M12.4,157.8v-1.6c1.1-0.3,1.3-0.4,1.3-0.6c0-0.3-0.4-0.4-1.9-0.5c-0.4,0-0.9-0.1-1.6-0.2c0.1,0.7,0.1,1.4,0.1,2c0,0.3,0,0.5,0,0.9
	H4.3c-0.9,0-1.9-0.1-2.8-0.3l0.2,1.2c0.8-0.1,1.7-0.2,2.6-0.2h6.1c0,0.6,0,0.9-0.1,2c0,0.2,0.1,0.3,0.3,0.3c0.6,0,1.2,0,1.7-0.2
	c0.1-0.1,0.1-0.1,0.1-0.3c0-0.4-0.1-0.6-0.1-0.8l0-0.6v-0.4h6.1c0,0.6,0,1-0.1,2c0,0.2,0.1,0.3,0.4,0.3c1.4,0,1.7-0.1,1.8-0.4
	c0-0.9,0-1.2,0-1.8h9.8c0.2,0,0.3-0.1,0.3-0.2c0-0.1-0.1-0.2-0.1-0.3c-1.3-1.1-1.7-1.4-3-2.4c-0.7,0.7-1.4,1.4-2,2.1h-4.9
	c0-0.4,0-0.4,0-1.6c1.1-0.3,1.3-0.4,1.3-0.6c0-0.3-0.8-0.4-3.6-0.7c0.1,0.9,0.2,1.8,0.2,2.7c0,0.1,0,0.2,0,0.3L12.4,157.8z
	 M4.6,176.1c-0.9,0-1.8,0-2.7-0.2l0.2,1.2c0.8-0.2,1.7-0.2,2.5-0.2h5.8c-0.2,1.4-0.8,2.8-1.8,3.8c-1.4,1.4-3.3,2.3-7,3.2l0.1,0.5
	c3.9-0.4,6.7-1.4,8.6-3.2c1.2-1.1,2-2.7,2.1-4.3h6v2.1c0,1.6,0,2.5-0.1,4.7c0,0.3,0.1,0.4,0.4,0.4c0.6,0,1.1,0,1.7-0.2
	c0.1-0.1,0.2-0.2,0.2-0.3c-0.1-3.7-0.1-3.9-0.1-4.7v-2h9.7c0.1,0,0.3-0.1,0.3-0.2c0-0.1-0.1-0.2-0.1-0.3c-1.2-1.1-1.6-1.4-2.9-2.4
	c-0.9,0.9-1.1,1.2-2,2.1h-4.9v-1.4c1.1-0.4,1.1-0.5,1.1-0.7c0-0.3-0.3-0.3-3.3-0.6c0.1,0.9,0.1,1.8,0.1,2.7h-5.9
	c0.1-0.4,0.1-0.5,0.2-1.5c1-0.4,1.2-0.4,1.2-0.6s-0.5-0.4-1.9-0.6c-0.4,0-0.9-0.1-1.5-0.2c0.1,0.5,0.1,0.9,0.1,1.4
	c0,0.5,0,1-0.1,1.6L4.6,176.1z M15.8,204.5c-1.6,0-2.9,1.3-2.9,2.9s1.3,2.9,2.9,2.9c1.6,0,2.9-1.3,2.9-2.9c0,0,0,0,0,0
	C18.7,205.8,17.4,204.5,15.8,204.5z M11.5,244.8v-5c1-0.3,1.3-0.5,1.3-0.8c0-0.3-0.3-0.4-1.7-0.5c-0.4,0-0.9-0.1-1.6-0.2
	c0.1,1.2,0.1,1.6,0.1,2.1v2.8c0,1.6,0,1.6,0,1.7v0.6l0.1,0.6c-2.6,1.4-5.2,2.5-7.9,3.5l0.2,0.4c3-0.6,5.9-1.6,8.6-3
	c0.7,0.3,1.3,0.4,3.6,0.4c4.1,0,7.7-0.1,8.5-0.2c0.9-0.2,1.4-0.6,1.4-1.1c0-0.3-0.2-0.5-0.5-0.6c-0.8-0.4-0.8-0.4-0.8-0.7l0.1-0.5
	l0.2-3.6l-0.4-0.1c-1.1,3.8-1.4,4.6-1.8,4.9c-0.4,0.3-1.6,0.4-6,0.4c-0.7,0-1.1,0-1.9-0.1c3.5-1.8,6.6-4.2,9.2-7.2
	c0.4,0,0.7,0.1,0.8,0.1c0.4,0,0.7-0.2,0.7-0.3c0-0.3-0.9-0.9-2.8-1.8c-1.2,2-2.8,3.7-4.6,5.2c-1.5,1.2-3,2.3-4.6,3.3L11.5,244.8z
	 M5.4,234.5c0-0.4,0-0.6,0-1c0-0.5,0-0.5,0-1.1H5c-0.1,1.2-0.5,2.3-1.1,3.3c-0.3,0.7-0.8,1.3-1.4,1.8c-0.7,0.5-0.8,0.7-0.8,1.2
	c0,0.5,0.2,1,0.3,1.5c0.2,0.4,0.4,0.6,0.6,0.6c1.2,0,2.4-2.4,2.8-5.4h21.1l-1.1,3.2l0.3,0.1c0.4-0.4,1.4-1.2,2.9-2.4
	c0.2-0.1,0.4-0.1,0.7-0.2l0.6-0.1c0.2,0,0.4-0.1,0.6-0.2c0.1-0.1,0.1-0.2,0.2-0.3c0-0.2-0.1-0.3-0.3-0.5c-1.2-0.9-1.6-1.2-2.8-2
	c-0.5,0.5-0.9,1-1.2,1.5h-9.2v-2.3c1.1-0.4,1.4-0.6,1.4-0.8c0-0.2-0.1-0.3-0.4-0.4c-1.1-0.2-2.2-0.4-3.3-0.5
	c0.1,0.8,0.1,1.5,0.1,2.3v1.7L5.4,234.5z M14.8,257.1H7.6v-5.2c1-0.3,1.4-0.5,1.4-0.8s-0.2-0.4-3.7-0.8c0,0.6,0.1,0.9,0.1,1.2
	c0,1.2,0,5.9-0.1,7.8c0,0.3,0.1,0.4,0.5,0.4c1.7-0.1,1.8-0.1,1.8-0.6v-1.4H24v1.6c0,0.2,0.2,0.3,0.5,0.3c0.5,0,1,0,1.5-0.1
	c0.2-0.1,0.3-0.2,0.3-0.5c-0.1-2.1-0.1-2.9-0.1-4.5c0-0.4,0-0.4,0-3.1c0.9-0.4,1.2-0.6,1.2-0.9c0-0.4-0.4-0.5-1.7-0.6
	c-0.4,0-1-0.1-1.7-0.2c0.1,1.7,0.1,1.9,0.1,2.4v4.8H17v-7c1.1-0.4,1.2-0.5,1.2-0.8c0-0.2-0.1-0.3-0.3-0.3c-1-0.2-2.1-0.4-3.1-0.4
	c0.1,0.8,0.1,1.7,0.1,2.5L14.8,257.1z M7.1,239.1c-0.3,1-0.9,2-1.6,2.8c-0.5,0.6-1.2,1.2-1.9,1.7c-0.8,0.4-0.9,0.5-0.9,0.9
	c0,0.8,0.6,1.9,1,1.9c0.5,0,1.5-0.9,2.2-2.1c0.9-1.6,1.5-3.4,1.7-5.2L7.1,239.1z M23.6,240c0.9,0.8,1.7,1.8,2.3,2.8
	c0.5,0.8,1,1.7,1.5,2.5c0.3,0.5,0.4,0.7,0.7,0.7c0.5,0,1.1-1.1,1.1-2c0-0.6-0.2-1.1-0.7-1.5c-1.4-1.2-3-2.2-4.7-2.9L23.6,240z
	 M12.3,236.3c0.8,0.5,1.5,1.1,2.1,1.8c0.4,0.5,0.8,1.1,1.2,1.6c0.3,0.4,0.4,0.6,0.5,0.6c0.4,0,0.9-0.9,0.9-1.6c0-0.4-0.1-0.7-0.4-1
	c-1.2-0.8-2.6-1.4-4-1.7L12.3,236.3z M19.6,276.8h10.2c0.2,0,0.4-0.1,0.4-0.2c0-0.1-0.1-0.2-0.1-0.3c-1.2-1-1.5-1.3-2.8-2.3
	c-0.9,0.9-1.1,1.2-2,2H5c-1,0-2-0.1-2.9-0.3l0.2,1.2c0.9-0.2,1.8-0.2,2.7-0.2h3.7c-0.6,1.1-1.4,2.2-2.3,3.1
	c-1.5,1.7-3.2,3.3-5.1,4.5l0.3,0.4c1.8-0.8,3.5-1.8,4.9-3c1,0.7,1.8,1.5,2.5,2.5c0.2,0.3,0.3,0.3,0.5,0.4C7,286.6,4.2,288,1.2,289
	l0.2,0.5c2.6-0.5,5.1-1.4,7.4-2.7c2.8-1.4,5.2-3.6,6.8-6.2c1.1-0.4,1.2-0.4,1.2-0.6c0-0.1-0.1-0.2-0.3-0.4c-0.7-0.6-0.9-0.7-1.7-1.3
	c-0.6,0.5-0.7,0.6-1.3,1.1H9.1c0.7-0.8,1.4-1.6,2-2.6h6.6v8.2c0.1,1.6,0.4,1.7,5.5,1.7c6,0,6.8-0.2,6.8-1.2c0-0.4-0.3-0.7-0.7-0.8
	c-0.6-0.2-0.6-0.2-0.6-0.4v-0.7l0.2-2.5l-0.4,0c-0.4,1.2-0.9,2.4-1.4,3.6c-0.2,0.3-0.4,0.4-1.6,0.4h-1.3c-0.8,0-1.3,0-1.6,0
	c-0.9,0-2.4-0.1-2.6-0.1c-0.3-0.1-0.4-0.2-0.4-0.6v-1.8c2.3-0.5,4.6-1.3,6.8-2.4c0.4,0,1,0,1.2,0c0.4,0,0.6-0.1,0.6-0.3
	c0-0.2-0.4-0.5-2.7-1.7c-1.7,1.6-3.7,2.9-5.8,3.8L19.6,276.8z M13.7,280.1c-1,1.6-2.2,3-3.6,4.2c0.2-0.3,0.3-0.6,0.3-0.9
	c0-0.5-0.4-0.8-1.4-1.2c-0.6-0.2-1.3-0.4-2-0.5c0.6-0.5,1-0.8,1.6-1.4H13.7z M12.4,271.8v-1.6c1.1-0.3,1.3-0.4,1.3-0.6
	c0-0.3-0.4-0.4-1.9-0.5c-0.4,0-0.9-0.1-1.6-0.2c0.1,0.7,0.1,1.4,0.1,2c0,0.3,0,0.5,0,0.9H4.3c-0.9,0-1.9-0.1-2.8-0.3l0.2,1.2
	c0.8-0.1,1.7-0.2,2.6-0.2h6.1c0,0.6,0,0.9-0.1,2c0,0.2,0.1,0.3,0.3,0.3c0.6,0,1.2,0,1.7-0.2c0.1-0.1,0.1-0.1,0.1-0.3
	c0-0.4-0.1-0.6-0.1-0.8l0-0.6v-0.4h6.1c0,0.6,0,1-0.1,2c0,0.2,0.1,0.3,0.4,0.3c1.4,0,1.7-0.1,1.8-0.4c0-0.9,0-1.2,0-1.8h9.8
	c0.2,0,0.3-0.1,0.3-0.2c0-0.1-0.1-0.2-0.1-0.3c-1.3-1.1-1.7-1.4-3-2.4c-0.7,0.7-1.4,1.4-2,2.1h-4.9c0-0.4,0-0.4,0-1.6
	c1.1-0.3,1.3-0.4,1.3-0.6c0-0.3-0.8-0.4-3.6-0.7c0.1,0.9,0.2,1.8,0.2,2.7c0,0.1,0,0.2,0,0.3L12.4,271.8z M4.6,290.1
	c-0.9,0-1.8,0-2.7-0.2l0.2,1.2c0.8-0.2,1.7-0.2,2.5-0.2h5.8c-0.2,1.4-0.8,2.8-1.8,3.8c-1.4,1.4-3.3,2.3-7,3.2l0.1,0.5
	c3.9-0.4,6.7-1.4,8.6-3.2c1.2-1.1,2-2.7,2.1-4.4h6v2.1c0,1.6,0,2.5-0.1,4.7c0,0.3,0.1,0.4,0.4,0.4c0.6,0,1.1,0,1.7-0.2
	c0.1-0.1,0.2-0.2,0.2-0.3c-0.1-3.7-0.1-3.9-0.1-4.7v-1.9h9.7c0.1,0,0.3-0.1,0.3-0.2c0-0.1-0.1-0.2-0.1-0.3c-1.2-1.1-1.6-1.4-2.9-2.4
	c-0.9,0.9-1.1,1.2-2,2.1h-4.9v-1.4c1.1-0.4,1.1-0.5,1.1-0.7c0-0.3-0.3-0.3-3.3-0.6c0.1,0.9,0.1,1.8,0.1,2.7h-5.9
	c0.1-0.4,0.1-0.5,0.2-1.5c1-0.4,1.2-0.4,1.2-0.6s-0.5-0.4-1.9-0.6c-0.4,0-0.9-0.1-1.5-0.2c0.1,0.5,0.1,0.9,0.1,1.4
	c0,0.5,0,1-0.1,1.6L4.6,290.1z M15.7,333.5c2.2-0.3,4.3-1,6.2-2c4-2.1,6.4-5.7,6.4-9.7c0.1-2.8-1-5.6-3.1-7.5c-2.3-2-5.2-3-8.3-2.9
	c-4.1,0-8.1,1.6-11,4.5c-1.7,1.7-2.7,3.9-2.9,6.3c0,1,0.3,2,0.7,2.9c0.6,1,1,2,1.4,3c0.2,0.7,0.5,1.4,0.9,2c0.3,0.4,0.9,0.7,1.4,0.7
	c1.2,0,2.8-1.6,4.8-4.8c2.4-3.9,4.2-8.6,4.2-11.1c0-1-0.4-1.9-1-2.7c0.4,0,0.7-0.1,1.1-0.1c1.9,0,3.9,0.5,5.5,1.5
	c2.4,1.5,3.8,4.2,3.6,7.1c0,2.8-1,5.6-2.8,7.7c-2,2.2-4.6,3.8-7.5,4.4L15.7,333.5z M14.9,312.4c0.3,0.5,0.4,1,0.4,1.6
	c0,2-1.7,6.1-4.1,9.9c-1.6,2.5-3.1,4.2-3.8,4.2c-0.4,0-0.8-0.4-1.2-0.9C5.4,325.9,5,324.5,5,323C5,318,9.3,313.4,14.9,312.4
	L14.9,312.4z M29.9,349.8c0.3,0,0.4-0.1,0.4-0.2c0-0.1-0.1-0.2-0.2-0.3c-1-0.9-2-1.7-3.1-2.5c-0.7,0.8-1.3,1.5-1.9,2.3h-5.9v-2.8
	c1.2-0.4,1.3-0.4,1.3-0.7c0-0.3-0.4-0.4-2-0.6c-0.4,0-1-0.1-1.7-0.2c0.1,1.2,0.1,1.8,0.1,2.8v1.4h-5.3c-0.9,0-1.8-0.1-2.7-0.3
	l0.3,1.3c0.8-0.2,1.6-0.3,2.4-0.3h4c-0.4,1.8-1,3.7-1.6,5.4c-1.8,0.1-1.8,0.1-2.2,0.1c-0.4,0-0.4,0-2.3-0.1c0.6,3,0.6,3.1,1,3.1
	c0.2,0,0.3-0.2,0.4-0.6c0-0.1,0.1-0.2,0.1-0.4c9.7-1.3,9.7-1.3,13.7-2c0.6,0.7,1.2,1.6,1.6,2.4c0.3,0.5,0.4,0.7,0.6,0.7
	c0.5,0,1-1.1,1-2c0-0.8-0.4-1.5-1.1-1.8c-1.9-1.2-3.8-2.4-5.8-3.4l-0.3,0.3c1.2,1,2.3,2,3.3,3.2c-3.9,0.3-4.5,0.4-9.3,0.5
	c1.3-1.7,2.4-3.5,3.5-5.4L29.9,349.8z M2.3,345.8c1,0.8,2,1.7,2.8,2.7c0.5,0.6,1,1.3,1.4,2c0.4,0.6,0.5,0.8,0.8,0.8
	c0.4,0,0.9-1.1,0.9-2c0-0.8-0.3-1.2-1.3-1.8c-1.3-0.8-2.7-1.5-4.2-2.1L2.3,345.8z M0.4,353c0.8,0.6,1.6,1.3,2.2,2
	c0.6,0.7,1.1,1.4,1.6,2.2c0.4,0.6,0.5,0.8,0.7,0.8c0.4,0,1-1.1,1-2c0-0.7-0.2-1-1.6-1.8c-1.1-0.7-2.4-1.3-3.6-1.7L0.4,353z
	 M6.4,374.1c1.3-0.6,2.5-1.3,3.6-2.3c2-1.6,3.3-3.9,3.7-6.5c0.3-1.9,0.4-3.8,0.4-5.7c1.1-0.4,1.1-0.5,1.1-0.7c0-0.3-0.2-0.4-3.3-0.7
	c0.1,1.1,0.1,1.6,0.1,2.4c0,5.1-0.8,8.1-2.9,10.4c-0.9,1-1.9,1.8-3,2.6L6.4,374.1z M19,359.6c1-0.3,1.2-0.4,1.2-0.6
	c0-0.3-0.3-0.4-3.3-0.7c0.1,1.3,0.1,2,0.1,3.3c0,4.6,0,6.8-0.1,11.3c0,0.2,0.2,0.4,0.4,0.4c0,0,0,0,0.1,0c0.5,0,1-0.1,1.5-0.2
	c0.2-0.1,0.2-0.2,0.2-0.4c-0.1-5.3-0.1-6.2-0.1-9.7L19,359.6z M0.9,364.8c0.7,0.2,1.4,0.6,2,1.2c0.4,0.4,0.7,1,0.6,1.7
	c0,1.4-0.3,2.9-0.6,4.3c-0.1,0.4-0.1,0.7-0.2,1.1c-0.1,0.4,0.2,0.8,0.6,0.8c0,0,0,0,0,0c0.7-0.1,1.3-0.4,1.8-0.9
	c0.5-0.5,0.7-1.2,0.6-1.9c0-0.7-0.1-1.4-0.3-2.1c-0.2-0.7-0.4-1.5-0.4-2.2c0-0.5,0.2-1,0.4-1.5l4.4-13.4l-0.4-0.2
	c-0.7,1.6-0.7,1.6-2.2,5.2c-1,2.4-2.2,5.2-2.8,6.5c-0.6,1.4-0.8,1.6-1.2,1.6c-0.5,0-1.1-0.1-1.6-0.3c-0.1,0-0.4-0.1-0.6-0.1
	L0.9,364.8z M22.4,367.5v3.7c0,1.6,0.4,1.9,3.3,1.9c1.2,0,2.5,0,3.7-0.2c0.8-0.1,1.2-0.5,1.2-1c0-0.3-0.2-0.6-0.5-0.7
	c-0.7-0.3-0.7-0.3-0.7-0.7v-0.4l0.5-5.7l-0.5,0c-1.3,5.3-1.5,6.1-1.8,6.4c-0.2,0.2-0.7,0.3-1.9,0.3h-0.1c-0.2,0-0.5,0-0.8,0
	s-0.4-0.1-0.4-0.6v-10.9c1-0.3,1.3-0.5,1.3-0.7c0-0.3-0.6-0.4-3.4-0.7c0.1,1,0.1,2,0.1,3L22.4,367.5z M5.2,400.2
	c-0.6,1-1.3,2-2.1,2.8c-0.5,0.5-0.5,0.6-0.5,1c0,0.6,0.1,1.2,0.4,1.8c0.2,0.5,0.4,0.7,0.7,0.7c0.3,0,0.4-0.2,1.1-1.7
	c1.1,1.1,2,2.2,2.8,3.5c0.1,0.2,0.4,1.2,0.5,1.5c0.2,0.6,0.4,0.9,0.8,0.9c0.8,0,1.4-1.5,1.4-3.3c0-0.5,0-1-0.1-1.5
	c-0.2-2.5-0.3-4-0.3-5.7c0-0.5,0-0.9,0-1.7c1.5-1.8,3.1-3.5,4.9-5.1c2.6-2.3,4.2-3.2,5.6-3.2c1.2,0,2,0.9,2,2.5
	c0,1.2-0.1,1.6-0.8,5.1c-0.4,1.9-0.7,3.8-0.8,5.7c0,2.9,1.3,4.5,3.7,4.5c2.3,0,4.8-1.3,7.1-3.7l-0.3-0.4c-1.7,1.3-3.8,2.1-6,2.3
	c-0.6,0-1.2-0.2-1.6-0.5c-0.6-0.4-0.8-1.1-0.8-2.4c0-1.8,0.2-3.5,0.6-5.2c0.4-1.5,0.6-3.1,0.6-4.7c0.1-1-0.2-2-0.9-2.8
	c-0.6-0.7-1.6-1.2-2.5-1.2c-1.4,0-2.9,0.7-5.2,2.3c-2,1.5-3.8,3.1-5.6,4.9c0-0.4,0-0.8,0.1-1.2c0.3-0.7,0.6-1.4,1-2.1
	c0.4-0.7,0.4-0.7,0.4-0.9c0-0.3-0.2-0.5-0.9-1.2c0.1-0.9,0.3-1.7,0.6-2.5c0.3-1,0.3-1,0.3-1.3c0-0.6-0.6-1.4-1.7-2.1
	c-0.6-0.5-1.3-0.8-2-0.9c-0.2,0-0.3,0.1-0.4,0.2c1.5,1.2,1.8,1.7,1.8,3.6c0,1.1-0.1,2.3-0.2,3.4c-1.4,0.9-3,1.5-4.6,1.9
	c-0.7,0-1.4-0.5-2.1-1.5c-0.1,0.2-0.1,0.4-0.1,0.5c0,1,1.5,2.9,2.4,2.9c0.3,0,0.5-0.1,1.1-0.5c0.6-0.4,2.3-1.6,3.2-2.2
	c0,0.5,0,0.5-0.1,1.1c0,0.8,0,0.8-0.1,1.3L5.2,400.2z M8.7,397.2c-0.1,1.3-0.1,2-0.1,3.6c0,4.8,0,4.8-0.1,6
	c-1.2-0.8-2.3-1.6-3.4-2.6c0.6-1.3,1-2,1.7-3.4C8.2,398.2,8.2,398.2,8.7,397.2z"/>
</svg>
