<?xml version="1.0" encoding="UTF-8"?><svg id="_イヤー_2" xmlns="http://www.w3.org/2000/svg" viewBox="0 0 339.88 75.3"><g id="_イヤー_2-2"><g><rect x="8.14" y="7.7" width="331.24" height="67.1" fill="#9d6315"/><path d="M338.88,8.2V74.3H8.64V8.2H338.88m1-1H7.64V75.3H339.88V7.2h0Z" fill="#9d6315"/></g><path d="M1.36,1V67.1H332.04V1H1.36M0,0H333.39V68.1H0V0Z" fill="#9d6315"/><path d="M9,8.2v58.9H331.89V8.2H9m-1.36-1H333.26v60.9H7.64V7.2Z" fill="#fff"/><path d="M104.68,46.4l-4.3-8.4h8.4l-4.1,8.4Z" fill="#fff"/><g><path d="M136.65,35.61h-7.53v-1.81h7.53v1.81Zm-.71,11.98h-4.02v.75h-1.94v-6.57h5.97v5.82h-.01Zm-5.91-11.11h5.93v1.75h-5.93v-1.75Zm0,2.64h5.93v1.71h-5.93v-1.71Zm5.89-6.16h-5.82v-1.73h5.82v1.73Zm-4.01,10.63v2.21h2.04v-2.21h-2.04Zm15.23,.62h-4.2v4.41h-2.25v-4.41h-4.29v-2.08h4.29v-1.94h-3.29v-2.02h3.29v-1.83h-3.68v-2.08h1.75c-.23-.87-.69-1.98-1.17-2.85l1.85-.69c.62,1,1.17,2.29,1.39,3.18l-.92,.37h3.76l-.87-.29c.46-.92,1.04-2.35,1.33-3.37l2.23,.64c-.54,1.1-1.12,2.21-1.6,3.02h2.08v2.08h-3.89v1.83h3.49v2.02h-3.49v1.94h4.2v2.08h-.01Z" fill="#fff"/><path d="M154.41,34.23c-.08,2.08-.23,6.39-.23,8.78,0,1.95,1.16,2.58,2.66,2.58,3.18,0,5.2-1.83,6.59-3.93l1.75,2.12c-1.23,1.85-3.97,4.43-8.36,4.43-3.16,0-5.2-1.39-5.2-4.68,0-2.58,.19-7.65,.19-9.3,0-.9-.08-1.83-.25-2.6l3.1,.04c-.12,.81-.21,1.79-.25,2.56Z" fill="#fff"/><path d="M177.21,34.38c-1.25,1-3.79,2.97-5.08,4.06-1.02,.89-1,1.1,.04,2,1.44,1.21,5.1,4.1,7.07,6.01l-2.25,2.06c-.54-.6-1.1-1.21-1.67-1.79-1.17-1.21-4.01-3.62-5.76-5.12-1.93-1.64-1.77-2.66,.15-4.28,1.52-1.23,4.16-3.37,5.45-4.62,.56-.56,1.17-1.17,1.48-1.64l2.25,1.98c-.6,.46-1.23,.96-1.68,1.33h0Z" fill="#fff"/><path d="M197.54,46.28c.65,0,.77-.33,.87-2.56,.48,.37,1.5,.75,2.1,.91-.25,3.04-.85,3.83-2.75,3.83h-2.54c-2.29,0-2.83-.69-2.83-2.85v-3.08h-2.33c-.4,3.06-1.54,5.08-6.3,6.16-.21-.62-.83-1.56-1.27-2.04,3.95-.73,4.78-2.02,5.1-4.12h-2.35v-11.3h12.59v11.3h-3.14v3.06c0,.62,.12,.69,.85,.69h2Zm-10.09-11.86h8.05v-1.19h-8.05v1.19Zm0,3.04h8.05v-1.19h-8.05v1.19Zm0,3.06h8.05v-1.19h-8.05v1.19Z" fill="#fff"/><path d="M207.48,32.36c1.02,0,5.14-.08,6.24-.17,.79-.08,1.23-.13,1.46-.21l1.25,1.71c-.44,.29-.91,.56-1.35,.89-1.04,.73-3.06,2.43-4.27,3.39,.64-.15,1.21-.21,1.83-.21,3.27,0,5.76,2.04,5.76,4.85,0,3.04-2.31,5.45-6.97,5.45-2.68,0-4.7-1.23-4.7-3.16,0-1.56,1.41-3,3.45-3,2.39,0,3.83,1.46,4.1,3.29,1.06-.56,1.6-1.44,1.6-2.62,0-1.73-1.73-2.91-4.01-2.91-2.95,0-4.87,1.56-6.93,3.91l-1.75-1.81c1.37-1.1,3.7-3.06,4.83-4.01,1.08-.89,3.08-2.5,4.02-3.33-.98,.02-3.64,.13-4.66,.19-.52,.04-1.14,.1-1.58,.15l-.08-2.5c.54,.08,1.21,.1,1.75,.1h0Zm3.47,13.5c.4,0,.77-.02,1.12-.06-.12-1.25-.83-2.06-1.87-2.06-.73,0-1.19,.44-1.19,.92,0,.71,.79,1.19,1.95,1.19h0Z" fill="#fff"/></g></g></svg>