<?xml version="1.0" encoding="UTF-8"?><svg id="_イヤー_2" xmlns="http://www.w3.org/2000/svg" viewBox="0 0 339.88 75.3"><g id="_イヤー_2-2"><g><rect x="8.14" y="7.7" width="331.24" height="67.1" fill="#fff"/><path d="M338.88,8.2V74.3H8.64V8.2H338.88m1-1H7.64V75.3H339.88V7.2h0Z" fill="#9d6315"/></g><path d="M1.36,1V67.1H332.04V1H1.36M0,0H333.39V68.1H0V0Z" fill="#9d6315"/><path d="M9,8.2v58.9H331.89V8.2H9m-1.36-1H333.26v60.9H7.64V7.2Z" fill="#9d6315"/><path d="M30.61,46.4l-4.3-8.4h8.4l-4.1,8.4Z" fill="#9d6315"/><path d="M51.7,39.82c-1.85,.38-3.5,.71-4.38,.92l-.5-2.73c.98-.13,2.81-.44,4.88-.81v-2.98c0-.69-.06-1.75-.17-2.4h3.11c-.08,.65-.19,1.69-.19,2.4v2.46c3.04-.58,5.96-1.17,6.9-1.4,.58-.13,1.08-.27,1.48-.48l2,1.54c-.19,.29-.5,.77-.69,1.15-.92,1.73-2.81,4.59-4.31,6.07l-2.29-1.35c1.38-1.23,2.75-3.13,3.33-4.23-.65,.15-3.46,.69-6.42,1.29v5.52c0,1.29,.38,1.75,2.67,1.75s4.5-.29,6.57-.71l-.08,2.83c-1.73,.25-4.23,.46-6.46,.46-4.75,0-5.44-1.15-5.44-3.61v-5.69Z" fill="#9d6315"/><path d="M82.59,46.66l-1.15,2.61c-2.81-1.17-9.4-2.61-12.74-3.11l1.04-2.63c3.56,.56,9.98,2.06,12.84,3.13Zm-.88-6.54l-1.02,2.61c-2.4-.92-7.73-2.13-10.84-2.63l.96-2.52c2.98,.5,8.27,1.63,10.9,2.54Zm1.42-5.69l-1.06,2.61c-2.42-.9-8.34-2.23-11.28-2.61l.98-2.46c2.73,.33,8.73,1.54,11.36,2.46Z" fill="#9d6315"/><path d="M95.14,31.79h3.31c-.12,.65-.17,1.79-.17,2.46v2.27h4.69c.96,0,1.83-.08,2.27-.12v2.84c-.44-.02-1.46-.08-2.29-.08h-4.69c-.13,4.19-1.44,7.61-5.94,10.3l-2.58-1.92c4.08-1.86,5.48-4.86,5.65-8.38h-5.32c-.92,0-1.75,.06-2.4,.1v-2.88c.62,.06,1.48,.15,2.31,.15h5.42v-2.29c0-.71-.08-1.79-.27-2.44Z" fill="#9d6315"/><path d="M111.71,38.76h11.19c.98,0,1.9-.08,2.44-.12v3.27c-.5-.02-1.56-.1-2.44-.1h-11.19c-1.19,0-2.58,.04-3.36,.1v-3.27c.75,.06,2.27,.12,3.36,.12Z" fill="#9d6315"/><path d="M139.34,49.26l-1.56-2.48c.79-.08,1.38-.21,1.94-.33,2.67-.63,4.75-2.54,4.75-5.59,0-2.88-1.56-5.02-4.38-5.5-.29,1.77-.65,3.69-1.25,5.65-1.25,4.21-3.04,6.79-5.31,6.79s-4.23-2.54-4.23-6.07c0-4.81,4.17-8.92,9.57-8.92s8.42,3.58,8.42,8.13-2.69,7.5-7.94,8.32Zm-5.73-4.67c.88,0,1.69-1.31,2.54-4.13,.48-1.54,.88-3.31,1.1-5.04-3.44,.71-5.29,3.75-5.29,6.05,0,2.1,.83,3.13,1.65,3.13Z" fill="#9d6315"/><path d="M153.68,38.8v11.3h-2.42V31.42h8.02v7.38h-5.61Zm0-5.61v1.06h3.27v-1.06h-3.27Zm3.27,3.81v-1.13h-3.27v1.13h3.27Zm6.11,8.4v4.29h-2.17v-4.29h-2c-.21,1.44-.9,3.46-2.67,4.67-.35-.44-1.11-1.08-1.58-1.42,1.33-.83,1.92-2.19,2.13-3.25h-2.11v-2.02h2.19v-1.56h-1.9v-1.96h10.07v1.96h-1.96v1.56h2.29v2.02h-2.29Zm-2.17-2.02v-1.56h-1.94v1.56h1.94Zm7.94,3.81c0,1.27-.23,1.96-.98,2.36-.75,.42-1.83,.48-3.42,.48-.08-.69-.42-1.81-.75-2.46,.94,.04,1.96,.04,2.27,.02,.33,0,.44-.12,.44-.42v-8.34h-5.73v-7.42h8.17v15.78Zm-5.82-14.01v1.06h3.38v-1.06h-3.38Zm3.38,3.86v-1.17h-3.38v1.17h3.38Z" fill="#9d6315"/><path d="M191.54,49.28h-9.46v.75h-2.38v-8.38c-.38,.44-.77,.83-1.15,1.19-.4-.44-1.21-1.25-1.75-1.67v8.88h-2.36v-10.65c-.46,.6-.94,1.17-1.42,1.67-.23-.6-.9-1.98-1.31-2.56,1.88-1.88,3.67-4.84,4.73-7.82l2.36,.75c-.54,1.44-1.23,2.9-2,4.29v5.27c1.52-1.23,2.9-3.15,3.75-5.09h-1.46v-4.56h2.27v2.48h2.36v-3.08h2.46v3.08h2.54v-2.48h2.38v4.56h-5.42l2.38,.54-.77,1.5h4v1.92h-4.23v1.25h3.67v1.81h-3.67v1.29h3.67v1.79h-3.67v1.33h4.48v1.92Zm-8.59-12.86c-.21,.52-.46,1.04-.73,1.54h2.67c.25-.69,.48-1.44,.6-2.04h-4.29l1.75,.5Zm1.75,3.46h-2.63v1.25h2.63v-1.25Zm0,3.06h-2.63v1.29h2.63v-1.29Zm-2.63,4.42h2.63v-1.33h-2.63v1.33Z" fill="#9d6315"/><path d="M209.11,35.44c-.71,1.63-1.88,3.86-3.27,5.73,2.06,1.79,4.58,4.46,5.82,5.96l-2.38,2.06c-1.35-1.88-3.29-4-5.25-5.9-2.21,2.33-4.98,4.5-7.84,5.86l-2.15-2.25c3.36-1.25,6.59-3.79,8.55-5.98,1.38-1.56,2.65-3.63,3.11-5.11h-7.07c-.88,0-2.02,.12-2.46,.15v-2.96c.56,.08,1.83,.15,2.46,.15h7.36c.9,0,1.73-.12,2.15-.27l1.71,1.27c-.17,.23-.54,.88-.73,1.29Z" fill="#9d6315"/><path d="M222.31,33.65c-.17,.44-.35,.98-.58,1.52h8.98c.54,0,1.48-.02,2.17-.15v2.86c-.77-.08-1.69-.08-2.17-.08h-2.92c-.38,5.52-2.54,9.26-6.32,11.63l-2.81-1.9c.75-.29,1.48-.73,1.98-1.15,2.19-1.67,3.92-4.23,4.25-8.59h-4.4c-.83,1.52-2.13,3.29-3.38,4.38l-2.61-1.58c1.48-1.1,2.81-2.98,3.61-4.29,.58-.96,.96-2.04,1.21-2.83,.25-.69,.4-1.5,.44-2.15l3.23,.65c-.25,.52-.52,1.25-.69,1.69Z" fill="#9d6315"/><path d="M242.53,39.57l-1.52,2.33c-1.19-.83-3.36-2.23-4.75-2.98l1.5-2.29c1.42,.75,3.71,2.19,4.77,2.94Zm1.67,4.75c3.54-1.98,6.46-4.84,8.11-7.82l1.61,2.84c-1.92,2.9-4.88,5.52-8.28,7.5-2.13,1.19-5.13,2.23-6.96,2.56l-1.56-2.73c2.33-.4,4.84-1.11,7.09-2.36Zm1.52-9.46l-1.54,2.29c-1.17-.81-3.33-2.21-4.71-2.98l1.5-2.29c1.38,.75,3.67,2.21,4.75,2.98Zm6.21,.65l-1.81,.77c-.6-1.31-1.08-2.21-1.83-3.27l1.75-.73c.58,.88,1.42,2.27,1.9,3.23Zm2.92-1.12l-1.77,.79c-.67-1.31-1.19-2.13-1.96-3.17l1.77-.73c.65,.83,1.46,2.19,1.96,3.11Z" fill="#9d6315"/><path d="M268.98,39.21c-.17,1.23-.71,4.82-1.02,6.8h1.33c.54,0,1.5-.02,2.04-.08v2.69c-.42-.02-1.44-.06-2-.06h-10.96c-.75,0-1.27,.02-2.06,.06v-2.71c.56,.06,1.33,.1,2.06,.1h6.75c.29-1.77,.75-4.73,.81-5.9h-5.63c-.67,0-1.48,.06-2.08,.1v-2.75c.54,.06,1.5,.12,2.06,.12h5.34c.44,0,1.29-.08,1.54-.23l2.02,.98c-.1,.27-.17,.67-.21,.88Z" fill="#9d6315"/><path d="M278.66,38.76h11.19c.98,0,1.9-.08,2.44-.12v3.27c-.5-.02-1.56-.1-2.44-.1h-11.19c-1.19,0-2.58,.04-3.36,.1v-3.27c.75,.06,2.27,.12,3.36,.12Z" fill="#9d6315"/><path d="M299,42.53c.58-1.79,.6-5.73,.6-8.25,0-.83-.06-1.4-.19-1.92h3.06c-.02,.1-.15,1.02-.15,1.9,0,2.46-.06,6.86-.62,8.96-.62,2.36-1.94,4.4-3.71,5.98l-2.54-1.69c1.83-1.29,2.96-3.21,3.54-4.98Zm6.27,3.75v-12.15c0-.94-.15-1.73-.17-1.79h3.11c-.02,.06-.15,.88-.15,1.81v10.9c1.69-.73,3.75-2.38,5.15-4.4l1.6,2.29c-1.73,2.25-4.73,4.5-7.07,5.69-.46,.25-.71,.46-.9,.62l-1.75-1.44c.08-.4,.17-.98,.17-1.54Z" fill="#9d6315"/></g></svg>