<?xml version="1.0" encoding="utf-8"?>
<!-- Generator: Adobe Illustrator 26.0.1, SVG Export Plug-In . SVG Version: 6.00 Build 0)  -->
<svg version="1.1" id="レイヤー_1" xmlns="http://www.w3.org/2000/svg" xmlns:xlink="http://www.w3.org/1999/xlink" x="0px"
	 y="0px" viewBox="0 0 70.7 332.6" style="enable-background:new 0 0 70.7 332.6;" xml:space="preserve">
<style type="text/css">
	.st0{fill:#222222;}
	.st1{fill:#005748;}
	.st2{fill:#FFFFFF;}
</style>
<g id="グループ_1721" transform="translate(-610.367 -10885.279)">
	<path id="パス_4077" class="st0" d="M652,10990.8c3.6,0.1,7.3-0.6,10.6-2.1c2-0.8,3.9-2,5.4-3.6c1,0.4,1.9,0.9,2.9,1.4
		c1.9,1.1,3.7,2.3,5.5,3.6c0.8,0.7,0.8,0.7,1,0.7c0.3,0,0.5-0.6,0.5-1.3c0.1-1-0.4-2-1.3-2.4c-2.4-1.3-4.9-2.4-7.5-3.2
		c0.6-0.7,1.2-1.5,1.7-2.4c1-1.7,1.8-3.6,2.3-5.5h7.5c0.2,0,0.3-0.1,0.3-0.2c0-0.1,0-0.1-0.1-0.2c-1.4-1.2-1.8-1.6-3.2-2.8
		c-0.8,1-1.1,1.3-1.9,2.4h-12.6c1-2,1.3-2.8,2.2-4.9c1.5-0.3,1.7-0.4,1.7-0.7c0-0.1-0.1-0.2-0.2-0.3c-0.1-0.1-0.1-0.1-3.3-1
		c-0.7,2.4-1.6,4.7-2.8,6.8h-6.8c-0.9,0-1.9-0.2-2.8-0.4l0.3,1.4c0.8-0.1,1.7-0.2,2.5-0.3h6.4c-1.3,2.7-2.9,5.3-4.5,7.8
		c0,0.3,0.1,0.4,1,0.4c0.2,0,0.5,0.1,0.8,0.1h0.1c0.1,0,0.3-0.1,0.4-0.3c0.6-1,0.9-1.3,1.3-2c2.2,0.5,4.4,1.2,6.5,2.1
		c-1.3,1.3-2.7,2.4-4.4,3.2c-3,1.5-6.3,2.4-9.7,2.7L652,10990.8z M670.6,10976.1c-0.7,2.6-2,5.1-3.7,7.2c-1.5-0.5-3.1-0.8-4.6-1.2
		c-1.8-0.4-1.8-0.4-2.5-0.5c0.8-1.4,2-3.6,2.9-5.5L670.6,10976.1z M655.5,10966.5c0.1-0.8,0.1-1.7,0.1-2.5h-0.4
		c-0.9,3.1-0.9,3.2-1.4,3.9c-0.5,0.7-1.1,1.3-1.9,1.8c-0.5,0.3-0.6,0.5-0.6,0.9c0,1,0.6,2.2,1.2,2.2c0.4,0,1.4-1,1.9-2
		c0.5-1.2,0.9-2.4,1-3.7h21.2c-0.5,1.4-1.2,2.7-1.9,4l0.3,0.2c1.8-1.4,2.2-1.8,4-3.3c1.8-0.3,2.1-0.3,2.1-0.5c0-0.1-0.1-0.2-0.2-0.4
		c-0.9-0.9-2-1.8-3.1-2.5c-0.6,0.8-0.8,1-1.4,1.8h-9.3v-2.7c0.9-0.3,1.3-0.5,1.3-0.7c0-0.3-0.8-0.5-3.6-0.9c0.1,0.9,0.1,1.2,0.1,2.4
		v1.9H655.5z M655.9,11011.7c-0.1,1.5-0.4,3.1-1,4.5c-0.5,1.4-1.3,2.8-2.3,3.9c-0.7,0.7-0.8,0.8-0.8,1.4c0,1.2,0.4,2.3,1,2.3
		c0.5,0,1.3-0.8,2-2c1.2-2.6,1.8-5.5,1.8-8.4c0-0.5,0-0.8,0-1.6L655.9,11011.7z M660,11021.7c0,1.2,0,1.4-0.1,4.6
		c0.1,1,0.4,1.3,1.1,1.6c0.6,0.2,1.6,0.3,6.8,0.3c2,0,3.9-0.1,5.9-0.3c1-0.2,1.4-0.6,1.4-1.1c0-0.4-0.3-0.8-1-0.9
		c-0.4-0.1-0.6-0.3-0.6-0.6v-0.1l0.4-7l-0.4,0c-1.2,4.9-1.6,6.6-2,7.2c-0.3,0.6-0.9,0.8-3.5,0.8c-1.1,0-4.2,0-4.5,0
		c-1.1-0.1-1.3-0.2-1.3-0.7v-16.6c1.4-0.5,1.4-0.5,1.4-0.8c0-0.4-0.4-0.4-3.8-1c0.1,1.4,0.2,3.1,0.2,4.4V11021.7z M660.6,11001.6
		c2.8,1.4,5.4,3.2,7.5,5.6c0.5,0.5,0.7,0.7,0.9,0.7c0.4,0,0.6-0.6,0.6-1.4c0-0.5-0.1-1-0.3-1.4c-0.2-0.4-0.5-0.8-0.9-1
		c-2.4-1.4-4.9-2.4-7.6-2.9L660.6,11001.6z M674,11011.7c1.8,3,3.1,6.4,3.8,9.9c0.2,0.9,0.4,1.2,0.7,1.2c0.3,0,0.6-0.3,0.9-0.9
		c0.4-0.7,0.6-1.5,0.6-2.3c0-1.8-1.9-4.5-5.7-8.2L674,11011.7z M666,11064.9c2.2-0.3,4.3-1,6.2-2c4-2.1,6.4-5.7,6.4-9.7
		c0.1-2.8-1-5.6-3.1-7.5c-2.3-2-5.2-3-8.3-2.9c-4.1,0-8.1,1.6-11,4.5c-1.7,1.7-2.7,3.9-2.9,6.3c0,1,0.3,2,0.7,2.9c0.5,1,1,2,1.4,3
		c0.2,0.7,0.5,1.4,0.9,2c0.3,0.4,0.9,0.7,1.4,0.7c1.2,0,2.8-1.6,4.8-4.8c2.4-3.9,4.2-8.6,4.2-11.1c0-1-0.4-1.9-1-2.7
		c0.4,0,0.7-0.1,1.1-0.1c1.9,0,3.9,0.5,5.5,1.5c2.4,1.5,3.8,4.2,3.6,7.1c0,2.8-1,5.6-2.8,7.7c-2,2.2-4.6,3.8-7.5,4.4L666,11064.9z
		 M665.1,11043.8c0.3,0.5,0.4,1,0.4,1.6c0,2-1.7,6.1-4.1,9.9c-1.6,2.5-3.1,4.2-3.8,4.2c-0.4,0-0.8-0.4-1.2-0.9
		c-0.8-1.2-1.3-2.7-1.3-4.2C655.2,11049.5,659.6,11044.8,665.1,11043.8L665.1,11043.8z"/>
	<path id="パス_4076" class="st0" d="M630.2,10968.2c-4.9,7.8-9.1,16.9-9.1,19.7c0,0.7,0.5,1.1,1.5,1.1c1.5,0,2-0.4,2-1.5
		c0-1.6,0.2-3.1,0.6-4.7c0.5-2.1,1.2-4.1,2-6c1.3-3.2,2.9-6.3,4.9-9.1v-1.9h-14.6l-0.9,6.4l1,0.1c0.2-0.9,0.5-1.9,0.9-2.7
		c0.6-1.1,1.2-1.3,2.7-1.3L630.2,10968.2z M621.3,11025.4c2.7-0.2,5.4-0.8,7.9-1.9c4.7-2,7.4-5.4,7.4-9.4c0-4.2-3.3-7-8.2-7
		c-3.3,0-6.7,0.9-11.7,3.1c-1.2,0.6-2.5,1-3.9,1.2c-0.5,0-0.9-0.2-1.3-0.5c-0.4-0.3-0.7-0.7-0.9-1.2c-0.2,0.2-0.2,0.5-0.3,0.8
		c0,1.4,2.3,3.7,3.8,3.7c0.5,0,0.9-0.2,1.2-0.5c4.2-3.3,9.1-5.3,12.9-5.3c3.5,0,5.9,2.2,5.9,5.4c0,3.4-2.1,6.5-5.9,8.6
		c-2.2,1.2-4.6,2.1-7.1,2.7L621.3,11025.4z M624,11064.9c2.2-0.3,4.3-1,6.2-2c4-2.1,6.4-5.7,6.4-9.7c0.1-2.8-1-5.6-3.1-7.5
		c-2.3-2-5.2-3-8.3-2.9c-4.1,0-8.1,1.6-11,4.5c-1.7,1.7-2.7,3.9-2.9,6.3c0,1,0.3,2,0.7,2.9c0.5,1,1,2,1.4,3c0.2,0.7,0.5,1.4,0.9,2
		c0.3,0.4,0.9,0.7,1.4,0.7c1.2,0,2.8-1.6,4.8-4.8c2.4-3.9,4.2-8.6,4.2-11.1c0-1-0.4-1.9-1-2.7c0.4,0,0.7-0.1,1.1-0.1
		c1.9,0,3.9,0.5,5.5,1.5c2.4,1.5,3.8,4.2,3.6,7.1c0,2.8-1,5.6-2.8,7.7c-2,2.2-4.6,3.8-7.5,4.4L624,11064.9z M623.1,11043.8
		c0.3,0.5,0.4,1,0.4,1.6c0,2-1.7,6.1-4.1,9.9c-1.6,2.5-3.1,4.2-3.8,4.2c-0.4,0-0.8-0.4-1.2-0.9c-0.8-1.2-1.3-2.7-1.3-4.2
		C613.2,11049.5,617.6,11044.8,623.1,11043.8L623.1,11043.8z M613.3,11085.4c1.1,2.1,2.2,2.8,4.7,2.8c1,0,3.5-0.2,5-0.4
		c-0.1,8.7-0.1,10-0.2,12.1c-1.8-0.3-3.6-0.8-5.3-1.4l-0.2,0.3l0.6,0.4l0.7,0.4c0.7,0.4,1.3,0.8,2,1.2c1.1,0.7,1.5,1.2,1.8,1.9
		c0.3,0.7,0.5,1,0.9,1c0.5,0,0.9-0.4,1.3-1.2c0.4-0.8,0.6-1.7,0.5-2.6c0-0.4,0-0.7,0-1.1c-0.3-2.9-0.4-5.7-0.4-8.6
		c0-0.8,0-1.1,0-2.7c0.4-0.1,1.7-0.2,3.6-0.5c2.7-0.4,2.8-0.4,4.1-0.5c1.1-0.1,1.5-0.3,1.5-0.7c0-0.3-0.3-0.6-0.9-1
		c-0.6-0.3-1.3-0.6-2-0.6H631c-0.2,0-0.4,0.1-0.6,0.2c-0.5,0.5-3.2,1.3-5.6,1.6c0.2-2.1,0.3-2.8,0.6-3.5c0.3-0.5,0.4-0.7,0.4-1
		c0-0.5-0.5-1-1.6-1.4c-0.9-0.4-1.8-0.6-2.8-0.6c-0.4,0-0.7,0.1-1,0.4c1.3,0.5,1.8,0.8,2.1,1.4c0.4,0.6,0.4,1.3,0.4,4.4v0.8
		c-1.8,0.3-3.7,0.4-5.5,0.5c-1.5,0.2-2.9-0.5-3.7-1.7L613.3,11085.4z M616.6,11090.9c-0.4,2.3-2,5-3.7,6c-0.5,0.2-0.9,0.7-0.8,1.3
		c0,1.1,0.4,1.9,1,1.9c0.7,0,1.4-0.7,2.2-2c1.1-2.2,1.8-4.5,1.9-7L616.6,11090.9z M628.9,11090.8c1.9,2,3.3,4.3,4.1,6.9
		c0.5,1.6,0.6,1.7,1,1.7c0.6,0,1.2-1.2,1.2-2.5c0-0.9-0.4-1.7-1-2.4c-1.4-1.6-3.1-3-5-4L628.9,11090.8z M632.7,11075.9
		c-1.9,0-3.5,1.6-3.5,3.5c0,1.9,1.6,3.5,3.5,3.5s3.5-1.6,3.5-3.5c0,0,0,0,0,0C636.2,11077.5,634.6,11075.9,632.7,11075.9
		L632.7,11075.9z M632.7,11077c1.4,0,2.5,1.1,2.5,2.4c0,1.4-1.1,2.5-2.5,2.5l0,0c-1.4,0-2.5-1.1-2.5-2.5
		C630.2,11078.1,631.3,11077,632.7,11077C632.7,11077,632.7,11077,632.7,11077L632.7,11077z M611.4,11133.9c2-0.8,3.9-1.7,5.8-2.8
		c2.1-1.3,4.2-2.8,6.1-4.4c0.5,0.5,0.6,0.7,0.7,1c0.2,1,0.2,2,0.2,3c0,2.6-0.1,5.3-0.6,7.9c-0.1,0.3-0.2,0.5-0.2,0.8
		c0,0.9,1.4,2.7,2.2,2.7c0.5,0,0.7-0.5,0.7-1.6c0-0.2,0-1.1,0-1.8c-0.1-1.8-0.1-3.9-0.2-6.1c0.1-1.6,0-3.1-0.2-4.7
		c-0.2-0.4-0.7-0.9-2-1.8c1.4-1.2,1.6-1.3,3.8-3.5c2.3-2.2,2.3-2.2,2.6-2.4c1.2-1.1,1.3-1.1,1.3-1.4c0-0.6-0.6-1.3-1.7-2.1
		c-0.8-0.6-1.8-0.9-2.8-1c-0.2,0-0.4,0-0.6,0.1c1.3,0.7,1.8,1.2,1.8,1.8c0,0.9-2,3.5-5.2,6.6c-3.6,3.6-7.6,6.6-12,9.1L611.4,11133.9
		z M613.5,11158c2.1,1.2,3.8,2.8,5.2,4.7c0.9,1.1,1,1.3,1.4,1.3c0.5,0,0.9-0.7,0.9-1.8c0-0.9-0.4-1.7-1.1-2.2c-1.9-1.2-4-2-6.2-2.4
		L613.5,11158z M636,11159.2c-2.5,3.2-5.4,6.1-8.6,8.5c-2.4,2-4.9,3.8-7.6,5.3c-0.9,0.7-2,1.1-3.1,1.3c-0.5-0.1-0.9-0.3-1.3-0.7
		c-0.5-0.4-0.9-0.9-1.2-1.4c-0.1,0.2-0.2,0.4-0.2,0.6c0,1.6,2.4,4.7,3.7,4.7c0.4,0,0.6-0.2,1.1-0.8c0.2-0.3,0.4-0.4,1.9-1.5
		c3.2-2.2,6.2-4.6,9-7.3c2.7-2.5,5-5.4,6.7-8.6L636,11159.2z M618,11192c1.3,0.3,2.3,1.5,2.4,2.8c0.2,1.8,0.2,3.7,0.2,5.5
		c0,8.2-0.2,12.3-0.7,13.9c-0.1,0.3-0.2,0.6-0.2,0.9c0,1.1,1.3,2.8,2,2.8c0.2,0,0.4-0.1,0.6-0.3c0.2-0.3,0.2-0.7,0.2-1.1
		c0-0.5,0-1,0-1.7c-0.1-2.7-0.1-2.7-0.1-3.6v-4.7c0-1,0-2,0-4c2.8,0.8,5.4,2.2,7.5,4.2c0.8,0.8,0.9,0.8,1.2,0.8
		c0.5,0,0.8-0.5,0.8-1.5c0-1.2-0.5-1.8-2-2.5c-2.4-0.9-4.9-1.5-7.5-1.8c0-3.7,0.2-6.1,0.6-7c0.2-0.5,0.2-0.5,0.2-0.7
		c0-0.6-0.8-1.2-2.1-1.8c-0.7-0.3-1.6-0.5-2.4-0.5C618.5,11191.7,618.2,11191.8,618,11192z"/>
	<g id="syasou" transform="translate(562.363 10702.18)">
		<path id="パス_1929" class="st1" d="M101.2,236.3H64.1c-4.7,0-8.6-3.8-8.6-8.6v-36.1c0-4.7,3.8-8.6,8.6-8.6h37.1
			c4.7,0,8.6,3.8,8.6,8.6v36.1C109.8,232.5,105.9,236.3,101.2,236.3z"/>
		<path id="パス_1930" class="st2" d="M69.4,225.3c0.7,0,1.2-0.6,1.2-1.3c0-1-1-2.2-4.1-2.7c1.3-1.3,2.4-2.8,3.3-4.5
			c0.4,0,0.7-0.1,1-0.3l-2.2-2.2l-1.4,1.3h-0.7v-3.9c0.7-0.1,0.9-0.2,1-0.6l-3.4-0.3v4.8h-3.4l0.1,0.4h6.5c-1.4,3.7-3.8,7-6.9,9.4
			l0.2,0.2c1.2-0.6,2.4-1.3,3.5-2.2v8.4h0.4c0.7,0.1,1.5-0.2,2-0.8v-9.5c1,0.9,1.6,2,2,3.3C68.7,225.1,69.1,225.2,69.4,225.3z"/>
		<path id="パス_1931" class="st2" d="M78.2,230.2h-1.7v-10.8h3.9c0.6,0,0.9-0.1,1.1-0.4l-2.4-1.8l-1.3,1.8h-1.3v-7.3
			c0.7-0.1,0.9-0.3,1-0.6l-3.5-0.3v8.2h-4.1l0.1,0.4h4v10.8h-5.5l0.1,0.4h12.3c0.6,0,0.9-0.1,1.1-0.4l-2.5-1.9L78.2,230.2z"/>
		<path id="パス_1932" class="st2" d="M97.5,217l-2.9-0.2v4.4c0,1.8,0.4,2.3,2.7,2.3h3.5c2.1,0,2.8-0.4,2.8-1.2
			c0-0.3-0.1-0.4-0.9-0.7l0-1.6h-0.2c-0.8,1.7-1,1.7-1.7,1.7h-3.4c-0.7,0-0.7,0-0.7-0.5V220c1.6-0.2,3.3-0.6,4.8-1
			c0.2,0.1,0.5,0.1,0.7,0.1c0.2,0,0.4,0,0.5-0.2l-2.1-1.8c-1.2,0.9-2.6,1.6-4,2.2v-1.9C97.3,217.4,97.4,217.3,97.5,217z"/>
		<path id="パス_1933" class="st2" d="M89,213.5v2.1c2,0,2.3-0.5,2.3-0.6v-1.5h4.9v1.9c2.1,0,2.3-0.5,2.3-0.6v-1.4h4.8
			c0.6,0,0.8-0.1,1-0.4l-2.3-1.7l-1.2,1.6h-2.3v-1.6c0.6-0.1,0.8-0.2,0.9-0.6l-3.2-0.2v2.4h-4.9v-1.6c0.6-0.1,0.8-0.2,0.9-0.6
			l-3.2-0.2v2.4h-5.7l0.1,0.4L89,213.5L89,213.5z"/>
		<path id="パス_1934" class="st2" d="M101.4,214.6l-1.2,1.5H84l0.1,0.4h4.4c-1.1,1.8-2.6,3.4-4.4,4.5l0.1,0.3
			c0.8-0.3,1.6-0.6,2.3-1c0.5,0.4,0.9,1,1.1,1.6c0.2,0.2,0.5,0.3,0.8,0.3c-1.4,1.1-3,1.9-4.8,2.3l0.2,0.4c5-0.7,7.4-2.5,9.5-5.6
			c0.4,0,0.7-0.1,1-0.3l-2.1-1.6l-1,1h-1.9c0.7-0.6,1.3-1.2,1.8-1.9h11.4c0.6,0,0.9-0.1,1.1-0.4L101.4,214.6z M91.3,218.9
			c-0.5,1-1.2,1.9-2,2.7c0-0.1,0-0.1,0-0.2c0-0.6-0.6-1.2-2.1-1.3c0.6-0.3,1.2-0.7,1.7-1.1L91.3,218.9L91.3,218.9z"/>
		<path id="パス_1935" class="st2" d="M102,224.9l-1.3,1.6h-2.1v-1.9c0.5-0.1,0.7-0.2,0.7-0.5l-3.1-0.2v2.6h-5.1v-1.9
			c0.6-0.1,0.8-0.2,0.8-0.5l-3.1-0.2v2.6h-5.6l0.1,0.4h5.4c-0.1,1.8-1.2,3.5-5.1,4.7l0.1,0.3c5.7-0.9,7.1-2.9,7.4-4.9h5.2v4.9
			c1.9,0,2.4-0.6,2.4-0.6v-4.3h4.6c0.6,0,0.9-0.1,1.1-0.4L102,224.9z"/>
		<path id="パス_1936" class="st2" d="M62.9,197v-3.3h3.8c1.1,0,1.5,0.5,1.5,1.2c0,0.6-0.5,1-1.4,1H65v1.5h3.3
			c1.3,0.1,2.4-0.8,2.5-2c0-0.2,0-0.3,0-0.5c0-1.6-0.8-2.7-2.4-2.7h-5.4V190h-2.6v2.2h-1.6v1.5h1.6v4c0,4.3,3.7,4.2,3.7,4.2h6.4
			v-1.5c0,0-4.7-0.1-5.1-0.1C64.2,200.2,62.9,199.1,62.9,197z"/>
		<path id="パス_1937" class="st2" d="M74.4,201.6c1.4,0.1,2.7-0.3,3.7-1.2c2-1.7,3.5-3.7,4.6-6.1h-2.7c-0.2,0.5-3.7,6.1-5.5,5.1
			c-0.5-0.3-0.6-0.6-0.6-2.3V190h-2.5v7.4C71.4,201.4,73.4,201.6,74.4,201.6z"/>
		<path id="パス_1938" class="st2" d="M94.5,192.2v-1.5H83v1.5h3.4v2.5H83v1.4h3.4v1.8c0,3.4,1.4,4,3.7,4H94v-1.5
			c0,0-1.8-0.1-2.5-0.1c-1.7,0-3-0.5-3-2.1v-2h5.9v-1.4h-5.9v-2.5L94.5,192.2z"/>
		<path id="パス_1939" class="st2" d="M101,197.8c0,3.3-1.6,4.1-3.4,4.1h-2.4v-1.5h2c1,0,1.5-1.1,1.5-2.6v-2.7h4.3
			c1.1,0,1.4-0.6,1.4-1.3c0.1-0.7-0.5-1.4-1.2-1.5c-0.1,0-0.2,0-0.2,0h-7.8v-1.5h8.6c4.2,0,4.1,5.9,0.7,5.9H101V197.8z"/>
		<path id="パス_1940" class="st2" d="M105.4,200.6L105.4,200.6c0.2-0.1,0.4-0.3,0.4-0.6c0-0.4-0.3-0.6-0.8-0.6h-1.1v2.3h0.4v-0.9
			h0.6c0.4,0,0.4,0.2,0.4,0.6c0,0.1,0,0.2,0.1,0.3h0.4c-0.1-0.2-0.1-0.4-0.1-0.6C105.7,200.7,105.5,200.6,105.4,200.6z M104.9,200.4
			h-0.6v-0.7h0.6c0.2,0,0.4,0.1,0.4,0.3C105.4,200.2,105.2,200.4,104.9,200.4C105,200.4,105,200.4,104.9,200.4L104.9,200.4z"/>
		<path id="パス_1941" class="st2" d="M104.8,198.6c-1.1,0-1.9,0.9-1.9,1.9c0,1.1,0.9,1.9,1.9,1.9c1.1,0,1.9-0.9,1.9-1.9
			c0,0,0,0,0,0C106.7,199.5,105.8,198.6,104.8,198.6C104.8,198.6,104.8,198.6,104.8,198.6z M104.8,202.2c-0.9,0-1.6-0.7-1.6-1.6
			c0-0.9,0.7-1.6,1.6-1.6c0.9,0,1.6,0.7,1.6,1.6l0,0C106.4,201.4,105.7,202.2,104.8,202.2C104.8,202.2,104.8,202.2,104.8,202.2z"/>
		<rect id="長方形_1490" x="58.4" y="206.6" class="st2" width="48.5" height="0.6"/>
	</g>
</g>
</svg>
