<svg xmlns="http://www.w3.org/2000/svg" width="369.591" height="95.142"><path data-name="長方形 2386" fill="#803b3b" d="M6.573 7.512h363.018v87.629H6.573z"/><path data-name="長方形 2388" d="M1 1v85.629h361.018V1H1M0 0h363.018v87.629H0Z" fill="#a86969"/><path data-name="長方形 2390" d="M7.573 8.512v78.116h354.444V8.512H7.573m-1-1h356.444v80.116H6.573Z" fill="#fff"/><path data-name="パス 4070" d="M127.149 55.109h7.74v.738h-7.74Zm4.752-6.138v1.188h-3.272a3.649 3.649 0 0 0 .878-1.188Zm-5.8-1.962h1.84a2.207 2.207 0 0 1-.108.7h-1.962Zm3.8-1.962h2v.72h-2Zm5.9 0v.72h-1.866v-.72Zm-3.9 2.664h-2.052l.054-.7h2Zm4.914 1.26a1.1 1.1 0 0 1-.162.522.413.413 0 0 1-.378.126 5.311 5.311 0 0 1-.99-.054 3.761 3.761 0 0 1 .216.594h-1.566v-1.188Zm-1.926 3.114h-7.74v-.7h7.74Zm0 1.872h-7.74v-.716h7.74Zm2.178 3.114v-6.21c.108 0 .2-.018.27-.018a1.6 1.6 0 0 0 1.044-.432c.306-.324.414-.972.5-2.142.018-.2.036-.558.036-.558h-4.982v-.7h3.816v-3.222h-3.816v-.774h-2.034v.774h-2v-.774h-1.942v.774h-4.086v1.26h4.086v.72h-3.42a27.2 27.2 0 0 1-1.134 3.24l1.944.126.054-.162h1.584a8.728 8.728 0 0 1-4.266 1.33 8.32 8.32 0 0 1 1.008 1.656c.486-.072.918-.144 1.332-.234v5.346h2.448a24.437 24.437 0 0 1-4.77 1.26 13.831 13.831 0 0 1 1.548 1.53 23 23 0 0 0 5.616-2.142l-1.422-.648h4.806l-1.368.846a37.977 37.977 0 0 1 4.81 1.908l2.372-1.026c-1.134-.486-3.024-1.17-4.752-1.728Zm15.822-4.536v-2.214h3.8v2.214Zm-5.6 0c.036-.666.054-1.314.054-1.89v-.324h3.386v2.214Zm3.438-6.3v2.088h-3.382v-2.088Zm5.958 2.088h-3.8v-2.088h3.8Zm2.124-4.122h-13.588v6.426c0 2.52-.162 5.724-2.124 7.884a7.907 7.907 0 0 1 1.692 1.386 10.308 10.308 0 0 0 2.268-5.346h3.672v5.022h2.16v-5.022h3.8v2.7c0 .324-.126.432-.468.432-.324 0-1.512.018-2.52-.036a8.093 8.093 0 0 1 .684 2.052 8.359 8.359 0 0 0 3.454-.378c.72-.324.972-.9.972-2.052Zm11.466-.648h-5.434v1.62h5.436Zm.684 2.412h-7.036v1.692h7.038Zm-2.52 9.144v2.07h-1.91v-2.07Zm1.854-1.692h-5.58v6.138h1.816v-.7h3.762Zm-5.524-.882h5.544v-1.6h-5.544Zm0-2.43h5.544v-1.638h-5.544Zm16 3.636h-3.922v-1.818h3.258v-1.89h-3.258v-1.71h3.636v-1.944h-1.944c.45-.756.99-1.8 1.494-2.826l-2.088-.594a20.835 20.835 0 0 1-1.242 3.15l.81.27h-3.51l.864-.342a11.56 11.56 0 0 0-1.3-2.97l-1.728.648a12.826 12.826 0 0 1 1.1 2.664h-1.636v1.944h3.438v1.71h-3.078v1.89h3.078v1.818h-4.012v1.944h4.014v4.122h2.106v-4.122h3.924Zm4.536-.252a13.505 13.505 0 0 1-.916 4.176 9.024 9.024 0 0 1 1.62.792 16.625 16.625 0 0 0 1.08-4.662Zm12.044 3.152v-4.23h1.566v4.23Zm-3.366-4.23h1.494v4.23h-1.494Zm1.494-6.07v4.122h-1.494v-4.122Zm3.438 4.122h-1.566v-4.122h1.566Zm-6.822-6.122v7.33a17.952 17.952 0 0 0-1.458-2.952l-1.548.684c.2.324.378.7.558 1.062l-1.674.126a65.268 65.268 0 0 0 3.276-4.608l-1.746-.842a34.19 34.19 0 0 1-1.656 2.934c-.18-.234-.414-.5-.648-.774.63-.99 1.386-2.376 2.016-3.618l-1.89-.684a25.071 25.071 0 0 1-1.332 3.132c-.144-.144-.288-.27-.432-.4l-1.008 1.458a15.73 15.73 0 0 1 2.2 2.52c-.252.36-.522.7-.774 1.026-.522.036-1.026.072-1.458.09l.306 1.89c.774-.09 1.638-.18 2.556-.27v7.344h1.908v-7.56l1.04-.108a11.253 11.253 0 0 1 .342 1.17l1.422-.666v4.1a23.5 23.5 0 0 0-1.152-3.312l-1.6.522a20.2 20.2 0 0 1 1.06 3.532l1.692-.576v2.65h1.89v-.976h4.932v.81h1.98V44.341Zm21.168 11.56c0-.684.684-1.116 1.71-1.116a5.557 5.557 0 0 1 1.44.2v.324c0 1.062-.378 1.638-1.476 1.638-.954-.006-1.674-.306-1.674-1.046Zm5.346-11.754h-2.578a7.644 7.644 0 0 1 .126 1.188c0 .378.018 1.116.018 2-.414.018-.846.018-1.26.018a29.992 29.992 0 0 1-3.15-.162v2.14c1.062.072 2.088.108 3.15.108.414 0 .846 0 1.278-.018.018 1.278.09 2.592.126 3.708a8.008 8.008 0 0 0-1.17-.072c-2.448 0-4 1.26-4 3.078 0 1.89 1.548 2.934 4.032 2.934 2.43 0 3.4-1.224 3.51-2.952a18.881 18.881 0 0 1 2.2 1.818l1.242-1.89a11.781 11.781 0 0 0-3.492-2.322c-.072-1.224-.162-2.664-.2-4.41.99-.072 1.926-.18 2.79-.306v-2.25a24.662 24.662 0 0 1-2.79.414 96.92 96.92 0 0 1 .054-1.854 11.273 11.273 0 0 1 .114-1.17Zm-8.784.2-2.484-.216a17.17 17.17 0 0 1-.18 1.764 57 57 0 0 0-.738 7.506 21.141 21.141 0 0 0 .72 5.76l2.034-.164a12.59 12.59 0 0 1-.036-.738 5.023 5.023 0 0 1 .09-.846c.216-.972.792-2.808 1.3-4.284l-1.1-.9c-.27.612-.576 1.224-.81 1.854a8.508 8.508 0 0 1-.072-1.17 48.05 48.05 0 0 1 .864-6.966 11.687 11.687 0 0 1 .412-1.606Zm19.53.81v2.376c1.458.126 3.024.2 4.914.2 1.71 0 3.942-.108 5.2-.216v-2.394a55.734 55.734 0 0 1-5.22.252 47.219 47.219 0 0 1-4.894-.22Zm1.512 7.632-2.358-.216a11.644 11.644 0 0 0-.36 2.592c0 2.466 2.07 3.852 6.192 3.852a27.737 27.737 0 0 0 6.246-.612l-.018-2.538a24.715 24.715 0 0 1-6.318.72c-2.592 0-3.69-.828-3.69-1.98a6.632 6.632 0 0 1 .306-1.82Zm23.418-8.892-2.556-.108a8.163 8.163 0 0 1-.09 1.818c-.036.216-.072.468-.108.738a25.726 25.726 0 0 1-3.528-.342v2.232c.918.09 1.98.144 3.114.162a28.8 28.8 0 0 1-2.052 6.044l2.124.756a6.654 6.654 0 0 1 .5-.792 6.229 6.229 0 0 1 4.986-2.106c1.764 0 2.682.9 2.682 1.98 0 2.646-3.978 3.132-7.92 2.484l.63 2.322c5.814.63 9.72-.828 9.72-4.878 0-2.3-1.926-3.852-4.842-3.852a8.771 8.771 0 0 0-4.464 1.134c.27-.882.558-2.034.81-3.132a72.466 72.466 0 0 0 7.146-.774l-.036-2.142a44.074 44.074 0 0 1-6.66.846c.036-.2.072-.4.108-.558.13-.588.238-1.204.436-1.834Zm18.558-.144-.576 2.16c1.4.36 5.418 1.206 7.236 1.44l.54-2.2a55.094 55.094 0 0 1-7.2-1.402Zm.108 3.618-2.412-.342a66.4 66.4 0 0 1-.9 7.524l2.07.522a4.36 4.36 0 0 1 .666-1.044 6.408 6.408 0 0 1 5-2.124c1.566 0 2.682.864 2.682 2.034 0 2.286-2.862 3.6-8.262 2.862l.684 2.358c7.488.63 10.08-1.89 10.08-5.166 0-2.178-1.836-4.122-4.986-4.122a8.811 8.811 0 0 0-5.31 1.71c.13-1.028.454-3.224.688-4.214Z" fill="#fff"/><path data-name="多角形 29" d="m92.152 57.9-6.573-13.147h13.146Z" fill="#fff"/></svg>