<?xml version="1.0" encoding="UTF-8"?><svg id="_イヤー_2" xmlns="http://www.w3.org/2000/svg" viewBox="0 0 56.36 47.07"><g id="main"><g><path id="_ス_4012" d="M38.32,25.74c1.34,.39,2.73,.6,4.13,.6,1.78,0,3.54-.36,5.17-1.06-1.3,4.76-4.43,12.98-10.65,13.9-.58,.09-1.05,.5-1.21,1.06l-1.36,4.87c-.22,.79,.24,1.6,1.03,1.82,.06,.02,.13,.03,.19,.04,.46,.06,.93,.09,1.39,.09,7.47,0,14.87-7.8,17.99-18.96,1.83-6.55,2.37-16.4-2.14-22.6-2.53-3.47-6.21-5.32-10.95-5.51h-.06c-7.24,0-13.11,5.87-13.11,13.12,0,5.88,3.91,11.04,9.57,12.62h0Z" fill="#dcd5b7"/><path id="_ス_4013" d="M1.69,19.55c1.71,3.02,4.54,5.25,7.88,6.19,1.34,.39,2.73,.6,4.13,.6,1.78,0,3.54-.36,5.18-1.06-1.3,4.76-4.43,12.98-10.65,13.9-.58,.09-1.05,.5-1.21,1.06l-1.36,4.87c-.22,.79,.24,1.6,1.03,1.82,.06,.02,.13,.03,.2,.04,.46,.06,.93,.09,1.39,.09,7.47,0,14.87-7.8,17.99-18.96,1.83-6.55,2.37-16.4-2.15-22.6C21.59,2.04,17.9,.19,13.16,0h-.06C5.86,0,0,5.88,0,13.12c0,2.25,.58,4.46,1.69,6.43h0Z" fill="#dcd5b7"/></g></g></svg>