<?xml version="1.0" encoding="UTF-8"?><svg xmlns="http://www.w3.org/2000/svg" viewBox="0 0 504.29 241.2"><defs><style>.d{fill:#003163;}.e{fill:#fff;}.f{fill:#42210b;}.g{fill:#9c272d;}.h{fill:#5cb1f7;}.i{fill:none;stroke:#9c272d;stroke-width:.57px;}.i,.j{stroke-miterlimit:10;}.j{fill:#e1d5bc;stroke:#b1a080;stroke-width:.28px;}</style></defs><g id="a"/><g id="b"><g id="c"><g><g><rect class="e" x=".92" y=".66" width="502.46" height="239.03"/><path class="h" d="M502.87,1.16V239.18H1.42V1.16H502.87m1-1H.42V240.18H503.87V.16h0Z"/></g><g><path class="d" d="M.67,11.74H155.27c7.94,0,14.38,6.44,14.38,14.38v2.21c0,7.94-6.44,14.38-14.38,14.38H.67V11.74H.67Z"/><g><path class="e" d="M24.08,29.6c-.33-.41-.97-1.1-1.55-1.68v5.66h-1.31v-5.25c-.64,.63-1.32,1.17-1.99,1.59-.13-.34-.46-.97-.65-1.22,1.62-.92,3.26-2.57,4.22-4.35h-3.73v-1.21h2.15v-2.62h1.31v2.62h.98l.23-.04,.74,.5c-.43,1.08-1.05,2.12-1.76,3.06,.67,.54,1.85,1.56,2.18,1.86l-.81,1.08Zm7.94,2.28v1.31h-7.96v-1.31h3.44v-5.57h-2.87v-1.28h2.87v-4.38h1.35v4.38h2.87v1.28h-2.87v5.57h3.17Z"/><path class="e" d="M48.12,30.95h-3.34v2.63h-1.34v-2.63h-3.51c-.23,1.09-1.02,2.1-3.6,2.69-.16-.28-.54-.77-.78-1,2.01-.41,2.79-1.02,3.06-1.69h-3.3v-1.12h3.46v-1.05h1.24v1.05h3.44v-1.05h1.34v1.05h3.34v1.12Zm-6.21-5.55c-.73,1.88-2.56,3.17-5.63,3.83-.13-.27-.43-.67-.65-.9,1.11-.2,2.05-.48,2.8-.84-.34-.28-.84-.63-1.29-.91-.34,.18-.68,.36-1.02,.5-.16-.21-.53-.64-.77-.82,1.08-.38,2.16-.95,2.93-1.66h-2.46v-1.02h11.93v1.02h-4.28v1.17c1.11-.24,2.23-.55,2.92-.87l.92,.74c-1.05,.44-2.53,.77-3.84,1v.57c0,.38,.1,.46,.74,.46h2.12c.48,0,.57-.14,.62-1.01,.24,.18,.71,.34,1.05,.43-.14,1.27-.47,1.59-1.55,1.59h-2.36c-1.45,0-1.82-.31-1.82-1.46v-2.6h-2.63c-.16,.18-.31,.37-.48,.54h1.81l.21-.04,.74,.31Zm-3.21-2.97h-3.21v-1.05h3.21v-.87h1.31v.87h3.4v-.87h1.32v.87h3.31v1.05h-3.31v.87h-1.32v-.87h-3.4v.87h-1.31v-.87Zm-.53,3.51l-.21,.16c.47,.27,1,.61,1.35,.9,.47-.31,.84-.67,1.1-1.05h-2.23Z"/><path class="e" d="M54.49,29.87c0,1.01,1,1.71,3.19,1.71,1.93,0,3.75-.21,4.91-.55v1.56c-1.09,.28-2.86,.5-4.86,.5-3.06,0-4.71-1.02-4.71-2.89,0-.77,.16-1.45,.29-2.01l1.46,.14c-.16,.54-.27,1.02-.27,1.54Zm3.24-7.22c1.38,0,2.9-.09,3.95-.2v1.48c-.98,.09-2.62,.17-3.95,.17-1.45,0-2.67-.06-3.81-.16v-1.46c1.04,.11,2.35,.17,3.81,.17Zm5.49,.24l-.94,.41c-.28-.58-.74-1.44-1.14-1.98l.92-.38c.36,.51,.87,1.39,1.15,1.95Zm1.65-.61l-.92,.41c-.31-.61-.77-1.44-1.17-1.96l.91-.38c.37,.53,.91,1.42,1.18,1.93Z"/><path class="e" d="M71.53,25.83c.5,.51,1.76,2.01,2.05,2.37l-.8,1.07c-.24-.47-.77-1.25-1.25-1.93v6.23h-1.27v-6.27c-.51,1.46-1.17,2.86-1.85,3.74-.14-.37-.46-.91-.65-1.21,.95-1.17,1.88-3.26,2.33-5.08h-2.01v-1.25h2.18v-2.97h1.27v2.97h1.91v1.25h-1.91v1.08Zm8.95-4.51v12.07h-1.32v-.77h-3.87v.84h-1.27v-12.15h6.46Zm-5.19,1.25v2.09h3.87v-2.09h-3.87Zm0,5.46h3.87v-2.16h-3.87v2.16Zm3.87,3.38v-2.18h-3.87v2.18h3.87Z"/><path class="e" d="M89.55,23.92h-5.3v-1.05h5.3v1.05Zm-.47,8.87h-3.06v.6h-1.14v-4.78h4.2v4.18Zm-.01-6.97h-4.17v-1.02h4.17v1.02Zm-4.17,.87h4.17v1.04h-4.17v-1.04Zm4.14-4.66h-4.08v-1.04h4.08v1.04Zm-3.01,7.65v2.05h1.92v-2.05h-1.92Zm8.09-1.18c0,.84,.53,2.92,3.3,3.97-.23,.3-.6,.81-.77,1.12-2.01-.78-2.97-2.5-3.2-3.36-.24,.87-1.31,2.52-3.56,3.36-.16-.3-.5-.81-.75-1.07,3.04-1.08,3.63-3.17,3.63-4.02v-2.08h1.35v2.08Zm-4.75,1.46c.65-.51,1.08-1.49,1.28-2.47l1.17,.24c-.18,1.07-.65,2.18-1.38,2.83l-1.07-.6Zm7.04-3.04c-.67-.61-1.92-1.49-3.07-2.22-.55,1.04-1.48,1.79-3.07,2.33-.14-.31-.48-.8-.75-1.05,2.92-.9,3.24-2.55,3.37-5.46h1.29c-.06,1.18-.16,2.2-.4,3.07,1.22,.71,2.72,1.66,3.5,2.32l-.87,1.01Zm-4.52-5.29c-.13,.95-.51,1.99-1.15,2.59l-1.01-.48c.55-.5,.92-1.44,1.08-2.32l1.08,.21Zm2.79,8.23c.44-.65,.97-1.73,1.25-2.47l1.29,.43c-.5,.85-1.07,1.82-1.52,2.43l-1.02-.38Zm2.39-8.11c-.46,.81-.98,1.69-1.39,2.26l-.98-.38c.4-.63,.87-1.61,1.11-2.29l1.27,.41Z"/><path class="e" d="M102.45,25.59h9.32c.3,0,.82-.01,1.19-.07v1.46c-.34-.01-.83-.03-1.19-.03h-3.67c-.06,1.51-.34,2.76-.88,3.78-.51,.97-1.59,2.02-2.83,2.66l-1.31-.97c1.05-.43,2.08-1.25,2.63-2.12,.61-.95,.8-2.08,.85-3.36h-4.11c-.43,0-.9,.01-1.29,.04v-1.48c.4,.04,.85,.07,1.29,.07Zm1.76-3.58h4.81c.44,0,.98-.03,1.42-.09v1.46c-.46-.03-.97-.06-1.42-.06h-4.79c-.48,0-1.01,.03-1.39,.06v-1.46c.43,.06,.91,.09,1.38,.09Zm8.16,.78l-.94,.4c-.28-.57-.74-1.42-1.12-1.96l.91-.38c.36,.51,.87,1.39,1.15,1.95Zm1.63-.63l-.92,.41c-.3-.61-.77-1.42-1.17-1.96l.91-.38c.38,.54,.92,1.42,1.18,1.93Z"/><path class="e" d="M127.57,23.62c-.5,1.17-1.34,2.77-2.33,4.05,1.46,1.25,3.19,3.09,4.07,4.17l-1.25,1.11c-.94-1.28-2.36-2.84-3.77-4.15-1.52,1.62-3.44,3.14-5.47,4.1l-1.15-1.21c2.3-.88,4.44-2.59,5.84-4.17,.97-1.08,1.92-2.65,2.26-3.75h-5.22c-.55,0-1.32,.07-1.55,.09v-1.61c.28,.04,1.11,.1,1.55,.1h5.28c.53,0,1-.06,1.24-.14l.92,.68c-.1,.14-.31,.5-.41,.74Z"/><path class="e" d="M139.87,22.66c-.06,.11-.13,.24-.2,.36h3.41c.4,0,.8-.04,1.07-.14l1.17,.71c-.14,.23-.3,.58-.4,.87-.38,1.37-1.22,3.27-2.5,4.84-1.31,1.62-3.03,2.92-5.69,3.94l-1.32-1.18c2.74-.82,4.44-2.08,5.7-3.56,1.05-1.21,1.91-3,2.16-4.2h-4.44c-.91,1.22-2.12,2.49-3.61,3.48l-1.25-.94c2.47-1.48,3.8-3.46,4.47-4.71,.17-.28,.41-.87,.53-1.28l1.65,.54c-.29,.43-.58,.98-.74,1.27Z"/></g></g><path class="d" d="M502.87,1.42V239.78H1.42V1.42H502.87m1.42-1.42H0V241.2H504.29V0h0Z"/><g><path class="g" d="M85.1,144.49c-2.31-2.28-3.47-5.44-3.47-9.49v-20.66c0-4.08,1.16-7.26,3.49-9.52,2.32-2.26,5.69-3.39,10.11-3.39s7.81,1.13,10.13,3.38c2.31,2.25,3.47,5.43,3.47,9.53v20.66c0,4.08-1.16,7.26-3.49,9.52-2.32,2.26-5.69,3.39-10.11,3.39s-7.81-1.14-10.13-3.42Zm13.94-6.6c.81-1.18,1.22-2.87,1.22-5.08v-16.29c0-2.21-.41-3.9-1.22-5.08-.81-1.18-2.08-1.77-3.81-1.77s-3,.59-3.81,1.77c-.81,1.18-1.22,2.87-1.22,5.08v16.29c0,2.21,.41,3.9,1.22,5.08,.81,1.18,2.08,1.77,3.81,1.77s3-.59,3.81-1.77Z"/><path class="g" d="M129.17,147.45h-8.56v-35.38l-5.53,2.09v-9.1l6.78-3.06h7.31v45.45Z"/><path class="g" d="M137.55,139.73l15.6-20.51c.71-.92,1.25-1.86,1.64-2.83,.39-.97,.58-1.87,.58-2.7v-.06c0-1.23-.4-2.18-1.19-2.84-.79-.67-1.92-1-3.38-1s-2.56,.46-3.44,1.39c-.88,.93-1.41,2.25-1.59,3.95v.03h-8.78v-.03c.19-2.83,.87-5.27,2.05-7.31,1.18-2.04,2.77-3.6,4.77-4.67,2-1.07,4.31-1.61,6.94-1.61,2.83,0,5.26,.46,7.27,1.39,2.01,.93,3.54,2.28,4.59,4.05,1.05,1.77,1.58,3.91,1.58,6.41v.03c0,2.06-.36,4.11-1.08,6.14s-1.72,3.87-3.02,5.52l-11.19,14.13h15.54v8.25h-26.88v-7.72Z"/><path class="g" d="M174.78,144.49c-2.31-2.28-3.47-5.44-3.47-9.49v-20.66c0-4.08,1.16-7.26,3.49-9.52,2.32-2.26,5.69-3.39,10.11-3.39s7.81,1.13,10.13,3.38c2.31,2.25,3.47,5.43,3.47,9.53v20.66c0,4.08-1.16,7.26-3.49,9.52-2.32,2.26-5.69,3.39-10.11,3.39s-7.81-1.14-10.13-3.42Zm13.94-6.6c.81-1.18,1.22-2.87,1.22-5.08v-16.29c0-2.21-.41-3.9-1.22-5.08-.81-1.18-2.08-1.77-3.81-1.77s-3,.59-3.81,1.77c-.81,1.18-1.22,2.87-1.22,5.08v16.29c0,2.21,.41,3.9,1.22,5.08,.81,1.18,2.08,1.77,3.81,1.77s3-.59,3.81-1.77Z"/><path class="g" d="M229.2,127.03v8.25h-22.26v-8.25h22.26Z"/><path class="g" d="M236.7,132.6l14-30.57h9.69l-13.63,30.19h20.41v8.25h-30.48v-7.88Zm18.35-11.88h8.57v26.76h-8.57v-26.76Z"/><path class="g" d="M298.46,107.69l-10.19,39.76h-9.28l9.88-37.2h-7.81v6.85h-8.56v-15.1h25.97v5.69Z"/><path class="g" d="M309.44,144.49c-2.31-2.28-3.47-5.44-3.47-9.49v-20.66c0-4.08,1.16-7.26,3.49-9.52,2.32-2.26,5.69-3.39,10.11-3.39s7.81,1.13,10.13,3.38c2.31,2.25,3.47,5.43,3.47,9.53v20.66c0,4.08-1.16,7.26-3.49,9.52-2.32,2.26-5.69,3.39-10.11,3.39s-7.81-1.14-10.13-3.42Zm13.94-6.6c.81-1.18,1.22-2.87,1.22-5.08v-16.29c0-2.21-.41-3.9-1.22-5.08-.81-1.18-2.08-1.77-3.81-1.77s-3,.59-3.81,1.77c-.81,1.18-1.22,2.87-1.22,5.08v16.29c0,2.21,.41,3.9,1.22,5.08,.81,1.18,2.08,1.77,3.81,1.77s3-.59,3.81-1.77Z"/><path class="g" d="M363.86,127.03v8.25h-22.26v-8.25h22.26Z"/><path class="g" d="M371.36,132.6l14-30.57h9.69l-13.63,30.19h20.41v8.25h-30.48v-7.88Zm18.35-11.88h8.57v26.76h-8.57v-26.76Z"/><path class="g" d="M433.12,107.69l-10.19,39.76h-9.28l9.88-37.2h-7.81v6.85h-8.56v-15.1h25.97v5.69Z"/><path class="g" d="M444.09,144.49c-2.31-2.28-3.47-5.44-3.47-9.49v-20.66c0-4.08,1.16-7.26,3.49-9.52,2.32-2.26,5.69-3.39,10.11-3.39s7.81,1.13,10.13,3.38c2.31,2.25,3.47,5.43,3.47,9.53v20.66c0,4.08-1.16,7.26-3.49,9.52-2.32,2.26-5.69,3.39-10.11,3.39s-7.81-1.14-10.13-3.42Zm13.94-6.6c.81-1.18,1.22-2.87,1.22-5.08v-16.29c0-2.21-.41-3.9-1.22-5.08-.81-1.18-2.08-1.77-3.81-1.77s-3,.59-3.81,1.77c-.81,1.18-1.22,2.87-1.22,5.08v16.29c0,2.21,.41,3.9,1.22,5.08,.81,1.18,2.08,1.77,3.81,1.77s3-.59,3.81-1.77Z"/></g><rect class="i" x="114.01" y="56.65" width="108.98" height="34.26"/><g><path class="g" d="M130.59,78.46c.76,1.23,2.15,1.76,4.09,1.85,1.99,.09,6.05,.04,8.29-.12-.18,.37-.44,1.13-.53,1.61-2.03,.09-5.73,.12-7.78,.05-2.19-.09-3.7-.67-4.78-2.03-.85,.72-1.73,1.45-2.72,2.19l-.78-1.62c.81-.49,1.78-1.16,2.63-1.83v-4.22h-2.42v-1.52h3.99v5.64Zm-.78-8.17c-.56-.86-1.83-2.1-2.95-2.91l1.15-1.02c1.09,.76,2.42,1.91,3.02,2.75l-1.22,1.18Zm3.99,9.08h-1.53v-9.03h4.53c-.95-.46-2.01-.92-2.91-1.27l1.06-.88c.69,.25,1.5,.56,2.28,.9,.67-.34,1.36-.76,1.94-1.18h-6.83v-1.29h8.34l.33-.09,.99,.79c-.92,.85-2.13,1.73-3.37,2.4,.46,.21,.86,.42,1.2,.62h2.17v7.51c0,.74-.12,1.11-.63,1.34-.49,.21-1.23,.23-2.36,.23-.05-.41-.25-.95-.44-1.32,.74,.04,1.41,.02,1.62,.02,.19,0,.26-.07,.26-.28v-1.23h-2.63v2.72h-1.48v-2.72h-2.54v2.77Zm0-7.81v1.29h2.54v-1.29h-2.54Zm2.54,3.81v-1.32h-2.54v1.32h2.54Zm4.11-3.81h-2.63v1.29h2.63v-1.29Zm0,3.81v-1.32h-2.63v1.32h2.63Z"/><path class="g" d="M147.71,68.93h6.58v1.31h-6.58v-1.31Zm6.07,12.45h-3.86v.76h-1.41v-5.93h5.27v5.17Zm-.07-8.73h-5.17v-1.27h5.17v1.27Zm-5.17,1.13h5.17v1.27h-5.17v-1.27Zm5.15-5.94h-5.04v-1.29h5.04v1.29Zm-3.78,9.7v2.54h2.45v-2.54h-2.45Zm10.12-4.96v2.68h3.17v6.81h-1.62v-.78h-4.64v.86h-1.57v-6.9h2.98v-2.68h-3.95v-1.55h3.95v-2.49c-1.06,.12-2.12,.25-3.12,.32-.05-.41-.28-1.02-.48-1.39,2.65-.23,5.71-.69,7.51-1.25l1.15,1.34c-.97,.28-2.15,.53-3.39,.74v2.73h3.97v1.55h-3.97Zm1.55,4.16h-4.64v3.07h4.64v-3.07Z"/><path class="g" d="M171.57,70.18c-.44,.48-.9,.9-1.34,1.27-.3-.3-.95-.81-1.36-1.08,1.5-1.04,2.89-2.72,3.7-4.41l1.6,.46c-.25,.51-.53,1.01-.85,1.48h10.85v1.45h-1.73v2.65h2.38v1.48h-2.38v2.65h2.13v1.48h-15.15v-1.48h2.13v-2.65h-2.4v-1.48h2.4v-1.82Zm-2.56,11.34c.86-.72,1.66-2.06,2.08-3.33l1.59,.39c-.44,1.32-1.2,2.72-2.12,3.6l-1.55-.65Zm4.04-9.53h1.64v-2.65h-1.64v2.65Zm0,4.13h1.64v-2.65h-1.64v2.65Zm2.65,2.42c.23,1.04,.42,2.4,.44,3.21l-1.6,.23c0-.83-.14-2.22-.35-3.28l1.52-.16Zm2.08-6.54v-2.65h-1.71v2.65h1.71Zm-1.71,1.48v2.65h1.71v-2.65h-1.71Zm3.17,4.99c.46,1.01,.92,2.36,1.08,3.21l-1.62,.32c-.14-.85-.55-2.22-.99-3.28l1.53-.25Zm1.68-9.12h-1.75v2.65h1.75v-2.65Zm0,4.13h-1.75v2.65h1.75v-2.65Zm1.85,4.64c.85,1.06,1.87,2.52,2.33,3.47l-1.66,.58c-.42-.93-1.38-2.45-2.22-3.56l1.55-.49Z"/><path class="g" d="M194.44,73.55c.53,.56,2.22,2.72,2.59,3.25l-1.04,1.29c-.3-.64-.97-1.75-1.55-2.68v6.74h-1.53v-6.76c-.6,1.76-1.41,3.56-2.24,4.67-.14-.48-.53-1.2-.79-1.64,.95-1.16,1.96-3.26,2.54-5.06h-2.24v-1.53h2.73v-5.77h1.53v5.77h2.75v1.53h-2.75v.19Zm-3.33-2.2c-.07-1.08-.44-2.73-.88-3.99l1.18-.3c.48,1.23,.85,2.86,.97,3.93l-1.27,.35Zm6.21-4.04c-.44,1.38-.99,3.02-1.43,4.04l-1.06-.34c.39-1.08,.85-2.82,1.08-4.02l1.41,.32Zm6.84,9.98v4.87h-1.54v-4.59l-5.22,.95-.26-1.52,5.49-.99v-10.04h1.54v9.75l1.96-.34,.23,1.5-2.19,.39Zm-3.79-2.54c-.62-.65-1.87-1.57-2.91-2.13l.78-1.18c1.02,.55,2.33,1.38,2.95,1.99l-.81,1.32Zm.71-4.27c-.55-.69-1.75-1.64-2.75-2.28l.83-1.11c.99,.6,2.21,1.48,2.79,2.13l-.86,1.25Z"/></g><rect class="i" x="236.77" y="56.65" width="166.61" height="34.26"/><g><path class="g" d="M248.62,79.59c3.62-3.55,5.8-5.8,5.8-7.78,0-1.38-.74-2.29-2.2-2.29-1.02,0-1.87,.65-2.56,1.45l-1.15-1.13c1.11-1.2,2.26-1.94,3.95-1.94,2.38,0,3.92,1.52,3.92,3.81s-2.1,4.64-4.8,7.46c.65-.07,1.48-.12,2.12-.12h3.3v1.73h-8.38v-1.18Z"/><path class="g" d="M263.87,77.42h-5.63v-1.36l5.17-7.92h2.36v7.71h1.64v1.57h-1.64v3.35h-1.91v-3.35Zm0-1.57v-3.19c0-.71,.05-1.83,.09-2.54h-.07c-.32,.64-.67,1.23-1.04,1.89l-2.56,3.85h3.58Z"/><path class="g" d="M277.12,78.74h-3.67v1.48h-1.52v-13.14h5.19v11.66Zm-3.67-10.18v3.55h2.12v-3.55h-2.12Zm2.12,8.71v-3.72h-2.12v3.72h2.12Zm9.93-4.5v1.76h1.89v1.45h-1.89v4.34c0,.85-.19,1.29-.78,1.53-.62,.25-1.52,.26-2.89,.26-.07-.44-.3-1.08-.53-1.53,.99,.04,1.96,.04,2.22,.04,.28-.02,.37-.09,.37-.34v-4.3h-6.42v-1.45h6.42v-1.76h-6.47v-1.45h4.2v-1.94h-3.53v-1.43h3.53v-2.01h1.64v2.01h3.63v1.43h-3.63v1.94h4.29v1.45h-2.05Zm-5.79,3.65c.85,.88,1.82,2.08,2.21,2.93l-1.39,.85c-.37-.85-1.29-2.1-2.13-3.02l1.32-.76Z"/><path class="g" d="M291.44,72.81v9.35h-1.62v-15.49h6.51v6.14h-4.89Zm0-4.9v1.22h3.33v-1.22h-3.33Zm3.33,3.69v-1.31h-3.33v1.31h3.33Zm9.61,8.52c0,.93-.19,1.46-.83,1.75-.62,.26-1.59,.28-3.07,.28-.07-.44-.3-1.15-.51-1.61h-4.76v.88h-1.5v-7.39h6.62v6.46c.86,.04,1.71,.02,1.99,.02,.32-.02,.41-.11,.41-.41v-7.25h-5.01v-6.17h6.67v13.44Zm-9.17-4.85v1.38h3.58v-1.38h-3.58Zm3.58,4.04v-1.46h-3.58v1.46h3.58Zm.49-11.39v1.22h3.44v-1.22h-3.44Zm3.44,3.72v-1.34h-3.44v1.34h3.44Z"/><path class="g" d="M310.76,79.22l.99-1.31c.76,.78,1.73,1.43,3.07,1.43,1.46,0,2.47-.79,2.47-2.06,0-1.39-.92-2.29-3.85-2.29v-1.5c2.56,0,3.4-.93,3.4-2.15,0-1.13-.76-1.82-1.99-1.82-1,0-1.85,.49-2.59,1.23l-1.06-1.27c1.02-.93,2.22-1.59,3.72-1.59,2.33,0,3.97,1.2,3.97,3.28,0,1.46-.87,2.43-2.24,2.95v.09c1.5,.37,2.68,1.46,2.68,3.18,0,2.28-1.96,3.62-4.34,3.62-2.05,0-3.37-.81-4.23-1.78Z"/><path class="g" d="M321.24,74.88c0-4.97,2.33-6.99,4.9-6.99,1.45,0,2.5,.62,3.25,1.39l-1.11,1.23c-.48-.56-1.27-.95-2.05-.95-1.64,0-3.02,1.23-3.1,4.94,.76-.93,1.89-1.52,2.82-1.52,2.17,0,3.65,1.29,3.65,3.9s-1.76,4.11-3.88,4.11c-2.47,0-4.48-1.96-4.48-6.12Zm1.94,1.13c.21,2.35,1.15,3.44,2.52,3.44,1.13,0,2.03-.95,2.03-2.56s-.78-2.42-2.15-2.42c-.72,0-1.62,.41-2.4,1.53Z"/><path class="g" d="M330.85,79.27l.97-1.32c.74,.74,1.68,1.39,3.03,1.39,1.46,0,2.58-.99,2.58-2.59s-.99-2.54-2.47-2.54c-.83,0-1.32,.25-2.08,.74l-.99-.64,.39-6.17h6.58v1.71h-4.82l-.3,3.33c.56-.28,1.08-.44,1.78-.44,2.17,0,3.95,1.22,3.95,3.93s-2.1,4.32-4.37,4.32c-2.05,0-3.33-.83-4.25-1.73Z"/><path class="g" d="M357.81,67.1v14.8h-1.75v-1.08h-8.31v1.15h-1.68v-14.87h11.73Zm-10.05,1.66v4.3h8.31v-4.3h-8.31Zm8.31,10.41v-4.48h-8.31v4.48h8.31Z"/><path class="g" d="M368.46,70.89c-.34,1.99-.81,3.76-1.46,5.31,.79,1.08,1.46,2.1,1.89,2.95l-1.32,1.11c-.32-.69-.79-1.52-1.38-2.38-.95,1.69-2.2,3.07-3.81,4.15-.21-.32-.78-.97-1.11-1.27,1.73-1.04,3-2.49,3.92-4.3-.95-1.29-2.01-2.58-3.02-3.67l1.15-.93c.85,.88,1.73,1.91,2.58,2.93,.42-1.23,.74-2.59,.97-4.09l1.61,.21Zm9.12,.72h-1.99v8.41c0,1.01-.23,1.48-.79,1.78-.6,.26-1.55,.34-3.03,.34-.07-.48-.3-1.25-.53-1.75,1.06,.04,2.01,.04,2.31,.02,.3,0,.42-.09,.42-.39v-8.41h-4.62v-1.32h-7.66v-1.52h3.21v-2.79h1.59v2.79h3.41v1.25h4.07v-4.06h1.62v4.06h1.99v1.59Zm-6.35,6.14c-.26-1.02-1.04-2.66-1.85-3.86l1.34-.64c.83,1.16,1.66,2.73,1.92,3.79l-1.41,.71Z"/><path class="g" d="M382.11,72.6c0,2.75-.26,6.84-1.8,9.54-.3-.26-1.02-.76-1.39-.93,1.43-2.5,1.55-6.09,1.55-8.61v-4.48h6.35v-2.15h1.71v2.15h6.54v1.59h-12.96v2.89Zm-.14,7.3c.83-1.36,1.25-3.44,1.43-5.33l1.5,.34c-.21,1.92-.62,4.25-1.46,5.64l-1.46-.65Zm8.13,.44c.63,0,.72-.44,.81-2.93,.33,.26,1.02,.55,1.45,.67-.16,2.93-.58,3.74-2.13,3.74h-2.29c-1.66,0-2.08-.53-2.08-2.2v-6.47h1.6v6.47c0,.62,.12,.72,.72,.72h1.92Zm.02-6.51c-.85-.79-2.65-1.98-4.08-2.72l1.11-1.08c1.39,.67,3.21,1.76,4.15,2.58l-1.18,1.22Zm2.84,.32c1.13,1.8,2.21,4.15,2.49,5.73l-1.61,.67c-.25-1.55-1.23-3.97-2.33-5.82l1.45-.58Z"/></g><rect class="j" x="12.84" y="168.21" width="151.85" height="55.94"/><g><path class="f" d="M27.09,209.9v-5.59c0-1.73,.4-3.03,1.2-3.93s1.97-1.34,3.52-1.34,2.79,.44,3.56,1.33,1.16,2.2,1.16,3.94v5.59c0,1.8-.38,3.16-1.16,4.08-.77,.92-1.96,1.37-3.56,1.37s-2.79-.45-3.56-1.36-1.16-2.27-1.16-4.09Zm6.44-.25v-4.9c0-1.13-.12-1.92-.36-2.38-.24-.46-.69-.69-1.36-.69s-1.12,.23-1.35,.69c-.23,.46-.34,1.25-.34,2.38v4.9c0,1.13,.12,1.93,.36,2.39s.68,.7,1.34,.7,1.13-.23,1.36-.7c.24-.47,.36-1.26,.36-2.39Z"/><path class="f" d="M39.61,211.27v-.48h2.79v.34c0,.55,.16,.97,.47,1.25,.31,.28,.77,.42,1.36,.42,.56,0,1.01-.18,1.34-.55s.49-.86,.49-1.49v-.41c0-.69-.18-1.21-.53-1.58-.35-.37-.86-.55-1.54-.55h-.8v-2.54h.78c.58,0,1.03-.17,1.35-.5,.32-.34,.48-.8,.48-1.4v-.34c0-.58-.15-1.03-.45-1.36s-.71-.49-1.23-.49-.95,.15-1.24,.45-.44,.71-.44,1.23v.39h-2.75v-.39c0-1.33,.4-2.36,1.2-3.1,.8-.74,1.91-1.11,3.33-1.11s2.48,.38,3.28,1.13,1.19,1.77,1.19,3.03v.34c0,.69-.16,1.3-.48,1.84-.32,.54-.78,.97-1.37,1.29,.69,.29,1.21,.75,1.57,1.37,.36,.63,.54,1.38,.54,2.27v.44c0,.93-.2,1.74-.6,2.43-.4,.69-.95,1.22-1.67,1.59s-1.53,.56-2.43,.56c-1.48,0-2.63-.35-3.45-1.07-.82-.71-1.23-1.71-1.23-3.01Z"/><path class="f" d="M58.37,205.86v2.63h-6.3v-2.63h6.3Z"/><path class="f" d="M61.34,211.27v-.48h2.79v.34c0,.55,.16,.97,.47,1.25,.31,.28,.77,.42,1.36,.42,.56,0,1.01-.18,1.34-.55s.49-.86,.49-1.49v-.41c0-.69-.18-1.21-.53-1.58-.35-.37-.86-.55-1.54-.55h-.8v-2.54h.78c.58,0,1.03-.17,1.35-.5,.32-.34,.48-.8,.48-1.4v-.34c0-.58-.15-1.03-.45-1.36s-.71-.49-1.23-.49-.95,.15-1.24,.45-.44,.71-.44,1.23v.39h-2.75v-.39c0-1.33,.4-2.36,1.2-3.1,.8-.74,1.91-1.11,3.33-1.11s2.48,.38,3.28,1.13,1.19,1.77,1.19,3.03v.34c0,.69-.16,1.3-.48,1.84-.32,.54-.78,.97-1.37,1.29,.69,.29,1.21,.75,1.57,1.37,.36,.63,.54,1.38,.54,2.27v.44c0,.93-.2,1.74-.6,2.43-.4,.69-.95,1.22-1.67,1.59s-1.53,.56-2.43,.56c-1.48,0-2.63-.35-3.45-1.07-.82-.71-1.23-1.71-1.23-3.01Z"/><path class="f" d="M73.92,211.45v-.34h2.75v.14c0,.49,.15,.87,.46,1.15,.31,.27,.73,.41,1.26,.41,.58,0,1.01-.19,1.29-.56,.28-.37,.42-.92,.42-1.64v-1.19c0-.75-.14-1.3-.42-1.66-.28-.36-.72-.54-1.32-.54-.76,0-1.31,.36-1.63,1.08h-2.59v-9h8.54v2.57h-5.96v3.57c.61-.49,1.36-.73,2.25-.73,1.33,0,2.33,.39,3.01,1.18s1.02,1.91,1.02,3.38v1.49c0,1.45-.41,2.58-1.23,3.39-.82,.81-1.95,1.21-3.4,1.21-1.37,0-2.46-.34-3.26-1.03s-1.2-1.64-1.2-2.86Z"/><path class="f" d="M86.21,211.45v-.34h2.75v.14c0,.49,.15,.87,.46,1.15,.31,.27,.73,.41,1.26,.41,.58,0,1.01-.19,1.29-.56,.28-.37,.42-.92,.42-1.64v-1.19c0-.75-.14-1.3-.42-1.66-.28-.36-.72-.54-1.32-.54-.76,0-1.31,.36-1.63,1.08h-2.59v-9h8.54v2.57h-5.96v3.57c.61-.49,1.36-.73,2.25-.73,1.33,0,2.33,.39,3.01,1.18s1.02,1.91,1.02,3.38v1.49c0,1.45-.41,2.58-1.23,3.39-.82,.81-1.95,1.21-3.4,1.21-1.37,0-2.46-.34-3.26-1.03s-1.2-1.64-1.2-2.86Z"/><path class="f" d="M98.4,210.67v-.71c0-.63,.09-1.22,.26-1.79,.18-.56,.43-1.18,.77-1.86l3.62-7.03h3.16l-3.28,6.39c.34-.15,.72-.23,1.15-.23,1.24,0,2.23,.39,2.97,1.18,.74,.79,1.11,1.86,1.11,3.22v.73c0,1.5-.45,2.66-1.34,3.5-.89,.84-2.07,1.26-3.54,1.26s-2.72-.41-3.58-1.24c-.86-.82-1.29-1.97-1.29-3.44Zm6.76,.05v-.71c0-.66-.17-1.16-.5-1.52-.34-.36-.79-.54-1.37-.54s-1.03,.18-1.36,.54c-.33,.36-.49,.86-.49,1.5v.76c0,.64,.16,1.15,.49,1.51,.33,.37,.78,.55,1.36,.55s1.04-.18,1.37-.55,.5-.88,.5-1.53Z"/><path class="f" d="M117.43,205.86v2.63h-6.3v-2.63h6.3Z"/><path class="f" d="M120.2,204.54v-3.25l2.66-1.99h3v15.8h-3v-12.48l-2.66,1.92Z"/><path class="f" d="M129.08,204.54v-3.25l2.66-1.99h3v15.8h-3v-12.48l-2.66,1.92Z"/><path class="f" d="M137.96,204.54v-3.25l2.66-1.99h3v15.8h-3v-12.48l-2.66,1.92Z"/><path class="f" d="M146.85,204.54v-3.25l2.66-1.99h3v15.8h-3v-12.48l-2.66,1.92Z"/></g><g><path class="f" d="M43.28,184.4c1.23,1.31,3.22,2.53,4.97,3.11-.22,.18-.49,.53-.62,.77-1.79-.7-3.83-2.08-5.14-3.57v3.76h-.91v-3.72c-1.3,1.47-3.3,2.78-5.03,3.5-.14-.23-.41-.58-.62-.74,1.72-.61,3.65-1.81,4.88-3.11h-3.38v-4.88h4.15v-1.2h-5.33v-.85h5.33v-1.28h.91v1.28h5.48v.85h-5.48v1.2h4.38v4.88h-3.6Zm-4.96-2.78h3.27v-1.37h-3.27v1.37Zm0,2.08h3.27v-1.39h-3.27v1.39Zm4.18-3.45v1.37h3.47v-1.37h-3.47Zm3.47,2.05h-3.47v1.39h3.47v-1.39Z"/><path class="f" d="M52.94,184.96c-.64,1.07-1.68,2.26-2.69,3.01-.19-.18-.5-.41-.72-.53,1-.72,2-1.83,2.49-2.78l.92,.3Zm8.5-6.33h-11.68v-.87h5.34v-1.61h.92v1.61h5.42v.87Zm-5.42,5.2v3.57c0,.54-.12,.8-.57,.93-.43,.14-1.19,.14-2.39,.14-.05-.24-.19-.59-.32-.84,.97,.03,1.83,.03,2.05,.01,.26-.01,.31-.07,.31-.26v-3.56h-3.68v-3.92h8.46v3.92h-3.87Zm-3.7-.78h6.64v-2.34h-6.64v2.34Zm6.62,1.64c.92,.89,2.04,2.12,2.6,2.92l-.87,.45c-.51-.78-1.61-2.07-2.53-2.99l.8-.38Z"/><path class="f" d="M64.62,183.96c-.23,1.28-.61,2.58-1.1,3.43-.16-.11-.54-.3-.74-.36,.5-.82,.82-2.03,1.01-3.22l.83,.15Zm2.64-3.54c.65,.87,1.37,2.01,1.65,2.77l-.73,.38c-.09-.26-.23-.57-.41-.89l-1.46,.08v5.72h-.85v-5.66c-.93,.05-1.8,.09-2.51,.12l-.09-.82,.91-.03c.34-.37,.69-.78,1.04-1.22-.45-.57-1.19-1.27-1.87-1.78l.45-.59c.12,.09,.26,.2,.38,.3,.57-.77,1.18-1.84,1.55-2.61l.81,.35c-.54,.89-1.23,1.97-1.81,2.73,.38,.32,.73,.68,.99,.96,.65-.87,1.28-1.78,1.73-2.54l.8,.39c-.89,1.26-2.08,2.83-3.12,3.97,.81-.03,1.73-.07,2.65-.12-.24-.41-.51-.81-.78-1.18l.69-.32Zm.42,3.31c.46,.82,.93,1.91,1.1,2.62l-.74,.28c-.18-.72-.63-1.81-1.07-2.64l.72-.27Zm6,3.84c.69,0,.81-.32,.88-2.1,.2,.16,.59,.3,.84,.36-.12,2.01-.41,2.57-1.68,2.57h-2.8c-1.31,0-1.72-.28-1.72-1.46v-5.83h4.5v-3.37h-4.91v-.84h5.8v5.84h-.89v-.78h-3.61v4.98c0,.51,.14,.62,.89,.62h2.69Z"/><path class="f" d="M78.63,180.02v.73c0,2.26-.18,5.5-1.5,7.71-.18-.15-.57-.38-.78-.46,1.27-2.11,1.39-5.11,1.39-7.23v-3.95h10.02v3.2h-9.13Zm0-2.41v1.61h8.22v-1.61h-8.22Zm8.33,9.84c.61,0,.72-.26,.78-1.53,.22,.15,.57,.28,.82,.35-.13,1.57-.41,2-1.55,2h-2.83c-1.35,0-1.73-.3-1.73-1.42v-1.11l-3.54,.55-.14-.76,3.68-.57v-1.32l-3.07,.47-.15-.73,3.22-.51v-1.23c-.96,.18-1.96,.31-2.88,.43-.04-.19-.16-.49-.26-.66,2.29-.3,4.95-.78,6.37-1.32l.77,.59c-.87,.3-1.96,.57-3.12,.8v1.27l3.88-.59,.13,.73-4.01,.62v1.32l4.84-.76,.13,.74-4.97,.78v1.23c0,.5,.15,.61,.89,.61h2.73Z"/><path class="f" d="M102.04,184.08h-3v4.41h-.93v-4.41h-4.04c-.3,1.74-1.07,3.31-2.93,4.54-.15-.2-.51-.5-.74-.65,1.69-1.07,2.42-2.41,2.72-3.89h-2.85v-.91h2.99c.05-.55,.07-1.12,.07-1.7v-1.58h-2.62v-.91h2.62v-2.76h.93v2.76h3.87v-2.77h.93v2.77h2.69v.91h-2.69v3.29h3v.91Zm-3.93-.91v-3.29h-3.87v1.6c0,.57-.01,1.14-.07,1.69h3.93Z"/><path class="f" d="M109.62,185.92h-4.91v1.05h-.77v-10.11h5.68v9.06Zm-4.91-8.25v3.24h1.69v-3.24h-1.69Zm0,7.44h1.69v-3.39h-1.69v3.39Zm4.1-7.44h-1.66v3.24h1.66v-3.24Zm0,7.44v-3.39h-1.66v3.39h1.66Zm7.11-6.45h-1.96v8.58c0,.64-.15,.93-.61,1.08s-1.27,.15-2.55,.15c-.05-.24-.19-.65-.33-.89,1,.04,1.97,.03,2.23,.01,.27,0,.36-.08,.36-.35v-8.58h-3.2v-.87h6.06v.87Z"/><path class="f" d="M124.17,179.94c1.14,2.35,3.14,4.54,5.29,5.58-.22,.18-.51,.53-.68,.78-2.08-1.12-3.95-3.26-5.18-5.65v4.35h2.65v.89h-2.65v2.57h-.92v-2.57h-2.69v-.89h2.69v-4.33c-1.26,2.39-3.15,4.49-5.16,5.65-.15-.23-.43-.57-.64-.73,2.07-1.08,4.08-3.3,5.23-5.66h-4.79v-.89h5.35v-2.87h.92v2.87h5.41v.89h-4.84Z"/><path class="f" d="M135.55,184.55c-.37-.41-1.18-1.2-1.8-1.77v5.69h-.87v-5.37c-.7,.7-1.43,1.31-2.15,1.77-.11-.23-.34-.64-.49-.8,1.64-.96,3.38-2.72,4.31-4.56h-3.85v-.82h2.18v-2.53h.87v2.53h1.27l.18-.04,.5,.34c-.43,1.04-1.05,2.05-1.78,2.96,.61,.49,1.84,1.55,2.19,1.87l-.55,.73Zm7.41,2.65v.88h-7.57v-.88h3.47v-5.73h-2.95v-.87h2.95v-4.34h.89v4.34h2.93v.87h-2.93v5.73h3.2Z"/></g><rect class="j" x="176.97" y="168.21" width="151.85" height="55.94"/><g><path class="f" d="M193.83,209.9v-5.59c0-1.73,.4-3.03,1.2-3.93s1.97-1.34,3.52-1.34,2.79,.44,3.56,1.33,1.16,2.2,1.16,3.94v5.59c0,1.8-.38,3.16-1.16,4.08-.77,.92-1.96,1.37-3.56,1.37s-2.79-.45-3.56-1.36-1.16-2.27-1.16-4.09Zm6.44-.25v-4.9c0-1.13-.12-1.92-.36-2.38-.24-.46-.69-.69-1.36-.69s-1.12,.23-1.35,.69c-.23,.46-.34,1.25-.34,2.38v4.9c0,1.13,.12,1.93,.36,2.39s.68,.7,1.34,.7,1.13-.23,1.36-.7c.24-.47,.36-1.26,.36-2.39Z"/><path class="f" d="M206.35,211.27v-.48h2.79v.34c0,.55,.16,.97,.47,1.25,.31,.28,.77,.42,1.36,.42,.56,0,1.01-.18,1.34-.55s.49-.86,.49-1.49v-.41c0-.69-.18-1.21-.53-1.58-.35-.37-.86-.55-1.54-.55h-.8v-2.54h.78c.58,0,1.03-.17,1.35-.5,.32-.34,.48-.8,.48-1.4v-.34c0-.58-.15-1.03-.45-1.36s-.71-.49-1.23-.49-.95,.15-1.24,.45-.44,.71-.44,1.23v.39h-2.75v-.39c0-1.33,.4-2.36,1.2-3.1,.8-.74,1.91-1.11,3.33-1.11s2.48,.38,3.28,1.13,1.19,1.77,1.19,3.03v.34c0,.69-.16,1.3-.48,1.84-.32,.54-.78,.97-1.37,1.29,.69,.29,1.21,.75,1.57,1.37,.36,.63,.54,1.38,.54,2.27v.44c0,.93-.2,1.74-.6,2.43-.4,.69-.95,1.22-1.67,1.59s-1.53,.56-2.43,.56c-1.48,0-2.63-.35-3.45-1.07-.82-.71-1.23-1.71-1.23-3.01Z"/><path class="f" d="M225.11,205.86v2.63h-6.3v-2.63h6.3Z"/><path class="f" d="M228.2,211.45v-.34h2.75v.14c0,.49,.15,.87,.46,1.15,.31,.27,.73,.41,1.26,.41,.58,0,1.01-.19,1.29-.56,.28-.37,.42-.92,.42-1.64v-1.19c0-.75-.14-1.3-.42-1.66-.28-.36-.72-.54-1.32-.54-.76,0-1.31,.36-1.63,1.08h-2.59v-9h8.54v2.57h-5.96v3.57c.61-.49,1.36-.73,2.25-.73,1.33,0,2.33,.39,3.01,1.18s1.02,1.91,1.02,3.38v1.49c0,1.45-.41,2.58-1.23,3.39-.82,.81-1.95,1.21-3.4,1.21-1.37,0-2.46-.34-3.26-1.03s-1.2-1.64-1.2-2.86Z"/><path class="f" d="M240.38,211.27v-.48h2.79v.34c0,.55,.16,.97,.47,1.25,.31,.28,.77,.42,1.36,.42,.56,0,1.01-.18,1.34-.55s.49-.86,.49-1.49v-.41c0-.69-.18-1.21-.53-1.58-.35-.37-.86-.55-1.54-.55h-.8v-2.54h.78c.58,0,1.03-.17,1.35-.5,.32-.34,.48-.8,.48-1.4v-.34c0-.58-.15-1.03-.45-1.36s-.71-.49-1.23-.49-.95,.15-1.24,.45-.44,.71-.44,1.23v.39h-2.75v-.39c0-1.33,.4-2.36,1.2-3.1,.8-.74,1.91-1.11,3.33-1.11s2.48,.38,3.28,1.13,1.19,1.77,1.19,3.03v.34c0,.69-.16,1.3-.48,1.84-.32,.54-.78,.97-1.37,1.29,.69,.29,1.21,.75,1.57,1.37,.36,.63,.54,1.38,.54,2.27v.44c0,.93-.2,1.74-.6,2.43-.4,.69-.95,1.22-1.67,1.59s-1.53,.56-2.43,.56c-1.48,0-2.63-.35-3.45-1.07-.82-.71-1.23-1.71-1.23-3.01Z"/><path class="f" d="M261.66,212.58v2.52h-3v-2.52h-6.05v-2.63l4.51-10.65h3l-4.51,10.65h3.05v-3.71h3v3.71h1.28v2.63h-1.28Z"/><path class="f" d="M271.98,205.86v2.63h-6.3v-2.63h6.3Z"/><path class="f" d="M274.75,204.54v-3.25l2.66-1.99h3v15.8h-3v-12.48l-2.66,1.92Z"/><path class="f" d="M283.64,204.54v-3.25l2.66-1.99h3v15.8h-3v-12.48l-2.66,1.92Z"/><path class="f" d="M292.52,204.54v-3.25l2.66-1.99h3v15.8h-3v-12.48l-2.66,1.92Z"/><path class="f" d="M301.41,204.54v-3.25l2.66-1.99h3v15.8h-3v-12.48l-2.66,1.92Z"/></g><g><path class="f" d="M238.64,187v.88h-12.02v-.88h6.85c.69-1.74,1.47-4.61,1.89-6.61l1,.2c-.51,2.07-1.3,4.68-1.96,6.41h4.23Zm-.38-7.26h-11.18v-.87h5.06v-2.7h.91v2.7h5.22v.87Zm-8.08,6.54c-.08-1.5-.58-3.81-1.27-5.58l.84-.22c.72,1.78,1.23,4.06,1.33,5.58l-.89,.22Z"/><path class="f" d="M242.51,176.91v4.56c0,2.57-.22,5.11-1.95,7.11-.16-.2-.53-.49-.74-.62,1.6-1.84,1.77-4.16,1.77-6.49v-4.56h.92Zm4.29,.54v9.86h-.91v-9.86h.91Zm4.61-.59v11.6h-.93v-11.6h.93Z"/><path class="f" d="M260.67,179.94c1.14,2.35,3.14,4.54,5.29,5.58-.22,.18-.51,.53-.68,.78-2.08-1.12-3.95-3.26-5.18-5.65v4.35h2.65v.89h-2.65v2.57h-.92v-2.57h-2.69v-.89h2.69v-4.33c-1.26,2.39-3.15,4.49-5.16,5.65-.15-.23-.43-.57-.64-.73,2.07-1.08,4.08-3.3,5.23-5.66h-4.79v-.89h5.35v-2.87h.92v2.87h5.41v.89h-4.84Z"/><path class="f" d="M272.05,184.55c-.37-.41-1.18-1.2-1.8-1.77v5.69h-.87v-5.37c-.7,.7-1.43,1.31-2.15,1.77-.11-.23-.34-.64-.49-.8,1.64-.96,3.38-2.72,4.31-4.56h-3.85v-.82h2.18v-2.53h.87v2.53h1.27l.18-.04,.5,.34c-.43,1.04-1.05,2.05-1.78,2.96,.61,.49,1.84,1.55,2.19,1.87l-.55,.73Zm7.41,2.65v.88h-7.57v-.88h3.47v-5.73h-2.95v-.87h2.95v-4.34h.89v4.34h2.93v.87h-2.93v5.73h3.2Z"/></g><rect class="j" x="339.71" y="167.52" width="151.85" height="55.94"/><g><path class="f" d="M350.64,210.24v-5.59c0-1.73,.4-3.03,1.2-3.93s1.97-1.34,3.52-1.34,2.79,.44,3.56,1.33,1.16,2.2,1.16,3.94v5.59c0,1.8-.38,3.16-1.16,4.08-.77,.92-1.96,1.37-3.56,1.37s-2.79-.45-3.56-1.36-1.16-2.27-1.16-4.09Zm6.44-.25v-4.9c0-1.13-.12-1.92-.36-2.38-.24-.46-.69-.69-1.36-.69s-1.12,.23-1.35,.69c-.23,.46-.34,1.25-.34,2.38v4.9c0,1.13,.12,1.93,.36,2.39s.68,.7,1.34,.7,1.13-.23,1.36-.7c.24-.47,.36-1.26,.36-2.39Z"/><path class="f" d="M363.16,211.62v-.48h2.79v.34c0,.55,.16,.97,.47,1.25,.31,.28,.77,.42,1.36,.42,.56,0,1.01-.18,1.34-.55s.49-.86,.49-1.49v-.41c0-.69-.18-1.21-.53-1.58-.35-.37-.86-.55-1.54-.55h-.8v-2.54h.78c.58,0,1.03-.17,1.35-.5,.32-.34,.48-.8,.48-1.4v-.34c0-.58-.15-1.03-.45-1.36s-.71-.49-1.23-.49-.95,.15-1.24,.45-.44,.71-.44,1.23v.39h-2.75v-.39c0-1.33,.4-2.36,1.2-3.1,.8-.74,1.91-1.11,3.33-1.11s2.48,.38,3.28,1.13,1.19,1.77,1.19,3.03v.34c0,.69-.16,1.3-.48,1.84-.32,.54-.78,.97-1.37,1.29,.69,.29,1.21,.75,1.57,1.37,.36,.63,.54,1.38,.54,2.27v.44c0,.93-.2,1.74-.6,2.43-.4,.69-.95,1.22-1.67,1.59s-1.53,.56-2.43,.56c-1.48,0-2.63-.35-3.45-1.07-.82-.71-1.23-1.71-1.23-3.01Z"/><path class="f" d="M381.92,206.21v2.63h-6.3v-2.63h6.3Z"/><path class="f" d="M385.01,211.8v-.34h2.75v.14c0,.49,.15,.87,.46,1.15,.31,.27,.73,.41,1.26,.41,.58,0,1.01-.19,1.29-.56,.28-.37,.42-.92,.42-1.64v-1.19c0-.75-.14-1.3-.42-1.66-.28-.36-.72-.54-1.32-.54-.76,0-1.31,.36-1.63,1.08h-2.59v-9h8.54v2.57h-5.96v3.57c.61-.49,1.36-.73,2.25-.73,1.33,0,2.33,.39,3.01,1.18s1.02,1.91,1.02,3.38v1.49c0,1.45-.41,2.58-1.23,3.39-.82,.81-1.95,1.21-3.4,1.21-1.37,0-2.46-.34-3.26-1.03s-1.2-1.64-1.2-2.86Z"/><path class="f" d="M397.19,211.62v-.48h2.79v.34c0,.55,.16,.97,.47,1.25,.31,.28,.77,.42,1.36,.42,.56,0,1.01-.18,1.34-.55s.49-.86,.49-1.49v-.41c0-.69-.18-1.21-.53-1.58-.35-.37-.86-.55-1.54-.55h-.8v-2.54h.78c.58,0,1.03-.17,1.35-.5,.32-.34,.48-.8,.48-1.4v-.34c0-.58-.15-1.03-.45-1.36s-.71-.49-1.23-.49-.95,.15-1.24,.45-.44,.71-.44,1.23v.39h-2.75v-.39c0-1.33,.4-2.36,1.2-3.1,.8-.74,1.91-1.11,3.33-1.11s2.48,.38,3.28,1.13,1.19,1.77,1.19,3.03v.34c0,.69-.16,1.3-.48,1.84-.32,.54-.78,.97-1.37,1.29,.69,.29,1.21,.75,1.57,1.37,.36,.63,.54,1.38,.54,2.27v.44c0,.93-.2,1.74-.6,2.43-.4,.69-.95,1.22-1.67,1.59s-1.53,.56-2.43,.56c-1.48,0-2.63-.35-3.45-1.07-.82-.71-1.23-1.71-1.23-3.01Z"/><path class="f" d="M418.4,202.25l-4.81,13.19h-3.02l4.9-13.19h-6.16v-2.61h9.09v2.61Z"/><path class="f" d="M425.11,209.28c-1.24,0-2.23-.39-2.97-1.18s-1.11-1.86-1.11-3.22v-.73c0-1.5,.45-2.66,1.34-3.5,.89-.84,2.07-1.26,3.54-1.26s2.72,.41,3.58,1.24c.86,.82,1.29,1.97,1.29,3.44v.71c0,.61-.09,1.2-.26,1.78-.18,.57-.43,1.19-.77,1.87l-3.62,7.03h-3.16l3.28-6.39c-.34,.15-.72,.23-1.15,.23Zm2.66-4.53v-.76c0-.64-.16-1.15-.49-1.51-.33-.37-.78-.55-1.36-.55s-1.04,.18-1.37,.55-.5,.88-.5,1.53v.71c0,.66,.17,1.16,.5,1.52,.34,.36,.79,.54,1.37,.54s1.03-.18,1.36-.54c.33-.36,.49-.86,.49-1.5Z"/><path class="f" d="M440.06,206.21v2.63h-6.3v-2.63h6.3Z"/><path class="f" d="M443.15,210.24v-5.59c0-1.73,.4-3.03,1.2-3.93s1.97-1.34,3.52-1.34,2.79,.44,3.56,1.33,1.16,2.2,1.16,3.94v5.59c0,1.8-.38,3.16-1.16,4.08-.77,.92-1.96,1.37-3.56,1.37s-2.79-.45-3.56-1.36-1.16-2.27-1.16-4.09Zm6.44-.25v-4.9c0-1.13-.12-1.92-.36-2.38-.24-.46-.69-.69-1.36-.69s-1.12,.23-1.35,.69c-.23,.46-.34,1.25-.34,2.38v4.9c0,1.13,.12,1.93,.36,2.39s.68,.7,1.34,.7,1.13-.23,1.36-.7c.24-.47,.36-1.26,.36-2.39Z"/><path class="f" d="M455.47,204.88v-3.25l2.66-1.99h3v15.8h-3v-12.48l-2.66,1.92Z"/><path class="f" d="M464.36,204.88v-3.25l2.66-1.99h3v15.8h-3v-12.48l-2.66,1.92Z"/><path class="f" d="M473.24,204.88v-3.25l2.66-1.99h3v15.8h-3v-12.48l-2.66,1.92Z"/></g><g><path class="f" d="M393.66,186.86c-.3-.35-1.05-1.07-1.64-1.6v3.53h-.88v-3.7c-.69,1.1-1.57,2.11-2.35,2.72-.15-.2-.42-.47-.61-.64,.97-.65,2.08-1.91,2.76-3.12h-2.49v-.78h2.69v-1.47h-2.73v-.77h6.27v.77h-2.66v1.47h2.57v.78h-2.57v.35c.51,.41,1.85,1.49,2.18,1.78l-.54,.68Zm.87-8.15h-5.92v-.77h2.54v-1.38h.88v1.38h2.5v.77Zm-4.53,2.26c-.05-.54-.28-1.38-.54-2.01l.7-.16c.3,.62,.53,1.43,.59,1.96l-.76,.22Zm2.2-.2c.26-.54,.57-1.41,.7-2l.83,.2c-.26,.69-.55,1.47-.81,1.97l-.72-.18Zm8.44,1.14h-1.57v6.84h-.87v-6.84h-2.15v.43c0,2.01-.26,4.69-2.15,6.56-.12-.2-.43-.5-.65-.62,1.76-1.69,1.95-4.03,1.95-5.95v-4.7l.69,.22c1.42-.3,2.96-.73,3.83-1.16l.73,.66c-1.15,.51-2.87,.93-4.39,1.23v2.5h4.58v.84Z"/><path class="f" d="M405.72,179.55c-.31,.68-.69,1.35-1.11,1.99v7.29h-.85v-6.11c-.51,.62-1.05,1.19-1.61,1.65-.11-.18-.41-.58-.58-.77,1.33-1.01,2.57-2.64,3.33-4.3l.82,.26Zm-2.42,.49h-.87v-2.34h5.1v-1.18h.89v1.18h5.19v2.16h-.91v-1.34h-9.41v1.51Zm6.88,.93c-.15,.5-.33,1.04-.47,1.5h3.41v6.34h-.88v-.49h-4.83v.53h-.87v-6.38h2.28c.14-.46,.27-1.01,.37-1.5h-3.33v-.81h7.8v.81h-3.49Zm2.05,2.28h-4.83v1.65h4.83v-1.65Zm0,4.27v-1.85h-4.83v1.85h4.83Z"/><path class="f" d="M422.52,180.29c1.14,2.35,3.14,4.54,5.29,5.58-.22,.18-.51,.53-.68,.78-2.08-1.12-3.95-3.26-5.18-5.65v4.35h2.65v.89h-2.65v2.57h-.92v-2.57h-2.69v-.89h2.69v-4.33c-1.26,2.39-3.15,4.49-5.16,5.65-.15-.23-.43-.57-.64-.73,2.07-1.08,4.08-3.3,5.23-5.66h-4.79v-.89h5.35v-2.87h.92v2.87h5.41v.89h-4.84Z"/><path class="f" d="M433.9,184.9c-.37-.41-1.18-1.2-1.8-1.77v5.69h-.87v-5.37c-.7,.7-1.43,1.31-2.15,1.77-.11-.23-.34-.64-.49-.8,1.64-.96,3.38-2.72,4.31-4.56h-3.85v-.82h2.18v-2.53h.87v2.53h1.27l.18-.04,.5,.34c-.43,1.04-1.05,2.05-1.78,2.96,.61,.49,1.84,1.55,2.19,1.87l-.55,.73Zm7.41,2.65v.88h-7.57v-.88h3.47v-5.73h-2.95v-.87h2.95v-4.34h.89v4.34h2.93v.87h-2.93v5.73h3.2Z"/></g><path class="g" d="M37.08,107.2c-2.91,2.29-2.96,8.69-1.34,13.7,1.67,5.03,4.19,9.74,7.45,13.92,3.3,4.13,7.26,7.69,11.71,10.55,4.51,2.82,10.69,4.3,13.65,1.97,1.5-1.32,2.74-2.9,3.65-4.68,0,0-1.55-1.97-1.9-2.44l-5.22-6.64c-.39-.52-2.47,.16-3.55,.88-1.06,.93-1.94,2.07-2.57,3.33-.98,.68-1.85,.17-3.71-.48-2.24-.78-4.96-3.68-7.18-6.34-2.02-2.74-4.17-6.06-4.43-8.5-.21-1.95-.46-2.93,.43-3.72,1.37-.29,2.67-.86,3.81-1.68,.94-.83,2.08-2.7,1.69-3.22l-5.17-6.68c-.35-.42-1.9-2.44-1.9-2.44-1.94,.48-3.78,1.31-5.43,2.44h0Z"/></g></g></g></svg>