<?xml version="1.0" encoding="utf-8"?>
<!-- Generator: Adobe Illustrator 26.2.1, SVG Export Plug-In . SVG Version: 6.00 Build 0)  -->
<svg version="1.1" id="レイヤー_1" xmlns="http://www.w3.org/2000/svg" xmlns:xlink="http://www.w3.org/1999/xlink" x="0px"
	 y="0px" viewBox="0 0 415 124" style="enable-background:new 0 0 415 124;" xml:space="preserve">
<style type="text/css">
	.st0{fill:#801A42;}
	.st1{fill:none;}
	.st2{fill:none;stroke:#801A42;}
	.st3{fill:none;stroke:#FFFFFF;}
	.st4{enable-background:new    ;}
	.st5{fill:#FFFFFF;}
</style>
<g id="グループ_1546" transform="translate(-737 -3781.908)">
	<rect id="長方形_2324" x="747.9" y="3793.8" class="st0" width="404.1" height="112.2"/>
	<g id="長方形_2299" transform="translate(737 3781.908)">
		<rect x="0" y="-0.1" class="st1" width="404.1" height="112.2"/>
		<rect x="0.5" y="0.4" class="st2" width="403.1" height="111.2"/>
	</g>
	<g id="長方形_2328" transform="translate(748 3793.908)">
		<rect x="-0.1" y="-0.1" class="st1" width="393.2" height="100.3"/>
		<rect x="0.4" y="0.4" class="st3" width="392.2" height="99.3"/>
	</g>
	<g class="st4">
		<path class="st5" d="M902.4,3845.1h-12.4v-3h12.4V3845.1z M901.2,3864.8h-6.6v1.2h-3.2v-10.8h9.8V3864.8z M891.4,3846.5h9.8v2.9
			h-9.8V3846.5z M891.4,3850.9h9.8v2.8h-9.8V3850.9z M901.2,3840.7h-9.6v-2.9h9.6V3840.7z M894.6,3858.2v3.7h3.4v-3.7H894.6z
			 M919.7,3859.3h-6.9v7.3H909v-7.3H902v-3.4h7.1v-3.2h-5.4v-3.3h5.4v-3H903v-3.4h2.9c-0.4-1.4-1.1-3.3-1.9-4.7l3-1.1
			c1,1.7,1.9,3.8,2.3,5.2l-1.5,0.6h6.2l-1.4-0.5c0.8-1.5,1.7-3.9,2.2-5.6l3.7,1c-0.9,1.8-1.8,3.7-2.6,5h3.4v3.4h-6.4v3h5.8v3.3h-5.8
			v3.2h6.9V3859.3z"/>
	</g>
	<g class="st4">
		<path class="st5" d="M930.1,3842.8c-0.1,3.4-0.4,10.5-0.4,14.5c0,3.2,1.9,4.3,4.4,4.3c5.2,0,8.6-3,10.9-6.5l2.9,3.5
			c-2,3-6.5,7.3-13.8,7.3c-5.2,0-8.6-2.3-8.6-7.7c0-4.3,0.3-12.6,0.3-15.3c0-1.5-0.1-3-0.4-4.3l5.1,0.1
			C930.3,3839.9,930.2,3841.5,930.1,3842.8z"/>
		<path class="st5" d="M966.1,3843.1c-2.1,1.7-6.3,4.9-8.4,6.7c-1.7,1.5-1.7,1.8,0.1,3.3c2.4,2,8.4,6.8,11.7,9.9l-3.7,3.4
			c-0.9-1-1.8-2-2.8-3c-1.9-2-6.6-6-9.5-8.5c-3.2-2.7-2.9-4.4,0.3-7.1c2.5-2,6.9-5.6,9-7.6c0.9-0.9,1.9-1.9,2.4-2.7l3.7,3.3
			C967.9,3841.6,966.9,3842.5,966.1,3843.1z"/>
	</g>
	<g class="st4">
		<path class="st5" d="M1010.1,3862.7c1.1,0,1.3-0.5,1.4-4.2c0.8,0.6,2.5,1.2,3.5,1.5c-0.4,5-1.4,6.3-4.5,6.3h-4.2
			c-3.8,0-4.7-1.1-4.7-4.7v-5.1h-3.8c-0.7,5.1-2.5,8.4-10.4,10.2c-0.3-1-1.4-2.6-2.1-3.4c6.5-1.2,7.9-3.3,8.4-6.8h-3.9v-18.6h20.8
			v18.6h-5.2v5.1c0,1,0.2,1.1,1.4,1.1H1010.1z M993.5,3843.1h13.3v-2h-13.3V3843.1z M993.5,3848.1h13.3v-2h-13.3V3848.1z
			 M993.5,3853.2h13.3v-2h-13.3V3853.2z"/>
	</g>
	<g class="st4">
		<path class="st5" d="M1025,3839.7c1.7,0,8.5-0.1,10.3-0.3c1.3-0.1,2-0.2,2.4-0.3l2.1,2.8c-0.7,0.5-1.5,0.9-2.2,1.5
			c-1.7,1.2-5.1,4-7.1,5.6c1-0.3,2-0.3,3-0.3c5.4,0,9.5,3.4,9.5,8c0,5-3.8,9-11.5,9c-4.4,0-7.8-2-7.8-5.2c0-2.6,2.3-5,5.7-5
			c3.9,0,6.3,2.4,6.8,5.4c1.7-0.9,2.6-2.4,2.6-4.3c0-2.9-2.9-4.8-6.6-4.8c-4.9,0-8,2.6-11.4,6.4l-2.9-3c2.3-1.8,6.1-5.1,8-6.6
			c1.8-1.5,5.1-4.1,6.6-5.5c-1.6,0-6,0.2-7.7,0.3c-0.9,0.1-1.9,0.2-2.6,0.3l-0.1-4.1C1023,3839.7,1024.1,3839.7,1025,3839.7z
			 M1030.7,3862c0.7,0,1.3,0,1.8-0.1c-0.2-2.1-1.4-3.4-3.1-3.4c-1.2,0-2,0.7-2,1.5C1027.5,3861.2,1028.8,3862,1030.7,3862z"/>
	</g>
	<path id="多角形_14" class="st5" d="M866.1,3851.4l-13.9,7v-13.9L866.1,3851.4z"/>
</g>
</svg>
