<?xml version="1.0" encoding="UTF-8"?><svg id="_イヤー_2" xmlns="http://www.w3.org/2000/svg" viewBox="0 0 137 60"><g id="_イヤー_1-2"><g><path id="_方形_18-2" d="M4,0H133c2.2,0,4,1.38,4,3.07V56.93c0,1.69-1.8,3.07-4,3.07H4c-2.2,0-4-1.38-4-3.07V3.07C0,1.38,1.8,0,4,0Z" fill="#9b272d"/><path d="M29.38,24.66v1.1c1.1-.1,2.1-.3,2.9-.6v2c-.9,.2-2,.4-3.1,.5v2c1.1-.3,2.2-.4,3.1-.4,2.5,0,4.4,1.3,4.4,3.5,0,1.9-1,3.3-3.5,4-.7,.2-1.4,.2-2.1,.3l-.7-2.1c.7,0,1.4,0,2-.1,1.3-.2,2.3-.9,2.3-2s-1-1.7-2.4-1.7c-1,0-2,.2-3,.4,0,1.3,.1,2.5,.1,3.1,0,2-.7,2.5-1.8,2.5-1.6,0-3.7-1.3-3.7-3,0-1.4,1.6-2.8,3.6-3.7v-2.4h-.8c-1.1,0-1.7,0-2.2-.1v-1.9c.9,.1,1.6,.1,2.2,.1h.9v-1.3c0-.3-.1-1.1-.1-1.4h2.2c-.2,.1-.3,.7-.3,1.2Zm-2.4,10.2c.3,0,.5-.1,.5-.7v-2c-1,.5-1.6,1.2-1.6,1.7-.1,.6,.7,1,1.1,1Zm11-7.6l-1,1.6c-.8-.7-2.9-1.9-3.9-2.3l.9-1.6c1.3,.6,3.2,1.6,4,2.3Z" fill="#fff"/><path d="M41.78,27.76c-.3,.2-.6,.4-.9,.6-.3-.4-.9-1.1-1.3-1.4,2.1-1.2,3.5-2.9,4.3-4.4l2,.4c-.2,.3-.3,.6-.5,.8h3.5l.3-.1,1.3,.8c-.3,.6-.8,1.2-1.2,1.9h3.3v6.1h-5.1c.6,.3,1.2,.7,1.5,1l-1.2,1.3c-.6-.6-1.8-1.4-2.8-1.8l.5-.5h-3.9v-1.5h9.2v-.8h-8.7v-1.4h8.7v-.8h-8.9v-.2h-.1Zm-2.3,8.3c1-.7,1.8-1.7,2.2-2.8l1.7,.6c-.4,1.3-1.1,2.6-2.3,3.3l-1.6-1.1Zm4.8-10.8c-.3,.4-.6,.7-1,1.1h3.7c.3-.3,.6-.7,.8-1.1h-3.5Zm4,10.5c.5,0,.7-.2,.7-1.5,.3,.3,1.1,.5,1.6,.7-.2,2-.7,2.5-2.2,2.5h-2.3c-2,0-2.4-.5-2.4-2.1v-1.9h1.9v1.9c0,.4,.1,.5,.8,.5h1.9v-.1Zm3.4-2.8c1,.9,2.3,2.2,2.8,3.2l-1.7,1c-.4-.9-1.6-2.3-2.7-3.3l1.6-.9Z" fill="#fff"/><path d="M63.58,28.26c-.1-.2-.1-.4-.2-.5-.1-.4-.2-.7-.3-1-1.5,.1-3.4,0-5.4-.1l-.1-1.8c1.9,.2,3.5,.3,5,.2-.1-.5-.3-1-.5-1.6l2.1-.2c.1,.6,.2,1.2,.3,1.7,1-.1,1.8-.3,2.5-.5l.3,1.8c-.6,.1-1.3,.3-2.3,.4,.1,.3,.2,.5,.2,.8,.1,.2,.2,.5,.3,.7,1.3-.2,2.3-.4,3.1-.7l.3,1.9c-.7,.2-1.6,.4-2.6,.5,.3,.5,.5,1,.8,1.4,.2,.3,.4,.6,.7,.8l-1,1.5c-.9-.2-2.6-.4-3.8-.5l.2-1.5c.7,.1,1.5,.1,2,.2-.3-.6-.6-1.1-.9-1.7-2,.1-4.5,.1-6.9,0l-.1-1.9c2.3,.2,4.5,.2,6.3,.1Zm-4,5.4c0,1.2,1.1,1.7,3.2,1.7,1.5,0,2.9-.1,4-.4l-.1,2c-1.1,.2-2.6,.3-3.9,.3-3.2,0-5.2-.9-5.2-3.2,0-1,.3-1.8,.7-2.6l2,.4c-.4,.5-.7,1.1-.7,1.8Zm9.5-8.3l-1.2,.5c-.4-.9-.8-1.5-1.2-2.2l1.2-.5c.4,.6,.9,1.5,1.2,2.2Zm1.9-.8l-1.2,.6c-.4-.9-.8-1.5-1.3-2.2l1.2-.5c.4,.5,1,1.5,1.3,2.1Z" fill="#fff"/><path d="M79.98,36.96l-1.2-1.9c.6-.1,1.1-.2,1.5-.3,2-.5,3.6-2,3.6-4.3s-1.2-3.9-3.4-4.2c-.2,1.4-.5,2.8-1,4.3-1,3.2-2.3,5.2-4.1,5.2s-3.2-2-3.2-4.7c0-3.7,3.2-6.9,7.3-6.9s6.5,2.8,6.5,6.2c.1,3.6-2,6-6,6.6Zm-4.4-3.6c.7,0,1.3-1,2-3.2,.4-1.2,.7-2.5,.8-3.9-2.6,.5-4.1,2.9-4.1,4.6s.6,2.5,1.3,2.5Z" fill="#fff"/><path d="M95.28,27.06c0,.7-.1,1.4-.2,2.1h6.2s0,.6-.1,.8c-.3,4.4-.6,6.1-1.3,6.9-.5,.5-1,.7-1.7,.7-.6,.1-1.7,0-2.7,0,0-.5-.3-1.3-.7-1.9,1.1,.1,2.2,.1,2.7,.1,.4,0,.6,0,.8-.2,.4-.4,.7-1.7,.9-4.7h-4.4c-.6,2.7-1.9,5.2-5.1,6.8-.3-.5-.8-1.2-1.3-1.6,4.3-2,4.7-5.7,4.9-9.1h-4.7v-1.8h6.1v-2.6h2v2.6h6.3v1.8h-7.7v.1Z" fill="#fff"/><path d="M106.58,30.16c.7-.8,2-2.4,3-3.6,1.1-1.3,2.2-1.4,3.3-.2,1.1,1.1,2.4,2.7,3.3,3.7,1,1.1,2.4,2.6,3.9,3.9l-1.6,1.9c-1.2-1.1-2.5-2.6-3.5-3.8-1-1.2-2.2-2.7-2.9-3.6-.6-.6-.9-.5-1.3,0-.6,.8-1.8,2.4-2.5,3.3-.4,.5-.7,1.1-1,1.5l-2-2c.4-.2,.8-.5,1.3-1.1Z" fill="#fff"/><path id="_角形_25" d="M16.58,30.76l-6,4v-8l6,4Z" fill="#fff"/></g></g></svg>