<?xml version="1.0" encoding="UTF-8"?><svg id="_イヤー_2" xmlns="http://www.w3.org/2000/svg" viewBox="0 0 158.5 49"><g id="_イヤー_1-2"><g id="b"><g id="c"><g><path d="M22.5,4h113.5c12.43,0,22.5,10.07,22.5,22.5h0c0,12.43-10.07,22.5-22.5,22.5H22.5C10.07,49,0,38.93,0,26.5H0C0,14.07,10.07,4,22.5,4Z" fill="#7a060f"/><path d="M22.5,0h113.5c12.43,0,22.5,10.07,22.5,22.5h0c0,12.43-10.07,22.5-22.5,22.5H22.5C10.07,45,0,34.93,0,22.5H0C0,10.07,10.07,0,22.5,0Z" fill="#9b272d"/><g><path d="M38.32,17.12c-.02,.35-.03,.73-.05,1.12,1.04-.13,2.08-.33,2.9-.57l.05,1.95c-.9,.2-1.99,.36-3.01,.49-.02,.47-.02,.96-.02,1.42v.58c1.07-.27,2.16-.41,3.03-.41,2.43,0,4.33,1.26,4.33,3.44,0,1.86-.98,3.26-3.48,3.89-.73,.16-1.42,.2-2.07,.25l-.72-2.03c.71,0,1.39-.02,1.94-.11,1.28-.24,2.29-.87,2.29-2.02,0-1.07-.95-1.7-2.32-1.7-.98,0-2,.16-2.96,.44,.03,1.25,.06,2.48,.06,3.01,0,1.95-.69,2.47-1.73,2.47-1.53,0-3.69-1.32-3.69-2.99,0-1.37,1.58-2.81,3.52-3.64-.02-.38-.02-.76-.02-1.12v-1.32c-.3,.02-.58,.03-.84,.03-1.06,0-1.67-.02-2.21-.08l-.03-1.91c.93,.11,1.61,.13,2.18,.13,.28,0,.6-.02,.91-.03,.02-.55,.02-1.01,.02-1.28,0-.33-.06-1.1-.11-1.39h2.17c-.05,.28-.11,.96-.14,1.37h0Zm-2.36,10.08c.28,0,.5-.13,.5-.66,0-.39-.02-1.12-.05-1.97-.96,.52-1.61,1.17-1.61,1.72,0,.49,.74,.91,1.15,.91h0Zm10.88-7.52l-.95,1.61c-.76-.65-2.82-1.83-3.8-2.3l.87-1.53c1.21,.58,3.04,1.62,3.88,2.22Z" fill="#fff"/><path d="M50.06,20.19c-.28,.2-.57,.41-.88,.61-.28-.44-.9-1.06-1.31-1.36,2.06-1.2,3.47-2.84,4.22-4.32l2,.38c-.16,.27-.33,.55-.5,.82h3.47l.3-.08,1.28,.8c-.32,.57-.76,1.23-1.23,1.83h3.29v5.96h-5.06c.58,.33,1.13,.69,1.48,1.02l-1.23,1.28c-.57-.58-1.75-1.34-2.76-1.81l.49-.49h-3.85v-1.5h9.08v-.79h-8.53v-1.4h8.53v-.77h-8.8v-.19h0Zm-2.19,8.19c1.02-.65,1.76-1.7,2.13-2.81l1.67,.6c-.43,1.29-1.09,2.52-2.25,3.29l-1.54-1.09h0Zm4.65-10.55c-.3,.36-.63,.73-.98,1.07h3.66c.27-.33,.55-.71,.79-1.07h-3.47Zm4,10.34c.54,0,.65-.19,.72-1.48,.33,.28,1.1,.54,1.61,.65-.21,1.95-.71,2.43-2.16,2.43h-2.29c-1.92,0-2.36-.49-2.36-2.03v-1.88h1.83v1.84c0,.43,.11,.47,.76,.47h1.89Zm3.34-2.79c1.01,.9,2.22,2.21,2.74,3.14l-1.69,.98c-.44-.9-1.61-2.27-2.62-3.26l1.56-.85h0Z" fill="#fff"/><path d="M71.04,20.73c-.06-.17-.13-.36-.19-.54-.13-.36-.22-.66-.32-.95-1.5,.08-3.33,.05-5.31-.14l-.11-1.8c1.88,.21,3.48,.27,4.92,.22-.14-.5-.32-1.02-.5-1.56l2.11-.24c.08,.57,.17,1.14,.3,1.67,.99-.13,1.81-.33,2.43-.52l.25,1.81c-.6,.14-1.32,.3-2.22,.41,.08,.25,.16,.5,.24,.74,.08,.22,.17,.47,.27,.73,1.29-.16,2.24-.43,3.01-.65l.32,1.86c-.72,.19-1.58,.36-2.52,.49,.25,.5,.54,.99,.8,1.4,.22,.32,.42,.55,.71,.82l-.95,1.43c-.88-.17-2.6-.38-3.74-.49l.16-1.51c.65,.06,1.51,.14,1.97,.19-.33-.55-.61-1.1-.88-1.64-1.92,.13-4.46,.13-6.84-.02l-.11-1.86c2.35,.22,4.48,.24,6.21,.13v.02Zm-3.89,5.28c0,1.17,1.1,1.64,3.18,1.64,1.48,0,2.84-.11,3.96-.35l-.11,2.02c-1.1,.17-2.54,.28-3.83,.28-3.15,0-5.11-.93-5.15-3.17-.02-1.02,.33-1.8,.69-2.54l1.95,.36c-.38,.52-.69,1.07-.69,1.75h0Zm9.38-8.19l-1.18,.52c-.41-.85-.74-1.48-1.23-2.18l1.17-.49c.38,.57,.95,1.51,1.25,2.14h0Zm1.81-.76l-1.18,.57c-.42-.85-.77-1.43-1.29-2.13l1.15-.52c.41,.55,.99,1.48,1.32,2.08Z" fill="#fff"/><path d="M87.48,29.3l-1.18-1.88c.6-.06,1.04-.16,1.47-.25,2.02-.47,3.59-1.92,3.59-4.22,0-2.18-1.18-3.8-3.31-4.16-.22,1.34-.49,2.79-.95,4.27-.95,3.18-2.3,5.14-4.02,5.14s-3.2-1.92-3.2-4.59c0-3.64,3.15-6.75,7.24-6.75s6.37,2.71,6.37,6.15-2.03,5.67-6,6.29h-.01Zm-4.33-3.53c.66,0,1.28-.99,1.92-3.12,.36-1.17,.66-2.51,.84-3.81-2.6,.54-4,2.84-4,4.57,0,1.59,.63,2.36,1.25,2.36h0Z" fill="#fff"/><path d="M102,19.51c-.05,.68-.09,1.37-.17,2.05h6.08s-.02,.57-.06,.82c-.28,4.29-.62,6.05-1.25,6.75-.47,.5-.96,.66-1.7,.73-.58,.06-1.64,.05-2.7,0-.03-.54-.31-1.31-.66-1.84,1.09,.11,2.19,.11,2.65,.11,.35,0,.57-.03,.76-.21,.41-.35,.69-1.72,.91-4.59h-4.33c-.6,2.66-1.91,5.12-5.06,6.71-.27-.52-.83-1.18-1.32-1.59,4.25-1.97,4.62-5.56,4.79-8.94h-4.51v-1.8h6.04v-2.57h1.94v2.57h6.23v1.8h-7.64Z" fill="#fff"/><path d="M112.32,22.63c.73-.76,1.94-2.38,2.92-3.51,1.1-1.25,2.13-1.36,3.28-.24,1.07,1.04,2.33,2.66,3.26,3.67,1.01,1.1,2.35,2.52,3.85,3.86l-1.62,1.89c-1.13-1.07-2.47-2.6-3.47-3.77-.98-1.17-2.16-2.66-2.9-3.5-.55-.61-.85-.54-1.31,.05-.63,.79-1.75,2.35-2.43,3.25-.36,.52-.72,1.09-.99,1.5l-1.92-1.97c.47-.36,.87-.73,1.34-1.23h0Z" fill="#fff"/></g><path d="M140.48,28.01c-.17-.18-.35-.35-.52-.53-.3-.3-.59-.6-.89-.89-.07-.07-.07-.12,0-.19,1.27-1.27,2.54-2.54,3.82-3.81,.08-.08,.08-.12,0-.19-1.27-1.26-2.54-2.53-3.8-3.8-.07-.07-.07-.15,0-.22l1.33-1.33c.07-.07,.11-.07,.18,0,1.78,1.79,3.57,3.57,5.36,5.35,.09,.09,.06,.13,0,.2-1.81,1.8-3.61,3.61-5.42,5.41h-.05Z" fill="#fff"/></g></g></g></g></svg>