<?xml version="1.0" encoding="UTF-8"?><svg id="_イヤー_2" xmlns="http://www.w3.org/2000/svg" viewBox="0 0 137 60"><g id="_イヤー_1-2"><path id="_方形_18-2" d="M4,0H133c2.21,0,4,1.37,4,3.07V56.93c0,1.7-1.79,3.07-4,3.07H4c-2.21,0-4-1.37-4-3.07V3.07C0,1.37,1.79,0,4,0Z" fill="#ffd5aa"/><path d="M33.41,26.37c1.63,.58,3.47,1.34,4.56,1.87l-2.21,.85c-.91-.53-2.55-1.28-4.16-1.89l1.44-.83h-4.67l1.46,.64c-1.33,.86-3.38,1.65-4.99,2.1-.34-.37-1.01-1.06-1.41-1.39,1.55-.29,3.3-.8,4.4-1.34h-2.35v-6.5h3.35c-.19-.38-.5-.85-.75-1.1l.02,.06c-1.38,.4-2.87,.83-4.07,1.17l-.7-1.67c1.18-.22,2.9-.62,4.59-1.02l.16,1.44c2.54-.42,3.39-1.1,3.75-2.24h-1.15c-.37,.45-.78,.88-1.28,1.28-.34-.34-.99-.72-1.42-.9,1.15-.8,1.94-1.86,2.35-2.79l1.68,.27c-.13,.27-.26,.53-.42,.78h4.72l.29-.05,1.26,.32c-.42,.86-.99,1.82-1.52,2.42l-1.47-.46c.19-.24,.42-.54,.62-.88h-1.78c.34,1.02,1.25,1.9,4.48,2.29-.35,.35-.77,1.09-.94,1.55-.38-.06-.74-.13-1.06-.21v6.23h-2.77Zm-6.05-9.43c-.74-.4-2.24-.98-3.34-1.3l.83-1.3c1.06,.26,2.58,.77,3.38,1.15l-.87,1.44Zm-.05,4.75h6.93v-.69h-6.93v.69Zm0,1.76h6.93v-.69h-6.93v.69Zm0,1.78h6.93v-.71h-6.93v.71Zm7.97-5.36c-1.23-.45-1.97-1.04-2.45-1.73-.56,.75-1.46,1.31-2.93,1.73h5.38Z" fill="#42210b"/><path d="M49.47,25.47c-.24-.51-.69-1.34-1.15-2.08v5.62h-1.76v-5.65c-.51,1.49-1.15,2.98-1.84,3.94-.16-.58-.58-1.44-.86-1.97,.8-.98,1.62-2.69,2.11-4.15h-1.83v-1.78h2.42v-5.23h1.76v5.23h2.37v1.78h-2.37v.11c.46,.46,1.99,2.26,2.32,2.71l-1.17,1.47Zm-4.62-6.35c-.03-.99-.35-2.54-.72-3.7l1.33-.35c.42,1.15,.74,2.67,.82,3.67l-1.42,.38Zm6.13-3.78c-.42,1.28-.88,2.8-1.28,3.73l-1.2-.34c.32-1.01,.7-2.62,.88-3.75l1.6,.35Zm6.21,9.38v4.32h-1.79v-4l-4.47,.8-.29-1.78,4.75-.85V14.09h1.79v8.8l1.63-.3,.29,1.78-1.92,.35Zm-5.47-5.81c.93,.5,2.11,1.26,2.69,1.84l-.96,1.52c-.53-.59-1.7-1.44-2.62-2l.9-1.36Zm2.32-.58c-.5-.62-1.6-1.49-2.48-2.08l.91-1.28c.9,.53,2.03,1.34,2.54,1.94l-.98,1.42Z" fill="#42210b"/><path d="M70.91,18.25h-6.08v-1.5h6.08v1.5Zm-.51,9.96h-3.27v.62h-1.6v-5.46h4.87v4.83Zm-.02-7.78h-4.8v-1.46h4.8v1.46Zm-4.8,.74h4.8v1.42h-4.8v-1.42Zm4.75-5.12h-4.71v-1.44h4.71v1.44Zm-3.2,8.84v1.84h1.65v-1.84h-1.65Zm12.57-6.05v1.38h-8.79v-1.38h3.47v-.64h-2.69v-1.28h2.69v-.58h-3.09v-1.36h3.09v-.86h1.81v.86h3.22v1.36h-3.22v.58h2.98v1.28h-2.98v.64h3.51Zm-.86,8.45c0,.8-.14,1.22-.69,1.46-.53,.26-1.28,.27-2.3,.27-.06-.46-.29-1.1-.5-1.52,.59,.02,1.25,.02,1.46,0,.21,0,.26-.06,.26-.24v-1.15h-3.31v2.93h-1.75v-8.23h6.83v6.48Zm-5.09-5.14v.72h3.31v-.72h-3.31Zm3.31,2.71v-.75h-3.31v.75h3.31Z" fill="#42210b"/><path d="M91.5,24.64c-1.58,1.02-3.36,2.13-4.75,2.93l-1.18-1.76c1.33-.66,3.39-1.81,5.3-2.91l.64,1.74Zm8.21-4.8c-.96,1.1-2.18,2.3-3.15,3.17,1.14,1.39,2.53,2.53,4.15,3.27-.46,.38-1.09,1.15-1.41,1.7-2.24-1.2-3.97-3.15-5.27-5.54v4.29c0,1.12-.21,1.65-.88,1.95-.67,.34-1.7,.4-3.12,.38-.08-.54-.37-1.42-.66-2,.98,.05,1.98,.03,2.3,.03,.3,0,.42-.1,.42-.38v-8.34h-6.03v-1.84h6.03v-2.4h1.94v2.4h3.27c-.66-.45-1.52-.94-2.21-1.3l1.1-1.2c.96,.45,2.3,1.15,2.98,1.67l-.74,.83h1.78v1.84h-6.18v.16c.38,1.07,.9,2.1,1.49,3.06,.9-.87,1.89-1.99,2.51-2.91l1.68,1.17Zm-10.63,2.96c-.45-.8-1.52-2.05-2.4-2.9l1.46-1.02c.9,.82,2,1.97,2.5,2.8l-1.55,1.12Z" fill="#42210b"/><path d="M29.36,36.39c-.02,.35-.03,.74-.05,1.14,1.06-.13,2.11-.34,2.95-.58l.05,1.99c-.91,.21-2.02,.37-3.06,.5-.02,.48-.02,.98-.02,1.44v.59c1.09-.27,2.19-.42,3.07-.42,2.47,0,4.4,1.28,4.4,3.49,0,1.89-.99,3.31-3.54,3.95-.74,.16-1.44,.21-2.1,.26l-.74-2.06c.72,0,1.41-.02,1.97-.11,1.3-.24,2.32-.88,2.32-2.05,0-1.09-.96-1.73-2.35-1.73-.99,0-2.03,.16-3.01,.45,.03,1.26,.06,2.51,.06,3.06,0,1.98-.7,2.51-1.76,2.51-1.55,0-3.75-1.34-3.75-3.04,0-1.39,1.6-2.85,3.57-3.7-.02-.38-.02-.77-.02-1.14v-1.34c-.3,.02-.59,.03-.85,.03-1.07,0-1.7-.02-2.24-.08l-.03-1.94c.94,.11,1.63,.13,2.21,.13,.29,0,.61-.02,.93-.03,.02-.56,.02-1.02,.02-1.3,0-.34-.06-1.12-.11-1.41h2.21c-.05,.29-.11,.98-.14,1.39Zm-2.4,10.23c.29,0,.51-.13,.51-.67,0-.4-.02-1.14-.05-2-.98,.53-1.63,1.18-1.63,1.75,0,.5,.75,.93,1.17,.93Zm11.04-7.63l-.96,1.63c-.77-.66-2.87-1.86-3.86-2.34l.88-1.55c1.23,.59,3.09,1.65,3.94,2.26Z" fill="#42210b"/><path d="M42.99,41v8.39h-1.89v-14.34h6.11v5.95h-4.23Zm0-4.5v.86h2.45v-.86h-2.45Zm2.45,3.06v-.91h-2.45v.91h2.45Zm.98,7.57v.9h-1.78v-5.92h6.19v5.03h-4.42Zm0-3.46v1.89h2.64v-1.89h-2.64Zm8.16,3.44c0,1.06-.21,1.6-.88,1.9-.66,.32-1.66,.37-3.14,.37-.06-.54-.37-1.44-.64-1.95,.93,.06,2.02,.05,2.32,.03,.3,0,.42-.1,.42-.38v-6.07h-4.34v-5.97h6.26v12.07Zm-4.45-10.63v.88h2.53v-.88h-2.53Zm2.53,3.09v-.93h-2.53v.93h2.53Z" fill="#42210b"/><path d="M61.28,38.5c-.02,1.04,0,2.24,.1,3.39,.22,2.3,.7,3.89,1.71,3.89,.75,0,1.39-1.87,1.7-3.15l1.6,1.95c-1.06,2.79-2.06,3.76-3.34,3.76-1.76,0-3.28-1.58-3.73-5.88-.16-1.47-.18-3.34-.18-4.32,0-.45-.03-1.14-.13-1.63l2.46,.03c-.11,.58-.19,1.5-.19,1.95Zm11.11,6.71l-2.1,.82c-.26-2.58-1.1-6.47-2.85-8.45l2.03-.66c1.52,1.84,2.74,5.84,2.91,8.29Z" fill="#42210b"/><path d="M83.63,34.46c1.71,2.45,4.31,4.48,6.85,5.51-.46,.5-.9,1.12-1.23,1.71-.82-.42-1.65-.94-2.45-1.52v1.1h-7.97v-1.12c-.79,.58-1.63,1.1-2.48,1.57-.26-.46-.78-1.15-1.2-1.55,2.75-1.33,5.31-3.75,6.51-5.7h1.97Zm-5.86,8.39h10.15v6.56h-1.95v-.59h-6.32v.59h-1.87v-6.56Zm8.24-3.26c-1.33-1.04-2.51-2.19-3.28-3.25-.75,1.07-1.87,2.21-3.19,3.25h6.47Zm-6.37,4.95v2.61h6.32v-2.61h-6.32Z" fill="#42210b"/><path d="M96.82,35.02l2.34,.08c-.1,.45-.22,1.26-.35,2.27l.59,.75c-.22,.29-.54,.82-.82,1.23-.02,.14-.02,.3-.03,.45,1.62-1.2,3.26-1.65,4.71-1.65,2.47,0,4.4,1.74,4.42,4.32,0,3.23-2.03,5.17-6,5.96l-.96-1.94c2.82-.42,4.83-1.57,4.82-4.07,0-1.25-1.01-2.4-2.61-2.4-1.7,0-3.18,.82-4.53,2.05-.02,.46-.03,.93-.03,1.34,0,1.31,0,2.66,.1,4.16,.02,.29,.06,.86,.11,1.23h-2.21c.03-.35,.05-.93,.05-1.18,.03-1.25,.05-2.18,.06-3.52-.67,1.01-1.46,2.18-2.02,2.93l-1.26-1.75c.91-1.12,2.51-3.23,3.42-4.58,.03-.37,.06-.75,.08-1.14-.78,.1-2.02,.26-2.91,.38l-.21-2.05c.46,.02,.83,.02,1.39-.02,.46-.03,1.17-.11,1.86-.21,.03-.61,.06-1.06,.06-1.23,0-.46,.02-.94-.06-1.44Z" fill="#42210b"/><path d="M121.99,36.82c-.02,.62-.02,1.2-.03,1.73,.43-.03,.83-.06,1.2-.08,.45-.03,1.07-.06,1.54-.11v1.97c-.27-.02-1.12,0-1.54,.02-.35,.02-.77,.03-1.23,.06-.05,1.22-.11,2.53-.24,3.2-.18,.85-.58,1.06-1.39,1.06-.58,0-1.86-.16-2.42-.24l.05-1.78c.5,.11,1.15,.21,1.47,.21s.46-.06,.5-.37c.06-.43,.11-1.17,.13-1.94-1.42,.11-2.99,.26-4.35,.4-.02,1.47-.03,2.95,0,3.63,.03,1.57,.18,1.92,2.58,1.92,1.57,0,3.59-.19,4.79-.4l-.08,2.18c-1.07,.13-3.04,.26-4.56,.26-4.15,0-4.64-.86-4.72-3.63-.02-.69-.02-2.24-.02-3.73-.43,.05-.8,.08-1.07,.11-.51,.06-1.5,.22-1.92,.29l-.22-2.05c.46,0,1.2-.03,2.02-.11,.29-.03,.7-.06,1.22-.11v-1.62c0-.66-.05-1.2-.13-1.78h2.26c-.08,.54-.1,.99-.1,1.67,0,.37-.02,.91-.02,1.54,1.36-.13,2.91-.27,4.37-.4v-1.81c0-.4-.06-1.15-.11-1.47h2.14c-.03,.26-.08,.96-.1,1.39Z" fill="#42210b"/><path id="_角形_25" d="M16.59,33l-6,4v-8l6,4Z" fill="#42210b"/></g></svg>