<?xml version="1.0" encoding="utf-8"?>
<!-- Generator: Adobe Illustrator 26.2.1, SVG Export Plug-In . SVG Version: 6.00 Build 0)  -->
<svg version="1.1" id="レイヤー_1" xmlns="http://www.w3.org/2000/svg" xmlns:xlink="http://www.w3.org/1999/xlink" x="0px"
	 y="0px" viewBox="0 0 245.9 63.5" style="enable-background:new 0 0 245.9 63.5;" xml:space="preserve">
<style type="text/css">
	.st0{fill:#801A42;}
	.st1{fill:#FFFFFF;}
	.st2{enable-background:new    ;}
</style>
<g id="a">
</g>
<g id="b">
	<g id="c">
		<g id="d" transform="translate(-737 -3781.908)">
			<rect id="e" x="6.7" y="6.3" class="st0" width="239.2" height="57.2"/>
			<path class="st0" d="M239.6,57.7H0V0h239.6V57.7z M1,56.7h237.6V1H1V56.7z"/>
			<path class="st1" d="M239.6,57.7H6.5V6.1h233.1V57.7z M7.5,56.7h231.1V7.1H7.5V56.7z"/>
			<g>
				<path class="st1" d="M57.5,29.7c0.7,0,3.7-0.1,4.7-0.2c0.5-0.1,0.9-0.1,1.1-0.2l1.3,1.5c-0.3,0.2-0.9,0.6-1.3,0.9
					c-1.2,0.9-2.7,2.3-3.9,3.1c2.2-0.2,4.9-0.4,6.8-0.4v1.9c-1.6-0.1-3.2-0.1-4.2,0c-1.5,0.2-2.7,1.2-2.7,2.6s1,1.8,2.5,1.9
					c0.9,0.1,1.9,0.1,2.5,0L64,43c-4.2,0.2-6.6-1.1-6.6-3.8c0-1,0.6-2,1.2-2.6c-1.5,0.1-3.3,0.4-4.9,0.7l-0.2-2
					c0.9-0.1,2-0.2,2.8-0.3c1.4-0.9,3.5-2.8,4.5-3.7c-0.7,0-2.7,0.1-3.3,0.2c-0.4,0-0.9,0.1-1.5,0.1L56,29.6
					C56.5,29.7,57,29.7,57.5,29.7L57.5,29.7z"/>
				<path class="st1" d="M78.3,42.8l-1.2-1.9c0.6-0.1,1.1-0.2,1.5-0.3c2.1-0.5,3.7-2,3.7-4.3c0-2.2-1.2-3.9-3.4-4.3
					c-0.2,1.4-0.5,2.9-1,4.4c-1,3.3-2.4,5.3-4.1,5.3s-3.3-2-3.3-4.7c0-3.7,3.2-6.9,7.4-6.9s6.6,2.8,6.6,6.3S82.4,42.1,78.3,42.8
					L78.3,42.8z M73.9,39.1c0.7,0,1.3-1,2-3.2c0.4-1.2,0.7-2.6,0.9-3.9c-2.7,0.5-4.1,2.9-4.1,4.7C72.6,38.4,73.2,39.1,73.9,39.1z"/>
				<path class="st1" d="M93.7,28.9c-0.4,1.1-0.9,2.2-1.5,3.3v11.2h-1.9v-8.2c-0.3,0.5-0.7,0.9-1,1.2c-0.2-0.4-0.7-1.5-1-1.9
					c1.5-1.5,2.9-3.8,3.7-6.1L93.7,28.9L93.7,28.9z M100.7,41.5c1,0,1.1-0.4,1.3-2.2c0.4,0.3,1.2,0.6,1.7,0.8
					c-0.2,2.4-0.8,3.2-2.8,3.2h-3.6c-2.3,0-3-0.6-3-2.8v-4.4l-1.2,0.5l-0.8-1.7l2-0.8v-3.8h1.9v3.1l1.6-0.6v-4.2h1.8v3.5l1.6-0.6
					l0.6-0.4l1.3,0.5l-0.1,0.3c0,2.8-0.1,4.8-0.2,5.5c-0.1,0.8-0.4,1.2-0.9,1.5c-0.5,0.2-1.2,0.2-1.8,0.2c0-0.5-0.2-1.3-0.4-1.8
					c0.4,0,0.8,0,1,0c0.2,0,0.3-0.1,0.4-0.4c0.1-0.3,0.1-1.3,0.1-3.5l-1.7,0.7v5.8h-1.8v-5.1l-1.6,0.6v5.2c0,1,0.2,1.1,1.2,1.1
					L100.7,41.5L100.7,41.5z"/>
				<path class="st1" d="M115.4,42.8l-1.2-1.9c0.6-0.1,1.1-0.2,1.5-0.3c2.1-0.5,3.7-2,3.7-4.3c0-2.2-1.2-3.9-3.4-4.3
					c-0.2,1.4-0.5,2.9-1,4.4c-1,3.3-2.4,5.3-4.1,5.3s-3.3-2-3.3-4.7c0-3.7,3.2-6.9,7.4-6.9s6.6,2.8,6.6,6.3S119.5,42.1,115.4,42.8
					L115.4,42.8z M110.9,39.1c0.7,0,1.3-1,2-3.2c0.4-1.2,0.7-2.6,0.9-3.9c-2.7,0.5-4.1,2.9-4.1,4.7
					C109.6,38.4,110.3,39.1,110.9,39.1z"/>
				<path class="st1" d="M135.8,40.7c1.6,0.6,3.5,1.4,4.6,1.9l-2.2,0.9c-0.9-0.5-2.6-1.3-4.2-1.9l1.5-0.8h-4.7l1.5,0.7
					c-1.3,0.9-3.4,1.7-5.1,2.1c-0.3-0.4-1-1.1-1.4-1.4c1.6-0.3,3.3-0.8,4.5-1.4h-2.4v-6.6h5.4c-0.2-0.4-0.8-1-1.1-1.2
					c0.4-0.3,0.7-0.5,0.9-0.8h-1.5v1.7h-1.7v-1.7h-1.4c-0.2,0.9-0.7,1.9-1.6,2.7c-0.3-0.4-0.9-1-1.3-1.2c1.2-1.1,1.4-2.4,1.4-3.5
					v-1.5l1.2,0.3c1.3-0.1,2.6-0.4,3.4-0.6l1.2,1.1c-1.2,0.4-2.7,0.6-4.1,0.7v0.1c0,0.1,0,0.3,0,0.5h4.5V32c0.5-0.6,0.6-1.3,0.6-1.9
					v-1.5l1.3,0.3c1.4-0.2,2.8-0.4,3.6-0.7l1.2,1.1c-1.2,0.4-2.9,0.6-4.4,0.7v0.1c0,0.1,0,0.3,0,0.5h5.1v1.4h-2v1.7h-1.7v-1.7h-1.6
					c-0.3,0.7-0.8,1.4-1.6,2h5.3v6.6L135.8,40.7L135.8,40.7z M129.6,35.9h7v-0.7h-7V35.9z M129.6,37.7h7V37h-7V37.7z M129.6,39.5h7
					v-0.7h-7V39.5z"/>
				<path class="st1" d="M146.8,34.9v8.5h-1.9V28.9h6.2v6C151.1,34.9,146.8,34.9,146.8,34.9z M146.8,30.4v0.9h2.5v-0.9H146.8z
					 M149.3,33.5v-0.9h-2.5v0.9H149.3z M150.3,41.1V42h-1.8v-6h6.3v5.1H150.3z M150.3,37.6v1.9h2.7v-1.9H150.3z M158.6,41.1
					c0,1.1-0.2,1.6-0.9,1.9c-0.7,0.3-1.7,0.4-3.2,0.4c-0.1-0.5-0.4-1.5-0.6-2c0.9,0.1,2,0,2.4,0c0.3,0,0.4-0.1,0.4-0.4v-6.1h-4.4v-6
					h6.3L158.6,41.1L158.6,41.1z M154.1,30.4v0.9h2.6v-0.9H154.1z M156.6,33.5v-0.9h-2.6v0.9H156.6z"/>
				<path class="st1" d="M169.5,30.6c1.5-0.1,3.2-0.2,4.6-0.5l0,1.9c-1.5,0.2-3.5,0.4-5.3,0.4c-0.3,0.6-0.6,1.2-0.9,1.7
					c0.4-0.2,1.3-0.3,1.8-0.3c1,0,1.8,0.4,2.2,1.2c0.8-0.4,1.5-0.7,2.2-1c0.6-0.3,1.2-0.5,1.8-0.8l0.8,1.9c-0.5,0.2-1.4,0.5-1.9,0.7
					c-0.7,0.3-1.6,0.7-2.6,1.1c0,0.9,0.1,2.1,0.1,2.8h-1.9c0.1-0.5,0.1-1.3,0.1-2c-1.2,0.7-1.9,1.3-1.9,2.1c0,0.9,0.8,1.1,2.4,1.1
					c1.4,0,3.2-0.2,4.6-0.5l-0.1,2.1c-1.1,0.2-3.1,0.3-4.6,0.3c-2.5,0-4.4-0.6-4.4-2.7s1.9-3.4,3.8-4.3c-0.2-0.4-0.7-0.5-1.1-0.5
					c-0.9,0-1.9,0.5-2.5,1.1c-0.5,0.5-1,1.1-1.5,1.8l-1.7-1.3c1.7-1.6,2.9-3,3.6-4.5h-0.2c-0.7,0-1.9,0-2.7-0.1v-1.9
					c0.8,0.1,2,0.2,2.9,0.2h0.8c0.2-0.6,0.3-1.3,0.3-1.9l2.1,0.2C169.8,29.4,169.7,30,169.5,30.6L169.5,30.6z"/>
				<path class="st1" d="M193.4,41.5c0.6,0,0.6-0.3,0.7-2.2c0.4,0.3,1.3,0.6,1.8,0.8c-0.2,2.6-0.7,3.2-2.3,3.2h-2.1
					c-1.9,0-2.4-0.6-2.4-2.4v-2.6h-2c-0.3,2.6-1.3,4.3-5.3,5.2c-0.2-0.5-0.7-1.3-1.1-1.7c3.3-0.6,4-1.7,4.3-3.5h-2v-9.5h10.6v9.5
					H191v2.6c0,0.5,0.1,0.6,0.7,0.6L193.4,41.5L193.4,41.5z M184.9,31.5h6.8v-1h-6.8V31.5z M184.9,34h6.8v-1h-6.8V34z M184.9,36.6
					h6.8v-1h-6.8V36.6z"/>
				<path class="st1" d="M203.4,29.8c0.9,0,4.3-0.1,5.2-0.1c0.7-0.1,1-0.1,1.2-0.2l1.1,1.4c-0.4,0.2-0.8,0.5-1.1,0.8
					c-0.9,0.6-2.6,2-3.6,2.8c0.5-0.1,1-0.2,1.5-0.2c2.8,0,4.8,1.7,4.8,4.1c0,2.6-1.9,4.6-5.9,4.6c-2.2,0-3.9-1-3.9-2.7
					c0-1.3,1.2-2.5,2.9-2.5c2,0,3.2,1.2,3.4,2.8c0.9-0.5,1.4-1.2,1.4-2.2c0-1.5-1.5-2.5-3.4-2.5c-2.5,0-4.1,1.3-5.8,3.3l-1.5-1.5
					c1.1-0.9,3.1-2.6,4.1-3.4c0.9-0.8,2.6-2.1,3.4-2.8c-0.8,0-3.1,0.1-3.9,0.2c-0.4,0-1,0.1-1.3,0.1l-0.1-2.1
					C202.4,29.7,202.9,29.7,203.4,29.8L203.4,29.8z M206.3,41.1c0.3,0,0.6,0,0.9,0c-0.1-1-0.7-1.7-1.6-1.7c-0.6,0-1,0.4-1,0.8
					C204.7,40.7,205.3,41.1,206.3,41.1L206.3,41.1z"/>
			</g>
			<path id="f" class="st1" d="M41,35.7l-7.1,3.5v-7.1L41,35.7L41,35.7z"/>
		</g>
	</g>
</g>
<g id="グループ_1546_00000147181253980886228270000009233974498314757049_" transform="translate(-737 -3781.908)">
	
		<rect id="長方形_2324_00000157991334927179914130000010090927363899581057_" x="743.7" y="3788.2" class="st0" width="239.2" height="57.2"/>
	<path class="st0" d="M976.6,3839.6H737v-57.7h239.6V3839.6z M738,3838.6h237.6v-55.7H738V3838.6z"/>
	<path class="st1" d="M976.6,3839.6H743.5V3788h233.1V3839.6z M744.5,3838.6h231.1V3789H744.5V3838.6z"/>
	<g class="st2">
		<path class="st1" d="M794.5,3811.6c0.7,0,3.7-0.1,4.7-0.2c0.5-0.1,0.9-0.1,1.1-0.2l1.3,1.5c-0.3,0.2-0.9,0.6-1.3,0.9
			c-1.2,0.9-2.7,2.3-3.9,3.1c2.2-0.2,4.9-0.4,6.8-0.4v1.9c-1.6-0.1-3.2-0.1-4.2,0c-1.5,0.2-2.7,1.2-2.7,2.6c0,1.3,1,1.8,2.4,1.9
			c0.9,0.1,1.9,0.1,2.5,0l-0.4,2.1c-4.1,0.2-6.6-1.1-6.6-3.8c0-1,0.6-2,1.2-2.6c-1.5,0.1-3.3,0.4-4.9,0.6l-0.2-2
			c0.9-0.1,2-0.2,2.9-0.3c1.4-0.9,3.5-2.8,4.6-3.7c-0.7,0-2.7,0.1-3.3,0.2c-0.4,0-0.9,0.1-1.5,0.1l-0.1-2.1
			C793.5,3811.6,794,3811.6,794.5,3811.6z"/>
		<path class="st1" d="M815.3,3824.7l-1.2-1.9c0.6-0.1,1.1-0.2,1.5-0.3c2.1-0.5,3.7-2,3.7-4.3c0-2.2-1.2-3.9-3.4-4.3
			c-0.2,1.4-0.5,2.9-1,4.4c-1,3.3-2.4,5.3-4.1,5.3c-1.8,0-3.3-2-3.3-4.7c0-3.7,3.2-6.9,7.4-6.9c4,0,6.5,2.8,6.5,6.3
			C821.5,3821.6,819.4,3824.1,815.3,3824.7z M810.9,3821.1c0.7,0,1.3-1,2-3.2c0.4-1.2,0.7-2.6,0.9-3.9c-2.7,0.6-4.1,2.9-4.1,4.7
			C809.6,3820.3,810.2,3821.1,810.9,3821.1z"/>
		<path class="st1" d="M830.6,3810.8c-0.4,1.1-0.9,2.2-1.5,3.3v11.2h-1.9v-8.2c-0.3,0.5-0.7,0.9-1,1.2c-0.2-0.4-0.7-1.5-1-1.9
			c1.5-1.5,2.9-3.8,3.7-6.1L830.6,3810.8z M837.7,3823.4c1,0,1.1-0.4,1.3-2.2c0.4,0.3,1.2,0.6,1.7,0.7c-0.2,2.4-0.8,3.2-2.9,3.2
			h-3.6c-2.3,0-3-0.6-3-2.9v-4.4l-1.2,0.5l-0.7-1.7l2-0.8v-3.8h1.9v3.1l1.6-0.6v-4.2h1.8v3.5l1.6-0.6l0.6-0.4l1.3,0.5l-0.1,0.3
			c0,2.8,0,4.8-0.1,5.5c-0.1,0.8-0.4,1.2-0.9,1.5c-0.5,0.2-1.2,0.2-1.8,0.2c0-0.5-0.2-1.3-0.4-1.8c0.4,0,0.8,0,1,0
			c0.2,0,0.3-0.1,0.4-0.4c0-0.3,0.1-1.3,0.1-3.5l-1.7,0.7v5.8h-1.8v-5.1l-1.6,0.6v5.2c0,1,0.2,1.1,1.2,1.1H837.7z"/>
		<path class="st1" d="M852.4,3824.7l-1.2-1.9c0.6-0.1,1.1-0.2,1.5-0.3c2.1-0.5,3.7-2,3.7-4.3c0-2.2-1.2-3.9-3.4-4.3
			c-0.2,1.4-0.5,2.9-1,4.4c-1,3.3-2.4,5.3-4.1,5.3c-1.8,0-3.3-2-3.3-4.7c0-3.7,3.2-6.9,7.4-6.9c4,0,6.5,2.8,6.5,6.3
			C858.5,3821.6,856.5,3824.1,852.4,3824.7z M847.9,3821.1c0.7,0,1.3-1,2-3.2c0.4-1.2,0.7-2.6,0.9-3.9c-2.7,0.6-4.1,2.9-4.1,4.7
			C846.6,3820.3,847.3,3821.1,847.9,3821.1z"/>
		<path class="st1" d="M872.8,3822.6c1.7,0.6,3.5,1.4,4.6,1.9l-2.2,0.9c-0.9-0.5-2.6-1.3-4.2-1.9l1.5-0.8h-4.7l1.5,0.6
			c-1.3,0.9-3.4,1.7-5.1,2.1c-0.3-0.4-1-1.1-1.4-1.4c1.6-0.3,3.3-0.8,4.5-1.4h-2.4v-6.6h5.4c-0.2-0.4-0.8-1-1.1-1.2
			c0.4-0.3,0.7-0.5,0.9-0.8h-1.5v1.7h-1.7v-1.7h-1.4c-0.2,0.9-0.7,1.9-1.6,2.7c-0.3-0.4-0.9-1-1.3-1.2c1.2-1.1,1.4-2.4,1.4-3.5v-1.5
			l1.2,0.3c1.3-0.1,2.6-0.4,3.4-0.6l1.2,1.1c-1.2,0.4-2.7,0.6-4.1,0.7v0.1c0,0.1,0,0.3,0,0.5h4.5v1.3c0.5-0.6,0.6-1.3,0.6-1.9v-1.5
			l1.3,0.3c1.3-0.2,2.8-0.4,3.6-0.7l1.2,1.2c-1.2,0.4-2.9,0.6-4.4,0.7v0.1c0,0.1,0,0.3,0,0.5h5.1v1.4h-2v1.7h-1.7v-1.7h-1.6
			c-0.3,0.7-0.8,1.4-1.6,2h5.3v6.6H872.8z M866.6,3817.8h7v-0.7h-7V3817.8z M866.6,3819.6h7v-0.7h-7V3819.6z M866.6,3821.4h7v-0.7
			h-7V3821.4z"/>
		<path class="st1" d="M883.8,3816.8v8.5h-1.9v-14.5h6.2v6H883.8z M883.8,3812.3v0.9h2.5v-0.9H883.8z M886.3,3815.4v-0.9h-2.5v0.9
			H886.3z M887.3,3823v0.9h-1.8v-6h6.3v5.1H887.3z M887.3,3819.5v1.9h2.7v-1.9H887.3z M895.5,3823c0,1.1-0.2,1.6-0.9,1.9
			c-0.7,0.3-1.7,0.4-3.2,0.4c-0.1-0.6-0.4-1.5-0.6-2c0.9,0.1,2,0,2.3,0c0.3,0,0.4-0.1,0.4-0.4v-6.1h-4.4v-6h6.3V3823z M891,3812.3
			v0.9h2.6v-0.9H891z M893.6,3815.4v-0.9H891v0.9H893.6z"/>
		<path class="st1" d="M906.5,3812.5c1.5-0.1,3.2-0.2,4.6-0.5l0,1.9c-1.5,0.2-3.5,0.4-5.3,0.4c-0.3,0.6-0.6,1.2-0.9,1.7
			c0.4-0.2,1.3-0.3,1.8-0.3c1,0,1.8,0.4,2.2,1.2c0.8-0.4,1.5-0.7,2.2-1c0.6-0.3,1.2-0.5,1.8-0.8l0.8,1.9c-0.5,0.1-1.4,0.5-1.9,0.7
			c-0.7,0.3-1.7,0.6-2.6,1.1c0,0.9,0,2.1,0.1,2.9h-1.9c0-0.5,0.1-1.3,0.1-2c-1.2,0.7-1.9,1.3-1.9,2.1c0,0.9,0.8,1.1,2.3,1.1
			c1.4,0,3.2-0.2,4.6-0.5l-0.1,2.1c-1.1,0.1-3.1,0.3-4.6,0.3c-2.5,0-4.4-0.6-4.4-2.7c0-2.1,1.9-3.4,3.8-4.3
			c-0.2-0.4-0.7-0.6-1.1-0.6c-0.9,0-1.9,0.5-2.5,1.1c-0.5,0.5-1,1.1-1.5,1.8l-1.7-1.3c1.7-1.6,2.9-3,3.6-4.5c-0.1,0-0.1,0-0.2,0
			c-0.7,0-1.8,0-2.7-0.1v-1.9c0.8,0.1,2,0.2,2.9,0.2c0.2,0,0.5,0,0.8,0c0.2-0.6,0.3-1.3,0.3-1.9l2.1,0.2
			C906.8,3811.3,906.7,3811.9,906.5,3812.5z"/>
		<path class="st1" d="M930.4,3823.4c0.6,0,0.6-0.3,0.7-2.2c0.4,0.3,1.3,0.6,1.8,0.8c-0.2,2.6-0.7,3.2-2.3,3.2h-2.1
			c-1.9,0-2.4-0.6-2.4-2.4v-2.6h-2c-0.3,2.6-1.3,4.3-5.3,5.2c-0.2-0.5-0.7-1.3-1.1-1.7c3.3-0.6,4-1.7,4.3-3.5h-2v-9.5h10.6v9.5H928
			v2.6c0,0.5,0.1,0.6,0.7,0.6H930.4z M921.9,3813.4h6.8v-1h-6.8V3813.4z M921.9,3815.9h6.8v-1h-6.8V3815.9z M921.9,3818.5h6.8v-1
			h-6.8V3818.5z"/>
		<path class="st1" d="M940.4,3811.7c0.9,0,4.3-0.1,5.2-0.1c0.7-0.1,1-0.1,1.2-0.2l1.1,1.4c-0.4,0.2-0.8,0.5-1.1,0.7
			c-0.9,0.6-2.6,2-3.6,2.9c0.5-0.1,1-0.2,1.5-0.2c2.8,0,4.8,1.7,4.8,4.1c0,2.6-1.9,4.6-5.9,4.6c-2.3,0-4-1-4-2.7
			c0-1.3,1.2-2.5,2.9-2.5c2,0,3.2,1.2,3.5,2.8c0.9-0.5,1.3-1.2,1.3-2.2c0-1.5-1.5-2.4-3.4-2.4c-2.5,0-4.1,1.3-5.8,3.3l-1.5-1.5
			c1.2-0.9,3.1-2.6,4.1-3.4c0.9-0.7,2.6-2.1,3.4-2.8c-0.8,0-3.1,0.1-3.9,0.2c-0.4,0-1,0.1-1.3,0.1l-0.1-2.1
			C939.3,3811.6,939.9,3811.7,940.4,3811.7z M943.3,3823c0.3,0,0.6,0,0.9,0c-0.1-1.1-0.7-1.7-1.6-1.7c-0.6,0-1,0.4-1,0.8
			C941.7,3822.6,942.3,3823,943.3,3823z"/>
	</g>
	<path id="多角形_14_00000165941230211577005430000000303283100838468523_" class="st1" d="M778,3817.6l-7.1,3.5v-7.1L778,3817.6
		z"/>
</g>
</svg>
