<?xml version="1.0" encoding="UTF-8"?><svg id="_レイヤー_2" xmlns="http://www.w3.org/2000/svg" viewBox="0 0 26.22 100.5"><g id="_イヤー_2"><g><path d="M9.2,12.4c0-1-.1-3.2-.1-6,3.2-.1,6.5-.1,8.1-.1,2.2,0,3.2,.8,3.2,2.1,0,1.2-1.1,1.8-3,1.8-2.3,0-3.8,.1-3.8,.1v2.8s3.2-.1,7-.1c3.8-.1,5.3-2,5.2-4.6-.1-2.9-1.8-4.8-5.3-4.6-3.3,0-7.7,0-11.6,.1,0-2.2-.1-3.9-.1-3.9L3.3,.1s0,1.4,.1,3.9c-2.1,0-3.4,.1-3.4,.1v2.7s1.4,0,3.4-.1c-.1,2.1,0,4.6,0,7.1,.1,7.6,8.1,7.3,8.1,7.3l13.7-.2v-2.8H14.4c-2.2-.1-5.1-2.1-5.2-5.7h0Z" fill="#005748"/><path d="M9.1,47.6c4.8,0,5.8-1.2,7.4-2.2,2-1.3,7.4-6.5,9-10.8h-5.4c-.4,.9-7.4,10.9-10.9,9.2-1-.5-1.1-1.1-1.1-4.1v-12.9H3.2v13.1c-.1,7.2,4,7.7,5.9,7.7Z" fill="#005748"/><path d="M25.4,56.4v-2.8H.7v2.8H8v4.4H.7v2.5H8v3.1c0,6.1,3,7.1,8,7.1h8.4v-2.7s-3.8-.1-5.3-.1c-3.8,0-6.4-.9-6.4-3.8v-3.5h12.6v-2.6H12.8v-4.4h12.6Z" fill="#005748"/><path d="M13.5,92.3c0,5.8-3.5,7.3-7.3,7.3H1v-2.8H5.3c2.1,0,3.3-1.9,3.3-4.6v-4.9h9.2c2.3,0,3.1-1.1,3.1-2.3,0-2-1.7-2.7-3.1-2.7H1v-2.8H19.4c8.9,0,8.8,10.4,1.4,10.4h-7.3c.1,.1,0,1.3,0,2.4Z" fill="#005748"/><path d="M21.4,99.2h.7v-1.4h.9c.5,0,.7,.3,.7,1,0,.2,0,.3,.1,.6h.6c-.1-.1-.2-.6-.2-1,0-.6-.3-.8-.5-.8h0c.1,0,.5-.2,.5-.9,0-.6-.4-1-1.2-1h-1.6v3.5h0Zm.6-3h1c.3,0,.7,.1,.7,.6,0,.3-.2,.6-.7,.6h-1v-1.2" fill="#005748"/><path d="M25.7,97.5c0,1.7-1.3,3-3,3s-3-1.3-3-3,1.3-3,3-3c1.7-.1,3,1.3,3,3Zm-2.9-2.7c-1.4,0-2.5,1.1-2.5,2.5s1.1,2.5,2.5,2.5,2.5-1.1,2.5-2.5c0-1.3-1.1-2.5-2.5-2.5Z" fill="#005748"/></g></g></svg>