<?xml version="1.0" encoding="UTF-8"?><svg xmlns="http://www.w3.org/2000/svg" xmlns:xlink="http://www.w3.org/1999/xlink" viewBox="0 0 465.76 114.52"><defs><style>.j{fill:url(#e);}.k{fill:url(#d);}.l{fill:url(#g);}.m{fill:url(#f);}.n{fill:url(#i);}.o{fill:url(#h);}.p,.q{fill:#fff;}.r{fill:#ab800c;}.s,.t{fill:#42210b;}.q{stroke:#fff;}.q,.t{stroke-miterlimit:10;stroke-width:.28px;}.t{stroke:#42210b;}</style><linearGradient id="d" x1="2.41" y1="94.63" x2="44.62" y2="87.19" gradientTransform="matrix(1, 0, 0, 1, 0, 0)" gradientUnits="userSpaceOnUse"><stop offset="0" stop-color="#143d7f"/><stop offset="1" stop-color="#1f1e51"/></linearGradient><linearGradient id="e" x1="-4533.98" y1="94.63" x2="-4491.77" y2="87.19" gradientTransform="translate(-4317.11) rotate(-180) scale(1 -1)" xlink:href="#d"/><linearGradient id="f" x1="22" y1="79.65" x2="197.28" y2="79.65" xlink:href="#d"/><linearGradient id="g" x1="245.18" y1="93.92" x2="287.08" y2="86.53" xlink:href="#d"/><linearGradient id="h" x1="417.64" y1="90.09" x2="460.43" y2="90.09" xlink:href="#d"/><linearGradient id="i" x1="351.61" y1="62.76" x2="351.61" y2="95.36" xlink:href="#d"/></defs><g id="a"/><g id="b"><g id="c"><g><g><path class="p" d="M150.21,112.77l2.29-2.29c-1.04-.03-1.89-.88-1.89-1.93s.84-1.91,1.88-1.93l-2.28-2.28,1.75-1.75,2.28,2.28c.03-1.04,.88-1.89,1.93-1.89s1.91,.84,1.93,1.89l2.28-2.28,1.75,1.75-2.28,2.28c1.04,.03,1.88,.88,1.88,1.93s-.84,1.91-1.88,1.93l2.28,2.28-1.75,1.75-2.28-2.28c-.03,1.04-.88,1.88-1.93,1.88s-1.91-.84-1.93-1.88l-2.29,2.29-1.75-1.75Z"/><path d="M160.77,104.34l-4.21,4.21,4.21,4.21-.37,.37-4.21-4.21-4.22,4.22-.37-.37,4.22-4.22-4.21-4.21,.37-.37,4.21,4.21,4.21-4.21,.37,.37Zm-8.22,5.17c-.52,0-.96-.43-.96-.96s.43-.96,.96-.96,.96,.43,.96,.96-.43,.96-.96,.96Zm2.68-4.59c0-.52,.43-.96,.96-.96s.96,.43,.96,.96-.43,.96-.96,.96-.96-.43-.96-.96Zm1.91,7.27c0,.52-.43,.96-.96,.96s-.96-.43-.96-.96,.43-.96,.96-.96,.96,.43,.96,.96Zm2.68-4.59c.52,0,.96,.43,.96,.96s-.43,.96-.96,.96-.96-.43-.96-.96,.43-.96,.96-.96Z"/><path class="p" d="M162.72,114.37v-2.82h2.09v-4.93h-1.65v-2.47l.81-.14c.64-.11,1.16-.28,1.57-.52l.23-.13h2.03v8.2h1.9v2.82h-6.98Z"/><path d="M163.7,112.53h2.09v-6.89h-1.65v-.68c.8-.14,1.4-.36,1.89-.64h.79v8.2h1.9v.87h-5.03v-.87Z"/></g><g><path class="r" d="M18.83,24.62c.19-.5,.62-3.31-1.1-5.11l-1.71-1.81s-.79,2.68,.08,4.55c.87,1.85,2.73,2.37,2.73,2.37Zm16.99,59.92c.29-2.81-1.83-5.75-1.83-5.75l-1.37,3.2c-.9,2.13-.44,4.29,.1,5.66-1.12-1.37-2.17-2.87-3.19-4.51,.65-.52,1.85-1.7,2.25-3.5,.58-2.57-1.1-5.59-1.1-5.59l-1.62,2.79c-.85,1.46-.9,3.07-.71,4.35-2.02-3.55-3.83-7.55-5.33-11.84,.64-.33,2.33-1.35,3.02-3.29,.87-2.42-.64-5.48-.64-5.48l-2,2.52c-.98,1.24-1.23,2.68-1.19,3.87-.6-1.87-1.12-3.77-1.6-5.72,.5-.15,2.23-.83,3.16-2.66,1.08-2.15,.23-5.35,.23-5.35l-2.08,2.07c-1.39,1.37-1.65,3.31-1.64,4.64-.44-1.96-.83-3.94-1.14-5.94,.5-.11,2.23-.59,3.25-2.26,1.21-2,.64-5.18,.64-5.18l-2.17,1.81c-1.4,1.18-1.83,2.98-1.92,4.24-.15-1.11-.29-2.24-.4-3.35-.1-.98-.17-1.96-.23-2.94,.67-.09,2.04-.41,3.04-1.63,1.37-1.7,1.19-4.74,1.19-4.74l-2.23,1.37c-1.15,.72-1.77,1.87-2.1,2.92-.06-1.68-.08-3.33-.06-4.96,.64,0,2.12-.15,3.25-1.33,1.48-1.55,1.54-4.61,1.54-4.61l-2.33,1.15c-1.31,.63-2.02,1.87-2.41,2.94,.08-1.78,.19-3.55,.38-5.27,.6,.04,2.06,.02,3.23-1.04,1.52-1.39,1.77-4.35,1.77-4.35l-2.33,.94c-1.27,.5-2.02,1.59-2.46,2.59,.21-1.65,.46-3.26,.77-4.85,.65,.15,1.79,.28,2.87-.33,1.67-.94,2.42-3.63,2.42-3.63l-2.33,.33c-1.12,.15-1.96,.85-2.54,1.57,.29-1.28,.6-2.55,.92-3.79,.64,.13,1.54,.15,2.44-.35,1.56-.87,2.27-3.4,2.27-3.4l-2.17,.3c-.71,.09-1.29,.41-1.77,.83,.44-1.41,.94-2.76,1.46-4.09,.56,.26,1.52,.57,2.56,.22,1.58-.52,2.6-2.76,2.6-2.76l-2.08-.11c-.94-.04-1.73,.35-2.33,.85,.64-1.46,1.31-2.83,2.04-4.11,.42,.22,1.29,.57,2.23,.24,1.31-.44,2.16-2.29,2.16-2.29l-1.71-.09c-.71-.04-1.31,.22-1.77,.57,.21-.33,.4-.65,.62-.98v-.04c.64-.07,2.33-.57,3.02-2.35l.77-2s-2.06,.04-3.1,1.31c-.65,.81-.83,1.81-.89,2.44-.4,.59-.79,1.2-1.17,1.83,.13-.78,.13-1.89-.48-2.85l-1.02-1.57s-.89,1.81-.5,3.29c.31,1.11,1.1,1.76,1.48,2-.87,1.5-1.67,3.13-2.42,4.85,.23-.96,.33-2.33-.38-3.59l-1.14-1.98s-1.17,2.11-.79,3.94c.37,1.63,1.62,2.52,1.85,2.68-.6,1.41-1.14,2.92-1.64,4.46,.04-.89-.12-1.92-.71-2.83l-1.31-2s-1.14,2.37-.62,4.27c.38,1.41,1.4,2.22,1.89,2.55-.12,.24-.19,.44-.21,.54,0,0,.06,.02,.15,.07-.9,3.16-1.62,6.53-2.12,10.01-.29-1.07-.89-2.31-2.08-3.05l-2.16-1.33s-.17,2.96,1.14,4.61c.92,1.15,2.19,1.48,2.87,1.59-.25,2.11-.44,4.27-.54,6.46-.29-1.15-1.04-2.87-2.67-3.63l-2.35-1.09s.12,3.07,1.62,4.59c1.21,1.22,2.81,1.28,3.37,1.26-.06,2.02-.04,4.09,.04,6.18-.5-1.09-1.54-2.61-3.29-3l-2.52-.59s.64,3.03,2.41,4.18c1.35,.89,2.85,.67,3.46,.52,.06,.85,.1,1.68,.17,2.52,.1,1.18,.23,2.35,.38,3.53-.5-1.11-1.44-2.44-2.98-2.94l-2.58-.83s.44,3.2,2.19,4.59c1.39,1.09,3,.98,3.62,.87,.27,1.76,.58,3.5,.94,5.22-.73-.91-1.81-1.81-3.27-1.94l-2.75-.26s1,3.13,3.02,4.16c1.35,.67,2.73,.41,3.48,.17,.48,2.05,1.04,4.05,1.64,5.99-.79-1-2.04-2.07-3.75-2.31l-3.14-.46s1.06,3.29,3.33,4.46c1.69,.87,3.44,.57,4.23,.35,.64,1.87,1.33,3.7,2.06,5.46-.98-.74-2.41-1.37-4.04-1l-2.89,.65s1.87,2.87,4.2,3.24c1.54,.24,2.85-.46,3.58-.96,.92,2.07,1.92,4.03,2.98,5.85-1.02-.74-3.02-1.68-5.08-.76l-2.75,1.22s2.27,2.46,4.62,2.35c1.87-.09,3.21-1.44,3.69-2,.79,1.31,1.6,2.55,2.42,3.72-1-.2-2.17-.17-3.33,.46l-2.85,1.52s2.58,2.44,5.06,2.11c1.33-.17,2.37-.94,3.06-1.59,.75,.89,1.52,1.74,2.31,2.48l.85-.94c-.75-.7-1.48-1.46-2.19-2.29,.56-.54,1.92-2.05,2.16-4.27Zm-9.91-14.52c-1.58,2.83-.27,6.12,.1,6.64,0,0,2.12-1.31,2.66-3.9,.54-2.59-1.17-5.57-1.17-5.57l-1.58,2.83Z"/><path class="r" d="M202.97,22.22c.85-1.87,.04-4.55,.04-4.55l-1.69,1.83c-1.69,1.83-1.23,4.64-1.04,5.14-.02,0,1.85-.54,2.69-2.42Zm-16.88,66.77c-.71,.83-1.42,1.61-2.17,2.31l.85,.94c.77-.76,1.54-1.61,2.29-2.52,.69,.65,1.73,1.41,3.08,1.55,2.48,.28,5.04-2.18,5.04-2.18l-2.85-1.48c-1.17-.61-2.33-.63-3.35-.41,.83-1.18,1.62-2.42,2.39-3.74,.48,.54,1.85,1.89,3.71,1.94,2.35,.09,4.6-2.42,4.6-2.42l-2.75-1.2c-2.08-.89-4.06,.07-5.08,.83,1.02-1.85,2-3.81,2.92-5.88,.73,.48,2.06,1.18,3.6,.91,2.33-.39,4.16-3.29,4.16-3.29l-2.91-.63c-1.64-.35-3.04,.3-4.02,1.07,.71-1.76,1.39-3.61,2-5.48,.79,.2,2.54,.48,4.23-.41,2.25-1.2,3.29-4.51,3.29-4.51l-3.14,.5c-1.71,.26-2.94,1.33-3.73,2.35,.58-1.96,1.12-3.96,1.58-6.01,.75,.24,2.14,.48,3.48-.22,2-1.04,2.96-4.18,2.96-4.18l-2.75,.3c-1.46,.15-2.54,1.07-3.25,1.98,.35-1.72,.65-3.48,.9-5.25,.62,.09,2.25,.2,3.62-.91,1.73-1.41,2.14-4.61,2.14-4.61l-2.58,.87c-1.54,.52-2.46,1.85-2.96,2.98,.15-1.18,.27-2.35,.35-3.53,.06-.85,.12-1.68,.15-2.52,.62,.15,2.12,.35,3.46-.57,1.75-1.2,2.37-4.22,2.37-4.22l-2.52,.59c-1.75,.41-2.77,1.96-3.27,3.05,.08-2.07,.06-4.14-.02-6.18,.56,.02,2.14-.07,3.35-1.31,1.5-1.55,1.56-4.59,1.56-4.59l-2.33,1.13c-1.62,.78-2.35,2.5-2.64,3.66-.12-2.2-.33-4.35-.6-6.46,.67-.11,1.94-.46,2.85-1.61,1.29-1.65,1.1-4.64,1.1-4.64l-2.16,1.37c-1.19,.76-1.77,2-2.04,3.07-.54-3.48-1.29-6.83-2.23-9.99,.1-.04,.15-.07,.15-.07-.02-.11-.1-.3-.21-.54,.48-.33,1.5-1.18,1.87-2.57,.5-1.89-.64-4.2-.64-4.2l-1.29,2c-.6,.91-.73,1.96-.69,2.83-.52-1.55-1.08-3.03-1.67-4.44,.23-.15,1.48-1.07,1.83-2.7,.38-1.83-.83-3.92-.83-3.92l-1.12,1.98c-.71,1.26-.6,2.66-.35,3.59-.77-1.72-1.6-3.33-2.48-4.81,.38-.26,1.15-.91,1.46-2.02,.38-1.48-.52-3.29-.52-3.29l-1,1.59c-.62,.96-.6,2.07-.46,2.85-.38-.63-.79-1.22-1.19-1.81-.06-.63-.25-1.63-.9-2.42-1.08-1.28-3.12-1.28-3.12-1.28l.79,1.98c.71,1.76,2.41,2.26,3.04,2.31v.04l.64,.98c-.48-.35-1.08-.61-1.79-.54l-1.71,.11s.87,1.83,2.17,2.24c.94,.3,1.81-.04,2.23-.28,.73,1.28,1.42,2.63,2.08,4.09-.6-.48-1.39-.87-2.33-.81l-2.08,.13s1.04,2.22,2.64,2.72c1.02,.33,2,.02,2.54-.26,.54,1.31,1.04,2.66,1.5,4.07-.48-.39-1.06-.72-1.77-.81l-2.17-.26s.73,2.5,2.31,3.35c.89,.48,1.81,.44,2.44,.3,.35,1.22,.67,2.48,.96,3.77-.58-.72-1.42-1.39-2.56-1.55l-2.33-.3s.77,2.68,2.44,3.59c1.1,.59,2.21,.46,2.87,.28,.31,1.57,.6,3.2,.83,4.83-.44-.98-1.23-2.07-2.48-2.55l-2.33-.89s.27,2.96,1.81,4.33c1.19,1.04,2.64,1.04,3.25,.98,.19,1.72,.35,3.48,.44,5.27-.38-1.07-1.12-2.29-2.42-2.92l-2.35-1.11s.1,3.07,1.6,4.59c1.15,1.18,2.62,1.28,3.25,1.28,.06,1.63,.06,3.29,0,4.96-.33-1.04-.96-2.2-2.12-2.89l-2.25-1.35s-.15,3.07,1.23,4.74c1,1.22,2.39,1.52,3.06,1.59-.06,.98-.12,1.96-.21,2.94-.1,1.13-.23,2.24-.37,3.35-.1-1.26-.54-3.07-1.96-4.22l-2.17-1.76s-.54,3.18,.69,5.16c1.04,1.68,2.77,2.13,3.27,2.24-.29,2-.65,4-1.08,5.96,.02-1.33-.29-3.26-1.67-4.61l-2.16-1.98s-.81,3.2,.29,5.35c.94,1.83,2.69,2.46,3.19,2.61-.46,1.96-.96,3.87-1.54,5.75,.02-1.2-.23-2.63-1.23-3.85l-2.02-2.48s-1.46,3.09-.58,5.48c.71,1.94,2.42,2.94,3.06,3.26-1.46,4.31-3.21,8.34-5.21,11.9,.17-1.28,.12-2.87-.77-4.33l-1.65-2.76s-1.64,3.05-1.04,5.62c.42,1.81,1.62,2.96,2.29,3.48-1,1.63-2.06,3.16-3.14,4.55,.52-1.37,.96-3.55,.02-5.66l-1.4-3.18s-2.1,2.96-1.77,5.77c.25,2.15,1.64,3.63,2.21,4.16Zm5.95-21.68s-1.69,3.03-1.12,5.59c.56,2.57,2.69,3.85,2.69,3.85,.37-.54,1.64-3.83,.04-6.64l-1.62-2.81Z"/></g><g><path class="r" d="M241.67,24.43c.19-.5,.61-3.28-1.09-5.08l-1.7-1.79s-.78,2.66,.08,4.51c.86,1.84,2.71,2.35,2.71,2.35Zm16.86,59.47c.29-2.79-1.81-5.7-1.81-5.7l-1.36,3.18c-.9,2.12-.44,4.26,.1,5.62-1.11-1.36-2.16-2.85-3.17-4.47,.65-.52,1.83-1.68,2.23-3.48,.57-2.55-1.09-5.55-1.09-5.55l-1.6,2.76c-.84,1.45-.9,3.05-.71,4.32-2.01-3.52-3.8-7.5-5.29-11.75,.63-.32,2.31-1.34,3-3.26,.86-2.4-.63-5.44-.63-5.44l-1.99,2.51c-.97,1.23-1.22,2.66-1.18,3.85-.59-1.86-1.11-3.74-1.59-5.68,.5-.15,2.22-.82,3.13-2.64,1.07-2.14,.23-5.31,.23-5.31l-2.06,2.05c-1.38,1.36-1.64,3.28-1.62,4.6-.44-1.94-.82-3.91-1.13-5.9,.5-.11,2.22-.58,3.23-2.25,1.2-1.99,.63-5.14,.63-5.14l-2.16,1.79c-1.39,1.17-1.81,2.96-1.91,4.21-.15-1.1-.29-2.22-.4-3.33-.1-.97-.17-1.94-.23-2.92,.67-.09,2.02-.41,3.02-1.62,1.36-1.68,1.18-4.71,1.18-4.71l-2.22,1.36c-1.15,.71-1.76,1.86-2.08,2.89-.06-1.66-.08-3.31-.06-4.93,.63,0,2.1-.15,3.23-1.32,1.47-1.53,1.53-4.58,1.53-4.58l-2.31,1.14c-1.3,.63-2.01,1.86-2.39,2.92,.08-1.77,.19-3.52,.38-5.23,.59,.04,2.04,.02,3.21-1.04,1.51-1.38,1.76-4.32,1.76-4.32l-2.31,.93c-1.26,.5-2.01,1.58-2.44,2.57,.21-1.64,.46-3.24,.76-4.82,.65,.15,1.78,.28,2.85-.32,1.66-.93,2.41-3.61,2.41-3.61l-2.31,.32c-1.11,.15-1.95,.84-2.52,1.56,.29-1.27,.59-2.53,.92-3.76,.63,.13,1.53,.15,2.43-.35,1.55-.86,2.25-3.37,2.25-3.37l-2.16,.3c-.71,.09-1.28,.41-1.76,.82,.44-1.4,.94-2.74,1.45-4.06,.55,.26,1.51,.56,2.54,.22,1.57-.52,2.58-2.74,2.58-2.74l-2.06-.11c-.94-.04-1.72,.35-2.31,.84,.63-1.45,1.3-2.81,2.02-4.08,.42,.22,1.28,.56,2.22,.24,1.3-.43,2.14-2.27,2.14-2.27l-1.7-.09c-.71-.04-1.3,.22-1.76,.56,.21-.32,.4-.65,.61-.97v-.04c.63-.06,2.31-.56,3-2.33l.76-1.99s-2.04,.04-3.07,1.3c-.65,.8-.82,1.79-.88,2.42-.4,.58-.78,1.19-1.17,1.81,.13-.78,.13-1.88-.48-2.83l-1.01-1.56s-.88,1.79-.5,3.26c.31,1.1,1.09,1.75,1.47,1.99-.86,1.49-1.66,3.11-2.41,4.82,.23-.95,.32-2.31-.38-3.56l-1.13-1.97s-1.17,2.1-.78,3.91c.36,1.62,1.6,2.51,1.83,2.66-.59,1.4-1.13,2.89-1.62,4.43,.04-.89-.11-1.9-.71-2.81l-1.3-1.99s-1.13,2.35-.61,4.23c.38,1.4,1.39,2.2,1.87,2.53-.11,.24-.19,.43-.21,.54,0,0,.06,.02,.15,.06-.9,3.13-1.6,6.48-2.1,9.94-.29-1.06-.88-2.29-2.06-3.02l-2.14-1.32s-.17,2.94,1.13,4.58c.92,1.14,2.18,1.47,2.85,1.58-.25,2.1-.44,4.23-.53,6.42-.29-1.14-1.03-2.85-2.65-3.61l-2.33-1.08s.11,3.05,1.6,4.56c1.2,1.21,2.79,1.27,3.34,1.25-.06,2.01-.04,4.06,.04,6.13-.5-1.08-1.53-2.59-3.27-2.98l-2.5-.58s.63,3,2.39,4.15c1.34,.89,2.83,.67,3.44,.52,.06,.84,.1,1.66,.17,2.51,.1,1.17,.23,2.33,.38,3.5-.5-1.1-1.43-2.42-2.96-2.92l-2.56-.82s.44,3.18,2.18,4.56c1.38,1.08,2.98,.97,3.59,.86,.27,1.75,.57,3.48,.94,5.18-.73-.91-1.8-1.79-3.25-1.92l-2.73-.26s.99,3.11,3,4.13c1.34,.67,2.71,.41,3.46,.17,.48,2.03,1.03,4.02,1.62,5.94-.78-.99-2.02-2.05-3.72-2.29l-3.11-.45s1.05,3.26,3.3,4.43c1.68,.86,3.42,.56,4.2,.35,.63,1.86,1.32,3.67,2.04,5.42-.97-.73-2.39-1.36-4.01-.99l-2.86,.65s1.85,2.85,4.16,3.22c1.53,.24,2.83-.45,3.55-.95,.92,2.05,1.91,4,2.96,5.81-1.01-.73-3-1.66-5.04-.76l-2.73,1.21s2.25,2.44,4.58,2.33c1.85-.09,3.19-1.43,3.67-1.99,.78,1.3,1.59,2.53,2.41,3.69-.99-.19-2.16-.17-3.3,.45l-2.83,1.51s2.56,2.42,5.02,2.1c1.32-.17,2.35-.93,3.04-1.58,.74,.89,1.51,1.73,2.29,2.46l.84-.93c-.74-.69-1.47-1.45-2.18-2.27,.55-.54,1.91-2.03,2.14-4.23Zm-9.84-14.41c-1.57,2.81-.27,6.07,.1,6.59,0,0,2.1-1.3,2.64-3.87s-1.17-5.53-1.17-5.53l-1.57,2.81Z"/><path class="r" d="M461.04,22.06c.84-1.86,.04-4.51,.04-4.51l-1.68,1.81c-1.68,1.81-1.22,4.6-1.03,5.1-.02,0,1.83-.54,2.67-2.4Zm-16.75,66.27c-.71,.82-1.41,1.6-2.16,2.29l.84,.93c.76-.76,1.53-1.6,2.27-2.51,.69,.65,1.72,1.4,3.06,1.53,2.46,.28,5-2.16,5-2.16l-2.83-1.47c-1.17-.6-2.31-.63-3.32-.41,.82-1.17,1.6-2.4,2.37-3.72,.48,.54,1.83,1.88,3.69,1.92,2.33,.09,4.56-2.4,4.56-2.4l-2.73-1.19c-2.06-.89-4.03,.06-5.04,.82,1.01-1.84,1.99-3.78,2.9-5.83,.73,.48,2.04,1.17,3.57,.91,2.31-.39,4.13-3.26,4.13-3.26l-2.88-.63c-1.62-.35-3.02,.3-3.99,1.06,.71-1.75,1.38-3.59,1.99-5.44,.78,.19,2.52,.48,4.2-.41,2.23-1.19,3.27-4.47,3.27-4.47l-3.11,.5c-1.7,.26-2.92,1.32-3.71,2.33,.57-1.94,1.11-3.93,1.57-5.96,.74,.24,2.12,.48,3.46-.22,1.99-1.04,2.94-4.15,2.94-4.15l-2.73,.3c-1.45,.15-2.52,1.06-3.23,1.97,.34-1.71,.65-3.46,.9-5.21,.61,.09,2.23,.19,3.59-.91,1.72-1.4,2.12-4.58,2.12-4.58l-2.56,.86c-1.53,.52-2.44,1.84-2.94,2.96,.15-1.17,.27-2.33,.34-3.5,.06-.84,.11-1.66,.15-2.51,.61,.15,2.1,.35,3.44-.56,1.74-1.19,2.35-4.19,2.35-4.19l-2.5,.58c-1.74,.41-2.75,1.94-3.25,3.02,.08-2.05,.06-4.1-.02-6.13,.55,.02,2.12-.06,3.32-1.3,1.49-1.53,1.55-4.56,1.55-4.56l-2.31,1.12c-1.6,.78-2.33,2.48-2.62,3.63-.11-2.18-.32-4.32-.59-6.42,.67-.11,1.93-.45,2.83-1.6,1.28-1.64,1.09-4.6,1.09-4.6l-2.14,1.36c-1.18,.76-1.76,1.99-2.02,3.05-.53-3.46-1.28-6.78-2.22-9.92,.1-.04,.15-.06,.15-.06-.02-.11-.1-.3-.21-.54,.48-.32,1.49-1.17,1.85-2.55,.5-1.88-.63-4.17-.63-4.17l-1.28,1.99c-.59,.91-.73,1.94-.69,2.81-.52-1.53-1.07-3-1.66-4.41,.23-.15,1.47-1.06,1.81-2.68,.38-1.81-.82-3.89-.82-3.89l-1.11,1.97c-.71,1.25-.59,2.64-.34,3.56-.76-1.71-1.59-3.31-2.46-4.77,.38-.26,1.15-.91,1.45-2.01,.38-1.47-.52-3.26-.52-3.26l-.99,1.58c-.61,.95-.59,2.05-.46,2.83-.38-.63-.78-1.21-1.18-1.79-.06-.63-.25-1.62-.9-2.4-1.07-1.27-3.09-1.27-3.09-1.27l.78,1.97c.71,1.75,2.39,2.25,3.02,2.29v.04l.63,.97c-.48-.35-1.07-.6-1.78-.54l-1.7,.11s.86,1.81,2.16,2.22c.94,.3,1.8-.04,2.22-.28,.73,1.27,1.41,2.61,2.06,4.06-.59-.48-1.38-.86-2.31-.8l-2.06,.13s1.03,2.2,2.62,2.7c1.01,.32,1.99,.02,2.52-.26,.53,1.3,1.03,2.64,1.49,4.04-.48-.39-1.05-.71-1.76-.8l-2.16-.26s.73,2.48,2.29,3.33c.88,.48,1.8,.43,2.43,.3,.34,1.21,.67,2.46,.95,3.74-.57-.71-1.41-1.38-2.54-1.53l-2.31-.3s.76,2.66,2.43,3.56c1.09,.58,2.2,.45,2.85,.28,.31,1.56,.59,3.18,.82,4.8-.44-.97-1.22-2.05-2.46-2.53l-2.31-.89s.27,2.94,1.8,4.3c1.18,1.04,2.62,1.04,3.23,.97,.19,1.71,.34,3.46,.44,5.23-.38-1.06-1.11-2.27-2.41-2.89l-2.33-1.1s.1,3.05,1.59,4.56c1.15,1.17,2.6,1.27,3.23,1.27,.06,1.62,.06,3.26,0,4.93-.32-1.04-.95-2.18-2.1-2.87l-2.23-1.34s-.15,3.05,1.22,4.71c.99,1.21,2.37,1.51,3.04,1.58-.06,.97-.11,1.94-.21,2.92-.1,1.12-.23,2.22-.36,3.33-.1-1.25-.53-3.05-1.95-4.19l-2.16-1.75s-.53,3.15,.69,5.12c1.03,1.66,2.75,2.12,3.25,2.22-.29,1.99-.65,3.97-1.07,5.92,.02-1.32-.29-3.24-1.66-4.58l-2.14-1.97s-.8,3.18,.29,5.31c.94,1.81,2.67,2.44,3.17,2.59-.46,1.94-.95,3.85-1.53,5.7,.02-1.19-.23-2.61-1.22-3.82l-2.01-2.46s-1.45,3.07-.57,5.44c.71,1.92,2.41,2.92,3.04,3.24-1.45,4.28-3.19,8.27-5.18,11.82,.17-1.27,.11-2.85-.76-4.3l-1.64-2.74s-1.62,3.02-1.03,5.57c.42,1.79,1.6,2.94,2.27,3.46-.99,1.62-2.04,3.13-3.11,4.51,.52-1.36,.95-3.52,.02-5.62l-1.39-3.15s-2.08,2.94-1.76,5.72c.25,2.14,1.62,3.61,2.2,4.13Zm5.9-21.51s-1.68,3-1.11,5.55c.55,2.55,2.67,3.82,2.67,3.82,.36-.54,1.62-3.8,.04-6.59l-1.6-2.79Z"/></g><g><g><path class="k" d="M43.12,101.57c-11.95,1.43-23.86,3.26-35.71,5.46,1.26-4.81,2.58-9.61,3.94-14.42-3.71-3.92-7.5-7.79-11.34-11.64,14.06-2.68,28.2-4.84,42.38-6.49,.21,9.03,.45,18.05,.73,27.07Z"/><path d="M43.12,101.57c-4.86-1.9-9.77-3.73-14.74-5.5,4.83-.7,9.67-1.34,14.52-1.92,.07,2.47,.15,4.94,.22,7.41Z"/><path class="j" d="M176.16,101.57c11.95,1.43,23.86,3.26,35.71,5.46-1.26-4.81-2.58-9.61-3.94-14.42,3.71-3.92,7.5-7.79,11.34-11.64-14.06-2.68-28.2-4.84-42.38-6.49-.21,9.03-.45,18.05-.73,27.07Z"/><path d="M176.16,101.57c4.86-1.9,9.77-3.73,14.74-5.5-4.83-.7-9.67-1.34-14.52-1.92-.07,2.47-.15,4.94-.22,7.41Z"/><path class="m" d="M190.9,96.08c-53.89-7.82-108.63-7.82-162.52,0-2.09-8.78-4.22-17.56-6.38-26.32,58.1-8.69,117.18-8.69,175.28,0-2.16,8.77-4.29,17.54-6.38,26.32Z"/></g><g><path class="q" d="M52.67,74.65c.35-.62,.83-1.36,1.12-1.38,.38-.03,1.84,.98,1.88,1.44,.02,.25-.28,.45-1.02,.51-2.59,.19-3.89,.29-6.48,.5,.15,.08,.25,.18,.26,.28,.02,.25-.38,.43-.74,.49-.15,.44-.34,.93-.52,1.36,1.53-.13,2.3-.19,3.83-.31,.26-.38,.57-.8,.77-.81,.42-.03,1.64,.74,1.67,1.15,.02,.29-.34,.49-.71,.66,.06,2.02,.58,7.16,.66,8.14,.04,.55-.27,.72-.77,.76-.43,.03-.6-.28-.62-.56-.02-.21-.03-.32-.04-.53-2.82,.22-4.22,.34-7.04,.59,.02,.26,.03,.39,.06,.64,.03,.39-.23,.61-.79,.66-.36,.03-.53-.13-.56-.45-.15-1.66-.55-7.9-.97-9.96-.03-.14,.09-.27,.25-.27,.26-.01,1.24,.23,1.72,.53,.59-.05,.89-.08,1.48-.13,.14-.7,.24-1.48,.24-2.07-2.65,.22-3.98,.34-6.63,.59-.24,.02-.41-.03-.43-.32-.03-.27,.13-.37,.37-.39,3.58-.34,5.37-.49,8.95-.78-.04-.09-.04-.23,.02-.4,.41-.86,.79-1.81,1-2.78,.02-.16,.12-.31,.33-.28,.67,.14,1.85,.66,1.88,1,.02,.29-.32,.42-.9,.41-.43,.61-1.03,1.34-1.69,1.98,1.37-.11,2.06-.16,3.43-.27Zm-9.37-1.8c-.27-.37-.07-.77,.48-.62,1.07,.32,2.15,.95,2.16,1.86,0,.54-.35,.91-.91,.92-.51,.01-.72-.48-1.02-1.04-.18-.36-.45-.77-.7-1.12Zm8.27,7.97c-2.87,.22-4.3,.34-7.16,.6l.12,1.37,.05,.62c2.86-.25,4.29-.37,7.15-.59-.06-.8-.09-1.2-.16-2Zm-7.09-2.02c-.07,.02-.16,.05-.25,.08,.01,.36,.06,1.09,.12,1.82,2.86-.25,4.29-.37,7.15-.59-.04-.8-.1-1.48-.15-1.87-2.75,.22-4.13,.33-6.88,.57Zm7.43,6.82c-.06-.84-.09-1.25-.15-2.09-2.84,.22-4.26,.34-7.1,.59,.07,.83,.11,1.25,.18,2.09,2.82-.25,4.24-.37,7.06-.59Z"/><path class="q" d="M67.84,75.98c.3-.55,.67-1.11,.9-1.13,.34-.02,1.34,.97,1.36,1.34,.01,.27-.31,.39-.67,.41-1.33,.07-2,.11-3.33,.19-.49,.71-1.03,1.39-1.62,2.05,.92-.06,1.39-.08,2.31-.14,.22-.33,.5-.69,.69-.7,.34-.02,1.43,.69,1.45,1.08,.01,.23-.51,.43-.58,.55-.34,.55,.32,5.06,.36,5.79,.03,.55-.25,.71-.73,.74-.41,.02-.55-.29-.57-.58-.01-.19-.02-.28-.03-.46-1.35,.08-2.02,.12-3.36,.2,.02,.33,.03,.49,.05,.82,.02,.39-.23,.59-.77,.62-.3,.02-.5-.15-.51-.45-.05-.97-.15-3.51-.3-5.54-.69,.58-1.41,1.11-2.22,1.63-.49,.28-.81-.2-.36-.53,.89-.71,1.71-1.44,2.48-2.22-.04-.37-.08-.72-.14-1-.02-.12,.09-.26,.24-.25,.16,0,.51,.09,.87,.21,.49-.55,.96-1.14,1.38-1.75-1.83,.11-2.75,.17-4.58,.29-.24,.02-.4-.05-.42-.33-.02-.27,.14-.37,.37-.38,1.3-.09,1.95-.13,3.24-.21-.02-.68-.07-1.48-.12-2.27-.99,.06-1.48,.09-2.47,.16-.24,.02-.4-.05-.42-.33-.02-.27,.14-.37,.38-.38,.98-.06,1.47-.1,2.46-.16-.06-.98-.15-1.87-.26-2.37-.03-.16,.08-.26,.24-.27,.31-.02,1.99-.07,2.02,.38,.02,.36-.32,.5-.82,.66,.04,.61,.05,.91,.09,1.52,.23-.01,.35-.02,.58-.03,.3-.5,.65-1.04,.85-1.05,.2-.01,.74,.41,1.05,.8,.24-.57,.45-1.16,.63-1.78,.06-.2,.19-.26,.35-.22,.76,.17,1.75,.78,1.74,1.12,0,.3-.51,.4-1.08,.31-.57,1.27-1.19,2.5-1.96,3.71,.49-.03,.74-.04,1.23-.07Zm-3.78,3.61c-.11,.04-.25,.09-.37,.11,0,.38,.04,1.27,.09,1.99,1.37-.08,2.06-.13,3.43-.2-.03-.86-.07-1.63-.12-2.07-1.21,.07-1.82,.11-3.03,.18Zm3.3,4.83c-.04-.89-.07-1.33-.11-2.22-1.37,.08-2.06,.12-3.43,.2,0,.1,0,.15,.02,.25,.06,.79,.08,1.18,.14,1.96,1.35-.08,2.03-.12,3.39-.2Zm-2.11-8.29c.48-.75,.91-1.52,1.28-2.35-.82,.05-1.23,.07-2.05,.12,.05,.91,.08,1.36,.14,2.27,.25-.02,.38-.02,.63-.04Zm8.83-5.02c.27-.37,.57-.69,.79-.7,.33-.02,1.54,.9,1.56,1.36,.01,.27-.31,.43-.79,.61-.67,1.36-1.73,3.11-2.11,3.83-.13,.26-.09,.33,.12,.51,1.36,1.19,2.52,2.05,2.63,4.48,.07,1.54-.39,2.9-2.02,2.98-.3,.01-.45-.1-.57-.29-.27-.45-.44-.5-.95-.6-.47-.09-.43-.62,.02-.63,.41,0,.83,.01,1.26,0,.88-.04,.99-.69,.93-2.11-.06-1.22-.81-2.33-2.12-3.43-.38-.3-.39-.5-.14-1.01,.48-.97,1.32-3.2,1.51-4.28-1.07,.05-1.61,.08-2.68,.13-.03,1.24,.18,5.42,.22,6.14,.03,.64,.38,6.79,.42,7.53,.02,.41-.24,.66-.81,.69-.36,.02-.51-.17-.53-.51-.12-2.25-.41-12.31-.86-15.01-.02-.11,.08-.26,.24-.26,.23,0,1.46,.34,1.9,.69,.8-.04,1.19-.06,1.99-.1Z"/><path class="q" d="M94.26,70.32c.27-.36,.59-.75,.79-.75,.38,0,1.53,.81,1.54,1.21,0,.25-.34,.45-.7,.6-.1,2.72,.28,11.88,.31,13.32,.01,.55-.33,.7-.83,.71-.43,0-.56-.31-.57-.6v-.68c-4.78,.09-7.16,.16-11.92,.33,.01,.29,.02,.44,.03,.73,.01,.41-.23,.65-.8,.67-.36,.01-.51-.18-.52-.52-.08-2.25-.23-12.35-.64-15.08-.02-.11,.09-.26,.25-.26,.21,0,1.24,.29,1.72,.62,4.54-.16,6.81-.22,11.35-.31Zm.51,13.1c-.03-3.17-.12-10.63-.19-12.39-4.7,.09-7.05,.16-11.74,.32-.11,.04-.23,.08-.38,.1-.05,1.26,.1,5.46,.13,6.19,.02,.47,.16,4.01,.26,6.1,4.77-.17,7.15-.24,11.92-.33Zm-3.71-6.63c.71,.72,1.69,1.19,3.13,1.49,.56,.1,.26,.34,.03,.45-.35,.17-.4,.26-.55,.46-.19,.25-.23,.36-.84,.16-1.25-.44-2.2-1.35-2.83-2.53-.98,.03-1.48,.04-2.46,.07-.26,.47-.55,.89-.88,1.3h.05c1.05-.03,1.58-.05,2.64-.08,.17-.24,.39-.46,.51-.46,.29,0,1.21,.65,1.22,1.01,0,.2-.21,.33-.44,.44,0,.38,0,1.06,.01,1.29,.01,.54-.2,.67-.65,.68-.34,0-.46-.22-.5-.47-1.02,.03-1.52,.04-2.54,.07-.01,.22,0,.93,.02,1.15,.03,.3,.08,.32,2.27,.26,2.14-.06,2.39-.28,2.56-.49,.16-.2,.31-.63,.39-.89,.14-.41,.56-.37,.58,.06,.03,.99,.29,.98,.3,1.35,.01,.5-.81,.85-3.82,.94-3.01,.08-3.3,.08-3.34-1.03-.01-.41-.07-1.68-.1-2.07-.03-.3,.02-.41,.19-.42,.16,0,.62,.2,.97,.44,1.01-.03,1.51-.04,2.52-.07,0-.34,0-.73-.01-1.06-1.1,.03-1.66,.05-2.76,.08-.23,0-.4-.06-.41-.35-.74,.74-1.65,1.38-2.79,1.92-.62,.27-.84-.26-.27-.6,1.41-.82,2.41-1.8,3.07-2.95-1.18,.04-1.77,.06-2.95,.1-.24,0-.4-.06-.41-.34,0-.27,.15-.36,.39-.37,1.33-.05,2-.07,3.33-.11,.17-.38,.3-.76,.4-1.18-1.3,.04-1.95,.06-3.25,.1-.24,0-.4-.06-.41-.34,0-.27,.15-.36,.39-.37,1.37-.05,2.06-.07,3.43-.11,.14-.76,.2-1.59,.24-2.44,0-.17,.06-.31,.32-.31,.6-.02,1.69,.18,1.71,.54,.01,.22-.65,.31-.81,.49s-.13,1.17-.24,1.69c1.27-.04,1.91-.05,3.18-.08,.3-.44,.62-.87,.83-.88,.29,0,1.32,.88,1.33,1.21,.01,.24-.25,.35-.75,.36-1.24,.03-1.86,.04-3.1,.07,.16,.43,.35,.8,.56,1.15,.61-.02,.91-.02,1.52-.04,.28-.4,.62-.82,.82-.82,.29,0,1.35,.84,1.37,1.17,.01,.23-.21,.33-.81,.34-.93,.02-1.4,.03-2.33,.05Zm-6.46-4.22c-.18-.32,.03-.65,.46-.46,.68,.28,1.4,.69,1.32,1.32-.05,.41-.37,.68-.82,.63-.38-.04-.45-.43-.61-.79-.08-.23-.23-.48-.35-.71Zm5.07,3.54c-.14-.37-.27-.75-.36-1.15-.41,.01-.61,.02-1.02,.03-.12,.41-.25,.79-.4,1.18,.71-.02,1.06-.03,1.77-.05Zm.21-2.41c.35-.56,.63-1.13,.81-1.83,.03-.14,.14-.24,.32-.19,.53,.17,1.31,.6,1.3,.86-.01,.21-.21,.29-.7,.27-.35,.46-.75,.93-1.26,1.23-.39,.23-.64,.02-.46-.35Z"/><path class="q" d="M106.1,72.9c.29-.36,.66-.75,.85-.75,.35,0,1.45,1.03,1.46,1.43,0,.21-.38,.43-.89,.5-.54,1-1.3,2.12-2.33,3.21-.01,.93,0,2.97,0,3.42,0,.63,.05,3.65,.04,4.1,0,.39-.26,.57-.8,.58-.32,0-.49-.16-.49-.48,0-1.08,.04-4.06,0-6.41-.88,.78-1.9,1.5-3.12,2.18-.47,.27-.76-.21-.35-.55,1.3-.93,2.45-1.96,3.4-3.04,0-.36-.03-.67-.06-.93-.01-.12,.11-.25,.25-.23,.15,.02,.38,.09,.62,.19,.61-.81,1.1-1.65,1.47-2.5-1.98,0-2.98,.02-4.96,.04-.24,0-.4-.07-.4-.35,0-.27,.16-.36,.4-.36,1.16-.01,1.75-.02,2.91-.03,.01-1.11,.02-2.69-.08-3.44-.02-.18,.09-.27,.25-.27,.31,0,1.86,.13,1.87,.54,0,.29-.29,.41-.73,.5,0,1.06,0,1.59,.01,2.65,.26,0,.39,0,.65,0Zm.73,6.07c-.22-.34-.49-.72-.74-1.04-.26-.32-.11-.72,.38-.57,1.03,.34,1.94,.95,2.01,1.7,.04,.44-.22,.81-.67,.84-.45,.04-.63-.39-.98-.93Zm7.77,4.87c.4-.6,.93-1.3,1.21-1.3,.4,0,1.64,1.16,1.63,1.61,0,.27-.36,.42-.95,.42-3.87-.04-5.8-.04-9.67-.03-.23,0-.39-.07-.4-.36,0-.27,.16-.36,.39-.36,1.64,0,2.46,0,4.1,0,.02-1.45,.06-4.44,.07-7.3-1.26,0-1.89,0-3.15,0-.24,0-.4-.07-.4-.36,0-.27,.16-.36,.4-.36,1.26,0,1.89,0,3.15,0-.01-2.67-.04-5.12-.15-5.94-.02-.16,.09-.25,.26-.25,.31,0,2.26,.06,2.26,.53,0,.39-.4,.54-.97,.66,0,2.01-.01,3.01-.02,5.01,.56,0,.84,0,1.39,0,.4-.59,.92-1.28,1.21-1.28,.38,0,1.66,1.14,1.65,1.59,0,.27-.38,.43-.96,.42-1.32-.01-1.98-.02-3.29-.02l-.03,7.3c.9,0,1.35,0,2.26,.01Z"/><path class="q" d="M134.77,81.75c.4-.54,.92-1.17,1.19-1.16,.36,.01,1.61,1.14,1.6,1.57,0,.25-.3,.4-1,.37-1.68-.06-2.52-.09-4.2-.14-.04,1.12-.05,1.67-.09,2.79-.01,.38-.29,.55-.79,.53-.38-.01-.51-.21-.5-.52,.01-.47,.1-1.59,.13-2.56v-.29c-1.29-.04-1.94-.06-3.24-.09-.78,1.82-2.78,2.76-5.68,3.17-.56,.08-.67-.55-.17-.67,2.37-.55,3.84-1.3,4.48-2.54-2-.05-3.01-.07-5.01-.1-.23,0-.39-.08-.39-.36,0-.27,.17-.36,.4-.35,2.11,.04,3.16,.06,5.27,.11,.08-.28,.12-.59,.13-.93,.01-.41,0-.74-.01-1-.01-.2,.21-.26,.39-.26,.41,.01,1.69,.26,1.68,.62,0,.25-.25,.39-.72,.48-.01,.41-.06,.77-.14,1.12,1.21,.03,1.81,.05,3.02,.08,0-.64,.01-1.34-.05-1.86-.02-.17,.06-.25,.22-.24,.72,.02,1.87,.13,1.86,.54,0,.29-.27,.44-.74,.5-.01,.44-.02,.67-.03,1.11,.96,.03,1.43,.05,2.39,.08Zm-6.72-6.49c.28-.28,.58-.56,.76-.55,.27,0,1.17,.86,1.16,1.27,0,.2-.26,.31-.72,.39-1.73,2.84-4.22,4.06-7.25,4.53-.52,.15-.7-.39-.22-.59,1.54-.37,2.9-.88,4.06-1.78-.07,.02-.15,.02-.23,.01-.35-.02-.47-.39-.63-.75-.11-.23-.26-.47-.4-.72-.04-.05-.07-.13-.07-.18-.74,.72-1.6,1.42-2.59,1.97-.46,.26-.76-.16-.37-.51,1.65-1.37,2.89-2.76,3.62-4.35-1.32-.03-1.98-.04-3.31-.06-.24,0-.4-.08-.39-.36,0-.27,.17-.36,.41-.35,5.24,.09,7.85,.16,13.09,.34,.34-.47,.8-.99,1.04-.98,.33,.01,1.49,1.02,1.48,1.42,0,.25-.25,.37-.92,.34-1.89-.07-2.83-.1-4.72-.16,.25,.1,.47,.21,.46,.37,0,.21-.23,.32-.68,.37-.03,.48-.05,1.16-.07,1.75,1.17-.47,2.46-1.09,3.51-1.89,.11-.08,.24-.17,.44-.04,.55,.4,1.16,1.06,1,1.36-.14,.26-.43,.27-1.07-.02-1.27,.62-2.55,1.01-3.9,1.32,0,.08,0,.12,0,.2-.02,.54,.02,.62,2.2,.7,1.86,.06,2.47-.17,2.65-.34,.17-.16,.35-.51,.44-.75,.16-.4,.59-.34,.58,.09-.04,.93,.24,.89,.22,1.26-.02,.47-.86,.86-3.93,.75-3.01-.1-3.35-.26-3.31-1.66,.02-.56,.12-2.29,.06-3.37,0-.07,0-.13,0-.16-1.37-.04-2.05-.06-3.41-.09,.02,.04,.04,.07,.03,.11,0,.2-.1,.32-.65,.41-.13,.21-.28,.42-.45,.65,.84,.02,1.26,.03,2.1,.05Zm-6.05-3.75c-.24,0-.4-.08-.39-.36,0-.27,.17-.36,.41-.35,1.93,.03,2.9,.05,4.83,.1,0-.43-.05-.92-.08-1.24-.02-.17,.1-.25,.26-.24,.73,.02,1.86,.12,1.85,.53,0,.29-.27,.42-.72,.48,0,.2,0,.3-.01,.5,1.23,.03,1.85,.05,3.08,.08,0-.43-.03-.9-.06-1.24-.01-.18,.08-.25,.25-.24,.73,.02,1.9,.13,1.88,.54,0,.29-.27,.44-.75,.5,0,.19,0,.29-.02,.48,1.04,.03,1.55,.05,2.59,.09,.4-.52,.92-1.13,1.19-1.12,.35,.01,1.62,1.12,1.6,1.55,0,.25-.31,.38-1.02,.36-1.76-.06-2.63-.1-4.39-.15-.01,.4-.02,.6-.03,1-.01,.38-.31,.51-.82,.49-.29,0-.5-.18-.5-.48,0-.25,.04-.61,.05-1.06-1.24-.04-1.86-.05-3.1-.09-.01,.42-.02,.62-.03,1.04,0,.38-.29,.51-.79,.5-.29,0-.51-.17-.5-.48,0-.25,.03-.61,.04-1.09-1.94-.05-2.91-.07-4.85-.1Zm3.39,4.4c-.19,.23-.39,.44-.59,.67,.05,0,.11,.02,.16,.04,.7,.25,1.41,.65,1.38,1.28,0,.09-.02,.16-.04,.23,.61-.58,1.19-1.28,1.68-2.16-1.04-.03-1.55-.04-2.59-.06Z"/><path class="q" d="M150.83,81.72c1.09,2.09,3.44,3.08,6.42,3.59,.59,.11,.5,.48,.05,.6-.46,.12-.72,.29-.89,.5-.29,.3-.42,.44-.91,.26-2.68-.78-4.62-2.27-5.48-4.99-.11,0-.16,0-.27-.02-1.01,2.29-3.6,4.03-7.7,4.44-.61,.06-.71-.53-.08-.68,3.4-.74,5.42-1.92,6.43-3.83-2.4-.13-3.59-.19-5.99-.29-.23-.01-.39-.09-.38-.38,.01-.27,.18-.35,.41-.34,2.51,.11,3.76,.18,6.26,.31,.21-.54,.33-1.15,.4-1.79-1.72-.09-2.59-.14-4.31-.22-.23-.01-.39-.09-.38-.38,.01-.27,.18-.35,.41-.34,1.74,.08,2.61,.13,4.35,.22,.03-.54,.06-1.16,.1-1.79-1.88-.1-2.81-.15-4.69-.24-.24-.01-.39-.09-.38-.38,.01-.27,.18-.35,.42-.34,1.87,.09,2.81,.14,4.68,.24,.02-.68,.01-1.33-.01-1.79-.01-.2,.11-.26,.27-.25,.38,.02,1.9,.27,1.86,.66-.02,.22-.31,.32-.73,.39-.02,.43-.04,.64-.06,1.07,1.08,.06,1.62,.09,2.7,.16,.37-.48,.86-1.01,1.1-.99,.34,.02,1.49,1.09,1.47,1.49-.01,.25-.31,.36-.96,.32-1.74-.11-2.62-.16-4.36-.26-.03,.61-.09,1.25-.14,1.79,1.03,.06,1.55,.09,2.58,.15,.37-.48,.84-1.03,1.09-1.01,.34,.02,1.49,1.1,1.47,1.51-.02,.25-.31,.36-.94,.32-1.71-.11-2.56-.16-4.28-.25-.09,.68-.2,1.24-.35,1.79,1.87,.1,2.81,.16,4.68,.27,.45-.56,1.02-1.23,1.3-1.21,.38,.02,1.68,1.22,1.64,1.69-.02,.25-.33,.41-1.07,.36-2.29-.15-3.44-.22-5.73-.35Zm-6.04-8.71c0,.18,0,.34-.02,.5-.17,1.3-.99,2.17-1.96,2.15-.41-.01-.71-.32-.71-.75,0-.75,.95-.91,1.46-1.78,.31-.43,.3-1.03,.34-1.54,.04-.43,.53-.44,.66-.08,.06,.24,.12,.51,.16,.78,1.92,.09,2.87,.14,4.79,.24,.05-.64,.08-1.45,.05-1.99,0-.18,.11-.26,.27-.25,.31,.02,2.04,.17,2.01,.65-.02,.36-.41,.48-.97,.57l-.06,1.09c2.04,.11,3.06,.17,5.1,.3,.33-.32,.74-.65,.94-.64,.35,.02,1.5,1.14,1.46,1.66-.02,.36-.52,.36-1.01,.42-.54,.38-1.11,.73-1.54,.96-.4,.21-.71-.06-.46-.46,.22-.36,.47-.81,.64-1.22-4.46-.28-6.7-.4-11.17-.62Z"/><path class="q" d="M164.56,82.71c-.02,.29-.33,.35-.89,.29-.32,.87-.7,2.1-1.74,3.1-.36,.3-.76,.09-.53-.34,.68-1.28,1.01-2.58,1.19-3.95,.03-.16,.15-.28,.36-.21,.58,.19,1.64,.77,1.62,1.11Zm.4-2.38c-.65,0-1.32,0-1.95-.02-.16,.42-.38,.75-.67,.69-.37-.08-.47-.79-.4-1.73,.01-.18,.09-.21,.23-.2,.64,.06,1.26,.13,1.84,.15,1.12-1.35,2.15-3.01,2.76-4.4,.07-.14,.21-.18,.37-.1,.76,.33,1.52,.92,1.45,1.26-.05,.26-.53,.26-.93,.2-.65,.83-1.57,2.1-2.53,3.13,.78,.04,1.48,.06,2.13,.09-.07-.29-.13-.57-.19-.82-.09-.4,.23-.66,.59-.33,.76,.72,1.27,1.61,1,2.31-.16,.4-.52,.6-.92,.45-.31-.12-.35-.42-.39-.84-.24,.04-.49,.05-.77,.08v.02c-.01,.14-.17,.24-.46,.27-.08,1.08-.12,1.62-.21,2.7-.14,1.86-.21,3.16-.25,3.68-.03,.38-.28,.62-.83,.58-.34-.03-.45-.25-.42-.59,.04-.57,.19-1.83,.34-3.76,.08-1.12,.13-1.68,.21-2.8Zm-2.38-5.49c-.21-.37,.06-.72,.51-.48,.38,.2,.73,.47,1.02,.74,.78-1.18,1.31-2.42,1.74-3.73,.03-.14,.18-.22,.34-.15,.84,.33,1.7,1.02,1.62,1.36-.05,.21-.42,.2-.82,.15-.58,.91-1.48,2.08-2.32,3.07,.16,.3,.23,.6,.21,.88-.04,.45-.36,.77-.82,.73s-.57-.55-.82-1.23c-.17-.46-.44-.93-.67-1.34Zm4.29,8.62c-.02-.35-.05-.76-.13-1.12-.07-.32,.19-.54,.51-.28,.68,.59,1.26,1.47,.97,2.14-.17,.4-.55,.54-.93,.37-.36-.16-.39-.58-.42-1.11Zm4.98,3.21c-.1,.27-.59,.17-1.02-.03-.95,.42-2.41,.86-3.85,.98-.4,.06-.54-.38-.12-.57,1.42-.46,2.54-.93,3.47-1.68,.15-.11,.26-.12,.42-.02,.56,.39,1.22,1.03,1.11,1.32Zm4.75-9.21c.35-.4,.77-.83,.99-.81,.31,.03,1.32,1.03,1.29,1.4-.02,.23-.28,.31-.88,.26-3.74-.35-5.62-.51-9.37-.81-.23-.02-.39-.1-.37-.39,.02-.27,.19-.34,.43-.32,1.72,.14,2.57,.21,4.29,.36,.04-.46,.06-.69,.1-1.14-1.27-.11-1.9-.16-3.17-.27-.24-.02-.39-.1-.37-.39,.02-.27,.19-.34,.43-.32,1.27,.1,1.91,.16,3.18,.27,.04-.42,.05-.63,.09-1.05-1.56-.13-2.33-.2-3.89-.33-.24-.02-.39-.1-.37-.39,.02-.27,.19-.34,.43-.32,1.55,.13,2.33,.19,3.88,.32,.03-.54,.05-.98,.04-1.29,0-.16,.11-.24,.28-.23,.31,.03,1.8,.23,1.76,.64-.03,.29-.35,.38-.83,.45-.02,.21-.03,.32-.05,.53,.86,.08,1.29,.11,2.15,.19,.35-.42,.77-.85,.99-.83,.31,.03,1.34,1.05,1.32,1.42-.02,.23-.29,.31-.89,.26-1.45-.13-2.18-.2-3.63-.33-.04,.42-.06,.63-.09,1.05,.75,.07,1.12,.1,1.87,.17,.33-.38,.69-.76,.89-.75,.29,.03,1.27,.99,1.25,1.34-.02,.23-.27,.3-.85,.25-1.29-.12-1.94-.18-3.23-.29-.04,.46-.06,.68-.1,1.14,.98,.09,1.47,.13,2.44,.22Zm-.77,1.69c.26-.28,.56-.58,.74-.56,.32,.03,1.22,.83,1.18,1.19-.02,.21-.47,.33-.55,.43-.35,.45-.38,4.45-.43,5.08-.04,.54-.35,.65-.81,.61-.41-.04-.49-.37-.46-.65v-.05c-1.97-.18-2.96-.27-4.94-.43v.16c-.05,.39-.31,.53-.79,.49-.3-.03-.45-.2-.43-.52,.11-1.27,.54-4.99,.5-6.7,0-.14,.14-.23,.27-.19,.3,.08,1.07,.43,1.41,.76,1.73,.15,2.59,.22,4.31,.38Zm-5.08,3.1c2,.17,3,.25,5,.44,.05-.42,.07-.63,.11-1.05-2.01-.18-3.01-.27-5.02-.44-.02,.29-.04,.44-.06,.73l-.03,.32Zm4.81,2.24c.05-.43,.07-.65,.12-1.09-2-.18-2.99-.27-4.99-.44-.03,.44-.04,.65-.07,1.09,1.98,.17,2.97,.25,4.95,.43Zm.45-4.6c-1.99-.18-2.99-.27-4.98-.43-.04,.23-.09,.62-.12,1.03,2,.17,3.01,.26,5.01,.44,.04-.41,.06-.62,.09-1.03Zm1.59,7.48c.14,.41-.01,.8-.41,.95-.3,.11-.53,.02-.76-.2-.21-.21-.5-.56-.77-.83-.26-.25-.59-.59-.86-.81-.22-.18-.09-.53,.26-.5,1.42,.14,2.28,.73,2.54,1.38Z"/></g></g><g><g><path class="l" d="M285.59,100.82c-11.86,1.42-23.68,3.23-35.45,5.42,1.25-4.77,2.56-9.54,3.91-14.31-3.69-3.89-7.44-7.74-11.26-11.55,13.96-2.66,27.99-4.81,42.06-6.44,.2,8.96,.45,17.92,.73,26.87Z"/><path d="M285.59,100.82c-4.82-1.88-9.7-3.7-14.63-5.46,4.8-.7,9.6-1.33,14.41-1.9,.07,2.45,.15,4.91,.22,7.36Z"/><path class="o" d="M417.64,100.82c11.86,1.42,23.68,3.23,35.45,5.42-1.25-4.77-2.56-9.54-3.91-14.31,3.69-3.89,7.44-7.74,11.26-11.55-13.96-2.66-27.99-4.81-42.06-6.44-.2,8.96-.45,17.92-.73,26.87Z"/><path d="M417.64,100.82c4.82-1.88,9.7-3.7,14.63-5.46-4.8-.7-9.6-1.33-14.41-1.9-.07,2.45-.15,4.91-.22,7.36Z"/><path class="n" d="M432.27,95.36c-53.49-7.77-107.82-7.77-161.31,0-2.07-8.72-4.18-17.43-6.33-26.13,57.67-8.63,116.3-8.63,173.97,0-2.15,8.7-4.26,17.41-6.33,26.13Z"/></g><g><path class="q" d="M296.12,73.86c.28-.33,.63-.69,.81-.7,.29-.03,1.55,.81,1.56,1.26,.01,.31-.43,.38-.88,.52-.46,.44-.92,.89-1.29,1.17-.32,.25-.68,.06-.52-.3,.17-.39,.35-.9,.47-1.33-4.18,.39-6.27,.6-10.44,1.06,.01,.14,.03,.3,.04,.42,.01,1.15-.63,2.02-1.53,2.14-.38,.05-.7-.17-.76-.54-.1-.65,.76-.92,1.12-1.75,.23-.42,.14-.93,.12-1.38-.02-.37,.46-.45,.6-.16,.09,.18,.18,.42,.26,.66,1.79-.2,2.69-.29,4.48-.48-.03-.53-.11-1.17-.2-1.6-.03-.15,.06-.24,.22-.26,.29-.03,1.91-.15,1.95,.27,.03,.31-.32,.47-.82,.63,.03,.33,.05,.5,.08,.83,1.89-.19,2.83-.28,4.73-.46Zm-1.13,7.82c.23-.34,.51-.69,.7-.71,.35-.03,1.42,.56,1.45,.9,.02,.2-.48,.4-.55,.52-.22,.38,.23,2.53,.27,3.01,.04,.48-.22,.62-.7,.66-.38,.04-.54-.23-.56-.48-.01-.16-.02-.24-.04-.41-2.47,.24-3.7,.36-6.16,.62,.02,.22,.03,.34,.05,.56,.03,.36-.2,.56-.73,.61-.32,.03-.48-.11-.51-.4-.15-1.56-.61-7.83-1.04-9.76-.03-.11,.08-.23,.21-.24,.25-.02,1.23,.18,1.69,.45,1.77-.19,2.65-.28,4.42-.45,.23-.31,.49-.63,.66-.65,.34-.03,1.4,.56,1.43,.9,.02,.2-.47,.39-.54,.51-.19,.31,.19,2.12,.22,2.54,.04,.48-.2,.62-.67,.66-.4,.04-.55-.23-.57-.48v-.12c-2.08,.2-3.11,.31-5.18,.53,.05,.46,.07,.69,.11,1.15,.03,.27,.04,.4,.07,.67,2.38-.25,3.58-.37,5.96-.6Zm-1.01-2.37c-.06-.69-.13-1.62-.17-2.14-2.02,.2-3.03,.3-5.06,.51-.04,.01-.06,.02-.1,.03,0,.41,.07,1.3,.14,2.13,2.08-.22,3.11-.33,5.19-.53Zm1.55,5.25c-.07-.76-.13-1.73-.18-2.28-2.5,.24-3.74,.36-6.24,.63,.1,.91,.14,1.36,.24,2.27,2.47-.26,3.71-.39,6.18-.62Z"/><path class="q" d="M300.94,79.94c-.42,.23-.72-.1-.37-.42,1.89-1.62,3.19-3.33,3.9-5.21,.08-.15,.16-.22,.37-.15,.59,.11,1.72,.58,1.7,.89-.01,.27-.39,.34-.87,.3-.8,1.29-2.34,3.26-4.72,4.59Zm13.45,3.75c.07,.51-.18,.81-.69,.88-.34,.05-.57-.14-.8-.56-.21-.37-.45-.85-.77-1.28-2.07,.75-4.92,1.37-8.64,1.98-.09,.37-.27,.7-.55,.69-.37-.01-.61-.78-.7-1.66-.01-.14,.08-.19,.2-.19,.85-.01,1.74-.14,2.56-.24,.99-1.93,1.57-3.78,1.93-5.71,.02-.14,.1-.24,.29-.21,.58,.08,1.9,.52,1.92,.87,.02,.28-.36,.39-.89,.36-.51,1.32-1.13,3.02-2.32,4.59,2.27-.3,4.18-.69,5.72-1.06-.36-.42-.76-.78-1.17-1.16-.25-.22-.04-.58,.34-.46,2.18,.75,3.43,2.3,3.56,3.17Zm-5.74-11.72c.25-.36,.57-.76,.79-.78,.43-.03,1.54,.76,1.56,1.07,0,.16,.02,.3-.69,.5,.96,2.16,2.78,3.11,5.48,4,.36,.12,.32,.39-.06,.52-.25,.09-.54,.32-.68,.5-.21,.26-.34,.3-.75,.14-2.32-.84-4.22-2.96-5.04-5.36-1.8,.13-2.71,.19-4.51,.33-.22,.02-.38-.03-.4-.28-.02-.23,.13-.32,.35-.34,1.58-.12,2.37-.18,3.95-.3Z"/><path class="q" d="M329.8,72.33c.36-.53,.83-1.16,1.11-1.17,.36-.01,1.68,.92,1.69,1.33,0,.22-.3,.38-.98,.41-4.59,.15-6.88,.24-11.46,.48,.09,1.23,.11,2.35,.12,3.7,.02,2.33-.23,5.12-2.5,7.05-.38,.35-.8,.06-.51-.36,1.34-1.87,1.88-3.7,1.73-7-.06-1.32-.14-2.91-.35-4.26-.04-.24,.07-.33,.29-.31,.29,.03,1.06,.29,1.46,.55,1.59-.08,2.39-.12,3.98-.19-.01-.75-.07-1.69-.14-2.22-.02-.15,.08-.24,.23-.25,.29-.01,2.02-.04,2.03,.38,.01,.33-.36,.47-.88,.6,.02,.57,.03,.85,.06,1.42,1.64-.07,2.46-.1,4.1-.16Zm-.15,3.34c.37-.53,.85-1.16,1.12-1.17,.36-.01,1.67,.92,1.68,1.32,0,.22-.31,.39-.97,.41-1.55,.05-2.33,.08-3.88,.14,.02,.03,.02,.06,.02,.09,0,.25-.24,.37-.66,.5,.07,2.35,.11,3.53,.18,5.89,.03,.88-.62,1.22-1.24,1.24-.67,.03-.34-.54-1.71-.77-.41-.08-.35-.54,0-.53,.4,0,.99,.07,1.28,.05,.37-.02,.5-.16,.5-.52,0-1.03-.17-4.74-.3-5.87-1.73,.07-2.59,.11-4.31,.2-.22,.01-.37-.04-.39-.29-.01-.23,.14-.32,.36-.33,3.33-.17,4.99-.24,8.31-.36Z"/><path class="q" d="M340.58,77.41c-.01-.69,.59-1.26,1.33-1.27,.74-.01,1.36,.55,1.37,1.23,0,.69-.59,1.26-1.33,1.27-.74,.01-1.36-.54-1.37-1.23Z"/><path class="q" d="M366.64,75.26c-.42,.14-.55,.25-.71,.45-.25,.31-.38,.4-.8,.26-1.95-.71-4.34-2.46-5.88-4.99-1.64,2.36-4.37,4.69-7.71,6.17-.42,.17-.69-.28-.29-.52,3.08-1.88,5.44-3.98,7-6.92,.09-.16,.19-.2,.4-.17,.65,.12,1.53,.43,1.53,.7,0,.14-.12,.22-.5,.24,1.69,2.24,4.37,3.64,6.88,4.27,.54,.12,.39,.4,.07,.5Zm-3.13,7.05c.38-.51,.88-1.11,1.15-1.1,.35,0,1.57,1.03,1.56,1.42,0,.23-.29,.37-.95,.35-5.43-.14-8.15-.18-13.58-.19-.22,0-.37-.06-.37-.31,0-.23,.15-.31,.37-.31,1.13,0,1.69,0,2.82,.01,.03-1.69,.04-4.37-.07-5.33-.02-.14,.09-.22,.24-.22,.29,0,1.81,.08,1.81,.45,0,.3-.33,.4-.78,.51-.01,1.84-.02,2.75-.04,4.59,1.07,0,1.61,.02,2.68,.03,.06-2.24,.12-6.69-.02-7.93-.01-.14,.09-.22,.24-.22,.29,0,1.87,.09,1.86,.47,0,.3-.33,.4-.79,.5-.02,1.05-.02,1.58-.04,2.63,.85,.01,1.28,.02,2.13,.04,.38-.51,.87-1.1,1.14-1.09,.35,0,1.53,1.01,1.53,1.4,0,.23-.36,.37-.92,.35-1.55-.03-2.33-.05-3.88-.07-.02,1.57-.03,2.36-.06,3.93,1.59,.02,2.38,.04,3.97,.08Z"/><path class="q" d="M376.9,80.31c1.43,1.38,3.55,2.02,5.69,2.47,.52,.09,.41,.4,.07,.49-.39,.11-.55,.24-.71,.42-.25,.3-.37,.39-.8,.26-1.72-.53-3.72-1.6-5-3.52-.05,1.71-.06,2.79-.08,3.23-.01,.33-.27,.55-.83,.53-.33-.01-.44-.19-.43-.49,.02-.44,.08-1.34,.16-2.77-1.48,1.16-3.59,2.25-6.16,2.85-.49,.13-.69-.29-.24-.49,2.27-.85,4.13-1.86,5.34-3.08-2.01-.08-3.02-.12-5.03-.18-.22,0-.37-.07-.36-.33,0-.23,.16-.31,.38-.3,2.44,.08,3.67,.12,6.11,.23,.02-.5,.03-.74,.05-1.24-1.89-.08-2.83-.12-4.72-.18-.22,0-.37-.08-.36-.33,0-.23,.16-.31,.38-.3,1.89,.06,2.84,.1,4.73,.18,.02-.46,.03-.7,.04-1.16-2.29-.1-3.44-.14-5.73-.21-.22,0-.37-.07-.36-.33,0-.24,.16-.31,.38-.3,1.59,.05,2.39,.08,3.98,.14-.35-.11-.41-.51-.55-.88-.09-.26-.24-.56-.38-.83-.13-.25-.05-.47,.15-.51-1.58-.06-2.38-.09-3.96-.14-.22,0-.37-.07-.36-.32,0-.23,.16-.31,.38-.3,2.03,.06,3.04,.1,5.07,.18,.05-.95,.1-2.27,.05-2.91-.01-.16,.09-.23,.25-.23,.29,.01,1.72,.13,1.71,.51,0,.25-.3,.36-.75,.44-.03,.9-.05,1.34-.09,2.24,.69,.03,1.03,.04,1.72,.07,.06-.95,.11-2.27,.07-2.91-.01-.16,.08-.23,.23-.22,.29,.01,1.77,.15,1.76,.52-.01,.28-.32,.38-.79,.45-.04,.89-.06,1.33-.09,2.22,.42,.02,.62,.03,1.04,.05-.13-.07-.16-.23-.03-.44,.54-.7,.97-1.43,1.28-2.24,.06-.14,.16-.24,.35-.17,.56,.2,1.44,.72,1.41,1-.03,.22-.29,.28-.8,.21-.45,.51-1.03,1.15-1.76,1.57-.07,.04-.14,.07-.21,.08,.74,.04,1.11,.06,1.85,.09,.36-.44,.83-.94,1.07-.93,.32,.02,1.46,1,1.45,1.35,0,.21-.27,.33-.93,.29-1.65-.09-2.48-.13-4.13-.21,.54,.21,1.12,.6,1.12,.81,0,.23-.25,.3-.78,.26-.31,.38-.68,.77-1.13,1.09,.96,.04,1.43,.07,2.39,.12,.36-.44,.81-.93,1.05-.92,.32,.02,1.45,.97,1.43,1.33-.01,.22-.27,.33-.9,.3-1.98-.11-2.96-.15-4.94-.24,.02,.03,.03,.06,.03,.1,0,.17-.13,.25-.38,.27l-.03,.78c1.14,.05,1.71,.08,2.85,.13,.32-.41,.73-.84,.95-.83,.3,.02,1.36,.92,1.35,1.26-.01,.2-.25,.3-.86,.27-1.73-.09-2.59-.13-4.32-.21l-.05,1.24c1.7,.07,2.55,.12,4.24,.2,.34-.42,.77-.9,1.01-.89,.32,.02,1.42,.96,1.4,1.32-.01,.2-.25,.32-.89,.28-2.02-.11-3.03-.16-5.04-.25Zm-6.39-9.43c-.23-.35,0-.67,.48-.49,.93,.42,1.76,1.05,1.72,1.72-.02,.41-.34,.72-.79,.69-.43-.02-.58-.43-.82-.94-.16-.33-.37-.67-.58-.99Zm2.31,2.78c.07,.02,.12,.04,.18,.07,.79,.42,1.44,.96,1.34,1.57-.05,.31-.26,.54-.57,.59,1.21,.05,1.82,.07,3.03,.13,0-.05,.02-.09,.06-.15,.36-.58,.66-1.19,.84-1.91,0-.03,.02-.06,.04-.09-1.97-.09-2.96-.13-4.93-.21Z"/><path class="q" d="M385.57,73.01c-.22-.01-.37-.08-.36-.33,.01-.23,.17-.3,.39-.29,1.21,.07,1.81,.11,3.01,.19,0-.69,0-1.27-.02-1.63-.01-.14,.1-.21,.25-.2,.29,.02,2.01,.18,1.99,.59-.02,.34-.4,.44-.94,.52-.02,.33-.03,.49-.05,.81,.52,.03,.78,.05,1.29,.09,.37-.43,.81-.92,1.05-.9,.32,.02,1.37,1.01,1.35,1.35-.02,.23-.33,.32-.86,.28-1.15-.08-1.72-.12-2.87-.2-.04,.66-.06,.99-.1,1.64,.31,.02,.47,.03,.78,.05,.35-.42,.79-.89,1.01-.87,.32,.02,1.33,.99,1.31,1.33-.01,.22-.33,.31-.84,.27-.92-.07-1.38-.1-2.3-.16-.04,.64-.06,.96-.1,1.6,1.03-.17,1.93-.36,2.72-.53,.7-.16,.84,.34,.18,.59-1.43,.51-3.36,.97-6.26,1.39-.09,.37-.24,.69-.51,.68-.35-.02-.59-.62-.7-1.47,0-.14,.06-.18,.2-.19,1.17-.06,2.23-.16,3.17-.29,.05-.55,.09-1.19,.13-1.84-1.02-.07-1.53-.1-2.54-.16-.22-.01-.37-.08-.36-.33,.01-.23,.17-.3,.39-.29,1.02,.06,1.53,.09,2.54,.16,.02-.56,.05-1.13,.06-1.64-1.21-.08-1.82-.12-3.03-.19Zm8.02,8.4c.94,1.86,3.2,2.5,6.03,2.85,.52,.07,.47,.4,.06,.51-.43,.11-.64,.28-.81,.45-.24,.26-.35,.38-.84,.26-2.63-.56-4.44-1.73-5.19-4.13-.15-.01-.23-.02-.39-.03-.94,2.38-3.77,3.2-7.44,3.37-.54,.05-.59-.47-.09-.55,3.07-.35,5.3-1.06,6.16-2.91-2.33-.16-3.5-.24-5.83-.38-.22-.01-.37-.08-.35-.34,.01-.23,.17-.3,.39-.29,2.4,.14,3.6,.22,6,.39,.13-.43,.19-.91,.18-1.43,0-.17,.05-.25,.29-.23,.56,.04,1.76,.28,1.74,.6-.01,.2-.14,.33-.74,.45-.02,.25-.07,.48-.11,.71,1.9,.14,2.85,.21,4.76,.37,.41-.5,.93-1.06,1.2-1.03,.35,.03,1.4,1.12,1.37,1.5-.02,.23-.35,.35-.87,.3-2.2-.19-3.3-.27-5.51-.44Zm.11-8.63c-.22-.02-.37-.09-.35-.34,.02-.23,.17-.3,.4-.29,1.91,.14,2.86,.21,4.77,.37,.22-.22,.48-.42,.61-.4,.37,.03,1.31,.8,1.29,1.07-.01,.17-.54,.37-.64,.5-.4,.53-.46,3.61-.99,4.46-.41,.66-1,1.08-1.98,1-.44-.04-.52-.19-.63-.41-.1-.22-.31-.33-.53-.45-.19-.1-.29-.21-.23-.38,.04-.11,.17-.17,.35-.13,.37,.07,.64,.13,1.13,.17,.56,.04,.84-.33,.94-.49,.48-.7,.8-2.94,.82-4.29-.59-.05-.89-.07-1.48-.12-.06,.17-.28,.25-.69,.29-.17,1.39-.61,2.73-1.55,3.78-.99,1.1-2.98,1.68-3.82,1.86-.52,.11-.71-.35-.25-.54,.83-.24,2.3-.77,3.12-1.79,.78-.98,1.19-2.23,1.23-3.75-.61-.05-.91-.07-1.51-.11Z"/><path class="q" d="M404.4,82.06c-.02,.25-.33,.3-.83,.22-.34,.77-.78,1.82-1.86,2.65-.36,.25-.71,.03-.48-.33,.73-1.1,1.09-2.21,1.29-3.41,.03-.14,.14-.24,.34-.17,.56,.18,1.56,.74,1.54,1.04Zm.45-2.1c-.73,.01-1.97-.2-2.22-.05-.14,.09-.36,.65-.62,.59-.35-.07-.43-.7-.37-1.53,.01-.16,.08-.18,.22-.17,.67,.07,1.31,.13,1.92,.19,1.14-1.17,2.18-2.6,2.84-3.85,.06-.12,.2-.15,.35-.08,.71,.3,1.42,.84,1.35,1.14-.05,.24-.52,.22-.9,.15-.66,.74-1.6,1.86-2.57,2.73,.9,.05,1.69,.1,2.4,.14-.06-.27-.15-.54-.22-.78-.11-.37,.19-.63,.56-.32,.78,.6,1.41,1.42,1.17,2.08-.14,.39-.52,.59-.94,.44-.34-.12-.4-.42-.45-.82-.31,.05-.65,.08-1.01,.09,.01,.03,.01,.05,.01,.06-.01,.12-.15,.21-.43,.23-.08,.92-.12,1.39-.2,2.31-.14,1.61-.21,2.73-.24,3.17-.03,.33-.27,.54-.78,.49-.32-.03-.42-.21-.39-.51,.04-.5,.19-1.59,.33-3.26,.08-.98,.13-1.47,.21-2.45Zm-2.43-4.75c-.2-.33,.07-.63,.48-.43,.3,.15,.62,.37,.87,.58,.72-.99,1.22-2.03,1.64-3.14,.03-.12,.17-.19,.32-.13,.78,.31,1.59,.92,1.51,1.23-.05,.18-.39,.17-.76,.12-.54,.73-1.35,1.68-2.13,2.52,.23,.3,.34,.64,.31,.94-.04,.41-.36,.68-.8,.63-.43-.05-.56-.51-.79-1.11-.17-.44-.41-.84-.63-1.22Zm6.2,8.27c-.16,.41-.55,.59-1.02,.43-.42-.14-.41-.59-.48-1.04-.05-.31-.14-.67-.23-.98-.11-.37,.19-.64,.62-.33,.73,.54,1.37,1.26,1.11,1.92Zm6.83-7.24c.25-.27,.59-.53,.76-.51,.37,.04,1.35,.86,1.32,1.14-.02,.17-.55,.35-.65,.48-.68,.85-.87,6.53-1.9,8.14-.66,1.03-1.49,1.38-2.69,1.25-.37-.04-.48-.22-.63-.48-.17-.3-.35-.4-.7-.56-.23-.1-.26-.25-.22-.37,.04-.12,.16-.2,.35-.15,.43,.1,.96,.24,1.47,.3,.7,.08,1.06-.15,1.38-.64,.95-1.41,1.58-5.35,1.74-7.94-1.81-.2-2.71-.3-4.52-.49-.61,.8-1.37,1.62-2.28,2.29-.36,.25-.75-.03-.46-.38,1.55-1.81,2.58-3.7,3.09-5.45,.05-.15,.16-.2,.34-.15,.55,.17,1.68,.76,1.65,1.07-.02,.25-.36,.29-.83,.2-.27,.49-.63,1.15-1.1,1.84,1.55,.16,2.32,.25,3.86,.42Zm-4.19,4.6c-.18-.46-.42-.94-.65-1.36-.2-.35,.03-.67,.48-.44,1.11,.54,2.05,1.45,1.96,2.29-.05,.46-.39,.75-.88,.69-.48-.06-.65-.53-.9-1.18Z"/></g></g><g><path class="s" d="M95.77,11.44c-4.33,.47-5.75,1.15-5.96,4.26-.07,2.17-.2,5.01-.2,11.3v27.14h-2.57L58.07,18.75v16.92c0,6.09,.2,9.14,.34,11.1,.13,3.45,1.83,4.47,6.7,4.87v1.9h-16.45v-1.9c4.2-.34,5.82-1.35,6.09-4.67,.2-2.17,.34-5.21,.34-11.37V18.34c0-1.9-.13-2.98-1.35-4.47-1.29-1.69-2.71-2.1-6.02-2.44v-1.9h10.15l28.7,34.05V27c0-6.29-.14-9.21-.34-11.24-.2-3.05-1.76-3.99-7.17-4.33v-1.9h16.72v1.9Z"/><path class="s" d="M112.42,23.01c8.46,0,14.76,6.43,14.76,15.16,0,10.97-8.12,16.18-14.76,16.18-9.34,0-15.03-7.51-15.03-15.09,0-11.03,8.6-16.25,15.03-16.25Zm-.81,2.3c-4.13,0-7.85,3.99-7.85,11.85,0,8.6,3.79,14.82,9.34,14.82,4.2,0,7.72-3.05,7.72-12.32,0-7.92-3.25-14.35-9.21-14.35Z"/><path class="s" d="M134.22,54.48c-2.44,0-4.13-1.76-4.13-4.33,0-2.44,1.69-4.33,4.13-4.33s4.26,1.9,4.26,4.33c0,2.57-1.83,4.33-4.26,4.33Z"/><path class="s" d="M144.98,53.54v-1.9c7.51-.47,7.92-.81,7.92-5.89V19.76c0-3.45-.47-3.59-3.45-3.86l-3.32-.34v-1.69c4.47-.74,8.93-1.83,12.39-3.32V45.75c0,5.14,.41,5.42,7.99,5.89v1.9h-21.53Z"/></g><g><g><path class="s" d="M286.41,45.43c-.88,3.05-2.03,6.5-2.71,9h-25.52v-1.62c3.72-3.66,7.78-7.65,11.1-11.51,4.26-5.01,8.33-10.42,8.33-16.31s-2.98-8.87-7.92-8.87c-4.67,0-7.58,3.66-9.34,6.3l-1.56-1.42,3.86-5.48c2.1-2.37,5.35-4.06,9.27-4.06,6.43,0,11.51,4.4,11.51,11.71,0,5.75-2.1,9.81-8.53,16.38-2.91,3.05-7.18,7.17-10.09,9.95h12.93c3.66,0,4.67-.34,6.97-4.6l1.69,.54Z"/><path class="s" d="M313.76,12.26l.41,.54-1.76,4.47h-15.57c-.61,3.72-1.49,9-2.1,12.32,2.57-.95,6.29-1.96,7.99-1.96,8.33,0,12.73,5.89,12.73,11.51,0,4.06-1.69,7.99-5.82,11.37-3.72,2.98-8.39,4.74-11.98,4.74-3.18,0-5.69-1.29-7.04-2.64-.95-.88-1.22-1.42-1.08-2.3,0-.61,.54-1.62,1.42-2.3,.61-.41,1.22-.54,1.89,0,1.96,1.76,4.33,3.72,8.53,3.72,5.69,0,8.39-4.87,8.39-9.95,0-5.96-3.59-10.22-11.1-10.22-2.78,0-5.01,.61-6.77,1.22l-.2-.27c1.02-5.28,2.5-14.82,3.25-20.24h18.82Z"/><path class="s" d="M332.71,11.45c10.15,0,13.94,11.37,13.94,21.86,0,9.88-3.79,21.93-13.94,21.93s-14.15-11.17-14.15-21.86c0-9.88,3.86-21.93,14.15-21.93Zm0,2.37c-6.29,0-7.85,9.95-7.85,19.43s1.9,19.63,7.85,19.63,7.72-10.09,7.72-19.56-1.69-19.49-7.72-19.49Z"/><path class="s" d="M362.83,11.45c10.15,0,13.94,11.37,13.94,21.86,0,9.88-3.79,21.93-13.94,21.93s-14.15-11.17-14.15-21.86c0-9.88,3.86-21.93,14.15-21.93Zm0,2.37c-6.29,0-7.85,9.95-7.85,19.43s1.9,19.63,7.85,19.63,7.72-10.09,7.72-19.56-1.69-19.49-7.72-19.49Z"/></g><g><path class="t" d="M406.7,28.21c.47-.63,1.03-1.28,1.38-1.28,.66,0,2.6,1.47,2.6,2.16,0,.44-.6,.78-1.22,1.03-.25,4.73,.12,20.55,.12,22.99,0,.97-.6,1.22-1.47,1.22-.75,0-.97-.56-.97-1.07v-1.16h-20.58v1.32c0,.72-.44,1.13-1.44,1.13-.63,0-.88-.34-.88-.94,0-3.92,.41-21.4-.13-26.16-.03-.19,.16-.44,.44-.44,.38,.03,2.1,.6,2.91,1.19h19.23Zm.44,22.65c.06-5.45,.16-18.36,.09-21.4h-19.92c-.19,.06-.41,.13-.66,.16-.16,2.19-.16,9.43-.16,10.71,0,.81,.03,6.89,.06,10.53h20.58Zm-5.17-15.13c.63-.94,1.41-2,1.85-2,.63,0,2.6,1.85,2.6,2.57,0,.44-.59,.69-1.5,.69h-4.23v10.65c.03,1.53-.91,2.47-2.22,2.47-.94,0-.78-.91-2.76-1.66-.72-.28-.59-1.07,.03-1.03,.69,.06,1.57,.13,1.88,.13,.69,0,.97-.22,1.03-1,.09-1.54,.06-3.85,.06-6.05,0-.69,0-2.04-.06-3.51h-10.18c-.41,0-.69-.13-.69-.63,0-.47,.28-.63,.69-.63h10.15c-.03-1.79-.13-3.54-.22-4.39-.06-.38,.06-.56,.44-.56,1.57,0,3.16,.28,3.16,.85,0,.47-.75,.69-1.28,.78-.03,.94-.03,2.07-.03,3.32h1.28Zm-7.89,8.52c-.88-.13-.97-1-1.38-2-.28-.72-.69-1.35-1-1.94-.34-.69,.06-1.32,.97-.97,1.69,.72,3.32,1.91,3.13,3.54-.13,.91-.75,1.47-1.72,1.38Z"/><path class="t" d="M419.72,53.43c0,.69-.44,1.03-1.38,1.03-.56,0-.85-.31-.85-.88,0-2,.19-11.43,.03-15.88-1.07,1.47-2.26,2.91-3.67,4.23-.66,.66-1.41,.06-.85-.72,3.45-4.48,6.2-9.68,7.08-14.57,.06-.34,.22-.5,.56-.47,1.13,.22,3.26,1.19,3.26,1.88,0,.53-.63,.69-1.54,.6-.78,1.94-1.79,4.17-3.13,6.39,.75,.31,1.72,.81,1.72,1.25s-.53,.63-1.19,.72c-.09,1.5-.09,6.42-.09,7.42l.03,8.99Zm13.25-18.17c2.26,4.67,5.83,7.93,9.9,9.4,1,.31,.56,.75,.06,.94-.78,.34-.97,.56-1.22,.94-.38,.56-.63,.75-1.47,.38-2.94-1.66-5.92-5.39-7.86-10.15v3.29c0,1.07,.03,3.95,.06,6.8h1.94c.59-.88,1.32-1.82,1.72-1.82,.59,0,2.51,1.72,2.51,2.41,0,.44-.56,.66-1.44,.66h-4.73c.03,2.54,.06,4.76,.06,5.36,0,.72-.44,1.13-1.41,1.13-.59,0-.94-.34-.94-.94,0-.63,.06-2.98,.12-5.54h-4.6c-.41,0-.69-.13-.69-.63,0-.47,.28-.63,.69-.63h4.64c.06-2.6,.12-5.14,.12-6.17v-2.35c-2.04,4.2-5.14,8.08-9.05,10.37-.85,.53-1.44-.19-.72-.81,3.92-3.41,6.74-7.58,8.55-12.62h-6.99c-.41,0-.69-.13-.69-.63,0-.47,.28-.63,.69-.63h8.21c-.03-2.73-.12-5.58-.38-7.05-.06-.28,.12-.44,.41-.44,1.94,0,3.57,.19,3.57,.94,0,.53-.63,.85-1.6,1.03-.03,1.03-.03,3.26-.06,5.51h4.92c.69-1,1.57-2.19,2.07-2.19,.63,0,2.98,1.94,2.98,2.73,0,.44-.6,.72-1.79,.72h-7.58Z"/></g></g></g></g></g></svg>