<?xml version="1.0" encoding="UTF-8"?><svg id="_レイヤー_2" xmlns="http://www.w3.org/2000/svg" viewBox="0 0 331.64 69.48"><g id="main"><g><path d="M299.61,19.06h20.6c5.66,0,10.27,4.61,10.27,10.27v28.71c0,5.66-4.61,10.27-10.27,10.27H11.43c-5.66,0-10.27-4.61-10.27-10.27V29.33c0-5.66,4.61-10.27,10.27-10.27h21.23" fill="#fff"/><path d="M299.61,19.06h20.6c5.66,0,10.27,4.61,10.27,10.27v28.71c0,5.66-4.61,10.27-10.27,10.27H11.43c-5.66,0-10.27-4.61-10.27-10.27V29.33c0-5.66,4.61-10.27,10.27-10.27h21.23" fill="none" stroke="#005748" stroke-miterlimit="10" stroke-width="2.32"/><rect x="44.89" y="9.48" width="243.96" height="19.61" fill="#fff"/><path d="M53.44,24.16V14.49h13.16c3.7,0,5.35,1.31,5.35,3.46,0,1.88-1.77,2.78-4.96,2.78h-6.14v4.47h11.34c6.1,0,8.66-3.11,8.66-7.43,0-4.63-2.68-7.75-8.47-7.75h-18.95V3.67h-8.91v6.36h-5.61v4.47h5.61v11.48c0,12.45,12.78,12.12,12.78,12.12h22.3v-4.47s-16.3-.32-17.65-.32c-3.84,0-8.53-3.25-8.53-9.15" fill="#151414"/><path d="M96.92,38.04c8.36,0,10.27-1.96,12.89-3.52,3.43-2.08,12.98-10.63,15.83-17.61h-9.55c-.68,1.47-12.97,17.8-19.08,14.85-1.82-.88-1.94-1.78-1.94-6.6V4.36h-8.58V25.75c0,11.51,7.06,12.29,10.43,12.29" fill="#151414"/><path d="M170.15,9.25V4.78h-40.15v4.46h11.85v7.23h-11.85v4.12h11.85v5.1c0,9.94,4.79,11.47,12.95,11.47h13.75v-4.47s-6.15-.23-8.54-.23c-6.09,0-10.35-1.37-10.35-6.08v-5.8h20.49v-4.12h-20.49v-7.23h20.49Z" fill="#151414"/><path d="M194.28,25.2c0,9.47-5.69,11.81-11.93,11.81h-8.49v-4.46h7.06c3.4,0,5.33-3.08,5.33-7.61,0-3.12-.02-7.93-.02-7.93h14.94c3.74,0,4.93-1.71,4.93-3.82,0-3.3-2.76-4.21-4.93-4.21h-27.31V4.51h30.01c14.55,0,14.33,16.96,2.32,16.96h-11.89s-.02,1.96-.02,3.73" fill="#151414"/><path d="M216.8,21.35h16.02v19.1h-5.52v-1.42h-4.89v1.58h-5.6V21.35Zm31.37-2.29h-27.7V4.35h27.7v14.72Zm-25.77,14.6h4.9v-6.98h-4.9v6.98Zm20.05-24.19h-16.22v4.58h16.22v-4.58Zm-7.26,11.88h16.65v19.26h-5.53v-1.58h-5.56v1.58h-5.56V21.35Zm5.56,12.31h5.56v-6.98h-5.56v6.98Z" fill="#151414"/><path d="M276.66,16.94l-2.45-2.09c1.07-1.03,2.53-2.41,2.53-5.92V4.07c5.05-.04,10.1-.16,15.03-1.26l2.17,4.22c-3.55,.75-10.03,.99-12,.95v1.22h12.35v3.91h-4.7v3.83h1.23v17.24h-7.46c2.29,.79,6.2,1.66,11.21,1.62l-2.41,5.05c-5.09-.39-10.5-2.05-13.5-3.71l2.92-2.96h-12.67l2.76,2.92c-4.22,1.97-7.77,3.04-12.94,3.67l-2.41-5.09c4.93-.04,8.48-.79,10.38-1.5h-6.47v-14.76l-3.71-3.87c1.22-1.18,2.84-2.76,2.84-6.43V4.07c8.05-.08,11.96-.79,14.16-1.26l2.17,4.22c-1.97,.36-4.69,.79-11.2,.95v1.22h10.97v3.91h-3.71v3.83h4.89Zm-10.34,0v-3.83h-2.25c-.19,.95-.43,2.13-1.38,3.83h3.63Zm18.7,3.55h-18.94v1.5h18.94v-1.5Zm0,4.26h-18.94v1.54h18.94v-1.54Zm0,4.34h-18.94v1.58h18.94v-1.58Zm-.91-12.15v-3.83h-2.68c-.39,1.42-.75,2.53-1.66,3.83h4.34Z" fill="#151414"/><path d="M276.66,16.94l-2.45-2.09c1.07-1.03,2.53-2.41,2.53-5.92V4.07c5.05-.04,10.1-.16,15.04-1.26l2.17,4.22c-3.55,.75-10.03,.99-12,.95v1.22h12.35v3.91h-4.7v3.83h1.23v17.24h-7.46c2.29,.79,6.19,1.66,11.21,1.62l-2.41,5.05c-5.09-.39-10.49-2.05-13.49-3.71l2.92-2.96h-12.67l2.76,2.92c-4.22,1.97-7.77,3.04-12.94,3.67l-2.41-5.09c4.93-.04,8.49-.79,10.38-1.5h-6.47v-14.76l-3.71-3.87c1.22-1.18,2.84-2.76,2.84-6.43V4.07c8.05-.08,11.96-.79,14.17-1.26l2.17,4.22c-1.97,.35-4.69,.79-11.2,.95v1.22h10.97v3.91h-3.71v3.83h4.89Zm-10.34,0v-3.83h-2.25c-.2,.95-.43,2.13-1.38,3.83h3.63Zm18.7,3.55h-18.94v1.5h18.94v-1.5Zm0,4.26h-18.94v1.54h18.94v-1.54Zm0,4.34h-18.94v1.58h18.94v-1.58Zm-.91-12.15v-3.83h-2.68c-.39,1.42-.75,2.53-1.66,3.83h4.34Zm-67.32,4.42h16.02v19.1h-5.52v-1.42h-4.9v1.58h-5.6V21.36Zm31.37-2.29h-27.7V4.35h27.7v14.72Zm-25.77,14.6h4.9v-6.98h-4.9v6.98Zm20.05-24.19h-16.22v4.58h16.22v-4.58Zm-7.26,11.88h16.65v19.26h-5.53v-1.58h-5.56v1.58h-5.56V21.36Zm5.56,12.31h5.56v-6.98h-5.56v6.98Zm-46.48-8.47c0,9.47-5.69,11.81-11.93,11.81h-8.49v-4.47h7.06c3.4,0,5.33-3.08,5.33-7.61,0-3.12-.02-7.94-.02-7.94h14.94c3.74,0,4.93-1.71,4.93-3.82,0-3.3-2.76-4.22-4.93-4.22h-27.31V4.51h30.01c14.55,0,14.33,16.96,2.32,16.96h-11.89s-.02,1.96-.02,3.73Zm-24.13-15.96V4.78h-40.15v4.46h11.85v7.23h-11.85v4.12h11.85v5.1c0,9.94,4.79,11.47,12.95,11.47h13.75v-4.47s-6.15-.24-8.54-.24c-6.09,0-10.35-1.37-10.35-6.08v-5.8h20.49v-4.12h-20.49v-7.23h20.49Zm-73.23,28.79c8.36,0,10.27-1.96,12.89-3.52,3.43-2.08,12.98-10.63,15.83-17.61h-9.55c-.68,1.47-12.97,17.8-19.08,14.85-1.82-.88-1.94-1.78-1.94-6.6V4.36h-8.58V25.75c0,11.51,7.06,12.29,10.43,12.29Zm-43.48-13.87V14.49h13.16c3.7,0,5.35,1.31,5.35,3.46,0,1.88-1.77,2.78-4.96,2.78h-6.14v4.47h11.34c6.1,0,8.66-3.11,8.66-7.43,0-4.63-2.68-7.75-8.47-7.75h-18.95V3.67h-8.91v6.36h-5.61v4.47h5.61v11.48c0,12.45,12.78,12.12,12.78,12.12h22.3v-4.47s-16.3-.32-17.65-.32c-3.84,0-8.53-3.25-8.53-9.15Z" fill="none" stroke="#fff" stroke-linecap="round" stroke-linejoin="round" stroke-width="5.62"/><path d="M53.44,24.16V14.49h13.16c3.7,0,5.35,1.31,5.35,3.46,0,1.88-1.77,2.78-4.96,2.78h-6.14v4.47h11.34c6.1,0,8.66-3.11,8.66-7.43,0-4.63-2.68-7.75-8.47-7.75h-18.95V3.67h-8.91v6.36h-5.61v4.47h5.61v11.48c0,12.45,12.78,12.12,12.78,12.12h22.3v-4.47s-16.3-.32-17.65-.32c-3.84,0-8.53-3.25-8.53-9.15" fill="#005748"/><path d="M96.92,38.04c8.36,0,10.27-1.96,12.89-3.52,3.43-2.08,12.98-10.63,15.83-17.61h-9.55c-.68,1.47-12.97,17.8-19.08,14.85-1.82-.88-1.94-1.78-1.94-6.6V4.36h-8.58V25.75c0,11.51,7.06,12.29,10.43,12.29" fill="#005748"/><path d="M170.15,9.25V4.78h-40.15v4.46h11.85v7.23h-11.85v4.12h11.85v5.1c0,9.94,4.79,11.47,12.95,11.47h13.75v-4.47s-6.15-.23-8.54-.23c-6.09,0-10.35-1.37-10.35-6.08v-5.8h20.49v-4.12h-20.49v-7.23h20.49Z" fill="#005748"/><path d="M194.28,25.2c0,9.47-5.69,11.81-11.93,11.81h-8.49v-4.46h7.06c3.4,0,5.33-3.08,5.33-7.61,0-3.12-.02-7.93-.02-7.93h14.94c3.74,0,4.93-1.71,4.93-3.82,0-3.3-2.76-4.21-4.93-4.21h-27.31V4.51h30.01c14.55,0,14.33,16.96,2.32,16.96h-11.89s-.02,1.96-.02,3.73" fill="#005748"/><path d="M216.8,21.35h16.02v19.1h-5.52v-1.42h-4.89v1.58h-5.6V21.35Zm31.37-2.29h-27.7V4.35h27.7v14.72Zm-25.77,14.6h4.9v-6.98h-4.9v6.98Zm20.05-24.19h-16.22v4.58h16.22v-4.58Zm-7.26,11.88h16.65v19.26h-5.53v-1.58h-5.56v1.58h-5.56V21.35Zm5.56,12.31h5.56v-6.98h-5.56v6.98Z" fill="#005748"/><path d="M276.66,16.94l-2.45-2.09c1.07-1.03,2.53-2.41,2.53-5.92V4.07c5.05-.04,10.1-.16,15.03-1.26l2.17,4.22c-3.55,.75-10.03,.99-12,.95v1.22h12.35v3.91h-4.7v3.83h1.23v17.24h-7.46c2.29,.79,6.2,1.66,11.21,1.62l-2.41,5.05c-5.09-.39-10.5-2.05-13.5-3.71l2.92-2.96h-12.67l2.76,2.92c-4.22,1.97-7.77,3.04-12.94,3.67l-2.41-5.09c4.93-.04,8.48-.79,10.38-1.5h-6.47v-14.76l-3.71-3.87c1.22-1.18,2.84-2.76,2.84-6.43V4.07c8.05-.08,11.96-.79,14.16-1.26l2.17,4.22c-1.97,.36-4.69,.79-11.2,.95v1.22h10.97v3.91h-3.71v3.83h4.89Zm-10.34,0v-3.83h-2.25c-.19,.95-.43,2.13-1.38,3.83h3.63Zm18.7,3.55h-18.94v1.5h18.94v-1.5Zm0,4.26h-18.94v1.54h18.94v-1.54Zm0,4.34h-18.94v1.58h18.94v-1.58Zm-.91-12.15v-3.83h-2.68c-.39,1.42-.75,2.53-1.66,3.83h4.34Z" fill="#005748"/><path d="M301.47,40.55h1.43v-3.37h2.11c1.32,0,1.63,.66,1.63,2.16,0,.4,0,.86,.23,1.21h1.53c-.31-.33-.44-1.21-.44-2.16,0-1.3-.73-1.66-1.22-1.73v-.03c.26-.08,1.35-.49,1.35-2.06,0-1.39-.92-2.21-2.7-2.21h-3.92v8.19m1.43-7.02h2.34c.73,0,1.41,.21,1.41,1.25,0,.86-.48,1.31-1.4,1.31h-2.35v-2.56" fill="#005748"/><path d="M301.47,40.55h1.43v-3.37h2.11c1.32,0,1.63,.66,1.63,2.16,0,.4,0,.86,.23,1.21h1.53c-.31-.33-.44-1.21-.44-2.16,0-1.3-.73-1.66-1.22-1.73v-.03c.26-.08,1.35-.49,1.35-2.06,0-1.39-.92-2.21-2.7-2.21h-3.92v8.19m1.43-7.02h2.34c.73,0,1.41,.21,1.41,1.25,0,.86-.48,1.31-1.4,1.31h-2.35v-2.56" fill="none" stroke="#005748" stroke-linecap="round" stroke-linejoin="round" stroke-width=".36"/><path d="M311.47,36.51c0,3.79-3.07,6.88-6.89,6.88s-6.87-3.09-6.87-6.88,3.07-6.88,6.87-6.88,6.89,3.08,6.89,6.88m-6.9-5.88c-3.25,0-5.87,2.62-5.87,5.86s2.63,5.87,5.87,5.87,5.86-2.63,5.86-5.87-2.62-5.86-5.86-5.86" fill="#005748"/><path d="M311.47,36.51c0,3.79-3.07,6.88-6.89,6.88s-6.87-3.09-6.87-6.88,3.07-6.88,6.87-6.88,6.89,3.08,6.89,6.88m-6.9-5.88c-3.25,0-5.87,2.62-5.87,5.86s2.63,5.87,5.87,5.87,5.86-2.63,5.86-5.87-2.62-5.86-5.86-5.86Z" fill="none" stroke="#005748" stroke-linecap="round" stroke-linejoin="round" stroke-width=".36"/><path d="M71.29,50.83l-.98,.09c-.62-3.14-3.64-3.36-4.24-3.36-3.11,0-4.78,2.85-4.78,6.33,0,3.82,1.67,6.42,4.93,6.42,1.64,0,3.63-.84,4.33-3.42l1,.09-.45,2.91c-.35,.13-1.8,.71-2.11,.82-.54,.2-1.66,.54-3.2,.54-4.51,0-7.31-2.89-7.31-7.23,0-3.91,2.45-7.4,7.23-7.4,1.65,0,2.33,.24,4.05,.91,.47,.18,.89,.27,1.18,.33l.34,2.98Z" fill="#005748"/><path d="M71.29,50.83l-.98,.09c-.62-3.14-3.64-3.36-4.24-3.36-3.11,0-4.78,2.85-4.78,6.33,0,3.82,1.67,6.42,4.93,6.42,1.64,0,3.63-.84,4.33-3.42l1,.09-.45,2.91c-.35,.13-1.8,.71-2.11,.82-.54,.2-1.66,.54-3.2,.54-4.51,0-7.31-2.89-7.31-7.23,0-3.91,2.45-7.4,7.23-7.4,1.65,0,2.33,.24,4.05,.91,.47,.18,.89,.27,1.18,.33l.34,2.98Z" fill="none" stroke="#005748" stroke-miterlimit="10" stroke-width=".14"/><path d="M78.72,52.97c1.26,0,1.91-.22,1.93-1.8h.96v4.56h-.96c-.02-1.54-.67-1.8-1.93-1.8h-1.49v6.07h2.54c1.64,0,2.76-.78,3.13-2.73h.95l-.55,3.67h-10.43v-.74h.67c.96,0,1.02-.49,1.02-1.15v-10.27c0-.64-.05-1.14-1.02-1.14h-.67v-.74h10.02l.47,3.31h-.94c-.27-1.56-1.06-2.34-2.6-2.34h-2.58v5.11h1.49Z" fill="#005748"/><path d="M78.72,52.97c1.26,0,1.91-.22,1.93-1.8h.96v4.56h-.96c-.02-1.54-.67-1.8-1.93-1.8h-1.49v6.07h2.54c1.64,0,2.76-.78,3.13-2.73h.95l-.55,3.67h-10.43v-.74h.67c.96,0,1.02-.49,1.02-1.15v-10.27c0-.64-.05-1.14-1.02-1.14h-.67v-.74h10.02l.47,3.31h-.94c-.27-1.56-1.06-2.34-2.6-2.34h-2.58v5.11h1.49Z" fill="none" stroke="#005748" stroke-miterlimit="10" stroke-width=".14"/><path d="M96.43,58.95c.75,1.02,1.64,1.04,2.09,1.05v.95h-3.93l-4.73-7h-.38v5.11c0,.62,.04,1.16,1.02,1.16h.56v.73h-5.94v-.73h.67c.96,0,1.02-.51,1.02-1.16v-10.25c0-.64-.04-1.16-1.02-1.16h-.67v-.73h6.71c3.62,0,4.53,2.04,4.53,3.47,0,1.18-.65,3.16-3.58,3.51l3.65,5.05Zm-5.4-5.94c2.13,0,2.51-1.62,2.51-2.58,0-1.67-.86-2.56-2.51-2.56h-1.54v5.14h1.54Z" fill="#005748"/><path d="M96.43,58.95c.75,1.02,1.64,1.04,2.09,1.05v.95h-3.93l-4.73-7h-.38v5.11c0,.62,.04,1.16,1.02,1.16h.56v.73h-5.94v-.73h.67c.96,0,1.02-.51,1.02-1.16v-10.25c0-.64-.04-1.16-1.02-1.16h-.67v-.73h6.71c3.62,0,4.53,2.04,4.53,3.47,0,1.18-.65,3.16-3.58,3.51l3.65,5.05Zm-5.4-5.94c2.13,0,2.51-1.62,2.51-2.58,0-1.67-.86-2.56-2.51-2.56h-1.54v5.14h1.54Z" fill="none" stroke="#005748" stroke-miterlimit="10" stroke-width=".14"/><path d="M105.26,52.97c1.26,0,1.91-.22,1.93-1.8h.97v4.56h-.97c-.02-1.54-.67-1.8-1.93-1.8h-1.49v6.07h2.54c1.64,0,2.76-.78,3.13-2.73h.95l-.55,3.67h-10.43v-.74h.67c.96,0,1.02-.49,1.02-1.15v-10.27c0-.64-.05-1.14-1.02-1.14h-.67v-.74h10.02l.47,3.31h-.94c-.27-1.56-1.06-2.34-2.6-2.34h-2.58v5.11h1.49Z" fill="#005748"/><path d="M105.26,52.97c1.26,0,1.91-.22,1.93-1.8h.97v4.56h-.97c-.02-1.54-.67-1.8-1.93-1.8h-1.49v6.07h2.54c1.64,0,2.76-.78,3.13-2.73h.95l-.55,3.67h-10.43v-.74h.67c.96,0,1.02-.49,1.02-1.15v-10.27c0-.64-.05-1.14-1.02-1.14h-.67v-.74h10.02l.47,3.31h-.94c-.27-1.56-1.06-2.34-2.6-2.34h-2.58v5.11h1.49Z" fill="none" stroke="#005748" stroke-miterlimit="10" stroke-width=".14"/><path d="M116.19,46.9l4.22,10.16,3.84-10.16h4.22v.75h-.65c-.44,0-.98,.05-.93,1.14l.56,10.27c.04,.73,.13,1.14,1.04,1.14h.67v.74h-5.85v-.74h.45c.62,0,1.09-.15,1.04-1.14l-.53-9.42-4.25,11.3h-.85l-4.63-11.16-.51,9.27c-.05,.91,.33,1.14,1.02,1.14h.67v.74h-4.36v-.74h.67c.87,0,.98-.46,1.02-1.14l.58-10.27c.05-1.03-.45-1.14-.93-1.14h-.67v-.75h4.18Z" fill="#005748"/><path d="M116.19,46.9l4.22,10.16,3.84-10.16h4.22v.75h-.65c-.44,0-.98,.05-.93,1.14l.56,10.27c.04,.73,.13,1.14,1.04,1.14h.67v.74h-5.85v-.74h.45c.62,0,1.09-.15,1.04-1.14l-.53-9.42-4.25,11.3h-.85l-4.63-11.16-.51,9.27c-.05,.91,.33,1.14,1.02,1.14h.67v.74h-4.36v-.74h.67c.87,0,.98-.46,1.02-1.14l.58-10.27c.05-1.03-.45-1.14-.93-1.14h-.67v-.75h4.18Z" fill="none" stroke="#005748" stroke-miterlimit="10" stroke-width=".14"/><path d="M145.19,53.92c0,4.45-3.29,7.33-7.41,7.33s-7.4-2.83-7.4-7.33,3.2-7.3,7.4-7.3,7.41,2.98,7.41,7.3m-11.99-.13c0,4.23,1.98,6.49,4.65,6.49,2.29,0,4.53-1.73,4.53-6.2,0-3.47-1.4-6.51-4.74-6.51-1.78,0-4.43,1.31-4.43,6.22" fill="#005748"/><path d="M145.19,53.92c0,4.45-3.29,7.33-7.41,7.33s-7.4-2.83-7.4-7.33,3.2-7.3,7.4-7.3,7.41,2.98,7.41,7.3Zm-11.99-.13c0,4.24,1.98,6.49,4.65,6.49,2.29,0,4.53-1.73,4.53-6.2,0-3.47-1.4-6.51-4.74-6.51-1.78,0-4.43,1.31-4.43,6.22Z" fill="none" stroke="#005748" stroke-miterlimit="10" stroke-width=".14"/><path d="M158.06,58.95c.74,1.02,1.63,1.04,2.09,1.05v.95h-3.93l-4.73-7h-.38v5.11c0,.62,.04,1.16,1.02,1.16h.57v.73h-5.94v-.73h.67c.96,0,1.02-.51,1.02-1.16v-10.25c0-.64-.04-1.16-1.02-1.16h-.67v-.73h6.71c3.62,0,4.53,2.04,4.53,3.47,0,1.18-.65,3.16-3.58,3.51l3.65,5.05Zm-5.4-5.94c2.13,0,2.51-1.62,2.51-2.58,0-1.67-.85-2.56-2.51-2.56h-1.54v5.14h1.54Z" fill="#005748"/><path d="M158.06,58.95c.74,1.02,1.63,1.04,2.09,1.05v.95h-3.93l-4.73-7h-.38v5.11c0,.62,.04,1.16,1.02,1.16h.57v.73h-5.94v-.73h.67c.96,0,1.02-.51,1.02-1.16v-10.25c0-.64-.04-1.16-1.02-1.16h-.67v-.73h6.71c3.62,0,4.53,2.04,4.53,3.47,0,1.18-.65,3.16-3.58,3.51l3.65,5.05Zm-5.4-5.94c2.13,0,2.51-1.62,2.51-2.58,0-1.67-.85-2.56-2.51-2.56h-1.54v5.14h1.54Z" fill="none" stroke="#005748" stroke-miterlimit="10" stroke-width=".14"/><path d="M166.89,52.97c1.26,0,1.91-.22,1.93-1.8h.96v4.56h-.96c-.02-1.54-.67-1.8-1.93-1.8h-1.49v6.07h2.54c1.64,0,2.76-.78,3.13-2.73h.94l-.55,3.67h-10.43v-.74h.67c.96,0,1.02-.49,1.02-1.15v-10.27c0-.64-.05-1.14-1.02-1.14h-.67v-.74h10.02l.47,3.31h-.95c-.27-1.56-1.06-2.34-2.6-2.34h-2.58v5.11h1.49Z" fill="#005748"/><path d="M166.89,52.97c1.26,0,1.91-.22,1.93-1.8h.96v4.56h-.96c-.02-1.54-.67-1.8-1.93-1.8h-1.49v6.07h2.54c1.64,0,2.76-.78,3.13-2.73h.94l-.55,3.67h-10.43v-.74h.67c.96,0,1.02-.49,1.02-1.15v-10.27c0-.64-.05-1.14-1.02-1.14h-.67v-.74h10.02l.47,3.31h-.95c-.27-1.56-1.06-2.34-2.6-2.34h-2.58v5.11h1.49Z" fill="none" stroke="#005748" stroke-miterlimit="10" stroke-width=".14"/><path d="M195.65,63.73c-.73,.24-1.46,.35-2.22,.35-2.51,0-3.36-1.18-4.71-3-.4,.07-.92,.16-1.69,.16-4,0-7.38-2.8-7.38-7.32s3.29-7.31,7.4-7.31,7.4,2.89,7.4,7.31c0,3.34-1.78,5.31-3.34,6.23,1.64,2.03,2.15,2.69,3.65,2.69,.35,0,.62-.02,.89-.05v.94Zm-4-9.67c0-4.14-1.93-6.49-4.65-6.49-2.25,0-4.53,1.67-4.53,6.22,0,1.22,.18,4.33,2.31,5.76,.16-1.05,1.14-1.82,2.49-1.82s2.31,.75,2.83,1.27c1.15-1.26,1.55-3.03,1.55-4.94m-4.56,6.2c.45,0,.78-.05,.96-.09-.56-.73-.91-1.16-1.53-1.16-.58,0-.8,.51-.8,.82,0,.11,.02,.16,.04,.24,.25,.07,.63,.2,1.33,.2" fill="#005748"/><path d="M195.65,63.73c-.73,.24-1.46,.35-2.22,.35-2.51,0-3.36-1.18-4.71-3-.4,.07-.93,.16-1.69,.16-4,0-7.38-2.8-7.38-7.32s3.29-7.31,7.4-7.31,7.4,2.89,7.4,7.31c0,3.34-1.78,5.31-3.34,6.23,1.64,2.03,2.15,2.69,3.65,2.69,.35,0,.62-.02,.89-.05v.94Zm-4-9.67c0-4.14-1.93-6.49-4.65-6.49-2.25,0-4.53,1.67-4.53,6.22,0,1.22,.18,4.33,2.31,5.76,.16-1.05,1.14-1.82,2.49-1.82s2.31,.75,2.83,1.27c1.15-1.26,1.55-3.03,1.55-4.94Zm-4.56,6.2c.45,0,.78-.05,.96-.09-.56-.73-.91-1.16-1.53-1.16-.58,0-.8,.51-.8,.82,0,.11,.02,.16,.04,.24,.25,.07,.63,.2,1.33,.2Z" fill="none" stroke="#005748" stroke-miterlimit="10" stroke-width=".14"/><path d="M202.07,46.9v.75h-.67c-1,0-1.02,.54-1.02,1.14v7.56c0,.86,0,3.82,3.58,3.82,2.84,0,4-1.49,4-3.8v-7.58c0-.63-.03-1.14-1.02-1.14h-.67v-.75h4.38v.75h-.67c-.96,0-1.02,.49-1.02,1.14v7.73c0,4.34-4.04,4.72-5.56,4.72-2.65,0-5.69-.89-5.69-4.82v-7.64c0-.63-.04-1.14-1.02-1.14h-.67v-.75h6.05Z" fill="#005748"/><path d="M202.07,46.9v.75h-.67c-1,0-1.02,.54-1.02,1.14v7.56c0,.86,0,3.82,3.58,3.82,2.84,0,4-1.49,4-3.8v-7.58c0-.63-.03-1.14-1.02-1.14h-.67v-.75h4.38v.75h-.67c-.96,0-1.02,.49-1.02,1.14v7.73c0,4.34-4.04,4.72-5.56,4.72-2.65,0-5.69-.89-5.69-4.82v-7.64c0-.63-.04-1.14-1.02-1.14h-.67v-.75h6.05Z" fill="none" stroke="#005748" stroke-miterlimit="10" stroke-width=".14"/><path d="M215.47,56.1l-1.18,3.16c-.04,.09-.09,.31-.09,.47,0,.47,.56,.47,1.36,.47v.74h-3.94v-.74c.69,0,1.29,0,1.62-.89l4.76-12.72h1.13l4.69,12.45c.4,1.07,.93,1.16,1.91,1.16v.74h-6.09v-.74c1.16,0,1.53,0,1.53-.53,0-.09-.09-.45-.14-.62l-1.09-2.96h-4.45Zm4.11-.95l-1.85-5.03-1.89,5.03h3.74Z" fill="#005748"/><path d="M215.47,56.1l-1.18,3.16c-.04,.09-.09,.31-.09,.47,0,.47,.56,.47,1.36,.47v.74h-3.94v-.74c.69,0,1.29,0,1.62-.89l4.76-12.72h1.13l4.69,12.45c.4,1.07,.93,1.16,1.91,1.16v.74h-6.09v-.74c1.16,0,1.53,0,1.53-.53,0-.09-.09-.45-.14-.62l-1.09-2.96h-4.45Zm4.11-.95l-1.85-5.03-1.89,5.03h3.74Z" fill="none" stroke="#005748" stroke-miterlimit="10" stroke-width=".14"/><path d="M233.06,60c2.45,0,3.29-1.29,3.78-2.73h.96l-.87,3.67h-10.25v-.74h.67c.97,0,1.02-.49,1.02-1.15v-10.27c0-.64-.04-1.14-1.02-1.14h-.67v-.74h6.05v.74h-.67c-1,0-1.02,.54-1.02,1.14v11.21h2.02Z" fill="#005748"/><path d="M233.06,60c2.45,0,3.29-1.29,3.78-2.73h.96l-.87,3.67h-10.25v-.74h.67c.97,0,1.02-.49,1.02-1.15v-10.27c0-.64-.04-1.14-1.02-1.14h-.67v-.74h6.05v.74h-.67c-1,0-1.02,.54-1.02,1.14v11.21h2.02Z" fill="none" stroke="#005748" stroke-miterlimit="10" stroke-width=".14"/><path d="M245.28,46.9v.75h-.82c-.96,0-1.04,.47-1.04,1.14v10.27c0,.65,.07,1.14,1.04,1.14h.82v.74h-6.38v-.74h.82c1.02,0,1.04-.56,1.04-1.14v-10.27c0-.58-.04-1.14-1.04-1.14h-.82v-.75h6.38Z" fill="#005748"/><path d="M245.28,46.9v.75h-.82c-.96,0-1.04,.47-1.04,1.14v10.27c0,.65,.07,1.14,1.04,1.14h.82v.74h-6.38v-.74h.82c1.02,0,1.04-.56,1.04-1.14v-10.27c0-.58-.04-1.14-1.04-1.14h-.82v-.75h6.38Z" fill="none" stroke="#005748" stroke-miterlimit="10" stroke-width=".14"/><path d="M258.78,46.9l.49,3.31h-.96c-.27-.86-.8-2.34-2.82-2.34h-1.09v11.2c0,.63,.04,1.14,1.02,1.14h.82v.74h-6.34v-.74h.82c.93,0,1.02-.44,1.02-1.14v-11.2h-1.09c-1.98,0-2.54,1.45-2.82,2.34h-.96l.49-3.31h11.43Z" fill="#005748"/><path d="M258.78,46.9l.49,3.31h-.96c-.27-.86-.8-2.34-2.82-2.34h-1.09v11.2c0,.63,.04,1.14,1.02,1.14h.82v.74h-6.34v-.74h.82c.93,0,1.02-.44,1.02-1.14v-11.2h-1.09c-1.98,0-2.54,1.45-2.82,2.34h-.96l.49-3.31h11.43Z" fill="none" stroke="#005748" stroke-miterlimit="10" stroke-width=".14"/><path d="M266.93,46.9v.75c-.73,0-.8,0-1.03,.04-.18,.02-.42,.11-.42,.4,0,.14,.11,.4,.16,.51l2.58,4.89,2.51-4.89c.11-.22,.2-.42,.2-.58,0-.36-.47-.36-.76-.36h-.71v-.75h4.36v.75c-.94,0-1.53,.04-2.07,1.09l-3.13,6.09v4.24c0,.6,.04,1.14,1.02,1.14h.83v.74h-6.36v-.74h.82c.96,0,1.02-.49,1.02-1.14v-4.24l-3.36-6.27c-.47-.89-1.22-.91-1.83-.91v-.75h6.18Z" fill="#005748"/><path d="M266.93,46.9v.75c-.73,0-.8,0-1.03,.04-.18,.02-.42,.11-.42,.4,0,.15,.11,.4,.16,.51l2.58,4.89,2.51-4.89c.11-.22,.2-.42,.2-.58,0-.36-.47-.36-.76-.36h-.71v-.75h4.36v.75c-.94,0-1.53,.04-2.07,1.09l-3.13,6.09v4.24c0,.6,.04,1.14,1.02,1.14h.83v.74h-6.36v-.74h.82c.96,0,1.02-.49,1.02-1.14v-4.24l-3.36-6.27c-.47-.89-1.22-.91-1.83-.91v-.75h6.18Z" fill="none" stroke="#005748" stroke-miterlimit="10" stroke-width=".14"/><path d="M301.05,54.12h-24.38m-223.5,0H28.78" fill="none" stroke="#005748" stroke-miterlimit="10" stroke-width=".56"/></g></g></svg>