<?xml version="1.0" encoding="UTF-8"?><svg id="_レイヤー_2" xmlns="http://www.w3.org/2000/svg" viewBox="0 0 227.31 32.11"><g id="main"><g id="_グループ_341"><g id="_グループ_340"><g id="_グループ_339"><path id="_パス_603" d="M224.42,27.19c-.07,.12-.17,.21-.29,.27-.24,.09-.5,.13-.76,.12h-1.34v-1.57h1.49c.22,0,.44,.04,.65,.14,.24,.12,.38,.37,.36,.63,0,.14-.04,.28-.11,.41m.33,1.74c-.22-.36-.53-.66-.9-.87h0c.89-.12,1.33-.55,1.33-1.29,0-.25-.06-.49-.19-.7-.11-.21-.3-.38-.53-.46-.31-.1-.64-.14-.96-.13h-2.09v4.72h.63v-2.08h.72c.23-.01,.45,.04,.65,.16,.31,.27,.57,.6,.76,.96l.62,.97h.79l-.82-1.28Z" fill="#70286c"/><path id="_パス_604" d="M219.07,27.91c0,2.27,1.84,4.12,4.12,4.12,2.27,0,4.12-1.84,4.12-4.12,0-2.27-1.84-4.12-4.12-4.12h0c-2.27,0-4.11,1.84-4.12,4.12m.44,0c0-2.03,1.64-3.68,3.67-3.68,2.03,0,3.68,1.64,3.68,3.67,0,2.03-1.64,3.68-3.67,3.68h0c-2.03,0-3.67-1.64-3.68-3.67" fill="#70286c"/><path id="_パス_605" d="M33.16,8.6H13.45V3.4H6.55v5.2H0v5.26H6.55v11.75c0,1.35,3.76,6.25,10.76,6.25h16.95l.41-5.8H18c-2.65,0-4.55-1.5-4.55-3.96V13.86h14.06v2.3c0,1.2-1.1,1.95-2.4,1.95h-5.45v4.65h6.05c3.86,0,7.51-2.05,7.51-7.25l-.05-6.91Z" fill="#70286c"/><path id="_パス_606" d="M54.12,31.86h-17.21V3.35h6.51V26.06h10.65c2.05,0,5.65,.14,5.65-3.8V13.89h5.86v10.82c0,2.8-1.56,7.15-8.31,7.15h-3.14Z" fill="#70286c"/><path id="_パス_607" d="M102.23,18.96v-5.2h-17.66v-5.16h17.46V3.35h-32.51v5.25h8.15v5.16h-8.15v5.2h8.15v5.45c0,2.36,1.35,7.66,7.35,7.66h17.11v-5.36h-14.65c-1.9,0-2.91-.89-2.91-3.74v-4h17.66Z" fill="#70286c"/><path id="_パス_608" d="M141.05,16.3v-5.2h-27.81V3.35h-6.45V24.06c0,5.35,3.6,8.1,7.85,8h26.11v-5.3h-22.5c-3.51,0-5-1.6-5-3.96v-6.5h27.81Z" fill="#70286c"/><path id="_パス_609" d="M142.2,5.1c-.03,2.79-2.31,5.04-5.1,5.01-2.79-.03-5.04-2.31-5.01-5.1C132.11,2.23,134.37,0,137.15,0c2.8,.01,5.07,2.3,5.05,5.1m-5.05-2c-1.12-.01-2.04,.88-2.05,2-.01,1.12,.88,2.04,2,2.05,1.12,.01,2.04-.88,2.05-2,0,0,0-.02,0-.03,0-1.11-.89-2.02-2-2.02" fill="#70286c"/><path id="_パス_610" d="M145.1,3.4h33.91v7.56c.04,2.46-.9,4.83-2.6,6.6-1.5,1.65-4.55,2.6-6.4,2.6h-9.11s-.15,2.35-.15,4.25c0,2.41-2.6,7.56-8.15,7.56h-7.46v-5.56h5.2c3.45,0,5.2-1.5,5.2-4.4v-7.07h13.36c1.7,0,4.05-1.29,3.8-6.1h-27.66l.05-5.44Z" fill="#70286c"/><rect id="_長方形_138" x="181.86" y="3.5" width="21.26" height="5.76" fill="#70286c"/><path id="_パス_611" d="M216.28,11.3h-6.71v12.21c0,1.86-.64,3.3-2.75,3.3h-24.91v5.3h24.61c2.15,0,9.75-.35,9.75-9.1V11.3Z" fill="#70286c"/></g></g></g></g></svg>