<svg xmlns="http://www.w3.org/2000/svg" width="328.034" height="338.123" viewBox="0 0 328.034 338.123">
  <g id="グループ_3113" data-name="グループ 3113" transform="translate(-85.106 -259.024)">
    <path id="パス_4022" data-name="パス 4022" d="M10.857-9.828h7.98c.168,0,.231-.042.231-.1A.227.227,0,0,0,19-10.08C18.249-10.71,18-10.9,17.2-11.466c-.525.483-.672.651-1.176,1.155H12.432A17.089,17.089,0,0,0,13.8-11.424c.126-.1.336-.273.588-.483.168.021.441.021.462.021.294,0,.462-.063.462-.21,0-.084-.1-.189-.294-.294-.924-.525-.924-.525-1.617-.924h6.657c.147,0,.21-.021.21-.1,0-.042-.021-.084-.1-.168-.8-.693-1.05-.9-1.89-1.533L17.094-13.8H14.427c.84-.735.924-.819,2.436-2.31.735-.021.9-.084.9-.252,0-.084-.042-.126-.189-.21-.378-.21-1.218-.567-1.848-.819A13.818,13.818,0,0,1,13.86-13.8H12.642v-2.9c.693-.21.819-.273.819-.441,0-.1-.063-.168-.21-.21a8.637,8.637,0,0,0-1.974-.252c.042.714.042.966.042,1.869V-13.8H9.2v-2.94c.63-.189.8-.273.8-.441,0-.231-.336-.294-2.163-.441.042.819.063,1.218.063,1.89V-13.8H3.4a8.124,8.124,0,0,1-2.226-.273l.147.861a13.459,13.459,0,0,1,2.079-.1H6.594l-.189.252a7.724,7.724,0,0,1,1.2,2.247,1.915,1.915,0,0,0,.231.5H4.557a8.05,8.05,0,0,1-2.1-.231l.147.819a16.061,16.061,0,0,1,1.953-.105H9.513V-7.9H5.754A10.043,10.043,0,0,1,3.57-8.127l.126.84a18.288,18.288,0,0,1,2.058-.126H9.513V-5.5H3.7a9.729,9.729,0,0,1-2.31-.21l.126.861A14.4,14.4,0,0,1,3.7-5.019H8.274A12.752,12.752,0,0,1,5.922-2.73,21.649,21.649,0,0,1,.714.315L.861.651A20.1,20.1,0,0,0,5.25-1.176a19.315,19.315,0,0,0,4.263-3.36v1.743c0,.777-.063,3.066-.105,4.074v.042c0,.189.042.252.252.252,1.05,0,1.2-.042,1.218-.357-.021-2.2-.021-3.528-.021-3.927V-4.788a17.087,17.087,0,0,0,3.108,2.982A17.45,17.45,0,0,0,18.606.546c.5-.9.714-1.092,1.449-1.3v-.315a15.94,15.94,0,0,1-2.226-.357,16.537,16.537,0,0,1-4.2-1.659,12.353,12.353,0,0,1-2.457-1.932H19.4c.147,0,.231-.042.231-.126a.646.646,0,0,0-.084-.189c-.777-.63-1.008-.84-1.806-1.449-.546.546-.714.714-1.239,1.281H10.857V-7.413H17.3c.147,0,.21-.042.21-.105,0-.042-.021-.084-.084-.147-.714-.609-.945-.8-1.659-1.386-.483.483-.609.651-1.071,1.155H10.857Zm2.436-3.486a10.074,10.074,0,0,1-1.407,3H8.337a1.21,1.21,0,0,0,.5-.861c0-.483-.42-.9-2.163-2.142ZM3.549-17.178a8.209,8.209,0,0,1,1.575,2.436c.21.5.315.651.5.651.294,0,.693-.672.693-1.176,0-.651-.756-1.26-2.583-2.1ZM8.19,23.159a10.243,10.243,0,0,1-2.625,2.667A15.985,15.985,0,0,1,.651,28.262L.8,28.6A16.288,16.288,0,0,0,6.846,26.12c.021.294.021.42.021.693A5.725,5.725,0,0,1,5.418,31.1a10.114,10.114,0,0,1-4.074,2.352l.126.294c3.381-.651,5.46-1.869,6.237-3.675a9.85,9.85,0,0,0,.672-3.234c.672-.189.777-.252.777-.42,0-.147-.168-.252-.609-.336a10.58,10.58,0,0,0-1.281-.252,9.518,9.518,0,0,0,2.583-2.667h1.26a8.11,8.11,0,0,0,1.848,1.932,16.918,16.918,0,0,0,6.216,3.3c.315-.924.63-1.239,1.386-1.386l.021-.273A16.227,16.227,0,0,1,14.07,24.9a12.1,12.1,0,0,1-2.478-1.743h4.137v.567c0,.21.084.294.357.294a2.86,2.86,0,0,0,.9-.126.326.326,0,0,0,.168-.294c-.042-1.407-.042-2.037-.042-3.3,0-.294,0-2.352.021-3.654.63-.294.819-.42.819-.609,0-.084-.042-.147-.168-.252-.609-.42-.777-.546-1.386-.945-.42.42-.546.546-.924.987H5.439a14.206,14.206,0,0,0-1.7-.987c.021,1.071.063,4.053.063,5.565,0,1.071-.021,1.89-.063,3.444,0,.21.1.294.4.294a3.9,3.9,0,0,0,.819-.1.237.237,0,0,0,.21-.273v-.609Zm7.539-3.927h-4.7V16.313h4.7Zm0,.5v2.94h-4.7v-2.94Zm-6.048,2.94H5.166v-2.94H9.681ZM5.166,19.232V16.313H9.681v2.919Zm7.434,6.72c.042.609.042.924.042,1.827,0,3.192,0,3.192-.042,5.5,0,.168.126.231.462.231a3.156,3.156,0,0,0,.882-.126c.105-.042.147-.105.147-.273-.042-1.911-.063-3.045-.063-4.116,0-.651,0-.714.021-2.121.483-.147.63-.231.63-.42S14.259,26.162,12.6,25.952ZM3.045,62.509a19.425,19.425,0,0,1-2.058.21c.483,1.68.651,2.079.861,2.079.189,0,.231-.147.357-.861,3.108-1.029,3.108-1.029,5.88-2.037,0,.924,0,1.47-.063,3.4v.042c0,.147.084.21.252.21A4.475,4.475,0,0,0,9.3,65.407c.126-.042.168-.1.189-.252-.084-1.743-.1-2.94-.1-4.935v-5.5H19.782c.084,0,.189-.063.189-.126s-.042-.126-.168-.231c-.567-.5-1.176-1.029-1.785-1.575-.525.63-.693.819-1.218,1.449H2.835a9.93,9.93,0,0,1-2-.126l.147.735a12.17,12.17,0,0,1,1.848-.126h.21Zm1.3-7.791H8.106v2.016H4.347Zm0,2.5H8.106V59.3H4.347Zm0,2.562H8.106v1.743c-1.3.315-1.953.441-3.759.756Zm6.741-3.171a4.967,4.967,0,0,1-1.2-.105l.147.693a6.348,6.348,0,0,1,1.05-.1h.189a11.762,11.762,0,0,0,2.478,4.41,14.578,14.578,0,0,1-3.864,3.3l.168.231a14.143,14.143,0,0,0,4.347-2.814,12.544,12.544,0,0,0,4.221,2.73,1.451,1.451,0,0,1,.5-.882,1.9,1.9,0,0,1,.924-.441v-.273a10.951,10.951,0,0,1-4.893-1.932,18.2,18.2,0,0,0,2.478-3.8c.882-.315.966-.378.966-.5,0-.063-.063-.147-.189-.273-.567-.483-.714-.63-1.26-1.071-.4.357-.525.462-.9.84Zm5.166.483a11.84,11.84,0,0,1-1.911,3.7,10.278,10.278,0,0,1-1.407-1.47,8.772,8.772,0,0,1-1.281-2.226Zm-11.025-4.6H15.2v.546c0,.168.063.21.336.21a3.133,3.133,0,0,0,.945-.084c.126-.042.147-.084.168-.273V52.87c-.042-1.029-.042-1.911-.042-4.683.672-.462.672-.462.672-.588,0-.063-.042-.126-.147-.231a10.311,10.311,0,0,0-1.26-1.029c-.357.4-.462.525-.777.924H5.334c-.651-.42-.861-.546-1.533-.924.063.9.084,1.239.084,2.646,0,1.911-.021,2.583-.084,4.1v.042c0,.168.105.21.525.21.672,0,.9-.063.9-.231v-.609Zm9.975-2.9H5.229V47.746H15.2Zm0,.483v1.932H5.229V50.077ZM11.151,80.712V79.305c.651-.231.819-.336.819-.483,0-.273-.294-.336-2.436-.567a6.892,6.892,0,0,1,.126,1.26v1.2h-6.4a15.7,15.7,0,0,1-2.142-.252l.189.882a14.833,14.833,0,0,1,2-.147H20.1c.126,0,.21-.063.21-.168a.306.306,0,0,0-.1-.168A26.866,26.866,0,0,0,18,79.116c-.567.714-.735.924-1.3,1.6ZM6.888,82.938a11.091,11.091,0,0,0-1.659-.819c.042.819.063,1.407.063,2.457s-.021,1.554-.063,2.667v.063c0,.189.084.231.546.231.63,0,.9-.105.9-.315v-.609h7.581v.714c0,.168.084.231.294.231a5.213,5.213,0,0,0,.945-.084c.168-.063.21-.1.21-.273-.042-1.7-.042-2.016-.042-2.478v-.9c.672-.441.693-.462.693-.588,0-.063-.021-.105-.147-.21-.546-.4-.735-.525-1.344-.924-.336.357-.42.483-.714.84Zm-.21.483h7.581V86.13H6.678Zm1.239,7.287c-.693-.378-.924-.483-1.659-.819.042.714.063,1.47.063,2.6L6.3,95.538c0,.189.105.273.336.273h.042c.063,0,.168-.021.315-.021.5-.021.672-.084.714-.273v-1.05h5.46v.714c.021.105.084.147.273.147.8,0,1.092-.084,1.113-.336,0-.336,0-.714-.021-1.092V91.548c.588-.441.588-.441.588-.546,0-.042-.021-.084-.105-.168a9.752,9.752,0,0,0-1.26-.924,8.444,8.444,0,0,0-.714.8Zm-.21.483h5.46v2.793H7.707Zm-3.7-2.751a11.7,11.7,0,0,0-1.827-1.008c.042,1.554.063,2.751.063,6.615,0,.609,0,.882-.063,3.4.042.147.105.189.336.189a6.926,6.926,0,0,0,.987-.084c.168-.021.21-.063.252-.189-.042-2.142-.042-2.583-.042-4.158V88.923h13.44v6.72c0,.252-.042.336-.21.357-1.218,0-1.911-.042-3.423-.126v.378a5.546,5.546,0,0,1,2.037.4,1.083,1.083,0,0,1,.651,1.008,7.533,7.533,0,0,0,1.659-.4c.63-.231.819-.441.84-.987-.021-.546-.021-.609-.042-1.554,0-.609-.021-1.239-.042-1.932v-3.4c.756-.4.777-.42.777-.567,0-.084-.042-.126-.168-.252-.567-.441-.777-.588-1.47-1.05-.294.336-.567.651-.819.924Zm-.168,32.588a21,21,0,0,0,6.048-5.754,1.919,1.919,0,0,0,1.3.609,1.909,1.909,0,0,0,.693-.147,15.947,15.947,0,0,1,2.667-.672c.126,0,.189.063.189.147a3.564,3.564,0,0,1-.336,1.071A25.841,25.841,0,0,1,8.673,124.6a23.384,23.384,0,0,1-4.641,3.759l.147.294a18.947,18.947,0,0,0,5.208-3.276,24.569,24.569,0,0,0,6.195-7.9,4.339,4.339,0,0,1,1.008-1.491c.252-.231.315-.336.315-.525,0-.462-1.2-1.554-1.7-1.554a.566.566,0,0,0-.357.126,6.428,6.428,0,0,1-1.659.567,14.779,14.779,0,0,1-2.52.42,2.29,2.29,0,0,1-.546-.084c1.113-1.638,1.134-1.659,1.134-1.911,0-.336-.315-.693-.987-1.071a3.854,3.854,0,0,0-1.722-.567.716.716,0,0,0-.4.126,3.1,3.1,0,0,0,.378.189,3.127,3.127,0,0,1,.5.378c.315.273.4.441.4.714a7.7,7.7,0,0,1-1.386,2.835,23.5,23.5,0,0,1-4.41,5.145Zm2.1,23.39c1.008,1.575,1.638,1.974,3.213,1.974a39.158,39.158,0,0,0,5.355-.546c.609-.084.8-.21.8-.462,0-.42-1.05-1.155-1.638-1.155a.882.882,0,0,0-.441.126,13.594,13.594,0,0,1-4.746,1.008,2.732,2.732,0,0,1-2.247-1.134ZM6.7,160.735c3.465-1.533,6.846-4.935,9.114-9.219.357-.693.483-.882.777-1.092a.754.754,0,0,0,.315-.525c0-.273-.252-.609-.84-1.155-.483-.42-.8-.63-.987-.63a.745.745,0,0,0-.336.126,3.929,3.929,0,0,1-1.722.483c-2.73.462-6.279.9-7.1.9a2.017,2.017,0,0,1-1.827-1.218.5.5,0,0,0-.126.357c0,.924,1.2,2.436,1.932,2.436a1.139,1.139,0,0,0,.63-.189,10.525,10.525,0,0,1,2.184-.651,36.455,36.455,0,0,1,6.111-.966,20.039,20.039,0,0,1-3.528,6.4,24.205,24.205,0,0,1-4.788,4.683ZM2.247,191.58a18.651,18.651,0,0,0,3.675-2.058A22.833,22.833,0,0,0,11,184.8a18,18,0,0,1,5,5.145,6.246,6.246,0,0,0,.5.84.662.662,0,0,0,.483.336c.357,0,.567-.42.567-1.092a2.784,2.784,0,0,0-.8-2.079c-.819-.924-2.478-2-5.439-3.549,1.638-2.142,1.638-2.142,2.646-3.654.756-1.134.756-1.134,1.2-1.428a.488.488,0,0,0,.273-.4c0-.4-1.2-1.47-1.638-1.47a.834.834,0,0,0-.483.189,5.444,5.444,0,0,1-1.974.588,33.39,33.39,0,0,1-4.41.588c-.924,0-1.365-.315-1.974-1.407a.837.837,0,0,0-.147.42,2.594,2.594,0,0,0,.441,1.26c.462.819.9,1.2,1.365,1.2a.981.981,0,0,0,.357-.063,10.964,10.964,0,0,1,1.764-.567,22.416,22.416,0,0,1,4.431-.924,14.1,14.1,0,0,1-1.428,2.709,37.343,37.343,0,0,1-4.011,5.229,30.349,30.349,0,0,1-5.649,4.6Zm8.232,32.357a12.53,12.53,0,0,0,4.1-1.3,7.236,7.236,0,0,0,4.179-6.363,6.411,6.411,0,0,0-2.016-4.935,7.979,7.979,0,0,0-5.418-1.932,10.183,10.183,0,0,0-7.224,2.94A6.563,6.563,0,0,0,2.2,216.5a4.033,4.033,0,0,0,.483,1.911,13.071,13.071,0,0,1,.924,1.974,4.123,4.123,0,0,0,.588,1.344,1.219,1.219,0,0,0,.924.441c.777,0,1.806-1.029,3.129-3.129,1.6-2.562,2.772-5.628,2.772-7.266a2.74,2.74,0,0,0-.651-1.743,4.833,4.833,0,0,1,.735-.042,6.932,6.932,0,0,1,3.633.966,5.209,5.209,0,0,1,2.373,4.641,7.47,7.47,0,0,1-1.869,5.061,9.551,9.551,0,0,1-4.914,2.919Zm-.546-13.818a2.344,2.344,0,0,1,.294,1.05c0,1.3-1.113,4.011-2.667,6.489-1.029,1.638-2.037,2.772-2.5,2.772-.231,0-.5-.231-.8-.609a4.914,4.914,0,0,1-.84-2.772C3.423,213.815,6.279,210.77,9.933,210.119ZM6.678,245.6h7.644v.987c.021.252.126.315.42.315a2.993,2.993,0,0,0,.861-.126c.147-.063.189-.147.189-.336-.021-1.449-.042-3.675-.042-5.544.567-.294.714-.42.714-.567,0-.084-.042-.168-.168-.294-.567-.483-.756-.63-1.344-1.092a10.288,10.288,0,0,0-.9.987H7.1c-.819-.462-1.071-.588-1.869-.987.042,1.05.042,1.953.042,3.738,0,1.911,0,2.352-.042,4.1.042.189.105.231.462.231.756,0,.966-.084.987-.42Zm0-5.187h7.644v4.7H6.678ZM3.423,255.223H7.77v1.3a.271.271,0,0,0,.315.252,3.54,3.54,0,0,0,.945-.126c.147-.042.189-.126.21-.315-.021-1.323-.042-5.166-.042-6.867.651-.42.651-.42.651-.567,0-.084-.042-.147-.189-.336-.462-.441-.609-.567-1.134-1.008-.42.441-.546.588-.924,1.05H3.654a13.075,13.075,0,0,0-1.68-.924q.063,1.039.063,5.481c0,1.638-.021,2.373-.084,3.549,0,.231.084.315.315.315H2.31c.084,0,.189-.021.294-.021.651-.021.8-.084.819-.357Zm0-6.132H7.77v5.649H3.423Zm8.253,7.581c.021.168.105.231.294.231h.042c.021,0,.168-.021.357-.021.525-.042.651-.1.693-.378v-1.281h4.389v1.323c.021.231.126.315.378.315a3.244,3.244,0,0,0,.924-.126c.147-.063.189-.147.21-.336-.021-.9-.042-3.7-.042-5.8V249.49c.483-.21.63-.336.63-.483,0-.105-.042-.168-.168-.294-.525-.441-.693-.588-1.281-1.071-.378.42-.483.546-.84.966H13.335c-.714-.483-.945-.63-1.659-1.05.021,1.344.042,2.016.042,3Zm1.386-7.581h4.389v5.649H13.062Zm-2.541,25.364c.063,0,.147-.063.147-.126a.159.159,0,0,0-.042-.084c-.609-.609-.8-.777-1.407-1.323-.441.441-.567.567-.987,1.05H3.948c0-.294.021-.651.021-.966v-.231a39.717,39.717,0,0,0,5.04-.987c.4.042.567.063.693.063.231,0,.357-.063.357-.189,0-.168-.4-.483-1.743-1.3a4.335,4.335,0,0,1-1.2.777,16.352,16.352,0,0,1-2.961,1.113,10.258,10.258,0,0,0-1.554-.966c.042.609.042.84.042,1.344a12.442,12.442,0,0,1-.294,3.171,6.086,6.086,0,0,1-1.575,2.856l.231.21a6.076,6.076,0,0,0,2.877-4.41H6.552c-.021,2.079-.021,2.079-.063,2.9v.042c0,.147.105.21.336.21a2.69,2.69,0,0,0,.924-.105c.063-.042.084-.105.084-.273v-.462c-.021-.588-.021-1.365-.021-2.31Zm4.515,0v.231c0,.084,0,.336-.021.63-.021,1.008-.021,1.008-.021,1.575.021.168.105.231.273.231a3.232,3.232,0,0,0,.966-.126c.063-.042.084-.084.084-.189-.021-1.26-.021-2.037-.021-2.352H20.16c.063,0,.147-.1.147-.168a.319.319,0,0,0-.084-.126c-.63-.588-.84-.756-1.512-1.3-.567.588-.567.588-1.05,1.113H12.453c.063-.294.063-.42.126-.945,0-.084.021-.189.021-.357a33.475,33.475,0,0,0,5.754-1.029,3.864,3.864,0,0,0,.861.147.236.236,0,0,0,.252-.21c0-.21-.567-.63-1.806-1.344a4.431,4.431,0,0,1-1.281.756,16.022,16.022,0,0,1-3.507,1.2,10.076,10.076,0,0,0-1.6-.966c.021.378.021.462.021.756a12.864,12.864,0,0,1-.4,3.255,4.479,4.479,0,0,1-1.974,2.457l.126.189a5.3,5.3,0,0,0,2.73-2.058,3.666,3.666,0,0,0,.567-1.365Zm-13.65,15.12a22.17,22.17,0,0,0,7.245-1.953,3.575,3.575,0,0,1,.441-.021h.189c.273,0,.441-.084.441-.189,0-.231-.441-.42-2.058-.9-1.029,1.008-3.507,2.058-6.342,2.709Zm10.731-2.583c1.407.441,1.869.588,2.268.735a21.039,21.039,0,0,1,3.024,1.407c.672.42.672.42.861.42a.41.41,0,0,0,.42-.462,1.729,1.729,0,0,0-.987-1.533,44.635,44.635,0,0,0-5.5-.861Zm-5.943-1.008h8.862v.546c.021.126.084.168.273.168a4.362,4.362,0,0,0,1.008-.105c.168-.042.21-.084.21-.273l.021-.021c-.063-1.512-.084-3.927-.084-7.245.462-.252.651-.42.651-.567,0-.063-.063-.147-.21-.252-.546-.378-.714-.483-1.26-.861-.273.357-.357.462-.609.777H6.279a16.478,16.478,0,0,0-1.617-.777,28.8,28.8,0,0,1,.105,2.961c0,2.709-.021,4.494-.105,6.2.021.168.126.231.357.231a3.746,3.746,0,0,0,1.029-.126.222.222,0,0,0,.126-.231Zm0-5.565v-1.785h8.862v1.785Zm8.862.483V282.9H6.174V280.9Zm0,2.478V285.5H6.174V283.38ZM6.51,303.725c.882.147,1.281.357,1.512.756.168.315.189.63.252,2.415.063,1.575.084,2.037.147,2.541.105.9.294,1.365.609,1.6a1.418,1.418,0,0,0,1.008.315,13.457,13.457,0,0,0-2.562,1.68,4.7,4.7,0,0,0-2.058,3.528,3.328,3.328,0,0,0,2.289,3.108,10.737,10.737,0,0,0,3.57.483,32.558,32.558,0,0,0,4.032-.273c.672-.126.9-.315.9-.693a1.194,1.194,0,0,0-1.134-1.029,2.023,2.023,0,0,0-.42.063,24.51,24.51,0,0,1-4.872.609c-2.331,0-3.528-.777-3.528-2.289A3.38,3.38,0,0,1,7.9,313.847a14.3,14.3,0,0,1,5.25-2.352,13.271,13.271,0,0,0,1.407-.441.666.666,0,0,0,.441-.63,1.024,1.024,0,0,0-1.008-.882,1.827,1.827,0,0,0-.861.252c-1.911.9-2.373,1.071-2.814,1.071-.651,0-.819-.315-.819-1.554a16.516,16.516,0,0,1,.462-4.263c.147-.378.168-.378.168-.546v-.042c0-.294-.168-.5-.588-.672a6.8,6.8,0,0,0-2.121-.4A1.113,1.113,0,0,0,6.51,303.725Z" transform="translate(204.434 277)"/>
    <path id="パス_4021" data-name="パス 4021" d="M7.707-15.309H4.893a15.1,15.1,0,0,0-1.533-.819c.042.924.084,2.415.084,3.969,0,.966-.021,1.722-.084,3.234v.063c0,.231.126.315.378.315h.273c.714-.021.819-.063.819-.315V-9.6h11.4v.378c0,.168.126.231.42.231a7.632,7.632,0,0,0,.819-.084c.1-.042.147-.084.147-.252v-.042c-.042-1.995-.042-2.2-.042-5.145.5-.252.63-.336.63-.462,0-.105-.063-.21-.252-.336-.441-.336-.588-.462-1.092-.819l-.819.819H13.209v-1.407c.525-.126.714-.231.714-.357,0-.21-.441-.315-2.079-.483a12.605,12.605,0,0,1,.105,1.68v.567H8.967v-1.386c.63-.189.756-.273.756-.4,0-.21-.63-.336-2.163-.462a10,10,0,0,1,.147,1.764Zm0,2.52H4.83v-2.037H7.707Zm0,.483v2.226H4.83v-2.226Zm1.26-.483v-2.037h2.982v2.037Zm0,.483h2.982v2.226H8.967Zm4.242-.483v-2.037h3.024v2.037Zm0,.483h3.024v2.226H13.209Zm2.079,9.429v.4c0,.21.063.231.546.231.546,0,.819-.084.819-.273v-.042c-.042-.756-.042-.987-.042-1.638V-5.439c.609-.315.693-.378.693-.525,0-.084-.063-.189-.252-.315-.483-.336-.63-.441-1.155-.8a10.264,10.264,0,0,0-.819.84H5.9a12.475,12.475,0,0,0-1.575-.84c.063.987.084,1.6.084,2.562,0,.819-.021,1.281-.084,2.268.042.273.147.315.63.315.588,0,.756-.063.777-.315v-.63h1.3L6.8-2.709A7.631,7.631,0,0,1,7.875-.315a1.217,1.217,0,0,0,.189.441H2.814A10.89,10.89,0,0,1,.693-.063L.819.756A10.547,10.547,0,0,1,2.793.609H20.37a.17.17,0,0,0,.189-.147c0-.063-.021-.1-.105-.189a22.79,22.79,0,0,0-2.037-1.68c-.63.672-.819.882-1.386,1.533H11.76a19.729,19.729,0,0,0,2.1-1.89h.483c.21,0,.336-.084.336-.189,0-.168-.441-.42-1.617-.924Zm-2.667,0a14.382,14.382,0,0,1-1.344,3H8.442a1.607,1.607,0,0,0,.567-1.155c0-.5-.693-1.155-1.974-1.848ZM5.733-5.754h9.555V-3.36H5.733Zm-4.3-1.785A7.031,7.031,0,0,1,3-7.665H19.782c.147,0,.252-.063.252-.168a.264.264,0,0,0-.084-.147c-.756-.672-.987-.861-1.806-1.533-.567.588-.714.756-1.239,1.365H3A16.162,16.162,0,0,1,1.344-8.3Zm2.037,24.23a5.7,5.7,0,0,0,.021-.609v-.756H3.129a6.836,6.836,0,0,1-.441,1.617,4.137,4.137,0,0,1-.966,1.365c-.672.525-.714.588-.714.882a2.017,2.017,0,0,0,.273.777c.168.315.315.441.5.441.231,0,.63-.336.9-.777a5.224,5.224,0,0,0,.756-2.457h14.28a8.154,8.154,0,0,1-.357,1.512l.21.168a18.844,18.844,0,0,0,1.47-1.218c.168-.021.357-.063.609-.084a4.05,4.05,0,0,0,.546-.1c.063-.042.126-.1.126-.147s-.042-.1-.168-.231c-.8-.672-1.05-.882-1.869-1.512-.4.483-.525.651-.924,1.134H11.088v-1.47c.924-.273.924-.273.924-.462,0-.252-.126-.273-2.436-.525a12.314,12.314,0,0,1,.063,1.386v1.071Zm.252,3a7.834,7.834,0,0,1,1.449-.1h12.39a.136.136,0,0,0,.105-.126.264.264,0,0,0-.084-.147c-.756-.63-.987-.819-1.7-1.365-.42.5-.546.651-.945,1.155H5.145A8.364,8.364,0,0,1,3.57,18.9Zm2.709,1.6a8.256,8.256,0,0,0-1.533-.819c.042.756.042,1.239.042,2.52,0,.987,0,1.407-.042,2.289.042.189.126.21.567.21.609,0,.777-.063.84-.273v-.546h8.463v.546c0,.147.063.21.21.21h.042c.252-.021.42-.021.483-.021H15.6c.441,0,.525-.042.567-.273-.042-.609-.042-.8-.042-1.617V22.151c.4-.21.672-.42.672-.5,0-.063-.021-.084-.168-.252a11.737,11.737,0,0,0-1.281-.924,6.625,6.625,0,0,0-.588.819Zm-.126.483h8.463v2.415H6.3ZM4.662,26.351a11.433,11.433,0,0,0-1.743-.9C2.982,26.435,3,28.2,3,30.53c0,1.26-.021,1.722-.084,2.9.021.189.105.252.315.252,1.155-.084,1.155-.084,1.239-.315v-.924H16.632v1.05a.261.261,0,0,0,.294.231,5.023,5.023,0,0,0,.987-.1.4.4,0,0,0,.189-.273c-.042-1.533-.042-1.533-.063-6.069.714-.483.777-.525.777-.672,0-.063-.042-.147-.168-.252-.63-.4-.84-.5-1.512-.9-.336.4-.42.525-.714.9ZM16.632,29.1H11.088V26.834h5.544Zm0,.483v2.373H11.088V29.585Zm-12.159,0H9.744v2.373H4.473Zm0-.483V26.834H9.744V29.1ZM2.436,50.959a4.287,4.287,0,0,0,1.533,1.533,3.4,3.4,0,0,0,1.848.441,6.228,6.228,0,0,0,.987-.084,27.875,27.875,0,0,1-2.625,4.935,9.42,9.42,0,0,1-1.008,1.26.891.891,0,0,0-.231.756c0,.84.294,1.491.651,1.491.252,0,.441-.189.756-.756.189-.357,1.806-3.885,2.436-5.334.567-1.26.924-2.121,1.113-2.541,3.339-.777,4.641-1.3,4.641-1.848,0-.357-.609-.63-1.428-.63a.516.516,0,0,0-.441.168A5.474,5.474,0,0,1,8.337,51.5c.756-1.554,1.2-2.415,1.281-2.583a.9.9,0,0,0,.21-.546c0-.294-.273-.525-.987-.882a4.41,4.41,0,0,0-1.68-.483.893.893,0,0,0-.5.147c1.008.5,1.344.924,1.344,1.617a8.69,8.69,0,0,1-.756,2.982,9.191,9.191,0,0,1-1.911.252,3.368,3.368,0,0,1-2.646-1.218Zm11.3,1.344a5.852,5.852,0,0,1,2.709,1.449c-.777.168-.819.189-1.134.273a3.926,3.926,0,0,0-1.995.987c-.567.63-.735,1.281-.735,3,0,.252,0,.42.063,2.079a6.793,6.793,0,0,0-1.26-.105c-2.331,0-3.927,1.029-3.927,2.5,0,1.323,1.3,2.226,3.192,2.226a3.876,3.876,0,0,0,2.73-.9,2.356,2.356,0,0,0,.588-1.785v-.4a7.635,7.635,0,0,1,2.541,1.848c.441.483.525.546.735.546.252,0,.42-.294.42-.714a2,2,0,0,0-.84-1.659,9.468,9.468,0,0,0-2.982-1.365,30.014,30.014,0,0,1-.42-3.612c0-1.449.525-1.911,2.205-1.911a3.3,3.3,0,0,1,2.058.441.793.793,0,0,0,.483.168.548.548,0,0,0,.546-.609c0-.483-.5-1.113-1.323-1.638A7.42,7.42,0,0,0,13.8,51.967Zm-1.071,9.429c0,1.323-.882,2.016-2.583,2.016-1.3,0-2.1-.462-2.1-1.239,0-.987,1.092-1.6,2.877-1.6a5.866,5.866,0,0,1,1.806.252Zm-.84,21.983a8.083,8.083,0,0,1-1.6-.21l.168.861A8.424,8.424,0,0,1,11.76,84.2h.924l-.063,1.68c-.021.777-.084,1.512-.189,2.373A24.135,24.135,0,0,0,10.521,86.7l-.231.21c1.008,1.155,1.491,1.722,1.995,2.394a12.572,12.572,0,0,1-4.62,8.022l.189.252a11.2,11.2,0,0,0,5.46-6.8,9.868,9.868,0,0,1,.861,1.575c.273.651.336.735.567.735.315,0,.651-.609.651-1.218a1.473,1.473,0,0,0-.126-.672,5.252,5.252,0,0,0-1.281-1.554c-.084-.063-.189-.168-.336-.294a23.549,23.549,0,0,0,.4-4.263c.021-.189.021-.483.042-.882h2.436l-.273,9.366c-.021.9-.021.9-.084,2.478-.021,1.071.357,1.281,2.163,1.281a3.9,3.9,0,0,0,1.974-.273.735.735,0,0,0,.378-.609.533.533,0,0,0-.357-.546c-.315-.1-.357-.189-.357-.5a.357.357,0,0,0-.021-.147l.231-4.389-.336-.021a37.215,37.215,0,0,1-1.071,4.914.442.442,0,0,1-.462.336c-.609,0-.714-.042-.714-.357v-.1l.315-10.941c.714-.462.777-.525.777-.693,0-.084-.063-.147-.21-.273-.5-.4-.672-.525-1.218-.945-.357.4-.462.525-.8.945H14.091c.042-1.47.063-2.835.063-4.116.609-.189.84-.315.84-.483,0-.252-.126-.273-2.373-.525a31.638,31.638,0,0,1,.1,3.276c0,.735,0,1.239-.021,1.848ZM4.956,89.469v2.919H2.835A5.937,5.937,0,0,1,1.3,92.262L1.407,93a4.9,4.9,0,0,1,1.428-.126H4.956v.8c0,.987,0,1.218-.084,3.759,0,.189.063.231.315.231.231,0,.735-.021.84-.042.168-.042.231-.084.231-.273-.063-1.113-.063-1.113-.063-3.78v-.693h4.011c.1,0,.189-.063.189-.126a.864.864,0,0,0-.063-.168c-.651-.609-.882-.8-1.617-1.386-.441.5-.588.672-1.008,1.2H6.195V89.469h4.263a.118.118,0,0,0,.126-.105.231.231,0,0,0-.063-.126,16.428,16.428,0,0,0-1.512-1.449c-.42.5-.546.651-.966,1.2H6.552A17.709,17.709,0,0,0,8.421,86.8a6.731,6.731,0,0,0,.777-.126.155.155,0,0,0,.1-.126q0-.095-.189-.189c-.336-.168-1.092-.5-1.68-.735a15.348,15.348,0,0,1-1.239,3.36H2.31a5.5,5.5,0,0,1-1.533-.147l.126.777a5.149,5.149,0,0,1,1.407-.147Zm-.084-7.875H3.024a4.674,4.674,0,0,1-1.407-.147L1.7,82.2a6.016,6.016,0,0,1,1.323-.126H4.872V85H2.331a7.009,7.009,0,0,1-1.722-.147l.105.756a4.956,4.956,0,0,1,1.617-.126h8.253c.084,0,.168-.042.168-.105a.6.6,0,0,0-.084-.168c-.714-.651-.924-.84-1.659-1.449-.651.693-.651.693-1.176,1.239H6.216V82.077h3.927c.126,0,.189-.042.189-.105a.267.267,0,0,0-.084-.147c-.672-.609-.882-.8-1.6-1.386-.483.483-.63.651-1.092,1.155H6.216V79.62c.735-.231.882-.294.882-.462,0-.189-.273-.294-1.281-.441-.231-.021-.567-.084-1.029-.147.063.9.084,1.323.084,1.827ZM2.562,85.71a6.445,6.445,0,0,1,.8,2.394c.063.483.168.672.4.672A1.262,1.262,0,0,0,4.7,87.684c0-.315-.231-.609-1.029-1.344a7.845,7.845,0,0,0-.945-.756ZM14.49,117.857v9.513c0,.231-.063.273-.357.294-1.743-.042-2.373-.084-3.99-.189v.357l1.407.21a5.16,5.16,0,0,1,1.155.252c.5.231.672.483.714,1.155a5.837,5.837,0,0,0,1.953-.588,1.1,1.1,0,0,0,.672-1.029v-.189C16,125,16,123.947,16,122.057v-4.2h4.2c.084,0,.189-.063.189-.147,0-.021-.021-.063-.084-.147a23.379,23.379,0,0,0-1.848-1.68c-.546.63-.714.819-1.26,1.491H9.387a7.661,7.661,0,0,1-2.016-.21l.168.84a13.637,13.637,0,0,1,1.848-.147ZM4.116,124.01q-.063,4.284-.126,5.1v.1c0,.147.1.189.462.189a6.973,6.973,0,0,0,.861-.084c.189-.042.231-.063.252-.231v-1.533c-.021-2.751-.021-2.751-.021-3.864V120.1c.588-.189.672-.231.672-.378,0-.189-.252-.273-1.386-.525a26.63,26.63,0,0,0,2.331-2.94.473.473,0,0,0,.147.021c.525,0,.8-.1.8-.294,0-.168-.189-.273-1.092-.63-.21-.084-.546-.231-1.008-.42A14.74,14.74,0,0,1,4.2,118.172a18.4,18.4,0,0,1-3.507,4.074l.189.273a14.475,14.475,0,0,0,3.234-2.583ZM1.344,116.6a20.251,20.251,0,0,0,5.5-4.809c.189,0,.357.021.483.021.231,0,.441-.105.441-.231a.588.588,0,0,0-.105-.21,12.111,12.111,0,0,0-1.911-.924,17.831,17.831,0,0,1-1.533,2.415,21.613,21.613,0,0,1-3.087,3.486Zm7.1-3.864a10.589,10.589,0,0,1,1.953-.147h8.4c.126,0,.252-.084.252-.168a.279.279,0,0,0-.063-.147c-.84-.735-1.092-.945-1.932-1.575-.5.588-.651.777-1.134,1.407H10.4a9.759,9.759,0,0,1-2.1-.21Zm1.113,36.578c-.021.987-.042,1.3-.105,2.247H5.523c-.273,0-1.617-.1-2.058-.168l.252.756c.966-.084,1.365-.1,1.827-.1H9.408a12.1,12.1,0,0,1-.357,2.331H3.759a20.645,20.645,0,0,1-2.205-.168l.21.8a9.428,9.428,0,0,1,2-.147H8.9a7.308,7.308,0,0,1-2.52,3.444,15.8,15.8,0,0,1-5.628,2.9l.084.273a14.522,14.522,0,0,0,7.287-3.15,6.981,6.981,0,0,0,2.247-3.234,11.692,11.692,0,0,0,2.583,3.087A12.665,12.665,0,0,0,19,161.239a1.976,1.976,0,0,1,1.344-1.638v-.231a14.227,14.227,0,0,1-6.342-1.659,9.017,9.017,0,0,1-3.234-2.856H19.4a.118.118,0,0,0,.126-.1q0-.063-.126-.189c-.882-.756-1.155-.987-2.037-1.659a15.1,15.1,0,0,0-1.344,1.47H10.584a18.279,18.279,0,0,0,.336-2.331h6.657a.186.186,0,0,0,.189-.147.159.159,0,0,0-.042-.084c-.84-.735-1.092-.945-1.911-1.617l-1.134,1.365H10.962c.063-.945.084-1.386.105-2.247h6.552a.17.17,0,0,0,.189-.147c0-.042-.021-.084-.084-.147-.8-.651-1.05-.861-1.848-1.491l-1.092,1.3h-3.7c.021-.63.021-.63.021-1.533l.189-.126c.168-.105.252-.147.252-.147.168-.105.21-.189.21-.273,0-.189,0-.189-2.268-.441a12.054,12.054,0,0,1,.084,1.491v1.029H5.418a19.7,19.7,0,0,1-2.058-.147l.21.735c1.344-.1,1.512-.1,1.869-.1Zm1.533-4.179v-1.659c.861-.441.882-.462.882-.609,0-.084-.084-.147-.294-.189a20.039,20.039,0,0,0-2.163-.294c.042.651.063.945.063,1.428v1.323H3.7c.021-.315.021-.315.021-1.092H3.36c-.378,1.7-.651,2.184-1.6,2.877-.378.273-.483.441-.483.693,0,.546.357,1.2.672,1.2.672,0,1.554-1.638,1.7-3.192H17.409a12.285,12.285,0,0,1-.945,2.163l.252.147c.882-.693,1.281-1.029,2.1-1.743.042-.021.294-.084.777-.21a3.538,3.538,0,0,0,.546-.168.214.214,0,0,0,.1-.168c0-.1-.126-.231-.315-.4-.8-.5-1.029-.672-1.827-1.2l-.966,1.092Zm3.129,35.8v-1.722h4.746c.147,0,.231-.042.231-.126a.306.306,0,0,0-.105-.168c-.651-.567-.84-.756-1.533-1.281-.4.462-.5.609-.9,1.092H14.217v-1.659h5.439c.147,0,.21-.021.21-.1,0-.063-.042-.126-.147-.231-.63-.588-.84-.756-1.533-1.323-.462.5-.609.651-1.071,1.176h-2.9v-1.26c.567-.168.819-.315.819-.483,0-.21-.609-.336-2.268-.483a10.886,10.886,0,0,1,.126,1.953v.273h-2.73a5.723,5.723,0,0,1-1.659-.189l.126.819a7.168,7.168,0,0,1,1.533-.147h2.73v1.659H10.71a5.4,5.4,0,0,1-1.785-.21l.147.861a7.706,7.706,0,0,1,1.638-.168h2.184v1.722H9.912a7.481,7.481,0,0,1-1.995-.168l.147.8a8.238,8.238,0,0,1,1.848-.147H20.37c.126,0,.21-.063.21-.126,0-.042-.021-.084-.1-.168-.714-.63-.945-.819-1.659-1.386-.5.5-.651.651-1.134,1.2ZM4.3,188.451c-.021,3.444-.021,3.444-.042,5.061.042.21.084.231.378.231.84,0,1.008-.063,1.05-.378l-.063-4.914v-4.494c.588-.147.588-.147,1.638-.42.105.42.168.63.189.8a3.038,3.038,0,0,0,.21.84.243.243,0,0,0,.189.168c.273,0,.756-.8.756-1.239,0-.63-.777-1.743-1.974-2.877l-.189.189a12.536,12.536,0,0,1,.735,1.848c-1.281.126-2.016.189-3.528.252,1.407-1.7,2.289-2.9,4.095-5.46.777-.021.987-.084.987-.252,0-.189-.4-.378-2.016-1.05A23.276,23.276,0,0,1,4.83,180.6,30.539,30.539,0,0,1,3,183.558c-.567.021-.819.021-.966.021a4.681,4.681,0,0,1-.84-.084c.273,1.155.42,1.743.42,1.743.042.147.126.231.21.231.147,0,.21-.147.315-.735,1.2-.252,1.281-.273,2.163-.462ZM1.176,177.72a10.5,10.5,0,0,1,2.016,3.234c.126.294.21.42.357.42.294,0,.609-.714.609-1.365,0-.378-.21-.609-1.2-1.407a35.7,35.7,0,0,0,2.52-3.045c.735-.084.924-.147.924-.294,0-.189-.336-.336-2.1-.9a21.25,21.25,0,0,1-1.617,4.032,8.321,8.321,0,0,0-1.3-.882ZM1.2,192.861c.987-1.764,1.2-2.331,2.163-5.859.567-.126.714-.21.714-.336,0-.189-.189-.252-1.932-.714a31.816,31.816,0,0,1-1.218,6.825Zm5.25-6.888a15.007,15.007,0,0,1,.861,3.549c.084.735.126.861.315.861.336,0,.819-.945.819-1.575a3.264,3.264,0,0,0-.735-1.659,4.758,4.758,0,0,0-1.05-1.3Zm4.242,4.179h6.174v.378a.249.249,0,0,0,.273.189,4.835,4.835,0,0,0,.882-.1.228.228,0,0,0,.189-.231c-.063-2.856-.063-3.339-.063-5.019V183.81c.525-.273.672-.378.672-.525,0-.063-.063-.147-.231-.315-.483-.357-.63-.462-1.113-.819-.378.378-.483.483-.84.861H10.9a13.262,13.262,0,0,0-1.533-.861c.063,1.176.084,2.016.084,2.877,0,1.995-.021,4.347-.084,5.691.063.168.126.21.336.21a2.319,2.319,0,0,0,.777-.126c.147-.042.189-.1.21-.273Zm6.174-5H10.689v-1.659h6.174Zm0,.483v1.7H10.689v-1.7Zm0,2.184v1.848H10.689v-1.848Zm-2.2,3.444a14.356,14.356,0,0,1,3.36,1.449,11.641,11.641,0,0,1,1.365.861.552.552,0,0,0,.294.147c.147,0,.231-.231.231-.588a1.279,1.279,0,0,0-.63-1.218c-.693-.357-1.6-.546-4.452-.945ZM6.447,193.7a16.594,16.594,0,0,0,5.859-1.848,2.225,2.225,0,0,0,.609.084c.189,0,.42-.126.42-.231,0-.063-.042-.1-.189-.168l-.756-.4c-.336-.189-.441-.231-.8-.4A5.847,5.847,0,0,1,9.933,191.9a17.883,17.883,0,0,1-3.57,1.512Zm-.105,22.466-1.113,2.94a16.645,16.645,0,0,1-.756,1.785,7.958,7.958,0,0,1-.4-2.772,11.518,11.518,0,0,1,.273-2.6,17.862,17.862,0,0,1,1.134-3.339c.42-.84.441-.924.441-1.26a2.835,2.835,0,0,0-.777-1.659c-.567-.735-.945-1.008-1.407-1.029a3.734,3.734,0,0,1,.588,1.974,9.83,9.83,0,0,1-.294,1.953,32.131,32.131,0,0,0-.735,3.969,18.923,18.923,0,0,0-.168,2.247,12.444,12.444,0,0,0,.735,4.473c.231.567.546.861.9.861a.516.516,0,0,0,.5-.357,3.067,3.067,0,0,0,.063-.9,8.258,8.258,0,0,1,.357-2.226c.588-2.436.9-3.759.945-3.948ZM9.051,210.9a3.7,3.7,0,0,0,2.856,1.176c.189,0,.42-.021.861-.042-.336.252-1.05.84-1.995,1.638l.21.21a21.447,21.447,0,0,1,2.709-1.491,12.038,12.038,0,0,1,2.982-.735c.441-.084.588-.21.588-.483s-.21-.525-.651-.777a1.6,1.6,0,0,0-.735-.294c-.147,0-.189.021-.462.168a11.151,11.151,0,0,1-4.221.945,3.287,3.287,0,0,1-1.953-.567Zm-.126,6.342a5.693,5.693,0,0,0-.252,1.659,3.488,3.488,0,0,0,1.134,2.73c.945.84,2.814,1.281,5.439,1.281a10.56,10.56,0,0,0,2.625-.231c.294-.1.462-.273.462-.525a1.616,1.616,0,0,0-1.323-1.239,1.037,1.037,0,0,0-.315.063,3.272,3.272,0,0,1-1.113.336,9.911,9.911,0,0,1-1.785.147c-3.255,0-4.578-.945-4.578-3.255a8.167,8.167,0,0,1,.063-.882ZM7.749,239.893c1.365.231,1.68.567,1.827,1.785.168,1.407.168,1.407.294,9.849-.357-.021-.63-.021-.8-.021a8.978,8.978,0,0,0-3.045.5c-1.323.5-2.037,1.3-2.037,2.31,0,1.407,1.386,2.289,3.591,2.289a6.987,6.987,0,0,0,2.142-.315,2.045,2.045,0,0,0,1.491-2.079c0-.378,0-.378-.042-1.365a11.207,11.207,0,0,1,4.725,2.667c.231.189.357.273.5.273.273,0,.42-.294.42-.8a2.046,2.046,0,0,0-1.3-1.806,13.475,13.475,0,0,0-4.431-1.533c-.126-1.365-.231-3.822-.231-5.481v-.924a1.848,1.848,0,0,0,1.407.525,8.929,8.929,0,0,0,2.919-.651c.966-.357,1.239-.525,1.239-.84,0-.189-.105-.315-.441-.5a2.675,2.675,0,0,0-.9-.273c-.126,0-.231.063-.462.231a6.888,6.888,0,0,1-3.192,1.239.689.689,0,0,1-.567-.231v-.4a10.8,10.8,0,0,1,.42-3.024c.168-.42.168-.42.168-.588,0-.42-.336-.714-1.05-.9a6.4,6.4,0,0,0-1.68-.252A1.286,1.286,0,0,0,7.749,239.893Zm2.1,12.642c0,1.428-.063,1.869-.336,2.205a3.429,3.429,0,0,1-2.625.861c-1.491,0-2.352-.483-2.352-1.323,0-1.05,1.554-1.785,3.717-1.785C8.925,252.493,9.177,252.493,9.849,252.535ZM8.379,289.68a10.645,10.645,0,0,0,4.641-3.318,10.428,10.428,0,0,0,2.289-6.867c0-3.507-1.428-5.985-3.444-5.985A3.4,3.4,0,0,0,9.3,274.749c-1.029,1.071-1.806,2.814-2.436,5.5H6.825c-.021-.378-.021-.588-.021-.777a15.1,15.1,0,0,1,1.512-6.258,1.247,1.247,0,0,0,.294-.8c0-.42-.231-.756-.819-1.176a3.259,3.259,0,0,0-1.68-.693,1.3,1.3,0,0,0-.378.1c.84.42,1.134.819,1.134,1.491a8.764,8.764,0,0,1-.231,1.533,25.171,25.171,0,0,0-.672,5.628c0,2.6.525,4.3,1.323,4.3.357,0,.546-.231.546-.63a2.957,2.957,0,0,0-.021-.441c-.063-.714-.084-.945-.084-1.3a11.815,11.815,0,0,1,.987-4.515c.756-1.722,1.722-2.625,2.772-2.625a1.72,1.72,0,0,1,1.491.924,9.917,9.917,0,0,1,.777,4.326,11.458,11.458,0,0,1-2.2,7.077,11.472,11.472,0,0,1-3.339,2.94Z" transform="translate(164.434 277)"/>
    <path id="パス_4020" data-name="パス 4020" d="M2.121-11.592A3.491,3.491,0,0,0,5.25-9.87a9.827,9.827,0,0,0,1.638-.147c-.063,2.079-.063,2.079-.1,3.024-.021.4-.021.714-.042,1.008A10.428,10.428,0,0,0,3.4-3.822a1.818,1.818,0,0,0-.63,1.176,1,1,0,0,0,.693.882,8.669,8.669,0,0,1,1.407.945C6.153.315,6.153.315,6.447.315A1.276,1.276,0,0,0,7.455-.462,2.46,2.46,0,0,0,7.728-1.7c0-.168,0-.4-.021-.8-.021-.63-.021-.63-.021-2.856a13.568,13.568,0,0,1,5.691-1.512c2.016,0,3.108.882,3.108,2.5A2.655,2.655,0,0,1,13.86-1.491a2.809,2.809,0,0,1-2-.8A6.241,6.241,0,0,1,10.6-4.116l-.315.1c.735,2.436,2.121,3.717,4.053,3.717a3.577,3.577,0,0,0,3.591-3.654c0-2.226-1.806-3.591-4.683-3.591A15.556,15.556,0,0,0,7.686-6.384c.021-1.26.063-2.184.084-2.751.042-.756.042-.756.063-1.05A14.6,14.6,0,0,0,10.9-11.214c.756-.357.945-.525.945-.819a.535.535,0,0,0-.357-.462,2.558,2.558,0,0,0-.8-.189,1,1,0,0,0-.5.21A6.018,6.018,0,0,1,7.9-11.256a7.968,7.968,0,0,1,.651-3.129c.231-.42.231-.42.231-.546a.86.86,0,0,0-.462-.672,4.907,4.907,0,0,0-2.163-.525,1.18,1.18,0,0,0-.9.294c1.449.252,1.7.693,1.7,2.9,0,.378,0,1.323-.021,1.932a9.212,9.212,0,0,1-2.1.273,3.51,3.51,0,0,1-2.5-1.071Zm4.557,6.72c0,.126-.042,1.155-.147,3.045-.021.378-.126.525-.378.525a4.392,4.392,0,0,1-1.3-.336c-.567-.21-.84-.441-.84-.651q0-.346.63-1.008A8.8,8.8,0,0,1,6.678-4.872Zm7.308-8.757a5.842,5.842,0,0,1,1.449.546,3.165,3.165,0,0,1,1.323,1.3,14.84,14.84,0,0,1-2.289,1.344l.126.21a13.562,13.562,0,0,1,2.583-.567,2.775,2.775,0,0,1,.441.042,1.226,1.226,0,0,0,.315.042.579.579,0,0,0,.63-.609,2.392,2.392,0,0,0-1.47-1.848,6.962,6.962,0,0,0-3.087-.756Zm-2.94,30.32v-1.2c.735-.21.9-.294.9-.462,0-.252-.147-.273-2.373-.567a17.627,17.627,0,0,1,.084,1.764v.462H2.835a10.017,10.017,0,0,1-1.47-.168l.105.756a7.249,7.249,0,0,1,1.344-.1H9.66v2.079h-5.1a10.782,10.782,0,0,1-1.7-.168l.126.777a8.635,8.635,0,0,1,1.575-.126H17.976c.147,0,.231-.063.231-.147a.575.575,0,0,0-.084-.147l-1.806-1.428c-.546.5-.714.672-1.26,1.239H11.046V17.174h8.673c.126,0,.231-.063.231-.147a.334.334,0,0,0-.1-.21,21.537,21.537,0,0,0-1.869-1.491c-.609.567-.8.756-1.407,1.365Zm3.906,7.77V24.8c0,.168.084.231.252.231.693,0,1.071-.1,1.071-.294v-.021c-.042-.546-.042-.8-.042-1.344V22.193c.609-.315.651-.336.651-.441,0-.063-.042-.126-.147-.231A9.87,9.87,0,0,0,15.6,20.6a7.364,7.364,0,0,0-.84.777H6.195a10.238,10.238,0,0,0-1.638-.9A14.062,14.062,0,0,1,4.62,22.13c0,1.134-.021,1.722-.084,2.919,0,.126.063.168.231.168a5.552,5.552,0,0,0,.987-.084c.126-.042.168-.084.168-.21v-.462h1.3l-.189.168a4.73,4.73,0,0,1,.693,1.6c.1.441.189.546.42.546a1.074,1.074,0,0,0,.84-.9c0-.273-.147-.441-.861-.924a7.308,7.308,0,0,0-.8-.483h5.565a9.163,9.163,0,0,1-1.176,2.331H2.331a8.239,8.239,0,0,1-1.47-.147l.105.756a7.4,7.4,0,0,1,1.386-.126h17.7c.084,0,.168-.063.168-.126a.335.335,0,0,0-.063-.168c-.756-.714-.987-.924-1.785-1.575a12.791,12.791,0,0,0-1.449,1.386H12.2a6.923,6.923,0,0,0,1.008-.777c.126-.084.294-.21.525-.4.273.042.525.063.567.063.189,0,.315-.084.315-.189,0-.147-.189-.294-.861-.693-.1-.063-.1-.084-.546-.336Zm-9.03-2.6h9.03v2.121H5.922Zm-.21,7.056a11.836,11.836,0,0,0-1.785-.9c.042.735.063,1.029.063,1.68,0,1.344-.021,1.974-.084,3.7,0,.147.084.21.273.21a6.688,6.688,0,0,0,1.071-.084c.105-.021.126-.042.147-.147v-.756H15.33v.777c.021.126.105.168.273.168a3.57,3.57,0,0,0,.987-.1c.1-.042.147-.084.168-.231-.042-.84-.042-1.281-.042-2.1v-1.26c.588-.378.651-.42.651-.567,0-.084-.084-.189-.231-.294-.483-.378-.63-.483-1.155-.84-.357.315-.462.42-.8.756ZM5.4,29.4H15.33v2.73H5.4ZM2.268,49.552a2.481,2.481,0,0,0,2.457,1.659,9.53,9.53,0,0,0,1.617-.189A13.72,13.72,0,0,0,4.2,54.592a11.2,11.2,0,0,0-.84,4.137c0,3.591,2.058,5.943,5.187,5.943a5.446,5.446,0,0,0,4.116-1.806c1.26-1.428,1.869-3.444,1.869-6.237a31.271,31.271,0,0,0-.483-5.271h.063a37.013,37.013,0,0,0,2.247,6.027c.84,1.7,1.407,2.436,1.89,2.436.294,0,.483-.336.483-.819a2.445,2.445,0,0,0-.609-1.743c-1.239-1.134-3.108-5.229-3.36-7.371-.021-.441-.063-.546-.315-.777a1.749,1.749,0,0,0-1.008-.525h-.021a.382.382,0,0,0-.4.378,2.649,2.649,0,0,0,.1.5,20.41,20.41,0,0,1,.693,5.691,11.382,11.382,0,0,1-1.05,5.292,5.141,5.141,0,0,1-4.557,2.835c-2.5,0-4.074-1.764-4.074-4.6A9.583,9.583,0,0,1,6.447,52.7a8.546,8.546,0,0,1,2.667-2.289c.609-.315.693-.378.693-.567,0-.378-.756-1.008-1.176-1.008a.5.5,0,0,0-.294.1,7.474,7.474,0,0,1-3.99,1.365c-.777,0-1.134-.21-1.785-.987Zm12.978-1.995a9.362,9.362,0,0,1,1.6,2.226c.672,1.365.672,1.365.945,1.365.357,0,.651-.378.651-.882s-.294-.987-1.05-1.68a10.71,10.71,0,0,0-1.869-1.3Zm2.2-1.218a10.756,10.756,0,0,1,2.31,3c.168.294.294.4.483.4.315,0,.525-.357.525-.861,0-.588-.273-1.008-1.092-1.617a9.487,9.487,0,0,0-2-1.2ZM5.649,80.754H8.568c.147,0,.231-.063.231-.168a.586.586,0,0,0-.1-.189c-.609-.609-.8-.8-1.407-1.344-.441.5-.588.672-1.008,1.218H2.52a5.738,5.738,0,0,1-1.386-.126l.084.735a4.623,4.623,0,0,1,1.3-.126H4.263V94.74c0,.21-.021.231-.168.231H4.011a21.432,21.432,0,0,1-2.226-.147c-.231-.021-.609-.042-1.05-.084l-.063.336c2.121.483,2.31.609,2.541,1.638a3.764,3.764,0,0,0,1.806-.525,1.223,1.223,0,0,0,.672-1.239c-.042-2.037-.042-2.247-.042-2.625V80.754Zm14.385-.441a.207.207,0,0,0,.21-.189.47.47,0,0,0-.147-.21c-.777-.63-1.029-.84-1.848-1.47-.462.567-.63.756-1.155,1.365H10.479a5.016,5.016,0,0,1-1.617-.189l.126.84a7.448,7.448,0,0,1,1.491-.147H13a14.63,14.63,0,0,1-.693,2.772H10.584c-.63-.42-.84-.525-1.491-.9.042.714.063,2.961.063,5.88,0,.441,0,.441-.126,5.082v.042c0,.168.126.252.4.252a8.152,8.152,0,0,0,.861-.063.228.228,0,0,0,.189-.231V92.7H17.01v.567c0,.168.084.21.4.21a3.491,3.491,0,0,0,.924-.105.16.16,0,0,0,.147-.168v-.063c-.1-2.016-.126-3.486-.126-6.51V83.841c.462-.21.672-.378.672-.525,0-.063-.042-.126-.231-.273-.5-.378-.672-.5-1.218-.861a9.143,9.143,0,0,0-.672.9H12.7a17.988,17.988,0,0,0,2.2-2.772ZM17.01,85.836H10.479V83.568H17.01Zm0,.483v2.6H10.479v-2.6Zm0,3.087V92.22H10.479V89.406Zm-2.5,4.368a20.751,20.751,0,0,1,4.221,3.066c.483.525.525.567.651.567.252,0,.42-.357.42-.924,0-.693-.1-.945-.441-1.176a13.234,13.234,0,0,0-3.486-1.386c-.273-.084-.693-.231-1.239-.4ZM6.132,97.281a15.025,15.025,0,0,0,5.985-2.625c.21.021.42.042.609.042.21,0,.357-.084.357-.21,0-.1-.105-.189-.315-.294a2.425,2.425,0,0,1-.315-.168c-.4-.21-.4-.21-1.134-.588a10.022,10.022,0,0,1-1.764,1.575,13.451,13.451,0,0,1-3.507,1.932ZM9.24,119.5c-.273.462-.273.462-.609,1.008-1.092,1.827-1.092,1.827-1.764,2.961-.462.777-.462.777-.693,1.113a3.049,3.049,0,0,1-1.092-1.638,8.995,8.995,0,0,1-.483-3.045,16.422,16.422,0,0,1,.378-3.129,3.58,3.58,0,0,0,.063-.546,2.532,2.532,0,0,0-.945-1.659,3.116,3.116,0,0,0-1.575-1.029H2.331c.9,1.176,1.05,1.659,1.071,3.612a23.77,23.77,0,0,0,.147,3.7,9.626,9.626,0,0,0,1.428,4.2,3.951,3.951,0,0,0,2.31,1.785.5.5,0,0,0,.462-.525,1.838,1.838,0,0,0-.042-.336,2.517,2.517,0,0,1-.126-.714c0-.84.441-2.079,1.974-5.607Zm4.683-3.4a5.8,5.8,0,0,1,2.6,2.751,7.627,7.627,0,0,1,.651,2.751c0,.4-.063.483-.483.63-.189.063-1.134.336-2.835.8l.063.315c.714-.042,1.113-.042,1.6-.042a2.8,2.8,0,0,1,1.575.252,1.014,1.014,0,0,0,.63.231c.63,0,1.05-.651,1.05-1.659a6.548,6.548,0,0,0-4.746-6.279ZM2.2,146.308a.827.827,0,0,0-.231.546,3,3,0,0,0,.546,1.407A2.318,2.318,0,0,0,4.137,149.5a1.384,1.384,0,0,0,.84-.294,23.45,23.45,0,0,1,3.36-1.344,33.863,33.863,0,0,1,6.027-1.449,10.794,10.794,0,0,0-3.423,2.394,7.824,7.824,0,0,0-2.289,5.124,5.551,5.551,0,0,0,2.436,4.7,8.673,8.673,0,0,0,4.263,1.512c.462,0,.777-.231.777-.588a1.838,1.838,0,0,0-.63-1.008,1.07,1.07,0,0,0-.882-.336,6.578,6.578,0,0,1-2.142-.5A4.259,4.259,0,0,1,9.7,153.574a7.44,7.44,0,0,1,7.056-6.951,3.083,3.083,0,0,1,.588.042,2.692,2.692,0,0,0,.378.021c.4,0,.651-.21.651-.525,0-.294-.189-.525-.609-.8a2.8,2.8,0,0,0-1.134-.441,2.646,2.646,0,0,0-.735.168,22.033,22.033,0,0,1-2.835.672c-1.386.273-2.52.525-3.4.735-4.7,1.134-5.229,1.239-5.817,1.239a1.19,1.19,0,0,1-.945-.357A2.321,2.321,0,0,1,2.2,146.308Zm-.084,34.1A3.491,3.491,0,0,0,5.25,182.13a9.828,9.828,0,0,0,1.638-.147c-.063,2.079-.063,2.079-.1,3.024-.021.4-.021.714-.042,1.008A10.429,10.429,0,0,0,3.4,188.178a1.818,1.818,0,0,0-.63,1.176,1,1,0,0,0,.693.882,8.67,8.67,0,0,1,1.407.945c1.281,1.134,1.281,1.134,1.575,1.134a1.276,1.276,0,0,0,1.008-.777,2.46,2.46,0,0,0,.273-1.239c0-.168,0-.4-.021-.8-.021-.63-.021-.63-.021-2.856a13.568,13.568,0,0,1,5.691-1.512c2.016,0,3.108.882,3.108,2.5a2.655,2.655,0,0,1-2.625,2.877,2.809,2.809,0,0,1-2-.8,6.241,6.241,0,0,1-1.26-1.827l-.315.1c.735,2.436,2.121,3.717,4.053,3.717a3.577,3.577,0,0,0,3.591-3.654c0-2.226-1.806-3.591-4.683-3.591a15.556,15.556,0,0,0-5.565,1.155c.021-1.26.063-2.184.084-2.751.042-.756.042-.756.063-1.05a14.6,14.6,0,0,0,3.066-1.029c.756-.357.945-.525.945-.819a.535.535,0,0,0-.357-.462,2.558,2.558,0,0,0-.8-.189,1,1,0,0,0-.5.21A6.018,6.018,0,0,1,7.9,180.744a7.968,7.968,0,0,1,.651-3.129c.231-.42.231-.42.231-.546a.86.86,0,0,0-.462-.672,4.907,4.907,0,0,0-2.163-.525,1.18,1.18,0,0,0-.9.294c1.449.252,1.7.693,1.7,2.9,0,.378,0,1.323-.021,1.932a9.213,9.213,0,0,1-2.1.273,3.51,3.51,0,0,1-2.5-1.071Zm4.557,6.72c0,.126-.042,1.155-.147,3.045-.021.378-.126.525-.378.525a4.392,4.392,0,0,1-1.3-.336c-.567-.21-.84-.441-.84-.651q0-.347.63-1.008A8.8,8.8,0,0,1,6.678,187.128Zm7.308-8.757a5.842,5.842,0,0,1,1.449.546,3.166,3.166,0,0,1,1.323,1.3,14.84,14.84,0,0,1-2.289,1.344l.126.21a13.563,13.563,0,0,1,2.583-.567,2.775,2.775,0,0,1,.441.042,1.226,1.226,0,0,0,.315.042.579.579,0,0,0,.63-.609,2.392,2.392,0,0,0-1.47-1.848,6.962,6.962,0,0,0-3.087-.756ZM8.379,225.68a10.645,10.645,0,0,0,4.641-3.318,10.428,10.428,0,0,0,2.289-6.867c0-3.507-1.428-5.985-3.444-5.985A3.4,3.4,0,0,0,9.3,210.749c-1.029,1.071-1.806,2.814-2.436,5.5H6.825c-.021-.378-.021-.588-.021-.777a15.1,15.1,0,0,1,1.512-6.258,1.247,1.247,0,0,0,.294-.8c0-.42-.231-.756-.819-1.176a3.259,3.259,0,0,0-1.68-.693,1.3,1.3,0,0,0-.378.105c.84.42,1.134.819,1.134,1.491a8.763,8.763,0,0,1-.231,1.533,25.171,25.171,0,0,0-.672,5.628c0,2.6.525,4.3,1.323,4.3.357,0,.546-.231.546-.63a2.958,2.958,0,0,0-.021-.441c-.063-.714-.084-.945-.084-1.3a11.815,11.815,0,0,1,.987-4.515c.756-1.722,1.722-2.625,2.772-2.625a1.72,1.72,0,0,1,1.491.924,9.917,9.917,0,0,1,.777,4.326,11.458,11.458,0,0,1-2.2,7.077,11.473,11.473,0,0,1-3.339,2.94ZM3.633,242.749c1.05,1.407,1.911,1.806,3.906,1.806.714,0,1.554-.042,2.709-.147v.252l.042,1.533v1.47a17.291,17.291,0,0,1-2.037.147,4.431,4.431,0,0,1-2.457-.462c-.315-.252-.42-.546-.441-1.2l-.315-.021c-.021.231-.042.441-.042.588a1.827,1.827,0,0,0,.945,1.6,5.747,5.747,0,0,0,2.793.462c.315,0,.714-.021,1.554-.063v1.827c0,.294,0,.441.021,1.449-.5-.021-.714-.021-1.05-.021-2.793,0-4.746,1.05-4.746,2.541,0,1.323,1.449,2.247,3.549,2.247a4.718,4.718,0,0,0,2.814-.777,2.1,2.1,0,0,0,.714-1.764c0-.252-.021-.462-.063-.924a7.521,7.521,0,0,1,2.1.882,12.029,12.029,0,0,1,1.764,1.3c.546.525.63.588.84.588.273,0,.462-.294.462-.735a1.814,1.814,0,0,0-.609-1.386,10.893,10.893,0,0,0-4.62-1.806c-.063-.525-.084-.84-.126-1.638-.021-.735-.021-1.071-.063-1.89A22.571,22.571,0,0,0,14.7,248c1.323-.357,1.617-.525,1.617-.9a.432.432,0,0,0-.252-.4,2.433,2.433,0,0,0-1.071-.315.506.506,0,0,0-.315.084,3.276,3.276,0,0,1-1.05.525,17.447,17.447,0,0,1-2.394.567c-.021-.924-.021-1.344-.021-1.911,0-.483,0-.8.021-1.344a35.592,35.592,0,0,0,4.011-.735c1.3-.315,1.638-.483,1.638-.777a.63.63,0,0,0-.357-.5,2.677,2.677,0,0,0-1.092-.357.6.6,0,0,0-.252.084,10.688,10.688,0,0,1-3.906,1.239,6.781,6.781,0,0,1,.378-2.226c.273-.588.273-.588.273-.714,0-.315-.21-.525-.714-.693a5.861,5.861,0,0,0-1.764-.273c-.588,0-.756.042-1.05.336,1.6.231,1.743.525,1.827,3.738a19.161,19.161,0,0,1-3,.252,4.306,4.306,0,0,1-3.381-1.134Zm6.636,10.269v.063c0,.168-.021.651-.042.8a1.6,1.6,0,0,1-.462,1.092,3.476,3.476,0,0,1-2.394.756c-1.428,0-2.289-.441-2.289-1.2q0-.819,1.134-1.26a6.536,6.536,0,0,1,2.289-.4A12.34,12.34,0,0,1,10.269,253.018ZM7.434,289.2a10.7,10.7,0,0,0,3.129-1.995,7.279,7.279,0,0,0,2.268-5.334,5.479,5.479,0,0,0-.672-2.793c-.021-.315-.021-.567-.021-.714,0-.777.063-2.058.147-2.856.861-.063,1.47-.084,2.247-.084a22.417,22.417,0,0,1,3.234.21,8.418,8.418,0,0,0,1.134.126c.315,0,.462-.126.462-.357a.647.647,0,0,0-.336-.567,3.709,3.709,0,0,0-1.785-.777,1.92,1.92,0,0,0-.777.231,9.5,9.5,0,0,1-2.793.378c-.819.063-.819.063-1.365.126a5.276,5.276,0,0,1,.462-2.037c.189-.357.21-.4.21-.567,0-.294-.294-.567-.8-.735a7.02,7.02,0,0,0-2.037-.294c-.567,0-.714.063-.966.378,1.071.147,1.575.441,1.806,1.029a7.03,7.03,0,0,1,.231,2.331c-2.142.231-2.9.336-5.376.735a11.21,11.21,0,0,1-1.806.189A2.439,2.439,0,0,1,2,274.749a.7.7,0,0,0-.1.252,3.125,3.125,0,0,0,.84,1.533,2.16,2.16,0,0,0,1.344.8,1.991,1.991,0,0,0,.483-.105,7.792,7.792,0,0,1,1.365-.567,28.768,28.768,0,0,1,5.292-1.05,4.026,4.026,0,0,1,.021.42c0,.672-.021,1.827-.021,2.184a2.116,2.116,0,0,0-1.176-.357c-1.554,0-2.709,1.365-2.709,3.213a2.77,2.77,0,0,0,2.583,3.024,2.4,2.4,0,0,0,1.344-.42c-.525,2.247-1.554,3.591-3.99,5.25Zm3.864-8.253c0,1.3-.441,1.974-1.344,1.974-.987,0-1.7-.966-1.7-2.289,0-1.281.735-2.268,1.68-2.268C10.857,278.361,11.3,279.2,11.3,280.944Z" transform="translate(84.434 277)"/>
    <path id="パス_4019" data-name="パス 4019" d="M17.094-7.938a14.067,14.067,0,0,1-1.365,2.1,17.662,17.662,0,0,1-4.746,4.032A31.058,31.058,0,0,1,2.646,1.218l.1.315A39.458,39.458,0,0,0,7.5.63a18.382,18.382,0,0,0,7.812-4.116,16.025,16.025,0,0,0,3.36-4.1c1.113-.378,1.113-.378,1.113-.525,0-.063-.042-.105-.126-.168C19-8.757,18.8-8.9,18.1-9.387a8.8,8.8,0,0,0-1.008.966H12.6c.483-.525.651-.714,1.176-1.323.693-.147.945-.294.945-.483s-.441-.357-1.995-.756C11.319-8.3,8.169-5.5,4.011-3.213l.126.252A23.151,23.151,0,0,0,9.954-6.048a5.655,5.655,0,0,1,.987,1.281c.273.462.735,1.323.861,1.6.105.21.168.294.273.294.273,0,.651-.693.651-1.176s-.147-.714-.735-1.155c-.189-.126-.777-.483-1.764-1.05a19.9,19.9,0,0,0,1.911-1.68ZM8.841-15.372c.462-.525.609-.693,1.071-1.281a2.53,2.53,0,0,1,.567-.168.864.864,0,0,0,.315-.105.314.314,0,0,0,.063-.147c0-.063-.042-.126-.147-.168a21.145,21.145,0,0,0-2.079-.735,10.675,10.675,0,0,1-2.226,3.528,22.743,22.743,0,0,1-4.851,4.116L1.7-10.1a17.363,17.363,0,0,0,4.494-2.688A3.323,3.323,0,0,1,7.2-11.7c.231.357.63,1.071.735,1.26.126.231.189.315.336.315.273,0,.609-.588.609-1.029a1.021,1.021,0,0,0-.483-.84A10.019,10.019,0,0,0,6.468-13a18.548,18.548,0,0,0,1.953-1.89H13a19.637,19.637,0,0,1-4.914,5.46,25.529,25.529,0,0,1-6.762,3.8l.084.294A20.6,20.6,0,0,0,7.959-8.085a21.455,21.455,0,0,0,6.468-6.4c.819-.168,1.155-.315,1.155-.5,0-.063-.042-.126-.147-.231-.672-.483-.882-.63-1.554-1.134-.4.42-.5.546-.882.987ZM9.933,15.074c.882.567,1.155.882,1.155,1.239,0,.5-.63,1.386-3.171,4.473C6.636,22.361,6.3,22.928,6.3,23.6a2.73,2.73,0,0,0,.8,1.764,38.828,38.828,0,0,1,3.066,3.8,19.79,19.79,0,0,1,1.764,2.961c.357.756.441.861.714.861.441,0,.714-.462.714-1.26a2.7,2.7,0,0,0-.315-1.386c-.5-.987-1.575-2.163-3.864-4.284a20.161,20.161,0,0,1-1.47-1.386,1.758,1.758,0,0,1-.63-1.092c0-.4.273-.882,1.008-1.7a52.254,52.254,0,0,1,3.864-3.633c1.113-.9,1.218-1.029,1.218-1.3,0-.294-.126-.5-.462-.84a4.422,4.422,0,0,0-2.331-1.113A.974.974,0,0,0,9.933,15.074Zm.546,48.863a12.529,12.529,0,0,0,4.1-1.3,7.236,7.236,0,0,0,4.179-6.363,6.411,6.411,0,0,0-2.016-4.935A7.979,7.979,0,0,0,11.319,49.4a10.183,10.183,0,0,0-7.224,2.94A6.563,6.563,0,0,0,2.2,56.5a4.033,4.033,0,0,0,.483,1.911,13.072,13.072,0,0,1,.924,1.974A4.123,4.123,0,0,0,4.2,61.732a1.219,1.219,0,0,0,.924.441c.777,0,1.806-1.029,3.129-3.129,1.6-2.562,2.772-5.628,2.772-7.266a2.74,2.74,0,0,0-.651-1.743,4.834,4.834,0,0,1,.735-.042,6.932,6.932,0,0,1,3.633.966A5.209,5.209,0,0,1,17.115,55.6a7.47,7.47,0,0,1-1.869,5.061,9.551,9.551,0,0,1-4.914,2.919ZM9.933,50.119a2.344,2.344,0,0,1,.294,1.05c0,1.3-1.113,4.011-2.667,6.489C6.531,59.3,5.523,60.43,5.061,60.43c-.231,0-.5-.231-.8-.609a4.914,4.914,0,0,1-.84-2.772C3.423,53.815,6.279,50.77,9.933,50.119Zm1.617,39.77V85.143c.672-.252.84-.357.84-.525,0-.231-.483-.315-2.373-.5.042.693.042.924.042,1.827V96.063H6.573V88.776c.588-.252.819-.4.819-.546,0-.231-.336-.294-2.331-.5A13.306,13.306,0,0,1,5.1,89.112v6.951H3.192a8.289,8.289,0,0,1-2.037-.21l.147.8a12.4,12.4,0,0,1,1.722-.105H19.887c.084,0,.126-.042.126-.084,0-.063-.042-.126-.126-.21-.924-.8-1.218-1.029-2.184-1.785-.567.693-.735.9-1.281,1.6H11.55V90.372h5.859c.126,0,.189-.042.189-.105,0-.042-.021-.084-.1-.168-.861-.735-1.134-.945-2.016-1.6-.546.672-.546.672-1.155,1.386ZM.483,88.65a20.112,20.112,0,0,0,5.355-3.276,25.02,25.02,0,0,0,5.082-5.5,18.452,18.452,0,0,0,3.717,5.04,22.194,22.194,0,0,0,4.41,3.15c.525-.9.84-1.176,1.554-1.239l.084-.315a17.179,17.179,0,0,1-5.145-2.5,12.38,12.38,0,0,1-4.2-4.326c.693-.168.84-.231.84-.4s-.084-.21-1.239-.546c-.252-.063-.672-.189-1.176-.336a20.13,20.13,0,0,1-3.087,4.515A24.757,24.757,0,0,1,.315,88.4Zm10.374,29.522h7.98c.168,0,.231-.042.231-.1A.227.227,0,0,0,19,117.92c-.756-.63-1.008-.819-1.806-1.386-.525.483-.672.651-1.176,1.155H12.432a17.089,17.089,0,0,0,1.365-1.113c.126-.1.336-.273.588-.483.168.021.441.021.462.021.294,0,.462-.063.462-.21,0-.084-.1-.189-.294-.294-.924-.525-.924-.525-1.617-.924h6.657c.147,0,.21-.021.21-.1,0-.042-.021-.084-.1-.168-.8-.693-1.05-.9-1.89-1.533L17.094,114.2H14.427c.84-.735.924-.819,2.436-2.31.735-.021.9-.084.9-.252,0-.084-.042-.126-.189-.21-.378-.21-1.218-.567-1.848-.819A13.818,13.818,0,0,1,13.86,114.2H12.642v-2.9c.693-.21.819-.273.819-.441,0-.1-.063-.168-.21-.21a8.638,8.638,0,0,0-1.974-.252c.042.714.042.966.042,1.869V114.2H9.2v-2.94c.63-.189.8-.273.8-.441,0-.231-.336-.294-2.163-.441.042.819.063,1.218.063,1.89V114.2H3.4a8.124,8.124,0,0,1-2.226-.273l.147.861a13.459,13.459,0,0,1,2.079-.105H6.594l-.189.252a7.724,7.724,0,0,1,1.2,2.247,1.915,1.915,0,0,0,.231.5H4.557a8.05,8.05,0,0,1-2.1-.231l.147.819a16.062,16.062,0,0,1,1.953-.105H9.513V120.1H5.754a10.043,10.043,0,0,1-2.184-.231l.126.84a18.288,18.288,0,0,1,2.058-.126H9.513V122.5H3.7a9.729,9.729,0,0,1-2.31-.21l.126.861a14.4,14.4,0,0,1,2.184-.168H8.274a12.752,12.752,0,0,1-2.352,2.289,21.649,21.649,0,0,1-5.208,3.045l.147.336a20.1,20.1,0,0,0,4.389-1.827,19.315,19.315,0,0,0,4.263-3.36v1.743c0,.777-.063,3.066-.105,4.074v.042c0,.189.042.252.252.252,1.05,0,1.2-.042,1.218-.357-.021-2.205-.021-3.528-.021-3.927v-2.079a17.086,17.086,0,0,0,3.108,2.982,17.45,17.45,0,0,0,4.641,2.352c.5-.9.714-1.092,1.449-1.3v-.315a15.94,15.94,0,0,1-2.226-.357,16.537,16.537,0,0,1-4.2-1.659,12.353,12.353,0,0,1-2.457-1.932H19.4c.147,0,.231-.042.231-.126a.646.646,0,0,0-.084-.189c-.777-.63-1.008-.84-1.806-1.449-.546.546-.714.714-1.239,1.281H10.857v-1.911H17.3c.147,0,.21-.042.21-.1,0-.042-.021-.084-.084-.147-.714-.609-.945-.8-1.659-1.386-.483.483-.609.651-1.071,1.155H10.857Zm2.436-3.486a10.074,10.074,0,0,1-1.407,3H8.337a1.21,1.21,0,0,0,.5-.861c0-.483-.42-.9-2.163-2.142Zm-9.744-3.864a8.209,8.209,0,0,1,1.575,2.436c.21.5.315.651.5.651.294,0,.693-.672.693-1.176,0-.651-.756-1.26-2.583-2.1Zm10.059,35.591h6.216c.105,0,.168-.063.168-.126a.826.826,0,0,0-.042-.126c-.756-.693-.987-.9-1.785-1.533a13.19,13.19,0,0,0-.987,1.3H14.3a16.492,16.492,0,0,0,2.457-2.163c.819-.063.966-.1.966-.294s-.42-.42-2.037-1.155a12.671,12.671,0,0,1-1.911,3.612H9.891a7.919,7.919,0,0,1-1.785-.21l.168.861a6.484,6.484,0,0,1,1.617-.168h2.415v2.331H9.7a7.945,7.945,0,0,1-1.827-.21l.168.84a6.44,6.44,0,0,1,1.659-.147h2.6v2.331H9.45a8.621,8.621,0,0,1-2.016-.189l.147.861a5.55,5.55,0,0,1,1.869-.189h2.856v3.99a28.119,28.119,0,0,1-6.09,1.953c.651,1.7.819,2.058,1.008,2.058.168,0,.231-.168.294-.84a46.7,46.7,0,0,0,4.788-2.709v3.045c0,.252-.042.315-.252.315h-.042c-2.121-.021-2.205-.021-3.444-.084l-.021.336a8.2,8.2,0,0,1,2.058.483,1.413,1.413,0,0,1,.819,1.029,3.487,3.487,0,0,0,1.785-.5,1.5,1.5,0,0,0,.546-1.344c-.042-.882-.063-1.008-.084-1.827,0-.525-.021-1.239-.063-2.163v-2.688a14.235,14.235,0,0,0,1.89,3.885,11,11,0,0,0,3.444,3.507c.546-1.029.693-1.155,1.554-1.344v-.252a12.021,12.021,0,0,1-4.83-3.276,16.459,16.459,0,0,0,2.793-1.617c.252.021.441.021.546.042h.189a.259.259,0,0,0,.273-.21c0-.147-.546-.546-1.995-1.407a10.346,10.346,0,0,1-2.037,2.9,9.292,9.292,0,0,1-1.764-3.276h6.7c.147,0,.21-.021.21-.1a.284.284,0,0,0-.1-.189c-.777-.672-1.029-.882-1.848-1.512a14.614,14.614,0,0,0-1.176,1.323H13.608v-2.331h5.166c.126,0,.189-.042.189-.105s-.021-.1-.1-.189a21.683,21.683,0,0,0-1.659-1.407,14.793,14.793,0,0,0-1.008,1.218H13.608Zm-8.379.315v-3.444c.588-.21.777-.315.777-.483,0-.21-.168-.252-2.226-.567a11.606,11.606,0,0,1,.147,2.121v2.373H2.5A8.064,8.064,0,0,1,.84,146.56l.147.819a5.781,5.781,0,0,1,1.512-.168H3.612a30.909,30.909,0,0,1-.882,3.654,32.98,32.98,0,0,1-2.394,5.586l.231.147a13.159,13.159,0,0,0,1.974-3.024,24.417,24.417,0,0,0,1.6-4.032l-.189,3.108c-.042.42-.042,1.281-.042,2.478,0,.525,0,1.092-.021,1.638,0,1.26,0,1.281-.1,4.536v.084c0,.189.084.252.315.252.882,0,1.092-.063,1.134-.336-.021-3.549-.021-4.032-.021-6.72v-5.418a8.042,8.042,0,0,1,1.05,2.415c.084.294.189.42.336.42.294,0,.693-.651.693-1.155,0-.462-.315-.9-.945-1.344-.819-.567-.819-.567-1.113-.777v-1.512H8.106c.147,0,.231-.042.231-.1a.377.377,0,0,0-.084-.189c-.651-.63-.861-.819-1.533-1.428a15.5,15.5,0,0,0-1.05,1.239Zm4.053-4.1a7.542,7.542,0,0,1,1.47,2.373c.336.819.357.861.588.861.4,0,.756-.588.756-1.218,0-.336-.168-.567-.693-.966a16.543,16.543,0,0,0-1.953-1.239ZM7.791,152.776a7.524,7.524,0,0,1,1.743,2.961c.126.336.252.462.42.462.357,0,.756-.693.756-1.344,0-.42-.21-.714-.819-1.155A13.645,13.645,0,0,0,8,152.566ZM5.985,183.054c-.882,1.932-.882,1.932-1.68,3.486a14.1,14.1,0,0,1-1.554,2.478,1.379,1.379,0,0,0-.483,1.176c0,.9.231,1.449.609,1.449.189,0,.357-.126.5-.4.336-.588,1.029-2.1,1.869-4.074.735-1.743,1.155-2.73,1.239-2.94.924-2.142.924-2.142,1.218-2.856a6.8,6.8,0,0,1,2.2-.441c1.113,0,1.491.5,1.491,1.911a16.244,16.244,0,0,1-1.239,5.649c-.546,1.323-.882,1.764-1.365,1.764a10.571,10.571,0,0,1-3.255-1.449l-.189.273c2.226,1.827,2.268,1.869,2.331,2.457a.488.488,0,0,0,.567.483,2.974,2.974,0,0,0,2.016-.945c1.218-1.365,2.289-4.851,2.289-7.539,0-2.205-.861-3.276-2.667-3.276a7.31,7.31,0,0,0-1.827.252,20.331,20.331,0,0,1,1.344-2.856c.252-.357.294-.441.294-.609,0-.441-.525-.819-1.47-1.092a5.754,5.754,0,0,0-1.407-.273.949.949,0,0,0-.63.21c1.218.4,1.617.756,1.617,1.407a11.838,11.838,0,0,1-.861,3.444,21.715,21.715,0,0,1-3.57.735c-.777,0-1.155-.273-1.6-1.155a1.388,1.388,0,0,0-.126.462,3.331,3.331,0,0,0,.693,1.6,1.552,1.552,0,0,0,.924.63,1.1,1.1,0,0,0,.609-.231,16.257,16.257,0,0,1,2.73-1.092Zm8.652-2.415a6.094,6.094,0,0,1,2.877,2.793,5.394,5.394,0,0,1,.651,2.016,31.966,31.966,0,0,1-3.213,1.071l.084.294a18.571,18.571,0,0,1,2.625-.189,1.356,1.356,0,0,1,.861.21.8.8,0,0,0,.483.147c.525,0,.84-.42.84-1.134a4.95,4.95,0,0,0-1.2-2.982,7.3,7.3,0,0,0-3.843-2.52Zm-6.993,26.54a4.369,4.369,0,0,0,1.071,1.68,6.632,6.632,0,0,0,1.911,1.2,18.667,18.667,0,0,1-2.478.8,5.176,5.176,0,0,0-2.163.966c-.273.273-.336.462-.336,1.2a23.435,23.435,0,0,1-.4,2.772c-.105.735-.21,1.323-.252,1.743a8.7,8.7,0,0,1-.231,1.26c-.021.147-.063.315-.063.336a2.433,2.433,0,0,0,.441,1.071c.336.483.609.693.924.693.231,0,.378-.1.588-.42a4.8,4.8,0,0,1,1.155-1.323,8.348,8.348,0,0,1,5.019-2.289,2.279,2.279,0,0,1,2.541,2.289,4.069,4.069,0,0,1-2.1,3.4A12.07,12.07,0,0,1,8,224.42l.063.336a15.415,15.415,0,0,0,4.767-.819c2.625-.9,4.137-2.541,4.137-4.473,0-1.911-1.659-3.276-4.011-3.276a13.161,13.161,0,0,0-6.846,2.6c.042-1.407.189-3.15.336-4.263.042-.378.063-.567.063-.672a1.679,1.679,0,0,0-.147-.672,2.082,2.082,0,0,1-.126-.609.811.811,0,0,1,.231-.567,2.071,2.071,0,0,1,.966-.378,17.958,17.958,0,0,1,4.011-.588,7.09,7.09,0,0,1,1.029.063c.273.042.378.063.441.063a.461.461,0,0,0,.5-.441,1.518,1.518,0,0,0-.462-.924,1.306,1.306,0,0,0-.861-.525c-.483-.105-1.113-.273-1.512-.4a4.327,4.327,0,0,1-2.667-1.848Z" transform="translate(124.434 277)"/>
    <path id="パス_4018" data-name="パス 4018" d="M.5,242h-1V0h1Z" transform="translate(260.229 264.5)"/>
    <path id="パス_4017" data-name="パス 4017" d="M27.945-26.325h14.31c.315,0,.495-.09.495-.27a.886.886,0,0,0-.18-.36c-1.665-1.44-2.16-1.89-3.87-3.285-1.215,1.215-1.575,1.62-2.745,2.88H7.29a17.431,17.431,0,0,1-4.14-.45l.315,1.755a16.615,16.615,0,0,1,3.825-.27h5.265A24.837,24.837,0,0,1,9.36-21.96,31.849,31.849,0,0,1,2.2-15.66l.4.63a26.6,26.6,0,0,0,6.93-4.275,12.213,12.213,0,0,1,3.465,3.51c.27.36.36.45.72.495a40.372,40.372,0,0,1-11.7,6.03l.225.72a40.459,40.459,0,0,0,10.44-3.735,23.924,23.924,0,0,0,9.63-8.775c1.53-.5,1.755-.585,1.755-.855,0-.135-.09-.27-.4-.54-.99-.81-1.305-1.035-2.34-1.845-.81.675-1.035.855-1.8,1.575H13.185a22.722,22.722,0,0,0,2.745-3.6H25.2v11.52c.09,2.3.495,2.43,7.74,2.43,8.37,0,9.585-.225,9.585-1.71a1.094,1.094,0,0,0-.945-1.08c-.81-.315-.81-.315-.81-.54V-16.74l.27-3.555-.54-.045a43.849,43.849,0,0,1-2.025,5c-.27.45-.5.495-2.205.495H34.425c-1.17.045-1.845.045-2.25.045-1.215,0-3.375-.09-3.69-.135-.45-.09-.54-.225-.54-.855V-18.36a44.387,44.387,0,0,0,9.54-3.375c.585,0,1.44.045,1.62.045.54,0,.855-.135.855-.4,0-.315-.585-.675-3.825-2.43a29.659,29.659,0,0,1-8.19,5.355ZM19.53-21.69a22.7,22.7,0,0,1-5.085,5.85,2.46,2.46,0,0,0,.36-1.305c0-.765-.5-1.17-2.025-1.755a14.688,14.688,0,0,0-2.79-.765c.9-.765,1.35-1.17,2.2-2.025ZM17.775-33.48v-2.2c1.485-.405,1.89-.585,1.89-.9,0-.4-.5-.54-2.655-.765-.495-.045-1.305-.135-2.25-.27a20.2,20.2,0,0,1,.18,2.88c0,.36,0,.765-.045,1.26H6.3a16.328,16.328,0,0,1-3.915-.36L2.7-32.22a20.125,20.125,0,0,1,3.6-.225h8.6c0,.81-.045,1.305-.135,2.835.045.27.18.36.45.36a7.633,7.633,0,0,0,2.43-.225c.135-.09.18-.18.18-.45-.045-.585-.09-.9-.09-1.17l.045-.81v-.54h8.64c0,.855-.045,1.35-.09,2.79,0,.315.09.405.54.405,2.025,0,2.43-.09,2.475-.63-.045-1.215-.045-1.62-.045-2.565h13.77c.27,0,.45-.09.45-.27a.886.886,0,0,0-.18-.36C41.49-34.56,40.9-35.01,39.1-36.45c-1.215,1.215-1.62,1.62-2.88,2.97H29.3c0-.495,0-.495.045-2.2,1.53-.405,1.89-.585,1.89-.9,0-.4-1.125-.63-4.995-1.035a22.205,22.205,0,0,1,.225,3.78,1.7,1.7,0,0,0-.045.36ZM6.795-7.65A15.991,15.991,0,0,1,2.97-7.965l.315,1.62a15.637,15.637,0,0,1,3.51-.27h8.19a9.642,9.642,0,0,1-2.52,5.355C10.53.765,7.875,1.98,2.61,3.285l.18.675C8.325,3.375,12.15,1.98,14.94-.5c1.62-1.44,2.43-3.06,3.015-6.12h8.46v2.97c0,2.295-.045,3.555-.18,6.57,0,.36.135.495.54.495a8.3,8.3,0,0,0,2.385-.27.422.422,0,0,0,.225-.4c-.09-5.22-.09-5.49-.09-6.615V-6.615H42.93c.18,0,.4-.18.4-.315a.886.886,0,0,0-.18-.36c-1.755-1.53-2.295-1.98-4.14-3.375C37.8-9.45,37.44-9.045,36.225-7.65H29.34V-9.585c1.485-.63,1.575-.675,1.575-.99,0-.405-.36-.45-4.68-.855a27.282,27.282,0,0,1,.18,3.78H18.09c.09-.585.09-.765.225-2.115,1.44-.5,1.665-.585,1.665-.9s-.765-.54-2.7-.81c-.5-.045-1.215-.18-2.16-.315a9.993,9.993,0,0,1,.18,1.935,19.911,19.911,0,0,1-.135,2.2Zm11.25,60.675a67.255,67.255,0,0,1-6.885.72c.81,4.005.81,4.005,1.215,4.005.27,0,.405-.225.63-.945.045-.135.09-.315.18-.54,2.34-.54,3.15-.765,4.86-1.215v5.04c0,.4-.09.54-.36.54h-.09a49.049,49.049,0,0,1-5.445-.315V60.9c3.51.4,4.275.81,4.59,2.7a5.729,5.729,0,0,0,3.015-.855c.765-.495.945-.9.945-2.025V59.64l-.045-3.33V54.285c2.43-.765,3.735-1.215,6.7-2.34l-.18-.63c-2.52.63-3.645.855-6.525,1.35v-3.96l7.74-.135A20.726,20.726,0,0,0,31.5,55.365c-.765.72-1.395,1.305-2.25,1.98a26.826,26.826,0,0,1-6.93,4.5l.27.675A31.938,31.938,0,0,0,32.9,57.12a20.238,20.238,0,0,0,4.68,3.87A11.469,11.469,0,0,0,41.76,62.7a1.189,1.189,0,0,0,1.215-1.08,2.109,2.109,0,0,0-.495-1.305c-.9-.945-.945-.99-.945-1.4a4.333,4.333,0,0,1,.135-.9l1.17-4.59-.495-.225c-.72,1.26-.765,1.395-1.485,2.61-.405.765-.855,1.53-1.215,2.205-.225.4-.405.585-.54.585-.045,0-.09-.045-.18-.09a2.409,2.409,0,0,0-.54-.315,14.262,14.262,0,0,1-3.51-2.79A39.731,39.731,0,0,0,37.71,52.4c1.575-.045,1.935-.135,1.935-.585,0-.36,0-.36-3.735-2.205a21.169,21.169,0,0,1-2.655,3.915,13.133,13.133,0,0,1-2.34-4.995l11.43-.18c.495,0,.675-.09.675-.27a.656.656,0,0,0-.225-.36,37.55,37.55,0,0,0-3.42-3.06c-1.035,1.17-1.305,1.53-2.25,2.745l-6.48.09a22.209,22.209,0,0,1-.405-4.9c.675-.36.855-.495.855-.72,0-.4-.135-.45-3.915-.81a17.642,17.642,0,0,1,.585,4.005,18.8,18.8,0,0,0,.405,2.475l-7.515.09V43.89c1.305-.315,1.62-.4,2.97-.765,1.035.45,1.215.5,1.575.5a.54.54,0,0,0,.54-.45c0-.4-.405-.765-3.15-2.7l-.855.54a12,12,0,0,1-2.475,1.305,43.407,43.407,0,0,1-7.7,2.385l.135.495a53,53,0,0,0,6.345-.81V47.67l-2.745.045h-.4a28.38,28.38,0,0,1-4.77-.36l.4,1.665a42.81,42.81,0,0,1,4.77-.225l2.745-.045ZM27.18,29.49H41.985c.585,0,.675-.045.675-.27a.822.822,0,0,0-.27-.45c-1.665-1.4-2.2-1.845-3.96-3.1-1.08,1.215-1.4,1.575-2.385,2.79H29.43c2.79-2.43,2.79-2.43,4.05-3.69,1.26-.045,1.8-.225,1.8-.585,0-.45-.63-.765-4.455-1.98a27.171,27.171,0,0,1-2.52,6.255h-5.9a3.041,3.041,0,0,0,1.125-2.25c0-.405-.27-.81-.9-1.305a13.2,13.2,0,0,0-4.05-2.25l-.495.4a11.672,11.672,0,0,1,2.7,4.365,5.6,5.6,0,0,0,.495,1.035H17.1a26.049,26.049,0,0,1-4.59-.405l.4,1.755a20.749,20.749,0,0,1,4.05-.315h7.47v4.14H19.71a33.157,33.157,0,0,1-5.04-.315l.36,1.71a28.4,28.4,0,0,1,4.68-.36h4.725v4.1h-9.09c-.72,0-2.97-.18-4.185-.36l.45,1.665a26.977,26.977,0,0,1,3.735-.27H42.12c.315,0,.5-.135.5-.27s-.09-.27-.27-.45c-1.44-1.35-1.935-1.755-3.465-3.1-1.08,1.215-1.4,1.575-2.43,2.79H27.18v-4.1H39.24c.405,0,.585-.09.585-.27,0-.135-.09-.27-.27-.495-1.44-1.26-1.935-1.62-3.42-2.88-.99,1.08-1.305,1.44-2.295,2.61H27.18ZM1.395,45.06A42.443,42.443,0,0,0,6.12,38.535v9.9c-.09,8.91-.09,13.725-.135,14.445v.27c0,.27.18.45.54.45A6.946,6.946,0,0,0,9,63.24c.135-.09.18-.225.18-.585-.045-6.21-.045-6.84-.045-8.235V38.355c.945-.27,1.35-.54,1.35-.855,0-.495-.495-.63-3.24-.99a51.079,51.079,0,0,0,4.95-11.565c1.35-.225,2.07-.54,2.07-.9,0-.495-1.395-.9-5.13-1.62C8.46,27.15,7.02,31.74,4.185,38.13A44.438,44.438,0,0,1,.72,44.655Zm30.825-3.2a12.717,12.717,0,0,1,2.97,3.69c.36.765.495.9.81.9.495,0,1.08-1.215,1.08-2.205,0-1.17-1.305-1.935-4.635-2.835Zm1.08,56.94v.72c0,.36.135.45.495.45h.135c.18,0,.45-.045.81-.045,1.215-.045,1.485-.18,1.485-.72-.09-2.025-.09-2.115-.09-5.4,1.125-.585,1.305-.72,1.305-1.035,0-.135-.09-.27-.405-.5-1.035-.81-1.35-1.035-2.475-1.8-.765.72-.99.945-1.665,1.62H23.58V88.59H42.705c.18,0,.36-.135.36-.225a.809.809,0,0,0-.18-.4,38.612,38.612,0,0,0-3.825-3.285c-1.125,1.215-1.44,1.575-2.565,2.88H23.58V84.45c1.35-.4,1.755-.63,1.755-.99,0-.5-.315-.585-4.86-1.17a51.922,51.922,0,0,1,.225,5.265H5.8A10.174,10.174,0,0,1,2.79,87.24l.18,1.53a14.788,14.788,0,0,1,2.79-.18H20.7V92.1H11.475c-1.215-.72-1.62-.945-2.925-1.62.045,1.215.045,1.575.045,3.06,0,2.565-.045,3.915-.135,6.66,0,.315.135.4.495.4a15.852,15.852,0,0,0,2.025-.18c.225-.09.315-.225.315-.54v-1.08H20.7v3.645H8.955a6.9,6.9,0,0,1-2.475-.315l.18,1.53a9.975,9.975,0,0,1,2.3-.18H20.7v4.185H5.085a10.578,10.578,0,0,1-2.79-.315l.225,1.53a13.981,13.981,0,0,1,2.565-.18H20.7v4.5H9.54a11.406,11.406,0,0,1-3.06-.36l.18,1.62a14.022,14.022,0,0,1,2.79-.225H20.7v5.04c0,.4-.135.54-.675.54h-1.26c-1.3,0-1.8,0-6.93-.315v.675c6.66,1.08,6.93,1.215,7.02,3.375,3.06-.675,4.185-1.17,4.635-1.89.225-.36.27-.675.27-1.89l-.09-3.33a20.393,20.393,0,0,0-.045-2.205h10.17v2.52c0,.315.225.45.72.45a11.31,11.31,0,0,0,2.16-.225c.225-.09.315-.225.315-.54-.045-1.08-.09-3.69-.135-7.74h6.57c.225,0,.4-.135.4-.27q0-.135-.27-.4c-1.44-1.395-1.89-1.8-3.375-3.06-1.08,1.17-1.4,1.53-2.475,2.7h-.855l-.045-3.465c1.17-.72,1.305-.855,1.305-1.125,0-.18-.135-.315-.405-.54-1.125-.81-1.485-1.08-2.7-1.845-.72.765-.945.99-1.62,1.755H23.58V98.805Zm0-1.035H23.58V93.135H33.3Zm-12.6,0H11.295V93.135H20.7Zm13.095,9.9H23.58v-4.185H33.795Zm0,1.035v4.5H23.625l-.045-1.575v-2.925Zm-9.18,47.49a32.884,32.884,0,0,1-.945,4.77,43.872,43.872,0,0,1-4.005,9.81A41.337,41.337,0,0,1,10.26,181.98l.45.54A35.9,35.9,0,0,0,21.6,172.215c2.88-4.185,4.455-8.235,5.9-15.03,1.3-.63,1.485-.81,1.485-1.17,0-.225-.09-.36-.36-.585-1.125-.9-1.485-1.17-2.7-2.025-.63.765-.855.99-1.53,1.755H18.72a36.539,36.539,0,0,0,1.89-7.785h9.36c.4,0,.63-.09.63-.27a.95.95,0,0,0-.18-.45c-1.4-1.44-1.845-1.845-3.33-3.195-1.08,1.215-1.4,1.62-2.43,2.88H17.235a18.472,18.472,0,0,1-4.23-.45l.36,1.665a33.378,33.378,0,0,1,3.87-.18h.27a49.2,49.2,0,0,1-1.845,9.09,47.131,47.131,0,0,1-5.355,11.7l.4.45a27.855,27.855,0,0,0,5.49-7.56,15.26,15.26,0,0,1,2.34,5.13c.36,1.26.495,1.485.855,1.485.72,0,1.71-1.665,1.71-2.835a2.976,2.976,0,0,0-1.035-1.89,25.376,25.376,0,0,0-3.51-2.52c.765-1.62,1.215-2.655,1.8-4.23ZM1.17,164.88a39.7,39.7,0,0,0,4.995-6.39v9.27c-.09,11.115-.09,11.115-.135,14.265v.135c0,.45.135.585.54.585a9.723,9.723,0,0,0,2.07-.225c.27-.045.36-.135.45-.4v-3.33C9,169.2,9,169.2,9,167.355v-9c1.125-.315,1.4-.45,1.4-.765,0-.45-.765-.675-3.15-.945a58.743,58.743,0,0,0,5.22-11.925c1.35-.27,1.8-.45,1.8-.9,0-.405-.63-.63-4.77-1.575a43.68,43.68,0,0,1-2.97,10.4,57.825,57.825,0,0,1-5.94,11.79Zm31.95-15.03c.99-.27,1.485-.585,1.485-.99,0-.45-.585-.585-4.365-.81a50.228,50.228,0,0,1,.18,6.885c0,7.38,0,8.325-.18,18.18,0,.4.18.585.585.585,1.935,0,2.295-.135,2.385-.765,0-4.5,0-4.5-.045-7.74-.045-5.04-.045-10.035-.045-10.665ZM28.575,179.6c3.78.45,4.185.54,4.95.945a3.33,3.33,0,0,1,1.71,2.34,8.455,8.455,0,0,0,3.69-1.35,2.812,2.812,0,0,0,1.44-2.7v-.54l-.045-6.75.045-4.725V145.44c1.485-.495,1.89-.675,1.89-1.035,0-.495-1.4-.855-5.04-1.3.09,1.26.09,1.44.09,3.24v31.95c0,.675-.09.81-.63.945-2.205,0-2.565-.045-5.895-.27-.45,0-1.215-.045-2.205-.09Z" transform="translate(297.729 308.593)"/>
    <path id="パス_4016" data-name="パス 4016" d="M15.92-11.16A2.558,2.558,0,0,0,13.76-9.9c0,.06.02.08.08.08a.447.447,0,0,0,.2-.06,1.737,1.737,0,0,1,.78-.2c.68,0,1.68.28,1.68,1.08a1.052,1.052,0,0,1-.08.36,1.378,1.378,0,0,0-.06.16.093.093,0,0,0,.1.1c.08,0,.5-.12.6-.14.1,0,.56.04.68.04.42,0,.66-.54.66-.96C18.4-10.36,17.46-11.16,15.92-11.16Zm-7.34-.58c-.04.02-.08.06-.08.08,0,.04.1.24.1.28,0,.28-.56.5-.7.5-.12,0-.16-.14-.16-.22a10.684,10.684,0,0,1,.2-1.3,8.062,8.062,0,0,0,.42-1.04A2,2,0,0,0,6.3-14.8c-.12,0-.44.04-.44.22a2,2,0,0,0,.28.32,1.964,1.964,0,0,1,.66,1.6,14.956,14.956,0,0,1-.2,2.18,8.736,8.736,0,0,1-2.54.6,5.811,5.811,0,0,1-.92-.1c-.06,0-.3-.08-.36-.08a.142.142,0,0,0-.16.14c0,.14.76,1.52,1.44,1.52a4.289,4.289,0,0,0,1.42-.38,4.678,4.678,0,0,1,.92-.18c.22,0,.28.3.28.44.02.34.04,2.04.04,2.5,0,.56-.12.62-1.14,1.12a4.275,4.275,0,0,1-2.08.68c-.12,0-.7-.1-.82-.1-.36,0-.58.42-.58.78,0,.66,1.02,1.26,1.24,1.26a3.951,3.951,0,0,0,.76-.4,1.668,1.668,0,0,1,.5-.12c.26,0,.36,0,1,1.24.16.32.38.74.92.74.72,0,1.02-1.32,1.02-2.24,0-.2-.06-1.1-.06-1.32,0-.34.12-.4,1.24-1a10.215,10.215,0,0,1,4.14-1.5,2.072,2.072,0,0,1,1.92,2.2c0,1.6-1.68,2.48-3,2.48-.2,0-1.3,0-1.3-.96a.827.827,0,0,1,.18-.54c.04-.06.08-.1.08-.16a.107.107,0,0,0-.1-.1,1.782,1.782,0,0,0-1,1.58c0,1.04.92,1.62,2.06,1.62,1.64,0,4.42-1.2,4.42-3.84a3.062,3.062,0,0,0-3.08-3.02,9.4,9.4,0,0,0-3.4.8c-.32.12-1.96.8-2.02.8-.18,0-.18-.24-.18-.36,0-.1,0-1.72.04-2.16.04-.7.06-.78.34-.88.48-.2,2-.8,2-1.46C9.82-11.5,8.86-11.78,8.58-11.74ZM6.6-4.14c.06.04.06.24.06.32,0,.98-.28,1.54-.56,1.54-.3,0-.84-.64-.84-.94C5.26-3.5,6.54-4.14,6.6-4.14ZM3.98,9.46c-.46,0-.52-.04-1.14-.38A3.028,3.028,0,0,0,2.1,8.8c-.1,0-.1.12-.1.28,0,.08.04.52.04.62.06.88.1,2.04.1,2.52,0,.44-.06,2.4-.06,2.8,0,.44.12.66.5.66a.849.849,0,0,0,.9-.76.385.385,0,0,1,.4-.28c.22,0,.26.06.26.72A21.413,21.413,0,0,1,3.1,22.08a11.471,11.471,0,0,1-1.74,3.16,1.631,1.631,0,0,0-.22.34.142.142,0,0,0,.14.16c.08,0,2.84-1.68,3.74-6.04.02-.18.16-.94.2-1.06.12-.26.4-.26.6-.26H7.96c.44,0,.62.14.62.6A28.241,28.241,0,0,1,8.1,22.7c-.16.68-.46,2.06-1.88,2.06a6.638,6.638,0,0,1-1.18-.16c-.08-.02-.46-.12-.52-.12-.1,0-.14.06-.14.1,0,.06.3.22.38.26a1.97,1.97,0,0,1,.92,1c.2.42.36.42.52.42,2.6,0,2.96-2,3.3-3.92.1-.56.5-3.48.58-3.58.04-.02.42-.3.48-.34a.243.243,0,0,0,.1-.2c0-.3-1-1.18-1.16-1.18-.12,0-.18.04-.66.5a.878.878,0,0,1-.8.3H6c-.24,0-.64,0-.64-.48,0-.16.06-.92.06-1.08a.941.941,0,0,1,.1-.56c.24-.3.32-.4.32-.54,0-.18-.08-.2-.78-.4-.04,0-.16-.04-.16-.08,0-.06.14-.06.18-.06H8.02c.22,0,.5.02.58.36.08.28.12.48.46.48a1.026,1.026,0,0,0,.84-.54c.12-.22.12-.24.12-1.58,0-2.34,0-2.6.1-2.82.04-.1.34-.42.38-.5a.269.269,0,0,0,.04-.16c0-.26-1.22-1.06-1.44-1.06-.1,0-.32.24-.5.46a.642.642,0,0,1-.54.18Zm.06,4.66c-.16,0-.48,0-.56-.28-.08-.22-.08-2.3-.08-2.72,0-.88,0-1.14.62-1.14H8.1c.6,0,.6.26.6,1.04,0,.42,0,2.46-.04,2.7-.06.4-.36.4-.58.4Zm8.56-3.4a.3.3,0,0,0-.04.18c0,.1.06.54.06.64.04.5.08,3.44.08,5.22,0,.84,0,2.5-.1,3.9-.02.12-.06.68-.06.82,0,.18,0,.44.46.44,1.02,0,1.04-.5,1.04-.96V12.48a.843.843,0,0,1,.18-.64c.24-.28.28-.32.28-.42C14.5,11.08,12.68,10.66,12.6,10.72Zm3.88-2.4a.386.386,0,0,0-.06.2,5.771,5.771,0,0,0,.08.58c.04.5.2,3.94.2,7.98,0,.78-.02,6.62-.1,7.04-.1.46-.3.68-.96.68-.28,0-1.56-.06-1.74-.06-.08,0-.22,0-.22.08,0,.12.14.2.26.24.48.18,1.46.52,1.56.92.12.42.12.5.44.5a2.257,2.257,0,0,0,1.42-.64c.62-.6.66-1.06.66-2.42,0-.38-.04-2.28-.04-2.72-.02-.62,0-3.62,0-4.3,0-.76-.06-4.5-.06-5.36,0-1.36.02-1.36.3-1.6.06-.04.28-.2.28-.4s-.14-.28-.7-.42C17.62,8.58,16.54,8.3,16.48,8.32ZM5.84,34.52c-.14,0-.46.02-.46.2a7.775,7.775,0,0,0,.6,1,6.721,6.721,0,0,1,.52,2.92c0,.36-.02.5-.14.58a12.924,12.924,0,0,1-2.38.82,1.613,1.613,0,0,0-1,1.56c0,.34.02.48.46,1.6a10.514,10.514,0,0,1,.46,1.5,1.9,1.9,0,0,1-.26.66,6.242,6.242,0,0,0-.88,2.24.732.732,0,0,0,.72.74c.6,0,.92-.52,1.1-1.12.14-.48.16-.54.24-.54a7.657,7.657,0,0,1,.78,2.2c.2,1.06.28,1.52.9,1.52s.78-.46.78-1.12a12.215,12.215,0,0,0-.24-1.86,18.281,18.281,0,0,1-.16-2.58c0-2.02.2-2.84,1.54-4.1,1.32-1.24,3.02-2.66,4.44-2.66a1.173,1.173,0,0,1,1.24,1.38,33.224,33.224,0,0,1-.54,4.18,8.514,8.514,0,0,0-.24,1.88c0,.54,0,2.92,2.36,2.92,2.12,0,3.22-2.32,3.22-2.6,0-.06-.04-.16-.12-.16-.1,0-.28.18-.42.34a2.668,2.668,0,0,1-2.1,1c-1.36,0-1.48-1.08-1.48-1.86a17.229,17.229,0,0,1,.32-3,17.686,17.686,0,0,0,.24-2.56c0-1.42-.6-2.38-1.96-2.38-1.86,0-4.28,2.28-5.32,3.28-.4.38-.46.42-.5.42a.053.053,0,0,1-.06-.06c0-.06.06-.14.48-.72a.964.964,0,0,0,.18-.52c0-.2-.12-.3-.3-.4-.36-.18-.42-.28-.42-.7a13.959,13.959,0,0,1,.1-1.44c.02-.18.2-1.06.2-1.22C7.74,35.5,6.5,34.52,5.84,34.52Zm.32,6.06a2.749,2.749,0,0,1-.36.9c-.1.2-1.18,2.3-1.22,2.4-.04.08-.14.2-.22.2a4.591,4.591,0,0,1-.66-2.2c0-1,2.08-1.42,2.24-1.42A.216.216,0,0,1,6.16,40.58ZM5.8,47.2a3.271,3.271,0,0,1-.7-1.44c0-.22.58-1.54.78-1.54.1,0,.1.12.1.18,0,.04-.04.6-.04.7C5.94,47.06,5.94,47.2,5.8,47.2Zm4.64,14.2c5.46,0,5.54,4.76,5.54,5.54,0,4.98-4.34,6.7-6.42,7.52-.5.2-.54.22-.54.28,0,.12.12.14.2.14a12.293,12.293,0,0,0,3.32-.74,7.459,7.459,0,0,0,5.04-7.04,6.269,6.269,0,0,0-3.48-5.82,6.515,6.515,0,0,0-3.22-.64,8.275,8.275,0,0,0-6.38,2.6,7.045,7.045,0,0,0-2.22,5.1c0,2.44,1.18,4.5,2.5,4.5.8,0,1.82-.48,3.42-2.92a10.258,10.258,0,0,0,2.06-5.86,15.33,15.33,0,0,0-.2-2.16c0-.08-.04-.16-.04-.22C10.02,61.56,10.04,61.4,10.44,61.4Zm-1.12.06c.26,0,.34.1.34,1.3A11.44,11.44,0,0,1,7.7,68.58C6.32,70.66,5.84,70.9,5.26,70.9c-1.22,0-1.74-1.78-1.74-3.08C3.52,64.04,7.42,61.46,9.32,61.46ZM.9,92.16a19.833,19.833,0,0,0,8.76-6.42c.16-.2.48-.6.56-.6s.12.06.34.48c2.26,4.12,6.52,7.06,6.96,7.06.12,0,.18-.06.26-.2a2.346,2.346,0,0,1,1.28-.82c.5-.16.56-.18.56-.3,0-.1,0-.1-.56-.26-4.74-1.34-8.28-5.78-8.28-6.4,0-.08.02-.14.14-.2.2-.14.24-.16.24-.26,0-.34-1.86-1.22-1.88-1.22-.24,0-.24.08-.4.7-.1.44-1.36,2.82-4.78,5.74-1.3,1.1-2.94,2.26-3.08,2.36-.24.16-.3.2-.3.28C.72,92.2.84,92.18.9,92.16Zm6.58,2.68c.34,0,.6,0,.6.34a13.993,13.993,0,0,1-1.04,2.64c-.82,1.64-.96,1.64-2.08,1.64a10.6,10.6,0,0,1-1.18-.08c-.12-.02-.74-.14-.88-.14-.06,0-.16,0-.16.14a15.8,15.8,0,0,0,1.1,2.12.227.227,0,0,0,.2.14,4.181,4.181,0,0,0,.58-.32,87.551,87.551,0,0,1,9.28-1.84c.28,0,.46.06.84.74.36.66.78,1.4,1.36,1.4.38,0,.78-.44.78-1.08,0-1.26-1.24-1.98-1.78-2.3A18.6,18.6,0,0,0,12.56,97c-.06,0-.14.02-.14.12,0,.24,1.18,1.26,1.18,1.56,0,.2-.16.22-1.6.36-2.22.22-4.1.34-4.36.34-.08,0-.36-.02-.36-.2s.2-.38.28-.48c.12-.12.94-1.1,1.36-1.66.5-.66.54-.72.7-.78.6-.16.6-.16.6-.34,0-.22-.94-1.02-.94-1.02,0-.06.08-.06.28-.06h6.12c.94,0,1.04,0,1.04-.26,0-.18,0-.2-1.02-1.04-.46-.38-.52-.42-.68-.42-.18,0-.26.12-.56.54-.48.66-.7.66-1.54.66H6.32c-.7,0-1.76-.04-2.74-.08-.12,0-.74-.06-.88-.06-.04,0-.08,0-.08.04,0,.02.06.08.1.14l.38.46c.08.08.1.12.18.12.06,0,.36-.04.42-.04.54-.04,1.04-.06,2.52-.06Zm.92-3.72c-.8,0-1.76-.02-2.74-.08-.12,0-.74-.06-.88-.06-.04,0-.06.02-.06.04,0,.04,0,.06.08.14l.38.46c.08.08.12.12.18.12s.36-.04.42-.04c.74-.06,1.32-.06,2.54-.06h4.6c.96,0,1.06,0,1.06-.22a5.424,5.424,0,0,0-1.52-1.5c-.1,0-.34.3-.66.68-.4.48-.44.52-1.42.52Z" transform="translate(361.656 286.594)"/>
    <path id="パス_4015" data-name="パス 4015" d="M2.9-8.74c-.04,0-.12.02-.12.08,0,.08.8,1.6,1.82,1.6.44,0,.56-.06,1.74-.68A14.577,14.577,0,0,1,8.22-8.3c.28,0,.4.14.4.46,0,.34-.04,2.08-.04,2.48,0,3.32.42,4.22,3.88,4.22,1.08,0,4.44,0,4.44-1.28a.775.775,0,0,0-.84-.64,7.536,7.536,0,0,0-1.66.28,16.965,16.965,0,0,1-2.2.2c-1.2,0-2.32-.18-2.48-1.76-.04-.38-.04-2.18-.04-3.86a.751.751,0,0,1,.62-.86c.26-.08,3.26-1.06,3.3-1.06.22,0,.24.28.24.4a3.428,3.428,0,0,1-.56,1.66c-.04.08-.38.64-.38.66a.115.115,0,0,0,.12.12,16.62,16.62,0,0,0,1.5-.9c.72-.44.94-.58,1.36-.58.08,0,.46.04.54.04.26,0,.36-.16.36-.3,0-.82-2.14-2.36-2.68-2.36a5.671,5.671,0,0,0-.86.42,24.237,24.237,0,0,1-3,.84.353.353,0,0,1-.4-.38,16.714,16.714,0,0,1,.3-1.92,6.078,6.078,0,0,0,.38-.9c0-.2-.36-.54-.42-.6-.92-.78-1.14-.88-1.38-.88-.18,0-.92.16-.92.34a3.984,3.984,0,0,0,.24.38c.48.72.72,1.06.72,3.22,0,1.06-.04,1.22-.58,1.36-3.04.8-3.38.9-4.18.9a4.435,4.435,0,0,1-.74-.06A1.169,1.169,0,0,0,2.9-8.74ZM7.32,13.68c0-.82-2.3-1.22-2.52-1.22-.08,0-.2.02-.2.1a3.846,3.846,0,0,0,.44.78c.52.94.52,1.48.52,4.12a15.263,15.263,0,0,1-.1,2.58c-.02.04-.18.84-.18.94,0,.54,1.2,1.52,1.36,1.52.08,0,.12-.02.22-.16.42-.52.58-.64,2.9-1.84a25.14,25.14,0,0,0,7.86-6,.158.158,0,0,0-.16-.16c-.14,0-.18.04-.46.28-3.52,3.06-8.64,5.22-9.5,5.22-.66,0-.66-.48-.66-1.06A20.092,20.092,0,0,1,7,15.02C7.04,14.8,7.32,13.84,7.32,13.68ZM5.1,37.82a.089.089,0,0,0-.06.08c0,.36,1,1.2,1.44,1.2.06,0,1.58-.26,1.8-.26.74,0,.76,1.12.76,2.28,0,.48-.12.62-.5.7-1,.2-4.88.74-5.78.74-.14,0-.8-.08-.9-.08a.113.113,0,0,0-.12.12c0,.46,1.48,1.56,1.98,1.56a6.9,6.9,0,0,0,1.02-.36,26.42,26.42,0,0,1,3.78-.84c.32,0,.42.16.42.5s-.04,2.08-.04,2.16c0,1.34.22,2.16,1.34,2.62a10.485,10.485,0,0,0,3.82.62c.62,0,2.26,0,2.26-.78,0-.52-.86-.88-1.28-.88-.24,0-1.42.18-1.68.18-.22,0-2.02-.06-2.7-.76-.24-.24-.54-.54-.54-3.1,0-.4.02-.68.28-.8a19.762,19.762,0,0,1,3.8-.42,9.374,9.374,0,0,1,1.7.14c.24.04,1.42.28,1.52.28a.379.379,0,0,0,.4-.36c0-1.16-1.62-1.62-1.98-1.62-.18,0-1.02.2-1.22.24-.6.12-3.34.56-3.88.56-.26,0-.42-.1-.42-.36a1.955,1.955,0,0,1,.12-.46,6.6,6.6,0,0,0,.38-.86c0-.16-.1-.24-.38-.5-.06-.06-.38-.34-.38-.56a.31.31,0,0,1,.2-.24c.16-.06,1.3-.16,3.46-.36.76-.06,1.28-.16,1.28-.6,0-.68-1.5-.98-1.66-.98-.24,0-1.3.44-1.56.5a28.562,28.562,0,0,1-6.18.74A4.21,4.21,0,0,0,5.1,37.82ZM3.12,62.48c-.1,0-.14.04-.14.08,0,.7,1.56,1.98,2.04,1.98a15.246,15.246,0,0,0,1.68-.58,35.014,35.014,0,0,1,7.14-1.24c.26,0,.38.16.38.3a5.428,5.428,0,0,1-2.48,2.44,5.944,5.944,0,0,1-.78-.26,3.016,3.016,0,0,0-1.08-.18c-.12,0-.42.02-.42.18,0,.08.02.12.18.44a2.556,2.556,0,0,1,.26,1.18A9.128,9.128,0,0,1,8.4,71.2a13.622,13.622,0,0,1-3.58,3.72c-.36.28-.4.32-.4.38s.04.1.12.1a5.207,5.207,0,0,0,1.38-.58,10.921,10.921,0,0,0,5.04-6.18,11.145,11.145,0,0,1,1.02-2.56c.42-.56,3.48-1.68,4.18-1.82.7-.16.7-.38.7-.52,0-.68-1.9-2.6-2.36-2.6a6.925,6.925,0,0,0-.82.46A59.591,59.591,0,0,1,5.4,62.76a8.7,8.7,0,0,1-1.26-.08C3.98,62.66,3.18,62.48,3.12,62.48ZM10.44,86.4c5.46,0,5.54,4.76,5.54,5.54,0,4.98-4.34,6.7-6.42,7.52-.5.2-.54.22-.54.28,0,.12.12.14.2.14a12.293,12.293,0,0,0,3.32-.74,7.459,7.459,0,0,0,5.04-7.04,6.269,6.269,0,0,0-3.48-5.82,6.515,6.515,0,0,0-3.22-.64,8.275,8.275,0,0,0-6.38,2.6,7.045,7.045,0,0,0-2.22,5.1c0,2.44,1.18,4.5,2.5,4.5.8,0,1.82-.48,3.42-2.92a10.258,10.258,0,0,0,2.06-5.86,15.33,15.33,0,0,0-.2-2.16c0-.08-.04-.16-.04-.22C10.02,86.56,10.04,86.4,10.44,86.4Zm-1.12.06c.26,0,.34.1.34,1.3A11.44,11.44,0,0,1,7.7,93.58C6.32,95.66,5.84,95.9,5.26,95.9c-1.22,0-1.74-1.78-1.74-3.08C3.52,89.04,7.42,86.46,9.32,86.46ZM7.84,125.72c.08.1.12.14.18.14s.36-.06.42-.06c.7-.06,2.04-.04,2.52-.04h7.1c.66,0,1.08,0,1.08-.28,0-.34-1.76-1.64-1.94-1.64-.24,0-.3.08-.84.78a1.243,1.243,0,0,1-1.18.6h-.74c-.52,0-.52-.36-.52-1.1,0-1.34-.06-7.2-.06-8.4,0-.36.04-.66.58-.66h2.78c.64,0,1.06,0,1.06-.26,0-.38-1.4-1.68-1.68-1.68-.18,0-.24.08-.82.86-.42.56-.52.56-1.46.56-.48,0-.48-.38-.48-.62,0-.54.06-3.86.18-4.14.04-.1.44-.44.44-.54,0-.34-.42-.44-.6-.5-.14-.04-1.38-.42-1.44-.42-.12,0-.16.04-.16.14,0,.16.12.86.12,1.02.1,1.5.14,2.4.14,4.24,0,.56-.04.82-.52.82-.68,0-2.3-.08-2.5-.08-.1,0-.82-.06-.84-.06s-.06,0-.06.04,0,.04.08.14l.38.46c.08.08.12.12.18.12.08,0,.36-.04.42-.04.7-.06,1.86-.06,2.36-.06.48,0,.48.42.48.62,0,1.04-.04,8.74-.08,9.1-.04.44-.4.44-.58.44h-.78c-1.12,0-2.16-.04-2.74-.06-.14,0-.76-.08-.88-.08a.064.064,0,0,0-.06.06c0,.02,0,.02.08.12ZM1.3,113.48c.06.08.1.12.18.12.06,0,.36-.04.42-.04.7-.04,1.54-.06,2.32-.06h1.4c.18,0,.32.02.32.2,0,.58-2.82,4.08-3.62,4.9a20.128,20.128,0,0,0-1.74,1.78c0,.06.06.06.1.06.52,0,3.12-2.26,3.32-2.26s.2.34.2.56c0,2.36-.08,4.44-.12,5.92,0,.22-.08,1.14-.08,1.34,0,.28.12.48.6.48a.954.954,0,0,0,1.06-.92c0-.28-.1-1.52-.1-1.78,0-.82-.02-4.52-.02-5.28,0-.24,0-.52.18-.52.38,0,1.04,1.02,1.16,1.24.52,1.06.74,1.46,1.22,1.46.36,0,.7-.3.7-.92,0-1.52-1.88-2.06-2.56-2.22-.48-.1-.66-.14-.66-.56,0-.36.06-.42.64-1.02a23.022,23.022,0,0,1,1.86-2c.06-.02.34-.08.4-.1a.3.3,0,0,0,.22-.26c0-.12-.04-.16-.48-.58-.06-.04-.48-.54-.72-.78a.378.378,0,0,0-.28-.14c-.18,0-.76.6-.9.68a.712.712,0,0,1-.48.14c-.2,0-.32-.04-.32-.32v-1.68c0-.84,0-.94.1-1.12.04-.08.4-.38.4-.46,0-.14-.12-.22-.22-.28a15.376,15.376,0,0,0-1.8-.54c-.02,0-.08,0-.08.04,0,.12.1.58.1.68.06.76.08,1.94.08,2.24,0,1.34,0,1.48-.56,1.48-.42,0-2.26-.12-2.64-.12-.02,0-.08,0-.08.04,0,.02.02.04.1.14Zm9.08,25.16a.391.391,0,0,1,.46.32c.04.2.08,3.34.1,3.84.04,1.54.2,1.98,4.4,1.98,1.94,0,2.6-.32,3.04-.64a1.248,1.248,0,0,0,.52-.76,5.738,5.738,0,0,0-.3-.74,10.869,10.869,0,0,1-.08-1.68c0-.06-.02-.1-.06-.1,0,0-.52,1.22-.64,1.44-.46.9-.62,1.24-3.18,1.24-2,0-2.42-.24-2.42-.94,0-.58.26-.64.68-.74a34.125,34.125,0,0,0,4.02-1.18,1.858,1.858,0,0,1,.92-.28c.14,0,.3,0,.3-.14s-.1-.2-.28-.32a13.893,13.893,0,0,0-1.46-.86c-.1,0-.34.46-.42.54a8.253,8.253,0,0,1-3.54,1.84c-.18,0-.24-.1-.26-.46-.02-.18.02-1.1.02-1.3,0-.78,0-1.06.62-1.06h4.1c.94,0,1.04,0,1.04-.24,0-.3-1.28-1.3-1.56-1.3-.16,0-.64.7-.76.84-.18.18-.28.18-1.12.18H5.22c-.92,0-1.74-.04-2.68-.08-.12,0-.74-.06-.86-.06-.04,0-.08,0-.08.04,0,.02,0,.06.08.14l.38.46c.06.08.1.12.18.12.04,0,.24-.04.28-.04.32-.02,1.08-.06,1.62-.06.8,0,.88,0,.88.3a14.385,14.385,0,0,1-2.84,3.6c-.14.16-1.22,1.2-1.22,1.24a.064.064,0,0,0,.06.06,17.042,17.042,0,0,0,2.14-1.36c.68-.54.76-.6.92-.6.46,0,1.08,1.16,1.08,1.5,0,.78-4.66,3.06-4.66,3.06,0,.04.04.04.06.04a10.529,10.529,0,0,0,2.6-.72,16.148,16.148,0,0,0,6.04-4.18,1.3,1.3,0,0,1,.42-.32c.46-.2.48-.22.48-.32a3.1,3.1,0,0,0-1.12-1.2c-.14,0-.68.48-.82.54a1.956,1.956,0,0,1-.98.18H6.26c-.18,0-.4-.02-.4-.2,0-.08.02-.16.2-.3l.72-.72c.04-.04.42-.18.44-.26.08-.3.08-.34.36-.34Zm-3.34,2.34c.2,0,.46,0,.46.24,0,.36-.96,1.32-1.2,1.32-.16,0-.2-.12-.22-.24-.06-.24-.38-.46-1.06-.68-.34-.1-.42-.12-.42-.22,0-.08.12-.42.96-.42Zm4.34-4.94c.24,0,.54.04.56.6.02,1.06.02,1.18.64,1.18.86,0,.86-.44.86-1.22,0-.36.14-.56.6-.56h3.98c.96,0,1.06,0,1.06-.24,0-.26-1.5-1.42-1.62-1.42a4.214,4.214,0,0,0-.58.6c-.46.54-.56.54-1.44.54h-1.4c-.3,0-.6-.02-.6-.68,0-.1,0-.5.16-.62.34-.24.4-.28.4-.44a.335.335,0,0,0-.22-.28,10.758,10.758,0,0,0-1.72-.38c-.12,0-.26.02-.26.22a2.924,2.924,0,0,0,.1.4,7.2,7.2,0,0,1,.06,1.04c0,.5,0,.74-.58.74H8.54c-.24,0-.66,0-.66-.72a.494.494,0,0,1,.2-.46c.32-.26.34-.28.34-.44a.348.348,0,0,0-.28-.34c-.32-.08-1.86-.46-1.92-.46a.142.142,0,0,0-.16.14c0,.1.22.52.24.62a6.007,6.007,0,0,1,.12,1.1c0,.44-.22.56-.58.56H4.62c-.94,0-1.78-.02-2.74-.08-.14,0-.76-.06-.9-.06-.04,0-.06.02-.06.04,0,.04,0,.06.08.14l.4.46c.06.08.1.12.16.12s.36-.04.44-.04c.18-.02.76-.06,2.52-.06H5.84c.3,0,.64.04.64.56,0,.12-.06.64-.06.76,0,.32.38.44.5.44a1.29,1.29,0,0,0,.8-.38c.22-.24.22-.36.22-.86,0-.52.38-.52.6-.52Zm2.9,11.08c-.48,0-.68-.14-.68-.7,0-.2.02-.36.12-.42.24-.18.32-.24.32-.4,0-.32-1.28-.58-1.92-.58-.12,0-.28,0-.28.12a4.576,4.576,0,0,0,.2.46,4.183,4.183,0,0,1,.1.94c0,.26-.06.58-.56.58H8.78c-.44,0-.6-.08-.6-.52a4.909,4.909,0,0,1,.08-.96c.04-.08.42-.4.42-.5,0-.18-.18-.22-.24-.24a12.7,12.7,0,0,0-1.64-.2c-.06,0-.22,0-.22.16,0,.08.2.46.22.56a7.186,7.186,0,0,1,.06.94c0,.5-.02.76-.5.76H5c-.94,0-1.78-.02-2.76-.06-.12-.02-.74-.08-.88-.08a.053.053,0,0,0-.06.06c0,.02,0,.04.08.12l.38.46c.08.08.12.14.18.14a3.033,3.033,0,0,0,.42-.06c.2,0,.78-.04,2.54-.04H6.2c.26,0,.48,0,.48.38a4.47,4.47,0,0,1-2.56,3.4c-.04.02-.18.08-.18.1s.02.04.06.04a4.432,4.432,0,0,0,4-3.2c.16-.6.18-.72.76-.72h2.8c.52,0,.6.16.6.74,0,.18-.08,1.96-.08,2.22,0,.74.2.86.62.86,1,0,1.02-.56,1.02-.9,0-.32-.08-1.94-.08-2.3,0-.5.16-.62.64-.62h3.2c.94,0,1.04,0,1.04-.24a3.569,3.569,0,0,0-1.42-1.46c-.18,0-.78.82-.94.98-.2.2-.28.18-1.14.18Z" transform="translate(394 286.594)"/>
  </g>
</svg>
