<svg xmlns="http://www.w3.org/2000/svg" width="108.682" height="77.338"><g data-name="グループ 1721"><path data-name="長方形 179" fill="#0b3080" d="M0 42.511h108.682v.394H0z"/><path data-name="パス 666" d="M7.425 6.053c-5.748 0-7.423 6.847-7.423 16.3s1.675 16.3 7.423 16.3 7.418-6.845 7.418-16.3-1.656-16.3-7.418-16.3m0 28.594c-2.151 0-2.761-2.831-2.761-12.29s.61-12.293 2.761-12.293 2.762 2.836 2.762 12.293-.619 12.29-2.762 12.29" fill="#0b3080"/><path data-name="パス 667" d="M25.246 6.538h-3.25v31.52h3.25c8.51 0 9.556-5.336 9.556-15.756S33.756 6.539 25.246 6.539m1.4 27.431h-.3V10.637h.3c3.377 0 3.564 3.222 3.564 11.666s-.187 11.667-3.564 11.667" fill="#0b3080"/><path data-name="パス 668" d="M91.142 6.539h-4.441l-2.846 12.4-2.785-12.4h-4.445l5.078 20.1v11.418h4.3V26.639Z" fill="#0b3080"/><path data-name="パス 669" d="M64.682 22.063v15.99h-4.38V6.538h4.375V18.88l3.9-12.342h4.5L68.73 20.291l4.464 17.767h-4.492Z" fill="#0b3080"/><path data-name="パス 670" d="M104.387 6.539v26a1.7 1.7 0 0 1-1.66 1.778 1.678 1.678 0 0 1-1.65-1.778v-26h-4.3v25.218c0 3.315 1.547 6.578 5.945 6.578 4.474 0 5.955-3.263 5.955-6.672V6.539Z" fill="#0b3080"/><path data-name="パス 671" d="M48.843 12.791a6.553 6.553 0 0 0 4.389-6.232 6.384 6.384 0 1 0-8.436 6.2l2.053-9.57Z" fill="#c76d81"/><path data-name="パス 672" d="M48.842 12.791a6.274 6.274 0 0 1-1.994.328 6.082 6.082 0 0 1-2.054-.356l-5.43 25.292h4.478l3-15.291L49.6 38.055h4.482Z" fill="#0b3080"/><path data-name="パス 673" d="M61.879 46.76v6.95h.61v-.629h3.62v-4.914h1.96v5.346c0 .338-.084.412-.464.412a1.9 1.9 0 0 1-.243-.013l-.9-.019.183.684h.779a1.519 1.519 0 0 0 .277-.018c.731-.015 1.022-.206 1.022-.646v-5.74h.867v-.642h-3.479v-.77Zm1.8 2.79h-1.177v-2.166h1.177Zm1.824 0H64.27v-2.151h1.233Zm-1.833 2.889h-1.178V50.16h1.178Zm1.833 0H64.27V50.16h1.233Z" fill="#0b3080"/><path data-name="パス 674" d="M70.659 46.886v7.722h.642v-.543h5.65v.511h.662v-7.69Zm6.292 3.208H74.4v-2.542h2.551Zm-3.174 0h-2.472v-2.542h2.472Zm3.174 3.306H74.4v-2.654h2.551Zm-3.174 0h-2.472v-2.654h2.472Z" fill="#0b3080"/><path data-name="パス 675" d="M34.775 46.535v6.707c0 .511 0 .511-.576.534h-.221l-.323-.023h-.286l-.258-.01.221.727.46.019h.38c.431 0 .665-.019.778-.033a.556.556 0 0 0 .512-.582V46.54Zm-2.016 1.671a8.643 8.643 0 0 1-1.693 4.088l.614.492a10.116 10.116 0 0 0 1.74-4.356Zm3.967.244a15.182 15.182 0 0 0 1.628 4.215l.061.122.666-.426a14.012 14.012 0 0 1-1.7-4.122Z" fill="#0b3080"/><path data-name="パス 676" d="M40.181 46.886v7.722h.633v-.543h5.654v.511h.662v-7.69Zm6.288 3.208h-2.55v-2.542h2.55Zm-3.174 0h-2.476v-2.542h2.476Zm3.174 3.306h-2.55v-2.654h2.55Zm-3.174 0h-2.476v-2.654h2.476Z" fill="#0b3080"/><path data-name="パス 677" d="M51.177 46.313a7.522 7.522 0 0 1-2.62 2.334l.4.544.726-.506v.318h5.294v.755h-5.529v.53h5.529v.8h-5.571v.62h6.218v-3.3h-2.021a9.075 9.075 0 0 0 .877-.825c.018-.023.033-.037.033-.051.028-.019.037-.028.037-.042s0-.019-.009-.023v-.517h-3.034a6.307 6.307 0 0 0 .413-.548Zm2.519 1.247c-.427.407-.5.473-.952.848h-2.72a7.1 7.1 0 0 0 .957-.848Zm-1.721 4.577c.38.559.436.642.8 1.2l.61-.375c-.393-.573-.445-.657-.829-1.14Zm-1.328-.165v1.773c0 .454.2.615.792.619l.685.009h.99c1.327-.009 1.519-.168 1.589-1.309l-.656-.205v.084c-.033.742-.076.788-.8.8l-1.65-.01c-.216 0-.3-.065-.3-.24V51.97Zm3.9.389c.361.512.493.69.628.925l.573.934.586-.4a15.368 15.368 0 0 0-1.219-1.777Zm-5.013-.29a4.745 4.745 0 0 1-.979 1.8l.562.428a7.858 7.858 0 0 0 1.04-1.989Z" fill="#0b3080"/><path data-name="パス 678" d="M59.068 49.584a.9.9 0 0 0-.895.9.878.878 0 0 0 .886.933.855.855 0 0 0 .892-.927.88.88 0 0 0-.883-.906" fill="#0b3080"/></g><path data-name="パス 3982" d="M29.02 66.823h2.865v8.445c0 .27-.1.33-.6.33a17.168 17.168 0 0 1-1.8-.12 6.642 6.642 0 0 1 .33 1.605c.51.03 1.26.045 1.68.045a2.666 2.666 0 0 0 1.635-.315c.3-.225.405-.57.405-1.32v-8.67a12.651 12.651 0 0 1 1.77.075v-1.725a15.979 15.979 0 0 1-1.9.09h-4.38a18 18 0 0 1 .06-1.2 15.436 15.436 0 0 1-1.59.06h-3.87a15.251 15.251 0 0 1-1.59-.06 15.174 15.174 0 0 1 .06 1.56v8.07a18.594 18.594 0 0 1-.095 2.04h1.59v-1.3h3.91v.79h1.59a13.5 13.5 0 0 1-.075-1.44Zm-5.42-1.23h1.23v2.82H23.6Zm2.67 0h1.245v2.82H26.27Zm-2.67 4.29h1.23v3.06H23.6Zm2.67 0h1.245v3.06H26.27Zm23.3 7.29a16.41 16.41 0 0 1-.09-1.89v-9.435a12.85 12.85 0 0 1 .075-1.59 15.388 15.388 0 0 1-1.725.075h-9.015a15.5 15.5 0 0 1-1.74-.075 13.562 13.562 0 0 1 .075 1.6v9.425a16.229 16.229 0 0 1-.09 1.89h1.71v-.825h9.09v.825Zm-10.8-11.325h3.63v3.63h-3.63Zm5.25 0h3.825v3.63H44.02Zm-5.25 5.115h3.63v3.9h-3.63Zm5.25 0h3.825v3.9H44.02Zm14.37.525h-1.92a10.353 10.353 0 0 1-1.335-.06 11.012 11.012 0 0 1 .06 1.32v2.73a13.914 13.914 0 0 1-.095 1.845h1.7v-.63h5.55v.645h1.71a12.906 12.906 0 0 1-.09-1.95v-2.445a14.794 14.794 0 0 1 .06-1.515 9.949 9.949 0 0 1-1.32.06h-2.745v-1.575h3.21a11.351 11.351 0 0 1 1.53.09v-1.65a9.737 9.737 0 0 1-1.59.09h-3.15v-.18a10.792 10.792 0 0 1 .06-1.485h-1.71a8.484 8.484 0 0 1 .075 1.485Zm-1.59 1.5h5.55v2.22H56.8Zm1.02-8.085h-3.39c-.675 0-1.245-.03-1.77-.075.045.525.06 1.005.06 2.28a34.522 34.522 0 0 1-.32 5.835 7.579 7.579 0 0 1-1.12 3.045 6.462 6.462 0 0 1 1.335 1.29c1.38-2.255 1.74-4.515 1.725-10.875h8.88c.735 0 1.41.03 1.86.075v-1.665a13.921 13.921 0 0 1-1.89.09h-3.72v-.54a3.77 3.77 0 0 1 .075-.93h-1.8a4.981 4.981 0 0 1 .075.915Zm8.925 9.045a4.248 4.248 0 0 0 1.23 1.665 4.333 4.333 0 0 0 2.9.87 4.155 4.155 0 0 0 3.19-1.14c.99-.96 1.59-2.94 1.59-5.2a9.61 9.61 0 0 0-.435-3.11 4.253 4.253 0 0 0-4.125-2.955 4.9 4.9 0 0 0-2.625.66 3.955 3.955 0 0 0-1.9 3.525 3.746 3.746 0 0 0 4.08 3.945 4.078 4.078 0 0 0 2.43-.69 2.929 2.929 0 0 0 .8-.855c-.075 1.77-.42 2.85-1.17 3.57a2.267 2.267 0 0 1-1.695.615 2.26 2.26 0 0 1-1.735-.615 2.491 2.491 0 0 1-.465-.825Zm4.2-3.36a2.24 2.24 0 0 1-2.385-2.4A2.351 2.351 0 0 1 71 65.723a2.368 2.368 0 0 1 2.52 2.415 2.46 2.46 0 0 1-2.575 2.45Zm8.745.555h3.21a14.655 14.655 0 0 1 2.04.105v-1.995a14.8 14.8 0 0 1-2.04.105h-3.21v-3.18h3.99a14.333 14.333 0 0 1 2.055.1v-2.025a15.332 15.332 0 0 1-2.055.105h-4.2c-.915 0-1.29-.015-1.9-.045a12.953 12.953 0 0 1 .12 1.95v7.91a12.645 12.645 0 0 1-.12 2.13h2.23a12.938 12.938 0 0 1-.12-2.16Z" fill="#333"/></svg>