<svg xmlns="http://www.w3.org/2000/svg" width="154.564" height="81.646"><g data-name="グループ 1717" fill="#231815"><path data-name="パス 621" d="M8.433 34.126a7.931 7.931 0 0 1-5.541-2.069A9.637 9.637 0 0 1 .13 26.165c-.507-3.807.482-8.338 2.786-12.758A28.562 28.562 0 0 1 12.29 2.773a15.135 15.135 0 0 1 8.1-2.774 7.93 7.93 0 0 1 5.54 2.068 9.625 9.625 0 0 1 2.76 5.885c.505 3.812-.486 8.345-2.792 12.765a28.645 28.645 0 0 1-9.382 10.642 15.1 15.1 0 0 1-8.083 2.767ZM20.389.991a14.16 14.16 0 0 0-7.555 2.612 27.558 27.558 0 0 0-9.038 10.263c-2.21 4.241-3.163 8.563-2.682 12.169a8.664 8.664 0 0 0 2.456 5.3 6.957 6.957 0 0 0 4.863 1.8 14.129 14.129 0 0 0 7.539-2.6c7.462-4.892 12.726-14.961 11.734-22.447a8.653 8.653 0 0 0-2.454-5.291A6.956 6.956 0 0 0 20.389.992Z"/><path data-name="パス 622" d="M24.762 36.292V21.361l-10.352-4.3v14.941Z"/><path data-name="長方形 139" d="M26.943 22.079h24.848v1.344H26.943z"/><path data-name="長方形 140" d="M38.018 22.079h2.553v13.482h-2.553z"/><path data-name="長方形 141" d="M80.172 22.079h2.55v13.482h-2.55z"/><path data-name="パス 623" d="M150.854 35.558c1.577 0 3.71-.236 3.71-2.1V22.077h-2.551v11.381c0 .931-.931 1.011-1.563 1.011h-15.3c-.629 0-1.57-.08-1.57-1.011V22.077h-2.549v11.381c0 1.866 2.136 2.1 3.717 2.1Z"/><path data-name="パス 624" d="M104.911 35.558h19.564c1.573 0 3.706-.236 3.706-2.1V22.077h-2.546v11.381c0 .931-.938 1.011-1.553 1.011h-19.171Z"/><path data-name="パス 625" d="M128.078 29.407H108.51c-1.57 0-3.707-.239-3.707-2.1v-5.23h2.549v5.23c0 .93.932 1.007 1.56 1.007h19.165Z"/><path data-name="パス 626" d="m102.834 22.08-11.8 7.083h-3.352l11.8-7.083Z"/><path data-name="パス 627" d="m87.565 28.489 11.8 7.072h3.356l-11.8-7.072Z"/><path data-name="長方形 142" d="M82.319 28.023h8.674v1.383h-8.674z"/><path data-name="パス 628" d="M74.441 22.08H56.795c-1.483 0-3.221.334-3.221 2.349v8.777c0 2.029 1.738 2.352 3.221 2.352h17.646c1.487 0 3.217-.323 3.217-2.352v-8.777c0-2.015-1.73-2.349-3.217-2.349m.667 11.377c0 .469-.257.768-.667.768H56.795c-.417 0-.671-.3-.671-.768v-9.274a.671.671 0 0 1 .671-.761h17.646a.672.672 0 0 1 .667.761Z"/><path data-name="長方形 143" d="M53.66 6.485h13.992v.823H53.66z"/><path data-name="長方形 144" d="M59.812 6.009h1.119v10.369h-1.119z"/><path data-name="長方形 145" d="M54.713 8.26h11.832v.83H54.713z"/><path data-name="長方形 146" d="M54.713 10.084h11.832v.83H54.713z"/><path data-name="長方形 147" d="M54.713 11.911h11.832v.844H54.713z"/><path data-name="長方形 148" d="M54.716 8.26h1.098v4.495h-1.098z"/><path data-name="長方形 149" d="M65.433 8.26h1.112v4.495h-1.112z"/><path data-name="パス 629" d="m54.31 16.536-.549-1.1a14.015 14.015 0 0 0 5.853-3.314l.557 1.087a16.108 16.108 0 0 1-5.861 3.326"/><path data-name="パス 630" d="m67.11 16.42.562-1.094a17.168 17.168 0 0 1-6.44-3.343l-.56 1.091a18.966 18.966 0 0 0 6.438 3.345"/><path data-name="長方形 150" d="M73.172 6.485h6.541v.823h-6.541z"/><path data-name="パス 631" d="m69.752 9.627-.379-1.2a14.82 14.82 0 0 0 4.474-2.637l.879.766a28.214 28.214 0 0 1-4.975 3.074"/><path data-name="長方形 151" d="M71.165 8.26h10.47v.83h-10.47z"/><path data-name="パス 632" d="M81.635 10.859v-.83l-10.564-.031v.84Z"/><path data-name="長方形 152" d="M70.841 11.803h10.793v.83H70.841z"/><path data-name="長方形 153" d="M80.526 8.26h1.108v4.377h-1.108z"/><path data-name="パス 633" d="m79.712 7.31-1.094-.644-2.171 1.841 1.424.349Z"/><path data-name="パス 634" d="M73.657 14.552v-1.309h-1.008v1.941c0 .948.886 1.275 1.848 1.275h3.88a1.47 1.47 0 0 0 1.594-1.188l-.761-.42c-.129.386-.274.664-.736.664H74.4c-.529 0-.744-.164-.744-.962"/><path data-name="パス 635" d="m70.811 13.377.674.73a11.368 11.368 0 0 1-1.727 2.094l-.612-.719a8.443 8.443 0 0 0 1.665-2.105"/><path data-name="パス 636" d="m75.569 13.467.747-.615a11.284 11.284 0 0 0 1.053 1.258l-.744.635a8.655 8.655 0 0 1-1.056-1.278"/><path data-name="パス 637" d="m80.313 13.855.739-.612a9.3 9.3 0 0 0 1.9 2.112l-.74.632a8.214 8.214 0 0 1-1.9-2.132"/><path data-name="長方形 154" d="M83.236 6.256h13.968v.83H83.236z"/><path data-name="長方形 155" d="M84.535 8.701h11.516v.83H84.535z"/><path data-name="長方形 156" d="M84.535 11.911h11.516v.844H84.535z"/><path data-name="長方形 157" d="M84.535 15.128h11.516v.827H84.535z"/><path data-name="長方形 158" d="M84.535 8.701h1.094v7.43h-1.094z"/><path data-name="長方形 159" d="M94.95 8.701h1.101v7.594H94.95z"/><path data-name="パス 638" d="M91.07 6.652h-1.1l-1.244 2.491h1.1Z"/><path data-name="パス 639" d="M99.202 8.608a12.127 12.127 0 0 0 3.682-1.823l-.566-.747a12.291 12.291 0 0 1-3.662 1.828Z"/><path data-name="長方形 160" d="M100.883 7.2h1.105v2.084h-1.105z"/><path data-name="パス 640" d="M105.697 7.874V6.066h-1.1v2.166c0 .7.455.882 3.64.882 3.565 0 4.037-.16 4.526-1.026l-.768-.475c-.479.482-.719.667-3.5.667-1.6 0-2.8 0-2.8-.406"/><path data-name="長方形 161" d="m105.264 6.742 6.652-.582.072.832-6.651.582z"/><path data-name="長方形 162" d="M99.9 9.532h11.516v.83H99.9z"/><path data-name="長方形 163" d="M99.9 11.143h11.516v.604H99.9z"/><path data-name="長方形 164" d="M99.9 13.912h11.516v.834H99.9z"/><path data-name="長方形 165" d="M99.9 12.523h11.516v.611H99.9z"/><path data-name="長方形 166" d="M99.9 9.532h1.101v5.214H99.9z"/><path data-name="長方形 167" d="M110.321 9.532h1.094v5.214h-1.094z"/><path data-name="パス 641" d="M99.103 15.709a9.314 9.314 0 0 0 3.459-.941l.689.583a11.155 11.155 0 0 1-3.652 1.271Z"/><path data-name="パス 642" d="M107.9 14.958c.916.9 3.769 1.451 4.5 1.462l.435-.984a7.475 7.475 0 0 1-3.675-.881Z"/><path data-name="長方形 168" d="M115.226 6.985h12.481v.823h-12.481z"/><path data-name="パス 643" d="M116.332 11.967V6.983h-1.1v5.128a7.349 7.349 0 0 1-1.143 3.262l.9.614a6.549 6.549 0 0 0 1.351-4.02"/><path data-name="長方形 169" d="M121.066 8.031h1.115v4.606h-1.115z"/><path data-name="長方形 170" d="M120.975 6.2h1.105v1.223h-1.105z"/><path data-name="長方形 171" d="M121.649 9.417h6.44v.834h-6.44z"/><path data-name="長方形 172" d="M117.72 12.161h9.956v.834h-9.956z"/><path data-name="長方形 173" d="M117.72 12.161h1.098v4.044h-1.098z"/><path data-name="長方形 174" d="M126.582 12.161h1.094v4.044h-1.094z"/><path data-name="長方形 175" d="M117.72 15.076h9.956v.823h-9.956z"/></g><path data-name="パス 3979" d="M60.351 49.9a14.106 14.106 0 0 1-5.22 5.76 5.17 5.17 0 0 1 1.02 1.575 14.339 14.339 0 0 0 2.43-2.1v1.7a10.731 10.731 0 0 1 1.5-.09h1.185v1.02a13.85 13.85 0 0 1-.105 1.86h1.89a13.554 13.554 0 0 1-.105-1.86v-1.02h1.335a10.883 10.883 0 0 1 1.5.09v-1.71a16.722 16.722 0 0 0 2.52 2.075 6.121 6.121 0 0 1 1.02-1.635 12.835 12.835 0 0 1-3.27-2.52 14.874 14.874 0 0 1-2.25-3.15h3.21a17.716 17.716 0 0 1 1.815.09v-1.83a12.316 12.316 0 0 1-1.815.105h-4.065v-1.08a7.489 7.489 0 0 1 .105-1.38h-1.875a9.324 9.324 0 0 1 .09 1.395v1.065h-3.855a13 13 0 0 1-1.785-.105v1.83a17.128 17.128 0 0 1 1.785-.09Zm2.595 5.22v-2.37a12.121 12.121 0 0 0-.135-1.665 16.236 16.236 0 0 0 2.91 3.975 9.386 9.386 0 0 1-1.32.06Zm-1.68 0h-1.273a9.5 9.5 0 0 1-1.335-.06 14.875 14.875 0 0 0 2.73-3.975 14.689 14.689 0 0 0-.12 1.68Zm16.02-1.35h-1.92a10.353 10.353 0 0 1-1.335-.06 11.012 11.012 0 0 1 .06 1.32v2.73a13.914 13.914 0 0 1-.09 1.84h1.7v-.63h5.55v.645h1.705a12.906 12.906 0 0 1-.09-1.95V55.22a14.794 14.794 0 0 1 .06-1.515 9.949 9.949 0 0 1-1.32.06h-2.745V52.19h3.21a11.351 11.351 0 0 1 1.53.09v-1.65a9.737 9.737 0 0 1-1.59.09h-3.15v-.18a10.792 10.792 0 0 1 .06-1.485h-1.71a8.484 8.484 0 0 1 .075 1.485Zm-1.59 1.5h5.55v2.22h-5.553Zm1.02-8.085h-3.39c-.675 0-1.245-.03-1.77-.075.045.525.06 1.005.06 2.28a34.522 34.522 0 0 1-.315 5.835 7.579 7.579 0 0 1-1.125 3.04 6.462 6.462 0 0 1 1.335 1.29c1.382-2.255 1.74-4.515 1.725-10.875h8.88c.735 0 1.41.03 1.86.075V47.09a13.921 13.921 0 0 1-1.89.09h-3.72v-.54a3.77 3.77 0 0 1 .075-.93h-1.8a4.981 4.981 0 0 1 .075.915Zm16.35 5.145a3.247 3.247 0 0 0-1.485.6 2.843 2.843 0 0 0-1.23 2.46 3.112 3.112 0 0 0 .87 2.25 5.152 5.152 0 0 0 3.8 1.2c3.072-.005 4.749-1.24 4.749-3.47a2.841 2.841 0 0 0-1.05-2.34 2.849 2.849 0 0 0-1.62-.7 2.783 2.783 0 0 0 2.16-2.805 2.951 2.951 0 0 0-.405-1.5c-.645-1.05-1.98-1.635-3.8-1.635-2.565 0-4.185 1.215-4.185 3.135a2.875 2.875 0 0 0 .74 1.975 2.878 2.878 0 0 0 1.455.825Zm1.995-4.32c1.335 0 2.175.675 2.175 1.74 0 1.1-.81 1.77-2.145 1.77-1.365 0-2.205-.69-2.205-1.785C92.885 48.68 93.74 48 95.06 48Zm-.03 9.18c-1.62 0-2.58-.72-2.58-1.95s.99-2.01 2.61-2.01 2.595.75 2.595 2c-.001 1.25-.946 1.955-2.626 1.955Zm8.55-3.765h3.212a14.655 14.655 0 0 1 2.04.105v-2a14.8 14.8 0 0 1-2.04.105h-3.21v-3.18h3.99a14.333 14.333 0 0 1 2.055.1V46.53a15.332 15.332 0 0 1-2.055.105h-4.2c-.915 0-1.29-.015-1.9-.045a12.953 12.953 0 0 1 .12 1.95v7.91a12.645 12.645 0 0 1-.12 2.13h2.235a12.938 12.938 0 0 1-.12-2.16ZM46.25 69.6h-3.87a14.15 14.15 0 0 1-1.785-.09v1.635a17.643 17.643 0 0 1 1.77-.075h3.885v1.83h-3.195a14.044 14.044 0 0 1-1.62-.075v1.6a15.25 15.25 0 0 1 1.62-.075h8.295a14.937 14.937 0 0 1 1.6.075v-1.6a13.375 13.375 0 0 1-1.6.075h-3.4v-1.83h4.095c.72 0 1.29.03 1.77.075V69.51a13.1 13.1 0 0 1-1.77.09H47.95v-.48a6.806 6.806 0 0 1 .1-1.365h-1.89a8 8 0 0 1 .09 1.365Zm-2.43 11.895v-.66h6.78v.66h1.74a11.884 11.884 0 0 1-.09-1.65v-2.94a9.188 9.188 0 0 1 .075-1.38 9.233 9.233 0 0 1-1.26.06h-7.71a8.852 8.852 0 0 1-1.245-.06 9.559 9.559 0 0 1 .075 1.38v2.94a12.985 12.985 0 0 1-.09 1.65Zm-.015-4.455h6.81v2.31h-6.81Zm16.575-.3v1.575a9.613 9.613 0 0 1 1.485-.075h2v1.545a16.027 16.027 0 0 1-.09 1.86h1.86a14.923 14.923 0 0 1-.09-1.875v-1.53h2.13a10.2 10.2 0 0 1 1.455.09V76.7a10.351 10.351 0 0 1-1.485.075h-2.1v-1.79h1.6a8.084 8.084 0 0 1 1.35.075v-1.575a8.173 8.173 0 0 1-1.365.075h-1.59V71.9h1.98a8.785 8.785 0 0 1 1.41.075V70.35a8.579 8.579 0 0 1-1.4.075h-.7A14.494 14.494 0 0 0 68 68.01l-1.65-.45a10.533 10.533 0 0 1-1.2 2.865h-2.235l1.2-.45a10.257 10.257 0 0 0-1.17-2.37l-1.515.495a10.629 10.629 0 0 1 1.14 2.325h-.345a8.739 8.739 0 0 1-1.365-.075v1.62a8.83 8.83 0 0 1 1.38-.075h1.62v1.665h-1.367a7.5 7.5 0 0 1-1.305-.075v1.575a6.988 6.988 0 0 1 1.305-.075h1.365v1.785h-2.04a9.589 9.589 0 0 1-1.425-.07 4.937 4.937 0 0 1 .72-1.065 7.386 7.386 0 0 1-1.98-1.545 11.668 11.668 0 0 0 1.02-1.68c.435-.885.525-1.065.69-1.335l-.81-.945a5.113 5.113 0 0 1-.855.045h-.3v-1.22a6.758 6.758 0 0 1 .075-1.17h-1.74a7.194 7.194 0 0 1 .075 1.17v1.215h-.675a7.628 7.628 0 0 1-1.14-.06v1.575a9.209 9.209 0 0 1 1.215-.06h2.175a8.875 8.875 0 0 1-1.5 2.325 8.567 8.567 0 0 1-2.4 2 4.9 4.9 0 0 1 .72 1.6 10.8 10.8 0 0 0 1.62-1.32v3.8a12.009 12.009 0 0 1-.09 1.62h1.74a12.342 12.342 0 0 1-.09-1.65v-4.28a9.134 9.134 0 0 0 1.4 1.26Zm17.55-7.26v-.3a6.3 6.3 0 0 1 .105-1.335h-1.86a6.212 6.212 0 0 1 .09 1.335v.3H73.31a12.178 12.178 0 0 1-1.635-.075v1.635a14.739 14.739 0 0 1 1.635-.075h2.955v1.425h-3.9a13.533 13.533 0 0 1-1.74-.09V74a13.861 13.861 0 0 1 1.74-.09h6.975v1.36h-6.96a13.791 13.791 0 0 1-1.755-.09v1.695a14.123 14.123 0 0 1 1.755-.09h6.96v2.745c0 .315-.135.405-.63.405a14.466 14.466 0 0 1-2.28-.195 6.092 6.092 0 0 1 .48 1.71c.66.045 1.23.075 1.68.075a3.988 3.988 0 0 0 1.785-.255c.465-.27.6-.63.6-1.545v-2.94h1.155a13.7 13.7 0 0 1 1.74.09V75.18a12.751 12.751 0 0 1-1.74.09h-1.155v-1.365h1.155a13.7 13.7 0 0 1 1.74.09V72.3a13.118 13.118 0 0 1-1.725.09H77.93v-1.425h3.24a14.541 14.541 0 0 1 1.635.075v-1.635a11.537 11.537 0 0 1-1.62.075Zm-1.38 9.75a16.425 16.425 0 0 0-2.3-2.385l-1.32.96a13.368 13.368 0 0 1 2.235 2.55Zm15.735-3.465h-1.92a10.353 10.353 0 0 1-1.335-.06 11.012 11.012 0 0 1 .06 1.32v2.73A13.914 13.914 0 0 1 89 81.6h1.693v-.63h5.55v.645h1.71a12.906 12.906 0 0 1-.09-1.95V77.22a14.794 14.794 0 0 1 .06-1.515 9.949 9.949 0 0 1-1.32.06H93.86V74.19h3.21a11.351 11.351 0 0 1 1.53.09v-1.65a9.737 9.737 0 0 1-1.59.09h-3.15v-.18a10.792 10.792 0 0 1 .06-1.485h-1.71a8.485 8.485 0 0 1 .075 1.485Zm-1.59 1.5h5.55v2.22h-5.552Zm1.02-8.085h-3.39c-.675 0-1.245-.03-1.77-.075.045.525.06 1.005.06 2.28a34.522 34.522 0 0 1-.315 5.835 7.579 7.579 0 0 1-1.125 3.045 6.462 6.462 0 0 1 1.335 1.29c1.38-2.25 1.74-4.515 1.725-10.875h8.88c.735 0 1.41.03 1.86.075V69.09a13.921 13.921 0 0 1-1.89.09h-3.72v-.54a3.77 3.77 0 0 1 .075-.93h-1.8a4.981 4.981 0 0 1 .075.915Zm16.35 5.145a3.247 3.247 0 0 0-1.485.6 2.843 2.843 0 0 0-1.23 2.46 3.112 3.112 0 0 0 .87 2.25 5.152 5.152 0 0 0 3.8 1.2c3.075 0 4.755-1.23 4.755-3.465a3.008 3.008 0 0 0-2.67-3.045 2.783 2.783 0 0 0 2.16-2.805 2.951 2.951 0 0 0-.405-1.5c-.645-1.05-1.98-1.635-3.8-1.635-2.565 0-4.185 1.215-4.185 3.135a2.764 2.764 0 0 0 2.19 2.805Zm2-4.32c1.335 0 2.175.675 2.175 1.74 0 1.1-.81 1.77-2.145 1.77-1.365 0-2.2-.69-2.2-1.785-.009-1.05.845-1.73 2.165-1.73Zm-.03 9.18c-1.62 0-2.58-.72-2.58-1.95s.99-2.01 2.61-2.01 2.595.75 2.595 1.995c-.005 1.26-.95 1.965-2.63 1.965Zm8.55-3.765h3.208a14.655 14.655 0 0 1 2.04.1v-1.99a14.8 14.8 0 0 1-2.04.105h-3.21v-3.18h3.99a14.333 14.333 0 0 1 2.055.1v-2.02a15.332 15.332 0 0 1-2.055.105h-4.2a32.2 32.2 0 0 1-1.905-.045 12.953 12.953 0 0 1 .12 1.95v7.9a12.645 12.645 0 0 1-.12 2.13h2.235a12.938 12.938 0 0 1-.12-2.16Z" fill="#333"/></svg>