<svg xmlns="http://www.w3.org/2000/svg" width="132.272" height="78.487"><g data-name="グループ 1719"><g data-name="グループ 1718" fill="#005b88"><path data-name="パス 656" d="M35.78 9.442a2.29 2.29 0 0 0-2.1 2.441 2.121 2.121 0 1 0 2.1-2.441M21.541 5.665a2.457 2.457 0 1 0 2.1 2.439 2.294 2.294 0 0 0-2.1-2.439M7.257 9.439a2.281 2.281 0 0 0-2.112 2.441 2.122 2.122 0 1 0 2.112-2.441m12.953 1.843c0 .029.007.057.007.112v.17c0 .951-.222 4.767-3.907 6.087-4.266 1.511-6.587-3.31-6.683-3.515l-2.4 1.358 5.249 13.627 2.442-1.279s-1.428-3.688-2.835-7.332a6.867 6.867 0 0 0 5.02.11 8.224 8.224 0 0 0 4.508-3.907 7.887 7.887 0 0 0 4.391 3.929 6.873 6.873 0 0 0 4.992 0c-1.389 3.536-2.771 7.114-2.771 7.114l2.428 1.265 5.28-13.527-2.414-1.275a7.693 7.693 0 0 1-1.715 2.417 4.643 4.643 0 0 1-5.041 1.047c-3.762-1.3-3.859-6.215-3.88-6.424v-.091l-2.664.115m22.764 5.983c0 9.511-9.633 17.25-21.489 17.25S.01 26.777.01 17.266C.01 7.71 9.633-.003 21.492-.003s21.489 7.712 21.489 17.269"/><path data-name="パス 657" d="M66.745 7.74a16.612 16.612 0 0 1 10.474-3.037V3.088s-8.842-.237-15.007 3.025a15.453 15.453 0 0 0-7.292 7.674v-10.7h-6.493v28.026h6.493v-10.51a15.6 15.6 0 0 0 5.152 6.406c5.652 4.423 17.022 4.05 17.022 4.05v-1.421s-8.508.077-13.145-5.954c-4.474-5.829-2.3-12.342 2.8-15.944"/><path data-name="パス 658" d="M92.609 20.643h-9.493a9.3 9.3 0 0 1 1.49-4.206c2.911-4.263 8.257-.814 8 4.206m1.518-6.2c-5.457-2.649-13.145-.788-15.375 2.664-2.476 3.867-2.108 10.791 3.245 12.979 3.929 1.628 10.807 2.729 16.668-3.078l-.844-1.056a10.237 10.237 0 0 1-9.151 3.033c-3.6-.524-5.4-3.533-5.6-6.719h15.639s.334-5.423-4.586-7.823"/><path data-name="パス 659" d="M104.722 3.078c-2.025 0-3.675 1.352-3.675 3.037s1.65 3.052 3.675 3.052a3.393 3.393 0 0 0 3.648-3.052c0-1.685-1.63-3.037-3.648-3.037m3.019 27.981h-6.038V13.574h6.038Z"/><path data-name="パス 660" d="M121.593 14.534c-2.671 0-4.821 3.463-4.821 7.773 0 4.293 2.15 7.775 4.821 7.775s4.825-3.481 4.825-7.775c0-4.31-2.154-7.773-4.825-7.773m10.679 7.773c0 5.166-3.874 9.067-10.53 9.067-7.336 0-11.015-3.9-11.015-9.067s3.811-9.118 10.8-9.118c6.805 0 10.742 3.946 10.742 9.118"/></g><path data-name="パス 3980" d="M42.225 48.611v-1.848a19.232 19.232 0 0 0 3.836-.952c.252-.084.308-.112.462-.154l-1.148-1.358a11.471 11.471 0 0 1-4.718 1.19 16.275 16.275 0 0 1 .084 2.184c0 5.306-.35 7.14-1.68 8.764a6.46 6.46 0 0 1 1.386.924 8.53 8.53 0 0 0 1.246-2.814 18.269 18.269 0 0 0 .513-4.518h1.5v5.638a9.959 9.959 0 0 1-.084 1.652h1.638a9.659 9.659 0 0 1-.084-1.652v-5.638h.35a7.977 7.977 0 0 1 1.12.056v-1.556a6.924 6.924 0 0 1-1.274.084Zm-5.824 1.638v.994h-1.414a7.7 7.7 0 0 1-1.3-.07v1.484a7.836 7.836 0 0 1 1.274-.07h.91a7.207 7.207 0 0 1-2.45 2.408 5.248 5.248 0 0 1 .712 1.428 7 7 0 0 0 2.31-2.59c-.028.322-.042.686-.042.952v1.4a8.16 8.16 0 0 1-.07 1.106h1.61a6.707 6.707 0 0 1-.084-1.162v-1.4c0-.07-.014-.5-.014-.546-.014-.364-.014-.364-.028-.546a7.1 7.1 0 0 0 1.372 1.512 8.474 8.474 0 0 1 .672-1.33 6.14 6.14 0 0 1-1.442-1.232h.518a10.3 10.3 0 0 1 1.274.056v-1.47a7.732 7.732 0 0 1-1.274.07h-1.078v-.994h1.134a10.7 10.7 0 0 1 1.288.056v-1.5a7.713 7.713 0 0 1-1.288.07h-.28a5.033 5.033 0 0 0 .308-.616 2.722 2.722 0 0 1 .238-.518c.126-.308.126-.308.21-.49l-1.19-.336h.574a11.063 11.063 0 0 1 1.316.056v-1.5a7.7 7.7 0 0 1-1.3.07h-.952v-.21a5.132 5.132 0 0 1 .07-1.022h-1.694a5.394 5.394 0 0 1 .07 1.022v.21h-1.064a8.06 8.06 0 0 1-1.344-.07v1.5a10.914 10.914 0 0 1 1.316-.056h.658l-1.232.308a5.846 5.846 0 0 1 .611 1.654h-.336a7.6 7.6 0 0 1-1.3-.07v1.5a10.3 10.3 0 0 1 1.274-.056Zm1.68-3.332a7.862 7.862 0 0 1-.784 1.96h-1.918l1.246-.336a6.2 6.2 0 0 0-.6-1.624Zm15.176-1.442h-3.751a12.256 12.256 0 0 1-1.54-.07 7.4 7.4 0 0 1 .056 1.05v1.288a7.443 7.443 0 0 1-.07 1.05h1.526v-1.964h9.282v.952c-.28.014-.448.014-.672.014h-4.55a9.842 9.842 0 0 1-1.358-.07v1.414a9.7 9.7 0 0 1 1.316-.07h1.526a4.859 4.859 0 0 1-.434 1.134h-1.022a11.7 11.7 0 0 1-1.36-.052 10.635 10.635 0 0 1 .056 1.26v4.466a11.894 11.894 0 0 1-.07 1.386h1.582v-.588h4.144v.6H59.5a13.45 13.45 0 0 1-.069-1.566v-4.214a11.745 11.745 0 0 1 .056-1.344 12.6 12.6 0 0 1-1.428.056h-1.918a8.148 8.148 0 0 0 .476-1.134h1.582a11.662 11.662 0 0 1 1.316.07v-.35h.756a7.655 7.655 0 0 1-.056-1.05v-1.2a9.013 9.013 0 0 1 .056-1.134 11.444 11.444 0 0 1-1.554.07h-3.878v-.2a4.379 4.379 0 0 1 .084-.91h-1.736a6.159 6.159 0 0 1 .07.91Zm.518 6.006h4.144v1.26h-4.144Zm0 2.534h4.144v1.358h-4.144Zm-4.466-.28-.014 1.848a13.089 13.089 0 0 1-.089 1.694h1.652a21.157 21.157 0 0 1-.052-1.694v-5.376a17.35 17.35 0 0 0 .966-1.89 6.849 6.849 0 0 1 .364-.728l-1.484-.5a9.849 9.849 0 0 1-.646 1.578 9.381 9.381 0 0 1-2.59 3.122 4.76 4.76 0 0 1 .742 1.4 8.638 8.638 0 0 0 1.162-1.288c-.014.56-.014.56-.014.742v1.092Zm18.83-1.932h-1.792a9.662 9.662 0 0 1-1.246-.056 10.278 10.278 0 0 1 .056 1.232v2.55a12.986 12.986 0 0 1-.084 1.72h1.582v-.588h5.18v.6h1.6a12.046 12.046 0 0 1-.084-1.82v-2.28a13.808 13.808 0 0 1 .055-1.414 9.286 9.286 0 0 1-1.232.056h-2.568v-1.474h3a10.594 10.594 0 0 1 1.428.084v-1.54a9.088 9.088 0 0 1-1.484.084h-2.944v-.168a10.072 10.072 0 0 1 .056-1.386h-1.6a7.919 7.919 0 0 1 .07 1.386Zm-1.484 1.4h5.18v2.072h-5.18Zm.951-7.546h-3.163c-.63 0-1.162-.028-1.652-.07.042.49.056.938.056 2.128a32.22 32.22 0 0 1-.294 5.446 7.073 7.073 0 0 1-1.047 2.842 6.031 6.031 0 0 1 1.246 1.2c1.288-2.1 1.624-4.214 1.61-10.15h8.285c.686 0 1.316.028 1.736.07v-1.554a12.993 12.993 0 0 1-1.764.084h-3.472v-.5a3.519 3.519 0 0 1 .07-.868h-1.68a4.649 4.649 0 0 1 .07.854Zm21.21 1.778a4.041 4.041 0 0 0-.882-1.428 3.857 3.857 0 0 0-2.87-1.064 3.976 3.976 0 0 0-3.415 1.666 7.626 7.626 0 0 0-1.148 4.326 6.137 6.137 0 0 0 1.624 4.694 4.41 4.41 0 0 0 2.842.92 3.771 3.771 0 0 0 4.06-3.78 4.022 4.022 0 0 0-.5-2.1 3.641 3.641 0 0 0-3.248-1.666 3.249 3.249 0 0 0-3 1.4 6.157 6.157 0 0 1 .574-2.474 2.326 2.326 0 0 1 2.2-1.456 1.762 1.762 0 0 1 1.876 1.414Zm-3.863 3.094a2.021 2.021 0 0 1 2.212 2.2 2.388 2.388 0 0 1-.322 1.274 2.227 2.227 0 0 1-1.918.98 2.221 2.221 0 0 1-2.366-2.214 2.259 2.259 0 0 1 2.394-2.24Zm7.728.952h3a13.678 13.678 0 0 1 1.9.1v-1.864a13.811 13.811 0 0 1-1.9.1h-3v-2.97h3.725a13.378 13.378 0 0 1 1.918.1v-1.89a14.31 14.31 0 0 1-1.918.1h-3.92c-.854 0-1.2-.014-1.778-.042a12.09 12.09 0 0 1 .112 1.82v7.374a11.8 11.8 0 0 1-.114 1.988h2.086a12.075 12.075 0 0 1-.112-2.016ZM16.22 66.993v3.976c-.448.042-.84.056-.952.056a2.63 2.63 0 0 1-.266-.014l.168 1.33a7.754 7.754 0 0 1 .938-.14c.924-.1 2.212-.28 3.892-.546a6.114 6.114 0 0 1-.084.77h1.54a7.146 7.146 0 0 1-.084-1.232v-4.2a3.746 3.746 0 0 1 .6.07v-1.316a8.465 8.465 0 0 1-1.358.07h-4.13a12.091 12.091 0 0 1-1.358-.07v1.316a7.946 7.946 0 0 1 1.008-.07Zm1.372 0H20v.588h-2.408Zm0 1.6H20v.56h-2.408Zm0 1.568H20v.406c-1.008.154-1.624.238-2.408.294Zm2.982 3.752v.672h-2.716a11.478 11.478 0 0 1-1.33-.056v1.3a11.951 11.951 0 0 1 1.33-.056h2.716v.756h-3.836a13 13 0 0 1-1.582-.084v1.428a15.176 15.176 0 0 1 1.792-.084h8.974a15.947 15.947 0 0 1 1.806.084v-1.43a12.523 12.523 0 0 1-1.582.084h-4.074v-.756h3.01a11.951 11.951 0 0 1 1.33.056v-1.298a11.478 11.478 0 0 1-1.33.056h-3.01v-.676h3.472a14.407 14.407 0 0 1 1.484.056v-1.316a13.652 13.652 0 0 1-1.484.07h-8.162a11.014 11.014 0 0 1-1.512-.07v1.316a14.831 14.831 0 0 1 1.512-.056Zm1.68-3.066a8.786 8.786 0 0 1-.056 1.162 10.514 10.514 0 0 1 1.176-.056h2.832a9.639 9.639 0 0 1 1.162.056 10.337 10.337 0 0 1-.056-1.26v-3.378a10.635 10.635 0 0 1 .056-1.26 9.345 9.345 0 0 1-1.162.056h-2.828a9.441 9.441 0 0 1-1.176-.056 8.786 8.786 0 0 1 .056 1.162Zm1.428-3.346h2.156v3.118h-2.156Zm7.616 8.526c-.406.112-.406.112-.546.154v-3.518a10.582 10.582 0 0 1 .054-1.234h-1.37a7.349 7.349 0 0 1 .084 1.3v3.738a3.042 3.042 0 0 1-.63.07l.252 1.582a7.129 7.129 0 0 1 .826-.266c2.17-.6 2.17-.6 4.088-1.274l-.042-1.358c-.686.224-.9.294-1.386.434v-2.236h.21a8.232 8.232 0 0 1 1.078.056v-1.414a6.634 6.634 0 0 1-1.078.056h-.21v-1.736a11.07 11.07 0 0 1 1.12.042c-.028-.308-.042-.714-.042-1.526v-1.668a13.278 13.278 0 0 1 .056-1.47 10.119 10.119 0 0 1-1.288.056h-1.778a11.046 11.046 0 0 1-1.274-.056 13.365 13.365 0 0 1 .056 1.5v1.652a13.331 13.331 0 0 1-.056 1.512c.378-.028.686-.042 1.106-.042h.77Zm-.462-8.898h1.57v1.95h-1.57Zm6.258.336v.448h-1.3a10.048 10.048 0 0 1-1.26-.056v1.106c.448-.028.714-.042 1.26-.042h1.3v.462h-1.652a12.712 12.712 0 0 1-1.428-.07v1.26a12.636 12.636 0 0 1 1.414-.056h5.166c.476 0 .882.014 1.386.056v-1.26a12.164 12.164 0 0 1-1.4.07h-2.086v-.454h1.582c.546 0 .756.014 1.2.042v-1.11a9.183 9.183 0 0 1-1.218.056H38.49v-.448h1.75c.518 0 .952.014 1.386.056v-1.288a10.231 10.231 0 0 1-1.414.084H38.49a3.229 3.229 0 0 1 .084-.91H37.02a4.21 4.21 0 0 1 .07.91h-1.456a9.943 9.943 0 0 1-1.386-.084v1.292a14.39 14.39 0 0 1 1.372-.056Zm-1.2 8.736a7.713 7.713 0 0 1-2.814.966 8.9 8.9 0 0 1 .868 1.316 8.153 8.153 0 0 0 3.248-1.54l-.756-.742h2.548l-.7.742a8.583 8.583 0 0 0 3.22 1.526 8.851 8.851 0 0 1 .742-1.386 7.843 7.843 0 0 1-2.66-.882h.476a11.139 11.139 0 0 1 1.162.042 9.027 9.027 0 0 1-.056-1.3v-2.742a8.222 8.222 0 0 1 .056-1.26c-.35.028-.546.028-1.2.028h-4.326c-.63 0-.826 0-1.176-.028a8.839 8.839 0 0 1 .056 1.26v2.744a12.063 12.063 0 0 1-.056 1.3c.518-.042.742-.042 1.2-.042Zm.056-4.2h3.836v.448h-3.84Zm0 1.33h3.836v.462h-3.84Zm0 1.344h3.836v.476h-3.84Zm19.768 2.268c-1.05-.6-1.792-1.008-2.8-1.484a6.927 6.927 0 0 0 1.442-2.828 11.092 11.092 0 0 1 1.54.084v-1.55a11.519 11.519 0 0 1-1.54.084h-3.08c.476-1.134.476-1.134.56-1.3l-1.694-.266a7.44 7.44 0 0 1-.49 1.568h-.55a11.9 11.9 0 0 1-1.554-.084v.028a6.493 6.493 0 0 1-1.218-1.866h.448c.294 0 .574.014.868.042v-1.47a5.494 5.494 0 0 1-.882.056h-.49v-1.146a9.919 9.919 0 0 1 .07-1.442h-1.582a9.441 9.441 0 0 1 .07 1.456v1.134h-.714a6.482 6.482 0 0 1-1.036-.056v1.484a6.538 6.538 0 0 1 1.008-.056h.6a11.691 11.691 0 0 1-2.016 4.284 4.723 4.723 0 0 1 .77 1.442 9.83 9.83 0 0 0 1.5-3.08c-.07.756-.1 1.386-.1 2.044v2.6a14.206 14.206 0 0 1-.084 1.722h1.6a13.89 13.89 0 0 1-.084-1.722v-3.58a16.335 16.335 0 0 0-.084-1.946 8.384 8.384 0 0 0 .77 1.456 8.064 8.064 0 0 1 .462-.812c.028-.042.07-.112.126-.182v1.148a9.478 9.478 0 0 1 1.352-.07h.112a11.156 11.156 0 0 1-1.412 2.156 18.823 18.823 0 0 1 2.772 1.008 7.964 7.964 0 0 1-3.724 1.106 3.421 3.421 0 0 1 .784 1.372 8.712 8.712 0 0 0 4.41-1.764 30.717 30.717 0 0 1 2.858 1.736Zm-2.912-4.308a4.95 4.95 0 0 1-1.246 2.226c-.658-.28-.756-.322-1.764-.686.476-.812.63-1.078.854-1.54Zm-.238-3.808a17.609 17.609 0 0 0-1.162-3.318l-1.414.392a16.218 16.218 0 0 1 1.176 3.318Zm1.316 1.666a23.432 23.432 0 0 0 1.974-4.214l-1.456-.574a16.681 16.681 0 0 1-1.862 4.242Zm-3.962-1.288a21.313 21.313 0 0 0-1.4-3.22l-1.33.56a14.851 14.851 0 0 1 1.358 3.276Zm17 2.24a7.908 7.908 0 0 1 1.3.042v-1.512a6.858 6.858 0 0 1-1.218.084h-4.892a.525.525 0 0 0-.154.014 8.478 8.478 0 0 0 .532-1.218 4.307 4.307 0 0 1 .224-.49l-1.624-.364a6.049 6.049 0 0 1-.584 1.708 8.884 8.884 0 0 1-2.37 3.066 5.391 5.391 0 0 1 1.246.938 9.485 9.485 0 0 0 1.9-2.254l2.562-.014a5.336 5.336 0 0 1-1.75 3.99 6.5 6.5 0 0 1-2.17 1.176 3.772 3.772 0 0 1 1.036 1.344c3.01-1.33 4.27-3.178 4.452-6.51Zm13.524 4.648v-4.536h1.344a8.505 8.505 0 0 1 1.428.084v-1.68a9.941 9.941 0 0 1-1.428.07h-7v-1.918a33.7 33.7 0 0 0 6.818-1.148 1.9 1.9 0 0 0 .2-.07c.294-.07.294-.07.644-.168l-1.16-1.456a16.9 16.9 0 0 1-5.88 1.33c-1.134.112-1.792.154-2.156.154h-.126a13.008 13.008 0 0 1 .056 1.4v7.938h-.6a11.666 11.666 0 0 1-1.54-.084v1.72a12.276 12.276 0 0 1 1.54-.084h9.49a11.733 11.733 0 0 1 1.53.084v-1.72a11.148 11.148 0 0 1-1.526.084Zm-1.6 0h-4.064v-4.536h4.06Zm12.628-3.29h-1.796a9.662 9.662 0 0 1-1.246-.056 10.278 10.278 0 0 1 .056 1.232v2.55a12.986 12.986 0 0 1-.082 1.72h1.58v-.588h5.18v.6h1.6a12.046 12.046 0 0 1-.084-1.82v-2.28a13.808 13.808 0 0 1 .056-1.414 9.286 9.286 0 0 1-1.232.056H92.94v-1.474h3a10.6 10.6 0 0 1 1.428.084v-1.54a9.088 9.088 0 0 1-1.484.084h-2.94v-.168A10.072 10.072 0 0 1 93 68.403h-1.6a7.919 7.919 0 0 1 .07 1.386Zm-1.484 1.4h5.18v2.072h-5.184Zm.952-7.546h-3.168c-.63 0-1.162-.028-1.652-.07.042.49.056.938.056 2.128a32.22 32.22 0 0 1-.294 5.446 7.073 7.073 0 0 1-1.05 2.842 6.031 6.031 0 0 1 1.246 1.2c1.288-2.1 1.624-4.214 1.61-10.15h8.288c.686 0 1.316.028 1.736.07v-1.55a12.993 12.993 0 0 1-1.764.084h-3.472v-.5a3.519 3.519 0 0 1 .07-.868h-1.68a4.649 4.649 0 0 1 .07.854Zm16.576-.574a15.468 15.468 0 0 1-1.918.07h-4.456a15.464 15.464 0 0 1-1.918-.1v1.848a13.368 13.368 0 0 1 1.834-.1h4.326a23.137 23.137 0 0 0-2.45 4.074 20.926 20.926 0 0 0-1.694 5.418h2.212a18.032 18.032 0 0 1 2.6-7.574 9.527 9.527 0 0 1 1.456-2.016Zm3.836 6.4h3a13.678 13.678 0 0 1 1.9.1v-1.866a13.811 13.811 0 0 1-1.9.1h-3v-2.97h3.724a13.378 13.378 0 0 1 1.918.1v-1.892a14.31 14.31 0 0 1-1.918.1h-3.92c-.854 0-1.2-.014-1.778-.042a12.09 12.09 0 0 1 .112 1.82v7.376a11.8 11.8 0 0 1-.112 1.988h2.086a12.075 12.075 0 0 1-.112-2.016Z" fill="#333"/></g></svg>