<svg xmlns="http://www.w3.org/2000/svg" width="88.361" height="64.953"><g data-name="グループ 1716"><path data-name="パス 614" d="m30.046 14.737-3.862 1.653s-1.116-5.12-3.692-3.376a2.478 2.478 0 0 0-.689 2.087c0 2.366 2.276 3.454 5.058 6.667s3.116 4.214 3.116 6.792-1.73 7.245-6.146 7.245-6.333-4.922-6.333-7.913l3.832-1.636s.16 6.208 3.38 4.839c1.16-.49 1.875-2.661-.649-5.589-2.8-3.245-6.139-5.514-6.139-10.708 0-3.962 2.911-6.575 5.642-6.575a5.115 5.115 0 0 1 3.654 1.469 31.877 31.877 0 0 1 2.828 5.045" fill="#004f80"/><path data-name="パス 615" d="M33.28 8.975h11.428a2.666 2.666 0 0 0-.527 1.632c0 1.032.034 2.772.034 2.772h-6.638v5.679h5.382v4.3h-5.347v7.122h6.531v4.568H33.28V8.977" fill="#004f80"/><path data-name="パス 616" d="M46.434 8.975h12.558s-.374.164-.374 1.365v3.04h-3.839v21.711h-4.686V13.38H46.48l-.045-4.4" fill="#004f80"/><path data-name="パス 617" d="m64.55 24.293.973-9.106 1.223 9.106h-2.2m3.619 10.667h4.606s-3.56-23.994-3.654-24.793a3.576 3.576 0 0 1 .094-1.292h-6.763l-3.8 26.085h4.763l.607-5.74h3.387l.764 5.74" fill="#004f80"/><path data-name="パス 618" d="M87.889 8.836h-4.675v9.831l-2.918-8.552v-.17l-.23-.66-.187-.448H75.62v26.17h4.676V24.832l2.918 8.469.357 1.08.219.625h4.1V10.651c0-1.515.472-1.817.472-1.817h-.472" fill="#004f80"/><path data-name="パス 619" d="M2.022-.001h13.1a5.394 5.394 0 0 0-1.313 3.824v24.116s.768 5.2 3.536 7.243H0c2.769-2.046 3.53-7.243 3.53-7.243V3.823a5.423 5.423 0 0 0-1.3-3.824h-.208" fill="#004f80"/><path data-name="パス 620" d="M8.62 9.277a3.5 3.5 0 1 0-2.973-3.442A3.25 3.25 0 0 0 8.62 9.277" fill="#ffcd00"/></g><path data-name="パス 3978" d="M21.125 55.578v-1.98a20.606 20.606 0 0 0 4.11-1.02c.27-.09.33-.12.5-.165l-1.23-1.455a12.29 12.29 0 0 1-5.06 1.275 17.437 17.437 0 0 1 .09 2.34c0 5.685-.375 7.65-1.8 9.39a6.921 6.921 0 0 1 1.485.99 9.139 9.139 0 0 0 1.335-3.015 19.574 19.574 0 0 0 .555-4.845h1.605v6.04a10.671 10.671 0 0 1-.09 1.77h1.755a10.349 10.349 0 0 1-.09-1.77v-6.04h.375a8.546 8.546 0 0 1 1.2.06v-1.665a7.419 7.419 0 0 1-1.365.09Zm-6.24 1.755v1.065H13.37a8.247 8.247 0 0 1-1.4-.075v1.59a8.4 8.4 0 0 1 1.365-.075h.975a7.722 7.722 0 0 1-2.625 2.58 5.623 5.623 0 0 1 .765 1.53 7.5 7.5 0 0 0 2.48-2.775c-.03.345-.045.735-.045 1.02v1.5a8.744 8.744 0 0 1-.075 1.185h1.725a7.186 7.186 0 0 1-.09-1.245v-1.5c0-.075-.015-.54-.015-.585-.015-.39-.015-.39-.03-.585a7.608 7.608 0 0 0 1.47 1.62 9.079 9.079 0 0 1 .72-1.425 6.579 6.579 0 0 1-1.545-1.32h.555a11.033 11.033 0 0 1 1.365.06v-1.575a8.284 8.284 0 0 1-1.365.075h-1.155v-1.065h1.215a11.461 11.461 0 0 1 1.38.06v-1.605a8.264 8.264 0 0 1-1.38.075h-.3a5.393 5.393 0 0 0 .33-.66 2.916 2.916 0 0 1 .255-.555c.135-.33.135-.33.225-.525l-1.275-.36h.615a11.853 11.853 0 0 1 1.41.06v-1.605a8.247 8.247 0 0 1-1.4.075H16.5v-.225a5.5 5.5 0 0 1 .075-1.095H14.76a5.779 5.779 0 0 1 .075 1.095v.225H13.7a8.636 8.636 0 0 1-1.44-.075v1.605a11.693 11.693 0 0 1 1.41-.06h.7l-1.32.33a6.263 6.263 0 0 1 .66 1.77h-.36a8.138 8.138 0 0 1-1.395-.075v1.605a11.033 11.033 0 0 1 1.365-.06Zm1.8-3.57a8.424 8.424 0 0 1-.84 2.1H13.79l1.335-.36a6.641 6.641 0 0 0-.645-1.74Zm16.26-1.545h-4.02a13.132 13.132 0 0 1-1.65-.075 7.927 7.927 0 0 1 .06 1.125v1.38a7.975 7.975 0 0 1-.075 1.125h1.635v-2.1h9.945v1.02c-.3.015-.48.015-.72.015h-4.875a10.545 10.545 0 0 1-1.455-.075v1.515a10.4 10.4 0 0 1 1.41-.075h1.635a5.206 5.206 0 0 1-.465 1.215h-1.1a12.538 12.538 0 0 1-1.45-.055 11.394 11.394 0 0 1 .06 1.35v4.78a12.744 12.744 0 0 1-.08 1.485h1.7v-.63h4.44v.645h1.7a14.411 14.411 0 0 1-.08-1.68v-4.515a12.584 12.584 0 0 1 .06-1.435 13.5 13.5 0 0 1-1.53.06h-2.055a8.73 8.73 0 0 0 .51-1.215h1.7a12.5 12.5 0 0 1 1.41.075v-.38h.81a8.2 8.2 0 0 1-.065-1.125v-1.29a9.657 9.657 0 0 1 .06-1.215 12.262 12.262 0 0 1-1.665.075H34.64v-.21a4.692 4.692 0 0 1 .09-.975h-1.86a6.6 6.6 0 0 1 .075.975Zm.555 6.435h4.44v1.35H33.5Zm0 2.715h4.44v1.455H33.5Zm-4.785-.3-.015 1.98a14.024 14.024 0 0 1-.09 1.815h1.77c-.045-.555-.06-.99-.06-1.815v-5.76a18.589 18.589 0 0 0 1.035-2.025 7.338 7.338 0 0 1 .39-.78l-1.59-.54a10.553 10.553 0 0 1-.69 1.7 10.051 10.051 0 0 1-2.775 3.34 5.1 5.1 0 0 1 .8 1.5 9.255 9.255 0 0 0 1.24-1.38c-.015.6-.015.6-.015.795v1.17Zm20.175-2.07h-1.92a10.353 10.353 0 0 1-1.335-.06 11.012 11.012 0 0 1 .06 1.32v2.73a13.914 13.914 0 0 1-.095 1.845h1.7v-.63h5.55v.645h1.71a12.906 12.906 0 0 1-.09-1.95v-2.445a14.794 14.794 0 0 1 .06-1.515 9.949 9.949 0 0 1-1.32.06h-2.745v-1.575h3.21a11.351 11.351 0 0 1 1.53.09v-1.65a9.737 9.737 0 0 1-1.59.09h-3.15v-.18a10.792 10.792 0 0 1 .06-1.485h-1.71a8.484 8.484 0 0 1 .075 1.485Zm-1.59 1.5h5.55v2.22H47.3Zm1.02-8.085h-3.39c-.675 0-1.245-.03-1.77-.075.045.525.06 1.005.06 2.28a34.522 34.522 0 0 1-.32 5.835 7.579 7.579 0 0 1-1.12 3.045 6.462 6.462 0 0 1 1.335 1.29c1.38-2.255 1.74-4.515 1.725-10.875h8.88c.735 0 1.41.03 1.86.075v-1.665a13.921 13.921 0 0 1-1.89.09h-3.72v-.54a3.77 3.77 0 0 1 .075-.93h-1.8a4.981 4.981 0 0 1 .075.915Zm17.76-.615a16.573 16.573 0 0 1-2.055.075h-4.77a16.568 16.568 0 0 1-2.055-.105v1.98a14.323 14.323 0 0 1 1.965-.105H63.8a24.789 24.789 0 0 0-2.625 4.365 22.421 22.421 0 0 0-1.815 5.805h2.37a19.32 19.32 0 0 1 2.79-8.115 10.208 10.208 0 0 1 1.56-2.16Zm4.11 6.855h3.21a14.655 14.655 0 0 1 2.04.105v-1.995a14.8 14.8 0 0 1-2.04.105h-3.21v-3.18h3.99a14.333 14.333 0 0 1 2.055.1v-2.025a15.332 15.332 0 0 1-2.055.105h-4.2c-.915 0-1.29-.015-1.9-.045a12.953 12.953 0 0 1 .12 1.95v7.91a12.645 12.645 0 0 1-.12 2.13h2.23a12.938 12.938 0 0 1-.12-2.16Z" fill="#333"/></svg>