<svg xmlns="http://www.w3.org/2000/svg" width="112.658" height="76.46"><path data-name="パス 3981" d="M25.051 47.871v3.038a10.523 10.523 0 0 1-.07 1.444h1.61a9.635 9.635 0 0 1-.07-1.4v-3.558l1.89-.6c-.07 3.22-.07 3.234-.84 3.234a6.269 6.269 0 0 1-.812-.084 4.231 4.231 0 0 1 .392 1.408c.364.028.49.042.644.042a2.031 2.031 0 0 0 1.428-.378c.378-.35.518-1.274.588-3.808.056-1.484.056-1.484.056-1.666s.014-.28.014-.336a3.7 3.7 0 0 1 .014-.448 9.968 9.968 0 0 1-1.134.42l-2.24.686v-1.708a8.715 8.715 0 0 1 .084-1.5h-1.637a10.76 10.76 0 0 1 .084 1.484v2.17l-1.6.5v-1.306a9.759 9.759 0 0 1 .084-1.428h-1.652a8.926 8.926 0 0 1 .084 1.484v1.708a7.247 7.247 0 0 1-1.274.294l.336 1.638a8.329 8.329 0 0 1 .784-.308 1.356 1.356 0 0 0 .154-.04v4.842a1.1 1.1 0 0 0 .7 1.19 9.089 9.089 0 0 0 3.15.294c.91 0 2.1-.042 2.59-.1a2.037 2.037 0 0 0 1.19-.392c.476-.378.644-.91.8-2.548a4.719 4.719 0 0 1-1.484-.434c-.07 1.316-.14 1.624-.476 1.806a6.906 6.906 0 0 1-2.632.252 10.7 10.7 0 0 1-2-.112c-.266-.07-.35-.182-.35-.476v-4.8Zm-7.154-4.074a12.3 12.3 0 0 1 2.352 1.918l.994-1.218a15.031 15.031 0 0 0-2.366-1.82Zm-.56 3.542a13.264 13.264 0 0 1 2.464 1.834l.868-1.288a13.089 13.089 0 0 0-2.464-1.722Zm2.072 2.646a13.714 13.714 0 0 1-1.341 3.374 3.954 3.954 0 0 1-.588.826l1.358 1.176a18.606 18.606 0 0 0 1.83-4.466Zm20.02 3.108a8.469 8.469 0 0 0 1.764 1.26 12.6 12.6 0 0 0 2.66 1.036 5.921 5.921 0 0 1 .826-1.526 10.286 10.286 0 0 1-3.346-1.12 17.165 17.165 0 0 0 1.876-1.4l-1.148-.8h.56a10.223 10.223 0 0 1 1.6.084v-1.482a8.492 8.492 0 0 1-1.54.084h-4.186v-.5a4.538 4.538 0 0 1 .07-.966h-1.697a3.615 3.615 0 0 1 .084.966v.5h-3.794a9.161 9.161 0 0 1-1.54-.084v1.484a10.28 10.28 0 0 1 1.638-.084h2.366a12.371 12.371 0 0 1-4.354 1.876 4.2 4.2 0 0 1 .8 1.372 18.423 18.423 0 0 0 3.105-1.34v1.284c-.868.084-1.442.126-1.792.126h-.21l.28 1.652c.294-.056.336-.056.658-.1l2.1-.308a24.5 24.5 0 0 0 3.22-.672Zm-2.772-1.61a8.121 8.121 0 0 0 .854-.77c.042-.042.1-.1.182-.168h.042a5.926 5.926 0 0 0 1.6 2.464 23.143 23.143 0 0 1-2.674.532Zm5.208-.938a7 7 0 0 1-1.624 1.386 3.888 3.888 0 0 1-1.022-1.386Zm-2.52-5.67a5.508 5.508 0 0 1-.49-1.9 1.906 1.906 0 0 1 .014-.224l-1.68.14c.084.238.126.406.14.462a10.075 10.075 0 0 0 .462 1.68l-1.106.1a8.221 8.221 0 0 1-.966.056c-.112 0-.2 0-.364-.014l.154 1.456a7.959 7.959 0 0 1 1.274-.2l1.6-.154a5.127 5.127 0 0 0 4.1 2.618 1.641 1.641 0 0 0 1.3-.532 2.561 2.561 0 0 0 .56-1.12 4.374 4.374 0 0 1-1.19-.84c-.252.882-.42 1.12-.784 1.12a3.925 3.925 0 0 1-2.31-1.414l2.52-.252c.5-.056.84-.084 1.036-.084.238 0 .266 0 .462.014l-.14-1.434a10.274 10.274 0 0 1-1.5.224l-.658.056.812-.882a10.824 10.824 0 0 0-1.988-1.218l-.882.84a9.479 9.479 0 0 1 1.962 1.28Zm-5.866 2.688a5.682 5.682 0 0 1-.084 1.232h1.638a7.327 7.327 0 0 1-.07-1.274v-2.758c.336-.406.616-.756.826-1.036a4.234 4.234 0 0 1 .308-.406l-1.484-.63a9.771 9.771 0 0 1-3.388 3.444 5.768 5.768 0 0 1 .644.966c.042.07.1.168.182.294a15.711 15.711 0 0 0 1.428-1.162v1.33Zm16.716-1.148a13.166 13.166 0 0 1-4.872 5.376 4.826 4.826 0 0 1 .952 1.47 13.383 13.383 0 0 0 2.268-1.96v1.582a10.016 10.016 0 0 1 1.4-.084h1.106v.954a12.927 12.927 0 0 1-.1 1.736h1.764a12.651 12.651 0 0 1-.096-1.736v-.952h1.251a10.158 10.158 0 0 1 1.4.084v-1.6a15.607 15.607 0 0 0 2.347 1.948 5.713 5.713 0 0 1 .953-1.526 11.979 11.979 0 0 1-3.053-2.354 13.882 13.882 0 0 1-2.1-2.94h3a16.535 16.535 0 0 1 1.694.084v-1.706a11.5 11.5 0 0 1-1.694.1h-3.798v-1.008a6.989 6.989 0 0 1 .1-1.288h-1.749a8.7 8.7 0 0 1 .084 1.3v.994h-3.6a12.129 12.129 0 0 1-1.666-.1v1.708a15.986 15.986 0 0 1 1.666-.084Zm2.422 4.872v-2.212a11.313 11.313 0 0 0-.126-1.554 15.154 15.154 0 0 0 2.716 3.71 8.761 8.761 0 0 1-1.232.056Zm-1.568 0h-1.19a8.863 8.863 0 0 1-1.246-.056 13.883 13.883 0 0 0 2.548-3.71 13.709 13.709 0 0 0-.112 1.568Zm14.952-1.26h-1.792a9.662 9.662 0 0 1-1.241-.056 10.278 10.278 0 0 1 .051 1.232v2.55a12.986 12.986 0 0 1-.084 1.72h1.582v-.588h5.18v.6h1.6a12.046 12.046 0 0 1-.084-1.82v-2.28a13.808 13.808 0 0 1 .055-1.414 9.286 9.286 0 0 1-1.232.056h-2.568v-1.474h3a10.594 10.594 0 0 1 1.428.084v-1.54a9.088 9.088 0 0 1-1.484.084h-2.944v-.168a10.072 10.072 0 0 1 .056-1.386h-1.6a7.919 7.919 0 0 1 .07 1.386Zm-1.484 1.4h5.18v2.072h-5.18Zm.951-7.546h-3.163c-.63 0-1.162-.028-1.652-.07.042.49.056.938.056 2.128a32.22 32.22 0 0 1-.294 5.446 7.073 7.073 0 0 1-1.047 2.842 6.031 6.031 0 0 1 1.246 1.2c1.288-2.1 1.624-4.214 1.61-10.15h8.288c.686 0 1.316.028 1.736.07v-1.554a12.993 12.993 0 0 1-1.764.084h-3.475v-.5a3.519 3.519 0 0 1 .07-.868h-1.68a4.649 4.649 0 0 1 .07.854Zm21.238-.574a15.468 15.468 0 0 1-1.918.07h-4.451a15.464 15.464 0 0 1-1.918-.1v1.848a13.368 13.368 0 0 1 1.834-.1h4.326a23.136 23.136 0 0 0-2.45 4.074 20.926 20.926 0 0 0-1.694 5.422h2.212a18.032 18.032 0 0 1 2.6-7.574 9.527 9.527 0 0 1 1.456-2.016Zm3.836 6.4h3a13.678 13.678 0 0 1 1.9.1v-1.866a13.811 13.811 0 0 1-1.9.1h-3v-2.97h3.726a13.378 13.378 0 0 1 1.918.1v-1.89a14.31 14.31 0 0 1-1.918.1h-3.92c-.854 0-1.2-.014-1.778-.042a12.09 12.09 0 0 1 .112 1.82v7.374a11.8 11.8 0 0 1-.114 1.988h2.086a12.075 12.075 0 0 1-.112-2.016ZM27.207 69.319v5.534a11.148 11.148 0 0 1-.084 1.526h1.652a8.7 8.7 0 0 1-.084-1.512v-5.548h.21a7.8 7.8 0 0 1 1.232.07v-1.624a7.106 7.106 0 0 1-1.358.084h-3.178v-1.75a21.491 21.491 0 0 0 3.822-.854 5.9 5.9 0 0 1 .644-.182l-.8-1.428a13.112 13.112 0 0 1-5.222 1.176c.042.462.056.9.056 2.212a19.908 19.908 0 0 1-.448 5.18 6.4 6.4 0 0 1-1.981 3.094 4.582 4.582 0 0 1 1.162 1.162 10.778 10.778 0 0 0 .9-1.05 7.693 7.693 0 0 0 1.218-2.268 13.219 13.219 0 0 0 .616-3.822Zm-9.7-3.612a9.823 9.823 0 0 1 1.428-.07h3.178a9.33 9.33 0 0 1 1.456.07v-1.568a9.591 9.591 0 0 1-1.526.07h-3.024a10.526 10.526 0 0 1-1.512-.07Zm5.656 2.24q0-.819.042-1.26c-.434.028-.77.042-1.414.042h-2.268c-.672 0-1.022-.014-1.484-.042a17.34 17.34 0 0 1 .07 1.946c0 3.78-.238 5.208-1.106 6.692a4.409 4.409 0 0 1 1.246 1.106 9.742 9.742 0 0 0 1.246-4.984h2.324c.77.014 1.232.028 1.372.028-.028-.35-.028-.5-.028-1.12Zm-3.64 2.17c.014-.406.014-.532.014-1.064v-1.008h2.184v2.072Zm22.4-.392a12.843 12.843 0 0 1 1.4.056 10.914 10.914 0 0 1-.07-1.5v-2.588a12.329 12.329 0 0 1 .07-1.512 10.768 10.768 0 0 1-1.512.07h-4.354a12.273 12.273 0 0 1-1.6-.07c.056.7.07 1.288.07 2.3a23.685 23.685 0 0 1-.546 6.258 6.813 6.813 0 0 1-1.344 2.6 3.868 3.868 0 0 1 1.288 1.12 9.219 9.219 0 0 0 1.778-4.2 16.092 16.092 0 0 0 .28-2.534h1.785a10.691 10.691 0 0 0 1 3.192 9.835 9.835 0 0 0 2.828 3.458 5.7 5.7 0 0 1 1.036-1.442 7.261 7.261 0 0 1-2.548-2.73 8.006 8.006 0 0 1-.854-2.478Zm-4.508-1.386c.042-1.022.042-1.3.042-1.96v-.742h4.284v2.7Zm-5.586-3.5a12.389 12.389 0 0 1 2.45 1.988l.98-1.274a14.151 14.151 0 0 0-2.464-1.848Zm-.6 3.458a12.08 12.08 0 0 1 2.52 1.918l.9-1.316a13.772 13.772 0 0 0-2.52-1.764Zm2.086 2.716a11.756 11.756 0 0 1-2.03 4.186l1.33 1.162c.154-.252.294-.518.56-1.064a18.028 18.028 0 0 0 1.372-3.4Zm11.928 1.246a4.786 4.786 0 0 0 .266 1.162 3.3 3.3 0 0 0 1.232 1.6 5.629 5.629 0 0 0 2.94.728 4.64 4.64 0 0 0 3.346-1.064 3.257 3.257 0 0 0 .882-2.38 2.763 2.763 0 0 0-1.166-2.412 6.164 6.164 0 0 0-2.282-.854 11.919 11.919 0 0 1-1.974-.5 1.331 1.331 0 0 1-.952-1.274c0-.91.826-1.526 2.044-1.526a2.215 2.215 0 0 1 1.75.672 1.808 1.808 0 0 1 .42.994l2-.238a3.774 3.774 0 0 0-.681-1.628 4.127 4.127 0 0 0-3.489-1.414c-2.408 0-3.976 1.26-3.976 3.206a2.755 2.755 0 0 0 1.078 2.268 4.949 4.949 0 0 0 2.114.854 8.827 8.827 0 0 1 2.436.686 1.421 1.421 0 0 1 .7 1.288c0 1.05-.84 1.68-2.24 1.68a2.485 2.485 0 0 1-2.044-.826 2.007 2.007 0 0 1-.392-1.228Zm12.288 3.262v-2.044h-2.044v2.044Zm9.38-3.752a2.86 2.86 0 0 1-.462 1.284 2.673 2.673 0 0 1-2.268 1.04c-1.96 0-3.192-1.6-3.192-4.158s1.2-4.13 3.192-4.13a2.535 2.535 0 0 1 2.044.868 2.917 2.917 0 0 1 .6 1.2l1.946-.448a4.979 4.979 0 0 0-.432-1.072 4.3 4.3 0 0 0-1.484-1.526 4.947 4.947 0 0 0-2.687-.674 4.865 4.865 0 0 0-3.5 1.33 6.339 6.339 0 0 0-1.638 4.522 6.322 6.322 0 0 0 1.526 4.4 4.815 4.815 0 0 0 3.6 1.344 4.767 4.767 0 0 0 3.822-1.526 5.349 5.349 0 0 0 .938-2.1Zm5.5 3.752v-2.044h-2.043v2.044Zm14.632-11.214a15.468 15.468 0 0 1-1.918.07h-4.457a15.464 15.464 0 0 1-1.918-.1v1.848a13.368 13.368 0 0 1 1.834-.1h4.326a23.136 23.136 0 0 0-2.442 4.078 20.926 20.926 0 0 0-1.7 5.418h2.212a18.032 18.032 0 0 1 2.6-7.574 9.527 9.527 0 0 1 1.456-2.016Zm3.836 6.4h3a13.678 13.678 0 0 1 1.9.1v-1.866a13.811 13.811 0 0 1-1.9.1h-3v-2.97h3.724a13.378 13.378 0 0 1 1.918.1v-1.892a14.31 14.31 0 0 1-1.918.1h-3.92c-.854 0-1.2-.014-1.778-.042a12.09 12.09 0 0 1 .112 1.82v7.376a11.8 11.8 0 0 1-.112 1.988h2.086a12.075 12.075 0 0 1-.112-2.016Z" fill="#333"/><g data-name="グループ 1720"><path data-name="パス 661" d="M112.526 28.615a.135.135 0 0 1 .132.135.133.133 0 0 1-.132.135h-8.056a.159.159 0 0 1-.157-.162v-1.751c0-.139-.09-.226-.184-.184-1.3.539-4.85 3.217-9.386 2.275-5.242-1.09-6.608-5.26-6.608-9.987V.161a.156.156 0 0 1 .157-.16h4.1a.154.154 0 0 1 .157.16V20.57c0 4.526 1.345 7.221 5.11 7.5 3.592.264 6.659-2.983 6.659-3.508V.162a.156.156 0 0 1 .157-.16h4.085a.157.157 0 0 1 .16.16v23.164c0 4.234 1.233 5.29 3.8 5.29" fill="#0071ce"/><path data-name="パス 662" d="M79.616 13.298a.082.082 0 0 1 0-.163s5.642-1.409 4.968-7.232c-.7-6.013-7.729-5.9-9.9-5.9h-6.313a.153.153 0 0 0-.152.16v28.561a.156.156 0 0 0 .152.164h8.845c3.81 0 9-2.616 9-8.223 0-6.745-6.6-7.364-6.6-7.364m-6.829 14.608a.162.162 0 0 1-.157-.163V1.479a.16.16 0 0 1 .157-.163c2.376 0 7.743-.6 7.743 5.454 0 5.044-2.636 6.156-7.2 6.156a.158.158 0 0 0-.16.156v.771a.162.162 0 0 0 .16.163c4.456 0 8.312.844 8.312 6.173 0 8.473-4.748 7.719-8.854 7.719" fill="#0071ce"/><path data-name="パス 663" d="M16.745 28.891a.053.053 0 0 1-.052-.057v-.218a.161.161 0 0 1 .156-.164c3.206 0 3.356-2.948 3.356-6.11V.161a.158.158 0 0 1 .159-.156h13.242a.1.1 0 0 1 .108.105v6.61a.057.057 0 0 1-.053.055h-.255a.107.107 0 0 1-.1-.107 5.745 5.745 0 0 0-5.409-5.575h-3.116a.16.16 0 0 0-.16.16v11.383a.161.161 0 0 0 .16.164c.2 0 .452.014 1.195.014 4.641 0 5.242-2.519 5.552-3.6.017-.058.048-.108.1-.108h.139a.053.053 0 0 1 .053.053v8.633a.053.053 0 0 1-.053.051h-.139a.112.112 0 0 1-.1-.107c-.077-1.026-.674-3.724-5.2-3.724-.681 0-1.041.006-1.542.006a.157.157 0 0 0-.16.16v13.373a.159.159 0 0 0 .16.164h3.155c5.151 0 6.565-4.335 6.565-7.372a.162.162 0 0 1 .16-.162h.254a.106.106 0 0 1 .1.1v8.441a.159.159 0 0 1-.157.163Z" fill="#0071ce"/><path data-name="パス 664" d="M15.792.159A.16.16 0 0 0 15.635 0H8.406C3.012 0-.001 3.115-.001 7.61c0 5.231 4.92 6.565 5.489 6.923.764.473 5.145 1.7 7.157 3.141a5.16 5.16 0 0 1-1.435 9.349 8.028 8.028 0 0 1-8.546-3.047 10.784 10.784 0 0 1-1.7-5.245.158.158 0 0 0-.152-.163H.38a.107.107 0 0 0-.1.106v10.054a.166.166 0 0 0 .16.164c4.057 0 7.343.038 8.9-.129s7.163-.8 8.358-7.232c1.206-6.479-3.474-8.789-7.319-10.064-3.543-1.178-7.941-2.214-7.941-6.166 0-3.686 4.172-4.5 6.228-4.186a7.086 7.086 0 0 1 5.707 4.035 8.224 8.224 0 0 1 1.112 3.309.106.106 0 0 0 .1.1h.157a.051.051 0 0 0 .052-.055Z" fill="#0071ce"/><path data-name="長方形 178" fill="#fe3240" d="M37.921 0h26.891v28.881H37.921z"/><path data-name="パス 665" d="M49.159.159a.161.161 0 0 1 .16-.159h4.1a.16.16 0 0 1 .157.159v28.565a.165.165 0 0 1-.157.164h-4.1a.166.166 0 0 1-.16-.164Z" fill="#0071ce"/></g></svg>