<svg xmlns="http://www.w3.org/2000/svg" width="175.956" height="58.767"><g data-name="グループ 1715" fill="#231815"><path data-name="パス 644" d="m21.94 9.692.212-.16.208-.135h.052l.094.091-.028.114-.076.077-.2.149-.194.19-.083.093-.038.094.028.042.037.028.095-.014.384-.215.18-.028.094.038.028.042-.014.083-.174.122-.33.163-.052.081.01.042.083.041h.077l.5-.149.316-.056.312-.027.305.014.593.055.278-.014.263-.042.24-.093.114-.1.118-.121.083-.122.077-.242.027-.247v-.229a3.154 3.154 0 0 0-2.292-2.636l-.239-.052-.222-.014-.212.014-.194.067-.264.176-.08.079-.08.164-.08.326.015.784.1.513.014.243-.09.326-.159.378v.065l.052.042.107-.042"/><path data-name="パス 645" d="m31.164 15.456-.042-.708-.062-.691-.1-.68A15.76 15.76 0 0 0 17.738.166l-.094-.027-.042-.027A15.808 15.808 0 0 0 .294 12.824l-.094.474-.118.827-.069.624c-.9 21.63 29.06 23.687 31.133 2.144l.028-.718-.015-.718m-3.184.989-.094 1.082-.118.792c-2.913 14.492-22.8 13.749-24.526-.964l-.038-.84-.01-.828c1.182-15.783 22.42-16.831 24.716-.923l.07 1.124Z"/><path data-name="パス 646" d="m26.729 12.96-.066-.125-.094-.122-.461-.437-.225-.242-.184-.229-.24-.341-.094-.107-.225-.135-.1-.042-.225-.056h-.923l-.912.042-1.547.135-.159-.055-.066-.107-.024-.108c-.68-3.215.346-3.024-.083-4.654l-.236-.407-.33-.405-.381-.382-.385-.308c-.749-.549-1.815-1.1-2.588-.289l-.267.368-.17.354-.107.364-.145.732-.048.72.01.7.024.084.07.078.157.042.332.029.156.023.16.083.07.066.048.083.145 1.366.2 1.645v.312l-.052.066-.145.042-.212.015-.065-.028-.025-.028-.042-.149-.038-.065-.132-.149-.291-.219-.437-.229-.437-.107-.287-.028-.149.015-.278.079-.127.057-.278.163-.412.3-.26.271-.229.434-.659.149-.065-.028-.042-.068.042-.676.01-.067.032-.055.048-.055.516-.258.5-.312.252-.187.25-.219.25-.243.094-.121.1-.25.042-.243.01-.5-.038-.485-.107-.583-.1-.233-.08-.107-.1-.093-.211-.1h-.451l-.594.107-.107-.083-.01-.216.038-.218.014-.433-.025-.435-.083-.419-.076-.2-.122-.2-.145-.208-.2-.185-.09-.069a2.744 2.744 0 0 0-3.135.746l-.339.326-.32.337-.568.693-.1.164-.107.243.028.12.079.07.317.139.211.159.094.15.094.218.053.461v.149l-.025.067-.07.055-.291.066-.846.11-.329.014-.028-.027-.01-.07.065-.271-.042-.134-.034-.057-.125-.01-.25.107-.249.136a3.147 3.147 0 0 0-1.6 3.4l.132.381.09.191.122.19.172.174.25.19.17.07c.937.377 2.66-1.187 3.122-.42l.014.256-.028.177-.027.055-.118.081-1.863.759-.346.094-.33.07h-.3l-.15-.028-.135-.056-.132-.08-.1-.135-.038-.122-.024-.353-.015-.057-.042-.038c-.811.218-1.807 1.8-2.046 2.606l-.08.377-.015.393c.083.995.507 1.658 1.586 1.522l.486-.07.493-.1.489-.135h.117l.053.028-.011.052-.225.25-.207.364-.16.5-.042.243-.014.243.038.368.052.243c.11.3.291.787.621.884l.291.066.055.041-.055.042-.474.065-.472-.027c-.7.364-.385 1.925.048 2.5l.344.475.451.461c1.609 1.6 1.825.431 3.687.163l.434-.055.649.014.436.08.424.125c1.484.541 1.957 1.678 3.621 2.144l.423.12.621.108c2.536.215 4.808-1.1 6.621-2.806l.406-.413.015-.035-.015-.045h-.09l-.423.2-.042-.011-.025-.041.077-.083.385-.256.381-.289.187-.177.053-.076-.053-.017-.384.218-.277.112-.025-.045v-.042l.077-.077.555-.382.254-.258-.447.231-.375.135-.037-.009-.015-.045.067-.095 1.02-.76.065-.079.01-.042-.02-.028-.1.042-.739.486-.357.191-.357.163-.357.135-.114-.013-.015-.042.354-.215.715-.393.711-.461.521-.368.062-.066.014-.042-.076.014-.347.191-.7.336-.423.163-.077-.013-.014-.039.065-.083 1.03-.569.673-.406.122-.107-.028-.028-1.005.447-.659.2-.2.014-.042-.038.042-.083 1.307-.569.645-.329.108-.107-.212.055-.635.232-.631.177-.781.19-.214.011-.063-.011-.135-.135-.065-.149-.3-.954-.017-.15.1-.135.606-.406c.7-.666 2.289-1.3 2.314-2.427l.025-.3-.038-.6-.042-.15-.066-.148a2.62 2.62 0 0 0-1.887-.9l-.558-.042-.195.055-.069.07-.028.066v.135l.07.206v.134l-.07.136-.18.274-.242.271-.26.244-.135.1-.09.013-.025-.027-.083-.271-.343-1.658.017-.135.062-.052.132-.027h1.058l.514.027.516.052.5.07.5.093c.78.084 1.692-.1 1.745-1.082l-.015-.489-.065-.243m-14.668 2.9.319-.08 1.439-.245.1.016.042.024.028.094.038.815v.368l-.038.053-.055-.015a2.071 2.071 0 0 0-1.811-.988l-.065-.017Zm-3 2.144.02-.19c.142-.94 1.36-1.308 2.133-1.409l.194.015-.207.433-.132.351-.187.3-.264.257-.23.177-.194.139-.357.2-.264.112-.2.027-.145-.014-.108-.028-.062-.082Zm.618 2.143-.118.229-.028.083-.052.066-.132.1-.094.024h-.077l-.055-.038-.042-.1.018-.094.156-.325.385-.622.184-.274.409-.517.2-.211.2-.2.184-.148.038-.014.042.027.014.08-.159.357-.2.312-.4.541Zm.2.393-.028-.042.015-.039.117-.2.305-.392.3-.34.292-.271.131-.066.056.01.027.056-.281.475-.184.35-.212.49Zm1.454.013-.042.094-.077.07-.4-.054-.184-.053v-.069l.118-.178.277-.322.451-.447.052-.029.038.042v.108l-.1.42Zm.635.257-.042.056-.055.028-.195-.042-.184-.08v-.029l.025-.068.239-.3.222-.256.2-.206.095-.051.079.042v.08l-.052.162Zm.513.07-.132.136h-.079l-.038-.042.014-.042.118-.27.263-.487.132-.176h.08l.066.027.027.028v.067l-.249.461Zm1.613.395-.038.094-.079.056h-.19l-.9-.176-.222-.081-.028-.041.014-.045.659-.719.187-.172.09-.043.184-.013.174.042.077.052.055.083Zm2.955-6.066v-.042l.056-.093.042-.042.184-.038.766-.1h.174l.062.083.334 1.519.394 1.655.015.12-.052.056-.118.028h-.259l-.174-.068-.077-.109-.028-.107-.014-.232.028-.271-.028-.056h-.1a2.557 2.557 0 0 0-1.124 1.873l-.042.354h-.025l-.042-2.269Zm3.375 6.948-.028.055-.042.039-.117.055-.663.122-.778.014-.583-.041-.884-.15-.1-.023-.094-.07-.1-.149v-.541l.01-.628.055-.746.025.028.055.391.063.26.094.244.132.245.094.108.225.163.419.122.2.027.394-.013.372-.052.357-.073.538-.145.069.013.066.057.225.568Z"/><path data-name="パス 647" d="m21.774 10.188.212-.16.207-.135h.056l.09.09-.028.115-.076.076-.2.152-.194.191-.083.094-.038.093.024.039.046.028.09-.011.384-.214.184-.029.094.039.025.041-.01.084-.174.122-.33.162-.055.08.014.042.08.042h.08l.5-.148.316-.057.316-.027.305.014.6.055.277-.014.26-.041.242-.094.115-.1.117-.119.083-.122.077-.245.027-.247v-.229a3.163 3.163 0 0 0-2.3-2.646l-.239-.048-.222-.018-.212.018-.2.064-.264.174-.08.08-.08.167-.08.327.01.787.108.514.014.243-.09.326-.159.381v.064l.052.042.107-.042"/><path data-name="パス 648" d="m97.277 17.985-.365-.795-.409-.544-.447-.417-.489-.336-.489-.208-.974-.211-5.172-.333-.205-.042-.2-.079-.209-.132-.162-.162-.243-.379-.163-.378-.041-.378.082-.374.122-.376.2-.38.326-.329.326-.212.409-.125.285-.042h6.923v-1.8h-8.145l-.326.038a3.694 3.694 0 0 0-2.362 5.189l.369.544.485.5.531.378.774.29.53.084 5.294.338.489.206.246.208.406.461.205.5a2.117 2.117 0 0 1-.978 2.262l-.451.167-.892.125h-7.086v1.716h8.8a3.921 3.921 0 0 0 3.132-4.436l-.121-.544"/><path data-name="長方形 176" d="M67.591 9.955h2.525V23.09h-2.525z"/><path data-name="パス 649" d="M71.947 11.752h4.887v11.339h2.525V11.752h4.8v-1.8H71.947Z"/><path data-name="パス 650" d="M55.372 20.539 49.878 9.953h-3.056v13.18h1.752V13.005l5.13 9.792h2.445l5.251-9.958v10.249h2.567V9.953h-3.018Z"/><path data-name="長方形 177" d="M173.427 9.831h2.529V22.97h-2.529z"/><path data-name="パス 651" d="M167.322 15.103h-8.47V9.827h-2.6V22.97h2.563v-6.028h8.512v6.028h2.6V9.823h-2.6Z"/><path data-name="パス 652" d="m139.754 14.558-.247-.841-.284-.586c-3.289-5.765-14.246-4.423-14.623 2.888v1.089l.125.794c1.5 7.84 15.528 6.858 15.271-1.5l-.045-.8-.2-1.042m-2.366 2.675-.205.881-.364.836a5.132 5.132 0 0 1-9.691-2.053v-.75l.08-.673a5.138 5.138 0 0 1 10.181.3l.042 1Z"/><path data-name="パス 653" d="M110.185 17.027v1.88c-.516 3.826-7.71 3.792-8.182.084V9.913h-2.525v8.956l.162 1.005c.739 2.279 2.352 2.9 4.519 3.264l1.831.125.9-.042c2.227-.166 4.77-.711 5.578-3.18l.205-.794V9.913h-2.487v7.118"/><path data-name="パス 654" d="M124.154 9.913h-3.541l-6.923 6.279 7.333 6.818h3.784l-7.575-6.864Z"/><path data-name="パス 655" d="m153.812 17.985-.364-.795-.409-.544-.447-.417-.489-.336-.489-.208-.978-.211-5.167-.333-.205-.042-.2-.079-.208-.132-.163-.162-.239-.379-.167-.378-.042-.378.083-.374.125-.376.2-.38.326-.329.329-.212.406-.125.285-.042h6.922v-1.8h-8.144l-.326.038a3.7 3.7 0 0 0-2.366 5.189l.367.544.486.5.534.378.77.29.534.084 5.29.338.493.206.242.208.406.461.205.5a2.112 2.112 0 0 1-.982 2.262l-.447.167-.892.125h-7.087v1.716h8.8a3.926 3.926 0 0 0 3.135-4.436l-.125-.544"/></g><path data-name="パス 3977" d="M33.486 56.986a13.635 13.635 0 0 1-.078 1.573h1.547v-.78H41v.78h1.576a13.17 13.17 0 0 1-.08-1.573v-8.4a11.747 11.747 0 0 1 .065-1.326 10.461 10.461 0 0 1-1.4.065h-6.292a11.476 11.476 0 0 1-1.443-.065c.039.429.065.884.065 1.391Zm1.469-8.281H41v3.018h-6.045Zm0 4.381H41v3.328h-6.045Zm14.421-2.834a12.226 12.226 0 0 1-4.524 4.992 4.481 4.481 0 0 1 .884 1.365 12.427 12.427 0 0 0 2.106-1.82v1.469a9.3 9.3 0 0 1 1.3-.078h1.027v.884a12 12 0 0 1-.093 1.612h1.638a11.747 11.747 0 0 1-.091-1.612v-.884h1.153a9.432 9.432 0 0 1 1.3.078v-1.482a14.492 14.492 0 0 0 2.186 1.807 5.3 5.3 0 0 1 .884-1.417 11.123 11.123 0 0 1-2.834-2.184 12.891 12.891 0 0 1-1.95-2.73h2.782a15.354 15.354 0 0 1 1.573.078v-1.586a10.674 10.674 0 0 1-1.573.091h-3.523v-.936a6.49 6.49 0 0 1 .091-1.2h-1.625a8.081 8.081 0 0 1 .078 1.209v.923h-3.341a11.262 11.262 0 0 1-1.548-.087v1.586a14.844 14.844 0 0 1 1.547-.078Zm2.249 4.524v-2.053a10.505 10.505 0 0 0-.117-1.443 14.071 14.071 0 0 0 2.518 3.443 8.135 8.135 0 0 1-1.144.052Zm-1.456 0h-1.1a8.23 8.23 0 0 1-1.166-.053 12.892 12.892 0 0 0 2.366-3.445 12.731 12.731 0 0 0-.1 1.456Zm15.587-6.032c.117-.234.143-.3.286-.624a38.9 38.9 0 0 0 2.834-.338c.234-.039.273-.052.429-.065l-.793-1.118a12.6 12.6 0 0 1-2.249.429c-.871.1-2.626.208-3.523.208-.156 0-.4 0-.793-.026a3.015 3.015 0 0 1 .455 1.092c.3 0 1.287-.039 2.262-.091a3.349 3.349 0 0 1-.26.533h-1.209a7.653 7.653 0 0 1-1.2-.065v1.261a7.321 7.321 0 0 1 1.027-.052h.546a5.539 5.539 0 0 1-1.976 1.287 3.728 3.728 0 0 1 .7 1.053 8.512 8.512 0 0 0 1.053-.663v.468c0 .2-.013.481-.013.572-.013.182-.013.182-.026.325a8.525 8.525 0 0 1 .9-.026h2.925c.416 0 .65.013.9.026-.013-.481-.026-.78-.026-.9v-.585a8.968 8.968 0 0 0 1.495.793 4.939 4.939 0 0 1 .624-1.157 5.614 5.614 0 0 1-2.483-1.2h.845c.455 0 .949.026 1.326.065v-1.28a10.43 10.43 0 0 1-1.43.078Zm.39 1.144a6.013 6.013 0 0 0 .65.65h-2.288a6.859 6.859 0 0 0 .546-.65Zm-1.56 1.547h2.158v.572h-2.158Zm-3.614-1.183a6.621 6.621 0 0 1 .754.039v-1.326a4.506 4.506 0 0 1-.78.052h-.143v-.988a9.409 9.409 0 0 1 .065-1.352h-1.43a8.767 8.767 0 0 1 .065 1.352v.988h-.546a4.987 4.987 0 0 1-.871-.052v1.339a4.987 4.987 0 0 1 .871-.052h.429a12.938 12.938 0 0 1-.442 1.612 9.6 9.6 0 0 1-1.239 2.509 5.229 5.229 0 0 1 .754 1.274 12.311 12.311 0 0 0 1.144-2.756c-.052.494-.052.494-.091 1.56v2.691a13.1 13.1 0 0 1-.078 1.586h1.442a12.382 12.382 0 0 1-.078-1.586v-3.219c-.026-1.04-.026-1.04-.039-1.326 0-.091-.013-.221-.013-.4a8.5 8.5 0 0 0 .754 1.456 3.9 3.9 0 0 1 .715-1.079 6.09 6.09 0 0 1-1.365-2.314Zm5.772 7.124a4.337 4.337 0 0 1 .243 1.209c.65.026.728.026.858.026a2.615 2.615 0 0 0 1.366-.195c.247-.169.364-.481.364-1.027v-2.782c0-.442.013-.91.052-1.339a8.2 8.2 0 0 1-1.313.065h-5.343a8.653 8.653 0 0 1-1.131-.052c.039.481.052.689.052 1.17v2.717a15.1 15.1 0 0 1-.065 1.534h1.43a12.128 12.128 0 0 1-.052-1.456v-2.782h5.109v2.691c0 .221-.039.247-.377.247a3.171 3.171 0 0 1-.361-.013 4.679 4.679 0 0 1-.026-.754v-.9a7.618 7.618 0 0 1 .026-.871 5.649 5.649 0 0 1-.819.039h-2.031a5.867 5.867 0 0 1-.832-.039c.026.286.039.533.039.871v1.277a9.153 9.153 0 0 1-.039.949h1.082v-.585Zm-1.729-1.56h1.461v.585h-1.469Zm10.361-5.564a12.225 12.225 0 0 1-4.524 4.992 4.481 4.481 0 0 1 .884 1.365 12.427 12.427 0 0 0 2.106-1.82v1.469a9.3 9.3 0 0 1 1.3-.078h1.027v.884a12 12 0 0 1-.093 1.612h1.638a11.747 11.747 0 0 1-.091-1.612v-.884h1.153a9.432 9.432 0 0 1 1.3.078v-1.482a14.492 14.492 0 0 0 2.186 1.807 5.3 5.3 0 0 1 .884-1.417 11.123 11.123 0 0 1-2.834-2.184 12.891 12.891 0 0 1-1.95-2.73h2.782a15.354 15.354 0 0 1 1.573.078v-1.586a10.674 10.674 0 0 1-1.573.091h-3.523v-.936a6.49 6.49 0 0 1 .091-1.2h-1.625a8.081 8.081 0 0 1 .078 1.209v.923h-3.341a11.262 11.262 0 0 1-1.548-.087v1.586a14.844 14.844 0 0 1 1.547-.078Zm2.249 4.524v-2.053a10.505 10.505 0 0 0-.117-1.443 14.071 14.071 0 0 0 2.518 3.443 8.135 8.135 0 0 1-1.144.052Zm-1.456 0h-1.1a8.23 8.23 0 0 1-1.166-.053 12.892 12.892 0 0 0 2.366-3.445 12.73 12.73 0 0 0-.1 1.456Zm13.88-1.17h-1.664a8.972 8.972 0 0 1-1.157-.052 9.544 9.544 0 0 1 .048 1.144v2.366a12.059 12.059 0 0 1-.078 1.6h1.478v-.547h4.81v.559h1.478a11.185 11.185 0 0 1-.078-1.69v-2.119a12.821 12.821 0 0 1 .052-1.313 8.622 8.622 0 0 1-1.144.052h-2.38v-1.365h2.782a9.838 9.838 0 0 1 1.327.082v-1.43a8.439 8.439 0 0 1-1.378.078h-2.731v-.156a9.353 9.353 0 0 1 .052-1.292h-1.482a7.353 7.353 0 0 1 .065 1.287Zm-1.373 1.3h4.81v1.924h-4.81Zm.884-7.007h-2.943a17.61 17.61 0 0 1-1.534-.065c.039.455.052.871.052 1.976a29.919 29.919 0 0 1-.273 5.057 6.568 6.568 0 0 1-.975 2.639 5.6 5.6 0 0 1 1.157 1.117c1.2-1.95 1.508-3.913 1.5-9.425h7.7c.637 0 1.222.026 1.612.065v-1.44a12.065 12.065 0 0 1-1.638.078h-3.233v-.468a3.267 3.267 0 0 1 .065-.81h-1.56a4.317 4.317 0 0 1 .065.793Zm16.142 2.353a12.225 12.225 0 0 1-4.526 4.992 4.481 4.481 0 0 1 .884 1.365 12.427 12.427 0 0 0 2.106-1.82v1.469a9.3 9.3 0 0 1 1.3-.078h1.027v.884a12 12 0 0 1-.091 1.612h1.638a11.747 11.747 0 0 1-.091-1.612v-.884h1.157a9.432 9.432 0 0 1 1.3.078v-1.482a14.493 14.493 0 0 0 2.186 1.807 5.3 5.3 0 0 1 .884-1.417 11.123 11.123 0 0 1-2.834-2.184 12.891 12.891 0 0 1-1.95-2.73h2.784a15.354 15.354 0 0 1 1.573.078v-1.586a10.674 10.674 0 0 1-1.573.091h-3.525v-.936a6.49 6.49 0 0 1 .091-1.2h-1.625a8.081 8.081 0 0 1 .078 1.209v.923h-3.341a11.262 11.262 0 0 1-1.547-.091v1.586a14.844 14.844 0 0 1 1.547-.078Zm2.249 4.524v-2.053a10.505 10.505 0 0 0-.117-1.443 14.071 14.071 0 0 0 2.522 3.443 8.135 8.135 0 0 1-1.144.052Zm-1.456 0h-1.1a8.23 8.23 0 0 1-1.162-.053 12.892 12.892 0 0 0 2.366-3.445 12.731 12.731 0 0 0-.1 1.456Zm13.611 2.977a16.682 16.682 0 0 0-1.508-2.873l-1.092.455a6.89 6.89 0 0 1 .546.975c-.52.169-.741.234-1.547.429v-2.041h2.249a5.81 5.81 0 0 1 .767.039c-.026-.273-.026-.559-.026-1.053V51.24a9.18 9.18 0 0 1 .039-1.105 6.753 6.753 0 0 1-1.027.052H118v-.416a3.263 3.263 0 0 1 .052-.663h-1.3a3.292 3.292 0 0 1 .052.65v.429h-.7c-.325 0-.429 0-.663-.013a11.337 11.337 0 0 0 2.035-2.158 8.283 8.283 0 0 0 1.768 1.9 3.235 3.235 0 0 1 .572-.988v.806a7.973 7.973 0 0 1-.039.806h.572c.013.247.013.286.013.494v6.615a7.914 7.914 0 0 1-.065 1.118h1.417v-.663h2.769v.624h1.393a9.006 9.006 0 0 1-.05-1.144v-2.236a7.957 7.957 0 0 1 .039-1.025c-.273.026-.559.039-1.027.039h-3.133v-.939h2.717c.377 0 .65.013.962.039a6.194 6.194 0 0 1-.039-.988v-1.923h.9a5.779 5.779 0 0 1-.039-.884v-.975a8.674 8.674 0 0 1 .039-.91 11.053 11.053 0 0 1-1.269.065h-1.412v-.224a4.348 4.348 0 0 1 .065-.91h-1.521a6.225 6.225 0 0 1 .068.91v.221h-1.316c-.52 0-.793-.013-1.079-.039.026.234.026.39.039.806a6.39 6.39 0 0 1-1.744-1.869h-1.311a4.742 4.742 0 0 1-.989 1.287 8.151 8.151 0 0 1-1.6 1.261 5.558 5.558 0 0 1 .481 1.469c.247-.182.351-.26.507-.364.013.26.026.429.026.806v5.8a5.931 5.931 0 0 1-.845.1l.331 1.422a8.763 8.763 0 0 1 1.01-.276 26.114 26.114 0 0 0 2.89-.845c.1.26.208.52.364.988Zm4.784-7.774c-.234.013-.338.013-.546.013h-3.2v-.91h3.744Zm-3.185 1.131h2.314v1.17h-2.314Zm0 4.446h2.782v1.339h-2.782Zm-5.2-3.64v-.676h1.69v.676Zm0 .988h1.69v.728h-1.69Zm11.089 2.561a3.835 3.835 0 0 0 .819 1.417 3.8 3.8 0 0 0 2.963 1.131c2.418 0 3.913-1.417 3.913-3.705a3.2 3.2 0 0 0-.923-2.444 3.34 3.34 0 0 0-2.535-.975 3.2 3.2 0 0 0-2.223.793q.058-.39.078-.546l.208-2.275h3.055a12.47 12.47 0 0 1 1.794.1v-1.638a9.9 9.9 0 0 1-1.807.1h-3.2c-.689 0-.988-.013-1.378-.039-.013.65-.039 1.092-.052 1.326l-.3 3.224c-.026.364-.039.429-.169 1.352l1.625.156a1.491 1.491 0 0 1 .39-.585 2.285 2.285 0 0 1 1.612-.6 1.939 1.939 0 0 1 2.041 2.093 2.016 2.016 0 0 1-2.129 2.155 1.969 1.969 0 0 1-1.6-.663 1.78 1.78 0 0 1-.39-.754Zm11.244-2.158h2.782a12.7 12.7 0 0 1 1.768.091v-1.729a12.825 12.825 0 0 1-1.768.091h-2.782v-2.756h3.458a12.422 12.422 0 0 1 1.781.091V47.34a13.288 13.288 0 0 1-1.781.091h-3.64c-.793 0-1.118-.013-1.651-.039a11.226 11.226 0 0 1 .1 1.69v6.851a10.959 10.959 0 0 1-.1 1.846h1.937a11.213 11.213 0 0 1-.1-1.872Z" fill="#333"/></svg>