<svg xmlns="http://www.w3.org/2000/svg" width="159.928" height="77.175"><defs><clipPath id="a"><path data-name="長方形 2751" fill="none" d="M0 0h159.928v32.266H0z"/></clipPath></defs><path data-name="パス 4001" d="M36.372 43.445h-3.42a12.361 12.361 0 0 1-1.89-.105v1.8a16.229 16.229 0 0 1 1.89-.09h8.715a16.9 16.9 0 0 1 1.935.09v-1.8a13.162 13.162 0 0 1-1.935.105h-3.615v-1.02a5.6 5.6 0 0 1 .1-1.155h-1.89a6.063 6.063 0 0 1 .1 1.17Zm-3.9 9.225a17.192 17.192 0 0 1-1.95-.09v1.8a13.8 13.8 0 0 1 1.95-.1h9.78a13.39 13.39 0 0 1 1.905.1v-1.8a16.7 16.7 0 0 1-1.905.09h-2.7a45.349 45.349 0 0 0 1.92-5.19 8 8 0 0 1 .51-1.44l-1.935-.555A31.6 31.6 0 0 1 37.8 52.67Zm.345-6.48a30.149 30.149 0 0 1 1.65 5.865l1.68-.6a46.32 46.32 0 0 0-1.71-5.835Zm16-3.18a8.248 8.248 0 0 1 .09-1.62h-1.935a10.015 10.015 0 0 1 .1 1.575v3.24c0 .675-.1 2.46-.165 3.03a8.164 8.164 0 0 1-.51 2.085 7.236 7.236 0 0 1-1.26 2.235 6.889 6.889 0 0 1 1.4 1.41A11.225 11.225 0 0 0 48 52.31a15.6 15.6 0 0 0 .825-5.97Zm2.85-.945a12.354 12.354 0 0 1 .09 1.725v7.695a15.466 15.466 0 0 1-.09 1.905h1.92a15.241 15.241 0 0 1-.09-1.92v-7.68a13.6 13.6 0 0 1 .09-1.725Zm4.77-.675a11.223 11.223 0 0 1 .09 1.77v9.72a16.742 16.742 0 0 1-.09 2.01h1.935a13.5 13.5 0 0 1-.1-2.01v-9.72a10.669 10.669 0 0 1 .1-1.77Zm9.93 2.055h-3.42a12.361 12.361 0 0 1-1.89-.105v1.8a16.229 16.229 0 0 1 1.89-.09h8.715a16.9 16.9 0 0 1 1.938.09v-1.8a13.162 13.162 0 0 1-1.935.105H68.05v-1.02a5.6 5.6 0 0 1 .105-1.155h-1.89a6.063 6.063 0 0 1 .105 1.17Zm-3.9 9.225a17.192 17.192 0 0 1-1.95-.09v1.8a13.8 13.8 0 0 1 1.95-.1h9.78a13.39 13.39 0 0 1 1.9.1v-1.8a16.7 16.7 0 0 1-1.9.09h-2.7a45.349 45.349 0 0 0 1.92-5.19 8 8 0 0 1 .51-1.44l-1.935-.555A31.6 31.6 0 0 1 67.8 52.67Zm.345-6.48a30.149 30.149 0 0 1 1.65 5.865l1.68-.6a46.32 46.32 0 0 0-1.71-5.835ZM76.9 47.315a9.215 9.215 0 0 1-1.5-.09v1.65a10.29 10.29 0 0 1 1.5-.09h.81a8.476 8.476 0 0 1-.48 2.4 5.845 5.845 0 0 1-1.9 2.64 5.6 5.6 0 0 1 1.242 1.275 7.761 7.761 0 0 0 2.145-3.2 10.745 10.745 0 0 0 .57-3.12H81.1v4.68a11.144 11.144 0 0 1-.09 1.575h1.757a10.223 10.223 0 0 1-.09-1.59v-4.66h1.455a8.087 8.087 0 0 0 1.125 4.225A3.775 3.775 0 0 0 88 54.98a1.265 1.265 0 0 0 1.157-.765 4.12 4.12 0 0 0 .405-1.405 3.377 3.377 0 0 1-1.02-.48l.735-1.1a10.574 10.574 0 0 0-1.815-1.11 16.2 16.2 0 0 0 1.2-1.23l-.63-.465c.645-.2.93-.6 1.305-1.845a4.117 4.117 0 0 1-1.29-.615c-.1.675-.2.87-.405.87-.39 0-.975-.63-1.35-1.455a6.485 6.485 0 0 1-.492-2.805 6.935 6.935 0 0 1 .075-.975c-.555.045-.9.06-1.455.06h-6.438a14.389 14.389 0 0 1-1.845-.09v1.635a12.62 12.62 0 0 1 1.7-.075h6.49a6.516 6.516 0 0 0 .825 3.285 4.415 4.415 0 0 0 2.085 1.965 10.158 10.158 0 0 1-1.275 1.26l.885.8-.48.63a8.4 8.4 0 0 1 1.89 1.27c-.075.645-.195.9-.42.9-.435 0-1.14-.7-1.56-1.545a9.753 9.753 0 0 1-.66-4.02v-.4c-.63.015-.975.03-1.065.03h-1.875V44.66a10.8 10.8 0 0 1 .03-1.08h-1.65a10.442 10.442 0 0 1 .043 1.08v2.655h-1.738c.015-.27.03-.975.045-2.13.4-.225.645-.375 1.545-.93l-1.245-1a7.049 7.049 0 0 1-1.815 1.015 12.472 12.472 0 0 1-2.4.72 6.032 6.032 0 0 1 .78 1.35 14.979 14.979 0 0 0 1.545-.48c0 1.02 0 1.02-.015 1.455Zm9.857-3.375-.495.645a9.689 9.689 0 0 1 2.145 1.335l.78-1.185a9.328 9.328 0 0 0-1.83-1.035 17.171 17.171 0 0 0 1.543-1.335l-1.155-.93a9.047 9.047 0 0 1-1.74 1.62Zm10.635 5.235h-1.92a10.353 10.353 0 0 1-1.335-.06 11.012 11.012 0 0 1 .06 1.32v2.73a13.914 13.914 0 0 1-.09 1.845h1.7v-.63h5.55v.645h1.71a12.906 12.906 0 0 1-.09-1.95V50.63a14.793 14.793 0 0 1 .06-1.515 9.949 9.949 0 0 1-1.32.06h-2.75V47.6h3.21a11.351 11.351 0 0 1 1.53.09v-1.65a9.737 9.737 0 0 1-1.59.09h-3.15v-.18a10.792 10.792 0 0 1 .06-1.485h-1.71a8.485 8.485 0 0 1 .075 1.485Zm-1.59 1.5h5.55v2.22H95.8Zm1.02-8.085h-3.39c-.675 0-1.245-.03-1.77-.075.045.525.06 1.005.06 2.28a34.522 34.522 0 0 1-.315 5.835 7.579 7.579 0 0 1-1.125 3.045 6.462 6.462 0 0 1 1.335 1.29C93 52.71 93.357 50.45 93.342 44.09h8.88c.735 0 1.41.03 1.86.075V42.5a13.921 13.921 0 0 1-1.89.09h-3.72v-.54a3.77 3.77 0 0 1 .075-.93h-1.8a4.981 4.981 0 0 1 .075.915Zm13.62 8.565a3.962 3.962 0 0 0 .84 1.68 4.685 4.685 0 0 0 3.81 1.425 5.181 5.181 0 0 0 3.69-1.215 3.176 3.176 0 0 0 .9-2.19 2.881 2.881 0 0 0-.72-2.07 3.156 3.156 0 0 0-2.145-1.005 3.7 3.7 0 0 0 1.455-.585 2.735 2.735 0 0 0 1.035-2.2c0-1.95-1.62-3.21-4.125-3.21a4.87 4.87 0 0 0-2.94.825 3.727 3.727 0 0 0-1.425 2.14l2.145.36a2.2 2.2 0 0 1 .63-1.155 2.5 2.5 0 0 1 1.635-.465c1.275 0 1.98.585 1.98 1.62 0 1.155-.885 1.845-2.385 1.845a10.283 10.283 0 0 1-1.455-.075v1.86a12.808 12.808 0 0 1 1.6-.075 3.886 3.886 0 0 1 1.725.36 1.748 1.748 0 0 1 .84 1.575c0 1.185-.945 1.95-2.43 1.95a2.832 2.832 0 0 1-1.815-.585 1.948 1.948 0 0 1-.705-1.23Zm13.246-2.325h3.212a14.655 14.655 0 0 1 2.04.105V46.94a14.8 14.8 0 0 1-2.04.105h-3.21v-3.18h3.99a14.333 14.333 0 0 1 2.055.1V41.94a15.332 15.332 0 0 1-2.055.105h-4.2a32.2 32.2 0 0 1-1.905-.045 12.953 12.953 0 0 1 .12 1.95v7.91a12.645 12.645 0 0 1-.12 2.13h2.235a12.938 12.938 0 0 1-.12-2.16ZM49.722 68.16a13.461 13.461 0 0 1 1.485-.06h2.37v.765h-2.115c-.51 0-.855-.015-1.185-.045.03.375.045.72.045 1.125v3.345c0 .525-.015.735-.045 1.11.345-.03.7-.045 1.155-.045h1.05a3.888 3.888 0 0 1-.72.555 6.958 6.958 0 0 1-2.565.87 5.445 5.445 0 0 1 .855 1.35 8 8 0 0 0 2.055-.765 5.245 5.245 0 0 0 1.515-1.11l-.87-.9h3.015l-.825.84a8.433 8.433 0 0 0 3.585 1.98 7.274 7.274 0 0 1 .78-1.455 8.423 8.423 0 0 1-2.175-.69 4.7 4.7 0 0 1-1.095-.675h1.32c.465 0 .81.015 1.155.045-.03-.315-.045-.69-.045-1.275V69.96c0-.48.015-.825.045-1.14-.33.03-.645.045-1.185.045H55V68.1h2.745a12.938 12.938 0 0 1 1.485.075V66.71a13.139 13.139 0 0 1-1.545.075h-.87v-1.01h.645q.945 0 1.44.045v-1.44a13.582 13.582 0 0 1-1.455.075h-.63v-.21a4.4 4.4 0 0 1 .075-1h-1.635a6.573 6.573 0 0 1 .06 1v.21H53.4v-.225a6.008 6.008 0 0 1 .06-.99h-1.635a4.493 4.493 0 0 1 .075.99v.225h-.39a12.622 12.622 0 0 1-1.4-.075v1.455a12.016 12.016 0 0 1 1.41-.06h.375v1.005h-.72a11.283 11.283 0 0 1-1.335-.06v-.885a5.239 5.239 0 0 1-.885.06h-.285v-1.17a10.378 10.378 0 0 1 .075-1.545H47.02a10.115 10.115 0 0 1 .075 1.56v1.155h-.555a5.754 5.754 0 0 1-1-.06v1.575a4.4 4.4 0 0 1 1-.075h.435a11.788 11.788 0 0 1-1.89 4.38 5.852 5.852 0 0 1 .87 1.47 10.592 10.592 0 0 0 1.245-2.91c-.06 1.32-.09 2.025-.09 2.1v2.895a15.221 15.221 0 0 1-.09 1.845h1.74a15.05 15.05 0 0 1-.09-1.845v-3.735c0-.8-.03-1.485-.075-2.13a11.369 11.369 0 0 0 .84 1.605 5.608 5.608 0 0 1 .825-1.245 6.149 6.149 0 0 1-1.5-2.43h.225c.24 0 .525.015.735.03Zm5.6-1.38H53.4v-1.005h1.92Zm-1.74 3.345v.885h-1.755v-.885Zm0 2.04v.915h-1.755v-.915ZM55 73.08v-.915h1.965v.915Zm0-2.07v-.885h1.965v.885Zm16.65.42v-2.8h.555a12.663 12.663 0 0 1 1.6.075V67.08a11.031 11.031 0 0 1-1.6.09H66.76v-1.41a24.887 24.887 0 0 0 5.58-.87c.225-.06.885-.255 1.05-.315l-1.212-1.395a7.355 7.355 0 0 1-1.966.63 24.747 24.747 0 0 1-4.89.57h-.21a14.385 14.385 0 0 1 .06 1.65v5.4h-.27a7.082 7.082 0 0 1-1.17-.075v1.59a12.747 12.747 0 0 1 1.4-.06h7.455a11.085 11.085 0 0 1 1.59.09V71.34a10.8 10.8 0 0 1-1.59.09Zm-1.575 0H66.76v-2.8h3.315Zm-9.225-6.9a13.76 13.76 0 0 1 2.52 2.07l1.05-1.3a15.268 15.268 0 0 0-2.562-1.97Zm-.55 3.78a12.286 12.286 0 0 1 2.655 1.92l.93-1.4a14.979 14.979 0 0 0-2.67-1.77Zm1.95 2.82a12.953 12.953 0 0 1-1.965 4.65l1.455 1.215c.075-.15.075-.15.18-.345.03-.06.12-.27.285-.615A25.975 25.975 0 0 0 63.6 72.06Zm6.84 2.955a12.592 12.592 0 0 0 4.335 2.97 5.054 5.054 0 0 1 .93-1.545 10.562 10.562 0 0 1-2.2-.99 9.227 9.227 0 0 1-1.725-1.365Zm-2.55-.93a6.608 6.608 0 0 1-1.47 1.38 8.375 8.375 0 0 1-2.145 1.08 4.075 4.075 0 0 1 .96 1.4 11.579 11.579 0 0 0 4.02-2.94Zm15.855-1.98h-1.922a10.353 10.353 0 0 1-1.335-.06 11.012 11.012 0 0 1 .06 1.32v2.73a13.914 13.914 0 0 1-.09 1.845H80.8v-.63h5.55v.645h1.71a12.906 12.906 0 0 1-.09-1.95V72.63a14.794 14.794 0 0 1 .06-1.515 9.949 9.949 0 0 1-1.32.06h-2.742V69.6h3.21a11.351 11.351 0 0 1 1.53.09v-1.65a9.737 9.737 0 0 1-1.59.09h-3.15v-.18a10.792 10.792 0 0 1 .06-1.485h-1.71a8.484 8.484 0 0 1 .075 1.485Zm-1.595 1.5h5.55v2.22H80.8Zm1.02-8.085h-3.39c-.675 0-1.245-.03-1.77-.075.045.525.06 1.005.06 2.28a34.522 34.522 0 0 1-.315 5.835 7.579 7.579 0 0 1-1.125 3.045 6.462 6.462 0 0 1 1.335 1.29c1.385-2.25 1.743-4.515 1.728-10.875h8.88c.735 0 1.41.03 1.86.075V64.5a13.921 13.921 0 0 1-1.89.09h-3.721v-.54a3.77 3.77 0 0 1 .075-.93h-1.8a4.981 4.981 0 0 1 .075.915Zm13.62 8.565a3.962 3.962 0 0 0 .84 1.68 4.685 4.685 0 0 0 3.81 1.425 5.181 5.181 0 0 0 3.69-1.215 3.176 3.176 0 0 0 .9-2.19 2.881 2.881 0 0 0-.72-2.07 3.156 3.156 0 0 0-2.145-1.005 3.7 3.7 0 0 0 1.455-.585 2.735 2.735 0 0 0 1.035-2.2c0-1.95-1.62-3.21-4.125-3.21a4.87 4.87 0 0 0-2.94.825 3.727 3.727 0 0 0-1.425 2.145l2.145.36a2.2 2.2 0 0 1 .63-1.155 2.5 2.5 0 0 1 1.635-.465c1.275 0 1.98.585 1.98 1.62 0 1.155-.885 1.845-2.385 1.845a10.283 10.283 0 0 1-1.455-.075v1.86a12.808 12.808 0 0 1 1.6-.075 3.886 3.886 0 0 1 1.725.36 1.748 1.748 0 0 1 .84 1.575c0 1.185-.945 1.95-2.43 1.95a2.832 2.832 0 0 1-1.815-.585 1.948 1.948 0 0 1-.7-1.23Zm13.248-2.325h3.212a14.655 14.655 0 0 1 2.04.1v-1.99a14.8 14.8 0 0 1-2.04.105h-3.21v-3.18h3.99a14.333 14.333 0 0 1 2.055.1v-2.02a15.332 15.332 0 0 1-2.055.105h-4.2c-.915 0-1.29-.015-1.9-.045a12.953 12.953 0 0 1 .12 1.95v7.9a12.645 12.645 0 0 1-.12 2.13h2.235a12.938 12.938 0 0 1-.12-2.16Z" fill="#333"/><g data-name="グループ 1726"><g data-name="グループ 1725" clip-path="url(#a)"><path data-name="パス 3989" d="M50.229 12.905a4.843 4.843 0 1 0 4.72 4.838 4.777 4.777 0 0 0-4.72-4.838" fill="#006db6"/><path data-name="パス 3990" d="M19.262 17.746a4.843 4.843 0 1 0 4.713 4.842 4.773 4.773 0 0 0-4.713-4.842" fill="#0093d1"/><path data-name="パス 3991" d="M34.827 8.069a3.184 3.184 0 0 0-3.137 3.228v17.746a3.139 3.139 0 1 0 6.276 0V11.297a3.189 3.189 0 0 0-3.139-3.226" fill="#0093d1"/><path data-name="パス 3992" d="M3.923.001A3.978 3.978 0 0 0 0 4.038v24.195a3.978 3.978 0 0 0 3.923 4.034 3.978 3.978 0 0 0 3.923-4.034V4.038A3.978 3.978 0 0 0 3.923.001" fill="#006db6"/><path data-name="パス 3993" d="M70.049 22.49h4.866v3.639h-8.922V9.598h4.055Z" fill="#4b5253"/><path data-name="パス 3994" d="M79.593 20.524a2.426 2.426 0 1 0 4.849 0 2.428 2.428 0 1 0-4.849 0m8.5 5.6H84.32v-1.24h-.044a3.653 3.653 0 0 1-3.206 1.619c-3.151 0-5.358-2.787-5.358-6s2.169-6 5.31-6a4.246 4.246 0 0 1 3.3 1.477v-1.1h3.764Z" fill="#4b5253"/><path data-name="パス 3995" d="M94.619 22.49h4.866v3.639h-8.931V9.598h4.065Z" fill="#4b5253"/><path data-name="パス 3996" d="M104.157 20.524a2.43 2.43 0 1 0 4.856 0 2.431 2.431 0 1 0-4.856 0m8.495 5.6h-3.764v-1.24h-.046a3.643 3.643 0 0 1-3.2 1.619c-3.146 0-5.366-2.787-5.366-6s2.176-6 5.317-6a4.225 4.225 0 0 1 3.3 1.477v-1.1h3.764Z" fill="#4b5253"/><path data-name="パス 3997" d="M118.771 20.525a2.424 2.424 0 1 0 4.845 0 2.426 2.426 0 1 0-4.845 0m.125-4.374h.038a3.718 3.718 0 0 1 3.219-1.643c3.165 0 5.354 2.814 5.354 6.033 0 3.247-2.169 5.964-5.316 5.964a4.248 4.248 0 0 1-3.3-1.445v5.678h-3.762V14.886h3.764Z" fill="#4b5253"/><path data-name="パス 3998" d="M132.887 20.524a2.425 2.425 0 1 0 4.846 0 2.426 2.426 0 1 0-4.846 0m8.824 0c0 3.812-2.98 5.981-6.4 5.981-3.4 0-6.4-2.148-6.4-5.981s2.976-6.015 6.402-6.015 6.4 2.176 6.4 6.017" fill="#4b5253"/><path data-name="パス 3999" d="M147.275 16.723h.046a3.637 3.637 0 0 1 3.441-1.993h.721v3.845a2.881 2.881 0 0 0-1.595-.376c-2.09 0-2.613 1.467-2.613 3.4v4.536h-3.767V14.886h3.767Z" fill="#4b5253"/><path data-name="パス 4000" d="M157.797 26.129h-3.76v-7.958h-1.23v-3.286h1.23v-3.382h3.76v3.383h2.131v3.286h-2.131Z" fill="#4b5253"/></g></g></svg>