<svg xmlns="http://www.w3.org/2000/svg" width="118.272" height="58.463"><defs><clipPath id="a"><path data-name="長方形 2752" fill="none" d="M0 0h118.272v33.78H0z"/></clipPath></defs><path data-name="パス 4012" d="M7.87 47.573c.015.24.015.33.015.45a13.943 13.943 0 0 1-1.9 6.2A8.955 8.955 0 0 1 4 56.598a6.716 6.716 0 0 1 1.47 1.37 11.562 11.562 0 0 0 1.26-1.455 15.315 15.315 0 0 0 2.025-3.99 21.2 21.2 0 0 0 .975-4.245 3.69 3.69 0 0 1 .09-.495Zm2.385-2.175a11.555 11.555 0 0 1-1.62-.09v1.755c.45-.045.99-.075 1.575-.075h2.1c.165 1.035.24 1.59.255 1.665a23.257 23.257 0 0 0 .975 3.705 14.647 14.647 0 0 0 3.48 5.58 6.95 6.95 0 0 1 1.44-1.41 12.4 12.4 0 0 1-3.45-5.34A18.612 18.612 0 0 1 14 45.833a2.743 2.743 0 0 1 .03-.495c-.465.045-.96.06-1.755.06Zm20.775 3.54a13.757 13.757 0 0 1 1.815.105v-1.77a12.05 12.05 0 0 1-1.815.1h-4.035v-1.425a7.381 7.381 0 0 1 .105-1.38h-1.95a7.446 7.446 0 0 1 .1 1.395v1.41h-3.82a12.93 12.93 0 0 1-1.8-.1v1.77a13.373 13.373 0 0 1 1.8-.105h3.285a14.044 14.044 0 0 1-5.64 5.925 5.594 5.594 0 0 1 1.11 1.535 14.565 14.565 0 0 0 5.145-5.78c-.045.585-.075 1.26-.075 1.635v4.17a13.936 13.936 0 0 1-.1 1.875h1.95a13.554 13.554 0 0 1-.105-1.86v-4.2a15.41 15.41 0 0 0-.1-1.7 14.366 14.366 0 0 0 2.42 3.41 18.392 18.392 0 0 0 2.9 2.385 6.379 6.379 0 0 1 1.155-1.59 13.462 13.462 0 0 1-5.84-5.805Zm12.225-2.085c.135-.27.165-.345.33-.72 1.02-.075 2.55-.27 3.27-.39.27-.045.315-.06.495-.075l-.915-1.29a14.538 14.538 0 0 1-2.595.495c-1.005.12-3.03.24-4.065.24-.18 0-.465 0-.915-.03a3.478 3.478 0 0 1 .525 1.26c.345 0 1.485-.045 2.61-.1a3.865 3.865 0 0 1-.3.615h-1.4a8.83 8.83 0 0 1-1.38-.075v1.455a8.447 8.447 0 0 1 1.185-.06h.63a6.391 6.391 0 0 1-2.28 1.485 4.3 4.3 0 0 1 .81 1.215 9.822 9.822 0 0 0 1.22-.77v.54c0 .225-.015.555-.015.66-.015.21-.015.21-.03.375a9.837 9.837 0 0 1 1.035-.03h3.375c.48 0 .75.015 1.035.03-.015-.555-.03-.9-.03-1.035v-.675a10.348 10.348 0 0 0 1.725.915 5.7 5.7 0 0 1 .72-1.335 6.478 6.478 0 0 1-2.865-1.38h.975c.525 0 1.095.03 1.53.075v-1.485a12.035 12.035 0 0 1-1.65.09Zm.45 1.32a6.938 6.938 0 0 0 .75.75h-2.64a7.915 7.915 0 0 0 .63-.75ZM41.9 49.958h2.49v.66H41.9Zm-4.165-1.36a7.639 7.639 0 0 1 .87.045v-1.535a5.2 5.2 0 0 1-.9.06h-.165v-1.14a10.857 10.857 0 0 1 .075-1.56h-1.65a10.116 10.116 0 0 1 .075 1.56v1.14h-.63a5.754 5.754 0 0 1-1.01-.06v1.545a5.754 5.754 0 0 1 1.01-.055h.49a14.928 14.928 0 0 1-.51 1.86 11.072 11.072 0 0 1-1.42 2.89 6.033 6.033 0 0 1 .87 1.47 14.205 14.205 0 0 0 1.32-3.18c-.06.57-.06.57-.1 1.8v3.105a15.121 15.121 0 0 1-.09 1.83h1.665a14.287 14.287 0 0 1-.09-1.83v-3.72c-.03-1.2-.03-1.2-.045-1.53 0-.105-.015-.255-.015-.465a9.812 9.812 0 0 0 .87 1.68 4.5 4.5 0 0 1 .825-1.245 7.027 7.027 0 0 1-1.58-2.665Zm6.66 8.22a5 5 0 0 1 .285 1.4c.75.03.84.03.99.03a3.017 3.017 0 0 0 1.575-.235c.285-.195.42-.555.42-1.185v-3.21c0-.51.015-1.05.06-1.545a9.46 9.46 0 0 1-1.515.075h-6.165a9.985 9.985 0 0 1-1.305-.06c.045.555.06.8.06 1.35v3.135a17.422 17.422 0 0 1-.075 1.77h1.65a13.994 13.994 0 0 1-.06-1.68v-3.21h5.9v3.105c0 .255-.045.285-.435.285a3.659 3.659 0 0 1-.42-.015 5.4 5.4 0 0 1-.03-.87v-1.035a8.79 8.79 0 0 1 .03-1.005 6.518 6.518 0 0 1-.945.045h-2.34a6.77 6.77 0 0 1-.96-.045c.03.33.045.615.045 1.005v1.475a10.562 10.562 0 0 1-.05 1.09h1.245v-.675Zm-1.995-1.8h1.695v.675H42.4Zm13.035-8.5a15.29 15.29 0 0 1-.72 1.95h-2.37a13.127 13.127 0 0 1-1.41-.075c.045.45.075.975.075 1.515v6.56a18.154 18.154 0 0 1-.09 1.89h1.755v-.81H59.8v.81h1.77c-.06-.66-.09-1.275-.09-1.89v-6.54c0-.555.03-1.1.075-1.545a11.619 11.619 0 0 1-1.515.075h-3.585a17.853 17.853 0 0 0 .735-1.95h3.91a17.885 17.885 0 0 1 1.845.09v-1.7a17.065 17.065 0 0 1-1.845.1h-9.73a16.11 16.11 0 0 1-1.845-.09v1.7a18.1 18.1 0 0 1 1.845-.09Zm-2.76 3.42H59.8v2.19h-7.125Zm0 3.63H59.8v2.52h-7.125Zm19.41-7.83a5.664 5.664 0 0 1 .075-1.11h-1.725a6.429 6.429 0 0 1 .075 1.17v2.25c0 1.005.555 1.215 3.135 1.215.54 0 2.085-.045 2.415-.075a2.527 2.527 0 0 0 1.155-.285c.465-.27.63-.69.765-1.92a6.1 6.1 0 0 1-1.515-.39c-.03.8-.075 1.05-.255 1.17-.225.15-.66.195-2.2.195-1.71 0-1.92-.045-1.92-.42v-.34a23.515 23.515 0 0 0 5.4-1.32l-1.16-1.185a13.652 13.652 0 0 1-4.245 1.2ZM68.47 56.033a11.325 11.325 0 0 1-4.095 1.05 6.049 6.049 0 0 1 .9 1.38 11.922 11.922 0 0 0 4.755-1.725l-.96-.705h4.245l-.855.75a12.22 12.22 0 0 0 4.785 1.68 8.782 8.782 0 0 1 .915-1.44 11.4 11.4 0 0 1-4.08-.99h.7c.585 0 1.26.015 1.575.045-.03-.3-.06-1-.06-1.59v-2.97c0-.765.015-1.23.045-1.65-.375.03-.705.045-1.5.045H67.6c-.66 0-1.17-.015-1.515-.045.03.42.045.855.045 1.56v3.15a13.76 13.76 0 0 1-.06 1.5c.36-.03.96-.045 1.59-.045Zm-.78-5.01h7.05v.57h-7.05Zm0 1.6h7.05v.6h-7.05Zm0 1.635h7.05v.6h-7.05Zm.66-4.78a4.452 4.452 0 0 1-.075-1.035v-2.07c.285-.255.69-.645.84-.81.165-.18.165-.18.18-.2a1.5 1.5 0 0 0 .165-.18 1.414 1.414 0 0 1 .15-.15l-1.56-.63a5.092 5.092 0 0 1-1.02 1.2 9.941 9.941 0 0 1-2.835 1.8 3.787 3.787 0 0 1 .805 1.31 10.122 10.122 0 0 0 1.8-1.14 5.9 5.9 0 0 0-.06.675v.495a2.839 2.839 0 0 1-.075.735Zm17.94 2.985h-1.92a10.353 10.353 0 0 1-1.335-.06 11.012 11.012 0 0 1 .06 1.32v2.73A13.914 13.914 0 0 1 83 58.298h1.7v-.63h5.55v.645h1.71a12.906 12.906 0 0 1-.09-1.95v-2.445a14.793 14.793 0 0 1 .06-1.515 9.949 9.949 0 0 1-1.32.06h-2.745v-1.575h3.21a11.351 11.351 0 0 1 1.53.09v-1.65a9.737 9.737 0 0 1-1.59.09h-3.15v-.18a10.792 10.792 0 0 1 .06-1.485h-1.71a8.485 8.485 0 0 1 .075 1.485Zm-1.59 1.5h5.55v2.22H84.7Zm1.02-8.085h-3.39c-.675 0-1.245-.03-1.77-.075.045.525.06 1.005.06 2.28a34.522 34.522 0 0 1-.32 5.835 7.579 7.579 0 0 1-1.12 3.045 6.462 6.462 0 0 1 1.335 1.29c1.38-2.255 1.74-4.515 1.725-10.875h8.88c.735 0 1.41.03 1.86.075v-1.665a13.921 13.921 0 0 1-1.89.09h-3.72v-.54a3.77 3.77 0 0 1 .075-.93h-1.8a4.981 4.981 0 0 1 .075.915Zm8.895 8.73a4.425 4.425 0 0 0 .945 1.635 4.39 4.39 0 0 0 3.42 1.305c2.79 0 4.515-1.635 4.515-4.275a3.687 3.687 0 0 0-1.065-2.82 3.854 3.854 0 0 0-2.93-1.125 3.69 3.69 0 0 0-2.565.915q.068-.45.09-.63l.24-2.625h3.525a14.388 14.388 0 0 1 2.07.12v-1.89a11.421 11.421 0 0 1-2.085.12H97.09c-.8 0-1.14-.015-1.59-.045-.015.75-.045 1.26-.06 1.53l-.345 3.72c-.03.42-.045.495-.195 1.56l1.875.18a1.72 1.72 0 0 1 .45-.675 2.637 2.637 0 0 1 1.86-.69 2.237 2.237 0 0 1 2.355 2.415 2.327 2.327 0 0 1-2.46 2.475 2.272 2.272 0 0 1-1.845-.765 2.054 2.054 0 0 1-.45-.87Zm12.975-2.49h3.21a14.655 14.655 0 0 1 2.04.105v-1.995a14.8 14.8 0 0 1-2.04.105h-3.21v-3.18h3.99a14.333 14.333 0 0 1 2.055.1v-2.025a15.332 15.332 0 0 1-2.055.105h-4.2a32.2 32.2 0 0 1-1.905-.045 12.953 12.953 0 0 1 .12 1.95v7.91a12.645 12.645 0 0 1-.12 2.13h2.235a12.938 12.938 0 0 1-.12-2.16Z" fill="#333"/><g data-name="グループ 1729"><g data-name="グループ 1728" clip-path="url(#a)"><path data-name="パス 4002" d="M27.349.896 14.034 16.045V13.33L3.018.704c-.338.6-.647 1.226-.932 1.873l11.85 13.584-2.418 2.746v-2.7L1.324 4.523a24.946 24.946 0 0 0-.636 2.218L11.41 19.024l-2.357 2.689V19.08L.255 8.998A26.187 26.187 0 0 0 0 11.649l8.916 10.22-2.4 2.732v-2.75L0 14.381a29.727 29.727 0 0 0 .333 3.327l6.1 6.988-2.26 2.571V24.66L1.1 21.135a21.908 21.908 0 0 0 3.05 6.439l.024.032v-.017c2.746 3.877 6.621 6.19 10.945 6.19 7.839 0 15.153-8.357 15.153-20.8A25.261 25.261 0 0 0 27.349.896" fill="#44af35"/><path data-name="パス 4003" d="M44.343 9.344a73.776 73.776 0 0 1-.79 11.452c-.324 2.058-1.805 8.525-4.559 12.019l-3.585-5.951a26.064 26.064 0 0 0 4.672-8.409 38.265 38.265 0 0 0 1.579-9.111Z" fill="#8f918e"/><path data-name="パス 4004" d="M48.614 9.344a42.048 42.048 0 0 0 1.488 11.651c.545 2.006 2.439 8.773 5.363 12.117l3.277-6.136a29.04 29.04 0 0 1-5.29-8.511 40.054 40.054 0 0 1-2.092-9.121Z" fill="#8f918e"/><path data-name="パス 4005" d="M82.888 20.948a29.762 29.762 0 0 1-3.155-5.395h8.057v-2.788h-9.049V8.893h-3.585v3.867h-9.554v2.793h8.241a17.129 17.129 0 0 1-3.3 5.468 50.048 50.048 0 0 1-5.05 5.472l3.148 5.022s2.551-3.922 4.238-6.922c1.209-2.157 2-3.655 2.277-4.351V33.78h3.546V20.259c.024.5.773 1.975 2.466 4.857a51.275 51.275 0 0 0 4.524 6.619l2.552-5.042a23.452 23.452 0 0 1-5.356-5.75" fill="#8f918e"/><path data-name="パス 4006" d="M118.272 11.463V8.892h-14.5v2.571h5.7l-.074 1.229h-5.622v2.564h3.5a8.26 8.26 0 0 1-3.527 2.236v4.461s1.18.143 3.011-1.574v2.3h8.8v-2.15a4.656 4.656 0 0 0 2.661 1.425v-4.462a6.512 6.512 0 0 1-3.528-2.236h3.581v-2.564h-5.484l-.1-1.227Zm-5.925 5.129h-2.68c.221-.363.445-.757.668-1.173h1.3c.241.419.479.81.71 1.173m.224 3.682h-2.871v-1.23h2.875Z" fill="#8f918e"/><path data-name="パス 4007" d="M115.394 23.904h-11.403v9.873h2.934v-7.309h8.469v7.309h2.877v-9.873Z" fill="#8f918e"/><path data-name="パス 4008" d="M107.577 33.778h7.168v-6.19h-7.168Zm4.183-2.9h-1.25v-.951h1.246Z" fill="#8f918e"/><path data-name="パス 4009" d="M103.126 15.813v-2.676h-1.845V8.893H98.02v4.239h-2.77v2.681h2.77v.528a13.6 13.6 0 0 1-2.77 4.332v7.365a15.7 15.7 0 0 0 2.77-4.444V33.78h3.261V21.623a3.187 3.187 0 0 0 1.845 1.334v-4.909c-.727-.034-1.428-1.18-1.844-2.009v-.226Z" fill="#8f918e"/><path data-name="パス 4010" d="M59.653 3.242h-1.187v-.318h1.187Zm-.862-1.527c-.287 0-.566-.007-.849-.034.006.324.02.642.02.961v.832a6.085 6.085 0 0 1-.07 1.073h.6c-.011-.214-.032-.7-.032-.9h1.212v.2c0 .165-.046.186-.217.186a2.537 2.537 0 0 1-.419-.043l.219.591a3.577 3.577 0 0 0 .479.007c.287-.014.506-.189.506-.409V2.581c0-.3.007-.6.011-.9-.248.02-.5.034-.751.034Zm.862.814h-1.187v-.338h1.187Zm1.177-2.5c0 .056.024.353.024.528v.893c0 .605.123.751.741.751h1.1c.4 0 .63-.409.787-.8l-.469-.363c-.178.506-.241.674-.555.674h-.842c-.112 0-.172-.063-.172-.209v-.231a4.882 4.882 0 0 0 1.618-.64c.129.032.206 0 .206-.042S63.185.5 63.15.467l-.465-.331a3.119 3.119 0 0 1-1.24.6v-.1c0-.109.007-.221.007-.333.087-.052.158-.086.158-.139S61.518.1 61.47.095Zm.019 2.34c.013.077.027.413.027.622v.72c0 .559.129.713.678.713h1.216c.429 0 .6-.384.733-.741l-.426-.436c-.136.479-.206.66-.433.66h-.975c-.182 0-.231-.049-.231-.153V3.5a5.139 5.139 0 0 0 1.671-.5c.171 0 .217-.029.217-.095 0-.049-.039-.08-.077-.109l-.478-.31a3.775 3.775 0 0 1-1.325.492c0-.1.007-.206.007-.311.1-.09.158-.132.158-.181s-.077-.06-.141-.067ZM58.553 0a6.7 6.7 0 0 1-.368.961 6.482 6.482 0 0 1-.65.022l.15.517c.02.063.049.182.09.182.066 0 .1-.036.133-.133.244-.027 1.506-.188 2.155-.268a2.1 2.1 0 0 1 .227.394l.479-.35a3.344 3.344 0 0 0-.973-1.164l-.472.307a4.51 4.51 0 0 1 .413.4c-.308.024-.622.044-.934.056.07-.1.214-.374.318-.569.077-.014.171-.043.171-.1s-.062-.08-.1-.095Zm-.36 4.741a2.355 2.355 0 0 1-.747 1.1l.589.333a3.24 3.24 0 0 0 .741-1.2Zm1.065.178a3.93 3.93 0 0 1 .143 1.192l.678-.132a3.651 3.651 0 0 0-.238-1.136Zm1.418-.02a3.444 3.444 0 0 1 .294 1.177l.66-.119a2.762 2.762 0 0 0-.336-1.136Zm1.248-.014a2.849 2.849 0 0 1 .769 1.236l.661-.282a3.569 3.569 0 0 0-.807-1.187Z" fill="#231815"/><path data-name="パス 4011" d="M92.522 3.46c-.2 0-.743-.029-.827-.029v-.013a5.605 5.605 0 0 0 1.478-1.446 5.223 5.223 0 0 0 1.382 1.454v.013a25.33 25.33 0 0 1-.82.022Zm.413-2.348a4.462 4.462 0 0 1-2.69 2.284l.457.579a4.367 4.367 0 0 0 .734-.37c.007.27.017.545.017.814v.706a7.864 7.864 0 0 1-.063.958h.737c-.007-.1-.017-.189-.017-.284h2.172c0 .08-.013.185-.02.284h.7a15.685 15.685 0 0 1-.046-1.227V4.18c0-.168.014-.346.021-.513a8.17 8.17 0 0 0 .9.422l.406-.691a4.238 4.238 0 0 1-2.6-1.768c.09-.014.166-.059.166-.108s-.1-.087-.166-.116Zm1.348 4.16h-2.172v-1.24h2.172ZM92.111.047a3.143 3.143 0 0 1-1.36 1.051l.447.489a3.259 3.259 0 0 0 1.248-.939 1.286 1.286 0 0 0 .175.024c.063 0 .119-.024.119-.075a.168.168 0 0 0-.082-.122Zm1.618.443a3.575 3.575 0 0 0 1.425 1.1l.413-.538A3.5 3.5 0 0 1 94.211.04Z" fill="#231815"/></g></g></svg>