<svg xmlns="http://www.w3.org/2000/svg" width="85.75" height="71.089"><defs><clipPath id="a"><path data-name="長方形 2750" transform="translate(0 .001)" fill="none" d="M0 0h84.673v22.653H0z"/></clipPath></defs><g data-name="グループ 1723"><g data-name="グループ 1722" clip-path="url(#a)" fill="#e84729" transform="translate(0 -.001)"><path data-name="パス 3983" d="M32.638 3.454c.05.061.209.227.292.219s.1-.075.1-.158V.9a.167.167 0 0 0-.16-.161H20.239a.147.147 0 0 0-.159.146V1.96c0 .137.08.127.2.127h.983c.271 0 .405.219.405.509v17.418c0 .341-.009.49-.358.49h-1.06a.153.153 0 0 0-.154.158v1.128a.136.136 0 0 0 .154.134h12.618a.177.177 0 0 0 .16-.18v-2.938a.157.157 0 0 0-.146-.159.151.151 0 0 0-.165.137c0 .031-.272 1.72-3.547 1.72h-3.049c-.534 0-.562-.025-.562-.5v-8.437c0-.563.383-.514.645-.514a18.45 18.45 0 0 1 3.081.09 4.374 4.374 0 0 1 1.015.757c.057.049.153.178.194.178.07 0 .052-.1.052-.159v-3.1c0-.058-.017-.1-.073-.1s-.116.125-.245.268a3.037 3.037 0 0 1-.952.68 26.055 26.055 0 0 1-3.1.09c-.246 0-.633.005-.633-.455V2.674c0-.385.087-.587.514-.587h3.906a2.548 2.548 0 0 1 1.771.485 10.787 10.787 0 0 1 .9.882"/><path data-name="パス 3984" d="M64.677 3.454c.051.061.212.227.29.219s.095-.075.095-.158V.9a.162.162 0 0 0-.156-.161H52.281a.141.141 0 0 0-.154.146v1c0 .193 0 .2.2.2h.973c.275 0 .4.219.4.509v17.42c0 .341-.005.49-.353.49h-1.054a.151.151 0 0 0-.154.158v1.128c0 .088.064.134.154.134h12.613a.173.173 0 0 0 .156-.18v-2.938a.149.149 0 0 0-.141-.159.158.158 0 0 0-.171.137c0 .031-.27 1.72-3.535 1.72h-3.058c-.536 0-.56-.025-.56-.5v-8.437c0-.563.382-.514.646-.514a18.465 18.465 0 0 1 3.082.09 4.474 4.474 0 0 1 1.018.758c.051.049.146.178.2.178s.044-.1.044-.159v-3.1c0-.058-.02-.1-.071-.1s-.117.125-.239.268a3.136 3.136 0 0 1-.962.68 26.038 26.038 0 0 1-3.1.09c-.248 0-.631.005-.631-.455V2.674c0-.385.088-.587.512-.587H62a2.556 2.556 0 0 1 1.776.485 11.925 11.925 0 0 1 .9.882"/><path data-name="パス 3985" d="M49.78 18.648a.148.148 0 0 0-.163.136c-.01.03-.276 1.721-3.543 1.721h-3.055c-.538 0-.565-.025-.565-.5l-.012-17.366a.537.537 0 0 1 .18-.475.782.782 0 0 1 .341-.071h.9c.132 0 .176-.042.176-.161V.889a.149.149 0 0 0-.156-.148h-6.745a.152.152 0 0 0-.161.148V1.9c0 .19.092.19.2.19h.977c.278 0 .4.256.4.546v17.379c0 .341-.007.49-.358.49h-1.05a.154.154 0 0 0-.161.158v1.128c0 .088.066.134.161.134H49.77a.181.181 0 0 0 .154-.18V18.8a.163.163 0 0 0-.144-.156"/><path data-name="パス 3986" d="M76.426.257c-3.976 0-8.445 3.552-8.445 11.336 0 8.579 5.095 10.915 8.445 10.915 3.762 0 8.247-3.016 8.247-10.915 0-7.151-4-11.336-8.247-11.336m.012 1.2c3.245 0 4.454 5.935 4.454 10.14 0 4.162-1.318 9.746-4.466 9.746s-4.451-5.584-4.451-9.746c0-4.205 1.213-10.14 4.463-10.14"/><path data-name="パス 3987" d="M16.19 14.465c-.151-.015-.475 0-.534 0-.1 0-.163.066-.185.2 0 0-.867 6.383-5.469 6.383-2.573 0-5.772-2.583-5.772-9.336S6.949 1.438 9.858 1.438c3.452 0 5.3 3.415 5.508 3.808.1.2.171.351.3.351s.173-.1.173-.368V2.074c0-.2.012-.349-.156-.259-.044.03-.68.439-.828.51a.229.229 0 0 1-.324-.049A6.641 6.641 0 0 0 9.412 0C4.888 0 0 4.13 0 11.814c0 7.1 4.442 10.84 9.47 10.84 6.664 0 6.839-7.877 6.839-7.989s-.019-.188-.119-.2"/></g></g><path data-name="パス 3988" d="M4.989 38.349c.015.24.015.33.015.45a13.943 13.943 0 0 1-1.9 6.2 8.955 8.955 0 0 1-1.987 2.375 6.716 6.716 0 0 1 1.472 1.37 11.562 11.562 0 0 0 1.26-1.455 15.315 15.315 0 0 0 2.025-3.99 21.2 21.2 0 0 0 .975-4.245 3.689 3.689 0 0 1 .09-.495Zm2.385-2.175a11.555 11.555 0 0 1-1.62-.09v1.755c.45-.045.99-.075 1.575-.075h2.1c.165 1.035.24 1.59.255 1.665a23.257 23.257 0 0 0 .975 3.705 14.647 14.647 0 0 0 3.48 5.58 6.95 6.95 0 0 1 1.44-1.41 12.4 12.4 0 0 1-3.45-5.34 18.612 18.612 0 0 1-1-5.355 2.743 2.743 0 0 1 .03-.495c-.465.045-.96.06-1.755.06Zm15 1.53v3.345h-2.475a13.967 13.967 0 0 1-1.83-.09v1.74a17.626 17.626 0 0 1 1.86-.075h2.445v4.02h-3.72a13.347 13.347 0 0 1-2-.09v1.8a16.038 16.038 0 0 1 2-.105h9.463a14.377 14.377 0 0 1 1.95.105v-1.8a15.679 15.679 0 0 1-1.98.09h-3.945v-4.02h2.685a16.25 16.25 0 0 1 1.815.075v-1.74a16.105 16.105 0 0 1-1.815.09h-2.685v-3.345h3.375a18.074 18.074 0 0 1 2 .09v-1.785a13.808 13.808 0 0 1-2 .105h-8.325a12.822 12.822 0 0 1-1.965-.105v1.785a17.627 17.627 0 0 1 2.01-.09Zm15.285 3.48h-3.99a18.2 18.2 0 0 1-2.085-.09v1.815a19.174 19.174 0 0 1 2.04-.09h4.035v3.955c0 .33-.105.39-.72.39a13.23 13.23 0 0 1-2.175-.18 6.038 6.038 0 0 1 .465 1.8c1.08.045 1.38.06 1.68.06 1.995 0 2.5-.33 2.5-1.65v-4.38h3.68a18.4 18.4 0 0 1 2.04.09v-1.81a16.8 16.8 0 0 1-2.04.09h-3.672v-.645a20.4 20.4 0 0 0 3.192-2.31c1.02-.975 1.02-.975 1.408-1.335l-.975-1.1a6.137 6.137 0 0 1-1.303.08h-6.8a14.751 14.751 0 0 1-1.8-.09v1.77a14.85 14.85 0 0 1 1.815-.09h5.985a13.174 13.174 0 0 1-2.55 1.92h-.772c.03.345.045.66.045 1.14Zm15.75 2.055h-1.92a10.353 10.353 0 0 1-1.335-.06 11.012 11.012 0 0 1 .06 1.32v2.73a13.914 13.914 0 0 1-.09 1.845h1.693v-.63h5.55v.645h1.71a12.906 12.906 0 0 1-.09-1.95v-2.445a14.794 14.794 0 0 1 .06-1.515 9.949 9.949 0 0 1-1.32.06h-2.743v-1.575h3.21a11.351 11.351 0 0 1 1.53.09v-1.65a9.737 9.737 0 0 1-1.59.09h-3.15v-.18a10.792 10.792 0 0 1 .06-1.485h-1.71a8.485 8.485 0 0 1 .075 1.485Zm-1.592 1.5h5.55v2.22h-5.55Zm1.02-8.085h-3.388c-.675 0-1.245-.03-1.77-.075.045.525.06 1.005.06 2.28a34.522 34.522 0 0 1-.315 5.835 7.579 7.579 0 0 1-1.125 3.045 6.462 6.462 0 0 1 1.335 1.29c1.383-2.255 1.74-4.515 1.725-10.875h8.88c.735 0 1.41.03 1.86.075v-1.665a13.921 13.921 0 0 1-1.89.09h-3.72v-.54a3.77 3.77 0 0 1 .075-.93h-1.8a4.981 4.981 0 0 1 .075.915Zm22.728 1.905a4.33 4.33 0 0 0-.945-1.53 4.132 4.132 0 0 0-3.075-1.14 4.26 4.26 0 0 0-3.66 1.785 8.17 8.17 0 0 0-1.23 4.635c0 2.265.63 4.065 1.74 5.025a4.725 4.725 0 0 0 3.045.99 4.04 4.04 0 0 0 4.35-4.05 4.309 4.309 0 0 0-.54-2.25 3.9 3.9 0 0 0-3.48-1.785 3.481 3.481 0 0 0-3.21 1.5 6.6 6.6 0 0 1 .615-2.655 2.492 2.492 0 0 1 2.355-1.56 1.887 1.887 0 0 1 2.01 1.515Zm-4.141 3.315a2.166 2.166 0 0 1 2.37 2.355 2.559 2.559 0 0 1-.345 1.365 2.387 2.387 0 0 1-2.055 1.05 2.38 2.38 0 0 1-2.535-2.37 2.42 2.42 0 0 1 2.565-2.4Zm8.28 1.02h3.213a14.655 14.655 0 0 1 2.04.105v-1.995a14.8 14.8 0 0 1-2.04.105h-3.21v-3.18h3.99a14.333 14.333 0 0 1 2.055.1v-2.025a15.332 15.332 0 0 1-2.055.105h-4.2a32.2 32.2 0 0 1-1.905-.045 12.953 12.953 0 0 1 .12 1.95v7.91a12.645 12.645 0 0 1-.12 2.13h2.235a12.938 12.938 0 0 1-.12-2.16ZM7.434 61.609v1.565h-1.29a7 7 0 0 1-1.29-.075v1.475a7.307 7.307 0 0 1 1.29-.075h1.29v1.905h-1.8a7.455 7.455 0 0 1-1.425-.09v1.56a8.879 8.879 0 0 1 1.425-.075h5.43a9.618 9.618 0 0 1 1.41.075v-1.56a7.694 7.694 0 0 1-1.47.09l.81-.45a7.345 7.345 0 0 0-.945-1.455 6.086 6.086 0 0 1 .96.075v-1.48a6.9 6.9 0 0 1-1.29.075H8.994v-1.56h1.9a8.692 8.692 0 0 1 1.4.075v-1.51a8.356 8.356 0 0 1-1.4.075h-5.1a8.174 8.174 0 0 1-1.365-.075v1.51a8.4 8.4 0 0 1 1.365-.075Zm1.56 2.895h1.47l-.795.405a6.588 6.588 0 0 1 .945 1.5h-1.62Zm-7.065 4.635a14.2 14.2 0 0 1-.09 1.95h1.71v-.855h9.585v.855h1.71a12.1 12.1 0 0 1-.09-1.935v-9.63a15.456 15.456 0 0 1 .09-1.8 15.409 15.409 0 0 1-1.77.075H3.609a14.041 14.041 0 0 1-1.77-.075 17.934 17.934 0 0 1 .09 1.815Zm1.62-9.885h9.585v9.525H3.549Zm17.73 4.68a7.455 7.455 0 0 1-.09.87 5.8 5.8 0 0 1-1.965 3.42 7.078 7.078 0 0 1-2.325 1.38 5.323 5.323 0 0 1 1.1 1.47 8.688 8.688 0 0 0 3.81-3.3 7.981 7.981 0 0 0 1.17-3.84h2.88v.87a14.736 14.736 0 0 1-.465 3.99c-.135.225-.3.285-.855.285a12.331 12.331 0 0 1-1.822-.195 6.442 6.442 0 0 1 .45 1.755c1.005.045 1.245.06 1.545.06 1.335 0 1.875-.21 2.2-.87a20.457 20.457 0 0 0 .63-6.27v-.51a15.3 15.3 0 0 0 1.86 1.575 6.984 6.984 0 0 1 1.14-1.62 11.632 11.632 0 0 1-4.155-4.35 5.606 5.606 0 0 1-.585-1.3l-1.665.645a6.153 6.153 0 0 1 .315.63 15 15 0 0 0 2.475 3.765c-.36.015-.57.015-.93.015h-5.52a7.752 7.752 0 0 1-.78-.03 16.683 16.683 0 0 0 2.42-3.65 4.242 4.242 0 0 1 .4-.765l-1.8-.645a4.663 4.663 0 0 1-.6 1.515 11.565 11.565 0 0 1-3.945 4.3 5.215 5.215 0 0 1 1.155 1.47 14.912 14.912 0 0 0 1.875-1.665v1.065a10.423 10.423 0 0 1 1.275-.075Zm17.775-4.98v-.3a6.3 6.3 0 0 1 .105-1.335h-1.86a6.212 6.212 0 0 1 .09 1.335v.3h-2.955a12.178 12.178 0 0 1-1.635-.075v1.635a14.739 14.739 0 0 1 1.635-.075h2.955v1.425h-3.9a13.533 13.533 0 0 1-1.74-.09v1.7a13.861 13.861 0 0 1 1.74-.09h6.975v1.36h-6.96a13.791 13.791 0 0 1-1.755-.09v1.695a14.123 14.123 0 0 1 1.755-.09h6.96v2.745c0 .315-.135.405-.63.405a14.466 14.466 0 0 1-2.28-.195 6.092 6.092 0 0 1 .48 1.71c.66.045 1.23.075 1.68.075a3.988 3.988 0 0 0 1.785-.255c.465-.27.6-.63.6-1.545v-2.94h1.155a13.7 13.7 0 0 1 1.74.09v-1.695a12.751 12.751 0 0 1-1.74.09h-1.155v-1.365h1.155a13.7 13.7 0 0 1 1.74.09v-1.695a13.118 13.118 0 0 1-1.725.09h-4.215v-1.425h3.24a14.541 14.541 0 0 1 1.635.075v-1.635a11.537 11.537 0 0 1-1.62.075Zm-1.38 9.75a16.425 16.425 0 0 0-2.3-2.385l-1.32.96a13.368 13.368 0 0 1 2.235 2.55Zm15.735-3.465h-1.92a10.353 10.353 0 0 1-1.335-.06 11.012 11.012 0 0 1 .06 1.32v2.73a13.914 13.914 0 0 1-.09 1.845h1.693v-.63h5.55v.645h1.71a12.906 12.906 0 0 1-.09-1.95v-2.445a14.794 14.794 0 0 1 .06-1.515 9.949 9.949 0 0 1-1.32.06h-2.743v-1.575h3.21a11.351 11.351 0 0 1 1.53.09v-1.65a9.737 9.737 0 0 1-1.59.09h-3.15v-.18a10.792 10.792 0 0 1 .06-1.485h-1.71a8.485 8.485 0 0 1 .075 1.485Zm-1.59 1.5h5.55v2.22h-5.552Zm1.02-8.085h-3.39c-.675 0-1.245-.03-1.77-.075.045.525.06 1.005.06 2.28a34.522 34.522 0 0 1-.315 5.835 7.579 7.579 0 0 1-1.125 3.045 6.462 6.462 0 0 1 1.335 1.29c1.38-2.25 1.74-4.515 1.725-10.875h8.88c.735 0 1.41.03 1.86.075v-1.665a13.921 13.921 0 0 1-1.89.09h-3.72v-.54a3.77 3.77 0 0 1 .075-.93h-1.8a4.981 4.981 0 0 1 .075.915Zm16.35 5.145a3.247 3.247 0 0 0-1.485.6 2.843 2.843 0 0 0-1.23 2.46 3.112 3.112 0 0 0 .87 2.25 5.152 5.152 0 0 0 3.8 1.2c3.075 0 4.755-1.23 4.755-3.465a3.008 3.008 0 0 0-2.67-3.045 2.783 2.783 0 0 0 2.16-2.805 2.951 2.951 0 0 0-.405-1.5c-.645-1.05-1.98-1.635-3.8-1.635-2.565 0-4.185 1.215-4.185 3.135a2.764 2.764 0 0 0 2.19 2.805Zm2-4.32c1.335 0 2.175.675 2.175 1.74 0 1.1-.81 1.77-2.145 1.77-1.365 0-2.2-.69-2.2-1.785-.009-1.05.845-1.73 2.165-1.73Zm-.03 9.18c-1.62 0-2.58-.72-2.58-1.95s.99-2.01 2.61-2.01 2.595.75 2.595 1.995c-.005 1.26-.95 1.965-2.63 1.965Zm8.55-3.765h3.208a14.655 14.655 0 0 1 2.04.1v-1.99a14.8 14.8 0 0 1-2.04.105h-3.21v-3.18h3.99a14.333 14.333 0 0 1 2.055.1v-2.02a15.332 15.332 0 0 1-2.055.105h-4.2a32.2 32.2 0 0 1-1.905-.045 12.953 12.953 0 0 1 .12 1.95v7.9a12.645 12.645 0 0 1-.12 2.13h2.235a12.938 12.938 0 0 1-.12-2.16Z" fill="#333"/></svg>