<svg xmlns="http://www.w3.org/2000/svg" width="54.275" height="53.221"><path data-name="パス 1929" d="M45.711 53.221H8.575A8.6 8.6 0 0 1 0 44.646V8.575A8.6 8.6 0 0 1 8.575 0H45.7a8.6 8.6 0 0 1 8.575 8.575v36.071a8.594 8.594 0 0 1-8.564 8.575Z" fill="#005748"/><path data-name="パス 1930" d="M13.921 42.158a1.289 1.289 0 0 0 1.222-1.334c0-.975-1.02-2.231-4.125-2.746a22.3 22.3 0 0 0 3.273-4.461 1.721 1.721 0 0 0 1.042-.291l-2.231-2.186-1.404 1.311h-.717v-3.92c.695-.09.919-.247.975-.583l-3.385-.314v4.831H5.212l.134.448h6.479a22.2 22.2 0 0 1-6.927 9.427l.224.2a19.427 19.427 0 0 0 3.452-2.186v8.384H9a2.407 2.407 0 0 0 1.962-.762v-9.472a7.214 7.214 0 0 1 2.006 3.273 1.466 1.466 0 0 0 .953.381Z" fill="#fff"/><path data-name="パス 1931" d="M22.699 47.119h-1.693V36.295h3.9c.628 0 .919-.112 1.11-.4l-2.4-1.827-1.311 1.782h-1.311v-7.308c.673-.09.9-.291.953-.605l-3.452-.314v8.228h-4.148l.112.448h4.035v10.82h-5.547l.112.448H25.4c.605 0 .919-.09 1.11-.381l-2.466-1.917Z" fill="#fff"/><path data-name="パス 1932" d="m41.978 33.93-2.914-.224v4.416c0 1.827.426 2.275 2.679 2.275h3.542c2.119 0 2.847-.4 2.847-1.2 0-.314-.09-.426-.9-.717l-.022-1.558h-.2c-.762 1.715-.953 1.715-1.715 1.715h-3.361c-.673 0-.7 0-.7-.493v-1.222a31.313 31.313 0 0 0 4.831-1.02 2.337 2.337 0 0 0 .695.135.711.711 0 0 0 .516-.157l-2.074-1.76a20.082 20.082 0 0 1-3.968 2.186v-1.939c.565-.078.7-.19.744-.437Z" fill="#fff"/><path data-name="パス 1933" d="M33.481 30.41v2.053c2.029 0 2.3-.516 2.3-.56v-1.491h4.876v1.939c2.141 0 2.343-.538 2.343-.56v-1.379h4.831c.583 0 .829-.09 1.02-.381l-2.3-1.693-1.211 1.614h-2.343v-1.6c.65-.09.829-.224.852-.56l-3.205-.229v2.388h-4.876v-1.6c.65-.09.807-.224.852-.56l-3.161-.228v2.388h-5.728l.112.448h5.638Z" fill="#fff"/><path data-name="パス 1934" d="m45.879 31.509-1.211 1.468h-16.13l.134.448h4.372a13.037 13.037 0 0 1-4.372 4.484l.135.336a15.682 15.682 0 0 0 2.343-1.042 3.644 3.644 0 0 1 1.132 1.625 1 1 0 0 0 .785.269 12.958 12.958 0 0 1-4.764 2.32l.157.426c5.033-.74 7.4-2.477 9.539-5.616a1.438 1.438 0 0 0 1-.291l-2.074-1.648-1.042 1.042h-1.939a11.774 11.774 0 0 0 1.782-1.894h11.389c.605 0 .874-.09 1.065-.381ZM35.824 35.78a11.4 11.4 0 0 1-2.006 2.657.8.8 0 0 0 .045-.224c0-.56-.56-1.177-2.141-1.311a15.343 15.343 0 0 0 1.693-1.132h2.41Z" fill="#fff"/><path data-name="パス 1935" d="m46.518 41.754-1.289 1.625h-2.051v-1.894c.516-.09.673-.224.7-.471l-3.071-.247v2.612h-5.145v-1.871c.583-.067.762-.224.785-.493l-3.139-.247v2.612h-5.577l.135.448h5.414c-.135 1.8-1.177 3.52-5.145 4.663l.135.269c5.728-.919 7.129-2.87 7.353-4.943h5.167v4.943c1.917 0 2.365-.583 2.365-.605v-4.327h4.618c.628 0 .9-.112 1.087-.4Z" fill="#fff"/><path data-name="パス 1936" d="M7.387 13.922v-3.34h3.777c1.065 0 1.536.46 1.536 1.2 0 .65-.5.964-1.424.964h-1.76v1.547h3.262a2.282 2.282 0 0 0 2.488-2.567c0-1.592-.773-2.668-2.432-2.668H7.398v-2.2H4.82v2.2H3.206v1.536H4.82v3.966c0 4.293 3.677 4.181 3.677 4.181h6.409v-1.536s-4.685-.112-5.067-.112c-1.107-.01-2.452-1.133-2.452-3.171Z" fill="#fff"/><path data-name="パス 1937" d="M18.876 18.529a4.788 4.788 0 0 0 3.7-1.222 16.8 16.8 0 0 0 4.551-6.075h-2.735c-.2.5-3.733 6.143-5.481 5.123-.527-.3-.56-.605-.56-2.275V6.905h-2.468v7.376c0 3.979 2.029 4.248 2.993 4.248Z" fill="#fff"/><path data-name="パス 1938" d="M38.996 9.057V7.521H27.462v1.536h3.4v2.5h-3.4v1.412h3.4v1.76c0 3.43 1.379 3.957 3.721 3.957h3.946V17.15s-1.76-.078-2.455-.078c-1.749 0-2.97-.482-2.97-2.107v-2h5.885v-1.412h-5.885v-2.5Z" fill="#fff"/><path data-name="パス 1939" d="M45.543 14.651c0 3.273-1.637 4.08-3.43 4.08h-2.444v-1.536h2.029c.975 0 1.524-1.065 1.524-2.623v-2.739h4.293c1.065 0 1.424-.594 1.424-1.311a1.328 1.328 0 0 0-1.424-1.457h-7.846V7.533h8.62c4.181 0 4.114 5.851.673 5.851h-3.419Z" fill="#fff"/><path data-name="パス 1940" d="M49.858 17.464a.572.572 0 0 0 .381-.583c0-.381-.258-.617-.751-.617h-1.087v2.287h.4v-.942h.583c.37 0 .448.191.448.605a.588.588 0 0 0 .067.336h.426a1.016 1.016 0 0 1-.123-.605c-.008-.358-.209-.459-.344-.481Zm-.415-.157h-.65v-.717h.65c.2 0 .392.056.392.347a.343.343 0 0 1-.392.369Z" fill="#fff"/><path data-name="パス 1941" d="M49.253 15.513a1.917 1.917 0 1 0 1.917 1.917 1.916 1.916 0 0 0-1.917-1.917Zm0 3.542a1.637 1.637 0 1 1 1.637-1.637 1.631 1.631 0 0 1-1.637 1.637Z" fill="#fff"/><path data-name="長方形 1490" fill="#fff" d="M2.87 23.539h48.547v.572H2.87z"/></svg>