<svg xmlns="http://www.w3.org/2000/svg" xmlns:xlink="http://www.w3.org/1999/xlink" width="81.048" height="81.049" viewBox="0 0 81.048 81.049">
  <defs>
    <filter id="パス_4527" x="0" y="0" width="81.048" height="81.049" filterUnits="userSpaceOnUse">
      <feOffset input="SourceAlpha"/>
      <feGaussianBlur stdDeviation="3" result="blur"/>
      <feFlood flood-opacity="0.098"/>
      <feComposite operator="in" in2="blur"/>
      <feComposite in="SourceGraphic"/>
    </filter>
  </defs>
  <g id="グループ_3110" data-name="グループ 3110" transform="translate(-467.453 -2299.414)">
    <g transform="matrix(1, 0, 0, 1, 467.45, 2299.41)" filter="url(#パス_4527)">
      <path id="パス_4527-2" data-name="パス 4527" d="M31.524,0A31.524,31.524,0,1,1,0,31.524,31.524,31.524,0,0,1,31.524,0Z" transform="translate(9 9)" fill="#c3a556"/>
    </g>
    <path id="パス_3761" data-name="パス 3761" d="M4,35.524a31.366,31.366,0,0,0,.47,5.429A31.484,31.484,0,0,0,20.55,45.34a31.651,31.651,0,0,0,31.2-36.85A31.531,31.531,0,0,0,4,35.524Z" transform="translate(472.453 2304.414)" fill="#d5b45e" opacity="0.497"/>
    <path id="パス_4534" data-name="パス 4534" d="M9.512-20.488A9.062,9.062,0,0,1,8.564-16.4a14.378,14.378,0,0,1-2.793,3.74,38.3,38.3,0,0,1-3.809,3.33Q0-7.832-5.762-3.711H4.961L3.4,1.23H1.6A1.351,1.351,0,0,0,1.758.625Q1.758,0,.8,0H-9.922l.8-2.637q1.445-1.23,2.334-2.031t2.275-2.07q1.387-1.27,2.725-2.578t2.51-2.559A19.418,19.418,0,0,0,3.75-16.221a9.931,9.931,0,0,0,1.211-4.5,4.676,4.676,0,0,0-.4-1.943,3.1,3.1,0,0,0-1.191-1.387,3.617,3.617,0,0,0-1.963-.5,3.527,3.527,0,0,0-2.568.82,2.507,2.507,0,0,0-.83,1.816A3.291,3.291,0,0,0-.84-19.648q.156.156.3.322a.48.48,0,0,1,.146.244q0,.2-.566.527l-1.328.762a1.538,1.538,0,0,1-.8.234q-.527,0-1.3-1.045a3.864,3.864,0,0,1-.771-2.354,4.557,4.557,0,0,1,.83-2.568,5.836,5.836,0,0,1,2.461-2,9.143,9.143,0,0,1,3.9-.762,8.316,8.316,0,0,1,5.586,1.641A5.264,5.264,0,0,1,9.512-20.488Z" transform="translate(507.977 2352.399)" fill="#fff"/>
  </g>
</svg>
