<svg xmlns="http://www.w3.org/2000/svg" xmlns:xlink="http://www.w3.org/1999/xlink" width="81.048" height="81.049" viewBox="0 0 81.048 81.049">
  <defs>
    <filter id="パス_4530" x="0" y="0" width="81.048" height="81.049" filterUnits="userSpaceOnUse">
      <feOffset input="SourceAlpha"/>
      <feGaussianBlur stdDeviation="3" result="blur"/>
      <feFlood flood-opacity="0.098"/>
      <feComposite operator="in" in2="blur"/>
      <feComposite in="SourceGraphic"/>
    </filter>
  </defs>
  <g id="グループ_3113" data-name="グループ 3113" transform="translate(-322.832 -2752.805)">
    <g transform="matrix(1, 0, 0, 1, 322.83, 2752.8)" filter="url(#パス_4530)">
      <path id="パス_4530-2" data-name="パス 4530" d="M31.524,0A31.524,31.524,0,1,1,0,31.524,31.524,31.524,0,0,1,31.524,0Z" transform="translate(9 9)" fill="#c3a556"/>
    </g>
    <path id="パス_3761" data-name="パス 3761" d="M4,35.524a31.366,31.366,0,0,0,.47,5.429A31.484,31.484,0,0,0,20.55,45.34a31.651,31.651,0,0,0,31.2-36.85A31.531,31.531,0,0,0,4,35.524Z" transform="translate(327.832 2757.805)" fill="#d5b45e" opacity="0.497"/>
    <path id="パス_4537" data-name="パス 4537" d="M10.84-25.684l-.449,1.172a4.2,4.2,0,0,1-1.328,2.158,4.62,4.62,0,0,1-2.227.4H-.234L-2.07-16.641a5.3,5.3,0,0,1,3.516-1.367,5.109,5.109,0,0,1,2.705.84,6.4,6.4,0,0,1,2.246,2.5,8.336,8.336,0,0,1,.889,3.984,10.788,10.788,0,0,1-.918,4.4A11.157,11.157,0,0,1,3.779-2.627,11.95,11.95,0,0,1,.068-.225a11.025,11.025,0,0,1-4.189.83A7.5,7.5,0,0,1-8.105-.479,3.069,3.069,0,0,1-9.883-3.047a1.8,1.8,0,0,1,.576-1.377,1.9,1.9,0,0,1,1.338-.537q1.5,0,2.363,2.031a5.246,5.246,0,0,0,.879,1.377,1.727,1.727,0,0,0,1.289.439q1.973,0,3.545-2.363A18.894,18.894,0,0,0,2.539-8.945,19.517,19.517,0,0,0,3.4-13.77a2.393,2.393,0,0,0-.713-1.885,2.508,2.508,0,0,0-1.729-.635q-2.324,0-4.277,3.281H-5.078L-.8-25.684Z" transform="translate(363.355 2805.79)" fill="#fff"/>
  </g>
</svg>
