<svg xmlns="http://www.w3.org/2000/svg" xmlns:xlink="http://www.w3.org/1999/xlink" width="81.048" height="81.049" viewBox="0 0 81.048 81.049">
  <defs>
    <filter id="パス_4526" x="0" y="0" width="81.048" height="81.049" filterUnits="userSpaceOnUse">
      <feOffset input="SourceAlpha"/>
      <feGaussianBlur stdDeviation="3" result="blur"/>
      <feFlood flood-opacity="0.098"/>
      <feComposite operator="in" in2="blur"/>
      <feComposite in="SourceGraphic"/>
    </filter>
  </defs>
  <g id="グループ_3111" data-name="グループ 3111" transform="translate(-811.244 -2299.414)">
    <g transform="matrix(1, 0, 0, 1, 811.24, 2299.41)" filter="url(#パス_4526)">
      <path id="パス_4526-2" data-name="パス 4526" d="M31.524,0A31.524,31.524,0,1,1,0,31.524,31.524,31.524,0,0,1,31.524,0Z" transform="translate(9 9)" fill="#c3a556"/>
    </g>
    <path id="パス_3761" data-name="パス 3761" d="M4,35.524a31.366,31.366,0,0,0,.47,5.429A31.484,31.484,0,0,0,20.55,45.34a31.651,31.651,0,0,0,31.2-36.85A31.531,31.531,0,0,0,4,35.524Z" transform="translate(816.244 2304.414)" fill="#d5b45e" opacity="0.497"/>
    <path id="パス_4533" data-name="パス 4533" d="M9.922-21.875A4.516,4.516,0,0,1,8.4-18.6a14.282,14.282,0,0,1-3.281,2.432q-1.758.938-3.477,1.7A6.207,6.207,0,0,1,5.01-13.35q1.553,1.064,1.553,4.229a8.629,8.629,0,0,1-.918,3.984,9.549,9.549,0,0,1-2.48,3.076A11.6,11.6,0,0,1-.371-.088,12.165,12.165,0,0,1-4.434.605,7.988,7.988,0,0,1-7.461.059a5.123,5.123,0,0,1-2.08-1.436A2.852,2.852,0,0,1-10.273-3.2a2.081,2.081,0,0,1,.527-1.445,1.776,1.776,0,0,1,1.387-.586,1.919,1.919,0,0,1,1.533.576A4.66,4.66,0,0,1-6-3.125a4.66,4.66,0,0,0,.8,1.436,1.764,1.764,0,0,0,1.426.576,3.587,3.587,0,0,0,2.6-1.152A9.6,9.6,0,0,0,.762-5.156,19.914,19.914,0,0,0,1.953-8.564a11.7,11.7,0,0,0,.41-2.588,3.142,3.142,0,0,0-.4-1.436,1.374,1.374,0,0,0-1.318-.771,3.893,3.893,0,0,0-1.934.879q-.293.234-.605.479a.944.944,0,0,1-.547.244.813.813,0,0,1-.488-.225.9.9,0,0,1-.273-.732.958.958,0,0,1,.42-.732,14.088,14.088,0,0,1,1.709-1.064,34.311,34.311,0,0,0,5.508-3.74A4.642,4.642,0,0,0,6.074-21.8a2.769,2.769,0,0,0-.781-1.885,2.766,2.766,0,0,0-2.168-.869,3.206,3.206,0,0,0-2.295.859,2.813,2.813,0,0,0-.908,2.129,2.766,2.766,0,0,0,.1.7,2.447,2.447,0,0,1,.1.508q0,.2-1.016.889a4.915,4.915,0,0,1-1.172.693q-.273,0-.7-.83a3.713,3.713,0,0,1-.43-1.729A4.492,4.492,0,0,1-1.5-24.8a7.364,7.364,0,0,1,4.98-1.484A7.806,7.806,0,0,1,8.2-25.02,3.79,3.79,0,0,1,9.922-21.875Z" transform="translate(849.699 2352.399)" fill="#fff"/>
  </g>
</svg>
