<svg xmlns="http://www.w3.org/2000/svg" xmlns:xlink="http://www.w3.org/1999/xlink" width="81.048" height="81.049" viewBox="0 0 81.048 81.049">
  <defs>
    <filter id="パス_4531" x="0" y="0" width="81.048" height="81.049" filterUnits="userSpaceOnUse">
      <feOffset input="SourceAlpha"/>
      <feGaussianBlur stdDeviation="3" result="blur"/>
      <feFlood flood-opacity="0.098"/>
      <feComposite operator="in" in2="blur"/>
      <feComposite in="SourceGraphic"/>
    </filter>
  </defs>
  <g id="グループ_3114" data-name="グループ 3114" transform="translate(-636 -2752.805)">
    <g transform="matrix(1, 0, 0, 1, 636, 2752.8)" filter="url(#パス_4531)">
      <path id="パス_4531-2" data-name="パス 4531" d="M31.524,0A31.524,31.524,0,1,1,0,31.524,31.524,31.524,0,0,1,31.524,0Z" transform="translate(9 9)" fill="#c3a556"/>
    </g>
    <path id="パス_3761" data-name="パス 3761" d="M4,35.524a31.366,31.366,0,0,0,.47,5.429A31.484,31.484,0,0,0,20.55,45.34a31.651,31.651,0,0,0,31.2-36.85A31.531,31.531,0,0,0,4,35.524Z" transform="translate(641 2757.805)" fill="#d5b45e" opacity="0.497"/>
    <path id="パス_4538" data-name="パス 4538" d="M11.6-23.2a1.693,1.693,0,0,1-.391,1.152,1.42,1.42,0,0,1-1.133.449,1.655,1.655,0,0,1-.947-.283,4.145,4.145,0,0,1-.967-1.084A6.858,6.858,0,0,0,7.1-24.316a1.66,1.66,0,0,0-1.064-.293,3.744,3.744,0,0,0-2.754,1.748A30.121,30.121,0,0,0,0-16.875a7.537,7.537,0,0,1,2.93-.684,5.145,5.145,0,0,1,2.158.449A4.791,4.791,0,0,1,6.777-15.83a5.953,5.953,0,0,1,1.084,1.943,7.5,7.5,0,0,1,.381,2.441,13.445,13.445,0,0,1-.645,4A13.87,13.87,0,0,1,5.635-3.516,10.292,10.292,0,0,1,2.354-.527,8.8,8.8,0,0,1-2.129.605,5.33,5.33,0,0,1-5.439-.352a5.341,5.341,0,0,1-1.807-2.4,8.323,8.323,0,0,1-.547-2.969,23.611,23.611,0,0,1,.83-5.2,32.248,32.248,0,0,1,2.725-7.051A20.207,20.207,0,0,1,.234-23.887a9.985,9.985,0,0,1,6.934-2.4q2.6,0,3.516,1.035A3.124,3.124,0,0,1,11.6-23.2ZM4.395-13.809a2.451,2.451,0,0,0-.527-1.475A2.02,2.02,0,0,0,2.129-16,2.913,2.913,0,0,0-.186-14.9,11.661,11.661,0,0,0-1.953-11.68q-2.285,5.8-2.285,8.086a2.773,2.773,0,0,0,.566,1.855,1.99,1.99,0,0,0,1.6.664A2.654,2.654,0,0,0-.078-1.836,4.469,4.469,0,0,0,.879-3.125Q1.25-3.867,2.109-6.1t1.572-4.531A13.02,13.02,0,0,0,4.395-13.809Z" transform="translate(676.523 2805.79)" fill="#fff"/>
  </g>
</svg>
