<?xml version="1.0" encoding="UTF-8"?><svg id="_イヤー_2" xmlns="http://www.w3.org/2000/svg" viewBox="0 0 227.79 20.39"><defs><style>.cls-1{fill:#005748;}</style></defs><g id="main"><g><g><path class="cls-1" d="M120.06,19.43h-3.6V10.74c-2.51,1.45-4.41,2.26-7.12,3.17l-1.87-2.88c9.03-2.58,14.04-8.41,15.72-10.35l3.07,2.11c-.83,.89-2.79,3-6.2,5.54v11.1Z"/><path class="cls-1" d="M124.36,10.52c.81-.83,1.07-1.17,3.49-4.15,1.77-2.17,2.85-3.43,4.52-3.43,1.47,0,2.73,1.24,3.17,1.73l9.2,9.95-2.64,3.09-8.46-9.78c-.51-.57-.81-.94-1.26-.94-.49,0-.81,.4-1.06,.75-.7,.92-3.66,5.09-4.28,5.92l-2.68-3.13Zm15.25-4.37c-.11-.19-1.07-1.79-2.07-3.05l1.62-.98c.96,1.09,1.51,1.81,2.15,2.88l-1.7,1.15Zm2.75-1.6c-.36-.62-1.04-1.7-2.15-2.88l1.66-1.02c.83,.81,1.73,1.96,2.19,2.75l-1.7,1.15Z"/><path class="cls-1" d="M153.69,8.14c-1.98-1.36-4.43-2.54-6.71-3.3l1.53-2.9c3.2,.94,5.43,2.11,6.99,3.07l-1.81,3.13Zm-6.41,7.6c8.29-.66,12.65-3.81,15.08-12.4l3.22,1.6c-3.3,11.12-9.88,13.42-17.17,14.46l-1.13-3.66Z"/><path class="cls-1" d="M174.54,.92V5.99c3.51,1.06,7.35,2.75,10.25,4.47l-1.81,3.56c-2.21-1.51-5.81-3.54-8.43-4.43v10.1h-3.71V.92h3.71Z"/><path class="cls-1" d="M204.7,9.14c-3.47-1.47-6.54-3.73-8.95-6.45-2.58,3.11-5.92,5.22-8.99,6.5l-1.43-3.22c1.94-.68,5.79-2.19,8.69-5.77h3.51c2.96,3.6,6.79,5.05,8.71,5.69l-1.55,3.26Zm-.72,.49v3.02h-6.26v4.03h7.8v3.11h-19.43v-3.11h2.34v-7.69h3.15v7.69h2.98V5.84h3.15v3.79h6.26Z"/><path class="cls-1" d="M227.79,3.71h-8.75v1.19h4.09V15.72h-10.78V4.9h4.07v-1.19h-8.8V.81h20.17V3.71Zm-19.38,.94h2.92v12.1h12.72V4.64h2.98v15.74h-2.98v-.83h-12.72v.83h-2.92V4.64Zm6.43,2.77v1.66h1.58v-1.66h-1.58Zm0,4.03v1.79h1.58v-1.79h-1.58Zm4.2-4.03v1.66h1.6v-1.66h-1.6Zm0,4.03v1.79h1.6v-1.79h-1.6Z"/></g><g><path class="cls-1" d="M8.98,11.4V6.01h8.12c2.29,0,3.31,.73,3.31,1.93,0,1.05-1.09,1.55-3.07,1.55h-3.79v2.49h7.01c3.77,0,5.36-1.73,5.36-4.14,0-2.57-1.66-4.3-5.23-4.3H8.98V0H3.46V3.54H0v2.48H3.46v6.39c0,6.93,7.9,6.74,7.9,6.74h13.78v-2.47s-10.08-.19-10.9-.19c-2.37,0-5.27-1.8-5.27-5.09Z"/><path class="cls-1" d="M33.71,18.83c5.17,0,6.35-1.11,7.96-1.97,2.13-1.15,8.02-5.91,9.78-9.79h-5.89c-.44,.82-8.04,9.9-11.8,8.26-1.13-.49-1.2-.98-1.2-3.67V.09h-5.31V11.99c0,6.4,4.36,6.84,6.45,6.84Z"/><path class="cls-1" d="M76.99,3.54V1.06h-24.81V3.54h7.31V7.57h-7.31v2.29h7.31v2.84c0,5.53,2.97,6.38,8.01,6.38h8.49v-2.47s-3.78-.12-5.27-.12c-3.77,0-6.4-.77-6.4-3.4v-3.22h12.67v-2.29h-12.67V3.54h12.67Z"/><path class="cls-1" d="M91.07,12.57c0,5.27-3.52,6.57-7.37,6.57h-5.24v-2.47h4.36c2.11,0,3.29-1.72,3.29-4.24,0-1.74,0-4.41,0-4.41h9.24c2.3,0,3.05-.95,3.05-2.12,0-1.84-1.72-2.35-3.05-2.35h-16.88V1.06h18.54c8.99,0,8.85,9.43,1.44,9.43h-7.36s0,1.09,0,2.07Z"/><path class="cls-1" d="M98.87,18.86h.64v-1.51h.95c.59,0,.73,.3,.73,.97,0,.18,0,.38,.1,.54h.69c-.14-.15-.2-.54-.2-.97,0-.58-.33-.75-.55-.78h0c.12-.05,.61-.23,.61-.94,0-.62-.41-.99-1.22-.99h-1.76v3.68Zm.64-3.15h1.05c.33,0,.64,.09,.64,.56,0,.39-.22,.59-.63,.59h-1.06v-1.15"/><path class="cls-1" d="M103.36,17.04c0,1.71-1.38,3.09-3.09,3.09s-3.09-1.38-3.09-3.09,1.38-3.09,3.09-3.09,3.09,1.38,3.09,3.09Zm-3.1-2.64c-1.45,0-2.63,1.18-2.63,2.63s1.18,2.63,2.63,2.63,2.63-1.18,2.63-2.63-1.18-2.63-2.63-2.63Z"/></g></g></g></svg>