<svg xmlns="http://www.w3.org/2000/svg" width="739.974" height="467.95"><g transform="translate(10486.39 -5703.31)"><rect data-name="長方形 2880" width="739.974" height="429.95" rx="6" transform="translate(-10486.39 5703.31)" fill="#fff"/><path data-name="長方形 2880 - アウトライン" d="M-10480.39 5704.31a5.006 5.006 0 0 0-5 5v417.95a5.006 5.006 0 0 0 5 5h727.974a5.006 5.006 0 0 0 5-5v-417.95a5.006 5.006 0 0 0-5-5h-727.974m0-1h727.974a6 6 0 0 1 6 6v417.95a6 6 0 0 1-6 6h-727.974a6 6 0 0 1-6-6v-417.95a6 6 0 0 1 6-6Z" fill="#ccc"/><path data-name="パス 4478" d="M-10320.534 5893.23h1.922v-1.817h6.82v1.817h1.949v-1.817h6.373v-1.607h-6.373v-1.764h-1.949v1.764h-6.82v-1.764h-1.922v1.764h-6.188v1.607h6.188Zm3.344 4.608a7.806 7.806 0 0 1-2.212 2.265 24.011 24.011 0 0 0-2.9-1.9c.184-.132.342-.237.527-.369Zm1.185-1.369-.342.079h-3.9a15.852 15.852 0 0 0 1.106-1.211h5.082v5.345c0 1.9.632 2.344 3.081 2.344h4.714c1.87 0 2.4-.579 2.607-2.87a4.766 4.766 0 0 1-1.606-.632c-.079 1.712-.237 1.975-1.185 1.975h-4.371c-1.238 0-1.448-.132-1.448-.816v-1.4a39.989 39.989 0 0 0 7.294-2.028l-1.422-1.132a30.682 30.682 0 0 1-5.872 1.817v-2.604h8.242v-1.58h-22.092v1.58h4.977a15.652 15.652 0 0 1-5.71 3.476 8.408 8.408 0 0 1 1.159 1.238 20.637 20.637 0 0 0 2.159-1.08 18.23 18.23 0 0 1 2.818 1.949 20.733 20.733 0 0 1-5.582 1.817 5.937 5.937 0 0 1 1 1.343c5.714-1.238 9.085-3.687 10.4-7.136Zm12.692 8.927h-6.346v-2.107h-1.975v2.107h-7.031v-2.107h-1.843v2.107h-6.531v1.685h6.346c-.421 1.422-1.764 2.765-5.793 3.634a7.5 7.5 0 0 1 1.159 1.475c4.793-1.132 6.215-3.055 6.557-5.109h7.136v5.03h1.975v-5.03h6.346Zm10.981-14.724v1.425h6.846v1.58h-5.951v1.343h5.951v1.712h-7.664v1.448h17.617v-1.448h-8.057v-1.712h6.293v-1.343h-6.293v-1.58h7.189v-1.425h-4.082a23.182 23.182 0 0 0 1.554-2.054l-1.87-.606a26.87 26.87 0 0 1-1.633 2.66h-3.95a12.494 12.494 0 0 0-1.789-2.6l-1.554.579a17.112 17.112 0 0 1 1.369 2.021Zm11.8 8.9a17.448 17.448 0 0 1 3.055 2.607l1.211-.974a14.8 14.8 0 0 0-3.107-2.5Zm-13.4-11.455a29.1 29.1 0 0 1-6.135 10.243 14.844 14.844 0 0 1 1.053 1.843 29.04 29.04 0 0 0 2.423-3.028v14.882h1.87v-17.906a39.857 39.857 0 0 0 2.528-5.5Zm15.662 16.278a12.651 12.651 0 0 1-2.133 2.528 18.533 18.533 0 0 1-.737-2.9h5.741v-1.445h-5.951a32.934 32.934 0 0 1-.263-3.766h-1.712a41.69 41.69 0 0 0 .263 3.766h-4.266v-2.08a30.58 30.58 0 0 0 2.9-.632l-1.132-1.185a45.9 45.9 0 0 1-7.663 1.264 5.171 5.171 0 0 1 .448 1.211 48.386 48.386 0 0 0 3.713-.395v1.817h-4.292v1.448h4.292v2.054c-1.685.237-3.213.421-4.424.553l.211 1.5 4.213-.579v2.607c0 .29-.105.342-.395.369s-1.29.026-2.37-.026a6.148 6.148 0 0 1 .553 1.5 10.226 10.226 0 0 0 3.107-.237c.658-.263.843-.685.843-1.58v-2.87l3.318-.474-.026-1.422-3.292.448v-1.843h4.474a19.67 19.67 0 0 0 1.08 4.055 21.4 21.4 0 0 1-4.029 2.344 10.458 10.458 0 0 1 1.159 1.29 26.945 26.945 0 0 0 3.555-2.186c.922 1.606 2.159 2.554 3.66 2.554 1.475-.026 2.054-.711 2.291-3.16a4.279 4.279 0 0 1-1.343-.816c-.079 1.738-.263 2.291-.843 2.317-.9 0-1.738-.711-2.423-2a16.049 16.049 0 0 0 3.055-3.5Zm18.406-7.11a2.791 2.791 0 1 0 2.791 2.791 2.776 2.776 0 0 0-2.791-2.791Zm22.277-9.058a29.815 29.815 0 0 1-7.163 10.69 12.594 12.594 0 0 1 1.211 1.949 30.718 30.718 0 0 0 3.107-3.608v14.773h1.949v-17.669a42.331 42.331 0 0 0 2.818-5.556Zm17.907 23.045a59.626 59.626 0 0 0-4.924-11.744l-1.764.685a73.221 73.221 0 0 1 3.186 7.136c-3.4.29-6.846.606-9.822.843a190.78 190.78 0 0 0 5-18.96l-2.186-.369a150.523 150.523 0 0 1-4.819 19.486l-2.581.211.421 2c3.871-.342 9.374-.9 14.615-1.448a30.709 30.709 0 0 1 .922 3Zm22.33-4.665h-6.32v-1.975h6.32Zm-6.32-5.372h6.32v1.843h-6.32Zm-7.61-4.663v-1.9h5.661v1.9Zm13.509-1.9v1.9h-5.9v-1.9Zm5.082 8.4h-2.712v-3.286h-8.269v-1.843h7.847v-4.634h-7.847v-1.528h10.48v-1.609h-10.48v-2.1h-1.949v2.1h-10.27v1.609h10.27v1.527h-7.531v4.635h7.531v1.843h-8.268v1.448h8.268v1.843h-10.77v1.555h10.77v1.975h-8.505v1.5h8.505v1.817c0 .448-.158.606-.658.632-.448 0-2.028.026-3.608-.026a6.492 6.492 0 0 1 .685 1.659 15.723 15.723 0 0 0 4.371-.316c.79-.29 1.159-.737 1.159-1.949v-1.817h6.32v1.185h1.949v-4.66h2.712Zm14.483-13.9-2.317-.211a21.847 21.847 0 0 1-.816 4.556 39.217 39.217 0 0 1-2.976.132 24.839 24.839 0 0 1-3.213-.184l.132 1.975c1 .053 2.107.079 3.081.079.764 0 1.554-.026 2.344-.079a38.969 38.969 0 0 1-5.635 9.848l2.028 1.053a46.575 46.575 0 0 0 5.741-11.112 35.712 35.712 0 0 0 4.793-.974l-.053-1.975a25.448 25.448 0 0 1-4.134.974c.419-1.525.788-3.132 1.025-4.082Zm-1.444 18.277c0-1.211 1.317-2.107 3.239-2.107a9.13 9.13 0 0 1 2.712.395c.026.448.026.843.026 1.185 0 1.448-.737 2.607-2.923 2.607-2.054 0-3.054-.842-3.054-2.08Zm7.663-10.138h-2.063c.053 1.87.184 4.477.29 6.636a11.752 11.752 0 0 0-2.581-.263c-2.976 0-5.267 1.527-5.267 3.95 0 2.607 2.37 3.792 5.267 3.792 3.265 0 4.608-1.712 4.608-3.818 0-.316 0-.685-.026-1.106a19.682 19.682 0 0 1 4.266 3.028l1.132-1.791a18.066 18.066 0 0 0-5.477-3.265c-.053-1.633-.158-3.344-.184-4.319a37.107 37.107 0 0 1 .03-2.844Zm5.266.711 1.185-1.738a39.773 39.773 0 0 0-6.135-3.5l-1.08 1.606a30.834 30.834 0 0 1 6.026 3.632Zm11.692-8.084-2.08.869c1.238 2.844 2.633 5.925 3.845 8.11-2.844 1.949-4.556 4.082-4.556 6.82 0 3.95 3.555 5.425 8.505 5.425a48.708 48.708 0 0 0 8.321-.658l.026-2.344a39.182 39.182 0 0 1-8.426.9c-4.161 0-6.241-1.369-6.241-3.555 0-2 1.475-3.739 3.924-5.319a76.733 76.733 0 0 1 7.294-4.029 40.256 40.256 0 0 0 2-1.08l-1.053-1.922a16.445 16.445 0 0 1-1.87 1.238c-1.448.816-3.845 1.975-6.162 3.371a60.023 60.023 0 0 1-3.531-7.826Zm13.057-.266-1.422.606a27.215 27.215 0 0 1 2.159 3.66l1.422-.632a37.77 37.77 0 0 0-2.159-3.634Zm2.9-1.053-1.4.579a26.74 26.74 0 0 1 2.212 3.634l1.4-.632a30.623 30.623 0 0 0-2.216-3.579Zm28.2 12.245c0-5.346-3.924-9.69-10.085-9.69-6.425 0-11.507 5-11.507 10.717 0 4.345 2.344 7.031 4.687 7.031 2.449 0 4.529-2.765 6.136-8.189a51.8 51.8 0 0 0 1.58-7.584 7.333 7.333 0 0 1 7.031 7.636c0 4.556-3.318 7.057-6.688 7.821a19.892 19.892 0 0 1-2.265.342l1.238 1.949c6.237-.815 9.871-4.501 9.871-10.031Zm-19.539.843c0-3.581 3.107-7.9 8.163-8.532a43.022 43.022 0 0 1-1.475 7.11c-1.343 4.45-2.739 6.215-3.976 6.215-1.186.001-2.713-1.473-2.713-4.791Zm33.363.158c-.448-.711-2.423-3.687-3.16-4.661v-1.657h3v-1.817h-3v-5.688h-1.792v5.688h-3.687v1.817h3.476a28.582 28.582 0 0 1-4 9.875 10.922 10.922 0 0 1 1 1.685 27.494 27.494 0 0 0 3.213-7.347v12.3h1.791v-12.537c.79 1.317 1.712 2.949 2.08 3.792Zm5.319 3.634c-2.4 1.317-4.872 2.66-6.53 3.5l.922 1.633c1.791-1 4.029-2.291 6.135-3.529Zm-4.635-3.527a19.1 19.1 0 0 1 2.633 3.529l1.422-1a18.421 18.421 0 0 0-2.712-3.4Zm10.4 3.66a35.329 35.329 0 0 0 3.581-3.581l-1.5-1.053a27.07 27.07 0 0 1-3.239 3.529 16.252 16.252 0 0 1-1.58-3.423v-1.054h6.636v-1.659h-6.636v-2.028h5.688v-1.527h-5.688v-1.87h6.267v-1.606h-3.475c.5-.79 1.08-1.817 1.633-2.791l-1.922-.553a22.919 22.919 0 0 1-1.527 3.265l.237.079h-4.582l.474-.184a13.991 13.991 0 0 0-1.58-3.028l-1.527.5a19.65 19.65 0 0 1 1.317 2.712h-3.293v1.606h6.083v1.87h-5.319v1.527h5.319v2.028h-6.636v1.659h6.636v9.848c0 .342-.079.448-.421.448-.342.026-1.475.026-2.633 0a6.4 6.4 0 0 1 .553 1.791 9.847 9.847 0 0 0 3.5-.342c.685-.316.9-.843.9-1.9v-5.079a13.838 13.838 0 0 0 5.846 6.162 8.324 8.324 0 0 1 1.264-1.58 11.562 11.562 0 0 1-5.214-4.4Zm27.1-11.086-.4.079h-8.979a48.306 48.306 0 0 0 1.922-4.819l-2.186-.5c-1.475 4.872-4.345 10.691-8.268 14.325a10.9 10.9 0 0 1 1.843 1.159 31.029 31.029 0 0 0 5.741-8.189h8.927a40.29 40.29 0 0 1-4.608 8.058 55.6 55.6 0 0 0-4.714-2.528l-1.264 1.58c3.713 1.791 8.058 4.687 10.059 6.873l1.4-1.791a24.041 24.041 0 0 0-3.739-3 42.627 42.627 0 0 0 5.74-10.454Zm18.904-5.374-2.317-.211a21.851 21.851 0 0 1-.816 4.556 39.217 39.217 0 0 1-2.976.132 24.84 24.84 0 0 1-3.213-.184l.132 1.975c1 .053 2.107.079 3.081.079.764 0 1.554-.026 2.344-.079a38.966 38.966 0 0 1-5.635 9.848l2.028 1.053a46.573 46.573 0 0 0 5.74-11.112 35.712 35.712 0 0 0 4.793-.974l-.051-1.973a25.45 25.45 0 0 1-4.134.974c.419-1.527.787-3.134 1.024-4.084Zm-1.448 18.275c0-1.211 1.317-2.107 3.239-2.107a9.129 9.129 0 0 1 2.712.395c.026.448.026.843.026 1.185 0 1.448-.737 2.607-2.923 2.607-2.053.002-3.054-.84-3.054-2.078Zm7.658-10.136h-2.054c.053 1.87.184 4.477.29 6.636a11.751 11.751 0 0 0-2.581-.263c-2.976 0-5.267 1.527-5.267 3.95 0 2.607 2.37 3.792 5.267 3.792 3.265 0 4.608-1.712 4.608-3.818 0-.316 0-.685-.026-1.106a19.679 19.679 0 0 1 4.266 3.028l1.132-1.791a18.066 18.066 0 0 0-5.477-3.265c-.053-1.633-.158-3.344-.184-4.319a39.161 39.161 0 0 1 .026-2.844Zm5.266.711 1.185-1.738a39.771 39.771 0 0 0-6.135-3.5l-1.08 1.606a30.831 30.831 0 0 1 6.035 3.632Zm10.006-6.136v2.133c2.08.184 4.319.29 6.978.29 2.423 0 5.293-.184 7.083-.316v-2.159a69.248 69.248 0 0 1-7.11.369 65.82 65.82 0 0 1-6.945-.316Zm1.053 10.612-2.133-.211a14.864 14.864 0 0 0-.553 3.66c0 3.318 3.107 5.082 8.453 5.082a37.117 37.117 0 0 0 8.979-.922l-.026-2.265a33.153 33.153 0 0 1-9.006 1.027c-4.213 0-6.241-1.369-6.241-3.4a9.337 9.337 0 0 1 .533-2.97Zm13.752-13.561-1.422.606a27.487 27.487 0 0 1 2.159 3.687l1.422-.658a41.294 41.294 0 0 0-2.159-3.635Zm2.9-1.053-1.4.606a24.176 24.176 0 0 1 2.186 3.634l1.448-.632a38.365 38.365 0 0 0-2.238-3.608Zm11.8 7.636h3.766v-1.843h-3.773v-5.635h-1.843v5.635h-4.266v1.843h4.029a28.1 28.1 0 0 1-4.608 9.9 10.9 10.9 0 0 1 1.027 1.791 27.537 27.537 0 0 0 3.818-7.742v12.588h1.843v-11.985a43.125 43.125 0 0 1 2.686 3.818l1.211-1.606c-.553-.711-2.976-3.5-3.9-4.45Zm6.794 12.982v-4.555h7.979v4.555Zm7.979-17.064v4.4h-7.979v-4.4Zm-7.979 6.188h7.979v4.529h-7.979Zm-1.87-8.031v22.3h1.87v-1.58h7.979v1.5h1.922v-22.219Zm37.919.079a25.039 25.039 0 0 1-2.238 4.24l1.448.606a40.293 40.293 0 0 0 2.633-4.187Zm-9.348.158a7.137 7.137 0 0 1-2.08 4.292l1.5.737a7.991 7.991 0 0 0 2.208-4.712Zm11.718 8.426a62.148 62.148 0 0 0-6.688-4.529 25.743 25.743 0 0 0 .737-5.662h-1.9c-.263 5.583-1 8.69-6.4 10.349a5.655 5.655 0 0 1 1.106 1.527c3.055-1.027 4.792-2.5 5.82-4.556a51.93 51.93 0 0 1 6.03 4.345Zm-3.09 7.822a42.954 42.954 0 0 0 2.87-4.556l-1.9-.658a27.33 27.33 0 0 1-2.449 4.582Zm-9.8.474a8.713 8.713 0 0 0 2.633-5.135l-1.738-.369a7.558 7.558 0 0 1-2.449 4.582Zm-2.344-17.59h-7.478v1.58h7.478Zm.948 3.45h-9.743v1.606h9.743Zm-.9 3.555h-7.636v1.553h7.636Zm-7.636 5.056h7.636v-1.58h-7.636Zm5.978 3.555v4.424h-4.292v-4.425Zm1.685-1.606h-7.689v8.821h1.712v-1.212h5.977Zm9.058-4.055h-1.949v3.766c0 1.5-.922 5.741-7.031 7.847a8.975 8.975 0 0 1 1.159 1.58c4.608-1.685 6.451-4.977 6.846-6.583a10.45 10.45 0 0 0 6.162 6.583 16.16 16.16 0 0 1 1.185-1.659c-5.451-2.028-6.373-6.32-6.373-7.768Zm20.618-6.609v2.107a61.9 61.9 0 0 0 10.823 0v-2.135a45.052 45.052 0 0 1-10.811.026Zm1.027 10.717-1.9-.184a14.152 14.152 0 0 0-.448 3.107c0 2.475 1.975 3.95 6.4 3.95a35.684 35.684 0 0 0 6.583-.553l-.053-2.212a29.048 29.048 0 0 1-6.53.685c-3.581 0-4.45-1.159-4.45-2.37a9.2 9.2 0 0 1 .41-2.425Zm-6.044-12.747-2.344-.208a11.529 11.529 0 0 1-.184 1.87 74.061 74.061 0 0 0-1.185 10.559 33.158 33.158 0 0 0 .974 8.453l1.9-.132c-.026-.263-.053-.632-.079-.922a5.082 5.082 0 0 1 .132-1.185 53.732 53.732 0 0 1 1.87-5.9l-1.106-.843c-.448 1.08-1.08 2.66-1.527 3.845a28.887 28.887 0 0 1-.237-3.687 61.154 61.154 0 0 1 1.317-10.085c.1-.473.337-1.317.469-1.765Zm27.07 21.277 1.791-1.527a49.432 49.432 0 0 0-5.9-5.846l-1.712 1.5a43.879 43.879 0 0 1 5.821 5.873Zm-454.081 28.966a14.492 14.492 0 0 1-3.581 4.5 13.486 13.486 0 0 1-3.4-4.5Zm1.343-1.817-.369.079h-11.428v1.738h2.712l-1.053.342a16.8 16.8 0 0 0 3.739 5.267 20.854 20.854 0 0 1-5.977 2.712 7.682 7.682 0 0 1 1.132 1.606 23.633 23.633 0 0 0 6.346-3.078 19.184 19.184 0 0 0 6.451 3.028 10.491 10.491 0 0 1 1.211-1.633 17.713 17.713 0 0 1-6.162-2.554 16.322 16.322 0 0 0 4.714-6.925Zm-20.3 13.64a18.925 18.925 0 0 1-1.712 6.267 6.84 6.84 0 0 1 1.527.737 23.175 23.175 0 0 0 1.87-6.688Zm6.636-1.922a12.256 12.256 0 0 1 .474 1.527l1.475-.658a20.851 20.851 0 0 0-2.475-5.372l-1.369.553a20.071 20.071 0 0 1 1.238 2.37l-3.9.158a90.353 90.353 0 0 0 5.24-7.847l-1.659-.737a53.644 53.644 0 0 1-2.66 4.714 21.143 21.143 0 0 0-1.527-1.712c.974-1.475 2.08-3.555 2.976-5.293l-1.712-.685a33.3 33.3 0 0 1-2.37 4.9c-.263-.237-.5-.474-.764-.685l-1 1.29a24.529 24.529 0 0 1 3.4 3.713 41.724 41.724 0 0 1-1.738 2.423l-1.738.079.158 1.738c1.211-.079 2.633-.158 4.134-.237v10.847h1.738v-10.954Zm-1.211 2.212a25.824 25.824 0 0 1 1.606 4.819l1.5-.5a24.415 24.415 0 0 0-1.685-4.793Zm11.007 2h5.188v-1.764h-5.188v-3.791h-1.922v3.791h-5v1.764h5v4.292h-6.692v1.764h14.96v-1.762h-6.346Zm26.146-17.194a16.828 16.828 0 0 1-6.215 6.715 7.154 7.154 0 0 1 .974 1.527 19.841 19.841 0 0 0 6.215-6.478 21.451 21.451 0 0 0 6.267 6.241 11.684 11.684 0 0 1 1.027-1.659 18.689 18.689 0 0 1-6.5-6.346Zm-15.4 22.567c1.027-1.4 1.317-3.9 1.448-6.215l-1.238-.237c-.079 2.212-.395 4.529-1.317 5.82Zm2.054-6a26.231 26.231 0 0 1 .369 4.819l1.08-.158a26.444 26.444 0 0 0-.421-4.793Zm.053-6.057h2.554v2.42h-2.561Zm2.554-7.768v2.265h-2.561v-2.268Zm0 6.188h-2.561v-2.347h2.554Zm1.606 4v-2.423h2.923v-1.577h-2.923v-2.347h2.923v-1.58h-2.923v-2.264h3.476v-1.659h-9.322v13.43h7.847c-.079 1.764-.158 3.16-.263 4.24a15.849 15.849 0 0 0-1.422-3.186l-.922.342a15.284 15.284 0 0 1 1.422 3.423l.9-.369c-.158 2-.369 2.9-.632 3.239a.789.789 0 0 1-.711.263c-.342 0-1.159 0-2.054-.053a3.927 3.927 0 0 1 .448 1.554 17.16 17.16 0 0 0 2.344 0 1.884 1.884 0 0 0 1.4-.685c.606-.79.922-3.107 1.185-9.585.026-.263.026-.764.026-.764Zm-.263 7.373a18.9 18.9 0 0 0-1.08-4.187l-.974.211a20.554 20.554 0 0 1 1.027 4.24Zm6.373-5.109v-3.45h3.186v.869a17.185 17.185 0 0 1-.158 2.581Zm8.216-3.45v3.45h-3.423a20.74 20.74 0 0 0 .132-2.554v-.9Zm1.712 4.951v-6.478h-5v-2.08h3.265v-1.607h-8.137v1.606h3.134v2.08h-4.845v6.478h4.345c-.711 2.212-2.291 4.319-5.846 5.951a6.7 6.7 0 0 1 1.238 1.369c3.634-1.738 5.372-3.976 6.188-6.373a11.217 11.217 0 0 0 5.583 6.346 7.144 7.144 0 0 1 1.238-1.554 9.893 9.893 0 0 1-5.477-5.741Zm23.726-11.586h-3.851v-1.87h3.845Zm0 3.213h-3.851v-1.87h3.845Zm-14.694-1.87h3.581v1.87h-3.581Zm0-3.213h3.581v1.87h-3.581Zm9.164 3.213v1.87h-3.871v-1.87Zm0-3.213v1.87h-3.871v-1.87Zm7.426-1.4h-5.747v-1.9h-1.685v1.9h-3.871v-1.9h-1.712v1.9h-5.4v7.9h18.408Zm2.265 9.269h-22.653v1.475h22.646Zm-7.268 7.9a17.478 17.478 0 0 1-1.527 2.66l.553.211h-6.531l.658-.237a10.885 10.885 0 0 0-1.422-2.633Zm-10.514-3.678h12.719v2.317h-12.719Zm10.77 6.557a31.119 31.119 0 0 0 1.527-2.449l-1.132-.421h3.525v-5.061h-16.59v5.056h3.739l-1.317.421a10.826 10.826 0 0 1 1.264 2.449h-7.083v1.554h23.436v-1.553Zm22.251-5.793v2.08h-6.109v-2.08Zm8.269 2.076h-6.372v-2.08h6.372Zm-6.372 3.5v-2.131h6.372v2.133Zm-8.005-2.133h6.109v2.133h-6.109Zm-1.87 4.477h1.87v-.843h14.377v.737h1.922v-9.3h-18.17Zm16.537-18.884h-14.984v1.422h14.984Zm-13.008 4.371h11.06v2.238h-11.06Zm12.956 3.634v-5.03h-14.747v5.03Zm-6.558-11.423v-1.738h-1.975v1.738h-9.9v4.951h1.87v-3.266h18.2v3.265h1.922v-4.95Zm25.437-.606-2.317-.211a21.849 21.849 0 0 1-.816 4.556 39.217 39.217 0 0 1-2.976.132 24.837 24.837 0 0 1-3.213-.184l.132 1.975c1 .053 2.107.079 3.081.079.764 0 1.554-.026 2.344-.079a38.967 38.967 0 0 1-5.635 9.848l2.028 1.053a46.575 46.575 0 0 0 5.741-11.112 35.71 35.71 0 0 0 4.793-.974l-.053-1.975a25.449 25.449 0 0 1-4.134.974c.42-1.528.789-3.134 1.026-4.082Zm-1.448 18.275c0-1.211 1.317-2.107 3.239-2.107a9.13 9.13 0 0 1 2.712.395c.026.448.026.843.026 1.185 0 1.448-.737 2.607-2.923 2.607-2.053 0-3.054-.842-3.054-2.08Zm7.663-10.138h-2.054c.053 1.87.184 4.477.29 6.636a11.752 11.752 0 0 0-2.581-.263c-2.976 0-5.266 1.527-5.266 3.95 0 2.607 2.37 3.792 5.266 3.792 3.265 0 4.608-1.712 4.608-3.818 0-.316 0-.685-.026-1.106a19.681 19.681 0 0 1 4.266 3.028l1.132-1.791a18.067 18.067 0 0 0-5.477-3.265c-.053-1.633-.158-3.344-.184-4.319a34.191 34.191 0 0 1 .026-2.844Zm5.267.711 1.185-1.738a39.774 39.774 0 0 0-6.135-3.5l-1.08 1.606a30.834 30.834 0 0 1 6.031 3.632Zm25.358-5.556-1.343-1.027a7.211 7.211 0 0 1-1.975.211h-10.164c-.79 0-2.291-.105-2.66-.158v2.4c.29-.026 1.738-.132 2.66-.132h10.27a23.172 23.172 0 0 1-4.371 7.32 30.111 30.111 0 0 1-10.85 7.818l1.685 1.764a33.383 33.383 0 0 0 10.27-7.689 60.8 60.8 0 0 1 7.241 7.821l1.843-1.58a73.048 73.048 0 0 0-7.689-7.873 33.328 33.328 0 0 0 4.424-7.715 7.561 7.561 0 0 1 .659-1.16Zm20.7-3.055-2.4-.764a9.511 9.511 0 0 1-.843 2.08 24.131 24.131 0 0 1-8.453 9.164l1.764 1.369a28.725 28.725 0 0 0 6.978-6.978h8.9a22 22 0 0 1-3.581 7.294 77.594 77.594 0 0 0-5.556-3.555l-1.422 1.448c1.685 1.053 3.687 2.423 5.583 3.792a23.1 23.1 0 0 1-10.191 6.346l1.9 1.633a24.988 24.988 0 0 0 10.033-6.689c1.08.869 2.08 1.685 2.87 2.4l1.554-1.817c-.843-.685-1.9-1.5-3-2.317a26.508 26.508 0 0 0 4.108-8.189 8.639 8.639 0 0 1 .632-1.422l-1.738-1.053a5.248 5.248 0 0 1-1.738.263h-7.136a8.82 8.82 0 0 0 .553-.948c.259-.477.733-1.37 1.18-2.057Zm26.254 5.5-1.922.658a49.659 49.659 0 0 1 2.054 5.714l1.949-.685c-.346-1.154-1.636-4.63-2.084-5.683Zm9.532 1.475-2.265-.711a18.058 18.058 0 0 1-3.634 9.006 17.731 17.731 0 0 1-8.558 5.609l1.738 1.764a20.066 20.066 0 0 0 8.584-6.267 20.638 20.638 0 0 0 3.739-8.084c.104-.34.209-.761.393-1.314Zm-15.643-.155-1.95.767a47.1 47.1 0 0 1 2.344 5.925l2-.737c-.499-1.373-1.868-4.823-2.394-5.955Zm43.712-3.66-1.612-1.027a5.406 5.406 0 0 1-1.4.132h-13.21c-.869 0-1.9-.079-2.633-.158v2.317c.685-.026 1.58-.079 2.633-.079h13.456a20.034 20.034 0 0 1-3.45 8.584c-2.212 2.818-5.161 5.056-10.27 6.346l1.791 1.975a20.126 20.126 0 0 0 10.375-7.057c2.08-2.712 3.371-6.952 3.924-9.717a5.555 5.555 0 0 1 .395-1.316Zm16.142-2.949-2.423-.237a29.4 29.4 0 0 1-.685 5.741c-1.606.132-3.134.263-4 .29-.843.026-1.527.026-2.37 0l.237 2.265c.658-.105 1.764-.237 2.37-.316.685-.079 1.949-.211 3.344-.342-.9 3.529-2.87 9.532-5.556 13.114l2.133.869c2.791-4.45 4.582-10.428 5.556-14.193 1.132-.105 2.186-.184 2.818-.184 1.685 0 2.791.448 2.791 2.844 0 2.844-.395 6.294-1.238 8.058a2.2 2.2 0 0 1-2.317 1.369 12.82 12.82 0 0 1-3.213-.553l.342 2.212a15.952 15.952 0 0 0 3.107.369 3.707 3.707 0 0 0 3.845-2.186c1.08-2.186 1.527-6.373 1.527-9.506 0-3.581-1.922-4.477-4.292-4.477-.632 0-1.712.079-2.949.184.29-1.422.527-2.976.685-3.739.076-.529.182-1.082.287-1.582Zm9.058 3.055-1.922.869c1.87 2.159 3.924 6.741 4.714 9.453l2.028-.974a44.922 44.922 0 0 0-4.821-9.349Zm.316-3.818-1.422.579a32.229 32.229 0 0 1 2.133 3.66l1.448-.632a37.323 37.323 0 0 0-2.16-3.608Zm2.9-1.08-1.4.606a29.528 29.528 0 0 1 2.186 3.634l1.422-.632a38 38 0 0 0-2.212-3.609Zm17.933 4.608h-5.293v-4.289h-1.87v4.292h-5v1.817h12.166Zm-4.187 2.423a34.123 34.123 0 0 1-1.659 6.741 73.545 73.545 0 0 0-4.134-4.714l-1.369 1.106a66.652 66.652 0 0 1 4.661 5.609 15.662 15.662 0 0 1-6.109 6.82 8.955 8.955 0 0 1 1.369 1.5 17.981 17.981 0 0 0 5.951-6.61 31.094 31.094 0 0 1 2.291 3.845l1.58-1.343a31.9 31.9 0 0 0-2.923-4.5 37.3 37.3 0 0 0 2.238-8.189Zm15.615-.448h-3.134v-6.32h-1.922v6.32h-7.193v1.87h7.189v13.192c0 .474-.184.606-.632.632s-1.9.026-3.555-.026a8.131 8.131 0 0 1 .632 2.028 13.822 13.822 0 0 0 4.371-.369c.79-.369 1.106-.948 1.106-2.265v-13.193h3.134Zm-7.426 10.4a20.51 20.51 0 0 0-2.9-5.793l-1.606.737a23.032 23.032 0 0 1 2.844 5.9Zm31.464 4.136h-3.95v-12.114h3.95Zm-16.827-12.114h3.739v12.114h-3.739Zm11.086 2.9h-5.556v-2.9h5.556Zm-5.556 6.162h5.556v3.052h-5.556Zm5.556-1.606h-5.556v-2.953h5.556Zm8.979-12.561v-1.87h-23.146v1.87h10.081c-.211 1.08-.474 2.291-.764 3.292h-8.136v17.139h1.9v-1.4h16.827v1.4h1.973v-17.143h-10.558c.342-1 .711-2.186 1.027-3.292Zm4.951 1.08.237 2.291c2.844-.606 9.559-1.238 12.376-1.554a10.7 10.7 0 0 0-4.924 8.9c0 5.872 5.556 8.479 10.428 8.663l.764-2.186c-4.292-.158-9.085-1.791-9.085-6.925a9.268 9.268 0 0 1 6.03-8.347 22.055 22.055 0 0 1 5.161-.421v-2.11c-1.764.079-4.24.237-7.11.474-4.845.395-9.822.9-11.534 1.08-.5.052-1.342.105-2.343.131Zm17.2 3.66-1.348.579a24.44 24.44 0 0 1 2.159 3.713l1.343-.632a31.244 31.244 0 0 0-2.159-3.663Zm2.87-1.106-1.29.606a24.407 24.407 0 0 1 2.204 3.679l1.369-.658a34.782 34.782 0 0 0-2.287-3.63Zm16.326-6.267h-2.344a13.878 13.878 0 0 1 .132 1.87c0 .474-.026 1.633-.026 3-.737.053-1.422.079-2.028.079a24.368 24.368 0 0 1-3.371-.211l.053 2a28.929 28.929 0 0 0 3.371.132c.553 0 1.211-.026 1.949-.079-.026 1.159-.026 2.4-.026 3.45v1.5c-3.028 1.29-5.767 3.581-5.767 5.767 0 2.344 3.423 4.371 5.477 4.371 1.422 0 2.317-.79 2.317-3.239 0-1.132-.053-3.476-.105-5.714a17.249 17.249 0 0 1 5.74-1.027c2.5 0 4.529 1.211 4.529 3.45 0 2.423-2.107 3.66-4.424 4.108a13.467 13.467 0 0 1-3.081.184l.737 2.133a19.969 19.969 0 0 0 3.265-.369c3.608-.869 5.609-2.9 5.609-6.083 0-3.16-2.765-5.24-6.61-5.24a19.915 19.915 0 0 0-5.793.974v-.922c0-1.053.026-2.317.053-3.555a48.34 48.34 0 0 0 5.53-.922l-.053-2.054a35.416 35.416 0 0 1-5.425 1.053c.026-1.185.079-2.212.105-2.844a16.906 16.906 0 0 1 .182-1.816Zm8.163 2.923-.948 1.58a33.406 33.406 0 0 1 5.9 3.95l1.08-1.685a47.871 47.871 0 0 0-6.036-3.849Zm-14.175 14.479c0-1.185 1.606-2.712 3.766-3.713.026 1.922.079 3.713.079 4.661 0 .869-.369 1.29-.974 1.29-1.024.001-2.871-1.026-2.871-2.238Zm47.8-13.14v-1.87h-10.035v-3.37h-2v3.371h-9.665v6.794c0 3.739-.211 9.006-2.344 12.771a7.292 7.292 0 0 1 1.659 1.106c2.238-3.976 2.607-9.875 2.607-13.877v-4.925Zm-6 4.74a32.147 32.147 0 0 0-6.109-3.871l-1.343 1.264a32.607 32.607 0 0 1 6.052 4.057Zm-12.014 11.534c1.343-2.08 2-5.5 2.37-8.374l-1.791-.395c-.316 2.765-1 5.978-2.317 7.979Zm7.294.211c-1 0-1.211-.158-1.211-1.053v-10.165h-1.922v10.164c0 2.186.606 2.844 2.9 2.844h3.845c2.238 0 2.739-1.159 2.949-5.5a6.249 6.249 0 0 1-1.764-.79c-.079 3.845-.237 4.5-1.317 4.5Zm5.609-8.848a29.781 29.781 0 0 1 3.711 8.663l1.87-.816a28.369 28.369 0 0 0-3.845-8.558Zm16.011-11.639-.342 1.922c3.213.579 7.821 1.185 10.454 1.422l.288-1.952a87.248 87.248 0 0 1-10.4-1.392Zm10.928 7.531-1.264-1.422a5.645 5.645 0 0 1-1.264.29c-1.975.237-8.111.658-9.611.685a19.655 19.655 0 0 1-2.238-.053l.184 2.317c.579-.105 1.264-.184 2.133-.263 1.606-.132 6.03-.5 8.11-.632-2.607 2.607-9.769 9.769-10.823 10.849-.527.5-1 .9-1.317 1.185l2 1.4a72.444 72.444 0 0 1 5.346-5.872 2.809 2.809 0 0 1 1.949-.948 1.745 1.745 0 0 1 1.606 1.4c.237.764.632 2.317.9 3.107.553 1.738 1.87 2.238 3.976 2.238a39.318 39.318 0 0 0 4.951-.395l.132-2.212a22.716 22.716 0 0 1-4.977.527c-1.343 0-1.975-.421-2.291-1.422-.263-.869-.632-2.186-.869-2.949a2.4 2.4 0 0 0-2-1.9 4.558 4.558 0 0 0-1.027-.053c.974-1 3.95-3.766 4.951-4.687a15.3 15.3 0 0 1 1.443-1.19Zm17.458-7.268-2.66-.026a13.9 13.9 0 0 1 .211 2.686c0 2.765-.263 9.427-.263 13.324 0 4.292 2.607 5.872 6.4 5.872a13.235 13.235 0 0 0 11.007-5.82l-1.5-1.791c-1.9 2.739-4.608 5.451-9.427 5.451-2.5 0-4.319-1.027-4.319-3.924 0-3.924.184-10.138.316-13.114a22.681 22.681 0 0 1 .235-2.658Zm25.438 17.748c0-1.211 1.369-2.186 3.871-2.186a11.678 11.678 0 0 1 2.554.263c0 .685.026 1.317.026 1.764 0 1.817-1.29 2.291-2.791 2.291-2.607.001-3.66-.92-3.66-2.132Zm8.347-18.143h-2.238a14.465 14.465 0 0 1 .105 1.58v1.87h-1.211a47.844 47.844 0 0 1-6.741-.579l.026 1.949c1.659.184 4.9.448 6.741.448h1.159v3.687h-1.422a48.72 48.72 0 0 1-6.636-.5l.026 1.975c1.9.211 4.793.369 6.583.369h1.5c.026 1.132.079 2.4.105 3.581a15.08 15.08 0 0 0-2.212-.158c-3.792 0-6.083 1.633-6.083 4.029 0 2.528 2.054 3.871 5.846 3.871 3.423 0 4.635-1.87 4.635-3.687 0-.421-.026-.974-.053-1.633a19.414 19.414 0 0 1 6.372 3.976l1.211-1.87a20.955 20.955 0 0 0-7.689-4.108c-.053-1.264-.132-2.686-.184-4.055 2.5-.079 4.819-.29 7.294-.606l.026-1.975a65.524 65.524 0 0 1-7.347.711v-3.687c2.528-.132 5.03-.369 7.11-.606l.026-1.922a65.473 65.473 0 0 1-7.136.711c0-.685.026-1.264.026-1.606a13.2 13.2 0 0 1 .161-1.765Zm29.071.053h-2.4c.026.211.132.974.158 1.659.026.369.053 1 .053 1.738-3.924.053-8.874.211-11.8.263l.053 2.028c3.292-.237 7.768-.421 11.771-.448.026.922.026 1.87.026 2.66a5.272 5.272 0 0 0-1.764-.29 4.6 4.6 0 0 0-4.635 4.582 4.192 4.192 0 0 0 4.319 4.4 3.709 3.709 0 0 0 2.291-.711c-1.053 2.4-3.476 3.871-6.978 4.661l1.764 1.738c6.135-1.843 7.873-5.793 7.873-9.348a6.4 6.4 0 0 0-.843-3.371 212.573 212.573 0 0 1-.053-4.345h.369c3.845 0 6.241.053 7.715.132l.026-1.949c-1.264 0-4.5-.026-7.716-.026h-.395c0-.711.026-1.317.026-1.712.035-.345.088-1.372.14-1.661Zm-6.557 12.166a2.683 2.683 0 0 1 2.66-2.791 2.361 2.361 0 0 1 2.344 1.659c.237 2.5-.764 3.739-2.317 3.739a2.536 2.536 0 0 1-2.687-2.608Zm20.171 2.265a4.016 4.016 0 1 0 4.029 4 4.018 4.018 0 0 0-4.029-4.001Zm0 6.688a2.673 2.673 0 1 1 2.686-2.686 2.675 2.675 0 0 1-2.686 2.686Z"/><path data-name="長方形 2881" d="M-10486.39 6004.685h739.974v160.575a6 6 0 0 1-6 6h-727.974a6 6 0 0 1-6-6v-160.575Z" fill="#f0f0f0"/><path data-name="パス 4477" d="m-9779.005 5873.993-3.278-3.276-10.614 10.615-10.612-10.615-3.276 3.276 13.888 13.891Z" fill="#555"/><g data-name="グループ 3163"><path data-name="パス 4479" d="M-10281.654 5743.164a32.539 32.539 0 0 1-7.836 11.956 24.078 24.078 0 0 1 2.137 3.872 31.006 31.006 0 0 0 2.633-2.943v15.829h3.655v-21.218a49.354 49.354 0 0 0 3.066-6.319Zm22.209 27.223a69.848 69.848 0 0 0-5.173-14.244l-3.438 1.3a87.562 87.562 0 0 1 3 7.806c-2.974.279-6.009.527-8.8.774a179.989 179.989 0 0 0 5.359-21.4l-4.243-.65a148.946 148.946 0 0 1-4.918 22.36l-2.757.217.774 3.81c4.243-.434 10.067-1.022 15.642-1.642a34.77 34.77 0 0 1 .712 3.252Zm24.872-5.6h-5.575v-1.458h5.575Zm-5.575-5.609h5.575v1.332h-5.575Zm-8.611-6.164v-1.487h4.863v1.487Zm13.629-1.487v1.487h-5.018v-1.487Zm7.527 8.983h-3.221v-3.81h-9.323v-1.363h8.8v-6.133h-8.8v-1.27h11.832v-2.912h-11.833v-2.013h-3.748v2.013h-11.553v2.912h11.553v1.27h-8.394v6.133h8.394v1.363h-9.168v2.478h9.168v1.332h-12.266v2.819h12.266v1.458h-9.416v2.661h9.416v.96c0 .558-.186.743-.774.774-.5 0-2.323 0-3.81-.062a11.355 11.355 0 0 1 1.208 2.912c2.633 0 4.305-.062 5.482-.527 1.208-.527 1.642-1.27 1.642-3.1v-.96h5.575v1.27h3.748v-5.386h3.221Zm18.213-7a3.992 3.992 0 0 0-3.965 3.965 3.992 3.992 0 0 0 3.965 3.965 3.992 3.992 0 0 0 3.965-3.965 3.993 3.993 0 0 0-3.965-3.965Zm25.492-4.4h3.655v-1.611h6.629v1.611h3.686v-1.611h6.937v-2.912h-6.938v-1.58h-3.686v1.58h-6.629v-1.58h-3.655v1.58h-6.721v2.912h6.721Zm3.376 6.227a9.033 9.033 0 0 1-2.044 1.8 20.461 20.461 0 0 0-2.415-1.614l.31-.186Zm2.141-2.23-.558.093h-3.1c.279-.279.558-.589.836-.9h5.359v5.018c0 2.881.836 3.779 4.4 3.779h4.708c2.571 0 3.5-.805 3.841-3.717a9.125 9.125 0 0 1-2.886-1.082c-.155 1.7-.341 2.013-1.3 2.013h-3.963c-1.239 0-1.487-.155-1.487-.991v-.713a44.535 44.535 0 0 0 8.177-1.951l-2.478-2.013a31.791 31.791 0 0 1-5.7 1.58v-1.92h8.921v-2.789h-26.27v2.788h4.836a18.72 18.72 0 0 1-6.071 3.1 20.244 20.244 0 0 1 2.106 2.23c.589-.248 1.177-.527 1.766-.805a21.6 21.6 0 0 1 2.23 1.546 27.648 27.648 0 0 1-5.513 1.487 10.714 10.714 0 0 1 1.734 2.447c6.784-1.363 10.841-4.12 12.421-8.364Zm15.576 10.191h-7.062v-2.076h-3.748v2.076h-6.5v-2.076h-3.443v2.076h-7.403v3.1h6.815c-.805 1.177-2.6 2.23-6.5 2.912a13.917 13.917 0 0 1 2.165 2.753c5.6-1.146 7.525-3.283 8.114-5.668h6.752v5.575h3.748v-5.575h7.062Zm12.824-17.377v2.385h7.558v1.146h-6.537v2.323h6.536v1.239h-8.425v2.509h20.784v-2.509h-8.766v-1.239h6.876v-2.323h-6.876v-1.146h7.9v-2.385h-4.028a29.62 29.62 0 0 0 1.549-2.013l-3.593-.96a19.608 19.608 0 0 1-1.549 2.974h-3.9a13.277 13.277 0 0 0-1.982-2.943l-2.912 1.022a20.6 20.6 0 0 1 1.27 1.92Zm-2.664-2.85a32.577 32.577 0 0 1-6.69 11.244 28.407 28.407 0 0 1 1.827 3.624 25.131 25.131 0 0 0 1.8-2.137v16.107h3.469v-21.559a49.236 49.236 0 0 0 2.85-6.257Zm19.018 19.948a13.265 13.265 0 0 1-1.766 2.013 34.933 34.933 0 0 1-.5-2.168h6.071v-2.477h-2.969l2.261-1.673a24.329 24.329 0 0 0-3.469-2.819l-2.168 1.58a18.516 18.516 0 0 1 3.314 2.912h-3.407c-.121-1.3-.221-2.727-.221-4.182h-3.217q.046 2.182.279 4.182h-4.027v-1.766c1.115-.186 2.168-.4 3.1-.65l-1.835-2.138a49.5 49.5 0 0 1-8.859 1.3 8.663 8.663 0 0 1 .718 2.138 52.56 52.56 0 0 0 3.686-.248v1.364h-4.492v2.477h4.491v1.58c-1.766.155-3.376.31-4.708.4l.248 2.695 4.46-.465v1.7c0 .341-.124.434-.5.465a25 25 0 0 1-2.571-.031 9.381 9.381 0 0 1 .867 2.633 11 11 0 0 0 4.151-.434c.96-.434 1.239-1.084 1.239-2.54v-2.131l3.345-.372-.062-2.54-3.283.31v-1.27h4.37a23.061 23.061 0 0 0 1.084 4.151 25.36 25.36 0 0 1-4.4 2.2 17.718 17.718 0 0 1 2.044 2.323 27.44 27.44 0 0 0 3.593-1.982 4.64 4.64 0 0 0 3.879 2.445c2.044-.031 2.912-.774 3.345-3.779a6.261 6.261 0 0 1-2.295-1.362c-.124 1.549-.31 2.106-.805 2.106-.589 0-1.146-.465-1.642-1.27a18.676 18.676 0 0 0 3.469-3.717Zm14.992-2.85-4.089-.371a22.633 22.633 0 0 0-.589 4.46c0 4.274 3.562 6.659 10.655 6.659a47.5 47.5 0 0 0 10.748-1.084l-.031-4.336a44.121 44.121 0 0 1-10.872 1.208c-4.46 0-6.35-1.394-6.35-3.407a11.609 11.609 0 0 1 .527-3.129Zm15.61-16.323-2.447.991a22.857 22.857 0 0 1 1.332 2.2c-2.385.217-5.73.4-8.673.4a72.671 72.671 0 0 1-8.425-.4v4.12c2.509.186 5.2.341 8.456.341 2.943 0 6.783-.217 8.952-.372v-3.469c.279.527.558 1.053.774 1.518l2.509-1.088a45.734 45.734 0 0 0-2.478-4.241Zm3.686-1.394-2.478.991a32.84 32.84 0 0 1 2.509 4.274l2.478-1.053a44.225 44.225 0 0 0-2.509-4.212Zm14 10.376h3.872v-3.469h-3.872v-6.35h-3.531v6.35h-4.429v3.469h4c-.991 3.686-2.788 7.9-4.8 10.345a18.152 18.152 0 0 1 1.735 3.469 26.566 26.566 0 0 0 3.5-6.969v12.236h3.531v-12.886c.867 1.394 1.766 2.85 2.23 3.841l2.106-3c-.619-.774-3.252-3.965-4.336-5.142Zm8.488 13.722v-3.963h7.279v3.963Zm7.279-11.244v3.934h-7.279v-3.934Zm0-7.155v3.841h-7.279v-3.841Zm-10.809-3.464v26.974h3.531v-1.766h7.279v1.58h3.717v-26.788Zm44.2-.031a27.2 27.2 0 0 1-2.23 5.049l2.726 1.053c.867-1.3 1.982-3.19 3-4.987Zm3.779 9.943a64.4 64.4 0 0 0-7.341-4.8 32.679 32.679 0 0 0 .774-6.752h-3.562c-.248 6.133-.743 9.664-7.186 11.677a9.028 9.028 0 0 1 2.044 2.912c3.345-1.149 5.358-2.701 6.628-4.749a46.374 46.374 0 0 1 6.195 4.491Zm-14.714 10.588a11.832 11.832 0 0 0 2.881-6.319l-3.221-.65a9.9 9.9 0 0 1-2.695 5.451Zm.031-20.35a10.024 10.024 0 0 1-2.323 5.111l2.88 1.239a11.043 11.043 0 0 0 2.447-5.73Zm-3.5-.867h-9.106v2.788h9.11Zm1.115 4.151h-11.77v2.912h11.77Zm-1.022 4.305h-9.289v2.819h9.292Zm-9.292 7h9.292v-2.757h-9.289Zm6.195 4.429v3.562h-3.192v-3.562Zm3.128-2.912h-9.42v10.563h3.1v-1.208h6.319Zm14.806 3.5a59.576 59.576 0 0 0 3.252-5.327l-3.624-1.115a33.488 33.488 0 0 1-2.447 5.359 6.673 6.673 0 0 1-.589-2.6v-4.679h-3.748v4.677c0 2.075-1.58 6.133-7.5 8.208a15.439 15.439 0 0 1 2.013 3 12.346 12.346 0 0 0 7.372-6.814 11.461 11.461 0 0 0 6.69 6.814 29.1 29.1 0 0 1 2.106-3.128c-3.655-1.363-5.513-3.531-6.35-5.421Zm31.315-14.433a7.571 7.571 0 0 1-1.58-.743c-.124 1.735-.248 2.013-.867 2.013h-2.137c-.712 0-.867-.093-.867-.805v-2.23h5.451Zm-19.885-1.766h4.644c-.711 2.385-2.322 3.843-8.052 4.643a9.109 9.109 0 0 1 1.8 2.788c7.031-1.27 9.2-3.593 10.067-7.434h2.323v2.261c0 2.726.743 3.593 3.934 3.593h3.1c2.23 0 3.128-.743 3.469-3.345h2.323v-5.421h-11.684v-2.292h-3.78v2.292h-11.676v5.73h3.531Zm22.734 12.607a40.47 40.47 0 0 0-6.721-6.381l-2.943 1.487c.589.465 1.177.991 1.8 1.549-2.478.093-4.956.217-7.31.31.9-1.239 1.827-2.6 2.664-3.934l-3.841-.96a30.766 30.766 0 0 1-2.729 5.017c-1.889.093-3.624.155-5.111.186l.5 3.19c2.633-.124 5.916-.248 9.416-.4l-2.137 1.456a25.5 25.5 0 0 1 4.894 4.305l2.69-1.989a22.249 22.249 0 0 0-4.553-3.81c2.757-.124 5.668-.279 8.518-.4a25.732 25.732 0 0 1 1.7 2.044Zm-24.562 10.779a14.232 14.232 0 0 0 4.646-7.372l-3.19-1.146a11.86 11.86 0 0 1-4.367 6.288Zm10.748-2.912c-1.3 0-1.518-.124-1.518-.96v-4.027h-3.624v4.056c0 3.035.929 4 4.677 4h4.708c2.881 0 3.872-.96 4.243-4.739a10.56 10.56 0 0 1-3.159-1.27c-.124 2.54-.341 2.943-1.456 2.943Zm7.31-4.213a27.086 27.086 0 0 1 4.925 6.969l3.345-1.7a27.344 27.344 0 0 0-5.2-6.814Zm18 .5v-15.212h16.414v15.208Zm-3.876-18.96v25.275h3.872v-2.509h16.418v2.447h4.058v-25.213Z" fill="#70286c"/><g data-name="グループ 3162"><g data-name="グループ 340"><g data-name="グループ 339" fill="#70286c"><path data-name="パス 603" d="M-9900.654 5838.965a1.3 1.3 0 0 1-.57.527 3.709 3.709 0 0 1-1.474.231h-2.611v-3.057h2.911a2.878 2.878 0 0 1 1.26.271 1.28 1.28 0 0 1 .7 1.235 1.522 1.522 0 0 1-.213.793m.641 3.4a4.627 4.627 0 0 0-1.753-1.686v-.019c1.732-.218 2.588-1.049 2.588-2.485a2.511 2.511 0 0 0-.377-1.359 1.935 1.935 0 0 0-1.028-.9 5.452 5.452 0 0 0-1.875-.255h-4.072v9.2h1.222v-4.054h1.4a2.206 2.206 0 0 1 1.263.3 6.953 6.953 0 0 1 1.485 1.863l1.2 1.882h1.539Z"/><path data-name="パス 604" d="M-9911.074 5840.375a8.017 8.017 0 1 0 8.017-8.017 8.027 8.027 0 0 0-8.017 8.017m.858 0a7.158 7.158 0 1 1 7.159 7.144 7.168 7.168 0 0 1-7.159-7.144"/><path data-name="パス 605" d="M-10273.173 5802.766h-38.392v-10.131h-13.44v10.135h-12.759v10.239h12.759v22.885c0 2.631 7.315 12.175 20.95 12.175h33.015l.789-11.291h-32.448c-5.168 0-8.866-2.93-8.866-7.717v-16.052h27.384v4.47c0 2.335-2.15 3.8-4.682 3.8h-10.619v9.058h11.777c7.515 0 14.622-3.984 14.622-14.112Z"/><path data-name="パス 606" d="M-10232.354 5848.065h-33.522v-55.52h12.674v44.228h20.748c4 0 11 .283 11-7.411v-16.293h11.407v21.072c0 5.453-3.032 13.924-16.184 13.924Z"/><path data-name="パス 607" d="M-10138.64 5822.93v-10.121h-34.391v-10.045h34v-10.22h-63.32v10.22h15.883v10.045h-15.888v10.12h15.883v10.615c0 4.585 2.632 14.916 14.316 14.916h33.326v-10.441h-28.54c-3.705 0-5.664-1.742-5.664-7.292v-7.8Z"/><path data-name="パス 608" d="M-10063.043 5817.765v-10.128h-54.161v-15.093h-12.568v40.328c0 10.422 7.015 15.785 15.295 15.588h50.846v-10.331h-43.834c-6.83 0-9.739-3.117-9.739-7.7v-12.663Z"/><path data-name="パス 609" d="M-10060.796 5795.951a9.848 9.848 0 1 1-9.841-9.938 9.892 9.892 0 0 1 9.841 9.938m-9.841-3.9a3.943 3.943 0 1 0 3.892 3.942 3.922 3.922 0 0 0-3.892-3.942"/><path data-name="パス 610" d="M-10055.146 5792.635h66.034v14.717a18.141 18.141 0 0 1-5.063 12.861c-2.921 3.208-8.86 5.062-12.459 5.062h-17.734s-.292 4.578-.292 8.275c0 4.686-5.059 14.723-15.87 14.723h-14.522v-10.826h10.133c6.711 0 10.127-2.917 10.127-8.565v-13.765h26.013c3.315 0 7.888-2.5 7.4-11.879h-53.871Z"/><path data-name="長方形 138" d="M-9983.545 5792.823h41.409v11.212h-41.409z"/><path data-name="パス 611" d="M-9916.517 5808.021h-13.064v23.78c0 3.614-1.256 6.432-5.353 6.432h-48.51v10.326h47.927c4.183 0 19-.686 19-17.729Z"/></g></g></g></g></g></svg>