<?xml version="1.0" encoding="UTF-8"?><svg id="_イヤー_2" xmlns="http://www.w3.org/2000/svg" xmlns:xlink="http://www.w3.org/1999/xlink" viewBox="0 0 185.45 56.19"><defs><style>.cls-1{fill:url(#linear-gradient);}.cls-2{fill:#f09dc1;}.cls-3{fill:#a51c4b;}.cls-4{fill:url(#_規グラデーションスウォッ_4-10);}.cls-5{fill:url(#linear-gradient-2);}.cls-6{fill:url(#_規グラデーションスウォッ_4-9);}.cls-7{fill:url(#_規グラデーションスウォッ_4-3);}.cls-8{fill:url(#_規グラデーションスウォッ_4-4);}.cls-9{fill:url(#_規グラデーションスウォッ_4-6);}.cls-10{fill:url(#_規グラデーションスウォッ_4-7);}.cls-11{fill:url(#_規グラデーションスウォッ_4-2);}.cls-12{fill:url(#_規グラデーションスウォッ_4-5);}.cls-13{fill:url(#_規グラデーションスウォッ_4-8);}.cls-14{fill:url(#_規グラデーションスウォッ_4);}.cls-15{fill:url(#_規グラデーションスウォッ_3);}.cls-16{fill:url(#_規グラデーションスウォッ_1);}</style><linearGradient id="_規グラデーションスウォッ_3" x1="-530.85" y1="-113.74" x2="-539.81" y2="-113.74" gradientTransform="translate(566.98 158.66) scale(1 .95)" gradientUnits="userSpaceOnUse"><stop offset=".2" stop-color="#e4005a"/><stop offset=".51" stop-color="#f09ba5"/><stop offset=".8" stop-color="#e4005a"/></linearGradient><linearGradient id="linear-gradient" x1="-535.28" y1="57.68" x2="-566.89" y2="57.68" gradientTransform="translate(566.93 -28.35)" gradientUnits="userSpaceOnUse"><stop offset=".07" stop-color="#f09ba5"/><stop offset=".35" stop-color="#e4005a"/></linearGradient><linearGradient id="linear-gradient-2" x1="720.82" y1="57.68" x2="689.22" y2="57.68" gradientTransform="translate(752.46 -28.35) rotate(-180) scale(1 -1)" xlink:href="#linear-gradient"/><linearGradient id="_規グラデーションスウォッ_1" x1="-547.95" y1="50.86" x2="-522.65" y2="50.86" gradientTransform="translate(566.93 -28.35)" gradientUnits="userSpaceOnUse"><stop offset=".3" stop-color="#e4005a"/><stop offset=".51" stop-color="#f09ba5"/><stop offset=".71" stop-color="#e4005a"/></linearGradient><linearGradient id="_規グラデーションスウォッ_4" x1="-565.81" y1="66.89" x2="-535.17" y2="66.89" gradientTransform="translate(566.93 -28.35)" gradientUnits="userSpaceOnUse"><stop offset=".21" stop-color="#f09ba5"/><stop offset=".46" stop-color="#e4005a"/><stop offset=".66" stop-color="#e4005a"/><stop offset=".9" stop-color="#f09ba5"/></linearGradient><linearGradient id="_規グラデーションスウォッ_4-2" x1="-565.81" y1="70.98" x2="-535.17" y2="70.98" xlink:href="#_規グラデーションスウォッ_4"/><linearGradient id="_規グラデーションスウォッ_4-3" x1="-565.81" y1="72.98" x2="-535.17" y2="72.98" xlink:href="#_規グラデーションスウォッ_4"/><linearGradient id="_規グラデーションスウォッ_4-4" x1="-565.81" y1="74.9" x2="-535.17" y2="74.9" xlink:href="#_規グラデーションスウォッ_4"/><linearGradient id="_規グラデーションスウォッ_4-5" x1="-565.81" y1="75.68" x2="-535.17" y2="75.68" xlink:href="#_規グラデーションスウォッ_4"/><linearGradient id="_規グラデーションスウォッ_4-6" x1="-535.29" x2="-504.76" xlink:href="#_規グラデーションスウォッ_4"/><linearGradient id="_規グラデーションスウォッ_4-7" x1="-535.29" y1="70.98" x2="-508.81" y2="70.98" xlink:href="#_規グラデーションスウォッ_4"/><linearGradient id="_規グラデーションスウォッ_4-8" x1="-535.29" y1="72.98" x2="-513.02" y2="72.98" xlink:href="#_規グラデーションスウォッ_4"/><linearGradient id="_規グラデーションスウォッ_4-9" x1="-535.29" y1="74.9" x2="-518.38" y2="74.9" xlink:href="#_規グラデーションスウォッ_4"/><linearGradient id="_規グラデーションスウォッ_4-10" x1="-535.29" y1="75.68" x2="-525.25" y2="75.68" xlink:href="#_規グラデーションスウォッ_4"/></defs><g id="main"><g><path class="cls-15" d="M31.64,45.03c-1.36,0-4.45,2.32-4.45,6.03s2.33,5.13,4.45,5.13,4.45-1.39,4.45-5.13-3.09-6.03-4.45-6.03Z"/><path class="cls-1" d="M0,22.85c0,5.83,4.76,11.52,14.55,11.52,8.32,0,15.74,2.91,17.09,10.65,0-15.36-11.64-31.37-21.23-31.37-2.33,0-5.66,.39-6.63,4.02-3.03,.55-3.78,2.42-3.78,5.18Z"/><path class="cls-5" d="M63.29,22.85c0,5.83-4.76,11.52-14.55,11.52-8.32,0-15.74,2.91-17.09,10.65,0-15.36,11.64-31.37,21.23-31.37,2.33,0,5.66,.39,6.63,4.02,3.03,.55,3.78,2.42,3.78,5.18Z"/><path class="cls-16" d="M31.64,45.02c0-21.84-12.66-24.14-12.66-34.17,0-6.94,6.52-13.16,12.65-10.01,6.3-2.99,12.65,3.07,12.65,10.01,0,10.03-12.64,12.33-12.64,34.17"/><g><path class="cls-14" d="M11.85,39.01c11.46-.32,15.82,.18,19.8,6.01-1.76-3.21-3.41-8.08-18.63-7.96-5.13,.04-9.31-1.93-11.84-4.98,.5,1.65,1.55,4.57,3.33,5.5,2.38,1.09,5.45,1.49,7.34,1.44Z"/><path class="cls-11" d="M12.27,42.89c10.84-1.15,15.13-1.25,19.37,2.13-3.2-3.3-7.63-5.18-19.1-4.12-2.83,.26-5.25,0-7.26-.65,.67,.89,1.89,2.36,3.5,2.63,1.09,.12,1.72,.18,3.49,0Z"/><path class="cls-7" d="M31.64,45.02c-4.45-2.54-10.32-2.16-16.83-.93-1.88,.36-3.66,.5-5.31,.45,.85,.66,2.24,1.83,4.03,1.56,.88-.12,1.06-.11,2.37-.45,7.56-1.99,11.66-2.29,15.74-.63Z"/><path class="cls-8" d="M31.64,45.02c-2.83-.73-7.78-.52-10.96,.91-1.51,.68-3.56,1.37-5.81,1.71,.95,.39,2.53,1.11,3.96,.75,1.06-.24,1.42-.3,2.68-.99,4.39-2.38,7.12-2.74,10.13-2.39Z"/><path class="cls-12" d="M31.64,45.02c-6-.06-8.2,3.67-9.91,4.44,1.18,.16,3.08,.49,3.87-.45,1.24-1.94,2.7-3.76,6.04-3.98Z"/></g><g><path class="cls-9" d="M51.44,39.01c-11.46-.32-15.82,.18-19.8,6.01,1.76-3.21,3.41-8.08,18.63-7.96,5.13,.04,9.31-1.93,11.84-4.98-.5,1.65-1.55,4.57-3.33,5.5-2.38,1.09-5.45,1.49-7.34,1.44Z"/><path class="cls-10" d="M51.02,42.89c-10.84-1.15-15.13-1.25-19.37,2.13,3.2-3.3,7.63-5.18,19.1-4.12,2.83,.26,5.25,0,7.26-.65-.67,.89-1.89,2.36-3.5,2.63-1.09,.12-1.72,.18-3.49,0Z"/><path class="cls-13" d="M31.64,45.02c4.45-2.54,10.32-2.16,16.83-.93,1.88,.36,3.66,.5,5.31,.45-.85,.66-2.24,1.83-4.03,1.56-.88-.12-1.06-.11-2.37-.45-7.56-1.99-11.66-2.29-15.74-.63Z"/><path class="cls-6" d="M31.64,45.02c2.83-.73,7.78-.52,10.96,.91,1.51,.68,3.56,1.37,5.81,1.71-.95,.39-2.53,1.11-3.96,.75-1.06-.24-1.42-.3-2.69-.99-4.39-2.38-7.12-2.74-10.13-2.39Z"/><path class="cls-4" d="M31.64,45.02c6-.06,8.2,3.67,9.91,4.44-1.18,.16-3.08,.49-3.87-.45-1.24-1.94-2.7-3.76-6.04-3.98Z"/></g><path class="cls-3" d="M77.56,52.96c-3.01,0-5.45-2.44-5.45-5.45s2.44-5.45,5.45-5.45h102.44c3.01,0,5.45,2.44,5.45,5.45s-2.44,5.45-5.45,5.45H77.56Z"/><path class="cls-2" d="M106.97,50.58h-1.02v-2.66c0-.4-.04-.69-.12-.87-.12-.26-.34-.39-.64-.39-.4,0-.66,.19-.79,.57-.06,.17-.1,.46-.1,.85v2.51h-1.03v-6.83h1.03v2.78c.37-.47,.81-.71,1.31-.71,.63,0,1.04,.29,1.24,.87,.08,.24,.11,.65,.11,1.24v2.64Z"/><path class="cls-2" d="M110.44,49.18c-.04,.18-.13,.33-.27,.46-.15,.15-.32,.22-.51,.22-.15,0-.27-.06-.37-.2-.1-.13-.15-.29-.15-.49,0-.47,.33-.8,.98-1,.19-.06,.33-.1,.41-.12v.44c0,.21-.02,.43-.09,.67Zm1.1-.08v-1.24c0-.4-.02-.7-.06-.9-.04-.17-.1-.34-.2-.5-.25-.42-.69-.63-1.3-.63-.57,0-1.08,.21-1.54,.63l.33,.58c.34-.33,.66-.49,.98-.49,.42,0,.68,.28,.78,.83-.25,.07-.47,.13-.64,.18-.42,.12-.76,.27-1.03,.46-.47,.34-.7,.78-.7,1.34,0,.38,.11,.7,.32,.96,.22,.26,.48,.38,.79,.38,.48,0,.9-.24,1.24-.73,0,.22,.04,.43,.09,.62h1.09c-.1-.33-.16-.83-.16-1.48Z"/><path class="cls-2" d="M116.68,50.58h-1.02v-2.66c0-.4-.04-.69-.12-.87-.12-.26-.34-.39-.64-.39-.42,0-.7,.21-.82,.64-.04,.16-.07,.42-.07,.77v2.51h-1.03v-4.65h1.03v.62c.37-.49,.81-.73,1.32-.73,.62,0,1.03,.29,1.23,.87,.08,.24,.11,.65,.11,1.24v2.64Z"/><path class="cls-2" d="M120.15,49.18c-.04,.18-.13,.33-.27,.46-.15,.15-.32,.22-.51,.22-.15,0-.27-.06-.37-.2-.1-.13-.15-.29-.15-.49,0-.47,.33-.8,.98-1,.19-.06,.33-.1,.41-.12v.44c0,.21-.03,.43-.09,.67Zm1.1-.08v-1.24c0-.4-.02-.7-.06-.9-.04-.17-.11-.34-.2-.5-.26-.42-.69-.63-1.3-.63-.57,0-1.08,.21-1.53,.63l.33,.58c.33-.33,.66-.49,.98-.49,.42,0,.68,.28,.78,.83-.25,.07-.47,.13-.64,.18-.42,.12-.76,.27-1.03,.46-.47,.34-.7,.78-.7,1.34,0,.38,.11,.7,.33,.96,.22,.26,.48,.38,.79,.38,.48,0,.9-.24,1.24-.73,0,.22,.04,.43,.09,.62h1.09c-.1-.33-.16-.83-.16-1.48Z"/><path class="cls-2" d="M124.59,48.72h-2.03v-.82h2.03v.82Z"/><path class="cls-2" d="M128.28,50.4c-.35,.2-.7,.3-1.04,.3-.46,0-.79-.18-.99-.54-.13-.22-.19-.62-.19-1.2v-2.39h-.55v-.63h.55v-1.12l1.02-.27v1.39h1.01v.63h-1.01v2.14c0,.46,.04,.79,.12,.97,.08,.18,.22,.28,.42,.28,.17,0,.33-.05,.49-.15l.18,.59Z"/><path class="cls-2" d="M131.93,49.3c0,.41-.14,.74-.41,1-.27,.26-.62,.39-1.05,.39-.47,0-.9-.18-1.29-.54l.34-.65c.3,.31,.58,.46,.83,.46,.17,0,.3-.05,.4-.15,.1-.1,.15-.24,.15-.41,0-.15-.04-.28-.12-.4-.08-.12-.26-.3-.54-.54-.28-.24-.47-.43-.57-.56-.18-.24-.27-.51-.27-.8,0-.38,.12-.68,.37-.92,.25-.24,.57-.36,.96-.36s.77,.12,1.1,.38l-.3,.58c-.21-.17-.43-.25-.65-.25-.14,0-.26,.04-.35,.13-.09,.09-.13,.19-.13,.32,0,.19,.18,.44,.53,.75,.4,.35,.67,.63,.8,.83,.13,.2,.2,.44,.2,.73Z"/><path class="cls-2" d="M136.94,50.58h-1.02v-.62c-.37,.49-.81,.73-1.32,.73-.63,0-1.04-.29-1.23-.87-.08-.23-.11-.65-.11-1.25v-2.64h1.02v2.66c0,.4,.04,.69,.12,.87,.12,.26,.34,.39,.64,.39,.39,0,.65-.19,.79-.58,.06-.18,.09-.46,.09-.85v-2.5h1.02v4.65Z"/><path class="cls-2" d="M141.95,50.28l-.96,.4-1.54-2.57v2.47h-1.03v-6.83h1.03v4.01h.1l1.38-1.9,.77,.4-1.32,1.69,1.56,2.32Z"/><path class="cls-2" d="M145.2,49.18c-.04,.18-.13,.33-.27,.46-.15,.15-.32,.22-.51,.22-.15,0-.27-.06-.37-.2-.1-.13-.15-.29-.15-.49,0-.47,.33-.8,.98-1,.19-.06,.33-.1,.41-.12v.44c0,.21-.02,.43-.09,.67Zm1.1-.08v-1.24c0-.4-.02-.7-.05-.9-.04-.17-.11-.34-.21-.5-.26-.42-.69-.63-1.3-.63-.57,0-1.08,.21-1.53,.63l.33,.58c.33-.33,.66-.49,.98-.49,.42,0,.68,.28,.78,.83-.25,.07-.47,.13-.64,.18-.42,.12-.76,.27-1.03,.46-.47,.34-.7,.78-.7,1.34,0,.38,.11,.7,.32,.96,.22,.26,.48,.38,.79,.38,.48,0,.9-.24,1.24-.73,0,.22,.04,.43,.09,.62h1.09c-.1-.33-.16-.83-.16-1.48Z"/><path class="cls-2" d="M150.18,49.3c0,.41-.14,.74-.41,1-.27,.26-.62,.39-1.05,.39-.47,0-.9-.18-1.29-.54l.34-.65c.3,.31,.58,.46,.83,.46,.17,0,.3-.05,.4-.15,.1-.1,.15-.24,.15-.41,0-.15-.04-.28-.12-.4-.08-.12-.26-.3-.54-.54-.28-.24-.47-.43-.57-.56-.18-.24-.27-.51-.27-.8,0-.38,.12-.68,.37-.92,.25-.24,.57-.36,.96-.36s.77,.12,1.1,.38l-.3,.58c-.21-.17-.43-.25-.65-.25-.14,0-.26,.04-.35,.13-.09,.09-.13,.19-.13,.32,0,.19,.17,.44,.53,.75,.4,.35,.67,.63,.8,.83,.13,.2,.19,.44,.19,.73Z"/><path class="cls-2" d="M153.53,49.18c-.04,.18-.13,.33-.27,.46-.15,.15-.32,.22-.51,.22-.15,0-.27-.06-.37-.2-.1-.13-.15-.29-.15-.49,0-.47,.33-.8,.98-1,.19-.06,.33-.1,.41-.12v.44c0,.21-.02,.43-.09,.67Zm1.1-.08v-1.24c0-.4-.02-.7-.06-.9-.04-.17-.11-.34-.2-.5-.25-.42-.69-.63-1.3-.63-.57,0-1.08,.21-1.53,.63l.33,.58c.33-.33,.66-.49,.98-.49,.42,0,.68,.28,.78,.83-.25,.07-.47,.13-.64,.18-.41,.12-.76,.27-1.03,.46-.47,.34-.7,.78-.7,1.34,0,.38,.11,.7,.32,.96,.22,.26,.48,.38,.79,.38,.48,0,.9-.24,1.24-.73,0,.22,.04,.43,.09,.62h1.09c-.1-.33-.16-.83-.16-1.48Z"/><g><path class="cls-3" d="M126.38,16.24c0-4.28-3.23-7.74-7.22-7.74h-13.26v4.01h12.16c2.06,0,3.74,1.68,3.74,3.74,0,0,.62,13.66-15.36,20.65-.22,.1-.38,.32-.38,.58,0,.35,.28,.63,.63,.63,0,0,9.67-1.97,15.93-10.38,0,0,3.77-5.71,3.77-11.48Z"/><path class="cls-3" d="M86.14,15.49h-3.39s-.12,3.04-.52,4.75c-.4,1.71-2.37,6.83-4.78,10.16-.06,.09-.09,.2-.09,.31,0,.31,.25,.56,.56,.56,.1,0,.19-.02,.27-.07,0,0,2.39-1.61,4.71-4.59v12.67h3.65V19.63c.26-.88,.46-1.8,.58-2.77,.01-.11,.05-.21,.05-.32,0-.58-.47-1.05-1.04-1.05Zm-3.49-1.21h3.65v-3.38h5.8v3.33h3.65v-3.33h2.37c1.01,0,1.83-.82,1.83-1.83s-.82-1.83-1.83-1.83h-2.37v-2.42c0-1.01-.82-1.83-1.83-1.83s-1.82,.82-1.82,1.83v2.42h-5.8v-2.37c0-1.01-.82-1.83-1.83-1.83s-1.83,.82-1.83,1.83v2.37h-4.08v3.65h4.08v3.38Zm10.81,20.02v-9.04c1.76-.55,3.74-1.35,5.6-2.52,.42-.26,.63-.79,.63-1.32,0-.95-.77-1.72-1.71-1.72-.36,0-.69,.11-.96,.29,0,0-1.72,1.47-3.56,2.69v-5.46c0-1.01-.82-1.83-1.83-1.83s-1.83,.82-1.83,1.83v7.55c-1.12,.58-1.98,.98-1.98,.98-.11,.06-.18,.17-.18,.3,0,.19,.16,.34,.34,.34,0,0,.7-.05,1.82-.24v4.32l.06,5.13c0,2.03,1.69,3.68,3.72,3.68h6.31v-3.46h-4.93c-.84,0-1.51-.68-1.51-1.51Z"/><path class="cls-3" d="M154.51,20.71c.9-10.16-7.78-13.3-7.78-13.3-.07-.03-.15-.04-.23-.04-.34,0-.63,.28-.63,.63,0,.17,.07,.33,.19,.45,0,0,5.01,4.25,5.18,9.13,.03,.91-.69,1.66-1.58,1.74v-3.08c0-2.89-2.34-5.22-5.22-5.22h-2.74V6.11c0-1.12-.91-2.03-2.03-2.03s-2.03,.91-2.03,2.03v4.9h-5.06v4.06h5.06v2.91s.38,11.55-7.13,18.62c-.12,.11-.18,.27-.18,.44,0,.35,.28,.63,.63,.63,.14,0,.26-.05,.37-.12,10.02-6.61,10.38-18.68,10.38-18.68v-3.78h1.76c1.2,0,2.18,.98,2.18,2.18v13.81c-.01,1.91-1.56,3.45-3.46,3.45h-2.06v3.71l2.51-.02c3.9,0,7.06-3.16,7.06-7.06v-10.47h4.83Z"/><path class="cls-3" d="M180.55,12.44c0-1.12-.91-2.03-2.03-2.03h-6.68c-.57-2.39-.66-4.18-.66-4.18,0-1.12-.91-2.03-2.03-2.03s-2.03,.91-2.03,2.03c0,0,.08,1.76,.57,4.18h-8.22v4.06h9.33c.91,2.55,2.31,5.16,4.45,7h-3.76s-2.78,.06-4.08,.57c-3.4,1.33-6.11,4.15-6.11,7.92,0,4.2,3.2,7.66,7.32,8.16,0,0,2.1,.22,3.53,.26,1.43,.05,5.57,0,5.57,0v-4.13h-7.04s-2.4-.33-4.29-1.3c-1.23-.63-2.07-1.91-2.07-3.39,0-1.73,1.35-2.76,2.74-3.65,1.08-.7,5.18-.83,5.18-.83h9.35v-3.63c-3.19-1.43-5.18-4.21-6.42-7h5.33c1.12,0,2.03-.91,2.03-2.03Z"/></g><path class="cls-3" d="M182.35,35.38c-.05,.08-.11,.14-.19,.17-.11,.05-.27,.07-.47,.07h-.84v-.98h.93c.16,0,.3,.03,.41,.08,.15,.08,.22,.21,.22,.4,0,.09-.02,.18-.07,.26Zm.2,1.09c-.17-.26-.36-.44-.56-.53h0c.55-.08,.83-.35,.83-.81,0-.16-.04-.31-.12-.44-.08-.14-.19-.23-.33-.29-.14-.06-.34-.08-.6-.08h-1.31v2.96h.39v-1.31h.45c.18,0,.31,.03,.4,.1,.12,.09,.28,.28,.48,.6l.39,.61h.49l-.52-.81"/><path class="cls-3" d="M179,35.84c0,1.42,1.15,2.57,2.57,2.57s2.58-1.15,2.58-2.57-1.16-2.57-2.58-2.57-2.57,1.15-2.57,2.57Zm.27,0c0-1.27,1.03-2.3,2.3-2.3s2.3,1.03,2.3,2.3-1.03,2.3-2.3,2.3-2.3-1.03-2.3-2.3"/></g></g></svg>