<?xml version="1.0" encoding="utf-8"?>
<!-- Generator: Adobe Illustrator 26.3.1, SVG Export Plug-In . SVG Version: 6.00 Build 0)  -->
<svg version="1.1" id="_イヤー_2" xmlns="http://www.w3.org/2000/svg" xmlns:xlink="http://www.w3.org/1999/xlink" x="0px"
	 y="0px" viewBox="0 0 226.4 22.1" style="enable-background:new 0 0 226.4 22.1;" xml:space="preserve">
<style type="text/css">
	.st0{fill-rule:evenodd;clip-rule:evenodd;fill:#314A31;}
	.st1{fill:#314A31;}
	.st2{fill:#00441B;}
</style>
<g id="main">
	<g>
		<g>
			<g>
				<path class="st0" d="M201.7,12.5v-0.1c-1.5,0.8-1.7,4.8-3.4,6c-0.1,0.1,0,0-0.2,0.1c-0.5-0.6-1-1.1-1.4-1.8
					c-0.3-0.5-0.3-0.9-0.7-1.3c0.1-1.2,0.9-1.7,0.9-3.3c-0.2-0.2-0.4-0.5-0.6-0.7h-0.5v0.4c-0.3,0.3-0.5,0.8-0.9,1.1V13
					c-0.6-0.6-0.6-1.8-1.1-2.6c0.1-1,0.8-0.6,1.2-1.2c0.3-0.4,0-0.7,0.5-0.9c0-0.3-0.1-0.6-0.1-0.9c-0.9,0-1.7,0-2.5,0.1h-0.5
					c0.2-0.8,2.3-2.8,3.1-3.2c0.2-0.6,0.4-1.2,0.4-1.9c-0.4,0-0.8,0-1.2,0.1c-0.2,0-0.4,0-0.5-0.1c-0.2-0.2,0-0.7,0-0.7
					c-0.3-0.4-0.9-0.8-1.2-1.3c-0.2,0-0.4-0.1-0.6-0.1c-0.1,0.4,0,2.2-0.4,2.8c-0.2,0.3-2.3,0.8-2.8,1.1c-0.8-0.2-0.9-0.7-1.3-1
					c-0.3-0.1-0.6-0.2-1-0.3h-0.5c0.1,0.7,0.4,1.4,0.8,1.9v0.2c-0.3,0.1-0.7,0.2-1,0h-0.1c0,0.3,0,0.6,0.1,0.9
					c0.4,0.6,0.9,1.1,1.4,1.4c0.1,0.1,1-0.2,1.3-0.1c0.7,0.3,0.6,0.9,1.8,0.9v0.2c-1.1,0.5-2.6,0.8-3.6,1.3c0.1,0.7,0.1,1.4,0.1,2.1
					c-0.6,1.9-2.1,3.7-3.1,5.3c-0.6,0.9-0.8,2-1.4,2.7v0.2c0.3-0.2,0.6-0.4,0.9-0.6v-0.2c0.6-0.4,1.8-0.5,2.5-1
					c0.9-0.6,1.2-1.8,1.9-2.6v-0.1h0.1c-0.2,1.8,0,2.3,0.9,3.4c0.9,0,3.2-0.8,3.6-1.3c0.1-0.2,0-0.2,0-0.6c0.4,0,0.7,0,1.1-0.1
					c0.6,0.3,0.7,1.1,1.1,1.6c1.1,1.6,2.4,2.4,5.1,2.2c0.9-0.8,1.6-1.9,1.8-3C202,16,200.7,14,201.7,12.5 M191.5,6.5
					c0,0.2,0,0.4,0.1,0.6v0.2h-0.5c-0.1-0.4-0.2-0.4-0.2-0.8H191.5 M191.4,10.9c0.1,0.3,0.2,0.6,0.4,0.9v0.4
					c-0.3-0.1-0.4-0.3-0.6-0.4c-1-0.3-1.3,0.5-2.1,0.6C189.1,11.1,190.5,11.2,191.4,10.9 M189.5,14.3c0.2,0,0.4,0.1,0.6,0.1v0.1
					c-0.1,0.1-0.2,0.1-0.4,0.2h-0.2L189.5,14.3 M189.8,17.4h-0.2c0-0.2,0.1-0.5,0.1-0.7C190,17,189.8,16.9,189.8,17.4 M190.1,16
					c-0.2-0.1-0.2,0-0.4-0.1h-0.1c0.1-0.3,0.1-0.2,0.2-0.5c0.2,0,0.5-0.1,0.7-0.1C190.5,15.8,190.3,15.7,190.1,16 M192.2,16.8
					c-0.7-0.1-1.2,0-1.6-0.4h-0.1c0.4-0.5,0.3,0,0.8-0.2c0.4-0.2,0.6-0.7,0.9-1.1c0-1-0.6-1.2-1.6-1.2c0.2-0.4,0.6-0.8,1.1-0.9v-0.5
					c0.6,0.8,1.1,1.7,1.3,2.7C192.9,16,192.5,16.2,192.2,16.8L192.2,16.8L192.2,16.8z"/>
				<path class="st1" d="M199.1,20.8c-1.8,0.1-3.6-0.8-4.5-2.3c-0.1-0.2-0.2-0.4-0.4-0.7c-0.1-0.3-0.3-0.6-0.6-0.9
					c-0.3,0.1-0.6,0.1-0.8,0.1l0,0c0.1,0.2,0,0.3-0.1,0.5c-0.5,0.6-2.9,1.4-3.8,1.4h-0.1l-0.1-0.1c-0.8-0.8-1.1-1.8-0.9-2.9
					c-0.2,0.2-0.3,0.5-0.5,0.8c-0.3,0.6-0.7,1.1-1.2,1.5c-0.4,0.3-0.9,0.5-1.4,0.6c-0.4,0.1-0.7,0.2-1,0.4v0.2l-1.3,0.9v-0.7
					l0.1-0.1c0.4-0.4,0.6-0.9,0.8-1.5c0.2-0.4,0.4-0.8,0.6-1.2c0.3-0.4,0.6-0.9,0.9-1.3c0.9-1.2,1.7-2.5,2.2-3.9c0-0.3,0-0.7-0.1-1
					c-0.1-0.4-0.1-0.7-0.1-1.1V9.4l0.1-0.1c0.6-0.2,1.1-0.4,1.7-0.6c0.6-0.2,1.1-0.3,1.6-0.6c-0.4-0.1-0.7-0.2-0.9-0.5
					c-0.1-0.2-0.3-0.3-0.5-0.4c-0.3,0-0.6,0-0.9,0.1c-0.3,0.1-0.4,0.1-0.5,0c-0.6-0.4-1.1-0.9-1.5-1.5c-0.1-0.3-0.2-0.7-0.1-1V4.7
					h0.4l0.1,0c0.2,0.1,0.4,0.1,0.6,0c-0.4-0.5-0.7-1.2-0.8-1.9L186,2.5h0.8c0.3,0.1,0.6,0.2,1,0.4l0.1,0c0.2,0.1,0.3,0.3,0.4,0.5
					c0.2,0.3,0.4,0.5,0.7,0.5c0.4-0.2,0.8-0.3,1.2-0.4c0.5-0.1,0.9-0.3,1.4-0.5c0.2-0.6,0.3-1.2,0.2-1.8c0-0.3,0-0.6,0.1-0.9
					l0.1-0.2l0.2,0.1c0.1,0,0.2,0.1,0.3,0.1c0.1,0,0.1,0,0.3,0h0.1l0.1,0.1c0.2,0.3,0.4,0.5,0.6,0.7c0.2,0.2,0.4,0.4,0.6,0.6
					c0.1,0.1,0.1,0.2,0,0.3c0,0.1-0.1,0.3,0,0.4c0,0,0.1,0,0.1,0c0.1,0,0.1,0,0.2,0c0.4-0.1,0.8-0.2,1.1-0.1h0.3v0.2
					c0,0.5-0.1,1-0.2,1.5c-0.1,0.1-0.1,0.3-0.1,0.4l0,0.1l-0.1,0c-1.1,0.7-2.1,1.7-2.9,2.7h0.2c0,0,0.3,0,0.5,0
					c0.6-0.1,1.3-0.1,1.9-0.1l0.2,0l0,0.2c0,0.3,0.1,0.6,0.1,0.9l0,0.1l-0.1,0.1c-0.1,0.1-0.2,0.2-0.2,0.3c0,0.2-0.1,0.4-0.2,0.6
					c-0.2,0.2-0.4,0.4-0.7,0.4c-0.3,0.1-0.4,0.1-0.5,0.6c0.2,0.4,0.4,0.8,0.4,1.2c0.1,0.4,0.2,0.7,0.4,1.1c0.1-0.1,0.2-0.3,0.3-0.4
					c0.1-0.2,0.2-0.3,0.3-0.5v-0.5h0.8l0.7,0.8v0.1c0,0.7-0.1,1.4-0.5,2.1c-0.2,0.4-0.3,0.7-0.4,1.1c0.2,0.2,0.3,0.5,0.4,0.7
					c0.1,0.2,0.1,0.3,0.2,0.5c0.3,0.4,0.6,0.8,1,1.2c0.1,0.1,0.2,0.3,0.4,0.4l0,0c0.8-0.5,1.3-1.8,1.7-3.1c0.5-1.3,0.9-2.5,1.7-2.9
					l0.3-0.2v0.5l0,0.1c-0.5,0.8-0.3,1.7-0.1,2.7c0.6,2-0.1,4.1-1.7,5.4l-0.1,0.1h-0.1C199.6,20.8,199.3,20.8,199.1,20.8L199.1,20.8
					L199.1,20.8z M193.7,16.4l0.1,0.1c0.4,0.3,0.7,0.7,0.9,1.1c0.1,0.2,0.2,0.4,0.3,0.6c1,1.4,2.2,2.3,4.8,2.1
					c0.9-0.7,1.5-1.8,1.7-2.9c0.1-0.7,0-1.4-0.1-2.1c-0.2-0.7-0.2-1.5-0.2-2.2c-0.4,0.6-0.6,1.3-0.9,2c-0.5,1.3-1,2.7-1.9,3.3l0,0
					c0,0-0.1,0.1-0.1,0.1l-0.2,0.1l-0.1-0.1c-0.1-0.2-0.3-0.3-0.4-0.5c-0.4-0.4-0.7-0.8-1-1.3c-0.1-0.2-0.2-0.4-0.3-0.6
					c-0.1-0.2-0.2-0.5-0.4-0.7l-0.1-0.1v-0.1c0.1-0.5,0.2-0.9,0.4-1.4c0.3-0.6,0.4-1.2,0.4-1.8l-0.5-0.6h-0.2v0.2l-0.1,0.1
					c-0.1,0.1-0.2,0.3-0.3,0.4c-0.1,0.2-0.3,0.4-0.4,0.6v0.5l-0.4-0.4c-0.4-0.4-0.6-0.9-0.7-1.5c-0.1-0.4-0.2-0.8-0.4-1.1l-0.1-0.1
					v-0.1c0-0.5,0.3-0.9,0.8-1c0.2-0.1,0.4-0.1,0.5-0.3c0.1-0.1,0.1-0.2,0.1-0.4c0-0.2,0.1-0.4,0.3-0.6c0-0.2-0.1-0.4-0.1-0.6
					c-0.6,0-1.1,0-1.7,0.1c-0.2,0-0.5,0.1-0.7,0.1h-0.8l0.1-0.3c0.2-0.9,2.3-2.8,3.2-3.2c0-0.1,0.1-0.2,0.1-0.4
					c0.1-0.4,0.2-0.8,0.2-1.1c-0.3,0-0.6,0-0.9,0.1l-0.1,0l-0.1,0c-0.1,0-0.1,0-0.2,0c-0.2,0-0.3,0-0.4-0.2
					c-0.1-0.2-0.1-0.5-0.1-0.8c-0.1-0.2-0.3-0.3-0.5-0.5c-0.2-0.2-0.5-0.4-0.6-0.7l-0.1,0c0,0-0.1,0-0.1,0c0,0.2,0,0.4,0,0.6
					c0,0.7-0.1,1.4-0.3,2c-0.1,0.2-0.6,0.4-1.6,0.7c-0.4,0.1-0.8,0.2-1.2,0.4l-0.1,0.1l-0.1,0c-0.4-0.1-0.8-0.3-1-0.7
					c-0.1-0.1-0.2-0.3-0.4-0.4c-0.3-0.1-0.6-0.2-0.9-0.3h-0.2c0.1,0.6,0.3,1.1,0.7,1.5l0.1,0.1v0.5l-0.3,0.1c-0.2,0.1-0.5,0.1-0.8,0
					c0,0.2,0,0.4,0.1,0.5l0,0c0.3,0.5,0.8,0.9,1.3,1.3c0.1,0,0.2,0,0.3-0.1c0.4-0.1,0.7-0.1,1.1-0.1c0.3,0.1,0.5,0.3,0.7,0.5
					c0.3,0.3,0.6,0.5,1.1,0.4h0.2v0.6l-0.1,0.1c-0.6,0.3-1.3,0.5-2,0.7c-0.6,0.2-1.1,0.3-1.5,0.5c0,0.3,0,0.6,0.1,0.9
					c0.1,0.4,0.1,0.8,0,1.2c-0.6,1.4-1.3,2.8-2.3,4c-0.3,0.4-0.6,0.9-0.9,1.3c-0.2,0.4-0.4,0.7-0.6,1.1c-0.1,0.2-0.2,0.4-0.3,0.7
					c0.4-0.2,0.8-0.4,1.2-0.5c0.5-0.1,0.9-0.3,1.3-0.5c0.4-0.4,0.8-0.8,1.1-1.4c0.2-0.4,0.5-0.8,0.8-1.1v-0.2h0.6l0,0.2
					c-0.1,1.7-0.1,2.1,0.7,3.1c1-0.1,3-0.8,3.4-1.2c0.2-0.3,0.2-0.3,0-0.1c-0.3,0.3,0-0.1,0-0.1l0,0.1l-0.2,0c-0.2,0-0.4,0-0.6,0
					c-0.4,0-0.7-0.1-1-0.3h-0.4l0.2-0.3c0.2-0.3,0.4-0.4,0.6-0.3c0.1,0,0.2,0,0.3,0c0.2-0.1,0.4-0.3,0.5-0.6
					c0.1-0.1,0.2-0.3,0.2-0.4c0-0.2-0.1-0.4-0.2-0.6c-0.3-0.2-0.7-0.3-1.1-0.2h-0.3l0.1-0.3c0.2-0.5,0.6-0.8,1.1-1v-0.6
					c-0.1-0.1-0.2-0.1-0.3-0.2c-0.1-0.1-0.1-0.1-0.2-0.1c-0.4-0.1-0.8,0-1.1,0.2c-0.3,0.2-0.6,0.3-0.9,0.4l-0.2,0v-0.2
					c0-1.2,1-1.4,1.9-1.6c0.2,0,0.4-0.1,0.6-0.1l0.2-0.1l0.1,0.2c0,0.1,0.1,0.2,0.1,0.3c0,0.2,0.1,0.4,0.2,0.6l0.1,0.1v0.7l-0.2-0.1
					l0.1,0.1c0.7,0.8,1.2,1.8,1.4,2.9v0.1c-0.1,0.3-0.3,0.6-0.5,0.9c-0.1,0.1-0.2,0.2-0.3,0.4h0C192.9,16.6,193.3,16.6,193.7,16.4
					L193.7,16.4L193.7,16.4z M183.3,19.1L183.3,19.1L183.3,19.1C183.3,19.1,183.3,19.1,183.3,19.1z M191.2,16.5c0.1,0,0.3,0,0.4,0
					s0.3,0,0.4,0c0.1-0.2,0.2-0.4,0.4-0.6c0.2-0.2,0.3-0.4,0.4-0.7c-0.2-0.7-0.5-1.4-0.9-2.1v0l-0.1,0.1c-0.3,0.1-0.6,0.3-0.8,0.5
					c0.4,0,0.8,0.1,1.1,0.4c0.2,0.3,0.4,0.6,0.3,1v0.1l-0.1,0.1c-0.1,0.1-0.2,0.2-0.2,0.4c-0.1,0.3-0.4,0.6-0.7,0.7
					C191.4,16.5,191.3,16.5,191.2,16.5L191.2,16.5L191.2,16.5z M191.2,11.1c-0.1,0-0.3,0.1-0.4,0.1c-0.8,0.2-1.4,0.3-1.5,0.9
					c0.1-0.1,0.3-0.1,0.4-0.2c0.4-0.3,0.9-0.4,1.4-0.3c0.1,0,0.2,0.1,0.2,0.1c-0.1-0.2-0.1-0.3-0.2-0.5
					C191.3,11.2,191.2,11.1,191.2,11.1L191.2,11.1L191.2,11.1z M190,17.6h-0.7l0.1-0.3c0-0.2,0.1-0.4,0.1-0.6l0.1-0.5l0.3,0.3
					c0.2,0.2,0.3,0.3,0.2,0.6c0,0.1,0,0.2,0,0.3L190,17.6L190,17.6z M190.1,16.2l-0.2,0c-0.1,0-0.2,0-0.3-0.1h-0.4l0.1-0.3
					c0-0.1,0.1-0.2,0.1-0.3c0-0.1,0.1-0.1,0.1-0.2l0-0.1l0.2,0c0.2,0,0.4-0.1,0.7-0.1l0.3-0.1l-0.1,0.3c0,0.3-0.2,0.5-0.4,0.6
					C190.3,16,190.2,16.1,190.1,16.2L190.1,16.2L190.1,16.2z M189.9,15.7C189.9,15.7,189.9,15.7,189.9,15.7L189.9,15.7
					c0.1,0,0.2-0.1,0.2-0.1c0,0,0.1-0.1,0.1-0.1l-0.2,0C189.9,15.6,189.9,15.7,189.9,15.7L189.9,15.7L189.9,15.7z M189.8,14.9h-0.5
					V14l0.2,0c0.2,0,0.4,0.1,0.7,0.1l0.1,0.1v0.4l-0.1,0.1C190,14.7,189.9,14.8,189.8,14.9C189.8,14.8,189.8,14.9,189.8,14.9z
					 M191.8,7.4h-0.9l0-0.2c0-0.1-0.1-0.2-0.1-0.4c-0.1-0.2-0.1-0.3-0.1-0.5l0-0.2h1.1v0.2c0,0.3,0,0.3,0.1,0.4l0,0.1V7.4z M191.3,7
					L191.3,7c0-0.1,0-0.2,0-0.4h-0.1c0,0,0,0.1,0.1,0.1C191.2,6.8,191.3,6.9,191.3,7L191.3,7L191.3,7z"/>
			</g>
			<g>
				<path class="st0" d="M223.8,7.3c-0.2-0.6-1-0.9-1.3-1.3c-0.9,0.2-1.8,0.4-2.7,0.7c-0.2-0.3-0.4-0.5-0.6-0.8
					c-0.1-0.1,0,0-0.1-0.2c1.4-0.6,2.4-2,2.5-3.5c-0.5-0.4-0.8-1.1-1.4-1.3c-0.7-0.2-0.9,0.3-1.3,0.5c-1.2,0.5-2.1,0.6-3.4,1
					c-0.2,0.1-0.6,0.4-0.7,0.5c-0.8,0.3-1.1-0.7-2.2-0.5c-2.3,0.5-4.9,1.1-6.5,2.3c-0.6-0.6-1.3-0.9-1.9-1.4h-0.5
					c0.2,1,0.6,1.9,1,2.8c0.5,0.8,1.4,1.6,1.8,2.4c0.7,0.1,1.1,0,1.4-0.6h0.1c0,0.2,0,0.5-0.1,0.7h-0.5c0,0.2,0,0.4,0.1,0.6
					c0.1,0.2,0,0.1,0.1,0.2c0.1,0.1,0.1,0.1,0.4,0.1c0.1,1.4-0.5,1.9-1.8,1.9c0.1,0.2,0,0.2,0.1,0.4c0.1,1.1,1,1,1.7,1.5
					c0.1,0.1,0.2,0.3,0.2,0.4c0,1.2-1.5,1.9-2.7,1.9v0.6c0.4,0.4,0.9,0.7,1.3,1c3.1,0,4.7-3.3,6.6-4.6v-0.1
					c-1.2,0.1-2.1,0.7-3.3,0.8v-0.8c0.1-0.2,1.2-0.6,1.4-0.8c0.2-0.2,0.1-0.4,0.4-0.6c0-0.4-0.1-0.8-0.2-1.2c-0.5-0.1-1-0.1-1.6-0.1
					c0-1.7,0.4-0.9,1-1.6c0-0.2,0.1-0.5,0.1-0.7c0.3-0.3,1-0.2,1.4-0.3c0.5-0.3,0.9-0.6,1.3-0.9c0.4,0.9,1.2,1.5,2.2,1.5
					c-0.2,0.4-3.4,1.4-4.2,1.4c0,0.7,0.2,0.8,0.2,1.2c1.2,0.3,3,0.5,3.9-0.5h0.2v8.6c-1.4,0.2-3.7-0.7-4.9,0.1c-0.1,0.2,0.1,0,0,0.4
					c1.9,0.8,3.3,2.2,5.4,2.7c0.8-0.6,1.7-0.6,2.1-1.6c0.2-0.8,0.3-1.6,0.1-2.5c-0.3-1.8-0.3-4.2-0.4-6.1c2.2-0.1,3.4-1.5,4.4-2.8
					C223.3,8.4,224,8,223.8,7.3 M208.1,6.1c-0.1,0.4-0.2,0.3-0.4,0.6c-0.6-0.1-0.5-0.2-0.9-0.5c0.2-0.3,0.5-0.3,0.9-0.5h0.4
					c0,0,0.1,0.1,0.1,0.1C208.1,6,208.2,5.9,208.1,6.1 M210.4,7.3v0.1h-0.1c0.1-0.4,0.1-0.2,0.2-0.5C210.6,7.1,210.5,7.1,210.4,7.3
					 M211.2,5.4c-0.5-0.1-0.9,0-1.3,0.2c-0.4-0.1-0.3-0.1-0.6-0.2c0.3-0.5,1.1-0.6,1.6-0.9h0.7L211.2,5.4 M216.7,5.7
					c-0.6,0-1.5,0.3-1.9,0h-0.2c0.2-0.3,0.3-0.7,0.4-1.1c0.9,0.1,1.8-0.2,2.7-0.6h0.2C217.4,4.6,217,5.2,216.7,5.7 M219,9.9h-0.2
					c-0.1-0.2-0.2-0.5-0.4-0.7c0.3-0.1,0.6-0.3,0.8-0.5h0.6C219.6,9.3,219.2,9.4,219,9.9L219,9.9L219,9.9z"/>
				<path class="st1" d="M216.9,21.9l-0.1,0c-1.1-0.3-2.2-0.8-3.2-1.5c-0.7-0.5-1.4-0.9-2.2-1.2l-0.2-0.1l0-0.2c0,0,0,0,0-0.1
					c-0.1-0.1-0.1-0.2,0-0.3l0,0l0.1,0c0.8-0.5,2-0.4,3.1-0.2c0.6,0.1,1.1,0.1,1.7,0.1v-8.2c-1,0.9-2.7,0.7-3.9,0.4h0
					c0,0.2,0.1,0.4,0.1,0.6v0.1l-0.1,0.1c-0.1,0.1-0.1,0.1-0.1,0.2c0,0.1-0.1,0.2-0.2,0.4c-0.2,0.2-0.5,0.4-0.8,0.5
					c-0.2,0.1-0.5,0.2-0.6,0.3v0.5c0.4-0.1,0.9-0.2,1.3-0.4c0.6-0.2,1.1-0.4,1.8-0.4l0.2,0v0.5l-0.1,0.1c-0.7,0.5-1.3,1.1-1.9,1.7
					c-1.3,1.3-2.7,2.8-4.9,2.9h-0.1l-0.1-0.1c-0.2-0.2-0.4-0.3-0.6-0.5c-0.2-0.2-0.5-0.4-0.7-0.6l-0.1-0.1v-0.9h0.2
					c0.8,0,1.5-0.3,2.1-0.8c0.2-0.2,0.4-0.5,0.4-0.8c0,0-0.1-0.1-0.1-0.1c0,0-0.1-0.1-0.1-0.1c-0.2-0.1-0.4-0.2-0.6-0.3
					c-0.6-0.1-1.1-0.7-1.1-1.3c-0.1-0.1-0.1-0.2-0.1-0.3l-0.1-0.4h0.3c0.5,0.1,0.9-0.1,1.3-0.4c0.2-0.3,0.4-0.7,0.3-1.1
					c-0.1,0-0.2-0.1-0.3-0.1l-0.1-0.1c0,0-0.1-0.1-0.1-0.1c0,0,0-0.1,0-0.1c-0.1-0.2-0.1-0.4-0.1-0.6c-0.3,0-0.5,0-0.8,0h-0.1
					l-0.1-0.1c-0.3-0.5-0.6-1-1-1.4c-0.3-0.3-0.6-0.7-0.8-1c-0.3-0.6-0.6-1.2-0.7-1.8c-0.1-0.4-0.2-0.7-0.3-1.1l-0.1-0.3h0.9l0.1,0
					c0.3,0.2,0.5,0.4,0.8,0.6c0.4,0.2,0.7,0.5,1,0.7c1.6-1.1,4-1.7,6.1-2.2l0.3-0.1c0.5-0.1,1,0,1.4,0.3c0.2,0.2,0.5,0.3,0.8,0.2
					c0.1-0.1,0.2-0.1,0.3-0.2c0.1-0.1,0.3-0.2,0.4-0.3c0.6-0.2,1.2-0.4,1.7-0.5c0.6-0.1,1.1-0.3,1.7-0.5c0.1,0,0.2-0.1,0.3-0.2
					c0.3-0.3,0.8-0.4,1.2-0.3c0.5,0.2,0.9,0.5,1.2,0.9c0.1,0.1,0.2,0.3,0.4,0.4l0.1,0.1v0.1c-0.1,1.6-1.1,2.9-2.5,3.6l0,0
					c0.1,0.1,0.2,0.3,0.3,0.4c0.1,0.1,0.2,0.2,0.2,0.3c0.3-0.1,0.6-0.2,0.9-0.3c0.5-0.2,1.1-0.3,1.6-0.4h0.1l0.1,0.1
					c0.1,0.2,0.3,0.3,0.5,0.4c0.4,0.2,0.7,0.6,0.9,1c0.1,0.5-0.1,1.1-0.6,1.4c-0.1,0.1-0.1,0.1-0.2,0.2c-0.9,1.2-2,2.7-4.3,2.9
					c0,0.5,0,0.9,0.1,1.4c0,1.5,0.1,2.9,0.3,4.4c0.1,0.9,0.1,1.7-0.1,2.6c-0.2,0.6-0.7,1-1.3,1.3c-0.3,0.1-0.5,0.3-0.8,0.5
					L216.9,21.9L216.9,21.9z M211.7,18.9c0.8,0.3,1.5,0.7,2.1,1.2c0.9,0.6,1.9,1.1,3,1.4c0.2-0.2,0.5-0.3,0.8-0.4
					c0.5-0.2,0.9-0.5,1.1-1l0,0c0.2-0.8,0.2-1.5,0.1-2.3c-0.2-1.5-0.3-3-0.3-4.4c0-0.6,0-1.1-0.1-1.6v-0.2h0.2
					c2.2-0.1,3.4-1.6,4.2-2.7c0.1-0.1,0.2-0.2,0.2-0.3c0.3-0.3,0.5-0.6,0.4-0.9c-0.1-0.3-0.4-0.5-0.7-0.7c-0.2-0.1-0.3-0.2-0.5-0.4
					c-0.5,0.1-0.9,0.2-1.4,0.4c-0.4,0.1-0.7,0.2-1.1,0.3l-0.1,0l-0.1-0.1c-0.1-0.1-0.2-0.2-0.3-0.3c-0.1-0.1-0.2-0.3-0.3-0.5l0,0
					c0,0-0.1-0.1-0.1-0.1c0,0,0-0.1,0-0.1l-0.1-0.2l0.2-0.1c1.3-0.6,2.2-1.8,2.4-3.2c-0.1-0.1-0.2-0.3-0.4-0.4
					c-0.2-0.4-0.6-0.6-0.9-0.8c-0.3-0.1-0.6,0-0.8,0.2c-0.1,0.1-0.2,0.2-0.4,0.2c-0.6,0.2-1.2,0.4-1.7,0.5s-1.1,0.3-1.7,0.5
					c-0.1,0.1-0.2,0.1-0.3,0.2c-0.1,0.1-0.3,0.2-0.4,0.3c-0.4,0.1-0.8,0-1.1-0.2c-0.3-0.2-0.7-0.3-1.1-0.2l-0.3,0.1
					c-2.2,0.5-4.6,1.1-6.1,2.2L206,5l-0.1-0.1c-0.4-0.3-0.7-0.6-1.1-0.8c-0.2-0.2-0.5-0.3-0.8-0.5h-0.1c0.1,0.3,0.2,0.5,0.2,0.8
					c0.1,0.6,0.3,1.1,0.6,1.7c0.2,0.3,0.5,0.7,0.8,1c0.4,0.4,0.7,0.9,1,1.4c0.6,0,0.9,0,1.1-0.5l0.1-0.1h0.5V8
					c0,0.3-0.1,0.5-0.1,0.8L208,8.9h-0.4c0,0.1,0,0.2,0.1,0.2l0,0c0,0.1,0,0.1,0.1,0.1l0,0c0,0,0.1,0.1,0.2,0.1l0.3,0v0.2
					c0.1,0.6-0.1,1.1-0.4,1.6c-0.4,0.3-0.8,0.5-1.3,0.5h0l0,0.1v0.1c0.1,0.6,0.4,0.8,0.9,1c0.2,0.1,0.5,0.2,0.7,0.4l0,0
					c0.1,0.1,0.1,0.1,0.1,0.2c0,0.1,0.1,0.1,0.1,0.1l0.1,0.1v0.1c0,0.5-0.2,0.9-0.5,1.2c-0.6,0.5-1.4,0.9-2.1,0.9v0.3
					c0.2,0.2,0.4,0.3,0.6,0.5c0.2,0.1,0.4,0.3,0.6,0.5c1.9-0.1,3.2-1.4,4.5-2.8c0.4-0.5,0.9-1,1.4-1.4c-0.3,0.1-0.7,0.2-1,0.3
					c-0.5,0.2-1.1,0.3-1.6,0.4l-0.2,0v-1.1l0-0.1c0.1-0.1,0.3-0.2,0.8-0.5c0.2-0.1,0.5-0.2,0.7-0.4c0.1-0.1,0.1-0.1,0.1-0.2
					c0-0.1,0.1-0.2,0.2-0.3c0-0.3-0.1-0.6-0.2-0.9c-0.5-0.1-0.9-0.1-1.4-0.1H210V9.9c0-1.1,0.2-1.3,0.6-1.4c0.2-0.1,0.3-0.1,0.4-0.3
					c0-0.2,0.1-0.4,0.1-0.7V7.4l0.1,0c0.3-0.2,0.6-0.3,1-0.3c0.2,0,0.4,0,0.6-0.1c0.3-0.1,0.5-0.3,0.8-0.5c0.2-0.2,0.4-0.3,0.6-0.4
					l0.2-0.1l0.1,0.2c0.3,0.8,1.1,1.4,2,1.4l0.3,0l-0.2,0.3c-0.3,0.5-3.2,1.4-4.2,1.5c0,0.2,0.1,0.4,0.1,0.5c0,0.1,0.1,0.2,0.1,0.3
					c1,0.2,2.7,0.4,3.5-0.4l0.1-0.1h0.6v9l-0.2,0c-0.7,0.1-1.4,0.1-2,0c-0.9-0.2-1.9-0.2-2.8,0.1C211.7,18.8,211.7,18.8,211.7,18.9
					L211.7,18.9L211.7,18.9z M210.5,9.7c0.5,0,0.9,0,1.4,0.1h0.1c-0.1-0.2-0.1-0.4-0.1-0.6V9h0.2c1.2-0.2,2.5-0.6,3.6-1.1
					c-0.7-0.2-1.3-0.7-1.7-1.3c-0.1,0.1-0.2,0.2-0.3,0.2c-0.3,0.2-0.6,0.4-0.9,0.6c-0.2,0.1-0.4,0.1-0.7,0.1c-0.2,0-0.4,0-0.6,0.1
					c0,0.2-0.1,0.4-0.1,0.6v0.1l0,0c-0.1,0.2-0.4,0.4-0.6,0.5C210.6,8.9,210.5,9,210.5,9.7L210.5,9.7L210.5,9.7z M219.1,10.1h-0.5
					l-0.1-0.1c-0.1-0.2-0.2-0.3-0.3-0.5l-0.2-0.4l0.2-0.1c0.1,0,0.2-0.1,0.3-0.1c0.2-0.1,0.4-0.2,0.6-0.3l0.1-0.1h1L220,8.8
					c-0.1,0.3-0.3,0.5-0.5,0.7c-0.2,0.1-0.3,0.3-0.4,0.5L219.1,10.1L219.1,10.1z M218.6,9.3L218.6,9.3l0.2,0.4
					c0.1-0.2,0.2-0.3,0.4-0.5c0.1-0.1,0.1-0.1,0.2-0.2h-0.2C219.1,9.1,218.9,9.2,218.6,9.3L218.6,9.3L218.6,9.3z M210.6,7.7H210
					l0.1-0.3c0-0.2,0.1-0.3,0.2-0.4c0,0,0.1-0.1,0.1-0.1l0.2-0.3l0.2,0.3c0.1,0.2,0.1,0.4-0.1,0.5l0,0L210.6,7.7L210.6,7.7z
					 M207.8,6.9h-0.1c-0.3,0-0.6-0.1-0.8-0.3c-0.1-0.1-0.1-0.1-0.2-0.2l-0.1-0.1l0.1-0.2c0.1-0.2,0.4-0.4,0.6-0.4
					c0.1,0,0.2-0.1,0.3-0.1l0.1,0h0.5l0.3,0.3l-0.1,0.1c0,0,0,0.1,0,0.1c0,0.1,0,0.1-0.1,0.1l0,0c0,0.2-0.1,0.3-0.2,0.5
					C208,6.7,207.9,6.7,207.8,6.9L207.8,6.9L207.8,6.9z M207.2,6.2C207.2,6.2,207.2,6.2,207.2,6.2c0.2,0.2,0.3,0.3,0.4,0.2
					c0,0,0.1-0.1,0.1-0.1c0.1-0.1,0.1-0.1,0.1-0.3l0-0.1h-0.1c-0.1,0.1-0.2,0.1-0.4,0.1C207.3,6.1,207.2,6.1,207.2,6.2L207.2,6.2
					L207.2,6.2z M215.3,6.1c-0.2,0-0.4,0-0.6-0.1h-0.5l0.2-0.4c0.1-0.3,0.2-0.6,0.3-0.9l0-0.2h0.2c0.9,0.1,1.8-0.1,2.5-0.5l0.1,0
					h0.7l-0.2,0.3c-0.2,0.3-0.4,0.7-0.7,1c-0.1,0.2-0.3,0.4-0.4,0.6l-0.1,0.1h-0.1c-0.2,0-0.4,0-0.6,0.1
					C215.8,6,215.6,6.1,215.3,6.1L215.3,6.1L215.3,6.1z M214.8,5.5L214.8,5.5c0.4,0.1,0.8,0.2,1.2,0c0.2,0,0.4-0.1,0.5-0.1
					c0.1-0.2,0.2-0.3,0.4-0.5s0.2-0.3,0.4-0.5c-0.7,0.3-1.4,0.4-2.2,0.4C215,5.1,214.9,5.3,214.8,5.5L214.8,5.5L214.8,5.5z
					 M209.9,5.8l-0.1,0c-0.1,0-0.3-0.1-0.4-0.2c-0.1,0-0.1-0.1-0.2-0.1l-0.2-0.1l0.1-0.2c0.2-0.4,0.6-0.6,1.1-0.7
					c0.2-0.1,0.4-0.2,0.6-0.3l0.1,0h1.1l-0.5,1.4h-0.1C210.8,5.5,210.4,5.6,209.9,5.8L209.9,5.8L209.9,5.8z M209.6,5.3L209.6,5.3
					c0.1,0,0.1,0.1,0.2,0.1c0.4-0.2,0.8-0.3,1.2-0.2l0.2-0.5h-0.3c-0.2,0.1-0.4,0.2-0.6,0.3C210,5,209.8,5.1,209.6,5.3L209.6,5.3
					L209.6,5.3z"/>
			</g>
			<g>
				<path class="st0" d="M173.1,4.1c0.3,0,0.5-0.1,0.7-0.2c0-1-0.3-0.9-0.2-2L170.9,2l-0.1,0.1v0.2c0.2,0.3,0.5,0.7,0.7,1
					C172,3.7,172.7,3.8,173.1,4.1L173.1,4.1z"/>
				<path class="st1" d="M173.1,4.3L173.1,4.3c-0.3-0.2-0.5-0.3-0.8-0.4c-0.3-0.1-0.6-0.2-0.8-0.4l-0.1-0.1l-0.8-1.1V2l0.2-0.2
					l3-0.1v0.2c0,0.3,0,0.7,0.1,1c0.1,0.3,0.1,0.6,0.1,1v0.1L174,4c0,0-0.1,0.1-0.1,0.1c-0.2,0.1-0.4,0.2-0.7,0.2L173.1,4.3
					L173.1,4.3z M171.7,3.2c0.2,0.1,0.4,0.2,0.7,0.3c0.3,0.1,0.5,0.2,0.8,0.3c0.1,0,0.3,0,0.4-0.1h0c0-0.3-0.1-0.5-0.1-0.8
					c-0.1-0.3-0.1-0.6-0.1-0.9L171,2.2v0.1L171.7,3.2L171.7,3.2z"/>
			</g>
			<g>
				<path class="st0" d="M178.7,14c-0.8,1.3-1.4,2.8-2.2,4.1c-1-0.2-1.2-1.3-1.7-2c-1-1.4-1.8-2.9-2.5-4.4c-0.3-0.8-0.3-2-0.7-2.7
					c0.1-1.3,1.5-1.6,1.9-2.6V5.8c0.2-0.4,0.6-0.8,1-1.2V4.4c-1.2,0.5-2.4,0.9-3.5,1.3c-0.1-0.2-0.1-0.5-0.1-0.7
					c-0.7-0.4-1.6-1-2.8-0.6c0.1-0.6,0.4-1.2,0.9-1.6V2.4c-0.8,0.1-1.5,0.2-2.3,0.3c-1.1,0.4-2.1,1.4-3.5,1.4c0,1.7,1,2.3,1.9,3
					c1.8-0.1,1.9-1.5,2.8-2.5c0,0,0.1-0.1,0.1-0.1c0.2,0.4,0.2,1.3,0.5,1.6c-0.1,1.2-1.4,1.1-2.3,1.5c-1.1,0.6-2.4,1.6-3.9,1.8
					c0.3,1.3,1.2,1.6,1.8,2.4c0.4,0.1,0.8,0.2,1.1,0h0.2c0,1-0.3,2.4,0.2,3.2c0,0.3,0,0.3-0.1,0.5v0.1c-0.6-0.3-0.1-0.6-0.4-1.3
					c-0.2-0.6-1-0.9-1.4-1.3h-0.6c0.3,0.9-0.2,2.8,0.4,3.5c-0.2,0.6-0.8,0.6-1.4,0.8c0,0.2,0.1,0.4,0.2,0.6c0.2,0.5,0.5,0.5,0.9,0.8
					c2.2,0,3.6-1.5,4.4-2.9c0.4-0.7,0.5-1.4,1.2-1.8V14c-0.5,0.2-0.9,0.5-1.3,0.8h-0.2c0-0.4,0.1-0.9,0.2-1.3c0.3-0.5,1-0.7,1.4-1.1
					c0.1-0.1,0.2-0.3,0.2-0.4c0-0.2-0.1-0.3-0.1-0.5c-0.8,0-1.2,0-1.6,0.4c-0.3-0.2-0.3-0.4-0.6-0.6c0.2-0.6,1.7-1.3,2.4-1.5
					c0.4,0.7,0.6,1.4,0.8,2.1c0.8,1.9,1.8,3.7,3,5.4c0.2,0.4,0.3,0.9,0.6,1.2c0.7,0.7,1.4,1.3,2.3,1.8c0.5,0.2,0.8,0,1.1,0.1h1.2
					c0.9-0.4,0.8-1.4,1.1-2.5c0.5-2.1,0.1-4.6,1.3-6.2v-0.4h-0.1C180,12.4,179.2,13.2,178.7,14L178.7,14L178.7,14z"/>
				<path class="st1" d="M178.2,20.6h-1.3l-0.1,0c-0.1,0-0.2,0-0.3,0c-0.3,0-0.5,0-0.8-0.1c-0.9-0.5-1.7-1.1-2.4-1.8
					c-0.2-0.2-0.3-0.5-0.4-0.7c-0.1-0.2-0.1-0.3-0.2-0.5c-1.2-1.7-2.2-3.5-3.1-5.4c-0.1-0.3-0.2-0.6-0.3-0.9c-0.1-0.4-0.2-0.7-0.4-1
					c-0.8,0.2-1.5,0.6-2.1,1.2c0.1,0.1,0.1,0.1,0.1,0.2c0.1,0.1,0.1,0.1,0.2,0.2c0.5-0.3,1-0.4,1.6-0.3h0.1l0.1,0.2
					c0.1,0.1,0.1,0.3,0.1,0.4v0.1l-0.1,0.1c0,0-0.1,0.1-0.1,0.1c0,0.1-0.1,0.1-0.2,0.2c-0.2,0.2-0.4,0.3-0.6,0.4
					c-0.3,0.1-0.6,0.3-0.8,0.6c-0.1,0.3-0.2,0.6-0.2,0.9c0.3-0.3,0.7-0.5,1.1-0.6l0.5-0.2v0.7l-0.1,0.1c-0.4,0.3-0.7,0.6-0.9,1.1
					c-0.1,0.2-0.2,0.4-0.3,0.5c-1.1,2-2.6,3-4.5,3H163l-0.1,0c-0.1-0.1-0.2-0.1-0.3-0.2c-0.3-0.1-0.5-0.4-0.6-0.7
					c-0.1-0.2-0.2-0.4-0.3-0.6l-0.1-0.2l0.2-0.1c0.1,0,0.2-0.1,0.3-0.1c0.5-0.1,0.8-0.2,0.9-0.5c-0.2-0.6-0.3-1.3-0.2-2
					c0.1-0.5,0-1-0.1-1.5l-0.1-0.3h1l0.1,0.1c0.2,0.1,0.3,0.3,0.5,0.4c0.3,0.1,0.5,0.3,0.7,0.6c0-0.4,0-0.8,0.1-1.2
					c0-0.2,0-0.3,0-0.5c-0.3,0.1-0.5,0.1-0.8,0c-0.1,0-0.2,0-0.3-0.1h-0.1l-0.1-0.1c-0.2-0.3-0.4-0.5-0.7-0.7
					c-0.6-0.4-1-1.1-1.1-1.8L162,9.4l0.2,0c1-0.2,1.9-0.6,2.8-1.1c0.4-0.2,0.7-0.4,1-0.6c0.3-0.1,0.6-0.2,0.9-0.3
					c0.8-0.2,1.2-0.4,1.3-1c-0.1-0.3-0.2-0.6-0.3-1c0-0.1,0-0.2-0.1-0.3c-0.2,0.2-0.4,0.5-0.5,0.8c-0.4,0.9-1.3,1.6-2.3,1.6H165
					l-0.1-0.1l-0.3-0.2c-1.1-0.6-1.7-1.7-1.7-3V4h0.2c0.9-0.1,1.7-0.4,2.4-0.8c0.3-0.2,0.7-0.4,1.1-0.5h0.1l2.5-0.4v0.7L169.1,3
					c-0.3,0.3-0.5,0.7-0.6,1.1c0.8-0.1,1.6,0.1,2.3,0.6c0.1,0.1,0.2,0.1,0.2,0.1l0.1,0.1V5c0,0.1,0,0.3,0,0.4c0.5-0.2,1-0.4,1.5-0.5
					c0.6-0.2,1.2-0.4,1.8-0.7l0.3-0.1v0.6l-0.1,0.1c-0.4,0.3-0.7,0.7-0.9,1l0,0.6c-0.2,0.4-0.5,0.8-0.9,1c-0.5,0.3-0.8,0.8-1,1.4
					c0.2,0.5,0.4,1,0.4,1.5c0.1,0.4,0.1,0.8,0.3,1.1c0.7,1.5,1.5,2.9,2.4,4.3L175,16c0.1,0.2,0.2,0.4,0.3,0.6
					c0.3,0.5,0.6,1.1,1.1,1.3c0.3-0.5,0.5-1,0.8-1.5c0.4-0.8,0.8-1.6,1.3-2.4c0.2-0.4,0.5-0.7,0.8-1.1c0.4-0.5,0.7-1,1-1.5l0.1-0.1
					h0.5v0.6l0,0.1c-0.7,1-0.9,2.3-1,3.8c-0.1,0.8-0.1,1.6-0.3,2.3c-0.1,0.2-0.1,0.5-0.1,0.7C179.2,19.5,179.1,20.3,178.2,20.6
					L178.2,20.6L178.2,20.6z M177.1,20.2h1.1c0.5-0.3,0.6-0.8,0.8-1.6c0-0.2,0.1-0.5,0.1-0.7c0.2-0.8,0.3-1.5,0.3-2.3
					c0-1,0.2-1.9,0.5-2.8l-0.2,0.3c-0.3,0.4-0.5,0.7-0.8,1c-0.5,0.8-0.9,1.6-1.3,2.4c-0.3,0.6-0.6,1.2-0.9,1.7l-0.1,0.1l-0.1,0
					c-0.8-0.2-1.2-0.9-1.5-1.5c-0.1-0.2-0.2-0.4-0.3-0.5l-0.1-0.1c-0.9-1.4-1.8-2.8-2.5-4.3c-0.1-0.4-0.2-0.8-0.3-1.2
					c0-0.5-0.2-1-0.4-1.4l0-0.1V9c0.1-0.7,0.5-1.4,1.1-1.8c0.3-0.2,0.6-0.5,0.8-0.8V5.8c0.2-0.3,0.4-0.7,0.7-0.9
					c-0.4,0.2-0.8,0.3-1.2,0.4c-0.6,0.2-1.1,0.4-1.7,0.6L170.8,6l-0.1-0.2c-0.1-0.2-0.1-0.4-0.1-0.6l-0.1-0.1
					c-0.7-0.5-1.5-0.7-2.3-0.4c0.1,0.2,0.1,0.4,0.2,0.7c0,0.3,0.1,0.6,0.3,0.9l0.1,0.1v0.1c-0.1,1-0.9,1.2-1.6,1.4
					c-0.3,0.1-0.5,0.2-0.8,0.3c-0.3,0.2-0.6,0.4-1,0.6c-0.8,0.6-1.7,1-2.7,1.2c0.2,0.5,0.5,1,1,1.4c0.2,0.2,0.5,0.5,0.7,0.7
					c0.1,0,0.2,0,0.3,0c0.3,0.1,0.4,0.1,0.6,0l0.1,0h0.5V12c0,0.2,0,0.5-0.1,0.7c-0.2,0.8-0.1,1.6,0.2,2.3l0.1,0.1v0.1
					c0,0.2-0.1,0.3-0.1,0.4v0.4l-0.3-0.2c-0.3-0.1-0.5-0.5-0.4-0.8c0-0.2,0-0.4-0.1-0.6c-0.2-0.3-0.5-0.6-0.8-0.8
					c-0.2-0.1-0.4-0.2-0.5-0.4h-0.2c0.1,0.4,0.1,0.9,0,1.3c-0.1,0.6,0,1.2,0.2,1.8l0.1,0.1l-0.1,0.1c-0.2,0.6-0.8,0.7-1.3,0.9
					l-0.1,0c0,0.1,0.1,0.2,0.1,0.3l0,0.1c0.1,0.2,0.2,0.4,0.4,0.5c0.1,0.1,0.2,0.1,0.3,0.2c1.7,0,3.1-1,4.1-2.8
					c0.1-0.2,0.2-0.4,0.3-0.5c0.1-0.3,0.2-0.5,0.4-0.8c-0.2,0.1-0.3,0.2-0.4,0.3l-0.1,0.1h-0.6l0-0.4c0-0.4,0.1-0.8,0.3-1.2
					c0.2-0.3,0.6-0.6,0.9-0.8c0.2-0.1,0.4-0.2,0.6-0.3c0,0,0.1-0.1,0.1-0.1c0,0,0.1-0.1,0.1-0.1c0-0.1,0-0.1-0.1-0.2
					c-0.6,0-1,0-1.3,0.3l-0.1,0.1l-0.1-0.1c-0.2-0.1-0.3-0.2-0.4-0.4c-0.1-0.1-0.1-0.2-0.2-0.2l-0.1-0.1l0.1-0.1
					c0.3-0.8,2-1.5,2.6-1.6l0.1,0l0.1,0.1c0.3,0.4,0.5,0.8,0.6,1.3c0.1,0.3,0.2,0.6,0.3,0.9c0.8,1.9,1.8,3.7,3,5.3
					c0.1,0.2,0.2,0.4,0.3,0.6c0.1,0.2,0.2,0.4,0.3,0.6c0.7,0.7,1.4,1.2,2.2,1.7c0.2,0.1,0.4,0.1,0.6,0.1
					C176.7,20.1,176.9,20.2,177.1,20.2L177.1,20.2L177.1,20.2z M163.3,4.4c0.1,1,0.6,1.9,1.5,2.4c0.1,0.1,0.2,0.1,0.2,0.2
					c1-0.1,1.4-0.7,1.8-1.4c0.2-0.4,0.4-0.7,0.7-1c0,0,0.1-0.1,0.1-0.1l0.1-0.1l0-0.1c0.1-0.6,0.4-1.2,0.8-1.7l-2,0.3
					c-0.3,0.2-0.7,0.3-1,0.5C165,4,164.2,4.3,163.3,4.4L163.3,4.4L163.3,4.4z"/>
			</g>
			<g>
				<path class="st0" d="M195,6.5c0.1,1.1,1.1,1.4,1.7,2c0.5,0,0.5,0.1,0.9-0.1c0.6-0.4-0.1-1.3-0.4-1.9c-0.7-0.3-1.5-0.4-2.3-0.5
					C194.9,6.3,194.9,6.4,195,6.5L195,6.5z"/>
				<path class="st1" d="M197.2,8.8c-0.1,0-0.1,0-0.2,0c-0.1,0-0.1,0-0.2,0h-0.1l-0.1-0.1c-0.2-0.2-0.4-0.3-0.6-0.4
					c-0.6-0.3-1.1-0.9-1.2-1.6c-0.1-0.1-0.1-0.3-0.1-0.4l0-0.3h0.2c0.6,0,1.3,0.1,1.9,0.3c0.2,0.1,0.3,0.1,0.5,0.1l0.1,0l0,0.1
					c0.1,0.1,0.1,0.2,0.2,0.4c0.3,0.6,0.8,1.4,0.1,1.8C197.5,8.7,197.3,8.8,197.2,8.8L197.2,8.8z M196.8,8.3c0.1,0,0.1,0,0.2,0
					c0.2,0.1,0.3,0,0.4-0.1c0.3-0.2,0.2-0.5-0.2-1.2c-0.1-0.1-0.1-0.2-0.2-0.3c-0.1,0-0.3-0.1-0.4-0.1c-0.5-0.2-1-0.3-1.5-0.3
					c0,0,0,0.1,0.1,0.1l0,0.1v0.1c0,0.7,0.5,1,1,1.4C196.4,8,196.6,8.1,196.8,8.3L196.8,8.3L196.8,8.3z"/>
			</g>
		</g>
		<g>
			<path class="st0" d="M75.4,13.3c-0.2-1.3-3.6-1.9-4.9-2.3c-0.2,0.5-0.3,1-0.5,1.5c0.2,0.2,4.7,1.6,5.1,1.7
				C75.1,13.9,75.2,13.6,75.4,13.3L75.4,13.3z"/>
			<path class="st1" d="M75.3,14.5l-0.2,0c-0.3,0-4.9-1.5-5.2-1.7l-0.1-0.1l0.6-1.9l0.2,0.1c0.2,0.1,0.6,0.2,0.9,0.3
				c1.7,0.4,3.9,1,4.1,2.2v0.1l-0.1,0.1c-0.2,0.2-0.3,0.5-0.3,0.8L75.3,14.5L75.3,14.5z M70.4,12.4c0.7,0.3,3.8,1.3,4.6,1.5
				c0-0.2,0.1-0.5,0.3-0.7c-0.2-0.9-2.4-1.4-3.8-1.8c-0.3-0.1-0.5-0.1-0.8-0.2L70.4,12.4L70.4,12.4z"/>
		</g>
		<g>
			<g>
				<path class="st0" d="M4.7,12.4v-2c-0.8,0.1-1.5,0.1-2.3,0H2.1v2H0.4c-0.1,0.4-0.1,0.8-0.2,1.2c0.6-0.1,1.1,0,1.7,0.1
					c0.3,0.4-0.4,3,0.3,4.1c0.1,1.3,1,1.5,1.5,2.3c2.8,0.2,5.7,0.3,8.6,0.1v-1.2c-1.9,0-5.1,0.4-6.4-0.3c-0.4-0.4-0.7-0.7-1.1-1.1
					c-0.1-1.4-0.2-2.8-0.2-4.1h4.6c0.3,0.4,0.6,0.4,0.8,0.9l0.1,0.1h-0.1c-0.1,0.5-0.2,0.4-0.3,0.8c-0.9,0.1-1.8,0.2-2.8,0.1
					c-0.1,0.4,0,0.7,0.2,1.1c1.5,0.3,3.1,0.3,4.6-0.1c0.3-0.2,0.5-0.5,0.8-0.8c0.2-0.8,0.5-1.6-0.1-2.3C11.7,11.8,7,12.4,4.7,12.4
					L4.7,12.4z"/>
				<path class="st1" d="M8.1,20.6c-1.4,0-2.9,0-4.3-0.2H3.6l-0.1-0.1c-0.2-0.2-0.4-0.4-0.6-0.6c-0.6-0.4-0.9-1-1-1.7
					c-0.3-0.9-0.4-1.9-0.2-2.8c0-0.4,0-0.8,0-1.2c-0.5-0.1-0.9-0.1-1.4-0.1H0l0-0.3c0.1-0.4,0.1-0.8,0.1-1.1l0-0.2h1.7v-2h0.6l0,0
					c0.7,0.1,1.4,0.1,2,0l0.3,0v2c0.3,0,0.7,0,1-0.1c2.6-0.1,5.9-0.3,6.6,1.2c0.6,0.7,0.4,1.5,0.2,2.3l-0.1,0.2l0,0
					c-0.2,0.3-0.5,0.5-0.8,0.8l-0.1,0C11,17.2,7.6,17.3,7,16.9L7,16.8c-0.2-0.4-0.2-0.8-0.2-1.2v-0.2H7c0.9,0,1.7,0,2.6-0.1
					c0-0.1,0.1-0.1,0.1-0.2c0.1-0.1,0.1-0.3,0.1-0.4v0c-0.1-0.2-0.2-0.4-0.4-0.6c-0.1-0.1-0.2-0.1-0.2-0.2H4.9c0,1.3,0,2.5,0.1,3.8
					l1,1c1,0.5,3.1,0.4,4.8,0.3c0.5,0,1,0,1.6-0.1h0.2v1.7h-0.2c-0.6,0-1.2,0-1.9,0C9.7,20.6,8.9,20.6,8.1,20.6L8.1,20.6z M3.9,20
					c2.2,0.2,4.4,0.2,6.6,0.2c0.6,0,1.1,0,1.7,0v-0.8c-0.4,0-0.9,0-1.3,0c-1.8,0.1-3.9,0.2-5-0.4l-0.1,0l-1.1-1.1v-0.1
					c-0.2-1.4-0.2-2.8-0.2-4.2v-0.2h4.9l0.1,0.1c0.1,0.1,0.2,0.2,0.3,0.2c0.2,0.2,0.4,0.4,0.5,0.7c0,0,0.1,0.1,0.1,0.1l0.4,0.4h-0.5
					c0,0.1-0.1,0.2-0.1,0.4c-0.1,0.1-0.1,0.2-0.1,0.3l-0.1,0.1l-0.1,0c-0.9,0.1-1.7,0.1-2.6,0.2c0,0.2,0,0.5,0.1,0.7
					c1.4,0.3,2.9,0.2,4.3-0.2c0.2-0.2,0.5-0.5,0.7-0.7l0-0.1c0.2-0.8,0.4-1.4-0.1-1.9l-0.1-0.1c-0.5-1.3-3.9-1.1-6.2-1
					c-0.5,0-0.9,0-1.2,0.1H4.4v-2c-0.7,0.1-1.4,0.1-2.1,0h0v2H0.6c0,0.3-0.1,0.5-0.1,0.8c0.5-0.1,1.1,0,1.6,0.2l0,0.1
					c0.2,0.2,0.2,0.7,0.1,1.6c-0.2,0.9-0.1,1.8,0.2,2.6l0,0.1c0,0.6,0.4,1.2,0.9,1.5C3.5,19.6,3.7,19.8,3.9,20L3.9,20z"/>
			</g>
			<g>
				<path class="st0" d="M96.8,10.6h-2.3v1.5h-6.1v-1.5H86v1.5h-1.4v1.4c0.4,0,0.8-0.1,1.2-0.1c0.2,0.8,0.2,1.6,0.2,2.4h2.3v-2.4
					c1.5,0.5,5.3,0.2,6,0c0.2,1,0.2,2.1,0,3.1c-1.1,3.8-6.5,2.2-9.8,1.7c-0.1,0.5,0,0.9,0.2,1.4c1.9,1.4,8.8,0.8,10.4-0.3
					c1-0.7,1-1.9,1.7-2.9v-2.9c0.4,0.1,0.8,0.1,1.2,0.1c0.1-0.4,0.2-0.9,0.2-1.4h-1.4L96.8,10.6L96.8,10.6z"/>
				<path class="st1" d="M88.9,20.5c-1.8,0-3.5-0.2-4.4-0.9l-0.1-0.1c-0.2-0.5-0.3-1-0.2-1.4v-0.3l0.2,0c0.4,0.1,0.9,0.1,1.5,0.2
					c3.2,0.6,7.2,1.3,8.1-1.8c0.2-0.9,0.2-1.8,0.1-2.8c-1.9,0.3-3.8,0.3-5.6,0V16h-2.7v-0.4c0.1-0.7,0-1.4-0.1-2.1
					c-0.2,0-0.3,0.1-0.5,0.1c-0.2,0-0.3,0-0.5,0l-0.2,0v-1.8h1.4v-1.5h2.7v1.5h5.7v-1.5H97v1.5h1.4v0.2c0,0.5,0,1-0.2,1.4l-0.1,0.2
					l-0.2,0c-0.2,0-0.3,0-0.5,0c-0.2,0-0.3,0-0.5-0.1v2.7l0,0.1c-0.2,0.4-0.4,0.8-0.6,1.2c-0.2,0.7-0.6,1.3-1.2,1.8
					C94.2,20,91.4,20.5,88.9,20.5L88.9,20.5z M84.8,19.3c1.9,1.3,8.7,0.7,10.1-0.3c0.5-0.4,0.8-1,1-1.6c0.2-0.4,0.3-0.8,0.6-1.2V13
					l0.3,0.1c0.2,0.1,0.4,0.1,0.7,0.1c0.1,0,0.2,0,0.3,0c0.1-0.3,0.1-0.6,0.1-0.9h-1.4v-1.5h-1.9v1.5h-6.6v-1.5h-1.9v1.5h-1.4v0.9
					c0.1,0,0.2,0,0.3,0c0.2,0,0.4,0,0.6-0.1L86,13l0.1,0.2c0.2,0.8,0.2,1.5,0.2,2.3h1.9V13l0.3,0.1c1.4,0.5,5.2,0.2,5.8,0l0.2-0.1
					l0.1,0.2c0.2,1.1,0.2,2.1,0,3.2c-1,3.4-5.4,2.7-8.6,2.1c-0.4-0.1-0.8-0.1-1.2-0.2C84.7,18.6,84.7,19,84.8,19.3L84.8,19.3z"/>
			</g>
			<g>
				<path class="st0" d="M117.7,15.3c-2.7-1-5.6-1.5-8.4-1.4v-3.4H107v9.6h2.3v-4.9c3.6,0,8.5,0.5,10.3,2.3h0.2
					c0-0.3,0.2-0.5,0.3-0.8C119.9,15.7,118.7,15.7,117.7,15.3L117.7,15.3L117.7,15.3z"/>
				<path class="st1" d="M109.5,20.5h-2.7V10.4h2.7v3.4c2.8-0.1,5.7,0.4,8.3,1.4c0.2,0.1,0.4,0.1,0.6,0.2c0.8,0.2,1.7,0.5,1.8,1.5
					v0.1l0,0.1c-0.1,0.2-0.2,0.4-0.3,0.7l0,0.2h-0.4l-0.1-0.1c-2-2-7.8-2.2-9.9-2.2L109.5,20.5L109.5,20.5z M107.2,20h1.9v-4.9h0.2
					c2.4,0,8.1,0.2,10.3,2.2c0-0.2,0.1-0.4,0.2-0.5c-0.1-0.7-0.8-0.9-1.5-1.1c-0.2-0.1-0.5-0.1-0.7-0.2c-2.7-1-5.5-1.5-8.3-1.4h-0.2
					v-3.4h-1.9V20z"/>
			</g>
			<g>
				<path class="st0" d="M130.8,10.6h-2.3v1.5h-6.6c-0.1,0.4,0,0.8,0.2,1.2c0.7,0.2,1.3,0.2,2,0.1c0.7-0.2,3.8,0,4.4-0.1v6.9h2.3
					c0-1.4-0.4-5.9,0.1-6.7c0.5-0.2,3.6-0.1,4.4,0c0.1-0.4,0.2-0.9,0.1-1.4h-4.8L130.8,10.6L130.8,10.6z"/>
				<path class="st1" d="M131,20.5h-2.7v-6.9c-0.4,0.1-1.2,0-2,0c-0.7,0-1.5,0-2.2,0.1c-0.7,0.1-1.5,0-2.2-0.2l0-0.1
					c-0.2-0.4-0.2-0.9-0.2-1.4v-0.2h6.6v-1.5h2.7v1.5h4.7v0.2c0,0.5,0,1-0.2,1.4l-0.1,0.2l-0.2,0c-1.4-0.2-2.8-0.2-4.3,0
					c-0.3,0.7-0.2,3.7-0.1,5.3c0,0.5,0,0.9,0,1.2V20.5L131,20.5z M128.7,20h1.9c0-0.3,0-0.6,0-1c-0.1-2.6-0.2-5,0.2-5.6l0-0.1l0.1,0
					c0.6-0.3,3.4-0.2,4.4,0c0.1-0.3,0.1-0.6,0.1-0.9h-4.8v-1.5h-1.9v1.5h-6.6c0,0.3,0,0.6,0.1,0.9c0.6,0.1,1.2,0.2,1.8,0.1
					c0.8-0.1,1.5-0.1,2.3-0.1c0.7,0,1.4,0,2.2-0.1l0.3-0.1L128.7,20L128.7,20z"/>
			</g>
			<g>
				<path class="st0" d="M144.7,10.6c0,2.4-0.1,4.9-0.1,7.1c-0.3,0.4-0.6,0.7-0.9,1.1h-0.8v1.5c4.6-0.2,4.2-4.8,4.1-9.6L144.7,10.6
					L144.7,10.6z"/>
				<path class="st1" d="M142.6,20.5v-2h0.9c0.2-0.3,0.4-0.5,0.7-0.8l0.1-0.1c0-0.6,0-1.1,0.1-1.7c0.1-1.7,0.1-3.5,0.1-5.2v-0.2h2.7
					l0,0.9c0.1,4.6,0.2,8.9-4.4,9.2L142.6,20.5L142.6,20.5z M143.1,18.9V20c3.9-0.4,3.8-4.2,3.7-8.7v-0.5h-1.9c0,1.7-0.1,3.4-0.1,5
					c0,0.6,0,1.2-0.1,1.8v0.1l-0.2,0.3c-0.2,0.3-0.5,0.6-0.7,0.9l-0.1,0.1L143.1,18.9L143.1,18.9z"/>
			</g>
			<g>
				<path class="st0" d="M153.3,18.5c-0.9,0.6-1.8,0.4-2.6,0.5c-0.2-0.2-0.5-0.4-0.8-0.6v-7.8h-2.3c0,2-0.4,7.5,0.5,8.4
					c0.4,1.1,3.4,1.8,5.5,1.2c1.8-0.4,3.1-2,3.2-3.8C153,16.4,155.1,17.3,153.3,18.5L153.3,18.5L153.3,18.5z"/>
				<path class="st1" d="M151.9,20.6c-1.8,0-3.7-0.6-4-1.5c-0.7-0.8-0.6-3.9-0.5-7.2c0-0.5,0-1,0-1.4v-0.2h2.7v7.9
					c0.2,0.1,0.4,0.3,0.6,0.5c0.2,0,0.3,0,0.5,0c0.7,0.1,1.3-0.1,1.9-0.4c0.4-0.2,0.7-0.6,0.9-1.1c0.2-0.8,0.5-1.1,2.8-1.1h0.2v0.2
					c-0.1,2-1.5,3.6-3.4,4C153.1,20.6,152.5,20.6,151.9,20.6L151.9,20.6L151.9,20.6z M147.8,10.8c0,0.3,0,0.7,0,1.2
					c-0.1,2.1-0.2,6.2,0.4,6.9l0,0.1c0.3,0.9,3.1,1.7,5.2,1.1c1.6-0.4,2.9-1.7,3-3.4c-1.9,0-2,0.3-2.1,0.8c-0.1,0.6-0.5,1.1-1,1.4
					c-0.6,0.4-1.4,0.5-2.1,0.5c-0.2,0-0.4,0-0.6,0h-0.1l-0.1-0.1c-0.2-0.2-0.5-0.4-0.7-0.6l-0.1-0.1v-7.7L147.8,10.8L147.8,10.8z"/>
			</g>
			<g>
				<path class="st0" d="M22.1,16.1c-1,1.3-3.2,3.3-5.1,2.3c-0.4-2-0.3-5-0.3-7.5h-2.6c0,1.8-0.2,6.5,0.3,7.8c0.3,0.6,0.9,1,1.2,1.5
					c3.4,0.8,5.7-0.3,8-2.6c0.9-0.9,1.4-2.2,2.5-2.9v-0.1h-2.9C22.8,14.8,22.4,15.7,22.1,16.1L22.1,16.1z"/>
				<path class="st1" d="M17.8,20.7c-0.7,0-1.4-0.1-2.1-0.3l-0.1,0l-0.1-0.1c-0.1-0.2-0.3-0.4-0.5-0.5c-0.3-0.3-0.6-0.6-0.8-1
					c-0.5-1.1-0.4-4.5-0.3-6.7c0-0.5,0-0.9,0-1.2v-0.2h3v1.2c-0.1,2.1,0,4.3,0.3,6.4c1.7,0.9,3.8-1.1,4.7-2.3
					c0.1-0.2,0.2-0.3,0.3-0.5c0.2-0.4,0.5-0.8,0.9-1.1l0.1,0h3.1v0.5l-0.1,0.1c-0.6,0.5-1,1-1.4,1.6c-0.3,0.5-0.6,0.9-1,1.3
					C21.8,19.8,20,20.7,17.8,20.7L17.8,20.7z M15.8,20c3,0.7,5.2-0.1,7.7-2.6c0.4-0.4,0.7-0.8,1-1.2c0.4-0.5,0.8-1,1.2-1.5h-2.4
					c-0.3,0.3-0.5,0.6-0.6,0.9c-0.1,0.2-0.2,0.4-0.3,0.5c-1,1.3-3.4,3.5-5.3,2.4l-0.1,0l0-0.1c-0.3-2.2-0.4-4.4-0.3-6.6v-0.8h-2.2
					c0,0.3,0,0.6,0,1c0,2-0.1,5.5,0.3,6.5c0.2,0.3,0.4,0.6,0.7,0.9C15.5,19.7,15.7,19.9,15.8,20L15.8,20z"/>
			</g>
			<g>
				<path class="st0" d="M27.7,12.3c0.1,0.1,0,0,0.1,0c1-0.1,2.1,0,3.1,0.1v2.1h-3.4v0.9h3.4c0,1.4-0.1,2.8,0.6,3.5
					c0.7,1.9,4.8,1.5,7.3,1.4v-1.2c-1.5,0-3-0.1-4.3-0.1c-0.4-0.4-0.8-0.5-1.1-1.2h-0.2c-0.1-0.8,0-1.5,0.2-2.3h6v-0.9h-6.1
					c-0.1-0.7,0-1.4,0.2-2.1c0.9-0.5,4.3-0.2,6-0.1V11h-12C27.4,11.4,27.5,11.9,27.7,12.3z"/>
				<path class="st1" d="M35.8,20.7c-2,0-4-0.3-4.5-1.6c-0.7-0.8-0.7-2-0.6-3.4h-3.4v-1.4h3.4v-1.8c-0.8-0.1-1.5-0.2-2.3-0.1
					c-0.2,0-0.3,0-0.5,0l0,0.1h-0.2l-0.1-0.1c-0.2-0.4-0.2-0.9-0.2-1.4v-0.2h12.4v1.7h-0.2c-0.4,0-0.9,0-1.4-0.1
					c-1.6-0.1-3.7-0.2-4.4,0.1c-0.1,0.5-0.2,1.1-0.1,1.6c0,0,0,0.1,0,0.1h6.1v1.4h-6c-0.1,0.6-0.1,1.2-0.1,1.9h0.1l0,0.1
					c0.1,0.3,0.3,0.6,0.6,0.8c0.1,0.1,0.2,0.2,0.3,0.3c0.4,0,0.7,0,1.1,0c1,0,2,0.1,3.1,0.1h0.2v1.6h-0.2c-0.3,0-0.6,0-1,0
					C37.2,20.6,36.5,20.7,35.8,20.7L35.8,20.7z M27.7,15.3h3.4v0.4c0,1.3-0.1,2.6,0.5,3.2l0,0.1c0.5,1.5,3.8,1.4,6.2,1.3
					c0.3,0,0.5,0,0.8,0v-0.8c-1,0-1.9,0-2.9-0.1c-0.4,0-0.8,0-1.2,0h-0.1l-0.1-0.1c-0.1-0.1-0.2-0.2-0.4-0.3
					c-0.3-0.2-0.6-0.5-0.7-0.9h-0.2v-0.4c-0.1-0.7,0-1.5,0.2-2.2l0-0.1h5.9v-0.5h-6.1v-0.2c0-0.1,0-0.2,0-0.3
					c-0.1-0.6,0-1.3,0.2-1.9l0-0.1l0,0c0.8-0.4,2.8-0.3,4.7-0.2c0.4,0,0.8,0,1.2,0v-0.8H27.7c0,0.3,0,0.5,0.1,0.8h0
					c0.2,0,0.4,0,0.5,0c0.9-0.1,1.7,0,2.6,0.2l0.1,0.1v2.5h-3.4L27.7,15.3L27.7,15.3z"/>
			</g>
			<g>
				<path class="st0" d="M40.7,11v1.2c1.9,0,8.2-0.4,9.2,0.3c0.2,0.1,0.3,0.3,0.5,0.5c0,0.3,0,0.5-0.2,0.8C50,14.2,50,14,49.9,14.4
					c-1.6,0.1-3.7,0.2-5.5,0.1c0.1,3.3-0.3,4.7-3.7,4.6v1.2c4.3,0.1,6.2-0.4,6.1-4.8c1.9,0,4.3,0.2,5-0.5c0.7-0.2,0.7-0.8,1.1-1.2
					c0.1-1-0.3-1.9-0.9-2.6C49,10.6,44.3,11,40.7,11L40.7,11z"/>
				<path class="st1" d="M41.6,20.6c-0.3,0-0.6,0-0.9,0h-0.2v-1.7h0.2c1.4,0,2.2-0.2,2.8-0.7c0.7-0.7,0.8-1.9,0.7-3.7v-0.2h0.2
					c2,0,3.9,0,5.4-0.1c0-0.1,0.1-0.1,0.1-0.2c0.1-0.1,0.1-0.2,0.1-0.3l0,0c0.1-0.2,0.1-0.4,0.1-0.6l-0.4-0.4
					c-0.7-0.5-5.1-0.4-7.4-0.3c-0.7,0-1.2,0-1.6,0.1h-0.2v-1.7h0.2c0.9,0,1.8,0,2.8-0.1c3.1-0.1,6.2-0.2,8.6,0.4l0.1,0l0,0.1
					c0.1,0.1,0.2,0.2,0.2,0.3c0.5,0.7,0.8,1.5,0.7,2.4v0.1l-0.1,0.1c-0.1,0.1-0.2,0.3-0.3,0.5c-0.2,0.4-0.5,0.7-0.8,0.8
					c-0.7,0.6-2.5,0.5-4.3,0.5H47c0,1.7-0.3,2.9-1,3.6C45.1,20.4,43.6,20.6,41.6,20.6L41.6,20.6z M40.9,20.2c2.3,0,3.9-0.1,4.8-1
					c0.7-0.7,1-1.8,0.9-3.5v-0.2h0.2c0.3,0,0.5,0,0.8,0c1.6,0,3.5,0.1,4.1-0.4l0.1,0c0.3-0.1,0.5-0.3,0.6-0.6
					c0.1-0.2,0.2-0.3,0.3-0.5c0.1-0.7-0.2-1.5-0.6-2.1c-0.1-0.1-0.1-0.2-0.2-0.3c-2.3-0.6-5.4-0.4-8.4-0.4c-0.9,0-1.8,0.1-2.6,0.1
					V12c0.4,0,0.8,0,1.4,0c3.6-0.1,7-0.2,7.7,0.4l0.5,0.6v0.2c0,0.4-0.1,0.8-0.3,1.1c-0.1,0.1-0.1,0.2-0.1,0.3l0,0.1h-0.1
					c-1.4,0.1-3.3,0.2-5.3,0.2c0,1.8-0.1,3-0.8,3.8c-0.6,0.6-1.5,0.8-2.8,0.8L40.9,20.2L40.9,20.2z"/>
			</g>
			<g>
				<path class="st0" d="M66,11.4c-3.6-0.7-8.4-0.2-12.2-0.1v1.2h10.6c0.2,0.1,0.4,0.6,0.6,0.8v5.1c-0.3,0.8-1.8,0.6-2.9,0.6h-8.3
					v1.4c3.5,0,10.7,0.7,13-0.6c0.3-1.1,0.8-6,0.2-7.2C66.7,12.1,66.2,11.7,66,11.4z"/>
				<path class="st1" d="M60.9,20.6c-1.4,0-2.9-0.1-4.3-0.1c-1,0-1.9-0.1-2.9-0.1h-0.2v-1.8H62c0.2,0,0.3,0,0.5,0
					c0.9,0,1.9,0,2.2-0.5v-4.9c-0.1-0.1-0.1-0.2-0.2-0.3c-0.1-0.1-0.2-0.2-0.2-0.3H53.5V11h0.2c1.1,0,2.3-0.1,3.5-0.1
					c2.9-0.2,5.9-0.1,8.8,0.3l0.1,0l0.1,0.1c0.1,0.2,0.3,0.3,0.4,0.5c0.2,0.2,0.4,0.4,0.5,0.6c0.7,1.3,0.1,6.3-0.1,7.3l0,0.1l-0.1,0
					C65.7,20.5,63.4,20.6,60.9,20.6z M53.9,20c0.8,0,1.7,0,2.7,0.1c3.5,0.1,8.2,0.3,10-0.6c0.3-1.4,0.7-5.9,0.2-7
					c-0.1-0.2-0.3-0.4-0.4-0.5c-0.2-0.1-0.3-0.3-0.4-0.5c-2.8-0.4-5.7-0.5-8.6-0.2c-1.2,0.1-2.2,0.1-3.3,0.1v0.8h10.4l0,0
					c0.2,0.1,0.4,0.3,0.5,0.5c0.1,0.1,0.1,0.2,0.2,0.3l0.1,0.1l0,5.2c-0.4,0.8-1.5,0.8-2.6,0.8c-0.2,0-0.3,0-0.5,0h-8.1L53.9,20
					L53.9,20z"/>
			</g>
			<g>
				<path class="st0" d="M77,18.5c-1.2,0.5-2.5,0.1-4,0.3c-1.3,0-2.6,0-3.8-0.1v1.4c7.6,0.4,12.8,0.3,13.6-7.1l-2.2-0.6
					C79.8,14.8,79.3,17.6,77,18.5L77,18.5z"/>
				<path class="st1" d="M73.1,20.4c-1.2,0-2.5-0.1-3.9-0.1H69v-1.8h0.2c0.3,0,0.7,0.1,1.1,0.1c0.9,0.1,1.8,0.1,2.7,0.1
					c0.6-0.1,1.2-0.1,1.8-0.1c0.7,0.1,1.4,0,2.1-0.2c1.8-0.7,2.4-2.6,3.1-4.6c0.2-0.5,0.3-0.9,0.5-1.4l0.1-0.2l0.2,0.1l1.8,0.5
					l0.5,0.1l0,0.2C82.4,19.2,78.7,20.4,73.1,20.4L73.1,20.4z M69.4,19.9c7.6,0.4,12.3,0.1,13.2-6.7l-0.2-0.1l-1.6-0.5
					c-0.1,0.4-0.3,0.8-0.4,1.2c-0.7,2-1.3,4.1-3.3,4.9c-0.7,0.2-1.5,0.3-2.3,0.2c-0.6,0-1.2,0-1.8,0.1c-0.9,0-1.8,0-2.8-0.1
					c-0.3,0-0.6,0-0.9-0.1L69.4,19.9L69.4,19.9z"/>
			</g>
			<g>
				<path class="st0" d="M122.9,18.7c-0.4,0-0.7,0.1-1.1,0.1v1.4c3.7-0.1,5.6-2.2,5.5-6h-2.3C125.1,17.1,124.1,17.2,122.9,18.7
					L122.9,18.7z"/>
				<path class="st1" d="M121.7,20.5v-1.8l0.2,0l0.9-0.1h0.1c0.2-0.3,0.5-0.6,0.7-0.8c0.8-0.8,1.3-1.4,1.3-3.5V14h2.7v0.2
					c0.1,1.6-0.4,3.3-1.4,4.5c-1.2,1.1-2.7,1.7-4.3,1.6L121.7,20.5L121.7,20.5z M122.1,19v1c1.4,0,2.8-0.5,3.8-1.5
					c0.9-1.1,1.4-2.6,1.3-4h-1.9c0.1,1.4-0.4,2.7-1.5,3.5c-0.2,0.2-0.5,0.5-0.7,0.8l-0.1,0.1l-0.2,0L122.1,19L122.1,19z"/>
			</g>
			<g>
				<path class="st0" d="M134.3,18.1c-0.6-0.9-0.6-2.3-0.6-3.8h-2.3c0,3,0.6,4.6,2.4,5.7c0.4,0.2,1.1,0.1,1.4,0.3h0.3
					C135.5,18.5,134.9,19,134.3,18.1L134.3,18.1z"/>
				<path class="st1" d="M135.7,20.5h-0.6l-0.1,0c-0.2-0.1-0.4-0.1-0.6-0.1c-0.3,0-0.5-0.1-0.8-0.2c-1.9-1-2.6-2.7-2.6-5.9v-0.2h2.7
					v0.2c0,1.5,0,2.9,0.6,3.7c0.1,0.2,0.3,0.4,0.6,0.5c0.4,0.3,0.7,0.6,0.7,1.7L135.7,20.5L135.7,20.5z M135.2,20L135.2,20
					c0-0.8-0.2-1-0.5-1.2c-0.3-0.2-0.5-0.4-0.6-0.6c-0.6-0.9-0.7-2.2-0.6-3.7h-1.9c0,2.8,0.7,4.3,2.3,5.3c0.2,0.1,0.4,0.1,0.6,0.1
					C134.8,19.9,135,19.9,135.2,20L135.2,20L135.2,20z"/>
			</g>
			<g>
				<path class="st0" d="M105,14.9c-1-0.4-4.3,0.6-5.5-0.2h-0.2v1.4h6C105.4,15.4,105.4,15.1,105,14.9L105,14.9z"/>
				<path class="st1" d="M105.5,16.3h-6.4v-1.8h0.4l0.1,0c0.6,0.4,1.9,0.2,3.1,0.1c0.8-0.2,1.6-0.2,2.4,0h0c0.5,0.3,0.5,0.7,0.4,1.3
					C105.6,15.9,105.5,16.3,105.5,16.3z M99.6,15.9h5.6c0-0.5,0-0.7-0.2-0.8c-0.7-0.1-1.5-0.1-2.2,0c-1.1,0.2-2.1,0.2-3.2-0.1
					C99.6,15,99.6,15.9,99.6,15.9z"/>
			</g>
			<g>
				<path class="st0" d="M141.8,14.9c-0.8-0.4-3.6,0.5-4.6-0.2c-0.2,0-0.4,0.1-0.6,0.2v1.2h5.5C142.1,15.5,142.2,15.1,141.8,14.9z"
					/>
				<path class="st1" d="M142.3,16.3h-5.9v-1.6l0.2-0.1c0.2-0.1,0.4-0.1,0.6-0.1h0.1l0.1,0c0.5,0.3,1.6,0.2,2.6,0.1
					c0.6-0.1,1.3-0.1,2,0h0c0.5,0.3,0.4,0.7,0.4,1.2L142.3,16.3L142.3,16.3z M136.8,15.9h5.1c0-0.5,0-0.7-0.2-0.8
					c-0.6-0.1-1.2-0.1-1.7,0c-0.9,0.2-1.9,0.1-2.8-0.1c-0.1,0-0.2,0-0.4,0.1V15.9L136.8,15.9z"/>
			</g>
		</g>
		<g>
			<path class="st2" d="M3.1,3.3v1.4H1.9V3.3L3.1,3.3 M1.9,5.9c0-0.2,0-0.4,0-0.6h1.3c0,0.1,0,0.2,0,0.3h0.9c0-0.7-0.1-1.3-0.1-2
				V2.2c0-0.5,0-1,0-1.4c-0.3,0-0.7,0-1,0h-1c-0.3,0-0.6,0-0.9,0c0,0.5,0.1,0.9,0.1,1.4v1.5c0,0.7,0,1.5-0.1,2.2L1.9,5.9 M3.1,1.3
				v1.4H1.9V1.3H3.1 M4.7,3.4c1-0.4,1.6-1.3,1.7-2.3h1.4C7.6,2.7,7.4,2.8,7,2.8c-0.2,0-0.5,0-0.7-0.1l0.4,0.7c0.8,0,1.3-0.1,1.5-0.5
				c0.3-0.8,0.4-1.6,0.4-2.5c-0.6,0-1.1,0-1.7,0h-1c-0.6,0-1.1,0-1.7,0v0.6c0.4,0,0.9,0,1.3-0.1C5.5,2,4.8,2.7,4,2.9L4.7,3.4
				 M5.1,6.6c0-0.1,0-0.2,0-0.3h2.5c0,0.1,0,0.2,0,0.3h0.9c0-0.3-0.1-0.7-0.1-1V4.5c0-0.3,0-0.6,0-0.8c-0.4,0-0.8,0-1.2,0H5.6
				c-0.4,0-0.9,0-1.4,0c0,0.3,0,0.6,0,0.9v1c0,0.3,0,0.7-0.1,1L5.1,6.6 M7.6,4.2v1.4H5V4.2H7.6z"/>
			<path class="st2" d="M13.4,0.7c0,0,0.1,0.1,0.1,0.2c0,0,0,0.1-0.1,0.1c0,0-0.1,0-0.2-0.1c-0.3,0.1-0.6,0.2-1,0.3v1h0.1
				c0.3,0,1,0,1.4-0.1v0.7c-0.3,0-1-0.1-1.4-0.1h-0.1C12.5,3.4,13,4,13.7,4.3l-0.5,0.5c-0.4-0.2-0.7-0.5-1-0.8h0v0.1
				c0,0.6,0.1,2.2,0.1,2.5h-0.9c0-0.3,0.1-1.9,0.1-2.6V3.7h0C11,4.4,10.4,4.9,9.8,5.3L9.1,4.8c0.9-0.4,1.6-1.2,2-2h-0.1
				c-0.3,0-1.1,0-1.3,0.1V2.1c0.3,0,1,0.1,1.3,0.1h0.5V1.3C11,1.4,10.7,1.4,10,1.5L9.6,0.8c1.9-0.1,2.6-0.2,3.3-0.6L13.4,0.7
				 M16,1.1c0.4,0,0.8,0,1.2,0c0,0.5-0.1,1-0.1,1.5v1.2c0,0.5,0.1,1.8,0.1,2.1h-0.9c0-0.2,0-0.4,0-0.5h-1.7c0,0.2,0,0.3,0.1,0.5h-1
				c0.1-0.3,0.2-1.7,0.2-2.1V2.8c0-0.4,0-1.4-0.1-1.7c0.2,0,0.8,0,0.9,0L16,1.1 M14.6,4.9h1.7V1.7h-1.7V4.9L14.6,4.9z"/>
			<path class="st2" d="M21.3,0.5c-0.3,0-0.6,0.1-0.9,0.1h-0.9c-0.2,0-0.8,0-0.9-0.1v0.7c0.3,0,0.6-0.1,0.9-0.1h0.9
				c0.3,0,0.6,0,0.9,0.1V0.5 M20.6,5.7h-1.3V4.8h1.3V5.7 M19.3,6.7c0-0.1,0-0.3,0-0.4h1.3c0,0.1,0,0.2,0,0.3h0.8c0-0.2,0-0.6,0-0.9
				V5.1c0-0.3,0-0.6,0-0.9c-0.4,0-0.6,0.1-1.1,0.1h-0.7c-0.4,0-0.7,0-1.1,0c0,0.2,0,0.6,0,0.9v0.7c0,0.3,0,0.5,0,0.8L19.3,6.7
				 M21.3,3.3c-0.3,0-0.6,0.1-0.9,0.1h-0.8c-0.3,0-0.8,0-0.9-0.1v0.7c0.3,0,0.6-0.1,0.9-0.1h0.8c0.2,0,0.8,0,0.9,0.1V3.3 M25.2,4.8
				c0,0.3,0,0.5-0.1,0.8c-0.1,0.2-0.3,0.3-0.5,0.3h-1.2c-0.1,0-0.3,0-0.5-0.1c-0.1-0.1-0.2-0.2-0.2-0.5V3.3h1.8c0,0.1,0,0.2,0,0.3
				h0.9c0-0.2,0-0.5,0-0.7V1.7c0-0.4,0-0.8,0.1-1.2c-0.6,0.1-1.1,0.1-1.5,0.1H23c-0.4,0-0.8,0-1.2-0.1v0.7c0.4,0,0.8-0.1,1.2-0.1
				h1.5v1c0,0.2,0,0.4,0,0.5c-0.1,0-0.5,0-0.9,0H23c-0.3,0-0.7,0-1,0c0,0.4,0,0.8,0,1.1v1.5c0,0.9,0.2,1.2,1.1,1.2h1.6
				c0.4,0.1,0.8-0.1,1-0.4c0.1-0.3,0.2-0.6,0.3-1L25.2,4.8 M21.8,1.4c-0.4,0-0.8,0.1-1.2,0.1h-1.2c-0.4,0-0.8,0-1.2-0.1V2
				c0.4,0,0.8,0,1.2,0h1.2c0.4,0,0.8,0,1.2,0V1.4 M21.3,2.3c-0.3,0-0.6,0.1-0.9,0.1h-0.9c-0.3,0-0.8,0-0.9-0.1V3
				c0.3,0,0.6-0.1,0.9-0.1h0.9c0.3,0,0.8,0,0.9,0.1V2.3z"/>
			<path class="st2" d="M32.4,5.1c-0.3,0.7-0.4,0.8-0.9,0.8h-1.4c-0.4,0-0.6-0.1-0.6-0.3V4.7c0.2-0.1,0.2-0.1,0.2-0.2
				c0-0.1-0.1-0.1-0.2-0.1l-0.8-0.1c0,0.2,0,0.6,0,0.8v0.6c0,0.5,0.3,0.7,0.8,0.7h2.3c0.5,0,0.7-0.1,1.1-0.9L32.4,5.1 M27.3,2.8
				c0.5-0.1,1-0.3,1.5-0.6v0.4c0.4,0,0.8,0,1.3,0h1.3c0.5,0,0.9,0,1.3,0V2.3c0.5,0.2,1.1,0.4,1.6,0.5l0.5-0.7
				c-1.2-0.1-2.4-0.6-3.3-1.3c0,0,0.1-0.1,0.1-0.1c0-0.1-0.1-0.1-0.2-0.1l-1-0.3c-0.9,1.1-2.2,1.8-3.6,2L27.3,2.8 M29.3,2L29.3,2
				c0.5-0.3,0.9-0.6,1.3-1c0.4,0.4,0.9,0.7,1.4,1v0H29.3 M32,4.7c0.3-0.5,0.6-1.2,0.9-1.8c-0.2,0-1.3,0-1.9,0h-1.2
				c-0.6,0-1.2,0-1.8,0v0.6c0.4,0,0.9,0,1.4,0h2.3c-0.1,0.3-0.3,0.6-0.5,0.9L32,4.7 M27.5,6.3C27.9,6,28.2,5.5,28.4,5
				c0.1,0,0.2,0,0.2-0.1c0-0.1-0.1-0.1-0.2-0.1l-0.7-0.2c-0.2,0.6-0.6,1.1-1.1,1.4L27.5,6.3 M31.3,4.9c-0.2-0.4-0.6-0.7-1-1
				l-0.7,0.4c0.4,0.2,0.7,0.6,0.9,1L31.3,4.9 M34.5,5.7c-0.3-0.5-0.6-1-1.1-1.3l-0.7,0.3c0.5,0.4,0.8,0.8,1,1.4L34.5,5.7L34.5,5.7z"
				/>
			<path class="st2" d="M40.4,3.6c0.9,0.6,1.6,1.5,2.1,2.5l-0.8,0.4c-0.1-0.3-0.3-0.6-0.5-0.9C39.2,6,37,6.2,36.4,6.2
				c0,0.1-0.1,0.2-0.2,0.2S36.1,6.3,36,6.2l-0.1-0.8c0.3,0,0.7,0,1,0c0.8-0.8,1.4-1.8,1.8-2.9l1,0.3c0.1,0,0.2,0.1,0.2,0.2
				s-0.1,0.1-0.4,0.1c-0.4,0.8-0.9,1.6-1.5,2.3c1.5-0.1,2.2-0.1,2.9-0.2c-0.3-0.4-0.7-0.8-1.1-1.1L40.4,3.6 M35.2,3.4
				c1.1-0.7,2-1.7,2.5-2.9l0.9,0.4c0.1,0,0.1,0.1,0.1,0.1c0,0.1-0.1,0.1-0.3,0.1c-0.5,1.1-1.3,2-2.3,2.7L35.2,3.4 M42.6,3.8
				c-1.2-0.5-2.1-1.4-2.5-2.6c-0.3,0-0.9,0.1-1.2,0.1V0.5c0.2,0,0.8,0,1.2,0h0.8c0.2,1.3,0.8,2,2.5,2.7L42.6,3.8L42.6,3.8z"/>
			<path class="st2" d="M48.5,2.9c0.4,0,1,0,1.3,0c0,0.1,0,0.3,0,0.4v0.4c0,0.1,0,0.3,0,0.4c-0.4,0-0.8,0-1.3,0
				c0.2,0.2,0.4,0.4,0.6,0.5c0.2-0.2,0.4-0.4,0.5-0.5l0.6,0.3c0,0,0.1,0.1,0.1,0.1s0,0.1-0.3,0.1c-0.1,0.1-0.3,0.2-0.4,0.3
				c0.2,0.1,0.5,0.2,0.8,0.2L50,5.5c-0.7-0.2-1.3-0.6-1.8-1.1v0.4c0,0.2,0,0.5,0,0.7h-0.8c0-0.2,0-0.6,0-0.7V4.5
				c-0.6,0.4-1.2,0.8-1.9,1l-0.4-0.4v0.6h5.5V1h-5.5v4c0.8-0.1,1.5-0.4,2.1-0.9c-0.3,0-0.9,0-1.2,0c0-0.1,0-0.3,0-0.4V3.3
				c0-0.1,0-0.3,0-0.4c0.3,0,0.9,0,1.2,0L48.5,2.9 M48.7,0.5c0.7,0,2,0,2.7,0c0,0.6,0,1.1,0,1.7v2.6c0,0.4,0,1.5,0.1,1.9h-0.9
				c0-0.1,0-0.2,0-0.3h-5.4c0,0.1,0,0.2,0,0.3h-0.9c0-0.3,0-1,0-1.5V2c0-0.5,0-1,0-1.6c0.5,0,1.8,0,2.5,0L48.7,0.5 M46.7,3.3v0.3
				h2.3V3.3H46.7 M48.2,1.1c0.1,0,0.2,0,0.2,0.1s0,0.1-0.2,0.2v0h0.3c0.4,0,1.1,0,1.4,0v0.5c-0.2,0-0.9,0-1.4,0h-0.3v0.2h0.5
				c0.5,0,1.4,0,1.7,0v0.6c-0.2,0-1.2,0-1.7,0H47c-0.5,0-1.4,0-1.7,0V2c0.3,0,1.2,0,1.7,0h0.5V1.9h-0.3c-0.4,0-1.1,0-1.3,0V1.4
				c0.2,0,1,0,1.3,0h0.3c0-0.1,0-0.2,0-0.3L48.2,1.1L48.2,1.1z"/>
			<path class="st2" d="M58.5,3h-1.6V2.4h1.6V3 M60.4,6c-1.1-0.2-2.1-0.7-2.8-1.5h0.2c0.3,0,0.9,0,1.5,0c0-0.3,0-0.7,0-0.9V2.8
				c0-0.2,0-0.6,0-0.9c-0.5,0-1.1,0-1.7,0h-0.7V1.5h0.9c0.6,0,1.6,0,2.6,0.1V0.8c-0.8,0-1.7,0.1-2.6,0.1h-0.9c0-0.1,0-0.2,0-0.3
				c0.2-0.1,0.3-0.1,0.3-0.2c0-0.1-0.1-0.1-0.2-0.1l-0.9-0.1c0,0.2,0,0.4,0,0.7h-0.9c-0.9,0-1.6,0-2.5-0.1v0.7
				c0.9,0,1.6-0.1,2.5-0.1h0.9v0.5h-0.7c-0.5,0-0.9,0-1.7,0c0,0.2,0,0.6,0,0.8v0.8c0,0.3,0,0.7,0,1c0.5,0,1.2,0,1.6,0
				c-0.7,0.8-1.6,1.3-2.6,1.5l0.5,0.5c1.1-0.4,2.1-1,2.8-1.8h0c0,0.6,0,1.3-0.1,1.9H57c0-0.4,0-0.9,0-1.9h0c0.8,0.9,1.8,1.5,3,1.8
				L60.4,6 M58.5,4h-1.6V3.5h1.6V4 M56.2,4h-1.6V3.5h1.6V4 M56.2,3h-1.6V2.4h1.6V3z"/>
			<path class="st2" d="M67,6.7c0.8-0.6,1.3-1.6,1.4-2.6c0-0.4-0.1-0.8-0.4-1.2c0-0.2,0.1-0.7,0.1-1c0.9-0.1,2.2,0,2.7,0l0-0.7
				c-0.9,0.1-1.8,0.2-2.7,0.2c0-0.2,0-0.5,0.1-0.7c0.2-0.1,0.3-0.2,0.3-0.2s-0.1-0.1-0.2-0.1l-1.1,0c0.1,0.4,0.1,0.8,0.1,1.1
				c-1.3,0-2.9,0.1-3.5,0l0.1,0.7C64.5,2.1,66.4,2,67.3,2c0,0.2,0,0.5,0,0.6c-0.1,0-0.3,0-0.5,0c-0.7,0-1.3,0.6-1.3,1.3
				c0,0.6,0.5,1.2,1.1,1.2c0,0,0.1,0,0.1,0c0.2,0,0.4-0.1,0.7-0.2c-0.1,0.6-0.5,1-1.4,1.4L67,6.7 M66.9,3.2c0.3,0,0.6,0.3,0.6,0.6v0
				c0.1,0.3-0.2,0.6-0.5,0.7c0,0-0.1,0-0.1,0c-0.3,0-0.5-0.2-0.5-0.5c0,0,0,0,0,0C66.3,3.5,66.5,3.2,66.9,3.2L66.9,3.2L66.9,3.2z"/>
			<path class="st2" d="M78.3,0.3C78.5,0.5,78.8,0.7,79,1l0.5-0.2c-0.2-0.3-0.5-0.5-0.8-0.7L78.3,0.3 M75,6.8
				c0.8-0.6,1.3-1.6,1.4-2.6c0-0.4-0.1-0.8-0.3-1.1c0-0.3,0-0.7,0-1c0.9,0,1.9,0,2.7,0V1.4c-0.9,0.1-1.8,0.1-2.7,0.1
				c0-0.2,0-0.5,0.1-0.7c0.2-0.1,0.3-0.1,0.3-0.2c0-0.1-0.1-0.1-0.2-0.1l-1.1-0.1c0.1,0.4,0.1,0.7,0.1,1.1c-1.1,0.1-2.4,0.1-3.5,0.1
				l0.1,0.7c1.1-0.2,2.3-0.2,3.4-0.2c0,0.2,0,0.5,0,0.6c-0.1,0-0.3,0-0.4,0c-0.8,0-1.4,0.6-1.4,1.3c0,0.6,0.5,1.2,1.1,1.2
				c0,0,0.1,0,0.1,0c0.2,0,0.5-0.1,0.7-0.2h0c-0.3,0.6-0.8,1.1-1.4,1.4L75,6.8 M74.9,3.4c0.3,0,0.5,0.3,0.5,0.7
				c0,0.3-0.2,0.6-0.6,0.7h0c-0.3,0-0.6-0.2-0.6-0.5c0,0,0-0.1,0-0.1C74.2,3.6,74.5,3.4,74.9,3.4 M76.9,0.4c0.3,0.2,0.6,0.4,0.8,0.7
				l0.5-0.3c-0.2-0.3-0.5-0.5-0.8-0.7L76.9,0.4L76.9,0.4z"/>
			<path class="st2" d="M80.2,3.2c0.5-0.1,1-0.2,1.5-0.3C81.4,4,80.7,5,79.8,5.8l0.8,0.3c0.8-1,1.5-2.1,1.9-3.4
				c0.3,0,0.6-0.1,0.9-0.1c0.3,0,0.5,0.2,0.5,0.7c0,0.6-0.2,1.1-0.4,1.6c-0.2,0.4-0.4,0.6-0.7,0.6c-0.3,0-0.6-0.1-0.8-0.2L82.2,6
				c0.2,0.1,0.5,0.1,0.8,0.1c0.5,0.1,1-0.2,1.2-0.6c0.4-0.7,0.6-1.5,0.6-2.3c0-0.7-0.4-1.2-1.1-1.2c-0.3,0-0.6,0-1,0.1
				c0.1-0.2,0.2-0.7,0.2-1c0.2-0.1,0.3-0.2,0.3-0.3S83.1,0.8,83,0.8l-1-0.1c0,0.5,0,1.1-0.2,1.6c-0.5,0.1-1.3,0.2-1.9,0.2L80.2,3.2
				 M85.7,4.1c0.7-0.1,1.1-0.4,1.1-0.8c0-0.5-0.3-0.9-1.5-1.8l-0.6,0.3c0.5,0.3,0.9,0.8,1.2,1.4c0,0.2-0.2,0.3-0.8,0.3L85.7,4.1
				L85.7,4.1z"/>
			<path class="st2" d="M89.3,0.9c0.2,0,0.2,0,0.2,0.1s0,0.1-0.3,0.2C89.1,1.5,89,1.7,89,2c-0.2,0.6-0.2,1.2-0.2,1.8
				c0,0.4,0.1,0.9,0.2,1.3c0.2-0.3,0.3-0.6,0.4-0.9l0.4,0.3c-0.2,0.5-0.4,1.1-0.4,1.6l-0.5,0.1C88.3,5.5,88,4.6,88,3.7
				c0-1,0.2-2,0.4-2.9L89.3,0.9 M93,0.6c0.2,0,0.3,0,0.3,0.1c0,0.1,0,0.1-0.2,0.2c0,0.2,0,0.2,0,0.9c0,0.1,0,0.2,0,0.2
				c0.4,0,0.8-0.2,1.2-0.3l0,0.6c-0.2,0-0.2,0.1-0.3,0.1c-0.1,0-0.7,0.2-0.8,0.2c0,0.2,0,0.3,0,0.6c0,2.1-0.7,2.8-1.3,3.3L91,6.1
				c1-0.7,1.5-1.8,1.4-2.9c0-0.2,0-0.3,0-0.5c-0.7,0.1-1.3,0.2-2,0.2l-0.1-0.6c0.2,0,0.3,0,0.5,0c0.5,0,1.1,0,1.6-0.1
				c-0.1-0.5-0.1-1.2-0.2-1.5L93,0.6L93,0.6z"/>
			<path class="st2" d="M99.3,0.3c-0.3,0-1,0-1.3-0.1v0.6c0.3,0,1-0.1,1.5-0.1h1.5c-0.3,0.2-0.5,0.4-0.8,0.5
				c-0.3-0.2-0.6-0.3-0.9-0.4l-0.6,0.5c0.4,0.1,0.8,0.4,1.2,0.6h-0.6c-0.3,0-1.1,0-1.4,0c0,0.3,0,0.9,0,1.1v1.4c0,0.4,0,0.9-0.1,1.3
				h0.9l0-0.3c0-0.3,0-0.5,0-0.9h1.2c0,0.4-0.1,0.9-0.1,1.1h0.9c0-0.2,0-0.8,0-1.1h1.2V5c0,0.3-0.1,0.3-0.2,0.3
				c-0.2,0-0.5,0-0.7-0.1l0.3,0.7c0.2,0,0.5,0,0.7,0c0.4,0,0.6-0.2,0.6-0.5V3.2c0-0.4,0-0.9,0-1.2c-0.4,0-0.9,0-1.4,0h-0.3
				c-0.1-0.1-0.2-0.2-0.3-0.3c0.6-0.4,1.2-0.8,1.8-1.2l-0.3-0.3c-0.3,0-1,0.1-1.4,0.1L99.3,0.3 M98.6,3.7h1.2v0.5h-1.2V3.7
				 M98.6,2.6h1.2v0.6h-1.2V2.6 M100.6,2.6h1.2v0.6h-1.2V2.6 M100.6,3.7h1.2v0.5h-1.2V3.7 M96,3.4c-0.2,0-0.4,0-0.6,0V4
				c0.2,0,0.3,0,0.5,0h0.5v1.5C96,5.7,95.7,5.9,95.2,6l0.3,0.7c0,0.1,0.1,0.1,0.1,0.1c0.1,0,0.2-0.1,0.2-0.2
				c0.3-0.2,0.6-0.4,0.9-0.5c0.3,0.4,0.8,0.6,1.3,0.6c0.3,0,4.3,0,4.9,0l0.3-0.8c-1.6,0.2-3.2,0.3-4.8,0.2c-0.8,0-1.3-0.2-1.4-0.9
				v-1c0-0.3,0-0.6,0-0.8c-0.2,0-0.4,0-0.7,0H96 M95.2,1.1c0.6,0.4,1,0.9,1.3,1.5l0.8-0.4c-0.3-0.6-0.8-1.1-1.3-1.5
				C95.9,0.7,95.2,1.1,95.2,1.1z"/>
			<path class="st2" d="M106.1,2.7c-0.4,0.6-0.7,1.3-0.9,2l-0.6,0.1c-0.5-1.4-0.6-2.8-0.1-4.2l1,0.2c0.1,0,0.1,0.1,0.1,0.1
				s-0.1,0.1-0.3,0.2c-0.3,0.5-0.4,1.1-0.4,1.8c0,0.5,0,0.6,0.1,0.6c0.1,0,0.2-0.1,0.2-0.1c0.2-0.4,0.4-0.7,0.6-1L106.1,2.7
				 M106.2,5.9c1.2-0.4,1.8-1.8,1.8-3.5c0-0.6-0.1-1.3-0.2-1.9l1,0.1c0.1,0,0.2,0,0.2,0.1c0,0.1-0.1,0.1-0.2,0.2
				c0.1,1.1,0,2.2-0.2,3.3c-0.2,0.9-0.8,1.6-1.5,2.2L106.2,5.9L106.2,5.9z"/>
			<path class="st2" d="M116.3,3.3h40.1v0.2h-40.1C116.3,3.4,116.3,3.3,116.3,3.3z"/>
		</g>
		<path class="st1" d="M224.8,19.4c0,0-0.1,0.1-0.2,0.2c-0.1,0.1-0.2,0.1-0.4,0.1h-0.8v-0.9h0.8c0.2,0,0.3,0,0.4,0.1
			c0.1,0.1,0.2,0.2,0.2,0.4C224.9,19.2,224.9,19.3,224.8,19.4z M225,20.3c-0.2-0.2-0.3-0.4-0.5-0.5l0,0c0.5-0.1,0.7-0.3,0.7-0.7
			c0-0.2,0-0.3-0.1-0.4c-0.1-0.1-0.2-0.2-0.3-0.3c-0.1-0.1-0.3-0.1-0.5-0.1h-1.2v2.7h0.4v-1.2h0.4c0.2,0,0.3,0,0.4,0.1
			c0.1,0.1,0.3,0.3,0.4,0.5l0.4,0.6h0.4L225,20.3"/>
		<path class="st1" d="M221.8,19.8c0,1.3,1,2.3,2.3,2.3c1.3,0,2.3-1,2.3-2.3s-1-2.3-2.3-2.3S221.8,18.5,221.8,19.8z M222.1,19.8
			c0-1.1,0.9-2.1,2.1-2.1c1.1,0,2.1,0.9,2.1,2.1s-0.9,2.1-2.1,2.1C223,21.8,222.1,20.9,222.1,19.8"/>
	</g>
</g>
</svg>
