<?xml version="1.0" encoding="UTF-8"?><svg id="_イヤー_2" xmlns="http://www.w3.org/2000/svg" viewBox="0 0 478.58 166.15"><g id="_イヤー_1-2"><g><g><path d="M410.66,143.56c0,11.32-9.25,20.58-20.57,20.58H85.92c-11.31,0-20.56-9.27-20.56-20.58s9.25-20.58,20.56-20.58H390.08c11.32,0,20.57,9.26,20.57,20.58" fill="none" stroke="#816021" stroke-miterlimit="10" stroke-width="4"/><path d="M410.66,143.56c0,11.32-9.25,20.58-20.57,20.58H85.92c-11.31,0-20.56-9.27-20.56-20.58s9.25-20.58,20.56-20.58H390.08c11.32,0,20.57,9.26,20.57,20.58" fill="#816021"/></g><path d="M382.01,150.87c.64,0,1.02,.17,1.02,.94,0,.98-.52,1.06-1.06,1.06h-2.19v-2h2.23Zm-3.18-.89v6.46h.95v-2.7h2.09c.51,0,1.11,0,1.11,1.04v.64c0,.12,0,.63,.1,1.02h.98c-.05-.18-.13-.46-.13-1.16v-.62c0-.64-.16-1.19-.91-1.36,.93-.27,1-1.08,1-1.59,0-1.07-.54-1.73-1.77-1.73h-3.42" fill="#fff"/><path d="M386.59,153.07h-.24c0,2.95-2.38,5.33-5.31,5.33s-5.33-2.38-5.33-5.33,2.38-5.31,5.33-5.32c2.93,0,5.31,2.39,5.31,5.32h.49c0-3.2-2.61-5.81-5.8-5.81s-5.83,2.61-5.83,5.81,2.62,5.81,5.83,5.81,5.8-2.6,5.8-5.81h-.24Z" fill="#fff"/><path d="M94.2,138v-5h3.79v-4.64h5v4.64h3.03v3.1c-.69,2.63-1.19,3.92-2.34,6.22,1.02,.86,1.22,1.05,2.44,2.21v6.92c-1.68-2.07-1.98-2.44-3.36-3.92v10.93h-5.1v-8.4c-1.29,1.28-2.01,1.81-3.59,2.7v-6.45c2.87-2.07,4.94-4.91,6.09-8.3h-5.96Zm12.55-9.06h17.35v4.28h-17.35v-4.28Zm17.42,15.31v8c.13,4.18-1.35,5.7-5.56,5.63h-11.85v-13.63h17.42Zm-16.43-9.78h15.15v8.59h-15.15v-8.59Zm5.47,14.65v-1.25h-1.91v1.25h1.91Zm0,4.38v-1.42h-1.91v1.42h1.91Zm4.51-13.86v-1.68h-4.91v1.68h4.91Zm1.38,9.48v-1.25h-1.91v1.25h1.91Zm0,4.38v-1.42h-1.91v1.42h1.91Z" fill="#fff"/><path d="M127.75,149.16c2.14-2.31,3-3.75,4.15-7.01h-3.82v-5.01h5.1v-2.7l-5.1,.13v-4.97c9.09-.23,10.93-.36,15.11-1.12v5.3c-2.14,.17-2.5,.2-4.71,.3v3.06h4.91v5.01h-4.91v.53l5.07,3.85v6.85l-5.07-4.61v9.62h-5.3v-8.17c-1.58,2.77-3.33,4.64-5.43,5.86v-6.92Zm16.69,4.28h7.11v-24.53h5.27v24.99c-.03,3.29-1.42,4.54-4.87,4.51h-7.51v-4.97Zm5.07-24.53v21.14h-5.07v-21.14h5.07Z" fill="#fff"/><path d="M165.93,134.9v-5.6h5.63v5.6h8.17v-5.6h5.86v5.6h5.7v5.33h-5.7v3.85c.17,8.63-4.64,13.5-13.07,13.27h-6.98v-5.3h7.44c4.77,.07,6.82-2.34,6.75-7.94v-3.89h-8.17v7.01h-5.63v-7.01h-5.47v-5.33h5.47Z" fill="#fff"/><path d="M202.27,142.28v3.98c0,3.33-.56,5.7-1.68,7.31-1.65,2.34-3.89,3.59-6.68,3.72v-5.66c2.01-.33,2.93-1.88,3-5.1v-4.25h5.37Zm-7.28-7.74h10.73v-5.14h5.8v5.14h2.4c.79,1.38,2.11,2.07,3.79,2.07s2.93-.69,3.89-2.07h1.19v5.17h-11.26v18.11h-5.8v-18.11h-10.73v-5.17Zm26.64-2.63c0,2.14-1.75,3.89-3.89,3.89s-3.89-1.75-3.89-3.92,1.75-3.85,3.95-3.85c2.07,0,3.82,1.78,3.82,3.89Zm-1.61,10.37v4.38c0,2.73,1.02,4.21,3.49,4.91v5.73c-6.03-.63-8.76-3.82-8.79-10.21v-4.81h5.3Zm-3.79-10.37c0,.82,.69,1.52,1.51,1.52s1.51-.69,1.51-1.55-.69-1.51-1.55-1.51c-.79,0-1.48,.69-1.48,1.55Z" fill="#fff"/><path d="M254.22,140.57v5.6h-26.97v-5.6h26.97Z" fill="#fff"/><path d="M264.89,128.78v8.79c7.67,1.84,10.47,2.63,15.31,4.31v6.09c-4.41-1.61-8.56-2.83-15.31-4.48v14.46h-6.03v-29.17h6.03Z" fill="#fff"/><path d="M284.73,140.01c3.69-.72,5.2-3.65,5.27-10.21h22.16v13.14c-.07,4.77-.72,7.34-2.5,9.71-2.3,3.06-5.33,4.38-10.21,4.48h-13.5v-5.4h11.33c6.62,.03,8.79-2.07,8.96-8.63v-7.67h-11.2c-.82,6.26-4.05,9.48-10.31,10.27v-5.7Z" fill="#fff"/><path d="M342.95,137.93c-.17,9.71-.99,12.94-4.05,15.97-3.09,2.8-6.55,3.62-15.54,3.69h-6.26v-5.76h5.47c11.99,.13,13.63-.86,14.16-8.53h-20.75v-5.37h26.97Zm-1.52-8.79v5.33h-24.1v-5.33h24.1Z" fill="#fff"/><path d="M346.48,131.25h21.11v2.37h4.68v10.17c-.03,4.64-1.38,8.2-3.89,10.41-3.1,2.7-5.8,3.39-13.07,3.46h-7.54v-5.56h7.54c8.3-.03,10.93-2.04,10.97-8.36v-6.98h-19.79v-5.5Zm25.09-3.69v5.04h-3.06v-5.04h3.06Zm4.08,0v5.04h-3.06v-5.04h3.06Z" fill="#fff"/><path d="M201.49,11.42c-3.78-1.38-9.23-5.88-10.74-7.99-1,1.7-5.53,6.5-10.74,8.31l-1.46-3.46c5.59-2.05,9.72-6.15,10.31-8.15h3.59c1.05,2.19,5.26,5.91,10.39,7.75l-1.35,3.54Zm-22.24,12.2v-3.24h3.67V11.26h3.24v9.12h3.24V6.61h3.24v5.4h6.78v3.19h-6.78v5.18h9.53v3.24h-22.92Z" fill="#005748"/><path d="M228.81,23.83c-3.72-1.08-6.24-2.56-8.69-4.64v5.1h-3.24v-5.1c-2.16,1.89-4.91,3.62-8.69,4.64l-1.84-3.16c3.16-.4,5.56-1.19,7.56-2.29h-6.64v-2.78h9.61v-1.16h-7.94v-2.56h7.94v-1.11h-8.8v-2.7h5.1c-.22-.59-.57-1.35-.84-1.75h-5.37V3.43h2.56c-.35-.67-.84-1.35-1.38-1.97l2.86-1.32c.67,.94,1.35,2.21,1.81,3.29h1.19V0h3.24V3.43h2.46V0h3.24V3.43h1.38c.57-.84,1.13-2.08,1.54-3.24l3,1.08c-.3,.78-.7,1.51-1.16,2.16h2.29v2.89h-5.29c-.11,.51-.35,1.13-.65,1.75h4.83v2.7h-8.77v1.11h7.88v2.56h-7.88v1.16h9.61v2.78h-6.64c1.84,1.11,4.4,1.92,7.56,2.29l-1.84,3.16Zm-12.98-17.52c.22,.46,.51,1.19,.65,1.75h4.26c.27-.54,.51-1.27,.62-1.75h-5.53Z" fill="#005748"/><path d="M237.21,14.52v-4.72h4.7v4.72h-4.7Z" fill="#005748"/><path d="M268.61,24.29v-1.08h-15.98v1.08h-3.29V.59h22.57V24.29h-3.29Zm0-20.57h-15.98V20.08h15.98V3.73Zm-10.34,12.17h1.38c2.46,0,2.48-.11,2.48-1.57v-4.37h-8.8v-3.13h8.8v-2.29h3.13v2.29h2.67v3.13h-2.67v4.43c0,3.99-.16,4.7-5.67,4.83l-1.32-3.32Zm-1.4,.24c-.67-1.46-1.4-2.73-2.38-4.08l2.59-1.73c.97,1.3,1.78,2.48,2.62,3.97l-2.83,1.84Z" fill="#005748"/><path d="M298.85,20.89c-.73-.73-1.54-1.73-2.05-2.54v2.08h-3.29v3.86h-3.32v-3.86h-3.16v-1.92c-.49,.84-1.19,1.59-1.89,2.4l-2.16-3.24c2.83-2.75,5.32-6.72,6.64-9.85h-5.48v-2.89c-.3,.65-.86,1.65-1.21,2.21V24.29h-3.32V10.93c-.73,1-1.65,1.81-2.24,2.27l-1.08-4.16c2.13-1.7,4.7-5.1,5.97-9.04l3.37,.94c-.38,1.35-.84,2.48-1.35,3.59h5.91V0h3.32V4.53h6.42v3.29h-6.13c1.43,3.16,4.1,7.21,7.15,9.77l-2.11,3.29Zm-8.67-9.26c-.54,1.89-1.38,3.94-2.48,5.75h2.48v-5.75Zm5.99,5.75c-1.03-1.57-2.11-4-2.67-5.75v5.75h2.67Z" fill="#005748"/><rect x="119.23" y="12.68" width="43.51" height="1.15" fill="#005748"/><rect x="315.98" y="12.68" width="43.51" height="1.15" fill="#005748"/><path d="M10.55,96.99c-4.62,1.07-9.24-1.66-10.32-6.16-1.09-4.49,1.84-9.04,6.56-10.13,4.72-1.09,9.34,1.72,10.34,6.23,1,4.51-1.95,8.99-6.57,10.06Z" fill="#005748"/><path d="M26.87,96.06c-.68-3.15-1.35-6.3-2.03-9.45-.73,.82-1.55,1.65-2.47,2.48-.61-.99-1.23-1.99-1.84-2.98,4.23-3.72,5.6-6.47,6.12-7.77-2.11,.44-4.22,.9-6.32,1.35-.23-1.04-.45-2.08-.68-3.12,1.01-.22,2.01-.44,3.02-.65-.25-1.17-.5-2.34-.75-3.52,1.11-.24,2.22-.47,3.33-.71l.74,3.52c1.18-.25,2.36-.5,3.55-.74,.19,.91,.38,1.82,.57,2.73,0,0-.59,2.26-2.08,4.96,.94,.52,2.91,1.12,4.36,1.4-.23,1.16-.47,2.33-.7,3.49-1.19-.41-2.77-1.34-3.76-2.12,.73,3.48,1.47,6.95,2.2,10.43-1.09,.23-2.17,.46-3.26,.69Zm5.54-1.72l-.67-3.21c1.93-.4,3.86-.8,5.79-1.19-.62-3.09-1.25-6.17-1.87-9.26-1.56,.32-3.11,.63-4.67,.96-.22-1.07-.44-2.14-.66-3.21,1.56-.32,3.12-.64,4.68-.96-.5-2.49-1.01-4.98-1.51-7.47,1.17-.24,2.34-.47,3.51-.7,.5,2.49,.99,4.98,1.49,7.48,1.59-.32,3.18-.63,4.77-.94,.21,1.07,.42,2.14,.62,3.21-1.59,.31-3.17,.62-4.76,.93,.61,3.09,1.23,6.18,1.84,9.27,1.8-.36,3.59-.71,5.39-1.06l.62,3.21c-4.86,.94-9.72,1.91-14.57,2.93Z" fill="#005748"/><path d="M74.18,87.08c-3.95,.35-7.53-.23-9.32-.84,.44-.68,.88-1.35,1.33-2.03-2.41,.42-4.82,.84-7.23,1.27,.65,.48,1.29,.97,1.94,1.45-1.77,1.35-4.7,2.94-8.47,3.98-.67-.91-1.33-1.83-2-2.74,2.67-.56,6.47-1.86,7.42-2.49-1.88,.34-3.76,.69-5.64,1.04-.75-4-1.5-8-2.25-12,6.99-1.31,13.99-2.54,21-3.71,.67,4.02,1.33,8.03,2,12.05-1.78,.29-3.55,.59-5.33,.9,1.2,.28,4.83,.3,7.51-.06-.32,1.06-.64,2.12-.95,3.18Zm-23.43-13.46c-.38-2.03-.76-4.06-1.13-6.1,6.4-1.19,12.8-2.32,19.21-3.39,.34,2.04,.68,4.08,1.02,6.12-6.37,1.06-12.74,2.19-19.1,3.37Zm17.33,.41c-4.79,.81-9.59,1.66-14.37,2.54l.18,.98c4.78-.88,9.57-1.72,14.36-2.53l-.17-.98Zm.51,3.04c-4.78,.81-9.56,1.65-14.33,2.53l.18,.98c4.77-.88,9.54-1.72,14.31-2.53l-.17-.98Zm.51,3.04c-4.77,.81-9.53,1.65-14.28,2.52l.18,1c4.75-.87,9.51-1.71,14.27-2.52l-.17-1.01Zm-3.16-12.83c-4.18,.71-8.36,1.45-12.54,2.21l.21,1.14c4.17-.76,8.34-1.5,12.52-2.21l-.19-1.14Z" fill="#005748"/><path d="M81.11,76.13c-.24-1.55-.48-3.09-.73-4.64,1.6-.25,3.19-.5,4.79-.74,.23,1.55,.47,3.1,.7,4.64-1.59,.24-3.18,.49-4.77,.73Z" fill="#005748"/><path d="M109.4,79.76c.28-.23,.47-.44,.72-.66-1.16,.15-2.33,.3-3.49,.45l.25,1.86c-1,.13-2,.26-2.99,.4-.52-3.82-1.03-7.64-1.55-11.46,2.54-.34,5.08-.68,7.62-1,.37,2.93,.74,5.86,1.12,8.79,.67-.65,.92-1.28,1.39-1.96-.84-2.25-1.35-5.21-1.83-8.1-2.98,.38-5.95,.77-8.93,1.17-.13-.98-.26-1.95-.4-2.93,.43-.06,.87-.12,1.3-.17-.26-.82-.52-1.65-.78-2.47-.19,.03-.39,.05-.58,.08l-.2-1.46c-.31,.04-.63,.08-.94,.13,.92,6.78,1.84,13.56,2.76,20.35-.98,.13-1.96,.27-2.93,.4l-.51-3.64c-2.28,1.18-4.7,1.96-4.7,1.96-.36-1.08-.72-2.16-1.08-3.23,0,0,.54-.11,1.21-.28-.69-4.84-1.39-9.69-2.08-14.53-.3,.04-.61,.09-.91,.13-.14-.98-.28-1.97-.42-2.95,3.16-.46,6.32-.9,9.48-1.32l.22,1.62c.69-.09,1.39-.19,2.08-.28l-.3-2.29c1.1-.15,2.21-.29,3.31-.43,.1,.76,.2,1.53,.3,2.29,.79-.1,1.57-.2,2.36-.3,.12,.93,.24,1.86,.36,2.8-.23,.03-.46,.06-.69,.09-.04,.86-.08,1.72-.12,2.59,.58-.07,1.16-.15,1.74-.22-.32-2.53-.64-5.06-.96-7.59,1.01-.13,2.02-.25,3.04-.38l.26,2.08c.58-.52,1.17-1.05,1.76-1.57,1.03,1.69,2.32,4.29,2.32,4.29-.68,.62-1.35,1.24-2.02,1.87,0,0-.95-2.24-2.02-4.27,.21,1.68,.5,3.81,.67,5.19,1.11-.14,2.21-.27,3.32-.4l.35,2.93c-1.08,.13-2.17,.26-3.25,.4,.14,1.15,.5,3.62,.62,4.55,.48-2.01,.56-4.31,.56-4.31,.89,.39,1.77,.78,2.66,1.17,0,0-.54,3.44-1.93,6.83,.2,.54,.38,.87,.55,.85,.25-.03,.45-.84,.74-2.85,.54,.99,1.07,1.98,1.61,2.97-.35,2.39-1.13,3.92-2.14,4.04-.71,.09-1.49-.47-2.35-1.82-.48,.82-.95,1.71-1.55,2.41-1-.6-1.99-1.19-2.99-1.78Zm-12.29-16.93c-.46,.06-.92,.13-1.39,.19,.12,.87,.24,1.74,.37,2.6,.46-.06,.92-.13,1.38-.19-.12-.87-.24-1.74-.36-2.6Zm.75,5.4c-.46,.06-.92,.13-1.38,.19l.38,2.74c.46-.06,.92-.13,1.38-.19l-.38-2.74Zm.77,5.53c-.46,.06-.91,.13-1.37,.19l.45,3.22c.48-.15,.93-.29,1.33-.48l-.41-2.92Zm8.85-1.7c-.7,.09-1.41,.18-2.11,.28l.18,1.36c.7-.09,1.41-.19,2.11-.28l-.18-1.36Zm.44,3.41c-.7,.09-1.4,.18-2.11,.28l.19,1.44c.7-.09,1.4-.18,2.1-.28l-.19-1.44Zm-1.94-12.33c-.52,.07-1.03,.14-1.55,.2,.23,.83,.46,1.65,.69,2.48,.28-.04,.55-.07,.83-.11,0-.86,.02-1.72,.03-2.58Z" fill="#005748"/><path d="M146.25,77.82c-3.95,.07-7.48-.77-9.21-1.51,.49-.64,.98-1.29,1.46-1.93-2.43,.24-4.85,.49-7.28,.75,.61,.53,1.22,1.06,1.83,1.59-1.86,1.22-4.88,2.6-8.71,3.36-.6-.96-1.19-1.92-1.79-2.87,2.7-.37,6.57-1.39,7.56-1.95-1.9,.2-3.79,.42-5.69,.63-.46-4.04-.92-8.09-1.38-12.13,7.05-.8,14.1-1.53,21.16-2.18,.38,4.05,.75,8.11,1.13,12.16-1.79,.17-3.58,.34-5.37,.51,1.17,.37,4.79,.64,7.48,.48-.39,1.03-.79,2.07-1.18,3.1Zm-22.36-15.11c-.23-2.05-.46-4.11-.69-6.16,6.45-.73,12.9-1.39,19.36-2,.19,2.06,.39,4.12,.58,6.17-6.42,.6-12.83,1.26-19.24,1.99Zm17.21,1.66c-4.83,.46-9.66,.96-14.48,1.49l.11,.99c4.82-.53,9.64-1.03,14.47-1.49l-.09-.99Zm.3,3.07c-4.81,.46-9.63,.96-14.44,1.49l.11,.99c4.8-.53,9.61-1.03,14.42-1.49l-.09-.99Zm.3,3.07c-4.8,.46-9.6,.96-14.39,1.49l.11,1.01c4.79-.53,9.58-1.02,14.38-1.48l-.1-1.01Zm-2.23-13.02c-4.21,.41-8.42,.84-12.63,1.3l.13,1.15c4.2-.46,8.41-.89,12.62-1.3l-.11-1.15Z" fill="#005748"/><path d="M167.07,61.5s-5.49,1.57-11.25,2.55c-.31-1.02-.63-2.03-.95-3.05,.55-.05,1.22-.15,1.79-.28-.21-2.67-.43-5.33-.64-8,1.12-.09,2.24-.18,3.35-.26,.05,.69,.11,1.37,.16,2.06,2.17-.17,4.33-.33,6.5-.48,.07,.99,.14,1.98,.21,2.97-2.16,.15-4.32,.31-6.48,.48,.07,.86,.13,1.71,.2,2.57,3.19-.57,6.9-1.51,6.9-1.51,.07,.98,.14,1.96,.21,2.95Zm7.88,14.08l-.07-1.07c-4.39,.28-8.77,.59-13.15,.92l.08,1.07c-1.09,.08-2.18,.17-3.28,.26-.32-3.98-.64-7.96-.95-11.93,2.38-.19,4.75-.37,7.13-.55,.38-.86,.53-1.87,.53-1.87,1.36,.07,2.72,.15,4.08,.22,0,0-.25,.8-.63,1.36,2.94-.2,5.88-.39,8.82-.57,.24,3.98,.48,7.97,.72,11.95-1.09,.07-2.19,.13-3.28,.2Zm-.59-9.27c-4.42,.28-8.84,.59-13.26,.93,.04,.47,.07,.95,.11,1.42,4.41-.34,8.83-.65,13.24-.93-.03-.47-.06-.95-.09-1.42Zm.25,3.96c-4.4,.28-8.81,.59-13.21,.93l.12,1.58c4.39-.34,8.79-.65,13.19-.93-.03-.53-.07-1.05-.1-1.58Zm-4.14-7.83c-1.77,.12-2.68-.09-2.78-1.59-.21-2.99-.42-5.98-.63-8.97,1.12-.08,2.24-.15,3.36-.23,.06,.88,.12,1.77,.18,2.65,3.25-.89,6.14-2.65,6.14-2.65,.82,.81,1.63,1.62,2.44,2.44,0,0-4.05,2.14-8.38,3.27l.12,1.74c.02,.35,.25,.33,.55,.31,.91-.06,1.81-.12,2.72-.18,1.81-.11,1.91-.23,1.97-3.27,1.12,.42,2.23,.85,3.35,1.28-.45,4.33-1.06,4.68-3.67,4.84-1.79,.11-3.58,.23-5.37,.35Z" fill="#005748"/><path d="M207.41,73.07c-1.83-1.5-3.35-3.27-4.44-5.44l.05,1.37c.16,4.53-.29,5.08-4.68,5.36-.42-.96-.85-1.92-1.27-2.88-.82,.71-1.38,1.11-2.8,1.95-.63-.97-1.26-1.93-1.89-2.9,3.26-1.41,5.84-3.85,5.84-3.85,.5,.69,.99,1.37,1.49,2.06l-.23-5.85c-1.83,.07-3.65,.15-5.48,.23-.02-.47-.04-.95-.06-1.42-.42,1.08-.85,2.15-1.27,3.23-.53-1.27-1.1-2.85-1.6-4.63,.22,4.78,.45,9.56,.67,14.34-1.09,.05-2.19,.1-3.28,.16-.21-4.22-.42-8.44-.64-12.65-.51,2.63-1.15,4.73-2.03,6.72-.49-1.44-.98-2.89-1.47-4.33,1.1-1.65,2.4-4.4,2.99-6.53-.89,.04-1.78,.09-2.67,.14-.05-1.03-.11-2.05-.16-3.08,.99-.05,1.99-.1,2.98-.15-.07-1.41-.14-2.82-.21-4.24,1.12-.06,2.24-.11,3.36-.16,.07,1.41,.13,2.82,.2,4.24,.85-.04,1.69-.08,2.54-.12,.05,1.03,.09,2.06,.14,3.08-.76,.03-1.52,.07-2.28,.1,.87,1.3,1.92,2.52,2.7,3.18l-.03-.72c1.83-.08,3.66-.16,5.49-.23-.01-.38-.03-.75-.04-1.13-1.54,.06-3.07,.12-4.61,.19-.04-.88-.08-1.77-.12-2.65,1.54-.07,3.08-.13,4.62-.19l-.04-1.15c-1.8,.07-3.6,.14-5.41,.22l-.12-2.71c.76-.03,1.53-.07,2.29-.1-.27-.36-.59-.73-.94-1.12,1-.41,2-.82,3.01-1.23,.59,.81,1.16,1.67,1.43,2.2,.92-.04,1.84-.07,2.77-.1,.32-.44,.8-1.24,1.24-2.3,1.11,.24,2.22,.48,3.33,.72-.26,.52-.58,1.01-.91,1.45,.84-.03,1.68-.05,2.51-.08,.03,.9,.05,1.81,.08,2.71-1.98,.06-3.96,.12-5.94,.19l.04,1.15c1.64-.06,3.29-.11,4.93-.16,.03,.89,.05,1.77,.08,2.66-1.64,.05-3.28,.11-4.92,.16l.04,1.13c2.03-.07,4.07-.14,6.1-.2l.08,2.84c-2.03,.06-4.06,.13-6.09,.2l.04,1.15c.33,.66,.76,1.21,1.19,1.73,1.23-1.06,2.18-2.68,2.18-2.68,.89,.56,1.77,1.13,2.65,1.69,0,0-1.35,1.81-3,3.02,1.14,1.04,2.37,1.83,3.52,2.47-.66,.97-1.32,1.94-1.97,2.91Zm-10.86-5.3c-1.65-1.22-3.35-2.03-3.35-2.03,.67-.85,1.34-1.71,2.02-2.56,0,0,1.42,.82,3.27,2.04-.65,.85-1.29,1.7-1.94,2.55Zm3.17,1.32c-.32,.31-1.24,1.31-2.18,1.97,2.22-.09,2.24-.36,2.18-1.86v-.11Z" fill="#005748"/><path d="M222.41,67.61h.29c4.77-.08,7.1-3.31,7.08-6.39-.02-2.58-1.69-5.05-5.02-5.46-.64,3.96-2.13,8.83-3.44,11.09-1.13,1.93-2.52,2.82-3.84,2.85-2.9,.06-4.22-3.62-4.3-6.38-.14-5.23,3.71-10.05,10.09-10.15,6.17-.09,9.46,3.74,9.48,8.12,.02,4.17-2.92,8.47-8.49,9.11-.61-.93-1.23-1.86-1.85-2.78Zm-6.38-4.26c.01,.64,.1,1.26,.28,1.82,.31,.94,.69,1.4,1.16,1.39,1.52-.03,3.51-5.63,4.25-10.73-4,.8-5.76,4.5-5.69,7.52Z" fill="#005748"/><path d="M256.56,73.69l.02-1.4c-2.82-.05-5.65-.08-8.47-.11,0,.47,0,.93-.01,1.4-1.06,0-2.12-.02-3.17-.02,.02-3.39,.04-6.78,.06-10.17-.37,.79-.75,1.59-1.12,2.38-.77-.89-1.29-1.7-1.87-2.91,0,3.56-.02,7.12-.03,10.68-1.09,0-2.17,0-3.26,0,0-3.15,0-6.3,0-9.45-.72,.67-1.19,1.21-2.07,1.8-.41-1.1-.82-2.2-1.23-3.3,4.2-2.64,5.57-5.21,6.18-6.39-1.8,0-3.6,0-5.4,0,0-1.04,0-2.08,0-3.11,.93,0,1.86,0,2.79,0v-3.7c1.13,0,2.26,0,3.39,0,0,1.23,0,2.47-.01,3.7,.92,0,1.84,0,2.76,.01l-.02,2.66s-.96,2.44-2.58,4.39c.75,.78,1.55,1.46,2.46,2.08v-.75c5,.03,9.99,.09,14.99,.19-.08,4.03-.16,8.05-.24,12.08-1.06-.02-2.12-.04-3.17-.06Zm-11.32-20.69c0-.99,.01-1.99,.02-2.98,4.99,.03,9.99,.09,14.98,.19-.02,.99-.04,1.99-.06,2.98-4.98-.1-9.96-.17-14.94-.19Zm.82,7.31c.01-2.08,.03-4.15,.04-6.23,4.33,.03,8.67,.08,13,.17-.04,2.08-.08,4.15-.12,6.23-4.31-.08-8.61-.14-12.92-.17Zm4.89,3.86c-.94-.01-1.88-.02-2.82-.03,0,.51,0,1.02-.01,1.53,.94,0,1.88,.02,2.81,.03,0-.51,.01-1.02,.02-1.53Zm-.04,3.86c-.94-.01-1.87-.02-2.81-.03,0,.54,0,1.07-.01,1.61,.93,0,1.87,.02,2.8,.03,0-.54,.01-1.07,.02-1.61Zm4.92-11.37c-2.17-.03-4.34-.06-6.51-.08v1.29c2.16,.02,4.32,.05,6.49,.08,0-.43,.01-.86,.02-1.29Zm.96,7.59c-.94-.02-1.88-.03-2.82-.04,0,.51-.01,1.02-.02,1.53,.94,.01,1.88,.03,2.81,.04l.03-1.53Zm-.07,3.86c-.94-.02-1.87-.03-2.81-.04,0,.54-.02,1.07-.02,1.61,.93,.01,1.87,.03,2.8,.04l.03-1.61Z" fill="#005748"/><path d="M269.83,74c.1-3.44,.21-6.89,.31-10.33-.82,2.28-2.45,5.3-3.89,6.82-.62-1.31-1.23-2.63-1.85-3.94,1.85-1.38,4.39-4.23,5.55-6.51-1.53-.05-3.05-.09-4.58-.13,.03-1.04,.05-2.07,.08-3.11,1.63,.04,3.26,.09,4.9,.14,.03-.95,.06-1.9,.09-2.84-1.31,.07-2.74,.11-4.19,.1-.17-1.12-.33-2.25-.5-3.37,7.44,.19,11.37-.74,11.37-.75,.45,1.09,.89,2.18,1.34,3.27,0,0-1.91,.3-4.8,.53-.04,1.06-.07,2.11-.11,3.17,1.68,.06,3.36,.12,5.03,.18-.04,1.04-.08,2.07-.12,3.11-1.51-.06-3.01-.11-4.52-.16,1.21,1.95,3.34,4.25,4.66,5.19-.6,1.28-1.2,2.55-1.8,3.83-1.26-1.58-2.74-4.23-3.44-6.57-.13,3.83-.25,7.65-.38,11.48-1.05-.03-2.1-.07-3.15-.1Zm9.78-5.46c.22-5.58,.44-11.16,.66-16.73,1.1,.04,2.2,.09,3.3,.14-.24,5.58-.48,11.16-.72,16.73-1.08-.05-2.16-.09-3.25-.13Zm1.36,2.42c.48,.02,.97,.04,1.45,.06,2.47,.11,2.56,0,2.61-1.2,.29-6.46,.58-12.92,.87-19.39,1.14,.05,2.28,.1,3.42,.16-.31,6.51-.63,13.01-.94,19.52-.19,3.89-.44,4.59-6.18,4.34-.41-1.16-.82-2.33-1.23-3.49Z" fill="#005748"/><path d="M299,54.68c-.08,1.45-.17,2.89-.25,4.34-.33,5.65-1.2,12.62-3.18,16.06-.86-1.12-1.72-2.25-2.59-3.37,1.41-3.2,2.03-8.06,2.3-12.89,.13-2.42,.26-4.84,.4-7.26,7.66,.42,15.33,.92,22.98,1.51-.07,.97-.15,1.94-.22,2.92-6.47-.5-12.95-.93-19.43-1.31Zm10.97,17.43c-.26,3.75-1.07,3.57-6.86,3.45-.34-.92-.69-1.84-1.04-2.75,.5,.03,1,.06,1.51,.09,2.69,.17,2.99,.11,3.07-1.01-2.88-.19-5.76-.37-8.64-.54,.05-.84,.1-1.68,.15-2.52,2.9,.17,5.79,.35,8.69,.54l.07-.99c.22,.01,.44,.03,.66,.04,0,0,1.76-.23,3.28-.58-3.67-.26-7.35-.5-11.02-.71,.04-.74,.09-1.48,.13-2.22,5.56,.33,11.12,.71,16.67,1.13-.05,.7-.11,1.41-.16,2.11-1.73,.49-4.34,1.1-6.47,1.44,2.58,.18,5.15,.37,7.72,.57-.06,.84-.13,1.68-.19,2.52-2.52-.19-5.04-.38-7.57-.56Zm-10.16-8.4l.46-7.74c5.8,.34,11.6,.74,17.4,1.18-.2,2.58-.39,5.16-.59,7.73-5.75-.44-11.51-.83-17.27-1.17Zm14.38-4.86c-3.57-.26-7.13-.5-10.7-.72-.02,.34-.04,.68-.06,1.02,3.56,.22,7.13,.46,10.69,.72,.02-.34,.05-.68,.07-1.02Zm-.2,2.7c-3.56-.26-7.11-.5-10.67-.72-.02,.37-.05,.75-.07,1.12,3.55,.22,7.11,.46,10.66,.72l.08-1.12Z" fill="#005748"/><path d="M322.17,76.37c.09-1.1,.18-2.19,.27-3.29,3.56,.29,7.12,.6,10.68,.93,.16-1.72,.32-3.44,.48-5.16-2.66-.25-5.32-.48-7.98-.71,.09-1.1,.19-2.19,.28-3.29,2.67,.23,5.34,.46,8.01,.71,.14-1.51,.28-3.03,.42-4.54-1.99-.18-3.98-.36-5.96-.54-.97,1.48-2.02,2.74-3.32,3.95-.8-.96-1.6-1.91-2.41-2.86,4.1-3.43,5.83-8.08,5.83-8.08,1.09,.41,2.18,.82,3.27,1.23,0,0-.64,1.51-1.39,2.63,1.43,.13,2.86,.26,4.29,.39l.36-3.93c1.23,.11,2.46,.23,3.69,.35-.13,1.31-.25,2.62-.38,3.93,2.91,.28,5.82,.57,8.73,.88l-.34,3.28c-2.9-.3-5.8-.6-8.7-.88-.15,1.51-.29,3.03-.44,4.54,2.7,.26,5.39,.53,8.09,.81-.11,1.09-.23,2.19-.34,3.28-2.69-.28-5.37-.55-8.06-.81-.17,1.72-.33,3.44-.5,5.16,3.24,.31,6.48,.64,9.72,.98-.12,1.09-.23,2.19-.35,3.28-7.97-.84-15.95-1.59-23.94-2.25Z" fill="#005748"/><path d="M357.46,77.18c7.3-.62,9.28-5.01,9.94-10.28-2.17-.27-4.34-.54-6.52-.8-.29,2.4-.55,4.83-.67,6.33-1.27-.13-2.55-.27-3.82-.39,.2-1.46,.5-3.86,.79-6.37-2.29-.26-4.29-.46-5.53-.57,.13-1.14,.25-2.28,.38-3.41,1.33,.17,3.29,.42,5.57,.68,.26-2.24,.47-4.3,.54-5.42,1.29,.17,2.58,.34,3.87,.51-.16,1.12-.45,3.11-.72,5.35,2.18,.26,4.36,.53,6.54,.8,.23-1.81,.45-3.62,.66-5.46,1.25,.16,2.51,.32,3.76,.48-.29,1.78-.52,3.59-.76,5.42,2.35,.3,4.43,.58,5.87,.75l-.46,3.4c-1.34-.24-3.41-.51-5.81-.82-1.04,7.99-4.72,11.91-10.79,13.29-.94-1.16-1.88-2.32-2.82-3.47Z" fill="#005748"/><path d="M403.68,76.28c-2.95-.56-7.35-1.29-11.71-1.94-4.36-.66-8.67-1.25-11.48-1.56,.17-1.2,.33-2.39,.5-3.59,2.56,.38,6.33,.95,10.26,1.54,4.76,.71,9.74,1.47,13.02,1.98-.19,1.19-.39,2.38-.58,3.58Z" fill="#005748"/><path d="M427.32,89.2c-2.68-.34-6.63-.96-10.58-1.66-7.1-1.25-8.81-1.66-8.15-5.63l.07-.4c.34-1.71,1.07-5.7,1.73-9.59,.43-2.57,.83-5.11,1.05-6.9,1.3,.25,2.59,.51,3.89,.77-.54,2.11-1.11,4.93-1.65,7.75,4.18-.13,10.46-.69,14.29-1.99,.69,1.16,1.37,2.33,2.05,3.5-5.6,1.07-11.99,1.56-16.92,1.72-.17,1.01-.36,1.95-.52,2.85-.15,.9-.26,1.7-.39,2.41-.18,1.22,.3,1.36,1.68,1.63,.53,.09,1.07,.19,1.6,.28,3.07,.54,8.98,1.53,12.98,1.66-.38,1.2-.75,2.41-1.13,3.61Zm2.03-17.1c-.63-1.07-1.46-2.24-2.27-3.26,.61-.32,1.22-.65,1.84-.97,.85,.98,1.7,2.09,2.38,3.18-.65,.35-1.29,.7-1.94,1.06Zm3.11-.91c-.62-1.08-1.39-2.15-2.28-3.19,.6-.31,1.2-.61,1.8-.92,.88,.96,1.68,2.04,2.36,3.07-.63,.34-1.26,.69-1.88,1.03Z" fill="#005748"/><path d="M452.87,95.02c-1.53-2.86-3.9-6.05-6.27-8.43-3.07,2.08-6.72,3.85-11.12,5.23-.86-1.13-1.73-2.25-2.6-3.38,9.66-1.87,16.03-7.31,18.7-11.28-3.67-.78-9.54-1.89-12.37-2.28,.23-1.2,.46-2.41,.69-3.61,1.8,.44,4.3,.99,7,1.54,2.73,.56,5.62,1.11,8.2,1.58,.58,.7,1.16,1.4,1.73,2.1-2.16,2.97-4.57,5.66-7.45,8.02,2.72,2.74,5.57,5.99,7.32,8.46-1.28,.68-2.56,1.37-3.83,2.05Z" fill="#005748"/><path d="M468.03,96.99c-4.62-1.07-7.57-5.55-6.57-10.06,.99-4.51,5.62-7.32,10.34-6.23,4.72,1.09,7.65,5.64,6.56,10.13-1.09,4.49-5.7,7.22-10.32,6.16Z" fill="#005748"/><path d="M472.61,113.73c-153.06-36.71-312.62-36.78-465.71-.22l-.25-1.03c153.25-36.6,312.98-36.52,466.2,.22-.08,.34-.16,.69-.25,1.03Z" fill="#005748"/></g></g></svg>