<?xml version="1.0" encoding="UTF-8"?><svg id="_イヤー_2" xmlns="http://www.w3.org/2000/svg" viewBox="0 0 216.88 53.05"><defs><style>.cls-1{fill:#f5f3eb;}.cls-2{fill:#711e75;}.cls-3{stroke-width:.99px;}.cls-3,.cls-4{fill:none;stroke:#711e75;}.cls-4{stroke-width:.08px;}</style></defs><g id="main"><g><g><path class="cls-2" d="M190.89,41.95c-.06,.1-.14,.17-.22,.2-.13,.06-.32,.09-.56,.09h-1v-1.17h1.11c.19,0,.35,.04,.48,.1,.18,.09,.27,.26,.27,.47,0,.11-.03,.22-.08,.3m.24,1.3c-.21-.31-.43-.52-.67-.64h0c.66-.09,.99-.41,.99-.96,0-.19-.05-.37-.14-.52-.09-.17-.23-.28-.39-.34-.18-.07-.41-.1-.72-.1h-1.56v3.52h.47v-1.55h.53c.22,0,.38,.04,.48,.12,.14,.1,.34,.34,.57,.71l.46,.72h.59l-.61-.96Z"/><path class="cls-4" d="M190.89,41.95c-.06,.1-.14,.17-.22,.2-.13,.06-.32,.09-.56,.09h-1v-1.17h1.11c.19,0,.35,.04,.48,.1,.18,.09,.27,.26,.27,.47,0,.11-.03,.22-.08,.3m.24,1.3c-.21-.31-.43-.52-.67-.64h0c.66-.09,.99-.41,.99-.96,0-.19-.05-.37-.14-.52-.09-.17-.23-.28-.39-.34-.18-.07-.41-.1-.72-.1h-1.56v3.52h.47v-1.55h.53c.22,0,.38,.04,.48,.12,.14,.1,.34,.34,.57,.71l.46,.72h.59l-.61-.96Z"/><path class="cls-2" d="M186.9,42.49c0,1.69,1.38,3.07,3.07,3.07s3.07-1.38,3.07-3.07-1.38-3.07-3.07-3.07-3.07,1.38-3.07,3.07m.33,0c0-1.51,1.23-2.74,2.74-2.74s2.74,1.23,2.74,2.74-1.23,2.74-2.74,2.74-2.74-1.22-2.74-2.74"/><path class="cls-4" d="M186.9,42.49c0,1.69,1.38,3.07,3.07,3.07s3.07-1.38,3.07-3.07-1.38-3.07-3.07-3.07-3.07,1.38-3.07,3.07m.33,0c0-1.51,1.23-2.74,2.74-2.74s2.74,1.23,2.74,2.74-1.23,2.74-2.74,2.74-2.74-1.22-2.74-2.74"/><path class="cls-2" d="M48.25,28.09h-14.7v-3.88h-5.15v3.88h-4.88v3.92h4.88v8.76c0,1.01,2.8,4.66,8.02,4.66h12.64l.3-4.32h-12.42c-1.98,0-3.39-1.12-3.39-2.95v-6.15h10.49v1.71c0,.9-.82,1.45-1.79,1.45h-4.07v3.47h4.51c2.88,0,5.6-1.53,5.6-5.4l-.03-5.15Z"/><path class="cls-2" d="M63.88,45.44h-12.84V24.18h4.85v16.94h7.94c1.53,0,4.21,.11,4.21-2.84v-6.24h4.37v8.07c0,2.09-1.16,5.33-6.2,5.33h-2.35Z"/><path class="cls-2" d="M99.77,35.81v-3.88h-13.17v-3.85h13.02v-3.91h-24.25v3.91h6.08v3.85h-6.08v3.88h6.08v4.06c0,1.76,1.01,5.71,5.48,5.71h12.76v-4h-10.93c-1.42,0-2.17-.67-2.17-2.79v-2.98h13.17Z"/><path class="cls-2" d="M128.71,33.84v-3.88h-20.74v-5.78h-4.81v15.44c0,3.99,2.69,6.04,5.86,5.97h19.47v-3.96h-16.79c-2.61,0-3.73-1.19-3.73-2.95v-4.85h20.74Z"/><path class="cls-2" d="M129.57,25.48c0,2.1-1.69,3.8-3.77,3.8s-3.77-1.7-3.77-3.8,1.69-3.8,3.77-3.8,3.77,1.7,3.77,3.8m-3.77-1.49c-.83,0-1.49,.68-1.49,1.51s.67,1.51,1.49,1.51,1.49-.67,1.49-1.51-.67-1.51-1.49-1.51"/><path class="cls-2" d="M131.74,24.21h25.29v5.64c0,2.2-.83,3.71-1.94,4.92-1.12,1.23-3.39,1.94-4.77,1.94h-6.79s-.11,1.75-.11,3.17c0,1.79-1.94,5.64-6.08,5.64h-5.56v-4.14h3.88c2.57,0,3.88-1.12,3.88-3.28v-5.27h9.96c1.27,0,3.02-.96,2.83-4.55h-20.63l.04-4.06Z"/><rect class="cls-2" x="159.15" y="24.28" width="15.86" height="4.29"/><path class="cls-2" d="M184.82,30.1h-5v9.11c0,1.38-.48,2.46-2.05,2.46h-18.58v3.95h18.35c1.6,0,7.27-.26,7.27-6.79v-8.73Z"/></g><g><rect class="cls-3" x=".5" y="8.22" width="215.89" height="44.33" rx="6.7" ry="6.7"/><polygon class="cls-1" points="205.28 13.78 11.29 15.44 11.29 1.68 204.74 1.68 205.28 13.78"/><path class="cls-2" d="M80.22,13.4c0,.68-.36,1.02-1.31,1.02-.8,0-1.34-.2-1.34-1.02V6.8c-.92,.78-1.04,.83-1.23,.83-.29,0-.51-.24-.51-.53,0-.2,.06-.27,.32-.62,1.65-2.13,2.39-4.45,2.68-5.38,.23-.72,.5-1.07,1.22-1.07,.65,0,1.76,.38,1.76,1.25,0,.66-.99,1.94-1.58,2.71V13.4Zm3.5-12.32c.08-.48,.22-1.01,1.19-1.01,.57,0,1.92,.27,1.92,1.16,0,.15-.03,.27-.11,.59-.71,2.75-2.15,6.74-3.37,10.06,1.65-.2,2.48-.29,3.74-.51-.22-1.17-.59-2.48-.95-3.76-.08-.26-.08-.29-.08-.38,0-.3,.24-.53,.53-.53,.19,0,.36-.02,1.16,1.2,.84,1.26,2.53,3.95,2.53,4.83s-1.04,1.47-1.93,1.47c-.24,0-.72,0-.89-.69-.05-.15-.15-.87-.18-1.01-4.13,1.11-4.51,1.22-5.49,1.46-.35,.08-.38,.09-.5,.09-.55,0-.86-.6-.86-1.1,0-.77,.35-.8,1.13-.89,.93-3.44,1.55-7.31,2.14-10.99"/><path class="cls-2" d="M91.53,9.91c-.16,0-.56,0-.56-.53,0-.44,.27-.53,.56-.53h5.23v-.83h-4.27c-.17,0-.56,0-.56-.53,0-.45,.27-.54,.56-.54h4.27v-.68h-2.71c-.77,0-1.62,0-1.62-1.1v-.74c0-.72,0-1.46,1.23-1.46h3.1v-.69h-4.84c-.17,0-.54,0-.54-.53,0-.45,.26-.54,.54-.54h4.84c0-.56,0-1.2,1.34-1.2s1.4,.53,1.4,1.2h5.01c.15,0,.54,.02,.54,.53,0,.48-.3,.54-.54,.54h-5.01v.69h2.84c.77,0,1.62,0,1.62,1.1v.74c0,.72,0,1.46-1.23,1.46h-3.23v.68h3.1c.8,0,1.7,0,1.7,1.16v.74h.56c.15,0,.54,0,.54,.51s-.3,.54-.54,.54h-.56v.38c0,.75,0,1.52-1.29,1.52h-3.5v.83c0,.74,0,1.62-1.31,1.62h-3.43c-.17,0-.54,0-.54-.51,0-.45,.26-.54,.54-.54h1.68c.26,0,.32-.06,.32-.33v-1.07h-4.27c-.17,0-.56,0-.56-.53,0-.43,.27-.53,.56-.53h4.27v-.84h-5.23Zm5.23-4.69v-1.16h-1.38c-.24,0-.3,.03-.3,.3v.56c0,.24,.05,.3,.3,.3h1.38Zm2.74-1.16v1.16h1.52c.22,0,.3-.03,.3-.3v-.56c0-.24-.04-.3-.3-.3h-1.52Zm2.15,4.8v-.53c0-.26-.05-.3-.3-.3h-1.85v.83h2.15Zm-2.15,1.05v.84h1.85c.26,0,.3-.06,.3-.32v-.53h-2.15Z"/><path class="cls-2" d="M110.84,7.22c0,1.16-.95,2.11-2.11,2.11s-2.11-.95-2.11-2.11,.95-2.11,2.11-2.11,2.11,.93,2.11,2.11"/><path class="cls-2" d="M126.49,2.38h-2.59c0,.57,0,1.25-1.4,1.25s-1.44-.62-1.44-1.25h-2.45c0,.56,0,1.25-1.32,1.25s-1.38-.6-1.38-1.25h-2.66c-.24,0-.54-.05-.54-.51,0-.36,.15-.54,.54-.54h2.66c0-.62,0-1.29,1.32-1.29s1.38,.63,1.38,1.29h2.45c0-.62,0-1.29,1.38-1.29,1.46,0,1.46,.63,1.46,1.29h2.59c.32,0,.54,.1,.54,.51s-.16,.54-.54,.54m-.05,8.96h-2.56v1.99c0,.59-.29,1.05-1.38,1.05-.92,0-1.41-.27-1.41-1.05v-1.99h-2.33c-.59,1.88-2.23,2.44-2.71,2.6-1.11,.38-2.28,.5-2.53,.5-.47,0-.59-.36-.59-.53,0-.39,.3-.48,.54-.56,1.94-.6,2.26-1.59,2.38-2.02h-2.57c-.24,0-.54-.06-.54-.53,0-.36,.13-.54,.54-.54h2.74c.03-.47,.09-1.1,1.43-1.1,1.41,0,1.46,.68,1.47,1.1h2.17c0-.39,.05-.98,1.05-1.08h-.72c-1.35,0-1.35-.81-1.35-1.61v-2.84h-2.26c-.19,.38-.36,.59-.48,.75h1.62c.59,0,.99,.38,.99,.87,0,1.07-2.03,2.17-2.33,2.33-2.12,1.14-4.23,1.34-4.38,1.34-.33,0-.51-.29-.51-.53,0-.39,.32-.48,.48-.53,1.11-.31,1.32-.37,2.12-.77-.15-.08-.2-.11-.29-.29-.12-.24-.21-.38-.27-.48-.39,.18-1.02,.44-1.28,.44s-.51-.23-.51-.54c0-.27,.18-.39,.26-.45,.57-.42,1.35-.98,1.78-2.15h-1.47c-.38,0-.54-.15-.54-.54,0-.44,.24-.53,.54-.53h12.57c.41,0,.53,.18,.53,.54,0,.47-.27,.53-.53,.53h-3.35v1.05c.41-.1,.84-.24,1.71-.71,.29-.15,.5-.26,.8-.26,.62,0,1.08,.51,1.08,.96s-.42,.63-.78,.71c-.45,.11-1.25,.22-2.81,.22v1.07c0,.29,.06,.33,.32,.33h1.17c.42,0,.54-.21,.62-.51,.16-.66,.24-.98,.84-.98,.39,0,1.26,.21,1.26,.87,0,.29-.16,.87-.45,1.25-.29,.36-.68,.44-1.41,.44h-2.3c.84,.07,1.07,.48,1.08,1.08h2.56c.32,0,.54,.12,.54,.51s-.16,.56-.54,.56m-9.5-4.78h-.69c-.29,.21-.35,.24-.44,.3,.68,.38,.69,.44,.74,.6,.41-.33,.59-.6,.59-.71,0-.09-.06-.19-.19-.19"/><path class="cls-2" d="M131.14,13.44c0,.63-.32,.98-1.22,.98-.8,0-1.28-.21-1.28-.98V7.38c-.3,.36-.39,.47-.63,.47-.29,0-.53-.22-.53-.51,0-.15,.03-.19,.23-.57,.62-1.19,1.2-3.07,1.44-5.23,.08-.68,.18-1.47,1.35-1.47,.44,0,1.49,.15,1.49,.98,0,.26-.07,.51-.14,.74,.1-.08,.19-.11,.39-.11h1.5c-.08-.2-.51-.96-.51-1.14,0-.29,.24-.53,.53-.53,.09,0,2.29,.48,2.29,1.2,0,.23-.15,.36-.27,.47h1.7c-.01-.06-.03-.1-.03-.2,0-.16,.33-.84,.39-.98,.06-.15,.2-.5,.87-.5s1.64,.39,1.64,.83-.8,.74-1.07,.84h1.88c.33,0,.54,.11,.54,.51s-.17,.54-.54,.54h-3.11v.53h2.77c.32,0,.53,.12,.53,.53s-.15,.54-.53,.54h-2.77v.53h3.4c.32,0,.54,.12,.54,.53s-.17,.54-.54,.54h-9.43c-.24,0-.54-.05-.54-.53,0-.36,.14-.54,.54-.54h3.34v-.53h-2.72c-.24,0-.54-.05-.54-.53,0-.36,.14-.54,.54-.54h2.72v-.53h-3.11c-.5,0-.51-.29-.53-.5-.24,.66-.29,.75-.59,1.4V13.44Zm9.85-4.1c.47,.17,.81,.62,.81,1.01s-.95,1.08-1.56,1.53c.14,.23,.22,.35,.42,.35,.18,0,.3-.1,.39-.38,.17-.48,.2-.57,.48-.57s.74,.21,.74,.74c0,.27-.09,.6-.12,.74-.29,1.04-.74,1.64-1.83,1.64s-1.56-.53-2.09-1.25c-.69,.36-1.86,.9-2.12,.9-.22,0-.48-.17-.48-.5s.18-.42,.29-.48c.24-.15,1.43-.87,1.7-1.05-.47-1.11-.59-1.83-.72-2.68h-1.22v.75c.32-.07,.5-.1,.66-.1,.41,0,.57,.3,.57,.51,0,.39-.12,.43-1.23,.78v1.73c0,1.2-.95,1.2-1.77,1.2h-1.66c-.38,0-.54-.14-.54-.54,0-.44,.24-.51,.54-.51h.53c.24,0,.33-.03,.33-.33v-.87c-1.04,.21-1.11,.21-1.19,.21-.56,0-.72-.59-.72-.89,0-.48,.32-.63,.51-.69,.15-.03,1.17-.1,1.4-.12v-1.13h-1.25c-.38,0-.54-.15-.54-.54,0-.44,.26-.53,.54-.53h1.25v-.68c-.16,0-1.01,.04-1.11,.04-.15,0-.68,0-.68-.54,0-.48,.39-.51,.6-.53,1.1-.08,1.46-.11,2.18-.26,.21-.05,1.1-.29,1.28-.29,.62,0,1.25,.45,1.25,.9,0,.35-.33,.39-.95,.48v.86h1.1c-.03-.54-.03-.66-.03-1.07,0-.62,0-1.2,1.28-1.2,.93,0,1.13,.39,1.19,.72,.02,.09,.07,1.37,.09,1.55h2.17c.41,0,.54,.19,.54,.54,0,.47-.29,.53-.54,.53h-.47Zm-1.07-3.17c.26,0,.95,.29,1.17,.39,.33,.16,.57,.33,.57,.69,0,.42-.36,.95-.98,.95-.36,0-.44-.08-.74-.51-.15-.21-.26-.35-.45-.57-.1-.12-.15-.24-.15-.35,0-.38,.29-.6,.57-.6m-.53,3.17c.04,.39,.09,.68,.18,1.01,.12-.14,.59-.74,.71-.86,.1-.1,.16-.12,.24-.15h-1.13Z"/><path class="cls-2" d="M153.25,13.42c-.53,.13-2.31,.2-3.27,.2-1.37,0-4.67,0-4.67-2.12,0-.44,.12-1.29,1.1-2.19,.1-.08,.21-.19,.39-.19,.24,0,.48,.19,.48,.46,0,.13-.02,.17-.18,.37-.11,.15-.39,.53-.39,1.08,0,.89,1.22,.95,2.13,.95,1.2,0,2.3-.12,3.14-.27,.2-.04,1.07-.24,1.26-.24,.41,0,.79,.27,.79,.96,0,.64-.38,.89-.78,.99m-.89-7.3c-.07,0-1.95-.5-2.33-.57-1.04-.21-2.24-.39-3.3-.43-.15,0-.53-.01-.53-.45,0-.41,.37-.46,.65-.5,.86-.12,2.11-.2,2.97-.2,1.11,0,2.14,.12,2.57,.19,.18,.02,.82,.13,.82,.89,0,.58-.34,1.07-.84,1.07m2.39-1.34c0,.26-.24,.51-.51,.51-.21,0-.27-.07-.53-.44-.19-.26-.27-.36-.64-.75-.05-.05-.12-.13-.12-.26,0-.27,.22-.37,.45-.37,.19,0,1.35,.91,1.35,1.3m1.02-.83c0,.25-.24,.51-.51,.51-.19,0-.24-.06-.51-.39-.12-.13-.24-.24-.57-.57-.06-.05-.13-.12-.13-.26,0-.17,.12-.38,.41-.38,.13,0,1.3,.66,1.3,1.09"/><path class="cls-2" d="M159.54,7.37c0,.21,.49,1.47,.62,1.75,.09,.21,.64,1.17,.64,1.33,0,.2-.17,.41-.43,.41-.24,0-.49-.32-.83-.75v3.5c0,.51-.26,.8-1.03,.8-.66,0-1.08-.17-1.08-.8v-2.76c-.39,.56-.64,.8-.79,.97-.08,.08-.18,.13-.31,.13-.24,0-.43-.18-.43-.41,0-.11,.02-.13,.15-.37,1.07-1.94,1.28-3.93,1.36-4.77h-.91c-.13,0-.44,0-.44-.41,0-.37,.21-.43,.44-.43h.92v-1.67c0-.53,.29-.8,1.03-.8,.63,0,1.08,.15,1.08,.8v1.67h.75c.13,0,.44,.01,.44,.41,0,.38-.25,.43-.44,.43h-.75v.96Zm2.69,6.89c-.63,0-1.4,0-1.4-.92V4.77c0-.59,0-1.26,1.03-1.26h3.76c.63,0,1.4,0,1.4,.92V13c0,.59,0,1.25-1.03,1.25h-3.76Zm.78-7.55h1.87v-2.11c0-.21-.05-.25-.25-.25h-1.37c-.19,0-.25,.01-.25,.25v2.11Zm1.87,.84h-1.87v2.4h1.87v-2.4Zm0,3.24h-1.87v2.38c0,.21,.05,.25,.25,.25h1.37c.19,0,.25-.01,.25-.25v-2.38Z"/><path class="cls-2" d="M171.84,5.18c.25,0,.43,.09,.43,.41s-.13,.43-.43,.43h-3.49c-.18,0-.41-.03-.41-.4,0-.3,.11-.44,.41-.44h3.49Zm-2.59,9.08c-.52,0-1.11,0-1.11-.76v-2.36c0-.5,0-.99,.85-.99h1.87c.52,0,1.11,0,1.11,.76v2.34c0,.5,0,1.01-.84,1.01h-1.88Zm2.38-10.75c.25,0,.43,.09,.43,.41s-.13,.43-.43,.43h-3.05c-.19,0-.43-.03-.43-.41,0-.28,.12-.43,.43-.43h3.05Zm0,3.35c.25,0,.43,.08,.43,.4s-.13,.43-.43,.43h-3.05c-.19,0-.43-.04-.43-.4,0-.28,.12-.43,.43-.43h3.05Zm0,1.67c.25,0,.43,.09,.43,.4s-.13,.43-.43,.43h-3.05c-.19,0-.43-.03-.43-.4,0-.28,.12-.43,.43-.43h3.05Zm-1.27,2.63c0-.17-.05-.17-.2-.17-.11,0-.18,0-.18,.17v2.09c0,.17,.05,.17,.24,.17,.14,0,.14-.06,.14-.17v-2.09Zm4.26-2.45c0-.47,.22-.81,1.02-.81,.65,0,1.05,.18,1.05,.81v.56c0,.58,.11,1.23,.3,1.79,.02-.12,.17-.6,.18-.7,.02-.13,.1-.72,.13-.84,.02-.12,.14-.41,.59-.41,.4,0,1.11,.24,1.11,.71,0,.65-1.22,1.67-1.61,1.67-.09,0-.2-.05-.27-.12,.38,.85,1.12,1.69,1.81,2.19,.14,.11,.25,.19,.25,.4,0,.3-.26,.43-.4,.43-.11,0-1.49-.36-3.07-2.23-.33,.43-1.09,1.4-2.96,2.13-.13,.05-.26,.1-.37,.1-.2,0-.4-.17-.4-.41s.12-.31,.43-.52c.4-.28,1.43-1.01,1.88-2.27,.26-.73,.33-1.75,.33-1.9v-.56Zm0-4.81c0-.47,.22-.8,1.02-.8,.65,0,1.05,.19,1.05,.8v.26c0,.66,.06,1.15,.25,1.69,.01-.12,.18-.67,.2-.78,.04-.14,.12-.77,.16-.89,.12-.4,.44-.44,.64-.44,.3,0,1.11,.15,1.11,.73s-1.36,1.79-1.72,1.79c-.03,0-.17,0-.28-.14,.12,.28,.49,1.12,1.8,2.1,.21,.15,.33,.25,.33,.46,0,.26-.24,.43-.4,.43-.05,0-1.86-.39-3.12-2.26-.92,1.51-2.91,2.26-3.15,2.26-.17,0-.4-.17-.4-.43,0-.24,.15-.33,.37-.47,1.11-.71,2.15-1.98,2.15-4.02v-.28Zm-.65,5.75c0,.46-.06,1.16-.22,1.72-.12,.41-.27,.6-.64,.6-.56,0-.95-.44-.95-.83,0-.27,.12-.43,.4-.78,.21-.26,.44-.75,.6-1.03,.13-.23,.31-.23,.41-.23,.39,0,.39,.45,.39,.54m.15-5.37c0,.08,.01,.77-.2,1.61-.14,.59-.35,.72-.69,.72-.54,0-.91-.39-.91-.77,0-.22,.07-.33,.38-.76,.2-.27,.3-.47,.59-1.07,.14-.27,.29-.27,.43-.27,.32,0,.4,.28,.4,.53"/><path class="cls-2" d="M182.05,11.2c0,1.02-.25,2.2-.37,2.49-.07,.15-.22,.51-.78,.51-.47,0-1.03-.33-1.03-.84,0-.26,.13-.43,.26-.59,.43-.54,.77-1.14,1.09-1.75,.09-.19,.22-.3,.43-.3,.06,0,.4,.04,.4,.49m4.45-3.81c-.54,0-.69,0-.93-.15,.01,.05,.04,.11,.04,.19,0,.17-.05,.26-.27,.51-.27,.28-.62,.65-1.07,1.05,1.15-.02,2.62-.11,3.19-.15-.09-.09-.56-.57-.66-.67-.06-.07-.13-.19-.13-.33,0-.21,.18-.41,.43-.41,.22,0,1.23,.53,1.55,.71,1.62,.9,1.63,1.11,1.63,1.42,0,.57-.63,1.08-1.16,1.08-.37,0-.44-.09-1.05-1.01-3.7,.52-7.09,.72-7.24,.72-.63,0-.65-.63-.65-.73,0-.46,.33-.56,.42-.58,.13-.02,1.79-.02,2.13-.02,.25-.51,.38-.79,.6-1.42,.17-.46,.18-.52,.31-.66-1.61,.92-3.03,1.12-3.09,1.12-.2,0-.41-.18-.41-.43,0-.19,.13-.3,.3-.38,.65-.32,1.1-.53,1.81-1.27,.13-.13,.67-.82,.83-.93h-.8c-.18,0-.22,.04-.22,.24v.48c0,.47-.21,.84-1.05,.84-.75,0-1.03-.32-1.03-.84v-.69c0-.86,.67-.86,1.27-.86h3.07v-.27c0-.67,.46-.84,1.12-.84,.79,0,1.09,.3,1.09,.84v.27h3.38c.96,0,.96,.57,.96,1.14v.41c0,.69-.49,.79-.91,.83-.28,.81-.72,.81-1.57,.81h-1.85Zm-.5,6.04c.67,0,.78-.44,.88-.96,.07-.45,.13-.77,.76-.77,.49,0,1.18,.26,1.18,.86,0,.34-.14,1.08-.58,1.43-.31,.25-.79,.27-1.15,.27h-3.49c-.63,0-1.33,0-1.33-.91v-2.16c0-.54,.3-.8,1.03-.8,.63,0,1.08,.15,1.08,.8v1.99c0,.22,.07,.24,.25,.24h1.37Zm-.77-8.39h-.92c.26,.13,.58,.34,.58,.69,0,.26-.14,.47-.89,.96,.07-.01,.15-.04,.3-.04,.21,0,.64,.06,1.02,.31-.08-.17-.08-.2-.08-.7v-1.22Zm1.04,5.65c.45,.27,.65,.46,.65,.82,0,.52-.56,1.01-1.05,1.01-.42,0-.54-.3-.66-.59-.15-.37-.44-.83-.65-1.15-.07-.09-.11-.15-.11-.27,0-.27,.24-.43,.43-.43,.26,0,1.1,.44,1.4,.62m1.12-5.65v1.29c0,.15,0,.22,.18,.22,.25,0,.45,0,.54-.32,.12-.44,.24-.59,.63-.64v-.32c0-.19-.02-.24-.22-.24h-1.12Zm1.28,5.56c.33,0,1.04,.77,1.37,1.12,.76,.82,.92,1.02,.92,1.35,0,.5-.54,.97-1.15,.97s-.65-.38-.75-.89c-.15-.78-.36-1.17-.76-1.89-.05-.1-.06-.18-.06-.25,0-.22,.19-.41,.41-.41"/><path class="cls-2" d="M193.66,13.85c-.75,0-1.59,0-1.59-1.08V5.33c0-.71,0-1.43,1.21-1.43h7.53c.75,0,1.59,0,1.59,1.09v7.43c0,.71,0,1.43-1.21,1.43h-7.53Zm.9-9.11c-.22,0-.28,.04-.28,.28v7.7c0,.24,.04,.28,.28,.28h5.35c.22,0,.28-.02,.28-.28V5.03c0-.22-.04-.28-.28-.28h-5.35Z"/><path class="cls-2" d="M19.46,9.89v-2.99h4.52c1.27,0,1.84,.41,1.84,1.08,0,.58-.61,.86-1.71,.86h-2.11v1.38h3.9c2.1,0,2.98-.96,2.98-2.3,0-1.43-.92-2.39-2.91-2.39h-6.51v-1.97h-3.07v1.97h-1.93v1.38h1.93v3.56c0,3.85,4.4,3.75,4.4,3.75h7.67v-1.38s-5.61-.11-6.07-.11c-1.32,0-2.93-1-2.93-2.83"/><path class="cls-2" d="M33.22,14.02c2.87,0,3.53-.62,4.43-1.1,1.18-.64,4.46-3.28,5.44-5.44h-3.28c-.24,.46-4.47,5.5-6.56,4.59-.63-.27-.67-.55-.67-2.04V3.6h-2.96v6.62c0,3.56,2.43,3.81,3.59,3.81"/><path class="cls-2" d="M57.3,5.52v-1.38h-13.81v1.38h4.07v2.24h-4.07v1.27h4.07v1.58c0,3.08,1.66,3.55,4.46,3.55h4.72v-1.38s-2.1-.07-2.93-.07c-2.1,0-3.56-.43-3.56-1.89v-1.79h7.05v-1.27h-7.05v-2.24h7.05Z"/><path class="cls-2" d="M65.14,10.54c0,2.93-1.96,3.65-4.1,3.65h-2.92v-1.38h2.42c1.17,0,1.83-.96,1.83-2.36,0-.97,0-2.45,0-2.45h5.14c1.28,0,1.7-.53,1.7-1.18,0-1.02-.96-1.31-1.7-1.31h-9.39v-1.38h10.32c5,0,4.92,5.25,.8,5.25h-4.1s0,.61,0,1.15"/><path class="cls-2" d="M69.47,14.04h.36v-.84h.53c.33,0,.41,.17,.41,.54,0,.1,0,.21,.05,.3h.38c-.08-.08-.11-.3-.11-.54,0-.33-.18-.42-.3-.43h0c.07-.03,.34-.13,.34-.52,0-.34-.23-.55-.68-.55h-.98v2.04Zm.36-1.75h.58c.19,0,.35,.05,.35,.31,0,.21-.12,.33-.35,.33h-.59v-.64"/><path class="cls-2" d="M71.97,13.03c0,.95-.77,1.72-1.72,1.72s-1.72-.77-1.72-1.72,.77-1.72,1.72-1.72,1.72,.77,1.72,1.72m-1.72-1.47c-.81,0-1.46,.66-1.46,1.46s.66,1.46,1.46,1.46,1.47-.66,1.47-1.46-.66-1.46-1.47-1.46"/></g></g></g></svg>