<?xml version="1.0" encoding="UTF-8"?><svg id="_イヤー_2" xmlns="http://www.w3.org/2000/svg" viewBox="0 0 217.91 78.25"><defs><style>.cls-1{fill:#005748;}.cls-2{fill:#fff;}.cls-3{fill:#654720;}.cls-4{fill:none;stroke:#004730;stroke-miterlimit:10;stroke-width:.5px;}</style></defs><g id="main"><g><g><g><path class="cls-1" d="M30.59,39.32c0,.13-.03,.47-.04,.61h2.14v-.55c-.18,0-.49-.08-.66-.31-.12-.15-.17-.4-.17-.49v-2.4h-1.73c-.08,.13-.12,.18-.26,.35h1.6v.82c-.93,1.5-2.79,2.23-4.37,2.48l-.43-1.02c.4-.03,1.01-.08,1.85-.36-.16-.16-.22-.22-.5-.46l.93-.54c.14,.12,.32,.27,.59,.55,.51-.3,.65-.48,.81-.68h-1.43c-.24,.16-.86,.57-1.82,.86l-.46-.96c.61-.13,1.54-.42,2.2-1.04h-2.05v-.91h9.32v.91h-3.09v.81c.8-.13,1.58-.33,2.37-.72l.54,.9c-.87,.35-1.96,.62-2.91,.75v.27c0,.1,0,.24,.24,.24h1.55c.16,0,.22-.08,.25-.15,.05-.1,.07-.61,.08-.77l1.13,.33c-.08,.82-.15,1.53-.98,1.53h-1.35v.55h2.24v1.07h-2.24v1.77h-1.28v-1.77h-2.41c-.66,1.46-2.45,1.74-2.94,1.82l-.52-1.06c.3-.02,1.43-.09,2.06-.76h-2.18v-1.07h2.69c.03-.23,.05-.33,.05-.61h1.15Zm-3.89-5.66h2.29v-.47h1.26v.47h2.46v-.47h1.26v.47h2.24v1.05h-2.24v.4h-1.26v-.4h-2.46v.4h-1.26v-.4h-2.29v-1.05Z"/><path class="cls-1" d="M37.72,38.07c-.21,.31-.31,.42-.51,.62l-.4-1.71c.69-.94,1.17-2.34,1.28-3.77l1.23,.15c-.04,.41-.12,1.17-.43,2.12v7.3h-1.18v-4.71Zm6.75,1.41c.04,.28,.07,.54,.15,.84,.41-.35,.58-.56,.75-.76l.8,.51c-.19,.26-.49,.68-1.21,1.27,.06,.13,.13,.27,.28,.27,.33,0,.68-.62,.83-.87l.57,.83c-.26,.5-.66,1.23-1.47,1.23-.4,0-.8-.14-1.18-.79-.76,.44-1.08,.53-1.44,.62l-.41-.97c.34-.11,.79-.26,1.46-.63-.15-.48-.21-.89-.29-1.54h-1.49v.49c.27-.02,.5-.05,.99-.12v.91c-.27,.05-.57,.11-.99,.17v1.04c0,.31-.12,.81-.86,.81h-1.36l-.17-1.09,.95,.02c.21,0,.27-.02,.27-.24v-.41c-.63,.07-1.01,.09-1.37,.1l-.15-1.02c.41,.01,.72,.01,1.52-.06v-.6h-1.42v-.89h1.42v-.34c-.47,.02-.82,.02-1.23,.02l-.12-.77c.9,.03,2.26,0,3.15-.17l.28,.75c-.27,.03-.36,.05-.92,.1v.42h1.4c-.07-.85-.07-.95-.07-1.3h1.15c0,.38,.02,.56,.08,1.3h2.08v.89h-2Zm-4.91-5.56h1.36c-.07-.18-.19-.41-.29-.57l1.23-.19c.14,.22,.19,.31,.38,.76h1.35c.1-.18,.26-.61,.31-.77l1.32,.18c-.06,.16-.11,.29-.28,.59h1.38v.83h-2.79v.41h2.47v.7h-2.47v.45h2.95v.83h-7.21v-.83h3.05v-.45h-2.36v-.7h2.36v-.41h-2.75v-.83Zm5.94,3.26c.33,.28,.67,.73,.78,.88l-.76,.48c-.35-.48-.6-.73-.75-.89l.73-.47Z"/><path class="cls-1" d="M48.46,38.39c-.39,.16-.6,.24-.85,.32l-.46-1.11c1.47-.41,2.1-.87,2.28-1.02h-1.85c.15-.79,.17-.88,.27-1.73h2.42c.01-.05,.01-.07,.01-.13v-.31h-2.78v-.79h2.78v-.42h1.19v.42h1.13v-.42h1.21v.42h2.52v1.82h-2.52v.45h3.09c-.05,1.39-.15,2.03-.8,2.03h-.36v3.21h-1.73c1.03,.42,1.93,.52,2.88,.58l-.68,1.13c-1.12-.14-2.09-.39-3.18-.91l.61-.8h-3.32l.62,.75c-.67,.44-2.12,.86-3.11,.92l-.57-1.09c.69-.06,1.68-.16,2.64-.58h-1.43v-2.73Zm.56-2.96s-.05,.29-.08,.45h1.02c.05-.09,.11-.21,.18-.45h-1.12Zm.69,2.37v.44h4.78v-.44h-4.78Zm0,1.02v.46h4.78v-.46h-4.78Zm0,1.04v.5h4.78v-.5h-4.78Zm2.9-2.78v-.52h-1.7c-.18,.27-.32,.42-.42,.52h2.12Zm0-1.66h-1.22c-.02,.11-.05,.24-.13,.45h1.35v-.45Zm0-.59v-.45h-1.13v.45h1.13Zm1.21,0h1.31v-.45h-1.31v.45Zm1.02,2.25l-.04-.18h.67c.11,0,.19,0,.19-.33h-1.84v.52h1.02Z"/><path class="cls-1" d="M65.38,39.75h-2.24v2.93h-1.19v-2.93h-2.16c-.14,1.02-.55,2.24-1.25,3.01l-.98-1.08c1.03-1.28,1.09-2.65,1.09-3.32v-4.74h7.97v8.06c0,.46,0,1.1-.98,1.1h-1.38l-.17-1.29h.97c.21,0,.3-.01,.3-.29v-1.45Zm-5.47-4.93v1.3h2.05v-1.3h-2.05Zm0,2.45v1.32h2.05v-1.32h-2.05Zm3.23-2.45v1.3h2.24v-1.3h-2.24Zm0,2.45v1.32h2.24v-1.32h-2.24Z"/><path class="cls-1" d="M71.94,33.59c-.04,.26-.07,.43-.16,.81h3.99v1.25h-4.36c-.12,.38-.23,.59-.33,.79,.59-.27,1.02-.29,1.17-.29,1.11,0,1.5,.85,1.6,1.07,1.1-.46,1.92-.67,2.39-.8l.3,1.34c-.42,.08-1.13,.21-2.42,.68,.03,.33,.04,.69,.04,1.02,0,.29,0,.46-.01,.78h-1.33c.03-.41,.04-.86,.02-1.28-.54,.27-1.43,.71-1.43,1.36,0,.79,.97,.79,1.99,.79,.83,0,1.73-.04,2.55-.12v1.31c-.35,.01-1.28,.04-2.03,.04-1.48,0-2.25-.09-2.84-.32-.55-.21-1.11-.78-1.11-1.58,0-1.39,1.86-2.29,2.66-2.69-.05-.1-.23-.45-.74-.45-.12,0-.83,0-1.83,1.01-.85,1.31-1.13,1.57-1.31,1.74l-.96-.99c.52-.49,1.52-1.48,2.23-3.4h-1.91v-1.25h2.26c.08-.38,.11-.63,.14-.91l1.43,.1Z"/><path class="cls-1" d="M78.67,34.81c.27,.14,.5,.25,.96,.6,.3-.31,.47-.54,.63-.77h-2.58v-1.11h3.83v1.11c-.3,.51-.62,.88-1.1,1.37,.16,.14,.23,.21,.39,.36l-.35,.38h1.27v1.17c-.05,.34-.14,.85-.52,1.76l-.98-.41c.2-.44,.35-.86,.45-1.36h-.7v4c0,.2-.01,.83-.7,.83h-1.59l-.2-1.25h1.05c.19,0,.23-.04,.23-.18v-3.4h-1.26v-1.17h2.01c-.68-.63-1.28-.99-1.55-1.17l.73-.77Zm2.38,6.97c.8-.24,1.45-.5,2.14-1.03h-1.02v-5.48h1.31c.08-.2,.13-.41,.18-.63h-1.82v-1.11h5.17v1.11h-2.11c-.07,.22-.14,.44-.21,.63h2v5.48h-1.24c.86,.67,1.39,.87,1.74,1l-.68,1.01c-.97-.52-1.44-.86-1.9-1.29l.76-.73h-2.1l.8,.73c-.75,.65-1.68,1.04-2.29,1.28l-.72-.97Zm2.31-5.56v.59h2.12v-.59h-2.12Zm0,1.42v.6h2.12v-.6h-2.12Zm0,1.46v.66h2.12v-.66h-2.12Z"/><path class="cls-1" d="M89.71,33.74c-.09,.6-.37,2.25-.37,4.45,0,.74,.03,2.44,.37,3.88l-1.35,.18c-.1-.57-.32-1.85-.32-3.96s.2-3.73,.32-4.66l1.35,.11Zm3.86,1.86c-.01-.31-.03-1.71-.04-2h1.37c0,.7,0,1.22,.01,2h1.69v1.24h-1.66c.06,3.04,.09,4.88-4,5.59l-.54-1.23c3.21-.42,3.25-1.5,3.19-4.36h-3.21v-1.25h3.19Z"/><path class="cls-1" d="M106.48,35.3c-.31,0-.95-.02-1.27,0-.87,.04-1.64,.29-2.54,.97-.58,.45-1.68,1.51-1.68,2.78,0,.78,.33,1.97,4.55,1.82l-.19,1.45c-2.22-.01-3.25-.22-4.18-.68-.96-.48-1.57-1.44-1.57-2.41,0-.66,.18-2.34,2.59-3.88-.71,.06-3.84,.32-4.48,.39l-.05-1.42c.49,0,1.28-.04,2.24-.09,.87-.05,5.51-.22,6.54-.26l.04,1.35Z"/><path class="cls-1" d="M117.43,34.12v1.21c-1.18,.95-1.89,2.14-1.89,3.59,0,1.33,.84,2.02,2.12,2.02,.82,0,1.36-.24,1.67-.6,.39-.44,.57-1.12,.57-1.79,0-2.06-1-4.06-1.3-4.61l1.39-.44c.19,.57,.42,1.17,1.06,1.79,.72,.7,1.3,1.11,1.82,1.32l-.46,1.44c-.7-.32-1.08-.63-1.57-1.21,.12,.4,.28,.9,.28,1.85,0,1.24-.3,2.12-.86,2.68-.59,.6-1.57,.87-2.49,.87s-1.82-.15-2.5-.73c-.76-.65-1-1.71-1-2.49,0-1.39,.54-2.55,1.45-3.64l-1.58,.04v-1.31h3.29Z"/><path class="cls-1" d="M127.6,33.58c0,.31-.02,.69-.02,1.25,0,1.13,.01,1.44,.23,1.73,1.24-.42,2.34-.67,3.55-.82l.16,1.42c-2.51,.24-6.13,1.07-6.13,2.71,0,1.07,1.18,1.11,3.46,1.11,1.43,0,2.19-.05,2.95-.16v1.38c-.75,.08-1.38,.1-2.54,.1-2.28,0-5.29,0-5.29-2.28,0-1.77,1.84-2.64,2.63-3-.23-.25-.38-.53-.41-1.24-.04-.92-.03-1.54-.03-2.2h1.43Z"/><path class="cls-1" d="M135.82,33.62c-.17,.54-.21,.73-.35,2.11,.95-1.21,2.08-1.29,2.47-1.29,1.53,0,2.73,1.21,2.73,3.69,0,3.33-2.31,4.28-5.8,4.28l-.29-1.28c2.78-.03,4.68-.34,4.68-3.07,0-.39,0-2.37-1.44-2.37-1.2,0-2.51,1.51-2.51,2.81,0,.63,.06,.98,.1,1.27l-1.33,.1c-.08-.71-.08-1.49-.08-1.74,0-1.22,.08-3.51,.38-4.63l1.44,.13Z"/><path class="cls-1" d="M146.08,41.12c1.56-.07,3.01-.51,3.01-2.64,0-.98-.36-2.21-2.05-2.34-.09,1.04-.25,3.02-.97,4.24-.15,.25-.7,1.17-1.7,1.17-1.17,0-1.77-1.31-1.77-2.57,0-2.28,1.65-3.91,4.1-3.91,2.25,0,3.64,1.3,3.64,3.48,0,2.57-1.62,3.54-3.9,3.7l-.37-1.11Zm-2.35-2.06c0,1.1,.49,1.3,.7,1.3,.64,0,1.25-1.45,1.45-4.17-1.65,.37-2.15,1.7-2.15,2.87Z"/><path class="cls-1" d="M153.21,34.76c-.45,.03-.82,.04-1,.04s-.31-.01-.51-.02l-.19-1.13c1.2,.05,2.85-.08,4.09-.42l.46,1.16c-.35,.08-.61,.14-1.63,.26v1.17h1.5v1.17h-1.5v.06c.53,.77,.83,1.08,1.47,1.64l-.63,1.15c-.23-.26-.52-.6-.84-1.15v4.07h-1.22v-3.8c-.43,.92-.86,1.47-1.37,2.05l-.46-1.52c1.15-1.11,1.63-2.26,1.74-2.5h-1.57v-1.17h1.65v-1.05Zm5.11-1.49c-.56,4.38-.89,6.13-1.36,7.72,.41-.04,1.7-.2,2.54-.35-.04-.19-.23-1.26-.75-2.83l1.21-.32c.53,1.36,1.07,3.69,1.2,4.98l-1.36,.28c-.04-.45-.06-.64-.11-.97-.71,.14-2.59,.48-4.52,.67l-.23-1.29c.11,0,.65-.04,.77-.05,.67-2.96,.87-4.75,1.24-7.92l1.38,.08Z"/><path class="cls-1" d="M164.08,33.59h1.43l-.07,1.27h3.01v1.25h-3.08l-.08,1.54h.32c1.4,0,1.98-.16,2.38-.4l.44,1.15c-.51,.31-1.12,.48-2.95,.48h-.23c0,1.81,.02,2.17,1.93,2.17,1.29,0,2.15-.16,2.15-1.56,0-.74-.17-1.28-.51-2.05l1.25-.36c.54,1.03,.65,1.85,.65,2.55,0,2.46-1.92,2.72-3.59,2.72-2.85,0-3.24-.98-3.24-3.46h-1.74v-1.24h1.78l.06-1.54h-1.69v-1.25h1.74l.05-1.27Z"/><path class="cls-1" d="M176.72,35.69c-.11,.3-.2,.55-.49,1.13h5.29v1.24h-1.69c-.12,.41-.42,1.33-1.26,2.29,1.42,.54,2.2,.96,2.64,1.2l-.84,1.2c-.46-.27-1.24-.74-2.92-1.44-.34,.22-1.94,1.17-4.82,1.45l-.44-1.34c1.86-.06,2.92-.35,3.73-.69-.55-.19-1.39-.49-3.09-.93,.27-.33,.73-.88,1.26-1.73h-2.1v-1.24h2.76c.27-.55,.42-.94,.55-1.32l1.42,.18Zm-4.48-1.63h3.85v-.86h1.33v.86h3.86v2.38h-1.3v-1.2h-6.45v1.2h-1.29v-2.38Zm3.35,4c-.36,.63-.51,.82-.71,1.09,.81,.24,1.71,.51,2.4,.74,.73-.68,1.05-1.51,1.18-1.83h-2.87Z"/><path class="cls-1" d="M184.4,36.58c-.22,3.06-.74,4.19-.99,4.76l-1.15-.91c.55-1.09,.77-2.56,.87-3.98l1.27,.13Zm.68-3.37c1.65,.27,2.61,.55,4.23,1.21l-.57,1.29c-1.23-.65-2.31-.97-4.1-1.34l.44-1.15Zm.05,2.81h1.32v5.03c0,.11,0,.29,.26,.29h1.39c.13,0,.29-.05,.36-.2,.11-.24,.2-1.34,.23-1.71l1.26,.44c-.26,2.47-.7,2.74-1.49,2.74h-2.35c-.61,0-.98-.24-.98-1.02v-5.55Zm5.39,0c.56,1.17,1.24,2.98,1.55,4.97l-1.38,.36c-.38-2.35-.9-3.8-1.38-4.88l1.21-.46Z"/></g><g><g><path class="cls-2" d="M36.81,25.67c4.99-2.54,10.08-4.81,15.25-6.79,.22,.59,.45,1.18,.68,1.76-5.1,1.96-10.14,4.2-15.07,6.71-.28-.56-.57-1.12-.86-1.68"/><path class="cls-2" d="M73.05,11.3c.9,.52,1.78,1.04,2.66,1.57-.87,1.07-1.72,2.16-2.55,3.25,.99,1.11,2.73,1.92,5.2,2.52-.5,.99-.99,1.98-1.46,2.97-1.11-.31-2.27-.82-3.51-1.53-1.22-.65-2.37-1.54-3.45-2.66,.14,.3,.28,.6,.42,.9,.28,.6,.5,1.36,.67,2.26,.18,.68,.23,1.23,.16,1.64-.05,.47-.2,.81-.43,1.04-.11,.25-.67,.54-1.69,.88-.87,.25-1.66,.47-2.36,.68-.5-.7-1.01-1.4-1.52-2.1-1.44,1.4-2.78,2.52-4.05,3.36-.69-.63-1.39-1.25-2.1-1.86,1.64-1.09,3.02-2.11,4.12-3.08,1.48-1.32,2.65-2.56,3.48-3.75-.13-.13-.26-.27-.39-.4-1.65,2.22-3.73,3.98-6.28,5.36-.65-.55-1.3-1.1-1.96-1.65,3.23-1.7,5.55-3.44,6.93-5.37-.08-.09-.17-.17-.26-.26-1.9,1.68-3.81,3.03-5.8,4.04-.68-.6-1.36-1.2-2.05-1.79,.96-.39,2.01-.95,3.18-1.67,1.23-.74,1.95-1.27,2.17-1.62-.88,.27-1.75,.54-2.62,.83-.24-.75-.49-1.5-.73-2.24,4.24-1.38,8.53-2.57,12.84-3.59,.18,.77,.36,1.53,.54,2.3-1.51,.36-3.01,.73-4.51,1.13-.22,.23-.44,.46-.66,.69,.26,.26,.52,.53,.78,.8,.85-.43,1.71-.84,2.58-1.25,.22,.39,.43,.76,.64,1.1,.66-.83,1.33-1.66,2.01-2.49m-17.06,3.9c-.54-1.56-1.09-3.13-1.64-4.69,2.72-.95,5.47-1.82,8.22-2.63l-.41-1.4c1.19-.35,2.39-.68,3.58-1,.13,.47,.25,.94,.38,1.41,2.77-.74,5.55-1.41,8.35-2,.35,1.62,.69,3.24,1.03,4.86-1.04,.22-2.08,.45-3.12,.7-.19-.82-.38-1.64-.57-2.46-4.59,1.07-9.14,2.34-13.64,3.81l.78,2.4c-.99,.32-1.98,.66-2.97,1m11.8,4.66c-.3,.65-1.01,1.44-2.11,2.39,.44-.13,.83-.25,1.16-.34,.39-.11,.66-.22,.81-.32,.46-.3,.5-.87,.14-1.73"/><path class="cls-2" d="M80.31,12.62c-.3-1.63-.6-3.25-.9-4.88-.51,.1-1.02,.19-1.54,.29-.17-.88-.34-1.76-.52-2.64,.89-.18,1.78-.34,2.67-.5l-.46-2.57c1.06-.19,2.12-.37,3.18-.54,.14,.86,.27,1.72,.41,2.57,.89-.14,1.78-.28,2.68-.4,.03,.24,.07,.48,.1,.73,.97-1.13,1.6-2.35,1.87-3.7,1.09,.05,2.18,.12,3.26,.19-.07,.55-.26,1.07-.59,1.54,2.7-.3,5.4-.54,8.11-.71,.06,.87,.11,1.73,.16,2.6-2.82,.18-5.63,.43-8.44,.75,.83,.18,1.65,.36,2.46,.55-.18,.32-.36,.64-.54,.96,1.99-.21,3.99-.38,5.99-.51l.17,2.52c-1.34,.09-2.69,.2-4.03,.32,.04,.46,.08,.92,.13,1.38,1.51-.14,3.01-.26,4.52-.35,.05,.87,.11,1.73,.17,2.6-1.25,.08-2.5,.17-3.75,.29,.63,1.2,2.23,2.25,4.74,3.24-.54,.93-1.08,1.86-1.6,2.8-1.89-.63-3.58-1.78-5.08-3.48-.37,.91-.94,1.79-1.69,2.64-.75,.85-1.57,1.53-2.47,2.03-.59-.85-1.19-1.7-1.8-2.55,.8-.44,1.55-1.07,2.26-1.87,.7-.86,1.14-1.64,1.29-2.37-1.25,.14-2.49,.3-3.74,.48-.12-.86-.24-1.72-.36-2.58,.53-.08,1.06-.15,1.59-.22-.72-.48-1.45-.95-2.18-1.42,.16,1.54,.32,3.08,.49,4.62,.13,1.3,.26,2.6,.39,3.89,.12,1.24-.34,1.94-1.39,2.1-.56,.09-1.11,.18-1.66,.27-.4-.7-.81-1.4-1.22-2.1-.1,1.06-.36,1.88-.77,2.45-.9-.69-1.81-1.37-2.73-2.05,.46-.92,.75-2,.87-3.24,.13-1.18,.12-2.23-.05-3.14m4.18,4.56c-.06-.71-.11-1.41-.17-2.12-.12-1.11-.24-2.21-.36-3.32-.21,.03-.41,.07-.62,.1,.33,2.75,.26,4.79-.2,6.14,.39-.07,.73-.13,1.02-.17,.27-.1,.38-.31,.33-.63m5.18-11.75c-.21,.03-.42,.05-.64,.08-.09,.28-.4,.76-.93,1.43-.52,.73-1.03,1.26-1.53,1.61-.78-.55-1.57-1.09-2.37-1.63-.54,.09-1.09,.17-1.64,.26,.12,.72,.24,1.44,.36,2.17,1.1-.18,2.21-.35,3.31-.51,.04,.24,.07,.48,.11,.72,1.64-1.28,2.75-2.64,3.32-4.13m-.83,5.76c.88-.11,1.76-.22,2.65-.32-.05-.46-.1-.92-.15-1.38-.39,.05-.77,.09-1.16,.13-.35,.54-.8,1.06-1.34,1.56"/><path class="cls-2" d="M101.35,15.17c1.5-2.12,2.74-4.46,3.68-7.05-.67,.15-1.74,.42-3.2,.83-.22-.75-.45-1.5-.68-2.25,1.49-.29,2.99-.56,4.49-.81,.27-.96,.47-2.14,.59-3.53,.97,.16,1.94,.32,2.91,.5-.3,.91-.59,1.83-.88,2.74,1.8-.27,3.02,.17,3.63,1.26,.52,.88,.6,2.2,.29,3.98-.17,1.04-.42,1.97-.75,2.79-.48,1.21-1.06,1.98-1.75,2.33-.59,.3-1.53,.39-2.8,.27-.2-.78-.39-1.56-.59-2.34,.97,.03,1.57,.02,1.8-.02,.32-.09,.6-.33,.83-.72,.42-.74,.73-1.54,.92-2.41,.24-.96,.27-1.72,.08-2.28-.13-.48-.45-.74-.93-.78-.29,0-.75,.02-1.37,.07-.98,3.13-2.39,6.02-4.16,8.69-.7-.43-1.4-.86-2.11-1.28m10.75-11.95c.43-.27,.85-.55,1.29-.82,.5,.62,1,1.24,1.5,1.87-.43,.25-.85,.49-1.27,.74-.5-.6-1-1.2-1.51-1.79m.16,2.81c.74-.4,1.48-.79,2.23-1.18,.84,1.2,1.71,3.15,2.57,5.85-.8,.31-1.59,.62-2.38,.94-.7-2.55-1.52-4.42-2.42-5.61m1.86-3.6c.43-.25,.86-.49,1.3-.74,.47,.63,.95,1.26,1.41,1.89-.43,.24-.86,.48-1.29,.72-.47-.63-.94-1.25-1.42-1.87"/><path class="cls-2" d="M127.52,5.42c-1.62-.19-3.24-.35-4.86-.48-.06,.76-.13,1.51-.19,2.27-1.09-.09-2.17-.17-3.26-.24,.1-1.63,.21-3.25,.31-4.88,2.9,.19,5.79,.44,8.67,.78,.07-.62,.15-1.24,.22-1.86,1.13,.13,2.25,.28,3.38,.43-.08,.62-.17,1.24-.25,1.85,2.91,.4,5.81,.88,8.7,1.43-.31,1.6-.61,3.2-.92,4.8-1.07-.21-2.15-.4-3.22-.58,.13-.75,.25-1.5,.38-2.25-2.73-.47-5.47-.86-8.21-1.19,.86,.32,1.71,.65,2.56,.99-.53,.69-1.05,1.39-1.56,2.09,3.44,.44,6.87,.99,10.29,1.65-.16,.83-.32,1.65-.48,2.48-1.26-.24-2.52-.47-3.78-.69-.7,1.64-1.58,2.84-2.63,3.61,2.19,1.38,3.83,2.57,4.99,3.51-.88,.68-1.76,1.38-2.63,2.08-1.61-1.5-3.28-2.75-4.99-3.76-.88,.53-2.12,1-3.7,1.41-2.05,.58-4.27,.72-6.72,.43-.38-.95-.77-1.9-1.17-2.85,3.86,.3,6.67,.12,8.51-.7-.77-.31-1.69-.69-2.75-1.12-.32,.35-.64,.7-.97,1.05-.9-.58-1.81-1.14-2.72-1.7,1.02-1.18,2.06-2.34,3.11-3.5-1.68-.15-3.37-.29-5.05-.39,.05-.84,.1-1.68,.15-2.52,2.29,.14,4.57,.33,6.85,.56,.64-.92,1.29-1.83,1.95-2.73m4.5,6.09c-1.5-.22-3-.42-4.5-.6-.52,.57-1.02,1.14-1.53,1.71,1.76,.63,3.02,1.15,3.79,1.53,.39-.28,.83-.68,1.32-1.21,.44-.54,.75-1.01,.93-1.43"/><path class="cls-2" d="M140.3,17.27c.97-.96,1.85-2.24,2.63-3.85,.55-1.1,1-2.31,1.36-3.62,1.01,.39,2.01,.79,3.01,1.21-.31,1.27-.89,2.74-1.72,4.44-.86,1.8-1.73,3.07-2.61,3.82-.87-.68-1.76-1.34-2.66-2m12.52,2.49c.2-.48,.41-.95,.61-1.43,.95,.54,1.89,1.08,2.83,1.64-.71,1.82-1.39,3.09-2.03,3.8-.76,.9-1.76,1.15-3.01,.79-1.25-.37-2.5-.72-3.76-1.06-1.63-.44-2.28-1.35-1.93-2.77,.91-3.66,1.82-7.32,2.73-10.98,1.08,.27,2.15,.55,3.22,.84-.86,3.17-1.72,6.34-2.58,9.5-.09,.31-.09,.54,0,.67,.14,.15,.4,.28,.79,.38,.58,.16,1.17,.33,1.75,.5,.26,.14,.54-.1,.84-.69,.14-.3,.32-.7,.53-1.2m-3.5-12.69c.68-.64,1.36-1.28,2.06-1.91,2.02,1.31,4.06,3.07,6.06,5.28-.82,.65-1.64,1.32-2.44,1.98-.49-.71-1.31-1.63-2.49-2.75-1.28-1.2-2.35-2.06-3.18-2.61m6.63,6.66c1.13-.05,2.27-.09,3.41-.11,.23,.88,.44,2.38,.61,4.5,.14,2,.19,3.54,.18,4.63-1.1,.04-2.2,.1-3.29,.17,.23-3.47-.07-6.53-.92-9.18"/><path class="cls-2" d="M165.98,18.88c5.17,1.98,10.25,4.25,15.24,6.79-.29,.56-.57,1.12-.86,1.68-4.93-2.51-9.96-4.75-15.06-6.71,.23-.59,.45-1.18,.68-1.77"/><path class="cls-2" d="M162,27.06h.41v-.96h.6c.38,0,.47,.19,.47,.62,0,.12,0,.24,.06,.34h.44c-.09-.09-.13-.34-.13-.62,0-.37-.21-.48-.35-.5h0c.08-.03,.39-.15,.39-.6,0-.4-.26-.63-.78-.63h-1.12v2.35Zm.41-2.01h.67c.21,0,.41,.06,.41,.36,0,.25-.14,.38-.4,.38h-.67v-.73"/><path class="cls-2" d="M164.86,25.9c0,1.09-.88,1.97-1.97,1.97s-1.97-.88-1.97-1.97,.88-1.97,1.97-1.97,1.97,.88,1.97,1.97m-1.98-1.68c-.92,0-1.68,.75-1.68,1.68s.75,1.68,1.68,1.68,1.68-.75,1.68-1.68-.75-1.68-1.68-1.68"/></g><g><path class="cls-1" d="M36.32,24.68c4.99-2.54,10.08-4.81,15.25-6.79,.22,.59,.45,1.18,.68,1.76-5.1,1.96-10.14,4.2-15.07,6.71-.28-.56-.57-1.12-.86-1.68"/><path class="cls-1" d="M72.56,10.32c.9,.52,1.78,1.04,2.66,1.57-.87,1.07-1.72,2.16-2.55,3.25,.99,1.11,2.73,1.92,5.2,2.52-.5,.99-.99,1.98-1.46,2.97-1.11-.31-2.27-.82-3.51-1.53-1.22-.65-2.37-1.54-3.45-2.66,.14,.3,.28,.6,.42,.9,.28,.6,.5,1.36,.67,2.26,.18,.68,.23,1.23,.16,1.64-.05,.47-.2,.81-.43,1.04-.11,.25-.67,.54-1.69,.88-.87,.25-1.66,.47-2.36,.68-.5-.7-1.01-1.4-1.52-2.1-1.44,1.4-2.78,2.52-4.05,3.36-.69-.63-1.39-1.25-2.1-1.86,1.64-1.09,3.02-2.11,4.12-3.08,1.48-1.32,2.65-2.56,3.48-3.75-.13-.13-.26-.27-.39-.4-1.65,2.22-3.73,3.98-6.28,5.36-.65-.55-1.3-1.1-1.96-1.65,3.23-1.7,5.55-3.44,6.93-5.37-.08-.09-.17-.17-.26-.26-1.9,1.68-3.81,3.03-5.8,4.04-.68-.6-1.36-1.2-2.05-1.79,.96-.39,2.01-.95,3.18-1.67,1.23-.74,1.95-1.27,2.17-1.62-.88,.27-1.75,.54-2.62,.83-.24-.75-.49-1.5-.73-2.24,4.24-1.38,8.53-2.57,12.84-3.59,.18,.77,.36,1.53,.54,2.3-1.51,.36-3.01,.73-4.51,1.13-.22,.23-.44,.46-.66,.69,.26,.26,.52,.53,.78,.8,.85-.43,1.71-.84,2.58-1.25,.22,.39,.43,.76,.64,1.1,.66-.83,1.33-1.66,2.01-2.49m-17.06,3.9c-.54-1.56-1.09-3.13-1.64-4.69,2.72-.95,5.47-1.82,8.22-2.63l-.41-1.4c1.19-.35,2.39-.68,3.58-1,.13,.47,.25,.94,.38,1.41,2.77-.74,5.55-1.41,8.35-2,.35,1.62,.69,3.24,1.03,4.86-1.04,.22-2.08,.45-3.12,.7-.19-.82-.38-1.64-.57-2.46-4.59,1.07-9.14,2.34-13.64,3.81l.78,2.4c-.99,.32-1.98,.66-2.97,1m11.8,4.66c-.3,.65-1.01,1.44-2.11,2.39,.44-.13,.83-.25,1.16-.34,.39-.11,.66-.22,.81-.32,.46-.3,.5-.87,.14-1.73"/><path class="cls-1" d="M79.82,11.63c-.3-1.63-.6-3.25-.9-4.88-.51,.1-1.02,.19-1.54,.29-.17-.88-.34-1.76-.52-2.64,.89-.18,1.78-.34,2.67-.5l-.46-2.57c1.06-.19,2.12-.37,3.18-.54,.14,.86,.27,1.72,.41,2.57,.89-.14,1.78-.28,2.68-.4,.03,.24,.07,.48,.1,.73,.97-1.13,1.6-2.35,1.87-3.7,1.09,.05,2.18,.12,3.26,.19-.07,.55-.26,1.07-.59,1.54,2.7-.3,5.4-.54,8.11-.71,.06,.87,.11,1.73,.16,2.6-2.82,.18-5.63,.43-8.44,.75,.83,.18,1.65,.36,2.46,.55-.18,.32-.36,.64-.54,.96,1.99-.21,3.99-.38,5.99-.51l.17,2.52c-1.34,.09-2.69,.2-4.03,.32,.04,.46,.08,.92,.13,1.38,1.51-.14,3.01-.26,4.52-.35,.05,.87,.11,1.73,.17,2.6-1.25,.08-2.5,.17-3.75,.29,.63,1.2,2.23,2.25,4.74,3.24-.54,.93-1.08,1.86-1.6,2.8-1.89-.63-3.58-1.78-5.08-3.48-.37,.91-.94,1.79-1.69,2.64-.75,.85-1.57,1.53-2.47,2.03-.59-.85-1.19-1.7-1.8-2.55,.8-.44,1.55-1.07,2.26-1.87,.7-.86,1.14-1.64,1.29-2.37-1.25,.14-2.49,.3-3.74,.48-.12-.86-.24-1.72-.36-2.58,.53-.08,1.06-.15,1.59-.22-.72-.48-1.45-.95-2.18-1.42,.16,1.54,.32,3.08,.49,4.62,.13,1.3,.26,2.6,.39,3.89,.12,1.24-.34,1.94-1.39,2.1-.56,.09-1.11,.18-1.66,.27-.4-.7-.81-1.4-1.22-2.1-.1,1.06-.36,1.88-.77,2.45-.9-.69-1.81-1.37-2.73-2.05,.46-.92,.75-2,.87-3.24,.13-1.18,.12-2.23-.05-3.14m4.18,4.56c-.06-.71-.11-1.41-.17-2.12-.12-1.11-.24-2.21-.36-3.32-.21,.03-.41,.07-.62,.1,.33,2.75,.26,4.79-.2,6.14,.39-.07,.73-.13,1.02-.17,.27-.1,.38-.31,.33-.63m5.18-11.75c-.21,.03-.42,.05-.64,.08-.09,.28-.4,.76-.93,1.43-.52,.73-1.03,1.26-1.53,1.61-.78-.55-1.57-1.09-2.37-1.63-.54,.09-1.09,.17-1.64,.26,.12,.72,.24,1.44,.36,2.17,1.1-.18,2.21-.35,3.31-.51,.04,.24,.07,.48,.11,.72,1.64-1.28,2.75-2.64,3.32-4.13m-.83,5.76c.88-.11,1.76-.22,2.65-.32-.05-.46-.1-.92-.15-1.38-.39,.05-.77,.09-1.16,.13-.35,.54-.8,1.06-1.34,1.56"/><path class="cls-1" d="M100.85,14.18c1.5-2.12,2.74-4.46,3.68-7.05-.67,.15-1.74,.42-3.2,.83-.22-.75-.45-1.5-.68-2.25,1.49-.29,2.99-.56,4.49-.81,.27-.96,.47-2.14,.59-3.53,.97,.16,1.94,.32,2.91,.5-.3,.91-.59,1.83-.88,2.74,1.8-.27,3.02,.17,3.63,1.26,.52,.88,.6,2.2,.29,3.98-.17,1.04-.42,1.97-.75,2.79-.48,1.21-1.06,1.98-1.75,2.33-.59,.3-1.53,.39-2.8,.27-.2-.78-.39-1.56-.59-2.34,.97,.03,1.57,.02,1.8-.02,.32-.09,.6-.33,.83-.72,.42-.74,.73-1.54,.92-2.41,.24-.96,.27-1.72,.08-2.28-.13-.48-.45-.74-.93-.78-.29,0-.75,.02-1.37,.07-.98,3.13-2.39,6.02-4.16,8.69-.7-.43-1.4-.86-2.11-1.28m10.75-11.95c.43-.27,.85-.55,1.29-.82,.5,.62,1,1.24,1.5,1.87-.43,.25-.85,.49-1.27,.74-.5-.6-1-1.2-1.51-1.79m.16,2.81c.74-.4,1.48-.79,2.23-1.18,.84,1.2,1.71,3.15,2.57,5.85-.8,.31-1.59,.62-2.38,.94-.7-2.55-1.52-4.42-2.42-5.61m1.86-3.6c.43-.25,.86-.49,1.3-.74,.47,.63,.95,1.26,1.41,1.89-.43,.24-.86,.48-1.29,.72-.47-.63-.94-1.25-1.42-1.87"/><path class="cls-1" d="M127.03,4.43c-1.62-.19-3.24-.35-4.86-.48-.06,.76-.13,1.51-.19,2.27-1.09-.09-2.17-.17-3.26-.24,.1-1.63,.21-3.25,.31-4.88,2.9,.19,5.79,.44,8.67,.78,.07-.62,.15-1.24,.22-1.86,1.13,.13,2.25,.28,3.38,.43-.08,.62-.17,1.24-.25,1.85,2.91,.4,5.81,.88,8.7,1.43-.31,1.6-.61,3.2-.92,4.8-1.07-.21-2.15-.4-3.22-.58,.13-.75,.25-1.5,.38-2.25-2.73-.47-5.47-.86-8.21-1.19,.86,.32,1.71,.65,2.56,.99-.53,.69-1.05,1.39-1.56,2.09,3.44,.44,6.87,.99,10.29,1.65-.16,.83-.32,1.65-.48,2.48-1.26-.24-2.52-.47-3.78-.69-.7,1.64-1.58,2.84-2.63,3.61,2.19,1.38,3.83,2.57,4.99,3.51-.88,.68-1.76,1.38-2.63,2.08-1.61-1.5-3.28-2.75-4.99-3.76-.88,.53-2.12,1-3.7,1.41-2.05,.58-4.27,.72-6.72,.43-.38-.95-.77-1.9-1.17-2.85,3.86,.3,6.67,.12,8.51-.7-.77-.31-1.69-.69-2.75-1.12-.32,.35-.64,.7-.97,1.05-.9-.58-1.81-1.14-2.72-1.7,1.02-1.18,2.06-2.34,3.11-3.5-1.68-.15-3.37-.29-5.05-.39,.05-.84,.1-1.68,.15-2.52,2.29,.14,4.57,.33,6.85,.56,.64-.92,1.29-1.83,1.95-2.73m4.5,6.09c-1.5-.22-3-.42-4.5-.6-.52,.57-1.02,1.14-1.53,1.71,1.76,.63,3.02,1.15,3.79,1.53,.39-.28,.83-.68,1.32-1.21,.44-.54,.75-1.01,.93-1.43"/><path class="cls-1" d="M139.81,16.29c.97-.96,1.85-2.24,2.63-3.85,.55-1.1,1-2.31,1.36-3.62,1.01,.39,2.01,.79,3.01,1.21-.31,1.27-.89,2.74-1.72,4.44-.86,1.8-1.73,3.07-2.61,3.82-.87-.68-1.76-1.34-2.66-2m12.52,2.49c.2-.48,.41-.95,.61-1.43,.95,.54,1.89,1.08,2.83,1.64-.71,1.82-1.39,3.09-2.03,3.8-.76,.9-1.76,1.15-3.01,.79-1.25-.37-2.5-.72-3.76-1.06-1.63-.44-2.28-1.35-1.93-2.77,.91-3.66,1.82-7.32,2.73-10.98,1.08,.27,2.15,.55,3.22,.84-.86,3.17-1.72,6.34-2.58,9.5-.09,.31-.09,.54,0,.67,.14,.15,.4,.28,.79,.38,.58,.16,1.17,.33,1.75,.5,.26,.14,.54-.1,.84-.69,.14-.3,.32-.7,.53-1.2m-3.5-12.69c.68-.64,1.36-1.28,2.06-1.91,2.02,1.31,4.06,3.07,6.06,5.28-.82,.65-1.64,1.32-2.44,1.98-.49-.71-1.31-1.63-2.49-2.75-1.28-1.2-2.35-2.06-3.18-2.61m6.63,6.66c1.13-.05,2.27-.09,3.41-.11,.23,.88,.44,2.38,.61,4.5,.14,2,.19,3.54,.18,4.63-1.1,.04-2.2,.1-3.29,.17,.23-3.47-.07-6.53-.92-9.18"/><path class="cls-1" d="M165.49,17.89c5.17,1.98,10.25,4.25,15.24,6.79-.29,.56-.57,1.12-.86,1.68-4.93-2.51-9.96-4.75-15.06-6.71,.23-.59,.45-1.18,.68-1.77"/><path class="cls-1" d="M161.5,26.07h.41v-.96h.6c.38,0,.47,.19,.47,.62,0,.12,0,.24,.06,.34h.44c-.09-.09-.13-.34-.13-.62,0-.37-.21-.48-.35-.5h0c.08-.03,.39-.15,.39-.6,0-.4-.26-.63-.78-.63h-1.12v2.35Zm.41-2.01h.67c.21,0,.41,.06,.41,.36,0,.25-.14,.38-.4,.38h-.67v-.73"/><path class="cls-1" d="M164.37,24.92c0,1.09-.88,1.97-1.97,1.97s-1.97-.88-1.97-1.97,.88-1.97,1.97-1.97,1.97,.88,1.97,1.97m-1.98-1.68c-.92,0-1.68,.75-1.68,1.68s.75,1.68,1.68,1.68,1.68-.75,1.68-1.68-.75-1.68-1.68-1.68"/></g></g><g><path class="cls-3" d="M41.84,61.87c.22,.14,.74,.48,1.3,.96,.86-.79,1.1-1.27,1.37-1.78h-2.06c-1.73,1.39-3.6,2.06-4.42,2.38l-.86-.94c2.62-1.51,3.74-3.31,4.2-4.27h-3.98v-1.35h21.36v1.35h-6.05v1.92c.48-.14,2.04-.6,3.55-1.82l1.92,1.8c.14,.12,.19,.17,.19,.24,0,.24-.46,.24-.6,.24-1.87,.58-3.6,.82-5.06,.89v1.49c0,.74,.05,.94,.98,.94h1.39c.96,0,1.35-.14,1.73-2.33,.77,.5,1.54,.77,2.5,.91-.58,2.62-1.56,2.74-3.05,2.74h-4.18c-2.59,0-2.59-.6-2.59-2.52v-4.49h-4.63c-.46,.74-.79,1.2-1.06,1.51h4.9c-1.54,4.42-5.5,6.05-11.09,7.08l-.82-1.22c.7-.14,2.76-.62,4.54-1.54-.24-.55-.43-.91-.72-1.37l1.25-.82Zm4.32,3.94c.19,0,.41,.02,.41,.19,0,.14-.1,.34-.19,.48,0,.29,0,.48-.02,.77h4.25c0-.43-.02-.84-.12-1.46l3.41,.02c.07,0,.22,.07,.22,.22s-.07,.31-.14,.43v.79h5.33v1.34h-5.33v4.9h-3.36v-4.9h-4.49c-.86,3.29-3.46,4.34-7.9,4.99l-.94-1.2c3.12-.72,4.87-1.63,5.4-3.79h-5.76v-1.34h5.93c.02-.7-.05-1.1-.09-1.46l3.41,.02Zm-3.7-13.23c0-.55-.02-1.01-.1-1.51l3.22,.05c.14,0,.31,.02,.31,.19,0,.12-.1,.31-.14,.43v1.44h4.68v-.6c0-.55-.02-1.01-.1-1.51l3.22,.05c.14,0,.29,.02,.29,.19,0,.12-.07,.31-.12,.43v1.44h5.57v1.34h-5.57v1.61h-3.29v-1.61h-4.68v1.61h-3.29v-1.61h-5.47v-1.34h5.47v-.6Z"/><path class="cls-3" d="M66.36,73.47h-3.07v-12.55c-.79,1.06-1.13,1.42-1.56,1.87l-.94-1.1c1.85-2.93,3.38-6.94,3.82-10.95l3.46,.77c.07,.02,.14,.07,.14,.14,0,.19-.17,.43-.26,.55-.24,.65-.65,1.73-1.58,3.62v17.64Zm8.81-11.16s.07,.07,.07,.12c0,.07-.22,.17-.5,.14-.41,.1-.74,.19-1.73,.34v1.61h3c-.05-.5-.24-2.74-.29-3.19h3.12c.14,0,.22,.1,.22,.22,0,.1-.05,.24-.07,.31-.05,.12-.07,.79-.07,1.2,0,.67,.02,1.18,.05,1.46h2.14c-.41-.79-.84-1.58-1.66-2.62l1.1-.79c.91,.43,2.4,1.22,3.17,1.87l-2.38,1.54h2.42v1.34h-4.7c.12,1.32,.24,1.85,.36,2.3,1.18-1.08,1.39-1.46,1.8-2.23l2.28,1.27c.07,.05,.12,.12,.12,.19,0,.17-.21,.26-.38,.34-.6,.6-1.49,1.44-3.07,2.45,.17,.29,.58,1.01,1.08,1.01,.67,0,1.2-1.73,1.25-1.87,.48,.43,.86,.74,1.78,1.1-1.1,2.88-2.31,3.14-3.31,3.14-2.04,0-2.88-1.41-3.24-2.06-1.61,.72-2.54,1.01-3.31,1.25l-.82-1.18c.77-.29,1.85-.74,3.41-1.66-.55-1.66-.7-2.78-.84-4.06h-3.14v1.73c1.15-.22,1.87-.38,2.47-.55l-.17,1.39c-.14,.05-1.99,.58-2.3,.65v2.3c0,1.78-.62,2.06-2.09,2.06h-2.81l-.43-1.54c.43,.1,1.01,.19,1.68,.19s.7-.24,.7-.82v-1.42l-2.04,.53c-.07,.07-.12,.12-.31,.12-.05,0-.17-.02-.19-.1l-.58-2.11c1.32-.02,1.42-.02,3.12-.24v-2.21h-3.02v-1.34h3.02v-1.27c-1.03,.1-1.46,.12-2.21,.14l-.62-1.32c1.9-.1,5.04-.46,6.5-1.35h-6.67v-1.32h6.7v-1.46h-4.95v-1.34h4.95v-1.46h-5.86v-1.32h3.29c-.07-.19-.19-.53-.43-.94-.5-.91-.55-1.03-.7-1.3l1.22-.62c.86,.41,2.28,1.2,3.19,1.92l-2.28,.94h5.16l-1.22-.46c.58-1.01,.84-1.44,.98-2.42l3.5,.86s.07,.02,.07,.07c0,.1-.07,.19-.5,.38-.98,.72-1.44,1.06-2.38,1.56h5.04v1.32h-5.86v1.46h4.85v1.34h-4.85v1.46h6.79v1.32h-10.03l1.42,1.58Z"/><path class="cls-3" d="M95.43,55.71v-2.93c0-.26-.02-1.32-.05-1.8l3.31,.05s.19,.05,.19,.24c0,.14-.02,.24-.12,.55v3.89h8.26v1.32h-8.26v6.12h7.1v1.34h-7.1v7.06h9.5v1.32h-22.3v-1.32h9.46v-7.06h-7.1v-1.34h7.1v-6.12h-5.23c-1.58,2.62-2.98,4.03-3.58,4.63l-1.13-.77c.65-.94,2.81-4.18,3.41-9.53l3.48,.7c.09,.02,.09,.1,.09,.24,0,.17,0,.22-.19,.38-.46,1.25-.82,2.09-1.32,3.02h4.46Z"/><path class="cls-3" d="M124.87,55.08l-1.1-.67c.62-.91,1.44-2.47,1.73-3.67l3.74,1.51s.05,.1,.05,.12c0,.14-.26,.26-.41,.34-1.42,1.1-3.31,2.21-3.62,2.38h7.56v1.34h-22.35v-1.34h5.62c-.48-1.22-1.01-2.33-1.75-3.48l1.23-.82c1.63,.98,3.19,1.97,4.25,2.98l-2.69,1.32h7.75Zm-3.84,3.05v12.84c0,1.61-.26,2.23-2.47,2.23h-2.16l-.48-1.42c.26,.05,.89,.17,1.39,.17,.7,0,.7-.26,.7-.79v-3.46h-3.24v5.71h-3.07v-15.29h9.34Zm-3.02,1.34h-3.24v2.69h3.24v-2.69Zm0,4.01h-3.24v2.9h3.24v-2.9Zm8.06-4.42s.19,.1,.19,.34c0,.12-.05,.24-.14,.43v10.15h-3v-9.22c0-.77-.02-1.37-.07-1.75l3.02,.05Zm5.21-.89c.07,0,.24,.14,.24,.31,0,.14-.02,.29-.1,.48v11.91c0,1.3-.07,2.4-2.62,2.4h-3.14l-.5-1.49c.48,.07,1.51,.19,2.16,.19,.72,0,.89-.24,.89-1.22v-11.16c0-.41-.02-.91-.05-1.46l3.12,.05Z"/><path class="cls-3" d="M147.8,63.29c.07,.05,.14,.14,.14,.26,0,.07-.46,1.51-.53,1.66h9.84v1.35h-8.57c2.18,3.98,6.55,5.11,8.83,5.71l-.79,1.3c-4.9-.84-8.57-2.57-10.71-5.45-2.45,3.55-7.03,4.9-10.49,5.45l-.82-1.37c6-1.25,7.85-3.79,8.74-5.64h-8.54v-1.35h9.05c.26-.86,.29-1.42,.29-2.04l2.33,.1-1.01-.96c1.49-1.39,3.24-3.02,3.02-8.71h-2.21v-1.32h10.42c0,10.47-.46,11.18-4.06,11.18h-2.52l-.46-1.49c.6,.14,1.42,.19,1.7,.19,1.1,0,1.58-.17,1.82-1.54,.09-.6,.33-2.52,.29-7.03h-1.7c-.12,3.14-.29,7.06-5.26,9.67l1.18,.02Zm-2.09-10.2v1.34h-3.26v2.42h2.95v1.34h-2.95v2.43c.5-.1,2.76-.5,3.22-.6l-.17,1.34c-2.14,.7-6.29,1.75-9.43,2.57-.07,.07-.21,.24-.38,.24-.05,0-.19,0-.22-.12l-.55-2.23c.86-.05,2.95-.38,4.3-.6v-3.02h-3.34v-1.34h3.34v-2.42h-3.86v-1.34h3.86v-.55c0-.48,0-.6-.05-1.51l3.24,.05c.1,.02,.17,.12,.17,.29,0,.12-.02,.19-.12,.43v1.3h3.26Z"/><path class="cls-3" d="M162.88,65.43c.12,.02,.17,.12,.17,.26,0,.1-.17,.36-.21,.46-.5,2.02-1.22,4.2-2.5,6.31l-1.3-.43c1.1-3.05,1.06-5.54,1.03-7.15l2.81,.55Zm6.58-10.27c.07,.02,.1,.12,.1,.19,0,.14-.05,.17-.41,.41-1.8,2.11-3.74,4.11-5.71,6.02,.67-.05,3.17-.26,3.74-.31-.34-.89-.5-1.27-.72-1.7l1.06-.55c.29,.31,2.21,2.3,3.38,4.3l-2.71,1.27c.65,.91,2.28,3.72,2.83,5.21l-2.95,1.54c-.1-2.35-.58-4.61-1.2-6.34l1.18-.6c-.02-.19-.14-.77-.48-1.92-.72,.19-1.06,.26-1.39,.34v10.49h-2.98v-9.84c-1.56,.31-1.92,.38-2.78,.53-.09,.07-.29,.24-.38,.24-.07,0-.26-.1-.29-.17l-.55-2.38c.96,.05,1.13,.05,1.99,.02,.46-.55,1.03-1.27,1.87-2.47-.74-1.15-1.94-2.64-3.7-4.42l.84-1.01c.46,.29,.77,.46,1.66,1.1,.72-1.42,1.34-2.76,1.58-4.27l2.88,1.01s.07,.12,.07,.17c0,.14-.22,.31-.38,.41-.94,1.37-2.26,2.93-2.93,3.6,.58,.43,.98,.79,1.49,1.22,1.27-1.97,1.49-2.52,1.78-3.38l3.12,1.3Zm11.95,.55c.07,6.55-.31,13.3-.91,15.14-.74,2.3-2.78,2.4-3.67,2.4h-3.98l-.41-1.61c.67,.14,1.44,.31,2.95,.31,.96,0,1.61-.14,2.04-1.8,.62-2.35,.72-10.39,.65-13.13h-5.33c-1.22,1.63-2.26,2.62-2.98,3.26l-1.22-.72c1.49-1.8,3.19-5.45,3.58-8.62l3.58,.89c.07,.02,.14,.12,.14,.19,0,.14-.02,.17-.34,.58-.36,.67-.84,1.63-1.8,3.1h7.7Zm-8.21,12.17c-.38-2.4-1.2-4.9-2.21-6.79l1.18-.82c1.42,1.35,3.7,4.25,4.3,5.45l-3.26,2.16Z"/></g></g><path class="cls-4" d="M193.69,38.38h18.39c3.08,0,5.59,2.5,5.59,5.59v28.45c0,3.08-2.5,5.59-5.59,5.59H5.84c-3.08,0-5.59-2.5-5.59-5.59v-28.45c0-3.08,2.5-5.59,5.59-5.59l18.55,.06"/></g></g></svg>