<?xml version="1.0" encoding="UTF-8"?><svg id="_イヤー_2" xmlns="http://www.w3.org/2000/svg" viewBox="0 0 200 63.3"><defs><style>.cls-1{fill:#74206a;}.cls-2{fill:#c8c9c9;}</style></defs><g id="main"><g><path class="cls-2" d="M18.72,34.15c-.15,.28-.36,.41-.88,.41h-6.42c1.59,1.89,4.73,3.33,7.54,3.98l-.02,.2c-.51,.08-.88,.45-1.03,1.03-2.86-1.01-5.59-2.8-6.97-5.21h-.11v4.03c0,.1-.41,.41-1.01,.41h-.19v-4.06c-1.85,2.26-4.67,4.09-7.89,5.29l-.19-.32c2.7-1.33,5.16-3.31,6.71-5.37H1.93l-.13-.45h7.83v-2.38c-2.08,.19-4.26,.32-6.36,.32l-.04-.37c4.15-.3,9.27-1.16,11.98-1.97l1.33,1.31c-.07,.08-.21,.11-.36,.11-.17,0-.37-.06-.61-.15-1.35,.22-2.97,.45-4.75,.63v2.49h5.4l.84-1.09,1.65,1.12Zm-4.54,5.42l.56-.73,1.55,1.12c-.11,.13-.39,.28-.73,.35v6.23c0,.05-.35,.41-1.21,.41v-1.13H6.1v.8s-.15,.43-1.21,.43v-8.1l1.33,.6h7.96Zm.17,.45H6.1v2.4H14.35v-2.4Zm-8.25,5.37H14.35v-2.53H6.1v2.53Z"/><path class="cls-2" d="M24.25,30.86c.11-.23,.49-.39,.77-.39,.71,0,1.61,.8,1.61,1.76,0,.39-.32,.79-.54,1.14-.69,1.2-1.1,3.08-1.1,4.26,0,.34,.04,.62,.11,.81h.04c.73-2.04,2.54-5.93,5.16-5.93,.61,0,1.42,.26,2,.8,.95,.91,1.5,2.54,1.51,5.18,0,3.94-2.02,7.08-8.08,8.17l-.2-.39c4.69-1.12,6.94-4.06,6.94-7.67,0-2.41-.24-4.02-1.08-4.82-.36-.35-.82-.58-1.36-.58-2.17,0-3.78,3.48-4.3,6.32,.05,.34,.11,.71,.11,1.03,0,.41-.1,.71-.38,.71-.95,0-1.47-1.78-1.47-2.79,0-3.23,1.12-5.23,1.12-6.39,0-.92-.5-1.18-.8-1.18l-.04-.04Z"/><path class="cls-2" d="M47.02,45.14c5.16-.71,7.07-3.48,7.07-6.47,0-3.4-1.59-6.28-5.81-6.28-.36,0-1.12,.07-1.59,.19,.45,.32,.71,1.07,.71,1.87,0,3.44-2.45,9.2-5.24,9.2-1.33,0-2.26-1.57-2.26-3.91,0-4.32,3.53-7.89,8.47-7.89,4.6,0,7.09,2.86,7.09,6.91,0,3.5-2.32,6.3-8.3,6.82l-.13-.45Zm-.84-12.45c-2.84,.69-5.16,3.4-5.16,7.01,0,1.46,.45,2.64,1.22,2.64,2.13,0,4.24-5.34,4.24-8.41,0-.5-.15-1.07-.3-1.23"/><path class="cls-2" d="M73.27,31.27l1.74,1.25c-.15,.28-.37,.39-.91,.39h-13.42v4.19c0,3.05-.15,7.14-2.7,9.98l-.3-.21c1.66-2.88,1.79-6.45,1.79-9.76v-5.27l1.42,.61h5.31v-2.73l2.08,.19c-.04,.28-.24,.41-.88,.51v2.04h4.96l.92-1.19Zm-1.18,5.49l.88-1.14,1.65,1.2c-.15,.28-.37,.39-.88,.39h-5.84v3.35h3.67l.56-.73,1.48,1.14c-.11,.13-.3,.24-.67,.3v5.25s-.21,.38-1.2,.38v-1.03h-8.21v.79c0,.09-.39,.39-.99,.39h-.19v-7.08l1.38,.6h2.95v-6.92l2.1,.19c-.02,.3-.22,.41-.88,.5v2.43h4.19Zm-.36,4.25h-8.21v4.41h8.21v-4.41Z"/><path class="cls-1" d="M17.16,33.11c-.15,.28-.36,.41-.88,.41h-6.41c1.59,1.89,4.73,3.33,7.53,3.98l-.02,.2c-.5,.07-.88,.45-1.03,1.03-2.86-1.01-5.59-2.8-6.98-5.22h-.11v4.04c0,.1-.41,.41-1.01,.41h-.18v-4.06c-1.85,2.27-4.68,4.1-7.89,5.29l-.19-.32c2.69-1.33,5.16-3.31,6.71-5.36H.37l-.13-.45h7.84v-2.37c-2.08,.19-4.26,.32-6.36,.32l-.04-.37c4.15-.3,9.27-1.16,11.98-1.97l1.33,1.31c-.07,.08-.2,.11-.36,.11-.17,0-.37-.06-.62-.15-1.35,.22-2.97,.45-4.75,.64v2.49h5.4l.84-1.09,1.65,1.12Zm-4.54,5.42l.56-.73,1.55,1.12c-.11,.13-.39,.28-.73,.36v6.22c0,.06-.35,.41-1.21,.41v-1.12H4.54v.8s-.15,.43-1.21,.43v-8.09l1.33,.6h7.96Zm.17,.45H4.54v2.39H12.79v-2.39Zm-8.25,5.37H12.79v-2.53H4.54v2.53Z"/><path class="cls-1" d="M22.69,29.82c.11-.22,.49-.39,.77-.39,.71,0,1.61,.8,1.61,1.76,0,.39-.32,.78-.54,1.14-.69,1.19-1.1,3.08-1.1,4.26,0,.33,.04,.62,.11,.8h.04c.73-2.04,2.54-5.93,5.16-5.93,.62,0,1.42,.26,2,.8,.95,.92,1.49,2.54,1.51,5.18,0,3.94-2.02,7.08-8.08,8.17l-.2-.39c4.69-1.12,6.94-4.05,6.94-7.67,0-2.41-.24-4.02-1.09-4.82-.36-.35-.82-.58-1.36-.58-2.16,0-3.78,3.48-4.3,6.32,.06,.34,.11,.71,.11,1.03,0,.41-.09,.71-.37,.71-.95,0-1.48-1.78-1.48-2.79,0-3.24,1.12-5.23,1.12-6.39,0-.91-.5-1.18-.8-1.18l-.04-.04Z"/><path class="cls-1" d="M45.46,44.1c5.16-.71,7.07-3.47,7.07-6.47,0-3.4-1.59-6.28-5.81-6.28-.35,0-1.12,.07-1.59,.18,.45,.32,.71,1.07,.71,1.87,0,3.44-2.45,9.2-5.24,9.2-1.33,0-2.26-1.57-2.26-3.91,0-4.32,3.54-7.89,8.47-7.89,4.59,0,7.09,2.86,7.09,6.92,0,3.5-2.32,6.3-8.3,6.82l-.13-.45Zm-.84-12.45c-2.84,.69-5.16,3.41-5.16,7.01,0,1.46,.45,2.64,1.22,2.64,2.13,0,4.24-5.35,4.24-8.41,0-.5-.15-1.07-.3-1.24"/><path class="cls-1" d="M71.71,30.23l1.74,1.25c-.15,.28-.37,.4-.91,.4h-13.42v4.19c0,3.04-.15,7.14-2.69,9.98l-.3-.2c1.66-2.88,1.79-6.45,1.79-9.76v-5.27l1.42,.62h5.31v-2.73l2.07,.18c-.03,.28-.24,.41-.88,.5v2.04h4.95l.91-1.2Zm-1.17,5.5l.88-1.14,1.64,1.19c-.15,.29-.37,.4-.88,.4h-5.83v3.34h3.66l.56-.72,1.48,1.14c-.11,.13-.3,.25-.67,.3v5.26s-.21,.38-1.2,.38v-1.03h-8.21v.79c0,.09-.39,.39-.99,.39h-.19v-7.09l1.39,.6h2.95v-6.91l2.09,.19c-.01,.3-.22,.41-.87,.5v2.43h4.19Zm-.36,4.24h-8.21v4.41h8.21v-4.41Z"/><path class="cls-2" d="M184.57,57.68v-.22l-.11-.56-.22-.12-.22-.22-3.93-1.68-1.01-.45h-.33l-1.35-.34-.67-.22-2.14-.9-.56-.22h-.23v-.11l-.33-.23-.78-.56h-.12l-.22-.23h-.22l-.35-.12-1-1.23-.67-.67-.22-.22-.34-.34-.22-.45-.33-.34-.79-.78-.46-.67-.33-.22v-.23l-.34-.11-.22-.23-.22-.23-.11-.34v-.79l.11-.22,1.01,.22,.56-.22h.79l.67-.11,.78,.11h.34l.45,.22,.11-.22,.22,.22h.34l.67,.23h.12l.22,.33,.22-.11,.34,.33h.22l.34,.22h.22l.12,.11,.45-.11,.57-.22,.34-.79h.34c0-1.68,.45-2.57-.9-3.7h-.22l-.34-.57-.34-.22-1-.33c-.56,.11-.56-.68-1.35-.46-.68-1.45-2.24,1.35-6.51,1.13l.11-1.68v-2.26l1.01-.55,.67-.34h1.24v-.22h.33l.9-.22,1.12-.12h1.58c1.12-.56,1.9-.56,1.68-2.35l-.56-1.46-.9-1.12-.79-.22-.22-.12h-.33l-.22-.22-.33-.23h-1.01l-.11-.11,.11-.22v-.23h.23v-.33l.33-1.13,1.12-1.68,.79-2.47,.44-.23h.12l-.12-.11,.12-.22,.22-.57,.22-.22,1.46-3.37,.34-1.34-.12-.68v-.67l-1.12-1.68v-.12l-.45-.45-1.35-1.68-.57-.11-.11-.23-.78,.23v.34l-.56,.33v.56l-.34,.22v.33l.11,.23-.34,.56v.56l-.23,.56,.23,.22-.23,.34v.22h-.11l.11,.22-.11,.11c0,.79-1.24,4.94-1.8,5.28-.91,3.03-2.58,6.39-4.49,8.87h-.34l.12-.22-.12-.12v-.44h.12l.78-.34,.23-.56v-.33l-.23-.46,.23-.78-.23-.12v-.44l.23-.34v-.22l-.23-.34v-1.46l-.23-.23v-1.46l.79-1.35-.33,.34v-.34l.79-.79,.67-1.46-.11,.12-1.35,1.34-1.01,1.12h-.12v.22l-.22,.22-.23-.22-.11-1.01-.45-.34-.11-.79-.22-.11-.33-1.01-.57-1.79v-.79l-.67-1.91v-.9h-.33c-2.58,4.26-2.47,8.42-1.46,13.13v.22l.11,.68,.45,1.24,.56,.67,.12,.45v.12l.44,.79v.22l.34,.34,.22,.23,.22,.33h.57l.11,.22-.11,.34-.45,.23-.34,.11h-.45l-1.23,.56h-.56l-.23,.23-.56,.22-.34,.23-.22,.11h-.78l-.23,.45-.11-.23-.56,.34,.12-.67,1.34-2.92,.79-1.8v-.78l-1.01-1.35-.56-.56v-.22l-.11-.11-.56-.79-1.12-.79h-.45l-.11-.11-.56,.11-.23,.22h-1.01l-1.68,.79-1.91,.56-.67,.33-2.25,1.13h-.44c-1.46-1.13-1.91-1.91-3.37-3.03l-.22,.22-.34,1.35v2.8c0,3.93,.23,7.86,1.34,11.9,.12,1.79,1.24,5.27,2.47,6.51l.34-.9,.78-.57,.34-.56,.34-1.01,.56-.33h.45l.33-.22h.57l.78-.56,.34-.12h.45l.9-.22,1.46-.34h.23l.56-.22,.57-.55v-.34l.22-.22-.22-1.12,.22-.33v-1.24l-.33-.67-.23-.56,.23-.22,.11-.23v-.56h.22l.23-.11h-.23l.34-.22,.22-.34,.22-.56,.56-.45c.68,1.68,.9,1.68,2.02,2.69v.34l.22-.22h.33l.45,.79,1.23,.22v-.22l.56,.22,.79-.56,.45-.22,.11,.56v2.25l-.11,.22-.23,.57v.33l-.79,.46h-.78l-1.69,.33-1.35,.34v.23l-.56-.23-.11,.45-.22-.22-.9,.34-.22-.12h-.22l-.11,.34h-.45l-.11,.22h-.56l-.23-.22-.79,.56,.23,.55,.34,.56,.45,1.01,.11,.11,.45,.55v.24h.11v.33l.22,.22h.23l.67,.91h.22l.56,.22,.34,.22,.23-.22,.33,.22,.68-.45,.34-.12h.23l.11-.45h.45l.34-.56,.78-.11h.34l.22-.22v.89l-.22,.56-.22,.45-.56,1.13v.1l-1.68,2.69-.34,.24v.11h-.23l-2.58,2.14-.45,.1h-.11l-1.58,.56h-.33c-1.35,1.24-4.16,.79-4.72,2.69h.56l.33-.23v-.11h.23l.11,.11h.22l.78,.56,.23-.11h.56v.11l.11,.23h1.01l-.23,.22h-.78l.45,.12,1.46-.56,1.01-.11,.34,.11,.23-.11v-.22l.11,.22,.22,.11h.9l.79-.33h.34l.45,.22c.56-.22,1.35-.45,2.02-.56l.23-.22,.78-.35,.9-.56,.79-.79,.56-.79,.22-.22h.34l.33-.56,1.12-2.24,1.01-1.8v-.67l.23-.1c.34,1.34,2.01,2.02,2.92,3.7v.22l.22,.23,.23,.56,.79,.67v.22c.9,1.35,1.8,2.7,3.13,3.59l.22,.22,.57,.56,.22,.12,.68,.55,1.35,.23h.79l.11-.23h.79l.78-.11,.9,.11,.79-.11v.11l.33-.11,1.12-.22,.22,.22,.23-.22,.34,.22,.44-.22h.11l.79-.34h.22l.91-.56,.22-.22,.34-.79,.22-.11,.34-.45m-34.9-25.81l-.33,.56-1.01,2.35-1.46,2.81-.22,.12-.79,.56h-.11c-.23-1.68-.79-4.27-.45-5.94l1.34-.45,2.14-1.12,.67-.34h.22l.56-.22v.22l-.56,1.46Z"/><path class="cls-2" d="M131.54,45.66l-.22-1.23-.9-1.11-1.01-.91-1.46-1.46-1.91-1.35-.56-.45-.22-.1h-.22l-.56-.46-1.13-.89-.11-.34-.78-.55h-.22l-.56-.24-.22-.22-.89-.33-.34-.34h-.45l-.11,.12-.45-.34-.34-.22h-.33l-.23-.12-.22,.12-.34-.12-.44-.45-.11,.22-.45-.33h-.11l-.23,.11-.22-.11-.89-.45h-.23l-.33-.11-.23-.45h-.11l-.45-.34-.56,.11-.34-.11h-.45l-.33-.22-.23-.22h-.67v-.11l-.56-.23v-.79l.11-.33,.22-.22v.22c.34-.34,1.12-.34,1.69-.55l.22,.22h.12l.45-.22,.33,.22,2.47-.44,.9,.44h.56l.68,.57,.33,.1,.23,.23,.34,.22,.22-.22,.33,.34,.22-.12,.56-.22,.34,.22,.22-.45,.11-.1h.22v-.23h.23l.23-.34v-.56l.11-.44v-.91l-.79-1.56-.11-.12h-.22l-.23-.44-1.23-.67h-.56l-.79-.24h-.56l-1.57-.22-.11,.22-.78,.24-.34,.1v.22l-.79,.35-1.68,.56-1.57,.22h-.11v-.22l-.23-.12v-2.69l-.34-.56-.45-.67-.22-.23v-.23l1.01-.33h.34v-.23l.22-.11v.11l.56-.11,.22,.11,.11-.34h.23l.9-.56,.45-.45,.11-.12,.22,.12,.22-.12,.34-.22,.78-.22,.33-.11h.22l.9-.46,.56-.67,.22-.22h.22v-.56h.11l.23-.22c0-1.46-.9-2.8-1.46-4.15-1.35-1.12-1.01-2.02-2.13-2.81h-.11l-1.01,1.01-.89,.67v-.12l-2.13,1.13-.57,.67-.89,.45,.33,.11-.22,.45-.34,.12-.34,.44-.22,.22h-.22l-.11,.34-.79,.23h-.22l-.11,.11-.56,.45-1.24,.67-5.05,3.03-1.35,.79-.79,.34-.34,.23v-.23l-.33,.23-.45,.33,.22-.11,.56-.22-2.02,1.68,.56-.34v.12h.11l.46-.56h.34l.23,.22h.11l.23-.33h.34l1.57-1.01v-.11l.56-.45,.22,.22,.34-.44h.56l.34,.22v.45h.22v.11h.79c-1.68,1.35-.79,1.35-3.37,2.81h.12l.56-.11,.23,.11v-.11l.22-.23,.34,.23,.22-.45,.67-.34-.11,.34-.44,.45v.11h.22v.22l.79-.33h.22l.34-.45,1.46-.56,.22,.22-1.34,.79,.45,.11,.11-.34h.22l.79-.22v.22h.67l.45-.22v.78h.11l-.11,1.91v.79l-.56,.34-.56,.22-2.25,.55-.45,.11-.22-.11-.34,.11-.79,.23h-.11v.22h-.22c-.9,.12-1.91,.34-2.8,.68l-1.13,.23-1.57,.78h-.56l-.23,.1h-.56l-.56,.23-.34,.22,.34,.91,.56,.78h.22l.23,.34,.34,.56,.45,.45,.33,.56h.23l.12,.12h.22l.34,.45,.45,.11,.9,.46,1.35-.57h.22l.11-.22,.22-.22h.22v.22l.57-.22h.11v-.12h.23c-.78,.89-2.7,2.36-3.59,3.48h-.23l-.55,.79-.34,.79-.22,.23v.12l-.12-.12-.44,.12-.34,.44-.56,.57v-.22l-.79,.55-2.58,2.24-.23,.45h.78l-.44,.33-.34,.22-.23-.22-.33,.34h-.23l.23-.11,.11-.22v-.22l-.34,.22-1.35,1.35h-.11l-.22,.1-.57,.57-.22,.22-.34,.34-1.12,1.35-.23,.22,.23,.1-.45,.23h.45l1.12-.23,.22-.1,.56-.22v0l.11-.56,.23,.22,.33-.45h-.33l.33-.34,1.35-.78-.22,.22,.45-.22h.56l1.46-1.12-.68,.79-.22,.22v.11l-.23,.22-.34,.34,.78-.34h.11l.22-.22,.23,.22,.34-.33,.23-.46v.46l1.12-.22h.11l1.01-.34,1.12-1.02,.79-.56,.56-.33h.11l.78-.79,1.01-.34v-.22l.11,.22,.22-.45,.22-.12,.12-.22h.22l.34-.23,.79-.56h.34l.56-.33,.22-.23-.34,.78,1.69-1.46,.89-.78,1.01-.23v3.6l-.56,.56-1.35,.56-.34,.45h-.23l-.34,.11-.22,.45h-.45l-.34-.56-1.35-1.23h-.34c-1.12,4.02-1.68,8.52-.78,12.22l.44,1.35,.57,1.68,.9,2.14,.34,.89,.56,.79,1.01,.34h.23l.9-.57,.34-.11,.45-.22,.34,.22,.22-.22,.56,.22,.9-.67c1.34-.33,2.69-.33,3.81-.56l.23,.22,.34,1.01h.23l.11-.22,1.57,.78,1.12-1h.11l.79-.34,.78-1.01,.33-.67c1.35-3.03,1.13-.78,1.57-4.6,.56-2.8,.11-5.84,.56-8.75l-.44-1.35-.56-.55-.57-.79-1.79-1.35-1.01-.56-.22,.22-.34-.55-.56,.22-.56-.22-.34,.22-.45-.22-.34,.22-.34-.57v-1l.11-1.35,.22-.33h.34v.22l.22-.22,.56,.33,.22,.22h.34l.56,.22,.34,.24,.45,.55,.33,.12,.45,.22h.56v.34h.56l.11,.44,.56,.57h.45l.11,.11h.22l.22,.44,1.46,.91,.22,.22,.23,.12h.11l.23,.22,.78,.33,.11,.45,.22-.23v.23l.56,.22,1.57,.67,.11-.11,.56,.34h.45l.34,.23,.56,.11,2.47,1.12h.34l.22-.11,.57,.11h.78l.56,.22h.89l.45-.89,.11-.22,.45-.34v-.45m-29.85-22.55l.22-.23-.22,.23Zm-12.45,22.78l.33-.23-.56,.45,.23-.23Zm-.57,.23h0Zm-1.34,1.79l-.23-.12h.45l-.22,.12Zm0-.56v-.11l.89-.78-.89,.9Zm1.12,.22l-.79,.22v-.44l.23-.33,.22,.22,.11-.46,.22-.1v.34h.34l.56-.34-.9,.89Zm2.81-1.68l-.89,.79-.57,.34-.56,.22,.33-.46,.23-.32,.57-.34,.22,.11,.11-.11,.45-.23h.11l.45-.34-.45,.34Zm.56,0l.23-.23-.23,.23Zm.56,.79v-.45l.45-.11-.45,.56Zm2.36-1.35h-.56l.11-.22,.22,.22,.34-.22-.12,.22Zm5.61-9.98l-.23-.22h.23v.22Zm9.09-20.3h.11l1.91-1.01v.22h-.11l-.23,.22h-.22l-1.46,1.12v-.45l-.23-.11h.23Zm1.68,30.85l.9-.56c.23,2.24-.11,9.43-1.46,11.45h-.57l-1.01,.22-.56,.22-.11-.22-1.68,.56h-.23l-.22-.22v.22h-.56l-.23,.22-.11-.22-1.35,.22-.34-.56-.22-.45,.22-.79h.57l.56-.34,.56-.22h.79l.11-.11h.78l1.46-.79,.56-.23,.79-.11,.57-.23,.45-.79v-.89l-.45-1.46-.9-.78h-.56l-.23-.23-.22,.23-.34-.23-.22,.23-.67-.46-.56-.1-1.01,.1-.56,.57-.56,.22h-.22l-.11,.22-1.01,.34-.11-.12v.12l-.22-.12v-.78l.78-2.14,.68,.45,.78,.12,.34-.12h.67l.68-.56,4.37-1.9Z"/><path class="cls-1" d="M183.02,56.64v-.23l-.11-.56-.22-.12-.22-.22-3.93-1.68-1.01-.45h-.34l-1.35-.34-.67-.22-2.13-.9-.56-.22h-.22v-.11l-.33-.23-.79-.56h-.12l-.22-.23h-.23l-.34-.12-1-1.23-.68-.67-.22-.22-.34-.34-.22-.45-.34-.34-.79-.78-.45-.67-.33-.22v-.23l-.34-.11-.22-.23-.22-.22-.12-.34v-.79l.12-.22,1.01,.22,.56-.22h.79l.67-.11,.79,.11h.34l.45,.22,.11-.22,.22,.22h.34l.67,.23h.12l.22,.33,.22-.1,.34,.33h.23l.33,.23h.22l.11,.11,.45-.11,.56-.23,.34-.79h.34c0-1.67,.45-2.57-.9-3.7h-.22l-.34-.57-.34-.22-1.01-.33c-.56,.11-.56-.68-1.35-.46-.67-1.45-2.24,1.35-6.51,1.13l.11-1.68v-2.25l1.01-.55,.68-.34h1.23v-.22h.33l.9-.22,1.12-.12h1.57c1.12-.55,1.91-.55,1.68-2.35l-.56-1.47-.9-1.11-.79-.22-.22-.12h-.34l-.22-.22-.34-.22h-1.01l-.11-.11,.11-.23v-.23h.23v-.33l.34-1.13,1.12-1.68,.78-2.47,.45-.23h.12l-.12-.11,.12-.22,.22-.56,.22-.23,1.46-3.37,.34-1.34-.11-.68v-.67l-1.12-1.69v-.11l-.45-.45-1.35-1.68-.56-.11-.11-.23-.79,.23v.34l-.56,.33v.56l-.34,.23v.33l.11,.23-.33,.56v.56l-.23,.57,.23,.22-.23,.34v.23h-.11l.11,.22-.11,.11c0,.8-1.24,4.94-1.79,5.28-.9,3.04-2.58,6.4-4.49,8.87h-.34l.12-.22-.12-.12v-.44h.12l.78-.34,.23-.56v-.33l-.23-.45,.23-.78-.23-.12v-.44l.23-.34v-.22l-.23-.33v-1.46l-.23-.23v-1.46l.79-1.35-.33,.34v-.34l.78-.78,.67-1.46-.11,.12-1.35,1.34-1.01,1.12h-.12v.23l-.22,.22-.22-.22-.11-1.01-.45-.34-.11-.79-.23-.11-.33-1.01-.57-1.79v-.78l-.67-1.92v-.9h-.34c-2.58,4.26-2.46,8.42-1.45,13.13v.22l.11,.68,.45,1.24,.56,.67,.11,.45v.12l.45,.79v.22l.34,.33,.22,.23,.22,.33h.57l.1,.22-.1,.34-.45,.22-.34,.11h-.45l-1.23,.55h-.56l-.23,.23-.56,.22-.33,.22-.23,.11h-.78l-.23,.45-.11-.23-.56,.34,.11-.67,1.35-2.92,.78-1.79v-.78l-1.01-1.35-.56-.56v-.22l-.11-.1-.56-.79-1.12-.79h-.45l-.11-.11-.56,.11-.22,.23h-1.01l-1.68,.79-1.91,.56-.67,.33-2.25,1.12h-.45c-1.45-1.12-1.9-1.91-3.36-3.03l-.22,.23-.34,1.35v2.8c0,3.93,.22,7.85,1.34,11.9,.12,1.79,1.24,5.27,2.47,6.51l.34-.9,.79-.57,.34-.56,.34-1,.56-.33h.45l.33-.22h.57l.78-.57,.34-.12h.45l.89-.22,1.46-.34h.22l.56-.22,.56-.55v-.34l.22-.22-.22-1.12,.22-.33v-1.24l-.33-.67-.23-.57,.23-.22,.11-.23v-.56h.22l.23-.11h-.23l.34-.22,.22-.34,.23-.56,.55-.45c.68,1.68,.91,1.68,2.03,2.69v.34l.22-.23h.34l.46,.79,1.23,.22v-.22l.56,.22,.79-.56,.45-.22,.1,.56v2.25l-.1,.22-.23,.57v.33l-.79,.46h-.79l-1.69,.33-1.34,.34v.23l-.56-.23-.11,.45-.22-.22-.9,.34-.23-.12h-.22l-.11,.34h-.45l-.11,.22h-.56l-.22-.22-.79,.56,.23,.55,.33,.57,.45,1.01,.11,.11,.45,.55v.23h.11v.34l.22,.22h.23l.67,.9h.23l.56,.23,.33,.22,.23-.22,.33,.22,.68-.45,.33-.12h.23l.11-.44h.46l.34-.56,.78-.11h.33l.23-.22v.9l-.23,.56-.22,.45-.56,1.13v.1l-1.68,2.69-.34,.23v.11h-.22l-2.58,2.14-.45,.11h-.11l-1.57,.57h-.33c-1.35,1.23-4.15,.78-4.72,2.69h.56l.33-.23v-.11h.23l.11,.11h.22l.78,.56,.23-.11h.56v.11l.11,.23h1.01l-.23,.22h-.78l.45,.12,1.46-.57,1.01-.11,.34,.11,.23-.11v-.22l.11,.22,.22,.11h.9l.79-.34h.33l.45,.22c.56-.22,1.35-.45,2.02-.56l.23-.22,.78-.34,.9-.56,.79-.79,.56-.79,.23-.22h.33l.34-.56,1.12-2.25,1.01-1.8v-.67l.23-.1c.34,1.33,2.02,2.02,2.92,3.7v.22l.22,.23,.22,.56,.79,.67v.22c.9,1.35,1.79,2.7,3.14,3.6l.22,.22,.57,.57,.22,.12,.68,.55,1.35,.22h.79l.12-.22h.78l.79-.11,.89,.11,.79-.11v.11l.34-.11,1.12-.22,.22,.22,.22-.22,.34,.22,.44-.22h.11l.79-.34h.22l.9-.57,.22-.22,.34-.79,.22-.11,.34-.45m-34.9-25.81l-.34,.56-1.01,2.35-1.46,2.81-.23,.11-.79,.56h-.11c-.23-1.69-.79-4.27-.45-5.95l1.34-.45,2.14-1.12,.67-.33h.22l.56-.22v.22l-.56,1.46Zm44.25,28.38h1.09v-2.58h1.61c1.01,0,1.24,.51,1.24,1.65,0,.31,0,.65,.17,.92h1.17c-.24-.25-.34-.92-.34-1.65,0-.99-.55-1.27-.93-1.32v-.02c.2-.07,1.03-.38,1.03-1.58,0-1.05-.7-1.69-2.07-1.69h-2.98v6.26Zm1.09-5.36h1.78c.57,0,1.08,.16,1.08,.96,0,.66-.38,1-1.07,1h-1.79v-1.95m6.54,2.28c0,2.9-2.35,5.25-5.25,5.25s-5.25-2.35-5.25-5.25,2.35-5.25,5.25-5.25,5.25,2.35,5.25,5.25m-5.26-4.49c-2.47,0-4.48,2-4.48,4.47s2,4.47,4.48,4.47,4.48-2,4.48-4.47-2.01-4.47-4.48-4.47"/><path class="cls-1" d="M129.98,44.63l-.22-1.23-.9-1.12-1.01-.9-1.46-1.46-1.9-1.35-.56-.45-.22-.1h-.22l-.56-.45-1.13-.9-.11-.34-.79-.55h-.22l-.56-.24-.23-.22-.89-.33-.34-.34h-.45l-.11,.12-.45-.34-.34-.22h-.33l-.23-.12-.22,.12-.34-.12-.44-.45-.11,.22-.45-.33h-.12l-.22,.1-.22-.1-.9-.45h-.22l-.34-.11-.22-.45h-.11l-.45-.34-.56,.11-.34-.11h-.45l-.34-.22-.22-.22h-.67v-.11l-.56-.22v-.79l.11-.34,.22-.22v.22c.34-.33,1.12-.33,1.69-.55l.22,.22h.11l.45-.22,.33,.22,2.47-.45,.9,.45h.56l.68,.56,.33,.11,.23,.22,.34,.22,.22-.22,.34,.34,.22-.12,.56-.22,.34,.22,.22-.45,.11-.11h.23v-.23h.23l.22-.33v-.56l.11-.44v-.9l-.79-1.57-.11-.12h-.22l-.23-.44-1.23-.67h-.56l-.78-.23h-.57l-1.57-.23-.11,.23-.79,.23-.33,.1v.22l-.79,.34-1.68,.56-1.57,.22h-.11v-.22l-.22-.12v-2.69l-.34-.56-.45-.67-.22-.22v-.23l1.01-.33h.33v-.23l.22-.12v.12l.56-.12,.23,.12,.11-.34h.22l.9-.56,.45-.45,.11-.12,.22,.12,.22-.12,.34-.22,.78-.22,.34-.11h.23l.9-.45,.56-.67,.22-.22h.22v-.56h.11l.23-.22c0-1.46-.9-2.8-1.46-4.15-1.35-1.13-1.01-2.02-2.13-2.81h-.11l-1.01,1.01-.9,.67v-.11l-2.13,1.13-.56,.67-.89,.45,.33,.11-.22,.45-.33,.12-.34,.45-.22,.22h-.23l-.11,.34-.79,.22h-.22l-.12,.11-.56,.45-1.24,.67-5.05,3.03-1.34,.79-.79,.34-.34,.23v-.23l-.33,.23-.45,.33,.23-.11,.56-.22-2.02,1.68,.56-.34v.12h.11l.45-.56h.34l.22,.22h.11l.22-.33h.34l1.57-1.01v-.12l.56-.45,.22,.23,.34-.45h.56l.34,.22v.45h.23v.12h.78c-1.68,1.34-.78,1.34-3.37,2.81h.12l.56-.11,.22,.11v-.11l.22-.22,.34,.22,.23-.45,.67-.34-.11,.34-.45,.45v.11h.22v.23l.79-.34h.23l.33-.45,1.46-.56,.22,.22-1.35,.79,.45,.11,.11-.33h.22l.78-.23v.23h.67l.45-.23v.79h.11l-.11,1.9v.79l-.56,.34-.56,.22-2.24,.56-.45,.11-.23-.11-.34,.11-.78,.23h-.11v.22h-.22c-.9,.12-1.91,.34-2.8,.68l-1.12,.22-1.57,.78h-.56l-.22,.11h-.56l-.57,.22-.34,.22,.34,.91,.57,.79h.22l.23,.33,.33,.56,.45,.45,.33,.56h.23l.12,.12h.22l.34,.45,.45,.11,.9,.46,1.35-.57h.22l.12-.22,.22-.22h.22v.22l.57-.22h.11v-.12h.22c-.78,.89-2.69,2.36-3.59,3.47h-.22l-.56,.79-.34,.78-.22,.23v.12l-.12-.12-.45,.12-.33,.44-.56,.57v-.22l-.78,.55-2.58,2.24-.23,.46h.79l-.45,.33-.34,.23-.22-.23-.33,.34h-.22l.22-.11,.11-.23v-.22l-.33,.22-1.35,1.35h-.11l-.22,.1-.57,.57-.22,.22-.34,.34-1.12,1.35-.23,.22,.23,.1-.45,.22h.45l1.12-.22,.22-.1,.56-.22v0l.11-.56,.22,.22,.33-.45h-.33l.33-.34,1.35-.78-.22,.22,.45-.22h.56l1.46-1.13-.68,.79-.22,.22v.11l-.23,.22-.34,.34,.79-.34h.11l.22-.22,.23,.22,.34-.33,.23-.46v.46l1.12-.22h.11l1.01-.34,1.12-1.01,.79-.56,.56-.33h.11l.78-.78,1.01-.34v-.22l.12,.22,.22-.45,.22-.12,.12-.22h.22l.34-.23,.78-.56h.34l.56-.33,.23-.24-.34,.78,1.69-1.46,.89-.78,1.01-.22v3.6l-.56,.56-1.34,.55-.34,.46h-.22l-.33,.11-.23,.45h-.45l-.34-.56-1.34-1.23h-.34c-1.12,4.02-1.68,8.52-.78,12.23l.44,1.35,.57,1.68,.89,2.14,.34,.89,.56,.79,1.01,.34h.22l.9-.57,.33-.11,.45-.23,.34,.23,.22-.23,.56,.23,.9-.67c1.34-.34,2.69-.34,3.81-.56l.22,.22,.34,1.01h.22l.11-.23,1.57,.79,1.13-1.01h.11l.78-.34,.78-1.01,.34-.67c1.35-3.03,1.13-.79,1.57-4.6,.56-2.8,.11-5.84,.56-8.75l-.44-1.35-.56-.55-.56-.78-1.79-1.35-1.01-.56-.22,.22-.34-.55-.56,.22-.56-.22-.34,.22-.45-.22-.33,.22-.34-.57v-1l.11-1.35,.23-.33h.33v.22l.22-.22,.56,.33,.23,.22h.33l.56,.23,.34,.23,.45,.55,.33,.12,.45,.22h.56v.34h.56l.11,.44,.56,.57h.45l.12,.11h.22l.23,.44,1.46,.91,.22,.22,.23,.12h.11l.23,.22,.78,.33,.12,.45,.22-.23v.23l.56,.23,1.57,.67,.11-.11,.56,.34h.46l.34,.23,.56,.11,2.47,1.13h.34l.22-.11,.56,.11h.79l.57,.22h.89l.45-.89,.11-.22,.44-.34v-.45m-29.85-22.55l.23-.23-.23,.23Zm-12.45,22.77l.33-.22-.56,.45,.22-.23Zm-.56,.23h0Zm-1.34,1.8l-.22-.12h.45l-.22,.12Zm0-.56v-.11l.9-.79-.9,.9Zm1.12,.22l-.79,.22v-.44l.23-.34,.22,.22,.11-.46,.22-.1v.34h.34l.56-.34-.89,.89Zm2.81-1.68l-.9,.79-.57,.34-.56,.22,.33-.46,.22-.33,.57-.34,.22,.11,.11-.11,.45-.23h.12l.45-.34-.45,.34Zm.56,0l.22-.22-.22,.22Zm.56,.79v-.45l.45-.11-.45,.56Zm2.36-1.35h-.56l.11-.22,.22,.22,.34-.22-.12,.22Zm5.61-9.98l-.22-.22h.22v.22Zm9.09-20.31h.11l1.91-1.01v.22h-.11l-.22,.23h-.22l-1.46,1.12v-.45l-.22-.11h.22Zm1.68,30.86l.9-.56c.22,2.25-.11,9.43-1.46,11.45h-.56l-1.01,.22-.56,.22-.11-.22-1.68,.56h-.22l-.22-.23v.23h-.56l-.22,.22-.11-.22-1.35,.22-.33-.56-.22-.45,.22-.79h.56l.56-.34,.56-.22h.79l.11-.11h.78l1.46-.79,.56-.23,.78-.11,.56-.23,.45-.79v-.89l-.45-1.46-.9-.78h-.56l-.22-.23-.23,.23-.33-.23-.23,.23-.67-.46-.56-.1-1.01,.1-.56,.56-.56,.22h-.23l-.11,.22-1.01,.34-.11-.11v.11l-.22-.11v-.78l.78-2.13,.67,.44,.79,.12,.34-.12h.67l.67-.56,4.37-1.9Z"/><path class="cls-1" d="M99.52,1.69c0,.27-.35,.42-1.05,.42,.13-.1,.19-.18,.19-.23,0-.31-.53-.75-1.59-1.34,.07-.03,.17-.05,.28-.05,.37,0,.81,.11,1.31,.32,.57,.26,.86,.55,.86,.88m-.03,4.2c-.11,.31-.34,.47-.67,.47-.56,0-1-.24-1.32-.74-.26-.44-.4-.94-.4-1.53,.3,.57,.62,.98,.95,1.24,.35,.25,.83,.44,1.45,.56"/><path class="cls-1" d="M117.17,3.67c0,1.49-.49,2.61-1.48,3.35,.6-.92,.9-2.04,.9-3.36,0-.75-.15-1.13-.43-1.13-.21,0-.49,.11-.85,.32-.36,.22-.62,.33-.78,.33s-.3-.05-.42-.14c-.12-.1-.18-.22-.18-.38,0-.07,.01-.15,.04-.21,.07,.1,.15,.15,.24,.15,.19,0,.53-.13,1-.41,.47-.26,.77-.4,.9-.4,.71,0,1.07,.63,1.07,1.87m-.27-2.69c0,.13-.2,.2-.6,.2-.12,0-.29-.01-.52-.05-.07,0-.27,0-.59,0,.17-.09,.33-.18,.49-.28-.32-.1-.56-.29-.74-.55,.22-.07,.48-.11,.77-.11,.32,0,.59,.05,.81,.16,.27,.15,.4,.36,.4,.64"/><path class="cls-1" d="M155.67,.76c-.08,.62-.75,1.14-1.99,1.59,.03,.14,.13,.35,.31,.65,.17,.28,.25,.43,.25,.46,0,.14-.1,.21-.31,.21-.11,0-.49-.11-1.14-.34,.25-.08,.47-.17,.64-.28-.11-.2-.2-.37-.26-.52-.38,.13-.84,.25-1.37,.37-.6,.12-1.07,.19-1.41,.19-.13,0-.27-.06-.42-.19-.13-.14-.2-.27-.2-.39,0-.13,.01-.25,.04-.36,.17,.16,.39,.24,.66,.24,.23,0,.64-.06,1.23-.19,.48-.1,.89-.2,1.22-.3-.12-.37-.24-.78-.35-1.22-.18-.09-.27-.18-.27-.28,0-.2,.19-.29,.56-.29,.18,0,.33,.04,.42,.12,.09,.09,.16,.32,.2,.7,.02,.26,.03,.52,.05,.79,.49-.15,.86-.28,1.13-.39,.48-.19,.81-.38,1-.56m-2.23,5.6c0,.12-.07,.22-.21,.3-.12,.08-.24,.12-.37,.12-.33,0-.71-.13-1.13-.4-.45-.29-.67-.59-.67-.91,0-.21,.08-.38,.26-.52,0,.26,.18,.47,.55,.64,.34,.1,.68,.2,1.01,.31,.37,.12,.56,.27,.56,.46"/><path class="cls-1" d="M167.9,4.47c-.02,.2-.12,.3-.28,.3-.14,0-.44-.19-.9-.57h.46c-.12-.14-.23-.31-.32-.51-.27,.08-.48,.12-.62,.12-.08,0-.21-.03-.4-.1-.22-.07-.33-.15-.33-.22,0-.14,.33-.33,.98-.57-.1-.2-.18-.41-.25-.65-.17,.04-.3,.06-.39,.06-.71,0-1.16-.22-1.34-.65,.24,.08,.44,.11,.62,.11,.27,0,.57-.03,.93-.09-.18-.6-.27-1.16-.27-1.69,.38,0,.66,.15,.82,.43,.1,.2,.16,.52,.18,.96,0,.02,0,.07,0,.13,.11-.02,.25-.06,.41-.13,.06,.04,.09,.09,.09,.14,0,.16-.15,.33-.44,.51,.03,.25,.08,.5,.15,.74,.1-.01,.18-.02,.24-.02,.31,0,.47,.09,.47,.28,0,.17-.13,.32-.39,.47,.21,.41,.41,.73,.6,.94m-.98,2.24c-.27,.14-.53,.2-.78,.2-.38,0-.7-.13-.96-.38-.27-.26-.4-.56-.4-.93,0-.21,.05-.4,.16-.58,.1,.02,.27,.16,.49,.41,.35,.41,.58,.66,.69,.74,.29,.29,.56,.47,.8,.54"/></g></g></svg>