<?xml version="1.0" encoding="UTF-8"?><svg id="_イヤー_2" xmlns="http://www.w3.org/2000/svg" viewBox="0 0 220.92 84.38"><defs><style>.cls-1{fill:#99003f;}.cls-2{fill:#8eacd9;}.cls-3{fill:#05703c;}.cls-4{fill:#3b6eb5;}.cls-5{fill:none;stroke:#3b6eb5;stroke-miterlimit:10;stroke-width:.43px;}</style></defs><g id="main"><g><g><path class="cls-1" d="M42.37,37.25c-1.07,.62-1.99,1.07-3.09,1.56,.39,.46,.42,.48,.42,.64,0,.35-.26,.38-.5,.38h-5.42c.47,1.72,1.15,3.25,2.64,5.34,.71-1.45,1.28-3.25,1.65-4.88l3.46,1.61c.44,.21,.63,.38,.63,.54,0,.4-.55,.4-1.15,.4-.6,.43-2.43,1.64-4.29,2.71,1.33,1.93,3.66,3.97,7.02,5.56v.27c-1.78,.56-2.25,1.8-2.41,2.33-.1,.27-.16,.46-.34,.46-.6,0-2.02-1.32-2.12-1.4-4.87-4.51-5.26-9.58-5.52-12.94h-1.28c-.05,.4-.68,.54-.97,.56-.55,.75-.94,1.13-1.83,1.91,1.44,.67,2.93,1.4,4.32,3.46,1.13,1.69,1.7,3.7,1.7,5.74,0,1.69-.47,3.44-1.96,4.43-1.15,.78-2.8,.83-3.01,.83-.34,0-.52-.03-.52-.27,0-.11,.1-.7,.1-.83,0-1.69-1.26-2.25-1.86-2.52v-.27c1.05,.13,1.73,.13,2.07,.13,2.2,0,1.94-2.2,1.99-3.11-1.52,1.18-4.58,3.49-11.99,4.59l-.13-.24c6.86-2.66,9.69-5.96,11.52-8.27-.08-.16-.18-.46-.37-.75-.58,.64-2.09,2.33-4.24,3.52-2.07,1.13-4.76,2.07-6.6,2.5l-.1-.27c4.08-2.2,7.59-5.31,9.16-7.92-.29-.27-.34-.32-.44-.4-.52,.56-1.7,1.48-2.54,2.07-2.46,1.72-4.4,2.28-6.36,2.85l-.1-.27c3.01-1.74,5.79-4.13,7.04-7.46h-2.88l-.31-.59h11.31l1.41-1.83c.21-.29,.31-.32,.45-.32,.18,0,.31,.08,.55,.27l1.26,.97c.13-.56,.31-1.4,.37-2.09h-14.66c.1,3.3-1.94,4.16-2.85,4.16-.97,0-1.88-.7-1.88-1.8,0-.8,.18-.94,1.75-2.17,1.78-1.4,1.89-2.28,1.99-3.01h.26c.31,.56,.58,1.02,.68,2.2h5.79v-3.27l3.35,.35c.71,.08,.94,.19,.94,.48,0,.35-.47,.56-.79,.7v1.74h5.42l1.13-1.23c.31-.32,.44-.38,.6-.38,.29,0,.58,.24,.6,.27l2.28,1.91c.31,.27,.34,.48,.34,.56,0,.48-.16,.48-1.65,.51Z"/><path class="cls-1" d="M68.74,55.63c-.13,.64-.18,.91-.5,.91-.81,0-1.68-.81-1.86-.99-2.07-1.96-2.75-5.18-3.06-6.68-.21,.75-.89,3.09-2.98,4.88-2.59,2.2-5.44,2.55-6.41,2.68l-.08-.27c4.89-2.28,6.02-4.88,6.57-9.2h-3.93l-.31-.59h4.32c.1-1.29,.18-2.2,.16-3.84-1.96,2.33-3.32,3.11-3.9,3.46l-.21-.19c1.44-2.07,2.2-5.02,2.57-7.11-1.18,1.4-2.07,2.2-3.19,2.98l.73,.56c.26,.19,.34,.43,.34,.62,0,.29-.37,.64-.97,1.18-.26,3.6-.63,8.45-2.17,10.63-.68,.97-2.07,1.64-3.11,1.64-.29,0-.29-.21-.29-.91,0-1.1-.84-1.64-1.88-1.99-.97,1.37-1.86,2.2-2.62,2.87l-.21-.16c2.77-4.88,2.77-9.29,2.77-18.28h-2.09l-.31-.59h3.51v-4.64l3.45,.35c.26,.03,.68,.11,.68,.48,0,.27-.08,.32-.86,.86v2.95h.68l1.13-1.45c.1-.16,.21-.27,.39-.27,.16,0,.26,.05,.52,.21l1.96,1.32c.39-1.48,.6-2.71,.84-4.54l4.11,.8c.26,.05,.52,.19,.52,.46,0,.21,0,.35-1.05,.83-.47,.81-.76,1.21-1.28,2.01h5.13l1.07-1.53c.13-.19,.24-.24,.39-.24,.13,0,.18,.03,.5,.24l1.78,1.32c.16,.11,.24,.29,.24,.46,0,.27-.18,.38-.44,.38h-9.11c-.08,.11-.5,.64-.6,.78l2.96,.91c.39,.13,.55,.16,.55,.46,0,.4-.37,.51-.94,.67-.21,.46-.34,.7-.6,1.1h3.53l1.2-1.48c.13-.16,.21-.27,.42-.27,.16,0,.24,.05,.47,.24l1.62,1.29c.13,.11,.26,.24,.26,.43,0,.32-.26,.4-.47,.4h-4.01c.05,.05,.08,.13,.08,.24,0,.35-.18,.51-.71,.97,.03,1.18-.03,2.04-.18,3.38h1.99l1.33-1.69c.13-.16,.18-.27,.39-.27s.34,.11,.47,.24l1.57,1.48c.13,.11,.26,.24,.26,.46,0,.3-.26,.38-.44,.38h-5.6c1.1,3.57,3.59,5.56,6.44,6.41v.3c-1.18,.64-1.49,1.83-1.52,1.96Zm-17.09-12.83c-.6,5.8-1.44,8-2.88,10.28,.18,.03,1.18,.05,1.41,.05,1.05,0,1.33-.24,1.68-1.1,.97-2.52,1.33-6.44,1.31-9.23h-1.52Zm.86-4.97c.16,.59-.13,.78-.68,1.21-.03,1.1-.05,1.85-.13,3.17h1.28l.92-1.21c.1-.13,.26-.3,.5-.3s.44,.16,.71,.35l.44,.35c.97-1.45,1.41-2.5,1.75-3.57h-4.79Z"/><path class="cls-1" d="M94.42,47.5h-6.05c-1.83,0-2.64-.56-2.64-2.42v-5.8h-3.48c.08,.48-.34,.59-1.13,.75-.31,.51-.5,.72-.84,1.1h1.28l.92-.81c.05-.03,.26-.21,.52-.21,.16,0,.31,.05,.47,.21l1.81,1.85c.1,.11,.16,.27,.16,.43,0,.56-.44,.67-1.26,.86-1.49,1.93-2.93,3.11-4.53,4.08l3.46,.24c.26,.03,.42,.16,.42,.38s-.1,.38-.81,.78c-.03,.56-.05,.72-.1,1.13h3.93v-2.23l3.53,.16c.18,0,.52,.03,.52,.43,0,.24-.16,.35-.68,.67v.97h1.96l1.41-1.58c.13-.13,.24-.27,.44-.27,.1,0,.18,0,.55,.3l1.68,1.29c.13,.11,.29,.24,.29,.51s-.26,.35-.44,.35h-5.89v4.88c0,.24-.03,.43-.24,.59-.73,.56-1.83,.62-2.17,.62-.92,0-.97-.32-.97-.78v-5.31h-4.03c-.18,.78-.63,2.25-1.73,3.22-2.3,2.09-5.45,2.79-8.4,2.9v-.27c2.43-.62,4.82-1.85,6.07-4.11,.31-.59,.44-1.4,.47-1.74h-6.57l-.31-.59h6.96c.05-.46,.08-.97,.1-2.23-2.12,1.1-4.11,1.61-6.49,1.74l-.03-.27c1.26-.4,3.3-1.13,5.5-3.01-.47-.32-.47-.7-.47-.86,0-.24,.24-1.34,.24-1.58,0-.19-.05-.35-.1-.46-2.23,1.56-3.72,1.93-4.84,2.17l-.16-.24c3.48-2.15,4.32-5.23,4.48-6.07h-4.74l-.31-.59h19.37l1.23-1.53c.13-.16,.24-.27,.44-.27,.18,0,.37,.13,.55,.27l1.73,1.29c.13,.08,.29,.21,.29,.48s-.26,.35-.47,.35h-6c.08,.13,.1,.19,.1,.27,0,.27-.21,.4-.71,.7v2.09c.52-.32,2.07-1.48,2.96-2.95l3.32,2.04c.21,.13,.24,.16,.31,.27l.26,.05-.26,1.72c-.05,.4-.05,.59,.16,.8,.94,1.07,1.05,1.18,1.05,1.72,0,1.42-1.47,1.5-2.09,1.5Zm1.26-11.78h-6.18v1.4c0,.32,0,.51-.39,.7-.71,.32-1.7,.4-2.12,.4-.31,0-.73,0-.73-.48v-2.01h-4.08v1.45c0,.27-.05,.43-.5,.64-.63,.27-1.34,.4-2.07,.4-.34,0-.73-.13-.73-.64v-1.85h-6.39l-.31-.59h6.7v-2.84l3.77,.38c.18,.03,.39,.03,.39,.35,0,.24-.1,.35-.86,.75v1.37h4.08v-2.76l3.74,.3c.24,.03,.39,.08,.39,.35,0,.29-.13,.4-.89,.72v1.4h2.17l1.31-1.58c.13-.16,.21-.27,.42-.27,.16,0,.18,.05,.55,.3l1.91,1.32c.1,.08,.29,.21,.29,.48s-.26,.35-.47,.35Zm-15.94,6.04c-.29,.27-.5,.46-.97,.86,1.05,.46,1.18,1.02,1.28,1.64,.68-.86,1.1-1.66,1.49-2.5h-1.81Zm14.24,.21c-1.68,.62-3.46,.91-5.26,.99v.99c0,.78,.21,.86,1.12,.86h3.14c.78,0,.89,0,1.91-2.66-.13-.03-.76-.16-.92-.19Z"/><path class="cls-1" d="M112.93,44.52c0,1.48-1.18,2.6-2.54,2.6s-2.54-1.15-2.54-2.6,1.13-2.6,2.54-2.6,2.54,1.15,2.54,2.6Z"/><path class="cls-1" d="M148.04,45.52h-23.19l-.31-1.96h18.66l1.88-1.72c.1-.13,.18-.27,.42-.27,.18,0,.34,.13,.47,.24l2.3,2.23c.16,.16,.21,.32,.21,.43,0,.27-.24,.38-.44,1.05Z"/><path class="cls-1" d="M173.02,43.18h-2.7c-1.47,0-1.83-1.13-1.83-1.93v-6.71h-1.91v3.76c0,2.12-1.02,4.72-3.19,6.44h6.68l1.02-1.02c.18-.19,.31-.21,.42-.21,.18,0,.42,.05,.6,.21l1.78,1.72c.1,.11,.16,.24,.16,.4,0,.48-.16,.56-1.1,1.21-.84,1.83-1.68,3.17-2.93,4.59,1.94,1.18,3.38,1.56,4.66,1.77l.03,.3c-.78,.32-2.04,.86-2.33,2.63-.03,.19-.05,.4-.44,.4-.58,0-2.83-1.91-4.06-3.11-2.96,2.25-5.47,2.71-6.99,2.93l-.08-.27c2.67-.99,4.53-2.79,5.79-4.24-1.26-1.99-1.83-4.35-2.02-6.71h-1.7l-.08-.19c-.39,.24-.42,.24-.97,.48v8.72c0,.67-.21,1.5-1.52,1.91-.68,.21-1.65,.4-1.86,.4-.34,0-.34-.21-.34-.54,0-1.64,0-1.96-2.41-2.39l.05-.27c.34,0,1.91,.03,2.23,.03,.76,0,1.02-.21,1.02-.91v-7.81c-.26,.08-.29,.08-.65,.19v5.9c0,.32-.13,.43-.47,.62-.21,.08-.99,.4-1.28,.4-.34,0-.47-.16-.47-.67v-5.64c-.1,.03-.68,.19-.73,.19-.1,5.15-1.05,8.21-4.89,10.73l-.18-.19c1.91-2.25,2.46-4.75,2.67-9.88l-.94,.27c-.13,.56-.42,.59-.47,.59-.18,0-.37-.29-.39-.46l-.5-3.33c.39,0,.99-.03,2.33-.11v-8.24l2.3,1.32c.21-.97,.39-3.22,.44-3.89l3.87,.56c.16,.03,.39,.08,.39,.32,0,.54-.71,.62-.89,.64-.76,.86-1.47,1.61-2.43,2.52h2.17l.92-1.07c.08-.11,.26-.29,.5-.29,.16,0,.39,.11,.52,.21l1.54,1.15c.18,.13,.24,.38,.24,.48,0,.19-.6,.94-.76,1.15v4.62c.34-.03,.52-.03,1.36-.08,.78-2.2,.78-4.05,.78-4.24v-5.85l2.83,1.23h1.6l.63-.91c.13-.16,.26-.35,.58-.35,.24,0,.42,.13,.55,.24l1.7,1.21c.18,.13,.24,.35,.24,.51,0,.19-.1,.35-.21,.48-.1,.13-.58,.64-.68,.78v3.86c0,.43,.39,.43,.55,.43h.52c.34,0,.58-.21,1.05-1.56,.13-.38,.58-2.12,.71-2.44l.31-.03-.31,3.27c-.05,.43-.05,.46,.24,.75,.37,.4,.52,.94,.52,1.48,0,1.29-1.36,1.5-1.75,1.5Zm-14.03-5.96h-3.56v.16c.31,.11,3.38,1.1,3.38,3.62,0,1.02-.47,1.85-1.41,1.85-.6,0-1.13-.38-1.13-1.23,0-.19,.08-1.15,.08-1.4,0-1.26-.68-1.96-.92-2.2v5.21c.44,0,3.27-.16,3.56-.19v-5.82Zm2.83,6.71v1.37c.58-.75,.84-1.31,1.02-1.66l-1.02,.3Zm3.85,1.4c.39,2.52,1.89,4.16,2.38,4.7,.73-1.02,1.6-3.09,1.88-4.7h-4.27Z"/><path class="cls-1" d="M199.15,47.5h-6.05c-1.83,0-2.64-.56-2.64-2.42v-5.8h-3.48c.08,.48-.34,.59-1.13,.75-.31,.51-.5,.72-.84,1.1h1.28l.92-.81c.05-.03,.26-.21,.52-.21,.16,0,.31,.05,.47,.21l1.81,1.85c.1,.11,.16,.27,.16,.43,0,.56-.44,.67-1.26,.86-1.49,1.93-2.93,3.11-4.53,4.08l3.46,.24c.26,.03,.42,.16,.42,.38s-.1,.38-.81,.78c-.03,.56-.05,.72-.1,1.13h3.93v-2.23l3.53,.16c.18,0,.52,.03,.52,.43,0,.24-.16,.35-.68,.67v.97h1.96l1.41-1.58c.13-.13,.24-.27,.44-.27,.1,0,.18,0,.55,.3l1.68,1.29c.13,.11,.29,.24,.29,.51s-.26,.35-.44,.35h-5.89v4.88c0,.24-.03,.43-.24,.59-.73,.56-1.83,.62-2.17,.62-.92,0-.97-.32-.97-.78v-5.31h-4.03c-.18,.78-.63,2.25-1.73,3.22-2.3,2.09-5.45,2.79-8.4,2.9v-.27c2.43-.62,4.82-1.85,6.07-4.11,.31-.59,.44-1.4,.47-1.74h-6.57l-.31-.59h6.96c.05-.46,.08-.97,.1-2.23-2.12,1.1-4.11,1.61-6.49,1.74l-.03-.27c1.26-.4,3.3-1.13,5.5-3.01-.47-.32-.47-.7-.47-.86,0-.24,.24-1.34,.24-1.58,0-.19-.05-.35-.1-.46-2.23,1.56-3.72,1.93-4.84,2.17l-.16-.24c3.48-2.15,4.32-5.23,4.48-6.07h-4.74l-.31-.59h19.37l1.23-1.53c.13-.16,.24-.27,.44-.27,.18,0,.37,.13,.55,.27l1.73,1.29c.13,.08,.29,.21,.29,.48s-.26,.35-.47,.35h-6c.08,.13,.1,.19,.1,.27,0,.27-.21,.4-.71,.7v2.09c.52-.32,2.07-1.48,2.96-2.95l3.32,2.04c.21,.13,.24,.16,.31,.27l.26,.05-.26,1.72c-.05,.4-.05,.59,.16,.8,.94,1.07,1.05,1.18,1.05,1.72,0,1.42-1.47,1.5-2.09,1.5Zm1.26-11.78h-6.18v1.4c0,.32,0,.51-.39,.7-.71,.32-1.7,.4-2.12,.4-.31,0-.73,0-.73-.48v-2.01h-4.08v1.45c0,.27-.05,.43-.5,.64-.63,.27-1.34,.4-2.07,.4-.34,0-.73-.13-.73-.64v-1.85h-6.39l-.31-.59h6.7v-2.84l3.77,.38c.18,.03,.39,.03,.39,.35,0,.24-.1,.35-.86,.75v1.37h4.08v-2.76l3.74,.3c.24,.03,.39,.08,.39,.35,0,.29-.13,.4-.89,.72v1.4h2.17l1.31-1.58c.13-.16,.21-.27,.42-.27,.16,0,.18,.05,.55,.3l1.91,1.32c.1,.08,.29,.21,.29,.48s-.26,.35-.47,.35Zm-15.94,6.04c-.29,.27-.5,.46-.97,.86,1.05,.46,1.18,1.02,1.28,1.64,.68-.86,1.1-1.66,1.49-2.5h-1.81Zm14.24,.21c-1.68,.62-3.46,.91-5.26,.99v.99c0,.78,.21,.86,1.13,.86h3.14c.78,0,.89,0,1.91-2.66-.13-.03-.76-.16-.92-.19Z"/></g><g><path class="cls-3" d="M54.69,74.33c-.99,0-1.43-.41-1.43-1.19v-5.35c0-.77,.44-1.21,1.43-1.21h.89c.13-.34,.24-.69,.33-1.05,.08-.28,.31-.4,.54-.4,.28,0,.56,.18,.56,.5,0,.06,0,.12-.03,.19-.08,.26-.18,.51-.27,.75h1.52c.99,0,1.43,.43,1.43,1.21v5.35c0,.94-.62,1.19-1.43,1.19h-3.54Zm3.9-6.32c0-.27-.1-.44-.47-.44h-3.31c-.37,0-.47,.17-.47,.44v.76h4.25v-.76Zm-4.25,2.98h4.25v-1.25h-4.25v1.25Zm3.78,2.33c.37,0,.47-.16,.47-.43v-.94h-4.25v.94c0,.32,.17,.43,.47,.43h3.31Z"/><path class="cls-3" d="M65.29,69.46c-.59,.13-1.18,.23-1.74,.31-.03,0-.06,.01-.09,.01-.3,0-.48-.25-.48-.5,0-.21,.13-.41,.4-.45,1.46-.21,3.11-.61,4.39-1.11,.09-.03,.18-.05,.26-.05,.3,0,.49,.25,.49,.5,0,.19-.11,.38-.35,.47-.56,.2-1.17,.39-1.8,.55v1.23l3.72-.4h.05c.29,0,.45,.25,.45,.51,0,.22-.12,.43-.38,.46l-3.84,.42v1.53c0,.37,.14,.46,1.32,.46,1.35,0,1.58-.11,1.67-.86,.04-.3,.27-.43,.52-.43,.27,0,.55,.17,.55,.5v.06c-.15,1.4-.76,1.68-2.76,1.68s-2.39-.29-2.39-1.23v-1.61l-2.91,.32h-.05c-.28,0-.45-.25-.45-.51,0-.22,.13-.43,.39-.46l3.01-.33v-1.09Zm.42-3.82c0-.28,.27-.42,.55-.42s.54,.14,.54,.42v.73h2.36c.92,0,1.28,.32,1.28,1.03v.69c0,.29-.27,.43-.54,.43s-.55-.14-.55-.43v-.52c0-.21-.09-.3-.36-.3h-5.39c-.27,0-.36,.09-.36,.3v.57c0,.29-.28,.44-.54,.44s-.55-.15-.55-.44v-.74c0-.7,.35-1.03,1.28-1.03h2.3v-.73Z"/><path class="cls-3" d="M74.29,72.09c0-.11,.02-.23,.02-.36,0-.28,.26-.42,.51-.42s.51,.14,.51,.42c0,.12,0,.24-.02,.36h1.71v-.4c0-.25,.26-.38,.51-.38s.51,.13,.51,.38v.4h2.31c.23,0,.34,.2,.34,.41s-.12,.41-.34,.41h-2.31v1.37c0,.25-.26,.38-.51,.38s-.51-.13-.51-.38v-1.37h-1.88c-.31,.84-1,1.44-2.1,1.77-.06,.02-.12,.03-.18,.03-.27,0-.46-.23-.46-.47,0-.18,.11-.37,.37-.46,.62-.2,1.02-.48,1.27-.87h-2.17c-.23,0-.33-.21-.33-.41,0-.21,.11-.41,.33-.41h2.42Zm5.88-6.18c.24,0,.34,.2,.34,.4s-.11,.4-.34,.4h-2.21v.23c0,.24-.26,.37-.5,.37s-.51-.13-.51-.37v-.23h-1.78v.24c0,.24-.26,.37-.5,.37s-.51-.13-.51-.37v-.24h-2.16c-.23,0-.33-.2-.33-.4s.11-.4,.33-.4h2.16v-.37c0-.25,.26-.38,.51-.38s.5,.13,.5,.38v.37h1.78v-.37c0-.25,.26-.38,.51-.38s.5,.13,.5,.38v.37h2.21Zm-5.35,2.38c-.11,.14-.23,.27-.34,.4h.84c.49,0,.77,.22,.77,.53,0,.18-.1,.4-.3,.63-.75,.84-2.11,1.57-3.56,1.93-.04,.01-.08,.02-.12,.02-.25,0-.39-.21-.39-.42,0-.16,.09-.33,.3-.38,.51-.13,.99-.3,1.41-.49-.02-.02-.05-.03-.07-.05-.13-.1-.19-.21-.19-.33,0-.21,.22-.41,.45-.41,.1,0,.2,.03,.29,.1,.1,.07,.21,.16,.31,.26,.27-.18,.51-.36,.72-.56,.04-.03,.06-.06,.06-.09,0-.04-.05-.06-.14-.06h-1.12c-.36,.29-.75,.53-1.14,.71-.08,.04-.16,.06-.24,.06-.24,0-.4-.19-.4-.4,0-.14,.09-.29,.29-.39,.54-.25,1.03-.58,1.47-1.06h-1.58c-.23,0-.33-.19-.33-.39s.11-.38,.33-.38h7.85c.23,0,.34,.19,.34,.38,0,.2-.12,.39-.34,.39h-2.48v.77c.56-.14,1.12-.33,1.55-.53,.08-.04,.16-.05,.23-.05,.25,0,.42,.2,.42,.41,0,.15-.1,.32-.31,.41-.56,.24-1.21,.43-1.88,.57v.25c0,.2,.09,.25,.78,.25,1.07,0,1.17-.09,1.24-.54,.04-.24,.24-.35,.43-.35,.24,0,.47,.15,.47,.41v.06c-.11,.9-.39,1.21-2.14,1.21-1.45,0-1.7-.22-1.7-.89v-1.99h-1.79Z"/><path class="cls-3" d="M86.92,69.91c0,.56-.45,1.03-1,1.03s-1-.46-1-1.03,.45-1.03,1-1.03,1,.46,1,1.03Z"/><path class="cls-3" d="M99.68,69.25c.31,0,.46,.27,.46,.55s-.15,.55-.46,.55h-7.89c-.3,0-.46-.28-.46-.55s.16-.55,.46-.55h7.89Z"/><path class="cls-3" d="M103.88,74.05c-.9,0-1.31-.47-1.31-1.29v-5.39c0-.81,.4-1.28,1.31-1.28h3.34c.9,0,1.31,.47,1.31,1.28v5.39c0,.89-.45,1.29-1.31,1.29h-3.34Zm3.56-6.44c0-.38-.14-.49-.56-.49h-2.67c-.42,0-.56,.11-.56,.49v1.82h3.79v-1.82Zm-.56,5.41c.42,0,.56-.11,.56-.49v-2.07h-3.79v2.07c0,.41,.19,.49,.56,.49h2.67Z"/><path class="cls-3" d="M113.56,72.09c0-.11,.02-.23,.02-.36,0-.28,.26-.42,.51-.42s.51,.14,.51,.42c0,.12,0,.24-.02,.36h1.71v-.4c0-.25,.26-.38,.51-.38s.51,.13,.51,.38v.4h2.31c.23,0,.34,.2,.34,.41s-.12,.41-.34,.41h-2.31v1.37c0,.25-.26,.38-.51,.38s-.51-.13-.51-.38v-1.37h-1.88c-.31,.84-1,1.44-2.1,1.77-.06,.02-.12,.03-.18,.03-.27,0-.46-.23-.46-.47,0-.18,.11-.37,.37-.46,.62-.2,1.02-.48,1.27-.87h-2.17c-.23,0-.33-.21-.33-.41,0-.21,.11-.41,.33-.41h2.42Zm5.88-6.18c.24,0,.34,.2,.34,.4s-.11,.4-.34,.4h-2.21v.23c0,.24-.26,.37-.5,.37s-.51-.13-.51-.37v-.23h-1.78v.24c0,.24-.26,.37-.5,.37s-.51-.13-.51-.37v-.24h-2.16c-.23,0-.33-.2-.33-.4s.11-.4,.33-.4h2.16v-.37c0-.25,.26-.38,.51-.38s.5,.13,.5,.38v.37h1.78v-.37c0-.25,.26-.38,.51-.38s.5,.13,.5,.38v.37h2.21Zm-5.35,2.38c-.11,.14-.23,.27-.34,.4h.84c.49,0,.77,.22,.77,.53,0,.18-.1,.4-.3,.63-.75,.84-2.11,1.57-3.56,1.93-.04,.01-.08,.02-.12,.02-.25,0-.39-.21-.39-.42,0-.16,.09-.33,.3-.38,.51-.13,.99-.3,1.41-.49-.02-.02-.05-.03-.07-.05-.13-.1-.19-.21-.19-.33,0-.21,.22-.41,.45-.41,.1,0,.2,.03,.29,.1,.1,.07,.21,.16,.31,.26,.27-.18,.51-.36,.72-.56,.04-.03,.06-.06,.06-.09,0-.04-.05-.06-.14-.06h-1.12c-.36,.29-.75,.53-1.14,.71-.08,.04-.16,.06-.24,.06-.24,0-.4-.19-.4-.4,0-.14,.09-.29,.29-.39,.54-.25,1.03-.58,1.47-1.06h-1.58c-.23,0-.33-.19-.33-.39s.11-.38,.33-.38h7.85c.23,0,.34,.19,.34,.38,0,.2-.12,.39-.34,.39h-2.48v.77c.56-.14,1.12-.33,1.55-.53,.08-.04,.16-.05,.23-.05,.25,0,.42,.2,.42,.41,0,.15-.1,.32-.31,.41-.56,.24-1.21,.43-1.88,.57v.25c0,.2,.09,.25,.78,.25,1.07,0,1.17-.09,1.24-.54,.04-.24,.24-.35,.43-.35,.24,0,.47,.15,.47,.41v.06c-.11,.9-.39,1.21-2.14,1.21-1.45,0-1.7-.22-1.7-.89v-1.99h-1.79Z"/><path class="cls-3" d="M124.91,67.29h.07c.38,0,.71-.02,1.01-.05h.05c.31,0,.47,.26,.47,.53,0,.25-.14,.48-.42,.51-.3,.03-.6,.05-1.09,.05h-.27c-.06,.47-.14,.94-.21,1.41h.16c.52,0,1.1-.05,1.54-.13,.03-.01,.07-.01,.1-.01,.3,0,.48,.27,.48,.53,0,.24-.13,.47-.42,.53-.47,.1-1.14,.16-1.71,.16h-.28c-.03,.35-.04,.63-.04,.88,0,1.09,.44,1.46,1.31,1.46,1.08,0,1.66-.39,1.66-1.39,0-.23-.05-.51-.12-.74,0-.05-.02-.1-.02-.15,0-.3,.27-.48,.56-.48,.25,0,.49,.13,.58,.43,.1,.31,.15,.62,.15,.93,0,1.72-1.14,2.56-2.79,2.56-1.53,0-2.44-.81-2.44-2.53,0-.3,0-.62,.05-1.02-.46-.05-.84-.11-1.18-.2-.28-.08-.41-.31-.41-.54,0-.28,.19-.55,.5-.55,.06,0,.12,0,.18,.02,.3,.08,.64,.14,1.04,.19,.06-.47,.13-.94,.21-1.41-.38-.03-.73-.09-1.03-.16-.29-.07-.42-.29-.42-.5,0-.28,.2-.54,.5-.54,.04,0,.08,0,.12,.01,.31,.07,.64,.12,1.01,.16l.25-1.45c.05-.29,.3-.42,.56-.42,.27,0,.55,.16,.55,.47,0,.03,0,.06,0,.1l-.23,1.35Z"/><path class="cls-3" d="M132.48,67.89c.68,0,1.03,.32,1.03,.85,0,.11-.02,.23-.05,.35-.37,1.53-1.27,3.02-2.27,3.94-.15,.13-.29,.19-.43,.19-.27,0-.49-.23-.49-.51,0-.15,.07-.31,.23-.46,.87-.81,1.59-1.95,1.89-3.14,0-.04,0-.07,0-.09,0-.09-.05-.12-.18-.12h-1.17c-.28,0-.42-.25-.42-.5s.14-.5,.42-.5h1.42Zm3.9-2.3c.73,0,1.13,.4,1.13,.87,0,.26-.14,.55-.42,.78l-.26,.2c.12,.45,.26,.9,.44,1.33,.38-.29,.76-.62,1.09-.98,.14-.14,.28-.2,.42-.2,.29,0,.54,.25,.54,.54,0,.14-.06,.29-.2,.42-.4,.39-.91,.8-1.43,1.13,.5,.97,1.12,1.79,1.8,2.41,.18,.16,.25,.33,.25,.49,0,.32-.28,.58-.59,.58-.14,0-.27-.05-.4-.17-1.18-1.18-2.21-3.06-2.73-4.98-.16,.1-.32,.19-.49,.28v.52h.31c.26,0,.38,.21,.38,.43s-.13,.43-.38,.43h-.31v.5h.72c.26,0,.38,.22,.38,.43,0,.22-.13,.44-.38,.44h-.72v.52h1.31c.26,0,.38,.22,.38,.43s-.13,.44-.38,.44h-1.31v.82c0,.87-.39,1.23-1.26,1.23-.21,0-.49-.02-.73-.07-.28-.06-.4-.29-.4-.52,0-.26,.16-.51,.46-.51,.03,0,.07,0,.11,.01,.21,.04,.37,.05,.54,.05,.18,0,.26-.07,.26-.31v-.68h-1.38c-.26,0-.39-.22-.39-.44s.14-.43,.39-.43h1.38v-.52h-.8c-.26,0-.38-.22-.38-.44s.13-.43,.38-.43h.8v-.5h-.5c-.26,0-.38-.22-.38-.43s.13-.43,.38-.43h.5v-1.05c0-.31,.26-.46,.51-.46,.07,0,.13,.01,.19,.03,.32-.17,.64-.36,.87-.55,.06-.05,.09-.09,.09-.12,0-.04-.06-.07-.16-.07h-3.72c-.28,0-.42-.25-.42-.5s.14-.5,.42-.5h4.09Z"/><path class="cls-3" d="M143.31,69.91c.1-.23,.17-.42,.26-.69,.08-.22,.26-.32,.42-.32,.23,0,.44,.16,.44,.4,0,.04-.01,.08-.02,.12-.17,.57-.43,1.21-.69,1.66-.16,.27-.42,.41-.68,.41-.28,0-.54-.16-.63-.48-.13-.43-.24-1.16-.24-1.73,0-.81,.12-1.91,.36-2.96,.07-.28,.32-.41,.56-.41,.27,0,.54,.16,.54,.45,0,.04-.01,.08-.02,.13-.22,.94-.36,2.08-.36,2.69,0,.32,0,.53,.03,.73h.02Zm2.53-3.7c0-.33,.29-.51,.59-.51,.26,0,.53,.15,.58,.48,.14,1.06,.21,2.15,.21,3.24,0,2.18-.77,3.7-2.14,4.78-.14,.11-.28,.16-.41,.16-.3,0-.55-.26-.55-.56,0-.17,.08-.35,.26-.5,1.12-.95,1.67-2.17,1.67-3.87,0-1.04-.07-2.08-.2-3.15v-.06Z"/><path class="cls-3" d="M155.13,66.77h.63c.57,0,1.11,.01,1.61,.02,.33,.01,.5,.27,.5,.54s-.17,.51-.5,.51c-.38-.01-.8-.02-1.25-.02-.31,0-.64,.01-.97,.01,0,.35,0,.7,.03,1.06,.65-.04,1.28-.09,1.85-.16h.08c.34,0,.52,.25,.52,.51,0,.24-.16,.49-.48,.53-.6,.08-1.25,.13-1.9,.17,.02,.44,.06,.89,.1,1.33,.83,.22,1.67,.59,2.46,1.1,.24,.15,.33,.35,.33,.54,0,.31-.26,.59-.58,.59-.11,0-.22-.03-.33-.11-.6-.4-1.21-.73-1.82-.97v.07c0,1.09-.92,1.61-2.06,1.61-1.25,0-2.01-.61-2.01-1.55,0-.88,.71-1.55,2.11-1.55,.27,0,.52,.02,.8,.05-.03-.36-.07-.72-.08-1.08h-.56c-.59,0-1.19-.02-1.53-.06-.32-.04-.47-.29-.47-.53,0-.26,.18-.53,.49-.53h.07c.36,.04,.85,.07,1.41,.07h.53c-.02-.36-.03-.71-.04-1.08-.83,.02-1.65,.05-2.34,.08-.33,.01-.51-.26-.51-.53s.16-.51,.49-.53c.69-.03,1.5-.07,2.34-.08v-1.02c0-.3,.27-.45,.55-.45s.54,.15,.54,.45v1Zm-.81,5.58v-.22c-.3-.06-.59-.09-.88-.09-.77,0-.99,.24-.99,.54,0,.27,.26,.5,.89,.5s.98-.31,.98-.73Z"/><path class="cls-3" d="M164.75,72.01c-.18,.16-.43,.25-.73,.25-.96,0-1.67-.66-1.67-1.81,0-.99,.61-1.67,1.52-1.67,.21,0,.4,.03,.59,.08l-.03-.81c-.72,.04-2.38,.12-3.4,.19-.11,.01-.33,.02-.44,.02-.33,0-.52-.29-.52-.57,0-.26,.16-.52,.5-.54,1.16-.07,2.5-.14,3.85-.19,0-.36,0-.77,0-1.23,0-.32,.27-.49,.55-.49s.53,.16,.53,.48v1.2c1.02-.03,2-.05,2.88-.05,.34,0,.51,.27,.51,.55,0,.26-.17,.53-.47,.53-.87,0-1.87,.03-2.9,.06,0,.58,.03,1.16,.07,1.74,.22,.36,.33,.83,.33,1.34,0,1.59-.8,2.69-2.21,3.35-.1,.04-.19,.06-.26,.06-.32,0-.56-.27-.56-.56,0-.19,.11-.39,.38-.51,.8-.35,1.33-.93,1.51-1.41h-.03Zm-1.35-1.54c0,.49,.35,.8,.68,.8s.58-.24,.58-.7-.26-.81-.69-.81c-.33,0-.57,.27-.57,.71Z"/></g><path class="cls-2" d="M41.81,1.96h0m133.33,.69c2.06,0,3.52,.31,4.21,.55,1.24,3.1,7.1,3.36,9.05,3.36h15.05c2.23,0,3.6,.68,3.99,1.02,.21,3.22,3.67,5.7,8.05,5.7h.03c1.47,0,2.76,1.85,2.76,3.96v49.81c0,2.12-1.3,3.99-2.78,3.99-4.39,.01-7.85,2.5-8.06,5.73-.39,.34-1.76,1.02-3.99,1.02h-15.05c-1.94,0-7.81,.26-9.05,3.36-.69,.24-2.15,.55-4.21,.55H45.78c-2.06,0-3.52-.31-4.21-.55-1.24-3.1-7.1-3.36-9.05-3.36h-15.05c-2.23,0-3.6-.68-3.99-1.02-.21-3.23-3.68-5.72-8.07-5.72-1.48,0-2.78-1.86-2.78-3.98V17.28c0-2.12,1.3-3.98,2.78-3.98,4.39,0,7.86-2.49,8.07-5.72,.39-.34,1.76-1.02,3.99-1.02h15.05c1.94,0,7.81-.26,9.05-3.36,.69-.24,2.15-.55,4.21-.55H175.14M13.5,7.29h0M175.14,0H45.78c-3.65,0-6.63,.88-6.63,1.96s-2.98,1.96-6.63,1.96h-15.05c-3.65,0-6.63,1.52-6.63,3.37s-2.44,3.37-5.43,3.37S0,13.64,0,17.28v49.81c0,3.65,2.44,6.63,5.43,6.63s5.43,1.52,5.43,3.37,2.98,3.37,6.63,3.37h15.05c3.65,0,6.63,.88,6.63,1.96s2.98,1.96,6.63,1.96H175.14c3.65,0,6.63-.88,6.63-1.96s2.98-1.96,6.63-1.96h15.05c3.65,0,6.63-1.52,6.63-3.37s2.44-3.38,5.43-3.38c2.98,0,5.43-3,5.43-6.64V17.26c0-3.64-2.44-6.61-5.41-6.61h-.03c-2.97,0-5.4-1.51-5.4-3.36s-2.98-3.37-6.63-3.37h-15.05c-3.65,0-6.63-.88-6.63-1.96s-2.98-1.96-6.63-1.96h0Z"/><g><g><path class="cls-4" d="M33.41,20.51c-.22,0-.31,.1-.32,.33,0,.18,.01,.36,.01,.56,0,.27-.11,.29-.49,.29s-.48-.02-.48-.29c0-.4,.01-.78,.01-1.17v-4.52c0-.3-.01-.6-.01-.89,0-.35,.06-.6,.46-.6,.22,0,.46,.01,.68,.01h1.35c.22,0,.41-.02,.58-.02,.38,0,.57,.08,.57,.57,0,.31-.01,.63-.01,.94v4.14c0,.39,.02,.77,.02,1.16,0,.27-.08,.3-.48,.3s-.48-.04-.48-.3v-.22c0-.19-.09-.28-.28-.28h-1.12Zm1.41-5.09c0-.21-.12-.31-.32-.34h-1.1c-.2,.02-.31,.13-.33,.34v1.12c.02,.21,.13,.31,.33,.34h1.1c.2-.02,.32-.13,.32-.34v-1.12Zm-.32,4.18c.2-.02,.32-.13,.32-.34v-1.2c0-.21-.12-.3-.32-.33h-1.1c-.2,0-.31,.12-.33,.33v1.2c.02,.21,.13,.31,.33,.34h1.1Zm3.7,.33c-.24,0-.33,.08-.37,.31-.25,1.39-.71,2.57-1.65,3.61-.09,.1-.2,.23-.34,.23-.2,0-.64-.4-.64-.62,0-.1,.11-.19,.21-.3,1.37-1.41,1.58-2.84,1.58-4.75v-2.86c0-.35-.02-.7-.02-1.05,0-.43,.15-.56,.57-.56,.28,0,.57,.01,.85,.01h1.52c.28,0,.55-.01,.84-.01,.4,0,.57,.11,.57,.54,0,.36-.01,.71-.01,1.06v6.27c0,.3,.02,.6,.02,.91,0,1.27-.8,1.38-1.83,1.38-.2,0-.59,.02-.59-.79,0-.16,.06-.25,.22-.25,.12,0,.34,.04,.54,.04,.7,0,.7-.21,.7-.89v-1.94c0-.24-.09-.34-.33-.34h-1.84Zm1.84-3.43c.2-.02,.31-.13,.33-.34v-.97c-.02-.21-.13-.33-.33-.33h-1.78c-.2,0-.31,.12-.33,.33v.97c.02,.21,.13,.31,.33,.34h1.78Zm-1.78,.86c-.24,0-.33,.1-.33,.33v1.04c0,.23,.09,.34,.32,.34h1.79c.24,0,.33-.1,.33-.34v-1.04c0-.23-.09-.33-.33-.33h-1.78Z"/><path class="cls-4" d="M44.46,23.05c0,.28-.12,.29-.41,.29-.33,0-.41-.02-.41-.3,0-.31,.01-.64,.01-.95v-2.04s-.02-.07-.06-.07-.05,.01-.06,.02c-.09,.16-.25,.43-.39,.43s-.57-.39-.57-.58c0-.1,.12-.25,.18-.33,.4-.58,.84-1.62,1.05-2.3,.2-.63,.33-1.27,.44-1.92,.01-.01,.01-.04,.01-.06,0-.18-.12-.25-.28-.25-.22-.01-.61,.02-.8,.02-.22,0-.24-.12-.24-.47s.01-.47,.24-.47c.29,0,.61,.02,.94,.02h1.41c.33,0,.65-.02,.94-.02,.25,0,.24,.15,.24,.46s.01,.48-.22,.48c-.29,0-.62-.02-.95-.02h-.02c-.24,0-.33,.08-.38,.33-.13,.75-.17,.94-.35,1.69-.01,.02-.01,.06-.01,.08,0,.17,.12,.22,.25,.23h.48c.16,0,.33-.01,.49-.01,.31,0,.39,.22,.39,.5s-.01,.54-.01,.82v2.92c0,.31,.01,.64,.01,.95,0,.28-.09,.3-.41,.3s-.41-.02-.41-.29v-.22c0-.17-.08-.24-.24-.24h-.54c-.21,0-.32,.08-.32,.3-.01,.23,.01,.46,.01,.69Zm1.1-4.51c0-.21-.12-.31-.32-.34h-.47c-.2,.02-.29,.12-.32,.34v2.3c.02,.21,.12,.3,.32,.33h.47c.2-.02,.32-.12,.32-.33v-2.3Zm5.01-2.72c.09,0,.39,.11,.51,.15,.08,.02,.39,.11,.39,.22,0,.08-.07,.1-.17,.12-.07,.02-.12,.06-.15,.13-.07,.21-.15,.4-.24,.59-.01,.04-.02,.06-.02,.1,0,.14,.11,.18,.22,.19h.44c.45,0,.88-.02,1.33-.02,.24,0,.24,.1,.24,.43s-.01,.42-.24,.42c-.45,0-.88-.02-1.33-.02h-.32c-.2,0-.28,.08-.28,.29v.31c0,.21,.08,.29,.28,.29h.26c.39,0,.77-.02,1.15-.02,.24,0,.25,.11,.25,.43s-.01,.42-.25,.42c-.39,0-.77-.02-1.15-.02h-.26c-.2,0-.28,.08-.28,.29v.37c0,.21,.08,.29,.28,.29h.08c.44,0,.87-.02,1.32-.02,.24,0,.24,.12,.24,.43s-.01,.42-.24,.42c-.45,0-.88-.02-1.32-.02h-.05c-.22,0-.32,.1-.32,.33v.42c0,.24,.09,.34,.32,.34h.59c.39,0,.79-.02,1.18-.02,.24,0,.25,.11,.25,.42s-.01,.42-.24,.42c-.4,0-.8-.02-1.19-.02h-3c-.15,0-.24,.06-.24,.22-.01,.43-.04,.51-.47,.51-.4,0-.48-.05-.48-.41,0-.46,.02-.93,.02-1.39v-3.2c0-.06-.02-.12-.09-.12-.04,0-.06,.01-.08,.04-.19,.23-.39,.5-.55,.5-.19,0-.53-.36-.53-.52,0-.11,.12-.22,.18-.29,.86-.85,1.65-2.07,2.2-3.14,.02-.04,.04-.06,.04-.11,0-.12-.11-.17-.21-.17h-.44c-.22,0-.32,.1-.32,.33v.04c0,.16,.01,.3,.01,.45,0,.27-.16,.27-.44,.27-.32,0-.45-.01-.45-.28,0-.17,.02-.33,.02-.49v-.16c0-.17-.01-.34-.01-.51,0-.41,.24-.48,.67-.48,.2,0,.44,.02,.72,.02h.61c.24,0,.34-.07,.45-.3,.09-.23,.16-.45,.24-.69,.02-.07,.06-.17,.15-.17,.07,0,.48,.13,.58,.16,.24,.07,.4,.11,.4,.22,0,.1-.09,.12-.15,.16-.18,.06-.19,.16-.27,.36-.01,.04-.02,.06-.02,.1,0,.12,.09,.16,.2,.17h1.08c.27,0,.52-.02,.72-.02,.42,0,.67,.07,.67,.47,0,.18-.01,.35-.01,.52v.21c0,.17,.02,.34,.02,.49,0,.27-.13,.28-.45,.28-.26,0-.44,0-.44-.27,0-.14,.01-.29,.01-.45v-.08c0-.23-.09-.33-.32-.33h-1.64c-.25,0-.34,.06-.46,.28-.25,.47-.51,.93-.77,1.38-.02,.04-.04,.07-.04,.12,0,.11,.08,.15,.19,.16h.46c.24,0,.34-.06,.45-.29,.15-.35,.27-.7,.38-1.06,.02-.07,.04-.15,.12-.15Zm-1.7,2.31c-.18,0-.28,.12-.28,.29v.31c0,.17,.11,.29,.28,.29h.91c.18,0,.28-.12,.28-.29v-.31c0-.17-.11-.29-.28-.29h-.91Zm.91,2.66c.18,0,.28-.12,.28-.29v-.37c0-.17-.11-.29-.28-.29h-.91c-.18,0-.28,.12-.28,.29v.37c0,.17,.11,.29,.28,.29h.91Zm-.87,.81c-.24,0-.32,.1-.32,.33v.42c0,.24,.09,.34,.32,.34h.84c.24,0,.32-.1,.32-.34v-.42c0-.23-.08-.33-.32-.33h-.84Z"/><path class="cls-4" d="M59.16,13.96c.06,.02,.14,.06,.14,.14,0,.07-.07,.12-.17,.22-.11,.1-.29,.91-.34,1.09-.01,.06-.05,.19-.05,.23,0,.08,.06,.14,.14,.14s.71-.18,.81-.22c.05-.01,.08-.04,.13-.04,.18,0,.2,.64,.2,.79,0,.28-.14,.28-1.3,.49-.39,.07-.38,.13-.51,.51-.37,1.1-.9,2.28-1.4,3.33-.18,.35-.35,.7-.55,1.05-.05,.08-.09,.14-.2,.14-.2,0-.82-.28-.82-.5,0-.1,.14-.31,.19-.41,.53-.87,1.08-1.94,1.46-2.9,.07-.17,.29-.72,.29-.82,0-.07-.05-.14-.14-.14-.07,0-.17,.01-.24,.02-.19,.02-1.06,.11-1.21,.11-.19,0-.24-.11-.27-.31-.02-.11-.06-.43-.06-.54,0-.14,.07-.18,.2-.18,.09,0,.19,.01,.27,.01,.32,0,1.65-.01,1.83-.21,.11-.12,.19-.52,.25-.76,.11-.45,.18-.92,.19-1.38,0-.08,0-.19,.11-.19,.12,0,.88,.25,1.05,.31Zm1.76,3.5c.11,.02,.2,.08,.2,.21,0,.05-.02,.41-.02,.65,0,.64,.05,1.84,.12,2.46,.02,.22,.11,.28,.29,.35,.47,.18,.75,.31,1.19,.57,.14,.08,.68,.39,.68,.54,0,.19-.34,.7-.59,.7-.11,0-.21-.1-.29-.16-.19-.14-.88-.64-1.11-.64-.13,0-.14,.19-.15,.3-.08,.91-.71,1.27-1.54,1.27-.88,0-1.98-.49-1.98-1.53s1.01-1.39,1.87-1.39c.14,0,.29,.01,.44,.01,.12,0,.22-.02,.22-.17,0-.35-.16-2.51-.22-2.91v-.15c0-.16,.09-.22,.24-.22,.19,0,.48,.05,.66,.1Zm-2.26,4.7c0,.43,.6,.66,.95,.66,.51,0,.73-.27,.73-.77,0-.3-.04-.41-.72-.41-.33,0-.97,.06-.97,.52Zm5.18-4.61c0,.24-.53,.64-.71,.64-.11,0-.15-.08-.21-.17-.34-.54-.93-1.14-1.44-1.52-.07-.05-.15-.12-.15-.21,0-.15,.44-.64,.62-.64,.29,0,1.89,1.59,1.89,1.9Z"/><path class="cls-4" d="M69.52,23.38s-.11-.01-.14-.02c-.04-.02-.07-.04-.12-.04-.04,0-.09,.04-.13,.05-.55,.22-2.43,.77-2.97,.77-.33,0-.39-.57-.39-.63,0-.19,.14-.18,.42-.22,.86-.11,1.97-.34,2.75-.75,.02-.01,.07-.04,.11-.04,.08,0,.2,.18,.32,.35,.05,.06,.08,.12,.12,.17,.04,.06,.13,.18,.13,.25,0,.05-.05,.1-.09,.1Zm-1.4-5.93c0-.08-.08-.12-.15-.12h-.93c-.08,0-.13,.07-.19,.13-.07,.08-.21,.07-.32,.07h-.09c-.15,0-.37-.01-.37-.18,0-.08,.16-.89,.19-1.04,.02-.11,.05-.24,.06-.33,.09-.49,.15-.53,.68-.53,.31,0,.75,.01,1.06,.01h.66c.17,0,.24-.07,.25-.25,.01-.02,.01-.06,.01-.1-.01-.16-.09-.22-.25-.22h-1.21c-.41,0-.84,.02-1.25,.02-.2,0-.22-.08-.22-.35s.04-.35,.22-.35c.41,0,.84,.02,1.25,.02h1.17c.19,0,.28-.07,.28-.28-.01-.1-.04-.34-.04-.39,0-.13,.08-.17,.2-.17,.15,0,.68,.05,.85,.07,.07,.01,.16,.04,.16,.15,0,.08-.07,.11-.14,.16-.09,.06-.13,.12-.14,.24,0,.17,.14,.21,.27,.22h.99c.18,0,.27-.07,.27-.28-.01-.07-.04-.3-.04-.35,0-.13,.08-.16,.19-.16,.12,0,.28,.01,.42,.02,.06,0,.13,.01,.19,.01,.25,.02,.41,.04,.41,.16,0,.08-.08,.13-.15,.17-.09,.07-.11,.11-.12,.18v.04c0,.16,.15,.19,.27,.21h.71c.33,0,.66-.01,.99-.01,.29,0,.53,.01,.53,.39,0,.16-.01,.33-.01,.5v.12c0,.16,.01,.31,.01,.48,0,.36-.22,.4-.53,.4-.33,0-.66-.02-.99-.02h-.75c-.16,0-.24,.07-.24,.24v.1c0,.17,.07,.24,.24,.24h1.92c.25,0,.51-.01,.75-.01,.2,0,.34,.07,.34,.3,0,.39-.16,1.15-.4,1.44-.21,.27-.74,.24-1.05,.25-.21,0-.31,.1-.32,.3-.01,.08-.01,.17-.01,.25v2.27c0,.18,.02,.36,.02,.53,0,.39-.27,.44-.59,.44s-.61-.01-.92-.01h-3.19c-.32,0-.59,.01-.8,.01-.47,0-.71-.06-.71-.42,0-.17,.01-.33,.01-.54v-2.38c-.01-.13-.06-.23-.21-.23-.04,0-.06,0-.09,.01-.19,.06-.65,.21-.82,.21-.28,0-.4-.45-.4-.62,0-.19,.13-.19,.38-.23,.58-.1,1.18-.31,1.63-.69,.04-.04,.06-.06,.06-.11Zm-1.06-1c0,.17,.14,.23,.29,.23h1.12c.18,0,.27-.05,.33-.22,.01-.05,.02-.08,.02-.13,0-.17-.13-.23-.27-.23h-.9c-.5,0-.53,.02-.59,.27,0,.02-.01,.05-.01,.08Zm5.55,3.03c.14,0,.24-.1,.24-.24v-.05c0-.14-.09-.24-.24-.24h-3.85c-.14,0-.25,.1-.25,.24v.05c0,.15,.11,.24,.25,.24h3.85Zm-3.85,.59c-.14,0-.25,.11-.25,.25v.05c0,.14,.11,.24,.25,.24h3.85c.14,0,.24-.1,.24-.24v-.05c0-.14-.09-.25-.24-.25h-3.85Zm0,1.12c-.14,0-.25,.1-.25,.24v.07c0,.14,.11,.25,.25,.25h3.85c.14,0,.24-.11,.24-.25v-.07c0-.15-.09-.24-.24-.24h-3.85Zm2.37-2.94c.2,0,.28-.08,.28-.29v-.35c0-.21-.08-.29-.28-.29h-1.51c-.21,0-.28,.04-.42,.21-.14,.19-.28,.35-.46,.52-.04,.02-.06,.06-.06,.11,0,.06,.06,.1,.12,.1h2.33Zm-1.12-2.16c-.15,0-.2,.02-.28,.23-.01,.02-.01,.04-.01,.06v.07c0,.16,.12,.22,.25,.22h1.21c.17,0,.24-.07,.24-.24v-.08c0-.18-.07-.25-.24-.25h-1.17Zm1.17-.63c.18,0,.24-.07,.24-.25v-.06c0-.18-.07-.25-.24-.25h-1.08c-.17,0-.22,.07-.24,.24,.01,.23,.09,.33,.32,.33h1Zm3.97,8.71c-.57,0-2.06-.49-2.63-.72-.35-.15-.58-.22-.58-.39,0-.13,.22-.54,.44-.54,.07,0,.13,.02,.19,.05,.73,.36,1.9,.68,2.71,.76,.18,.02,.28,.06,.28,.21,0,.22-.07,.64-.41,.64Zm-1.47-8.71c.14,0,.25-.11,.25-.25v-.06c0-.15-.11-.25-.25-.25h-1.14c-.14,0-.24,.11-.24,.25v.06c0,.15,.09,.25,.24,.25h1.14Zm-.08,2.67c.01-.13,.02-.18,.16-.18,.12,0,.27,.02,.35,.02,.09,0,.26-.02,.33-.08,.12-.1,.18-.35,.18-.42,0-.17-.19-.15-.38-.15h-1.66c-.2,0-.28,.08-.28,.29v.35c0,.18,.07,.29,.26,.29,.21,.01,.44-.01,.66-.01,.07,0,.15,0,.22,.01,.09,.01,.14-.01,.15-.12Z"/><path class="cls-4" d="M79.17,20.23c-.22,0-.33,.07-.37,.31-.15,1.16-.46,2.31-1.13,3.27-.09,.13-.19,.25-.34,.25-.18,0-.64-.34-.64-.56,0-.08,.07-.18,.12-.25,1.06-1.61,1.15-3.09,1.15-4.98v-2.8c0-.36-.02-.72-.02-1.09,0-.5,.21-.6,.66-.6,.32,0,.64,.02,.95,.02h5.34c.31,0,.62-.02,.94-.02,.45,0,.66,.11,.66,.6,0,.36-.01,.72-.01,1.09v6.31c0,.3,.02,.6,.02,.89,0,.42-.04,.83-.38,1.1-.4,.33-1.07,.33-1.57,.33-.27,0-.59-.01-.59-.78,0-.19,.06-.27,.25-.27,.2,0,.4,.02,.6,.02,.66,0,.7-.14,.7-.87v-1.65c0-.23-.09-.33-.33-.33h-2.37c-.22,0-.33,.1-.33,.33v1.2c0,.58,.04,1.15,.04,1.72,0,.39-.09,.43-.51,.43s-.51-.05-.51-.45c0-.57,.02-1.14,.02-1.7v-1.2c0-.23-.09-.33-.32-.33h-2.05Zm.08-2.75c-.22,0-.32,.1-.32,.34v.56c0,.22-.01,.43-.01,.65,.01,.23,.09,.31,.32,.31h1.98c.22,0,.32-.1,.32-.34v-1.18c0-.24-.09-.34-.32-.34h-1.97Zm2.29-2.39c0-.21-.12-.33-.32-.33h-1.97c-.2,0-.32,.12-.32,.33v1.16c0,.21,.12,.31,.32,.34h1.97c.2-.02,.32-.13,.32-.34v-1.16Zm3.65,1.5c.2-.02,.31-.13,.33-.34v-1.16c-.02-.21-.13-.33-.33-.33h-2.37c-.2,0-.31,.12-.33,.33v1.16c.02,.21,.13,.31,.33,.34h2.37Zm-2.7,2.42c.02,.22,.13,.34,.33,.34h2.37c.2,0,.31-.12,.33-.34v-1.18c-.02-.21-.13-.31-.33-.34h-2.37c-.2,.02-.31,.13-.33,.34v1.18Z"/><path class="cls-4" d="M91.41,22.83c0,.21-.46,.76-.68,.76-.11,0-.18-.1-.24-.18-.5-.63-1.11-1.17-1.79-1.61-.08-.06-.19-.11-.19-.23,0-.19,.47-.68,.64-.68,.29,0,2.26,1.64,2.26,1.93Z"/><path class="cls-4" d="M131.28,22.83c0,.21-.46,.76-.68,.76-.11,0-.18-.1-.24-.18-.5-.63-1.11-1.17-1.79-1.61-.08-.06-.19-.11-.19-.23,0-.19,.47-.68,.64-.68,.29,0,2.26,1.64,2.26,1.93Z"/><path class="cls-4" d="M95.43,20.58c-.14,.06-.15,.11-.19,.25-.11,.53-.48,1.82-.67,2.36-.05,.13-.09,.27-.26,.27-.14,0-.59-.1-.59-.28,0-.07,.08-.25,.11-.33,.32-.82,.58-1.63,.68-2.51,.01-.11,.05-.22,.15-.22,.02,0,.04,.01,.06,.01,.26,.06,.84,.17,.84,.33,0,.06-.07,.1-.13,.12Zm2.63-.59c-.14,0-.2-.14-.29-.39-.02-.05-.05-.11-.08-.18-.07-.16-.13-.22-.28-.22-.02,0-.27,.04-.4,.06-.24,.04-.29,.15-.32,.39v2.52c0,.48,.04,.98,.04,1.46,0,.37-.08,.43-.48,.43s-.48-.05-.48-.43c0-.5,.04-.98,.04-1.46v-2.42c0-.17-.07-.3-.26-.3h-.05l-1.01,.11c-.08,.02-.11,.05-.14,.12-.04,.07-.08,.14-.16,.14-.11,0-.13-.07-.19-.33-.01-.06-.04-.14-.06-.24-.02-.08-.11-.39-.11-.47,0-.12,.11-.13,.34-.13,.06,0,.13-.01,.21-.01s.18-.01,.27-.01c.22-.02,.32-.08,.46-.28,.13-.19,.26-.4,.4-.59,.04-.07,.07-.14,.07-.23,0-.1-.06-.18-.13-.25-.54-.52-.8-.74-1.38-1.21-.06-.05-.13-.11-.13-.21,0-.14,.25-.6,.44-.6,.09,0,.25,.15,.33,.22,.05,.02,.07,.05,.13,.05,.07,0,.12-.06,.15-.11,.28-.58,.64-1.36,.84-1.97,.02-.07,.05-.16,.13-.16,.04,0,.88,.31,.88,.48,0,.1-.09,.11-.19,.13-.08,.01-.13,.04-.16,.11-.28,.65-.59,1.29-.91,1.92-.02,.05-.04,.08-.04,.15,0,.08,.05,.14,.11,.21,.08,.08,.18,.17,.27,.27,.05,.04,.11,.07,.18,.07,.09,0,.15-.06,.2-.13,.32-.51,.61-1.04,.91-1.57,.05-.1,.08-.16,.15-.16,.06,0,.88,.42,.88,.59,0,.1-.09,.11-.17,.11-.11,.01-.18,.02-.24,.12-.57,.91-1.11,1.8-1.73,2.68-.02,.04-.04,.07-.04,.1,0,.11,.08,.14,.18,.14,.24-.02,.48-.05,.73-.08,.09-.01,.18-.06,.18-.18,0-.04-.01-.06-.02-.1-.05-.1-.18-.34-.18-.43,0-.16,.38-.31,.52-.31,.17,0,.26,.21,.49,.71,.05,.11,.11,.22,.16,.35,.09,.19,.49,1.01,.49,1.17,0,.22-.47,.35-.55,.35Zm-.06,2.67c-.19,0-.25-.17-.28-.31-.15-.53-.44-1.28-.67-1.78-.02-.05-.08-.16-.08-.22,0-.22,.42-.33,.54-.33,.11,0,.18,.07,.22,.16,.13,.25,.28,.65,.39,.93,.08,.19,.4,1.05,.4,1.21,0,.22-.41,.34-.52,.34Zm6.17,1.16c-.4,0-.8-.02-1.19-.02h-3.5c-.4,0-.8,.02-1.2,.02-.26,0-.27-.15-.27-.48s.01-.47,.28-.47c.4,0,.79,.02,1.19,.02h1.01c.24,0,.33-.1,.33-.33v-1.18c0-.23-.09-.34-.33-.34h-.34c-.42,0-.86,.04-1.3,.04-.27,0-.27-.16-.27-.47s0-.47,.27-.47c.44,0,.87,.02,1.3,.02h.34c.24,0,.33-.1,.33-.33,.01-.34-.01-.69-.05-1.03,0-.04-.01-.07-.01-.12,0-.13,.08-.16,.2-.16,.15,0,.53,.05,.71,.06,.15,.01,.38,.02,.38,.17,0,.08-.06,.1-.17,.17-.15,.12-.13,.29-.14,.93,.02,.23,.12,.3,.33,.3h.42c.44,0,.86-.02,1.3-.02,.28,0,.27,.16,.27,.47s0,.47-.27,.47c-.44,0-.86-.04-1.3-.04h-.42c-.22,0-.33,.11-.33,.34v1.18c0,.23,.11,.33,.33,.33h.91c.39,0,.79-.02,1.19-.02,.28,0,.27,.16,.27,.48s0,.47-.27,.47Zm.04-4.82c-.11,0-.28-.06-.39-.1-.75-.27-1.63-.7-2.27-1.2-.08-.06-.15-.11-.26-.11-.09,0-.16,.05-.25,.1-.65,.42-1.18,.81-1.92,1.04-.12,.06-.28,.13-.42,.13-.22,0-.51-.39-.51-.62,0-.17,.18-.22,.34-.28,.67-.25,1.26-.54,1.87-.93,.08-.06,.14-.12,.14-.22,0-.08-.04-.14-.07-.21-.42-.57-.66-1.05-.94-1.69-.08-.18-.17-.23-.37-.24-.11,.01-.22,.01-.33,.01-.21,0-.22-.12-.22-.45,0-.35,.01-.46,.22-.46,.41,0,.81,.02,1.23,.02h2.27c.26,0,.51-.01,.77-.01,.57,0,.67,.56,.67,.63,0,.17-.16,.47-.25,.63-.37,.64-.77,1.15-1.27,1.65-.06,.06-.09,.11-.09,.19,0,.1,.05,.16,.12,.21,.62,.43,1.33,.72,2.05,.95,.19,.06,.34,.08,.34,.25,0,.22-.22,.68-.46,.68Zm-2.03-4.32h-1.52c-.12,.01-.22,.05-.22,.19,0,.04,.01,.07,.02,.1,.2,.43,.37,.75,.66,1.12,.07,.06,.12,.12,.22,.12,.08,0,.15-.05,.21-.11,.2-.19,.94-1.04,.94-1.29,0-.12-.14-.13-.32-.13Z"/><path class="cls-4" d="M107.02,17.04c.14,.11,.64,.46,.64,.63,0,.12-.28,.58-.49,.58-.09,0-.17-.06-.22-.12-.45-.36-.92-.7-1.39-1.03-.11-.07-.22-.13-.22-.24,0-.16,.31-.6,.48-.6s1.03,.64,1.21,.79Zm1.23,2.79c0,.06-.09,.27-.13,.33-.53,1.06-1.06,2.07-1.68,3.08-.05,.08-.13,.21-.13,.31,0,.07,.04,.17,.04,.24,0,.08-.05,.16-.13,.16-.09,0-.45-.3-.54-.39-.07-.07-.33-.24-.33-.35,0-.08,.08-.19,.14-.25,.58-.75,1.58-2.61,1.97-3.5,.05-.11,.08-.16,.15-.16,.13,0,.65,.33,.65,.53Zm-.55-4.26c-.09,0-.16-.06-.25-.12-.42-.35-.91-.69-1.38-1-.08-.06-.2-.12-.2-.23,0-.13,.29-.6,.49-.6,.15,0,.75,.45,.91,.57,.16,.12,.73,.53,.85,.64,.05,.05,.08,.11,.08,.17,0,.15-.32,.58-.51,.58Zm6.81,4.69v2.16c0,.45,.02,.89,.02,1.34,0,.39-.11,.41-.47,.41s-.48-.02-.48-.4c0-.43,.04-.87,.02-1.3,0-.23-.09-.34-.33-.34h-2.67c-.24,.02-.32,.07-.42,.29-.21,.56-.48,1.06-.86,1.51-.09,.11-.24,.27-.39,.27-.2,0-.61-.35-.61-.56,0-.08,.07-.17,.13-.23,.82-.85,1.19-1.98,1.19-3.15v-.7c0-.21,0-.39-.04-.62-.02-.06-.05-.12-.12-.12h-.04c-.18,.05-.81,.23-.95,.23-.25,0-.41-.52-.41-.69,0-.19,.35-.24,.49-.27,.85-.16,1.6-.41,2.37-.82,.07-.04,.13-.1,.13-.18s-.02-.13-.08-.19c-.37-.37-.72-.81-.98-1.27-.12-.22-.22-.27-.47-.27s-.49,.02-.73,.02-.25-.12-.25-.45,.01-.45,.25-.45c.45,0,.88,.02,1.32,.02h1.01c.22,0,.32-.08,.33-.31-.01-.18-.02-.36-.05-.53,0-.05-.01-.08-.01-.12,0-.14,.11-.17,.21-.17,.14,0,.66,.05,.83,.07,.11,.01,.28,.01,.28,.14,0,.1-.08,.13-.17,.18-.14,.1-.14,.24-.14,.42,.01,.23,.11,.31,.32,.31h1.41c.44,0,.88-.02,1.32-.02,.24,0,.26,.1,.26,.45s-.02,.45-.26,.45c-.44,0-.87-.04-1.3-.04-.04,.01-.06,.01-.06,.05,0,.02,.01,.04,.02,.04,.06,.04,.12,.07,.12,.14,0,.08-.11,.12-.17,.15-.15,.04-.19,.11-.29,.27-.27,.37-.51,.63-.85,.94-.05,.05-.09,.11-.09,.18,0,.1,.06,.16,.13,.19,.77,.42,1.47,.68,2.32,.85,.27,.06,.46,.07,.46,.29,0,.23-.17,.66-.4,.66-.09,0-.37-.06-.46-.08-.06,0-.09,.05-.14,.1-.06,.06-.11,.1-.14,.12q-.12,.07-.12,1.01Zm-2.32-2.38c-.08-.05-.17-.08-.26-.08s-.17,.02-.25,.07c-.47,.27-.95,.52-1.46,.7-.04,.02-.06,.05-.06,.08,0,.05,.04,.07,.08,.08,.38,.02,.6,.02,.6,.17,0,.08-.07,.11-.15,.16-.09,.06-.13,.13-.14,.25v.05c0,.19,.16,.27,.32,.27h2.45c.19-.02,.27-.08,.27-.29-.01-.1-.04-.29-.04-.35,0-.13,.09-.14,.2-.14,.07,0,.15,0,.22,.01,.05-.01,.06-.04,.06-.05,0-.02-.01-.04-.05-.06-.65-.23-1.23-.51-1.8-.87Zm-1.68,3.15v.05c0,.19,.13,.27,.28,.27h2.53c.2,0,.28-.1,.28-.29v-.35c0-.19-.08-.29-.28-.29h-2.45c-.24,0-.31,.1-.34,.33-.01,.1-.01,.19-.02,.29Zm2.45-5.41s.04-.06,.04-.11c0-.11-.09-.14-.19-.16h-1.61c-.08,.01-.19,.05-.19,.16,0,.05,.02,.07,.05,.11,.21,.29,.42,.56,.7,.78,.08,.07,.14,.11,.25,.11,.09,0,.15-.04,.22-.1,.32-.27,.5-.45,.74-.8Z"/><path class="cls-4" d="M117.68,15.66c.11,.01,.28,.02,.28,.17,0,.05-.06,.1-.09,.11-.08,.05-.13,.07-.14,.25-.05,.51-.13,1.09-.24,1.59-.24,1.17-.33,1.26-.53,1.26-.15,0-.55-.07-.55-.28,0-.07,.04-.17,.06-.24,.26-.81,.45-1.82,.45-2.68,0-.13,0-.27,.18-.27,.08,0,.49,.06,.59,.08Zm.41-1.07c0-.3-.01-.6-.04-.91,0-.04-.01-.08-.01-.13,0-.17,.12-.18,.25-.18,.15,0,.59,.05,.75,.06,.09,.01,.27,.02,.27,.17,0,.08-.07,.12-.16,.19-.13,.1-.14,.27-.14,.66v7.68c0,.54,.02,1.1,.02,1.64,0,.34-.12,.41-.48,.41s-.48-.1-.48-.42c0-.54,.02-1.09,.02-1.63v-7.55Zm1.83,2.98c-.21,0-.27-.11-.29-.31-.08-.54-.18-1.1-.34-1.62-.02-.05-.04-.12-.04-.17,0-.22,.41-.3,.48-.3,.24,0,.28,.24,.46,1.03,.05,.21,.2,.89,.2,1.06,0,.23-.29,.31-.47,.31Zm3.12,3.02c0-.23-.09-.33-.33-.33h-.64c-.42,0-.85,.02-1.27,.02-.27,0-.27-.13-.27-.47s0-.47,.27-.47c.42,0,.85,.02,1.27,.02h.64c.24,0,.33-.1,.33-.34v-1.65c0-.24-.09-.34-.33-.34h-.85c-.25,0-.34,.06-.42,.29-.15,.42-.37,1.06-.58,1.44-.06,.11-.12,.18-.25,.18-.17,0-.62-.14-.62-.35,0-.1,.12-.3,.15-.4,.47-1.24,.94-2.44,1.07-3.78,.01-.13,.01-.3,.18-.3,.08,0,.61,.11,.72,.14,.08,.01,.25,.05,.25,.17,0,.07-.07,.11-.13,.14-.14,.08-.15,.16-.21,.48-.02,.18-.07,.42-.15,.79-.01,.02-.01,.06-.01,.08,0,.16,.12,.22,.26,.22h.61c.22,0,.32-.08,.32-.33v-1.34c0-.29,0-.59-.05-.85,0-.04-.01-.08-.01-.12,0-.14,.09-.17,.21-.17,.09,0,.8,.07,.93,.08,.07,.01,.18,.04,.18,.14,0,.08-.06,.11-.16,.18-.13,.08-.14,.24-.14,.66v1.4c0,.23,.09,.33,.33,.33h.88c.42,0,.86-.02,1.28-.02,.25,0,.26,.11,.26,.47s-.01,.47-.25,.47c-.44,0-.86-.02-1.3-.02h-.88c-.24,0-.33,.1-.33,.34v1.65c0,.24,.09,.34,.33,.34h.53c.42,0,.86-.02,1.28-.02,.27,0,.27,.13,.27,.47s0,.47-.27,.47c-.42,0-.85-.02-1.28-.02h-.53c-.24,0-.33,.1-.33,.33v1.87c0,.24,.09,.34,.33,.34h1.11c.42,0,.86-.02,1.28-.02,.26,0,.26,.13,.26,.47s0,.47-.26,.47c-.42,0-.86-.02-1.28-.02h-3.96c-.44,0-.86,.02-1.3,.02-.26,0-.26-.13-.26-.47s.01-.47,.26-.47c.44,0,.86,.02,1.3,.02h1.24c.24,0,.33-.1,.33-.34v-1.87Z"/><path class="cls-4" d="M136.13,19.14c0-.13-.09-.17-.2-.17h-1.11c-.47,0-.94,.02-1.43,.02-.25,0-.25-.15-.25-.47,0-.36,0-.48,.26-.48,.47,0,.94,.02,1.41,.02h1.56c.24,0,.35-.06,.46-.28,.21-.46,.52-1.16,.68-1.63,.04-.08,.07-.21,.16-.21,.08,0,.29,.08,.38,.12,.29,.11,.68,.21,.68,.37,0,.08-.12,.13-.18,.16-.19,.06-.22,.15-.49,.76l-.18,.4s-.04,.07-.04,.12c0,.13,.11,.17,.22,.18h3.77c.47,0,.94-.02,1.41-.02,.26,0,.26,.12,.26,.48,0,.34,0,.47-.25,.47-.48,0-.95-.02-1.43-.02h-.97s-.06,.01-.06,.05c0,.02,.02,.04,.04,.05,.25,.08,.55,.18,.55,.3,0,.11-.14,.12-.25,.16-.09,.05-.13,.11-.17,.21-.22,.69-.59,1.29-1.06,1.82-.04,.05-.07,.1-.07,.16,0,.1,.07,.14,.14,.18,.81,.35,1.61,.71,2.37,1.15,.22,.13,.29,.16,.29,.29,0,.19-.21,.69-.45,.69-.09,0-.24-.1-.32-.15-.86-.52-1.78-.93-2.71-1.32-.08-.04-.13-.05-.21-.05-.13,0-.2,.05-.31,.11-.86,.53-1.77,.91-2.75,1.15-.53,.13-.81,.17-1.34,.21-.06,0-.16,.01-.22,.01-.38,0-.44-.62-.44-.7,0-.23,.17-.22,.39-.23,1.11-.04,2.32-.29,3.31-.83,.05-.02,.08-.07,.08-.12,0-.07-.05-.11-.11-.13-.46-.17-.93-.33-1.4-.46-.05-.01-.07-.02-.12-.02-.14,0-.2,.07-.28,.18-.07,.12-.15,.27-.31,.27-.2,0-.7-.21-.7-.43,0-.1,.13-.27,.19-.35,.39-.63,.77-1.24,1.11-1.9,.01-.04,.02-.06,.02-.11Zm1.39-4.32c.24,0,.33-.08,.33-.33v-.14c0-.24-.02-.48-.05-.71,0-.04-.01-.07-.01-.11,0-.14,.11-.16,.21-.16,.15,0,.77,.05,.93,.07,.07,.01,.18,.04,.18,.15,0,.07-.06,.1-.15,.16-.13,.1-.14,.25-.14,.53v.22c.02,.23,.11,.33,.33,.33h2.06c.39,0,.79-.01,1.18-.01,.37,0,.7,.06,.7,.51,0,.18-.02,.37-.02,.62v.49c0,.13,.02,.31,.02,.44,0,.25-.13,.27-.5,.27-.31,0-.49,0-.49-.24,0-.16,.02-.3,.02-.46v-.36c0-.24-.09-.34-.33-.34h-6.89c-.24,0-.33,.1-.33,.34v.33c0,.12,.02,.33,.02,.45,0,.24-.17,.24-.49,.24-.37,0-.49-.01-.49-.25,0-.14,.02-.29,.02-.43v-.5c0-.25-.01-.43-.01-.57,0-.45,.29-.52,.66-.52,.4,0,.8,.01,1.2,.01h2.05Zm1.18,6.55c.14,0,.21-.05,.32-.15,.53-.54,.95-1.21,1.15-1.96,.01-.02,.01-.06,.01-.08,0-.16-.09-.21-.22-.21h-2.32c-.25,0-.33,.05-.46,.28-.2,.39-.41,.76-.62,1.15-.02,.05-.04,.1-.04,.15,0,.13,.08,.18,.19,.22,.6,.17,1.21,.36,1.8,.57,.07,.02,.13,.04,.19,.04Z"/><path class="cls-4" d="M146.15,17.19c.4,.1,.71,.16,.71,.3,0,.08-.08,.13-.15,.17-.17,.08-.18,.17-.21,.34-.24,.98-.58,2.21-1,3.09-.06,.13-.15,.3-.31,.3-.17,0-.7-.21-.7-.41,0-.08,.12-.31,.16-.4,.52-1.09,.82-2.05,.98-3.26,.01-.1,.05-.21,.16-.21,.07,0,.27,.05,.35,.07Zm5.18,5.7c.66,0,.8-.06,1.05-1.45,.05-.3,.06-.45,.26-.45,.11,0,.74,.1,.74,.45s-.38,1.46-.54,1.79c-.29,.6-.61,.62-1.23,.62h-2.67c-.71,0-1.32-.17-1.32-1.01,0-.3,.02-.59,.02-.88v-4.89c0-.33,0-.65-.05-.97v-.12c0-.13,.09-.16,.19-.16,.16,0,.68,.05,.87,.06,.09,0,.26,.01,.26,.15,0,.08-.05,.11-.14,.17-.14,.1-.15,.36-.15,.82v5.27c0,.58,.12,.62,.65,.62h2.06Zm-.31-6.75c-.12,0-.27-.14-.35-.23-.66-.64-1.38-1.22-2.14-1.73-.09-.06-.22-.14-.22-.27,0-.13,.33-.57,.57-.57,.21,0,1.28,.83,1.51,1.01,.35,.28,.8,.66,1.1,.99,.06,.06,.12,.12,.12,.21,0,.23-.35,.58-.57,.58Zm3.18,4.88c-.21,0-.26-.16-.42-.7-.29-.98-.7-1.93-1.17-2.83-.04-.07-.08-.16-.08-.24,0-.21,.48-.41,.64-.41s.21,.08,.27,.19c.26,.45,.59,1.2,.79,1.68,.13,.34,.61,1.59,.61,1.88,0,.23-.42,.42-.64,.42Z"/><path class="cls-4" d="M164.27,15.97c.78,.8,1.15,1.8,1.15,2.92,0,1.65-.84,3.07-2.27,3.84-.25,.13-.95,.45-1.21,.45s-.66-.57-.66-.79c0-.13,.19-.14,.29-.17,1.6-.35,2.8-1.55,2.8-3.29,0-1.4-.75-2.65-2.1-3.07-.11-.04-.39-.11-.49-.11-.31,0-.31,.27-.32,.5-.11,1.79-.53,4.02-1.67,5.44-.37,.45-.86,.88-1.47,.88-.67,0-1.21-.51-1.51-1.09-.25-.5-.35-1.14-.35-1.68,0-2.79,2.07-5.01,4.82-5.01,1.13,0,2.17,.35,2.99,1.17Zm-4.41,.07c-1.52,.63-2.42,2.05-2.42,3.72,0,.53,.19,1.75,.87,1.75,.64,0,1.25-1.27,1.45-1.8,.42-1.16,.71-2.38,.71-3.56,0-.13-.06-.24-.19-.24-.11,0-.33,.1-.42,.13Z"/><path class="cls-4" d="M168.73,19.27c0-.07-.04-.12-.08-.17-.07-.08-.26-.25-.32-.33-.05-.05-.11-.12-.18-.12-.02,0-.04,.01-.06,.02-.13,.08-.34,.24-.49,.24-.18,0-.45-.37-.45-.54,0-.12,.09-.16,.32-.29,.46-.27,1.15-.82,1.53-1.21,.04-.04,.05-.06,.05-.11,0-.1-.08-.12-.17-.13-.45,0-.91,.02-1.37,.02-.22,0-.22-.12-.22-.4s.01-.39,.22-.39c.46,0,.91,.02,1.37,.02h6.8c.45,0,.91-.02,1.37-.02,.22,0,.22,.13,.22,.4s-.01,.39-.22,.39c-.46,0-.92-.02-1.37-.02h-1.74c-.24,0-.33,.1-.33,.34v.51c0,.15,.06,.28,.22,.28h.08c.78-.18,1.65-.46,2.37-.8,.04-.01,.09-.04,.13-.04,.09,0,.15,.14,.34,.49,.04,.07,.15,.23,.15,.3,0,.05-.05,.1-.09,.1s-.09-.02-.13-.05c-.05-.02-.09-.06-.14-.06-.02,0-.06,.01-.08,.02-1.03,.35-1.58,.52-2.64,.72-.17,.05-.21,.12-.21,.29v.08c0,.39,.19,.39,.58,.39h1.56c.46,0,.66-.05,.82-.69,.05-.17,.06-.27,.24-.27,.07,0,.65,.08,.65,.35,0,.19-.21,.85-.47,1.11-.28,.29-.61,.28-.99,.28h-1.98c-.54,0-1.33-.05-1.33-.78,0-.18,.02-.35,.02-.52v-1.73c0-.24-.11-.34-.33-.34h-2.07s-.05,.02-.05,.04,.01,.02,.06,.06c.02,.01,.07,.08,.07,.12,0,.08-.09,.1-.17,.1-.14,0-.15,.04-.32,.21-.01,.01-.04,.04-.04,.07,0,.07,.05,.1,.12,.1h.54c.28,0,.57-.01,.84-.01,.46,0,.54,.56,.54,.59,0,.36-1.08,1.21-1.39,1.43-.82,.58-1.73,1.03-2.69,1.34-.11,.04-.25,.07-.35,.07-.24,0-.45-.4-.45-.57,0-.18,.22-.22,.39-.27,.42-.12,.79-.27,1.19-.45,.07-.05,.13-.1,.13-.19Zm1.39-4.03c0-.19-.09-.25-.27-.28h-1.12c-.46,0-.92,.04-1.38,.04-.24,0-.25-.1-.25-.41s.01-.41,.25-.41c.46,0,.92,.02,1.38,.02h1.12c.19,0,.28-.07,.28-.28-.01-.1-.02-.21-.04-.3-.01-.04-.01-.08-.01-.11,0-.13,.11-.14,.2-.14,.14,0,.71,.06,.86,.07,.08,.01,.25,.01,.25,.12,0,.07-.06,.1-.14,.15-.09,.06-.12,.12-.13,.22v.05c0,.18,.13,.23,.27,.23h1.79c.18,0,.28-.07,.27-.27,0-.1-.01-.19-.02-.28,0-.04-.01-.07-.01-.11,0-.12,.09-.13,.19-.13,.13,0,.72,.05,.87,.06,.08,0,.24,.01,.24,.12,0,.07-.06,.1-.14,.16-.08,.05-.11,.1-.12,.19-.02,.19,.11,.25,.27,.25h1.12c.45,0,.91-.02,1.37-.02,.26,0,.25,.12,.25,.41s0,.41-.24,.41c-.46,0-.92-.04-1.38-.04h-1.12c-.19,.02-.27,.08-.27,.29v.17c0,.3-.11,.33-.49,.33s-.51-.01-.51-.3v-.24c0-.17-.07-.24-.22-.24h-1.83c-.19,.02-.27,.08-.28,.29,.01,.06,.01,.13,.01,.19,0,.3-.09,.33-.52,.33-.37,0-.49-.01-.49-.29v-.24Zm3.37,5.1c0-.13,.09-.15,.2-.15,.14,0,.66,.04,.82,.05,.08,.01,.25,.02,.25,.15,0,.08-.06,.11-.14,.17-.11,.07-.12,.16-.13,.28,0,.21,.09,.27,.27,.27h.87c.46,0,.93-.02,1.39-.02,.22,0,.24,.12,.24,.42s-.01,.41-.24,.41c-.46,0-.93-.02-1.39-.02h-.83c-.24,0-.33,.1-.33,.34v.52c0,.35,.02,.7,.02,1.04,0,.36-.12,.37-.49,.37-.35,0-.49,0-.49-.35s.02-.7,.02-1.06v-.52c0-.24-.09-.34-.33-.34h-1.92c-.24,0-.33,.07-.41,.3-.22,.69-.58,1.1-1.17,1.51-.18,.12-.7,.45-.91,.45-.24,0-.55-.46-.55-.64,0-.11,.14-.16,.26-.21,.58-.25,1.06-.56,1.38-1.11,.02-.04,.04-.07,.04-.12,0-.17-.19-.18-.22-.18h-.84c-.46,0-.92,.02-1.38,.02-.24,0-.25-.12-.25-.41s.01-.42,.24-.42c.47,0,.93,.02,1.39,.02h1.03c.19,0,.28-.07,.31-.27v-.1c0-.19-.02-.36-.02-.47,0-.16,.02-.19,.19-.19,.19,0,.52,.02,.71,.04,.08,.01,.26,.02,.26,.13,0,.07-.11,.13-.17,.17-.07,.06-.08,.13-.08,.23v.19c0,.18,.08,.27,.27,.27h1.91c.2,0,.28-.07,.27-.29,0-.08-.04-.45-.04-.47Zm-4.15-1.56c.07,.07,.13,.11,.22,.11,.07,0,.13-.02,.19-.06,.13-.08,.9-.64,.9-.76,0-.05-.11-.06-.25-.06h-1.24c-.13,0-.29,.04-.29,.19,0,.07,.05,.15,.09,.19l.38,.39Z"/><path class="cls-4" d="M178.5,19.16c-.18,0-.52-.47-.52-.64,0-.11,.13-.28,.19-.36,.53-.77,1.01-1.73,1.36-2.61,.32-.85,.39-1.1,.6-1.97,.02-.1,.05-.19,.16-.19,.08,0,.46,.12,.57,.16l.12,.04c.18,.05,.33,.1,.33,.23,0,.08-.09,.13-.17,.17-.15,.07-.18,.14-.25,.4-.2,.68-.44,1.34-.71,1.99,0,.01-.01,.04-.01,.06,0,.07,.05,.11,.12,.12,.09,.01,.29,.01,.29,.15,0,.08-.09,.13-.16,.17-.13,.1-.14,.23-.14,.72v4.57c0,.53,.02,1.06,.02,1.59,0,.34-.08,.42-.46,.42s-.48-.08-.48-.45c0-.52,.02-1.04,.02-1.57v-3.82c0-.06-.02-.11-.08-.11-.04,0-.06,.02-.07,.05-.12,.19-.51,.88-.73,.88Zm8.19,3.35c0,.08,.04,.13,.08,.21,.17,.22,.46,.6,.74,.6,.31,0,.39-.34,.57-.93,.02-.1,.06-.12,.15-.12,.18,0,.55,.08,.55,.3,0,.25-.22,.81-.34,1.04-.21,.37-.46,.56-.9,.56-.61,0-1.1-.45-1.44-.93-.06-.08-.14-.16-.25-.16-.08,0-.12,.02-.19,.06-.29,.18-1.27,.8-1.57,.8-.22,0-.44-.48-.44-.6s.15-.17,.35-.27c.44-.19,.86-.42,1.26-.68,.11-.07,.18-.15,.18-.29,0-.06-.02-.11-.04-.17-.14-.39-.21-.64-.29-1.04-.07-.23-.15-.29-.39-.31h-1.2c-.2,0-.28,.1-.28,.3v.19c0,.14,.05,.25,.2,.25,.02,0,.04-.01,.06-.01,.16-.04,.77-.19,.9-.19,.2,0,.21,.27,.21,.42,0,.19-.01,.25-.28,.33-.15,.05-.4,.1-.79,.18-.22,.05-.29,.16-.29,.4v.18c0,.22,.02,.45,.02,.66,0,.86-.79,.91-1.44,.91-.29,0-.57,.05-.57-.66,0-.13,.06-.23,.2-.23,.04,0,.11,.01,.14,.01,.11,.01,.2,.01,.31,.01,.45,0,.45-.16,.45-.66v-.06c0-.17-.06-.29-.25-.29h-.06c-.19,.02-.33,.05-.44,.06-.32,.04-.37,.04-.45,.19-.04,.05-.06,.1-.13,.1-.11,0-.13-.07-.2-.3-.02-.1-.15-.47-.15-.56,0-.11,.13-.12,.48-.14,.21-.02,.52-.05,.92-.11,.2-.04,.27-.12,.27-.33v-.31c0-.23-.09-.34-.33-.34-.34-.01-.68,.02-1.03,.02-.22,0-.22-.12-.22-.37s0-.37,.22-.37c.34,0,.77,.01,1.12,.02,.17-.01,.24-.07,.24-.25v-.07c0-.16-.06-.23-.22-.22-.2,.02-.71,.07-.9,.07-.26,0-.32-.36-.32-.54,0-.17,.12-.17,.39-.18,.72-.04,1.87-.16,2.52-.43,.02-.01,.07-.02,.09-.02,.14,0,.46,.64,.46,.7s-.05,.1-.11,.1c-.05,0-.11-.04-.17-.06-.02,0-.05-.01-.08-.01s-.49,.13-.58,.15c-.16,.05-.21,.12-.21,.3v.19c0,.19,.08,.29,.28,.29h1.08c.21,0,.29-.11,.28-.33-.01-.13-.08-.94-.08-1.05,0-.08,.01-.18,.18-.18,.09,0,.64,.06,.77,.07,.07,0,.21,.01,.21,.12,0,.08-.07,.11-.15,.16-.11,.06-.12,.15-.12,.25,0,.18,.01,.45,.04,.63,.02,.24,.14,.33,.37,.33h1.12c.41,0,.82-.02,1.24-.02,.22,0,.22,.11,.22,.37s-.01,.37-.22,.37c-.41,0-.82-.02-1.24-.02h-1.01c-.13,.01-.26,.06-.26,.23,0,.02,0,.06,.01,.08,.04,.18,.08,.35,.14,.52,.04,.08,.08,.17,.19,.17,.06,0,.11-.02,.15-.07,.2-.16,.42-.37,.59-.58,.04-.05,.09-.15,.18-.15,.09,0,.72,.45,.72,.58,0,.08-.12,.11-.19,.11-.13,0-.18,.05-.38,.25-.12,.12-.28,.29-.54,.53-.07,.07-.14,.14-.14,.25Zm-1.6-7.83c.25,0,.34-.05,.48-.27,.14-.28,.29-.57,.41-.86,.02-.06,.06-.16,.13-.16,.11,0,.98,.28,.98,.46,0,.11-.12,.11-.19,.12-.08,.01-.13,.04-.18,.1-.06,.12-.13,.25-.19,.36-.02,.04-.02,.06-.02,.1,0,.13,.13,.14,.18,.14h.07c.41,0,.84-.02,1.25-.02,.22,0,.24,.11,.24,.37s-.01,.37-.22,.37c-.42,0-.85-.02-1.26-.02h-1.43c-.18,0-.25,.07-.25,.24v.12c0,.17,.07,.25,.25,.25h.85c.44,0,.86-.04,1.3-.04,.21,0,.22,.12,.22,.37s-.01,.37-.22,.37c-.44,0-.86-.02-1.3-.02h-.85c-.18,0-.25,.07-.25,.24v.12c0,.17,.07,.24,.25,.24h1.9c.42,0,.85-.02,1.27-.02,.21,0,.21,.14,.21,.37,0,.24,0,.37-.21,.37-.42,0-.85-.02-1.27-.02h-4.93c-.42,0-.84,.02-1.26,.02-.21,0-.22-.13-.22-.37,0-.25,.01-.37,.22-.37,.42,0,.84,.02,1.26,.02h1.67c.16,0,.24-.07,.24-.24v-.12c0-.17-.07-.24-.24-.24h-.58c-.44,0-.86,.02-1.3,.02-.21,0-.21-.13-.21-.39,0-.22,0-.36,.21-.36,.44,0,.86,.04,1.3,.04h.58c.16,0,.24-.08,.24-.25v-.12c0-.17-.07-.24-.24-.24h-1.15c-.41,0-.84,.02-1.26,.02-.22,0-.22-.13-.22-.37,0-.25,0-.37,.22-.37,.4,0,.8,.02,1.19,.02,.11-.01,.19-.04,.19-.16,0-.04-.01-.07-.02-.11-.07-.12-.35-.6-.35-.7,0-.17,.55-.31,.7-.31,.15,0,.21,.12,.42,.53,.01,.02,.02,.06,.05,.1,.07,.12,.15,.28,.15,.39,0,.06-.02,.1-.08,.13-.02,.01-.05,.04-.05,.07,0,.05,.04,.06,.08,.06h1.25Zm2.29,5.05c-.08,0-.24-.16-.47-.4-.13-.14-.29-.33-.49-.51-.06-.05-.12-.1-.12-.18,0-.18,.37-.39,.49-.39,.07,0,.12,.02,.17,.07,.15,.13,.53,.51,.71,.66,.07,.08,.25,.23,.25,.34,0,.19-.41,.4-.53,.4Z"/></g><line class="cls-5" x1="15.82" y1="18.41" x2="29.02" y2="18.41"/><line class="cls-5" x1="191.9" y1="18.41" x2="205.1" y2="18.41"/></g></g></g></svg>