<?xml version="1.0" encoding="UTF-8"?><svg id="_イヤー_2" xmlns="http://www.w3.org/2000/svg" viewBox="0 0 215.61 54.28"><defs><style>.cls-1{fill:#f5e127;}.cls-2{fill:#fff;}.cls-3{fill:#1d8d3b;}.cls-4{fill:#231815;}.cls-5{fill:#221714;}.cls-6{fill:#1d2087;}</style></defs><g id="main"><g><g><path class="cls-2" d="M47.27,26.34c0,11.34-9.19,20.53-20.53,20.53S6.21,37.68,6.21,26.34,15.4,5.81,26.74,5.81s20.53,9.19,20.53,20.53"/><path class="cls-2" d="M42.91,22.3c-1.01-2.51-3.35-4.93-6.03-5.6-3.42-1.01-6.94,.25-9.36,2.84,.08-1.83,.08-3.93-.75-5.43-1.01-1.67-2.68-3.18-4.44-3.52-2.42-.59-4.85-.09-6.69,1.51-2.26,1.67-1.58,4.6-3.76,6.18l.25,.25c1.25,.09,2.09,1.26,2.43,2.26,1.51,7.95,3.09,15.72,7.02,22.66l.42,.08c5.6-5.6,13.3-6.35,18.98-11.79,2.35-2.43,3.27-6.19,1.93-9.45m-9.96,11.54c-3.42,1.67-7.11,3-10.37,5.19-2.76-5.77-4.09-12.21-5.27-18.65-.75-1-1.76-2.09-3.01-2.17,2.34-1.34,2.34-5.26,5.69-5.18,2-.08,4.01,1,4.68,2.84,1.09,2.51-1.08,4.76-.08,7.36,.58,1.76,1.84,3.85,3.76,4.51-.5-2.75,0-6.02,2.68-7.6,1.84-1.18,4.43-1.26,6.36-.34,2.09,1.26,3.26,3.35,3.42,5.68,.17,4.35-4.68,6.69-7.86,8.37"/><path class="cls-2" d="M40.73,23.17c-.36-.92-1.03-1.9-1.83-2.67-.81-.78-1.74-1.32-2.59-1.53l-.09-.03c-.59-.17-1.17-.25-1.74-.25-1.88,0-3.78,.87-5.25,2.44-.67,.72-1.71,.94-2.61,.56-.91-.38-1.47-1.28-1.43-2.26,.02-.42,.03-.84,.03-1.24,.01-1.3-.18-2.44-.49-2.95l2.05-1.14-2,1.21c-.37-.61-.88-1.22-1.42-1.66-.53-.44-1.07-.7-1.45-.76l-.12-.02c-.48-.12-.95-.17-1.4-.17-1.22,0-2.29,.39-3.21,1.17l-.14,.11c-.25,.19-.39,.37-.57,.68-.26,.46-.47,1.23-.85,2.25-.37,.99-1.03,2.31-2.36,3.27l-1.38-1.89,1.65-1.66,.25,.25-1.65,1.66,.16-2.34c1.34,.09,2.41,.78,3.09,1.51,.7,.74,1.12,1.55,1.4,2.35l.08,.31c1.5,7.94,3.06,15.43,6.76,21.94l-2.04,1.15,.46-2.29,.42,.08-.46,2.29-1.65-1.66c3.15-3.15,6.79-4.85,10.12-6.42,3.35-1.57,6.41-3.02,8.9-5.4l1.62,1.69-1.68-1.63c1.18-1.21,1.89-2.96,1.89-4.66,0-.78-.14-1.55-.44-2.28-.49-1.2,.08-2.56,1.28-3.05,1.2-.49,2.56,.08,3.05,1.28,.54,1.32,.79,2.7,.79,4.05,0,2.96-1.17,5.8-3.2,7.91l-.06,.06c-3.2,3.05-6.83,4.7-10.14,6.26-3.34,1.56-6.35,3.04-8.8,5.49-.55,.55-1.35,.79-2.11,.64l-.42-.08c-.66-.13-1.25-.55-1.58-1.14-4.17-7.37-5.77-15.42-7.28-23.38l2.3-.44-2.22,.74c-.06-.21-.23-.49-.34-.6l-.1-.08,.09-.16v.18l-.09-.02,.09-.16v.18c-.57-.04-1.1-.28-1.5-.67l-.25-.25c-.49-.48-.74-1.16-.69-1.84,.05-.68,.4-1.31,.96-1.72,.21-.16,.33-.31,.5-.6,.25-.44,.46-1.23,.85-2.26,.38-1.01,1.06-2.33,2.4-3.31l1.39,1.88-1.53-1.77c1.78-1.54,4.02-2.33,6.27-2.32,.83,0,1.68,.1,2.5,.3l-.55,2.28,.44-2.3c1.38,.27,2.56,.94,3.55,1.75,.99,.82,1.82,1.8,2.46,2.86l.04,.07c.96,1.78,1.07,3.61,1.08,5.22,0,.5-.02,.99-.04,1.45l-2.34-.1-1.71-1.6c2.24-2.4,5.33-3.92,8.67-3.93,1.01,0,2.04,.14,3.06,.44l-.66,2.25,.57-2.27c1.83,.46,3.41,1.46,4.69,2.69,1.29,1.24,2.3,2.72,2.94,4.31,.48,1.2-.1,2.56-1.3,3.04-1.2,.48-2.56-.1-3.04-1.3Zm-7.78,10.67l1.03,2.11c-3.58,1.73-7.15,3.05-10.09,5.03-.56,.38-1.27,.49-1.92,.31-.65-.18-1.2-.64-1.49-1.25-2.92-6.13-4.27-12.77-5.46-19.25l2.3-.42-1.87,1.4c-.32-.43-.65-.81-.92-1.02l-.3-.2-.07-.03c-1.03-.06-1.9-.8-2.13-1.81-.23-1,.22-2.05,1.12-2.56,.15-.08,.35-.27,.63-.67,.43-.59,.87-1.58,1.71-2.66,.43-.53,.99-1.09,1.76-1.51,.76-.42,1.69-.66,2.64-.65h.15l-.05,2.34-.09-2.34h.31c1.4,0,2.76,.37,3.94,1.1,1.18,.72,2.2,1.84,2.73,3.28l-2.2,.8,2.15-.93c.37,.85,.51,1.72,.5,2.49,0,1.09-.23,1.96-.39,2.67-.17,.71-.28,1.25-.27,1.63,0,.26,.03,.44,.12,.66l.03,.1c.22,.67,.59,1.43,1.02,1.99,.44,.58,.9,.92,1.28,1.05l-.76,2.22-2.31,.42c-.13-.74-.21-1.51-.21-2.29,0-1.38,.23-2.83,.85-4.2,.61-1.37,1.67-2.67,3.15-3.54l1.19,2.01-1.26-1.97c1.46-.93,3.12-1.33,4.75-1.34,1.33,0,2.66,.27,3.89,.86l.19,.1c2.76,1.65,4.36,4.51,4.55,7.53v.38c.02,1.5-.43,2.87-1.1,4.01-1.02,1.71-2.48,2.92-3.92,3.89-1.45,.97-2.93,1.71-4.07,2.32l-.07,.03-1.03-2.11-1.09-2.07c1.59-.83,3.41-1.77,4.7-2.85,.65-.53,1.14-1.08,1.45-1.61,.31-.53,.46-1.02,.46-1.62v-.13l2.34-.09-2.33,.16c-.14-1.66-.88-2.97-2.3-3.84l1.21-2-1.01,2.11c-.51-.25-1.18-.4-1.85-.4-.83,0-1.66,.23-2.22,.6l-.07,.04c-.61,.37-.98,.82-1.27,1.44-.28,.62-.43,1.42-.43,2.27,0,.48,.05,.98,.13,1.46,.15,.82-.15,1.65-.78,2.19-.63,.54-1.5,.71-2.29,.44-1.54-.53-2.67-1.57-3.49-2.64-.82-1.09-1.37-2.25-1.74-3.34l2.22-.74-2.18,.84c-.31-.81-.43-1.62-.43-2.34,0-1.09,.23-1.98,.39-2.7,.17-.72,.28-1.25,.27-1.61,0-.26-.03-.42-.12-.63l-.05-.13c-.12-.33-.37-.64-.78-.89-.4-.25-.95-.41-1.49-.41h-.31c-.35,.02-.34,.05-.48,.14-.21,.13-.63,.74-1.16,1.67-.27,.46-.59,.99-1.03,1.53-.43,.54-1,1.1-1.76,1.54l-1.16-2.03,.15-2.34c1.28,.08,2.29,.66,3.02,1.25,.74,.61,1.28,1.27,1.72,1.85,.21,.28,.36,.63,.43,.98,1.17,6.41,2.48,12.65,5.08,18.07l-2.11,1.01-1.3-1.95c3.58-2.38,7.38-3.74,10.64-5.34l1.03,2.1-1.09-2.07,1.09,2.07Z"/><path class="cls-2" d="M28.23,47.41c-.42,1.33,.25,2.51,.93,3.43,.83,.74,1.67,1,2.84,.74-.16-.92-.58-2.09-1.67-2.51-.33-.16-.67-.25-1-.5,1-.67,1.58-1.58,1.75-2.68l-.17-1c-1.33,.25-2.26,1.34-2.68,2.51"/><path class="cls-2" d="M28.23,47.41l2.23,.7-.02,.14c0,.08,.02,.21,.12,.43,.1,.22,.27,.49,.49,.79l-1.89,1.38,1.56-1.75,.31,.22,.15,.03,.32-.04,.5,2.29-2.3,.41c-.05-.29-.15-.57-.22-.69l-.05-.08,.13-.14-.07,.17-.06-.04,.13-.14-.07,.17-.19-.08s-.16-.07-.41-.17c-.25-.11-.61-.28-.98-.57-.6-.46-.94-1.18-.92-1.94,.03-.76,.41-1.45,1.04-1.87,.51-.37,.64-.61,.73-1.08l2.31,.35-2.31,.39-.17-1,2.31-.39,.43,2.3-.45,.26c-.17,.17-.35,.45-.45,.74l-2.21-.79,2.23,.7-2.23-.7-2.2-.79c.32-.88,.81-1.73,1.54-2.46,.72-.73,1.72-1.34,2.9-1.56,.61-.11,1.26,.02,1.77,.38,.51,.36,.86,.92,.97,1.53l.17,1c.04,.24,.04,.5,0,.74-.24,1.72-1.28,3.31-2.76,4.27l-1.3-1.95,1.43-1.86-.21,.27,.16-.29,.04,.03-.21,.27,.16-.29,.14,.06c.1,.04,.28,.11,.51,.22l-1.03,2.1,.84-2.18c1.15,.44,1.94,1.3,2.38,2.09,.45,.8,.64,1.56,.76,2.19,.22,1.24-.58,2.43-1.81,2.7-.43,.09-.87,.15-1.32,.15-.67,0-1.36-.13-1.98-.4-.62-.26-1.15-.63-1.6-1.04l-.33-.37c-.31-.43-.66-.95-.96-1.6-.29-.65-.54-1.45-.54-2.37,0-.5,.07-1.02,.24-1.54l.03-.09,2.2,.79Z"/><path class="cls-2" d="M31.21,47.15c-.2,1.39,.65,2.44,1.45,3.25,.95,.6,1.81,.72,2.93,.27-.31-.88-.91-1.97-2.05-2.21-.36-.11-.7-.14-1.07-.34,.88-.81,1.32-1.81,1.3-2.91l-.32-.97c-1.29,.46-2.02,1.69-2.25,2.91"/><path class="cls-2" d="M31.21,47.15l2.32,.34v.07c0,.08,0,.17,.13,.39,.12,.21,.36,.49,.67,.8l-1.66,1.65,1.25-1.98c.32,.19,.36,.17,.41,.18,.04,0,.15,0,.4-.1l.86,2.18-2.21,.78c-.1-.28-.24-.55-.33-.66l-.07-.07,.1-.15-.04,.18-.06-.03,.1-.15-.04,.18-.18-.05s-.17-.04-.44-.11c-.26-.07-.65-.18-1.07-.4-.67-.36-1.12-1.02-1.22-1.77-.1-.75,.18-1.5,.74-2.02,.44-.44,.53-.69,.55-1.14v-.03l2.34-.02-2.23,.73-.32-.97,2.23-.72,.8,2.2-.42,.34c-.14,.19-.27,.49-.32,.8l-2.3-.43,2.32,.34-2.32-.34-2.3-.43c.17-.92,.52-1.84,1.13-2.68,.6-.84,1.49-1.59,2.62-2,.6-.22,1.25-.18,1.82,.1,.57,.28,1,.77,1.2,1.38l.32,.97c.07,.23,.11,.47,.12,.71v.06c.02,1.71-.76,3.42-2.06,4.59l-1.58-1.72,1.11-2.06-.15,.27,.11-.29,.04,.02-.15,.27,.11-.29,.15,.04c.11,.03,.29,.07,.54,.14l-.67,2.24,.49-2.29c1.2,.25,2.11,.98,2.67,1.69,.57,.72,.88,1.43,1.09,2.03,.42,1.19-.18,2.49-1.35,2.96-.66,.26-1.38,.43-2.12,.43-1.09,0-2.12-.39-2.92-.91l-.41-.33c-.41-.42-.92-.96-1.36-1.69-.44-.72-.8-1.69-.8-2.79,0-.25,.02-.5,.06-.75l.02-.09,2.3,.43Z"/><path class="cls-2" d="M34.1,46.25c.01,1.4,1,2.3,1.92,2.98,1.02,.46,1.9,.44,2.94-.15-.45-.82-1.2-1.81-2.36-1.88-.37-.06-.72-.04-1.11-.18,.75-.94,1.03-2,.85-3.08l-.46-.91c-1.2,.65-1.74,1.97-1.78,3.22"/><path class="cls-2" d="M34.1,46.25l2.34-.02c.01,.14,.01,.17,.15,.37,.14,.19,.44,.46,.82,.74l-1.39,1.89,.97-2.13c.25,.11,.34,.11,.38,.11,.04,0,.11,0,.43-.17l1.16,2.03-2.06,1.12c-.15-.27-.33-.52-.44-.62l-.06-.05h0l.09-.24v.25l-.09-.02,.09-.24v.25l-.26-.03s-.16-.02-.42-.04c-.26-.03-.66-.08-1.1-.24-.71-.25-1.26-.83-1.47-1.56-.21-.73-.05-1.51,.42-2.1,.31-.4,.39-.68,.39-1l-.02-.25,2.31-.37-2.08,1.07-.47-.91,2.08-1.07,1.12,2.05c-.14,.08-.25,.18-.36,.4-.11,.21-.19,.53-.2,.83l-2.34-.07,2.34-.02-2.34,.02-2.34-.07c.03-.94,.24-1.9,.71-2.83,.47-.92,1.23-1.8,2.29-2.37,.56-.3,1.2-.37,1.81-.18,.61,.19,1.1,.6,1.39,1.17l.47,.91c.11,.22,.19,.46,.23,.7,.05,.33,.08,.66,.08,.99,0,1.41-.52,2.81-1.42,3.92l-1.83-1.46,.78-2.21-.1,.29,.06-.3h.04l-.1,.3,.06-.3s.22,.01,.74,.08l-.37,2.31,.13-2.34c1.24,.06,2.25,.65,2.91,1.27,.67,.62,1.08,1.28,1.39,1.83,.61,1.12,.21,2.52-.9,3.15-.8,.47-1.76,.79-2.75,.79-.84,0-1.63-.22-2.31-.53l-.42-.24c-.53-.4-1.19-.91-1.79-1.69-.59-.77-1.09-1.89-1.09-3.15v-.09l2.34,.07Z"/><path class="cls-2" d="M36.88,44.97c.2,1.39,1.32,2.15,2.31,2.69,1.08,.31,1.95,.18,2.89-.56-.55-.75-1.43-1.63-2.6-1.53-.37,0-.71,.07-1.12-.02,.61-1.04,.74-2.12,.42-3.17l-.58-.83c-1.1,.82-1.46,2.19-1.32,3.43"/><path class="cls-2" d="M36.88,44.97l2.32-.33,.21,.35c.16,.17,.49,.4,.9,.61l-1.11,2.06,.65-2.25,.36,.07c.09-.02,.08,.04,.44-.22l1.44,1.85-1.9,1.37c-.16-.23-.36-.43-.48-.52l-.1-.06,.06-.15v.15h-.06l.06-.15v.15h0v0h-.19s-.26,.03-.66,.03c-.25,0-.57-.02-.93-.09-.74-.15-1.36-.66-1.66-1.35-.3-.69-.25-1.49,.13-2.14,.21-.36,.26-.61,.27-.86l-.07-.44,2.24-.68-1.91,1.34-.59-.83,1.92-1.34,1.39,1.88-.27,.36c-.08,.17-.13,.42-.13,.69v.24l-2.31,.25,2.32-.33-2.32,.33-2.33,.25c-.03-.24-.04-.49-.04-.74,0-.83,.15-1.69,.51-2.53,.36-.84,.95-1.66,1.79-2.28,.51-.38,1.14-.53,1.77-.43,.62,.1,1.18,.45,1.54,.97l.59,.83c.14,.2,.25,.44,.32,.67,.18,.58,.27,1.19,.27,1.8,0,1.13-.33,2.26-.92,3.25l-2.01-1.19,.48-2.29-.08,.36,.03-.37h.04l-.08,.37,.03-.37v0h0v0h0s.26-.02,.66-.02h.02v2.34l-.18-2.33h.35c1.15-.01,2.12,.43,2.8,.93,.69,.51,1.16,1.07,1.52,1.56,.74,1.02,.54,2.44-.45,3.22-.9,.73-2.12,1.23-3.32,1.21-.59,0-1.14-.1-1.66-.25l-.46-.19c-.59-.32-1.31-.74-2.01-1.44-.69-.68-1.34-1.72-1.52-2.98v-.08l2.32-.25Z"/><path class="cls-2" d="M39.5,43.47c.45,1.32,1.68,1.88,2.76,2.22,1.12,.11,1.95-.18,2.74-1.07-.67-.64-1.7-1.34-2.83-1.04-.37,.06-.69,.19-1.1,.19,.41-1.14,.34-2.22-.16-3.19l-.72-.72c-.93,1-1.04,2.42-.68,3.62"/><path class="cls-2" d="M39.5,43.47l2.22-.75,.27,.31c.19,.14,.55,.3,.99,.44l-.71,2.23,.23-2.33h.2l.24-.03s.13-.06,.32-.27l1.75,1.56-1.61,1.7-.52-.4-.15-.07h0v-.23l.05,.22h-.05v-.22l.05,.22-.22,.05s-.16,.04-.4,.09c-.24,.05-.62,.13-1.06,.12h-.08c-.75-.02-1.45-.4-1.88-1.02-.43-.62-.53-1.41-.27-2.12,.09-.27,.13-.49,.13-.67,0-.23-.05-.42-.16-.65l2.08-1.08-1.66,1.66-.72-.72,1.66-1.66,1.71,1.59c-.14,.16-.24,.37-.24,.75,0,.19,.03,.4,.09,.6l-2.25,.66,2.22-.75-2.22,.75-2.25,.66c-.18-.61-.28-1.26-.28-1.93,0-1.3,.41-2.78,1.5-3.94,.43-.46,1.04-.73,1.67-.74,.63-.01,1.25,.24,1.7,.68l.72,.72c.17,.17,.31,.36,.42,.58,.45,.86,.7,1.83,.69,2.81,0,.76-.14,1.53-.4,2.25l-2.2-.79,.05-2.34-.03,1.47v-1.47h.03l-.03,1.47v-1.25l-.03-.22h.03v.22l-.03-.22s.22-.06,.73-.15l.38,2.31-.61-2.26c.39-.1,.78-.15,1.16-.15,.95,0,1.76,.3,2.39,.64,.63,.35,1.12,.75,1.5,1.11,.92,.87,.98,2.31,.14,3.25-.5,.56-1.1,1.06-1.82,1.4-.72,.34-1.51,.48-2.23,.48-.23,0-.45-.01-.67-.03l-.48-.1c-.64-.21-1.43-.49-2.24-1.05-.8-.55-1.62-1.45-2.02-2.65l-.03-.09,2.25-.66Z"/><path class="cls-2" d="M41.73,41.51c.64,1.25,1.94,1.61,3.06,1.8,1.12-.06,1.89-.46,2.55-1.46-.76-.54-1.89-1.07-2.95-.62-.36,.12-.65,.29-1.06,.34,.25-1.18,.01-2.24-.63-3.14l-.83-.59c-.77,1.11-.67,2.54-.14,3.66"/><path class="cls-2" d="M41.73,41.51l2.08-1.07c.07,.12,.09,.14,.3,.26,.21,.11,.6,.22,1.08,.3l-.4,2.31-.13-2.34c.32-.02,.39-.07,.43-.08,.04-.02,.11-.06,.3-.33l1.95,1.3-1.35,1.91-.51-.29-.24-.07v-.18l.07,.16-.07,.02v-.18l.07,.16-.18,.07s-.17,.07-.43,.17c-.25,.1-.63,.22-1.09,.28-.75,.1-1.5-.17-2.02-.73-.51-.56-.72-1.33-.57-2.07l.05-.42c0-.34-.08-.58-.29-.88l1.91-1.36-1.37,1.9-.82-.59,1.37-1.9,1.92,1.33c-.09,.13-.14,.27-.14,.52,0,.23,.07,.54,.2,.81l-2.12,1,2.08-1.07-2.08,1.07-2.12,.99c-.39-.84-.64-1.78-.64-2.8,0-1.04,.28-2.19,.98-3.19,.36-.51,.91-.87,1.53-.97,.62-.11,1.26,.04,1.76,.41l.82,.59c.21,.15,.39,.33,.54,.54,.74,1.02,1.17,2.3,1.16,3.6,0,.46-.05,.93-.15,1.39l-2.29-.48-.3-2.32,.03,.28-.08-.28h.04l.03,.28-.08-.28,.14-.05c.11-.04,.28-.11,.51-.2l.75,2.22-.93-2.15c.59-.26,1.21-.37,1.78-.37,1.58,.03,2.68,.69,3.45,1.22,1.03,.73,1.3,2.15,.6,3.21-.48,.72-1.11,1.39-1.91,1.83-.79,.45-1.66,.63-2.46,.68l-.53-.03c-.65-.12-1.47-.28-2.35-.71-.87-.42-1.82-1.19-2.39-2.33l-.03-.07,2.12-.99Z"/><path class="cls-2" d="M43.63,39.23c.87,1.12,2.21,1.22,3.34,1.2,1.1-.26,1.78-.8,2.24-1.91-.86-.38-2.05-.71-3.02-.06-.33,.18-.58,.41-.99,.54,.02-1.2-.4-2.21-1.19-2.97l-.92-.43c-.56,1.24-.19,2.62,.53,3.62"/><path class="cls-2" d="M43.63,39.23l1.85-1.43,.31,.19c.18,.06,.52,.11,.95,.1h.19l.05,2.34-.53-2.28c.3-.07,.35-.13,.38-.15,.02-.02,.09-.07,.22-.38l2.16,.9-.96,2.14c-.34-.16-.69-.23-.78-.23h-.03v-.1l.02,.1h-.02v-.1l.02,.1-.08-.22,.13,.19-.05,.03-.08-.22,.13,.19-.21,.13s-.12,.07-.34,.22c-.22,.14-.58,.34-1.03,.49-.72,.23-1.51,.11-2.12-.35-.61-.45-.96-1.16-.95-1.92v-.05c-.02-.6-.15-.85-.47-1.18l1.61-1.7-.99,2.12-.92-.43,.99-2.12,2.13,.96-.06,.31c0,.24,.12,.65,.37,.98l-1.9,1.37,1.85-1.43-1.85,1.43-1.9,1.36c-.71-1.01-1.23-2.26-1.24-3.71,0-.73,.14-1.5,.48-2.24,.26-.57,.73-1.02,1.32-1.23,.59-.22,1.24-.19,1.81,.08l.92,.43c.23,.11,.43,.24,.62,.42,1.24,1.15,1.94,2.85,1.92,4.57v.13l-2.34-.04-.72-2.23,.1,.32-.15-.3,.05-.02,.1,.32-.15-.3,.14-.09c.1-.07,.27-.17,.5-.3l1.11,2.06-1.32-1.94c.84-.57,1.8-.78,2.59-.78,1.14,0,2.03,.34,2.7,.63,1.16,.52,1.69,1.86,1.21,3.04-.33,.8-.83,1.57-1.54,2.16-.7,.59-1.54,.94-2.34,1.12l-.48,.06h-.29c-.66,0-1.47-.04-2.36-.32-.89-.27-1.88-.85-2.59-1.79l-.05-.07,1.9-1.36Z"/><path class="cls-2" d="M45.24,36.62c1,.98,2.34,.93,3.47,.76,1.06-.41,1.66-1.03,1.98-2.18-.9-.27-2.13-.44-3,.34-.3,.22-.53,.48-.91,.67-.13-1.2-.68-2.14-1.57-2.79l-.97-.31c-.39,1.3,.15,2.61,1,3.53"/><path class="cls-2" d="M45.24,36.62l1.65-1.66,.2,.12c.09,.03,.25,.06,.48,.06,.22,0,.49-.02,.79-.07l.35,2.31-.84-2.18c.3-.12,.35-.18,.38-.21,.02-.03,.09-.09,.18-.42l2.25,.62-.68,2.24c-.27-.08-.55-.13-.7-.13h-.13l-.06-.18,.13,.15-.07,.04-.06-.19,.13,.15-.19,.15s-.12,.09-.32,.26c-.2,.17-.52,.41-.94,.61-.68,.33-1.49,.31-2.16-.06-.66-.37-1.11-1.04-1.19-1.8-.09-.63-.25-.85-.63-1.16l1.39-1.89-.72,2.23-.97-.31,.72-2.23,2.24,.67-.03,.21c-.02,.23,.15,.68,.5,1.05l-1.72,1.59,1.65-1.66-1.65,1.66-1.72,1.59c-.96-1.05-1.74-2.48-1.76-4.24,0-.51,.07-1.04,.23-1.56,.18-.6,.6-1.11,1.15-1.4,.56-.29,1.21-.35,1.81-.15l.97,.31c.25,.08,.46,.19,.67,.34,1.4,1,2.34,2.65,2.51,4.43l-2.33,.25-1.02-2.11,.12,.25-.15-.23,.03-.02,.12,.25-.15-.23s.17-.15,.6-.48l1.37,1.9-1.56-1.75c1-.9,2.23-1.17,3.17-1.16,.82,0,1.51,.16,2.06,.33,1.21,.37,1.91,1.64,1.57,2.87-.23,.83-.62,1.66-1.24,2.33-.62,.68-1.39,1.13-2.15,1.41l-.49,.13c-.43,.06-.92,.12-1.48,.12-.59,0-1.25-.07-1.95-.3-.7-.23-1.42-.64-2.02-1.24l-.07-.07,1.72-1.59Z"/><path class="cls-2" d="M46.5,33.72c1.13,.83,2.45,.58,3.54,.23,.98-.55,1.48-1.26,1.62-2.45-.92-.14-2.17-.12-2.92,.78-.26,.26-.45,.55-.8,.78-.31-1.15-.99-2.01-1.97-2.51l-1-.17c-.19,1.35,.54,2.57,1.52,3.33"/><path class="cls-2" d="M46.5,33.72l1.39-1.88c.11,.07,.14,.09,.37,.1,.23,0,.62-.07,1.07-.22l.71,2.23-1.14-2.04c.27-.15,.3-.22,.32-.24,.02-.03,.07-.1,.11-.44l2.33,.27-.36,2.31-.45-.04-.35,.04h0l-.12-.18,.17,.14-.05,.04-.12-.18,.17,.14-.17,.18s-.09,.11-.27,.31c-.18,.2-.47,.49-.86,.75-.63,.42-1.42,.51-2.13,.24-.7-.27-1.24-.86-1.43-1.59-.18-.6-.38-.81-.79-1.04l1.08-2.08-.38,2.31-1-.17,.38-2.31,2.32,.33v.1l.14,.49c.11,.19,.29,.41,.5,.57l-1.44,1.85,1.39-1.88-1.39,1.88-1.44,1.84c-.66-.52-1.25-1.17-1.7-1.96-.45-.79-.75-1.74-.75-2.78,0-.25,.02-.51,.05-.76,.09-.63,.42-1.18,.94-1.56,.51-.37,1.14-.52,1.77-.42l1,.16c.24,.04,.48,.12,.69,.23,1.55,.78,2.71,2.27,3.15,3.99l-2.26,.6-1.3-1.95,.18,.27-.22-.24,.04-.03,.18,.27-.22-.24,.11-.12,.39-.42,1.63,1.68-1.8-1.49c.56-.69,1.3-1.14,1.99-1.38,.7-.24,1.34-.31,1.92-.31,.43,0,.82,.04,1.17,.1,1.24,.19,2.11,1.34,1.97,2.59-.1,.85-.36,1.73-.87,2.49-.51,.76-1.21,1.33-1.93,1.72l-.43,.19c-.66,.2-1.48,.43-2.48,.43-.97,.01-2.16-.26-3.16-1.02l-.05-.04,1.44-1.84Z"/><path class="cls-2" d="M47.38,27.78c1.31,.5,2.52-.1,3.48-.71,.81-.79,1.11-1.62,.92-2.8-.93,.12-2.12,.47-2.61,1.53-.19,.32-.29,.66-.56,.98-.61-1.05-1.49-1.69-2.56-1.92l-1.01,.11c.17,1.35,1.2,2.33,2.34,2.82"/><path class="cls-2" d="M47.38,27.78l.84-2.18,.17,.03c.14,.02,.63-.14,1.21-.53l1.26,1.97-1.64-1.67,.25-.31,.03-.19-.02-.27,2.31-.36,.3,2.32c-.3,.03-.6,.12-.73,.19l-.09,.05-.13-.14,.17,.08-.04,.06-.13-.14,.17,.08-.08,.16s-.08,.16-.2,.41c-.12,.24-.32,.59-.61,.94-.49,.58-1.24,.88-2,.82-.75-.07-1.44-.5-1.82-1.16-.34-.55-.57-.68-1.03-.81l.5-2.29,.26,2.33-1.01,.11-.26-2.33,2.32-.29,.23,.47c.15,.18,.42,.37,.71,.49l-.92,2.15,.84-2.18-.84,2.18-.92,2.15c-.85-.37-1.68-.91-2.36-1.69-.69-.77-1.23-1.8-1.38-2.99-.08-.62,.09-1.25,.48-1.74,.39-.49,.95-.81,1.58-.88l1.01-.11c.26-.03,.51-.02,.77,.04,1.69,.35,3.22,1.49,4.09,3.04l-2.03,1.17-1.79-1.51,.2,.17-.22-.14,.02-.03,.2,.17-.22-.14s.08-.19,.32-.64l2.04,1.15-2.12-.98c.51-1.12,1.42-1.84,2.23-2.23,.82-.4,1.58-.55,2.21-.63,1.26-.16,2.41,.7,2.61,1.96,.05,.33,.08,.66,.08,.99,0,.72-.15,1.48-.46,2.14-.31,.67-.74,1.23-1.22,1.7l-.38,.3c-.82,.51-2.03,1.24-3.73,1.26-.59,0-1.23-.11-1.84-.34l-.09-.03,.92-2.15Z"/><path class="cls-2" d="M47.28,30.83c1.25,.64,2.52,.18,3.54-.33,.89-.69,1.28-1.48,1.23-2.68-.94,.01-2.16,.23-2.76,1.23-.22,.3-.36,.61-.67,.9-.49-1.1-1.29-1.84-2.34-2.19h-1.01c.02,1.36,.93,2.45,2.01,3.06"/><path class="cls-2" d="M47.28,30.83l1.07-2.08,.23,.06c.19,.01,.64-.12,1.19-.4l1.04,2.1-1.44-1.85c.23-.18,.27-.26,.28-.29,.01-.03,.05-.08,.05-.35v-.11l2.34-.09,.03,2.34c-.3,0-.6,.05-.74,.1l-.09,.04-.11-.14,.15,.09-.04,.05-.11-.14,.15,.09-.11,.16s-.1,.15-.24,.38c-.15,.22-.38,.54-.71,.85-.55,.52-1.32,.75-2.07,.6-.74-.15-1.38-.65-1.68-1.35-.28-.59-.5-.75-.93-.91l.73-2.22v2.34h-1.01v-2.34l2.34-.03c0,.15,.04,.29,.18,.49,.13,.19,.37,.41,.64,.56l-1.15,2.04,1.07-2.08-1.07,2.08-1.15,2.04c-.82-.46-1.57-1.09-2.17-1.93-.6-.84-1.03-1.93-1.04-3.13,0-.62,.23-1.23,.68-1.67,.44-.45,1.04-.7,1.67-.7h1.01c.24,0,.5,.04,.73,.12,1.67,.53,3.06,1.84,3.75,3.46l-2.14,.95-1.61-1.7,.11,.11-.12-.1h.02l.11,.1-.12-.1s.11-.18,.4-.59l1.9,1.37-2-1.21c.63-1.05,1.61-1.68,2.46-1.97,.86-.31,1.64-.37,2.27-.39,1.27-.01,2.32,.98,2.37,2.25v.29c.01,.82-.15,1.69-.55,2.46-.39,.77-.97,1.39-1.58,1.87l-.4,.25c-.78,.38-1.86,.87-3.27,.88-.75,0-1.6-.17-2.38-.58l-.08-.04,1.15-2.04Z"/><path class="cls-2" d="M47.46,24.79c1.38,.26,2.46-.54,3.3-1.32,.65-.92,.8-1.77,.42-2.9-.89,.26-2.01,.82-2.3,1.95-.13,.35-.18,.7-.38,1.05-.78-.92-1.77-1.39-2.86-1.43l-.97,.29c.4,1.3,1.59,2.08,2.8,2.36"/><path class="cls-2" d="M47.46,24.79l.44-2.3h.09c.08,0,.18,0,.39-.12,.21-.11,.49-.33,.79-.61l1.59,1.72-1.91-1.35c.22-.34,.18-.34,.19-.41,0-.05,0-.17-.08-.39l2.22-.75,.66,2.25c-.27,.08-.54,.21-.65,.29l-.07,.06-.16-.12,.2,.05-.03,.07-.16-.12,.2,.05-.06,.21s-.05,.16-.12,.42c-.08,.25-.21,.63-.44,1.03-.38,.66-1.06,1.09-1.81,1.15-.76,.07-1.5-.24-1.99-.82-.42-.46-.69-.57-1.16-.61l.08-2.34,.66,2.25-.98,.29-.66-2.25,2.24-.69,.31,.41c.18,.15,.48,.29,.79,.36l-.54,2.28,.44-2.3-.44,2.3-.54,2.28c-.9-.22-1.8-.6-2.62-1.24-.81-.63-1.53-1.56-1.88-2.71-.19-.6-.12-1.25,.17-1.8,.3-.55,.81-.96,1.41-1.14l.97-.29c.25-.07,.49-.1,.74-.09,1.72,.04,3.42,.88,4.56,2.25l-1.79,1.51-2.02-1.18,.26,.15-.28-.11,.02-.04,.26,.15-.28-.11s.05-.21,.22-.7l2.2,.79-2.27-.58c.3-1.2,1.07-2.07,1.8-2.6,.74-.54,1.48-.82,2.1-1.01,1.21-.36,2.48,.31,2.88,1.5,.2,.59,.33,1.23,.33,1.89,.01,1.17-.45,2.28-1.05,3.11l-.32,.37c-.43,.4-.97,.86-1.68,1.26-.7,.4-1.63,.73-2.68,.73-.32,0-.64-.03-.96-.09l-.1-.02,.54-2.28Z"/><path class="cls-2" d="M27.29,47.51c.48,1.32-.13,2.52-.75,3.47-.79,.79-1.62,1.09-2.8,.89,.12-.93,.48-2.12,1.55-2.58,.32-.19,.65-.29,.98-.56-1.04-.62-1.66-1.51-1.89-2.59l.12-1c1.35,.18,2.32,1.22,2.8,2.37"/><path class="cls-2" d="M27.29,47.51l2.2-.8c.21,.59,.32,1.2,.31,1.78,0,.85-.21,1.61-.46,2.23-.26,.62-.57,1.13-.84,1.55l-.3,.37c-.47,.46-1.02,.89-1.68,1.19-.66,.3-1.4,.45-2.11,.45-.36,0-.7-.03-1.05-.09-1.25-.21-2.1-1.37-1.93-2.62,.09-.63,.24-1.39,.65-2.21,.4-.81,1.14-1.72,2.28-2.21l.93,2.15-1.16-2.03c.3-.17,.5-.26,.59-.3l.07-.04,.08,.14-.1-.12h.02l.08,.12-.1-.12,1.49,1.81-1.21,2c-1.52-.89-2.64-2.42-2.97-4.12-.05-.25-.06-.49-.03-.75l.12-1c.08-.62,.4-1.19,.89-1.57,.49-.39,1.13-.56,1.75-.47,1.19,.16,2.22,.71,2.98,1.4,.77,.69,1.31,1.52,1.66,2.38l.04,.1-2.2,.8-2.16,.9c-.12-.29-.31-.56-.48-.71l-.47-.24,.31-2.32,2.32,.28-.12,1-2.33-.27,2.29-.47c.12,.46,.26,.7,.8,1.06,.65,.39,1.07,1.08,1.13,1.83,.05,.76-.26,1.5-.85,1.98-.35,.29-.69,.48-.92,.59-.24,.12-.36,.17-.38,.19l-.23,.11-.09-.21,.16,.16-.07,.05-.09-.21,.16,.16-.02,.04c-.07,.09-.17,.42-.21,.76l-2.32-.31,.38-2.31,.28,.03,.18-.03,.3-.24,1.66,1.65-1.96-1.28c.19-.29,.35-.57,.43-.78,.09-.22,.11-.36,.11-.44l-.03-.17,2.2-.8-2.16,.9,2.16-.9Z"/><path class="cls-2" d="M24.29,47.41c.27,1.37-.52,2.46-1.29,3.29-.91,.67-1.77,.82-2.91,.44,.27-.89,.82-2.01,1.93-2.3,.36-.13,.7-.18,1.06-.38-.93-.79-1.41-1.76-1.45-2.85l.28-.98c1.3,.39,2.1,1.58,2.38,2.79"/><path class="cls-2" d="M24.29,47.41l2.29-.46c.07,.34,.1,.68,.1,1.01,0,1.04-.33,1.95-.72,2.66-.4,.71-.85,1.24-1.25,1.67l-.34,.31c-.83,.62-1.97,1.1-3.15,1.09-.66,0-1.29-.13-1.88-.33-1.19-.4-1.85-1.68-1.49-2.89,.19-.61,.46-1.34,.99-2.08,.52-.73,1.39-1.5,2.58-1.81l.6,2.26-.79-2.2c.31-.11,.53-.16,.62-.19l.08-.03,.07,.19-.1-.17h.03l.07,.17-.1-.17,1.17,2.03-1.51,1.79c-1.36-1.12-2.23-2.81-2.28-4.55,0-.24,.02-.5,.09-.73l.28-.98c.17-.6,.58-1.12,1.13-1.42,.55-.3,1.2-.37,1.8-.19,1.15,.35,2.08,1.06,2.72,1.87,.65,.81,1.05,1.72,1.26,2.64v.07l-2.28,.46-2.28,.53c-.06-.3-.21-.59-.35-.77l-.42-.31,.68-2.24,2.25,.63-.28,.99-2.25-.63,2.34-.1c.04,.45,.13,.72,.62,1.16,.58,.49,.89,1.24,.82,2-.07,.76-.5,1.44-1.16,1.82-.39,.23-.76,.35-1.01,.43-.25,.08-.39,.11-.43,.13l-.19,.06-.05-.19,.12,.16-.07,.03-.05-.19,.12,.16-.03,.04c-.08,.08-.24,.39-.33,.71l-2.24-.67,.75-2.22c.22,.08,.34,.08,.39,.08,.07-.01,.06,.03,.4-.2l1.38,1.89-1.72-1.58c.27-.29,.48-.57,.6-.77,.11-.21,.13-.31,.13-.39v-.09l2.29-.46-2.28,.53,2.28-.53Z"/><path class="cls-2" d="M21.37,46.64c.06,1.4-.89,2.36-1.77,3.08-1,.52-1.88,.53-2.94,0,.4-.84,1.1-1.87,2.26-2,.37-.08,.71-.07,1.1-.23-.8-.91-1.12-1.94-1-3.04l.42-.92c1.23,.59,1.84,1.88,1.93,3.11"/><path class="cls-2" d="M21.37,46.64l2.34-.1v.23c0,1.21-.44,2.29-.98,3.05-.54,.77-1.16,1.31-1.66,1.72l-.39,.25c-.73,.39-1.61,.66-2.53,.66-.91,0-1.78-.26-2.54-.65-1.14-.57-1.61-1.94-1.06-3.09,.27-.57,.66-1.25,1.29-1.91,.62-.65,1.61-1.29,2.83-1.42l.25,2.33-.49-2.29c.35-.07,.58-.09,.68-.11h.07l.08,.3-.12-.3,.05-.02,.08,.32-.12-.3,.88,2.17-1.75,1.55c-1.03-1.15-1.63-2.65-1.61-4.16,0-.23,.01-.45,.03-.68,.03-.26,.09-.49,.2-.73l.42-.92c.26-.57,.74-1.01,1.33-1.23,.59-.21,1.24-.18,1.81,.09,1.08,.52,1.89,1.36,2.4,2.25,.52,.9,.78,1.85,.85,2.78v.09l-2.33,.1-2.34,.19c-.02-.3-.12-.61-.24-.82-.13-.21-.24-.31-.38-.38l1.02-2.11,2.13,.97-.42,.92-2.13-.97,2.33,.25v.18c0,.37,.08,.64,.44,1.06,.5,.57,.69,1.34,.52,2.08-.17,.74-.69,1.34-1.39,1.63-.44,.18-.84,.25-1.09,.29-.26,.04-.38,.06-.4,.06l-.24,.04-.02-.2,.1,.18-.08,.02-.02-.2,.1,.18-.04,.03c-.09,.07-.29,.35-.44,.66l-2.12-1,1.06-2.09c.3,.15,.39,.14,.43,.15,.04,0,.11,0,.38-.13l1.08,2.08-1.47-1.82c.35-.28,.62-.56,.76-.75,.13-.21,.14-.26,.15-.38v-.03l2.34-.1-2.34,.19,2.34-.19Z"/><path class="cls-2" d="M18.52,45.51c-.13,1.39-1.2,2.21-2.18,2.8-1.06,.37-1.93,.28-2.91-.41,.51-.78,1.35-1.69,2.51-1.66,.37-.02,.71,.03,1.12-.07-.66-1.01-.85-2.08-.58-3.15l.55-.86c1.13,.76,1.56,2.12,1.49,3.35"/><path class="cls-2" d="M18.52,45.51l2.33,.23c-.12,1.26-.71,2.32-1.36,3.04-.66,.73-1.36,1.19-1.93,1.54l-.44,.21c-.59,.2-1.23,.34-1.91,.34-1.13,.01-2.24-.42-3.11-1.04-1.04-.72-1.31-2.14-.62-3.2,.34-.52,.81-1.13,1.51-1.68,.69-.55,1.7-1.04,2.9-1.04h.12l-.06,2.34-.13-2.34h.72v.12l-.02-.13h.02v.13l-.02-.13,.55,2.28-1.95,1.29c-.69-1.04-1.09-2.26-1.09-3.5,0-.51,.07-1.02,.19-1.51,.06-.23,.17-.48,.3-.68l.55-.86c.34-.53,.87-.91,1.5-1.03,.62-.13,1.26,0,1.78,.35,.92,.62,1.57,1.47,1.97,2.35,.39,.88,.56,1.8,.56,2.67v.41l-.02,.09-2.33-.23-2.34-.14v-.14c0-.28-.06-.56-.14-.75l-.31-.39,1.31-1.94,1.98,1.26-.55,.86-1.98-1.26,2.27,.57-.05,.37c0,.27,.07,.54,.31,.92,.42,.63,.5,1.44,.22,2.15-.28,.71-.89,1.24-1.63,1.42-.5,.12-.94,.13-1.2,.13h-.53v-.18l.07,.17h-.07v-.17l.07,.17-.19,.15-.37,.47-1.96-1.28,1.34-1.92c.35,.23,.36,.19,.43,.2,.05,0,.15,0,.38-.08l.76,2.21-1.21-2c.4-.24,.71-.48,.87-.66l.19-.37,2.33,.23-2.34-.14,2.34,.14Z"/><path class="cls-2" d="M15.83,44.14c-.38,1.34-1.58,1.96-2.65,2.36-1.11,.16-1.95-.09-2.79-.94,.65-.68,1.64-1.42,2.77-1.18,.37,.05,.69,.16,1.12,.13-.47-1.11-.46-2.2,0-3.2l.69-.75c.98,.94,1.16,2.35,.86,3.57"/><path class="cls-2" d="M15.83,44.14l2.25,.64c-.34,1.22-1.11,2.16-1.89,2.75-.78,.6-1.55,.93-2.18,1.17l-.49,.13c-.31,.04-.63,.07-.95,.07-.69,0-1.43-.14-2.11-.44-.67-.3-1.25-.74-1.75-1.24-.89-.9-.9-2.34-.03-3.26,.38-.4,.87-.85,1.52-1.23,.65-.38,1.49-.72,2.5-.72,.31,0,.62,.03,.94,.1l-.49,2.29,.29-2.32c.31,.04,.52,.09,.62,.11h.09l-.02,.19v-.18h.02l-.02,.18v.33l-.04-.51h.04v.51l-.04-.51,.18,2.34-2.16,.91c-.34-.81-.54-1.68-.54-2.55s.2-1.76,.56-2.54c.1-.22,.24-.43,.4-.61l.69-.75c.42-.46,1.03-.74,1.65-.75,.63-.02,1.24,.22,1.69,.65,1.25,1.2,1.72,2.8,1.71,4.19,0,.56-.07,1.1-.19,1.62l-.02,.09-2.25-.64-2.27-.56,.07-.51c0-.43-.12-.67-.27-.81l1.62-1.69,1.72,1.58-.69,.75-1.72-1.58,2.13,.98c-.1,.22-.13,.39-.13,.59s.04,.42,.16,.72c.29,.69,.24,1.49-.15,2.13-.39,.64-1.08,1.06-1.82,1.12h-.32c-.39,.01-.72-.04-.93-.08-.22-.04-.32-.06-.34-.06l-.2-.03,.04-.2v.21h-.04l.04-.21v.05l.03,.16h-.03v-.16l.03,.16h-.04c-.11,.05-.39,.25-.61,.5l-1.7-1.61,1.66-1.65,.33,.26,.19,.03,.26-.02,.34,2.31-.83-2.19c.44-.16,.8-.35,.98-.5l.25-.32,2.25,.64-2.27-.56,2.27,.56Z"/><path class="cls-2" d="M13.51,42.29c-.57,1.28-1.85,1.71-2.97,1.95-1.13,0-1.91-.36-2.62-1.32,.73-.58,1.82-1.18,2.91-.76,.37,.09,.67,.26,1.09,.29-.3-1.17-.12-2.24,.47-3.16l.79-.64c.83,1.08,.79,2.51,.33,3.65"/><path class="cls-2" d="M13.51,42.29l2.14,.96c-.51,1.16-1.42,1.98-2.27,2.45-.86,.48-1.68,.69-2.34,.83l-.48,.05h-.03c-.8,0-1.69-.14-2.5-.55-.81-.4-1.48-1.04-1.98-1.73-.75-1.02-.56-2.44,.43-3.22,.38-.3,.86-.63,1.45-.91,.59-.27,1.31-.5,2.16-.5,.51,0,1.06,.09,1.59,.29l-.84,2.19,.58-2.27c.37,.09,.59,.19,.68,.22l.05,.02-.1,.44,.03-.45h.07l-.1,.45,.03-.45-.16,2.34-2.26,.59c-.14-.55-.22-1.12-.22-1.68,0-1.19,.35-2.37,.99-3.34,.13-.2,.3-.39,.49-.55l.79-.64c.49-.4,1.12-.58,1.75-.51,.63,.07,1.2,.39,1.58,.9,.82,1.06,1.15,2.32,1.14,3.45,0,.91-.19,1.75-.5,2.51l-.03,.08-2.14-.96-2.17-.88c.1-.25,.16-.53,.16-.75,0-.29-.07-.45-.17-.59l1.85-1.43,1.48,1.81-.79,.64-1.48-1.81,1.97,1.27c-.17,.28-.23,.49-.24,.79,0,.14,.02,.31,.07,.51,.19,.73,.01,1.5-.47,2.08-.48,.58-1.21,.89-1.96,.84-.49-.03-.89-.15-1.14-.23-.25-.09-.36-.13-.36-.12l-.26-.08,.08-.21v.23l-.08-.02,.08-.21v.23h0v0s-.4,.14-.71,.4l-1.45-1.84,1.88-1.39c.2,.27,.28,.3,.31,.32,.03,.01,.1,.05,.41,.05h0v2.34l-.48-2.29c.45-.09,.82-.22,1.02-.34,.21-.13,.23-.16,.29-.29l2.13,.96-2.17-.88,2.17,.88Z"/><path class="cls-2" d="M11.26,40.12c-.81,1.14-2.14,1.33-3.27,1.36-1.11-.21-1.82-.71-2.33-1.79,.83-.43,2.01-.82,3-.22,.34,.16,.61,.38,1.02,.5-.08-1.2,.29-2.23,1.05-3.03l.9-.48c.62,1.21,.32,2.61-.35,3.66"/><path class="cls-2" d="M11.26,40.12l1.91,1.35c-.72,1.03-1.76,1.66-2.68,1.96-.93,.31-1.77,.36-2.44,.38l-.5-.04c-.8-.14-1.64-.45-2.37-1-.73-.55-1.27-1.3-1.64-2.08-.54-1.14-.09-2.5,1.03-3.08,.71-.36,1.67-.78,2.93-.79,.74,0,1.59,.18,2.37,.65l-1.21,2,1.01-2.11c.33,.16,.52,.29,.61,.34l.07,.03-.14,.3,.09-.32,.05,.02-.14,.3,.09-.32-.63,2.26-2.34,.16-.02-.49c-.01-1.61,.61-3.19,1.7-4.31,.17-.17,.37-.33,.59-.45l.9-.48c.56-.3,1.2-.36,1.81-.17,.6,.19,1.1,.61,1.39,1.17,.41,.81,.59,1.68,.59,2.49,0,1.34-.44,2.51-1.05,3.49l-.07,.09-1.91-1.35-1.98-1.26c.22-.33,.33-.72,.33-.97l-.08-.37,2.09-1.06,1.11,2.06-.9,.48-1.11-2.06,1.69,1.62c-.28,.31-.39,.56-.41,1.08v.16c.06,.76-.26,1.5-.85,1.98-.59,.48-1.38,.64-2.11,.44-.46-.13-.82-.31-1.05-.44-.23-.13-.34-.2-.35-.2l-.21-.11,.12-.19-.06,.22-.06-.03,.12-.19-.06,.22h0c-.07,0-.44,.08-.76,.26l-1.08-2.07,2.11-1.01c.14,.29,.21,.34,.24,.36,.03,.02,.1,.08,.41,.14l-.43,2.3-.07-2.34c.46-.01,.85-.06,1.08-.14,.23-.09,.26-.12,.35-.23l1.91,1.35-1.98-1.26,1.98,1.26Z"/><path class="cls-2" d="M9.52,37.6c-.95,1.04-2.3,1.04-3.43,.93-1.07-.35-1.71-.94-2.08-2.08,.88-.33,2.1-.54,3.01,.19,.31,.21,.56,.45,.94,.61,.07-1.2,.57-2.18,1.43-2.86l.95-.36c.46,1.29-.02,2.62-.82,3.58"/><path class="cls-2" d="M9.52,37.6l1.72,1.58c-.63,.7-1.43,1.17-2.19,1.42-.76,.25-1.47,.32-2.09,.32-.41,0-.78-.03-1.11-.06l-.48-.1c-.77-.24-1.57-.65-2.22-1.3-.66-.64-1.1-1.46-1.36-2.28-.39-1.2,.23-2.48,1.41-2.92,.62-.23,1.39-.44,2.33-.45,.89,0,2.02,.24,2.96,1.01l-1.47,1.82,1.28-1.96c.28,.19,.46,.33,.53,.38l.05,.04-.17,.29,.13-.31,.05,.02-.17,.29,.13-.31-.88,2.17-2.34-.15c.09-1.77,.93-3.47,2.3-4.54,.2-.16,.4-.28,.65-.37l.95-.36c.58-.22,1.24-.19,1.81,.07,.57,.26,1.01,.75,1.22,1.34,.21,.6,.31,1.22,.31,1.81,0,1.64-.68,3.01-1.54,4.05l-.07,.08-1.72-1.58-1.8-1.5c.31-.36,.47-.8,.46-1.05l-.04-.25,2.21-.78,.82,2.19-.96,.36-.82-2.19,1.47,1.83c-.34,.3-.5,.55-.56,1.18-.05,.75-.46,1.44-1.09,1.84-.64,.4-1.43,.47-2.13,.19-.43-.17-.77-.4-.98-.56-.22-.16-.33-.24-.35-.26l-.19-.14,.12-.15-.05,.18-.06-.03,.12-.15-.05,.18h-.09c-.14-.01-.43,.05-.7,.15l-.82-2.19,2.23-.72c.1,.31,.17,.36,.19,.39,.03,.02,.08,.09,.38,.19l-.72,2.23,.24-2.33c.23,.02,.45,.04,.63,.04,.28,0,.49-.03,.6-.07l.23-.14,1.73,1.58-1.8-1.5,1.8,1.5Z"/><path class="cls-2" d="M8.23,34.75c-1.09,.88-2.43,.69-3.53,.41-1-.5-1.54-1.18-1.75-2.37,.93-.18,2.16-.22,2.95,.63,.28,.26,.48,.53,.84,.75,.25-1.18,.89-2.05,1.84-2.61l1-.22c.26,1.33-.41,2.59-1.35,3.41"/><path class="cls-2" d="M8.23,34.75l1.47,1.82c-1.08,.89-2.38,1.18-3.41,1.17-.86,0-1.58-.16-2.17-.31l-.45-.17c-.73-.36-1.46-.88-2.01-1.62-.55-.73-.87-1.6-1.01-2.45-.22-1.25,.61-2.45,1.86-2.7,.42-.08,.91-.15,1.46-.15,.54,0,1.15,.07,1.79,.28,.64,.22,1.32,.61,1.86,1.19l-1.71,1.6,1.61-1.7c.23,.22,.36,.37,.43,.43l.04,.04-.16,.2,.13-.22,.03,.02-.16,.2,.13-.22-1.21,2-2.29-.49c.35-1.74,1.45-3.29,2.94-4.14,.22-.13,.45-.22,.7-.27l1-.21c.61-.13,1.26,0,1.78,.34,.52,.35,.89,.89,1.01,1.51,.07,.34,.1,.69,.1,1.02,0,.99-.27,1.89-.67,2.66-.4,.77-.94,1.41-1.54,1.94l-.06,.05-1.47-1.82-1.54-1.76,.47-.58,.14-.49v-.13l2.29-.45,.49,2.29-1,.21-.49-2.29,1.19,2.01c-.41,.27-.59,.48-.74,1.09-.16,.74-.67,1.36-1.36,1.66-.7,.3-1.49,.25-2.14-.14-.39-.24-.69-.5-.88-.7l-.35-.35-.1-.1,.15-.15-.11,.18-.04-.03,.15-.15-.11,.18,.04-.07-.03,.08h-.01l.04-.08-.03,.08-.29-.03c-.16,0-.36,.02-.56,.06l-.45-2.3,2.31-.4c.06,.33,.12,.4,.14,.43,.02,.03,.07,.1,.34,.23l-1.04,2.1,.58-2.27c.41,.11,.77,.16,1,.16,.31-.01,.34-.04,.46-.13l1.48,1.82-1.54-1.76,1.54,1.76Z"/><path class="cls-2" d="M6.94,28.87c-1.29,.56-2.52,.03-3.51-.54-.85-.75-1.19-1.55-1.07-2.74,.94,.07,2.14,.35,2.68,1.39,.2,.31,.32,.64,.61,.94,.55-1.07,1.4-1.75,2.46-2.03l1.02,.05c-.11,1.36-1.08,2.39-2.2,2.94"/><path class="cls-2" d="M6.94,28.87l.93,2.15c-.68,.3-1.41,.43-2.07,.43-1.56-.02-2.72-.63-3.54-1.09l-.38-.27c-.54-.47-1.04-1.06-1.38-1.77C.15,27.6,0,26.79,0,26.03c0-.23,.01-.45,.03-.68,.13-1.26,1.23-2.19,2.5-2.1,.63,.05,1.4,.16,2.25,.52,.83,.35,1.78,1.03,2.34,2.13l-2.08,1.07,1.96-1.27c.19,.29,.28,.49,.33,.57l.03,.06-.26,.19,.23-.22,.03,.04-.26,.19,.23-.22-1.69,1.62-2.08-1.07c.8-1.59,2.26-2.79,3.93-3.22,.23-.06,.5-.09,.74-.08l1.02,.06c.63,.03,1.22,.32,1.64,.8,.42,.48,.62,1.09,.57,1.72-.09,1.19-.58,2.25-1.22,3.05-.65,.81-1.44,1.4-2.28,1.81l-.1,.05-.93-2.15-1.03-2.1c.28-.14,.53-.34,.68-.52l.22-.5,2.34,.19-.13,2.34-1.02-.06,.13-2.34,.61,2.26c-.45,.14-.69,.31-.99,.85-.35,.67-.99,1.13-1.75,1.24-.75,.11-1.5-.15-2.03-.7-.32-.34-.53-.68-.67-.91-.13-.23-.2-.35-.22-.37l-.11-.2,.18-.09-.13,.15-.05-.06,.18-.09-.13,.15-.04-.02c-.1-.06-.43-.15-.78-.17l.17-2.33,2.33,.23v.21l.02,.25s.06,.12,.26,.3l-1.55,1.75,1.17-2.03c.56,.34,1.03,.48,1.19,.46l.21-.04,.93,2.15-1.03-2.1,1.03,2.1Z"/><path class="cls-2" d="M7.3,31.9c-1.21,.71-2.5,.31-3.55-.14-.92-.65-1.35-1.41-1.36-2.61,.94-.04,2.17,.11,2.82,1.07,.23,.29,.39,.6,.71,.88,.43-1.13,1.2-1.91,2.22-2.3l1.02-.06c.05,1.37-.81,2.5-1.86,3.16"/><path class="cls-2" d="M7.3,31.9l1.18,2.02c-.86,.51-1.8,.71-2.63,.71-1.29,0-2.28-.41-3.03-.72l-.42-.23c-.67-.47-1.32-1.11-1.74-1.92-.43-.81-.6-1.72-.61-2.58-.01-1.26,.98-2.31,2.24-2.36h.36c.63,0,1.37,.05,2.18,.34,.8,.28,1.71,.84,2.33,1.77l-1.94,1.31,1.82-1.47c.22,.27,.34,.46,.39,.54l.05,.06-.17,.15,.15-.17,.03,.02-.17,.15,.15-.17-1.53,1.77-2.19-.83c.61-1.67,1.93-3.05,3.57-3.66,.22-.09,.47-.14,.71-.15l1.02-.06c.62-.04,1.25,.19,1.71,.61,.46,.42,.74,1.02,.76,1.65v.2c0,1.16-.38,2.22-.93,3.06-.55,.84-1.26,1.49-2.03,1.97l-.06,.03-1.18-2.02-1.24-1.99c.25-.15,.47-.37,.6-.56,.13-.2,.17-.34,.17-.5v-.03l2.34-.09,.13,2.34-1.02,.06-.14-2.34,.84,2.18c-.42,.18-.63,.36-.88,.95-.27,.72-.87,1.25-1.61,1.44-.74,.19-1.52,0-2.11-.5-.35-.3-.6-.61-.75-.83-.15-.22-.23-.33-.25-.35l-.12-.17,.17-.12-.12,.17-.05-.05,.17-.12-.12,.17h-.02c-.07-.05-.34-.1-.64-.1h-.16l-.1-2.33,2.34-.03c0,.34,.05,.41,.07,.44,.02,.03,.05,.1,.3,.28l-1.35,1.91,.93-2.15c.52,.23,.97,.35,1.17,.34l.27-.07,1.18,2.02-1.24-1.99,1.24,1.99Z"/><path class="cls-2" d="M6.82,25.88c-1.36,.33-2.48-.42-3.35-1.14-.7-.89-.9-1.74-.57-2.88,.91,.22,2.05,.72,2.4,1.82,.14,.36,.2,.69,.43,1.04,.73-.96,1.69-1.48,2.78-1.58l.99,.23c-.33,1.32-1.49,2.17-2.68,2.51"/><path class="cls-2" d="M6.82,25.88l.55,2.27c-.41,.1-.82,.15-1.21,.15-.99,0-1.86-.29-2.54-.64-.69-.35-1.22-.76-1.64-1.11l-.35-.36c-.35-.44-.66-.94-.88-1.51-.22-.57-.34-1.2-.34-1.82,0-.57,.09-1.12,.24-1.65,.34-1.21,1.57-1.93,2.8-1.64,.64,.15,1.39,.4,2.15,.9,.76,.49,1.57,1.33,1.93,2.5l-2.23,.7,2.16-.89c.13,.32,.19,.53,.22,.62l.02,.06-.28,.13,.26-.17,.02,.04-.28,.13,.26-.17-1.95,1.29-1.86-1.41c1.06-1.44,2.72-2.37,4.45-2.49,.26-.02,.49,0,.75,.06l.98,.23c.61,.15,1.14,.53,1.46,1.07,.33,.53,.42,1.18,.27,1.79-.29,1.17-.97,2.13-1.75,2.81-.78,.68-1.67,1.12-2.56,1.37l-.09,.02-.55-2.27-.64-2.25c.3-.08,.59-.24,.76-.39l.29-.43,2.27,.57-.55,2.28-.98-.24,.54-2.28,.2,2.33c-.47,.06-.73,.18-1.12,.66-.46,.6-1.18,.95-1.94,.92-.76-.02-1.46-.42-1.88-1.05-.26-.39-.41-.77-.5-1.02-.09-.26-.13-.39-.15-.42l-.07-.19,.18-.06-.15,.12-.03-.06,.18-.06-.15,.12-.04-.03c-.09-.07-.39-.21-.7-.28l.55-2.27,2.25,.64-.06,.37,.02,.12,.2,.32-1.84,1.45,1.49-1.8c.3,.25,.59,.45,.8,.56,.22,.11,.33,.13,.4,.13h.11l.55,2.26-.64-2.25,.64,2.25Z"/><path class="cls-2" d="M32.96,33.76c-3.43,1.67-7.1,3-10.37,5.18-2.76-5.76-4.1-12.2-5.26-18.64-.75-1-1.76-2.09-3.01-2.17,2.34-1.33,2.34-5.26,5.69-5.18,2-.09,4.01,.99,4.68,2.84,1.08,2.5-1.09,4.77-.08,7.36,.59,1.76,1.84,3.85,3.76,4.51-.51-2.75,0-6.02,2.68-7.61,1.84-1.17,4.43-1.26,6.35-.33,2.09,1.25,3.27,3.35,3.43,5.68,.17,4.36-4.68,6.7-7.86,8.37"/><path class="cls-2" d="M32.96,33.76l1.02,2.1c-3.58,1.73-7.14,3.04-10.09,5.02-.56,.38-1.27,.49-1.92,.31-.65-.18-1.2-.63-1.49-1.25-2.92-6.11-4.28-12.75-5.46-19.24l2.3-.42-1.87,1.41c-.32-.43-.66-.81-.93-1.02l-.3-.2-.08-.03c-1.03-.07-1.89-.81-2.12-1.81-.23-1.01,.22-2.05,1.12-2.56,.15-.08,.35-.26,.63-.66,.43-.59,.86-1.58,1.71-2.66,.43-.53,.99-1.09,1.76-1.51,.76-.42,1.69-.66,2.64-.65h.16l-.06,2.34-.1-2.34h.32c1.39,0,2.75,.37,3.94,1.1,1.18,.72,2.2,1.84,2.72,3.28l-2.2,.8,2.15-.93c.37,.85,.51,1.71,.5,2.48,0,1.08-.24,1.97-.4,2.68-.17,.71-.28,1.25-.27,1.63,0,.26,.03,.44,.11,.66l.04,.11c.22,.67,.59,1.43,1.02,1.99,.44,.58,.9,.92,1.29,1.05l-.76,2.21-2.3,.42c-.14-.74-.21-1.52-.21-2.31,0-1.39,.23-2.83,.85-4.21,.61-1.37,1.66-2.66,3.14-3.53l1.2,2.01-1.26-1.97c1.45-.92,3.11-1.32,4.73-1.33,1.34,0,2.66,.27,3.89,.86l.19,.1c2.77,1.64,4.37,4.52,4.56,7.52v.38c.01,1.5-.43,2.88-1.11,4.01-1.02,1.71-2.48,2.92-3.92,3.9-1.45,.97-2.93,1.71-4.08,2.32l-.07,.03-1.02-2.1-1.09-2.07c1.59-.83,3.41-1.77,4.7-2.84,.64-.53,1.14-1.08,1.45-1.61,.31-.53,.46-1.02,.46-1.63v-.13l2.34-.09-2.34,.16c-.14-1.66-.88-2.97-2.3-3.84l1.2-2.01-1.01,2.11c-.51-.25-1.19-.4-1.87-.4-.83,0-1.65,.23-2.22,.59l-.06,.04c-.6,.37-.98,.82-1.27,1.45-.28,.62-.44,1.42-.44,2.27,0,.48,.05,.98,.14,1.46,.15,.82-.14,1.65-.77,2.2-.64,.55-1.5,.71-2.29,.44-1.54-.54-2.66-1.57-3.48-2.64-.82-1.09-1.37-2.25-1.74-3.34l2.22-.74-2.18,.85c-.32-.81-.44-1.63-.43-2.35,0-1.09,.23-1.99,.39-2.7,.17-.71,.28-1.25,.27-1.6,0-.26-.03-.42-.12-.62l-.05-.13c-.12-.34-.37-.64-.78-.9-.4-.25-.95-.41-1.48-.41h-.33c-.35,.02-.34,.05-.48,.14-.21,.13-.63,.74-1.16,1.68-.27,.46-.59,.99-1.03,1.53-.43,.54-1,1.1-1.76,1.53l-1.16-2.03,.16-2.34c1.28,.09,2.28,.67,3.01,1.26,.74,.6,1.28,1.27,1.71,1.84,.22,.29,.37,.63,.43,.99,1.16,6.41,2.48,12.64,5.07,18.05l-2.11,1.01-1.3-1.95c3.58-2.37,7.37-3.73,10.64-5.33l1.02,2.1-1.09-2.07,1.09,2.07Z"/><path class="cls-2" d="M20.16,17.28c.17,.75-.33,1.42-1,1.58-.84,.25-1.51-.5-1.68-1.17,0-.58,.33-1.25,.92-1.42,.75-.08,1.75,.07,1.75,1"/><path class="cls-2" d="M20.16,17.28l2.28-.51c.06,.27,.09,.54,.09,.81,0,.89-.33,1.7-.83,2.31-.5,.61-1.18,1.05-1.98,1.25l-.56-2.27,.67,2.24c-.32,.1-.66,.15-1,.15-1.1,0-1.98-.52-2.52-1.07-.56-.57-.9-1.19-1.09-1.92l-.07-.57c0-.74,.19-1.42,.58-2.08,.39-.64,1.06-1.31,2.04-1.59l.4-.08c.19-.02,.38-.03,.58-.03,.6,.01,1.3,.06,2.14,.53,.41,.24,.85,.62,1.16,1.14,.31,.52,.46,1.14,.46,1.69h-2.34l2.28-.51-2.28,.51h-.95l-1.18,.7c-.15-.25-.21-.55-.21-.7h1.39l-1.18,.7,1.14-.68-.46,1.27c-.11-.04-.45-.2-.68-.6l1.14-.68-.46,1.27,.16-.45-.07,.48-.1-.02,.16-.45-.07,.48h-.14l-.25-2.32,.65,2.25-.31-1.08,.99,.59c-.07,.12-.28,.37-.67,.49l-.31-1.08,.99,.59-.57-.34h.67l-.1,.34-.57-.34h-1.67l2.27-.57-.55,.14,.4-.41,.15,.27-.55,.14,.4-.41-.77,.78v-1.07c.42,0,.69,.2,.77,.29l-.77,.78v.11l-.34-1.13,.34-.05v1.18l-.34-1.13,.11-.03,.23,.94-.75-.62c.13-.16,.3-.27,.52-.33l.23,.94-.75-.62,.8,.66h-1.03c0-.26,.1-.5,.23-.66l.8,.66h-.03l-.98,.22-.02-.22h1l-.98,.22-.06-.51h2.34Z"/><path class="cls-5" d="M42.91,22.3c-1.01-2.51-3.35-4.93-6.03-5.6-3.42-1.01-6.94,.25-9.36,2.84,.08-1.83,.08-3.93-.75-5.43-1.01-1.67-2.68-3.18-4.44-3.52-2.42-.59-4.85-.09-6.69,1.51-2.26,1.67-1.58,4.6-3.76,6.18l.25,.25c1.25,.09,2.09,1.26,2.43,2.26,1.51,7.95,3.09,15.72,7.02,22.66l.42,.08c5.6-5.6,13.3-6.35,18.98-11.79,2.35-2.43,3.27-6.19,1.93-9.45m-9.96,11.54c-3.42,1.67-7.11,3-10.37,5.19-2.76-5.77-4.09-12.21-5.27-18.65-.75-1-1.76-2.09-3.01-2.17,2.34-1.34,2.34-5.26,5.69-5.18,2-.08,4.01,1,4.68,2.84,1.09,2.51-1.08,4.76-.08,7.36,.58,1.76,1.84,3.85,3.76,4.51-.5-2.75,0-6.02,2.68-7.6,1.84-1.18,4.43-1.26,6.36-.34,2.09,1.26,3.26,3.35,3.42,5.68,.17,4.35-4.68,6.69-7.86,8.37"/><path class="cls-3" d="M28.23,47.41c-.42,1.33,.25,2.51,.93,3.43,.83,.74,1.67,1,2.84,.74-.16-.92-.58-2.09-1.67-2.51-.33-.16-.67-.25-1-.5,1-.67,1.58-1.58,1.75-2.68l-.17-1c-1.33,.25-2.26,1.34-2.68,2.51"/><path class="cls-3" d="M31.21,47.15c-.2,1.39,.65,2.44,1.45,3.25,.95,.6,1.81,.72,2.93,.27-.31-.88-.91-1.97-2.05-2.21-.36-.11-.7-.14-1.07-.34,.88-.81,1.32-1.81,1.3-2.91l-.32-.97c-1.29,.46-2.02,1.69-2.25,2.91"/><path class="cls-3" d="M34.1,46.25c.01,1.4,1,2.3,1.92,2.98,1.02,.46,1.9,.44,2.94-.15-.45-.82-1.2-1.81-2.36-1.88-.37-.06-.72-.04-1.11-.18,.75-.94,1.03-2,.85-3.08l-.46-.91c-1.2,.65-1.74,1.97-1.78,3.22"/><path class="cls-3" d="M36.88,44.97c.2,1.39,1.32,2.15,2.31,2.69,1.08,.31,1.95,.18,2.89-.56-.55-.75-1.43-1.63-2.6-1.53-.37,0-.71,.07-1.12-.02,.61-1.04,.74-2.12,.42-3.17l-.58-.83c-1.1,.82-1.46,2.19-1.32,3.43"/><path class="cls-3" d="M39.5,43.47c.45,1.32,1.68,1.88,2.76,2.22,1.12,.11,1.95-.18,2.74-1.07-.67-.64-1.7-1.34-2.83-1.04-.37,.06-.69,.19-1.1,.19,.41-1.14,.34-2.22-.16-3.19l-.72-.72c-.93,1-1.04,2.42-.68,3.62"/><path class="cls-3" d="M41.73,41.51c.64,1.25,1.94,1.61,3.06,1.8,1.12-.06,1.89-.46,2.55-1.46-.76-.54-1.89-1.07-2.95-.62-.36,.12-.65,.29-1.06,.34,.25-1.18,.01-2.24-.63-3.14l-.83-.59c-.77,1.11-.67,2.54-.14,3.66"/><path class="cls-3" d="M43.63,39.23c.87,1.12,2.21,1.22,3.34,1.2,1.1-.26,1.78-.8,2.24-1.91-.86-.38-2.05-.71-3.02-.06-.33,.18-.58,.41-.99,.54,.02-1.2-.4-2.21-1.19-2.97l-.92-.43c-.56,1.24-.19,2.62,.53,3.62"/><path class="cls-3" d="M45.24,36.62c1,.98,2.34,.93,3.47,.76,1.06-.41,1.66-1.03,1.98-2.18-.9-.27-2.13-.44-3,.34-.3,.22-.53,.48-.91,.67-.13-1.2-.68-2.14-1.57-2.79l-.97-.31c-.39,1.3,.15,2.61,1,3.53"/><path class="cls-3" d="M46.5,33.72c1.13,.83,2.45,.58,3.54,.23,.98-.55,1.48-1.26,1.62-2.45-.92-.14-2.17-.12-2.92,.78-.26,.26-.45,.55-.8,.78-.31-1.15-.99-2.01-1.97-2.51l-1-.17c-.19,1.35,.54,2.57,1.52,3.33"/><path class="cls-3" d="M47.38,27.78c1.31,.5,2.52-.1,3.48-.71,.81-.79,1.11-1.62,.92-2.8-.93,.12-2.12,.47-2.61,1.53-.19,.32-.29,.66-.56,.98-.61-1.05-1.49-1.69-2.56-1.92l-1.01,.11c.17,1.35,1.2,2.33,2.34,2.82"/><path class="cls-3" d="M47.28,30.83c1.25,.64,2.52,.18,3.54-.33,.89-.69,1.28-1.48,1.23-2.68-.94,.01-2.16,.23-2.76,1.23-.22,.3-.36,.61-.67,.9-.49-1.1-1.29-1.84-2.34-2.19h-1.01c.02,1.36,.93,2.45,2.01,3.06"/><path class="cls-3" d="M47.46,24.79c1.38,.26,2.46-.54,3.3-1.32,.65-.92,.8-1.77,.42-2.9-.89,.26-2.01,.82-2.3,1.95-.13,.35-.18,.7-.38,1.05-.78-.92-1.77-1.39-2.86-1.43l-.97,.29c.4,1.3,1.59,2.08,2.8,2.36"/><path class="cls-3" d="M27.29,47.51c.48,1.32-.13,2.52-.75,3.47-.79,.79-1.62,1.09-2.8,.89,.12-.93,.48-2.12,1.55-2.58,.32-.19,.65-.29,.98-.56-1.04-.62-1.66-1.51-1.89-2.59l.12-1c1.35,.18,2.32,1.22,2.8,2.37"/><path class="cls-3" d="M24.29,47.41c.27,1.37-.52,2.46-1.29,3.29-.91,.67-1.77,.82-2.91,.44,.27-.89,.82-2.01,1.93-2.3,.36-.13,.7-.18,1.06-.38-.93-.79-1.41-1.76-1.45-2.85l.28-.98c1.3,.39,2.1,1.58,2.38,2.79"/><path class="cls-3" d="M21.37,46.64c.06,1.4-.89,2.36-1.77,3.08-1,.52-1.88,.53-2.94,0,.4-.84,1.1-1.87,2.26-2,.37-.08,.71-.07,1.1-.23-.8-.91-1.12-1.94-1-3.04l.42-.92c1.23,.59,1.84,1.88,1.93,3.11"/><path class="cls-3" d="M18.52,45.51c-.13,1.39-1.2,2.21-2.18,2.8-1.06,.37-1.93,.28-2.91-.41,.51-.78,1.35-1.69,2.51-1.66,.37-.02,.71,.03,1.12-.07-.66-1.01-.85-2.08-.58-3.15l.55-.86c1.13,.76,1.56,2.12,1.49,3.35"/><path class="cls-3" d="M15.83,44.14c-.38,1.34-1.58,1.96-2.65,2.36-1.11,.16-1.95-.09-2.79-.94,.65-.68,1.64-1.42,2.77-1.18,.37,.05,.69,.16,1.12,.13-.47-1.11-.46-2.2,0-3.2l.69-.75c.98,.94,1.16,2.35,.86,3.57"/><path class="cls-3" d="M13.51,42.29c-.57,1.28-1.85,1.71-2.97,1.95-1.13,0-1.91-.36-2.62-1.32,.73-.58,1.82-1.18,2.91-.76,.37,.09,.67,.26,1.09,.29-.3-1.17-.12-2.24,.47-3.16l.79-.64c.83,1.08,.79,2.51,.33,3.65"/><path class="cls-3" d="M11.26,40.12c-.81,1.14-2.14,1.33-3.27,1.36-1.11-.21-1.82-.71-2.33-1.79,.83-.43,2.01-.82,3-.22,.34,.16,.61,.38,1.02,.5-.08-1.2,.29-2.23,1.05-3.03l.9-.48c.62,1.21,.32,2.61-.35,3.66"/><path class="cls-3" d="M9.52,37.6c-.95,1.04-2.3,1.04-3.43,.93-1.07-.35-1.71-.94-2.08-2.08,.88-.33,2.1-.54,3.01,.19,.31,.21,.56,.45,.94,.61,.07-1.2,.57-2.18,1.43-2.86l.95-.36c.46,1.29-.02,2.62-.82,3.58"/><path class="cls-3" d="M8.23,34.75c-1.09,.88-2.43,.69-3.53,.41-1-.5-1.54-1.18-1.75-2.37,.93-.18,2.16-.22,2.95,.63,.28,.26,.48,.53,.84,.75,.25-1.18,.89-2.05,1.84-2.61l1-.22c.26,1.33-.41,2.59-1.35,3.41"/><path class="cls-3" d="M6.94,28.87c-1.29,.56-2.52,.03-3.51-.54-.85-.75-1.19-1.55-1.07-2.74,.94,.07,2.14,.35,2.68,1.39,.2,.31,.32,.64,.61,.94,.55-1.07,1.4-1.75,2.46-2.03l1.02,.05c-.11,1.36-1.08,2.39-2.2,2.94"/><path class="cls-3" d="M7.3,31.9c-1.21,.71-2.5,.31-3.55-.14-.92-.65-1.35-1.41-1.36-2.61,.94-.04,2.17,.11,2.82,1.07,.23,.29,.39,.6,.71,.88,.43-1.13,1.2-1.91,2.22-2.3l1.02-.06c.05,1.37-.81,2.5-1.86,3.16"/><path class="cls-3" d="M6.82,25.88c-1.36,.33-2.48-.42-3.35-1.14-.7-.89-.9-1.74-.57-2.88,.91,.22,2.05,.72,2.4,1.82,.14,.36,.2,.69,.43,1.04,.73-.96,1.69-1.48,2.78-1.58l.99,.23c-.33,1.32-1.49,2.17-2.68,2.51"/><path class="cls-1" d="M32.96,33.76c-3.43,1.67-7.1,3-10.37,5.18-2.76-5.76-4.1-12.2-5.26-18.64-.75-1-1.76-2.09-3.01-2.17,2.34-1.33,2.34-5.26,5.69-5.18,2-.09,4.01,.99,4.68,2.84,1.08,2.5-1.09,4.77-.08,7.36,.59,1.76,1.84,3.85,3.76,4.51-.51-2.75,0-6.02,2.68-7.61,1.84-1.17,4.43-1.26,6.35-.33,2.09,1.25,3.27,3.35,3.43,5.68,.17,4.36-4.68,6.7-7.86,8.37"/><path class="cls-5" d="M20.16,17.28c.17,.75-.33,1.42-1,1.58-.84,.25-1.51-.5-1.68-1.17,0-.58,.33-1.25,.92-1.42,.75-.08,1.75,.07,1.75,1"/><g><path class="cls-2" d="M7.81,21.41c-.35,0-.69-.08-1.01-.24l-3.44-1.74c-.53-.27-.92-.73-1.11-1.29-.18-.56-.14-1.17,.13-1.7l.26-.52c.16-.31,.37-.56,.63-.76,0-.33,.09-.66,.24-.96l.27-.52c.56-1.09,1.89-1.53,2.99-.97l3.44,1.74c.53,.27,.92,.73,1.11,1.29s.14,1.17-.13,1.69l-.27,.52c-.16,.31-.37,.56-.63,.76,0,.32-.08,.65-.24,.95l-.26,.52c-.27,.53-.73,.92-1.29,1.11-.22,.07-.46,.11-.69,.11Z"/><path class="cls-2" d="M9.24,17.69c-.06,0-.12,0-.18,0-.85-.04-1.72-.37-2.51-.96-.78-.57-1.34-1.28-1.64-2.06-.45-1.18-.26-2.47,.53-3.54h0c1.35-1.83,3.68-2.08,5.68-.61,2,1.47,2.46,3.78,1.11,5.6-.75,1.02-1.8,1.57-2.99,1.57Zm-.59-4.2c-.08,.11-.11,.32-.09,.5,.18-.03,.37-.12,.45-.23h0l-.36-.27h0l-.22-.16h0l.22,.16Zm0,0l.36,.26c.07-.11,.1-.31,.08-.49-.17,.03-.36,.12-.44,.23Z"/><path class="cls-2" d="M11.54,15.43h-.06c-.59-.02-1.15-.26-1.55-.69l-2.65-2.8c-.84-.89-.81-2.29,.08-3.14l.55-.53c.28-.27,.62-.45,.98-.54,.11-.35,.31-.68,.59-.95l.56-.53c.89-.84,2.3-.81,3.14,.08l2.65,2.79c.41,.43,.63,1,.61,1.59s-.26,1.15-.69,1.55l-.42,.4c-.13,.12-.27,.23-.42,.31-.09,.14-.21,.28-.33,.4l-.34,.32c-.13,.12-.27,.23-.42,.31-.09,.14-.21,.28-.34,.4l-.42,.4c-.41,.39-.96,.61-1.53,.61Z"/><path class="cls-2" d="M14.61,12.64c-.14,0-.28-.01-.42-.04-.58-.11-1.09-.45-1.42-.94l-2.15-3.19c-.69-1.02-.42-2.4,.6-3.08l2.14-1.45c.49-.33,1.09-.45,1.67-.34,.58,.11,1.09,.45,1.42,.94l.14,.21c.18,.27,.29,.56,.35,.86,.15,.13,.29,.28,.41,.46l.14,.22c.11,.16,.19,.32,.25,.49,.31,.17,.57,.41,.77,.7l.14,.21c.68,1.02,.41,2.39-.6,3.08l-2.19,1.48c-.37,.25-.8,.38-1.24,.38Z"/><path class="cls-2" d="M18.46,10.27c-.89,0-1.73-.54-2.07-1.42l-1.39-3.6c-.21-.55-.2-1.16,.04-1.7,.24-.54,.68-.96,1.23-1.17l.54-.21c.32-.12,.66-.17,.97-.14,.22-.24,.5-.43,.82-.55l.55-.21c.55-.21,1.16-.2,1.7,.04,.54,.24,.96,.68,1.17,1.23l1.39,3.6c.21,.55,.2,1.16-.04,1.7s-.68,.96-1.23,1.17l-.55,.21c-.32,.12-.65,.17-.97,.14-.22,.24-.5,.43-.82,.55l-.54,.21c-.26,.1-.53,.15-.8,.15Z"/><path class="cls-2" d="M21.81,9.05c-1.02,0-1.94-.71-2.17-1.75l-.82-3.76c-.13-.58-.02-1.18,.3-1.67,.32-.5,.82-.84,1.4-.97l2.52-.55c1.19-.26,2.38,.5,2.64,1.7l.06,.25c.07,.32,.07,.63,0,.93,.09,.17,.16,.36,.21,.57l.06,.25c.04,.19,.06,.38,.05,.56,.22,.27,.37,.59,.45,.93l.06,.25c.26,1.2-.5,2.38-1.7,2.64l-2.58,.56c-.16,.03-.32,.05-.48,.05Z"/><path class="cls-2" d="M24.55,8.44c-.66,0-1.3-.3-1.72-.82-.45-.55-.61-1.29-.42-1.98l1.06-3.92c.25-.92,1.06-1.58,2.01-1.64l.84-.05c.95-.06,1.84,.5,2.19,1.39l1.52,3.77c.27,.66,.2,1.41-.18,2.02s-1.03,.99-1.75,1.03l-.62,.04c-.39,.02-.77-.06-1.1-.22-.31,.2-.68,.33-1.07,.35l-.62,.04s-.09,0-.13,0Z"/><path class="cls-2" d="M30.92,8.5c-.07,0-.13,0-.2,0l-2.65-.23c-1.22-.11-2.12-1.19-2.02-2.41l.34-3.83c.11-1.22,1.19-2.13,2.41-2.02l.58,.05c.59,.05,1.13,.33,1.51,.79s.56,1.03,.51,1.62l-.12,1.36c.53,.08,1.02,.35,1.37,.77,.38,.45,.56,1.04,.51,1.62l-.02,.26c-.1,1.15-1.07,2.02-2.21,2.02Z"/><path class="cls-2" d="M32.83,8.94c-.17,0-.34-.02-.51-.06l-.56-.13c-1.19-.28-1.93-1.48-1.65-2.67l.37-1.55c-.19-.16-.35-.34-.48-.55-.31-.5-.4-1.11-.26-1.68l.06-.25c.29-1.19,1.48-1.92,2.67-1.64l2.98,.71c1.19,.28,1.93,1.48,1.65,2.67l-.06,.25c-.13,.57-.49,1.07-1,1.38-.21,.13-.44,.22-.68,.28l-.37,1.55c-.14,.57-.49,1.07-1,1.38-.35,.22-.76,.33-1.16,.33Z"/><path class="cls-2" d="M37.19,10.51c-.29,0-.58-.06-.85-.17l-.54-.23c-.32-.13-.59-.33-.8-.57-.33,.01-.66-.04-.97-.17l-.54-.22c-.54-.23-.98-.66-1.2-1.2s-.22-1.16,0-1.7l1.48-3.56c.23-.54,.66-.98,1.2-1.2,.54-.23,1.16-.22,1.7,0l.54,.22c.32,.13,.59,.33,.8,.57,.32-.02,.65,.03,.97,.17l.54,.23c1.13,.47,1.67,1.77,1.2,2.9l-1.48,3.56c-.23,.54-.66,.98-1.2,1.2-.27,.11-.56,.17-.85,.17Z"/><path class="cls-2" d="M41.25,12.92c-.77,0-1.56-.26-2.29-.8-1.91-1.4-2.19-3.7-.7-5.73,1.48-2.01,3.82-2.45,5.69-1.07,1.08,.79,1.44,1.76,1.56,2.43,.15,.93-.07,1.57-.34,2.13-.18,.37-.45,.69-.79,.91-.1,.38-.3,.74-.58,1.03-.74,.73-1.63,1.11-2.55,1.11Zm-.12-4.44c.04,.25,.17,.4,.21,.43,.09,.05,.27,.06,.42,.04-.02-.16-.09-.34-.18-.42-.1-.06-.27-.07-.45-.05Z"/><path class="cls-2" d="M44.08,15.97c-.59,0-1.17-.24-1.59-.67l-.43-.44c-.27-.28-.46-.62-.56-.98-.36-.11-.69-.3-.96-.58l-.43-.44c-.5-.51-.72-1.23-.59-1.94,.12-.7,.58-1.3,1.22-1.61l3.66-1.76c.86-.41,1.89-.23,2.55,.45l.58,.6c.67,.68,.82,1.72,.38,2.57l-1.86,3.61c-.33,.64-.94,1.07-1.65,1.18-.11,.02-.22,.02-.33,.02Z"/><path class="cls-2" d="M45.93,18.57c-.11,0-.23,0-.34-.03-.59-.09-1.12-.42-1.47-.91l-.36-.51c-.17-.24-.29-.51-.35-.78-.23-.15-.44-.35-.61-.59l-.34-.48c-.34-.48-.48-1.08-.38-1.66,.1-.58,.43-1.1,.91-1.44l3.15-2.23c.48-.34,1.08-.47,1.66-.37,.58,.1,1.1,.43,1.44,.91l.99,1.41c.54,.77,.76,1.68,.61,2.55-.14,.84-.61,1.57-1.32,2.07-.29,.2-.61,.36-.94,.46-.37,.44-.79,.76-1.05,.95l-.26,.19c-.39,.29-.86,.45-1.34,.45Z"/><path class="cls-2" d="M47.3,21.26c-.81,0-1.59-.44-1.98-1.22l-1.2-2.36c-.27-.53-.31-1.14-.13-1.7,.18-.56,.58-1.02,1.11-1.29l3.44-1.74c1.09-.55,2.43-.12,2.99,.97l1.17,2.31c.27,.53,.31,1.14,.13,1.7-.18,.56-.58,1.02-1.11,1.29l-.23,.12c-.29,.15-.59,.22-.9,.24-.15,.14-.32,.25-.5,.35l-.23,.12c-.17,.09-.35,.15-.53,.19-.21,.28-.48,.51-.79,.67l-.23,.12c-.32,.16-.66,.24-1,.24Z"/></g><g><path class="cls-4" d="M6.45,17.84l1.62,.82-.26,.52-3.44-1.74,.26-.52,1.58,.8,.87-1.71-1.58-.8,.27-.52,3.44,1.74-.27,.52-1.62-.82-.87,1.71Z"/><path class="cls-4" d="M7.22,12.44c.72-.98,1.75-.74,2.58-.13,.8,.59,1.37,1.51,.64,2.5-.74,1.01-1.8,.71-2.58,.13-.74-.54-1.4-1.46-.64-2.5Zm.22,.16c-.44,.6-.18,1.12,.79,1.84,.98,.72,1.56,.8,1.99,.21,.44-.59,.18-1.12-.8-1.83-.97-.71-1.55-.81-1.99-.21Z"/><path class="cls-4" d="M8.89,10.41l.55-.52,3.23,1.82-1.65-3.32,.56-.53,2.65,2.8-.42,.4-2.34-2.46,1.58,3.18-.34,.32-3.09-1.74,2.34,2.46-.42,.4-2.65-2.8Z"/><path class="cls-4" d="M14.94,9.88l1.71-1.15,.14,.21-2.19,1.48-2.15-3.19,2.14-1.45,.14,.21-1.66,1.12,.84,1.25,1.57-1.06,.14,.21-1.57,1.06,.87,1.29Z"/><path class="cls-4" d="M18.35,6.14l.66,1.7-.54,.21-1.39-3.6,.54-.21,.64,1.65,1.79-.69-.64-1.65,.55-.21,1.39,3.6-.55,.21-.66-1.7-1.79,.69Z"/><path class="cls-4" d="M22.32,6.45l2.01-.44,.05,.25-2.58,.56-.82-3.76,2.52-.55,.05,.25-1.95,.43,.32,1.47,1.84-.4,.05,.25-1.84,.4,.33,1.53Z"/><path class="cls-4" d="M25.42,5.16l-.25,1.02-.62,.04,1.06-3.92,.83-.05,1.52,3.77-.62,.04-.37-.99-1.55,.09Zm1.45-.35l-.82-2.17-.56,2.26,1.38-.08Z"/><path class="cls-4" d="M28.87,5.84l2.07,.18-.02,.26-2.65-.23,.34-3.83,.58,.05-.32,3.57Z"/><path class="cls-4" d="M33.66,3.23l-.83,3.49-.56-.13,.83-3.49-1.21-.29,.06-.25,2.98,.71-.06,.25-1.21-.29Z"/><path class="cls-4" d="M35.57,5.65l-.7,1.68-.54-.22,1.48-3.56,.54,.22-.68,1.64,1.78,.74,.68-1.64,.54,.22-1.48,3.56-.54-.22,.7-1.68-1.78-.74Z"/><path class="cls-4" d="M42.23,10.24c-.77,.77-1.54,.39-1.95,.09-1.11-.82-.78-1.87-.23-2.63,.54-.73,1.46-1.42,2.58-.6,.43,.32,.62,.66,.69,1.01,.05,.3,0,.48-.16,.81l-.5-.36c.22-.44,.33-.87-.22-1.27-.39-.29-.96-.42-1.85,.79-1.03,1.4-.44,1.83-.18,2.02,.36,.26,.81,.33,1.31-.24l.5,.37Z"/><path class="cls-4" d="M43.07,11.26l-.94,.48-.43-.44,3.66-1.76,.58,.6-1.86,3.61-.43-.44,.5-.93-1.08-1.11Zm1.21,.87l1.11-2.04-2.07,1.05,.96,.99Z"/><path class="cls-4" d="M46.01,13.48l-1.41,1-.34-.48,3.15-2.23,.99,1.41c.38,.54,.33,1.17-.17,1.53-.15,.11-.33,.17-.51,.2-.31,.04-.55-.1-.82-.37,.35,.73,.13,1-.71,1.63l-.26,.2-.36-.51,.39-.28c.1-.07,.49-.38,.58-.48,.21-.25,.24-.51,.05-.79l-.58-.82Zm.21-.15l.58,.82c.3,.42,.72,.29,1.06,.05,.27-.19,.57-.53,.24-.99l-.57-.8-1.31,.93Z"/><path class="cls-4" d="M46.59,17.08l.94,1.84-.23,.12-1.2-2.36,3.44-1.74,1.17,2.31-.23,.12-.91-1.79-1.35,.68,.86,1.69-.23,.12-.86-1.69-1.4,.71Z"/></g></g><g><path class="cls-6" d="M212.44,46.43c-.08,.14-.2,.24-.33,.29-.19,.09-.47,.13-.83,.13h-1.47v-1.72h1.64c.29,0,.52,.05,.72,.14,.26,.14,.39,.37,.39,.7,0,.17-.04,.31-.12,.45Zm.35,1.91c-.3-.46-.63-.77-.98-.94v-.02c.97-.12,1.45-.59,1.45-1.4,0-.28-.07-.54-.21-.77-.15-.24-.34-.41-.58-.51-.25-.1-.61-.14-1.06-.14h-2.3v5.2h.69v-2.3h.8c.31,0,.55,.05,.71,.17,.21,.15,.5,.5,.84,1.05l.69,1.08h.87l-.91-1.42"/><path class="cls-6" d="M206.56,47.22c0,2.49,2.03,4.52,4.52,4.52s4.53-2.03,4.53-4.52-2.04-4.53-4.53-4.53-4.52,2.03-4.52,4.53Zm.48,0c0-2.23,1.81-4.04,4.04-4.04s4.05,1.81,4.05,4.04-1.82,4.04-4.05,4.04-4.04-1.82-4.04-4.04"/><path class="cls-6" d="M75.6,4.37h-4.45v-1.73c0-.3-.52-.69-1.15-.69s-1.05,.41-1.05,.69c0,.07,.01,.76,.01,1.73h-5.04c-.15,0-.68,.46-.67,1.12,.03,.67,.52,1,.67,1h5.06c.01,2.47,.02,5.34,0,6.24-.02,.18-.19,.38-.35,.39-.76,.03-1.47-.38-1.87-.19-.38,.18-.66,.31-.66,1.2,0,.57,.3,.91,.82,1.08,.64,.2,1.84,.25,2.42,.25,.84,0,1.8-.8,1.8-2.34V6.49h4.45c.22,0,.63-.59,.63-1.05s-.45-1.08-.63-1.08"/><path class="cls-6" d="M64.73,13.82c-.89,.56-2.34-.4-1.61-1.57,.71-1,2.35-4.15,2.53-4.86,.5-.73,2.29-.44,1.87,1.11-.41,1.56-2.25,4.91-2.79,5.31"/><path class="cls-6" d="M76.45,12.43c.48,1.32-1.21,2.12-1.91,1.11-.42-1.22-1.61-3.63-2.43-5.09-.3-1.56,1.46-1.58,1.73-1.21,.26,.36,2.12,3.9,2.61,5.19"/><path class="cls-6" d="M89.61,8.94c0,.63-.39,1.09-.67,1.09h-10.33c-.22,0-.78-.5-.78-1.08,0-.63,.44-1.12,.73-1.12h10.38c.21,0,.67,.4,.67,1.11"/><path class="cls-6" d="M102.01,13.44c-.07-.3-2.97-5.36-3.42-5.61-.17-.12-.79-.35-1.34,.05-.52,.38-.5,.97-.44,1.06,.04,.1,.81,1.34,1.58,2.68-1.45,.28-3.56,.53-5.55,.76,1.3-2.92,3.01-7.58,3.19-8.68,.07-.7-.46-1.22-.85-1.26-.4-.04-1.08-.02-1.25,.37-.67,2.06-1.67,5.78-3.71,9.8-.52,.04-.92,0-1.24,.18-.3,.13-.46,.79-.39,1.12,.12,.61,.74,.98,1.12,.97,2.47-.11,8.47-.94,9.74-1.25,.3,.54,.56,1.08,.68,1.19,.12,.2,1.02,.47,1.43,.13,.44-.34,.63-.99,.44-1.51"/><path class="cls-6" d="M117.13,12.13c.39,.27,.55,1.1-.08,1.76-.49,.43-1.21,.34-1.59,0-1.98-1.67-6-5.92-7.05-7.2-.66,.74-2.95,4.01-3.2,4.33-.74,.7-1.57,.34-1.8,.1-.21-.23-.62-.97-.08-1.7,1.09-1.21,3.63-4.54,3.82-4.74,.16-.21,.81-.37,1.22-.37s1.12,.25,1.4,.52c2.98,3.52,5.59,5.65,7.36,7.31"/><path class="cls-6" d="M123.64,8.58c0,3.7-1.79,6-3.38,6.88-.39,.18-.97,.1-1.26-.19-.28-.26-.64-1.17-.2-1.63,.68-.59,2.24-1.23,2.64-4.84V3.15c0-.32,.43-.81,1.08-.81,.59,0,1.13,.55,1.13,.9v5.34"/><path class="cls-6" d="M127.35,12.36c1.59-.19,3.31-3.18,3.55-3.94,.17-.34,.81-.53,1.21-.39,.44,.13,.94,.91,.77,1.51-.77,1.99-2.5,4.38-5.38,5.6-1.39,.39-2.39-.38-2.39-1.61V3.15c.01-.35,.55-.84,1.16-.84,.78,0,1.09,.74,1.09,.93V12.36"/><path class="cls-6" d="M146.52,13.3c-.97-1.17-3.1-3.14-4.14-4.08,1.13-1.51,2.04-3.88,2.14-4.24,.1-.38-.02-.68-.02-.99s-.7-1.1-1.54-1.08h-7.64c-.48,0-.77,.67-.77,1.03s.37,1.01,.77,1.01c.28,0,6.86,0,6.86,0-1.44,5.12-7.1,7.37-8.53,8.1-.59,.62-.23,1.35-.08,1.61,.15,.24,.83,.55,1.35,.33,1.31-.65,3.72-1.73,6.02-4,1.28,1.01,3.59,3.63,3.92,4.01,.31,.34,1.21,.04,1.49-.29,.29-.32,.45-1.05,.18-1.42"/><path class="cls-6" d="M159.75,4.51h-7.9c.22-.45,.4-.86,.47-1.21,.15-.78-.54-1.05-.9-1.12-.35-.08-.96,.04-1.18,.52-.77,2.24-2.34,3.76-3.79,4.81-.39,.55-.07,1.22,.12,1.42,.22,.2,.66,.52,1.23,.3,.87-.43,2.12-1.54,2.91-2.68h4.38c-.16,4.16-3.07,6.04-5.7,6.74-.58,.26-.66,1.27-.26,1.65,.41,.39,.75,.52,1.27,.38,1.88-.56,6.63-2.14,6.88-8.77h2.47c.31,0,.7-.58,.7-.93,0-.37-.32-1.1-.7-1.1"/><path class="cls-6" d="M173.02,2.99c-.83,0-10.44,.02-10.8,.02s-.78,.45-.78,1.01,.55,1.05,.94,1.05h9.91c-.14,1.42-1.61,2.62-2.32,3.04-.4,.24-.37,1.39,.08,1.66,.44,.28,.99,.31,1.46-.02,1.05-.7,2.89-2.96,3.1-4.3,.16-.99,.06-.72,.06-1.19s-.83-1.26-1.64-1.26"/><path class="cls-6" d="M163.88,15.25c-.39,.15-1.13,.15-1.33-.14-.21-.29-.69-1.01-.04-1.69,2.98-1.12,4.04-2.37,4.04-6.96,0-.63,.69-.83,1.13-.83s1.08,.41,1.08,.64c.37,6.58-3.08,8.29-4.87,8.98"/><path class="cls-6" d="M183.09,3.36c-4.35,0-7.62,2.73-7.9,6.85-.18,2.43,.88,4.46,2.92,4.49,.15,0,.86-.15,1.15-.32,1.58-.85,3.97-3.77,4.97-9.02,1,.25,2.89,1.27,2.89,4.02,0,2.98-3.05,3.83-4.37,4.12-.97,.46-.74,2.31,1.05,2.03,2.14-.51,5.46-1.63,5.46-6.77,0-2.91-2.62-5.4-6.17-5.4Zm-5.11,9c-.8-.34-1.46-1.94-.1-4.31,1.13-1.98,3.55-2.76,4.27-2.75-.77,3.37-2.55,6.93-4.17,7.06"/><path class="cls-6" d="M203.62,3.08h-4.52v-.48c0-.34-.62-.58-1.04-.58s-1.08,.27-1.08,.58v.48h-3.74c-1.27,0-1.46,.85-1.46,1.34s.24,7.83-.77,9.84c-.21,.47,.16,1.2,.49,1.33,.34,.14,1.05,.28,1.37-.24,1.2-1.92,1.01-10.41,1.01-10.41h9.72c.21,0,.63-.41,.63-.86,0-.53-.3-1-.6-1"/><path class="cls-6" d="M203.79,6.27c-.25,0-2.71,0-4.49,0,0-.33-.08-.54-.08-.58,0-.3-.65-.61-.98-.61-.5,0-1.03,.39-1.03,.61v3.58h-1.85c-.61,0-1.25,.44-1.25,.98v4.25c0,.47,.52,.91,1.33,.91h7.17c.66,0,1.14-.64,1.14-1.07v-3.72c0-.65-.33-1.35-1.09-1.35h-3.44v-1.16h4.63c.37,0,.71-.58,.71-.92,0-.44-.36-.92-.77-.92Zm-1.99,7.09c0,.08-.06,.15-.12,.15h-5.57c-.09,0-.14-.06-.14-.15v-2.11c0-.07,.05-.14,.14-.14h5.57c.06,0,.12,.06,.12,.14v2.11"/><path class="cls-6" d="M71.9,49.41c0-.39,.13-.92,.56-1.27,1.19-1.18,2.07-1.89,2.84-2.99-.12-.17-.36-.3-.47-.47-1.48-2.33-1.77-2.75-2.94-5.98-.39-1.24,.39-2.4,1.42-2.91,1.2-.7,3.37-.16,3.68,.63,.65,1.81,.76,2.14,1.06,2.88,.25-1.86,.09-.64,.41-4.35l-2.83-.03c-1.55-.18-2.55-1.3-2.7-2.25,0-.43-.07-1.44,.19-1.95,1.61-3.35,2.04-3.45,2.72-4.89,.24-.5,.62-1.3,.68-1.36h-.76c-1.14,0-2.43-.42-2.43-2.79,0-1.76,1.01-2.56,2.56-2.56h4.24c2.73,0,3.49,1.44,3.67,2.69,0,1.42-.76,2.78-1.18,3.68-.5,1.12-.92,1.84-1.89,3.74-.08,.17-.28,.36-.28,.51l.76,.02c.33,0,4.19,0,3.45,5.1-.62,4.2-.83,4.89-1.46,7.29-.23,.74-.58,1.52-.84,2.32,.89,.91,2.67,1.46,4.71,1.92,.84,.05,1.43,.08,2.04,.1v-1.52h-3.22c-1.46,0-2.25-.92-2.25-2.42,0-.91,.58-2.04,1.99-2.18h3.48v-.99h-2.84c-1.23,0-1.65-1.23-1.7-2.07,.04-.94,.63-2.07,1.71-2.1h2.82v-.92h-2.09c-1.52,0-2.23-1.17-2.23-2.08s.65-2.12,2.16-2.12h2.16v-.95h-3.79c-1.32,0-2.01-1.36-2.01-2.3,.03-.93,.72-2.16,2.07-2.16h3.74v-.91h-2.16c-1.4-.02-2.23-.76-2.23-2.22,0-.95,.69-2.04,2.23-2.04h2.15c.09-1.27,1.67-1.78,2.86-1.78,1.1,.03,3.07,.13,3.16,1.73h2.91c2.6,0,3.77,1.26,3.77,3.06l.06,2.15h.24c1.01,.03,1.63,1.29,1.63,2.01,0,1.05-.46,2.29-1.47,2.38h-.34v1.88c0,1.9-1.05,3.27-3.19,3.27l-3.62,.06v.92h5.09c1.2,0,1.92,1.07,1.92,2.12,0,.98-.6,1.96-1.59,2.05h-5.41v.99h5.96c1.09,0,1.95,1.02,1.95,2.26s-.69,2.16-1.72,2.29l-6.19,.05v1.4l6.38-.13c1.61,0,2.33,1.43,2.33,2.7s-.93,2.75-2.16,2.75l-7.35,.14c-5.38-.11-8.25,.08-11.53-1.18-1.26-.61-2.18-.78-3.16-1.51-.81,1.1-1.74,2.03-2.85,3.1-.54,.3-1.28,.28-1.64,.3-1.37-.08-3.24-1.52-3.24-3.14m23.2-19.37h1.68v-.89h-1.68v.89Zm0-5.34h1.78l-.03-.91h-1.76v.91m-29.72,26.08v-15.14c-2.01-.27-2.93-1.64-2.93-2.47,0-.31-.09-1.33,.31-1.92,1.09-2.01,1.34-2.49,2.29-4.86,.76-1.87,1.44-3.66,2.27-7.35,.19-.81,1.49-1.32,2.81-1.28,1.2,0,3.24,.62,3.48,1.8-.59,3.18-1.26,4.33-1.93,6.49v24.84c-.18,1.16-1.85,1.72-3.15,1.72s-3.15-.67-3.15-1.83"/><path class="cls-6" d="M147.18,39.01c3.35,0,4.35-1.3,4.35-4.24v-.78h1.38s1.52-.29,1.52-2.05-1.62-2.2-1.92-2.2h-.98v-2.26c0-1.42-1.58-2.55-3.62-2.55h-8.16l-.05-.66h12.69c.22,0,2.03-.69,2.03-2.25s-1.31-2.47-2.32-2.47h-13.69c0-1.32-1.8-1.87-3.45-1.87-.48,0-.83,.04-1.15,.04-1.48,0-2.85,.63-2.85,1.83h-9.06s0,0-.08,0h-2.27c-3.17,0-4.53,1.65-4.53,3.39,0,1.57,.06,21.28-1.78,25.4-.6,1.45,.02,2.92,1.38,3.68,1.34,.78,3.73,.59,4.45-.14,.79-.83,1.06-1.97,1.43-3.67,.48,.96,.85,2.19,2.96,2.19,.74-.12,2.95-1.07,4.94-2-.13,.35-.26,1.03-.35,1.56,0,2.75,3.8,2.49,6.88,2.57,3.76,0,4.76-2.32,4.76-5.33,0-.51,.04-1.16,.04-1.74,2.35,1.88,7.62,5.4,11.19,6.48,2.04,.83,5.01-2.76,2.59-4.7-1.31-.76-3.09-1.44-4.74-2.33,1.09-.56,2.21-1.28,2.71-1.63,2.13-1.73-1.12-4.66-3.11-4.11-2.25,1.34-3.27,2.11-4.36,2.82-1.72-1.05-3.11-2.08-3.75-2.97h6.92Zm-14.06,7.47s-.12,.69-.61,.69c-.19,0-.59-.06-.96-.14,.26-.18,.52-.35,.69-.52,1.53-1.04,.44-3.28-1.11-3.78,.42-1.15,.24-2.34-.75-2.79-.84-.41-2.65-.61-3.57-.97h6.36l-.02,5.98-.03,1.54Zm.03-11.78h-9.2s-1.63,.5-1.63,2.02c0,1.41,.7,1.71,1.13,2.09-1.1,.43-1.94,2.55-.76,3.55,1,.5,3.06,.83,4.9,1.26-2.47,.93-5.3,1.61-6.62,2.58,.74-5.38,.87-12.19,.87-12.19h11.32v.7Zm-.06-9.76h-8.52c-.59,0-2.18,.33-2.18,2.02s1.66,2.15,2.18,2.15h8.52v.64h-11.26v-5.43h11.26v.61Zm6.67,4.17h5.66v.64h-5.66v-.64Zm0,4.89h5.66v.7h-5.66v-.7Z"/><path class="cls-6" d="M199.92,19.75h-3.42v-.55c0-.26-.66-1.44-3.72-1.44s-3.55,1.21-3.55,1.57v.45h-3.87c-2.5,0-3.88,.85-3.88,2.44-2.02-1.6-5.03-4.44-7.74-4.44-3.82,0-3.17,2.06-9.74,5.97-1.81,2.1,.16,4.51,1.93,5.11-.59,.68-.74,1.22-.74,2.66v15.47c-.27,.07-.52,.1-.58,.15-.48,.39-1.71,1.48-.78,3.52,.9,2.03,2.39,1.97,3.38,1.91,.76-.06,6.84-1.51,9.58-2.16,.24,.55,.44,1.12,.52,1.24,.25,.57,1.93,1.67,3.89,.72,1.98-.95,2.07-1.65,1.98-2.66-.03-.77-2.25-4.73-3.52-6.6,1.51-.24,2.61-1.75,2.61-2.99v-9.22c0-.8-.63-1.89-1.53-2.6,.34-.16,.72-.29,1.18-.53,.28,.33,.81,.57,1.35,.57v20.47c0,1.95,1.4,3.24,3.61,3.24,1.25,0,12.19-.03,13.65-.03s3.43-.79,3.43-3.05v-7.05c0-1.51-.68-3.02-3.22-3.02h-10.87v-1.18s7.46,.03,9.2,.03c2.72,0,3.85-1.62,3.85-2.81v-6.64c1.13-.15,1.75-.82,1.75-1.38v-4.47c0-.97-.98-2.68-3.09-2.68l-1.65-.03Zm-25.06,23.98c-.78,.65-.5,1.55-.39,1.77-.98,.13-1.98,.45-3.06,.61v-2.9c1.48,0,2.79,.04,4.1,.04-.31,.16-.43,.3-.65,.48Zm-3.45-6.23h4.8v.92h-4.8v-.92Zm-.03-4.97h4.8v.88h-4.8v-.88Zm5.45-4.71v-.91c0-1.58-2.28-1.81-3.02-1.81s-2.84,.39-2.84,1.65v1.07h-2.01c1.84-1.41,4.46-3.84,4.84-4.24,1.98,1.17,3.78,3.1,5.04,4.24h-2.02Zm13.04,16.28h7.58v2.7h-7.58v-2.7Zm0-13.12h6.49v1.64h-6.49v-1.64Zm-2.33-6.09h10.85v.98h-10.85v-.98Z"/></g></g></g></svg>