<?xml version="1.0" encoding="UTF-8"?><svg id="_イヤー_2" xmlns="http://www.w3.org/2000/svg" viewBox="0 0 220 26.42"><defs><style>.cls-1{fill:#fff;}.cls-2{fill:#c61f1e;}.cls-3,.cls-4{fill:#1d2087;}.cls-4{fill-rule:evenodd;}</style></defs><g id="main"><g><path class="cls-1" d="M37.17,6.14l-10.56,.03,.55-3.51c.2-1.32-.71-2.39-2.04-2.39h-6.75c-1.33,0-2.59,1.08-2.78,2.39l-.53,3.54-10.56,.03c-1.33,0-2.6,1.08-2.81,2.39L.3,17.74c-.22,1.32,.69,2.39,2.03,2.39l10.64-.03-.54,3.56c-.2,1.32,.73,2.4,2.07,2.4h6.55c1.34,0,2.6-1.08,2.8-2.4l.57-3.61,10.54-.04c1.33,0,2.59-1.08,2.79-2.39l1.49-9.08c.2-1.32-.73-2.39-2.07-2.39Z"/><path class="cls-3" d="M21.05,26.33h-6.55c-.73,0-1.37-.28-1.81-.8-.44-.51-.63-1.19-.52-1.91l.49-3.25-10.33,.03c-.73,0-1.37-.28-1.8-.79-.44-.51-.61-1.19-.49-1.91L1.42,8.59c.24-1.44,1.62-2.62,3.08-2.62l10.32-.03,.5-3.32c.22-1.45,1.59-2.62,3.05-2.62h6.75c.72,0,1.36,.28,1.8,.79,.44,.51,.62,1.19,.51,1.91l-.5,3.2,10.24-.03c.72,0,1.37,.28,1.81,.79,.44,.51,.63,1.19,.52,1.91l-1.49,9.09c-.22,1.44-1.59,2.62-3.05,2.62l-10.31,.04-.53,3.38c-.22,1.45-1.6,2.63-3.07,2.63Zm-7.76-6.5l-.58,3.87c-.08,.56,.06,1.08,.4,1.48,.34,.39,.84,.61,1.41,.61h6.55c1.21,0,2.35-.97,2.53-2.17l.6-3.83,10.77-.04c1.21,0,2.34-.97,2.52-2.16l1.49-9.08c.08-.55-.06-1.08-.4-1.47s-.82-.59-1.4-.61l-10.87,.03,.6-3.82c.09-.56-.05-1.08-.39-1.48-.33-.39-.83-.6-1.39-.6h-6.75c-1.19,0-2.34,.99-2.52,2.16l-.57,3.77-10.79,.04c-1.21,0-2.35,.98-2.55,2.17L.57,17.78c-.09,.56,.04,1.09,.37,1.48,.33,.39,.82,.6,1.39,.6l10.96-.04Z"/><path class="cls-2" d="M11.47,11.5l-.14,.98h-1.91l.14-.98h1.91m-.49,2.91h-1.84l.13-.98h1.87l-.16,.98Zm-5.81-.98h2.12l-.16,.98h-2.12l.16-.98Zm.33-1.93h2.11l-.16,.98h-2.12l.17-.98Zm8.42-1.76l.15-.95h-4.12l.18-1.23h-1.87l-.2,1.23H3.51l-.22,.95H7.9l-.12,.77h-3.24c-.26,0-.85,.16-.99,.67l-.68,4.24h2.31c-.28,.52-1.1,1.73-2.9,1.92l-.2,1.37c2.65,.34,4.23-1.67,4.76-2.49l-.43,2.6h2.1l.38-2.66c.51,1.11,1.6,2.6,3.73,2.6l.16-1.57c-1.81-.46-2.32-1.28-2.47-1.78h2.33s.52-3.57,.54-3.71c.02-.14,.2-1.1-.73-1.2h-2.74l.12-.77h4.1Z"/><path class="cls-2" d="M16.97,10.87l.33-1.86h5.77c.25,0,.19,.23,.19,.23l-.27,1.63h-6.02m2.67,2.46l-3.11,.04,.31-1.38h2.03l.77,1.35Zm1.41,2.77c-.13,.03-4.97,.9-4.97,.9,0,0-.19,.03-.16-.12,.03-.15,.43-2.46,.43-2.46l3.89-.04,.91,1.58s.04,.12-.09,.14Zm3.61-4.12s.28-1.91,.36-2.39c.08-.48,.07-1.59-1.14-1.59H15.49s-1.47,8.9-1.53,9.17c-.13,1.4,.87,1.6,1.72,1.45,.44-.07,6.32-1.16,6.32-1.16l.56,.98h2.1l-2.42-4.09,2.08-.02,.12-1.05-2.82,.03-.78-1.33h3.83Z"/><path class="cls-2" d="M30.49,8.5h1.79c.08,0,.08,.11,.07,.13-.01,.02-.37,.61-.54,.9h-2.3c.59-.58,.98-1.03,.98-1.03m4.62,1.03h-1.35c.11-.17,.27-.46,.38-.69,.21-.47,.08-1.26-.63-1.26h-3.63c-.28,0-.49,.07-.65,.22-.17,.16-1.17,1.41-2.71,2.36l-.15,1.57c.71-.25,1.43-.72,2.06-1.23h5.61l-.14,1.03h-6.63l-.09,.84h6.6l-.14,1.04h-7.06l-.12,.92h9.05l.03-.2s.38-3.03,.44-3.46c.05-.43-.12-1.13-.85-1.13Z"/><path class="cls-2" d="M32,16.05c0,.61-.49,1.1-1.1,1.1s-1.1-.49-1.1-1.1,.49-1.09,1.1-1.09,1.1,.49,1.1,1.09"/><path class="cls-2" d="M25.12,18.62l.29-2.19c.26-.21,.99-1.34,.9-1.34-.1,0,1.16,0,1.39,0-.21,.75-1.24,3.04-2.57,3.53"/><path class="cls-2" d="M36.24,18.46s-1.29-3.51-1.26-3.51c.04,0-1.54,0-1.63,0-.02,0,.05,.24,.16,.59h-1.14s-.19,1.51-.2,1.54c0,.04-.12,.48-.26,.48h-2.33c-.2,0-.21-.33-.2-.44,.01-.11,.23-2.04,.23-2.04h-1.69s-.29,2-.35,2.48c-.07,.47,.18,.98,.74,.98h4.59c.58,0,.86-.5,.92-.75,.01-.1,.09-.47,.17-.88,.29,.81,.56,1.55,.56,1.55h1.7"/><path class="cls-3" d="M34.92,24.15c0-.17-.37-.59-.5-.63,.26-.06,.48-.27,.48-.75,0-.16-.04-.31-.12-.45-.09-.15-.2-.24-.34-.3-.15-.05-.35-.08-.62-.08h-1.46v3.14h.53v-1.37h.46c.18,0,.47-.03,.65,.04,.18,.09,.41,.31,.41,.6v.72h.51s.02-.76,.02-.93m-.51-1.02c-.06,.08-.11,.14-.19,.18-.11,.05-.28,.07-.48,.07h-.86v-1.02h.96c.17,0,.3,.02,.41,.08,.16,.09,.23,.23,.23,.43,0,.09-.03,.18-.07,.26Z"/><path class="cls-3" d="M31.34,23.5c0-1.26,1.03-2.27,2.28-2.27s2.28,1.01,2.28,2.27-1.02,2.26-2.28,2.26-2.28-1.02-2.28-2.26m-.39,0c0,1.47,1.2,2.66,2.68,2.66s2.68-1.2,2.68-2.66-1.2-2.67-2.68-2.67-2.68,1.19-2.68,2.67Z"/><path class="cls-3" d="M218.34,23.99c0-.2-.45-.71-.6-.76,.31-.08,.57-.33,.57-.9,0-.2-.04-.37-.14-.54-.11-.18-.25-.29-.42-.36-.17-.07-.43-.1-.75-.1h-1.76v3.79h.64v-1.65h.55c.22,0,.56-.04,.79,.05,.22,.1,.49,.38,.49,.73v.87h.61s.02-.92,.02-1.12m-.61-1.23c-.07,.1-.14,.17-.23,.21-.13,.06-.34,.09-.58,.09h-1.03v-1.23h1.16c.2,0,.37,.02,.5,.1,.19,.1,.28,.27,.28,.52,0,.11-.03,.21-.09,.31Z"/><path class="cls-3" d="M214.02,23.21c0-1.51,1.24-2.74,2.75-2.74s2.75,1.22,2.75,2.74-1.23,2.73-2.75,2.73-2.75-1.23-2.75-2.73m-.48,0c0,1.77,1.45,3.21,3.23,3.21s3.22-1.44,3.22-3.21-1.44-3.22-3.22-3.22-3.23,1.44-3.23,3.22Z"/><path class="cls-3" d="M80.19,1.25c-.05-.23-.16-.62-.29-.94l-.59,.09c.15,.38,.22,.66,.28,.95l.6-.1Zm-5.51,2.56c.28-.17,.9-.52,1.59-1.4h2.16c-.64,2.33-2.24,2.84-3.92,3.06l.43,1c1.67-.29,3.03-.76,4.03-2.56,.41-.73,.65-1.55,.75-2.38l-1.19,.19s-.04-.24-.04-.29h-1.58c.17-.32,.25-.52,.35-.77l-1.14-.13c-.31,.9-.92,1.9-2.1,2.49l.68,.79Zm4.62-2.43c-.08-.33-.17-.67-.31-.99l-.59,.09c.08,.21,.24,.82,.27,1.01l.62-.11Z"/><path class="cls-3" d="M83.04,2.45c0,.74-.06,1.47-.21,2.19-.15,.72-.46,1.42-1,1.92l-.84-.86c.23-.22,.65-.62,.81-1.49,.05-.28,.16-.94,.16-1.64V.9h1.07v1.55Zm1.81,2.58c.22-.07,.63-.21,1.01-.87,.32-.55,.4-1.14,.45-1.43l1,.48c-.17,.84-.51,1.65-1.14,2.24-.91,.84-1.96,.89-2.38,.91V.69h1.06V5.03Z"/><rect class="cls-3" x="89.22" y="2.78" width="6.04" height="1.14"/><path class="cls-3" d="M103.09,1.03c0-.41-.33-.74-.75-.74s-.75,.33-.75,.74,.33,.75,.75,.75,.75-.33,.75-.75m-5.91-.03v1.05h4.1c-.21,1.61-.94,2.96-3.67,3.35l.51,1.01c3.47-.71,4.11-2.81,4.31-4.42-.52,0-1.03-.2-1.06-.99h-4.19Zm5.47,.03c0,.18-.14,.31-.31,.31s-.31-.14-.31-.31c0-.16,.14-.31,.31-.31s.31,.14,.31,.31"/><path class="cls-3" d="M44.26,4.11v-1.69h-.98v-.74h.98V.58h1.54V1.68h3.16s1.64-.13,1.64,1.3-1.78,1.3-1.99,1.3h-1.41v-.71h1.07s.77-.03,.77-.59c0-.59-.84-.55-.9-.56-.06,0-2.33,0-2.33,0v1.69c0,1.2,1.14,1.55,1.56,1.55h3v.79h-3.39s-1.45,.04-2.06-.53c-.53-.5-.65-1.11-.65-1.8"/><path class="cls-3" d="M50.92,4.67V.83h1.45v3.18c0,.48-.01,1.48,.74,1.48,.62,0,1.14-.5,1.7-.99,.55-.48,1.38-1.51,1.38-1.51h1.7c-.34,.5-1.04,1.35-1.85,2.09-.77,.71-1.39,1.42-3.18,1.42-.96,0-1.94-.44-1.94-1.82"/><path class="cls-4" d="M60.07,4.39v-.73h-2v-.66h2V1.73h-2V.96h7.1v.77h-3.69v1.27h3.69v.66h-3.69v.8c0,.43,.09,.68,.29,.86,.25,.23,.65,.41,1.17,.41h1.87v.75h-2.25c-1.08,0-1.46-.1-1.88-.48-.49-.44-.61-.87-.61-1.62"/><path class="cls-4" d="M67.65,2.99h2.33c.32,0,1.12,.09,1.12-.63,0-.68-.91-.66-1.29-.66h-4.3V.94h5.66c.61,0,1.45,.41,1.45,1.39,0,1.52-1.33,1.35-1.66,1.35s-1.17,0-1.88,0c0,.57,.07,1.51-.5,2.11-.55,.58-1.01,.7-1.73,.7h-1.35v-.76h.63c.2,0,.8,0,1.14-.41,.37-.44,.38-.9,.38-1.4v-.92Z"/><rect class="cls-3" x="104.88" y="3.54" width="30.15" height=".59"/><path class="cls-3" d="M59.1,10.48s-5.94-.02-6.06-.02c-.14,0-.3-.29-.3-.29l.18-1.29c.01-.12-.08-.22-.2-.22l-2.7,.04c-.12,0-.23,.1-.25,.21l-.4,1.32s-.07,.26-.26,.26c-.21,0-6.34,.05-6.34,.05-.12,0-.24,.09-.28,.2l-.25,1.16c-.02,.12,.22,.32,.32,.32l6.07,.02s.33,.08,.36,.18c.04,.1-.04,.38-.1,.44-.03,.07-.23,.18-.32,.18-2.6,0-4.45,.04-4.78,.04-.64,0-1.43,.91-1.43,1.42l-.98,5.7c-.02,.12,.11,.38,.25,.38,0,0,2.57,.06,2.68,.06s.17,.1,.17,.1c.04,.46-1.1,2.23-3.84,2.61-.04,.09-.29,.19-.33,.28-.14,.45-.21,1.22-.25,1.65-.02,.22,0,.37,.12,.42,3.39,.32,5.24-1.33,6.71-2.93,.08-.08,.34-.2,.34-.04,0,.15-.38,2.82-.38,2.82-.03,.12,.07,.21,.18,.21h2.75c.14,0,.23-.09,.27-.21,0,0,.59-2.92,.64-3.11,.05-.18,.21-.21,.29-.18,1.37,1.97,2.97,3.48,5.44,3.55,.32-.07,.37-.25,.43-.51,.12-.41,.25-1.07,.27-1.52,0-.21,.02-.43-.14-.54-2.62-.64-3.56-1.81-3.77-2.51,0,0,.06-.11,.26-.13,.19-.02,3.22-.05,3.22-.05,.11,0,.23-.14,.25-.26l.9-5.06c.23-1.65-1.03-2.2-2.2-2.2h-3.1c-.13-.03-.21-.26-.21-.26l.08-.37s.12-.17,.19-.17c.08,0,6.22-.1,6.22-.1,.12,0,.23-.09,.28-.21l.15-1.21c.05-.12-.04-.21-.17-.21Zm-13.69,4.41c.02-.12,.2-.26,.34-.26,0,0,2.33,.02,2.53,.02s.33,.33,.33,.33l-.09,.7s-.16,.33-.41,.33-2.65-.05-2.65-.05c-.14,0-.21-.09-.2-.2l.14-.86Zm2.21,4.1h-2.57c-.13,0-.31-.23-.31-.34l.14-.79c.02-.11,.25-.33,.37-.33h2.49c.29,0,.4,.33,.4,.33l-.14,.93s-.15,.19-.38,.19Zm6.69-.29c-.02,.11-.27,.3-.41,.3,0,0-1.76-.01-2.12-.01-.34,0-.45-.34-.45-.34l.14-.87s.15-.25,.38-.25,2.37,.02,2.37,.02c.13,0,.23,.1,.2,.24l-.11,.91Zm-1.82-4.08h2.09c.12,0,.36,.17,.34,.29l-.08,.69c-.01,.12-.21,.34-.34,.34h-2.34c-.19,0-.31-.34-.31-.34l.12-.74s.15-.25,.52-.25Z"/><path class="cls-3" d="M93.37,8.9l-13.49,.04c-.14,0-.26,.11-.28,.22l-2.47,13.58c-.33,2.39,.77,3.11,2.7,2.88,1.88-.24,8.57-1.45,10.14-1.72,.18-.02,.97,1.47,.97,1.47,.06,.1,.23,.22,.35,.22h2.89c.14,0,.2-.09,.14-.21l-3.49-6.01s.02-.27,.17-.27c.17,0,2.82-.05,2.82-.05,.14,0,.27-.1,.29-.24l.21-1.38c.02-.11-.05-.21-.2-.21h-4.5c-.1,0-.27-.18-.27-.18,0,0-.58-.84-.74-1.27-.18-.42,.21-.51,.21-.51h5.69c.13,0,.25-.11,.26-.24l.69-3.87c.17-1.57-.67-2.26-2.12-2.26Zm-4.88,12.61c-.26,.36-7.77,1.32-7.77,1.32-.11,.02-.36-.19-.34-.33,0,0,.45-3.18,.7-3.36,.19-.15,5.8-.1,6.06,0,.23,.08,1.51,2.17,1.35,2.37Zm-2.62-4.38c-.51,.1-4.27,.26-4.41-.08-.16-.15,.21-1.56,.21-1.56,.03-.13,.14-.22,.27-.22,0,0,2.86-.03,3.02,.03,.18,.06,1.19,1.46,.92,1.83Zm6.06-4.12c-.01,.14-.4,.39-.53,.39l-9.07-.08c-.13,0-.27-.24-.25-.35l.32-2.03c.03-.12,.37-.3,.48-.3h8.95c.11,0,.38,.24,.37,.35l-.28,2.03Z"/><g><path class="cls-3" d="M71.27,10.77c-.11,0-.27-.21-.25-.31l.2-1.63c.01-.11-.06-.18-.16-.18h-2.88c-.1,0-.21,.07-.23,.18l-.4,1.77c-.02,.11-.19,.24-.28,.24l-6.34,.02c-.11,0-.22,.08-.22,.17l-.24,1.34c-.02,.09,.18,.22,.29,.22h16.38c.11,0,.19-.07,.21-.19l.25-1.39c.03-.1-.05-.17-.17-.17l-6.15-.06Z"/><path class="cls-3" d="M73.98,13.71h-11.48c-1.25,0-1.62,.82-1.84,1.51l-.8,4.47c-.01,.11,.12,.35,.22,.35l5.49,.02c.1,0,.31,.18,.31,.29l-.88,5.04c0,.09,.13,.36,.25,.36h2.79c.12,0,.28-.15,.32-.25l.97-5.28c.01-.1,.11-.18,.21-.18l5.45-.05c.1,0,.21-.08,.21-.18l.69-3.69c.21-1.43-.34-2.42-1.91-2.42Zm-1.47,4.06c-.06,.29-.21,.46-.53,.46h-8.17c-.31,0-.41-.15-.39-.44l.34-1.79c.04-.3,.25-.47,.55-.47h8c.33,0,.52,.17,.46,.47l-.27,1.77Z"/><path class="cls-3" d="M59.5,25.63c-.58,.21-1.35,.13-1.27-.21l.32-1.92c.02-.1,.08-.21,.18-.27,1.6-.42,2.86-1.6,3.37-2.37,.11-.12,.23-.12,.35-.12h2.27c.11,0,.23,.19,.14,.49-.14,.63-2.15,3.97-5.36,4.4Z"/><path class="cls-3" d="M74.95,22.84c.07,.06,.53,.25,.48,.56-.06,.31-.35,1.91-.35,1.91-.1,.37-.63,.17-1.14,0-.52-.15-3.18-1.83-3.69-4.08-.1-.18,.02-.53,.11-.53l2.13,.02c.11,0,.23,.03,.33,.12,.56,1.16,2.13,2.01,2.13,2.01Z"/></g><path class="cls-3" d="M178.68,18.39c-.02,.1-.11,.18-.23,.18l-13.89-.03c-.1,0-.18-.19-.16-.3l.38-1.52c.02-.1,.12-.18,.21-.18l13.86,.06c.11,0,.18,.08,.15,.17l-.32,1.62Z"/><g><path class="cls-3" d="M105.43,9.06l-7.41,.02c-.1,0-.37,.16-.39,.25l-2.9,16c-.02,.09,.09,.31,.17,.31l2.49,.03c.09,0,.33-.08,.33-.17l1.7-9.26c.02-.09,.19-.29,.31-.29l4.27-.02c.11,0,.41-.24,.44-.33l1.14-6.36c.02-.09-.06-.19-.16-.19Zm-3.62,5.05c-.02,.1-.12,.17-.24,.17h-1.48c-.11,0-.24-.21-.22-.31l.11-.43c.03-.1,.18-.21,.28-.21l1.42,.05c.11,0,.25,.15,.22,.24l-.09,.49Zm.54-2.73c-.02,.11-.17,.3-.29,.3l-1.51,.04c-.1,0-.28-.21-.25-.3l.16-.58c.02-.11,.12-.18,.22-.18h1.52c.1,0,.17,.07,.16,.18v.55Z"/><path class="cls-3" d="M112.77,8.95l-5.88,.04c-.11,0-.29,.15-.31,.25,0,0-1.14,5.54-1.15,6.4,0,.13,.15,.26,.27,.26h4.3c.09,0,.23,.3,.2,.39l-1.26,7.4c-.01,.09-.23,.27-.35,.27l-1.47,.02c-.11,0-.19,.16-.17,.27l.43,1.23c.02,.09,.14,.18,.23,.18l.69,.05h1.59c1.34,0,1.82-.84,2-1.36l2.38-13.58c.13-.97-.53-1.82-1.49-1.82Zm-2.23,5.14c-.01,.1-.21,.2-.32,.2h-1.58c-.1,0-.28-.23-.28-.32l.06-.31c.02-.1,.22-.31,.31-.31l1.63,.02c.1,0,.32,.15,.31,.26l-.12,.47Zm.57-2.71c-.02,.11-.26,.31-.37,.31l-1.55,.04c-.1,0-.37-.12-.35-.21l.02-.57c.04-.11,.26-.36,.36-.36l1.54,.03c.13,0,.4,.15,.37,.25l-.03,.52Z"/><path class="cls-3" d="M107.47,16.39h-7.01c-.31,.01-.44,.27-.5,.56l-1.03,5.95c-.04,.28,.1,.56,.4,.56h8.07c.3,0,.58-.17,.61-.48l.83-4.68c.15-1-.57-1.91-1.37-1.91Zm-2.09,5.08c-.01,.19-.15,.25-.35,.25l-2.73-.02c-.2,0-.35-.16-.33-.35l.02-.23c.04-.21,.31-.29,.51-.29l2.61,.02c.2,0,.35,.11,.32,.29l-.06,.32Zm.49-2.59c-.07,.29-.29,.41-.6,.41h-2.37c-.31,0-.58-.14-.54-.43l.07-.29c.05-.28,.31-.39,.62-.39l2.38-.04c.31,0,.56,.14,.52,.42l-.08,.31Z"/></g><path class="cls-3" d="M166.32,12.66c.01-.1-.04-.18-.14-.18h-1.89c-.1,0-.25-.33-.23-.42l.44-2.66c0-.09,.02-.24,.05-.32,0-.1-.3-.15-.4-.15l-2.16,.02c-.1,0-.28,.04-.37,.05,0,0-.16,.04-.26,.51-.15,.79-.4,2.6-.4,2.6,0,.12-.23,.37-.35,.37h-4.97c-.09,0-.33-.15-.3-.25l.5-3.11c.02-.09-.05-.17-.15-.17h-2.68c-.1,0-.2,.17-.21,.27l-.7,3.07c-.02,.09-.12,.19-.21,.19l-1.51,.07c-.09,0-.18,.07-.2,.18l-.26,1.42c0,.09,.13,.25,.23,.25l1.24,.02c.12,0,.33,.14,.3,.23l-.55,3.23c-.02,.1,.01,.46,.13,.46h2.71c.09,0,.2-.08,.21-.18l.74-3.51c.02-.09,.29-.32,.4-.32h4.65c.11,0,.45,.2,.43,.34-.58,7.67-4.79,8.66-6.53,9.21-.16,.03-.42,.12-.48,.66l-.12,.75c-.02,.1,.03,.25,.13,.27,0,0,.51,.04,1.02,.04,7.7-1.24,8.49-6.44,9.06-10.92,.06-.07,.34-.33,.46-.33h1.81c.1,0,.29-.07,.32-.18l.25-1.5Z"/><g><path class="cls-3" d="M195.54,15.22c.09-.01,.21-.1,.23-.21l.33-2.39c.03-.08-.04-.15-.14-.13,0,0-8.17,2.53-12.09,2.95-.31,.06-.45-.11-.42-.48l.89-5.15c.02-.09-.06-.19-.16-.19l-2.6,.06c-.12-.02-.21,.06-.24,.15,0,0-1.68,9.18-2.12,12.01-.29,1.23,.89,3.65,3.23,3.65l11.25,.06c.12,0,.24-.14,.24-.23l.42-2.17c0-.11-.08-.19-.19-.17,0,0-7.19,.6-10.98,.42-.66,0-1.12-.48-1.04-1.13l.81-4.6c.03-.1,.2-.32,.41-.35,2.92-.02,12.18-2.11,12.18-2.11Z"/><path class="cls-3" d="M190.5,10.74c0,.72,.6,1.3,1.36,1.3s1.4-.58,1.4-1.3-.57-1.29-1.4-1.29c-.76,0-1.36,.58-1.36,1.29Z"/><path class="cls-3" d="M193.54,10.71c0,.56,.66,1.27,1.41,1.27s1.36-.52,1.36-1.23c0-.85-.61-1.29-1.36-1.29-.89,0-1.41,.73-1.41,1.26Z"/></g><path class="cls-3" d="M211.26,12.38c.82-2.14-.58-2.84-2.63-2.82l-10.03-.03c-.12,0-.52,.07-.54,.17l-.28,1.49c-.02,.1,.37,.18,.46,.18h9.6c.12,0,.35,.24,.27,.31,0,0-5.94,10.88-12.3,11.84-.74,.12-.69,.55-.72,.64l-.17,1.11c0,.1,.08,.33,.33,.29,5.47-.63,8.97-5.17,10.22-6.01,.1-.1,.39,.04,.43,.12l3.65,5.82c.04,.11,.17,.17,.27,.17h2.9c.12,0,.28-.23,.16-.42l-5.32-7.41c-.05-.09-.11-.42-.05-.52l3.72-4.91Z"/><g><path class="cls-3" d="M124.35,10.51c-.03,.1-.22,.23-.33,.23h-1.76c-.1,0-.29-.23-.27-.32l.29-1.25c.02-.09,.28-.24,.38-.24h1.69c.09,0,.27,.17,.24,.26l-.24,1.32Z"/><path class="cls-3" d="M124.11,15.13c.06-.07,.07-.2,.02-.29l-1.23-1.57c-.06-.09-.04-.15,.08-.15l.67-.08c.1,0,.22-.07,.24-.17l.21-1.26c.02-.11-.03-.18-.16-.18l-2.37-.08c-.11,0-.17-.08-.15-.18l.25-2.05c.02-.09-.31-.19-.43-.19h-2.24c-.09,0-.2,.1-.21,.19l-.48,2.07c0,.1-.12,.18-.22,.18l-2.24,.09c-.09,0-.21,.08-.23,.18l-.2,1.21c0,.11,.05,.18,.14,.18l2.01,.04c.21,0,.35,.23,.34,.33l-.34,1.54c-.05,.13-.23,.23-.38,.05l-.85-1.26c-.06-.07-.23-.05-.31,.02l-1.35,1.32c-.08,.05-.1,.31-.04,.38l1.37,2.12c.06,.08,.33,.14,.42,.06l.41-.28c.08-.08,.28,0,.26,.11l-.06,.63c-.01,.09-.31,.5-.41,.56l-2.45,1.62c-.07,.07-.15,.17-.18,.27l-.41,2.57c-.04,.21,.17,.27,.32,.19l1.95-1.22c.17-.14,.42-.02,.36,.21l-.27,1.45c0,.09-.19,.17-.3,.17l-1.34,.04c-.1,0-.24,.16-.2,.34l.5,1.2c.02,.11,.14,.18,.24,.18l2.4,.06c.77,0,1.47-.66,1.63-1.08l.84-4.27c.03-.18,.27-.32,.49-.06l1.91,2.21c.06,.08,.17,.11,.25,.02l1.35-1.28c.11-.07,.16-.35,.08-.42l-1.97-2.47c-.08-.07-.08-.21-.02-.28l2.32-2.98Zm-1.56-2.03c.09,0,.14,.16,.07,.24l-1.62,2.05c-.15,.18-.38,.1-.37-.07l.31-1.96c.02-.09,.21-.25,.32-.25h1.29Zm-2.35,4.38c.03-.12,.27-.24,.43-.11l.52,.58c.06,.08,.04,.37-.04,.43l-.88,.87c-.08,.06-.31-.05-.29-.16l.27-1.61Z"/><path class="cls-3" d="M132.36,13.1c.28-.69-.21-2.03-1.36-2.03h-1.5c-.1,0-.25-.24-.19-.35l.35-1.52c.03-.07-.08-.29-.19-.29l-2.08,.03c-.11,0-.23,.06-.26,.15,0,0-.73,4.31-4.41,8.68-.1,.18-.1,.34-.03,.42l1.27,1.32c.06,.08,.29,.04,.34-.06l.87-.78c.05-.1,.25-.11,.31-.03l.46,1.5c.06,.1-.03,.35-.09,.42,0,0-.67,1.26-4.18,2.94-.21,.1-.29,.29-.35,.6l-.2,1.47c-.02,.08,.18,.21,.43,.15,2.76-.41,5.47-2.7,5.47-2.7,.23-.06,.35,.02,.41,.11l2.02,2.26c.06,.09,.3,.03,.31-.05l.51-2.76c.02-.11-.12-.31-.16-.42l-1-1.13c-.04-.1-.02-.24,.04-.32,0,0,2.78-5.18,3.23-7.61Zm-4.62,4.7c-.06,.1-.27,.06-.31-.03l-.39-1.24c-.04-.08-.03-.48,.03-.58l1.41-3.04c.03-.07,.15-.15,.27-.15l.66-.03c.21,.03,.19,.6,.1,.82-.43,1.61-1.3,3.9-1.76,4.25Z"/></g><g><path class="cls-3" d="M147.47,12.02s-1.53,.07-1.76-.14c-.23-.24,.43-.99,.43-.99,.26-.68-.43-1.84-1.09-1.84l-6.28,.02c-.14,0-.29,.05-.41,.16-.88,1.04-3.38,2.96-4.42,3.49-.1,.09-.19,.24-.22,.37l-.31,2.03c-.01,.11,.13,.15,.26,.1,.34-.1,.73-.29,1.13-.5,.06,.08,.1,.06,.06,.31-.06,.27-.08,1.12-.08,1.12-.05,.11,.05,.21,.2,.21l10.04,.11c.14,0,.24,.12,.22,.23l-.05,.8c-.03,.11-.35,.37-.49,.37l-10.86-.04c-.13,0-.26,.1-.27,.24l-.19,1.08c-.03,.11,.08,.22,.2,.22l14.16,.07c.13,0,.31-.33,.32-.44l.91-5.51c.04-.6-.62-1.47-1.5-1.47Zm-7.41-1.41c.11-.08,.29-.16,.43-.16l2.34,.05c.13,0,.23,.2,.15,.32,0,0-.62,1-.8,1.1-.17,.12-2.83,.16-3.06-.09-.03-.37,.95-1.22,.95-1.22Zm5.59,4.05c-.01,.12-.34,.23-.45,.23l-10.05-.08c-.1-.08-.12-.04-.12-.15,.14-.11,1.09-.73,1.72-1.21l8.65,.13c.14,0,.42,.2,.4,.32l-.14,.76Z"/><path class="cls-3" d="M149,25.39l-1.68-5.08c-.04-.11-.18-.2-.31-.2l-2.01-.04c-.13,0-.31,.11-.27,.23,0,0,.04,.61-.12,.65-.14,.08-1.38,.1-1.38,.1-.14,0-.26,.08-.27,.21l-.17,.45s-.12,.09-.21,.01c-.28-1.08-.93-1.68-1.93-1.68-.62,0-1.14,.37-1.54,.76-.07,.1-.26,.27-.31,0,0-.27-.03-.5-.03-.5,.02-.12-.12-.23-.24-.23h-2.51c-.13,.08-.33-.03-.42-.03h-1.91c-.15,0-.31,.08-.37,.18l-1.5,1.9c-.08,.09-.15,.26-.17,.4l-.41,2.76c-.02,.28,.17,.36,.37,.25,1.37-.83,3-2.91,3.81-4.27,.08-.12,.16-.17,.27-.12l-.4,2.81c-.12,.95,.48,1.68,1.38,1.68l7,.14c.93-.09,1.54-.87,1.64-1.83,.02-.29,.32-.27,.4-.04,.16,.4,.62,1.53,.62,1.53,.04,.12,.17,.21,.31,.21l2.18,.05c.14,0,.22-.2,.16-.31Zm-6.84-1.41h-3.62c-.13,0-.32-.38-.3-.5,0,0,.23-1.14,.3-1.32,.08-.15,.18-.29,.33,.02,.24,.81,.91,1.33,1.79,1.33,.72,0,1.48-.42,1.75-.96,.06-.08,.2-.06,.21,0,.02,.04-.12,1.11-.12,1.11,0,.1-.21,.32-.35,.32Z"/></g></g></g></svg>