<svg xmlns="http://www.w3.org/2000/svg" width="266.281" height="37.637"><defs><linearGradient id="a" x1=".001" y1=".13" x2=".999" y2=".13" gradientUnits="objectBoundingBox"><stop offset="0" stop-color="#1b272b"/><stop offset=".303" stop-color="#00693e"/><stop offset=".331" stop-color="#006d3e"/><stop offset=".377" stop-color="#00793f"/><stop offset=".434" stop-color="#008d3e"/><stop offset=".5" stop-color="#00a83b"/><stop offset=".568" stop-color="#008d3e"/><stop offset=".627" stop-color="#00793f"/><stop offset=".674" stop-color="#006d3e"/><stop offset=".702" stop-color="#00693e"/><stop offset="1" stop-color="#1b272b"/></linearGradient></defs><path data-name="パス 4289" d="M0 37.47 18.818 4.935 37.553 37.47Z" fill="#fff"/><path data-name="パス 4290" d="M152.471 27.182v-6.44h9.7c2.76 0 4.015.92 4.015 2.342 0 1.255-1.338 1.84-3.68 1.84h-4.516v3.011h8.447c4.516 0 6.44-2.091 6.44-4.935 0-3.095-2.007-5.186-6.273-5.186h-14.05v-4.265h-6.607v4.265h-4.182v2.927h4.182v7.695c0 8.28 9.451 8.113 9.451 8.113h16.56v-3.011s-12.044-.251-13.047-.251c-2.928 0-6.44-2.174-6.44-6.105Zm29.694 8.949c6.189 0 7.611-1.338 9.535-2.342 2.509-1.422 9.618-7.109 11.709-11.709h-7.026c-.5 1-9.618 11.876-14.135 9.869-1.338-.585-1.422-1.171-1.422-4.433V13.633h-6.361v14.3c-.081 7.616 5.188 8.198 7.7 8.198Zm51.855-18.4V14.72h-29.778v3.011h8.782v4.851h-8.782v2.76h8.782v3.429c0 6.607 3.6 7.611 9.618 7.611h10.2v-3.011s-4.516-.167-6.356-.167c-4.516 0-7.695-.92-7.695-4.1v-3.846h15.222v-2.76h-15.218v-4.849h15.222Zm16.895 10.873c0 6.356-4.182 7.862-8.866 7.862h-6.273v-2.928h5.185c2.509 0 3.931-2.091 3.931-5.1v-5.271h11.124c2.76 0 3.68-1.171 3.68-2.509 0-2.175-2.091-2.844-3.68-2.844h-20.24v-3.01h22.247c10.789 0 10.622 11.291 1.756 11.291h-8.866Zm9.367 7.527h.753v-1.84h1.171c.753 0 .836.335.836 1.171a1.842 1.842 0 0 0 .084.669h.836a2.024 2.024 0 0 1-.251-1.171c0-.669-.418-.92-.669-.92a1.063 1.063 0 0 0 .753-1.087c0-.753-.5-1.171-1.422-1.171h-2.091Zm.753-3.764h1.255c.418 0 .753.084.753.669 0 .5-.251.669-.753.669h-1.255v-1.338" fill="#005748"/><path data-name="パス 4291" d="M265.632 33.956a3.68 3.68 0 1 1-3.68-3.68 3.659 3.659 0 0 1 3.68 3.68Zm-3.68-3.178a3.178 3.178 0 1 0 3.178 3.178 3.232 3.232 0 0 0-3.178-3.178ZM65.99 20.24a1.678 1.678 0 0 1-1.505 1.756c-.836 0-1.255 0-2.342-1.84a21.724 21.724 0 0 0-2.175-3.178c-.585-.669-.753-1-.753-1.505a1.787 1.787 0 0 1 1.673-1.505c.836 0 1.338.5 2.844 2.342a18.059 18.059 0 0 1 2.342 3.513.627.627 0 0 0-.084.418Zm-16.393 5.854c-2.175.669-3.345 1.673-3.345 3.764a2.469 2.469 0 0 0 2.509 2.425c.92 0 .753-.251.753-1.84v-4.349m.084-11.207c0-1.087.5-2.091 1.756-2.091 1.589 0 1.756 1 1.756 2.091v1.589c1 0 2.175-.084 3.095-.084.753 0 2.175.251 2.175 1.673a1.549 1.549 0 0 1-1.676 1.589c-.167 0-3.345.084-3.6.084v2.258c.5 0 1.338-.251 2.175-.251 4.516 0 6.524 1.171 7.946 2.593a6.24 6.24 0 0 1 2.007 4.6 6.949 6.949 0 0 1-4.516 6.356 16.418 16.418 0 0 1-4.015.92c-.669-.167-2.342-.5-2.342-2.007 0-1.673 1.589-1.589 2.091-1.756a9.869 9.869 0 0 0 2.342-.5c1.171-.5 2.509-1.171 2.509-2.927s-.5-2.175-1-2.593c-.753-.585-2.007-1.255-5.436-1.255a9.712 9.712 0 0 0-1.924.167v6.44c0 1.924 0 4.182-3.847 4.182-3.178 0-6.691-2.258-6.691-6.022 0-1.589.669-5.269 7.109-7.527v-2.678c-1.338 0-2.927.084-4.182.084-.753 0-2.258 0-2.258-1.589s1.673-1.84 2.676-1.84h3.847v-1.506m74.855 14.469c0 1.756.669 2.927 1.673 3.095a1.058 1.058 0 0 0 .92-.418 9.686 9.686 0 0 0 1-1.924 18.865 18.865 0 0 0 1-6.44c-3.42.502-4.591 3.258-4.591 5.687Zm1.756 5.687c-2.509 0-4.1-2.76-4.1-5.687 0-5.186 4.433-8.28 8.866-8.28 4.516 0 8.029 3.011 8.029 7.527 0 5.018-3.513 7.695-7.527 7.695a1.109 1.109 0 0 1-1.255-1.087 1.16 1.16 0 0 1 1.255-1.255 5.02 5.02 0 0 0 5.1-5.269 5.053 5.053 0 0 0-5.018-5.186c0 7.695-2.175 11.542-5.353 11.542m-15.718-14.05c-.251 0-.418 0-.418.167v.5c0 .167.251.167.418.167h1.087c.251 0 .418 0 .418-.167v-.5c0-.167-.167-.167-.418-.167Zm2.425-1.338a1.987 1.987 0 0 1 1.756.836v1.836a1.836 1.836 0 0 1-1.756.92h-4.015a1.593 1.593 0 0 1-1.505-1.255v-1.25a1.808 1.808 0 0 1 1.673-1.087h3.847m-6.022 11.291c0 .585 0 .836.669.836h6.947c.669 0 .669-.251.669-.836h-8.28m8.28-1.589c0-.585 0-.92-.669-.92h-7.03c-.669 0-.585.335-.585.92h8.28m-8.2-10.538c-.669 0-.836.5-.836 1.087v2.844c0 .585.251 1.338.836 1.338l7.862-.251c.669 0 1.087.167 1.087-.418v-3.68c0-.585-.251-1-.836-1h-8.113m9.367 8.029a1.762 1.762 0 0 1 1.924 1.756v3.178a1.8 1.8 0 0 1-1.924 1.756h-10.532a1.762 1.762 0 0 1-1.924-1.756V28.52a1.739 1.739 0 0 1 1.924-1.756h10.538m0-9.7c1.171 0 1.422.167 1.673.418a2.219 2.219 0 0 1 .753 1.255v5.6a2.055 2.055 0 0 1-.753 1.255 2.313 2.313 0 0 1-1.673.418h-10.538c-1.171 0-1.422-.167-1.673-.418a2.219 2.219 0 0 1-.753-1.255v-5.6a2.055 2.055 0 0 1 .753-1.255 2.313 2.313 0 0 1 1.673-.418h10.538m1.171-3.095c1.422 0 2.342.251 2.342 1.255s-.669 1-2.091 1h-12.967c-1.505 0-2.091 0-2.091-1s.418-1.255 1.84-1.255h4.851a1.7 1.7 0 0 1 1.673-1.84 1.648 1.648 0 0 1 1.673 1.84h4.767m.084 20.24c1.171 0 2.091 0 2.091 1.087 0 1-.92 1-2.091 1h-13.382c-1.171 0-2.091 0-2.091-1.087 0-1 .92-1 2.091-1h13.382m-17.146-4.6s.5-.251.753-.335a1.676 1.676 0 0 1 2.007 1.505c0 .669-.753 1-1.338 1.422a23.321 23.321 0 0 1-5.266 1.926 1.859 1.859 0 0 1-1.589-1.505 1.553 1.553 0 0 1 .669-1.255 10.815 10.815 0 0 1 1.756-.585v-9.037c-1.422 0-1.505 0-1.84-.167a1.266 1.266 0 0 1-.585-1.171 1.37 1.37 0 0 1 .585-1.171c.335-.167.418-.167 1.84-.167v-3.342a3.525 3.525 0 0 1 .167-1.589 1.63 1.63 0 0 1 1.338-.585 1.829 1.829 0 0 1 1.338.585 3.525 3.525 0 0 1 .165 1.589v3.345c1.255 0 1.505 0 1.756.167a1.356 1.356 0 0 1 .585 1.171 1.3 1.3 0 0 1-.585 1.171c-.335.167-.5.167-1.756.167v7.859M81.379 15.054c.167-1.255.335-2.425 1.756-2.425a1.708 1.708 0 0 1 1.589 1.589c0 1.338-1.924 11.375-3.262 17.4a35.694 35.694 0 0 0 7.109-1.422c-.335-1.171-1-3.847-1.505-5.269a18.623 18.623 0 0 1-.753-2.676c0-.669.836-1.087 1.255-1.255 1.255-.418 1.756 1.087 2.258 2.676.753 2.342 2.844 10.036 2.844 11.124 0 .92-1.087 1.255-1.756 1.255a1.239 1.239 0 0 1-1.171-.836 9.65 9.65 0 0 1-.585-2.007 107.761 107.761 0 0 1-11.375 1.919c-.5.084-1.84 0-1.84-1.338.084-1.84 1.589-1.171 1.84-1.924a111.827 111.827 0 0 0 3.6-16.811ZM75.104 34.04c0 1.087-.084 2.509-1.589 2.509-1.255 0-1.589-.669-1.589-1.924V24.589c-1 1.673-1.338 2.091-2.258 2.091a1.337 1.337 0 0 1-1.422-1.338 2.644 2.644 0 0 1 .5-1.422 34.738 34.738 0 0 0 4.182-8.28c.167-.418.753-2.593.92-2.844a1.263 1.263 0 0 1 1.171-.669c.5 0 1.84.251 1.756 1.505 0 .92-1.171 3.513-1.589 4.6l-.082 15.808" fill="#005748"/><path data-name="パス 4292" d="M14.051 24.338h2.258v2.258h-2.258Z" fill="#00a7ea"/><path data-name="パス 4293" d="M17.647 16.727h2.258v2.258h-2.258Z" fill="#e60012"/><path data-name="パス 4294" d="M21.327 24.338h2.258v2.258h-2.258Z" fill="#00a83b"/><path data-name="パス 4295" d="M29.957 38.215c-3.429 0-7.862-2.258-8.447-5.6a6.347 6.347 0 0 1-.084-1.338v-5.942h2.258v6.44c0 4.349 5.687 6.44 9.367 6.44h4.1L18.917 6.6.6 38.215h4.1c3.68 0 9.367-2.091 9.367-6.44v-6.44h2.258v5.855a6.347 6.347 0 0 1-.084 1.338c-.585 3.345-5.018 5.6-8.447 5.6h3.262a6.627 6.627 0 0 0 6.775-6.44V17.724h2.258v14.051a6.628 6.628 0 0 0 6.775 6.44h3.095Z" transform="translate(-.098 -.996)" fill="url(#a)"/><path data-name="パス 4296" d="M44.662 8.113a9.7 9.7 0 0 0 2.007-1.673h-1.672V5.269h2.007v-.836h-2.091V3.345H46c-.084-.418-.167-.92-.251-1.338h-.587V.92h1.84V.084h1.171V.92h1.756v1.171h-.5c-.167.669-.167.836-.334 1.338h.92V4.6h-1.84v.836h1.673v1.171h-1.339a9.259 9.259 0 0 0 1.255 1L49.178 8.7a4.874 4.874 0 0 1-.916-1.089v2.425h-1.175V7.611a6.642 6.642 0 0 1-1.756 1.756Zm2.175-6.106a3.467 3.467 0 0 1 .251 1.338h.92a7.532 7.532 0 0 0 .254-1.338Zm7.862-.753a9.869 9.869 0 0 1-3.095.753v1.338h3.095V4.6h-.92v5.436h-1.255V4.6h-.92v.335c0 3.178-.836 4.433-1.338 5.1L49.095 9.2c.753-.92 1.255-1.924 1.255-4.265V.753A9.363 9.363 0 0 0 54.113 0l.585 1.255Zm1.756 4.684a5.047 5.047 0 0 1-.669.669l-.585-1.422a6.649 6.649 0 0 0 1.673-2.091h-1.256V.836h4.015V.167h1.338V.92h4.015v2.258h-.418v.585h-2.506a5.765 5.765 0 0 1-.335.836h2.76v5.52h-1.258v-.5h-3.261v.5h-1.255v-5.6h1.673a5.2 5.2 0 0 0 .251-.836h-2.091v-1.09h5.016v-.586h-6.689v1a6.693 6.693 0 0 0 .418-.92l1.171.5a11.975 11.975 0 0 1-.753 1.589v5.86h-1.338v-4.1Zm3.6-.335v.92h3.262V5.6Zm0 1.924v.92h3.262v-.92Zm15.64-5.855h-3.433v1.255h3.011v6.942h-1.254v-.418h-6.44v.418H66.24V2.927h2.593V1.673h-2.927V.418h9.786v1.255ZM67.579 4.1v4.1h6.44V4.1h-1.757v1.84c0 .167.084.251.167.251h.251c.251 0 .335-.167.335-1.255l1 .251c-.084 1.589-.251 2.091-1 2.091h-1.087c-.5 0-.92-.084-.92-.836V4.1H69.92a4.934 4.934 0 0 1-1.505 3.513l-.92-1A4.019 4.019 0 0 0 68.75 4.02h-1.171Zm2.425-2.425v1.252h1.087V1.673h-1.087Zm14.218 8.111V9.2h-5.938v.585h-1.338V.836h8.7V9.7h-1.424Zm-5.938-7.611v5.687h5.938V2.175h-5.938ZM93.59 5.6a7.8 7.8 0 0 0 2.172-1.335h-2.091V3.178h1.924V2.091h-1.589V1h1.589V.167h1.255V1h1.338v.585a11.212 11.212 0 0 0 .5-1L99.862 1V.418h3.764v1.171a27.065 27.065 0 0 1-1.087 2.593 4.094 4.094 0 0 1 1.255 2.844 2.393 2.393 0 0 1-.335 1.422c-.335.585-.753.585-1.338.585h-.753l-.167-1.255h.5c.5 0 .669-.167.669-.836a3.8 3.8 0 0 0-1.255-2.593 23.509 23.509 0 0 0 1.087-2.76h-1.171v8.447h-1.255V1a12.71 12.71 0 0 1-1.338 2.175h1.087v1.09h-2.007c0 .084-.335.335-.669.669h2.175v4.6h-3.178v.418h-1.338V6.524a2 2 0 0 1-.585.251L93.59 5.6Zm2.091.418v.753h2.007v-.749h-2.007Zm0 1.756v.753h2.007v-.749Zm1.087-5.687v1.091h.167a7.117 7.117 0 0 0 .836-1.087ZM104.962 1h3.6V.08h1.338V1h4.015v1.258h-7.695v2.509a14.135 14.135 0 0 1-.251 2.509 6.949 6.949 0 0 1-1.087 2.676l-1-1c.335-.5 1-1.589 1-4.265V1Zm9.116 2.425v1.259h-2.927v4.182c0 .5 0 1.171-1 1.171h-2.007l-.252-1.337h1.67c.251 0 .251-.084.251-.335V4.684h-3.346V3.429h7.611Zm5.018-2.007V.5h1.422v.92h3.262v1.256h-3.262V3.6h3.095v1.251h-3.095v1.255a13.416 13.416 0 0 1 3.011 1.924l-.92 1.255a18.306 18.306 0 0 0-2.091-1.673v.167c0 .5 0 1.84-2.342 1.84-2.007 0-2.593-1.087-2.593-1.924 0-1.422 1.338-2.007 2.676-2.007a6.458 6.458 0 0 1 .836.084v-.92h-3.6V3.6h3.6v-.92h-3.843V1.422Zm.084 5.52a2.582 2.582 0 0 0-.92-.167c-.5 0-1.338.167-1.338.836s.753.753 1.171.753c1 0 1.087-.418 1.087-.92v-.5Zm13.3-4.182v1.091c-.333.253-1.418 1.171-2.174 1.753a.754.754 0 0 1 .418-.084c.753 0 1 .585 1 1.422v.422c0 .753.084.92 1.255.92.5 0 1.087-.084 1.422-.084v1.339c-.335 0-.753.084-1.255.084-1.673 0-2.175-.167-2.509-.669a2.024 2.024 0 0 1-.251-1.171V7.36c0-.335 0-.753-.5-.753a2.821 2.821 0 0 0-1 .335 34.125 34.125 0 0 0-2.509 2.593l-.92-1.171c.251-.167 1.924-1.756 2.593-2.342 1.338-1.255 1.84-1.673 2.342-2.091l-4.184.169V2.844l6.273-.084Zm0-.5a20.3 20.3 0 0 0-5.1-.669l.167-1.171a22.418 22.418 0 0 1 5.185.584l-.251 1.255Z" fill="#005748"/><path data-name="パス 4297" d="M177.896 6.197h-41.4V5.011h41.4Z" fill="#005748"/></svg>