<?xml version="1.0" encoding="UTF-8"?><svg id="_イヤー_2" xmlns="http://www.w3.org/2000/svg" viewBox="0 0 25.06 109.62"><defs><style>.cls-1{fill:#42210b;}</style></defs><g id="main"><g><path class="cls-1" d="M.68,12.01c1.51-.99,2.34-1.66,3.82-3.09,2.42-2.37,4.21-4.6,5.72-7.02,.44-.75,.62-1.12,.86-1.9,2.86,.65,3.07,.73,3.07,.94,0,.23-.42,.44-.99,.47,1.61,2.5,3.12,3.98,5.64,5.62,2.08,1.33,3.54,1.92,6.27,2.6v.26c-1.07,.29-1.38,.65-1.87,2.13-2.11-1.04-3.98-2.39-5.8-4.16-1.22-1.2-2.57-2.78-3.59-4.26-.49-.7-.68-1.01-1.09-1.95-1.56,2.42-3.3,4.47-5.62,6.53-1.98,1.77-3.67,2.91-6.16,4.21l-.26-.36Zm11.23,2.78c-2.63,3.87-2.91,4.29-4.45,6.03,4.06-.05,8.01-.26,10.58-.55-1.14-1.64-2.05-2.73-3.38-4.03l.21-.26c1.72,.99,3.48,2.31,5.2,3.9,.68,.65,.99,1.2,.99,1.82,0,.47-.21,1.27-.42,1.61-.1,.16-.29,.26-.44,.26-.18,0-.29-.1-.44-.39-.47-.91-1.01-1.9-1.35-2.37-4.16,.86-9.8,1.66-13.96,2-.26,.78-.34,.91-.55,.91-.16,0-.21-.05-.31-.49-.16-.7-.39-1.77-.52-2.5q.62,.03,2.11,.08c.44,.03,.78,.03,1.09,.03,.08,0,.26,0,.47-.03,1.14-1.98,1.46-2.7,2.78-6.03H4.24c-.81,0-1.14,.03-1.85,.16l-.21-.96c.73,.16,1.17,.21,2.05,.21h15c.62-.83,.81-1.07,1.43-1.82,1.12,.83,1.46,1.12,2.52,2,.05,.1,.13,.21,.13,.23,0,.1-.1,.18-.23,.18H11.91Zm-5.9-5.12c.65,.13,1.46,.21,2.11,.21h6.55c.62-.78,.81-1.01,1.46-1.74,1.04,.83,1.38,1.09,2.39,1.95,.1,.08,.16,.16,.16,.23,0,.1-.1,.16-.34,.16H7.98c-.44,0-.83,.03-1.79,.1l-.18-.91Z"/><path class="cls-1" d="M6.53,39.99c1.17,.29,2.47,.78,3.51,1.38,.86,.49,1.2,1.01,1.2,1.82,0,.65-.26,1.25-.57,1.25-.03,0-.21-.1-.29-.16-.16-.13-.18-.16-.65-.86-.81-1.12-1.74-2-3.2-2.96v5.59q.03,4.76,.08,5.98c-.08,.34-.29,.44-.94,.44h-.34c-.39,0-.49-.05-.57-.26,0-.29,.03-2.29,.08-6.03v-4.52c-1.27,1.3-2.31,2.13-4.11,3.3l-.29-.39c1.69-1.4,2.89-2.65,4.34-4.6s2.29-3.35,3.2-5.33H2.76c-.57,0-.96,.03-1.85,.13l-.18-.96c.7,.16,1.43,.23,2.03,.23h2.08v-2.73c0-1.04-.03-1.38-.21-2.26,.57,.05,1.01,.1,1.3,.13,1.25,.1,1.59,.18,1.59,.44,0,.21-.21,.34-.99,.6v3.82h1.46c.52-.6,.7-.75,1.25-1.3,.7,.57,.91,.75,1.53,1.3,.23,.26,.29,.34,.29,.42,0,.21-.13,.26-1.3,.52-1.09,1.95-1.79,2.99-3.22,4.76v.26Zm5.41-1.33c-.55,0-1.04,.05-2.08,.18l-.21-.99c1.07,.18,1.46,.21,2.29,.21h3.69v-5.88c0-1.35-.03-2.03-.18-3.25,.55,.08,1.09,.13,1.35,.16,1.35,.13,1.66,.23,1.66,.47,0,.21-.29,.39-1.04,.68v7.83h2.68l1.51-1.95c1.09,.91,1.43,1.2,2.47,2.16,.05,.05,.1,.16,.1,.18,0,.1-.13,.21-.26,.21h-6.5v11.78h3.17c.7-.86,.94-1.14,1.74-2.03,1.07,.91,1.38,1.22,2.42,2.26,.08,.05,.13,.16,.13,.18,0,.1-.13,.18-.26,.18H11.02c-1.07,0-1.51,.03-2.47,.18l-.23-.99c.91,.13,1.77,.21,2.7,.21h4.6v-11.78h-3.69Z"/><path class="cls-1" d="M5.56,62.95c.42-.57,.52-.73,.94-1.22,.75,.65,.96,.86,1.64,1.56,.05,.05,.08,.1,.08,.16s-.1,.1-.21,.1h-2.73v2.24c.62,.44,1.04,.78,1.4,1.09,.86,.81,1.07,1.12,1.07,1.56,0,.62-.49,1.56-.83,1.56-.16,0-.26-.16-.34-.47-.29-1.25-.86-2.63-1.3-3.2l.03,12.09v2.42c-.03,.29-.29,.36-1.27,.36-.47,0-.57-.05-.57-.34l.34-10.5,.13-3.8c-.42,1.98-.7,2.89-1.59,4.78-.65,1.43-1.12,2.29-1.98,3.77l-.36-.16c1.25-2.96,1.66-4.16,2.47-6.99,.57-2.05,.75-2.86,.96-4.42h-1.2c-.55,0-1.2,.08-1.56,.18l-.16-1.01c.47,.16,1.09,.23,1.72,.23h1.38v-3.28c0-.57-.03-1.07-.16-2.34,1.09,.13,2.39,.34,2.65,.42,.18,.05,.26,.13,.26,.26,0,.23-.16,.34-1.09,.65v4.29h.29Zm4.55,12.14c2.08-.7,2.24-.75,3.33-1.22-.36-.99-.62-1.53-1.22-2.7l.23-.21c.26,.26,.47,.47,.62,.6,1.59,1.43,2.03,2,2.03,2.6s-.49,1.51-.83,1.51c-.13,0-.26-.1-.36-.31,0-.03-.1-.34-.29-.94-.94,.6-1.17,.75-1.77,1.09-.29,.18-1.59,.86-3.95,2.08-.1,.88-.18,1.09-.42,1.09-.18,0-.21-.08-1.04-2.44,.62-.1,.7-.13,2.11-.6v-13.88q0-2.6-.05-3.54c.83,.44,1.07,.6,1.79,1.12h2.55l.91-.99q.62,.47,1.3,.96c.18,.13,.23,.23,.23,.31,0,.16-.16,.31-.6,.62v6.24c0,.05,.03,1.72,.03,3.02-.03,.44-.26,.55-1.22,.55-.29,0-.36-.05-.36-.23,0-.03,.03-.05,.03-.08v-.91h-3.04v6.27Zm11.49-6.86c.49-.65,.65-.83,1.2-1.46,.81,.73,1.04,.96,1.82,1.69,.05,.08,.1,.18,.1,.23,0,.08-.08,.13-.21,.13h-3.69c-.29,.88-.39,1.17-.62,1.72,.52,.08,1.4,.26,1.77,.36,.16,.05,.26,.13,.26,.18,0,.21-.13,.29-.99,.57v6.97c0,.47,.08,.49,.88,.49,.55,0,.7-.08,.81-.36,.16-.34,.23-.65,.44-1.51,.42-1.9,.68-2.99,.75-3.33l.31,.05-.31,4.29c-.03,.34-.03,.52-.03,.52,0,.1,.05,.13,.23,.18,.39,.13,.6,.34,.6,.62,0,.21-.18,.44-.44,.57-.36,.18-1.09,.26-2.5,.26-2,0-2.39-.21-2.39-1.25v-.1c0-.05,0-.13,.03-.21v-7.02c-1.07,2.18-2.52,3.98-4.55,5.64-1.85,1.51-3.35,2.37-5.93,3.38l-.13-.31c3.07-1.72,5.33-3.51,6.99-5.54,1.38-1.69,2.39-3.64,3.22-6.19h-2.78c-.34,0-.78,.05-1.12,.16l-.13-.91c.36,.08,.96,.16,1.22,.16h.29v-8.27c-.44,0-.55,.03-.91,.1l-.13-.94c.6,.18,.91,.21,1.79,.21h4.08c.55-.68,.7-.88,1.25-1.51,.86,.73,1.12,.96,1.95,1.74,.05,.08,.1,.16,.1,.18,0,.1-.13,.18-.26,.18h-2.11c-.21,3.2-.57,5.28-1.46,8.29h.57Zm-8.45-8.29h-3.04v3.61h3.04v-3.61Zm0,4.21h-3.04v4.08h3.04v-4.08Zm6.27,4.08c.7-2.39,1.04-4.45,1.35-8.29h-2.5v8.29h1.14Z"/><path class="cls-1" d="M17.84,100.65c-1.14,1.98-1.77,2.78-3.2,4.16,2.73,.73,5.28,1.56,6.03,2,.7,.42,1.3,1.43,1.3,2.18,0,.36-.18,.62-.44,.62-.18,0-.29-.08-1.79-1.01-2.05-1.27-3.56-2-6.08-2.94-1.69,1.38-3.2,2.18-5.33,2.83-2.44,.75-4.32,1.04-7.15,1.09v-.44c3.33-.49,5.04-.91,7.05-1.74,1.4-.6,2.6-1.3,3.85-2.26-1.87-.57-2.63-.75-4.55-1.07-.31,.36-.44,.52-.88,1.01-.13,.16-.23,.21-.36,.21-.26,0-1.17-.18-1.3-.26-.05-.03-.08-.08-.08-.1,0-.08,.03-.1,.29-.42,1.61-1.98,2.11-2.6,3.02-3.87H3.12q-1.66,.03-2.13,.13l-.16-1.01c.78,.23,1.17,.29,2.31,.29h5.46c1.07-1.59,1.43-2.21,1.72-2.91,2.11,.62,2.31,.73,2.31,.88,0,.18-.26,.29-1.07,.39-.55,.86-.68,1.07-1.07,1.64h10.19c.7-.81,.91-1.01,1.61-1.72,1.01,.81,1.33,1.07,2.24,1.9,.1,.13,.16,.21,.16,.26,0,.1-.1,.16-.26,.16h-6.6Zm-1.79-9.23h3.82c.44-.49,.6-.65,1.04-1.12,.62,.47,.81,.62,1.43,1.12,.21,.18,.26,.26,.26,.34,0,.16-.08,.23-.78,.65q.03,3.82,.13,5.3v.08c0,.31-.31,.39-1.43,.39-.26,0-.36-.1-.36-.34v-.83H5.1v.7c0,.34-.21,.42-1.35,.42-.23,0-.34-.08-.34-.29,.05-1.59,.05-2.39,.05-3.35q0-.81-.03-2.47c-.03-.55-.03-1.07-.03-1.59,.88,.36,1.17,.52,2.11,.99h3.56v-3.3H3.28c-.52,0-1.22,.05-1.85,.16l-.16-1.01c.65,.18,1.22,.26,2.26,.26H20.36c.68-.75,.88-.96,1.53-1.64,1.01,.75,1.33,1.01,2.31,1.82,.08,.1,.16,.21,.16,.26,0,.08-.08,.16-.18,.16h-8.14v3.3Zm-10.95,.6v4.39h3.98v-4.39h-3.98Zm4.99,8.63c-.91,1.3-1.38,1.95-2.21,2.99,2.78,.36,3.69,.52,5.07,.78,1.38-1.27,2-2.05,2.91-3.77h-5.77Zm.57-12.53v3.3h3.77v-3.3h-3.77Zm0,8.29h3.77v-4.39h-3.77v4.39Zm5.38,0h4.11v-4.39h-4.11v4.39Z"/></g></g></svg>