<?xml version="1.0" encoding="UTF-8"?><svg id="_イヤー_2" xmlns="http://www.w3.org/2000/svg" viewBox="0 0 150.94 31.13"><defs><style>.cls-1{fill:#005748;}.cls-2{fill:#fff;stroke:#005748;stroke-miterlimit:10;}</style></defs><g id="main"><rect class="cls-2" x=".5" y=".5" width="149.94" height="30.13"/><g><path class="cls-1" d="M15.34,16.33c0-2.52,1.56-4.04,3.61-4.04,1.09,0,1.83,.48,2.3,.98l-.65,.78c-.39-.39-.86-.69-1.61-.69-1.44,0-2.4,1.11-2.4,2.93s.85,2.96,2.45,2.96c.47,0,.95-.14,1.22-.38v-1.82h-1.54v-1h2.64v3.35c-.51,.52-1.39,.9-2.45,.9-2.06,0-3.57-1.45-3.57-3.98Z"/><path class="cls-1" d="M23.67,17.29c0-1.92,1.29-3.04,2.72-3.04s2.72,1.11,2.72,3.04-1.29,3.03-2.72,3.03-2.72-1.1-2.72-3.03Zm4.21,0c0-1.22-.57-2.04-1.48-2.04s-1.47,.82-1.47,2.04,.57,2.04,1.47,2.04,1.48-.81,1.48-2.04Z"/><path class="cls-1" d="M31.17,17.29c0-1.92,1.29-3.04,2.72-3.04s2.72,1.11,2.72,3.04-1.29,3.03-2.72,3.03-2.72-1.1-2.72-3.03Zm4.21,0c0-1.22-.57-2.04-1.48-2.04s-1.47,.82-1.47,2.04,.57,2.04,1.47,2.04,1.48-.81,1.48-2.04Z"/><path class="cls-1" d="M38.67,21.25c0-.48,.3-.94,.84-1.26v-.05c-.29-.18-.53-.48-.53-.96s.33-.84,.65-1.07v-.04c-.4-.3-.77-.85-.77-1.55,0-1.3,1.04-2.07,2.24-2.07,.33,0,.62,.06,.84,.15h2.05v.9h-1.1c.22,.23,.38,.62,.38,1.06,0,1.26-.96,1.99-2.17,1.99-.26,0-.56-.06-.81-.18-.19,.17-.32,.33-.32,.61,0,.35,.23,.57,.97,.57h1.06c1.37,0,2.08,.42,2.08,1.41,0,1.11-1.18,2.02-3.03,2.02-1.39,0-2.4-.52-2.4-1.52Zm4.26-.3c0-.48-.38-.63-1.08-.63h-.87c-.27,0-.54-.03-.78-.08-.35,.25-.49,.55-.49,.84,0,.57,.59,.9,1.55,.9,1.01,0,1.68-.49,1.68-1.03Zm-.73-4.63c0-.77-.48-1.22-1.09-1.22s-1.09,.44-1.09,1.22,.49,1.25,1.09,1.25,1.09-.47,1.09-1.25Z"/><path class="cls-1" d="M46.21,18.82v-7.02h1.21v7.09c0,.33,.14,.44,.28,.44,.05,0,.09,0,.2-.02l.16,.91c-.15,.05-.35,.09-.65,.09-.87,0-1.2-.56-1.2-1.49Z"/><path class="cls-1" d="M49.98,17.29c0-1.87,1.29-3.04,2.64-3.04,1.54,0,2.37,1.1,2.37,2.73,0,.24-.03,.47-.06,.62h-3.75c.09,1.1,.79,1.77,1.79,1.77,.52,0,.96-.16,1.38-.43l.42,.77c-.54,.36-1.2,.61-1.96,.61-1.57,0-2.82-1.11-2.82-3.03Zm3.95-.53c0-.99-.45-1.57-1.29-1.57-.72,0-1.37,.56-1.48,1.57h2.78Z"/><path class="cls-1" d="M60.9,12.43h1.4l1.42,3.92c.18,.52,.34,1.04,.52,1.56h.05c.18-.52,.33-1.04,.5-1.56l1.4-3.92h1.41v7.75h-1.14v-3.83c0-.69,.09-1.69,.16-2.4h-.04l-.62,1.79-1.35,3.69h-.76l-1.36-3.69-.61-1.79h-.04c.05,.7,.15,1.7,.15,2.4v3.83h-1.09v-7.75Z"/><path class="cls-1" d="M70.23,18.64c0-1.24,1.05-1.88,3.46-2.14-.01-.67-.25-1.26-1.1-1.26-.61,0-1.18,.27-1.67,.59l-.45-.82c.6-.38,1.41-.76,2.33-.76,1.44,0,2.1,.91,2.1,2.45v3.48h-.99l-.09-.66h-.04c-.53,.45-1.15,.8-1.84,.8-1,0-1.7-.65-1.7-1.67Zm3.46,.04v-1.42c-1.71,.2-2.29,.64-2.29,1.29,0,.57,.39,.8,.9,.8s.92-.24,1.39-.67Z"/><path class="cls-1" d="M77.67,14.4h.99l.09,.63h.03c.5-.42,1.13-.78,1.79-.78,1.46,0,2.28,1.17,2.28,2.94,0,1.99-1.19,3.12-2.49,3.12-.52,0-1.03-.23-1.52-.65l.04,.99v1.87h-1.21V14.4Zm3.93,2.82c0-1.21-.39-1.96-1.36-1.96-.45,0-.88,.23-1.37,.7v2.83c.45,.39,.89,.53,1.25,.53,.84,0,1.47-.75,1.47-2.1Z"/><path class="cls-1" d="M88.82,13.08c.77-.07,2.64-.25,4.57-.42,1.12-.09,2.18-.16,2.9-.18v1.06c-.59,0-1.5,.01-2.05,.15-1.4,.42-2.32,1.92-2.32,3.16,0,1.91,1.79,2.55,3.52,2.63l-.38,1.12c-2.06-.11-4.22-1.21-4.22-3.52,0-1.59,.94-2.86,1.79-3.42-1.06,.11-3.51,.36-4.69,.61l-.11-1.15c.4-.01,.77-.03,.98-.05Zm6.82,3.08l-.65,.29c-.25-.54-.53-1.02-.84-1.47l.63-.27c.25,.37,.64,1.01,.86,1.45Zm1.2-.47l-.64,.3c-.27-.54-.55-1-.88-1.45l.63-.28c.25,.36,.66,.99,.89,1.43Z"/><path class="cls-1" d="M101.74,12.4c.57,0,1.84-.06,2.3-.09,.22-.02,.45-.06,.61-.13l.66,.53c-.13,.13-.23,.25-.31,.39-.28,.46-.72,1.45-1.14,2.4,.96,.13,1.85,.42,2.63,.78,.03-.21,.05-.41,.06-.6,.02-.36,.02-.74-.01-1.04l1.09,.12c-.04,.73-.11,1.4-.21,2,.47,.27,.87,.54,1.2,.77l-.48,1.14c-.3-.26-.64-.53-1.01-.79-.44,1.29-1.25,2.26-2.72,3.01l-.88-.73c1.63-.69,2.38-1.77,2.72-2.83-.82-.45-1.77-.81-2.79-.91-.39,.91-.87,2.06-1.26,2.66-.4,.58-.84,.81-1.46,.81-.84,0-1.47-.59-1.47-1.56,0-1.59,1.45-2.8,3.53-2.87,.35-.77,.71-1.59,.99-2.17-.42,.01-1.54,.06-2.02,.08-.22,.01-.56,.04-.82,.08l-.04-1.08c.27,.03,.61,.04,.83,.04Zm-.96,6.39c.22,0,.39-.09,.59-.36,.34-.45,.68-1.28,1.02-2.05-1.38,.15-2.17,.99-2.17,1.78,0,.42,.26,.63,.56,.63Z"/><path class="cls-1" d="M113.43,12.36c.55,0,2.94-.06,3.51-.12,.37-.03,.56-.05,.67-.09l.58,.76c-.22,.14-.44,.28-.66,.45-.54,.4-1.83,1.49-2.58,2.1,.42-.13,.84-.18,1.26-.18,1.76,0,3.06,1.08,3.06,2.55,0,1.67-1.33,2.87-3.7,2.87-1.45,0-2.42-.64-2.42-1.6,0-.78,.69-1.48,1.74-1.48,1.3,0,2.05,.84,2.19,1.84,.73-.32,1.11-.88,1.11-1.65,0-.99-.97-1.7-2.28-1.7-1.68,0-2.67,.79-3.91,2.11l-.77-.78c.82-.67,2.13-1.78,2.75-2.29,.59-.48,1.81-1.49,2.33-1.96-.56,.02-2.38,.1-2.92,.14-.26,.01-.54,.03-.78,.06l-.03-1.08c.26,.03,.59,.04,.84,.04Zm1.96,7.4c.26,0,.51-.01,.75-.04-.08-.77-.55-1.3-1.24-1.3-.44,0-.77,.28-.77,.6,0,.46,.51,.75,1.26,.75Z"/></g><g><path class="cls-1" d="M129.41,20.65c-.19-.03-.35-.11-.48-.25-.13-.15-.21-.32-.21-.52,0-2.65,0-5.3,0-7.95,0-.41,.35-.77,.77-.77,1.37,0,2.75,0,4.12,0,.05,0,.07,.02,.07,.07,0,.31,0,.62,0,.93,0,.06-.02,.07-.07,.07-1.04,0-2.09,0-3.13,0-.13,0-.27,0-.4,.02-.2,.04-.29,.16-.29,.36,0,.79,0,1.59,0,2.38,0,1.27,0,2.54,0,3.81,0,.36,.24,.67,.59,.76,.06,.02,.12,.02,.18,.02,2.08,0,4.17,0,6.25,0,.43,0,.77-.34,.77-.77,0-.5,0-1,0-1.51q0-.09,.09-.09c.3,0,.59,0,.89,0,.08,0,.08,0,.08,.07,0,.85,0,1.7,0,2.55,0,.45-.32,.76-.68,.81h-8.53Z"/><path class="cls-1" d="M139.39,14.29c-.2,.18-.4,.37-.6,.55-.64,.6-1.29,1.2-1.93,1.8-.25,.23-.5,.47-.75,.7-.02,.02-.04,.06-.07,.04-.03-.01-.01-.05-.01-.08,0-.63,0-1.25,0-1.88,0-.08,0-.08-.08-.09-.31-.04-.62-.04-.92-.03-1.12,.05-2.16,.36-3.09,.98-.43,.29-.81,.63-1.15,1.02-.02,.02-.04,.07-.06,.06-.03-.01,0-.06,0-.08,.06-.4,.17-.78,.32-1.15,.24-.57,.57-1.07,1-1.5,.28-.28,.6-.51,.94-.71,.58-.32,1.19-.51,1.84-.61,.28-.04,.57-.07,.85-.08,.09,0,.18,0,.28,0,.06,0,.07-.02,.07-.07,0-.5,0-.99,0-1.49,0-.15,0-.3,0-.45,0-.02,0-.04,0-.05,.02-.01,.03,.01,.04,.02,.51,.48,1.02,.95,1.53,1.43,.59,.55,1.18,1.1,1.77,1.65v.02Z"/></g></g></svg>