<?xml version="1.0" encoding="UTF-8"?><svg id="_イヤー_2" xmlns="http://www.w3.org/2000/svg" viewBox="0 0 25.01 159.95"><defs><style>.cls-1{fill:#42210b;}</style></defs><g id="main"><g><path class="cls-1" d="M3.3,13.99c1.87-1.56,3.61-3.59,5.46-6.34,1.07-1.59,1.72-2.94,1.72-3.51,0-.34-.1-.55-.49-.88q-.31-.31-.62-.47t-.47-.26c.23-.1,.34-.13,.49-.13,.55,0,1.43,.29,2.13,.7,.83,.47,1.22,.91,1.22,1.33,0,.31-.03,.34-1.4,2.34,.34,.1,.49,.13,.7,.13,.49,0,1.74-.21,3.09-.55,1.09-.26,1.51-.39,2.05-.7,.21-.13,.29-.16,.44-.16,.62,0,2.11,1.35,2.11,1.92,0,.21-.1,.36-.39,.65-.47,.42-.6,.62-1.25,1.85-2.37,4.42-4.34,6.94-7.67,9.8-2.24,1.87-4.42,3.25-6.45,4.06l-.18-.36c2.08-1.3,3.64-2.55,5.75-4.65,3.15-3.15,5.59-6.66,7.1-10.3,.26-.57,.42-1.12,.42-1.33,0-.1-.08-.18-.23-.18-.39,0-2,.39-3.3,.83-.47,.16-.62,.18-.86,.18-.55,0-1.09-.26-1.61-.75-2.11,2.96-4.65,5.38-7.49,7.12l-.26-.34ZM18.51,1.51c.96,.55,1.66,1.04,2.31,1.61,.94,.86,1.3,1.46,1.3,2.08s-.36,1.09-.81,1.09q-.34,0-1.14-1.69c-.47-.91-1.3-2.05-2-2.73l.34-.36Zm2.68-1.51c.94,.44,1.69,.88,2.5,1.51,.99,.75,1.33,1.27,1.33,2,0,.62-.26,1.07-.65,1.07-.23,0-.39-.13-.6-.52-.91-1.64-1.4-2.29-2.83-3.69l.26-.36Z"/><path class="cls-1" d="M1.46,46.98c1.43-1.33,2.47-2.83,3.48-4.94,.99-2.05,1.79-5.25,1.79-7.05,0-1.01-.44-1.53-1.77-2.03,.29-.18,.42-.23,.7-.23,.57,0,1.2,.21,1.95,.65,.96,.57,1.4,1.01,1.4,1.43,0,.21-.05,.42-.34,1.2q-.03,.1-.26,.91c-.83,2.73-1.07,3.38-1.77,4.78-1.25,2.47-2.7,4.13-4.91,5.56l-.29-.29Zm22.21-10.38c-.81,1.38-1.48,2.24-2.83,3.67-1.51,1.61-3.9,3.69-5.51,4.76-.49,.34-1.25,.94-1.48,1.17-.21,.21-.34,.29-.52,.29-.6,0-1.56-1.35-1.56-2.16,0-.05,.05-.31,.18-.81,.16-.6,.23-2.91,.23-7.05,0-5.9-.1-6.24-2-6.66,.26-.31,.44-.39,.83-.39,.62,0,1.43,.29,2.29,.81,.75,.47,1.07,.83,1.07,1.2,0,.13-.03,.23-.21,.7-.13,.34-.26,1.22-.36,2.55-.1,1.09-.34,6.84-.34,7.83,0,.34,0,.62,.05,1.2,3.02-1.17,6.84-4.06,9.83-7.36l.34,.26Z"/><path class="cls-1" d="M11.29,58.79c0-1.87-.08-2.42-.42-2.86-.31-.39-.75-.68-1.43-.88,.21-.23,.49-.34,.83-.34,.55,0,1.48,.29,2.34,.75,.86,.44,1.12,.7,1.12,1.12,0,.26-.05,.36-.36,.81-.26,.42-.31,1.56-.31,11.47-.03,5.49-.18,6.42-1.04,6.42-.23,0-.42-.18-.55-.52-.18-.42-.23-1.27-.23-3.22l.05-12.74Z"/><path class="cls-1" d="M5.36,102.49c4.08-3.46,6.34-6.11,8.61-9.96,1.66-2.89,3.09-6.06,3.09-6.94,0-.26-.13-.34-.52-.34-.49,0-2.94,.44-4.81,.88-1.98,.47-3.64,.99-4.76,1.48-.42,.18-.7,.26-.96,.26-.55,0-1.22-.52-1.87-1.4-.44-.6-.68-1.2-.68-1.64,0-.16,.03-.29,.18-.52,.42,.96,1.3,1.51,2.42,1.51,.88,0,2.83-.29,7.41-1.07,2.29-.39,2.47-.44,3.02-.73q.31-.18,.52-.18c.39,0,1.12,.47,1.9,1.2,.55,.55,.81,.94,.81,1.25,0,.26-.05,.36-.36,.7-.36,.39-.44,.55-.88,1.43-3.54,6.97-7.57,11.49-12.87,14.38l-.23-.31Zm19.6-19.92c0,1.59-1.27,2.86-2.83,2.86s-2.86-1.3-2.86-2.86,1.27-2.83,2.86-2.83,2.83,1.27,2.83,2.83Zm-4.84,0c0,1.09,.91,2,2,2s1.98-.88,1.98-2-.88-1.98-1.98-1.98-2,.88-2,1.98Z"/><path class="cls-1" d="M12.74,117.16v2.11h5.67c.39-.44,.52-.57,.94-1.01,.7,.44,.91,.6,1.56,1.07,.16,.13,.23,.21,.23,.31,0,.16-.08,.23-.75,.65l.03,2h.49c.62-.68,.81-.88,1.43-1.56,.86,.73,1.12,.96,1.95,1.77,.1,.1,.16,.18,.16,.23,0,.08-.1,.16-.23,.16h-3.8c.03,2.34,.05,3.85,.08,4.47,0,.18-.05,.26-.18,.31-.18,.05-.81,.13-1.25,.13-.29,0-.42-.08-.42-.26v-1.46h-5.88q.03,.31,.03,1.27l.05,1.92c0,.7-.03,.88-.16,1.09-.26,.42-.91,.7-2.68,1.09-.05-1.25-.21-1.33-4.06-1.95v-.39c2.96,.18,3.25,.18,4,.18h.73c.31,0,.39-.08,.39-.31v-2.91H4.58c-.68,0-.99,.03-1.61,.13l-.1-.94c.68,.16,1.04,.21,1.77,.21h6.45v-2.6H2.05c-.73,0-.94,.03-1.48,.1l-.13-.88c.57,.13,.91,.18,1.61,.18H11.08v-2.42H4.29c-.7,0-.91,.03-1.33,.1l-.1-.88c.49,.16,.78,.18,1.43,.18h6.79v-2.11H5.64v.62c0,.18-.05,.26-.18,.31-.1,.03-.81,.1-1.17,.1-.21,0-.29-.05-.29-.23,.05-1.59,.08-2.37,.08-3.85,0-.86,0-1.07-.03-1.77,.75,.39,.99,.52,1.69,.94h5.33v-2.03H2.44c-.86,0-1.09,.03-1.61,.1l-.1-.88c.62,.16,.94,.18,1.74,.18H11.08c-.03-1.69-.03-1.9-.13-3.04,2.63,.34,2.81,.39,2.81,.68,0,.21-.23,.34-1.01,.57v1.79h7.46c.65-.75,.83-.96,1.48-1.66,1.01,.78,1.3,1.04,2.21,1.9,.05,.08,.1,.16,.1,.23,0,.05-.1,.13-.21,.13H12.74v2.03h5.38c.39-.39,.52-.52,.96-.94,.65,.44,.83,.57,1.43,1.04,.18,.13,.23,.21,.23,.29,0,.18-.1,.26-.75,.6,0,1.9,0,1.95,.05,3.12,0,.31-.16,.39-.86,.42-.21,0-.36,.03-.47,.03h-.08c-.21,0-.29-.05-.29-.26v-.42h-5.62Zm-1.66-3.28H5.64v2.68h5.43v-2.68Zm7.28,0h-5.62v2.68h5.62v-2.68Zm.29,5.98h-5.9v2.42h5.9v-2.42Zm-5.9,3.02v1.69l.03,.91h5.88v-2.6h-5.9Z"/><path class="cls-1" d="M12.56,148.23h4.76c.57-.62,.73-.83,1.33-1.43,.88,.73,1.17,.96,2.05,1.72,.08,.08,.1,.13,.1,.18,0,.08-.08,.13-.26,.13h-7.98v2.37h6.99c.65-.7,.86-.91,1.53-1.59,.99,.75,1.27,1.01,2.24,1.79,.05,.1,.1,.18,.1,.23,0,.1-.1,.16-.29,.16H12.95c.73,.78,1.95,1.74,3.04,2.39,1.4,.83,3.33,1.59,5.2,2.05,.83,.21,1.43,.29,2.76,.44v.39c-.91,.26-1.17,.49-1.79,1.61-2.86-1.09-4.13-1.74-5.75-2.91-1.43-1.07-2.47-2.05-3.85-3.69v2.57c0,.49,0,2.13,.03,4.86-.03,.39-.21,.44-1.51,.44-.26,0-.31-.08-.31-.31v-.05c.05-1.25,.13-4.08,.13-5.04v-2.16c-1.87,1.87-3.28,2.99-5.28,4.16-1.48,.86-2.7,1.38-5.43,2.26l-.18-.42c2.65-1.14,4.42-2.18,6.45-3.77,1.27-.99,1.85-1.56,2.91-2.83H3.69c-.99,0-1.82,.08-2.7,.21l-.16-1.07c.99,.21,1.64,.26,2.86,.26h7.2v-2.37H6.24c-.83,0-1.59,.05-2.55,.16l-.16-1.04c1.07,.21,1.72,.29,2.7,.29h4.65v-2.39H4.76c-.88,0-1.43,.03-2.42,.13l-.18-1.01c1.09,.23,1.53,.29,2.6,.29h4.06c-.13-.21-.16-.26-.29-.62-.36-1.04-.81-1.9-1.48-2.78l.23-.31H3.33c-1.27,0-1.82,.03-2.57,.13l-.18-1.07c1.25,.29,1.74,.34,2.76,.34h5.56v-2.39c0-.83-.03-1.33-.08-2.34,2.26,.18,2.68,.26,2.68,.55,0,.21-.21,.31-.99,.55v3.64h2.63v-2.39c0-1.12,0-1.43-.05-2.31,2.18,.21,2.24,.23,2.44,.31,.18,.05,.26,.13,.26,.26,0,.21-.16,.29-1.01,.55v3.59h1.51c1.69-2.78,2-3.35,2.31-4.45,.78,.31,1.82,.75,2.29,1.01,.18,.1,.23,.16,.23,.26,0,.21-.21,.29-1.12,.31-1.87,1.85-1.98,1.95-3.02,2.86h3.3q.62-.7,1.46-1.64c1.04,.78,1.35,1.04,2.34,1.9,.1,.1,.13,.16,.13,.21,0,.1-.08,.13-.26,.13H15.71q.86,.49,2,1.14c.23,.13,.36,.26,.36,.36,0,.18-.21,.26-.57,.26-.03,0-.36,0-.57-.03-.31,.26-.57,.47-.73,.6-.99,.86-1.2,1.01-1.69,1.38h4.45c.62-.62,.81-.83,1.46-1.43,.99,.7,1.3,.94,2.24,1.72,.05,.05,.08,.13,.08,.18,0,.08-.08,.13-.29,.13H12.56v2.39Zm-8.81-11.73c2.26,1.04,3.2,1.79,3.2,2.6,0,.62-.49,1.46-.86,1.46-.23,0-.36-.18-.62-.81-.52-1.2-1.04-2-1.95-3.02l.23-.23Zm3.64,5.02c2.16,1.53,2.68,2.05,2.68,2.65,0,.36-.26,.78-.62,1.07h4.39c1.07-1.74,1.46-2.6,1.74-3.72H7.38Z"/></g></g></svg>