<?xml version="1.0" encoding="UTF-8"?><svg id="_イヤー_2" xmlns="http://www.w3.org/2000/svg" viewBox="0 0 432.09 24.19"><g id="_イヤー_1-2"><g><path d="M358.07,3.69c-.18-.9-.62-2.41-1.13-3.61l-2.26,.33c.56,1.49,.85,2.54,1.07,3.66l2.32-.38Zm-21.28,9.87c1.07-.64,3.46-2,6.12-5.38h8.33c-2.47,9-8.64,10.95-15.12,11.79l1.67,3.85c6.43-1.1,11.69-2.92,15.56-9.87,1.56-2.82,2.49-5.97,2.87-9.17l-4.59,.72c-.02-.16-.16-.92-.18-1.1h-6.1c.67-1.23,.97-2.02,1.34-2.97l-4.39-.52c-1.17,3.49-3.53,7.33-8.11,9.61l2.61,3.05Zm17.81-9.38c-.31-1.28-.67-2.59-1.18-3.81l-2.26,.33c.31,.8,.93,3.16,1.03,3.9l2.41-.41Z" fill="#005748"/><path d="M365.8,8.33c0,2.85-.23,5.67-.8,8.46-.56,2.79-1.77,5.46-3.85,7.4l-3.23-3.33c.9-.85,2.49-2.41,3.14-5.77,.2-1.07,.61-3.61,.61-6.3V2.36h4.13v5.97Zm7,9.97c.84-.28,2.44-.82,3.89-3.35,1.23-2.13,1.56-4.41,1.74-5.51l3.85,1.85c-.64,3.25-1.98,6.35-4.39,8.63-3.51,3.26-7.56,3.44-9.18,3.52V1.54h4.08V18.3Z" fill="#005748"/><rect x="385.19" y="10.23" width="22.61" height="4.17" fill="#005748"/><path d="M432.09,2.87c0-1.59-1.28-2.87-2.89-2.87s-2.89,1.28-2.89,2.87,1.28,2.89,2.89,2.89,2.89-1.28,2.89-2.89m-22.78-.11V6.82h15.82c-.82,6.21-3.64,11.41-14.15,12.92l1.95,3.89c13.41-2.74,15.86-10.84,16.63-17.04-1.99,0-3.97-.77-4.07-3.82h-16.17Zm21.09,.11c0,.66-.54,1.2-1.21,1.2s-1.2-.54-1.2-1.2,.54-1.18,1.2-1.18,1.21,.54,1.21,1.18" fill="#005748"/></g><path d="M9.28,13.66V7.48h8.38c2.36,0,3.42,.84,3.42,2.22,0,1.19-1.13,1.78-3.17,1.78h-3.91v2.84h7.23c3.89,0,5.53-1.98,5.53-4.73,0-2.96-1.71-4.95-5.4-4.95H9.28V.57H3.58V4.63H0v2.85H3.58v7.32c0,7.93,8.16,7.73,8.16,7.73h14.23v-2.84s-10.4-.23-11.25-.23c-2.45,0-5.43-2.06-5.43-5.81Z" fill="#005748"/><path d="M34.78,22.16c5.33,0,6.56-1.26,8.22-2.25,2.19-1.32,8.27-6.78,10.1-11.22h-6.09c-.42,.93-8.28,11.35-12.17,9.46-1.17-.57-1.24-1.13-1.24-4.21V.69h-5.48V14.33c0,7.33,4.5,7.83,6.65,7.83Z" fill="#005748"/><path d="M79.45,4.64V1.8h-25.61v2.84h7.55v4.61h-7.55v2.63h7.55v3.25c0,6.34,3.06,7.32,8.26,7.32h8.77v-2.85s-3.91-.14-5.43-.14c-3.89,0-6.61-.87-6.61-3.88v-3.69h13.07v-2.63h-13.07V4.64h13.07Z" fill="#005748"/><path d="M94,14.99c0,6.05-3.63,7.54-7.61,7.54h-5.41v-2.85h4.49c2.18,0,3.4-1.97,3.4-4.85,0-1.99,0-5.06,0-5.06h9.53c2.38,0,3.15-1.09,3.15-2.43,0-2.11-1.76-2.7-3.15-2.7h-17.42V1.8h19.13c9.29,0,9.14,10.81,1.49,10.81h-7.59s-.01,1.24-.01,2.38Z" fill="#005748"/><path d="M134.22,11.15c.87,5.08,2.39,7.15,3.96,8.77l-3.54,2.73c-1.07-1.19-3.82-4.15-4.52-11l4.1-.51Zm-21.17,8.55c.73-.69,1.94-1.79,2.92-3.97,.9-2,1.07-3.72,1.12-4.56l4.13,.41c-.11,1.01-.34,3.16-1.32,5.79-1.15,3.09-2.75,4.58-3.46,5.26l-3.4-2.93M127.9,1.57v3.71h9.38v3.79h-9.38v14.26h-4.5V9.05h-9.35v-3.77h9.35V1.57h4.5" fill="#005748"/><rect x="141.62" y="10.19" width="24.77" height="4.23" fill="#005748"/><path d="M185.33,18.2c.92-.28,2.66-.81,4.27-3.31,1.34-2.1,1.71-4.35,1.9-5.44l4.22,1.82c-.7,3.21-2.17,6.27-4.81,8.52-3.85,3.21-8.29,3.38-10.06,3.46V1.67h4.47V18.2Zm-7.67-9.84c0,2.81-.25,5.59-.87,8.34-.62,2.76-1.93,5.38-4.21,7.3l-3.55-3.29c.99-.83,2.73-2.37,3.43-5.69,.23-1.07,.68-3.57,.68-6.22V2.48h4.52v5.89" fill="#005748"/><path d="M221.26,4.29c-.26-1.57-.93-3.49-1.07-3.86l2.3-.25c.56,1.31,.7,1.84,1.15,3.79l-2.39,.32Zm.75,4.28v3.74h-8.85l-.02,.56c-.09,2.62-.99,5.2-2.9,7.15-2.16,2.2-5.87,3.16-9.21,3.77l-1.88-3.69c2.07-.28,5.65-.76,7.41-2.33,1.63-1.44,1.92-4.19,1.94-4.9l.03-.56h-10.31v-3.74h23.79m-4.41-4.19c-.2-1.57-.34-2.1-.9-3.79l2.3-.25c.7,1.77,.9,2.78,1.07,3.66l-2.47,.39m-1.44-2.2c.21,.63,.51,1.92,.59,2.93l1.49-.17v.91h-18.14V2.18h16.05" fill="#005748"/><path d="M238.68,23.81h-4.16V15.44c-3.18,1.64-5.36,2.41-7.73,3.11l-2.19-3.14c3.28-.99,6.3-1.99,9.55-4,2.86-1.75,5.53-3.76,7.61-6.24l3.43,2.4c-.87,.89-2.92,2.96-6.52,5.38v10.84Z" fill="#005748"/><path d="M248.32,18.89c10.53-.78,16.54-4.1,19.89-14.71l4.24,1.92c-4.44,13.4-13.23,15.92-22.64,17.14l-1.49-4.35Zm8.46-9.03c-2.61-1.62-5.84-3.01-8.85-3.89l2.02-3.46c3.77,1.01,6.74,2.27,9.22,3.64l-2.39,3.71" fill="#005748"/><path d="M294.51,4.68c-.12-.73-.79-3.05-1.13-3.83l2.47-.33c.57,1.21,.96,2.5,1.3,3.76l-2.64,.4Zm3.9-.5c-.25-1.12-.56-2.15-1.18-3.61l2.47-.33c.57,1.19,1.04,2.67,1.24,3.56l-2.53,.38m-23.65,6.34c5.03-2.25,7.61-6.04,8.91-9.48l4.8,.5c-.39,.94-.73,1.72-1.46,2.93h6.69c.03,.18,.17,.94,.18,1.09l5.04-.71c-.42,3.17-1.43,6.27-3.15,9.05-4.24,6.85-10,8.64-17.05,9.73l-1.82-3.79c7.11-.84,13.87-2.76,16.57-11.63h-9.12c-2.93,3.34-5.54,4.68-6.72,5.31l-2.87-3.01" fill="#005748"/><path d="M301.93,20.12c1.57-.58,5.56-2.01,9.78-5.99,3.6-3.41,4.91-6.42,5.52-7.86h-13.61V2.43h19.6c-.33,1.75-1.12,5.66-5.11,10.79,3.29,2.12,6.4,4.51,9.24,7.11l-3.79,3.33c-2.64-2.78-6.21-5.89-8.14-7.41-.45,.46-1.46,1.48-2.98,2.69-3.73,2.98-6.51,4.01-7.94,4.57l-2.56-3.39Z" fill="#005748"/></g></svg>