<svg xmlns="http://www.w3.org/2000/svg" xmlns:xlink="http://www.w3.org/1999/xlink" width="525" height="108" viewBox="0 0 525 108">
  <defs>
    <filter id="パス_3902" x="0" y="0" width="525" height="108" filterUnits="userSpaceOnUse">
      <feOffset dy="3" input="SourceAlpha"/>
      <feGaussianBlur stdDeviation="3" result="blur"/>
      <feFlood flood-opacity="0.161"/>
      <feComposite operator="in" in2="blur"/>
      <feComposite in="SourceGraphic"/>
    </filter>
  </defs>
  <g id="グループ_1669" data-name="グループ 1669" transform="translate(-378 -390.633)">
    <g transform="matrix(1, 0, 0, 1, 378, 390.63)" filter="url(#パス_3902)">
      <path id="パス_3902-2" data-name="パス 3902" d="M10,0H497a10,10,0,0,1,10,10V80a10,10,0,0,1-10,10H10A10,10,0,0,1,0,80V10A10,10,0,0,1,10,0Z" transform="translate(9 6)" fill="#143871"/>
    </g>
    <path id="パス_3817" data-name="パス 3817" d="M1094.919,1753.651l-2.439,2.441,7.9,7.9-7.9,7.9,2.439,2.439L1105.261,1764Z" transform="translate(-244.424 -1324.859)" fill="#fff"/>
    <path id="パス_3903" data-name="パス 3903" d="M18,0H276a18,18,0,0,1,0,36H18A18,18,0,0,1,18,0Z" transform="translate(493 436.633)" fill="#fff"/>
    <path id="パス_3904" data-name="パス 3904" d="M15.048-17.622H11.924c.088.572.154,1.276.22,2.222q.033.726.066,1.584H4.928a21.059,21.059,0,0,1-2.442-.154v2.926c.77-.044,1.716-.088,2.508-.088H11A26.122,26.122,0,0,1,1.32-3.5L3.344-1.21A30.253,30.253,0,0,0,12.32-8.646c.044,2.266.044,4.466.044,5.94,0,.638-.22.924-.77.924a18.686,18.686,0,0,1-2.926-.264L8.91.814C10.164.9,11.4.946,12.738.946c1.672,0,2.486-.814,2.464-2.222-.044-2.97-.132-6.644-.2-9.856h2.838c.594,0,1.43.044,2.134.066v-2.926a17.007,17.007,0,0,1-2.288.176h-2.75c0-.572-.022-1.1-.022-1.584A18.817,18.817,0,0,1,15.048-17.622Zm13.354.9-2.068,2.2a45.743,45.743,0,0,1,5.5,4.752l2.244-2.288A44.433,44.433,0,0,0,28.4-16.72ZM25.652-2.068,27.5.836a23.825,23.825,0,0,0,8.162-3.1,23.394,23.394,0,0,0,8.14-8.14l-1.716-3.1A20.715,20.715,0,0,1,34.078-4.95,22.675,22.675,0,0,1,25.652-2.068ZM51.106-16.874v2.838c.638-.044,1.584-.066,2.288-.066H61.82c.792,0,1.826.022,2.42.066v-2.838a20.742,20.742,0,0,1-2.376.11h-8.47A18.545,18.545,0,0,1,51.106-16.874Zm14.982,6.38L64.13-11.7a4.641,4.641,0,0,1-1.606.22H51.634c-.682,0-1.628-.066-2.552-.132v2.86c.924-.088,2.024-.11,2.552-.11H62.26A9.545,9.545,0,0,1,59.994-5.06a14.839,14.839,0,0,1-7.612,3.85L54.56,1.276a16.474,16.474,0,0,0,7.854-4.752A15.81,15.81,0,0,0,65.67-9.57,8.153,8.153,0,0,1,66.088-10.494Zm4.576,1.936L72.05-5.786a44.082,44.082,0,0,0,7.766-3.168v7.04A24.639,24.639,0,0,1,79.662.968h3.476a15.125,15.125,0,0,1-.2-2.882V-10.8a40.353,40.353,0,0,0,5.918-4.774l-2.376-2.266a28.2,28.2,0,0,1-6.2,5.346A35.376,35.376,0,0,1,70.664-8.558ZM97.7-16.72l-2.068,2.2a45.743,45.743,0,0,1,5.5,4.752l2.244-2.288A44.433,44.433,0,0,0,97.7-16.72ZM94.952-2.068,96.8.836a23.825,23.825,0,0,0,8.162-3.1,23.394,23.394,0,0,0,8.14-8.14l-1.716-3.1a20.715,20.715,0,0,1-8.008,8.558A22.675,22.675,0,0,1,94.952-2.068ZM121.506-14.3h2.6v-1.144h4.708V-14.3h2.618v-1.144h4.928v-2.068h-4.928v-1.122H128.81v1.122H124.1v-1.122h-2.6v1.122h-4.774v2.068h4.774Zm2.4,4.422A6.416,6.416,0,0,1,122.452-8.6a14.532,14.532,0,0,0-1.716-1.144l.22-.132Zm1.518-1.584-.4.066h-2.2c.2-.2.4-.418.594-.638h3.806V-8.47c0,2.046.594,2.684,3.124,2.684h3.344c1.826,0,2.486-.572,2.728-2.64a6.481,6.481,0,0,1-2.046-.77c-.11,1.21-.242,1.43-.924,1.43h-2.816c-.88,0-1.056-.11-1.056-.7v-.506a31.632,31.632,0,0,0,5.808-1.386l-1.76-1.43a22.581,22.581,0,0,1-4.048,1.122v-1.364h6.336v-1.98H117.26v1.98h3.432a13.3,13.3,0,0,1-4.312,2.2,14.379,14.379,0,0,1,1.5,1.584c.418-.176.836-.374,1.254-.572a15.34,15.34,0,0,1,1.584,1.1A19.637,19.637,0,0,1,116.8-6.666a7.609,7.609,0,0,1,1.232,1.738c4.818-.968,7.7-2.926,8.822-5.94Zm11.066,7.238h-5.016V-5.7H128.81v1.474h-4.62V-5.7h-2.442v1.474H116.49v2.2h4.84c-.572.836-1.848,1.584-4.62,2.068A9.885,9.885,0,0,1,118.25,2c3.982-.814,5.346-2.332,5.764-4.026h4.8v3.96h2.662v-3.96h5.016ZM145.6-16.566v1.694h5.368v.814h-4.642v1.65h4.642v.88H144.98v1.782h14.762v-1.782h-6.226v-.88H158.4v-1.65h-4.884v-.814h5.61v-1.694h-2.86c.352-.418.726-.9,1.1-1.43l-2.552-.682a13.928,13.928,0,0,1-1.1,2.112h-2.772a9.431,9.431,0,0,0-1.408-2.09l-2.068.726a14.632,14.632,0,0,1,.9,1.364ZM143.7-18.59a23.138,23.138,0,0,1-4.752,7.986,20.177,20.177,0,0,1,1.3,2.574,17.849,17.849,0,0,0,1.276-1.518V1.892h2.464V-13.42a34.97,34.97,0,0,0,2.024-4.444ZM157.212-4.422a9.422,9.422,0,0,1-1.254,1.43c-.132-.484-.242-.99-.352-1.54h4.312v-1.76h-2.112l1.606-1.188a17.279,17.279,0,0,0-2.464-2l-1.54,1.122a13.151,13.151,0,0,1,2.354,2.068h-2.42c-.088-.924-.154-1.936-.154-2.97H152.9q.033,1.551.2,2.97h-2.86V-7.546c.792-.132,1.54-.286,2.2-.462l-1.3-1.518a35.161,35.161,0,0,1-6.292.924,6.153,6.153,0,0,1,.506,1.518c.836-.022,1.716-.088,2.618-.176v.968h-3.19v1.76h3.19V-3.41c-1.254.11-2.4.22-3.344.286L144.8-1.21l3.168-.33V-.33c0,.242-.088.308-.352.33a17.756,17.756,0,0,1-1.826-.022,6.663,6.663,0,0,1,.616,1.87,7.809,7.809,0,0,0,2.948-.308c.682-.308.88-.77.88-1.8V-1.782l2.376-.264-.044-1.8-2.332.22v-.9h3.1a16.38,16.38,0,0,0,.77,2.948,18.012,18.012,0,0,1-3.124,1.562,12.584,12.584,0,0,1,1.452,1.65A19.49,19.49,0,0,0,154.99.22a3.3,3.3,0,0,0,2.75,1.738c1.452-.022,2.068-.55,2.376-2.684a4.447,4.447,0,0,1-1.628-.968c-.088,1.1-.22,1.5-.572,1.5-.418,0-.814-.33-1.166-.9a13.265,13.265,0,0,0,2.464-2.64Zm11.2-7.238h2.75v-2.464h-2.75v-4.51H165.9v4.51h-3.146v2.464h2.838a21.407,21.407,0,0,1-3.41,7.348,12.893,12.893,0,0,1,1.232,2.464A18.869,18.869,0,0,0,165.9-6.8v8.69h2.508V-7.26c.616.99,1.254,2.024,1.584,2.728l1.5-2.134c-.44-.55-2.31-2.816-3.08-3.652Zm6.028,9.746V-4.73h5.17v2.816Zm5.17-7.986v2.794h-5.17V-9.9Zm0-5.082v2.728h-5.17v-2.728Zm-7.678-2.464V1.716h2.508V.462h5.17V1.584h2.64v-19.03Zm31.394-.022a19.322,19.322,0,0,1-1.584,3.586l1.936.748c.616-.924,1.408-2.266,2.134-3.542Zm2.684,7.062a45.741,45.741,0,0,0-5.214-3.41,23.211,23.211,0,0,0,.55-4.8h-2.53c-.176,4.356-.528,6.864-5.1,8.294a6.412,6.412,0,0,1,1.452,2.068,8.283,8.283,0,0,0,4.708-3.366,32.937,32.937,0,0,1,4.4,3.19Zm-10.45,7.524A8.4,8.4,0,0,0,197.6-7.37l-2.288-.462A7.033,7.033,0,0,1,193.4-3.96Zm.022-14.454a7.12,7.12,0,0,1-1.65,3.63l2.046.88a7.844,7.844,0,0,0,1.738-4.07Zm-2.486-.616h-6.468v1.98h6.468ZM193.886-15h-8.36v2.068h8.36Zm-.726,3.058h-6.6v2h6.6Zm-6.6,4.972h6.6V-8.932h-6.6Zm4.4,3.146V-1.3h-2.266v-2.53ZM193.182-5.9h-6.688v7.5h2.2V.748h4.488ZM203.7-3.41a42.31,42.31,0,0,0,2.31-3.784l-2.574-.792A23.785,23.785,0,0,1,201.7-4.18a4.74,4.74,0,0,1-.418-1.848V-9.35h-2.662v3.322c0,1.474-1.122,4.356-5.324,5.83a10.966,10.966,0,0,1,1.43,2.134,8.769,8.769,0,0,0,5.236-4.84,8.14,8.14,0,0,0,4.752,4.84,20.671,20.671,0,0,1,1.5-2.222,7.517,7.517,0,0,1-4.51-3.85Z" transform="translate(537 429.633)" fill="#fff"/>
    <path id="パス_3905" data-name="パス 3905" d="M6.16-6.446l-2.9-.264a16.076,16.076,0,0,0-.418,3.168c0,3.036,2.53,4.73,7.568,4.73A33.736,33.736,0,0,0,18.04.418l-.022-3.08A31.338,31.338,0,0,1,10.3-1.8c-3.168,0-4.51-.99-4.51-2.42A8.245,8.245,0,0,1,6.16-6.446ZM17.248-18.04l-1.738.7a16.234,16.234,0,0,1,.946,1.562c-1.694.154-4.07.286-6.16.286a51.616,51.616,0,0,1-5.984-.286v2.926c1.782.132,3.7.242,6.006.242,2.09,0,4.818-.154,6.358-.264v-2.464c.2.374.4.748.55,1.078l1.782-.77A32.484,32.484,0,0,0,17.248-18.04Zm2.618-.99-1.76.7a23.325,23.325,0,0,1,1.782,3.036l1.76-.748A31.411,31.411,0,0,0,19.866-19.03Zm22.286,8.58-.484.176H38.192l.528-.858c-.506-.242-1.166-.484-1.892-.77a36.271,36.271,0,0,0,5.082-4.18l-1.87-1.474-.594.154H26.29V-15H36.916a22.9,22.9,0,0,1-2.794,2.068c-1.232-.462-2.464-.88-3.454-1.232l-1.3,1.98c1.408.528,3.19,1.232,4.818,1.914H24.178v2.486h8.69v6.754c0,.33-.132.418-.55.44-.44,0-2.068,0-3.366-.044A8.91,8.91,0,0,1,29.9,1.87a13.746,13.746,0,0,0,4.334-.4C35.288,1.1,35.6.44,35.6-.946V-7.788h4.642a27.807,27.807,0,0,1-1.716,2.706l2.244,1.3a29.3,29.3,0,0,0,3.52-5.742Zm5.61,4.686A16,16,0,0,1,46.6-.66a12.931,12.931,0,0,1,2,.946,20.34,20.34,0,0,0,1.32-5.676Zm4.906.484a22.39,22.39,0,0,1,1.3,4.246l2.068-.726A25.088,25.088,0,0,0,54.6-5.9Zm6.864-9.636a25.231,25.231,0,0,0,1.078-3.146l-2.684-.572a17.517,17.517,0,0,1-3.63,7.326l-.154-.264-1.848.814c.264.462.528.99.77,1.518l-2.222.088a70.824,70.824,0,0,0,4.2-5.962l-2.222-.924A34.4,34.4,0,0,1,50.8-12.43c-.22-.286-.484-.616-.77-.924.792-1.232,1.694-2.926,2.486-4.444l-2.31-.814A29.081,29.081,0,0,1,48.6-14.784l-.528-.462-1.232,1.8a20.726,20.726,0,0,1,2.64,3.014c-.33.484-.682.946-1.012,1.364L46.838-9l.22,2.288,3.256-.22V1.936h2.31V-7.106l1.254-.088a11.971,11.971,0,0,1,.308,1.188l1.98-.924a17.522,17.522,0,0,0-1.716-4.114,16.811,16.811,0,0,1,2.068,1.452,18.126,18.126,0,0,0,1.87-2.838H64.46c-.242,7.5-.572,10.714-1.232,11.4A1.086,1.086,0,0,1,62.3-.66c-.594,0-1.848,0-3.234-.132a6.254,6.254,0,0,1,.88,2.64,21,21,0,0,0,3.432-.066A2.727,2.727,0,0,0,65.494.572c.924-1.166,1.232-4.642,1.518-14.278.022-.33.022-1.21.022-1.21ZM62.018-4.862a20.692,20.692,0,0,0-2.86-4.928l-2.09,1.056a20.782,20.782,0,0,1,2.684,5.082Zm23.188-8.6a1.4,1.4,0,0,1,1.386-1.408A1.418,1.418,0,0,1,88-13.464a1.4,1.4,0,0,1-1.408,1.386A1.38,1.38,0,0,1,85.206-13.464Zm-1.452,0a2.817,2.817,0,0,0,2.838,2.838,2.836,2.836,0,0,0,2.86-2.838,2.854,2.854,0,0,0-2.86-2.86A2.836,2.836,0,0,0,83.754-13.464ZM70.07-6.27l2.64,2.728c.4-.572.924-1.342,1.43-2.046.88-1.188,2.442-3.366,3.3-4.466.638-.792,1.1-.836,1.8-.132.792.814,2.75,2.948,4.026,4.466,1.3,1.518,3.168,3.784,4.642,5.61l2.42-2.6c-1.694-1.8-3.938-4.246-5.412-5.808-1.32-1.43-3.014-3.19-4.488-4.576-1.716-1.606-3.014-1.364-4.312.176-1.518,1.8-3.234,3.96-4.224,4.972A24.758,24.758,0,0,1,70.07-6.27Zm24.354-3.916v3.454c.814-.066,2.288-.11,3.542-.11H109.78c.924,0,2.046.088,2.574.11v-3.454c-.572.044-1.54.132-2.574.132H97.966C96.822-10.054,95.216-10.12,94.424-10.186Zm36.7-6.71-1.848.77a19.872,19.872,0,0,1,1.936,3.454l1.914-.814A37.411,37.411,0,0,0,131.12-16.9Zm3.014-1.056-1.87.77a21.14,21.14,0,0,1,2.068,3.344l1.87-.836A28.292,28.292,0,0,0,134.134-17.952Zm-12.584.638-1.584,2.42c1.452.814,3.74,2.288,4.972,3.146l1.628-2.42C125.422-14.982,123-16.522,121.55-17.314Zm-4.07,15.62,1.65,2.882a27.668,27.668,0,0,0,7.348-2.706,26.538,26.538,0,0,0,8.734-7.92l-1.694-2.992a22.271,22.271,0,0,1-8.558,8.25A23.593,23.593,0,0,1,117.48-1.694Zm.682-10.6-1.584,2.42c1.474.792,3.762,2.266,5.016,3.146L123.2-9.2C122.078-9.988,119.658-11.506,118.162-12.3ZM148.588-2.86c0-.836.836-1.364,2.09-1.364a6.792,6.792,0,0,1,1.76.242v.4c0,1.3-.462,2-1.8,2C149.468-1.584,148.588-1.958,148.588-2.86Zm6.534-14.366h-3.146a9.34,9.34,0,0,1,.154,1.452c0,.462.022,1.364.022,2.442-.506.022-1.034.022-1.54.022a36.657,36.657,0,0,1-3.85-.2v2.618c1.3.088,2.552.132,3.85.132.506,0,1.034,0,1.562-.022.022,1.562.11,3.168.154,4.532a9.787,9.787,0,0,0-1.43-.088c-2.992,0-4.884,1.54-4.884,3.762,0,2.31,1.892,3.586,4.928,3.586,2.97,0,4.158-1.5,4.29-3.608a23.077,23.077,0,0,1,2.684,2.222l1.518-2.31a14.4,14.4,0,0,0-4.268-2.838c-.088-1.5-.2-3.256-.242-5.39,1.21-.088,2.354-.22,3.41-.374v-2.75a30.143,30.143,0,0,1-3.41.506c.022-.968.044-1.782.066-2.266A13.775,13.775,0,0,1,155.122-17.226Zm-10.736.242-3.036-.264a20.988,20.988,0,0,1-.22,2.156,69.671,69.671,0,0,0-.9,9.174,25.84,25.84,0,0,0,.88,7.04l2.486-.2c-.022-.308-.044-.682-.044-.9a6.14,6.14,0,0,1,.11-1.034c.264-1.188.968-3.432,1.584-5.236l-1.342-1.1c-.33.748-.7,1.5-.99,2.266a10.4,10.4,0,0,1-.088-1.43,58.727,58.727,0,0,1,1.056-8.514A14.285,14.285,0,0,1,144.386-16.984Zm21.67.99v2.9c1.782.154,3.7.242,6.006.242,2.09,0,4.818-.132,6.358-.264v-2.926c-1.694.176-4.2.308-6.38.308A57.712,57.712,0,0,1,166.056-15.994ZM167.9-6.666l-2.882-.264a14.232,14.232,0,0,0-.44,3.168c0,3.014,2.53,4.708,7.568,4.708A33.9,33.9,0,0,0,179.784.2l-.022-3.1a30.208,30.208,0,0,1-7.722.88c-3.168,0-4.51-1.012-4.51-2.42A8.106,8.106,0,0,1,167.9-6.666Zm26.422-10.868-3.124-.132a9.976,9.976,0,0,1-.11,2.222c-.044.264-.088.572-.132.9a31.444,31.444,0,0,1-4.312-.418v2.728c1.122.11,2.42.176,3.806.2a35.2,35.2,0,0,1-2.508,7.392l2.6.924a8.128,8.128,0,0,1,.616-.968,7.613,7.613,0,0,1,6.094-2.574c2.156,0,3.278,1.1,3.278,2.42,0,3.234-4.862,3.828-9.68,3.036l.77,2.838c7.106.77,11.88-1.012,11.88-5.962,0-2.816-2.354-4.708-5.918-4.708a10.72,10.72,0,0,0-5.456,1.386c.33-1.078.682-2.486.99-3.828,2.948-.154,6.446-.572,8.734-.946l-.044-2.618a53.868,53.868,0,0,1-8.14,1.034c.044-.242.088-.484.132-.682C193.952-16.016,194.084-16.764,194.326-17.534Zm20.482-.176-.7,2.64c1.716.44,6.622,1.474,8.844,1.76l.66-2.684A67.337,67.337,0,0,1,214.808-17.71Zm.132,4.422-2.948-.418a81.163,81.163,0,0,1-1.1,9.2l2.53.638a5.33,5.33,0,0,1,.814-1.276,7.832,7.832,0,0,1,6.116-2.6c1.914,0,3.278,1.056,3.278,2.486,0,2.794-3.5,4.4-10.1,3.5l.836,2.882c9.152.77,12.32-2.31,12.32-6.314,0-2.662-2.244-5.038-6.094-5.038a10.769,10.769,0,0,0-6.49,2.09C214.258-9.394,214.654-12.078,214.94-13.288Z" transform="translate(526 464.633)" fill="#143871"/>
  </g>
</svg>
