<svg xmlns="http://www.w3.org/2000/svg" width="125" height="125" viewBox="0 0 125 125">
  <g id="グループ_1669" data-name="グループ 1669" transform="translate(-289 -1299.633)">
    <circle id="楕円形_137" data-name="楕円形 137" cx="62.5" cy="62.5" r="62.5" transform="translate(289 1299.633)" fill="#f2ead8"/>
    <path id="パス_3822" data-name="パス 3822" d="M407.308,813.146V811.2c.068-.133.147-.261.2-.4q2.707-6.815,5.4-13.634a3.407,3.407,0,0,0,.231-1.212q.019-12.8.012-25.61a3.856,3.856,0,0,1,.055-.737,1.216,1.216,0,0,1,1.149-1.079,4.864,4.864,0,0,1,.683-.038q21.522,0,43.045,0a4.829,4.829,0,0,1,.852.063,1.136,1.136,0,0,1,.969.92,4.194,4.194,0,0,1,.087.9q.007,12.805.013,25.61a3.238,3.238,0,0,0,.222,1.156c1.735,4.407,3.5,8.8,5.222,13.214a6.275,6.275,0,0,1,.376,1.985c.056,1.322-.437,1.777-1.775,1.777q-27.468,0-54.935.009A1.744,1.744,0,0,1,407.308,813.146Zm48.772-18.4V771.91H417.069v22.835Zm-25.148,15.081h11.287c-.377-1.172-.727-2.294-1.11-3.405a.541.541,0,0,0-.42-.253q-4.115-.023-8.23,0c-.139,0-.367.1-.4.2C431.67,807.5,431.313,808.637,430.932,809.826Z" transform="translate(-85.07 570.82)" fill="#6f490c"/>
  </g>
</svg>
