<svg xmlns="http://www.w3.org/2000/svg" width="125" height="125" viewBox="0 0 125 125">
  <g id="グループ_1671" data-name="グループ 1671" transform="translate(-289 -1730.633)">
    <circle id="楕円形_139" data-name="楕円形 139" cx="62.5" cy="62.5" r="62.5" transform="translate(289 1730.633)" fill="#f2ead8"/>
    <g id="グループ_1608" data-name="グループ 1608" transform="translate(-578.168 1727.43)">
      <path id="パス_3823" data-name="パス 3823" d="M929.6,253.531H908.323c-1.546,0-2.209-.658-2.209-2.194q0-4.215,0-8.43a14.536,14.536,0,0,1,12.445-14.571,15.364,15.364,0,0,1,2.368-.153q8.745-.018,17.49-.006a14.526,14.526,0,0,1,14.64,12.43,15.106,15.106,0,0,1,.156,2.311c.018,2.81.008,5.62.007,8.43,0,1.511-.665,2.183-2.163,2.183Z" transform="translate(0 -162.662)" fill="#6f490c"/>
      <path id="パス_3824" data-name="パス 3824" d="M990.721,61.892a12.677,12.677,0,1,1,12.668-12.677A12.688,12.688,0,0,1,990.721,61.892Z" transform="translate(-61.04 0)" fill="#6f490c"/>
    </g>
  </g>
</svg>
