<svg xmlns="http://www.w3.org/2000/svg" xmlns:xlink="http://www.w3.org/1999/xlink" width="297" height="68" viewBox="0 0 297 68">
  <defs>
    <filter id="パス_3937" x="0" y="0" width="297" height="68" filterUnits="userSpaceOnUse">
      <feOffset dy="3" input="SourceAlpha"/>
      <feGaussianBlur stdDeviation="3" result="blur"/>
      <feFlood flood-opacity="0.161"/>
      <feComposite operator="in" in2="blur"/>
      <feComposite in="SourceGraphic"/>
    </filter>
  </defs>
  <g id="グループ_1670" data-name="グループ 1670" transform="translate(-576 -1414.633)">
    <g transform="matrix(1, 0, 0, 1, 576, 1414.63)" filter="url(#パス_3937)">
      <path id="パス_3937-2" data-name="パス 3937" d="M6,0H273a6,6,0,0,1,6,6V44a6,6,0,0,1-6,6H6a6,6,0,0,1-6-6V6A6,6,0,0,1,6,0Z" transform="translate(9 6)" fill="#143871"/>
    </g>
    <path id="パス_3825" data-name="パス 3825" d="M1093.821,1753.651l-1.342,1.343,4.347,4.347-4.347,4.346,1.342,1.342,5.689-5.687Z" transform="translate(-253.898 -315.332)" fill="#fff"/>
    <path id="パス_3938" data-name="パス 3938" d="M10,0H152a10,10,0,0,1,0,20H10A10,10,0,0,1,10,0Z" transform="translate(643 1442.633)" fill="#fff"/>
    <path id="パス_3939" data-name="パス 3939" d="M8.208-9.612H6.5c.048.312.084.7.12,1.212q.018.4.036.864H2.688A11.487,11.487,0,0,1,1.356-7.62v1.6c.42-.024.936-.048,1.368-.048H6A14.248,14.248,0,0,1,.72-1.908L1.824-.66a16.5,16.5,0,0,0,4.9-4.056c.024,1.236.024,2.436.024,3.24,0,.348-.12.5-.42.5a10.193,10.193,0,0,1-1.6-.144L4.86.444c.684.048,1.356.072,2.088.072C7.86.516,8.3.072,8.292-.7c-.024-1.62-.072-3.624-.108-5.376H9.732c.324,0,.78.024,1.164.036v-1.6a9.277,9.277,0,0,1-1.248.1h-1.5c0-.312-.012-.6-.012-.864A10.264,10.264,0,0,1,8.208-9.612Zm7.284.492-1.128,1.2a24.951,24.951,0,0,1,3,2.592l1.224-1.248A24.236,24.236,0,0,0,15.492-9.12Zm-1.5,7.992L15,.456a13,13,0,0,0,4.452-1.692,12.76,12.76,0,0,0,4.44-4.44l-.936-1.692A11.3,11.3,0,0,1,18.588-2.7,12.368,12.368,0,0,1,13.992-1.128ZM27.876-9.2v1.548c.348-.024.864-.036,1.248-.036h4.6c.432,0,1,.012,1.32.036V-9.2a11.314,11.314,0,0,1-1.3.06h-4.62A10.115,10.115,0,0,1,27.876-9.2Zm8.172,3.48-1.068-.66a2.531,2.531,0,0,1-.876.12h-5.94c-.372,0-.888-.036-1.392-.072v1.56c.5-.048,1.1-.06,1.392-.06h5.8A5.206,5.206,0,0,1,32.724-2.76a8.094,8.094,0,0,1-4.152,2.1L29.76.7A8.986,8.986,0,0,0,34.044-1.9,8.624,8.624,0,0,0,35.82-5.22,4.446,4.446,0,0,1,36.048-5.724Zm2.5,1.056L39.3-3.156a24.045,24.045,0,0,0,4.236-1.728v3.84A13.439,13.439,0,0,1,43.452.528h1.9a8.25,8.25,0,0,1-.108-1.572V-5.892a22.011,22.011,0,0,0,3.228-2.6l-1.3-1.236a15.384,15.384,0,0,1-3.384,2.916A19.3,19.3,0,0,1,38.544-4.668ZM53.292-9.12l-1.128,1.2a24.951,24.951,0,0,1,3,2.592l1.224-1.248A24.236,24.236,0,0,0,53.292-9.12Zm-1.5,7.992L52.8.456a13,13,0,0,0,4.452-1.692,12.76,12.76,0,0,0,4.44-4.44l-.936-1.692A11.3,11.3,0,0,1,56.388-2.7,12.368,12.368,0,0,1,51.792-1.128ZM66.276-7.8h1.416v-.624H70.26V-7.8h1.428v-.624h2.688V-9.552H71.688v-.612H70.26v.612H67.692v-.612H66.276v.612h-2.6v1.128h2.6Zm1.308,2.412a3.5,3.5,0,0,1-.792.7,7.927,7.927,0,0,0-.936-.624l.12-.072Zm.828-.864-.216.036H67c.108-.108.216-.228.324-.348H69.4V-4.62c0,1.116.324,1.464,1.7,1.464h1.824c1,0,1.356-.312,1.488-1.44a3.535,3.535,0,0,1-1.116-.42c-.06.66-.132.78-.5.78H71.256c-.48,0-.576-.06-.576-.384V-4.9a17.254,17.254,0,0,0,3.168-.756l-.96-.78a12.317,12.317,0,0,1-2.208.612v-.744h3.456v-1.08H63.96v1.08h1.872a7.252,7.252,0,0,1-2.352,1.2A7.843,7.843,0,0,1,64.3-4.5c.228-.1.456-.2.684-.312a8.369,8.369,0,0,1,.864.6,10.711,10.711,0,0,1-2.136.576,4.15,4.15,0,0,1,.672.948c2.628-.528,4.2-1.6,4.812-3.24ZM74.448-2.3H71.712v-.8H70.26v.8H67.74v-.8H66.408v.8H63.54v1.2h2.64c-.312.456-1.008.864-2.52,1.128a5.392,5.392,0,0,1,.84,1.068C66.672.648,67.416-.18,67.644-1.1H70.26v2.16h1.452V-1.1h2.736Zm4.968-6.732v.924h2.928v.444H79.812v.9h2.532v.48H79.08v.972h8.052v-.972h-3.4v-.48H86.4v-.9H83.736v-.444H86.8v-.924h-1.56c.192-.228.4-.492.6-.78l-1.392-.372a7.6,7.6,0,0,1-.6,1.152H82.332a5.144,5.144,0,0,0-.768-1.14l-1.128.4a7.981,7.981,0,0,1,.492.744Zm-1.032-1.1a12.621,12.621,0,0,1-2.592,4.356,11.006,11.006,0,0,1,.708,1.4,9.736,9.736,0,0,0,.7-.828v6.24H78.54V-7.32a19.074,19.074,0,0,0,1.1-2.424Zm7.368,7.728a5.139,5.139,0,0,1-.684.78c-.072-.264-.132-.54-.192-.84h2.352v-.96H86.076l.876-.648a9.425,9.425,0,0,0-1.344-1.092l-.84.612a7.173,7.173,0,0,1,1.284,1.128h-1.32c-.048-.5-.084-1.056-.084-1.62H83.4q.018.846.108,1.62h-1.56v-.684c.432-.072.84-.156,1.2-.252L82.44-5.2a19.179,19.179,0,0,1-3.432.5,3.356,3.356,0,0,1,.276.828c.456-.012.936-.048,1.428-.1v.528h-1.74v.96h1.74v.612c-.684.06-1.308.12-1.824.156l.1,1.044,1.728-.18v.66c0,.132-.048.168-.192.18a9.685,9.685,0,0,1-1-.012,3.635,3.635,0,0,1,.336,1.02A4.26,4.26,0,0,0,81.468.84c.372-.168.48-.42.48-.984V-.972l1.3-.144L83.22-2.1l-1.272.12v-.492H83.64a8.935,8.935,0,0,0,.42,1.608,9.825,9.825,0,0,1-1.7.852,6.864,6.864,0,0,1,.792.9A10.631,10.631,0,0,0,84.54.12a1.8,1.8,0,0,0,1.5.948c.792-.012,1.128-.3,1.3-1.464a2.425,2.425,0,0,1-.888-.528c-.048.6-.12.816-.312.816-.228,0-.444-.18-.636-.492a7.235,7.235,0,0,0,1.344-1.44ZM91.86-6.36h1.5V-7.7h-1.5v-2.46H90.492V-7.7H88.776V-6.36h1.548a11.677,11.677,0,0,1-1.86,4.008,7.032,7.032,0,0,1,.672,1.344,10.292,10.292,0,0,0,1.356-2.7v4.74H91.86V-3.96c.336.54.684,1.1.864,1.488l.816-1.164c-.24-.3-1.26-1.536-1.68-1.992Zm3.288,5.316V-2.58h2.82v1.536ZM97.968-5.4v1.524h-2.82V-5.4Zm0-2.772v1.488h-2.82V-8.172ZM93.78-9.516V.936h1.368V.252h2.82V.864h1.44V-9.516ZM110.9-9.528a10.54,10.54,0,0,1-.864,1.956l1.056.408c.336-.5.768-1.236,1.164-1.932Zm1.464,3.852a24.95,24.95,0,0,0-2.844-1.86,12.66,12.66,0,0,0,.3-2.616h-1.38c-.1,2.376-.288,3.744-2.784,4.524a3.5,3.5,0,0,1,.792,1.128,4.518,4.518,0,0,0,2.568-1.836,17.966,17.966,0,0,1,2.4,1.74Zm-5.7,4.1a4.584,4.584,0,0,0,1.116-2.448l-1.248-.252a3.836,3.836,0,0,1-1.044,2.112Zm.012-7.884a3.884,3.884,0,0,1-.9,1.98L106.9-7a4.278,4.278,0,0,0,.948-2.22Zm-1.356-.336H101.8v1.08h3.528Zm.432,1.608H101.2v1.128h4.56Zm-.4,1.668h-3.6v1.092h3.6ZM101.76-3.8h3.6V-4.872h-3.6Zm2.4,1.716v1.38h-1.236v-1.38Zm1.212-1.128h-3.648V.876h1.2V.408h2.448Zm5.736,1.356a23.08,23.08,0,0,0,1.26-2.064l-1.4-.432a12.974,12.974,0,0,1-.948,2.076,2.585,2.585,0,0,1-.228-1.008V-5.1h-1.452v1.812c0,.8-.612,2.376-2.9,3.18a5.982,5.982,0,0,1,.78,1.164,4.783,4.783,0,0,0,2.856-2.64,4.44,4.44,0,0,0,2.592,2.64,11.275,11.275,0,0,1,.816-1.212,4.1,4.1,0,0,1-2.46-2.1Z" transform="translate(668 1438.633)" fill="#fff"/>
    <path id="パス_3940" data-name="パス 3940" d="M3.36-3.516,1.776-3.66a8.769,8.769,0,0,0-.228,1.728c0,1.656,1.38,2.58,4.128,2.58A18.4,18.4,0,0,0,9.84.228l-.012-1.68a17.093,17.093,0,0,1-4.212.468c-1.728,0-2.46-.54-2.46-1.32A4.5,4.5,0,0,1,3.36-3.516ZM9.408-9.84l-.948.384a8.855,8.855,0,0,1,.516.852c-.924.084-2.22.156-3.36.156A28.154,28.154,0,0,1,2.352-8.6v1.6c.972.072,2.016.132,3.276.132,1.14,0,2.628-.084,3.468-.144V-8.364c.108.2.216.408.3.588l.972-.42A17.718,17.718,0,0,0,9.408-9.84Zm1.428-.54L9.876-10a12.723,12.723,0,0,1,.972,1.656l.96-.408A17.134,17.134,0,0,0,10.836-10.38ZM22.992-5.7l-.264.1h-1.9l.288-.468c-.276-.132-.636-.264-1.032-.42a19.784,19.784,0,0,0,2.772-2.28l-1.02-.8-.324.084H14.34v1.308h5.8a12.491,12.491,0,0,1-1.524,1.128c-.672-.252-1.344-.48-1.884-.672l-.708,1.08c.768.288,1.74.672,2.628,1.044h-5.46v1.356h4.74V-.564c0,.18-.072.228-.3.24s-1.128,0-1.836-.024a4.86,4.86,0,0,1,.516,1.368A7.5,7.5,0,0,0,18.672.8c.576-.2.744-.564.744-1.32V-4.248h2.532a15.168,15.168,0,0,1-.936,1.476l1.224.708A15.984,15.984,0,0,0,24.156-5.2Zm3.06,2.556A8.725,8.725,0,0,1,25.416-.36a7.054,7.054,0,0,1,1.092.516,11.1,11.1,0,0,0,.72-3.1Zm2.676.264a12.213,12.213,0,0,1,.708,2.316l1.128-.4a13.684,13.684,0,0,0-.78-2.256Zm3.744-5.256a13.762,13.762,0,0,0,.588-1.716L31.6-10.164a9.555,9.555,0,0,1-1.98,4l-.084-.144-1.008.444c.144.252.288.54.42.828l-1.212.048a38.632,38.632,0,0,0,2.292-3.252l-1.212-.5a18.763,18.763,0,0,1-1.1,1.968c-.12-.156-.264-.336-.42-.5.432-.672.924-1.6,1.356-2.424l-1.26-.444a15.863,15.863,0,0,1-.876,2.088l-.288-.252-.672.984a11.3,11.3,0,0,1,1.44,1.644c-.18.264-.372.516-.552.744l-.888.036.12,1.248,1.776-.12V1.056H28.7V-3.876l.684-.048a6.53,6.53,0,0,1,.168.648l1.08-.5A9.557,9.557,0,0,0,29.7-6.024a9.17,9.17,0,0,1,1.128.792,9.887,9.887,0,0,0,1.02-1.548H35.16c-.132,4.092-.312,5.844-.672,6.216a.592.592,0,0,1-.5.2c-.324,0-1.008,0-1.764-.072a3.411,3.411,0,0,1,.48,1.44A11.455,11.455,0,0,0,34.572.972a1.487,1.487,0,0,0,1.152-.66c.5-.636.672-2.532.828-7.788.012-.18.012-.66.012-.66Zm1.356,5.484a11.287,11.287,0,0,0-1.56-2.688l-1.14.576a11.336,11.336,0,0,1,1.464,2.772ZM46.476-7.344a.763.763,0,0,1,.756-.768A.773.773,0,0,1,48-7.344a.763.763,0,0,1-.768.756A.753.753,0,0,1,46.476-7.344Zm-.792,0A1.537,1.537,0,0,0,47.232-5.8a1.547,1.547,0,0,0,1.56-1.548,1.557,1.557,0,0,0-1.56-1.56A1.547,1.547,0,0,0,45.684-7.344ZM38.22-3.42l1.44,1.488c.216-.312.5-.732.78-1.116.48-.648,1.332-1.836,1.8-2.436.348-.432.6-.456.984-.072.432.444,1.5,1.608,2.2,2.436s1.728,2.064,2.532,3.06l1.32-1.416c-.924-.984-2.148-2.316-2.952-3.168-.72-.78-1.644-1.74-2.448-2.5-.936-.876-1.644-.744-2.352.1-.828.984-1.764,2.16-2.3,2.712C38.844-3.972,38.58-3.708,38.22-3.42ZM51.5-5.556v1.884c.444-.036,1.248-.06,1.932-.06H59.88c.5,0,1.116.048,1.4.06V-5.556c-.312.024-.84.072-1.4.072H53.436C52.812-5.484,51.936-5.52,51.5-5.556ZM71.52-9.216l-1.008.42a10.839,10.839,0,0,1,1.056,1.884l1.044-.444A20.4,20.4,0,0,0,71.52-9.216Zm1.644-.576-1.02.42a11.53,11.53,0,0,1,1.128,1.824L74.292-8A15.432,15.432,0,0,0,73.164-9.792ZM66.3-9.444l-.864,1.32c.792.444,2.04,1.248,2.712,1.716l.888-1.32C68.412-8.172,67.092-9.012,66.3-9.444ZM64.08-.924l.9,1.572A15.092,15.092,0,0,0,68.988-.828a14.475,14.475,0,0,0,4.764-4.32L72.828-6.78a12.148,12.148,0,0,1-4.668,4.5A12.869,12.869,0,0,1,64.08-.924Zm.372-5.784-.864,1.32c.8.432,2.052,1.236,2.736,1.716L67.2-5.016C66.588-5.448,65.268-6.276,64.452-6.708Zm16.6,5.148c0-.456.456-.744,1.14-.744a3.7,3.7,0,0,1,.96.132v.216c0,.708-.252,1.092-.984,1.092C81.528-.864,81.048-1.068,81.048-1.56ZM84.612-9.4H82.9a5.1,5.1,0,0,1,.084.792c0,.252.012.744.012,1.332-.276.012-.564.012-.84.012a20,20,0,0,1-2.1-.108V-5.94c.708.048,1.392.072,2.1.072.276,0,.564,0,.852-.012.012.852.06,1.728.084,2.472a5.338,5.338,0,0,0-.78-.048c-1.632,0-2.664.84-2.664,2.052,0,1.26,1.032,1.956,2.688,1.956,1.62,0,2.268-.816,2.34-1.968A12.586,12.586,0,0,1,86.136-.2l.828-1.26a7.854,7.854,0,0,0-2.328-1.548c-.048-.816-.108-1.776-.132-2.94.66-.048,1.284-.12,1.86-.2v-1.5a16.441,16.441,0,0,1-1.86.276c.012-.528.024-.972.036-1.236A7.516,7.516,0,0,1,84.612-9.4Zm-5.856.132L77.1-9.408a11.448,11.448,0,0,1-.12,1.176,38,38,0,0,0-.492,5,14.1,14.1,0,0,0,.48,3.84L78.324.5C78.312.336,78.3.132,78.3.012a3.349,3.349,0,0,1,.06-.564c.144-.648.528-1.872.864-2.856l-.732-.6c-.18.408-.384.816-.54,1.236a5.672,5.672,0,0,1-.048-.78A32.033,32.033,0,0,1,78.48-8.2,7.792,7.792,0,0,1,78.756-9.264Zm11.82.54V-7.14c.972.084,2.016.132,3.276.132,1.14,0,2.628-.072,3.468-.144v-1.6c-.924.1-2.292.168-3.48.168A31.48,31.48,0,0,1,90.576-8.724Zm1.008,5.088L90.012-3.78a7.763,7.763,0,0,0-.24,1.728c0,1.644,1.38,2.568,4.128,2.568A18.491,18.491,0,0,0,98.064.108l-.012-1.692a16.477,16.477,0,0,1-4.212.48c-1.728,0-2.46-.552-2.46-1.32A4.422,4.422,0,0,1,91.584-3.636ZM106-9.564l-1.7-.072a5.442,5.442,0,0,1-.06,1.212c-.024.144-.048.312-.072.492a17.151,17.151,0,0,1-2.352-.228v1.488c.612.06,1.32.1,2.076.108a19.2,19.2,0,0,1-1.368,4.032l1.416.5a4.435,4.435,0,0,1,.336-.528,4.152,4.152,0,0,1,3.324-1.4c1.176,0,1.788.6,1.788,1.32,0,1.764-2.652,2.088-5.28,1.656l.42,1.548C108.4.984,111,.012,111-2.688c0-1.536-1.284-2.568-3.228-2.568A5.847,5.847,0,0,0,104.8-4.5c.18-.588.372-1.356.54-2.088,1.608-.084,3.516-.312,4.764-.516l-.024-1.428a29.382,29.382,0,0,1-4.44.564c.024-.132.048-.264.072-.372C105.792-8.736,105.864-9.144,106-9.564Zm11.172-.1-.384,1.44c.936.24,3.612.8,4.824.96l.36-1.464A36.729,36.729,0,0,1,117.168-9.66Zm.072,2.412-1.608-.228a44.271,44.271,0,0,1-.6,5.016l1.38.348a2.908,2.908,0,0,1,.444-.7,4.272,4.272,0,0,1,3.336-1.416c1.044,0,1.788.576,1.788,1.356,0,1.524-1.908,2.4-5.508,1.908l.456,1.572c4.992.42,6.72-1.26,6.72-3.444,0-1.452-1.224-2.748-3.324-2.748a5.874,5.874,0,0,0-3.54,1.14C116.868-5.124,117.084-6.588,117.24-7.248Z" transform="translate(661 1457.633)" fill="#143871"/>
  </g>
</svg>
