<svg xmlns="http://www.w3.org/2000/svg" width="125" height="125" viewBox="0 0 125 125">
  <g id="グループ_1670" data-name="グループ 1670" transform="translate(-289 -1522.633)">
    <circle id="楕円形_138" data-name="楕円形 138" cx="62.5" cy="62.5" r="62.5" transform="translate(289 1522.633)" fill="#f2ead8"/>
    <g id="グループ_1607" data-name="グループ 1607" transform="translate(-61.759 1346.055)">
      <path id="パス_3818" data-name="パス 3818" d="M425.9,261.55c-1.091-.19-2.2-.319-3.269-.583a26.823,26.823,0,0,1-7.553-3.308,62.366,62.366,0,0,1-11.8-9.691,63.857,63.857,0,0,1-7.243-8.617,30.614,30.614,0,0,1-4.671-9.649,14.629,14.629,0,0,1-.148-7.5,4.62,4.62,0,0,1,2.023-2.815c1.344-.854,2.714-1.667,4.09-2.467a1.9,1.9,0,0,1,2.69.617q3.12,4.637,6.2,9.3a1.94,1.94,0,0,1-.5,2.787c-1.066.843-2.145,1.671-3.216,2.508a2.019,2.019,0,0,0-.583,2.852,35.425,35.425,0,0,0,6.91,8.84,38.131,38.131,0,0,0,6.152,5.2c.834.536,1.7,1.022,2.577,1.493a1.914,1.914,0,0,0,2.544-.547c.845-1.065,1.673-2.143,2.507-3.217a2.016,2.016,0,0,1,3.082-.513c2.87,1.911,5.733,3.834,8.613,5.731a3.17,3.17,0,0,1,1.419,1.589v.79a7.522,7.522,0,0,1-.329.705c-.774,1.3-1.544,2.612-2.343,3.9a4.759,4.759,0,0,1-3.164,2.229c-.682.145-1.374.241-2.062.36Z" transform="translate(0 0)" fill="#6f490c"/>
      <path id="パス_3819" data-name="パス 3819" d="M631.983,280.13c0,.234.007.468,0,.7a.766.766,0,0,1-.708.8.718.718,0,0,1-.811-.682c-.1-.737-.113-1.486-.229-2.22a13.134,13.134,0,0,0-10.08-10.684c-.766-.169-1.56-.207-2.342-.3-.2-.025-.409-.028-.611-.06a.729.729,0,0,1-.684-.807.717.717,0,0,1,.8-.7,22.576,22.576,0,0,1,3,.319,14.715,14.715,0,0,1,11.491,12.193c.037.245.073.491.1.738s.032.467.047.7Z" transform="translate(-200.912 -44.118)" fill="#6f490c"/>
      <path id="パス_3820" data-name="パス 3820" d="M617.695,308.408a10.1,10.1,0,0,1,9.629,9.8c.015.629-.238.984-.718,1.009-.5.026-.816-.3-.834-.957a8.032,8.032,0,0,0-.93-3.661,8.362,8.362,0,0,0-6.986-4.62c-.218-.019-.438-.028-.655-.061a.733.733,0,0,1-.693-.8.75.75,0,0,1,.792-.712C617.432,308.4,617.563,308.408,617.695,308.408Z" transform="translate(-200.906 -81.706)" fill="#6f490c"/>
      <path id="パス_3821" data-name="パス 3821" d="M617.522,350.708a5.429,5.429,0,0,1,5.155,5.174c.013.6-.231.951-.69.989-.493.041-.82-.256-.861-.882a3.893,3.893,0,0,0-.978-2.428,3.683,3.683,0,0,0-2.467-1.27c-.16-.015-.319-.038-.477-.066a.737.737,0,0,1-.692-.8.751.751,0,0,1,.792-.712C617.376,350.705,617.449,350.708,617.522,350.708Z" transform="translate(-200.908 -119.357)" fill="#6f490c"/>
    </g>
  </g>
</svg>
