<?xml version="1.0" encoding="UTF-8"?><svg id="_イヤー_2" xmlns="http://www.w3.org/2000/svg" viewBox="0 0 144 27.55"><g id="main"><path id="_ス_53" d="M11.36,16.08l-.05-7.51,10.22-.07c2.87-.02,4.17,.99,4.18,2.66,.01,1.46-1.36,2.17-3.84,2.19l-4.77,.03,.02,3.47,8.81-.06c4.74-.03,6.71-2.47,6.69-5.82-.02-3.59-2.12-6-6.62-5.97l-14.72,.1-.03-4.94-6.92,.05,.03,4.94-4.36,.03,.02,3.47,4.36-.03,.06,8.91c.07,9.67,9.99,9.35,9.99,9.35l17.32-.12-.02-3.47s-12.66-.16-13.71-.15c-3.79-.11-6.77-3.27-6.67-7.06Z" fill="#42210b"/><path id="_ス_54" d="M45.2,26.62c6.49-.05,7.97-1.58,9.99-2.8,2.65-1.63,10.02-8.32,12.2-13.76l-7.42,.05c-.52,1.15-9.98,13.89-14.74,11.64-1.41-.67-1.52-1.37-1.54-5.11l-.11-16.15-6.67,.05,.11,16.61c.07,8.94,5.56,9.5,8.17,9.48Z" fill="#42210b"/><path id="_ス_55" d="M101.91,3.86l-.02-3.47-31.18,.22,.02,3.47,9.2-.06,.04,5.62-9.2,.06,.02,3.2,9.2-.06,.03,3.96c.05,7.72,3.79,8.88,10.12,8.84l10.68-.07-.02-3.47s-4.78-.15-6.64-.14c-4.73,.03-8.04-1.01-8.07-4.67l-.03-4.5,15.92-.11-.02-3.2-15.92,.11-.04-5.62,15.92-.11Z" fill="#42210b"/><path id="_ス_56" d="M120.74,16.12c.05,7.36-4.36,9.21-9.2,9.24l-6.6,.05-.02-3.47,5.48-.04c2.64-.02,4.12-2.42,4.1-5.94-.02-2.42-.06-6.16-.06-6.16l11.61-.08c2.91-.02,3.82-1.35,3.81-2.99-.02-2.56-2.17-3.26-3.85-3.25l-21.21,.15-.02-3.47L128.07,0c11.3-.08,11.22,13.09,1.9,13.16l-9.24,.06s0,1.52,0,2.9Z" fill="#42210b"/><path id="_ス_4471" d="M143.9,22.07h.1c-.02-3-2.45-5.41-5.44-5.41h-.04c-3.01,.04-5.41,2.51-5.37,5.52,.04,2.97,2.45,5.35,5.41,5.37h.04c3.01-.02,5.42-2.47,5.41-5.48h-.1Zm-5.33,4.48h-.03c-2.46,0-4.46-1.98-4.47-4.44s1.98-4.46,4.44-4.47h.03c2.46,0,4.46,1.98,4.47,4.44s-1.98,4.46-4.44,4.47h0Z" fill="#42210b"/><path id="_ス_4472" d="M141.28,23.55c.08-.58-.24-1.14-.78-1.37,.58-.31,.92-.94,.86-1.6,0-1.15-.8-1.81-2.18-1.81h-.03l-3.04,.02c-.06,0-.1,.05-.1,.1h0l.04,6.35h0c0,.07,.05,.11,.1,.11h1.11c.06,0,.1-.05,.1-.11l-.02-2.52h1.56c.34-.06,.69,.07,.91,.34,.19,.37,.28,.79,.24,1.21-.03,.34,.04,.68,.19,.99,.02,.03,.05,.06,.09,.06h1.19c.06,0,.1-.05,.1-.11,0-.02,0-.03-.01-.05-.27-.5-.39-1.06-.34-1.63Zm-1.24-2.8c0,.61-.33,.92-.97,.92h-1.73v-1.77h1.72c.68,0,.98,.25,.98,.86h0Z" fill="#42210b"/></g></svg>