<?xml version="1.0" encoding="UTF-8"?><svg id="_イヤー_2" xmlns="http://www.w3.org/2000/svg" viewBox="0 0 117 482"><g id="main"><rect id="_方形_1586-6" width="117" height="482" fill="#fff" isolation="isolate"/><path d="M48.61,92.99c1.53,.37,3.23,1.02,4.59,1.8,1.12,.65,1.56,1.33,1.56,2.38,0,.85-.34,1.63-.75,1.63-.03,0-.27-.14-.37-.2-.21-.17-.24-.2-.85-1.12-1.05-1.46-2.28-2.62-4.18-3.88v7.31q.03,6.22,.1,7.82c-.1,.44-.37,.58-1.22,.58h-.44c-.51,0-.65-.07-.75-.34,0-.37,.03-2.99,.1-7.89v-5.92c-1.67,1.7-3.03,2.79-5.37,4.32l-.37-.51c2.21-1.84,3.77-3.47,5.68-6.02s2.99-4.39,4.18-6.97h-6.83c-.75,0-1.26,.03-2.41,.17l-.24-1.26c.92,.2,1.87,.31,2.65,.31h2.72v-3.57c0-1.36-.03-1.8-.27-2.96,.75,.07,1.33,.14,1.7,.17,1.63,.14,2.07,.24,2.07,.58,0,.27-.27,.44-1.29,.78v5h1.9c.68-.78,.92-.99,1.63-1.7,.92,.75,1.19,.99,2.01,1.7,.31,.34,.37,.44,.37,.54,0,.27-.17,.34-1.7,.68-1.43,2.55-2.35,3.91-4.22,6.22v.34Zm7.07-1.73c-.71,0-1.36,.07-2.72,.24l-.27-1.29c1.39,.24,1.9,.27,2.99,.27h4.83v-7.68c0-1.77-.03-2.65-.24-4.25,.71,.1,1.43,.17,1.77,.2,1.77,.17,2.18,.31,2.18,.61,0,.27-.37,.51-1.36,.88v10.23h3.5l1.97-2.55c1.43,1.19,1.87,1.56,3.23,2.82,.07,.07,.14,.2,.14,.24,0,.14-.17,.27-.34,.27h-8.5v15.4h4.15c.92-1.12,1.22-1.5,2.28-2.65,1.39,1.19,1.8,1.6,3.16,2.96,.1,.07,.17,.2,.17,.24,0,.14-.17,.24-.34,.24h-17.78c-1.39,0-1.97,.03-3.23,.24l-.3-1.29c1.19,.17,2.31,.27,3.54,.27h6.02v-15.4h-4.83Z" fill="#42210b" stroke="#42210b" stroke-miterlimit="10" stroke-width=".57"/><path d="M60.88,133.15c2.75-1.33,4.56-2.48,6.19-4.05,2.45,1.33,2.89,1.6,2.89,1.84,0,.2-.24,.31-.65,.31-.14,0-.78-.03-1.22-.03-2.31,1.12-4.59,1.94-7.21,2.55v1.94c0,.48,.07,.58,.41,.65,.24,.03,1.87,.1,2.79,.1,.31,0,.82,0,1.7-.03h1.39c1.29,0,1.46-.03,1.67-.37,.24-.37,.95-2.14,1.53-3.77l.41,.03-.2,2.69v.78q0,.17,.61,.41c.48,.14,.71,.41,.71,.82,0,1.12-.92,1.29-7.24,1.29-5.47,0-5.78-.1-5.85-1.84v-8.7h-7c-.82,1.26-1.26,1.84-2.07,2.72h4.79c.58-.54,.75-.68,1.36-1.19,.78,.61,1.02,.78,1.77,1.39,.24,.2,.3,.31,.3,.41,0,.2-.17,.27-1.33,.65-2.24,3.26-4.05,4.93-7.28,6.63-2.38,1.26-4.66,2.07-7.89,2.82l-.17-.54c3.94-1.43,6.46-2.72,8.84-4.56-.27-.03-.34-.1-.54-.37-.82-1.19-1.8-2.18-2.62-2.65-2.21,1.73-3.26,2.38-5.24,3.23l-.31-.48c2.11-1.36,3.5-2.62,5.41-4.76,1.12-1.29,1.73-2.11,2.41-3.3h-3.98c-1.46,0-1.7,0-2.89,.2l-.24-1.33c1.05,.24,1.94,.34,3.13,.34h21.66c.88-.95,1.16-1.26,2.07-2.18,1.29,1.05,1.67,1.39,2.92,2.48,.07,.1,.14,.2,.14,.27,0,.14-.14,.2-.37,.2h-10.81v5.41Zm-1.16-10.81c0-.17,.03-.24,.03-.27,0-1.5-.07-2.24-.17-2.86,2.92,.31,3.77,.48,3.77,.78,0,.24-.27,.37-1.43,.68q-.03,1.29-.03,1.67h5.24c.95-1.02,1.26-1.33,2.18-2.24,1.36,1.09,1.8,1.43,3.2,2.55,.07,.1,.14,.2,.14,.27,0,.14-.14,.2-.34,.2h-10.4c0,.71,0,1.02,.03,1.94-.03,.41-.34,.48-1.87,.48-.34,0-.41-.07-.41-.31,.03-1.09,.07-1.46,.07-2.11h-6.53v.41l-.03,.61c0,.2,.03,.44,.07,.88,0,.2-.03,.27-.14,.34-.14,.1-.88,.17-1.84,.17-.2,0-.3-.07-.34-.27,.07-1.16,.1-1.53,.1-2.14h-6.49c-1.43,0-1.7,.03-2.72,.17l-.24-1.22c.95,.2,1.63,.27,2.96,.27h6.49c.03-.37,.03-.68,.03-.95,0-.92-.03-1.29-.14-2.18,.71,.1,1.33,.17,1.7,.2,1.63,.17,2.01,.27,2.01,.58,0,.24-.31,.37-1.43,.68v1.67h6.53Zm-8.5,19.51c.07-.68,.1-1.09,.1-1.67,0-.54-.03-.85-.14-1.46,.71,.1,1.26,.2,1.63,.24,1.46,.2,2.04,.37,2.04,.61s-.17,.31-1.26,.68c-.1,1.02-.1,1.16-.17,1.6h6.29c0-1.7-.03-1.73-.14-2.86,3.26,.31,3.54,.34,3.54,.65,0,.24-.07,.27-1.19,.75v1.46h5.2c.92-1.05,1.19-1.36,2.11-2.28,1.39,1.05,1.8,1.39,3.13,2.55,.07,.1,.14,.2,.14,.27,0,.1-.17,.24-.31,.24h-10.3v2.07c0,.85,0,1.05,.07,5,0,.17-.07,.24-.17,.31-.17,.1-1.05,.2-1.8,.2-.31,0-.41-.1-.41-.37,.1-2.28,.14-3.23,.14-4.96v-2.24h-6.39c-.44,2.31-1.05,3.54-2.28,4.62-2.11,1.87-5,2.92-9.18,3.37l-.14-.51c3.98-.99,5.98-1.9,7.45-3.43,.99-1.02,1.56-2.21,1.9-4.05h-6.19c-1.26,0-1.77,.03-2.65,.2l-.24-1.22c.99,.2,1.56,.24,2.89,.24h6.32Zm-2.24-10.61c-.65,.65-.99,.95-1.67,1.53,.65,.1,1.26,.27,2.11,.58,1.16,.44,1.53,.75,1.53,1.33,0,.41-.1,.68-.27,.99,1.67-1.39,2.65-2.55,3.84-4.42h-5.54Z" fill="#42210b" stroke="#42210b" stroke-miterlimit="10" stroke-width=".57"/><path d="M47.32,178.37c-.07,.75-.1,1.12-.1,1.53,0,4.05,2.55,5.95,8.02,5.95,2.72,0,5.51-.48,7.51-1.26,.17-.07,.41-.1,.58-.1,.51,0,1.29,.27,1.87,.68,.48,.37,.75,.78,.75,1.19,0,.51-.38,.88-1.09,1.05-1.56,.41-4.9,.68-7.92,.68-3.81,0-6.22-.48-7.92-1.63-1.7-1.09-2.82-3.23-2.82-5.34,0-.85,.17-1.73,.54-2.89l.58,.14Zm1.05-13.43c1.73,1.16,2.92,1.5,5.2,1.5s5.1-.41,7.07-1.02c.24-.07,.51-.14,.61-.14,.88,0,2.04,1.02,2.04,1.77,0,.58-.2,.71-2.48,1.19-1.8,.41-3.67,1.09-9.08,3.37l-.24-.51c.95-.58,1.56-.92,2.48-1.43l2.21-1.19,.65-.41c-.75,.07-1.94,.1-2.55,.1-1.26,0-2.82-.37-3.88-.92-.88-.48-1.43-.92-2.38-1.97l.34-.34Zm15.5-2.99c1.26,.71,2.18,1.36,3.03,2.11,1.22,1.12,1.7,1.9,1.7,2.72s-.48,1.43-1.05,1.43q-.44,0-1.53-2.21c-.58-1.19-1.67-2.69-2.58-3.6l.44-.44Zm3.5-1.97c1.22,.54,2.21,1.16,3.23,1.94,1.33,.99,1.77,1.67,1.77,2.62,0,.82-.34,1.39-.85,1.39-.31,0-.51-.17-.78-.65-1.19-2.14-1.87-3.03-3.74-4.86l.37-.44Z" fill="#42210b" stroke="#42210b" stroke-miterlimit="10" stroke-width=".57"/><path d="M50.86,208.46c.78-.99,1.02-1.29,1.77-2.18,1.19,1.09,1.53,1.43,2.69,2.62,.03,.07,.07,.14,.07,.17,0,.1-.14,.17-.34,.17h-5.58v3.33c1.16,.65,1.67,.95,2.72,1.67,1.77,1.26,2.21,1.8,2.21,2.79,0,1.09-.54,2.24-1.02,2.24-.34,0-.48-.17-1.02-1.43-.82-1.84-1.7-3.23-2.89-4.56q.03,13.19,.1,17.78v.03c0,.2-.07,.24-.31,.34-.3,.1-1.09,.2-1.6,.2-.34,0-.41-.07-.44-.37q.14-5.68,.17-7.48c0-.92,.03-1.6,.03-2.38,0-2.38,0-4.01,.07-4.76l.21-3.88c-.95,2.75-1.5,3.94-2.75,6.15-1.29,2.24-2.07,3.33-3.81,5.2l-.34-.31c1.8-2.89,3.09-5.47,4.32-8.67,.82-2.11,1.19-3.4,1.7-5.92h-3.06c-.75,0-1.5,.07-2.28,.17l-.2-1.22c.99,.2,1.67,.27,2.48,.27h3.47v-3.6c0-1.94,0-2.38-.14-3.98,3.37,.37,3.81,.48,3.81,.85,0,.31-.34,.48-1.46,.88v5.85h1.43Zm16.76-5.17c.61-.71,.78-.92,1.36-1.56,.92,.65,1.19,.85,2.07,1.56,.27,.24,.41,.41,.41,.58,0,.27-.27,.48-1.26,.88q0,19.11,.1,25.6c0,.24-.07,.34-.27,.44-.24,.1-.99,.2-1.63,.2-.37,0-.51-.1-.51-.41v-2.28h-9.62v2.28c0,.44-.41,.58-1.9,.58-.37,0-.48-.1-.48-.48q.14-4.59,.14-15.57c0-6.73-.03-9.11-.1-13.63,1.16,.75,1.5,.99,2.55,1.8h9.15Zm.27,.78h-9.62v6.9h9.62v-6.9Zm-9.62,7.68v7.28h9.62v-7.28h-9.62Zm0,8.06v7.72h9.62v-7.72h-9.62Z" fill="#42210b" stroke="#42210b" stroke-miterlimit="10" stroke-width=".57"/><path d="M40.96,248.04c.85,.17,1.67,.27,2.58,.27h5.3c.78-.95,1.02-1.26,1.8-2.18,1.26,.95,1.63,1.26,2.75,2.28,.14,.14,.24,.34,.24,.41,0,.14-.14,.27-.31,.27h-10.03c-.65,0-1.12,.03-2.14,.2l-.21-1.26Zm1.22-4.52c.68,.17,1.36,.24,2.24,.24h3.98q1.02-1.12,1.9-2.11c1.16,.95,1.5,1.26,2.55,2.24,.1,.14,.14,.24,.14,.31,0,.17-.17,.34-.37,.34h-8.43c-.51,0-.92,.03-1.73,.14l-.27-1.16Zm.03,9.15c.68,.17,1.39,.24,2.24,.24h3.77c.65-.85,.85-1.09,1.56-1.94,1.12,.92,1.46,1.19,2.55,2.21,.07,.1,.1,.2,.1,.24,0,.14-.14,.27-.27,.27h-7.96c-.68,0-1.05,.03-1.73,.2l-.27-1.22Zm0,4.69c.95,.2,1.39,.24,2.24,.24h3.94c.65-.85,.85-1.12,1.53-1.97,1.12,.92,1.46,1.22,2.52,2.24,.03,.1,.07,.17,.07,.24,0,.14-.13,.27-.27,.27h-8.02c-.75,0-1.05,.03-1.73,.14l-.27-1.16Zm2.35,14.62c0,.41-.34,.54-1.56,.54-.44,0-.58-.1-.58-.44,.07-3.77,.07-4.15,.07-5.24,0-2.18-.03-4.45-.07-5.95,1.05,.51,1.39,.68,2.41,1.33h4.11c.54-.68,.71-.88,1.29-1.56,.85,.68,1.09,.88,1.87,1.56,.24,.24,.34,.34,.34,.44,0,.2-.34,.44-1.09,.71,0,3.23,.03,5.41,.17,7.41-.07,.27-.17,.34-.37,.41-.34,.1-.95,.17-1.43,.17-.31,0-.44-.1-.44-.37v-.95h-4.73v1.94Zm0-2.72h4.73v-6.26h-4.73v6.26Zm6.15,2.96c4.28-1.8,6.32-3.26,7.75-5.54,1.09-1.73,1.7-3.81,2.01-6.9,.1-.92,.17-2.07,.17-2.72,0-.44,0-.65-.07-1.19,1.94,.2,2.86,.31,3.26,.44,.1,.03,.37,.27,.34,.31l-.14,.24c-.07,.14-.37,.31-1.22,.68,0,1.97,.03,2.45,.24,3.54,.17,.99,.38,1.53,.82,2.38q.1-.1,.34-.31c1.5-1.26,3.13-3.23,3.91-4.79,1.19,.61,2.72,1.39,2.99,1.56,.14,.1,.2,.2,.2,.31,0,.2-.34,.37-.71,.37-.14,0-.51-.03-.92-.1-1.73,1.33-2.07,1.53-5.54,3.4,.82,1.29,1.8,2.28,3.06,3.13,1.63,1.05,3.13,1.56,5.85,1.97l-.04,.48c-1.22,.41-1.77,1.05-2.07,2.52-2.62-1.29-4.25-2.55-5.75-4.42-1.05-1.29-1.84-2.79-2.24-4.32-.2-.78-.34-1.5-.48-2.92-.31,2.55-.61,3.74-1.29,5.24-1.12,2.28-3.03,4.18-5.34,5.34-1.43,.71-2.48,1.09-4.96,1.77l-.17-.44Zm12.07-27.74c-.41,4.18-.51,4.69-1.12,6.43,3.91,1.33,6.66,2.48,8.53,3.57,.85,.51,1.19,1.26,1.19,2.65,0,.61-.2,1.02-.48,1.02-.2,0-.41-.17-1.63-1.33-2.58-2.41-4.69-3.91-7.79-5.47-.61,1.43-1.22,2.38-2.31,3.47-1.63,1.63-3.26,2.62-6.02,3.6l-.31-.51c1.97-.95,2.99-1.63,4.15-2.79,2.21-2.14,3.2-4.56,3.47-8.33,.1-1.43,.2-3.3,.2-3.74,0-.37-.03-.65-.1-1.26,.68,.07,1.22,.14,1.56,.2,1.5,.17,2.11,.37,2.11,.71,0,.24-.41,.48-1.36,.78l-.1,.99Zm-4.73,14.04c-.14,2.01-.68,3.77-1.53,5.2-.58,.99-1.46,1.73-1.97,1.73-.54,0-.95-.85-.95-1.87,0-.37,.1-.61,.27-.75q.07-.07,.61-.27c1.46-.61,2.48-2.07,3.03-4.22l.54,.17Zm0-13.19c-.14,2.07-.54,3.57-1.33,5.03-.61,1.12-1.5,1.97-2.07,1.97-.48,0-.95-.85-.95-1.7,0-.54,.07-.65,.75-.92,1.33-.54,2.58-2.38,3.06-4.39h.54Zm5.13,4.49c1.19-.88,2.01-1.67,3.64-3.57,.82-.92,.95-1.12,1.29-1.73,.68,.34,1.19,.61,1.53,.75,1.29,.65,1.7,.92,1.7,1.19,0,.2-.34,.37-.71,.37-.2,0-.51-.03-.78-.1-2.55,1.5-5.1,2.86-6.46,3.47l-.2-.37Z" fill="#42210b" stroke="#42210b" stroke-miterlimit="10" stroke-width=".57"/><path d="M49.8,312.29c2.24-2.48,3.71-4.86,4.93-8.02,.95-2.48,1.63-5.34,1.63-6.94,0-.82-.2-1.19-.88-1.67-2.07,.2-5.78,1.26-7.55,2.14-.58,.27-.71,.34-1.05,.34-.65,0-1.33-.41-2.14-1.29-.78-.82-1.16-1.5-1.16-2.04,0-.17,.03-.34,.14-.65,.71,1.05,1.63,1.56,2.79,1.56q.75,0,5.81-.88c2.75-.44,4.15-.61,10.47-1.26,.61-.07,1.63-.27,2.65-.58,.51-.17,.54-.17,.85-.17,.48,0,1.12,.17,1.8,.51,.95,.44,1.6,1.09,1.6,1.56,0,.41-.37,.68-.95,.68-.24,0-.37,0-.85-.1-1.36-.27-3.6-.44-5.47-.44-1.97,0-3.81,.1-5.58,.34,1.56,.85,2.24,1.56,2.24,2.35,0,1.22-.99,4.28-2.18,6.66-1.87,3.81-3.6,5.95-6.73,8.26l-.37-.37Zm-.65-26.25c1.43,1.33,2.55,1.84,4.08,1.84,2.18,0,5.3-.75,7.14-1.67,.38-.2,.68-.27,1.02-.27,.88,0,2.31,1.09,2.31,1.77,0,.44-.41,.61-1.77,.92-2.24,.48-5.95,.88-7.79,.88-2.52,0-3.88-.75-5.51-3.13l.51-.34Zm15.57-2.31c1.26,.68,2.18,1.33,3.03,2.11,1.22,1.09,1.7,1.87,1.7,2.69s-.48,1.43-1.05,1.43q-.44,0-1.53-2.21c-.58-1.19-1.67-2.65-2.58-3.57l.44-.44Zm3.5-1.97c1.22,.54,2.21,1.12,3.23,1.94,1.33,.99,1.77,1.67,1.77,2.62,0,.82-.34,1.39-.85,1.39-.31,0-.51-.17-.78-.65-1.19-2.14-1.87-3.03-3.74-4.86l.37-.44Z" fill="#42210b" stroke="#42210b" stroke-miterlimit="10" stroke-width=".57"/><path d="M43.14,350.44c3.26-2.04,6.63-4.79,9.15-7.45,2.04-2.14,4.49-5.34,6.49-8.47,1.09-1.67,1.67-2.79,2.31-4.39-1.63,.1-3.43,.48-7.17,1.5-1.63,.44-1.77,.48-2.86,.92-.17,.07-.37,.1-.58,.1-.75,0-1.46-.61-2.21-1.94-.48-.78-.71-1.5-.71-2.04,0-.2,.07-.37,.24-.68,.99,1.77,1.7,2.28,3.2,2.28,1.12,0,4.56-.44,7.14-.95,1.97-.37,2.58-.58,3.2-.95,.37-.24,.54-.31,.78-.31,.71,0,2.65,1.73,2.65,2.38,0,.24-.14,.44-.44,.65q-.71,.48-1.94,2.31-1.63,2.45-4.28,5.92c4.79,2.52,7.48,4.25,8.8,5.75,.92,.99,1.29,1.97,1.29,3.37,0,1.09-.34,1.77-.92,1.77-.24,0-.51-.17-.78-.54q-.13-.17-.82-1.36c-1.7-2.86-4.62-5.88-8.09-8.33-2.75,3.33-4.96,5.41-8.23,7.65-2.14,1.5-3.6,2.31-5.95,3.33l-.27-.51Z" fill="#42210b" stroke="#42210b" stroke-miterlimit="10" stroke-width=".57"/><path d="M45.65,380.74c2.52-2.11,4.76-4.76,7.14-8.33,1.39-2.11,2.24-3.84,2.24-4.59,0-.44-.14-.71-.65-1.16q-.44-.37-.82-.61t-.61-.31c.31-.17,.44-.2,.65-.2,.75,0,1.87,.37,2.79,.92,1.09,.61,1.6,1.19,1.6,1.73,0,.41-.04,.44-1.84,3.09,.44,.1,.65,.14,.88,.14,.68,0,2.35-.27,4.08-.68,1.39-.34,1.97-.54,2.69-.92,.27-.17,.38-.2,.58-.2,.82,0,2.75,1.77,2.75,2.52,0,.31-.1,.48-.51,.85-.58,.51-.75,.78-1.63,2.41-2.99,5.61-5.88,9.31-10.03,12.78-2.92,2.48-5.47,4.08-8.43,5.3l-.24-.48c2.72-1.67,4.76-3.33,7.51-6.09,4.11-4.08,7.31-8.7,9.28-13.46,.34-.75,.54-1.46,.54-1.73,0-.14-.1-.24-.31-.24-.51,0-2.65,.54-4.32,1.09-.61,.2-.82,.24-1.12,.24-.71,0-1.43-.34-2.11-.99-2.62,3.74-6.08,7.04-9.79,9.31l-.34-.41Z" fill="#42210b" stroke="#42210b" stroke-miterlimit="10" stroke-width=".57"/><path id="_ス_1929" d="M72.28,63h-31.31c-3.99,0-7.22-3.24-7.23-7.23V25.36c0-3.99,3.24-7.22,7.23-7.23h31.3c3.99,0,7.22,3.24,7.23,7.23v30.41c0,3.98-3.23,7.21-7.22,7.23Z" fill="#005748"/><path id="_ス_1930" d="M45.48,53.67c.59-.03,1.05-.53,1.03-1.12,0-.82-.86-1.88-3.48-2.32,1.07-1.13,2-2.4,2.76-3.76,.31,.01,.62-.07,.88-.25l-1.88-1.84-1.18,1.11h-.6v-3.31c.59-.08,.78-.21,.82-.49l-2.85-.26v4.07h-2.84l.11,.38h5.46c-1.01,2.76-3.38,6.2-5.84,7.95l.19,.17c1.03-.51,2.01-1.13,2.91-1.84v7.07h.36c.62,.05,1.23-.19,1.65-.64v-7.98c.8,.75,1.39,1.7,1.69,2.76,.22,.2,.51,.31,.8,.32Z" fill="#fff"/><path id="_ス_1931" d="M52.88,57.86h-1.43v-9.13h3.29c.53,0,.78-.09,.94-.34l-2.02-1.54-1.11,1.5h-1.1v-6.16c.57-.08,.76-.25,.8-.51l-2.91-.26v6.94h-3.5l.09,.38h3.4v9.13h-4.68l.09,.38h10.41c.51,0,.78-.08,.94-.32l-2.08-1.62-1.13,1.56Z" fill="#fff"/><path id="_ス_1932" d="M69.13,46.74l-2.46-.19v3.72c0,1.54,.36,1.92,2.26,1.92h2.99c1.79,0,2.4-.34,2.4-1.01,0-.26-.08-.36-.76-.6l-.02-1.31h-.17c-.64,1.45-.8,1.45-1.45,1.45h-2.84c-.57,0-.59,0-.59-.42v-1.03c1.38-.18,2.74-.47,4.07-.86,.19,.07,.39,.1,.59,.11,.16,.01,.31-.03,.43-.13l-1.75-1.48c-1.04,.74-2.16,1.36-3.35,1.84v-1.64c.47-.07,.58-.16,.62-.37Z" fill="#fff"/><path id="_ス_1933" d="M61.97,43.77v1.73c1.71,0,1.94-.43,1.94-.47v-1.26h4.11v1.64c1.8,0,1.97-.45,1.97-.47v-1.16h4.07c.49,0,.7-.08,.86-.32l-1.94-1.43-1.02,1.36h-1.98v-1.35c.55-.08,.7-.19,.72-.47l-2.7-.19v2.01h-4.11v-1.35c.55-.08,.68-.19,.72-.47l-2.67-.19v2.01h-4.83l.09,.38h4.75Z" fill="#fff"/><path id="_ス_1934" d="M72.42,44.69l-1.02,1.24h-13.6l.11,.38h3.69c-.9,1.54-2.17,2.84-3.69,3.78l.11,.28c.68-.24,1.34-.53,1.97-.88,.44,.36,.77,.83,.95,1.37,.18,.17,.42,.25,.66,.22-1.19,.92-2.55,1.59-4.01,1.96l.13,.36c4.24-.62,6.24-2.09,8.04-4.73,.3,.03,.6-.06,.84-.25l-1.75-1.39-.88,.88h-1.64c.56-.48,1.06-1.01,1.5-1.6h9.6c.51,0,.74-.08,.9-.32l-1.94-1.3Zm-8.48,3.6c-.45,.83-1.02,1.58-1.69,2.24,.02-.06,.03-.12,.04-.19,0-.47-.47-.99-1.8-1.11,.5-.29,.97-.6,1.43-.95h2.03Z" fill="#fff"/><path id="_ス_1935" d="M72.96,53.33l-1.09,1.37h-1.73v-1.6c.43-.08,.57-.19,.59-.4l-2.59-.21v2.2h-4.34v-1.58c.49-.06,.64-.19,.66-.42l-2.65-.21v2.2h-4.7l.11,.38h4.56c-.11,1.52-.99,2.97-4.34,3.93l.11,.22c4.83-.78,6.01-2.42,6.2-4.17h4.36v4.17c1.62,0,1.99-.49,1.99-.51v-3.65h3.89c.53,0,.76-.09,.92-.34l-1.97-1.41Z" fill="#fff"/><path id="_ス_1936" d="M39.97,29.87v-2.82h3.18c.9,0,1.29,.39,1.29,1.01,0,.55-.43,.81-1.2,.81h-1.48v1.3h2.75c1.48,0,2.1-.91,2.1-2.16,0-1.34-.65-2.25-2.05-2.25h-4.58v-1.85h-2.17v1.85h-1.36v1.29h1.36v3.35c0,3.62,3.1,3.53,3.1,3.53h5.41v-1.29s-3.95-.09-4.27-.09c-.94,0-2.07-.95-2.07-2.67Z" fill="#fff"/><path id="_ス_1937" d="M49.66,33.75c2.02,0,2.49-.58,3.12-1.03,.83-.6,3.14-3.09,3.84-5.12h-2.31c-.17,.43-3.15,5.18-4.62,4.32-.44-.26-.47-.51-.47-1.92v-6.05h-2.08v6.22c0,3.35,1.71,3.58,2.52,3.58Z" fill="#fff"/><path id="_ス_1938" d="M66.62,25.76v-1.29h-9.72v1.29h2.86v2.11h-2.86v1.19h2.86v1.48c0,2.89,1.16,3.34,3.14,3.34h3.33v-1.29s-1.48-.07-2.07-.07c-1.47,0-2.5-.41-2.5-1.78v-1.68h4.96v-1.19h-4.96v-2.11h4.97Z" fill="#fff"/><path id="_ス_1939" d="M72.14,30.48c0,2.76-1.38,3.44-2.89,3.44h-2.06v-1.29h1.71c.82,0,1.29-.9,1.29-2.21v-2.31h3.62c.9,0,1.2-.5,1.2-1.11,.06-.62-.39-1.17-1.01-1.23-.06,0-.13,0-.19,0h-6.62v-1.3h7.27c3.53,0,3.47,4.94,.57,4.94h-2.88v1.07Z" fill="#fff"/><path id="_ス_1940" d="M75.78,32.85h0c.21-.07,.34-.27,.32-.49,0-.32-.22-.52-.63-.52h-.92v1.93h.34v-.79h.49c.31,0,.38,.16,.38,.51,0,.1,0,.2,.06,.28h.36c-.09-.16-.12-.33-.1-.51,0-.3-.18-.39-.29-.41Zm-.35-.13h-.55v-.6h.55c.17,0,.33,.05,.33,.29,.02,.16-.1,.3-.26,.32-.02,0-.05,0-.07,0h0Z" fill="#fff"/><path id="_ス_1941" d="M75.27,31.21c-.89,0-1.62,.72-1.62,1.62s.72,1.62,1.62,1.62,1.62-.72,1.62-1.62c0-.89-.72-1.62-1.61-1.62h0Zm0,2.99c-.76,0-1.38-.62-1.38-1.38,0-.76,.62-1.38,1.38-1.38,.76,0,1.38,.62,1.38,1.38h0c0,.76-.61,1.38-1.37,1.38h0Z" fill="#fff"/><rect id="_方形_1490" x="36.16" y="37.97" width="40.93" height=".48" fill="#fff"/></g></svg>