<?xml version="1.0" encoding="UTF-8"?><svg xmlns="http://www.w3.org/2000/svg" viewBox="0 0 24.91 232.78"><defs><style>.d{fill:#42210b;}</style></defs><g id="a"/><g id="b"><g id="c"><g><path class="d" d="M6.08,11.05c1.17,.29,2.47,.78,3.51,1.38,.86,.49,1.2,1.01,1.2,1.82,0,.65-.26,1.25-.57,1.25-.03,0-.21-.1-.29-.16-.16-.13-.18-.16-.65-.86-.81-1.12-1.74-2-3.2-2.96v5.59q.03,4.76,.08,5.98c-.08,.34-.29,.44-.94,.44h-.34c-.39,0-.49-.05-.57-.26,0-.29,.03-2.29,.08-6.03v-4.52c-1.27,1.3-2.31,2.13-4.11,3.3l-.29-.39c1.69-1.4,2.89-2.65,4.34-4.6s2.29-3.35,3.2-5.33H2.31c-.57,0-.96,.03-1.85,.13l-.18-.96c.7,.16,1.43,.23,2.03,.23h2.08V2.37c0-1.04-.03-1.38-.21-2.26,.57,.05,1.01,.1,1.3,.13,1.25,.1,1.59,.18,1.59,.44,0,.21-.21,.34-.99,.6v3.82h1.46c.52-.6,.7-.75,1.25-1.3,.7,.57,.91,.75,1.53,1.3,.23,.26,.29,.34,.29,.42,0,.21-.13,.26-1.3,.52-1.09,1.95-1.79,2.99-3.22,4.76v.26Zm5.41-1.33c-.55,0-1.04,.05-2.08,.18l-.21-.99c1.07,.18,1.46,.21,2.29,.21h3.69V3.25c0-1.35-.03-2.03-.18-3.25,.55,.08,1.09,.13,1.35,.16,1.35,.13,1.66,.23,1.66,.47,0,.21-.29,.39-1.04,.68v7.83h2.68l1.51-1.95c1.09,.91,1.43,1.2,2.47,2.16,.05,.05,.1,.16,.1,.18,0,.1-.13,.21-.26,.21h-6.5v11.78h3.17c.7-.86,.94-1.14,1.74-2.03,1.07,.91,1.38,1.22,2.42,2.26,.08,.05,.13,.16,.13,.18,0,.1-.13,.18-.26,.18H10.58c-1.07,0-1.51,.03-2.47,.18l-.23-.99c.91,.13,1.77,.21,2.7,.21h4.6V9.72h-3.69Z"/><path class="d" d="M15.47,41.76c2.11-1.01,3.48-1.9,4.73-3.09,1.87,1.01,2.21,1.22,2.21,1.4,0,.16-.18,.23-.49,.23-.1,0-.6-.03-.94-.03-1.77,.86-3.51,1.48-5.51,1.95v1.48c0,.36,.05,.44,.31,.49,.18,.03,1.43,.08,2.13,.08,.23,0,.62,0,1.3-.03h1.07c.99,0,1.12-.03,1.27-.29,.18-.29,.73-1.64,1.17-2.89l.31,.03-.16,2.05v.6q0,.13,.47,.31c.36,.1,.55,.31,.55,.62,0,.86-.7,.99-5.54,.99-4.19,0-4.42-.08-4.47-1.4v-6.66h-5.36c-.62,.96-.96,1.4-1.59,2.08h3.67c.44-.42,.57-.52,1.04-.91,.6,.47,.78,.6,1.35,1.07,.18,.16,.23,.23,.23,.31,0,.16-.13,.21-1.01,.49-1.72,2.5-3.09,3.77-5.56,5.07-1.82,.96-3.56,1.59-6.03,2.16l-.13-.42c3.02-1.09,4.94-2.08,6.76-3.48-.21-.03-.26-.08-.42-.29-.62-.91-1.38-1.66-2-2.03-1.69,1.33-2.5,1.82-4,2.47l-.23-.36c1.61-1.04,2.68-2,4.13-3.64,.86-.99,1.33-1.61,1.85-2.52H3.54c-1.12,0-1.3,0-2.21,.16l-.18-1.01c.81,.18,1.48,.26,2.39,.26H20.1c.68-.73,.88-.96,1.59-1.66,.99,.81,1.27,1.07,2.24,1.9,.05,.08,.1,.16,.1,.21,0,.1-.1,.16-.29,.16H15.47v4.13Zm-.88-8.27c0-.13,.03-.18,.03-.21,0-1.14-.05-1.72-.13-2.18,2.24,.23,2.89,.36,2.89,.6,0,.18-.21,.29-1.09,.52q-.03,.99-.03,1.27h4c.73-.78,.96-1.01,1.66-1.72,1.04,.83,1.38,1.09,2.44,1.95,.05,.08,.1,.16,.1,.21,0,.1-.1,.16-.26,.16h-7.96c0,.55,0,.78,.03,1.48-.03,.31-.26,.36-1.43,.36-.26,0-.31-.05-.31-.23,.03-.83,.05-1.12,.05-1.61h-4.99v.31l-.03,.47c0,.16,.03,.34,.05,.68,0,.16-.03,.21-.1,.26-.1,.08-.68,.13-1.4,.13-.16,0-.23-.05-.26-.21,.05-.88,.08-1.17,.08-1.64H2.96c-1.09,0-1.3,.03-2.08,.13l-.18-.94c.73,.16,1.25,.21,2.26,.21H7.93c.03-.29,.03-.52,.03-.73,0-.7-.03-.99-.1-1.66,.55,.08,1.01,.13,1.3,.16,1.25,.13,1.53,.21,1.53,.44,0,.18-.23,.29-1.09,.52v1.27h4.99Zm-6.5,14.92c.05-.52,.08-.83,.08-1.27,0-.42-.03-.65-.1-1.12,.55,.08,.96,.16,1.25,.18,1.12,.16,1.56,.29,1.56,.47s-.13,.23-.96,.52c-.08,.78-.08,.88-.13,1.22h4.81c0-1.3-.03-1.33-.1-2.18,2.5,.23,2.7,.26,2.7,.49,0,.18-.05,.21-.91,.57v1.12h3.98c.7-.81,.91-1.04,1.61-1.74,1.07,.81,1.38,1.07,2.39,1.95,.05,.08,.1,.16,.1,.21,0,.08-.13,.18-.23,.18h-7.88v1.59c0,.65,0,.81,.05,3.82,0,.13-.05,.18-.13,.23-.13,.08-.81,.16-1.38,.16-.23,0-.31-.08-.31-.29,.08-1.74,.1-2.47,.1-3.8v-1.72h-4.89c-.34,1.77-.81,2.7-1.74,3.54-1.61,1.43-3.82,2.24-7.02,2.57l-.1-.39c3.04-.75,4.58-1.46,5.69-2.63,.75-.78,1.2-1.69,1.46-3.09H3.25c-.96,0-1.35,.03-2.03,.16l-.18-.94c.75,.16,1.2,.18,2.21,.18h4.84Zm-1.72-8.11c-.49,.49-.75,.73-1.27,1.17,.49,.08,.96,.21,1.61,.44,.88,.34,1.17,.57,1.17,1.01,0,.31-.08,.52-.21,.75,1.27-1.07,2.03-1.95,2.94-3.38H6.37Z"/><path class="d" d="M5.1,75.56c-.05,.57-.08,.86-.08,1.17,0,3.09,1.95,4.55,6.14,4.55,2.08,0,4.21-.36,5.75-.96,.13-.05,.31-.08,.44-.08,.39,0,.99,.21,1.43,.52,.36,.29,.57,.6,.57,.91,0,.39-.29,.68-.83,.81-1.2,.31-3.74,.52-6.06,.52-2.91,0-4.76-.36-6.06-1.25-1.3-.83-2.16-2.47-2.16-4.08,0-.65,.13-1.33,.42-2.21l.44,.1Zm.81-10.27c1.33,.88,2.24,1.14,3.98,1.14s3.9-.31,5.41-.78c.18-.05,.39-.1,.47-.1,.68,0,1.56,.78,1.56,1.35,0,.44-.16,.55-1.9,.91-1.38,.31-2.81,.83-6.94,2.57l-.18-.39c.73-.44,1.2-.7,1.9-1.09l1.69-.91,.49-.31c-.57,.05-1.48,.08-1.95,.08-.96,0-2.16-.29-2.96-.7-.68-.36-1.09-.7-1.82-1.51l.26-.26Zm11.86-2.29c.96,.55,1.66,1.04,2.31,1.61,.94,.86,1.3,1.46,1.3,2.08s-.36,1.09-.81,1.09q-.34,0-1.17-1.69c-.44-.91-1.27-2.05-1.98-2.76l.34-.34Zm2.68-1.51c.94,.42,1.69,.88,2.47,1.48,1.01,.75,1.35,1.27,1.35,2,0,.62-.26,1.07-.65,1.07-.23,0-.39-.13-.6-.49-.91-1.64-1.43-2.31-2.86-3.72l.29-.34Z"/><path class="d" d="M7.8,97.94c.6-.75,.78-.99,1.35-1.66,.91,.83,1.17,1.09,2.05,2,.03,.05,.05,.1,.05,.13,0,.08-.1,.13-.26,.13H6.73v2.55c.88,.49,1.27,.73,2.08,1.27,1.35,.96,1.69,1.38,1.69,2.13,0,.83-.42,1.72-.78,1.72-.26,0-.36-.13-.78-1.09-.62-1.4-1.3-2.47-2.21-3.48q.03,10.09,.08,13.6v.03c0,.16-.05,.18-.23,.26-.23,.08-.83,.16-1.22,.16-.26,0-.31-.05-.34-.29q.1-4.34,.13-5.72c0-.7,.03-1.22,.03-1.82,0-1.82,0-3.07,.05-3.64l.16-2.96c-.73,2.11-1.14,3.02-2.11,4.71-.99,1.72-1.59,2.55-2.91,3.98l-.26-.23c1.38-2.21,2.37-4.19,3.3-6.63,.62-1.61,.91-2.6,1.3-4.52H2.37c-.57,0-1.14,.05-1.74,.13l-.16-.94c.75,.16,1.27,.21,1.9,.21h2.65v-2.76c0-1.48,0-1.82-.1-3.04,2.57,.29,2.91,.36,2.91,.65,0,.23-.26,.36-1.12,.68v4.47h1.09Zm12.82-3.95c.47-.55,.6-.7,1.04-1.2,.7,.49,.91,.65,1.59,1.2,.21,.18,.31,.31,.31,.44,0,.21-.21,.36-.96,.68q0,14.61,.08,19.58c0,.18-.05,.26-.21,.34-.18,.08-.75,.16-1.25,.16-.29,0-.39-.08-.39-.31v-1.74h-7.36v1.74c0,.34-.31,.44-1.46,.44-.29,0-.36-.08-.36-.36q.1-3.51,.1-11.91c0-5.15-.03-6.97-.08-10.43,.88,.57,1.14,.75,1.95,1.38h6.99Zm.21,.6h-7.36v5.28h7.36v-5.28Zm-7.36,5.88v5.56h7.36v-5.56h-7.36Zm0,6.16v5.9h7.36v-5.9h-7.36Z"/><path class="d" d="M.23,128.21c.65,.13,1.27,.21,1.98,.21H6.27c.6-.73,.78-.96,1.38-1.66,.96,.73,1.25,.96,2.11,1.74,.1,.1,.18,.26,.18,.31,0,.1-.1,.21-.23,.21H2.03c-.49,0-.86,.03-1.64,.16l-.16-.96Zm.94-3.46c.52,.13,1.04,.18,1.72,.18h3.04q.78-.86,1.46-1.61c.88,.73,1.14,.96,1.95,1.72,.08,.1,.1,.18,.1,.23,0,.13-.13,.26-.29,.26H2.7c-.39,0-.7,.03-1.33,.1l-.21-.88Zm.03,6.99c.52,.13,1.07,.18,1.72,.18h2.89c.49-.65,.65-.83,1.2-1.48,.86,.7,1.12,.91,1.95,1.69,.05,.08,.08,.16,.08,.18,0,.1-.1,.21-.21,.21H2.73c-.52,0-.81,.03-1.33,.16l-.21-.94Zm0,3.59c.73,.16,1.07,.18,1.72,.18h3.02c.49-.65,.65-.86,1.17-1.51,.86,.7,1.12,.94,1.92,1.72,.03,.08,.05,.13,.05,.18,0,.1-.1,.21-.21,.21H2.73c-.57,0-.81,.03-1.33,.1l-.21-.88Zm1.79,11.18c0,.31-.26,.42-1.2,.42-.34,0-.44-.08-.44-.34,.05-2.89,.05-3.17,.05-4,0-1.66-.03-3.41-.05-4.55,.81,.39,1.07,.52,1.85,1.01h3.15c.42-.52,.55-.68,.99-1.2,.65,.52,.83,.68,1.43,1.2,.18,.18,.26,.26,.26,.34,0,.16-.26,.34-.83,.55,0,2.47,.03,4.13,.13,5.67-.05,.21-.13,.26-.29,.31-.26,.08-.73,.13-1.09,.13-.23,0-.34-.08-.34-.29v-.73H2.99v1.48Zm0-2.08h3.61v-4.78H2.99v4.78Zm4.71,2.26c3.28-1.38,4.84-2.5,5.93-4.24,.83-1.33,1.3-2.91,1.53-5.28,.08-.7,.13-1.59,.13-2.08,0-.34,0-.49-.05-.91,1.48,.16,2.18,.23,2.5,.34,.08,.03,.29,.21,.26,.23l-.1,.18c-.05,.1-.29,.23-.94,.52,0,1.51,.03,1.87,.18,2.7,.13,.75,.29,1.17,.62,1.82q.08-.08,.26-.23c1.14-.96,2.39-2.47,2.99-3.67,.91,.47,2.08,1.07,2.29,1.2,.1,.08,.16,.16,.16,.23,0,.16-.26,.29-.55,.29-.1,0-.39-.03-.7-.08-1.33,1.01-1.59,1.17-4.24,2.6,.62,.99,1.38,1.74,2.34,2.39,1.25,.81,2.39,1.2,4.47,1.51l-.03,.36c-.94,.31-1.35,.81-1.59,1.92-2-.99-3.25-1.95-4.39-3.38-.81-.99-1.4-2.13-1.72-3.3-.16-.6-.26-1.14-.36-2.24-.23,1.95-.47,2.86-.99,4-.86,1.74-2.31,3.2-4.08,4.08-1.09,.55-1.9,.83-3.8,1.35l-.13-.34Zm9.23-21.22c-.31,3.2-.39,3.59-.86,4.91,2.99,1.01,5.1,1.9,6.53,2.73,.65,.39,.91,.96,.91,2.03,0,.47-.16,.78-.36,.78-.16,0-.31-.13-1.25-1.01-1.98-1.85-3.59-2.99-5.95-4.19-.47,1.09-.94,1.82-1.77,2.65-1.25,1.25-2.5,2-4.6,2.76l-.23-.39c1.51-.73,2.29-1.25,3.17-2.13,1.69-1.64,2.44-3.48,2.65-6.37,.08-1.09,.16-2.52,.16-2.86,0-.29-.03-.49-.08-.96,.52,.05,.94,.1,1.2,.16,1.14,.13,1.61,.29,1.61,.55,0,.18-.31,.36-1.04,.6l-.08,.75Zm-3.61,10.74c-.1,1.53-.52,2.89-1.17,3.98-.44,.75-1.12,1.33-1.51,1.33-.42,0-.73-.65-.73-1.43,0-.29,.08-.47,.21-.57q.05-.05,.47-.21c1.12-.47,1.9-1.59,2.31-3.22l.42,.13Zm0-10.09c-.1,1.59-.42,2.73-1.01,3.85-.47,.86-1.14,1.51-1.59,1.51-.36,0-.73-.65-.73-1.3,0-.42,.05-.49,.57-.7,1.01-.42,1.98-1.82,2.34-3.35h.42Zm3.93,3.43c.91-.68,1.53-1.27,2.78-2.73,.62-.7,.73-.86,.99-1.33,.52,.26,.91,.47,1.17,.57,.99,.49,1.3,.7,1.3,.91,0,.16-.26,.29-.55,.29-.16,0-.39-.03-.6-.08-1.95,1.14-3.9,2.18-4.94,2.65l-.16-.29Z"/><path class="d" d="M7,176.62c1.72-1.9,2.83-3.72,3.77-6.14,.73-1.9,1.25-4.08,1.25-5.3,0-.62-.16-.91-.68-1.27-1.59,.16-4.42,.96-5.77,1.64-.44,.21-.55,.26-.81,.26-.49,0-1.01-.31-1.64-.99-.6-.62-.88-1.14-.88-1.56,0-.13,.03-.26,.1-.49,.55,.81,1.25,1.2,2.13,1.2q.57,0,4.45-.68c2.11-.34,3.17-.47,8.01-.96,.47-.05,1.25-.21,2.03-.44,.39-.13,.42-.13,.65-.13,.36,0,.86,.13,1.38,.39,.73,.34,1.22,.83,1.22,1.2,0,.31-.29,.52-.73,.52-.18,0-.29,0-.65-.08-1.04-.21-2.76-.34-4.19-.34-1.51,0-2.91,.08-4.26,.26,1.2,.65,1.72,1.2,1.72,1.79,0,.94-.75,3.28-1.66,5.1-1.43,2.91-2.76,4.55-5.15,6.32l-.29-.29Zm-.49-20.07c1.09,1.01,1.95,1.4,3.12,1.4,1.66,0,4.06-.57,5.46-1.27,.29-.16,.52-.21,.78-.21,.68,0,1.77,.83,1.77,1.35,0,.34-.31,.47-1.35,.7-1.72,.36-4.55,.68-5.95,.68-1.92,0-2.96-.57-4.21-2.39l.39-.26Zm11.91-1.77c.96,.52,1.66,1.01,2.31,1.61,.94,.83,1.3,1.43,1.3,2.05s-.36,1.09-.81,1.09q-.34,0-1.17-1.69c-.44-.91-1.27-2.03-1.98-2.73l.34-.34Zm2.68-1.51c.94,.42,1.69,.86,2.47,1.48,1.01,.75,1.35,1.27,1.35,2,0,.62-.26,1.07-.65,1.07-.23,0-.39-.13-.6-.49-.91-1.64-1.43-2.31-2.86-3.72l.29-.34Z"/><path class="d" d="M1.9,203.11c2.5-1.56,5.07-3.67,6.99-5.69,1.56-1.64,3.43-4.08,4.97-6.47,.83-1.27,1.27-2.13,1.77-3.35-1.25,.08-2.63,.36-5.49,1.14-1.25,.34-1.35,.36-2.18,.7-.13,.05-.29,.08-.44,.08-.57,0-1.12-.47-1.69-1.48-.36-.6-.55-1.14-.55-1.56,0-.16,.05-.29,.18-.52,.75,1.35,1.3,1.74,2.44,1.74,.86,0,3.48-.34,5.46-.73,1.51-.29,1.98-.44,2.44-.73,.29-.18,.42-.23,.6-.23,.55,0,2.03,1.33,2.03,1.82,0,.18-.1,.34-.34,.49q-.55,.36-1.48,1.77-1.25,1.87-3.28,4.52c3.67,1.92,5.72,3.25,6.73,4.39,.7,.75,.99,1.51,.99,2.57,0,.83-.26,1.35-.7,1.35-.18,0-.39-.13-.6-.42q-.1-.13-.62-1.04c-1.3-2.18-3.54-4.5-6.19-6.37-2.11,2.55-3.8,4.13-6.29,5.85-1.64,1.14-2.76,1.77-4.55,2.55l-.21-.39Z"/><path class="d" d="M3.82,223.03c1.92-1.61,3.64-3.64,5.46-6.37,1.07-1.61,1.72-2.94,1.72-3.51,0-.34-.1-.55-.49-.88q-.34-.29-.62-.47t-.47-.23c.23-.13,.34-.16,.49-.16,.57,0,1.43,.29,2.13,.7,.83,.47,1.22,.91,1.22,1.33,0,.31-.03,.34-1.4,2.37,.34,.08,.49,.1,.68,.1,.52,0,1.79-.21,3.12-.52,1.07-.26,1.51-.42,2.05-.7,.21-.13,.29-.16,.44-.16,.62,0,2.11,1.35,2.11,1.92,0,.23-.08,.36-.39,.65-.44,.39-.57,.6-1.25,1.85-2.29,4.29-4.5,7.12-7.67,9.78-2.24,1.9-4.19,3.12-6.45,4.06l-.18-.36c2.08-1.27,3.64-2.55,5.75-4.65,3.15-3.12,5.59-6.66,7.1-10.3,.26-.57,.42-1.12,.42-1.33,0-.1-.08-.18-.23-.18-.39,0-2.03,.42-3.3,.83-.47,.16-.62,.18-.86,.18-.55,0-1.09-.26-1.61-.75-2,2.86-4.65,5.38-7.49,7.12l-.26-.31Z"/></g></g></g></svg>