<?xml version="1.0" encoding="UTF-8"?>
<svg xmlns="http://www.w3.org/2000/svg" viewBox="0 0 129 38.82">
	<defs>
		<style>.i,.j,.k{fill:none;}.l{fill:#fff;}.m{fill:#801a42;}.n{isolation:isolate;}.j{stroke:#801a42;}.k{stroke:#fff;}</style>
	</defs>
	<g id="b">
		<g id="d">
			<rect id="e" class="m" x="3.73" y="4.04" width="125.27" height="34.78" />
			<g id="f">
				<rect class="i" x=".35" y=".35" width="125.27" height="34.78" />
				<rect class="j" x=".5" y=".5" width="124.96" height="34.47" />
			</g>
			<g id="g">
				<rect class="i" x="3.73" y="4.04" width="121.88" height="31.09" />
				<rect class="k" x="3.89" y="4.19" width="121.57" height="30.78" />
			</g>
			<g class="n">
				<path class="l" d="M46.14,18.74h-3.85v-.93h3.85v.93Zm-.36,6.12h-2.06v.38h-.99v-3.36h3.05v2.97Zm-3.02-5.68h3.03v.9h-3.03v-.9Zm0,1.35h3.03v.88h-3.03v-.88Zm3.01-3.15h-2.97v-.89h2.97v.89Zm-2.05,5.43v1.13h1.04v-1.13h-1.04Zm7.79,.31h-2.15v2.25h-1.15v-2.25h-2.2v-1.06h2.2v-.99h-1.68v-1.03h1.68v-.93h-1.88v-1.06h.9c-.12-.44-.35-1.01-.6-1.46l.94-.35c.32,.51,.6,1.17,.71,1.62l-.47,.19h1.92l-.44-.15c.24-.47,.53-1.2,.68-1.72l1.14,.32c-.28,.56-.57,1.13-.82,1.55h1.06v1.06h-1.99v.93h1.78v1.03h-1.78v.99h2.15v1.06Z" />
				<path class="l" d="M54.96,22.09c-.1,.94-.3,1.92-.59,2.55-.2-.14-.64-.34-.89-.43,.28-.57,.42-1.46,.5-2.28l.97,.17Zm7.55-5.17v8.22h-1.08v-.44h-2.7v.53h-1.03v-1.45l-.92,.31c-.08-.51-.34-1.32-.58-1.93l.88-.29c.26,.57,.49,1.29,.63,1.81v-2.24l-.78,.36c-.04-.19-.11-.4-.19-.64l-.57,.06v4.13h-1.04v-4.02c-.5,.05-.97,.1-1.4,.15l-.17-1.03c.24,0,.51-.03,.8-.05,.14-.18,.29-.36,.42-.56-.29-.44-.78-.97-1.2-1.38l.55-.8c.08,.07,.16,.14,.24,.22,.28-.55,.56-1.2,.73-1.71l1.03,.37c-.34,.68-.76,1.44-1.1,1.98,.13,.15,.26,.3,.35,.42,.34-.55,.67-1.12,.91-1.6l.95,.46c-.52,.81-1.18,1.74-1.79,2.52l.92-.07c-.1-.2-.2-.4-.3-.58l.85-.37c.3,.5,.61,1.1,.8,1.61v-4.01h4.81Zm-3.78,1.09v2.25h.82v-2.25h-.82Zm0,5.63h.82v-2.31h-.82v2.31Zm2.7-5.63h-.86v2.25h.86v-2.25Zm0,5.63v-2.31h-.86v2.31h.86Z" />
				<path class="l" d="M69.06,17.61c.93-.05,1.92-.14,2.79-.29v1.14c-.94,.14-2.16,.22-3.22,.25-.17,.36-.36,.72-.56,1,.26-.12,.79-.2,1.11-.2,.6,0,1.09,.26,1.31,.76,.51-.24,.93-.4,1.33-.58,.38-.17,.73-.32,1.09-.51l.49,1.14c-.31,.09-.84,.29-1.17,.41-.44,.18-1,.39-1.6,.67,.01,.55,.03,1.28,.04,1.73h-1.18c.03-.3,.04-.77,.05-1.2-.74,.42-1.13,.81-1.13,1.3,0,.54,.46,.69,1.43,.69,.84,0,1.93-.11,2.79-.28l-.04,1.27c-.65,.09-1.86,.17-2.79,.17-1.54,0-2.69-.37-2.69-1.64s1.18-2.05,2.3-2.63c-.15-.25-.41-.33-.69-.33-.55,0-1.16,.31-1.54,.68-.29,.3-.58,.65-.92,1.08l-1.05-.79c1.03-.95,1.73-1.83,2.17-2.72h-.13c-.4,0-1.12-.02-1.66-.06v-1.15c.5,.08,1.23,.12,1.73,.12h.47c.11-.39,.18-.78,.2-1.13l1.3,.11c-.05,.25-.12,.57-.25,.98Z" />
				<path class="l" d="M83.56,24.19c.33,0,.39-.17,.44-1.31,.25,.19,.77,.38,1.07,.46-.13,1.55-.43,1.96-1.41,1.96h-1.3c-1.17,0-1.45-.35-1.45-1.46v-1.57h-1.19c-.21,1.56-.79,2.6-3.22,3.15-.11-.31-.42-.8-.65-1.04,2.02-.37,2.44-1.03,2.61-2.11h-1.2v-5.78h6.44v5.78h-1.6v1.56c0,.31,.06,.35,.43,.35h1.02Zm-5.16-6.06h4.11v-.61h-4.11v.61Zm0,1.55h4.11v-.61h-4.11v.61Zm0,1.56h4.11v-.61h-4.11v.61Z" />
				<path class="l" d="M89.64,17.07c.52,0,2.63-.04,3.19-.09,.4-.04,.63-.07,.75-.11l.64,.88c-.23,.15-.46,.29-.69,.45-.53,.37-1.56,1.24-2.18,1.73,.32-.08,.62-.11,.93-.11,1.67,0,2.94,1.04,2.94,2.48,0,1.55-1.18,2.79-3.56,2.79-1.37,0-2.4-.63-2.4-1.61,0-.8,.72-1.54,1.76-1.54,1.22,0,1.96,.75,2.1,1.68,.54-.29,.82-.74,.82-1.34,0-.89-.89-1.49-2.05-1.49-1.51,0-2.49,.8-3.54,2l-.9-.93c.7-.56,1.89-1.56,2.47-2.05,.55-.45,1.58-1.28,2.06-1.7-.5,0-1.86,.07-2.38,.1-.27,.02-.58,.05-.81,.08l-.04-1.28c.28,.04,.62,.05,.9,.05Zm1.77,6.9c.21,0,.39-.01,.57-.03-.06-.64-.42-1.05-.96-1.05-.37,0-.61,.23-.61,.47,0,.36,.4,.61,.99,.61Z" />
			</g>
			<path id="h" class="l" d="M34.89,20.67l-4.31,2.15v-4.31l4.31,2.15Z" />
		</g>
	</g>
</svg>