<?xml version="1.0" encoding="utf-8"?>
<!-- Generator: Adobe Illustrator 26.3.1, SVG Export Plug-In . SVG Version: 6.00 Build 0)  -->
<svg version="1.1" id="_イヤー_2" xmlns="http://www.w3.org/2000/svg" xmlns:xlink="http://www.w3.org/1999/xlink" x="0px"
	 y="0px" viewBox="0 0 55.9 166.7" style="enable-background:new 0 0 55.9 166.7;" xml:space="preserve">
<style type="text/css">
	.st0{fill:#42210B;}
	.st1{fill:#005748;}
</style>
<g id="_イヤー_1-2">
	<path class="st0" d="M42.4,126.6c2.8-0.8,4.6-1.9,6.1-3.6s2.3-3.9,2.3-6.3s-1-4.5-2.9-5.8c-1.1-0.8-2.9-1.2-4.5-1.2
		c-0.3,0-0.5,0-0.9,0.1c0.6,0.9,0.8,1.4,0.8,2.2c0,2-1.5,5.8-3.4,9c-1.6,2.6-2.9,3.9-3.9,3.9c-0.4,0-0.9-0.2-1.1-0.6
		c-0.2-0.3-0.3-0.4-0.7-1.7c-0.2-0.7-0.4-1-1.1-2.4c-0.4-0.8-0.6-1.5-0.6-2.4c0-1.6,0.9-3.6,2.3-5.2c2.1-2.2,5.5-3.6,8.9-3.6
		c2.6,0,5,0.9,6.7,2.4s2.5,3.6,2.5,6.1c0,3.2-1.9,6.1-5.2,7.9c-1.5,0.8-2.9,1.2-5.1,1.6L42.4,126.6
		C42.4,126.6,42.4,126.6,42.4,126.6z M33.9,118.5c0,1.2,0.4,2.5,1,3.4c0.4,0.5,0.7,0.8,1,0.8c0.6,0,1.8-1.4,3.1-3.4
		c1.9-3.1,3.3-6.4,3.3-8c0-0.4-0.1-0.7-0.4-1.3C37.4,110.8,33.9,114.5,33.9,118.5z"/>
	<path class="st0" d="M15.9,3.8c0.2,2.4,0.7,4.3,1.4,6.1c0.9-1.5,1.5-2.8,1.8-4.3c1.6,0.5,2.5,0.8,2.5,1S21.5,6.9,20.5,7
		c-1.1,2.2-1.6,3-2.5,4.2c0.9,1.5,1.6,2.1,3.3,3c1-2.2,1.1-2.4,1.8-4.1l0.3,0.1l-0.6,3.4v0.8c0,0.3,0.1,0.4,0.4,0.6
		c0.2,0.2,0.3,0.4,0.3,0.6c0,0.4-0.4,0.7-0.8,0.7c-0.7,0-1.9-0.5-3-1.3c-1-0.7-1.7-1.5-2.5-2.7c-1.4,1.5-2.5,2.4-4.9,3.6L12,15.7
		c1.9-1.4,2.9-2.4,4.5-4.4c-1.1-2-1.5-3.6-2-7.5H4.8c-0.1,5-0.2,6-0.7,7.8c-0.4,1.4-1,2.9-1.8,4.1c-0.4,0.7-0.8,1.1-1.6,1.9
		l-0.3-0.3c1-1.8,1.6-3.1,2-5C2.9,10.5,3,8.7,3,4.3C3,3.2,3,2.9,2.9,2C3.8,2.4,4.1,2.6,5,3.2h9.4c-0.1-0.5-0.1-0.7-0.1-0.9
		C14.2,1,14.1,0.8,14,0c2.1,0.2,2.6,0.3,2.6,0.6c0,0.2-0.1,0.2-0.8,0.5c0,1,0.1,1.3,0.1,2.2H20c0.3-0.4,0.8-0.9,1.2-1.5
		c0.9,0.7,1.1,0.9,2,1.7c0.1,0.1,0.1,0.2,0.1,0.2c0,0.1-0.2,0.2-0.3,0.2L15.9,3.8C15.9,3.8,15.9,3.8,15.9,3.8z M4.8,17.1v0.6
		c0,1.3-0.6,3.1-1.3,4.1C2.9,22.6,2.4,23,2,23s-0.7-0.7-0.7-1.5c0-0.5,0.1-0.6,0.8-0.9s1.3-1,1.8-1.8c0.3-0.5,0.4-0.9,0.6-1.7
		C4.5,17.1,4.8,17.1,4.8,17.1z M11.2,6.3c0.5-0.7,0.6-0.8,1.2-1.5c0.8,0.7,1,0.9,1.8,1.6c0.1,0.1,0.1,0.2,0.1,0.2
		c0,0.1-0.1,0.2-0.2,0.2H7.2c-0.6,0-1,0-1.7,0.2L5.4,6c0.3,0.1,0.6,0.1,1,0.2c0.7,0.1,0.8,0.1,0.8,0.1S11.2,6.3,11.2,6.3z M7.6,14.4
		c0,0.4-0.2,0.5-1.3,0.5c-0.2,0-0.3-0.1-0.3-0.3c0.1-1.1,0.1-1.5,0.1-2.3c0-3,0-3.3-0.1-4.3c0.8,0.4,1,0.6,1.8,1.1h3.5
		c0.4-0.5,0.5-0.6,1-1.1c0.6,0.5,0.7,0.6,1.3,1.1c0.1,0.1,0.2,0.2,0.2,0.3c0,0.2-0.1,0.2-0.7,0.6l0.1,3.6c0,0.4-0.2,0.5-1.3,0.5
		c-0.2,0-0.3-0.1-0.4-0.2v-0.5H7.6L7.6,14.4C7.6,14.4,7.6,14.4,7.6,14.4z M7,17.9c0-0.7,0-0.9-0.1-1.6c2.5,0.3,2.8,0.3,2.8,0.6
		c0,0.2-0.2,0.3-1,0.5v3.4c0,0.4,0,0.5,0.1,0.5c0.1,0.1,0.3,0.1,1,0.2h2.4c0.3,0,3,0,3.4-0.1c0.7,0,0.8-0.1,1.1-0.8
		c0.4-0.8,0.6-1.5,1.1-3.3h0.4L18,20.6v0.3c0,0.2,0.2,0.3,0.6,0.4c0.3,0.1,0.5,0.3,0.5,0.6c0,0.4-0.4,0.8-0.9,0.8
		c-0.7,0.1-3.9,0.2-6.5,0.2c-2.9,0-3.6,0-4.1-0.3C7.2,22.4,7,22.1,7,21.4L7,17.9C7,17.9,7,17.9,7,17.9z M7.6,12.7h3.9v-3H7.6V12.7z
		 M10.7,16c1.1,0.2,2.1,0.5,3.4,1.1c0.8,0.3,1.1,0.8,1.1,1.4s-0.2,1.1-0.5,1.1s-0.3,0-1-0.9c-0.3-0.4-1.1-1-1.7-1.6
		c-0.4-0.3-0.7-0.4-1.4-0.8C10.6,16.3,10.7,16,10.7,16z M17.2,0.2c0.9,0.2,1.6,0.4,2.2,0.6c0.6,0.3,0.8,0.5,0.8,0.9
		c0,0.2-0.1,0.6-0.2,0.9c-0.1,0.2-0.2,0.3-0.4,0.3s-0.2,0-0.5-0.4c0,0-0.3-0.3-0.7-0.8C18.1,1.3,17.7,1,17,0.5L17.2,0.2
		C17.2,0.2,17.2,0.2,17.2,0.2z M19.3,16.9c1.2,0.7,1.9,1.2,2.9,2c1.1,0.9,1.4,1.3,1.4,1.8c0,0.4-0.2,1.2-0.4,1.5
		c-0.1,0.2-0.3,0.3-0.5,0.3c-0.1,0-0.2-0.1-0.3-0.2c-0.1-0.1-0.3-0.5-0.6-1.1c-0.7-1.6-1.4-2.6-2.8-4.2L19.3,16.9
		C19.3,16.9,19.3,16.9,19.3,16.9z"/>
	<path class="st0" d="M11.4,42.7c0-1,0-1.3-0.1-2.1c0.6,0,1,0.1,1.3,0.1c1.2,0.1,1.5,0.2,1.5,0.4s-0.2,0.3-1,0.7v1.8h6.4
		c0.7-0.8,0.9-1,1.6-1.8c1.1,0.9,1.4,1.1,2.4,2l0.2,0.2c0,0.1-0.1,0.2-0.2,0.2H13.3c1.2,1.2,1.8,1.7,3.3,2.6
		c1.4,0.8,2.9,1.5,4.3,1.8c0.9,0.3,1.6,0.4,3.2,0.5v0.3c-1.1,0.4-1.5,0.7-2,1.8c-2.4-1-3.8-1.8-5.3-2.9c-1.3-1-2.2-1.8-3.7-3.7
		l0.1,3.6c0,1.8,0.1,3.1,0.1,3.8c0,0.4-0.3,0.5-1.2,0.5c-0.5,0-0.6,0-0.6-0.3l0,0v-1.8c0-1.1,0-1.8,0.1-2.1l0.1-3.3
		c-2,2-3.1,3-5.1,4.1c-1.8,1.1-3,1.6-5.3,2.4l-0.2-0.3c2.6-1.2,4.2-2.3,6.3-4.1c1.2-1,1.8-1.7,2.9-3H3.2c-0.5,0-1.4,0.1-2,0.2
		l-0.2-1c0.8,0.2,1.3,0.2,2.1,0.2h8.2L11.4,42.7C11.3,42.7,11.4,42.7,11.4,42.7z M1.3,32.8c1.4,0.3,2.4,0.7,3,1.1
		c0.4,0.3,0.6,0.5,0.6,1c0,0.8-0.3,1.3-0.6,1.3c-0.2,0-0.3,0-0.8-0.7c-0.7-1-1.3-1.6-2.4-2.4L1.3,32.8C1.3,32.8,1.3,32.8,1.3,32.8z
		 M1.3,37.8c0.3,0.1,0.8,0.2,1.6,0.4c0.1,0,0.4,0.1,0.6,0.1c0.5,0,0.8-0.2,1.3-1c1.9-2.7,3.3-4.7,4.7-6.8l0.4,0.2l-4.6,8
		C5.1,39.1,5,39.5,5,39.8c0,0.1,0,0.2,0.1,0.6c0.1,0.4,0.1,0.6,0.1,0.9c0,1-0.6,1.7-1.5,1.7c-0.4,0-0.6-0.2-0.6-0.5
		c0-0.2,0-0.4,0.2-1.1c0.2-0.7,0.3-1,0.3-1.4s-0.1-0.5-0.4-0.7c-0.5-0.3-0.8-0.5-2-0.9C1.2,38.2,1.3,37.8,1.3,37.8z M3,29.4
		c1.3,0.3,2.3,0.6,3,1c0.5,0.3,0.7,0.5,0.7,0.9c0,0.7-0.3,1.4-0.7,1.4c-0.2,0-0.3-0.1-0.7-0.7c-0.7-0.9-1.4-1.6-2.4-2.4L3,29.4
		L3,29.4z M14.3,33.7c-0.3,1.9-0.8,3.2-1.9,4.5c-0.9,1.2-2.2,2.2-3.7,2.9c-0.6,0.3-1.4,0.5-2.7,1l-0.2-0.4c2.8-1.3,3.9-2.1,5-3.6
		c0.9-1.3,1.5-2.6,1.8-4.3h-1.9c-0.8,0-1.2,0-1.8,0.2l-0.1-1c0.6,0.2,1.1,0.2,1.9,0.2h2c0.1-1,0.2-2,0.2-3c0-0.4,0-0.6-0.1-1.2
		c2.5,0.3,2.6,0.3,2.8,0.4c0.2,0,0.3,0.2,0.3,0.3c0,0.2-0.3,0.4-1.2,0.7c-0.1,1.4-0.1,2-0.2,2.9h2.6l1.1-1.1
		c0.6,0.5,0.9,0.6,1.5,1.1c0.2,0.2,0.2,0.3,0.2,0.3c0,0.2-0.2,0.4-0.8,0.7V39c0,0.4,0.1,0.5,1.1,0.5s1.2-0.1,1.5-0.6
		s0.3-0.7,0.6-1.5c0.1-0.2,0.1-0.4,0.2-0.7s0.2-0.8,0.4-1.4h0.3l-0.3,3.2v0.2c0,0.2,0.1,0.4,0.3,0.4c0.5,0.2,0.6,0.3,0.6,0.7
		c0,0.8-0.8,1-3.4,1s-3-0.1-3-1.4v-5.6L14.3,33.7C14.3,33.7,14.3,33.7,14.3,33.7z"/>
	<path class="st0" d="M1.6,59.5V58c0.9,0.4,1.1,0.6,1.9,1.1h3.3c0.5-0.5,0.6-0.6,1-1.1c0.6,0.4,1.1,0.9,1.7,1.3
		c0.2,0.2,0.3,0.3,0.3,0.4c0,0.2-0.2,0.3-1.2,0.5C7.8,61.7,6,64.6,5,66c1.2,0.9,1.7,1.4,2.3,2.3C8,69.4,8.4,70.8,8.4,72
		c0,1.1-0.3,2.2-0.9,2.8C7,75.5,6.3,75.9,5,76.1c-0.1-1.2-0.2-1.4-1.7-1.7v6.4c0,0.2-0.1,0.3-0.3,0.4c-0.1,0-0.7,0.1-1,0.1
		s-0.4-0.1-0.4-0.4v-0.1l0.1-11.1v-4L1.6,59.5L1.6,59.5L1.6,59.5z M3.3,73.8c1,0.1,1.4,0.1,2.4,0.1c0.5,0,0.6-0.1,0.8-0.5
		c0.2-0.4,0.3-1.1,0.3-1.8c0-1.2-0.2-2.4-0.6-3.2c-0.4-0.8-0.8-1.3-1.9-2.3C5.1,64.5,6,62,6.7,59.7H3.3C3.3,59.7,3.3,73.8,3.3,73.8z
		 M14.5,63.1c-0.1,1.7-0.2,3.1-0.2,4h5.4c0.4-0.5,0.5-0.7,1-1.1c0.7,0.5,0.9,0.7,1.6,1.1c0.2,0.2,0.3,0.3,0.3,0.4
		c0,0.3-0.3,0.5-0.9,0.7c-0.1,0.6-0.1,1.9-0.3,4.1c-0.2,1.9-0.5,4.5-0.9,5.8c-0.2,0.9-0.7,1.5-1.4,1.9c-0.6,0.3-1.1,0.4-2.3,0.6
		c-0.1-0.7-0.3-1-0.9-1.2c-0.6-0.3-1.4-0.5-3.1-0.8V78c1.4,0.2,1.9,0.2,3.2,0.3c0.5,0,0.9,0.1,1,0.1h0.8c0.7,0,0.9-0.4,1.3-2.1
		c0.4-1.9,0.7-5.7,0.7-8.5h-5.6c-0.3,2.9-1,5.2-2.1,7.2c-0.9,1.6-2.3,3.2-4.2,4.6c-0.9,0.7-1.3,1-2.5,1.5l-0.2-0.4
		C6.4,79.9,7,79.4,8,78.4c1.8-1.9,2.9-3.7,3.7-6.1c0.7-2.3,1.1-5.1,1.1-8.2v-1H9.9c-0.6,0-1.5,0.1-2,0.2l-0.2-0.9
		c0.7,0.1,1.5,0.2,2.2,0.2H14v-2.7c0-0.8,0-1.3-0.1-2.3c2.3,0.1,3,0.2,3,0.6c0,0.2-0.2,0.3-1.1,0.5v3.9h4.6c0.6-0.8,0.8-1,1.5-1.8
		c1.1,0.8,1.4,1.1,2.4,2c0.1,0.1,0.1,0.2,0.1,0.3s-0.1,0.2-0.3,0.2L14.5,63.1C14.5,63.1,14.5,63.1,14.5,63.1z"/>
	<path class="st0" d="M11.7,107.7v-18c0-2,0-2.3-0.1-3c0.6,0.1,1.1,0.1,1.4,0.2c1.3,0.2,1.7,0.3,1.7,0.6c0,0.2-0.3,0.3-1.1,0.6V97
		H18c0.7-0.9,0.9-1.1,1.6-1.9c1.1,0.9,1.4,1.2,2.5,2.2c0,0.1,0.1,0.1,0.1,0.2s-0.1,0.1-0.2,0.1h-8.4v10.2h5.9c0.8-0.9,1-1.2,1.9-2.1
		c1.1,1,1.5,1.3,2.6,2.3c0,0.1,0.1,0.2,0.1,0.2c0,0.1-0.1,0.2-0.3,0.2H3.2c-1.4,0-1.9,0-2.5,0.1l-0.2-1c0.9,0.2,1.5,0.3,2.7,0.3h1.6
		v-13c0-1.5,0-2.5-0.1-3c2.8,0.4,3,0.4,3,0.7c0,0.2-0.3,0.4-1.1,0.6v14.8L11.7,107.7L11.7,107.7L11.7,107.7z"/>
	<path class="st0" d="M10.4,120.6c-0.4,3.2-0.9,5-1.9,7.3c2.3,2.6,3,3.6,3,4.5c0,1.1-0.4,2.1-0.9,2.1c-0.3,0-0.4-0.2-0.6-0.9
		c-0.4-1.2-1.4-2.9-2.2-4.2C6,132.6,3.9,135,1,137.2l-0.3-0.3c1.7-1.6,2.9-3.2,4.5-5.8c0.6-1,1-1.8,1.6-3.1
		c-1.3-1.9-2.5-3.5-4.2-5.5l0.3-0.2c1.4,1.2,2.5,2.2,4.4,4.4c0.4-1.2,0.7-2.2,0.9-3.5c0.1-0.4,0.2-1.2,0.3-2.5H2.8
		c-0.5,0-0.9,0-2,0.2l-0.2-1c0.7,0.1,1.8,0.3,2.2,0.3h3v-3.1c0-0.8,0-1.1-0.1-1.9c2.6,0.3,3,0.4,3,0.7c0,0.1-0.4,0.3-1.2,0.7v3.6
		h2.6c0.6-0.8,0.8-1,1.4-1.7c1,0.7,1.2,1,2.1,1.8c0.1,0.1,0.2,0.3,0.2,0.3c0,0.1-0.1,0.2-0.3,0.2L10.4,120.6
		C10.4,120.6,10.4,120.6,10.4,120.6z M12.9,124.1c1.5,1.4,2.3,2.4,3.2,3.6c0.6,1,0.8,1.3,0.8,1.8c0,1-0.6,1.9-1.2,1.9
		c-0.2,0-0.3-0.2-0.4-0.7c-0.5-2.1-1.3-4.2-2.6-6.4L12.9,124.1C12.9,124.1,12.9,124.1,12.9,124.1z M18.7,117.6c0-0.8,0-1.4-0.1-2.6
		c2.7,0.3,3.1,0.4,3.1,0.7c0,0.2-0.2,0.4-1.2,0.8v5h0.8c0.5-0.8,0.7-1,1.2-1.8c0.9,0.8,1.1,1.1,2,1.9c0.1,0.1,0.1,0.2,0.1,0.3
		s-0.1,0.2-0.3,0.2h-3.8v13.7c0,0.8-0.2,1.2-0.7,1.5c-0.6,0.4-1.2,0.6-2.3,0.9c-0.2-0.8-0.3-1.1-0.8-1.3c-0.6-0.3-1.4-0.5-3.3-0.7
		v-0.4c2.1,0.1,3.7,0.2,4.9,0.2c0.4,0,0.5-0.1,0.5-0.6V122h-4.1c-0.6,0-1,0-1.7,0.2l-0.2-1.1c0.6,0.2,1.5,0.3,2,0.3h4L18.7,117.6
		C18.7,117.6,18.7,117.6,18.7,117.6z"/>
	<path class="st0" d="M9.1,146.2c0.6-0.6,0.7-0.8,1.2-1.5c0.9,0.7,1.2,1,2,1.7c0.1,0.1,0.1,0.2,0.1,0.2c0,0.1-0.1,0.2-0.2,0.2H6.1
		c0.9,0.6,1.3,0.8,1.9,1.5c0.4,0.4,0.5,0.6,0.5,0.9c0,0.4-0.2,0.9-0.5,1.2c-0.2,0.2-0.3,0.3-0.6,0.3s-0.3-0.1-0.5-0.8
		c-0.3-1.2-0.7-2-1.4-3.2H4.2c-1.5,2.2-2.6,3.4-4,4.3L0,150.9c1.9-2.5,3.3-5.2,4-7.7c1.9,0.5,2.8,0.8,2.8,1c0,0.3-0.3,0.3-1.2,0.4
		c-0.5,0.8-0.6,1-1,1.7L9.1,146.2L9.1,146.2L9.1,146.2z M19.5,151.3c0.6-0.8,0.8-1,1.4-1.7c1,0.8,1.3,1.1,2.3,1.9
		c0,0.1,0.1,0.2,0.1,0.2s-0.1,0.2-0.2,0.2H12.3v2.1h5.8c0.4-0.5,0.5-0.7,1-1.1c0.6,0.5,0.8,0.6,1.4,1.1c0.2,0.1,0.2,0.2,0.2,0.3
		c0,0.2-0.1,0.3-0.8,0.7v3.7c0,0.9-0.5,1.3-2.3,1.7c-0.1-0.6-0.3-0.8-0.6-1.1c-0.3-0.2-0.6-0.3-1.8-0.5v-0.4
		c1.7,0.1,1.8,0.1,2.2,0.1h0.5c0.2,0,0.2-0.1,0.2-0.3v-3.7h-5.8v2.4c1,1.4,1.6,2.1,3.2,3.2c1.6,1.2,3.2,2,4.9,2.6
		c1.2,0.4,1.9,0.5,3.5,0.7v0.3c-1,0.4-1.3,0.6-1.7,1.7c-2-0.6-3.2-1.2-5.2-2.7c-2.1-1.6-3.3-2.8-4.7-4.9v3.1c0,1.1,0.1,2.9,0.2,5.4
		c0,0.3-0.3,0.4-1.4,0.4c-0.4,0-0.5-0.1-0.5-0.3c0.1-1.6,0.1-3.7,0.1-5.6V159c-1.5,1.8-2.6,2.8-4.9,4.3c-1.8,1.2-3.1,1.9-5,2.8
		l-0.2-0.4c3.4-2.1,4.1-2.6,5.8-4.1c2.2-2,3.2-3.1,4.3-5v-2H5.3v5.4c0,0.2-0.1,0.2-0.2,0.3c-0.2,0.1-0.8,0.2-1.2,0.2
		c-0.2,0-0.3-0.1-0.3-0.2v-7.4c0.9,0.5,1.1,0.6,1.9,1.1h5.1v-2.1h-7c-0.8,0-1.8,0.1-2.4,0.1L1,151.1c0.8,0.1,1.6,0.2,2.6,0.2h7.1
		v-0.2c0-0.6,0-1.5-0.1-2.3l1,0.1c0.4-0.7,0.6-1.2,1.1-2.4c0.8-1.9,0.9-2.4,1.1-3.3c2.4,0.6,2.7,0.7,2.7,0.9s-0.3,0.3-1.2,0.4
		c-0.4,0.8-0.6,1.1-1.1,1.7h5.5c0.5-0.8,0.7-1,1.3-1.7c1,0.8,1.3,1.1,2.2,1.9c0,0.1,0.1,0.2,0.1,0.2c0,0.1-0.1,0.1-0.2,0.1h-7.2
		c1.8,1,2.5,1.7,2.5,2.4c0,0.6-0.5,1.4-0.9,1.4c-0.2,0-0.4-0.6-0.9-1.7c-0.3-0.9-0.6-1.3-1.2-2.1h-1.7c-0.8,1-1,1.3-1.8,2.2
		c0.9,0.1,1,0.2,1,0.4s-0.2,0.3-0.8,0.5v1.4L19.5,151.3L19.5,151.3L19.5,151.3z"/>
	<g>
		<path class="st1" d="M38.8,12.6c0-1-0.1-3.2-0.1-6c3.2-0.1,6.5-0.1,8.1-0.1C49,6.5,50,7.3,50,8.6c0,1.2-1.1,1.8-3,1.8
			c-2.3,0-3.8,0.1-3.8,0.1v2.8c0,0,3.2-0.1,7-0.1c3.8-0.1,5.3-2,5.2-4.6c-0.1-2.9-1.8-4.8-5.3-4.6C46.8,4,42.4,4,38.5,4.1
			c0-2.2-0.1-3.9-0.1-3.9l-5.5,0.1c0,0,0,1.4,0.1,3.9c-2.1,0-3.4,0.1-3.4,0.1V7c0,0,1.4,0,3.4-0.1C32.9,9,33,11.5,33,14
			c0.1,7.6,8.1,7.3,8.1,7.3l13.7-0.2v-2.8H44C41.8,18.2,38.9,16.2,38.8,12.6L38.8,12.6z"/>
		<path class="st1" d="M38.7,47.8c4.8,0,5.8-1.2,7.4-2.2c2-1.3,7.4-6.5,9-10.8h-5.4c-0.4,0.9-7.4,10.9-10.9,9.2
			c-1-0.5-1.1-1.1-1.1-4.1V27h-4.9v13.1C32.7,47.3,36.8,47.8,38.7,47.8z"/>
		<path class="st1" d="M55,56.6v-2.8H30.3v2.8h7.3V61h-7.3v2.5h7.3v3.1c0,6.1,3,7.1,8,7.1H54V71c0,0-3.8-0.1-5.3-0.1
			c-3.8,0-6.4-0.9-6.4-3.8v-3.5h12.6V61H42.4v-4.4L55,56.6L55,56.6z"/>
		<path class="st1" d="M43.1,92.5c0,5.8-3.5,7.3-7.3,7.3h-5.2V97h4.3c2.1,0,3.3-1.9,3.3-4.6v-4.9h9.2c2.3,0,3.1-1.1,3.1-2.3
			c0-2-1.7-2.7-3.1-2.7H30.6v-2.8H49c8.9,0,8.8,10.4,1.4,10.4h-7.3C43.2,90.2,43.1,91.4,43.1,92.5z"/>
		<path class="st1" d="M51,99.4h0.7V98h0.9c0.5,0,0.7,0.3,0.7,1c0,0.2,0,0.3,0.1,0.6H54c-0.1-0.1-0.2-0.6-0.2-1
			c0-0.6-0.3-0.8-0.5-0.8l0,0c0.1,0,0.5-0.2,0.5-0.9c0-0.6-0.4-1-1.2-1H51L51,99.4L51,99.4z M51.6,96.4h1c0.3,0,0.7,0.1,0.7,0.6
			c0,0.3-0.2,0.6-0.7,0.6h-1V96.4"/>
		<path class="st1" d="M55.3,97.7c0,1.7-1.3,3-3,3s-3-1.3-3-3s1.3-3,3-3C54,94.6,55.3,96,55.3,97.7z M52.4,95
			c-1.4,0-2.5,1.1-2.5,2.5s1.1,2.5,2.5,2.5s2.5-1.1,2.5-2.5C54.9,96.2,53.8,95,52.4,95z"/>
	</g>
</g>
</svg>
