<?xml version="1.0" encoding="UTF-8"?><svg xmlns="http://www.w3.org/2000/svg" viewBox="0 0 53.33 167"><defs><style>.d{fill:#42210b;}</style></defs><g id="a"/><g id="b"><g id="c"><g><path class="d" d="M44.55,12.79c1.35-1.35,2.78-3.04,4-4.76,.39-.55,.65-.96,.65-1.07s-.08-.18-.18-.18c-.39,0-1.25,.26-3.51,1.07-3.12,1.09-3.56,1.27-4.6,1.69-.05,1.2-.05,1.64-.05,2.39,0,2.63,.13,3.85,.52,4.45,.39,.62,1.3,.91,2.94,.91,1.82,0,3.61-.26,4.71-.68,.34-.13,.39-.16,.52-.16,.23,0,.62,.16,1.01,.42,.52,.34,.78,.73,.78,1.09,0,.31-.21,.52-.6,.6-.88,.23-2.42,.34-4.29,.34-3.69,0-5.41-.55-6.19-2-.57-1.01-.75-2.63-.81-6.86q-.23,.13-1.27,.55c-.18,.08-.52,.23-1.01,.44-.26,.13-.55,.26-.81,.39-.36,.16-.39,.18-.73,.39s-.57,.29-.83,.29c-.55,0-1.25-.52-1.9-1.35-.44-.57-.73-1.2-.73-1.56,0-.08,.03-.18,.05-.31,.81,.96,1.35,1.3,2.11,1.3,.65,0,3.2-.68,5.15-1.35-.05-4.92-.05-5.15-.23-5.8-.21-.7-.81-1.14-1.92-1.46,.23-.26,.44-.34,.88-.34,.88,0,2,.31,2.89,.78,.52,.29,.78,.62,.78,.96q0,.16-.21,.62c-.31,.68-.55,2.39-.68,4.78,3.02-1.01,4.81-1.61,5.59-1.92q1.43-.55,1.92-.91c.26-.21,.42-.26,.68-.26,.49,0,1.22,.42,2.03,1.12,.57,.52,.81,.83,.81,1.14,0,.36-.13,.47-.73,.7-.26,.1-.94,.62-2.73,2.13-1.22,.99-2.11,1.64-3.74,2.73l-.26-.31Z"/><path class="d" d="M52.89,32.09c-1.43,2-2.26,2.96-3.87,4.42-2.34,2.13-4.84,3.82-7.85,5.3-1.46,.75-1.48,.75-1.95,1.25-.21,.23-.39,.34-.6,.34-.52,0-1.72-1.53-1.72-2.24q0-.13,.13-.47c.18-.57,.21-1.17,.21-3.98,0-5.75-.13-8.27-.47-9.23-.23-.65-.65-.96-1.79-1.35,.31-.21,.49-.26,.81-.26,.55,0,1.35,.23,2.08,.62,1.01,.55,1.53,1.07,1.53,1.59q0,.16-.13,.55c-.13,.42-.26,1.38-.34,2.57-.13,1.59-.29,6.32-.29,8.24v1.3c3.74-1.38,6.06-2.57,8.87-4.6,1.98-1.43,3.77-2.99,5.04-4.37l.34,.31Z"/><path class="d" d="M35.26,51.38c1.14,.94,1.87,1.25,2.86,1.25,1.53,0,3.85-.39,5.88-.99,1.48-.44,2.05-.65,2.76-1.12,.18-.1,.34-.16,.52-.16,.81,0,2.03,.75,2.03,1.25,0,.34-.52,.6-1.82,.88-3.15,.65-5.3,1.01-6.79,1.12,1.27,.62,1.69,1.04,1.69,1.69q0,.18-.13,.75c-.13,.49-.23,1.3-.29,2.24,1.38-.21,5.69-.83,6.11-.91,.78-.13,1.27-.26,1.72-.44,.21-.08,.39-.13,.55-.13,.39,0,1.12,.26,1.69,.6,.52,.31,.83,.7,.83,1.01s-.29,.49-.81,.49h-.31c-.44-.03-1.64-.05-2.39-.05-2.34,0-3.9,.13-7.46,.57-.05,1.56-.08,2.24-.08,2.91,0,1.87,.08,2.52,.34,3.02,.31,.6,.96,.83,2.13,.83,1.74,0,3.46-.26,4.55-.68,.08-.03,.18-.05,.29-.05,.31,0,.81,.21,1.25,.52,.44,.31,.65,.6,.65,.91,0,.36-.26,.57-.78,.68-.86,.16-2.42,.26-3.61,.26-3.33,0-4.78-.47-5.51-1.74-.49-.86-.68-1.79-.7-3.59q-.03-.36-.03-2.08v-.83c-1.98,.29-3.9,.75-4.81,1.14-.31,.16-.44,.18-.62,.18-.36,0-.75-.18-1.2-.57-.68-.6-1.3-1.61-1.3-2.13,0-.18,.05-.31,.16-.49,.68,.99,1.35,1.4,2.37,1.4,.78,0,2-.13,5.38-.62,.03-.44,.03-.47,.03-.83,0-3.02-.08-3.46-.65-3.95-.23,.03-.44,.03-.57,.03-1.35,0-2.42-.31-3.17-.91-.34-.26-.57-.52-1.09-1.17l.36-.29Z"/><path class="d" d="M36.3,95.13c1.92-1.59,3.56-3.87,4.71-6.55,.86-1.98,1.56-4.52,1.56-5.67,0-.7-.49-1.22-1.53-1.66,.16-.18,.34-.26,.6-.26,.34,0,1.25,.34,2,.75,.68,.36,.94,.57,1.12,.91,1.2-.73,3.54-2.57,4.65-3.72,.6-.57,.81-.86,.81-1.04,0-.31-.31-.39-1.53-.39-1.72,0-6.16,.7-8.97,1.43-.99,.26-1.9,.57-2.65,.91-.16,.08-.42,.13-.6,.13-.57,0-1.51-.78-2.08-1.74-.29-.49-.49-1.09-.49-1.4,0-.18,.05-.36,.18-.6,.47,1.07,1.3,1.56,2.57,1.56,.94,0,1.4-.05,6.27-.68,.23-.03,.81-.1,1.79-.21,4.03-.47,4.24-.52,4.78-.78,.16-.05,.21-.08,.34-.08,.29,0,.75,.26,1.38,.75,1.12,.86,1.87,1.74,1.87,2.18,0,.39-.16,.49-.94,.7-.42,.13-.7,.23-1.27,.55-2.16,1.22-3.33,1.82-6.14,3.15-.16,.44-.18,.49-.39,1.17-1.17,3.56-2.18,5.59-3.74,7.44-1.27,1.48-2.57,2.63-4.03,3.48l-.26-.34Z"/><path class="d" d="M42.91,119.63c2.81-.83,4.6-1.9,6.08-3.61,1.53-1.74,2.31-3.87,2.31-6.27,0-2.52-1.01-4.52-2.94-5.75-1.14-.75-2.86-1.2-4.5-1.2-.31,0-.49,0-.91,.05,.62,.91,.81,1.4,.81,2.16,0,2.03-1.46,5.82-3.43,9-1.64,2.6-2.91,3.88-3.87,3.88-.44,0-.86-.21-1.14-.55-.23-.31-.29-.42-.73-1.66-.23-.68-.39-.99-1.14-2.44-.42-.83-.6-1.53-.6-2.37,0-1.64,.88-3.56,2.34-5.15,2.11-2.24,5.54-3.64,8.94-3.64,2.63,0,5.04,.86,6.71,2.39s2.5,3.59,2.5,6.11c0,3.25-1.9,6.14-5.17,7.88-1.51,.81-2.86,1.22-5.07,1.61l-.18-.44Zm-8.55-8.09c0,1.25,.39,2.52,1.04,3.43,.36,.47,.7,.75,.99,.75,.57,0,1.82-1.4,3.09-3.43,1.92-3.07,3.3-6.42,3.3-8.03,0-.39-.08-.65-.36-1.3-4.52,.81-8.06,4.58-8.06,8.58Z"/><path class="d" d="M15.94,3.8c.21,2.42,.65,4.34,1.4,6.11,.94-1.53,1.46-2.76,1.79-4.26q2.47,.73,2.47,.96c0,.23-.13,.26-1.12,.36-1.12,2.16-1.59,2.96-2.5,4.21,.91,1.48,1.61,2.13,3.33,2.99,1.04-2.21,1.12-2.39,1.77-4.13l.34,.05-.62,3.38c0,.05-.03,.16-.05,.31-.03,.18-.05,.39-.05,.52,0,.29,.08,.39,.36,.65,.23,.21,.34,.39,.34,.62,0,.42-.36,.75-.83,.75-.7,0-1.85-.49-2.96-1.3-.96-.68-1.72-1.48-2.55-2.71-1.35,1.51-2.52,2.39-4.86,3.64l-.23-.26c1.87-1.35,2.91-2.39,4.45-4.42-1.12-2-1.53-3.59-1.98-7.49H4.78c-.1,5.02-.18,6.01-.65,7.77-.36,1.4-1.04,2.89-1.85,4.13-.42,.65-.75,1.07-1.56,1.95l-.26-.29c1.04-1.82,1.56-3.12,2-4.99,.42-1.82,.55-3.61,.55-8.03,0-1.09-.03-1.38-.16-2.34,.94,.47,1.22,.62,2.11,1.2H14.38c-.05-.52-.05-.65-.08-.91-.1-1.25-.16-1.48-.29-2.29,2.11,.18,2.63,.29,2.63,.55,0,.18-.1,.23-.83,.49,.03,1.04,.05,1.3,.08,2.16h4.16q.52-.62,1.22-1.48c.88,.7,1.14,.91,1.95,1.66,.08,.08,.13,.16,.13,.18,0,.1-.16,.23-.26,.23h-7.15ZM4.78,17.06v.6c0,1.33-.57,3.15-1.27,4.11-.6,.78-1.12,1.2-1.53,1.2-.39,0-.7-.68-.7-1.53,0-.49,.1-.65,.75-.91,.65-.29,1.33-.96,1.79-1.77,.31-.55,.44-.94,.6-1.69h.36ZM11.18,6.34c.49-.65,.65-.83,1.17-1.46,.81,.7,1.04,.94,1.79,1.64,.08,.08,.1,.16,.1,.21,0,.1-.1,.21-.23,.21H7.25c-.6,0-.96,.03-1.72,.16l-.1-.99q.44,.13,1.04,.18c.65,.05,.75,.05,.78,.05h3.93Zm-3.54,8.01c0,.42-.16,.47-1.35,.47-.21,0-.29-.08-.34-.29,.1-1.09,.13-1.48,.13-2.34,0-2.89,0-3.22-.13-4.24,.86,.47,1.09,.62,1.87,1.14h3.51c.42-.49,.52-.65,.96-1.12,.57,.47,.73,.62,1.3,1.09,.16,.18,.21,.23,.21,.31,0,.16-.1,.23-.68,.57l.05,3.59c-.03,.44-.23,.52-1.27,.52-.23,0-.31-.05-.39-.23v-.49h-3.87v1.01Zm-.68,3.54c0-.68,0-.94-.05-1.64,2.47,.29,2.76,.34,2.76,.6,0,.18-.16,.29-.96,.52v3.35c0,.36,.03,.47,.1,.55,.13,.1,.26,.13,1.04,.16,.44,.03,2.03,.05,2.37,.05,.29,0,2.99-.05,3.41-.08,.73-.03,.81-.08,1.14-.75,.36-.75,.62-1.48,1.14-3.3l.36,.03-.31,3.2v.31q0,.26,.65,.44c.29,.1,.47,.31,.47,.57,0,.42-.36,.75-.88,.83-.68,.13-3.93,.23-6.47,.23-2.91,0-3.59-.05-4.06-.31-.49-.26-.65-.55-.7-1.25-.03-.18-.03-.31-.03-.42l.03-1.51v-1.59Zm.68-5.15h3.87v-3.04h-3.87v3.04Zm3.04,3.25c1.12,.23,2.08,.55,3.38,1.12,.75,.31,1.09,.78,1.09,1.4s-.23,1.07-.49,1.07-.26-.03-1.04-.91c-.31-.39-1.07-1.04-1.72-1.56-.36-.26-.68-.44-1.35-.81l.13-.31ZM17.21,.18c.86,.16,1.61,.39,2.18,.62,.6,.26,.81,.49,.81,.91,0,.23-.1,.62-.23,.86-.08,.18-.21,.26-.36,.26-.18,0-.18-.03-.47-.42q-.03-.05-.7-.83c-.34-.39-.68-.68-1.38-1.17l.16-.23Zm2.13,16.69c1.22,.73,1.92,1.2,2.91,2.05,1.07,.88,1.38,1.27,1.38,1.79,0,.39-.23,1.25-.42,1.51-.13,.23-.31,.34-.47,.34-.08,0-.23-.08-.31-.18q-.16-.16-.57-1.12c-.73-1.56-1.43-2.65-2.78-4.19l.26-.21Z"/><path class="d" d="M11.39,42.67c0-1.04-.03-1.33-.08-2.11,.55,.05,.99,.1,1.27,.1,1.2,.1,1.51,.18,1.51,.44,0,.21-.23,.34-1.01,.65v1.85h6.4c.7-.78,.94-1.01,1.59-1.82,1.07,.88,1.4,1.14,2.39,2.05,.1,.1,.16,.16,.16,.21,0,.1-.1,.16-.23,.16H13.31c1.22,1.25,1.82,1.72,3.33,2.6,1.4,.81,2.91,1.46,4.29,1.85,.88,.26,1.61,.36,3.17,.52l-.03,.34c-1.14,.42-1.46,.7-2.03,1.79-2.39-1.04-3.77-1.79-5.33-2.89-1.33-.96-2.24-1.85-3.69-3.69l.08,3.61q.03,2.7,.1,3.82c0,.36-.26,.47-1.22,.47-.52,0-.65-.05-.65-.31v-.05c.03-.73,.03-.81,.03-1.77,.03-1.14,.03-1.85,.05-2.13l.05-3.28c-1.98,2.05-3.12,2.99-5.07,4.13-1.79,1.07-3.02,1.59-5.33,2.37l-.18-.34c2.6-1.25,4.24-2.31,6.27-4.06,1.2-1.04,1.79-1.66,2.91-2.99H3.25c-.55,0-1.43,.08-1.98,.18l-.21-1.01c.81,.18,1.35,.23,2.11,.23H11.39v-.94ZM1.3,32.79c1.35,.34,2.42,.73,3.02,1.09,.44,.26,.57,.47,.57,.96,0,.78-.26,1.33-.6,1.33-.23,0-.26-.03-.75-.7-.73-.99-1.35-1.59-2.44-2.37l.21-.31Zm0,4.97q.42,.08,1.61,.36c.13,.05,.44,.08,.6,.08,.47,0,.78-.23,1.3-.96,1.95-2.7,3.33-4.65,4.71-6.76l.36,.23-4.55,7.96c-.23,.39-.34,.81-.34,1.12,0,.13,0,.23,.1,.6,.08,.39,.13,.6,.13,.86,0,.99-.62,1.66-1.53,1.66-.39,0-.62-.21-.62-.55,0-.21,.03-.39,.23-1.14,.18-.65,.26-.96,.26-1.43,0-.36-.1-.52-.36-.73-.47-.34-.81-.49-2-.88l.1-.42Zm1.69-8.37c1.27,.29,2.29,.62,3.02,1.04,.47,.26,.65,.49,.65,.91,0,.7-.34,1.38-.65,1.38-.16,0-.26-.1-.73-.68-.7-.94-1.4-1.59-2.42-2.37l.13-.29Zm11.36,4.34c-.34,1.92-.83,3.15-1.85,4.45-.94,1.2-2.18,2.16-3.74,2.89-.65,.29-1.38,.55-2.68,.96l-.18-.36c2.78-1.33,3.87-2.13,4.97-3.64,.94-1.27,1.51-2.63,1.77-4.29h-1.92c-.81,0-1.22,.03-1.79,.16l-.16-.94c.65,.16,1.07,.18,1.95,.18h2c.1-1.01,.18-2,.18-2.99,0-.42-.03-.6-.05-1.17,2.47,.26,2.57,.29,2.81,.36,.18,.05,.29,.16,.29,.26,0,.21-.29,.36-1.25,.68-.08,1.43-.13,1.98-.23,2.86h2.63q.47-.49,1.07-1.12c.65,.47,.86,.62,1.46,1.09,.16,.16,.23,.26,.23,.34,0,.21-.23,.39-.83,.73v4.68c0,.44,.13,.49,1.07,.49,.99,0,1.22-.1,1.46-.62,.26-.52,.31-.7,.57-1.51,.08-.23,.13-.44,.21-.68,.08-.31,.23-.81,.42-1.43l.34,.05-.26,3.2v.23c0,.23,.08,.36,.29,.44,.49,.18,.62,.29,.62,.65,0,.78-.75,.99-3.38,.99s-2.96-.13-2.99-1.38v-5.56h-2.99Z"/><path class="d" d="M1.59,59.46q0-.65-.05-1.46c.86,.44,1.09,.6,1.87,1.12h3.3c.47-.47,.6-.62,.96-1.12q.83,.62,1.72,1.33c.21,.16,.29,.26,.29,.39,0,.21-.21,.31-1.17,.52-.75,1.46-2.47,4.32-3.51,5.8,1.2,.91,1.74,1.43,2.31,2.29,.7,1.07,1.12,2.42,1.12,3.64,0,1.09-.31,2.16-.86,2.83-.57,.73-1.27,1.07-2.57,1.25-.1-1.25-.23-1.38-1.72-1.72v1.17q0,1.74,.03,2.91c.03,1.22,.03,1.33,.03,2.29-.03,.23-.08,.34-.29,.39-.1,.03-.73,.08-1.04,.08-.29,0-.42-.1-.42-.36v-.1l.08-11.05q0-.7-.03-4l-.05-6.19Zm1.69,14.38c.99,.1,1.4,.13,2.42,.13,.49,0,.62-.1,.81-.52,.18-.44,.29-1.12,.29-1.79,0-1.17-.23-2.42-.62-3.2-.36-.75-.81-1.3-1.92-2.34,.83-1.66,1.77-4.16,2.42-6.4H3.28v14.12Zm11.18-10.69c-.08,1.74-.16,3.07-.23,4h5.43c.39-.52,.52-.68,.96-1.14,.73,.49,.94,.65,1.59,1.12,.21,.16,.31,.29,.31,.39,0,.26-.29,.47-.94,.68q-.08,.83-.29,4.06c-.16,1.92-.52,4.52-.88,5.75-.23,.91-.68,1.48-1.43,1.87-.62,.31-1.14,.44-2.34,.55-.13-.7-.31-.96-.86-1.25-.6-.31-1.43-.52-3.07-.78v-.42c1.35,.16,1.92,.21,3.22,.26,.52,.03,.86,.05,1.04,.08,.31,0,.62,.03,.78,.03,.68,0,.94-.42,1.3-2.11,.39-1.92,.7-5.67,.73-8.48h-5.64c-.31,2.94-.99,5.25-2.08,7.2-.91,1.61-2.34,3.2-4.19,4.63-.91,.73-1.33,.96-2.55,1.51l-.23-.39c1.22-.81,1.82-1.27,2.83-2.34,1.82-1.95,2.89-3.74,3.67-6.06,.73-2.26,1.12-5.12,1.12-8.16v-.99h-2.81c-.62,0-1.51,.08-1.98,.16l-.18-.94c.7,.1,1.53,.18,2.16,.18h4.11v-2.7c0-.83-.03-1.3-.13-2.31,2.31,.13,2.99,.23,2.99,.57,0,.21-.18,.31-1.09,.55v3.9h4.6c.62-.81,.81-1.04,1.51-1.82,1.07,.83,1.4,1.09,2.39,1.98,.1,.1,.13,.18,.13,.26,0,.13-.08,.18-.26,.18H14.46Z"/><path class="d" d="M11.73,107.69v-18.02c0-2.03,0-2.31-.08-3.02,.6,.08,1.07,.13,1.35,.16,1.3,.16,1.74,.31,1.74,.55,0,.21-.29,.34-1.14,.57v8.94h4.42c.73-.86,.94-1.12,1.64-1.92,1.09,.91,1.43,1.2,2.5,2.21,.05,.05,.08,.13,.08,.18,0,.08-.1,.13-.23,.13H13.6v10.22h5.9c.78-.91,1.01-1.2,1.85-2.11,1.12,.96,1.46,1.27,2.57,2.31,.05,.08,.08,.16,.08,.23,0,.1-.13,.16-.31,.16H3.25c-1.4,0-1.87,.03-2.55,.1l-.16-.96c.91,.21,1.48,.26,2.7,.26h1.59v-13.03q-.03-2.31-.05-2.96c2.81,.36,2.99,.42,2.99,.68,0,.21-.34,.36-1.09,.55v14.77h5.04Z"/><path class="d" d="M10.38,120.64c-.42,3.25-.86,4.97-1.92,7.31,2.31,2.63,2.96,3.59,2.96,4.47,0,1.12-.39,2.05-.88,2.05-.26,0-.39-.18-.65-.88-.44-1.2-1.35-2.91-2.18-4.19-1.79,3.17-3.93,5.56-6.84,7.75l-.26-.26c1.66-1.59,2.94-3.25,4.5-5.82,.6-1.01,1.01-1.79,1.64-3.12-1.3-1.9-2.52-3.48-4.16-5.49l.29-.21c1.43,1.22,2.47,2.24,4.42,4.37,.42-1.2,.7-2.21,.94-3.46,.05-.36,.18-1.2,.34-2.52H2.83c-.47,0-.86,.03-2,.16l-.21-1.01c.75,.13,1.79,.26,2.18,.26h2.96v-3.12c0-.81-.03-1.12-.1-1.87,2.57,.26,3.04,.36,3.04,.68q0,.18-1.2,.68v3.64h2.63c.62-.75,.81-.99,1.35-1.69,.96,.73,1.25,.99,2.13,1.77,.08,.1,.18,.26,.18,.31,0,.1-.13,.21-.29,.21h-3.15Zm2.55,3.41c1.48,1.4,2.31,2.37,3.2,3.61,.65,.96,.81,1.3,.81,1.77,0,.99-.6,1.95-1.2,1.95-.18,0-.34-.23-.44-.7-.49-2.13-1.33-4.16-2.65-6.45l.29-.18Zm5.8-6.45c0-.83-.03-1.43-.13-2.6,2.73,.31,3.07,.36,3.07,.65,0,.23-.18,.36-1.17,.75v5.04h.78c.52-.78,.7-1.04,1.22-1.82,.88,.81,1.14,1.07,1.95,1.95,.08,.13,.13,.21,.13,.26,0,.1-.1,.21-.26,.21h-3.82v7.75l.03,5.95c-.03,.83-.18,1.17-.73,1.51-.6,.39-1.22,.62-2.34,.88-.18-.83-.34-1.09-.78-1.33-.57-.34-1.38-.52-3.33-.7v-.42c3.12,.16,3.15,.16,4.86,.18,.42,0,.52-.1,.52-.55v-13.29h-4.11c-.65,0-.99,.03-1.74,.16l-.21-1.07c.65,.18,1.51,.31,2.03,.31h4.03v-3.85Z"/><path class="d" d="M9.05,146.22c.55-.6,.7-.81,1.25-1.48,.88,.73,1.17,.96,2,1.72,.05,.08,.1,.16,.1,.21,0,.08-.1,.16-.21,.16H6.06c.94,.55,1.33,.83,1.92,1.48,.36,.36,.49,.62,.49,.91,0,.36-.21,.88-.47,1.22-.16,.21-.34,.31-.55,.31-.29,0-.34-.08-.49-.75-.29-1.17-.65-2.03-1.38-3.17h-1.4c-1.51,2.16-2.6,3.35-4.03,4.32l-.16-.21c1.92-2.5,3.33-5.2,4-7.72q2.83,.7,2.83,.96c0,.26-.31,.34-1.25,.36-.47,.81-.57,1.01-1.01,1.69h4.47Zm10.4,5.07c.6-.75,.78-.99,1.4-1.74,1.01,.83,1.33,1.09,2.29,1.92,.05,.08,.08,.16,.08,.23s-.1,.18-.23,.18H12.3v2.13h5.8c.39-.52,.52-.68,.99-1.14,.6,.49,.78,.62,1.35,1.12,.16,.13,.21,.23,.21,.31,0,.16-.13,.29-.81,.68v1.64q0,.39,.03,1.95v.18c0,.91-.52,1.3-2.26,1.74-.13-.55-.29-.81-.65-1.09-.29-.21-.62-.31-1.82-.47v-.36c1.72,.05,1.79,.05,2.21,.05,.1,0,.29-.03,.49-.03,.03,0,.05,.03,.05,.03,.18,0,.21-.05,.21-.31v-3.69h-5.82v2.39c.96,1.43,1.59,2.08,3.17,3.25,1.59,1.2,3.2,2.03,4.94,2.6,1.17,.39,1.9,.52,3.46,.68v.34c-1.01,.39-1.27,.65-1.66,1.74-1.98-.6-3.22-1.25-5.2-2.7-2.11-1.59-3.33-2.83-4.71-4.86v3.07q0,1.64,.16,5.43c-.03,.34-.31,.44-1.35,.44-.39,0-.52-.08-.52-.29,.08-1.56,.13-3.69,.13-5.59v-2.08c-1.46,1.77-2.6,2.81-4.89,4.32-1.82,1.22-3.12,1.92-5.04,2.76l-.23-.36c3.43-2.11,4.11-2.57,5.75-4.08,2.16-1.98,3.15-3.12,4.32-5.02v-2.03H5.28v5.38c0,.16-.05,.23-.21,.29-.16,.08-.83,.16-1.2,.16-.21,0-.31-.08-.34-.21,.05-2.21,.05-2.37,.05-2.99,0-2.81,0-3.67-.05-4.37,.86,.47,1.12,.62,1.92,1.14h5.12v-2.13H3.54c-.83,0-1.77,.05-2.42,.13l-.21-.91c.81,.13,1.56,.18,2.63,.18h7.05v-.18c0-.57-.03-1.53-.05-2.26l1.04,.1c.39-.68,.65-1.22,1.14-2.42,.78-1.9,.94-2.39,1.12-3.33,2.39,.57,2.73,.7,2.73,.91,0,.23-.29,.31-1.17,.36-.44,.83-.6,1.07-1.07,1.74h5.51c.55-.75,.73-.96,1.3-1.69,.96,.83,1.27,1.09,2.18,1.95,.05,.08,.1,.16,.1,.21,0,.08-.08,.13-.18,.13h-7.18c1.79,1.01,2.52,1.69,2.52,2.39,0,.65-.52,1.43-.94,1.43q-.23,0-.86-1.72c-.31-.86-.57-1.27-1.22-2.11h-1.66c-.75,.99-1.04,1.33-1.82,2.21,.86,.13,1.04,.18,1.04,.39,0,.18-.23,.31-.83,.47v1.4h7.15Z"/></g></g></g></svg>