<?xml version="1.0" encoding="UTF-8"?><svg xmlns="http://www.w3.org/2000/svg" viewBox="0 0 257.42 239.87"><defs><style>.e{fill:#fff;isolation:isolate;opacity:1;stroke:#002368;stroke-miterlimit:10;stroke-width:5.67px;}.f{fill:#002368;}</style></defs><g id="a"/><g id="b"><g id="c"><g transform="matrix(1, 0, 0, 1, 0, 0)"><rect id="d" class="e" x="2.83" y="2.83" width="251.75" height="234.2" rx="7.63" ry="7.63"/></g><g><path class="f" d="M95.23,183.81c2.39-.05,2.43-.93,1.67-2.77-1.6-3.87-.96-7.59,1.58-10.9,.93-1.22,.78-1.76-.6-2.52-6.29-3.5-7.95-11.1-3.67-16.93,.97-1.32,.78-1.71-.53-2.45-4.85-2.75-6.99-7.76-5.66-12.86,1.36-5.2,5.56-8.35,11.28-8.36,15.29-.02,30.58,0,45.86,0,3.38,0,3.36-.03,2.19-3.06-2-5.15-3.94-10.32-5.89-15.49-.41-1.09-.94-2.3,1.07-2.33,6.34-.08,12.69-.51,18.67,2.51,4.16,2.09,7.54,4.98,10.36,8.59,3.08,3.93,6.01,7.98,9.15,11.86,4.28,5.29,7.35,8.71,14.38,8.85,2.48,.05,5,1.59,5,3.52-.02,16.42,0,32.85,0,49.27,0,1.89,0,3.78-.01,5.68,0,1.77-3.19,2.61-4.98,2.68-7.28,.26-11.84,1.89-18.42,5.14-4.71,2.33-9.85,3.46-15.15,3.47-16.65,.03-33.3,0-49.95,.02-3.13,0-5.5-1.55-8.04-3.18-2.75-1.77-2.57-4.45-3.01-6.91-.49-2.76,.14-5.48,1.99-7.69,1.21-1.44,.95-2.3-.62-3.06-2.15-1.04-3.47-3.86-6.66-3.06Z"/><path class="f" d="M118.29,121.86c-6.96,0-13.92-.06-20.88,.04-1.82,.03-2.7-.58-3.29-2.3-2.38-6.94-4.95-13.81-7.31-20.76-.65-1.91-1.67-2.57-3.63-2.55-7.11,.1-14.22,.06-21.34,.07-3.05,0-3.28-.2-3.67-3.28-.02-.15-.02-.3-.04-.45-.2-1.42-.84-2.95-.49-4.22,.42-1.56,2.45-1.07,3.72-1.64,5.11-2.29,7.98-7.1,7.24-12.87-.65-5.1-1.43-10.18-2.32-15.25-1-5.71-5.95-9.9-11.9-9.88-2.52,0-3.45-.78-3.7-3.24-.54-5.53-1.88-5.48,4.66-5.42,17.93,.14,35.86,.32,53.79-.09,10.56-.24,20.02,7.25,22.45,17.94,2.22,9.77,1.62,19.39-1.85,28.79-.57,1.54-.52,2.84,.07,4.34,3.76,9.57,7.42,19.19,11.18,28.76,.62,1.59,.47,2.06-1.36,2.04-7.11-.09-14.22-.04-21.34-.04Z"/><path class="f" d="M54.14,53.82c3.96,.11,6.47,1.96,7.13,5.49,.98,5.27,1.8,10.58,2.51,15.9,.4,2.97-1.56,5.82-4.41,6.95-2.19,.87-2.82,.57-3.2-1.79-1.17-7.24-2.28-14.48-3.41-21.73-.13-.82-.23-1.65-.41-2.46-.41-1.84,.01-2.88,1.8-2.37Z"/></g></g></g></svg>