<?xml version="1.0" encoding="UTF-8"?><svg xmlns="http://www.w3.org/2000/svg" viewBox="0 0 257.42 239.87"><defs><style>.e{isolation:isolate;opacity:1;stroke:#002368;stroke-miterlimit:10;stroke-width:5.67px;}.e,.f{fill:#fff;}.g{fill:#002368;}</style></defs><g id="a"/><g id="b"><g id="c"><g transform="matrix(1, 0, 0, 1, 0, 0)"><rect id="d" class="e" x="2.83" y="2.83" width="251.75" height="234.2" rx="7.63" ry="7.63"/></g><g><g><polyline class="f" points="216.29 189.76 49.54 189.76 49.54 52.4 216.29 52.4"/><path class="g" d="M220.89,192.01c0,1.14-.93,2.07-2.07,2.07h-85.92c-1.14,0-2.07-.93-2.07-2.07v-4.51c0-1.14,.93-2.07,2.07-2.07h77.27c1.14,0,2.07-.93,2.07-2.07V58.79c0-1.14-.93-2.07-2.07-2.07h-77.27c-1.14,0-2.07-.93-2.07-2.07v-4.51c0-1.14,.93-2.07,2.07-2.07h85.92c1.14,0,2.07,.93,2.07,2.07V192.01Z"/></g><g><polygon class="g" points="131.89 137.3 216.72 76.73 216.72 66.88 131.89 127.45 131.89 137.3"/><path class="g" d="M216.51,53.61c-.12,0-.22-.93-.22-2.07v-1.4c0-1.14-.93-2.07-2.07-2.07H47.29c-1.14,0-2.07,.93-2.07,2.07V192.01c0,1.14,.93,2.07,2.07,2.07H214.23c1.14,0,2.07-.93,2.07-2.07v-1.37c0-1.14,.1-2.07,.22-2.07s.22-.93,.22-2.07V89.19c0-1.14-.76-1.53-1.68-.87l-81.47,58.17c-.93,.66-1.68,2.13-1.68,3.27v33.6c0,1.14-.93,2.07-2.07,2.07H55.93c-1.14,0-2.07-.93-2.07-2.07V58.79c0-1.14,.93-2.07,2.07-2.07h73.89c1.14,0,2.07,.93,2.07,2.07v62.53c0,1.14,.76,1.53,1.68,.87l81.47-58.17c.93-.66,1.68-2.13,1.68-3.27v-5.07c0-1.14-.1-2.07-.22-2.07Z"/></g><rect class="f" x="202.91" y="109.14" width="6.39" height="24.55" rx="2.07" ry="2.07"/><g><path class="g" d="M85.67,101.72c0,1.14,.81,1.6,1.79,1.03l10.2-5.89c.98-.57,.98-1.5,0-2.07l-10.2-5.89c-.98-.57-1.79-.1-1.79,1.03v1.16c0,1.14-.93,2.07-2.07,2.07H29.12c-1.14,0-2.07,.93-2.07,2.07v1.19c0,1.14,.93,2.07,2.07,2.07h54.48c1.14,0,2.07,.93,2.07,2.07v1.16Z"/><path class="g" d="M85.67,118.08c0,1.14-.93,2.07-2.07,2.07H29.12c-1.14,0-2.07,.93-2.07,2.07v1.19c0,1.14,.93,2.07,2.07,2.07h54.48c1.14,0,2.07,.93,2.07,2.07v1.16c0,1.14,.81,1.6,1.79,1.03l10.2-5.89c.98-.57,.98-1.5,0-2.07l-10.2-5.89c-.98-.57-1.79-.1-1.79,1.03v1.16Z"/><path class="g" d="M85.67,145.05c0,1.14-.93,2.07-2.07,2.07H29.12c-1.14,0-2.07,.93-2.07,2.07v1.19c0,1.14,.93,2.07,2.07,2.07h54.48c1.14,0,2.07,.93,2.07,2.07v1.16c0,1.14,.81,1.6,1.79,1.03l10.2-5.89c.98-.57,.98-1.5,0-2.07l-10.2-5.89c-.98-.57-1.79-.1-1.79,1.03v1.16Z"/></g></g></g></g></svg>