<?xml version="1.0" encoding="UTF-8"?><svg xmlns="http://www.w3.org/2000/svg" viewBox="0 0 255.89 239.87"><defs><style>.e{fill:#fff;isolation:isolate;opacity:1;stroke:#002368;stroke-miterlimit:10;stroke-width:5.67px;}.f{fill:#002368;}</style></defs><g id="a"/><g id="b"><g id="c"><g transform="matrix(1, 0, 0, 1, 0, 0)"><rect id="d" class="e" x="2.83" y="2.83" width="250.22" height="234.2" rx="7.63" ry="7.63"/></g><g><g><g><path class="f" d="M53.66,183.12c2.7-6.84,10.42-10.2,17.26-7.5,6.84,2.7,10.2,10.42,7.5,17.26s-10.42,10.2-17.26,7.5c-6.84-2.7-10.2-10.42-7.5-17.26Z"/><path class="f" d="M68.58,154.22c1.64-4.16,6.33-6.2,10.49-4.56,4.16,1.64,6.2,6.33,4.56,10.49-1.64,4.16-6.33,6.2-10.49,4.56-4.16-1.64-6.2-6.33-4.56-10.49Z"/><path class="f" d="M85.02,173.93c1.1-2.79,4.25-4.16,7.04-3.06,2.79,1.1,4.16,4.25,3.06,7.04-1.1,2.79-4.25,4.16-7.04,3.06-2.79-1.1-4.16-4.25-3.06-7.04Z"/></g><path class="f" d="M90.85,59.17h-5.98v-13.76h12.23c3.36,0,6.1-2.75,6.1-6.1s-2.75-6.1-6.1-6.1h-12.24c-.01-5.12-4.2-9.3-9.32-9.3s-9.31,4.18-9.32,9.3h-12.24c-3.36,0-6.1,2.75-6.1,6.1s2.75,6.1,6.1,6.1h12.23v13.76h-27.91v23.06h52.55c8.9,0,16.14,7.24,16.14,16.14v7.31h23.06v-7.31c0-21.62-17.59-39.2-39.2-39.2Z"/><rect class="f" x="104.37" y="109.49" width="28.51" height="8.3" rx="1.86" ry="1.86"/><g><rect class="f" x="109.67" y="121.77" width="3.09" height="26.56"/><rect class="f" x="117.54" y="121.77" width="3.09" height="26.56"/><rect class="f" x="125.41" y="121.77" width="3.09" height="26.56"/></g></g><path class="f" d="M177.2,217.44c-.18,0-.35-.01-.53-.03l-.38-.02h-40.12c-3.59,0-6.51-2.92-6.51-6.51s2.74-6.33,6.24-6.48h21.99c.82,0,1.49-.67,1.49-1.49s-.67-1.49-1.49-1.49h-41.78c-3.59,0-6.51-2.92-6.51-6.51s2.92-6.51,6.51-6.51l41.78,.03c.82,0,1.49-.67,1.49-1.49s-.67-1.49-1.49-1.49h-49.36c-3.59-.01-6.51-2.93-6.51-6.52s2.92-6.51,6.51-6.51h49.36c.82-.01,1.49-.68,1.49-1.5s-.67-1.49-1.49-1.49h-36.57c-3.59,0-6.51-2.91-6.51-6.5s2.92-6.51,6.51-6.51h54.62l-11.57-6.71c-1.75-.99-3.02-2.6-3.56-4.55-.54-1.94-.3-3.98,.69-5.73,1.33-2.36,3.86-3.83,6.59-3.83,1.29,0,2.56,.33,3.68,.97,.33,.19,33.39,19.26,37.22,21.32,6.95,3.15,11.59,10.44,11.59,18.15v21.8c0,9.37-6.69,17.46-15.91,19.24-.74,.22-1.33,.32-1.89,.32h-.87l-.38,.02c-.18,.01-.36,.02-.54,.02h-23.77Z"/></g></g></g></svg>