<?xml version="1.0" encoding="UTF-8"?><svg xmlns="http://www.w3.org/2000/svg" viewBox="0 0 258.18 239.87"><defs><style>.e{fill:#fff;isolation:isolate;opacity:1;stroke:#002368;stroke-miterlimit:10;stroke-width:5.67px;}.f{fill:#002368;}</style></defs><g id="a"/><g id="b"><g id="c"><g transform="matrix(1, 0, 0, 1, 0, 0)"><rect id="d" class="e" x="2.83" y="2.83" width="252.51" height="234.2" rx="7.63" ry="7.63"/></g><path class="f" d="M188.94,191.87c-.17,0-.34-.01-.51-.03l-.36-.02h-38.78c-3.47,0-6.29-2.82-6.29-6.29s2.65-6.12,6.03-6.26h21.25c.8,0,1.44-.65,1.44-1.44s-.65-1.44-1.44-1.44h-40.38c-3.47,0-6.29-2.82-6.29-6.29s2.82-6.29,6.29-6.29l40.38,.03c.8,0,1.44-.65,1.44-1.44s-.65-1.44-1.44-1.44h-47.7c-3.47-.01-6.29-2.83-6.29-6.3s2.82-6.29,6.29-6.29h47.7c.8-.01,1.44-.66,1.44-1.45s-.65-1.44-1.44-1.44h-35.34c-3.47,0-6.29-2.81-6.29-6.28s2.82-6.29,6.29-6.29h52.78l-11.18-6.49c-1.7-.96-2.91-2.51-3.44-4.4-.52-1.88-.29-3.85,.66-5.53,1.29-2.29,3.73-3.7,6.37-3.7,1.24,0,2.47,.32,3.56,.93,.32,.18,32.27,18.61,35.97,20.61,6.71,3.04,11.2,10.09,11.2,17.54v21.07c0,9.05-6.47,16.87-15.38,18.59-.72,.21-1.28,.31-1.83,.31h-.84l-.37,.02c-.17,.01-.34,.02-.52,.02h-22.97Z"/><g><rect class="f" x="120.9" y="76.44" width="3.2" height="3.85" transform="translate(40.71 198.61) rotate(-88.38)"/><path class="f" d="M123.33,117.12l-3.84-.11,.16-5.7,3.84,.11-.16,5.7Zm.26-9.27l-3.84-.11,.16-5.7,3.84,.11-.16,5.7Zm.26-9.28l-3.84-.11,.16-5.7,3.84,.11-.16,5.7Zm.26-9.28l-3.84-.11,.16-5.7,3.84,.11-.16,5.7Z"/><rect class="f" x="119.66" y="120.33" width="3.2" height="3.85" transform="translate(-4.36 240.02) rotate(-88.38)"/></g><g><rect class="f" x="131.13" y="72.61" width="3.84" height="3.2" transform="translate(-19.3 74.41) rotate(-29.22)"/><path class="f" d="M148.09,105.06l-3.26-5.84,3.35-1.88,3.26,5.84-3.35,1.88Zm-5.31-9.5l-3.26-5.84,3.35-1.88,3.26,5.84-3.35,1.88Zm-5.31-9.5l-3.26-5.84,3.35-1.88,3.26,5.84-3.35,1.88Z"/><rect class="f" x="150.68" y="107.59" width="3.84" height="3.2" transform="translate(-33.89 88.42) rotate(-29.23)"/></g><g><rect class="f" x="143.87" y="65.99" width="3.84" height="3.2" transform="translate(4.15 143.5) rotate(-53.06)"/><path class="f" d="M178.07,94.27l-4.94-3.71,2.31-3.07,4.94,3.71-2.31,3.07Zm-8.04-6.04l-4.94-3.71,2.31-3.07,4.94,3.71-2.31,3.07Zm-8.04-6.05l-4.94-3.71,2.31-3.07,4.94,3.71-2.31,3.07Zm-8.04-6.04l-4.94-3.71,2.31-3.07,4.94,3.71-2.31,3.07Z"/><rect class="f" x="181.68" y="94.43" width="3.84" height="3.2" transform="translate(-3.48 185.09) rotate(-53.07)"/></g><g><rect class="f" x="32.91" y="92.52" width="67.81" height="106.05" rx="2.01" ry="2.01"/><rect class="f" x="51.37" y="73" width="30.89" height="15.97" rx="2.01" ry="2.01"/><path class="f" d="M123.45,49.74c-.57-.95-1.95-1.72-3.06-1.72h-36.31c-1.11,0-2.01-.85-2.01-1.88s-.91-1.88-2.01-1.88h-26.49c-1.11,0-2.01,.91-2.01,2.01v9.41c0,1.11,.91,2.01,2.01,2.01h6.53c1.11,0,2.01,.91,2.01,2.01v7.73c0,1.11,.91,2.01,2.01,2.01h5.39c1.11,0,2.01-.91,2.01-2.01v-7.73c0-1.11,.91-2.01,2.01-2.01h6.53c1.11,0,2.01-.73,2.01-1.63s.91-1.63,2.01-1.63h32.7c1.11,0,2.48,.77,3.06,1.72l4.22,6.96c.57,.95,1.82,1.25,2.76,.68l2.04-1.24c.95-.57,1.25-1.82,.68-2.76l-6.1-10.04Z"/></g></g></g></svg>