<?xml version="1.0" encoding="UTF-8"?><svg xmlns="http://www.w3.org/2000/svg" viewBox="0 0 255.89 239.87"><defs><style>.e{fill:#fff;isolation:isolate;opacity:1;stroke:#002368;stroke-miterlimit:10;stroke-width:5.67px;}.f{fill:#002368;}</style></defs><g id="a"/><g id="b"><g id="c"><g transform="matrix(1, 0, 0, 1, 0, 0)"><rect id="d" class="e" x="2.83" y="2.83" width="250.22" height="234.2" rx="7.63" ry="7.63"/></g><g><g><rect class="f" x="133.05" y="79.38" width="4.09" height="3.41" transform="translate(-.25 161.75) rotate(-61.77)"/><path class="f" d="M170.42,102.36l-5.34-2.87,1.93-3.6,5.34,2.87-1.93,3.6Zm-8.7-4.67l-5.34-2.87,1.93-3.6,5.34,2.87-1.93,3.6Zm-8.7-4.67l-5.34-2.87,1.93-3.6,5.34,2.87-1.93,3.6Zm-8.7-4.67l-5.34-2.87,1.93-3.6,5.34,2.86-1.93,3.61Z"/><rect class="f" x="174.2" y="101.46" width="4.09" height="3.41" transform="translate(1.99 209.64) rotate(-61.77)"/></g><g><rect class="f" x="134.47" y="65.48" width="3.41" height="4.09"/><path class="f" d="M173.8,69.6h-7.36v-4.1h7.36v4.1Zm-11.98-.01h-7.35v-4.1h7.36v4.1Zm-11.98-.01h-7.36v-4.1h7.36v4.1Z"/><rect class="f" x="178.42" y="65.52" width="3.41" height="4.09"/></g><g><rect class="f" x="133.42" y="50.54" width="3.41" height="4.09" transform="translate(-9.27 65.76) rotate(-26.48)"/><path class="f" d="M141.25,51.81l-1.82-3.66,5.88-2.93,1.82,3.66-5.88,2.93Zm9.58-4.77l-1.82-3.66,5.88-2.93,1.82,3.66-5.88,2.93Zm9.58-4.77l-1.82-3.66,5.88-2.93,1.82,3.66-5.88,2.93Zm9.58-4.77l-1.82-3.66,5.88-2.93,1.82,3.66-5.88,2.93Z"/><rect class="f" x="178.47" y="28.11" width="3.41" height="4.09" transform="translate(5.46 83.5) rotate(-26.48)"/></g><g><polygon class="f" points="185.82 165.64 179.99 144.19 174.15 165.65 152.74 171.45 174.16 177.25 179.99 198.7 185.81 177.25 207.24 171.45 185.82 165.64"/><polygon class="f" points="155.92 144.52 167.6 141.36 155.92 138.19 152.74 126.5 149.56 138.19 137.89 141.36 149.56 144.52 152.74 156.21 155.92 144.52"/><polygon class="f" points="190.73 126.57 194.75 141.36 198.77 126.57 213.55 122.57 198.77 118.57 194.75 103.78 190.73 118.57 175.96 122.57 190.73 126.57"/></g><g><path class="f" d="M97.09,78.4c.62-.86,1.4-.74,1.72,.28l5.51,17.18c.32,1.01,1.46,1.84,2.52,1.84h3.03c1.06,0,1.67-.83,1.34-1.84l-5.56-17.32c-.32-1.01,.28-1.84,1.34-1.84h1.39c1.06,0,1.93-.87,1.93-1.93v-.19c0-1.06,.87-1.93,1.93-1.93h3.16c1.06,0,1.93-.87,1.93-1.93v-7.09c0-1.06-.87-1.93-1.93-1.93h-3.16c-1.06,0-1.93-.82-1.93-1.83s-.87-1.83-1.93-1.83h-41.68c-1.06,0-2.63,.52-3.47,1.16l-5.26,3.96c-.85,.64-1.57,2.03-1.6,3.09l-.33,10.3c-.03,1.06,.6,2.5,1.4,3.19l9.03,7.73c.81,.69,2.34,1.26,3.4,1.26h17.8c1.06,0,2.44-.7,3.07-1.56l6.35-8.75Z"/><path class="f" d="M41.76,211.51c-.11,1.06,.68,1.92,1.74,1.92H115.97c1.06,0,1.85-.86,1.74-1.92l-8.12-81.54c-.11-1.06-.77-2.57-1.48-3.36l-12.02-13.38c-.71-.79-2.16-1.44-3.22-1.44h-26.25c-1.06,0-2.51,.65-3.22,1.44l-12.02,13.38c-.71,.79-1.38,2.3-1.48,3.36l-8.12,81.54Z"/><rect class="f" x="65.41" y="92.87" width="27.91" height="14.76" rx="1.93" ry="1.93"/></g></g></g></g></svg>