<?xml version="1.0" encoding="UTF-8"?>
<svg xmlns="http://www.w3.org/2000/svg" viewBox="0 0 245.85 63.53">
	<defs>
		<style>.h,.i,.j{fill:none;}.k{fill:#fff;}.l{fill:#801a42;}.m{isolation:isolate;}.i{stroke:#801a42;}.j{stroke:#fff;}</style>
	</defs>
	<g id="a" />
	<g id="b">
		<g id="c">
			<g>
				<rect id="d" class="l" x="6.67" y="6.32" width="239.18" height="57.21" />
				<g id="e">
					<rect class="h" x=".21" y=".25" width="239.18" height="57.21" />
					<rect class="i" x=".5" y=".5" width="238.59" height="56.7" />
				</g>
				<g id="f">
					<rect class="h" x="6.67" y="6.32" width="232.72" height="51.13" />
					<rect class="j" x="6.96" y="6.58" width="232.13" height="50.63" />
				</g>
				<g class="m">
					<path class="k" d="M57.52,29.67c1.16-.06,4.56-.08,5.85-.45l1.28,1.49c-1.71,1.09-3.55,2.83-5.14,4.02,2.17-.21,4.86-.39,6.84-.39v1.91c-6.81-1.52-10.5,5.17-1.96,4.62l-.44,2.12c-5.39,.53-8.41-2.93-5.38-6.34-1.49,.13-3.31,.37-4.93,.65l-.19-1.96c2.93,.33,5.61-2.38,7.41-4-1.43,.09-3.34,.17-4.78,.36l-.1-2.07c.52,.03,.99,.05,1.54,.05Z" />
					<path class="k" d="M78.34,42.78l-1.21-1.93c5.36,.43,7.46-7.76,1.8-8.88-2.93,21.63-16.87,.17-.96-1.98,8.35-.11,8.88,12.07,.37,12.79Zm-4.46-3.63c1.55-.12,2.56-5.2,2.84-7.13-3.63,.46-5.63,5.96-2.84,7.13Z" />
					<path class="k" d="M93.64,28.92c-2.08,2.17-1.47,11.73-1.51,14.47h-1.91v-8.25c-.34,.45-.68,.86-1.02,1.22-.18-.44-.71-1.49-1.04-1.94,1.47-1.46,2.88-3.76,3.69-6.08l1.78,.58Zm7.02,12.53c.96,0,1.12-.39,1.28-2.22,.42,.29,1.2,.62,1.72,.75,.1,4.24-3.76,3.05-6.43,3.21-4.31,.58-2.65-4.79-2.96-7.28l-1.22,.47-.75-1.7,1.96-.76v-3.82h1.91v3.08l1.57-.62v-4.2h1.8v3.5c.49-.19,1.87-.68,2.24-1.07l1.31,.5c-.57,4.19,1.27,7.64-2.95,7.45-.03-.54-.19-1.34-.42-1.77,2.28,.25,1.23-.83,1.51-3.82l-1.69,.67v5.77h-1.8v-5.06l-1.57,.62v5.19c-.4,1.98,3.49,.82,4.49,1.12Z" />
					<path class="k" d="M115.37,42.78l-1.21-1.93c5.36,.43,7.46-7.76,1.8-8.88-2.93,21.63-16.87,.17-.96-1.98,8.35-.11,8.88,12.07,.37,12.79Zm-4.46-3.63c1.55-.12,2.56-5.2,2.84-7.13-3.63,.46-5.63,5.96-2.84,7.13Z" />
					<path class="k" d="M135.78,40.7c1.65,.58,3.52,1.36,4.62,1.9l-2.24,.86c-.92-.54-2.58-1.3-4.21-1.91l1.46-.84h-4.73l1.47,.65c-1.34,.88-3.42,1.67-5.06,2.12-.34-.37-1.02-1.07-1.43-1.41,1.57-.29,3.34-.81,4.46-1.36h-2.4v-6.61h5.38c-.24-.41-.78-.96-1.12-1.18,.41-.26,.71-.53,.94-.81h-1.46v1.68h-1.72v-1.68h-1.43c-.24,.92-.7,1.91-1.56,2.69-.26-.36-.88-.97-1.26-1.2,1.64-1.54,1.34-3.18,1.38-4.94,1.39,.59,3.52-.05,4.6-.34l1.18,1.13c-1.17,.36-2.71,.58-4.12,.7,0,.18,0,.37-.02,.57h4.46v1.31c.78-.99,.52-2.25,.57-3.35,1.49,.59,3.76-.08,4.93-.36l1.17,1.15c-1.25,.36-2.92,.57-4.42,.7,0,.18,0,.36-.02,.55h5.07v1.39h-2.04v1.7h-1.72v-1.7h-1.64c-.28,.71-.76,1.41-1.59,1.99h5.28v6.61h-2.8Zm-6.19-4.76h7.03v-.7h-7.03v.7Zm0,1.8h7.03v-.7h-7.03v.7Zm0,1.8h7.03v-.71h-7.03v.71Z" />
					<path class="k" d="M146.82,34.93v8.49h-1.91v-14.52h6.19v6.03h-4.28Zm0-4.55v.88h2.48v-.88h-2.48Zm2.48,3.09v-.92h-2.48v.92h2.48Zm.99,7.67v.91h-1.8v-6h6.27v5.09h-4.47Zm0-3.5v1.91h2.67v-1.91h-2.67Zm8.26,3.48c0,2.56-1.7,2.19-4.07,2.3-.07-.55-.37-1.46-.65-1.98,1.22-.1,2.53,.46,2.77-.36v-6.14h-4.39v-6.04h6.34v12.22Zm-4.5-10.76v.89h2.56v-.89h-2.56Zm2.56,3.13v-.94h-2.56v.94h2.56Z" />
					<path class="k" d="M169.51,30.64c1.54-.08,3.16-.23,4.59-.47l-.02,1.88c-1.54,.23-3.53,.36-5.28,.41-.28,.6-.6,1.18-.92,1.65,1.25-.5,3.42-.56,3.99,.92,1.49-.68,2.63-1.1,3.99-1.8l.81,1.88c-1.59,.5-2.87,1.03-4.57,1.78,.02,.91,.05,2.11,.06,2.85h-1.94c.05-.49,.07-1.26,.08-1.98-5.43,3.57,2.38,3.7,5.09,2.82l-.07,2.09c-6.49,1.5-13.86-1.58-5.22-6.76-1.84-1.69-4.04,.8-5.17,2.35l-1.73-1.3c1.7-1.57,2.85-3.01,3.58-4.47-.8,0-1.94-.03-2.95-.1v-1.9c1.14,.18,2.49,.21,3.63,.2,.18-.65,.29-1.28,.32-1.86l2.14,.18c-.08,.41-.2,.94-.41,1.62Z" />
					<path class="k" d="M193.38,41.46c.55,0,.65-.28,.73-2.16,.4,.31,1.26,.63,1.77,.76-.07,3.85-2.01,3.19-4.46,3.22-3.17,.36-2.25-3-2.38-4.99h-1.96c-.34,2.58-1.3,4.28-5.3,5.19-.18-.52-.7-1.31-1.07-1.72,3.32-.62,4.02-1.7,4.29-3.47h-1.98v-9.51h10.6v9.51h-2.64c.22,2.62-1.04,3.43,2.4,3.16Zm-8.49-9.98h6.77v-1h-6.77v1Zm0,2.56h6.77v-1h-6.77v1Zm0,2.58h6.77v-1h-6.77v1Z" />
					<path class="k" d="M203.37,29.75c1.42-.04,5.14,0,6.48-.32l1.05,1.44c-1.53,.91-3.19,2.38-4.73,3.6,7.41-1.88,9.1,8.81,.52,8.49-9.31-.86,.3-9.65,2.4-2.41,5.05-5.25-5.36-6.19-7.86-1.36l-1.47-1.52c2.47-2.04,5.14-4.23,7.45-6.17-1.45,.05-3.82,.1-5.25,.29l-.06-2.11c.45,.06,1.02,.08,1.47,.08Zm2.92,11.36c.34,0,.65-.02,.94-.05-.25-3.58-5.02-.48-.94,.05Z" />
				</g>
				<path id="g" class="k" d="M40.98,35.69l-7.09,3.54v-7.09l7.09,3.54Z" />
			</g>
		</g>
	</g>
</svg>