<?xml version="1.0" encoding="UTF-8"?><svg xmlns="http://www.w3.org/2000/svg" viewBox="0 0 56.14 152.75"><defs><style>.d{fill:#42210b;}</style></defs><g id="a"/><g id="b"><g id="c"><g><path class="d" d="M33.55,5.67c1.04,.94,1.95,1.33,3.09,1.33,.73,0,1.4-.08,2.6-.34,.03-.75,.03-1.92,.03-2.39,0-2.73-.31-3.28-2.11-3.59,.36-.29,.57-.36,1.12-.36,.88,0,1.98,.26,2.68,.65,.34,.18,.57,.55,.57,.83q0,.16-.29,.68c-.42,.75-.68,1.98-.81,3.87,1.38-.47,2-.81,2.83-1.51,.21-.16,.47-.26,.62-.26,.23,0,.68,.1,.99,.23,.26,.1,.44,.34,.44,.57,0,.36-.23,.57-1.17,1.01-1.17,.55-2.39,.96-3.8,1.27q-.03,.36-.08,1.3c-.03,.7-.08,1.85-.1,3.41,2.91-1.04,4.78-1.43,6.89-1.43,3.56,0,5.8,1.69,5.8,4.45,0,2.55-1.95,4.52-4.45,4.52s-4.11-1.59-5.02-4.6l.39-.13c.62,1.2,1.01,1.74,1.56,2.26,.73,.68,1.53,.99,2.47,.99,1.9,0,3.25-1.48,3.25-3.56s-1.35-3.09-3.85-3.09c-2.05,0-4.52,.65-7.05,1.87q0,2.76,.03,3.54c.03,.49,.03,.78,.03,.99,0,.62-.1,1.12-.34,1.53-.31,.6-.81,.96-1.25,.96q-.36,0-1.95-1.4c-.55-.44-1.3-.96-1.74-1.17-.57-.26-.86-.65-.86-1.09,0-.42,.26-.94,.78-1.46,.96-.99,1.85-1.56,4.13-2.68,.03-.36,.03-.75,.05-1.25q.05-1.17,.13-3.74c-.81,.13-1.4,.18-2.03,.18-1.66,0-2.78-.6-3.87-2.13l.26-.26Zm2.86,10.53c-.52,.55-.78,.96-.78,1.25,0,.26,.34,.55,1.04,.81,.57,.23,1.27,.42,1.61,.42,.31,0,.44-.18,.47-.65,.13-2.34,.18-3.61,.18-3.77-1.22,.75-1.87,1.25-2.52,1.95ZM48,3.04c1.59,.08,2.76,.36,3.82,.94,1.14,.62,1.82,1.48,1.82,2.29,0,.47-.31,.75-.78,.75-.05,0-.18,0-.39-.05-.36-.05-.47-.05-.55-.05-.39,0-1.01,.13-3.2,.7l-.16-.26c1.56-.81,2.47-1.35,2.83-1.66-.42-.73-.83-1.14-1.64-1.61-.52-.29-.94-.44-1.79-.68l.03-.36Z"/><path class="d" d="M42.21,33.25h-4.86q-.99,.03-1.61,.05t-1.04,.08l-.18-.99c.96,.16,2.18,.26,2.83,.26h11.6c.65-.75,.86-.96,1.53-1.66,1.01,.81,1.3,1.07,2.31,1.92,.05,.05,.1,.13,.1,.16,0,.1-.13,.18-.29,.18h-8.55v2.13h8.06c.34-.36,.7-.73,1.09-1.09,.96,.68,1.25,.88,2.13,1.64,.21,.21,.29,.31,.29,.42,0,.08-.08,.18-.16,.23-.05,.05-.23,.08-.47,.1-.44,.05-.73,.08-.91,.1-.23,.26-.42,.47-.55,.6-.78,.86-.91,.99-1.61,1.53l-.18-.13c.39-1.2,.52-1.64,.78-2.81h-8.48v1.95c.03,1.2,.03,2.08,.03,2.68q0,.78,.03,1.46c-.03,.44-.39,.57-1.53,.57-.29,0-.36-.05-.44-.26q.03-.75,.08-4.19v-2.21h-7.36c-.1,.99-.29,1.74-.55,2.31-.34,.75-1.09,1.51-1.53,1.51-.47,0-.81-.65-.81-1.53,0-.29,.03-.34,.23-.47,1.48-.99,2.08-1.92,2.31-3.69h.39v1.27h7.31v-2.13Zm-8.09,7.41c1.01,.16,1.46,.21,2.34,.21h2.03c.52-.57,.68-.75,1.25-1.33,.75,.62,.99,.83,1.74,1.56,.08,.08,.13,.16,.13,.21,0,.1-.08,.16-.21,.16h-4.94c-.88,0-1.2,0-2.11,.08l-.23-.88Zm9.72,12.12c0,.36,.03,.42,.13,.49,.16,.08,.21,.08,.78,.1,.18,0,3.35,.08,3.41,.08,1.59,0,3.77-.05,4.03-.1,.34-.08,.44-.18,.68-.62,.18-.31,.42-.94,.75-1.95,.47-1.33,.73-2.08,.81-2.26h.31l-.44,4.11v.34c0,.23,.03,.26,.44,.42,.23,.08,.42,.34,.42,.57,0,.34-.21,.62-.57,.75-.62,.21-2.65,.31-6.34,.31-3.25,0-4.52-.08-5.1-.26-.68-.26-.94-.78-.94-1.98v-2.16h-5.75v1.14c-.05,.21-.13,.31-.26,.36-.23,.05-.68,.1-1.09,.1-.29,0-.42-.1-.44-.36,.13-3.3,.13-3.48,.13-4.13,0-1.59-.08-4.47-.13-5.25,.91,.42,1.17,.57,2,1.07h13.1c.47-.49,.6-.65,1.07-1.09,.7,.44,.91,.6,1.59,1.14,.16,.13,.21,.21,.21,.34,0,.18-.16,.31-.94,.73v1.59c0,.94,0,1.46,.05,4.99-.03,.18-.1,.26-.23,.34-.21,.08-.75,.16-1.17,.16-.23,0-.34-.08-.36-.29v-.83h-6.14v2.16Zm-8.84-14.77c.83,.13,1.3,.18,1.9,.18h1.74c.44-.52,.6-.7,1.07-1.25,.78,.6,1.01,.81,1.79,1.51,.05,.08,.08,.16,.08,.18,0,.08-.1,.16-.23,.16h-4.45c-.78,0-1.01,0-1.74,.08l-.16-.86Zm7.2,6.11h-5.75v2.55h5.75v-2.55Zm0,3.15h-5.75v2.76h5.75v-2.76Zm7.77-.6v-2.55h-6.14v2.55h6.14Zm0,3.35v-2.76h-6.14v2.76h6.14Zm-5.2-12.01c.81,.16,1.04,.18,2.13,.18h1.79c.44-.55,.57-.73,1.04-1.27l1.74,1.53c.05,.08,.1,.16,.1,.18,0,.1-.1,.16-.26,.16h-4.42c-.73,0-1.09,0-1.95,.05l-.18-.83Zm0,2.68c1.07,.18,1.2,.18,2.44,.18h2.44c.52-.6,.68-.75,1.22-1.33,.88,.65,1.12,.88,1.92,1.61,.05,.05,.08,.13,.08,.16,0,.08-.1,.16-.21,.16h-5.46c-.91,0-1.3,.03-2.26,.13l-.18-.91Z"/><path class="d" d="M31.83,70.2c.55,.13,1.64,.26,2.13,.26h4.68c.62-.68,.81-.88,1.46-1.51,.86,.73,1.12,.96,1.87,1.72,.08,.1,.13,.16,.13,.21,0,.1-.1,.18-.26,.18h-7.96c-.39,0-.73,.03-1.85,.13l-.21-.99Zm1.04,3.67c.57,.13,1.38,.23,1.9,.23h3.25c.52-.68,.7-.88,1.3-1.53,.88,.75,1.12,.99,1.87,1.74,.08,.1,.1,.18,.1,.23,0,.1-.1,.16-.31,.16h-6.27c-.6,0-.91,.03-1.61,.13l-.23-.96Zm.05-7c.65,.1,1.61,.21,2.08,.21h2.91c.6-.7,.81-.91,1.43-1.51,.91,.7,1.2,.94,2.03,1.72,.08,.1,.13,.16,.13,.23s-.13,.16-.31,.16h-6.21c-.16,0-.57,.03-1.14,.08-.18,0-.42,.03-.73,.03l-.18-.91Zm.03,10.38c.94,.18,1.4,.23,1.87,.23h3.28c.55-.65,.73-.83,1.33-1.46,.81,.7,1.07,.91,1.82,1.64,.08,.1,.13,.18,.13,.23,0,.13-.1,.18-.39,.18h-6.16c-.42,0-.81,.03-1.66,.1l-.21-.94Zm1.9,11.47c-.03,.18-.08,.26-.23,.31-.16,.08-.7,.13-1.12,.13-.23,0-.34-.08-.36-.29,.05-1.85,.05-2.76,.05-4.34q0-1.4-.05-4.6c.62,.39,1.25,.75,1.82,1.12h3.48c.44-.44,.57-.6,1.01-1.09,.62,.47,.81,.62,1.35,1.09,.21,.21,.26,.31,.26,.39,0,.16-.21,.34-.78,.65q0,4.29,.05,6.14c0,.44-.31,.55-1.35,.55-.23,0-.31-.05-.34-.26v-.88h-3.8v1.09Zm-.03-1.69h3.82v-5.38h-3.82v5.38Zm14.48-7.07h2.73l1.17-1.22c.75,.55,.96,.7,1.61,1.22,.21,.18,.26,.26,.26,.36,0,.23-.23,.42-.91,.73,0,4.47,.03,5.41,.08,7.36,0,.49-.26,.62-1.27,.62-.39,0-.52-.08-.57-.39v-1.01h-7.7v1.09c0,.42-.29,.57-1.07,.57-.47,0-.62-.08-.65-.36,.05-2.11,.05-3.09,.05-4.55s0-1.92-.05-5.54c.88,.44,1.14,.57,1.95,1.12h2.6v-5.25h-3.46c-.75,0-1.01,.03-2.18,.16l-.21-.99c.99,.18,1.59,.23,2.39,.23h3.46v-5.1c-2.16,.42-3.25,.57-5.62,.78l-.1-.34c3.8-.94,5.85-1.56,7.72-2.37,1.43-.6,2-.94,2.86-1.61,.52,.31,.94,.55,1.22,.7,.86,.49,1.25,.81,1.25,.99,0,.13-.21,.26-.44,.26-.13,0-.23-.03-1.04-.13-1.59,.68-2.26,.88-4.08,1.33v5.49h2.65c.75-.86,.99-1.09,1.77-1.87,1.04,.86,1.35,1.12,2.29,2,.08,.1,.13,.21,.13,.29s-.13,.18-.26,.18h-6.58v5.25Zm-4.6,7.07h7.7v-6.47h-7.7v6.47Z"/><path class="d" d="M35,111.23c-1.25,1.33-2,2-3.54,3.2l-.31-.36c1.82-1.98,2.55-2.91,3.82-4.89,1.22-1.92,1.69-2.91,2.08-4.32,2.63,1.04,2.76,1.12,2.76,1.35s-.36,.34-1.17,.34c-.91,1.4-1.48,2.16-2.52,3.41,.94,.26,1.38,.47,1.38,.65s-.26,.34-.81,.47v6.97l.03,4.37c-.03,.18-.05,.29-.1,.34-.16,.13-.6,.21-1.22,.21-.39,0-.47-.05-.49-.31,.05-2.29,.1-4.71,.1-6.68v-4.73Zm-3.54-4.81c1.82-1.56,2.91-2.81,4.06-4.58,.75-1.17,1.09-1.82,1.43-2.78,2.6,1.04,2.89,1.2,2.89,1.43,0,.26-.29,.34-1.35,.34-1.82,2.39-4.06,4.39-6.68,5.95l-.34-.36Zm17.84,6.4c.47-.52,.62-.68,1.14-1.2,.78,.62,1.01,.81,1.74,1.46,.18,.16,.23,.26,.23,.34s-.08,.18-.16,.21c-.1,.08-.49,.18-1.17,.39-1.27,1.82-2.18,2.86-3.56,4.03,2.21,1.38,4.47,2.08,8.11,2.42v.36c-.94,.29-1.4,.75-1.77,1.74-2.91-.68-5.2-1.85-7.33-3.77-2.55,1.9-5.36,3.17-8.76,4.03l-.21-.42c3.43-1.35,5.72-2.68,7.98-4.6-1.25-1.38-2.03-2.47-2.55-3.64-1.64,2.13-3.04,3.41-5.23,4.73l-.23-.31c2.37-2.08,4.58-5.1,5.72-7.83l-3.64,.44c-.16,.7-.29,.99-.49,.99-.31,0-.39-.39-.62-2.83,.94,.08,1.4,.1,2.16,.1,.26,0,.83,0,1.66-.03,.36-.03,.96-.03,1.69-.05,1.07-1.04,1.79-1.9,2.96-3.38,1.74-2.24,2.57-3.51,3.15-4.78,2.13,1.27,2.5,1.51,2.5,1.74,0,.18-.21,.26-.83,.26h-.42c-2.39,2.68-4.26,4.45-6.5,6.16q.23,0,.62-.03c1.85-.03,3.15-.1,6.03-.31-.81-1.14-1.17-1.56-2.11-2.44l.26-.26c1.51,.83,2.68,1.64,3.72,2.6,1.01,.91,1.33,1.38,1.33,2,0,.88-.44,1.85-.83,1.85-.21,0-.26-.1-.62-.83-.49-1.01-.68-1.33-1.4-2.42-2.73,.47-4.55,.75-6.66,.99-.39,.86-.75,1.51-1.25,2.29h5.33Zm-8.97-10.19c1.35,.7,1.9,1.01,2.78,1.53,1.07-2.13,1.66-3.64,1.92-4.94,2.31,.88,2.68,1.04,2.68,1.27,0,.21-.26,.31-1.12,.34-1.14,1.66-1.56,2.16-2.99,3.64,1.27,.86,1.56,1.2,1.56,1.74,0,.81-.39,1.56-.83,1.56-.13,0-.21-.08-.36-.31-.86-1.51-2.39-3.3-3.93-4.52l.29-.31Zm3.22,10.79c-.08,.13-.1,.16-.18,.29,.7,1.3,1.59,2.31,2.94,3.43,1.33-1.25,2.11-2.21,2.99-3.72h-5.75Z"/><path class="d" d="M43.46,152.31c2.81-.83,4.6-1.9,6.08-3.61,1.53-1.74,2.31-3.87,2.31-6.27,0-2.52-1.01-4.52-2.94-5.75-1.14-.75-2.86-1.2-4.5-1.2-.31,0-.49,0-.91,.05,.62,.91,.81,1.4,.81,2.16,0,2.03-1.46,5.82-3.43,9-1.64,2.6-2.91,3.88-3.87,3.88-.44,0-.86-.21-1.14-.55-.23-.31-.29-.42-.73-1.66-.23-.68-.39-.99-1.14-2.44-.42-.83-.6-1.53-.6-2.37,0-1.64,.88-3.56,2.34-5.15,2.11-2.24,5.54-3.64,8.94-3.64,2.63,0,5.04,.86,6.71,2.39s2.5,3.59,2.5,6.11c0,3.25-1.9,6.14-5.17,7.88-1.51,.81-2.86,1.22-5.07,1.61l-.18-.44Zm-8.55-8.09c0,1.25,.39,2.52,1.04,3.43,.36,.47,.7,.75,.99,.75,.57,0,1.82-1.4,3.09-3.43,1.92-3.07,3.3-6.42,3.3-8.03,0-.39-.08-.65-.36-1.3-4.52,.81-8.06,4.58-8.06,8.58Z"/><path class="d" d="M.44,6.32c1.51,.55,2.05,.81,2.96,1.35,1.09,.62,1.27,.83,1.27,1.43,0,.78-.42,1.64-.78,1.64-.18,0-.31-.16-.6-.65-.23-.42-.81-1.2-1.3-1.77-.55-.62-.96-.99-1.82-1.66l.26-.34Zm.21,9.49c.23,.05,.42,.08,.52,.1,.7,.18,1.04,.23,1.27,.23,.34,0,.44-.16,.96-1.33,.49-1.07,1.48-3.35,2.29-5.28q1.22-2.86,1.82-4.19l.29,.18-3.61,10.92c-.26,.81-.31,.96-.31,1.22,0,.44,.08,.88,.34,1.82,.16,.57,.23,1.2,.23,1.74,0,.75-.13,1.17-.49,1.56-.36,.39-1.04,.73-1.43,.73-.31,0-.55-.29-.55-.68,0-.13,.05-.49,.13-.88,.39-1.72,.52-2.6,.52-3.46,0-.65-.13-.99-.49-1.35-.42-.42-.81-.65-1.59-.96l.1-.39ZM1.95,.49c1.35,.55,2.5,1.12,3.41,1.69,.81,.52,1.07,.83,1.07,1.46,0,.7-.42,1.61-.73,1.61-.21,0-.36-.16-.65-.65-.31-.55-.6-.96-1.12-1.61C3.09,1.98,2.7,1.59,1.69,.78l.26-.29Zm2.94,22.96c1.33-.99,1.85-1.46,2.42-2.11,1.66-1.9,2.34-4.34,2.34-8.48,0-.68-.03-1.12-.08-1.98,2.5,.31,2.68,.36,2.68,.6,0,.16-.03,.18-.88,.55-.13,2.91-.18,3.43-.36,4.65-.31,1.98-1.35,3.77-3.04,5.25-.88,.78-1.53,1.2-2.91,1.85l-.16-.34ZM14.67,4.06c-1.07,1.95-1.61,2.78-2.81,4.42,3.9-.16,4.37-.18,7.54-.44-1.25-1.4-1.59-1.72-2.65-2.6l.21-.26c1.69,.88,3.56,2,4.68,2.78,.62,.44,.86,.83,.86,1.48,0,.78-.42,1.66-.81,1.66-.16,0-.31-.16-.52-.55-.52-.94-.86-1.46-1.33-1.98q-3.3,.6-11.15,1.66c-.03,.13-.05,.21-.08,.29-.08,.36-.16,.52-.31,.52-.26,0-.31-.13-.78-2.55q1.56,.05,1.9,.05t1.79-.08q.57-1.61,1.3-4.42h-3.25c-.96,0-1.22,.03-1.95,.21l-.23-1.07c.78,.21,1.27,.26,2.18,.26h4.34v-1.17c0-.86-.03-1.3-.1-2.29,.6,.08,1.09,.13,1.38,.16,1.27,.13,1.64,.23,1.64,.49,0,.21-.13,.26-1.09,.57V3.46h4.81c.65-.83,.86-1.09,1.56-1.9,1.12,.88,1.43,1.14,2.5,2.05,.13,.13,.18,.21,.18,.26,0,.13-.1,.18-.31,.18H14.67Zm.65,10.66c0,2.78,0,3.54,.08,7.85-.03,.21-.05,.26-.18,.34-.13,.05-.88,.13-1.22,.13-.23,0-.34-.1-.36-.31,.05-3.61,.08-5.43,.08-9.15,0-1.07-.03-1.64-.1-2.7,2.39,.29,2.65,.34,2.65,.6,0,.18-.16,.26-.94,.52v2.73Zm2.73-1.3c0-1.38,0-1.56-.08-2.47,2.26,.21,2.78,.31,2.78,.55,0,.21-.26,.36-1.04,.6v8.84c0,.39,.05,.47,.34,.47s.52,.03,.68,.03h.1c.96,0,1.35-.08,1.51-.26,.21-.29,.36-.88,1.43-5.23l.42,.03-.39,4.6v.34q0,.31,.55,.55c.26,.1,.39,.29,.39,.55,0,.42-.36,.73-.99,.83-.52,.08-1.82,.13-2.99,.13-2.34,0-2.7-.21-2.7-1.53V13.42Z"/><path class="d" d="M6.92,42.46q.03-.42,.05-1.09,.05-.52,.08-.91c-.78,.52-2.16,1.46-2.63,1.79-.49,.34-.65,.42-.88,.42-.68,0-1.92-1.53-1.92-2.37,0-.05,.03-.26,.08-.44,.57,.83,1.14,1.25,1.69,1.25s2.21-.7,3.74-1.56c.13-1.09,.18-1.82,.18-2.76,0-1.51-.23-1.95-1.48-2.89,.16-.1,.21-.13,.34-.13,.42,0,.99,.26,1.66,.7,.83,.57,1.35,1.22,1.35,1.72q0,.29-.26,1.07c-.18,.49-.36,1.33-.47,2.05,.57,.6,.75,.81,.75,1.01,0,.16-.03,.21-.36,.75-.31,.57-.57,1.07-.83,1.69-.05,.44-.05,.55-.05,.96,2.55-2.42,3.41-3.17,4.52-3.98,1.82-1.3,3.04-1.85,4.19-1.85,.81,0,1.53,.34,2.05,.94,.49,.57,.7,1.27,.7,2.29s-.03,1.17-.52,3.85c-.31,1.69-.47,3.2-.47,4.26s.18,1.59,.65,1.92c.36,.26,.83,.39,1.33,.39,1.3,0,3.12-.68,4.84-1.85l.21,.31c-1.87,1.92-3.9,2.99-5.75,2.99-1.98,0-3.04-1.27-3.04-3.64,0-.94,.23-2.6,.65-4.63,.6-2.78,.65-3.15,.65-4.11,0-1.27-.57-2-1.59-2-1.12,0-2.47,.78-4.55,2.63-1.35,1.2-2.57,2.47-3.95,4.11-.03,.62-.03,.96-.03,1.35,0,1.4,.08,2.65,.26,4.65,.08,.62,.08,.83,.08,1.22,0,1.48-.49,2.7-1.12,2.7-.29,0-.49-.21-.62-.7-.08-.26-.36-1.07-.44-1.25-.29-.52-1.12-1.59-2.29-2.83-.52,1.25-.62,1.4-.88,1.4-.23,0-.44-.21-.6-.6-.16-.42-.29-1.04-.29-1.43,0-.31,.03-.36,.44-.78,.42-.39,.83-.96,1.69-2.31l2.83-4.34Zm-1.59,4.86c-.6,1.14-.88,1.72-1.38,2.76,1.53,1.27,2,1.64,2.76,2.11q.05-.99,.08-4.86c0-1.27,.03-1.87,.1-2.94-.36,.75-.39,.75-1.56,2.94Z"/><path class="d" d="M12.46,84.84c2.81-.83,4.6-1.9,6.08-3.61,1.53-1.74,2.31-3.88,2.31-6.27,0-2.52-1.01-4.52-2.94-5.75-1.14-.75-2.86-1.2-4.5-1.2-.31,0-.49,0-.91,.05,.62,.91,.81,1.4,.81,2.16,0,2.03-1.46,5.82-3.43,9-1.64,2.6-2.91,3.87-3.87,3.87-.44,0-.86-.21-1.14-.55-.23-.31-.29-.42-.73-1.66-.23-.68-.39-.99-1.14-2.44-.42-.83-.6-1.53-.6-2.37,0-1.64,.88-3.56,2.34-5.15,2.11-2.24,5.54-3.64,8.94-3.64,2.63,0,5.04,.86,6.71,2.39s2.5,3.59,2.5,6.11c0,3.25-1.9,6.14-5.17,7.88-1.51,.81-2.86,1.22-5.07,1.61l-.18-.44Zm-8.55-8.09c0,1.25,.39,2.52,1.04,3.43,.36,.47,.7,.75,.99,.75,.57,0,1.82-1.4,3.09-3.43,1.92-3.07,3.3-6.42,3.3-8.03,0-.39-.08-.65-.36-1.3-4.52,.81-8.06,4.58-8.06,8.58Z"/><path class="d" d="M.94,102.39c1.12,.18,1.69,.21,3.41,.21h15.37c.73-.99,.99-1.27,1.79-2.21,1.33,1.04,1.74,1.38,3.02,2.5,.05,.05,.08,.13,.08,.16,0,.08-.1,.16-.29,.16H4.34c-1.56,0-2.03,.03-3.22,.18l-.18-.99Z"/><path class="d" d="M0,132.7c1.51-2.34,2.34-4,3.43-6.81,1.04-2.73,1.53-4.45,1.72-6.01,2.39,.55,2.76,.68,2.76,.91,0,.26-.26,.36-1.04,.52-.7,2.29-1.48,4.08-3.02,6.89,1.38,.16,1.82,.29,1.82,.55,0,.18-.16,.26-.81,.44v5.2q0,1.07,.05,6.6v1.92c-.05,.16-.1,.21-.26,.23-.23,.08-.88,.13-1.2,.13-.23,0-.31-.08-.31-.34v-.08q.03-1.82,.08-8.24v-5.36c-.86,1.35-1.48,2.16-2.89,3.69l-.34-.26Zm10.27-4.76c-.34,.91-.6,1.51-1.04,2.44,.6,.34,1.46,.96,2.03,1.46,.34,.31,.6,.75,.6,1.09,0,.68-.57,1.64-.99,1.64-.21,0-.29-.13-.49-.86-.26-1.07-.75-2.13-1.35-2.96-1.07,1.98-1.64,2.78-3.17,4.37l-.23-.26c1.46-2.37,2.31-4.24,3.09-6.76,.55-1.85,.81-3.12,1.07-5.25h-.16c-1.04,0-1.38,.03-2.24,.1l-.21-.96c.81,.18,1.56,.26,2.44,.26h4.29c.6-.73,.78-.96,1.4-1.66,.86,.78,1.12,1.01,1.92,1.85,.05,.08,.1,.18,.1,.26,0,.1-.13,.16-.36,.16h-5.41c-.29,1.92-.55,2.94-1.09,4.5h3.28c.39-.44,.52-.57,.88-1.01,.7,.49,.91,.65,1.56,1.17,.16,.13,.21,.21,.21,.34,0,.21-.1,.31-.86,.68-.83,3.93-1.74,6.27-3.41,8.68-1.61,2.37-3.43,4.08-6.29,5.95l-.26-.31c2.29-1.95,4.11-4.11,5.43-6.47,.91-1.56,1.77-3.69,2.31-5.67,.23-.86,.36-1.46,.55-2.76h-3.61Zm5.9,13.1c.57,.03,1.01,.05,1.27,.05,1.92,.13,2.13,.16,3.41,.16,.31-.08,.36-.16,.36-.55v-18.46c0-1.04,0-1.14-.05-1.87,2.11,.26,2.91,.47,2.91,.75,0,.21-.23,.31-1.09,.6v12.35l-.03,2.73,.03,3.9v.31c0,.73-.21,1.14-.83,1.56-.55,.39-1.07,.57-2.13,.78-.23-.75-.47-1.07-.99-1.35-.44-.23-.68-.29-2.86-.55v-.42Zm2.63-14.07c0,.36,0,3.25,.03,6.16q.03,1.87,.03,4.47c-.05,.36-.26,.44-1.38,.44-.23,0-.34-.1-.34-.34,.1-5.69,.1-6.24,.1-10.5q0-2.99-.1-3.98c2.18,.13,2.52,.21,2.52,.47,0,.23-.29,.42-.86,.57v2.7Z"/></g></g></g></svg>