<?xml version="1.0" encoding="UTF-8"?><svg xmlns="http://www.w3.org/2000/svg" viewBox="0 0 341.56 75.4"><defs><style>.e{fill:#fff;}.f{fill:#9f272d;}</style></defs><g id="a"/><g id="b"><g id="c"><g><g><path class="f" d="M46.8,41.17c-1.8-1.83-2.7-4.39-2.7-7.68V13.79c0-3.29,.91-5.85,2.71-7.67,1.81-1.82,4.41-2.73,7.79-2.73s5.98,.91,7.79,2.71c1.81,1.81,2.72,4.37,2.72,7.68v19.7c0,3.31-.91,5.88-2.72,7.69-1.81,1.82-4.41,2.73-7.79,2.73s-6-.91-7.8-2.74Zm10.36-5.33c.57-.76,.86-1.86,.86-3.27V14.72c0-1.4-.29-2.49-.86-3.26-.57-.77-1.42-1.16-2.55-1.16s-2,.39-2.57,1.16c-.56,.77-.85,1.86-.85,3.26v17.84c0,1.42,.29,2.51,.86,3.27,.57,.76,1.42,1.15,2.55,1.15s1.98-.38,2.55-1.15Z"/><path class="f" d="M81.51,43.51h-7.09V12.07l-4.94,2.1V6.56l5.4-2.73h6.63V43.51Z"/><path class="f" d="M87.45,37.04l10.78-15.88c.91-1.46,1.59-2.81,2.05-4.07s.68-2.37,.68-3.36v-.3c0-1.02-.27-1.79-.8-2.32-.54-.53-1.31-.79-2.33-.79s-1.88,.35-2.47,1.06-.92,1.74-1,3.08v.74h-7.26v-.74c.07-2.38,.54-4.4,1.39-6.04,.85-1.65,2.06-2.89,3.63-3.74,1.56-.85,3.44-1.27,5.62-1.27s4.19,.38,5.76,1.13c1.56,.75,2.75,1.87,3.55,3.34,.8,1.47,1.2,3.29,1.2,5.46v.27c0,1.62-.32,3.35-.96,5.18-.64,1.84-1.56,3.73-2.76,5.68l-8.05,12.09h11.84v6.93h-20.87v-6.47Z"/><path class="f" d="M116.24,41.17c-1.8-1.83-2.7-4.39-2.7-7.68V13.79c0-3.29,.9-5.85,2.71-7.67,1.81-1.82,4.41-2.73,7.79-2.73s5.98,.91,7.79,2.71c1.81,1.81,2.71,4.37,2.71,7.68v19.7c0,3.31-.91,5.88-2.71,7.69-1.81,1.82-4.41,2.73-7.79,2.73s-6-.91-7.8-2.74Zm10.35-5.33c.57-.76,.86-1.86,.86-3.27V14.72c0-1.4-.29-2.49-.86-3.26-.57-.77-1.42-1.16-2.55-1.16s-2,.39-2.56,1.16c-.56,.77-.85,1.86-.85,3.26v17.84c0,1.42,.29,2.51,.86,3.27,.57,.76,1.42,1.15,2.55,1.15s1.98-.38,2.55-1.15Z"/><path class="f" d="M157.8,25.88v6.82h-16.97v-6.82h16.97Z"/><path class="f" d="M163.39,30.87l10.21-27.01h7.75l-9.88,26.69h15.8v6.88h-23.88v-6.55Zm14.22-9.93h7.01v22.59h-7.01V20.94Z"/><path class="f" d="M211.17,8.8l-8,34.71h-7.39l7.78-33.07h-5.79v5.29h-6.96V3.83h20.35v4.97Z"/><path class="f" d="M219.33,41.17c-1.8-1.83-2.7-4.39-2.7-7.68V13.79c0-3.29,.9-5.85,2.71-7.67,1.81-1.82,4.41-2.73,7.79-2.73s5.98,.91,7.79,2.71c1.81,1.81,2.71,4.37,2.71,7.68v19.7c0,3.31-.91,5.88-2.71,7.69-1.81,1.82-4.41,2.73-7.79,2.73s-6-.91-7.8-2.74Zm10.35-5.33c.57-.76,.86-1.86,.86-3.27V14.72c0-1.4-.29-2.49-.86-3.26-.57-.77-1.42-1.16-2.55-1.16s-2,.39-2.56,1.16c-.56,.77-.85,1.86-.85,3.26v17.84c0,1.42,.29,2.51,.86,3.27,.57,.76,1.42,1.15,2.55,1.15s1.98-.38,2.55-1.15Z"/><path class="f" d="M260.88,25.88v6.82h-16.97v-6.82h16.97Z"/><path class="f" d="M266.48,30.87l10.21-27.01h7.75l-9.88,26.69h15.8v6.88h-23.88v-6.55Zm14.22-9.93h7.01v22.59h-7.01V20.94Z"/><path class="f" d="M314.25,8.8l-8,34.71h-7.39l7.78-33.07h-5.79v5.29h-6.96V3.83h20.35v4.97Z"/><path class="f" d="M322.41,41.17c-1.8-1.83-2.7-4.39-2.7-7.68V13.79c0-3.29,.9-5.85,2.71-7.67,1.81-1.82,4.41-2.73,7.79-2.73s5.98,.91,7.79,2.71c1.81,1.81,2.71,4.37,2.71,7.68v19.7c0,3.31-.91,5.88-2.71,7.69-1.81,1.82-4.41,2.73-7.79,2.73s-6-.91-7.8-2.74Zm10.35-5.33c.57-.76,.86-1.86,.86-3.27V14.72c0-1.4-.29-2.49-.86-3.26-.57-.77-1.42-1.16-2.55-1.16s-2,.39-2.56,1.16c-.56,.77-.85,1.86-.85,3.26v17.84c0,1.42,.29,2.51,.86,3.27,.57,.76,1.42,1.15,2.55,1.15s1.98-.38,2.55-1.15Z"/></g><path id="d" class="f" d="M5.32,1.06C1.94,2.58,.33,8.79,.68,14.05c.4,5.3,1.71,10.49,3.86,15.35,2.21,4.82,5.19,9.24,8.81,13.1,3.7,3.84,9.34,6.77,12.79,5.23,1.78-.92,3.37-2.16,4.69-3.66,0,0-1.03-2.3-1.25-2.83l-3.46-7.73c-.25-.6-2.44-.44-3.66,0-1.26,.65-2.38,1.54-3.31,2.61-1.11,.42-1.83-.29-3.49-1.37-1.99-1.31-3.93-4.78-5.44-7.91-1.29-3.15-2.58-6.91-2.24-9.33,.27-1.94,.27-2.96,1.33-3.51,1.41,.06,2.81-.18,4.11-.7,1.12-.58,2.68-2.12,2.42-2.72l-3.4-7.76C12.21,2.34,11.19,0,11.19,0c-2.01,0-3.99,.35-5.87,1.06Z"/><rect class="f" y="54" width="341.56" height="21.4"/><g><path class="e" d="M104.29,66.23c0,.66,.62,1.11,2.07,1.11,1.37,0,2.66-.15,3.55-.39v1.42c-.87,.21-2.08,.35-3.5,.35-2.32,0-3.48-.78-3.48-2.18,0-.59,.12-1.07,.19-1.46l1.33,.12c-.1,.36-.17,.69-.17,1.02Zm6.08-4.97l-.82,.35c-.07-.15-.16-.32-.25-.5v1.13c-.71,.05-1.96,.12-2.92,.12-1.06,0-1.94-.05-2.76-.11v-1.35c.75,.09,1.69,.13,2.75,.13,.96,0,2.05-.06,2.83-.13-.14-.26-.29-.52-.43-.72l.8-.32c.25,.36,.62,1.01,.81,1.39Zm1.21-.47l-.81,.34c-.21-.42-.54-1.01-.82-1.4l.81-.32c.26,.37,.64,1.02,.82,1.38Z"/><path class="e" d="M114.51,63.43c.35,.38,1.21,1.43,1.42,1.68l-.69,.98c-.15-.32-.45-.8-.73-1.25v4.21h-1.15v-4c-.32,.89-.71,1.72-1.14,2.28-.11-.34-.38-.83-.57-1.13,.66-.8,1.24-2.18,1.57-3.38h-1.3v-1.13h1.45v-2.07h1.15v2.07h1.26v1.13h-1.26v.62Zm6.36-3.28v8.75h-1.21v-.52h-2.38v.58h-1.15v-8.81h4.75Zm-3.59,1.13v1.25h2.38v-1.25h-2.38Zm0,2.34v1.28h2.38v-1.28h-2.38Zm2.38,3.67v-1.29h-2.38v1.29h2.38Z"/><path class="e" d="M126.22,62.22h-3.84v-.95h3.84v.95Zm-.32,6.29h-2.06v.39h-1.01v-3.45h3.08v3.06Zm0-4.92h-3.04v-.92h3.04v.92Zm-3.04,.47h3.04v.9h-3.04v-.9Zm3-3.24h-2.97v-.91h2.97v.91Zm-2.02,5.58v1.16h1.04v-1.16h-1.04Zm5.98-.14c.27,.62,.88,1.33,2.07,1.77-.21,.27-.53,.73-.69,1.02-1.27-.48-2-1.6-2.19-2.23-.2,.63-1.01,1.72-2.41,2.23-.12-.27-.44-.74-.66-.98,1.93-.68,2.45-2,2.45-2.68v-1.53h1.22v1.53c0,.22,.05,.53,.19,.85,.28-.49,.62-1.21,.8-1.75l1.18,.36c-.35,.64-.75,1.3-1.06,1.74l-.92-.33Zm-3.81,.08c.45-.38,.75-1.09,.88-1.78l1.05,.21c-.13,.78-.45,1.58-.94,2.06l-.99-.5Zm5-2.05c-.42-.4-1.25-.98-2.02-1.47-.42,.67-1.07,1.17-2.17,1.55-.12-.29-.41-.74-.67-.95,2.11-.66,2.27-1.81,2.35-3.81h1.16c-.03,.84-.09,1.57-.25,2.21,.83,.49,1.85,1.11,2.4,1.57l-.8,.91Zm-3.01-3.89c-.1,.67-.36,1.42-.8,1.87l-.94-.4c.38-.36,.65-1.04,.76-1.67l.98,.2Zm3.72,.1c-.33,.59-.7,1.2-.98,1.63l-.89-.34c.26-.45,.58-1.15,.73-1.65l1.14,.36Z"/><path class="e" d="M134.54,62.29c-.2,.19-.39,.37-.6,.53-.22-.21-.71-.6-.98-.79,.85-.56,1.65-1.48,2.09-2.42l1.17,.34c-.11,.24-.24,.48-.39,.71h6.07v1.06h-.95v1.29h1.31v1.07h-1.31v1.28h1.17v1.07h-8.79v-1.07h1.2v-1.28h-1.36v-1.07h1.36v-.73Zm-1.46,6.31c.45-.42,.9-1.2,1.13-1.94l1.16,.28c-.22,.77-.66,1.6-1.15,2.12l-1.14-.47Zm2.52-5.58h.73v-1.29h-.73v1.29Zm0,2.36h.73v-1.28h-.73v1.28Zm1.54,1.51c.12,.62,.24,1.42,.25,1.89l-1.17,.17c0-.49-.08-1.32-.19-1.93l1.11-.13Zm.94-3.86v-1.29h-.75v1.29h.75Zm-.75,1.07v1.28h.75v-1.28h-.75Zm1.83,2.75c.24,.6,.5,1.39,.59,1.88l-1.2,.23c-.06-.49-.29-1.31-.52-1.92l1.13-.19Zm.69-5.12h-.77v1.29h.77v-1.29Zm0,2.37h-.77v1.28h.77v-1.28Zm1.34,2.53c.46,.62,1.02,1.47,1.27,2.02l-1.23,.41c-.21-.54-.75-1.43-1.19-2.07l1.15-.36Z"/><path class="e" d="M147.04,66.79c-.15-.32-.43-.85-.73-1.32v3.55h-1.11v-3.57c-.32,.94-.73,1.88-1.16,2.49-.1-.36-.36-.91-.55-1.24,.51-.62,1.02-1.7,1.34-2.62h-1.15v-1.12h1.53v-3.31h1.11v3.31h1.5v1.12h-1.5v.07c.29,.29,1.25,1.43,1.47,1.71l-.74,.93Zm-2.92-4.02c-.02-.63-.22-1.61-.46-2.34l.84-.22c.26,.73,.47,1.69,.52,2.32l-.9,.24Zm3.88-2.39c-.26,.81-.56,1.77-.81,2.36l-.76-.21c.2-.64,.45-1.66,.56-2.37l1.01,.22Zm3.93,5.93v2.73h-1.13v-2.53l-2.82,.51-.18-1.12,3-.54v-5.77h1.13v5.56l1.03-.19,.18,1.12-1.21,.22Zm-3.46-3.67c.59,.31,1.33,.8,1.7,1.16l-.61,.96c-.33-.37-1.07-.91-1.66-1.26l.57-.86Zm1.47-.36c-.31-.39-1.01-.94-1.57-1.32l.58-.81c.57,.33,1.29,.85,1.61,1.22l-.62,.9Z"/><path class="e" d="M157.71,64.33c0,.71-.59,1.29-1.29,1.29s-1.29-.59-1.29-1.29,.59-1.29,1.29-1.29,1.29,.59,1.29,1.29Z"/><path class="e" d="M159.88,67.31c1.95-1.86,3.24-3.14,3.24-4.22,0-.74-.4-1.18-1.12-1.18-.55,0-.99,.36-1.38,.78l-.81-.81c.69-.74,1.36-1.14,2.38-1.14,1.42,0,2.36,.9,2.36,2.28,0,1.27-1.17,2.59-2.51,3.99,.38-.04,.87-.08,1.22-.08h1.64v1.25h-5.02v-.86Z"/><path class="e" d="M169.31,66.36h-3.2v-1.02l2.79-4.46h1.79v4.34h.88v1.14h-.88v1.81h-1.39v-1.81Zm0-1.14v-1.46c0-.44,.03-1.12,.05-1.56h-.04c-.18,.39-.38,.77-.6,1.17l-1.16,1.84h1.75Z"/><path class="e" d="M176.19,67.1h-2.05v.89h-1.11v-7.77h3.17v6.88Zm-2.05-5.81v1.78h.93v-1.78h-.93Zm.93,4.73v-1.9h-.93v1.9h.93Zm6.03-2.37v.87h.97v1.04h-.97v2.21c0,.58-.11,.88-.51,1.06-.39,.17-.94,.2-1.69,.2-.04-.33-.22-.81-.38-1.13,.49,.02,1.05,.02,1.2,.02,.16,0,.21-.04,.21-.18v-2.18h-3.55v-1.04h3.55v-.87h-3.57v-1.05h2.29v-.89h-1.94v-1.05h1.94v-1.06h1.18v1.06h2.02v1.05h-2.02v.89h2.31v1.05h-1.04Zm-3.35,2.03c.47,.5,1.01,1.16,1.22,1.66l-1.03,.6c-.18-.47-.7-1.18-1.15-1.7l.96-.56Z"/><path class="e" d="M184.99,63.64v5.41h-1.19v-9.06h3.88v3.65h-2.68Zm0-2.78v.54h1.56v-.54h-1.56Zm1.56,1.92v-.58h-1.56v.58h1.56Zm5.79,4.85c0,.65-.13,1-.54,1.19-.39,.2-.98,.23-1.85,.23-.03-.25-.14-.63-.26-.94h-2.51v.52h-1.09v-4.37h3.89v3.58c.39,.01,.77,.01,.9,0,.18,0,.24-.06,.24-.22v-3.96h-2.75v-3.67h3.97v7.64Zm-3.49-2.49h-1.67v.61h1.67v-.61Zm0,2.09v-.63h-1.67v.63h1.67Zm.67-6.37v.54h1.61v-.54h-1.61Zm1.61,1.94v-.6h-1.61v.6h1.61Z"/><path class="e" d="M193.86,67.27l.7-.94c.45,.44,.99,.77,1.67,.77,.76,0,1.28-.36,1.28-.99,0-.71-.44-1.14-2.06-1.14v-1.07c1.38,0,1.82-.46,1.82-1.08,0-.57-.36-.9-1-.9-.54,0-.97,.25-1.42,.67l-.76-.91c.65-.57,1.37-.93,2.25-.93,1.45,0,2.43,.71,2.43,1.96,0,.79-.46,1.34-1.24,1.65v.05c.84,.22,1.49,.84,1.49,1.8,0,1.34-1.2,2.11-2.63,2.11-1.18,0-1.98-.45-2.51-1.04Z"/><path class="e" d="M200.55,64.72c0-2.78,1.39-3.99,2.9-3.99,.91,0,1.58,.38,2.02,.85l-.79,.89c-.26-.29-.72-.54-1.15-.54-.86,0-1.57,.64-1.63,2.52,.41-.52,1.05-.82,1.54-.82,1.25,0,2.16,.72,2.16,2.25s-1.07,2.43-2.36,2.43c-1.42,0-2.69-1.09-2.69-3.59Zm1.4,.77c.14,1.23,.65,1.7,1.26,1.7,.57,0,1.02-.44,1.02-1.31,0-.82-.42-1.19-1.07-1.19-.38,0-.84,.21-1.21,.8Z"/><path class="e" d="M206.78,67.29l.69-.95c.42,.41,.95,.76,1.65,.76,.78,0,1.32-.46,1.32-1.27s-.51-1.26-1.26-1.26c-.45,0-.69,.11-1.12,.39l-.68-.44,.2-3.64h4.01v1.24h-2.72l-.14,1.59c.3-.13,.56-.2,.9-.2,1.25,0,2.31,.71,2.31,2.27s-1.23,2.54-2.62,2.54c-1.18,0-1.97-.47-2.53-1.02Z"/><path class="e" d="M221.57,60.21v8.7h-1.29v-.64h-4.49v.66h-1.24v-8.72h7.03Zm-5.79,1.21v2.18h4.49v-2.18h-4.49Zm4.49,5.64v-2.27h-4.49v2.27h4.49Z"/><path class="e" d="M228.12,62.63c-.19,1.09-.46,2.07-.83,2.94,.45,.59,.81,1.15,1.04,1.64l-.96,.82c-.16-.36-.39-.79-.69-1.24-.54,.89-1.22,1.62-2.07,2.19-.14-.24-.56-.72-.81-.94,.94-.55,1.64-1.33,2.16-2.3-.54-.72-1.13-1.44-1.69-2.05l.86-.68c.44,.47,.89,.98,1.34,1.52,.21-.63,.37-1.3,.49-2.04l1.17,.15Zm5.22,.37h-1.08v4.55c0,.68-.12,1.03-.51,1.22-.38,.21-.98,.26-1.82,.26-.04-.35-.21-.93-.38-1.29,.57,.03,1.11,.02,1.29,.02,.18,0,.24-.05,.24-.21v-4.55h-2.54v-.73h-4.45v-1.11h1.76v-1.55h1.15v1.55h1.87v.69h2.21v-2.25h1.18v2.25h1.08v1.15Zm-3.95,.8c.47,.67,.96,1.54,1.12,2.13l-1.04,.54c-.15-.6-.59-1.52-1.04-2.21l.96-.47Z"/><path class="e" d="M236.55,63.33c0,1.63-.15,4.13-1.06,5.71-.22-.2-.76-.55-1.04-.68,.83-1.45,.9-3.57,.9-5.03v-2.55h3.6v-1.16h1.25v1.16h3.65v1.14h-7.3v1.41Zm-.18,4.37c.43-.77,.64-1.94,.74-3.07l1.08,.23c-.11,1.16-.29,2.5-.75,3.31l-1.07-.48Zm4.51,.09c.3,0,.37-.23,.41-1.63,.25,.21,.75,.4,1.06,.49-.11,1.73-.42,2.22-1.36,2.22h-1.12c-1.07,0-1.33-.35-1.33-1.48v-3.53h1.19v3.52c0,.36,.04,.41,.32,.41h.82Zm.11-3.47c-.48-.48-1.55-1.15-2.38-1.58l.8-.79c.81,.38,1.9,.99,2.45,1.47l-.87,.9Zm1.77,.05c.6,1.05,1.18,2.39,1.35,3.31l-1.18,.49c-.13-.9-.66-2.31-1.23-3.38l1.07-.41Z"/></g></g></g></g></svg>