<svg xmlns="http://www.w3.org/2000/svg" width="1222" height="306.729" viewBox="0 0 1222 306.729">
  <g id="グループ_3110" data-name="グループ 3110" transform="translate(-28 -1672.424)">
    <path id="パス_3946" data-name="パス 3946" d="M0,0H996a10,10,0,0,1,10,10V258a10,10,0,0,1-10,10H0Z" transform="translate(244 1711.152)" fill="#fff"/>
    <path id="パス_3946_-_アウトライン" data-name="パス 3946 - アウトライン" d="M3,3V265H996a7.008,7.008,0,0,0,7-7V10a7.008,7.008,0,0,0-7-7H3M0,0H996a10,10,0,0,1,10,10V258a10,10,0,0,1-10,10H0Z" transform="translate(244 1711.152)" fill="#0e2473"/>
    <path id="パス_3814" data-name="パス 3814" d="M189.085,0,51.648,51.648,0,189.085Z" transform="translate(814.704 1845.448) rotate(135)" fill="#0e2473"/>
    <path id="パス_3947" data-name="パス 3947" d="M10,0H653V268H10A10,10,0,0,1,0,258V10A10,10,0,0,1,10,0Z" transform="translate(28 1711.152)" fill="#0c2775"/>
    <path id="パス_3948" data-name="パス 3948" d="M-206.577-13.986c.108-1.944.108-1.944.243-6.7.864-.243,1.134-.405,1.134-.621,0-.3-.486-.405-3.132-.621a16.758,16.758,0,0,1,.081,2.16c0,2.97-.027,4.455-.135,5.778h-4.428a8.69,8.69,0,0,1-1.944-.243l.162,1.053a7.833,7.833,0,0,1,1.782-.189h4.374a28.329,28.329,0,0,1-1.809,8.127A17.937,17.937,0,0,1-215,1.566l.27.324a16.886,16.886,0,0,0,2.808-2.268,16.933,16.933,0,0,0,3.861-6.048,32.253,32.253,0,0,0,1.485-6.939c.594,5.157,1.809,8.532,4.212,11.718a11.762,11.762,0,0,0,3.348,3.213,2.85,2.85,0,0,1,1.809-1.944l.027-.4a6.569,6.569,0,0,1-2.808-1.4,16.533,16.533,0,0,1-4.131-4.941,15.435,15.435,0,0,1-2-6.237h8.289a.209.209,0,0,0,.216-.189.34.34,0,0,0-.108-.189c-.945-.891-1.269-1.161-2.322-2.052-.621.756-.81,1-1.4,1.809ZM-217.35-8.559c-3,1.35-3.861,1.674-4.941,1.836.27.648.378.918.567,1.4a6.359,6.359,0,0,0,.4.918c.108.243.216.351.351.351.216,0,.324-.243.351-.7v-.432l3.267-2.727c-.027,7.506-.027,7.506-.054,9.639.027.243.135.351.378.351a6.335,6.335,0,0,0,1.215-.135c.162-.054.216-.162.27-.378C-215.6-.54-215.6-1.62-215.6-4.563V-20.817c.837-.162,1.188-.351,1.188-.621s-.243-.324-3.105-.594c.054.81.054.81.081,1.917,0,.783.081,8.235.081,8.289Zm-4.536-9.072a18.716,18.716,0,0,1,1.728,4.86c.162.891.216,1.026.486,1.026a.7.7,0,0,0,.54-.378,2.924,2.924,0,0,0,.567-1.458c0-.972-.918-2.268-3.024-4.212Zm17.361-2.7a8.154,8.154,0,0,1,1.269,1.755,16.925,16.925,0,0,1,1,2.079c.3.837.4,1,.7,1,.459,0,.972-.972.972-1.836,0-.405-.243-.783-.783-1.269a14.681,14.681,0,0,0-2.835-2Zm31.185,8.451V-.324c0,.621.108.864.432,1.107.378.27.972.324,3.591.324a18.278,18.278,0,0,0,3.591-.216A.876.876,0,0,0-165,.081a.635.635,0,0,0-.378-.594c-.621-.216-.675-.243-.675-.594v-.351l.378-5.319-.351-.027-.918,3.537c-.3,1.107-.432,1.512-.675,2.214-.216.54-.4.621-1.62.621h-.7c-1.593,0-1.593,0-1.593-.675V-11.88h1.863v.81c.027.3.108.324.648.324,1.053,0,1.35-.108,1.35-.486-.081-1.809-.135-4.617-.135-6.183v-2.052c.945-.459,1.053-.54,1.053-.756,0-.135-.081-.216-.3-.378-.729-.513-.945-.675-1.728-1.161l-1.134,1.161H-178.9c-.891-.567-1.188-.729-2.133-1.242.108,1.755.135,3.24.135,5.346,0,2.133-.027,3.051-.135,5.427,0,.3.108.351.648.351,1.107,0,1.323-.081,1.323-.54v-.621h1.62v.351a21.842,21.842,0,0,1-.594,5.265,9.759,9.759,0,0,1-3.186,5.13,14.863,14.863,0,0,1-3.7,2.349l.108.378A19.048,19.048,0,0,0-181.548.27,10.132,10.132,0,0,0-177.2-3.807c1.107-1.971,1.485-3.915,1.62-8.073Zm-5.724-8.1h9.4V-12.5h-9.4Zm-8.91-1.809a23.463,23.463,0,0,1,3.456,3.807c.189.3.324.405.486.405.4,0,.756-.7.756-1.485,0-.7-.351-1.188-1.215-1.674a15.93,15.93,0,0,0-3.348-1.35Zm-2.025,5.8a10.79,10.79,0,0,1,2.16,2.16c1.3,1.917,1.3,1.917,1.566,1.917.486,0,.864-.675.864-1.539,0-.675-.27-1.053-1.053-1.512a13.343,13.343,0,0,0-3.375-1.3Zm.621,10.017a4.248,4.248,0,0,1,1.728.729c.4.351.594,1.053.594,2.241a16.743,16.743,0,0,1-.135,2.214A8.3,8.3,0,0,0-187.38.729c0,.459.216.756.567.756a2.18,2.18,0,0,0,1.35-.729,2.453,2.453,0,0,0,.594-1.782,6.445,6.445,0,0,0-.567-2.457,3.707,3.707,0,0,1-.351-1.269,5.161,5.161,0,0,1,.3-1.512l3.537-11.043-.351-.108-3.105,7.209c-.648,1.431-.648,1.431-1.458,3.186-.351.756-.486.891-.837.891a8.947,8.947,0,0,1-1.62-.243ZM-154.71-17.55a4.362,4.362,0,0,0,4.023,2.079,10.238,10.238,0,0,0,1.809-.162,21.746,21.746,0,0,1-5.022,5.8c-.756.621-.783.648-.783,1.215,0,.864.3,1.431.729,1.431.27,0,.486-.162,1-.864,1.944-2.484,4.077-3.915,5.859-3.915a1.536,1.536,0,0,1,1.377.81,4.545,4.545,0,0,1,.378,2.133,19.505,19.505,0,0,0-3.348,2.4,5.134,5.134,0,0,0-1.944,3.7,2.958,2.958,0,0,0,2,2.862,13.96,13.96,0,0,0,5.481.783,30.013,30.013,0,0,0,4.833-.378c.54-.108.837-.378.837-.729,0-.594-1.053-1.35-1.89-1.35a1.994,1.994,0,0,0-.513.081,19.523,19.523,0,0,1-5.427.756c-3.024,0-4.509-.7-4.509-2.16A3.613,3.613,0,0,1-148.5-5.562a13.722,13.722,0,0,1,3.159-2.133,25.788,25.788,0,0,1-.189,2.889,2.943,2.943,0,0,0-.027.459.81.81,0,0,0,.864.81.857.857,0,0,0,.756-.513,7.489,7.489,0,0,0,.216-2.322c0-1.161,0-1.323-.027-2.187a43.842,43.842,0,0,1,7.236-2.781c.756-.162.972-.351.972-.837,0-1.08-1.863-2.727-3.051-2.727a1.314,1.314,0,0,0-.621.162c.783.324,1.242.81,1.242,1.269,0,.486-.648.918-3.321,2.268-2.187,1.107-2.187,1.107-2.646,1.323a2.994,2.994,0,0,0-3.024-2.7,7.307,7.307,0,0,0-3.483,1.08c.513-.729.729-1.026,1.458-2.16.621-.945.945-1.431,1.431-2.106a43.3,43.3,0,0,0,5.886-1.539c.81-.27,1.161-.54,1.161-.864,0-.513-.756-.891-1.809-.891a.757.757,0,0,0-.513.189c-.891.756-1.62,1.08-3.888,1.728.189-.27.189-.27.675-1.053.216-.3.54-.783.783-1.107.324-.405.432-.594.432-.783,0-.324-.3-.621-.972-.891a5.711,5.711,0,0,0-2.106-.459,2.142,2.142,0,0,0-1.215.3c1.4.351,1.917.783,1.917,1.512a7.291,7.291,0,0,1-.945,2.754,14.311,14.311,0,0,1-2.889.351,4.443,4.443,0,0,1-3.375-1.269Zm42.876-2.349h11.07c.324,0,.4-.027.4-.162q0-.081-.162-.243c-1.242-1.053-1.647-1.35-2.889-2.322-.7.891-.7.891-1.674,2.106h-16.578a16.19,16.19,0,0,1-3.186-.3l.189,1.08a24.136,24.136,0,0,1,3-.162h7.857V-1.053c0,.351-.108.432-.459.459-2.835-.054-3.456-.081-5.589-.27v.432c2.754.486,3,.54,3.51.864a1.843,1.843,0,0,1,.918,1.431,7.274,7.274,0,0,0,2.565-.621,1.7,1.7,0,0,0,1.08-1.863c-.054-2.943-.054-4.428-.054-7.965Zm22.653.054c0-.243.027-.378.027-.513,0-.351-.027-.594-.081-1.188h-.432A4.944,4.944,0,0,1-91.5-17.982c-.648.486-.756.621-.756.945a4.3,4.3,0,0,0,.162,1.161c.135.378.351.594.621.594.864,0,1.917-1.89,2.241-3.942h17.82a9.5,9.5,0,0,1-.405,1.458c-.054.108-.108.324-.189.567l.243.108a13.38,13.38,0,0,0,1.539-1.161c.162-.135.432-.351.756-.594a15,15,0,0,0,1.62-.4c.081-.054.162-.135.162-.189,0-.108-.108-.216-.351-.405-1.026-.675-1.026-.675-2.43-1.593-.675.81-.675.81-1.3,1.593h-7.722v-1.512c1.053-.351,1.188-.432,1.188-.7,0-.351-.648-.486-3.078-.675.081,1,.108,1.3.108,1.647v1.242Zm8.343,15.8V-.432c0,.3-.108.378-.54.378-1.728-.054-1.728-.054-5.265-.27V.054c2.97.405,2.97.405,3.4.675A1.853,1.853,0,0,1-82.431,2a8.577,8.577,0,0,0,2.538-.621,1.316,1.316,0,0,0,.918-1.35C-79-.324-79-.594-79-.783c-.027-.54-.027-.891-.027-1V-4.05h10.665c.135,0,.27-.081.27-.162s-.054-.135-.162-.243c-1-.945-1.323-1.242-2.322-2.16-.675.864-.891,1.107-1.485,1.944H-90.207a12.809,12.809,0,0,1-2.511-.3l.27,1.08a12.445,12.445,0,0,1,2.079-.162Zm-4.374-10.017a1.052,1.052,0,0,0,.7,1.134,9.318,9.318,0,0,0,1.782.162,55.074,55.074,0,0,0,6.885-.162c.567-.108.945-.4.945-.756,0-.3-.243-.567-.7-.783-.3-.162-.324-.216-.324-.486a3.347,3.347,0,0,1,.054-.567l.189-2.025L-76-17.577a24.586,24.586,0,0,1-1.161,2.592c-.243.513-.351.621-.567.7a22.835,22.835,0,0,1-2.781.108c-.054,0-2.079-.027-2.187-.054a1.276,1.276,0,0,1-.648-.081c-.216-.108-.243-.189-.243-.432V-16.9c.891-.3,1.107-.4,1.107-.594,0-.243-.4-.351-2.808-.675.054.918.081,1.35.081,1.863Zm10.5-3.321a5.746,5.746,0,0,1,1.107.945,16.394,16.394,0,0,1,1.674,2.187c.783,1.431.918,1.593,1.161,1.593.459,0,.864-.675.864-1.4a1.272,1.272,0,0,0-.594-1.215,19.92,19.92,0,0,0-3.969-2.457ZM-87.615-11.2a17.185,17.185,0,0,0-1.728-.864c.054,1.782.081,1.971.081,3,0,.972-.027,1.7-.081,3.159v.081c0,.243.108.324.4.324a5.02,5.02,0,0,0,1.053-.135c.216-.081.27-.162.27-.378v-.621H-73.2v.378c0,.243.081.351.324.351,1.431-.108,1.512-.135,1.539-.54-.054-1.377-.054-1.539-.081-3.726.864-.513.864-.513.891-.648-.027-.162-.081-.243-.3-.378-.675-.513-.891-.675-1.62-1.161-.378.513-.513.675-.891,1.161Zm3.618.621v3.321h-3.618v-3.321Zm1.566,0H-78.3v3.321h-4.131Zm5.67,0H-73.2v3.321h-3.564Zm-10.854-6.858a5.016,5.016,0,0,1-1.377,2.106,4.091,4.091,0,0,1-1.35.945c-.513.216-.756.459-.756.729a4.844,4.844,0,0,0,.27,1.08c.135.27.3.4.459.4.351,0,1.134-.648,1.755-1.458a7.084,7.084,0,0,0,1.377-3.753Zm5.643-.945a10.994,10.994,0,0,1,2.4,2.484c.378.54.567.729.783.729.27,0,.54-.513.54-1.08,0-1-.648-1.431-3.591-2.43Zm28.7,8.316L-54.7-6.291A21.4,21.4,0,0,1-55.674-4a10.231,10.231,0,0,1-.513-3.564,14.809,14.809,0,0,1,.351-3.348A22.965,22.965,0,0,1-54.378-15.2c.54-1.08.567-1.188.567-1.62a3.644,3.644,0,0,0-1-2.133c-.729-.945-1.215-1.3-1.809-1.323a4.8,4.8,0,0,1,.756,2.538,12.639,12.639,0,0,1-.378,2.511,41.313,41.313,0,0,0-.945,5.1A24.329,24.329,0,0,0-57.4-7.236a16,16,0,0,0,.945,5.751c.3.729.7,1.107,1.161,1.107a.664.664,0,0,0,.648-.459A3.943,3.943,0,0,0-54.567-2a10.618,10.618,0,0,1,.459-2.862c.756-3.132,1.161-4.833,1.215-5.076Zm3.483-6.777a4.758,4.758,0,0,0,3.672,1.512c.243,0,.54-.027,1.107-.054-.432.324-1.35,1.08-2.565,2.106l.27.27a27.574,27.574,0,0,1,3.483-1.917,15.478,15.478,0,0,1,3.834-.945c.567-.108.756-.27.756-.621s-.27-.675-.837-1a2.054,2.054,0,0,0-.945-.378c-.189,0-.243.027-.594.216a14.337,14.337,0,0,1-5.427,1.215,4.226,4.226,0,0,1-2.511-.729Zm-.162,8.154a7.32,7.32,0,0,0-.324,2.133,4.485,4.485,0,0,0,1.458,3.51C-47.6-1.971-45.2-1.4-41.823-1.4a13.577,13.577,0,0,0,3.375-.3c.378-.135.594-.351.594-.675a2.078,2.078,0,0,0-1.7-1.593,1.333,1.333,0,0,0-.405.081,4.206,4.206,0,0,1-1.431.432,12.742,12.742,0,0,1-2.3.189c-4.185,0-5.886-1.215-5.886-4.185a10.5,10.5,0,0,1,.081-1.134ZM-26.3-14.9a4.488,4.488,0,0,0,4.023,2.214,12.635,12.635,0,0,0,2.106-.189c-.081,2.673-.081,2.673-.135,3.888-.027.513-.027.918-.054,1.3a13.408,13.408,0,0,0-4.293,2.781,2.337,2.337,0,0,0-.81,1.512,1.284,1.284,0,0,0,.891,1.134,11.146,11.146,0,0,1,1.809,1.215C-21.114.405-21.114.405-20.736.405a1.641,1.641,0,0,0,1.3-1,3.163,3.163,0,0,0,.351-1.593c0-.216,0-.513-.027-1.026-.027-.81-.027-.81-.027-3.672a17.444,17.444,0,0,1,7.317-1.944c2.592,0,4,1.134,4,3.213a3.413,3.413,0,0,1-3.375,3.7A3.612,3.612,0,0,1-13.77-2.943a8.024,8.024,0,0,1-1.62-2.349l-.4.135c.945,3.132,2.727,4.779,5.211,4.779a4.6,4.6,0,0,0,4.617-4.7c0-2.862-2.322-4.617-6.021-4.617a20,20,0,0,0-7.155,1.485c.027-1.62.081-2.808.108-3.537.054-.972.054-.972.081-1.35a18.774,18.774,0,0,0,3.942-1.323c.972-.459,1.215-.675,1.215-1.053a.688.688,0,0,0-.459-.594,3.289,3.289,0,0,0-1.026-.243,1.282,1.282,0,0,0-.648.27,7.737,7.737,0,0,1-2.943,1.566,10.245,10.245,0,0,1,.837-4.023c.3-.54.3-.54.3-.7a1.106,1.106,0,0,0-.594-.864,6.309,6.309,0,0,0-2.781-.675,1.518,1.518,0,0,0-1.161.378c1.863.324,2.187.891,2.187,3.726,0,.486,0,1.7-.027,2.484a11.844,11.844,0,0,1-2.7.351,4.513,4.513,0,0,1-3.213-1.377Zm5.859,8.64c0,.162-.054,1.485-.189,3.915-.027.486-.162.675-.486.675a5.647,5.647,0,0,1-1.674-.432c-.729-.27-1.08-.567-1.08-.837q0-.446.81-1.3A11.308,11.308,0,0,1-20.439-6.264Zm9.4-11.259a7.511,7.511,0,0,1,1.863.7,4.07,4.07,0,0,1,1.7,1.674,19.08,19.08,0,0,1-2.943,1.728l.162.27a17.437,17.437,0,0,1,3.321-.729,3.568,3.568,0,0,1,.567.054,1.576,1.576,0,0,0,.4.054.744.744,0,0,0,.81-.783,3.075,3.075,0,0,0-1.89-2.376,8.951,8.951,0,0,0-3.969-.972ZM4.428-8.505a24.846,24.846,0,0,0,3.51-4.455V-7.8c0,1.134-.054,5.643-.108,9.477a.382.382,0,0,0,.405.243A5.146,5.146,0,0,0,9.72,1.755c.108-.054.162-.162.162-.351C9.855-1.4,9.8-6.507,9.8-7.965v-4.7c.756-.3.918-.4.918-.594,0-.27-.729-.513-2.16-.675a68.345,68.345,0,0,0,3.591-6.777c.783-.108,1.134-.27,1.134-.54,0-.3-.3-.432-1.728-.837-.3-.081-.756-.216-1.323-.378a6.862,6.862,0,0,1-.3,1.485,48.521,48.521,0,0,1-2,5.238A37.3,37.3,0,0,1,4.077-8.8Zm10.854-11.61a15.233,15.233,0,0,1-2.781-.243l.216,1.026a17.891,17.891,0,0,1,2.565-.162H25.3L25.38-.54c0,.324,0,.324-.378.378h-.864c-.486,0-.864,0-2.646-.081-.27,0-.756,0-1.323-.027V.162c2.322.351,2.511.378,2.943.621.567.27.783.621.972,1.485a5.773,5.773,0,0,0,2.646-1c.432-.351.567-.7.594-1.674l-.081-8.1v-10.5c.756-.459.945-.594.945-.756a.317.317,0,0,0-.135-.162c-.054-.054-.135-.108-.216-.189-.7-.513-.972-.7-1.755-1.269-.459.54-.621.7-1.08,1.269Zm-3.348,5.238c1.053-.081,1.539-.108,2.7-.108h9.639c.243,0,.378-.081.378-.189a.591.591,0,0,0-.162-.27c-.972-.864-1.269-1.134-2.268-1.971L20.79-15.606H14.742a11.808,11.808,0,0,1-3.078-.3Zm3,9.936h5.238v.891c.027.216.135.27.351.27h.054c.189-.027.4-.027.621-.054.621,0,.783-.108.783-.513C21.9-6.588,21.87-8.073,21.87-9.18v-1.134c.189-.135.324-.243.4-.3a2.385,2.385,0,0,1,.3-.216.56.56,0,0,0,.189-.216.532.532,0,0,0-.108-.216c-.054-.027-.081-.081-.135-.135-.621-.567-.81-.729-1.485-1.3A16.583,16.583,0,0,0,19.9-11.421H15.12a20.741,20.741,0,0,0-2.106-1.269c.081,1.431.108,2,.108,3.672,0,2.484-.027,3.726-.108,5.778,0,.378.054.405.459.405a7.232,7.232,0,0,0,1.215-.135c.189-.054.243-.135.243-.351Zm0-5.859h5.238v5.238H14.931Zm32.724-.135c-.351.594-.351.594-.783,1.3-1.4,2.349-1.4,2.349-2.268,3.807-.594,1-.594,1-.891,1.431a3.92,3.92,0,0,1-1.4-2.106,11.564,11.564,0,0,1-.621-3.915,21.114,21.114,0,0,1,.486-4.023,4.6,4.6,0,0,0,.081-.7A3.256,3.256,0,0,0,41.04-17.28,4.007,4.007,0,0,0,39.015-18.6h-.243c1.161,1.512,1.35,2.133,1.377,4.644a30.561,30.561,0,0,0,.189,4.752,12.376,12.376,0,0,0,1.836,5.4c.837,1.242,2.214,2.3,2.97,2.3a.638.638,0,0,0,.594-.675,2.363,2.363,0,0,0-.054-.432,3.237,3.237,0,0,1-.162-.918c0-1.08.567-2.673,2.538-7.209Zm6.021-4.374a7.462,7.462,0,0,1,3.348,3.537,9.806,9.806,0,0,1,.837,3.537c0,.513-.081.621-.621.81C57-7.344,55.782-6.993,53.6-6.4l.081.405c.918-.054,1.431-.054,2.052-.054a3.6,3.6,0,0,1,2.025.324,1.3,1.3,0,0,0,.81.3c.81,0,1.35-.837,1.35-2.133,0-3.726-2.7-7.317-6.1-8.073ZM90.5-5.157a16.7,16.7,0,0,1-3.429,2.4,14.023,14.023,0,0,1-6.156,1.728,3.972,3.972,0,0,1-2.4-.729c-.756-.621-1.08-1.593-1.08-3.24a83.347,83.347,0,0,1,1.4-12.96,2.821,2.821,0,0,0,.243-.972c0-.567-.54-1.107-1.566-1.593a6.709,6.709,0,0,0-2.43-.621,1.09,1.09,0,0,0-.756.27c1.917.81,2.187,1.269,2.187,3.591,0,.972-.027,1.728-.189,4.644-.135,2.457-.216,5.022-.216,6.507,0,2.295.216,3.618.756,4.563a4.9,4.9,0,0,0,4.482,2.3c3.348,0,6.885-2.079,9.477-5.589Zm12.609-10.449c1,1.728,2.052,2.43,3.7,2.43a13.857,13.857,0,0,0,2.592-.27c-1.836,5.346-2.889,7.7-4.239,9.666-.567.81-.594.891-.594,1.323a4.039,4.039,0,0,0,.378,1.566c.162.378.351.54.621.54.567,0,.918-.675,2-3.888,1.485-4.4,1.485-4.4,2.025-6.021.81-2.511.81-2.511,1.134-3.429a32.251,32.251,0,0,0,4.725-1.566c1.134-.513,1.566-.864,1.566-1.323,0-.216-.135-.378-.432-.486a5.019,5.019,0,0,0-1.431-.3c-.216,0-.324.054-.756.459a9.138,9.138,0,0,1-3.132,1.647,22.413,22.413,0,0,1,1.62-3.861c.324-.459.324-.459.324-.648,0-.4-.4-.783-1.215-1.08a6.848,6.848,0,0,0-2.322-.513,1.426,1.426,0,0,0-.837.243c1.512.513,1.917.864,1.917,1.7a19.451,19.451,0,0,1-.918,4.563,12.581,12.581,0,0,1-3.429.513,3.7,3.7,0,0,1-2.97-1.485ZM115.1-11.151a14.069,14.069,0,0,1,5.157-1c-.837.837-1.08,1.053-1.323,1.269-.972.891-.972.891-1.3,1.215l.162.243c.432-.243.432-.243.945-.567a12.649,12.649,0,0,1,1.485-.918,3.9,3.9,0,0,1,2.079-.54c.783-.027,1.026-.189,1.026-.621a.9.9,0,0,0-.432-.756,3.292,3.292,0,0,0-1.7-.486,12.425,12.425,0,0,0-6.264,1.809Zm-1.3,4.563a5.511,5.511,0,0,0-.243,1.7,4.113,4.113,0,0,0,2.295,3.915,12.03,12.03,0,0,0,5,.864c2.133,0,3.186-.3,3.186-.891a1.066,1.066,0,0,0-.486-.756,3.088,3.088,0,0,0-1.377-.648,1.212,1.212,0,0,0-.459.108,6.463,6.463,0,0,1-2.592.405,7.676,7.676,0,0,1-2.889-.513,3.336,3.336,0,0,1-2.052-3.267c0-.108,0-.432.027-.837Zm32.8-5.886v-8.37c.756-.216,1-.351,1-.567s-.27-.3-1.728-.486c-.3-.027-.783-.108-1.431-.189a17.653,17.653,0,0,1,.216,3.294v18.6h-7.614a10.285,10.285,0,0,1-2.457-.216l.216,1.053a10.181,10.181,0,0,1,2.241-.216h21.843c.108,0,.216-.081.216-.162A.323.323,0,0,0,159,.054c-1.188-1.08-1.566-1.4-2.808-2.43-.729.891-.972,1.188-1.728,2.187H146.61V-11.853h10.341c.135,0,.27-.081.27-.162a.323.323,0,0,0-.108-.216c-1.134-1.026-1.512-1.323-2.7-2.349l-1.728,2.106Zm21.3-5.022a1.171,1.171,0,0,0-.3.729,3.856,3.856,0,0,0,.7,1.809,2.98,2.98,0,0,0,2.079,1.593,1.779,1.779,0,0,0,1.08-.378,45.653,45.653,0,0,1,12.069-3.618,14,14,0,0,0-4.4,3.105A10,10,0,0,0,176.2-7.668a7.171,7.171,0,0,0,3.132,6.048A11.151,11.151,0,0,0,184.842.324c.567,0,.972-.324.972-.756a2.211,2.211,0,0,0-.81-1.3,1.345,1.345,0,0,0-1.134-.432,8.159,8.159,0,0,1-2.727-.648,5.479,5.479,0,0,1-3.591-5.265c0-4.617,4.455-9.018,9.072-9.018a3.693,3.693,0,0,1,.756.054,3.823,3.823,0,0,0,.513.027c.513,0,.837-.27.837-.675,0-.351-.243-.7-.783-1.026a3.606,3.606,0,0,0-1.458-.567,3.4,3.4,0,0,0-.945.216,29.573,29.573,0,0,1-3.645.891c-1.863.351-3.4.7-4.374.945-6.075,1.458-6.75,1.593-7.506,1.593a1.53,1.53,0,0,1-1.215-.459A2.939,2.939,0,0,1,167.913-17.5Zm16.578,4.185a12.952,12.952,0,0,1,2.079,2.862c.837,1.755.837,1.755,1.188,1.755.459,0,.837-.486.837-1.134s-.378-1.269-1.35-2.16a13.769,13.769,0,0,0-2.4-1.674Zm2.835-1.539a12.887,12.887,0,0,1,2.97,3.834c.216.378.378.513.621.513.4,0,.675-.459.675-1.107,0-.729-.351-1.3-1.377-2.079a13.131,13.131,0,0,0-2.592-1.539ZM198.018-3.888A21.064,21.064,0,0,1,202.176.405c1.188,1.782,1.188,1.782,1.377,1.944a.886.886,0,0,0,.378.162c.459,0,.972-.918.972-1.782a2.729,2.729,0,0,0-1.431-2.376,24.459,24.459,0,0,0-5.265-2.592ZM-215.433,29.7a.982.982,0,0,0-.162.513,3.418,3.418,0,0,0,.513,1.566c.513.945,1.134,1.485,1.674,1.485a1.57,1.57,0,0,0,.81-.3,21.773,21.773,0,0,1,3.267-1.512c2.376-.945,2.646-1.026,2.943-1.026a.348.348,0,0,1,.378.351c0,.432-1.323,1.917-4.32,4.752-3.726,3.591-6.183,5.481-7.587,5.913-.54.162-.729.324-.729.7a1.954,1.954,0,0,0,1.512,1.431c.162,0,.3-.054.675-.3a49.185,49.185,0,0,1,9.666-3.915,11.236,11.236,0,0,0-3.051,2.322,5.544,5.544,0,0,0-1.674,3.834c0,3.132,3.051,5.4,7.344,5.4.945,0,1.377-.216,1.377-.729a2.147,2.147,0,0,0-1.593-1.539c-.054,0-.216.027-.432.054a2.94,2.94,0,0,1-.513.027,6.108,6.108,0,0,1-2.376-.3,3.554,3.554,0,0,1-2.673-3.375c0-1.89,1.377-3.78,3.672-4.995a12.358,12.358,0,0,1,4.806-1.35,9.762,9.762,0,0,0,1.728-.135.536.536,0,0,0,.54-.513c0-.3-.108-.486-.459-.783a2.691,2.691,0,0,0-1.4-.648,2.848,2.848,0,0,0-1.107.27c-.621.216-1.4.432-2.511.756a108.78,108.78,0,0,0-10.5,3.4c2.754-2.052,5.778-4.4,7.83-6.1a32.513,32.513,0,0,1,3.564-2.727c.594-.243.675-.324.675-.621a3.905,3.905,0,0,0-2.457-2.538.841.841,0,0,0-.486.189,2.065,2.065,0,0,1-.54.4,14.913,14.913,0,0,1-2.106.675,25.056,25.056,0,0,1-4.158.945,1.642,1.642,0,0,1-1.107-.324A3.389,3.389,0,0,1-215.433,29.7Zm38.961,20.223a16.109,16.109,0,0,0,5.265-1.674c3.4-1.809,5.373-4.806,5.373-8.181a8.243,8.243,0,0,0-2.592-6.345,10.259,10.259,0,0,0-6.966-2.484,13.092,13.092,0,0,0-9.288,3.78,8.438,8.438,0,0,0-2.43,5.346,5.185,5.185,0,0,0,.621,2.457,16.806,16.806,0,0,1,1.188,2.538,5.3,5.3,0,0,0,.756,1.728,1.567,1.567,0,0,0,1.188.567c1,0,2.322-1.323,4.023-4.023,2.052-3.294,3.564-7.236,3.564-9.342a3.523,3.523,0,0,0-.837-2.241,6.215,6.215,0,0,1,.945-.054,8.913,8.913,0,0,1,4.671,1.242A6.7,6.7,0,0,1-167.94,39.2a9.6,9.6,0,0,1-2.4,6.507,12.279,12.279,0,0,1-6.318,3.753Zm-.7-17.766a3.014,3.014,0,0,1,.378,1.35c0,1.674-1.431,5.157-3.429,8.343-1.323,2.106-2.619,3.564-3.213,3.564-.3,0-.648-.3-1.026-.783a6.318,6.318,0,0,1-1.08-3.564C-185.544,36.9-181.872,32.99-177.174,32.153Zm33.453,9.4a18.3,18.3,0,0,0,1.3-2.376c2.187-.243,4.077-.54,6.912-1.026a16.574,16.574,0,0,1,1.458,2.511c.378.756.432.864.648.864.4,0,.864-1,.864-1.917,0-.648-.324-1.134-1.377-2.079a19.037,19.037,0,0,0-3.861-2.7l-.27.27a13.477,13.477,0,0,1,2.187,2.538c-3,.216-4.347.3-6.264.324-.405.027-.405.027-.648.027a46.917,46.917,0,0,0,6.75-6.4h.432c.648,0,.864-.081.864-.27,0-.243-.378-.486-2.592-1.809a24.462,24.462,0,0,1-3.267,4.968,32.706,32.706,0,0,1-3.078,3.51c-.756.027-1.377.027-1.755.054-.864.027-1.458.027-1.728.027-.783,0-1.269-.027-2.241-.108.243,2.538.324,2.943.648,2.943.216,0,.351-.3.513-1.026l3.78-.459a24,24,0,0,1-5.94,8.127l.243.324a18.032,18.032,0,0,0,5.427-4.914,14.277,14.277,0,0,0,2.646,3.78,27.327,27.327,0,0,1-8.289,4.779l.216.432a24.939,24.939,0,0,0,9.1-4.185,16.327,16.327,0,0,0,7.614,3.915,2.54,2.54,0,0,1,1.836-1.809v-.378a17.77,17.77,0,0,1-8.424-2.511,19.729,19.729,0,0,0,3.7-4.185,8.01,8.01,0,0,0,1.215-.4.268.268,0,0,0,.162-.216c0-.081-.054-.189-.243-.351-.756-.675-1-.864-1.809-1.512-.54.54-.7.7-1.188,1.242Zm5.535.621a15.627,15.627,0,0,1-3.1,3.861,11.636,11.636,0,0,1-3.051-3.564c.081-.135.108-.162.189-.3Zm-14.85,2.646c0,2.052-.054,4.563-.108,6.939.027.27.108.324.513.324a2.438,2.438,0,0,0,1.269-.216.658.658,0,0,0,.108-.351l-.027-4.536V39.74c.567-.135.837-.3.837-.486s-.459-.4-1.431-.675a31.547,31.547,0,0,0,2.619-3.537c.837,0,1.215-.108,1.215-.351s-.135-.324-2.862-1.4a15.02,15.02,0,0,1-2.16,4.482,31.017,31.017,0,0,1-3.969,5.076l.324.378a27.343,27.343,0,0,0,3.672-3.321Zm5.238-13.527a17.915,17.915,0,0,1,4.077,4.7c.162.243.243.324.378.324.459,0,.864-.783.864-1.62,0-.567-.3-.918-1.62-1.809a22.889,22.889,0,0,0,3.1-3.78c.891-.027,1.161-.135,1.161-.351,0-.243-.378-.4-2.781-1.323a21.261,21.261,0,0,1-2,5.13c-.918-.54-1.485-.864-2.889-1.593Zm-8.559,4a24.181,24.181,0,0,0,6.939-6.183c1.107,0,1.4-.081,1.4-.351,0-.243-.3-.4-3-1.485a12.275,12.275,0,0,1-1.485,2.889,20.2,20.2,0,0,1-4.212,4.752Zm44.685,14.634a16.109,16.109,0,0,0,5.265-1.674c3.4-1.809,5.373-4.806,5.373-8.181a8.243,8.243,0,0,0-2.592-6.345,10.259,10.259,0,0,0-6.966-2.484,13.092,13.092,0,0,0-9.288,3.78,8.438,8.438,0,0,0-2.43,5.346,5.185,5.185,0,0,0,.621,2.457,16.807,16.807,0,0,1,1.188,2.538,5.3,5.3,0,0,0,.756,1.728,1.567,1.567,0,0,0,1.188.567c1,0,2.322-1.323,4.023-4.023,2.052-3.294,3.564-7.236,3.564-9.342a3.523,3.523,0,0,0-.837-2.241,6.215,6.215,0,0,1,.945-.054,8.913,8.913,0,0,1,4.671,1.242A6.7,6.7,0,0,1-103.14,39.2a9.6,9.6,0,0,1-2.4,6.507,12.279,12.279,0,0,1-6.318,3.753Zm-.7-17.766A3.014,3.014,0,0,1-112,33.5c0,1.674-1.431,5.157-3.429,8.343-1.323,2.106-2.619,3.564-3.213,3.564-.3,0-.648-.3-1.026-.783a6.318,6.318,0,0,1-1.08-3.564C-120.744,36.9-117.072,32.99-112.374,32.153Zm34.587,1.485c.162,0,.3-.108.3-.216a1.072,1.072,0,0,0-.189-.324c-.918-.81-1.215-1.08-2.214-1.836-.567.729-.756.972-1.4,1.755h-2.727v-3.78c1.242-.513,1.242-.513,1.242-.7,0-.324-.486-.432-3.159-.7a15.076,15.076,0,0,1,.108,1.944v3.24h-3.078a19.154,19.154,0,0,1-2.268-.27l.216,1.053a16.942,16.942,0,0,1,2.079-.162h5.94c-.162,1.377-.3,2.241-.351,2.619a23.508,23.508,0,0,1-.972,3.591,46.794,46.794,0,0,0-4.59-4.536l-.3.216c1.7,2.079,2.97,3.726,4.32,5.7a35.121,35.121,0,0,1-1.7,3.24,27.3,27.3,0,0,1-4.671,6.048l.27.27a25.067,25.067,0,0,0,7.1-8.046,24.939,24.939,0,0,1,2.268,4.347c.27.729.4.918.675.918.513,0,.918-.972.918-2.133,0-.918-.675-1.917-3.078-4.644a23.02,23.02,0,0,0,2-7.587Zm5.4.837h-4.185a9.1,9.1,0,0,1-2.106-.324l.216,1.107a8.811,8.811,0,0,1,1.809-.162h4.266v13.8c0,.459-.108.567-.54.567-1.782-.027-1.809-.027-5.049-.189V49.7a8.491,8.491,0,0,1,3.456.729c.459.243.621.513.81,1.377a7.03,7.03,0,0,0,2.43-.918c.567-.351.729-.7.756-1.566l-.027-6.183V35.1h3.969a.247.247,0,0,0,.27-.216.785.785,0,0,0-.135-.27,23.886,23.886,0,0,0-2.025-2.025c-.54.81-.729,1.08-1.269,1.89h-.81V29.237c1.026-.4,1.215-.54,1.215-.783,0-.3-.351-.351-3.186-.675a26.72,26.72,0,0,1,.135,2.7ZM-78.7,37.364a23.776,23.776,0,0,1,2.754,6.7c.108.486.27.729.459.729.621,0,1.242-1,1.242-2.025,0-.486-.162-.837-.837-1.836a23.322,23.322,0,0,0-3.321-3.753Zm33.291-5.886v-2.97c.81-.243,1.107-.4,1.107-.594,0-.324-.783-.513-3.24-.729a12.405,12.405,0,0,1,.135,1.89v2.4H-54.7c-.972-.648-1.3-.837-2.349-1.431a39.842,39.842,0,0,1,.162,4.725c0,5.886-.135,8.505-.594,10.719A18.176,18.176,0,0,1-59.7,51.458l.3.189a13.48,13.48,0,0,0,1.62-2.214A17.44,17.44,0,0,0-55.3,42.008c.216-2.16.351-5.049.351-8.208,0-.4,0-.945-.027-1.7h20.25c.243,0,.4-.081.4-.216,0-.054-.054-.135-.162-.27a32.16,32.16,0,0,0-2.781-2.3c-.675.864-.891,1.161-1.593,2.16Zm-6.993,7.695A10.521,10.521,0,0,1-54.216,44.9c-.432.54-.513.648-.513.918A2.458,2.458,0,0,0-54.27,47c.27.432.513.621.837.621q.527,0,.891-.972a15.657,15.657,0,0,0,.7-5.508c0-.675,0-1.053-.054-1.971Zm3.159,6.21c-.054,2.322-.054,2.322-.054,2.781v1.35c.054.864.243,1.269.7,1.458a16.887,16.887,0,0,0,4.509.324,24.813,24.813,0,0,0,5.13-.3.956.956,0,0,0,.729-.864c0-.324-.3-.594-.729-.675-.513-.108-.513-.108-.567-.162-.108-.108-.108-.108-.135-.864V43.952h-.27c-.162.729-.459,1.863-.864,3.456a11.559,11.559,0,0,1-.513,1.836c-.162.378-.378.486-1.08.486-.486,0-1.053,0-1.674.027h-.945a6.569,6.569,0,0,1-2.16-.216c-.162-.081-.216-.27-.216-.648V36.824c.864-.243,1.161-.378,1.161-.621,0-.351-.567-.486-3.186-.756a18.041,18.041,0,0,1,.162,2.835Zm2.781-11.664A14.341,14.341,0,0,1-42.9,38.2c.378.81.459.918.7.918a.921.921,0,0,0,.513-.351,3.034,3.034,0,0,0,.3-1.512,1.775,1.775,0,0,0-.7-1.377,16.934,16.934,0,0,0-4.1-2.43Zm6.8,5.751a19.776,19.776,0,0,1,2.916,5.319,6.871,6.871,0,0,0,.567,1.728c.108.189.216.27.351.27.567,0,1.242-1.188,1.242-2.16,0-1.161-1.4-2.781-4.779-5.454Zm15.633-7.02a4.362,4.362,0,0,0,4.023,2.079,10.238,10.238,0,0,0,1.809-.162,21.746,21.746,0,0,1-5.022,5.805c-.756.621-.783.648-.783,1.215,0,.864.3,1.431.729,1.431.27,0,.486-.162,1-.864,1.944-2.484,4.077-3.915,5.859-3.915a1.536,1.536,0,0,1,1.377.81,4.545,4.545,0,0,1,.378,2.133,19.506,19.506,0,0,0-3.348,2.4,5.134,5.134,0,0,0-1.944,3.7,2.958,2.958,0,0,0,2,2.862,13.96,13.96,0,0,0,5.481.783,30.013,30.013,0,0,0,4.833-.378c.54-.108.837-.378.837-.729,0-.594-1.053-1.35-1.89-1.35a1.994,1.994,0,0,0-.513.081,19.523,19.523,0,0,1-5.427.756c-3.024,0-4.509-.7-4.509-2.16a3.613,3.613,0,0,1,1.323-2.511,13.722,13.722,0,0,1,3.159-2.133,25.79,25.79,0,0,1-.189,2.889,2.943,2.943,0,0,0-.027.459.81.81,0,0,0,.864.81.857.857,0,0,0,.756-.513,7.489,7.489,0,0,0,.216-2.322c0-1.161,0-1.323-.027-2.187A43.842,43.842,0,0,1-5.832,38.66c.756-.162.972-.351.972-.837,0-1.08-1.863-2.727-3.051-2.727a1.314,1.314,0,0,0-.621.162c.783.324,1.242.81,1.242,1.269,0,.486-.648.918-3.321,2.268C-12.8,39.9-12.8,39.9-13.257,40.118a2.994,2.994,0,0,0-3.024-2.7,7.307,7.307,0,0,0-3.483,1.08c.513-.729.729-1.026,1.458-2.16.621-.945.945-1.431,1.431-2.106a43.3,43.3,0,0,0,5.886-1.539c.81-.27,1.161-.54,1.161-.864,0-.513-.756-.891-1.809-.891a.757.757,0,0,0-.513.189c-.891.756-1.62,1.08-3.888,1.728.189-.27.189-.27.675-1.053.216-.3.54-.783.783-1.107.324-.405.432-.594.432-.783,0-.324-.3-.621-.972-.891a5.711,5.711,0,0,0-2.106-.459,2.142,2.142,0,0,0-1.215.3c1.4.351,1.917.783,1.917,1.512a7.292,7.292,0,0,1-.945,2.754,14.311,14.311,0,0,1-2.889.351,4.443,4.443,0,0,1-3.375-1.269Zm35.046-.837a6.291,6.291,0,0,0,1.89,1.566,7.371,7.371,0,0,0,3.078.729c.486,0,1.431-.027,2.025-.081l-.513.324-1.755.945c-.729.4-1.215.675-1.971,1.134l.189.405a44.848,44.848,0,0,1,7.209-2.673c1.809-.378,1.971-.486,1.971-.945a1.853,1.853,0,0,0-1.62-1.4,2.739,2.739,0,0,0-.486.108,21.055,21.055,0,0,1-5.616.81,6.332,6.332,0,0,1-4.131-1.188ZM9.99,41.9a7.344,7.344,0,0,0-.432,2.295A5.169,5.169,0,0,0,11.8,48.434c1.35.918,3.267,1.3,6.291,1.3a31,31,0,0,0,6.291-.54c.567-.135.864-.432.864-.837a1.289,1.289,0,0,0-.594-.945,2.947,2.947,0,0,0-1.485-.54,1.371,1.371,0,0,0-.459.081,17.357,17.357,0,0,1-5.967,1c-4.347,0-6.372-1.512-6.372-4.725,0-.324.027-.621.081-1.215ZM23.247,29.318A12.037,12.037,0,0,1,25.3,32.18c.864,1.755.864,1.755,1.215,1.755.459,0,.837-.486.837-1.134s-.378-1.269-1.35-2.16a13.77,13.77,0,0,0-2.4-1.674Zm2.835-1.566a13.829,13.829,0,0,1,2.97,3.861c.216.378.378.513.621.513.4,0,.675-.459.675-1.107,0-.756-.351-1.3-1.4-2.079A12.2,12.2,0,0,0,26.379,27.4ZM52.974,48.731A6.408,6.408,0,0,1,50.6,46.976a5.634,5.634,0,0,1-1.242-1.863,19.09,19.09,0,0,0,.567-2.025c.243-.081.432-.162.567-.189a1.386,1.386,0,0,0,.27-.108.343.343,0,0,0,.108-.189c0-.27-.081-.3-2.646-.945a13.272,13.272,0,0,1-1.215,5.157,14.079,14.079,0,0,1-3.645,5.049l.189.324c3-2.079,4.428-3.726,5.562-6.4a9.144,9.144,0,0,0,4.1,4.536c1.62.837,2.97,1.08,8.073,1.323.324-1.242.7-1.62,1.782-1.89v-.378c-3.564.162-3.834.162-4.806.162a17.3,17.3,0,0,1-3.537-.3V44.708h7.1c.189,0,.3-.054.3-.162a.469.469,0,0,0-.162-.3c-.891-.891-1.161-1.134-2.133-1.971-.675.756-.891,1-1.539,1.809H54.729V40.2h7.749c.216,0,.3-.054.3-.162a.645.645,0,0,0-.189-.3c-.891-.891-1.161-1.134-2.106-2.025-.648.81-.864,1.053-1.485,1.863H48.087a8.575,8.575,0,0,1-2.106-.189l.135.918A12.609,12.609,0,0,1,48.06,40.2h4.914ZM43.362,33.638V28.67c.756-.216.972-.351.972-.594,0-.3-.837-.486-2.943-.675a17.491,17.491,0,0,1,.243,3.213v3.024H39.69a5.208,5.208,0,0,1-1.62-.189l.135.918a7.587,7.587,0,0,1,1.35-.108h2.079V40.2a34.965,34.965,0,0,1-3.807,1.242c1,2.538,1.026,2.592,1.242,2.592s.3-.324.378-1.215c.729-.351.729-.351,2.187-1.134V49.6c0,.243-.162.378-.486.378-2.727-.081-2.727-.081-3.591-.135v.432c.189.054.378.081.567.135l.594.108a7.677,7.677,0,0,1,1.107.324c.4.216.459.3.648,1.431a4.514,4.514,0,0,0,2.349-.918,2.121,2.121,0,0,0,.594-1.809v-.27c-.054-1.674-.054-1.674-.054-4.968v-3.51c.7-.432.7-.432,1.809-1.08A22.02,22.02,0,0,0,47.115,38.5l-.108-.378a35.359,35.359,0,0,1-3.645,1.458V34.259h4.1c.162,0,.27-.054.27-.162a.431.431,0,0,0-.081-.216c-.837-.864-1.107-1.107-1.944-1.944a12.245,12.245,0,0,0-1.431,1.7ZM50.085,36.9h7.533v.648c.027.216.108.3.351.3h.054a1.564,1.564,0,0,1,.432-.027c.7,0,.891-.108.918-.513-.054-2.781-.054-2.781-.054-7.452.7-.378.891-.54.891-.7,0-.108-.108-.216-.378-.432a15.108,15.108,0,0,0-1.4-1.134A11.114,11.114,0,0,0,57.4,28.859H50.3A10.009,10.009,0,0,0,48.357,27.7c.135,2.97.135,2.97.135,5.751a39.863,39.863,0,0,1-.135,4.239v.054c0,.243.135.324.513.324a2.452,2.452,0,0,0,1.107-.189c.081-.054.108-.135.108-.324Zm7.533-4.4H50.085V29.48h7.533Zm0,.621v3.159H50.085V33.125ZM94.23,35.042c.162,0,.3-.081.3-.189a.453.453,0,0,0-.189-.243c-1.107-.81-1.431-1.053-2.457-1.809-.621.675-.81.891-1.4,1.62H80.838a15.191,15.191,0,0,0,1.188-1.647c1.053-.108,1.35-.216,1.35-.432s-.756-.459-2.673-.864a16.694,16.694,0,0,1-2,2.943H73.656a19.2,19.2,0,0,1-2.889-.216l.216,1.026a7.319,7.319,0,0,1,1.08-.108c.621-.027.621-.027,1.593-.081h4.536a30.663,30.663,0,0,1-3.132,3.429c-.216.162-.3.27-.3.351,0,.162,1.053.459,1.62.459a.53.53,0,0,0,.459-.243,10.608,10.608,0,0,0,.972-1.053,5.406,5.406,0,0,1,.783.162c1.89.351,2.889.54,3.834.783A18.512,18.512,0,0,1,78.6,40.712,27.764,27.764,0,0,1,71.523,42.2l.054.486a25.424,25.424,0,0,0,12.609-3.294,29.139,29.139,0,0,1,6.426,2.916c.459.3.486.324.621.324.189,0,.324-.216.324-.513A2.619,2.619,0,0,0,90.8,40.28c-.7-.54-2.268-1.026-5.481-1.7a9.785,9.785,0,0,0,2.97-3.537Zm-7.992,0a9.116,9.116,0,0,1-2.781,3.186l-4.563-.621c-.189-.027-.189-.027-.675-.108,1.539-1.782,1.539-1.782,2.106-2.457Zm-4.482,8.937H73.494a16.5,16.5,0,0,1-2.916-.27l.243,1.026c.243-.027,1.134-.081,2.673-.135h6.642a14.979,14.979,0,0,1-2.808,2.646,24.375,24.375,0,0,1-7.047,3.807l.189.432a22.843,22.843,0,0,0,5.643-2.079,21.327,21.327,0,0,0,5.643-3.969v2.754c0,.243,0,.837-.027,1.7,0,.351-.027.891-.027,1.566,0,.4.162.567.54.567a6.688,6.688,0,0,0,1.107-.108c.3-.081.378-.162.378-.486,0-.729-.027-1.3-.027-1.647-.027-1-.027-1.674-.027-1.863V44.6a19.588,19.588,0,0,0,4.266,4,18.439,18.439,0,0,0,5.724,2.727c.378-.972.405-1.026.594-1.242a2.172,2.172,0,0,1,1.323-.54l.027-.378c-4.7-.378-9.072-2.187-11.151-4.563H95.2c.135,0,.189-.027.189-.108,0-.054-.054-.135-.162-.216-1.107-.945-1.458-1.215-2.565-2.079-.7.756-.918,1-1.566,1.782H83.673V42.521c.945-.378.945-.378.945-.594,0-.27-.216-.324-2.943-.7.054.756.081,1.107.081,1.593ZM73.9,30.1c.027-.486.054-.729.054-1.053,0-.189,0-.432-.027-.783h-.432a6.831,6.831,0,0,1-.81,2.16,4.583,4.583,0,0,1-1,1.107c-.567.351-.621.4-.621.783,0,.675.513,1.458.945,1.458.27,0,.567-.243.891-.756a5.413,5.413,0,0,0,.918-2.295H91.152a13.472,13.472,0,0,1-.837,2.133l.351.216c1.269-1.026,2.025-1.674,2.268-1.89,1.026-.135,1.593-.243,1.7-.27.081-.054.135-.108.135-.162,0-.108-.081-.216-.27-.378a22.255,22.255,0,0,0-2.241-1.7c-.567.594-.729.783-1.3,1.431H83.619V28.454c.837-.27,1.134-.459,1.134-.7a.268.268,0,0,0-.162-.216,15.972,15.972,0,0,0-3.1-.4c.054.864.081,1.242.081,1.647V30.1Zm50.085,14.742a16.7,16.7,0,0,1-3.429,2.4,14.023,14.023,0,0,1-6.156,1.728,3.972,3.972,0,0,1-2.4-.729c-.756-.621-1.08-1.593-1.08-3.24a83.347,83.347,0,0,1,1.4-12.96,2.821,2.821,0,0,0,.243-.972c0-.567-.54-1.107-1.566-1.593a6.709,6.709,0,0,0-2.43-.621,1.09,1.09,0,0,0-.756.27c1.917.81,2.187,1.269,2.187,3.591,0,.972-.027,1.728-.189,4.644-.135,2.457-.216,5.022-.216,6.507,0,2.295.216,3.618.756,4.563a4.9,4.9,0,0,0,4.482,2.3c3.348,0,6.885-2.079,9.477-5.589Zm14.742-11.88c1.35,1.809,2.457,2.322,5.022,2.322.918,0,2-.054,3.483-.189v.324l.054,1.971v1.89a22.234,22.234,0,0,1-2.619.189,5.7,5.7,0,0,1-3.159-.594c-.4-.324-.54-.7-.567-1.539l-.4-.027c-.027.3-.054.567-.054.756a2.35,2.35,0,0,0,1.215,2.052,7.389,7.389,0,0,0,3.591.594c.4,0,.918-.027,2-.081V42.98c0,.378,0,.567.027,1.863-.648-.027-.918-.027-1.35-.027-3.591,0-6.1,1.35-6.1,3.267,0,1.7,1.863,2.889,4.563,2.889a6.067,6.067,0,0,0,3.618-1,2.7,2.7,0,0,0,.918-2.268c0-.324-.027-.594-.081-1.188a9.669,9.669,0,0,1,2.7,1.134,15.466,15.466,0,0,1,2.268,1.674c.7.675.81.756,1.08.756.351,0,.594-.378.594-.945a2.332,2.332,0,0,0-.783-1.782,14.006,14.006,0,0,0-5.94-2.322c-.081-.675-.108-1.08-.162-2.106-.027-.945-.027-1.377-.081-2.43a29.022,29.022,0,0,0,4.4-.783c1.7-.459,2.079-.675,2.079-1.161a.555.555,0,0,0-.324-.513,3.129,3.129,0,0,0-1.377-.405.651.651,0,0,0-.4.108,4.212,4.212,0,0,1-1.35.675,22.432,22.432,0,0,1-3.078.729c-.027-1.188-.027-1.728-.027-2.457,0-.621,0-1.026.027-1.728a45.769,45.769,0,0,0,5.157-.945c1.674-.4,2.106-.621,2.106-1a.81.81,0,0,0-.459-.648,3.442,3.442,0,0,0-1.4-.459.768.768,0,0,0-.324.108c-.891.621-2.349,1.08-5.022,1.593a8.719,8.719,0,0,1,.486-2.862c.351-.756.351-.756.351-.918,0-.405-.27-.675-.918-.891a7.535,7.535,0,0,0-2.268-.351c-.756,0-.972.054-1.35.432,2.052.3,2.241.675,2.349,4.806a24.635,24.635,0,0,1-3.861.324A5.536,5.536,0,0,1,139,32.693Zm8.532,13.2v.081c0,.216-.027.837-.054,1.026a2.061,2.061,0,0,1-.594,1.4,4.469,4.469,0,0,1-3.078.972c-1.836,0-2.943-.567-2.943-1.539q0-1.053,1.458-1.62a8.4,8.4,0,0,1,2.943-.513A15.868,15.868,0,0,1,147.258,46.166Zm28.755,5.373a13.761,13.761,0,0,0,4.023-2.565,9.359,9.359,0,0,0,2.916-6.858,7.045,7.045,0,0,0-.864-3.591c-.027-.405-.027-.729-.027-.918,0-1,.081-2.646.189-3.672,1.107-.081,1.89-.108,2.889-.108a28.822,28.822,0,0,1,4.158.27,10.821,10.821,0,0,0,1.458.162c.4,0,.594-.162.594-.459a.832.832,0,0,0-.432-.729,4.768,4.768,0,0,0-2.3-1,2.469,2.469,0,0,0-1,.3,12.21,12.21,0,0,1-3.591.486c-1.053.081-1.053.081-1.755.162a6.783,6.783,0,0,1,.594-2.619c.243-.459.27-.513.27-.729,0-.378-.378-.729-1.026-.945a9.026,9.026,0,0,0-2.619-.378c-.729,0-.918.081-1.242.486,1.377.189,2.025.567,2.322,1.323a9.038,9.038,0,0,1,.3,3c-2.754.3-3.726.432-6.912.945a14.413,14.413,0,0,1-2.322.243,3.136,3.136,0,0,1-2.619-1.377.9.9,0,0,0-.135.324,4.017,4.017,0,0,0,1.08,1.971,2.777,2.777,0,0,0,1.728,1.026,2.561,2.561,0,0,0,.621-.135,10.017,10.017,0,0,1,1.755-.729,36.986,36.986,0,0,1,6.8-1.35,5.175,5.175,0,0,1,.027.54c0,.864-.027,2.349-.027,2.808a2.721,2.721,0,0,0-1.512-.459c-2,0-3.483,1.755-3.483,4.131,0,2.214,1.431,3.888,3.321,3.888a3.089,3.089,0,0,0,1.728-.54c-.675,2.889-2,4.617-5.13,6.75Zm4.968-10.611c0,1.674-.567,2.538-1.728,2.538-1.269,0-2.187-1.242-2.187-2.943,0-1.647.945-2.916,2.16-2.916C180.414,37.607,180.981,38.687,180.981,40.928Zm19.44,4.617a3.483,3.483,0,1,0,3.483,3.483A3.491,3.491,0,0,0,200.421,45.545Zm0,.864a2.619,2.619,0,1,1,0,5.238,2.639,2.639,0,0,1-2.619-2.619A2.6,2.6,0,0,1,200.421,46.409Z" transform="translate(997 1832.152)"/>
    <path id="パス_3949" data-name="パス 3949" d="M-189.924-14.174l-2.014,5.32a30.119,30.119,0,0,1-1.368,3.23,14.4,14.4,0,0,1-.722-5.016,20.843,20.843,0,0,1,.494-4.712,32.323,32.323,0,0,1,2.052-6.042c.76-1.52.8-1.672.8-2.28a5.129,5.129,0,0,0-1.406-3c-1.026-1.33-1.71-1.824-2.546-1.862a6.757,6.757,0,0,1,1.064,3.572,17.788,17.788,0,0,1-.532,3.534,58.138,58.138,0,0,0-1.33,7.182,34.24,34.24,0,0,0-.3,4.066,22.517,22.517,0,0,0,1.33,8.094c.418,1.026.988,1.558,1.634,1.558a.934.934,0,0,0,.912-.646,5.549,5.549,0,0,0,.114-1.634A14.944,14.944,0,0,1-191.1-6.84c1.064-4.408,1.634-6.8,1.71-7.144Zm4.9-9.538a6.7,6.7,0,0,0,5.168,2.128c.342,0,.76-.038,1.558-.076-.608.456-1.9,1.52-3.61,2.964l.38.38a38.807,38.807,0,0,1,4.9-2.7,21.784,21.784,0,0,1,5.4-1.33c.8-.152,1.064-.38,1.064-.874s-.38-.95-1.178-1.406a2.891,2.891,0,0,0-1.33-.532c-.266,0-.342.038-.836.3a20.178,20.178,0,0,1-7.638,1.71,5.948,5.948,0,0,1-3.534-1.026Zm-.228,11.476a10.3,10.3,0,0,0-.456,3,6.312,6.312,0,0,0,2.052,4.94c1.71,1.52,5.092,2.318,9.842,2.318a19.108,19.108,0,0,0,4.75-.418c.532-.19.836-.494.836-.95a2.924,2.924,0,0,0-2.394-2.242,1.875,1.875,0,0,0-.57.114,5.92,5.92,0,0,1-2.014.608,17.933,17.933,0,0,1-3.23.266c-5.89,0-8.284-1.71-8.284-5.89a14.778,14.778,0,0,1,.114-1.6Zm31.692,6.764A29.644,29.644,0,0,1-147.706.57c1.672,2.508,1.672,2.508,1.938,2.736a1.247,1.247,0,0,0,.532.228c.646,0,1.368-1.292,1.368-2.508,0-1.368-.532-2.242-2.014-3.344a34.424,34.424,0,0,0-7.41-3.648Zm47.2-15.5c1.6,2.242,3.23,3.116,5.662,3.116a17.782,17.782,0,0,0,2.964-.266c-.114,3.762-.114,3.762-.19,5.472-.038.722-.038,1.292-.076,1.824-3.344,1.634-4.636,2.47-6.042,3.914a3.289,3.289,0,0,0-1.14,2.128,1.807,1.807,0,0,0,1.254,1.6,15.687,15.687,0,0,1,2.546,1.71C-99.066.57-99.066.57-98.534.57A2.309,2.309,0,0,0-96.71-.836a4.451,4.451,0,0,0,.494-2.242c0-.3,0-.722-.038-1.444-.038-1.14-.038-1.14-.038-5.168a24.551,24.551,0,0,1,10.3-2.736c3.648,0,5.624,1.6,5.624,4.522,0,3.04-1.976,5.206-4.75,5.206a5.083,5.083,0,0,1-3.61-1.444,11.293,11.293,0,0,1-2.28-3.306l-.57.19c1.33,4.408,3.838,6.726,7.334,6.726a6.473,6.473,0,0,0,6.5-6.612c0-4.028-3.268-6.5-8.474-6.5a28.15,28.15,0,0,0-10.07,2.09c.038-2.28.114-3.952.152-4.978.076-1.368.076-1.368.114-1.9a26.423,26.423,0,0,0,5.548-1.862c1.368-.646,1.71-.95,1.71-1.482a.968.968,0,0,0-.646-.836,4.63,4.63,0,0,0-1.444-.342,1.8,1.8,0,0,0-.912.38,10.889,10.889,0,0,1-4.142,2.2,14.419,14.419,0,0,1,1.178-5.662c.418-.76.418-.76.418-.988a1.556,1.556,0,0,0-.836-1.216,8.88,8.88,0,0,0-3.914-.95,2.136,2.136,0,0,0-1.634.532c2.622.456,3.078,1.254,3.078,5.244,0,.684,0,2.394-.038,3.5a16.67,16.67,0,0,1-3.8.494,6.351,6.351,0,0,1-4.522-1.938Zm8.246,12.16c0,.228-.076,2.09-.266,5.51-.038.684-.228.95-.684.95a7.947,7.947,0,0,1-2.356-.608c-1.026-.38-1.52-.8-1.52-1.178q0-.627,1.14-1.824A15.915,15.915,0,0,1-98.116-8.816Zm13.224-15.846a10.571,10.571,0,0,1,2.622.988,5.728,5.728,0,0,1,2.394,2.356,26.854,26.854,0,0,1-4.142,2.432l.228.38a24.54,24.54,0,0,1,4.674-1.026,5.022,5.022,0,0,1,.8.076,2.218,2.218,0,0,0,.57.076,1.048,1.048,0,0,0,1.14-1.1c0-1.178-.988-2.432-2.66-3.344a12.6,12.6,0,0,0-5.586-1.368Zm37.164-1.6H-58.406V-28.12h-.57a6.688,6.688,0,0,1-3.382,5.4c-.3.19-.342.266-.342.684,0,1.292.494,2.242,1.178,2.242.646,0,1.748-1.1,2.242-2.2a11.052,11.052,0,0,0,.8-3.382h10.754v3.23c-.076,5.016-.076,5.016-.114,6.118.114.3.228.38.646.38,1.672,0,2.2-.19,2.242-.836-.038-.988-.038-.988-.038-2.128,0-.874,0-2.166-.038-3.914v-2.85h12.388a35,35,0,0,1-1.14,4.1l.266.19a13.936,13.936,0,0,0,2.356-2.242c.19-.19.456-.494.8-.874.266-.038.684-.076,1.33-.152a1.622,1.622,0,0,0,.684-.152.506.506,0,0,0,.228-.342c0-.152-.114-.3-.418-.608a32.227,32.227,0,0,0-3.116-2.394q-.855.8-1.6,1.6H-45.03v-3.116h12.5c.228,0,.418-.114.418-.266a.578.578,0,0,0-.152-.228c-1.482-1.254-1.9-1.634-3.382-2.812-.988,1.026-1.292,1.33-2.242,2.432H-54.834a30.914,30.914,0,0,1-4.142-.38l.266,1.444a6.834,6.834,0,0,1,1.52-.114c.912-.038.912-.038,2.356-.076h7.106ZM-45.334-3.99h8.968v1.216c.038.3.19.418.532.418a6.406,6.406,0,0,0,1.71-.228.607.607,0,0,0,.342-.494c-.076-5.168-.076-5.928-.076-7.3v-2.318c1.14-.608,1.368-.8,1.368-1.064,0-.19-.076-.3-.3-.494a18.736,18.736,0,0,0-2.318-1.672c-.684.646-.874.874-1.558,1.6H-55.822a23.78,23.78,0,0,0-2.926-1.558c.076,1.14.19,5.358.19,7.676,0,.95,0,1.216-.19,6.042.038.38.228.532.646.532a8.389,8.389,0,0,0,1.6-.152.664.664,0,0,0,.38-.532V-3.99h8.4V-.836c0,1.748.38,2.508,1.368,2.888.836.266,2.7.38,7.448.38,5.4,0,8.36-.152,9.272-.456A1.162,1.162,0,0,0-28.8.874a.944.944,0,0,0-.608-.836c-.608-.228-.646-.266-.646-.608v-.494l.646-6h-.456c-.114.266-.494,1.368-1.178,3.306a18.524,18.524,0,0,1-1.1,2.85c-.342.646-.494.8-.988.912-.38.076-3.572.152-5.89.152C-39.1.152-43.738.038-44,.038-44.84,0-44.916,0-45.144-.114c-.152-.114-.19-.19-.19-.722Zm0-.874V-8.892h8.968v4.028Zm-2.394,0h-8.4V-8.892h8.4Zm2.394-4.9V-13.49h8.968v3.724Zm-2.394,0h-8.4V-13.49h8.4Zm-10.3-11.4a18.473,18.473,0,0,1,2.546-.114h6.5c.19,0,.342-.114.342-.228a.661.661,0,0,0-.114-.266,33.617,33.617,0,0,0-2.622-2.2c-.684.8-.912,1.064-1.558,1.824H-55.48a16.418,16.418,0,0,1-2.774-.266ZM-43.7-21.2c1.254-.076,1.786-.076,2.85-.076h6.46c.228,0,.38-.076.38-.228a1.041,1.041,0,0,0-.152-.266l-2.546-2.242c-.684.8-.874,1.064-1.52,1.862H-40.85a12.346,12.346,0,0,1-3.116-.266Zm0,4.028a24.819,24.819,0,0,1,3.306-.19h7.98c.152,0,.3-.114.3-.228a.418.418,0,0,0-.114-.228,27.964,27.964,0,0,0-2.812-2.356c-.8.836-1.026,1.064-1.786,1.938h-3.572a15.019,15.019,0,0,1-3.572-.266Zm-15.5-.076a28.124,28.124,0,0,1,3.078-.114h7.22c.19,0,.3-.076.3-.228a.554.554,0,0,0-.19-.3c-1.1-1.064-1.444-1.368-2.546-2.28-.836.836-1.064,1.1-1.824,1.938h-2.964a18.688,18.688,0,0,1-3.42-.3Zm67.45-.95H17.86c.19,0,.38-.152.38-.266a.8.8,0,0,0-.19-.418c-1.368-1.292-1.824-1.672-3.344-2.926-1.14,1.14-1.482,1.482-2.584,2.736H8.246v-8.018a30.5,30.5,0,0,0,5.966-1.938c1.178.152,1.33.19,1.52.19.342,0,.646-.19.646-.38,0-.266-.57-.722-1.824-1.444-.418-.228-1.026-.57-1.786-1.026a14.985,14.985,0,0,1-4.18,2.356A70.257,70.257,0,0,1-2.7-25.878l.152.494a66.777,66.777,0,0,0,8.208-1.14v7.448H.608a17.2,17.2,0,0,1-3.5-.342l.3,1.444A22.885,22.885,0,0,1,.608-18.2H5.662v7.676h-3.8A19.113,19.113,0,0,0-.988-12.16c.076,5.282.076,6,.076,8.094,0,2.128,0,3.572-.076,6.65.038.418.266.532.95.532,1.14,0,1.558-.228,1.558-.836V.684H12.768V2.166c.076.456.266.57.836.57,1.482,0,1.862-.19,1.862-.912-.076-2.85-.114-4.218-.114-10.754.988-.456,1.33-.722,1.33-1.064,0-.152-.076-.266-.38-.532-.95-.76-1.254-.988-2.356-1.786l-1.71,1.786H8.246ZM1.52-9.652H12.768V-.19H1.52ZM-15.428-28.31c.456,0,.8-.038,1.064-.038.836-.076,1.444-.114,1.672-.114H-3.61c.266,0,.456-.114.456-.228s-.076-.19-.19-.342A31.307,31.307,0,0,0-6.308-31.54a23.283,23.283,0,0,0-2.09,2.2h-4.256a24.841,24.841,0,0,1-3.04-.3Zm-1.558,4.978c1.634-.152,2.128-.19,2.7-.19H-2.66c.228,0,.38-.114.38-.266,0-.076-.076-.152-.19-.3A35.142,35.142,0,0,0-5.206-26.6c-.95.912-1.216,1.216-2.128,2.2h-6.84a18.332,18.332,0,0,1-3.116-.38Zm1.558,5.32a13.36,13.36,0,0,1,2.356-.19h9.158q.456,0,.456-.228a.618.618,0,0,0-.152-.342,35.968,35.968,0,0,0-2.736-2.546,25.828,25.828,0,0,0-1.9,2.242H-13a14.549,14.549,0,0,1-2.774-.342Zm.076,4.9c1.254-.114,1.824-.152,2.432-.152h9.006c.418,0,.57-.076.57-.266a.782.782,0,0,0-.19-.342c-1.1-1.064-1.482-1.368-2.66-2.394-.874.912-1.14,1.178-1.938,2.128H-12.92a13.655,13.655,0,0,1-2.736-.342ZM-12.882.684h5.548V1.976c.038.3.152.38.494.38,1.52,0,1.976-.152,1.976-.8-.076-2.7-.076-2.7-.076-8.968.836-.456,1.14-.722,1.14-.95,0-.114-.076-.266-.38-.57-.8-.684-1.064-.912-1.976-1.6-.646.722-.836.95-1.482,1.6H-12.73c-.836-.532-1.748-1.064-2.66-1.634.076,4.674.076,4.674.076,6.726,0,2.318,0,3.648-.076,6.346.038.3.19.418.532.418a5.613,5.613,0,0,0,1.634-.19c.228-.076.3-.19.342-.456Zm-.038-8.74h5.586V-.19H-12.92ZM44.574-30.628c1.6,1.026,2.09,1.6,2.09,2.242,0,.912-1.14,2.508-5.738,8.094C38.608-17.442,38-16.416,38-15.2a4.941,4.941,0,0,0,1.444,3.192A70.262,70.262,0,0,1,44.992-5.13,35.81,35.81,0,0,1,48.184.228c.646,1.368.8,1.558,1.292,1.558.8,0,1.292-.836,1.292-2.28A4.892,4.892,0,0,0,50.2-3c-.912-1.786-2.85-3.914-6.992-7.752a36.483,36.483,0,0,1-2.66-2.508,3.181,3.181,0,0,1-1.14-1.976c0-.722.494-1.6,1.824-3.078a94.557,94.557,0,0,1,6.992-6.574c2.014-1.634,2.2-1.862,2.2-2.356,0-.532-.228-.912-.836-1.52a8,8,0,0,0-4.218-2.014A1.762,1.762,0,0,0,44.574-30.628Zm30.894,9.2c1.406,2.432,2.888,3.42,5.206,3.42a19.5,19.5,0,0,0,3.648-.38c-2.47,7.144-4.18,11.1-5.966,13.6-.8,1.14-.836,1.254-.836,1.862a5.685,5.685,0,0,0,.532,2.2c.228.532.494.76.874.76.8,0,1.292-.95,2.812-5.472,1.406-4.142,2.7-8.094,3.952-11.856.038-.114.228-.646.494-1.444a41.1,41.1,0,0,0,6.65-2.242c1.6-.684,2.2-1.178,2.2-1.824,0-.3-.19-.532-.608-.684a7.063,7.063,0,0,0-2.014-.418c-.3,0-.456.076-1.064.646a14.078,14.078,0,0,1-4.408,2.318,33.805,33.805,0,0,1,2.28-5.434c.456-.646.456-.646.456-.912,0-.57-.57-1.1-1.71-1.52a9.638,9.638,0,0,0-3.268-.722,2.007,2.007,0,0,0-1.178.342c2.128.722,2.7,1.216,2.7,2.356a27.257,27.257,0,0,1-1.292,6.46,17.707,17.707,0,0,1-4.826.722c-1.634,0-2.622-.494-4.18-2.09Zm16.872,6.27a20.792,20.792,0,0,1,6.954-1.406h.3c-1.026,1.026-1.6,1.558-1.862,1.786l-1.254,1.14-.57.57.228.342a5.183,5.183,0,0,0,.76-.456l1.406-.912a10.25,10.25,0,0,1,1.254-.722,4.961,4.961,0,0,1,2.926-.76c1.1-.076,1.444-.266,1.444-.912a1.259,1.259,0,0,0-.608-1.064,4.634,4.634,0,0,0-2.394-.684,17.166,17.166,0,0,0-8.816,2.584ZM90.516-8.74a7.756,7.756,0,0,0-.342,2.394A5.789,5.789,0,0,0,93.4-.836,16.931,16.931,0,0,0,100.434.38c3,0,4.484-.418,4.484-1.254a1.5,1.5,0,0,0-.684-1.064A4.346,4.346,0,0,0,102.3-2.85a1.705,1.705,0,0,0-.646.152A9.1,9.1,0,0,1,98-2.128a10.8,10.8,0,0,1-4.066-.722,4.7,4.7,0,0,1-2.888-4.6c0-.152,0-.608.038-1.178ZM98.23-28.8a17.158,17.158,0,0,1,2.926,3.99c1.178,2.47,1.178,2.47,1.672,2.47.646,0,1.178-.684,1.178-1.6s-.532-1.786-1.9-3.04a19.38,19.38,0,0,0-3.382-2.356Zm4.028-2.2a18.64,18.64,0,0,1,4.142,5.4c.3.532.532.722.874.722.57,0,.95-.646.95-1.558,0-1.026-.494-1.824-1.938-2.926a18.48,18.48,0,0,0-3.648-2.166Zm39.216,4.218a28.932,28.932,0,0,1,3.078,2.2,23.9,23.9,0,0,1-2.774,1.406c-1.9.76-1.9.76-2.394.988-1.52-1.938-2.508-3.154-2.926-3.648-1.178-1.33-1.558-1.824-1.558-2.014,0-.266.38-.418,1.178-.418a15.273,15.273,0,0,1,1.71.152l.19-.57a13.609,13.609,0,0,0-4.446-.8c-1.634,0-2.584.532-2.584,1.406,0,.532.266.836,1.444,1.482a20.164,20.164,0,0,1,5.282,4.94,25.6,25.6,0,0,1-7.03,1.178,9.184,9.184,0,0,1-6.08-2.09l-.418.38a8.474,8.474,0,0,0,6.992,3.344,25.935,25.935,0,0,0,7.714-1.254,31.5,31.5,0,0,1,4.56,8.436,28.26,28.26,0,0,0-7.448-.988c-6.232,0-9.994,2.28-9.994,6.08,0,2.736,2.014,5.054,5.434,6.194A23.655,23.655,0,0,0,138.852.646c2.66,0,3.306-.228,3.306-1.178A2.779,2.779,0,0,0,139.8-2.584a2.806,2.806,0,0,0-.456.076,16.111,16.111,0,0,1-3.306.266,14.939,14.939,0,0,1-5.282-.836,4.3,4.3,0,0,1-2.964-3.838c0-2.736,2.736-4.446,7.106-4.446a16.733,16.733,0,0,1,6.878,1.444,10.012,10.012,0,0,1,2.546,1.786c.532.532.76.646,1.178.646.76,0,1.026-.532,1.026-2.014a5.507,5.507,0,0,0-.836-2.85,92.21,92.21,0,0,0-5.206-8.208,39.957,39.957,0,0,0,5.548-2.356c1.444-.836,2.09-1.406,2.09-1.976,0-.76-.532-1.178-1.482-1.178h-.228a1.293,1.293,0,0,1-.38.038,17.69,17.69,0,0,1-4.294-1.178Zm38.646,11.4c-.494.836-.494.836-1.1,1.824-1.976,3.306-1.976,3.306-3.192,5.358-.836,1.406-.836,1.406-1.254,2.014A5.516,5.516,0,0,1,172.6-9.158a16.276,16.276,0,0,1-.874-5.51,29.717,29.717,0,0,1,.684-5.662,6.478,6.478,0,0,0,.114-.988,4.582,4.582,0,0,0-1.71-3,5.639,5.639,0,0,0-2.85-1.862h-.342c1.634,2.128,1.9,3,1.938,6.536a43.013,43.013,0,0,0,.266,6.688,17.419,17.419,0,0,0,2.584,7.6c1.178,1.748,3.116,3.23,4.18,3.23a.9.9,0,0,0,.836-.95,3.326,3.326,0,0,0-.076-.608,4.555,4.555,0,0,1-.228-1.292c0-1.52.8-3.762,3.572-10.146Zm8.474-6.156a10.5,10.5,0,0,1,4.712,4.978,13.8,13.8,0,0,1,1.178,4.978c0,.722-.114.874-.874,1.14-.342.114-2.052.608-5.13,1.444l.114.57c1.292-.076,2.014-.076,2.888-.076,1.634,0,2.356.114,2.85.456a1.834,1.834,0,0,0,1.14.418c1.14,0,1.9-1.178,1.9-3,0-5.244-3.8-10.3-8.588-11.362Z" transform="translate(386 1934.152)" fill="#fff"/>
    <path id="パス_3950" data-name="パス 3950" d="M9.95-4.8q5,5.891,15.395,5.891t15.395-5.94q5-5.94,5-17.622V-46.629q0-11.286-5-17.028T25.344-69.4q-10,0-15.2,5.791T4.95-46.629v24.156Q4.95-10.692,9.95-4.8Zm21.285-8.415Q29.7-10.2,25.344-10.2q-4.257,0-5.792-3.019T18.018-23.562V-44.748q0-7.326,1.485-10.3t5.841-2.97q4.356,0,5.89,2.97t1.535,10.3v21.186Q32.769-16.236,31.234-13.216Zm34.5-40.739V0H78.705V-68.31H65.736L54.252-59.7v14.058ZM89.892-10.3V0h39.6V-11.385H106.227l17.028-22.077a34.8,34.8,0,0,0,4.653-7.722,20.961,20.961,0,0,0,1.584-8.217v-1.683a17.938,17.938,0,0,0-2.426-9.207,17.666,17.666,0,0,0-6.93-6.633A21.342,21.342,0,0,0,109.692-69.4,22.808,22.808,0,0,0,99-67.023a16.925,16.925,0,0,0-6.979,6.534,18.511,18.511,0,0,0-2.425,9.5v2.376h12.573v-1.584a8.942,8.942,0,0,1,1.881-6.039A6.447,6.447,0,0,1,109.2-58.41a6.75,6.75,0,0,1,5.2,2.079,7.966,7.966,0,0,1,1.93,5.643V-49.3q0,4.554-3.762,9.6Zm54,5.495q5,5.891,15.395,5.891t15.395-5.94q5-5.94,5-17.622V-46.629q0-11.286-5-17.028T159.291-69.4q-10,0-15.2,5.791t-5.2,16.979v24.156Q138.9-10.692,143.9-4.8Zm21.285-8.415q-1.534,3.019-5.89,3.019-4.257,0-5.792-3.019t-1.535-10.346V-44.748q0-7.326,1.485-10.3t5.841-2.97q4.356,0,5.89,2.97t1.535,10.3v21.186Q166.716-16.236,165.182-13.216ZM189.09-39.9v11.385h27.225V-39.9ZM268.884-10.89V-22.275H263.34V-38.313H250.371v16.038H237.2l19.5-46.035H243.738l-19.5,46.035V-10.89h26.136V0H263.34V-10.89Zm44.748-57.42h-39.3v11.286H300.96L279.774,0h13.068l20.79-57.024ZM326.551-4.8q5,5.891,15.395,5.891t15.395-5.94q5-5.94,5-17.622V-46.629q0-11.286-5-17.028T341.946-69.4q-10,0-15.2,5.791t-5.2,16.979v24.156Q321.552-10.692,326.551-4.8Zm21.285-8.415Q346.3-10.2,341.946-10.2q-4.257,0-5.792-3.019T334.62-23.562V-44.748q0-7.326,1.485-10.3t5.841-2.97q4.356,0,5.891,2.97t1.535,10.3v21.186Q349.371-16.236,347.836-13.216ZM371.745-39.9v11.385H398.97V-39.9ZM451.539-10.89V-22.275h-5.544V-38.313H433.026v16.038H419.859l19.5-46.035H426.393l-19.5,46.035V-10.89h26.136V0h12.969V-10.89Zm44.748-57.42h-39.3v11.286h26.631L462.429,0H475.5l20.79-57.024ZM509.206-4.8q5,5.891,15.395,5.891T540-4.851q5-5.94,5-17.622V-46.629q0-11.286-5-17.028T524.6-69.4q-10,0-15.2,5.791t-5.2,16.979v24.156Q504.207-10.692,509.206-4.8Zm21.285-8.415Q528.957-10.2,524.6-10.2q-4.257,0-5.792-3.019t-1.535-10.346V-44.748q0-7.326,1.485-10.3t5.841-2.97q4.356,0,5.891,2.97t1.534,10.3v21.186Q532.026-16.236,530.492-13.216Z" transform="translate(128.5 1868.152)" fill="#fff"/>
    <g id="グループ_1613" data-name="グループ 1613" transform="translate(66.908 1808.152)">
      <path id="パス_24" data-name="パス 24" d="M490.988,71.55c-4.146,3.265-4.219,12.4-1.916,19.546A66.5,66.5,0,0,0,499.7,110.961a69.587,69.587,0,0,0,16.7,15.055c6.436,4.021,15.246,6.128,19.465,2.8a23,23,0,0,0,5.213-6.671s-2.219-2.814-2.709-3.478l-7.452-9.473c-.551-.737-3.524.23-5.061,1.258-1.982,1.4-3.664,4.753-3.664,4.753-1.392.972-2.633.24-5.3-.688-3.2-1.116-7.082-5.249-10.242-9.04-2.873-3.9-5.947-8.651-6.319-12.119-.3-2.775-.648-4.182.622-5.3,0,0,3.641-.768,5.438-2.391,1.346-1.184,2.963-3.854,2.411-4.591l-7.378-9.537c-.494-.595-2.707-3.475-2.707-3.475C497.977,67.995,493.132,69.891,490.988,71.55Z" transform="translate(-487.554 -68.061)" fill="#fff"/>
    </g>
    <g id="グループ_1615" data-name="グループ 1615" transform="translate(-24.563 1110.016)">
      <path id="パス_3815" data-name="パス 3815" d="M625.765,660.137a1595.192,1595.192,0,0,0-478.765,0V581.971a1595.262,1595.262,0,0,1,478.765,0Z" transform="translate(0 0)" fill="#f4f4f4"/>
      <path id="パス_3815_-_アウトライン" data-name="パス 3815 - アウトライン" d="M145.5,661.881v-81.2l1.276-.193c19.849-3,39.988-5.66,59.857-7.91s40.017-4.15,59.9-5.65,40.037-2.64,59.922-3.39,40.048-1.13,59.934-1.13,40.05.38,59.933,1.13,40.044,1.89,59.919,3.39,40.03,3.4,59.894,5.65,40.007,4.911,59.857,7.91l1.276.193v81.2l-1.724-.26a1593.692,1593.692,0,0,0-478.317,0Zm240.882-21.307c19.886,0,40.05.38,59.934,1.13s40.045,1.891,59.921,3.39,40.031,3.4,59.9,5.65c19.294,2.185,38.842,4.757,58.133,7.651V583.262a1593.679,1593.679,0,0,0-475.765,0v75.132c19.291-2.893,38.839-5.466,58.133-7.651,19.865-2.249,40.016-4.15,59.9-5.65s40.036-2.64,59.921-3.39S366.5,640.573,386.382,640.573Z" transform="translate(0 0)" fill="#0c2775"/>
      <g id="グループ_1614" data-name="グループ 1614" transform="translate(186.041 584.87)">
        <path id="パス_3816" data-name="パス 3816" d="M170.974,617.3a20.026,20.026,0,0,1,3.1-8.59c1.637-2.532,3.387-4.475,8.745-9.5A15.449,15.449,0,0,0,186,595.538a7.451,7.451,0,0,0,.922-3.639c0-3.524-2.3-5.639-5.695-5.214a5.679,5.679,0,0,0-4.978,3.9,12.228,12.228,0,0,0-.419,3.117c-.078,1.433-.544,1.875-2.008,2.065-1.549.2-2.135-.225-2.135-1.441,0-4.323,4.183-8.11,9.792-8.812,3.516-.438,6.445.342,8.038,2.164a6.166,6.166,0,0,1,1.34,4.291c0,3.482-1.56,5.8-6.2,9.224-5.232,3.864-6.362,4.866-8.2,6.908a14.131,14.131,0,0,0-3.431,5.775c4.837-.632,7.255-.938,12.095-1.531,3.014-.37,4.061-1.417,4.9-5.042l1.256.143c-.453,2.975-.679,4.462-1.13,7.437C182.471,615.8,178.636,616.284,170.974,617.3Z" transform="translate(-170.974 -571.363)" fill="#0c2775"/>
        <path id="パス_3816_-_アウトライン" data-name="パス 3816 - アウトライン" d="M170.385,617.878l.095-.654a20.4,20.4,0,0,1,3.171-8.79c1.7-2.626,3.594-4.689,8.823-9.6a15,15,0,0,0,3.086-3.541,6.958,6.958,0,0,0,.86-3.4c0-2.941-1.667-4.768-4.352-4.768a6.309,6.309,0,0,0-.781.05,5.164,5.164,0,0,0-4.562,3.555,11.779,11.779,0,0,0-.4,3,2.614,2.614,0,0,1-.628,1.823,2.925,2.925,0,0,1-1.815.711,5.632,5.632,0,0,1-.724.052,1.974,1.974,0,0,1-1.494-.512,2.025,2.025,0,0,1-.482-1.477,8.312,8.312,0,0,1,2.958-6.135,13.382,13.382,0,0,1,7.272-3.172,15.615,15.615,0,0,1,1.921-.123c2.844,0,5.173.872,6.556,2.454l.008.01a6.663,6.663,0,0,1,1.455,4.61,8.3,8.3,0,0,1-1.445,4.912,20.323,20.323,0,0,1-4.955,4.714c-5.179,3.825-6.325,4.839-8.13,6.841a13.7,13.7,0,0,0-3.066,4.839c4.357-.568,6.729-.867,11.3-1.427,2.809-.345,3.687-1.259,4.474-4.658l.1-.435.9.1.8.091.516.058-.193,1.267c-.38,2.5-.6,3.97-1.015,6.683l-.057.376-.378.045c-7.675.916-11.436,1.388-19.162,2.408Zm11.682-31.748a5.139,5.139,0,0,1,3.889,1.585,6.014,6.014,0,0,1,1.462,4.183,7.947,7.947,0,0,1-.984,3.881,15.808,15.808,0,0,1-3.279,3.789c-5.158,4.841-7.021,6.863-8.666,9.409a19.086,19.086,0,0,0-2.919,7.736c7.167-.944,10.926-1.416,18.135-2.277.376-2.478.6-3.93.958-6.307l.037-.24-.282-.032-.018,0c-.873,3.469-2.1,4.608-5.222,4.991-4.838.592-7.211.893-12.091,1.53l-.785.1.244-.753a14.545,14.545,0,0,1,3.536-5.955c1.859-2.061,3.027-3.1,8.278-6.975,4.481-3.31,5.993-5.536,5.993-8.821a5.678,5.678,0,0,0-1.221-3.967c-1.191-1.359-3.25-2.108-5.8-2.108a14.611,14.611,0,0,0-1.8.115c-5.332.667-9.354,4.242-9.354,8.315a1.143,1.143,0,0,0,.2.781c.194.2.658.256,1.371.164,1.245-.162,1.509-.431,1.573-1.6a12.667,12.667,0,0,1,.437-3.228l0-.016a6.192,6.192,0,0,1,5.392-4.247A7.317,7.317,0,0,1,182.067,586.13Z" transform="translate(-170.974 -571.363)" fill="#0e2473"/>
        <path id="パス_3817" data-name="パス 3817" d="M205.795,608.3c0,2.015.244,2.995.754,3.364.373.272.713.347,2.348.225v1.26c-4.025.4-6.038.609-10.064,1.036v-1.259c1.845-.238,2.19-.355,2.641-.739.544-.466.754-1.506.754-3.52v-3.021c-5.685.591-8.527.9-14.207,1.545v-1.972c6.05-8.8,9.075-13.177,15.13-21.912,1.057-.111,1.586-.164,2.643-.272v20.4c1.744-.177,2.615-.265,4.361-.438v1.847c-1.746.173-2.617.259-4.361.437Zm-3.566-21.081c-4.913,7.143-7.369,10.725-12.28,17.907,4.911-.551,7.367-.816,12.28-1.327Z" transform="translate(-160.26 -572.85)" fill="#0c2775"/>
        <path id="パス_3817_-_アウトライン" data-name="パス 3817 - アウトライン" d="M198.333,614.741v-2.254l.436-.056c1.849-.238,2.055-.346,2.381-.624.4-.342.578-1.311.578-3.14V606.2c-5.316.554-8.105.858-13.65,1.487l-.556.063v-2.688l.088-.128c6.1-8.866,9.068-13.167,15.131-21.914l.131-.188.228-.024c.955-.1,1.481-.154,2.352-.242l.843-.086v20.4c1.371-.139,2.237-.226,3.812-.382l.549-.054v2.851l-.548.054c-1.544.153-2.389.237-3.813.381V608.3c0,1.7.184,2.7.547,2.96.138.1.255.186.869.186.278,0,.643-.018,1.149-.055l.537-.04V613.6l-.45.045c-4.1.408-6.109.617-10.061,1.035Zm1-1.377v.265c3.457-.366,5.446-.572,9.064-.933v-.273c-.272.015-.5.022-.686.022a2.182,2.182,0,0,1-1.457-.378c-.681-.494-.959-1.586-.959-3.768v-3.474l.449-.046c1.589-.162,2.439-.246,3.912-.392v-.842c-1.424.141-2.285.228-3.81.383l-.551.056v-20.4c-.658.067-1.139.116-1.863.192-5.945,8.577-8.915,12.879-14.91,21.594v1.257c5.367-.609,8.157-.911,13.655-1.483l.552-.057v3.576c0,2.235-.26,3.328-.929,3.9C201.286,613,200.855,613.155,199.333,613.364Zm-10.414-7.62.616-.9c4.782-6.993,7.228-10.561,12.281-17.908l.912-1.326v18.639l-.448.047c-4.945.515-7.355.775-12.276,1.327Zm12.809-16.916c-4.245,6.173-6.651,9.684-10.752,15.679,4.082-.456,6.467-.713,10.752-1.16Z" transform="translate(-160.26 -572.85)" fill="#0e2473"/>
        <path id="パス_3818" data-name="パス 3818" d="M216.351,612.369c-.041.508-.27.673-1.386.788-.329.034-.545.09-.671.1l-.125.01a.473.473,0,0,1-.588-.5c-.241-4.99.168-10.547.168-19.528,0-4.744-.042-6.753-.21-10.81a23.511,23.511,0,0,1,2.98,1.761c2.1-.178,3.149-.264,5.249-.433.673-.848.883-1.119,1.6-1.972.966.72,1.259.949,2.224,1.669.337.228.5.381.5.55,0,.293-.5.71-1.471,1.247v8.017c0,3.987.516,10.176.085,16.822a.586.586,0,0,1-.335.529,10.99,10.99,0,0,1-1.806.353c-.337.026-.5-.083-.547-.459v-2.35c-2.267.182-3.4.275-5.669.466Zm5.669-27.661c-2.267.182-3.4.275-5.669.466V595.5c2.267-.19,3.4-.285,5.669-.465Zm-5.669,11.756v11.2c2.267-.19,3.4-.283,5.669-.466V596C219.753,596.179,218.618,596.272,216.351,596.464Zm27.768,2.115c.4-.028.606-.041,1.01-.067.966-1.238,1.3-1.594,2.269-2.791,1.387,1.172,1.807,1.523,3.07,2.7.21.155.293.275.293.4,0,.169-.251.311-.5.326-2.456.152-3.684.23-6.138.392v6.547c0,.5.094,4.035.085,5.449-.015,1.87-.127,2.277-.547,2.849-.588.8-1.513,1.234-4.034,1.91a2.533,2.533,0,0,0-1.177-2.1c-.666-.415-1.513-.569-4.412-.736v-.63c3.026-.01,4.076,0,6.765-.14.456-.023.589-.164.589-.668v-12.3c-4.472.3-6.707.462-11.178.8a14.132,14.132,0,0,0-3.991.64l-.378-1.692a17.2,17.2,0,0,0,4.454.08c4.436-.332,6.654-.49,11.093-.79v-5.667c-4.742.321-7.111.49-11.85.847a13.468,13.468,0,0,0-3.907.635l-.293-1.57a17.468,17.468,0,0,0,4.2-.029c2.185-.164,3.276-.246,5.462-.4v-6.714c-2.084.149-3.127.226-5.209.382a10.279,10.279,0,0,0-3.151.577l-.335-1.654a13.14,13.14,0,0,0,3.486.111c2.083-.156,3.125-.233,5.209-.383v-3.1c0-.715-.041-1.383-.21-3.216,4.034.129,4.833.246,4.833.666,0,.336-.463.619-1.85,1.052v4.4c1.983-.138,2.975-.207,4.959-.338L245,581.4c1.472,1.205,1.933,1.595,3.363,2.891.21.155.295.275.295.36,0,.166-.252.31-.5.326-4.153.262-6.229.4-10.381.69v6.714c2.757-.192,4.135-.287,6.893-.466.891-1.151,1.335-1.725,2.226-2.874,1.6,1.243,2.1,1.63,3.7,2.833.168.158.252.236.252.32,0,.169-.21.308-.462.322-2.5.155-3.758.235-6.263.4Zm-14.791,3.771a20.584,20.584,0,0,1,5,2.444c1.22.793,1.765,1.508,1.765,2.348,0,1.343-.673,2.819-1.26,2.86-.336.024-.588-.249-.967-.979a19.366,19.366,0,0,0-4.915-6.266Z" transform="translate(-144.245 -575.653)" fill="#0c2775"/>
        <path id="パス_3818_-_アウトライン" data-name="パス 3818 - アウトライン" d="M239.213,616.927l-.084-.553c-.164-1.088-.437-1.432-.948-1.751-.547-.341-1.26-.492-4.175-.661l-.471-.027v-1.6l1.325,0c2.4-.007,3.5-.01,5.913-.137.048,0,.083-.006.108-.01a1.3,1.3,0,0,0,.008-.159V600.261c-4.136.281-6.329.438-10.64.761a13.676,13.676,0,0,0-3.887.621l-.513.152-.561-2.514c.1,3.207.173,6.96-.08,10.845a1.082,1.082,0,0,1-.6.938,10.185,10.185,0,0,1-2,.41c-.046,0-.089.005-.13.005a.9.9,0,0,1-.955-.907l0-.028V608.71c-1.742.141-2.837.23-4.669.384l0,3.316c-.079.986-.843,1.143-1.833,1.245-.178.018-.322.044-.437.065-.09.016-.168.03-.241.037l-.132.01c-.039,0-.082.005-.124.005a.956.956,0,0,1-1-.978c-.137-2.836-.067-5.8.022-9.551.068-2.859.145-6.1.145-10,0-4.65-.039-6.667-.21-10.789l-.036-.868.861.454a23.36,23.36,0,0,1,2.789,1.641c1.975-.167,3.014-.252,4.857-.4l.05-.063c.53-.669.772-.974,1.421-1.749l.3-.362.379.282c.489.365.812.608,1.125.844s.619.467,1.09.818c.378.256.715.523.715.958a.98.98,0,0,1-.279.653l.07.012a11.444,11.444,0,0,0,1.949.168c.4,0,.854-.02,1.418-.062,1.943-.146,2.964-.221,4.747-.349V581.79c0-.721-.045-1.4-.208-3.17l-.052-.564.566.018c2.186.07,3.3.134,3.982.228.433.06,1.335.186,1.335.937,0,.652-.623,1.011-1.85,1.417v3.5c1.566-.109,2.54-.176,4.2-.286l.91-1.186,1.222-1.595.314-.41.4.327c1.479,1.211,1.936,1.6,3.364,2.891a1,1,0,0,1,.477.747c0,.495-.5.794-.973.825-3.953.249-5.988.384-9.914.658v5.712c2.288-.159,3.652-.253,6.136-.414l1.566-2.022.829-1.07.4.308c1.566,1.218,2.084,1.615,3.694,2.829l.022.017.029.028a.922.922,0,0,1,.4.674.9.9,0,0,1-.934.821c-2.376.147-3.6.225-5.792.368v4.664l.254-.017c.5-.641.829-1.034,1.2-1.483.27-.325.549-.662.934-1.138l.321-.4.557.471c1.267,1.07,1.7,1.435,2.9,2.562a1.007,1.007,0,0,1,.472.785c0,.5-.5.8-.974.825-2.238.138-3.451.215-5.667.361v6.079c0,.166.011.691.025,1.356.028,1.333.066,3.158.06,4.1-.015,1.9-.123,2.432-.644,3.141-.673.911-1.639,1.382-4.307,2.1Zm-1.7-3.615a3.57,3.57,0,0,1,1.2.462,2.754,2.754,0,0,1,1.3,1.9c1.99-.558,2.775-.95,3.242-1.582.328-.446.435-.743.449-2.555.006-.924-.032-2.741-.059-4.068-.015-.7-.025-1.2-.025-1.377v-13.61l-1.731.115v19.427c0,.76-.338,1.131-1.064,1.167C239.457,613.263,238.509,613.3,237.514,613.312Zm-23.431-.54a.345.345,0,0,0,.044,0l.126-.01c.029,0,.091-.014.151-.025.125-.022.3-.053.511-.075.753-.078.891-.169.915-.2h0a.364.364,0,0,0,.023-.117V584.714l.458-.038.026,0-.1-.067a20.147,20.147,0,0,0-2.164-1.325c.141,3.578.175,5.633.175,9.961,0,3.913-.077,7.16-.145,10.024-.089,3.732-.158,6.679-.023,9.48C214.081,612.757,214.082,612.765,214.083,612.772Zm8.437-5.108v2.815h.009a12.477,12.477,0,0,0,1.625-.3c.045-.025.051-.035.056-.112a123.816,123.816,0,0,0,.022-12.427c-.058-1.665-.107-3.1-.107-4.362v-8.311l.257-.143a5.035,5.035,0,0,0,1.153-.784c-.047-.038-.118-.09-.224-.162l-.019-.013c-.479-.357-.8-.6-1.1-.829l-.741-.557c-.426.513-.656.8-1.1,1.365l-.291.367.466-.037Zm-5.669-10.74v10.2c1.738-.146,2.821-.235,4.669-.383v-10.2C219.775,596.68,218.676,596.769,216.851,596.924Zm9.634,3.136.106.475a10.677,10.677,0,0,1,2.163-.392c-.224.008-.431.011-.628.011A14,14,0,0,1,226.486,600.06Zm-1.211-1.175.639.092a14.482,14.482,0,0,0,2.214.177c.553,0,1.19-.03,2.131-.1,4.283-.321,6.461-.476,10.63-.758V593.63c-4.4.3-6.722.465-11.313.81a12.978,12.978,0,0,0-3.789.612l-.542.177-.1-.558c.019.889.053,1.862.09,2.93Q225.252,598.225,225.274,598.885Zm22.19-2.452c-.234.286-.429.522-.62.752-.4.483-.747.9-1.321,1.636l-.108.138c1.638-.107,2.781-.179,4.578-.29C248.962,597.7,248.512,597.318,247.465,596.433Zm-30.613-10.8v9.321c1.765-.148,2.869-.239,4.669-.383V585.25C219.767,585.392,218.672,585.481,216.851,585.634Zm9.1,7.939.067.359a9.841,9.841,0,0,1,1.784-.339c-.324.016-.6.024-.86.024C226.593,593.617,226.286,593.6,225.953,593.573Zm9.547-8.249V593l1.773-.125V579.924l.351-.11a8.348,8.348,0,0,0,1.284-.483,33.158,33.158,0,0,0-3.569-.24c.125,1.4.161,2.025.161,2.7Zm-10.377,7.155.272.031a12.461,12.461,0,0,0,1.548.107c.6,0,1.361-.049,2.557-.138,2-.151,3.093-.232,5-.369V586.4c-1.8.13-2.827.205-4.672.344a9.865,9.865,0,0,0-3.017.548l-.546.2-.48-2.366c-.185.133-.4.273-.662.423Zm21.858-2.739-.215.278-1.7,2.2-.107.138c1.836-.12,3.025-.2,5.027-.32C248.734,591.1,248.165,590.66,246.981,589.741Zm-20.046-3.981.083.408a9.467,9.467,0,0,1,1.754-.333c-.152,0-.3.007-.437.007A11.972,11.972,0,0,1,226.935,585.76Zm18.15-3.648-.909,1.185-1.047,1.366-.108.141c1.468-.1,2.926-.191,4.825-.311C246.692,583.449,246.194,583.022,245.085,582.112ZM234.793,610.5c-.665,0-1.042-.617-1.371-1.249l-.009-.018a18.92,18.92,0,0,0-4.8-6.109l-.375-.34.936-1.008.3.093a20.98,20.98,0,0,1,5.119,2.5l.006,0c1.378.9,1.993,1.75,1.993,2.768,0,1.32-.672,3.285-1.726,3.359Zm-.479-1.7c.3.577.438.681.475.7a3.4,3.4,0,0,0,.8-2.359c0-.432-.175-1.042-1.535-1.927a22.371,22.371,0,0,0-3.959-2.07A18.74,18.74,0,0,1,234.313,608.8Z" transform="translate(-144.245 -575.653)" fill="#0e2473"/>
        <path id="パス_3819" data-name="パス 3819" d="M245.083,591.276v15.989c0,5.5.189,5.711,0,8.394-.021.278-.133.4-.422.528a10.911,10.911,0,0,1-2.018.277c-.378.019-.5-.057-.547-.391.127-3.573.169-10.248.169-20.782,0-10.912-.042-14.645-.169-17.03,1.262.726,1.682.956,2.986,1.726,3.447-.184,5.172-.271,8.621-.435.757-.876,1.01-1.141,1.684-1.969,1.008.793,1.3,1.033,2.229,1.787.293.238.378.4.378.529,0,.251-.337.56-1.22,1.1v4.575c0,2.182.234,3.768.125,6.121-.013.313-.083.466-.252.557a7.229,7.229,0,0,1-2.1.265c-.275,0-.379-.109-.5-.436v-1.261C250.456,590.995,248.665,591.084,245.083,591.276Zm8.958-10.776c-3.584.169-5.376.261-8.958.451v4.112c3.583-.191,5.374-.28,8.958-.451Zm0,5.078c-3.584.169-5.376.261-8.958.451v4.281c3.583-.19,5.374-.282,8.958-.451Zm0,26.019c-.042.256-.093.336-.379.438a10.306,10.306,0,0,1-1.725.293c-.378.02-.529-.12-.547-.392-.208-3.169.085-5.333.085-7.182,0-4.952-.042-8.852-.127-10.443,1.389.687,1.809.919,3.156,1.653,3.938-.185,5.906-.272,9.844-.433.8-.744,1.052-.964,1.809-1.71.883.68,1.177.92,2.061,1.683.38.279.463.4.463.568,0,.253-.168.385-1.387,1.062v4.617c0,2.855.041,4.446.125,7.717v.041c-.042.379-.09.482-.379.6a8.22,8.22,0,0,1-1.809.239c-.378.017-.546-.06-.588-.355V608.53c-4.242.173-6.362.265-10.6.467Zm10.6-15.112c-4.242.171-6.362.265-10.6.466v4.7c4.239-.2,6.359-.295,10.6-.468Zm-10.6,6.133v5.413c4.239-.2,6.359-.295,10.6-.467v-5.413C260.4,602.324,258.28,602.417,254.041,602.619Zm10.6-12.261v1.091c-.085.507-.42.647-1.557.694-1.052.044-1.186-.042-1.177-.5.041-2.607.125-3.951.125-6.3,0-6.043,0-6.379-.125-8.01a33.919,33.919,0,0,1,3.029,1.721c3.517-.142,5.276-.208,8.794-.329.757-.866,1.01-1.127,1.725-1.948,1.137.8,1.474,1.042,2.526,1.806.335.283.462.4.462.572,0,.295-.127.383-1.3,1.26v20.188c0,7.005.145,7.157.042,10.951-.051,1.865-.884,2.5-4.545,3.426a3.169,3.169,0,0,0-1.474-1.878,6.305,6.305,0,0,0-2.229-.547c-1.466-.2-2.272-.332-2.4-.327v-.63c3.407.077,4.27.109,6.858.041.627-.016.757-.152.757-.614V590C270.346,590.133,268.444,590.2,264.642,590.358Zm9.509-10.679c-3.8.131-5.706.2-9.509.355v4.114c3.8-.155,5.7-.226,9.509-.357Zm0,5.078c-3.8.13-5.706.2-9.509.355v4.281c3.8-.153,5.7-.225,9.509-.355Z" transform="translate(-126.277 -576.78)" fill="#0c2775"/>
        <path id="パス_3819_-_アウトライン" data-name="パス 3819 - アウトライン" d="M275.374,576.111l.369.26c1.14.8,1.471,1.04,2.531,1.81l.029.023c.357.3.64.54.64.954a.974.974,0,0,1-.353.761,11.565,11.565,0,0,1-.952.75v19.937c0,3.209.031,5.006.054,6.318.028,1.61.044,2.582-.011,4.646a2.894,2.894,0,0,1-1.117,2.45,10.853,10.853,0,0,1-3.8,1.447l-.432.109-.158-.417a2.686,2.686,0,0,0-1.272-1.631,6.614,6.614,0,0,0-2.032-.475c-.6-.082-1.084-.152-1.471-.207-.408-.059-.762-.11-.85-.115l-.508.02V611.09l1.383.031c1.587.036,2.546.058,3.543.058.71,0,1.433-.011,2.419-.037a1.838,1.838,0,0,0,.267-.022c0-.023,0-.053,0-.093V590.519c-3.266.114-5.143.183-8.509.319v.653l-.007.041c-.16.958-.977,1.067-2.029,1.111-.171.007-.312.011-.432.011a1.35,1.35,0,0,1-1.031-.288.977.977,0,0,1-.235-.728c.017-1.08.041-1.93.064-2.752.033-1.164.061-2.169.061-3.54,0-6,0-6.359-.124-7.972l-.069-.9.8.413c1.335.692,1.783.944,2.933,1.659,3.259-.131,5.008-.2,8.426-.315.3-.338.513-.58.724-.815.254-.284.495-.552.857-.969Zm2.3,2.868c-.921-.669-1.288-.932-2.137-1.532-.215.244-.388.438-.569.639-.241.269-.49.547-.859.969l-.111.127.137,0,.517-.018v31.867c0,.953-.629,1.1-1.244,1.114-.995.026-1.726.037-2.445.037-.412,0-.816,0-1.258-.01a4.726,4.726,0,0,1,1.725.514,3.448,3.448,0,0,1,1.5,1.708c3.385-.894,3.711-1.484,3.748-2.847.055-2.043.039-3.006.011-4.6-.023-1.316-.054-3.118-.054-6.336V580.167l.279-.208c.485-.361.854-.637.991-.771C277.842,579.124,277.738,579.035,277.672,578.98Zm-12.923.549-.077-.048c-.958-.6-1.408-.865-2.2-1.288.065,1.13.065,2.33.065,7.153,0,1.385-.03,2.446-.062,3.568-.023.816-.047,1.659-.064,2.729.057.006.142.01.266.01.105,0,.233,0,.39-.01a3.608,3.608,0,0,0,.992-.133c.052-.023.07-.031.086-.107v-11.85l.48-.019Zm8.9,3.778V580.2c-3.246.112-5.122.181-8.509.318v3.113C268.481,583.491,270.333,583.422,273.65,583.307Zm0,5.247v-3.281c-3.4.117-5.272.188-8.509.318v3.281C268.539,588.736,270.391,588.666,273.65,588.554Zm-18.34-11.669.386.3c.994.783,1.284,1.017,2.236,1.792a1.266,1.266,0,0,1,.562.917c0,.488-.41.865-1.22,1.381v4.3c0,.88.039,1.676.077,2.446a36.416,36.416,0,0,1,.047,3.7,1.077,1.077,0,0,1-.514.974,7.048,7.048,0,0,1-2.215.327l-.136,0a.988.988,0,0,1-.96-.757l-.033-.086v-.829c-3.016.144-4.78.232-7.958.4v15.515c0,2.3.033,3.685.058,4.693a32.772,32.772,0,0,1-.059,3.736,1.058,1.058,0,0,1-.721.951,10.955,10.955,0,0,1-2.189.318c-.047,0-.089,0-.128,0a.854.854,0,0,1-.943-.831l-.005-.04v-.04c.119-3.336.169-9.546.169-20.765,0-10.6-.039-14.574-.169-17l-.049-.919.8.459.961.551c.594.34,1.069.611,1.9,1.1,3.243-.173,4.934-.258,8.259-.417l.42-.482c.387-.443.643-.735,1.114-1.313Zm2.145,3.012a1.459,1.459,0,0,0-.154-.14c-.812-.661-1.14-.927-1.839-1.479-.306.368-.534.629-.824.96-.158.181-.336.384-.557.64l-.108.125.043,0,.524-.025v12.01l.016.034h.113a7.887,7.887,0,0,0,1.716-.2.951.951,0,0,0,.014-.142,35.111,35.111,0,0,0-.047-3.6c-.039-.782-.079-1.591-.079-2.5v-4.854l.238-.146A4.934,4.934,0,0,0,257.455,579.9Zm-12.553.563-.074-.044c-.906-.535-1.373-.8-2.018-1.171l-.174-.1c.1,2.54.129,6.743.129,16.144,0,11.093-.049,17.3-.165,20.675h.017a11.854,11.854,0,0,0,1.847-.238.682.682,0,0,0,.114-.059.391.391,0,0,0,.006-.047,31.605,31.605,0,0,0,.057-3.639c-.025-1.014-.058-2.4-.058-4.717V580.478Zm8.638,3.675v-3.111c-3.122.148-4.889.238-7.958.4v3.11C248.614,584.376,250.357,584.288,253.541,584.136Zm0,5.247V586.1c-3.154.15-4.917.24-7.958.4v3.28C248.648,589.621,250.418,589.531,253.541,589.383Zm12.576,3.777.345.266c.9.7,1.2.935,2.068,1.688.358.264.651.52.651.96,0,.542-.383.8-1.387,1.356v4.323c0,2.868.042,4.484.125,7.7v.082l0,.028a1.023,1.023,0,0,1-.684,1.009,8.382,8.382,0,0,1-1.982.277l-.11,0a.876.876,0,0,1-.991-.786l-.005-.035v-.982c-3.863.158-5.931.249-9.6.423v2.165l-.007.041a.923.923,0,0,1-.7.827,10.429,10.429,0,0,1-1.871.322l-.09,0a.885.885,0,0,1-.978-.861,42.263,42.263,0,0,1,.016-5.254c.035-.7.068-1.355.068-1.961,0-5.111-.046-8.908-.126-10.417l-.045-.854.766.379c1.355.67,1.782.9,3.051,1.6,3.8-.179,5.728-.264,9.523-.419l.353-.327c.46-.425.737-.682,1.31-1.247Zm2,2.9c-.042-.036-.1-.087-.2-.156l-.031-.025c-.744-.642-1.06-.905-1.7-1.4-.39.379-.645.615-1.021.963l-.486.451-.1.09h.031l.52-.021v13.889l.066,0a8.442,8.442,0,0,0,1.638-.2l.051-.023c.006-.027.013-.072.022-.147v-.006c-.083-3.224-.125-4.844-.125-7.723v-4.911l.257-.143C267.361,596.526,267.9,596.228,268.121,596.064Zm-13.795.373-.185-.1c-.984-.537-1.457-.794-2.259-1.2.06,1.859.093,5.2.093,9.618,0,.631-.034,1.3-.069,2.011a41.628,41.628,0,0,0-.021,5.065h.027a10.274,10.274,0,0,0,1.58-.264l.05-.019V596.475l.476-.023Zm9.816,4.266v-3.7c-3.855.156-5.947.25-9.6.422v3.7C258.219,600.952,260.288,600.861,264.142,600.7Zm0,6.381v-4.412c-3.832.156-5.9.248-9.6.424v4.412C258.231,607.332,260.3,607.241,264.142,607.084Z" transform="translate(-126.277 -576.78)" fill="#0e2473"/>
        <path id="パス_3820" data-name="パス 3820" d="M287.6,593.083a11.571,11.571,0,0,1,4.716,1.129,7,7,0,0,1,3.788,6.476c0,5.162-4.167,8.621-10.44,8.7-5.472.07-9.554-2.451-9.554-5.932,0-1.344.757-1.987,2.4-2.016,1.221-.021,1.7.407,1.768,1.563.112,2.024.293,2.858,1.052,3.761a5.223,5.223,0,0,0,4.167,1.494c4.167-.054,6.61-2.842,6.61-7.584,0-2.939-1.011-5.114-2.82-6.06a10.96,10.96,0,0,0-4.884-.948l-1.852.026v-1.342l1.852-.026a8.689,8.689,0,0,0,4.589-1.316,6.171,6.171,0,0,0,2.4-5.354,7.991,7.991,0,0,0-1.052-4.187c-.883-1.417-2.273-2.075-4.377-2.049-3.158.041-4.775,1.718-4.968,5.065-.091,1.588-.463,2.019-1.936,2.045-1.557.026-2.231-.422-2.231-1.553,0-3.57,4.167-6.628,9.176-6.692,5.346-.067,9.263,3.018,9.263,7.258a6.688,6.688,0,0,1-3.454,5.732,14.342,14.342,0,0,1-4.209,1.43Z" transform="translate(-104.903 -575.833)" fill="#0c2775"/>
        <path id="パス_3820_-_アウトライン" data-name="パス 3820 - アウトライン" d="M286.169,577.786a10.939,10.939,0,0,1,6.83,2.166,7.068,7.068,0,0,1,2.762,5.594,6.8,6.8,0,0,1-.994,3.527,7.848,7.848,0,0,1-2.7,2.635l-.017.01a12.382,12.382,0,0,1-2.627,1.062,10.549,10.549,0,0,1,3.115.984l.01,0a7.5,7.5,0,0,1,4.058,6.921,8.366,8.366,0,0,1-3.048,6.641,12.4,12.4,0,0,1-7.886,2.562h-.228a13.157,13.157,0,0,1-6.944-1.757,5.569,5.569,0,0,1-2.889-4.677,2.334,2.334,0,0,1,.762-1.883,3.3,3.3,0,0,1,2.128-.633h.094a2.215,2.215,0,0,1,1.593.493,2.148,2.148,0,0,1,.589,1.543c.112,2.026.3,2.706.936,3.468a4.761,4.761,0,0,0,3.778,1.315c3.887-.05,6.116-2.632,6.116-7.084,0-2.759-.905-4.753-2.549-5.615a10.368,10.368,0,0,0-4.462-.894h-.187l-.32,0-1.531.022-.508.008v-2.342l.492-.007,1.853-.026a8.23,8.23,0,0,0,4.316-1.231,5.682,5.682,0,0,0,2.178-4.94,7.536,7.536,0,0,0-.976-3.923,4.077,4.077,0,0,0-3.834-1.814h-.112c-2.874.037-4.3,1.5-4.475,4.594-.108,1.874-.7,2.486-2.427,2.516h-.135c-.644,0-2.6,0-2.6-2.054a6.361,6.361,0,0,1,2.915-5.064,11.761,11.761,0,0,1,6.755-2.127Zm5.391,13.057a6.148,6.148,0,0,0,3.2-5.3c0-3.959-3.695-6.823-8.756-6.758-4.706.06-8.683,2.9-8.683,6.192,0,.577.121,1.054,1.6,1.054h.118c.612-.011.96-.1,1.129-.278a2.217,2.217,0,0,0,.316-1.3c.21-3.63,2.047-5.492,5.461-5.536h.125a5.05,5.05,0,0,1,4.683,2.285,8.538,8.538,0,0,1,1.128,4.451,6.64,6.64,0,0,1-2.619,5.769,7.369,7.369,0,0,1-1.292.686A13.046,13.046,0,0,0,291.559,590.843ZM287.1,593.4v-.973a10.024,10.024,0,0,1-2.692.4l-1.358.019v.342l1.025-.014.32,0A13.689,13.689,0,0,1,287.1,593.4Zm4.991,1.262a10.576,10.576,0,0,0-4.028-1.038,8.156,8.156,0,0,1,1.447.55l.007,0a5.219,5.219,0,0,1,2.31,2.515,9.429,9.429,0,0,1,.778,3.988c0,5-2.655,8.026-7.1,8.084h-.12a5.644,5.644,0,0,1-4.437-1.673c-.857-1.021-1.051-1.95-1.168-4.055-.049-.867-.292-1.092-1.184-1.092h-.076c-1.583.028-1.908.626-1.908,1.516a4.609,4.609,0,0,0,2.424,3.833,12.158,12.158,0,0,0,6.409,1.6h.215c6.042-.078,9.946-3.3,9.946-8.2A6.526,6.526,0,0,0,292.088,594.659Z" transform="translate(-104.903 -575.833)" fill="#0e2473"/>
        <path id="パス_3821" data-name="パス 3821" d="M305.156,589.738a9.569,9.569,0,0,1,6.82,2.666,10.076,10.076,0,0,1,2.441,6.787c0,6.045-4.125,10.18-10.145,10.139-6.693-.045-10.272-4.945-10.272-14.092,0-6.086,1.348-11.124,3.706-13.847a9.138,9.138,0,0,1,7.367-3.153c4.335.031,8.167,2.347,8.167,4.949,0,1.091-.884,1.708-2.443,1.692-1.3-.015-1.725-.4-1.852-1.571-.293-2.731-1.516-4-3.873-4.022-2.947-.021-5.011,1.946-6.147,5.719a32.128,32.128,0,0,0-.967,8.014A8.963,8.963,0,0,1,305.156,589.738Zm-5.641,15.413a5.455,5.455,0,0,0,4.841,3.13,5.394,5.394,0,0,0,4.714-2.729,13.454,13.454,0,0,0,1.348-6.323c0-5.122-2.273-8.339-5.895-8.364a6.487,6.487,0,0,0-4.462,1.824,7.115,7.115,0,0,0-2.146,5.617A14.435,14.435,0,0,0,299.514,605.152Z" transform="translate(-93.659 -575.864)" fill="#0c2775"/>
        <path id="パス_3821_-_アウトライン" data-name="パス 3821 - アウトライン" d="M304.974,577.738h.1a11.994,11.994,0,0,1,5.964,1.583c1.715,1.038,2.7,2.448,2.7,3.866,0,1.373-1.078,2.192-2.883,2.192h-.065a2.513,2.513,0,0,1-1.688-.472,2.285,2.285,0,0,1-.655-1.546c-.267-2.491-1.278-3.56-3.379-3.576h-.043c-2.657,0-4.548,1.8-5.62,5.358a30.5,30.5,0,0,0-.925,6.655,9.145,9.145,0,0,1,6.582-2.56h.1a10.048,10.048,0,0,1,7.181,2.823,10.586,10.586,0,0,1,2.577,7.13,11.889,11.889,0,0,1-.765,4.3,9.591,9.591,0,0,1-5.518,5.564,11.634,11.634,0,0,1-4.274.773h-.092a9.467,9.467,0,0,1-8.047-3.839c-1.806-2.477-2.722-6.095-2.722-10.754,0-6.2,1.4-11.365,3.828-14.174a9.37,9.37,0,0,1,3.365-2.5A10.715,10.715,0,0,1,304.974,577.738Zm5.883,6.642c.859,0,1.883-.207,1.883-1.192,0-2.3-3.656-4.42-7.67-4.449h-.1a8.59,8.59,0,0,0-6.891,2.981c-2.278,2.63-3.584,7.558-3.584,13.519,0,4.443.851,7.863,2.53,10.165a8.517,8.517,0,0,0,7.245,3.428h.085c5.716,0,9.557-3.874,9.557-9.639a9.568,9.568,0,0,0-2.305-6.445,9.038,9.038,0,0,0-6.459-2.509,8.468,8.468,0,0,0-6.829,3.121l-.866.927v-1.269a32.693,32.693,0,0,1,.985-8.147l0-.011a10.043,10.043,0,0,1,2.514-4.487,5.737,5.737,0,0,1,4.065-1.589h.05c2.617.02,4.046,1.482,4.366,4.469.1.887.266,1.112,1.36,1.125Zm-6.373,5.986h.044a5.613,5.613,0,0,1,4.711,2.482,11.07,11.07,0,0,1,1.681,6.381,13.921,13.921,0,0,1-1.409,6.562,5.864,5.864,0,0,1-5.12,2.991h-.038a5.614,5.614,0,0,1-3.069-.911,6.6,6.6,0,0,1-2.21-2.484,14.9,14.9,0,0,1-1.658-7.081,7.629,7.629,0,0,1,2.3-5.974A6.981,6.981,0,0,1,304.484,590.365Zm-.093,17.417a4.918,4.918,0,0,0,4.24-2.468,12.938,12.938,0,0,0,1.288-6.085c0-4.828-2.069-7.841-5.4-7.864h-.036a5.959,5.959,0,0,0-4.072,1.681,6.634,6.634,0,0,0-2,5.259,13.91,13.91,0,0,0,1.54,6.611,4.951,4.951,0,0,0,4.4,2.865Z" transform="translate(-93.659 -575.864)" fill="#0e2473"/>
        <path id="パス_3822" data-name="パス 3822" d="M314.986,593.124a9.42,9.42,0,0,1,7.448-2.847c5.6.147,9.259,4,9.259,9.671,0,5.916-4.165,9.593-10.689,9.431-4.924-.124-9.009-2.676-9.009-5.613,0-1.218.757-1.834,2.273-1.8,1.347.029,1.716.386,1.809,1.76.189,2.756,2.106,4.452,5.052,4.526,4,.1,6.649-3.135,6.649-8.128a11.45,11.45,0,0,0-1.514-6.047,5.725,5.725,0,0,0-4.755-2.519,7.815,7.815,0,0,0-7.113,4.7l-1.306-.2c.557-6.9.834-10.357,1.391-17.262,6.364.132,9.546.215,15.908.414-.236,1.3-.353,1.952-.59,3.254-5.573-.171-8.359-.244-13.931-.365C315.515,586.512,315.339,588.717,314.986,593.124Z" transform="translate(-82.348 -575.509)" fill="#0c2775"/>
        <path id="パス_3822_-_アウトライン" data-name="パス 3822 - アウトライン" d="M314.021,578.293l.471.01c6.367.132,9.491.213,15.914.414l.58.018-.1.571-.276,1.526c-.095.523-.187,1.033-.313,1.728l-.077.424-.43-.013c-5.474-.168-8.209-.24-13.455-.354-.16,2-.284,3.543-.408,5.095l-.338,4.226a9.708,9.708,0,0,1,6.452-2.165c.134,0,.273,0,.412.005a9.879,9.879,0,0,1,7.078,2.919,10.244,10.244,0,0,1,2.669,7.252,9.529,9.529,0,0,1-2.943,7.258,11.339,11.339,0,0,1-7.833,2.678c-.14,0-.283,0-.425-.005-5.236-.132-9.5-2.874-9.5-6.113,0-.86.346-2.3,2.665-2.3h.118c1.608.035,2.188.6,2.3,2.226.17,2.475,1.876,3.992,4.565,4.06l.169,0c3.625,0,5.968-2.995,5.968-7.63a11.022,11.022,0,0,0-1.438-5.78,5.2,5.2,0,0,0-4.344-2.286l-.159,0a7.323,7.323,0,0,0-6.488,4.417l-.157.34-.612-.092-1.065-.159-.462-.069.038-.466c.283-3.511.494-6.129.706-8.763.2-2.545.411-5.105.685-8.5Zm15.773,1.405c-5.878-.183-8.992-.263-14.852-.386-.255,3.163-.451,5.6-.647,8.029-.2,2.516-.4,5.018-.668,8.3l.482.072a8.259,8.259,0,0,1,7.414-4.656,6.19,6.19,0,0,1,5.166,2.753,12.021,12.021,0,0,1,1.591,6.313,9.863,9.863,0,0,1-1.882,6.221,6.286,6.286,0,0,1-5.086,2.409l-.194,0c-3.21-.08-5.332-1.993-5.538-4.991a1.713,1.713,0,0,0-.284-1.06,1.614,1.614,0,0,0-1.037-.234h-.1c-1.467,0-1.665.659-1.665,1.3,0,1.243.86,2.463,2.422,3.437a12.266,12.266,0,0,0,6.1,1.676c.134,0,.268.005.4.005,6.03,0,9.776-3.424,9.776-8.936,0-5.432-3.443-9.032-8.772-9.172-.13,0-.26-.005-.386-.005a8.843,8.843,0,0,0-6.7,2.713l-.949.908.1-1.309c.175-2.179.306-3.819.437-5.453.134-1.672.267-3.337.446-5.565l.038-.47.472.01c5.419.117,8.154.188,13.505.352l.236-1.3Z" transform="translate(-82.348 -575.509)" fill="#0e2473"/>
        <path id="パス_3823" data-name="パス 3823" d="M340.308,585.246c0-3.105-.042-4.157-.127-6.931,1.472.911,1.935,1.228,3.364,2.267,7.05.361,10.572.563,17.618,1.006.757-.791.966-1.031,1.723-1.78,1.177.873,1.555,1.15,2.69,2.063.337.273.463.45.463.576,0,.251-.378.563-1.428,1.081-.018,5.32-.026,7.981-.042,13.3,0,3.233.083,9.03.293,17.4v.127a.471.471,0,0,1-.335.44,9.668,9.668,0,0,1-2.27.146c-.588-.038-.713-.086-.713-.339v-2.938c-7.3-.461-10.948-.669-18.25-1.044v2.855a.43.43,0,0,1-.125.371,6.142,6.142,0,0,1-2.524.251c-.463-.023-.59-.155-.63-.577.168-3.769.168-4.358.21-13.295C340.256,594.232,340.274,591.237,340.308,585.246Zm21.235-2.669c-7.3-.461-10.948-.669-18.25-1.042v13.177c7.3.373,10.951.581,18.25,1.042Zm-18.25,13.1v13.976c7.3.374,10.951.583,18.25,1.044V596.721C354.244,596.261,350.595,596.052,343.293,595.678Z" transform="translate(-64.741 -575.815)" fill="#0c2775"/>
        <path id="パス_3823_-_アウトライン" data-name="パス 3823 - アウトライン" d="M339.653,577.4l.791.489c1.464.906,1.961,1.247,3.275,2.2,6.863.352,10.323.55,17.244.984l.373-.392c.391-.413.65-.686,1.2-1.229l.3-.3.494.366c1.065.789,1.463,1.085,2.557,1.965a1.376,1.376,0,0,1,.649.966c0,.528-.5.912-1.429,1.39-.017,5.117-.025,7.777-.041,12.992,0,2.133.038,7.231.293,17.381v.139a.971.971,0,0,1-.655.906,8.735,8.735,0,0,1-2.008.192c-.175,0-.334,0-.474-.013-.471-.03-1.182-.076-1.182-.838V612.13c-6.825-.43-10.4-.635-17.25-.987v2.328a.918.918,0,0,1-.283.735l-.035.03a4.918,4.918,0,0,1-2.261.371c-.2,0-.4,0-.6-.014a1.01,1.01,0,0,1-1.1-1.028l0-.035,0-.035c.164-3.69.167-4.377.207-12.793l0-.482c.024-4.432.04-7.224.061-10.8l.024-4.175c0-2.8-.035-3.928-.1-6.171Zm3.666,3.635-.067-.049c-1.119-.813-1.626-1.172-2.542-1.752.066,2.127.1,3.273.1,6.011l-.024,4.178c-.021,3.578-.037,6.37-.061,10.8l0,.482c-.04,8.406-.043,9.118-.207,12.795,0,.034.008.06.012.078a1.145,1.145,0,0,0,.142.014c.178.009.361.013.546.013a6.879,6.879,0,0,0,1.579-.142V581.008Zm22.154,1.412a2.64,2.64,0,0,0-.21-.187c-1.007-.81-1.417-1.119-2.327-1.794-.346.348-.569.583-.873.9-.151.16-.322.34-.536.564l-.127.133.176.011.469.03v32.311c.06.006.139.013.245.02s.256.011.411.011a9.332,9.332,0,0,0,1.653-.127l.011,0v-.087c-.189-7.528-.293-13.708-.293-17.4.016-5.32.024-7.981.042-13.3v-.31l.278-.137A5.631,5.631,0,0,0,365.472,582.447Zm-4.429.6c-6.836-.431-10.413-.635-17.25-.985v12.176c6.843.35,10.421.555,17.25.985Zm0,14.145c-6.84-.431-10.417-.635-17.25-.987v12.974c6.864.353,10.443.557,17.25.986Z" transform="translate(-64.741 -575.815)" fill="#0e2473"/>
        <path id="パス_3824" data-name="パス 3824" d="M380.308,589.286c-.672,5.188-1.386,7.9-3.107,11.531,3.737,4.552,4.786,6.2,4.786,7.626,0,1.8-.63,3.26-1.428,3.192-.42-.036-.629-.347-1.049-1.516a42.888,42.888,0,0,0-3.527-7.053,34.915,34.915,0,0,1-11.046,11.63l-.42-.451a38.133,38.133,0,0,0,7.266-8.836,49.106,49.106,0,0,0,2.646-4.822c-2.1-3.236-4.074-5.954-6.721-9.39l.462-.3a80.062,80.062,0,0,1,7.139,7.623,34.24,34.24,0,0,0,1.511-5.457c.085-.581.295-1.907.547-4.026-3.695-.31-5.543-.459-9.24-.746a25.641,25.641,0,0,0-3.234,0l-.335-1.659a31.288,31.288,0,0,0,3.529.689c1.915.15,2.873.225,4.788.38v-5.037a23.859,23.859,0,0,0-.168-3.036c4.158.754,4.911.992,4.911,1.5,0,.293,0,.293-1.931.93v5.877c1.7.14,2.545.212,4.242.357,1.006-1.132,1.3-1.485,2.182-2.541,1.554,1.309,2.014,1.77,3.442,3.156a1.863,1.863,0,0,1,.293.531c0,.166-.208.316-.461.293C383.355,589.548,382.339,589.46,380.308,589.286Zm4.113,5.857a39.259,39.259,0,0,1,5.162,6.3c1.055,1.622,1.3,2.22,1.3,2.974,0,1.594-.966,3.06-1.931,2.97-.293-.026-.545-.428-.713-1.2a40.409,40.409,0,0,0-4.281-10.792C384.145,595.293,384.238,595.245,384.422,595.144Zm9.359-9.554a42.119,42.119,0,0,0-.21-4.214c4.4.918,4.95,1.062,4.95,1.524,0,.378-.293.557-1.887,1.032v8.142l1.259.122c.839-1.179,1.132-1.568,1.97-2.745a42.538,42.538,0,0,1,3.146,3.462,1.4,1.4,0,0,1,.21.44c0,.17-.168.321-.42.295-2.465-.247-3.7-.368-6.165-.607v12.506c.016,3.846.024,5.768.042,9.615-.042,1.34-.311,1.855-1.176,2.322a10.427,10.427,0,0,1-3.776,1.07c-.293-1.371-.57-1.807-1.259-2.259-.917-.6-2.223-1.044-5.372-1.62V614c5.037.7,5.1.733,7.847,1.011.668.068.84-.088.84-.8V592.768c-2.651-.251-3.978-.373-6.629-.612a13.428,13.428,0,0,0-2.814,0L384,590.4a14.983,14.983,0,0,0,3.275.795c2.6.234,3.9.355,6.5.6Z" transform="translate(-49.341 -574.988)" fill="#0c2775"/>
        <path id="パス_3824_-_アウトライン" data-name="パス 3824 - アウトライン" d="M372.143,579.02l.654.119a41.207,41.207,0,0,1,4.072.855c.437.134,1.25.383,1.25,1.132a.775.775,0,0,1-.525.787,14.139,14.139,0,0,1-1.407.5v5.055c1.308.108,2.136.178,3.535.3.864-.974,1.171-1.342,1.988-2.32l.339-.407.384.324c1.468,1.238,1.978,1.732,3.208,2.926l.295.286.027.039c.384.548.384.717.384.818a.859.859,0,0,1-.91.8c-.032,0-.064,0-.1,0l-.395-.035a13.471,13.471,0,0,0,2.373.51c2.48.223,3.774.343,5.96.549v-5.662c0-1.388-.049-2.362-.208-4.17l-.059-.671.659.137c2.386.5,3.493.739,4.17.944.6.181,1.178.412,1.178,1.07,0,.74-.614,1.014-1.887,1.4v7.317l.519.05c.343-.481.6-.832.843-1.173.272-.377.553-.766.96-1.337l.345-.484.418.423a42.8,42.8,0,0,1,3.175,3.493l.029.035.067.117a1.228,1.228,0,0,1,.231.608.824.824,0,0,1-.864.8,1.049,1.049,0,0,1-.108-.006c-2.269-.228-3.5-.349-5.614-.554v11.956c.016,3.844.024,5.766.042,9.612v.018c-.048,1.516-.4,2.184-1.438,2.746a10.861,10.861,0,0,1-3.945,1.125l-.461.064-.1-.455c-.285-1.334-.525-1.605-1.044-1.945-.786-.512-1.928-.95-5.188-1.547l-.41-.075v-1.662l.569.079,2.324.325c2.834.4,3.27.458,5.5.684a.21.21,0,0,0,.29-.3v-20.99c-2.32-.219-3.623-.339-6.174-.569-.48-.043-.889-.072-1.325-.072-.382,0-.8.022-1.4.072l-.448.038-.5-2.634-2.684-.232a33.4,33.4,0,0,1-2.954,10.919c3.726,4.552,4.7,6.156,4.7,7.7,0,1.836-.644,3.694-1.874,3.694-.032,0-.065,0-.1,0-.783-.067-1.08-.742-1.477-1.845a41.5,41.5,0,0,0-3.057-6.257,35.251,35.251,0,0,1-10.766,11.08l-.354.239-1.063-1.14.387-.34a37.476,37.476,0,0,0,7.173-8.727,47.817,47.817,0,0,0,2.5-4.521c-1.9-2.917-3.755-5.5-6.543-9.119l-.33-.429,1.243-.81.286.267a77.463,77.463,0,0,1,6.613,7,32.574,32.574,0,0,0,1.2-4.552q.02-.135.048-.321c.09-.6.248-1.663.434-3.167-3.446-.288-5.255-.434-8.72-.7a25.363,25.363,0,0,0-3.176,0l-.425.016-.576-2.85.767.19a30.977,30.977,0,0,0,3.447.675l.4.031c1.5.118,2.4.189,3.848.3v-4.495a23.286,23.286,0,0,0-.165-2.985Zm4.834,2.07a25.259,25.259,0,0,0-3.706-.848,22.365,22.365,0,0,1,.1,2.425V588.2l1.812.149v-6.659l.344-.113C376.19,581.364,376.693,581.2,376.977,581.09Zm20.982,1.84a30.092,30.092,0,0,0-3.833-.928c.117,1.434.155,2.349.155,3.588v28.623c0,.36,0,1.316-1.091,1.316a2.944,2.944,0,0,1-.3-.017c-1.774-.18-2.423-.256-4.01-.475a7.553,7.553,0,0,1,1.859.839,3.022,3.022,0,0,1,1.369,2.116,9.21,9.21,0,0,0,3.156-.948c.66-.357.874-.665.913-1.889-.018-3.841-.026-5.762-.042-9.606V583.559l.357-.107A9.972,9.972,0,0,0,397.959,582.929Zm-12.812,6.276-.2-.2c-1.1-1.066-1.613-1.566-2.772-2.554-.655.784-.991,1.178-1.869,2.166l-.134.151.181.016C382.316,588.956,383.339,589.045,385.147,589.206Zm-17.64-1.451c-.625-.1-1.5-.272-2.3-.454l.1.478c.69-.024,1.191-.035,1.592-.035C367.113,587.745,367.312,587.748,367.507,587.755Zm12.362,1.032-1.947-.165-.057.475c-.213,1.793-.4,3.04-.5,3.711q-.029.192-.049.328l0,.022a34.592,34.592,0,0,1-1.532,5.532l-.292.814-.56-.658c-2.086-2.453-3.522-4.057-5-5.549,1.92,2.562,3.394,4.673,4.918,7.021l.154.238-.125.254a49.616,49.616,0,0,1-2.67,4.866l0,.005a43.368,43.368,0,0,1-5.307,6.987,33.909,33.909,0,0,0,8.655-9.855l.421-.709.434.7a43.58,43.58,0,0,1,3.573,7.147,5.265,5.265,0,0,0,.466,1.069c.077.112.1.114.155.118h.011c.119,0,.331-.2.517-.632a5.508,5.508,0,0,0,.357-2.062c0-1.256-1.048-2.895-4.672-7.309l-.2-.245.136-.286c1.675-3.536,2.391-6.2,3.063-11.381Zm22.66,4.331c-1.08-1.293-1.533-1.8-2.6-2.892-.236.33-.429.6-.618.858-.3.411-.577.8-1.006,1.4l-.142.2C399.659,592.832,400.794,592.944,402.529,593.117Zm-15.955-1.509a16.85,16.85,0,0,1-1.921-.461l.091.475c.406-.028.73-.041,1.037-.041C386.051,591.582,386.308,591.591,386.574,591.608Zm-2.058,2.913.265.275A39.907,39.907,0,0,1,390,601.168c1.1,1.688,1.382,2.355,1.382,3.246a4.505,4.505,0,0,1-.649,2.333,2.117,2.117,0,0,1-1.7,1.141c-.043,0-.087,0-.13-.006-.825-.073-1.074-1.215-1.156-1.59a40.11,40.11,0,0,0-4.23-10.657l-.243-.441.442-.24.2-.106.265-.144Zm4.522,12.367c.594,0,1.347-1.165,1.347-2.474,0-.609-.184-1.109-1.22-2.7a35.343,35.343,0,0,0-3.926-4.98,39.239,39.239,0,0,1,3.49,9.342,1.814,1.814,0,0,0,.31.813Z" transform="translate(-49.341 -574.988)" fill="#0e2473"/>
        <path id="パス_3825" data-name="パス 3825" d="M424.362,590.7c1.088-1.417,1.422-1.835,2.469-3.044,1.925,1.716,2.509,2.254,4.309,4.125a1.1,1.1,0,0,1,.251.454c0,.208-.251.3-.627.252-12.551-1.64-18.831-2.4-31.4-3.776.042,1.181.042,2.019.042,2.648,0,4.911-.2,9.391-.545,12.7A24.448,24.448,0,0,1,395,615.185a17.989,17.989,0,0,1-2.514,3.175l-.461-.344a25.923,25.923,0,0,0,3.438-8.909c.692-3.353.922-7.415.922-16.565a62.6,62.6,0,0,0-.252-7.37c1.637,1.1,2.138,1.449,3.648,2.622,4.525.5,6.787.756,11.311,1.287v-3.736a19.748,19.748,0,0,0-.21-2.96c3.812.783,5.026,1.228,5.026,1.733,0,.292-.461.487-1.716.715v4.617C418.258,589.936,420.294,590.187,424.362,590.7Zm-20.225,9.539c.083,1.438.083,2.024.083,3.074,0,3.944-.293,6.3-1.089,8.437q-.564,1.448-1.383,1.356c-.5-.055-.878-.4-1.3-1.107a4.327,4.327,0,0,1-.713-1.927c0-.42.125-.573.8-1.338,1.508-1.681,2.472-4.594,2.807-8.585Zm4.105-.914a28.6,28.6,0,0,0-.253-4.437c4.065.889,4.944,1.208,4.944,1.755,0,.376-.461.531-1.8.751v18.761c0,.586.083.891.334,1.045a10.9,10.9,0,0,0,3.351.736c.293.034.767.108,1.466.176.94.093,1.842.181,2.6.274,1.088.133,1.439,0,1.674-.549a17.548,17.548,0,0,0,.795-2.754c.6-2.382,1.089-4.1,1.34-5.2l.418.052V616.9c.041,1.182.041,1.182.209,1.371.085.094.09.1.879.361a1.442,1.442,0,0,1,1.13,1.192,1.267,1.267,0,0,1-1.13,1.2c-.834.189-3.641,0-7.953-.523-3.978-.482-6.162-.9-6.994-1.334-.71-.373-1.047-1.081-1.088-2.394-.028-.892,0-1.594,0-2.1,0-.711,0-.711.083-4.312Zm4.732-6.958a30.667,30.667,0,0,1,6.364,4.545,3.167,3.167,0,0,1,1.089,2.275,4.269,4.269,0,0,1-.461,2.295,1.173,1.173,0,0,1-.795.448c-.378-.046-.5-.23-1.089-1.561a26.337,26.337,0,0,0-5.527-7.631Zm10.592,10.192c5.232,4.814,7.406,7.623,7.406,9.43,0,1.511-1.046,3.218-1.925,3.106-.208-.028-.371-.189-.544-.49a13.228,13.228,0,0,1-.878-2.8,35.866,35.866,0,0,0-4.519-8.842Z" transform="translate(-32.054 -573.258)" fill="#0c2775"/>
        <path id="パス_3825_-_アウトライン" data-name="パス 3825 - アウトライン" d="M410.3,581.755l.685.141a34.269,34.269,0,0,1,4.007.988c.7.245,1.418.583,1.418,1.234,0,.671-.719.927-1.716,1.129v3.759c3.7.443,5.687.688,9.451,1.164.952-1.238,1.306-1.678,2.313-2.839l.332-.383.378.338c1.875,1.672,2.5,2.239,4.336,4.152l.025.025.021.029a1.344,1.344,0,0,1,.345.747c0,.381-.291.765-.942.765a1.947,1.947,0,0,1-.25-.017c-12.423-1.623-18.588-2.367-30.822-3.712.024.9.024,1.571.024,2.088,0,4.85-.195,9.379-.548,12.754a24.889,24.889,0,0,1-3.93,11.336,18.525,18.525,0,0,1-2.573,3.251l-.305.326-1.186-.884.239-.389a25.41,25.41,0,0,0,3.374-8.749c.69-3.342.911-7.343.911-16.463a62.17,62.17,0,0,0-.25-7.324l-.1-1.049.875.587c1.628,1.093,2.144,1.454,3.564,2.555,4.267.47,6.485.722,10.616,1.206v-3.174a19.255,19.255,0,0,0-.206-2.9Zm4.944,2.318a5.248,5.248,0,0,0-.918-.355c-.652-.2-1.571-.427-2.861-.7a18.313,18.313,0,0,1,.13,2.329v4.242l2.1.247v-5.42l.411-.075A7.959,7.959,0,0,0,415.239,584.073Zm-15.718,4.156-.05-.039c-1.183-.919-1.736-1.325-2.75-2.015.13,1.592.161,2.808.161,6.368,0,9.2-.226,13.248-.932,16.666a27.008,27.008,0,0,1-2.5,7.314,16.1,16.1,0,0,0,1.129-1.6,23.947,23.947,0,0,0,3.781-10.907c.35-3.342.543-7.834.543-12.65,0-.615,0-1.458-.042-2.63l-.021-.578.575.063Zm31.1,3.739c-1.575-1.634-2.2-2.214-3.746-3.6-.8.932-1.168,1.4-2.118,2.637l-.141.183C426.473,591.427,428.452,591.684,430.623,591.967Zm-17.712-.209.31.176a31.038,31.038,0,0,1,6.465,4.62l.009.009a3.652,3.652,0,0,1,1.233,2.626,4.838,4.838,0,0,1-.581,2.619,1.72,1.72,0,0,1-1.139.625.794.794,0,0,1-.1-.006c-.705-.085-.934-.6-1.483-1.852a25.856,25.856,0,0,0-5.422-7.481l-.382-.376Zm6.076,5.511a27.25,27.25,0,0,0-4.91-3.674,25.857,25.857,0,0,1,4.46,6.565l0,.008a6.411,6.411,0,0,0,.642,1.258l.024,0a.986.986,0,0,0,.381-.273,3.963,3.963,0,0,0,.341-1.969A2.686,2.686,0,0,0,418.986,597.269ZM407.4,594.25l.694.152a37.721,37.721,0,0,1,4.057,1.023c.665.237,1.28.549,1.28,1.221,0,.775-.8,1-1.8,1.174v18.338c0,.534.08.61.1.62a10.719,10.719,0,0,0,3.149.666c.089.01.2.025.323.041.275.036.653.086,1.131.133l.173.017c.885.087,1.722.17,2.436.258a5.007,5.007,0,0,0,.593.044c.435,0,.477-.1.56-.293a17.016,17.016,0,0,0,.77-2.679c.28-1.113.532-2.068.755-2.91.252-.952.451-1.7.583-2.284l.1-.441,1.305.163v7.4c.019.541.031.908.055,1.016l.018.02c.105.045.441.155.67.229a1.922,1.922,0,0,1,1.475,1.667,1.756,1.756,0,0,1-1.519,1.689,5.409,5.409,0,0,1-1.116.084,67.883,67.883,0,0,1-7.008-.6c-4.117-.5-6.26-.914-7.166-1.387s-1.31-1.339-1.356-2.821c-.02-.637-.012-1.18-.005-1.617,0-.188.005-.351.005-.5,0-.717,0-.718.083-4.318v-11.03a28.118,28.118,0,0,0-.248-4.373Zm4.962,2.363a3.838,3.838,0,0,0-.916-.367c-.6-.184-1.479-.4-2.876-.715a29.815,29.815,0,0,1,.17,3.8v11.048c-.083,3.595-.083,3.595-.083,4.3,0,.155,0,.329-.005.513-.006.426-.014.957.005,1.571.043,1.372.42,1.756.821,1.966.76.4,2.992.816,6.822,1.28a68.145,68.145,0,0,0,6.888.591,4.447,4.447,0,0,0,.894-.059c.277-.063.741-.239.741-.714,0-.223-.275-.55-.785-.717-.79-.257-.912-.3-1.1-.5-.291-.327-.294-.43-.337-1.689v-4.688l-.022.083c-.222.839-.473,1.791-.752,2.9a17.962,17.962,0,0,1-.819,2.828,1.4,1.4,0,0,1-1.48.9,5.97,5.97,0,0,1-.715-.052c-.7-.086-1.533-.169-2.412-.255l-.172-.017c-.495-.048-.882-.1-1.165-.137l-.31-.04a11.8,11.8,0,0,1-3.556-.807,1.57,1.57,0,0,1-.571-1.471V596.971l.419-.069A7.544,7.544,0,0,0,412.364,596.612Zm-9.479,2.985,1.726.194.024.421c.084,1.452.084,2.039.084,3.1,0,4.037-.314,6.451-1.121,8.612l0,.007c-.434,1.115-1.024,1.68-1.753,1.68a1.376,1.376,0,0,1-.151-.008,2.342,2.342,0,0,1-1.673-1.349,4.728,4.728,0,0,1-.783-2.182c0-.618.232-.883.92-1.668l0,0c1.432-1.6,2.36-4.464,2.681-8.293Zm-.222,11.977c.76-2.038,1.057-4.355,1.057-8.259,0-.671,0-1.149-.022-1.781-.434,3.419-1.371,5.949-2.791,7.534-.67.765-.67.8-.67,1.007a3.883,3.883,0,0,0,.643,1.671c.426.718.7.841.923.866l.041,0C402.106,612.614,402.4,612.235,402.663,611.574Zm20.91-9.685.331.3c5.375,4.945,7.568,7.784,7.568,9.8,0,1.625-1.08,3.611-2.342,3.611a1.162,1.162,0,0,1-.147-.009,1.308,1.308,0,0,1-.914-.738l-.008-.014a13.285,13.285,0,0,1-.917-2.9,35.539,35.539,0,0,0-4.454-8.7l-.241-.364ZM429.13,614.6c.43,0,1.342-1.235,1.342-2.611a6.127,6.127,0,0,0-1.635-3.28,45.856,45.856,0,0,0-4.482-4.731,33.4,33.4,0,0,1,3.751,7.69,14.661,14.661,0,0,0,.825,2.677l.007.012a.741.741,0,0,0,.181.241Z" transform="translate(-32.054 -573.258)" fill="#0e2473"/>
      </g>
    </g>
  </g>
</svg>
