<svg xmlns="http://www.w3.org/2000/svg" width="59.834" height="67.139" viewBox="0 0 59.834 67.139">
  <path id="パス_3919" data-name="パス 3919" d="M29.053-22.119H7.52L8.5-25.244,45.947-65.723H49.17l-12.3,40.479h3.174a6.278,6.278,0,0,0,3.125-.537,10.932,10.932,0,0,0,2.393-3.125h2l-2.051,6.787H35.889L31.738-8.447a21.956,21.956,0,0,0-1.074,4.3A1.694,1.694,0,0,0,31.4-2.759q.732.562,4.15.562H37.4L36.768,0H15.723l.635-2.2h1.025q4.3,0,5.2-.757t2.466-5.884Zm.977-3.125,9.082-29.883L11.523-25.244ZM57.051-3.76a4.932,4.932,0,0,1,1.514-3.613,4.988,4.988,0,0,1,3.662-1.514A4.932,4.932,0,0,1,65.84-7.373,4.932,4.932,0,0,1,67.354-3.76,4.988,4.988,0,0,1,65.84-.1a4.932,4.932,0,0,1-3.613,1.514A4.926,4.926,0,0,1,58.54-.122,5.054,5.054,0,0,1,57.051-3.76Z" transform="translate(-7.52 65.723)" fill="#4a2500" opacity="0.739"/>
</svg>
