<svg xmlns="http://www.w3.org/2000/svg" width="64.424" height="69.238" viewBox="0 0 64.424 69.238">
  <path id="パス_3921" data-name="パス 3921" d="M37.842-5.713l-2.783,9.18H33.545V2.93q0-1.953-.879-2.441T27.441,0H2.93a7.623,7.623,0,0,1,.61-3.589A23.278,23.278,0,0,1,7.275-7.471Q30.322-28.564,35.767-37.134t5.444-15.5a10.739,10.739,0,0,0-2.905-7.544,9.965,9.965,0,0,0-7.69-3.149,11.571,11.571,0,0,0-7.739,2.71,8.27,8.27,0,0,0-3.2,6.519,7.888,7.888,0,0,0,2.783,6.445,1.179,1.179,0,0,1,.488.781q0,.586-2.026,2.173a6.038,6.038,0,0,1-3.052,1.587q-1.27,0-2.466-2.246a11.17,11.17,0,0,1-1.2-5.322q0-5.811,5-10.449t13.11-4.639q7.861,0,11.841,4a13.565,13.565,0,0,1,3.979,9.961A21.759,21.759,0,0,1,43.6-38.7Q39.063-32.52,26.074-21.338,16.748-13.33,8.5-5.713ZM57.051-3.76a4.932,4.932,0,0,1,1.514-3.613,4.988,4.988,0,0,1,3.662-1.514A4.932,4.932,0,0,1,65.84-7.373,4.932,4.932,0,0,1,67.354-3.76,4.988,4.988,0,0,1,65.84-.1a4.932,4.932,0,0,1-3.613,1.514A4.926,4.926,0,0,1,58.54-.122,5.054,5.054,0,0,1,57.051-3.76Z" transform="translate(-2.93 65.771)" fill="#4a2500" opacity="0.739"/>
</svg>
