<svg xmlns="http://www.w3.org/2000/svg" width="63.936" height="65.723" viewBox="0 0 63.936 65.723">
  <path id="パス_3920" data-name="パス 3920" d="M17.139-33.3h-2.2L25.928-64.209H51.66a24.385,24.385,0,0,1-2.319,4.395q-1,1.367-1.587,1.538a13.661,13.661,0,0,1-2.832.171H25.977l-6.543,18.8A15.382,15.382,0,0,1,29.98-43.7a13.1,13.1,0,0,1,9.668,4.492q4.3,4.492,4.3,12.3a31.211,31.211,0,0,1-2.979,12.549,26.7,26.7,0,0,1-9.644,11.3A25.1,25.1,0,0,1,16.846,1.514q-6.3,0-9.863-2.856T3.418-7.324a3.207,3.207,0,0,1,.806-2.124A2.811,2.811,0,0,1,6.494-10.4q3.027,0,4.834,4.639a10.588,10.588,0,0,0,2.539,4.053,6.05,6.05,0,0,0,4.1,1.172q3.906,0,8.545-4.077t7.764-11.938a39.33,39.33,0,0,0,3.125-14.4,12.808,12.808,0,0,0-2.124-7.617A7.015,7.015,0,0,0,29.2-41.553Q22.51-41.553,17.139-33.3ZM57.051-3.76a4.932,4.932,0,0,1,1.514-3.613,4.988,4.988,0,0,1,3.662-1.514A4.932,4.932,0,0,1,65.84-7.373,4.932,4.932,0,0,1,67.354-3.76,4.988,4.988,0,0,1,65.84-.1a4.932,4.932,0,0,1-3.613,1.514A4.926,4.926,0,0,1,58.54-.122,5.054,5.054,0,0,1,57.051-3.76Z" transform="translate(-3.418 64.209)" fill="#4a2500" opacity="0.739"/>
</svg>
