<svg xmlns="http://www.w3.org/2000/svg" width="60.322" height="67.139" viewBox="0 0 60.322 67.139">
  <path id="パス_3922" data-name="パス 3922" d="M39.453-65.723h2.734L24.8-8.5A22.438,22.438,0,0,0,23.73-4.248a1.554,1.554,0,0,0,1.025,1.611,12.573,12.573,0,0,0,3.857.391h3.369L31.3,0H7.031l.684-2.246h2.734q4.3,0,5.2-.757t2.466-5.884l12.4-40.82a28.658,28.658,0,0,0,1.318-5.322q0-3.076-6.2-3.32l-2.881-.1.635-2.1Q35.205-60.742,39.453-65.723ZM57.051-3.76a4.932,4.932,0,0,1,1.514-3.613,4.988,4.988,0,0,1,3.662-1.514A4.932,4.932,0,0,1,65.84-7.373,4.932,4.932,0,0,1,67.354-3.76,4.988,4.988,0,0,1,65.84-.1a4.932,4.932,0,0,1-3.613,1.514A4.926,4.926,0,0,1,58.54-.122,5.054,5.054,0,0,1,57.051-3.76Z" transform="translate(-7.031 65.723)" fill="#4a2500" opacity="0.739"/>
</svg>
