<svg xmlns="http://www.w3.org/2000/svg" width="66.523" height="67.285" viewBox="0 0 66.523 67.285">
  <path id="パス_3918" data-name="パス 3918" d="M27.832-36.523a12.289,12.289,0,0,1,9.131,3.662,13.233,13.233,0,0,1,3.613,9.717q0,9.57-7.666,17.139A24.488,24.488,0,0,1,15.186,1.563,21.156,21.156,0,0,1,5.2-.732Q.83-3.027.83-6.2q0-3.418,3.076-3.418,2.49,0,4.443,3.857Q10.938-.537,15.625-.537a13.944,13.944,0,0,0,8.789-3.394Q28.662-7.324,31.3-14.307a34.576,34.576,0,0,0,2.637-11.768,9.678,9.678,0,0,0-1.9-6.177A6.089,6.089,0,0,0,27-34.668q-2.979,0-7.422,3.564A5.981,5.981,0,0,1,16.8-29.59q-1.465,0-1.465-1.318,0-.928,1.9-2.124t9.277-5.151Q40.869-45.9,40.869-55.322q0-4.443-2.954-6.4a12.77,12.77,0,0,0-7.2-1.953q-5.029,0-7.617,2.905a9.326,9.326,0,0,0-2.588,6.323,7.974,7.974,0,0,0,1.172,3.955,2.06,2.06,0,0,1,.342.83q0,.586-1.611,1.831a4.886,4.886,0,0,1-2.344,1.245q-.977,0-2.026-1.831a8.541,8.541,0,0,1-1.05-4.321,11.214,11.214,0,0,1,4.858-9.326q4.858-3.662,12.622-3.662,7.031,0,11.084,2.905a8.813,8.813,0,0,1,4.053,7.446,12.4,12.4,0,0,1-3.076,7.861Q41.455-43.7,31.689-38.623,29.15-37.354,27.832-36.523ZM57.051-3.76a4.932,4.932,0,0,1,1.514-3.613,4.988,4.988,0,0,1,3.662-1.514A4.932,4.932,0,0,1,65.84-7.373,4.932,4.932,0,0,1,67.354-3.76,4.988,4.988,0,0,1,65.84-.1a4.932,4.932,0,0,1-3.613,1.514A4.926,4.926,0,0,1,58.54-.122,5.054,5.054,0,0,1,57.051-3.76Z" transform="translate(-0.83 65.723)" fill="#4a2500" opacity="0.739"/>
</svg>
