<svg xmlns="http://www.w3.org/2000/svg" width="318" height="64"><g data-name="グループ 3111"><path data-name="長方形 2677" fill="#1e4e99" d="M0 0h318v64H0z"/><path data-name="パス 3908" d="M59.454 26.38v3.058a45.63 45.63 0 0 1 2.728-.088h9.878v9.108H61.918c-.99 0-1.98-.066-2.75-.132v3.146c.726-.066 1.98-.132 2.838-.132h10.032c0 .418 0 .792-.022 1.144h3.19a47.124 47.124 0 0 1-.088-2.6v-11.4c0-.638.044-1.518.066-2.024-.374.022-1.3.044-1.936.044H62.16a26.342 26.342 0 0 1-2.706-.124Zm22.418.022c.044.616.044 1.518.044 2.134v10.758c0 1.056-.066 2.97-.066 3.08h3.036c0-.066 0-.572-.022-1.188h10.6c0 .638-.022 1.144-.022 1.188h3.036c0-.088-.044-2.2-.044-3.058v-10.78c0-.66 0-1.474.044-2.134-.792.044-1.628.044-2.178.044H84.2c-.59 0-1.426-.022-2.328-.046Zm2.992 2.838H95.49v9.13H84.864Zm27.412-2.068v2.42h-5.72c-.88 0-1.782-.088-2.442-.154v3.036c.682-.044 1.562-.11 2.53-.11h5.61a9.394 9.394 0 0 1-5.962 8.844l2.728 2.024c4.752-2.838 6.138-6.446 6.27-10.868h4.95c.88 0 1.958.066 2.42.088V29.46c-.462.044-1.386.132-2.4.132h-4.95v-2.4a16.969 16.969 0 0 1 .176-2.6h-3.5a10.992 10.992 0 0 1 .29 2.58Zm28.688 9.768v1.98h-1.672v-1.98Zm1.76 3.76v-5.52h-5.17v6.6h1.738V40.7Zm-5.06-14.256h5.016v1.364h-3.564v4.048h-1.452Zm5.016 5.412h-1.672v-2.2h1.672Zm3.476 0h-1.21v-7.392h-9.438v7.392h-1.364v2.554c-.616-.528-1.43-1.232-1.958-1.65a21.567 21.567 0 0 0 2.244-4.51l-1.43-.924-.462.11h-.9v-4.048h-2.576v4.048h-2.618v2.354h4.774a16.325 16.325 0 0 1-5.588 6.16 10.048 10.048 0 0 1 1.21 2.486 16.534 16.534 0 0 0 2.222-1.826v7.3h2.574v-8.8a24.95 24.95 0 0 1 1.672 2.024l.836-1.144v7.88h2.332v-9.9h7.324v7.48c0 .22-.088.286-.33.286-.22.022-.946.022-1.628 0a9.273 9.273 0 0 1 .748 2.156 5.452 5.452 0 0 0 2.71-.418c.682-.374.858-.968.858-1.98Zm3.762-4.95.286 3.014c2.552-.55 7.04-1.034 9.108-1.254a8.8 8.8 0 0 0-3.278 6.8c0 4.774 4.356 7.238 8.976 7.546L166.044 40c-3.74-.2-7.128-1.5-7.128-5.126a6.685 6.685 0 0 1 4.664-6.16 22.855 22.855 0 0 1 4.246-.308l-.022-2.816c-1.562.066-3.96.2-6.226.4-4.026.33-7.656.66-9.5.814-.422.038-1.278.082-2.16.104Zm14.762 3.654-1.628.682a16.974 16.974 0 0 1 1.716 3.058l1.672-.748a27.306 27.306 0 0 0-1.76-2.992Zm2.464-1.012-1.606.748a19.354 19.354 0 0 1 1.8 2.97l1.65-.792a32.908 32.908 0 0 0-1.844-2.926Zm24.75 4.708c0-4.8-3.432-8.58-8.888-8.58-5.7 0-10.1 4.334-10.1 9.416 0 3.718 2.024 6.4 4.466 6.4 2.4 0 4.29-2.728 5.61-7.172a44.491 44.491 0 0 0 1.32-5.962c2.97.506 4.62 2.772 4.62 5.808 0 3.212-2.2 5.236-5.016 5.9a16.921 16.921 0 0 1-2.046.352l1.65 2.618c5.546-.86 8.384-4.136 8.384-8.78Zm-16.17.55a6.925 6.925 0 0 1 5.588-6.38 33.022 33.022 0 0 1-1.166 5.324c-.9 2.97-1.76 4.356-2.684 4.356-.862 0-1.738-1.078-1.738-3.3Zm28.468-10.67h-3.036a17.707 17.707 0 0 1 .154 1.936c0 .374 0 1.012-.022 1.782-.44.022-.88.044-1.276.044a24.4 24.4 0 0 1-3.036-.176l.044 2.662a26.972 26.972 0 0 0 3.08.11c.352 0 .748-.022 1.166-.044v1.85c0 .506 0 1.034.022 1.562-2.706 1.166-4.906 3.168-4.906 5.082 0 2.332 3.014 4.18 5.148 4.18 1.452 0 2.42-.726 2.42-3.454 0-.748-.044-2.464-.088-4.2a14.833 14.833 0 0 1 4.138-.62c1.914 0 3.234.88 3.234 2.376 0 1.606-1.408 2.486-3.19 2.816a16.94 16.94 0 0 1-2.706.154l1.012 2.838a20.143 20.143 0 0 0 2.88-.352c3.5-.88 4.862-2.838 4.862-5.434 0-3.036-2.662-4.8-6.05-4.8a18.229 18.229 0 0 0-4.224.572v-.81c0-.638 0-1.32.022-1.98 1.43-.176 2.948-.4 4.2-.682l-.066-2.728a26.944 26.944 0 0 1-4.048.792c.022-.55.044-1.078.066-1.562.046-.572.134-1.518.2-1.914Zm6.27 2.376-1.21 2.134a35 35 0 0 1 5.3 3.212l1.32-2.244a45.973 45.973 0 0 0-5.41-3.102Zm-11.374 12.32c0-.77.9-1.672 2.244-2.4.044 1.188.066 2.2.066 2.75 0 .748-.308.924-.7.924-.576.002-1.61-.592-1.61-1.274ZM223.706 27.7h2.6v-1.144h4.708V27.7h2.618v-1.144h4.928v-2.068h-4.928v-1.122h-2.622v1.122h-4.71v-1.122h-2.6v1.122h-4.774v2.068h4.774Zm2.4 4.422a6.416 6.416 0 0 1-1.454 1.278 14.532 14.532 0 0 0-1.716-1.144l.22-.132Zm1.518-1.584-.4.066h-2.2c.2-.2.4-.418.594-.638h3.806v3.564c0 2.046.594 2.684 3.124 2.684h3.344c1.826 0 2.486-.572 2.728-2.64a6.481 6.481 0 0 1-2.046-.77c-.11 1.21-.242 1.43-.924 1.43h-2.816c-.88 0-1.056-.11-1.056-.7v-.506a31.632 31.632 0 0 0 5.808-1.386l-1.76-1.43a22.581 22.581 0 0 1-4.048 1.122V29.97h6.336v-1.98H219.46v1.98h3.432a13.3 13.3 0 0 1-4.312 2.2 14.379 14.379 0 0 1 1.5 1.584c.418-.176.836-.374 1.254-.572a15.343 15.343 0 0 1 1.584 1.1A19.638 19.638 0 0 1 219 35.334a7.61 7.61 0 0 1 1.232 1.738c4.818-.968 7.7-2.926 8.822-5.94Zm11.066 7.238h-5.016V36.3h-2.664v1.474h-4.62V36.3h-2.442v1.474h-5.258v2.2h4.84c-.572.836-1.848 1.584-4.62 2.068A9.885 9.885 0 0 1 220.45 44c3.982-.814 5.346-2.332 5.764-4.026h4.8v3.96h2.662v-3.96h5.016Zm10.052-3.076h3.52v-2.53h-9.438v2.53h3.322V40c-1.584.264-3.036.484-4.158.66l.726 2.64c2.838-.616 6.71-1.408 10.318-2.2l-.2-2.332c-1.342.264-2.75.528-4.092.77Zm12.914-5.038V27.11h-2.068l1.5-1.3a16.432 16.432 0 0 0-2.882-2.442l-1.738 1.43a15.575 15.575 0 0 1 2.574 2.31h-3.476a66.43 66.43 0 0 1-.022-3.63h-2.816c0 1.21.022 2.442.066 3.63h-10.8v2.552h10.934c.528 7.744 2.178 14.256 5.94 14.256 2.09 0 2.97-1.012 3.366-5.17a7.359 7.359 0 0 1-2.294-1.546c-.11 2.794-.374 3.96-.836 3.96-1.606 0-2.948-5.082-3.41-11.506Z" fill="#fff"/><path data-name="パス 3900" d="m295.362 39.046-8.263-8.263 2.461-2.461 5.8 5.8 5.8-5.8 2.461 2.461Z" fill="#fff"/></g></svg>