<svg xmlns="http://www.w3.org/2000/svg" width="328.421" height="82.105"><path data-name="長方形 2709" fill="#1e4e99" d="M0 0h328.421v82.105H0z"/><path data-name="パス 3909" d="M114.311 44.714c-.572-.506-2.6-2.277-3.677-3.128a20.667 20.667 0 0 0 2.99-5.014l-.966-.644-.3.069h-2v-4.278h-1.679v4.278h-3.611v1.564h6.394a19.951 19.951 0 0 1-7.2 7.544 7.737 7.737 0 0 1 .9 1.541 21.718 21.718 0 0 0 3.517-2.875v8.924h1.679v-9.522c1.035.966 2.3 2.254 2.9 2.921Zm6.259 5.658v-9.545h4.9v-1.656h-4.9V31.88h-1.7v7.291h-4.924v1.656h4.922v9.545h-5.819v1.675h12.88v-1.675Zm14.1-14.145h1.679V34.64h5.957v1.587h1.7V34.64h5.566v-1.4h-5.561v-1.541h-1.7v1.541h-5.963v-1.541h-1.679v1.541h-5.405v1.4h5.405Zm2.921 4.025a6.818 6.818 0 0 1-1.932 1.978 20.975 20.975 0 0 0-2.53-1.656c.161-.115.3-.207.46-.322Zm1.035-1.2-.3.069h-3.4a13.837 13.837 0 0 0 .966-1.058h4.439v4.669c0 1.656.552 2.047 2.691 2.047h4.117c1.633 0 2.093-.506 2.277-2.507a4.163 4.163 0 0 1-1.4-.552c-.076 1.499-.214 1.727-1.042 1.727h-3.818c-1.081 0-1.265-.115-1.265-.713v-1.217a34.928 34.928 0 0 0 6.371-1.77l-1.242-.989a26.8 26.8 0 0 1-5.129 1.589v-2.28h7.2v-1.38h-19.3v1.38h4.347a13.671 13.671 0 0 1-4.991 3.036 7.345 7.345 0 0 1 1.014 1.081 18.022 18.022 0 0 0 1.886-.943 15.923 15.923 0 0 1 2.464 1.706 18.11 18.11 0 0 1-4.876 1.587 5.186 5.186 0 0 1 .876 1.169c4.991-1.081 7.935-3.22 9.085-6.233Zm11.085 7.801h-5.543v-1.84h-1.725v1.84h-6.141v-1.84h-1.61v1.84h-5.7v1.472h5.539c-.368 1.242-1.541 2.415-5.06 3.174a6.554 6.554 0 0 1 1.012 1.288c4.186-.989 5.428-2.668 5.728-4.462h6.233v4.393h1.725v-4.393h5.542Zm23.184-3.956c0-4.669-3.427-8.464-8.809-8.464-5.612 0-10.051 4.37-10.051 9.361 0 3.795 2.047 6.141 4.094 6.141 2.139 0 3.956-2.415 5.359-7.153a45.244 45.244 0 0 0 1.38-6.624 6.4 6.4 0 0 1 6.143 6.67c0 3.979-2.9 6.164-5.842 6.831a17.374 17.374 0 0 1-1.978.3l1.081 1.7c5.449-.712 8.623-3.932 8.623-8.762Zm-17.066.736a8.023 8.023 0 0 1 7.13-7.452 37.579 37.579 0 0 1-1.288 6.21c-1.173 3.887-2.392 5.428-3.473 5.428-1.035 0-2.369-1.288-2.369-4.186Zm28.865 5.865c-3.036 0-5.014-2.737-5.014-7.038 0-4.232 1.978-6.831 5.014-6.831 3.017 0 5.017 2.599 5.017 6.831 0 4.301-2 7.038-5.017 7.038Zm5.152 5.681a7.6 7.6 0 0 0 2.415-.368l-.414-1.656a5.8 5.8 0 0 1-1.771.253 4.409 4.409 0 0 1-4.14-2.254c3.565-.621 5.957-3.841 5.957-8.694 0-5.4-2.967-8.694-7.2-8.694s-7.2 3.289-7.2 8.694c0 4.945 2.484 8.211 6.164 8.717a6.363 6.363 0 0 0 6.189 4.002Zm9.384-17.457a2.191 2.191 0 0 1 2.093-2.461c1.127 0 1.587.9 1.587 1.886 0 1.495-1.334 2.53-2.875 3.565a7.03 7.03 0 0 1-.805-2.99Zm1.104 13.525a7.023 7.023 0 0 0 4.877-1.933 12.369 12.369 0 0 0 3.863 1.933l.552-1.748a10.232 10.232 0 0 1-3.151-1.61 17.741 17.741 0 0 0 2.944-6.026h-1.932a14.384 14.384 0 0 1-2.392 4.991 20.555 20.555 0 0 1-4.278-4.761c1.886-1.357 3.795-2.783 3.795-4.991a3.109 3.109 0 0 0-3.312-3.335 3.812 3.812 0 0 0-3.887 4 8.959 8.959 0 0 0 1.1 3.933c-1.725 1.2-3.312 2.6-3.312 4.876.004 2.715 2.074 4.671 5.133 4.671Zm-3.082-4.785c0-1.311.92-2.323 2.116-3.289a25.645 25.645 0 0 0 4.443 5.037 5.029 5.029 0 0 1-3.22 1.357 3.109 3.109 0 0 1-3.339-3.105Zm19.136-4.945c.6-1.909 1.15-3.726 1.679-5.7h.092c.552 1.955 1.081 3.8 1.7 5.7l.805 2.576h-5.106Zm-5.152 9.43h2.162l1.633-5.152h6.164l1.61 5.152h2.254l-5.727-16.882h-2.369Z" fill="#fff"/><path data-name="パス 3905" d="m293.532 49.615-9.55-9.55 2.845-2.845 6.705 6.705 6.705-6.705 2.845 2.845Z" fill="#fff"/></svg>