<svg xmlns="http://www.w3.org/2000/svg" width="328.421" height="82.105"><path data-name="長方形 2709" fill="#1e4e99" d="M0 0h328.421v82.105H0z"/><path data-name="パス 3905" d="m293.533 49.615-9.55-9.55 2.845-2.845 6.705 6.705 6.705-6.705 2.845 2.845Z" fill="#fff"/><path data-name="パス 3917" d="M108.001 43.105v5.129H97.444v-5.129Zm-12.236 7.613h1.679v-.943h10.557v.943h1.748v-9.154H95.765Zm1.2-13.547v1.518h11.519v-1.518Zm4.738-7.406a25.835 25.835 0 0 1-9.641 8.464 6.217 6.217 0 0 1 1.058 1.357 28.322 28.322 0 0 0 9.545-8.165 30.761 30.761 0 0 0 9.729 8.026 7.808 7.808 0 0 1 1.127-1.472 27.322 27.322 0 0 1-10.1-8.211Zm28.171 10.488V44.6h-6.026v-4.347Zm1.61 5.819v-7.268h-9.223v8.924h1.587v-1.656Zm1.219-11.155h-11.592v1.495h11.592Zm3.608-4.025h-18.857v19.872h1.657V32.525h15.524v16.031c0 .368-.138.506-.552.529-.391.023-1.725.023-3.172-.023a5.321 5.321 0 0 1 .621 1.679 12.334 12.334 0 0 0 3.841-.322c.69-.3.943-.805.943-1.863Zm10 3.335h1.679V32.64h5.957v1.587h1.7V32.64h5.566v-1.4h-5.556v-1.541h-1.7v1.541h-5.959v-1.541h-1.679v1.541h-5.408v1.4h5.4Zm2.921 4.025a6.818 6.818 0 0 1-1.921 1.978 20.975 20.975 0 0 0-2.53-1.656c.161-.115.3-.207.46-.322Zm1.035-1.2-.3.069h-3.4a13.836 13.836 0 0 0 .966-1.058h4.439v4.669c0 1.656.552 2.047 2.691 2.047h4.117c1.633 0 2.093-.506 2.277-2.507a4.163 4.163 0 0 1-1.4-.552c-.067 1.499-.205 1.727-1.033 1.727h-3.813c-1.081 0-1.265-.115-1.265-.713v-1.217a34.929 34.929 0 0 0 6.365-1.77l-1.242-.989a26.8 26.8 0 0 1-5.128 1.589v-2.28h7.2v-1.38h-19.3v1.38h4.347a13.671 13.671 0 0 1-4.991 3.036 7.345 7.345 0 0 1 1.014 1.081 18.023 18.023 0 0 0 1.886-.943 15.923 15.923 0 0 1 2.461 1.706 18.109 18.109 0 0 1-4.876 1.587 5.186 5.186 0 0 1 .874 1.173c4.991-1.081 7.935-3.22 9.085-6.233Zm11.086 7.8h-5.535v-1.84h-1.725v1.84h-6.141v-1.84h-1.61v1.84h-5.7v1.472h5.539c-.37 1.243-1.541 2.416-5.06 3.175a6.554 6.554 0 0 1 1.012 1.288c4.186-.989 5.428-2.668 5.727-4.462h6.233v4.393h1.725v-4.393h5.543Zm23.192-3.955c0-4.669-3.427-8.464-8.809-8.464-5.612 0-10.051 4.37-10.051 9.361 0 3.795 2.047 6.141 4.094 6.141 2.139 0 3.956-2.415 5.359-7.153a45.244 45.244 0 0 0 1.38-6.624 6.4 6.4 0 0 1 6.141 6.67c0 3.979-2.9 6.164-5.842 6.831a17.373 17.373 0 0 1-1.978.3l1.081 1.7c5.451-.712 8.625-3.932 8.625-8.762Zm-17.066.736a8.023 8.023 0 0 1 7.13-7.452 37.579 37.579 0 0 1-1.288 6.21c-1.173 3.887-2.392 5.428-3.473 5.428-1.037 0-2.369-1.288-2.369-4.186Zm28.865 5.865c-3.036 0-5.014-2.737-5.014-7.038 0-4.232 1.978-6.831 5.014-6.831 3.013 0 5.014 2.6 5.014 6.831 0 4.301-2.001 7.038-5.014 7.038Zm5.152 5.681a7.6 7.6 0 0 0 2.415-.368l-.414-1.656a5.8 5.8 0 0 1-1.771.253 4.409 4.409 0 0 1-4.14-2.254c3.565-.621 5.957-3.841 5.957-8.694 0-5.4-2.967-8.694-7.2-8.694s-7.2 3.289-7.2 8.694c0 4.945 2.484 8.211 6.164 8.717a6.363 6.363 0 0 0 6.189 4.002Zm9.384-17.457a2.191 2.191 0 0 1 2.093-2.461c1.127 0 1.587.9 1.587 1.886 0 1.495-1.334 2.53-2.875 3.565a7.03 7.03 0 0 1-.805-2.99Zm1.104 13.525a7.023 7.023 0 0 0 4.876-1.932 12.369 12.369 0 0 0 3.864 1.932l.552-1.748a10.232 10.232 0 0 1-3.151-1.61 17.741 17.741 0 0 0 2.944-6.026h-1.932a14.384 14.384 0 0 1-2.392 4.991 20.555 20.555 0 0 1-4.278-4.761c1.886-1.357 3.795-2.783 3.795-4.991a3.109 3.109 0 0 0-3.312-3.335 3.812 3.812 0 0 0-3.887 4 8.959 8.959 0 0 0 1.1 3.933c-1.725 1.2-3.312 2.6-3.312 4.876.004 2.715 2.074 4.671 5.133 4.671Zm-3.082-4.784c0-1.311.92-2.323 2.116-3.289a25.645 25.645 0 0 0 4.439 5.037 5.029 5.029 0 0 1-3.22 1.357 3.109 3.109 0 0 1-3.335-3.106Zm19.136-4.946c.6-1.909 1.15-3.726 1.679-5.7h.092c.552 1.955 1.081 3.8 1.7 5.7l.8 2.576h-5.098Zm-5.152 9.43h2.162l1.633-5.152h6.164l1.61 5.152h2.256l-5.727-16.882h-2.373Z" fill="#fff"/></svg>