<?xml version="1.0" encoding="UTF-8"?><svg xmlns="http://www.w3.org/2000/svg" viewBox="0 0 618 81"><defs><style>.d{fill:#f0f0f0;}.e{fill:#fff;}.f{fill:#111328;}</style></defs><g id="a"/><g id="b"><g id="c"><g><polygon class="d" points="175 0 175 0 0 0 0 81 175 81 175 81 194 40.5 175 0"/><polygon class="f" points="618 40.5 599 0 599 0 599 0 599 0 599 0 212 0 212 81 599 81 599 81 618 40.5"/><g><path d="M58.3,43.65c-.04,.48-.07,.73-.07,.99,0,2.62,1.65,3.85,5.19,3.85,1.76,0,3.56-.31,4.86-.81,.11-.04,.26-.07,.37-.07,.33,0,.84,.18,1.21,.44,.31,.24,.48,.51,.48,.77,0,.33-.24,.57-.7,.68-1.01,.26-3.17,.44-5.13,.44-2.46,0-4.03-.31-5.13-1.06-1.1-.7-1.83-2.09-1.83-3.45,0-.55,.11-1.12,.35-1.87l.37,.09Zm.68-8.69c1.12,.75,1.89,.97,3.37,.97s3.3-.26,4.58-.66c.15-.04,.33-.09,.4-.09,.57,0,1.32,.66,1.32,1.14,0,.37-.13,.46-1.61,.77-1.17,.26-2.38,.7-5.88,2.18l-.15-.33c.62-.37,1.01-.59,1.61-.92l1.43-.77,.42-.26c-.48,.04-1.25,.07-1.65,.07-.81,0-1.83-.24-2.51-.59-.57-.31-.92-.59-1.54-1.28l.22-.22Zm10.03-1.94c.81,.46,1.41,.88,1.96,1.36,.79,.73,1.1,1.23,1.1,1.76s-.31,.92-.68,.92q-.29,0-.99-1.43c-.37-.77-1.08-1.74-1.67-2.33l.29-.29Zm2.27-1.28c.79,.35,1.43,.75,2.09,1.25,.86,.64,1.14,1.08,1.14,1.69,0,.53-.22,.9-.55,.9-.2,0-.33-.11-.51-.42-.77-1.39-1.21-1.96-2.42-3.15l.24-.29Z"/><path d="M78.38,40.72c.33,.09,.92,.18,1.17,.18h1.91c.35-.42,.46-.53,.81-.97,.57,.42,.75,.53,1.3,.97,.15,.11,.22,.2,.22,.29,0,.04-.07,.15-.11,.2-.04,.02-.26,.18-.66,.44v5.17c.15,.62,.35,.95,.81,1.43,.92,.95,1.72,1.25,3.32,1.34,.97,.04,2.27,.07,3.37,.07,2.6,0,5.52-.11,8.56-.35v.24c-.88,.37-1.08,.66-1.14,1.56-1.19,.02-1.41,.02-2.2,.02-2.31,0-6.58-.07-7.35-.11-2.51-.15-3.61-.59-4.77-1.91-.62-.7-.92-1.25-1.25-2.29-1.21,1.85-1.58,2.31-2.66,3.43v.42c0,.35-.09,.59-.2,.59-.24,0-.37-.24-1.21-2.24,1.1-.51,2.31-1.25,3.28-2.05v-5.74h-2.02c-.4,0-.57,.02-.99,.09l-.18-.77Zm.9-8.43c2.93,2,3.83,2.86,3.83,3.61,0,.64-.55,1.54-.92,1.54-.22,0-.4-.22-.59-.7-.73-1.76-1.17-2.51-2.55-4.25l.24-.2Zm7.46,2.33q-.07-2.2-.15-2.84c2.27,.29,2.51,.33,2.51,.57q0,.2-.97,.51v3.26h.44c.37-.53,.51-.68,.9-1.21,.62,.62,.79,.81,1.34,1.47,.07,.07,.11,.11,.11,.15s-.04,.09-.11,.09h-2.68v3.87c.99-.4,1.1-.44,2.6-1.14l.09,.29c-.86,.68-1.25,.95-2.68,1.94v.9q0,1.5,.02,3.61c.02,.18,.02,.33,.02,.44,0,.15,0,.31-.02,.55-.09,.62-.26,.81-.81,1.08-.35,.15-.68,.26-1.25,.37-.09-.66-.18-.81-.51-1.01-.4-.2-.9-.37-1.63-.53v-.29q.53,.07,1.41,.13l1.06,.07c.26,0,.33-.07,.33-.31v-4.29c-.55,.35-.77,.46-1.47,.84-.02,.15-.02,.29-.02,.35-.02,.42-.09,.59-.22,.59-.07,0-.18-.11-.24-.24q-.15-.24-.68-1.96c1.14-.26,1.63-.42,2.62-.9v-4.36h-1.61c-.31,0-.53,.02-1.01,.07l-.2-.7c.66,.11,.86,.13,1.19,.13h1.65v-1.5Zm5.92,3.61c-.07,2.24-.2,3.3-.53,4.6-.35,1.36-.92,2.55-1.69,3.56-.42,.55-.81,.97-1.69,1.78l-.24-.22c1.28-1.61,1.78-2.6,2.24-4.44,.33-1.3,.55-3.67,.55-5.83,0-1.89-.09-3.98-.2-4.77,.84,.37,1.08,.48,1.8,.9,2.13-1.06,3.01-1.58,3.81-2.29,1.25,.79,1.94,1.32,1.94,1.5,0,.13-.15,.22-.37,.22-.15,0-.37-.04-.81-.13-2.42,.7-3.01,.84-4.8,1.19v3.43h3.43c.48-.55,.66-.73,1.17-1.32,.75,.64,.97,.84,1.67,1.52,.07,.09,.09,.15,.09,.2,0,.09-.07,.11-.24,.11h-2.2v3.98c0,1.45,.02,2.73,.02,3.81q0,1.25,.02,2.2c-.04,.15-.09,.18-.2,.2-.18,.02-.92,.07-1.08,.07-.22,0-.29-.07-.29-.29,0,0,0-.04-.02-.09l.07-5.79v-4.09h-2.44Z"/><path d="M117.43,36.56c.59-.73,.79-.95,1.39-1.61,.9,.73,1.19,.97,2.09,1.76,.04,.07,.07,.13,.07,.18,0,.09-.15,.18-.29,.18h-7.5v4.49h5.88c.64-.75,.84-.97,1.47-1.63,.92,.75,1.19,.99,2.07,1.74,.09,.11,.13,.18,.13,.22,0,.09-.13,.18-.29,.18h-9.73c-1.19,2.29-2,3.59-4.22,6.62q5.72-.42,9.29-.9c-1.06-1.32-1.83-2.18-3.23-3.63l.24-.24c2,1.28,3.39,2.31,4.95,3.74,.95,.86,1.25,1.32,1.25,1.85,0,.84-.4,1.69-.77,1.69-.22,0-.31-.11-.79-.97-.42-.77-.79-1.34-1.28-1.98-3.85,.88-4,.92-12.39,2.38-.22,.75-.33,.95-.53,.95-.13,0-.24-.13-.33-.44-.02-.11-.09-.26-.13-.46-.26-.86-.31-1.08-.51-1.83,.35,.02,.66,.04,.77,.04,.44,0,1.45-.04,2.77-.15,.62-1.06,.75-1.36,1.5-3.06,.86-1.98,1.01-2.35,1.41-3.61h-5.41c-.75,0-1.32,.04-1.91,.13l-.13-.84c.81,.15,1.19,.2,2.31,.2h6.12v-4.49h-4.84c-.62,0-.97,.02-1.63,.15l-.13-.84c.77,.13,1.19,.18,2.2,.18h4.4v-2.2c0-.73-.02-1.3-.11-2.46,2.27,.29,2.6,.37,2.6,.59,0,.2-.29,.35-.99,.57v3.5h4.25Z"/></g><g><path class="e" d="M249.23,42.44c2.44-1.69,4.22-3.39,6.21-5.87,1.03-1.3,1.98-2.73,2.42-3.63,.15-.33,.24-.57,.4-1.08,.51,.09,.88,.18,1.12,.22,1.21,.24,1.47,.33,1.47,.53,0,.18-.26,.31-.86,.42,1.08,1.8,2.55,3.34,4.53,4.77,1.87,1.34,3.65,2.18,5.7,2.73l-.04,.31c-.92,.11-1.28,.42-1.74,1.45-2.05-1.06-3.23-1.91-4.84-3.59-1.63-1.65-2.35-2.66-3.94-5.46-1.56,2.49-2.95,4.14-4.97,5.96-1.76,1.56-3.19,2.55-5.21,3.56l-.24-.33Zm5.44,8.67c0,.2-.02,.26-.13,.31-.2,.07-.7,.13-1.14,.13-.24,0-.31-.07-.31-.31,.04-3.43,.07-4.51,.07-5.41,0-1.74-.02-2.55-.07-3.39,.81,.46,1.06,.62,1.76,1.12h8.89c.35-.48,.48-.64,.9-1.12,.62,.46,.81,.62,1.41,1.12,.18,.15,.22,.22,.22,.31,0,.13-.2,.29-.73,.46q0,3.21,.09,6.62v.09c0,.18-.04,.24-.2,.29-.15,.07-.88,.15-1.12,.15-.22,0-.33-.09-.33-.26v-1.03h-9.31v.92Zm-.02-11.46c.64,.11,1.17,.18,1.63,.18h4.6c.51-.55,.66-.75,1.17-1.32,.79,.62,1.06,.79,1.85,1.45,.11,.11,.18,.2,.18,.26,0,.09-.04,.11-.29,.11h-7.5c-.42,0-.75,.02-1.45,.13l-.18-.81Zm.02,10.03h9.31v-5.61h-9.31v5.61Z"/><path class="e" d="M277.01,45.7q0,1.85,.04,5.32c-.02,.33-.29,.42-1.19,.42-.4,0-.53-.09-.53-.33,.07-2.35,.11-7.15,.11-10.23,0-4.2-.02-7.44-.07-8.52,.84,.42,1.08,.55,1.91,.97h12.94c.33-.48,.44-.62,.79-1.08,.7,.44,.9,.59,1.54,1.08,.15,.13,.24,.22,.24,.31s-.07,.15-.24,.31c-.02,.02-.07,.04-.11,.09-.09,.07-.24,.18-.42,.31v8.96q0,.77,.04,4.55v1.8c-.02,.57-.15,.77-.66,1.06-.53,.29-1.12,.46-2.18,.62-.24-.77-.4-1.01-.77-1.21-.35-.2-.48-.22-2.42-.46v-.33q2.73,.11,4.03,.15h.11c.18,0,.26-.07,.26-.24v-15.4h-13.44v11.86Zm1.03-9.09c1.1,.22,1.61,.29,2.2,.29h6.21c.4-.48,.77-.97,1.12-1.43,.79,.66,1.03,.86,1.8,1.54,.07,.09,.11,.15,.11,.2,0,.11-.11,.2-.24,.2h-9.09c-.4,0-.73,.04-1.83,.22l-.29-1.01Zm3.21,10.52c0,.18-.04,.24-.18,.31-.11,.04-.59,.11-.88,.11-.33,0-.48-.09-.48-.26v-.07c.07-1.72,.09-2.55,.09-3.96,0-2.2-.02-3.19-.09-4.09,.79,.33,1.03,.46,1.78,.86h4.47c.33-.42,.44-.55,.79-.99,.62,.42,.79,.55,1.34,.99,.13,.11,.2,.2,.2,.24,0,.11-.15,.26-.64,.66-.02,.84-.02,1.45-.02,1.87,0,1.91,.02,2.99,.09,4.14,0,.35-.22,.44-1.08,.44-.29,0-.4-.09-.4-.35v-1.32h-4.99v1.43Zm0-1.94h4.99v-4.66h-4.99v4.66Z"/><path class="e" d="M310.56,40.79c1.78-.86,2.95-1.61,4-2.62,1.58,.86,1.87,1.03,1.87,1.19,0,.13-.15,.2-.42,.2-.09,0-.51-.02-.79-.02-1.5,.73-2.97,1.25-4.66,1.65v1.25c0,.31,.04,.37,.26,.42,.15,.02,1.21,.07,1.8,.07,.2,0,.53,0,1.1-.02h.9c.84,0,.95-.02,1.08-.24,.15-.24,.62-1.39,.99-2.44l.26,.02-.13,1.74v.51q0,.11,.4,.26c.31,.09,.46,.26,.46,.53,0,.73-.59,.84-4.69,.84-3.54,0-3.74-.07-3.78-1.19v-5.63h-4.53c-.53,.81-.81,1.19-1.34,1.76h3.1c.37-.35,.48-.44,.88-.77,.51,.4,.66,.51,1.14,.9,.15,.13,.2,.2,.2,.26,0,.13-.11,.18-.86,.42-1.45,2.11-2.62,3.19-4.71,4.29-1.54,.81-3.01,1.34-5.1,1.83l-.11-.35c2.55-.92,4.18-1.76,5.72-2.95-.18-.02-.22-.07-.35-.24-.53-.77-1.17-1.41-1.69-1.72-1.43,1.12-2.11,1.54-3.39,2.09l-.2-.31c1.36-.88,2.27-1.69,3.5-3.08,.73-.84,1.12-1.36,1.56-2.13h-2.57c-.95,0-1.1,0-1.87,.13l-.15-.86c.68,.15,1.25,.22,2.02,.22h14.02c.57-.62,.75-.81,1.34-1.41,.84,.68,1.08,.9,1.89,1.61,.04,.07,.09,.13,.09,.18,0,.09-.09,.13-.24,.13h-7v3.5Zm-.75-7c0-.11,.02-.15,.02-.18,0-.97-.04-1.45-.11-1.85,1.89,.2,2.44,.31,2.44,.51,0,.15-.18,.24-.92,.44q-.02,.84-.02,1.08h3.39c.62-.66,.81-.86,1.41-1.45,.88,.7,1.17,.92,2.07,1.65,.04,.07,.09,.13,.09,.18,0,.09-.09,.13-.22,.13h-6.73c0,.46,0,.66,.02,1.25-.02,.26-.22,.31-1.21,.31-.22,0-.26-.04-.26-.2,.02-.7,.04-.95,.04-1.36h-4.22v.26l-.02,.4c0,.13,.02,.29,.04,.57,0,.13-.02,.18-.09,.22-.09,.07-.57,.11-1.19,.11-.13,0-.2-.04-.22-.18,.04-.75,.07-.99,.07-1.39h-4.2c-.92,0-1.1,.02-1.76,.11l-.15-.79c.62,.13,1.06,.18,1.91,.18h4.2c.02-.24,.02-.44,.02-.62,0-.59-.02-.84-.09-1.41,.46,.07,.86,.11,1.1,.13,1.06,.11,1.3,.18,1.3,.37,0,.15-.2,.24-.92,.44v1.08h4.22Zm-5.5,12.63c.04-.44,.07-.7,.07-1.08,0-.35-.02-.55-.09-.95,.46,.07,.81,.13,1.06,.15,.95,.13,1.32,.24,1.32,.4s-.11,.2-.81,.44c-.07,.66-.07,.75-.11,1.03h4.07c0-1.1-.02-1.12-.09-1.85,2.11,.2,2.29,.22,2.29,.42,0,.15-.04,.18-.77,.48v.95h3.37c.59-.68,.77-.88,1.36-1.47,.9,.68,1.17,.9,2.03,1.65,.04,.07,.09,.13,.09,.18,0,.07-.11,.15-.2,.15h-6.67v1.34c0,.55,0,.68,.04,3.23,0,.11-.04,.15-.11,.2-.11,.07-.68,.13-1.17,.13-.2,0-.26-.07-.26-.24,.07-1.47,.09-2.09,.09-3.21v-1.45h-4.14c-.29,1.5-.68,2.29-1.47,2.99-1.36,1.21-3.23,1.89-5.94,2.18l-.09-.33c2.57-.64,3.87-1.23,4.82-2.22,.64-.66,1.01-1.43,1.23-2.62h-4c-.81,0-1.14,.02-1.72,.13l-.15-.79c.64,.13,1.01,.15,1.87,.15h4.09Zm-1.45-6.86c-.42,.42-.64,.62-1.08,.99,.42,.07,.81,.18,1.36,.37,.75,.29,.99,.48,.99,.86,0,.26-.07,.44-.18,.64,1.08-.9,1.72-1.65,2.49-2.86h-3.59Z"/><path class="e" d="M332.74,33.35c-1.91,2.64-2.84,5.92-2.84,9.9s.92,7.24,2.84,9.92l-.44,.35c-1.19-1.28-1.85-2.22-2.49-3.52-1.06-2.16-1.67-4.64-1.67-6.75,0-2.27,.73-5.02,1.94-7.26,.57-1.03,1.19-1.89,2.22-2.99l.44,.35Z"/><path class="e" d="M342.04,40.74c.66,.15,1.25,.24,1.87,.24h1.34c.31-.42,.42-.55,.77-.95,.66,.42,.86,.55,1.43,1.06,.11,.13,.13,.18,.13,.22,0,.11-.24,.33-.68,.57v5.3c.18,.62,.31,.84,.68,1.17,.66,.59,1.78,1.06,2.99,1.25,.57,.11,1.43,.15,2.4,.15,1.8,0,8.03-.22,9.83-.37v.22c-.92,.46-1.1,.7-1.17,1.56l-.68,.02-3.1,.07c-6.53,0-7.72-.13-9.17-1.06-1.17-.73-1.78-1.5-2.4-3.01q-.29,.33-.79,.97t-.77,.99q-.86,.97-1.17,1.34v.33c.02,.07,.02,.13,.02,.18,0,.26-.11,.44-.26,.44s-.4-.42-1.3-2.24c.24-.13,.44-.22,.55-.29,1.39-.66,1.61-.79,2.86-1.72v-5.7h-1.52q-1.34,.07-1.65,.13l-.22-.88Zm.92-8.47c1.83,1.21,2.38,1.63,3.06,2.33,.46,.48,.7,.9,.7,1.19,0,.75-.48,1.63-.9,1.63-.24,0-.33-.13-.59-.86-.22-.59-.81-1.72-1.23-2.4-.4-.57-.73-1.01-1.32-1.67l.29-.22Zm12.59,12.01q.02,1.47,.02,3.78c-.02,.22-.09,.29-.29,.31-.26,.04-.68,.09-.95,.09-.15,0-.2-.04-.24-.2,.02-.24,.07-1.5,.11-3.76v-.75h-3.65v2.24l.02,1.76v.33c-.02,.2-.07,.29-.2,.33-.07,0-.79,.04-1.06,.04-.15,0-.22-.04-.26-.15,.04-1.43,.09-4.69,.09-7.97,0-1.67-.02-2.79-.09-4.05,.68,.33,.88,.44,1.5,.79h4.75c-.73-.9-.79-.97-1.39-1.45-.86-.73-1.43-1.12-2.2-1.5l.18-.22c1.61,.37,3.12,.97,4.09,1.61,.77-.7,1.21-1.19,2.16-2.33h-7.61c-.57,0-1.54,.07-1.94,.13l-.2-.84c.51,.11,1.5,.2,2.13,.2h7.7c.26-.29,.57-.59,.92-.97,.73,.48,.95,.64,1.67,1.17,.15,.11,.22,.18,.22,.24,0,.13-.13,.2-.4,.31l-.26,.07c-.2,.02-.46,.11-.81,.22-.86,.62-1.72,1.14-3.37,2.13,.07,.31,.07,.42,.07,.73,0,.2-.02,.33-.11,.51h3.01c.31-.31,.62-.62,.95-.95,.57,.37,.75,.51,1.3,.95,.07,.07,.11,.15,.11,.22,0,.15-.24,.37-.7,.62v6.82c.02,.73,.02,1.19,.02,1.39v.64c-.04,.68-.26,1.03-.81,1.32-.31,.15-.62,.22-1.45,.31-.13-.66-.2-.77-.51-.95-.18-.09-.46-.18-1.01-.31l-.42-.11c-.11-.02-.22-.04-.33-.09v-.31q.46,.02,1.36,.07c.81,.07,.84,.07,1.3,.09h.11c.2,0,.29-.11,.29-.33v-2.71h-3.83v.53Zm-1.34-6.69h-3.65v2.62h3.65v-2.62Zm0,3.12h-3.65v2.53h3.65v-2.53Zm5.17-.51v-2.62h-3.83v2.62h3.83Zm0,3.04v-2.53h-3.83v2.53h3.83Z"/><path class="e" d="M366.11,44.66c1.96-2.27,2.53-3.04,3.67-4.93,.99-1.63,1.17-2.02,1.87-4.05,.51,.22,.92,.4,1.19,.48,.99,.4,1.23,.55,1.23,.73,0,.15-.35,.29-.77,.29h-.42c-.62,1.12-1.06,1.76-2.38,3.45,1.14,.18,1.43,.26,1.43,.44,0,.2-.22,.33-.77,.48v4.36l-.02,1.85,.02,3.56c0,.24-.07,.31-.26,.35-.26,.02-.64,.07-.84,.07-.29,0-.4-.09-.4-.31v-.04q.09-3.04,.09-5.85l-.02-3.98c-1.34,1.61-1.94,2.2-3.34,3.3l-.29-.2Zm16.83-9.7l1.3-1.74c1.04,.79,1.34,1.06,2.31,1.91,.07,.07,.11,.11,.11,.15,0,.09-.07,.18-.13,.18h-18.15c-.44,0-1.39,.11-1.78,.2l-.2-.95c.86,.18,1.52,.24,2.09,.24h6.93v-1.5c0-.75-.02-1.03-.11-1.74,2,.15,2.57,.26,2.57,.53,0,.15-.11,.22-.97,.51v2.2h6.03Zm-.62,3.74c.31-.35,.62-.7,.92-1.03,.57,.42,1.1,.84,1.61,1.21,.15,.13,.22,.22,.22,.31,0,.18-.09,.22-1.06,.57-1.25,3.06-2.4,4.95-4.16,6.82,2.11,1.56,3.41,2.11,7.04,3.04l-.04,.2c-.97,.13-1.08,.22-1.8,1.39-1.36-.4-2.11-.77-3.45-1.67-1.1-.73-1.85-1.32-2.62-2.09-.7,.62-1.25,1.06-2,1.61-1.78,1.3-2.82,1.85-5,2.64l-.18-.29c3.02-1.76,4.69-3.04,6.36-4.84-1.58-1.91-2.24-2.88-3.08-4.55-1.19,1.5-1.65,1.94-3.1,2.97l-.18-.2c1.58-1.78,2.73-3.5,3.63-5.41,.57-1.19,1.06-2.51,1.32-3.61,.92,.29,2.05,.66,2.24,.75,.09,.04,.13,.11,.13,.18,0,.22-.33,.35-1.06,.42q-.53,.99-.86,1.61h5.1Zm-5.39,.51c-.59,1.03-.92,1.54-1.54,2.38,.99,1.78,1.76,2.71,3.45,4.18,1.52-1.89,2.64-3.92,3.63-6.56h-5.54Zm.29,.73c.97,.4,1.32,.57,1.89,.92,.81,.48,.97,.66,.97,1.06,0,.57-.37,1.32-.66,1.32-.11,0-.22-.11-.35-.37-.64-1.25-1.21-2.02-2-2.73l.15-.2Z"/><path class="e" d="M391.06,46.71c1.67,.62,3.39,1.45,4.29,2.11,.86,.64,1.17,1.14,1.17,1.94,0,.7-.42,1.45-.79,1.45-.07,0-.22-.07-.31-.13q-.15-.13-1.12-1.58c-.75-1.1-1.94-2.33-3.39-3.5l.15-.29Z"/><path class="e" d="M427.47,40.79c1.78-.86,2.95-1.61,4-2.62,1.58,.86,1.87,1.03,1.87,1.19,0,.13-.15,.2-.42,.2-.09,0-.51-.02-.79-.02-1.5,.73-2.97,1.25-4.66,1.65v1.25c0,.31,.04,.37,.26,.42,.15,.02,1.21,.07,1.8,.07,.2,0,.53,0,1.1-.02h.9c.84,0,.95-.02,1.08-.24,.15-.24,.62-1.39,.99-2.44l.26,.02-.13,1.74v.51q0,.11,.4,.26c.31,.09,.46,.26,.46,.53,0,.73-.59,.84-4.69,.84-3.54,0-3.74-.07-3.78-1.19v-5.63h-4.53c-.53,.81-.81,1.19-1.34,1.76h3.1c.37-.35,.48-.44,.88-.77,.51,.4,.66,.51,1.14,.9,.15,.13,.2,.2,.2,.26,0,.13-.11,.18-.86,.42-1.45,2.11-2.62,3.19-4.71,4.29-1.54,.81-3.02,1.34-5.11,1.83l-.11-.35c2.55-.92,4.18-1.76,5.72-2.95-.18-.02-.22-.07-.35-.24-.53-.77-1.17-1.41-1.69-1.72-1.43,1.12-2.11,1.54-3.39,2.09l-.2-.31c1.36-.88,2.27-1.69,3.5-3.08,.73-.84,1.12-1.36,1.56-2.13h-2.57c-.95,0-1.1,0-1.87,.13l-.15-.86c.68,.15,1.25,.22,2.03,.22h14.02c.57-.62,.75-.81,1.34-1.41,.84,.68,1.08,.9,1.89,1.61,.04,.07,.09,.13,.09,.18,0,.09-.09,.13-.24,.13h-7v3.5Zm-.75-7c0-.11,.02-.15,.02-.18,0-.97-.04-1.45-.11-1.85,1.89,.2,2.44,.31,2.44,.51,0,.15-.18,.24-.92,.44q-.02,.84-.02,1.08h3.39c.62-.66,.81-.86,1.41-1.45,.88,.7,1.17,.92,2.07,1.65,.04,.07,.09,.13,.09,.18,0,.09-.09,.13-.22,.13h-6.73c0,.46,0,.66,.02,1.25-.02,.26-.22,.31-1.21,.31-.22,0-.26-.04-.26-.2,.02-.7,.04-.95,.04-1.36h-4.22v.26l-.02,.4c0,.13,.02,.29,.04,.57,0,.13-.02,.18-.09,.22-.09,.07-.57,.11-1.19,.11-.13,0-.2-.04-.22-.18,.04-.75,.07-.99,.07-1.39h-4.2c-.92,0-1.1,.02-1.76,.11l-.15-.79c.62,.13,1.06,.18,1.91,.18h4.2c.02-.24,.02-.44,.02-.62,0-.59-.02-.84-.09-1.41,.46,.07,.86,.11,1.1,.13,1.06,.11,1.3,.18,1.3,.37,0,.15-.2,.24-.92,.44v1.08h4.22Zm-5.5,12.63c.04-.44,.07-.7,.07-1.08,0-.35-.02-.55-.09-.95,.46,.07,.81,.13,1.06,.15,.95,.13,1.32,.24,1.32,.4s-.11,.2-.81,.44c-.07,.66-.07,.75-.11,1.03h4.07c0-1.1-.02-1.12-.09-1.85,2.11,.2,2.29,.22,2.29,.42,0,.15-.04,.18-.77,.48v.95h3.37c.59-.68,.77-.88,1.36-1.47,.9,.68,1.17,.9,2.02,1.65,.04,.07,.09,.13,.09,.18,0,.07-.11,.15-.2,.15h-6.67v1.34c0,.55,0,.68,.04,3.23,0,.11-.04,.15-.11,.2-.11,.07-.68,.13-1.17,.13-.2,0-.26-.07-.26-.24,.07-1.47,.09-2.09,.09-3.21v-1.45h-4.14c-.29,1.5-.68,2.29-1.47,2.99-1.36,1.21-3.23,1.89-5.94,2.18l-.09-.33c2.57-.64,3.87-1.23,4.82-2.22,.64-.66,1.01-1.43,1.23-2.62h-4c-.81,0-1.14,.02-1.72,.13l-.15-.79c.64,.13,1.01,.15,1.87,.15h4.09Zm-1.45-6.86c-.42,.42-.64,.62-1.08,.99,.42,.07,.81,.18,1.36,.37,.75,.29,.99,.48,.99,.86,0,.26-.07,.44-.18,.64,1.08-.9,1.72-1.65,2.49-2.86h-3.59Z"/><path class="e" d="M438.36,42.66c.75-1.21,1.06-1.76,1.69-3.19,1.39-3.12,2.09-5.37,2.42-7.68,1.83,.35,2.51,.55,2.51,.79,0,.18-.35,.33-1.01,.44-.62,2.09-1.19,3.41-2.42,5.65,1.34,.18,1.58,.24,1.58,.48,0,.15-.2,.29-.66,.42v7.86c0,.68,0,.99,.02,4.03,0,.18-.02,.24-.09,.29-.09,.09-.75,.18-1.21,.18-.18,0-.26-.09-.26-.22v-.13c.02-.35,.02-2.71,.07-7.06v-4.84c-.79,1.3-1.21,1.89-2.31,3.19l-.33-.2Zm8.47,2l-1.34,.02c-.92,0-1.39,.02-2.33,.11l-.2-.81c.88,.13,1.45,.18,2.33,.18h.2l1.34-.02v-1.61c-1.19,.22-1.78,.29-3.1,.4l-.07-.24c1.32-.29,2.49-.64,3.76-1.17,.53-.22,.66-.29,1.21-.64l.42-.26c1.34,.95,1.54,1.12,1.54,1.32,0,.11-.13,.22-.26,.22-.18,0-.26-.02-.77-.24-.66,.18-.81,.22-1.45,.37v1.83l3.67-.04c-.11-.48-.15-.79-.2-1.21-.11-1.3-.13-1.34-.29-1.96,1.85,.18,1.91,.2,1.91,.4,0,.11-.09,.18-.42,.35,0,1.14,.04,1.54,.2,2.4l3.17-.04c.46-.59,.59-.77,1.1-1.34,.77,.64,.99,.81,1.67,1.5,.07,.07,.11,.13,.11,.18,0,.09-.09,.13-.33,.13l-5.59,.09c.26,1.01,.57,1.67,1.14,2.44,.51-.59,.84-1.08,1.3-1.91q1.83,.9,1.83,1.08c0,.22-.18,.26-.95,.29-.64,.73-.88,.99-1.39,1.47,.57,.59,1.28,1.17,1.72,1.36,.13,.07,.22,.11,.26,.15,.04,.02,.07,.04,.09,.04,.07,0,.15-.09,.26-.29,.18-.33,.4-.7,.59-1.08,.35-.59,.37-.66,.73-1.28l.24,.11-.57,2.24c-.04,.2-.07,.33-.07,.44,0,.2,.02,.22,.46,.68,.13,.13,.24,.42,.24,.64,0,.29-.29,.53-.59,.53-.38,0-1.23-.35-2.05-.84-.88-.53-1.58-1.12-2.29-1.89-1.56,1.21-2.86,1.89-5.04,2.64l-.13-.33c1.19-.53,2.05-1.08,3.39-2.2,.42-.33,.73-.62,1.1-.97-.75-1.08-1.17-2.05-1.52-3.32l-3.79,.07v1.94c1.41-.24,1.96-.35,3.19-.66l.09,.31c-1.45,.55-2.09,.77-3.28,1.14v.99l.02,1.63v.53c0,.55-.09,.75-.46,.99-.35,.24-.73,.35-1.47,.42-.15-.92-.53-1.12-2.24-1.32v-.29q1.89,.15,2.66,.15h.04c.13,0,.18-.07,.18-.26v-2.46c-.84,.22-1.23,.33-2.38,.59-.04,.11-.07,.2-.09,.26-.11,.35-.18,.46-.31,.46q-.2,0-.59-1.96c.9-.04,1.65-.11,3.37-.35v-2.09Zm4.47-7.39h3.26c.48-.57,.64-.75,1.12-1.28,.73,.62,.97,.79,1.67,1.41,.09,.11,.13,.18,.13,.24,0,.09-.09,.13-.29,.13h-5.9v2h4.53c.51-.59,.66-.77,1.19-1.36,.75,.66,.99,.86,1.69,1.52,.09,.09,.13,.15,.13,.22s-.09,.13-.24,.13h-13.09c-.51,0-.95,.02-1.83,.13l-.22-.81c.59,.09,1.69,.18,2.05,.18h4.44v-2h-2.31c-.88,0-1.34,.04-2.29,.18l-.18-.84c.73,.11,1.5,.15,2.46,.15h2.31v-2.02h-3.65c-.81,0-1.14,.02-1.98,.15l-.2-.86c.97,.15,1.52,.2,2.24,.2h2.05c-.11-.18-.13-.24-.24-.51-.29-.81-.57-1.28-1.32-2.13l.24-.2c.84,.31,1.3,.57,1.98,1.1,.31,.24,.44,.44,.44,.64,0,.4-.2,.79-.55,1.1h2.88c.46-.79,1.01-2.13,1.23-3.06,1.87,.59,2.18,.75,2.18,.97,0,.18-.26,.26-.88,.29q-.62,.62-1.98,1.8h3.23c.48-.59,.64-.77,1.17-1.36,.86,.62,1.12,.84,1.94,1.52,.09,.09,.13,.18,.13,.22,0,.11-.04,.13-.33,.13h-7.24v2.02Zm2.57,3.81c1.63,.44,2.27,.81,2.27,1.39,0,.48-.29,1.08-.53,1.08-.15,0-.22-.07-.4-.44-.24-.53-.7-1.1-1.45-1.8l.11-.22Z"/><path class="e" d="M475.21,41.8c0,1.12-.9,2.02-2,2.02s-2.02-.9-2.02-2.02,.9-2,2.02-2,2,.9,2,2Z"/><path class="e" d="M496.75,35.73v-2.09c0-.53-.02-.95-.07-1.8,2.18,.22,2.55,.29,2.55,.53,0,.07-.04,.13-.11,.18s-.37,.15-.88,.33v2.86h4.25c.55-.68,.73-.9,1.32-1.56,.88,.75,1.14,.97,1.98,1.72,.04,.09,.09,.15,.09,.2,0,.09-.13,.15-.31,.15h-7.33v4.31h5.7c.64-.73,.84-.92,1.52-1.56,.86,.73,1.12,.97,1.87,1.74,.09,.09,.11,.13,.11,.18,0,.09-.11,.15-.31,.15h-16.37c-1.54,0-1.76,0-2.77,.13l-.13-.84c1.01,.15,1.52,.2,2.9,.2h5.99v-4.31h-4.45c-1.06,1.58-1.72,2.27-3.39,3.67l-.26-.22c1.58-2.07,2.27-3.21,3.04-4.91,.44-1.01,.73-1.76,.97-2.68,.77,.22,1.72,.55,2.13,.75,.18,.07,.26,.15,.26,.26,0,.22-.24,.29-1.01,.29-.62,1.1-.88,1.52-1.41,2.33h4.12Zm-4.33,15.53c-.04,.37-.29,.46-1.14,.46-.38,0-.48-.07-.51-.29,.09-2.57,.09-2.64,.09-4.2,0-2.64-.02-3.37-.11-4.36,.84,.35,1.1,.48,1.92,.97h9.46c.44-.48,.59-.64,1.06-1.08,.59,.44,.77,.59,1.3,1.08,.15,.13,.2,.2,.2,.29,0,.15-.07,.2-.75,.62,.02,1.96,.02,2.51,.02,3.17,0,1.69,.02,2.13,.07,3.17-.04,.31-.29,.4-1.06,.4h-.22c-.2,0-.33-.09-.35-.26v-1.01h-9.97v1.06Zm0-1.56h9.97v-5.35h-9.97v5.35Z"/><path class="e" d="M514.31,40.44c0,.18-.04,.24-.22,.29-.11,.04-.59,.09-.81,.09-.33,0-.44-.07-.44-.24v-.04c.07-1.52,.09-2.13,.09-3.54,0-2.27-.02-3.74-.09-4.73,.88,.35,1.12,.48,1.89,.99h5.24c.33-.44,.42-.57,.77-.99,.62,.4,.79,.53,1.32,.99,.18,.15,.24,.24,.24,.33,0,.07-.04,.13-.09,.18-.02,.02-.22,.13-.59,.37,.02,3.63,.02,3.78,.11,5.9,0,.18-.04,.26-.18,.31s-.59,.11-.92,.11c-.35,0-.46-.09-.46-.31v-.9h-2.93c-.07,1.36-.13,1.98-.33,3.08h3.06c.31-.35,.42-.46,.77-.79,.53,.42,.68,.57,1.19,1.06,.15,.18,.18,.22,.18,.29q0,.11-.66,.46c-.33,3.21-.68,5.39-1.06,6.45-.15,.48-.51,.9-.92,1.12-.4,.2-.73,.29-1.63,.44-.04-.97-.33-1.17-2.42-1.67l.07-.33c1.23,.15,2.6,.29,2.93,.29,.46,0,.64-.22,.81-.97,.33-1.47,.73-4.33,.79-5.83h-3.19c-.29,1.43-.62,2.55-1.06,3.56-.64,1.41-1.63,2.79-2.75,3.83-.46,.44-.79,.68-1.56,1.19l-.22-.24c2.09-2.02,3.21-4.05,3.89-6.98,.35-1.54,.53-2.84,.62-4.95h-1.43v1.21Zm0-1.72h5.85v-4.97h-5.85v4.97Zm11.29,3.94c0,.79,.02,.99,.09,3.54v.11c0,.26-.15,.35-.79,.37-.15,0-.29,0-.38,.02h-.07c-.22,0-.33-.09-.33-.24v-.09c.07-1.34,.09-4,.09-7.06,0-3.34-.04-5.32-.11-5.94,1.74,.13,2.38,.29,2.38,.55,0,.18-.15,.24-.9,.46l.02,8.27Zm2.9-9.02c0-.68-.02-1.01-.13-1.8,.44,.09,.79,.13,1.03,.15,1.08,.15,1.41,.26,1.41,.46,0,.07-.04,.13-.09,.18-.02,.02-.26,.13-.73,.35v8.27q.09,6.67,.15,8.34v.31c0,.77-.59,1.12-2.46,1.52-.29-.86-.29-.88-.62-1.08-.42-.22-1.06-.4-2.38-.68v-.35c.48,.02,.86,.07,1.1,.09q1.65,.15,2.46,.15c.24,0,.33-.07,.33-.24l-.09-15.67Z"/><path class="e" d="M547.5,36.21c-.07-.81-.07-1.21-.09-1.91-.07-1.52-.07-1.8-.15-2.55,2.11,.18,2.51,.24,2.51,.48,0,.15-.26,.31-.86,.48v.99c0,.79,.02,1.72,.04,2.51h3.37c.55-.7,.73-.92,1.32-1.58,.88,.73,1.14,.95,2,1.72,.04,.07,.09,.15,.09,.2,0,.09-.13,.18-.24,.18h-6.51c.13,2.31,.31,3.76,.64,5.17,.42,1.69,1.1,3.37,1.94,4.71,.51,.84,.99,1.36,2.16,2.4,1.1-2.24,1.17-2.4,1.87-4.09l.24,.04-.79,3.83q-.13,.59-.13,.68c0,.2,.09,.35,.38,.62,.24,.24,.35,.44,.35,.66,0,.35-.26,.59-.66,.59-.44,0-1.08-.24-1.69-.66-1.56-1.06-2.95-2.88-3.94-5.24-1.03-2.35-1.5-4.62-1.78-8.71h-9c-1.01,0-1.56,.04-2.31,.18l-.13-.92c.86,.2,1.21,.24,2.44,.24h8.96Zm-4.69,10.69c3.3-.9,3.65-1.01,5.13-1.56l.13,.26c-1.32,.79-2.2,1.21-5.13,2.35-1.91,.75-3.06,1.17-5.15,1.83-.11,.92-.18,1.12-.4,1.12-.24,0-.26-.09-1.12-2.62,2-.26,3.43-.57,5.04-1.06v-6.12h-2.46c-.46,0-1.1,.07-1.58,.18l-.15-.9c.57,.15,1.08,.22,1.74,.22h5.32c.51-.68,.66-.88,1.23-1.5,.84,.66,1.08,.88,1.87,1.65,.07,.07,.11,.15,.11,.2,0,.09-.11,.15-.24,.15h-4.33v5.79Zm7.26-14.43c.22,.09,.4,.15,.51,.18,1.12,.4,1.34,.48,1.8,.81,.4,.26,.51,.46,.51,.92,0,.53-.29,1.03-.59,1.03-.13,0-.15-.02-.31-.26-.04-.07-.13-.2-.26-.4-.04-.04-.22-.31-.57-.81-.18-.24-.42-.51-1.21-1.23l.13-.24Z"/><path class="e" d="M565.26,53.18c1.92-2.68,2.84-5.9,2.84-9.92s-.92-7.24-2.84-9.9l.44-.35c1.19,1.28,1.85,2.22,2.49,3.52,1.06,2.18,1.67,4.62,1.67,6.73,0,2.31-.73,5.02-1.94,7.26-.57,1.06-1.19,1.89-2.22,3.01l-.44-.35Z"/></g></g></g></g></svg>