<?xml version="1.0" encoding="UTF-8"?><svg xmlns="http://www.w3.org/2000/svg" viewBox="0 0 86.99 212.86"><defs><style>.d{fill:#42210b;}</style></defs><g id="a"/><g id="b"><g id="c"><g><g><path class="d" d="M62.18,12.51c2.89-2,4.99-4,7.33-6.94,1.22-1.53,2.34-3.22,2.86-4.29,.18-.39,.29-.68,.47-1.27,.6,.1,1.04,.21,1.33,.26,1.43,.29,1.74,.39,1.74,.62,0,.21-.31,.36-1.01,.49,1.27,2.13,3.02,3.95,5.36,5.64,2.21,1.59,4.32,2.57,6.73,3.22l-.05,.36c-1.09,.13-1.51,.49-2.05,1.72-2.42-1.25-3.82-2.26-5.72-4.24-1.92-1.95-2.78-3.15-4.65-6.45-1.85,2.94-3.48,4.89-5.88,7.05-2.08,1.85-3.77,3.02-6.16,4.21l-.29-.39Zm6.42,10.24c0,.23-.03,.31-.16,.36-.23,.08-.83,.16-1.35,.16-.29,0-.36-.08-.36-.36,.05-4.06,.08-5.33,.08-6.4,0-2.05-.03-3.02-.08-4,.96,.55,1.25,.73,2.08,1.33h10.5c.42-.57,.57-.75,1.07-1.33,.73,.55,.96,.73,1.66,1.33,.21,.18,.26,.26,.26,.36,0,.16-.23,.34-.86,.55q0,3.8,.1,7.83v.1c0,.21-.05,.29-.23,.34-.18,.08-1.04,.18-1.33,.18-.26,0-.39-.1-.39-.31v-1.22h-11v1.09Zm-.03-13.55c.75,.13,1.38,.21,1.92,.21h5.43c.6-.65,.78-.88,1.38-1.56,.94,.73,1.25,.94,2.18,1.72,.13,.13,.21,.23,.21,.31,0,.1-.05,.13-.34,.13h-8.87c-.49,0-.88,.03-1.71,.16l-.21-.96Zm.03,11.86h11v-6.63h-11v6.63Z"/><path class="d" d="M66.42,43.24q0,2.18,.05,6.29c-.03,.39-.34,.49-1.4,.49-.47,0-.62-.1-.62-.39,.08-2.78,.13-8.45,.13-12.09,0-4.97-.03-8.79-.08-10.06,.99,.49,1.27,.65,2.26,1.14h15.29c.39-.57,.52-.73,.94-1.27,.83,.52,1.07,.7,1.82,1.27,.18,.16,.29,.26,.29,.36s-.08,.18-.29,.36c-.03,.03-.08,.05-.13,.1-.1,.08-.29,.21-.49,.36v10.58q0,.91,.05,5.38v2.13c-.03,.68-.18,.91-.78,1.25-.62,.34-1.33,.55-2.57,.73-.29-.91-.47-1.2-.91-1.43-.42-.23-.57-.26-2.86-.55v-.39q3.22,.13,4.76,.18h.13c.21,0,.31-.08,.31-.29V29.22h-15.89v14.01Zm1.22-10.74c1.3,.26,1.9,.34,2.6,.34h7.33c.47-.57,.91-1.14,1.33-1.69,.94,.78,1.22,1.01,2.13,1.82,.08,.1,.13,.18,.13,.23,0,.13-.13,.23-.29,.23h-10.74c-.47,0-.86,.05-2.16,.26l-.34-1.2Zm3.8,12.43c0,.21-.05,.29-.21,.36-.13,.05-.7,.13-1.04,.13-.39,0-.57-.1-.57-.31v-.08c.08-2.03,.1-3.02,.1-4.68,0-2.6-.03-3.77-.1-4.84,.94,.39,1.22,.55,2.11,1.01h5.28c.39-.49,.52-.65,.94-1.17,.73,.49,.94,.65,1.59,1.17,.16,.13,.23,.23,.23,.29,0,.13-.18,.31-.75,.78-.03,.99-.03,1.72-.03,2.21,0,2.26,.03,3.54,.1,4.89,0,.42-.26,.52-1.27,.52-.34,0-.47-.1-.47-.42v-1.56h-5.9v1.69Zm0-2.29h5.9v-5.51h-5.9v5.51Z"/><path class="d" d="M77.47,64.77c2.11-1.01,3.48-1.9,4.73-3.09,1.87,1.01,2.21,1.22,2.21,1.4,0,.16-.18,.23-.49,.23-.1,0-.6-.03-.94-.03-1.77,.86-3.51,1.48-5.51,1.95v1.48c0,.36,.05,.44,.31,.49,.18,.03,1.43,.08,2.13,.08,.23,0,.62,0,1.3-.03h1.07c.99,0,1.12-.03,1.27-.29,.18-.29,.73-1.64,1.17-2.89l.31,.03-.16,2.05v.6q0,.13,.47,.31c.36,.1,.54,.31,.54,.62,0,.86-.7,.99-5.54,.99-4.19,0-4.42-.08-4.47-1.4v-6.66h-5.36c-.62,.96-.96,1.4-1.59,2.08h3.67c.44-.42,.57-.52,1.04-.91,.6,.47,.78,.6,1.35,1.07,.18,.16,.23,.23,.23,.31,0,.16-.13,.21-1.01,.49-1.72,2.5-3.09,3.77-5.56,5.07-1.82,.96-3.56,1.59-6.03,2.16l-.13-.42c3.02-1.09,4.94-2.08,6.76-3.48-.21-.03-.26-.08-.42-.29-.62-.91-1.38-1.66-2-2.03-1.69,1.33-2.5,1.82-4,2.47l-.23-.36c1.61-1.04,2.68-2,4.13-3.64,.86-.99,1.33-1.61,1.85-2.52h-3.04c-1.12,0-1.3,0-2.21,.16l-.18-1.01c.81,.18,1.48,.26,2.39,.26h16.56c.68-.73,.88-.96,1.59-1.66,.99,.81,1.27,1.07,2.24,1.9,.05,.08,.1,.16,.1,.21,0,.1-.1,.16-.29,.16h-8.27v4.13Zm-.88-8.27c0-.13,.03-.18,.03-.21,0-1.14-.05-1.72-.13-2.18,2.24,.23,2.89,.36,2.89,.6,0,.18-.21,.29-1.09,.52q-.03,.99-.03,1.27h4c.73-.78,.96-1.01,1.66-1.72,1.04,.83,1.38,1.09,2.44,1.95,.05,.08,.1,.16,.1,.21,0,.1-.1,.16-.26,.16h-7.96c0,.55,0,.78,.03,1.48-.03,.31-.26,.36-1.43,.36-.26,0-.31-.05-.31-.23,.03-.83,.05-1.12,.05-1.61h-4.99v.31l-.03,.47c0,.16,.03,.34,.05,.68,0,.16-.03,.21-.1,.26-.1,.08-.68,.13-1.4,.13-.16,0-.23-.05-.26-.21,.05-.88,.08-1.17,.08-1.64h-4.97c-1.09,0-1.3,.03-2.08,.13l-.18-.94c.73,.16,1.25,.21,2.26,.21h4.97c.03-.29,.03-.52,.03-.73,0-.7-.03-.99-.1-1.66,.55,.08,1.01,.13,1.3,.16,1.25,.13,1.53,.21,1.53,.44,0,.18-.23,.29-1.09,.52v1.27h4.99Zm-6.5,14.92c.05-.52,.08-.83,.08-1.27,0-.42-.03-.65-.1-1.12,.55,.08,.96,.16,1.25,.18,1.12,.16,1.56,.29,1.56,.47s-.13,.23-.96,.52c-.08,.78-.08,.88-.13,1.22h4.81c0-1.3-.03-1.33-.1-2.18,2.5,.23,2.71,.26,2.71,.49,0,.18-.05,.21-.91,.57v1.12h3.98c.7-.81,.91-1.04,1.61-1.74,1.07,.81,1.38,1.07,2.39,1.95,.05,.08,.1,.16,.1,.21,0,.08-.13,.18-.23,.18h-7.88v1.59c0,.65,0,.81,.05,3.82,0,.13-.05,.18-.13,.23-.13,.08-.81,.16-1.38,.16-.23,0-.31-.08-.31-.29,.08-1.74,.1-2.47,.1-3.8v-1.72h-4.89c-.34,1.77-.81,2.7-1.74,3.54-1.61,1.43-3.82,2.24-7.02,2.57l-.1-.39c3.04-.75,4.58-1.46,5.69-2.63,.75-.78,1.2-1.69,1.46-3.09h-4.73c-.96,0-1.35,.03-2.03,.16l-.18-.94c.75,.16,1.2,.18,2.21,.18h4.84Zm-1.71-8.11c-.49,.49-.75,.73-1.27,1.17,.49,.08,.96,.21,1.61,.44,.88,.34,1.17,.57,1.17,1.01,0,.31-.08,.52-.21,.75,1.27-1.07,2.03-1.95,2.94-3.38h-4.24Z"/><path class="d" d="M69.62,92.51c-.47,1.64-1.2,4.47-1.51,5.75-.26,1.14-.34,1.56-.34,2.21-.03,.83-.05,.94-.18,1.14-.13,.18-.29,.29-.49,.29-.44,0-.81-.36-1.12-1.17-.52-1.33-.83-3.3-.83-5.23,0-2.39,.29-4.58,1.17-8.66,.34-1.61,.39-1.9,.39-2.34,0-.78-.21-1.4-.75-2.29,.6,.03,1.09,.36,1.82,1.3,.6,.75,.94,1.48,.94,1.98q0,.29-.42,1.14c-1.25,2.6-1.98,5.69-1.98,8.48,0,1.33,.1,2.16,.42,3.22l1.09-2.6,1.4-3.35,.39,.13Zm2.6-4.71c1.25,.81,2.05,1.07,3.35,1.07,.91,0,1.9-.13,2.96-.36v-1.14c0-2.91-.03-3.25-.36-3.61-.31-.34-.88-.52-1.72-.6,.36-.34,.57-.42,1.25-.42,.57,0,1.27,.1,1.77,.23,.75,.23,1.14,.55,1.14,.94,0,.18,0,.21-.23,.81-.29,.75-.44,1.69-.55,3.48,1.2-.34,1.95-.68,2.39-1.07,.26-.26,.34-.29,.57-.29,.31,0,.91,.16,1.22,.34,.21,.1,.34,.29,.34,.47,0,.57-1.9,1.35-4.6,1.87,0,3.46,.08,4.89,.34,7.07,3.02,.81,4.29,1.82,4.29,3.33,0,.55-.23,.96-.52,.96-.21,0-.39-.13-.91-.65-1.14-1.17-1.79-1.64-2.81-2.08,.03,.23,.03,.44,.03,.62,0,1.87-1.56,2.99-4.16,2.99-2.26,0-3.85-1.09-3.85-2.65,0-1.79,1.92-2.94,4.89-2.94,.49,0,.86,.03,1.59,.08v-.44l-.05-2.78-.03-3.33c-.78,.16-1.53,.21-2.29,.21-1.9,0-2.99-.47-4.29-1.82l.23-.29Zm3.98,9.49c-2.05,0-3.33,.68-3.33,1.82,0,.91,1.01,1.53,2.55,1.53,1.43,0,2.44-.42,2.86-1.22,.26-.47,.34-.86,.34-1.82-.73-.21-1.46-.31-2.42-.31Z"/></g><g><path class="d" d="M36.88,10.27c-.05,.57-.08,.81-.08,1.17,0,3.09,1.95,4.55,6.14,4.55,2.05,0,4.21-.36,5.75-.94,.16-.08,.31-.1,.44-.1,.39,0,.99,.23,1.43,.52,.36,.29,.57,.6,.57,.91,0,.39-.29,.68-.83,.81-1.2,.31-3.74,.52-6.06,.52-2.91,0-4.76-.36-6.06-1.25-1.3-.83-2.16-2.47-2.16-4.11,0-.62,.13-1.33,.42-2.18l.44,.1Zm.81-10.27c1.33,.88,2.24,1.14,3.98,1.14s3.9-.31,5.41-.78c.18-.05,.39-.1,.47-.1,.68,0,1.56,.78,1.56,1.35,0,.44-.16,.52-1.9,.91-1.01,.21-1.25,.31-3.8,1.27q-.62,.23-2.13,.88c-.52,.21-.52,.23-1.01,.42l-.18-.39c.81-.47,1.22-.73,1.9-1.09q1.77-.96,2.18-1.22c-.57,.05-1.48,.08-1.95,.08-.96,0-2.16-.29-2.96-.7-.68-.36-1.09-.73-1.82-1.51l.26-.26Z"/><path class="d" d="M43.22,41.6c2.81-.83,4.6-1.9,6.08-3.61,1.53-1.74,2.31-3.88,2.31-6.27,0-2.52-1.01-4.52-2.94-5.75-1.14-.75-2.86-1.2-4.5-1.2-.31,0-.49,0-.91,.05,.62,.91,.81,1.4,.81,2.16,0,2.03-1.46,5.82-3.43,9-1.64,2.6-2.91,3.87-3.88,3.87-.44,0-.86-.21-1.14-.55-.23-.31-.29-.42-.73-1.66-.23-.68-.39-.99-1.14-2.44-.42-.83-.6-1.53-.6-2.37,0-1.64,.88-3.56,2.34-5.15,2.11-2.24,5.54-3.64,8.94-3.64,2.63,0,5.04,.86,6.71,2.39s2.5,3.59,2.5,6.11c0,3.25-1.9,6.14-5.17,7.88-1.51,.81-2.86,1.22-5.07,1.61l-.18-.44Zm-8.55-8.09c0,1.25,.39,2.52,1.04,3.43,.36,.47,.7,.75,.99,.75,.57,0,1.82-1.4,3.09-3.43,1.92-3.07,3.3-6.42,3.3-8.03,0-.39-.08-.65-.36-1.3-4.52,.81-8.06,4.58-8.06,8.58Z"/><path class="d" d="M41.22,48.38c.62,0,1.33,.1,2.08,.31,.88,.23,1.3,.6,1.3,1.12q0,.21-.21,.73c-.29,.81-.52,2.42-.52,3.74v.49c.26,.23,.39,.29,.7,.29,.99,0,2.99-.78,3.95-1.53,.29-.21,.42-.29,.57-.29,.23,0,.75,.16,1.12,.34,.42,.23,.55,.39,.55,.62,0,.39-.34,.6-1.53,1.04-1.4,.52-2.65,.81-3.61,.81-.75,0-1.17-.16-1.74-.65v1.14c0,2.05,.13,5.1,.29,6.79,2.03,.34,3.95,1.01,5.49,1.9,1.12,.62,1.61,1.33,1.61,2.24,0,.62-.18,.99-.52,.99-.18,0-.34-.1-.62-.34-2.21-1.87-3.43-2.57-5.85-3.3q.05,1.22,.05,1.69c0,1.27-.6,2.11-1.85,2.57-.62,.23-1.72,.39-2.65,.39-2.73,0-4.45-1.09-4.45-2.83,0-1.25,.88-2.24,2.52-2.86,1.01-.39,2.42-.62,3.77-.62,.21,0,.55,0,.99,.03q-.16-10.45-.36-12.19c-.18-1.51-.57-1.92-2.26-2.21,.42-.31,.62-.39,1.2-.39Zm-.57,15.99c-2.68,0-4.6,.91-4.6,2.21,0,1.04,1.07,1.64,2.91,1.64,1.51,0,2.76-.42,3.25-1.07,.34-.42,.42-.96,.42-2.73-.83-.05-1.14-.05-1.98-.05Z"/><path class="d" d="M41.69,99.44c1.54-1.25,2.55-2.31,3.43-3.74,1.35-2.21,2.21-5.23,2.21-7.9s-.94-4.16-2.47-4.16c-1.38,0-3.2,1.12-4.99,3.07-.49,.49-.65,.6-1.07,.6-.55,0-1.17-.42-1.72-1.17-.44-.6-.7-1.27-.7-1.74,0-.34,.1-.57,.42-.96,.23,1.14,.75,1.79,1.43,1.79,.36,0,1.04-.29,2.39-1.01,2.21-1.2,3.07-1.48,4.39-1.48,1.2,0,2.47,.68,3.22,1.74,.62,.91,.99,2.26,.99,3.82,0,3.07-1.17,6.11-3.22,8.4-1.27,1.4-2.6,2.39-4.08,3.04l-.23-.29Zm-1.43-23.63c1.27,1.07,3.04,1.66,4.86,1.66h.6c.52,0,.88,.18,1.4,.62,.36,.31,.55,.62,.55,.88,0,.36-.36,.57-1.07,.57q-1.09,.03-6.47,1.59l-.13-.36c1.95-.88,3.74-1.69,4.39-1.92-2.13-.44-3.41-1.25-4.39-2.83l.26-.21Z"/><path class="d" d="M33.76,110.75c1.25,1.17,1.98,1.51,3.28,1.51,.68,0,1.38-.1,2.37-.31,.65-1.69,.94-2.78,.94-3.69,0-.86-.42-1.38-1.66-2,.29-.16,.42-.18,.62-.18,.52,0,1.33,.23,2.08,.6,.88,.44,1.22,.73,1.22,1.09,0,.21-.05,.36-.26,.68-.1,.21-.65,1.27-1.59,3.2,1.92-.68,2.16-.81,2.89-1.43,.21-.18,.29-.21,.54-.21,1.01,0,1.77,.34,1.77,.78,0,.68-1.61,1.33-5.75,2.29-.23,.52-.68,1.59-1.38,3.15-.78,1.79-2.78,6.16-3.02,6.6-.39,.7-.62,.94-.94,.94-.44,0-.81-.81-.81-1.85,0-.52,.05-.68,.29-.94,.57-.62,.88-1.01,1.25-1.56,1.27-1.9,2.21-3.67,3.25-6.11-.57,.08-.81,.1-1.22,.1-.94,0-1.64-.16-2.29-.55-.78-.44-1.38-1.07-1.9-1.9l.31-.21Zm13.75,1.46c1.79,.16,3.25,.62,4.45,1.43,1.01,.65,1.64,1.43,1.64,2.03,0,.44-.26,.75-.68,.75-.21,0-.36-.05-.6-.21-.73-.44-1.22-.55-2.55-.55-2.08,0-2.73,.57-2.73,2.37,0,.7,.13,1.82,.52,4.47,1.59,.47,2.94,1.09,3.69,1.69,.7,.55,1.04,1.22,1.04,2.05,0,.52-.21,.88-.52,.88-.26,0-.36-.08-.91-.68-.94-1.01-1.79-1.64-3.15-2.29v.49c0,1.04-.21,1.64-.73,2.21-.7,.7-1.92,1.12-3.38,1.12-2.34,0-3.95-1.12-3.95-2.76,0-1.82,1.98-3.09,4.86-3.09,.6,0,.88,.03,1.56,.13-.08-2.05-.08-2.26-.08-2.57,0-2.13,.21-2.94,.91-3.72,.52-.55,1.25-.91,2.47-1.22,.39-.1,.44-.13,1.4-.34-.7-.75-1.51-1.17-3.35-1.79l.08-.42Zm-1.4,11.39c-.81-.23-1.4-.31-2.24-.31-2.21,0-3.56,.75-3.56,1.98,0,.96,.99,1.53,2.6,1.53,2.11,0,3.2-.86,3.2-2.5v-.7Z"/><path class="d" d="M37.73,141.66c.55-.65,.7-.86,1.25-1.46,.81,.68,1.07,.91,1.82,1.64,.1,.13,.16,.18,.16,.26s-.1,.16-.29,.16h-4.13v6.58c1.14-.47,1.64-.7,2.96-1.33l.18,.36c-1.48,1.07-2.31,1.64-3.02,2.05q-2.65,1.64-3.3,2.05c-.05,.96-.13,1.27-.39,1.27-.1,0-.21-.08-.29-.26-.03-.05-.36-.88-1.01-2.52,.88-.23,1.85-.52,3.17-1.01v-7.2h-1.51c-.75,0-1.17,.03-1.66,.13l-.18-.94c.55,.16,1.09,.21,1.85,.21h1.51v-4.6c0-.94-.03-1.46-.1-2.42,2.52,.31,2.83,.39,2.83,.65,0,.21-.23,.34-1.04,.55v5.82h1.2Zm8.94,7.02c-1.12,1.69-1.79,2.55-2.83,3.48-1.72,1.59-3.67,2.7-6.45,3.69l-.21-.39c2.34-1.09,4-2.26,5.51-3.8,.88-.94,1.35-1.61,2.13-2.99h-2.24c-1.3,1.38-3.48,2.86-6.03,4.11l-.21-.39c1.95-1.22,2.99-2.11,4.42-3.72,.99-1.12,1.35-1.61,2.11-2.96h-2.21c-1.01,0-1.46,.03-2.16,.16l-.18-.99c.78,.18,1.33,.23,2.34,.23h11.18c.65-.7,.86-.91,1.51-1.56,.94,.7,1.22,.94,2.13,1.74,.1,.1,.16,.18,.16,.26,0,.1-.1,.16-.31,.16h-10.48c-.88,1.33-1.14,1.66-1.72,2.37h8.89c.42-.47,.54-.6,.96-.96,.68,.47,.88,.6,1.51,1.14,.16,.1,.21,.21,.21,.29,0,.21-.23,.39-.83,.65-.34,3.25-.88,5.9-1.38,6.89-.39,.75-1.4,1.3-2.86,1.53-.23-1.33-.52-1.51-3.09-1.87l.03-.44c1.59,.16,2.68,.23,3.35,.23s.94-.13,1.17-.65c.39-.83,.86-3.56,1.04-6.21h-1.35c-.96,2.08-1.66,3.15-2.91,4.45-1.17,1.2-2.81,2.42-4.6,3.41-.75,.42-1.33,.68-2.6,1.22l-.26-.36c2.52-1.33,4.24-2.68,6.08-4.76,1.2-1.35,1.69-2.13,2.5-3.95h-2.31Zm-3.28-5.23c0,.36-.29,.47-1.22,.47-.36,0-.47-.08-.47-.34,.05-1.85,.08-2.78,.08-3.64,0-3.09-.03-4.68-.08-5.62,.88,.47,1.17,.62,1.98,1.14h6.06c.44-.47,.57-.62,1.01-1.07,.68,.47,.88,.62,1.48,1.09,.18,.16,.26,.26,.26,.36,0,.16-.08,.23-.83,.62v1.53c0,1.07,.03,2.44,.05,5.23,0,.23-.05,.31-.26,.39-.18,.05-.78,.13-1.09,.13-.23,0-.34-.08-.34-.29v-.65h-6.63v.62Zm6.63-7.38h-6.63v2.68h6.63v-2.68Zm-6.63,3.28v2.89h6.63v-2.89h-6.63Z"/><path class="d" d="M31.29,176.6c2.89-2,4.99-4,7.33-6.94,1.22-1.53,2.34-3.22,2.86-4.29,.18-.39,.29-.68,.47-1.27,.6,.1,1.04,.21,1.33,.26,1.43,.29,1.74,.39,1.74,.62,0,.21-.31,.36-1.01,.49,1.27,2.13,3.02,3.95,5.36,5.64,2.21,1.59,4.32,2.57,6.73,3.22l-.05,.36c-1.09,.13-1.51,.49-2.05,1.72-2.42-1.25-3.82-2.26-5.72-4.24-1.92-1.95-2.78-3.15-4.65-6.45-1.85,2.94-3.48,4.89-5.88,7.05-2.08,1.85-3.77,3.02-6.16,4.21l-.29-.39Zm6.42,10.24c0,.23-.03,.31-.16,.36-.23,.08-.83,.16-1.35,.16-.29,0-.36-.08-.36-.36,.05-4.06,.08-5.33,.08-6.4,0-2.05-.03-3.02-.08-4,.96,.55,1.25,.73,2.08,1.33h10.5c.42-.57,.57-.75,1.07-1.33,.73,.55,.96,.73,1.66,1.33,.21,.18,.26,.26,.26,.36,0,.16-.23,.34-.86,.55q0,3.8,.1,7.83v.1c0,.21-.05,.29-.23,.34-.18,.08-1.04,.18-1.33,.18-.26,0-.39-.1-.39-.31v-1.22h-11v1.09Zm-.03-13.55c.75,.13,1.38,.21,1.92,.21h5.43c.6-.65,.78-.88,1.38-1.56,.94,.73,1.25,.94,2.18,1.72,.13,.13,.21,.23,.21,.31,0,.1-.05,.13-.34,.13h-8.87c-.49,0-.88,.03-1.71,.16l-.21-.96Zm.03,11.86h11v-6.63h-11v6.63Z"/><path class="d" d="M38.65,203.66c-.05,.23-.44,1.87-1.17,4.89-.37,1.53-.44,1.95-.44,2.76,0,.75-.03,.96-.08,1.12-.1,.29-.34,.44-.62,.44-.44,0-.83-.36-1.12-1.07-.57-1.35-.91-3.46-.91-5.54,0-.78,.08-1.74,.21-2.78q.18-1.51,.91-4.92c.26-1.22,.36-1.87,.36-2.42,0-.86-.21-1.51-.73-2.44,.57,.03,1.04,.36,1.74,1.27,.65,.81,.96,1.48,.96,2.05,0,.42-.03,.52-.55,1.56-.52,1.09-1.14,2.91-1.4,4.13-.23,.99-.34,2.11-.34,3.22,0,1.43,.13,2.34,.49,3.43,.44-.91,.65-1.43,.94-2.21l1.38-3.64,.36,.13Zm3.28,1.3c-.05,.52-.08,.75-.08,1.09,0,2.86,1.64,4.03,5.67,4.03,.75,0,1.51-.05,2.21-.18q.55-.08,1.38-.42c.16-.05,.29-.08,.39-.08,.68,0,1.64,.91,1.64,1.53,0,.31-.21,.52-.57,.65-.55,.18-1.79,.29-3.25,.29-3.25,0-5.56-.55-6.73-1.59-.94-.86-1.4-1.95-1.4-3.38,0-.65,.08-1.22,.31-2.05l.44,.1Zm-.05-8.27c.91,.55,1.48,.7,2.42,.7,1.61,0,4.13-.57,5.23-1.17,.34-.18,.39-.21,.57-.21,.21,0,.55,.13,.91,.36,.55,.31,.81,.62,.81,.96s-.18,.49-.73,.6c-1.72,.26-2.68,.49-3.69,.91-.81,.34-2.31,1.17-3.35,1.85l-.26-.26c1.17-.99,2.05-1.72,2.47-2.03-.55,.03-.83,.05-1.07,.05-1.46,0-2.42-.39-3.54-1.46l.23-.31Z"/></g><g><path class="d" d="M13.13,17.6c-.13,0-.23,0-.36,.03-1.48,1.09-2.99,1.87-4.81,2.55,1.3,.39,2.68,.52,5.28,.52,3.07,0,6.37-.13,11.34-.49v.34c-.88,.21-1.17,.55-1.53,1.82-1.25,.08-2.11,.1-3.48,.1-4.97,0-6.5-.03-7.64-.08-2.21-.13-3.38-.44-4.63-1.25-1.27-.78-1.92-1.56-2.73-3.33-.78,1.4-1.85,2.96-2.57,3.8,.05,.34,.1,.68,.1,.83,0,.26-.16,.47-.31,.47-.26,0-.49-.39-1.66-2.7,1.09-.47,1.95-.99,3.33-2v-7.12H1.82c-.47,0-1.01,.08-1.48,.18l-.34-1.01c.75,.16,1.33,.23,1.82,.23h1.48c.39-.49,.52-.62,.96-1.14,.7,.47,.88,.62,1.51,1.14,.13,.13,.18,.23,.18,.31,0,.18-.23,.39-.83,.78v6.24c.65,1.22,1.2,1.74,2.34,2.18,.91-.62,1.27-.88,1.95-1.53,.99-.94,1.59-1.61,1.95-2.21,.96,.26,2.31,.65,2.52,.75,.13,.05,.18,.1,.18,.21,0,.08-.05,.18-.1,.23-.08,.05-.26,.1-.47,.13l-.36,.03ZM1.09,.16c1.12,.78,2.05,1.53,3.22,2.6,.57,.52,.78,.91,.78,1.43,0,.75-.62,1.85-1.04,1.85-.29,0-.44-.26-.91-1.59C2.68,3.12,1.92,1.85,.81,.44l.29-.29Zm15.65,11.08v-.73q-.05-1.4-.18-1.85c.91,.08,1.92,.21,2.37,.34,.18,.05,.29,.13,.29,.23,0,.18-.23,.31-.91,.6v1.4h1.4c.49-.62,.62-.83,1.14-1.46,.94,.7,1.22,.94,2.13,1.72,.03,.05,.08,.13,.08,.16,0,.1-.13,.18-.34,.18h-4.42v3.15h2.47c.52-.73,.7-.94,1.22-1.61,.96,.78,1.25,1.01,2.11,1.82,.05,.08,.1,.16,.1,.18,0,.1-.13,.21-.26,.21H8.04c-.26,0-1.09,.1-1.35,.18l-.26-1.01c.86,.16,1.33,.23,1.64,.23h3.15v-3.15h-2.05c-.6,0-1.04,.03-1.51,.13l-.21-.91c.62,.13,1.07,.18,1.72,.18h2.05v-.75c0-.75-.05-1.33-.21-1.79,2.16,.18,2.6,.29,2.6,.6,0,.18-.1,.23-.83,.52v1.43h3.98ZM8.74,4.34v1.9c0,.31,.05,.47,.18,.55,.1,.08,.7,.1,2.05,.1,.96,0,1.92-.05,2.11-.1,.34-.13,.55-.44,1.17-1.74l.31,.05-.1,1.14v.18q0,.1,.23,.21c.18,.08,.36,.36,.36,.6,0,.29-.21,.55-.57,.68-.31,.1-2.11,.23-3.38,.23-2.76,0-3.41-.1-3.69-.55q-.16-.23-.16-3.48c0-.73,0-.83-.05-1.35,.81,.39,1.04,.52,1.82,.99h3.54V1.53h-4.08c-.34,0-.83,.05-1.48,.16l-.18-.96c.52,.13,1.2,.21,1.66,.21h4.03c.34-.42,.44-.55,.81-.94,.65,.39,.83,.52,1.43,.94,.1,.08,.16,.16,.16,.23,0,.16-.29,.42-.83,.7q.03,.62,.03,1.43,.03,.55,.03,1.14c-.05,.1-.08,.18-.16,.21-.16,.05-.62,.1-1.07,.1-.21-.03-.29-.1-.34-.31v-.1h-3.82Zm4.03,10.63h3.98v-3.15h-3.98v3.15Zm4.73-10.63v2.05c0,.26,.16,.36,.68,.36h.36c.29,0,.73,.03,1.3,.05h.1c.75,0,1.61-.05,1.77-.13,.26-.1,.36-.26,1.09-1.64l.29,.08-.1,.96c-.03,.1-.03,.21-.03,.23,0,.1,.05,.18,.34,.34,.31,.18,.42,.31,.42,.52,0,.31-.31,.6-.73,.7-.55,.16-1.66,.21-3.74,.21-1.92,0-2.57-.08-2.89-.39s-.31-.31-.31-3.72c0-.65-.03-.81-.08-1.33,.81,.36,1.07,.49,1.85,1.09h3.38V1.53h-4.03c-.31,0-1.07,.08-1.38,.13l-.23-.88c.44,.08,1.25,.16,1.61,.16h3.87c.34-.42,.44-.55,.75-.94,.6,.36,.75,.49,1.33,.94,.16,.13,.23,.21,.23,.29,0,.16-.05,.18-.65,.6V3.87c0,.05,0,.26,.03,.57-.05,.29-.36,.39-1.17,.39-.26,0-.34-.05-.36-.23v-.26h-3.69Zm-.91,11.86c1.3,.26,3.85,1.01,4.45,1.33,.52,.29,.88,.96,.88,1.72,0,.49-.1,.7-.39,.7-.13,0-.39-.08-.57-.18q-.26-.16-1.25-1.01c-1.22-1.09-2.11-1.69-3.3-2.21l.18-.34Z"/><path class="d" d="M7.31,41.94c-1.46,5.41-1.85,7.07-1.85,7.85v.1c-.03,.83-.03,.94-.18,1.14-.1,.18-.29,.29-.49,.29-.44,0-.81-.36-1.12-1.17-.52-1.33-.83-3.3-.83-5.23,0-2.39,.29-4.58,1.17-8.66,.34-1.61,.39-1.9,.39-2.34,0-.78-.21-1.4-.75-2.29,.6,.03,1.09,.36,1.82,1.3,.6,.75,.94,1.48,.94,1.98q0,.29-.42,1.14c-1.25,2.6-1.98,5.69-1.98,8.45,0,1.35,.1,2.18,.42,3.25,.18-.42,.55-1.3,1.09-2.63,.29-.68,.91-2.16,1.4-3.33l.39,.13Zm2.6-4.71c1.25,.81,2.05,1.07,3.35,1.07,.91,0,1.9-.13,2.96-.36v-1.14c0-2.91-.03-3.25-.36-3.61-.31-.34-.88-.52-1.72-.6,.36-.34,.57-.42,1.25-.42,.57,0,1.27,.1,1.77,.23,.75,.23,1.14,.55,1.14,.94,0,.18,0,.21-.23,.81-.29,.7-.44,1.77-.54,3.48,1.09-.31,1.92-.68,2.39-1.07,.26-.26,.34-.29,.57-.29,.31,0,.91,.16,1.22,.34,.21,.1,.34,.29,.34,.47,0,.57-1.9,1.35-4.6,1.87,0,3.15,.08,5.07,.34,7.07,3.02,.81,4.29,1.79,4.29,3.33,0,.55-.23,.96-.52,.96-.21,0-.39-.13-.91-.65-.94-.99-1.9-1.72-2.81-2.08,.03,.23,.03,.44,.03,.62,0,1.87-1.56,2.99-4.16,2.99-2.26,0-3.85-1.09-3.85-2.65,0-1.79,1.92-2.94,4.89-2.94,.49,0,.86,.03,1.59,.08v-.44l-.05-2.78-.03-3.33c-.78,.13-1.53,.21-2.29,.21-1.9,0-2.99-.47-4.29-1.82l.23-.29Zm3.98,9.49c-2.05,0-3.33,.68-3.33,1.79,0,.94,.99,1.53,2.55,1.53,1.46,0,2.44-.42,2.86-1.22,.26-.44,.34-.83,.34-1.79-.73-.21-1.46-.31-2.42-.31Zm4.97-16.54c.99,.57,1.64,1.04,2.26,1.61,.91,.86,1.27,1.46,1.27,2.08s-.31,1.09-.73,1.09q-.34,0-1.14-1.69c-.47-.91-1.3-2.05-2-2.73l.34-.36Zm2.57-1.51c.94,.44,1.66,.88,2.44,1.48,.99,.78,1.33,1.3,1.33,2.03,0,.6-.26,1.04-.62,1.04-.23,0-.39-.13-.6-.49-.88-1.64-1.4-2.31-2.83-3.69l.29-.36Z"/><path class="d" d="M6.58,65.78q.03-.42,.05-1.09,.05-.52,.08-.91c-.78,.52-2.16,1.46-2.63,1.79-.49,.34-.65,.42-.88,.42-.68,0-1.92-1.53-1.92-2.37,0-.05,.03-.26,.08-.44,.57,.83,1.14,1.25,1.69,1.25s2.21-.7,3.74-1.56c.13-1.09,.18-1.82,.18-2.76,0-1.51-.23-1.95-1.48-2.89,.16-.1,.21-.13,.34-.13,.42,0,.99,.26,1.66,.7,.83,.57,1.35,1.22,1.35,1.72q0,.29-.26,1.07c-.18,.49-.36,1.33-.47,2.05,.57,.6,.75,.81,.75,1.01,0,.16-.03,.21-.37,.75-.31,.57-.57,1.07-.83,1.69-.05,.44-.05,.55-.05,.96,2.55-2.42,3.41-3.17,4.52-3.98,1.82-1.3,3.04-1.85,4.19-1.85,.81,0,1.53,.34,2.05,.94,.49,.57,.7,1.27,.7,2.29s-.03,1.17-.52,3.85c-.31,1.69-.47,3.2-.47,4.26s.18,1.59,.65,1.92c.36,.26,.83,.39,1.33,.39,1.3,0,3.12-.68,4.84-1.85l.21,.31c-1.87,1.92-3.9,2.99-5.75,2.99-1.98,0-3.04-1.27-3.04-3.64,0-.94,.23-2.6,.65-4.63,.6-2.78,.65-3.15,.65-4.11,0-1.27-.57-2-1.59-2-1.12,0-2.47,.78-4.55,2.63-1.35,1.2-2.57,2.47-3.95,4.11-.03,.62-.03,.96-.03,1.35,0,1.4,.08,2.65,.26,4.65,.08,.62,.08,.83,.08,1.22,0,1.48-.49,2.7-1.12,2.7-.29,0-.49-.21-.62-.7-.08-.26-.36-1.07-.44-1.25-.29-.52-1.12-1.59-2.29-2.83-.52,1.25-.62,1.4-.88,1.4-.23,0-.44-.21-.6-.6-.16-.42-.29-1.04-.29-1.43,0-.31,.03-.36,.44-.78,.42-.39,.83-.96,1.69-2.31l2.83-4.34Zm-1.59,4.86c-.6,1.14-.88,1.72-1.38,2.76,1.53,1.27,2,1.64,2.76,2.11q.05-.99,.08-4.86c0-1.27,.03-1.87,.1-2.94-.36,.75-.39,.75-1.56,2.94Z"/><path class="d" d="M2.91,87.44c.36,.34,.65,.44,1.17,.44,.73,0,1.38-.13,7.2-1.53,1.09-.26,2.5-.57,4.21-.91,1.98-.39,2.73-.57,3.51-.83,.52-.16,.7-.21,.91-.21,.31,0,.88,.23,1.4,.55,.52,.34,.75,.62,.75,.99,0,.39-.31,.65-.81,.65-.1,0-.29,0-.47-.03-.34-.05-.47-.05-.73-.05-4.45,0-8.74,4.24-8.74,8.61,0,2.39,1.2,4.16,3.43,5.12,.86,.36,1.9,.6,2.65,.62,.52,0,.7,.08,1.09,.42,.47,.47,.78,.94,.78,1.25,0,.44-.39,.73-.96,.73-1.48,0-3.82-.83-5.28-1.87-1.98-1.4-3.02-3.41-3.02-5.82,0-2.11,1.04-4.42,2.83-6.34,1.04-1.14,2.08-1.85,4.24-2.96-2.37,.34-4.5,.83-7.46,1.79-1.64,.52-3.33,1.22-4.16,1.66-.52,.31-.7,.36-1.04,.36-.62,0-1.4-.6-2-1.53-.42-.62-.68-1.33-.68-1.74,0-.21,.05-.36,.29-.68,.23,.62,.44,.96,.86,1.33Z"/><path class="d" d="M11.15,116.58c-1.9,4.37-2.44,5.9-2.44,6.94q0,.21,.16,.88c.03,.13,.05,.29,.05,.42,0,.36-.26,.65-.57,.65-.73,0-2.05-1.01-2.86-2.21-.88-1.27-1.51-3.12-1.77-5.2-.16-1.14-.18-1.79-.18-4.58-.03-2.42-.21-3.02-1.33-4.47h.23c.42,0,1.17,.49,1.95,1.27,.78,.75,1.17,1.46,1.17,2.05,0,.16-.03,.36-.08,.68-.31,1.59-.47,2.81-.47,3.87,0,1.4,.21,2.7,.6,3.77,.39,1.07,.7,1.53,1.35,2.03q.29-.42,.86-1.38,.83-1.4,2.18-3.67,.42-.68,.75-1.25l.39,.18Zm5.54-4.71c3.28,.73,5.88,4.19,5.88,7.77,0,1.25-.52,2.05-1.3,2.05-.26,0-.42-.05-.78-.29-.34-.23-.83-.31-1.95-.31-.6,0-1.09,0-1.98,.05l-.08-.39c2.11-.57,3.28-.91,3.51-.99,.52-.18,.6-.29,.6-.78,0-.96-.36-2.47-.81-3.41-.7-1.51-1.74-2.6-3.22-3.41l.13-.31Z"/><path class="d" d="M4.08,135.2c1.38,1.14,2.21,1.4,4.19,1.4,1.12,0,2.13-.08,3.72-.31-.1-3.98-.29-4.34-2.26-4.63,.36-.36,.57-.42,1.3-.42s1.59,.13,2.18,.34c.62,.21,.88,.47,.88,.86q0,.16-.34,.88c-.23,.49-.39,1.4-.47,2.76,2.57-.49,3.98-.94,4.84-1.53,.08-.05,.23-.1,.31-.1,.31,0,1.07,.23,1.35,.44,.29,.18,.44,.39,.44,.62,0,.36-.42,.57-2.03,.96-1.77,.42-3.41,.73-4.97,.91-.03,.68-.03,1.07-.03,1.66,0,.7,0,1.22,.03,2.37,1.07-.18,2.08-.42,2.96-.7,.68-.23,.81-.31,1.3-.65,.1-.08,.23-.1,.39-.1,.36,0,1.01,.18,1.33,.39,.21,.1,.31,.29,.31,.49,0,.47-.36,.68-2,1.12-1.3,.34-2.99,.65-4.24,.75,.05,1.01,.05,1.43,.08,2.34,.05,.99,.08,1.38,.16,2.03,2.39,.44,4.68,1.33,5.72,2.24,.49,.44,.75,1.04,.75,1.72,0,.55-.23,.91-.57,.91-.26,0-.36-.08-1.04-.73-.44-.42-1.43-1.17-2.18-1.61-.88-.52-1.53-.81-2.6-1.09,.05,.57,.08,.83,.08,1.14,0,1.01-.29,1.69-.88,2.18-.73,.6-2.08,.96-3.48,.96-2.6,0-4.39-1.14-4.39-2.78,0-1.85,2.42-3.15,5.88-3.15,.42,0,.68,0,1.3,.03-.03-1.25-.03-1.43-.03-1.79v-2.26c-1.04,.05-1.53,.08-1.92,.08-1.69,0-2.83-.18-3.46-.57-.75-.44-1.17-1.17-1.17-1.98,0-.18,.03-.44,.05-.73l.39,.03c.03,.81,.16,1.17,.54,1.48,.42,.36,1.54,.57,3.04,.57,.73,0,1.35-.05,2.52-.18v-1.82l-.05-1.9v-.31c-1.43,.13-2.47,.18-3.35,.18-2.47,0-3.54-.49-4.84-2.24l.26-.26Zm5.77,12.79c-1.01,0-2.03,.18-2.83,.49-.94,.36-1.4,.88-1.4,1.56,0,.94,1.07,1.48,2.83,1.48,1.27,0,2.34-.34,2.96-.94,.34-.31,.49-.7,.57-1.35,.03-.18,.05-.78,.05-.99v-.08c-1.01-.13-1.48-.18-2.18-.18Z"/><path class="d" d="M8.32,180.57c3.02-2.05,4.29-3.72,4.94-6.5-.6,.36-1.07,.52-1.66,.52-1.82,0-3.2-1.61-3.2-3.74,0-2.29,1.43-3.98,3.35-3.98,.49,0,.78,.08,1.46,.44,0-.44,.03-1.87,.03-2.7,0-.05,0-.29-.03-.52-2.03,.18-4.45,.68-6.55,1.3-.65,.21-1.09,.39-1.69,.7-.16,.05-.44,.13-.6,.13-.47,0-1.07-.36-1.66-.99-.57-.62-1.04-1.48-1.04-1.9,0-.05,.05-.18,.13-.31,.68,.88,1.48,1.33,2.52,1.33,.52,0,1.09-.05,2.24-.23,3.07-.49,4-.62,6.66-.91,0-1.56-.08-2.31-.29-2.89-.29-.73-.91-1.09-2.24-1.27,.31-.39,.49-.47,1.2-.47,.88,0,1.77,.13,2.52,.36,.62,.21,.99,.55,.99,.91,0,.21-.03,.26-.26,.7-.29,.55-.47,1.27-.57,2.52q.68-.08,1.69-.16c2.5-.18,2.78-.23,3.46-.47,.65-.26,.75-.29,.96-.29,.52,0,1.56,.44,2.21,.96,.31,.23,.42,.42,.42,.7s-.18,.44-.57,.44c-.18,0-.23,0-1.4-.16-1.35-.18-2.47-.26-4-.26-.96,0-1.72,.03-2.78,.1-.1,.99-.18,2.57-.18,3.54,0,.18,0,.49,.03,.88,.65,1.33,.83,2.13,.83,3.46,0,2.55-1.01,4.91-2.81,6.6-.99,.94-2.26,1.77-3.87,2.47l-.21-.34Zm3.3-13.08c-1.17,0-2.08,1.22-2.08,2.81s.88,2.83,2.11,2.83c1.12,0,1.66-.83,1.66-2.44,0-2.16-.55-3.2-1.69-3.2Z"/></g></g></g></g></svg>