<?xml version="1.0" encoding="UTF-8"?><svg xmlns="http://www.w3.org/2000/svg" viewBox="0 0 54.32 207.85"><defs><style>.d{fill:#42210b;}</style></defs><g id="a"/><g id="b"><g id="c"><g><g><path class="d" d="M29.52,12.51c2.89-2,4.99-4,7.33-6.94,1.22-1.53,2.34-3.22,2.86-4.29,.18-.39,.29-.68,.47-1.27,.6,.1,1.04,.21,1.33,.26,1.43,.29,1.74,.39,1.74,.62,0,.21-.31,.36-1.01,.49,1.27,2.13,3.02,3.95,5.36,5.64,2.21,1.59,4.32,2.57,6.73,3.22l-.05,.36c-1.09,.13-1.51,.49-2.05,1.72-2.42-1.25-3.82-2.26-5.72-4.24-1.92-1.95-2.78-3.15-4.65-6.45-1.85,2.94-3.48,4.89-5.88,7.05-2.08,1.85-3.77,3.02-6.16,4.21l-.29-.39Zm6.42,10.24c0,.23-.03,.31-.16,.36-.23,.08-.83,.16-1.35,.16-.29,0-.36-.08-.36-.36,.05-4.06,.08-5.33,.08-6.4,0-2.05-.03-3.02-.08-4,.96,.55,1.25,.73,2.08,1.33h10.5c.42-.57,.57-.75,1.07-1.33,.73,.55,.96,.73,1.66,1.33,.21,.18,.26,.26,.26,.36,0,.16-.23,.34-.86,.55q0,3.8,.1,7.83v.1c0,.21-.05,.29-.23,.34-.18,.08-1.04,.18-1.33,.18-.26,0-.39-.1-.39-.31v-1.22h-11v1.09Zm-.03-13.55c.75,.13,1.38,.21,1.92,.21h5.43c.6-.65,.78-.88,1.38-1.56,.94,.73,1.25,.94,2.18,1.72,.13,.13,.21,.23,.21,.31,0,.1-.05,.13-.34,.13h-8.87c-.49,0-.88,.03-1.72,.16l-.21-.96Zm.03,11.86h11v-6.63h-11v6.63Z"/><path class="d" d="M33.76,44.03q0,2.18,.05,6.29c-.03,.39-.34,.49-1.4,.49-.47,0-.62-.1-.62-.39,.08-2.78,.13-8.45,.13-12.09,0-4.97-.03-8.79-.08-10.06,.99,.49,1.27,.65,2.26,1.14h15.29c.39-.57,.52-.73,.94-1.27,.83,.52,1.07,.7,1.82,1.27,.18,.16,.29,.26,.29,.36s-.08,.18-.29,.36c-.03,.03-.08,.05-.13,.1-.1,.08-.29,.21-.49,.36v10.58q0,.91,.05,5.38v2.13c-.03,.68-.18,.91-.78,1.25-.62,.34-1.33,.55-2.57,.73-.29-.91-.47-1.2-.91-1.43-.42-.23-.57-.26-2.86-.55v-.39q3.22,.13,4.76,.18h.13c.21,0,.31-.08,.31-.29V30.01h-15.89v14.01Zm1.22-10.74c1.3,.26,1.9,.34,2.6,.34h7.33c.47-.57,.91-1.14,1.33-1.69,.94,.78,1.22,1.01,2.13,1.82,.08,.1,.13,.18,.13,.23,0,.13-.13,.23-.29,.23h-10.74c-.47,0-.86,.05-2.16,.26l-.34-1.2Zm3.8,12.43c0,.21-.05,.29-.21,.36-.13,.05-.7,.13-1.04,.13-.39,0-.57-.1-.57-.31v-.08c.08-2.03,.1-3.02,.1-4.68,0-2.6-.03-3.77-.1-4.84,.94,.39,1.22,.55,2.11,1.01h5.28c.39-.49,.52-.65,.94-1.17,.73,.49,.94,.65,1.59,1.17,.16,.13,.23,.23,.23,.29,0,.13-.18,.31-.75,.78-.03,.99-.03,1.72-.03,2.21,0,2.26,.03,3.54,.1,4.89,0,.42-.26,.52-1.27,.52-.34,0-.47-.1-.47-.42v-1.56h-5.9v1.69Zm0-2.29h5.9v-5.51h-5.9v5.51Z"/><path class="d" d="M44.81,66.34c2.11-1.01,3.48-1.9,4.73-3.09,1.87,1.01,2.21,1.22,2.21,1.4,0,.16-.18,.23-.49,.23-.1,0-.6-.03-.94-.03-1.77,.86-3.51,1.48-5.51,1.95v1.48c0,.36,.05,.44,.31,.49,.18,.03,1.43,.08,2.13,.08,.23,0,.62,0,1.3-.03h1.07c.99,0,1.12-.03,1.27-.29,.18-.29,.73-1.64,1.17-2.89l.31,.03-.16,2.05v.6q0,.13,.47,.31c.36,.1,.55,.31,.55,.62,0,.86-.7,.99-5.54,.99-4.19,0-4.42-.08-4.47-1.4v-6.66h-5.36c-.62,.96-.96,1.4-1.59,2.08h3.67c.44-.42,.57-.52,1.04-.91,.6,.47,.78,.6,1.35,1.07,.18,.16,.23,.23,.23,.31,0,.16-.13,.21-1.01,.49-1.72,2.5-3.09,3.77-5.56,5.07-1.82,.96-3.56,1.59-6.03,2.16l-.13-.42c3.02-1.09,4.94-2.08,6.76-3.48-.21-.03-.26-.08-.42-.29-.62-.91-1.38-1.66-2-2.03-1.69,1.33-2.5,1.82-4,2.47l-.23-.36c1.61-1.04,2.68-2,4.13-3.64,.86-.99,1.33-1.61,1.85-2.52h-3.04c-1.12,0-1.3,0-2.21,.16l-.18-1.01c.81,.18,1.48,.26,2.39,.26h16.56c.68-.73,.88-.96,1.59-1.66,.99,.81,1.27,1.07,2.24,1.9,.05,.08,.1,.16,.1,.21,0,.1-.1,.16-.29,.16h-8.27v4.13Zm-.88-8.27c0-.13,.03-.18,.03-.21,0-1.14-.05-1.72-.13-2.18,2.24,.23,2.89,.36,2.89,.6,0,.18-.21,.29-1.09,.52q-.03,.99-.03,1.27h4c.73-.78,.96-1.01,1.66-1.72,1.04,.83,1.38,1.09,2.44,1.95,.05,.08,.1,.16,.1,.21,0,.1-.1,.16-.26,.16h-7.96c0,.55,0,.78,.03,1.48-.03,.31-.26,.36-1.43,.36-.26,0-.31-.05-.31-.23,.03-.83,.05-1.12,.05-1.61h-4.99v.31l-.03,.47c0,.16,.03,.34,.05,.68,0,.16-.03,.21-.1,.26-.1,.08-.68,.13-1.4,.13-.16,0-.23-.05-.26-.21,.05-.88,.08-1.17,.08-1.64h-4.97c-1.09,0-1.3,.03-2.08,.13l-.18-.94c.73,.16,1.25,.21,2.26,.21h4.97c.03-.29,.03-.52,.03-.73,0-.7-.03-.99-.1-1.66,.55,.08,1.01,.13,1.3,.16,1.25,.13,1.53,.21,1.53,.44,0,.18-.23,.29-1.09,.52v1.27h4.99Zm-6.5,14.92c.05-.52,.08-.83,.08-1.27,0-.42-.03-.65-.1-1.12,.55,.08,.96,.16,1.25,.18,1.12,.16,1.56,.29,1.56,.47s-.13,.23-.96,.52c-.08,.78-.08,.88-.13,1.22h4.81c0-1.3-.03-1.33-.1-2.18,2.5,.23,2.7,.26,2.7,.49,0,.18-.05,.21-.91,.57v1.12h3.98c.7-.81,.91-1.04,1.61-1.74,1.07,.81,1.38,1.07,2.39,1.95,.05,.08,.1,.16,.1,.21,0,.08-.13,.18-.23,.18h-7.88v1.59c0,.65,0,.81,.05,3.82,0,.13-.05,.18-.13,.23-.13,.08-.81,.16-1.38,.16-.23,0-.31-.08-.31-.29,.08-1.74,.1-2.47,.1-3.8v-1.72h-4.89c-.34,1.77-.81,2.7-1.74,3.54-1.61,1.43-3.82,2.24-7.02,2.57l-.1-.39c3.04-.75,4.58-1.46,5.69-2.63,.75-.78,1.2-1.69,1.46-3.09h-4.73c-.96,0-1.35,.03-2.03,.16l-.18-.94c.75,.16,1.2,.18,2.21,.18h4.84Zm-1.72-8.11c-.49,.49-.75,.73-1.27,1.17,.49,.08,.96,.21,1.61,.44,.88,.34,1.17,.57,1.17,1.01,0,.31-.08,.52-.21,.75,1.27-1.07,2.03-1.95,2.94-3.38h-4.24Z"/><path class="d" d="M49.04,94.9c.44-.57,.57-.75,1.07-1.35,.81,.52,1.04,.7,1.74,1.22,.23,.21,.34,.34,.34,.47,0,.23-.23,.42-.99,.78v6.4c0,1.07,0,1.61,.05,4.76,0,.26-.05,.36-.21,.44-.21,.1-.75,.18-1.3,.18-.34,0-.44-.08-.47-.31v-1.07h-15.44c-1.01,0-1.35,.03-2.29,.16l-.16-.94c.83,.13,1.38,.18,2.39,.18h15.5v-5.15h-14.27c-1.14,0-1.51,.03-2.34,.13l-.18-.94c.83,.13,1.4,.18,2.52,.18h14.27v-4.52h-15.47c-.62,0-1.14,.03-2.05,.13l-.21-.96c.68,.1,1.66,.21,2.31,.21h6.68v-7.38c0-1.07-.03-1.66-.16-2.94,.65,.08,1.12,.13,1.43,.16,1.4,.16,1.79,.26,1.79,.55,0,.26-.36,.44-1.2,.57v9.05h6.63Zm-16.61-8.97c1.38,1.01,2.83,2.42,4.06,3.87,.47,.57,.78,1.27,.78,1.74,0,.91-.68,2.18-1.17,2.18-.23,0-.26-.08-.6-1.07-.99-2.83-1.48-3.8-3.38-6.5l.31-.23Zm16.35-.23c2.94,.91,3.09,.96,3.09,1.22,0,.29-.34,.42-1.48,.6-2.52,3.59-3.25,4.5-5.36,6.81l-.42-.21c.83-1.25,1.22-1.98,2.76-5.02,.49-1.01,.49-1.04,1.01-2.37l.39-1.04Z"/><path class="d" d="M34.25,116.95c0-1.92-.03-2.57-.08-4.29,.91,.52,1.2,.7,2.08,1.3h10.89c.47-.52,.6-.68,1.07-1.17,.73,.49,.96,.65,1.66,1.17,.21,.16,.29,.26,.29,.34,0,.16-.23,.36-.88,.73l-.03,8.24c0,2,.05,5.59,.18,10.76v.08c0,.13-.08,.23-.21,.29-.16,.08-.94,.18-1.4,.18-.36,0-.44-.03-.44-.18v-1.82h-11.28v1.77c0,.13-.03,.18-.08,.23-.16,.13-.88,.23-1.56,.23-.29,0-.36-.08-.39-.34,.1-2.34,.1-2.7,.13-8.24l.05-9.28Zm13.13-2.39h-11.28v8.16h11.28v-8.16Zm-11.28,8.76v8.66h11.28v-8.66h-11.28Z"/><path class="d" d="M33.42,143.64c1.38,1.14,2.21,1.4,4.19,1.4,1.12,0,2.13-.08,3.72-.31-.1-3.98-.29-4.34-2.26-4.63,.36-.36,.57-.42,1.3-.42s1.59,.13,2.18,.34c.62,.21,.88,.47,.88,.86q0,.16-.34,.88c-.23,.49-.39,1.4-.47,2.76,2.57-.49,3.98-.94,4.84-1.53,.08-.05,.23-.1,.31-.1,.31,0,1.07,.23,1.35,.44,.29,.18,.44,.39,.44,.62,0,.36-.42,.57-2.03,.96-1.77,.42-3.41,.73-4.97,.91-.03,.68-.03,1.07-.03,1.66,0,.7,0,1.22,.03,2.37,1.07-.18,2.08-.42,2.96-.7,.68-.23,.81-.31,1.3-.65,.1-.08,.23-.1,.39-.1,.36,0,1.01,.18,1.33,.39,.21,.1,.31,.29,.31,.49,0,.47-.36,.68-2,1.12-1.3,.34-2.99,.65-4.24,.75,.05,1.01,.05,1.43,.08,2.34,.05,.99,.08,1.38,.16,2.03,2.39,.44,4.68,1.33,5.72,2.24,.49,.44,.75,1.04,.75,1.72,0,.55-.23,.91-.57,.91-.26,0-.36-.08-1.04-.73-.44-.42-1.43-1.17-2.18-1.61-.88-.52-1.53-.81-2.6-1.09,.05,.57,.08,.83,.08,1.14,0,1.01-.29,1.69-.88,2.18-.73,.6-2.08,.96-3.48,.96-2.6,0-4.39-1.14-4.39-2.78,0-1.85,2.42-3.15,5.88-3.15,.42,0,.68,0,1.3,.03-.03-1.25-.03-1.43-.03-1.79v-2.26c-1.04,.05-1.53,.08-1.92,.08-1.69,0-2.83-.18-3.46-.57-.75-.44-1.17-1.17-1.17-1.98,0-.18,.03-.44,.05-.73l.39,.03c.03,.81,.16,1.17,.55,1.48,.42,.36,1.53,.57,3.04,.57,.73,0,1.35-.05,2.52-.18v-1.82l-.05-1.9v-.31c-1.43,.13-2.47,.18-3.35,.18-2.47,0-3.54-.49-4.84-2.24l.26-.26Zm5.77,12.79c-1.01,0-2.03,.18-2.83,.49-.94,.36-1.4,.88-1.4,1.56,0,.94,1.07,1.48,2.83,1.48,1.27,0,2.34-.34,2.96-.94,.34-.31,.49-.7,.57-1.35,.03-.18,.05-.78,.05-.99v-.08c-1.01-.13-1.48-.18-2.18-.18Z"/><path class="d" d="M31.96,169.18c.36,.34,.65,.44,1.17,.44,.73,0,1.38-.13,7.23-1.53,.94-.23,2.42-.57,4.21-.91,1.82-.36,2.73-.6,3.51-.86,.52-.16,.7-.21,.91-.21,.31,0,.88,.23,1.4,.55,.52,.31,.75,.65,.75,.99,0,.39-.31,.65-.81,.65-.13,0-.29,0-.49-.03-.31-.05-.44-.05-.73-.05-4.45,0-8.74,4.24-8.74,8.68,0,2.31,1.22,4.13,3.46,5.07,.86,.36,1.85,.6,2.63,.62,.52,0,.73,.08,1.09,.42,.49,.47,.78,.94,.78,1.25,0,.42-.39,.73-.94,.73-1.51,0-3.85-.83-5.3-1.87-1.98-1.4-3.02-3.43-3.02-5.82,0-2.11,1.04-4.45,2.83-6.34,1.04-1.14,2.05-1.85,4.24-2.99-3.22,.39-9.18,2.16-11.62,3.48-.52,.31-.7,.36-1.04,.36-.62,0-1.4-.6-2-1.53-.42-.62-.68-1.33-.68-1.74,0-.21,.05-.36,.29-.7,.23,.65,.44,.99,.86,1.35Zm15.44,2.34c.96,.55,1.66,1.04,2.31,1.61,.94,.86,1.3,1.46,1.3,2.08s-.36,1.09-.81,1.09q-.34,0-1.14-1.69c-.47-.91-1.3-2.05-2-2.76l.34-.34Zm2.68-1.51c.94,.42,1.69,.88,2.5,1.48,.99,.75,1.33,1.3,1.33,2,0,.62-.26,1.07-.65,1.07-.23,0-.39-.13-.6-.49-.91-1.64-1.4-2.31-2.86-3.69l.29-.36Z"/><path class="d" d="M41.45,207.4c2.81-.83,4.6-1.9,6.08-3.61,1.53-1.74,2.31-3.87,2.31-6.27,0-2.52-1.01-4.52-2.94-5.75-1.14-.75-2.86-1.2-4.5-1.2-.31,0-.49,0-.91,.05,.62,.91,.81,1.4,.81,2.16,0,2.03-1.46,5.82-3.43,9-1.64,2.6-2.91,3.88-3.87,3.88-.44,0-.86-.21-1.14-.55-.23-.31-.29-.42-.73-1.66-.23-.68-.39-.99-1.14-2.44-.42-.83-.6-1.53-.6-2.37,0-1.64,.88-3.56,2.34-5.15,2.11-2.24,5.54-3.64,8.94-3.64,2.63,0,5.04,.86,6.71,2.39s2.5,3.59,2.5,6.11c0,3.25-1.9,6.14-5.17,7.88-1.51,.81-2.86,1.22-5.07,1.61l-.18-.44Zm-8.55-8.09c0,1.25,.39,2.52,1.04,3.43,.36,.47,.7,.75,.99,.75,.57,0,1.82-1.4,3.09-3.43,1.92-3.07,3.3-6.42,3.3-8.03,0-.39-.08-.65-.36-1.3-4.52,.81-8.06,4.58-8.06,8.58Z"/></g><g><path class="d" d="M.23,17.16c2.5-1.56,5.07-3.67,6.99-5.69,1.56-1.64,3.43-4.08,4.97-6.47,.83-1.27,1.27-2.13,1.77-3.35-1.25,.08-2.63,.36-5.49,1.14-1.25,.34-1.35,.36-2.18,.7-.13,.05-.29,.08-.44,.08-.57,0-1.12-.47-1.69-1.48-.36-.6-.55-1.14-.55-1.56,0-.16,.05-.29,.18-.52,.75,1.35,1.3,1.74,2.44,1.74,.86,0,3.48-.34,5.46-.73,1.51-.29,1.98-.44,2.44-.73,.29-.18,.42-.23,.6-.23,.55,0,2.03,1.33,2.03,1.82,0,.18-.1,.34-.34,.49q-.55,.36-1.48,1.77-1.25,1.87-3.28,4.52c3.67,1.92,5.72,3.25,6.73,4.39,.7,.75,.99,1.51,.99,2.57,0,.83-.26,1.35-.7,1.35-.18,0-.39-.13-.6-.42q-.1-.13-.62-1.04c-1.3-2.18-3.54-4.5-6.19-6.37-2.11,2.55-3.8,4.13-6.29,5.85-1.64,1.14-2.76,1.77-4.55,2.55l-.21-.39Z"/><path class="d" d="M.44,37.27c1.72-1.98,2.96-3.85,4.11-5.98,1.14-2.18,1.85-3.9,1.85-4.55,0-.7-.52-1.22-1.72-1.72,.29-.13,.42-.18,.65-.18,.62,0,1.48,.29,2.37,.75,.78,.44,1.17,.83,1.17,1.2,0,.26-.03,.31-.52,1.07-.05,.1-.21,.36-.44,.75-.39,.75-1.12,1.98-1.53,2.63,.42,.36,.88,.52,1.53,.52,1.2,0,3.46-.34,5.75-.86,2.16-.52,3.02-.78,3.93-1.27,.1-.08,.31-.13,.47-.13,.26,0,.94,.23,1.46,.52,.62,.34,.86,.57,.86,.88,0,.23-.16,.39-.47,.47-.16,.05-.23,.05-1.35,.18-.21,.03-2.34,.31-3.15,.44q-2.05,.31-2.68,.39c1.09,.68,1.61,1.22,1.61,1.69,0,.36-.31,1.51-.7,2.55-1.66,4.47-4.37,7.85-8.03,10.11l-.29-.29c1.92-1.72,3.56-3.87,4.91-6.47,1.35-2.55,2.08-4.78,2.08-6.29,0-.47-.16-.73-.7-1.2-.21,.03-.39,.05-.49,.05-1.2,.13-1.82,.18-2.68,.18-1.14,0-1.48-.13-2.42-.91-1.9,2.7-3.48,4.42-5.36,5.69l-.21-.23Z"/><path class="d" d="M.81,62.41c2.16,.44,3.69,.96,4.55,1.53,.7,.44,.99,.96,.99,1.72,0,.68-.34,1.25-.73,1.25-.26,0-.42-.1-.81-.6-1.33-1.66-2.55-2.7-4.16-3.56l.16-.34Zm20.07-.65c-.57,.94-2.03,2.6-3.87,4.45-2.86,2.76-5.72,4.97-9.85,7.57-1.38,.91-1.69,1.12-2,1.43-.21,.18-.39,.26-.6,.26-.52,0-1.12-.49-1.85-1.56-.47-.7-.81-1.51-.81-2,0-.23,.08-.42,.23-.6,.49,.99,1.22,1.61,1.95,1.61,.57,0,2.29-.86,4.99-2.55,4.76-2.91,8.63-5.93,11.49-8.84l.31,.23Zm-17.21-3.95c4.16,.99,5.49,1.79,5.49,3.3,0,.73-.31,1.3-.7,1.3q-.29,0-1.4-1.38c-1.01-1.2-2.31-2.24-3.56-2.86l.18-.36Zm11.13-2.24c.96,.52,1.66,1.01,2.31,1.59,.94,.86,1.3,1.46,1.3,2.08s-.36,1.09-.81,1.09q-.34,0-1.17-1.69c-.44-.91-1.27-2.05-1.98-2.73l.34-.34Zm2.68-1.53c.94,.44,1.69,.88,2.5,1.51,.99,.75,1.33,1.27,1.33,2,0,.62-.26,1.07-.65,1.07-.23,0-.39-.13-.6-.52-.91-1.64-1.43-2.29-2.86-3.69l.29-.36Z"/><path class="d" d="M10.27,84.08c.86,0,2.39-.21,3.72-.49,.68-.16,.81-.21,1.09-.36,.1-.08,.23-.13,.34-.18,.18-.08,.23-.1,.39-.1,.26,0,.83,.39,1.3,.88,.42,.44,.52,.62,.52,.88,0,.16-.03,.23-.18,.42-.21,.29-.31,.62-.6,1.79-.39,1.48-.94,3.8-1.12,4.58q.23-.03,1.07-.05c1.9-.13,2.11-.16,2.73-.39,.26-.1,.34-.13,.44-.13,.21,0,.7,.21,1.09,.44,.62,.36,1.01,.83,1.01,1.2,0,.29-.26,.52-.6,.52q-.21,0-1.4-.26c-.65-.16-1.69-.23-3.12-.23-2.5,0-4.42,.23-6.76,.81-1.04,.23-1.66,.44-2.26,.73-.34,.18-.44,.21-.68,.21-.47,0-1.01-.31-1.48-.86-.44-.52-.86-1.35-.86-1.74,0-.08,.03-.21,.1-.44,.55,.83,1.2,1.25,1.98,1.25,.26,0,.94-.08,1.77-.21,1.66-.23,2.96-.42,3.95-.55q1.07-.13,1.59-.21c.42-2.08,1.01-6.24,1.01-7.1,0-.08-.03-.1-.08-.1-.31,0-2.21,.42-3.12,.68-.75,.23-.99,.31-1.48,.55-.18,.08-.44,.13-.62,.13-.47,0-.91-.36-1.3-1.04-.31-.55-.49-1.07-.49-1.43,0-.16,.03-.26,.16-.49,.42,.88,1.07,1.33,1.9,1.33Z"/><path class="d" d="M9.83,105.7c0-1.87-.08-2.42-.42-2.86-.31-.39-.75-.68-1.43-.88,.21-.23,.49-.34,.83-.34,.55,0,1.48,.29,2.34,.75,.86,.44,1.12,.7,1.12,1.12,0,.26-.05,.36-.36,.81-.26,.42-.31,1.56-.31,11.47-.03,5.49-.18,6.42-1.04,6.42-.23,0-.42-.18-.55-.52-.18-.42-.23-1.27-.23-3.22l.05-12.74Z"/><path class="d" d="M0,147.03c1.43-1.33,2.47-2.83,3.48-4.94,.99-2.05,1.79-5.25,1.79-7.05,0-1.01-.44-1.53-1.77-2.03,.29-.18,.42-.23,.7-.23,.57,0,1.2,.21,1.95,.65,.96,.57,1.4,1.01,1.4,1.43,0,.21-.05,.42-.34,1.2q-.03,.1-.26,.91c-.83,2.73-1.07,3.38-1.77,4.78-1.25,2.47-2.7,4.13-4.91,5.56l-.29-.29Zm22.21-10.38c-.81,1.38-1.48,2.24-2.83,3.67-1.51,1.61-3.9,3.69-5.51,4.76-.49,.34-1.25,.94-1.48,1.17-.21,.21-.34,.29-.52,.29-.6,0-1.56-1.35-1.56-2.16,0-.05,.05-.31,.18-.81,.16-.6,.23-2.91,.23-7.05,0-5.9-.1-6.24-2-6.66,.26-.31,.44-.39,.83-.39,.62,0,1.43,.29,2.29,.81,.75,.47,1.07,.83,1.07,1.2,0,.13-.03,.23-.21,.7-.13,.34-.26,1.22-.36,2.55-.1,1.09-.34,6.84-.34,7.83,0,.34,0,.62,.05,1.2,3.02-1.17,6.84-4.06,9.83-7.36l.34,.26Z"/></g></g></g></g></svg>