<?xml version="1.0" encoding="UTF-8"?><svg xmlns="http://www.w3.org/2000/svg" viewBox="0 0 25.33 169.05"><defs><style>.d{fill:#42210b;}</style></defs><g id="a"/><g id="b"><g id="c"><g><path class="d" d="M.52,12.51c2.89-2,4.99-4,7.33-6.94,1.22-1.53,2.34-3.22,2.86-4.29,.18-.39,.29-.68,.47-1.27,.6,.1,1.04,.21,1.33,.26,1.43,.29,1.74,.39,1.74,.62,0,.21-.31,.36-1.01,.49,1.27,2.13,3.02,3.95,5.36,5.64,2.21,1.59,4.32,2.57,6.73,3.22l-.05,.36c-1.09,.13-1.51,.49-2.05,1.72-2.42-1.25-3.82-2.26-5.72-4.24-1.92-1.95-2.78-3.15-4.65-6.45-1.85,2.94-3.48,4.89-5.88,7.05-2.08,1.85-3.77,3.02-6.16,4.21l-.29-.39Zm6.42,10.24c0,.23-.03,.31-.16,.36-.23,.08-.83,.16-1.35,.16-.29,0-.36-.08-.36-.36,.05-4.06,.08-5.33,.08-6.4,0-2.05-.03-3.02-.08-4,.96,.55,1.25,.73,2.08,1.33h10.5c.42-.57,.57-.75,1.07-1.33,.73,.55,.96,.73,1.66,1.33,.21,.18,.26,.26,.26,.36,0,.16-.23,.34-.86,.55q0,3.8,.1,7.83v.1c0,.21-.05,.29-.23,.34-.18,.08-1.04,.18-1.33,.18-.26,0-.39-.1-.39-.31v-1.22H6.94v1.09Zm-.03-13.55c.75,.13,1.38,.21,1.92,.21h5.43c.6-.65,.78-.88,1.38-1.56,.94,.73,1.25,.94,2.18,1.72,.13,.13,.21,.23,.21,.31,0,.1-.05,.13-.34,.13H8.84c-.49,0-.88,.03-1.72,.16l-.21-.96Zm.03,11.86h11v-6.63H6.94v6.63Z"/><path class="d" d="M4.76,45.87q0,2.18,.05,6.29c-.03,.39-.34,.49-1.4,.49-.47,0-.62-.1-.62-.39,.08-2.78,.13-8.45,.13-12.09,0-4.97-.03-8.79-.08-10.06,.99,.49,1.27,.65,2.26,1.14h15.29c.39-.57,.52-.73,.94-1.27,.83,.52,1.07,.7,1.82,1.27,.18,.16,.29,.26,.29,.36s-.08,.18-.29,.36c-.03,.03-.08,.05-.13,.1-.1,.08-.29,.21-.49,.36v10.58q0,.91,.05,5.38v2.13c-.03,.68-.18,.91-.78,1.25-.62,.34-1.33,.55-2.57,.73-.29-.91-.47-1.2-.91-1.43-.42-.23-.57-.26-2.86-.55v-.39q3.22,.13,4.76,.18h.13c.21,0,.31-.08,.31-.29V31.85H4.76v14.01Zm1.22-10.74c1.3,.26,1.9,.34,2.6,.34h7.33c.47-.57,.91-1.14,1.33-1.69,.94,.78,1.22,1.01,2.13,1.82,.08,.1,.13,.18,.13,.23,0,.13-.13,.23-.29,.23H8.48c-.47,0-.86,.05-2.16,.26l-.34-1.2Zm3.8,12.43c0,.21-.05,.29-.21,.36-.13,.05-.7,.13-1.04,.13-.39,0-.57-.1-.57-.31v-.08c.08-2.03,.1-3.02,.1-4.68,0-2.6-.03-3.77-.1-4.84,.94,.39,1.22,.55,2.11,1.01h5.28c.39-.49,.52-.65,.94-1.17,.73,.49,.94,.65,1.59,1.17,.16,.13,.23,.23,.23,.29,0,.13-.18,.31-.75,.78-.03,.99-.03,1.72-.03,2.21,0,2.26,.03,3.54,.1,4.89,0,.42-.26,.52-1.27,.52-.34,0-.47-.1-.47-.42v-1.56h-5.9v1.69Zm0-2.29h5.9v-5.51h-5.9v5.51Z"/><path class="d" d="M15.81,69.66c2.11-1.01,3.48-1.9,4.73-3.09,1.87,1.01,2.21,1.22,2.21,1.4,0,.16-.18,.23-.49,.23-.1,0-.6-.03-.94-.03-1.77,.86-3.51,1.48-5.51,1.95v1.48c0,.36,.05,.44,.31,.49,.18,.03,1.43,.08,2.13,.08,.23,0,.62,0,1.3-.03h1.07c.99,0,1.12-.03,1.27-.29,.18-.29,.73-1.64,1.17-2.89l.31,.03-.16,2.05v.6q0,.13,.47,.31c.36,.1,.55,.31,.55,.62,0,.86-.7,.99-5.54,.99-4.19,0-4.42-.08-4.47-1.4v-6.66h-5.36c-.62,.96-.96,1.4-1.59,2.08h3.67c.44-.42,.57-.52,1.04-.91,.6,.47,.78,.6,1.35,1.07,.18,.16,.23,.23,.23,.31,0,.16-.13,.21-1.01,.49-1.72,2.5-3.09,3.77-5.56,5.07-1.82,.96-3.56,1.59-6.03,2.16l-.13-.42c3.02-1.09,4.94-2.08,6.76-3.48-.21-.03-.26-.08-.42-.29-.62-.91-1.38-1.66-2-2.03-1.69,1.33-2.5,1.82-4,2.47l-.23-.36c1.61-1.04,2.68-2,4.13-3.64,.86-.99,1.33-1.61,1.85-2.52H3.87c-1.12,0-1.3,0-2.21,.16l-.18-1.01c.81,.18,1.48,.26,2.39,.26H20.44c.68-.73,.88-.96,1.59-1.66,.99,.81,1.27,1.07,2.24,1.9,.05,.08,.1,.16,.1,.21,0,.1-.1,.16-.29,.16H15.81v4.13Zm-.88-8.27c0-.13,.03-.18,.03-.21,0-1.14-.05-1.72-.13-2.18,2.24,.23,2.89,.36,2.89,.6,0,.18-.21,.29-1.09,.52q-.03,.99-.03,1.27h4c.73-.78,.96-1.01,1.66-1.72,1.04,.83,1.38,1.09,2.44,1.95,.05,.08,.1,.16,.1,.21,0,.1-.1,.16-.26,.16h-7.96c0,.55,0,.78,.03,1.48-.03,.31-.26,.36-1.43,.36-.26,0-.31-.05-.31-.23,.03-.83,.05-1.12,.05-1.61h-4.99v.31l-.03,.47c0,.16,.03,.34,.05,.68,0,.16-.03,.21-.1,.26-.1,.08-.68,.13-1.4,.13-.16,0-.23-.05-.26-.21,.05-.88,.08-1.17,.08-1.64H3.3c-1.09,0-1.3,.03-2.08,.13l-.18-.94c.73,.16,1.25,.21,2.26,.21h4.97c.03-.29,.03-.52,.03-.73,0-.7-.03-.99-.1-1.66,.55,.08,1.01,.13,1.3,.16,1.25,.13,1.53,.21,1.53,.44,0,.18-.23,.29-1.09,.52v1.27h4.99Zm-6.5,14.92c.05-.52,.08-.83,.08-1.27,0-.42-.03-.65-.1-1.12,.55,.08,.96,.16,1.25,.18,1.12,.16,1.56,.29,1.56,.47s-.13,.23-.96,.52c-.08,.78-.08,.88-.13,1.22h4.81c0-1.3-.03-1.33-.1-2.18,2.5,.23,2.7,.26,2.7,.49,0,.18-.05,.21-.91,.57v1.12h3.98c.7-.81,.91-1.04,1.61-1.74,1.07,.81,1.38,1.07,2.39,1.95,.05,.08,.1,.16,.1,.21,0,.08-.13,.18-.23,.18h-7.88v1.59c0,.65,0,.81,.05,3.82,0,.13-.05,.18-.13,.23-.13,.08-.81,.16-1.38,.16-.23,0-.31-.08-.31-.29,.08-1.74,.1-2.47,.1-3.8v-1.72h-4.89c-.34,1.77-.81,2.7-1.74,3.54-1.61,1.43-3.82,2.24-7.02,2.57l-.1-.39c3.04-.75,4.58-1.46,5.69-2.63,.75-.78,1.2-1.69,1.46-3.09H3.59c-.96,0-1.35,.03-2.03,.16l-.18-.94c.75,.16,1.2,.18,2.21,.18h4.84Zm-1.72-8.11c-.49,.49-.75,.73-1.27,1.17,.49,.08,.96,.21,1.61,.44,.88,.34,1.17,.57,1.17,1.01,0,.31-.08,.52-.21,.75,1.27-1.07,2.03-1.95,2.94-3.38H6.71Z"/><path class="d" d="M12.45,108.19c2.81-.83,4.6-1.9,6.08-3.61,1.53-1.74,2.31-3.88,2.31-6.27,0-2.52-1.01-4.52-2.94-5.75-1.14-.75-2.86-1.2-4.5-1.2-.31,0-.49,0-.91,.05,.62,.91,.81,1.4,.81,2.16,0,2.03-1.46,5.82-3.43,9-1.64,2.6-2.91,3.87-3.87,3.87-.44,0-.86-.21-1.14-.55-.23-.31-.29-.42-.73-1.66-.23-.68-.39-.99-1.14-2.44-.42-.83-.6-1.53-.6-2.37,0-1.64,.88-3.56,2.34-5.15,2.11-2.24,5.54-3.64,8.94-3.64,2.63,0,5.04,.86,6.71,2.39s2.5,3.59,2.5,6.11c0,3.25-1.9,6.14-5.17,7.88-1.51,.81-2.86,1.22-5.07,1.61l-.18-.44Zm-8.55-8.09c0,1.25,.39,2.52,1.04,3.43,.36,.47,.7,.75,.99,.75,.57,0,1.82-1.4,3.09-3.43,1.92-3.07,3.3-6.42,3.3-8.03,0-.39-.08-.65-.36-1.3-4.52,.81-8.06,4.58-8.06,8.58Z"/><path class="d" d="M13.29,125.24v2.11h5.67c.39-.44,.52-.57,.94-1.01,.7,.44,.91,.6,1.56,1.07,.16,.13,.23,.21,.23,.31,0,.16-.08,.23-.75,.65l.03,2h.49c.62-.68,.81-.88,1.43-1.56,.86,.73,1.12,.96,1.95,1.77,.1,.1,.16,.18,.16,.23,0,.08-.1,.16-.23,.16h-3.8c.03,2.34,.05,3.85,.08,4.47,0,.18-.05,.26-.18,.31-.18,.05-.81,.13-1.25,.13-.29,0-.42-.08-.42-.26v-1.46h-5.88q.03,.31,.03,1.27l.05,1.92c0,.7-.03,.88-.16,1.09-.26,.42-.91,.7-2.68,1.09-.05-1.25-.21-1.33-4.06-1.95v-.39c2.96,.18,3.25,.18,4,.18h.73c.31,0,.39-.08,.39-.31v-2.91H5.12c-.68,0-.99,.03-1.61,.13l-.1-.94c.68,.16,1.04,.21,1.77,.21h6.45v-2.6H2.6c-.73,0-.94,.03-1.48,.1l-.13-.88c.57,.13,.91,.18,1.61,.18H11.62v-2.42H4.84c-.7,0-.91,.03-1.33,.1l-.1-.88c.49,.16,.78,.18,1.43,.18h6.79v-2.11H6.19v.62c0,.18-.05,.26-.18,.31-.1,.03-.81,.1-1.17,.1-.21,0-.29-.05-.29-.23,.05-1.59,.08-2.37,.08-3.85,0-.86,0-1.07-.03-1.77,.75,.39,.99,.52,1.69,.94h5.33v-2.03H2.99c-.86,0-1.09,.03-1.61,.1l-.1-.88c.62,.16,.94,.18,1.74,.18H11.62c-.03-1.69-.03-1.9-.13-3.04,2.63,.34,2.81,.39,2.81,.68,0,.21-.23,.34-1.01,.57v1.79h7.46c.65-.75,.83-.96,1.48-1.66,1.01,.78,1.3,1.04,2.21,1.9,.05,.08,.1,.16,.1,.23,0,.05-.1,.13-.21,.13H13.29v2.03h5.38c.39-.39,.52-.52,.96-.94,.65,.44,.83,.57,1.43,1.04,.18,.13,.23,.21,.23,.29,0,.18-.1,.26-.75,.6,0,1.9,0,1.95,.05,3.12,0,.31-.16,.39-.86,.42-.21,0-.36,.03-.47,.03h-.08c-.21,0-.29-.05-.29-.26v-.42h-5.62Zm-1.66-3.28H6.19v2.68h5.43v-2.68Zm7.28,0h-5.62v2.68h5.62v-2.68Zm.29,5.98h-5.9v2.42h5.9v-2.42Zm-5.9,3.02v1.69l.03,.91h5.88v-2.6h-5.9Z"/><path class="d" d="M0,158.39c1.51-2.34,2.34-4,3.43-6.81,1.04-2.73,1.53-4.45,1.72-6.01,2.39,.55,2.76,.68,2.76,.91,0,.26-.26,.36-1.04,.52-.7,2.29-1.48,4.08-3.02,6.89,1.38,.16,1.82,.29,1.82,.55,0,.18-.16,.26-.81,.44v5.2q0,1.07,.05,6.6v1.92c-.05,.16-.1,.21-.26,.23-.23,.08-.88,.13-1.2,.13-.23,0-.31-.08-.31-.34v-.08q.03-1.82,.08-8.24v-5.36c-.86,1.35-1.48,2.16-2.89,3.69l-.34-.26Zm10.27-4.76c-.34,.91-.6,1.51-1.04,2.44,.6,.34,1.46,.96,2.03,1.46,.34,.31,.6,.75,.6,1.09,0,.68-.57,1.64-.99,1.64-.21,0-.29-.13-.49-.86-.26-1.07-.75-2.13-1.35-2.96-1.07,1.98-1.64,2.78-3.17,4.37l-.23-.26c1.46-2.37,2.31-4.24,3.09-6.76,.55-1.85,.81-3.12,1.07-5.25h-.16c-1.04,0-1.38,.03-2.24,.1l-.21-.96c.81,.18,1.56,.26,2.44,.26h4.29c.6-.73,.78-.96,1.4-1.66,.86,.78,1.12,1.01,1.92,1.85,.05,.08,.1,.18,.1,.26,0,.1-.13,.16-.36,.16h-5.41c-.29,1.92-.55,2.94-1.09,4.5h3.28c.39-.44,.52-.57,.88-1.01,.7,.49,.91,.65,1.56,1.17,.16,.13,.21,.21,.21,.34,0,.21-.1,.31-.86,.68-.83,3.93-1.74,6.27-3.41,8.68-1.61,2.37-3.43,4.08-6.29,5.95l-.26-.31c2.29-1.95,4.11-4.11,5.43-6.47,.91-1.56,1.77-3.69,2.31-5.67,.23-.86,.36-1.46,.55-2.76h-3.61Zm5.9,13.1c.57,.03,1.01,.05,1.27,.05,1.92,.13,2.13,.16,3.41,.16,.31-.08,.36-.16,.36-.55v-18.46c0-1.04,0-1.14-.05-1.87,2.11,.26,2.91,.47,2.91,.75,0,.21-.23,.31-1.09,.6v12.35l-.03,2.73,.03,3.9v.31c0,.73-.21,1.14-.83,1.56-.55,.39-1.07,.57-2.13,.78-.23-.75-.47-1.07-.99-1.35-.44-.23-.68-.29-2.86-.55v-.42Zm2.63-14.07c0,.36,0,3.25,.03,6.16q.03,1.87,.03,4.47c-.05,.36-.26,.44-1.38,.44-.23,0-.34-.1-.34-.34,.1-5.69,.1-6.24,.1-10.5q0-2.99-.1-3.98c2.18,.13,2.52,.21,2.52,.47,0,.23-.29,.42-.86,.57v2.7Z"/></g></g></g></svg>