<?xml version="1.0" encoding="UTF-8"?><svg xmlns="http://www.w3.org/2000/svg" viewBox="0 0 55.7 192.92"><defs><style>.d{fill:#42210b;}</style></defs><g id="a"/><g id="b"><g id="c"><g><g><path class="d" d="M30.9,12.51c2.89-2,4.99-4,7.33-6.94,1.22-1.53,2.34-3.22,2.86-4.29,.18-.39,.29-.68,.47-1.27,.6,.1,1.04,.21,1.33,.26,1.43,.29,1.74,.39,1.74,.62,0,.21-.31,.36-1.01,.49,1.27,2.13,3.02,3.95,5.36,5.64,2.21,1.59,4.32,2.57,6.73,3.22l-.05,.36c-1.09,.13-1.51,.49-2.05,1.72-2.42-1.25-3.82-2.26-5.72-4.24-1.92-1.95-2.78-3.15-4.65-6.45-1.85,2.94-3.48,4.89-5.88,7.05-2.08,1.85-3.77,3.02-6.16,4.21l-.29-.39Zm6.42,10.24c0,.23-.03,.31-.16,.36-.23,.08-.83,.16-1.35,.16-.29,0-.36-.08-.36-.36,.05-4.06,.08-5.33,.08-6.4,0-2.05-.03-3.02-.08-4,.96,.55,1.25,.73,2.08,1.33h10.5c.42-.57,.57-.75,1.07-1.33,.73,.55,.96,.73,1.66,1.33,.21,.18,.26,.26,.26,.36,0,.16-.23,.34-.86,.55q0,3.8,.1,7.83v.1c0,.21-.05,.29-.23,.34-.18,.08-1.04,.18-1.33,.18-.26,0-.39-.1-.39-.31v-1.22h-11v1.09Zm-.03-13.55c.75,.13,1.38,.21,1.92,.21h5.43c.6-.65,.78-.88,1.38-1.56,.94,.73,1.25,.94,2.18,1.72,.13,.13,.21,.23,.21,.31,0,.1-.05,.13-.34,.13h-8.87c-.49,0-.88,.03-1.72,.16l-.21-.96Zm.03,11.86h11v-6.63h-11v6.63Z"/><path class="d" d="M35.13,43.87q0,2.18,.05,6.29c-.03,.39-.34,.49-1.4,.49-.47,0-.62-.1-.62-.39,.08-2.78,.13-8.45,.13-12.09,0-4.97-.03-8.79-.08-10.06,.99,.49,1.27,.65,2.26,1.14h15.29c.39-.57,.52-.73,.94-1.27,.83,.52,1.07,.7,1.82,1.27,.18,.16,.29,.26,.29,.36s-.08,.18-.29,.36c-.03,.03-.08,.05-.13,.1-.1,.08-.29,.21-.49,.36v10.58q0,.91,.05,5.38v2.13c-.03,.68-.18,.91-.78,1.25-.62,.34-1.33,.55-2.57,.73-.29-.91-.47-1.2-.91-1.43-.42-.23-.57-.26-2.86-.55v-.39q3.22,.13,4.76,.18h.13c.21,0,.31-.08,.31-.29V29.85h-15.89v14.01Zm1.22-10.74c1.3,.26,1.9,.34,2.6,.34h7.33c.47-.57,.91-1.14,1.33-1.69,.94,.78,1.22,1.01,2.13,1.82,.08,.1,.13,.18,.13,.23,0,.13-.13,.23-.29,.23h-10.74c-.47,0-.86,.05-2.16,.26l-.34-1.2Zm3.8,12.43c0,.21-.05,.29-.21,.36-.13,.05-.7,.13-1.04,.13-.39,0-.57-.1-.57-.31v-.08c.08-2.03,.1-3.02,.1-4.68,0-2.6-.03-3.77-.1-4.84,.94,.39,1.22,.55,2.11,1.01h5.28c.39-.49,.52-.65,.94-1.17,.73,.49,.94,.65,1.59,1.17,.16,.13,.23,.23,.23,.29,0,.13-.18,.31-.75,.78-.03,.99-.03,1.72-.03,2.21,0,2.26,.03,3.54,.1,4.89,0,.42-.26,.52-1.27,.52-.34,0-.47-.1-.47-.42v-1.56h-5.9v1.69Zm0-2.29h5.9v-5.51h-5.9v5.51Z"/><path class="d" d="M46.18,66.02c2.11-1.01,3.48-1.9,4.73-3.09,1.87,1.01,2.21,1.22,2.21,1.4,0,.16-.18,.23-.49,.23-.1,0-.6-.03-.94-.03-1.77,.86-3.51,1.48-5.51,1.95v1.48c0,.36,.05,.44,.31,.49,.18,.03,1.43,.08,2.13,.08,.23,0,.62,0,1.3-.03h1.07c.99,0,1.12-.03,1.27-.29,.18-.29,.73-1.64,1.17-2.89l.31,.03-.16,2.05v.6q0,.13,.47,.31c.36,.1,.55,.31,.55,.62,0,.86-.7,.99-5.54,.99-4.19,0-4.42-.08-4.47-1.4v-6.66h-5.36c-.62,.96-.96,1.4-1.59,2.08h3.67c.44-.42,.57-.52,1.04-.91,.6,.47,.78,.6,1.35,1.07,.18,.16,.23,.23,.23,.31,0,.16-.13,.21-1.01,.49-1.72,2.5-3.09,3.77-5.56,5.07-1.82,.96-3.56,1.59-6.03,2.16l-.13-.42c3.02-1.09,4.94-2.08,6.76-3.48-.21-.03-.26-.08-.42-.29-.62-.91-1.38-1.66-2-2.03-1.69,1.33-2.5,1.82-4,2.47l-.23-.36c1.61-1.04,2.68-2,4.13-3.64,.86-.99,1.33-1.61,1.85-2.52h-3.04c-1.12,0-1.3,0-2.21,.16l-.18-1.01c.81,.18,1.48,.26,2.39,.26h16.56c.68-.73,.88-.96,1.59-1.66,.99,.81,1.27,1.07,2.24,1.9,.05,.08,.1,.16,.1,.21,0,.1-.1,.16-.29,.16h-8.27v4.13Zm-.88-8.27c0-.13,.03-.18,.03-.21,0-1.14-.05-1.72-.13-2.18,2.24,.23,2.89,.36,2.89,.6,0,.18-.21,.29-1.09,.52q-.03,.99-.03,1.27h4c.73-.78,.96-1.01,1.66-1.72,1.04,.83,1.38,1.09,2.44,1.95,.05,.08,.1,.16,.1,.21,0,.1-.1,.16-.26,.16h-7.96c0,.55,0,.78,.03,1.48-.03,.31-.26,.36-1.43,.36-.26,0-.31-.05-.31-.23,.03-.83,.05-1.12,.05-1.61h-4.99v.31l-.03,.47c0,.16,.03,.34,.05,.68,0,.16-.03,.21-.1,.26-.1,.08-.68,.13-1.4,.13-.16,0-.23-.05-.26-.21,.05-.88,.08-1.17,.08-1.64h-4.97c-1.09,0-1.3,.03-2.08,.13l-.18-.94c.73,.16,1.25,.21,2.26,.21h4.97c.03-.29,.03-.52,.03-.73,0-.7-.03-.99-.1-1.66,.55,.08,1.01,.13,1.3,.16,1.25,.13,1.53,.21,1.53,.44,0,.18-.23,.29-1.09,.52v1.27h4.99Zm-6.5,14.92c.05-.52,.08-.83,.08-1.27,0-.42-.03-.65-.1-1.12,.55,.08,.96,.16,1.25,.18,1.12,.16,1.56,.29,1.56,.47s-.13,.23-.96,.52c-.08,.78-.08,.88-.13,1.22h4.81c0-1.3-.03-1.33-.1-2.18,2.5,.23,2.7,.26,2.7,.49,0,.18-.05,.21-.91,.57v1.12h3.98c.7-.81,.91-1.04,1.61-1.74,1.07,.81,1.38,1.07,2.39,1.95,.05,.08,.1,.16,.1,.21,0,.08-.13,.18-.23,.18h-7.88v1.59c0,.65,0,.81,.05,3.82,0,.13-.05,.18-.13,.23-.13,.08-.81,.16-1.38,.16-.23,0-.31-.08-.31-.29,.08-1.74,.1-2.47,.1-3.8v-1.72h-4.89c-.34,1.77-.81,2.7-1.74,3.54-1.61,1.43-3.82,2.24-7.02,2.57l-.1-.39c3.04-.75,4.58-1.46,5.69-2.63,.75-.78,1.2-1.69,1.46-3.09h-4.73c-.96,0-1.35,.03-2.03,.16l-.18-.94c.75,.16,1.2,.18,2.21,.18h4.84Zm-1.72-8.11c-.49,.49-.75,.73-1.27,1.17,.49,.08,.96,.21,1.61,.44,.88,.34,1.17,.57,1.17,1.01,0,.31-.08,.52-.21,.75,1.27-1.07,2.03-1.95,2.94-3.38h-4.24Z"/><path class="d" d="M38.25,94.06c-.05,.23-.44,1.87-1.17,4.89-.36,1.53-.44,1.95-.44,2.76,0,.75-.03,.96-.08,1.12-.1,.29-.34,.44-.62,.44-.44,0-.83-.36-1.12-1.07-.57-1.35-.91-3.46-.91-5.54,0-.78,.08-1.74,.21-2.78q.18-1.51,.91-4.91c.26-1.22,.36-1.87,.36-2.42,0-.86-.21-1.51-.73-2.44,.57,.03,1.04,.36,1.74,1.27,.65,.81,.96,1.48,.96,2.05,0,.42-.03,.52-.55,1.56-.52,1.09-1.14,2.91-1.4,4.13-.23,.99-.34,2.11-.34,3.22,0,1.43,.13,2.34,.49,3.43,.44-.91,.65-1.43,.94-2.21l1.38-3.64,.36,.13Zm3.28,1.3c-.05,.52-.08,.75-.08,1.09,0,2.86,1.64,4.03,5.67,4.03,.75,0,1.51-.05,2.21-.18q.55-.08,1.38-.42c.16-.05,.29-.08,.39-.08,.68,0,1.64,.91,1.64,1.53,0,.31-.21,.52-.57,.65-.55,.18-1.79,.29-3.25,.29-3.25,0-5.56-.55-6.73-1.59-.94-.86-1.4-1.95-1.4-3.38,0-.65,.08-1.22,.31-2.05l.44,.1Zm-.05-8.27c.91,.55,1.48,.7,2.42,.7,1.61,0,4.13-.57,5.23-1.17,.34-.18,.39-.21,.57-.21,.21,0,.55,.13,.91,.36,.55,.31,.81,.62,.81,.96s-.18,.49-.73,.6c-1.72,.26-2.68,.49-3.69,.91-.81,.34-2.31,1.17-3.35,1.85l-.26-.26c1.17-.99,2.05-1.72,2.47-2.03-.55,.03-.83,.05-1.07,.05-1.46,0-2.42-.39-3.54-1.46l.23-.31Z"/><path class="d" d="M33.96,116.11v15.44c-.03,.31-.36,.42-1.33,.42-.36,0-.44-.08-.47-.34,.1-3.54,.13-4.81,.13-12.3,0-8.42,0-9.46-.13-11.36,.86,.49,1.12,.65,1.92,1.2h5.33c.49-.52,.62-.68,1.04-1.2,.68,.52,.91,.7,1.53,1.2,.21,.16,.29,.26,.29,.34,0,.18-.29,.39-.86,.62v2.73c0,1.48,0,2.18,.05,3.85,0,.34-.29,.42-1.3,.42-.34,0-.42-.05-.44-.29v-.73h-5.77Zm5.77-6.34h-5.77v2.52h5.77v-2.52Zm0,3.12h-5.77v2.63h5.77v-2.63Zm3.8,8.29c-.1,1.64-.13,1.85-.23,2.78h3.72c.65-.62,.83-.83,1.43-1.46,.86,.73,1.12,.96,1.87,1.69,.08,.08,.13,.18,.13,.23,0,.08-.08,.13-.18,.13h-7.07c-.13,.57-.16,.68-.29,1.12,1.95,.73,3.38,1.3,4.34,1.74,1.43,.68,1.77,1.07,1.77,2.03v.31c1.09,.13,1.51,.13,2.6,.16,.26,0,.31-.05,.31-.34v-13.47h-5.56v.44c0,.34-.26,.42-1.27,.42-.42,0-.52-.05-.55-.34,.05-1.64,.05-2.37,.05-4.34,0-2.24,0-2.89-.05-4.32,.86,.47,1.09,.65,1.87,1.2h5.51c.44-.52,.57-.68,.99-1.2,.6,.44,.81,.6,1.38,1.04,.23,.18,.34,.31,.34,.42,0,.18-.16,.31-.83,.78v13.03c0,3.51,0,3.98,.03,6.5,0,.73-.08,.99-.42,1.33-.42,.39-.88,.57-2.47,.91-.16-.6-.26-.81-.57-1.07-.39-.31-.81-.52-1.38-.73-.08,.31-.23,.52-.44,.52s-.31-.1-.94-.81c-.55-.65-2.47-2.31-3.48-3.02-.49-.31-.68-.44-1.38-.81-.55,1.12-1.35,1.98-2.78,2.86-1.4,.91-2.78,1.43-4.86,1.87l-.18-.36c1.22-.31,1.64-.47,2.65-1.07,1.69-1.01,2.94-2.18,3.48-3.25,.23-.47,.39-.94,.55-1.56h-3.93c-.96,0-1.43,.03-1.85,.13l-.21-.91c.55,.16,.94,.18,2.05,.18h4.03c.18-1.01,.18-1.33,.18-2.78h-3.54c-.81,0-1.22,.03-1.66,.13l-.21-.94c.62,.16,1.04,.21,1.9,.21h1.95q-.13-.21-.36-.7c-.36-.73-.86-1.38-1.9-2.52l.21-.26c2.24,1.04,3.15,1.66,3.15,2.18,0,.29-.34,.99-.62,1.3h3.04q.34-.44,.88-1.38c.81-1.35,.83-1.4,1.07-2.03,.44,.16,.81,.31,1.04,.39,1.14,.42,1.38,.55,1.38,.73,0,.13-.21,.21-.62,.21-.08,0-.26,0-.44-.03q-.55,.42-2.34,1.87s-.16,.13-.31,.23h2.29c.57-.57,.73-.75,1.27-1.3,.75,.65,1.01,.86,1.77,1.56,.05,.08,.1,.16,.1,.21s-.08,.13-.13,.13h-6.27Zm8.4-11.42h-5.56v2.52h5.56v-2.52Zm0,3.12h-5.56v2.63h5.56v-2.63Z"/><path class="d" d="M39.03,158.68c3.02-2.05,4.29-3.72,4.94-6.5-.6,.36-1.07,.52-1.66,.52-1.82,0-3.2-1.61-3.2-3.74,0-2.29,1.43-3.98,3.35-3.98,.49,0,.78,.08,1.46,.44,0-.44,.03-1.87,.03-2.7,0-.05,0-.29-.03-.52-2.03,.18-4.45,.68-6.55,1.3-.65,.21-1.09,.39-1.69,.7-.16,.05-.44,.13-.6,.13-.47,0-1.07-.36-1.66-.99-.57-.62-1.04-1.48-1.04-1.9,0-.05,.05-.18,.13-.31,.68,.88,1.48,1.33,2.52,1.33,.52,0,1.09-.05,2.24-.23,3.07-.49,4-.62,6.66-.91,0-1.56-.08-2.31-.29-2.89-.29-.73-.91-1.09-2.24-1.27,.31-.39,.49-.47,1.2-.47,.88,0,1.77,.13,2.52,.36,.62,.21,.99,.55,.99,.91,0,.21-.03,.26-.26,.7-.29,.55-.47,1.27-.57,2.52q.68-.08,1.69-.16c2.5-.18,2.78-.23,3.46-.47,.65-.26,.75-.29,.96-.29,.52,0,1.56,.44,2.21,.96,.31,.23,.42,.42,.42,.7s-.18,.44-.57,.44c-.18,0-.23,0-1.4-.16-1.35-.18-2.47-.26-4-.26-.96,0-1.72,.03-2.78,.1-.1,.99-.18,2.57-.18,3.54,0,.18,0,.49,.03,.88,.65,1.33,.83,2.13,.83,3.46,0,2.55-1.01,4.91-2.81,6.6-.99,.94-2.26,1.77-3.87,2.47l-.21-.34Zm3.3-13.08c-1.17,0-2.08,1.22-2.08,2.81s.88,2.83,2.11,2.83c1.12,0,1.66-.83,1.66-2.44,0-2.16-.55-3.2-1.69-3.2Z"/><path class="d" d="M45.17,165.18c-1.01,.31-3.46,1.27-5.25,2.05-.52,.23-.86,.34-1.07,.34-.47,0-.99-.36-1.48-1.09-.47-.7-.73-1.38-.73-1.92,0-.23,.05-.42,.23-.68,.39,1.22,1.09,1.9,1.95,1.9,.68,0,3.15-.57,4.91-1.12,1.01-.34,1.07-.34,1.61-.81,.1-.08,.23-.13,.36-.13,.34,0,.75,.26,1.4,.91,.6,.57,.78,.86,.78,1.17,0,.18-.13,.34-.44,.49-.75,.39-1.01,.6-2.16,1.74-1.64,1.64-2.6,2.6-3.82,3.9q-2.5,2.68-3.04,3.22l.05,.05c2.78-1.74,4.89-2.47,7.07-2.47,3.33,0,5.56,1.95,5.56,4.86,0,3.72-3.46,6.47-8.16,6.47-2.55,0-4.19-1.01-4.19-2.6,0-1.27,1.2-2.21,2.81-2.21,1.27,0,2.44,.47,3.3,1.27,.47,.44,.75,.86,1.14,1.61,1.98-.86,3.15-2.65,3.15-4.86,0-1.43-.57-2.6-1.61-3.22-.55-.31-1.56-.52-2.57-.52-2.55,0-6.11,2.08-8.27,4.84-.44,.55-.62,.7-.88,.7-.39,0-.86-.91-.86-1.69,0-.31,.18-.6,.55-.91,.99-.75,1.4-1.17,3.61-3.61,3.17-3.56,4.16-4.71,6.21-7.36q.21-.29,.26-.42s-.05-.05-.08-.05c0,0-.03,0-.03,.03h-.08s-.05,.03-.13,.05l-.13,.05Zm-4,14.92c-.99,0-1.64,.52-1.64,1.33,0,.96,1.14,1.59,2.96,1.59,.7,0,1.04-.05,1.85-.23-.52-1.66-1.72-2.68-3.17-2.68Z"/></g><g><path class="d" d="M9.83,0c.62,0,1.33,.1,2.08,.31,.88,.23,1.3,.6,1.3,1.12q0,.21-.21,.73c-.29,.81-.52,2.42-.52,3.74v.49c.26,.23,.39,.29,.7,.29,.99,0,2.99-.78,3.95-1.53,.29-.21,.42-.29,.57-.29,.23,0,.75,.16,1.12,.34,.42,.23,.55,.39,.55,.62,0,.39-.34,.6-1.53,1.04-1.4,.52-2.65,.81-3.61,.81-.75,0-1.17-.16-1.74-.65v1.14c0,2.05,.13,5.1,.29,6.79,2.03,.34,3.95,1.01,5.49,1.9,1.12,.62,1.61,1.33,1.61,2.24,0,.62-.18,.99-.52,.99-.18,0-.34-.1-.62-.34-2.21-1.87-3.43-2.57-5.85-3.3q.05,1.22,.05,1.69c0,1.27-.6,2.11-1.85,2.57-.62,.23-1.72,.39-2.65,.39-2.73,0-4.45-1.09-4.45-2.83,0-1.25,.88-2.24,2.52-2.86,1.01-.39,2.42-.62,3.77-.62,.21,0,.55,0,.99,.03q-.16-10.45-.36-12.19c-.18-1.51-.57-1.92-2.26-2.21,.42-.31,.62-.39,1.2-.39Zm-.57,15.99c-2.68,0-4.6,.91-4.6,2.21,0,1.04,1.07,1.64,2.91,1.64,1.51,0,2.76-.42,3.25-1.07,.34-.42,.42-.96,.42-2.73-.83-.05-1.14-.05-1.98-.05Z"/><path class="d" d="M11.88,27.36c.73,0,2.16,.68,2.89,1.38,.42,.42,.57,.68,.57,1.04,0,.34-.13,.49-1.51,1.61-1.4,1.17-3.95,3.56-4.78,4.5-.91,1.01-1.25,1.61-1.25,2.11,0,.36,.26,.83,.78,1.35q.36,.39,1.82,1.72c2.83,2.63,4.16,4.08,4.78,5.3,.29,.55,.39,1.01,.39,1.72,0,.99-.34,1.56-.88,1.56-.34,0-.44-.13-.88-1.07-.47-1.01-1.27-2.39-2.18-3.67-.96-1.38-1.09-1.53-3.8-4.71-.7-.86-.99-1.48-.99-2.18,0-.83,.42-1.53,2-3.48,3.15-3.82,3.93-4.91,3.93-5.54,0-.44-.34-.83-1.43-1.53,.18-.08,.31-.1,.55-.1Z"/><path class="d" d="M3.87,59.43c1.01,1.17,1.9,1.53,3.64,1.53,.49,0,.81-.03,1.51-.13,.16-1.17,.29-2.44,.29-2.89,0-.94-.42-1.35-1.69-1.74,.29-.23,.42-.29,.75-.29,.57,0,1.56,.26,2.26,.6,.65,.34,.96,.65,.96,1.07q0,.23-.34,.68c-.31,.44-.49,.94-.81,2.34,2.47-.52,4-1.12,4.89-1.85,.29-.26,.39-.29,.65-.29,.36,0,.94,.1,1.22,.21,.26,.1,.42,.31,.42,.57,0,.47-.52,.78-2.24,1.38-1.3,.44-3.3,.91-5.23,1.22-.23,1.17-.44,2.76-.49,3.93,1.48-.49,2.76-.75,4.16-.83v-.16c0-.49-.21-.86-.83-1.43,.13-.03,.23-.05,.29-.05,.68,0,1.43,.7,1.66,1.56,2.31,.26,3.74,.78,5.04,1.85,1.17,1.01,1.77,2.37,1.77,4.11,0,3.95-4.03,6.92-10.14,7.44l-.08-.42c5.28-1.3,8.22-4,8.22-7.62,0-1.59-.68-2.89-1.9-3.69-.73-.47-1.61-.73-3.02-.91-.39,1.33-.81,2.21-1.64,3.56-.91,1.43-1.69,2.39-2.78,3.38q.34,.65,.65,1.09c.18,.29,.29,.62,.29,1.09,0,.7-.23,1.2-.6,1.2-.44,0-.88-.7-1.51-2.29-1.66,1.51-3.46,2.47-4.5,2.47-.62,0-.91-.29-1.25-1.2-.18-.44-.23-.55-.49-.99-.39-.62-.49-.99-.49-1.56,0-1.35,.81-2.7,2.44-4.08,.96-.78,1.98-1.4,3.51-2.08q.03-.39,.16-1.92c.03-.44,.08-.86,.23-2.31-.49,.03-.73,.05-.99,.05-2.05,0-3.28-.68-4.34-2.39l.34-.21Zm.91,10.92c-.55,.83-.81,1.64-.81,2.44,0,.96,.39,1.59,.99,1.59,.83,0,2.44-.88,3.87-2.11-.31-1.69-.39-2.55-.39-4.19v-.94c-1.95,1.14-2.86,1.92-3.67,3.2Zm4.84-2.89c0,1.4,.13,2.7,.36,3.8,2.03-2.11,2.96-3.48,3.72-5.62-1.48,.13-2.47,.36-4.08,.99v.83Z"/><path class="d" d="M14.17,85.98c-1.01,.31-3.46,1.27-5.25,2.05-.52,.23-.86,.34-1.07,.34-.47,0-.99-.36-1.48-1.09-.47-.7-.73-1.38-.73-1.92,0-.23,.05-.42,.23-.68,.39,1.22,1.09,1.9,1.95,1.9,.68,0,3.15-.57,4.91-1.12,1.01-.34,1.07-.34,1.61-.81,.1-.08,.23-.13,.36-.13,.34,0,.75,.26,1.4,.91,.6,.57,.78,.86,.78,1.17,0,.18-.13,.34-.44,.49-.75,.39-1.01,.6-2.16,1.74-1.64,1.64-2.6,2.6-3.82,3.9q-2.5,2.68-3.04,3.22l.05,.05c2.78-1.74,4.89-2.47,7.07-2.47,3.33,0,5.56,1.95,5.56,4.86,0,3.72-3.46,6.47-8.16,6.47-2.55,0-4.19-1.01-4.19-2.6,0-1.27,1.2-2.21,2.81-2.21,1.27,0,2.44,.47,3.3,1.27,.47,.44,.75,.86,1.14,1.61,1.98-.86,3.15-2.65,3.15-4.86,0-1.43-.57-2.6-1.61-3.22-.55-.31-1.56-.52-2.57-.52-2.55,0-6.11,2.08-8.27,4.84-.44,.55-.62,.7-.88,.7-.39,0-.86-.91-.86-1.69,0-.31,.18-.6,.55-.91,.99-.75,1.4-1.17,3.61-3.61,3.17-3.56,4.16-4.71,6.21-7.36q.21-.29,.26-.42s-.05-.05-.08-.05c0,0-.03,0-.03,.03h-.08s-.05,.03-.13,.05l-.13,.05Zm-4,14.92c-.99,0-1.64,.52-1.64,1.33,0,.96,1.14,1.59,2.96,1.59,.7,0,1.04-.05,1.85-.23-.52-1.66-1.72-2.68-3.17-2.68Z"/><path class="d" d="M4.81,125.23c-.05,.57-.08,.86-.08,1.17,0,3.09,1.95,4.55,6.14,4.55,2.08,0,4.21-.36,5.75-.96,.13-.05,.31-.08,.44-.08,.39,0,.99,.21,1.43,.52,.36,.29,.57,.6,.57,.91,0,.39-.29,.68-.83,.81-1.2,.31-3.74,.52-6.06,.52-2.91,0-4.76-.36-6.06-1.25-1.3-.83-2.16-2.47-2.16-4.08,0-.65,.13-1.33,.42-2.21l.44,.1Zm.81-10.27c1.33,.88,2.24,1.14,3.98,1.14s3.9-.31,5.41-.78c.18-.05,.39-.1,.47-.1,.68,0,1.56,.78,1.56,1.35,0,.44-.16,.55-1.9,.91-1.38,.31-2.81,.83-6.94,2.57l-.18-.39c.73-.44,1.2-.7,1.9-1.09l1.69-.91,.49-.31c-.57,.05-1.48,.08-1.95,.08-.96,0-2.16-.29-2.96-.7-.68-.36-1.09-.7-1.82-1.51l.26-.26Zm11.86-2.29c.96,.55,1.66,1.04,2.31,1.61,.94,.86,1.3,1.46,1.3,2.08s-.36,1.09-.81,1.09q-.34,0-1.17-1.69c-.44-.91-1.27-2.05-1.98-2.76l.34-.34Zm2.68-1.51c.94,.42,1.69,.88,2.47,1.48,1.01,.75,1.35,1.27,1.35,2,0,.62-.26,1.07-.65,1.07-.23,0-.39-.13-.6-.49-.91-1.64-1.43-2.31-2.86-3.72l.29-.34Z"/><path class="d" d="M8.71,144.16c0,1.17,0,2.13,.03,2.86v.57c0,.21-.03,.29-.1,.34-.13,.08-.6,.13-1.14,.13-.29,0-.42-.08-.42-.26v-.05q.05-1.01,.08-3.59H3.85c-.39,2.39-1.35,3.9-3.56,5.46l-.29-.26c1.01-1.07,1.56-2.08,1.95-3.54,.26-.99,.36-2.16,.36-3.93,0-.62,0-.91-.05-1.66,.91,.47,1.14,.65,1.92,1.2,1.12-.29,2.37-.75,3.67-1.38,.65-.31,.91-.47,1.48-.96,1.66,1.01,2.16,1.4,2.16,1.61,0,.16-.16,.23-.44,.23-.16,0-.36-.03-.86-.08-1.82,.49-3.93,.91-6.24,1.22v.29c0,.39-.03,.83-.03,1.2h5.3c.52-.6,.68-.75,1.22-1.3,.75,.68,.99,.88,1.74,1.64,.03,.03,.05,.08,.05,.1,0,.08-.1,.16-.18,.16h-3.35ZM.65,162.44c3.51-.81,6.58-2.11,7.85-3.35,2,.6,2.55,.83,2.55,1.12,0,.13-.21,.23-.55,.23h-.23c-.18,0-.29,0-.55,.03-2.91,1.33-5.38,2-8.97,2.42l-.1-.44Zm6.03-3.48c0,.16-.05,.23-.16,.29-.21,.08-.75,.16-1.27,.16-.29,0-.42-.08-.44-.29,.1-2.11,.13-4.32,.13-7.67,0-1.85-.03-2.39-.13-3.67,.91,.39,1.17,.52,2,.96h10.84c.31-.39,.42-.52,.75-.96,.68,.47,.88,.6,1.56,1.07,.18,.13,.26,.23,.26,.31,0,.18-.23,.39-.81,.7,0,4.11,.03,7.1,.1,8.97l-.03,.03c0,.23-.05,.29-.26,.34-.23,.08-.83,.13-1.25,.13-.23,0-.31-.05-.34-.21v-.68H6.68v.52Zm10.97-7.41v-2.21H6.68v2.21h10.97Zm-10.97,.6v2.47h10.97v-2.47H6.68Zm0,3.07v2.63h10.97v-2.63H6.68Zm7.64-11.05c-.18,.78-.34,1.12-.7,1.69-.78,1.17-1.74,1.9-3.38,2.55l-.16-.23c1.56-1.2,2.05-1.82,2.44-3.04,.29-.94,.49-2.6,.49-4.03,0-.36,0-.47-.03-.94,.91,.47,1.17,.62,1.98,1.2,.99-.16,2.6-.7,4.34-1.48,.91-.42,1.12-.55,1.59-.94,1.53,.88,2.24,1.4,2.24,1.66,0,.13-.13,.26-.31,.26s-.18,0-1.07-.18c-2.03,.57-3.35,.81-7.12,1.27,0,.21-.03,.34-.03,.44-.08,.65-.08,.81-.16,1.17h6.45q.6-.65,1.3-1.38c.83,.68,1.09,.88,1.87,1.61,.05,.05,.1,.13,.1,.16,0,.08-.1,.21-.18,.21h-4.78c0,.39,0,1.35,.03,2.91,0,.13-.03,.18-.1,.23-.1,.08-.78,.16-1.2,.16-.21,0-.31-.08-.34-.29q0-.7,.03-1.95c.03-.36,.03-.68,.03-.78v-.29h-3.33Zm-.18,15.16c3.54,.42,6.27,.86,6.81,1.07,.7,.31,1.22,1.09,1.22,1.9,0,.36-.21,.57-.52,.57q-.23,0-1.07-.52c-.65-.42-2.47-1.27-3.74-1.74-.49-.18-1.07-.36-2.81-.91l.1-.36Z"/><path class="d" d="M3.02,177.5v14.92c0,.18-.03,.23-.1,.29-.16,.13-.68,.21-1.14,.21-.36,0-.47-.08-.49-.34,.05-2.21,.05-5.38,.05-12.87,0-6.89,0-9.23-.05-10.56,.83,.52,1.07,.68,1.87,1.14h5.2c.44-.49,.57-.68,.99-1.14,.65,.49,.86,.65,1.48,1.2,.18,.16,.26,.26,.26,.34,0,.18-.18,.31-.81,.57v2.39q0,1.77,.03,4.81c-.03,.31-.31,.39-1.35,.39-.21,0-.26-.05-.29-.26v-1.09H3.02Zm5.64-6.6H3.02v2.52h5.64v-2.52Zm0,3.12H3.02v2.89h5.64v-2.89Zm.03,15.21c-.03,.21-.08,.26-.26,.31-.16,.03-.83,.1-1.12,.1-.26,0-.36-.08-.39-.31,.05-1.98,.08-2.96,.08-5.41s0-2.65-.08-3.74c.91,.57,1.2,.73,2.03,1.33h6.19q.52-.6,.99-1.12c.57,.47,.75,.62,1.3,1.12,.18,.16,.26,.26,.26,.34,0,.18-.21,.36-.81,.68q0,4.11,.08,6.16c0,.16-.05,.21-.23,.26-.16,.05-.86,.13-1.2,.13-.29,0-.39-.08-.39-.34v-1.27h-6.45v1.77Zm0-2.37h6.45v-4.76h-6.45v4.76Zm6.45-9.36v.94c-.03,.29-.26,.36-1.22,.36-.29,0-.39-.05-.39-.29q.03-2.47,.03-6.86c0-1.12,0-1.53-.03-2.5,.7,.49,.91,.65,1.61,1.14h5.64c.42-.42,.81-.81,1.17-1.14,.49,.39,.99,.81,1.48,1.2,.18,.16,.26,.26,.26,.34,0,.18-.13,.29-.83,.73v15.91c.03,1.51,.03,1.56,.03,2.99-.03,.86-.18,1.22-.68,1.61-.39,.26-.86,.44-2.37,.83-.1-.78-.26-1.07-.75-1.33-.44-.23-.75-.31-3.12-.75v-.42c2.18,.21,2.81,.23,4.68,.29,.34,0,.39-.05,.39-.39v-12.66h-5.9Zm5.9-6.6h-5.9v2.52h5.9v-2.52Zm0,3.12h-5.9v2.89h5.9v-2.89Z"/></g></g></g></g></svg>