<svg xmlns="http://www.w3.org/2000/svg" width="513.501" height="84.859" viewBox="0 0 513.501 84.859">
  <g id="グループ_3115" data-name="グループ 3115" transform="translate(-64.292 -585.39)">
    <path id="パス_350" data-name="パス 350" d="M1452.283,510.832H1307.5l44.321,42.132L1307.5,595.1h144.783l44.321-42.132Z" transform="translate(-1243.207 74.785)" fill="#f0f0f0"/>
    <path id="パス_351" data-name="パス 351" d="M1533.419,510.832H1388.636l44.321,42.132L1388.636,595.1h144.783l44.321-42.132Z" transform="translate(-1162.145 74.563)" fill="#111328"/>
    <path id="パス_352" data-name="パス 352" d="M1614.554,510.832H1469.771l44.321,42.132L1469.771,595.1h144.783l44.321-42.132Z" transform="translate(-1081.082 74.563)" fill="#111328"/>
    <path id="パス_3963" data-name="パス 3963" d="M0,0H42.826V84.859H0Z" transform="translate(64.292 585.39)" fill="#f0f0f0"/>
    <path id="パス_3962" data-name="パス 3962" d="M14-11.355A32.244,32.244,0,0,0,9.492-9.185l-.633-.879q.888-.475,2.681-1.389l-.035-.176q-3.059.053-9.185.29l-.07-1.23q4.061-.167,9.439-.167,1.266,0,1.784.026ZM15.249-.185a39.15,39.15,0,0,1-5.915.4H8.3Q4.131.22,2.659-.624A2.65,2.65,0,0,1,1.187-3.041a4.588,4.588,0,0,1,1.8-3.489l.958.712A3.92,3.92,0,0,0,2.522-3.138,1.686,1.686,0,0,0,3.8-1.529a17.516,17.516,0,0,0,5.216.492,40.79,40.79,0,0,0,6.012-.439Zm2.575-12.744-1.011.413a17.144,17.144,0,0,0-1.257-2.435l.914-.431A21.233,21.233,0,0,1,17.824-12.929Zm-2.452.36-1,.448a20.633,20.633,0,0,0-1.283-2.461l.958-.431A18.329,18.329,0,0,1,15.372-12.568Zm7.849,6.434-.369-1.072q.809-.193,2.092-.633v-3.252H23.256v-.993h1.688V-14.8h1.248v2.716h1.468v.993H26.191V-8.3q.853-.334,1.345-.58l.255.94a11.294,11.294,0,0,1-1.6.729v4.315a1.081,1.081,0,0,1-.365.861,1.3,1.3,0,0,1-.883.316h-1.4l-.123-1.1H24.3q.642,0,.642-.571V-6.741Zm-1.969-4.852a21.063,21.063,0,0,0-2.109-3.006l1.081-.7a33.9,33.9,0,0,1,2.206,2.979ZM32.01-1.38v-7.77H29.927v.07a15.327,15.327,0,0,1-.562,4.17,9.955,9.955,0,0,1-1.521,3.283l-.879-.729a8.828,8.828,0,0,0,1.222-2.856,15.16,15.16,0,0,0,.431-3.718v-4.79a27.373,27.373,0,0,0,5.449-.976l.554,1.011a27.9,27.9,0,0,1-4.667.861v2.663h5.019v1.011H33.319v7.77ZM35.429.712l-4.9.018A51.156,51.156,0,0,1,25.11.554a6.272,6.272,0,0,1-2.193-.672,3.141,3.141,0,0,1-1.279-1.173A10.662,10.662,0,0,1,18.756.9L18.281-.281a10.03,10.03,0,0,0,1.358-.787,8.941,8.941,0,0,0,1.226-.918V-7.348H18.536v-1.09h3.709v5.643a1.733,1.733,0,0,0,.58,1.349,3.007,3.007,0,0,0,1.362.7q.782.18,1.468.277t3.981.1q4.254,0,6.047-.114Zm2.206.053-.22-1.213q.492-.018,1.723-.1.738-1.028,1.771-2.826T42.5-6.4h-5.66V-7.5h7.242V-11H37.652V-12.12h6.434v-2.663H45.51v2.663H52.4V-11H45.51V-7.5h7.664v1.1H44.068A41.626,41.626,0,0,1,40.755-.659q5.968-.439,9.026-.879Q48.27-3.56,47.347-4.6l1.125-.642A57.428,57.428,0,0,1,52.84.308l-1.23.606Q51.442.633,50.563-.492,47.47-.018,37.635.765Z" transform="translate(118.8 633.249)"/>
    <path id="パス_3961" data-name="パス 3961" d="M0,0H110V84.26H0Z" transform="translate(337.042 585.394)" fill="#111328"/>
    <path id="パス_3960" data-name="パス 3960" d="M17.147-7.717a20.363,20.363,0,0,1-4.241-2.54,22.731,22.731,0,0,1-3.942-3.665,17.877,17.877,0,0,1-3.533,3.485A21.835,21.835,0,0,1,.756-7.611L.167-8.578a23.6,23.6,0,0,0,4.487-2.856A15.784,15.784,0,0,0,7.937-14.8H9.879A18.137,18.137,0,0,0,13.6-11.3a19.516,19.516,0,0,0,4.267,2.457Zm-3.542-.571H4.447V-9.352h9.158ZM13.887.088H3.973V.967H2.593V-5.88H15.275V.914H13.887ZM3.973-.976h9.914V-4.816H3.973ZM32.528.905H29.936l-.158-1.23h2.329a.887.887,0,0,0,.6-.211A.61.61,0,0,0,32.95-1v-12.12H20.865V1.072h-1.3V-14.15H34.286V-.51a1.257,1.257,0,0,1-.505,1A1.9,1.9,0,0,1,32.528.905ZM22.245-10.239V-11.3h9.2v1.063ZM24.4-2.6v.9H23.071V-8.042h7.734V-2.6Zm0-1.046h5.08V-7.031H24.4Zm23.977-9.229v.782H47.092v-.782H42.653v.844H41.379v-.844H36.923v-.976h4.456v-.923h1.274v.923h4.438v-.923h1.283v.923h4.553v.976Zm-6.1,10.9a5.759,5.759,0,0,1-4.069,3.111L37.749.211A5.121,5.121,0,0,0,40.86-1.978H36.791v-1h4.491a6.035,6.035,0,0,0,.141-1.23l1.336.018q-.009.4-.114,1.213H47.61V-4.535L47.5-4.544a1.391,1.391,0,0,1-.853-.338.973.973,0,0,1-.343-.76v-4.887H41.625a6.629,6.629,0,0,1-.58.958h3.867v.2a3.665,3.665,0,0,1-.171.949,6.009,6.009,0,0,1-.435,1.107,5.461,5.461,0,0,1-.848,1.143,6.409,6.409,0,0,1-1.428,1.138,8.323,8.323,0,0,1-1.9.822,13.228,13.228,0,0,1-2.325.457l-.272-.905a9.826,9.826,0,0,0,3.832-1.266l.105-.062q-1.459-.747-2.733-1.31-.554.4-1.037.677l-.606-.677a9.649,9.649,0,0,0,3.217-3.234h-3v-.958h15.2v.958H47.566v1.942a21.9,21.9,0,0,0,4.1-1.187l.642.949A37.606,37.606,0,0,1,47.566-7.6v1.354a.6.6,0,0,0,.356.637,6.41,6.41,0,0,0,1.727.136,6.94,6.94,0,0,0,1.556-.105.778.778,0,0,0,.5-.387,3.322,3.322,0,0,0,.145-1.248v-.123l1.011.114v1.45a1.134,1.134,0,0,1-.541,1.011,8.472,8.472,0,0,1-3.371.29v1.494h4.3v1h-4.3V.984H47.61V-1.978ZM39.507-7.9q.844.325,2.821,1.266a4,4,0,0,0,1.257-2.153H40.4A11.527,11.527,0,0,1,39.507-7.9ZM60.741,3.665H58.869a14.344,14.344,0,0,1-2.6-4.184,12.678,12.678,0,0,1-.8-4.57,13.148,13.148,0,0,1,3.4-8.745h1.872v.088a11.259,11.259,0,0,0-2.8,3.836,11.468,11.468,0,0,0-1.05,4.821A11.47,11.47,0,0,0,57.938-.268a11.36,11.36,0,0,0,2.8,3.845Zm4.421-14.634A20.564,20.564,0,0,0,63.053-14l1.116-.694q1.415,1.749,2.224,2.971ZM76.808-4.614H73.775v3.1H72.457v-3.1H69.592v3.252h-1.31v-9.387H72.4q-.888-.615-2.681-1.617l.861-.729q.861.475,2.338,1.38a26.925,26.925,0,0,0,3.243-1.749H68.01v-1.011h9.457l.844.809a17.391,17.391,0,0,1-4.438,2.549q.2.123.571.369h3.7v8.042a1.146,1.146,0,0,1-.439.958,1.761,1.761,0,0,1-1.116.343H74.874l-.105-1.116h1.354q.686,0,.686-.606ZM72.457-8.2V-9.826H69.592V-8.2Zm1.318-1.626V-8.2h3.032V-9.826ZM69.592-5.555h2.865V-7.26H69.592Zm4.184,0h3.032V-7.26H73.775ZM79.339.729Q77.388.747,72.2.747a15.534,15.534,0,0,1-4.548-.5,3.575,3.575,0,0,1-2.1-1.542A10.662,10.662,0,0,1,62.666.9L62.191-.281a10.677,10.677,0,0,0,1.349-.778,9.726,9.726,0,0,0,1.235-.91V-7.348H62.446v-1.09h3.709v5.643a1.733,1.733,0,0,0,.58,1.349,3.007,3.007,0,0,0,1.362.7q.782.18,1.468.277t3.981.1q4.254,0,6.047-.114ZM80.8-12.164v-1.1h7.365v-1.652H89.6v1.652h7.453v1.1ZM92.54-2.338A17.381,17.381,0,0,0,97.506-.079l-.721,1.1a15.422,15.422,0,0,1-5.265-2.558,15.8,15.8,0,0,1-5.458,2.593L85.57.088a15.556,15.556,0,0,0,5.01-2.4,13.847,13.847,0,0,1-3.05-3.981,13.562,13.562,0,0,1-1.336,1.564l-.861-.659a19.842,19.842,0,0,0,2.224-3.186,12.6,12.6,0,0,0,1.354-3.151l1.4.22a10.9,10.9,0,0,1-.6,1.564h6.144a.582.582,0,0,1,.009.123,14.273,14.273,0,0,1-.29,2.017,9.761,9.761,0,0,1-1.063,2.94A10.3,10.3,0,0,1,92.54-2.338ZM91.529-3.1l.044-.044a12.843,12.843,0,0,0,1.182-1.323,7.944,7.944,0,0,0,.769-1.279,8.538,8.538,0,0,0,.567-1.516,9.736,9.736,0,0,0,.294-1.666H89.191q-.475.853-.9,1.512A11.693,11.693,0,0,0,91.529-3.1Zm-.141-2.171a21.326,21.326,0,0,0-1.74-2.1L90.58-8l1.767,2.083Zm-8.4,6.407V-6.179a18.1,18.1,0,0,1-2.153,2.426l-.773-.738a20.078,20.078,0,0,0,2.6-3.432,17.126,17.126,0,0,0,1.78-3.722l1.406.325a21.645,21.645,0,0,1-1.978,3.841h.492V1.134Zm20.3-1.046-1.2.773a28.879,28.879,0,0,0-2.733-3.744L100.38-3.6Q102.3-1.327,103.289.088Zm25-12.964v.782H127v-.782h-4.438v.844h-1.274v-.844h-4.456v-.976h4.456v-.923h1.274v.923H127v-.923h1.283v.923h4.553v.976Zm-6.1,10.9a5.759,5.759,0,0,1-4.069,3.111l-.457-.923a5.121,5.121,0,0,0,3.111-2.188H116.7v-1h4.491a6.035,6.035,0,0,0,.141-1.23l1.336.018q-.009.4-.114,1.213h4.966V-4.535l-.114-.009a1.391,1.391,0,0,1-.853-.338.973.973,0,0,1-.343-.76v-4.887h-4.676a6.629,6.629,0,0,1-.58.958h3.867v.2a3.665,3.665,0,0,1-.171.949,6.009,6.009,0,0,1-.435,1.107,5.461,5.461,0,0,1-.848,1.143,6.409,6.409,0,0,1-1.428,1.138,8.323,8.323,0,0,1-1.9.822,13.228,13.228,0,0,1-2.325.457l-.272-.905a9.826,9.826,0,0,0,3.832-1.266l.105-.062q-1.459-.747-2.733-1.31-.554.4-1.037.677L117-7.295a9.649,9.649,0,0,0,3.217-3.234h-3v-.958h15.2v.958h-4.939v1.942a21.9,21.9,0,0,0,4.1-1.187l.642.949A37.606,37.606,0,0,1,127.477-7.6v1.354a.6.6,0,0,0,.356.637,6.41,6.41,0,0,0,1.727.136,6.94,6.94,0,0,0,1.556-.105.778.778,0,0,0,.5-.387,3.322,3.322,0,0,0,.145-1.248v-.123l1.011.114v1.45a1.134,1.134,0,0,1-.541,1.011,8.472,8.472,0,0,1-3.371.29v1.494h4.3v1h-4.3V.984h-1.336V-1.978ZM119.417-7.9q.844.325,2.821,1.266A4,4,0,0,0,123.5-8.789h-3.182A11.527,11.527,0,0,1,119.417-7.9Zm19.433-.352v-.932h5.361v-1.1H139.8v-.905h4.412V-12.4h-4.992v-.932h2.856L141.4-14.7,142.576-15l.765,1.67h2.953l.8-1.749,1.248.352-.835,1.4h3.146v.932h-5.142v1.213h4.368v.905h-4.368v1.1H151v.932Zm-2.461,9.387V-8.218a16.042,16.042,0,0,1-1.582,2.628l-.791-.659a21.453,21.453,0,0,0,2.206-4.14,23.988,23.988,0,0,0,1.45-4.526l1.3.167A25.1,25.1,0,0,1,137.224-9.7l.448.062V1.134ZM149-5.59q-.589-.7-1.336-1.687l.9-.387q.422.519,1.266,1.512Zm-7.69,6.671h-1.45l-.132-1.125h1.178q.606,0,.606-.554V-1.96l-2.646.3-.149-.949q.958-.07,2.795-.264V-4.245h-2.777V-5.15h2.777V-6.363q-1.187.114-2.391.167L139-7a24.178,24.178,0,0,0,4.808-.624l.422.809a10.981,10.981,0,0,1-1.529.308V-5.15h2.716a23.448,23.448,0,0,1-.29-2.435h1.266a20.549,20.549,0,0,0,.255,2.435H151v.905h-4.148a10.381,10.381,0,0,0,.756,1.978,13.115,13.115,0,0,0,1.5-1.354l.967.589a12.28,12.28,0,0,1-1.9,1.679q.87,1.178,1.441,1.178A.51.51,0,0,0,150-.356a4.466,4.466,0,0,0,.286-1.666l.958.141q-.07,1.362-.167,1.951a1.01,1.01,0,0,1-.426.773,1.586,1.586,0,0,1-.787.185,2.2,2.2,0,0,1-.725-.114,3.244,3.244,0,0,1-.9-.593,6.868,6.868,0,0,1-.98-1.006A17.718,17.718,0,0,1,144.176,1.1l-.5-.809a19.1,19.1,0,0,0,3-1.846,10.185,10.185,0,0,1-1.063-2.689H142.7v1.23q1.459-.176,2.039-.281l.018.853q-.747.141-2.057.325V-.132a1.07,1.07,0,0,1-.426.87A1.5,1.5,0,0,1,141.311,1.081Zm18-7.506a1.558,1.558,0,0,1,.475-1.143,1.558,1.558,0,0,1,1.143-.475,1.558,1.558,0,0,1,1.143.475,1.558,1.558,0,0,1,.475,1.143,1.558,1.558,0,0,1-.475,1.143,1.558,1.558,0,0,1-1.143.475,1.558,1.558,0,0,1-1.143-.475A1.558,1.558,0,0,1,159.311-6.425ZM174.182-11.3a12.325,12.325,0,0,1-1.863,2.355l-1.011-.624a17.33,17.33,0,0,0,1.683-2.329,13.629,13.629,0,0,0,1.261-2.522l1.45.369a15.1,15.1,0,0,1-.853,1.67h3.419v-2.4h1.45v2.4h6.407V-11.3h-6.407v3.05H187.1v1.046H170.543V-8.253h7.726V-11.3ZM184.087.246H173.681V1.02h-1.4V-5.37h13.2V1.02h-1.4ZM173.681-.817h10.406V-4.307H173.681ZM202.509.853h-2.426L199.863-.4h2.057a.788.788,0,0,0,.532-.193.6.6,0,0,0,.224-.466V-14.73h1.389V-.545A1.268,1.268,0,0,1,203.616.47,1.647,1.647,0,0,1,202.509.853Zm-10.063-6.39a8.794,8.794,0,0,1-3.375,6.662L188.244.36a7.829,7.829,0,0,0,1.837-2.3,8.562,8.562,0,0,0,.87-2.632,15.231,15.231,0,0,0,.211-2.263V-8.657h-1.819v-5.511h7.928v5.511h-4.79v2.074H197.3v.773A37.377,37.377,0,0,1,197.147-2a5.849,5.849,0,0,1-.391,1.824,1.825,1.825,0,0,1-.628.7,2.3,2.3,0,0,1-.888.325,15.4,15.4,0,0,1-1.96.079q-.413,0-.633-.009l-.185-1.187h1.749a1.488,1.488,0,0,0,.945-.286,1.823,1.823,0,0,0,.554-1,18.768,18.768,0,0,0,.189-3.507v-.483Zm3.489-7.585h-5.229V-9.7h5.229Zm3.234,10.028v-10.23h1.354v10.23Zm7.392-7.356v-1.125h9.378l.018-3.287h1.415v3.287h5.783v1.125H217.38a22.876,22.876,0,0,0,.488,4.434,11.606,11.606,0,0,0,1.49,3.718q1.046,1.674,1.7,1.674.563,0,.65-.923l.123-1.081q.053-.58.079-1.125l1.143.2a19.253,19.253,0,0,1-.237,3.226q-.237,1.38-1.354,1.38a2.122,2.122,0,0,1-1.187-.338A7.485,7.485,0,0,1,218.9-.624a10.584,10.584,0,0,1-1.538-2.492,14.142,14.142,0,0,1-1.024-3.476,26.32,26.32,0,0,1-.387-3.858Zm14.186-1.2q-.237-.325-2.18-2.408l1.081-.694q.756.747,2.224,2.294ZM206.965.6l-.22-1.2q1.424-.1,4-.36V-6.82h-3.419V-7.9h8.007V-6.82h-3.19v5.713q3.015-.334,4.052-.519l.044,1.143q-.782.176-4.087.549T206.965.6Zm19.986,3.067h-1.872V3.577a11.462,11.462,0,0,0,2.808-3.854,11.451,11.451,0,0,0,1.042-4.812A11.45,11.45,0,0,0,227.883-9.9a11.36,11.36,0,0,0-2.8-3.845v-.088h1.872a13.148,13.148,0,0,1,3.4,8.745,12.707,12.707,0,0,1-.8,4.553A14.383,14.383,0,0,1,226.951,3.665Z" transform="translate(296.968 633.319)" fill="#fff"/>
  </g>
</svg>
