<?xml version="1.0" encoding="utf-8"?>
<!-- Generator: Adobe Illustrator 26.0.1, SVG Export Plug-In . SVG Version: 6.00 Build 0)  -->
<svg version="1.1" id="レイヤー_1" xmlns="http://www.w3.org/2000/svg" xmlns:xlink="http://www.w3.org/1999/xlink" x="0px"
	 y="0px" viewBox="0 0 114.8 370.3" style="enable-background:new 0 0 114.8 370.3;" xml:space="preserve">
<style type="text/css">
	.st0{fill:#222222;}
	.st1{fill:#005748;}
	.st2{fill:#FFFFFF;}
</style>
<g id="グループ_3116" transform="translate(-582.832 -883.442)">
	<path id="パス_4109" class="st0" d="M667.4,977.4c2.8-1.4,5.3-3.1,7.6-5.2c2.8-2.5,5.3-5.4,7.2-8.7c1.5,2.9,3.4,5.6,5.7,7.9
		c2,2.2,4.4,3.9,7,5.2c0.7-1.5,1.2-2,2.5-2.1l0.1-0.4c-3-0.8-5.8-2.1-8.3-4c-2.7-1.8-4.9-4.2-6.6-6.9c0.9-0.2,1.2-0.4,1.2-0.6
		c0-0.3-0.4-0.4-2.1-0.8c-0.4-0.1-0.9-0.2-1.6-0.3c-0.1,0.5-0.3,1.1-0.6,1.6c-1,1.9-2.2,3.6-3.5,5.3c-2.5,3.3-5.6,6.2-9,8.5
		L667.4,977.4z M675.2,974c0.7-0.1,1.4-0.2,2.1-0.2h10.9c0.4,0,0.4,0,0.4-0.2c0-0.1-0.1-0.2-0.3-0.4c-1.2-1-1.5-1.2-2.7-2.1
		c-0.7,0.8-1,1.1-1.7,1.9h-6.7c-0.8,0-1.6-0.1-2.4-0.3L675.2,974z M675,988.2h13.5v1.5c0,0.3,0.2,0.4,0.5,0.4c0.5,0,1.1-0.1,1.6-0.2
		c0.2-0.1,0.3-0.2,0.3-0.4v-0.1c-0.1-5-0.1-5-0.1-9.6c0.8-0.3,1.1-0.5,1.1-0.7c0-0.1-0.1-0.2-0.3-0.4c-0.9-0.7-1.2-1-2-1.6
		c-0.5,0.5-0.9,1.1-1.3,1.6h-12.9c-0.8-0.6-1.7-1.1-2.6-1.6c0.1,1.2,0.1,2.4,0.1,4.9c0,1.3,0,2.9-0.1,7.9c0,0.4,0.1,0.4,0.4,0.4
		c0.6,0,1.1-0.1,1.7-0.2c0.2-0.1,0.2-0.2,0.2-0.4V988.2z M675,979.3h13.5v8.2H675V979.3z M672.3,1002.4h19.6v22.4
		c0,0.3-0.1,0.4-0.4,0.4h-0.2c-1.9-0.1-1.9-0.1-5.9-0.2v0.5c2.8,0.4,3,0.4,3.5,0.7c0.5,0.3,0.8,0.6,1.1,1.8c1.1-0.1,2.2-0.4,3.2-0.9
		c0.6-0.2,1-0.9,1-1.5v-2.6c-0.1-5.5-0.1-5.5-0.1-6.6v-13c0.3-0.2,0.5-0.4,0.6-0.4c0.1-0.1,0.1-0.1,0.2-0.1c0.3-0.2,0.4-0.3,0.4-0.4
		s-0.1-0.3-0.4-0.4c-0.7-0.6-1.5-1.1-2.2-1.6c-0.5,0.7-0.7,0.9-1.2,1.6h-18.8c-1.2-0.6-1.6-0.8-2.8-1.4c0.1,1.6,0.1,6.3,0.1,12.4
		c0,4.5-0.1,11.5-0.2,14.9c0,0.4,0.2,0.5,0.8,0.5c1.3,0,1.7-0.1,1.7-0.6c-0.1-5.1-0.1-5.1-0.1-7.7V1002.4z M674.2,1007.9
		c0.9-0.2,1.8-0.3,2.7-0.3h13.2c0.2,0,0.3-0.1,0.4-0.3c0-0.1-0.1-0.2-0.2-0.3c-1.1-1-1.5-1.3-2.6-2.2c-0.5,0.7-1.1,1.4-1.6,2.1h-9
		c-1.1,0-2.2-0.2-3.2-0.4L674.2,1007.9z M678.4,1019.7h7.3v1.9c0,0.4,0.2,0.5,0.6,0.5c1.2,0,1.6-0.1,1.6-0.6c-0.1-1.7-0.1-3.2-0.1-6
		c0-0.6,0-1.5,0-2.7c0.7-0.6,0.9-0.8,0.9-1c0-0.1-0.1-0.2-0.3-0.4c-0.6-0.5-1.3-1-2-1.4c-0.5,0.6-0.7,0.8-1.2,1.4h-6.5
		c-0.8-0.5-1.7-0.9-2.6-1.2c0.1,1.3,0.1,2.8,0.1,6c0,2,0,3.3-0.1,5.8v0.1c0,0.3,0.2,0.4,0.7,0.4c0.4,0,0.9-0.1,1.3-0.2
		c0.2-0.1,0.3-0.3,0.3-0.4L678.4,1019.7z M678.4,1012.1h7.3v6.8h-7.3V1012.1z M685.9,1045.4H696c0.2,0,0.4-0.1,0.4-0.2
		c0-0.1-0.1-0.2-0.1-0.3c-1.2-1-1.5-1.3-2.8-2.3c-0.9,0.9-1.1,1.2-2,2h-20.4c-1,0-2-0.1-2.9-0.3l0.2,1.2c0.9-0.2,1.8-0.2,2.7-0.2
		h3.7c-0.6,1.1-1.4,2.2-2.3,3.1c-1.5,1.7-3.2,3.3-5.1,4.5l0.3,0.4c1.8-0.8,3.5-1.8,4.9-3c1,0.7,1.8,1.5,2.5,2.5
		c0.2,0.3,0.3,0.3,0.5,0.4c-2.5,1.9-5.3,3.3-8.3,4.3l0.2,0.5c2.6-0.5,5.1-1.4,7.4-2.7c2.8-1.4,5.2-3.6,6.8-6.2
		c1.1-0.4,1.2-0.4,1.2-0.6c0-0.1-0.1-0.2-0.3-0.4c-0.7-0.6-0.9-0.7-1.7-1.3c-0.6,0.5-0.7,0.6-1.3,1.1h-4.5c0.7-0.8,1.4-1.6,2-2.6
		h6.6v8.2c0.1,1.6,0.4,1.7,5.5,1.7c6,0,6.8-0.2,6.8-1.2c0-0.4-0.3-0.7-0.7-0.8c-0.6-0.2-0.6-0.2-0.6-0.4v-0.7l0.2-2.5l-0.4,0
		c-0.4,1.2-0.9,2.4-1.4,3.6c-0.2,0.3-0.4,0.4-1.6,0.4h-1.3c-0.8,0-1.3,0-1.6,0c-0.9,0-2.4-0.1-2.6-0.1c-0.3-0.1-0.4-0.2-0.4-0.6
		v-1.8c2.3-0.5,4.6-1.3,6.8-2.4c0.4,0,1,0,1.2,0c0.4,0,0.6-0.1,0.6-0.3c0-0.2-0.4-0.5-2.7-1.7c-1.7,1.6-3.7,2.9-5.8,3.8V1045.4z
		 M679.9,1048.7c-1,1.6-2.2,3-3.6,4.2c0.2-0.3,0.3-0.6,0.3-0.9c0-0.5-0.4-0.8-1.4-1.2c-0.6-0.2-1.3-0.4-2-0.5c0.6-0.5,1-0.8,1.6-1.4
		L679.9,1048.7z M678.6,1040.3v-1.6c1.1-0.3,1.3-0.4,1.3-0.6c0-0.3-0.4-0.4-1.9-0.5c-0.4,0-0.9-0.1-1.6-0.2c0.1,0.7,0.1,1.4,0.1,2
		c0,0.3,0,0.5,0,0.9h-6.1c-0.9,0-1.9-0.1-2.8-0.3l0.2,1.2c0.8-0.1,1.7-0.2,2.6-0.2h6.1c0,0.6,0,0.9-0.1,2c0,0.2,0.1,0.3,0.3,0.3
		c0.6,0,1.2,0,1.7-0.2c0.1-0.1,0.1-0.1,0.1-0.3c0-0.4-0.1-0.6-0.1-0.8l0-0.6v-0.4h6.1c0,0.6,0,1-0.1,2c0,0.2,0.1,0.3,0.4,0.3
		c1.4,0,1.7-0.1,1.8-0.4c0-0.9,0-1.2,0-1.8h9.8c0.2,0,0.3-0.1,0.3-0.2c0-0.1-0.1-0.2-0.1-0.3c-1.3-1.1-1.7-1.4-3-2.4
		c-0.9,0.9-1.2,1.2-2,2.1h-4.9c0-0.4,0-0.4,0-1.6c1.1-0.3,1.3-0.4,1.3-0.6c0-0.3-0.8-0.4-3.6-0.7c0.1,0.9,0.2,1.8,0.2,2.7
		c0,0.1,0,0.2,0,0.3H678.6z M670.8,1058.7c-0.9,0-1.8,0-2.7-0.2l0.2,1.2c0.8-0.2,1.7-0.2,2.5-0.2h5.8c-0.2,1.4-0.8,2.8-1.8,3.8
		c-1.4,1.4-3.3,2.3-7,3.2l0.1,0.5c3.9-0.4,6.7-1.4,8.6-3.2c1.2-1.1,2-2.7,2.1-4.3h6v2.1c0,1.6,0,2.5-0.1,4.7c0,0.3,0.1,0.4,0.4,0.4
		c0.6,0,1.1,0,1.7-0.2c0.1-0.1,0.2-0.2,0.2-0.3c-0.1-3.7-0.1-3.9-0.1-4.7v-2h9.7c0.1,0,0.3-0.1,0.3-0.2c0-0.1-0.1-0.2-0.1-0.3
		c-1.2-1.1-1.6-1.4-2.9-2.4c-0.9,0.9-1.1,1.2-2,2.1h-4.9v-1.4c1.1-0.4,1.1-0.5,1.1-0.7c0-0.3-0.3-0.3-3.3-0.6
		c0.1,0.9,0.1,1.8,0.1,2.7h-5.9c0.1-0.4,0.1-0.5,0.2-1.5c1-0.4,1.2-0.4,1.2-0.6s-0.5-0.4-1.9-0.6c-0.4,0-0.9-0.1-1.5-0.2
		c0.1,0.5,0.1,0.9,0.1,1.4c0,0.5,0,1-0.1,1.6L670.8,1058.7z M675.7,1090.2l-1.7,4.1l-1.3,3.2c-0.4-1.3-0.6-2.6-0.5-4
		c0-3.6,0.9-7.2,2.4-10.4c0.5-1.1,0.5-1.1,0.5-1.4c-0.1-0.9-0.5-1.8-1.2-2.4c-0.9-1.2-1.5-1.6-2.2-1.6c0.6,0.8,0.9,1.8,0.9,2.8
		c-0.1,1-0.2,1.9-0.5,2.9c-0.9,3.5-1.4,7.1-1.4,10.7c0,2.2,0.3,4.4,1,6.4c0.4,1,0.8,1.4,1.4,1.4c0.2,0,0.5-0.1,0.6-0.4
		c0.2-0.3,0.2-0.4,0.2-1.4c0-0.9,0.2-1.8,0.4-2.7c0.4-1.6,1.3-5.1,1.9-7.1L675.7,1090.2z M679.1,1084.9c1.3,1.5,3.3,2.4,5.3,2.2
		c0.9,0,1.9-0.1,2.8-0.3l0,4.1l0.1,3.4v0.5c-0.9-0.1-1.3-0.1-2-0.1c-3.6,0-6,1.4-6,3.6c0,1.9,2,3.3,4.7,3.3c3.2,0,5.1-1.4,5.1-3.7
		c0-0.3,0-0.5,0-0.8c1.3,0.6,2.5,1.5,3.5,2.6c0.6,0.6,0.9,0.8,1.1,0.8c0.4,0,0.6-0.5,0.6-1.2c0-1.9-1.6-3.1-5.3-4.1
		c-0.3-2.9-0.5-5.8-0.4-8.7c3.3-0.6,5.7-1.6,5.7-2.3c0-0.3-0.2-0.5-0.4-0.6c-0.5-0.2-1-0.4-1.5-0.4c-0.3,0-0.4,0-0.7,0.4
		c-0.9,0.6-1.9,1.1-2.9,1.3c0-1.5,0.2-2.9,0.7-4.3c0.3-0.7,0.3-0.8,0.3-1c0-0.5-0.5-0.9-1.4-1.2c-0.7-0.2-1.4-0.3-2.2-0.3
		c-0.6-0.1-1.1,0.1-1.5,0.5c0.8,0,1.5,0.2,2.1,0.7c0.4,0.4,0.4,0.9,0.4,4.4v1.4c-1.2,0.3-2.4,0.4-3.6,0.4c-1.5,0-2.9-0.4-4.1-1.3
		L679.1,1084.9z M687.3,1096.7c0.1,0.8-0.1,1.5-0.4,2.2c-0.5,1-1.8,1.5-3.5,1.5c-1.9,0-3.1-0.8-3.1-1.9c0-1.4,1.6-2.2,4.1-2.2
		C685.3,1096.3,686.3,1096.4,687.3,1096.7z"/>
	<path id="パス_4108" class="st0" d="M632.6,965.6c0.6,0.8,1.4,1.4,2.2,1.9c1.1,0.5,2.4,0.8,3.6,0.9c0.6,0,1.7,0,2.4-0.1
		c-0.5,0.3-0.5,0.3-2.7,1.5c-0.8,0.4-1.3,0.8-2.3,1.3l0.2,0.5c0.6-0.2,0.6-0.3,1.2-0.5c1.9-0.8,1.9-0.8,2.6-1.1
		c1.5-0.7,3.1-1.2,4.7-1.6c2.1-0.5,2.3-0.6,2.3-1.1c-0.2-0.9-1-1.6-1.9-1.7c-0.2,0-0.4,0.1-0.6,0.1c-2.2,0.6-4.4,0.9-6.7,1
		c-1.7,0.1-3.5-0.4-4.9-1.4L632.6,965.6z M631.4,977.8c-0.3,0.9-0.5,1.8-0.5,2.7c0,2,1,3.9,2.7,5.1c1.6,1.1,3.9,1.5,7.5,1.5
		c2.5,0,5-0.2,7.5-0.6c0.7-0.2,1-0.5,1-1c-0.1-0.5-0.3-0.9-0.7-1.1c-0.5-0.4-1.1-0.6-1.8-0.6c-0.2,0-0.4,0-0.5,0.1
		c-2.3,0.8-4.7,1.2-7.1,1.2c-5.2,0-7.6-1.8-7.6-5.6c0-0.4,0-0.7,0.1-1.4L631.4,977.8z M640,1026.1c2.2-0.3,4.3-1,6.2-2
		c4-2.1,6.4-5.7,6.4-9.7c0.1-2.8-1-5.6-3.1-7.5c-2.3-2-5.2-3-8.3-2.9c-4.1,0-8.1,1.6-11,4.5c-1.7,1.7-2.7,3.9-2.9,6.3
		c0,1,0.3,2,0.7,2.9c0.5,1,1,2,1.4,3c0.2,0.7,0.5,1.4,0.9,2c0.3,0.4,0.9,0.7,1.4,0.7c1.2,0,2.8-1.6,4.8-4.8
		c2.4-3.9,4.2-8.6,4.2-11.1c0-1-0.4-1.9-1-2.7c0.4,0,0.7-0.1,1.1-0.1c1.9,0,3.9,0.5,5.5,1.5c2.4,1.5,3.8,4.2,3.6,7.1
		c0,2.8-1,5.6-2.8,7.7c-2,2.2-4.6,3.8-7.5,4.4L640,1026.1z M639.1,1005c0.3,0.5,0.4,1,0.4,1.6c0,2-1.7,6.1-4.1,9.9
		c-1.6,2.5-3.1,4.2-3.8,4.2c-0.4,0-0.8-0.4-1.2-0.9c-0.8-1.2-1.3-2.7-1.3-4.2C629.2,1010.6,633.6,1006,639.1,1005L639.1,1005z
		 M635.8,1039.6c2.1,0.4,2.6,0.9,2.8,2.7c0.3,2.1,0.3,2.1,0.4,15c-0.5,0-1,0-1.2,0c-1.6,0-3.1,0.2-4.6,0.8c-2,0.8-3.1,2-3.1,3.5
		c0,2.1,2.1,3.5,5.5,3.5c1.1,0,2.2-0.2,3.3-0.5c1.4-0.4,2.4-1.7,2.3-3.2c0-0.6,0-0.6-0.1-2.1c2.7,0.7,5.2,2.1,7.2,4.1
		c0.4,0.3,0.5,0.4,0.8,0.4c0.4,0,0.6-0.4,0.6-1.2c0-1.1-0.6-2-2-2.8c-2.1-1.2-4.4-2-6.8-2.3c-0.2-2.1-0.4-5.8-0.4-8.4v-1.4
		c0.6,0.6,1.3,0.8,2.1,0.8c1.5-0.1,3-0.4,4.4-1c1.5-0.5,1.9-0.8,1.9-1.3c0-0.3-0.2-0.5-0.7-0.8c-0.4-0.2-0.9-0.4-1.4-0.4
		c-0.2,0-0.4,0.1-0.7,0.4c-1.4,1-3.1,1.7-4.9,1.9c-0.3,0-0.6-0.1-0.9-0.4v-0.6c0-1.6,0.2-3.1,0.6-4.6c0.3-0.6,0.3-0.6,0.3-0.9
		c0-0.6-0.5-1.1-1.6-1.4c-0.8-0.2-1.7-0.4-2.6-0.4C636.7,1039.1,636.2,1039.3,635.8,1039.6z M639,1058.9c0,2.2-0.1,2.8-0.5,3.4
		c-0.6,0.8-2.1,1.3-4,1.3c-2.3,0-3.6-0.7-3.6-2c0-1.6,2.4-2.7,5.7-2.7C637.6,1058.8,638,1058.8,639,1058.9z M635.8,1075.5
		c1.2,1.9,3.2,3.2,5.4,3.5c-0.8,0.3-3,1.3-5.4,2.4l0.2,0.4c6.6-1.9,6.6-1.9,8-2c0.9,0,1.3-0.3,1.3-0.7c-0.1-0.4-0.3-0.8-0.7-1.1
		c-0.5-0.5-1.1-0.8-1.7-0.8h-0.7c-2.2,0-4.3-0.7-6-2.1L635.8,1075.5z M638.1,1104.7c1.9-0.9,3.6-2.2,5-3.7c2.5-2.8,4-6.5,4-10.3
		c0.1-1.7-0.4-3.3-1.2-4.7c-0.9-1.3-2.4-2.1-4-2.1c-1.6,0-2.7,0.4-5.4,1.8c-0.9,0.6-1.9,1-2.9,1.2c-0.8,0-1.5-0.8-1.8-2.2
		c-0.3,0.3-0.5,0.7-0.5,1.2c0.1,0.8,0.4,1.5,0.9,2.1c0.4,0.8,1.2,1.3,2.1,1.4c0.5,0,0.7-0.1,1.3-0.7c2.2-2.4,4.4-3.8,6.1-3.8
		c1.9,0,3,2,3,5.1c0,3.4-1,6.8-2.7,9.7c-1.1,1.8-2.6,3.3-4.2,4.6L638.1,1104.7z M627.7,1120.3c0.6,1,1.4,1.8,2.3,2.3
		c0.9,0.5,1.8,0.7,2.8,0.7c0.5,0,1,0,1.5-0.1c-1.1,2.6-2.4,5.2-4,7.5c-0.5,0.7-1,1.3-1.5,1.9c-0.3,0.3-0.4,0.7-0.3,1.2
		c0,1.3,0.4,2.3,1,2.3c0.4,0,0.7-0.3,1.2-1.2c0.3-0.5,2.8-5.9,3.7-8.1c0.9-1.9,1.4-3.2,1.7-3.9c5.1-1.2,7.1-2,7.1-2.8
		c0-0.5-0.9-1-2.2-1c-0.3,0-0.5,0.1-0.7,0.3c-0.9,0.8-1.2,0.9-3.6,1.8c1.2-2.4,1.8-3.7,2-3.9c0.2-0.2,0.3-0.5,0.3-0.8
		c0-0.4-0.4-0.8-1.5-1.3c-0.8-0.4-1.7-0.7-2.6-0.7c-0.3,0-0.5,0.1-0.8,0.2c1.5,0.8,2,1.4,2,2.5c-0.1,1.6-0.5,3.1-1.2,4.5
		c-1,0.2-1.9,0.4-2.9,0.4c-1.6,0-2.5-0.4-4-1.9L627.7,1120.3z M644.9,1122.3c2.3,0.8,3.3,1.3,4.1,2.2c-1.2,0.3-1.2,0.3-1.7,0.4
		c-1.1,0.2-2.2,0.7-3,1.5c-0.9,1-1.1,2-1.1,4.6c0,0.4,0,0.6,0.1,3.2c-0.6-0.1-1.3-0.2-1.9-0.2c-3.6,0-6,1.6-6,3.8c0,2,2,3.4,4.9,3.4
		c1.5,0.1,3-0.4,4.2-1.4c0.7-0.7,1-1.7,0.9-2.7v-0.6c1.5,0.7,2.8,1.6,3.9,2.8c0.7,0.7,0.8,0.8,1.1,0.8c0.4,0,0.6-0.4,0.6-1.1
		c0-1-0.5-1.9-1.3-2.5c-1.4-1-2.9-1.7-4.5-2.1c-0.3-1.8-0.5-3.7-0.6-5.5c0-2.2,0.8-2.9,3.4-2.9c1.1-0.1,2.2,0.1,3.1,0.7
		c0.2,0.2,0.5,0.3,0.7,0.3c0.5,0,0.8-0.4,0.8-0.8c0,0,0-0.1,0-0.1c0-0.7-0.8-1.7-2-2.5c-1.6-1-3.5-1.7-5.5-1.8L644.9,1122.3z
		 M643.3,1136.7c0,2-1.3,3.1-3.9,3.1c-2,0-3.2-0.7-3.2-1.9c0-1.5,1.7-2.4,4.4-2.4c0.9,0,1.9,0.1,2.8,0.4V1136.7z M646.9,1169.6
		c-0.7,1.8-1.8,3.4-3.1,4.9c-2.1,2.4-4.6,4.4-7.5,5.9l0.3,0.4c1.1-0.4,2.2-0.9,3.2-1.5c2.1-1.1,4-2.5,5.7-4.2
		c1.5-1.6,2.7-3.4,3.6-5.5h1.7c-0.1,2.6-0.5,5.2-1.3,7.6c-0.3,0.6-0.6,0.8-1.4,0.8c-0.8,0-2.2-0.1-4.1-0.3l0,0.5
		c3.2,0.4,3.5,0.7,3.8,2.3c1.8-0.3,3-1,3.5-1.9c0.6-1.2,1.3-4.5,1.7-8.5c0.7-0.3,1-0.5,1-0.8c0-0.1-0.1-0.2-0.3-0.4
		c-0.6-0.5-1.2-1-1.9-1.4c-0.4,0.4-0.8,0.8-1.2,1.2h-10.9c0.8-0.9,1.5-1.9,2.1-2.9h12.9c0.3,0,0.4-0.1,0.4-0.2
		c0-0.1-0.1-0.2-0.2-0.3c-0.8-0.8-1.7-1.5-2.6-2.1c-0.8,0.8-1.1,1.1-1.9,1.9h-13.8c-1,0-1.9-0.1-2.9-0.3l0.2,1.2
		c0.9-0.2,1.8-0.2,2.7-0.2h2.7c-0.7,1.3-1.6,2.6-2.6,3.6c-1.6,1.8-3.4,3.4-5.4,4.6l0.3,0.5c2.7-1.3,5.3-3,7.4-5.1h2.8
		c-0.7,1.3-1.6,2.6-2.6,3.7c-1.9,2-4.3,3.6-6.8,4.7l0.3,0.5c2.9-0.9,5.6-2.5,7.9-4.5c1.4-1.3,2.5-2.7,3.5-4.3H646.9z M631.5,1161
		v-7.2c1-0.3,1.3-0.4,1.3-0.7c0-0.3-0.4-0.4-3.5-0.8c0.1,1.2,0.1,1.8,0.1,3v5.7h-1.9c-0.8,0-1.5-0.1-2.3-0.3l0.2,1.2
		c0.7-0.1,1.4-0.2,2-0.2h1.9v8.9c-1.3,0.5-2.6,0.9-3.9,1.2c0.8,2,1.2,3,1.2,3.1c0.1,0.2,0.2,0.3,0.4,0.3c0.3,0,0.4-0.4,0.5-1.6
		c0.8-0.5,0.8-0.5,4.1-2.5c0.9-0.5,1.9-1.2,3.7-2.5l-0.2-0.4c-1.6,0.8-2.2,1.1-3.6,1.6v-8.1h5.1c0.2,0,0.4-0.1,0.4-0.2
		c0-0.1-0.1-0.2-0.2-0.3c-0.9-0.9-1.2-1.2-2.2-2c-0.7,0.7-0.9,1-1.5,1.8L631.5,1161z M640,1162.4h8.2v0.8c0,0.3,0.1,0.4,0.4,0.4
		c0.5,0,0.9-0.1,1.3-0.2c0.3-0.1,0.3-0.2,0.3-0.5c0-3.4-0.1-5.1-0.1-6.4v-1.9c0.9-0.5,1-0.6,1-0.8c0-0.1-0.1-0.3-0.3-0.4
		c-0.7-0.6-1-0.8-1.8-1.3c-0.5,0.5-0.7,0.7-1.2,1.3h-7.5c-0.8-0.5-1.6-1-2.4-1.4c0.1,1.2,0.1,3.1,0.1,6.9c0,1.1,0,2.2-0.1,4.5
		c0,0.3,0.1,0.4,0.6,0.4c1.2,0,1.5-0.1,1.5-0.6L640,1162.4z M648.1,1157.4H640v-3.3h8.2V1157.4z M648.1,1158.2v3.6H640v-3.6H648.1z
		 M625.4,1205.4c2.8-1.4,5.3-3.1,7.6-5.2c2.8-2.5,5.3-5.4,7.2-8.7c1.5,2.9,3.4,5.6,5.7,7.9c2,2.2,4.4,3.9,7,5.2
		c0.7-1.5,1.2-2,2.5-2.1l0.1-0.4c-3-0.8-5.8-2.1-8.3-4c-2.7-1.8-4.9-4.2-6.6-6.9c0.9-0.2,1.2-0.4,1.2-0.6c0-0.3-0.4-0.4-2.1-0.8
		c-0.4-0.1-0.9-0.2-1.6-0.3c-0.1,0.5-0.3,1.1-0.6,1.6c-1,1.9-2.2,3.6-3.5,5.3c-2.5,3.3-5.6,6.2-9,8.5L625.4,1205.4z M633.2,1202
		c0.7-0.1,1.4-0.2,2.1-0.2h10.9c0.4,0,0.4,0,0.4-0.2c0-0.1-0.1-0.2-0.3-0.4c-1.2-1-1.5-1.2-2.7-2.1c-0.7,0.8-1,1.1-1.7,1.9h-6.7
		c-0.8,0-1.6-0.1-2.4-0.3L633.2,1202z M633,1216.2h13.5v1.5c0,0.3,0.2,0.4,0.5,0.4c0.6,0,1.1-0.1,1.6-0.2c0.2-0.1,0.3-0.2,0.3-0.4
		v-0.1c-0.1-5-0.1-5-0.1-9.6c0.8-0.3,1.1-0.5,1.1-0.7c0-0.1-0.1-0.2-0.3-0.4c-0.9-0.7-1.2-1-2-1.6c-0.5,0.5-0.9,1.1-1.3,1.6h-12.9
		c-0.8-0.6-1.7-1.1-2.6-1.6c0.1,1.2,0.1,2.4,0.1,4.9c0,1.3,0,2.9-0.1,7.9c0,0.4,0.1,0.4,0.4,0.4c0.6,0,1.1-0.1,1.7-0.2
		c0.2-0.1,0.2-0.2,0.2-0.4V1216.2z M633,1207.3h13.5v8.2H633V1207.3z M633.7,1242.2l-1.7,4.5c-0.3,0.9-0.7,1.8-1.2,2.7
		c-0.5-1.4-0.7-2.8-0.6-4.2c0-1.3,0.1-2.7,0.4-4c0.4-1.7,1-3.5,1.7-5.1c0.6-1.3,0.7-1.4,0.7-1.9c-0.1-1-0.5-1.8-1.2-2.5
		c-0.9-1.1-1.4-1.5-2.1-1.6c0.6,0.9,0.9,1.9,0.9,3c0,1-0.2,2-0.4,3c-0.5,2-0.9,4-1.1,6c-0.2,1.1-0.2,2.3-0.3,3.4
		c0,2.3,0.3,4.6,1.1,6.8c0.4,0.9,0.8,1.3,1.4,1.3c0.3,0,0.7-0.2,0.8-0.5c0.1-0.5,0.1-0.9,0.1-1.4c0-1.2,0.2-2.3,0.5-3.4
		c0.9-3.7,1.4-5.7,1.4-6L633.7,1242.2z M637.8,1234.2c1.1,1.2,2.7,1.9,4.4,1.8c0.3,0,0.6,0,1.3-0.1c-0.5,0.4-1.6,1.3-3,2.5l0.3,0.3
		c1.3-0.9,2.7-1.6,4.1-2.3c1.5-0.6,3-0.9,4.5-1.1c0.7-0.1,0.9-0.3,0.9-0.7c0-0.4-0.3-0.8-1-1.2c-0.3-0.2-0.7-0.4-1.1-0.4
		c-0.2,0-0.3,0-0.7,0.3c-2,0.9-4.2,1.4-6.4,1.4c-1.1,0-2.1-0.3-3-0.9L637.8,1234.2z M637.6,1243.9c-0.3,0.8-0.4,1.7-0.4,2.5
		c-0.1,1.6,0.6,3.1,1.7,4.2c1.4,1.3,4.3,2,8.3,2c1.3,0.1,2.7-0.1,4-0.4c0.4-0.2,0.7-0.4,0.7-0.8c-0.2-1-1-1.7-2-1.9
		c-0.2,0-0.3,0-0.5,0.1c-0.5,0.3-1.1,0.4-1.7,0.5c-0.9,0.2-1.8,0.2-2.7,0.2c-5,0-7-1.4-7-5c0-0.4,0-0.9,0.1-1.3L637.6,1243.9z"/>
	<path id="パス_4107" class="st0" d="M599.4,983.4c0.2,0,0.4-0.1,0.6-0.2c0.1-0.1,0.1-0.2,0.1-0.3c0-0.1-0.1-0.2-0.2-0.3
		c-0.3-0.1-1.9-0.6-3.1-0.9c-0.7,1-1.5,1.9-2.4,2.7c-0.7,0.7-1.5,1.3-2.4,1.9c-1.3-0.4-2.3-1.4-2.9-2.7V976c0.7-0.5,1-0.7,1-1
		c0-0.2-0.1-0.3-0.2-0.4c-0.6-0.5-1.2-1-1.9-1.4c-0.5,0.6-0.7,0.8-1.2,1.4h-1.8c-0.8,0-1.5-0.1-2.2-0.3l0.4,1.2
		c0.6-0.1,1.2-0.2,1.8-0.2h2v8.8c-1.3,1-2.6,1.8-4.1,2.5c1.4,2.8,1.7,3.3,2,3.3c0.2,0,0.4-0.3,0.4-0.6c0-0.3-0.1-0.7-0.1-1
		c1.2-1.5,2.3-3,3.2-4.7c0.6,1.7,1.8,3.2,3.4,4.1c1.5,1,3,1.4,5.7,1.5c1.4,0.1,3.3,0.1,9.4,0.1c1.7,0,2.8,0,4.3-0.1
		c0.4-1.6,0.8-2,1.9-2.2v-0.4c-6.1,0.4-10.2,0.6-14,0.6c-2.2,0.1-4.4-0.1-6.5-0.6c2.1-0.8,4.1-1.8,5.9-3.1c0.1,0,0.3,0,0.4,0
		L599.4,983.4z M598.3,967.1v0.1c0,0.2,0.2,0.4,0.4,0.4c0.4,0,0.9,0,1.3-0.1c0.1,0,0.1-0.1,0.2-0.3c0-0.7,0-0.7,0-1.4c0-1,0-1,0-1.8
		c0.7-0.4,1-0.7,1-0.9c0-0.1-0.1-0.2-0.2-0.3c-0.7-0.5-1-0.7-1.8-1.2c-0.4,0.5-0.6,0.6-1,1.2h-5c-0.7,0-1.4-0.1-2-0.3l0.2,1.2
		c0.6-0.1,1.2-0.2,1.8-0.2h5v2.7h-4.4c-0.7-0.4-1.5-0.9-2.2-1.2c0.1,0.6,0.1,1.1,0.1,1.7c0,4,0,4,0.2,4.3c0.4,0.5,1.2,0.7,4.5,0.7
		c1.4,0,2.8-0.1,4.2-0.3c0.4-0.1,0.7-0.4,0.7-0.8c0-0.3-0.2-0.6-0.4-0.7c-0.3-0.1-0.3-0.1-0.3-0.3v-0.2l0.1-1.4l-0.4-0.1
		c-0.8,1.6-1,2-1.4,2.1c-0.9,0.1-1.7,0.1-2.6,0.1c-0.8,0.1-1.7,0-2.5-0.1c-0.2-0.1-0.2-0.3-0.2-0.7v-2.3H598.3z M608.9,967.1v0.3
		c0,0.2,0.1,0.3,0.4,0.3c1,0,1.4-0.1,1.4-0.5c0-0.4,0-0.6,0-0.7V964c0.7-0.5,0.8-0.5,0.8-0.7c0-0.1-0.1-0.2-0.3-0.4
		c-0.5-0.4-1.1-0.8-1.6-1.2c-0.4,0.5-0.5,0.6-0.9,1.2H604c-0.7,0-1.3-0.1-2-0.2l0.3,1.1c0.6-0.1,1.1-0.1,1.7-0.2h5v2.7h-4.2
		c-0.7-0.6-1.5-1-2.3-1.3c0.1,0.5,0.1,1.1,0.1,1.6c0,4.2,0,4.2,0.4,4.6c0.4,0.4,1.2,0.5,3.6,0.5c1.5,0.1,3.1,0,4.6-0.3
		c0.5-0.1,0.9-0.5,0.9-0.9c0-0.3-0.1-0.4-0.5-0.6c-0.4-0.2-0.4-0.3-0.4-0.4c0-0.1,0-0.2,0-0.3l0.1-1.2l-0.4-0.1
		c-0.9,1.7-1,1.9-1.3,2c-0.7,0.1-1.4,0.2-2.2,0.2h-0.1c-0.7,0-1.2-0.1-1.6-0.1h-0.5c-0.6,0-0.8-0.1-0.8-0.4v-2.5H608.9z
		 M598.5,975.5v-1.8c0.9-0.4,1-0.4,1-0.6c0-0.4-0.5-0.5-3.2-0.7c0.2,0.7,0.3,1.5,0.3,2.2v0.9h-2.5c-0.7,0-1.4-0.1-2.1-0.2l0.3,1.1
		c0.6-0.1,1.2-0.2,1.9-0.2h2.5v3.9h-3.9c-0.7,0-1.4-0.1-2-0.3l0.3,1.2c0.5-0.1,1.1-0.2,1.7-0.2h19.6c0.2,0,0.3-0.1,0.3-0.3
		c0-0.1-0.1-0.2-0.1-0.2c-1.1-1-1.4-1.3-2.6-2.2c-0.6,0.8-0.9,1.1-1.5,2h-3v-3.9h5.4c0.3,0,0.4-0.1,0.4-0.2c0-0.1-0.1-0.1-0.1-0.2
		c-1.1-1-1.5-1.2-2.6-2.1c-0.6,0.8-0.8,1-1.4,1.8h-1.7v-1.7c0.8-0.4,1.1-0.5,1.1-0.7c0-0.1-0.1-0.2-0.4-0.3c-1-0.2-1.9-0.4-2.9-0.4
		c0.2,0.7,0.3,1.5,0.2,2.3v0.9L598.5,975.5z M598.5,976.3h4.9v3.9h-4.9V976.3z M603,982.1c1.5,0.7,2.9,1.6,4.1,2.7
		c0.5,0.5,1,0.9,1.5,1.2c0.2,0.1,0.5,0.2,0.7,0.2c0.4,0,0.5-0.3,0.5-0.9c0-0.8-0.4-1.6-1.1-2.1c-1.8-0.7-3.6-1.2-5.5-1.6L603,982.1z
		 M583.8,962.3c1.2,1.5,2.2,3.1,2.9,4.9c0.6,1.6,0.8,2,1.1,2c0.5,0,1.3-1.3,1.3-2.3c0-0.7-0.4-1.4-1-1.8c-1.2-1.2-2.6-2.2-4-3.2
		L583.8,962.3z M591.3,1014.7c-0.6,1.4-1.4,3.3-1.7,4.1c-0.7,1.6-1.1,2.7-1.3,3.2c-0.4-1.3-0.6-2.6-0.5-4c0.1-3.6,0.9-7.1,2.4-10.4
		c0.5-1.1,0.5-1.1,0.5-1.4c-0.1-0.9-0.5-1.8-1.2-2.4c-0.9-1.2-1.5-1.6-2.2-1.6c0.6,0.8,0.9,1.8,0.9,2.8c-0.1,1-0.2,1.9-0.5,2.9
		c-0.9,3.5-1.4,7.1-1.4,10.7c0,2.2,0.3,4.4,1,6.4c0.4,1,0.8,1.4,1.4,1.4c0.3,0,0.5-0.1,0.6-0.4c0.2-0.3,0.2-0.4,0.2-1.4v-0.1
		c0-1,0.5-3,2.3-9.7L591.3,1014.7z M594.7,1009.4c1.3,1.5,3.3,2.4,5.3,2.2c0.9,0,1.9-0.1,2.8-0.3l0,4.1l0.1,3.4v0.5
		c-0.9-0.1-1.3-0.1-2-0.1c-3.6,0-6,1.4-6,3.6c0,1.9,2,3.3,4.7,3.3c3.2,0,5.1-1.4,5.1-3.7c0-0.3,0-0.5,0-0.8c1.3,0.6,2.5,1.5,3.5,2.6
		c0.6,0.6,0.9,0.8,1.1,0.8c0.4,0,0.6-0.5,0.6-1.2c0-1.9-1.6-3.1-5.3-4.1c-0.3-2.9-0.5-5.8-0.4-8.7c3.3-0.6,5.7-1.6,5.7-2.3
		c0-0.3-0.2-0.5-0.4-0.6c-0.5-0.2-1-0.4-1.5-0.4c-0.3,0-0.4,0-0.7,0.4c-0.9,0.6-1.9,1.1-3,1.3c0-1.5,0.2-2.9,0.7-4.3
		c0.3-0.7,0.3-0.8,0.3-1c0-0.5-0.5-0.9-1.4-1.2c-0.7-0.2-1.4-0.3-2.2-0.3c-0.6-0.1-1.1,0.1-1.5,0.5c0.8,0,1.5,0.2,2.1,0.7
		c0.4,0.4,0.4,0.9,0.4,4.4v1.4c-1.2,0.3-2.4,0.4-3.6,0.4c-1.5,0-2.9-0.4-4.1-1.3L594.7,1009.4z M602.9,1021.1
		c0.1,0.8-0.1,1.5-0.4,2.2c-0.5,1-1.7,1.5-3.5,1.5c-1.9,0-3.1-0.7-3.1-1.9c0-1.4,1.6-2.2,4.1-2.2
		C600.9,1020.7,601.9,1020.8,602.9,1021.1z M605.6,1000.8c1,1,1.8,2.1,2.5,3.4c1,2.1,1,2.1,1.4,2.1c0.5,0,0.9-0.6,0.9-1.3
		s-0.4-1.5-1.6-2.6c-0.8-0.8-1.8-1.4-2.8-2L605.6,1000.8z M608.8,999c1.4,1.3,2.6,2.8,3.5,4.5c0.3,0.4,0.4,0.6,0.7,0.6
		c0.4,0,0.8-0.5,0.8-1.3c0-0.9-0.4-1.5-1.6-2.5c-0.9-0.7-1.9-1.3-3-1.8L608.8,999z M587.4,1054.8c-0.6,1-1.3,2-2.1,2.8
		c-0.5,0.5-0.5,0.6-0.5,1c0,0.6,0.1,1.2,0.4,1.8c0.2,0.5,0.4,0.7,0.7,0.7c0.3,0,0.4-0.2,1.1-1.7c1.1,1.1,2,2.2,2.8,3.5
		c0.1,0.2,0.4,1.2,0.5,1.5c0.2,0.6,0.4,0.9,0.8,0.9c0.8,0,1.4-1.5,1.4-3.3c0-0.5,0-1-0.1-1.5c-0.2-2.5-0.3-4-0.3-5.7
		c0-0.5,0-0.9,0-1.7c1.5-1.8,3.1-3.5,4.9-5.1c2.6-2.3,4.2-3.2,5.6-3.2c1.2,0,2,0.9,2,2.5c0,1.2-0.1,1.6-0.8,5.1
		c-0.4,1.9-0.7,3.8-0.8,5.7c0,2.9,1.3,4.5,3.7,4.5c2.3,0,4.8-1.3,7.1-3.7l-0.3-0.4c-1.7,1.3-3.8,2.1-6,2.3c-0.6,0-1.2-0.2-1.6-0.5
		c-0.6-0.4-0.8-1.1-0.8-2.4c0-1.8,0.2-3.5,0.6-5.2c0.4-1.5,0.6-3.1,0.6-4.7c0.1-1-0.2-2-0.9-2.8c-0.6-0.7-1.6-1.2-2.5-1.2
		c-1.4,0-2.9,0.7-5.2,2.3c-2,1.5-3.8,3.1-5.6,4.9c0-0.4,0-0.8,0.1-1.2c0.3-0.7,0.6-1.4,1-2.1c0.4-0.7,0.4-0.7,0.4-0.9
		c0-0.3-0.2-0.5-0.9-1.2c0.1-0.9,0.3-1.7,0.6-2.5c0.3-1,0.3-1,0.3-1.3c0-0.6-0.6-1.4-1.7-2.1c-0.6-0.5-1.3-0.8-2-0.9
		c-0.2,0-0.3,0.1-0.4,0.2c1.5,1.2,1.8,1.7,1.8,3.6c0,1.1-0.1,2.3-0.2,3.4c-1.4,0.9-3,1.5-4.6,1.9c-0.7,0-1.4-0.5-2.1-1.5
		c-0.1,0.2-0.1,0.4-0.1,0.5c0,1,1.5,2.9,2.4,2.9c0.3,0,0.5-0.1,1.1-0.5c0.6-0.4,2.3-1.6,3.2-2.2c0,0.5,0,0.5-0.1,1.1
		c0,0.8,0,0.8-0.1,1.3L587.4,1054.8z M590.9,1051.8c-0.1,1.3-0.1,2-0.1,3.6c0,4.8,0,4.8-0.1,6c-1.2-0.8-2.3-1.6-3.4-2.6
		c0.6-1.3,1-2,1.7-3.4C590.4,1052.8,590.4,1052.8,590.9,1051.8z M585.4,1081.3c-0.2,0.2-0.3,0.5-0.4,0.8c0.1,0.8,0.4,1.5,0.8,2.1
		c0.5,1,1.4,1.7,2.5,1.9c0.5,0,0.9-0.2,1.3-0.4c1.7-0.8,3.4-1.5,5.1-2.1c3-1,6.1-1.7,9.2-2.2c-2,0.9-3.7,2.1-5.2,3.6
		c-2.1,2.1-3.3,4.9-3.5,7.8c-0.1,2.9,1.3,5.6,3.7,7.2c1.9,1.3,4.2,2.1,6.5,2.3c0.7,0,1.2-0.4,1.2-0.9c-0.1-0.6-0.5-1.1-1-1.5
		c-0.3-0.4-0.8-0.6-1.3-0.5c-1.1-0.1-2.2-0.3-3.3-0.8c-2.6-1-4.3-3.5-4.2-6.3c0-5.4,5.3-10.6,10.8-10.6c0.3,0,0.6,0,0.9,0.1
		c0.2,0,0.4,0,0.6,0c0.6,0,1-0.3,1-0.8c0-0.4-0.3-0.8-0.9-1.2c-0.5-0.3-1.1-0.6-1.7-0.7c-0.4,0-0.8,0.1-1.1,0.3
		c-1.4,0.4-2.9,0.8-4.3,1c-2.1,0.4-3.8,0.8-5.2,1.1c-7.2,1.7-8,1.9-8.9,1.9c-0.5,0-1.1-0.2-1.4-0.5
		C585.9,1082.5,585.6,1081.9,585.4,1081.3z M596.1,1127.2c-0.4,0.7-0.4,0.7-0.9,1.5c-1.7,2.8-1.7,2.8-2.7,4.5
		c-0.7,1.2-0.7,1.2-1.1,1.7c-0.8-0.6-1.4-1.5-1.7-2.5c-0.5-1.5-0.8-3.1-0.7-4.6c0-1.6,0.2-3.2,0.6-4.8c0.1-0.3,0.1-0.6,0.1-0.8
		c-0.1-1-0.6-1.9-1.4-2.5c-0.6-0.8-1.5-1.3-2.4-1.6h-0.3c1.4,1.8,1.6,2.5,1.6,5.5c-0.1,1.9,0,3.8,0.2,5.6c0.2,2.3,1,4.5,2.2,6.4
		c1,1.5,2.6,2.7,3.5,2.7c0.4,0,0.7-0.4,0.7-0.8c0-0.2,0-0.3-0.1-0.5c-0.1-0.4-0.2-0.7-0.2-1.1c0-1.3,0.7-3.2,3-8.5L596.1,1127.2z
		 M603.2,1122c1.8,0.9,3.2,2.4,4,4.2c0.6,1.3,0.9,2.7,1,4.2c0,0.6-0.1,0.7-0.7,1c-0.3,0.1-1.7,0.5-4.3,1.2l0.1,0.5
		c1.1-0.1,1.7-0.1,2.4-0.1c0.8-0.1,1.7,0,2.4,0.4c0.3,0.2,0.6,0.3,1,0.4c1,0,1.6-1,1.6-2.5c0-4.4-3.2-8.7-7.2-9.6L603.2,1122z
		 M587.5,1158c1.6,2.1,2.9,2.8,6,2.8c1.1,0,2.4-0.1,4.1-0.2v0.4l0.1,2.3v2.2c-1,0.1-2.1,0.2-3.1,0.2c-1.9,0-3.2-0.3-3.7-0.7
		c-0.5-0.4-0.6-0.8-0.7-1.8l-0.5,0c0,0.4-0.1,0.7-0.1,0.9c0,1,0.6,1.9,1.4,2.4c1.3,0.6,2.8,0.8,4.3,0.7c0.5,0,1.1,0,2.4-0.1v2.8
		c0,0.4,0,0.7,0,2.2c-0.8,0-1.1,0-1.6,0c-4.3,0-7.2,1.6-7.2,3.9c0,2,2.2,3.4,5.4,3.4c1.5,0.1,3-0.3,4.3-1.2c0.8-0.7,1.2-1.7,1.1-2.7
		c0-0.4,0-0.7-0.1-1.4c1.1,0.3,2.2,0.7,3.2,1.3c1,0.6,1.9,1.2,2.7,2c0.8,0.8,1,0.9,1.3,0.9c0.4,0,0.7-0.4,0.7-1.1
		c0-0.8-0.3-1.6-0.9-2.1c-1.3-1.1-4.1-2.2-7-2.8c-0.1-0.8-0.1-1.3-0.2-2.5c0-1.1,0-1.6-0.1-2.9c1.8-0.2,3.5-0.5,5.2-0.9
		c2-0.5,2.5-0.8,2.5-1.4c0-0.3-0.1-0.5-0.4-0.6c-0.5-0.3-1.1-0.4-1.6-0.5c-0.2,0-0.3,0-0.5,0.1c-0.5,0.4-1,0.6-1.6,0.8
		c-1.2,0.4-2.4,0.7-3.6,0.9c0-1.4,0-2,0-2.9c0-0.7,0-1.2,0-2c2.1-0.3,4.1-0.6,6.1-1.1c2-0.5,2.5-0.7,2.5-1.2c0-0.3-0.2-0.6-0.5-0.8
		c-0.5-0.3-1.1-0.5-1.7-0.5c-0.1,0-0.3,0.1-0.4,0.1c-1.1,0.7-2.8,1.3-6,1.9c0-1.2,0.2-2.3,0.6-3.4c0.4-0.9,0.4-0.9,0.4-1.1
		c0-0.5-0.3-0.8-1.1-1.1c-0.9-0.3-1.8-0.4-2.7-0.4c-0.9,0-1.2,0.1-1.6,0.5c2.4,0.4,2.7,0.8,2.8,5.7c-1.5,0.2-3,0.4-4.6,0.4
		c-1.9,0.2-3.8-0.4-5.2-1.7L587.5,1158z M597.6,1173.6L597.6,1173.6c0,0.4,0,1.1-0.1,1.3c0,0.6-0.3,1.2-0.7,1.7
		c-1,0.8-2.3,1.2-3.6,1.2c-2.2,0-3.5-0.7-3.5-1.8c0-0.8,0.6-1.5,1.7-1.9c1.1-0.4,2.3-0.6,3.5-0.6
		C595.9,1173.4,596.8,1173.5,597.6,1173.6z M593.3,1218c1.8-0.7,3.4-1.8,4.8-3c2.2-2.1,3.5-5.1,3.5-8.1c0-1.5-0.3-3-1-4.3
		c0-0.5,0-0.9,0-1.1c0-1.2,0.1-3.1,0.2-4.4c1.3-0.1,2.2-0.1,3.4-0.1c1.6,0,3.3,0.1,4.9,0.3c0.6,0.1,1.1,0.2,1.7,0.2
		c0.5,0,0.7-0.2,0.7-0.5c0-0.4-0.2-0.7-0.5-0.9c-0.8-0.6-1.7-1-2.7-1.2c-0.4,0-0.8,0.2-1.2,0.4c-0.8,0.3-1.2,0.4-4.3,0.6
		c-1.2,0.1-1.2,0.1-2.1,0.2c0-1.1,0.3-2.1,0.7-3.1c0.3-0.5,0.3-0.6,0.3-0.9c0-0.4-0.4-0.9-1.2-1.1c-1-0.3-2.1-0.5-3.1-0.4
		c-0.9,0-1.1,0.1-1.5,0.6c1.6,0.2,2.4,0.7,2.8,1.6c0.3,1.2,0.4,2.4,0.4,3.6c-3.3,0.4-4.4,0.5-8.2,1.1c-0.9,0.2-1.8,0.3-2.8,0.3
		c-1.2,0-2.4-0.6-3.1-1.6c-0.1,0.1-0.1,0.2-0.2,0.4c0.2,0.9,0.6,1.7,1.3,2.3c0.5,0.6,1.2,1.1,2,1.2c0.3,0,0.5-0.1,0.7-0.2
		c0.7-0.4,1.4-0.6,2.1-0.9c2.6-0.8,5.3-1.3,8.1-1.6c0,0.2,0,0.4,0,0.6c0,1,0,2.8,0,3.3c-0.5-0.4-1.2-0.5-1.8-0.5
		c-2.4,0-4.1,2.1-4.1,4.9c0,2.6,1.7,4.6,3.9,4.6c0.7,0,1.4-0.2,2-0.6c-0.8,3.4-2.4,5.5-6.1,8L593.3,1218z M599.2,1205.4
		c0,2-0.7,3-2,3c-1.5,0-2.6-1.5-2.6-3.5c0-2,1.1-3.5,2.6-3.5C598.5,1201.5,599.2,1202.7,599.2,1205.4L599.2,1205.4z"/>
	<g id="syasou" transform="translate(557.363 700.342)">
		<path id="パス_1929" class="st1" d="M101.2,236.3H64.1c-4.7,0-8.6-3.8-8.6-8.6v-36.1c0-4.7,3.8-8.6,8.6-8.6h37.1
			c4.7,0,8.6,3.8,8.6,8.6v36.1C109.8,232.5,105.9,236.3,101.2,236.3z"/>
		<path id="パス_1930" class="st2" d="M69.4,225.3c0.7,0,1.2-0.6,1.2-1.3c0-1-1-2.2-4.1-2.7c1.3-1.3,2.4-2.8,3.3-4.5
			c0.4,0,0.7-0.1,1-0.3l-2.2-2.2l-1.4,1.3h-0.7v-3.9c0.7-0.1,0.9-0.2,1-0.6l-3.4-0.3v4.8h-3.4l0.1,0.4h6.5c-1.4,3.7-3.8,7-6.9,9.4
			l0.2,0.2c1.2-0.6,2.4-1.3,3.5-2.2v8.4h0.4c0.7,0.1,1.5-0.2,2-0.8v-9.5c1,0.9,1.6,2,2,3.3C68.7,225.1,69.1,225.2,69.4,225.3z"/>
		<path id="パス_1931" class="st2" d="M78.2,230.2h-1.7v-10.8h3.9c0.6,0,0.9-0.1,1.1-0.4l-2.4-1.8l-1.3,1.8h-1.3v-7.3
			c0.7-0.1,0.9-0.3,1-0.6l-3.5-0.3v8.2h-4.1l0.1,0.4h4v10.8h-5.5l0.1,0.4h12.3c0.6,0,0.9-0.1,1.1-0.4l-2.5-1.9L78.2,230.2z"/>
		<path id="パス_1932" class="st2" d="M97.5,217l-2.9-0.2v4.4c0,1.8,0.4,2.3,2.7,2.3h3.5c2.1,0,2.8-0.4,2.8-1.2
			c0-0.3-0.1-0.4-0.9-0.7l0-1.6h-0.2c-0.8,1.7-1,1.7-1.7,1.7h-3.4c-0.7,0-0.7,0-0.7-0.5V220c1.6-0.2,3.3-0.6,4.8-1
			c0.2,0.1,0.5,0.1,0.7,0.1c0.2,0,0.4,0,0.5-0.2l-2.1-1.8c-1.2,0.9-2.6,1.6-4,2.2v-1.9C97.3,217.4,97.4,217.3,97.5,217z"/>
		<path id="パス_1933" class="st2" d="M89,213.5v2.1c2,0,2.3-0.5,2.3-0.6v-1.5h4.9v1.9c2.1,0,2.3-0.5,2.3-0.6v-1.4h4.8
			c0.6,0,0.8-0.1,1-0.4l-2.3-1.7l-1.2,1.6h-2.3v-1.6c0.6-0.1,0.8-0.2,0.9-0.6l-3.2-0.2v2.4h-4.9v-1.6c0.6-0.1,0.8-0.2,0.9-0.6
			l-3.2-0.2v2.4h-5.7l0.1,0.4L89,213.5L89,213.5z"/>
		<path id="パス_1934" class="st2" d="M101.4,214.6l-1.2,1.5H84l0.1,0.4h4.4c-1.1,1.8-2.6,3.4-4.4,4.5l0.1,0.3
			c0.8-0.3,1.6-0.6,2.3-1c0.5,0.4,0.9,1,1.1,1.6c0.2,0.2,0.5,0.3,0.8,0.3c-1.4,1.1-3,1.9-4.8,2.3l0.2,0.4c5-0.7,7.4-2.5,9.5-5.6
			c0.4,0,0.7-0.1,1-0.3l-2.1-1.6l-1,1h-1.9c0.7-0.6,1.3-1.2,1.8-1.9h11.4c0.6,0,0.9-0.1,1.1-0.4L101.4,214.6z M91.3,218.9
			c-0.5,1-1.2,1.9-2,2.7c0-0.1,0-0.1,0-0.2c0-0.6-0.6-1.2-2.1-1.3c0.6-0.3,1.2-0.7,1.7-1.1L91.3,218.9L91.3,218.9z"/>
		<path id="パス_1935" class="st2" d="M102,224.9l-1.3,1.6h-2.1v-1.9c0.5-0.1,0.7-0.2,0.7-0.5l-3.1-0.2v2.6h-5.1v-1.9
			c0.6-0.1,0.8-0.2,0.8-0.5l-3.1-0.2v2.6h-5.6l0.1,0.4h5.4c-0.1,1.8-1.2,3.5-5.1,4.7l0.1,0.3c5.7-0.9,7.1-2.9,7.4-4.9h5.2v4.9
			c1.9,0,2.4-0.6,2.4-0.6v-4.3h4.6c0.6,0,0.9-0.1,1.1-0.4L102,224.9z"/>
		<path id="パス_1936" class="st2" d="M62.9,197v-3.3h3.8c1.1,0,1.5,0.5,1.5,1.2c0,0.6-0.5,1-1.4,1H65v1.5h3.3
			c1.3,0.1,2.4-0.8,2.5-2c0-0.2,0-0.3,0-0.5c0-1.6-0.8-2.7-2.4-2.7h-5.4V190h-2.6v2.2h-1.6v1.5h1.6v4c0,4.3,3.7,4.2,3.7,4.2h6.4
			v-1.5c0,0-4.7-0.1-5.1-0.1C64.2,200.2,62.9,199.1,62.9,197z"/>
		<path id="パス_1937" class="st2" d="M74.4,201.6c1.4,0.1,2.7-0.3,3.7-1.2c2-1.7,3.5-3.7,4.6-6.1h-2.7c-0.2,0.5-3.7,6.1-5.5,5.1
			c-0.5-0.3-0.6-0.6-0.6-2.3V190h-2.5v7.4C71.4,201.4,73.4,201.6,74.4,201.6z"/>
		<path id="パス_1938" class="st2" d="M94.5,192.2v-1.5H83v1.5h3.4v2.5H83v1.4h3.4v1.8c0,3.4,1.4,4,3.7,4H94v-1.5
			c0,0-1.8-0.1-2.5-0.1c-1.7,0-3-0.5-3-2.1v-2h5.9v-1.4h-5.9v-2.5L94.5,192.2z"/>
		<path id="パス_1939" class="st2" d="M101,197.8c0,3.3-1.6,4.1-3.4,4.1h-2.4v-1.5h2c1,0,1.5-1.1,1.5-2.6v-2.7h4.3
			c1.1,0,1.4-0.6,1.4-1.3c0.1-0.7-0.5-1.4-1.2-1.5c-0.1,0-0.2,0-0.2,0h-7.8v-1.5h8.6c4.2,0,4.1,5.9,0.7,5.9H101V197.8z"/>
		<path id="パス_1940" class="st2" d="M105.4,200.6L105.4,200.6c0.2-0.1,0.4-0.3,0.4-0.6c0-0.4-0.3-0.6-0.8-0.6h-1.1v2.3h0.4v-0.9
			h0.6c0.4,0,0.4,0.2,0.4,0.6c0,0.1,0,0.2,0.1,0.3h0.4c-0.1-0.2-0.1-0.4-0.1-0.6C105.7,200.7,105.5,200.6,105.4,200.6z M104.9,200.4
			h-0.6v-0.7h0.6c0.2,0,0.4,0.1,0.4,0.3C105.4,200.2,105.2,200.4,104.9,200.4C105,200.4,105,200.4,104.9,200.4L104.9,200.4z"/>
		<path id="パス_1941" class="st2" d="M104.8,198.6c-1.1,0-1.9,0.9-1.9,1.9c0,1.1,0.9,1.9,1.9,1.9c1.1,0,1.9-0.9,1.9-1.9
			c0,0,0,0,0,0C106.7,199.5,105.8,198.6,104.8,198.6C104.8,198.6,104.8,198.6,104.8,198.6z M104.8,202.2c-0.9,0-1.6-0.7-1.6-1.6
			c0-0.9,0.7-1.6,1.6-1.6c0.9,0,1.6,0.7,1.6,1.6l0,0C106.4,201.4,105.7,202.2,104.8,202.2C104.8,202.2,104.8,202.2,104.8,202.2z"/>
		<rect id="長方形_1490" x="58.4" y="206.6" class="st2" width="48.5" height="0.6"/>
	</g>
</g>
</svg>
