<?xml version="1.0" encoding="utf-8"?>
<!-- Generator: Adobe Illustrator 26.0.1, SVG Export Plug-In . SVG Version: 6.00 Build 0)  -->
<svg version="1.1" id="レイヤー_1" xmlns="http://www.w3.org/2000/svg" xmlns:xlink="http://www.w3.org/1999/xlink" x="0px"
	 y="0px" viewBox="0 0 114.8 297.2" style="enable-background:new 0 0 114.8 297.2;" xml:space="preserve">
<style type="text/css">
	.st0{fill:#222222;}
	.st1{fill:#005748;}
	.st2{fill:#FFFFFF;}
</style>
<g id="グループ_3118" transform="translate(-582.332 -2561.663)">
	<path id="パス_4009" class="st0" d="M666.9,2655.6c2.8-1.4,5.3-3.1,7.6-5.2c2.8-2.5,5.3-5.4,7.2-8.7c1.5,2.9,3.4,5.6,5.7,7.9
		c2,2.2,4.4,3.9,7,5.2c0.7-1.5,1.2-2,2.5-2.1l0.1-0.4c-3-0.8-5.8-2.1-8.3-4c-2.7-1.8-4.9-4.2-6.6-6.9c0.9-0.2,1.2-0.4,1.2-0.6
		c0-0.3-0.4-0.4-2.1-0.8c-0.4-0.1-0.9-0.2-1.6-0.3c-0.1,0.5-0.3,1.1-0.6,1.6c-1,1.9-2.2,3.6-3.5,5.3c-2.5,3.3-5.6,6.2-9,8.5
		L666.9,2655.6z M674.7,2652.3c0.7-0.1,1.4-0.2,2.1-0.2h10.9c0.4,0,0.4,0,0.4-0.2c0-0.1-0.1-0.2-0.3-0.4c-1.2-1-1.5-1.2-2.7-2.1
		c-0.7,0.8-1,1.1-1.7,1.9h-6.7c-0.8,0-1.6-0.1-2.4-0.3L674.7,2652.3z M674.5,2666.4H688v1.5c0,0.3,0.2,0.4,0.5,0.4
		c0.5,0,1.1-0.1,1.6-0.2c0.2-0.1,0.3-0.2,0.3-0.4v-0.1c-0.1-5-0.1-5-0.1-9.6c0.8-0.3,1.1-0.5,1.1-0.7c0-0.1-0.1-0.2-0.3-0.4
		c-0.9-0.7-1.2-1-2-1.6c-0.5,0.5-0.9,1.1-1.3,1.6h-12.9c-0.8-0.6-1.7-1.1-2.6-1.6c0.1,1.2,0.1,2.4,0.1,4.9c0,1.3,0,2.9-0.1,7.9
		c0,0.4,0.1,0.4,0.4,0.4c0.6,0,1.1-0.1,1.7-0.2c0.2-0.1,0.2-0.2,0.2-0.4V2666.4z M674.5,2657.5H688v8.2h-13.5V2657.5z M671.8,2680.6
		h19.6v22.4c0,0.3-0.1,0.4-0.4,0.4h-0.2c-1.9-0.1-1.9-0.1-5.9-0.2v0.5c2.8,0.4,3,0.4,3.5,0.7c0.5,0.3,0.8,0.6,1.1,1.8
		c1.1-0.1,2.2-0.4,3.2-0.9c0.6-0.2,1-0.9,1-1.5v-2.6c-0.1-5.5-0.1-5.5-0.1-6.6v-13c0.3-0.2,0.5-0.4,0.6-0.4c0.1-0.1,0.1-0.1,0.2-0.1
		c0.3-0.2,0.4-0.3,0.4-0.4s-0.1-0.3-0.4-0.4c-0.7-0.6-1.5-1.1-2.2-1.6c-0.5,0.7-0.7,0.9-1.2,1.6h-18.8c-1.2-0.6-1.6-0.8-2.8-1.4
		c0.1,1.6,0.1,6.3,0.1,12.4c0,4.5-0.1,11.5-0.2,14.9c0,0.4,0.2,0.5,0.8,0.5c1.3,0,1.7-0.1,1.7-0.6c-0.1-5.1-0.1-5.1-0.1-7.7V2680.6z
		 M673.7,2686.1c0.9-0.2,1.8-0.3,2.7-0.3h13.2c0.2,0,0.3-0.1,0.4-0.3c0-0.1-0.1-0.2-0.2-0.3c-1.1-1-1.5-1.3-2.6-2.2
		c-0.5,0.7-1.1,1.4-1.6,2.1h-9c-1.1,0-2.2-0.2-3.2-0.4L673.7,2686.1z M677.9,2697.9h7.3v1.9c0,0.4,0.2,0.5,0.6,0.5
		c1.2,0,1.6-0.1,1.6-0.6c-0.1-1.7-0.1-3.2-0.1-6c0-0.6,0-1.5,0-2.7c0.7-0.6,0.9-0.8,0.9-1c0-0.1-0.1-0.2-0.3-0.4
		c-0.6-0.5-1.3-1-2-1.4c-0.5,0.6-0.7,0.8-1.2,1.4h-6.5c-0.8-0.5-1.7-0.9-2.6-1.2c0.1,1.3,0.1,2.8,0.1,6c0,2,0,3.3-0.1,5.8v0.1
		c0,0.3,0.2,0.4,0.7,0.4c0.4,0,0.9-0.1,1.3-0.2c0.2-0.1,0.3-0.3,0.3-0.4L677.9,2697.9z M677.9,2690.4h7.3v6.8h-7.3V2690.4z
		 M685.4,2723.7h10.2c0.2,0,0.4-0.1,0.4-0.2c0-0.1-0.1-0.2-0.1-0.3c-1.2-1-1.5-1.3-2.8-2.3c-0.9,0.9-1.1,1.2-2,2h-20.4
		c-1,0-2-0.1-2.9-0.3l0.2,1.2c0.9-0.2,1.8-0.2,2.7-0.2h3.7c-0.6,1.1-1.4,2.2-2.3,3.1c-1.5,1.7-3.2,3.3-5.1,4.5l0.3,0.4
		c1.8-0.8,3.5-1.8,4.9-3c1,0.7,1.8,1.5,2.5,2.5c0.2,0.3,0.3,0.3,0.5,0.4c-2.5,1.9-5.3,3.3-8.3,4.3l0.2,0.5c2.6-0.5,5.1-1.4,7.4-2.7
		c2.8-1.4,5.2-3.6,6.8-6.2c1.1-0.4,1.2-0.4,1.2-0.6c0-0.1-0.1-0.2-0.3-0.4c-0.7-0.6-0.9-0.7-1.7-1.3c-0.6,0.5-0.7,0.6-1.3,1.1h-4.5
		c0.7-0.8,1.4-1.6,2-2.6h6.6v8.2c0.1,1.6,0.4,1.7,5.5,1.7c6,0,6.8-0.2,6.8-1.2c0-0.4-0.3-0.7-0.7-0.8c-0.6-0.2-0.6-0.2-0.6-0.4v-0.7
		l0.2-2.5l-0.4,0c-0.4,1.2-0.9,2.4-1.4,3.6c-0.2,0.3-0.4,0.4-1.6,0.4H690c-0.8,0-1.3,0-1.6,0c-0.9,0-2.4-0.1-2.6-0.1
		c-0.3-0.1-0.4-0.2-0.4-0.6v-1.8c2.3-0.5,4.6-1.3,6.8-2.4c0.4,0,1,0,1.2,0c0.4,0,0.6-0.1,0.6-0.3c0-0.2-0.4-0.5-2.7-1.7
		c-1.7,1.6-3.7,2.9-5.8,3.8V2723.7z M679.4,2727c-1,1.6-2.2,3-3.6,4.2c0.2-0.3,0.3-0.6,0.3-0.9c0-0.5-0.4-0.8-1.4-1.2
		c-0.6-0.2-1.3-0.4-2-0.5c0.6-0.5,1-0.8,1.6-1.4L679.4,2727z M678.1,2718.6v-1.6c1.1-0.3,1.3-0.4,1.3-0.6c0-0.3-0.4-0.4-1.9-0.5
		c-0.4,0-0.9-0.1-1.6-0.2c0.1,0.7,0.1,1.4,0.1,2c0,0.3,0,0.5,0,0.9H670c-0.9,0-1.9-0.1-2.8-0.3l0.2,1.2c0.8-0.1,1.7-0.2,2.6-0.2h6.1
		c0,0.6,0,0.9-0.1,2c0,0.2,0.1,0.3,0.3,0.3c0.6,0,1.2,0,1.7-0.2c0.1-0.1,0.1-0.1,0.1-0.3c0-0.4-0.1-0.6-0.1-0.8l0-0.6v-0.4h6.1
		c0,0.6,0,1-0.1,2c0,0.2,0.1,0.3,0.4,0.3c1.4,0,1.7-0.1,1.8-0.4c0-0.9,0-1.2,0-1.8h9.8c0.2,0,0.3-0.1,0.3-0.2c0-0.1-0.1-0.2-0.1-0.3
		c-1.3-1.1-1.7-1.4-3-2.4c-0.9,0.9-1.2,1.2-2,2.1h-4.9c0-0.4,0-0.4,0-1.6c1.1-0.3,1.3-0.4,1.3-0.6c0-0.3-0.8-0.4-3.6-0.7
		c0.1,0.9,0.2,1.8,0.2,2.7c0,0.1,0,0.2,0,0.3H678.1z M670.3,2736.9c-0.9,0-1.8,0-2.7-0.2l0.2,1.2c0.8-0.2,1.7-0.2,2.5-0.2h5.8
		c-0.2,1.4-0.8,2.8-1.8,3.8c-1.4,1.4-3.3,2.3-7,3.2l0.1,0.5c3.9-0.4,6.7-1.4,8.6-3.2c1.2-1.1,2-2.7,2.1-4.3h6v2.1
		c0,1.6,0,2.5-0.1,4.7c0,0.3,0.1,0.4,0.4,0.4c0.6,0,1.1,0,1.7-0.2c0.1-0.1,0.2-0.2,0.2-0.3c-0.1-3.7-0.1-3.9-0.1-4.7v-2h9.7
		c0.1,0,0.3-0.1,0.3-0.2c0-0.1-0.1-0.2-0.1-0.3c-1.2-1.1-1.6-1.4-2.9-2.4c-0.9,0.9-1.1,1.2-2,2.1h-4.9v-1.4c1.1-0.4,1.1-0.5,1.1-0.7
		c0-0.3-0.3-0.3-3.3-0.6c0.1,0.9,0.1,1.8,0.1,2.7h-5.9c0.1-0.4,0.1-0.5,0.2-1.5c1-0.4,1.2-0.4,1.2-0.6c0-0.2-0.5-0.4-1.9-0.6
		c-0.4,0-0.9-0.1-1.5-0.2c0.1,0.5,0.1,0.9,0.1,1.4c0,0.5,0,1-0.1,1.6L670.3,2736.9z M675.2,2768.4l-1.7,4.5
		c-0.3,0.9-0.7,1.8-1.2,2.7c-0.5-1.4-0.7-2.8-0.6-4.2c0-1.3,0.1-2.7,0.4-4c0.4-1.7,1-3.5,1.7-5.1c0.6-1.3,0.7-1.4,0.7-1.9
		c-0.1-0.9-0.5-1.8-1.2-2.5c-0.9-1.1-1.4-1.5-2.1-1.6c0.6,0.9,0.9,1.9,0.9,3c0,1-0.2,2-0.4,3c-0.5,2-0.9,4-1.1,6
		c-0.2,1.1-0.2,2.3-0.3,3.4c0,2.3,0.3,4.6,1.1,6.8c0.4,0.9,0.8,1.3,1.4,1.3c0.3,0,0.7-0.2,0.8-0.5c0.1-0.5,0.1-0.9,0.1-1.4
		c0-1.2,0.2-2.3,0.5-3.4c0.9-3.7,1.4-5.7,1.4-6L675.2,2768.4z M679.3,2760.4c1.1,1.2,2.7,1.9,4.4,1.8c0.3,0,0.6,0,1.3-0.1
		c-0.5,0.4-1.6,1.3-3,2.5l0.3,0.3c1.3-0.9,2.7-1.6,4.1-2.3c1.5-0.6,3-0.9,4.5-1.1c0.7-0.1,0.9-0.3,0.9-0.7s-0.3-0.8-1-1.2
		c-0.3-0.2-0.7-0.4-1.1-0.4c-0.2,0-0.3,0-0.7,0.3c-2,0.9-4.2,1.4-6.4,1.4c-1.1,0-2.1-0.3-3-0.9L679.3,2760.4z M679.1,2770.1
		c-0.3,0.8-0.4,1.7-0.4,2.5c-0.1,1.6,0.6,3.1,1.7,4.2c1.4,1.3,4.3,2,8.3,2c1.3,0.1,2.7-0.1,4-0.4c0.4-0.2,0.7-0.4,0.7-0.8
		c-0.2-1-1-1.7-2-1.9c-0.2,0-0.3,0-0.5,0.1c-0.5,0.3-1.1,0.4-1.7,0.5c-0.9,0.2-1.8,0.2-2.7,0.2c-5,0-7-1.4-7-5c0-0.4,0-0.9,0.1-1.3
		L679.1,2770.1z"/>
	<path id="パス_4008" class="st0" d="M641.6,2658c1.6-1,3.1-2.2,4.6-3.4c1-1,2.2-1.8,3.4-2.6c0.7-0.3,0.9-0.4,0.9-0.9
		c0-0.4-0.3-0.8-1-1.4c-0.7-0.7-1.5-1.2-2.5-1.4c-0.3,0-0.6,0.1-0.8,0.3c-0.7,0.5-1.5,0.9-2.4,1.1c-1,0.4-3.2,1.1-6.9,2.4
		c0-2,0.3-4,0.8-5.9c0.3-0.6,0.3-0.6,0.3-0.8c0-0.4-0.3-0.8-1-1.2c-1.1-0.6-2.3-0.9-3.6-1c-0.4-0.1-0.8,0.1-1.1,0.4
		c1.4,0.4,2.1,0.9,2.4,1.8c0.2,0.8,0.2,1.1,0.3,7.1c-2.1,0.8-4.2,1.3-6.3,1.7c-0.9,0-1.6-0.4-2.6-1.6c0,0.1-0.1,0.3-0.1,0.4
		c0.1,0.7,0.4,1.4,0.9,1.9c0.5,0.9,1.4,1.5,2.3,1.7c0.4,0,0.7-0.1,1-0.4c0.3-0.2,0.6-0.4,0.9-0.5c0.3-0.2,0.7-0.3,1-0.5
		c0.6-0.3,1-0.4,1.2-0.5c0.5-0.2,1.1-0.4,1.6-0.7c0.1,5.2,0.3,7.2,1,8.4c1,1.8,3.1,2.5,7.6,2.5c1.8,0.1,3.5-0.1,5.3-0.4
		c0.5-0.1,0.7-0.4,0.7-0.7c-0.1-0.6-0.4-1.1-1-1.3c-0.4-0.3-0.8-0.5-1.3-0.5c-0.2,0-0.4,0.1-0.6,0.2c-1.9,0.6-3.8,0.9-5.8,0.8
		c-2,0-3.1-0.4-3.6-1.1c-0.5-0.7-0.6-2.2-0.6-5.5c0-0.9,0-1.5,0.1-2.9c1.3-0.5,1.8-0.7,5.7-2.1c1.4-0.6,2.8-1,4.3-1.3
		c0.1,0,0.2,0.1,0.2,0.2c0,0,0,0,0,0c-0.2,0.5-0.5,0.9-0.8,1.3c-1.5,2.1-3.1,4-4.9,5.9L641.6,2658z M651.1,2689.3
		c-1.9,2-4,3.8-6.2,5.4c-3.3,2.4-7,4.3-10.9,5.7v-1.6c0-2.4,0.2-8.2,0.4-10.1c0-1.1,0.2-2.1,0.4-3.2c0.1-0.2,0.2-0.4,0.2-0.7
		c0-0.6-0.6-1.3-1.9-2c-0.8-0.4-1.7-0.7-2.6-0.8c-0.4,0-0.7,0.1-1,0.3c1.4,0.5,1.9,0.9,2.2,1.7c0.4,1.2,0.6,4.3,0.6,11.4
		c0,3.5,0,4.2-0.3,4.9c-0.2,0.4-0.2,0.4-0.2,0.6c0,0.9,1.5,2.8,2.1,2.8c0.3,0,0.6-0.2,0.7-0.4c0.6-0.6,0.6-0.6,2.4-1.5
		c3.5-1.7,6.8-3.9,9.7-6.5c1.8-1.6,3.4-3.4,4.8-5.4L651.1,2689.3z M629.4,2721.2c0.4,0.5,0.8,1,1.3,1.4c1.1,0.8,2.5,1.2,3.9,1.1
		c0.2,0,0.5,0,0.7,0c0.7,0.6,0.8,1.2,0.8,4.9c0,0.4,0,0.5,0,1c-2.2,0.4-4.4,0.6-6.6,0.8c-1.2,0-2.3-0.7-2.9-1.7
		c-0.1,0.2-0.2,0.4-0.2,0.6c0.2,1,0.8,1.9,1.6,2.6c0.4,0.4,0.9,0.7,1.5,0.7c0.3,0,0.5-0.1,0.8-0.2c1.9-0.7,3.9-1.2,5.9-1.4v1
		c0,2.1,0,2.1,0,2.6c-0.1,1.5,0.2,3,0.9,4.4c0.9,1.6,2.7,2.1,6.8,2.1c1.5,0,3-0.1,4.4-0.3c0.6-0.1,1-0.4,1-0.8
		c0-0.4-0.3-0.7-0.8-1.1c-0.4-0.3-1-0.6-1.5-0.6c-0.1,0-0.2,0-0.4,0.1c-1.8,0.6-3.7,0.9-5.6,0.8c-1.4,0-2.2-0.3-2.6-1
		c-0.3-0.6-0.4-1.4-0.4-3.7c0-0.8,0-1.7,0.1-3.6c3-0.4,6.1-0.7,9.2-0.7c0.9,0,2.4,0,2.9,0.1h0.4c0.6,0,1-0.2,1-0.6
		c0-0.4-0.4-0.9-1-1.2c-0.6-0.4-1.3-0.6-2.1-0.7c-0.2,0-0.5,0.1-0.7,0.2c-0.7,0.3-1.4,0.4-2.1,0.5c-0.5,0.1-5.8,0.9-7.5,1.1
		c0-0.9,0.2-1.8,0.4-2.8c0.1-0.3,0.2-0.6,0.2-0.9c0-0.8-0.5-1.3-2.1-2.1c2.8-0.3,5.6-0.7,8.4-1.4c1.6-0.4,2.2-0.7,2.2-1.1
		c0-0.6-1.5-1.5-2.5-1.5c-0.2,0-0.4,0.1-0.6,0.2c-1,0.6-2.2,1.1-3.4,1.4c-2.3,0.7-4.8,1.1-7.2,1.2c-1.3,0-2.6-0.6-3.5-1.5
		L629.4,2721.2z M631.4,2781.4c1.9-1.1,3.6-2.6,5-4.3c1.9-2.3,3.2-4.8,4.6-9.2c0.3-0.8,0.3-0.9,0.5-1.4c3.5-1.6,4.9-2.4,7.6-3.9
		c0.5-0.3,1-0.5,1.6-0.7c1-0.3,1.2-0.4,1.2-0.9c0-0.5-0.9-1.6-2.3-2.7c-0.5-0.5-1.1-0.8-1.7-0.9c-0.1,0-0.3,0-0.4,0.1
		c-0.7,0.3-0.9,0.4-5.9,1c-1.2,0.1-1.9,0.2-2.2,0.3c-6,0.8-6.6,0.8-7.7,0.8c-1.4,0.1-2.7-0.7-3.2-1.9c-0.1,0.2-0.2,0.5-0.2,0.7
		c0.1,0.6,0.3,1.2,0.6,1.7c0.7,1.2,1.9,2.1,2.6,2.1c0.3,0,0.5-0.1,0.7-0.2c1.1-0.5,2.1-0.8,3.3-1.1c3.6-0.9,7.3-1.5,11-1.8
		c1.5,0,1.9,0.1,1.9,0.5c0,0.2-0.3,0.6-1,1.3c-1.8,1.7-3.7,3.2-5.7,4.6c-0.2-0.4-0.5-0.7-1.4-1.1c-0.8-0.5-1.6-0.8-2.5-0.9
		c-0.3,0-0.6,0.1-0.7,0.3c1.3,0.5,1.9,1.2,1.9,2c-0.3,2.4-0.9,4.8-1.9,7c-1.3,3.1-3.3,5.9-5.8,8.1L631.4,2781.4z M631.6,2814.1
		c3.4,2.8,3.5,2.9,3.6,3.7c0,0.4,0.3,0.7,0.7,0.7c0,0,0.1,0,0.1,0c1.2-0.1,2.3-0.6,3.1-1.4c1.9-2,3.5-7.4,3.5-11.5
		c0-3.4-1.3-5-4.1-5c-0.9,0-1.9,0.1-2.8,0.4c0.6-1.5,1.3-2.9,2-4.3c0.4-0.6,0.4-0.7,0.4-0.9c0-0.7-0.8-1.3-2.2-1.7
		c-0.7-0.2-1.4-0.4-2.2-0.4c-0.3,0-0.7,0.1-0.9,0.4c1.8,0.6,2.5,1.2,2.5,2.1c-0.2,1.8-0.6,3.6-1.3,5.2c-1.8,0.5-3.6,0.9-5.4,1.1
		c-1.2,0-1.8-0.4-2.4-1.8c-0.1,0.2-0.2,0.5-0.2,0.7c0.1,0.9,0.5,1.7,1.1,2.4c0.3,0.5,0.8,0.8,1.4,1c0.3,0,0.7-0.1,0.9-0.4
		c1.3-0.7,2.7-1.2,4.2-1.7c-3.1,6.8-4.4,9.4-5.9,11.1c-0.5,0.4-0.8,1.1-0.7,1.8c0,1.4,0.4,2.2,0.9,2.2c0.3,0,0.5-0.2,0.8-0.6
		c0.5-0.9,1.6-3.2,2.8-6.2c1.1-2.6,1.7-4.1,1.9-4.5c1.4-3.2,1.4-3.2,1.9-4.4c1.1-0.4,2.2-0.6,3.3-0.6c0.5,0,1,0.1,1.4,0.3
		c0.6,0.4,0.9,1.2,0.9,2.6c-0.1,2.9-0.7,5.9-1.9,8.6c-0.8,2-1.4,2.7-2.1,2.7c-0.7,0-2.5-0.8-5-2.2L631.6,2814.1z M645.7,2801.2
		c2.9,1.4,4.9,4.1,5.4,7.3c-1.6,0.6-3.2,1.2-4.9,1.6l0.1,0.4c1.3-0.2,2.7-0.3,4-0.3c0.5,0,0.9,0.1,1.3,0.4c0.2,0.1,0.5,0.2,0.7,0.2
		c0.8,0,1.3-0.6,1.3-1.8c-0.1-1.7-0.7-3.3-1.8-4.5c-1.5-1.9-3.5-3.2-5.9-3.8L645.7,2801.2z M646.6,2794.8c1,1,1.8,2.1,2.5,3.4
		c1,2.1,1,2.1,1.4,2.1c0.5,0,1-0.6,1-1.3s-0.4-1.5-1.6-2.5c-0.9-0.8-1.8-1.4-2.8-2L646.6,2794.8z M650,2792.9
		c1.4,1.3,2.6,2.9,3.5,4.6c0.3,0.4,0.4,0.6,0.7,0.6c0.5,0,0.8-0.5,0.8-1.3c0-0.9-0.4-1.5-1.6-2.5c-0.9-0.7-2-1.3-3.1-1.8L650,2792.9
		z"/>
	<path id="パス_4007" class="st0" d="M598.9,2661.6c0.2,0,0.4-0.1,0.6-0.2c0.1-0.1,0.1-0.2,0.1-0.3c0-0.1-0.1-0.2-0.2-0.3
		c-0.3-0.1-1.9-0.6-3.1-0.9c-0.7,1-1.5,1.9-2.4,2.7c-0.7,0.7-1.5,1.3-2.4,1.9c-1.3-0.4-2.3-1.4-2.9-2.7v-7.7c0.7-0.5,1-0.7,1-1
		c0-0.2-0.1-0.3-0.2-0.4c-0.6-0.5-1.2-1-1.9-1.4c-0.5,0.6-0.7,0.8-1.2,1.4h-1.8c-0.8,0-1.5-0.1-2.2-0.3l0.4,1.2
		c0.6-0.1,1.2-0.2,1.8-0.2h2v8.8c-1.3,1-2.6,1.8-4.1,2.5c1.4,2.8,1.7,3.3,2,3.3c0.2,0,0.4-0.3,0.4-0.6c0-0.3-0.1-0.7-0.1-1
		c1.2-1.5,2.3-3,3.2-4.7c0.6,1.7,1.8,3.2,3.4,4.1c1.5,1,3,1.4,5.7,1.5c1.4,0.1,3.3,0.1,9.4,0.1c1.7,0,2.8,0,4.3-0.1
		c0.4-1.6,0.8-2,1.9-2.2v-0.4c-6.1,0.4-10.2,0.6-14,0.6c-2.2,0.1-4.4-0.1-6.5-0.6c2.1-0.8,4.1-1.8,5.9-3.1c0.1,0,0.3,0,0.4,0
		L598.9,2661.6z M597.8,2645.3v0.1c0,0.2,0.2,0.4,0.4,0.4c0.4,0,0.9,0,1.3-0.1c0.1,0,0.1-0.1,0.2-0.3c0-0.7,0-0.7,0-1.4
		c0-1,0-1,0-1.8c0.7-0.4,1-0.7,1-0.9c0-0.1-0.1-0.2-0.2-0.3c-0.7-0.5-1-0.7-1.8-1.2c-0.4,0.5-0.6,0.6-1,1.2h-5c-0.7,0-1.4-0.1-2-0.3
		l0.2,1.2c0.6-0.1,1.2-0.2,1.8-0.2h5v2.7h-4.4c-0.7-0.4-1.5-0.9-2.2-1.2c0.1,0.6,0.1,1.1,0.1,1.7c0,4,0,4,0.2,4.3
		c0.4,0.5,1.2,0.7,4.5,0.7c1.4,0,2.8-0.1,4.2-0.3c0.4-0.1,0.7-0.4,0.7-0.8c0-0.3-0.2-0.6-0.4-0.7c-0.3-0.1-0.3-0.1-0.3-0.3v-0.2
		l0.1-1.4l-0.4-0.1c-0.8,1.6-1,2-1.4,2.1c-0.9,0.1-1.7,0.1-2.6,0.1c-0.8,0.1-1.7,0-2.5-0.1c-0.2-0.1-0.2-0.3-0.2-0.7v-2.3H597.8z
		 M608.4,2645.3v0.3c0,0.2,0.1,0.3,0.4,0.3c1,0,1.4-0.1,1.4-0.5c0-0.4,0-0.6,0-0.7v-2.5c0.7-0.5,0.8-0.5,0.8-0.7
		c0-0.1-0.1-0.2-0.3-0.4c-0.5-0.4-1.1-0.8-1.6-1.2c-0.4,0.5-0.5,0.6-0.9,1.2h-4.8c-0.7,0-1.3-0.1-2-0.2l0.3,1.1
		c0.6-0.1,1.1-0.1,1.7-0.2h5v2.7h-4.2c-0.7-0.6-1.5-1-2.3-1.3c0.1,0.5,0.1,1.1,0.1,1.6c0,4.2,0,4.2,0.4,4.6c0.4,0.4,1.2,0.5,3.6,0.5
		c1.5,0.1,3.1,0,4.6-0.3c0.5-0.1,0.9-0.5,0.9-0.9c0-0.3-0.1-0.4-0.5-0.6c-0.4-0.2-0.4-0.3-0.4-0.4c0-0.1,0-0.2,0-0.3l0.1-1.2
		l-0.4-0.1c-0.9,1.7-1,1.9-1.3,2c-0.7,0.1-1.4,0.2-2.2,0.2h-0.1c-0.7,0-1.2-0.1-1.6-0.1h-0.5c-0.6,0-0.8-0.1-0.8-0.4v-2.5H608.4z
		 M598,2653.8v-1.8c0.9-0.4,1-0.4,1-0.6c0-0.4-0.5-0.5-3.2-0.7c0.2,0.7,0.3,1.5,0.3,2.2v0.9h-2.5c-0.7,0-1.4-0.1-2.1-0.2l0.3,1.1
		c0.6-0.1,1.2-0.2,1.9-0.2h2.5v3.9h-3.9c-0.7,0-1.4-0.1-2-0.3l0.3,1.2c0.5-0.1,1.1-0.2,1.7-0.2h19.6c0.2,0,0.3-0.1,0.3-0.3
		c0-0.1-0.1-0.2-0.1-0.2c-1.1-1-1.4-1.3-2.6-2.2c-0.6,0.8-0.9,1.1-1.5,2h-3v-3.9h5.4c0.3,0,0.4-0.1,0.4-0.2c0-0.1-0.1-0.1-0.1-0.2
		c-1.1-1-1.5-1.2-2.6-2.1c-0.6,0.8-0.8,1-1.4,1.8h-1.7v-1.7c0.8-0.4,1.1-0.5,1.1-0.7c0-0.1-0.1-0.2-0.4-0.3c-1-0.2-1.9-0.4-2.9-0.4
		c0.2,0.7,0.3,1.5,0.2,2.3v0.9L598,2653.8z M598,2654.5h4.9v3.9H598V2654.5z M602.5,2660.3c1.5,0.7,2.9,1.6,4.1,2.7
		c0.5,0.5,1,0.9,1.5,1.2c0.2,0.1,0.5,0.2,0.7,0.2c0.4,0,0.5-0.3,0.5-0.9c0-0.8-0.4-1.6-1.1-2.1c-1.8-0.7-3.6-1.2-5.5-1.6
		L602.5,2660.3z M583.3,2640.5c1.2,1.5,2.2,3.1,2.9,4.9c0.6,1.6,0.8,2,1.1,2c0.5,0,1.3-1.3,1.3-2.3c0-0.7-0.4-1.4-1-1.8
		c-1.2-1.2-2.6-2.2-4-3.2L583.3,2640.5z M590.8,2692.9c-0.6,1.4-1.4,3.3-1.7,4.1c-0.7,1.6-1.1,2.7-1.3,3.2c-0.4-1.3-0.6-2.6-0.5-4
		c0.1-3.6,0.9-7.1,2.4-10.4c0.5-1.1,0.5-1.1,0.5-1.4c-0.1-0.9-0.5-1.8-1.2-2.4c-0.9-1.2-1.5-1.6-2.2-1.6c0.6,0.8,0.9,1.8,0.9,2.8
		c-0.1,1-0.2,1.9-0.5,2.9c-0.9,3.5-1.4,7.1-1.4,10.7c0,2.2,0.3,4.4,1,6.4c0.4,1,0.8,1.4,1.4,1.4c0.3,0,0.5-0.1,0.6-0.4
		c0.2-0.3,0.2-0.4,0.2-1.4v-0.1c0-1,0.5-3,2.3-9.7L590.8,2692.9z M594.2,2687.6c1.3,1.5,3.3,2.4,5.3,2.2c0.9,0,1.9-0.1,2.8-0.3
		l0,4.1l0.1,3.4v0.5c-0.9-0.1-1.3-0.1-2-0.1c-3.6,0-6,1.4-6,3.6c0,1.9,2,3.3,4.7,3.3c3.2,0,5.1-1.4,5.1-3.7c0-0.3,0-0.5,0-0.8
		c1.3,0.6,2.5,1.5,3.5,2.6c0.6,0.6,0.9,0.8,1.1,0.8c0.4,0,0.6-0.5,0.6-1.2c0-1.9-1.6-3.1-5.3-4.1c-0.3-2.9-0.5-5.8-0.4-8.7
		c3.3-0.6,5.7-1.6,5.7-2.3c0-0.3-0.2-0.5-0.4-0.6c-0.5-0.2-1-0.4-1.5-0.4c-0.3,0-0.4,0-0.7,0.4c-0.9,0.6-1.9,1.1-3,1.3
		c0-1.5,0.2-2.9,0.7-4.3c0.3-0.7,0.3-0.8,0.3-1c0-0.5-0.5-0.9-1.4-1.2c-0.7-0.2-1.4-0.3-2.2-0.3c-0.6-0.1-1.1,0.1-1.5,0.5
		c0.8,0,1.5,0.2,2.1,0.7c0.4,0.4,0.4,0.9,0.4,4.4v1.4c-1.2,0.3-2.4,0.4-3.6,0.4c-1.5,0-2.9-0.4-4.1-1.3L594.2,2687.6z M602.4,2699.3
		c0.1,0.8-0.1,1.5-0.4,2.2c-0.5,1-1.7,1.5-3.5,1.5c-1.9,0-3.1-0.7-3.1-1.9c0-1.4,1.6-2.2,4.1-2.2
		C600.4,2698.9,601.4,2699,602.4,2699.3z M605.1,2679c1,1,1.8,2.1,2.5,3.4c1,2.1,1,2.1,1.4,2.1c0.5,0,0.9-0.6,0.9-1.3
		s-0.4-1.5-1.6-2.6c-0.8-0.8-1.8-1.4-2.8-2L605.1,2679z M608.3,2677.2c1.4,1.3,2.6,2.8,3.5,4.5c0.3,0.4,0.4,0.6,0.7,0.6
		c0.4,0,0.8-0.5,0.8-1.3c0-0.9-0.4-1.5-1.6-2.5c-0.9-0.7-1.9-1.3-3-1.8L608.3,2677.2z M586.9,2733c-0.6,1-1.3,2-2.1,2.8
		c-0.5,0.5-0.5,0.6-0.5,1c0,0.6,0.1,1.2,0.4,1.8c0.2,0.5,0.4,0.7,0.7,0.7c0.3,0,0.4-0.2,1.1-1.7c1.1,1.1,2,2.2,2.8,3.5
		c0.1,0.2,0.4,1.2,0.5,1.5c0.2,0.6,0.4,0.9,0.8,0.9c0.8,0,1.4-1.5,1.4-3.3c0-0.5,0-1-0.1-1.5c-0.2-2.5-0.3-4-0.3-5.7
		c0-0.5,0-0.9,0-1.7c1.5-1.8,3.1-3.5,4.9-5.1c2.6-2.3,4.2-3.2,5.6-3.2c1.2,0,2,0.9,2,2.5c0,1.2-0.1,1.6-0.8,5.1
		c-0.4,1.9-0.7,3.8-0.8,5.7c0,2.9,1.3,4.5,3.7,4.5c2.3,0,4.8-1.3,7.1-3.7l-0.3-0.4c-1.7,1.3-3.8,2.1-6,2.3c-0.6,0-1.2-0.2-1.6-0.5
		c-0.6-0.4-0.8-1.1-0.8-2.4c0-1.8,0.2-3.5,0.6-5.2c0.4-1.5,0.6-3.1,0.6-4.7c0.1-1-0.2-2-0.9-2.8c-0.6-0.7-1.6-1.2-2.5-1.2
		c-1.4,0-2.9,0.7-5.2,2.3c-2,1.5-3.8,3.1-5.6,4.9c0-0.4,0-0.8,0.1-1.2c0.3-0.7,0.6-1.4,1-2.1c0.4-0.7,0.4-0.7,0.4-0.9
		c0-0.3-0.2-0.5-0.9-1.2c0.1-0.9,0.3-1.7,0.6-2.5c0.3-1,0.3-1,0.3-1.3c0-0.6-0.6-1.4-1.7-2.1c-0.6-0.5-1.3-0.8-2-0.9
		c-0.2,0-0.3,0.1-0.4,0.2c1.5,1.2,1.8,1.7,1.8,3.6c0,1.1-0.1,2.3-0.2,3.4c-1.4,0.9-3,1.5-4.6,1.9c-0.7,0-1.4-0.5-2.1-1.5
		c-0.1,0.2-0.1,0.4-0.1,0.5c0,1,1.5,2.9,2.4,2.9c0.3,0,0.5-0.1,1.1-0.5c0.6-0.4,2.3-1.6,3.2-2.2c0,0.5,0,0.5-0.1,1.1
		c0,0.8,0,0.8-0.1,1.3L586.9,2733z M590.4,2730.1c-0.1,1.3-0.1,2-0.1,3.6c0,4.8,0,4.8-0.1,6c-1.2-0.8-2.3-1.6-3.4-2.6
		c0.6-1.3,1-2,1.7-3.4C589.9,2731,589.9,2731,590.4,2730.1z M600.3,2758c0.1,0,0.1,0,0.2-0.1h0.1c0,0,0,0,0,0c0,0,0,0,0,0
		c0,0,0.1,0.1,0.1,0.1c-0.1,0.2-0.2,0.4-0.3,0.5c-2.5,3.3-3.7,4.7-7.6,9.1c-2.7,3-3.2,3.5-4.4,4.4c-0.4,0.3-0.6,0.7-0.7,1.1
		c0,1,0.6,2.1,1.1,2.1c0.3,0,0.5-0.2,1.1-0.9c2.7-3.4,7-6,10.2-6c1.1,0,2.2,0.2,3.2,0.6c1.3,0.9,2.1,2.4,2,4c0.1,2.6-1.5,5-3.9,6
		c-0.3-0.7-0.8-1.4-1.4-2c-1.1-1-2.6-1.6-4.1-1.6c-2,0-3.5,1.2-3.5,2.7c0,2,2,3.2,5.2,3.2c5.8,0,10-3.4,10-8c0-3.6-2.8-6-6.8-6
		c-2.7,0-5.3,0.9-8.7,3l-0.1-0.1c0.7-0.7,0.7-0.7,3.7-4c1.5-1.6,2.7-2.8,4.7-4.8c0.7-0.9,1.6-1.6,2.6-2.1c0.4-0.2,0.5-0.4,0.5-0.6
		c0-0.4-0.2-0.7-1-1.4c-0.8-0.8-1.3-1.1-1.7-1.1c-0.2,0-0.3,0.1-0.4,0.2c-0.6,0.5-1.2,0.9-2,1c-2,0.6-4,1.1-6,1.4
		c-1.1,0-1.9-0.8-2.4-2.3c-0.2,0.2-0.3,0.5-0.3,0.8c0.1,0.9,0.4,1.7,0.9,2.4c0.6,0.9,1.2,1.3,1.8,1.3c0.5-0.1,0.9-0.2,1.3-0.4
		c2.2-1,5.2-2.1,6.5-2.5L600.3,2758z M599.1,2779.7c-0.7,0.2-1.5,0.3-2.3,0.3c-2.2,0-3.6-0.8-3.6-2c0-1,0.8-1.6,2-1.6
		C597.1,2776.5,598.7,2777.8,599.1,2779.7z M603,2806.5h5v1.3c0.1,0.4,0.1,0.4,0.4,0.4c0.5,0,1-0.1,1.5-0.2c0.2-0.1,0.3-0.2,0.3-0.5
		c-0.2-2.8-0.2-4.9-0.2-8.7v-3.5c0.6-0.4,1-0.7,1.1-0.7c0.1-0.1,0.1-0.2,0.2-0.3c0-0.1-0.1-0.3-0.4-0.4c-0.8-0.6-1-0.8-1.9-1.5
		c-0.4,0.5-0.9,1-1.2,1.5h-11.1c-0.8-0.6-1.5-1.1-2.4-1.5c0.2,1.8,0.3,3.7,0.2,5.6c0,4.6-0.1,7.2-0.2,10.1c0,0.4,0.2,0.5,1.2,0.5
		c0.7,0,0.9-0.1,1-0.5v-1.4h4.6v5.2h-4.6c-0.9,0-1.8,0-2.7-0.3l0.3,1.1c1.6-0.1,1.9-0.1,2.5-0.1h4.5v5.9h-7.4
		c-0.9,0-1.9-0.1-2.8-0.3l0.2,1.2c1.5-0.1,2-0.1,2.5-0.1h19c0.3,0,0.4,0,0.4-0.2c0-0.1-0.1-0.2-0.2-0.3c-1.1-1.1-1.5-1.4-2.7-2.4
		c-0.8,0.9-1,1.2-1.8,2.1H603v-5.9h8.1c0.2,0,0.4-0.1,0.4-0.2c0-0.1-0.1-0.2-0.1-0.2c-1.1-1-1.5-1.3-2.6-2.2
		c-0.7,0.8-0.9,1.1-1.7,1.9H603V2806.5z M603,2799.8v-5.3h5v5.3H603z M603,2800.6h5v5.2h-5V2800.6z M601,2805.8h-4.6v-5.2h4.6
		L601,2805.8z M601,2799.8h-4.6v-5.3h4.6L601,2799.8z M589.3,2795.2h4.4c0.2,0,0.4-0.1,0.4-0.2c0-0.1-0.1-0.2-0.2-0.3
		c-1-0.9-1.3-1.2-2.3-2.1c-0.7,0.8-0.9,1.1-1.6,1.9h-4.5c-0.8,0-1.6,0-2.4-0.2l0.2,1.1c0.7-0.1,1.4-0.2,2.1-0.2h1.9v7.9h-1.8
		c-0.7,0-1.5-0.1-2.2-0.3l0.2,1.1c0.6-0.1,1.3-0.1,1.9-0.1h1.9v8.8c-1.8,0.7-2.8,1.1-4.4,1.6c1.1,2.5,1.4,3.1,1.7,3.1
		c0.2,0,0.4-0.4,0.4-1.4c3.4-1.8,6.6-3.9,9.6-6.2l-0.3-0.4c-1.6,0.9-3.3,1.7-5,2.5v-7.9h4.1c0.2,0,0.4-0.1,0.4-0.2
		c0-0.1,0-0.1-0.1-0.2c-0.7-0.7-1.4-1.4-2.1-2.1c-0.6,0.8-0.8,1-1.5,1.8h-0.7L589.3,2795.2z M606.9,2856.8v1.5
		c0,0.4,0.1,0.5,0.5,0.5c0.5,0,1.1-0.1,1.6-0.2c0.2-0.1,0.3-0.3,0.3-0.5v-0.1c-0.1-6-0.1-6-0.1-19.1c0.9-0.5,1.1-0.7,1.1-0.9
		c0-0.1-0.1-0.2-0.3-0.4c-0.9-0.6-1.1-0.9-2-1.5c-0.4,0.5-0.9,1-1.2,1.5h-8.5v-6.5c1-0.3,1.5-0.6,1.5-0.9c0-0.3-0.6-0.5-3.8-0.9
		c0.2,1.3,0.3,2.6,0.2,3.9v4.4h-7.8c-1.2-0.7-1.5-0.9-2.7-1.5c0.1,1.5,0.1,2.2,0.1,11.9c0,3.3,0,3.3-0.1,10.3c0,0.2,0.2,0.4,0.4,0.4
		c0,0,0,0,0,0c0.5,0,1.1-0.1,1.6-0.2c0.2-0.1,0.3-0.2,0.3-0.4v-1.2L606.9,2856.8z M606.9,2856.1h-8.7v-8.9h8.7V2856.1z
		 M606.9,2846.5h-8.7v-8h8.7V2846.5z M596.1,2856.1h-8.2v-8.9h8.2V2856.1z M596.1,2846.5h-8.2v-8.1h8.2V2846.5z"/>
	<g id="syasou" transform="translate(556.863 2378.563)">
		<path id="パス_1929" class="st1" d="M101.2,236.3H64.1c-4.7,0-8.6-3.8-8.6-8.6v-36.1c0-4.7,3.8-8.6,8.6-8.6h37.1
			c4.7,0,8.6,3.8,8.6,8.6v36.1C109.8,232.5,105.9,236.3,101.2,236.3z"/>
		<path id="パス_1930" class="st2" d="M69.4,225.3c0.7,0,1.2-0.6,1.2-1.3c0-1-1-2.2-4.1-2.7c1.3-1.3,2.4-2.8,3.3-4.5
			c0.4,0,0.7-0.1,1-0.3l-2.2-2.2l-1.4,1.3h-0.7v-3.9c0.7-0.1,0.9-0.2,1-0.6l-3.4-0.3v4.8h-3.4l0.1,0.4h6.5c-1.4,3.7-3.8,7-6.9,9.4
			l0.2,0.2c1.2-0.6,2.4-1.3,3.5-2.2v8.4h0.4c0.7,0.1,1.5-0.2,2-0.8v-9.5c1,0.9,1.6,2,2,3.3C68.7,225.1,69.1,225.2,69.4,225.3z"/>
		<path id="パス_1931" class="st2" d="M78.2,230.2h-1.7v-10.8h3.9c0.6,0,0.9-0.1,1.1-0.4l-2.4-1.8l-1.3,1.8h-1.3v-7.3
			c0.7-0.1,0.9-0.3,1-0.6l-3.5-0.3v8.2h-4.1l0.1,0.4h4v10.8h-5.5l0.1,0.4h12.3c0.6,0,0.9-0.1,1.1-0.4l-2.5-1.9L78.2,230.2z"/>
		<path id="パス_1932" class="st2" d="M97.5,217l-2.9-0.2v4.4c0,1.8,0.4,2.3,2.7,2.3h3.5c2.1,0,2.8-0.4,2.8-1.2
			c0-0.3-0.1-0.4-0.9-0.7l0-1.6h-0.2c-0.8,1.7-1,1.7-1.7,1.7h-3.4c-0.7,0-0.7,0-0.7-0.5V220c1.6-0.2,3.3-0.6,4.8-1
			c0.2,0.1,0.5,0.1,0.7,0.1c0.2,0,0.4,0,0.5-0.2l-2.1-1.8c-1.2,0.9-2.6,1.6-4,2.2v-1.9C97.3,217.4,97.4,217.3,97.5,217z"/>
		<path id="パス_1933" class="st2" d="M89,213.5v2.1c2,0,2.3-0.5,2.3-0.6v-1.5h4.9v1.9c2.1,0,2.3-0.5,2.3-0.6v-1.4h4.8
			c0.6,0,0.8-0.1,1-0.4l-2.3-1.7l-1.2,1.6h-2.3v-1.6c0.6-0.1,0.8-0.2,0.9-0.6l-3.2-0.2v2.4h-4.9v-1.6c0.6-0.1,0.8-0.2,0.9-0.6
			l-3.2-0.2v2.4h-5.7l0.1,0.4L89,213.5L89,213.5z"/>
		<path id="パス_1934" class="st2" d="M101.4,214.6l-1.2,1.5H84l0.1,0.4h4.4c-1.1,1.8-2.6,3.4-4.4,4.5l0.1,0.3
			c0.8-0.3,1.6-0.6,2.3-1c0.5,0.4,0.9,1,1.1,1.6c0.2,0.2,0.5,0.3,0.8,0.3c-1.4,1.1-3,1.9-4.8,2.3l0.2,0.4c5-0.7,7.4-2.5,9.5-5.6
			c0.4,0,0.7-0.1,1-0.3l-2.1-1.6l-1,1h-1.9c0.7-0.6,1.3-1.2,1.8-1.9h11.4c0.6,0,0.9-0.1,1.1-0.4L101.4,214.6z M91.3,218.9
			c-0.5,1-1.2,1.9-2,2.7c0-0.1,0-0.1,0-0.2c0-0.6-0.6-1.2-2.1-1.3c0.6-0.3,1.2-0.7,1.7-1.1L91.3,218.9L91.3,218.9z"/>
		<path id="パス_1935" class="st2" d="M102,224.9l-1.3,1.6h-2.1v-1.9c0.5-0.1,0.7-0.2,0.7-0.5l-3.1-0.2v2.6h-5.1v-1.9
			c0.6-0.1,0.8-0.2,0.8-0.5l-3.1-0.2v2.6h-5.6l0.1,0.4h5.4c-0.1,1.8-1.2,3.5-5.1,4.7l0.1,0.3c5.7-0.9,7.1-2.9,7.4-4.9h5.2v4.9
			c1.9,0,2.4-0.6,2.4-0.6v-4.3h4.6c0.6,0,0.9-0.1,1.1-0.4L102,224.9z"/>
		<path id="パス_1936" class="st2" d="M62.9,197v-3.3h3.8c1.1,0,1.5,0.5,1.5,1.2c0,0.6-0.5,1-1.4,1H65v1.5h3.3
			c1.3,0.1,2.4-0.8,2.5-2c0-0.2,0-0.3,0-0.5c0-1.6-0.8-2.7-2.4-2.7h-5.4V190h-2.6v2.2h-1.6v1.5h1.6v4c0,4.3,3.7,4.2,3.7,4.2h6.4
			v-1.5c0,0-4.7-0.1-5.1-0.1C64.2,200.2,62.9,199.1,62.9,197z"/>
		<path id="パス_1937" class="st2" d="M74.4,201.6c1.4,0.1,2.7-0.3,3.7-1.2c2-1.7,3.5-3.7,4.6-6.1h-2.7c-0.2,0.5-3.7,6.1-5.5,5.1
			c-0.5-0.3-0.6-0.6-0.6-2.3V190h-2.5v7.4C71.4,201.4,73.4,201.6,74.4,201.6z"/>
		<path id="パス_1938" class="st2" d="M94.5,192.2v-1.5H83v1.5h3.4v2.5H83v1.4h3.4v1.8c0,3.4,1.4,4,3.7,4H94v-1.5
			c0,0-1.8-0.1-2.5-0.1c-1.7,0-3-0.5-3-2.1v-2h5.9v-1.4h-5.9v-2.5L94.5,192.2z"/>
		<path id="パス_1939" class="st2" d="M101,197.8c0,3.3-1.6,4.1-3.4,4.1h-2.4v-1.5h2c1,0,1.5-1.1,1.5-2.6v-2.7h4.3
			c1.1,0,1.4-0.6,1.4-1.3c0.1-0.7-0.5-1.4-1.2-1.5c-0.1,0-0.2,0-0.2,0h-7.8v-1.5h8.6c4.2,0,4.1,5.9,0.7,5.9H101V197.8z"/>
		<path id="パス_1940" class="st2" d="M105.4,200.6L105.4,200.6c0.2-0.1,0.4-0.3,0.4-0.6c0-0.4-0.3-0.6-0.8-0.6h-1.1v2.3h0.4v-0.9
			h0.6c0.4,0,0.4,0.2,0.4,0.6c0,0.1,0,0.2,0.1,0.3h0.4c-0.1-0.2-0.1-0.4-0.1-0.6C105.7,200.7,105.5,200.6,105.4,200.6z M104.9,200.4
			h-0.6v-0.7h0.6c0.2,0,0.4,0.1,0.4,0.3C105.4,200.2,105.2,200.4,104.9,200.4C105,200.4,105,200.4,104.9,200.4L104.9,200.4z"/>
		<path id="パス_1941" class="st2" d="M104.8,198.6c-1.1,0-1.9,0.9-1.9,1.9c0,1.1,0.9,1.9,1.9,1.9c1.1,0,1.9-0.9,1.9-1.9
			c0,0,0,0,0,0C106.7,199.5,105.8,198.6,104.8,198.6C104.8,198.6,104.8,198.6,104.8,198.6z M104.8,202.2c-0.9,0-1.6-0.7-1.6-1.6
			c0-0.9,0.7-1.6,1.6-1.6c0.9,0,1.6,0.7,1.6,1.6l0,0C106.4,201.4,105.7,202.2,104.8,202.2C104.8,202.2,104.8,202.2,104.8,202.2z"/>
		<rect id="長方形_1490" x="58.4" y="206.6" class="st2" width="48.5" height="0.6"/>
	</g>
</g>
</svg>
