<?xml version="1.0" encoding="utf-8"?>
<!-- Generator: Adobe Illustrator 26.0.1, SVG Export Plug-In . SVG Version: 6.00 Build 0)  -->
<svg version="1.1" id="レイヤー_1" xmlns="http://www.w3.org/2000/svg" xmlns:xlink="http://www.w3.org/1999/xlink" x="0px"
	 y="0px" viewBox="0 0 105.7 298.3" style="enable-background:new 0 0 105.7 298.3;" xml:space="preserve">
<style type="text/css">
	.st0{fill:#005748;}
	.st1{fill:#FFFFFF;}
	.st2{fill:#333333;}
</style>
<g id="グループ_3119" transform="translate(-593.182 -4202.611)">
	<g id="syasou" transform="translate(0 -1376.678)">
		<path id="パス_1929" class="st0" d="M660.5,5638.1h-41.1c-5.2,0-9.5-4.2-9.5-9.5v-39.9c0-5.2,4.2-9.5,9.5-9.5h41
			c5.2,0,9.5,4.2,9.5,9.5v39.9C670,5633.9,665.8,5638.1,660.5,5638.1z"/>
		<path id="パス_1930" class="st1" d="M625.4,5625.9c0.8,0,1.4-0.7,1.4-1.5c0-1.1-1.1-2.5-4.6-3c1.4-1.5,2.6-3.1,3.6-4.9
			c0.4,0,0.8-0.1,1.2-0.3l-2.5-2.4l-1.5,1.5h-0.8v-4.3c0.8-0.1,1-0.3,1.1-0.6l-3.7-0.3v5.3h-3.7l0.1,0.5h7.2
			c-1.6,4.1-4.2,7.7-7.7,10.4l0.2,0.2c1.4-0.7,2.6-1.5,3.8-2.4v9.3h0.5c0.8,0.1,1.6-0.2,2.2-0.8v-10.5c1.1,1,1.8,2.2,2.2,3.6
			C624.6,5625.7,625,5625.9,625.4,5625.9z"/>
		<path id="パス_1931" class="st1" d="M635.1,5631.4h-1.9v-12h4.3c0.7,0,1-0.1,1.2-0.4l-2.7-2l-1.5,2h-1.4v-8.1
			c0.7-0.1,1-0.3,1.1-0.7l-3.8-0.3v9.1h-4.6l0.1,0.5h4.5v12h-6.1l0.1,0.5h13.6c0.7,0,1-0.1,1.2-0.4l-2.7-2.1L635.1,5631.4z"/>
		<path id="パス_1932" class="st1" d="M656.4,5616.8l-3.2-0.2v4.9c0,2,0.5,2.5,3,2.5h3.9c2.3,0,3.1-0.4,3.1-1.3
			c0-0.3-0.1-0.5-1-0.8l0-1.7H662c-0.8,1.9-1.1,1.9-1.9,1.9h-3.7c-0.7,0-0.8,0-0.8-0.5v-1.4c1.8-0.2,3.6-0.6,5.3-1.1
			c0.2,0.1,0.5,0.1,0.8,0.1c0.2,0,0.4,0,0.6-0.2l-2.3-1.9c-1.4,1-2.8,1.8-4.4,2.4v-2.1C656.2,5617.2,656.4,5617.1,656.4,5616.8z"/>
		<path id="パス_1933" class="st1" d="M647,5612.9v2.3c2.2,0,2.5-0.6,2.5-0.6v-1.6h5.4v2.1c2.4,0,2.6-0.6,2.6-0.6v-1.5h5.3
			c0.6,0,0.9-0.1,1.1-0.4l-2.5-1.9l-1.3,1.8h-2.6v-1.8c0.7-0.1,0.9-0.2,0.9-0.6l-3.5-0.2v2.6h-5.4v-1.8c0.7-0.1,0.9-0.2,0.9-0.6
			l-3.5-0.2v2.6h-6.3l0.1,0.5L647,5612.9L647,5612.9z"/>
		<path id="パス_1934" class="st1" d="M660.7,5614.1l-1.3,1.6h-17.8l0.1,0.5h4.8c-1.2,2-2.8,3.7-4.8,5l0.1,0.4
			c0.9-0.3,1.8-0.7,2.6-1.2c0.6,0.5,1,1.1,1.3,1.8c0.2,0.2,0.5,0.3,0.9,0.3c-1.6,1.2-3.4,2.1-5.3,2.6l0.2,0.5
			c5.6-0.8,8.2-2.7,10.5-6.2c0.4,0,0.8-0.1,1.1-0.3l-2.3-1.8l-1.2,1.2h-2.1c0.7-0.6,1.4-1.3,2-2.1h12.6c0.7,0,1-0.1,1.2-0.4
			L660.7,5614.1z M649.6,5618.8c-0.6,1.1-1.3,2.1-2.2,2.9c0-0.1,0-0.2,0-0.2c0-0.6-0.6-1.3-2.4-1.5c0.7-0.4,1.3-0.8,1.9-1.3
			L649.6,5618.8L649.6,5618.8z"/>
		<path id="パス_1935" class="st1" d="M661.4,5625.4l-1.4,1.8h-2.3v-2.1c0.6-0.1,0.7-0.2,0.8-0.5l-3.4-0.3v2.9h-5.7v-2.1
			c0.6-0.1,0.8-0.2,0.9-0.5l-3.5-0.3v2.9h-6.2l0.1,0.5h6c-0.1,2-1.3,3.9-5.7,5.2l0.1,0.3c6.3-1,7.9-3.2,8.1-5.5h5.7v5.5
			c2.1,0,2.6-0.6,2.6-0.7v-4.8h5.1c0.7,0,1-0.1,1.2-0.4L661.4,5625.4z"/>
		<path id="パス_1936" class="st1" d="M618.2,5594.7v-3.7h4.2c1.2,0,1.7,0.5,1.7,1.3c0,0.7-0.6,1.1-1.6,1.1h-2v1.7h3.6
			c1.4,0.1,2.6-0.9,2.8-2.3c0-0.2,0-0.4,0-0.6c0-1.8-0.9-2.9-2.7-2.9h-6v-2.4h-2.8v2.4h-1.8v1.7h1.8v4.4c0,4.7,4.1,4.6,4.1,4.6h7.1
			v-1.7c0,0-5.2-0.1-5.6-0.1C619.7,5598.2,618.2,5596.9,618.2,5594.7z"/>
		<path id="パス_1937" class="st1" d="M630.9,5599.8c1.5,0.1,3-0.3,4.1-1.4c2.2-1.8,3.9-4.1,5-6.7h-3c-0.2,0.6-4.1,6.8-6.1,5.7
			c-0.6-0.3-0.6-0.7-0.6-2.5v-7.9h-2.7v8.2C627.6,5599.5,629.8,5599.8,630.9,5599.8z"/>
		<path id="パス_1938" class="st1" d="M653.1,5589.3v-1.7h-12.8v1.7h3.8v2.8h-3.8v1.6h3.8v1.9c0,3.8,1.5,4.4,4.1,4.4h4.4v-1.7
			c0,0-1.9-0.1-2.7-0.1c-1.9,0-3.3-0.5-3.3-2.3v-2.2h6.5v-1.6h-6.5v-2.8H653.1z"/>
		<path id="パス_1939" class="st1" d="M660.3,5595.5c0,3.6-1.8,4.5-3.8,4.5h-2.7v-1.7h2.2c1.1,0,1.7-1.2,1.7-2.9v-3h4.7
			c1.2,0,1.6-0.7,1.6-1.5c0.1-0.8-0.5-1.5-1.3-1.6c-0.1,0-0.2,0-0.3,0h-8.7v-1.7h9.5c4.6,0,4.5,6.5,0.7,6.5h-3.8L660.3,5595.5z"/>
		<path id="パス_1940" class="st1" d="M665.1,5598.6L665.1,5598.6c0.3-0.1,0.4-0.4,0.4-0.6c0-0.4-0.3-0.7-0.8-0.7h-1.2v2.5h0.4v-1
			h0.6c0.4,0,0.5,0.2,0.5,0.7c0,0.1,0,0.3,0.1,0.4h0.5c-0.1-0.2-0.2-0.4-0.1-0.7C665.5,5598.7,665.3,5598.6,665.1,5598.6z
			 M664.7,5598.4h-0.7v-0.8h0.7c0.2,0,0.4,0.1,0.4,0.4C665.1,5598.2,665,5598.4,664.7,5598.4
			C664.7,5598.4,664.7,5598.4,664.7,5598.4C664.7,5598.4,664.7,5598.4,664.7,5598.4L664.7,5598.4z"/>
		<path id="パス_1941" class="st1" d="M664.4,5596.4c-1.2,0-2.1,0.9-2.1,2.1c0,1.2,0.9,2.1,2.1,2.1c1.2,0,2.1-0.9,2.1-2.1l0,0
			C666.6,5597.4,665.6,5596.4,664.4,5596.4C664.5,5596.4,664.5,5596.4,664.4,5596.4L664.4,5596.4z M664.4,5600.4
			c-1,0-1.8-0.8-1.8-1.8c0-1,0.8-1.8,1.8-1.8c1,0,1.8,0.8,1.8,1.8l0,0C666.3,5599.5,665.5,5600.4,664.4,5600.4
			C664.5,5600.4,664.5,5600.4,664.4,5600.4L664.4,5600.4z"/>
		<rect id="長方形_1490" x="613.2" y="5605.3" class="st1" width="53.7" height="0.6"/>
	</g>
	<path id="パス_3995" class="st2" d="M626.8,4310.1c2.5-1.2,4.8-2.8,6.9-4.7c2.6-2.3,4.8-4.9,6.6-7.9c1.3,2.7,3.1,5.1,5.2,7.2
		c1.8,2,4,3.6,6.4,4.7c0.6-1.4,1.1-1.8,2.3-1.9l0.1-0.4c-2.7-0.7-5.3-1.9-7.5-3.6c-2.4-1.7-4.4-3.8-6-6.3c0.8-0.1,1.1-0.3,1.1-0.6
		c0-0.3-0.3-0.4-1.9-0.7c-0.3-0.1-0.8-0.2-1.5-0.3c-0.1,0.5-0.3,1-0.5,1.4c-0.9,1.7-2,3.3-3.2,4.8c-2.3,3-5.1,5.6-8.2,7.7
		L626.8,4310.1z M633.8,4307.1c0.6-0.1,1.3-0.2,1.9-0.2h9.9c0.3,0,0.4,0,0.4-0.1c0-0.1-0.1-0.2-0.2-0.3c-1-0.9-1.4-1.1-2.4-1.9
		c-0.7,0.8-0.9,1-1.5,1.7h-6.1c-0.7,0-1.4-0.1-2.1-0.2L633.8,4307.1z M633.6,4319.9h12.3v1.4c0,0.2,0.1,0.3,0.4,0.3
		c0.5,0,1-0.1,1.5-0.2c0.2-0.1,0.3-0.1,0.3-0.4v-0.1c-0.1-4.5-0.1-4.5-0.1-8.7c0.7-0.2,1-0.4,1-0.6c0-0.1-0.1-0.2-0.3-0.4
		c-0.8-0.7-1-0.9-1.9-1.5c-0.4,0.5-0.8,1-1.2,1.5h-11.7c-0.7-0.5-1.5-1-2.3-1.5c0.1,1.1,0.1,2.2,0.1,4.5c0,1.2,0,2.6-0.1,7.1
		c0,0.3,0.1,0.4,0.4,0.4c0.5,0,1-0.1,1.5-0.2c0.1-0.1,0.2-0.1,0.2-0.4V4319.9z M633.6,4311.8h12.3v7.4h-12.3V4311.8z M631.2,4334.3
		h17.7v20.3c0,0.2-0.1,0.3-0.3,0.3h-0.1c-1.7-0.1-1.7-0.1-5.3-0.2v0.4c2.6,0.3,2.7,0.3,3.2,0.6c0.5,0.3,0.7,0.6,1,1.6
		c1-0.1,2-0.4,2.9-0.8c0.6-0.2,0.9-0.8,0.9-1.4v-2.4c-0.1-5-0.1-5-0.1-6V4335c0.2-0.2,0.4-0.3,0.6-0.4c0.1-0.1,0.1-0.1,0.1-0.1
		c0.2-0.2,0.3-0.3,0.3-0.4c0-0.1-0.1-0.2-0.3-0.4c-0.6-0.5-1.3-1-2-1.4c-0.5,0.6-0.6,0.8-1,1.4h-17c-1.1-0.6-1.4-0.7-2.5-1.3
		c0.1,1.4,0.1,5.7,0.1,11.2c0,4.1-0.1,10.4-0.1,13.5c0,0.3,0.2,0.4,0.7,0.4c1.2,0,1.5-0.1,1.6-0.6c-0.1-4.6-0.1-4.6-0.1-7
		L631.2,4334.3z M632.9,4339.3c0.8-0.2,1.6-0.3,2.4-0.3h12c0.2,0,0.3-0.1,0.3-0.3c0-0.1-0.1-0.2-0.1-0.3c-1-0.9-1.3-1.2-2.4-2
		c-0.5,0.6-1,1.2-1.5,1.9h-8.2c-1,0-1.9-0.1-2.9-0.4L632.9,4339.3z M636.8,4350h6.6v1.7c0,0.3,0.1,0.5,0.5,0.5
		c1.1,0,1.4-0.1,1.4-0.6c-0.1-1.5-0.1-2.9-0.1-5.5c0-0.6,0-1.4,0-2.5c0.6-0.5,0.8-0.7,0.8-0.9c0-0.1-0.1-0.2-0.3-0.3
		c-0.6-0.5-1.2-0.9-1.8-1.3c-0.5,0.6-0.6,0.8-1,1.3h-5.9c-0.8-0.4-1.5-0.8-2.3-1.1c0.1,1.2,0.1,2.5,0.1,5.4c0,1.9,0,3-0.1,5.2v0.1
		c0,0.2,0.2,0.3,0.6,0.3c0.4,0,0.8-0.1,1.2-0.1c0.2-0.1,0.3-0.2,0.2-0.4V4350z M636.8,4343.1h6.6v6.1h-6.6V4343.1z M643.5,4374.9
		h9.2c0.2,0,0.3-0.1,0.3-0.2c0-0.1-0.1-0.2-0.1-0.2c-1.1-0.9-1.4-1.2-2.5-2.1c-0.8,0.8-1,1-1.8,1.9h-18.5c-0.9,0-1.8-0.1-2.7-0.3
		l0.2,1.1c0.8-0.2,1.6-0.2,2.5-0.2h3.4c-0.6,1-1.3,2-2.1,2.8c-1.3,1.6-2.9,2.9-4.6,4.1l0.3,0.4c1.6-0.7,3.1-1.6,4.5-2.8
		c0.9,0.6,1.7,1.4,2.2,2.3c0.2,0.2,0.2,0.3,0.5,0.3c-2.3,1.7-4.8,3-7.5,3.9l0.1,0.5c2.3-0.5,4.6-1.3,6.7-2.4
		c2.6-1.3,4.7-3.2,6.2-5.7c1-0.3,1.1-0.4,1.1-0.6c0-0.1-0.1-0.2-0.3-0.3c-0.6-0.5-0.8-0.7-1.5-1.2c-0.5,0.4-0.7,0.6-1.2,1H634
		c0.7-0.7,1.3-1.5,1.8-2.3h6v7.4c0.1,1.5,0.3,1.6,5,1.6c5.4,0,6.2-0.1,6.2-1.1c0-0.4-0.3-0.7-0.6-0.7c-0.5-0.2-0.5-0.2-0.5-0.3v-0.7
		l0.2-2.3l-0.3,0c-0.4,1.1-0.8,2.2-1.3,3.2c-0.2,0.3-0.3,0.3-1.4,0.3h-1.2c-0.8,0-1.2,0-1.5,0c-0.8,0-2.2-0.1-2.4-0.1
		c-0.3-0.1-0.3-0.1-0.3-0.6v-1.7c2.1-0.5,4.2-1.2,6.1-2.2c0.4,0,0.9,0,1,0c0.3,0,0.6-0.1,0.6-0.3c0-0.2-0.4-0.4-2.5-1.6
		c-1.6,1.4-3.3,2.6-5.3,3.5V4374.9z M638.1,4377.9c-0.9,1.4-2,2.7-3.3,3.8c0.2-0.3,0.2-0.5,0.2-0.8c0-0.5-0.3-0.8-1.3-1.1
		c-0.6-0.2-1.2-0.4-1.8-0.5c0.6-0.5,0.9-0.8,1.4-1.3H638.1z M637,4370.3v-1.4c1-0.3,1.2-0.4,1.2-0.6c0-0.3-0.3-0.3-1.7-0.5
		c-0.3,0-0.8-0.1-1.5-0.2c0.1,0.6,0.1,1.2,0.1,1.9c0,0.2,0,0.5,0,0.8h-5.5c-0.8,0-1.7-0.1-2.5-0.2l0.2,1c0.8-0.1,1.5-0.2,2.3-0.1
		h5.5c0,0.5,0,0.8-0.1,1.8c0,0.2,0.1,0.2,0.3,0.2c0.5,0,1.1,0,1.6-0.1c0.1-0.1,0.1-0.1,0.1-0.3c0-0.4-0.1-0.6-0.1-0.8l0-0.5v-0.3
		h5.6c0,0.6,0,0.9-0.1,1.8c0,0.2,0.1,0.3,0.3,0.3c1.3,0,1.6-0.1,1.6-0.4c0-0.8,0-1,0-1.7h8.9c0.2,0,0.3-0.1,0.3-0.2
		c0-0.1-0.1-0.2-0.1-0.2c-1.2-1-1.6-1.2-2.7-2.2c-0.8,0.8-1,1-1.9,1.9h-4.5c0-0.3,0-0.3,0-1.4c1-0.3,1.2-0.4,1.2-0.6
		c0-0.3-0.7-0.4-3.2-0.7c0.1,0.8,0.2,1.6,0.1,2.4c0,0.1,0,0.2,0,0.2L637,4370.3z M629.9,4386.9c-0.8,0-1.7,0-2.5-0.2l0.2,1
		c0.7-0.1,1.5-0.2,2.3-0.2h5.3c-0.2,1.3-0.7,2.5-1.6,3.5c-1.2,1.3-3,2.1-6.4,2.9l0.1,0.4c3.6-0.4,6-1.3,7.8-2.9
		c1.1-1,1.8-2.4,1.9-3.9h5.5v1.9c0,1.5,0,2.3-0.1,4.2c0,0.2,0.1,0.3,0.3,0.3c0.5,0,1,0,1.5-0.2c0.1-0.1,0.2-0.2,0.1-0.3
		c-0.1-3.4-0.1-3.5-0.1-4.3v-1.8h8.8c0.1,0,0.3-0.1,0.3-0.2c0-0.1-0.1-0.2-0.1-0.2c-1.1-1-1.5-1.3-2.7-2.2c-0.8,0.8-1,1-1.8,1.9
		h-4.4v-1.2c1-0.4,1-0.4,1-0.6c0-0.3-0.2-0.3-3-0.6c0.1,0.8,0.1,1.6,0.1,2.4h-5.4c0.1-0.4,0.1-0.5,0.1-1.4c0.9-0.3,1.1-0.4,1.1-0.6
		s-0.5-0.3-1.7-0.5c-0.3,0-0.8-0.1-1.4-0.2c0.1,0.4,0.1,0.8,0.1,1.2c0,0.5,0,0.9-0.1,1.4L629.9,4386.9z M640,4427.8
		c2-0.3,3.9-0.9,5.7-1.8c3.7-1.9,5.8-5.2,5.8-8.8c0.1-2.6-0.9-5.1-2.8-6.8c-2.1-1.8-4.7-2.7-7.5-2.7c-3.7,0-7.3,1.4-10,4.1
		c-1.5,1.5-2.5,3.6-2.6,5.7c0,0.9,0.2,1.8,0.7,2.6c0.5,0.9,0.9,1.8,1.3,2.7c0.2,0.7,0.4,1.3,0.8,1.9c0.3,0.4,0.8,0.6,1.3,0.6
		c1.1,0,2.5-1.4,4.3-4.3c2.2-3.5,3.8-7.8,3.8-10c0-0.9-0.3-1.7-0.9-2.4c0.3,0,0.7-0.1,1-0.1c1.8,0,3.5,0.4,5,1.3
		c2.2,1.4,3.4,3.8,3.3,6.4c0,2.6-0.9,5.1-2.6,7c-1.8,2-4.2,3.4-6.8,4L640,4427.8z M639.2,4408.7c0.2,0.4,0.4,0.9,0.4,1.4
		c0,1.8-1.5,5.5-3.7,9c-1.4,2.3-2.8,3.8-3.5,3.8c-0.3,0-0.7-0.3-1.1-0.8c-0.8-1.1-1.2-2.5-1.2-3.8
		C630.2,4413.8,634.2,4409.6,639.2,4408.7z M652.8,4444.2c0.2,0,0.3-0.1,0.3-0.2c0-0.1-0.1-0.1-0.2-0.3c-1.2-1-1.5-1.3-2.8-2.3
		c-0.8,0.9-1,1.2-1.7,2.1h-5.4v-2.5c1.1-0.3,1.2-0.4,1.2-0.6c0-0.3-0.4-0.4-1.8-0.6c-0.3,0-0.9-0.1-1.5-0.2c0.1,1.1,0.1,1.6,0.1,2.6
		v1.3h-4.8c-0.8,0-1.6-0.1-2.4-0.3l0.3,1.2c0.7-0.2,1.4-0.3,2.2-0.2h3.6c-0.4,1.7-0.9,3.3-1.5,4.9c-1.7,0.1-1.7,0.1-2,0.1
		c-0.4,0-0.4,0-2.1-0.1c0.5,2.7,0.6,2.8,0.9,2.8c0.2,0,0.3-0.2,0.3-0.6c0-0.1,0.1-0.2,0.1-0.3c8.8-1.2,8.8-1.2,12.4-1.9
		c0.6,0.7,1.1,1.4,1.5,2.2c0.2,0.4,0.4,0.6,0.6,0.6c0.4,0,0.9-1,0.9-1.9c0-0.7-0.4-1.3-1-1.7c-1.7-1.1-3.4-2.2-5.2-3.1l-0.2,0.3
		c1.1,0.9,2.1,1.8,3,2.9c-3.5,0.3-4.1,0.3-8.4,0.5c1.2-1.6,2.2-3.2,3.1-4.9L652.8,4444.2z M627.8,4440.5c0.9,0.7,1.8,1.5,2.5,2.5
		c0.5,0.6,0.9,1.2,1.2,1.8c0.3,0.6,0.5,0.7,0.7,0.7c0.3,0,0.8-1,0.8-1.8c0-0.7-0.3-1-1.2-1.6c-1.2-0.7-2.5-1.4-3.8-1.9L627.8,4440.5
		z M626.1,4447.1c0.7,0.5,1.4,1.2,2,1.9c0.5,0.6,1,1.3,1.5,2c0.3,0.6,0.5,0.7,0.7,0.7c0.4,0,0.9-1,0.9-1.8c0-0.7-0.2-0.9-1.4-1.6
		c-1-0.6-2.1-1.1-3.3-1.5L626.1,4447.1z M631.5,4466.2c1.2-0.5,2.3-1.2,3.2-2.1c1.8-1.5,3-3.6,3.4-5.9c0.2-1.7,0.4-3.5,0.4-5.2
		c1-0.4,1-0.4,1-0.6c0-0.3-0.2-0.3-3-0.7c0.1,1,0.1,1.4,0.1,2.2c0,4.6-0.8,7.3-2.6,9.5c-0.8,0.9-1.7,1.7-2.7,2.3L631.5,4466.2z
		 M643,4453c0.9-0.3,1-0.4,1-0.6c0-0.3-0.3-0.3-3-0.7c0.1,1.2,0.1,1.8,0.1,3c0,4.1,0,6.2-0.1,10.2c0,0.2,0.2,0.4,0.4,0.4
		c0,0,0,0,0.1,0c0.5,0,0.9-0.1,1.4-0.1c0.1-0.1,0.2-0.1,0.2-0.4c-0.1-4.8-0.1-5.7-0.1-8.8L643,4453z M626.5,4457.7
		c0.7,0.2,1.3,0.6,1.8,1.1c0.4,0.4,0.6,0.9,0.6,1.5c0,1.3-0.2,2.6-0.6,3.9c-0.1,0.3-0.1,0.7-0.1,1c0,0.4,0.2,0.7,0.6,0.8
		c0,0,0,0,0,0c0.6-0.1,1.2-0.4,1.6-0.8c0.4-0.5,0.6-1.1,0.6-1.7c0-0.7-0.1-1.3-0.3-1.9c-0.2-0.7-0.3-1.3-0.4-2
		c0-0.5,0.2-0.9,0.3-1.4l4-12.2l-0.3-0.2c-0.7,1.5-0.7,1.5-2,4.7c-0.9,2.1-2,4.7-2.6,5.9c-0.6,1.3-0.7,1.5-1.1,1.5
		c-0.5,0-1-0.1-1.4-0.3c-0.1,0-0.3-0.1-0.6-0.1L626.5,4457.7z M646,4460.1v3.4c0,1.5,0.4,1.7,3,1.7c1.1,0,2.2,0,3.3-0.1
		c0.7-0.1,1.1-0.5,1.1-0.9c0-0.3-0.2-0.5-0.4-0.6c-0.6-0.3-0.6-0.3-0.6-0.6v-0.4l0.4-5.1l-0.5,0c-1.2,4.8-1.4,5.5-1.6,5.8
		c-0.2,0.2-0.6,0.3-1.7,0.3H649c-0.2,0-0.4,0-0.8,0c-0.3,0-0.4-0.1-0.4-0.5v-9.9c0.9-0.3,1.2-0.4,1.2-0.7c0-0.3-0.6-0.4-3.1-0.6
		c0.1,0.9,0.1,1.8,0.1,2.8V4460.1z M630.4,4491.4c-0.5,0.9-1.2,1.8-1.9,2.6c-0.5,0.5-0.5,0.5-0.5,0.9c0,0.5,0.1,1.1,0.3,1.6
		c0.2,0.4,0.4,0.7,0.7,0.7c0.3,0,0.4-0.2,1-1.6c1,1,1.8,2,2.6,3.2c0.1,0.2,0.4,1.1,0.5,1.4c0.1,0.6,0.4,0.8,0.7,0.8
		c0.7,0,1.2-1.4,1.2-3c0-0.5,0-0.9-0.1-1.4c-0.2-2.2-0.3-3.6-0.3-5.2c0-0.4,0-0.8,0-1.5c1.4-1.6,2.8-3.2,4.4-4.6
		c2.3-2.1,3.8-2.9,5.1-2.9c1.1,0,1.8,0.8,1.8,2.2c0,1.6-0.3,3.1-0.7,4.6c-0.4,1.7-0.6,3.4-0.7,5.2c0,2.6,1.2,4.1,3.4,4.1
		c2.1,0,4.3-1.2,6.4-3.3l-0.2-0.3c-1.6,1.2-3.4,1.9-5.4,2.1c-0.5,0-1-0.1-1.5-0.4c-0.5-0.4-0.7-1-0.7-2.1c0-1.6,0.2-3.2,0.5-4.8
		c0.4-1.4,0.6-2.8,0.6-4.3c0.1-0.9-0.2-1.8-0.8-2.6c-0.6-0.7-1.4-1-2.3-1c-1.3,0-2.6,0.6-4.7,2.1c-1.8,1.4-3.5,2.8-5,4.4
		c0-0.4,0-0.7,0.1-1.1c0.3-0.6,0.6-1.3,0.9-1.9c0.4-0.6,0.4-0.7,0.4-0.8c0-0.2-0.2-0.5-0.8-1.1c0.1-0.8,0.3-1.5,0.5-2.3
		c0.3-0.9,0.3-0.9,0.3-1.2c0-0.6-0.6-1.3-1.5-1.9c-0.5-0.4-1.2-0.7-1.9-0.8c-0.1,0-0.3,0.1-0.4,0.1c1.2,0.6,1.8,1.9,1.7,3.2
		c0,1-0.1,2.1-0.2,3.1c-1.3,0.8-2.7,1.4-4.2,1.7c-0.6,0-1.2-0.5-1.9-1.4c0,0.2-0.1,0.3-0.1,0.5c0,0.9,1.4,2.6,2.1,2.6
		c0.3,0,0.4-0.1,1-0.5c0.5-0.4,2.1-1.4,2.9-2c0,0.4,0,0.4-0.1,1c0,0.8,0,0.8-0.1,1.2L630.4,4491.4z M633.6,4488.7
		c-0.1,1.2-0.1,1.9-0.1,3.3c0,4.3,0,4.3-0.1,5.4c-1.1-0.7-2.1-1.5-3.1-2.3c0.6-1.2,0.9-1.8,1.5-3.1
		C633.1,4489.5,633.2,4489.5,633.6,4488.7L633.6,4488.7z"/>
</g>
</svg>
