<?xml version="1.0" encoding="utf-8"?>
<!-- Generator: Adobe Illustrator 26.0.1, SVG Export Plug-In . SVG Version: 6.00 Build 0)  -->
<svg version="1.1" id="レイヤー_1" xmlns="http://www.w3.org/2000/svg" xmlns:xlink="http://www.w3.org/1999/xlink" x="0px"
	 y="0px" viewBox="0 0 118.9 271.8" style="enable-background:new 0 0 118.9 271.8;" xml:space="preserve">
<style type="text/css">
	.st0{fill:#005748;}
	.st1{fill:#FFFFFF;}
	.st2{fill:#222222;}
</style>
<g id="グループ_3120" transform="translate(-577.977 -7425.406)">
	<g id="syasou" transform="translate(0.5 469.146)">
		<path id="パス_1929" class="st0" d="M660.5,7015.1h-41.1c-5.2,0-9.5-4.2-9.5-9.5v-39.9c0-5.2,4.2-9.5,9.5-9.5h41
			c5.2,0,9.5,4.2,9.5,9.5v39.9C670,7010.8,665.8,7015.1,660.5,7015.1z"/>
		<path id="パス_1930" class="st1" d="M625.4,7002.9c0.8,0,1.4-0.7,1.4-1.5c0-1.1-1.1-2.5-4.6-3c1.4-1.5,2.6-3.1,3.6-4.9
			c0.4,0,0.8-0.1,1.2-0.3l-2.5-2.4l-1.5,1.5h-0.8v-4.3c0.8-0.1,1-0.3,1.1-0.6l-3.7-0.3v5.3h-3.7l0.1,0.5h7.2
			c-1.6,4.1-4.2,7.7-7.7,10.4l0.2,0.2c1.4-0.7,2.6-1.5,3.8-2.4v9.3h0.5c0.8,0.1,1.6-0.2,2.2-0.8v-10.5c1.1,1,1.8,2.2,2.2,3.6
			C624.6,7002.7,625,7002.9,625.4,7002.9z"/>
		<path id="パス_1931" class="st1" d="M635.1,7008.4h-1.9v-12h4.3c0.7,0,1-0.1,1.2-0.4l-2.7-2l-1.5,2h-1.4v-8.1
			c0.7-0.1,1-0.3,1.1-0.7l-3.8-0.3v9.1h-4.6l0.1,0.5h4.5v12h-6.1l0.1,0.5h13.6c0.7,0,1-0.1,1.2-0.4l-2.7-2.1L635.1,7008.4z"/>
		<path id="パス_1932" class="st1" d="M656.4,6993.8l-3.2-0.2v4.9c0,2,0.5,2.5,3,2.5h3.9c2.3,0,3.1-0.4,3.1-1.3
			c0-0.3-0.1-0.5-1-0.8l0-1.7H662c-0.8,1.9-1.1,1.9-1.9,1.9h-3.7c-0.7,0-0.8,0-0.8-0.5v-1.4c1.8-0.2,3.6-0.6,5.3-1.1
			c0.2,0.1,0.5,0.1,0.8,0.1c0.2,0,0.4,0,0.6-0.2l-2.3-1.9c-1.4,1-2.8,1.8-4.4,2.4v-2.1C656.2,6994.2,656.4,6994,656.4,6993.8z"/>
		<path id="パス_1933" class="st1" d="M647,6989.9v2.3c2.2,0,2.5-0.6,2.5-0.6v-1.6h5.4v2.1c2.4,0,2.6-0.6,2.6-0.6v-1.5h5.3
			c0.6,0,0.9-0.1,1.1-0.4l-2.5-1.9l-1.3,1.8h-2.6v-1.8c0.7-0.1,0.9-0.2,0.9-0.6l-3.5-0.2v2.6h-5.4v-1.8c0.7-0.1,0.9-0.2,0.9-0.6
			l-3.5-0.2v2.6h-6.3l0.1,0.5L647,6989.9L647,6989.9z"/>
		<path id="パス_1934" class="st1" d="M660.7,6991.1l-1.3,1.6h-17.8l0.1,0.5h4.8c-1.2,2-2.8,3.7-4.8,5l0.1,0.4
			c0.9-0.3,1.8-0.7,2.6-1.2c0.6,0.5,1,1.1,1.3,1.8c0.2,0.2,0.5,0.3,0.9,0.3c-1.6,1.2-3.4,2.1-5.3,2.6l0.2,0.5
			c5.6-0.8,8.2-2.7,10.5-6.2c0.4,0,0.8-0.1,1.1-0.3l-2.3-1.8l-1.2,1.2h-2.1c0.7-0.6,1.4-1.3,2-2.1h12.6c0.7,0,1-0.1,1.2-0.4
			L660.7,6991.1z M649.6,6995.8c-0.6,1.1-1.3,2.1-2.2,2.9c0-0.1,0-0.2,0-0.2c0-0.6-0.6-1.3-2.4-1.5c0.7-0.4,1.3-0.8,1.9-1.3
			L649.6,6995.8L649.6,6995.8z"/>
		<path id="パス_1935" class="st1" d="M661.4,7002.4l-1.4,1.8h-2.3v-2.1c0.6-0.1,0.7-0.2,0.8-0.5l-3.4-0.3v2.9h-5.7v-2.1
			c0.6-0.1,0.8-0.2,0.9-0.5l-3.5-0.3v2.9h-6.2l0.1,0.5h6c-0.1,2-1.3,3.9-5.7,5.2l0.1,0.3c6.3-1,7.9-3.2,8.1-5.5h5.7v5.5
			c2.1,0,2.6-0.6,2.6-0.7v-4.8h5.1c0.7,0,1-0.1,1.2-0.4L661.4,7002.4z"/>
		<path id="パス_1936" class="st1" d="M618.2,6971.7v-3.7h4.2c1.2,0,1.7,0.5,1.7,1.3c0,0.7-0.6,1.1-1.6,1.1h-2v1.7h3.6
			c1.4,0.1,2.6-0.9,2.8-2.3c0-0.2,0-0.4,0-0.6c0-1.8-0.9-2.9-2.7-2.9h-6v-2.4h-2.8v2.4h-1.8v1.7h1.8v4.4c0,4.7,4.1,4.6,4.1,4.6h7.1
			v-1.7c0,0-5.2-0.1-5.6-0.1C619.7,6975.1,618.2,6973.9,618.2,6971.7z"/>
		<path id="パス_1937" class="st1" d="M630.9,6976.7c1.5,0.1,3-0.3,4.1-1.4c2.2-1.8,3.9-4.1,5-6.7h-3c-0.2,0.6-4.1,6.8-6.1,5.7
			c-0.6-0.3-0.6-0.7-0.6-2.5v-7.9h-2.7v8.2C627.6,6976.4,629.8,6976.7,630.9,6976.7z"/>
		<path id="パス_1938" class="st1" d="M653.1,6966.3v-1.7h-12.8v1.7h3.8v2.8h-3.8v1.6h3.8v1.9c0,3.8,1.5,4.4,4.1,4.4h4.4v-1.7
			c0,0-1.9-0.1-2.7-0.1c-1.9,0-3.3-0.5-3.3-2.3v-2.2h6.5v-1.6h-6.5v-2.8L653.1,6966.3z"/>
		<path id="パス_1939" class="st1" d="M660.3,6972.5c0,3.6-1.8,4.5-3.8,4.5h-2.7v-1.7h2.2c1.1,0,1.7-1.2,1.7-2.9v-3h4.7
			c1.2,0,1.6-0.7,1.6-1.5c0.1-0.8-0.5-1.5-1.3-1.6c-0.1,0-0.2,0-0.3,0h-8.7v-1.7h9.5c4.6,0,4.5,6.5,0.7,6.5h-3.8L660.3,6972.5z"/>
		<path id="パス_1940" class="st1" d="M665.1,6975.6L665.1,6975.6c0.3-0.1,0.4-0.4,0.4-0.6c0-0.4-0.3-0.7-0.8-0.7h-1.2v2.5h0.4v-1
			h0.6c0.4,0,0.5,0.2,0.5,0.7c0,0.1,0,0.3,0.1,0.4h0.5c-0.1-0.2-0.2-0.4-0.1-0.7C665.5,6975.7,665.3,6975.6,665.1,6975.6z
			 M664.7,6975.4h-0.7v-0.8h0.7c0.2,0,0.4,0.1,0.4,0.4C665.1,6975.2,665,6975.4,664.7,6975.4
			C664.7,6975.4,664.7,6975.4,664.7,6975.4L664.7,6975.4z"/>
		<path id="パス_1941" class="st1" d="M664.4,6973.4c-1.2,0-2.1,0.9-2.1,2.1c0,1.2,0.9,2.1,2.1,2.1c1.2,0,2.1-0.9,2.1-2.1l0,0
			C666.6,6974.4,665.6,6973.4,664.4,6973.4C664.5,6973.4,664.5,6973.4,664.4,6973.4L664.4,6973.4z M664.4,6977.3
			c-1,0-1.8-0.8-1.8-1.8c0-1,0.8-1.8,1.8-1.8c1,0,1.8,0.8,1.8,1.8l0,0C666.3,6976.5,665.5,6977.3,664.4,6977.3
			C664.5,6977.3,664.5,6977.3,664.4,6977.3L664.4,6977.3z"/>
		<rect id="長方形_1490" x="613.2" y="6982.3" class="st1" width="53.7" height="0.6"/>
	</g>
	<path id="パス_4085" class="st2" d="M646.9,7532.4c2.8-1.4,5.3-3.1,7.6-5.2c2.8-2.5,5.3-5.4,7.2-8.7c1.5,2.9,3.4,5.6,5.7,7.9
		c2,2.2,4.4,3.9,7,5.2c0.7-1.5,1.2-2,2.5-2.1l0.1-0.4c-3-0.8-5.8-2.1-8.3-4c-2.7-1.8-4.9-4.2-6.6-6.9c0.9-0.2,1.2-0.4,1.2-0.6
		c0-0.3-0.4-0.4-2.1-0.8c-0.4-0.1-0.9-0.2-1.6-0.3c-0.1,0.5-0.3,1.1-0.6,1.6c-1,1.9-2.2,3.6-3.5,5.3c-2.5,3.3-5.6,6.2-9,8.5
		L646.9,7532.4z M654.7,7529c0.7-0.1,1.4-0.2,2.1-0.2h10.9c0.4,0,0.4,0,0.4-0.2c0-0.1-0.1-0.2-0.3-0.4c-1.2-1-1.5-1.2-2.7-2.1
		c-0.7,0.8-1,1.1-1.7,1.9h-6.7c-0.8,0-1.6-0.1-2.4-0.3L654.7,7529z M654.5,7543.2H668v1.5c0,0.3,0.2,0.4,0.5,0.4
		c0.5,0,1.1-0.1,1.6-0.2c0.2-0.1,0.3-0.2,0.3-0.4v-0.1c-0.1-5-0.1-5-0.1-9.6c0.8-0.3,1.1-0.5,1.1-0.7c0-0.1-0.1-0.2-0.3-0.4
		c-0.9-0.7-1.2-1-2-1.6c-0.5,0.5-0.9,1.1-1.3,1.6h-12.9c-0.8-0.6-1.7-1.1-2.6-1.6c0.1,1.2,0.1,2.4,0.1,4.9c0,1.3,0,2.9-0.1,7.9
		c0,0.4,0.1,0.4,0.4,0.4c0.6,0,1.1-0.1,1.7-0.2c0.2-0.1,0.2-0.2,0.2-0.4V7543.2z M654.5,7534.3H668v8.2h-13.5V7534.3z M651.8,7557.4
		h19.6v22.4c0,0.3-0.1,0.4-0.4,0.4h-0.2c-1.9-0.1-1.9-0.1-5.9-0.2v0.5c2.8,0.4,3,0.4,3.5,0.7c0.5,0.3,0.8,0.6,1.1,1.8
		c1.1-0.1,2.2-0.4,3.2-0.9c0.6-0.2,1-0.9,1-1.5v-2.6c-0.1-5.5-0.1-5.5-0.1-6.6v-13c0.3-0.2,0.5-0.4,0.6-0.4c0.1-0.1,0.1-0.1,0.2-0.1
		c0.3-0.2,0.4-0.3,0.4-0.4c0-0.1-0.1-0.3-0.4-0.4c-0.7-0.6-1.5-1.1-2.2-1.6c-0.5,0.7-0.7,0.9-1.2,1.6h-18.8
		c-1.2-0.6-1.6-0.8-2.8-1.4c0.1,1.6,0.1,6.3,0.1,12.4c0,4.5-0.1,11.5-0.2,14.9c0,0.4,0.2,0.5,0.8,0.5c1.3,0,1.7-0.1,1.7-0.6
		c-0.1-5.1-0.1-5.1-0.1-7.7V7557.4z M653.7,7562.9c0.9-0.2,1.8-0.3,2.7-0.3h13.2c0.2,0,0.3-0.1,0.4-0.3c0-0.1-0.1-0.2-0.2-0.3
		c-1.1-1-1.5-1.3-2.6-2.2c-0.5,0.7-1.1,1.4-1.6,2.1h-9c-1.1,0-2.2-0.2-3.2-0.4L653.7,7562.9z M657.9,7574.7h7.3v1.9
		c0,0.4,0.2,0.5,0.6,0.5c1.2,0,1.6-0.1,1.6-0.6c-0.1-1.7-0.1-3.2-0.1-6c0-0.6,0-1.5,0-2.7c0.7-0.6,0.9-0.8,0.9-1
		c0-0.1-0.1-0.2-0.3-0.4c-0.6-0.5-1.3-1-2-1.4c-0.5,0.6-0.7,0.8-1.2,1.4h-6.5c-0.8-0.5-1.7-0.9-2.6-1.2c0.1,1.3,0.1,2.8,0.1,6
		c0,2,0,3.3-0.1,5.8v0.1c0,0.3,0.2,0.4,0.7,0.4c0.4,0,0.9-0.1,1.3-0.2c0.2-0.1,0.3-0.3,0.3-0.4L657.9,7574.7z M657.9,7567.1h7.3v6.8
		h-7.3V7567.1z M665.4,7600.4h10.2c0.2,0,0.4-0.1,0.4-0.2c0-0.1-0.1-0.2-0.1-0.3c-1.2-1-1.5-1.3-2.8-2.3c-0.9,0.9-1.1,1.2-2,2h-20.4
		c-1,0-2-0.1-2.9-0.3l0.2,1.2c0.9-0.2,1.8-0.2,2.7-0.2h3.7c-0.6,1.1-1.4,2.2-2.3,3.1c-1.5,1.7-3.2,3.3-5.1,4.5l0.3,0.4
		c1.8-0.8,3.5-1.8,4.9-3c1,0.7,1.8,1.5,2.5,2.5c0.2,0.3,0.3,0.3,0.5,0.4c-2.5,1.9-5.3,3.3-8.3,4.3l0.2,0.5c2.6-0.5,5.1-1.4,7.4-2.7
		c2.8-1.4,5.2-3.6,6.8-6.2c1.1-0.4,1.2-0.4,1.2-0.6c0-0.1-0.1-0.2-0.3-0.4c-0.7-0.6-0.9-0.7-1.7-1.3c-0.6,0.5-0.7,0.6-1.3,1.1h-4.5
		c0.7-0.8,1.4-1.6,2-2.6h6.6v8.2c0.1,1.6,0.4,1.7,5.5,1.7c6,0,6.8-0.2,6.8-1.2c0-0.4-0.3-0.7-0.7-0.8c-0.6-0.2-0.6-0.2-0.6-0.4v-0.7
		l0.2-2.5l-0.4,0c-0.4,1.2-0.9,2.4-1.4,3.6c-0.2,0.3-0.4,0.4-1.6,0.4H670c-0.8,0-1.3,0-1.6,0c-0.9,0-2.4-0.1-2.6-0.1
		c-0.3-0.1-0.4-0.2-0.4-0.6v-1.8c2.3-0.5,4.6-1.3,6.8-2.4c0.4,0,1,0,1.2,0c0.4,0,0.6-0.1,0.6-0.3c0-0.2-0.4-0.5-2.7-1.7
		c-1.7,1.6-3.7,2.9-5.8,3.8V7600.4z M659.4,7603.7c-1,1.6-2.2,3-3.6,4.2c0.2-0.3,0.3-0.6,0.3-0.9c0-0.5-0.4-0.8-1.4-1.2
		c-0.6-0.2-1.3-0.4-2-0.5c0.6-0.5,1-0.8,1.6-1.4L659.4,7603.7z M658.1,7595.3v-1.6c1.1-0.3,1.3-0.4,1.3-0.6c0-0.3-0.4-0.4-1.9-0.5
		c-0.4,0-0.9-0.1-1.6-0.2c0.1,0.7,0.1,1.4,0.1,2c0,0.3,0,0.5,0,0.9H650c-0.9,0-1.9-0.1-2.8-0.3l0.2,1.2c0.8-0.1,1.7-0.2,2.6-0.2h6.1
		c0,0.6,0,0.9-0.1,2c0,0.2,0.1,0.3,0.3,0.3c0.6,0,1.2,0,1.7-0.2c0.1-0.1,0.1-0.1,0.1-0.3c0-0.4-0.1-0.6-0.1-0.8l0-0.6v-0.4h6.1
		c0,0.6,0,1-0.1,2c0,0.2,0.1,0.3,0.4,0.3c1.4,0,1.7-0.1,1.8-0.4c0-0.9,0-1.2,0-1.8h9.8c0.2,0,0.3-0.1,0.3-0.2c0-0.1-0.1-0.2-0.1-0.3
		c-1.3-1.1-1.7-1.4-3-2.4c-0.9,0.9-1.2,1.2-2,2.1h-4.9c0-0.4,0-0.4,0-1.6c1.1-0.3,1.3-0.4,1.3-0.6c0-0.3-0.8-0.4-3.6-0.7
		c0.1,0.9,0.2,1.8,0.2,2.7c0,0.1,0,0.2,0,0.3H658.1z M650.3,7613.7c-0.9,0-1.8,0-2.7-0.2l0.2,1.2c0.8-0.2,1.7-0.2,2.5-0.2h5.8
		c-0.2,1.4-0.8,2.8-1.8,3.8c-1.4,1.4-3.3,2.3-7,3.2l0.1,0.5c3.9-0.4,6.7-1.4,8.6-3.2c1.2-1.1,2-2.7,2.1-4.3h6v2.1
		c0,1.6,0,2.5-0.1,4.7c0,0.3,0.1,0.4,0.4,0.4c0.6,0,1.1,0,1.7-0.2c0.1-0.1,0.2-0.2,0.2-0.3c-0.1-3.7-0.1-3.9-0.1-4.7v-2h9.7
		c0.1,0,0.3-0.1,0.3-0.2c0-0.1-0.1-0.2-0.1-0.3c-1.2-1.1-1.6-1.4-2.9-2.4c-0.9,0.9-1.1,1.2-2,2.1h-4.9v-1.4c1.1-0.4,1.1-0.5,1.1-0.7
		c0-0.3-0.3-0.3-3.3-0.6c0.1,0.9,0.1,1.8,0.1,2.7h-5.9c0.1-0.4,0.1-0.5,0.2-1.5c1-0.4,1.2-0.4,1.2-0.6c0-0.2-0.5-0.4-1.9-0.6
		c-0.4,0-0.9-0.1-1.5-0.2c0.1,0.5,0.1,0.9,0.1,1.4c0,0.5,0,1-0.1,1.6L650.3,7613.7z M661.5,7657.1c2.2-0.3,4.3-1,6.2-2
		c4-2.1,6.4-5.7,6.4-9.7c0.1-2.8-1-5.6-3.1-7.5c-2.3-2-5.2-3-8.3-2.9c-4.1,0-8.1,1.6-11,4.5c-1.7,1.7-2.7,3.9-2.9,6.3
		c0,1,0.3,2,0.7,2.9c0.6,1,1,2,1.4,3c0.2,0.7,0.5,1.4,0.9,2c0.3,0.4,0.9,0.7,1.4,0.7c1.2,0,2.8-1.6,4.8-4.8
		c2.4-3.9,4.2-8.6,4.2-11.1c0-1-0.4-1.9-1-2.7c0.4,0,0.7-0.1,1.1-0.1c1.9,0,3.9,0.5,5.5,1.5c2.4,1.5,3.8,4.2,3.6,7.1
		c0,2.8-1,5.6-2.8,7.7c-2,2.2-4.6,3.8-7.5,4.4L661.5,7657.1z M660.6,7636c0.3,0.5,0.4,1,0.4,1.6c0,2-1.7,6.1-4.1,9.9
		c-1.6,2.5-3.1,4.2-3.8,4.2c-0.4,0-0.8-0.4-1.2-0.9c-0.8-1.2-1.3-2.7-1.3-4.2C650.7,7641.6,655.1,7637,660.6,7636L660.6,7636z"/>
	<path id="パス_4084" class="st2" d="M613.4,7529.9c1.1-0.9,2-2.1,2.7-3.4h5.8c0,1.1,0,1.2-0.1,2.4c0,0.3,0.1,0.4,0.7,0.4
		c1.1,0,1.3-0.1,1.4-0.5c0-1.1-0.1-1.6-0.1-2.3h7.5c-0.2,1.5-0.4,2-0.7,2c-0.7-0.1-1.5-0.2-2.2-0.4c-0.2,0-0.4-0.1-0.7-0.1l-0.1,0.4
		c1.8,0.6,2.3,1,2.4,2.1c1.6-0.1,2.3-0.4,2.6-1.1c0.3-0.8,0.5-1.7,0.5-2.6c0.6-0.3,0.8-0.4,0.8-0.5c0-0.1-0.1-0.2-0.3-0.4
		c-0.6-0.5-0.8-0.7-1.5-1.2c-0.5,0.5-0.7,0.7-1.2,1.2h-7v-2.6h5.5v0.5c0,0.3,0.1,0.3,0.7,0.3c1.1,0,1.3-0.1,1.3-0.5
		c-0.1-1.3-0.1-1.8-0.1-3.4c0.7-0.4,1-0.6,1-0.8c0-0.1-0.1-0.2-0.4-0.4c-0.5-0.4-1.1-0.8-1.7-1.1c-0.4,0.4-0.8,0.8-1.1,1.3h-5.2
		v-1.4c1-0.3,1.3-0.4,1.3-0.7c0-0.3-0.1-0.4-3.3-0.6c0.1,0.9,0.2,1.8,0.1,2.8h-4.7l0-1.5c0.9-0.2,1.2-0.4,1.2-0.7
		c0-0.3-0.2-0.4-3.4-0.6c0.1,0.7,0.2,1.5,0.2,2.2c0,0.2,0,0.4,0,0.6H610c-1,0-2.1-0.1-3.1-0.3l0.2,1.2c1-0.2,1.9-0.2,2.9-0.2h5.2
		c0,1.3-0.1,1.7-0.2,2.7h-4.4c-0.9-0.6-1.2-0.7-2-1.2c-0.5,2.2-1.3,4.4-2.4,6.4c0,0.1-0.1,0.2-0.1,0.3c0,0.3,0.4,0.4,1.5,0.4
		c0.4,0,0.5-0.1,0.7-0.4c0.2-0.5,0.3-0.7,0.5-1.3h5.1c-0.6,1.2-1.5,2.2-2.5,3.1c-0.5-0.2-1-0.4-1.5-0.5c0.1,0.6,0.1,1.1,0.1,1.7
		c-1.5,1.2-3.1,2.2-4.8,3l0.3,0.4c1.6-0.5,3.1-1.2,4.6-2.1v3.6c0,2,0,3.2-0.1,5.3v0.1c0,0.3,0.2,0.4,0.8,0.4c1.1,0,1.4-0.1,1.4-0.5
		v-0.7h14.1v0.4c0,0.3,0.1,0.4,0.6,0.4c1.4,0,1.6-0.1,1.6-0.5c-0.1-4.2-0.1-4.2-0.1-9.5c0.6-0.4,0.7-0.4,0.7-0.6
		c0-0.1-0.1-0.2-0.2-0.3c-0.6-0.5-1.1-0.9-1.8-1.3c-0.4,0.4-0.5,0.6-0.9,1L613.4,7529.9z M612.3,7530.6h14.1v2.4h-14.1V7530.6z
		 M626.5,7533.7v2.4h-14.1v-2.4L626.5,7533.7z M626.5,7536.9v2.8h-14.1v-2.8L626.5,7536.9z M621.9,7523.2c0,1.2,0,1.2,0,2.6h-5.5
		c0.3-0.8,0.5-1.7,0.6-2.6H621.9z M615,7523.2c-0.1,0.9-0.3,1.8-0.6,2.6h-5.2c0.5-1.5,0.5-1.5,0.9-2.6H615z M617,7522.4
		c0.1-0.9,0.1-1.2,0.2-2.7h4.7v2.7H617z M623.8,7522.4v-2.7h5.5v2.7H623.8z M605.5,7546.1c3.6-0.4,7.1-1.4,10.4-2.8h0.9
		c0.8,0,1-0.1,1-0.4c0-0.2-0.2-0.3-1.7-0.9c-0.3-0.1-0.8-0.3-1.4-0.6c-1.6,1.5-4.6,2.8-9.3,4.2L605.5,7546.1z M622.4,7542.2
		c3.2,0.7,6.3,1.9,9.2,3.5c0.6,0.4,0.8,0.4,1.1,0.4c0.3,0,0.4-0.2,0.4-0.6c0-1.2-0.8-2.2-2-2.5c-2.8-0.7-5.6-1.2-8.5-1.3
		L622.4,7542.2z M618.7,7571.3v2.9c0,1.3,0,4.8-0.1,6.8c0,0.4,0.2,0.5,0.6,0.5h0.4c1,0,1.2-0.2,1.3-0.7c0-1.2,0-1.2-0.1-2.8
		c0-1.8,0-1.8,0-3.8v-2.9h7.9v8.8c0,0.4-0.1,0.4-0.4,0.4h-0.3c-0.9,0-0.9,0-2.1-0.1c-1.9-0.1-1.9-0.1-3-0.2v0.5
		c3.6,0.4,3.8,0.6,4.3,2.5c1-0.1,1.9-0.4,2.8-0.8c0.6-0.2,1-0.8,1-1.5c-0.1-4.1-0.1-5.3-0.1-8.1V7558c1-0.6,1.2-0.7,1.2-1
		c0-0.1-0.1-0.3-0.4-0.4c-0.9-0.7-1.1-0.9-2-1.5c-0.5,0.5-0.9,1-1.3,1.5h-17.1c-0.8-0.6-1.7-1.1-2.6-1.6c0.1,1.5,0.2,2.5,0.2,4.1
		c0,1.3-0.1,5.7-0.1,7.2c0.1,2.9-0.2,5.7-0.8,8.5c-0.7,3.1-2.1,6.1-4.1,8.5l0.4,0.3c1.9-1.5,3.5-3.5,4.5-5.7c1-2.1,1.7-4.3,2-6.6
		H618.7z M620.9,7570.6v-6.6h7.9v6.6H620.9z M618.7,7570.6H611c0.2-1.9,0.2-3.6,0.2-6.6h7.5V7570.6z M620.9,7563.2v-6h7.9v6H620.9z
		 M618.7,7563.2h-7.5v-2.4c0-1,0-1.7,0-2c0-0.3,0-0.9,0-1.5h7.5V7563.2z M613.4,7594.4c1.3,0.2,2,0.5,2.3,1.2c0.3,0.5,0.3,1,0.4,3.7
		c0.1,2.4,0.1,3.1,0.2,3.9c0.2,1.4,0.4,2.1,0.9,2.4c0.4,0.4,1,0.5,1.5,0.5c-1.4,0.7-2.7,1.6-3.9,2.6c-2.1,1.8-3.1,3.5-3.1,5.4
		c0,2.2,1.4,4.1,3.5,4.7c1.8,0.6,3.6,0.8,5.4,0.7c2.1,0,4.1-0.2,6.1-0.4c1-0.2,1.4-0.5,1.4-1.1c-0.1-0.9-0.8-1.5-1.7-1.6
		c-0.2,0-0.4,0-0.6,0.1c-2.4,0.6-4.9,0.9-7.4,0.9c-3.6,0-5.4-1.2-5.4-3.5c0-1.5,0.8-2.8,2.5-4.1c2-1.5,4.1-2.5,8-3.6
		c0.7-0.2,1.4-0.4,2.1-0.7c0.4-0.1,0.7-0.5,0.7-1c-0.1-0.8-0.8-1.3-1.5-1.3c-0.5,0-0.9,0.1-1.3,0.4c-2.9,1.4-3.6,1.6-4.3,1.6
		c-1,0-1.2-0.5-1.2-2.4c-0.1-2.2,0.2-4.4,0.7-6.5c0.2-0.6,0.3-0.6,0.3-0.8v-0.1c0-0.4-0.3-0.8-0.9-1c-1-0.4-2.1-0.6-3.2-0.6
		C614.3,7593.8,613.8,7594,613.4,7594.4z M627.2,7642.1v0.5c0,0.3,0.1,0.3,0.4,0.3h0.1c0.1,0,0.3,0,0.6,0c0.9,0,1.1-0.1,1.1-0.5
		c-0.1-1.4-0.1-1.5-0.1-3.8c0.8-0.4,0.9-0.5,0.9-0.7c0-0.1-0.1-0.2-0.3-0.4c-0.7-0.6-1-0.7-1.8-1.3c-0.5,0.5-0.7,0.7-1.2,1.2h-6.6
		v-2.5h13.6c0.1,0,0.3-0.1,0.3-0.2c0-0.1-0.1-0.2-0.1-0.3c-0.9-0.8-1.8-1.6-2.7-2.3c-0.8,0.9-1,1.1-1.8,2h-9.2v-2.2
		c1-0.3,1.2-0.4,1.2-0.7c0-0.4-0.2-0.4-3.5-0.8c0.1,1.2,0.2,2.5,0.2,3.7h-10.6c-0.7,0-1.4,0-2.1-0.2l0.1,1.1c0.7-0.1,1.3-0.1,2-0.1
		h10.6v2.5h-6.6c-0.9-0.5-1.2-0.7-2.1-1.2c0,0.9,0,1.1,0,2.2c0,1.8,0,2.8-0.1,4.7c0,0.2,0.1,0.3,0.4,0.3c0.5,0,1-0.1,1.4-0.1
		c0.2-0.1,0.2-0.2,0.2-0.4v-0.8h6.7v2.6h-8.4c-0.6,0-1.2,0-1.8-0.2l0.1,1.1c0.5-0.1,1.1-0.1,1.6-0.1h8.4v3h-11.1
		c-0.7,0-1.3-0.1-2-0.2l0.2,1.1c0.6-0.1,1.2-0.1,1.8-0.1h11.1v3.2h-7.9c-0.7,0-1.5-0.1-2.2-0.3l0.1,1.2c0.7-0.1,1.3-0.2,2-0.2h8v3.6
		c0,0.3-0.1,0.4-0.5,0.4h-0.9c-0.9,0-1.3,0-4.9-0.2v0.5c4.7,0.8,4.9,0.9,5,2.4c2.2-0.5,3-0.8,3.3-1.3c0.2-0.3,0.2-0.5,0.2-1.3
		l-0.1-2.4c0-0.5,0-1.1,0-1.6h7.2v1.8c0,0.2,0.2,0.3,0.5,0.3c0.5,0,1-0.1,1.5-0.2c0.2-0.1,0.2-0.2,0.2-0.4c0-0.8-0.1-2.6-0.1-5.5
		h4.7c0.2,0,0.3-0.1,0.3-0.2c0-0.1-0.1-0.2-0.2-0.3c-1-1-1.3-1.3-2.4-2.2c-0.8,0.8-1,1.1-1.8,1.9h-0.6l0-2.5
		c0.8-0.5,0.9-0.6,0.9-0.8c0-0.1-0.1-0.2-0.3-0.4c-0.8-0.6-1.1-0.8-1.9-1.3c-0.5,0.5-0.7,0.7-1.2,1.2h-7v-2.6H627.2z M627.2,7641.3
		h-6.9v-3.3h6.9V7641.3z M618.2,7641.3h-6.7v-3.3h6.7V7641.3z M627.5,7648.4h-7.3v-3h7.3V7648.4z M627.5,7649.1v3.2h-7.2l0-1.1v-2.1
		H627.5z M621,7678.2c-0.1,1.1-0.4,2.3-0.7,3.4c-0.7,2.4-1.6,4.8-2.8,7c-1.7,3-4,5.7-6.7,8l0.3,0.4c3.1-1.9,5.7-4.4,7.7-7.3
		c2-3,3.2-5.9,4.2-10.7c0.9-0.4,1.1-0.6,1.1-0.8c0-0.2-0.1-0.3-0.3-0.4c-0.8-0.6-1.1-0.8-1.9-1.4c-0.4,0.5-0.6,0.7-1.1,1.2h-4
		c0.6-1.8,1.1-3.6,1.3-5.5h6.7c0.3,0,0.4-0.1,0.4-0.2c0-0.1-0.1-0.2-0.1-0.3c-1-1-1.3-1.3-2.4-2.3c-0.8,0.9-1,1.2-1.7,2h-5.3
		c-1,0-2-0.1-3-0.3l0.3,1.2c0.9-0.1,1.8-0.1,2.8-0.1h0.2c-0.2,2.2-0.7,4.4-1.3,6.5c-0.9,2.9-2.2,5.7-3.8,8.3l0.3,0.3
		c1.6-1.6,2.9-3.4,3.9-5.4c0.8,1.1,1.3,2.3,1.7,3.6c0.3,0.9,0.4,1.1,0.6,1.1c0.5,0,1.2-1.2,1.2-2c-0.1-0.5-0.3-1-0.7-1.3
		c-0.8-0.7-1.6-1.3-2.5-1.8c0.5-1.2,0.9-1.9,1.3-3L621,7678.2z M604.3,7684.4c1.3-1.4,2.5-2.9,3.6-4.5v6.6
		c-0.1,7.9-0.1,7.9-0.1,10.1v0.1c0,0.3,0.1,0.4,0.4,0.4c0.5,0,1-0.1,1.5-0.2c0.2,0,0.3-0.1,0.3-0.3v-2.4c-0.1-6.8-0.1-6.8-0.1-8.1
		v-6.4c0.8-0.2,1-0.3,1-0.5c0-0.3-0.5-0.5-2.2-0.7c1.5-2.7,2.8-5.5,3.7-8.5c1-0.2,1.3-0.3,1.3-0.6c0-0.3-0.4-0.4-3.4-1.1
		c-0.4,2.5-1.1,5-2.1,7.4c-1.1,2.9-2.5,5.8-4.2,8.4L604.3,7684.4z M627.1,7673.7c0.7-0.2,1.1-0.4,1.1-0.7c0-0.3-0.4-0.4-3.1-0.6
		c0.2,1.6,0.2,3.3,0.1,4.9c0,5.2,0,5.9-0.1,12.9c0,0.3,0.1,0.4,0.4,0.4c1.4,0,1.6-0.1,1.7-0.5c0-3.2,0-3.2,0-5.5c0-3.6,0-7.1,0-7.6
		L627.1,7673.7z M623.8,7694.9c2.7,0.3,3,0.4,3.5,0.7c0.6,0.3,1.1,1,1.2,1.7c0.9-0.1,1.8-0.4,2.6-1c0.7-0.4,1.1-1.1,1-1.9v-0.4
		l0-4.8l0-3.4v-15.2c1.1-0.4,1.3-0.5,1.3-0.7c0-0.4-1-0.6-3.6-0.9c0.1,0.9,0.1,1,0.1,2.3v22.7c0,0.5-0.1,0.6-0.4,0.7
		c-1.6,0-1.8,0-4.2-0.2c-0.3,0-0.9,0-1.6-0.1V7694.9z"/>
</g>
</svg>
