<?xml version="1.0" encoding="utf-8"?>
<!-- Generator: Adobe Illustrator 26.0.1, SVG Export Plug-In . SVG Version: 6.00 Build 0)  -->
<svg version="1.1" id="レイヤー_1" xmlns="http://www.w3.org/2000/svg" xmlns:xlink="http://www.w3.org/1999/xlink" x="0px"
	 y="0px" viewBox="0 0 72.4 342.4" style="enable-background:new 0 0 72.4 342.4;" xml:space="preserve">
<style type="text/css">
	.st0{fill:#005748;}
	.st1{fill:#FFFFFF;}
	.st2{fill:#222222;}
</style>
<g id="グループ_3121" transform="translate(-604.184 -9689.5)">
	<g id="syasou" transform="translate(1 -931.76)">
		<path id="パス_1929" class="st0" d="M660.5,10680.1h-41.1c-5.2,0-9.5-4.2-9.5-9.5v-39.9c0-5.2,4.2-9.5,9.5-9.5h41
			c5.2,0,9.5,4.2,9.5,9.5v39.9C670,10675.8,665.8,10680.1,660.5,10680.1z"/>
		<path id="パス_1930" class="st1" d="M625.4,10667.9c0.8,0,1.4-0.7,1.4-1.5c0-1.1-1.1-2.5-4.6-3c1.4-1.5,2.6-3.1,3.6-4.9
			c0.4,0,0.8-0.1,1.2-0.3l-2.5-2.4l-1.5,1.5h-0.8v-4.3c0.8-0.1,1-0.3,1.1-0.6l-3.7-0.3v5.3h-3.7l0.1,0.5h7.2
			c-1.6,4.1-4.2,7.7-7.7,10.4l0.2,0.2c1.4-0.7,2.6-1.5,3.8-2.4v9.3h0.5c0.8,0.1,1.6-0.2,2.2-0.8v-10.5c1.1,1,1.8,2.2,2.2,3.6
			C624.6,10667.7,625,10667.9,625.4,10667.9z"/>
		<path id="パス_1931" class="st1" d="M635.1,10673.4h-1.9v-12h4.3c0.7,0,1-0.1,1.2-0.4l-2.7-2l-1.5,2h-1.4v-8.1
			c0.7-0.1,1-0.3,1.1-0.7l-3.8-0.3v9.1h-4.6l0.1,0.5h4.5v12h-6.1l0.1,0.5h13.6c0.7,0,1-0.1,1.2-0.4l-2.7-2.1L635.1,10673.4z"/>
		<path id="パス_1932" class="st1" d="M656.4,10658.8l-3.2-0.2v4.9c0,2,0.5,2.5,3,2.5h3.9c2.3,0,3.1-0.4,3.1-1.3
			c0-0.3-0.1-0.5-1-0.8l0-1.7H662c-0.8,1.9-1.1,1.9-1.9,1.9h-3.7c-0.7,0-0.8,0-0.8-0.5v-1.4c1.8-0.2,3.6-0.6,5.3-1.1
			c0.2,0.1,0.5,0.1,0.8,0.1c0.2,0,0.4,0,0.6-0.2l-2.3-1.9c-1.4,1-2.8,1.8-4.4,2.4v-2.1C656.2,10659.2,656.4,10659,656.4,10658.8z"/>
		<path id="パス_1933" class="st1" d="M647,10654.9v2.3c2.2,0,2.5-0.6,2.5-0.6v-1.6h5.4v2.1c2.4,0,2.6-0.6,2.6-0.6v-1.5h5.3
			c0.6,0,0.9-0.1,1.1-0.4l-2.5-1.9l-1.3,1.8h-2.6v-1.8c0.7-0.1,0.9-0.2,0.9-0.6l-3.5-0.2v2.6h-5.4v-1.8c0.7-0.1,0.9-0.2,0.9-0.6
			l-3.5-0.2v2.6h-6.3l0.1,0.5L647,10654.9L647,10654.9z"/>
		<path id="パス_1934" class="st1" d="M660.7,10656.1l-1.3,1.6h-17.8l0.1,0.5h4.8c-1.2,2-2.8,3.7-4.8,5l0.1,0.4
			c0.9-0.3,1.8-0.7,2.6-1.2c0.6,0.5,1,1.1,1.3,1.8c0.2,0.2,0.5,0.3,0.9,0.3c-1.6,1.2-3.4,2.1-5.3,2.6l0.2,0.5
			c5.6-0.8,8.2-2.7,10.5-6.2c0.4,0,0.8-0.1,1.1-0.3l-2.3-1.8l-1.2,1.2h-2.1c0.7-0.6,1.4-1.3,2-2.1h12.6c0.7,0,1-0.1,1.2-0.4
			L660.7,10656.1z M649.6,10660.8c-0.6,1.1-1.3,2.1-2.2,2.9c0-0.1,0-0.2,0-0.2c0-0.6-0.6-1.3-2.4-1.5c0.7-0.4,1.3-0.8,1.9-1.3
			L649.6,10660.8L649.6,10660.8z"/>
		<path id="パス_1935" class="st1" d="M661.4,10667.4l-1.4,1.8h-2.3v-2.1c0.6-0.1,0.7-0.2,0.8-0.5l-3.4-0.3v2.9h-5.7v-2.1
			c0.6-0.1,0.8-0.2,0.9-0.5l-3.5-0.3v2.9h-6.2l0.1,0.5h6c-0.1,2-1.3,3.9-5.7,5.2l0.1,0.3c6.3-1,7.9-3.2,8.1-5.5h5.7v5.5
			c2.1,0,2.6-0.6,2.6-0.7v-4.8h5.1c0.7,0,1-0.1,1.2-0.4L661.4,10667.4z"/>
		<path id="パス_1936" class="st1" d="M618.2,10636.7v-3.7h4.2c1.2,0,1.7,0.5,1.7,1.3c0,0.7-0.6,1.1-1.6,1.1h-2v1.7h3.6
			c1.4,0.1,2.6-0.9,2.8-2.3c0,0,0,0,0,0c0-0.2,0-0.4,0-0.6c0-1.8-0.9-2.9-2.7-2.9h-6v-2.4h-2.8v2.4h-1.8v1.7h1.8v4.4
			c0,4.7,4.1,4.6,4.1,4.6h7.1v-1.7c0,0-5.2-0.1-5.6-0.1C619.7,10640.1,618.2,10638.9,618.2,10636.7z"/>
		<path id="パス_1937" class="st1" d="M630.9,10641.7c1.5,0.1,3-0.3,4.1-1.4c2.2-1.8,3.9-4.1,5-6.7h-3c-0.2,0.6-4.1,6.8-6.1,5.7
			c-0.6-0.3-0.6-0.7-0.6-2.5v-7.9h-2.7v8.2C627.6,10641.4,629.8,10641.7,630.9,10641.7z"/>
		<path id="パス_1938" class="st1" d="M653.1,10631.3v-1.7h-12.8v1.7h3.8v2.8h-3.8v1.6h3.8v1.9c0,3.8,1.5,4.4,4.1,4.4h4.4v-1.7
			c0,0-1.9-0.1-2.7-0.1c-1.9,0-3.3-0.5-3.3-2.3v-2.2h6.5v-1.6h-6.5v-2.8H653.1z"/>
		<path id="パス_1939" class="st1" d="M660.3,10637.5c0,3.6-1.8,4.5-3.8,4.5h-2.7v-1.7h2.2c1.1,0,1.7-1.2,1.7-2.9v-3h4.7
			c1.2,0,1.6-0.7,1.6-1.5c0.1-0.8-0.5-1.5-1.3-1.6c-0.1,0-0.2,0-0.3,0h-8.7v-1.7h9.5c4.6,0,4.5,6.5,0.7,6.5h-3.8L660.3,10637.5z"/>
		<path id="パス_1940" class="st1" d="M665.1,10640.6L665.1,10640.6c0.3-0.1,0.4-0.4,0.4-0.6c0-0.4-0.3-0.7-0.8-0.7h-1.2v2.5h0.4
			v-1h0.6c0.4,0,0.5,0.2,0.5,0.7c0,0.1,0,0.3,0.1,0.4h0.5c-0.1-0.2-0.2-0.4-0.1-0.7C665.5,10640.7,665.3,10640.6,665.1,10640.6z
			 M664.7,10640.4h-0.7v-0.8h0.7c0.2,0,0.4,0.1,0.4,0.4C665.1,10640.2,665,10640.4,664.7,10640.4
			C664.7,10640.4,664.7,10640.4,664.7,10640.4L664.7,10640.4z"/>
		<path id="パス_1941" class="st1" d="M664.4,10638.4c-1.2,0-2.1,0.9-2.1,2.1c0,1.2,0.9,2.1,2.1,2.1c1.2,0,2.1-0.9,2.1-2.1l0,0
			C666.6,10639.4,665.6,10638.4,664.4,10638.4C664.5,10638.4,664.5,10638.4,664.4,10638.4L664.4,10638.4z M664.4,10642.3
			c-1,0-1.8-0.8-1.8-1.8c0-1,0.8-1.8,1.8-1.8c1,0,1.8,0.8,1.8,1.8l0,0C666.3,10641.5,665.5,10642.3,664.4,10642.3
			C664.5,10642.3,664.5,10642.3,664.4,10642.3L664.4,10642.3z"/>
		<rect id="長方形_1490" x="613.2" y="10647.3" class="st1" width="53.7" height="0.6"/>
	</g>
	<path id="パス_4073" class="st2" d="M646.4,9790.4c2.8-1.4,5.3-3.1,7.6-5.2c2.8-2.5,5.3-5.4,7.2-8.7c1.5,2.9,3.4,5.6,5.7,7.9
		c2,2.2,4.4,3.9,7,5.2c0.7-1.5,1.2-2,2.5-2.1l0.1-0.4c-3-0.8-5.8-2.1-8.3-4c-2.7-1.8-4.9-4.2-6.6-6.9c0.9-0.2,1.2-0.4,1.2-0.6
		c0-0.3-0.4-0.4-2.1-0.8c-0.4-0.1-0.9-0.2-1.6-0.3c-0.1,0.5-0.3,1.1-0.6,1.6c-1,1.9-2.2,3.6-3.5,5.3c-2.5,3.3-5.6,6.2-9,8.5
		L646.4,9790.4z M654.2,9787c0.7-0.1,1.4-0.2,2.1-0.2h10.9c0.4,0,0.4,0,0.4-0.2c0-0.1-0.1-0.2-0.3-0.4c-1.2-1-1.5-1.2-2.7-2.1
		c-0.7,0.8-1,1.1-1.7,1.9h-6.7c-0.8,0-1.6-0.1-2.4-0.3L654.2,9787z M654,9801.2h13.5v1.5c0,0.3,0.2,0.4,0.5,0.4
		c0.5,0,1.1-0.1,1.6-0.2c0.2-0.1,0.3-0.2,0.3-0.4v-0.1c-0.1-5-0.1-5-0.1-9.6c0.8-0.3,1.1-0.5,1.1-0.7c0-0.1-0.1-0.2-0.3-0.4
		c-0.9-0.7-1.2-1-2-1.6c-0.5,0.5-0.9,1.1-1.3,1.6h-12.9c-0.8-0.6-1.7-1.1-2.6-1.6c0.1,1.2,0.1,2.4,0.1,4.9c0,1.3,0,2.9-0.1,7.9
		c0,0.4,0.1,0.4,0.4,0.4c0.6,0,1.1-0.1,1.7-0.2c0.2-0.1,0.2-0.2,0.2-0.4V9801.2z M654,9792.3h13.5v8.2H654V9792.3z M651.3,9815.4
		h19.6v22.4c0,0.3-0.1,0.4-0.4,0.4h-0.2c-1.9-0.1-1.9-0.1-5.9-0.2v0.5c2.8,0.4,3,0.4,3.5,0.7c0.5,0.3,0.8,0.6,1.1,1.8
		c1.1-0.1,2.2-0.4,3.2-0.9c0.6-0.2,1-0.9,1-1.5v-2.6c-0.1-5.5-0.1-5.5-0.1-6.6v-13c0.3-0.2,0.5-0.4,0.6-0.4c0.1-0.1,0.1-0.1,0.2-0.1
		c0.3-0.2,0.4-0.3,0.4-0.4s-0.1-0.3-0.4-0.4c-0.7-0.6-1.5-1.1-2.2-1.6c-0.5,0.7-0.7,0.9-1.2,1.6h-18.8c-1.2-0.6-1.6-0.8-2.8-1.4
		c0.1,1.6,0.1,6.3,0.1,12.4c0,4.5-0.1,11.5-0.2,14.9c0,0.4,0.2,0.5,0.8,0.5c1.3,0,1.7-0.1,1.7-0.6c-0.1-5.1-0.1-5.1-0.1-7.7V9815.4z
		 M653.2,9820.9c0.9-0.2,1.8-0.3,2.7-0.3h13.2c0.2,0,0.3-0.1,0.4-0.3c0-0.1-0.1-0.2-0.2-0.3c-1.1-1-1.5-1.3-2.6-2.2
		c-0.5,0.7-1.1,1.4-1.6,2.1h-9c-1.1,0-2.2-0.2-3.2-0.4L653.2,9820.9z M657.4,9832.7h7.3v1.9c0,0.4,0.2,0.5,0.6,0.5
		c1.2,0,1.6-0.1,1.6-0.6c-0.1-1.7-0.1-3.2-0.1-6c0-0.6,0-1.5,0-2.7c0.7-0.6,0.9-0.8,0.9-1c0-0.1-0.1-0.2-0.3-0.4
		c-0.6-0.5-1.3-1-2-1.4c-0.5,0.6-0.7,0.8-1.2,1.4h-6.5c-0.8-0.5-1.7-0.9-2.6-1.2c0.1,1.3,0.1,2.8,0.1,6c0,2,0,3.3-0.1,5.8v0.1
		c0,0.3,0.2,0.4,0.7,0.4c0.4,0,0.9-0.1,1.3-0.2c0.2-0.1,0.3-0.3,0.3-0.4L657.4,9832.7z M657.4,9825.1h7.3v6.8h-7.3V9825.1z
		 M664.9,9858.4H675c0.2,0,0.4-0.1,0.4-0.2c0-0.1-0.1-0.2-0.1-0.3c-1.2-1-1.5-1.3-2.8-2.3c-0.9,0.9-1.1,1.2-2,2h-20.4
		c-1,0-2-0.1-2.9-0.3l0.2,1.2c0.9-0.2,1.8-0.2,2.7-0.2h3.7c-0.6,1.1-1.4,2.2-2.3,3.1c-1.5,1.7-3.2,3.3-5.1,4.5l0.3,0.4
		c1.8-0.8,3.5-1.8,4.9-3c1,0.7,1.8,1.5,2.5,2.5c0.2,0.3,0.3,0.3,0.5,0.4c-2.5,1.9-5.3,3.3-8.3,4.3l0.2,0.5c2.6-0.5,5.1-1.4,7.4-2.7
		c2.8-1.4,5.2-3.6,6.8-6.2c1.1-0.4,1.2-0.4,1.2-0.6c0-0.1-0.1-0.2-0.3-0.4c-0.7-0.6-0.9-0.7-1.7-1.3c-0.6,0.5-0.7,0.6-1.3,1.1h-4.5
		c0.7-0.8,1.4-1.6,2-2.6h6.6v8.2c0.1,1.6,0.4,1.7,5.5,1.7c6,0,6.8-0.2,6.8-1.2c0-0.4-0.3-0.7-0.7-0.8c-0.6-0.2-0.6-0.2-0.6-0.4v-0.7
		l0.2-2.5l-0.4,0c-0.4,1.2-0.9,2.4-1.4,3.6c-0.2,0.3-0.4,0.4-1.6,0.4h-1.3c-0.8,0-1.3,0-1.6,0c-0.9,0-2.4-0.1-2.6-0.1
		c-0.3-0.1-0.4-0.2-0.4-0.6v-1.8c2.3-0.5,4.6-1.3,6.8-2.4c0.4,0,1,0,1.2,0c0.4,0,0.6-0.1,0.6-0.3c0-0.2-0.4-0.5-2.7-1.7
		c-1.7,1.6-3.7,2.9-5.8,3.8V9858.4z M658.9,9861.7c-1,1.6-2.2,3-3.6,4.2c0.2-0.3,0.3-0.6,0.3-0.9c0-0.5-0.4-0.8-1.4-1.2
		c-0.6-0.2-1.3-0.4-2-0.5c0.6-0.5,1-0.8,1.6-1.4L658.9,9861.7z M657.6,9853.3v-1.6c1.1-0.3,1.3-0.4,1.3-0.6c0-0.3-0.4-0.4-1.9-0.5
		c-0.4,0-0.9-0.1-1.6-0.2c0.1,0.7,0.1,1.4,0.1,2c0,0.3,0,0.5,0,0.9h-6.1c-0.9,0-1.9-0.1-2.8-0.3l0.2,1.2c0.8-0.1,1.7-0.2,2.6-0.2
		h6.1c0,0.6,0,0.9-0.1,2c0,0.2,0.1,0.3,0.3,0.3c0.6,0,1.2,0,1.7-0.2c0.1-0.1,0.1-0.1,0.1-0.3c0-0.4-0.1-0.6-0.1-0.8l0-0.6v-0.4h6.1
		c0,0.6,0,1-0.1,2c0,0.2,0.1,0.3,0.4,0.3c1.4,0,1.7-0.1,1.8-0.4c0-0.9,0-1.2,0-1.8h9.8c0.2,0,0.3-0.1,0.3-0.2c0-0.1-0.1-0.2-0.1-0.3
		c-1.3-1.1-1.7-1.4-3-2.4c-0.9,0.9-1.2,1.2-2,2.1h-4.9c0-0.4,0-0.4,0-1.6c1.1-0.3,1.3-0.4,1.3-0.6c0-0.3-0.8-0.4-3.6-0.7
		c0.1,0.9,0.2,1.8,0.2,2.7c0,0.1,0,0.2,0,0.3H657.6z M649.8,9871.7c-0.9,0-1.8,0-2.7-0.2l0.2,1.2c0.8-0.2,1.7-0.2,2.5-0.2h5.8
		c-0.2,1.4-0.8,2.8-1.8,3.8c-1.4,1.4-3.3,2.3-7,3.2l0.1,0.5c3.9-0.4,6.7-1.4,8.6-3.2c1.2-1.1,2-2.7,2.1-4.3h6v2.1
		c0,1.6,0,2.5-0.1,4.7c0,0.3,0.1,0.4,0.4,0.4c0.6,0,1.1,0,1.7-0.2c0.1-0.1,0.2-0.2,0.2-0.3c-0.1-3.7-0.1-3.9-0.1-4.7v-2h9.7
		c0.1,0,0.3-0.1,0.3-0.2c0-0.1-0.1-0.2-0.1-0.3c-1.2-1.1-1.6-1.4-2.9-2.4c-0.9,0.9-1.1,1.2-2,2.1h-4.9v-1.4c1.1-0.4,1.1-0.5,1.1-0.7
		c0-0.3-0.3-0.3-3.3-0.6c0.1,0.9,0.1,1.8,0.1,2.7h-5.9c0.1-0.4,0.1-0.5,0.2-1.5c1-0.4,1.2-0.4,1.2-0.6c0-0.2-0.5-0.4-1.9-0.6
		c-0.4,0-0.9-0.1-1.5-0.2c0.1,0.5,0.1,0.9,0.1,1.4c0,0.5,0,1-0.1,1.6L649.8,9871.7z M654.7,9903.2l-1.7,4.5
		c-0.3,0.9-0.7,1.8-1.2,2.7c-0.5-1.4-0.7-2.8-0.6-4.2c0-1.3,0.1-2.7,0.4-4c0.4-1.7,1-3.5,1.7-5.1c0.6-1.3,0.7-1.4,0.7-1.9
		c-0.1-0.9-0.5-1.8-1.2-2.5c-0.9-1.1-1.4-1.5-2.1-1.6c0.6,0.9,0.9,1.9,0.9,3c0,1-0.2,2-0.4,3c-0.5,2-0.9,4-1.1,6
		c-0.2,1.1-0.2,2.3-0.3,3.4c0,2.3,0.3,4.6,1.1,6.8c0.4,0.9,0.8,1.3,1.4,1.3c0.3,0,0.7-0.2,0.8-0.5c0.1-0.5,0.1-0.9,0.1-1.4
		c0-1.2,0.2-2.3,0.5-3.4c0.9-3.7,1.4-5.7,1.4-6L654.7,9903.2z M658.8,9895.2c1.1,1.2,2.7,1.9,4.4,1.8c0.3,0,0.6,0,1.3-0.1
		c-0.5,0.4-1.6,1.3-3,2.5l0.3,0.3c1.3-0.9,2.7-1.6,4.1-2.3c1.5-0.6,3-0.9,4.5-1.1c0.7-0.1,0.9-0.3,0.9-0.7s-0.3-0.8-1-1.2
		c-0.3-0.2-0.7-0.4-1.1-0.4c-0.2,0-0.3,0-0.7,0.3c-2,0.9-4.2,1.4-6.4,1.4c-1.1,0-2.1-0.3-3-0.9L658.8,9895.2z M658.6,9904.9
		c-0.3,0.8-0.4,1.7-0.4,2.5c-0.1,1.6,0.6,3.1,1.7,4.2c1.4,1.3,4.3,2,8.3,2c1.3,0.1,2.7-0.1,4-0.4c0.4-0.2,0.7-0.4,0.7-0.8
		c-0.2-1-1-1.7-2-1.9c-0.2,0-0.3,0-0.5,0.1c-0.5,0.3-1.1,0.4-1.7,0.5c-0.9,0.2-1.8,0.2-2.7,0.2c-5,0-7-1.4-7-5c0-0.4,0-0.9,0.1-1.3
		L658.6,9904.9z M669.3,9942.5c0.1,0,0.1-0.1,0.2-0.2c0-0.1-0.1-0.2-0.1-0.3c-0.9-0.9-1.2-1.1-2.2-1.9c-0.7,0.7-0.9,0.9-1.6,1.6
		h-2.8c0.1-0.1,0.3-0.2,0.4-0.3c2.2-1.8,2.2-1.8,2.9-2.3c0.2,0,0.4,0,0.5,0c0.5,0,0.8-0.1,0.8-0.3c0-0.2-0.3-0.4-1.7-0.9
		c-0.3-0.1-0.7-0.3-1.3-0.5c-0.3,0.9-0.8,1.7-1.3,2.5c-0.3,0.6-0.7,1.2-1.1,1.7h-3.7c0.4-0.5,0.7-1,0.8-1.6c0-0.6-1.1-1.4-3.9-2.7
		l-0.3,0.3c0.9,0.9,1.7,2,2.3,3.1c0.1,0.3,0.3,0.6,0.4,0.9h-2.4c-0.8,0-1.6-0.1-2.3-0.3l0.3,1.2c0.7-0.1,1.4-0.2,2-0.2h4.4
		c0.1,1.1,0,2.3-0.2,3.4h-5c-0.8,0.1-1.7,0-2.5-0.2l0.3,1.1c0.7-0.1,1.5-0.2,2.3-0.2h4.8c-0.2,0.7-0.4,1.3-0.7,1.9
		c-1.1,1.7-2.5,3.1-4.3,4c-1,0.6-2.1,1.1-3.3,1.3l0.2,0.4c2.1-0.4,4.2-1.1,6-2.3c1.5-0.8,2.7-2,3.4-3.5c0.6,0.3,1.2,0.6,1.7,1
		c1.5,1.1,3,2.4,4.3,3.7c0.8,0.9,0.9,1,1.2,1s0.4-0.3,0.5-0.6c0.6,0.2,1.2,0.5,1.7,0.9c0.4,0.3,0.6,0.8,0.7,1.3c2-0.4,2.5-0.6,3-1.1
		c0.4-0.4,0.5-0.7,0.5-1.6c0-3.1,0-3.7,0-8v-16c0.8-0.6,1-0.7,1-1c0-0.1-0.1-0.3-0.4-0.5c-0.7-0.5-1-0.7-1.7-1.3
		c-0.5,0.6-0.7,0.8-1.2,1.5h-6.8c-0.7-0.5-1.5-1-2.3-1.5c0.1,1.8,0.1,2.6,0.1,5.3c0,2.4,0,3.3-0.1,5.3c0,0.4,0.2,0.4,0.7,0.4
		c1.2,0,1.6-0.1,1.6-0.5v-0.5h6.8v16.6c0,0.4-0.1,0.4-0.4,0.4c-1.1,0-2.1-0.1-3.2-0.2v-0.4c0-1.2-0.4-1.7-2.2-2.5
		c-1.2-0.5-2.9-1.2-5.3-2.1c0.2-0.5,0.2-0.7,0.4-1.4h8.7c0.1,0,0.2-0.1,0.2-0.2c0-0.1-0.1-0.2-0.2-0.3c-0.9-0.9-1.2-1.2-2.3-2.1
		c-0.7,0.8-1,1-1.8,1.8h-4.6c0.1-1.2,0.2-1.4,0.3-3.4L669.3,9942.5z M671.9,9935.5h-6.8v-3.2h6.8L671.9,9935.5z M671.9,9931.6h-6.8
		v-3.1h6.8L671.9,9931.6z M656.9,9936.3v0.9c0,0.3,0.1,0.4,0.5,0.4c1.2,0,1.6-0.1,1.6-0.5c-0.1-2-0.1-2.9-0.1-4.7v-3.4
		c0.7-0.3,1.1-0.5,1.1-0.8c0-0.1-0.1-0.2-0.4-0.4c-0.8-0.6-1.1-0.8-1.9-1.5c-0.4,0.5-0.8,1-1.3,1.5H650c-1-0.7-1.3-0.9-2.4-1.5
		c0.2,2.3,0.2,3.6,0.2,14c0,9.2,0,10.8-0.2,15.1c0,0.3,0.1,0.4,0.6,0.4c1.2,0,1.6-0.1,1.6-0.5v-19L656.9,9936.3z M656.9,9935.5h-7.1
		v-3.2h7.1V9935.5z M656.9,9931.6h-7.1v-3.1h7.1V9931.6z M656.3,9993c1.8-0.7,3.4-1.8,4.8-3c2.2-2.1,3.5-5.1,3.5-8.1
		c0-1.5-0.3-3-1-4.3c0-0.5,0-0.9,0-1.1c0-1.2,0.1-3.1,0.2-4.4c1.3-0.1,2.2-0.1,3.4-0.1c1.6,0,3.3,0.1,4.9,0.3
		c0.6,0.1,1.1,0.2,1.7,0.2c0.5,0,0.7-0.2,0.7-0.5c0-0.4-0.2-0.7-0.5-0.9c-0.8-0.6-1.7-1-2.7-1.2c-0.4,0-0.8,0.2-1.2,0.4
		c-0.8,0.3-1.2,0.4-4.3,0.6c-1.2,0.1-1.2,0.1-2.1,0.2c0-1.1,0.3-2.1,0.7-3.1c0.3-0.5,0.3-0.6,0.3-0.9c0-0.4-0.4-0.9-1.2-1.1
		c-1-0.3-2.1-0.5-3.1-0.4c-0.9,0-1.1,0.1-1.5,0.6c1.6,0.2,2.4,0.7,2.8,1.6c0.3,1.2,0.4,2.4,0.4,3.6c-3.3,0.4-4.4,0.5-8.2,1.1
		c-0.9,0.2-1.8,0.3-2.8,0.3c-1.2,0-2.4-0.6-3.1-1.6c-0.1,0.1-0.1,0.2-0.2,0.4c0.2,0.9,0.6,1.7,1.3,2.3c0.5,0.6,1.2,1.1,2,1.2
		c0.3,0,0.5-0.1,0.7-0.2c0.7-0.4,1.4-0.6,2.1-0.9c2.6-0.8,5.3-1.3,8.1-1.6c0,0.2,0,0.4,0,0.6c0,1,0,2.8,0,3.3
		c-0.5-0.4-1.2-0.5-1.8-0.5c-2.4,0-4.1,2.1-4.1,4.9c0,2.6,1.7,4.6,3.9,4.6c0.7,0,1.4-0.2,2-0.6c-0.8,3.4-2.4,5.5-6.1,8L656.3,9993z
		 M662.2,9980.4c0,2-0.7,3-2,3c-1.5,0-2.6-1.5-2.6-3.5c0-2,1.1-3.5,2.6-3.5C661.5,9976.5,662.2,9977.7,662.2,9980.4L662.2,9980.4z
		 M663.8,10006.8c0.1,0,0.1,0,0.2-0.1h0.1c0,0,0,0,0,0c0,0,0,0,0,0c0,0,0.1,0.1,0.1,0.1c-0.1,0.2-0.2,0.4-0.3,0.5
		c-2.5,3.3-3.7,4.7-7.6,9.1c-2.7,3-3.2,3.5-4.4,4.4c-0.4,0.3-0.6,0.7-0.7,1.1c0,1,0.6,2.1,1.1,2.1c0.3,0,0.5-0.2,1.1-0.9
		c2.7-3.4,7-6,10.2-6c1.1,0,2.2,0.2,3.2,0.6c1.3,0.9,2.1,2.4,2,4c0.1,2.6-1.5,5-3.9,6c-0.3-0.7-0.8-1.4-1.4-2
		c-1.1-1-2.6-1.6-4.1-1.6c-2,0-3.5,1.2-3.5,2.7c0,2,2,3.2,5.2,3.2c5.8,0,10-3.4,10-8c0-3.6-2.8-6-6.8-6c-2.7,0-5.3,0.9-8.7,3
		l-0.1-0.1c0.7-0.7,0.7-0.7,3.7-4c1.5-1.6,2.7-2.8,4.7-4.8c0.7-0.9,1.6-1.6,2.7-2.1c0.4-0.2,0.5-0.4,0.5-0.6c0-0.4-0.2-0.7-1-1.4
		c-0.8-0.8-1.3-1.1-1.7-1.1c-0.2,0-0.3,0.1-0.4,0.2c-0.6,0.5-1.2,0.9-2,1c-2,0.6-4,1.1-6,1.4c-1.1,0-1.9-0.8-2.4-2.3
		c-0.2,0.2-0.3,0.5-0.3,0.8c0.1,0.9,0.4,1.7,0.9,2.4c0.6,0.9,1.2,1.3,1.8,1.3c0.5-0.1,0.9-0.2,1.3-0.4c2.2-1,5.2-2.1,6.5-2.5
		L663.8,10006.8z M662.6,10028.5c-0.7,0.2-1.5,0.3-2.3,0.3c-2.2,0-3.6-0.8-3.6-2c0-1,0.8-1.6,2-1.6
		C660.6,10025.3,662.2,10026.6,662.6,10028.5z"/>
	<path id="パス_4071" class="st2" d="M614.8,9776.6c2.1,0.4,2.6,0.9,2.8,2.7c0.3,2.1,0.3,2.1,0.4,15c-0.5,0-1,0-1.2,0
		c-1.6,0-3.1,0.2-4.6,0.8c-2,0.8-3.1,2-3.1,3.5c0,2.1,2.1,3.5,5.5,3.5c1.1,0,2.2-0.2,3.3-0.5c1.4-0.4,2.4-1.7,2.3-3.2
		c0-0.6,0-0.6-0.1-2.1c2.7,0.7,5.2,2.1,7.2,4.1c0.4,0.3,0.5,0.4,0.8,0.4c0.4,0,0.6-0.4,0.6-1.2c0-1.1-0.6-2-2-2.8
		c-2.1-1.2-4.4-2-6.7-2.3c-0.2-2.1-0.4-5.8-0.4-8.4v-1.4c0.6,0.6,1.3,0.8,2.1,0.8c1.5-0.1,3-0.4,4.4-1c1.5-0.5,1.9-0.8,1.9-1.3
		c0-0.3-0.2-0.5-0.7-0.8c-0.4-0.2-0.9-0.4-1.4-0.4c-0.2,0-0.4,0.1-0.7,0.4c-1.4,1-3.1,1.7-4.9,1.9c-0.3,0-0.6-0.1-0.9-0.4v-0.6
		c0-1.6,0.2-3.1,0.6-4.6c0.3-0.6,0.3-0.6,0.3-0.9c0-0.6-0.5-1.1-1.6-1.4c-0.8-0.2-1.7-0.4-2.6-0.4
		C615.7,9776.1,615.2,9776.3,614.8,9776.6z M618,9795.9c0,2.2-0.1,2.8-0.5,3.4c-0.6,0.8-2.1,1.3-4,1.3c-2.3,0-3.6-0.7-3.6-2
		c0-1.6,2.4-2.7,5.7-2.7C616.6,9795.8,617,9795.8,618,9795.9z M618.1,9813.4c1.3,0.9,1.8,1.3,1.8,1.9c0,0.8-1,2.1-4.8,6.8
		c-2,2.4-2.5,3.3-2.5,4.3c0.1,1,0.5,2,1.2,2.7c1.7,1.8,3.2,3.8,4.7,5.8c1,1.4,1.9,2.9,2.7,4.5c0.5,1.2,0.7,1.3,1.1,1.3
		c0.7,0,1.1-0.7,1.1-1.9c0-0.7-0.1-1.5-0.5-2.1c-0.8-1.5-2.4-3.3-5.9-6.5c-0.8-0.7-1.5-1.4-2.2-2.1c-0.5-0.4-0.9-1-1-1.7
		c0-0.6,0.4-1.3,1.5-2.6c1.9-1.9,3.8-3.8,5.9-5.5c1.7-1.4,1.9-1.6,1.9-2c0-0.4-0.2-0.8-0.7-1.3c-1-0.9-2.2-1.5-3.6-1.7
		C618.6,9813.2,618.3,9813.3,618.1,9813.4z M608.5,9855.8c1,2,3.1,3.1,5.3,2.9c0.3,0,0.6,0,1.2-0.1c-0.2,1.8-0.3,2.3-0.3,2.8
		c-0.2,1.9-0.2,1.9-0.2,2.4c-1.6,0.6-3,1.5-4.3,2.6c-2,1.7-3,3.4-3,5c0,0.7,0.2,1.4,0.6,1.9c0.2,0.4,0.4,0.8,0.6,1.2
		c0.4,1.1,0.8,1.5,1.5,1.5c1.3,0,3.5-1.2,5.5-3c0.8,2,1.3,2.8,1.9,2.8c0.4,0,0.7-0.6,0.7-1.5c0-0.5-0.1-0.9-0.4-1.3
		c-0.3-0.4-0.6-0.9-0.8-1.3c1.3-1.2,2.5-2.6,3.4-4.2c0.9-1.4,1.6-2.8,2-4.4c1.3,0.1,2.6,0.5,3.7,1.1c1.5,1,2.4,2.7,2.3,4.5
		c0,4.4-3.6,7.8-10.1,9.4l0.1,0.5c7.5-0.6,12.5-4.3,12.5-9.2c0.1-1.9-0.7-3.8-2.2-5.1c-1.8-1.4-4-2.2-6.2-2.3c-0.2-1-1-1.8-2-1.9
		c-0.1,0-0.2,0-0.4,0.1c0.8,0.7,1,1.2,1,1.8v0.2c-1.7,0.1-3.5,0.4-5.1,1c0.1-1.6,0.3-3.2,0.6-4.8c2.2-0.3,4.3-0.8,6.4-1.5
		c2.1-0.7,2.8-1.1,2.8-1.7c0-0.3-0.2-0.6-0.5-0.7c-0.5-0.2-1-0.2-1.5-0.3c-0.3,0-0.6,0.1-0.8,0.4c-1.1,0.9-3,1.6-6,2.3
		c0.1-1,0.5-2,1-2.9c0.4-0.5,0.4-0.5,0.4-0.8c0-0.5-0.4-0.9-1.2-1.3c-0.9-0.4-1.8-0.7-2.8-0.7c-0.3,0-0.7,0.1-0.9,0.4
		c1.6,0.5,2.1,1,2.1,2.1c0,0.5-0.2,2.1-0.4,3.6c-0.6,0.1-1.2,0.2-1.9,0.2c-1.7,0.2-3.4-0.5-4.5-1.9L608.5,9855.8z M614.6,9865v1.2
		c0,1.7,0.1,3.5,0.5,5.2c-1.8,1.5-3.7,2.6-4.8,2.6c-0.7,0-1.2-0.8-1.2-2c0-1.1,0.4-2.1,1-3C611.1,9867.4,612.2,9866.4,614.6,9865z
		 M616,9864.4c1.6-0.7,3.3-1.1,5-1.2c-0.9,2.6-2.5,5-4.6,6.9c-0.3-1.5-0.5-3.1-0.4-4.7V9864.4z M621.8,9892.8c0.1,0,0.1,0,0.2-0.1
		h0.1c0,0,0,0,0,0c0,0,0,0,0,0c0,0,0.1,0.1,0.1,0.1c-0.1,0.2-0.2,0.4-0.3,0.5c-2.5,3.3-3.7,4.7-7.6,9.1c-2.7,3-3.2,3.5-4.4,4.4
		c-0.4,0.3-0.6,0.7-0.7,1.1c0,1,0.6,2.1,1.1,2.1c0.3,0,0.5-0.2,1.1-0.9c2.7-3.4,7-6,10.2-6c1.1,0,2.2,0.2,3.2,0.6
		c1.3,0.9,2.1,2.4,2,4c0.1,2.6-1.5,5-3.9,6c-0.3-0.7-0.8-1.4-1.4-2c-1.1-1-2.6-1.6-4.1-1.6c-2,0-3.5,1.2-3.5,2.7c0,2,2,3.2,5.2,3.2
		c5.8,0,10-3.4,10-8c0-3.6-2.8-6-6.8-6c-2.7,0-5.3,0.9-8.7,3l-0.1-0.1c0.7-0.7,0.7-0.7,3.7-4c1.5-1.6,2.7-2.8,4.7-4.8
		c0.7-0.9,1.6-1.6,2.6-2.1c0.4-0.2,0.5-0.4,0.5-0.6c0-0.4-0.2-0.7-1-1.4c-0.8-0.8-1.3-1.1-1.7-1.1c-0.2,0-0.3,0.1-0.4,0.2
		c-0.6,0.5-1.2,0.9-2,1c-2,0.6-4,1.1-6,1.4c-1.1,0-1.9-0.8-2.4-2.3c-0.2,0.2-0.3,0.5-0.3,0.8c0.1,0.9,0.4,1.7,0.9,2.4
		c0.6,0.9,1.2,1.3,1.8,1.3c0.5-0.1,0.9-0.2,1.3-0.4c2.2-1,5.2-2.1,6.5-2.5L621.8,9892.8z M620.6,9914.5c-0.7,0.2-1.5,0.3-2.3,0.3
		c-2.2,0-3.6-0.8-3.6-2c0-1,0.8-1.6,2-1.6C618.6,9911.3,620.2,9912.6,620.6,9914.5z M610.8,9931.4c0.6,0.8,1.4,1.4,2.2,1.9
		c1.1,0.5,2.4,0.8,3.6,0.9c0.6,0,1.7,0,2.4-0.1l-0.6,0.4l-2.1,1.1c-0.9,0.5-1.4,0.8-2.3,1.3l0.2,0.5c5.1-2.1,6.8-2.8,8.5-3.2
		c2.1-0.4,2.3-0.6,2.3-1.1c-0.2-0.9-1-1.6-1.9-1.7c-0.2,0-0.4,0.1-0.6,0.1c-2.2,0.6-4.4,0.9-6.7,1c-1.7,0.1-3.5-0.4-4.9-1.4
		L610.8,9931.4z M609.6,9943.6c-0.3,0.9-0.5,1.8-0.5,2.7c0,2,1,3.9,2.7,5c1.6,1.1,3.9,1.5,7.5,1.5c2.5,0,5-0.2,7.5-0.6
		c0.7-0.2,1-0.5,1-1c-0.1-0.5-0.3-0.9-0.7-1.1c-0.5-0.4-1.1-0.6-1.8-0.6c-0.2,0-0.4,0-0.5,0.1c-2.3,0.8-4.7,1.2-7.1,1.2
		c-5.2,0-7.6-1.8-7.6-5.6c0-0.4,0-0.7,0.1-1.4L609.6,9943.6z M625.3,9928.6c1,1,1.8,2.1,2.4,3.4c1,2.1,1,2.1,1.4,2.1
		c0.5,0,1-0.6,1-1.3c0-0.8-0.4-1.5-1.6-2.6c-0.9-0.8-1.8-1.4-2.8-2L625.3,9928.6z M628.6,9926.8c1.4,1.3,2.6,2.9,3.5,4.6
		c0.3,0.4,0.4,0.6,0.7,0.6c0.5,0,0.8-0.5,0.8-1.3c0-0.9-0.4-1.5-1.7-2.5c-0.9-0.7-2-1.3-3-1.8L628.6,9926.8z M619,9970.5
		c0.1,0,0.2-0.1,0.2-0.2c0,0,0-0.1-0.1-0.1c-0.9-0.9-1.2-1.2-2.1-2c-0.7,0.7-0.9,0.9-1.5,1.6H609c0-0.4,0-1,0-1.5v-0.4
		c2.6-0.3,5.2-0.8,7.7-1.5c0.6,0.1,0.9,0.1,1.1,0.1c0.4,0,0.5-0.1,0.5-0.3c0-0.3-0.6-0.7-2.7-2c-0.5,0.5-1.2,0.9-1.8,1.2
		c-1.4,0.7-3,1.3-4.5,1.7c-0.7-0.6-1.5-1.1-2.4-1.5c0.1,0.9,0.1,1.3,0.1,2c0.1,1.6-0.1,3.2-0.4,4.8c-0.4,1.6-1.2,3.1-2.4,4.4
		l0.4,0.3c2.4-1.5,4-3.9,4.4-6.7h4.1c0,3.2,0,3.2-0.1,4.4v0.1c0,0.2,0.2,0.3,0.5,0.3c0.5,0,1,0,1.4-0.2c0.1-0.1,0.1-0.2,0.1-0.4
		v-0.7c0-0.9,0-2.1,0-3.5L619,9970.5z M625.9,9970.5v0.4c0,0.1,0,0.5,0,1c0,1.5,0,1.5,0,2.4c0,0.3,0.2,0.4,0.4,0.4
		c0.5,0,1-0.1,1.5-0.2c0.1-0.1,0.1-0.1,0.1-0.3c0-1.9,0-3.1,0-3.6h5.9c0.1,0,0.2-0.2,0.2-0.3c0-0.1-0.1-0.1-0.1-0.2
		c-1-0.9-1.3-1.2-2.3-2c-0.9,0.9-0.9,0.9-1.6,1.7H622c0.1-0.4,0.1-0.6,0.2-1.4c0-0.1,0-0.3,0-0.5c3-0.3,5.9-0.8,8.8-1.6
		c0.4,0.1,0.9,0.2,1.3,0.2c0.2,0,0.4-0.1,0.4-0.3c0-0.3-0.9-1-2.8-2c-0.6,0.5-1.2,0.9-2,1.2c-1.7,0.8-3.5,1.4-5.3,1.8
		c-0.8-0.6-1.6-1.1-2.4-1.5c0,0.6,0,0.7,0,1.2c0,1.7-0.2,3.3-0.6,5c-0.5,1.5-1.1,2.3-3,3.7l0.2,0.3c1.7-0.6,3.2-1.7,4.2-3.1
		c0.4-0.6,0.7-1.3,0.9-2.1L625.9,9970.5z M605.1,9993.6c3.8-0.4,7.6-1.4,11-3c0.2,0,0.4,0,0.7,0h0.3c0.4,0,0.7-0.1,0.7-0.3
		c0-0.4-0.7-0.6-3.1-1.4c-1.6,1.5-5.3,3.1-9.7,4.1L605.1,9993.6z M621.5,9989.6c2.1,0.7,2.8,0.9,3.5,1.1c1.6,0.6,3.1,1.3,4.6,2.1
		c1,0.6,1,0.6,1.3,0.6c0.3,0,0.6-0.3,0.6-0.6c0,0,0-0.1,0-0.1c0-1-0.6-1.9-1.5-2.3c-2.8-0.6-5.6-1-8.4-1.3L621.5,9989.6z
		 M612.4,9988.1h13.5v0.8c0,0.2,0.1,0.3,0.4,0.3c0.5,0,1,0,1.5-0.2c0.3-0.1,0.3-0.1,0.3-0.4l0,0c-0.1-2.3-0.1-6-0.1-11
		c0.7-0.4,1-0.6,1-0.9c0-0.1-0.1-0.2-0.3-0.4c-0.8-0.6-1.1-0.7-1.9-1.3c-0.4,0.5-0.5,0.7-0.9,1.2h-13.3c-0.8-0.4-1.6-0.8-2.5-1.2
		c0.1,1.5,0.2,3,0.2,4.5c0,4.1,0,6.8-0.2,9.4c0,0.3,0.2,0.4,0.5,0.4c0.5,0,1.1-0.1,1.6-0.2c0.1-0.1,0.2-0.2,0.2-0.4L612.4,9988.1z
		 M612.4,9979.6v-2.7h13.5v2.7H612.4z M625.9,9980.3v3h-13.5v-3H625.9z M625.9,9984.1v3.2h-13.5v-3.2H625.9z M614.8,10013v1.3
		c0,0.3,0.1,0.3,0.4,0.3c1.3,0,1.6-0.1,1.7-0.5c0-3.7,0-3.7,0-5.9v-2.9c0.8-0.3,1-0.5,1-0.7c0-0.1-0.1-0.2-0.3-0.4
		c-0.8-0.7-1-0.9-1.8-1.5c-0.5,0.6-0.7,0.8-1.2,1.4h-6.4c-1-0.6-1.3-0.8-2.3-1.4c0.1,1.6,0.1,4.5,0.1,13c0,9.2,0,13.1-0.1,15.8
		c0,0.3,0.2,0.4,0.6,0.4c0.5,0,1-0.1,1.4-0.3c0.1-0.1,0.1-0.1,0.1-0.4v-18.4H614.8z M614.8,10012.2h-6.9v-3.6h6.9V10012.2z
		 M614.8,10007.9h-6.9v-3.1h6.9V10007.9z M630.1,10013v15.6c0,0.4-0.1,0.5-0.5,0.5c-2.3-0.1-3.1-0.1-5.8-0.4v0.5
		c2.9,0.5,3.3,0.6,3.8,0.9c0.6,0.3,0.8,0.7,0.9,1.6c1-0.2,2-0.5,2.9-1c0.6-0.5,0.9-1.2,0.8-2c0-1.8,0-1.8,0-3.7v-19.6
		c0.9-0.5,1-0.7,1-0.9c0-0.1-0.1-0.2-0.3-0.4c-0.6-0.5-1.2-1-1.8-1.5c-0.4,0.4-0.9,0.9-1.4,1.4h-6.9c-0.9-0.6-1.1-0.8-2-1.4
		c0,1.2,0,1.7,0,3.1c0,5.4,0,5.4,0,8.4c0,0.3,0.1,0.4,0.5,0.4c1.2,0,1.5-0.1,1.5-0.4v-1.2L630.1,10013z M630.1,10012.2h-7.3v-3.6
		h7.3V10012.2z M630.1,10007.9h-7.3v-3.1h7.3V10007.9z M614.9,10025.2h7.9v1.6c0,0.3,0.1,0.4,0.5,0.4c0.5,0,1-0.1,1.5-0.2
		c0.2-0.1,0.3-0.1,0.3-0.3c-0.1-2.5-0.1-2.5-0.1-7.6c0.7-0.4,1-0.6,1-0.8c0-0.1-0.1-0.2-0.3-0.4c-0.7-0.6-0.9-0.8-1.6-1.4
		c-0.6,0.6-0.6,0.6-1.2,1.4h-7.6c-1-0.7-1.4-0.9-2.5-1.6c0.1,1.3,0.1,1.6,0.1,4.6c0,3,0,4.2-0.1,6.7c0,0.3,0.2,0.4,0.5,0.4
		c0.5,0,0.9-0.1,1.4-0.1c0.2-0.1,0.3-0.1,0.3-0.4L614.9,10025.2z M614.9,10018.6h7.9v5.9h-7.9V10018.6z"/>
</g>
</svg>
