<?xml version="1.0" encoding="UTF-8"?><svg xmlns="http://www.w3.org/2000/svg" viewBox="0 0 28.8 376.09"><defs><style>.d{fill:none;}.d,.e{stroke:#000;stroke-miterlimit:10;stroke-width:.28px;}</style></defs><g id="a"/><g id="b"><g id="c"><path class="e" d="M7.45,106.37c1.35,.33,2.85,.9,4.05,1.59,.99,.57,1.38,1.17,1.38,2.1,0,.75-.3,1.44-.66,1.44-.03,0-.24-.12-.33-.18-.18-.15-.21-.18-.75-.99-.93-1.29-2.01-2.31-3.69-3.42v6.45q.03,5.49,.09,6.9c-.09,.39-.33,.51-1.08,.51h-.39c-.45,0-.57-.06-.66-.3,0-.33,.03-2.64,.09-6.96v-5.22c-1.47,1.5-2.67,2.46-4.74,3.81l-.33-.45c1.95-1.62,3.33-3.06,5.01-5.31,1.68-2.25,2.64-3.87,3.69-6.15H3.1c-.66,0-1.11,.03-2.13,.15l-.21-1.11c.81,.18,1.65,.27,2.34,.27h2.4v-3.15c0-1.2-.03-1.59-.24-2.61,.66,.06,1.17,.12,1.5,.15,1.44,.12,1.83,.21,1.83,.51,0,.24-.24,.39-1.14,.69v4.41h1.68c.6-.69,.81-.87,1.44-1.5,.81,.66,1.05,.87,1.77,1.5,.27,.3,.33,.39,.33,.48,0,.24-.15,.3-1.5,.6-1.26,2.25-2.07,3.45-3.72,5.49v.3Zm6.24-1.53c-.63,0-1.2,.06-2.4,.21l-.24-1.14c1.23,.21,1.68,.24,2.64,.24h4.26v-6.78c0-1.56-.03-2.34-.21-3.75,.63,.09,1.26,.15,1.56,.18,1.56,.15,1.92,.27,1.92,.54,0,.24-.33,.45-1.2,.78v9.03h3.09l1.74-2.25c1.26,1.05,1.65,1.38,2.85,2.49,.06,.06,.12,.18,.12,.21,0,.12-.15,.24-.3,.24h-7.5v13.59h3.66c.81-.99,1.08-1.32,2.01-2.34,1.23,1.05,1.59,1.41,2.79,2.61,.09,.06,.15,.18,.15,.21,0,.12-.15,.21-.3,.21H12.64c-1.23,0-1.74,.03-2.85,.21l-.27-1.14c1.05,.15,2.04,.24,3.12,.24h5.31v-13.59h-4.26Z"/><path class="e" d="M18.28,140.09c2.43-1.17,4.02-2.19,5.46-3.57,2.16,1.17,2.55,1.41,2.55,1.62,0,.18-.21,.27-.57,.27-.12,0-.69-.03-1.08-.03-2.04,.99-4.05,1.71-6.36,2.25v1.71c0,.42,.06,.51,.36,.57,.21,.03,1.65,.09,2.46,.09,.27,0,.72,0,1.5-.03h1.23c1.14,0,1.29-.03,1.47-.33,.21-.33,.84-1.89,1.35-3.33l.36,.03-.18,2.37v.69q0,.15,.54,.36c.42,.12,.63,.36,.63,.72,0,.99-.81,1.14-6.39,1.14-4.83,0-5.1-.09-5.16-1.62v-7.68h-6.18c-.72,1.11-1.11,1.62-1.83,2.4h4.23c.51-.48,.66-.6,1.2-1.05,.69,.54,.9,.69,1.56,1.23,.21,.18,.27,.27,.27,.36,0,.18-.15,.24-1.17,.57-1.98,2.88-3.57,4.35-6.42,5.85-2.1,1.11-4.11,1.83-6.96,2.49l-.15-.48c3.48-1.26,5.7-2.4,7.8-4.02-.24-.03-.3-.09-.48-.33-.72-1.05-1.59-1.92-2.31-2.34-1.95,1.53-2.88,2.1-4.62,2.85l-.27-.42c1.86-1.2,3.09-2.31,4.77-4.2,.99-1.14,1.53-1.86,2.13-2.91h-3.51c-1.29,0-1.5,0-2.55,.18l-.21-1.17c.93,.21,1.71,.3,2.76,.3H23.62c.78-.84,1.02-1.11,1.83-1.92,1.14,.93,1.47,1.23,2.58,2.19,.06,.09,.12,.18,.12,.24,0,.12-.12,.18-.33,.18h-9.54v4.77Zm-1.02-9.54c0-.15,.03-.21,.03-.24,0-1.32-.06-1.98-.15-2.52,2.58,.27,3.33,.42,3.33,.69,0,.21-.24,.33-1.26,.6q-.03,1.14-.03,1.47h4.62c.84-.9,1.11-1.17,1.92-1.98,1.2,.96,1.59,1.26,2.82,2.25,.06,.09,.12,.18,.12,.24,0,.12-.12,.18-.3,.18h-9.18c0,.63,0,.9,.03,1.71-.03,.36-.3,.42-1.65,.42-.3,0-.36-.06-.36-.27,.03-.96,.06-1.29,.06-1.86h-5.76v.36l-.03,.54c0,.18,.03,.39,.06,.78,0,.18-.03,.24-.12,.3-.12,.09-.78,.15-1.62,.15-.18,0-.27-.06-.3-.24,.06-1.02,.09-1.35,.09-1.89H3.85c-1.26,0-1.5,.03-2.4,.15l-.21-1.08c.84,.18,1.44,.24,2.61,.24h5.73c.03-.33,.03-.6,.03-.84,0-.81-.03-1.14-.12-1.92,.63,.09,1.17,.15,1.5,.18,1.44,.15,1.77,.24,1.77,.51,0,.21-.27,.33-1.26,.6v1.47h5.76Zm-7.5,17.22c.06-.6,.09-.96,.09-1.47,0-.48-.03-.75-.12-1.29,.63,.09,1.11,.18,1.44,.21,1.29,.18,1.8,.33,1.8,.54s-.15,.27-1.11,.6c-.09,.9-.09,1.02-.15,1.41h5.55c0-1.5-.03-1.53-.12-2.52,2.88,.27,3.12,.3,3.12,.57,0,.21-.06,.24-1.05,.66v1.29h4.59c.81-.93,1.05-1.2,1.86-2.01,1.23,.93,1.59,1.23,2.76,2.25,.06,.09,.12,.18,.12,.24,0,.09-.15,.21-.27,.21h-9.09v1.83c0,.75,0,.93,.06,4.41,0,.15-.06,.21-.15,.27-.15,.09-.93,.18-1.59,.18-.27,0-.36-.09-.36-.33,.09-2.01,.12-2.85,.12-4.38v-1.98h-5.64c-.39,2.04-.93,3.12-2.01,4.08-1.86,1.65-4.41,2.58-8.1,2.97l-.12-.45c3.51-.87,5.28-1.68,6.57-3.03,.87-.9,1.38-1.95,1.68-3.57H4.18c-1.11,0-1.56,.03-2.34,.18l-.21-1.08c.87,.18,1.38,.21,2.55,.21h5.58Zm-1.98-9.36c-.57,.57-.87,.84-1.47,1.35,.57,.09,1.11,.24,1.86,.51,1.02,.39,1.35,.66,1.35,1.17,0,.36-.09,.6-.24,.87,1.47-1.23,2.34-2.25,3.39-3.9H7.78Z"/><path class="e" d="M14.41,182.77c3.24-.96,5.31-2.19,7.02-4.17,1.77-2.01,2.67-4.47,2.67-7.23,0-2.91-1.17-5.22-3.39-6.63-1.32-.87-3.3-1.38-5.19-1.38-.36,0-.57,0-1.05,.06,.72,1.05,.93,1.62,.93,2.49,0,2.34-1.68,6.72-3.96,10.38-1.89,3-3.36,4.47-4.47,4.47-.51,0-.99-.24-1.32-.63-.27-.36-.33-.48-.84-1.92-.27-.78-.45-1.14-1.32-2.82-.48-.96-.69-1.77-.69-2.73,0-1.89,1.02-4.11,2.7-5.94,2.43-2.58,6.39-4.2,10.32-4.2,3.03,0,5.82,.99,7.74,2.76,1.92,1.77,2.88,4.14,2.88,7.05,0,3.75-2.19,7.08-5.97,9.09-1.74,.93-3.3,1.41-5.85,1.86l-.21-.51Zm-9.87-9.33c0,1.44,.45,2.91,1.2,3.96,.42,.54,.81,.87,1.14,.87,.66,0,2.1-1.62,3.57-3.96,2.22-3.54,3.81-7.41,3.81-9.27,0-.45-.09-.75-.42-1.5-5.22,.93-9.3,5.28-9.3,9.9Z"/><path class="e" d="M17.26,196.72c.21,4.14,.81,7.32,1.89,10.08,1.47-2.76,2.52-5.64,2.73-7.56,2.73,.66,3.24,.81,3.24,1.14,0,.24-.3,.36-1.35,.63-1.29,3.54-2.16,5.28-3.78,7.68,1.17,2.28,2.16,3.39,4.65,5.37,1.08-1.92,1.5-2.73,2.94-5.76l.36,.09-1.47,5.67c-.15,.54-.18,.69-.18,.9,0,.24,.03,.3,.39,.75,.24,.3,.36,.57,.36,.87,0,.54-.39,.9-.93,.9-.9,0-2.25-.9-4.02-2.67-1.32-1.32-2.34-2.67-3.27-4.35-.9,1.14-1.8,2.07-2.97,3.09-1.95,1.71-3.45,2.67-6.3,4.11l-.24-.39c2.37-1.65,3.6-2.7,5.49-4.71,1.32-1.38,2.28-2.52,3.15-3.84-1.38-3.21-2.22-6.96-2.67-12H5.8c-.03,2.67-.06,3.63-.15,5.43h5.16c.51-.57,.66-.75,1.17-1.32,.81,.57,1.05,.75,1.8,1.32,.27,.27,.33,.36,.33,.45,0,.21-.3,.42-1.11,.81-.36,4.53-.66,6.72-1.08,8.01-.24,.66-.69,1.2-1.29,1.47-.54,.24-.99,.36-2.25,.54-.3-1.11-.36-1.26-.69-1.53-.39-.3-.84-.45-2.37-.75l.03-.45c2.19,.24,3.54,.36,4.02,.36,.54,0,.69-.18,.93-1.17,.3-1.32,.6-4.5,.66-7.05H5.59c-.18,2.94-.36,4.47-.72,6.12-.45,2.07-1.23,4.14-2.19,5.85-.51,.96-.99,1.62-2.1,2.97l-.39-.24c1.44-2.52,2.07-4.23,2.64-7.11,.57-2.97,.81-6.54,.81-12.09,0-1.74-.03-2.52-.15-3.93,1.11,.63,1.44,.84,2.52,1.62H15.25c-.09-.96-.12-1.47-.15-2.28-.09-2.16-.09-2.43-.21-3.45,.57,.06,1.05,.12,1.35,.15,1.62,.15,2.01,.24,2.01,.51,0,.24-.18,.36-1.05,.75-.03,.84-.03,1.5-.03,1.92,0,.9,0,1.44,.06,2.4h5.67c.78-.93,1.02-1.2,1.77-2.07,1.2,.99,1.56,1.29,2.64,2.34,.09,.09,.12,.15,.12,.24s-.15,.18-.27,.18h-9.9Zm1.59-5.61c1.74,.27,2.91,.63,3.84,1.08,.6,.33,.9,.87,.9,1.71,0,.63-.27,1.14-.63,1.14-.21,0-.39-.12-.69-.51-.84-1.11-1.8-1.98-3.54-3.12l.12-.3Z"/><path class="e" d="M7.66,242.08c2.61-.78,3.48-1.08,5.61-1.92l.24,.39c-1.95,1.14-3.51,1.95-5.67,2.94q-.63,.3-3.39,1.47-.69,.27-1.5,.63c-.03,.24-.06,.42-.06,.54-.09,.57-.21,.84-.36,.84-.09,0-.27-.15-.39-.3-.12-.18-.33-.66-.54-1.17l-.3-.9-.33-.9c1.41-.21,1.92-.33,4.62-1.05v-12.99H3.19c-.99,0-1.35,.03-2.22,.18l-.15-1.14c.75,.21,1.38,.27,2.31,.27h5.88c.69-.87,.9-1.14,1.59-1.98,1.17,.93,1.5,1.23,2.67,2.22,.06,.09,.09,.18,.09,.24,0,.09-.18,.21-.33,.21H7.66v12.42Zm9.33-9.48c.09-1.47,.18-3.93,.18-5.46,0-.9-.03-1.32-.15-2.34,3.18,.42,3.57,.51,3.57,.84,0,.27-.39,.51-1.26,.78-.15,3.87-.18,4.71-.3,6.18h5.49l1.38-1.53c.84,.63,1.11,.84,1.86,1.53,.21,.21,.3,.3,.3,.42,0,.21-.03,.21-1.11,.81-.24,5.64-.27,6.33-.6,9-.51,4.14-1.02,6.06-1.92,7.2-.72,.9-1.47,1.26-3.3,1.47-.15-.9-.45-1.32-1.23-1.71-.51-.24-.75-.3-3.6-.84v-.45q.93,.09,3.39,.33c.45,.06,1.83,.15,2.13,.15,1.11,0,1.44-.42,1.89-2.4,.69-2.91,1.05-6.99,1.17-13.29h-5.88c-.54,5.49-1.59,8.73-3.84,11.7-1.56,2.07-3.66,3.78-6.15,5.1-1.08,.57-1.86,.93-3.6,1.56l-.21-.45c2.34-1.14,3.75-2.07,5.52-3.69,2.94-2.7,4.68-5.61,5.52-9.33,.33-1.38,.54-2.94,.69-4.89h-3.42c-.78,0-1.29,.03-2.37,.12l-.21-1.02c.69,.15,1.56,.21,2.58,.21h3.48Z"/><path class="e" d="M9.13,270.15c-.06,.27-.51,2.16-1.35,5.64-.42,1.77-.51,2.25-.51,3.18,0,.87-.03,1.11-.09,1.29-.12,.33-.39,.51-.72,.51-.51,0-.96-.42-1.29-1.23-.66-1.56-1.05-3.99-1.05-6.39,0-.9,.09-2.01,.24-3.21q.21-1.74,1.05-5.67c.3-1.41,.42-2.16,.42-2.79,0-.99-.24-1.74-.84-2.82,.66,.03,1.2,.42,2.01,1.47,.75,.93,1.11,1.71,1.11,2.37,0,.48-.03,.6-.63,1.8-.6,1.26-1.32,3.36-1.62,4.77-.27,1.14-.39,2.43-.39,3.72,0,1.65,.15,2.7,.57,3.96,.51-1.05,.75-1.65,1.08-2.55l1.59-4.2,.42,.15Zm3.78,1.5c-.06,.6-.09,.87-.09,1.26,0,3.3,1.89,4.65,6.54,4.65,.87,0,1.74-.06,2.55-.21q.63-.09,1.59-.48c.18-.06,.33-.09,.45-.09,.78,0,1.89,1.05,1.89,1.77,0,.36-.24,.6-.66,.75-.63,.21-2.07,.33-3.75,.33-3.75,0-6.42-.63-7.77-1.83-1.08-.99-1.62-2.25-1.62-3.9,0-.75,.09-1.41,.36-2.37l.51,.12Zm-.06-9.54c1.05,.63,1.71,.81,2.79,.81,1.86,0,4.77-.66,6.03-1.35,.39-.21,.45-.24,.66-.24,.24,0,.63,.15,1.05,.42,.63,.36,.93,.72,.93,1.11s-.21,.57-.84,.69c-1.98,.3-3.09,.57-4.26,1.05-.93,.39-2.67,1.35-3.87,2.13l-.3-.3c1.35-1.14,2.37-1.98,2.85-2.34-.63,.03-.96,.06-1.23,.06-1.68,0-2.79-.45-4.08-1.68l.27-.36Z"/><path class="e" d="M23.68,293.97c.45-.66,.6-.84,1.08-1.44,.93,.6,1.2,.81,2.07,1.44,.24,.18,.33,.3,.33,.42,0,.18-.18,.33-1.08,.87v11.25c0,.45,0,1.17,.03,2.07,.03,1.83,.03,2.1,.03,3.63-.12,.84-.36,1.23-1.14,1.71-.57,.36-1.14,.51-2.85,.81q-.36-1.71-4.53-2.43v-.45q1.29,.06,3.24,.15,1.29,.06,2.46,.09c.45-.03,.63-.21,.63-.57v-16.86H5.35v14.64c0,.99,0,1.38,.03,4.71-.06,.48-.42,.63-1.5,.63-.48,0-.63-.06-.69-.36q.12-4.26,.12-12.54,0-7.29-.15-9.21c1.23,.57,1.59,.75,2.67,1.44h4.41c1.11-2.55,1.59-3.96,2.1-6.18,.6,.18,1.14,.33,1.44,.42,2.1,.6,2.25,.66,2.25,.93,0,.3-.18,.36-1.53,.6-1.47,2.04-2.01,2.76-3.39,4.23h12.57Zm-5.85,4.95c.42-.51,.54-.66,.96-1.14,.81,.51,1.05,.66,1.8,1.2,.18,.18,.24,.27,.24,.33,0,.15-.27,.42-.75,.84,0,4.17,.03,6.84,.06,7.95-.06,.42-.42,.57-1.47,.57-.42,0-.57-.06-.63-.33v-1.38h-6.9v1.5c-.03,.45-.33,.57-1.41,.57-.42,0-.57-.12-.57-.45,.06-1.32,.06-2.1,.06-8.25,0-.84-.03-1.44-.09-2.55,1.05,.48,1.35,.63,2.4,1.14h6.3Zm-6.69,7.35h6.9v-6.66h-6.9v6.66Z"/><path class="e" d="M9.79,333.21c-1.29,5.31-1.83,8.04-1.83,9.09v.33c.03,.24,.03,.36,.03,.48,0,.96-.24,1.41-.75,1.41-.45,0-.9-.39-1.26-1.08-.96-1.86-1.44-4.47-1.44-7.77,0-2.22,.15-3.66,.66-6.81,.39-2.19,.48-3.03,.48-3.72,0-.93-.36-1.86-1.08-2.88,.66,.03,1.26,.42,1.98,1.17,.87,.96,1.32,1.77,1.32,2.4,0,.39-.03,.57-.42,1.65-1.02,2.85-1.56,5.7-1.56,8.34,0,2.22,.21,3.63,.72,4.68,.36-.9,2.16-5.79,2.7-7.41l.45,.12Zm2.4-4.95c1.35,.96,2.07,1.2,3.48,1.2,1.23,0,2.97-.24,4.32-.63v-1.05c0-2.49-.09-3.69-.36-4.2-.3-.6-1.14-1.05-2.55-1.38,.45-.39,.66-.45,1.65-.45,2.16,0,3.6,.6,3.6,1.5,0,.12-.06,.42-.15,.72-.3,1.11-.33,1.47-.39,4.32,1.62-.51,1.98-.69,2.73-1.29,.21-.15,.36-.21,.63-.21,.96,0,1.8,.42,1.8,.9,0,.36-.21,.54-1.05,.96-.96,.45-1.89,.75-4.08,1.32v4.41c0,4.74-.81,7.17-3.06,9.54-1.32,1.35-2.64,2.34-4.56,3.27l-.24-.39c2.19-1.71,3.24-2.85,4.23-4.62,1.41-2.46,1.89-5.13,1.89-10.29v-1.53c-1.35,.27-2.4,.39-3.48,.39-2.01,0-3.36-.6-4.71-2.13l.3-.36Z"/><path class="e" d="M3.79,357.71c.42,.39,.75,.51,1.35,.51,.84,0,1.59-.15,8.31-1.77,1.26-.3,2.88-.66,4.86-1.05,2.28-.45,3.15-.66,4.05-.96,.6-.18,.81-.24,1.05-.24,.36,0,1.02,.27,1.62,.63,.6,.39,.87,.72,.87,1.14,0,.45-.36,.75-.93,.75-.12,0-.33,0-.54-.03-.39-.06-.54-.06-.84-.06-5.13,0-10.08,4.89-10.08,9.93,0,2.76,1.38,4.8,3.96,5.91,.99,.42,2.19,.69,3.06,.72,.6,0,.81,.09,1.26,.48,.54,.54,.9,1.08,.9,1.44,0,.51-.45,.84-1.11,.84-1.71,0-4.41-.96-6.09-2.16-2.28-1.62-3.48-3.93-3.48-6.72,0-2.43,1.2-5.1,3.27-7.32,1.2-1.32,2.4-2.13,4.89-3.42-2.73,.39-5.19,.96-8.61,2.07-1.89,.6-3.84,1.41-4.8,1.92-.6,.36-.81,.42-1.2,.42-.72,0-1.62-.69-2.31-1.77-.48-.72-.78-1.53-.78-2.01,0-.24,.06-.42,.33-.78,.27,.72,.51,1.11,.99,1.53Z"/><line class="d" x1="15.14" x2="15.14" y2="45"/></g></g></svg>