<?xml version="1.0" encoding="UTF-8"?><svg xmlns="http://www.w3.org/2000/svg" viewBox="0 0 176.19 50.06"><defs><style>.d{fill:#42210b;}</style></defs><g id="a"/><g id="b"><g id="c"><g><g><path class="d" d="M69.03,22.69c-.48,2.83-.5,2.9-.89,4.2-.6,1.94-1.39,3.6-2.42,5.06,1.7,1.42,3.53,2.28,6.1,2.83v.26c-.7,.24-1.08,.58-1.61,1.42-.19,.31-.36,.67-.5,1.08-.07,.22-.17,.29-.29,.29s-.29-.07-.67-.34c-1.78-1.1-2.98-2.23-4.3-3.98-2.14,2.42-3.91,3.46-8.14,4.78l-.1-.26c3.5-1.85,4.97-3.14,7.08-6.26-1.06-1.87-1.54-3.24-2.16-6.5-.58,.79-1.15,1.46-1.85,2.16l.26,.22c.12,.12,.17,.19,.17,.26,0,.19-.26,.41-.77,.62v2.26q0,.74,.02,3.58v1.32c-.05,.24-.12,.36-.21,.43-.24,.12-1.1,.24-1.97,.24-.24,0-.34-.12-.36-.38v-.5h-3.77v1.44c0,.19-.05,.26-.17,.34-.19,.1-1.15,.19-1.92,.19-.36,0-.5-.1-.53-.38q0-.53,.07-2.14c.02-.48,.02-1.7,.02-3.55,0-3.5,0-3.74-.1-5.35,1.3,.6,1.7,.82,2.95,1.51h.36v-5.16h-2.38c-.48,0-.91,.02-1.9,.1l-.1-.77c.62,.1,1.39,.17,1.99,.17h2.38v-2.76c0-1.06-.02-1.58-.14-2.71,.82,.1,1.44,.17,1.85,.22,1.34,.14,1.95,.31,1.95,.58,0,.24-.34,.43-1.13,.62v4.06h.89c.62-.77,.84-1.01,1.54-1.75,.91,.82,1.2,1.08,2.09,1.94,.1,.07,.14,.12,.14,.19s-.05,.12-.12,.12h-4.54v5.16h.55c.5-.62,.65-.82,1.22-1.37,.65,.48,.86,.65,1.32,1.01,1.08-1.97,1.44-2.88,2.16-5.38,.58-1.97,.91-3.86,.98-5.52,3.82,.79,3.94,.84,3.94,1.15,0,.24-.29,.38-1.06,.53-.79,2.02-1.3,3.17-1.92,4.25h4.18c.72-.86,.96-1.15,1.7-1.99,1.15,.91,1.51,1.22,2.62,2.18,.05,.07,.07,.14,.07,.17,0,.07-.07,.14-.17,.14h-2.45Zm-16.37,12.26h3.77v-6.94h-3.77v6.94Zm10.13-12.26c-.53,.91-.79,1.32-1.32,2.06,.77,2.69,1.32,3.86,2.66,5.54,1.22-2.5,1.82-4.61,2.11-7.61h-3.46Z"/><path class="d" d="M75.27,37.98c3-2.23,4.58-4.03,6.12-6.98,1.37-2.62,2.18-5.3,2.54-8.62,.14-1.27,.26-3.02,.26-4.1,0-.48-.02-.74-.07-1.37,.84,.1,1.51,.17,1.92,.19,1.71,.19,2.18,.31,2.18,.6,0,.19-.22,.34-1.01,.62-.02,.36-.02,.65-.02,.84,0,1.61,.34,3.62,.96,5.62,1.03,3.29,2.69,5.74,5.18,7.61,1.44,1.08,2.57,1.63,4.56,2.3l-.02,.24c-1.22,.41-1.75,.98-2.45,2.54-.1,.24-.19,.31-.31,.31-.46,0-2.52-1.8-3.62-3.12-1.63-1.99-2.83-4.54-3.65-7.68-.53-2.06-.74-3.5-.94-6.34-.26,3.98-.77,6.24-1.99,8.81-1.44,3.02-3.65,5.5-6.46,7.2-.79,.5-1.49,.84-3.07,1.56l-.12-.24Z"/><path class="d" d="M111.36,36.2c2.57-.79,4.37-1.85,5.81-3.41,1.61-1.73,2.4-3.84,2.4-6.31,0-4.1-2.5-6.55-6.62-6.55-.31,0-.5,0-.96,.05,.84,.98,1.1,1.63,1.1,2.57,0,1.92-1.22,5.28-2.95,8.18-1.56,2.59-2.95,3.91-4.15,3.91-.53,0-1.03-.29-1.3-.7-.19-.36-.34-.7-.55-1.58-.14-.58-.34-.91-1.03-1.78-.58-.72-.94-1.78-.94-2.76,0-1.51,.77-3.34,2.02-4.8,2.06-2.45,5.47-3.94,9.05-3.94,5.35,0,9.17,3.38,9.17,8.14,0,3.48-1.92,6.26-5.4,7.87-1.49,.7-3.02,1.1-5.54,1.44l-.1-.34Zm-4.49-13.66c-1.66,1.66-2.57,3.7-2.57,5.71,0,1.66,.82,3.36,1.63,3.36s2.38-1.99,3.94-4.94c1.2-2.26,1.92-4.25,1.92-5.3,0-.26-.02-.58-.1-.79-.05-.19-.17-.53-.19-.53-1.94,.43-3.24,1.13-4.63,2.5Z"/><path class="d" d="M127.04,26.07c.58,.12,1.15,.19,1.49,.19h1.66c.53-.65,.7-.84,1.27-1.46,.89,.6,1.18,.79,2.02,1.42,.19,.17,.24,.26,.24,.36,0,.12-.05,.22-.22,.36t-.34,.19-.19,.12v5.76c.43,.82,.77,1.2,1.37,1.51,.98,.53,2.26,.72,4.61,.72,3.65,0,7.22-.17,10.97-.53l.02,.26c-1.13,.6-1.49,1.1-1.66,2.26-.07,.43-.12,.46-1.82,.46-1.82,0-6.27-.05-6.84-.07-4.46-.24-5.83-1.13-7.2-4.56-.84,1.22-2.42,3.22-3.26,4.08,.05,.24,.07,.48,.07,.55,0,.31-.14,.55-.34,.55-.14,0-.24-.1-.41-.34-.34-.55-1.01-1.92-1.51-3.07,.96-.26,1.49-.53,3.41-1.66v-6.41h-1.85c-.46,0-.72,.02-1.25,.14l-.24-.84Zm1.03-9.46c3.58,1.54,4.82,2.54,4.82,3.91,0,1.18-.74,2.26-1.56,2.26-.43,0-.65-.24-.82-.82-.58-2.23-1.27-3.6-2.62-5.16l.17-.19Zm11.09,3c.38-1.2,.62-2.35,.72-3.65,3.29,.62,3.84,.77,3.84,1.01,0,.29-.41,.46-1.18,.55-.22,.19-.34,.29-.46,.41-.74,.7-1.37,1.27-1.85,1.68h4.1c.58-.65,.74-.84,1.34-1.49,.91,.62,1.18,.82,2.09,1.49,.14,.17,.19,.22,.19,.31s-.07,.19-.22,.31t-.38,.24c-.1,.07-.12,.07-.24,.17v1.03c0,1.39,.02,2.18,.07,3.26-.05,.46-.43,.55-1.99,.55-.53,0-.65-.07-.65-.41v-.74h-6.43v3.02h6.65c.6-.6,.79-.79,1.34-1.37,.91,.58,1.2,.77,2.06,1.42,.12,.14,.17,.24,.17,.31,0,.24-.12,.34-.84,.79,0,1.37,0,1.82,.02,2.52,.02,1.15,.02,1.85,.02,2.11v.02c-.02,.58-.05,.62-.24,.72-.24,.12-.74,.17-1.73,.17-.48,0-.6-.07-.62-.38v-1.03h-6.82v.98c-.02,.48-.26,.58-1.37,.58-1.22,0-1.34-.05-1.37-.48q0-.55,.07-1.94c.02-.91,.05-3.82,.05-7.58,0-3.46-.02-4.61-.12-6.19,1.27,.65,1.66,.84,2.9,1.61h.84Zm5.4,4.22v-3.72h-6.43v3.72h6.43Zm.41,8.3v-4.27h-6.84l.02,4.27h6.82Z"/><path class="d" d="M155.45,20.38c.29,1.22,.36,1.78,.36,2.81,0,2.47-.62,4.03-1.63,4.03-.62,0-1.08-.77-1.08-1.82,0-.43,.14-.67,.62-1.13,1.03-.96,1.37-1.87,1.44-3.89h.29Zm2.5-4.03c1.61,.14,1.94,.24,1.94,.53,0,.22-.21,.36-.98,.6,.02,7.37,.07,17.21,.1,20.16,0,.48-.29,.55-1.9,.55-.67,0-.82-.07-.82-.48,.05-2.93,.12-10.44,.12-13.73,0-5.06-.02-6.43-.17-7.8,.72,.07,1.34,.14,1.7,.17Zm1.34,3.82c1.78,1.27,2.4,2.06,2.4,3.1,0,.94-.65,1.85-1.27,1.85-.34,0-.5-.29-.5-.89-.02-1.82-.22-2.74-.84-3.94l.22-.12Zm12.12,1.94c.58-.6,.74-.79,1.37-1.39,.77,.58,1.01,.74,1.75,1.34,.21,.17,.29,.26,.29,.38,0,.19-.19,.36-.77,.65v2.16c0,2.18,0,2.9,.02,4.94,0,.5-.26,.6-1.9,.6-.58,0-.7-.1-.7-.48v-.77h-2.33v3.12h2.81c.72-.82,.96-1.03,1.7-1.78,1.08,.82,1.39,1.06,2.38,1.9,.1,.12,.14,.19,.14,.24,0,.1-.12,.14-.31,.14h-6.72c.02,1.61,.02,1.82,.07,4.46-.02,.48-.26,.58-1.71,.58-.84,0-1.03-.1-1.03-.46v-.07c.05-1.01,.05-1.39,.07-4.51h-4.73c-.53,0-1.13,.05-1.63,.17l-.17-.89c.74,.17,1.2,.22,1.8,.22h4.73v-3.12h-2.28v.67c0,.55-.21,.65-1.61,.65-.91,0-1.01-.05-1.01-.5,.05-1.7,.07-4.08,.07-6.38,0-1.27-.02-2.35-.1-3.38,1.32,.58,1.7,.79,2.93,1.51h1.78v-3.7c0-.89-.02-1.34-.14-2.28,.77,.07,1.34,.12,1.73,.14,1.49,.12,1.94,.24,1.94,.53,0,.22-.26,.36-.98,.55v1.82h2.5c.72-.84,.94-1.08,1.66-1.9,1.13,.84,1.46,1.1,2.52,2.02,.07,.12,.12,.17,.12,.22,0,.12-.12,.17-.29,.17h-6.5v2.42h2.52Zm.07,3.36v-2.86h-7.2v2.86h7.2Zm-7.2,.5v3.07h7.2v-3.07h-7.2Z"/></g><path class="d" d="M36.49,47.45c0,1.44-1.17,2.61-2.58,2.61s-2.61-1.17-2.61-2.61,1.14-2.58,2.61-2.58,2.58,1.14,2.58,2.58Z"/><path class="d" d="M0,48.09c3.08-.07,4.01-.2,5.02-.8,1.54-.8,2.01-2.54,2.01-6.82V9.7q-.07-3.41-.2-4.01c-.27-1.47-1.14-1.81-4.55-1.81H.47v-1.87C6.82,1.47,11.7,.8,16.12,0c-.4,4.75-.6,10.37-.6,16.85v23.61c0,4.08,.4,5.75,1.61,6.69,.94,.74,1.74,.87,5.15,.94v1.87H0v-1.87Z"/></g></g></g></svg>