<?xml version="1.0" encoding="UTF-8"?><svg id="_イヤー_2" xmlns="http://www.w3.org/2000/svg" viewBox="0 0 101.62 425.81"><g id="main"><g><path d="M78.93,10.73V4.44c0-1.72-.09-3.12-.26-4.44,3.96,.31,5.15,.53,5.15,1.01,0,.35-.35,.57-1.8,1.28V10.73h8.4c1.01-1.45,1.32-1.89,2.42-3.3,2.02,1.54,2.64,2.02,4.53,3.69,.13,.18,.22,.26,.22,.35,0,.18-.18,.26-.53,.26h-15.04v10.33h7.56c.97-1.41,1.28-1.85,2.38-3.25,1.89,1.5,2.46,1.98,4.35,3.61,.13,.13,.22,.26,.22,.35,0,.18-.22,.31-.62,.31h-13.9v12.4h10.47c1.28-1.45,1.63-1.89,2.77-3.43,2.11,1.58,2.77,2.11,4.88,3.83,.13,.09,.22,.26,.22,.31,0,.18-.26,.31-.53,.31h-34.26c-1.76,0-2.77,.09-4.27,.31l-.44-1.72c1.67,.31,2.64,.4,4.66,.4h13.41v-12.4h-9.37c-1.32,0-2.59,.09-3.52,.26l-.35-1.63c1.89,.31,2.59,.35,3.87,.35h9.37V11.74h-9.72c-2.33,3.96-4.27,6.46-7.39,9.59l-.53-.44c2.81-3.87,4.53-7.17,6.42-12.14,1.05-2.77,1.5-4.31,1.85-6.24,4.18,1.32,5.01,1.67,5.01,2.11,0,.4-.48,.57-1.98,.7-1.1,2.37-1.63,3.39-2.77,5.41h9.1Z" fill="#42210b"/><path d="M94.14,55.18c1.19-1.41,1.58-1.85,2.81-3.21,1.72,1.5,2.29,1.98,4,3.65,.13,.13,.18,.26,.18,.35,0,.13-.09,.22-.31,.22h-34.43c-2.95,0-3.43,.04-5.23,.31l-.31-1.67c1.93,.31,2.77,.35,5.54,.35h16.62c.79-1.19,1.28-2.02,1.85-3.12,1.1-2.29,1.67-3.69,1.76-4.66,3.17,.92,4.88,1.63,4.88,2.02s-.4,.57-2.11,.79c-2.24,2.46-3.47,3.69-5.15,4.97h9.89Zm-26.78,19.66v.7c0,.62,0,2.07,.04,4.05,.04,2.55,.04,2.9,.04,6.38-.09,.4-.22,.53-.53,.62-.48,.09-1.58,.18-2.07,.18-.4,0-.53-.13-.62-.48,.09-3.3,.18-12.05,.18-19,0-4.22-.04-5.98-.18-8.49,1.58,.75,2.07,1.01,3.56,1.89h8c.66-.84,.88-1.1,1.58-1.89,1.32,.92,1.72,1.19,2.81,2.15,.18,.26,.26,.35,.26,.44,0,.22-.31,.44-1.45,1.06v10.11c0,.35,.09,7.3,.13,10.73v.26c0,1.76-.79,2.29-4.79,3.34-.31-2.24-1.06-2.77-4.71-3.43l.04-.53c.84,.04,1.54,.09,1.98,.13,2.46,.22,2.77,.22,4.09,.31h.18c.18,0,.22-.09,.22-.44v-8.09h-8.8Zm8.8-13.15h-8.8v5.36h8.8v-5.36Zm0,6.38h-8.8v5.76h8.8v-5.76Zm-5.72-20.54c4.09,2.2,5.58,3.43,5.58,4.79,0,1.19-.83,2.59-1.5,2.59-.4,0-.57-.18-.88-1.01-.62-1.63-2.2-4.22-3.61-5.8l.4-.57Zm18.38,13.68c0,.26-.48,.62-1.36,.97v3.39c0,4.4,.04,10.95,.09,12.84,0,.57-.31,.7-1.54,.79-.4,.04-.7,.04-.88,.09h-.13c-.31,0-.48-.18-.48-.53,.09-4.97,.13-8.27,.13-13.81,0-1.32-.04-2.64-.22-4.79,3.25,.44,4.4,.7,4.4,1.06Zm4.92,2.64c0-2.15-.09-3.78-.31-5.06,3.47,.48,4.84,.84,4.84,1.19s-.53,.66-1.67,1.01v9.41q.09,9.41,.18,12.97c-.09,1.23-.4,1.71-1.5,2.37-.88,.53-1.8,.84-3.56,1.23q-.62-2.64-6.68-3.61v-.66c.79,.04,1.41,.09,1.8,.09,4.27,.26,4.62,.31,6.6,.31,.26-.09,.31-.18,.31-.4v-18.87Z" fill="#42210b"/><path d="M80.16,132.05c4.75-1.41,7.78-3.21,10.29-6.11,2.59-2.95,3.91-6.55,3.91-10.6,0-4.27-1.71-7.65-4.97-9.72-1.93-1.28-4.84-2.02-7.61-2.02-.53,0-.84,0-1.54,.09,1.06,1.54,1.36,2.37,1.36,3.65,0,3.43-2.46,9.85-5.8,15.22-2.77,4.4-4.92,6.55-6.55,6.55-.75,0-1.45-.35-1.94-.92-.4-.53-.48-.7-1.23-2.81-.4-1.14-.66-1.67-1.93-4.13-.7-1.41-1.01-2.59-1.01-4,0-2.77,1.5-6.02,3.96-8.71,3.56-3.78,9.37-6.16,15.13-6.16,4.44,0,8.53,1.45,11.35,4.05,2.81,2.59,4.22,6.07,4.22,10.33,0,5.5-3.21,10.38-8.75,13.32-2.55,1.36-4.84,2.07-8.58,2.73l-.31-.75Zm-14.47-13.68c0,2.11,.66,4.27,1.76,5.8,.62,.79,1.19,1.28,1.67,1.28,.97,0,3.08-2.37,5.23-5.8,3.25-5.19,5.58-10.86,5.58-13.59,0-.66-.13-1.1-.62-2.2-7.65,1.36-13.63,7.74-13.63,14.51Z" fill="#42210b"/><path d="M70.27,169.95c3.83-1.14,5.1-1.58,8.22-2.81l.35,.57c-2.86,1.67-5.14,2.86-8.31,4.31q-.92,.44-4.97,2.15-1.01,.4-2.2,.92c-.04,.35-.09,.62-.09,.79-.13,.84-.31,1.23-.53,1.23-.13,0-.4-.22-.57-.44-.18-.26-.48-.97-.79-1.72l-.44-1.32-.48-1.32c2.07-.31,2.81-.48,6.77-1.54v-19.04h-3.52c-1.45,0-1.98,.04-3.25,.26l-.22-1.67c1.1,.31,2.02,.4,3.39,.4h8.62c1.01-1.28,1.32-1.67,2.33-2.9,1.72,1.36,2.2,1.8,3.91,3.25,.09,.13,.13,.26,.13,.35,0,.13-.26,.31-.48,.31h-7.87v18.21Zm13.68-13.9c.13-2.15,.26-5.76,.26-8,0-1.32-.04-1.93-.22-3.43,4.66,.62,5.23,.75,5.23,1.23,0,.4-.57,.75-1.85,1.14-.22,5.67-.26,6.9-.44,9.06h8.05l2.02-2.24c1.23,.92,1.63,1.23,2.73,2.24,.31,.31,.44,.44,.44,.62,0,.31-.04,.31-1.63,1.19-.35,8.27-.4,9.28-.88,13.19-.75,6.07-1.5,8.88-2.81,10.55-1.06,1.32-2.16,1.85-4.84,2.15-.22-1.32-.66-1.94-1.8-2.51-.75-.35-1.1-.44-5.28-1.23v-.66q1.36,.13,4.97,.48c.66,.09,2.68,.22,3.12,.22,1.63,0,2.11-.62,2.77-3.52,1.01-4.27,1.54-10.25,1.71-19.48h-8.62c-.79,8.05-2.33,12.8-5.63,17.15-2.29,3.03-5.37,5.54-9.01,7.48-1.58,.84-2.73,1.36-5.28,2.29l-.31-.66c3.43-1.67,5.5-3.03,8.09-5.41,4.31-3.96,6.86-8.22,8.09-13.68,.48-2.02,.79-4.31,1.01-7.17h-5.01c-1.14,0-1.89,.04-3.47,.18l-.31-1.5c1.01,.22,2.29,.31,3.78,.31h5.1Z" fill="#42210b"/><path d="M60.46,231.29c1.23-3.96,1.76-6.95,2.55-14.29,3.65,.97,4.05,1.1,4.05,1.5,0,.26-.31,.44-1.5,.7-2.02,7.39-2.46,8.58-4.53,12.27l-.57-.18Zm.97-31.97c1.23,.7,1.67,1.01,2.73,1.85,1.58-3.12,2.59-5.63,3.39-8.44,3.69,1.19,4.4,1.5,4.4,1.89,0,.31-.4,.44-1.94,.62q-1.85,2.46-5.28,6.38c2.07,1.67,2.51,2.15,2.51,2.95,0,1.36-.66,2.86-1.28,2.86-.31,0-.48-.26-.75-.88-.97-2.51-2.11-4.27-4.22-6.77l.44-.44Zm6.11,14.16c-1.85,.4-2.02,.44-4.53,.97-.22,1.23-.35,1.54-.66,1.54-.18,0-.35-.18-.44-.48,0,0-.31-1.23-.88-3.65,.83,.13,1.19,.18,1.76,.18,.31,0,.84,0,2.02-.04,1.5-2.15,2.11-3.17,3.83-6.2,2.2-3.87,2.95-5.36,3.96-8.05,3.39,1.41,4.22,1.8,4.22,2.2,0,.35-.44,.48-2.07,.53-3.78,5.36-5.63,7.87-8.58,11.43,3.17-.13,4.71-.26,7.39-.53-.53-1.63-.79-2.29-1.54-3.87l.4-.4c2.51,2.37,4.13,4.71,4.13,6.02,0,.92-1.01,2.59-1.58,2.59-.13,0-.31-.13-.4-.35q-.13-.26-.44-1.76c-.04-.35-.18-.79-.4-1.67q-2.2,.57-3.43,.88v9.41l.13,10.29c-.09,.66-.44,.79-2.2,.79-.62,0-.7-.04-.79-.48q.04-3.39,.09-10.6v-8.75Zm4.31,19.13c3.25-1.06,5.1-1.85,7.48-3.17,1.93-1.06,2.51-1.45,3.47-2.42,.75,.35,.97,.44,1.67,.84l1.58,.84c.31,.13,.4,.22,.4,.35,0,.22-.48,.48-.88,.48s-.79-.04-1.28-.18c-3.87,2.07-6.73,2.95-12.27,3.87l-.18-.62Zm.62-15.83c.97,.88,1.19,1.14,2.2,2.73,1.14,1.76,1.54,2.64,1.54,3.47,0,1.32-1.01,3.3-1.72,3.3-.4,0-.48-.26-.66-1.8-.31-2.64-.79-4.53-1.8-7.43l.44-.26Zm23.09-10.29c1.01-1.14,1.32-1.45,2.38-2.51,1.5,1.19,1.98,1.58,3.47,2.9,.18,.18,.22,.26,.22,.35,0,.13-.18,.26-.44,.26h-21.9c-1.71,0-2.51,.04-3.87,.31l-.31-1.67c1.41,.31,2.02,.35,4.18,.35h6.24v-3.61h-4.57c-1.23,0-2.46,.13-3.43,.35l-.31-1.8c1.14,.35,2.02,.44,3.74,.44h4.57v-3.47h-5.72c-1.32,0-2.02,.09-3.21,.31l-.26-1.72c1.14,.31,2.02,.4,3.47,.4h5.72v-.57c0-1.94-.04-2.55-.26-4.09,3.47,.31,4.75,.57,4.75,1.01,0,.35-.53,.66-1.71,1.01v2.64h6.07c.97-1.1,1.28-1.41,2.24-2.46,1.45,1.19,1.89,1.54,3.21,2.77,.22,.22,.31,.35,.31,.48,0,.18-.13,.22-.44,.22h-11.39v3.47h5.1c.83-1.01,1.06-1.32,1.89-2.29,1.45,1.1,1.85,1.5,3.21,2.68,.13,.13,.22,.26,.22,.35,0,.18-.18,.26-.48,.26h-9.94v3.61h7.26Zm-14.64,20.1c-.04,.35-.13,.48-.44,.57-.44,.18-1.1,.26-1.63,.26-.44,0-.57-.09-.7-.44,.13-2.81,.18-7.74,.18-11.92,0-1.8-.04-3.56-.18-6.02,1.5,.75,1.89,.97,3.21,1.8h12.01c.75-.79,.97-1.01,1.76-1.8,1.01,.75,1.32,.97,2.33,1.72,.35,.35,.48,.53,.48,.66,0,.31-.31,.53-1.41,1.1v3.25c0,3.52,0,4.53,.13,10.51-.04,.31-.13,.4-.4,.48s-1.36,.22-1.85,.22c-.31,0-.44-.09-.57-.4v-.79h-12.93v.79Zm12.93-14.73h-12.93v3.47h12.93v-3.47Zm-12.93,4.49v3.56h12.93v-3.56h-12.93Zm0,4.57v3.87h12.93v-3.87h-12.93Zm8.66,6.6c5.98,.84,7.87,1.23,9.32,1.98,.83,.4,1.32,1.36,1.32,2.55,0,.75-.18,1.23-.48,1.23-.18,0-.4-.13-.62-.31-.48-.4-1.67-1.14-2.86-1.8-2.29-1.32-4.22-2.2-7.04-3.03l.35-.62Z" fill="#42210b"/><path d="M65.38,249.05c2.11,1.67,3.12,2.07,5.5,2.07,1.41,0,2.68-.18,4.71-.57,.97-1.89,1.54-3.52,1.54-4.49,0-1.19-.83-1.89-3.12-2.46,.75-.4,1.14-.48,1.98-.48,1.01,0,2.29,.26,3.43,.75,1.1,.44,1.58,.92,1.58,1.45,0,.31-.18,.62-.7,1.28-.4,.53-.92,1.32-1.27,1.8q-.79,1.28-1.1,1.72c3.69-1.06,4.88-1.58,6.33-2.81,.26-.22,.53-.31,.84-.31,1.71,0,2.95,.62,2.95,1.45,0,.53-.57,.97-1.89,1.41-3.91,1.28-6.03,1.8-9.59,2.51-.79,1.1-1.32,1.89-2.33,3.43-1.19,1.85-1.54,2.33-2.38,3.52,2.46-1.28,4-1.76,5.67-1.76,2.59,0,4.53,1.76,4.92,4.4q.75-.35,4.31-2.15c4.35-2.2,5.41-2.9,5.41-3.69,0-.75-.75-1.54-2.02-2.07,.48-.22,.7-.26,1.01-.26,1.94,0,4.97,2.68,4.97,4.44,0,.79-.35,1.1-1.58,1.36-2.64,.62-8.36,2.81-11.79,4.53,.04,1.41,.04,1.67,.04,3.56s-.13,3.34-.35,3.78c-.22,.48-.7,.84-1.23,.84-.83,0-1.41-.57-1.41-1.32,0-.22,0-.44,.04-.75,.18-1.28,.26-2.77,.31-4.71-2.73,1.5-4,2.37-5.14,3.47-1.45,1.41-2.16,2.77-2.16,4.09,0,2.37,2.42,3.52,7.34,3.52,3.08,0,6.16-.44,8.84-1.23,.31-.09,.62-.13,.83-.13,1.36,0,3.08,1.23,3.08,2.2,0,.57-.48,1.01-1.36,1.19-1.8,.35-5.15,.62-7.87,.62-4.13,0-7.17-.44-8.93-1.28-2.24-1.06-3.25-2.51-3.25-4.66s1.01-3.96,3.17-6.02c1.14-1.1,2.55-2.11,5.45-3.91-.04-1.85-.18-2.55-.62-3.47-.4-.79-1.28-1.32-2.24-1.32-2.9,0-6.38,2.33-9.54,6.38-.84,1.14-1.19,1.41-1.63,1.41-.7,0-1.19-.92-1.19-2.33,0-.92,.04-.97,1.27-1.98,3.12-2.46,5.06-4.75,8.18-9.45-1.45,.22-2.02,.26-2.95,.26-2.99,0-4.53-.79-6.55-3.39l.48-.4Z" fill="#42210b"/><path d="M3.69,125.45q-.09,.75-2.46,.84c-.4-.04-.53-.18-.62-.66,.13-4.35,.18-6.99,.18-14.16,0-8.62-.04-10.64-.18-13.63,1.5,.84,1.93,1.14,3.34,2.11h7.56c.75-.79,.97-1.06,1.72-1.8,1.1,.84,1.41,1.1,2.42,1.98,.31,.26,.4,.4,.4,.53,0,.22-.31,.44-1.41,1.1v17.33c0,.79,0,1.85,.04,5.01-.09,.79-.44,.92-2.33,.92-.4,0-.57-.13-.62-.53v-2.59H3.69v3.56Zm8.05-24.49H3.69v9.32H11.74v-9.32Zm-8.05,10.33v9.59H11.74v-9.59H3.69Zm17.72,8.71c-.57,3.03-1.58,5.36-3.47,7.92-2.46,3.43-4.88,5.41-9.59,7.87l-.35-.66c3.34-2.24,4.97-3.74,6.86-6.24,3.61-4.93,4.49-9.32,4.49-23.13,0-3.25-.04-5.5-.22-8.97,1.5,.84,1.93,1.14,3.34,2.2h10.55c.75-.84,.97-1.1,1.71-1.94,1.28,.97,1.67,1.23,2.81,2.15,.26,.26,.4,.4,.4,.53,0,.22-.66,.75-1.54,1.23v22.65q.04,2.29,.09,4.31c0,1.93,0,1.98,.04,3.56,0,1.32-.18,1.89-.7,2.46-.7,.75-1.76,1.1-4.57,1.54-.75-2.42-1.36-2.73-6.07-3.17v-.84c3.03,.13,3.47,.18,7.26,.26h.13c.57,0,.66-.13,.66-.79v-10.95h-11.83Zm.7-10.2c-.09,4.84-.26,7.43-.53,9.19h11.65v-9.19h-11.13Zm11.17-1.01v-8.84h-11.08c.04,1.01,.04,1.76,.04,2.29s0,1.06-.09,6.55h11.13Z" fill="#42210b"/><path d="M6.42,153.46c0-3.25-.04-4.35-.13-7.26,1.54,.88,2.02,1.19,3.52,2.2H28.23c.79-.88,1.01-1.14,1.8-1.98,1.23,.84,1.63,1.1,2.81,1.98,.35,.26,.48,.44,.48,.57,0,.26-.4,.62-1.5,1.23l-.04,13.94c0,3.39,.09,9.45,.31,18.21v.13c0,.22-.13,.4-.35,.48-.26,.13-1.58,.31-2.38,.31-.62,0-.75-.04-.75-.31v-3.08H9.54v2.99c0,.22-.04,.31-.13,.4-.26,.22-1.5,.4-2.64,.4-.48,0-.62-.13-.66-.57,.18-3.96,.18-4.57,.22-13.94l.09-15.7Zm22.21-4.05H9.54v13.81H28.63v-13.81Zm-19.08,14.82v14.64H28.63v-14.64H9.54Z" fill="#42210b"/><path d="M3.08,213.48q.92,0,5.32-4.49c3.39-3.47,5.19-4.66,6.9-4.66,1.85,0,3.25,.92,7.61,4.84,5.94,5.32,9.89,8.22,12.89,9.45,.97,.35,1.32,.7,1.8,1.67,.44,.84,.75,1.94,.75,2.64,0,.53-.4,.92-.88,.92-.62,0-2.24-.84-3.96-1.98-2.95-2.02-7.08-5.8-11.7-10.73-4-4.22-5.28-5.23-6.73-5.23-1.28,0-2.51,1.1-4.71,4.05-1.28,1.67-1.5,2.07-2.51,3.87-.66,1.19-.7,1.32-.79,1.58-.44,.97-.44,1.01-.75,1.28-.31,.22-.62,.35-.97,.35-1.93,0-5.37-3.25-5.37-5.06t.18-.62c.84,1.23,2.07,2.11,2.9,2.11Z" fill="#42210b"/><path d="M12.49,243.24c1.32,0,3.39,.4,4.44,.84,.88,.35,1.23,.79,1.23,1.41v.09c0,.35-.04,.35-.35,1.14-.53,1.5-.97,5.28-.97,8.93,0,2.59,.35,3.25,1.71,3.25,.92,0,1.89-.35,5.89-2.24,.79-.4,1.27-.53,1.8-.53,1.06,0,2.11,.92,2.11,1.85,0,.57-.31,1.06-.92,1.32-.31,.13-.92,.35-2.95,.92-5.32,1.5-8.22,2.81-10.99,4.93-2.38,1.85-3.43,3.56-3.43,5.63,0,3.17,2.51,4.79,7.39,4.79,2.73,0,7.04-.53,10.2-1.28,.44-.09,.62-.13,.88-.13,1.14,0,2.38,1.1,2.38,2.15,0,.79-.48,1.19-1.89,1.45s-5.8,.57-8.44,.57c-3.21,0-5.63-.35-7.48-1.01-2.95-1.1-4.79-3.61-4.79-6.51,0-2.55,1.41-4.97,4.31-7.39,1.32-1.14,2.77-2.11,5.37-3.52-.97,0-1.36-.13-2.11-.66-.66-.48-1.05-1.45-1.27-3.34-.13-1.06-.18-2.02-.31-5.32-.13-3.74-.18-4.4-.53-5.06-.48-.84-1.32-1.28-3.17-1.58,.66-.57,1.01-.7,1.89-.7Z" fill="#42210b"/><path d="M15.08,323.49c4.05-1.01,6.95-2.11,9.72-3.69,5.14-2.9,8.09-7.21,8.09-11.83s-3.25-7.39-8.05-7.39c-5.15,0-11.87,2.81-17.68,7.34-.7,.57-1.14,.75-1.67,.75-2.07,0-5.28-3.08-5.28-5.06,0-.31,.09-.57,.35-1.1,.44,.92,.7,1.23,1.23,1.63,.66,.48,1.19,.7,1.8,.7,1.14,0,2.81-.48,5.32-1.58,6.95-3.03,11.52-4.22,16.1-4.22,6.68,0,11.26,3.91,11.26,9.67,0,5.45-3.69,10.16-10.11,12.88-3.34,1.41-6.55,2.16-10.86,2.55l-.22-.66Z" fill="#42210b"/><path d="M2.59,347.1c2.11,1.98,3.34,2.55,5.54,2.55,1.14,0,2.33-.18,4-.53,1.1-2.86,1.58-4.71,1.58-6.24,0-1.45-.7-2.33-2.81-3.39,.48-.26,.7-.31,1.06-.31,.88,0,2.24,.4,3.52,1.01,1.5,.75,2.07,1.23,2.07,1.85,0,.35-.09,.62-.44,1.14-.18,.35-1.1,2.15-2.68,5.41,3.25-1.14,3.65-1.36,4.88-2.42,.35-.31,.48-.35,.92-.35,1.71,0,2.99,.57,2.99,1.32,0,1.14-2.73,2.24-9.72,3.87-.4,.88-1.14,2.68-2.33,5.32-1.32,3.03-4.71,10.42-5.1,11.17-.66,1.19-1.05,1.58-1.58,1.58-.75,0-1.36-1.36-1.36-3.12,0-.88,.09-1.14,.48-1.58,.97-1.06,1.5-1.71,2.11-2.64,2.16-3.21,3.74-6.2,5.5-10.33-.97,.13-1.36,.18-2.07,.18-1.58,0-2.77-.26-3.87-.92-1.32-.75-2.33-1.8-3.21-3.21l.53-.35Zm23.26,2.46c3.03,.26,5.5,1.06,7.52,2.42,1.71,1.1,2.77,2.42,2.77,3.43,0,.75-.44,1.28-1.14,1.28-.35,0-.62-.09-1.01-.35-1.23-.75-2.07-.92-4.31-.92-3.52,0-4.62,.97-4.62,4,0,1.19,.22,3.08,.88,7.56,2.68,.79,4.97,1.85,6.24,2.86,1.19,.92,1.76,2.07,1.76,3.47,0,.88-.35,1.5-.88,1.5-.44,0-.62-.13-1.54-1.14-1.58-1.72-3.04-2.77-5.32-3.87v.84c0,1.76-.35,2.77-1.23,3.74-1.19,1.19-3.25,1.89-5.72,1.89-3.96,0-6.68-1.89-6.68-4.66,0-3.08,3.34-5.23,8.22-5.23,1.01,0,1.5,.04,2.64,.22-.13-3.47-.13-3.83-.13-4.35,0-3.61,.35-4.97,1.54-6.29,.88-.92,2.11-1.54,4.18-2.07,.66-.18,.75-.22,2.37-.57-1.19-1.28-2.55-1.98-5.67-3.03l.13-.7Zm-2.38,19.26c-1.36-.4-2.38-.53-3.78-.53-3.74,0-6.02,1.28-6.02,3.34,0,1.63,1.67,2.59,4.4,2.59,3.56,0,5.41-1.45,5.41-4.22v-1.19Z" fill="#42210b"/><path d="M16.93,388.17c1.23,0,3.65,1.14,4.88,2.33,.7,.66,.97,1.1,.97,1.72s-.22,.88-2.55,2.77c-2.38,1.98-6.68,6.02-8.09,7.61-1.54,1.72-2.11,2.68-2.11,3.56,0,.62,.44,1.36,1.32,2.24q.62,.66,3.08,2.95c4.79,4.4,7.04,6.86,8.09,8.97,.48,.88,.66,1.67,.66,2.86,0,1.67-.57,2.64-1.5,2.64-.57,0-.75-.22-1.5-1.8-2.07-4.31-4.4-7.52-10.11-14.16-1.19-1.45-1.67-2.51-1.67-3.69,0-1.41,.7-2.59,3.39-5.89,5.32-6.42,6.64-8.31,6.64-9.37,0-.75-.57-1.36-2.42-2.59,.31-.09,.53-.13,.92-.13Zm10.03,1.93c1.63,.92,2.81,1.76,3.91,2.73,1.58,1.45,2.2,2.46,2.2,3.52s-.62,1.85-1.36,1.85q-.57,0-1.94-2.86c-.79-1.54-2.2-3.47-3.39-4.62l.57-.62Zm4.53-2.55c1.58,.75,2.86,1.5,4.22,2.55,1.67,1.28,2.24,2.15,2.24,3.39,0,1.06-.44,1.8-1.1,1.8-.4,0-.66-.22-1.01-.88-1.54-2.77-2.42-3.87-4.84-6.24l.48-.62Z" fill="#42210b"/></g></g></svg>