<?xml version="1.0" encoding="UTF-8"?><svg xmlns="http://www.w3.org/2000/svg" viewBox="0 0 208.96 50.09"><defs><style>.d{fill:#42210b;}</style></defs><g id="a"/><g id="b"><g id="c"><g><g><path class="d" d="M60.88,26.73c1.03,.26,1.37,.38,2.11,.7,1.66,.7,2.28,1.32,2.28,2.23s-.72,1.9-1.42,1.9c-.34,0-.53-.24-.82-.96-.72-1.82-1.3-2.76-2.16-3.48v5.33c0,2.47,0,3.82,.05,5.33,0,.24-.05,.34-.19,.43-.24,.17-.82,.26-1.54,.26-.82,0-1.03-.12-1.06-.55,.07-1.94,.14-4.2,.14-5.28v-3.62c-1.03,.84-1.75,1.32-3.41,2.3l-.19-.29c1.56-1.42,2.52-2.52,3.67-4.2,1.3-1.9,2.02-3.24,2.69-5.09h-4.3c-.79,0-1.08,.02-1.61,.12l-.17-.86c.58,.17,1.15,.24,1.8,.24h1.44v-2.74c0-.89-.02-1.22-.14-2.02,3.55,.31,3.7,.36,3.7,.67,0,.22-.22,.36-.94,.62v3.46h.62c.53-.65,.67-.82,1.25-1.42,.89,.74,1.15,.98,1.97,1.73,.22,.24,.26,.31,.26,.38,0,.24-.22,.34-1.22,.53-1.06,1.78-1.78,2.83-2.83,4.03v.24Zm4.66-1.56c-.79,0-1.1,.02-1.7,.14l-.17-.86c.72,.17,1.08,.22,1.87,.22h2.81v-5.02c0-1.3-.05-1.94-.19-3.19,.79,.07,1.42,.12,1.82,.14,1.68,.14,2.14,.26,2.14,.55,0,.24-.29,.41-1.03,.65v6.86h1.51c.79-.94,1.03-1.22,1.8-2.16,1.22,.94,1.58,1.25,2.71,2.28,.1,.1,.12,.17,.12,.22,0,.1-.1,.17-.24,.17h-5.9v11.57h1.78q.91-1.06,1.92-2.21c1.18,.98,1.54,1.3,2.69,2.38,.1,.1,.12,.14,.12,.22s-.1,.12-.24,.12h-12.99c-.86,0-1.27,.02-1.92,.14l-.19-.84c.67,.14,1.27,.19,2.09,.19h4.01v-11.57h-2.81Z"/><path class="d" d="M90.64,20.9c.58-.7,.77-.91,1.37-1.61,1.03,.74,1.32,.98,2.3,1.78,.1,.1,.14,.17,.14,.24,0,.17-.24,.34-.74,.5,.46,1.1,1.32,2.47,2.26,3.58-.02-6.48-.05-7.7-.19-9,3.48,.26,3.82,.34,3.82,.72,0,.24-.34,.46-1.08,.65v9.26c1.9,1.1,3.26,1.56,5.79,1.99l-.02,.22c-1.03,.6-1.49,1.25-1.8,2.52-.05,.17-.1,.24-.22,.24s-.34-.1-.91-.38c-.89-.46-1.49-.86-2.83-1.9q.02,1.06,.05,2.62c0,.79,.02,2.59,.07,5.4,0,.24-.05,.38-.17,.46-.22,.14-.91,.24-1.71,.24s-.96-.1-.96-.46c.02-.7,.05-1.63,.1-2.81,.07-2.54,.1-3.55,.1-5.3,0-.55,0-1.32-.02-2.35-1.2-1.75-1.9-3.29-2.57-5.57l-.19,.05c-.53,3.02-1.06,4.85-1.97,6.84-1.34,2.98-3.24,5.3-5.76,7.13-1.15,.84-2.09,1.37-3.82,2.16l-.17-.29c2.62-1.97,4.11-3.58,5.52-5.9,1.8-2.95,2.95-6.26,3.65-10.51h-3.26c-.58,1.3-.96,2.04-1.68,3.17,2.3,1.42,2.88,1.99,2.88,2.93,0,.98-.79,2.06-1.51,2.06-.34,0-.46-.22-.5-.84-.17-1.94-.43-2.9-1.06-3.84-1.39,2.14-1.92,2.76-3.87,4.46l-.19-.14c1.32-2.04,2.23-4.01,3.05-6.55,.79-2.47,1.27-4.58,1.44-6.26,3.26,.6,3.79,.77,3.79,1.08,0,.24-.19,.34-1.03,.55-.31,.94-.31,.96-1.1,2.88h3.02Z"/><path class="d" d="M109.88,27.14c.48,0,.89-.29,2.14-1.54,2.3-2.33,2.78-2.76,3.5-3.12,.48-.26,.89-.36,1.42-.36,.98,0,1.7,.46,4.27,2.71,2.5,2.18,3.89,3.19,5.62,4.13,.65,.36,.74,.38,1.61,.67,.91,.31,1.7,1.66,1.7,2.95,0,.74-.36,1.22-.89,1.22-.6,0-1.75-.58-3.05-1.54-1.78-1.32-3.65-3.17-6-5.95-2.21-2.59-2.74-3.07-3.46-3.07-.6,0-1.25,.58-2.09,1.8-.67,.98-1.44,2.54-1.85,3.72-.19,.53-.26,.72-.46,.86-.19,.19-.48,.31-.77,.31-.7,0-1.7-.58-2.5-1.42-.65-.7-1.06-1.54-1.06-2.16t.1-.53c.53,.84,1.15,1.3,1.75,1.3Z"/><path class="d" d="M143.87,36.33c2.57-.79,4.37-1.85,5.81-3.41,1.61-1.73,2.4-3.84,2.4-6.31,0-4.1-2.5-6.55-6.62-6.55-.31,0-.5,0-.96,.05,.84,.98,1.1,1.63,1.1,2.57,0,1.92-1.22,5.28-2.95,8.18-1.56,2.59-2.95,3.91-4.15,3.91-.53,0-1.03-.29-1.3-.7-.19-.36-.34-.7-.55-1.58-.14-.58-.34-.91-1.03-1.78-.58-.72-.94-1.78-.94-2.76,0-1.51,.77-3.34,2.02-4.8,2.06-2.45,5.47-3.94,9.05-3.94,5.35,0,9.17,3.38,9.17,8.14,0,3.48-1.92,6.26-5.4,7.87-1.49,.7-3.02,1.1-5.54,1.44l-.1-.34Zm-4.49-13.66c-1.66,1.66-2.57,3.7-2.57,5.71,0,1.66,.82,3.36,1.63,3.36s2.38-1.99,3.94-4.94c1.2-2.26,1.92-4.25,1.92-5.3,0-.26-.03-.58-.1-.79-.05-.19-.17-.53-.19-.53-1.94,.43-3.24,1.13-4.63,2.5Z"/><path class="d" d="M177.13,19.82c.74-.94,.98-1.2,1.75-2.11,1.3,.91,1.68,1.22,2.88,2.23,.1,.1,.14,.17,.14,.24,0,.1-.1,.14-.26,.14h-17.02c-.02,4.61-.07,5.76-.29,7.75-.55,4.51-1.99,7.73-4.61,10.25l-.22-.19c1.73-3.48,2.38-7.51,2.38-14.79,0-2.09-.05-3.41-.17-5.18,1.49,.7,1.92,.91,3.26,1.66h4.94v-1.87c0-.82-.02-1.13-.14-1.9,.82,.07,1.46,.14,1.85,.19,1.54,.12,2.04,.26,2.04,.55,0,.22-.29,.41-.96,.65v2.38h4.42Zm-3.02,7.75c3.05,2.38,4.27,3.58,5.52,5.35,.62,.86,.86,1.51,.86,2.21,0,1.27-1.06,2.71-1.97,2.71-.38,0-.58-.24-.72-.94-.19-1.03-.43-1.9-.7-2.66-2.59,.91-7.8,2.23-11.5,2.93-.12,.79-.22,1.03-.48,1.03q-.31,0-1.27-3.79c.67,.02,1.06,.02,1.22,.02,.34,0,.6,0,1.49-.05,1.7-3.86,3.31-9.36,3.74-12.79,.82,.19,1.49,.36,1.9,.43,1.68,.38,2.23,.6,2.23,.89,0,.24-.31,.38-1.2,.48-1.63,4.06-3.53,7.73-5.64,10.92,4.95-.26,6.91-.43,9.24-.79-1.08-2.71-1.61-3.74-2.95-5.76l.22-.19Z"/><path class="d" d="M193.89,19.56c.55-.67,.72-.86,1.27-1.46,.89,.7,1.15,.94,1.94,1.7,.07,.07,.1,.12,.1,.17s-.07,.1-.17,.1h-4.34v3.19h1.34c.55-.67,.72-.86,1.27-1.46,.89,.72,1.18,.94,1.99,1.73,.07,.07,.1,.12,.1,.14,0,.07-.05,.1-.14,.1h-9.58c2.13,1.1,3.02,1.92,3.02,2.78,0,.72-.94,1.75-1.58,1.75-.17,0-.29-.1-.38-.26-.1-.17-.1-.19-.24-1.15-.14-1.18-.38-1.82-1.01-3.02l.12-.1h-.41c-.46,0-.89,.05-1.37,.14l-.14-.84c.58,.14,1.03,.19,1.51,.19h3v-3.19h-2.16c-.5,0-.98,.05-1.44,.14l-.12-.84c.5,.12,1.03,.19,1.56,.19h2.16v-1.3c0-.89-.02-1.27-.12-2.04,3.41,.36,3.53,.38,3.53,.72,0,.19-.22,.31-.91,.53v2.09h1.2Zm3.7,5.33c0-4.85-.05-7.01-.19-8.5,1.25,.55,1.61,.72,2.74,1.37h4.34c.55-.62,.72-.79,1.27-1.37,.87,.58,1.13,.77,1.95,1.39,.21,.17,.29,.26,.29,.36,0,.19-.19,.36-.84,.65-.22,3.82-.38,4.54-1.3,5.09-.5,.29-1.44,.53-2.16,.53-.26,0-.36-.07-.36-.34,0-.34-.1-.62-.24-.86-.29-.48-.7-.7-2.18-1.08l.02-.31c1.8,.17,2.23,.19,2.93,.19,.41,0,.55-.12,.62-.6,.12-.65,.24-2.09,.26-3.14h-4.78v7.49h4.49c.55-.6,.72-.77,1.29-1.34,.84,.6,1.08,.79,1.85,1.42,.22,.17,.29,.26,.29,.38,0,.19-.17,.31-.79,.6-.58,2.54-1.18,4.15-2.23,5.93,1.39,1.13,2.42,1.66,4.1,2.14v.19c-.65,.36-.96,.7-1.39,1.46-.17,.29-.17,.31-.36,.94-.05,.12-.12,.19-.22,.19-.46,0-2.33-1.68-3.41-3.07-1.06,1.3-2.09,2.18-3.62,3.14v.02c0,.24-.05,.36-.14,.46-.14,.12-.67,.19-1.46,.19s-.91-.07-.91-.48q.12-3.14,.14-9.05l-.17,.05h-4.73v3.26h1.32c.55-.7,.72-.89,1.3-1.56,.91,.74,1.2,.98,2.09,1.78,.07,.1,.1,.14,.1,.17,0,.07-.07,.12-.19,.12h-4.61v.72c0,1.13,.02,2.74,.07,4.39,0,.19-.02,.29-.07,.36-.17,.19-.7,.29-1.66,.29-.77,0-.91-.1-.91-.53,.05-2.5,.07-3.36,.07-4.51v-.72h-2.28c-.5,0-.96,.05-1.51,.17l-.14-.86c.5,.14,1.03,.19,1.68,.19h2.26v-3.26h-2.88c-.62,0-1.03,.05-1.46,.14l-.14-.82c.5,.12,.96,.17,1.61,.17h4.58c.72-1.8,1.18-3.31,1.34-4.61,2.76,.91,3.17,1.08,3.17,1.32,0,.22-.26,.29-1.13,.34-1.08,1.32-1.22,1.46-2.74,2.95h1.78c.41-.48,.82-.98,1.27-1.51,.84,.72,1.1,.94,1.92,1.73l.07,.1v-3.84Zm2.38,12.46c1.32-1.61,2.02-2.69,2.71-4.1-.82-1.46-1.27-2.76-1.68-4.85-.17-.91-.24-1.46-.31-2.14h-.72v11.09Zm1.18-11.09c.6,2.54,1.1,3.62,2.33,5.14,.67-1.87,.84-2.71,1.18-5.14h-3.5Z"/></g><path class="d" d="M0,50.09c.67-5.35,2.01-9.23,4.48-13.04,2.54-3.88,5.62-7.02,13.24-13.38,3.08-2.54,4.55-4.21,5.55-6.15,.94-1.94,1.4-3.95,1.4-6.15,0-5.82-3.14-9.63-7.89-9.63-3.14,0-5.22,1.54-6.22,4.48-.54,1.67-.6,2.34-.74,6.09-.13,2.61-1.34,3.68-4.28,3.68-3.21,0-4.75-1.14-4.75-3.54C.8,8.83,2.81,5.42,6.35,3.01,9.36,1,12.97,0,17.46,0c10.1,0,16.12,4.61,16.12,12.37,0,3.34-1,6.09-3.01,8.43-1.4,1.67-3.95,3.54-7.36,5.48-8.83,4.95-10.83,6.29-13.91,9.1-2.68,2.41-3.88,4.15-5.28,7.56H23.41c5.48,0,7.42-1.74,8.63-7.76l2.27,.47-2.34,14.45H0Z"/></g></g></g></svg>