<?xml version="1.0" encoding="UTF-8"?><svg xmlns="http://www.w3.org/2000/svg" viewBox="0 0 278.98 51.16"><defs><style>.d{fill:#42210b;}</style></defs><g id="a"/><g id="b"><g id="c"><g><path class="d" d="M61.01,26.73c1.03,.26,1.37,.38,2.11,.7,1.66,.7,2.28,1.32,2.28,2.23s-.72,1.9-1.42,1.9c-.34,0-.53-.24-.82-.96-.72-1.82-1.3-2.76-2.16-3.48v5.33c0,2.47,0,3.82,.05,5.33,0,.24-.05,.34-.19,.43-.24,.17-.82,.26-1.54,.26-.82,0-1.03-.12-1.06-.55,.07-1.94,.14-4.2,.14-5.28v-3.62c-1.03,.84-1.75,1.32-3.41,2.3l-.19-.29c1.56-1.42,2.52-2.52,3.67-4.2,1.3-1.9,2.02-3.24,2.69-5.09h-4.3c-.79,0-1.08,.02-1.61,.12l-.17-.86c.58,.17,1.15,.24,1.8,.24h1.44v-2.74c0-.89-.02-1.22-.14-2.02,3.55,.31,3.7,.36,3.7,.67,0,.22-.22,.36-.94,.62v3.46h.62c.53-.65,.67-.82,1.25-1.42,.89,.74,1.15,.98,1.97,1.73,.22,.24,.26,.31,.26,.38,0,.24-.22,.34-1.22,.53-1.06,1.78-1.78,2.83-2.83,4.03v.24Zm4.66-1.56c-.79,0-1.1,.02-1.7,.14l-.17-.86c.72,.17,1.08,.22,1.87,.22h2.81v-5.02c0-1.3-.05-1.94-.19-3.19,.79,.07,1.42,.12,1.82,.14,1.68,.14,2.14,.26,2.14,.55,0,.24-.29,.41-1.03,.65v6.86h1.51c.79-.94,1.03-1.22,1.8-2.16,1.22,.94,1.58,1.25,2.71,2.28,.1,.1,.12,.17,.12,.22,0,.1-.1,.17-.24,.17h-5.9v11.57h1.78q.91-1.06,1.92-2.21c1.18,.98,1.54,1.3,2.69,2.38,.1,.1,.12,.14,.12,.22s-.1,.12-.24,.12h-12.99c-.86,0-1.27,.02-1.92,.14l-.19-.84c.67,.14,1.27,.19,2.09,.19h4.01v-11.57h-2.81Z"/><path class="d" d="M93.48,21.28c-.1,1.32-.26,2.23-.55,3.31,.86,.38,2.52,1.3,3.48,1.92,1.68,1.13,2.11,1.68,2.11,2.69s-.7,2.06-1.44,2.06c-.31,0-.48-.22-.84-.98-1.08-2.45-2.28-4.3-3.43-5.28-.55,1.7-1.44,3.1-2.78,4.37-.86,.86-1.99,1.63-3.72,2.59l-.22-.26c3.02-2.62,4.39-5.62,4.78-10.42h-5.14l.02,11.06c0,2.5,.02,2.95,.07,4.94v.12c0,.38-.12,.53-.55,.62-.24,.07-.86,.12-1.32,.12-.77,0-.96-.14-.96-.67v-.05q.05-1.8,.1-3.74c.05-1.34,.05-2.18,.05-7.39,0-4.13,0-4.2-.17-7.1,1.34,.62,1.75,.84,3.1,1.58h4.85c.05-.91,.07-1.63,.07-2.69,0-.86-.02-1.15-.1-1.92,.67,.07,1.2,.14,1.51,.17,1.94,.14,2.42,.26,2.42,.6,0,.29-.1,.34-1.13,.7-.07,1.73-.1,2.04-.17,3.14h5.5q.82-.91,1.39-1.58c.91,.65,1.2,.84,2.09,1.49,.26,.19,.36,.31,.36,.48,0,.24-.24,.46-.94,.84v8.42q.05,4.15,.07,5.3c-.05,1.03-.38,1.54-1.27,1.94-.67,.29-1.61,.5-2.3,.5-.26,0-.31-.02-.34-.46-.05-.41-.17-.72-.36-.98-.53-.67-.98-.86-3.31-1.44v-.29c2.26,.14,2.54,.17,4.3,.24,.38,0,.48-.07,.48-.36v-13.61h-5.71Z"/><path class="d" d="M117.15,36.33c2.57-.79,4.37-1.85,5.81-3.41,1.61-1.73,2.4-3.84,2.4-6.31,0-4.1-2.5-6.55-6.62-6.55-.31,0-.5,0-.96,.05,.84,.98,1.1,1.63,1.1,2.57,0,1.92-1.22,5.28-2.95,8.18-1.56,2.59-2.95,3.91-4.15,3.91-.53,0-1.03-.29-1.3-.7-.19-.36-.34-.7-.55-1.58-.14-.58-.34-.91-1.03-1.78-.58-.72-.94-1.78-.94-2.76,0-1.51,.77-3.34,2.02-4.8,2.06-2.45,5.47-3.94,9.05-3.94,5.35,0,9.17,3.38,9.17,8.14,0,3.48-1.92,6.26-5.4,7.87-1.49,.7-3.02,1.1-5.54,1.44l-.1-.34Zm-4.49-13.66c-1.66,1.66-2.57,3.7-2.57,5.71,0,1.66,.82,3.36,1.63,3.36s2.38-1.99,3.94-4.94c1.2-2.26,1.92-4.25,1.92-5.3,0-.26-.02-.58-.1-.79-.05-.19-.17-.53-.19-.53-1.94,.43-3.24,1.13-4.63,2.5Z"/><path class="d" d="M142.28,20.73c-.17,.05-.24,.05-.46,.07-1.82,1.94-4.37,4.49-5.35,5.3,1.73-.05,2.4-.1,3.62-.22-.26-.79-.41-1.08-.94-1.94l.19-.14c2.42,1.44,3.24,2.23,3.24,3.17,0,.89-.77,1.92-1.44,1.92-.41,0-.53-.22-.67-1.3-.05-.34-.1-.55-.19-.91-.79,.29-.82,.29-1.32,.43v5.18c0,2.26,0,2.76,.05,5.35,0,.24-.05,.36-.12,.43-.19,.14-.72,.22-1.49,.22s-.89-.07-.89-.5c.05-1.25,.14-4.8,.14-5.3v-1.9c-.19,.05-.26,.07-.48,.1-1.01,3.24-1.66,4.66-3.22,6.82l-.24-.12c.82-2.98,1.25-5.64,1.32-8.11,1.42,.31,1.92,.46,2.62,.67v-2.21c-.34,.1-.62,.17-.79,.22-.89,.24-.98,.26-1.75,.41-.12,.58-.24,.79-.43,.79q-.24,0-.77-3.05c.6,.05,.94,.07,1.2,.07,.19,0,.82-.02,1.27-.05,.79-.98,1.2-1.58,1.97-2.83,1.37-2.21,1.94-3.26,2.38-4.37,2.47,1.03,2.93,1.27,2.98,1.49,.26,.05,.6,.07,.94,.07h2.9v-1.34c0-1.46-.02-1.9-.14-2.93,.82,.07,1.39,.12,1.8,.17,1.63,.14,1.99,.26,1.99,.55,0,.24-.26,.41-1.06,.62v2.93h1.92c.72-.91,.96-1.18,1.68-2.04,1.13,.91,1.46,1.2,2.47,2.18,.07,.07,.12,.14,.12,.22s-.12,.14-.24,.14h-5.95v4.51h1.66c.72-.86,.94-1.13,1.66-1.97,1.08,.89,1.39,1.15,2.38,2.11,.05,.07,.1,.14,.1,.22s-.12,.14-.31,.14h-10.18c-.62,0-.96,.05-1.61,.17l-.19-.86c.6,.12,1.2,.19,1.8,.19h2.11v-4.51h-2.93c-.58,0-.79,.02-1.27,.12l-.07-.38Zm-9-1.44c.89,.36,1.22,.5,1.87,.91,.77-1.7,1.13-2.76,1.44-4.18,3.41,1.1,3.5,1.15,3.5,1.42s-.26,.36-1.13,.43c-1.32,1.27-1.9,1.75-3.17,2.74,1.1,.77,1.39,1.13,1.39,1.78,0,.84-.79,1.85-1.49,1.85-.12,0-.24-.07-.31-.17q-.12-.14-.43-1.22c-.41-1.3-.94-2.23-1.87-3.36l.19-.19Zm6.07,9.86c1.92,1.61,2.88,2.9,2.88,3.94,0,.96-.72,2.02-1.39,2.02-.38,0-.48-.22-.53-1.1-.14-1.99-.41-3.1-1.1-4.68l.14-.17Zm11.14,.17c.6-.7,.79-.91,1.42-1.56,.89,.65,1.15,.86,1.97,1.51,.22,.17,.29,.29,.29,.41,0,.22-.22,.41-.86,.7v1.56c0,1.27,.02,3.07,.1,5.57,0,.29-.02,.41-.17,.5-.19,.17-.84,.26-1.73,.26-.65,0-.79-.07-.79-.5v-1.18h-5.23v1.01c0,.53-.36,.67-1.78,.67-.74,0-.91-.1-.91-.5,.02-.74,.02-1.46,.05-1.82,.05-2.09,.05-2.42,.05-3.29,0-2.28-.05-3.77-.12-4.99,1.32,.7,1.73,.91,2.98,1.66h4.75Zm-5.02,6.77h5.23v-6.26h-5.23v6.26Z"/><path class="d" d="M171.7,28.63c.41,.72,.55,.94,.98,1.42,2.11,2.4,5.16,3.89,9.22,4.56l-.02,.26c-.58,.19-.74,.29-1.08,.62-.5,.5-.82,.98-1.03,1.7-.05,.19-.14,.26-.29,.26-.34,0-1.58-.67-2.59-1.39-1.49-1.06-2.83-2.47-3.82-3.98-.53-.86-.91-1.61-1.56-3.12l.05,3.55q.05,3.84,.1,5.09c0,.26-.05,.41-.17,.5-.21,.17-.82,.26-1.73,.26-.7,0-.86-.12-.86-.58q.1-2.5,.12-4.68l.05-2.09c-1.51,1.7-2.83,2.86-4.78,4.1-1.49,.98-2.76,1.61-5.06,2.47l-.17-.31c3.62-2.28,6.55-5.18,8.69-8.66h-3.05v.74c-.02,.38-.1,.55-.36,.62-.17,.07-1.1,.17-1.61,.17s-.65-.14-.67-.53c.07-3.1,.1-3.48,.1-5.04,0-1.42-.02-1.92-.12-3.14,1.32,.58,1.73,.77,3.07,1.46h3.91v-2.66h-7.25c-.6,0-1.32,.07-1.92,.17l-.19-.94c.74,.19,1.37,.26,2.11,.26h7.25v-.82c0-.91-.05-1.46-.19-2.59,2.86,.26,3.07,.29,3.38,.41,.19,.07,.31,.17,.31,.29,0,.24-.29,.41-.96,.62v2.09h5.16c.72-.89,.96-1.18,1.73-2.06,1.25,.91,1.63,1.2,2.83,2.18,.1,.12,.14,.17,.14,.24s-.12,.14-.24,.14h-9.62v2.66h4.08c.6-.65,.79-.84,1.42-1.46,.84,.62,1.11,.79,1.9,1.39,.24,.22,.34,.34,.34,.43,0,.22-.19,.36-.72,.65v1.01c0,.79,0,1.49,.05,4.2v.1s.02,.07,.02,.1c0,.48-.6,.7-1.82,.7-.79,0-.91-.1-.91-.58v-.82h-4.2Zm-2.69-5.21h-4.3v4.7h4.3v-4.7Zm6.89,4.7v-4.7h-4.34v4.7h4.34Z"/><path class="d" d="M186.94,20.44c1.08,.91,1.8,1.18,3.29,1.18,.77,0,1.44-.07,2.38-.29,.48-.84,.84-1.99,.84-2.64,0-.82-.55-1.25-1.92-1.56,.5-.29,.74-.36,1.29-.36,.84,0,1.9,.22,2.71,.55,.67,.29,1.06,.65,1.06,1.06,0,.19-.12,.43-.41,.74-.38,.46-.82,1.06-1.27,1.78,2.14-.74,2.35-.86,3.17-1.54,.19-.17,.41-.24,.67-.24,1.05,0,1.94,.53,1.94,1.15,0,.5-.43,.77-1.99,1.3-1.49,.5-3.05,.89-4.97,1.22-.72,1.03-.91,1.32-1.18,1.7q-.91,1.34-1.25,1.8c1.46-.79,2.4-1.08,3.43-1.08,.79,0,1.54,.29,2.04,.82,.31,.34,.48,.62,.67,1.27q.41-.24,2.28-1.18c.72-.36,1.58-.86,2.06-1.18,.34-.22,.48-.43,.48-.65,0-.48-.46-.94-1.32-1.34,.36-.12,.5-.14,.74-.14,1.42,0,3.53,1.82,3.53,3.07,0,.48-.24,.72-.94,.89-2.74,.72-4.94,1.49-6.48,2.28,.05,1.61,.05,1.66,.05,1.9,0,1.18-.05,1.7-.19,1.97-.19,.38-.67,.62-1.18,.62-.65,0-1.06-.38-1.06-1.01q0-.07,.07-.96c.02-.55,.05-.89,.05-1.54-2.57,1.44-3.53,2.45-3.53,3.67,0,1.15,1.13,1.68,3.58,1.68,1.56,0,3.36-.26,4.42-.65,.62-.24,.79-.29,1.01-.29,.38,0,.98,.22,1.46,.55,.5,.36,.79,.82,.79,1.27,0,.43-.34,.79-.89,.96-.89,.26-2.52,.41-4.68,.41-2.64,0-4.27-.31-5.42-1.03-.91-.58-1.39-1.49-1.39-2.62s.6-2.33,1.82-3.5c.58-.55,1.18-.98,2.83-2.06-.02-.91-.1-1.22-.29-1.68-.22-.41-.65-.67-1.15-.67-1.46,0-3.14,1.22-5.02,3.65-.62,.79-.84,.96-1.22,.96-.6,0-1.06-.84-1.06-1.97,0-.29,.07-.55,.19-.74,.17-.24,.19-.26,.94-.77,.91-.6,2.5-2.42,3.77-4.27-.38,.02-.62,.05-.79,.05-1.06,0-2.11-.26-2.74-.72-.58-.38-.96-.84-1.44-1.66l.19-.17Z"/><path class="d" d="M227.52,18.93l1.82-2.06c1.27,.94,1.68,1.25,2.9,2.26,.07,.07,.1,.12,.1,.17,0,.07-.1,.14-.21,.14h-19.8c-.5,0-1.18,.07-1.68,.17l-.19-.89c.74,.17,1.25,.22,1.85,.22h7.3v-1.27c0-.41-.02-.77-.12-1.58,.77,.07,1.34,.12,1.73,.14,1.46,.1,2.09,.26,2.09,.58,0,.17-.05,.19-.91,.62v1.51h5.14Zm.38,8.69c.55-.6,.74-.79,1.34-1.42,1.01,.7,1.32,.91,2.26,1.63,.14,.1,.19,.19,.19,.26,0,.24-.19,.38-.96,.77v3.43c0,.5,0,.72,.02,2.4q.02,.6,.02,1.61c-.02,.91-.24,1.27-.96,1.61-.55,.26-1.54,.46-2.4,.46-.19,0-.26-.05-.26-.26-.05-.48-.17-.89-.34-1.18-.31-.46-.7-.62-1.95-.89l.02-.29c.89,.07,1.01,.07,2.98,.14,.19-.05,.26-.14,.26-.41v-7.37h-14.19v4.9l.02,4.68c0,.58-.26,.65-2.09,.65-.48,0-.62-.1-.65-.46,.07-2.06,.1-3.74,.1-6.19,0-2.59-.02-4.34-.1-5.62,1.37,.62,1.78,.84,3.05,1.54h13.61Zm-3.24-6.22c.5-.58,.67-.74,1.22-1.25,.91,.55,1.2,.72,2.09,1.34,.14,.12,.22,.22,.22,.31,0,.19-.22,.38-.79,.7v1.27s0,.67,.02,1.51v.74c-.02,.24-.07,.34-.22,.38-.22,.1-1.1,.19-1.75,.19-.48,0-.62-.1-.67-.41v-.65h-7.49v.58c-.07,.38-.26,.43-1.87,.43-.6,0-.77-.07-.79-.38,.07-1.9,.07-1.99,.07-3.29,0-1.1-.02-1.66-.07-2.74,1.32,.48,1.7,.65,2.93,1.25h7.11Zm-1.44,8.78l1.27-1.22c.89,.62,1.15,.82,1.97,1.46,.12,.1,.14,.14,.14,.22q0,.19-.72,.7v.96l.02,2.26v.26c-.02,.24-.1,.34-.24,.41-.24,.07-.86,.14-1.54,.14-.53,0-.67-.07-.7-.36v-.48h-4.82v1.22c-.05,.22-.12,.29-.38,.34-.24,.05-.91,.1-1.49,.1-.46,0-.6-.07-.62-.38,.07-1.18,.07-1.66,.07-3.07,0-1.8,0-2.42-.07-3.77,1.22,.48,1.58,.65,2.74,1.22h4.37Zm-5.93-5.14h7.49v-3.14h-7.49v3.14Zm1.32,8.98h4.82v-3.34h-4.82v3.34Z"/><path class="d" d="M239.14,19.48c1.97,.98,2.76,1.99,3.29,4.3,1.66-.86,2.78-1.22,4.82-1.49,.26-1.32,.36-2.09,.36-2.78s-.31-.96-1.15-.96c-.22,0-.36,0-.7,.05l-.05-.22c.91-.5,1.37-.67,1.97-.67,.65,0,1.46,.29,1.94,.7,.41,.34,.58,.72,.58,1.18,0,.48-.21,1.56-.58,2.69,4.11,.36,6.94,3.17,6.94,6.86,0,3.02-1.75,5.45-4.99,6.84-1.54,.67-3.17,1.03-5.74,1.25l-.05-.24c3.19-1.03,4.73-1.92,6.12-3.58,1.18-1.44,1.8-3.12,1.8-4.99,0-1.75-.58-3.22-1.68-4.18-.74-.65-1.49-.96-2.66-1.1-1.15,3.17-2.42,5.62-4.1,7.9,.26,.43,.38,.58,.79,1.03,.67,.74,.82,1.01,.82,1.42,0,.46-.36,.77-.86,.77-.65,0-1.42-.5-2.26-1.51-.48,.58-1.13,1.15-1.92,1.7-.84,.6-1.44,.84-2.04,.84-.72,0-1.1-.43-1.25-1.37-.12-.79-.19-.96-.77-1.54-.48-.5-.74-1.1-.74-1.73,0-.98,.43-2.21,1.1-3.24,.7-1.03,1.49-1.82,2.81-2.78-.55-3-.87-3.77-2.02-4.97l.22-.17Zm-.1,11.45c0,.98,.58,2.02,1.15,2.02s1.58-.67,2.54-1.7c-.7-1.66-1.13-3.19-1.46-5.21-1.54,1.58-2.23,3.1-2.23,4.9Zm4.32-3.82c.24,.79,.48,1.44,.94,2.38,1.18-1.85,2.11-4.01,2.76-6.34-1.92,.29-2.98,.7-4.37,1.68q.14,.43,.67,2.28Z"/><path class="d" d="M266.98,28.53c2.45-1.56,4.34-2.21,6.43-2.21,3.31,0,5.57,1.99,5.57,4.9,0,3.6-3.41,6.24-8.04,6.24-2.74,0-4.54-1.13-4.54-2.86,0-1.44,1.25-2.45,3.05-2.45s3.31,.94,4.3,2.78c1.66-.86,2.5-2.26,2.5-4.15,0-2.16-1.27-3.36-3.58-3.36-1.63,0-3.31,.62-4.82,1.78-.91,.7-2.06,1.9-2.76,2.86-.41,.55-.46,.62-.67,.77-.14,.12-.38,.22-.5,.22-.65,0-1.25-1.06-1.25-2.16,0-.67,.12-.84,1.13-1.66,1.25-1.03,4.63-4.7,6.38-6.96q2.3-2.95,2.3-3.02s-.02-.02-.05-.02h-.02c-.07,.05-.22,.1-.48,.19-.19,.1-.62,.26-1.22,.55-.17,.07-.6,.26-1.2,.53q-.79,.36-1.8,.84c-.48,.24-.77,.34-1.06,.34-.53,0-1.03-.36-1.54-1.13-.46-.72-.7-1.39-.7-1.99,0-.26,.05-.48,.22-.86,.48,1.18,1.2,1.8,2.09,1.8,.65,0,1.99-.29,3.58-.74,1.34-.41,1.73-.58,2.16-.91,.31-.24,.5-.34,.77-.34h.05c.53,.02,1.3,.58,2.06,1.44,.31,.38,.48,.72,.48,1.03s-.14,.48-.77,.82c-.72,.38-.89,.5-2.88,2.4-1.27,1.2-1.78,1.7-3.5,3.53q-1.22,1.3-1.71,1.8l.02,.02Zm1.78,4.78c-.86,0-1.46,.48-1.46,1.15,0,.89,1.13,1.51,2.74,1.51,.53,0,.79-.02,1.54-.19-.46-1.56-1.51-2.47-2.81-2.47Z"/></g><path class="d" d="M18.46,24.48c10.17,.8,15.38,5.22,15.38,12.91,0,8.56-6.62,13.78-17.46,13.78C6.89,51.16,0,46.82,0,40.8c0-2.54,1.87-4.01,5.02-4.01,1.6,0,2.88,.47,3.41,1.27,.4,.54,.4,.67,.54,3.75,.07,1.87,.87,4.15,1.81,5.35,1.07,1.4,3.21,2.27,5.48,2.27,5.55,0,8.69-4.48,8.69-12.24,0-4.61-1.27-7.96-3.68-9.7-1.74-1.27-5.08-2.14-8.7-2.14h-2.01v-2.07h1.87c7.56-.07,11.5-4.01,11.5-11.57,0-6.49-2.47-9.97-7.22-9.97-2.47,0-4.28,.94-5.28,2.81-.8,1.47-1.27,3.41-1.34,5.42-.07,2.21-.2,2.68-.8,3.34-.67,.67-1.87,1-3.48,1-3.08,0-4.68-1.14-4.68-3.28C1.14,4.82,8.03,0,16.92,0c4.75,0,9.1,1.34,11.9,3.68,2.27,1.94,3.68,5.02,3.68,8.23,0,6.55-5.08,10.9-14.04,12.04v.53Z"/></g></g></svg>