<?xml version="1.0" encoding="UTF-8"?><svg xmlns="http://www.w3.org/2000/svg" viewBox="0 0 54.92 137.67"><defs><style>.d{fill:#6a4f3e;}</style></defs><g id="a"/><g id="b"><g id="c"><g><g><path class="d" d="M36.43,11.05c1.17,.29,2.47,.78,3.51,1.38,.86,.49,1.2,1.01,1.2,1.82,0,.65-.26,1.25-.57,1.25-.03,0-.21-.1-.29-.16-.16-.13-.18-.16-.65-.86-.81-1.12-1.74-2-3.2-2.96v5.59q.03,4.76,.08,5.98c-.08,.34-.29,.44-.94,.44h-.34c-.39,0-.49-.05-.57-.26,0-.29,.03-2.29,.08-6.03v-4.52c-1.27,1.3-2.31,2.13-4.11,3.3l-.29-.39c1.69-1.4,2.89-2.65,4.34-4.6,1.46-1.95,2.29-3.35,3.2-5.33h-5.23c-.57,0-.96,.03-1.85,.13l-.18-.96c.7,.16,1.43,.23,2.03,.23h2.08V2.37c0-1.04-.03-1.38-.21-2.26,.57,.05,1.01,.1,1.3,.13,1.25,.1,1.59,.18,1.59,.44,0,.21-.21,.34-.99,.6v3.82h1.46c.52-.6,.7-.75,1.25-1.3,.7,.57,.91,.75,1.53,1.3,.23,.26,.29,.34,.29,.42,0,.21-.13,.26-1.3,.52-1.09,1.95-1.79,2.99-3.22,4.76v.26Zm5.41-1.33c-.55,0-1.04,.05-2.08,.18l-.21-.99c1.07,.18,1.46,.21,2.29,.21h3.69V3.25c0-1.35-.03-2.03-.18-3.25,.55,.08,1.09,.13,1.35,.16,1.35,.13,1.66,.23,1.66,.47,0,.21-.29,.39-1.04,.68v7.83h2.68l1.51-1.95c1.09,.91,1.43,1.2,2.47,2.16,.05,.05,.1,.16,.1,.18,0,.1-.13,.21-.26,.21h-6.5v11.78h3.17c.7-.86,.94-1.14,1.74-2.03,1.07,.91,1.38,1.22,2.42,2.26,.08,.05,.13,.16,.13,.18,0,.1-.13,.18-.26,.18h-13.6c-1.07,0-1.51,.03-2.47,.18l-.23-.99c.91,.13,1.77,.21,2.7,.21h4.6V9.72h-3.69Z"/><path class="d" d="M45.82,39.52c2.11-1.01,3.48-1.9,4.73-3.09,1.87,1.01,2.21,1.22,2.21,1.4,0,.16-.18,.23-.49,.23-.1,0-.6-.03-.94-.03-1.77,.86-3.51,1.48-5.51,1.95v1.48c0,.36,.05,.44,.31,.49,.18,.03,1.43,.08,2.13,.08,.23,0,.62,0,1.3-.03h1.07c.99,0,1.12-.03,1.27-.29,.18-.29,.73-1.64,1.17-2.89l.31,.03-.16,2.05v.6q0,.13,.47,.31c.36,.1,.55,.31,.55,.62,0,.86-.7,.99-5.54,.99-4.19,0-4.42-.08-4.47-1.4v-6.66h-5.36c-.62,.96-.96,1.4-1.59,2.08h3.67c.44-.42,.57-.52,1.04-.91,.6,.47,.78,.6,1.35,1.07,.18,.16,.23,.23,.23,.31,0,.16-.13,.21-1.01,.49-1.72,2.5-3.09,3.77-5.56,5.07-1.82,.96-3.56,1.59-6.03,2.16l-.13-.42c3.02-1.09,4.94-2.08,6.76-3.48-.21-.03-.26-.08-.42-.29-.62-.91-1.38-1.66-2-2.03-1.69,1.33-2.5,1.82-4,2.47l-.23-.36c1.61-1.04,2.68-2,4.13-3.64,.86-.99,1.33-1.61,1.85-2.52h-3.04c-1.12,0-1.3,0-2.21,.16l-.18-1.01c.81,.18,1.48,.26,2.39,.26h16.56c.68-.73,.88-.96,1.59-1.66,.99,.81,1.27,1.07,2.24,1.9,.05,.08,.1,.16,.1,.21,0,.1-.1,.16-.29,.16h-8.27v4.13Zm-.88-8.27c0-.13,.03-.18,.03-.21,0-1.14-.05-1.72-.13-2.18,2.24,.23,2.89,.36,2.89,.6,0,.18-.21,.29-1.09,.52q-.03,.99-.03,1.27h4c.73-.78,.96-1.01,1.66-1.72,1.04,.83,1.38,1.09,2.44,1.95,.05,.08,.1,.16,.1,.21,0,.1-.1,.16-.26,.16h-7.96c0,.55,0,.78,.03,1.48-.03,.31-.26,.36-1.43,.36-.26,0-.31-.05-.31-.23,.03-.83,.05-1.12,.05-1.61h-4.99v.31l-.03,.47c0,.16,.03,.34,.05,.68,0,.16-.03,.21-.1,.26-.1,.08-.68,.13-1.4,.13-.16,0-.23-.05-.26-.21,.05-.88,.08-1.17,.08-1.64h-4.97c-1.09,0-1.3,.03-2.08,.13l-.18-.94c.73,.16,1.25,.21,2.26,.21h4.97c.03-.29,.03-.52,.03-.73,0-.7-.03-.99-.1-1.66,.55,.08,1.01,.13,1.3,.16,1.25,.13,1.53,.21,1.53,.44,0,.18-.23,.29-1.09,.52v1.27h4.99Zm-6.5,14.92c.05-.52,.08-.83,.08-1.27,0-.42-.03-.65-.1-1.12,.55,.08,.96,.16,1.25,.18,1.12,.16,1.56,.29,1.56,.47s-.13,.23-.96,.52c-.08,.78-.08,.88-.13,1.22h4.81c0-1.3-.03-1.33-.1-2.18,2.5,.23,2.7,.26,2.7,.49,0,.18-.05,.21-.91,.57v1.12h3.98c.7-.81,.91-1.04,1.61-1.74,1.07,.81,1.38,1.07,2.39,1.95,.05,.08,.1,.16,.1,.21,0,.08-.13,.18-.23,.18h-7.88v1.59c0,.65,0,.81,.05,3.82,0,.13-.05,.18-.13,.23-.13,.08-.81,.16-1.38,.16-.23,0-.31-.08-.31-.29,.08-1.74,.1-2.47,.1-3.8v-1.72h-4.89c-.34,1.77-.81,2.7-1.74,3.54-1.61,1.43-3.82,2.24-7.02,2.57l-.1-.39c3.04-.75,4.58-1.46,5.69-2.63,.75-.78,1.2-1.69,1.46-3.09h-4.73c-.96,0-1.35,.03-2.03,.16l-.18-.94c.75,.16,1.2,.18,2.21,.18h4.84Zm-1.72-8.11c-.49,.49-.75,.73-1.27,1.17,.49,.08,.96,.21,1.61,.44,.88,.34,1.17,.57,1.17,1.01,0,.31-.08,.52-.21,.75,1.27-1.07,2.03-1.95,2.94-3.38h-4.24Z"/><path class="d" d="M33.73,61.72c1.25,.99,1.85,1.22,3.25,1.22,.83,0,1.59-.1,2.78-.34,.57-1.12,.91-2.08,.91-2.65,0-.7-.49-1.12-1.85-1.46,.44-.23,.68-.29,1.17-.29,.6,0,1.35,.16,2.03,.44,.65,.26,.94,.55,.94,.86,0,.18-.1,.36-.42,.75-.23,.31-.55,.78-.75,1.07q-.47,.75-.65,1.01c2.18-.62,2.89-.94,3.74-1.66,.16-.13,.31-.18,.49-.18,1.01,0,1.74,.36,1.74,.86,0,.31-.34,.57-1.12,.83-2.31,.75-3.56,1.07-5.67,1.48-.47,.65-.78,1.12-1.38,2.03-.7,1.09-.91,1.38-1.4,2.08,1.46-.75,2.37-1.04,3.35-1.04,1.53,0,2.68,1.04,2.91,2.6q.44-.21,2.55-1.27c2.57-1.3,3.2-1.72,3.2-2.18,0-.44-.44-.91-1.2-1.22,.29-.13,.42-.16,.6-.16,1.14,0,2.94,1.59,2.94,2.63,0,.47-.21,.65-.94,.81-1.56,.36-4.94,1.66-6.97,2.68,.03,.83,.03,.99,.03,2.11s-.08,1.98-.21,2.24c-.13,.29-.42,.49-.73,.49-.49,0-.83-.34-.83-.78,0-.13,0-.26,.03-.44,.1-.75,.16-1.64,.18-2.78-1.61,.88-2.37,1.4-3.04,2.05-.86,.83-1.27,1.64-1.27,2.42,0,1.4,1.43,2.08,4.34,2.08,1.82,0,3.64-.26,5.23-.73,.18-.05,.36-.08,.49-.08,.81,0,1.82,.73,1.82,1.3,0,.34-.29,.6-.81,.7-1.07,.21-3.04,.36-4.65,.36-2.44,0-4.24-.26-5.28-.75-1.33-.62-1.92-1.48-1.92-2.76s.6-2.34,1.87-3.56c.68-.65,1.51-1.25,3.22-2.31-.03-1.09-.1-1.51-.36-2.05-.23-.47-.75-.78-1.33-.78-1.72,0-3.77,1.38-5.64,3.77-.49,.68-.7,.83-.96,.83-.42,0-.7-.55-.7-1.38,0-.55,.03-.57,.75-1.17,1.85-1.46,2.99-2.81,4.84-5.59-.86,.13-1.2,.16-1.74,.16-1.77,0-2.68-.47-3.87-2l.29-.23Z"/><path class="d" d="M34.77,96.64c-1.74,1.72-2.39,2.21-4,3.2l-.23-.34c1.64-1.4,2.73-2.68,4.34-5.04,1.14-1.64,1.69-2.65,2.24-4,.57,.23,.99,.42,1.25,.52,1.12,.44,1.35,.57,1.35,.78,0,.23-.34,.36-.99,.36-.03,0-.1,0-.18-.03-1.14,1.61-1.79,2.44-2.89,3.64,1.4,.31,1.72,.42,1.72,.65,0,.18-.1,.23-.83,.47v4.45q0,1.38,.03,4.78v1.9c-.03,.21-.08,.23-.31,.29-.36,.05-.78,.1-1.07,.1-.44,0-.57-.05-.57-.23v-.13c.05-.68,.1-2.78,.16-6.32v-5.04Zm-3.69-4.45c1.35-1.22,2.47-2.47,3.82-4.32,.73-.96,1.2-1.72,1.9-2.99,1.4,.6,2.13,.96,2.37,1.14,.03,.03,.08,.1,.13,.26,0,.16-.26,.29-.55,.29-.16,0-.36-.03-.6-.03-2.18,2.63-4.21,4.42-6.81,5.96l-.26-.31Zm10.22,1.87c-.73,0-1.22,.05-2.29,.18l-.21-1.04c1.12,.23,1.48,.26,2.5,.26h9.67c.68-.83,.88-1.07,1.56-1.85,1.04,.86,1.33,1.14,2.29,2.08,.08,.1,.1,.16,.1,.18,0,.1-.13,.18-.23,.18h-5.2v5.2c0,2.34,0,3.64,.05,6.92v.23c0,.57-.23,.91-.83,1.27-.55,.31-1.14,.49-2.42,.73-.05-.83-.26-1.14-.88-1.43-.26-.1-.68-.21-1.43-.31l-1.74-.26v-.44c2,.13,2.78,.18,4.94,.23,.36-.03,.44-.08,.44-.36v-11.78h-6.32Zm-1.35-7.38c.91,.18,1.61,.26,2.6,.26h6.84c.6-.78,.78-1.01,1.4-1.74,1.04,.78,1.35,1.04,2.39,1.95,.05,.08,.08,.13,.08,.18,0,.1-.16,.21-.31,.21h-10.4c-.94,0-1.4,.03-2.42,.18l-.18-1.04Z"/><path class="d" d="M40.93,137.38c1.53-1.25,2.55-2.31,3.43-3.74,1.35-2.21,2.21-5.23,2.21-7.9s-.94-4.16-2.47-4.16c-1.38,0-3.2,1.12-4.99,3.07-.49,.49-.65,.6-1.07,.6-.55,0-1.17-.42-1.72-1.17-.44-.6-.7-1.27-.7-1.74,0-.34,.1-.57,.42-.96,.23,1.14,.75,1.79,1.43,1.79,.36,0,1.04-.29,2.39-1.01,2.21-1.2,3.07-1.48,4.39-1.48,1.2,0,2.47,.68,3.22,1.74,.62,.91,.99,2.26,.99,3.82,0,3.07-1.17,6.11-3.22,8.4-1.27,1.4-2.6,2.39-4.08,3.04l-.23-.29Zm-1.43-23.64c1.27,1.07,3.04,1.66,4.86,1.66h.6c.52,0,.88,.18,1.4,.62,.36,.31,.55,.62,.55,.88,0,.36-.36,.57-1.07,.57q-1.09,.03-6.47,1.59l-.13-.36c1.95-.88,3.74-1.69,4.39-1.92-2.13-.44-3.41-1.25-4.39-2.83l.26-.21Z"/></g><g><path class="d" d="M18.3,2.65c.68-.75,.86-.99,1.51-1.69,1.01,.81,1.3,1.07,2.29,1.92,.08,.1,.1,.16,.1,.21,0,.08-.1,.16-.23,.16h-6.29c2.08,.86,2.31,.99,2.31,1.17,0,.21-.31,.29-1.22,.34-.55,.62-.86,.94-1.77,1.82-.18,.16-.26,.21-.44,.39h5.25c.49-.62,.96-1.22,1.4-1.79,1.07,.81,1.4,1.07,2.42,1.95,.13,.1,.18,.18,.18,.26,0,.1-.1,.18-.23,.18H2.18c-.39,0-1.35,.13-1.87,.23l-.31-1.04c.57,.1,1.66,.21,2.21,.21h5.8c-.23-.21-.29-.31-.49-.96-.31-1.12-.6-1.72-1.2-2.57l.21-.18h-2.31c-.49,0-1.51,.1-2.18,.21l-.26-1.04c.65,.13,1.74,.23,2.39,.23h6.68V1.4c0-.29-.03-.36-.13-1.4,2.29,.16,2.99,.29,2.99,.55,0,.21-.18,.34-1.12,.68v1.43h5.72ZM4.5,17.55c-.08,1.66-.49,2.94-1.27,3.98-.6,.78-1.48,1.46-1.95,1.46-.42,0-.7-.55-.7-1.27,0-.65,.08-.73,.86-1.12,1.48-.75,2.13-1.53,2.52-3.07l.55,.03Zm13.7-9.31c.65,.42,.86,.57,1.46,1.04,.18,.13,.26,.23,.26,.34,0,.16-.18,.31-.68,.65v1.33c0,.91,0,1.82,.05,4.08v.13s.03,.05,.03,.05c0,.13-.08,.23-.21,.29-.1,.05-.83,.13-1.3,.13-.18,0-.26-.08-.26-.26v-.75H6.21v.6c0,.36-.13,.44-.88,.49-.23,0-.42,.03-.44,.03h-.08c-.21,0-.29-.08-.34-.26,.03-1.09,.05-3.07,.05-4.91,0-1.22-.05-2.11-.1-3.07,.94,.47,1.22,.62,2.11,1.14h10.76l.91-1.04Zm-.65,1.64H6.21v2.03h11.34v-2.03Zm-11.34,2.63v2.16h11.34v-2.16H6.21Zm.47,5.88c0-.83-.03-1.01-.1-1.64,2.29,.21,2.7,.31,2.7,.57,0,.18-.1,.23-.88,.6v2.94c0,.44,.1,.55,.55,.55h.75c.62,.05,1.01,.05,1.77,.05,2.68,0,3.8-.03,4-.08,.29-.08,.39-.21,.65-.86,.47-1.27,.65-1.74,.99-2.99l.42,.1-.21,2.6c-.03,.21-.03,.36-.03,.44,0,.26,.05,.34,.68,.6,.31,.16,.44,.31,.44,.57,0,.36-.26,.65-.7,.78-.6,.18-2.47,.26-5.46,.26q-4.37,0-4.78-.21c-.57-.29-.78-.73-.78-1.64v-2.65Zm.05-15.13c1.4,.96,1.64,1.14,1.92,1.46,.36,.36,.55,.68,.55,1.01,0,.47-.31,.94-.83,1.25h5.54c.52-.96,1.12-2.5,1.43-3.72H6.73Zm3.72,12.58c1.12,.47,2.03,.88,2.7,1.27,.91,.49,1.17,.78,1.17,1.4,0,.83-.26,1.46-.6,1.46-.21,0-.31-.1-.6-.6-.62-1.09-1.79-2.37-2.91-3.28l.23-.26Zm8.24,1.25c1.56,.83,2.76,1.66,3.54,2.42,.6,.6,.81,.96,.81,1.38,0,.86-.47,1.72-.94,1.72-.23,0-.44-.26-.73-.88-.81-1.79-1.74-3.2-2.91-4.39l.23-.23Z"/><path class="d" d="M13.44,32.34c.68-.91,1.38-2.21,1.82-3.35,1.95,.55,2.55,.81,2.55,1.04,0,.26-.29,.36-1.17,.42-1.3,1.12-1.72,1.43-2.47,1.9h4.42c.62-.7,.81-.91,1.43-1.61,.96,.75,1.25,1.01,2.16,1.85,.05,.08,.1,.16,.1,.21,0,.1-.1,.16-.29,.16H12.22v2.37h5.2c.52-.65,.7-.86,1.27-1.56,.86,.73,1.12,.96,1.95,1.69,.13,.16,.18,.23,.18,.31,0,.1-.13,.16-.34,.16H12.22v2.37h7.51c.62-.73,.83-.94,1.46-1.66,.96,.75,1.22,.99,2.05,1.79,.08,.13,.16,.26,.16,.31,0,.1-.1,.16-.39,.16H2.73c-1.09,0-1.4,.03-2.44,.18l-.23-1.01c.81,.13,1.79,.23,2.68,.23h7.77v-2.37H4.81c-.49,0-1.64,.1-2.11,.18l-.21-1.04c.7,.18,1.48,.26,2.31,.26h5.69v-2.37H3.69c-.78,0-1.33,.03-2.31,.16l-.21-1.01c.91,.18,1.72,.26,2.52,.26h3.87c-.16-.18-.18-.23-.29-.55-.29-.83-.83-1.79-1.53-2.65l.23-.26c.86,.36,1.51,.7,2.26,1.25,.44,.31,.7,.68,.7,.96,0,.44-.26,.99-.62,1.25h5.12Zm-5.77,14.2c1.77-.29,2.76-.49,4.68-.94l.05,.36c-1.79,.7-2.86,1.04-4.73,1.59v3.2c0,1.04-.68,1.53-2.63,1.87-.16-1.07-.55-1.3-3.12-1.69v-.36q1.2,.08,3.72,.13c.36-.03,.42-.05,.42-.34v-2.39c-1.22,.29-1.38,.34-3.93,.86-.16,.57-.26,.78-.42,.78-.23,0-.31-.18-.86-2.26,1.07-.03,1.48-.08,5.2-.55v-2.44l-3.22,.1c-1.04,.03-1.61,.1-2.39,.23l-.23-1.04c.7,.13,1.64,.21,2.42,.21h.23l3.2-.1v-2.03c-1.66,.29-2.55,.36-4.55,.36l-.08-.34c1.82-.23,2.81-.44,4.42-.99,1.53-.55,2.21-.83,3.07-1.38,.44,.26,.75,.49,.96,.62,.91,.57,1.07,.7,1.07,.88,0,.13-.1,.21-.29,.21-.23,0-.57-.08-1.09-.21-.94,.26-1.14,.34-1.9,.52v2.29l5.43-.16c-.18-.75-.29-1.35-.39-2.16q-.13-1.3-.21-1.79c1.95,.18,2.63,.31,2.63,.57,0,.18-.05,.21-.94,.52,.16,1.48,.26,2,.44,2.81l5.02-.13c.6-.7,.78-.91,1.43-1.59,.91,.68,1.22,.88,2.13,1.59,.08,.08,.1,.16,.1,.21,0,.13-.13,.23-.29,.23l-8.24,.26c.39,1.22,.81,2,1.56,3.02,1.22-.94,1.59-1.33,2.13-2.21,1.87,.7,2.29,.91,2.29,1.12,0,.18-.26,.31-.68,.31-.16,0-.36,0-.57-.03-1.01,.88-1.4,1.22-2.29,1.82,.81,.81,1.51,1.33,2.31,1.74,.13,.05,.68,.31,1.64,.73,.57-1.07,.68-1.27,1.14-2.34l.7-1.69,.34,.13-.68,3.09c-.05,.21-.08,.36-.08,.52-.03,.16-.03,.26-.05,.31v.03c0,.13,.03,.16,.57,.49,.18,.1,.34,.34,.34,.55,0,.44-.44,.75-1.07,.75s-1.56-.29-2.57-.75c-1.59-.73-2.7-1.53-3.87-2.76-2.39,1.35-4.13,1.98-7.41,2.65l-.13-.42c3.28-1.07,4.34-1.56,6.76-3.2-.91-1.22-1.48-2.34-1.92-3.82l-5.59,.18v2.24Zm8.48-6.84c2.65,.91,3.2,1.27,3.2,2.08,0,.68-.29,1.25-.62,1.25-.21,0-.34-.13-.57-.47-.57-.91-1.2-1.64-2.21-2.55l.21-.31Z"/><path class="d" d="M7.85,58.51c.78,0,2,.23,2.63,.49,.52,.21,.73,.47,.73,.83v.05c0,.21-.03,.21-.21,.68-.31,.88-.57,3.12-.57,5.28,0,1.53,.21,1.92,1.01,1.92,.55,0,1.12-.21,3.48-1.33,.47-.23,.75-.31,1.07-.31,.62,0,1.25,.55,1.25,1.09,0,.34-.18,.62-.55,.78-.18,.08-.55,.21-1.74,.55-3.15,.88-4.86,1.66-6.5,2.91-1.4,1.09-2.03,2.11-2.03,3.33,0,1.87,1.48,2.83,4.37,2.83,1.61,0,4.16-.31,6.03-.75,.26-.05,.36-.08,.52-.08,.68,0,1.4,.65,1.4,1.27,0,.47-.29,.7-1.12,.86-.83,.16-3.43,.34-4.99,.34-1.9,0-3.33-.21-4.42-.6-1.74-.65-2.83-2.13-2.83-3.85,0-1.51,.83-2.94,2.55-4.37,.78-.68,1.64-1.25,3.17-2.08-.57,0-.81-.08-1.25-.39-.39-.29-.62-.86-.75-1.98-.08-.62-.1-1.2-.18-3.15-.08-2.21-.1-2.6-.31-2.99-.29-.49-.78-.75-1.87-.94,.39-.34,.6-.42,1.12-.42Z"/><path class="d" d="M5.67,107.47c-.05,.21-.13,.29-.29,.31-.26,.05-.88,.1-1.25,.1-.26,0-.39-.08-.49-.31,.13-4.63,.16-7.72,.16-12.79,0-4.37-.03-6.73-.16-9.62,1.04,.6,1.38,.78,2.39,1.48h11.34q.52-.52,1.17-1.22c.68,.52,.88,.7,1.53,1.22,.18,.16,.26,.26,.26,.34,0,.18-.16,.31-.83,.78q0,15.6,.16,19.58c-.05,.23-.1,.31-.23,.39-.1,.08-.78,.13-1.35,.13-.23,0-.31-.08-.39-.31v-1.77H5.67v1.69Zm12.01-20.23H5.67v5.41h12.01v-5.41Zm-12.01,6.01v5.36h12.01v-5.36H5.67Zm0,5.98v5.95h12.01v-5.95H5.67Z"/><path class="d" d="M7.54,118.9c.42-.47,.52-.62,.94-1.09,.57,.44,.75,.6,1.35,1.09,.18,.18,.26,.26,.26,.36,0,.16-.16,.26-.88,.62-.03,1.64-.03,2.76-.03,3.33,0,5.46,.03,9.88,.05,11.67v.13c0,.21-.18,.29-.86,.31-.21,0-.34,.03-.42,.03h-.08c-.23,0-.34-.08-.34-.26v-1.51H2.91v2.18c-.05,.31-.18,.36-.88,.36h-.34c-.39,0-.47-.03-.47-.29,.1-2.91,.1-3.8,.1-8.29,0-5.8-.03-7.25-.16-9.98,.88,.52,1.12,.7,1.95,1.33h.73c.83-2.94,.99-3.69,1.04-4.97,1.07,.29,2.34,.65,2.68,.81,.16,.08,.23,.16,.23,.26,0,.26-.16,.34-1.22,.47-.78,1.56-1.17,2.16-2.18,3.43h3.15Zm0,6.47v-5.88H2.91v5.88H7.54Zm-4.63,.6v7.02H7.54v-7.02H2.91Zm17.68-7.07c.49-.57,.65-.73,1.14-1.27,.68,.57,.88,.75,1.53,1.33,.21,.18,.26,.29,.26,.44,0,.23-.05,.26-.96,.73-.13,6.03-.16,6.6-.57,9.85-.39,3.02-.88,4.86-1.59,5.8-.49,.65-.86,.81-3.04,1.2-.23-.88-.42-1.2-.83-1.46-.23-.16-.68-.29-1.35-.39l-.75-.08c-.26-.03-.49-.05-.73-.1v-.44c.49,.03,.94,.05,1.2,.08,1.51,.08,1.87,.08,2.52,.08,1.46,0,1.56-.03,1.79-.47,.39-.81,.81-2.78,1.07-4.91,.36-3.02,.49-5.54,.49-9.78h-7.05c-1.59,3.07-2.39,4.32-3.69,5.77l-.34-.21c1.25-2.05,2-3.74,2.83-6.21,.68-2.08,1.04-3.56,1.17-5.07,1.17,.26,2.44,.6,2.76,.73,.18,.05,.26,.16,.26,.26,0,.21-.21,.31-1.2,.55-.44,1.38-.73,2.05-1.48,3.59h6.55Zm-7.62,4.03c1.87,1.22,2.81,1.95,3.8,2.96,.7,.7,.94,1.2,.94,1.87,0,.99-.42,1.92-.88,1.92-.21,0-.39-.18-.55-.6-.31-.88-.68-1.66-1.2-2.68-.73-1.43-1.2-2.08-2.31-3.22l.21-.26Z"/></g></g></g></g></svg>