<?xml version="1.0" encoding="UTF-8"?><svg id="_イヤー_2" xmlns="http://www.w3.org/2000/svg" viewBox="0 0 561.73 744.81"><g id="main"><g><g><path d="M454.53,11.95c.82,1.27,2.34,1.85,4.34,1.92,1.82,.08,5.63,.03,7.58-.08-.13,.25-.32,.75-.35,1.08-1.84,.07-5.38,.1-7.21,.03-2.22-.08-3.76-.68-4.81-2-.75,.73-1.52,1.45-2.34,2.17l-.6-1.05c.7-.55,1.57-1.25,2.34-1.97V7.63h-2.17v-1.05h3.22v5.38Zm-.38-8.1c-.48-.83-1.62-2-2.65-2.8l.85-.62c1.04,.77,2.19,1.92,2.7,2.74l-.9,.68Zm6.06,7.88h-4.84v-.87h4.84v-1.1h-3.64V5.07h3.64v-1.08h-4.21v-.85h4.21V1.92h1.08v1.22h4.26v.85h-4.26v1.08h3.74v4.69h-3.74v1.1h4.94v.87h-4.94v1.67h-1.08v-1.67Zm-3.54-8.96h-1V.62h10.25V2.77h-1.04V1.49h-8.21v1.29Zm.87,4.26h2.67v-1.17h-2.67v1.17Zm2.67,1.95v-1.2h-2.67v1.2h2.67Zm1.08-3.12v1.17h2.74v-1.17h-2.74Zm2.74,1.92h-2.74v1.2h2.74v-1.2Z" fill="#42210b"/><path d="M483.13,2.65v3.22h-1.07V3.62h-11.57v2.25h-1.04V2.65h2.39c-.32-.6-.87-1.39-1.39-1.99l.94-.42c.62,.67,1.29,1.59,1.57,2.19l-.45,.22h3.34c-.22-.65-.77-1.59-1.25-2.3l.95-.35c.53,.72,1.1,1.72,1.34,2.37l-.74,.28h3.07c.6-.72,1.35-1.74,1.75-2.49l1.12,.42c-.5,.7-1.08,1.45-1.63,2.07h2.67Zm-6.56,6.14c-.18,.47-.37,.95-.55,1.39h5.94v5.02h-1.1v-.62h-9.05v.65h-1.05v-5.06h4.21c.13-.43,.28-.95,.38-1.39h-3.47v-3.81h8.81v3.81h-4.12Zm4.29,2.37h-9.05v2.42h9.05v-2.42Zm-7.95-3.26h6.71v-2.05h-6.71v2.05Z" fill="#42210b"/><path d="M500.97,13.59v1.08h-14.77v-1.08h6.76v-4.26h-5.24v-1.07h5.24v-3.81h-5.98v-1.07h7.48c-.65-.78-1.89-1.89-2.92-2.67l.9-.62c1.08,.78,2.4,1.94,3.04,2.72l-.78,.57h5.44v1.07h-6.01v3.81h5.33v1.07h-5.33v4.26h6.84Z" fill="#42210b"/><path d="M507.9,.38c-.42,1.22-.93,2.45-1.52,3.61V15.21h-1.05V5.81c-.47,.77-.99,1.45-1.5,2.05-.1-.27-.43-.82-.65-1.08,1.49-1.64,2.85-4.14,3.69-6.69l1.04,.3Zm6.21,4.14c1.02,2.84,2.75,5.66,4.59,7.08-.25,.2-.63,.58-.85,.88-1.79-1.59-3.46-4.49-4.49-7.44v6.04h2.77v1h-2.77v3.07h-1.07v-3.07h-2.84v-1h2.84V5.11c-1.08,2.99-2.77,5.81-4.57,7.41-.2-.25-.55-.63-.8-.83,1.84-1.45,3.62-4.31,4.66-7.16h-4.06v-1.07h4.77V.07h1.07V3.46h5.06v1.07h-4.31Z" fill="#42210b"/><path d="M523.82,2.3c-.35,1.64-.83,4.87-.83,6.78,0,.9,.05,1.65,.18,2.55,.27-.78,.7-1.89,.99-2.6l.62,.5c-.38,1.12-1.02,2.82-1.18,3.62-.05,.23-.08,.55-.07,.75,.02,.17,.03,.4,.05,.57l-1.05,.08c-.32-1.2-.62-3.02-.62-5.28,0-2.45,.57-5.64,.77-7.03,.07-.38,.1-.78,.1-1.12l1.32,.12c-.1,.27-.22,.75-.27,1.05Zm8.43-.17c-.03,.47-.03,1.29-.05,2.07,1.04-.08,2.04-.2,2.94-.38v1.15c-.93,.15-1.92,.27-2.94,.33,.02,1.69,.13,3.42,.2,4.87,1.35,.52,2.44,1.35,3.32,2.15l-.65,1c-.87-.82-1.72-1.5-2.62-1.99v.47c0,1.29-.6,2.64-2.82,2.64s-3.41-.88-3.41-2.35c0-1.34,1.2-2.44,3.37-2.44,.58,0,1.14,.07,1.65,.17-.07-1.33-.17-3.05-.18-4.46-.55,.02-1.12,.03-1.69,.03-.95,0-1.8-.05-2.77-.12l-.02-1.12c.95,.08,1.84,.13,2.82,.13,.55,0,1.1-.02,1.65-.03V2.17c0-.3-.02-.73-.07-1.02h1.35c-.05,.33-.08,.67-.1,.98Zm-2.85,11.23c1.47,0,1.9-.73,1.9-1.87,0-.18,0-.4-.02-.65-.57-.17-1.15-.27-1.79-.27-1.3,0-2.22,.57-2.22,1.42s.87,1.37,2.12,1.37Z" fill="#42210b"/><path d="M545.99,4.46c0-1.19-.83-2.07-2.6-2.07-1.17,0-2.25,.52-3.25,1.55l-.8-.75c1.1-1.15,2.37-1.92,4.19-1.92,2.34,0,3.81,1.22,3.81,3.09,0,2.54-4.04,3.09-3.57,5.63h-1.22c-.55-2.8,3.46-3.57,3.46-5.53Zm-3.82,8.56c0-.63,.47-1.07,1-1.07s1,.43,1,1.07-.45,1.02-1,1.02-1-.38-1-1.02Z" fill="#42210b"/></g><rect y="592.54" width="138.56" height="152.27" fill="#004d33"/><rect x="206.09" y="592.54" width="138.56" height="152.27" fill="#833639"/><rect x="423.17" y="297.54" width="138.56" height="152.27" fill="#3a4080"/><circle cx="275.28" cy="171.19" r="49.66" fill="#42210b"/><circle cx="69.6" cy="435.41" r="62.59" fill="#42210b"/><circle cx="275.36" cy="435.41" r="62.59" fill="#42210b"/><g><rect x="490.98" y="35.94" width="2.83" height="61.93" fill="#42210b"/><polygon points="499.46 95.8 492.39 108.04 485.33 95.8 499.46 95.8" fill="#42210b"/></g><g><rect x="491.28" y="240.11" width="2.83" height="30.1" fill="#42210b"/><polygon points="499.76 268.14 492.7 280.38 485.63 268.14 499.76 268.14" fill="#42210b"/></g><g><polygon points="277.85 100.37 275.01 100.37 275.01 64.68 493.28 64.68 493.28 67.51 277.85 67.51 277.85 100.37" fill="#42210b"/><polygon points="283.5 98.3 276.43 110.54 269.37 98.3 283.5 98.3" fill="#42210b"/></g><g><rect x="273.98" y="240.04" width="2.83" height="96.83" fill="#42210b"/><polygon points="282.46 334.8 275.39 347.04 268.33 334.8 282.46 334.8" fill="#42210b"/></g><g><rect x="273.98" y="521.04" width="2.83" height="46.83" fill="#42210b"/><polygon points="282.46 565.8 275.39 578.04 268.33 565.8 282.46 565.8" fill="#42210b"/></g><g><rect x="68.36" y="521.54" width="2.83" height="46.83" fill="#42210b"/><polygon points="76.85 566.3 69.78 578.54 62.71 566.3 76.85 566.3" fill="#42210b"/></g><g><polygon points="77.85 339.37 75.01 339.37 75.01 303.68 276.28 303.68 276.28 306.51 77.85 306.51 77.85 339.37" fill="#42210b"/><polygon points="83.5 337.3 76.43 349.54 69.37 337.3 83.5 337.3" fill="#42210b"/></g><g><path d="M266.75,148.99c1.84,2.69,4.62,5,7.34,6.17-.51,.53-.97,1.19-1.36,1.82-2.63-1.46-5.47-3.91-6.94-6-1.38,2.07-4,4.44-6.8,6.02-.25-.46-.83-1.21-1.27-1.63,2.94-1.51,5.68-4.22,6.95-6.37h2.07Zm.29,13.65h6.09v1.84h-14.47v-1.84h1.85v-5.9h1.99v5.9h2.41v-8.82h2.12v3.64h4.56v1.79h-4.56v3.4Z" fill="#fff"/><path d="M286.21,161.06c1.45,.88,3.42,1.55,5.39,1.85-.46,.44-1.05,1.29-1.36,1.84-2.09-.53-4.15-1.55-5.71-2.87v3.06h-1.99v-2.96c-1.58,1.24-3.67,2.23-5.69,2.75-.29-.49-.87-1.27-1.29-1.68,1.9-.39,3.91-1.1,5.37-1.99h-4.88v-1.67h6.49v-.75h-4.9v-1.46h4.9v-.76h-5.75v-1.58h3.23c-.13-.42-.36-.94-.58-1.33l.2-.03h-3.55v-1.65h2.28c-.24-.65-.68-1.46-1.05-2.11l1.73-.59c.49,.73,1.05,1.73,1.29,2.4l-.83,.31h1.55v-2.77h1.89v2.77h1.26v-2.77h1.9v2.77h1.51l-.61-.19c.41-.7,.83-1.72,1.07-2.46l2.12,.51c-.48,.78-.93,1.55-1.33,2.14h2.21v1.65h-3.2c-.27,.49-.54,.95-.8,1.36h3.33v1.58h-5.9v.76h5.1v1.46h-5.1v.75h6.61v1.67h-4.93Zm-4.62-7.58c.24,.44,.46,.95,.58,1.31l-.29,.05h3.18c.2-.41,.41-.9,.59-1.36h-4.06Z" fill="#fff"/><path d="M265.48,188.29v1.99h-15.21v-1.99h6.46v-3.28h-4.84v-1.96h4.84v-2.94h-5.75v-1.97h6.8c-.71-.7-1.73-1.48-2.55-2.07l1.67-1.16c1.09,.7,2.55,1.78,3.26,2.57l-.9,.66h5.39v1.97h-5.7v2.94h4.88v1.96h-4.88v3.28h6.53Z" fill="#fff"/><path d="M272.72,175.57c-.38,1.09-.83,2.19-1.36,3.28v11.92h-1.92v-8.64c-.34,.46-.7,.92-1.04,1.33-.19-.49-.75-1.6-1.12-2.11,1.43-1.55,2.75-3.96,3.52-6.36l1.92,.58Zm6.88,4.3c.93,2.62,2.5,5.27,4.15,6.82-.46,.36-1.16,1.04-1.51,1.56-.48-.53-.92-1.12-1.36-1.8v1.5h-2.28v2.74h-1.97v-2.74h-2.23v-1.56c-.47,.73-.97,1.38-1.51,1.92-.34-.48-.99-1.19-1.45-1.53,1.72-1.53,3.3-4.22,4.23-6.9h-3.35v-1.92h4.3v-2.94h1.97v2.94h4.69v1.92h-3.69Zm-2.97,6.27v-4.32c-.56,1.56-1.27,3.06-2.07,4.32h2.07Zm4.06,0c-.8-1.31-1.51-2.84-2.09-4.44v4.44h2.09Z" fill="#fff"/><path d="M286.77,177.58c1.43-.12,4.23-.37,7.34-.63,1.75-.15,3.6-.25,4.81-.31l.02,2.18c-.92,.02-2.38,.02-3.28,.24-2.06,.54-3.6,2.74-3.6,4.76,0,2.8,2.62,3.81,5.51,3.96l-.8,2.33c-3.57-.24-6.94-2.14-6.94-5.83,0-2.45,1.38-4.39,2.53-5.25-1.6,.17-5.07,.54-7.04,.97l-.22-2.33c.68-.02,1.34-.05,1.67-.08Zm11.1,5.22l-1.29,.58c-.42-.94-.78-1.6-1.33-2.36l1.26-.53c.43,.61,1.04,1.65,1.36,2.31Zm1.97-.83l-1.27,.61c-.46-.92-.85-1.55-1.39-2.29l1.24-.58c.43,.6,1.07,1.6,1.43,2.26Z" fill="#fff"/></g><g><path d="M48.97,397.3c0,2.58-.25,6.49-1.75,8.92-.31-.34-1.11-.95-1.51-1.14,1.33-2.24,1.43-5.46,1.43-7.8v-4.71h1.8c-.27-.46-.63-.95-.97-1.36l1.7-.87c.51,.56,1.11,1.34,1.34,1.87l-.68,.36h2.82c-.2-.53-.56-1.17-.9-1.65l1.68-.68c.44,.58,.92,1.36,1.1,1.9l-.99,.42h3.23l-.63-.2c.49-.59,1.11-1.5,1.43-2.14l2.06,.58c-.49,.66-1,1.27-1.45,1.77h2.77v1.7h-12.49v3.03Zm12,.54c-.32,1.87-.82,3.45-1.55,4.79,.68,.88,1.53,1.6,2.55,2.07-.39,.36-.93,1.05-1.19,1.53-.95-.51-1.73-1.22-2.38-2.07-.7,.82-1.51,1.51-2.5,2.09-.2-.36-.8-1.1-1.16-1.43,1.12-.58,2.01-1.33,2.69-2.26-.34-.68-.63-1.43-.87-2.21-.17,.31-.36,.58-.54,.83-.27-.32-.9-.97-1.29-1.27v6.27h-1.63v-1.26c-1.46,.19-2.92,.37-4.11,.51l-.36-1.6c.36-.02,.75-.05,1.17-.09v-5.18h-.58v-1.46h2.19v-.82h-1.84v-1.41h5.56v1.41h-1.97v.82h2.16v1.46h-.59v1.26c.99-1.26,1.55-3.23,1.82-5.3l1.77,.29c-.08,.49-.17,.97-.27,1.44h3.52v1.58h-.59Zm-9.54,.73v.76h1.67v-.76h-1.67Zm0,2.84h1.67v-.82h-1.67v.82Zm1.67,2.06v-.8h-1.67v.95l1.67-.15Zm4.42-5.29c.2,.95,.49,1.84,.87,2.65,.36-.88,.63-1.89,.8-2.99h-1.55l-.12,.34Z" fill="#fff"/><path d="M70.54,392.7c-.12,.51-.24,1.14-.36,1.75,.56-.03,1.07-.07,1.43-.07,1.8,0,3.08,.8,3.08,3.25,0,2.01-.24,4.76-.97,6.24-.56,1.19-1.51,1.56-2.79,1.56-.66,0-1.46-.12-2.04-.24l-.37-2.24c.66,.19,1.63,.36,2.09,.36,.56,0,1-.17,1.27-.73,.46-.97,.68-3.03,.68-4.71,0-1.36-.58-1.55-1.65-1.55-.27,0-.7,.03-1.17,.07-.65,2.58-1.9,6.61-3.47,9.11l-2.21-.88c1.65-2.23,2.82-5.66,3.43-7.99-.61,.07-1.14,.14-1.46,.17-.47,.08-1.38,.2-1.89,.29l-.2-2.31c.61,.05,1.19,.02,1.82,0,.53-.02,1.33-.07,2.19-.14,.24-1.29,.37-2.53,.36-3.6l2.53,.25c-.1,.44-.22,.99-.3,1.41Zm9.14,6.51l-2.16,1c-.44-1.89-1.65-4.96-2.86-6.46l2.02-.87c1.05,1.46,2.48,4.71,2.99,6.32Z" fill="#fff"/><path d="M85.01,393.21c-.22,1.14-.82,4.54-.82,6.24,0,.32,.02,.77,.07,1.1,.25-.58,.53-1.17,.76-1.73l1.05,.83c-.48,1.41-1.04,3.26-1.22,4.16-.05,.25-.08,.63-.08,.8,0,.19,.02,.46,.03,.7l-1.97,.14c-.34-1.17-.66-3.25-.66-5.56,0-2.55,.53-5.42,.71-6.73,.05-.48,.15-1.12,.17-1.67l2.38,.2c-.14,.36-.36,1.21-.42,1.51Zm4.2,8.31c0,.75,.65,1.21,2.38,1.21,1.51,0,2.77-.14,4.27-.44l.03,2.29c-1.11,.2-2.46,.32-4.39,.32-2.92,0-4.33-1.04-4.33-2.79,0-.66,.1-1.34,.29-2.21l1.96,.19c-.14,.56-.2,.97-.2,1.43Zm6.15-8.7v2.19c-2.09,.19-5.17,.2-7.31,0v-2.18c2.09,.29,5.47,.2,7.31-.02Z" fill="#fff"/><path d="M28.06,416.78c-.42,1.16-.97,2.33-1.56,3.43v11.83h-1.9v-8.84c-.32,.43-.65,.82-.99,1.17-.17-.46-.7-1.5-1-1.99,1.44-1.48,2.84-3.82,3.67-6.17l1.78,.56Zm10.2,10.91c-.51,.75-1.17,1.43-1.9,2.04,.27,.44,.58,.7,.9,.7,.27,0,.37-.31,.44-1.16,.34,.34,.85,.61,1.26,.75-.24,1.65-.71,2.06-1.84,2.07-.87,0-1.56-.49-2.12-1.34-.65,.42-1.31,.78-1.97,1.09-.24-.32-.78-.99-1.12-1.27,.83-.32,1.67-.73,2.41-1.21-.25-.66-.44-1.43-.6-2.28h-2.4v.7l1.8-.17,.03,1.39-1.84,.2v1.17c0,.8-.15,1.16-.68,1.39-.54,.24-1.26,.24-2.28,.24-.05-.42-.27-1.04-.48-1.44,.56,.03,1.22,.03,1.41,.02,.2-.02,.27-.07,.27-.25v-.94l-2.45,.25-.14-1.48c.73-.05,1.62-.14,2.58-.22v-.87h-2.46v-1.36h2.46v-.75c-.7,.07-1.38,.12-2.02,.14-.05-.32-.22-.83-.39-1.17,1.7-.12,3.69-.37,4.86-.71l1,1.17c-.51,.14-1.09,.25-1.7,.36v.97h2.21c-.08-.73-.14-1.5-.15-2.29h1.77c0,.8,.05,1.58,.12,2.29h1.87c-.39-.48-1.16-1.14-1.82-1.6l1.19-.87c.65,.44,1.5,1.1,1.9,1.55l-1.24,.92h1.63v1.36h-3.33c.08,.42,.17,.82,.27,1.19,.37-.36,.7-.71,.97-1.1l1.55,.53Zm-8.38-9.91c-.2-.36-.46-.73-.7-1.05l1.6-.56c.42,.46,.85,1.12,1.09,1.61h2.14c.32-.49,.66-1.17,.85-1.63l1.97,.53c-.29,.41-.58,.78-.85,1.1h2.21v1.31h-4.33v.63h3.77v1.27h-3.77v.68h4.81v1.38h-11.41v-1.38h4.62v-.68h-3.59v-1.27h3.59v-.63h-4.15v-1.31h2.14Z" fill="#fff"/><path d="M51.52,421.05c.36,4.96,1.39,8.89,2.63,8.89,.36,0,.56-.9,.65-3.06,.46,.48,1.21,.97,1.77,1.19-.3,3.21-.99,3.99-2.6,3.99-2.91,0-4.18-5.03-4.59-11.02h-8.45v-1.97h8.35c-.04-.92-.05-1.87-.05-2.8h2.18c-.02,.94-.02,1.89,.02,2.8h2.69c-.46-.58-1.31-1.27-1.99-1.78l1.34-1.1c.76,.53,1.77,1.33,2.23,1.89l-1.16,1h1.6v1.97h-4.61Zm-5.37,7.63c1.04-.19,2.12-.39,3.16-.59l.15,1.8c-2.79,.61-5.78,1.22-7.97,1.7l-.56-2.04c.87-.14,1.99-.31,3.21-.51v-4.1h-2.57v-1.95h7.29v1.95h-2.72v3.74Z" fill="#fff"/><path d="M64.42,421.75c1.39-.82,2.87-1.55,3.67-2.01,.65-.37,1.14-.66,1.58-1.04l1.17,1.97c-.51,.31-1.05,.6-1.68,.92-1.05,.53-3.2,1.51-4.74,2.52-1.41,.94-2.36,1.9-2.36,3.09s1.17,1.87,3.54,1.87c1.75,0,4.05-.26,5.56-.63l-.03,2.45c-1.45,.25-3.25,.42-5.46,.42-3.38,0-5.95-.94-5.95-3.86,0-1.87,1.19-3.28,2.82-4.49-.78-1.44-1.6-3.26-2.36-5.07l2.12-.87c.65,1.77,1.45,3.4,2.12,4.71Z" fill="#fff"/><path d="M77.6,419.37c-.07,1.84-.2,5.64-.2,7.75,0,1.72,1.02,2.28,2.35,2.28,2.8,0,4.59-1.61,5.81-3.47l1.55,1.87c-1.09,1.63-3.5,3.91-7.38,3.91-2.79,0-4.59-1.22-4.59-4.13,0-2.28,.17-6.75,.17-8.21,0-.8-.07-1.61-.22-2.29l2.74,.03c-.1,.71-.19,1.58-.22,2.26Z" fill="#fff"/><path d="M89.77,418.81c1.41-.12,4.22-.37,7.33-.65,1.75-.14,3.62-.25,4.81-.29l.02,2.18c-.92,.02-2.38,.02-3.28,.22-2.06,.54-3.59,2.75-3.59,4.78,0,2.79,2.62,3.81,5.49,3.96l-.8,2.33c-3.55-.24-6.92-2.16-6.92-5.83,0-2.45,1.38-4.39,2.52-5.25-1.6,.17-5.07,.54-7.04,.97l-.22-2.33c.68-.02,1.34-.05,1.68-.08Z" fill="#fff"/><path d="M112.43,431.38l-1.27-2.02c.65-.07,1.12-.17,1.58-.27,2.18-.51,3.88-2.07,3.88-4.56,0-2.35-1.27-4.1-3.57-4.49-.24,1.44-.53,3.01-1.02,4.61-1.02,3.43-2.48,5.54-4.33,5.54s-3.45-2.07-3.45-4.95c0-3.93,3.4-7.28,7.8-7.28s6.87,2.92,6.87,6.63-2.19,6.12-6.48,6.78Zm-4.67-3.81c.71,0,1.38-1.07,2.07-3.37,.39-1.26,.71-2.7,.9-4.11-2.8,.58-4.32,3.06-4.32,4.93,0,1.72,.68,2.55,1.34,2.55Z" fill="#fff"/><path d="M53.66,450.46v7.48h-1.97v-7.48h-1.99c-.08,2.77-.54,5.52-2.55,7.62-.31-.41-1.02-1.09-1.48-1.39,1.63-1.73,2.06-3.94,2.16-6.22h-1.95v-1.87h1.97v-3.65h-1.67v-1.89h8.89v1.89h-1.41v3.65h1.63v1.87h-1.63Zm-1.97-1.87v-3.65h-1.97v3.65h1.97Zm10.11,3.62c-1.43,2.46-3.67,4.42-6.15,5.71-.32-.53-.9-1.22-1.41-1.65,2.26-1,4.49-2.72,5.64-4.81l1.92,.75Zm-.63-9.13c-1.29,1.68-3.13,3.16-4.88,4.18-.31-.44-.9-1.05-1.43-1.43,1.56-.78,3.42-2.16,4.39-3.54l1.92,.78Zm.27,4.64c-1.29,1.75-3.18,3.35-4.93,4.42-.32-.43-.9-1.02-1.41-1.41,1.58-.85,3.5-2.31,4.49-3.76l1.85,.75Z" fill="#fff"/><path d="M74.49,446.92c.36,4.96,1.39,8.89,2.63,8.89,.36,0,.56-.9,.65-3.06,.46,.48,1.21,.97,1.77,1.19-.31,3.21-.99,3.99-2.6,3.99-2.91,0-4.18-5.03-4.59-11.02h-8.45v-1.97h8.35c-.03-.92-.05-1.87-.05-2.8h2.18c-.02,.94-.02,1.89,.02,2.8h2.69c-.46-.58-1.31-1.27-1.99-1.78l1.34-1.1c.76,.53,1.77,1.33,2.23,1.89l-1.16,1h1.6v1.97h-4.61Zm-5.37,7.63c1.04-.19,2.12-.39,3.16-.59l.15,1.8c-2.79,.61-5.78,1.22-7.97,1.7l-.56-2.04c.87-.14,1.99-.31,3.21-.51v-4.1h-2.57v-1.95h7.29v1.95h-2.72v3.74Z" fill="#fff"/><path d="M88.32,444.53c1.62-.08,3.31-.24,4.81-.49l-.02,1.97c-1.61,.24-3.71,.37-5.54,.43-.29,.63-.63,1.24-.97,1.73,.44-.2,1.36-.34,1.92-.34,1.04,0,1.89,.44,2.26,1.31,.88-.41,1.6-.7,2.29-1,.66-.29,1.26-.56,1.89-.88l.85,1.97c-.54,.15-1.45,.49-2.02,.71-.76,.31-1.73,.68-2.77,1.16,.02,.95,.05,2.21,.07,2.99h-2.04c.05-.51,.07-1.33,.09-2.07-1.28,.73-1.96,1.39-1.96,2.24,0,.94,.8,1.19,2.46,1.19,1.44,0,3.33-.19,4.83-.48l-.07,2.19c-1.12,.15-3.21,.29-4.81,.29-2.67,0-4.64-.65-4.64-2.84s2.04-3.54,3.98-4.54c-.25-.42-.71-.58-1.19-.58-.95,0-2.01,.54-2.65,1.17-.51,.51-1,1.12-1.58,1.87l-1.82-1.36c1.78-1.65,2.99-3.16,3.76-4.69h-.22c-.7,0-1.94-.03-2.87-.1v-1.99c.87,.14,2.12,.2,2.99,.2h.82c.19-.68,.31-1.34,.34-1.96l2.24,.19c-.08,.43-.2,.99-.42,1.7Z" fill="#fff"/><path d="M55.29,474.58c1.12,3.31,3.18,5.98,6.36,7.28-.51,.43-1.17,1.33-1.5,1.9-3.08-1.44-5.05-3.93-6.37-7.21-.92,2.84-2.75,5.49-6.36,7.22-.32-.56-.92-1.29-1.51-1.72,3.89-1.73,5.51-4.56,6.17-7.48h-5.85v-2.09h6.19c.17-1.6,.15-3.15,.17-4.54h2.21c-.02,1.39-.03,2.96-.2,4.54h6.68v2.09h-5.98Z" fill="#fff"/><path d="M68.43,478.57c.32,0,.37-.41,.42-2.21,.41,.34,1.24,.7,1.77,.82-.17,2.5-.66,3.31-2.01,3.31h-1.41c-1.6,0-1.99-.63-1.99-2.7v-3.11l-1.58,.31-.32-1.87,1.9-.36v-4.32h1.99v3.93l3.31-.63,.31,1.84-3.62,.71v3.5c0,.68,.03,.78,.36,.78h.87Zm10.61-9.38s-.02,.77-.03,1.04c-.17,8.47-.34,11.41-.99,12.34-.48,.68-.9,.88-1.55,1.02-.63,.1-1.55,.08-2.46,.05-.03-.56-.27-1.5-.63-2.07,.88,.07,1.68,.07,2.07,.07,.29,0,.48-.07,.66-.32,.46-.59,.66-3.31,.8-10.18h-2.63c-.1,5.41-.53,10.1-4.71,12.78-.29-.54-.9-1.26-1.43-1.63,3.83-2.29,4.05-6.36,4.11-11.15h-2.55v-1.94h9.33Z" fill="#fff"/><path d="M85.09,470.82c-.22,1.14-.82,4.54-.82,6.24,0,.32,.02,.77,.07,1.1,.25-.58,.53-1.17,.76-1.73l1.05,.83c-.48,1.41-1.04,3.26-1.22,4.16-.05,.25-.08,.63-.08,.8,0,.19,.02,.46,.03,.7l-1.97,.14c-.34-1.17-.66-3.25-.66-5.56,0-2.55,.53-5.42,.71-6.73,.05-.48,.15-1.12,.17-1.67l2.38,.2c-.14,.36-.36,1.21-.42,1.51Zm4.2,8.31c0,.75,.65,1.21,2.38,1.21,1.51,0,2.77-.14,4.27-.44l.03,2.29c-1.1,.2-2.46,.32-4.39,.32-2.92,0-4.33-1.04-4.33-2.79,0-.66,.1-1.34,.29-2.21l1.95,.19c-.14,.56-.2,.97-.2,1.43Zm6.15-8.7v2.19c-2.09,.19-5.17,.2-7.31,0v-2.18c2.09,.29,5.47,.2,7.31-.02Z" fill="#fff"/></g><g><path d="M256.53,401.7c-.85,1.44-2.18,2.94-3.33,3.88-.37-.36-1.21-1.04-1.68-1.34,1.16-.75,2.33-2.01,2.99-3.2l2.02,.66Zm10.62-3.4v1.9h-6.63v3.84c0,1.02-.19,1.53-.92,1.84-.73,.29-1.72,.29-3.04,.29-.08-.56-.37-1.38-.65-1.92,.83,.03,1.89,.03,2.18,.03,.27-.02,.37-.07,.37-.27v-3.81h-6.58v-1.9h15.27Zm-12.94-2.41h-2.01v-3.99h6.15v-1.6h2.14v1.6h6.36v3.99h-2.11v-2.11h-10.54v2.11Zm.97,1.1v-1.82h8.55v1.82h-8.55Zm8.65,4.03c1.14,1,2.57,2.41,3.23,3.42l-1.79,1.12c-.59-.97-1.97-2.48-3.13-3.54l1.68-1Z" fill="#fff"/><path d="M284.11,395.28c-.36,2.52-.93,4.59-1.83,6.32,.76,1.21,1.75,2.19,3.01,2.84-.46,.41-1.09,1.21-1.39,1.77-1.17-.7-2.11-1.62-2.87-2.74-.93,1.12-2.11,2.04-3.59,2.79-.19-.48-.78-1.41-1.16-1.84,1.6-.71,2.77-1.67,3.65-2.91-.48-1.04-.85-2.19-1.16-3.45-.25,.43-.51,.82-.78,1.17-.22-.25-.7-.7-1.12-1.04-.68,.8-1.55,1.67-2.38,2.33v.34c1.02-.07,2.06-.17,3.08-.25v1.73c-1.02,.1-2.06,.19-3.08,.27v1.67c0,.87-.15,1.33-.76,1.61-.61,.27-1.39,.29-2.45,.29-.09-.53-.34-1.24-.58-1.72,.65,.02,1.39,.02,1.6,.02,.22-.02,.29-.07,.29-.25v-1.44c-1.17,.1-2.26,.2-3.2,.29l-.21-1.8c.95-.07,2.12-.15,3.4-.25v-1.33h.66c.29-.25,.59-.54,.88-.85h-1.21c-.83,.7-1.7,1.31-2.63,1.84-.27-.39-.95-1.17-1.36-1.55,.63-.31,1.22-.66,1.78-1.04v-.82h1.09c.32-.27,.63-.56,.93-.85h-3.42v-1.73h2.48v-1.14h-1.92v-1.7h1.92v-1.55h1.89v1.55h1.65v1.16c.41-.71,.76-1.5,1.07-2.29l1.87,.53c-.49,1.24-1.09,2.38-1.77,3.45h1.07v1.16c.75-1.58,1.26-3.54,1.56-5.54l2.04,.31c-.17,.95-.36,1.89-.6,2.79h4.52v1.87h-1Zm-10.42-.58h.56c.27-.37,.53-.75,.76-1.14h-1.33v1.14Zm2.19,2.48l.59,.48c.29-.36,.56-.77,.82-1.22h-2.02c-.24,.29-.48,.58-.73,.85h.99l.36-.1Zm4.2-1.9c.24,1.41,.58,2.74,1.04,3.96,.42-1.16,.71-2.48,.9-3.96h-1.94Z" fill="#fff"/><path d="M290.86,393.21c-.22,1.14-.82,4.54-.82,6.24,0,.32,.02,.77,.07,1.1,.25-.58,.53-1.17,.77-1.73l1.05,.83c-.48,1.41-1.04,3.26-1.22,4.16-.05,.25-.08,.63-.08,.8,0,.19,.02,.46,.03,.7l-1.97,.14c-.34-1.17-.66-3.25-.66-5.56,0-2.55,.53-5.42,.71-6.73,.05-.48,.15-1.12,.17-1.67l2.38,.2c-.14,.36-.36,1.21-.42,1.51Zm4.2,8.31c0,.75,.65,1.21,2.38,1.21,1.51,0,2.77-.14,4.27-.44l.03,2.29c-1.1,.2-2.46,.32-4.39,.32-2.92,0-4.33-1.04-4.33-2.79,0-.66,.1-1.34,.29-2.21l1.96,.19c-.14,.56-.2,.97-.2,1.43Zm6.15-8.7v2.19c-2.09,.19-5.17,.2-7.31,0v-2.18c2.09,.29,5.47,.2,7.31-.02Z" fill="#fff"/><path d="M234.01,421.75c1.39-.82,2.87-1.55,3.67-2.01,.65-.37,1.14-.66,1.58-1.04l1.17,1.97c-.51,.31-1.05,.6-1.68,.92-1.05,.53-3.2,1.51-4.74,2.52-1.41,.94-2.36,1.9-2.36,3.09s1.17,1.87,3.54,1.87c1.75,0,4.04-.26,5.56-.63l-.03,2.45c-1.44,.25-3.25,.42-5.46,.42-3.38,0-5.95-.94-5.95-3.86,0-1.87,1.19-3.28,2.82-4.49-.78-1.44-1.6-3.26-2.36-5.07l2.12-.87c.65,1.77,1.45,3.4,2.12,4.71Z" fill="#fff"/><path d="M246.16,424.3c1.55-1.12,3.23-1.61,5.01-1.61,2.97,0,4.71,1.84,4.71,3.89,0,3.09-2.45,5.47-9.52,4.88l-.65-2.23c5.1,.7,7.8-.54,7.8-2.7,0-1.1-1.05-1.92-2.53-1.92-1.92,0-3.66,.71-4.73,2.01-.31,.37-.48,.65-.63,.99l-1.96-.49c.34-1.67,.73-5,.85-7.1l2.28,.32c-.22,.94-.53,3.01-.65,3.98Zm7.34-6.07l-.51,2.07c-1.72-.22-5.51-1.02-6.83-1.36l.54-2.04c1.62,.51,5.32,1.16,6.8,1.33Z" fill="#fff"/><path d="M262.45,416.8l2.48,.08c-.1,.48-.24,1.34-.37,2.41l.63,.8c-.24,.31-.58,.87-.87,1.31-.02,.15-.02,.32-.03,.48,1.72-1.27,3.47-1.75,5-1.75,2.62,0,4.67,1.85,4.69,4.59,0,3.43-2.16,5.49-6.38,6.32l-1.02-2.06c2.99-.44,5.13-1.67,5.12-4.32,0-1.33-1.07-2.55-2.77-2.55-1.8,0-3.38,.87-4.81,2.18-.02,.49-.03,.99-.03,1.43,0,1.39,0,2.82,.1,4.42,.02,.31,.07,.92,.12,1.31h-2.35c.03-.37,.05-.99,.05-1.26,.03-1.33,.05-2.31,.07-3.74-.71,1.07-1.55,2.31-2.14,3.11l-1.34-1.85c.97-1.19,2.67-3.43,3.64-4.86,.03-.39,.07-.8,.08-1.21-.83,.1-2.14,.27-3.09,.41l-.22-2.18c.49,.02,.88,.02,1.48-.02,.49-.03,1.24-.12,1.97-.22,.03-.65,.07-1.12,.07-1.31,0-.49,.02-1-.07-1.53Z" fill="#fff"/><path d="M279.43,416.8l2.48,.08c-.1,.48-.25,1.34-.37,2.4l.63,.82c-.24,.31-.58,.87-.87,1.31-.02,.12-.02,.24-.03,.37,1.34-1.17,3.3-2.55,4.95-2.55,1.84,0,2.67,1.09,2.67,2.52,0,1.77-.56,4.27-.56,6.02,0,.44,.22,.77,.65,.77,.63,0,1.43-.44,2.21-1.22l.27,2.4c-.78,.73-1.82,1.26-3.2,1.26-1.28,0-2.12-.92-2.12-2.57,0-1.84,.61-4.33,.61-5.88,0-.83-.44-1.26-1.16-1.26-1.26,0-3.09,1.56-4.49,3.09-.02,.48-.03,.94-.03,1.38,0,1.39,0,2.82,.1,4.42,.02,.31,.07,.92,.12,1.31h-2.35c.03-.39,.05-.99,.05-1.26,.03-1.33,.05-2.31,.07-3.74-.71,1.07-1.55,2.31-2.14,3.11l-1.34-1.85c.97-1.19,2.67-3.43,3.64-4.86,.03-.39,.07-.8,.08-1.21-.83,.1-2.14,.27-3.09,.41l-.22-2.18c.49,.02,.88,.02,1.48-.02,.49-.03,1.24-.12,1.97-.22,.03-.65,.07-1.12,.07-1.31,0-.49,.02-1-.07-1.53Z" fill="#fff"/><path d="M299.82,419.23c.83-.15,1.63-.34,2.29-.54l.07,1.97c-.78,.2-1.84,.43-2.98,.6-.82,2.38-2.26,5.35-3.64,7.28l-2.06-1.05c1.34-1.67,2.72-4.16,3.47-6-.31,.02-.59,.02-.88,.02-.7,0-1.39-.02-2.12-.07l-.15-1.97c.73,.08,1.63,.12,2.26,.12,.51,0,1.02-.02,1.55-.07,.24-.93,.42-1.95,.46-2.84l2.35,.24c-.14,.54-.36,1.41-.61,2.33Zm4.59,5.13c.02,.49,.07,1.31,.1,2.16,1.46,.54,2.65,1.39,3.52,2.18l-1.14,1.82c-.59-.54-1.36-1.26-2.29-1.82v.17c0,1.58-.87,2.8-3.28,2.8-2.11,0-3.77-.94-3.77-2.8,0-1.67,1.39-2.94,3.76-2.94,.41,0,.78,.03,1.17,.07-.07-1.26-.15-2.77-.19-3.81h2.12c-.05,.71-.02,1.43,0,2.18Zm-3.4,5.35c1.17,0,1.53-.65,1.53-1.58v-.34c-.44-.1-.9-.17-1.38-.17-.99,0-1.61,.44-1.61,1.04,0,.63,.53,1.05,1.46,1.05Zm2.24-9.04l1.09-1.68c1.22,.53,3.33,1.68,4.2,2.31l-1.21,1.79c-.99-.78-2.92-1.89-4.08-2.41Z" fill="#fff"/><path d="M313.86,420.51c-.02,1.1,0,2.38,.1,3.6,.24,2.45,.75,4.13,1.82,4.13,.8,0,1.48-1.99,1.8-3.35l1.7,2.07c-1.12,2.96-2.19,3.99-3.55,3.99-1.87,0-3.48-1.68-3.96-6.24-.17-1.56-.19-3.55-.19-4.59,0-.48-.03-1.21-.14-1.73l2.62,.03c-.12,.61-.2,1.6-.2,2.07Zm11.8,7.12l-2.23,.87c-.27-2.74-1.17-6.87-3.03-8.98l2.16-.7c1.61,1.95,2.91,6.2,3.09,8.81Z" fill="#fff"/><path d="M265.64,444.25v13.65h-2.16v-.83h-8.07v.85h-2.06v-13.67h4.35c.19-.73,.37-1.55,.46-2.23l2.45,.27c-.25,.68-.53,1.34-.8,1.96h5.83Zm-10.23,1.94v1.75h8.07v-1.75h-8.07Zm0,3.62v1.75h8.07v-1.75h-8.07Zm8.07,5.39v-1.77h-8.07v1.77h8.07Z" fill="#fff"/><path d="M283.89,445.29v12.63h-2.12v-.88h-9.42v.9h-2.02v-12.65h5.63v-3.21h2.09v3.21h5.85Zm-11.54,2.04v2.84h3.6v-2.84h-3.6Zm0,7.7h3.6v-2.89h-3.6v2.89Zm5.69-7.7v2.84h3.72v-2.84h-3.72Zm3.72,7.7v-2.89h-3.72v2.89h3.72Z" fill="#fff"/><path d="M293.66,445.1c.83-.15,1.63-.34,2.29-.54l.07,1.97c-.78,.2-1.84,.42-2.98,.59-.82,2.38-2.26,5.35-3.64,7.28l-2.06-1.05c1.34-1.67,2.72-4.16,3.47-6-.31,.02-.59,.02-.88,.02-.7,0-1.39-.02-2.12-.07l-.15-1.97c.73,.08,1.63,.12,2.26,.12,.51,0,1.02-.02,1.55-.07,.24-.93,.42-1.95,.46-2.84l2.35,.24c-.14,.54-.36,1.41-.61,2.33Zm4.59,5.13c.02,.49,.07,1.31,.1,2.16,1.46,.54,2.65,1.39,3.52,2.18l-1.14,1.82c-.59-.54-1.36-1.26-2.29-1.82v.17c0,1.58-.87,2.8-3.28,2.8-2.11,0-3.77-.94-3.77-2.8,0-1.67,1.39-2.94,3.76-2.94,.41,0,.78,.03,1.17,.07-.07-1.26-.15-2.77-.19-3.81h2.12c-.05,.71-.02,1.43,0,2.18Zm-3.4,5.35c1.17,0,1.53-.65,1.53-1.58v-.34c-.44-.1-.9-.17-1.38-.17-.99,0-1.61,.44-1.61,1.04,0,.63,.53,1.05,1.46,1.05Zm2.24-9.04l1.09-1.68c1.22,.53,3.33,1.68,4.2,2.31l-1.21,1.79c-.99-.78-2.92-1.89-4.08-2.41Z" fill="#fff"/><path d="M259.87,476.33v7.48h-1.97v-7.48h-1.99c-.08,2.77-.54,5.52-2.55,7.62-.31-.41-1.02-1.09-1.48-1.39,1.63-1.73,2.06-3.94,2.16-6.22h-1.96v-1.87h1.97v-3.65h-1.67v-1.89h8.89v1.89h-1.41v3.65h1.63v1.87h-1.63Zm-1.97-1.87v-3.65h-1.97v3.65h1.97Zm10.11,3.62c-1.43,2.46-3.67,4.42-6.15,5.71-.32-.53-.9-1.22-1.41-1.65,2.26-1,4.49-2.72,5.64-4.81l1.92,.75Zm-.63-9.13c-1.29,1.68-3.13,3.16-4.88,4.18-.31-.44-.9-1.05-1.43-1.43,1.56-.78,3.42-2.16,4.38-3.54l1.92,.78Zm.27,4.64c-1.29,1.75-3.18,3.35-4.93,4.42-.32-.43-.9-1.02-1.41-1.41,1.58-.85,3.5-2.31,4.49-3.76l1.85,.75Z" fill="#fff"/><path d="M280.69,472.79c.36,4.96,1.39,8.89,2.63,8.89,.36,0,.56-.9,.65-3.06,.46,.48,1.21,.97,1.77,1.19-.31,3.21-.99,3.99-2.6,3.99-2.91,0-4.18-5.03-4.59-11.02h-8.45v-1.97h8.35c-.03-.92-.05-1.87-.05-2.8h2.18c-.02,.94-.02,1.89,.02,2.8h2.69c-.46-.58-1.31-1.27-1.99-1.78l1.34-1.1c.76,.53,1.77,1.33,2.23,1.89l-1.16,1h1.6v1.97h-4.61Zm-5.37,7.63c1.04-.19,2.12-.39,3.16-.59l.15,1.8c-2.79,.61-5.78,1.22-7.97,1.7l-.56-2.04c.87-.14,1.99-.31,3.21-.51v-4.1h-2.57v-1.95h7.29v1.95h-2.72v3.74Z" fill="#fff"/><path d="M288.94,470.58c1.43-.12,4.23-.37,7.34-.63,1.75-.15,3.6-.26,4.81-.31l.02,2.18c-.92,.02-2.38,.02-3.28,.24-2.06,.54-3.6,2.74-3.6,4.76,0,2.8,2.62,3.81,5.51,3.96l-.8,2.33c-3.57-.24-6.94-2.14-6.94-5.83,0-2.45,1.38-4.39,2.53-5.25-1.6,.17-5.07,.54-7.04,.97l-.22-2.33c.68-.02,1.34-.05,1.67-.08Zm11.1,5.22l-1.29,.58c-.42-.94-.78-1.6-1.33-2.36l1.26-.53c.42,.61,1.04,1.65,1.36,2.31Zm1.97-.83l-1.27,.61c-.46-.92-.85-1.55-1.39-2.29l1.24-.58c.42,.6,1.07,1.6,1.43,2.26Z" fill="#fff"/></g><circle cx="492.28" cy="170.19" r="49.66" fill="#42210b"/><g><path d="M476.32,137.14c1.84,2.69,4.62,5,7.34,6.17-.51,.53-.97,1.19-1.36,1.82-2.63-1.46-5.47-3.91-6.94-6-1.38,2.07-3.99,4.44-6.8,6.02-.25-.46-.83-1.21-1.28-1.63,2.94-1.51,5.68-4.22,6.95-6.37h2.07Zm.29,13.65h6.08v1.84h-14.47v-1.84h1.85v-5.9h1.99v5.9h2.41v-8.82h2.12v3.64h4.56v1.78h-4.56v3.4Z" fill="#fff"/><path d="M495.78,149.21c1.44,.88,3.42,1.55,5.39,1.85-.46,.44-1.05,1.29-1.36,1.84-2.09-.53-4.15-1.55-5.71-2.87v3.06h-1.99v-2.96c-1.58,1.24-3.67,2.23-5.69,2.75-.29-.49-.87-1.27-1.29-1.68,1.9-.39,3.91-1.1,5.37-1.99h-4.88v-1.67h6.49v-.75h-4.9v-1.46h4.9v-.76h-5.75v-1.58h3.23c-.14-.42-.36-.94-.58-1.33l.2-.03h-3.55v-1.65h2.28c-.24-.65-.68-1.46-1.05-2.11l1.73-.6c.49,.73,1.05,1.73,1.29,2.4l-.83,.31h1.55v-2.77h1.89v2.77h1.26v-2.77h1.9v2.77h1.51l-.61-.19c.41-.7,.83-1.72,1.07-2.46l2.12,.51c-.48,.78-.93,1.55-1.33,2.14h2.21v1.65h-3.2c-.27,.49-.54,.95-.8,1.36h3.33v1.58h-5.9v.76h5.1v1.46h-5.1v.75h6.61v1.67h-4.93Zm-4.62-7.58c.24,.44,.46,.95,.58,1.31l-.29,.05h3.18c.2-.41,.41-.9,.59-1.36h-4.06Z" fill="#fff"/><path d="M509.04,142.76c1.39-.82,2.87-1.55,3.67-2.01,.65-.37,1.14-.66,1.58-1.04l1.17,1.97c-.51,.31-1.05,.6-1.68,.92-1.05,.53-3.2,1.51-4.74,2.52-1.41,.94-2.36,1.9-2.36,3.09s1.17,1.87,3.54,1.87c1.75,0,4.05-.25,5.56-.63l-.03,2.45c-1.45,.25-3.25,.42-5.46,.42-3.38,0-5.95-.94-5.95-3.86,0-1.87,1.19-3.28,2.82-4.49-.78-1.44-1.6-3.26-2.36-5.07l2.12-.87c.65,1.77,1.45,3.4,2.12,4.71Z" fill="#fff"/><path d="M470.29,174.21c0,1.1,1.04,1.87,3.48,1.87,2.29,0,4.47-.25,5.97-.66l.02,2.38c-1.48,.36-3.52,.6-5.9,.6-3.89,0-5.85-1.31-5.85-3.65,0-.99,.2-1.8,.32-2.45l2.24,.2c-.17,.61-.29,1.16-.29,1.72Zm10.22-8.35l-1.38,.59c-.12-.25-.27-.54-.42-.83v1.9c-1.19,.08-3.3,.2-4.91,.2-1.79,0-3.26-.08-4.64-.19v-2.26c1.26,.15,2.84,.22,4.62,.22,1.62,0,3.45-.1,4.76-.22-.24-.44-.49-.87-.73-1.21l1.34-.54c.43,.61,1.04,1.7,1.36,2.33Zm2.04-.78l-1.36,.58c-.36-.71-.9-1.7-1.38-2.35l1.36-.54c.44,.63,1.07,1.72,1.38,2.31Z" fill="#fff"/><path d="M492.15,174.94c-.73,.7-1.87,1.38-2.87,1.82,.31,.05,.61,.08,.95,.1,2.04,.08,6.07,.03,8.4-.15-.22,.44-.51,1.34-.59,1.89-2.09,.1-5.75,.14-7.8,.05-2.02-.08-3.38-.58-4.39-1.9-.68,.68-1.38,1.33-2.23,2.07l-.94-1.94c.63-.43,1.38-.95,2.04-1.53v-3.82h-1.9v-1.85h3.82v5.47c.42,.75,1.07,1.21,1.94,1.46-.36-.29-.8-.61-1.1-.8,1-.32,2.04-.78,2.72-1.26h-1.87v-5.54h8.57v5.54h-1.72c1.05,.46,2.16,.97,2.87,1.36l-1.89,.8c-.71-.44-1.94-1.12-3.08-1.65l.82-.51h-2.96l1.21,.39Zm-6.71-7.46c-.48-.83-1.6-2.01-2.55-2.82l1.55-1.16c.95,.77,2.12,1.89,2.67,2.7l-1.67,1.27Zm6.1-.82h-3.45v-2.77h3.45v-.8h1.92v.8h3.6v2.77h-3.6v.54h4.86v1.27h-11.47v-1.27h4.69v-.54Zm0-1.04v-.68h-1.63v.68h1.63Zm-1.34,4.91h4.76v-.58h-4.76v.58Zm0,1.51h4.76v-.58h-4.76v.58Zm0,1.51h4.76v-.59h-4.76v.59Zm3.26-8.62v.68h1.63v-.68h-1.63Z" fill="#fff"/><path d="M507.3,169.52s-.02,.54-.03,.8c-.19,5.22-.37,7.21-.85,7.85-.34,.46-.68,.63-1.17,.7-.42,.08-1.07,.1-1.75,.07-.03-.56-.22-1.33-.51-1.84,.54,.07,1.02,.07,1.27,.07,.22,0,.36-.05,.51-.25,.27-.36,.46-1.77,.58-5.56h-1.46c-.24,2.99-.82,5.69-2.24,7.62-.31-.48-.9-1.09-1.41-1.41,1.72-2.28,1.87-6,1.92-9.88h-1.65v-1.87h2.8v-2.72h1.95v2.72h2.21v1.04c.78-1.07,1.41-2.45,1.79-3.81l1.84,.41c-.15,.54-.36,1.1-.58,1.63h5.49v1.82h-6.37c-.44,.76-.92,1.46-1.39,2.01-.34-.31-1.12-.83-1.58-1.09l.14-.14h-2.74c-.02,.61-.03,1.22-.05,1.84h3.3Zm5.9,4.42c.66,1.51,1.82,2.8,3.33,3.45-.42,.36-.99,1.05-1.28,1.55-1.31-.7-2.31-1.87-3.03-3.3-.65,1.19-1.75,2.36-3.64,3.3-.25-.42-.85-1.04-1.29-1.38,2.36-1,3.26-2.36,3.6-3.62h-3.04v-1.8h3.25v-1.75h-.8c-.31,.58-.65,1.12-.99,1.55-.34-.31-1.12-.8-1.56-1.04,.87-.95,1.53-2.4,1.89-3.84l1.82,.41c-.1,.39-.24,.78-.37,1.16h4.73v1.77h-2.79v1.75h3.04v1.8h-2.87Z" fill="#fff"/><path d="M475.73,188.97c1.82,2.6,4.57,4.76,7.28,5.85-.49,.53-.95,1.19-1.31,1.82-.87-.44-1.75-1-2.6-1.61v1.17h-8.46v-1.19c-.83,.61-1.73,1.17-2.63,1.67-.27-.49-.83-1.22-1.28-1.65,2.92-1.41,5.64-3.98,6.92-6.05h2.09Zm-6.22,8.91h10.78v6.97h-2.07v-.63h-6.71v.63h-1.99v-6.97Zm8.75-3.47c-1.41-1.1-2.67-2.33-3.48-3.45-.8,1.14-1.99,2.35-3.38,3.45h6.87Zm-6.76,5.25v2.77h6.71v-2.77h-6.71Z" fill="#fff"/><path d="M499.74,202.5c0,1.05-.22,1.62-.87,1.96s-1.6,.39-3.01,.39c-.08-.56-.39-1.48-.7-2.01,.9,.05,1.89,.05,2.18,.03,.29-.02,.41-.12,.41-.39v-10.81h-10.45v13.16h-1.97v-15.08h14.42v12.75Zm-2.99-7.94h-8.48v-1.7h8.48v1.7Zm-5.81,6.99v1.12h-1.87v-6.8h6.92v5.68h-5.05Zm0-4.01v2.35h3.18v-2.35h-3.18Z" fill="#fff"/><path d="M503.77,191.6c1.43-.12,4.23-.37,7.34-.63,1.75-.15,3.6-.25,4.81-.31l.02,2.18c-.92,.02-2.38,.02-3.28,.24-2.06,.54-3.6,2.74-3.6,4.76,0,2.8,2.62,3.81,5.51,3.96l-.8,2.33c-3.57-.24-6.94-2.14-6.94-5.83,0-2.45,1.38-4.39,2.53-5.25-1.6,.17-5.07,.54-7.04,.97l-.22-2.33c.68-.02,1.34-.05,1.67-.08Zm11.1,5.22l-1.29,.58c-.42-.94-.78-1.6-1.33-2.36l1.26-.53c.42,.61,1.04,1.65,1.36,2.31Zm1.97-.83l-1.27,.61c-.46-.92-.85-1.55-1.39-2.29l1.24-.58c.42,.6,1.07,1.6,1.43,2.26Z" fill="#fff"/></g><g><path d="M64.54,651.89c1.02,.25,2.15,.68,3.05,1.2,.75,.43,1.04,.88,1.04,1.58,0,.57-.23,1.08-.5,1.08-.02,0-.18-.09-.25-.13-.14-.11-.16-.14-.56-.75-.7-.97-1.51-1.74-2.78-2.58v4.86q.02,4.13,.07,5.19c-.07,.29-.25,.38-.81,.38h-.29c-.34,0-.43-.04-.5-.23,0-.25,.02-1.99,.07-5.24v-3.93c-1.11,1.13-2.01,1.85-3.57,2.87l-.25-.34c1.47-1.22,2.51-2.3,3.77-4s1.99-2.91,2.78-4.63h-4.54c-.5,0-.84,.02-1.6,.11l-.16-.84c.61,.14,1.24,.2,1.76,.2h1.81v-2.37c0-.9-.02-1.2-.18-1.96,.5,.05,.88,.09,1.13,.11,1.08,.09,1.38,.16,1.38,.38,0,.18-.18,.29-.86,.52v3.32h1.26c.45-.52,.61-.65,1.08-1.13,.61,.5,.79,.66,1.33,1.13,.2,.23,.25,.29,.25,.36,0,.18-.11,.23-1.13,.45-.95,1.69-1.56,2.6-2.8,4.13v.23Zm4.7-1.15c-.47,0-.9,.04-1.81,.16l-.18-.86c.93,.16,1.26,.18,1.99,.18h3.21v-5.1c0-1.17-.02-1.76-.16-2.82,.47,.07,.95,.11,1.17,.14,1.17,.11,1.45,.2,1.45,.41,0,.18-.25,.34-.9,.59v6.8h2.33l1.31-1.69c.95,.79,1.24,1.04,2.15,1.88,.04,.04,.09,.14,.09,.16,0,.09-.11,.18-.23,.18h-5.65v10.23h2.75c.61-.75,.81-.99,1.51-1.76,.93,.79,1.2,1.06,2.1,1.96,.07,.05,.11,.14,.11,.16,0,.09-.11,.16-.23,.16h-11.81c-.93,0-1.31,.02-2.15,.16l-.2-.86c.79,.11,1.54,.18,2.35,.18h4v-10.23h-3.21Z" fill="#fff"/><path d="M72.69,680.48c1.83-.88,3.03-1.65,4.11-2.69,1.63,.88,1.92,1.06,1.92,1.22,0,.13-.16,.2-.43,.2-.09,0-.52-.02-.81-.02-1.54,.75-3.05,1.29-4.79,1.69v1.29c0,.32,.05,.38,.27,.43,.16,.02,1.24,.07,1.85,.07,.2,0,.54,0,1.13-.02h.93c.86,0,.97-.02,1.11-.25,.16-.25,.63-1.42,1.02-2.51l.27,.02-.14,1.78v.52q0,.11,.41,.27c.32,.09,.47,.27,.47,.54,0,.75-.61,.86-4.81,.86-3.64,0-3.84-.07-3.88-1.22v-5.78h-4.65c-.54,.84-.84,1.22-1.38,1.81h3.18c.38-.36,.5-.45,.9-.79,.52,.41,.68,.52,1.17,.93,.16,.13,.2,.2,.2,.27,0,.14-.11,.18-.88,.43-1.49,2.17-2.69,3.27-4.83,4.4-1.58,.83-3.09,1.38-5.24,1.87l-.11-.36c2.62-.95,4.29-1.81,5.87-3.03-.18-.02-.23-.07-.36-.25-.54-.79-1.2-1.45-1.74-1.76-1.47,1.15-2.17,1.58-3.48,2.15l-.2-.32c1.4-.9,2.33-1.74,3.59-3.16,.75-.86,1.15-1.4,1.6-2.19h-2.64c-.97,0-1.13,0-1.92,.14l-.16-.88c.7,.16,1.29,.23,2.08,.23h14.39c.59-.63,.77-.84,1.38-1.45,.86,.7,1.11,.93,1.94,1.65,.05,.07,.09,.14,.09,.18,0,.09-.09,.14-.25,.14h-7.18v3.59Zm-.77-7.18c0-.11,.02-.16,.02-.18,0-.99-.05-1.49-.11-1.9,1.94,.2,2.51,.32,2.51,.52,0,.16-.18,.25-.95,.45q-.02,.86-.02,1.11h3.48c.63-.68,.84-.88,1.45-1.49,.9,.72,1.2,.95,2.12,1.69,.04,.07,.09,.14,.09,.18,0,.09-.09,.14-.23,.14h-6.91c0,.47,0,.68,.02,1.29-.02,.27-.23,.32-1.24,.32-.23,0-.27-.05-.27-.2,.02-.72,.05-.97,.05-1.4h-4.34v.27l-.02,.41c0,.13,.02,.29,.05,.59,0,.14-.02,.18-.09,.23-.09,.07-.59,.11-1.22,.11-.14,0-.2-.05-.23-.18,.04-.77,.07-1.02,.07-1.42h-4.31c-.95,0-1.13,.02-1.81,.11l-.16-.81c.63,.14,1.08,.18,1.96,.18h4.31c.02-.25,.02-.45,.02-.63,0-.61-.02-.86-.09-1.45,.47,.07,.88,.11,1.13,.13,1.08,.11,1.33,.18,1.33,.38,0,.16-.2,.25-.95,.45v1.11h4.34Zm-5.65,12.96c.05-.45,.07-.72,.07-1.11,0-.36-.02-.56-.09-.97,.47,.07,.84,.14,1.08,.16,.97,.14,1.35,.25,1.35,.41s-.11,.2-.84,.45c-.07,.68-.07,.77-.11,1.06h4.18c0-1.13-.02-1.15-.09-1.9,2.17,.2,2.35,.23,2.35,.43,0,.16-.05,.18-.79,.5v.97h3.46c.61-.7,.79-.9,1.4-1.51,.93,.7,1.2,.93,2.08,1.69,.04,.07,.09,.13,.09,.18,0,.07-.11,.16-.2,.16h-6.84v1.38c0,.56,0,.7,.04,3.32,0,.11-.04,.16-.11,.2-.11,.07-.7,.14-1.2,.14-.2,0-.27-.07-.27-.25,.07-1.51,.09-2.15,.09-3.3v-1.49h-4.25c-.29,1.54-.7,2.35-1.51,3.07-1.4,1.24-3.32,1.94-6.1,2.24l-.09-.34c2.64-.65,3.97-1.26,4.95-2.28,.65-.68,1.04-1.47,1.26-2.69h-4.11c-.84,0-1.17,.02-1.76,.13l-.16-.81c.66,.14,1.04,.16,1.92,.16h4.2Zm-1.49-7.05c-.43,.43-.66,.63-1.11,1.02,.43,.07,.84,.18,1.4,.38,.77,.29,1.02,.5,1.02,.88,0,.27-.07,.45-.18,.66,1.11-.93,1.76-1.69,2.55-2.94h-3.68Z" fill="#fff"/></g><g><path d="M267.17,615.01c.9,.81,1.69,1.15,2.69,1.15,.63,0,1.22-.07,2.26-.29,.02-.65,.02-1.67,.02-2.08,0-2.37-.27-2.85-1.83-3.12,.32-.25,.5-.32,.97-.32,.77,0,1.72,.23,2.33,.56,.29,.16,.5,.47,.5,.72q0,.14-.25,.59c-.36,.65-.59,1.72-.7,3.36,1.2-.41,1.74-.7,2.46-1.31,.18-.14,.41-.23,.54-.23,.2,0,.59,.09,.86,.2,.23,.09,.38,.29,.38,.5,0,.32-.2,.5-1.02,.88-1.02,.47-2.08,.84-3.3,1.11q-.02,.32-.07,1.13c-.02,.61-.07,1.6-.09,2.96,2.53-.9,4.16-1.24,5.98-1.24,3.09,0,5.04,1.47,5.04,3.86,0,2.21-1.69,3.93-3.86,3.93s-3.57-1.38-4.36-4l.34-.11c.54,1.04,.88,1.51,1.36,1.96,.63,.59,1.33,.86,2.15,.86,1.65,0,2.82-1.29,2.82-3.09s-1.17-2.69-3.34-2.69c-1.78,0-3.93,.56-6.12,1.63q0,2.39,.02,3.07c.02,.43,.02,.68,.02,.86,0,.54-.09,.97-.29,1.33-.27,.52-.7,.84-1.08,.84q-.32,0-1.69-1.22c-.47-.38-1.13-.84-1.51-1.02-.5-.23-.75-.56-.75-.95,0-.36,.23-.81,.68-1.26,.84-.86,1.6-1.36,3.59-2.33,.02-.32,.02-.66,.05-1.08q.04-1.02,.11-3.25c-.7,.11-1.22,.16-1.76,.16-1.45,0-2.42-.52-3.36-1.85l.23-.23Zm2.48,9.15c-.45,.47-.68,.84-.68,1.08,0,.23,.29,.47,.9,.7,.5,.2,1.11,.36,1.4,.36,.27,0,.38-.16,.41-.56,.11-2.03,.16-3.14,.16-3.27-1.06,.65-1.63,1.08-2.19,1.69Zm10.07-11.43c1.38,.07,2.39,.32,3.32,.81,.99,.54,1.58,1.29,1.58,1.99,0,.41-.27,.66-.68,.66-.04,0-.16,0-.34-.05-.32-.05-.41-.05-.47-.05-.34,0-.88,.11-2.78,.61l-.14-.23c1.36-.7,2.15-1.17,2.46-1.45-.36-.63-.72-.99-1.42-1.4-.45-.25-.81-.38-1.56-.59l.02-.32Z" fill="#fff"/><path d="M268.46,642.85c0,.18-.04,.25-.23,.29-.11,.04-.61,.09-.84,.09-.34,0-.45-.07-.45-.25v-.05c.07-1.56,.09-2.19,.09-3.64,0-2.33-.02-3.84-.09-4.86,.9,.36,1.15,.5,1.94,1.02h5.37c.34-.45,.43-.59,.79-1.02,.63,.41,.81,.54,1.36,1.02,.18,.16,.25,.25,.25,.34,0,.07-.04,.14-.09,.18-.02,.02-.23,.14-.61,.38,.02,3.73,.02,3.88,.11,6.05,0,.18-.04,.27-.18,.32-.14,.05-.61,.11-.95,.11-.36,0-.47-.09-.47-.32v-.93h-3c-.07,1.4-.14,2.03-.34,3.16h3.14c.32-.36,.43-.47,.79-.81,.54,.43,.7,.59,1.22,1.08,.16,.18,.18,.23,.18,.29q0,.11-.68,.47c-.34,3.3-.7,5.53-1.08,6.62-.16,.5-.52,.93-.95,1.15-.41,.2-.75,.29-1.67,.45-.04-.99-.34-1.2-2.48-1.72l.07-.34c1.26,.16,2.67,.29,3,.29,.47,0,.66-.23,.84-.99,.34-1.51,.75-4.45,.81-5.98h-3.27c-.29,1.47-.63,2.62-1.08,3.66-.65,1.45-1.67,2.87-2.82,3.93-.47,.45-.81,.7-1.6,1.22l-.23-.25c2.15-2.08,3.3-4.16,4-7.16,.36-1.58,.54-2.91,.63-5.08h-1.47v1.24Zm0-1.76h6.01v-5.1h-6.01v5.1Zm11.58,4.04c0,.81,.02,1.02,.09,3.64v.11c0,.27-.16,.36-.81,.38-.16,0-.29,0-.38,.02h-.07c-.23,0-.34-.09-.34-.25v-.09c.07-1.38,.09-4.11,.09-7.25,0-3.43-.04-5.47-.11-6.1,1.78,.14,2.44,.29,2.44,.56,0,.18-.16,.25-.93,.47l.02,8.49Zm2.98-9.26c0-.7-.02-1.04-.14-1.85,.45,.09,.81,.14,1.06,.16,1.11,.16,1.45,.27,1.45,.47,0,.07-.04,.14-.09,.18-.02,.02-.27,.14-.75,.36v8.49q.09,6.84,.16,8.56v.32c0,.79-.61,1.15-2.53,1.56-.29-.88-.29-.9-.63-1.11-.43-.23-1.08-.41-2.44-.7v-.36c.5,.02,.88,.07,1.13,.09q1.69,.16,2.53,.16c.25,0,.34-.07,.34-.25l-.09-16.08Z" fill="#fff"/><path d="M270.96,667.65q.02-.36,.04-.95t.07-.79c-.68,.45-1.87,1.26-2.28,1.56-.43,.29-.56,.36-.77,.36-.59,0-1.67-1.33-1.67-2.06,0-.04,.02-.23,.07-.38,.5,.72,.99,1.08,1.47,1.08s1.92-.61,3.25-1.35c.11-.95,.16-1.58,.16-2.39,0-1.31-.2-1.69-1.29-2.51,.14-.09,.18-.11,.29-.11,.36,0,.86,.23,1.45,.61,.72,.5,1.17,1.06,1.17,1.49q0,.25-.23,.93c-.16,.43-.32,1.15-.41,1.78,.5,.52,.66,.7,.66,.88,0,.14-.02,.18-.32,.65-.27,.5-.5,.93-.72,1.47-.04,.38-.04,.47-.04,.84,2.21-2.1,2.96-2.76,3.93-3.46,1.58-1.13,2.64-1.6,3.64-1.6,.7,0,1.33,.29,1.78,.81,.43,.5,.61,1.11,.61,1.99s-.02,1.02-.45,3.34c-.27,1.47-.41,2.78-.41,3.7s.16,1.38,.56,1.67c.32,.23,.72,.34,1.15,.34,1.13,0,2.71-.59,4.2-1.6l.18,.27c-1.63,1.67-3.39,2.6-4.99,2.6-1.72,0-2.64-1.11-2.64-3.16,0-.81,.2-2.26,.56-4.02,.52-2.42,.56-2.73,.56-3.57,0-1.11-.5-1.74-1.38-1.74-.97,0-2.14,.68-3.95,2.28-1.17,1.04-2.24,2.15-3.43,3.57-.02,.54-.02,.84-.02,1.17,0,1.22,.07,2.3,.23,4.04,.07,.54,.07,.72,.07,1.06,0,1.29-.43,2.35-.97,2.35-.25,0-.43-.18-.54-.61-.07-.23-.32-.93-.38-1.08-.25-.45-.97-1.38-1.99-2.46-.45,1.08-.54,1.22-.77,1.22-.2,0-.38-.18-.52-.52-.14-.36-.25-.9-.25-1.24,0-.27,.02-.32,.38-.68,.36-.34,.72-.84,1.47-2.01l2.46-3.77Zm-1.38,4.22c-.52,.99-.77,1.49-1.2,2.39,1.33,1.11,1.74,1.42,2.39,1.83q.04-.86,.07-4.22c0-1.11,.02-1.63,.09-2.55-.32,.65-.34,.65-1.36,2.55Z" fill="#fff"/><path d="M275.77,700.03c2.44-.72,4-1.65,5.29-3.14,1.33-1.51,2.01-3.36,2.01-5.44,0-2.19-.88-3.93-2.55-4.99-.99-.65-2.48-1.04-3.91-1.04-.27,0-.43,0-.79,.05,.54,.79,.7,1.22,.7,1.87,0,1.76-1.26,5.06-2.98,7.81-1.42,2.26-2.53,3.36-3.36,3.36-.38,0-.75-.18-.99-.47-.2-.27-.25-.36-.63-1.45-.2-.59-.34-.86-.99-2.12-.36-.72-.52-1.33-.52-2.06,0-1.42,.77-3.09,2.03-4.47,1.83-1.94,4.81-3.16,7.77-3.16,2.28,0,4.38,.75,5.83,2.08s2.17,3.12,2.17,5.31c0,2.82-1.65,5.33-4.49,6.84-1.31,.7-2.48,1.06-4.4,1.4l-.16-.38Zm-7.43-7.02c0,1.08,.34,2.19,.9,2.98,.32,.41,.61,.66,.86,.66,.5,0,1.58-1.22,2.69-2.98,1.67-2.66,2.87-5.58,2.87-6.98,0-.34-.07-.56-.32-1.13-3.93,.7-7,3.97-7,7.45Z" fill="#fff"/><path d="M265.45,716.83c1.31-.86,2.03-1.45,3.32-2.69,2.1-2.05,3.66-4,4.97-6.1,.38-.65,.54-.97,.75-1.65,2.48,.56,2.66,.63,2.66,.81,0,.2-.36,.38-.86,.41,1.4,2.17,2.71,3.46,4.9,4.88,1.81,1.15,3.07,1.67,5.44,2.26v.23c-.93,.25-1.2,.56-1.63,1.85-1.83-.9-3.46-2.08-5.04-3.61-1.06-1.04-2.24-2.42-3.12-3.7-.43-.61-.59-.88-.95-1.69-1.35,2.1-2.87,3.88-4.88,5.67-1.72,1.54-3.18,2.53-5.35,3.66l-.23-.32Zm9.76,2.42c-2.28,3.36-2.53,3.73-3.86,5.24,3.52-.05,6.96-.23,9.19-.47-.99-1.42-1.78-2.37-2.94-3.5l.18-.23c1.49,.86,3.03,2.01,4.52,3.39,.59,.56,.86,1.04,.86,1.58,0,.41-.18,1.11-.36,1.4-.09,.14-.25,.23-.38,.23-.16,0-.25-.09-.38-.34-.41-.79-.88-1.65-1.17-2.06-3.61,.75-8.51,1.45-12.13,1.74-.23,.68-.29,.79-.47,.79-.14,0-.18-.05-.27-.43-.14-.61-.34-1.54-.45-2.17q.54,.02,1.83,.07c.38,.02,.68,.02,.95,.02,.07,0,.23,0,.41-.02,.99-1.72,1.26-2.35,2.42-5.24h-4.58c-.7,0-.99,.02-1.6,.14l-.18-.84c.63,.14,1.02,.18,1.78,.18h13.03c.54-.72,.7-.93,1.24-1.58,.97,.72,1.26,.97,2.19,1.74,.04,.09,.11,.18,.11,.2,0,.09-.09,.16-.2,.16h-9.71Zm-5.13-4.45c.56,.11,1.26,.18,1.83,.18h5.69c.54-.68,.7-.88,1.26-1.51,.9,.72,1.2,.95,2.08,1.69,.09,.07,.14,.14,.14,.2,0,.09-.09,.14-.29,.14h-8.99c-.38,0-.72,.02-1.56,.09l-.16-.79Z" fill="#fff"/></g><g><path d="M481.41,346.52c2.51-1.74,4.34-3.48,6.37-6.03,1.06-1.33,2.03-2.8,2.48-3.73,.16-.34,.25-.59,.41-1.11,.52,.09,.9,.18,1.15,.23,1.24,.25,1.51,.34,1.51,.54,0,.18-.27,.32-.88,.43,1.11,1.85,2.62,3.43,4.65,4.9,1.92,1.38,3.75,2.24,5.85,2.8l-.04,.32c-.95,.11-1.31,.43-1.78,1.49-2.1-1.08-3.32-1.96-4.97-3.68-1.67-1.69-2.42-2.73-4.04-5.6-1.6,2.55-3.03,4.25-5.1,6.12-1.81,1.6-3.27,2.62-5.35,3.66l-.25-.34Zm5.58,8.9c0,.2-.02,.27-.14,.32-.2,.07-.72,.14-1.17,.14-.25,0-.32-.07-.32-.32,.04-3.52,.07-4.63,.07-5.56,0-1.78-.02-2.62-.07-3.48,.84,.47,1.08,.63,1.81,1.15h9.12c.36-.5,.5-.65,.93-1.15,.63,.47,.83,.63,1.45,1.15,.18,.16,.23,.23,.23,.32,0,.14-.2,.29-.75,.47q0,3.3,.09,6.8v.09c0,.18-.04,.25-.2,.29-.16,.07-.9,.16-1.15,.16-.23,0-.34-.09-.34-.27v-1.06h-9.55v.95Zm-.02-11.77c.65,.11,1.2,.18,1.67,.18h4.72c.52-.56,.68-.77,1.2-1.35,.81,.63,1.08,.81,1.9,1.49,.11,.11,.18,.2,.18,.27,0,.09-.04,.11-.29,.11h-7.7c-.43,0-.77,.02-1.49,.14l-.18-.84Zm.02,10.3h9.55v-5.76h-9.55v5.76Z" fill="#fff"/><path d="M485.09,376.29q0,1.9,.05,5.47c-.02,.34-.29,.43-1.22,.43-.41,0-.54-.09-.54-.34,.07-2.42,.11-7.34,.11-10.5,0-4.31-.02-7.63-.07-8.74,.86,.43,1.11,.56,1.96,.99h13.28c.34-.5,.45-.63,.81-1.11,.72,.45,.93,.61,1.58,1.11,.16,.14,.25,.23,.25,.32s-.07,.16-.25,.32c-.02,.02-.07,.04-.11,.09-.09,.07-.25,.18-.43,.32v9.19q0,.79,.04,4.67v1.85c-.02,.59-.16,.79-.68,1.08-.54,.29-1.15,.47-2.24,.63-.25-.79-.41-1.04-.79-1.24-.36-.2-.5-.23-2.48-.47v-.34q2.8,.11,4.13,.16h.11c.18,0,.27-.07,.27-.25v-15.81h-13.8v12.17Zm1.06-9.33c1.13,.23,1.65,.29,2.26,.29h6.37c.41-.5,.79-.99,1.15-1.47,.81,.68,1.06,.88,1.85,1.58,.07,.09,.11,.16,.11,.2,0,.11-.11,.2-.25,.2h-9.33c-.41,0-.75,.05-1.87,.23l-.29-1.04Zm3.3,10.79c0,.18-.04,.25-.18,.32-.11,.05-.61,.11-.9,.11-.34,0-.5-.09-.5-.27v-.07c.07-1.76,.09-2.62,.09-4.06,0-2.26-.02-3.27-.09-4.2,.81,.34,1.06,.47,1.83,.88h4.58c.34-.43,.45-.56,.81-1.02,.63,.43,.81,.56,1.38,1.02,.14,.11,.2,.2,.2,.25,0,.11-.16,.27-.66,.68-.02,.86-.02,1.49-.02,1.92,0,1.96,.02,3.07,.09,4.25,0,.36-.23,.45-1.11,.45-.29,0-.41-.09-.41-.36v-1.35h-5.13v1.47Zm0-1.99h5.13v-4.79h-5.13v4.79Z" fill="#fff"/><path d="M494.69,398.07c1.83-.88,3.03-1.65,4.11-2.69,1.63,.88,1.92,1.06,1.92,1.22,0,.14-.16,.2-.43,.2-.09,0-.52-.02-.81-.02-1.54,.75-3.05,1.29-4.79,1.69v1.29c0,.32,.04,.38,.27,.43,.16,.02,1.24,.07,1.85,.07,.2,0,.54,0,1.13-.02h.93c.86,0,.97-.02,1.11-.25,.16-.25,.63-1.42,1.02-2.51l.27,.02-.14,1.78v.52q0,.11,.41,.27c.32,.09,.47,.27,.47,.54,0,.75-.61,.86-4.81,.86-3.64,0-3.84-.07-3.88-1.22v-5.78h-4.65c-.54,.84-.84,1.22-1.38,1.81h3.18c.38-.36,.5-.45,.9-.79,.52,.41,.68,.52,1.17,.93,.16,.14,.2,.2,.2,.27,0,.14-.11,.18-.88,.43-1.49,2.17-2.69,3.27-4.83,4.4-1.58,.84-3.09,1.38-5.24,1.87l-.11-.36c2.62-.95,4.29-1.81,5.87-3.03-.18-.02-.23-.07-.36-.25-.54-.79-1.2-1.45-1.74-1.76-1.47,1.15-2.17,1.58-3.48,2.15l-.2-.32c1.4-.9,2.33-1.74,3.59-3.16,.75-.86,1.15-1.4,1.6-2.19h-2.64c-.97,0-1.13,0-1.92,.14l-.16-.88c.7,.16,1.29,.23,2.08,.23h14.39c.59-.63,.77-.84,1.38-1.45,.86,.7,1.11,.93,1.94,1.65,.05,.07,.09,.14,.09,.18,0,.09-.09,.14-.25,.14h-7.18v3.59Zm-.77-7.18c0-.11,.02-.16,.02-.18,0-.99-.04-1.49-.11-1.9,1.94,.2,2.51,.32,2.51,.52,0,.16-.18,.25-.95,.45q-.02,.86-.02,1.11h3.48c.63-.68,.83-.88,1.45-1.49,.9,.72,1.2,.95,2.12,1.69,.05,.07,.09,.14,.09,.18,0,.09-.09,.14-.23,.14h-6.91c0,.47,0,.68,.02,1.29-.02,.27-.23,.32-1.24,.32-.23,0-.27-.04-.27-.2,.02-.72,.04-.97,.04-1.4h-4.34v.27l-.02,.41c0,.14,.02,.29,.05,.59,0,.14-.02,.18-.09,.23-.09,.07-.59,.11-1.22,.11-.14,0-.2-.04-.23-.18,.04-.77,.07-1.02,.07-1.42h-4.31c-.95,0-1.13,.02-1.81,.11l-.16-.81c.63,.14,1.08,.18,1.96,.18h4.31c.02-.25,.02-.45,.02-.63,0-.61-.02-.86-.09-1.45,.47,.07,.88,.11,1.13,.14,1.08,.11,1.33,.18,1.33,.38,0,.16-.2,.25-.95,.45v1.11h4.34Zm-5.65,12.96c.05-.45,.07-.72,.07-1.11,0-.36-.02-.56-.09-.97,.47,.07,.84,.14,1.08,.16,.97,.14,1.35,.25,1.35,.41s-.11,.2-.84,.45c-.07,.68-.07,.77-.11,1.06h4.18c0-1.13-.02-1.15-.09-1.9,2.17,.2,2.35,.23,2.35,.43,0,.16-.04,.18-.79,.5v.97h3.46c.61-.7,.79-.9,1.4-1.51,.93,.7,1.2,.93,2.08,1.69,.04,.07,.09,.14,.09,.18,0,.07-.11,.16-.2,.16h-6.84v1.38c0,.56,0,.7,.05,3.32,0,.11-.05,.16-.11,.2-.11,.07-.7,.14-1.2,.14-.2,0-.27-.07-.27-.25,.07-1.51,.09-2.15,.09-3.3v-1.49h-4.25c-.29,1.54-.7,2.35-1.51,3.07-1.4,1.24-3.32,1.94-6.1,2.24l-.09-.34c2.64-.65,3.97-1.26,4.95-2.28,.65-.68,1.04-1.47,1.26-2.69h-4.11c-.84,0-1.17,.02-1.76,.14l-.16-.81c.66,.14,1.04,.16,1.92,.16h4.2Zm-1.49-7.05c-.43,.43-.66,.63-1.11,1.02,.43,.07,.84,.18,1.4,.38,.77,.29,1.02,.5,1.02,.88,0,.27-.07,.45-.18,.65,1.11-.93,1.76-1.69,2.55-2.94h-3.68Z" fill="#fff"/></g></g></g></svg>