<?xml version="1.0" encoding="UTF-8"?><svg xmlns="http://www.w3.org/2000/svg" viewBox="0 0 56.27 216.1"><defs><style>.d{fill:#6a4f3e;}</style></defs><g id="a"/><g id="b"><g id="c"><g><g><path class="d" d="M37.24,11.05c1.17,.29,2.47,.78,3.51,1.38,.86,.49,1.2,1.01,1.2,1.82,0,.65-.26,1.25-.57,1.25-.03,0-.21-.1-.29-.16-.16-.13-.18-.16-.65-.86-.81-1.12-1.74-2-3.2-2.96v5.59q.03,4.76,.08,5.98c-.08,.34-.29,.44-.94,.44h-.34c-.39,0-.49-.05-.57-.26,0-.29,.03-2.29,.08-6.03v-4.52c-1.27,1.3-2.31,2.13-4.11,3.3l-.29-.39c1.69-1.4,2.89-2.65,4.34-4.6s2.29-3.35,3.2-5.33h-5.23c-.57,0-.96,.03-1.85,.13l-.18-.96c.7,.16,1.43,.23,2.03,.23h2.08V2.37c0-1.04-.03-1.38-.21-2.26,.57,.05,1.01,.1,1.3,.13,1.25,.1,1.59,.18,1.59,.44,0,.21-.21,.34-.99,.6v3.82h1.46c.52-.6,.7-.75,1.25-1.3,.7,.57,.91,.75,1.53,1.3,.23,.26,.29,.34,.29,.42,0,.21-.13,.26-1.3,.52-1.09,1.95-1.79,2.99-3.22,4.76v.26Zm5.41-1.33c-.55,0-1.04,.05-2.08,.18l-.21-.99c1.07,.18,1.46,.21,2.29,.21h3.69V3.25c0-1.35-.03-2.03-.18-3.25,.55,.08,1.09,.13,1.35,.16,1.35,.13,1.66,.23,1.66,.47,0,.21-.29,.39-1.04,.68v7.83h2.68l1.51-1.95c1.09,.91,1.43,1.2,2.47,2.16,.05,.05,.1,.16,.1,.18,0,.1-.13,.21-.26,.21h-6.5v11.78h3.17c.7-.86,.94-1.14,1.74-2.03,1.07,.91,1.38,1.22,2.42,2.26,.08,.05,.13,.16,.13,.18,0,.1-.13,.18-.26,.18h-13.6c-1.07,0-1.51,.03-2.47,.18l-.23-.99c.91,.13,1.77,.21,2.7,.21h4.6V9.72h-3.69Z"/><path class="d" d="M46.63,40.73c2.11-1.01,3.48-1.9,4.73-3.09,1.87,1.01,2.21,1.22,2.21,1.4,0,.16-.18,.23-.49,.23-.1,0-.6-.03-.94-.03-1.77,.86-3.51,1.48-5.51,1.95v1.48c0,.36,.05,.44,.31,.49,.18,.03,1.43,.08,2.13,.08,.23,0,.62,0,1.3-.03h1.07c.99,0,1.12-.03,1.27-.29,.18-.29,.73-1.64,1.17-2.89l.31,.03-.16,2.05v.6q0,.13,.47,.31c.36,.1,.55,.31,.55,.62,0,.86-.7,.99-5.54,.99-4.19,0-4.42-.08-4.47-1.4v-6.66h-5.36c-.62,.96-.96,1.4-1.59,2.08h3.67c.44-.42,.57-.52,1.04-.91,.6,.47,.78,.6,1.35,1.07,.18,.16,.23,.23,.23,.31,0,.16-.13,.21-1.01,.49-1.72,2.5-3.09,3.77-5.56,5.07-1.82,.96-3.56,1.59-6.03,2.16l-.13-.42c3.02-1.09,4.94-2.08,6.76-3.48-.21-.03-.26-.08-.42-.29-.62-.91-1.38-1.66-2-2.03-1.69,1.33-2.5,1.82-4,2.47l-.23-.36c1.61-1.04,2.68-2,4.13-3.64,.86-.99,1.33-1.61,1.85-2.52h-3.04c-1.12,0-1.3,0-2.21,.16l-.18-1.01c.81,.18,1.48,.26,2.39,.26h16.56c.68-.73,.88-.96,1.59-1.66,.99,.81,1.27,1.07,2.24,1.9,.05,.08,.1,.16,.1,.21,0,.1-.1,.16-.29,.16h-8.27v4.13Zm-.88-8.27c0-.13,.03-.18,.03-.21,0-1.14-.05-1.72-.13-2.18,2.24,.23,2.89,.36,2.89,.6,0,.18-.21,.29-1.09,.52q-.03,.99-.03,1.27h4c.73-.78,.96-1.01,1.66-1.72,1.04,.83,1.38,1.09,2.44,1.95,.05,.08,.1,.16,.1,.21,0,.1-.1,.16-.26,.16h-7.96c0,.55,0,.78,.03,1.48-.03,.31-.26,.36-1.43,.36-.26,0-.31-.05-.31-.23,.03-.83,.05-1.12,.05-1.61h-4.99v.31l-.03,.47c0,.16,.03,.34,.05,.68,0,.16-.03,.21-.1,.26-.1,.08-.68,.13-1.4,.13-.16,0-.23-.05-.26-.21,.05-.88,.08-1.17,.08-1.64h-4.97c-1.09,0-1.3,.03-2.08,.13l-.18-.94c.73,.16,1.25,.21,2.26,.21h4.97c.03-.29,.03-.52,.03-.73,0-.7-.03-.99-.1-1.66,.55,.08,1.01,.13,1.3,.16,1.25,.13,1.53,.21,1.53,.44,0,.18-.23,.29-1.09,.52v1.27h4.99Zm-6.5,14.92c.05-.52,.08-.83,.08-1.27,0-.42-.03-.65-.1-1.12,.55,.08,.96,.16,1.25,.18,1.12,.16,1.56,.29,1.56,.47s-.13,.23-.96,.52c-.08,.78-.08,.88-.13,1.22h4.81c0-1.3-.03-1.33-.1-2.18,2.5,.23,2.7,.26,2.7,.49,0,.18-.05,.21-.91,.57v1.12h3.98c.7-.81,.91-1.04,1.61-1.74,1.07,.81,1.38,1.07,2.39,1.95,.05,.08,.1,.16,.1,.21,0,.08-.13,.18-.23,.18h-7.88v1.59c0,.65,0,.81,.05,3.82,0,.13-.05,.18-.13,.23-.13,.08-.81,.16-1.38,.16-.23,0-.31-.08-.31-.29,.08-1.74,.1-2.47,.1-3.8v-1.72h-4.89c-.34,1.77-.81,2.7-1.74,3.54-1.61,1.43-3.82,2.24-7.02,2.57l-.1-.39c3.04-.75,4.58-1.46,5.69-2.63,.75-.78,1.2-1.69,1.46-3.09h-4.73c-.96,0-1.35,.03-2.03,.16l-.18-.94c.75,.16,1.2,.18,2.21,.18h4.84Zm-1.72-8.11c-.49,.49-.75,.73-1.27,1.17,.49,.08,.96,.21,1.61,.44,.88,.34,1.17,.57,1.17,1.01,0,.31-.08,.52-.21,.75,1.27-1.07,2.03-1.95,2.94-3.38h-4.24Z"/><path class="d" d="M45.85,62.99c0,1.33-1.07,2.39-2.37,2.39s-2.39-1.07-2.39-2.39,1.07-2.37,2.39-2.37,2.37,1.07,2.37,2.37Z"/><path class="d" d="M33.37,77.27c1.04,.94,1.95,1.33,3.09,1.33,.73,0,1.4-.08,2.6-.34,.03-.75,.03-1.92,.03-2.39,0-2.73-.31-3.28-2.11-3.59,.36-.29,.57-.36,1.12-.36,.88,0,1.98,.26,2.68,.65,.34,.18,.57,.55,.57,.83q0,.16-.29,.68c-.42,.75-.68,1.98-.81,3.87,1.38-.47,2-.81,2.83-1.51,.21-.16,.47-.26,.62-.26,.23,0,.68,.1,.99,.23,.26,.1,.44,.34,.44,.57,0,.36-.23,.57-1.17,1.01-1.17,.55-2.39,.96-3.8,1.27q-.03,.36-.08,1.3c-.03,.7-.08,1.85-.1,3.41,2.91-1.04,4.78-1.43,6.89-1.43,3.56,0,5.8,1.69,5.8,4.45,0,2.55-1.95,4.52-4.45,4.52s-4.11-1.59-5.02-4.6l.39-.13c.62,1.2,1.01,1.74,1.56,2.26,.73,.68,1.53,.99,2.47,.99,1.9,0,3.25-1.48,3.25-3.56s-1.35-3.09-3.85-3.09c-2.05,0-4.52,.65-7.05,1.87q0,2.76,.03,3.54c.03,.49,.03,.78,.03,.99,0,.62-.1,1.12-.34,1.53-.31,.6-.81,.96-1.25,.96q-.36,0-1.95-1.4c-.55-.44-1.3-.96-1.74-1.17-.57-.26-.86-.65-.86-1.09,0-.42,.26-.94,.78-1.46,.96-.99,1.85-1.56,4.13-2.68,.03-.36,.03-.75,.05-1.25q.05-1.17,.13-3.74c-.81,.13-1.4,.18-2.03,.18-1.66,0-2.78-.6-3.87-2.13l.26-.26Zm2.86,10.53c-.52,.55-.78,.96-.78,1.25,0,.26,.34,.55,1.04,.81,.57,.23,1.27,.42,1.61,.42,.31,0,.44-.18,.47-.65,.13-2.34,.18-3.61,.18-3.77-1.22,.75-1.87,1.25-2.52,1.95Zm11.6-13.16c1.59,.08,2.76,.36,3.82,.94,1.14,.62,1.82,1.48,1.82,2.29,0,.47-.31,.75-.78,.75-.05,0-.18,0-.39-.05-.36-.05-.47-.05-.55-.05-.39,0-1.01,.13-3.2,.7l-.16-.26c1.56-.81,2.47-1.35,2.83-1.66-.42-.73-.83-1.14-1.64-1.61-.52-.29-.94-.44-1.79-.68l.03-.36Z"/><path class="d" d="M34.85,108.97c0,.21-.05,.29-.26,.34-.13,.05-.7,.1-.96,.1-.39,0-.52-.08-.52-.29v-.05c.08-1.79,.1-2.52,.1-4.19,0-2.68-.03-4.42-.1-5.59,1.04,.42,1.33,.57,2.24,1.17h6.19c.39-.52,.49-.68,.91-1.17,.73,.47,.94,.62,1.56,1.17,.21,.18,.29,.29,.29,.39,0,.08-.05,.16-.1,.21-.03,.03-.26,.16-.7,.44,.03,4.29,.03,4.47,.13,6.97,0,.21-.05,.31-.21,.36-.16,.05-.7,.13-1.09,.13-.42,0-.55-.1-.55-.36v-1.07h-3.46c-.08,1.61-.16,2.34-.39,3.64h3.61c.36-.42,.49-.55,.91-.94,.62,.49,.81,.68,1.4,1.25,.18,.21,.21,.26,.21,.34q0,.13-.78,.55c-.39,3.8-.81,6.37-1.25,7.62-.18,.57-.6,1.07-1.09,1.33-.47,.23-.86,.34-1.92,.52-.05-1.14-.39-1.38-2.86-1.98l.08-.39c1.46,.18,3.07,.34,3.46,.34,.55,0,.75-.26,.96-1.14,.39-1.74,.86-5.12,.94-6.89h-3.77c-.34,1.69-.73,3.02-1.25,4.21-.75,1.66-1.92,3.3-3.25,4.52-.55,.52-.94,.81-1.85,1.4l-.26-.29c2.47-2.39,3.8-4.78,4.6-8.24,.42-1.82,.62-3.35,.73-5.85h-1.69v1.43Zm0-2.03h6.92v-5.88h-6.92v5.88Zm13.34,4.65c0,.94,.03,1.17,.1,4.19v.13c0,.31-.18,.42-.94,.44-.18,0-.34,0-.44,.03h-.08c-.26,0-.39-.1-.39-.29v-.1c.08-1.59,.1-4.73,.1-8.35,0-3.95-.05-6.29-.13-7.02,2.05,.16,2.81,.34,2.81,.65,0,.21-.18,.29-1.07,.55l.03,9.78Zm3.43-10.66c0-.81-.03-1.2-.16-2.13,.52,.1,.94,.16,1.22,.18,1.27,.18,1.66,.31,1.66,.55,0,.08-.05,.16-.1,.21-.03,.03-.31,.16-.86,.42v9.78q.1,7.88,.18,9.85v.36c0,.91-.7,1.33-2.91,1.79-.34-1.01-.34-1.04-.73-1.27-.49-.26-1.25-.47-2.81-.81v-.42c.57,.03,1.01,.08,1.3,.1q1.95,.18,2.91,.18c.29,0,.39-.08,.39-.29l-.1-18.51Z"/><path class="d" d="M37.73,137.17q.03-.42,.05-1.09,.05-.52,.08-.91c-.78,.52-2.16,1.46-2.63,1.79-.49,.34-.65,.42-.88,.42-.68,0-1.92-1.53-1.92-2.37,0-.05,.03-.26,.08-.44,.57,.83,1.14,1.25,1.69,1.25s2.21-.7,3.74-1.56c.13-1.09,.18-1.82,.18-2.76,0-1.51-.23-1.95-1.48-2.89,.16-.1,.21-.13,.34-.13,.42,0,.99,.26,1.66,.7,.83,.57,1.35,1.22,1.35,1.72q0,.29-.26,1.07c-.18,.49-.36,1.33-.47,2.05,.57,.6,.75,.81,.75,1.01,0,.16-.03,.21-.36,.75-.31,.57-.57,1.07-.83,1.69-.05,.44-.05,.55-.05,.96,2.55-2.42,3.41-3.17,4.52-3.98,1.82-1.3,3.04-1.85,4.19-1.85,.81,0,1.53,.34,2.05,.94,.49,.57,.7,1.27,.7,2.29s-.03,1.17-.52,3.85c-.31,1.69-.47,3.2-.47,4.26s.18,1.59,.65,1.92c.36,.26,.83,.39,1.33,.39,1.3,0,3.12-.68,4.84-1.85l.21,.31c-1.87,1.92-3.9,2.99-5.75,2.99-1.98,0-3.04-1.27-3.04-3.64,0-.94,.23-2.6,.65-4.63,.6-2.78,.65-3.15,.65-4.11,0-1.27-.57-2-1.59-2-1.12,0-2.47,.78-4.55,2.63-1.35,1.2-2.57,2.47-3.95,4.11-.03,.62-.03,.96-.03,1.35,0,1.4,.08,2.65,.26,4.65,.08,.62,.08,.83,.08,1.22,0,1.48-.49,2.7-1.12,2.7-.29,0-.49-.21-.62-.7-.08-.26-.36-1.07-.44-1.25-.29-.52-1.12-1.59-2.29-2.83-.52,1.25-.62,1.4-.88,1.4-.23,0-.44-.21-.6-.6-.16-.42-.29-1.04-.29-1.43,0-.31,.03-.36,.44-.78,.42-.39,.83-.96,1.69-2.31l2.83-4.34Zm-1.59,4.86c-.6,1.14-.88,1.72-1.38,2.76,1.53,1.27,2,1.64,2.76,2.11q.05-.99,.08-4.86c0-1.27,.03-1.87,.1-2.94-.36,.75-.39,.75-1.56,2.94Z"/><path class="d" d="M43.27,174.1c2.81-.83,4.6-1.9,6.08-3.61,1.53-1.74,2.31-3.87,2.31-6.27,0-2.52-1.01-4.52-2.94-5.75-1.14-.75-2.86-1.2-4.5-1.2-.31,0-.49,0-.91,.05,.62,.91,.81,1.4,.81,2.16,0,2.03-1.46,5.82-3.43,9-1.64,2.6-2.91,3.88-3.87,3.88-.44,0-.86-.21-1.14-.55-.23-.31-.29-.42-.73-1.66-.23-.68-.39-.99-1.14-2.44-.42-.83-.6-1.53-.6-2.37,0-1.64,.88-3.56,2.34-5.15,2.11-2.24,5.54-3.64,8.94-3.64,2.63,0,5.04,.86,6.71,2.39s2.5,3.59,2.5,6.11c0,3.25-1.9,6.14-5.17,7.88-1.51,.81-2.86,1.22-5.07,1.61l-.18-.44Zm-8.55-8.09c0,1.25,.39,2.52,1.04,3.43,.36,.47,.7,.75,.99,.75,.57,0,1.82-1.4,3.09-3.43,1.92-3.07,3.3-6.42,3.3-8.03,0-.39-.08-.65-.36-1.3-4.52,.81-8.06,4.58-8.06,8.58Z"/><path class="d" d="M31.39,193.08c1.51-.99,2.34-1.66,3.82-3.09,2.42-2.37,4.21-4.6,5.72-7.02,.44-.75,.62-1.12,.86-1.9,2.86,.65,3.07,.73,3.07,.94,0,.23-.42,.44-.99,.47,1.61,2.5,3.12,3.98,5.64,5.62,2.08,1.33,3.54,1.92,6.27,2.6v.26c-1.07,.29-1.38,.65-1.87,2.13-2.11-1.04-3.98-2.39-5.8-4.16-1.22-1.2-2.57-2.78-3.59-4.26-.49-.7-.68-1.01-1.09-1.95-1.56,2.42-3.3,4.47-5.62,6.53-1.98,1.77-3.67,2.91-6.16,4.21l-.26-.36Zm11.23,2.78c-2.63,3.87-2.91,4.29-4.45,6.03,4.06-.05,8.01-.26,10.58-.55-1.14-1.64-2.05-2.73-3.38-4.03l.21-.26c1.72,.99,3.48,2.31,5.2,3.9,.68,.65,.99,1.2,.99,1.82,0,.47-.21,1.27-.42,1.61-.1,.16-.29,.26-.44,.26-.18,0-.29-.1-.44-.39-.47-.91-1.01-1.9-1.35-2.37-4.16,.86-9.8,1.66-13.96,2-.26,.78-.34,.91-.55,.91-.16,0-.21-.05-.31-.49-.16-.7-.39-1.77-.52-2.5q.62,.03,2.11,.08c.44,.03,.78,.03,1.09,.03,.08,0,.26,0,.47-.03,1.14-1.98,1.46-2.7,2.78-6.03h-5.28c-.81,0-1.14,.03-1.85,.16l-.21-.96c.73,.16,1.17,.21,2.05,.21h15c.62-.83,.81-1.07,1.43-1.82,1.12,.83,1.46,1.12,2.52,2,.05,.1,.13,.21,.13,.23,0,.1-.1,.18-.23,.18h-11.18Zm-5.9-5.12c.65,.13,1.46,.21,2.11,.21h6.55c.62-.78,.81-1.01,1.46-1.74,1.04,.83,1.38,1.09,2.39,1.95,.1,.08,.16,.16,.16,.23,0,.1-.1,.16-.34,.16h-10.35c-.44,0-.83,.03-1.79,.1l-.18-.91Z"/><path class="d" d="M45.85,213.71c0,1.33-1.07,2.39-2.37,2.39s-2.39-1.07-2.39-2.39,1.07-2.37,2.39-2.37,2.37,1.07,2.37,2.37Z"/></g><g><path class="d" d="M.34,12.51c2.89-2,4.99-4,7.33-6.94,1.22-1.53,2.34-3.22,2.86-4.29,.18-.39,.29-.68,.47-1.27,.6,.1,1.04,.21,1.33,.26,1.43,.29,1.74,.39,1.74,.62,0,.21-.31,.36-1.01,.49,1.27,2.13,3.02,3.95,5.36,5.64,2.21,1.59,4.32,2.57,6.73,3.22l-.05,.36c-1.09,.13-1.51,.49-2.05,1.72-2.42-1.25-3.82-2.26-5.72-4.24-1.92-1.95-2.78-3.15-4.65-6.45-1.85,2.94-3.48,4.89-5.88,7.05-2.08,1.85-3.77,3.02-6.16,4.21l-.29-.39Zm6.42,10.24c0,.23-.03,.31-.16,.36-.23,.08-.83,.16-1.35,.16-.29,0-.36-.08-.36-.36,.05-4.06,.08-5.33,.08-6.4,0-2.05-.03-3.02-.08-4,.96,.55,1.25,.73,2.08,1.33h10.5c.42-.57,.57-.75,1.07-1.33,.73,.55,.96,.73,1.66,1.33,.21,.18,.26,.26,.26,.36,0,.16-.23,.34-.86,.55q0,3.8,.1,7.83v.1c0,.21-.05,.29-.23,.34-.18,.08-1.04,.18-1.33,.18-.26,0-.39-.1-.39-.31v-1.22H6.76v1.09Zm-.03-13.55c.75,.13,1.38,.21,1.92,.21h5.43c.6-.65,.78-.88,1.38-1.56,.94,.73,1.25,.94,2.18,1.72,.13,.13,.21,.23,.21,.31,0,.1-.05,.13-.34,.13H8.66c-.49,0-.88,.03-1.72,.16l-.21-.96Zm.03,11.86h11v-6.63H6.76v6.63Z"/><path class="d" d="M4.58,44q0,2.18,.05,6.29c-.03,.39-.34,.49-1.4,.49-.47,0-.62-.1-.62-.39,.08-2.78,.13-8.45,.13-12.09,0-4.97-.03-8.79-.08-10.06,.99,.49,1.27,.65,2.26,1.14h15.29c.39-.57,.52-.73,.94-1.27,.83,.52,1.07,.7,1.82,1.27,.18,.16,.29,.26,.29,.36s-.08,.18-.29,.36c-.03,.03-.08,.05-.13,.1-.1,.08-.29,.21-.49,.36v10.58q0,.91,.05,5.38v2.13c-.03,.68-.18,.91-.78,1.25-.62,.34-1.33,.55-2.57,.73-.29-.91-.47-1.2-.91-1.43-.42-.23-.57-.26-2.86-.55v-.39q3.22,.13,4.76,.18h.13c.21,0,.31-.08,.31-.29V29.98H4.58v14.01Zm1.22-10.74c1.3,.26,1.9,.34,2.6,.34h7.33c.47-.57,.91-1.14,1.33-1.69,.94,.78,1.22,1.01,2.13,1.82,.08,.1,.13,.18,.13,.23,0,.13-.13,.23-.29,.23H8.29c-.47,0-.86,.05-2.16,.26l-.34-1.2Zm3.8,12.43c0,.21-.05,.29-.21,.36-.13,.05-.7,.13-1.04,.13-.39,0-.57-.1-.57-.31v-.08c.08-2.03,.1-3.02,.1-4.68,0-2.6-.03-3.77-.1-4.84,.94,.39,1.22,.55,2.11,1.01h5.28c.39-.49,.52-.65,.94-1.17,.73,.49,.94,.65,1.59,1.17,.16,.13,.23,.23,.23,.29,0,.13-.18,.31-.75,.78-.03,.99-.03,1.72-.03,2.21,0,2.26,.03,3.54,.1,4.89,0,.42-.26,.52-1.27,.52-.34,0-.47-.1-.47-.42v-1.56h-5.9v1.69Zm0-2.29h5.9v-5.51h-5.9v5.51Z"/><path class="d" d="M15.63,66.29c2.11-1.01,3.48-1.9,4.73-3.09,1.87,1.01,2.21,1.22,2.21,1.4,0,.16-.18,.23-.49,.23-.1,0-.6-.03-.94-.03-1.77,.86-3.51,1.48-5.51,1.95v1.48c0,.36,.05,.44,.31,.49,.18,.03,1.43,.08,2.13,.08,.23,0,.62,0,1.3-.03h1.07c.99,0,1.12-.03,1.27-.29,.18-.29,.73-1.64,1.17-2.89l.31,.03-.16,2.05v.6q0,.13,.47,.31c.36,.1,.55,.31,.55,.62,0,.86-.7,.99-5.54,.99-4.19,0-4.42-.08-4.47-1.4v-6.66h-5.36c-.62,.96-.96,1.4-1.59,2.08h3.67c.44-.42,.57-.52,1.04-.91,.6,.47,.78,.6,1.35,1.07,.18,.16,.23,.23,.23,.31,0,.16-.13,.21-1.01,.49-1.72,2.5-3.09,3.77-5.56,5.07-1.82,.96-3.56,1.59-6.03,2.16l-.13-.42c3.02-1.09,4.94-2.08,6.76-3.48-.21-.03-.26-.08-.42-.29-.62-.91-1.38-1.66-2-2.03-1.69,1.33-2.5,1.82-4,2.47l-.23-.36c1.61-1.04,2.68-2,4.13-3.64,.86-.99,1.33-1.61,1.85-2.52H3.69c-1.12,0-1.3,0-2.21,.16l-.18-1.01c.81,.18,1.48,.26,2.39,.26H20.25c.68-.73,.88-.96,1.59-1.66,.99,.81,1.27,1.07,2.24,1.9,.05,.08,.1,.16,.1,.21,0,.1-.1,.16-.29,.16H15.63v4.13Zm-.88-8.27c0-.13,.03-.18,.03-.21,0-1.14-.05-1.72-.13-2.18,2.24,.23,2.89,.36,2.89,.6,0,.18-.21,.29-1.09,.52q-.03,.99-.03,1.27h4c.73-.78,.96-1.01,1.66-1.72,1.04,.83,1.38,1.09,2.44,1.95,.05,.08,.1,.16,.1,.21,0,.1-.1,.16-.26,.16h-7.96c0,.55,0,.78,.03,1.48-.03,.31-.26,.36-1.43,.36-.26,0-.31-.05-.31-.23,.03-.83,.05-1.12,.05-1.61h-4.99v.31l-.03,.47c0,.16,.03,.34,.05,.68,0,.16-.03,.21-.1,.26-.1,.08-.68,.13-1.4,.13-.16,0-.23-.05-.26-.21,.05-.88,.08-1.17,.08-1.64H3.12c-1.09,0-1.3,.03-2.08,.13l-.18-.94c.73,.16,1.25,.21,2.26,.21h4.97c.03-.29,.03-.52,.03-.73,0-.7-.03-.99-.1-1.66,.55,.08,1.01,.13,1.3,.16,1.25,.13,1.53,.21,1.53,.44,0,.18-.23,.29-1.09,.52v1.27h4.99Zm-6.5,14.92c.05-.52,.08-.83,.08-1.27,0-.42-.03-.65-.1-1.12,.55,.08,.96,.16,1.25,.18,1.12,.16,1.56,.29,1.56,.47s-.13,.23-.96,.52c-.08,.78-.08,.88-.13,1.22h4.81c0-1.3-.03-1.33-.1-2.18,2.5,.23,2.7,.26,2.7,.49,0,.18-.05,.21-.91,.57v1.12h3.98c.7-.81,.91-1.04,1.61-1.74,1.07,.81,1.38,1.07,2.39,1.95,.05,.08,.1,.16,.1,.21,0,.08-.13,.18-.23,.18h-7.88v1.59c0,.65,0,.81,.05,3.82,0,.13-.05,.18-.13,.23-.13,.08-.81,.16-1.38,.16-.23,0-.31-.08-.31-.29,.08-1.74,.1-2.47,.1-3.8v-1.72h-4.89c-.34,1.77-.81,2.7-1.74,3.54-1.61,1.43-3.82,2.24-7.02,2.57l-.1-.39c3.04-.75,4.58-1.46,5.69-2.63,.75-.78,1.2-1.69,1.46-3.09H3.41c-.96,0-1.35,.03-2.03,.16l-.18-.94c.75,.16,1.2,.18,2.21,.18h4.84Zm-1.72-8.11c-.49,.49-.75,.73-1.27,1.17,.49,.08,.96,.21,1.61,.44,.88,.34,1.17,.57,1.17,1.01,0,.31-.08,.52-.21,.75,1.27-1.07,2.03-1.95,2.94-3.38H6.53Z"/><path class="d" d="M12.27,102.04c2.81-.83,4.6-1.9,6.08-3.61,1.53-1.74,2.31-3.87,2.31-6.27,0-2.52-1.01-4.52-2.94-5.75-1.14-.75-2.86-1.2-4.5-1.2-.31,0-.49,0-.91,.05,.62,.91,.81,1.4,.81,2.16,0,2.03-1.46,5.82-3.43,9-1.64,2.6-2.91,3.88-3.87,3.88-.44,0-.86-.21-1.14-.55-.23-.31-.29-.42-.73-1.66-.23-.68-.39-.99-1.14-2.44-.42-.83-.6-1.53-.6-2.37,0-1.64,.88-3.56,2.34-5.15,2.11-2.24,5.54-3.64,8.94-3.64,2.63,0,5.04,.86,6.71,2.39s2.5,3.59,2.5,6.11c0,3.25-1.9,6.14-5.17,7.88-1.51,.81-2.86,1.22-5.07,1.61l-.18-.44Zm-8.55-8.09c0,1.25,.39,2.52,1.04,3.43,.36,.47,.7,.75,.99,.75,.57,0,1.82-1.4,3.09-3.43,1.92-3.07,3.3-6.42,3.3-8.03,0-.39-.08-.65-.36-1.3-4.52,.81-8.06,4.58-8.06,8.58Z"/><path class="d" d="M.26,113.64c1.51,.55,2.05,.81,2.96,1.35,1.09,.62,1.27,.83,1.27,1.43,0,.78-.42,1.64-.78,1.64-.18,0-.31-.16-.6-.65-.23-.42-.81-1.2-1.3-1.77-.55-.62-.96-.99-1.82-1.66l.26-.34Zm.21,9.49c.23,.05,.42,.08,.52,.1,.7,.18,1.04,.23,1.27,.23,.34,0,.44-.16,.96-1.33,.49-1.07,1.48-3.35,2.29-5.28q1.22-2.86,1.82-4.19l.29,.18-3.61,10.92c-.26,.81-.31,.96-.31,1.22,0,.44,.08,.88,.34,1.82,.16,.57,.23,1.2,.23,1.74,0,.75-.13,1.17-.49,1.56-.36,.39-1.04,.73-1.43,.73-.31,0-.55-.29-.55-.68,0-.13,.05-.49,.13-.88,.39-1.72,.52-2.6,.52-3.46,0-.65-.13-.99-.49-1.35-.42-.42-.81-.65-1.59-.96l.1-.39Zm1.3-15.31c1.35,.55,2.5,1.12,3.41,1.69,.81,.52,1.07,.83,1.07,1.46,0,.7-.42,1.61-.73,1.61-.21,0-.36-.16-.65-.65-.31-.55-.6-.96-1.12-1.61-.83-1.01-1.22-1.4-2.24-2.21l.26-.29Zm2.94,22.96c1.33-.99,1.85-1.46,2.42-2.11,1.66-1.9,2.34-4.34,2.34-8.48,0-.68-.03-1.12-.08-1.98,2.5,.31,2.68,.36,2.68,.6,0,.16-.03,.18-.88,.55-.13,2.91-.18,3.43-.36,4.65-.31,1.98-1.35,3.77-3.04,5.25-.88,.78-1.53,1.2-2.91,1.85l-.16-.34Zm9.78-19.4c-1.07,1.95-1.61,2.78-2.81,4.42,3.9-.16,4.37-.18,7.54-.44-1.25-1.4-1.59-1.72-2.65-2.6l.21-.26c1.69,.88,3.56,2,4.68,2.78,.62,.44,.86,.83,.86,1.48,0,.78-.42,1.66-.81,1.66-.16,0-.31-.16-.52-.55-.52-.94-.86-1.46-1.33-1.98q-3.3,.6-11.15,1.66c-.03,.13-.05,.21-.08,.29-.08,.36-.16,.52-.31,.52-.26,0-.31-.13-.78-2.55q1.56,.05,1.9,.05t1.79-.08q.57-1.61,1.3-4.42h-3.25c-.96,0-1.22,.03-1.95,.21l-.23-1.07c.78,.21,1.27,.26,2.18,.26h4.34v-1.17c0-.86-.03-1.3-.1-2.29,.6,.08,1.09,.13,1.38,.16,1.27,.13,1.64,.23,1.64,.49,0,.21-.13,.26-1.09,.57v2.24h4.81c.65-.83,.86-1.09,1.56-1.9,1.12,.88,1.43,1.14,2.5,2.05,.13,.13,.18,.21,.18,.26,0,.13-.1,.18-.31,.18H14.48Zm.65,10.66c0,2.78,0,3.54,.08,7.85-.03,.21-.05,.26-.18,.34-.13,.05-.88,.13-1.22,.13-.23,0-.34-.1-.36-.31,.05-3.61,.08-5.43,.08-9.15,0-1.07-.03-1.64-.1-2.7,2.39,.29,2.65,.34,2.65,.6,0,.18-.16,.26-.94,.52v2.73Zm2.73-1.3c0-1.38,0-1.56-.08-2.47,2.26,.21,2.78,.31,2.78,.55,0,.21-.26,.36-1.04,.6v8.84c0,.39,.05,.47,.34,.47s.52,.03,.68,.03h.1c.96,0,1.35-.08,1.51-.26,.21-.29,.36-.88,1.43-5.23l.42,.03-.39,4.6v.34q0,.31,.55,.55c.26,.1,.39,.29,.39,.55,0,.42-.36,.73-.99,.83-.52,.08-1.82,.13-2.99,.13-2.34,0-2.7-.21-2.7-1.53v-8.01Z"/><path class="d" d="M6.73,144.64q.03-.42,.05-1.09,.05-.52,.08-.91c-.78,.52-2.16,1.46-2.63,1.79-.49,.34-.65,.42-.88,.42-.68,0-1.92-1.53-1.92-2.37,0-.05,.03-.26,.08-.44,.57,.83,1.14,1.25,1.69,1.25s2.21-.7,3.74-1.56c.13-1.09,.18-1.82,.18-2.76,0-1.51-.23-1.95-1.48-2.89,.16-.1,.21-.13,.34-.13,.42,0,.99,.26,1.66,.7,.83,.57,1.35,1.22,1.35,1.72q0,.29-.26,1.07c-.18,.49-.36,1.33-.47,2.05,.57,.6,.75,.81,.75,1.01,0,.16-.03,.21-.36,.75-.31,.57-.57,1.07-.83,1.69-.05,.44-.05,.55-.05,.96,2.55-2.42,3.41-3.17,4.52-3.98,1.82-1.3,3.04-1.85,4.19-1.85,.81,0,1.53,.34,2.05,.94,.49,.57,.7,1.27,.7,2.29s-.03,1.17-.52,3.85c-.31,1.69-.47,3.2-.47,4.26s.18,1.59,.65,1.92c.36,.26,.83,.39,1.33,.39,1.3,0,3.12-.68,4.84-1.85l.21,.31c-1.87,1.92-3.9,2.99-5.75,2.99-1.98,0-3.04-1.27-3.04-3.64,0-.94,.23-2.6,.65-4.63,.6-2.78,.65-3.15,.65-4.11,0-1.27-.57-2-1.59-2-1.12,0-2.47,.78-4.55,2.63-1.35,1.2-2.57,2.47-3.95,4.11-.03,.62-.03,.96-.03,1.35,0,1.4,.08,2.65,.26,4.65,.08,.62,.08,.83,.08,1.22,0,1.48-.49,2.7-1.12,2.7-.29,0-.49-.21-.62-.7-.08-.26-.36-1.07-.44-1.25-.29-.52-1.12-1.59-2.29-2.83-.52,1.25-.62,1.4-.88,1.4-.23,0-.44-.21-.6-.6-.16-.42-.29-1.04-.29-1.43,0-.31,.03-.36,.44-.78,.42-.39,.83-.96,1.69-2.31l2.83-4.34Zm-1.59,4.86c-.6,1.14-.88,1.72-1.38,2.76,1.53,1.27,2,1.64,2.76,2.11q.05-.99,.08-4.86c0-1.27,.03-1.87,.1-2.94-.36,.75-.39,.75-1.56,2.94Z"/></g></g></g></g></svg>