<?xml version="1.0" encoding="UTF-8"?><svg xmlns="http://www.w3.org/2000/svg" viewBox="0 0 233.1 396.39"><defs><style>.d{fill:#6a4f3e;}</style></defs><g id="a"/><g id="b"><g id="c"><g><g><g><path class="d" d="M215.79,10.32c1.09,.27,2.31,.73,3.28,1.29,.8,.46,1.12,.95,1.12,1.7,0,.61-.24,1.17-.53,1.17-.02,0-.19-.1-.27-.15-.15-.12-.17-.15-.61-.8-.75-1.04-1.63-1.87-2.99-2.77v5.22q.02,4.44,.07,5.58c-.07,.32-.27,.41-.87,.41h-.32c-.36,0-.46-.05-.53-.24,0-.27,.02-2.14,.07-5.63v-4.22c-1.19,1.21-2.16,1.99-3.84,3.08l-.27-.36c1.58-1.31,2.7-2.48,4.05-4.3,1.36-1.82,2.14-3.13,2.99-4.98h-4.88c-.53,0-.9,.02-1.72,.12l-.17-.9c.66,.15,1.33,.22,1.89,.22h1.94V2.21c0-.97-.02-1.29-.19-2.11,.53,.05,.95,.1,1.21,.12,1.17,.1,1.48,.17,1.48,.41,0,.19-.19,.32-.92,.56v3.57h1.36c.49-.56,.66-.7,1.17-1.21,.66,.53,.85,.7,1.43,1.21,.22,.24,.27,.32,.27,.39,0,.19-.12,.24-1.21,.49-1.02,1.82-1.67,2.79-3.01,4.44v.24Zm5.05-1.24c-.51,0-.97,.05-1.94,.17l-.19-.92c1,.17,1.36,.19,2.14,.19h3.45V3.03c0-1.26-.02-1.89-.17-3.03,.51,.07,1.02,.12,1.26,.15,1.26,.12,1.55,.22,1.55,.44,0,.19-.27,.36-.97,.63v7.31h2.5l1.41-1.82c1.02,.85,1.33,1.12,2.31,2.02,.05,.05,.1,.15,.1,.17,0,.1-.12,.19-.24,.19h-6.07v11h2.96c.66-.8,.87-1.07,1.63-1.89,1,.85,1.29,1.14,2.26,2.11,.07,.05,.12,.15,.12,.17,0,.1-.12,.17-.24,.17h-12.7c-1,0-1.41,.02-2.31,.17l-.22-.92c.85,.12,1.65,.19,2.52,.19h4.3V9.08h-3.45Z"/><path class="d" d="M224.56,40.05c1.97-.95,3.25-1.77,4.42-2.89,1.75,.95,2.06,1.14,2.06,1.31,0,.15-.17,.22-.46,.22-.1,0-.56-.02-.87-.02-1.65,.8-3.28,1.38-5.15,1.82v1.38c0,.34,.05,.41,.29,.46,.17,.02,1.33,.07,1.99,.07,.22,0,.58,0,1.21-.02h1c.92,0,1.04-.02,1.19-.27,.17-.27,.68-1.53,1.09-2.69l.29,.02-.15,1.92v.56q0,.12,.44,.29c.34,.1,.51,.29,.51,.58,0,.8-.66,.92-5.17,.92-3.91,0-4.13-.07-4.18-1.31v-6.21h-5c-.58,.9-.9,1.31-1.48,1.94h3.42c.41-.39,.53-.49,.97-.85,.56,.44,.73,.56,1.26,1,.17,.15,.22,.22,.22,.29,0,.15-.12,.19-.95,.46-1.6,2.33-2.89,3.52-5.2,4.73-1.7,.9-3.33,1.48-5.63,2.02l-.12-.39c2.82-1.02,4.61-1.94,6.31-3.25-.19-.02-.24-.07-.39-.27-.58-.85-1.29-1.55-1.87-1.89-1.58,1.24-2.33,1.7-3.74,2.31l-.22-.34c1.5-.97,2.5-1.87,3.86-3.4,.8-.92,1.24-1.51,1.72-2.36h-2.84c-1.04,0-1.21,0-2.06,.15l-.17-.95c.75,.17,1.38,.24,2.23,.24h15.46c.63-.68,.83-.9,1.48-1.55,.92,.75,1.19,1,2.09,1.77,.05,.07,.1,.15,.1,.19,0,.1-.1,.15-.27,.15h-7.72v3.86Zm-.83-7.72c0-.12,.02-.17,.02-.19,0-1.07-.05-1.6-.12-2.04,2.09,.22,2.69,.34,2.69,.56,0,.17-.19,.27-1.02,.49q-.02,.92-.02,1.19h3.74c.68-.73,.9-.95,1.55-1.6,.97,.78,1.29,1.02,2.28,1.82,.05,.07,.1,.15,.1,.19,0,.1-.1,.15-.24,.15h-7.43c0,.51,0,.73,.02,1.38-.02,.29-.24,.34-1.33,.34-.24,0-.29-.05-.29-.22,.02-.78,.05-1.04,.05-1.51h-4.66v.29l-.02,.44c0,.15,.02,.32,.05,.63,0,.15-.02,.19-.1,.24-.1,.07-.63,.12-1.31,.12-.15,0-.22-.05-.24-.19,.05-.83,.07-1.09,.07-1.53h-4.64c-1.02,0-1.21,.02-1.94,.12l-.17-.87c.68,.15,1.17,.19,2.11,.19h4.64c.02-.27,.02-.49,.02-.68,0-.66-.02-.92-.1-1.55,.51,.07,.95,.12,1.21,.15,1.17,.12,1.43,.19,1.43,.41,0,.17-.22,.27-1.02,.49v1.19h4.66Zm-6.07,13.93c.05-.49,.07-.78,.07-1.19,0-.39-.02-.61-.1-1.04,.51,.07,.9,.15,1.17,.17,1.04,.15,1.46,.27,1.46,.44s-.12,.22-.9,.49c-.07,.73-.07,.83-.12,1.14h4.49c0-1.21-.02-1.24-.1-2.04,2.33,.22,2.52,.24,2.52,.46,0,.17-.05,.19-.85,.53v1.04h3.71c.66-.75,.85-.97,1.5-1.63,1,.75,1.29,1,2.23,1.82,.05,.07,.1,.15,.1,.19,0,.07-.12,.17-.22,.17h-7.36v1.48c0,.61,0,.75,.05,3.57,0,.12-.05,.17-.12,.22-.12,.07-.75,.15-1.29,.15-.22,0-.29-.07-.29-.27,.07-1.63,.1-2.31,.1-3.54v-1.6h-4.56c-.32,1.65-.75,2.52-1.63,3.3-1.5,1.33-3.57,2.09-6.55,2.4l-.1-.36c2.84-.7,4.27-1.36,5.32-2.45,.7-.73,1.12-1.58,1.36-2.89h-4.42c-.9,0-1.26,.02-1.89,.15l-.17-.87c.7,.15,1.12,.17,2.06,.17h4.52Zm-1.6-7.57c-.46,.46-.7,.68-1.19,1.09,.46,.07,.9,.19,1.5,.41,.83,.32,1.09,.53,1.09,.95,0,.29-.07,.49-.19,.7,1.19-1,1.89-1.82,2.74-3.16h-3.96Z"/><path class="d" d="M217.22,70.27c-.44,1.53-1.12,4.18-1.41,5.37-.24,1.07-.32,1.46-.32,2.06-.02,.78-.05,.87-.17,1.07-.12,.17-.27,.27-.46,.27-.41,0-.75-.34-1.04-1.09-.49-1.24-.78-3.08-.78-4.88,0-2.23,.27-4.27,1.09-8.08,.32-1.5,.36-1.77,.36-2.18,0-.73-.19-1.31-.7-2.14,.56,.02,1.02,.34,1.7,1.21,.56,.7,.87,1.38,.87,1.85q0,.27-.39,1.07c-1.17,2.43-1.84,5.32-1.84,7.91,0,1.24,.1,2.01,.39,3.01l1.02-2.43,1.31-3.13,.36,.12Zm2.43-4.39c1.17,.75,1.92,1,3.13,1,.85,0,1.77-.12,2.77-.34v-1.07c0-2.72-.02-3.04-.34-3.38-.29-.32-.83-.49-1.6-.56,.34-.32,.53-.39,1.17-.39,.53,0,1.19,.1,1.65,.22,.7,.22,1.07,.51,1.07,.87,0,.17,0,.19-.22,.75-.27,.7-.41,1.58-.51,3.25,1.12-.32,1.82-.63,2.23-1,.24-.24,.32-.27,.53-.27,.29,0,.85,.15,1.14,.32,.19,.1,.32,.27,.32,.44,0,.53-1.77,1.26-4.3,1.75,0,3.23,.07,4.56,.32,6.6,2.82,.75,4.01,1.7,4.01,3.11,0,.51-.22,.9-.49,.9-.19,0-.36-.12-.85-.61-1.07-1.09-1.67-1.53-2.62-1.94,.02,.22,.02,.41,.02,.58,0,1.75-1.46,2.79-3.88,2.79-2.11,0-3.59-1.02-3.59-2.48,0-1.67,1.8-2.74,4.56-2.74,.46,0,.8,.02,1.48,.07v-.41l-.05-2.6-.02-3.11c-.73,.15-1.43,.19-2.14,.19-1.77,0-2.79-.44-4.01-1.7l.22-.27Zm3.71,8.86c-1.92,0-3.11,.63-3.11,1.7,0,.85,.95,1.43,2.38,1.43,1.33,0,2.28-.39,2.67-1.14,.24-.44,.32-.8,.32-1.7-.68-.19-1.36-.29-2.26-.29Z"/><path class="d" d="M210.33,98.37c1.41-.92,2.18-1.55,3.57-2.89,2.26-2.21,3.93-4.3,5.34-6.55,.41-.7,.58-1.04,.8-1.77,2.67,.61,2.86,.68,2.86,.87,0,.22-.39,.41-.92,.44,1.5,2.33,2.91,3.71,5.27,5.24,1.94,1.24,3.3,1.8,5.85,2.43v.24c-1,.27-1.29,.61-1.75,1.99-1.97-.97-3.71-2.23-5.41-3.88-1.14-1.12-2.4-2.6-3.35-3.98-.46-.66-.63-.95-1.02-1.82-1.46,2.26-3.08,4.18-5.24,6.09-1.84,1.65-3.42,2.72-5.75,3.93l-.24-.34Zm10.49,2.6c-2.45,3.62-2.72,4.01-4.15,5.63,3.79-.05,7.48-.24,9.88-.51-1.07-1.53-1.92-2.55-3.16-3.76l.19-.24c1.6,.92,3.25,2.16,4.86,3.64,.63,.61,.92,1.12,.92,1.7,0,.44-.19,1.19-.39,1.51-.1,.15-.27,.24-.41,.24-.17,0-.27-.1-.41-.36-.44-.85-.95-1.77-1.26-2.21-3.88,.8-9.15,1.55-13.04,1.87-.24,.73-.32,.85-.51,.85-.15,0-.19-.05-.29-.46-.15-.66-.36-1.65-.49-2.33q.58,.02,1.97,.07c.41,.02,.73,.02,1.02,.02,.07,0,.24,0,.44-.02,1.07-1.84,1.36-2.52,2.6-5.63h-4.93c-.75,0-1.07,.02-1.72,.15l-.19-.9c.68,.15,1.09,.19,1.92,.19h14.01c.58-.78,.75-1,1.33-1.7,1.04,.78,1.36,1.04,2.35,1.87,.05,.1,.12,.19,.12,.22,0,.1-.1,.17-.22,.17h-10.44Zm-5.51-4.78c.61,.12,1.36,.19,1.97,.19h6.12c.58-.73,.75-.95,1.36-1.63,.97,.78,1.29,1.02,2.23,1.82,.1,.07,.15,.15,.15,.22,0,.1-.1,.15-.32,.15h-9.66c-.41,0-.78,.02-1.68,.1l-.17-.85Z"/><path class="d" d="M215.79,127.76c1.09,.27,2.31,.73,3.28,1.29,.8,.46,1.12,.95,1.12,1.7,0,.61-.24,1.17-.53,1.17-.02,0-.19-.1-.27-.15-.15-.12-.17-.15-.61-.8-.75-1.04-1.63-1.87-2.99-2.77v5.22q.02,4.44,.07,5.58c-.07,.32-.27,.41-.87,.41h-.32c-.36,0-.46-.05-.53-.24,0-.27,.02-2.14,.07-5.63v-4.22c-1.19,1.21-2.16,1.99-3.84,3.08l-.27-.36c1.58-1.31,2.7-2.48,4.05-4.3,1.36-1.82,2.14-3.13,2.99-4.98h-4.88c-.53,0-.9,.02-1.72,.12l-.17-.9c.66,.15,1.33,.22,1.89,.22h1.94v-2.55c0-.97-.02-1.29-.19-2.11,.53,.05,.95,.1,1.21,.12,1.17,.1,1.48,.17,1.48,.41,0,.19-.19,.32-.92,.56v3.57h1.36c.49-.56,.66-.7,1.17-1.21,.66,.53,.85,.7,1.43,1.21,.22,.24,.27,.32,.27,.39,0,.19-.12,.24-1.21,.49-1.02,1.82-1.67,2.79-3.01,4.44v.24Zm5.05-1.24c-.51,0-.97,.05-1.94,.17l-.19-.92c1,.17,1.36,.19,2.14,.19h3.45v-5.49c0-1.26-.02-1.89-.17-3.03,.51,.07,1.02,.12,1.26,.15,1.26,.12,1.55,.22,1.55,.44,0,.19-.27,.36-.97,.63v7.31h2.5l1.41-1.82c1.02,.85,1.33,1.12,2.31,2.02,.05,.05,.1,.15,.1,.17,0,.1-.12,.19-.24,.19h-6.07v11h2.96c.66-.8,.87-1.07,1.63-1.89,1,.85,1.29,1.14,2.26,2.11,.07,.05,.12,.15,.12,.17,0,.1-.12,.17-.24,.17h-12.7c-1,0-1.41,.02-2.31,.17l-.22-.92c.85,.12,1.65,.19,2.52,.19h4.3v-11h-3.45Z"/><path class="d" d="M217.15,156.84c-.05,.22-.41,1.75-1.09,4.56-.34,1.43-.41,1.82-.41,2.57,0,.7-.02,.9-.07,1.04-.1,.27-.32,.41-.58,.41-.41,0-.78-.34-1.04-1-.53-1.26-.85-3.23-.85-5.17,0-.73,.07-1.63,.19-2.6q.17-1.41,.85-4.59c.24-1.14,.34-1.75,.34-2.26,0-.8-.19-1.41-.68-2.28,.53,.02,.97,.34,1.63,1.19,.61,.75,.9,1.38,.9,1.92,0,.39-.02,.49-.51,1.46-.49,1.02-1.07,2.72-1.31,3.86-.22,.92-.32,1.97-.32,3.01,0,1.34,.12,2.19,.46,3.21,.41-.85,.61-1.33,.87-2.06l1.29-3.4,.34,.12Zm3.06,1.21c-.05,.49-.07,.7-.07,1.02,0,2.67,1.53,3.76,5.29,3.76,.7,0,1.41-.05,2.06-.17q.51-.07,1.29-.39c.15-.05,.27-.07,.36-.07,.63,0,1.53,.85,1.53,1.43,0,.29-.19,.49-.53,.61-.51,.17-1.67,.27-3.03,.27-3.04,0-5.2-.51-6.29-1.48-.87-.8-1.31-1.82-1.31-3.16,0-.61,.07-1.14,.29-1.92l.41,.1Zm-.05-7.72c.85,.51,1.38,.66,2.26,.66,1.5,0,3.86-.53,4.88-1.09,.32-.17,.36-.19,.53-.19,.19,0,.51,.12,.85,.34,.51,.29,.75,.58,.75,.9s-.17,.46-.68,.56c-1.6,.24-2.5,.46-3.45,.85-.75,.32-2.16,1.09-3.13,1.72l-.24-.24c1.09-.92,1.92-1.6,2.31-1.89-.51,.02-.78,.05-1,.05-1.36,0-2.26-.36-3.3-1.36l.22-.29Z"/><path class="d" d="M218.05,173.56c.73,0,1.87,.22,2.45,.46,.49,.19,.68,.44,.68,.78v.05c0,.19-.02,.19-.19,.63-.29,.83-.53,2.91-.53,4.93,0,1.43,.19,1.8,.95,1.8,.51,0,1.04-.19,3.25-1.24,.44-.22,.7-.29,1-.29,.58,0,1.17,.51,1.17,1.02,0,.32-.17,.58-.51,.73-.17,.07-.51,.19-1.63,.51-2.94,.83-4.54,1.55-6.07,2.72-1.31,1.02-1.89,1.97-1.89,3.11,0,1.75,1.38,2.65,4.08,2.65,1.51,0,3.88-.29,5.63-.7,.24-.05,.34-.07,.49-.07,.63,0,1.31,.61,1.31,1.19,0,.44-.27,.66-1.04,.8-.78,.15-3.2,.32-4.66,.32-1.77,0-3.11-.19-4.13-.56-1.63-.61-2.65-1.99-2.65-3.59,0-1.41,.78-2.74,2.38-4.08,.73-.63,1.53-1.17,2.96-1.94-.53,0-.75-.07-1.17-.36-.36-.27-.58-.8-.7-1.84-.07-.58-.1-1.12-.17-2.94-.07-2.06-.1-2.43-.29-2.79-.27-.46-.73-.7-1.75-.87,.36-.32,.56-.39,1.04-.39Z"/><path class="d" d="M221.84,212.25c3.04-.63,5.03-1.48,6.72-2.94,1.34-1.09,2.04-2.48,2.04-3.93,0-2.11-1.46-3.52-3.62-3.52-2.36,0-5.49,1.29-8.06,3.33-.46,.34-.68,.46-.97,.46-.9,0-2.35-1.75-2.35-2.87,0-.15,.05-.24,.17-.49,.39,.85,.92,1.33,1.5,1.33,.32,0,.9-.19,2.14-.68,2.19-.87,4.15-1.5,5.54-1.75,.58-.1,1.12-.15,1.89-.15,3.18,0,5.41,1.94,5.41,4.71,0,1.72-1.02,3.5-2.62,4.56-1.94,1.33-4.08,1.99-7.7,2.4l-.1-.49Z"/><path class="d" d="M212.83,223.7c.34,.32,.61,.41,1.09,.41,.68,0,1.29-.12,6.72-1.43,1.02-.24,2.33-.53,3.93-.85,1.84-.36,2.55-.53,3.28-.78,.49-.15,.66-.19,.85-.19,.29,0,.83,.22,1.31,.51,.49,.32,.7,.58,.7,.92,0,.36-.29,.61-.75,.61-.1,0-.27,0-.44-.02-.32-.05-.44-.05-.68-.05-4.15,0-8.16,3.96-8.16,8.04,0,2.23,1.12,3.88,3.2,4.78,.8,.34,1.77,.56,2.48,.58,.49,0,.66,.07,1.02,.39,.44,.44,.73,.87,.73,1.17,0,.41-.36,.68-.9,.68-1.38,0-3.57-.78-4.93-1.75-1.85-1.31-2.82-3.18-2.82-5.44,0-1.97,.97-4.13,2.65-5.92,.97-1.07,1.94-1.72,3.96-2.77-2.21,.32-4.2,.78-6.97,1.67-1.53,.49-3.11,1.14-3.88,1.55-.49,.29-.66,.34-.97,.34-.58,0-1.31-.56-1.87-1.43-.39-.58-.63-1.24-.63-1.63,0-.19,.05-.34,.27-.63,.22,.58,.41,.9,.8,1.24Z"/><path class="d" d="M222.27,261.56v2.5h5.85c.56-.63,.75-.83,1.33-1.43,.9,.68,1.17,.9,2.09,1.65,.05,.07,.1,.15,.1,.19,0,.07-.07,.15-.15,.15h-9.22v2.65h6.92c.58-.73,.75-.92,1.36-1.6,1,.8,1.29,1.04,2.18,1.85,.02,.05,.05,.1,.05,.15,0,.07-.1,.17-.19,.17h-18.74q-2.28,.02-2.94,.1l-.12-.85c1.09,.12,2.26,.19,3.06,.19h6.77v-2.65h-5.05c-.95,0-2.21,.05-2.94,.1l-.17-.87c1.07,.15,1.97,.22,3.11,.22h5.05v-2.5h-5.05v.85c-.07,.22-.34,.27-1.21,.27-.32,0-.41-.07-.41-.32,.07-1.33,.12-3.23,.12-4.93,0-.53-.02-1.5-.02-2.35-.02-.97-.02-1.26-.02-1.77,.87,.46,1.17,.63,2.01,1.14h4.59v-2.16h-6.77c-1.07,0-1.92,.02-2.67,.1l-.12-.83c1.19,.12,1.87,.17,2.79,.17h6.77v-2.28c-3.13,.29-4.9,.36-8.01,.36l-.05-.41c5.75-.34,11.82-1.51,15-2.82,1.82,1.26,2.19,1.58,2.19,1.8,0,.1-.1,.17-.22,.17q-.22,0-1.17-.27c-2.11,.49-3.18,.66-6.09,1v2.45h6.58c.58-.75,.78-1,1.48-1.7,.97,.78,1.29,1.02,2.23,1.89,.05,.07,.07,.12,.07,.17,0,.1-.1,.19-.19,.19h-10.17v2.16h5.05c.36-.44,.49-.58,.92-1,.7,.49,.92,.66,1.6,1.19,.1,.1,.12,.15,.12,.19,0,.17-.1,.24-.78,.63,0,5.56,0,5.71,.05,6.75-.02,.19-.07,.27-.22,.29-.24,.07-.58,.12-1,.12-.34,0-.41-.05-.46-.24v-.83h-5.29Zm-1.65-6.55h-5.05v2.57h5.05v-2.57Zm0,3.13h-5.05v2.86h5.05v-2.86Zm6.94-3.13h-5.29v2.57h5.29v-2.57Zm0,3.13h-5.29v2.86h5.29v-2.86Z"/><path class="d" d="M226.35,289.83c-1.07,1.84-1.65,2.6-2.99,3.88,2.55,.68,4.93,1.46,5.63,1.87,.66,.39,1.21,1.33,1.21,2.04,0,.34-.17,.58-.41,.58-.17,0-.27-.07-1.67-.95-1.92-1.19-3.33-1.87-5.68-2.74-1.58,1.29-2.99,2.04-4.98,2.65-2.28,.7-4.03,.97-6.68,1.02v-.41c3.11-.46,4.71-.85,6.58-1.63,1.31-.56,2.43-1.21,3.59-2.11-1.75-.53-2.45-.7-4.25-1-.29,.34-.41,.49-.83,.95-.12,.15-.22,.19-.34,.19-.24,0-1.09-.17-1.21-.24-.05-.02-.07-.07-.07-.1,0-.07,.02-.1,.27-.39,1.5-1.85,1.97-2.43,2.82-3.62h-4.73q-1.55,.02-1.99,.12l-.15-.95c.73,.22,1.09,.27,2.16,.27h5.1c1-1.48,1.33-2.06,1.6-2.72,1.97,.58,2.16,.68,2.16,.83,0,.17-.24,.27-1,.36-.51,.8-.63,1-1,1.53h9.52c.66-.75,.85-.95,1.5-1.6,.95,.75,1.24,1,2.09,1.77,.1,.12,.15,.19,.15,.24,0,.1-.1,.15-.24,.15h-6.17Zm-1.67-8.62h3.57c.41-.46,.56-.61,.97-1.04,.58,.44,.75,.58,1.33,1.04,.19,.17,.24,.24,.24,.32,0,.15-.07,.22-.73,.61q.02,3.57,.12,4.95v.07c0,.29-.29,.36-1.33,.36-.24,0-.34-.1-.34-.32v-.78h-14.06v.66c0,.32-.19,.39-1.26,.39-.22,0-.32-.07-.32-.27,.05-1.48,.05-2.23,.05-3.13q0-.75-.02-2.31c-.02-.51-.02-1-.02-1.48,.83,.34,1.09,.49,1.97,.92h3.33v-3.08h-5.41c-.49,0-1.14,.05-1.72,.15l-.15-.95c.61,.17,1.14,.24,2.11,.24h15.71c.63-.7,.83-.9,1.43-1.53,.95,.7,1.24,.95,2.16,1.7,.07,.1,.15,.19,.15,.24,0,.07-.07,.15-.17,.15h-7.6v3.08Zm-10.22,.56v4.1h3.71v-4.1h-3.71Zm4.66,8.06c-.85,1.21-1.29,1.82-2.06,2.79,2.6,.34,3.45,.49,4.73,.73,1.29-1.19,1.87-1.92,2.72-3.52h-5.39Zm.53-11.7v3.08h3.52v-3.08h-3.52Zm0,7.74h3.52v-4.1h-3.52v4.1Zm5.03,0h3.84v-4.1h-3.84v4.1Z"/><path class="d" d="M212.59,310.7c1.17,1.09,1.84,1.41,3.06,1.41,.63,0,1.29-.1,2.21-.29,.61-1.58,.87-2.6,.87-3.45,0-.8-.39-1.29-1.55-1.87,.27-.15,.39-.17,.58-.17,.49,0,1.24,.22,1.94,.56,.83,.41,1.14,.68,1.14,1.02,0,.19-.05,.34-.24,.63-.1,.19-.61,1.19-1.48,2.99,1.8-.63,2.02-.75,2.7-1.34,.19-.17,.27-.19,.51-.19,.95,0,1.65,.32,1.65,.73,0,.63-1.5,1.24-5.37,2.14-.22,.49-.63,1.48-1.29,2.94-.73,1.67-2.6,5.75-2.82,6.17-.36,.66-.58,.87-.87,.87-.41,0-.75-.75-.75-1.72,0-.49,.05-.63,.27-.87,.53-.58,.83-.95,1.17-1.46,1.19-1.77,2.06-3.42,3.03-5.71-.53,.07-.75,.1-1.14,.1-.87,0-1.53-.15-2.14-.51-.73-.41-1.29-1-1.77-1.77l.29-.19Zm12.84,1.36c1.67,.15,3.03,.58,4.15,1.33,.95,.61,1.53,1.33,1.53,1.89,0,.41-.24,.7-.63,.7-.19,0-.34-.05-.56-.19-.68-.41-1.14-.51-2.38-.51-1.94,0-2.55,.53-2.55,2.21,0,.66,.12,1.7,.49,4.18,1.48,.44,2.74,1.02,3.45,1.58,.66,.51,.97,1.14,.97,1.92,0,.49-.19,.83-.49,.83-.24,0-.34-.07-.85-.63-.87-.95-1.67-1.53-2.94-2.14v.46c0,.97-.19,1.53-.68,2.06-.66,.66-1.8,1.04-3.16,1.04-2.19,0-3.69-1.04-3.69-2.57,0-1.7,1.84-2.89,4.54-2.89,.56,0,.83,.02,1.46,.12-.07-1.92-.07-2.11-.07-2.4,0-1.99,.19-2.74,.85-3.47,.49-.51,1.17-.85,2.31-1.14,.36-.1,.41-.12,1.31-.32-.66-.7-1.41-1.09-3.13-1.68l.07-.39Zm-1.31,10.63c-.75-.22-1.31-.29-2.09-.29-2.06,0-3.33,.7-3.33,1.84,0,.9,.92,1.43,2.43,1.43,1.97,0,2.99-.8,2.99-2.33v-.66Z"/></g><g><path class="d" d="M173.67,1.48c.58,0,1.63,.34,2.28,.75,.41,.27,.63,.56,.63,.85,0,.07-.05,.32-.07,.53-.12,.56-.22,2.45-.22,4.18,0,.32,0,.87,.02,1.84v.83c0,.78-.02,1.04-.07,1.31-.05,.34-.24,.53-.49,.53-.32,0-.63-.29-.92-.83-.27-.49-.44-1.04-.44-1.36,0-.17,.02-.24,.1-.53,.22-.66,.32-2.04,.32-3.96,0-1.77-.1-2.36-.46-2.91-.29-.49-.51-.63-1.43-1.04,.29-.17,.39-.19,.75-.19Zm2.55,18.38c2.43-1.65,3.81-3.01,4.9-4.83,1.36-2.31,1.72-4.39,1.72-10.12,0-2.43-.1-3.21-.46-3.67-.32-.39-.87-.68-1.75-.87,.34-.29,.53-.36,1-.36,.58,0,1.72,.32,2.48,.68,.61,.29,.87,.61,.87,.97q0,.17-.15,.58c-.19,.58-.32,2.19-.41,5.2-.12,3.52-.27,4.64-.78,6.07-1.02,2.79-3.62,5.22-7.23,6.68l-.19-.32Z"/><path class="d" d="M169.79,44.19c2.33-1.46,4.73-3.42,6.53-5.32,1.46-1.53,3.21-3.81,4.64-6.04,.78-1.19,1.19-1.99,1.65-3.13-1.17,.07-2.45,.34-5.12,1.07-1.17,.32-1.26,.34-2.04,.66-.12,.05-.27,.07-.41,.07-.53,0-1.04-.44-1.58-1.38-.34-.56-.51-1.07-.51-1.46,0-.15,.05-.27,.17-.49,.7,1.26,1.21,1.63,2.28,1.63,.8,0,3.25-.32,5.1-.68,1.41-.27,1.84-.41,2.28-.68,.27-.17,.39-.22,.56-.22,.51,0,1.89,1.24,1.89,1.7,0,.17-.1,.32-.32,.46q-.51,.34-1.38,1.65-1.17,1.75-3.06,4.22c3.42,1.8,5.34,3.03,6.29,4.1,.66,.7,.92,1.41,.92,2.4,0,.78-.24,1.26-.66,1.26-.17,0-.36-.12-.56-.39q-.1-.12-.58-.97c-1.21-2.04-3.3-4.2-5.78-5.95-1.97,2.38-3.54,3.86-5.88,5.46-1.53,1.07-2.57,1.65-4.25,2.38l-.19-.36Z"/><path class="d" d="M171.58,63.4c1.8-1.5,3.4-3.4,5.1-5.95,1-1.5,1.6-2.74,1.6-3.28,0-.32-.1-.51-.46-.83q-.32-.27-.58-.44t-.44-.22c.22-.12,.32-.15,.46-.15,.53,0,1.33,.27,1.99,.66,.78,.44,1.14,.85,1.14,1.24,0,.29-.02,.32-1.31,2.21,.32,.07,.46,.1,.63,.1,.49,0,1.67-.19,2.91-.49,1-.24,1.41-.39,1.92-.66,.19-.12,.27-.15,.41-.15,.58,0,1.97,1.26,1.97,1.8,0,.22-.07,.34-.36,.61-.41,.36-.53,.56-1.17,1.72-2.14,4.01-4.2,6.65-7.16,9.13-2.09,1.77-3.91,2.91-6.02,3.79l-.17-.34c1.94-1.19,3.4-2.38,5.37-4.35,2.94-2.91,5.22-6.21,6.63-9.61,.24-.53,.39-1.04,.39-1.24,0-.1-.07-.17-.22-.17-.36,0-1.89,.39-3.08,.78-.44,.15-.58,.17-.8,.17-.51,0-1.02-.24-1.5-.7-1.87,2.67-4.35,5.03-6.99,6.65l-.24-.29Z"/><path class="d" d="M175.52,86.66c1.99,1,2.82,1.5,4.05,2.45,2.94-2.82,4.25-4.2,5.56-5.88,.58-.75,.78-1.02,.78-1.14s-.15-.19-.39-.19c-1.12,0-4.47,.49-7.53,1.09-2.77,.53-3.79,.83-4.78,1.31-.32,.15-.49,.19-.68,.19-.44,0-1.04-.46-1.63-1.26-.53-.73-.85-1.41-.85-1.85,0-.19,.05-.36,.15-.56,.29,.53,.66,.92,1.17,1.21,.39,.22,.73,.29,1.48,.29,1.17,0,3.25-.22,8.04-.87,2.28-.29,3.52-.46,3.74-.51q.41-.07,.78-.29c.19-.12,.39-.17,.61-.17,.41,0,.9,.34,1.7,1.17,.7,.73,1.02,1.19,1.02,1.5,0,.22-.1,.39-.29,.49q-.12,.05-.61,.22c-.29,.1-.63,.32-1.36,.9-.22,.17-.85,.66-1.8,1.33-.51,.39-1.21,.92-2.06,1.58-1.24,.95-1.67,1.29-2.55,1.84,1.63,1.38,2.09,2.04,2.09,3.06,0,.95-.34,1.6-.83,1.6-.34,0-.53-.19-.85-.87-.44-.95-1.46-2.48-2.35-3.57-.78-.92-1.48-1.63-2.82-2.77l.22-.32Z"/><path class="d" d="M169.3,118.2c2.74-1.36,4.39-2.33,6.63-3.91,2.38-1.7,5.17-4.2,6.97-6.29-2.09,.36-2.89,.56-5.24,1.19-1.36,.36-1.43,.39-2.06,.68-.49,.19-.53,.22-.75,.22-.83,0-2.06-1.58-2.06-2.6,0-.17,.02-.24,.12-.44,.68,1,1.26,1.31,2.45,1.31,.92,0,2.55-.24,5.03-.73,1.94-.39,1.99-.39,2.48-.66,.32-.19,.46-.24,.63-.24,.32,0,.9,.36,1.41,.85,.34,.32,.44,.49,.44,.7,0,.17-.07,.27-.44,.46-.49,.24-.87,.53-2.11,1.65-1.55,1.38-2.43,2.11-3.42,2.84,.46,.51,.66,.78,.78,1.17,.15,.39,.15,.46,.15,1.63l-.02,1.46c0,1.53,.02,3.38,.07,4.18,.02,.22,.02,.44,.02,.56,0,.58-.22,.9-.58,.9s-.7-.32-1.04-.95c-.29-.51-.46-1.02-.46-1.33,0-.1,.02-.19,.1-.36,.19-.44,.24-.7,.32-1.38,.15-1.58,.19-2.52,.19-3.42,0-1.29-.02-1.48-.17-1.92-3.35,2.38-5.95,3.71-9.22,4.76l-.17-.32Zm6.7-16.02c.58,.58,.92,.8,1.53,1.02,.66,.22,1.46,.34,2.23,.34,.66,0,1.09-.05,1.6-.17,.19-.05,.29-.07,.39-.07,.56,0,1.38,.78,1.38,1.31,0,.39-.39,.56-1.24,.56-1.46,0-3.11-.32-4.03-.75-.78-.39-1.46-1.02-2.14-2.01l.27-.22Zm5.51,11.19c2.5,.22,4.61,.66,5.92,1.26,.83,.36,1.29,1.07,1.29,1.89,0,.56-.24,.92-.63,.92-.15,0-.27-.07-.7-.41-1.82-1.46-3.54-2.4-5.92-3.3l.05-.36Z"/><path class="d" d="M170.32,138.94c2.01,.41,3.45,.9,4.25,1.43,.66,.41,.92,.9,.92,1.6,0,.63-.32,1.17-.68,1.17-.24,0-.39-.1-.75-.56-1.24-1.55-2.38-2.53-3.88-3.33l.15-.32Zm18.74-.61c-.53,.87-1.89,2.43-3.62,4.15-2.67,2.57-5.34,4.64-9.2,7.06-1.29,.85-1.58,1.04-1.87,1.34-.19,.17-.36,.24-.56,.24-.49,0-1.04-.46-1.72-1.46-.44-.66-.75-1.41-.75-1.87,0-.22,.07-.39,.22-.56,.46,.92,1.14,1.5,1.82,1.5,.53,0,2.14-.8,4.66-2.38,4.44-2.72,8.06-5.54,10.73-8.25l.29,.22Zm-16.07-3.69c3.88,.92,5.12,1.67,5.12,3.08,0,.68-.29,1.21-.66,1.21q-.27,0-1.31-1.29c-.95-1.12-2.16-2.09-3.33-2.67l.17-.34Zm10.39-2.09c.9,.49,1.55,.95,2.16,1.48,.87,.8,1.21,1.36,1.21,1.94s-.34,1.02-.75,1.02q-.32,0-1.09-1.58c-.41-.85-1.19-1.92-1.84-2.55l.32-.32Zm2.5-1.43c.87,.41,1.58,.83,2.33,1.41,.92,.7,1.24,1.19,1.24,1.87,0,.58-.24,1-.61,1-.22,0-.36-.12-.56-.49-.85-1.53-1.33-2.14-2.67-3.45l.27-.34Z"/><path class="d" d="M174.57,163.87c1.99,.83,3.47,1.65,5.73,3.18,1.12-1.72,2.09-3.5,2.62-4.86,.27-.63,.34-.92,.34-1.31,0-.58-.39-1.07-1.31-1.63,.19-.12,.27-.15,.41-.15,.41,0,1.14,.27,1.82,.68,.97,.61,1.6,1.26,1.6,1.72,0,.24-.1,.41-.41,.75-.44,.46-.73,.85-1.33,1.87q-1.14,1.84-2.48,3.81c2.6,2.01,3.03,2.57,3.03,3.86,0,.75-.24,1.31-.58,1.31-.24,0-.29-.05-.9-.95-.73-1.09-1.46-1.97-2.48-2.96-2.16,2.79-3.11,3.81-5.1,5.46-1.72,1.43-2.77,2.14-5.1,3.33l-.22-.36c1.99-1.46,3.11-2.38,4.61-3.91,1.7-1.7,2.62-2.79,4.73-5.61-1.8-1.63-3.11-2.6-5.22-3.93l.22-.32Z"/><path class="d" d="M171.75,186c2.33,.58,3.74,1.14,4.69,1.82,.56,.39,.83,.92,.83,1.65,0,.8-.27,1.36-.68,1.36-.27,0-.39-.12-1.04-.97-1.19-1.58-2.06-2.38-3.96-3.57l.17-.29Zm17.26,1.38c-1.21,2.28-2.7,4.2-5.1,6.53-2.23,2.16-3.74,3.37-6.82,5.54-1.14,.8-1.26,.9-1.43,1.12-.39,.46-.53,.58-.85,.58-1,0-2.84-2.33-2.84-3.57,0-.15,.02-.24,.12-.49,.49,.73,.53,.78,.87,1.07,.36,.34,.7,.51,.97,.51,.41,0,1.17-.32,2.35-1.02,2.72-1.58,3.67-2.26,5.8-4.01,2.99-2.43,4.44-3.91,6.53-6.48l.39,.22Z"/><path class="d" d="M175.59,209.14c.51,0,1.04,.12,1.8,.41,1.02,.39,1.6,.87,1.6,1.33q0,.17-.15,.53c-.29,.66-.44,2.48-.44,5.29,1.82,.17,4.22,.75,5.66,1.36,1.09,.51,1.51,1,1.51,1.87,0,.7-.22,1.12-.58,1.12-.24,0-.27,0-.9-.58-1.6-1.48-3.47-2.5-5.71-3.16,.02,1.53,.02,2.28,.02,3.01v3.54q0,.73,.05,2.77c.02,.51,.02,.92,.02,1.29,0,.46-.02,.68-.12,.83-.07,.12-.27,.22-.44,.22-.58,0-1.55-1.31-1.55-2.11,0-.24,.02-.39,.12-.68,.36-1.17,.51-4.32,.51-10.51,0-1.75-.07-3.52-.17-4.18-.15-1.09-.68-1.7-1.84-2.16,.29-.17,.39-.19,.61-.19Z"/><path class="d" d="M170.47,239.83c.34,.32,.61,.41,1.09,.41,.68,0,1.29-.12,6.75-1.43,.87-.22,2.26-.53,3.93-.85,1.7-.34,2.55-.56,3.28-.8,.49-.15,.66-.19,.85-.19,.29,0,.83,.22,1.31,.51,.49,.29,.7,.61,.7,.92,0,.36-.29,.61-.75,.61-.12,0-.27,0-.46-.02-.29-.05-.41-.05-.68-.05-4.15,0-8.16,3.96-8.16,8.11,0,2.16,1.14,3.86,3.23,4.73,.8,.34,1.72,.56,2.45,.58,.49,0,.68,.07,1.02,.39,.46,.44,.73,.87,.73,1.17,0,.39-.36,.68-.87,.68-1.41,0-3.59-.78-4.95-1.75-1.84-1.31-2.82-3.2-2.82-5.44,0-1.97,.97-4.15,2.65-5.92,.97-1.07,1.92-1.72,3.96-2.79-3.01,.36-8.57,2.02-10.85,3.25-.49,.29-.66,.34-.97,.34-.58,0-1.31-.56-1.87-1.43-.39-.58-.63-1.24-.63-1.63,0-.19,.05-.34,.27-.66,.22,.61,.41,.92,.8,1.26Zm14.42,2.18c.9,.51,1.55,.97,2.16,1.5,.87,.8,1.21,1.36,1.21,1.94s-.34,1.02-.75,1.02q-.32,0-1.07-1.58c-.44-.85-1.21-1.92-1.87-2.57l.32-.32Zm2.5-1.41c.87,.39,1.58,.83,2.33,1.38,.92,.7,1.24,1.21,1.24,1.87,0,.58-.24,1-.61,1-.22,0-.36-.12-.56-.46-.85-1.53-1.31-2.16-2.67-3.45l.27-.34Z"/><path class="d" d="M175.78,283.12c2.82-1.92,4.01-3.47,4.61-6.07-.56,.34-1,.49-1.55,.49-1.7,0-2.99-1.5-2.99-3.5,0-2.14,1.33-3.71,3.13-3.71,.46,0,.73,.07,1.36,.41,0-.41,.02-1.75,.02-2.53,0-.05,0-.27-.02-.49-1.89,.17-4.15,.63-6.12,1.21-.61,.19-1.02,.36-1.58,.66-.15,.05-.41,.12-.56,.12-.44,0-1-.34-1.55-.92-.53-.58-.97-1.38-.97-1.77,0-.05,.05-.17,.12-.29,.63,.83,1.38,1.24,2.35,1.24,.49,0,1.02-.05,2.09-.22,2.86-.46,3.74-.58,6.21-.85,0-1.46-.07-2.16-.27-2.7-.27-.68-.85-1.02-2.09-1.19,.29-.36,.46-.44,1.12-.44,.83,0,1.65,.12,2.35,.34,.58,.19,.92,.51,.92,.85,0,.19-.02,.24-.24,.66-.27,.51-.44,1.19-.53,2.35q.63-.07,1.58-.15c2.33-.17,2.6-.22,3.23-.44,.61-.24,.7-.27,.9-.27,.49,0,1.46,.41,2.06,.9,.29,.22,.39,.39,.39,.66s-.17,.41-.53,.41c-.17,0-.22,0-1.31-.15-1.26-.17-2.31-.24-3.74-.24-.9,0-1.6,.02-2.6,.1-.1,.92-.17,2.4-.17,3.3,0,.17,0,.46,.02,.83,.61,1.24,.78,1.99,.78,3.23,0,2.38-.95,4.59-2.62,6.17-.92,.87-2.11,1.65-3.62,2.31l-.19-.32Zm3.08-12.21c-1.09,0-1.94,1.14-1.94,2.62s.83,2.65,1.97,2.65c1.04,0,1.55-.78,1.55-2.28,0-2.01-.51-2.99-1.58-2.99Z"/><path class="d" d="M191.01,294.56c0,1.72-1.41,3.13-3.13,3.13s-3.13-1.41-3.13-3.13,1.41-3.13,3.13-3.13,3.13,1.38,3.13,3.13Zm-5.49,0c0,1.29,1.07,2.36,2.35,2.36s2.36-1.04,2.36-2.36-1.04-2.35-2.36-2.35-2.35,1.04-2.35,2.35Z"/></g></g><g><path class="d" d="M84.21,21c.68-2.5,1-5.07,1.02-7.82,2.14,.27,2.19,.29,2.19,.51,0,.15-.15,.22-.68,.41-.56,3.42-.92,4.66-2.16,7.06l-.36-.17Zm.29-17.46c.78,.46,1.09,.66,1.6,1.04,.95-1.67,1.63-3.28,1.97-4.59,2.28,.73,2.48,.83,2.48,1.02,0,.24-.34,.36-1.09,.36-.97,1.43-1.38,1.92-2.89,3.54,.87,.66,1.17,1.09,1.17,1.67,0,.63-.36,1.34-.7,1.34-.15,0-.27-.12-.39-.46-.39-1-1.17-2.23-2.31-3.67l.17-.27Zm3.57,7.65c-1.14,.27-1.53,.34-2.67,.56-.15,.53-.27,.78-.46,.78-.22,0-.29-.27-.61-2.21h.75c.44,0,.92-.02,1.5-.05,.85-1.19,1.21-1.72,1.94-2.96,1.21-2.11,1.77-3.23,2.18-4.39,.56,.22,1,.39,1.29,.51,.34,.15,.58,.24,.73,.29,.27,.1,.39,.19,.39,.32,0,.24-.29,.34-1.09,.34h-.1c-1.72,2.6-2.84,4.01-4.66,5.85,1.99-.15,2.23-.17,3.88-.34-.24-.7-.36-.97-.87-2.01l.24-.19c1.46,1.41,2.26,2.55,2.26,3.25,0,.66-.44,1.36-.85,1.36-.15,0-.24-.12-.29-.39-.05-.39-.17-.95-.32-1.5-.92,.22-1.5,.36-1.75,.44v5.54c0,1.7,0,2.48,.05,5.29v.1c0,.32-.22,.39-1.07,.39-.46,0-.58-.05-.58-.27v-.05c.1-2.96,.1-3.42,.1-5.32v-5.32Zm2.5,1.19c1.17,1.58,1.7,2.6,1.7,3.37s-.51,1.72-.92,1.72c-.19,0-.29-.24-.32-.8-.02-1.07-.24-2.31-.73-4.18l.27-.12Zm3.42,2.43c-.1,2.6-.24,3.45-.83,4.56-.39,.73-.8,1.17-1.12,1.17-.41,0-.66-.51-.66-1.34,0-.51,.02-.56,.68-1.19,.73-.66,1.21-1.72,1.48-3.25l.44,.05Zm-1.94-6.38c1.14-1.75,1.89-3.18,2.57-4.88,.41-1.07,.63-1.82,.85-3.08,1.92,.66,2.18,.78,2.18,1,0,.17-.12,.22-.8,.34-1.21,2.91-2.21,4.42-4.54,6.94l-.27-.32Zm8.06-1.58c1.14,.85,2.45,1.94,3.01,2.5,.53,.56,.7,.87,.7,1.46,0,.8-.41,1.6-.8,1.6-.19,0-.32-.15-.41-.49-.19-.56-.36-.97-.7-1.63-.87,.19-1.26,.27-2.23,.46q-.53,.1-3.57,.66-.63,.12-1.46,.27c-.12,.44-.29,.68-.46,.68q-.19,0-.68-2.18c.63,.05,.9,.05,1.36,.05,.29,0,.49,0,.83-.02,.95-2.02,1.65-4.15,2.09-6.21,2.06,.46,2.38,.58,2.38,.8s-.29,.34-1.04,.39c-.97,2.16-1.82,3.69-2.82,5,1.92-.1,3.35-.19,5.34-.39-.68-1.14-1-1.65-1.77-2.69l.24-.24Zm-4.78,9.1c0-.97-.02-1.38-.12-2.31,.56,.07,.97,.15,1.24,.17,1,.12,1.26,.22,1.26,.44,0,.19-.27,.34-.9,.49v4.81c0,.19,.02,.29,.1,.34q.12,.1,2.18,.1t2.35-.36c.17-.27,.58-1.65,.97-3.28l.36,.02-.15,2.65v.12c0,.46,.05,.51,.58,.68,.29,.07,.44,.27,.44,.53,0,.41-.24,.68-.73,.83-.49,.12-1.68,.19-3.76,.19-3.79,0-3.83-.02-3.86-1.24l.02-2.43v-1.75Zm1.97-3.81c1.24,.66,2.19,1.21,2.74,1.65,.44,.36,.66,.73,.66,1.12,0,.68-.36,1.46-.68,1.46-.17,0-.29-.12-.44-.49-.46-1.12-1.04-1.92-2.48-3.5l.19-.24ZM100.96,.17c-.05,.17-.05,.27-.05,.34,0,.61,.66,1.99,1.51,3.16,1.14,1.53,2.52,2.55,4.49,3.3v.34c-.87,.27-1.21,.63-1.48,1.65-1.38-1.07-2.09-1.84-2.99-3.28-.75-1.21-1.21-2.19-1.94-4.18-.24-.66-.32-.78-.56-1.07l1.02-.27Zm2.14,14.08c2.31,1.8,3.45,3.18,3.45,4.2,0,.58-.24,1.36-.53,1.67-.1,.1-.24,.17-.39,.17-.27,0-.29-.05-.51-.9-.44-1.72-1.21-3.35-2.33-4.88l.32-.27Z"/><path class="d" d="M91.79,31.73c.34-.46,.46-.61,.85-1.02,.8,.53,1.02,.7,1.77,1.29,.12,.15,.17,.22,.17,.32,0,.19-.22,.27-1,.32-1.72,1.5-2.33,1.97-3.38,2.6,.46,.36,.63,.68,.63,1.07,0,.29-.1,.58-.27,.92-.15,.27-.22,.34-.46,.51h2.01c.41-.44,.53-.56,1-.97,.66,.46,.85,.61,1.48,1.07,.19,.17,.29,.29,.29,.39v.02q-.02,.17-1.17,.39c-1.09,1.58-1.46,1.99-2.48,3.08l-.27-.17c.53-1.12,.53-1.14,1.14-3.25h-1.92v5.95c0,3.5,.02,5.44,.02,5.8,0,1.21-.53,1.67-2.45,2.09-.1-1.38-.39-1.58-2.79-1.87l.05-.39c.44,.02,.78,.05,1,.05,1.38,.1,1.41,.1,2.33,.12,.29-.02,.36-.1,.36-.32v-8.06c-1.48,2.91-2.5,4.18-4.98,6.12l-.24-.27c1.6-1.72,2.53-3.01,3.47-4.81,.75-1.43,1.04-2.23,1.7-4.42h-2.4q-.95,0-2.06,.12l-.22-.85c.95,.15,1.34,.17,2.16,.17h3.76q-.19-.17-.49-.73c-.85-1.67-1.21-2.09-2.99-3.59l.24-.27c1.67,.83,2.38,1.24,3.08,1.75,.85-.87,1.21-1.33,2.01-2.6h-5.1c-.83,0-1.43,.02-2.16,.12l-.19-.85c1.04,.15,1.46,.17,2.36,.17h5.1Zm5.63,11.94c.19-.9,.29-1.63,.29-2.31,0-.05,0-.27-.02-.46,2.16,.19,2.57,.29,2.57,.53,0,.07-.07,.15-.15,.19-.07,.05-.36,.15-.83,.32-.15,.92-.22,1.26-.32,1.72h4.03c.36-.51,.49-.66,.85-1.12,.68,.46,.9,.61,1.53,1.09,.24,.17,.32,.27,.32,.36,0,.19-.29,.39-.92,.63-.27,3.25-.61,4.86-1.26,6-.49,.85-1.29,1.21-2.79,1.31-.22-1.29-.63-1.53-3.54-2.02l.05-.41c.53,.05,.95,.1,1.21,.15,1.58,.17,2.62,.27,3.25,.27,.39,0,.56-.17,.75-.8,.39-1.17,.66-2.94,.73-4.9h-4.32c-.51,1.85-1.24,3.21-2.43,4.52-1.04,1.14-2.35,2.06-3.83,2.72-.68,.29-1.19,.46-2.36,.78l-.22-.39c1.41-.53,2.14-.92,3.23-1.7,2.18-1.58,3.33-3.23,4.03-5.92h-2.52c-.78,0-1.43,.02-2.33,.12l-.15-.85q1.46,.17,2.48,.17h2.67Zm6.8-9.69c-.95,1.7-1.77,2.72-3.4,4.22,1.87,1.04,3.59,1.53,6.21,1.75v.34c-.92,.19-1.24,.53-1.53,1.58-2.55-.9-3.96-1.63-5.56-2.91-2.04,1.63-4.47,2.67-8.3,3.57l-.15-.41c3.35-1.14,5.41-2.26,7.48-4.05-1.21-1.21-1.94-2.23-2.65-3.67-.9,1.12-1.38,1.6-2.5,2.53l-.24-.27c1.77-2.26,2.62-3.96,3.37-6.65,.53,.15,.97,.29,1.24,.36,1.02,.29,1.19,.36,1.19,.58s-.29,.34-1.09,.41c-.61,1.02-.83,1.41-1.26,2.06h6.24c.58-.63,.78-.83,1.31-1.46,.92,.68,1.19,.92,2.09,1.65,.02,.07,.07,.17,.07,.19,0,.1-.1,.17-.22,.17h-2.31Zm-4.56,3.45c1.19-1.17,1.82-2.02,2.6-3.45h-5.61c.68,1.31,1.53,2.28,3.01,3.45Z"/><path class="d" d="M97.54,62.32c0,1.24-1,2.23-2.21,2.23s-2.23-1-2.23-2.23,1-2.21,2.23-2.21,2.21,1,2.21,2.21Z"/><path class="d" d="M84.36,93.19c2.23-1.58,3.4-2.67,4.64-4.3,2.21-2.89,3.67-6.14,4.39-9.86,.36-1.82,.56-3.67,.56-5.2,0-.49-.02-.75-.07-1.41,2.65,.34,2.94,.41,2.94,.66,0,.19-.1,.24-1.04,.63-.02,.34-.02,.53-.02,.75,0,3.54,1.34,7.72,3.42,10.71,1.31,1.87,3.01,3.5,4.93,4.69,.92,.58,1.46,.85,2.77,1.33l-.02,.29h-.17c-.56,0-.95,.15-1.24,.49-.24,.27-.36,.49-.7,1.21-2.45-1.55-4.27-3.42-5.8-5.88-1.12-1.8-2.16-4.37-2.82-6.77-.29-1.07-.41-1.82-.58-3.52-.7,4.52-1.85,7.6-3.88,10.51-1.87,2.65-3.86,4.32-7.09,5.97l-.19-.32Z"/><path class="d" d="M95.92,110.28v1.97h5.29c.36-.41,.49-.53,.87-.95,.66,.41,.85,.56,1.46,1,.15,.12,.22,.19,.22,.29,0,.15-.07,.22-.7,.61l.02,1.87h.46c.58-.63,.75-.83,1.33-1.46,.8,.68,1.04,.9,1.82,1.65,.1,.1,.15,.17,.15,.22,0,.07-.1,.15-.22,.15h-3.54c.02,2.19,.05,3.59,.07,4.18,0,.17-.05,.24-.17,.29-.17,.05-.75,.12-1.17,.12-.27,0-.39-.07-.39-.24v-1.36h-5.49q.02,.29,.02,1.19l.05,1.8c0,.66-.02,.83-.15,1.02-.24,.39-.85,.66-2.5,1.02-.05-1.17-.19-1.24-3.79-1.82v-.36c2.77,.17,3.03,.17,3.74,.17h.68c.29,0,.36-.07,.36-.29v-2.72h-6.07c-.63,0-.92,.02-1.5,.12l-.1-.87c.63,.15,.97,.19,1.65,.19h6.02v-2.43h-8.42c-.68,0-.87,.02-1.38,.1l-.12-.83c.53,.12,.85,.17,1.5,.17h8.42v-2.26h-6.34c-.66,0-.85,.02-1.24,.1l-.1-.83c.46,.15,.73,.17,1.33,.17h6.34v-1.97h-5.07v.58c0,.17-.05,.24-.17,.29-.1,.02-.75,.1-1.09,.1-.19,0-.27-.05-.27-.22,.05-1.48,.07-2.21,.07-3.59,0-.8,0-1-.02-1.65,.7,.36,.92,.49,1.58,.87h4.98v-1.89h-8.06c-.8,0-1.02,.02-1.5,.1l-.1-.83c.58,.15,.87,.17,1.63,.17h8.04c-.02-1.58-.02-1.77-.12-2.84,2.45,.32,2.62,.36,2.62,.63,0,.19-.22,.32-.95,.53v1.67h6.97c.61-.7,.78-.9,1.38-1.55,.95,.73,1.21,.97,2.06,1.77,.05,.07,.1,.15,.1,.22,0,.05-.1,.12-.19,.12h-10.32v1.89h5.03c.36-.36,.49-.49,.9-.87,.61,.41,.78,.53,1.33,.97,.17,.12,.22,.19,.22,.27,0,.17-.1,.24-.7,.56,0,1.77,0,1.82,.05,2.91,0,.29-.15,.36-.8,.39-.19,0-.34,.02-.44,.02h-.07c-.19,0-.27-.05-.27-.24v-.39h-5.24Zm-1.55-3.06h-5.07v2.5h5.07v-2.5Zm6.8,0h-5.24v2.5h5.24v-2.5Zm.27,5.58h-5.51v2.26h5.51v-2.26Zm-5.51,2.82v1.58l.02,.85h5.49v-2.43h-5.51Z"/><path class="d" d="M97.54,133.71c0,1.24-1,2.23-2.21,2.23s-2.23-1-2.23-2.23,1-2.21,2.23-2.21,2.21,1,2.21,2.21Z"/><path class="d" d="M89.8,150.32h.8c.51-.63,.66-.83,1.19-1.43,.8,.63,1.02,.85,1.75,1.53,.12,.15,.17,.22,.17,.29,0,.1-.12,.17-.27,.17h-3.64v1.72c1.14,.61,1.36,.73,1.82,1.09,.58,.46,.78,.75,.78,1.29,0,.78-.27,1.31-.63,1.31-.22,0-.32-.12-.53-.73-.41-1.12-.78-1.75-1.43-2.5v4.03q.02,6.41,.05,8.06c0,.24-.05,.34-.24,.39-.15,.05-.68,.1-1.02,.1-.27,0-.36-.07-.36-.29q.05-2.18,.05-2.79c0-.1,.02-.97,.02-2.65,.02-2.01,.02-2.62,.05-2.82l.15-3.86c-.8,2.04-1.24,2.96-2.09,4.34-.7,1.17-1.14,1.77-2.14,2.91l-.29-.22c1.09-1.6,1.63-2.67,2.65-5.17,.7-1.75,.9-2.38,1.38-4.22h-2.18c-.46,0-.8,.05-1.24,.15l-.17-.87c.51,.12,.92,.17,1.63,.17h2.26v-3.71c-1.33,.34-1.89,.46-3.4,.75l-.17-.34c1.8-.58,2.67-.95,4.03-1.68,1.24-.68,1.65-.92,2.33-1.53,2.06,1.12,2.21,1.21,2.21,1.38,0,.15-.17,.24-.34,.24-.1,0-.56-.07-.92-.12-1.04,.44-1.43,.58-2.23,.85v4.15Zm7.84,7.28c1.29-1.8,2.36-3.69,3.35-5.95,1.19-2.62,1.92-4.76,2.31-6.7,2.43,.7,2.74,.83,2.74,1.07,0,.22-.29,.34-1.12,.46-2.5,6.29-4.39,9.69-7.28,12.89v3.35c0,.63,0,.7,1.48,.7h.53c.44,0,1.17,0,1.58,.02,.53,0,.87-.17,1.02-.56,.22-.61,.58-2.09,1.12-4.64l.39,.05-.17,3.93v.39c0,.22,.05,.29,.29,.41,.61,.34,.68,.39,.68,.75,0,.34-.22,.56-.73,.75-.46,.17-1.55,.24-3.79,.24h-1.53c-2.01,0-2.4-.27-2.43-1.6,.02-.75,.02-1.31,.02-1.7v-.56c-1.87,1.7-3.06,2.5-5.46,3.62l-.17-.22c2.89-2.09,4.15-3.18,5.61-4.81v-7.45c0-1.41-.02-1.67-.12-2.6,2.18,.24,2.67,.34,2.67,.61,0,.19-.27,.34-1,.51v7.02Zm-3.54-4.35c.02,.56,.02,.63,.02,1.04,0,1.8-.17,3.35-.49,4.27-.29,.92-.8,1.6-1.24,1.6-.36,0-.78-.78-.78-1.48,0-.32,.1-.51,.41-.8,.53-.51,.83-1,1.17-1.97,.27-.73,.36-1.29,.51-2.67h.39Zm1.63-8.88c1.58,.56,2.57,1,3.71,1.6,.78,.44,1.09,.87,1.09,1.48,0,.75-.29,1.41-.61,1.41-.24,0-.32-.05-.85-.8-.36-.49-1.12-1.34-1.8-2.02-.46-.46-.83-.75-1.72-1.33l.17-.34Zm7.58,8.59c1.29,1.14,2.5,2.6,3.11,3.67,.22,.36,.39,.95,.39,1.26,0,.66-.7,1.84-1.09,1.84-.17,0-.29-.12-.39-.39q-.05-.15-.39-1.48c-.36-1.55-1-2.96-2.01-4.61l.39-.29Z"/><path class="d" d="M103.88,178.19c.53-.63,.7-.83,1.26-1.41,.85,.68,1.09,.9,1.89,1.65,.05,.07,.07,.15,.07,.19,0,.07-.1,.12-.29,.12h-3.93c0,1,.02,1.43,.05,2.72-.02,.17-.05,.24-.19,.29-.22,.1-.87,.19-1.21,.19-.19,0-.27-.05-.29-.22v-.29h-5.29v1.92h5.15c.51-.58,.66-.78,1.14-1.33,.85,.68,1.12,.87,1.89,1.6,.07,.1,.1,.15,.1,.17,0,.1-.05,.12-.29,.12h-7.99v2.06h6.97c.53-.68,.7-.9,1.26-1.58,.92,.75,1.21,1,2.09,1.8,.05,.07,.07,.15,.07,.19,0,.1-.1,.15-.29,.15h-17.72c-1.75,0-2.48,.05-3.54,.19l-.19-1.02c1.14,.22,1.84,.27,3.74,.27h6.04v-2.06h-5.44c-.92,0-1.63,.05-2.26,.15l-.17-.92c.92,.17,1.38,.22,2.43,.22h5.44v-1.92h-5.12c-.97,0-1.41,.02-2.21,.15l-.19-.9c.8,.15,1.41,.19,2.5,.19h5.03v-2.14h-7.26c-1.36,0-1.97,.02-2.89,.15l-.17-.95c1.04,.19,1.67,.24,3.16,.24h7.16v-1.99h-4.73c-.85,0-1.51,.05-2.11,.12l-.19-.92c.9,.19,1.38,.24,2.31,.24h4.73c-.02-.97-.02-1.21-.1-2.14,2.43,.22,2.55,.24,2.55,.51,0,.17-.19,.27-.87,.49v1.14h5.15c.39-.44,.51-.58,.92-1,.61,.44,.78,.56,1.36,1,.15,.12,.22,.22,.22,.29,0,.17-.15,.29-.7,.61v1.65h1Zm-14.08,17.24c-.02,.19-.07,.27-.22,.29-.15,.05-.75,.1-1.14,.1-.32,0-.41-.07-.41-.32v-.07c.1-1.92,.12-2.65,.12-4.59s-.02-2.4-.1-3.47c.95,.39,1.21,.53,2.14,1.02h10.58c.41-.51,.53-.66,.97-1.12,.66,.46,.85,.61,1.48,1.12,.15,.15,.19,.24,.19,.32,0,.15-.15,.24-.73,.58v2.21c0,1.33,.02,2.21,.07,3.91,0,.19-.07,.29-.24,.34-.15,.05-.8,.12-1.19,.12-.22,0-.29-.07-.32-.27v-.97h-11.22v.8Zm11.22-6.48h-11.22v2.16h11.22v-2.16Zm-11.22,2.72v2.4h11.22v-2.4h-11.22Zm11.43-15.46h-5.29v1.99h5.29v-1.99Zm-5.29,2.55v2.14h5.29v-2.14h-5.29Z"/><path class="d" d="M95.14,220.12c2.62-.78,4.3-1.77,5.68-3.38,1.43-1.63,2.16-3.62,2.16-5.85,0-2.35-.95-4.22-2.74-5.37-1.07-.7-2.67-1.12-4.2-1.12-.29,0-.46,0-.85,.05,.58,.85,.75,1.31,.75,2.01,0,1.89-1.36,5.44-3.2,8.4-1.53,2.43-2.72,3.62-3.62,3.62-.41,0-.8-.19-1.07-.51-.22-.29-.27-.39-.68-1.55-.22-.63-.36-.92-1.07-2.28-.39-.78-.56-1.43-.56-2.21,0-1.53,.83-3.33,2.19-4.81,1.97-2.09,5.17-3.4,8.35-3.4,2.45,0,4.71,.8,6.26,2.23s2.33,3.35,2.33,5.71c0,3.03-1.77,5.73-4.83,7.36-1.41,.75-2.67,1.14-4.73,1.5l-.17-.41Zm-7.99-7.55c0,1.17,.36,2.35,.97,3.2,.34,.44,.66,.7,.92,.7,.53,0,1.7-1.31,2.89-3.21,1.8-2.86,3.08-6,3.08-7.5,0-.36-.07-.61-.34-1.21-4.22,.75-7.53,4.27-7.53,8.01Z"/><path class="d" d="M89.48,236.42c-.41,0-.61,0-2.16,.12l-.24-.85q.53,.07,2.38,.17h4.81v-1.19c0-.68-.02-1.02-.1-1.72q2.62,.29,2.62,.51c0,.1-.05,.19-.24,.32,0,0-.1,.05-.29,.17l-.22,.15q0,1.04-.02,1.77h4.27l1.26-1.5c.92,.73,1.21,.97,2.14,1.72,.07,.07,.1,.12,.1,.17,0,.1-.1,.17-.22,.17h-7.57c-.02,1-.05,1.5-.12,2.6h4.3l1.31-1.58c.95,.78,1.24,1.02,2.21,1.87,.02,.02,.05,.07,.05,.1,0,.07-.1,.17-.22,.17h-7.7c-.1,1.12-.19,1.72-.39,2.7h6.29c.66-.78,.85-1.02,1.55-1.7,1.02,.78,1.33,1.04,2.35,1.92,.1,.1,.15,.17,.15,.22,0,.07-.07,.12-.15,.12h-9.98c.97,1.38,1.99,2.31,3.74,3.3,1.92,1.12,4.22,1.7,7.33,1.92v.27c-.87,.32-1.29,.83-1.55,1.89-2.87-.66-5.03-1.75-6.99-3.54-1.38-1.24-2.16-2.16-2.99-3.57-.51,1.5-1.31,2.65-2.6,3.74-2.19,1.87-4.61,2.91-8.42,3.64l-.1-.32c2.79-.87,4.69-1.87,6.51-3.35,1.55-1.31,2.43-2.48,2.91-3.98h-5.95c-1.09,0-1.46,.02-2.31,.17l-.24-.92c.75,.1,1.87,.19,2.55,.19h6.12c.24-.97,.32-1.51,.41-2.7h-4.47c-.53,0-1,.02-2.11,.12l-.29-.87c.51,.07,2.06,.19,2.38,.19h4.54c.07-1.09,.1-1.46,.12-2.6h-4.76Zm13.52-4.83l1.12-1.26c.92,.61,1.19,.8,2.11,1.38,.22,.19,.36,.34,.36,.46,0,.07-.05,.15-.12,.19-.1,.05-.34,.12-.63,.19-.56,.15-.85,.22-.9,.24-.95,.83-1.41,1.21-2.43,2.01l-.29-.17c.53-1,.73-1.46,1.09-2.5h-15.9c-.17,1.8-1.19,3.69-1.97,3.69-.36,0-.78-.75-.78-1.38,0-.29,.12-.49,.56-.8,1.09-.8,1.41-1.36,1.84-3.33h.41q0,.9-.02,1.26h6.8v-1.53c0-.56-.02-.9-.07-1.65,1.02,.1,2.14,.24,2.5,.34,.24,.05,.34,.12,.34,.22,0,.17-.02,.19-1.02,.7v1.92h6.99Z"/><path class="d" d="M91.79,260.07c.34-.46,.46-.61,.85-1.02,.8,.53,1.02,.7,1.77,1.29,.12,.15,.17,.22,.17,.32,0,.19-.22,.27-1,.32-1.72,1.5-2.33,1.97-3.38,2.6,.46,.36,.63,.68,.63,1.07,0,.29-.1,.58-.27,.92-.15,.27-.22,.34-.46,.51h2.01c.41-.44,.53-.56,1-.97,.66,.46,.85,.61,1.48,1.07,.19,.17,.29,.29,.29,.39v.02q-.02,.17-1.17,.39c-1.09,1.58-1.46,1.99-2.48,3.08l-.27-.17c.53-1.12,.53-1.14,1.14-3.25h-1.92v5.95c0,3.5,.02,5.44,.02,5.8,0,1.21-.53,1.67-2.45,2.09-.1-1.38-.39-1.58-2.79-1.87l.05-.39c.44,.02,.78,.05,1,.05,1.38,.1,1.41,.1,2.33,.12,.29-.02,.36-.1,.36-.32v-8.06c-1.48,2.91-2.5,4.18-4.98,6.12l-.24-.27c1.6-1.72,2.53-3.01,3.47-4.81,.75-1.43,1.04-2.23,1.7-4.42h-2.4q-.95,0-2.06,.12l-.22-.85c.95,.15,1.34,.17,2.16,.17h3.76q-.19-.17-.49-.73c-.85-1.67-1.21-2.09-2.99-3.59l.24-.27c1.67,.83,2.38,1.24,3.08,1.75,.85-.87,1.21-1.33,2.01-2.6h-5.1c-.83,0-1.43,.02-2.16,.12l-.19-.85c1.04,.15,1.46,.17,2.36,.17h5.1Zm5.63,11.94c.19-.9,.29-1.63,.29-2.31,0-.05,0-.27-.02-.46,2.16,.19,2.57,.29,2.57,.53,0,.07-.07,.15-.15,.19-.07,.05-.36,.15-.83,.32-.15,.92-.22,1.26-.32,1.72h4.03c.36-.51,.49-.66,.85-1.12,.68,.46,.9,.61,1.53,1.09,.24,.17,.32,.27,.32,.36,0,.19-.29,.39-.92,.63-.27,3.25-.61,4.86-1.26,6-.49,.85-1.29,1.21-2.79,1.31-.22-1.29-.63-1.53-3.54-2.02l.05-.41c.53,.05,.95,.1,1.21,.15,1.58,.17,2.62,.27,3.25,.27,.39,0,.56-.17,.75-.8,.39-1.17,.66-2.94,.73-4.9h-4.32c-.51,1.85-1.24,3.21-2.43,4.52-1.04,1.14-2.35,2.06-3.83,2.72-.68,.29-1.19,.46-2.36,.78l-.22-.39c1.41-.53,2.14-.92,3.23-1.7,2.18-1.58,3.33-3.23,4.03-5.92h-2.52c-.78,0-1.43,.02-2.33,.12l-.15-.85q1.46,.17,2.48,.17h2.67Zm6.8-9.69c-.95,1.7-1.77,2.72-3.4,4.22,1.87,1.04,3.59,1.53,6.21,1.75v.34c-.92,.19-1.24,.53-1.53,1.58-2.55-.9-3.96-1.63-5.56-2.91-2.04,1.63-4.47,2.67-8.3,3.57l-.15-.41c3.35-1.14,5.41-2.26,7.48-4.05-1.21-1.21-1.94-2.23-2.65-3.67-.9,1.12-1.38,1.6-2.5,2.53l-.24-.27c1.77-2.26,2.62-3.96,3.37-6.65,.53,.15,.97,.29,1.24,.36,1.02,.29,1.19,.36,1.19,.58s-.29,.34-1.09,.41c-.61,1.02-.83,1.41-1.26,2.06h6.24c.58-.63,.78-.83,1.31-1.46,.92,.68,1.19,.92,2.09,1.65,.02,.07,.07,.17,.07,.19,0,.1-.1,.17-.22,.17h-2.31Zm-4.56,3.45c1.19-1.17,1.82-2.02,2.6-3.45h-5.61c.68,1.31,1.53,2.28,3.01,3.45Z"/><path class="d" d="M90.38,293.96c.41-.58,.56-.75,1.04-1.34q.68,.78,1.34,1.53c.05,.1,.1,.17,.1,.24s-.07,.12-.17,.12h-3.11v4.86c1.55-.61,1.87-.75,3.11-1.29l.1,.29c-1.14,.78-1.67,1.12-3.2,1.99v4.37q0,2.82,.02,4.03c0,.61-.1,.83-.49,1.07-.51,.34-1.09,.51-2.06,.66-.15-.7-.27-.9-.56-1.12-.19-.1-.49-.19-1-.29l-.44-.07c-.15-.02-.27-.05-.41-.07l.02-.39c1.12,.05,1.31,.05,3.01,.05,.22-.02,.24-.07,.24-.39v-7.14q-.41,.22-1.24,.68-.58,.32-1,.56c-.1,.73-.17,.92-.34,.92-.19,0-.46-.53-1.12-2.16,.68-.12,1.07-.24,3.71-1.14v-5.41h-1.6c-.66,0-.95,.02-1.58,.15l-.15-.87c.63,.12,1.02,.17,1.72,.17h1.6v-2.7c0-.92-.05-2.23-.07-2.82,2.38,.34,2.69,.41,2.69,.66,0,.19-.1,.24-1,.61v4.25h.8Zm.02,14.42c.75,.15,1.31,.19,2.31,.19h10.34q.78-.92,1.53-1.8c.97,.83,1.26,1.09,2.18,1.97,.05,.07,.1,.17,.1,.22,0,.1-.12,.17-.27,.17h-14.01c-.8,0-1.31,.05-1.99,.17l-.19-.92Zm4.61-2.48c-.02,.34-.29,.41-1.36,.41-.24,0-.34-.07-.34-.27,.05-2.19,.07-5.03,.07-9.93,0-3.01,0-3.93-.07-6.6,.85,.44,1.12,.61,1.89,1.17h6.92c.41-.51,.56-.68,1.04-1.17,.61,.46,.8,.58,1.38,1.02,.24,.19,.34,.29,.34,.41,0,.17-.12,.27-.83,.73v3.13c0,4.37,.05,9.15,.12,10.92-.05,.29-.22,.36-.92,.41-.27,.02-.46,.05-.53,.05h-.05c-.17,0-.24-.07-.27-.24v-1.36h-7.4v1.31Zm7.4-14.66h-7.4v5.95h7.4v-5.95Zm-7.4,6.51v6.29h7.4v-6.29h-7.4Z"/><path class="d" d="M102.23,328c.41-.53,.53-.7,1-1.26,.75,.49,.97,.66,1.63,1.14,.22,.19,.32,.32,.32,.44,0,.22-.22,.39-.92,.73v5.97c0,1,0,1.5,.05,4.44,0,.24-.05,.34-.19,.41-.19,.1-.7,.17-1.21,.17-.32,0-.41-.07-.44-.29v-1h-14.42c-.95,0-1.26,.02-2.14,.15l-.15-.87c.78,.12,1.29,.17,2.23,.17h14.47v-4.81h-13.33c-1.07,0-1.41,.02-2.19,.12l-.17-.87c.78,.12,1.31,.17,2.36,.17h13.33v-4.22h-14.44c-.58,0-1.07,.02-1.92,.12l-.19-.9c.63,.1,1.55,.19,2.16,.19h6.24v-6.89c0-1-.02-1.55-.15-2.74,.61,.07,1.04,.12,1.33,.15,1.31,.15,1.67,.24,1.67,.51,0,.24-.34,.41-1.12,.53v8.45h6.19Zm-15.51-8.38c1.29,.95,2.65,2.26,3.79,3.62,.44,.53,.73,1.19,.73,1.63,0,.85-.63,2.04-1.09,2.04-.22,0-.24-.07-.56-1-.92-2.65-1.38-3.54-3.16-6.07l.29-.22Zm15.27-.22c2.74,.85,2.89,.9,2.89,1.14,0,.27-.32,.39-1.38,.56-2.35,3.35-3.03,4.2-5,6.36l-.39-.19c.78-1.17,1.14-1.84,2.57-4.69,.46-.95,.46-.97,.95-2.21l.36-.97Z"/><path class="d" d="M97.1,351.6c.51-.63,.68-.83,1.21-1.43,.49,.39,1.14,.95,1.99,1.67,.8-.97,1.07-1.41,1.7-2.52,2.5,1.07,2.65,1.14,2.65,1.33,0,.15-.29,.27-.68,.27-.12,0-.44-.02-.68-.02-2.16,2.57-3.21,3.64-5.12,5.34h4.54c.49-.53,1-1.07,1.5-1.63,1.02,.78,1.33,1.02,2.28,1.8,.12,.1,.17,.17,.17,.22,0,.1-.15,.17-.29,.17h-8.84c-1.43,1.21-2.55,2.04-4.22,3.13h7.09c.44-.49,.56-.63,1-1.07,.63,.46,.83,.61,1.46,1.09,.17,.15,.24,.24,.24,.32,0,.15-.19,.29-.87,.63q.02,5.8,.15,8.67c-.02,.29-.19,.39-.83,.41-.24,0-.39,.02-.46,.02h-.05c-.22,0-.32-.1-.34-.27v-1.12h-8.76v1.14c-.07,.19-.15,.27-.27,.29l-1.02,.1c-.27-.02-.39-.1-.41-.27,.07-2.21,.1-2.6,.1-6.58v-1.6c-2.31,1.24-4.05,1.97-6.38,2.67l-.15-.36c2.89-1.29,4.42-2.09,6.51-3.38-.02-.51-.02-.75-.07-1.58,.75,.29,1,.39,1.53,.66,1.38-.95,2.43-1.75,3.79-2.91h-8.86c-.92,0-1.34,.02-1.99,.17l-.17-.92c.75,.15,1.36,.19,2.16,.19h6.58v-4.08h-4.54c-.63,0-1,.02-1.48,.15l-.15-.9c.53,.15,1.04,.19,1.63,.19h4.54v-1.26c0-.73-.02-1.29-.1-2.43,.56,.1,1,.15,1.26,.17,1.21,.15,1.48,.22,1.48,.44,0,.19-.22,.32-1.02,.58v2.5h2.21Zm-5.17,12.16h8.74v-3.28h-8.23l-.51,.32v2.96Zm0,.56v3.74h8.74v-3.74h-8.74Zm2.96-12.16v4.08h1.26c1.55-1.43,2.55-2.45,3.91-4.08h-5.17Z"/><path class="d" d="M90.94,387.63c-.44,1.53-1.12,4.18-1.41,5.37-.24,1.07-.32,1.46-.32,2.06-.02,.78-.05,.87-.17,1.07-.12,.17-.27,.27-.46,.27-.41,0-.75-.34-1.04-1.09-.49-1.24-.78-3.08-.78-4.88,0-2.23,.27-4.27,1.09-8.08,.32-1.5,.36-1.77,.36-2.18,0-.73-.19-1.31-.7-2.14,.56,.02,1.02,.34,1.7,1.21,.56,.7,.87,1.38,.87,1.85q0,.27-.39,1.07c-1.17,2.43-1.84,5.32-1.84,7.91,0,1.24,.1,2.01,.39,3.01l1.02-2.43,1.31-3.13,.36,.12Zm2.43-4.39c1.17,.75,1.92,1,3.13,1,.85,0,1.77-.12,2.77-.34v-1.07c0-2.72-.02-3.04-.34-3.38-.29-.32-.83-.49-1.6-.56,.34-.32,.53-.39,1.17-.39,.53,0,1.19,.1,1.65,.22,.7,.22,1.07,.51,1.07,.87,0,.17,0,.19-.22,.75-.27,.7-.41,1.58-.51,3.25,1.12-.32,1.82-.63,2.23-1,.24-.24,.32-.27,.53-.27,.29,0,.85,.15,1.14,.32,.19,.1,.32,.27,.32,.44,0,.53-1.77,1.26-4.3,1.75,0,3.23,.07,4.56,.32,6.6,2.82,.75,4.01,1.7,4.01,3.11,0,.51-.22,.9-.49,.9-.19,0-.36-.12-.85-.61-1.07-1.09-1.67-1.53-2.62-1.94,.02,.22,.02,.41,.02,.58,0,1.75-1.46,2.79-3.88,2.79-2.11,0-3.59-1.02-3.59-2.48,0-1.67,1.8-2.74,4.56-2.74,.46,0,.8,.02,1.48,.07v-.41l-.05-2.6-.02-3.11c-.73,.15-1.43,.19-2.14,.19-1.77,0-2.79-.44-4.01-1.7l.22-.27Zm3.71,8.86c-1.92,0-3.11,.63-3.11,1.7,0,.85,.95,1.43,2.38,1.43,1.33,0,2.28-.39,2.67-1.14,.24-.44,.32-.8,.32-1.7-.68-.19-1.36-.29-2.26-.29Z"/></g><g><path class="d" d="M51.98,2.48c-.05,2.6-.07,3.08-.36,5.24h6.94c.41-.49,.56-.66,1.02-1.12,.78,.53,1,.7,1.7,1.21,.15,.12,.19,.19,.19,.24,0,.17-.12,.24-.92,.68-.29,4.22-.34,4.9-.61,6.55-.44,2.91-.92,4.42-1.67,5.07-.53,.46-.97,.61-2.79,.87-.15-.8-.39-1.09-1.02-1.36-.49-.19-1.02-.32-3.47-.7v-.39c2.5,.17,4.22,.27,5.27,.27,.58,0,.75-.05,.92-.24,.39-.44,.66-1.31,1.02-3.42,.39-2.16,.53-3.88,.66-7.11h-7.33c-.44,2.74-1.04,4.69-1.99,6.48-1.07,1.99-2.72,3.88-4.61,5.34-.73,.56-1.26,.87-2.45,1.53l-.19-.36c1.94-1.38,3.18-2.67,4.54-4.69,2.04-3.01,3.11-6.72,3.33-11.75,.05-.73,.05-1.09,.05-2.35h-4.76c-1.04,0-2.14,.07-2.84,.17l-.15-.95c.95,.17,1.58,.22,2.99,.22h14.83c.68-.85,.87-1.09,1.55-1.92,1.07,.87,1.38,1.14,2.4,2.06,.1,.1,.15,.17,.15,.24,0,.1-.1,.17-.29,.17h-12.09Z"/><path class="d" d="M47.44,45.87c1.85,1.04,3.25,1.65,3.76,1.65s.95-.51,1.58-2.04c.85-1.99,1.43-4.66,1.43-6.51,0-1.02-.22-1.68-.66-1.97-.24-.17-.56-.24-1.09-.24-.68,0-1.14,.1-2.52,.49q-.34,.85-1.41,3.3c-.12,.29-.61,1.43-1.43,3.4-.97,2.28-1.77,4.03-2.16,4.71-.17,.32-.36,.46-.58,.46-.44,0-.7-.63-.7-1.67,0-.61,.07-.8,.56-1.36,1.09-1.33,2.14-3.33,4.47-8.45-1.63,.53-2.65,.95-3.16,1.26-.36,.22-.51,.27-.7,.27-.27,0-.75-.32-1.07-.73-.44-.56-.8-1.41-.8-1.85,0-.12,.05-.29,.15-.53,.51,1,.95,1.34,1.85,1.34,.53,0,2.33-.36,4.13-.85,.56-1.38,1-3.16,1-3.98,0-.75-.49-1.19-1.87-1.63,.29-.22,.44-.27,.7-.27,.36,0,1,.12,1.65,.32,1.09,.32,1.7,.78,1.7,1.29,0,.17-.05,.27-.34,.7-.46,.8-.85,1.58-1.55,3.28,1.07-.22,1.51-.27,2.11-.27,2.09,0,3.08,1.24,3.08,3.79,0,3.11-1.24,7.14-2.65,8.69-.61,.63-1.55,1.09-2.33,1.09-.41,0-.61-.17-.66-.56-.05-.63-.15-.75-2.69-2.84l.22-.29Zm10.71-9.78c1.89,.56,3.38,1.53,4.44,2.91,.92,1.19,1.38,2.36,1.38,3.42,0,.85-.36,1.33-.97,1.33-.19,0-.29-.02-.56-.17-.41-.24-.53-.27-1-.27-.85,0-.97,0-3.03,.22l-.1-.32c2.4-.73,3.01-.95,3.71-1.24-.29-2.35-1.94-4.59-4.08-5.56l.19-.34Zm.83-4.86c.9,.49,1.55,.95,2.16,1.51,.87,.78,1.21,1.33,1.21,1.92s-.34,1.02-.75,1.02q-.32,0-1.07-1.58c-.44-.85-1.21-1.89-1.87-2.55l.32-.32Zm2.5-1.41c.87,.39,1.58,.8,2.33,1.38,.92,.7,1.24,1.19,1.24,1.87,0,.58-.24,1-.61,1-.22,0-.36-.12-.56-.46-.85-1.53-1.33-2.16-2.67-3.47l.27-.32Z"/><path class="d" d="M42.29,59.61c1.04,.17,1.58,.19,3.18,.19h14.35c.68-.92,.92-1.19,1.67-2.06,1.24,.97,1.63,1.29,2.82,2.33,.05,.05,.07,.12,.07,.15,0,.07-.1,.15-.27,.15h-18.64c-1.46,0-1.89,.02-3.01,.17l-.17-.92Z"/><path class="d" d="M48.77,78.02c-.05,.22-.41,1.75-1.09,4.56-.34,1.43-.41,1.82-.41,2.57,0,.7-.02,.9-.07,1.04-.1,.27-.32,.41-.58,.41-.41,0-.78-.34-1.04-1-.53-1.26-.85-3.23-.85-5.17,0-.73,.07-1.63,.19-2.6q.17-1.41,.85-4.59c.24-1.14,.34-1.75,.34-2.26,0-.8-.19-1.41-.68-2.28,.53,.02,.97,.34,1.63,1.19,.61,.75,.9,1.38,.9,1.92,0,.39-.02,.49-.51,1.46-.49,1.02-1.07,2.72-1.31,3.86-.22,.92-.32,1.97-.32,3.01,0,1.34,.12,2.19,.46,3.21,.41-.85,.61-1.33,.87-2.06l1.29-3.4,.34,.12Zm3.06,1.21c-.05,.49-.07,.7-.07,1.02,0,2.67,1.53,3.76,5.29,3.76,.7,0,1.41-.05,2.06-.17q.51-.07,1.29-.39c.15-.05,.27-.07,.36-.07,.63,0,1.53,.85,1.53,1.43,0,.29-.19,.49-.53,.61-.51,.17-1.67,.27-3.03,.27-3.04,0-5.2-.51-6.29-1.48-.87-.8-1.31-1.82-1.31-3.16,0-.61,.07-1.14,.29-1.92l.41,.1Zm-.05-7.72c.85,.51,1.38,.66,2.26,.66,1.5,0,3.86-.53,4.88-1.09,.32-.17,.36-.19,.53-.19,.19,0,.51,.12,.85,.34,.51,.29,.75,.58,.75,.9s-.17,.46-.68,.56c-1.6,.24-2.5,.46-3.45,.85-.75,.32-2.16,1.09-3.13,1.72l-.24-.24c1.09-.92,1.92-1.6,2.31-1.89-.51,.02-.78,.05-1,.05-1.36,0-2.26-.36-3.3-1.36l.22-.29Z"/><path class="d" d="M41.68,106.77c1.41-2.14,2.38-3.96,3.33-6.29,.92-2.31,1.43-4.2,1.53-5.68,2.38,.63,2.6,.7,2.6,.95,0,.22-.24,.32-.92,.39-1.14,3.06-1.77,4.47-2.91,6.41,1.17,.15,1.55,.27,1.55,.49,0,.15-.15,.29-.63,.51v4.81l.02,7.99v.07c0,.36-.29,.49-1.17,.49-.41,0-.51-.05-.51-.32,.07-1.87,.07-2.5,.07-4.44v-8.5c-.92,1.46-1.38,2.04-2.62,3.42l-.34-.29Zm4.85,9.23c1.6-3.57,2.04-6.09,2.04-12.14,0-2.35,0-2.4-.15-3.54,.92,.39,1.17,.53,1.97,1.07h10.73c.58-.68,.78-.87,1.36-1.53,.87,.75,1.12,1,1.87,1.77,.1,.1,.12,.15,.12,.19,0,.1-.07,.12-.27,.12h-14.01c-.02,4.13-.15,5.95-.58,8.16-.44,2.33-1.24,4.08-2.77,6.09l-.32-.19Zm10.78-18.16v-1.36c0-.41,0-.78-.05-1.43,2.04,.27,2.48,.36,2.48,.63,0,.19-.32,.36-.87,.46v1.7h1.94l1.19-1.55c.9,.73,1.17,.97,1.94,1.72,.1,.1,.15,.17,.15,.24,0,.1-.1,.15-.34,.15h-4.86q0,1,.02,1.92v.12c0,.24-.39,.36-1.21,.36-.34,0-.44-.07-.44-.32,.02-1.17,.02-1.38,.02-2.09h-3.23c.02,1.02,.02,1.67,.05,1.97v.07c0,.27-.39,.39-1.19,.39-.34,0-.49-.07-.49-.27v-.05c.02-1.12,.02-1.41,.05-2.11h-2.06c-.95,0-1.24,.02-1.89,.15l-.19-.95c.73,.15,1.48,.24,2.11,.24h2.04c0-1.53-.02-1.92-.07-2.79,1.77,.29,2.04,.34,2.23,.41,.19,.07,.29,.17,.29,.27,0,.19-.22,.32-.87,.49v1.63h3.25Zm.24,13.38q.07,4.27,.07,4.59c0,.15-.02,.19-.1,.27-.12,.07-.61,.17-1.07,.17-.32,0-.44-.07-.44-.29,0-.66,.02-2.21,.05-4.73h-3.2v4.88c0,.39-.22,.49-1.14,.49-.39,0-.49-.07-.49-.32q0-.85,.1-3.84v-.97c0-5.97-.02-7.21-.1-8.42,.8,.36,1.04,.49,1.8,.9h7.7c.32-.39,.44-.51,.78-.9,.68,.46,.87,.61,1.48,1.04,.15,.12,.22,.22,.22,.29,0,.15-.15,.27-.73,.63v5.66q.05,3.42,.07,4.37c0,.49-.05,.66-.27,.9-.32,.32-.66,.44-1.97,.68-.15-.66-.24-.8-.58-1-.34-.17-.75-.29-1.5-.41l.05-.39q1.75,.15,2.4,.15c.19-.02,.22-.05,.22-.29v-3.45h-3.35Zm-1.48-6.72h-3.18v2.77h3.18v-2.77Zm0,3.33h-3.18v2.84h3.18v-2.84Zm4.83-.56v-2.77h-3.35v2.77h3.35Zm-3.35,3.4h3.35v-2.84h-3.35v2.84Z"/><path class="d" d="M47.48,133.17c.19,.19,.49,.29,.78,.29,.58,0,1.02-.12,4.17-1.14,1.82-.58,1.97-.63,2.28-.85,.22-.15,.29-.17,.41-.17,.66,0,1.99,1.36,1.99,2.04,0,.29-.1,.36-.7,.61-.39,.17-.63,.34-1.36,.97-.83,.68-3.37,3.18-4.86,4.78,1.17-.61,1.94-.85,2.72-.85,.61,0,1.17,.22,1.6,.61,.53,.49,.7,.92,1.09,2.52,.32,1.41,.75,1.7,2.45,1.7,.51,0,1.07-.05,1.5-.1q.34-.05,.85-.27c.12-.05,.22-.07,.32-.07,.27,0,.73,.22,1.17,.56,.44,.34,.61,.56,.61,.85,0,.56-.73,.75-2.84,.75-1.84,0-3.01-.22-3.91-.78-.7-.41-1.12-1-1.36-1.89q-.1-.39-.32-1.87c-.12-.9-.63-1.38-1.46-1.38-1.09,0-2.57,.87-4.08,2.4-.75,.75-1.31,1.41-2.5,2.99-.24,.32-.41,.46-.58,.46-.41,0-.87-.9-.87-1.65,0-.29,.1-.46,.39-.68,1.36-1,1.89-1.46,3.52-3.04,1.8-1.75,4.69-4.93,5.95-6.55,.41-.56,.51-.7,.51-.85,0-.1-.1-.15-.27-.15-.83,0-3.4,1.09-5.71,2.43-.46,.27-.73,.36-.95,.36-.39,0-.78-.34-1.12-1-.24-.51-.44-1.17-.44-1.55,0-.34,.1-.56,.39-.87,.22,.85,.34,1.12,.61,1.38Zm3.03-8.08c1.19,.95,1.87,1.26,3.16,1.55,.68,.17,.92,.19,1.77,.27,.44,.02,.68,.15,1.04,.51s.58,.78,.58,1.09c0,.24-.22,.46-.49,.46-.05,0-.19,0-.34-.02-.12-.02-.27-.02-.44-.02q-.44,0-2.02,.17c-.19,.02-1.46,.24-3.81,.63l-.1-.32c1.87-.61,3.76-1.19,4.37-1.36-2.11-.7-2.96-1.29-3.98-2.74l.24-.22Z"/><path class="d" d="M58.7,153.59c1.84,.68,3.74,1.6,4.73,2.33,.95,.7,1.29,1.26,1.29,2.11s-.44,1.63-.9,1.63c-.05,0-.22-.07-.32-.15q-.17-.15-1.24-1.75c-.83-1.21-2.14-2.57-3.74-3.86l.17-.32Z"/><path class="d" d="M53.82,176.76v1.97h5.29c.36-.41,.49-.53,.87-.95,.66,.41,.85,.56,1.46,1,.15,.12,.22,.19,.22,.29,0,.15-.07,.22-.7,.61l.02,1.87h.46c.58-.63,.75-.83,1.33-1.46,.8,.68,1.04,.9,1.82,1.65,.1,.1,.15,.17,.15,.22,0,.07-.1,.15-.22,.15h-3.54c.02,2.19,.05,3.59,.07,4.18,0,.17-.05,.24-.17,.29-.17,.05-.75,.12-1.17,.12-.27,0-.39-.07-.39-.24v-1.36h-5.49q.02,.29,.02,1.19l.05,1.8c0,.66-.02,.83-.15,1.02-.24,.39-.85,.66-2.5,1.02-.05-1.17-.19-1.24-3.79-1.82v-.36c2.77,.17,3.03,.17,3.74,.17h.68c.29,0,.36-.07,.36-.29v-2.72h-6.07c-.63,0-.92,.02-1.5,.12l-.1-.87c.63,.15,.97,.19,1.65,.19h6.02v-2.43h-8.42c-.68,0-.87,.02-1.38,.1l-.12-.83c.53,.12,.85,.17,1.5,.17h8.42v-2.26h-6.34c-.66,0-.85,.02-1.24,.1l-.1-.83c.46,.15,.73,.17,1.33,.17h6.34v-1.97h-5.07v.58c0,.17-.05,.24-.17,.29-.1,.02-.75,.1-1.09,.1-.19,0-.27-.05-.27-.22,.05-1.48,.07-2.21,.07-3.59,0-.8,0-1-.02-1.65,.7,.36,.92,.49,1.58,.87h4.98v-1.89h-8.06c-.8,0-1.02,.02-1.5,.1l-.1-.83c.58,.15,.87,.17,1.63,.17h8.04c-.02-1.58-.02-1.77-.12-2.84,2.45,.32,2.62,.36,2.62,.63,0,.19-.22,.32-.95,.53v1.67h6.97c.61-.7,.78-.9,1.38-1.55,.95,.73,1.21,.97,2.06,1.77,.05,.07,.1,.15,.1,.22,0,.05-.1,.12-.19,.12h-10.32v1.89h5.03c.36-.36,.49-.49,.9-.87,.61,.41,.78,.53,1.33,.97,.17,.12,.22,.19,.22,.27,0,.17-.1,.24-.7,.56,0,1.77,0,1.82,.05,2.91,0,.29-.15,.36-.8,.39-.19,0-.34,.02-.44,.02h-.07c-.19,0-.27-.05-.27-.24v-.39h-5.24Zm-1.55-3.06h-5.07v2.5h5.07v-2.5Zm6.8,0h-5.24v2.5h5.24v-2.5Zm.27,5.58h-5.51v2.26h5.51v-2.26Zm-5.51,2.82v1.58l.02,.85h5.49v-2.43h-5.51Z"/><path class="d" d="M60.76,202.6c.66-.78,.87-1.02,1.55-1.77,.95,.83,1.26,1.09,2.21,2.02,.07,.07,.1,.15,.1,.19,0,.07-.05,.12-.17,.12h-19.01c-1.63,0-1.89,.02-2.89,.17l-.17-.92c1.07,.17,1.53,.19,3.06,.19h9.18c.44-.66,.7-1.12,1.02-1.72,.61-1.26,.92-2.04,.97-2.57,1.75,.51,2.7,.9,2.7,1.12s-.22,.32-1.17,.44c-1.24,1.36-1.92,2.04-2.84,2.74h5.46Zm-14.78,10.85v.39c0,.34,0,1.14,.02,2.23,.02,1.41,.02,1.6,.02,3.52-.05,.22-.12,.29-.29,.34-.27,.05-.87,.1-1.14,.1-.22,0-.29-.07-.34-.27,.05-1.82,.1-6.65,.1-10.49,0-2.33-.02-3.3-.1-4.69,.87,.41,1.14,.56,1.97,1.04h4.42c.36-.46,.49-.61,.87-1.04,.73,.51,.95,.66,1.55,1.19,.1,.15,.15,.19,.15,.24,0,.12-.17,.24-.8,.58v5.58c0,.19,.05,4.03,.07,5.92v.15c0,.97-.44,1.26-2.65,1.85-.17-1.24-.58-1.53-2.6-1.89l.02-.29c.46,.02,.85,.05,1.09,.07,1.36,.12,1.53,.12,2.26,.17h.1c.1,0,.12-.05,.12-.24v-4.47h-4.86Zm4.86-7.26h-4.86v2.96h4.86v-2.96Zm0,3.52h-4.86v3.18h4.86v-3.18Zm-3.16-11.34c2.26,1.21,3.08,1.89,3.08,2.65,0,.66-.46,1.43-.83,1.43-.22,0-.32-.1-.49-.56-.34-.9-1.21-2.33-1.99-3.2l.22-.32Zm10.15,7.55c0,.15-.27,.34-.75,.53v1.87c0,2.43,.02,6.04,.05,7.09,0,.32-.17,.39-.85,.44-.22,.02-.39,.02-.49,.05h-.07c-.17,0-.27-.1-.27-.29,.05-2.74,.07-4.56,.07-7.62,0-.73-.02-1.46-.12-2.65,1.8,.24,2.43,.39,2.43,.58Zm2.72,1.46c0-1.19-.05-2.09-.17-2.79,1.92,.27,2.67,.46,2.67,.66s-.29,.36-.92,.56v5.2q.05,5.2,.1,7.16c-.05,.68-.22,.95-.83,1.31-.49,.29-1,.46-1.97,.68q-.34-1.46-3.69-1.99v-.36c.44,.02,.78,.05,1,.05,2.36,.15,2.55,.17,3.64,.17,.15-.05,.17-.1,.17-.22v-10.42Z"/><path class="d" d="M48.77,237.64c-.05,.22-.41,1.75-1.09,4.56-.34,1.43-.41,1.82-.41,2.57,0,.7-.02,.9-.07,1.04-.1,.27-.32,.41-.58,.41-.41,0-.78-.34-1.04-1-.53-1.26-.85-3.23-.85-5.17,0-.73,.07-1.63,.19-2.6q.17-1.41,.85-4.59c.24-1.14,.34-1.75,.34-2.26,0-.8-.19-1.41-.68-2.28,.53,.02,.97,.34,1.63,1.19,.61,.75,.9,1.38,.9,1.92,0,.39-.02,.49-.51,1.46-.49,1.02-1.07,2.72-1.31,3.86-.22,.92-.32,1.97-.32,3.01,0,1.34,.12,2.19,.46,3.21,.41-.85,.61-1.33,.87-2.06l1.29-3.4,.34,.12Zm3.06,1.21c-.05,.49-.07,.7-.07,1.02,0,2.67,1.53,3.76,5.29,3.76,.7,0,1.41-.05,2.06-.17q.51-.07,1.29-.39c.15-.05,.27-.07,.36-.07,.63,0,1.53,.85,1.53,1.43,0,.29-.19,.49-.53,.61-.51,.17-1.67,.27-3.03,.27-3.04,0-5.2-.51-6.29-1.48-.87-.8-1.31-1.82-1.31-3.16,0-.61,.07-1.14,.29-1.92l.41,.1Zm-.05-7.72c.85,.51,1.38,.66,2.26,.66,1.5,0,3.86-.53,4.88-1.09,.32-.17,.36-.19,.53-.19,.19,0,.51,.12,.85,.34,.51,.29,.75,.58,.75,.9s-.17,.46-.68,.56c-1.6,.24-2.5,.46-3.45,.85-.75,.32-2.16,1.09-3.13,1.72l-.24-.24c1.09-.92,1.92-1.6,2.31-1.89-.51,.02-.78,.05-1,.05-1.36,0-2.26-.36-3.3-1.36l.22-.29Z"/><path class="d" d="M60.84,271.12c.61-.73,.8-.95,1.43-1.6,.97,.73,1.26,.97,2.21,1.8,.05,.07,.1,.17,.1,.22,0,.07-.1,.15-.24,.15h-10.34v.17c0,.07,0,.19-.02,.39v.41c0,.68,.02,1.04,.07,3.67-.02,.24-.19,.32-.85,.34-.27,0-.46,.02-.56,.02h-.05c-.19,0-.27-.05-.27-.22q.05-2.91,.05-4.78h-7.72c-1.02,0-1.46,.02-2.04,.1l-.15-.85c.83,.15,1.31,.19,2.21,.19h7.7v-.53c0-1.21,0-1.31-.02-2.02,2.31,.22,2.5,.24,2.5,.49,0,.17-.17,.27-.85,.51v1.55h6.85Zm-18.11-12.55c1.09,.34,2.06,.7,2.65,1.02,.51,.27,.66,.49,.66,.95,0,.7-.24,1.26-.56,1.26-.17,0-.27-.1-.46-.39-.58-.92-1.21-1.6-2.4-2.57l.12-.27Zm.39,5.8c.49,.07,1.55,.22,1.65,.22,.29,0,.39-.1,.92-.97q1.29-2.16,2.28-3.93c.7-1.26,1.19-2.14,1.48-2.65l.34,.15-3.38,7.53c-.17,.36-.24,.63-.24,.85,0,.27,.05,.44,.34,1.12,.29,.7,.39,1.12,.39,1.58,0,.75-.75,1.51-1.48,1.51-.36,0-.56-.17-.56-.51,0-.05,.02-.29,.07-1.02,.02-.51,.05-.95,.05-1.19,0-.75-.15-1.24-.49-1.58-.27-.27-.39-.34-1.46-.75l.07-.34Zm1.43-9.47c2.79,.9,3.33,1.26,3.33,2.21,0,.63-.24,1.19-.53,1.19-.15,0-.22-.1-.41-.39-.53-.92-1.31-1.77-2.48-2.74l.1-.27Zm15.56,6.09c.51-.61,.66-.8,1.17-1.33,.83,.66,1.09,.85,1.92,1.55,.07,.1,.1,.17,.1,.19,0,.1-.1,.15-.19,.15h-5.61v2.45h2.5c.56-.61,.73-.8,1.29-1.36,.87,.68,1.12,.9,1.97,1.6,.07,.1,.1,.15,.1,.19,0,.07-.1,.12-.22,.12h-5.63v2.67h3.42c.53-.63,.68-.83,1.21-1.41,.85,.68,1.09,.9,1.94,1.65,.07,.1,.1,.15,.1,.19,0,.07-.07,.12-.24,.12h-11.77v.56c0,.12-.05,.17-.15,.22-.12,.07-.8,.15-1.14,.15-.19,0-.27-.07-.27-.27q.05-2.28,.05-8.04c-.92,1.12-1.38,1.58-2.62,2.65l-.24-.19c1.48-1.8,2.36-3.16,3.47-5.41,.68-1.36,.95-2.01,1.26-3.04,1.99,.66,2.43,.85,2.43,1.07,0,.19-.24,.29-.78,.29h-.22c-.66,1.07-.87,1.38-1.46,2.21h3.64c.66-1.17,1.24-2.5,1.5-3.5,.44,.15,.78,.24,1,.32,1.19,.39,1.43,.51,1.43,.7s-.27,.27-1.07,.32l-2.23,2.16h4.15c.51-.63,.68-.8,1.21-1.36,.8,.63,1.07,.85,1.89,1.55,.07,.1,.12,.17,.12,.22,0,.1-.1,.15-.22,.15h-6.43v2.45h2.62Zm-4.08,0v-2.45h-3.88v2.45h3.88Zm0,3.01v-2.45h-3.88v2.45h3.88Zm-3.88,3.23h3.88v-2.67h-3.88v2.67Z"/><path class="d" d="M41.68,296.84c1.41-2.14,2.38-3.96,3.33-6.29,.92-2.31,1.43-4.2,1.53-5.68,2.38,.63,2.6,.7,2.6,.95,0,.22-.24,.32-.92,.39-1.14,3.06-1.77,4.47-2.91,6.41,1.17,.15,1.55,.27,1.55,.49,0,.15-.15,.29-.63,.51v4.81l.02,7.99v.07c0,.36-.29,.49-1.17,.49-.41,0-.51-.05-.51-.32,.07-1.87,.07-2.5,.07-4.44v-8.5c-.92,1.46-1.38,2.04-2.62,3.42l-.34-.29Zm4.85,9.23c1.6-3.57,2.04-6.09,2.04-12.14,0-2.35,0-2.4-.15-3.54,.92,.39,1.17,.53,1.97,1.07h10.73c.58-.68,.78-.87,1.36-1.53,.87,.75,1.12,1,1.87,1.77,.1,.1,.12,.15,.12,.19,0,.1-.07,.12-.27,.12h-14.01c-.02,4.13-.15,5.95-.58,8.16-.44,2.33-1.24,4.08-2.77,6.09l-.32-.19Zm10.78-18.16v-1.36c0-.41,0-.78-.05-1.43,2.04,.27,2.48,.36,2.48,.63,0,.19-.32,.36-.87,.46v1.7h1.94l1.19-1.55c.9,.73,1.17,.97,1.94,1.72,.1,.1,.15,.17,.15,.24,0,.1-.1,.15-.34,.15h-4.86q0,1,.02,1.92v.12c0,.24-.39,.36-1.21,.36-.34,0-.44-.07-.44-.32,.02-1.17,.02-1.38,.02-2.09h-3.23c.02,1.02,.02,1.67,.05,1.97v.07c0,.27-.39,.39-1.19,.39-.34,0-.49-.07-.49-.27v-.05c.02-1.12,.02-1.41,.05-2.11h-2.06c-.95,0-1.24,.02-1.89,.15l-.19-.95c.73,.15,1.48,.24,2.11,.24h2.04c0-1.53-.02-1.92-.07-2.79,1.77,.29,2.04,.34,2.23,.41,.19,.07,.29,.17,.29,.27,0,.19-.22,.32-.87,.49v1.63h3.25Zm.24,13.38q.07,4.27,.07,4.59c0,.15-.02,.19-.1,.27-.12,.07-.61,.17-1.07,.17-.32,0-.44-.07-.44-.29,0-.66,.02-2.21,.05-4.73h-3.2v4.88c0,.39-.22,.49-1.14,.49-.39,0-.49-.07-.49-.32q0-.85,.1-3.84v-.97c0-5.97-.02-7.21-.1-8.42,.8,.36,1.04,.49,1.8,.9h7.7c.32-.39,.44-.51,.78-.9,.68,.46,.87,.61,1.48,1.04,.15,.12,.22,.22,.22,.29,0,.15-.15,.27-.73,.63v5.66q.05,3.42,.07,4.37c0,.49-.05,.66-.27,.9-.32,.32-.66,.44-1.97,.68-.15-.66-.24-.8-.58-1-.34-.17-.75-.29-1.5-.41l.05-.39q1.75,.15,2.4,.15c.19-.02,.22-.05,.22-.29v-3.45h-3.35Zm-1.48-6.72h-3.18v2.77h3.18v-2.77Zm0,3.33h-3.18v2.84h3.18v-2.84Zm4.83-.56v-2.77h-3.35v2.77h3.35Zm-3.35,3.4h3.35v-2.84h-3.35v2.84Z"/><path class="d" d="M61.47,329.79c-2.33,3.16-5.51,5.03-8.52,5.03-1.84,0-3.28-.75-4.03-2.06-.49-.85-.68-2.04-.68-4.1,0-1.33,.07-3.64,.19-5.85,.15-2.62,.17-3.3,.17-4.18,0-2.09-.24-2.5-1.97-3.23,.27-.19,.41-.24,.68-.24,.56,0,1.43,.22,2.18,.56,.92,.44,1.41,.92,1.41,1.43,0,.17-.02,.32-.22,.87-.46,1.46-1.26,8.81-1.26,11.65,0,1.48,.29,2.35,.97,2.91,.53,.41,1.31,.66,2.16,.66,1.65,0,3.69-.58,5.54-1.55,1.12-.58,1.82-1.09,3.08-2.16l.29,.27Z"/><path class="d" d="M44.45,345.84c.34,.32,.61,.41,1.09,.41,.68,0,1.29-.12,6.72-1.43,1.02-.24,2.33-.53,3.93-.85,1.84-.36,2.55-.53,3.28-.78,.49-.15,.66-.19,.85-.19,.29,0,.83,.22,1.31,.51,.49,.32,.7,.58,.7,.92,0,.36-.29,.61-.75,.61-.1,0-.27,0-.44-.02-.32-.05-.44-.05-.68-.05-4.15,0-8.16,3.96-8.16,8.04,0,2.23,1.12,3.88,3.2,4.78,.8,.34,1.77,.56,2.48,.58,.49,0,.66,.07,1.02,.39,.44,.44,.73,.87,.73,1.17,0,.41-.36,.68-.9,.68-1.38,0-3.57-.78-4.93-1.75-1.85-1.31-2.82-3.18-2.82-5.44,0-1.97,.97-4.13,2.65-5.92,.97-1.07,1.94-1.72,3.96-2.77-2.21,.32-4.2,.78-6.97,1.67-1.53,.49-3.11,1.14-3.88,1.55-.49,.29-.66,.34-.97,.34-.58,0-1.31-.56-1.87-1.43-.39-.58-.63-1.24-.63-1.63,0-.19,.05-.34,.27-.63,.22,.58,.41,.9,.8,1.24Z"/></g><g><path class="d" d="M1.7,5c.97,.87,1.82,1.24,2.89,1.24,.68,0,1.31-.07,2.43-.32,.02-.7,.02-1.8,.02-2.23,0-2.55-.29-3.06-1.97-3.35,.34-.27,.53-.34,1.04-.34,.83,0,1.84,.24,2.5,.61,.32,.17,.53,.51,.53,.78q0,.15-.27,.63c-.39,.7-.63,1.85-.75,3.62,1.29-.44,1.87-.75,2.65-1.41,.19-.15,.44-.24,.58-.24,.22,0,.63,.1,.92,.22,.24,.1,.41,.32,.41,.53,0,.34-.22,.53-1.09,.95-1.09,.51-2.23,.9-3.54,1.19q-.02,.34-.07,1.21c-.02,.66-.07,1.72-.1,3.18,2.72-.97,4.47-1.34,6.43-1.34,3.33,0,5.41,1.58,5.41,4.15,0,2.38-1.82,4.22-4.15,4.22s-3.84-1.48-4.69-4.3l.36-.12c.58,1.12,.95,1.63,1.46,2.11,.68,.63,1.43,.92,2.31,.92,1.77,0,3.04-1.38,3.04-3.33s-1.26-2.89-3.59-2.89c-1.92,0-4.22,.61-6.58,1.75q0,2.57,.02,3.3c.02,.46,.02,.73,.02,.92,0,.58-.1,1.04-.32,1.43-.29,.56-.75,.9-1.17,.9q-.34,0-1.82-1.31c-.51-.41-1.21-.9-1.63-1.09-.53-.24-.8-.61-.8-1.02,0-.39,.24-.87,.73-1.36,.9-.92,1.72-1.46,3.86-2.5,.02-.34,.02-.7,.05-1.17q.05-1.09,.12-3.5c-.75,.12-1.31,.17-1.89,.17-1.55,0-2.6-.56-3.62-1.99l.24-.24Zm2.67,9.83c-.49,.51-.73,.9-.73,1.17,0,.24,.32,.51,.97,.75,.53,.22,1.19,.39,1.5,.39,.29,0,.41-.17,.44-.61,.12-2.18,.17-3.37,.17-3.52-1.14,.7-1.75,1.17-2.35,1.82ZM15.2,2.55c1.48,.07,2.57,.34,3.57,.87,1.07,.58,1.7,1.38,1.7,2.14,0,.44-.29,.7-.73,.7-.05,0-.17,0-.36-.05-.34-.05-.44-.05-.51-.05-.36,0-.95,.12-2.99,.66l-.15-.24c1.46-.75,2.31-1.26,2.65-1.55-.39-.68-.78-1.07-1.53-1.5-.49-.27-.87-.41-1.68-.63l.02-.34Z"/><path class="d" d="M11,27.31c.68,0,2.01,.63,2.69,1.29,.39,.39,.53,.63,.53,.97,0,.32-.12,.46-1.41,1.5-1.31,1.09-3.69,3.33-4.47,4.2-.85,.95-1.17,1.5-1.17,1.97,0,.34,.24,.78,.73,1.26q.34,.36,1.7,1.6c2.65,2.45,3.88,3.81,4.47,4.95,.27,.51,.36,.95,.36,1.6,0,.92-.32,1.46-.83,1.46-.32,0-.41-.12-.83-1-.44-.95-1.19-2.23-2.04-3.42-.9-1.29-1.02-1.43-3.54-4.39-.66-.8-.92-1.38-.92-2.04,0-.78,.39-1.43,1.87-3.25,2.94-3.57,3.67-4.59,3.67-5.17,0-.41-.32-.78-1.34-1.43,.17-.07,.29-.1,.51-.1Z"/><path class="d" d="M5.03,66c-.05,.53-.07,.75-.07,1.09,0,2.89,1.82,4.25,5.73,4.25,1.92,0,3.93-.34,5.37-.87,.15-.07,.29-.1,.41-.1,.36,0,.92,.22,1.33,.49,.34,.27,.53,.56,.53,.85,0,.36-.27,.63-.78,.75-1.12,.29-3.5,.49-5.66,.49-2.72,0-4.44-.34-5.66-1.17-1.21-.78-2.01-2.31-2.01-3.83,0-.58,.12-1.24,.39-2.04l.41,.1Zm.75-9.59c1.24,.83,2.09,1.07,3.71,1.07s3.64-.29,5.05-.73c.17-.05,.36-.1,.44-.1,.63,0,1.46,.73,1.46,1.26,0,.41-.15,.49-1.77,.85-.95,.19-1.17,.29-3.54,1.19q-.58,.22-1.99,.83c-.49,.19-.49,.22-.95,.39l-.17-.36c.75-.44,1.14-.68,1.77-1.02q1.65-.9,2.04-1.14c-.53,.05-1.38,.07-1.82,.07-.9,0-2.01-.27-2.77-.66-.63-.34-1.02-.68-1.7-1.41l.24-.24Z"/><path class="d" d="M7.57,81.24c.73,0,1.87,.22,2.45,.46,.49,.19,.68,.44,.68,.78v.05c0,.19-.02,.19-.19,.63-.29,.83-.53,2.91-.53,4.93,0,1.43,.19,1.8,.95,1.8,.51,0,1.04-.19,3.25-1.24,.44-.22,.7-.29,1-.29,.58,0,1.17,.51,1.17,1.02,0,.32-.17,.58-.51,.73-.17,.07-.51,.19-1.63,.51-2.94,.83-4.54,1.55-6.07,2.72-1.31,1.02-1.89,1.97-1.89,3.11,0,1.75,1.38,2.65,4.08,2.65,1.51,0,3.88-.29,5.63-.7,.24-.05,.34-.07,.49-.07,.63,0,1.31,.61,1.31,1.19,0,.44-.27,.66-1.04,.8-.78,.15-3.2,.32-4.66,.32-1.77,0-3.11-.19-4.13-.56-1.63-.61-2.65-1.99-2.65-3.59,0-1.41,.78-2.74,2.38-4.08,.73-.63,1.53-1.17,2.96-1.94-.53,0-.75-.07-1.17-.36-.36-.27-.58-.8-.7-1.84-.07-.58-.1-1.12-.17-2.94-.07-2.06-.1-2.43-.29-2.79-.27-.46-.73-.7-1.75-.87,.36-.32,.56-.39,1.04-.39Z"/><path class="d" d="M5.34,124.95c1.85,1.04,3.25,1.65,3.76,1.65s.95-.51,1.58-2.04c.85-1.99,1.43-4.66,1.43-6.51,0-1.02-.22-1.68-.66-1.97-.24-.17-.56-.24-1.09-.24-.68,0-1.14,.1-2.52,.49q-.34,.85-1.41,3.3c-.12,.29-.61,1.43-1.43,3.4-.97,2.28-1.77,4.03-2.16,4.71-.17,.32-.36,.46-.58,.46-.44,0-.7-.63-.7-1.67,0-.61,.07-.8,.56-1.36,1.09-1.33,2.14-3.33,4.47-8.45-1.63,.53-2.65,.95-3.16,1.26-.36,.22-.51,.27-.7,.27-.27,0-.75-.32-1.07-.73-.44-.56-.8-1.41-.8-1.85,0-.12,.05-.29,.15-.53,.51,1,.95,1.34,1.85,1.34,.53,0,2.33-.36,4.13-.85,.56-1.38,1-3.16,1-3.98,0-.75-.49-1.19-1.87-1.63,.29-.22,.44-.27,.7-.27,.36,0,1,.12,1.65,.32,1.09,.32,1.7,.78,1.7,1.29,0,.17-.05,.27-.34,.7-.46,.8-.85,1.58-1.55,3.28,1.07-.22,1.51-.27,2.11-.27,2.09,0,3.08,1.24,3.08,3.79,0,3.11-1.24,7.14-2.65,8.69-.61,.63-1.55,1.09-2.33,1.09-.41,0-.61-.17-.66-.56-.05-.63-.15-.75-2.69-2.84l.22-.29Zm10.71-9.78c1.89,.56,3.38,1.53,4.44,2.91,.92,1.19,1.38,2.36,1.38,3.42,0,.85-.36,1.33-.97,1.33-.19,0-.29-.02-.56-.17-.41-.24-.53-.27-1-.27-.85,0-.97,0-3.03,.22l-.1-.32c2.4-.73,3.01-.95,3.71-1.24-.29-2.35-1.94-4.59-4.08-5.56l.19-.34Zm.83-4.86c.9,.49,1.55,.95,2.16,1.51,.87,.78,1.21,1.33,1.21,1.92s-.34,1.02-.75,1.02q-.32,0-1.07-1.58c-.44-.85-1.21-1.89-1.87-2.55l.32-.32Zm2.5-1.41c.87,.39,1.58,.8,2.33,1.38,.92,.7,1.24,1.19,1.24,1.87,0,.58-.24,1-.61,1-.22,0-.36-.12-.56-.46-.85-1.53-1.33-2.16-2.67-3.47l.27-.32Z"/><path class="d" d="M11.8,151.92v2.5h5.85c.56-.63,.75-.83,1.33-1.43,.9,.68,1.17,.9,2.09,1.65,.05,.07,.1,.15,.1,.19,0,.07-.07,.15-.15,.15H11.8v2.65h6.92c.58-.73,.75-.92,1.36-1.6,1,.8,1.29,1.04,2.18,1.85,.02,.05,.05,.1,.05,.15,0,.07-.1,.17-.19,.17H3.38q-2.28,.02-2.94,.1l-.12-.85c1.09,.12,2.26,.19,3.06,.19h6.77v-2.65H5.1c-.95,0-2.21,.05-2.94,.1l-.17-.87c1.07,.15,1.97,.22,3.11,.22h5.05v-2.5H5.1v.85c-.07,.22-.34,.27-1.21,.27-.32,0-.41-.07-.41-.32,.07-1.33,.12-3.23,.12-4.93,0-.53-.02-1.5-.02-2.35-.02-.97-.02-1.26-.02-1.77,.87,.46,1.17,.63,2.01,1.14h4.59v-2.16H3.38c-1.07,0-1.92,.02-2.67,.1l-.12-.83c1.19,.12,1.87,.17,2.79,.17h6.77v-2.28c-3.13,.29-4.9,.36-8.01,.36l-.05-.41c5.75-.34,11.82-1.51,15-2.82,1.82,1.26,2.19,1.58,2.19,1.8,0,.1-.1,.17-.22,.17q-.22,0-1.17-.27c-2.11,.49-3.18,.66-6.09,1v2.45h6.58c.58-.75,.78-1,1.48-1.7,.97,.78,1.29,1.02,2.23,1.89,.05,.07,.07,.12,.07,.17,0,.1-.1,.19-.19,.19H11.8v2.16h5.05c.36-.44,.49-.58,.92-1,.7,.49,.92,.66,1.6,1.19,.1,.1,.12,.15,.12,.19,0,.17-.1,.24-.78,.63,0,5.56,0,5.71,.05,6.75-.02,.19-.07,.27-.22,.29-.24,.07-.58,.12-1,.12-.34,0-.41-.05-.46-.24v-.83h-5.29Zm-1.65-6.55H5.1v2.57h5.05v-2.57Zm0,3.13H5.1v2.86h5.05v-2.86Zm6.94-3.13h-5.29v2.57h5.29v-2.57Zm0,3.13h-5.29v2.86h5.29v-2.86Z"/><path class="d" d="M15.88,180.36c-1.07,1.84-1.65,2.6-2.99,3.88,2.55,.68,4.93,1.46,5.63,1.87,.66,.39,1.21,1.33,1.21,2.04,0,.34-.17,.58-.41,.58-.17,0-.27-.07-1.67-.95-1.92-1.19-3.33-1.87-5.68-2.74-1.58,1.29-2.99,2.04-4.98,2.65-2.28,.7-4.03,.97-6.68,1.02v-.41c3.11-.46,4.71-.85,6.58-1.63,1.31-.56,2.43-1.21,3.59-2.11-1.75-.53-2.45-.7-4.25-1-.29,.34-.41,.49-.83,.95-.12,.15-.22,.19-.34,.19-.24,0-1.09-.17-1.21-.24-.05-.02-.07-.07-.07-.1,0-.07,.02-.1,.27-.39,1.5-1.85,1.97-2.43,2.82-3.62H2.14q-1.55,.02-1.99,.12l-.15-.95c.73,.22,1.09,.27,2.16,.27H7.26c1-1.48,1.33-2.06,1.6-2.72,1.97,.58,2.16,.68,2.16,.83,0,.17-.24,.27-1,.36-.51,.8-.63,1-1,1.53h9.52c.66-.75,.85-.95,1.5-1.6,.95,.75,1.24,1,2.09,1.77,.1,.12,.15,.19,.15,.24,0,.1-.1,.15-.24,.15h-6.17Zm-1.67-8.62h3.57c.41-.46,.56-.61,.97-1.04,.58,.44,.75,.58,1.33,1.04,.19,.17,.24,.24,.24,.32,0,.15-.07,.22-.73,.61q.02,3.57,.12,4.95v.07c0,.29-.29,.36-1.33,.36-.24,0-.34-.1-.34-.32v-.78H3.98v.66c0,.32-.19,.39-1.26,.39-.22,0-.32-.07-.32-.27,.05-1.48,.05-2.23,.05-3.13q0-.75-.02-2.31c-.02-.51-.02-1-.02-1.48,.83,.34,1.09,.49,1.97,.92h3.33v-3.08H2.28c-.49,0-1.14,.05-1.72,.15l-.15-.95c.61,.17,1.14,.24,2.11,.24h15.71c.63-.7,.83-.9,1.43-1.53,.95,.7,1.24,.95,2.16,1.7,.07,.1,.15,.19,.15,.24,0,.07-.07,.15-.17,.15h-7.6v3.08Zm-10.22,.56v4.1h3.71v-4.1H3.98Zm4.66,8.06c-.85,1.21-1.29,1.82-2.06,2.79,2.6,.34,3.45,.49,4.73,.73,1.29-1.19,1.87-1.92,2.72-3.52h-5.39Zm.53-11.7v3.08h3.52v-3.08h-3.52Zm0,7.74h3.52v-4.1h-3.52v4.1Zm5.03,0h3.84v-4.1h-3.84v4.1Z"/><path class="d" d="M2.09,199.9c.34,.32,.61,.41,1.09,.41,.68,0,1.29-.12,6.75-1.43,.87-.22,2.26-.53,3.93-.85,1.7-.34,2.55-.56,3.28-.8,.49-.15,.66-.19,.85-.19,.29,0,.83,.22,1.31,.51,.49,.29,.7,.61,.7,.92,0,.36-.29,.61-.75,.61-.12,0-.27,0-.46-.02-.29-.05-.41-.05-.68-.05-4.15,0-8.16,3.96-8.16,8.11,0,2.16,1.14,3.86,3.23,4.73,.8,.34,1.72,.56,2.45,.58,.49,0,.68,.07,1.02,.39,.46,.44,.73,.87,.73,1.17,0,.39-.36,.68-.87,.68-1.41,0-3.59-.78-4.95-1.75-1.84-1.31-2.82-3.2-2.82-5.44,0-1.97,.97-4.15,2.65-5.92,.97-1.07,1.92-1.72,3.96-2.79-3.01,.36-8.57,2.02-10.85,3.25-.49,.29-.66,.34-.97,.34-.58,0-1.31-.56-1.87-1.43-.39-.58-.63-1.24-.63-1.63,0-.19,.05-.34,.27-.66,.22,.61,.41,.92,.8,1.26Zm14.42,2.18c.9,.51,1.55,.97,2.16,1.5,.87,.8,1.21,1.36,1.21,1.94s-.34,1.02-.75,1.02q-.32,0-1.07-1.58c-.44-.85-1.21-1.92-1.87-2.57l.32-.32Zm2.5-1.41c.87,.39,1.58,.83,2.33,1.38,.92,.7,1.24,1.21,1.24,1.87,0,.58-.24,1-.61,1-.22,0-.36-.12-.56-.46-.85-1.53-1.31-2.16-2.67-3.45l.27-.34Z"/><path class="d" d="M7.4,243.5c2.82-1.92,4.01-3.47,4.61-6.07-.56,.34-1,.49-1.55,.49-1.7,0-2.99-1.5-2.99-3.5,0-2.14,1.33-3.71,3.13-3.71,.46,0,.73,.07,1.36,.41,0-.41,.02-1.75,.02-2.53,0-.05,0-.27-.02-.49-1.89,.17-4.15,.63-6.12,1.21-.61,.19-1.02,.36-1.58,.66-.15,.05-.41,.12-.56,.12-.44,0-1-.34-1.55-.92-.53-.58-.97-1.38-.97-1.77,0-.05,.05-.17,.12-.29,.63,.83,1.38,1.24,2.35,1.24,.49,0,1.02-.05,2.09-.22,2.86-.46,3.74-.58,6.21-.85,0-1.46-.07-2.16-.27-2.7-.27-.68-.85-1.02-2.09-1.19,.29-.36,.46-.44,1.12-.44,.83,0,1.65,.12,2.35,.34,.58,.19,.92,.51,.92,.85,0,.19-.02,.24-.24,.66-.27,.51-.44,1.19-.53,2.35q.63-.07,1.58-.15c2.33-.17,2.6-.22,3.23-.44,.61-.24,.7-.27,.9-.27,.49,0,1.46,.41,2.06,.9,.29,.22,.39,.39,.39,.66s-.17,.41-.53,.41c-.17,0-.22,0-1.31-.15-1.26-.17-2.31-.24-3.74-.24-.9,0-1.6,.02-2.6,.1-.1,.92-.17,2.4-.17,3.3,0,.17,0,.46,.02,.83,.61,1.24,.78,1.99,.78,3.23,0,2.38-.95,4.59-2.62,6.17-.92,.87-2.11,1.65-3.62,2.31l-.19-.32Zm3.08-12.21c-1.09,0-1.94,1.14-1.94,2.62s.83,2.65,1.97,2.65c1.04,0,1.55-.78,1.55-2.28,0-2.01-.51-2.99-1.58-2.99Z"/><path class="d" d="M22.63,255.24c0,1.72-1.41,3.13-3.13,3.13s-3.13-1.41-3.13-3.13,1.41-3.13,3.13-3.13,3.13,1.38,3.13,3.13Zm-5.49,0c0,1.29,1.07,2.36,2.35,2.36s2.36-1.04,2.36-2.36-1.04-2.35-2.36-2.35-2.35,1.04-2.35,2.35Z"/></g></g></g></g></svg>