<?xml version="1.0" encoding="UTF-8"?><svg xmlns="http://www.w3.org/2000/svg" viewBox="0 0 12.96 11.39"><defs><style>.d{fill:#333;}</style></defs><g id="a"/><g id="b"><g id="c"><g><path class="d" d="M4.23,0c.35,.06,.7,.12,1.02,.27,1.35,.6,2.16,1.62,2.35,3.09,.26,2.06-1.21,3.92-3.23,4.22-.15,.02-.29,.03-.44,.03-1.08,0-2.15,0-3.23,0-.17,0-.17,0-.09-.16,.15-.29,.29-.59,.44-.88,.03-.06,.04-.11-.02-.17C.47,5.79,.12,5.08,.01,4.25c0-.02,0-.03-.01-.05v-.81s.01-.04,.02-.06C.24,1.86,1.05,.85,2.41,.26c.32-.14,.67-.21,1.01-.26h.81Zm-.4,4.93c.09,0,.18,0,.27,0,.06,0,.1-.02,.11-.09,.03-.22,.16-.37,.35-.48,.57-.34,.83-.84,.76-1.51-.08-.7-.67-1.32-1.5-1.32-.79,0-1.42,.61-1.49,1.4,0,.09,.02,.1,.1,.1,.16,0,.33,0,.49,0,.1,0,.13-.02,.15-.13,.07-.41,.44-.67,.86-.63,.38,.04,.67,.38,.67,.78,0,.31-.16,.53-.43,.68-.42,.24-.65,.6-.7,1.08-.01,.1,.02,.12,.11,.11,.08,0,.17,0,.25,0Zm.37,.78c0-.09,0-.19,0-.28,0-.08-.03-.11-.1-.1-.18,0-.35,0-.53,0-.07,0-.11,.02-.11,.1,0,.18,0,.36,0,.54,0,.07,.03,.1,.1,.1,.1,0,.19,0,.29,0q.35,0,.35-.36Z"/><path class="d" d="M8.74,11.39c-.37-.06-.74-.13-1.08-.29-1.26-.58-2.01-1.55-2.26-2.91-.02-.11,.04-.15,.12-.18,1.31-.55,2.19-1.5,2.64-2.85,.12-.37,.19-.75,.2-1.14,0-.11,.04-.16,.16-.18,2.14-.36,4.15,1.13,4.44,3.29,0,.02,.01,.04,.02,.06v.81s-.01,.02-.01,.04c-.11,.83-.46,1.55-1.03,2.17-.05,.06-.04,.1,0,.16,.13,.26,.27,.53,.4,.79,.04,.08,.1,.15,.1,.24h-3.67Zm.8-4.93c-.46,0-.93,0-1.39,0-.1,0-.14,.03-.13,.13,0,.16,0,.33,0,.49,0,.08,.02,.12,.11,.12,.93,0,1.87,0,2.8,0,.09,0,.11-.04,.11-.12,0-.16,0-.33,0-.49,0-.1-.03-.13-.13-.13-.46,0-.91,0-1.37,0Zm-.01,1.52c-.46,0-.92,0-1.38,0-.1,0-.14,.03-.13,.13,0,.16,0,.33,0,.49,0,.08,.02,.12,.11,.12,.93,0,1.87,0,2.8,0,.09,0,.11-.04,.11-.12,0-.16,0-.32,0-.48,0-.11-.04-.14-.15-.14-.46,0-.91,0-1.37,0Z"/></g></g></g></svg>