<?xml version="1.0" encoding="UTF-8"?><svg xmlns="http://www.w3.org/2000/svg" viewBox="0 0 31.15 112"><defs><style>.d{fill:#fff;}.e{fill:#803b3b;opacity:.9;}</style></defs><g id="a"/><g id="b"><g id="c"><g><rect class="e" width="31.15" height="112"/><g><path class="d" d="M8.87,12.56c.69,.62,1.29,.88,2.05,.88,.48,0,.93-.05,1.72-.22,.02-.5,.02-1.27,.02-1.58,0-1.81-.21-2.17-1.4-2.38,.24-.19,.38-.24,.74-.24,.59,0,1.31,.17,1.77,.43,.22,.12,.38,.36,.38,.55q0,.1-.19,.45c-.28,.5-.45,1.31-.53,2.57,.91-.31,1.33-.53,1.88-1,.14-.1,.31-.17,.41-.17,.15,0,.45,.07,.65,.16,.17,.07,.29,.22,.29,.38,0,.24-.16,.38-.78,.67-.78,.36-1.58,.64-2.52,.84q-.02,.24-.05,.86c-.02,.47-.05,1.22-.07,2.26,1.93-.69,3.17-.95,4.57-.95,2.36,0,3.84,1.12,3.84,2.95,0,1.69-1.29,3-2.95,3s-2.72-1.05-3.33-3.05l.26-.09c.41,.79,.67,1.15,1.03,1.5,.48,.45,1.02,.66,1.64,.66,1.26,0,2.15-.98,2.15-2.36s-.9-2.05-2.55-2.05c-1.36,0-3,.43-4.67,1.24q0,1.83,.02,2.34c.02,.33,.02,.52,.02,.65,0,.41-.07,.74-.22,1.02-.21,.4-.53,.64-.83,.64q-.24,0-1.29-.93c-.36-.29-.86-.64-1.15-.78-.38-.17-.57-.43-.57-.72,0-.28,.17-.62,.52-.96,.64-.65,1.22-1.03,2.74-1.77,.02-.24,.02-.5,.03-.83q.04-.78,.09-2.48c-.53,.09-.93,.12-1.34,.12-1.1,0-1.84-.4-2.57-1.41l.17-.17Zm1.9,6.98c-.34,.36-.52,.64-.52,.83,0,.17,.22,.36,.69,.53,.38,.16,.84,.28,1.07,.28,.21,0,.29-.12,.31-.43,.09-1.55,.12-2.39,.12-2.5-.81,.5-1.24,.83-1.67,1.29Zm7.68-8.72c1.05,.05,1.83,.24,2.53,.62,.76,.41,1.21,.98,1.21,1.52,0,.31-.21,.5-.52,.5-.04,0-.12,0-.26-.03-.24-.03-.31-.03-.36-.03-.26,0-.67,.09-2.12,.46l-.1-.17c1.03-.53,1.64-.9,1.88-1.1-.28-.48-.55-.76-1.09-1.07-.34-.19-.62-.29-1.19-.45l.02-.24Z"/><path class="d" d="M9.85,34.82c0,.14-.03,.19-.17,.22-.09,.03-.46,.07-.64,.07-.26,0-.34-.05-.34-.19v-.04c.05-1.19,.07-1.67,.07-2.77,0-1.77-.02-2.93-.07-3.7,.69,.28,.88,.38,1.48,.77h4.1c.26-.34,.33-.45,.6-.77,.48,.31,.62,.41,1.03,.77,.14,.12,.19,.19,.19,.26,0,.05-.04,.1-.07,.14-.02,.02-.17,.1-.46,.29,.02,2.84,.02,2.96,.09,4.62,0,.14-.03,.21-.14,.24-.1,.03-.46,.09-.72,.09-.28,0-.36-.07-.36-.24v-.71h-2.29c-.05,1.07-.1,1.55-.26,2.41h2.39c.24-.28,.33-.36,.6-.62,.41,.33,.53,.45,.93,.83,.12,.14,.14,.17,.14,.22q0,.09-.52,.36c-.26,2.51-.53,4.22-.83,5.05-.12,.38-.4,.71-.72,.88-.31,.16-.57,.22-1.28,.34-.03-.76-.26-.91-1.89-1.31l.05-.26c.96,.12,2.03,.22,2.29,.22,.36,0,.5-.17,.64-.76,.26-1.15,.57-3.39,.62-4.57h-2.5c-.22,1.12-.48,2-.83,2.79-.5,1.1-1.27,2.19-2.15,3-.36,.34-.62,.53-1.22,.93l-.17-.19c1.64-1.58,2.52-3.17,3.05-5.46,.28-1.21,.41-2.22,.48-3.88h-1.12v.95Zm0-1.34h4.58v-3.89h-4.58v3.89Zm8.84,3.08c0,.62,.02,.77,.07,2.77v.09c0,.21-.12,.28-.62,.29-.12,0-.22,0-.29,.02h-.05c-.17,0-.26-.07-.26-.19v-.07c.05-1.05,.07-3.14,.07-5.53,0-2.62-.03-4.17-.09-4.65,1.36,.1,1.86,.22,1.86,.43,0,.14-.12,.19-.71,.36l.02,6.48Zm2.27-7.06c0-.53-.02-.79-.1-1.41,.35,.07,.62,.1,.81,.12,.84,.12,1.1,.21,1.1,.36,0,.05-.03,.1-.07,.14-.02,.02-.21,.1-.57,.28v6.48q.07,5.22,.12,6.53v.24c0,.6-.47,.88-1.93,1.19-.22-.67-.22-.69-.48-.84-.33-.17-.83-.31-1.86-.53v-.28c.38,.02,.67,.05,.86,.07q1.29,.12,1.93,.12c.19,0,.26-.05,.26-.19l-.07-12.27Z"/><path class="d" d="M11.76,54.46q.02-.28,.04-.72t.05-.6c-.52,.34-1.43,.96-1.74,1.19-.33,.22-.43,.28-.58,.28-.45,0-1.27-1.02-1.27-1.57,0-.04,.02-.17,.05-.29,.38,.55,.76,.83,1.12,.83s1.46-.47,2.48-1.03c.09-.72,.12-1.21,.12-1.83,0-1-.16-1.29-.98-1.91,.1-.07,.14-.09,.22-.09,.28,0,.66,.17,1.1,.46,.55,.38,.9,.81,.9,1.14q0,.19-.17,.71c-.12,.33-.24,.88-.31,1.36,.38,.4,.5,.53,.5,.67,0,.1-.02,.14-.24,.5-.21,.38-.38,.71-.55,1.12-.03,.29-.03,.36-.03,.64,1.69-1.6,2.26-2.1,3-2.64,1.21-.86,2.02-1.22,2.77-1.22,.53,0,1.02,.22,1.36,.62,.33,.38,.47,.84,.47,1.52s-.02,.78-.35,2.55c-.21,1.12-.31,2.12-.31,2.83s.12,1.05,.43,1.28c.24,.17,.55,.26,.88,.26,.86,0,2.07-.45,3.2-1.22l.14,.21c-1.24,1.28-2.58,1.98-3.81,1.98-1.31,0-2.02-.84-2.02-2.41,0-.62,.15-1.72,.43-3.07,.4-1.84,.43-2.08,.43-2.72,0-.84-.38-1.33-1.05-1.33-.74,0-1.64,.52-3.02,1.74-.9,.79-1.71,1.64-2.62,2.72-.02,.41-.02,.64-.02,.9,0,.93,.05,1.76,.17,3.08,.05,.41,.05,.55,.05,.81,0,.98-.33,1.79-.74,1.79-.19,0-.33-.14-.41-.46-.05-.17-.24-.71-.29-.83-.19-.34-.74-1.05-1.52-1.88-.34,.83-.41,.93-.59,.93-.15,0-.29-.14-.4-.4-.1-.28-.19-.69-.19-.95,0-.21,.02-.24,.29-.52,.28-.26,.55-.64,1.12-1.53l1.88-2.88Zm-1.05,3.22c-.4,.76-.59,1.14-.91,1.83,1.02,.84,1.33,1.08,1.83,1.4q.03-.66,.05-3.22c0-.84,.02-1.24,.07-1.95-.24,.5-.26,.5-1.03,1.95Z"/><path class="d" d="M15.43,80.82c1.86-.55,3.05-1.26,4.03-2.39,1.02-1.15,1.53-2.57,1.53-4.15,0-1.67-.67-3-1.95-3.81-.76-.5-1.89-.79-2.98-.79-.21,0-.33,0-.6,.03,.41,.6,.53,.93,.53,1.43,0,1.34-.96,3.86-2.27,5.96-1.09,1.72-1.93,2.57-2.57,2.57-.29,0-.57-.14-.76-.36-.15-.21-.19-.28-.48-1.1-.15-.45-.26-.66-.76-1.62-.28-.55-.4-1.02-.4-1.57,0-1.08,.58-2.36,1.55-3.41,1.4-1.48,3.67-2.41,5.93-2.41,1.74,0,3.34,.57,4.44,1.58s1.65,2.38,1.65,4.05c0,2.15-1.26,4.07-3.43,5.22-1,.53-1.9,.81-3.36,1.07l-.12-.29Zm-5.67-5.36c0,.83,.26,1.67,.69,2.27,.24,.31,.46,.5,.65,.5,.38,0,1.21-.93,2.05-2.27,1.27-2.03,2.19-4.26,2.19-5.32,0-.26-.05-.43-.24-.86-3,.53-5.34,3.03-5.34,5.68Z"/><path class="d" d="M7.56,94.51c1-.66,1.55-1.1,2.53-2.05,1.6-1.57,2.79-3.05,3.79-4.65,.29-.5,.41-.74,.57-1.26,1.89,.43,2.03,.48,2.03,.62,0,.16-.28,.29-.65,.31,1.07,1.65,2.07,2.64,3.74,3.72,1.38,.88,2.34,1.27,4.15,1.72v.17c-.71,.19-.91,.43-1.24,1.41-1.39-.69-2.63-1.58-3.84-2.76-.81-.79-1.71-1.84-2.38-2.83-.33-.46-.45-.67-.72-1.29-1.03,1.6-2.19,2.96-3.72,4.32-1.31,1.17-2.43,1.93-4.08,2.79l-.17-.24Zm7.44,1.84c-1.74,2.57-1.93,2.84-2.95,4,2.69-.03,5.31-.17,7.01-.36-.76-1.08-1.36-1.81-2.24-2.67l.14-.17c1.14,.65,2.31,1.53,3.45,2.58,.45,.43,.65,.79,.65,1.21,0,.31-.14,.84-.28,1.07-.07,.1-.19,.17-.29,.17-.12,0-.19-.07-.29-.26-.31-.6-.67-1.26-.9-1.57-2.76,.57-6.5,1.1-9.25,1.33-.17,.52-.22,.6-.36,.6-.1,0-.14-.04-.21-.33-.1-.46-.26-1.17-.34-1.65q.41,.02,1.4,.05c.29,.02,.52,.02,.72,.02,.05,0,.17,0,.31-.02,.76-1.31,.96-1.79,1.84-4h-3.5c-.53,0-.76,.02-1.22,.1l-.14-.64c.48,.1,.78,.14,1.36,.14h9.94c.41-.55,.53-.71,.95-1.21,.74,.55,.96,.74,1.67,1.33,.04,.07,.09,.14,.09,.16,0,.07-.07,.12-.16,.12h-7.41Zm-3.91-3.39c.43,.09,.96,.14,1.4,.14h4.34c.41-.52,.54-.67,.96-1.15,.69,.55,.91,.72,1.59,1.29,.07,.05,.1,.1,.1,.16,0,.07-.07,.1-.22,.1h-6.86c-.29,0-.55,.02-1.19,.07l-.12-.6Z"/></g></g></g></g></svg>