<?xml version="1.0" encoding="UTF-8"?><svg xmlns="http://www.w3.org/2000/svg" viewBox="0 0 31.15 78.2"><defs><style>.d{fill:#fff;}.e{fill:#3b4180;opacity:.9;}</style></defs><g id="a"/><g id="b"><g id="c"><g><rect class="e" width="31.15" height="78.2"/><g><path class="d" d="M7.53,17.14c1.91-1.33,3.31-2.65,4.86-4.6,.81-1.02,1.55-2.14,1.89-2.84,.12-.26,.19-.45,.31-.84,.4,.07,.69,.14,.88,.17,.95,.19,1.15,.26,1.15,.41,0,.14-.21,.24-.67,.33,.84,1.41,2,2.62,3.55,3.74,1.46,1.05,2.86,1.71,4.46,2.14l-.03,.24c-.72,.09-1,.33-1.36,1.14-1.6-.83-2.53-1.5-3.79-2.81-1.27-1.29-1.84-2.08-3.08-4.27-1.22,1.95-2.31,3.24-3.89,4.67-1.38,1.22-2.5,2-4.08,2.79l-.19-.26Zm4.25,6.79c0,.15-.02,.21-.1,.24-.15,.05-.55,.1-.9,.1-.19,0-.24-.05-.24-.24,.04-2.69,.05-3.53,.05-4.24,0-1.36-.02-2-.05-2.65,.64,.36,.83,.48,1.38,.88h6.96c.28-.38,.38-.5,.71-.88,.48,.36,.64,.48,1.1,.88,.14,.12,.17,.17,.17,.24,0,.1-.16,.22-.57,.36q0,2.52,.07,5.19v.07c0,.14-.04,.19-.16,.22-.12,.05-.69,.12-.88,.12-.17,0-.26-.07-.26-.21v-.81h-7.29v.72Zm-.02-8.98c.5,.09,.91,.14,1.28,.14h3.6c.4-.43,.52-.59,.91-1.03,.62,.48,.83,.62,1.45,1.14,.09,.09,.14,.16,.14,.21,0,.07-.03,.09-.22,.09h-5.88c-.33,0-.59,.02-1.14,.1l-.14-.64Zm.02,7.86h7.29v-4.39h-7.29v4.39Z"/><path class="d" d="M10.33,40.11q0,1.45,.04,4.17c-.02,.26-.22,.33-.93,.33-.31,0-.41-.07-.41-.26,.05-1.84,.09-5.6,.09-8.01,0-3.29-.02-5.82-.05-6.67,.66,.33,.84,.43,1.5,.76h10.13c.26-.38,.35-.48,.62-.84,.55,.34,.71,.46,1.21,.84,.12,.1,.19,.17,.19,.24s-.05,.12-.19,.24c-.02,.02-.05,.03-.09,.07-.07,.05-.19,.14-.33,.24v7.01q0,.6,.03,3.57v1.41c-.02,.45-.12,.6-.52,.83-.41,.22-.88,.36-1.71,.48-.19-.6-.31-.79-.6-.95-.28-.16-.38-.17-1.9-.36v-.26q2.14,.09,3.15,.12h.09c.14,0,.21-.05,.21-.19v-12.06H10.33v9.29Zm.81-7.12c.86,.17,1.26,.22,1.72,.22h4.86c.31-.38,.6-.76,.88-1.12,.62,.52,.81,.67,1.41,1.21,.05,.07,.09,.12,.09,.16,0,.09-.09,.15-.19,.15h-7.12c-.31,0-.57,.04-1.43,.17l-.22-.79Zm2.51,8.24c0,.14-.03,.19-.14,.24-.09,.03-.46,.09-.69,.09-.26,0-.38-.07-.38-.21v-.05c.05-1.34,.07-2,.07-3.1,0-1.72-.02-2.5-.07-3.2,.62,.26,.81,.36,1.4,.67h3.5c.26-.33,.34-.43,.62-.78,.48,.33,.62,.43,1.05,.78,.1,.09,.15,.15,.15,.19,0,.09-.12,.21-.5,.52-.02,.65-.02,1.14-.02,1.46,0,1.5,.02,2.34,.07,3.24,0,.28-.17,.34-.84,.34-.22,0-.31-.07-.31-.28v-1.03h-3.91v1.12Zm0-1.52h3.91v-3.65h-3.91v3.65Z"/><path class="d" d="M17.66,56.74c1.39-.67,2.31-1.26,3.13-2.05,1.24,.67,1.46,.81,1.46,.93,0,.1-.12,.16-.33,.16-.07,0-.4-.02-.62-.02-1.17,.57-2.33,.98-3.65,1.29v.98c0,.24,.03,.29,.21,.33,.12,.02,.95,.05,1.41,.05,.16,0,.41,0,.86-.02h.71c.65,0,.74-.02,.84-.19,.12-.19,.48-1.09,.78-1.91l.21,.02-.1,1.36v.4q0,.09,.31,.21c.24,.07,.36,.21,.36,.41,0,.57-.47,.66-3.67,.66-2.77,0-2.93-.05-2.96-.93v-4.41h-3.55c-.41,.64-.64,.93-1.05,1.38h2.43c.29-.28,.38-.34,.69-.6,.4,.31,.52,.4,.9,.71,.12,.1,.15,.16,.15,.21,0,.1-.09,.14-.67,.33-1.14,1.65-2.05,2.5-3.69,3.36-1.21,.64-2.36,1.05-4,1.43l-.09-.28c2-.72,3.27-1.38,4.48-2.31-.14-.02-.17-.05-.28-.19-.41-.6-.91-1.1-1.33-1.34-1.12,.88-1.65,1.21-2.65,1.64l-.15-.24c1.07-.69,1.77-1.33,2.74-2.41,.57-.65,.88-1.07,1.22-1.67h-2.01c-.74,0-.86,0-1.46,.1l-.12-.67c.53,.12,.98,.17,1.58,.17h10.97c.45-.48,.59-.64,1.05-1.1,.65,.53,.84,.71,1.48,1.26,.03,.05,.07,.1,.07,.14,0,.07-.07,.1-.19,.1h-5.48v2.74Zm-.59-5.48c0-.09,.02-.12,.02-.14,0-.76-.04-1.14-.09-1.45,1.48,.16,1.91,.24,1.91,.4,0,.12-.14,.19-.72,.34q-.02,.65-.02,.84h2.65c.48-.52,.64-.67,1.1-1.14,.69,.55,.91,.72,1.62,1.29,.03,.05,.07,.1,.07,.14,0,.07-.07,.1-.17,.1h-5.27c0,.36,0,.52,.02,.98-.02,.21-.17,.24-.95,.24-.17,0-.21-.04-.21-.16,.02-.55,.03-.74,.03-1.07h-3.31v.21l-.02,.31c0,.1,.02,.22,.03,.45,0,.1-.02,.14-.07,.17-.07,.05-.45,.09-.93,.09-.1,0-.16-.04-.17-.14,.03-.58,.05-.77,.05-1.08h-3.29c-.72,0-.86,.02-1.38,.09l-.12-.62c.48,.1,.83,.14,1.5,.14h3.29c.02-.19,.02-.34,.02-.48,0-.46-.02-.65-.07-1.1,.36,.05,.67,.09,.86,.1,.83,.09,1.02,.14,1.02,.29,0,.12-.16,.19-.72,.34v.84h3.31Zm-4.31,9.89c.03-.34,.05-.55,.05-.84,0-.28-.02-.43-.07-.74,.36,.05,.64,.1,.83,.12,.74,.1,1.03,.19,1.03,.31s-.09,.16-.64,.34c-.05,.52-.05,.59-.09,.81h3.19c0-.86-.02-.88-.07-1.45,1.65,.16,1.79,.17,1.79,.33,0,.12-.03,.14-.6,.38v.74h2.64c.46-.53,.6-.69,1.07-1.15,.71,.53,.91,.71,1.58,1.29,.04,.05,.07,.1,.07,.14,0,.05-.09,.12-.16,.12h-5.22v1.05c0,.43,0,.53,.03,2.53,0,.09-.03,.12-.09,.16-.09,.05-.53,.1-.91,.1-.16,0-.21-.05-.21-.19,.05-1.15,.07-1.64,.07-2.52v-1.14h-3.24c-.22,1.17-.53,1.79-1.15,2.34-1.07,.95-2.53,1.48-4.65,1.71l-.07-.26c2.02-.5,3.03-.96,3.77-1.74,.5-.52,.79-1.12,.96-2.05h-3.14c-.64,0-.89,.02-1.34,.1l-.12-.62c.5,.1,.79,.12,1.46,.12h3.21Zm-1.14-5.38c-.33,.33-.5,.48-.84,.78,.33,.05,.64,.14,1.07,.29,.58,.22,.78,.38,.78,.67,0,.21-.05,.34-.14,.5,.84-.71,1.34-1.29,1.95-2.24h-2.81Z"/></g></g></g></g></svg>