<?xml version="1.0" encoding="UTF-8"?><svg xmlns="http://www.w3.org/2000/svg" viewBox="0 0 31.15 54.2"><defs><style>.d{fill:#fff;}.e{fill:#003a03;opacity:.9;}</style></defs><g id="a"/><g id="b"><g id="c"><g><rect class="e" width="31.15" height="54.2"/><g><path class="d" d="M11.44,16.17c.78,.19,1.64,.52,2.33,.91,.57,.33,.79,.67,.79,1.21,0,.43-.17,.83-.38,.83-.02,0-.14-.07-.19-.1-.1-.09-.12-.1-.43-.57-.54-.74-1.15-1.33-2.12-1.96v3.7q.02,3.15,.05,3.96c-.05,.22-.19,.29-.62,.29h-.22c-.26,0-.33-.04-.38-.17,0-.19,.02-1.52,.05-4v-3c-.84,.86-1.53,1.41-2.72,2.19l-.19-.26c1.12-.93,1.91-1.76,2.88-3.05s1.52-2.22,2.12-3.53h-3.46c-.38,0-.64,.02-1.22,.09l-.12-.64c.46,.1,.95,.16,1.34,.16h1.38v-1.81c0-.69-.02-.91-.14-1.5,.38,.03,.67,.07,.86,.09,.83,.07,1.05,.12,1.05,.29,0,.14-.14,.22-.65,.4v2.53h.96c.34-.4,.46-.5,.83-.86,.46,.38,.6,.5,1.02,.86,.16,.17,.19,.22,.19,.28,0,.14-.09,.17-.86,.34-.72,1.29-1.19,1.98-2.14,3.15v.17Zm3.58-.88c-.36,0-.69,.03-1.38,.12l-.14-.65c.71,.12,.96,.14,1.52,.14h2.45v-3.89c0-.9-.02-1.34-.12-2.15,.36,.05,.72,.09,.9,.1,.9,.09,1.1,.16,1.1,.31,0,.14-.19,.26-.69,.45v5.19h1.77l1-1.29c.72,.6,.95,.79,1.64,1.43,.03,.03,.07,.1,.07,.12,0,.07-.09,.14-.17,.14h-4.31v7.8h2.1c.47-.57,.62-.76,1.15-1.34,.71,.6,.91,.81,1.6,1.5,.05,.03,.09,.1,.09,.12,0,.07-.09,.12-.17,.12H14.42c-.71,0-1,.02-1.64,.12l-.16-.65c.6,.09,1.17,.14,1.79,.14h3.05v-7.8h-2.45Z"/><path class="d" d="M17.66,36.52c1.39-.67,2.31-1.26,3.13-2.05,1.24,.67,1.46,.81,1.46,.93,0,.1-.12,.16-.33,.16-.07,0-.4-.02-.62-.02-1.17,.57-2.33,.98-3.65,1.29v.98c0,.24,.03,.29,.21,.33,.12,.02,.95,.05,1.41,.05,.16,0,.41,0,.86-.02h.71c.65,0,.74-.02,.84-.19,.12-.19,.48-1.09,.78-1.91l.21,.02-.1,1.36v.4q0,.09,.31,.21c.24,.07,.36,.21,.36,.41,0,.57-.47,.66-3.67,.66-2.77,0-2.93-.05-2.96-.93v-4.41h-3.55c-.41,.64-.64,.93-1.05,1.38h2.43c.29-.28,.38-.34,.69-.6,.4,.31,.52,.4,.9,.71,.12,.1,.15,.16,.15,.21,0,.1-.09,.14-.67,.33-1.14,1.65-2.05,2.5-3.69,3.36-1.21,.64-2.36,1.05-4,1.43l-.09-.28c2-.72,3.27-1.38,4.48-2.31-.14-.02-.17-.05-.28-.19-.41-.6-.91-1.1-1.33-1.34-1.12,.88-1.65,1.21-2.65,1.64l-.15-.24c1.07-.69,1.77-1.33,2.74-2.41,.57-.65,.88-1.07,1.22-1.67h-2.01c-.74,0-.86,0-1.46,.1l-.12-.67c.53,.12,.98,.17,1.58,.17h10.97c.45-.48,.59-.64,1.05-1.1,.65,.53,.84,.71,1.48,1.26,.03,.05,.07,.1,.07,.14,0,.07-.07,.1-.19,.1h-5.48v2.74Zm-.59-5.48c0-.09,.02-.12,.02-.14,0-.76-.04-1.14-.09-1.45,1.48,.16,1.91,.24,1.91,.4,0,.12-.14,.19-.72,.34q-.02,.65-.02,.84h2.65c.48-.52,.64-.67,1.1-1.14,.69,.55,.91,.72,1.62,1.29,.03,.05,.07,.1,.07,.14,0,.07-.07,.1-.17,.1h-5.27c0,.36,0,.52,.02,.98-.02,.21-.17,.24-.95,.24-.17,0-.21-.04-.21-.16,.02-.55,.03-.74,.03-1.07h-3.31v.21l-.02,.31c0,.1,.02,.22,.03,.45,0,.1-.02,.14-.07,.17-.07,.05-.45,.09-.93,.09-.1,0-.16-.04-.17-.14,.03-.58,.05-.77,.05-1.08h-3.29c-.72,0-.86,.02-1.38,.09l-.12-.62c.48,.1,.83,.14,1.5,.14h3.29c.02-.19,.02-.34,.02-.48,0-.46-.02-.65-.07-1.1,.36,.05,.67,.09,.86,.1,.83,.09,1.02,.14,1.02,.29,0,.12-.16,.19-.72,.34v.84h3.31Zm-4.31,9.89c.03-.34,.05-.55,.05-.84,0-.28-.02-.43-.07-.74,.36,.05,.64,.1,.83,.12,.74,.1,1.03,.19,1.03,.31s-.09,.16-.64,.34c-.05,.52-.05,.59-.09,.81h3.19c0-.86-.02-.88-.07-1.45,1.65,.16,1.79,.17,1.79,.33,0,.12-.03,.14-.6,.38v.74h2.64c.46-.53,.6-.69,1.07-1.15,.71,.53,.91,.71,1.58,1.29,.04,.05,.07,.1,.07,.14,0,.05-.09,.12-.16,.12h-5.22v1.05c0,.43,0,.53,.03,2.53,0,.09-.03,.12-.09,.16-.09,.05-.53,.1-.91,.1-.16,0-.21-.05-.21-.19,.05-1.15,.07-1.64,.07-2.52v-1.14h-3.24c-.22,1.17-.53,1.79-1.15,2.34-1.07,.95-2.53,1.48-4.65,1.71l-.07-.26c2.02-.5,3.03-.96,3.77-1.74,.5-.52,.79-1.12,.96-2.05h-3.14c-.64,0-.89,.02-1.34,.1l-.12-.62c.5,.1,.79,.12,1.46,.12h3.21Zm-1.14-5.38c-.33,.33-.5,.48-.84,.78,.33,.05,.64,.14,1.07,.29,.58,.22,.78,.38,.78,.67,0,.21-.05,.34-.14,.5,.84-.71,1.34-1.29,1.95-2.24h-2.81Z"/></g></g></g></g></svg>