<?xml version="1.0" encoding="utf-8"?>
<!-- Generator: Adobe Illustrator 26.2.1, SVG Export Plug-In . SVG Version: 6.00 Build 0)  -->
<svg version="1.1" id="レイヤー_1" xmlns="http://www.w3.org/2000/svg" xmlns:xlink="http://www.w3.org/1999/xlink" x="0px"
	 y="0px" viewBox="0 0 180 38" style="enable-background:new 0 0 180 38;" xml:space="preserve">
<style type="text/css">
	.st0{fill:#FFFFFF;}
	.st1{fill:#323333;}
	.st2{fill:#090909;}
	.st3{fill:#323333;stroke:#323333;stroke-width:0.3133;stroke-linecap:round;stroke-linejoin:round;stroke-miterlimit:10;}
</style>
<g>
	<g>
		<g>
			<path class="st0" d="M162.4,11.2h11.1c2.7,0,4.8,2.1,4.8,4.6v14.7c0,2.6-2.2,4.6-4.8,4.6H6.4c-2.7,0-4.8-2.1-4.8-4.6V15.8
				c0-2.6,2.2-4.6,4.8-4.6h11.5"/>
			<path class="st1" d="M173.5,35.9H6.4c-3.1,0-5.6-2.4-5.6-5.4V15.8c0-3,2.5-5.4,5.6-5.4h11.5V12H6.4c-2.2,0-4,1.7-4,3.8v14.7
				c0,2.1,1.8,3.8,4,3.8h167.1c2.2,0,4-1.7,4-3.8V15.8c0-2.1-1.8-3.8-4-3.8h-11.1v-1.7h11.1c3.1,0,5.6,2.4,5.6,5.4v14.7
				C179.1,33.5,176.6,35.9,173.5,35.9z"/>
		</g>
		<g>
			<rect x="24.6" y="5.5" class="st0" width="132" height="10.2"/>
			<g>
				<g>
					<path class="st2" d="M29.2,13.1c0-0.8,0-2.7,0-5c2.8,0,5.7,0,7.1,0c2,0,2.9,0.7,2.9,1.8c0,1-1,1.4-2.7,1.4c-2,0-3.3,0-3.3,0
						v2.3c0,0,2.9,0,6.1,0c3.3,0,4.7-1.6,4.7-3.9c0-2.4-1.5-4-4.6-4c-2.9,0-6.8,0-10.3,0c0-1.9,0-3.3,0-3.3h-4.8c0,0,0,1.3,0,3.3
						c-1.8,0-3,0-3,0V8c0,0,1.2,0,3,0c0,1.7,0,3.8,0,5.9c0,6.5,6.9,6.3,6.9,6.3h12.1V18c0,0-8.8-0.2-9.6-0.2
						C31.7,17.9,29.2,16.2,29.2,13.1z"/>
					<path class="st2" d="M52.7,20.3c4.5,0,5.6-1,7-1.8c1.9-1.1,7-5.5,8.6-9.1h-5.2c-0.4,0.8-7,9.2-10.3,7.7c-1-0.5-1-0.9-1-3.4
						c0-2,0-10.8,0-10.8h-4.6c0,0,0,1.4,0,11.1C47.1,19.9,50.9,20.3,52.7,20.3z"/>
					<path class="st2" d="M92.3,5.4V3.1H70.6v2.3H77c0,0.7,0,2,0,3.7h-6.4v2.1H77c0,0.9,0,1.5,0,2.6c0,5.2,2.6,5.9,7,5.9
						c2.6,0,7.4,0,7.4,0v-2.3c0,0-3.3-0.1-4.6-0.1c-3.3,0-5.6-0.7-5.6-3.2c0-0.6,0-1.5,0-3h11.1v-2h-11c0-1.5,0-2.9,0-3.7
						C81.3,5.4,92.3,5.4,92.3,5.4z"/>
					<path class="st2" d="M105.4,13.7c0,4.9-3.1,6.1-6.5,6.1c-1.2,0-4.6,0-4.6,0v-2.3c0,0,1.6,0,3.8,0c1.8,0,2.9-1.6,2.9-3.9
						c0-1.6,0-4.1,0-4.1s4.5,0,8.1,0c2,0,2.7-0.9,2.7-2c0-1.7-1.5-2.2-2.7-2.2c-2.3,0-14.8,0-14.8,0V2.9c0,0,8.4,0,16.2,0
						c7.9,0,7.8,8.8,1.3,8.8c-2.4,0-6.4,0-6.4,0S105.4,12.7,105.4,13.7z"/>
					<g>
						<path class="st2" d="M117.6,11.7h8.7v9.9h-3v-0.7h-2.6v0.8h-3L117.6,11.7L117.6,11.7z M134.6,10.5h-15V2.9h15V10.5z M120.6,18
							h2.6v-3.6h-2.6V18z M131.5,5.5h-8.8v2.4h8.8V5.5z M127.5,11.7h9v10h-3v-0.8h-3v0.8h-3V11.7z M130.6,18h3v-3.6h-3V18z"/>
						<path class="st2" d="M149,9.4l-1.3-1.1c0.6-0.5,1.4-1.2,1.4-3.1V2.7c2.7,0,5.5-0.1,8.1-0.7l1.2,2.2c-1.9,0.4-5.4,0.5-6.5,0.5
							v0.6h6.7v2H156v2h0.7v8.9h-4c1.2,0.4,3.4,0.9,6.1,0.8l-1.3,2.6c-2.8-0.2-5.7-1.1-7.3-1.9l1.6-1.5h-6.9l1.5,1.5
							c-2.3,1-4.2,1.6-7,1.9l-1.3-2.6c2.7,0,4.6-0.4,5.6-0.8h-3.5v-7.6l-2-2c0.7-0.6,1.5-1.4,1.5-3.3V2.7c4.4,0,6.5-0.4,7.7-0.7
							l1.2,2.2c-1.1,0.2-2.5,0.4-6.1,0.5v0.6h5.9v2h-2v2h2.6V9.4z M143.4,9.4v-2h-1.2c-0.1,0.5-0.2,1.1-0.7,2H143.4z M153.5,11.2
							h-10.3V12h10.3V11.2z M153.5,13.4h-10.3v0.8h10.3V13.4z M153.5,15.7h-10.3v0.8h10.3V15.7z M153,9.4v-2h-1.5
							c-0.2,0.7-0.4,1.3-0.9,2H153z"/>
					</g>
				</g>
				<g>
					<path class="st0" d="M31.1,22.7c-0.8,0-4.3-0.2-6.8-2.6c-1.6-1.5-2.4-3.7-2.4-6.2v-3.4h-0.5c-1.4,0-2.5-1.1-2.5-2.5V5.7
						c0-1.4,1.1-2.5,2.5-2.5h0.5V2.4c0-1.4,1.1-2.5,2.5-2.5h4.8c1.4,0,2.5,1.1,2.5,2.5v0.8h7.8c4.3,0,7.1,2.5,7.1,6.5
						c0,2.3-1.1,4.8-3.9,5.8c0.4,0,0.7,0,0.8,0c1.3,0,2.4,1.1,2.4,2.5v2.2c0,1.4-1.1,2.5-2.5,2.5H31.2
						C31.2,22.7,31.1,22.7,31.1,22.7z M26.8,13.5v0.4c0,1,0.2,1.8,0.7,2.4C27,15.4,26.8,14.5,26.8,13.5z M26.5,6.9
						c0.2,0.3,0.3,0.7,0.3,1.1c0-0.3,0.1-0.6,0.3-0.9c-0.1-0.2-0.3-0.5-0.3-0.8C26.7,6.4,26.6,6.7,26.5,6.9z"/>
					<path class="st0" d="M52.7,22.8c-2.4,0-4.4-0.7-5.7-2.1c-1.5-1.5-2.3-3.8-2.2-6.7l0-11.1c0-1.4,1.1-2.5,2.5-2.5h4.6
						c1.4,0,2.5,1.1,2.5,2.5v10.8c0,0.3,0,0.6,0,0.9c1.5-0.8,4.9-3.5,6.7-6.4c0.4-0.8,1.3-1.3,2.2-1.3h5.2c0.8,0,1.6,0.4,2.1,1.1
						c0.5,0.7,0.5,1.6,0.2,2.3c-2,4.4-7.7,9.1-9.6,10.2c-0.2,0.1-0.3,0.2-0.4,0.3C58.8,21.9,57,22.8,52.7,22.8z"/>
					<path class="st0" d="M91.4,22.2H84c-3.1,0-9.5,0-9.5-8.4v-0.1h-3.9c-1.4,0-2.5-1.1-2.5-2.5V9.1c0-0.7,0.3-1.4,0.8-1.9
						c-0.5-0.5-0.8-1.1-0.8-1.9V3.1c0-1.4,1.1-2.5,2.5-2.5h21.7c1.4,0,2.5,1.1,2.5,2.5v2.3c0,0.7-0.3,1.4-0.8,1.9
						c0.5,0.5,0.8,1.1,0.8,1.9v2c0,1.4-1.1,2.5-2.5,2.5h-8.6v0.5c0,0.1,0,0.2,0,0.2l0,0c0,0,0.5,0.5,3.1,0.5c1.3,0,4.5,0.1,4.7,0.1
						c1.3,0,2.4,1.1,2.4,2.5v2.3C93.9,21.1,92.8,22.2,91.4,22.2z"/>
					<path class="st0" d="M98.9,22.3h-4.6c-1.4,0-2.5-1.1-2.5-2.5v-2.3c0-1.4,1.1-2.5,2.5-2.5h3.8c0.1,0,0.4-0.4,0.4-1.4V9.5
						c0-0.7,0.3-1.3,0.7-1.7h-5c-1.4,0-2.5-1.1-2.5-2.5V2.9c0-1.4,1.1-2.5,2.5-2.5h16.2c3.2,0,5.1,1.1,6.2,2.1
						c1.5,1.3,2.3,3.1,2.3,5c0,3.2-2.5,6.6-7.2,6.6h-4C107.7,19.3,104.4,22.3,98.9,22.3z"/>
					<g>
						<path class="st0" d="M136.5,24.2h-3c-0.6,0-1.1-0.2-1.5-0.5c-0.4,0.3-0.9,0.5-1.5,0.5h-3c-0.3,0-0.5,0-0.8-0.1
							c-0.1,0-0.3,0-0.4,0h-3c-0.4,0-0.9-0.1-1.2-0.3c-0.4,0.3-0.9,0.4-1.4,0.4h-3c-1.4,0-2.5-1.1-2.5-2.5v-9.3
							c-0.1-0.2-0.1-0.5-0.1-0.7c0-1.2,0.9-2.2,2-2.4V2.9c0-1.4,1.1-2.5,2.5-2.5h15c1.4,0,2.5,1.1,2.5,2.5v6.4
							c1.1,0.3,1.9,1.2,1.9,2.4v10C139,23.1,137.9,24.2,136.5,24.2z"/>
						<path class="st0" d="M139.4,24.1c-0.9,0-1.8-0.5-2.2-1.4l-1.3-2.6c-0.4-0.8-0.3-1.7,0.1-2.4c0.4-0.6,1-1,1.7-1.1v-5l-1.3-1.3
							c-0.5-0.5-0.7-1.1-0.7-1.8s0.3-1.3,0.9-1.8c0.4-0.4,0.6-0.6,0.6-1.4V2.7c0-1.4,1.1-2.5,2.5-2.5c4.1,0,6-0.4,7.1-0.6
							c0.8-0.2,1.7,0,2.3,0.6c2.4,0,5.1-0.1,7.5-0.6c1.1-0.3,2.2,0.2,2.7,1.2l1.2,2.2c0.2,0.4,0.3,0.9,0.3,1.3
							c0.1,0.3,0.2,0.6,0.2,1v2c0,1.2-0.8,2.1-1.9,2.4v6.9c0.7,0.1,1.3,0.5,1.7,1.1c0.5,0.7,0.5,1.7,0.1,2.4l-1.3,2.6
							c-0.4,0.9-1.4,1.4-2.4,1.4c-3.2-0.2-6.4-1.2-8.2-2.2c-0.3-0.2-0.6-0.4-0.8-0.6c-0.2,0.3-0.6,0.5-0.9,0.7
							c-2.4,1-4.5,1.7-7.7,2.1C139.6,24,139.5,24.1,139.4,24.1z"/>
					</g>
				</g>
				<g>
					<path class="st1" d="M29.2,13.1c0-0.8,0-2.7,0-5c2.8,0,5.7,0,7.1,0c2,0,2.9,0.7,2.9,1.8c0,1-1,1.4-2.7,1.4c-2,0-3.3,0-3.3,0
						v2.3c0,0,2.9,0,6.1,0c3.3,0,4.7-1.6,4.7-3.9c0-2.4-1.5-4-4.6-4c-2.9,0-6.8,0-10.3,0c0-1.9,0-3.3,0-3.3h-4.8c0,0,0,1.3,0,3.3
						c-1.8,0-3,0-3,0V8c0,0,1.2,0,3,0c0,1.7,0,3.8,0,5.9c0,6.5,6.9,6.3,6.9,6.3h12.1V18c0,0-8.8-0.2-9.6-0.2
						C31.7,17.9,29.2,16.2,29.2,13.1z"/>
					<path class="st1" d="M52.7,20.3c4.5,0,5.6-1,7-1.8c1.9-1.1,7-5.5,8.6-9.1h-5.2c-0.4,0.8-7,9.2-10.3,7.7c-1-0.5-1-0.9-1-3.4
						c0-2,0-10.8,0-10.8h-4.6c0,0,0,1.4,0,11.1C47.1,19.9,50.9,20.3,52.7,20.3z"/>
					<path class="st1" d="M92.3,5.4V3.1H70.6v2.3H77c0,0.7,0,2,0,3.7h-6.4v2.1H77c0,0.9,0,1.5,0,2.6c0,5.2,2.6,5.9,7,5.9
						c2.6,0,7.4,0,7.4,0v-2.3c0,0-3.3-0.1-4.6-0.1c-3.3,0-5.6-0.7-5.6-3.2c0-0.6,0-1.5,0-3h11.1v-2h-11c0-1.5,0-2.9,0-3.7
						C81.3,5.4,92.3,5.4,92.3,5.4z"/>
					<path class="st1" d="M105.4,13.7c0,4.9-3.1,6.1-6.5,6.1c-1.2,0-4.6,0-4.6,0v-2.3c0,0,1.6,0,3.8,0c1.8,0,2.9-1.6,2.9-3.9
						c0-1.6,0-4.1,0-4.1s4.5,0,8.1,0c2,0,2.7-0.9,2.7-2c0-1.7-1.5-2.2-2.7-2.2c-2.3,0-14.8,0-14.8,0V2.9c0,0,8.4,0,16.2,0
						c7.9,0,7.8,8.8,1.3,8.8c-2.4,0-6.4,0-6.4,0S105.4,12.7,105.4,13.7z"/>
					<g>
						<path class="st1" d="M117.6,11.7h8.7v9.9h-3v-0.7h-2.6v0.8h-3L117.6,11.7L117.6,11.7z M134.6,10.5h-15V2.9h15V10.5z M120.6,18
							h2.6v-3.6h-2.6V18z M131.5,5.5h-8.8v2.4h8.8V5.5z M127.5,11.7h9v10h-3v-0.8h-3v0.8h-3V11.7z M130.6,18h3v-3.6h-3V18z"/>
						<path class="st1" d="M149,9.4l-1.3-1.1c0.6-0.5,1.4-1.2,1.4-3.1V2.7c2.7,0,5.5-0.1,8.1-0.7l1.2,2.2c-1.9,0.4-5.4,0.5-6.5,0.5
							v0.6h6.7v2H156v2h0.7v8.9h-4c1.2,0.4,3.4,0.9,6.1,0.8l-1.3,2.6c-2.8-0.2-5.7-1.1-7.3-1.9l1.6-1.5h-6.9l1.5,1.5
							c-2.3,1-4.2,1.6-7,1.9l-1.3-2.6c2.7,0,4.6-0.4,5.6-0.8h-3.5v-7.6l-2-2c0.7-0.6,1.5-1.4,1.5-3.3V2.7c4.4,0,6.5-0.4,7.7-0.7
							l1.2,2.2c-1.1,0.2-2.5,0.4-6.1,0.5v0.6h5.9v2h-2v2h2.6V9.4z M143.4,9.4v-2h-1.2c-0.1,0.5-0.2,1.1-0.7,2H143.4z M153.5,11.2
							h-10.3V12h10.3V11.2z M153.5,13.4h-10.3v0.8h10.3V13.4z M153.5,15.7h-10.3v0.8h10.3V15.7z M153,9.4v-2h-1.5
							c-0.2,0.7-0.4,1.3-0.9,2H153z"/>
					</g>
				</g>
			</g>
			<path class="st3" d="M162.4,21.6h0.8v-1.7h1.1c0.7,0,0.9,0.3,0.9,1.1c0,0.2,0,0.4,0.1,0.6h0.8c-0.2-0.2-0.2-0.6-0.2-1.1
				c0-0.7-0.4-0.9-0.7-0.9l0,0c0.1,0,0.7-0.3,0.7-1.1c0-0.7-0.5-1.1-1.5-1.1h-2.1L162.4,21.6 M163.2,18h1.3c0.4,0,0.8,0.1,0.8,0.6
				c0,0.4-0.3,0.7-0.8,0.7h-1.3V18"/>
			<g>
				<path class="st1" d="M167.8,19.5c0,2-1.7,3.6-3.7,3.6c-2.1,0-3.7-1.6-3.7-3.6s1.7-3.6,3.7-3.6C166.2,16,167.8,17.5,167.8,19.5
					 M164.1,16.5c-1.8,0-3.2,1.4-3.2,3c0,1.7,1.4,3,3.2,3s3.2-1.4,3.2-3C167.3,17.8,165.8,16.5,164.1,16.5z"/>
				<path class="st1" d="M164.1,23.3c-2.2,0-3.9-1.6-3.9-3.8c0-2.1,1.7-3.8,3.9-3.8c2.2,0.1,3.9,1.7,3.9,3.8
					C168,21.6,166.2,23.3,164.1,23.3z M164.1,16.1c-1.9,0-3.5,1.5-3.5,3.4c0,1.9,1.6,3.4,3.5,3.4c2,0,3.5-1.5,3.5-3.4
					C167.6,17.6,166.1,16.2,164.1,16.1z M164.1,22.7c-1.9,0-3.4-1.4-3.4-3.2c0-1.7,1.5-3.2,3.4-3.2s3.4,1.4,3.4,3.2
					C167.5,21.2,166,22.7,164.1,22.7z M164.1,16.7c-1.7,0-3,1.3-3,2.8c0,1.6,1.3,2.8,3,2.8c1.7,0,3-1.3,3-2.8
					C167.1,17.9,165.8,16.7,164.1,16.7z"/>
			</g>
		</g>
		<g>
			<g>
				<path class="st1" d="M38.8,26.9h-0.5c-0.3-1.6-2-1.7-2.3-1.7c-1.7,0-2.6,1.5-2.6,3.3c0,2,0.9,3.3,2.7,3.3c0.9,0,2-0.4,2.3-1.8
					h0.5l-0.2,1.5c-0.2,0.1-1,0.4-1.1,0.4c-0.3,0.1-0.9,0.3-1.7,0.3c-2.4,0-4-1.5-4-3.7c0-2,1.3-3.8,3.9-3.8c0.9,0,1.3,0.1,2.2,0.5
					c0.3,0.1,0.5,0.1,0.6,0.2L38.8,26.9z"/>
				<path class="st1" d="M35.9,32.3c-2.4,0-4.1-1.5-4.1-3.8c0-1.9,1.2-3.9,4-3.9c0.9,0,1.3,0.1,2.2,0.5c0.1,0,0.2,0.1,0.3,0.1
					c0.1,0,0.3,0.1,0.3,0.1l0,0l0,0l0.2,1.6h-0.6l0,0c-0.3-1.6-2-1.7-2.2-1.7c-1.8,0-2.5,1.6-2.5,3.2c0,2.1,1,3.2,2.6,3.2
					c0.6,0,1.9-0.2,2.2-1.8l0,0H39l-0.2,1.6l0,0c-0.2,0.1-1,0.4-1.1,0.4C37.3,32.1,36.7,32.3,35.9,32.3z M35.8,24.8
					c-2.7,0-3.8,1.9-3.8,3.7c0,2.2,1.6,3.6,3.9,3.6c0.8,0,1.4-0.2,1.7-0.3l0,0c0.1,0,0.8-0.3,1-0.4l0.2-1.4h-0.4
					c-0.4,1.6-1.8,1.8-2.3,1.8c-1.8,0-2.8-1.2-2.8-3.4c0-1.7,0.8-3.4,2.7-3.4c0.2,0,2,0,2.3,1.7h0.4l-0.2-1.4
					c-0.1,0-0.1-0.1-0.3-0.1c-0.1,0-0.2,0-0.3-0.1C37.1,24.8,36.7,24.8,35.8,24.8z"/>
			</g>
			<g>
				<path class="st1" d="M42.9,28c0.7,0,1-0.1,1-0.9h0.5v2.4h-0.5c0-0.8-0.4-0.9-1-0.9h-0.8v3.1h1.4c0.9,0,1.5-0.4,1.7-1.4h0.5
					l-0.3,1.9h-5.6v-0.4h0.4c0.5,0,0.6-0.3,0.6-0.6v-5.3c0-0.3,0-0.6-0.6-0.6h-0.4v-0.4h5.4l0.3,1.7H45c-0.1-0.8-0.6-1.2-1.4-1.2
					h-1.4V28H42.9z"/>
				<path class="st1" d="M45.5,32.3h-5.7v-0.5h0.5c0.4,0,0.5-0.2,0.5-0.5v-5.3c0-0.3,0-0.5-0.5-0.5h-0.5v-0.5h5.5l0,0l0.3,1.8h-0.6
					l0-0.1c-0.1-0.8-0.6-1.1-1.3-1.1h-1.3v2.5h0.6c0.7,0,0.9-0.1,0.9-0.8V27h0.6v2.5h-0.6v-0.1c0-0.7-0.3-0.8-0.9-0.8h-0.7v3h1.3
					c0.9,0,1.5-0.4,1.6-1.4l0,0h0.6L45.5,32.3z M39.9,32.1h5.5l0.3-1.8h-0.4c-0.2,0.9-0.8,1.4-1.7,1.4H42v-3.2h0.9
					c0.5,0,1,0.1,1.1,0.9h0.4v-2.3H44c0,0.8-0.3,0.9-1.1,0.9h-0.8v-2.7h1.5c0.8,0,1.3,0.4,1.5,1.2h0.4L45.1,25h-5.3v0.3h0.3
					c0.7,0,0.7,0.4,0.7,0.7v5.3c0,0.4-0.2,0.7-0.7,0.7h-0.3V32.1z"/>
			</g>
			<g>
				<path class="st1" d="M52.4,31.1c0.4,0.5,0.9,0.5,1.1,0.5v0.5h-2.1l-2.6-3.6h-0.2v2.6c0,0.3,0,0.6,0.6,0.6h0.3v0.4h-3.2v-0.4h0.4
					c0.5,0,0.6-0.3,0.6-0.6v-5.3c0-0.3,0-0.6-0.6-0.6h-0.4v-0.4H50c2,0,2.4,1.1,2.4,1.8c0,0.6-0.4,1.6-1.9,1.8L52.4,31.1z
					 M49.5,28.1c1.2,0,1.4-0.8,1.4-1.3c0-0.9-0.5-1.3-1.4-1.3h-0.8v2.7h0.8V28.1z"/>
				<path class="st1" d="M53.6,32.2h-2.2l0,0l-2.6-3.6h-0.1v2.5c0,0.3,0,0.5,0.5,0.5h0.4v0.5h-3.3v-0.5h0.5c0.4,0,0.5-0.2,0.5-0.5
					v-5.3c0-0.3,0-0.5-0.5-0.5h-0.5v-0.5H50c2.3,0,2.5,1.4,2.5,1.9c0,0.2-0.1,1.6-1.9,1.8l1.8,2.6c0.4,0.5,0.9,0.5,1.1,0.5h0.1V32.2
					z M51.4,32h2v-0.4c-0.2,0-0.7,0-1.1-0.5l0,0l-2-2.8l0.1,0c1.4-0.2,1.8-1.1,1.8-1.7c0-0.5-0.2-1.7-2.3-1.7h-3.6v0.3h0.3
					c0.7,0,0.7,0.4,0.7,0.7v5.3c0,0.4-0.2,0.7-0.7,0.7h-0.3V32h3.1v-0.3h-0.2c-0.7,0-0.7-0.4-0.7-0.7v-2.7h0.3l0,0L51.4,32z
					 M49.6,28.3h-0.9v-2.8h0.9c1,0,1.5,0.5,1.5,1.4c0,0.4-0.1,1.3-1.4,1.4V28.3z M48.8,28.1h0.7V28h0.1c1.2,0,1.3-0.8,1.3-1.2
					c0-0.8-0.4-1.2-1.3-1.2h-0.7V28.1z"/>
			</g>
			<g>
				<path class="st1" d="M57.2,28c0.7,0,1-0.1,1-0.9h0.5v2.4h-0.5c0-0.8-0.4-0.9-1-0.9h-0.8v3.1h1.4c0.9,0,1.5-0.4,1.7-1.4H60
					l-0.3,1.9h-5.6v-0.4h0.4c0.5,0,0.6-0.3,0.6-0.6v-5.3c0-0.3,0-0.6-0.6-0.6h-0.4v-0.4h5.4l0.3,1.7h-0.5c-0.1-0.8-0.6-1.2-1.4-1.2
					h-1.4V28H57.2z"/>
				<path class="st1" d="M59.8,32.3H54v-0.5h0.5c0.4,0,0.5-0.2,0.5-0.5v-5.3c0-0.3,0-0.5-0.5-0.5H54v-0.5h5.5l0,0l0.3,1.8h-0.6
					l0-0.1c-0.1-0.8-0.6-1.1-1.3-1.1h-1.3v2.5h0.6c0.7,0,0.9-0.1,0.9-0.8V27h0.6v2.5h-0.6v-0.1c0-0.7-0.3-0.8-0.9-0.8h-0.7v3h1.3
					c0.9,0,1.5-0.4,1.6-1.4l0,0h0.6L59.8,32.3z M54.2,32.1h5.5l0.3-1.8h-0.4c-0.2,0.9-0.8,1.4-1.7,1.4h-1.5v-3.2h0.9
					c0.5,0,1,0.1,1.1,0.9h0.4v-2.3h-0.4c0,0.8-0.3,0.9-1.1,0.9h-0.8v-2.7h1.5c0.8,0,1.3,0.4,1.5,1.2h0.4L59.4,25h-5.3v0.3h0.3
					c0.7,0,0.7,0.4,0.7,0.7v5.3c0,0.4-0.2,0.7-0.7,0.7h-0.3V32.1z"/>
			</g>
			<g>
				<path class="st1" d="M63.1,24.9l2.3,5.3l2.1-5.3h2.3v0.4h-0.4c-0.2,0-0.5,0-0.5,0.6l0.3,5.3c0,0.4,0.1,0.6,0.6,0.6h0.4v0.4H67
					v-0.4h0.2c0.3,0,0.6-0.1,0.6-0.6l-0.3-4.9l-2.3,5.9h-0.5l-2.5-5.8L62,31.2c0,0.5,0.2,0.6,0.6,0.6H63v0.4h-2.4v-0.4H61
					c0.5,0,0.5-0.2,0.6-0.6l0.3-5.3c0-0.5-0.2-0.6-0.5-0.6H61v-0.4C61,24.9,63.1,24.9,63.1,24.9z"/>
				<path class="st1" d="M70.3,32.3h-3.3v-0.5h0.3c0.4,0,0.5-0.2,0.5-0.5l-0.3-4.6l-2.2,5.7h-0.6l-2.4-5.6l-0.2,4.5
					c0,0.5,0.2,0.5,0.5,0.5h0.5v0.5h-2.5v-0.5H61c0.4,0,0.4-0.1,0.5-0.5l0-0.1l0.3-5.3c0-0.4-0.2-0.5-0.4-0.5h-0.5v-0.5h2.2l2.3,5.2
					l2.1-5.2h2.4v0.5h-0.5c-0.2,0-0.4,0-0.4,0.5l0.3,5.3c0,0.4,0.1,0.5,0.5,0.5h0.5V32.3z M67.1,32.1h3.1v-0.3h-0.3
					c-0.6,0-0.7-0.2-0.7-0.7l-0.3-5.3c0-0.7,0.4-0.7,0.6-0.7h0.3V25h-2.2l-2.1,5.4L63.1,25h-2v0.3h0.3c0.3,0,0.6,0.1,0.6,0.7
					l-0.3,5.3l0,0.1c-0.1,0.3-0.1,0.5-0.6,0.5h-0.3v0.3h2.3v-0.3h-0.3c-0.4,0-0.7-0.1-0.7-0.7l0.2-5.1l2.6,6h0.4l2.4-6.1l0.3,5.2
					c0,0.4-0.2,0.7-0.7,0.7h-0.1V32.1z"/>
			</g>
			<g>
				<path class="st1" d="M78.8,28.5c0,2.3-1.8,3.8-4,3.8s-4-1.5-4-3.8s1.7-3.8,4-3.8C77.1,24.8,78.8,26.3,78.8,28.5z M72.3,28.5
					c0,2.2,1.1,3.4,2.5,3.4c1.2,0,2.4-0.9,2.4-3.2c0-1.8-0.8-3.4-2.6-3.4C73.8,25.3,72.3,25.9,72.3,28.5z"/>
				<path class="st1" d="M74.8,32.4c-2.4,0-4.1-1.6-4.1-3.9c0-2.3,1.7-3.9,4.1-3.9c2.4,0.1,4.1,1.7,4.1,3.9
					C78.9,30.7,77.2,32.4,74.8,32.4z M74.8,24.8c-2.3,0-3.9,1.5-3.9,3.7c0,2.2,1.7,3.7,3.9,3.7s3.9-1.6,3.9-3.7
					C78.7,26.4,77.1,24.9,74.8,24.8z M74.8,32c-1.6,0-2.6-1.4-2.6-3.5c0-1.2,0.3-2,0.9-2.6c0.6-0.6,1.3-0.6,1.5-0.6
					c1.3,0,2.7,0.9,2.7,3.5C77.3,31.1,76,32,74.8,32z M74.6,25.4c-0.8,0-2.2,0.7-2.2,3.1c0,2,1,3.3,2.4,3.3c1.1,0,2.3-0.8,2.3-3.1
					C77.1,26.2,75.8,25.4,74.6,25.4z"/>
			</g>
			<g>
				<path class="st1" d="M85.8,31.1c0.4,0.5,0.9,0.5,1.1,0.5v0.5h-2.1l-2.6-3.6H82v2.6c0,0.3,0,0.6,0.6,0.6h0.3v0.4h-3.2v-0.4H80
					c0.5,0,0.6-0.3,0.6-0.6v-5.3c0-0.3,0-0.6-0.6-0.6h-0.4v-0.4h3.6c2,0,2.4,1.1,2.4,1.8c0,0.6-0.4,1.6-1.9,1.8L85.8,31.1z
					 M82.9,28.1c1.2,0,1.4-0.8,1.4-1.3c0-0.9-0.5-1.3-1.4-1.3H82v2.7h0.9V28.1z"/>
				<path class="st1" d="M87,32.2h-2.2l0,0l-2.6-3.6h-0.1v2.5c0,0.3,0,0.5,0.5,0.5H83v0.5h-3.3v-0.5H80c0.4,0,0.5-0.2,0.5-0.5v-5.3
					c0-0.3,0-0.5-0.5-0.5h-0.5v-0.5h3.7c2.3,0,2.5,1.4,2.5,1.9c0,0.2-0.1,1.6-1.8,1.8l2,2.6c0.4,0.5,0.9,0.5,1.1,0.5H87V32.2z
					 M84.8,32h2v-0.4c-0.2,0-0.7,0-1.1-0.5l0,0l-2.2-2.8l0.1,0c1.4-0.2,1.8-1.1,1.8-1.7c0-0.5-0.2-1.7-2.3-1.7h-3.5v0.3H80
					c0.7,0,0.7,0.4,0.7,0.7v5.3c0,0.4-0.2,0.7-0.7,0.7h-0.2V32h3.1v-0.3h-0.2c-0.7,0-0.7-0.4-0.7-0.7v-2.7h0.3l0,0L84.8,32z
					 M83,28.3h-1v-2.8h1c1,0,1.5,0.5,1.5,1.4c0,0.4-0.1,1.3-1.4,1.4V28.3z M82.1,28.1h0.8V28h0.1c1.2,0,1.3-0.8,1.3-1.2
					c0-0.8-0.4-1.2-1.3-1.2h-0.8V28.1z"/>
			</g>
			<g>
				<path class="st1" d="M90.6,28c0.7,0,1-0.1,1-0.9h0.5v2.4h-0.5c0-0.8-0.4-0.9-1-0.9h-0.8v3.1h1.4c0.9,0,1.5-0.4,1.7-1.4h0.5
					l-0.3,1.9h-5.6v-0.4h0.4c0.5,0,0.6-0.3,0.6-0.6v-5.3c0-0.3,0-0.6-0.6-0.6h-0.4v-0.4h5.4l0.3,1.7h-0.5c-0.1-0.8-0.6-1.2-1.4-1.2
					h-1.4V28H90.6z"/>
				<path class="st1" d="M93.2,32.3h-5.7v-0.5h0.5c0.4,0,0.5-0.2,0.5-0.5v-5.3c0-0.3,0-0.5-0.5-0.5h-0.5v-0.5H93l0.3,1.8h-0.6l0-0.1
					c-0.1-0.8-0.6-1.1-1.3-1.1H90v2.5h0.6c0.7,0,0.9-0.1,0.9-0.8V27h0.6v2.5h-0.6v-0.1c0-0.7-0.3-0.8-0.9-0.8h-0.7v3h1.3
					c0.9,0,1.5-0.4,1.6-1.4l0,0h0.6l0,0.1L93.2,32.3z M87.6,32.1H93l0.3-1.8H93c-0.2,0.9-0.8,1.4-1.8,1.4h-1.5v-3.2h0.9
					c0.5,0,1,0.1,1.1,0.9H92v-2.3h-0.4c0,0.8-0.3,0.9-1.1,0.9h-0.8v-2.7h1.5c0.8,0,1.3,0.4,1.5,1.2h0.4L92.8,25h-5.3v0.3h0.3
					c0.7,0,0.7,0.4,0.7,0.7v5.3c0,0.4-0.2,0.7-0.7,0.7h-0.3V32.1z"/>
			</g>
			<g>
				<path class="st1" d="M106.1,33.6c-0.4,0.1-0.8,0.2-1.2,0.2c-1.4,0-1.8-0.6-2.5-1.6c-0.2,0-0.5,0.1-0.9,0.1c-2.2,0-4-1.5-4-3.8
					s1.8-3.8,4-3.8s4,1.5,4,3.8c0,1.7-1,2.8-1.8,3.2c0.9,1.1,1.2,1.4,2,1.4c0.2,0,0.3,0,0.5,0L106.1,33.6L106.1,33.6z M104,28.6
					c0-2.1-1-3.4-2.5-3.4c-1.2,0-2.4,0.9-2.4,3.2c0,0.6,0.1,2.2,1.2,3c0.1-0.5,0.6-0.9,1.3-0.9c0.7,0,1.2,0.4,1.5,0.7
					C103.8,30.5,104,29.6,104,28.6z M101.5,31.8c0.2,0,0.4,0,0.5,0c-0.3-0.4-0.5-0.6-0.8-0.6s-0.4,0.3-0.4,0.4s0,0.1,0,0.1
					C100.9,31.8,101.1,31.8,101.5,31.8z"/>
				<path class="st1" d="M104.9,33.9c-1.4,0-1.8-0.6-2.5-1.6l0,0c-0.1,0-0.2,0-0.3,0c-0.2,0-0.4,0.1-0.6,0.1c-2.4,0-4.1-1.6-4.1-3.9
					s1.7-3.9,4.1-3.9s4.1,1.6,4.1,3.9c0,1.6-0.9,2.7-1.8,3.2c0.9,1.1,1.2,1.3,1.9,1.3h0.6v0.6h-0.2
					C105.7,33.8,105.3,33.9,104.9,33.9z M102.4,32.1L102.4,32.1L102.4,32.1c0.8,1.1,1.1,1.6,2.5,1.6c0.4,0,0.8-0.1,1.2-0.2l0,0h0
					v-0.4h-0.4c-0.8,0-1.2-0.3-2-1.4l0-0.1l0.1,0c0.9-0.4,1.8-1.6,1.8-3.1c0-2.2-1.7-3.7-3.9-3.7s-3.9,1.6-3.9,3.7s1.7,3.7,3.9,3.7
					c0.2,0,0.4,0,0.6-0.1C102.2,32.2,102.3,32.1,102.4,32.1z M102.1,31.9h-0.6c-0.4,0-0.6,0-0.7-0.1l0,0v-0.1c0-0.1,0.1-0.5,0.5-0.5
					C101.5,31.1,101.7,31.3,102.1,31.9L102.1,31.9z M100.9,31.7c0.1,0.1,0.3,0.1,0.6,0.1h0.4c-0.3-0.3-0.4-0.5-0.7-0.5
					C100.9,31.3,100.9,31.5,100.9,31.7L100.9,31.7z M100.3,31.5L100.3,31.5C99.2,30.6,99,29,99,28.4c0-2.4,1.3-3.3,2.5-3.3
					c1.6,0,2.6,1.4,2.6,3.5c0,1.2-0.3,2-0.9,2.6l0,0l0,0c-0.5-0.5-0.9-0.7-1.5-0.7C101,30.6,100.5,30.9,100.3,31.5L100.3,31.5z
					 M101.5,25.3c-1.1,0-2.3,0.8-2.3,3.1c0,0.6,0.1,2.1,1.1,2.9c0.2-0.5,0.7-0.9,1.3-0.9c0.5,0,1,0.2,1.5,0.7
					c0.6-0.6,0.8-1.4,0.8-2.5C103.9,26.6,103,25.3,101.5,25.3z"/>
			</g>
			<g>
				<path class="st1" d="M109.6,24.9v0.4h-0.4c-0.5,0-0.6,0.3-0.6,0.6v3.9c0,0.4,0,2,1.9,2c1.5,0,2.2-0.8,2.2-2v-3.9
					c0-0.3,0-0.6-0.6-0.6h-0.4v-0.4h2.4v0.4h-0.4c-0.5,0-0.6,0.3-0.6,0.6v4c0,2.3-2.2,2.4-3,2.4c-1.4,0-3.1-0.5-3.1-2.5v-4
					c0-0.3,0-0.6-0.6-0.6H106v-0.4h3.6V24.9z"/>
				<path class="st1" d="M110.1,32.4c-1,0-3.2-0.2-3.2-2.6v-4c0-0.3,0-0.5-0.5-0.5h-0.5v-0.5h3.7v0.6h-0.5c-0.4,0-0.5,0.2-0.5,0.5
					v3.9c0,1.3,0.6,1.9,1.8,1.9c1.4,0,2.1-0.7,2.1-1.9v-3.9c0-0.3,0-0.5-0.5-0.5h-0.5v-0.5h2.5v0.5h-0.5c-0.4,0-0.5,0.2-0.5,0.5v4
					C113.2,31,112.6,32.4,110.1,32.4z M106.1,25.1h0.3c0.7,0,0.7,0.4,0.7,0.7v4c0,2.2,2.1,2.4,3,2.4c1.9,0,2.9-0.8,2.9-2.3v-4
					c0-0.4,0.2-0.7,0.7-0.7h0.3V25h-2.3v0.3h0.3c0.7,0,0.7,0.4,0.7,0.7v3.9c0,1.3-0.8,2.1-2.3,2.1c-0.9,0-2-0.4-2-2.1v-3.9
					c0-0.4,0.2-0.7,0.7-0.7h0.3v-0.4h-3.5V25.1z"/>
			</g>
			<g>
				<path class="st1" d="M116.9,29.7l-0.6,1.6v0.2c0,0.2,0.3,0.2,0.7,0.2v0.4h-2.1v-0.4c0.4,0,0.7,0,0.9-0.5l2.6-6.6h0.6l2.5,6.5
					c0.2,0.6,0.5,0.6,1,0.6v0.4h-3.3v-0.4c0.6,0,0.8,0,0.8-0.3c0,0,0-0.2-0.1-0.3l-0.6-1.5L116.9,29.7L116.9,29.7z M119.1,29.2
					l-1-2.6l-1,2.6H119.1z"/>
				<path class="st1" d="M122.6,32.2h-3.4v-0.5h0.1c0.6,0,0.7,0,0.7-0.2c0,0,0-0.2-0.1-0.3l0,0l-0.6-1.5H117l0,0.1l-0.6,1.6v0.2
					c0,0.1,0.2,0.1,0.6,0.1h0.1v0.5h-2.2v-0.5h0.1c0.4,0,0.7,0,0.8-0.5l2.6-6.6h0.7l0,0l2.5,6.5c0.2,0.6,0.4,0.6,0.9,0.6h0.1V32.2z
					 M119.3,32h3.2v-0.3c-0.5,0-0.8,0-1-0.6l-2.5-6.5h-0.5l-2.6,6.6c-0.2,0.5-0.5,0.5-0.9,0.5V32h2v-0.3c-0.4,0-0.7,0-0.7-0.3l0-0.2
					l0.6-1.6v-0.2h2.5l0,0l0.6,1.5c0.1,0.1,0.1,0.3,0.1,0.3c0,0.3-0.2,0.4-0.8,0.4V32z M119.2,29.3H117l0-0.1l1.1-2.7L119.2,29.3z
					 M117.2,29.1h1.8l-0.9-2.4L117.2,29.1z"/>
			</g>
			<g>
				<path class="st1" d="M126.4,31.7c1.3,0,1.8-0.7,2-1.4h0.5l-0.5,1.9h-5.5v-0.4h0.4c0.5,0,0.6-0.3,0.6-0.6v-5.3
					c0-0.3,0-0.6-0.6-0.6h-0.4v-0.4h3.3v0.4h-0.4c-0.5,0-0.6,0.3-0.6,0.6v5.8H126.4z"/>
				<path class="st1" d="M128.4,32.3h-5.6v-0.5h0.5c0.4,0,0.5-0.2,0.5-0.5v-5.3c0-0.3,0-0.5-0.5-0.5h-0.5v-0.5h3.4v0.5h-0.5
					c-0.4,0-0.5,0.2-0.5,0.5v5.7h1.1c1,0,1.7-0.5,1.9-1.4l0,0h0.6l0,0.1L128.4,32.3z M123,32.1h5.4l0.5-1.8h-0.4
					c-0.3,0.9-1,1.4-2,1.4h-1.3v-5.9c0-0.4,0.2-0.7,0.7-0.7h0.3V25H123v0.3h0.3c0.7,0,0.7,0.4,0.7,0.7v5.3c0,0.4-0.2,0.7-0.7,0.7
					H123V32.1z"/>
			</g>
			<g>
				<path class="st1" d="M133,24.9v0.4h-0.4c-0.5,0-0.6,0.2-0.6,0.6v5.3c0,0.3,0,0.6,0.6,0.6h0.4v0.4h-3.5v-0.4h0.4
					c0.6,0,0.6-0.3,0.6-0.6v-5.3c0-0.3,0-0.6-0.6-0.6h-0.4v-0.4C129.5,24.9,133,24.9,133,24.9z"/>
				<path class="st1" d="M133.1,32.3h-3.6v-0.5h0.5c0.5,0,0.5-0.2,0.5-0.5v-5.3c0-0.3,0-0.5-0.5-0.5h-0.5v-0.5h3.6v0.5h-0.5
					c-0.5,0-0.5,0.2-0.5,0.5v5.3c0,0.3,0,0.5,0.5,0.5h0.5V32.3z M129.6,32.1h3.4v-0.3h-0.3c-0.7,0-0.7-0.4-0.7-0.7v-5.3
					c0-0.4,0.1-0.7,0.7-0.7h0.3V25h-3.4v0.3h0.3c0.7,0,0.7,0.4,0.7,0.7v5.3c0,0.3,0,0.7-0.7,0.7h-0.3V32.1z"/>
			</g>
			<g>
				<path class="st1" d="M140.3,24.9l0.3,1.7H140c-0.1-0.4-0.4-1.2-1.5-1.2h-0.6v5.8c0,0.3,0,0.6,0.6,0.6h0.4v0.4h-3.4v-0.4h0.4
					c0.5,0,0.6-0.2,0.6-0.6v-5.8h-0.6c-1.1,0-1.4,0.8-1.5,1.2h-0.5l0.3-1.7C134.2,24.9,140.3,24.9,140.3,24.9z"/>
				<path class="st1" d="M139,32.3h-3.5v-0.5h0.5c0.5,0,0.5-0.2,0.5-0.5v-5.7h-0.5c-0.8,0-1.3,0.4-1.4,1.2l0,0h-0.6l0.3-1.8h6.2
					l0.3,1.8H140l0,0c-0.2-0.8-0.7-1.2-1.4-1.2H138v5.7c0,0.3,0,0.5,0.5,0.5h0.5V32.3z M135.6,32.1h3.3v-0.3h-0.3
					c-0.7,0-0.7-0.4-0.7-0.7v-5.9h0.7c0.8,0,1.3,0.4,1.5,1.2h0.5l-0.3-1.6h-6l-0.3,1.6h0.4c0.2-0.8,0.7-1.2,1.5-1.2h0.7v5.9
					c0,0.4-0.1,0.7-0.7,0.7h-0.3V32.1z"/>
			</g>
			<g>
				<path class="st1" d="M144.7,24.9v0.4c-0.4,0-0.4,0-0.6,0c-0.1,0-0.2,0.1-0.2,0.2s0.1,0.2,0.1,0.3l1.4,2.5l1.4-2.5
					c0.1-0.1,0.1-0.2,0.1-0.3c0-0.2-0.3-0.2-0.4-0.2h-0.4v-0.4h2.4v0.4c-0.5,0-0.8,0-1.1,0.6l-1.7,3.2v2.2c0,0.3,0,0.6,0.6,0.6h0.5
					v0.4h-3.4v-0.4h0.4c0.5,0,0.6-0.3,0.6-0.6V29l-1.8-3.2c-0.3-0.5-0.7-0.5-1-0.5v-0.4H144.7z"/>
				<path class="st1" d="M146.9,32.4h-3.5v-0.5h0.5c0.4,0,0.5-0.2,0.5-0.5V29l-1.8-3.2c-0.3-0.5-0.7-0.5-0.9-0.5h-0.1v-0.5h3.2v0.5
					h-0.7c-0.1,0-0.1,0.1-0.1,0.1c0,0,0,0.1,0,0.1c0,0.1,0.1,0.1,0.1,0.2l1.3,2.4l1.4-2.4c0.1-0.1,0.1-0.2,0.1-0.3s-0.1-0.1-0.3-0.1
					H146v-0.5h2.5v0.5h-0.1c-0.5,0-0.8,0-1,0.6l-1.7,3.2v2.2c0,0.3,0,0.5,0.5,0.5h0.6V32.4z M143.5,32.2h3.3V32h-0.4
					c-0.7,0-0.7-0.4-0.7-0.7l0-2.2l1.7-3.2c0.3-0.6,0.6-0.6,1.1-0.6V25h-2.3v0.3h0.3c0.3,0,0.5,0.1,0.5,0.3c0,0.1,0,0.2-0.1,0.3
					l-1.4,2.6l-1.5-2.6v0c0,0,0-0.1,0-0.1c0-0.1-0.1-0.1-0.1-0.2c0-0.1,0.1-0.3,0.3-0.3h0.5V25h-3v0.3c0.3,0,0.7,0,1,0.5l1.8,3.2
					v2.3c0,0.4-0.2,0.7-0.7,0.7h-0.3V32.2z"/>
			</g>
		</g>
		<rect x="15.8" y="28.4" class="st1" width="13.2" height="0.5"/>
		<rect x="150" y="28.4" class="st1" width="13.2" height="0.5"/>
	</g>
</g>
</svg>
