<svg xmlns="http://www.w3.org/2000/svg" width="81.584" height="80" viewBox="0 0 81.584 80">
  <g id="syasou" transform="translate(-55.5 -183.1)">
    <path id="パス_1929" data-name="パス 1929" d="M124.211,263.1H68.39A12.922,12.922,0,0,1,55.5,250.21V195.99A12.922,12.922,0,0,1,68.39,183.1h55.8a12.922,12.922,0,0,1,12.89,12.89V250.21A12.919,12.919,0,0,1,124.211,263.1Z" fill="#005748"/>
    <path id="パス_1930" data-name="パス 1930" d="M112.764,451.437a1.937,1.937,0,0,0,1.837-2.005c0-1.466-1.533-3.353-6.2-4.128a33.522,33.522,0,0,0,4.92-6.706,2.587,2.587,0,0,0,1.567-.438l-3.353-3.286-2.106,1.971h-1.078v-5.9c1.045-.135,1.382-.371,1.466-.876l-5.088-.472v7.262H99.672l.2.674h9.739c-1.8,4.92-6.032,11.053-10.413,14.17l.337.3a29.2,29.2,0,0,0,5.19-3.286v12.6h.64a3.618,3.618,0,0,0,2.949-1.146V445.944a10.845,10.845,0,0,1,3.016,4.92A2.2,2.2,0,0,0,112.764,451.437Z" transform="translate(-36.337 -204.967)" fill="#fff"/>
    <path id="パス_1931" data-name="パス 1931" d="M185.659,458.818h-2.544V442.541h5.864c.944,0,1.382-.168,1.668-.607l-3.606-2.746-1.971,2.679H183.1V430.882c1.011-.135,1.348-.438,1.432-.91l-5.19-.472v12.367h-6.234l.169.674h6.066v16.276H171l.169.674h18.551c.91,0,1.382-.135,1.668-.573l-3.707-2.881Z" transform="translate(-96.039 -204.884)" fill="#fff"/>
    <path id="パス_1932" data-name="パス 1932" d="M408.381,484.137,404,483.8v6.639c0,2.746.64,3.42,4.027,3.42h5.324c3.185,0,4.28-.607,4.28-1.8,0-.472-.135-.64-1.348-1.078l-.034-2.342h-.3c-1.146,2.578-1.432,2.578-2.578,2.578h-5.055c-1.011,0-1.045,0-1.045-.741v-1.837a47.066,47.066,0,0,0,7.262-1.533,3.513,3.513,0,0,0,1.045.2,1.07,1.07,0,0,0,.775-.236l-3.117-2.645a30.186,30.186,0,0,1-5.965,3.286v-2.915C408.111,484.676,408.313,484.508,408.381,484.137Z" transform="translate(-289.781 -250.034)" fill="#fff"/>
    <path id="パス_1933" data-name="パス 1933" d="M311.544,433.28v3.083c3.05,0,3.454-.775,3.454-.842V433.28h7.329v2.915c3.218,0,3.521-.809,3.521-.842V433.28h7.262c.876,0,1.247-.135,1.533-.573l-3.454-2.544-1.82,2.426h-3.522v-2.409c.977-.135,1.247-.337,1.281-.842L322.31,429v3.589h-7.329v-2.409c.977-.135,1.213-.337,1.281-.842L311.51,429v3.589H302.9l.168.674h8.475Z" transform="translate(-205.715 -204.468)" fill="#fff"/>
    <path id="パス_1934" data-name="パス 1934" d="M334.42,464.2l-1.82,2.207H308.354l.2.674h6.571a19.6,19.6,0,0,1-6.571,6.74l.2.505a23.569,23.569,0,0,0,3.521-1.567,5.477,5.477,0,0,1,1.7,2.443,1.5,1.5,0,0,0,1.179.4A19.477,19.477,0,0,1,308,479.095l.236.64c7.565-1.112,11.12-3.724,14.339-8.441a2.162,2.162,0,0,0,1.5-.438l-3.117-2.477-1.567,1.567h-2.915a17.7,17.7,0,0,0,2.679-2.847h17.119c.91,0,1.314-.135,1.6-.573Zm-15.114,6.42a17.137,17.137,0,0,1-3.016,3.993,1.2,1.2,0,0,0,.067-.337c0-.842-.842-1.769-3.218-1.971a23.074,23.074,0,0,0,2.544-1.7h3.623Z" transform="translate(-209.956 -233.737)" fill="#fff"/>
    <path id="パス_1935" data-name="パス 1935" d="M331.139,548.283l-1.938,2.443h-3.083v-2.847c.775-.135,1.011-.337,1.045-.708l-4.617-.371v3.926h-7.734v-2.814c.876-.1,1.146-.337,1.179-.741l-4.718-.371v3.926H302.9l.2.674h8.138c-.2,2.713-1.769,5.291-7.734,7.009l.2.4c8.61-1.382,10.716-4.313,11.053-7.43h7.767v7.43c2.881,0,3.555-.876,3.555-.91v-6.5h6.942c.944,0,1.348-.168,1.634-.607Z" transform="translate(-205.715 -302.419)" fill="#fff"/>
    <path id="パス_1936" data-name="パス 1936" d="M90.385,254.915v-5.021h5.678c1.6,0,2.308.691,2.308,1.8,0,.977-.758,1.449-2.14,1.449H93.586v2.325h4.9c2.645,0,3.741-1.618,3.741-3.858,0-2.393-1.163-4.01-3.656-4.01H90.4v-3.3H86.526v3.3H84.1v2.308h2.426v5.965c0,6.453,5.527,6.285,5.527,6.285h9.638v-2.308s-7.043-.168-7.616-.168C92.407,259.666,90.385,257.982,90.385,254.915Z" transform="translate(-23.781 -50.888)" fill="#fff"/>
    <path id="パス_1937" data-name="パス 1937" d="M201.7,262.173c3.606,0,4.431-1.028,5.56-1.837,1.483-1.078,5.594-5.51,6.841-9.132h-4.111c-.3.758-5.611,9.233-8.239,7.7-.792-.455-.842-.91-.842-3.42V244.7H197.2v11.087C197.2,261.768,200.25,262.173,201.7,262.173Z" transform="translate(-117.825 -51.221)" fill="#fff"/>
    <path id="パス_1938" data-name="パス 1938" d="M317.838,252.508V250.2H300.5v2.308h5.105v3.757H300.5v2.123h5.105v2.645c0,5.156,2.072,5.948,5.594,5.948h5.931v-2.308s-2.645-.118-3.69-.118c-2.628,0-4.465-.725-4.465-3.168v-3h8.846v-2.123h-8.846v-3.757Z" transform="translate(-203.719 -55.794)" fill="#fff"/>
    <path id="パス_1939" data-name="パス 1939" d="M418.229,261c0,4.92-2.46,6.133-5.156,6.133H409.4v-2.308h3.05c1.466,0,2.292-1.6,2.292-3.943V256.77h6.453c1.6,0,2.14-.893,2.14-1.971a2,2,0,0,0-2.14-2.19H409.4V250.3h12.957c6.285,0,6.184,8.8,1.011,8.8h-5.139Z" transform="translate(-294.271 -55.877)" fill="#fff"/>
    <path id="パス_1940" data-name="パス 1940" d="M489.49,330h0a.86.86,0,0,0,.573-.876c0-.573-.388-.927-1.129-.927H487.3v3.437h.607v-1.415h.876c.556,0,.674.286.674.91a.884.884,0,0,0,.1.505h.64a1.527,1.527,0,0,1-.185-.91C490,330.188,489.693,330.037,489.49,330Zm-.623-.236h-.977v-1.078h.977c.3,0,.59.084.59.522A.516.516,0,0,1,488.867,329.767Z" transform="translate(-359.045 -120.652)" fill="#fff"/>
    <path id="パス_1941" data-name="パス 1941" d="M480.681,321.5a2.881,2.881,0,1,0,2.881,2.881A2.88,2.88,0,0,0,480.681,321.5Zm0,5.324a2.46,2.46,0,1,1,2.46-2.46A2.452,2.452,0,0,1,480.681,326.824Z" transform="translate(-351.146 -115.081)" fill="#fff"/>
    <rect id="長方形_1490" data-name="長方形 1490" width="72.974" height="0.859" transform="translate(59.813 218.483)" fill="#fff"/>
  </g>
</svg>
