<svg xmlns="http://www.w3.org/2000/svg" width="67.872" height="62.722" viewBox="0 0 67.872 62.722">
  <g id="グループ_600" data-name="グループ 600" transform="translate(-264.961 -223.976)">
    <g id="グループ_593" data-name="グループ 593">
      <g id="グループ_592" data-name="グループ 592">
        <path id="パス_1076" data-name="パス 1076" d="M271.122,223.976v55.913h55.912V223.976Zm30.914,2.671h4.855v14.279c0,3.313.062,3.914,1.092,4.524,3.43,2.022,10.369-9.181,10.768-10.191h5.38c-1.616,4.789-6.993,10.657-8.936,12.079-1.473,1.074-2.554,2.437-7.268,2.437-1.9,0-5.891-.542-5.891-8.444Zm-5.553,31.176H284.917V262.8h11.566v2.82H284.917v3.977c0,3.235,2.4,4.193,5.84,4.193,1.363,0,4.814.15,4.814.15v3.058H287.82c-4.6,0-7.313-1.046-7.313-7.876v-3.5h-6.675V262.8h6.675v-4.974h-6.675v-3.066h22.651Zm-7.224-23.867h-7.415V240.6c0,4.054,2.647,6.279,4.811,6.279.754,0,9.955.228,9.955.228v3.06H284.024s-7.214.225-7.214-8.324v-7.889h-3.164V230.9h3.164v-4.371h5.034V230.9h10.689c3.265,0,4.776,2.143,4.776,5.316,0,2.966-1.439,5.11-4.886,5.11h-6.4v-3.067h3.465c1.8,0,2.8-.623,2.8-1.915C292.286,234.862,291.347,233.956,289.259,233.956Zm32.093,43.113a3.04,3.04,0,1,1,3.04-3.038A3.039,3.039,0,0,1,321.352,277.069ZM319.575,266.4h-6.722s0,1.353,0,2.559c0,6.507-3.212,8.111-6.728,8.111h-4.788v-3.053h3.978c1.923,0,3-2.125,3-5.226,0-2.15-.008-5.45-.008-5.45h8.441c2.1,0,2.783-1.173,2.783-2.622a2.621,2.621,0,0,0-2.783-2.894H301.335v-3.066h16.928C326.471,254.757,326.341,266.4,319.575,266.4Z" fill="#fff"/>
        <path id="パス_1077" data-name="パス 1077" d="M321.347,271.432a2.592,2.592,0,1,0,2.591,2.589A2.591,2.591,0,0,0,321.347,271.432Zm1.011,4.382a.963.963,0,0,1-.1-.53c0-.666-.136-.959-.717-.959h-.934v1.489h-.634V272.2h1.73c.791,0,1.2.364,1.2.977a.879.879,0,0,1-.6.912v.012c.218.033.537.193.537.764a1.646,1.646,0,0,0,.2.953Z" fill="#fff"/>
        <path id="パス_1078" data-name="パス 1078" d="M321.638,272.712h-1.031v1.131h1.037c.4,0,.621-.2.621-.576C322.265,272.8,321.963,272.712,321.638,272.712Z" fill="#fff"/>
      </g>
    </g>
    <g id="グループ_599" data-name="グループ 599">
      <path id="パス_1079" data-name="パス 1079" d="M265.712,281.65v.841h-.751v.716h.751v1.4a1.675,1.675,0,0,0,1.841,1.762h2.968v-.715l-2.474-.046a1.146,1.146,0,0,1-1.026-1.234v-1.158l1.767,0s.578-.045.578.339c0,0,.084.368-.572.368s-.9,0-.9,0v.713h1.657a1.079,1.079,0,0,0,1.126-1.126,1.028,1.028,0,0,0-1.126-1.016l-2.533-.009v-.841Z" fill="#fff"/>
      <path id="パス_1080" data-name="パス 1080" d="M270.864,281.671v2.995s-.049,1.6,1.348,1.624a3.341,3.341,0,0,0,1.514-.28,8.205,8.205,0,0,0,.987-.722,7.889,7.889,0,0,0,1.512-1.941h-1.389s-1.1,1.632-1.936,1.938c0,0-.483.237-.707-.061,0,0-.069,0-.069-.472s-.005-3.081-.005-3.081Z" fill="#fff"/>
      <path id="パス_1081" data-name="パス 1081" d="M276.245,281.9v.711h1.578v.856h-1.578v.665h1.578v.8a1.345,1.345,0,0,0,1.474,1.4c1.542.006,2.215,0,2.215,0v-.7l-1.623-.05s-.9-.029-.9-.737,0-.731,0-.731h2.736v-.662h-2.737V282.6h2.737v-.7Z" fill="#fff"/>
      <path id="パス_1082" data-name="パス 1082" d="M281.925,281.9v.711h3.728s.582-.038.582.473c0,0,.069.485-.541.485h-2.116v1.187s.054.892-.7.892h-.95v.717h1.126s1.716.085,1.716-1.48v-.6h1.56a1.2,1.2,0,0,0,1.205-1.205,1.338,1.338,0,0,0-1.451-1.167Z" fill="#fff"/>
      <g id="グループ_594" data-name="グループ 594">
        <path id="パス_1083" data-name="パス 1083" d="M288,282.629v.91h1.957v2.994h1.059V283.54h1.964v-.91h-1.957v-.792h-1.06v.792Z" fill="#fff"/>
        <path id="パス_1084" data-name="パス 1084" d="M288.641,283.864a2.586,2.586,0,0,1-.891,1.843l.811.7a2.971,2.971,0,0,0,.786-1.18,5.065,5.065,0,0,0,.278-1.266Z" fill="#fff"/>
        <path id="パス_1085" data-name="パス 1085" d="M291.364,283.98a6.336,6.336,0,0,0,.25,1.2,5.923,5.923,0,0,0,.75,1.218l.837-.636a2.454,2.454,0,0,1-.623-.952c-.16-.526-.24-.951-.24-.951Z" fill="#fff"/>
      </g>
      <rect id="長方形_267" data-name="長方形 267" width="5.301" height="1" transform="translate(293.777 283.66)" fill="#fff"/>
      <g id="グループ_595" data-name="グループ 595">
        <path id="パス_1086" data-name="パス 1086" d="M300.38,282.045v1.33s.126,1.865-.882,2.538l.814.784s1.128-.694,1.128-3.315v-1.337Z" fill="#fff"/>
        <path id="パス_1087" data-name="パス 1087" d="M301.993,281.874v4.644a3.215,3.215,0,0,0,3.241-2.6l-.993-.434s-.128,1.441-1.188,1.831v-3.442Z" fill="#fff"/>
      </g>
      <g id="グループ_596" data-name="グループ 596">
        <path id="パス_1088" data-name="パス 1088" d="M306.025,281.979v.887h3.928V282.6l-.322.052a3.655,3.655,0,0,0-.149-.672Z" fill="#fff"/>
        <path id="パス_1089" data-name="パス 1089" d="M309.5,281.657a6.27,6.27,0,0,1,.215.888l.628-.123s-.149-.548-.261-.83Z" fill="#fff"/>
        <path id="パス_1090" data-name="パス 1090" d="M310.221,281.624s.239.757.261.921l.613-.082a7.978,7.978,0,0,0-.284-.909Z" fill="#fff"/>
        <path id="パス_1091" data-name="パス 1091" d="M305.63,283.323v.91H307.8a1.784,1.784,0,0,1-.254.874c-.226.239-.418.492-1.747.642l.439.866a3.542,3.542,0,0,0,2.209-1.023,2.367,2.367,0,0,0,.428-1.4h1.858v-.873H305.66" fill="#fff"/>
      </g>
      <path id="パス_1092" data-name="パス 1092" d="M314.807,282.59a7.239,7.239,0,0,1-3.681,2.191l.527.755a8.884,8.884,0,0,0,1.587-.621v1.721h.991v-2.3a12.866,12.866,0,0,0,1.394-1.17Z" fill="#fff"/>
      <g id="グループ_597" data-name="グループ 597">
        <path id="パス_1093" data-name="パス 1093" d="M316.506,282.043l-.483.822a9.23,9.23,0,0,1,1.947.866l.576-.881A10.641,10.641,0,0,0,316.506,282.043Z" fill="#fff"/>
        <path id="パス_1094" data-name="パス 1094" d="M316.11,285.492l.352,1.022a7.119,7.119,0,0,0,3.076-1.022,5.526,5.526,0,0,0,1.782-2.662l-1-.449A4.1,4.1,0,0,1,318.308,285,5.8,5.8,0,0,1,316.11,285.492Z" fill="#fff"/>
      </g>
      <g id="グループ_598" data-name="グループ 598">
        <path id="パス_1095" data-name="パス 1095" d="M323.559,281.738a3.462,3.462,0,0,1-1.926,2.023l.688.732a4.986,4.986,0,0,0,1.443-1.13h1.8s-.435,2.219-3.475,2.328l.435.91a5.551,5.551,0,0,0,3.04-1.286,4.683,4.683,0,0,0,1.288-2.754l-1.083.184-.066-.273h-1.3a5.939,5.939,0,0,0,.279-.61Z" fill="#fff"/>
        <path id="パス_1096" data-name="パス 1096" d="M325.551,281.709a3.059,3.059,0,0,1,.292.915l.639-.112a4.755,4.755,0,0,0-.3-.88Z" fill="#fff"/>
        <path id="パス_1097" data-name="パス 1097" d="M326.358,281.632a4.836,4.836,0,0,1,.272.859l.653-.11a5.442,5.442,0,0,0-.3-.827Z" fill="#fff"/>
      </g>
      <path id="パス_1098" data-name="パス 1098" d="M327.726,282.023v.935h2.813a5.18,5.18,0,0,1-3.211,2.808l.607.807a5.858,5.858,0,0,0,2.321-1.5,17.945,17.945,0,0,1,1.691,1.554l.886-.789a17.363,17.363,0,0,0-1.931-1.514,5.574,5.574,0,0,0,1.055-2.3Z" fill="#fff"/>
    </g>
  </g>
</svg>
