<?xml version="1.0" encoding="utf-8"?>
<!-- Generator: Adobe Illustrator 26.2.1, SVG Export Plug-In . SVG Version: 6.00 Build 0)  -->
<svg version="1.1" id="レイヤー_1" xmlns="http://www.w3.org/2000/svg" xmlns:xlink="http://www.w3.org/1999/xlink" x="0px"
	 y="0px" viewBox="0 0 252 75.4" style="enable-background:new 0 0 252 75.4;" xml:space="preserve">
<style type="text/css">
	.st0{fill:#801A42;}
	.st1{fill:#FFFFFF;}
</style>
<g>
	<path class="st0" d="M6.6,7.2H252v68.1H6.6V7.2z"/>
	<path class="st0" d="M1,1v66.1h243.4V1H1 M0,0h245.4v68.1H0V0z"/>
	<path class="st1" d="M7.6,8.2v58.9h236.7V8.2H7.6 M6.6,7.2h238.7v60.9H6.6V7.2z"/>
	<path class="st1" d="M93,40.8v2.5h17.5v-2.5H93z M114.9,38.9h1.4v0.7h-1.4V38.9z M116.2,35.2v0.6h-1.4v-0.6H116.2z M118.5,37.7
		h-3.6V37h3.6L118.5,37.7z M121.1,39.6h-3v-0.7h2.5v-1c0.6,0.3,1.1,0.7,1.6,1.1c0.5-0.6,0.9-1.3,1.3-2h5.9v-1.8h-5.1
		c0.2-0.5,0.3-0.9,0.5-1.4l-2-0.4c-0.4,1.6-1.1,3.1-2.2,4.3v-1.8H118v-0.6h2.7V34h-7.9v6.9h8.2L121.1,39.6z M128.9,40.3v-1.7h-6.3
		v1.7L128.9,40.3z M116.9,46h7.7v0.6h-7.7V46z M116.9,44.2h7.7v0.6h-7.7V44.2z M116.9,42.5h7.7v0.6h-7.7V42.5z M124.7,49.1
		c-0.8,0-0.9-0.1-0.9-0.5v-0.8h3v-6.5h-12v6.5h2.5c-0.5,1-1.6,1.4-5.3,1.6c0.4,0.5,0.8,1.1,1,1.7c4.6-0.4,6.1-1.4,6.6-3.3h2.1v0.9
		c0,1.7,0.6,2.2,2.8,2.2h2.8c1.7,0,2.2-0.5,2.5-2.6c-0.7-0.1-1.3-0.4-1.9-0.7c-0.1,1.3-0.2,1.5-0.8,1.5L124.7,49.1z M139.5,34.2
		L137,34c0,0.7-0.2,1.5-0.4,2.2h-0.9c-1.1,0-2.2-0.1-3.3-0.2v2.2c1,0.1,2.4,0.1,3.2,0.1h0.2c-1.1,2-2.5,3.8-4.2,5.2l2,1.5
		c0.5-0.7,1.1-1.4,1.8-2.1c0.8-0.8,1.9-1.2,3-1.3c0.5,0,1,0.2,1.3,0.6c-2.2,1.1-4.4,2.6-4.4,5.1c0,2.5,2.2,3.2,5.2,3.2
		c1.8,0,3.6-0.1,5.4-0.3l0.1-2.5c-1.8,0.3-3.6,0.5-5.4,0.5c-1.9,0-2.8-0.3-2.8-1.3c0-1,0.8-1.7,2.2-2.5c0,0.8,0,1.7-0.1,2.3h2.3
		c0-0.9,0-2.3-0.1-3.3c1.2-0.5,2.2-1,3.1-1.3c0.6-0.2,1.7-0.6,2.3-0.8l-0.9-2.2c-0.7,0.4-1.4,0.7-2.1,1c-0.8,0.3-1.6,0.7-2.6,1.1
		c-0.5-1-1.5-1.5-2.5-1.5c-0.7,0-1.5,0.1-2.1,0.4c0.4-0.6,0.8-1.3,1.1-1.9c2.1,0,4.1-0.2,6.2-0.5l0-2.2c-1.8,0.3-3.6,0.5-5.4,0.6
		C139.2,35.5,139.4,34.8,139.5,34.2L139.5,34.2z M154.8,41.9h7.9v1.2h-7.9V41.9z M154.8,38.9h7.9v1.2h-7.9V38.9z M154.8,35.9h7.9
		v1.2h-7.9V35.9z M162.7,48.8c-0.7,0-0.8-0.1-0.8-0.7v-3h3.1V33.9h-12.4v11.1h2.3c-0.3,2.1-1.1,3.3-5,4.1c0.5,0.6,1,1.3,1.3,2
		c4.7-1.1,5.8-3.1,6.2-6.1h2.3v3c0,2.1,0.5,2.8,2.8,2.8h2.5c1.9,0,2.5-0.8,2.7-3.8c-0.7-0.2-1.4-0.5-2.1-0.9
		c-0.1,2.2-0.2,2.5-0.9,2.5H162.7z M175.6,47.2c0-0.5,0.5-0.9,1.2-0.9c1,0,1.7,0.8,1.8,2c-0.4,0-0.7,0.1-1.1,0.1
		C176.4,48.4,175.6,47.9,175.6,47.2L175.6,47.2z M172.4,35l0.1,2.5c0.5-0.1,1-0.1,1.6-0.2c1-0.1,3.6-0.2,4.6-0.2
		c-0.9,0.8-2.9,2.4-4,3.3c-1.1,0.9-3.4,2.9-4.8,4l1.7,1.8c2-2.3,3.9-3.9,6.8-3.9c2.2,0,4,1.2,4,2.9c0,1.1-0.6,2.1-1.6,2.6
		c-0.3-2-2.1-3.4-4-3.2c-1.8-0.1-3.3,1.2-3.4,3c0,0,0,0,0,0c0,1.9,2,3.1,4.6,3.1c4.6,0,6.9-2.4,6.9-5.4c0-2.8-2.5-4.8-5.7-4.8
		c-0.6,0-1.2,0.1-1.8,0.2c1.2-1,3.2-2.6,4.2-3.3c0.4-0.3,0.9-0.6,1.3-0.9l-1.2-1.7c-0.5,0.1-1,0.2-1.4,0.2c-1.1,0.1-5.1,0.2-6.2,0.2
		C173.6,35.1,173,35,172.4,35L172.4,35z"/>
	<path class="st1" d="M64.2,46.4L59.9,38h8.4L64.2,46.4z"/>
</g>
</svg>
