<svg xmlns="http://www.w3.org/2000/svg" width="204.562" height="432.504" viewBox="0 0 204.562 432.504">
  <g id="グループ_3115" data-name="グループ 3115" transform="translate(-537.335 -12149.319)">
    <path id="パス_4072" data-name="パス 4072" d="M-1.74-11.745c-.377.638-.377.638-.841,1.392C-4.089-7.83-4.089-7.83-5.017-6.264c-.638,1.073-.638,1.073-.957,1.537A4.21,4.21,0,0,1-7.482-6.989a12.421,12.421,0,0,1-.667-4.205,22.678,22.678,0,0,1,.522-4.321,4.944,4.944,0,0,0,.087-.754A3.5,3.5,0,0,0-8.845-18.56a4.3,4.3,0,0,0-2.175-1.421h-.261c1.247,1.624,1.45,2.291,1.479,4.988a32.825,32.825,0,0,0,.2,5.1,13.293,13.293,0,0,0,1.972,5.8c.9,1.334,2.378,2.465,3.19,2.465A.685.685,0,0,0-3.8-2.349a2.538,2.538,0,0,0-.058-.464A3.476,3.476,0,0,1-4.031-3.8c0-1.16.609-2.871,2.726-7.743Zm6.467-4.7a8.015,8.015,0,0,1,3.6,3.8,10.532,10.532,0,0,1,.9,3.8c0,.551-.087.667-.667.87-.261.087-1.566.464-3.915,1.1l.087.435C5.713-6.5,6.264-6.5,6.931-6.5a3.861,3.861,0,0,1,2.175.348,1.4,1.4,0,0,0,.87.319c.87,0,1.45-.9,1.45-2.291,0-4-2.9-7.859-6.554-8.671ZM-2.407,39.521a22.792,22.792,0,0,0,7.163-1.682c4.234-1.8,6.67-4.9,6.67-8.5,0-3.8-3.016-6.38-7.424-6.38-3.016,0-6.032.783-10.614,2.784a9.79,9.79,0,0,1-3.509,1.044,1.936,1.936,0,0,1-1.189-.464,2.362,2.362,0,0,1-.812-1.073,1.557,1.557,0,0,0-.232.725c0,1.305,2.117,3.335,3.48,3.335a1.653,1.653,0,0,0,1.1-.493c3.828-2.987,8.265-4.843,11.658-4.843,3.161,0,5.307,1.972,5.307,4.872,0,3.045-1.943,5.887-5.336,7.8a24.064,24.064,0,0,1-6.409,2.436Zm-9.367,23.687a1.258,1.258,0,0,0-.319.783,4.142,4.142,0,0,0,.754,1.943,3.2,3.2,0,0,0,2.233,1.711,1.911,1.911,0,0,0,1.16-.406A49.035,49.035,0,0,1,5.017,63.353,15.031,15.031,0,0,0,.29,66.688a10.746,10.746,0,0,0-3.161,7.076,7.7,7.7,0,0,0,3.364,6.5,11.977,11.977,0,0,0,5.916,2.088c.609,0,1.044-.348,1.044-.812a2.374,2.374,0,0,0-.87-1.392,1.444,1.444,0,0,0-1.218-.464,8.764,8.764,0,0,1-2.929-.7,5.885,5.885,0,0,1-3.857-5.655c0-4.959,4.785-9.686,9.744-9.686a3.966,3.966,0,0,1,.812.058,4.106,4.106,0,0,0,.551.029c.551,0,.9-.29.9-.725,0-.377-.261-.754-.841-1.1a3.873,3.873,0,0,0-1.566-.609,3.653,3.653,0,0,0-1.015.232,31.763,31.763,0,0,1-3.915.957c-2,.377-3.654.754-4.7,1.015-6.525,1.566-7.25,1.711-8.062,1.711a1.644,1.644,0,0,1-1.305-.493A3.157,3.157,0,0,1-11.774,63.208ZM6.032,67.7a13.911,13.911,0,0,1,2.233,3.074c.9,1.885.9,1.885,1.276,1.885.493,0,.9-.522.9-1.218s-.406-1.363-1.45-2.32a14.79,14.79,0,0,0-2.581-1.8ZM9.077,66.05a13.842,13.842,0,0,1,3.19,4.118c.232.406.406.551.667.551.435,0,.725-.493.725-1.189,0-.783-.377-1.392-1.479-2.233A14.1,14.1,0,0,0,9.4,65.644Zm-17.69,37.9A7.178,7.178,0,0,0-7.105,106.5a7.325,7.325,0,0,0,2.813,1.8,6.116,6.116,0,0,0-2.813,1.537,2.994,2.994,0,0,0-.9,2,4.327,4.327,0,0,0,1.276,2.871,7.114,7.114,0,0,0,2.32,1.479c-.029.725-.058,1.1-.058,1.45,0,2.523.725,4.263,2.233,5.394a6.63,6.63,0,0,0,3.944,1.189c4.031,0,7.047-2.668,7.047-6.177,0-2.958-1.827-5.365-6.119-8l-.319.377c2.755,2.117,4.379,4.843,4.379,7.25a4.876,4.876,0,0,1-.957,2.958,5.637,5.637,0,0,1-4.582,1.972c-2.929,0-4.582-1.653-4.582-4.611,0-.377.029-.725.087-1.421a11.754,11.754,0,0,0,3.074.522c.609,0,.986-.261.986-.667a2.012,2.012,0,0,0-1.74-1.566,1.918,1.918,0,0,0-.319.029.639.639,0,0,1-.232.029,8.04,8.04,0,0,1-1.479-.2,34.5,34.5,0,0,1,1.16-5.365,6.668,6.668,0,0,0,1.131.145c.58,0,.928-.232.928-.609a1.641,1.641,0,0,0-.406-.957,2.105,2.105,0,0,0-1.16-.638,13.731,13.731,0,0,1,1.6-4.031,1.249,1.249,0,0,0,.377-.841,3.014,3.014,0,0,0-1.508-2.088,4.446,4.446,0,0,0-2.146-.9,1.2,1.2,0,0,0-.493.116c1.16.812,1.566,1.421,1.566,2.407,0,.7-.087,1.131-.9,5.162a8.819,8.819,0,0,1-3.393-1.247,6.311,6.311,0,0,1-2-2.088Zm5.249,5.191a47.934,47.934,0,0,0-.87,5.278c-2-.609-2.987-1.508-2.987-2.726a2.009,2.009,0,0,1,.638-1.45A4.372,4.372,0,0,1-3.364,109.138Zm-4.089,35.113a6.757,6.757,0,0,0,2.03,1.682,7.917,7.917,0,0,0,3.306.783c.522,0,1.537-.029,2.175-.087l-.551.348-1.885,1.015c-.783.435-1.305.725-2.117,1.218l.2.435a48.168,48.168,0,0,1,7.743-2.871c1.943-.406,2.117-.522,2.117-1.015a1.99,1.99,0,0,0-1.74-1.508,2.942,2.942,0,0,0-.522.116,22.614,22.614,0,0,1-6.032.87,6.8,6.8,0,0,1-4.437-1.276Zm-1.1,11.049a7.888,7.888,0,0,0-.464,2.465,5.552,5.552,0,0,0,2.407,4.553c1.45.986,3.509,1.392,6.757,1.392a33.3,33.3,0,0,0,6.757-.58c.609-.145.928-.464.928-.9a1.384,1.384,0,0,0-.638-1.015,3.165,3.165,0,0,0-1.6-.58,1.473,1.473,0,0,0-.493.087A18.643,18.643,0,0,1-1.3,161.8c-4.669,0-6.844-1.624-6.844-5.075,0-.348.029-.667.087-1.3ZM5.684,141.786a12.929,12.929,0,0,1,2.2,3.074c.928,1.885.928,1.885,1.3,1.885.493,0,.9-.522.9-1.218s-.406-1.363-1.45-2.32a14.79,14.79,0,0,0-2.581-1.8ZM8.729,140.1a14.854,14.854,0,0,1,3.19,4.147c.232.406.406.551.667.551.435,0,.725-.493.725-1.189,0-.812-.377-1.392-1.508-2.233a13.1,13.1,0,0,0-2.755-1.653Zm-4.785,56.08H8.613v.841c0,.261.116.406.377.406.058,0,1.392-.2,1.421-.2.087-.058.116-.145.116-.319-.029-1.537-.058-4-.058-8.062.2-.174.348-.261.464-.348.174-.116.319-.2.406-.261a.368.368,0,0,0,.116-.2c0-.087-.058-.174-.2-.29-.783-.58-1.015-.754-1.769-1.363-.551.609-.725.812-1.276,1.392H3.915c-.029-2.175-.029-2.175-.029-2.871h9.222a.265.265,0,0,0,.29-.232.541.541,0,0,0-.145-.29c-1.16-.957-1.537-1.247-2.784-2.175a14.531,14.531,0,0,0-1.479,2.03h-5.1v-2.059a7.477,7.477,0,0,0,.783-.29c.29-.116.377-.232.377-.435,0-.319-.261-.406-1.682-.522-.29-.029-.783-.087-1.421-.145.087,1.073.116,1.6.116,2.61v.841h-6a16.869,16.869,0,0,1-1.972-.2l.261,1.044c.145-.029.783-.087,1.856-.174H2.059v2.871H-2.117a14.183,14.183,0,0,0-2.2-1.392c.087,2.059.116,3.016.116,5.017,0,.783-.029,2.813-.116,6.148.058.232.145.319.29.348.812-.058.812-.058.928-.058h.493c.145-.029.2-.087.232-.29v-1.363H2.059L2,199.4h-5.51a22.433,22.433,0,0,1-2.842-.261l.29,1.16a13.528,13.528,0,0,1,2.581-.232H2c-.029,1.769-.029,1.769-.087,3.045,0,.348.116.493.319.493.145,0,1.508-.116,1.537-.116.145-.058.2-.145.232-.377-.029-1.914-.029-1.914-.029-3.045h9.773a.133.133,0,0,0,.116-.145.6.6,0,0,0-.145-.261L11.455,197.4a25.921,25.921,0,0,0-1.74,2H3.944Zm0-.667-.029-3.306h4.7v3.306Zm-1.885,0H-2.378v-3.306H2.059Zm1.856-3.973v-3.1h4.7v3.1Zm-1.856,0H-2.378v-3.1H2.059v3.1Zm-14.79-9.57a13.376,13.376,0,0,1,3.161,5.017c.406,1.044.58,1.305.957,1.305.551,0,1.189-1.073,1.189-2.059,0-.609-.348-1.131-1.247-1.914a21.806,21.806,0,0,0-3.654-2.668Zm-.609,11.745a12.488,12.488,0,0,1,1.972-.145h2.175v7.8a20.048,20.048,0,0,1-2.117,1.334c-1.044.58-1.1.638-2.088,1.189.319.58.551,1.015.725,1.305.348.638.58,1.044.638,1.218.174.29.29.406.464.406a.329.329,0,0,0,.319-.348l-.116-1.044c.406-.551.638-.812,1.6-1.943A13.042,13.042,0,0,0-7.975,201a9.546,9.546,0,0,0,2.088,3.132c1.479,1.363,4,2.088,7.25,2.088,9.077,0,9.193,0,10.73-.174.377-1.334.58-1.566,1.653-1.914v-.348c-3.219.319-8.584.522-12.9.522-2.842,0-4.495-.29-5.945-1.044a3.725,3.725,0,0,1-2.03-2.291v-6.786c.609-.435.957-.754.957-.9,0-.029-.058-.116-.261-.319a20.563,20.563,0,0,0-1.856-1.334c-.435.551-.58.725-1.015,1.276h-2.059a12.046,12.046,0,0,1-2.291-.29ZM3.219,225.5a22.7,22.7,0,0,0,1.1-2.32c1.044-.174,1.305-.261,1.305-.493,0-.29-.145-.319-3.132-1.073a21.141,21.141,0,0,1-1.943,5.394,38.777,38.777,0,0,1-3.364,5.452l.29.319a21.249,21.249,0,0,0,4.437-5.046,13.993,13.993,0,0,0,2.813,4.524,29.363,29.363,0,0,1-7.685,6.5l.232.435c1.334-.609,1.74-.841,2.61-1.3v5.887c0,1.856,0,2.407-.058,3.973v.087c0,.174.116.29.348.29a6.268,6.268,0,0,0,1.392-.145c.116-.058.145-.145.174-.319v-1.247H8.758v1.015c0,.319.087.406.377.406a7.184,7.184,0,0,0,1.45-.145.217.217,0,0,0,.145-.232c-.029-1.653-.058-3.828-.058-6.293v-2.175c.348-.261.522-.435.522-.58,0-.087-.116-.232-.377-.406-.58-.377-.58-.377-1.392-.928-.261.319-.377.435-.667.783H1.74c-.377-.29-.522-.377-.783-.58a26.879,26.879,0,0,0,4.814-3.944,21,21,0,0,0,6.583,4.35c.464-1.218.783-1.537,1.856-1.769V235.5a14.019,14.019,0,0,1-4.5-1.218,13.859,13.859,0,0,1-3.1-1.827,31.283,31.283,0,0,0,4.089-5.742c.928-.29,1.218-.464,1.218-.7,0-.145-.087-.261-.319-.522-.725-.609-.957-.812-1.74-1.45-.493.609-.638.812-1.1,1.45Zm5.539.667a27.723,27.723,0,0,1-3.306,5.249,12.124,12.124,0,0,1-3.19-4.234,11.744,11.744,0,0,1,.609-1.015ZM1.74,238.518H8.758v7.221H1.74Zm-10.034,2.523c-.087,4.06-.145,6.38-.174,6.9v.087c0,.145.116.2.348.2a4.927,4.927,0,0,0,1.45-.145c.116-.058.145-.145.145-.348V234.777c1.131-.29,1.189-.319,2.407-.7a8.485,8.485,0,0,1,.348.986c.435,1.885.464,1.914.7,1.914.406,0,1.1-1.1,1.1-1.711,0-.87-1.595-2.987-3.422-4.611l-.261.174a19.9,19.9,0,0,1,1.363,2.726c-1.566.174-2.117.2-4.814.377,1.537-1.566,1.537-1.566,5.858-7.453.9-.058,1.16-.145,1.16-.406,0-.232-.377-.406-2.842-1.276a33.885,33.885,0,0,1-2.7,5.568,29.6,29.6,0,0,1-2.407,3.6c-1.479.087-1.479.087-1.769.087-.232,0-.522,0-1.247-.029.464,2.32.638,2.813.928,2.813.232,0,.377-.29.522-1.073,1.45-.232,1.972-.319,3.306-.609Zm-4.582-15.051a23.641,23.641,0,0,1,2.755,3.886c.551,1.131.638,1.247.87,1.247.319,0,.783-.87.783-1.508,0-.522-.377-1.044-1.45-1.943a32.973,32.973,0,0,0,3.393-4.379c.928-.058,1.3-.145,1.3-.406s-.435-.464-2.9-1.247a33.071,33.071,0,0,1-2.233,5.655,20.077,20.077,0,0,0-2.32-1.6Zm-.029,21.054c1.189-2.146,1.74-3.654,2.987-8.178.7-.174.986-.348.986-.551,0-.261-.638-.435-2.784-.841A12.624,12.624,0,0,1-11.948,240a39.609,39.609,0,0,1-1.392,6.873Zm7.279-9.831a28.156,28.156,0,0,1,1.566,6.119c.116.812.2,1.044.464,1.044.406,0,1.218-1.421,1.218-2.175,0-.9-1.16-3.016-2.842-5.1Zm4.843,26.413c1.218.783,1.6,1.218,1.6,1.711,0,.7-.87,1.914-4.379,6.177C-5.336,273.689-5.8,274.472-5.8,275.4a3.77,3.77,0,0,0,1.1,2.436,53.622,53.622,0,0,1,4.234,5.249,27.329,27.329,0,0,1,2.436,4.089c.493,1.044.609,1.189.986,1.189.609,0,.986-.638.986-1.74a3.733,3.733,0,0,0-.435-1.914c-.7-1.363-2.175-2.987-5.336-5.916a27.844,27.844,0,0,1-2.03-1.914,2.428,2.428,0,0,1-.87-1.508c0-.551.377-1.218,1.392-2.349A72.159,72.159,0,0,1,2,268.005c1.537-1.247,1.682-1.421,1.682-1.8,0-.406-.174-.7-.638-1.16A6.106,6.106,0,0,0-.174,263.51,1.345,1.345,0,0,0-.783,263.626Zm-11.223,48.018c1.073,1.856,2.2,2.61,3.973,2.61a14.883,14.883,0,0,0,2.784-.29c-1.885,5.452-3.19,8.468-4.553,10.382-.609.87-.638.957-.638,1.421a4.339,4.339,0,0,0,.406,1.682c.174.406.377.58.667.58.609,0,.986-.725,2.146-4.176,1.073-3.161,2.059-6.177,3.016-9.048.029-.087.174-.493.377-1.1a31.365,31.365,0,0,0,5.075-1.711c1.218-.522,1.682-.9,1.682-1.392,0-.232-.145-.406-.464-.522a5.39,5.39,0,0,0-1.537-.319c-.232,0-.348.058-.812.493a10.744,10.744,0,0,1-3.364,1.769,25.8,25.8,0,0,1,1.74-4.147c.348-.493.348-.493.348-.7,0-.435-.435-.841-1.305-1.16a7.355,7.355,0,0,0-2.494-.551,1.532,1.532,0,0,0-.9.261c1.624.551,2.059.928,2.059,1.8a20.8,20.8,0,0,1-.986,4.93,13.513,13.513,0,0,1-3.683.551,3.974,3.974,0,0,1-3.19-1.6ZM.87,316.429a15.868,15.868,0,0,1,5.307-1.073h.232c-.783.783-1.218,1.189-1.421,1.363l-.957.87-.435.435.174.261a3.958,3.958,0,0,0,.58-.348l1.073-.7a7.824,7.824,0,0,1,.957-.551,3.786,3.786,0,0,1,2.233-.58c.841-.058,1.1-.2,1.1-.7a.961.961,0,0,0-.464-.812,3.536,3.536,0,0,0-1.827-.522A13.1,13.1,0,0,0,.7,316.052Zm-1.392,4.9a5.919,5.919,0,0,0-.261,1.827,4.418,4.418,0,0,0,2.465,4.2,12.921,12.921,0,0,0,5.365.928c2.291,0,3.422-.319,3.422-.957a1.145,1.145,0,0,0-.522-.812,3.317,3.317,0,0,0-1.479-.7,1.3,1.3,0,0,0-.493.116,6.942,6.942,0,0,1-2.784.435,8.245,8.245,0,0,1-3.1-.551,3.583,3.583,0,0,1-2.2-3.509c0-.116,0-.464.029-.9Zm5.887-15.312A13.1,13.1,0,0,1,7.6,309.063c.9,1.885.9,1.885,1.276,1.885.493,0,.9-.522.9-1.218s-.406-1.363-1.45-2.32a14.79,14.79,0,0,0-2.581-1.8Zm3.074-1.682a14.225,14.225,0,0,1,3.161,4.118c.232.406.406.551.667.551.435,0,.725-.493.725-1.189,0-.783-.377-1.392-1.479-2.233a14.105,14.105,0,0,0-2.784-1.653ZM3.567,348.555a22.08,22.08,0,0,1,2.349,1.682A18.241,18.241,0,0,1,3.8,351.31c-1.45.58-1.45.58-1.827.754-1.16-1.479-1.914-2.407-2.233-2.784-.9-1.015-1.189-1.392-1.189-1.537,0-.2.29-.319.9-.319a11.654,11.654,0,0,1,1.305.116l.145-.435a10.386,10.386,0,0,0-3.393-.609c-1.247,0-1.972.406-1.972,1.073,0,.406.2.638,1.1,1.131a15.388,15.388,0,0,1,4.031,3.77,19.54,19.54,0,0,1-5.365.9,7.009,7.009,0,0,1-4.64-1.6l-.319.29a6.467,6.467,0,0,0,5.336,2.552,19.793,19.793,0,0,0,5.887-.957,24.037,24.037,0,0,1,3.48,6.438,21.567,21.567,0,0,0-5.684-.754c-4.756,0-7.627,1.74-7.627,4.64,0,2.088,1.537,3.857,4.147,4.727a18.053,18.053,0,0,0,5.684.783c2.03,0,2.523-.174,2.523-.9a2.121,2.121,0,0,0-1.8-1.566,2.142,2.142,0,0,0-.348.058,12.3,12.3,0,0,1-2.523.2,11.4,11.4,0,0,1-4.031-.638,3.285,3.285,0,0,1-2.262-2.929c0-2.088,2.088-3.393,5.423-3.393a12.77,12.77,0,0,1,5.249,1.1,7.641,7.641,0,0,1,1.943,1.363c.406.406.58.493.9.493.58,0,.783-.406.783-1.537a4.2,4.2,0,0,0-.638-2.175,70.367,70.367,0,0,0-3.973-6.264,30.494,30.494,0,0,0,4.234-1.8c1.1-.638,1.6-1.073,1.6-1.508,0-.58-.406-.9-1.131-.9H7.337a.986.986,0,0,1-.29.029,13.5,13.5,0,0,1-3.277-.9Zm-5.307,49.7c-.377.638-.377.638-.841,1.392-1.508,2.523-1.508,2.523-2.436,4.089-.638,1.073-.638,1.073-.957,1.537a4.21,4.21,0,0,1-1.508-2.262,12.421,12.421,0,0,1-.667-4.2,22.679,22.679,0,0,1,.522-4.321,4.944,4.944,0,0,0,.087-.754,3.5,3.5,0,0,0-1.305-2.291,4.3,4.3,0,0,0-2.175-1.421h-.261c1.247,1.624,1.45,2.291,1.479,4.988a32.825,32.825,0,0,0,.2,5.1,13.293,13.293,0,0,0,1.972,5.8c.9,1.334,2.378,2.465,3.19,2.465a.685.685,0,0,0,.638-.725,2.538,2.538,0,0,0-.058-.464,3.476,3.476,0,0,1-.174-.986c0-1.16.609-2.871,2.726-7.743Zm6.467-4.7a8.015,8.015,0,0,1,3.6,3.8,10.532,10.532,0,0,1,.9,3.8c0,.551-.087.667-.667.87-.261.087-1.566.464-3.915,1.1l.087.435c.986-.058,1.537-.058,2.2-.058a3.862,3.862,0,0,1,2.175.348,1.4,1.4,0,0,0,.87.319c.87,0,1.45-.9,1.45-2.291,0-4-2.9-7.859-6.554-8.671Z" transform="translate(550.994 12173.447)" fill="#333"/>
    <path id="パス_4071" data-name="パス 4071" d="M-3.77-.957-2.987-6l-.87-.2c-.58,2.436-1.3,3.074-3.393,3.074h-8.381a8.244,8.244,0,0,1,2.378-3.683c1.276-1.247,2.059-1.827,5.684-4.06,3.219-1.972,4.292-3.451,4.292-5.858A4.685,4.685,0,0,0-4.2-19.807a6.967,6.967,0,0,0-5.568-2.175c-3.886,0-6.786,2.233-6.786,5.22,0,.841.406,1.189,1.479,1.189,1.015,0,1.334-.261,1.392-1.247a7.783,7.783,0,0,1,.29-2.117A3.367,3.367,0,0,1-9.947-21.2,3.815,3.815,0,0,1-6-17.11a4.78,4.78,0,0,1-.638,2.436,9.05,9.05,0,0,1-2.2,2.262c-3.712,3.016-4.93,4.176-6.061,5.8A11.975,11.975,0,0,0-17.052-.957ZM14.471-6.612h3.016V-7.888H14.471V-21.982H12.644L2.175-7.975v1.363h9.831v2.088c0,1.392-.145,2.088-.522,2.378-.319.232-.551.29-1.827.319v.87h6.96v-.87c-1.131-.029-1.363-.087-1.624-.319-.377-.29-.522-.986-.522-2.378ZM12.006-7.888h-8.5l8.5-11.455ZM8.845,27.051h4.321c.174,0,.319-.087.319-.2,0-.058-.058-.116-.174-.232-1.1-.9-1.45-1.189-2.552-2.117L9.222,26.384H4.466v-4.64h7.163c.174,0,.348-.087.348-.2,0-.058-.058-.145-.2-.261-.986-.957-1.305-1.247-2.32-2.146L7.888,21.077H4.466V18.032c.957-.232,1.276-.406,1.276-.638,0-.29-.551-.406-3.335-.7.116,1.276.145,1.74.145,2.233v2.146h-3.6a9.149,9.149,0,0,1-2.407-.261l.232,1.16a6.938,6.938,0,0,1,2.175-.232h3.6v4.64h-3.77a11.9,11.9,0,0,1-2.9-.2l.2,1.1a9.052,9.052,0,0,1,2.7-.232H6.96v3.915H-.7a11.892,11.892,0,0,1-3.074-.29l.261,1.189a9.613,9.613,0,0,1,2.755-.232H6.96v8.5c0,.348-.087.435-.406.435-1.885-.058-2.581-.087-4.669-.232v.435c2,.261,2.581.406,3.045.725A1.9,1.9,0,0,1,5.742,43c1.74-.348,2.378-.609,2.784-1.131.29-.377.319-.609.377-1.943-.029-1.015-.058-3.422-.058-3.77V31.633h4.234c.174,0,.348-.087.348-.2,0-.087-.058-.174-.2-.29-.87-.87-1.16-1.131-2.117-2-.667.783-.9,1.015-1.566,1.827h-.7Zm-19.169,9.425h3.915V38.1c.029.261.145.348.377.348A6.709,6.709,0,0,0-4.785,38.3c.145-.058.2-.145.232-.348-.058-4.988-.058-8.874-.058-11.629V20.787c.667-.319,1.015-.58,1.015-.783,0-.116-.116-.232-.348-.406-.667-.551-.87-.725-1.537-1.276-.493.551-.638.725-1.1,1.276h-3.625a18.347,18.347,0,0,0-2.059-1.392c.116,2.813.145,4.205.145,7.482,0,6.206-.058,9.8-.116,13.485.029.261.145.377.406.377h.087c.087,0,.232-.029.464-.029.783-.029.928-.116.957-.464ZM-6.409,27.4h-3.915V20.265h3.915Zm0,.667v7.743h-3.915V28.066Zm4.785,5.046a14.926,14.926,0,0,1,3.393,4.582c.261.522.435.725.667.725.406,0,.87-.986.87-1.914,0-.58-.377-1.1-1.218-1.711a15.684,15.684,0,0,0-3.451-1.943Zm-2.2,33.808v.87c.087.232.145.29.348.319a6.612,6.612,0,0,0,1.45-.116c.116-.058.145-.145.174-.377-.058-1.769-.087-2.726-.087-4.234V60.221c.609-.348.841-.551.841-.725,0-.087-.058-.2-.261-.377C-2,58.568-2.2,58.394-2.9,57.814c-.464.551-.638.725-1.16,1.305h-5.945c-.9-.58-1.189-.754-2.059-1.305.087,1.653.116,4.234.116,11.774,0,7.279-.029,11.89-.116,14.355.029.232.116.29.377.29a7.773,7.773,0,0,0,1.392-.116c.2-.087.261-.145.29-.348V66.92Zm0-.667h-6.177V63.295h6.177Zm0-3.625h-6.177V59.786h6.177ZM10.034,66.92V81.449c0,.319-.087.406-.522.406-1.8-.029-2.378-.058-4.727-.2v.435c.087,0,.638.116,1.653.29a4.53,4.53,0,0,1,1.537.435A2.311,2.311,0,0,1,8.99,84.146c2.523-.551,3.045-.928,3.132-2.262-.029-2.726-.029-2.726-.029-7.569V60.366c.812-.58.9-.638.9-.841,0-.116-.087-.2-.319-.406-.725-.551-.957-.725-1.74-1.305-.493.551-.667.725-1.189,1.305H3.683c-.87-.58-1.16-.754-2.088-1.276.087,1.131.087,1.363.087,5.539,0,1.624-.029,2.523-.087,4.35,0,.319.087.377.812.377.783,0,1.015-.087,1.073-.435V66.92Zm0-.667H3.48V63.295h6.554Zm0-3.625H3.48V59.786h6.554ZM-3.828,79.477H3.48v1.015c.029.2.145.261.406.261a6.018,6.018,0,0,0,1.247-.116c.2-.087.232-.145.261-.406V80.2c-.058-2.262-.087-3.364-.087-5.336v-3.19c.841-.435.957-.522.957-.7,0-.116-.058-.2-.319-.406-.609-.551-.812-.725-1.421-1.218-.522.493-.7.638-1.247,1.131H-3.509c-.928-.551-1.218-.725-2.175-1.247.058,1.1.087,3.8.087,7.221,0,1.276-.029,2.581-.058,4.959.029.2.116.29.377.29a6.661,6.661,0,0,0,1.189-.145c.2-.058.232-.116.261-.29ZM3.48,74.4H-3.828V71.154H3.48Zm0,.667V78.81H-3.828V75.069Zm-22.591,35.925a9.684,9.684,0,0,0,2.9-.957,4.579,4.579,0,0,0,2.378-3.944c0-2.929-2.7-5.075-6.38-5.075-3.451,0-6.322,2.059-6.322,4.524,0,.783.464,1.1,1.537,1.1,1.015,0,1.276-.29,1.334-1.392.145-2.32,1.247-3.451,3.422-3.451a3.2,3.2,0,0,1,3.016,1.45,5.58,5.58,0,0,1,.725,2.9,4.232,4.232,0,0,1-1.653,3.683,5.925,5.925,0,0,1-3.161.87h-1.276v.928h1.276a7.615,7.615,0,0,1,3.364.7c1.247.667,1.943,2.175,1.943,4.2,0,3.277-1.682,5.191-4.553,5.191a3.633,3.633,0,0,1-2.871-1.073,3.742,3.742,0,0,1-.725-2.61c-.058-.812-.377-1.1-1.218-1.1-1.131,0-1.653.435-1.653,1.363,0,2.407,2.813,4.205,6.583,4.205,4.321,0,7.192-2.378,7.192-5.945a4.881,4.881,0,0,0-2.61-4.495,8.065,8.065,0,0,0-3.248-.812Zm14.877.261a22.287,22.287,0,0,1,.667-5.539c.783-2.61,2.2-3.973,4.234-3.973,1.624,0,2.465.87,2.668,2.755.087.812.377,1.073,1.276,1.073,1.073,0,1.682-.435,1.682-1.189,0-1.8-2.639-3.364-5.626-3.364a6.346,6.346,0,0,0-5.075,2.2c-1.624,1.885-2.552,5.365-2.552,9.57,0,6.322,2.465,9.715,7.076,9.715a6.706,6.706,0,0,0,6.989-7.076,6.9,6.9,0,0,0-1.682-4.669,6.549,6.549,0,0,0-4.7-1.8A6.227,6.227,0,0,0-4.234,111.255Zm-.029,3.654a4.89,4.89,0,0,1,1.479-3.886A4.449,4.449,0,0,1,.29,109.747c2.494,0,4.06,2.2,4.06,5.742a9.5,9.5,0,0,1-.928,4.379,3.756,3.756,0,0,1-3.248,1.914,3.726,3.726,0,0,1-3.335-2.146A9.975,9.975,0,0,1-4.263,114.909Zm20.155-11.194h9.6l.406-2.262H14.935L13.978,113.4l.9.116a5.554,5.554,0,0,1,4.9-3.364,3.836,3.836,0,0,1,3.277,1.653,7.771,7.771,0,0,1,1.044,4.147c0,3.451-1.827,5.742-4.582,5.742a3.159,3.159,0,0,1-3.48-3.045c-.058-.957-.319-1.189-1.247-1.189-1.044,0-1.566.435-1.566,1.276,0,2.03,2.813,3.741,6.206,3.741,4.495,0,7.366-2.639,7.366-6.728,0-3.915-2.523-6.5-6.38-6.5a6.658,6.658,0,0,0-5.133,2.088ZM-8.323,156c-.029,6.177-.029,6.583-.145,9.193.029.29.116.377.435.377a4.3,4.3,0,0,0,1.74-.261.313.313,0,0,0,.087-.261v-1.972H6.38v2.03c0,.174.087.2.493.2a6.211,6.211,0,0,0,1.566-.2.339.339,0,0,0,.232-.319V164.7c-.145-5.771-.2-9.773-.2-12.006L8.5,143.5c.725-.406.986-.638.986-.812,0-.087-.087-.2-.319-.377-.783-.58-1.044-.754-1.856-1.3-.522.551-.667.725-1.189,1.3H-6.032c-.986-.667-1.3-.87-2.32-1.45.058,1.914.087,2.639.087,4.785Zm14.7-3.915H-6.206v-9.106H6.38Zm0,.667V162.4H-6.206v-9.657ZM4.263,183.482v6.206c.058,1.276.435,1.566,2.117,1.537.319,0,1.015,0,2,.029H8.7a19.333,19.333,0,0,0,3.074-.2c.493-.116.812-.406.812-.725,0-.261-.232-.464-.58-.551-.754-.174-.754-.2-.754-.9l-.029-2.465h-.348l-.261,1.073c-.116.464-.2.754-.232.87a7.936,7.936,0,0,1-.319,1.044c-.232.406-.522.493-1.943.493-2.088,0-2.175-.029-2.175-.609v-5.8h3.77a17.549,17.549,0,0,1-1.334,3.248l.174.174a18.2,18.2,0,0,0,3.045-2.929c1.334-.174,1.508-.232,1.508-.493,0-.116-.058-.232-.29-.464a18.952,18.952,0,0,0-2-1.653c-.58.609-.725.783-1.276,1.45H-2.987v-.609c0-.2,0-.464-.029-.841h-.522A5.6,5.6,0,0,1-4.089,184a4.222,4.222,0,0,1-1.189,1.537c-.638.435-.7.493-.7.812a2.885,2.885,0,0,0,.348,1.218.538.538,0,0,0,.493.377,1.978,1.978,0,0,0,1.363-1.073,8.852,8.852,0,0,0,.725-3.393H.116c-.029,2.32-.145,3.161-.638,4.263-.783,1.827-2.088,3.045-4.756,4.408l.174.377c4.785-1.711,6.322-3.306,6.815-6.931a14.379,14.379,0,0,0,.116-2.117Zm-.551,11.542v-2.668c.667-.174.928-.319.928-.551,0-.29-.145-.29-2.929-.464a9.736,9.736,0,0,1,.145,2v1.682H-4.06a7.186,7.186,0,0,1-2.117-.261l.145,1.1a11.839,11.839,0,0,1,1.972-.174H.522A20.929,20.929,0,0,1-4.292,202.1a17.557,17.557,0,0,1-3.393,2.7l.2.348a22.669,22.669,0,0,0,4.872-3.132,16.834,16.834,0,0,0,4.466-5.278v3.335l-.145,6.583c.029.232.116.348.348.348,1.566,0,1.653-.029,1.711-.493-.029-3.016-.029-3.335-.029-3.915-.029-1.334-.029-2.262-.029-2.523v-4.176a14.78,14.78,0,0,0,2.9,4.959,16.078,16.078,0,0,0,4.785,3.77c.551-1.363.986-1.8,2-1.972l.029-.435a12.871,12.871,0,0,1-6.815-3.364,10.953,10.953,0,0,1-2.581-3.161h8.526c.174,0,.261-.029.261-.116a.251.251,0,0,0-.087-.174,29.985,29.985,0,0,0-2.465-2.291c-.725.783-.957,1.044-1.711,1.914ZM-11.426,181.51a6.893,6.893,0,0,1,1.218,1.247c.522.609,1.334,1.682,1.624,2.117.783,1.1.812,1.16,1.044,1.16.493,0,.9-.841.9-1.856,0-.928-1.044-1.624-4.582-2.958Zm-2.03,6.264a11.405,11.405,0,0,1,2.755,2.987c.754,1.247.812,1.334,1.131,1.334q.3,0,.522-.435a4.092,4.092,0,0,0,.29-1.392c0-1.1-1.044-1.769-4.5-2.842Zm.522,10.73c1.566.58,1.624.609,1.856.928a3.863,3.863,0,0,1,.464,2.262,14.559,14.559,0,0,1-.377,3.364,4.79,4.79,0,0,0-.145.87c0,.435.232.754.58.754a2.318,2.318,0,0,0,1.479-.812,3.2,3.2,0,0,0,.667-1.827,9.281,9.281,0,0,0-.667-3.277,4.191,4.191,0,0,1-.348-1.247A5.155,5.155,0,0,1-8.99,198.1l3.538-9.193-.348-.145c-1.769,3.248-2.117,3.915-2.378,4.466-2.639,5.22-2.639,5.22-2.929,5.22a2.768,2.768,0,0,1-.609-.087c-.029,0-.261-.058-.609-.116a3.7,3.7,0,0,0-.522-.116ZM.87,232.776a11.235,11.235,0,0,1,2.639,3.6c.174.348.319.493.464.493.377,0,.87-.986.87-1.74,0-.522-.2-.754-1.276-1.392a14.287,14.287,0,0,0-2.494-1.218Zm.2-1.885c.435-.812.435-.812,1.131-2.117.957-.087,1.392-.261,1.392-.551a.272.272,0,0,0-.174-.232c-.261-.116-1.74-.609-2.958-.986a25.069,25.069,0,0,1-1.74,4.756A29.289,29.289,0,0,1-6.061,238.9l.232.261a15.817,15.817,0,0,0,4.089-3.915,27.364,27.364,0,0,0,4.06,6,32.986,32.986,0,0,1-8.381,6.38l.232.377a22.322,22.322,0,0,0,6.583-3.48c.986-.725,1.711-1.3,2.639-2.117a20.527,20.527,0,0,0,3.451,2.755,14.008,14.008,0,0,0,4.553,2.2c.957-1.537,1.1-1.653,2.378-1.827l.058-.261c-4.785-1.218-6.5-1.943-9.28-4a26.817,26.817,0,0,0,5.481-8.99c1.276-.464,1.392-.522,1.392-.754,0-.116-.087-.232-.29-.406-.667-.493-1.363-1.044-2.117-1.6-.406.435-.812.9-1.218,1.363ZM8,231.558A30.094,30.094,0,0,1,3.219,240.2a17.653,17.653,0,0,1-4.553-5.51A27.908,27.908,0,0,0,.7,231.558Zm-7.337-5.6v-2.9c1.131-.377,1.276-.464,1.276-.667,0-.348-.754-.493-3.393-.7a14.726,14.726,0,0,1,.145,2.291v1.972H-10.44a13.579,13.579,0,0,1-2.755-.319l.261,1.247a15.318,15.318,0,0,1,2.349-.261H13.34c.087,0,.174-.116.174-.232,0-.058-.058-.116-.145-.2-1.276-1.131-1.682-1.479-3.045-2.523l-1.711,2.291Zm-13.862,13.05a23.9,23.9,0,0,0,4.408-4.35l.029,5.249c0,3.712,0,3.712-.116,7.714v.058c0,.29.145.406.522.406.261,0,.754-.058,1.1-.087.261-.058.348-.145.348-.464l-.029-4.7L-6.9,240.4v-5.742c.725-.2,1.015-.377,1.015-.638,0-.232-.377-.348-1.885-.58A29.519,29.519,0,0,0-4.64,228.89h.551c.551,0,1.015-.174,1.015-.377,0-.232-.319-.435-1.624-.957-.348-.116-.9-.348-1.566-.638a20.6,20.6,0,0,1-2.465,5.336,38.446,38.446,0,0,1-4.843,6.5ZM.783,274.936h6v1.16c0,.261.116.348.464.348,1.305,0,1.711-.116,1.711-.551-.116-1.653-.145-3.973-.145-7.83v-2.349c.841-.58.986-.725.986-.928,0-.116-.116-.232-.348-.435-.725-.58-.957-.754-1.74-1.334-.551.609-.551.609-1.218,1.334H-6.9a21.2,21.2,0,0,0-2.2-1.334c.058,1.334.087,2.871.087,5.771,0,2.639-.029,5.394-.087,7.54.029.232.145.319.464.319,1.073,0,1.6-.145,1.6-.493v-1.218H-1.3V279.4H-10.3a10.4,10.4,0,0,1-3.016-.232l.2,1.073a14.363,14.363,0,0,1,2.813-.174H-1.3v1.3c0,3.277-.029,5.162-.087,7.366v.087c0,.174.145.29.435.29a8.688,8.688,0,0,0,1.537-.174.358.358,0,0,0,.261-.406c-.058-1.711-.058-1.711-.058-7.163v-1.3H13.224c.145,0,.261-.087.261-.174s-.058-.174-.2-.348c-1.305-1.1-1.305-1.1-2.784-2.32q-.87.957-2,2.175H.783Zm6-5.713H-7.047v-4.2H6.786Zm0,.667v4.379H-7.047V269.89ZM-5.191,320h2.61v1.131c0,.174.087.232.406.232.928,0,1.566-.174,1.566-.464v-.058c-.087-2.291-.116-3.451-.116-5.539v-2.32c.638-.377.87-.609.87-.754,0-.087-.058-.174-.29-.377-.638-.58-.841-.754-1.537-1.3-.464.551-.638.725-1.131,1.3H-5.191v-3.683H.986a.162.162,0,0,0,.174-.145c0-.058-.058-.145-.174-.29-.9-.9-1.189-1.16-2.117-2.03-.638.783-.841,1.015-1.45,1.8h-2.61V305c.9-.29,1.16-.435,1.16-.638,0-.29-.377-.377-3.277-.754a19.065,19.065,0,0,1,.116,2.755V307.5H-11.02a7.353,7.353,0,0,1-2.2-.232l.2,1.073a9.869,9.869,0,0,1,2-.174h3.828v3.683H-9.57c-.928-.58-1.218-.754-2.233-1.3.174,1.45.174,2.03.174,9.106,0,.232-.029.9-.058,1.885v.058c0,.2.058.261.348.261a5.194,5.194,0,0,0,1.218-.145c.2-.058.232-.087.232-.29V320h2.7v3.857H-11.02a9.376,9.376,0,0,1-2.32-.232l.174,1.131a9.337,9.337,0,0,1,2.146-.232h3.828v.522c0,1.653,0,2.523-.058,4.872,0,.174.087.232.348.232,1.363,0,1.711-.087,1.74-.406-.029-1.218-.029-1.218-.029-4.814v-.406H.116c.2,0,.319-.058.319-.145a.753.753,0,0,0-.116-.29c-.9-.87-1.189-1.131-2.088-1.914-.609.7-.783.928-1.392,1.682h-2.03Zm-4.7-4.64v-2.842h7.308v2.842Zm7.308.667v3.306H-9.889v-3.306ZM9.6,319.329v7.714c0,.232-.058.29-.261.29H9.28c-2.233-.029-2.929-.058-4.872-.174l-.029.406a10.884,10.884,0,0,1,3.364.841,1.543,1.543,0,0,1,.986,1.334,5.079,5.079,0,0,0,2.233-.812,1.677,1.677,0,0,0,.725-1.6c-.116-2.523-.116-2.987-.116-5.655v-14.79c.58-.377.812-.609.812-.754,0-.116-.087-.232-.319-.435-.667-.58-.9-.754-1.6-1.3-.464.551-.609.725-1.073,1.3H4.408a21.587,21.587,0,0,0-2.291-1.218c.087,1.6.116,2.436.116,5.8,0,7.337-.174,9.744-.812,12.18a16.379,16.379,0,0,1-4.292,7.279l.29.348a15.709,15.709,0,0,0,4.176-4.524,16.441,16.441,0,0,0,2.146-6.235ZM4.118,312.05l.029-3.944v-1.74H9.6v5.684Zm5.481.667v5.945H3.828a53.631,53.631,0,0,0,.29-5.945Z" transform="translate(612.203 12173.182)" fill="#333"/>
    <path id="パス_4070" data-name="パス 4070" d="M-11.571-16.008A4.821,4.821,0,0,0-7.25-13.63a13.571,13.571,0,0,0,2.262-.2c-.087,2.871-.087,2.871-.145,4.176-.029.551-.029.986-.058,1.392A14.4,14.4,0,0,0-9.8-5.278a2.51,2.51,0,0,0-.87,1.624,1.379,1.379,0,0,0,.957,1.218,11.971,11.971,0,0,1,1.943,1.3C-6,.435-6,.435-5.6.435A1.762,1.762,0,0,0-4.2-.638a3.4,3.4,0,0,0,.377-1.711c0-.232,0-.551-.029-1.1-.029-.87-.029-.87-.029-3.944A18.736,18.736,0,0,1,3.973-9.483c2.784,0,4.292,1.218,4.292,3.451A3.666,3.666,0,0,1,4.64-2.059a3.879,3.879,0,0,1-2.755-1.1A8.618,8.618,0,0,1,.145-5.684l-.435.145C.725-2.175,2.639-.406,5.307-.406a4.94,4.94,0,0,0,4.959-5.046c0-3.074-2.494-4.959-6.467-4.959a21.483,21.483,0,0,0-7.685,1.6c.029-1.74.087-3.016.116-3.8.058-1.044.058-1.044.087-1.45A20.165,20.165,0,0,0,.551-15.486c1.044-.493,1.305-.725,1.305-1.131a.739.739,0,0,0-.493-.638,3.533,3.533,0,0,0-1.1-.261,1.377,1.377,0,0,0-.7.29A8.31,8.31,0,0,1-3.6-15.544a11,11,0,0,1,.9-4.321c.319-.58.319-.58.319-.754a1.188,1.188,0,0,0-.638-.928A6.777,6.777,0,0,0-6-22.272a1.63,1.63,0,0,0-1.247.406c2,.348,2.349.957,2.349,4,0,.522,0,1.827-.029,2.668a12.722,12.722,0,0,1-2.9.377A4.847,4.847,0,0,1-11.281-16.3Zm6.293,9.28c0,.174-.058,1.595-.2,4.2C-5.51-2-5.655-1.8-6-1.8a6.065,6.065,0,0,1-1.8-.464c-.783-.29-1.16-.609-1.16-.9q0-.479.87-1.392A12.146,12.146,0,0,1-5.278-6.728ZM4.814-18.821a8.067,8.067,0,0,1,2,.754,4.371,4.371,0,0,1,1.827,1.8,20.494,20.494,0,0,1-3.161,1.856l.174.29a18.728,18.728,0,0,1,3.567-.783,3.833,3.833,0,0,1,.609.058,1.692,1.692,0,0,0,.435.058.8.8,0,0,0,.87-.841,3.3,3.3,0,0,0-2.03-2.552,9.614,9.614,0,0,0-4.263-1.044ZM.928,24.035a21.172,21.172,0,0,0,3.161-3.393c1.247-.348,1.247-.348,1.421-.464a.576.576,0,0,0,.174-.261c0-.116-.145-.29-.464-.609C4.437,18.7,4.2,18.5,3.335,17.858c-.522.667-.7.87-1.16,1.45H-3.567c.493-.667.551-.725,1.073-1.508,1.276-.348,1.363-.406,1.363-.609s-.2-.29-2.088-.725c-.29-.058-.7-.174-1.247-.29A14.96,14.96,0,0,1-6.7,20.555a23.93,23.93,0,0,1-5.162,6.09l.29.319a19.952,19.952,0,0,0,3.886-2.9l.116.812c1.276-.116,2.407-.174,3.1-.174H7.163V27.95H-5.162c-.522,0-2.175-.116-3.219-.2l.174,1.015c.812-.058,2.552-.145,3.045-.145H7.163v3.6H-4.35c-1.624,0-3.045-.087-4.582-.232l.319,1.131a43.33,43.33,0,0,1,4.466-.232H7.163v.812c0,.2.174.29.551.29,1.1,0,1.508-.116,1.508-.464V33.4c-.058-3.567-.058-3.915-.058-5.858V25.4c.2-.116.348-.232.435-.29a3.069,3.069,0,0,0,.522-.377.433.433,0,0,0,.087-.2c0-.145-.116-.29-.348-.493-.725-.58-.928-.754-1.711-1.305-.609.667-.609.667-1.16,1.305Zm-5.394,0a25.838,25.838,0,0,1-2.987-.2A31.126,31.126,0,0,0-4.06,19.975H2.175a23.2,23.2,0,0,1-1.943,4.06ZM-8,34.765c-.754,2.407-1.74,3.6-3.393,4.089-.87.232-.957.319-.957.87,0,1.218.29,1.827.841,1.827.522,0,1.131-.406,1.827-1.189,1.247-1.392,1.8-2.9,2.088-5.51Zm6.061-.435A9.066,9.066,0,0,1,.2,36.244a14.92,14.92,0,0,1,1.218,1.711c.261.435.464.609.638.609.522,0,.957-.754.957-1.595a1.446,1.446,0,0,0-.928-1.421,16,16,0,0,0-3.857-1.537Zm9.4.841a15.056,15.056,0,0,1,3.1,4.582c.551,1.45.551,1.45.754,1.653a1.075,1.075,0,0,0,.493.232c.319,0,.58-.232.783-.667a3.132,3.132,0,0,0,.377-1.247c0-1.247-2.03-3.132-5.191-4.9ZM5.916,36.215c-.725,2.958-1.16,4.176-1.479,4.321a24.786,24.786,0,0,1-3.886.145,23.938,23.938,0,0,1-3.77-.116c-.232-.087-.29-.2-.29-.638V35.838c.812-.2,1.073-.348,1.073-.609,0-.29-.957-.464-3.1-.58a11.883,11.883,0,0,1,.058,1.421v1.421c0,.638,0,.783-.029,3.161A1.392,1.392,0,0,0-4.437,42.16a14.651,14.651,0,0,0,3.857.232,59.913,59.913,0,0,0,6.9-.232c.7-.116,1.044-.406,1.044-.812,0-.29-.2-.522-.609-.754-.58-.319-.609-.319-.609-.551v-.406l.145-3.364Zm-16.1,27.776a5.534,5.534,0,0,0,4.234,2.117A18.8,18.8,0,0,0-.551,65.18c.464.725,1.508,2.523,2.03,3.48a21.746,21.746,0,0,1-6.206,1.131A3.776,3.776,0,0,1-8.149,68.08l-.348.261a4.421,4.421,0,0,0,1.392,1.74,5,5,0,0,0,3.016.841,20.219,20.219,0,0,0,6.177-1.131,31.5,31.5,0,0,1,2.175,4.93,26.07,26.07,0,0,0-5.452-.638c-4.582,0-7.656,1.74-7.656,4.35a4.168,4.168,0,0,0,2.813,3.654,15.228,15.228,0,0,0,5.568.87,14.648,14.648,0,0,0,3.973-.435.575.575,0,0,0,.435-.551c0-.7-1.044-1.508-1.914-1.508a2.141,2.141,0,0,0-.348.058,15.488,15.488,0,0,1-3.654.377c-3.567,0-5.481-.957-5.481-2.755a2.614,2.614,0,0,1,1.74-2.349,7.951,7.951,0,0,1,3.625-.812,11.574,11.574,0,0,1,6.728,2c.464.377.551.435.812.435.58,0,.957-.754.957-1.885a2.763,2.763,0,0,0-.493-1.566l-.435-.725c-.174-.261-.464-.783-.9-1.566-.377-.638-.551-.986-1.305-2.262C7.221,68.022,8.9,67.123,8.9,66.456a.717.717,0,0,0-.783-.725H7.888l-.522.058a5.56,5.56,0,0,1-2.436-.812l-.2.319A9.539,9.539,0,0,1,6.235,66.63a18.116,18.116,0,0,1-3.6,1.624c-.725-1.218-1.305-2.175-1.711-2.842C.9,65.325.754,65.122.58,64.8c4.756-1.566,5.8-2.03,5.8-2.639,0-.493-.58-.754-1.711-.754a1.158,1.158,0,0,0-.9.29A10.072,10.072,0,0,1-.058,63.759c-1.073-2.117-1.1-2.2-1.189-2.9-.058-.812-.087-.9-.348-1.131a3.469,3.469,0,0,0-1.972-.377A4.956,4.956,0,0,0-4.9,59.5c-.783.174-.957.29-1.16.783a4.5,4.5,0,0,1,2.233.609,13.044,13.044,0,0,1,2.494,3.219,15.822,15.822,0,0,1-4.756.87A5.889,5.889,0,0,1-9.947,63.7Zm16.53-4.727a13.1,13.1,0,0,1,2.233,3.045c.9,1.885.9,1.885,1.276,1.885.493,0,.9-.522.9-1.218s-.406-1.363-1.45-2.32a14.79,14.79,0,0,0-2.581-1.8Zm3.074-1.682A14.622,14.622,0,0,1,12.586,61.7c.232.435.406.58.667.58.435,0,.725-.493.725-1.189,0-.812-.377-1.392-1.479-2.233a14.224,14.224,0,0,0-2.784-1.682ZM-.029,122.913a17.3,17.3,0,0,0,5.655-1.8c3.654-1.943,5.771-5.162,5.771-8.787a8.854,8.854,0,0,0-2.784-6.815,11.019,11.019,0,0,0-7.482-2.668,14.062,14.062,0,0,0-9.976,4.06,9.063,9.063,0,0,0-2.61,5.742,5.569,5.569,0,0,0,.667,2.639,18.052,18.052,0,0,1,1.276,2.726,5.693,5.693,0,0,0,.812,1.856,1.683,1.683,0,0,0,1.276.609c1.073,0,2.494-1.421,4.321-4.321,2.2-3.538,3.828-7.772,3.828-10.034a3.784,3.784,0,0,0-.9-2.407,6.676,6.676,0,0,1,1.015-.058,9.573,9.573,0,0,1,5.017,1.334A7.194,7.194,0,0,1,9.135,111.4a10.315,10.315,0,0,1-2.581,6.989A13.189,13.189,0,0,1-.232,122.42Zm-.754-19.082a3.237,3.237,0,0,1,.406,1.45c0,1.8-1.537,5.539-3.683,8.961-1.421,2.262-2.813,3.828-3.451,3.828-.319,0-.7-.319-1.1-.841a6.786,6.786,0,0,1-1.16-3.828C-9.773,108.935-5.829,104.73-.783,103.831Zm-6.67,40.42a6.757,6.757,0,0,0,2.03,1.682,7.917,7.917,0,0,0,3.306.783c.522,0,1.537-.029,2.175-.087l-.551.348-1.885,1.015c-.783.435-1.305.725-2.117,1.218l.2.435a48.168,48.168,0,0,1,7.743-2.871c1.943-.406,2.117-.522,2.117-1.015a1.99,1.99,0,0,0-1.74-1.508,2.942,2.942,0,0,0-.522.116,22.614,22.614,0,0,1-6.032.87,6.8,6.8,0,0,1-4.437-1.276Zm-1.1,11.049a7.888,7.888,0,0,0-.464,2.465,5.552,5.552,0,0,0,2.407,4.553c1.45.986,3.509,1.392,6.757,1.392a33.3,33.3,0,0,0,6.757-.58c.609-.145.928-.464.928-.9a1.384,1.384,0,0,0-.638-1.015,3.165,3.165,0,0,0-1.6-.58,1.473,1.473,0,0,0-.493.087A18.643,18.643,0,0,1-1.3,161.8c-4.669,0-6.844-1.624-6.844-5.075,0-.348.029-.667.087-1.3ZM5.684,141.786a12.929,12.929,0,0,1,2.2,3.074c.928,1.885.928,1.885,1.3,1.885.493,0,.9-.522.9-1.218s-.406-1.363-1.45-2.32a14.79,14.79,0,0,0-2.581-1.8ZM8.729,140.1a14.854,14.854,0,0,1,3.19,4.147c.232.406.406.551.667.551.435,0,.725-.493.725-1.189,0-.812-.377-1.392-1.508-2.233a13.1,13.1,0,0,0-2.755-1.653Zm4.64,63.968a16.792,16.792,0,0,1-5.742-4.611,18.173,18.173,0,0,1-2.436-4.06,34.931,34.931,0,0,0,5.423-3.741c.464.029.58.029.754.029.406,0,.667-.116.667-.29,0-.319-.406-.58-2.871-2a13.138,13.138,0,0,1-2.233,3.248,18.212,18.212,0,0,1-1.972,2.175,24.651,24.651,0,0,1-1.74-6.873h9.512c.232,0,.377-.087.377-.2a.463.463,0,0,0-.087-.232,34.26,34.26,0,0,0-2.639-2.378c-.725.9-.928,1.189-1.6,2.146H3.538v-4.814c1.1-.435,1.247-.522,1.247-.725,0-.319-.348-.406-3.335-.754a21.291,21.291,0,0,1,.116,2.552v3.741h-5.1a14.144,14.144,0,0,1-2.755-.29l.261,1.16a17.02,17.02,0,0,1,2.291-.2H.348a17.237,17.237,0,0,1-2.32,4.089,42.077,42.077,0,0,1-5.887,6.67l.348.377a43.268,43.268,0,0,0,5.452-4.64v8.468a25.167,25.167,0,0,1-4.118.667c.58,2.639.754,3.161,1.073,3.161.29,0,.435-.319.493-1.16a68.05,68.05,0,0,0,9.86-4.234l-.145-.319c-1.856.58-2.668.812-5.307,1.45V192.414a24.4,24.4,0,0,0,2.784-4.379,34.386,34.386,0,0,0,3.654,12.5,15.52,15.52,0,0,0,4.5,5.51c.754-1.131,1.421-1.624,2.175-1.624h.319Zm-27.028-8.5a24.067,24.067,0,0,0,3.538-4.292v7.888c-.058,4.147-.087,6.67-.116,7.511v.087c0,.261.145.377.493.377A7.219,7.219,0,0,0-8.381,207c.145-.058.2-.116.232-.348l-.029-7.859V191.37c.841-.319,1.015-.435,1.015-.609,0-.261-.348-.406-1.508-.58a3.29,3.29,0,0,1-.667-.087,54.258,54.258,0,0,0,4.031-7.6c1.1-.174,1.45-.319,1.45-.58s-.58-.464-3.451-1.189a24.431,24.431,0,0,1-2.03,5.974,42.049,42.049,0,0,1-4.669,8.555Zm10.614,40.449v.87c.058.087.087.116.232.116H-2c.522,0,.7-.116.7-.406-.058-3.654-.058-3.683-.058-5.887.58-.29.812-.522.812-.725,0-.116-.116-.232-.348-.406-.58-.377-.754-.493-1.305-.9-.435.377-.551.493-.986.9h-2.7v-2.958H-.406c.145,0,.29-.087.29-.2a.463.463,0,0,0-.087-.232,21.128,21.128,0,0,0-2.088-1.885c-.551.7-.754.957-1.305,1.653H-5.887v-2.842c.986-.232,1.305-.377,1.305-.638,0-.319-.2-.348-3.132-.638a37.565,37.565,0,0,1,.145,3.886v.232h-3.77a6.7,6.7,0,0,1-2.059-.232l.174,1.073a9.782,9.782,0,0,1,1.74-.174h3.915v2.958h-2.668a7.979,7.979,0,0,0-1.827-1.131c.058.986.087,1.624.087,2.349,0,2.378-.029,4.7-.087,6.09,0,.348.087.406.522.406,1.073,0,1.276-.058,1.305-.406v-.87h2.291a24.6,24.6,0,0,1-2.03,4,30.013,30.013,0,0,1-4.118,5.423l.319.406a17.544,17.544,0,0,0,3.364-3.074,15.777,15.777,0,0,0,2.987-4.35v2.2c0,2.03,0,2.03-.232,7.337,0,.2.087.29.29.319,1.595-.116,1.595-.116,1.595-.58-.116-3.48-.116-4.524-.116-9.164a20.249,20.249,0,0,1,2.726,2.784C-2,242.9-1.885,243.042-1.6,243.042c.319,0,.522-.377.522-.957a3.55,3.55,0,0,0-.2-1.218,4.5,4.5,0,0,0-2.175-1.682c-2.117-.9-2.117-.9-2.436-1.073v-2.088Zm0-.667H-5.887v-5.1h2.842Zm-4.524,0h-2.668v-5.1h2.668Zm21.257-11.049c.116,0,.232-.087.232-.174a.53.53,0,0,0-.174-.29c-1.044-.928-1.363-1.189-2.436-2.059-.667.812-.87,1.044-1.566,1.856H.7a6.592,6.592,0,0,1-1.769-.2l.261,1.073a7.209,7.209,0,0,1,1.508-.2H4.814a22.16,22.16,0,0,1-.725,3.712H2.726c-.9-.435-1.189-.58-2.088-1.044.116,1.218.116,1.827.116,8.642,0,.87-.029,1.508-.116,6.38v.058c0,.232.116.348.377.348a12.057,12.057,0,0,0,1.3-.116c.116-.058.145-.116.174-.29v-.58h7.25v.812c.029.174.087.232.406.232,1.16,0,1.566-.116,1.566-.406V242c-.087-4.35-.116-8.874-.116-10.962v-2.03c.58-.319.783-.493.783-.7,0-.087-.087-.2-.29-.377-.435-.319-.928-.667-1.479-1.1a10.453,10.453,0,0,0-1.073,1.189H4.7a23.914,23.914,0,0,0,2.465-3.712Zm-3.944,7.656H2.494v-3.277h7.25Zm0,.667V236.2H2.494v-3.567Zm0,4.234v3.886H2.494v-3.886ZM-4.2,248.146a22.1,22.1,0,0,0,7.83-3.538c.319.029.609.029.841.029.406,0,.725-.145.725-.377q0-.13-.348-.348c-.116-.058-.435-.261-.9-.551-.261-.145-.7-.406-1.218-.725a16.569,16.569,0,0,1-2.407,2.378,21.187,21.187,0,0,1-4.64,2.784Zm10.788-5.191a27.964,27.964,0,0,1,3.451,2.349,17.48,17.48,0,0,1,2.2,2.146c.261.29.435.406.638.406.319,0,.522-.493.522-1.276a3.268,3.268,0,0,0-.232-.957c-.261-.638-1.1-1.131-2.987-1.827-2.668-.986-2.668-.986-3.393-1.276ZM-9.483,268.7c1.45,1.943,2.639,2.494,5.394,2.494.986,0,2.146-.058,3.741-.2v.348l.058,2.117v2.03a23.884,23.884,0,0,1-2.813.2,6.12,6.12,0,0,1-3.393-.638c-.435-.348-.58-.754-.609-1.653l-.435-.029c-.029.319-.058.609-.058.812a2.524,2.524,0,0,0,1.3,2.2,7.936,7.936,0,0,0,3.857.638c.435,0,.986-.029,2.146-.087v2.523c0,.406,0,.609.029,2-.7-.029-.986-.029-1.45-.029-3.857,0-6.554,1.45-6.554,3.509,0,1.827,2,3.1,4.9,3.1a6.516,6.516,0,0,0,3.886-1.073,2.894,2.894,0,0,0,.986-2.436c0-.348-.029-.638-.087-1.276a10.386,10.386,0,0,1,2.9,1.218,16.614,16.614,0,0,1,2.436,1.8c.754.725.87.812,1.16.812.377,0,.638-.406.638-1.015a2.5,2.5,0,0,0-.841-1.914,15.044,15.044,0,0,0-6.38-2.494c-.087-.725-.116-1.16-.174-2.262-.029-1.015-.029-1.479-.087-2.61a31.17,31.17,0,0,0,4.727-.841c1.827-.493,2.233-.725,2.233-1.247a.6.6,0,0,0-.348-.551,3.36,3.36,0,0,0-1.479-.435.7.7,0,0,0-.435.116,4.523,4.523,0,0,1-1.45.725,24.094,24.094,0,0,1-3.306.783c-.029-1.276-.029-1.856-.029-2.639,0-.667,0-1.1.029-1.856a49.155,49.155,0,0,0,5.539-1.015c1.8-.435,2.262-.667,2.262-1.073a.87.87,0,0,0-.493-.7,3.7,3.7,0,0,0-1.508-.493.824.824,0,0,0-.348.116c-.957.667-2.523,1.16-5.394,1.711a9.364,9.364,0,0,1,.522-3.074c.377-.812.377-.812.377-.986,0-.435-.29-.725-.986-.957A8.094,8.094,0,0,0-1.45,264c-.812,0-1.044.058-1.45.464,2.2.319,2.407.725,2.523,5.162a26.457,26.457,0,0,1-4.147.348,5.946,5.946,0,0,1-4.669-1.566Zm9.164,14.181v.087c0,.232-.029.9-.058,1.1a2.213,2.213,0,0,1-.638,1.508,4.8,4.8,0,0,1-3.306,1.044c-1.972,0-3.161-.609-3.161-1.653q0-1.131,1.566-1.74a9.026,9.026,0,0,1,3.161-.551A17.045,17.045,0,0,1-.319,282.882Zm-11.455,26.326a1.258,1.258,0,0,0-.319.783,4.142,4.142,0,0,0,.754,1.943,3.2,3.2,0,0,0,2.233,1.711,1.911,1.911,0,0,0,1.16-.406,49.035,49.035,0,0,1,12.963-3.886A15.031,15.031,0,0,0,.29,312.688a10.746,10.746,0,0,0-3.161,7.076,7.7,7.7,0,0,0,3.364,6.5,11.977,11.977,0,0,0,5.916,2.088c.609,0,1.044-.348,1.044-.812a2.374,2.374,0,0,0-.87-1.392,1.444,1.444,0,0,0-1.218-.464,8.764,8.764,0,0,1-2.929-.7,5.885,5.885,0,0,1-3.857-5.655c0-4.959,4.785-9.686,9.744-9.686a3.968,3.968,0,0,1,.812.058,4.1,4.1,0,0,0,.551.029c.551,0,.9-.29.9-.725,0-.377-.261-.754-.841-1.1a3.872,3.872,0,0,0-1.566-.609,3.653,3.653,0,0,0-1.015.232,31.763,31.763,0,0,1-3.915.957c-2,.377-3.654.754-4.7,1.015-6.525,1.566-7.25,1.711-8.062,1.711a1.644,1.644,0,0,1-1.305-.493A3.157,3.157,0,0,1-11.774,309.208ZM6.032,313.7a13.911,13.911,0,0,1,2.233,3.074c.9,1.885.9,1.885,1.276,1.885.493,0,.9-.522.9-1.218s-.406-1.363-1.45-2.32a14.79,14.79,0,0,0-2.581-1.8Zm3.045-1.653a13.842,13.842,0,0,1,3.19,4.118c.232.406.406.551.667.551.435,0,.725-.493.725-1.189,0-.783-.377-1.392-1.479-2.233A14.1,14.1,0,0,0,9.4,311.644Z" transform="translate(673.26 12173.447)" fill="#333"/>
    <path id="パス_4069" data-name="パス 4069" d="M-6.96-12.093a32.237,32.237,0,0,0,3.6-5.307c1.305-.29,1.45-.348,1.45-.58,0-.087-.058-.174-.319-.464-.7-.609-.928-.812-1.711-1.45-.609.609-.812.783-1.392,1.45H-6.96v-4.263c.87-.29,1.1-.435,1.1-.667,0-.29-.377-.377-1.769-.493-.319-.029-.812-.087-1.45-.145a9.832,9.832,0,0,1,.232,2.523v3.045h-2.32a10.84,10.84,0,0,1-2.262-.261l.2,1.073a15.319,15.319,0,0,1,2.059-.145h5.829A29.9,29.9,0,0,1-8.9-11.832,27.407,27.407,0,0,1-13.746-6.7l.319.435A24.22,24.22,0,0,0-8.845-9.947V-4.9C-8.9-.725-8.932,1.508-8.932,1.827c.087.232.2.29.638.29h.377c.725,0,.957-.116,1.044-.493C-6.931.261-6.931.261-6.96-5.046v-6.235A12.773,12.773,0,0,1-3.393-7.975c.522.783.551.812.725.957a1.856,1.856,0,0,0,.319.174c.348,0,.638-.667.638-1.392a2.162,2.162,0,0,0-1.334-2.03A15.715,15.715,0,0,0-6.96-11.8ZM3.19-13.282V-.145H-1.943A20.8,20.8,0,0,1-4.959-.377L-4.7.725a14,14,0,0,1,2.755-.2H13.224c.145,0,.29-.087.29-.2a.377.377,0,0,0-.145-.2,36.183,36.183,0,0,0-2.7-2.523c-.9.986-1.16,1.3-1.943,2.262H5.191V-13.282h7.25a.286.286,0,0,0,.29-.232.5.5,0,0,0-.116-.2c-1.16-1.073-1.537-1.392-2.755-2.407L8.178-13.949H5.191v-8.729c.841-.319,1.16-.522,1.16-.754,0-.261-.348-.377-1.856-.522-.29-.029-.9-.087-1.508-.174a24.18,24.18,0,0,1,.2,3.625v6.554H-.928a12.212,12.212,0,0,1-2.552-.232l.232,1.1a18.156,18.156,0,0,1,2.32-.2Zm.319,37.317h9.222c.2,0,.319-.058.319-.174a.571.571,0,0,0-.116-.232c-1.073-.928-1.392-1.218-2.494-2.117-.783.783-1.015,1.044-1.769,1.856H-9.8a11.233,11.233,0,0,1-2.668-.29l.2,1.131A10.707,10.707,0,0,1-9.8,24.035h3.393a16.006,16.006,0,0,1-2.059,2.813,20.525,20.525,0,0,1-4.611,4.06l.261.406a17.14,17.14,0,0,0,4.466-2.755,7.871,7.871,0,0,1,2.233,2.262c.174.232.232.29.464.319a26.017,26.017,0,0,1-7.54,3.886l.145.464a26.074,26.074,0,0,0,6.728-2.407A15.418,15.418,0,0,0-.116,27.428c.986-.319,1.131-.377,1.131-.551,0-.087-.058-.174-.261-.348-.638-.522-.841-.667-1.508-1.189-.522.435-.667.551-1.16,1.015H-6a14.643,14.643,0,0,0,1.769-2.32H1.74v7.424c.058,1.479.319,1.566,4.988,1.566,5.394,0,6.177-.145,6.177-1.1a.705.705,0,0,0-.609-.7c-.522-.2-.522-.2-.522-.348v-.667l.174-2.291-.348-.029a28.258,28.258,0,0,1-1.3,3.219c-.174.29-.319.319-1.421.319H7.685c-.754.029-1.189.029-1.45.029-.783,0-2.175-.058-2.378-.087-.29-.058-.348-.145-.348-.551V29.168a28.6,28.6,0,0,0,6.148-2.175c.377,0,.928.029,1.044.029.348,0,.551-.087.551-.261,0-.2-.377-.435-2.465-1.566a19.114,19.114,0,0,1-5.278,3.451Zm-5.423,2.987a14.628,14.628,0,0,1-3.277,3.77,1.586,1.586,0,0,0,.232-.841c0-.493-.319-.754-1.305-1.131a9.466,9.466,0,0,0-1.8-.493c.58-.493.87-.754,1.421-1.305Zm-1.131-7.6V18c.957-.261,1.218-.377,1.218-.58,0-.261-.319-.348-1.711-.493-.319-.029-.841-.087-1.45-.174a13.02,13.02,0,0,1,.116,1.856c0,.232,0,.493-.029.812H-10.44a10.522,10.522,0,0,1-2.523-.232l.2,1.044a12.97,12.97,0,0,1,2.32-.145H-4.9c0,.522-.029.841-.087,1.827.029.174.116.232.29.232a4.919,4.919,0,0,0,1.566-.145c.087-.058.116-.116.116-.29-.029-.377-.058-.58-.058-.754l.029-.522v-.348H2.523c0,.551-.029.87-.058,1.8,0,.2.058.261.348.261,1.305,0,1.566-.058,1.6-.406-.029-.783-.029-1.044-.029-1.653h8.874c.174,0,.29-.058.29-.174a.571.571,0,0,0-.116-.232c-1.189-.957-1.566-1.247-2.726-2.175-.783.783-1.044,1.044-1.856,1.914H4.379c0-.319,0-.319.029-1.421.986-.261,1.218-.377,1.218-.58,0-.261-.725-.406-3.219-.667a14.31,14.31,0,0,1,.145,2.436,1.1,1.1,0,0,0-.029.232ZM-10.121,36.07a10.305,10.305,0,0,1-2.465-.2l.2,1.044a10.077,10.077,0,0,1,2.262-.174h5.278a6.214,6.214,0,0,1-1.624,3.451c-1.247,1.305-2.958,2.088-6.351,2.929l.116.435c3.567-.377,6.032-1.276,7.83-2.871a6.211,6.211,0,0,0,1.943-3.944H2.523v1.914c0,1.479-.029,2.291-.116,4.234,0,.232.087.319.348.319a5.345,5.345,0,0,0,1.537-.174.272.272,0,0,0,.145-.261c-.058-3.364-.058-3.538-.058-4.263V36.737h8.787c.116,0,.261-.116.261-.2a.571.571,0,0,0-.116-.232c-1.131-.986-1.479-1.276-2.668-2.175-.783.783-1.015,1.044-1.8,1.943H4.408V34.823c.957-.406,1.015-.435,1.015-.638,0-.261-.232-.29-3.016-.551a17.582,17.582,0,0,1,.116,2.436H-2.842c.058-.377.058-.493.145-1.363.928-.319,1.073-.377,1.073-.58s-.493-.348-1.74-.522c-.319-.029-.783-.116-1.392-.2a6.44,6.44,0,0,1,.116,1.247,12.831,12.831,0,0,1-.087,1.421ZM-.029,81.913a17.3,17.3,0,0,0,5.655-1.8C9.28,78.172,11.4,74.953,11.4,71.328a8.854,8.854,0,0,0-2.784-6.815,11.019,11.019,0,0,0-7.482-2.668A14.062,14.062,0,0,0-8.845,65.9a9.063,9.063,0,0,0-2.61,5.742,5.569,5.569,0,0,0,.667,2.639,18.052,18.052,0,0,1,1.276,2.726A5.693,5.693,0,0,0-8.7,78.868a1.683,1.683,0,0,0,1.276.609c1.073,0,2.494-1.421,4.321-4.321C-.9,71.618.725,67.384.725,65.122a3.784,3.784,0,0,0-.9-2.407,6.675,6.675,0,0,1,1.015-.058,9.573,9.573,0,0,1,5.017,1.334A7.194,7.194,0,0,1,9.135,70.4a10.315,10.315,0,0,1-2.581,6.989A13.189,13.189,0,0,1-.232,81.42ZM-.783,62.831a3.237,3.237,0,0,1,.406,1.45c0,1.8-1.537,5.539-3.683,8.961C-5.481,75.5-6.873,77.07-7.511,77.07c-.319,0-.7-.319-1.1-.841A6.786,6.786,0,0,1-9.773,72.4C-9.773,67.935-5.829,63.73-.783,62.831Zm7.743,46.51v.464c0,.232.087.29.319.29h.087c.116,0,.29-.029.522-.029.783-.029.957-.116.957-.464-.058-1.305-.058-1.363-.058-3.48.725-.377.841-.464.841-.667,0-.087-.058-.174-.261-.319-.667-.522-.87-.667-1.6-1.16-.493.464-.638.609-1.073,1.044H.7v-2.262H13.021c.116,0,.232-.087.232-.145a.521.521,0,0,0-.116-.261,24.883,24.883,0,0,0-2.465-2.117c-.725.783-.928,1.015-1.653,1.856H.7v-2c.87-.261,1.131-.406,1.131-.638,0-.319-.2-.377-3.132-.754a33.461,33.461,0,0,1,.145,3.393h-9.6a6.557,6.557,0,0,1-1.943-.2l.116.986a9.531,9.531,0,0,1,1.8-.116H-1.16v2.262H-7.105c-.783-.464-1.044-.609-1.885-1.044.029.783.029,1.015.029,1.972,0,1.653-.029,2.523-.087,4.292,0,.2.087.261.319.261a10.216,10.216,0,0,0,1.305-.116c.145-.058.2-.145.2-.348v-.7H-1.16v2.349H-8.729a4.444,4.444,0,0,1-1.6-.2l.116.986a6.429,6.429,0,0,1,1.479-.116H-1.16v2.7H-11.223a6.817,6.817,0,0,1-1.8-.2l.145.986a9.01,9.01,0,0,1,1.653-.116H-1.16v2.9H-8.352a7.35,7.35,0,0,1-1.972-.232l.116,1.044a9.036,9.036,0,0,1,1.8-.145h7.25v3.248c0,.261-.087.348-.435.348h-.812c-.841,0-1.16,0-4.466-.2v.435c4.292.7,4.466.783,4.524,2.175,1.972-.435,2.7-.754,2.987-1.218.145-.232.174-.435.174-1.218l-.058-2.146a13.142,13.142,0,0,0-.029-1.421H7.279v1.624c0,.2.145.29.464.29a7.289,7.289,0,0,0,1.392-.145c.145-.058.2-.145.2-.348-.029-.7-.058-2.378-.087-4.988h4.234c.145,0,.261-.087.261-.174q0-.087-.174-.261c-.928-.9-1.218-1.16-2.175-1.972-.7.754-.9.986-1.595,1.74H9.251l-.029-2.233c.754-.464.841-.551.841-.725,0-.116-.087-.2-.261-.348-.725-.522-.957-.7-1.74-1.189-.464.493-.609.638-1.044,1.131H.7v-2.349Zm0-.667H.7v-2.987H6.96Zm-8.12,0H-7.221v-2.987H-1.16Zm8.439,6.38H.7v-2.7H7.279Zm0,.667v2.9H.725L.7,117.606v-1.885ZM2.465,144.628a24.261,24.261,0,0,0,3.393-3.277c1.131-.145,1.392-.261,1.392-.522s-1.131-.725-3.219-1.334a10.77,10.77,0,0,1-1.16,3.074,20.011,20.011,0,0,1-1.218,2.059H-9.309a18.632,18.632,0,0,1-3.654-.232l.2,1.1a17.844,17.844,0,0,1,3.451-.2H13.4c.145,0,.2-.058.2-.145a.347.347,0,0,0-.116-.232c-1.131-1.1-1.508-1.421-2.639-2.407-.812.9-1.073,1.189-1.856,2.117Zm-5.336,12.963v5.336c0,.232-.029.29-.145.29h-.116c-.87-.058-1.073-.058-2.7-.2-.29-.029-.754-.058-1.3-.087l-.029.348c2.407.435,2.9.783,3.1,2.262,2.639-.7,3.161-1.044,3.161-2.2v-.174c-.029-2.262-.087-6.844-.087-7.076v-6.67c.754-.406.957-.551.957-.7,0-.058-.058-.116-.174-.29a16.389,16.389,0,0,0-1.856-1.421c-.464.522-.609.7-1.044,1.247H-8.381a22.679,22.679,0,0,0-2.349-1.247c.087,1.653.116,2.813.116,5.6,0,4.582-.058,10.353-.116,12.528a.346.346,0,0,0,.406.319,10.8,10.8,0,0,0,1.363-.116c.2-.058.29-.145.348-.406,0-2.291,0-2.523-.029-4.2-.029-1.305-.029-2.262-.029-2.668v-.464Zm0-.667h-5.8v-3.8h5.8Zm0-4.466h-5.8V148.92h5.8Zm-4.031-12.5a14.818,14.818,0,0,1,2.378,3.828c.2.551.319.667.58.667.435,0,.986-.928.986-1.711,0-.9-.986-1.711-3.683-3.161ZM2.581,147.9c.116,1.421.145,2.291.145,3.161,0,3.654-.029,5.829-.087,9.106,0,.232.116.348.319.348h.087c.116-.029.319-.029.58-.058.812-.058,1.015-.145,1.015-.522-.029-1.247-.058-5.568-.058-8.468v-2.233c.58-.232.9-.464.9-.638C5.481,148.369,4.727,148.2,2.581,147.9Zm6.148,14.877c0,.145-.029.2-.2.261-1.305,0-1.537-.029-4.35-.2-.261,0-.667-.029-1.189-.058v.435c4,.638,4,.638,4.408,2.378a7.445,7.445,0,0,0,2.349-.812,1.635,1.635,0,0,0,.986-1.566c-.058-2.349-.058-2.349-.116-8.555v-6.206c.754-.232,1.1-.435,1.1-.667s-.9-.464-3.19-.783a20.373,20.373,0,0,1,.2,3.335Zm-14.993,24.5v-4.988c.957-.348,1.247-.493,1.247-.754,0-.319-.377-.406-3.248-.725a30.433,30.433,0,0,1,.116,3.393v3.074h-2.958a9.617,9.617,0,0,1-2.117-.232l.174,1.044a14.97,14.97,0,0,1,1.943-.145H-8.5a26.51,26.51,0,0,1-1.45,5.046,40.9,40.9,0,0,1-3.683,7.4l.29.261a20.551,20.551,0,0,0,3.248-4.437,25.806,25.806,0,0,0,2.349-5.249l-.174,3.306c-.058.638-.058,2.03-.058,4.06,0,.667-.029,1.247-.029,2.03-.029,1.537-.029,1.537-.145,6.38.029.261.087.319.377.319a5.784,5.784,0,0,0,1.363-.174c.2-.087.261-.116.261-.29v-.029c-.058-3.915-.058-3.915-.087-15.167a14.131,14.131,0,0,1,2.465,3.886c.464,1.073.58,1.218.87,1.218.406,0,.87-.986.87-1.914,0-.841-.377-1.305-1.885-2.378a26.016,26.016,0,0,0-2.32-1.421v-2.842h4.756c.174,0,.29-.058.29-.145a.49.49,0,0,0-.058-.145c-.986-1.015-1.276-1.305-2.291-2.233-.638.754-.841,1.015-1.508,1.856Zm7.714-4.408a24.247,24.247,0,0,0-2.175-1.537c.058,3.857.087,5.887.087,11.629,0,9.367,0,9.367-.116,13.282,0,.319.087.406.406.406,1.276,0,1.624-.116,1.624-.493v-1.943H9.483v1.943c0,.261.116.348.435.348a4.929,4.929,0,0,0,1.392-.174.352.352,0,0,0,.232-.377c-.087-5.539-.087-5.539-.087-21.837.841-.348,1.073-.522,1.073-.754,0-.145-.116-.29-.348-.493-.754-.609-.986-.783-1.769-1.334-.493.551-.638.725-1.16,1.334Zm8.033,6.554H1.276V183.54H9.483Zm0,.667V196.3H1.276v-6.206Zm0,6.873v6.583H1.276v-6.583Zm-14.5,51.266a20.135,20.135,0,0,0,4.234-1.508,10.172,10.172,0,0,0,4.553-4.553,13.308,13.308,0,0,0,1.1-4.466,14.261,14.261,0,0,0,.406,2.494,9.965,9.965,0,0,0,1.914,3.683,13.224,13.224,0,0,0,4.9,3.77,2.408,2.408,0,0,1,1.769-2.146l.029-.406A11.326,11.326,0,0,1,8.9,243.419a8.81,8.81,0,0,1-2.61-2.668,26.083,26.083,0,0,0,4.727-2.9,6.139,6.139,0,0,0,.783.087c.319,0,.609-.145.609-.319a.351.351,0,0,0-.174-.261c-.232-.145-1.537-.812-2.552-1.334a14.682,14.682,0,0,1-3.335,4.089,3.626,3.626,0,0,0-.29.261,6.019,6.019,0,0,1-.7-2.03,13.169,13.169,0,0,1-.2-3.016c.725-.319.986-.464,1.044-.58l.116-.2c.029-.029-.2-.232-.29-.261a19.694,19.694,0,0,0-2.784-.377,6.489,6.489,0,0,1,.058,1.015c0,.551-.058,1.537-.145,2.32a13.011,13.011,0,0,1-1.711,5.887c-1.218,1.943-2.958,3.19-6.612,4.727ZM5.22,223.351c.812-.261,1.16-.464,1.16-.667,0-.29-.522-.464-1.8-.609-.29-.058-.754-.116-1.334-.174a9.144,9.144,0,0,1,.087,1.073c0,.377-.087,1.972-.174,3.19-.232,3.219-1.073,5.278-2.958,7.1a11.392,11.392,0,0,1-3.538,2.378l.261.435a12.5,12.5,0,0,0,5.133-3.074,8.541,8.541,0,0,0,1.972-2.958,26.208,26.208,0,0,1,6.641,4.669c1.044.986,1.218,1.131,1.392,1.131.232,0,.406-.348.406-.87a2.269,2.269,0,0,0-1.015-2.262,41.853,41.853,0,0,0-7.279-3.045c.522-1.479.609-1.914.957-5.481Zm-17.429,1.015a10.871,10.871,0,0,1,1.479-.116h7.192a.318.318,0,0,0,.319-.29.472.472,0,0,0-.116-.261c-.9-.841-1.189-1.1-2.175-1.914-.754.841-.754.841-1.624,1.8h-3.393a7.6,7.6,0,0,1-1.914-.2Zm-1.1,3.944a9.681,9.681,0,0,1,1.827-.174h8.555a.256.256,0,0,0,.261-.232.746.746,0,0,0-.2-.348,26.131,26.131,0,0,0-2.349-1.943c-.667.783-.87,1.044-1.537,1.856h-4.524a10.92,10.92,0,0,1-2.2-.232Zm1.131,3.915a5.16,5.16,0,0,1,1.479-.174h6.786a.249.249,0,0,0,.232-.232.5.5,0,0,0-.087-.2c-.928-.87-1.218-1.1-2.175-1.885-.609.725-.783.928-1.334,1.653H-10.5a7.753,7.753,0,0,1-1.914-.2Zm0,3.944a8.049,8.049,0,0,1,1.479-.116h6.844a.249.249,0,0,0,.232-.232.738.738,0,0,0-.058-.2A26.643,26.643,0,0,0-5.829,233.7c-.58.725-.754.957-1.3,1.682H-10.5a7.555,7.555,0,0,1-1.914-.2ZM-10.411,246H-6.38v.812c0,.232.116.319.377.319a5.008,5.008,0,0,0,1.218-.145.4.4,0,0,0,.319-.348c-.116-1.711-.145-3.567-.145-6.322.638-.232.928-.435.928-.609,0-.087-.087-.174-.29-.377-.667-.58-.87-.754-1.6-1.334-.493.58-.638.754-1.1,1.334h-3.509a15.929,15.929,0,0,0-2.059-1.131c.029,1.276.058,3.219.058,5.075,0,.928,0,1.247-.058,4.466,0,.29.116.377.493.377,1.044,0,1.334-.116,1.334-.464Zm0-6H-6.38v5.336h-4.031ZM.638,224.917a5.5,5.5,0,0,1-2.61,3.741c-.58.232-.638.319-.638.783,0,.725.406,1.45.812,1.45.493,0,1.247-.725,1.769-1.682A9.951,9.951,0,0,0,1.1,224.917Zm5.017,4.147c1.16-.522,3.335-1.682,5.51-2.958a3.009,3.009,0,0,0,.667.087c.319,0,.609-.145.609-.319,0-.232-.348-.464-1.45-1.015-.29-.116-.725-.348-1.305-.638a6.494,6.494,0,0,1-1.1,1.479,17.317,17.317,0,0,1-3.1,3.045Zm-5.017,6.96a4.893,4.893,0,0,1-2.581,3.6c-.464.174-.464.174-.522.232a.769.769,0,0,0-.232.638c0,.87.348,1.6.812,1.6.435,0,1.189-.638,1.682-1.479a9.97,9.97,0,0,0,1.3-4.437Zm-6.873,38.622c-1.218,2.668-1.218,2.668-2.32,4.814a19.464,19.464,0,0,1-2.146,3.422,1.905,1.905,0,0,0-.667,1.624c0,1.247.319,2,.841,2,.261,0,.493-.174.7-.551.464-.812,1.421-2.9,2.581-5.626,1.015-2.407,1.6-3.77,1.711-4.06,1.276-2.958,1.276-2.958,1.682-3.944a9.387,9.387,0,0,1,3.045-.609c1.537,0,2.059.7,2.059,2.639a22.433,22.433,0,0,1-1.711,7.8c-.754,1.827-1.218,2.436-1.885,2.436-.609,0-2.262-.725-4.495-2l-.261.377c3.074,2.523,3.132,2.581,3.219,3.393a.674.674,0,0,0,.783.667,4.107,4.107,0,0,0,2.784-1.3c1.682-1.885,3.161-6.7,3.161-10.411,0-3.045-1.189-4.524-3.683-4.524a10.1,10.1,0,0,0-2.523.348,28.077,28.077,0,0,1,1.856-3.944c.348-.493.406-.609.406-.841,0-.609-.725-1.131-2.03-1.508a7.946,7.946,0,0,0-1.943-.377,1.311,1.311,0,0,0-.87.29c1.682.551,2.233,1.044,2.233,1.943A16.348,16.348,0,0,1-4.9,271.456a29.986,29.986,0,0,1-4.93,1.015c-1.073,0-1.6-.377-2.2-1.6a1.917,1.917,0,0,0-.174.638,4.6,4.6,0,0,0,.957,2.2,2.143,2.143,0,0,0,1.276.87,1.517,1.517,0,0,0,.841-.319,22.45,22.45,0,0,1,3.77-1.508Zm11.948-3.335a8.416,8.416,0,0,1,3.973,3.857,7.449,7.449,0,0,1,.9,2.784,44.133,44.133,0,0,1-4.437,1.479l.116.406a25.646,25.646,0,0,1,3.625-.261,1.872,1.872,0,0,1,1.189.29,1.1,1.1,0,0,0,.667.2c.725,0,1.16-.58,1.16-1.566a6.836,6.836,0,0,0-1.653-4.118,10.079,10.079,0,0,0-5.307-3.48Zm-9.657,33.46a6.033,6.033,0,0,0,1.479,2.32,9.158,9.158,0,0,0,2.639,1.653,25.773,25.773,0,0,1-3.422,1.1,7.147,7.147,0,0,0-2.987,1.334c-.377.377-.464.638-.464,1.653a32.364,32.364,0,0,1-.551,3.828c-.145,1.015-.29,1.827-.348,2.407a12.008,12.008,0,0,1-.319,1.74c-.029.2-.087.435-.087.464a3.36,3.36,0,0,0,.609,1.479c.464.667.841.957,1.276.957.319,0,.522-.145.812-.58a6.633,6.633,0,0,1,1.6-1.827c2.262-1.972,4.872-3.161,6.931-3.161,2.117,0,3.509,1.247,3.509,3.161,0,1.827-.9,3.277-2.9,4.7a16.669,16.669,0,0,1-7.279,2.581l.087.464a21.287,21.287,0,0,0,6.583-1.131c3.625-1.247,5.713-3.509,5.713-6.177,0-2.639-2.291-4.524-5.539-4.524-2.639,0-5.945,1.247-9.454,3.6.058-1.943.261-4.35.464-5.887.058-.522.087-.783.087-.928a2.319,2.319,0,0,0-.2-.928,2.875,2.875,0,0,1-.174-.841,1.12,1.12,0,0,1,.319-.783,2.86,2.86,0,0,1,1.334-.522,24.8,24.8,0,0,1,5.539-.812,9.791,9.791,0,0,1,1.421.087c.377.058.522.087.609.087a.637.637,0,0,0,.7-.609,2.1,2.1,0,0,0-.638-1.276,1.8,1.8,0,0,0-1.189-.725c-.667-.145-1.537-.377-2.088-.551a5.975,5.975,0,0,1-3.683-2.552Z" transform="translate(728.006 12173.447)" fill="#333"/>
  </g>
</svg>
