<svg xmlns="http://www.w3.org/2000/svg" width="111" height="339.25"><path data-name="長方形 2738" fill="#3c290b" d="M.093 0H111v292.25H.093z"/><path data-name="パス 3956" d="M45.84 131.615h22.839l.966-5.382H43.563l-2.277 28.428 2.139.276c2.208-4.83 6.831-8 11.661-8a9.126 9.126 0 0 1 7.8 3.933 18.489 18.489 0 0 1 2.484 9.867c0 8.211-4.347 13.662-10.9 13.662-4.83 0-7.935-2.691-8.28-7.245-.138-2.277-.759-2.829-2.967-2.829-2.484 0-3.726 1.035-3.726 3.036 0 4.83 6.693 8.9 14.766 8.9 10.7 0 17.526-6.279 17.526-16.008 0-9.315-6-15.456-15.18-15.456a15.841 15.841 0 0 0-12.213 4.968Z" fill="#fff"/><path data-name="多角形 42" d="m55.5 339.25-55.5-47h111Z" fill="#3c290b"/></svg>