<svg xmlns="http://www.w3.org/2000/svg" width="111" height="339.25"><path data-name="長方形 2735" fill="#6a4b1b" d="M.093 0H111v292.25H.093z"/><path data-name="パス 3953" d="m70.266 175.223 1.863-12.006-2.07-.483c-1.38 5.8-3.105 7.314-8.073 7.314H42.045a19.615 19.615 0 0 1 5.655-8.763c3.036-2.967 4.9-4.347 13.524-9.66 7.659-4.692 10.212-8.211 10.212-13.938a11.146 11.146 0 0 0-2.208-7.314c-2.619-3.312-7.449-5.173-13.245-5.173-9.246 0-16.146 5.313-16.146 12.42 0 2 .966 2.829 3.519 2.829 2.415 0 3.174-.621 3.312-2.967a18.518 18.518 0 0 1 .69-5.037c1.173-3.452 4.142-5.384 8.211-5.384 5.589 0 9.384 3.933 9.384 9.729a11.372 11.372 0 0 1-1.518 5.8 21.533 21.533 0 0 1-5.244 5.382c-8.832 7.176-11.73 9.936-14.421 13.8-2.829 3.933-4.278 7.866-5.106 13.455Z" fill="#fff"/><path data-name="多角形 39" d="m55.5 339.25-55.5-47h111Z" fill="#6a4b1b"/></svg>