<svg xmlns="http://www.w3.org/2000/svg" width="111" height="339.25"><path data-name="長方形 2734" fill="#8d6b35" d="M.093 0H111v292.25H.093z"/><path data-name="パス 3952" d="M46.047 175.223h18.837v-2c-3.933-.207-4.209-.276-5.037-.966-.966-.829-1.247-2.209-1.247-6.832v-20.493c0-8.142.207-14.007.552-19.458a79.154 79.154 0 0 1-13.11 1.794v2h2.622c1.725 0 2.553.138 3.1.621s.552.483.69 6.486v29.049c0 4.968-.345 6.417-1.863 7.107-.9.414-1.587.483-4.554.69Z" fill="#fff"/><path data-name="多角形 38" d="m55.5 339.25-55.5-47h111Z" fill="#8d6b35"/></svg>