<svg xmlns="http://www.w3.org/2000/svg" width="111" height="339.25"><path data-name="長方形 2736" fill="#523912" d="M.093 0H111v292.25H.093z"/><path data-name="パス 3954" d="M57.5 148.934a23.04 23.04 0 0 0 6.9-2.277 10.894 10.894 0 0 0 5.658-9.384c.001-6.973-6.416-12.073-15.179-12.073-8.211 0-15.042 4.9-15.042 10.764 0 1.863 1.1 2.622 3.657 2.622 2.415 0 3.036-.69 3.174-3.312.345-5.52 2.967-8.211 8.142-8.211 3.45 0 5.727 1.1 7.176 3.45a13.276 13.276 0 0 1 1.725 6.9c0 3.933-1.38 7.038-3.933 8.763a14.1 14.1 0 0 1-7.521 2.07h-3.036v2.208h3.036a18.119 18.119 0 0 1 8 1.656c2.967 1.587 4.623 5.175 4.623 10.005 0 7.8-4 12.351-10.833 12.351-3.036 0-5.451-.9-6.831-2.553-1.238-1.52-1.583-2.831-1.716-6.213-.138-1.932-.9-2.622-2.9-2.622-2.691 0-3.933 1.035-3.933 3.243 0 5.727 6.693 10.005 15.663 10.005 10.281 0 17.112-5.658 17.112-14.145a11.615 11.615 0 0 0-6.21-10.7 19.19 19.19 0 0 0-7.732-1.926Z" fill="#fff"/><path data-name="多角形 40" d="m55.5 339.25-55.5-47h111Z" fill="#523912"/></svg>