<svg xmlns="http://www.w3.org/2000/svg" width="111" height="339.25"><path data-name="長方形 2739" fill="#2c1b00" d="M.093 0H111v292.25H.093z"/><path data-name="パス 3957" d="M45.426 149.555a53.029 53.029 0 0 1 1.587-13.179c1.863-6.21 5.244-9.453 10.074-9.453 3.864 0 5.865 2.07 6.348 6.555.207 1.932.9 2.553 3.036 2.553 2.553 0 4-1.035 4-2.829 0-4.278-6.279-8-13.386-8a15.1 15.1 0 0 0-12.075 5.244c-3.864 4.485-6.072 12.765-6.072 22.77.002 15.038 5.867 23.111 16.838 23.111 9.867 0 16.629-6.9 16.629-16.836a16.419 16.419 0 0 0-4-11.109c-2.555-2.691-6.764-4.282-11.18-4.282-4.761 0-8.211 1.591-11.799 5.455Zm-.069 8.694c0-4.14 1.035-6.831 3.519-9.246a10.586 10.586 0 0 1 7.314-3.036c5.934 0 9.66 5.244 9.66 13.662a22.6 22.6 0 0 1-2.208 10.419 8.936 8.936 0 0 1-7.728 4.552 8.865 8.865 0 0 1-7.935-5.1 23.734 23.734 0 0 1-2.622-11.251Z" fill="#fff"/><path data-name="多角形 43" d="m55.5 339.25-55.5-47h111Z" fill="#2c1b00"/></svg>