<svg xmlns="http://www.w3.org/2000/svg" width="111" height="339.25"><path data-name="長方形 2740" fill="#1d1200" d="M.093 0H111v292.25H.093z"/><path data-name="パス 3958" d="M68.265 131.477c-10.626 16.905-19.596 36.363-19.596 42.573 0 1.587 1.031 2.35 3.243 2.35 3.243 0 4.209-.763 4.278-3.316a50.4 50.4 0 0 1 1.31-10.074 91.815 91.815 0 0 1 4.21-13.041A96.7 96.7 0 0 1 72.2 130.3v-4.071H40.734l-1.932 13.8 2.139.138a22.925 22.925 0 0 1 1.932-5.865c1.311-2.277 2.484-2.829 5.727-2.829Z" fill="#fff"/><path data-name="多角形 44" d="m55.5 339.25-55.5-47h111Z" fill="#1d1200"/></svg>