<svg xmlns="http://www.w3.org/2000/svg" xmlns:xlink="http://www.w3.org/1999/xlink" width="710" height="385.153" viewBox="0 0 710 385.153">
  <defs>
    <clipPath id="clip-path">
      <rect id="長方形_2429" data-name="長方形 2429" width="695" height="316" transform="translate(0 158)" fill="#feffff"/>
    </clipPath>
    <linearGradient id="linear-gradient" x1="0.5" x2="0.5" y2="1" gradientUnits="objectBoundingBox">
      <stop offset="0" stop-color="#f85959"/>
      <stop offset="1" stop-color="#760202"/>
    </linearGradient>
    <filter id="楕円形_137" x="481.784" y="230.5" width="154.654" height="154.654" filterUnits="userSpaceOnUse">
      <feOffset input="SourceAlpha"/>
      <feGaussianBlur stdDeviation="4" result="blur"/>
      <feFlood flood-opacity="0.161"/>
      <feComposite operator="in" in2="blur"/>
      <feComposite in="SourceGraphic"/>
    </filter>
  </defs>
  <g id="グループ_3110" data-name="グループ 3110" transform="translate(-389 -206)">
    <path id="パス_3906" data-name="パス 3906" d="M27.821-31.906v9.2c.086,1.892.645,2.322,3.139,2.279.473,0,1.5,0,2.967.043H34.4a28.666,28.666,0,0,0,4.558-.3c.731-.172,1.2-.6,1.2-1.075,0-.387-.344-.688-.86-.817-1.118-.258-1.118-.3-1.118-1.333l-.043-3.655h-.516l-.387,1.591c-.172.688-.3,1.118-.344,1.29a11.769,11.769,0,0,1-.473,1.548c-.344.6-.774.731-2.881.731-3.1,0-3.225-.043-3.225-.9v-8.6H35.9a26.022,26.022,0,0,1-1.978,4.816l.258.258A26.987,26.987,0,0,0,38.7-31.175c1.978-.258,2.236-.344,2.236-.731,0-.172-.086-.344-.43-.688a28.1,28.1,0,0,0-2.967-2.451c-.86.9-1.075,1.161-1.892,2.15H17.071v-.9c0-.3,0-.688-.043-1.247h-.774a8.3,8.3,0,0,1-.817,3.913,6.261,6.261,0,0,1-1.763,2.279c-.946.645-1.032.731-1.032,1.2a4.278,4.278,0,0,0,.516,1.806.8.8,0,0,0,.731.559,2.932,2.932,0,0,0,2.021-1.591,13.125,13.125,0,0,0,1.075-5.031h4.687c-.043,3.44-.215,4.687-.946,6.321-1.161,2.709-3.1,4.515-7.052,6.536l.258.559c7.1-2.537,9.374-4.9,10.105-10.277a21.32,21.32,0,0,0,.172-3.139ZM27-14.792v-3.956c.989-.258,1.376-.473,1.376-.817,0-.43-.215-.43-4.343-.688a14.436,14.436,0,0,1,.215,2.967v2.494H15.48a10.655,10.655,0,0,1-3.139-.387l.215,1.634A17.556,17.556,0,0,1,15.48-13.8h6.794a31.033,31.033,0,0,1-7.138,9.5A26.033,26.033,0,0,1,10.1-.3l.3.516A33.612,33.612,0,0,0,17.63-4.429a24.961,24.961,0,0,0,6.622-7.826V-7.31l-.215,9.761c.043.344.172.516.516.516,2.322,0,2.451-.043,2.537-.731-.043-4.472-.043-4.945-.043-5.8C27-5.547,27-6.923,27-7.31V-13.5a21.915,21.915,0,0,0,4.3,7.353,23.839,23.839,0,0,0,7.1,5.59c.817-2.021,1.462-2.666,2.967-2.924l.043-.645A19.085,19.085,0,0,1,31.3-9.116,16.241,16.241,0,0,1,27.477-13.8H40.119c.258,0,.387-.043.387-.172a.372.372,0,0,0-.129-.258,44.462,44.462,0,0,0-3.655-3.4c-1.075,1.161-1.419,1.548-2.537,2.838ZM4.558-34.83a10.219,10.219,0,0,1,1.806,1.849c.774.9,1.978,2.494,2.408,3.139,1.161,1.634,1.2,1.72,1.548,1.72.731,0,1.333-1.247,1.333-2.752,0-1.376-1.548-2.408-6.794-4.386Zm-3.01,9.288a16.911,16.911,0,0,1,4.085,4.429c1.118,1.849,1.2,1.978,1.677,1.978q.452,0,.774-.645a6.068,6.068,0,0,0,.43-2.064c0-1.634-1.548-2.623-6.665-4.214Zm.774,15.91c2.322.86,2.408.9,2.752,1.376A5.727,5.727,0,0,1,5.762-4.9,21.587,21.587,0,0,1,5.2.086a7.1,7.1,0,0,0-.215,1.29c0,.645.344,1.118.86,1.118a3.437,3.437,0,0,0,2.193-1.2A4.742,4.742,0,0,0,9.03-1.419a13.762,13.762,0,0,0-.989-4.859,6.214,6.214,0,0,1-.516-1.849,7.644,7.644,0,0,1,.645-2.107l5.246-13.631L12.9-24.08c-2.623,4.816-3.139,5.805-3.526,6.622-3.913,7.74-3.913,7.74-4.343,7.74a4.1,4.1,0,0,1-.9-.129c-.043,0-.387-.086-.9-.172a5.482,5.482,0,0,0-.774-.172ZM74.39-19.608A16.659,16.659,0,0,1,78.3-14.276c.258.516.473.731.688.731.559,0,1.29-1.462,1.29-2.58,0-.774-.3-1.118-1.892-2.064A21.184,21.184,0,0,0,74.691-20Zm.3-2.8c.645-1.2.645-1.2,1.677-3.139,1.419-.129,2.064-.387,2.064-.817a.4.4,0,0,0-.258-.344c-.387-.172-2.58-.9-4.386-1.462a37.172,37.172,0,0,1-2.58,7.052,43.429,43.429,0,0,1-7.1,10.578l.344.387a23.452,23.452,0,0,0,6.063-5.805,40.574,40.574,0,0,0,6.02,8.9C73.272-3.526,70-1.032,64.113,2.408l.344.559a33.1,33.1,0,0,0,9.761-5.16c1.462-1.075,2.537-1.935,3.913-3.139a30.437,30.437,0,0,0,5.117,4.085A20.77,20.77,0,0,0,90,2.021C91.418-.258,91.633-.43,93.525-.688l.086-.387c-7.1-1.806-9.632-2.881-13.76-5.934,3.44-3.655,5.676-7.353,8.127-13.33,1.892-.688,2.064-.774,2.064-1.118,0-.172-.129-.344-.43-.6-.989-.731-2.021-1.548-3.139-2.365-.6.645-1.2,1.333-1.806,2.021Zm10.277.989A44.622,44.622,0,0,1,77.873-8.6a26.175,26.175,0,0,1-6.751-8.17,41.38,41.38,0,0,0,3.01-4.644Zm-10.879-8.3v-4.3c1.677-.559,1.892-.688,1.892-.989,0-.516-1.118-.731-5.031-1.032a21.836,21.836,0,0,1,.215,3.4v2.924H57.62a20.133,20.133,0,0,1-4.085-.473l.387,1.849a22.716,22.716,0,0,1,3.483-.387H92.88c.129,0,.258-.172.258-.344,0-.086-.086-.172-.215-.3-1.892-1.677-2.494-2.193-4.515-3.741l-2.537,3.4ZM53.535-10.363a35.439,35.439,0,0,0,6.536-6.45l.043,7.783c0,5.5,0,5.5-.172,11.438v.086c0,.43.215.6.774.6.387,0,1.118-.086,1.634-.129.387-.086.516-.215.516-.688l-.043-6.966L62.866-8.3v-8.514c1.075-.3,1.505-.559,1.505-.946,0-.344-.559-.516-2.8-.86A43.772,43.772,0,0,0,66.22-25.37h.817c.817,0,1.5-.258,1.5-.559,0-.344-.473-.645-2.408-1.419-.516-.172-1.333-.516-2.322-.946a30.537,30.537,0,0,1-3.655,7.912,57.006,57.006,0,0,1-7.181,9.632Zm71.165-9.89a3.937,3.937,0,0,0-3.956,3.913,3.946,3.946,0,0,0,3.956,3.956,3.937,3.937,0,0,0,3.913-3.956A3.927,3.927,0,0,0,124.7-20.253Zm52.761,2.365h8.9v1.72c0,.387.172.516.688.516,1.935,0,2.537-.172,2.537-.817-.172-2.451-.215-5.891-.215-11.61v-3.483c1.247-.86,1.462-1.075,1.462-1.376,0-.172-.172-.344-.516-.645-1.075-.86-1.419-1.118-2.58-1.978-.817.9-.817.9-1.806,1.978H166.066a31.432,31.432,0,0,0-3.268-1.978c.086,1.978.129,4.257.129,8.557,0,3.913-.043,8-.129,11.18.043.344.215.473.688.473,1.591,0,2.365-.215,2.365-.731v-1.806h8.514v6.622h-13.33a15.417,15.417,0,0,1-4.472-.344l.3,1.591a21.3,21.3,0,0,1,4.171-.258h13.33v1.935c0,4.859-.043,7.654-.129,10.922v.129c0,.258.215.43.645.43a12.884,12.884,0,0,0,2.279-.258.531.531,0,0,0,.387-.6c-.086-2.537-.086-2.537-.086-10.621v-1.935h18.447c.215,0,.387-.129.387-.258s-.086-.258-.3-.516c-1.935-1.634-1.935-1.634-4.128-3.44q-1.29,1.419-2.967,3.225H177.461Zm8.9-8.471H165.851v-6.235h20.511Zm0,.989v6.493H165.851V-25.37Zm33.841,13.5h3.87v1.677c0,.258.129.344.6.344,1.376,0,2.322-.258,2.322-.688v-.086c-.129-3.4-.172-5.117-.172-8.213v-3.44c.946-.559,1.29-.9,1.29-1.118,0-.129-.086-.258-.43-.559-.946-.86-1.247-1.118-2.279-1.935-.688.817-.946,1.075-1.677,1.935H220.2v-5.461h9.159a.241.241,0,0,0,.258-.215c0-.086-.086-.215-.258-.43-1.333-1.333-1.763-1.72-3.139-3.01-.946,1.161-1.247,1.505-2.15,2.666H220.2v-3.7c1.333-.43,1.72-.645,1.72-.946,0-.43-.559-.559-4.859-1.118a28.269,28.269,0,0,1,.172,4.085V-30.4H211.56a10.9,10.9,0,0,1-3.268-.344l.3,1.591a14.636,14.636,0,0,1,2.967-.258h5.676v5.461H213.71c-1.376-.86-1.806-1.118-3.311-1.935.258,2.15.258,3.01.258,13.5,0,.344-.043,1.333-.086,2.8V-9.5c0,.3.086.387.516.387a7.7,7.7,0,0,0,1.806-.215c.3-.086.344-.129.344-.43v-2.107h4v5.719H211.56a13.9,13.9,0,0,1-3.44-.344l.258,1.677a13.846,13.846,0,0,1,3.182-.344h5.676v.774c0,2.451,0,3.741-.086,7.224,0,.258.129.344.516.344,2.021,0,2.537-.129,2.58-.6C220.2.774,220.2.774,220.2-4.558v-.6h7.869c.3,0,.473-.086.473-.215a1.116,1.116,0,0,0-.172-.43c-1.333-1.29-1.763-1.677-3.1-2.838-.9,1.032-1.161,1.376-2.064,2.494H220.2Zm-6.966-6.88v-4.214h10.836v4.214Zm10.836.989v4.9H213.237v-4.9Zm18.06,4.9V-1.419c0,.344-.086.43-.387.43h-.086c-3.311-.043-4.343-.086-7.224-.258l-.043.6A16.139,16.139,0,0,1,239.381.6a2.287,2.287,0,0,1,1.462,1.978,7.531,7.531,0,0,0,3.311-1.2,2.486,2.486,0,0,0,1.075-2.365c-.172-3.741-.172-4.429-.172-8.385V-31.3c.86-.559,1.2-.9,1.2-1.118,0-.172-.129-.344-.473-.645-.989-.86-1.333-1.118-2.365-1.935-.688.817-.9,1.075-1.591,1.935h-7.4a32.009,32.009,0,0,0-3.4-1.806c.129,2.365.172,3.612.172,8.6,0,10.879-.258,14.448-1.2,18.06-1.118,4.042-2.838,6.966-6.364,10.793l.43.516c3.311-2.709,4.773-4.3,6.192-6.708a24.378,24.378,0,0,0,3.182-9.245ZM234.006-23.65l.043-5.848v-2.58h8.084v8.428Zm8.127.989v8.815h-8.557a79.519,79.519,0,0,0,.43-8.815Zm19.909-5.2a1.865,1.865,0,0,0-.473,1.161,6.141,6.141,0,0,0,1.118,2.881c.989,1.548,2.279,2.537,3.311,2.537a2.834,2.834,0,0,0,1.72-.6c4.042-2.193,13.889-5.117,19.221-5.762-3.612,1.892-5.289,3.053-7.009,4.945a15.933,15.933,0,0,0-4.687,10.492,11.42,11.42,0,0,0,4.988,9.632A17.759,17.759,0,0,0,289,.516c.9,0,1.548-.516,1.548-1.2a3.521,3.521,0,0,0-1.29-2.064,2.142,2.142,0,0,0-1.806-.688,13,13,0,0,1-4.343-1.032,8.726,8.726,0,0,1-5.719-8.385c0-7.353,7.1-14.362,14.448-14.362a5.881,5.881,0,0,1,1.2.086,6.088,6.088,0,0,0,.817.043c.817,0,1.333-.43,1.333-1.075,0-.559-.387-1.118-1.247-1.634a5.742,5.742,0,0,0-2.322-.9,5.417,5.417,0,0,0-1.505.344,47.1,47.1,0,0,1-5.8,1.419c-2.967.559-5.418,1.118-6.966,1.5C267.675-25.112,266.6-24.9,265.4-24.9a2.437,2.437,0,0,1-1.935-.731A4.681,4.681,0,0,1,262.042-27.864Zm26.4,6.665a20.627,20.627,0,0,1,3.311,4.558c1.333,2.795,1.333,2.795,1.892,2.795.731,0,1.333-.774,1.333-1.806s-.6-2.021-2.15-3.44A21.931,21.931,0,0,0,289-21.758Zm4.515-2.451a20.524,20.524,0,0,1,4.73,6.106c.344.6.6.817.989.817.645,0,1.075-.731,1.075-1.763,0-1.161-.559-2.064-2.193-3.311a20.912,20.912,0,0,0-4.128-2.451Zm25.37-4.6a10.643,10.643,0,0,0,2.236,3.784,10.861,10.861,0,0,0,4.171,2.666,9.068,9.068,0,0,0-4.171,2.279,4.44,4.44,0,0,0-1.333,2.967,6.416,6.416,0,0,0,1.892,4.257,10.549,10.549,0,0,0,3.44,2.193c-.043,1.075-.086,1.634-.086,2.15,0,3.741,1.075,6.321,3.311,8a9.83,9.83,0,0,0,5.848,1.763c5.977,0,10.449-3.956,10.449-9.159,0-4.386-2.709-7.955-9.073-11.868l-.473.559c4.085,3.139,6.493,7.181,6.493,10.75a7.23,7.23,0,0,1-1.419,4.386A8.359,8.359,0,0,1,332.82-.6c-4.343,0-6.794-2.451-6.794-6.837,0-.559.043-1.075.129-2.107a17.429,17.429,0,0,0,4.558.774c.9,0,1.462-.387,1.462-.989a2.983,2.983,0,0,0-2.58-2.322,2.843,2.843,0,0,0-.473.043.947.947,0,0,1-.344.043,11.921,11.921,0,0,1-2.193-.3,51.149,51.149,0,0,1,1.72-7.955,9.887,9.887,0,0,0,1.677.215c.86,0,1.376-.344,1.376-.9a2.433,2.433,0,0,0-.6-1.419,3.122,3.122,0,0,0-1.72-.946c1.161-3.784,1.634-4.945,2.365-5.977a1.852,1.852,0,0,0,.559-1.247c0-.946-.86-2.15-2.236-3.1a6.593,6.593,0,0,0-3.182-1.333,1.773,1.773,0,0,0-.731.172c1.72,1.2,2.322,2.107,2.322,3.569,0,1.032-.129,1.677-1.333,7.654a13.077,13.077,0,0,1-5.031-1.849,9.357,9.357,0,0,1-2.967-3.1Zm7.783,7.7a71.075,71.075,0,0,0-1.29,7.826c-2.967-.9-4.429-2.236-4.429-4.042a2.978,2.978,0,0,1,.946-2.15C322.371-19.952,323.618-20.425,326.112-20.554Zm45.537-8.729a10.019,10.019,0,0,0,3.01,2.494,11.739,11.739,0,0,0,4.9,1.161c.774,0,2.279-.043,3.225-.129l-.817.516-2.8,1.505c-1.161.645-1.935,1.075-3.139,1.806l.3.645c6.837-2.881,9.2-3.741,11.481-4.257,2.881-.6,3.139-.774,3.139-1.505a2.951,2.951,0,0,0-2.58-2.236,4.362,4.362,0,0,0-.774.172,33.532,33.532,0,0,1-8.944,1.29,10.084,10.084,0,0,1-6.579-1.892ZM370.015-12.9a11.7,11.7,0,0,0-.688,3.655A8.232,8.232,0,0,0,372.9-2.494c2.15,1.462,5.2,2.064,10.019,2.064a49.37,49.37,0,0,0,10.019-.86c.9-.215,1.376-.688,1.376-1.333a2.052,2.052,0,0,0-.946-1.505A4.693,4.693,0,0,0,391-4.988a2.184,2.184,0,0,0-.731.129,27.643,27.643,0,0,1-9.5,1.591c-6.923,0-10.148-2.408-10.148-7.525,0-.516.043-.989.129-1.935Zm21.113-20.038A19.17,19.17,0,0,1,394.4-28.38c1.376,2.8,1.376,2.8,1.935,2.8.731,0,1.333-.774,1.333-1.806s-.6-2.021-2.15-3.44a21.929,21.929,0,0,0-3.827-2.666Zm4.515-2.494a22.025,22.025,0,0,1,4.73,6.149c.344.6.6.817.989.817.645,0,1.075-.731,1.075-1.763,0-1.2-.559-2.064-2.236-3.311a19.427,19.427,0,0,0-4.085-2.451Zm44.634,20.64h5.547v.387c.086.3.215.387.688.387,1.462,0,1.892-.129,2.064-.688,0-.516,0-.516-.043-1.634v-4.042c.817-.43,1.247-.774,1.247-1.118q0-.194-.387-.516a19.914,19.914,0,0,0-2.537-1.677,13.084,13.084,0,0,0-1.419,1.72H431.763c-1.333-.774-1.333-.774-3.139-1.849.129,1.849.172,4.042.172,8.3,0,.645-.043,1.333-.129,2.537.129.43.258.473.989.473a8.685,8.685,0,0,0,1.419-.129c.215-.043.3-.086.387-.258v-1.892h5.074A36.254,36.254,0,0,1,425.1-5.332l.215.387A25.85,25.85,0,0,0,431.806-7.7a24.825,24.825,0,0,0,5.8-4.6v.946c0,1.118,0,1.118-.258,8.213.086.43.344.6.9.6.344,0,1.075-.086,1.462-.129.6-.086.731-.215.731-.774-.129-3.354-.172-4.9-.172-6.88v-1.2a28.1,28.1,0,0,1,4.085,2.666c1.032.86,3.311,3.053,4.773,4.6.6.645.946.86,1.333.86.473,0,.774-.516.774-1.376,0-1.72-.344-2.451-1.505-3.268-.645-.387-.645-.387-3.44-1.849l.989-.387a20.087,20.087,0,0,0,3.4-1.548,5.786,5.786,0,0,0,1.118.172c.43,0,.774-.215.774-.516,0-.387-.559-.86-3.311-2.623a17.916,17.916,0,0,1-3.827,4.472,52.667,52.667,0,0,0-5.16-2.15Zm-8.815-6.192h14.362v5.2H431.462Zm8.815-10.535V-33.97c1.161-.215,1.677-.516,1.677-.946,0-.516-.6-.688-4.859-1.118a21.109,21.109,0,0,1,.258,3.4v1.118h-7.138a20.993,20.993,0,0,1-3.268-.3l.473,1.548a12.085,12.085,0,0,1,2.8-.258h7.138v4.472h-9.718a13.518,13.518,0,0,1-2.967-.387l.6,1.634a5.738,5.738,0,0,1,2.365-.258h26.1a.307.307,0,0,0,.344-.3.7.7,0,0,0-.172-.387c-1.462-1.29-1.935-1.763-3.44-3.182-.989,1.2-.989,1.2-2.408,2.881h-7.783V-30.53h10.664c.3,0,.516-.086.516-.258q0-.129-.258-.387c-1.419-1.376-1.892-1.763-3.483-3.1-.946,1.247-1.247,1.591-2.15,2.752ZM415.6-34.959a25.457,25.457,0,0,1,2.967,4.386c.344.645,1.763,3.655,2.021,4.257.387.989.688,1.29,1.161,1.29.774,0,1.548-1.634,1.548-3.225,0-1.548-2.881-4.343-7.31-7.138Zm8.3,18.834c.989-.645,1.548-1.118,1.548-1.333,0-.172-.086-.3-.344-.516a25.2,25.2,0,0,0-2.666-1.978c-.688.731-.9.946-1.591,1.72h-4.558a13.354,13.354,0,0,1-2.107-.258l.473,1.5a5.666,5.666,0,0,1,1.677-.258h4.6V-6.407a36.25,36.25,0,0,1-6.751,4.343c1.849,3.612,2.193,4.171,2.623,4.171a.563.563,0,0,0,.516-.559,4.747,4.747,0,0,0-.043-.688,3.49,3.49,0,0,1-.043-.731,73.06,73.06,0,0,0,5.461-6.536c1.075,3.139,1.935,4.386,3.784,5.762,2.322,1.634,4.472,2.107,10.277,2.322,1.634.043,9.116.172,10.836.172,1.677,0,2.58-.043,4.171-.172.473-1.849.946-2.365,2.58-2.881v-.473c-8.772.473-11.782.559-16.641.559-5.2,0-7.611-.172-9.116-.688a7.006,7.006,0,0,1-4.687-4.085Zm60.673-11.954h15.05a10.265,10.265,0,0,1-1.978,3.1l.344.43a21.6,21.6,0,0,0,3.87-2.666c2.107-.086,2.924-.215,2.924-.559q0-.193-.387-.516a34.289,34.289,0,0,0-3.01-2.666c-.946.774-1.2,1.032-2.107,1.892H485.6v-2.709h13.76c.344,0,.559-.086.559-.3a.558.558,0,0,0-.215-.3c-1.376-1.247-1.806-1.591-3.225-2.709l-2.064,2.322H485.6v-1.5c1.2-.387,1.591-.6,1.591-.946,0-.473-1.032-.688-4.6-1.075.086,1.2.129,1.763.129,2.666v4.558h-9.632a22.73,22.73,0,0,0-3.612-2.107,90.283,90.283,0,0,1,.344,9.374,116.387,116.387,0,0,1-.645,13.846,21.7,21.7,0,0,1-3.354,9.933l.6.473a27.08,27.08,0,0,0,2.494-3.4A23.484,23.484,0,0,0,471.839-9.5a143.175,143.175,0,0,0,.86-16.254v-2.322h9.2v3.354l-3.01.172c-.645.043-1.247.086-1.806.086a14.151,14.151,0,0,1-2.838-.258l.43,1.677c.989-.172,2.881-.387,4.214-.473l3.01-.172a4.252,4.252,0,0,1,.043.645,9.052,9.052,0,0,1-.043.989c.172,2.15.387,2.236,7.267,2.236,5.375,0,10.148-.129,11.7-.344,1.419-.172,2.107-.645,2.107-1.462,0-.516-.172-.688-.817-.817-.473-.043-.559-.172-.559-.731v-2.451l-.516-.043c-1.333,3.741-1.333,3.741-3.01,3.827-.86,0-7.482.129-8.772.129a37.137,37.137,0,0,1-4.386-.172c-.3-.086-.344-.172-.344-.731v-1.247l11.653-.774c.387,0,.559-.129.559-.3a.722.722,0,0,0-.3-.387c-1.376-1.032-1.806-1.333-3.139-2.193a18.59,18.59,0,0,0-1.935,2.193l-6.837.43Zm-8.428,20.64c0,.344.172.473.6.473h.086c.129,0,.344-.043.645-.043,1.161-.043,1.419-.129,1.462-.516v-.86h18.49v.86c0,.258.129.344.516.344,1.505,0,2.236-.258,2.236-.817v-.215c-.086-4.042-.086-4.429-.086-5.762v-2.107c.946-.387,1.2-.559,1.2-.774,0-.172-.129-.344-.473-.6-.688-.473-1.462-1.032-2.408-1.72-.645.645-.86.86-1.462,1.5H479.235a25.583,25.583,0,0,0-3.053-1.677,35.55,35.55,0,0,1,.129,4c0,4.042,0,4.816-.172,7.826Zm10.578-6.321h-7.783v-2.924h7.783Zm0,.989v3.4h-7.783v-3.4Zm2.58-.989v-2.924h8.127v2.924Zm0,.989h8.127v3.4H489.3ZM475.623-6.192c-.688,2.709-1.634,4.128-3.182,4.73-1.118.43-1.118.43-1.247.6a1.094,1.094,0,0,0-.215.688c0,1.075.473,2.064,1.032,2.064A4.171,4.171,0,0,0,474.892-.3c.774-1.376,1.075-2.709,1.419-5.762Zm22.489.817a25.631,25.631,0,0,1,4.171,5.246c1.118,2.193,1.161,2.193,1.548,2.193.645,0,1.118-1.118,1.118-2.58a2.556,2.556,0,0,0-1.376-2.408,26.776,26.776,0,0,0-5.117-2.881ZM479.794-.3c0,1.419.215,1.892,1.032,2.107.9.3,3.569.387,11.352.387,4.9,0,6.063-.258,6.063-1.376,0-.645-.344-.989-1.118-1.075-.516-.043-.645-.172-.645-.6V-.989l.258-4.386-.645-.086a32.255,32.255,0,0,1-1.548,4.73c-.3.6-.6.688-2.365.688-.946,0-2.279,0-3.913.043h-.516c-2.021,0-4.773-.086-5.031-.172-.172-.086-.258-.258-.258-.645V-4.988q1.419-.258,1.419-.774c0-.387-.43-.559-2.279-.9-.43-.086-1.032-.215-1.892-.387a22.3,22.3,0,0,1,.086,2.709ZM485.47-7.1a6.187,6.187,0,0,1,1.29,1.419,22.319,22.319,0,0,1,1.634,2.623c.774,1.548.774,1.591,1.032,1.591.43,0,.9-1.118.9-2.193a1.827,1.827,0,0,0-.6-1.462,12.618,12.618,0,0,0-3.956-2.408ZM520.988-26.7a8.779,8.779,0,0,0,3.139,3.139,6.958,6.958,0,0,0,3.784.9,12.752,12.752,0,0,0,2.021-.172,57.08,57.08,0,0,1-5.375,10.1,19.284,19.284,0,0,1-2.064,2.58A1.824,1.824,0,0,0,522.02-8.6c0,1.72.6,3.053,1.333,3.053.516,0,.9-.387,1.548-1.548.387-.731,3.7-7.955,4.988-10.922,1.161-2.58,1.892-4.343,2.279-5.2,6.837-1.591,9.5-2.666,9.5-3.784,0-.731-1.247-1.29-2.924-1.29a1.056,1.056,0,0,0-.9.344c-1.2,1.032-1.591,1.247-4.773,2.365,1.548-3.182,2.451-4.945,2.623-5.289a1.837,1.837,0,0,0,.43-1.118c0-.6-.559-1.075-2.021-1.806a9.03,9.03,0,0,0-3.44-.989,1.828,1.828,0,0,0-1.032.3c2.064,1.032,2.752,1.892,2.752,3.311a17.8,17.8,0,0,1-1.548,6.106,18.821,18.821,0,0,1-3.913.516c-2.15,0-3.354-.559-5.418-2.494Zm23.134,2.752c3.053,1.032,4.386,1.72,5.547,2.967-1.591.344-1.677.387-2.322.559a8.039,8.039,0,0,0-4.085,2.021c-1.161,1.29-1.505,2.623-1.505,6.149,0,.516,0,.86.129,4.257a13.91,13.91,0,0,0-2.58-.215c-4.773,0-8.041,2.107-8.041,5.117,0,2.709,2.666,4.558,6.536,4.558a7.937,7.937,0,0,0,5.59-1.849,4.825,4.825,0,0,0,1.2-3.655v-.817a15.634,15.634,0,0,1,5.2,3.784c.9.989,1.075,1.118,1.505,1.118.516,0,.86-.6.86-1.462a4.1,4.1,0,0,0-1.72-3.4,19.387,19.387,0,0,0-6.106-2.8,61.465,61.465,0,0,1-.86-7.4c0-2.967,1.075-3.913,4.515-3.913,2.193,0,3.01.172,4.214.9a1.623,1.623,0,0,0,.989.344,1.121,1.121,0,0,0,1.118-1.247c0-.989-1.032-2.279-2.709-3.354a15.193,15.193,0,0,0-7.353-2.365ZM541.929-4.644c0,2.709-1.806,4.128-5.289,4.128-2.666,0-4.3-.946-4.3-2.537,0-2.021,2.236-3.268,5.891-3.268a12.012,12.012,0,0,1,3.7.516Zm46.01-30.014c1.806,1.161,2.365,1.806,2.365,2.537,0,1.032-1.29,2.838-6.493,9.159-2.623,3.225-3.311,4.386-3.311,5.762a5.59,5.59,0,0,0,1.634,3.612c4.472,5.246,4.687,5.5,6.278,7.783A40.521,40.521,0,0,1,592.024.258c.731,1.548.9,1.763,1.462,1.763.9,0,1.462-.946,1.462-2.58A5.536,5.536,0,0,0,594.3-3.4c-1.032-2.021-3.225-4.429-7.912-8.772a41.277,41.277,0,0,1-3.01-2.838,3.6,3.6,0,0,1-1.29-2.236c0-.817.559-1.806,2.064-3.483a107.013,107.013,0,0,1,7.912-7.439c2.279-1.849,2.494-2.107,2.494-2.666,0-.6-.258-1.032-.946-1.72a9.054,9.054,0,0,0-4.773-2.279A1.994,1.994,0,0,0,587.939-34.658ZM10.449,35.717a10.018,10.018,0,0,0,3.01,2.494,11.739,11.739,0,0,0,4.9,1.161c.774,0,2.279-.043,3.225-.129l-.817.516-2.8,1.505c-1.161.645-1.935,1.075-3.139,1.806l.3.645c6.837-2.881,9.2-3.741,11.481-4.257,2.881-.6,3.139-.774,3.139-1.505a2.951,2.951,0,0,0-2.58-2.236,4.362,4.362,0,0,0-.774.172,33.532,33.532,0,0,1-8.944,1.29,10.084,10.084,0,0,1-6.579-1.892ZM8.815,52.1a11.7,11.7,0,0,0-.688,3.655A8.232,8.232,0,0,0,11.7,62.506c2.15,1.462,5.2,2.064,10.019,2.064a49.37,49.37,0,0,0,10.019-.86c.9-.215,1.376-.688,1.376-1.333a2.052,2.052,0,0,0-.946-1.5,4.693,4.693,0,0,0-2.365-.86,2.184,2.184,0,0,0-.731.129,27.643,27.643,0,0,1-9.5,1.591c-6.923,0-10.148-2.408-10.148-7.525,0-.516.043-.989.129-1.935ZM29.928,32.062A19.17,19.17,0,0,1,33.2,36.62c1.376,2.8,1.376,2.8,1.935,2.8.731,0,1.333-.774,1.333-1.806s-.6-2.021-2.15-3.44A21.93,21.93,0,0,0,30.487,31.5Zm4.515-2.494a22.025,22.025,0,0,1,4.73,6.149c.344.6.6.817.989.817.645,0,1.075-.731,1.075-1.763,0-1.2-.559-2.064-2.236-3.311a19.426,19.426,0,0,0-4.085-2.451Zm29.369,9.159v-7.4c1.419-.516,1.849-.731,1.849-1.118,0-.473-.559-.6-4.816-1.075a45.124,45.124,0,0,1,.172,5.031v4.558H56.631a14.26,14.26,0,0,1-3.139-.344l.258,1.548a22.2,22.2,0,0,1,2.881-.215H60.5a39.308,39.308,0,0,1-2.15,7.482A60.646,60.646,0,0,1,52.89,58.163l.43.387a30.472,30.472,0,0,0,4.816-6.579,38.264,38.264,0,0,0,3.483-7.783l-.258,4.9c-.086.946-.086,3.01-.086,6.02,0,.989-.043,1.849-.043,3.01-.043,2.279-.043,2.279-.215,9.46.043.387.129.473.559.473a8.577,8.577,0,0,0,2.021-.258c.3-.129.387-.172.387-.43v-.043c-.086-5.805-.086-5.805-.129-22.489A20.953,20.953,0,0,1,67.51,50.6c.688,1.591.86,1.806,1.29,1.806.6,0,1.29-1.462,1.29-2.838,0-1.247-.559-1.935-2.795-3.526a38.569,38.569,0,0,0-3.44-2.107V39.716h7.052c.258,0,.43-.086.43-.215a.726.726,0,0,0-.086-.215c-1.462-1.505-1.892-1.935-3.4-3.311-.946,1.118-1.247,1.505-2.236,2.752ZM75.25,32.191a35.95,35.95,0,0,0-3.225-2.279c.086,5.719.129,8.729.129,17.243,0,13.889,0,13.889-.172,19.694,0,.473.129.6.6.6,1.892,0,2.408-.172,2.408-.731V63.839H87.161V66.72c0,.387.172.516.645.516a7.309,7.309,0,0,0,2.064-.258.521.521,0,0,0,.344-.559c-.129-8.213-.129-8.213-.129-32.379,1.247-.516,1.591-.774,1.591-1.118,0-.215-.172-.43-.516-.731-1.118-.9-1.462-1.161-2.623-1.978-.731.817-.946,1.075-1.72,1.978Zm11.911,9.718H74.992V33.18H87.161Zm0,.989v9.2H74.992V42.9Zm0,10.191V62.85H74.992V53.089Zm30.1,15.222a29.855,29.855,0,0,0,6.278-2.236,15.083,15.083,0,0,0,6.751-6.751,19.732,19.732,0,0,0,1.634-6.622,21.145,21.145,0,0,0,.6,3.7,14.777,14.777,0,0,0,2.838,5.461,19.609,19.609,0,0,0,7.267,5.59c.387-1.849,1.075-2.666,2.623-3.182l.043-.6a16.794,16.794,0,0,1-7.4-2.494,13.063,13.063,0,0,1-3.87-3.956c4.386-2.365,4.816-2.623,7.009-4.3a9.1,9.1,0,0,0,1.161.129c.473,0,.9-.215.9-.473a.52.52,0,0,0-.258-.387c-.344-.215-2.279-1.2-3.784-1.978a21.769,21.769,0,0,1-4.945,6.063,5.371,5.371,0,0,0-.43.387,8.924,8.924,0,0,1-1.032-3.01,19.527,19.527,0,0,1-.3-4.472c1.075-.473,1.462-.688,1.548-.86l.172-.3c.043-.043-.3-.344-.43-.387a29.2,29.2,0,0,0-4.128-.559,9.622,9.622,0,0,1,.086,1.5c0,.817-.086,2.279-.215,3.44-.387,3.913-1.161,6.536-2.537,8.729-1.806,2.881-4.386,4.73-9.8,7.009ZM132.44,31.417c1.2-.387,1.72-.688,1.72-.989,0-.43-.774-.688-2.666-.9-.43-.086-1.118-.172-1.978-.258a13.558,13.558,0,0,1,.129,1.591c0,.559-.129,2.924-.258,4.73-.344,4.773-1.591,7.826-4.386,10.535a16.892,16.892,0,0,1-5.246,3.526l.387.645a18.533,18.533,0,0,0,7.611-4.558,12.665,12.665,0,0,0,2.924-4.386,38.859,38.859,0,0,1,9.847,6.923c1.548,1.462,1.806,1.677,2.064,1.677.344,0,.6-.516.6-1.29,0-1.763-.43-2.709-1.505-3.354a62.059,62.059,0,0,0-10.793-4.515c.774-2.193.9-2.838,1.419-8.127ZM106.6,32.922a16.121,16.121,0,0,1,2.193-.172h10.664a.471.471,0,0,0,.473-.43.7.7,0,0,0-.172-.387c-1.333-1.247-1.763-1.634-3.225-2.838-1.118,1.247-1.118,1.247-2.408,2.666h-5.031a11.268,11.268,0,0,1-2.838-.3Zm-1.634,5.848a14.356,14.356,0,0,1,2.709-.258h12.685a.379.379,0,0,0,.387-.344,1.106,1.106,0,0,0-.3-.516,38.745,38.745,0,0,0-3.483-2.881c-.989,1.161-1.29,1.548-2.279,2.752h-6.708a16.192,16.192,0,0,1-3.268-.344Zm1.677,5.805a7.651,7.651,0,0,1,2.193-.258h10.062a.37.37,0,0,0,.344-.344.748.748,0,0,0-.129-.3c-1.376-1.29-1.806-1.634-3.225-2.8-.9,1.075-1.161,1.376-1.978,2.451h-4.773a11.5,11.5,0,0,1-2.838-.3Zm0,5.848a11.936,11.936,0,0,1,2.193-.172h10.148a.37.37,0,0,0,.344-.344,1.094,1.094,0,0,0-.086-.3,39.5,39.5,0,0,0-3.182-2.838c-.86,1.075-1.118,1.419-1.935,2.494h-4.988a11.2,11.2,0,0,1-2.838-.3ZM109.263,65h5.977v1.2c0,.344.172.473.559.473a7.426,7.426,0,0,0,1.806-.215.6.6,0,0,0,.473-.516c-.172-2.537-.215-5.289-.215-9.374.946-.344,1.376-.645,1.376-.9,0-.129-.129-.258-.43-.559-.989-.86-1.29-1.118-2.365-1.978-.731.86-.946,1.118-1.634,1.978h-5.2a23.619,23.619,0,0,0-3.053-1.677c.043,1.892.086,4.773.086,7.525,0,1.376,0,1.849-.086,6.622,0,.43.172.559.731.559,1.548,0,1.978-.172,1.978-.688Zm0-8.9h5.977v7.912h-5.977Zm16.383-22.36c-.6,2.537-2.193,4.859-3.87,5.547-.86.344-.946.473-.946,1.161,0,1.075.6,2.15,1.2,2.15.731,0,1.849-1.075,2.623-2.494a14.755,14.755,0,0,0,1.677-6.364Zm7.439,6.149c1.72-.774,4.945-2.494,8.17-4.386a4.462,4.462,0,0,0,.989.129c.473,0,.9-.215.9-.473,0-.344-.516-.688-2.15-1.5-.43-.172-1.075-.516-1.935-.946a9.629,9.629,0,0,1-1.634,2.193,25.677,25.677,0,0,1-4.6,4.515Zm-7.439,10.32c-.688,2.709-1.978,4.558-3.827,5.332-.688.258-.688.258-.774.344a1.141,1.141,0,0,0-.344.946c0,1.29.516,2.365,1.2,2.365.645,0,1.763-.946,2.494-2.193a14.782,14.782,0,0,0,1.935-6.579Zm49.493-19.866c1.806,1.161,2.365,1.806,2.365,2.537,0,1.032-1.29,2.838-6.493,9.159-2.623,3.225-3.311,4.386-3.311,5.762a5.591,5.591,0,0,0,1.634,3.612c4.472,5.246,4.687,5.5,6.278,7.783a40.522,40.522,0,0,1,3.612,6.063c.731,1.548.9,1.763,1.462,1.763.9,0,1.462-.946,1.462-2.58A5.536,5.536,0,0,0,181.5,61.6c-1.032-2.021-3.225-4.429-7.912-8.772a41.278,41.278,0,0,1-3.01-2.838,3.6,3.6,0,0,1-1.29-2.236c0-.817.559-1.806,2.064-3.483a107,107,0,0,1,7.912-7.439c2.279-1.849,2.494-2.107,2.494-2.666,0-.6-.258-1.032-.946-1.72a9.054,9.054,0,0,0-4.773-2.279A1.994,1.994,0,0,0,175.139,30.342ZM210.1,40.748c1.591,2.752,3.268,3.87,5.891,3.87a22.069,22.069,0,0,0,4.128-.43c-2.795,8.084-4.73,12.556-6.751,15.394-.9,1.29-.946,1.419-.946,2.107a6.433,6.433,0,0,0,.6,2.494c.258.6.559.86.989.86.9,0,1.462-1.075,3.182-6.192,1.591-4.687,3.053-9.159,4.472-13.416.043-.129.258-.731.559-1.634a46.51,46.51,0,0,0,7.525-2.537c1.806-.774,2.494-1.333,2.494-2.064,0-.344-.215-.6-.688-.774a7.993,7.993,0,0,0-2.279-.473c-.344,0-.516.086-1.2.731a15.931,15.931,0,0,1-4.988,2.623,38.254,38.254,0,0,1,2.58-6.149c.516-.731.516-.731.516-1.032,0-.645-.645-1.247-1.935-1.72a10.906,10.906,0,0,0-3.7-.817,2.272,2.272,0,0,0-1.333.387c2.408.817,3.053,1.376,3.053,2.666a30.844,30.844,0,0,1-1.462,7.31,20.037,20.037,0,0,1-5.461.817c-1.849,0-2.967-.559-4.73-2.365Zm19.092,7.1a23.528,23.528,0,0,1,7.869-1.591h.344c-1.161,1.161-1.806,1.763-2.107,2.021l-1.419,1.29-.645.645.258.387a5.864,5.864,0,0,0,.86-.516l1.591-1.032a11.6,11.6,0,0,1,1.419-.817,5.614,5.614,0,0,1,3.311-.86c1.247-.086,1.634-.3,1.634-1.032a1.425,1.425,0,0,0-.688-1.2,5.243,5.243,0,0,0-2.709-.774,19.425,19.425,0,0,0-9.976,2.924Zm-2.064,7.267a8.777,8.777,0,0,0-.387,2.709,6.551,6.551,0,0,0,3.655,6.235,19.159,19.159,0,0,0,7.955,1.376c3.4,0,5.074-.473,5.074-1.419a1.7,1.7,0,0,0-.774-1.2,4.918,4.918,0,0,0-2.193-1.032,1.93,1.93,0,0,0-.731.172,10.293,10.293,0,0,1-4.128.645,12.225,12.225,0,0,1-4.6-.817,5.313,5.313,0,0,1-3.268-5.2c0-.172,0-.688.043-1.333Zm8.729-22.7a19.416,19.416,0,0,1,3.311,4.515c1.333,2.8,1.333,2.8,1.892,2.8.731,0,1.333-.774,1.333-1.806s-.6-2.021-2.15-3.44a21.93,21.93,0,0,0-3.827-2.666Zm4.558-2.494a21.092,21.092,0,0,1,4.687,6.106c.344.6.6.817.989.817.645,0,1.075-.731,1.075-1.763,0-1.161-.559-2.064-2.193-3.311a20.912,20.912,0,0,0-4.128-2.451Zm44.376,4.773a32.742,32.742,0,0,1,3.483,2.494,27.045,27.045,0,0,1-3.139,1.591c-2.15.86-2.15.86-2.709,1.118-1.72-2.193-2.838-3.569-3.311-4.128-1.333-1.505-1.763-2.064-1.763-2.279,0-.3.43-.473,1.333-.473a17.283,17.283,0,0,1,1.935.172l.215-.645a15.4,15.4,0,0,0-5.031-.9c-1.849,0-2.924.6-2.924,1.591,0,.6.3.946,1.634,1.677a22.817,22.817,0,0,1,5.977,5.59,28.972,28.972,0,0,1-7.955,1.333,10.393,10.393,0,0,1-6.88-2.365l-.473.43a9.589,9.589,0,0,0,7.912,3.784,29.348,29.348,0,0,0,8.729-1.419,35.64,35.64,0,0,1,5.16,9.546,31.978,31.978,0,0,0-8.428-1.118c-7.052,0-11.309,2.58-11.309,6.88,0,3.1,2.279,5.719,6.149,7.009a26.768,26.768,0,0,0,8.428,1.161c3.01,0,3.741-.258,3.741-1.333,0-.946-1.548-2.322-2.666-2.322a3.175,3.175,0,0,0-.516.086,18.231,18.231,0,0,1-3.741.3,16.9,16.9,0,0,1-5.977-.946c-2.107-.9-3.354-2.494-3.354-4.343,0-3.1,3.1-5.031,8.041-5.031a18.935,18.935,0,0,1,7.783,1.634,11.33,11.33,0,0,1,2.881,2.021c.6.6.86.731,1.333.731.86,0,1.161-.6,1.161-2.279a6.231,6.231,0,0,0-.946-3.225,104.34,104.34,0,0,0-5.891-9.288,45.214,45.214,0,0,0,6.278-2.666c1.634-.946,2.365-1.591,2.365-2.236,0-.86-.6-1.333-1.677-1.333h-.258a1.463,1.463,0,0,1-.43.043,20.017,20.017,0,0,1-4.859-1.333Zm43.731,12.9c-.559.946-.559.946-1.247,2.064-2.236,3.741-2.236,3.741-3.612,6.063-.946,1.591-.946,1.591-1.419,2.279a6.242,6.242,0,0,1-2.236-3.354,18.417,18.417,0,0,1-.989-6.235,33.625,33.625,0,0,1,.774-6.407,7.331,7.331,0,0,0,.129-1.118,5.185,5.185,0,0,0-1.935-3.4c-1.29-1.29-2.537-2.107-3.225-2.107h-.387c1.849,2.408,2.15,3.4,2.193,7.4a48.672,48.672,0,0,0,.3,7.568,19.71,19.71,0,0,0,2.924,8.6c1.333,1.978,3.526,3.655,4.73,3.655a1.016,1.016,0,0,0,.946-1.075,3.764,3.764,0,0,0-.086-.688,5.155,5.155,0,0,1-.258-1.462c0-1.72.9-4.257,4.042-11.481Zm9.589-6.966a11.884,11.884,0,0,1,5.332,5.633,15.617,15.617,0,0,1,1.333,5.633c0,.817-.129.989-.989,1.29-.387.129-2.322.688-5.8,1.634l.129.645c1.462-.086,2.279-.086,3.268-.086,1.849,0,2.666.129,3.225.516a2.076,2.076,0,0,0,1.29.473c1.29,0,2.15-1.333,2.15-3.4,0-5.934-4.3-11.653-9.718-12.857Z" transform="translate(415.216 361.5)" fill="#720000" stroke="#fff" stroke-width="9.6"/>
    <g id="グループ_3109" data-name="グループ 3109">
      <path id="パス_3907" data-name="パス 3907" d="M27.821-31.906v9.2c.086,1.892.645,2.322,3.139,2.279.473,0,1.5,0,2.967.043H34.4a28.666,28.666,0,0,0,4.558-.3c.731-.172,1.2-.6,1.2-1.075,0-.387-.344-.688-.86-.817-1.118-.258-1.118-.3-1.118-1.333l-.043-3.655h-.516l-.387,1.591c-.172.688-.3,1.118-.344,1.29a11.769,11.769,0,0,1-.473,1.548c-.344.6-.774.731-2.881.731-3.1,0-3.225-.043-3.225-.9v-8.6H35.9a26.022,26.022,0,0,1-1.978,4.816l.258.258A26.987,26.987,0,0,0,38.7-31.175c1.978-.258,2.236-.344,2.236-.731,0-.172-.086-.344-.43-.688a28.1,28.1,0,0,0-2.967-2.451c-.86.9-1.075,1.161-1.892,2.15H17.071v-.9c0-.3,0-.688-.043-1.247h-.774a8.3,8.3,0,0,1-.817,3.913,6.261,6.261,0,0,1-1.763,2.279c-.946.645-1.032.731-1.032,1.2a4.278,4.278,0,0,0,.516,1.806.8.8,0,0,0,.731.559,2.932,2.932,0,0,0,2.021-1.591,13.125,13.125,0,0,0,1.075-5.031h4.687c-.043,3.44-.215,4.687-.946,6.321-1.161,2.709-3.1,4.515-7.052,6.536l.258.559c7.1-2.537,9.374-4.9,10.105-10.277a21.32,21.32,0,0,0,.172-3.139ZM27-14.792v-3.956c.989-.258,1.376-.473,1.376-.817,0-.43-.215-.43-4.343-.688a14.436,14.436,0,0,1,.215,2.967v2.494H15.48a10.655,10.655,0,0,1-3.139-.387l.215,1.634A17.556,17.556,0,0,1,15.48-13.8h6.794a31.033,31.033,0,0,1-7.138,9.5A26.033,26.033,0,0,1,10.1-.3l.3.516A33.612,33.612,0,0,0,17.63-4.429a24.961,24.961,0,0,0,6.622-7.826V-7.31l-.215,9.761c.043.344.172.516.516.516,2.322,0,2.451-.043,2.537-.731-.043-4.472-.043-4.945-.043-5.8C27-5.547,27-6.923,27-7.31V-13.5a21.915,21.915,0,0,0,4.3,7.353,23.839,23.839,0,0,0,7.1,5.59c.817-2.021,1.462-2.666,2.967-2.924l.043-.645A19.085,19.085,0,0,1,31.3-9.116,16.241,16.241,0,0,1,27.477-13.8H40.119c.258,0,.387-.043.387-.172a.372.372,0,0,0-.129-.258,44.462,44.462,0,0,0-3.655-3.4c-1.075,1.161-1.419,1.548-2.537,2.838ZM4.558-34.83a10.219,10.219,0,0,1,1.806,1.849c.774.9,1.978,2.494,2.408,3.139,1.161,1.634,1.2,1.72,1.548,1.72.731,0,1.333-1.247,1.333-2.752,0-1.376-1.548-2.408-6.794-4.386Zm-3.01,9.288a16.911,16.911,0,0,1,4.085,4.429c1.118,1.849,1.2,1.978,1.677,1.978q.452,0,.774-.645a6.068,6.068,0,0,0,.43-2.064c0-1.634-1.548-2.623-6.665-4.214Zm.774,15.91c2.322.86,2.408.9,2.752,1.376A5.727,5.727,0,0,1,5.762-4.9,21.587,21.587,0,0,1,5.2.086a7.1,7.1,0,0,0-.215,1.29c0,.645.344,1.118.86,1.118a3.437,3.437,0,0,0,2.193-1.2A4.742,4.742,0,0,0,9.03-1.419a13.762,13.762,0,0,0-.989-4.859,6.214,6.214,0,0,1-.516-1.849,7.644,7.644,0,0,1,.645-2.107l5.246-13.631L12.9-24.08c-2.623,4.816-3.139,5.805-3.526,6.622-3.913,7.74-3.913,7.74-4.343,7.74a4.1,4.1,0,0,1-.9-.129c-.043,0-.387-.086-.9-.172a5.482,5.482,0,0,0-.774-.172ZM74.39-19.608A16.659,16.659,0,0,1,78.3-14.276c.258.516.473.731.688.731.559,0,1.29-1.462,1.29-2.58,0-.774-.3-1.118-1.892-2.064A21.184,21.184,0,0,0,74.691-20Zm.3-2.8c.645-1.2.645-1.2,1.677-3.139,1.419-.129,2.064-.387,2.064-.817a.4.4,0,0,0-.258-.344c-.387-.172-2.58-.9-4.386-1.462a37.172,37.172,0,0,1-2.58,7.052,43.429,43.429,0,0,1-7.1,10.578l.344.387a23.452,23.452,0,0,0,6.063-5.805,40.574,40.574,0,0,0,6.02,8.9C73.272-3.526,70-1.032,64.113,2.408l.344.559a33.1,33.1,0,0,0,9.761-5.16c1.462-1.075,2.537-1.935,3.913-3.139a30.437,30.437,0,0,0,5.117,4.085A20.77,20.77,0,0,0,90,2.021C91.418-.258,91.633-.43,93.525-.688l.086-.387c-7.1-1.806-9.632-2.881-13.76-5.934,3.44-3.655,5.676-7.353,8.127-13.33,1.892-.688,2.064-.774,2.064-1.118,0-.172-.129-.344-.43-.6-.989-.731-2.021-1.548-3.139-2.365-.6.645-1.2,1.333-1.806,2.021Zm10.277.989A44.622,44.622,0,0,1,77.873-8.6a26.175,26.175,0,0,1-6.751-8.17,41.38,41.38,0,0,0,3.01-4.644Zm-10.879-8.3v-4.3c1.677-.559,1.892-.688,1.892-.989,0-.516-1.118-.731-5.031-1.032a21.836,21.836,0,0,1,.215,3.4v2.924H57.62a20.133,20.133,0,0,1-4.085-.473l.387,1.849a22.716,22.716,0,0,1,3.483-.387H92.88c.129,0,.258-.172.258-.344,0-.086-.086-.172-.215-.3-1.892-1.677-2.494-2.193-4.515-3.741l-2.537,3.4ZM53.535-10.363a35.439,35.439,0,0,0,6.536-6.45l.043,7.783c0,5.5,0,5.5-.172,11.438v.086c0,.43.215.6.774.6.387,0,1.118-.086,1.634-.129.387-.086.516-.215.516-.688l-.043-6.966L62.866-8.3v-8.514c1.075-.3,1.505-.559,1.505-.946,0-.344-.559-.516-2.8-.86A43.772,43.772,0,0,0,66.22-25.37h.817c.817,0,1.5-.258,1.5-.559,0-.344-.473-.645-2.408-1.419-.516-.172-1.333-.516-2.322-.946a30.537,30.537,0,0,1-3.655,7.912,57.006,57.006,0,0,1-7.181,9.632Zm71.165-9.89a3.937,3.937,0,0,0-3.956,3.913,3.946,3.946,0,0,0,3.956,3.956,3.937,3.937,0,0,0,3.913-3.956A3.927,3.927,0,0,0,124.7-20.253Zm52.761,2.365h8.9v1.72c0,.387.172.516.688.516,1.935,0,2.537-.172,2.537-.817-.172-2.451-.215-5.891-.215-11.61v-3.483c1.247-.86,1.462-1.075,1.462-1.376,0-.172-.172-.344-.516-.645-1.075-.86-1.419-1.118-2.58-1.978-.817.9-.817.9-1.806,1.978H166.066a31.432,31.432,0,0,0-3.268-1.978c.086,1.978.129,4.257.129,8.557,0,3.913-.043,8-.129,11.18.043.344.215.473.688.473,1.591,0,2.365-.215,2.365-.731v-1.806h8.514v6.622h-13.33a15.417,15.417,0,0,1-4.472-.344l.3,1.591a21.3,21.3,0,0,1,4.171-.258h13.33v1.935c0,4.859-.043,7.654-.129,10.922v.129c0,.258.215.43.645.43a12.884,12.884,0,0,0,2.279-.258.531.531,0,0,0,.387-.6c-.086-2.537-.086-2.537-.086-10.621v-1.935h18.447c.215,0,.387-.129.387-.258s-.086-.258-.3-.516c-1.935-1.634-1.935-1.634-4.128-3.44q-1.29,1.419-2.967,3.225H177.461Zm8.9-8.471H165.851v-6.235h20.511Zm0,.989v6.493H165.851V-25.37Zm33.841,13.5h3.87v1.677c0,.258.129.344.6.344,1.376,0,2.322-.258,2.322-.688v-.086c-.129-3.4-.172-5.117-.172-8.213v-3.44c.946-.559,1.29-.9,1.29-1.118,0-.129-.086-.258-.43-.559-.946-.86-1.247-1.118-2.279-1.935-.688.817-.946,1.075-1.677,1.935H220.2v-5.461h9.159a.241.241,0,0,0,.258-.215c0-.086-.086-.215-.258-.43-1.333-1.333-1.763-1.72-3.139-3.01-.946,1.161-1.247,1.505-2.15,2.666H220.2v-3.7c1.333-.43,1.72-.645,1.72-.946,0-.43-.559-.559-4.859-1.118a28.269,28.269,0,0,1,.172,4.085V-30.4H211.56a10.9,10.9,0,0,1-3.268-.344l.3,1.591a14.636,14.636,0,0,1,2.967-.258h5.676v5.461H213.71c-1.376-.86-1.806-1.118-3.311-1.935.258,2.15.258,3.01.258,13.5,0,.344-.043,1.333-.086,2.8V-9.5c0,.3.086.387.516.387a7.7,7.7,0,0,0,1.806-.215c.3-.086.344-.129.344-.43v-2.107h4v5.719H211.56a13.9,13.9,0,0,1-3.44-.344l.258,1.677a13.846,13.846,0,0,1,3.182-.344h5.676v.774c0,2.451,0,3.741-.086,7.224,0,.258.129.344.516.344,2.021,0,2.537-.129,2.58-.6C220.2.774,220.2.774,220.2-4.558v-.6h7.869c.3,0,.473-.086.473-.215a1.116,1.116,0,0,0-.172-.43c-1.333-1.29-1.763-1.677-3.1-2.838-.9,1.032-1.161,1.376-2.064,2.494H220.2Zm-6.966-6.88v-4.214h10.836v4.214Zm10.836.989v4.9H213.237v-4.9Zm18.06,4.9V-1.419c0,.344-.086.43-.387.43h-.086c-3.311-.043-4.343-.086-7.224-.258l-.043.6A16.139,16.139,0,0,1,239.381.6a2.287,2.287,0,0,1,1.462,1.978,7.531,7.531,0,0,0,3.311-1.2,2.486,2.486,0,0,0,1.075-2.365c-.172-3.741-.172-4.429-.172-8.385V-31.3c.86-.559,1.2-.9,1.2-1.118,0-.172-.129-.344-.473-.645-.989-.86-1.333-1.118-2.365-1.935-.688.817-.9,1.075-1.591,1.935h-7.4a32.009,32.009,0,0,0-3.4-1.806c.129,2.365.172,3.612.172,8.6,0,10.879-.258,14.448-1.2,18.06-1.118,4.042-2.838,6.966-6.364,10.793l.43.516c3.311-2.709,4.773-4.3,6.192-6.708a24.378,24.378,0,0,0,3.182-9.245ZM234.006-23.65l.043-5.848v-2.58h8.084v8.428Zm8.127.989v8.815h-8.557a79.519,79.519,0,0,0,.43-8.815Zm19.909-5.2a1.865,1.865,0,0,0-.473,1.161,6.141,6.141,0,0,0,1.118,2.881c.989,1.548,2.279,2.537,3.311,2.537a2.834,2.834,0,0,0,1.72-.6c4.042-2.193,13.889-5.117,19.221-5.762-3.612,1.892-5.289,3.053-7.009,4.945a15.933,15.933,0,0,0-4.687,10.492,11.42,11.42,0,0,0,4.988,9.632A17.759,17.759,0,0,0,289,.516c.9,0,1.548-.516,1.548-1.2a3.521,3.521,0,0,0-1.29-2.064,2.142,2.142,0,0,0-1.806-.688,13,13,0,0,1-4.343-1.032,8.726,8.726,0,0,1-5.719-8.385c0-7.353,7.1-14.362,14.448-14.362a5.881,5.881,0,0,1,1.2.086,6.088,6.088,0,0,0,.817.043c.817,0,1.333-.43,1.333-1.075,0-.559-.387-1.118-1.247-1.634a5.742,5.742,0,0,0-2.322-.9,5.417,5.417,0,0,0-1.505.344,47.1,47.1,0,0,1-5.8,1.419c-2.967.559-5.418,1.118-6.966,1.5C267.675-25.112,266.6-24.9,265.4-24.9a2.437,2.437,0,0,1-1.935-.731A4.681,4.681,0,0,1,262.042-27.864Zm26.4,6.665a20.627,20.627,0,0,1,3.311,4.558c1.333,2.795,1.333,2.795,1.892,2.795.731,0,1.333-.774,1.333-1.806s-.6-2.021-2.15-3.44A21.931,21.931,0,0,0,289-21.758Zm4.515-2.451a20.524,20.524,0,0,1,4.73,6.106c.344.6.6.817.989.817.645,0,1.075-.731,1.075-1.763,0-1.161-.559-2.064-2.193-3.311a20.912,20.912,0,0,0-4.128-2.451Zm25.37-4.6a10.643,10.643,0,0,0,2.236,3.784,10.861,10.861,0,0,0,4.171,2.666,9.068,9.068,0,0,0-4.171,2.279,4.44,4.44,0,0,0-1.333,2.967,6.416,6.416,0,0,0,1.892,4.257,10.549,10.549,0,0,0,3.44,2.193c-.043,1.075-.086,1.634-.086,2.15,0,3.741,1.075,6.321,3.311,8a9.83,9.83,0,0,0,5.848,1.763c5.977,0,10.449-3.956,10.449-9.159,0-4.386-2.709-7.955-9.073-11.868l-.473.559c4.085,3.139,6.493,7.181,6.493,10.75a7.23,7.23,0,0,1-1.419,4.386A8.359,8.359,0,0,1,332.82-.6c-4.343,0-6.794-2.451-6.794-6.837,0-.559.043-1.075.129-2.107a17.429,17.429,0,0,0,4.558.774c.9,0,1.462-.387,1.462-.989a2.983,2.983,0,0,0-2.58-2.322,2.843,2.843,0,0,0-.473.043.947.947,0,0,1-.344.043,11.921,11.921,0,0,1-2.193-.3,51.149,51.149,0,0,1,1.72-7.955,9.887,9.887,0,0,0,1.677.215c.86,0,1.376-.344,1.376-.9a2.433,2.433,0,0,0-.6-1.419,3.122,3.122,0,0,0-1.72-.946c1.161-3.784,1.634-4.945,2.365-5.977a1.852,1.852,0,0,0,.559-1.247c0-.946-.86-2.15-2.236-3.1a6.593,6.593,0,0,0-3.182-1.333,1.773,1.773,0,0,0-.731.172c1.72,1.2,2.322,2.107,2.322,3.569,0,1.032-.129,1.677-1.333,7.654a13.077,13.077,0,0,1-5.031-1.849,9.357,9.357,0,0,1-2.967-3.1Zm7.783,7.7a71.075,71.075,0,0,0-1.29,7.826c-2.967-.9-4.429-2.236-4.429-4.042a2.978,2.978,0,0,1,.946-2.15C322.371-19.952,323.618-20.425,326.112-20.554Zm45.537-8.729a10.019,10.019,0,0,0,3.01,2.494,11.739,11.739,0,0,0,4.9,1.161c.774,0,2.279-.043,3.225-.129l-.817.516-2.8,1.505c-1.161.645-1.935,1.075-3.139,1.806l.3.645c6.837-2.881,9.2-3.741,11.481-4.257,2.881-.6,3.139-.774,3.139-1.505a2.951,2.951,0,0,0-2.58-2.236,4.362,4.362,0,0,0-.774.172,33.532,33.532,0,0,1-8.944,1.29,10.084,10.084,0,0,1-6.579-1.892ZM370.015-12.9a11.7,11.7,0,0,0-.688,3.655A8.232,8.232,0,0,0,372.9-2.494c2.15,1.462,5.2,2.064,10.019,2.064a49.37,49.37,0,0,0,10.019-.86c.9-.215,1.376-.688,1.376-1.333a2.052,2.052,0,0,0-.946-1.505A4.693,4.693,0,0,0,391-4.988a2.184,2.184,0,0,0-.731.129,27.643,27.643,0,0,1-9.5,1.591c-6.923,0-10.148-2.408-10.148-7.525,0-.516.043-.989.129-1.935Zm21.113-20.038A19.17,19.17,0,0,1,394.4-28.38c1.376,2.8,1.376,2.8,1.935,2.8.731,0,1.333-.774,1.333-1.806s-.6-2.021-2.15-3.44a21.929,21.929,0,0,0-3.827-2.666Zm4.515-2.494a22.025,22.025,0,0,1,4.73,6.149c.344.6.6.817.989.817.645,0,1.075-.731,1.075-1.763,0-1.2-.559-2.064-2.236-3.311a19.427,19.427,0,0,0-4.085-2.451Zm44.634,20.64h5.547v.387c.086.3.215.387.688.387,1.462,0,1.892-.129,2.064-.688,0-.516,0-.516-.043-1.634v-4.042c.817-.43,1.247-.774,1.247-1.118q0-.194-.387-.516a19.914,19.914,0,0,0-2.537-1.677,13.084,13.084,0,0,0-1.419,1.72H431.763c-1.333-.774-1.333-.774-3.139-1.849.129,1.849.172,4.042.172,8.3,0,.645-.043,1.333-.129,2.537.129.43.258.473.989.473a8.685,8.685,0,0,0,1.419-.129c.215-.043.3-.086.387-.258v-1.892h5.074A36.254,36.254,0,0,1,425.1-5.332l.215.387A25.85,25.85,0,0,0,431.806-7.7a24.825,24.825,0,0,0,5.8-4.6v.946c0,1.118,0,1.118-.258,8.213.086.43.344.6.9.6.344,0,1.075-.086,1.462-.129.6-.086.731-.215.731-.774-.129-3.354-.172-4.9-.172-6.88v-1.2a28.1,28.1,0,0,1,4.085,2.666c1.032.86,3.311,3.053,4.773,4.6.6.645.946.86,1.333.86.473,0,.774-.516.774-1.376,0-1.72-.344-2.451-1.505-3.268-.645-.387-.645-.387-3.44-1.849l.989-.387a20.087,20.087,0,0,0,3.4-1.548,5.786,5.786,0,0,0,1.118.172c.43,0,.774-.215.774-.516,0-.387-.559-.86-3.311-2.623a17.916,17.916,0,0,1-3.827,4.472,52.667,52.667,0,0,0-5.16-2.15Zm-8.815-6.192h14.362v5.2H431.462Zm8.815-10.535V-33.97c1.161-.215,1.677-.516,1.677-.946,0-.516-.6-.688-4.859-1.118a21.109,21.109,0,0,1,.258,3.4v1.118h-7.138a20.993,20.993,0,0,1-3.268-.3l.473,1.548a12.085,12.085,0,0,1,2.8-.258h7.138v4.472h-9.718a13.518,13.518,0,0,1-2.967-.387l.6,1.634a5.738,5.738,0,0,1,2.365-.258h26.1a.307.307,0,0,0,.344-.3.7.7,0,0,0-.172-.387c-1.462-1.29-1.935-1.763-3.44-3.182-.989,1.2-.989,1.2-2.408,2.881h-7.783V-30.53h10.664c.3,0,.516-.086.516-.258q0-.129-.258-.387c-1.419-1.376-1.892-1.763-3.483-3.1-.946,1.247-1.247,1.591-2.15,2.752ZM415.6-34.959a25.457,25.457,0,0,1,2.967,4.386c.344.645,1.763,3.655,2.021,4.257.387.989.688,1.29,1.161,1.29.774,0,1.548-1.634,1.548-3.225,0-1.548-2.881-4.343-7.31-7.138Zm8.3,18.834c.989-.645,1.548-1.118,1.548-1.333,0-.172-.086-.3-.344-.516a25.2,25.2,0,0,0-2.666-1.978c-.688.731-.9.946-1.591,1.72h-4.558a13.354,13.354,0,0,1-2.107-.258l.473,1.5a5.666,5.666,0,0,1,1.677-.258h4.6V-6.407a36.25,36.25,0,0,1-6.751,4.343c1.849,3.612,2.193,4.171,2.623,4.171a.563.563,0,0,0,.516-.559,4.747,4.747,0,0,0-.043-.688,3.49,3.49,0,0,1-.043-.731,73.06,73.06,0,0,0,5.461-6.536c1.075,3.139,1.935,4.386,3.784,5.762,2.322,1.634,4.472,2.107,10.277,2.322,1.634.043,9.116.172,10.836.172,1.677,0,2.58-.043,4.171-.172.473-1.849.946-2.365,2.58-2.881v-.473c-8.772.473-11.782.559-16.641.559-5.2,0-7.611-.172-9.116-.688a7.006,7.006,0,0,1-4.687-4.085Zm60.673-11.954h15.05a10.265,10.265,0,0,1-1.978,3.1l.344.43a21.6,21.6,0,0,0,3.87-2.666c2.107-.086,2.924-.215,2.924-.559q0-.193-.387-.516a34.289,34.289,0,0,0-3.01-2.666c-.946.774-1.2,1.032-2.107,1.892H485.6v-2.709h13.76c.344,0,.559-.086.559-.3a.558.558,0,0,0-.215-.3c-1.376-1.247-1.806-1.591-3.225-2.709l-2.064,2.322H485.6v-1.5c1.2-.387,1.591-.6,1.591-.946,0-.473-1.032-.688-4.6-1.075.086,1.2.129,1.763.129,2.666v4.558h-9.632a22.73,22.73,0,0,0-3.612-2.107,90.283,90.283,0,0,1,.344,9.374,116.387,116.387,0,0,1-.645,13.846,21.7,21.7,0,0,1-3.354,9.933l.6.473a27.08,27.08,0,0,0,2.494-3.4A23.484,23.484,0,0,0,471.839-9.5a143.175,143.175,0,0,0,.86-16.254v-2.322h9.2v3.354l-3.01.172c-.645.043-1.247.086-1.806.086a14.151,14.151,0,0,1-2.838-.258l.43,1.677c.989-.172,2.881-.387,4.214-.473l3.01-.172a4.252,4.252,0,0,1,.043.645,9.052,9.052,0,0,1-.043.989c.172,2.15.387,2.236,7.267,2.236,5.375,0,10.148-.129,11.7-.344,1.419-.172,2.107-.645,2.107-1.462,0-.516-.172-.688-.817-.817-.473-.043-.559-.172-.559-.731v-2.451l-.516-.043c-1.333,3.741-1.333,3.741-3.01,3.827-.86,0-7.482.129-8.772.129a37.137,37.137,0,0,1-4.386-.172c-.3-.086-.344-.172-.344-.731v-1.247l11.653-.774c.387,0,.559-.129.559-.3a.722.722,0,0,0-.3-.387c-1.376-1.032-1.806-1.333-3.139-2.193a18.59,18.59,0,0,0-1.935,2.193l-6.837.43Zm-8.428,20.64c0,.344.172.473.6.473h.086c.129,0,.344-.043.645-.043,1.161-.043,1.419-.129,1.462-.516v-.86h18.49v.86c0,.258.129.344.516.344,1.505,0,2.236-.258,2.236-.817v-.215c-.086-4.042-.086-4.429-.086-5.762v-2.107c.946-.387,1.2-.559,1.2-.774,0-.172-.129-.344-.473-.6-.688-.473-1.462-1.032-2.408-1.72-.645.645-.86.86-1.462,1.5H479.235a25.583,25.583,0,0,0-3.053-1.677,35.55,35.55,0,0,1,.129,4c0,4.042,0,4.816-.172,7.826Zm10.578-6.321h-7.783v-2.924h7.783Zm0,.989v3.4h-7.783v-3.4Zm2.58-.989v-2.924h8.127v2.924Zm0,.989h8.127v3.4H489.3ZM475.623-6.192c-.688,2.709-1.634,4.128-3.182,4.73-1.118.43-1.118.43-1.247.6a1.094,1.094,0,0,0-.215.688c0,1.075.473,2.064,1.032,2.064A4.171,4.171,0,0,0,474.892-.3c.774-1.376,1.075-2.709,1.419-5.762Zm22.489.817a25.631,25.631,0,0,1,4.171,5.246c1.118,2.193,1.161,2.193,1.548,2.193.645,0,1.118-1.118,1.118-2.58a2.556,2.556,0,0,0-1.376-2.408,26.776,26.776,0,0,0-5.117-2.881ZM479.794-.3c0,1.419.215,1.892,1.032,2.107.9.3,3.569.387,11.352.387,4.9,0,6.063-.258,6.063-1.376,0-.645-.344-.989-1.118-1.075-.516-.043-.645-.172-.645-.6V-.989l.258-4.386-.645-.086a32.255,32.255,0,0,1-1.548,4.73c-.3.6-.6.688-2.365.688-.946,0-2.279,0-3.913.043h-.516c-2.021,0-4.773-.086-5.031-.172-.172-.086-.258-.258-.258-.645V-4.988q1.419-.258,1.419-.774c0-.387-.43-.559-2.279-.9-.43-.086-1.032-.215-1.892-.387a22.3,22.3,0,0,1,.086,2.709ZM485.47-7.1a6.187,6.187,0,0,1,1.29,1.419,22.319,22.319,0,0,1,1.634,2.623c.774,1.548.774,1.591,1.032,1.591.43,0,.9-1.118.9-2.193a1.827,1.827,0,0,0-.6-1.462,12.618,12.618,0,0,0-3.956-2.408ZM520.988-26.7a8.779,8.779,0,0,0,3.139,3.139,6.958,6.958,0,0,0,3.784.9,12.752,12.752,0,0,0,2.021-.172,57.08,57.08,0,0,1-5.375,10.1,19.284,19.284,0,0,1-2.064,2.58A1.824,1.824,0,0,0,522.02-8.6c0,1.72.6,3.053,1.333,3.053.516,0,.9-.387,1.548-1.548.387-.731,3.7-7.955,4.988-10.922,1.161-2.58,1.892-4.343,2.279-5.2,6.837-1.591,9.5-2.666,9.5-3.784,0-.731-1.247-1.29-2.924-1.29a1.056,1.056,0,0,0-.9.344c-1.2,1.032-1.591,1.247-4.773,2.365,1.548-3.182,2.451-4.945,2.623-5.289a1.837,1.837,0,0,0,.43-1.118c0-.6-.559-1.075-2.021-1.806a9.03,9.03,0,0,0-3.44-.989,1.828,1.828,0,0,0-1.032.3c2.064,1.032,2.752,1.892,2.752,3.311a17.8,17.8,0,0,1-1.548,6.106,18.821,18.821,0,0,1-3.913.516c-2.15,0-3.354-.559-5.418-2.494Zm23.134,2.752c3.053,1.032,4.386,1.72,5.547,2.967-1.591.344-1.677.387-2.322.559a8.039,8.039,0,0,0-4.085,2.021c-1.161,1.29-1.505,2.623-1.505,6.149,0,.516,0,.86.129,4.257a13.91,13.91,0,0,0-2.58-.215c-4.773,0-8.041,2.107-8.041,5.117,0,2.709,2.666,4.558,6.536,4.558a7.937,7.937,0,0,0,5.59-1.849,4.825,4.825,0,0,0,1.2-3.655v-.817a15.634,15.634,0,0,1,5.2,3.784c.9.989,1.075,1.118,1.505,1.118.516,0,.86-.6.86-1.462a4.1,4.1,0,0,0-1.72-3.4,19.387,19.387,0,0,0-6.106-2.8,61.465,61.465,0,0,1-.86-7.4c0-2.967,1.075-3.913,4.515-3.913,2.193,0,3.01.172,4.214.9a1.623,1.623,0,0,0,.989.344,1.121,1.121,0,0,0,1.118-1.247c0-.989-1.032-2.279-2.709-3.354a15.193,15.193,0,0,0-7.353-2.365ZM541.929-4.644c0,2.709-1.806,4.128-5.289,4.128-2.666,0-4.3-.946-4.3-2.537,0-2.021,2.236-3.268,5.891-3.268a12.012,12.012,0,0,1,3.7.516Zm46.01-30.014c1.806,1.161,2.365,1.806,2.365,2.537,0,1.032-1.29,2.838-6.493,9.159-2.623,3.225-3.311,4.386-3.311,5.762a5.59,5.59,0,0,0,1.634,3.612c4.472,5.246,4.687,5.5,6.278,7.783A40.521,40.521,0,0,1,592.024.258c.731,1.548.9,1.763,1.462,1.763.9,0,1.462-.946,1.462-2.58A5.536,5.536,0,0,0,594.3-3.4c-1.032-2.021-3.225-4.429-7.912-8.772a41.277,41.277,0,0,1-3.01-2.838,3.6,3.6,0,0,1-1.29-2.236c0-.817.559-1.806,2.064-3.483a107.013,107.013,0,0,1,7.912-7.439c2.279-1.849,2.494-2.107,2.494-2.666,0-.6-.258-1.032-.946-1.72a9.054,9.054,0,0,0-4.773-2.279A1.994,1.994,0,0,0,587.939-34.658ZM10.449,35.717a10.018,10.018,0,0,0,3.01,2.494,11.739,11.739,0,0,0,4.9,1.161c.774,0,2.279-.043,3.225-.129l-.817.516-2.8,1.505c-1.161.645-1.935,1.075-3.139,1.806l.3.645c6.837-2.881,9.2-3.741,11.481-4.257,2.881-.6,3.139-.774,3.139-1.505a2.951,2.951,0,0,0-2.58-2.236,4.362,4.362,0,0,0-.774.172,33.532,33.532,0,0,1-8.944,1.29,10.084,10.084,0,0,1-6.579-1.892ZM8.815,52.1a11.7,11.7,0,0,0-.688,3.655A8.232,8.232,0,0,0,11.7,62.506c2.15,1.462,5.2,2.064,10.019,2.064a49.37,49.37,0,0,0,10.019-.86c.9-.215,1.376-.688,1.376-1.333a2.052,2.052,0,0,0-.946-1.5,4.693,4.693,0,0,0-2.365-.86,2.184,2.184,0,0,0-.731.129,27.643,27.643,0,0,1-9.5,1.591c-6.923,0-10.148-2.408-10.148-7.525,0-.516.043-.989.129-1.935ZM29.928,32.062A19.17,19.17,0,0,1,33.2,36.62c1.376,2.8,1.376,2.8,1.935,2.8.731,0,1.333-.774,1.333-1.806s-.6-2.021-2.15-3.44A21.93,21.93,0,0,0,30.487,31.5Zm4.515-2.494a22.025,22.025,0,0,1,4.73,6.149c.344.6.6.817.989.817.645,0,1.075-.731,1.075-1.763,0-1.2-.559-2.064-2.236-3.311a19.426,19.426,0,0,0-4.085-2.451Zm29.369,9.159v-7.4c1.419-.516,1.849-.731,1.849-1.118,0-.473-.559-.6-4.816-1.075a45.124,45.124,0,0,1,.172,5.031v4.558H56.631a14.26,14.26,0,0,1-3.139-.344l.258,1.548a22.2,22.2,0,0,1,2.881-.215H60.5a39.308,39.308,0,0,1-2.15,7.482A60.646,60.646,0,0,1,52.89,58.163l.43.387a30.472,30.472,0,0,0,4.816-6.579,38.264,38.264,0,0,0,3.483-7.783l-.258,4.9c-.086.946-.086,3.01-.086,6.02,0,.989-.043,1.849-.043,3.01-.043,2.279-.043,2.279-.215,9.46.043.387.129.473.559.473a8.577,8.577,0,0,0,2.021-.258c.3-.129.387-.172.387-.43v-.043c-.086-5.805-.086-5.805-.129-22.489A20.953,20.953,0,0,1,67.51,50.6c.688,1.591.86,1.806,1.29,1.806.6,0,1.29-1.462,1.29-2.838,0-1.247-.559-1.935-2.795-3.526a38.569,38.569,0,0,0-3.44-2.107V39.716h7.052c.258,0,.43-.086.43-.215a.726.726,0,0,0-.086-.215c-1.462-1.505-1.892-1.935-3.4-3.311-.946,1.118-1.247,1.505-2.236,2.752ZM75.25,32.191a35.95,35.95,0,0,0-3.225-2.279c.086,5.719.129,8.729.129,17.243,0,13.889,0,13.889-.172,19.694,0,.473.129.6.6.6,1.892,0,2.408-.172,2.408-.731V63.839H87.161V66.72c0,.387.172.516.645.516a7.309,7.309,0,0,0,2.064-.258.521.521,0,0,0,.344-.559c-.129-8.213-.129-8.213-.129-32.379,1.247-.516,1.591-.774,1.591-1.118,0-.215-.172-.43-.516-.731-1.118-.9-1.462-1.161-2.623-1.978-.731.817-.946,1.075-1.72,1.978Zm11.911,9.718H74.992V33.18H87.161Zm0,.989v9.2H74.992V42.9Zm0,10.191V62.85H74.992V53.089Zm30.1,15.222a29.855,29.855,0,0,0,6.278-2.236,15.083,15.083,0,0,0,6.751-6.751,19.732,19.732,0,0,0,1.634-6.622,21.145,21.145,0,0,0,.6,3.7,14.777,14.777,0,0,0,2.838,5.461,19.609,19.609,0,0,0,7.267,5.59c.387-1.849,1.075-2.666,2.623-3.182l.043-.6a16.794,16.794,0,0,1-7.4-2.494,13.063,13.063,0,0,1-3.87-3.956c4.386-2.365,4.816-2.623,7.009-4.3a9.1,9.1,0,0,0,1.161.129c.473,0,.9-.215.9-.473a.52.52,0,0,0-.258-.387c-.344-.215-2.279-1.2-3.784-1.978a21.769,21.769,0,0,1-4.945,6.063,5.371,5.371,0,0,0-.43.387,8.924,8.924,0,0,1-1.032-3.01,19.527,19.527,0,0,1-.3-4.472c1.075-.473,1.462-.688,1.548-.86l.172-.3c.043-.043-.3-.344-.43-.387a29.2,29.2,0,0,0-4.128-.559,9.622,9.622,0,0,1,.086,1.5c0,.817-.086,2.279-.215,3.44-.387,3.913-1.161,6.536-2.537,8.729-1.806,2.881-4.386,4.73-9.8,7.009ZM132.44,31.417c1.2-.387,1.72-.688,1.72-.989,0-.43-.774-.688-2.666-.9-.43-.086-1.118-.172-1.978-.258a13.558,13.558,0,0,1,.129,1.591c0,.559-.129,2.924-.258,4.73-.344,4.773-1.591,7.826-4.386,10.535a16.892,16.892,0,0,1-5.246,3.526l.387.645a18.533,18.533,0,0,0,7.611-4.558,12.665,12.665,0,0,0,2.924-4.386,38.859,38.859,0,0,1,9.847,6.923c1.548,1.462,1.806,1.677,2.064,1.677.344,0,.6-.516.6-1.29,0-1.763-.43-2.709-1.505-3.354a62.059,62.059,0,0,0-10.793-4.515c.774-2.193.9-2.838,1.419-8.127ZM106.6,32.922a16.121,16.121,0,0,1,2.193-.172h10.664a.471.471,0,0,0,.473-.43.7.7,0,0,0-.172-.387c-1.333-1.247-1.763-1.634-3.225-2.838-1.118,1.247-1.118,1.247-2.408,2.666h-5.031a11.268,11.268,0,0,1-2.838-.3Zm-1.634,5.848a14.356,14.356,0,0,1,2.709-.258h12.685a.379.379,0,0,0,.387-.344,1.106,1.106,0,0,0-.3-.516,38.745,38.745,0,0,0-3.483-2.881c-.989,1.161-1.29,1.548-2.279,2.752h-6.708a16.192,16.192,0,0,1-3.268-.344Zm1.677,5.805a7.651,7.651,0,0,1,2.193-.258h10.062a.37.37,0,0,0,.344-.344.748.748,0,0,0-.129-.3c-1.376-1.29-1.806-1.634-3.225-2.8-.9,1.075-1.161,1.376-1.978,2.451h-4.773a11.5,11.5,0,0,1-2.838-.3Zm0,5.848a11.936,11.936,0,0,1,2.193-.172h10.148a.37.37,0,0,0,.344-.344,1.094,1.094,0,0,0-.086-.3,39.5,39.5,0,0,0-3.182-2.838c-.86,1.075-1.118,1.419-1.935,2.494h-4.988a11.2,11.2,0,0,1-2.838-.3ZM109.263,65h5.977v1.2c0,.344.172.473.559.473a7.426,7.426,0,0,0,1.806-.215.6.6,0,0,0,.473-.516c-.172-2.537-.215-5.289-.215-9.374.946-.344,1.376-.645,1.376-.9,0-.129-.129-.258-.43-.559-.989-.86-1.29-1.118-2.365-1.978-.731.86-.946,1.118-1.634,1.978h-5.2a23.619,23.619,0,0,0-3.053-1.677c.043,1.892.086,4.773.086,7.525,0,1.376,0,1.849-.086,6.622,0,.43.172.559.731.559,1.548,0,1.978-.172,1.978-.688Zm0-8.9h5.977v7.912h-5.977Zm16.383-22.36c-.6,2.537-2.193,4.859-3.87,5.547-.86.344-.946.473-.946,1.161,0,1.075.6,2.15,1.2,2.15.731,0,1.849-1.075,2.623-2.494a14.755,14.755,0,0,0,1.677-6.364Zm7.439,6.149c1.72-.774,4.945-2.494,8.17-4.386a4.462,4.462,0,0,0,.989.129c.473,0,.9-.215.9-.473,0-.344-.516-.688-2.15-1.5-.43-.172-1.075-.516-1.935-.946a9.629,9.629,0,0,1-1.634,2.193,25.677,25.677,0,0,1-4.6,4.515Zm-7.439,10.32c-.688,2.709-1.978,4.558-3.827,5.332-.688.258-.688.258-.774.344a1.141,1.141,0,0,0-.344.946c0,1.29.516,2.365,1.2,2.365.645,0,1.763-.946,2.494-2.193a14.782,14.782,0,0,0,1.935-6.579Zm49.493-19.866c1.806,1.161,2.365,1.806,2.365,2.537,0,1.032-1.29,2.838-6.493,9.159-2.623,3.225-3.311,4.386-3.311,5.762a5.591,5.591,0,0,0,1.634,3.612c4.472,5.246,4.687,5.5,6.278,7.783a40.522,40.522,0,0,1,3.612,6.063c.731,1.548.9,1.763,1.462,1.763.9,0,1.462-.946,1.462-2.58A5.536,5.536,0,0,0,181.5,61.6c-1.032-2.021-3.225-4.429-7.912-8.772a41.278,41.278,0,0,1-3.01-2.838,3.6,3.6,0,0,1-1.29-2.236c0-.817.559-1.806,2.064-3.483a107,107,0,0,1,7.912-7.439c2.279-1.849,2.494-2.107,2.494-2.666,0-.6-.258-1.032-.946-1.72a9.054,9.054,0,0,0-4.773-2.279A1.994,1.994,0,0,0,175.139,30.342ZM210.1,40.748c1.591,2.752,3.268,3.87,5.891,3.87a22.069,22.069,0,0,0,4.128-.43c-2.795,8.084-4.73,12.556-6.751,15.394-.9,1.29-.946,1.419-.946,2.107a6.433,6.433,0,0,0,.6,2.494c.258.6.559.86.989.86.9,0,1.462-1.075,3.182-6.192,1.591-4.687,3.053-9.159,4.472-13.416.043-.129.258-.731.559-1.634a46.51,46.51,0,0,0,7.525-2.537c1.806-.774,2.494-1.333,2.494-2.064,0-.344-.215-.6-.688-.774a7.993,7.993,0,0,0-2.279-.473c-.344,0-.516.086-1.2.731a15.931,15.931,0,0,1-4.988,2.623,38.254,38.254,0,0,1,2.58-6.149c.516-.731.516-.731.516-1.032,0-.645-.645-1.247-1.935-1.72a10.906,10.906,0,0,0-3.7-.817,2.272,2.272,0,0,0-1.333.387c2.408.817,3.053,1.376,3.053,2.666a30.844,30.844,0,0,1-1.462,7.31,20.037,20.037,0,0,1-5.461.817c-1.849,0-2.967-.559-4.73-2.365Zm19.092,7.1a23.528,23.528,0,0,1,7.869-1.591h.344c-1.161,1.161-1.806,1.763-2.107,2.021l-1.419,1.29-.645.645.258.387a5.864,5.864,0,0,0,.86-.516l1.591-1.032a11.6,11.6,0,0,1,1.419-.817,5.614,5.614,0,0,1,3.311-.86c1.247-.086,1.634-.3,1.634-1.032a1.425,1.425,0,0,0-.688-1.2,5.243,5.243,0,0,0-2.709-.774,19.425,19.425,0,0,0-9.976,2.924Zm-2.064,7.267a8.777,8.777,0,0,0-.387,2.709,6.551,6.551,0,0,0,3.655,6.235,19.159,19.159,0,0,0,7.955,1.376c3.4,0,5.074-.473,5.074-1.419a1.7,1.7,0,0,0-.774-1.2,4.918,4.918,0,0,0-2.193-1.032,1.93,1.93,0,0,0-.731.172,10.293,10.293,0,0,1-4.128.645,12.225,12.225,0,0,1-4.6-.817,5.313,5.313,0,0,1-3.268-5.2c0-.172,0-.688.043-1.333Zm8.729-22.7a19.416,19.416,0,0,1,3.311,4.515c1.333,2.8,1.333,2.8,1.892,2.8.731,0,1.333-.774,1.333-1.806s-.6-2.021-2.15-3.44a21.93,21.93,0,0,0-3.827-2.666Zm4.558-2.494a21.092,21.092,0,0,1,4.687,6.106c.344.6.6.817.989.817.645,0,1.075-.731,1.075-1.763,0-1.161-.559-2.064-2.193-3.311a20.912,20.912,0,0,0-4.128-2.451Zm44.376,4.773a32.742,32.742,0,0,1,3.483,2.494,27.045,27.045,0,0,1-3.139,1.591c-2.15.86-2.15.86-2.709,1.118-1.72-2.193-2.838-3.569-3.311-4.128-1.333-1.505-1.763-2.064-1.763-2.279,0-.3.43-.473,1.333-.473a17.283,17.283,0,0,1,1.935.172l.215-.645a15.4,15.4,0,0,0-5.031-.9c-1.849,0-2.924.6-2.924,1.591,0,.6.3.946,1.634,1.677a22.817,22.817,0,0,1,5.977,5.59,28.972,28.972,0,0,1-7.955,1.333,10.393,10.393,0,0,1-6.88-2.365l-.473.43a9.589,9.589,0,0,0,7.912,3.784,29.348,29.348,0,0,0,8.729-1.419,35.64,35.64,0,0,1,5.16,9.546,31.978,31.978,0,0,0-8.428-1.118c-7.052,0-11.309,2.58-11.309,6.88,0,3.1,2.279,5.719,6.149,7.009a26.768,26.768,0,0,0,8.428,1.161c3.01,0,3.741-.258,3.741-1.333,0-.946-1.548-2.322-2.666-2.322a3.175,3.175,0,0,0-.516.086,18.231,18.231,0,0,1-3.741.3,16.9,16.9,0,0,1-5.977-.946c-2.107-.9-3.354-2.494-3.354-4.343,0-3.1,3.1-5.031,8.041-5.031a18.935,18.935,0,0,1,7.783,1.634,11.33,11.33,0,0,1,2.881,2.021c.6.6.86.731,1.333.731.86,0,1.161-.6,1.161-2.279a6.231,6.231,0,0,0-.946-3.225,104.34,104.34,0,0,0-5.891-9.288,45.214,45.214,0,0,0,6.278-2.666c1.634-.946,2.365-1.591,2.365-2.236,0-.86-.6-1.333-1.677-1.333h-.258a1.463,1.463,0,0,1-.43.043,20.017,20.017,0,0,1-4.859-1.333Zm43.731,12.9c-.559.946-.559.946-1.247,2.064-2.236,3.741-2.236,3.741-3.612,6.063-.946,1.591-.946,1.591-1.419,2.279a6.242,6.242,0,0,1-2.236-3.354,18.417,18.417,0,0,1-.989-6.235,33.625,33.625,0,0,1,.774-6.407,7.331,7.331,0,0,0,.129-1.118,5.185,5.185,0,0,0-1.935-3.4c-1.29-1.29-2.537-2.107-3.225-2.107h-.387c1.849,2.408,2.15,3.4,2.193,7.4a48.672,48.672,0,0,0,.3,7.568,19.71,19.71,0,0,0,2.924,8.6c1.333,1.978,3.526,3.655,4.73,3.655a1.016,1.016,0,0,0,.946-1.075,3.764,3.764,0,0,0-.086-.688,5.155,5.155,0,0,1-.258-1.462c0-1.72.9-4.257,4.042-11.481Zm9.589-6.966a11.884,11.884,0,0,1,5.332,5.633,15.617,15.617,0,0,1,1.333,5.633c0,.817-.129.989-.989,1.29-.387.129-2.322.688-5.8,1.634l.129.645c1.462-.086,2.279-.086,3.268-.086,1.849,0,2.666.129,3.225.516a2.076,2.076,0,0,0,1.29.473c1.29,0,2.15-1.333,2.15-3.4,0-5.934-4.3-11.653-9.718-12.857Z" transform="translate(415.216 361.5)" fill="#720000" stroke="#720000" stroke-width="0.6"/>
      <path id="パス_3939" data-name="パス 3939" d="M20,0H275a20,20,0,0,1,20,20V47a20,20,0,0,1-20,20H20A20,20,0,0,1,0,47V20A20,20,0,0,1,20,0Z" transform="translate(404 233)" fill="#fff"/>
      <path id="パス_3940" data-name="パス 3940" d="M20,0H200a20,20,0,0,1,20,20V47a20,20,0,0,1-20,20H20A20,20,0,0,1,0,47V20A20,20,0,0,1,20,0Z" transform="translate(716 233)" fill="#fff"/>
      <path id="パス_3941" data-name="パス 3941" d="M7.047-19.749a6.757,6.757,0,0,0,2.03,1.682,7.917,7.917,0,0,0,3.306.783c.522,0,1.537-.029,2.175-.087l-.551.348-1.885,1.015c-.783.435-1.305.725-2.117,1.218l.2.435a48.17,48.17,0,0,1,7.743-2.871c1.943-.406,2.117-.522,2.117-1.015a1.99,1.99,0,0,0-1.74-1.508,2.942,2.942,0,0,0-.522.116,22.615,22.615,0,0,1-6.032.87,6.8,6.8,0,0,1-4.437-1.276ZM5.945-8.7a7.888,7.888,0,0,0-.464,2.465A5.552,5.552,0,0,0,7.888-1.682C9.338-.7,11.4-.29,14.645-.29A33.3,33.3,0,0,0,21.4-.87c.609-.145.928-.464.928-.9a1.384,1.384,0,0,0-.638-1.015,3.165,3.165,0,0,0-1.6-.58,1.473,1.473,0,0,0-.493.087A18.643,18.643,0,0,1,13.2-2.2c-4.669,0-6.844-1.624-6.844-5.075,0-.348.029-.667.087-1.3ZM20.184-22.214a12.929,12.929,0,0,1,2.2,3.074c.928,1.885.928,1.885,1.3,1.885.493,0,.9-.522.9-1.218s-.406-1.363-1.45-2.32a14.79,14.79,0,0,0-2.581-1.8ZM23.229-23.9a14.854,14.854,0,0,1,3.19,4.147c.232.406.406.551.667.551.435,0,.725-.493.725-1.189,0-.812-.377-1.392-1.508-2.233a13.1,13.1,0,0,0-2.755-1.653Zm26.8,7.308A31.459,31.459,0,0,0,53.65-20.01c1.45-.29,1.8-.435,1.827-.7,0-.116-.087-.261-.348-.464-.783-.638-1.015-.841-1.856-1.479-.551.551-.754.7-1.305,1.218H45.443l1.073-1.363c1.16-.145,1.45-.261,1.45-.493s-.348-.377-2-.812c-.29-.087-.754-.232-1.334-.406A16.469,16.469,0,0,1,42.195-20.1a26.568,26.568,0,0,1-6.322,6.438l.261.29a22.7,22.7,0,0,0,4.089-2.7c-.058,4.2-.087,5.22-.2,6.989-.348,5.249-.986,7.453-3.19,10.788l.29.29a10.98,10.98,0,0,0,2.407-3.016A21.121,21.121,0,0,0,41.847-8a47.494,47.494,0,0,0,.348-6.438c0-.319.029-.841.029-1.479h19c.551,0,.725-.058.725-.261a.65.65,0,0,0-.2-.29c-1.16-.986-1.537-1.3-2.755-2.2-.812.9-1.073,1.16-1.8,2.088Zm-7.656,0c-.406-.232-.435-.261-.9-.522a38.627,38.627,0,0,0,3.451-3.654h7.047A27.828,27.828,0,0,1,49.3-16.588ZM61.219-6.583c-.754,3.016-.9,3.567-1.392,5.191-.261.783-.493.928-1.856.928-.087,0-.667.029-1.45.029-.551.029-1.044.029-1.624.029-1.479,0-5.916-.058-6.351-.087-1.1-.058-1.305-.232-1.305-.957V-12.035h7.8c-.029,1.566-.174,4.2-.29,4.93-.116.9-.261,1.015-.986,1.015-.261,0-.261,0-2.146-.145l-2.262-.116v.377a21.985,21.985,0,0,1,2.958.667c.522.2.7.435.812,1.363a9.034,9.034,0,0,0,1.827-.377A2.506,2.506,0,0,0,56.4-5.887a23.657,23.657,0,0,0,.522-5.51c.551-.261.957-.609.957-.783,0-.145-.116-.29-.406-.522-.7-.551-.928-.725-1.711-1.276-.493.609-.638.783-1.073,1.276H47.647a20.252,20.252,0,0,0-2.465-1.305c.058,1.073.087,1.6.087,2.117v6.641c0,1.3,0,1.595-.058,4.379.087,1.421.87,1.914,3.074,1.972,1.682.058,4.292.087,5.974.087A52.152,52.152,0,0,0,61.538.9c.754-.116,1.1-.406,1.1-.812a.728.728,0,0,0-.464-.667c-.725-.232-.841-.319-.841-.551l.029-.319.261-5.075Zm24.157.348v-2.61h8.236a.249.249,0,0,0,.232-.2.463.463,0,0,0-.087-.232,26.13,26.13,0,0,0-2.349-1.943c-.638.7-.841.928-1.566,1.711H85.376v-2.523h8.236a.312.312,0,0,0,.261-.232.463.463,0,0,0-.087-.232c-.986-.841-1.305-1.1-2.378-1.885-.638.7-.841.928-1.508,1.682H85.376v-2.523h9.831a.249.249,0,0,0,.232-.2.386.386,0,0,0-.087-.2c-.986-.87-1.305-1.131-2.349-2-.667.725-.87.957-1.6,1.74H76.995c-.9-.58-1.189-.754-2.146-1.276.087,1.711.116,2.9.116,5.568,0,2.552-.029,4-.116,6.612.029.2.145.29.406.29a5.471,5.471,0,0,0,1.305-.174.272.272,0,0,0,.232-.319v-.377H93.7A14.062,14.062,0,0,1,92.771-.9c-.377.7-.435.725-1.247.725-.348,0-1.189-.029-1.6-.058-1.856-.087-1.856-.087-2.784-.116V.029A10.929,10.929,0,0,1,90.074.7a1.535,1.535,0,0,1,.87,1.392c1.972-.406,2.407-.58,2.958-1.247.754-.87,1.044-1.827,1.479-4.5.029-.29.116-.725.2-1.305.667-.232.928-.435.928-.638,0-.116-.058-.2-.261-.406-.7-.638-.928-.841-1.624-1.421a9.21,9.21,0,0,0-1.189,1.189Zm-1.856,0H76.792v-2.61H83.52ZM76.792-9.512v-2.523H83.52v2.523Zm0-3.19v-2.523H83.52V-12.7Zm-.87-8.265c.493-.7.609-.9,1.16-1.711,1.1-.087,1.421-.2,1.421-.464s-.232-.319-3.19-1.1a13.353,13.353,0,0,1-1.363,3.335,26.171,26.171,0,0,1-3.364,5.017l.261.29a20.266,20.266,0,0,0,4.611-4.7h1.8a7.833,7.833,0,0,1,1.508,3.219c.116.551.261.754.493.754.435,0,1.1-1.044,1.1-1.711,0-.522-.783-1.247-2.494-2.262h6a.249.249,0,0,0,.232-.2.412.412,0,0,0-.058-.174c-.986-.87-1.276-1.131-2.262-1.943-.725.783-.725.783-1.537,1.653Zm10.991,0c.435-.609.638-.9,1.189-1.8,1.1-.145,1.363-.261,1.363-.493,0-.261-.2-.319-2.958-1.015A12.976,12.976,0,0,1,85.4-21.4a19.3,19.3,0,0,1-2.9,4.292l.377.29a23.271,23.271,0,0,0,3.509-3.48h1.6a9.416,9.416,0,0,1,1.45,3.161c.2.7.261.812.493.812a.714.714,0,0,0,.58-.377,2.749,2.749,0,0,0,.464-1.247c0-.7-.986-1.6-2.494-2.349h8.294A.249.249,0,0,0,97-20.5a.571.571,0,0,0-.116-.232c-1.073-.957-1.421-1.247-2.552-2.146-.667.812-.9,1.073-1.624,1.914ZM74.53-4.089a3.77,3.77,0,0,1-.928,2A3.959,3.959,0,0,1,72.036-.9c-.522.232-.7.464-.7.957,0,.783.493,1.537,1.015,1.537S73.544.957,74.066-.029a8.662,8.662,0,0,0,.986-4.06ZM77.894-4A12.58,12.58,0,0,1,78.677.2c.058.58.174.812.435.812.609,0,1.45-1.073,1.45-1.885,0-.667-1.131-2.175-2.407-3.248ZM82.3-4.35A13.2,13.2,0,0,1,84.013-.783c.232.812.319.957.551.957.464,0,1.015-.928,1.015-1.74a1.432,1.432,0,0,0-.464-1.073,10.256,10.256,0,0,0-2.552-1.943Zm4.814,0A7.156,7.156,0,0,1,88.856-2c.377.725.464.87.7.87.29,0,.725-.58.812-1.073.058-.522.058-.522.058-.551.029-.116-.2-.435-.377-.609a6.588,6.588,0,0,0-1.972-1.044c-.145-.058-.377-.145-.667-.29ZM118.9-13.659a2.655,2.655,0,0,0-2.668,2.639A2.661,2.661,0,0,0,118.9-8.352a2.655,2.655,0,0,0,2.639-2.668A2.649,2.649,0,0,0,118.9-13.659Zm27.347-6.09a6.757,6.757,0,0,0,2.03,1.682,7.917,7.917,0,0,0,3.306.783c.522,0,1.537-.029,2.175-.087l-.551.348-1.885,1.015c-.783.435-1.3.725-2.117,1.218l.2.435a48.17,48.17,0,0,1,7.743-2.871c1.943-.406,2.117-.522,2.117-1.015a1.99,1.99,0,0,0-1.74-1.508,2.942,2.942,0,0,0-.522.116,22.614,22.614,0,0,1-6.032.87,6.8,6.8,0,0,1-4.437-1.276ZM145.145-8.7a7.888,7.888,0,0,0-.464,2.465,5.552,5.552,0,0,0,2.407,4.553C148.538-.7,150.6-.29,153.845-.29A33.3,33.3,0,0,0,160.6-.87c.609-.145.928-.464.928-.9a1.384,1.384,0,0,0-.638-1.015,3.165,3.165,0,0,0-1.6-.58,1.473,1.473,0,0,0-.493.087A18.643,18.643,0,0,1,152.4-2.2c-4.669,0-6.844-1.624-6.844-5.075,0-.348.029-.667.087-1.3Zm14.239-13.514a12.929,12.929,0,0,1,2.2,3.074c.928,1.885.928,1.885,1.3,1.885.493,0,.9-.522.9-1.218s-.406-1.363-1.45-2.32a14.79,14.79,0,0,0-2.581-1.8Zm3.045-1.682a14.854,14.854,0,0,1,3.19,4.147c.232.406.406.551.667.551.435,0,.725-.493.725-1.189,0-.812-.377-1.392-1.508-2.233a13.1,13.1,0,0,0-2.755-1.653Zm34.626,8.178v5.394L196.968-2.7a.289.289,0,0,1,.029.116c0,.29.087.377.377.377.2,0,1.189-.058,1.421-.087.145-.029.2-.058.261-.261-.029-1.247-.029-1.247-.029-2.9,0-1.421-.029-3.1-.029-5.017v-5.249h2.9c.232,0,.319-.029.319-.145a.472.472,0,0,0-.116-.261c-.928-.9-1.218-1.16-2.2-2-.667.783-.9,1.015-1.537,1.74h-4.524v-4.524a56.372,56.372,0,0,0,6.322-1.566,6.756,6.756,0,0,0,1.073.174c.29,0,.493-.116.493-.29,0-.232-.9-.928-2.552-1.972a21.215,21.215,0,0,1-5.017,3.016,20.19,20.19,0,0,0-2.378-1.189,62.651,62.651,0,0,1,.261,6.293,36.523,36.523,0,0,1-.725,7.685A13.231,13.231,0,0,1,188.355-2.9l.319.29a16.985,16.985,0,0,0,2.233-2.349,13.065,13.065,0,0,0,2.233-4.7,24.968,24.968,0,0,0,.7-6.061ZM186.035-18.5H183.86a8.241,8.241,0,0,1-1.566-.174l.261.928c.638-.058.928-.087,1.334-.087h2.117v5.742a13.109,13.109,0,0,1-3.451,1.189,10.1,10.1,0,0,0,.9,2.581c.087.174.232.319.319.319.174,0,.261-.232.29-.783a3.2,3.2,0,0,1,.029-.464,22.122,22.122,0,0,0,1.943-1.1V-4.7c0,.319-.087.406-.435.406l-1.392-.087c-1.16-.087-1.16-.087-1.856-.174v.377a8.841,8.841,0,0,1,2.146.7c.435.261.551.464.667,1.334a7.1,7.1,0,0,0,1.653-.493,1.524,1.524,0,0,0,1.073-1.421,7.111,7.111,0,0,0,.029-.725,4.513,4.513,0,0,0-.029-.58c-.029-2.784-.029-2.784-.029-4.756V-11.31c1.885-1.305,2.407-1.653,3.538-2.552l-.116-.377c-1.972.928-2.117.986-3.422,1.508v-5.1H191.4a.133.133,0,0,0,.145-.116c0-.058-.058-.116-.145-.2a22.281,22.281,0,0,0-1.769-1.943c-.522.7-.7.9-1.189,1.595h-.58v-4.292c1.276-.406,1.276-.406,1.276-.667,0-.319-.319-.377-3.306-.754a27.7,27.7,0,0,1,.2,3.741Zm-10.15-4.785a18.787,18.787,0,0,1,3.364,5.6c.261.638.493.928.783.928.493,0,1.218-1.189,1.218-2.03,0-.986-1.189-2.117-5.046-4.756Zm-.638,11.861a6.817,6.817,0,0,1,1.305-.116h2.668v7.569a21.07,21.07,0,0,1-4.321,2.7c1.1,2.639,1.276,2.958,1.6,2.958.145,0,.261-.319.261-.783V.348a24.109,24.109,0,0,0,3.509-4.524,7.394,7.394,0,0,0,1.653,3.016c1.537,1.74,2.987,2.32,6.293,2.523,1.015.058,6.641.145,9.686.145,1.044,0,1.334,0,2.9-.029A1.939,1.939,0,0,1,202.3-.58V-.9c-4,.319-7.859.464-11.281.464-1.45,0-3.161-.029-4.437-.087a5.606,5.606,0,0,1-4.379-1.769,3.654,3.654,0,0,1-1.073-1.885v-6.815c.522-.348.812-.551.87-.58a.593.593,0,0,0,.145-.261c0-.116-.087-.232-.29-.377-.725-.58-.957-.725-1.711-1.276-.464.58-.609.725-1.073,1.276h-2.523a8.255,8.255,0,0,1-1.537-.232Zm48.546-6.5v-4.611c.928-.29,1.305-.493,1.305-.754,0-.29-.435-.406-3.422-.783.116,1.537.145,2.291.145,3.248v2.9h-5.8a14.136,14.136,0,0,1-2.9-.232l.174,1.1a9.258,9.258,0,0,1,2.146-.2h6.38v5.916h-8.062a13.067,13.067,0,0,1-3.045-.261l.174,1.1a16.408,16.408,0,0,1,2.523-.174h7.134a38.577,38.577,0,0,1-1.856,4.756,30.907,30.907,0,0,1-1.972,4.031c-1.74.145-3.074.2-3.654.2-.145,0-.551-.029-1.015-.058.261.986.319,1.276.667,2.407.058.261.145.464.174.609.116.406.261.58.435.58.261,0,.406-.261.7-1.247,11.049-1.914,11.252-1.972,16.327-3.132a19.221,19.221,0,0,1,1.682,2.61c.638,1.131.754,1.276,1.044,1.276.493,0,1.015-1.131,1.015-2.233,0-.7-.406-1.305-1.653-2.436a43.628,43.628,0,0,0-6.525-4.93l-.319.319a59.225,59.225,0,0,1,4.263,4.785c-4.7.638-4.7.638-12.238,1.189a57.117,57.117,0,0,0,5.568-8.729H236c.2,0,.377-.116.377-.232,0-.058-.058-.145-.174-.29-1.16-.986-1.508-1.3-2.726-2.291-.841.87-1.1,1.16-1.943,2.146h-7.743v-5.916h9.889c.174,0,.377-.116.377-.232a.463.463,0,0,0-.087-.232c-1.189-1.044-1.566-1.363-2.755-2.32-.783.87-1.044,1.16-1.827,2.117Z" transform="translate(426 278)" fill="#720000" stroke="#720000" stroke-width="0.6"/>
      <path id="パス_3942" data-name="パス 3942" d="M2.929-16.008A4.821,4.821,0,0,0,7.25-13.63a13.571,13.571,0,0,0,2.262-.2c-.087,2.871-.087,2.871-.145,4.176-.029.551-.029.986-.058,1.392A14.4,14.4,0,0,0,4.7-5.278a2.51,2.51,0,0,0-.87,1.624,1.379,1.379,0,0,0,.957,1.218,11.971,11.971,0,0,1,1.943,1.3C8.5.435,8.5.435,8.9.435A1.762,1.762,0,0,0,10.3-.638a3.4,3.4,0,0,0,.377-1.711c0-.232,0-.551-.029-1.1-.029-.87-.029-.87-.029-3.944a18.736,18.736,0,0,1,7.859-2.088c2.784,0,4.292,1.218,4.292,3.451A3.666,3.666,0,0,1,19.14-2.059a3.879,3.879,0,0,1-2.755-1.1,8.618,8.618,0,0,1-1.74-2.523l-.435.145c1.015,3.364,2.929,5.133,5.6,5.133a4.94,4.94,0,0,0,4.959-5.046c0-3.074-2.494-4.959-6.467-4.959a21.483,21.483,0,0,0-7.685,1.6c.029-1.74.087-3.016.116-3.8.058-1.044.058-1.044.087-1.45a20.165,20.165,0,0,0,4.234-1.421c1.044-.493,1.305-.725,1.305-1.131a.739.739,0,0,0-.493-.638,3.533,3.533,0,0,0-1.1-.261,1.377,1.377,0,0,0-.7.29A8.31,8.31,0,0,1,10.9-15.544a11,11,0,0,1,.9-4.321c.319-.58.319-.58.319-.754a1.188,1.188,0,0,0-.638-.928A6.777,6.777,0,0,0,8.5-22.272a1.63,1.63,0,0,0-1.247.406c2,.348,2.349.957,2.349,4,0,.522,0,1.827-.029,2.668a12.722,12.722,0,0,1-2.9.377A4.847,4.847,0,0,1,3.219-16.3Zm6.293,9.28c0,.174-.058,1.595-.2,4.2C8.99-2,8.845-1.8,8.5-1.8a6.065,6.065,0,0,1-1.8-.464c-.783-.29-1.16-.609-1.16-.9q0-.479.87-1.392A12.146,12.146,0,0,1,9.222-6.728ZM19.314-18.821a8.067,8.067,0,0,1,2,.754,4.371,4.371,0,0,1,1.827,1.8,20.494,20.494,0,0,1-3.161,1.856l.174.29a18.728,18.728,0,0,1,3.567-.783,3.833,3.833,0,0,1,.609.058,1.692,1.692,0,0,0,.435.058.8.8,0,0,0,.87-.841,3.3,3.3,0,0,0-2.03-2.552,9.614,9.614,0,0,0-4.263-1.044Zm30.914,1.856a21.172,21.172,0,0,0,3.161-3.393c1.247-.348,1.247-.348,1.421-.464a.576.576,0,0,0,.174-.261c0-.116-.145-.29-.464-.609-.783-.609-1.015-.812-1.885-1.45-.522.667-.7.87-1.16,1.45H45.733c.493-.667.551-.725,1.073-1.508,1.276-.348,1.363-.406,1.363-.609s-.2-.29-2.088-.725c-.29-.058-.7-.174-1.247-.29A14.96,14.96,0,0,1,42.6-20.445a23.93,23.93,0,0,1-5.162,6.09l.29.319a19.952,19.952,0,0,0,3.886-2.9l.116.812c1.276-.116,2.407-.174,3.1-.174H56.463v3.248H44.138c-.522,0-2.175-.116-3.219-.2l.174,1.015c.812-.058,2.552-.145,3.045-.145H56.463v3.6H44.95c-1.624,0-3.045-.087-4.582-.232l.319,1.131a43.331,43.331,0,0,1,4.466-.232h11.31v.812c0,.2.174.29.551.29,1.1,0,1.508-.116,1.508-.464V-7.6c-.058-3.567-.058-3.915-.058-5.858V-15.6c.2-.116.348-.232.435-.29a3.069,3.069,0,0,0,.522-.377.433.433,0,0,0,.087-.2c0-.145-.116-.29-.348-.493-.725-.58-.928-.754-1.711-1.305-.609.667-.609.667-1.16,1.305Zm-5.394,0a25.838,25.838,0,0,1-2.987-.2,31.126,31.126,0,0,0,3.393-3.857h6.235a23.2,23.2,0,0,1-1.943,4.06ZM41.3-6.235c-.754,2.407-1.74,3.6-3.393,4.089-.87.232-.957.319-.957.87,0,1.218.29,1.827.841,1.827.522,0,1.131-.406,1.827-1.189,1.247-1.392,1.8-2.9,2.088-5.51Zm6.061-.435A9.066,9.066,0,0,1,49.5-4.756a14.92,14.92,0,0,1,1.218,1.711c.261.435.464.609.638.609.522,0,.957-.754.957-1.6a1.446,1.446,0,0,0-.928-1.421,16,16,0,0,0-3.857-1.537Zm9.4.841a15.056,15.056,0,0,1,3.1,4.582C60.407.2,60.407.2,60.61.406A1.075,1.075,0,0,0,61.1.638c.319,0,.58-.232.783-.667a3.132,3.132,0,0,0,.377-1.247c0-1.247-2.03-3.132-5.191-4.9ZM55.216-4.785c-.725,2.958-1.16,4.176-1.479,4.321a24.786,24.786,0,0,1-3.886.145,23.938,23.938,0,0,1-3.77-.116c-.232-.087-.29-.2-.29-.638V-5.162c.812-.2,1.073-.348,1.073-.609,0-.29-.957-.464-3.1-.58a11.883,11.883,0,0,1,.058,1.421v1.421c0,.638,0,.783-.029,3.161A1.392,1.392,0,0,0,44.863,1.16a14.651,14.651,0,0,0,3.857.232,59.913,59.913,0,0,0,6.9-.232c.7-.116,1.044-.406,1.044-.812,0-.29-.2-.522-.609-.754-.58-.319-.609-.319-.609-.551v-.406l.145-3.364Zm18.7-13.224a5.534,5.534,0,0,0,4.234,2.117,18.8,18.8,0,0,0,5.394-.928c.464.725,1.508,2.523,2.03,3.48a21.746,21.746,0,0,1-6.206,1.131,3.776,3.776,0,0,1-3.422-1.711l-.348.261a4.421,4.421,0,0,0,1.392,1.74,5,5,0,0,0,3.016.841,20.219,20.219,0,0,0,6.177-1.131,31.5,31.5,0,0,1,2.175,4.93,26.069,26.069,0,0,0-5.452-.638c-4.582,0-7.656,1.74-7.656,4.35A4.168,4.168,0,0,0,78.068.087a15.228,15.228,0,0,0,5.568.87A14.647,14.647,0,0,0,87.609.522a.575.575,0,0,0,.435-.551c0-.7-1.044-1.508-1.914-1.508a2.142,2.142,0,0,0-.348.058,15.488,15.488,0,0,1-3.654.377c-3.567,0-5.481-.957-5.481-2.755a2.614,2.614,0,0,1,1.74-2.349,7.951,7.951,0,0,1,3.625-.812,11.574,11.574,0,0,1,6.728,2c.464.377.551.435.812.435.58,0,.957-.754.957-1.885a2.763,2.763,0,0,0-.493-1.566l-.435-.725c-.174-.261-.464-.783-.9-1.566-.377-.638-.551-.986-1.305-2.262C91.321-13.978,93-14.877,93-15.544a.717.717,0,0,0-.783-.725h-.232l-.522.058a5.56,5.56,0,0,1-2.436-.812l-.2.319a9.54,9.54,0,0,1,1.508,1.334,18.117,18.117,0,0,1-3.6,1.624c-.725-1.218-1.305-2.175-1.711-2.842-.029-.087-.174-.29-.348-.609,4.756-1.566,5.8-2.03,5.8-2.639,0-.493-.58-.754-1.711-.754a1.158,1.158,0,0,0-.9.29,10.072,10.072,0,0,1-3.828,2.059c-1.073-2.117-1.1-2.2-1.189-2.9-.058-.812-.087-.9-.348-1.131a3.469,3.469,0,0,0-1.972-.377A4.956,4.956,0,0,0,79.2-22.5c-.783.174-.957.29-1.16.783a4.5,4.5,0,0,1,2.233.609,13.044,13.044,0,0,1,2.494,3.219,15.822,15.822,0,0,1-4.756.87A5.889,5.889,0,0,1,74.153-18.3Zm16.53-4.727a13.1,13.1,0,0,1,2.233,3.045c.9,1.885.9,1.885,1.276,1.885.493,0,.9-.522.9-1.218s-.406-1.363-1.45-2.32a14.79,14.79,0,0,0-2.581-1.8Zm3.074-1.682A14.622,14.622,0,0,1,96.686-20.3c.232.435.406.58.667.58.435,0,.725-.493.725-1.189,0-.812-.377-1.392-1.479-2.233a14.225,14.225,0,0,0-2.784-1.682ZM117.131-.087a17.3,17.3,0,0,0,5.655-1.8c3.654-1.943,5.771-5.162,5.771-8.787a8.854,8.854,0,0,0-2.784-6.815,11.019,11.019,0,0,0-7.482-2.668,14.062,14.062,0,0,0-9.976,4.06,9.063,9.063,0,0,0-2.61,5.742,5.569,5.569,0,0,0,.667,2.639,18.052,18.052,0,0,1,1.276,2.726,5.693,5.693,0,0,0,.812,1.856,1.683,1.683,0,0,0,1.276.609c1.073,0,2.494-1.421,4.321-4.321,2.2-3.538,3.828-7.772,3.828-10.034a3.784,3.784,0,0,0-.9-2.407A6.676,6.676,0,0,1,118-19.343a9.573,9.573,0,0,1,5.017,1.334A7.194,7.194,0,0,1,126.3-11.6a10.315,10.315,0,0,1-2.581,6.989A13.189,13.189,0,0,1,116.928-.58Zm-.754-19.082a3.237,3.237,0,0,1,.406,1.45c0,1.8-1.537,5.539-3.683,8.961-1.421,2.262-2.813,3.828-3.451,3.828-.319,0-.7-.319-1.1-.841a6.786,6.786,0,0,1-1.16-3.828C107.387-14.065,111.331-18.27,116.377-19.169Zm36.395.7V-22.5c1.044-.377,1.247-.493,1.247-.667,0-.348-.754-.522-3.422-.783a17.963,17.963,0,0,1,.174,2.088v3.393h-8.7a15.149,15.149,0,0,1-2.088-.174c-.174-.029-.435-.058-.783-.116l.29,1.16a19.542,19.542,0,0,1,2.552-.2H148.6c-.116,6.061-1.131,10.092-3.48,13.63a16.723,16.723,0,0,1-6.148,5.568l.232.493a18.31,18.31,0,0,0,2.929-1.45,17.078,17.078,0,0,0,5.887-6.148,20.224,20.224,0,0,0,2.233-6.67h8.526c-.2,5.075-.957,10-1.711,11.078-.232.29-.435.377-1.044.377-1.073,0-4.031-.232-6.7-.493v.406c4.843.9,5.162,1.044,5.336,2.668,3.045-.406,3.712-.754,4.437-2.378.754-1.74,1.363-5.452,1.8-10.991,1.015-.7,1.015-.7,1.015-.87,0-.087-.087-.2-.377-.464-.783-.58-1.044-.783-1.856-1.392-.493.58-.638.754-1.1,1.392h-8.207a32.584,32.584,0,0,0,.348-4.756h14.355c.2,0,.348-.087.348-.2,0-.087-.058-.174-.174-.29-1.218-1.073-1.6-1.392-2.842-2.407-.754.957-.986,1.247-1.74,2.233Z" transform="translate(739 278)" fill="#720000" stroke="#720000" stroke-width="0.6"/>
      <g id="グループ_1599" data-name="グループ 1599" transform="translate(164.216 -4.766)">
        <rect id="長方形_2440" data-name="長方形 2440" width="536.783" height="112.478" rx="10" transform="translate(251 463.353)" fill="url(#linear-gradient)"/>
        <circle id="楕円形_131" data-name="楕円形 131" cx="64.439" cy="64.439" r="64.439" transform="matrix(0.995, -0.105, 0.105, 0.995, 713.073, 460.719)" fill="url(#linear-gradient)"/>
        <g transform="matrix(1, 0, 0, 1, 224.78, 210.77)" filter="url(#楕円形_137)">
          <circle id="楕円形_137-2" data-name="楕円形 137" cx="59.439" cy="59.439" r="59.439" transform="matrix(0.99, -0.1, 0.1, 0.99, 493.78, 254.93)" fill="#fff"/>
        </g>
        <g id="グループ_1598" data-name="グループ 1598" transform="translate(306.192 507.191)">
          <text id="_0120-470-470" data-name="0120-470-470" transform="translate(50.484 51)" fill="#fff" font-size="64" font-family="Bahnschrift" font-weight="600"><tspan x="0" y="0">0120-470-470</tspan></text>
          <g id="グループ_1585" data-name="グループ 1585" transform="translate(0 3.82)">
            <path id="パス_24" data-name="パス 24" d="M490.3,70.846c-3.309,2.606-3.368,9.9-1.53,15.6a53.077,53.077,0,0,0,8.486,15.856,55.544,55.544,0,0,0,13.332,12.017c5.138,3.209,12.17,4.891,15.537,2.237a18.357,18.357,0,0,0,4.161-5.325s-1.772-2.246-2.162-2.776l-5.948-7.562c-.44-.588-2.813.184-4.04,1a12.4,12.4,0,0,0-2.924,3.794c-1.111.775-2.1.191-4.227-.549-2.551-.891-5.653-4.19-8.175-7.216-2.293-3.116-4.747-6.905-5.044-9.673-.236-2.215-.518-3.338.5-4.233a11.416,11.416,0,0,0,4.341-1.908c1.074-.945,2.365-3.077,1.924-3.665l-5.89-7.612c-.395-.475-2.161-2.774-2.161-2.774A18.7,18.7,0,0,0,490.3,70.846Z" transform="translate(-487.554 -68.061)" fill="#fff"/>
          </g>
        </g>
        <text id="ご相談_無料" data-name="ご相談
無料" transform="matrix(0.995, -0.105, 0.105, 0.995, 783.425, 517.382)" fill="#a92424" font-size="22" font-family="SourceHanSansJP-Bold, Source Han Sans JP" font-weight="700" letter-spacing="0.15em"><tspan x="-36.3" y="0">ご相談</tspan><tspan x="-23.65" y="29">無料</tspan></text>
        <rect id="長方形_2444" data-name="長方形 2444" width="270.678" height="31.091" rx="15.546" transform="translate(392.74 474.327)" fill="#fff"/>
        <text id="_24時間365日対応" data-name="24時間365日対応" transform="translate(443.035 496.613)" fill="#a62424" font-size="17" font-family="SourceHanSansJP-Bold, Source Han Sans JP" font-weight="700" letter-spacing="0.15em"><tspan x="0" y="0">24時間365日対応</tspan></text>
      </g>
    </g>
  </g>
</svg>
