<?xml version="1.0" encoding="UTF-8"?><svg xmlns="http://www.w3.org/2000/svg" viewBox="0 0 618 81"><defs><style>.d{fill:#eee;}.e{fill:#fff;}.f{fill:#a28986;}.g{fill:#391111;}</style></defs><g id="a"/><g id="b"><g id="c"><g><polygon class="d" points="194 40.5 175 0 175 0 175 0 175 0 175 0 0 0 0 81 175 81 175 81 194 40.5"/><polygon class="f" points="406 40.5 387 0 387 0 387 0 387 0 387 0 212 0 212 81 387 81 387 81 406 40.5"/><polygon class="g" points="618 40.5 599 0 599 0 599 0 599 0 599 0 424 0 424 81 599 81 599 81 618 40.5"/><g><path d="M58.3,43.65c-.04,.48-.07,.73-.07,.99,0,2.62,1.65,3.85,5.19,3.85,1.76,0,3.56-.31,4.86-.81,.11-.04,.26-.07,.37-.07,.33,0,.84,.18,1.21,.44,.31,.24,.48,.51,.48,.77,0,.33-.24,.57-.71,.68-1.01,.26-3.17,.44-5.13,.44-2.46,0-4.03-.31-5.13-1.06-1.1-.7-1.83-2.09-1.83-3.45,0-.55,.11-1.12,.35-1.87l.37,.09Zm.68-8.69c1.12,.75,1.89,.97,3.37,.97s3.3-.26,4.58-.66c.15-.04,.33-.09,.4-.09,.57,0,1.32,.66,1.32,1.14,0,.37-.13,.46-1.61,.77-1.17,.26-2.38,.7-5.88,2.18l-.15-.33c.62-.37,1.01-.59,1.61-.92l1.43-.77,.42-.26c-.48,.04-1.25,.07-1.65,.07-.81,0-1.83-.24-2.51-.59-.57-.31-.92-.59-1.54-1.28l.22-.22Zm10.03-1.94c.81,.46,1.41,.88,1.96,1.36,.79,.73,1.1,1.23,1.1,1.76s-.31,.92-.68,.92q-.29,0-.99-1.43c-.37-.77-1.08-1.74-1.67-2.33l.29-.29Zm2.27-1.28c.79,.35,1.43,.75,2.09,1.25,.86,.64,1.14,1.08,1.14,1.69,0,.53-.22,.9-.55,.9-.2,0-.33-.11-.51-.42-.77-1.39-1.21-1.96-2.42-3.15l.24-.29Z"/><path d="M78.38,40.72c.33,.09,.92,.18,1.17,.18h1.91c.35-.42,.46-.53,.81-.97,.57,.42,.75,.53,1.3,.97,.15,.11,.22,.2,.22,.29,0,.04-.07,.15-.11,.2-.04,.02-.26,.18-.66,.44v5.17c.15,.62,.35,.95,.81,1.43,.92,.95,1.72,1.25,3.32,1.34,.97,.04,2.27,.07,3.37,.07,2.6,0,5.52-.11,8.56-.35v.24c-.88,.37-1.08,.66-1.14,1.56-1.19,.02-1.41,.02-2.2,.02-2.31,0-6.58-.07-7.35-.11-2.51-.15-3.61-.59-4.78-1.91-.62-.7-.92-1.25-1.25-2.29-1.21,1.85-1.58,2.31-2.66,3.43v.42c0,.35-.09,.59-.2,.59-.24,0-.37-.24-1.21-2.24,1.1-.51,2.31-1.25,3.28-2.05v-5.74h-2.02c-.4,0-.57,.02-.99,.09l-.18-.77Zm.9-8.43c2.93,2,3.83,2.86,3.83,3.61,0,.64-.55,1.54-.92,1.54-.22,0-.4-.22-.59-.7-.73-1.76-1.17-2.51-2.55-4.25l.24-.2Zm7.46,2.33q-.07-2.2-.15-2.84c2.27,.29,2.51,.33,2.51,.57q0,.2-.97,.51v3.26h.44c.37-.53,.51-.68,.9-1.21,.62,.62,.79,.81,1.34,1.47,.07,.07,.11,.11,.11,.15s-.04,.09-.11,.09h-2.68v3.87c.99-.4,1.1-.44,2.6-1.14l.09,.29c-.86,.68-1.25,.95-2.68,1.94v.9q0,1.5,.02,3.61c.02,.18,.02,.33,.02,.44,0,.15,0,.31-.02,.55-.09,.62-.26,.81-.81,1.08-.35,.15-.68,.26-1.25,.37-.09-.66-.18-.81-.51-1.01-.4-.2-.9-.37-1.63-.53v-.29q.53,.07,1.41,.13,.71,.04,1.06,.07c.26,0,.33-.07,.33-.31v-4.29c-.55,.35-.77,.46-1.47,.84-.02,.15-.02,.29-.02,.35-.02,.42-.09,.59-.22,.59-.07,0-.18-.11-.24-.24q-.15-.24-.68-1.96c1.14-.26,1.63-.42,2.62-.9v-4.36h-1.61c-.31,0-.53,.02-1.01,.07l-.2-.7c.66,.11,.86,.13,1.19,.13h1.65v-1.5Zm5.92,3.61c-.07,2.24-.2,3.3-.53,4.6-.35,1.36-.92,2.55-1.69,3.56-.42,.55-.81,.97-1.69,1.78l-.24-.22c1.28-1.61,1.78-2.6,2.24-4.44,.33-1.3,.55-3.67,.55-5.83,0-1.89-.09-3.98-.2-4.77,.84,.37,1.08,.48,1.8,.9,2.13-1.06,3.02-1.58,3.81-2.29,1.25,.79,1.94,1.32,1.94,1.5,0,.13-.15,.22-.38,.22-.15,0-.37-.04-.81-.13-2.42,.7-3.01,.84-4.8,1.19v3.43h3.43c.48-.55,.66-.73,1.17-1.32,.75,.64,.97,.84,1.67,1.52,.07,.09,.09,.15,.09,.2,0,.09-.07,.11-.24,.11h-2.2v3.98c0,1.45,.02,2.73,.02,3.81q0,1.25,.02,2.2c-.04,.15-.09,.18-.2,.2-.18,.02-.92,.07-1.08,.07-.22,0-.29-.07-.29-.29,0,0,0-.04-.02-.09l.07-5.79v-4.09h-2.44Z"/><path d="M117.43,36.56c.59-.73,.79-.95,1.39-1.61,.9,.73,1.19,.97,2.09,1.76,.04,.07,.07,.13,.07,.18,0,.09-.15,.18-.29,.18h-7.5v4.49h5.88c.64-.75,.84-.97,1.47-1.63,.92,.75,1.19,.99,2.07,1.74,.09,.11,.13,.18,.13,.22,0,.09-.13,.18-.29,.18h-9.72c-1.19,2.29-2,3.59-4.22,6.62q5.72-.42,9.29-.9c-1.06-1.32-1.83-2.18-3.23-3.63l.24-.24c2,1.28,3.39,2.31,4.95,3.74,.95,.86,1.25,1.32,1.25,1.85,0,.84-.4,1.69-.77,1.69-.22,0-.31-.11-.79-.97-.42-.77-.79-1.34-1.28-1.98-3.85,.88-4,.92-12.39,2.38-.22,.75-.33,.95-.53,.95-.13,0-.24-.13-.33-.44-.02-.11-.09-.26-.13-.46-.26-.86-.31-1.08-.51-1.83,.35,.02,.66,.04,.77,.04,.44,0,1.45-.04,2.77-.15,.62-1.06,.75-1.36,1.5-3.06,.86-1.98,1.01-2.35,1.41-3.61h-5.41c-.75,0-1.32,.04-1.91,.13l-.13-.84c.81,.15,1.19,.2,2.31,.2h6.12v-4.49h-4.84c-.62,0-.97,.02-1.63,.15l-.13-.84c.77,.13,1.19,.18,2.2,.18h4.4v-2.2c0-.73-.02-1.3-.11-2.46,2.27,.29,2.6,.37,2.6,.59,0,.2-.29,.35-.99,.57v3.5h4.25Z"/></g><g><path class="e" d="M291.15,34.28v-1.14c0-.66,0-.95-.07-1.58,.88,.09,1.92,.26,2.29,.35,.2,.04,.29,.13,.29,.24,0,.15-.2,.26-.95,.55v1.58h6.29c.35-.48,.46-.62,.86-1.06,.86,.57,1.12,.77,1.94,1.39,.15,.13,.2,.2,.2,.33,0,.04-.04,.13-.11,.18-.04,.04-.22,.09-.42,.13l-.42,.07c-.15,.04-.31,.07-.46,.11-1.03,.86-1.69,1.43-1.98,1.67l-.2-.09,.73-2.22h-14.52c-.24,2.09-1.08,3.74-1.89,3.74-.2,0-.33-.11-.44-.4-.11-.31-.22-.81-.22-1.01,0-.31,.09-.42,.57-.79,.33-.24,.64-.64,.97-1.21,.46-.77,.66-1.34,.77-2.29h.29c.02,.4,.02,.42,.02,.75,0,.26,0,.44-.02,.7h6.49Zm-2.31,7.33c1.14-.68,2.13-1.39,3.19-2.24,1.54-1.28,2.33-2.16,3.17-3.54,1.3,.66,1.89,1.06,1.89,1.25,0,.11-.24,.22-.48,.22-.07,0-.26-.02-.53-.04-1.56,1.83-3.45,3.3-6.34,4.93,.55,.04,.81,.04,1.32,.04,3.01,0,3.83-.04,4.09-.26,.26-.2,.46-.75,1.23-3.39l.31,.07-.13,2.49-.04,.35c0,.2,.04,.22,.57,.48,.22,.11,.35,.29,.35,.44,0,.33-.4,.62-.99,.73-.55,.09-3.01,.15-5.83,.15-1.52,0-1.98-.04-2.44-.26-2.07,1.01-3.59,1.54-5.9,2.05l-.13-.31c2.55-.99,3.81-1.54,5.46-2.42l-.09-.42v-.42q0-.11,.02-1.19v-1.91c0-.35,0-.68-.04-1.47,.48,.04,.86,.09,1.1,.11,.97,.09,1.14,.15,1.14,.37,0,.2-.2,.33-.9,.55v3.65Zm-2.62-4.14c-.15,1.41-.46,2.4-1.14,3.56-.48,.84-1.12,1.45-1.5,1.45-.31,0-.71-.75-.71-1.32,0-.29,.04-.33,.59-.64,.37-.22,.99-.75,1.3-1.14,.57-.73,.81-1.14,1.08-1.91h.37Zm4.93,8.25c0-.79-.02-1.03-.09-1.74,.88,.09,1.89,.22,2.16,.31,.15,.04,.22,.11,.22,.22,0,.22-.07,.24-.81,.55v4.8h4.86v-3.3c0-.33,0-.51-.04-1.65,.53,.07,.92,.11,1.19,.13,.9,.09,1.17,.18,1.17,.42,0,.2-.2,.35-.84,.59q-.02,1.89-.02,2.16c0,1.06,.02,1.65,.09,3.08,0,.2-.04,.29-.2,.33-.11,.04-.66,.09-1.01,.09-.22,0-.33-.07-.33-.22v-1.12h-11.27v.97c0,.33-.02,.35-1.21,.42-.29,0-.37-.09-.37-.31,.02-1.32,.04-4.53,.04-5.39,0-.24-.02-.46-.04-.86,2.42,.29,2.55,.31,2.55,.53s-.29,.37-.97,.57v3.56h4.93v-4.14Zm-1.54-10.41c1.21,.35,2.29,.81,2.75,1.19,.2,.15,.29,.37,.29,.66,0,.48-.33,1.12-.59,1.12-.13,0-.2-.09-.37-.4-.13-.24-.55-.81-.79-1.12-.37-.42-.7-.73-1.43-1.23l.15-.22Zm7.72,2.6c1.21,.48,2.29,1.14,3.21,1.98,.35,.33,.46,.57,.46,1.01,0,.59-.4,1.34-.73,1.34-.15,0-.29-.13-.46-.48-.15-.29-.73-1.28-1.01-1.74-.33-.53-.46-.7-1.61-1.94l.13-.18Z"/><path class="e" d="M318.67,40.79c1.78-.86,2.95-1.61,4-2.62,1.58,.86,1.87,1.03,1.87,1.19,0,.13-.15,.2-.42,.2-.09,0-.51-.02-.79-.02-1.5,.73-2.97,1.25-4.66,1.65v1.25c0,.31,.04,.37,.26,.42,.15,.02,1.21,.07,1.8,.07,.2,0,.53,0,1.1-.02h.9c.84,0,.95-.02,1.08-.24,.15-.24,.62-1.39,.99-2.44l.26,.02-.13,1.74v.51q0,.11,.4,.26c.31,.09,.46,.26,.46,.53,0,.73-.59,.84-4.69,.84-3.54,0-3.74-.07-3.78-1.19v-5.63h-4.53c-.53,.81-.81,1.19-1.34,1.76h3.1c.37-.35,.48-.44,.88-.77,.51,.4,.66,.51,1.14,.9,.15,.13,.2,.2,.2,.26,0,.13-.11,.18-.86,.42-1.45,2.11-2.62,3.19-4.71,4.29-1.54,.81-3.02,1.34-5.11,1.83l-.11-.35c2.55-.92,4.18-1.76,5.72-2.95-.18-.02-.22-.07-.35-.24-.53-.77-1.17-1.41-1.69-1.72-1.43,1.12-2.11,1.54-3.39,2.09l-.2-.31c1.36-.88,2.27-1.69,3.5-3.08,.73-.84,1.12-1.36,1.56-2.13h-2.57c-.95,0-1.1,0-1.87,.13l-.15-.86c.68,.15,1.25,.22,2.03,.22h14.02c.57-.62,.75-.81,1.34-1.41,.84,.68,1.08,.9,1.89,1.61,.04,.07,.09,.13,.09,.18,0,.09-.09,.13-.24,.13h-7v3.5Zm-.75-7c0-.11,.02-.15,.02-.18,0-.97-.04-1.45-.11-1.85,1.89,.2,2.44,.31,2.44,.51,0,.15-.18,.24-.92,.44q-.02,.84-.02,1.08h3.39c.62-.66,.81-.86,1.41-1.45,.88,.7,1.17,.92,2.07,1.65,.04,.07,.09,.13,.09,.18,0,.09-.09,.13-.22,.13h-6.73c0,.46,0,.66,.02,1.25-.02,.26-.22,.31-1.21,.31-.22,0-.26-.04-.26-.2,.02-.7,.04-.95,.04-1.36h-4.22v.26l-.02,.4c0,.13,.02,.29,.04,.57,0,.13-.02,.18-.09,.22-.09,.07-.57,.11-1.19,.11-.13,0-.2-.04-.22-.18,.04-.75,.07-.99,.07-1.39h-4.2c-.92,0-1.1,.02-1.76,.11l-.15-.79c.62,.13,1.06,.18,1.91,.18h4.2c.02-.24,.02-.44,.02-.62,0-.59-.02-.84-.09-1.41,.46,.07,.86,.11,1.1,.13,1.06,.11,1.3,.18,1.3,.37,0,.15-.2,.24-.92,.44v1.08h4.22Zm-5.5,12.63c.04-.44,.07-.7,.07-1.08,0-.35-.02-.55-.09-.95,.46,.07,.81,.13,1.06,.15,.95,.13,1.32,.24,1.32,.4s-.11,.2-.81,.44c-.07,.66-.07,.75-.11,1.03h4.07c0-1.1-.02-1.12-.09-1.85,2.11,.2,2.29,.22,2.29,.42,0,.15-.04,.18-.77,.48v.95h3.37c.59-.68,.77-.88,1.36-1.47,.9,.68,1.17,.9,2.02,1.65,.04,.07,.09,.13,.09,.18,0,.07-.11,.15-.2,.15h-6.67v1.34c0,.55,0,.68,.04,3.23,0,.11-.04,.15-.11,.2-.11,.07-.68,.13-1.17,.13-.2,0-.26-.07-.26-.24,.07-1.47,.09-2.09,.09-3.21v-1.45h-4.14c-.29,1.5-.68,2.29-1.47,2.99-1.36,1.21-3.23,1.89-5.94,2.18l-.09-.33c2.57-.64,3.87-1.23,4.82-2.22,.64-.66,1.01-1.43,1.23-2.62h-4c-.81,0-1.14,.02-1.72,.13l-.15-.79c.64,.13,1.01,.15,1.87,.15h4.09Zm-1.45-6.86c-.42,.42-.64,.62-1.08,.99,.42,.07,.81,.18,1.36,.37,.75,.29,.99,.48,.99,.86,0,.26-.07,.44-.18,.64,1.08-.9,1.72-1.65,2.49-2.86h-3.59Z"/></g><g><path class="e" d="M454.94,37.8c.88,.79,1.65,1.12,2.62,1.12,.62,0,1.19-.07,2.2-.29,.02-.64,.02-1.63,.02-2.02,0-2.31-.26-2.77-1.78-3.04,.31-.24,.48-.31,.95-.31,.75,0,1.67,.22,2.27,.55,.29,.15,.48,.46,.48,.7q0,.13-.24,.57c-.35,.64-.57,1.67-.68,3.28,1.17-.4,1.69-.68,2.4-1.28,.18-.13,.4-.22,.53-.22,.2,0,.57,.09,.84,.2,.22,.09,.37,.29,.37,.48,0,.31-.2,.48-.99,.86-.99,.46-2.02,.81-3.21,1.08q-.02,.31-.07,1.1c-.02,.59-.07,1.56-.09,2.88,2.46-.88,4.05-1.21,5.83-1.21,3.01,0,4.91,1.43,4.91,3.76,0,2.16-1.65,3.83-3.76,3.83s-3.48-1.34-4.25-3.89l.33-.11c.53,1.01,.86,1.47,1.32,1.91,.62,.57,1.3,.84,2.09,.84,1.61,0,2.75-1.25,2.75-3.01s-1.14-2.62-3.26-2.62c-1.74,0-3.83,.55-5.96,1.58q0,2.33,.02,2.99c.02,.42,.02,.66,.02,.84,0,.53-.09,.95-.29,1.3-.26,.51-.68,.81-1.06,.81q-.31,0-1.65-1.19c-.46-.37-1.1-.81-1.47-.99-.48-.22-.73-.55-.73-.92,0-.35,.22-.79,.66-1.23,.81-.84,1.56-1.32,3.5-2.27,.02-.31,.02-.64,.04-1.06q.04-.99,.11-3.17c-.68,.11-1.19,.15-1.71,.15-1.41,0-2.36-.51-3.28-1.8l.22-.22Zm2.42,8.91c-.44,.46-.66,.81-.66,1.06,0,.22,.29,.46,.88,.68,.48,.2,1.08,.35,1.36,.35,.26,0,.37-.15,.4-.55,.11-1.98,.15-3.06,.15-3.19-1.04,.64-1.58,1.06-2.13,1.65Zm9.81-11.13c1.34,.07,2.33,.31,3.23,.79,.97,.53,1.54,1.25,1.54,1.94,0,.4-.26,.64-.66,.64-.04,0-.15,0-.33-.04-.31-.04-.4-.04-.46-.04-.33,0-.86,.11-2.71,.59l-.13-.22c1.32-.68,2.09-1.14,2.4-1.41-.35-.62-.7-.97-1.39-1.36-.44-.24-.79-.37-1.52-.57l.02-.31Z"/><path class="e" d="M480.4,40.44c0,.18-.04,.24-.22,.29-.11,.04-.59,.09-.81,.09-.33,0-.44-.07-.44-.24v-.04c.07-1.52,.09-2.13,.09-3.54,0-2.27-.02-3.74-.09-4.73,.88,.35,1.12,.48,1.89,.99h5.24c.33-.44,.42-.57,.77-.99,.62,.4,.79,.53,1.32,.99,.18,.15,.24,.24,.24,.33,0,.07-.04,.13-.09,.18-.02,.02-.22,.13-.59,.37,.02,3.63,.02,3.78,.11,5.9,0,.18-.04,.26-.18,.31-.13,.04-.59,.11-.92,.11-.35,0-.46-.09-.46-.31v-.9h-2.93c-.07,1.36-.13,1.98-.33,3.08h3.06c.31-.35,.42-.46,.77-.79,.53,.42,.68,.57,1.19,1.06,.15,.18,.18,.22,.18,.29q0,.11-.66,.46c-.33,3.21-.68,5.39-1.06,6.45-.15,.48-.51,.9-.92,1.12-.4,.2-.73,.29-1.63,.44-.04-.97-.33-1.17-2.42-1.67l.07-.33c1.23,.15,2.6,.29,2.93,.29,.46,0,.64-.22,.81-.97,.33-1.47,.73-4.33,.79-5.83h-3.19c-.29,1.43-.62,2.55-1.06,3.56-.64,1.41-1.63,2.79-2.75,3.83-.46,.44-.79,.68-1.56,1.19l-.22-.24c2.09-2.02,3.21-4.05,3.89-6.98,.35-1.54,.53-2.84,.62-4.95h-1.43v1.21Zm0-1.72h5.85v-4.97h-5.85v4.97Zm11.29,3.94c0,.79,.02,.99,.09,3.54v.11c0,.26-.15,.35-.79,.37-.15,0-.29,0-.37,.02h-.07c-.22,0-.33-.09-.33-.24v-.09c.07-1.34,.09-4,.09-7.06,0-3.34-.04-5.32-.11-5.94,1.74,.13,2.38,.29,2.38,.55,0,.18-.15,.24-.9,.46l.02,8.27Zm2.9-9.02c0-.68-.02-1.01-.13-1.8,.44,.09,.79,.13,1.03,.15,1.08,.15,1.41,.26,1.41,.46,0,.07-.04,.13-.09,.18-.02,.02-.26,.13-.73,.35v8.27q.09,6.67,.15,8.34v.31c0,.77-.59,1.12-2.46,1.52-.29-.86-.29-.88-.62-1.08-.42-.22-1.06-.4-2.38-.68v-.35c.48,.02,.86,.07,1.1,.09q1.65,.15,2.46,.15c.24,0,.33-.07,.33-.24l-.09-15.67Z"/><path class="e" d="M507.04,40.06q.02-.35,.04-.92t.07-.77c-.66,.44-1.83,1.23-2.22,1.52-.42,.29-.55,.35-.75,.35-.57,0-1.63-1.3-1.63-2,0-.04,.02-.22,.07-.37,.48,.7,.97,1.06,1.43,1.06s1.87-.59,3.17-1.32c.11-.92,.15-1.54,.15-2.33,0-1.28-.2-1.65-1.25-2.44,.13-.09,.18-.11,.29-.11,.35,0,.84,.22,1.41,.59,.7,.48,1.14,1.03,1.14,1.45q0,.24-.22,.9c-.15,.42-.31,1.12-.4,1.74,.48,.51,.64,.68,.64,.86,0,.13-.02,.18-.31,.64-.26,.48-.48,.9-.71,1.43-.04,.37-.04,.46-.04,.81,2.16-2.05,2.88-2.68,3.83-3.37,1.54-1.1,2.57-1.56,3.54-1.56,.68,0,1.3,.29,1.74,.79,.42,.48,.59,1.08,.59,1.94s-.02,.99-.44,3.26c-.26,1.43-.4,2.71-.4,3.61s.15,1.34,.55,1.63c.31,.22,.7,.33,1.12,.33,1.1,0,2.64-.57,4.09-1.56l.18,.26c-1.58,1.63-3.3,2.53-4.86,2.53-1.67,0-2.57-1.08-2.57-3.08,0-.79,.2-2.2,.55-3.92,.51-2.35,.55-2.66,.55-3.48,0-1.08-.48-1.69-1.34-1.69-.95,0-2.09,.66-3.85,2.22-1.14,1.01-2.18,2.09-3.34,3.48-.02,.53-.02,.81-.02,1.14,0,1.19,.07,2.24,.22,3.94,.07,.53,.07,.7,.07,1.03,0,1.25-.42,2.29-.95,2.29-.24,0-.42-.18-.53-.59-.07-.22-.31-.9-.37-1.06-.24-.44-.95-1.34-1.94-2.4-.44,1.06-.53,1.19-.75,1.19-.2,0-.37-.18-.51-.51-.13-.35-.24-.88-.24-1.21,0-.26,.02-.31,.38-.66,.35-.33,.7-.81,1.43-1.96l2.4-3.67Zm-1.34,4.11c-.51,.97-.75,1.45-1.17,2.33,1.3,1.08,1.69,1.39,2.33,1.78q.04-.84,.07-4.11c0-1.08,.02-1.58,.09-2.49-.31,.64-.33,.64-1.32,2.49Z"/><path class="e" d="M535.93,49.72c2.38-.7,3.89-1.61,5.15-3.06,1.3-1.47,1.96-3.28,1.96-5.3,0-2.13-.86-3.83-2.49-4.86-.97-.64-2.42-1.01-3.81-1.01-.26,0-.42,0-.77,.04,.53,.77,.68,1.19,.68,1.83,0,1.72-1.23,4.93-2.9,7.61-1.39,2.2-2.46,3.28-3.28,3.28-.37,0-.73-.18-.97-.46-.2-.26-.24-.35-.62-1.41-.2-.57-.33-.84-.97-2.07-.35-.7-.51-1.3-.51-2,0-1.39,.75-3.01,1.98-4.36,1.78-1.89,4.69-3.08,7.57-3.08,2.22,0,4.27,.73,5.68,2.02,1.41,1.3,2.11,3.04,2.11,5.17,0,2.75-1.61,5.19-4.38,6.67-1.28,.68-2.42,1.03-4.29,1.36l-.15-.37Zm-7.24-6.84c0,1.06,.33,2.13,.88,2.9,.31,.4,.59,.64,.84,.64,.48,0,1.54-1.19,2.62-2.9,1.63-2.6,2.79-5.43,2.79-6.8,0-.33-.07-.55-.31-1.1-3.83,.68-6.82,3.87-6.82,7.26Z"/><path class="e" d="M550.07,41.73c1.28-.84,1.98-1.41,3.23-2.62,2.05-2,3.56-3.89,4.84-5.94,.37-.64,.53-.95,.73-1.61,2.42,.55,2.6,.62,2.6,.79,0,.2-.35,.37-.84,.4,1.36,2.11,2.64,3.37,4.77,4.75,1.76,1.12,2.99,1.63,5.3,2.2v.22c-.9,.24-1.17,.55-1.58,1.8-1.78-.88-3.37-2.02-4.91-3.52-1.04-1.01-2.18-2.35-3.04-3.61-.42-.59-.57-.86-.92-1.65-1.32,2.05-2.79,3.78-4.75,5.52-1.67,1.5-3.1,2.46-5.21,3.56l-.22-.31Zm9.51,2.35c-2.22,3.28-2.46,3.63-3.76,5.1,3.43-.04,6.78-.22,8.96-.46-.97-1.39-1.74-2.31-2.86-3.41l.18-.22c1.45,.84,2.95,1.96,4.4,3.3,.57,.55,.84,1.01,.84,1.54,0,.4-.18,1.08-.35,1.36-.09,.13-.24,.22-.37,.22-.15,0-.24-.09-.37-.33-.4-.77-.86-1.61-1.14-2-3.52,.73-8.29,1.41-11.82,1.69-.22,.66-.29,.77-.46,.77-.13,0-.18-.04-.26-.42-.13-.59-.33-1.5-.44-2.11q.53,.02,1.78,.07c.37,.02,.66,.02,.92,.02,.07,0,.22,0,.4-.02,.97-1.67,1.23-2.29,2.35-5.1h-4.47c-.68,0-.97,.02-1.56,.13l-.18-.81c.62,.13,.99,.18,1.74,.18h12.7c.53-.7,.68-.9,1.21-1.54,.95,.7,1.23,.95,2.13,1.69,.04,.09,.11,.18,.11,.2,0,.09-.09,.15-.2,.15h-9.46Zm-5-4.33c.55,.11,1.23,.18,1.78,.18h5.54c.53-.66,.68-.86,1.23-1.47,.88,.7,1.17,.92,2.02,1.65,.09,.07,.13,.13,.13,.2,0,.09-.09,.13-.29,.13h-8.76c-.38,0-.71,.02-1.52,.09l-.15-.77Z"/></g></g></g></g></svg>