<?xml version="1.0" encoding="UTF-8"?><svg id="_イヤー_2" xmlns="http://www.w3.org/2000/svg" viewBox="0 0 56.46 155.66"><g id="main"><g><path d="M33.55,5.85c1.04,.94,1.95,1.33,3.09,1.33,.73,0,1.4-.08,2.6-.34,.03-.75,.03-1.92,.03-2.39,0-2.73-.31-3.28-2.11-3.59,.36-.29,.57-.36,1.12-.36,.88,0,1.98,.26,2.68,.65,.34,.18,.57,.55,.57,.83q0,.16-.29,.68c-.42,.75-.68,1.98-.81,3.87,1.38-.47,2-.81,2.83-1.51,.21-.16,.47-.26,.62-.26,.23,0,.68,.1,.99,.23,.26,.1,.44,.34,.44,.57,0,.36-.23,.57-1.17,1.01-1.17,.55-2.39,.96-3.8,1.27q-.03,.36-.08,1.3c-.03,.7-.08,1.85-.1,3.41,2.91-1.04,4.78-1.43,6.89-1.43,3.56,0,5.8,1.69,5.8,4.45,0,2.55-1.95,4.52-4.45,4.52s-4.11-1.59-5.02-4.6l.39-.13c.62,1.2,1.01,1.74,1.56,2.26,.73,.68,1.53,.99,2.47,.99,1.9,0,3.25-1.48,3.25-3.56s-1.35-3.09-3.85-3.09c-2.05,0-4.52,.65-7.05,1.87q0,2.76,.03,3.54c.03,.49,.03,.78,.03,.99,0,.62-.1,1.12-.34,1.53-.31,.6-.81,.96-1.25,.96q-.36,0-1.95-1.4c-.55-.44-1.3-.96-1.74-1.17-.57-.26-.86-.65-.86-1.09,0-.42,.26-.94,.78-1.46,.96-.99,1.85-1.56,4.13-2.68,.03-.36,.03-.75,.05-1.25q.05-1.17,.13-3.74c-.81,.13-1.4,.18-2.03,.18-1.66,0-2.78-.6-3.87-2.13l.26-.26Zm2.86,10.53c-.52,.55-.78,.96-.78,1.25,0,.26,.34,.55,1.04,.81,.57,.23,1.27,.42,1.61,.42,.31,0,.44-.18,.47-.65,.13-2.34,.18-3.61,.18-3.77-1.22,.75-1.87,1.25-2.52,1.95ZM48,3.22c1.59,.08,2.76,.36,3.82,.94,1.14,.62,1.82,1.48,1.82,2.29,0,.47-.31,.75-.78,.75-.05,0-.18,0-.39-.05-.36-.05-.47-.05-.55-.05-.39,0-1.01,.13-3.2,.7l-.16-.26c1.56-.81,2.47-1.35,2.83-1.66-.42-.73-.83-1.14-1.64-1.61-.52-.29-.94-.44-1.79-.68l.03-.36Z" fill="#42210b"/><path d="M35.03,36.84c0,.21-.05,.29-.26,.34-.13,.05-.7,.1-.96,.1-.39,0-.52-.08-.52-.29v-.05c.08-1.79,.1-2.52,.1-4.19,0-2.68-.03-4.42-.1-5.59,1.04,.42,1.33,.57,2.24,1.17h6.19c.39-.52,.49-.68,.91-1.17,.73,.47,.94,.62,1.56,1.17,.21,.18,.29,.29,.29,.39,0,.08-.05,.16-.1,.21-.03,.03-.26,.16-.7,.44,.03,4.29,.03,4.47,.13,6.97,0,.21-.05,.31-.21,.36-.16,.05-.7,.13-1.09,.13-.42,0-.55-.1-.55-.36v-1.07h-3.46c-.08,1.61-.16,2.34-.39,3.64h3.61c.36-.42,.49-.55,.91-.94,.62,.49,.81,.68,1.4,1.25,.18,.21,.21,.26,.21,.34q0,.13-.78,.55c-.39,3.8-.81,6.37-1.25,7.62-.18,.57-.6,1.07-1.09,1.33-.47,.23-.86,.34-1.92,.52-.05-1.14-.39-1.38-2.86-1.98l.08-.39c1.46,.18,3.07,.34,3.46,.34,.55,0,.75-.26,.96-1.14,.39-1.74,.86-5.12,.94-6.89h-3.77c-.34,1.69-.73,3.02-1.25,4.21-.75,1.66-1.92,3.3-3.25,4.52-.55,.52-.94,.81-1.85,1.4l-.26-.29c2.47-2.39,3.8-4.78,4.6-8.24,.42-1.82,.62-3.35,.73-5.85h-1.69v1.43Zm0-2.03h6.92v-5.88h-6.92v5.88Zm13.34,4.65c0,.94,.03,1.17,.1,4.19v.13c0,.31-.18,.42-.94,.44-.18,0-.34,0-.44,.03h-.08c-.26,0-.39-.1-.39-.29v-.1c.08-1.59,.1-4.73,.1-8.35,0-3.95-.05-6.29-.13-7.02,2.05,.16,2.81,.34,2.81,.65,0,.21-.18,.29-1.07,.55l.03,9.78Zm3.43-10.66c0-.81-.03-1.2-.16-2.13,.52,.1,.94,.16,1.22,.18,1.27,.18,1.66,.31,1.66,.55,0,.08-.05,.16-.1,.21-.03,.03-.31,.16-.86,.42v9.78q.1,7.88,.18,9.85v.36c0,.91-.7,1.33-2.91,1.79-.34-1.01-.34-1.04-.73-1.27-.49-.26-1.25-.47-2.81-.81v-.42c.57,.03,1.01,.08,1.3,.1q1.95,.18,2.91,.18c.29,0,.39-.08,.39-.29l-.1-18.51Z" fill="#42210b"/><path d="M37.92,63.88q.03-.42,.05-1.09,.05-.52,.08-.91c-.78,.52-2.16,1.46-2.63,1.79-.49,.34-.65,.42-.88,.42-.68,0-1.92-1.53-1.92-2.37,0-.05,.03-.26,.08-.44,.57,.83,1.14,1.25,1.69,1.25s2.21-.7,3.74-1.56c.13-1.09,.18-1.82,.18-2.76,0-1.51-.23-1.95-1.48-2.89,.16-.1,.21-.13,.34-.13,.42,0,.99,.26,1.66,.7,.83,.57,1.35,1.22,1.35,1.72q0,.29-.26,1.07c-.18,.49-.36,1.33-.47,2.05,.57,.6,.75,.81,.75,1.01,0,.16-.03,.21-.36,.75-.31,.57-.57,1.07-.83,1.69-.05,.44-.05,.55-.05,.96,2.55-2.42,3.41-3.17,4.52-3.98,1.82-1.3,3.04-1.85,4.19-1.85,.81,0,1.53,.34,2.05,.94,.49,.57,.7,1.27,.7,2.29s-.03,1.17-.52,3.85c-.31,1.69-.47,3.2-.47,4.26s.18,1.59,.65,1.92c.36,.26,.83,.39,1.33,.39,1.3,0,3.12-.68,4.84-1.85l.21,.31c-1.87,1.92-3.9,2.99-5.75,2.99-1.98,0-3.04-1.27-3.04-3.64,0-.94,.23-2.6,.65-4.63,.6-2.78,.65-3.15,.65-4.11,0-1.27-.57-2-1.59-2-1.12,0-2.47,.78-4.55,2.63-1.35,1.2-2.57,2.47-3.95,4.11-.03,.62-.03,.96-.03,1.35,0,1.4,.08,2.65,.26,4.65,.08,.62,.08,.83,.08,1.22,0,1.48-.49,2.7-1.12,2.7-.29,0-.49-.21-.62-.7-.08-.26-.36-1.07-.44-1.25-.29-.52-1.12-1.59-2.29-2.83-.52,1.25-.62,1.4-.88,1.4-.23,0-.44-.21-.6-.6-.16-.42-.29-1.04-.29-1.43,0-.31,.03-.36,.44-.78,.42-.39,.83-.96,1.69-2.31l2.83-4.34Zm-1.59,4.86c-.6,1.14-.88,1.72-1.38,2.76,1.53,1.27,2,1.64,2.76,2.11q.05-.99,.08-4.86c0-1.27,.03-1.87,.1-2.94-.36,.75-.39,.75-1.56,2.94Z" fill="#42210b"/><path d="M43.46,101.06c2.81-.83,4.6-1.9,6.08-3.61,1.53-1.74,2.31-3.87,2.31-6.27,0-2.52-1.01-4.52-2.94-5.75-1.14-.75-2.86-1.2-4.5-1.2-.31,0-.49,0-.91,.05,.62,.91,.81,1.4,.81,2.16,0,2.03-1.46,5.82-3.43,9-1.64,2.6-2.91,3.88-3.87,3.88-.44,0-.86-.21-1.14-.55-.23-.31-.29-.42-.73-1.66-.23-.68-.39-.99-1.14-2.44-.42-.83-.6-1.53-.6-2.37,0-1.64,.88-3.56,2.34-5.15,2.11-2.24,5.54-3.64,8.94-3.64,2.63,0,5.04,.86,6.71,2.39s2.5,3.59,2.5,6.11c0,3.25-1.9,6.14-5.17,7.88-1.51,.81-2.86,1.22-5.07,1.61l-.18-.44Zm-8.55-8.09c0,1.25,.39,2.52,1.04,3.43,.36,.47,.7,.75,.99,.75,.57,0,1.82-1.4,3.09-3.43,1.92-3.07,3.3-6.42,3.3-8.03,0-.39-.08-.65-.36-1.3-4.52,.81-8.06,4.58-8.06,8.58Z" fill="#42210b"/><path d="M31.57,119.11c1.51-.99,2.34-1.66,3.82-3.09,2.42-2.37,4.21-4.6,5.72-7.02,.44-.75,.62-1.12,.86-1.9,2.86,.65,3.07,.73,3.07,.94,0,.23-.42,.44-.99,.47,1.61,2.5,3.12,3.98,5.64,5.62,2.08,1.33,3.54,1.92,6.27,2.6v.26c-1.07,.29-1.38,.65-1.87,2.13-2.11-1.04-3.98-2.39-5.8-4.16-1.22-1.2-2.57-2.78-3.59-4.26-.49-.7-.68-1.01-1.09-1.95-1.56,2.42-3.3,4.47-5.62,6.53-1.98,1.77-3.67,2.91-6.16,4.21l-.26-.36Zm11.23,2.78c-2.63,3.88-2.91,4.29-4.45,6.03,4.06-.05,8.01-.26,10.58-.55-1.14-1.64-2.05-2.73-3.38-4.03l.21-.26c1.72,.99,3.48,2.31,5.2,3.9,.68,.65,.99,1.2,.99,1.82,0,.47-.21,1.27-.42,1.61-.1,.16-.29,.26-.44,.26-.18,0-.29-.1-.44-.39-.47-.91-1.01-1.9-1.35-2.37-4.16,.86-9.8,1.66-13.96,2-.26,.78-.34,.91-.55,.91-.16,0-.21-.05-.31-.49-.16-.7-.39-1.77-.52-2.5q.62,.03,2.11,.08c.44,.03,.78,.03,1.09,.03,.08,0,.26,0,.47-.03,1.14-1.98,1.46-2.71,2.78-6.03h-5.28c-.81,0-1.14,.03-1.85,.16l-.21-.96c.73,.16,1.17,.21,2.05,.21h15c.62-.83,.81-1.07,1.43-1.82,1.12,.83,1.46,1.12,2.52,2,.05,.1,.13,.21,.13,.23,0,.1-.1,.18-.23,.18h-11.18Zm-5.9-5.12c.65,.13,1.46,.21,2.11,.21h6.55c.62-.78,.81-1.01,1.46-1.74,1.04,.83,1.38,1.09,2.39,1.95,.1,.08,.16,.16,.16,.23,0,.1-.1,.16-.34,.16h-10.35c-.44,0-.83,.03-1.79,.1l-.18-.91Z" fill="#42210b"/><path d="M43.46,155.22c2.81-.83,4.6-1.9,6.08-3.61,1.53-1.74,2.31-3.87,2.31-6.27,0-2.52-1.01-4.52-2.94-5.75-1.14-.75-2.86-1.2-4.5-1.2-.31,0-.49,0-.91,.05,.62,.91,.81,1.4,.81,2.16,0,2.03-1.46,5.82-3.43,9-1.64,2.6-2.91,3.88-3.87,3.88-.44,0-.86-.21-1.14-.55-.23-.31-.29-.42-.73-1.66-.23-.68-.39-.99-1.14-2.44-.42-.83-.6-1.53-.6-2.37,0-1.64,.88-3.56,2.34-5.15,2.11-2.24,5.54-3.64,8.94-3.64,2.63,0,5.04,.86,6.71,2.39s2.5,3.59,2.5,6.11c0,3.25-1.9,6.14-5.17,7.88-1.51,.81-2.86,1.22-5.07,1.61l-.18-.44Zm-8.55-8.09c0,1.25,.39,2.52,1.04,3.43,.36,.47,.7,.75,.99,.75,.57,0,1.82-1.4,3.09-3.43,1.92-3.07,3.3-6.42,3.3-8.03,0-.39-.08-.65-.36-1.3-4.52,.81-8.06,4.58-8.06,8.58Z" fill="#42210b"/><path d="M18.23,11.1c.34-.36,.42-.49,.75-.83,.65,.44,.83,.6,1.43,1.09,.13,.13,.18,.18,.18,.26,0,.13-.08,.18-.55,.47q0,4.37,.1,7.75c0,.36-.21,.44-1.33,.44-.42,0-.49-.05-.49-.29v-.34H6.84v.57c0,.31-.26,.39-1.14,.39-.55,0-.68-.05-.68-.29v-.05c.08-1.72,.1-2.68,.1-4.34v-2.96c-1.27,.75-1.92,1.07-3.72,1.69l-.21-.36c1.77-.88,2.52-1.33,3.9-2.42-.03-.68-.03-.83-.1-1.4,.6,.18,.81,.23,1.25,.42,1.07-1.01,1.53-1.64,2-2.52H4.11c-.21,.52-.23,.65-.42,1.07-.13,.23-.23,.29-.57,.29-.86,0-1.22-.08-1.22-.29,0-.03,.03-.1,.05-.21,1.12-2.31,1.64-3.69,1.95-5.17,.68,.39,.91,.52,1.61,.99h3.56c.08-.78,.1-1.09,.13-2.16H4.94c-.88,0-1.59,.05-2.34,.18l-.18-1.01c.91,.18,1.53,.23,2.52,.23h4.26c.03-.21,.03-.39,.03-.47,0-.68-.03-1.04-.13-1.82,2.55,.23,2.73,.26,2.73,.52,0,.21-.26,.36-.99,.55l-.03,1.22h3.82c0-1.2,0-1.46-.1-2.24,2.6,.23,2.68,.26,2.68,.52,0,.21-.26,.36-1.04,.57v1.14h4.21c.39-.49,.52-.62,.91-1.04,.62,.36,.81,.49,1.35,.88,.23,.18,.31,.29,.31,.36,0,.18-.18,.34-.78,.68,.03,1.27,.03,1.69,.08,2.73,0,.36-.21,.44-1.09,.44-.47,0-.55-.03-.55-.26v-.44h-4.45v2.13h5.72c.42-.44,.55-.57,.96-.99,.57,.44,.73,.57,1.25,.99,.18,.18,.26,.26,.26,.36,0,.13-.1,.21-.62,.44-.16,1.12-.29,1.74-.44,2.11-.26,.57-.81,.78-2.13,.86-.08-.88-.44-1.22-1.92-1.69l.05-.29c.26,.05,.47,.08,.6,.1,1.01,.21,1.53,.29,1.77,.29,.31,0,.44-.36,.6-1.59h-6.08c0,.6,.03,.96,.05,1.87-.03,.31-.23,.39-1.12,.39-.47,0-.55-.05-.55-.29,.03-.99,.03-1.12,.05-1.98h-4.73c-.57,1.09-1.07,1.74-2.18,2.73h10.53ZM1.2,23.79c3.85-1.07,6.27-2.13,7.57-3.38,.49,.21,.88,.36,1.14,.47,1.22,.49,1.35,.57,1.35,.75,0,.23-.21,.31-.83,.31h-.7c-2.44,1.14-4.71,1.77-8.42,2.31l-.1-.47ZM5.07,5.64q-.31,.91-.75,2.13h4.19c.23-.62,.36-1.17,.49-2.13h-3.93Zm1.77,7.98h11.49v-1.92H6.84v1.92Zm0,.6v1.98h11.49v-1.98H6.84Zm0,2.57v2.26h11.49v-2.26H6.84Zm3.77-11.15c-.1,.88-.23,1.46-.47,2.13h4.47q.03-1.17,.03-2.13h-4.03Zm4.03-.6V2.89h-3.85c-.05,1.14-.05,1.46-.13,2.16h3.98Zm.52,15.6c3.54,.34,5.98,.73,6.92,1.09,1.04,.39,1.61,1.12,1.61,2.05,0,.34-.1,.52-.34,.52s-.34-.05-.86-.36c-1.85-1.12-4.32-2.08-7.46-2.86l.13-.44Zm5.46-15.6V2.89h-4.45v2.16h4.45Z" fill="#42210b"/><path d="M5.64,42.48c-.26,1.95-.81,3.69-1.64,5.38-.99,1.98-2,3.25-3.69,4.63l-.29-.26c1.72-2.11,2.68-4.16,3.33-6.94,.47-2,.6-3.25,.68-6.94,.03-1.22,.08-4.78,.08-5.82,0-1.35-.03-2.13-.13-3.35,.94,.55,1.22,.73,2.08,1.33h13.91c.44-.55,.57-.7,1.07-1.22,.73,.52,.94,.68,1.64,1.22,.21,.16,.31,.26,.31,.36,0,.18-.16,.29-.96,.78v12.09c0,2.26,0,3.28,.05,6.6-.08,.65-.23,.88-.81,1.2-.47,.26-1.07,.44-2.29,.65-.36-1.53-.57-1.66-3.46-2.03v-.39q.96,.05,2.47,.13,.94,.05,1.69,.08h.21c.26,0,.31-.08,.31-.36v-7.12h-6.42v2.37q.03,1.69,.03,3.12,.03,1.25,.05,2.24c-.03,.39-.26,.52-1.04,.55h-.36c-.36,0-.52-.13-.52-.42,.03-1.59,.05-4.45,.05-5.49v-2.37H5.64Zm6.34-5.95H5.9c-.03,2.44-.05,3.8-.18,5.36h6.27v-5.36Zm0-5.43H5.9c.03,.55,.03,1.01,.03,1.25,0,.21,0,.81-.03,1.61v1.98h6.08v-4.84Zm8.22,4.84v-4.84h-6.42v4.84h6.42Zm0,5.95v-5.36h-6.42v5.36h6.42Z" fill="#42210b"/><path d="M8.84,57.93c.78,0,2,.23,2.63,.49,.52,.21,.73,.47,.73,.83v.05c0,.21-.03,.21-.21,.68-.31,.88-.57,3.12-.57,5.28,0,1.53,.21,1.92,1.01,1.92,.55,0,1.12-.21,3.48-1.33,.47-.23,.75-.31,1.07-.31,.62,0,1.25,.55,1.25,1.09,0,.34-.18,.62-.55,.78-.18,.08-.55,.21-1.74,.55-3.15,.88-4.86,1.66-6.5,2.91-1.4,1.09-2.03,2.11-2.03,3.33,0,1.87,1.48,2.83,4.37,2.83,1.61,0,4.16-.31,6.03-.75,.26-.05,.36-.08,.52-.08,.68,0,1.4,.65,1.4,1.27,0,.47-.29,.7-1.12,.86-.83,.16-3.43,.34-4.99,.34-1.9,0-3.33-.21-4.42-.6-1.74-.65-2.83-2.13-2.83-3.85,0-1.51,.83-2.94,2.55-4.37,.78-.68,1.64-1.25,3.17-2.08-.57,0-.81-.08-1.25-.39-.39-.29-.62-.86-.75-1.98-.08-.62-.1-1.2-.18-3.15-.08-2.21-.1-2.6-.31-2.99-.29-.49-.78-.75-1.87-.94,.39-.34,.6-.42,1.12-.42Z" fill="#42210b"/><path d="M13.29,94.85v2.11h5.67c.39-.44,.52-.57,.94-1.01,.7,.44,.91,.6,1.56,1.07,.16,.13,.23,.21,.23,.31,0,.16-.08,.23-.75,.65l.03,2h.49c.62-.68,.81-.88,1.43-1.56,.86,.73,1.12,.96,1.95,1.77,.1,.1,.16,.18,.16,.23,0,.08-.1,.16-.23,.16h-3.8c.03,2.34,.05,3.85,.08,4.47,0,.18-.05,.26-.18,.31-.18,.05-.81,.13-1.25,.13-.29,0-.42-.08-.42-.26v-1.46h-5.88q.03,.31,.03,1.27l.05,1.92c0,.7-.03,.88-.16,1.09-.26,.42-.91,.7-2.68,1.09-.05-1.25-.21-1.33-4.06-1.95v-.39c2.96,.18,3.25,.18,4,.18h.73c.31,0,.39-.08,.39-.31v-2.91H5.12c-.68,0-.99,.03-1.61,.13l-.1-.94c.68,.16,1.04,.21,1.77,.21h6.45v-2.6H2.6c-.73,0-.94,.03-1.48,.1l-.13-.88c.57,.13,.91,.18,1.61,.18H11.62v-2.42H4.84c-.7,0-.91,.03-1.33,.1l-.1-.88c.49,.16,.78,.18,1.43,.18h6.79v-2.11H6.19v.62c0,.18-.05,.26-.18,.31-.1,.03-.81,.1-1.17,.1-.21,0-.29-.05-.29-.23,.05-1.59,.08-2.37,.08-3.85,0-.86,0-1.07-.03-1.77,.75,.39,.99,.52,1.69,.94h5.33v-2.03H2.99c-.86,0-1.09,.03-1.61,.1l-.1-.88c.62,.16,.94,.18,1.74,.18H11.62c-.03-1.69-.03-1.9-.13-3.04,2.63,.34,2.81,.39,2.81,.68,0,.21-.23,.34-1.01,.57v1.79h7.46c.65-.75,.83-.96,1.48-1.66,1.01,.78,1.3,1.04,2.21,1.9,.05,.08,.1,.16,.1,.23,0,.05-.1,.13-.21,.13H13.29v2.03h5.38c.39-.39,.52-.52,.96-.94,.65,.44,.83,.57,1.43,1.04,.18,.13,.23,.21,.23,.29,0,.18-.1,.26-.75,.6,0,1.9,0,1.95,.05,3.12,0,.31-.16,.39-.86,.42-.21,0-.36,.03-.47,.03h-.08c-.21,0-.29-.05-.29-.26v-.42h-5.62Zm-1.66-3.28H6.19v2.68h5.43v-2.68Zm7.28,0h-5.62v2.68h5.62v-2.68Zm.29,5.98h-5.9v2.42h5.9v-2.42Zm-5.9,3.02v1.69l.03,.91h5.88v-2.6h-5.9Z" fill="#42210b"/><path d="M0,126.7c1.51-2.34,2.34-4,3.43-6.81,1.04-2.73,1.53-4.45,1.72-6.01,2.39,.55,2.76,.68,2.76,.91,0,.26-.26,.36-1.04,.52-.7,2.29-1.48,4.08-3.02,6.89,1.38,.16,1.82,.29,1.82,.55,0,.18-.16,.26-.81,.44v5.2q0,1.07,.05,6.6v1.92c-.05,.16-.1,.21-.26,.23-.23,.08-.88,.13-1.2,.13-.23,0-.31-.08-.31-.34v-.08q.03-1.82,.08-8.24v-5.36c-.86,1.35-1.48,2.16-2.89,3.69l-.34-.26Zm10.27-4.76c-.34,.91-.6,1.51-1.04,2.44,.6,.34,1.46,.96,2.03,1.46,.34,.31,.6,.75,.6,1.09,0,.68-.57,1.64-.99,1.64-.21,0-.29-.13-.49-.86-.26-1.07-.75-2.13-1.35-2.96-1.07,1.98-1.64,2.78-3.17,4.37l-.23-.26c1.46-2.37,2.31-4.24,3.09-6.76,.55-1.85,.81-3.12,1.07-5.25h-.16c-1.04,0-1.38,.03-2.24,.1l-.21-.96c.81,.18,1.56,.26,2.44,.26h4.29c.6-.73,.78-.96,1.4-1.66,.86,.78,1.12,1.01,1.92,1.85,.05,.08,.1,.18,.1,.26,0,.1-.13,.16-.36,.16h-5.41c-.29,1.92-.55,2.94-1.09,4.5h3.28c.39-.44,.52-.57,.88-1.01,.7,.49,.91,.65,1.56,1.17,.16,.13,.21,.21,.21,.34,0,.21-.1,.31-.86,.68-.83,3.93-1.74,6.27-3.41,8.68-1.61,2.37-3.43,4.08-6.29,5.95l-.26-.31c2.29-1.95,4.11-4.11,5.43-6.47,.91-1.56,1.77-3.69,2.31-5.67,.23-.86,.36-1.46,.55-2.76h-3.61Zm5.9,13.1c.57,.03,1.01,.05,1.27,.05,1.92,.13,2.13,.16,3.41,.16,.31-.08,.36-.16,.36-.55v-18.46c0-1.04,0-1.14-.05-1.87,2.11,.26,2.91,.47,2.91,.75,0,.21-.23,.31-1.09,.6v12.35l-.03,2.73,.03,3.9v.31c0,.73-.21,1.14-.83,1.56-.55,.39-1.07,.57-2.13,.78-.23-.75-.47-1.07-.99-1.35-.44-.23-.68-.29-2.86-.55v-.42Zm2.63-14.07c0,.36,0,3.25,.03,6.16q.03,1.87,.03,4.47c-.05,.36-.26,.44-1.38,.44-.23,0-.34-.1-.34-.34,.1-5.69,.1-6.24,.1-10.5q0-2.99-.1-3.98c2.18,.13,2.52,.21,2.52,.47,0,.23-.29,.42-.86,.57v2.7Z" fill="#42210b"/></g></g></svg>