<?xml version="1.0" encoding="utf-8"?>
<!-- Generator: Adobe Illustrator 26.0.1, SVG Export Plug-In . SVG Version: 6.00 Build 0)  -->
<svg version="1.1" id="レイヤー_1" xmlns="http://www.w3.org/2000/svg" xmlns:xlink="http://www.w3.org/1999/xlink" x="0px"
	 y="0px" viewBox="0 0 118.9 307.7" style="enable-background:new 0 0 118.9 307.7;" xml:space="preserve">
<style type="text/css">
	.st0{fill:#005748;}
	.st1{fill:#FFFFFF;}
	.st2{fill:#222222;}
</style>
<g id="グループ_3119" transform="translate(-577.977 -7370)">
	<g id="syasou" transform="translate(0.5 413.74)">
		<path id="パス_1929" class="st0" d="M660.5,7015.1h-41.1c-5.2,0-9.5-4.2-9.5-9.5v-39.9c0-5.2,4.2-9.5,9.5-9.5h41
			c5.2,0,9.5,4.2,9.5,9.5v39.9C670,7010.8,665.8,7015.1,660.5,7015.1z"/>
		<path id="パス_1930" class="st1" d="M625.4,7002.9c0.8,0,1.4-0.7,1.4-1.5c0-1.1-1.1-2.5-4.6-3c1.4-1.5,2.6-3.1,3.6-4.9
			c0.4,0,0.8-0.1,1.2-0.3l-2.5-2.4l-1.5,1.5h-0.8v-4.3c0.8-0.1,1-0.3,1.1-0.6l-3.7-0.3v5.3h-3.7l0.1,0.5h7.2
			c-1.6,4.1-4.2,7.7-7.7,10.4l0.2,0.2c1.4-0.7,2.6-1.5,3.8-2.4v9.3h0.5c0.8,0.1,1.6-0.2,2.2-0.8v-10.5c1.1,1,1.8,2.2,2.2,3.6
			C624.6,7002.7,625,7002.9,625.4,7002.9z"/>
		<path id="パス_1931" class="st1" d="M635.1,7008.4h-1.9v-12h4.3c0.7,0,1-0.1,1.2-0.4l-2.7-2l-1.5,2h-1.4v-8.1
			c0.7-0.1,1-0.3,1.1-0.7l-3.8-0.3v9.1h-4.6l0.1,0.5h4.5v12h-6.1l0.1,0.5h13.6c0.7,0,1-0.1,1.2-0.4l-2.7-2.1L635.1,7008.4z"/>
		<path id="パス_1932" class="st1" d="M656.4,6993.8l-3.2-0.2v4.9c0,2,0.5,2.5,3,2.5h3.9c2.3,0,3.1-0.4,3.1-1.3
			c0-0.3-0.1-0.5-1-0.8l0-1.7H662c-0.8,1.9-1.1,1.9-1.9,1.9h-3.7c-0.7,0-0.8,0-0.8-0.5v-1.4c1.8-0.2,3.6-0.6,5.3-1.1
			c0.2,0.1,0.5,0.1,0.8,0.1c0.2,0,0.4,0,0.6-0.2l-2.3-1.9c-1.4,1-2.8,1.8-4.4,2.4v-2.1C656.2,6994.2,656.4,6994,656.4,6993.8z"/>
		<path id="パス_1933" class="st1" d="M647,6989.9v2.3c2.2,0,2.5-0.6,2.5-0.6v-1.6h5.4v2.1c2.4,0,2.6-0.6,2.6-0.6v-1.5h5.3
			c0.6,0,0.9-0.1,1.1-0.4l-2.5-1.9l-1.3,1.8h-2.6v-1.8c0.7-0.1,0.9-0.2,0.9-0.6l-3.5-0.2v2.6h-5.4v-1.8c0.7-0.1,0.9-0.2,0.9-0.6
			l-3.5-0.2v2.6h-6.3l0.1,0.5L647,6989.9L647,6989.9z"/>
		<path id="パス_1934" class="st1" d="M660.7,6991.1l-1.3,1.6h-17.8l0.1,0.5h4.8c-1.2,2-2.8,3.7-4.8,5l0.1,0.4
			c0.9-0.3,1.8-0.7,2.6-1.2c0.6,0.5,1,1.1,1.3,1.8c0.2,0.2,0.5,0.3,0.9,0.3c-1.6,1.2-3.4,2.1-5.3,2.6l0.2,0.5
			c5.6-0.8,8.2-2.7,10.5-6.2c0.4,0,0.8-0.1,1.1-0.3l-2.3-1.8l-1.2,1.2h-2.1c0.7-0.6,1.4-1.3,2-2.1h12.6c0.7,0,1-0.1,1.2-0.4
			L660.7,6991.1z M649.6,6995.8c-0.6,1.1-1.3,2.1-2.2,2.9c0-0.1,0-0.2,0-0.2c0-0.6-0.6-1.3-2.4-1.5c0.7-0.4,1.3-0.8,1.9-1.3
			L649.6,6995.8L649.6,6995.8z"/>
		<path id="パス_1935" class="st1" d="M661.4,7002.4l-1.4,1.8h-2.3v-2.1c0.6-0.1,0.7-0.2,0.8-0.5l-3.4-0.3v2.9h-5.7v-2.1
			c0.6-0.1,0.8-0.2,0.9-0.5l-3.5-0.3v2.9h-6.2l0.1,0.5h6c-0.1,2-1.3,3.9-5.7,5.2l0.1,0.3c6.3-1,7.9-3.2,8.1-5.5h5.7v5.5
			c2.1,0,2.6-0.6,2.6-0.7v-4.8h5.1c0.7,0,1-0.1,1.2-0.4L661.4,7002.4z"/>
		<path id="パス_1936" class="st1" d="M618.2,6971.7v-3.7h4.2c1.2,0,1.7,0.5,1.7,1.3c0,0.7-0.6,1.1-1.6,1.1h-2v1.7h3.6
			c1.4,0.1,2.6-0.9,2.8-2.3c0-0.2,0-0.4,0-0.6c0-1.8-0.9-2.9-2.7-2.9h-6v-2.4h-2.8v2.4h-1.8v1.7h1.8v4.4c0,4.7,4.1,4.6,4.1,4.6h7.1
			v-1.7c0,0-5.2-0.1-5.6-0.1C619.7,6975.1,618.2,6973.9,618.2,6971.7z"/>
		<path id="パス_1937" class="st1" d="M630.9,6976.7c1.5,0.1,3-0.3,4.1-1.4c2.2-1.8,3.9-4.1,5-6.7h-3c-0.2,0.6-4.1,6.8-6.1,5.7
			c-0.6-0.3-0.6-0.7-0.6-2.5v-7.9h-2.7v8.2C627.6,6976.4,629.8,6976.7,630.9,6976.7z"/>
		<path id="パス_1938" class="st1" d="M653.1,6966.3v-1.7h-12.8v1.7h3.8v2.8h-3.8v1.6h3.8v1.9c0,3.8,1.5,4.4,4.1,4.4h4.4v-1.7
			c0,0-1.9-0.1-2.7-0.1c-1.9,0-3.3-0.5-3.3-2.3v-2.2h6.5v-1.6h-6.5v-2.8L653.1,6966.3z"/>
		<path id="パス_1939" class="st1" d="M660.3,6972.5c0,3.6-1.8,4.5-3.8,4.5h-2.7v-1.7h2.2c1.1,0,1.7-1.2,1.7-2.9v-3h4.7
			c1.2,0,1.6-0.7,1.6-1.5c0.1-0.8-0.5-1.5-1.3-1.6c-0.1,0-0.2,0-0.3,0h-8.7v-1.7h9.5c4.6,0,4.5,6.5,0.7,6.5h-3.8L660.3,6972.5z"/>
		<path id="パス_1940" class="st1" d="M665.1,6975.6L665.1,6975.6c0.3-0.1,0.4-0.4,0.4-0.6c0-0.4-0.3-0.7-0.8-0.7h-1.2v2.5h0.4v-1
			h0.6c0.4,0,0.5,0.2,0.5,0.7c0,0.1,0,0.3,0.1,0.4h0.5c-0.1-0.2-0.2-0.4-0.1-0.7C665.5,6975.7,665.3,6975.6,665.1,6975.6z
			 M664.7,6975.4h-0.7v-0.8h0.7c0.2,0,0.4,0.1,0.4,0.4C665.1,6975.2,665,6975.4,664.7,6975.4
			C664.7,6975.4,664.7,6975.4,664.7,6975.4L664.7,6975.4z"/>
		<path id="パス_1941" class="st1" d="M664.4,6973.4c-1.2,0-2.1,0.9-2.1,2.1c0,1.2,0.9,2.1,2.1,2.1c1.2,0,2.1-0.9,2.1-2.1l0,0
			C666.6,6974.4,665.6,6973.4,664.4,6973.4C664.5,6973.4,664.5,6973.4,664.4,6973.4L664.4,6973.4z M664.4,6977.3
			c-1,0-1.8-0.8-1.8-1.8c0-1,0.8-1.8,1.8-1.8c1,0,1.8,0.8,1.8,1.8l0,0C666.3,6976.5,665.5,6977.3,664.4,6977.3
			C664.5,6977.3,664.5,6977.3,664.4,6977.3L664.4,6977.3z"/>
		<rect id="長方形_1490" x="613.2" y="6982.3" class="st1" width="53.7" height="0.6"/>
	</g>
	<path id="パス_4101" class="st2" d="M648.7,7470.1c1,1.7,2.8,2.7,4.8,2.6c0.8,0,1.7-0.1,2.5-0.2c-0.1,3.2-0.1,3.2-0.2,4.6
		c0,0.6,0,1.1-0.1,1.5c-2.8,1.4-3.9,2.1-5.1,3.3c-0.5,0.5-0.9,1.1-1,1.8c0,0.6,0.5,1.1,1.1,1.3c0.8,0.4,1.5,0.9,2.1,1.4
		c2,1.7,2,1.7,2.4,1.7c0.7-0.1,1.3-0.5,1.5-1.2c0.3-0.6,0.4-1.2,0.4-1.9c0-0.3,0-0.6,0-1.2c0-1,0-1,0-4.4c2.7-1.4,5.6-2.2,8.7-2.3
		c3.1,0,4.7,1.3,4.7,3.8c0,2.6-1.7,4.4-4,4.4c-1.1,0-2.2-0.4-3-1.2c-0.8-0.8-1.5-1.7-1.9-2.8l-0.5,0.2c1.1,3.7,3.2,5.7,6.2,5.7
		c3,0,5.5-2.4,5.5-5.4c0,0,0-0.1,0-0.1c0-3.4-2.8-5.5-7.1-5.5c-2.9,0.1-5.8,0.7-8.5,1.8c0-1.9,0.1-3.3,0.1-4.2
		c0.1-1.2,0.1-1.2,0.1-1.6c1.6-0.3,3.2-0.9,4.7-1.6c1.2-0.5,1.4-0.8,1.4-1.2c0-0.3-0.2-0.6-0.5-0.7c-0.4-0.2-0.8-0.3-1.2-0.3
		c-0.3,0-0.5,0.1-0.8,0.3c-1,0.9-2.2,1.5-3.5,1.9c0-1.6,0.3-3.3,1-4.8c0.4-0.6,0.4-0.6,0.4-0.8c0-0.4-0.3-0.8-0.7-1
		c-1-0.5-2.2-0.8-3.3-0.8c-0.5-0.1-1,0.1-1.4,0.4c2.2,0.4,2.6,1.1,2.6,4.4c0,0.6,0,2,0,2.9c-1,0.3-2.1,0.4-3.2,0.4
		c-1.4,0-2.8-0.6-3.8-1.6L648.7,7470.1z M655.7,7480.3c0,0.2-0.1,1.8-0.2,4.6c0,0.6-0.2,0.8-0.6,0.8c-0.7-0.1-1.4-0.2-2-0.5
		c-0.9-0.3-1.3-0.7-1.3-1c0-0.4,0.3-0.9,1-1.5C653.5,7481.8,654.5,7481,655.7,7480.3z M666.8,7467c0.8,0.2,1.5,0.5,2.2,0.8
		c0.9,0.4,1.6,1.1,2,2c-1.1,0.8-2.3,1.5-3.5,2.1l0.2,0.3c1.3-0.4,2.6-0.7,3.9-0.9c0.2,0,0.5,0,0.7,0.1c0.2,0,0.3,0.1,0.5,0.1
		c0.5,0,0.9-0.3,1-0.8c0,0,0-0.1,0-0.1c0-1-0.8-2-2.2-2.8c-1.5-0.7-3.1-1.1-4.7-1.2L666.8,7467z M650.9,7509.8h2.1
		c-0.1,2.4-0.4,4.8-0.9,7.2c-0.8,3.9-2.8,7.4-5.7,10.1l0.3,0.4c0.8-0.5,1.6-1.1,2.3-1.7c1.7-1.6,3-3.5,4-5.6
		c0.7-1.7,1.2-3.4,1.5-5.2h4.6c-0.2,2.8-0.6,5.7-1.2,8.5c-0.3,1.1-0.5,1.4-1.2,1.4c-0.5,0-2.5-0.2-4.3-0.4l-0.1,0.5
		c3,0.7,3.5,1,3.5,2.4c0.8-0.1,1.6-0.3,2.4-0.6c0.6-0.4,1.1-0.9,1.3-1.6c0.8-3.1,1.3-6.2,1.5-9.4c1-0.5,1-0.5,1-0.7
		c0-0.1,0-0.2-0.3-0.4c-0.5-0.5-1.1-1.1-1.7-1.5c-0.4,0.4-0.8,0.7-1.1,1.2h-4.4c0.3-1.5,0.4-3,0.5-4.5h4.3v1.3
		c0,0.3,0.2,0.4,0.7,0.4c0.5,0,0.9-0.1,1.3-0.2c0.2-0.1,0.3-0.2,0.3-0.4c-0.1-3.1-0.1-3.3-0.2-8.6c0.5-0.4,0.8-0.5,0.9-0.5
		c0.1-0.1,0.1-0.2,0.1-0.3c0-0.1-0.1-0.3-0.4-0.5c-0.6-0.5-1.2-1-1.9-1.4c-0.5,0.6-0.6,0.8-1.1,1.4h-7.6c-0.9-0.6-1.8-1.1-2.8-1.4
		c0.1,1.4,0.1,3.6,0.1,6.9c0,2,0,2.9-0.1,5.2v0.1c0,0.3,0.2,0.4,0.6,0.4c0.4,0,0.8,0,1.2-0.1c0.3-0.1,0.3-0.2,0.3-0.4V7509.8z
		 M650.9,7501.9h8.5v7.2h-8.5V7501.9z M667.3,7502.8c1.1-0.3,1.3-0.4,1.3-0.7c0-0.4-0.9-0.6-3.5-0.8c0.1,0.9,0.2,3.8,0.2,8.6
		c0,4.4,0,8.3-0.1,10.3v0.1c0,0.2,0.2,0.4,0.5,0.4h0.1c0.2,0,0.4,0,0.5,0c0.9,0,1.2-0.2,1.2-0.5v-0.2c-0.1-3.7-0.1-4-0.1-5.2
		L667.3,7502.8z M671.6,7524.5c0,0.3-0.1,0.4-0.5,0.4c-1.2,0-2.4-0.1-3.6-0.2c-0.4,0-0.9-0.1-1.6-0.1v0.5c1.2,0.2,2.3,0.5,3.5,1
		c0.5,0.3,0.5,0.3,0.9,1.6c2.7-0.6,3.6-1.1,3.6-2.2v-0.4c-0.1-2.4-0.1-2.4-0.2-12.1v-12c0.7-0.3,1-0.5,1.1-0.5
		c0.1-0.1,0.1-0.2,0.1-0.3c0-0.3-0.5-0.4-2-0.7c-0.5,0-1-0.1-1.5-0.2c0.1,0.9,0.2,1.7,0.2,2.6L671.6,7524.5z M650.9,7554.4
		c-0.6,1-1.3,2-2.1,2.8c-0.5,0.5-0.5,0.6-0.5,1c0,0.6,0.1,1.2,0.4,1.8c0.2,0.5,0.4,0.7,0.7,0.7c0.3,0,0.4-0.2,1.1-1.7
		c1.1,1.1,2,2.2,2.8,3.5c0.1,0.2,0.4,1.2,0.5,1.5c0.2,0.6,0.4,0.9,0.8,0.9c0.8,0,1.4-1.5,1.4-3.3c0-0.5,0-1-0.1-1.5
		c-0.2-2.5-0.3-4-0.3-5.7c0-0.5,0-0.9,0-1.7c1.5-1.8,3.1-3.5,4.9-5.1c2.6-2.3,4.2-3.2,5.6-3.2c1.2,0,2,0.9,2,2.5
		c0,1.2-0.1,1.6-0.8,5.1c-0.4,1.9-0.7,3.8-0.8,5.7c0,2.9,1.3,4.5,3.7,4.5c2.3,0,4.8-1.3,7.1-3.7l-0.3-0.4c-1.7,1.3-3.8,2.1-6,2.3
		c-0.6,0-1.2-0.2-1.6-0.5c-0.6-0.4-0.8-1.1-0.8-2.4c0-1.8,0.2-3.5,0.6-5.2c0.4-1.5,0.6-3.1,0.6-4.7c0.1-1-0.2-2-0.9-2.8
		c-0.6-0.7-1.6-1.2-2.5-1.2c-1.4,0-2.9,0.7-5.2,2.3c-2,1.5-3.8,3.1-5.6,4.9c0-0.4,0-0.8,0.1-1.2c0.3-0.7,0.6-1.4,1-2.1
		c0.4-0.7,0.4-0.7,0.4-0.9c0-0.3-0.2-0.5-0.9-1.2c0.1-0.9,0.3-1.7,0.6-2.5c0.3-1,0.3-1,0.3-1.3c0-0.6-0.6-1.4-1.7-2.1
		c-0.6-0.5-1.3-0.8-2-0.9c-0.2,0-0.3,0.1-0.4,0.2c1.5,1.2,1.8,1.7,1.8,3.6c0,1.1-0.1,2.3-0.2,3.4c-1.4,0.9-3,1.5-4.6,1.9
		c-0.7,0-1.4-0.5-2.1-1.5c-0.1,0.2-0.1,0.4-0.1,0.5c0,1,1.5,2.9,2.4,2.9c0.3,0,0.5-0.1,1.1-0.5c0.6-0.4,2.3-1.6,3.2-2.2
		c0,0.5,0,0.5-0.1,1.1c0,0.8,0,0.8-0.1,1.3L650.9,7554.4z M654.4,7551.4c-0.1,1.3-0.1,2-0.1,3.6c0,4.8,0,4.8-0.1,6
		c-1.2-0.8-2.3-1.6-3.4-2.6c0.6-1.3,1-2,1.7-3.4C653.9,7552.4,653.9,7552.4,654.4,7551.4z M661.5,7601.6c2.2-0.3,4.3-1,6.2-2
		c4-2.1,6.4-5.7,6.4-9.7c0.1-2.8-1-5.6-3.1-7.5c-2.3-2-5.2-3-8.3-2.9c-4.1,0-8.1,1.6-11,4.5c-1.7,1.7-2.7,3.9-2.9,6.3
		c0,1,0.3,2,0.7,2.9c0.6,1,1,2,1.4,3c0.2,0.7,0.5,1.4,0.9,2c0.3,0.4,0.9,0.7,1.4,0.7c1.2,0,2.8-1.6,4.8-4.8
		c2.4-3.9,4.2-8.6,4.2-11.1c0-1-0.4-1.9-1-2.7c0.4,0,0.7-0.1,1.1-0.1c1.9,0,3.9,0.5,5.5,1.5c2.4,1.5,3.8,4.2,3.6,7.1
		c0,2.8-1,5.6-2.8,7.7c-2,2.2-4.6,3.8-7.5,4.4L661.5,7601.6z M660.6,7580.6c0.3,0.5,0.4,1,0.4,1.6c0,2-1.7,6.1-4.1,9.9
		c-1.6,2.5-3.1,4.2-3.8,4.2c-0.4,0-0.8-0.4-1.2-0.9c-0.8-1.2-1.3-2.7-1.3-4.2C650.7,7586.2,655.1,7581.6,660.6,7580.6L660.6,7580.6z
		 M674.2,7630.9c0.1,0,0.3-0.1,0.3-0.2c0,0-0.1-0.2-0.2-0.3c-1.3-1.1-1.7-1.4-3.1-2.5c-0.8,0.9-1,1.2-1.8,2.2H651
		c-0.9,0-1.7-0.1-2.5-0.3l0.3,1.2c0.7-0.1,1.5-0.2,2.3-0.2h6.5c-0.9,2.6-2.1,5.1-3.4,7.4c-0.2,0-0.4,0-0.6,0c-0.4,0-0.8,0-1.3,0
		c-1.8-0.1-1.8-0.1-2.6-0.1c0.2,0.9,0.4,2.2,0.6,3.1c0.1,0.5,0.2,0.6,0.4,0.6c0.3,0,0.4-0.2,0.7-1.1c5.8-0.5,11.5-1.3,17.2-2.5
		c0.6,0.9,1.2,1.9,1.7,2.9c0.2,0.4,0.3,0.5,0.5,0.5c0.2,0,0.4-0.1,0.5-0.3c0.3-0.6,0.5-1.3,0.5-2c-0.1-0.9-0.5-1.7-1.2-2.2
		c-1.9-1.8-4.1-3.4-6.4-4.8l-0.3,0.3c1.6,1.5,2.9,3.2,4.2,5c-3.2,0.4-8,0.6-13,0.7c1.9-2.1,2.2-2.7,5.5-7.4L674.2,7630.9z
		 M646.9,7627.9c2.8-1.4,5.3-3.1,7.6-5.2c2.7-2.3,5-5,6.9-8c0.3,0.9,0.8,1.7,1.3,2.4c1.3,1.9,2.8,3.6,4.4,5.2
		c2.1,2.1,4.5,3.8,7.1,5.1c0.6-1.8,1-2.3,2.3-2.6v-0.3c-2.7-0.6-5.4-1.7-7.7-3.2c-2.8-1.7-5.2-4.1-6.9-6.9c0.7,0,1.2-0.3,1.2-0.6
		c0-0.3-0.3-0.4-3.8-1.2c-0.2,0.8-0.6,1.6-1.1,2.3c-2,3.2-4.3,6.1-7,8.6c-1.4,1.4-3,2.7-4.7,3.8L646.9,7627.9z M653.4,7625.7
		c1.2-0.1,1.7-0.1,2.2-0.1h12.7c0.3,0,0.4-0.1,0.4-0.2c0-0.1-0.1-0.2-0.2-0.3c-1.2-1.1-1.7-1.4-2.9-2.4c-0.8,0.9-1,1.2-1.8,2.1h-8.1
		c-0.9,0-1.7-0.1-2.6-0.3L653.4,7625.7z M661.5,7677.7c2.2-0.3,4.3-1,6.2-2c4-2.1,6.4-5.7,6.4-9.7c0.1-2.8-1-5.6-3.1-7.5
		c-2.3-2-5.2-3-8.3-2.9c-4.1,0-8.1,1.6-11,4.5c-1.7,1.7-2.7,3.9-2.9,6.3c0,1,0.3,2,0.7,2.9c0.6,1,1,2,1.4,3c0.2,0.7,0.5,1.4,0.9,2
		c0.3,0.4,0.9,0.7,1.4,0.7c1.2,0,2.8-1.6,4.8-4.8c2.4-3.9,4.2-8.6,4.2-11.1c0-1-0.4-1.9-1-2.7c0.4,0,0.7-0.1,1.1-0.1
		c1.9,0,3.9,0.5,5.5,1.5c2.4,1.5,3.8,4.2,3.6,7.1c0,2.8-1,5.6-2.8,7.7c-2,2.2-4.6,3.8-7.5,4.4L661.5,7677.7z M660.6,7656.6
		c0.3,0.5,0.4,1,0.4,1.6c0,2-1.7,6.1-4.1,9.9c-1.6,2.5-3.1,4.2-3.8,4.2c-0.4,0-0.8-0.4-1.2-0.9c-0.8-1.2-1.3-2.7-1.3-4.2
		C650.7,7662.2,655.1,7657.6,660.6,7656.6L660.6,7656.6z"/>
	<path id="パス_4100" class="st2" d="M613.4,7474.5c1.1-0.9,2-2.1,2.7-3.4h5.8c0,1.1,0,1.2-0.1,2.4c0,0.3,0.1,0.4,0.7,0.4
		c1.1,0,1.3-0.1,1.4-0.5c0-1.1-0.1-1.6-0.1-2.3h7.5c-0.2,1.5-0.4,2-0.7,2c-0.7-0.1-1.5-0.2-2.2-0.4c-0.2,0-0.4-0.1-0.7-0.1l-0.1,0.4
		c1.8,0.6,2.3,1,2.4,2.1c1.6-0.1,2.3-0.4,2.6-1.1c0.3-0.8,0.5-1.7,0.5-2.6c0.6-0.3,0.8-0.4,0.8-0.5c0-0.1-0.1-0.2-0.3-0.4
		c-0.6-0.5-0.8-0.7-1.5-1.2c-0.5,0.5-0.7,0.7-1.2,1.2h-7v-2.6h5.5v0.5c0,0.3,0.1,0.3,0.7,0.3c1.1,0,1.3-0.1,1.3-0.5
		c-0.1-1.3-0.1-1.8-0.1-3.4c0.7-0.4,1-0.6,1-0.8c0-0.1-0.1-0.2-0.4-0.4c-0.5-0.4-1.1-0.8-1.7-1.1c-0.4,0.4-0.8,0.8-1.1,1.3h-5.2
		v-1.4c1-0.3,1.3-0.4,1.3-0.7c0-0.3-0.1-0.4-3.3-0.6c0.1,0.9,0.2,1.8,0.1,2.8h-4.7l0-1.5c0.9-0.2,1.2-0.4,1.2-0.7
		c0-0.3-0.2-0.4-3.4-0.6c0.1,0.7,0.2,1.5,0.2,2.2c0,0.2,0,0.4,0,0.6H610c-1,0-2.1-0.1-3.1-0.3l0.2,1.2c1-0.2,1.9-0.2,2.9-0.2h5.2
		c0,1.3-0.1,1.7-0.2,2.7h-4.4c-0.9-0.6-1.2-0.7-2-1.2c-0.5,2.2-1.3,4.4-2.4,6.4c0,0.1-0.1,0.2-0.1,0.3c0,0.3,0.4,0.4,1.5,0.4
		c0.4,0,0.5-0.1,0.7-0.4c0.2-0.5,0.3-0.7,0.5-1.3h5.1c-0.6,1.2-1.5,2.2-2.5,3.1c-0.5-0.2-1-0.4-1.5-0.5c0.1,0.6,0.1,1.1,0.1,1.7
		c-1.5,1.2-3.1,2.2-4.8,3l0.3,0.4c1.6-0.5,3.1-1.2,4.6-2.1v3.6c0,2,0,3.2-0.1,5.3v0.1c0,0.3,0.2,0.4,0.8,0.4c1.1,0,1.4-0.1,1.4-0.5
		v-0.7h14.1v0.4c0,0.3,0.1,0.4,0.6,0.4c1.4,0,1.6-0.1,1.6-0.5c-0.1-4.2-0.1-4.2-0.1-9.5c0.6-0.4,0.7-0.4,0.7-0.6
		c0-0.1-0.1-0.2-0.2-0.3c-0.6-0.5-1.1-0.9-1.8-1.3c-0.4,0.4-0.5,0.6-0.9,1L613.4,7474.5z M612.3,7475.2h14.1v2.4h-14.1V7475.2z
		 M626.5,7478.3v2.4h-14.1v-2.4L626.5,7478.3z M626.5,7481.5v2.8h-14.1v-2.8L626.5,7481.5z M621.9,7467.7c0,1.2,0,1.2,0,2.6h-5.5
		c0.3-0.8,0.5-1.7,0.6-2.6H621.9z M615,7467.7c-0.1,0.9-0.3,1.8-0.6,2.6h-5.2c0.5-1.5,0.5-1.5,0.9-2.6H615z M617,7467
		c0.1-0.9,0.1-1.2,0.2-2.7h4.7v2.7H617z M623.8,7467v-2.7h5.5v2.7H623.8z M605.5,7490.7c3.6-0.4,7.1-1.4,10.4-2.8h0.9
		c0.8,0,1-0.1,1-0.4c0-0.2-0.2-0.3-1.7-0.9c-0.3-0.1-0.8-0.3-1.4-0.6c-1.6,1.5-4.6,2.8-9.3,4.2L605.5,7490.7z M622.4,7486.8
		c3.2,0.7,6.3,1.9,9.2,3.5c0.6,0.4,0.8,0.4,1.1,0.4c0.3,0,0.4-0.2,0.4-0.6c0-1.2-0.8-2.2-2-2.5c-2.8-0.7-5.6-1.2-8.5-1.3
		L622.4,7486.8z M618.7,7515.9v2.9c0,1.3,0,4.8-0.1,6.8c0,0.4,0.2,0.5,0.6,0.5h0.4c1,0,1.2-0.2,1.3-0.7c0-1.2,0-1.2-0.1-2.8
		c0-1.8,0-1.8,0-3.8v-2.9h7.9v8.8c0,0.4-0.1,0.4-0.4,0.4h-0.3c-0.9,0-0.9,0-2.1-0.1c-1.9-0.1-1.9-0.1-3-0.2v0.5
		c3.6,0.4,3.8,0.6,4.3,2.5c1-0.1,1.9-0.4,2.8-0.8c0.6-0.2,1-0.8,1-1.5c-0.1-4.1-0.1-5.3-0.1-8.1v-14.9c1-0.6,1.2-0.7,1.2-1
		c0-0.1-0.1-0.3-0.4-0.4c-0.9-0.7-1.1-0.9-2-1.5c-0.5,0.5-0.9,1-1.3,1.5h-17.1c-0.8-0.6-1.7-1.1-2.6-1.6c0.1,1.5,0.2,2.5,0.2,4.1
		c0,1.3-0.1,5.7-0.1,7.2c0.1,2.9-0.2,5.7-0.8,8.5c-0.7,3.1-2.1,6.1-4.1,8.5l0.4,0.3c1.9-1.5,3.5-3.5,4.5-5.7c1-2.1,1.7-4.3,2-6.6
		H618.7z M620.9,7515.2v-6.6h7.9v6.6H620.9z M618.7,7515.2H611c0.2-1.9,0.2-3.6,0.2-6.6h7.5V7515.2z M620.9,7507.8v-6h7.9v6H620.9z
		 M618.7,7507.8h-7.5v-2.4c0-1,0-1.7,0-2c0-0.3,0-0.9,0-1.5h7.5V7507.8z M613.4,7538.9c1.3,0.2,2,0.5,2.3,1.2c0.3,0.5,0.3,1,0.4,3.7
		c0.1,2.4,0.1,3.1,0.2,3.9c0.2,1.4,0.4,2.1,0.9,2.4c0.4,0.4,1,0.5,1.5,0.5c-1.4,0.7-2.7,1.6-3.9,2.6c-2.1,1.8-3.1,3.5-3.1,5.4
		c0,2.2,1.4,4.1,3.5,4.7c1.8,0.6,3.6,0.8,5.4,0.7c2.1,0,4.1-0.2,6.1-0.4c1-0.2,1.4-0.5,1.4-1.1c-0.1-0.9-0.8-1.5-1.7-1.6
		c-0.2,0-0.4,0-0.6,0.1c-2.4,0.6-4.9,0.9-7.4,0.9c-3.6,0-5.4-1.2-5.4-3.5c0-1.5,0.8-2.8,2.5-4.1c2-1.5,4.1-2.5,8-3.6
		c0.7-0.2,1.4-0.4,2.1-0.7c0.4-0.1,0.7-0.5,0.7-1c-0.1-0.8-0.8-1.3-1.5-1.3c-0.5,0-0.9,0.1-1.3,0.4c-2.9,1.4-3.6,1.6-4.3,1.6
		c-1,0-1.2-0.5-1.2-2.4c-0.1-2.2,0.2-4.4,0.7-6.5c0.2-0.6,0.3-0.6,0.3-0.8v-0.1c0-0.4-0.3-0.8-0.9-1c-1-0.4-2.1-0.6-3.2-0.6
		C614.3,7538.4,613.8,7538.6,613.4,7538.9z M627.2,7586.7v0.5c0,0.3,0.1,0.3,0.4,0.3h0.1c0.1,0,0.3,0,0.6,0c0.9,0,1.1-0.1,1.1-0.5
		c-0.1-1.4-0.1-1.5-0.1-3.8c0.8-0.4,0.9-0.5,0.9-0.7c0-0.1-0.1-0.2-0.3-0.4c-0.7-0.6-1-0.7-1.8-1.3c-0.5,0.5-0.7,0.7-1.2,1.2h-6.6
		v-2.5h13.6c0.1,0,0.3-0.1,0.3-0.2c0-0.1-0.1-0.2-0.1-0.3c-0.9-0.8-1.8-1.6-2.7-2.3c-0.8,0.9-1,1.1-1.8,2h-9.2v-2.2
		c1-0.3,1.2-0.4,1.2-0.7c0-0.4-0.2-0.4-3.5-0.8c0.1,1.2,0.2,2.5,0.2,3.7h-10.6c-0.7,0-1.4,0-2.1-0.2l0.1,1.1c0.7-0.1,1.3-0.1,2-0.1
		h10.6v2.5h-6.6c-0.9-0.5-1.2-0.7-2.1-1.2c0,0.9,0,1.1,0,2.2c0,1.8,0,2.8-0.1,4.7c0,0.2,0.1,0.3,0.4,0.3c0.5,0,1-0.1,1.4-0.1
		c0.2-0.1,0.2-0.2,0.2-0.4v-0.8h6.7v2.6h-8.4c-0.6,0-1.2,0-1.8-0.2l0.1,1.1c0.5-0.1,1.1-0.1,1.6-0.1h8.4v3h-11.1
		c-0.7,0-1.3-0.1-2-0.2l0.2,1.1c0.6-0.1,1.2-0.1,1.8-0.1h11.1v3.2h-7.9c-0.7,0-1.5-0.1-2.2-0.3l0.1,1.2c0.7-0.1,1.3-0.2,2-0.2h8v3.6
		c0,0.3-0.1,0.4-0.5,0.4h-0.9c-0.9,0-1.3,0-4.9-0.2v0.5c4.7,0.8,4.9,0.9,5,2.4c2.2-0.5,3-0.8,3.3-1.3c0.2-0.3,0.2-0.5,0.2-1.3
		l-0.1-2.4c0-0.5,0-1.1,0-1.6h7.2v1.8c0,0.2,0.2,0.3,0.5,0.3c0.5,0,1-0.1,1.5-0.2c0.2-0.1,0.2-0.2,0.2-0.4c0-0.8-0.1-2.6-0.1-5.5
		h4.7c0.2,0,0.3-0.1,0.3-0.2c0-0.1-0.1-0.2-0.2-0.3c-1-1-1.3-1.3-2.4-2.2c-0.8,0.8-1,1.1-1.8,1.9h-0.6l0-2.5
		c0.8-0.5,0.9-0.6,0.9-0.8c0-0.1-0.1-0.2-0.3-0.4c-0.8-0.6-1.1-0.8-1.9-1.3c-0.5,0.5-0.7,0.7-1.2,1.2h-7v-2.6H627.2z M627.2,7585.9
		h-6.9v-3.3h6.9V7585.9z M618.2,7585.9h-6.7v-3.3h6.7V7585.9z M627.5,7593h-7.3v-3h7.3V7593z M627.5,7593.7v3.2h-7.2l0-1.1v-2.1
		H627.5z M621,7622.8c-0.1,1.1-0.4,2.3-0.7,3.4c-0.7,2.4-1.6,4.8-2.8,7c-1.7,3-4,5.7-6.7,8l0.3,0.4c3.1-1.9,5.7-4.4,7.7-7.3
		c2-3,3.2-5.9,4.2-10.7c0.9-0.4,1.1-0.6,1.1-0.8c0-0.2-0.1-0.3-0.3-0.4c-0.8-0.6-1.1-0.8-1.9-1.4c-0.4,0.5-0.6,0.7-1.1,1.2h-4
		c0.6-1.8,1.1-3.6,1.3-5.5h6.7c0.3,0,0.4-0.1,0.4-0.2c0-0.1-0.1-0.2-0.1-0.3c-1-1-1.3-1.3-2.4-2.3c-0.8,0.9-1,1.2-1.7,2h-5.3
		c-1,0-2-0.1-3-0.3l0.3,1.2c0.9-0.1,1.8-0.1,2.8-0.1h0.2c-0.2,2.2-0.7,4.4-1.3,6.5c-0.9,2.9-2.2,5.7-3.8,8.3l0.3,0.3
		c1.6-1.6,2.9-3.4,3.9-5.4c0.8,1.1,1.3,2.3,1.7,3.6c0.3,0.9,0.4,1.1,0.6,1.1c0.5,0,1.2-1.2,1.2-2c-0.1-0.5-0.3-1-0.7-1.3
		c-0.8-0.7-1.6-1.3-2.5-1.8c0.5-1.2,0.9-1.9,1.3-3L621,7622.8z M604.3,7629c1.3-1.4,2.5-2.9,3.6-4.5v6.6c-0.1,7.9-0.1,7.9-0.1,10.1
		v0.1c0,0.3,0.1,0.4,0.4,0.4c0.5,0,1-0.1,1.5-0.2c0.2,0,0.3-0.1,0.3-0.3v-2.4c-0.1-6.8-0.1-6.8-0.1-8.1v-6.4c0.8-0.2,1-0.3,1-0.5
		c0-0.3-0.5-0.5-2.2-0.7c1.5-2.7,2.8-5.5,3.7-8.5c1-0.2,1.3-0.3,1.3-0.6c0-0.3-0.4-0.4-3.4-1.1c-0.4,2.5-1.1,5-2.1,7.4
		c-1.1,2.9-2.5,5.8-4.2,8.4L604.3,7629z M627.1,7618.3c0.7-0.2,1.1-0.4,1.1-0.7c0-0.3-0.4-0.4-3.1-0.6c0.2,1.6,0.2,3.3,0.1,4.9
		c0,5.2,0,5.9-0.1,12.9c0,0.3,0.1,0.4,0.4,0.4c1.4,0,1.6-0.1,1.7-0.5c0-3.2,0-3.2,0-5.5c0-3.6,0-7.1,0-7.6L627.1,7618.3z
		 M623.8,7639.5c2.7,0.3,3,0.4,3.5,0.7c0.6,0.3,1.1,1,1.2,1.7c0.9-0.1,1.8-0.4,2.6-1c0.7-0.4,1.1-1.1,1-1.9v-0.4l0-4.8l0-3.4v-15.2
		c1.1-0.4,1.3-0.5,1.3-0.7c0-0.4-1-0.6-3.6-0.9c0.1,0.9,0.1,1,0.1,2.3v22.7c0,0.5-0.1,0.6-0.4,0.7c-1.6,0-1.8,0-4.2-0.2
		c-0.3,0-0.9,0-1.6-0.1V7639.5z"/>
</g>
</svg>
