<svg xmlns="http://www.w3.org/2000/svg" width="36" height="41.311" viewBox="0 0 36 41.311">
  <g id="edit-list" opacity="0.501">
    <path id="パス_2321" data-name="パス 2321" d="M13.349,21.711a1.071,1.071,0,0,1,0-2.111H25.1a1.071,1.071,0,0,1,0,2.111Zm2.409,17.482a1.059,1.059,0,1,1,0,2.118H2.47A2.471,2.471,0,0,1,0,38.847V2.464A2.471,2.471,0,0,1,2.47,0H32.8a2.477,2.477,0,0,1,1.745.723,2.452,2.452,0,0,1,.724,1.741V19.321a1.061,1.061,0,0,1-2.123,0V2.464a.335.335,0,0,0-.1-.242.342.342,0,0,0-.243-.1H2.47a.362.362,0,0,0-.246.1.367.367,0,0,0-.1.245V38.844a.346.346,0,0,0,.1.242.35.35,0,0,0,.246.1H15.758Zm17.5-14.2a.816.816,0,0,0-.6-.239.794.794,0,0,0-.586.262l-1.317,1.368,3.7,3.56,1.331-1.382a.865.865,0,0,0-.024-1.183l-2.5-2.387Zm-6.9,13.337c-.489.155-.974.316-1.459.474s-.974.326-1.459.487q-1.723.565-1.927.622t.236-1.617l.913-3.513h0l6.924-7.188,3.693,3.547-6.92,7.188Zm-13-9.1a1.091,1.091,0,0,1,0-2.145H19.14a1.091,1.091,0,0,1,0,2.145Zm0-15.024a.984.984,0,0,1-.889-1.056.982.982,0,0,1,.889-1.056H25.1a.984.984,0,0,1,.889,1.056.982.982,0,0,1-.889,1.056Zm-5.1,12.506a1.251,1.251,0,1,1-1.253,1.251,1.252,1.252,0,0,1,1.253-1.251Zm0-7.4a1.251,1.251,0,1,1-1.253,1.251,1.252,1.252,0,0,1,1.253-1.251Zm0-7.4a1.251,1.251,0,1,1-1.253,1.251,1.252,1.252,0,0,1,1.253-1.251Z" transform="translate(0 0)" fill="#af9544" fill-rule="evenodd"/>
  </g>
</svg>
