<?xml version="1.0" encoding="UTF-8"?><svg id="_イヤー_2" xmlns="http://www.w3.org/2000/svg" viewBox="0 0 54.76 156.99"><g id="main"><g><path d="M32.61,19.6c1.66-1.04,3.2-2.29,4.94-3.95,2.6-2.47,4.52-4.76,6.37-7.62-3.12,.49-4.97,.91-6.42,1.51-.42,.16-.6,.21-.83,.21-.57,0-1.3-.52-1.98-1.4-.47-.6-.75-1.17-.75-1.46,0-.1,.03-.18,.1-.31,.83,.96,1.61,1.38,2.68,1.38s5.43-.55,8.19-1.01c-.03-2.29-.16-3.46-.39-3.9-.29-.55-1.07-1.01-1.98-1.2,.21-.26,.31-.29,.86-.29,.81,0,2.11,.31,2.89,.73,.57,.29,.75,.49,.75,.94,0,.18-.03,.31-.16,.57-.34,.78-.49,1.69-.52,2.94,2.16-.31,2.83-.47,3.93-.94,.29-.1,.36-.13,.55-.13,.78,0,2.29,.96,2.29,1.46,0,.34-.23,.47-.88,.47-.16,0-.44,0-.91-.03-.62-.03-1.12-.05-1.43-.05-.83,0-1.64,.05-3.56,.23,0,.34-.03,.65-.03,.81,0,2.26,.16,5.2,.42,8.4,.1,1.27,.16,2.24,.16,2.81,0,1.4-.68,2.76-1.35,2.76-.31,0-.57-.18-.73-.55-.21-.55-.42-.83-.94-1.25q-.62-.49-3.64-2.16l.13-.34c2.37,.73,3.59,1.07,4.76,1.35,.03-.52,.05-1.79,.05-3.22,0-.65,0-1.46-.03-2.44-.05-1.69-.08-2.86-.08-3.46,0-.23,0-.62,.03-1.12-1.12,1.74-2.08,2.89-4.06,4.81-2.76,2.65-5.93,4.89-8.22,5.8l-.21-.34Z" fill="#42210b"/><path d="M36.95,30.29c.62,0,1.74,.36,2.44,.81,.44,.29,.68,.6,.68,.91,0,.08-.05,.34-.08,.57-.13,.6-.23,2.63-.23,4.47,0,.34,0,.94,.03,1.98v.88c0,.83-.03,1.12-.08,1.4-.05,.36-.26,.57-.52,.57-.34,0-.68-.31-.99-.88-.29-.52-.47-1.12-.47-1.46,0-.18,.03-.26,.1-.57,.23-.7,.34-2.18,.34-4.24,0-1.9-.1-2.52-.49-3.12-.31-.52-.55-.68-1.53-1.12,.31-.18,.42-.21,.81-.21Zm2.73,19.68c2.6-1.77,4.08-3.22,5.25-5.17,1.46-2.47,1.85-4.71,1.85-10.84,0-2.6-.1-3.43-.49-3.93-.34-.42-.94-.73-1.87-.94,.36-.31,.57-.39,1.07-.39,.62,0,1.85,.34,2.65,.73,.65,.31,.94,.65,.94,1.04q0,.18-.16,.62c-.21,.62-.34,2.34-.44,5.56-.13,3.77-.29,4.97-.83,6.5-1.09,2.99-3.87,5.59-7.75,7.15l-.21-.34Z" fill="#42210b"/><path d="M33.37,62.69c2.16,.44,3.69,.96,4.55,1.53,.7,.44,.99,.96,.99,1.72,0,.68-.34,1.25-.73,1.25-.26,0-.42-.1-.81-.6-1.33-1.66-2.55-2.7-4.16-3.56l.16-.34Zm20.07-.65c-.57,.94-2.03,2.6-3.87,4.45-2.86,2.76-5.72,4.97-9.85,7.57-1.38,.91-1.69,1.12-2,1.43-.21,.18-.39,.26-.6,.26-.52,0-1.12-.49-1.85-1.56-.47-.7-.81-1.51-.81-2,0-.23,.08-.42,.23-.6,.49,.99,1.22,1.61,1.95,1.61,.57,0,2.29-.86,4.99-2.55,4.76-2.91,8.63-5.93,11.49-8.84l.31,.23Zm-17.21-3.95c4.16,.99,5.49,1.79,5.49,3.3,0,.73-.31,1.3-.7,1.3q-.29,0-1.4-1.38c-1.01-1.2-2.31-2.24-3.56-2.86l.18-.36Zm11.13-2.24c.96,.52,1.66,1.01,2.31,1.59,.94,.86,1.3,1.46,1.3,2.08s-.36,1.09-.81,1.09q-.34,0-1.17-1.69c-.44-.91-1.27-2.05-1.98-2.73l.34-.34Zm2.68-1.53c.94,.44,1.69,.88,2.5,1.51,.99,.75,1.33,1.27,1.33,2,0,.62-.26,1.07-.65,1.07-.23,0-.39-.13-.6-.52-.91-1.64-1.43-2.29-2.86-3.69l.29-.36Z" fill="#42210b"/><path d="M37.01,102.41c1.85-1.74,3.02-3.38,4.03-5.56,.96-2.05,1.48-4.52,1.69-7.64-2.37,.29-4.45,.78-6.01,1.46-.44,.18-.6,.21-.83,.21-.49,0-1.07-.34-1.72-1.04-.52-.57-.91-1.22-.91-1.61,0-.1,.03-.21,.13-.39,.75,.91,1.46,1.3,2.34,1.3,.7,0,.83-.03,4.5-.6,.86-.13,1.53-.23,2.55-.34,.03-.73,.03-1.12,.03-2.03,0-2.26-.13-2.83-.7-3.41-.36-.34-.88-.55-1.74-.68,.34-.31,.55-.39,1.07-.39,.99,0,2.39,.34,3.17,.75,.49,.26,.68,.47,.68,.83,0,.16-.03,.29-.16,.55-.31,.68-.52,2.21-.6,4.16,.47-.05,1.9-.18,3.46-.31,.99-.08,1.59-.21,2.11-.39,.21-.1,.36-.13,.55-.13,.42,0,.78,.1,1.25,.31,.91,.44,1.35,.83,1.35,1.25,0,.29-.23,.52-.55,.52-.08,0-.18,0-.34-.03-1.43-.26-2.91-.39-4.58-.39-.94,0-1.48,.03-3.28,.18-.36,4.26-1.01,6.58-2.47,8.97-1.12,1.82-2.73,3.41-4.78,4.78l-.23-.34Z" fill="#42210b"/><path d="M32.56,126c1.43-1.33,2.47-2.83,3.48-4.94,.99-2.05,1.79-5.25,1.79-7.05,0-1.01-.44-1.53-1.77-2.03,.29-.18,.42-.23,.7-.23,.57,0,1.2,.21,1.95,.65,.96,.57,1.4,1.01,1.4,1.43,0,.21-.05,.42-.34,1.2q-.03,.1-.26,.91c-.83,2.73-1.07,3.38-1.77,4.78-1.25,2.47-2.7,4.13-4.91,5.56l-.29-.29Zm22.21-10.38c-.81,1.38-1.48,2.24-2.83,3.67-1.51,1.61-3.9,3.69-5.51,4.76-.49,.34-1.25,.94-1.48,1.17-.21,.21-.34,.29-.52,.29-.6,0-1.56-1.35-1.56-2.16,0-.05,.05-.31,.18-.81,.16-.6,.23-2.91,.23-7.05,0-5.9-.1-6.24-2-6.66,.26-.31,.44-.39,.83-.39,.62,0,1.43,.29,2.29,.81,.75,.47,1.07,.83,1.07,1.2,0,.13-.03,.23-.21,.7-.13,.34-.26,1.22-.36,2.55-.1,1.09-.34,6.84-.34,7.83,0,.34,0,.62,.05,1.2,3.02-1.17,6.84-4.06,9.83-7.36l.34,.26Z" fill="#42210b"/><path d="M6.89,23.35c1.72-1.9,2.83-3.72,3.77-6.14,.73-1.9,1.25-4.08,1.25-5.3,0-.62-.16-.91-.68-1.27-1.59,.16-4.42,.96-5.77,1.64-.44,.21-.55,.26-.81,.26-.49,0-1.01-.31-1.64-.99-.6-.62-.88-1.14-.88-1.56,0-.13,.03-.26,.1-.49,.55,.81,1.25,1.2,2.13,1.2q.57,0,4.45-.68c2.11-.34,3.17-.47,8.01-.96,.47-.05,1.25-.21,2.03-.44,.39-.13,.42-.13,.65-.13,.36,0,.86,.13,1.38,.39,.73,.34,1.22,.83,1.22,1.2,0,.31-.29,.52-.73,.52-.18,0-.29,0-.65-.08-1.04-.21-2.76-.34-4.19-.34-1.51,0-2.91,.08-4.26,.26,1.2,.65,1.72,1.2,1.72,1.79,0,.94-.75,3.28-1.66,5.1-1.43,2.91-2.76,4.55-5.15,6.32l-.29-.29Zm-.49-20.07c1.09,1.01,1.95,1.4,3.12,1.4,1.66,0,4.06-.57,5.46-1.27,.29-.16,.52-.21,.78-.21,.68,0,1.77,.83,1.77,1.35,0,.34-.31,.47-1.35,.7-1.72,.36-4.55,.68-5.95,.68-1.92,0-2.96-.57-4.21-2.39l.39-.26Zm11.91-1.77c.96,.52,1.66,1.01,2.31,1.61,.94,.83,1.3,1.43,1.3,2.05s-.36,1.09-.81,1.09q-.34,0-1.17-1.69c-.44-.91-1.27-2.03-1.98-2.73l.34-.34Zm2.68-1.51c.94,.42,1.69,.86,2.47,1.48,1.01,.75,1.35,1.27,1.35,2,0,.62-.26,1.07-.65,1.07-.23,0-.39-.13-.6-.49-.91-1.64-1.43-2.31-2.86-3.72l.29-.34Z" fill="#42210b"/><path d="M8.42,50.75c2.26-1.46,4.13-3.46,4.97-5.3,.91-1.72,1.35-4.39,1.46-8.35-1.59,.05-4.08,.42-5.8,.81,0,.68,.03,1.95,.05,3.85,0,.05,.03,.42,.05,.96,.03,.26,.03,.49,.03,.68,0,.91-.23,1.43-.68,1.43-.52,0-1.35-1.3-1.35-2.08,0-.18,.03-.29,.13-.55,.31-.83,.34-1.27,.39-4-1.22,.21-2.52,.57-3.35,.99-.34,.16-.7,.26-.86,.26-.83,0-2.44-1.77-2.44-2.7,0-.05,.03-.13,.08-.26,.78,.88,1.4,1.22,2.16,1.22,.44,0,1.38-.13,2.86-.39q1.01-.16,1.51-.23c-.1-3.69-.34-4.29-1.95-5.15,.18-.18,.26-.21,.57-.21,.55,0,1.46,.34,2.21,.81,.62,.39,.91,.78,.91,1.2,0,.18-.03,.26-.1,.57-.1,.16-.23,1.56-.23,2.55,1.4-.18,2-.26,2.96-.36l2.89-.34v-1.66c0-2.05-.1-2.91-.42-3.33-.31-.42-.73-.65-1.66-.96,.29-.18,.52-.26,.86-.26,.7,0,1.61,.23,2.44,.65,.7,.34,.96,.6,.96,.96,0,.16-.03,.29-.1,.47-.31,.55-.44,1.59-.52,3.98,1.85-.13,2.6-.26,3.15-.52,.34-.16,.47-.18,.68-.18,.83,0,2.39,.99,2.39,1.53,0,.23-.23,.44-.55,.44-.1,0-.26-.03-.47-.03-1.25-.16-2.37-.21-3.64-.21-.49,0-.94,0-1.59,.03-.18,4.99-.62,7.31-1.79,9.15-1.14,1.92-3.67,4-5.98,4.91l-.21-.36Zm9.59-22.21c.96,.55,1.66,1.04,2.31,1.61,.94,.86,1.3,1.46,1.3,2.08s-.36,1.09-.81,1.09q-.34,0-1.17-1.69c-.44-.91-1.27-2.05-1.98-2.73l.34-.36Zm2.68-1.51c.94,.44,1.69,.88,2.47,1.51,1.01,.75,1.35,1.27,1.35,2,0,.62-.26,1.07-.65,1.07-.23,0-.39-.13-.6-.52-.91-1.64-1.43-2.29-2.86-3.69l.29-.36Z" fill="#42210b"/><path d="M1.74,70.12c3.25-1.74,6.73-4.37,9.78-7.38,2.57-2.52,4.24-4.63,4.24-5.38,0-.49-.42-.91-1.46-1.48,.29-.1,.34-.1,.52-.1,.75,0,1.4,.23,2.24,.78,.88,.6,1.35,1.2,1.35,1.69,0,.23-.03,.29-1.04,1.14q-.26,.21-2.11,1.98c-1.82,1.74-1.98,1.87-3.09,2.81,1.01,.75,1.46,1.14,1.59,1.46,.1,.26,.16,1.48,.18,3.82,.03,1.82,.08,3.48,.13,4.97,0,.57,.03,1.33,.03,1.48,0,.91-.18,1.3-.6,1.3-.6,0-1.77-1.43-1.77-2.18q0-.18,.16-.68c.23-.65,.47-3.87,.47-6.4,0-1.27-.05-2.05-.16-2.47-.08-.26-.18-.39-.57-.81-1.82,1.46-3.69,2.78-4.99,3.56-1.46,.86-3.33,1.77-4.68,2.26l-.21-.36Z" fill="#42210b"/><path d="M3.9,83.36c2.5,.62,4,1.22,5.02,1.95,.6,.42,.88,.99,.88,1.77,0,.86-.29,1.46-.73,1.46-.29,0-.42-.13-1.12-1.04-1.27-1.69-2.21-2.55-4.24-3.82l.18-.31Zm18.49,1.48c-1.3,2.44-2.89,4.5-5.46,6.99-2.39,2.31-4,3.61-7.31,5.93-1.22,.86-1.35,.96-1.53,1.2-.42,.49-.57,.62-.91,.62-1.07,0-3.04-2.5-3.04-3.82,0-.16,.03-.26,.13-.52,.52,.78,.57,.83,.94,1.14,.39,.36,.75,.55,1.04,.55,.44,0,1.25-.34,2.52-1.09,2.91-1.69,3.93-2.42,6.21-4.29,3.2-2.6,4.76-4.19,6.99-6.94l.42,.23Z" fill="#42210b"/><path d="M6.24,108.94c-.31,.36-.39,.47-.86,1.01,2.29,.73,2.68,.96,2.68,1.59,0,.57-.26,1.07-.52,1.07-.16,0-.29-.1-.44-.36-.44-.65-1.14-1.35-1.98-1.98-.7,.78-1.14,1.2-1.79,1.82,2.05,.65,2.65,1.01,2.65,1.77,0,.62-.21,1.07-.49,1.07-.13,0-.21-.08-.39-.39-.39-.62-1.07-1.33-2.11-2.16-.7,.62-1.14,.94-2.29,1.69l-.26-.31c1.66-1.46,2.86-2.89,4.32-5.12,.86-1.33,1.22-2,1.64-3.17,1.74,.55,2.52,.86,2.52,1.04,0,.26-.42,.39-1.27,.42-.44,.73-.6,.96-.96,1.43h3.82l.86-1.07c.65,.47,.86,.62,1.43,1.07,.21,.18,.31,.31,.31,.44,0,.23-.23,.39-.88,.52-1.64,2.86-3.09,4.63-5.23,6.47-1.77,1.53-3.38,2.52-6.21,3.9l-.23-.34c2.7-1.66,4.26-2.91,6.01-4.78,1.77-1.92,2.91-3.54,3.95-5.62H6.24ZM1.04,127.82c2.11-1.53,3.15-2.47,4.52-4.13,.99-1.2,1.3-1.64,1.61-2.34q2.65,1.17,2.65,1.38c0,.16-.26,.29-.6,.29-.21,0-.47-.03-.75-.05-2.63,2.65-4.16,3.74-7.15,5.2l-.29-.34Zm4.24-7.59c-.6,0-1.12,.03-2.29,.16l-.16-.96c.94,.16,1.66,.21,2.65,.21h13.13q.78-.81,1.51-1.59c.99,.73,1.3,.96,2.26,1.74,.08,.1,.16,.21,.16,.23,0,.1-.13,.21-.29,.21H13.49v4c0,.31,0,.7,.03,1.09,.03,.68,.03,1.07,.03,1.27v.68c-.05,.7-.23,1.01-.81,1.33-.47,.26-1.01,.39-2.24,.52-.08-.65-.23-.99-.65-1.3-.39-.29-.62-.34-2.52-.62v-.39c2.08,.13,2.7,.16,3.38,.16h.65c.34-.03,.36-.05,.36-.44v-6.29H5.28Zm8.92-4.42c.57-.62,.75-.83,1.35-1.46,.83,.7,1.09,.91,1.95,1.69,.05,.08,.1,.16,.1,.18,0,.1-.13,.18-.29,.18h-7.62c-.68,0-1.01,.03-1.74,.1l-.18-.94c.65,.16,1.4,.23,2.03,.23h4.39Zm-.83-9.02c.96,2.6,2.05,4.34,3.8,6.06,1.25-1.3,2-2.44,2.81-4.29h-3.48c-.62,0-.94,.03-1.61,.1l-.21-.91c.68,.18,.94,.21,1.92,.21h3.38c.49-.49,.65-.65,1.14-1.17,.81,.62,1.04,.83,1.79,1.46,.23,.18,.34,.31,.34,.39,0,.23-.29,.36-1.2,.47-1.17,1.33-2.47,2.52-4.45,4.13,1.85,1.66,4.06,2.81,6.99,3.64l-.08,.26c-1.25,.1-1.69,.39-2.26,1.46-2.47-1.3-3.95-2.5-5.62-4.47-1.74-2.08-2.52-3.59-3.72-7.23l.44-.1Zm2.18,14.87c1.9,.75,3.17,1.4,5.49,2.81,1.01,.62,1.25,.96,1.25,1.9,0,.88-.29,1.61-.62,1.61-.18,0-.31-.13-.75-.68-1.53-2-3.46-3.82-5.67-5.3l.31-.34Z" fill="#42210b"/><path d="M5.56,141.62l1.01-1.38c.7,.68,.91,.88,1.56,1.59,.1,.1,.16,.18,.16,.23,0,.1-.1,.16-.26,.16h-2.94v8.03c1.74-.62,3.04-1.09,3.93-1.43l.13,.39c-2,1.2-5.62,3.17-7.28,3.98-.08,.99-.16,1.27-.39,1.27-.26,0-.52-.57-1.25-2.7,1.17-.29,1.72-.44,3.17-.91v-8.63H1.53c-.55,0-1.01,.05-1.4,.13l-.13-.91c.39,.08,1.14,.18,1.53,.18h1.87v-4.45c0-1.14-.03-1.64-.08-2.63,2.73,.36,2.83,.39,2.83,.68,0,.23-.34,.39-1.07,.55v5.85h.47Zm15.24,14.64c.6-.75,.78-.99,1.33-1.66,1.01,.83,1.33,1.12,2.31,1.95,.03,.08,.08,.13,.08,.16,0,.1-.1,.16-.26,.16H8.27c-.68,0-1.27,.05-1.85,.13l-.16-.94c.81,.16,1.33,.21,2,.21h12.53Zm-.34-19.47c.62-.7,.83-.91,1.4-1.59,1.01,.78,1.35,1.04,2.34,1.85,.05,.08,.08,.13,.08,.18,0,.08-.13,.16-.26,.16H9.39c-.73,0-1.33,.05-2,.18l-.16-.99c.78,.13,1.48,.21,2.16,.21h5.07v-.91c0-.55-.03-.96-.1-1.79,2.16,.26,2.29,.26,2.5,.34s.31,.16,.31,.29c0,.23-.29,.36-1.01,.52v1.56h4.32Zm1.87,7.05c0,1.01,.03,1.59,.1,3.02-.05,.34-.31,.44-1.27,.44-.29,0-.36-.05-.36-.29v-.42H10.17v.42c-.03,.18-.1,.23-.29,.29-.1,0-.91,.08-1.04,.08-.21,0-.31-.08-.31-.26v-.1c.03-1.69,.05-3.59,.05-5.59,0-1.43-.03-2.13-.1-3.22,.88,.36,1.14,.49,1.92,1.01h10.14c.36-.44,.49-.57,.91-.99,.62,.42,.81,.55,1.35,.99,.13,.13,.21,.23,.21,.31,0,.18-.16,.31-.65,.57l-.03,3.74Zm-3.3,4.45c.42-.42,.55-.52,.96-.88,.55,.39,.7,.49,1.2,.91,.18,.18,.26,.29,.26,.39,0,.16-.13,.29-.65,.65v1.9c0,.88,0,1.69,.08,3.59-.03,.23-.08,.31-.26,.36-.13,.03-.83,.1-1.12,.1-.16,0-.21-.05-.26-.18v-.65h-7.46v.65c-.03,.23-.23,.29-1.2,.29-.34,0-.44-.08-.44-.31,.03-1.04,.1-5.04,.1-5.8,0-.55-.03-1.04-.1-1.9,.81,.31,1.04,.44,1.79,.88h7.1Zm-8.87-8.48v6.19h10.63v-6.19H10.17Zm9.07,9.07h-7.46v2.13h7.46v-2.13Zm-7.46,2.73v2.26h7.46v-2.26h-7.46Zm5.38-10.19c.29-.36,.39-.47,.73-.81,.49,.36,.62,.47,1.09,.86,.16,.13,.23,.23,.23,.31,0,.16-.16,.29-.6,.49v.91c0,.44,0,.81,.03,1.56-.03,.18-.05,.23-.18,.26-.13,.05-.7,.13-.91,.13s-.31-.1-.31-.31v-.55h-3.74v.55c-.03,.31-.26,.39-1.22,.39-.18,0-.26-.08-.26-.21v-.05q.05-1.98,.05-2.29c0-.16-.03-.62-.03-1.27l-.03-.83c.73,.36,.96,.47,1.59,.86h3.56Zm-3.67,2.34h3.74v-1.82h-3.74v1.82Z" fill="#42210b"/></g></g></svg>