<?xml version="1.0" encoding="UTF-8"?><svg xmlns="http://www.w3.org/2000/svg" viewBox="0 0 459.8 36.63"><g id="a"/><g id="b"><g id="c"><g><path d="M13.8,17.29c2.4,2.46,6.11,4.61,9.22,5.54-.24,.32-.49,.82-.64,1.19-3.12-1.12-6.8-3.27-8.93-5.41-1.18,2.51-3.82,5.68-6.72,7.92-.21-.25-.61-.63-.94-.87,2.98-2.18,5.65-5.52,6.77-8.19,.49-.08,.74-.11,1.23-.19Zm-4.6,10.55c4.48-.7,6.72-1.04,11.2-1.7,.44,2.98,.66,4.47,1.1,7.44-.49,.07-.74,.11-1.24,.18l-.11-.77c-3.49,.52-5.23,.78-8.71,1.33l.12,.77c-.48,.07-.72,.11-1.2,.19-.46-2.97-.7-4.46-1.16-7.43Zm9.71-5.11l.17,1.13c-3.73,.56-5.6,.84-9.32,1.42l-.18-1.13c3.73-.58,5.6-.86,9.33-1.42Zm-8.33,6.05c.27,1.76,.41,2.65,.69,4.41,3.49-.54,5.23-.81,8.72-1.33-.26-1.77-.39-2.65-.66-4.42-3.5,.52-5.25,.79-8.75,1.33Z"/><path d="M43.57,28.83c.11,.81-.07,1.23-.55,1.51-.52,.3-2.56,.93-3.02,.65-.11-.07-.38-.85-.63-1.16,1.21-.13,2.28-.27,2.59-.33,.33-.06,.45-.19,.4-.51-.71-5.34-1.06-8.01-1.77-13.35-5.14,.68-7.71,1.04-12.85,1.77,.85,6,1.28,9.01,2.13,15.01-.48,.07-.72,.1-1.2,.17-.93-6.47-1.39-9.72-2.31-16.19,6.11-.87,9.17-1.29,15.29-2.1,.77,5.82,1.15,8.73,1.92,14.54Zm-4.21-9.79c-3.78,.51-5.67,.77-9.45,1.3-.06-.44-.09-.65-.15-1.09,3.78-.53,5.67-.79,9.45-1.3,.06,.44,.09,.66,.15,1.09Zm-6.23,8.94c.08,.56,.12,.84,.19,1.39-.46,.06-.69,.1-1.15,.16-.41-2.91-.61-4.37-1.02-7.28,2.98-.42,4.46-.62,7.44-1.02,.32,2.36,.48,3.54,.79,5.89-2.51,.34-3.76,.51-6.26,.86Zm-.67-4.82c.21,1.5,.31,2.25,.52,3.74,2.05-.28,3.07-.43,5.12-.7-.2-1.5-.3-2.25-.51-3.75-2.05,.28-3.08,.42-5.13,.71Z"/><path d="M64.45,24.21c-1.81,.21-2.72,.32-4.53,.54,.17,1.46,.26,2.18,.44,3.64-.5,.06-.74,.09-1.24,.15-.18-1.46-.26-2.18-.44-3.64-2.09,.25-3.13,.38-5.21,.64-.04,1.5-.83,2.99-4.09,4.25-.18-.23-.61-.63-.86-.83,2.82-1.03,3.62-2.16,3.74-3.27-1.81,.23-2.72,.34-4.52,.58l-.14-1.09c1.86-.24,2.78-.36,4.64-.59-.08-.63-.12-.94-.2-1.56,.47-.06,.7-.09,1.17-.15l.19,1.56c2.06-.26,3.08-.38,5.14-.63l-.19-1.57c.5-.06,.75-.09,1.25-.15l.19,1.57c1.81-.22,2.72-.32,4.53-.54,.05,.44,.08,.66,.13,1.09Zm-9.09-6.24c-.61,2.56-2.75,4.64-6.69,6.05-.16-.25-.49-.61-.74-.8,1.57-.53,2.87-1.17,3.86-1.89-.62-.42-1.49-.87-2.29-1.2-.5,.39-.99,.72-1.49,1.03-.18-.19-.58-.56-.85-.71,1.47-.8,2.88-1.86,3.77-3.12-1.45,.18-2.17,.27-3.62,.46l-.13-1.02c6.26-.8,9.4-1.19,15.67-1.92l.12,1.02c-2.38,.28-3.57,.42-5.95,.71l.24,2.02c1.57-.59,3.21-1.29,4.14-1.89,.41,.25,.61,.38,1.02,.63-1.33,.79-3.29,1.56-5.06,2.14l.13,1.09c.06,.49,.24,.55,1.13,.44,1.29-.16,1.94-.23,3.24-.39,.65-.08,.76-.26,.67-1.53,.28,.16,.75,.26,1.09,.29,.04,1.64-.26,2.1-1.53,2.25-1.37,.16-2.05,.24-3.42,.41-1.67,.2-2.16-.04-2.31-1.33-.19-1.59-.29-2.39-.49-3.98-1.46,.18-2.19,.27-3.66,.45-.2,.35-.44,.69-.72,1.03,1.17-.15,1.76-.22,2.93-.36,.09-.03,.13-.05,.22-.08,.29,.09,.44,.14,.73,.24Zm-4.4-3.49c-1.78,.22-2.67,.34-4.45,.57-.05-.42-.08-.63-.14-1.05,1.78-.23,2.67-.34,4.45-.57l-.16-1.3c.49-.06,.74-.09,1.24-.15l.16,1.3c2.01-.25,3.01-.37,5.01-.62-.06-.52-.09-.78-.16-1.3,.49-.06,.73-.09,1.22-.15l.16,1.3c1.84-.22,2.76-.33,4.6-.55l.12,1.06c-1.84,.22-2.76,.32-4.6,.55,.07,.54,.1,.81,.16,1.36-.49,.06-.73,.09-1.21,.15l-.16-1.36c-2,.24-3.01,.37-5.01,.62,.07,.54,.1,.81,.17,1.36-.49,.06-.74,.09-1.23,.15-.07-.54-.1-.81-.17-1.36Zm-.36,4.68c-.12,.13-.25,.24-.39,.36,.82,.34,1.74,.78,2.36,1.16,.66-.6,1.13-1.25,1.42-1.94-1.36,.17-2.03,.25-3.39,.42Z"/><path d="M77.37,25.53c-.36-.47-.54-.7-.89-1.16,.57-.12,1.14-.26,1.55-.4,2.32-.8,4.56-2.87,4.21-6.23-.3-2.87-2.44-5.14-5.78-5.02-.05,1.82-.19,3.82-.53,5.64-.72,4.01-1.97,6.1-3.62,6.28-1.58,.18-3.44-1.49-3.79-4.6-.46-4.04,2.73-8,7.24-8.49,4.34-.47,7.43,2.35,7.82,6.11,.41,3.97-1.92,6.84-6.22,7.87Zm-5.17-2.43c.87-.1,1.79-1.48,2.4-4.91,.31-1.66,.48-3.53,.48-5.31-3.62,.81-5.58,4.25-5.28,6.91,.28,2.45,1.53,3.4,2.4,3.31Z"/><path d="M94.1,18.42c-1.81,1.15-3.74,2.35-5.2,3.26-.24-.47-.36-.71-.61-1.18,.68-.37,1.53-.86,2.45-1.41-.24-2.41-.35-3.62-.59-6.03-.9,.09-1.35,.13-2.24,.22-.05-.48-.07-.73-.12-1.21,.9-.09,1.35-.13,2.24-.22l-.39-3.93c.47-.05,.7-.07,1.16-.11l.38,3.93c.83-.08,1.25-.12,2.08-.2l.12,1.21c-.83,.08-1.25,.12-2.08,.2,.21,2.19,.32,3.29,.53,5.48,.75-.44,1.12-.66,1.87-1.1,.15,.44,.23,.65,.39,1.09Zm3.21-2.46c-.2,.51-.45,1-.73,1.48,3.24-.3,4.86-.45,8.11-.74,0,0,.01,.34,0,.54,.07,3.96-.1,5.46-.57,6.04-.23,.35-.56,.48-.98,.55-.38,.06-1.09,.12-1.82,.15-.05-.3-.2-.74-.39-1.01,.73,0,1.36-.05,1.62-.07,.28-.02,.44-.06,.56-.24,.3-.37,.47-1.62,.46-4.77-.63,.06-.95,.08-1.58,.14-.54,2.38-1.78,4.97-3.28,6.35-.21-.25-.63-.5-.96-.64,1.44-1.2,2.62-3.45,3.2-5.62-.77,.07-1.16,.11-1.94,.18-.81,2.06-2.43,4.33-4.05,5.61-.23-.24-.59-.53-.91-.71,1.49-1.02,2.98-2.94,3.83-4.79-.8,.07-1.21,.11-2.01,.19-.66,.94-1.45,1.78-2.25,2.45-.19-.17-.67-.55-.93-.69,1.4-1.07,2.65-2.58,3.39-4.25-1.08,.1-1.62,.15-2.7,.26l-.1-1.08c4.67-.45,7.01-.66,11.69-1.07l.09,1.08c-3.09,.27-4.64,.41-7.72,.7Zm6.19-2.79c-3.39,.3-5.09,.46-8.48,.78-.23-2.42-.34-3.63-.57-6.05,3.41-.32,5.11-.48,8.52-.78,.21,2.42,.32,3.63,.54,6.06Zm-1.61-4.99c-2.49,.22-3.74,.34-6.23,.57l.15,1.61c2.49-.23,3.73-.35,6.22-.57l-.14-1.61Zm.22,2.52c-2.49,.22-3.73,.34-6.22,.57,.06,.65,.09,.98,.15,1.63,2.48-.23,3.72-.35,6.21-.57l-.15-1.63Z"/><path d="M116.87,5.42c2.21,2.63,5.75,5.04,8.78,6.19-.26,.3-.54,.78-.72,1.14-3.03-1.34-6.53-3.75-8.51-6.04-1.36,2.41-4.21,5.39-7.25,7.42-.19-.27-.57-.68-.87-.94,3.13-1.96,6.02-5.09,7.33-7.68,.5-.04,.74-.06,1.24-.1Zm-5.34,10.19c4.51-.37,6.76-.55,11.27-.89,.23,3,.34,4.5,.56,7.5-.5,.04-.75,.06-1.24,.09l-.06-.78c-3.51,.27-5.26,.41-8.77,.69l.06,.78c-.48,.04-.72,.06-1.21,.1-.25-3-.37-4.5-.62-7.5Zm10.03-4.4l.09,1.14c-3.75,.28-5.63,.43-9.38,.74l-.09-1.14c3.76-.31,5.63-.46,9.39-.74Zm-8.72,5.43c.15,1.78,.22,2.67,.37,4.45,3.51-.29,5.26-.43,8.77-.69-.14-1.78-.2-2.67-.34-4.45-3.52,.27-5.28,.41-8.8,.7Z"/><path d="M129.54,17.1c.41-.42,.61-.63,1.01-1.04,1.42,1.01,3.19,2.6,4.48,3.94-.43,.42-.64,.64-1.07,1.06-1.31-1.45-3.02-2.95-4.42-3.96Z"/><path d="M153.36,15.59c.08,1.52,1.62,2.44,4.66,2.29,2.59-.13,4.98-.53,6.31-1.05,.03,.57,.05,.85,.08,1.42-1.27,.44-3.63,.85-6.29,.99-3.7,.19-5.96-.94-6.09-3.28-.05-.97,.1-1.87,.25-2.64,.54,.02,.81,.04,1.35,.06-.22,.77-.31,1.5-.28,2.2Zm4.2-9.77c1.8-.09,3.65-.31,5-.51l.07,1.39c-1.27,.14-3.27,.38-4.98,.47-1.88,.09-3.47,.08-4.94,.05l-.07-1.38c1.34,.1,3.07,.08,4.93,0Zm7.11-.11c-.37,.19-.55,.29-.92,.48-.41-.76-1.1-1.89-1.66-2.57,.36-.18,.54-.26,.9-.44,.5,.64,1.25,1.77,1.68,2.53Zm2.05-.85c-.37,.18-.55,.28-.92,.46-.45-.8-1.12-1.85-1.7-2.55,.36-.18,.54-.26,.9-.44,.54,.68,1.31,1.84,1.71,2.53Z"/><path d="M174.13,15.63c.97,1.41,2.7,1.99,4.93,2,2.02,0,6.29-.17,8.45-.39-.14,.29-.31,.85-.35,1.23-2.03,.14-5.99,.31-8.04,.3-2.46,0-4.21-.62-5.43-2.08-.81,.85-1.63,1.72-2.51,2.59-.28-.46-.42-.69-.7-1.15,.76-.64,1.67-1.5,2.48-2.33-.08-2.03-.12-3.05-.2-5.09-.97,.04-1.46,.06-2.43,.1l-.05-1.2c1.45-.06,2.17-.09,3.61-.15,.1,2.46,.14,3.69,.24,6.15Zm-.79-9.23c-.58-.93-1.91-2.21-3.12-3.07,.37-.3,.56-.45,.93-.74,1.2,.83,2.55,2.08,3.17,2.99-.39,.33-.59,.49-.98,.82Zm13.63,.97c-4.97,.15-7.46,.23-12.43,.43l-.04-.91c2.19-.08,3.29-.12,5.48-.2-.01-.38-.02-.57-.03-.95-1.61,.06-2.42,.09-4.04,.15-.04-1.14-.06-1.71-.11-2.85,1.62-.06,2.43-.09,4.04-.15l-.04-1.08c.47-.02,.71-.02,1.19-.04,.01,.43,.02,.65,.04,1.08,1.69-.06,2.54-.09,4.23-.14,.04,1.14,.05,1.71,.09,2.85-1.69,.05-2.53,.08-4.22,.14l.03,.95c2.31-.08,3.47-.12,5.78-.18,.01,.36,.02,.55,.03,.91Zm-6.87,7.52c-.92,.91-2.36,1.83-3.55,2.41-.21-.16-.67-.54-.94-.71,1.23-.52,2.58-1.27,3.4-2.03,.44,.13,.66,.19,1.09,.32Zm5.66,1.98c-.91-.56-2.47-1.29-3.92-1.85,.28-.24,.43-.36,.71-.59-2.46,.08-3.69,.13-6.16,.22-.09-2.4-.14-3.6-.23-6,3.66-.14,5.5-.2,9.16-.31,.07,2.4,.11,3.6,.19,6-1.1,.03-1.66,.05-2.76,.09,1.46,.56,3.08,1.27,4.05,1.83-.42,.25-.63,.37-1.04,.62Zm-5.84-11.93l-.04-1.23c-1.16,.04-1.74,.06-2.89,.1,.02,.49,.03,.74,.05,1.23,1.16-.04,1.74-.06,2.89-.1Zm-2.53,5.39c2.72-.1,4.08-.15,6.79-.23-.01-.39-.02-.58-.03-.97-2.72,.09-4.08,.13-6.8,.23l.04,.97Zm.06,1.75c2.71-.1,4.07-.15,6.78-.23l-.03-1.01c-2.72,.09-4.07,.13-6.79,.23l.04,1.01Zm.06,1.77c2.71-.1,4.07-.15,6.78-.23l-.03-1.03c-2.71,.09-4.07,.13-6.78,.23l.04,1.03Zm3.54-10.18l.04,1.23c1.21-.04,1.81-.06,3.02-.1l-.04-1.23c-1.21,.04-1.82,.06-3.03,.1Z"/><path d="M197.83,8.42s0,.44-.02,.63c-.09,6.18-.26,8.29-.79,8.97-.29,.41-.61,.54-1.07,.59-.42,.05-1.13,.07-1.84,.05-.03-.34-.17-.85-.36-1.15,.73,.04,1.4,.02,1.68,.02,.28,0,.43-.03,.57-.24,.34-.48,.56-2.39,.62-7.65-1.04,.02-1.56,.04-2.6,.06-.15,3.6-.69,6.9-2.27,9.05-.21-.24-.65-.61-.95-.77,1.99-2.68,2.13-7.52,2.11-12.2-.86,.02-1.3,.03-2.16,.06l-.03-1.18c1.37-.04,2.06-.06,3.44-.09-.03-1.25-.05-1.88-.08-3.13,.48-.01,.72-.02,1.2-.03,.03,1.25,.05,1.88,.08,3.13,1.2-.03,1.8-.04,3.01-.07l.03,1.18c-1.73,.04-2.59,.06-4.32,.1,0,.93,0,1.86,0,2.77,1.51-.04,2.26-.06,3.77-.09Zm2.4-3.49c-.49,1.02-1.05,1.92-1.61,2.64-.23-.19-.74-.52-1.03-.68,1.24-1.4,2.23-3.51,2.79-5.68,.45,.1,.68,.15,1.13,.24-.21,.78-.48,1.57-.78,2.31,2.74-.06,4.11-.08,6.84-.12l.02,1.16c-2.95,.05-4.42,.07-7.36,.13Zm3.84,7.75c.75,2.17,2.2,3.95,4.14,4.72-.26,.23-.6,.67-.79,.98-1.84-.86-3.21-2.55-4.03-4.68-.51,1.68-1.73,3.45-4.43,4.88-.17-.26-.55-.65-.82-.86,3-1.47,3.99-3.33,4.3-5.01-1.55,.03-2.33,.05-3.89,.08l-.02-1.14c1.62-.04,2.42-.05,4.04-.08,.01-.29,0-.55,0-.8l-.04-2.15c-.65,.01-.98,.02-1.63,.03-.36,.86-.77,1.63-1.23,2.25-.23-.19-.74-.5-1.02-.64,.98-1.22,1.68-3.04,2.05-4.87,.47,.09,.7,.13,1.17,.22-.16,.65-.33,1.28-.54,1.89,2.4-.05,3.6-.07,6-.11l.02,1.14c-1.45,.02-2.18,.04-3.63,.06l.04,2.17c0,.25,0,.51,0,.78,1.58-.03,2.37-.04,3.94-.07l.02,1.14c-1.46,.02-2.19,.03-3.64,.06Z"/><path d="M218.15,3.15c-.09,.55-.27,1.77-.48,2.85,.94-.08,1.74-.15,2.21-.15,1.61-.01,2.99,.59,3,3.12,.01,2.26-.32,5.3-1.05,6.84-.58,1.24-1.48,1.57-2.65,1.57-.71,0-1.6-.12-2.18-.25-.09-.57-.14-.85-.24-1.42,.8,.24,1.77,.36,2.3,.36,.69,0,1.28-.15,1.67-1.02,.58-1.31,.87-3.82,.86-5.91-.01-1.79-.82-2.1-2.02-2.1-.49,0-1.29,.07-2.16,.15-.65,2.74-1.9,6.99-3.86,10.28-.54-.21-.81-.32-1.35-.53,1.89-2.63,3.26-7.07,3.86-9.6-1.03,.12-2.01,.22-2.51,.29-.41,.06-1.14,.15-1.61,.23-.07-.59-.1-.89-.17-1.48,.58,.03,1.03,0,1.61-.02,.64-.03,1.76-.13,2.94-.24,.27-1.37,.46-2.87,.45-4.17,.63,.06,.94,.08,1.56,.14-.07,.32-.14,.71-.2,1.05Zm10.14,7.86c-.52,.25-.77,.38-1.29,.63-.56-1.92-2.07-5.2-3.39-6.75,.49-.22,.73-.33,1.22-.56,1.17,1.52,2.83,4.93,3.46,6.68Zm-1.6-6.85c-.38,.17-.56,.25-.94,.42-.38-.76-1.02-1.92-1.55-2.64,.37-.16,.55-.24,.92-.4,.47,.68,1.17,1.84,1.57,2.62Zm2.09-.76c-.38,.17-.56,.25-.94,.42-.41-.84-1.02-1.92-1.57-2.62,.36-.16,.54-.24,.9-.4,.51,.7,1.23,1.88,1.6,2.6Z"/><path d="M239.86,12.83c-2.6,1.2-5.46,2.46-7.5,3.37-.18-.52-.27-.78-.44-1.29,.73-.28,1.61-.66,2.58-1.08-.1-4.76-.16-7.14-.26-11.89,.5-.01,.76-.02,1.26-.03,.1,4.56,.14,6.84,.24,11.4,1.23-.55,2.56-1.13,3.86-1.71,.11,.49,.16,.74,.27,1.24Zm8.22,5.46c-.86-1.34-2.62-3.41-4.23-5.16-1.48,2.27-3.58,3.94-6.56,5.17-.17-.25-.68-.82-.96-1.09,6.49-2.36,8.52-6.95,9.46-15.24,.54,.06,.81,.09,1.35,.15-.5,4.12-1.27,7.34-2.62,9.89,1.68,1.73,3.65,3.92,4.62,5.3-.42,.39-.63,.58-1.06,.97Zm-7.13-9.76c-.48-1.31-1.68-3.26-2.86-4.65,.43-.22,.64-.33,1.07-.54,1.25,1.4,2.44,3.27,2.95,4.54-.47,.26-.7,.39-1.17,.66Z"/><path d="M261.54,3.93l-.08,3.44c.08-.1,.13-.15,.21-.24,2.26,1.17,5.16,2.95,6.62,4.13-.36,.45-.53,.67-.89,1.12-1.28-1.12-3.82-2.78-5.97-3.98-.09,4.06-.13,6.1-.22,10.16-.52-.01-.78-.02-1.3-.03,.12-5.85,.19-8.77,.31-14.62-2.91-.06-4.36-.09-7.27-.14,0-.5,.01-.75,.02-1.25,6.64,.11,9.97,.18,16.61,.36-.01,.5-.02,.75-.03,1.25-3.2-.09-4.8-.13-8.01-.2Z"/><path d="M281.97,18.28c-.29-.51-.43-.77-.72-1.28,.58-.04,1.16-.09,1.59-.17,2.4-.46,4.92-2.18,5.06-5.56,.12-2.89-1.68-5.43-4.99-5.8-.31,1.79-.74,3.76-1.33,5.5-1.28,3.87-2.82,5.75-4.48,5.7-1.58-.05-3.18-1.96-3.09-5.1,.13-4.06,3.84-7.52,8.37-7.36,4.36,.16,7.01,3.39,6.85,7.17-.17,3.99-2.88,6.49-7.28,6.9Zm-4.76-3.15c.88,.03,1.98-1.21,3.07-4.51,.54-1.6,.98-3.42,1.24-5.18-3.7,.29-6.12,3.4-6.21,6.08-.08,2.47,1.03,3.59,1.9,3.62Z"/><path d="M300.34,17.93c-1.57,.76-3.95,1.44-5.81,1.82-.19-.26-.58-.75-.85-.99,1.91-.28,4.17-.78,5.57-1.39,.44,.23,.66,.34,1.09,.57Zm-3.94-7.05c-.51,.15-1.1,.25-1.74,.36-.1-.29-.32-.77-.54-1.01,2.51-.38,3.93-.98,4.73-1.72-1.08-.05-1.62-.08-2.7-.13l-.1,.24c-.46-.05-.69-.08-1.16-.13,.43-.82,.88-1.96,1.22-2.93,1.51,.07,2.26,.11,3.77,.18,.02-.46,.03-.68,.06-1.14-1.86-.09-2.78-.13-4.64-.22l.04-.87c1.86,.08,2.79,.13,4.64,.22l.05-1.08c.46,.02,.69,.03,1.15,.06l-.05,1.08c1.22,.06,1.83,.09,3.05,.15,.02-.43,.03-.65,.06-1.08,.47,.02,.71,.04,1.19,.06l-.06,1.08c1.68,.09,2.53,.13,4.21,.23-.06,1.15-.1,1.72-.16,2.86-1.68-.09-2.52-.14-4.2-.23-.02,.42-.03,.64-.06,1.06,2.16,.11,3.24,.17,5.4,.29,0,0-.03,.28-.06,.43-.2,1.15-.37,1.69-.65,1.94-.24,.21-.52,.29-.9,.29l-.47-.03c-.15,2.69-.22,4.03-.37,6.71-4.8-.26-7.2-.39-11.99-.61,.11-2.44,.17-3.65,.28-6.09Zm3.1-3.24c.17-.33,.26-.69,.31-1.05-1.14-.06-1.71-.08-2.85-.14-.13,.36-.28,.71-.42,1.04,1.19,.05,1.78,.08,2.96,.14Zm7.72,3.63c-3.84-.21-5.76-.31-9.6-.49-.02,.5-.04,.75-.06,1.25,3.84,.18,5.75,.28,9.59,.49l.07-1.25Zm-.11,2.07c-3.83-.21-5.75-.3-9.58-.49-.02,.49-.03,.73-.06,1.21,3.83,.18,5.75,.28,9.58,.49,.03-.49,.04-.73,.07-1.21Zm-.11,2.05c-3.83-.21-5.74-.3-9.57-.49l-.06,1.27c3.82,.18,5.74,.28,9.56,.49l.07-1.27Zm-6.66-6.81c-.34,.53-.84,1.01-1.57,1.43,3.42,.16,5.13,.25,8.55,.44-.05-.19-.11-.41-.18-.54,.58,.07,1.15,.11,1.33,.11,.21,0,.36,.02,.45-.07,.12-.11,.23-.37,.31-.9-1.65-.09-2.47-.14-4.12-.22-.03,.57-.04,.85-.07,1.42-.47-.02-.71-.04-1.18-.06,.03-.57,.04-.85,.07-1.42-1.44-.07-2.16-.11-3.6-.18Zm3.7-1.77c-1.22-.06-1.84-.09-3.06-.16-.06,.36-.11,.72-.22,1.05,1.29,.06,1.94,.1,3.22,.16,.02-.42,.03-.64,.05-1.06Zm-3-1.01c1.22,.06,1.82,.09,3.04,.15,.02-.46,.04-.68,.06-1.14-1.22-.06-1.83-.09-3.04-.15-.02,.46-.03,.68-.06,1.14Zm3.5,11.86c2.04,.66,4.23,1.54,5.57,2.17-.54,.24-.82,.36-1.36,.61-1.16-.62-3.17-1.43-5.24-2.16,.41-.25,.61-.37,1.02-.61Zm.78-12.78l-.06,1.14c1.23,.06,1.85,.1,3.08,.17,.02-.46,.04-.68,.06-1.14-1.23-.07-1.85-.1-3.08-.17Z"/><path d="M329.5,19.93c-.06,.87-.33,1.25-.92,1.42-.63,.18-3.09,.34-3.45-.03-.08-.08-.18-.89-.35-1.24,1.34,.15,2.6,.21,2.97,.22,.35,0,.49-.1,.52-.46,.11-1.61,.17-2.42,.28-4.04-2.08-.14-3.12-.21-5.2-.35-.15,2.27-.22,3.4-.37,5.67-.49-.03-.74-.05-1.23-.08,.15-2.27,.22-3.4,.37-5.67-1.92-.12-2.89-.19-4.81-.3-.41,2.11-1.16,4.23-2.71,5.79-.15-.26-.61-.72-.88-.89,2.18-2.23,2.59-5.55,2.76-8.23,.17-2.73,.25-4.1,.41-6.83,5.44,.33,8.16,.51,13.6,.89-.4,5.65-.59,8.47-.99,14.12Zm-7.31-5.75c.09-1.33,.13-1.99,.21-3.32-1.86-.12-2.78-.18-4.64-.29-.03,.5-.05,.75-.08,1.25-.04,.66-.1,1.34-.2,2.06,1.88,.12,2.82,.17,4.7,.3Zm-4.16-7.99l-.2,3.2c1.86,.11,2.79,.17,4.64,.29,.08-1.28,.12-1.92,.21-3.2-1.86-.12-2.79-.18-4.65-.29Zm11.13,.73c-2.09-.15-3.14-.22-5.24-.35-.08,1.28-.13,1.92-.21,3.2,2.09,.14,3.14,.21,5.22,.35,.09-1.28,.13-1.92,.22-3.2Zm-.53,7.69c.09-1.33,.14-1.99,.23-3.32-2.09-.14-3.13-.22-5.22-.35-.09,1.33-.13,1.99-.22,3.32,2.08,.14,3.13,.21,5.21,.35Z"/><path d="M342.43,8.49c1.94,.08,4.03,.05,5.84-.12-.04,.5-.06,.75-.1,1.25-1.9,.15-5.48-.43-6.28,.03-.47,.27-1.3,2.13-2.06,2.98,.8-.43,1.91-.63,2.75-.57,1.23,.1,2.18,.8,2.34,1.98,1.4-.55,2.65-.93,3.7-1.32,.54-.2,.99-.36,1.5-.58,.17,.53,.26,.79,.44,1.31-.46,.09-1.1,.29-1.6,.44-1.12,.34-2.57,.8-4.08,1.38-.07,1.1-.18,2.75-.24,3.7-.51-.04-.77-.06-1.28-.1,.1-.75,.22-2.06,.3-3.08-1.87,.82-3.23,1.77-3.34,3.07-.12,1.55,1.39,1.9,3.32,2.05,1.43,.11,3.43,.11,5.09-.04-.07,.54-.1,.81-.17,1.36-1.44,.07-3.48,.04-5.08-.09-2.6-.21-4.67-.92-4.5-3.19,.17-2.22,2.46-3.43,4.75-4.41-.08-.88-.76-1.34-1.66-1.41-1.21-.1-2.44,.4-3.38,1.13-.58,.47-1.16,1.13-1.85,1.84-.43-.38-.64-.56-1.07-.94,2.62-2.22,4.01-4.14,4.79-5.58-.3-.02-.62-.05-.9-.07-.81-.06-2.02-.19-3.07-.33,.04-.52,.06-.77,.1-1.29,1,.21,2.29,.38,3.13,.45,.41,.03,.84,.06,1.29,.08,.35-.81,.58-1.67,.68-2.37,.54,.09,.82,.13,1.36,.22-.16,.58-.37,1.32-.74,2.21Z"/><path d="M358.29,11.84c-.48,.34-.98,.64-1.52,.93-.2-.3-.57-.76-.86-.97,2.56-1.28,4.54-3.22,5.63-4.81,.55,.16,.82,.24,1.36,.39-.26,.36-.54,.71-.86,1.07,1.88,.17,2.81,.26,4.69,.44,.08-.02,.12-.02,.19-.04,.32,.25,.47,.38,.79,.63-.51,.75-1.21,1.56-1.91,2.22,1.92,.18,2.87,.28,4.79,.46-.38,3.87-.57,5.81-.95,9.68-4.86-.48-7.29-.71-12.16-1.14,.32-3.54,.48-5.31,.8-8.85Zm3.44,10.12c-1.57,.79-3.94,1.53-5.79,1.91-.18-.26-.58-.81-.84-1.08,1.88-.27,4.12-.83,5.51-1.51,.45,.27,.67,.41,1.12,.68Zm-.53-12.56c-.56,.58-1.2,1.15-1.89,1.7,2.01,.18,3.02,.28,5.03,.46,.57-.5,1.14-1.13,1.62-1.72-1.9-.18-2.86-.27-4.76-.44Zm8.06,3.68c-3.9-.38-5.86-.56-9.76-.92l-.17,1.85c3.9,.35,5.85,.54,9.75,.92,.07-.74,.11-1.11,.18-1.85Zm-.28,2.84c-3.9-.38-5.84-.56-9.74-.92-.07,.75-.1,1.12-.17,1.87,3.89,.35,5.84,.54,9.73,.92,.07-.75,.11-1.12,.18-1.87Zm-.28,2.87c-3.89-.38-5.83-.56-9.72-.92-.07,.76-.1,1.14-.17,1.89,3.88,.35,5.83,.54,9.71,.91l.18-1.89Zm-2.62,3.03c1.92,.89,3.99,1.97,5.24,2.76-.53,.24-.8,.36-1.33,.59-1.1-.76-3-1.82-4.92-2.73,.41-.25,.61-.38,1.02-.63Z"/><path d="M382.21,18.47c-.79,.16-1.62,.32-2.4,.47-.23,2.18-.35,3.28-.58,5.46-.08,.77-.32,1.07-.77,1.22-.48,.16-2.26,.26-2.51-.01-.07-.08-.14-.85-.25-1.21,.89,.13,1.7,.2,1.93,.22,.26,.03,.36-.06,.39-.32,.21-2.04,.32-3.06,.53-5.1-1.05,.2-1.57,.31-2.61,.51-.1-.5-.15-.75-.25-1.25,.82-.13,1.86-.31,2.99-.51,.18-1.68,.26-2.52,.44-4.19-1.08-.11-1.61-.17-2.69-.28,.05-.47,.07-.7,.12-1.17,1.08,.11,1.62,.17,2.69,.28,.16-1.53,.24-2.3,.4-3.84,.49,.05,.73,.08,1.22,.13-.16,1.53-.24,2.3-.4,3.83,.93,.1,1.39,.15,2.32,.25-.05,.47-.08,.7-.13,1.17-.93-.1-1.39-.15-2.32-.25-.16,1.54-.24,2.31-.41,3.85,.73-.13,1.48-.28,2.23-.43,.02,.47,.03,.7,.04,1.17Zm9.83,7.05c-.05,.48-.08,.71-.14,1.19-4.44-.51-6.66-.75-11.1-1.23,.05-.48,.08-.71,.13-1.19,4.45,.47,6.67,.72,11.11,1.23Zm-1.09-2.69c-3.34-.38-5-.56-8.34-.92,.49-4.54,.73-6.81,1.22-11.35,3.36,.36,5.05,.55,8.41,.93-.52,4.54-.77,6.81-1.29,11.34Zm-.08-10.29c-2.39-.27-3.59-.4-5.99-.66-.17,1.54-.25,2.31-.42,3.85,2.39,.26,3.58,.39,5.97,.66,.17-1.54,.26-2.31,.43-3.85Zm-.57,5.04c-2.39-.27-3.58-.4-5.97-.66-.17,1.58-.26,2.37-.43,3.95,2.38,.26,3.57,.39,5.95,.66,.18-1.58,.27-2.37,.44-3.95Z"/><path d="M402.39,14.24c-.34,2.13-1.03,6.63-1.38,9.53-.25,2.09,.95,3,2.77,3.23,3.46,.43,5.62-1.29,7.2-3.06,.31,.5,.47,.75,.78,1.25-1.51,1.63-4.16,3.66-8.19,3.16-2.59-.32-4.3-1.61-3.93-4.67,.34-2.85,1.11-7.56,1.36-9.61,.08-.66,.12-1.29,.07-1.81,.68,.08,1.02,.12,1.7,.21-.17,.59-.29,1.19-.38,1.77Z"/><path d="M427.47,16.67c-.04,.24-.11,.67-.19,1.22,1.71,.16,3.48,.24,5.19,.19l-.2,1.24c-1.55-.05-3.35-.11-5.15-.28-.11,.83-.24,1.73-.34,2.43l-.05,.34c1.78,.17,3.55,.25,5.3,.23-.07,.5-.11,.76-.18,1.26-1.82,0-3.49-.11-5.27-.3-.11,1.04-.2,2.1-.29,3.05,2.39,1.02,4.12,2.71,5.03,3.7-.37,.43-.56,.65-.93,1.08-.96-1.17-2.39-2.58-4.2-3.53-.05,.53-.1,.96-.14,1.27-.18,1.26-1.14,2.49-3.54,2.16-2.62-.36-3.93-1.47-3.69-3.26,.22-1.68,1.97-2.59,4.61-2.23,.58,.08,1.11,.19,1.63,.36,.09-.91,.2-1.87,.28-2.72-.33-.05-.71-.1-1.06-.15-1.3-.18-3.33-.57-4.65-.9,.06-.51,.09-.76,.15-1.26,1.31,.41,3.4,.82,4.66,1,.35,.05,.69,.09,1.05,.12l.05-.38c.13-.96,.2-1.43,.33-2.39-.28-.02-.58-.06-.86-.1-1.32-.18-3.61-.68-4.75-.97,.06-.51,.09-.76,.15-1.26,1.15,.38,3.47,.89,4.74,1.06,.3,.04,.58,.08,.88,.12,.08-.56,.12-.84,.19-1.39,.04-.32,.1-.89,.1-1.12,.56,.08,.84,.12,1.4,.19-.08,.31-.18,.68-.27,1.23Zm-4.93,12.86c1.07,.15,2.06-.06,2.25-1.42,.05-.36,.11-.83,.17-1.36-.58-.19-1.18-.35-1.81-.44-1.85-.25-2.95,.35-3.08,1.25-.12,.9,.54,1.7,2.47,1.96Z"/><path d="M449.04,19.71c-.06,.31-.14,.79-.23,1.35,.13,.02,.26,.04,.39,.06,2.33,.36,4.54,.73,5.38,.86-.08,.5-.12,.74-.2,1.24-1.01-.22-2.66-.52-5.38-.94-.13-.02-.24-.04-.37-.06-.17,1.11-.34,2.29-.45,3.18,.28,.68,.36,1.52,.21,2.44-.39,2.55-2.01,5.14-6.47,5.79-.38-.5-.57-.75-.94-1.26,2.64-.24,4.51-1.1,5.48-2.82-.53,.34-1.15,.46-1.82,.36-1.57-.24-2.83-1.56-2.53-3.55,.27-1.82,1.95-2.99,3.68-2.73,.5,.08,.93,.24,1.3,.47,.09-.58,.19-1.34,.29-2.05-2.85-.42-6.07-.77-8.45-.92,.06-.53,.09-.79,.16-1.32,2.06,.26,5.59,.68,8.45,1.08,.07-.58,.14-1.08,.17-1.36,.05-.47,.06-.99,.06-1.14,.6,.09,.91,.14,1.51,.23-.05,.2-.21,.88-.25,1.1Zm-4.01,9.07c1.15,.18,2.2-.86,2.14-2.44-.03-.88-.76-1.48-1.54-1.6-1.02-.16-2.08,.53-2.27,1.79-.19,1.24,.59,2.09,1.67,2.25Z"/></g></g></g></svg>