<?xml version="1.0" encoding="UTF-8"?><svg xmlns="http://www.w3.org/2000/svg" viewBox="0 0 55.78 109.41"><defs><style>.d{fill:#42210b;}</style></defs><g id="a"/><g id="b"><g id="c"><g><path class="d" d="M37.4,11.31c1.17,.29,2.47,.78,3.51,1.38,.86,.49,1.2,1.01,1.2,1.82,0,.65-.26,1.25-.57,1.25-.03,0-.21-.1-.29-.16-.16-.13-.18-.16-.65-.86-.81-1.12-1.74-2-3.2-2.96v5.59q.03,4.76,.08,5.98c-.08,.34-.29,.44-.94,.44h-.34c-.39,0-.49-.05-.57-.26,0-.29,.03-2.29,.08-6.03v-4.52c-1.27,1.3-2.31,2.13-4.11,3.3l-.29-.39c1.69-1.4,2.89-2.65,4.34-4.6s2.29-3.35,3.2-5.33h-5.23c-.57,0-.96,.03-1.85,.13l-.18-.96c.7,.16,1.43,.23,2.03,.23h2.08V2.62c0-1.04-.03-1.38-.21-2.26,.57,.05,1.01,.1,1.3,.13,1.25,.1,1.59,.18,1.59,.44,0,.21-.21,.34-.99,.6v3.82h1.46c.52-.6,.7-.75,1.25-1.3,.7,.57,.91,.75,1.53,1.3,.23,.26,.29,.34,.29,.42,0,.21-.13,.26-1.3,.52-1.09,1.95-1.79,2.99-3.22,4.76v.26Zm5.41-1.33c-.55,0-1.04,.05-2.08,.18l-.21-.99c1.07,.18,1.46,.21,2.29,.21h3.69V3.51c0-1.35-.03-2.03-.18-3.25,.55,.08,1.09,.13,1.35,.16,1.35,.13,1.66,.23,1.66,.47,0,.21-.29,.39-1.04,.68v7.83h2.68l1.51-1.95c1.09,.91,1.43,1.2,2.47,2.16,.05,.05,.1,.16,.1,.18,0,.1-.13,.21-.26,.21h-6.5v11.78h3.17c.7-.86,.94-1.14,1.74-2.03,1.07,.91,1.38,1.22,2.42,2.26,.08,.05,.13,.16,.13,.18,0,.1-.13,.18-.26,.18h-13.6c-1.07,0-1.51,.03-2.47,.18l-.23-.99c.91,.13,1.77,.21,2.7,.21h4.6V9.98h-3.69Z"/><path class="d" d="M46.78,39.42c2.11-1.01,3.48-1.9,4.73-3.09,1.87,1.01,2.21,1.22,2.21,1.4,0,.16-.18,.23-.49,.23-.1,0-.6-.03-.94-.03-1.77,.86-3.51,1.48-5.51,1.95v1.48c0,.36,.05,.44,.31,.49,.18,.03,1.43,.08,2.13,.08,.23,0,.62,0,1.3-.03h1.07c.99,0,1.12-.03,1.27-.29,.18-.29,.73-1.64,1.17-2.89l.31,.03-.16,2.05v.6q0,.13,.47,.31c.36,.1,.55,.31,.55,.62,0,.86-.7,.99-5.54,.99-4.19,0-4.42-.08-4.47-1.4v-6.66h-5.36c-.62,.96-.96,1.4-1.59,2.08h3.67c.44-.42,.57-.52,1.04-.91,.6,.47,.78,.6,1.35,1.07,.18,.16,.23,.23,.23,.31,0,.16-.13,.21-1.01,.49-1.72,2.5-3.09,3.77-5.56,5.07-1.82,.96-3.56,1.59-6.03,2.16l-.13-.42c3.02-1.09,4.94-2.08,6.76-3.48-.21-.03-.26-.08-.42-.29-.62-.91-1.38-1.66-2-2.03-1.69,1.33-2.5,1.82-4,2.47l-.23-.36c1.61-1.04,2.68-2,4.13-3.64,.86-.99,1.33-1.61,1.85-2.52h-3.04c-1.12,0-1.3,0-2.21,.16l-.18-1.01c.81,.18,1.48,.26,2.39,.26h16.56c.68-.73,.88-.96,1.59-1.66,.99,.81,1.27,1.07,2.24,1.9,.05,.08,.1,.16,.1,.21,0,.1-.1,.16-.29,.16h-8.27v4.13Zm-.88-8.27c0-.13,.03-.18,.03-.21,0-1.14-.05-1.72-.13-2.18,2.24,.23,2.89,.36,2.89,.6,0,.18-.21,.29-1.09,.52q-.03,.99-.03,1.27h4c.73-.78,.96-1.01,1.66-1.72,1.04,.83,1.38,1.09,2.44,1.95,.05,.08,.1,.16,.1,.21,0,.1-.1,.16-.26,.16h-7.96c0,.55,0,.78,.03,1.48-.03,.31-.26,.36-1.43,.36-.26,0-.31-.05-.31-.23,.03-.83,.05-1.12,.05-1.61h-4.99v.31l-.03,.47c0,.16,.03,.34,.05,.68,0,.16-.03,.21-.1,.26-.1,.08-.68,.13-1.4,.13-.16,0-.23-.05-.26-.21,.05-.88,.08-1.17,.08-1.64h-4.97c-1.09,0-1.3,.03-2.08,.13l-.18-.94c.73,.16,1.25,.21,2.26,.21h4.97c.03-.29,.03-.52,.03-.73,0-.7-.03-.99-.1-1.66,.55,.08,1.01,.13,1.3,.16,1.25,.13,1.53,.21,1.53,.44,0,.18-.23,.29-1.09,.52v1.27h4.99Zm-6.5,14.92c.05-.52,.08-.83,.08-1.27,0-.42-.03-.65-.1-1.12,.55,.08,.96,.16,1.25,.18,1.12,.16,1.56,.29,1.56,.47s-.13,.23-.96,.52c-.08,.78-.08,.88-.13,1.22h4.81c0-1.3-.03-1.33-.1-2.18,2.5,.23,2.7,.26,2.7,.49,0,.18-.05,.21-.91,.57v1.12h3.98c.7-.81,.91-1.04,1.61-1.74,1.07,.81,1.38,1.07,2.39,1.95,.05,.08,.1,.16,.1,.21,0,.08-.13,.18-.23,.18h-7.88v1.59c0,.65,0,.81,.05,3.82,0,.13-.05,.18-.13,.23-.13,.08-.81,.16-1.38,.16-.23,0-.31-.08-.31-.29,.08-1.74,.1-2.47,.1-3.8v-1.72h-4.89c-.34,1.77-.81,2.7-1.74,3.54-1.61,1.43-3.82,2.24-7.02,2.57l-.1-.39c3.04-.75,4.58-1.46,5.69-2.63,.75-.78,1.2-1.69,1.46-3.09h-4.73c-.96,0-1.35,.03-2.03,.16l-.18-.94c.75,.16,1.2,.18,2.21,.18h4.84Zm-1.72-8.11c-.49,.49-.75,.73-1.27,1.17,.49,.08,.96,.21,1.61,.44,.88,.34,1.17,.57,1.17,1.01,0,.31-.08,.52-.21,.75,1.27-1.07,2.03-1.95,2.94-3.38h-4.24Z"/><path class="d" d="M43.43,76.65c2.81-.83,4.6-1.9,6.08-3.61,1.53-1.74,2.31-3.87,2.31-6.27,0-2.52-1.01-4.52-2.94-5.75-1.14-.75-2.86-1.2-4.5-1.2-.31,0-.49,0-.91,.05,.62,.91,.81,1.4,.81,2.16,0,2.03-1.46,5.82-3.43,9-1.64,2.6-2.91,3.88-3.87,3.88-.44,0-.86-.21-1.14-.55-.23-.31-.29-.42-.73-1.66-.23-.68-.39-.99-1.14-2.44-.42-.83-.6-1.53-.6-2.37,0-1.64,.88-3.56,2.34-5.15,2.11-2.24,5.54-3.64,8.94-3.64,2.63,0,5.04,.86,6.71,2.39s2.5,3.59,2.5,6.11c0,3.25-1.9,6.14-5.17,7.88-1.51,.81-2.86,1.22-5.07,1.61l-.18-.44Zm-8.55-8.09c0,1.25,.39,2.52,1.04,3.43,.36,.47,.7,.75,.99,.75,.57,0,1.82-1.4,3.09-3.43,1.92-3.07,3.3-6.42,3.3-8.03,0-.39-.08-.65-.36-1.3-4.52,.81-8.06,4.58-8.06,8.58Z"/><path class="d" d="M18.2,11.1c.34-.36,.42-.49,.75-.83,.65,.44,.83,.6,1.43,1.09,.13,.13,.18,.18,.18,.26,0,.13-.08,.18-.55,.47q0,4.37,.1,7.75c0,.36-.21,.44-1.33,.44-.42,0-.49-.05-.49-.29v-.34H6.81v.57c0,.31-.26,.39-1.14,.39-.55,0-.68-.05-.68-.29v-.05c.08-1.72,.1-2.68,.1-4.34v-2.96c-1.27,.75-1.92,1.07-3.72,1.69l-.21-.36c1.77-.88,2.52-1.33,3.9-2.42-.03-.68-.03-.83-.1-1.4,.6,.18,.81,.23,1.25,.42,1.07-1.01,1.53-1.64,2-2.52H4.08c-.21,.52-.23,.65-.42,1.07-.13,.23-.23,.29-.57,.29-.86,0-1.22-.08-1.22-.29,0-.03,.03-.1,.05-.21,1.12-2.31,1.64-3.69,1.95-5.17,.68,.39,.91,.52,1.61,.99h3.56c.08-.78,.1-1.09,.13-2.16H4.91c-.88,0-1.59,.05-2.34,.18l-.18-1.01c.91,.18,1.53,.23,2.52,.23h4.26c.03-.21,.03-.39,.03-.47,0-.68-.03-1.04-.13-1.82,2.55,.23,2.73,.26,2.73,.52,0,.21-.26,.36-.99,.55l-.03,1.22h3.82c0-1.2,0-1.46-.1-2.24,2.6,.23,2.68,.26,2.68,.52,0,.21-.26,.36-1.04,.57v1.14h4.21c.39-.49,.52-.62,.91-1.04,.62,.36,.81,.49,1.35,.88,.23,.18,.31,.29,.31,.36,0,.18-.18,.34-.78,.68,.03,1.27,.03,1.69,.08,2.73,0,.36-.21,.44-1.09,.44-.47,0-.55-.03-.55-.26v-.44h-4.45v2.13h5.72c.42-.44,.55-.57,.96-.99,.57,.44,.73,.57,1.25,.99,.18,.18,.26,.26,.26,.36,0,.13-.1,.21-.62,.44-.16,1.12-.29,1.74-.44,2.11-.26,.57-.81,.78-2.13,.86-.08-.88-.44-1.22-1.92-1.69l.05-.29c.26,.05,.47,.08,.6,.1,1.01,.21,1.53,.29,1.77,.29,.31,0,.44-.36,.6-1.59h-6.08c0,.6,.03,.96,.05,1.87-.03,.31-.23,.39-1.12,.39-.47,0-.55-.05-.55-.29,.03-.99,.03-1.12,.05-1.98h-4.73c-.57,1.09-1.07,1.74-2.18,2.73h10.53ZM1.17,23.79c3.85-1.07,6.27-2.13,7.57-3.38,.49,.21,.88,.36,1.14,.47,1.22,.49,1.35,.57,1.35,.75,0,.23-.21,.31-.83,.31h-.7c-2.44,1.14-4.71,1.77-8.42,2.31l-.1-.47ZM5.04,5.64q-.31,.91-.75,2.13h4.19c.23-.62,.36-1.17,.49-2.13h-3.93Zm1.77,7.98h11.49v-1.92H6.81v1.92Zm0,.6v1.98h11.49v-1.98H6.81Zm0,2.57v2.26h11.49v-2.26H6.81Zm3.77-11.15c-.1,.88-.23,1.46-.47,2.13h4.47q.03-1.17,.03-2.13h-4.03Zm4.03-.6V2.89h-3.85c-.05,1.14-.05,1.46-.13,2.16h3.98Zm.52,15.6c3.54,.34,5.98,.73,6.92,1.09,1.04,.39,1.61,1.12,1.61,2.05,0,.34-.1,.52-.34,.52s-.34-.05-.86-.36c-1.85-1.12-4.32-2.08-7.46-2.86l.13-.44Zm5.46-15.6V2.89h-4.45v2.16h4.45Z"/><path class="d" d="M5.62,42.48c-.26,1.95-.81,3.69-1.64,5.38-.99,1.98-2,3.25-3.69,4.63l-.29-.26c1.72-2.11,2.68-4.16,3.33-6.94,.47-2,.6-3.25,.68-6.94,.03-1.22,.08-4.78,.08-5.82,0-1.35-.03-2.13-.13-3.35,.94,.55,1.22,.73,2.08,1.33h13.91c.44-.55,.57-.7,1.07-1.22,.73,.52,.94,.68,1.64,1.22,.21,.16,.31,.26,.31,.36,0,.18-.16,.29-.96,.78v12.09c0,2.26,0,3.28,.05,6.6-.08,.65-.23,.88-.81,1.2-.47,.26-1.07,.44-2.29,.65-.36-1.53-.57-1.66-3.46-2.03v-.39q.96,.05,2.47,.13,.94,.05,1.69,.08h.21c.26,0,.31-.08,.31-.36v-7.12h-6.42v2.37q.03,1.69,.03,3.12,.03,1.25,.05,2.24c-.03,.39-.26,.52-1.04,.55h-.36c-.36,0-.52-.13-.52-.42,.03-1.59,.05-4.45,.05-5.49v-2.37H5.62Zm6.34-5.95H5.88c-.03,2.44-.05,3.8-.18,5.36h6.27v-5.36Zm0-5.43H5.88c.03,.55,.03,1.01,.03,1.25,0,.21,0,.81-.03,1.61v1.98h6.08v-4.84Zm8.22,4.84v-4.84h-6.42v4.84h6.42Zm0,5.95v-5.36h-6.42v5.36h6.42Z"/><path class="d" d="M5.95,72.2c1.3-.44,2.11-.78,3.51-1.43l.16,.36c-1.69,1.2-3.67,2.31-7.38,4.08-.05,.86-.08,.99-.16,1.14-.05,.08-.13,.16-.18,.16-.08,0-.23-.1-.31-.23q-.16-.26-1.01-2.52,1.85-.42,3.59-.96v-11.67h-1.59c-.49,0-.91,.03-1.77,.13l-.18-.91c.65,.13,1.2,.18,1.95,.18h3.77c.52-.62,.68-.81,1.2-1.4,.86,.68,1.12,.91,1.92,1.66,.05,.08,.1,.16,.1,.18,0,.1-.1,.16-.31,.16h-3.3v11.08Zm-.86,8.17c1.82-.47,3.48-1.12,4.94-1.92,1.4-.75,2.31-1.43,2.91-2.11,.91,.36,1.92,.83,2.29,1.04,.16,.08,.21,.18,.21,.26,0,.16-.26,.26-.62,.26-.16,0-.44,0-.68-.03-3.17,1.74-5.25,2.42-8.92,2.86l-.13-.36Zm12.35-21.14q-1.53,2.37-2.34,3.46h5.23c.49-.47,.62-.6,1.14-1.04,.68,.55,.88,.7,1.51,1.25,.16,.13,.21,.21,.21,.31,0,.16-.08,.21-.83,.6,0,6.34,0,9.65,.08,12.2-.05,.23-.13,.34-.26,.36-.23,.08-.78,.13-1.22,.13-.34,0-.47-.1-.47-.34v-.94H12.19v.78c-.03,.26-.08,.34-.29,.39-.16,.03-.94,.1-1.17,.1-.34,0-.47-.13-.47-.49,.1-2.83,.13-3.95,.13-8.45,0-3.33-.03-4.08-.13-6.06,.94,.49,1.22,.68,2.08,1.2h2.18c.39-1.43,.44-1.77,.7-3.46h-4.34c-.52,0-.99,.03-2.05,.13l-.23-.94c.7,.13,1.56,.21,2.29,.21h9.83c.65-.73,.86-.96,1.53-1.72,1.01,.83,1.33,1.07,2.34,1.95,.08,.05,.13,.13,.13,.18,0,.1-.13,.18-.31,.18h-6.97Zm3.04,7.28v-3.22H12.19v3.22h8.29Zm-8.29,.6v3.43h8.29v-3.43H12.19Zm0,4.03v3.48h8.29v-3.48H12.19Zm5.36,5.28c3.02,.62,4.6,1.09,5.62,1.61,.73,.39,1.01,.94,1.01,1.95,0,.52-.16,.83-.44,.83-.21,0-.34-.1-.73-.49-1.27-1.3-2.73-2.24-5.56-3.56l.1-.34Z"/><path class="d" d="M6.63,108.99c-.05,.21-.13,.29-.29,.31-.26,.05-.88,.1-1.25,.1-.26,0-.39-.08-.49-.31,.13-4.63,.16-7.72,.16-12.79,0-4.37-.03-6.73-.16-9.62,1.04,.6,1.38,.78,2.39,1.48h11.34q.52-.52,1.17-1.22c.68,.52,.88,.7,1.53,1.22,.18,.16,.26,.26,.26,.34,0,.18-.16,.31-.83,.78q0,15.6,.16,19.58c-.05,.23-.1,.31-.23,.39-.1,.08-.78,.13-1.35,.13-.23,0-.31-.08-.39-.31v-1.77H6.63v1.69Zm12.01-20.23H6.63v5.41h12.01v-5.41Zm-12.01,6.01v5.36h12.01v-5.36H6.63Zm0,5.98v5.95h12.01v-5.95H6.63Z"/></g></g></g></svg>