<?xml version="1.0" encoding="UTF-8"?><svg xmlns="http://www.w3.org/2000/svg" viewBox="0 0 450.47 35.06"><g id="a"/><g id="b"><g id="c"><g><path d="M9.3,28.35c-.6-.48-1.91-1.42-2.9-2.07,.49,3.16,.73,4.74,1.22,7.9-.48,.07-.73,.11-1.21,.19-.46-2.98-.7-4.47-1.16-7.45-.84,1.13-1.73,2.14-2.63,2.93-.2-.3-.61-.81-.86-1,2.08-1.7,4.15-4.52,5.08-7.27-2.17,.33-3.26,.5-5.43,.85-.07-.46-.11-.69-.18-1.14,1.23-.19,1.84-.29,3.07-.48-.22-1.4-.33-2.11-.55-3.51,.49-.08,.73-.11,1.22-.19,.22,1.4,.33,2.11,.54,3.51,.72-.11,1.08-.17,1.79-.28,.1-.04,.14-.06,.24-.09,.31,.14,.47,.22,.78,.36-.39,1.54-1.05,3.08-1.88,4.5,.96,.54,2.92,1.76,3.48,2.12-.25,.45-.37,.68-.62,1.13Zm10.93,2.13l.18,1.22c-4.24,.62-6.35,.93-10.59,1.58l-.19-1.22c1.94-.3,2.92-.45,4.86-.74-.48-3.19-.72-4.78-1.19-7.97-1.66,.25-2.49,.37-4.15,.63-.07-.48-.11-.72-.18-1.2,1.66-.25,2.49-.38,4.15-.63-.36-2.41-.54-3.62-.9-6.03,.5-.08,.76-.11,1.26-.19,.36,2.41,.54,3.62,.9,6.03,1.65-.25,2.48-.37,4.13-.61,.07,.48,.11,.72,.18,1.2-1.65,.24-2.48,.36-4.13,.61,.47,3.19,.71,4.78,1.18,7.97,1.79-.27,2.69-.4,4.49-.66Z"/><path d="M40.55,25.8c-1.85,.24-2.78,.36-4.63,.61,.19,1.45,.29,2.18,.49,3.63-.51,.07-.76,.1-1.27,.17-.2-1.45-.29-2.18-.49-3.63-2.13,.29-3.2,.43-5.33,.73-.02,1.5-.82,3.01-4.14,4.32-.19-.22-.63-.62-.89-.81,2.88-1.08,3.68-2.23,3.8-3.34-1.85,.26-2.78,.39-4.63,.65-.06-.44-.09-.65-.16-1.09,1.9-.27,2.85-.41,4.75-.67-.09-.62-.13-.94-.22-1.56,.48-.07,.72-.1,1.2-.17,.09,.62,.13,.94,.22,1.56,2.1-.29,3.16-.44,5.26-.72-.08-.62-.13-.94-.21-1.56,.51-.07,.76-.1,1.27-.17,.08,.62,.13,.94,.21,1.56,1.85-.25,2.78-.37,4.64-.61,.06,.44,.09,.66,.14,1.09Zm-9.37-6.09c-.6,2.58-2.77,4.69-6.79,6.16-.17-.24-.51-.6-.77-.79,1.61-.56,2.93-1.22,3.93-1.96-.64-.41-1.53-.84-2.36-1.17-.51,.4-1,.74-1.52,1.06-.18-.19-.6-.55-.88-.7,1.49-.83,2.93-1.91,3.83-3.19-1.48,.21-2.22,.31-3.7,.52-.06-.41-.09-.61-.14-1.02,6.41-.91,9.61-1.35,16.02-2.19,.05,.41,.08,.61,.13,1.02-2.44,.32-3.65,.48-6.09,.81,.11,.81,.16,1.21,.27,2.01,1.6-.62,3.28-1.34,4.22-1.96,.42,.24,.63,.36,1.05,.61-1.35,.81-3.36,1.61-5.16,2.22l.15,1.09c.07,.49,.25,.54,1.16,.42,1.32-.18,1.99-.27,3.31-.44,.67-.09,.78-.27,.67-1.54,.29,.15,.77,.24,1.12,.27,.06,1.64-.25,2.1-1.54,2.27-1.4,.18-2.1,.28-3.5,.47-1.71,.23-2.21,0-2.38-1.29-.22-1.59-.32-2.38-.54-3.97-1.5,.2-2.24,.31-3.74,.51-.2,.35-.45,.69-.73,1.04,1.2-.17,1.8-.25,2.99-.41l.22-.09c.3,.09,.45,.13,.75,.22Zm-4.54-3.42c-1.82,.25-2.73,.38-4.55,.64-.06-.42-.09-.63-.15-1.05,1.82-.26,2.73-.39,4.55-.64-.07-.52-.11-.78-.18-1.3l1.26-.18,.18,1.3c2.05-.28,3.08-.42,5.13-.7-.07-.52-.11-.78-.18-1.3,.5-.07,.75-.1,1.25-.17,.07,.52,.1,.78,.17,1.3,1.88-.25,2.83-.38,4.71-.62l.14,1.05c-1.88,.25-2.82,.37-4.71,.62l.18,1.36c-.5,.07-.75,.1-1.24,.17-.07-.54-.11-.81-.18-1.36-2.05,.28-3.08,.42-5.13,.7,.08,.54,.11,.81,.19,1.36-.5,.07-.76,.1-1.26,.18-.08-.54-.11-.81-.19-1.36Zm-.32,4.69c-.12,.13-.26,.25-.4,.36,.84,.32,1.79,.75,2.43,1.12,.67-.61,1.14-1.27,1.44-1.96-1.39,.19-2.08,.29-3.47,.48Z"/><path d="M54.26,19.05c.13,1.08-.64,2.05-1.73,2.18-1.09,.13-2.07-.63-2.2-1.7-.13-1.07,.64-2.05,1.73-2.18,1.09-.13,2.07,.63,2.2,1.7Z"/><path d="M70.66,10.48c.03,.44,.09,1.23,.16,2.16,1.4-.32,2.86-.77,3.92-1.2,.07,.53,.11,.79,.18,1.32-1.1,.38-2.61,.79-4,1.12,.08,.93,.17,1.91,.25,2.7l.07,.64c1.42-.63,2.94-1.04,4.22-1.18,2.77-.29,4.87,1,5.09,3.2,.23,2.29-1.13,3.86-3.59,4.72-.84,.28-1.67,.4-2.31,.49-.25-.52-.37-.77-.62-1.29,.7-.08,1.5-.14,2.21-.37,1.66-.52,3.12-1.59,2.94-3.4-.17-1.66-1.79-2.39-3.62-2.2-1.49,.16-2.81,.58-4.17,1.23,.19,1.62,.44,3.33,.53,4.18,.18,1.64-.37,2.26-1.38,2.37-1.4,.15-4.01-.99-4.2-2.63-.17-1.53,1.63-3.38,3.7-4.54l-.11-1.02c-.09-.79-.17-1.74-.27-2.66-.55,.12-1.04,.19-1.46,.24-1.05,.12-1.76,.18-2.42,.17-.07-.51-.1-.77-.16-1.28,1.05,.02,1.72-.04,2.41-.11,.46-.05,1.43-.11,1.52-.24,.21-.28-.17-1.91-.21-2.25-.04-.36-.14-.96-.23-1.25,.61-.07,.92-.1,1.54-.17-.02,.33,0,.8,.02,1.26Zm-.6,13.12c.46-.05,.67-.4,.6-1.02-.08-.74-.27-2.09-.46-3.52-1.52,.93-2.63,2.2-2.53,3.11,.1,.89,1.59,1.52,2.39,1.44Zm11.44-10.58c-.23,.46-.35,.69-.58,1.15-1.03-.81-3.25-1.88-4.54-2.42,.21-.43,.32-.64,.53-1.07,1.42,.58,3.62,1.65,4.59,2.34Z"/><path d="M94.27,15.26s.04,.4,.03,.57c.22,4.75,.19,6.49-.27,7.1-.29,.39-.61,.52-1.15,.62-.47,.09-1.4,.15-2.34,.18-.05-.32-.23-.78-.47-1.06,.98-.02,1.91-.1,2.25-.14,.32-.03,.48-.04,.63-.25,.33-.41,.38-1.9,.19-5.78-1.33,.12-1.99,.19-3.32,.31-.16,2.82-.8,5.55-2.63,7.39-.2-.27-.64-.63-.96-.77,2.38-2.31,2.5-6.31,2.36-9.79-.84,.08-1.26,.12-2.1,.2-.24-2.44-.36-3.65-.59-6.09,3-.29,4.5-.43,7.49-.71,.22,2.44,.34,3.65,.56,6.09-1.65,.15-2.47,.23-4.11,.38,0,.71,.04,1.43,.03,2.13,1.76-.17,2.64-.25,4.39-.41Zm-6.71-2.65c2.03-.2,3.04-.29,5.07-.48-.14-1.53-.21-2.29-.35-3.82-2.04,.19-3.05,.29-5.09,.48,.15,1.53,.22,2.29,.37,3.82Zm8.01-4.34l1.25-.11c.37,4.15,.56,6.22,.93,10.37-.5,.04-.74,.07-1.24,.11-.38-4.15-.56-6.22-.94-10.37Zm5.83-2.42c.52,6.06,.79,9.1,1.31,15.16,.08,.89-.16,1.32-.69,1.57-.58,.27-2.84,.85-3.34,.52-.11-.07-.37-.88-.59-1.21,1.37-.08,2.56-.2,2.91-.24,.33-.04,.48-.18,.45-.53-.53-6.06-.79-9.09-1.32-15.16,.51-.04,.76-.07,1.27-.11Z"/><path d="M110.76,5.55c.65-.03,.97-.04,1.62-.07-.06,.46-.13,1.55-.16,2.93,.06,0,.11-.03,.15-.05,.23,.22,.34,.33,.56,.55-.2,.38-.49,.92-.74,1.39,0,.4,0,.82,0,1.24,1.37-1.5,3.77-3.59,5.71-3.74,1.75-.13,2.68,.77,2.79,2.29,.14,1.89-.34,5.28-.2,7.2,.05,.66,.41,1.19,1.14,1.14,.93-.07,1.92-.69,2.84-1.8,.13,.57,.2,.85,.33,1.42-.97,1.12-2.13,1.75-3.37,1.84-1.24,.09-2.11-.62-2.23-2.14-.16-2.12,.31-5.34,.18-7.21-.08-1.12-.69-1.55-1.69-1.47-1.59,.12-3.83,2.08-5.46,4.16,0,.84,.05,1.63,.11,2.34,.14,1.76,.22,2.85,.43,4.5,.04,.32,.12,.75,.18,1.09-.59,.05-.89,.07-1.48,.12,.01-.34,0-.76-.03-1.06-.14-1.83-.19-2.74-.34-4.76-.02-.26-.03-.65-.05-1.1-.82,1.48-2.01,3.48-2.87,4.9-.39-.43-.58-.65-.97-1.08,.96-1.41,2.97-4.61,3.79-6.16,0-.67-.01-1.35-.03-2-.83,.18-2.52,.55-3.73,.84-.11-.56-.16-.83-.27-1.39,.4-.01,.75-.06,1.19-.12,.61-.08,1.81-.32,2.79-.55,0-.93-.02-1.66-.03-1.86-.03-.42-.05-.91-.17-1.36Z"/><path d="M137.45,19.26c-.34-.48-.51-.72-.86-1.2,.59-.09,1.17-.21,1.61-.33,2.41-.7,4.8-2.66,4.61-6.04-.17-2.88-2.25-5.24-5.66-5.28-.14,1.82-.38,3.81-.81,5.61-.92,3.98-2.3,6.01-4,6.12-1.62,.11-3.44-1.64-3.65-4.76-.27-4.06,3.18-7.87,7.81-8.16,4.46-.28,7.48,2.68,7.7,6.45,.23,3.98-2.3,6.75-6.73,7.59Zm-5.16-2.66c.9-.06,1.9-1.4,2.69-4.8,.4-1.64,.66-3.51,.75-5.28-3.74,.65-5.91,4-5.73,6.67,.16,2.46,1.4,3.47,2.3,3.41Z"/><path d="M157.54,1.76c2.16,2.71,5.67,5.07,8.75,6.21-.28,.3-.58,.78-.78,1.13-3.03-1.3-6.55-3.71-8.47-6.11-1.45,2.37-4.49,5.16-7.64,6.97-.17-.3-.54-.73-.82-.96,3.21-1.77,6.29-4.66,7.67-7.18l1.29-.06Zm-7.84,9.88c6.3-.33,9.45-.48,15.76-.75,.02,.47,.03,.71,.05,1.18-3.63,.15-5.44,.23-9.07,.41-.62,1.49-1.39,3.26-2.11,4.67,2.44-.2,5.25-.44,8.03-.68-.84-.89-1.82-1.82-2.76-2.56,.42-.26,.63-.38,1.04-.64,1.83,1.44,3.8,3.41,4.74,4.77-.44,.3-.66,.45-1.09,.75-.24-.37-.59-.79-.97-1.25-4.7,.43-9.66,.89-12.91,1.17-.09-.5-.14-.75-.24-1.24,.82-.06,1.75-.13,2.76-.22,.71-1.39,1.48-3.25,1.97-4.7-2.06,.1-3.09,.15-5.15,.26l-.06-1.18Zm12.17-4.2l.05,1.16c-3.65,.16-5.48,.25-9.13,.43-.02-.46-.04-.69-.06-1.16,3.65-.19,5.48-.27,9.14-.43Z"/><path d="M171.99,4.5c1.19-.18,4.89-.69,8.42-1.09,2.11-.24,3.86-.4,5.13-.47,.02,.54,.03,.81,.06,1.35-1.12,.01-2.81,.1-3.76,.41-2.8,1-4.35,4.03-4.28,6.27,.13,3.82,3.74,4.89,6.83,4.92-.18,.55-.27,.83-.46,1.38-3.45-.01-7.58-1.7-7.72-5.95-.1-3,1.69-5.53,3.51-6.64-2.11,.3-7.15,.95-9.19,1.44-.09-.59-.14-.88-.23-1.47,.73-.05,1.32-.11,1.69-.16Zm12.56,4.89c-.36,.18-.53,.27-.89,.44-.45-.88-1.05-1.89-1.65-2.65,.35-.16,.52-.24,.87-.41,.46,.61,1.22,1.77,1.67,2.61Zm2.14-.88c-.36,.18-.53,.28-.89,.46-.48-.88-1.09-1.85-1.71-2.61,.34-.18,.51-.27,.85-.44,.48,.61,1.28,1.75,1.74,2.59Z"/><path d="M194.41,3.07c-.36,1.87-.84,5.57-.79,7.73,.02,1.02,.1,1.88,.27,2.9,.29-.9,.76-2.16,1.06-2.99,.29,.22,.43,.33,.72,.56-.41,1.28-1.1,3.23-1.27,4.15-.05,.27-.08,.63-.06,.86,.02,.19,.05,.45,.07,.64-.48,.05-.72,.07-1.2,.12-.39-1.36-.78-3.42-.84-5.98-.06-2.79,.51-6.43,.7-8.02,.07-.44,.1-.9,.09-1.27,.61,.04,.92,.06,1.53,.1-.11,.31-.23,.86-.28,1.2Zm9.72-.37c-.03,.53-.02,1.46-.02,2.36,1.19-.11,2.34-.26,3.38-.48,0,.52,0,.79,.02,1.31-1.07,.18-2.21,.33-3.38,.43,.05,1.92,.21,3.89,.31,5.54,1.56,.57,2.81,1.5,3.84,2.4-.29,.46-.44,.69-.73,1.15-1-.92-1.99-1.68-3.03-2.22v.53c.03,1.46-.64,3.01-3.17,3.05-2.54,.04-3.91-.94-3.94-2.61-.03-1.52,1.32-2.8,3.81-2.84,.67-.01,1.3,.05,1.9,.16-.1-1.52-.25-3.47-.29-5.07-.63,.03-1.29,.06-1.94,.07-1.09,.02-2.08-.02-3.19-.08l-.04-1.27c1.1,.07,2.12,.11,3.25,.09,.63-.01,1.27-.04,1.9-.07l-.04-2.39c0-.34-.03-.84-.09-1.16,.62,0,.94-.01,1.56-.02-.05,.38-.08,.76-.1,1.12Zm-3.08,12.83c1.68-.03,2.16-.87,2.14-2.16,0-.21,0-.46-.03-.74-.65-.18-1.32-.28-2.05-.27-1.49,.02-2.53,.69-2.51,1.66,.02,1.01,1.02,1.54,2.45,1.51Z"/><path d="M217.73,11.06c-.29-.61-1.01-1.86-1.61-2.8,.02,3.67,.03,5.5,.06,9.17-.47,0-.7,0-1.16,0-.03-3.67-.04-5.5-.07-9.17-.64,2.17-1.52,4.3-2.41,5.6-.16-.32-.47-.79-.68-1.08,1.17-1.61,2.35-4.66,2.91-7.3-1.04,0-1.56,.01-2.59,.02,0-.47,0-.71-.01-1.18,1.1-.01,1.65-.01,2.75-.02-.01-1.66-.02-2.48-.03-4.14,.47,0,.71,0,1.18,0,.01,1.66,.02,2.48,.03,4.14,.9,0,1.35,0,2.25-.01v1.18c-.89,0-1.34,0-2.24,.01,0,.5,0,.75,0,1.25,.54,.7,2.01,2.86,2.34,3.39-.29,.37-.43,.56-.72,.94Zm5.02,2.76c-1.55,.92-3.2,1.87-4.5,2.6-.25-.42-.37-.62-.62-1.04,1.2-.61,3.01-1.61,4.77-2.6,.14,.42,.21,.63,.35,1.04Zm2.98-1.62c1.01,1.54,2.35,2.77,3.97,3.45-.27,.25-.63,.68-.82,1-1.87-.92-3.37-2.59-4.41-4.66,0,1.6,0,2.39,0,3.99,0,.72-.16,1.08-.61,1.27-.47,.2-2.23,.47-2.52,.23-.09-.07-.19-.85-.37-1.18,.86,.02,1.71,.03,1.96,.02,.24,0,.31-.1,.3-.34,0-2.89,0-4.34,0-7.24-1.96,0-2.93,0-4.89,.02v-1.06c1.95,0,2.93-.01,4.89-.02v-1.58c-1.58,0-2.37,0-3.94,.01v-1.03c1.57,0,2.36,0,3.94-.01,0-.58,0-.87,0-1.44-1.81,0-2.71,0-4.52,.01v-1.04c1,0,1.5,0,2.5,0-.21-.59-.64-1.4-1.03-2.05,.4-.13,.6-.2,1-.33,.48,.68,.99,1.61,1.18,2.2-.18,.07-.27,.1-.44,.17,1.44,0,2.16,0,3.6,0-.09-.03-.14-.05-.23-.08,.4-.66,.91-1.71,1.16-2.37,.51,.14,.76,.22,1.27,.36-.43,.72-.87,1.52-1.26,2.09,1.07,0,1.61,0,2.68,0v1.04c-1.87,0-2.81,0-4.68,0v1.44c1.69,0,2.54,0,4.23,0v1.03c-1.69,0-2.54,0-4.23,0v1.58c1.97,0,2.95,0,4.91,0v1.06c-1.97,0-2.95,0-4.91,0v.82c.31,.93,.73,1.79,1.23,2.58,.77-.68,1.86-1.82,2.45-2.64,.39,.27,.59,.41,.98,.69-.79,.93-1.82,1.91-2.61,2.6-.31-.24-.47-.35-.78-.59Zm-5.84-2.61c.77,.74,1.61,1.78,2,2.48-.37,.25-.55,.38-.92,.63-.38-.7-1.21-1.78-1.96-2.56,.35-.22,.53-.33,.88-.55Z"/><path d="M248.26,5.58c-.96,2.49-2.69,5.41-4.33,7.52,1.12,.76,2.08,1.55,2.74,2.26-.37,.46-.55,.69-.91,1.15-1.45-1.62-4.55-3.77-7.24-5.08,.33-.41,.49-.61,.81-1.02,1.12,.54,2.34,1.22,3.48,1.94,1.36-1.69,2.73-4.03,3.57-5.97-2.67-.04-4.01-.06-6.68-.08-1.16,2.21-2.59,4.33-4.27,5.91-.29-.23-.82-.58-1.18-.77,2.89-2.6,5.02-6.78,6.14-10.3,.57,.14,.85,.21,1.42,.36-.42,1.15-.89,2.35-1.46,3.54,2.68,.03,4.03,.05,6.71,.09,.1-.02,.15-.03,.25-.05,.38,.21,.57,.32,.95,.53Z"/><path d="M261.25,4.44c1.02-.13,2.09-.33,3.12-.64,0,.51,0,.76,0,1.27-1.07,.26-2.28,.47-3.55,.59-1.01,2.67-2.81,5.92-4.37,7.94-.52-.28-.78-.43-1.3-.71,1.64-1.81,3.38-4.87,4.28-7.1-.6,.04-1.21,.05-1.81,.03-.71-.02-1.52-.05-2.23-.11-.03-.51-.04-.76-.07-1.27,.69,.09,1.48,.15,2.32,.16,.71,.02,1.46,.01,2.23-.04,.35-1.04,.65-2.28,.72-3.29,.61,.07,.91,.1,1.52,.17-.21,.7-.51,1.89-.87,3Zm5.15,4.97c0,.74,.04,2.03,.06,3.23,1.63,.64,2.94,1.61,3.9,2.47-.31,.45-.47,.68-.78,1.13-.82-.79-1.86-1.67-3.12-2.32,0,.36,0,.67,0,.91-.04,1.48-1.05,2.65-3.34,2.59-2.06-.05-3.72-.89-3.67-2.75,.04-1.73,1.75-2.73,3.82-2.68,.69,.02,1.34,.11,1.96,.26-.03-1.58-.07-3.5-.07-4.87,.54,.01,.81,.02,1.34,.04-.08,.78-.09,1.31-.1,1.97Zm-3.42,6.8c1.64,.04,2.22-.79,2.25-1.82,0-.27,.02-.59,0-.95-.63-.21-1.31-.34-2.04-.36-1.45-.04-2.46,.62-2.49,1.53s.7,1.56,2.27,1.6Zm3.16-10.97c.29-.4,.43-.6,.72-1.01,1.39,.63,3.5,1.93,4.36,2.64-.32,.43-.48,.65-.8,1.08-1.01-.89-3.03-2.11-4.28-2.71Z"/><path d="M282.09,16.54c-1.6,.77-4.03,1.48-5.93,1.87-.2-.25-.6-.74-.88-.98,1.96-.29,4.27-.81,5.69-1.44,.45,.22,.68,.33,1.13,.56Zm-4.12-7.02c-.52,.15-1.12,.26-1.78,.37-.11-.29-.34-.77-.56-1.01,2.57-.4,4.01-1.01,4.83-1.76-1.11-.04-1.66-.06-2.76-.1-.04,.1-.06,.15-.1,.24-.47-.05-.71-.07-1.19-.12,.43-.82,.88-1.96,1.22-2.94,1.55,.06,2.32,.09,3.87,.15,.02-.46,.03-.68,.04-1.14-1.9-.07-2.85-.11-4.76-.18,.01-.35,.02-.52,.03-.87,1.9,.07,2.86,.1,4.76,.18,.02-.43,.03-.65,.04-1.08l1.18,.05c-.02,.43-.03,.65-.04,1.08,1.25,.05,1.87,.08,3.12,.13,.02-.43,.03-.65,.05-1.08,.49,.02,.73,.03,1.21,.05-.02,.43-.03,.65-.05,1.08,1.73,.07,2.59,.11,4.31,.19-.05,1.15-.08,1.72-.13,2.87-1.72-.08-2.58-.12-4.31-.19-.02,.43-.03,.64-.05,1.06,2.21,.1,3.32,.14,5.53,.25,0,0-.03,.28-.06,.43-.19,1.15-.36,1.7-.65,1.95-.24,.21-.53,.3-.92,.3l-.48-.02c-.12,2.69-.18,4.03-.31,6.72-4.92-.22-7.37-.33-12.29-.51,.09-2.44,.13-3.66,.22-6.09Zm3.14-3.26c.17-.34,.26-.69,.31-1.05-1.17-.05-1.75-.07-2.92-.11-.13,.36-.28,.71-.42,1.05,1.21,.04,1.82,.07,3.04,.11Zm7.94,3.56c-3.93-.18-5.9-.26-9.83-.4l-.05,1.25c3.93,.15,5.9,.23,9.82,.4,.02-.5,.03-.75,.06-1.25Zm-.09,2.07c-3.93-.18-5.89-.26-9.82-.4l-.05,1.21c3.92,.15,5.89,.23,9.81,.4,.02-.49,.03-.73,.05-1.21Zm-.09,2.05c-3.92-.17-5.88-.26-9.8-.4l-.05,1.27c3.92,.15,5.88,.23,9.8,.4,.02-.51,.03-.76,.06-1.27Zm-6.89-6.75c-.35,.54-.85,1.01-1.59,1.44,3.51,.14,5.26,.21,8.76,.36-.05-.19-.12-.4-.19-.54,.59,.06,1.18,.1,1.36,.1,.22,0,.36,.02,.46-.07,.12-.11,.23-.37,.31-.9-1.69-.08-2.53-.12-4.22-.19-.02,.57-.04,.85-.06,1.42-.48-.02-.73-.03-1.21-.05,.02-.57,.04-.85,.06-1.42-1.47-.06-2.21-.09-3.69-.15Zm3.77-1.8c-1.25-.05-1.88-.08-3.13-.13-.05,.36-.1,.72-.22,1.06,1.32,.05,1.98,.08,3.3,.14,.02-.43,.03-.64,.04-1.06Zm-3.08-.98c1.25,.05,1.87,.08,3.12,.13l.05-1.14c-1.25-.05-1.87-.08-3.12-.13-.02,.46-.03,.68-.05,1.14Zm3.71,11.83c2.09,.64,4.35,1.5,5.73,2.12-.55,.25-.83,.37-1.38,.62-1.19-.61-3.26-1.4-5.39-2.12,.42-.25,.62-.37,1.04-.62Zm.67-12.79l-.05,1.14c1.26,.05,1.89,.08,3.15,.14,.02-.46,.03-.68,.05-1.14-1.26-.06-1.89-.08-3.16-.14Z"/><path d="M311.97,18.3c-.05,.87-.33,1.25-.93,1.43-.64,.19-3.16,.38-3.53,0-.08-.08-.2-.89-.37-1.24,1.37,.14,2.67,.2,3.05,.2,.36,0,.5-.1,.53-.46,.1-1.62,.15-2.42,.24-4.04-2.13-.13-3.2-.19-5.33-.31-.13,2.27-.19,3.4-.32,5.67-.5-.03-.75-.04-1.26-.07,.13-2.27,.19-3.4,.31-5.67-1.97-.11-2.96-.16-4.93-.27-.4,2.11-1.14,4.24-2.71,5.81-.16-.26-.63-.72-.91-.88,2.21-2.25,2.6-5.57,2.73-8.25,.14-2.73,.21-4.1,.35-6.83,5.58,.29,8.36,.44,13.94,.78-.34,5.65-.52,8.48-.86,14.13Zm-7.54-5.69c.07-1.33,.11-1.99,.18-3.32-1.9-.11-2.85-.16-4.76-.26l-.07,1.25c-.03,.66-.09,1.35-.18,2.06,1.93,.1,2.89,.15,4.82,.26Zm-4.34-7.96c-.07,1.28-.1,1.92-.17,3.21,1.9,.1,2.86,.15,4.76,.26,.07-1.28,.11-1.92,.18-3.21-1.91-.11-2.86-.16-4.77-.26Zm11.41,.64c-2.15-.13-3.22-.19-5.37-.31-.07,1.28-.11,1.92-.18,3.21,2.14,.12,3.21,.18,5.35,.31,.08-1.28,.12-1.92,.19-3.2Zm-.46,7.7c.08-1.33,.12-1.99,.2-3.32-2.14-.13-3.21-.19-5.35-.31-.07,1.33-.11,1.99-.19,3.32,2.14,.12,3.2,.18,5.34,.31Z"/><path d="M324.82,5.77c-.13,.54-.41,1.74-.72,2.81,.96,0,1.79,0,2.27,.03,1.65,.12,3.01,.82,2.82,3.34-.16,2.25-.74,5.26-1.6,6.74-.69,1.19-1.63,1.44-2.83,1.36-.72-.05-1.63-.25-2.21-.42-.05-.57-.08-.86-.13-1.44,.8,.3,1.78,.5,2.32,.54,.71,.05,1.32-.04,1.79-.88,.7-1.26,1.19-3.74,1.34-5.83,.13-1.78-.67-2.16-1.9-2.25-.5-.04-1.33-.04-2.21-.02-.88,2.68-2.49,6.82-4.74,9.94-.53-.26-.8-.38-1.33-.64,2.13-2.47,3.88-6.79,4.69-9.26-1.06,.04-2.07,.06-2.59,.09-.42,.02-1.18,.06-1.66,.1-.02-.6-.03-.89-.06-1.49,.59,.08,1.06,.09,1.65,.11,.65,.02,1.81,0,3.03,0,.38-1.34,.69-2.83,.78-4.12,.63,.1,.95,.16,1.59,.26-.1,.32-.2,.69-.28,1.03Zm9.76,8.64c-.55,.21-.82,.31-1.37,.52-.43-1.96-1.71-5.35-2.94-7,.52-.18,.77-.27,1.29-.46,1.08,1.6,2.51,5.14,3.02,6.93Zm-1.11-6.96c-.4,.14-.6,.21-.99,.34-.33-.79-.9-1.99-1.38-2.75,.39-.13,.58-.2,.97-.33,.43,.72,1.05,1.93,1.4,2.73Zm2.19-.6c-.4,.14-.6,.21-.99,.34-.36-.87-.89-1.99-1.4-2.73,.38-.13,.57-.2,.95-.33,.47,.74,1.11,1.97,1.44,2.72Z"/><path d="M350.19,13.56c-.1,1.18-.16,1.77-.26,2.95,1.84,.16,2.76,.24,4.6,.41-.04,.47-.06,.7-.11,1.17-1.84-.17-2.76-.25-4.6-.41-.11,1.28-.17,1.92-.28,3.2-.05,.61,.05,.71,.72,.77,.93,.08,1.39,.12,2.32,.21,.61,.05,.74-.32,1-2.37,.25,.25,.74,.51,1.08,.63-.33,2.37-.73,3-2.1,2.88-1.02-.09-1.53-.14-2.55-.23-1.52-.13-1.89-.55-1.76-2,.11-1.28,.17-1.92,.28-3.2-1.44-.12-2.16-.19-3.61-.31-.48,2.02-1.76,3.85-5.61,4.86-.13-.3-.47-.8-.72-1.05,3.38-.85,4.58-2.31,5.04-3.92-1.73-.14-2.6-.21-4.33-.35l.09-1.17c1.79,.14,2.68,.22,4.47,.37l.03-.38,.21-2.57c-.83-.07-1.25-.1-2.09-.17,.02-.29,.04-.43,.06-.72-.99,.61-2.03,1.09-3.04,1.45-.15-.3-.5-.76-.71-1.03,1.4-.42,2.89-1.2,4.23-2.21-.54-.66-1.46-1.57-2.23-2.26,.34-.24,.52-.36,.86-.6,.74,.63,1.66,1.49,2.24,2.13,.81-.73,1.54-1.59,2.12-2.49-1.97-.17-2.96-.25-4.94-.41l.09-1.12c2.23,.18,3.35,.27,5.58,.46l.22-.04c.33,.2,.5,.29,.83,.49-1.06,2.2-2.75,3.94-4.63,5.22,3.75,.31,5.63,.47,9.38,.8-1.77-1.84-3.11-4.18-3.88-6.75,.45-.09,.67-.14,1.12-.23,.25,.88,.62,1.73,1.04,2.55,.94-.62,2.03-1.46,2.7-2.11,.36,.31,.54,.46,.9,.77-.92,.78-2.12,1.6-3.12,2.2,.36,.58,.75,1.13,1.19,1.65,1.04-.65,2.3-1.57,3.08-2.26,.36,.31,.54,.46,.9,.77-1,.77-2.25,1.61-3.33,2.24,1.02,1.08,2.2,1.97,3.49,2.6-.29,.24-.74,.68-.96,.98-.95-.52-1.84-1.18-2.66-1.94-.03,.3-.04,.44-.07,.74-.92-.08-1.38-.12-2.3-.2Zm-1.3-.11c-1.41-.12-2.11-.18-3.52-.3-.09,1.04-.13,1.56-.22,2.59l-.03,.36c1.41,.12,2.11,.18,3.51,.3,.1-1.18,.15-1.77,.26-2.95Z"/><path d="M375.98,23.61l-.13,1.23c-6.74-.72-10.11-1.06-16.85-1.69l.12-1.23c3.11,.29,4.67,.44,7.78,.76,.2-2,.3-2.99,.5-4.99-2.3-.23-3.45-.34-5.74-.56,.05-.48,.07-.73,.12-1.21,2.3,.22,3.45,.33,5.75,.56,.17-1.71,.26-2.56,.43-4.27-1.85-.18-2.77-.28-4.62-.45-.71,1.17-1.52,2.16-2.33,2.96-.23-.23-.77-.66-1.08-.87,1.75-1.53,3.22-4.02,4.24-6.65,.5,.16,.75,.23,1.24,.39-.41,1.03-.88,2.05-1.4,2.99,1.63,.16,2.44,.24,4.06,.4,.15-1.47,.22-2.21,.37-3.69,.53,.05,.8,.08,1.33,.13-.15,1.47-.22,2.21-.37,3.69,2.78,.28,4.16,.42,6.94,.72l-.13,1.23c-2.77-.29-4.16-.44-6.93-.72-.17,1.71-.26,2.56-.43,4.27,2.49,.25,3.73,.38,6.22,.64-.05,.48-.08,.73-.13,1.21-2.49-.26-3.73-.39-6.22-.64-.2,2-.3,2.99-.5,4.99,3.11,.31,4.66,.47,7.77,.81Z"/><path d="M386.53,12.14c-.32,2.13-.98,6.64-1.31,9.54-.24,2.1,1.01,3,2.87,3.21,3.55,.41,5.74-1.32,7.34-3.1,.33,.5,.49,.75,.82,1.25-1.53,1.63-4.22,3.68-8.35,3.2-2.66-.31-4.41-1.59-4.07-4.65,.32-2.85,1.06-7.57,1.29-9.62,.07-.66,.11-1.29,.05-1.81,.7,.08,1.05,.12,1.75,.2-.16,.59-.29,1.2-.38,1.77Z"/><path d="M412.23,14.46c-.04,.24-.11,.68-.18,1.22,1.75,.15,3.57,.22,5.31,.17-.07,.5-.11,.74-.19,1.24-1.59-.04-3.43-.1-5.27-.26-.11,.83-.23,1.73-.32,2.43l-.04,.34c1.82,.16,3.64,.23,5.43,.2-.07,.5-.1,.76-.17,1.26-1.86,0-3.58-.1-5.39-.28-.1,1.04-.18,2.1-.26,3.05,2.46,1.01,4.24,2.69,5.19,3.68-.38,.43-.56,.65-.94,1.08-1-1.17-2.47-2.57-4.34-3.51-.05,.53-.09,.97-.13,1.27-.17,1.26-1.14,2.49-3.6,2.17-2.69-.35-4.03-1.45-3.81-3.24,.21-1.68,1.99-2.6,4.69-2.25,.59,.08,1.14,.19,1.68,.35,.08-.91,.19-1.87,.26-2.73-.34-.04-.72-.09-1.09-.14-1.33-.17-3.42-.55-4.77-.88,.06-.51,.08-.76,.14-1.27,1.34,.4,3.48,.81,4.78,.97,.36,.05,.71,.09,1.07,.12l.05-.38c.12-.96,.19-1.44,.31-2.39-.29-.02-.59-.06-.88-.1-1.36-.18-3.7-.67-4.87-.95,.06-.51,.08-.76,.14-1.27,1.18,.38,3.56,.87,4.86,1.04,.31,.04,.59,.08,.9,.12l.18-1.39c.04-.32,.1-.89,.09-1.12,.57,.07,.86,.11,1.44,.19-.08,.32-.18,.68-.26,1.23Zm-4.91,12.88c1.1,.14,2.11-.07,2.29-1.43,.05-.36,.11-.83,.16-1.36-.59-.19-1.21-.35-1.86-.43-1.9-.25-3.02,.36-3.14,1.26-.11,.9,.57,1.7,2.55,1.95Z"/><path d="M434.34,17.42c-.05,.31-.13,.79-.22,1.35,.13,.02,.27,.04,.4,.06,2.39,.35,4.65,.71,5.51,.84-.08,.5-.11,.74-.19,1.24-1.04-.21-2.73-.51-5.52-.92-.13-.02-.25-.04-.38-.06-.16,1.11-.32,2.3-.43,3.18,.29,.68,.38,1.52,.24,2.44-.38,2.56-2,5.15-6.56,5.82-.39-.5-.59-.75-.98-1.25,2.7-.25,4.61-1.12,5.58-2.84-.54,.34-1.17,.46-1.85,.36-1.61-.23-2.92-1.55-2.63-3.55,.26-1.82,1.97-3,3.74-2.74,.51,.07,.96,.24,1.33,.46,.09-.58,.18-1.34,.28-2.05-2.92-.41-6.22-.74-8.65-.89,.06-.53,.09-.79,.15-1.32,2.11,.26,5.73,.66,8.66,1.05,.07-.59,.13-1.08,.16-1.36,.04-.47,.05-.99,.05-1.14,.62,.09,.93,.14,1.55,.23-.05,.2-.2,.88-.24,1.1Zm-4.01,9.09c1.18,.17,2.24-.87,2.16-2.45-.04-.88-.79-1.48-1.59-1.6-1.05-.15-2.12,.54-2.3,1.8-.18,1.24,.63,2.09,1.73,2.25Z"/><path d="M448.24,31.8c-.25,1.58-1.71,2.63-3.3,2.38-1.55-.24-2.64-1.7-2.4-3.28,.24-1.56,1.72-2.62,3.28-2.37,1.59,.25,2.66,1.71,2.42,3.26Zm-.89-.14c.17-1.05-.57-2.07-1.67-2.24-1.06-.17-2.09,.58-2.25,1.63-.17,1.09,.59,2.09,1.64,2.26,1.1,.17,2.1-.55,2.27-1.64Z"/></g></g></g></svg>