<?xml version="1.0" encoding="UTF-8"?><svg xmlns="http://www.w3.org/2000/svg" viewBox="0 0 86.16 174.23"><defs><style>.d{fill:#42210b;}</style></defs><g id="a"/><g id="b"><g id="c"><g><path class="d" d="M67.77,11.34c1.17,.29,2.47,.78,3.51,1.38,.86,.49,1.2,1.01,1.2,1.82,0,.65-.26,1.25-.57,1.25-.03,0-.21-.1-.29-.16-.16-.13-.18-.16-.65-.86-.81-1.12-1.74-2-3.2-2.96v5.59q.03,4.76,.08,5.98c-.08,.34-.29,.44-.94,.44h-.34c-.39,0-.49-.05-.57-.26,0-.29,.03-2.29,.08-6.03v-4.52c-1.27,1.3-2.31,2.13-4.11,3.3l-.29-.39c1.69-1.4,2.89-2.65,4.34-4.6s2.29-3.35,3.2-5.33h-5.23c-.57,0-.96,.03-1.85,.13l-.18-.96c.7,.16,1.43,.23,2.03,.23h2.08V2.65c0-1.04-.03-1.38-.21-2.26,.57,.05,1.01,.1,1.3,.13,1.25,.1,1.59,.18,1.59,.44,0,.21-.21,.34-.99,.6v3.82h1.46c.52-.6,.7-.75,1.25-1.3,.7,.57,.91,.75,1.53,1.3,.23,.26,.29,.34,.29,.42,0,.21-.13,.26-1.3,.52-1.09,1.95-1.79,2.99-3.22,4.76v.26Zm5.41-1.33c-.55,0-1.04,.05-2.08,.18l-.21-.99c1.07,.18,1.46,.21,2.29,.21h3.69V3.54c0-1.35-.03-2.03-.18-3.25,.55,.08,1.09,.13,1.35,.16,1.35,.13,1.66,.23,1.66,.47,0,.21-.29,.39-1.04,.68v7.83h2.68l1.51-1.95c1.09,.91,1.43,1.2,2.47,2.16,.05,.05,.1,.16,.1,.18,0,.1-.13,.21-.26,.21h-6.5v11.78h3.17c.7-.86,.94-1.14,1.74-2.03,1.07,.91,1.38,1.22,2.42,2.26,.08,.05,.13,.16,.13,.18,0,.1-.13,.18-.26,.18h-13.6c-1.07,0-1.51,.03-2.47,.18l-.23-.99c.91,.13,1.77,.21,2.7,.21h4.6V10.01h-3.69Z"/><path class="d" d="M77.16,39.44c2.11-1.01,3.48-1.9,4.73-3.09,1.87,1.01,2.21,1.22,2.21,1.4,0,.16-.18,.23-.49,.23-.1,0-.6-.03-.94-.03-1.77,.86-3.51,1.48-5.51,1.95v1.48c0,.36,.05,.44,.31,.49,.18,.03,1.43,.08,2.13,.08,.23,0,.62,0,1.3-.03h1.07c.99,0,1.12-.03,1.27-.29,.18-.29,.73-1.64,1.17-2.89l.31,.03-.16,2.05v.6q0,.13,.47,.31c.36,.1,.55,.31,.55,.62,0,.86-.7,.99-5.54,.99-4.19,0-4.42-.08-4.47-1.4v-6.66h-5.36c-.62,.96-.96,1.4-1.59,2.08h3.67c.44-.42,.57-.52,1.04-.91,.6,.47,.78,.6,1.35,1.07,.18,.16,.23,.23,.23,.31,0,.16-.13,.21-1.01,.49-1.72,2.5-3.09,3.77-5.56,5.07-1.82,.96-3.56,1.59-6.03,2.16l-.13-.42c3.02-1.09,4.94-2.08,6.76-3.48-.21-.03-.26-.08-.42-.29-.62-.91-1.38-1.66-2-2.03-1.69,1.33-2.5,1.82-4,2.47l-.23-.36c1.61-1.04,2.68-2,4.13-3.64,.86-.99,1.33-1.61,1.85-2.52h-3.04c-1.12,0-1.3,0-2.21,.16l-.18-1.01c.81,.18,1.48,.26,2.39,.26h16.56c.68-.73,.88-.96,1.59-1.66,.99,.81,1.27,1.07,2.24,1.9,.05,.08,.1,.16,.1,.21,0,.1-.1,.16-.29,.16h-8.27v4.13Zm-.88-8.27c0-.13,.03-.18,.03-.21,0-1.14-.05-1.72-.13-2.18,2.24,.23,2.89,.36,2.89,.6,0,.18-.21,.29-1.09,.52q-.03,.99-.03,1.27h4c.73-.78,.96-1.01,1.66-1.72,1.04,.83,1.38,1.09,2.44,1.95,.05,.08,.1,.16,.1,.21,0,.1-.1,.16-.26,.16h-7.96c0,.55,0,.78,.03,1.48-.03,.31-.26,.36-1.43,.36-.26,0-.31-.05-.31-.23,.03-.83,.05-1.12,.05-1.61h-4.99v.31l-.03,.47c0,.16,.03,.34,.05,.68,0,.16-.03,.21-.1,.26-.1,.08-.68,.13-1.4,.13-.16,0-.23-.05-.26-.21,.05-.88,.08-1.17,.08-1.64h-4.97c-1.09,0-1.3,.03-2.08,.13l-.18-.94c.73,.16,1.25,.21,2.26,.21h4.97c.03-.29,.03-.52,.03-.73,0-.7-.03-.99-.1-1.66,.55,.08,1.01,.13,1.3,.16,1.25,.13,1.53,.21,1.53,.44,0,.18-.23,.29-1.09,.52v1.27h4.99Zm-6.5,14.92c.05-.52,.08-.83,.08-1.27,0-.42-.03-.65-.1-1.12,.55,.08,.96,.16,1.25,.18,1.12,.16,1.56,.29,1.56,.47s-.13,.23-.96,.52c-.08,.78-.08,.88-.13,1.22h4.81c0-1.3-.03-1.33-.1-2.18,2.5,.23,2.7,.26,2.7,.49,0,.18-.05,.21-.91,.57v1.12h3.98c.7-.81,.91-1.04,1.61-1.74,1.07,.81,1.38,1.07,2.39,1.95,.05,.08,.1,.16,.1,.21,0,.08-.13,.18-.23,.18h-7.88v1.59c0,.65,0,.81,.05,3.82,0,.13-.05,.18-.13,.23-.13,.08-.81,.16-1.38,.16-.23,0-.31-.08-.31-.29,.08-1.74,.1-2.47,.1-3.8v-1.72h-4.89c-.34,1.77-.81,2.7-1.74,3.54-1.61,1.43-3.82,2.24-7.02,2.57l-.1-.39c3.04-.75,4.58-1.46,5.69-2.63,.75-.78,1.2-1.69,1.46-3.09h-4.73c-.96,0-1.35,.03-2.03,.16l-.18-.94c.75,.16,1.2,.18,2.21,.18h4.84Zm-1.72-8.11c-.49,.49-.75,.73-1.27,1.17,.49,.08,.96,.21,1.61,.44,.88,.34,1.17,.57,1.17,1.01,0,.31-.08,.52-.21,.75,1.27-1.07,2.03-1.95,2.94-3.38h-4.24Z"/><path class="d" d="M79.58,68.33c.34-.36,.42-.49,.75-.83,.65,.44,.83,.6,1.43,1.09,.13,.13,.18,.18,.18,.26,0,.13-.08,.18-.55,.47q0,4.37,.1,7.75c0,.36-.21,.44-1.33,.44-.42,0-.49-.05-.49-.29v-.34h-11.49v.57c0,.31-.26,.39-1.14,.39-.55,0-.68-.05-.68-.29v-.05c.08-1.72,.1-2.68,.1-4.34v-2.96c-1.27,.75-1.92,1.07-3.72,1.69l-.21-.36c1.77-.88,2.52-1.33,3.9-2.42-.03-.68-.03-.83-.1-1.4,.6,.18,.81,.23,1.25,.42,1.07-1.01,1.53-1.64,2-2.52h-4.13c-.21,.52-.23,.65-.42,1.07-.13,.23-.23,.29-.57,.29-.86,0-1.22-.08-1.22-.29,0-.03,.03-.1,.05-.21,1.12-2.31,1.64-3.69,1.95-5.17,.68,.39,.91,.52,1.61,.99h3.56c.08-.78,.1-1.09,.13-2.16h-4.26c-.88,0-1.59,.05-2.34,.18l-.18-1.01c.91,.18,1.53,.23,2.52,.23h4.26c.03-.21,.03-.39,.03-.47,0-.68-.03-1.04-.13-1.82,2.55,.23,2.73,.26,2.73,.52,0,.21-.26,.36-.99,.55l-.03,1.22h3.82c0-1.2,0-1.46-.1-2.24,2.6,.23,2.68,.26,2.68,.52,0,.21-.26,.36-1.04,.57v1.14h4.21c.39-.49,.52-.62,.91-1.04,.62,.36,.81,.49,1.35,.88,.23,.18,.31,.29,.31,.36,0,.18-.18,.34-.78,.68,.03,1.27,.03,1.69,.08,2.73,0,.36-.21,.44-1.09,.44-.47,0-.55-.03-.55-.26v-.44h-4.45v2.13h5.72c.42-.44,.55-.57,.96-.99,.57,.44,.73,.57,1.25,.99,.18,.18,.26,.26,.26,.36,0,.13-.1,.21-.62,.44-.16,1.12-.29,1.74-.44,2.11-.26,.57-.81,.78-2.13,.86-.08-.88-.44-1.22-1.92-1.69l.05-.29c.26,.05,.47,.08,.6,.1,1.01,.21,1.53,.29,1.77,.29,.31,0,.44-.36,.6-1.59h-6.08c0,.6,.03,.96,.05,1.87-.03,.31-.23,.39-1.12,.39-.47,0-.55-.05-.55-.29,.03-.99,.03-1.12,.05-1.98h-4.73c-.57,1.09-1.07,1.74-2.18,2.73h10.53Zm-17.03,12.69c3.85-1.07,6.27-2.13,7.57-3.38,.49,.21,.88,.36,1.14,.47,1.22,.49,1.35,.57,1.35,.75,0,.23-.21,.31-.83,.31h-.7c-2.44,1.14-4.71,1.77-8.42,2.31l-.1-.47Zm3.87-18.15q-.31,.91-.75,2.13h4.19c.23-.62,.36-1.17,.49-2.13h-3.93Zm1.77,7.98h11.49v-1.92h-11.49v1.92Zm0,.6v1.98h11.49v-1.98h-11.49Zm0,2.57v2.26h11.49v-2.26h-11.49Zm3.77-11.16c-.1,.88-.23,1.46-.47,2.13h4.47q.03-1.17,.03-2.13h-4.03Zm4.03-.6v-2.16h-3.85c-.05,1.14-.05,1.46-.13,2.16h3.98Zm.52,15.6c3.54,.34,5.98,.73,6.92,1.09,1.04,.39,1.61,1.12,1.61,2.05,0,.34-.1,.52-.34,.52s-.34-.05-.86-.36c-1.85-1.12-4.32-2.08-7.46-2.86l.13-.44Zm5.46-15.6v-2.16h-4.45v2.16h4.45Z"/><path class="d" d="M66.99,99.71c-.26,1.95-.81,3.69-1.64,5.38-.99,1.98-2,3.25-3.69,4.63l-.29-.26c1.72-2.11,2.68-4.16,3.33-6.94,.47-2,.6-3.25,.68-6.94,.03-1.22,.08-4.78,.08-5.82,0-1.35-.03-2.13-.13-3.35,.94,.55,1.22,.73,2.08,1.33h13.91c.44-.55,.57-.7,1.07-1.22,.73,.52,.94,.68,1.64,1.22,.21,.16,.31,.26,.31,.36,0,.18-.16,.29-.96,.78v12.09c0,2.26,0,3.28,.05,6.6-.08,.65-.23,.88-.81,1.2-.47,.26-1.07,.44-2.29,.65-.36-1.53-.57-1.66-3.46-2.03v-.39q.96,.05,2.47,.13,.94,.05,1.69,.08h.21c.26,0,.31-.08,.31-.36v-7.12h-6.42v2.37q.03,1.69,.03,3.12,.03,1.25,.05,2.24c-.03,.39-.26,.52-1.04,.55h-.36c-.36,0-.52-.13-.52-.42,.03-1.59,.05-4.45,.05-5.49v-2.37h-6.34Zm6.34-5.96h-6.08c-.03,2.44-.05,3.8-.18,5.36h6.27v-5.36Zm0-5.43h-6.08c.03,.55,.03,1.01,.03,1.25,0,.21,0,.81-.03,1.61v1.98h6.08v-4.84Zm8.22,4.84v-4.84h-6.42v4.84h6.42Zm0,5.95v-5.36h-6.42v5.36h6.42Z"/><path class="d" d="M73.8,133.88c2.81-.83,4.6-1.9,6.08-3.61,1.53-1.74,2.31-3.88,2.31-6.27,0-2.52-1.01-4.52-2.94-5.75-1.14-.75-2.86-1.2-4.5-1.2-.31,0-.49,0-.91,.05,.62,.91,.81,1.4,.81,2.16,0,2.03-1.46,5.82-3.43,9-1.64,2.6-2.91,3.87-3.87,3.87-.44,0-.86-.21-1.14-.55-.23-.31-.29-.42-.73-1.66-.23-.68-.39-.99-1.14-2.44-.42-.83-.6-1.53-.6-2.37,0-1.64,.88-3.56,2.34-5.15,2.11-2.24,5.54-3.64,8.94-3.64,2.63,0,5.04,.86,6.71,2.39s2.5,3.59,2.5,6.11c0,3.25-1.9,6.14-5.17,7.88-1.51,.81-2.86,1.22-5.07,1.61l-.18-.44Zm-8.55-8.09c0,1.25,.39,2.52,1.04,3.43,.36,.47,.7,.75,.99,.75,.57,0,1.82-1.4,3.09-3.43,1.92-3.07,3.3-6.42,3.3-8.03,0-.39-.08-.65-.36-1.3-4.52,.81-8.06,4.58-8.06,8.58Z"/><path class="d" d="M36.88,7.57h.81c.47-.62,.62-.83,1.09-1.51,.86,.7,1.12,.94,1.9,1.69,.08,.1,.13,.18,.13,.23,0,.1-.1,.18-.26,.18h-3.67v2.11c2.47,1.33,3.2,1.98,3.2,2.86,0,.81-.34,1.53-.75,1.53-.16,0-.26-.1-.36-.42-.47-1.33-1.25-2.57-2.08-3.41v4.6l.08,8.19v.05c0,.31-.26,.39-1.12,.39-.6,0-.68-.03-.68-.31l.23-10.84,.08-2.16c-1.3,3.54-2.29,5.3-4.34,7.8l-.34-.23c1.46-2.52,1.77-3.17,2.6-5.38,.83-2.11,1.12-3.02,1.53-4.78h-2c-.75,0-1.01,.03-1.59,.16l-.18-.94c.52,.13,.96,.18,1.85,.18h2.24V3.59c-1.43,.29-2.08,.39-3.77,.57l-.08-.36c2-.52,3.2-.96,4.94-1.82,1.46-.73,1.85-.96,2.44-1.56,2.37,1.2,2.42,1.22,2.42,1.43,0,.16-.18,.26-.49,.26-.18,0-.52-.03-.83-.05-1.3,.6-1.77,.78-2.99,1.12V7.57Zm9,5.17c-.08,1.56-.26,2.86-.6,4.08-.62,2.29-1.92,4.06-3.98,5.43-.99,.65-1.74,.99-3.46,1.56l-.18-.36c2.11-1.09,3.2-1.92,4.32-3.38,1.48-1.92,2.13-4.13,2.13-7.33h-1.25v.78c0,.36-.18,.44-1.09,.44-.57,0-.6-.03-.6-.29,.05-1.38,.05-2.03,.05-3.54,0-2.83-.03-4-.13-5.49,.94,.47,1.2,.62,2.05,1.17h4.45c.88-1.48,1.74-3.56,2.13-5.23,.57,.21,1.01,.36,1.3,.47,1.25,.44,1.53,.57,1.53,.75,0,.23-.26,.31-1.22,.44-1.46,1.87-2.29,2.83-3.15,3.56h2.47c.44-.52,.57-.7,.99-1.2,.62,.47,.83,.6,1.4,1.07,.21,.13,.29,.23,.29,.34,0,.21-.18,.34-.75,.62,0,3.56,0,4.58,.1,6.68,0,.39-.26,.49-1.25,.49-.44,0-.55-.05-.55-.31v-.78h-1.51v8.29q0,.52,1.51,.52h.47c1.01,0,1.25-.08,1.43-.57,.39-.88,.44-1.09,1.43-5.2l.34,.05-.31,4.68v.18q0,.55,.68,.75c.23,.05,.36,.26,.36,.52,0,.86-.7,1.04-4.11,1.04-2.08,0-2.57-.05-2.94-.26-.34-.18-.47-.44-.52-1.14V12.74h-1.85ZM42.15,.55c2.13,1.38,3.17,2.47,3.17,3.25s-.49,1.59-.96,1.59c-.23,0-.36-.18-.57-.81-.6-1.74-.99-2.5-1.92-3.82l.29-.21Zm.7,11.6h8.03V6.42h-8.03v5.72Z"/><path class="d" d="M39.22,30.42c.36-.49,.49-.65,.91-1.09,.86,.57,1.09,.75,1.9,1.38,.13,.16,.18,.23,.18,.34,0,.21-.23,.29-1.07,.34-1.85,1.61-2.5,2.11-3.61,2.78,.49,.39,.68,.73,.68,1.14,0,.31-.1,.62-.29,.99-.16,.29-.23,.36-.49,.55h2.16c.44-.47,.57-.6,1.07-1.04,.7,.49,.91,.65,1.59,1.14,.21,.18,.31,.31,.31,.42v.03q-.03,.18-1.25,.42c-1.17,1.69-1.56,2.13-2.65,3.3l-.29-.18c.57-1.2,.57-1.22,1.22-3.48h-2.05v6.37c0,3.74,.03,5.82,.03,6.21,0,1.3-.57,1.79-2.63,2.24-.1-1.48-.42-1.69-2.99-2l.05-.42c.47,.03,.83,.05,1.07,.05,1.48,.1,1.51,.1,2.5,.13,.31-.03,.39-.1,.39-.34v-8.63c-1.59,3.12-2.68,4.47-5.33,6.55l-.26-.29c1.72-1.85,2.7-3.22,3.72-5.15,.81-1.53,1.12-2.39,1.82-4.73h-2.57q-1.01,0-2.21,.13l-.23-.91c1.01,.16,1.43,.18,2.31,.18h4.03q-.21-.18-.52-.78c-.91-1.79-1.3-2.24-3.2-3.85l.26-.29c1.79,.88,2.55,1.33,3.3,1.87,.91-.94,1.3-1.43,2.16-2.78h-5.46c-.88,0-1.53,.03-2.31,.13l-.21-.91c1.12,.16,1.56,.18,2.52,.18h5.46Zm6.03,12.79c.21-.96,.31-1.74,.31-2.47,0-.05,0-.29-.03-.49,2.31,.21,2.76,.31,2.76,.57,0,.08-.08,.16-.16,.21s-.39,.16-.88,.34c-.16,.99-.23,1.35-.34,1.85h4.32c.39-.55,.52-.7,.91-1.2,.73,.49,.96,.65,1.64,1.17,.26,.18,.34,.29,.34,.39,0,.21-.31,.42-.99,.68-.29,3.48-.65,5.2-1.35,6.42-.52,.91-1.38,1.3-2.99,1.4-.23-1.38-.68-1.64-3.8-2.16l.05-.44c.57,.05,1.01,.1,1.3,.16,1.69,.18,2.81,.29,3.48,.29,.42,0,.6-.18,.81-.86,.42-1.25,.7-3.15,.78-5.25h-4.63c-.55,1.98-1.33,3.43-2.6,4.84-1.12,1.22-2.52,2.21-4.11,2.91-.73,.31-1.27,.49-2.52,.83l-.23-.42c1.51-.57,2.29-.99,3.46-1.82,2.34-1.69,3.56-3.46,4.32-6.34h-2.7c-.83,0-1.53,.03-2.5,.13l-.16-.91q1.56,.18,2.65,.18h2.86Zm7.28-10.37c-1.01,1.82-1.9,2.91-3.64,4.52,2,1.12,3.85,1.64,6.66,1.87v.36c-.99,.21-1.33,.57-1.64,1.69-2.73-.96-4.24-1.74-5.96-3.12-2.18,1.74-4.78,2.86-8.89,3.82l-.16-.44c3.59-1.22,5.8-2.42,8.01-4.34-1.3-1.3-2.08-2.39-2.83-3.93-.96,1.2-1.48,1.72-2.68,2.7l-.26-.29c1.9-2.42,2.81-4.24,3.61-7.12,.57,.16,1.04,.31,1.33,.39,1.09,.31,1.27,.39,1.27,.62s-.31,.36-1.17,.44c-.65,1.09-.88,1.51-1.35,2.21h6.68c.62-.68,.83-.88,1.4-1.56,.99,.73,1.27,.99,2.24,1.77,.03,.08,.08,.18,.08,.21,0,.1-.1,.18-.23,.18h-2.47Zm-4.89,3.69c1.27-1.25,1.95-2.16,2.78-3.69h-6.01c.73,1.4,1.64,2.44,3.22,3.69Z"/><path class="d" d="M48.99,67.11l1.66-2.03c1.14,.99,1.51,1.27,2.6,2.26,.08,.08,.1,.16,.1,.21,0,.08-.13,.16-.26,.16h-9.96v11.23h7.57c.73-.96,.96-1.25,1.66-2.11,1.2,.99,1.56,1.3,2.7,2.34,.08,.08,.1,.16,.1,.21,0,.08-.1,.16-.21,.16h-21.03c-.81,0-1.4,.05-2.16,.21l-.21-1.01c.94,.18,1.33,.21,2.37,.21h7.33v-17.92c0-1.48-.05-2.29-.21-3.17,.62,.08,1.09,.16,1.38,.18,1.4,.18,1.66,.26,1.66,.47s-.23,.34-.96,.55v8.06h5.85Z"/><path class="d" d="M42.8,105.28c2.81-.83,4.6-1.9,6.08-3.61,1.53-1.74,2.31-3.87,2.31-6.27,0-2.52-1.01-4.52-2.94-5.75-1.14-.75-2.86-1.2-4.5-1.2-.31,0-.49,0-.91,.05,.62,.91,.81,1.4,.81,2.16,0,2.03-1.46,5.82-3.43,9-1.64,2.6-2.91,3.88-3.87,3.88-.44,0-.86-.21-1.14-.55-.23-.31-.29-.42-.73-1.66-.23-.68-.39-.99-1.14-2.44-.42-.83-.6-1.53-.6-2.37,0-1.64,.88-3.56,2.34-5.15,2.11-2.24,5.54-3.64,8.94-3.64,2.63,0,5.04,.86,6.71,2.39s2.5,3.59,2.5,6.11c0,3.25-1.9,6.14-5.17,7.88-1.51,.81-2.86,1.22-5.07,1.61l-.18-.44Zm-8.55-8.09c0,1.25,.39,2.52,1.04,3.43,.36,.47,.7,.75,.99,.75,.57,0,1.82-1.4,3.09-3.43,1.92-3.07,3.3-6.42,3.3-8.03,0-.39-.08-.65-.36-1.3-4.52,.81-8.06,4.58-8.06,8.58Z"/><path class="d" d="M10.79,15.73c0,.91,.03,1.79,.18,7.54-.05,.31-.36,.42-1.33,.42-.47,0-.6-.05-.62-.34,.03-1.25,.05-4.52,.05-5.8v-.81c-2.78,1.3-2.86,1.35-7.54,3.17-.03,.23-.05,.44-.08,.57-.03,.36-.13,.52-.31,.52-.1,0-.18-.08-.29-.26-.16-.31-.55-1.48-.86-2.44,1.09-.16,1.51-.23,2.63-.47V2.26h-.81c-.49,0-.88,.05-1.66,.18l-.16-1.01c.57,.13,1.4,.23,1.98,.23H11.34c.62-.73,.81-.96,1.4-1.66,.96,.78,1.27,1.07,2.21,1.95,.08,.05,.13,.13,.13,.16,0,.08-.08,.16-.18,.16h-4.11V15.73ZM4.42,2.26V6.81h4.65V2.26H4.42Zm0,5.15v4.29h4.65V7.41H4.42Zm0,4.89v5.15q1.56-.39,4.65-1.25v-3.9H4.42Zm15.94-7.98c.52-.55,.68-.7,1.2-1.22,.78,.6,1.04,.78,1.77,1.38,.23,.18,.31,.29,.31,.39q0,.18-1.17,.73c-1.14,5.43-2.21,8.37-4,11.15,.52,.62,.91,1.07,1.46,1.59,1.53,1.48,2.7,2.26,4.91,3.22l-.13,.36c-.83,0-1.17,.29-1.77,1.46-2.55-1.74-3.95-3.12-5.43-5.3-1.95,2.42-3.59,3.93-5.96,5.33l-.26-.31c2.34-1.98,3.9-3.77,5.46-6.27-1.98-3.46-3.04-7.2-3.35-11.91h-.16c-.88,0-1.01,0-1.69,.1l-.13-.96c.75,.18,1.3,.26,1.82,.26h7.12Zm-6.4,.6c.26,2.29,.55,3.54,1.14,5.38,.65,1.98,1.38,3.56,2.42,5.15,1.61-3.07,2.5-6.14,3.07-10.53h-6.63Z"/><path class="d" d="M6.37,34.37c.57-.7,.75-.91,1.35-1.53,.88,.73,1.14,.99,1.98,1.82,.03,.05,.05,.1,.05,.16,0,.1-.1,.16-.26,.16H5.3v5.36c1.56-.52,2.11-.73,3.82-1.46l.16,.36c-2.05,1.22-2.52,1.48-3.98,2.24v2.31l.03,6.97c-.05,.99-.6,1.4-2.44,1.79-.26-1.22-.52-1.35-2.68-1.64v-.39c1.4,.1,1.85,.13,3.04,.13,.31-.03,.39-.08,.39-.44v-7.98q-.42,.18-1.09,.55-.49,.23-.91,.42c-.08,1.01-.16,1.2-.39,1.2q-.26,0-1.04-2.55c.94-.18,2.16-.52,3.43-.94v-5.93H1.98c-.47,0-1.25,.05-1.66,.1l-.18-.91c.6,.16,1.2,.21,1.95,.21h1.56v-2.24q-.05-2.5-.1-3.28c2.57,.23,2.94,.31,2.94,.57,0,.21-.26,.36-1.17,.65v4.29h1.07Zm13.75,2.73c.44-.49,.57-.65,1.04-1.12,.68,.55,.88,.73,1.51,1.27,.23,.21,.34,.34,.34,.44,0,.21-.08,.23-1.14,.62-1.51,3.61-2.47,5.3-4.16,7.41,.68,.7,1.3,1.22,2.05,1.79,1.69,1.25,2.7,1.74,4.76,2.31l-.03,.36c-1.07,.16-1.53,.55-2.03,1.69-2.68-1.61-4.11-2.86-5.82-4.99-1.04,1.09-2.11,2-3.28,2.81-1.74,1.17-3.22,1.87-6.24,2.89l-.23-.39c2.34-.96,3.93-1.95,5.93-3.64,1.09-.91,1.98-1.82,2.89-2.94-1.82-2.76-2.63-5.12-3.51-10.32-.13,2.81-.29,4.08-.83,6.42-.65,2.91-1.3,4.52-2.78,6.92-1.01,1.61-1.59,2.31-2.89,3.59l-.29-.34c1.12-1.38,1.61-2.16,2.37-3.85,1.01-2.37,1.79-4.86,2.21-7.31,.34-2.05,.62-5.54,.62-8.03q0-.62-.03-1.66h-.7c-.7,0-1.27,.03-1.82,.1l-.16-.91c.7,.13,1.3,.21,1.98,.21h7.46c.47-.47,.6-.62,1.07-1.07q.62,.49,1.43,1.12c.18,.18,.26,.26,.26,.36,0,.18-.13,.26-1.14,.65-.49,1.85-.55,1.95-1.74,5.59h2.91Zm-7.72-5.75c0,2.34,.16,3.82,.7,5.77,.73,2.76,1.98,5.36,3.51,7.33,1.66-2.29,2.52-3.95,3.51-6.76h-3.12c-.13,.29-.16,.36-.26,.65-.13,.16-.21,.21-.44,.21-.88,0-1.35-.13-1.35-.34,0-.1,.03-.21,.1-.34,1.27-3.2,1.64-4.34,2.29-6.84h-4.94v.31Z"/><path class="d" d="M10.84,66.3c-1.9,4.37-2.44,5.9-2.44,6.94q0,.21,.16,.88c.03,.13,.05,.29,.05,.42,0,.36-.26,.65-.57,.65-.73,0-2.05-1.01-2.86-2.21-.88-1.27-1.51-3.12-1.77-5.2-.16-1.14-.18-1.79-.18-4.58-.03-2.42-.21-3.02-1.33-4.47h.23c.42,0,1.17,.49,1.95,1.27,.78,.75,1.17,1.46,1.17,2.05,0,.16-.03,.36-.08,.68-.31,1.59-.47,2.81-.47,3.87,0,1.4,.21,2.7,.6,3.77,.39,1.07,.7,1.53,1.35,2.03q.29-.42,.86-1.38,.83-1.4,2.18-3.67,.42-.68,.75-1.25l.39,.18Zm5.54-4.71c3.28,.73,5.88,4.19,5.88,7.77,0,1.25-.52,2.05-1.3,2.05-.26,0-.42-.05-.78-.29-.34-.23-.83-.31-1.95-.31-.6,0-1.09,0-1.98,.05l-.08-.39c2.11-.57,3.28-.91,3.51-.99,.52-.18,.6-.29,.6-.78,0-.96-.36-2.47-.81-3.41-.7-1.51-1.74-2.6-3.22-3.41l.13-.31Z"/><path class="d" d="M7.23,91.83c-.05,.23-.44,1.87-1.17,4.89-.36,1.53-.44,1.95-.44,2.76,0,.75-.03,.96-.08,1.12-.1,.29-.34,.44-.62,.44-.44,0-.83-.36-1.12-1.07-.57-1.35-.91-3.46-.91-5.54,0-.78,.08-1.74,.21-2.78q.18-1.51,.91-4.92c.26-1.22,.36-1.87,.36-2.42,0-.86-.21-1.51-.73-2.44,.57,.03,1.04,.36,1.74,1.27,.65,.81,.96,1.48,.96,2.05,0,.42-.03,.52-.55,1.56-.52,1.09-1.14,2.91-1.4,4.13-.23,.99-.34,2.11-.34,3.22,0,1.43,.13,2.34,.49,3.43,.44-.91,.65-1.43,.94-2.21l1.38-3.64,.36,.13Zm3.28,1.3c-.05,.52-.08,.75-.08,1.09,0,2.86,1.64,4.03,5.67,4.03,.75,0,1.51-.05,2.21-.18q.55-.08,1.38-.42c.16-.05,.29-.08,.39-.08,.68,0,1.64,.91,1.64,1.53,0,.31-.21,.52-.57,.65-.55,.18-1.79,.29-3.25,.29-3.25,0-5.56-.55-6.73-1.59-.94-.86-1.4-1.95-1.4-3.38,0-.65,.08-1.22,.31-2.05l.44,.1Zm-.05-8.27c.91,.55,1.48,.7,2.42,.7,1.61,0,4.13-.57,5.23-1.17,.34-.18,.39-.21,.57-.21,.21,0,.55,.13,.91,.36,.55,.31,.81,.62,.81,.96s-.18,.49-.73,.6c-1.72,.26-2.68,.49-3.69,.91-.81,.34-2.31,1.17-3.35,1.85l-.26-.26c1.17-.99,2.05-1.72,2.47-2.03-.55,.03-.83,.05-1.07,.05-1.46,0-2.42-.39-3.54-1.46l.23-.31Z"/><path class="d" d="M9.72,124.39c2.39-.6,4.11-1.25,5.75-2.18,3.04-1.72,4.78-4.26,4.78-6.99s-1.92-4.37-4.76-4.37c-3.04,0-7.02,1.66-10.45,4.34-.42,.34-.68,.44-.99,.44-1.22,0-3.12-1.82-3.12-2.99,0-.18,.05-.34,.21-.65,.26,.55,.42,.73,.73,.96,.39,.29,.7,.42,1.07,.42,.68,0,1.66-.29,3.15-.94,4.11-1.79,6.81-2.5,9.52-2.5,3.95,0,6.66,2.31,6.66,5.72,0,3.22-2.18,6.01-5.98,7.62-1.98,.83-3.87,1.27-6.42,1.51l-.13-.39Z"/><path class="d" d="M10.84,139.18c-1.9,4.37-2.44,5.9-2.44,6.94q0,.21,.16,.88c.03,.13,.05,.29,.05,.42,0,.36-.26,.65-.57,.65-.73,0-2.05-1.01-2.86-2.21-.88-1.27-1.51-3.12-1.77-5.2-.16-1.14-.18-1.79-.18-4.58-.03-2.42-.21-3.02-1.33-4.47h.23c.42,0,1.17,.49,1.95,1.27,.78,.75,1.17,1.46,1.17,2.05,0,.16-.03,.36-.08,.68-.31,1.59-.47,2.81-.47,3.87,0,1.4,.21,2.7,.6,3.77,.39,1.07,.7,1.53,1.35,2.03q.29-.42,.86-1.38,.83-1.4,2.18-3.67,.42-.68,.75-1.25l.39,.18Zm5.54-4.71c3.28,.73,5.88,4.19,5.88,7.77,0,1.25-.52,2.05-1.3,2.05-.26,0-.42-.05-.78-.29-.34-.23-.83-.31-1.95-.31-.6,0-1.09,0-1.98,.05l-.08-.39c2.11-.57,3.28-.91,3.51-.99,.52-.18,.6-.29,.6-.78,0-.96-.36-2.47-.81-3.41-.7-1.51-1.74-2.6-3.22-3.41l.13-.31Z"/><path class="d" d="M2.6,158.42c.36,.34,.65,.44,1.17,.44,.73,0,1.38-.13,7.2-1.53,1.09-.26,2.5-.57,4.21-.91,1.98-.39,2.73-.57,3.51-.83,.52-.16,.7-.21,.91-.21,.31,0,.88,.23,1.4,.55,.52,.34,.75,.62,.75,.99,0,.39-.31,.65-.81,.65-.1,0-.29,0-.47-.03-.34-.05-.47-.05-.73-.05-4.45,0-8.74,4.24-8.74,8.61,0,2.39,1.2,4.16,3.43,5.12,.86,.36,1.9,.6,2.65,.62,.52,0,.7,.08,1.09,.42,.47,.47,.78,.94,.78,1.25,0,.44-.39,.73-.96,.73-1.48,0-3.82-.83-5.28-1.87-1.98-1.4-3.02-3.41-3.02-5.82,0-2.11,1.04-4.42,2.83-6.34,1.04-1.14,2.08-1.85,4.24-2.96-2.37,.34-4.5,.83-7.46,1.79-1.64,.52-3.33,1.22-4.16,1.66-.52,.31-.7,.36-1.04,.36-.62,0-1.4-.6-2-1.53-.42-.62-.68-1.33-.68-1.74,0-.21,.05-.36,.29-.68,.23,.62,.44,.96,.86,1.33Z"/></g></g></g></svg>