<svg xmlns="http://www.w3.org/2000/svg" width="1094" height="296.5" viewBox="0 0 1094 296.5">
  <g id="グループ_4563" data-name="グループ 4563" transform="translate(-95.815 -5548)">
    <path id="パス_4132" data-name="パス 4132" d="M0,0H1094V296H0Z" transform="translate(95.815 5548.5)" fill="#fff"/>
    <path id="パス_4131" data-name="パス 4131" d="M-212.112-30.672H-222.3V-11.3h1.548v-17.82h8.64Zm17.172,15.66a40.019,40.019,0,0,0,4.464-6.588c1.62-.36,1.8-.432,1.8-.72,0-.108-.072-.216-.4-.576-.864-.756-1.152-1.008-2.124-1.8-.756.756-1.008.972-1.728,1.8h-2.016v-5.292c1.08-.36,1.368-.54,1.368-.828,0-.36-.468-.468-2.2-.612-.4-.036-1.008-.108-1.8-.18a12.206,12.206,0,0,1,.288,3.132v3.78h-2.88a13.457,13.457,0,0,1-2.808-.324l.252,1.332a19.017,19.017,0,0,1,2.556-.18h7.236a37.119,37.119,0,0,1-4.428,7.38,34.022,34.022,0,0,1-6.012,6.372l.4.54a30.067,30.067,0,0,0,5.688-4.572v6.264c-.072,5.184-.108,7.956-.108,8.352.108.288.252.36.792.36h.468c.9,0,1.188-.144,1.3-.612-.072-1.692-.072-1.692-.108-8.28V-14a15.856,15.856,0,0,1,4.428,4.1c.648.972.684,1.008.9,1.188a2.3,2.3,0,0,0,.4.216c.432,0,.792-.828.792-1.728a2.684,2.684,0,0,0-1.656-2.52,19.508,19.508,0,0,0-4.86-1.908Zm12.6-1.476V-.18h-6.372a25.826,25.826,0,0,1-3.744-.288L-192.132.9a17.374,17.374,0,0,1,3.42-.252h18.828c.18,0,.36-.108.36-.252a.468.468,0,0,0-.18-.252,44.918,44.918,0,0,0-3.348-3.132c-1.116,1.224-1.44,1.62-2.412,2.808h-4.392V-16.488h9a.356.356,0,0,0,.36-.288.619.619,0,0,0-.144-.252c-1.44-1.332-1.908-1.728-3.42-2.988l-2.088,2.7h-3.708V-28.152c1.044-.4,1.44-.648,1.44-.936,0-.324-.432-.468-2.3-.648-.36-.036-1.116-.108-1.872-.216a30.018,30.018,0,0,1,.252,4.5v8.136h-5.112a15.16,15.16,0,0,1-3.168-.288l.288,1.368a22.539,22.539,0,0,1,2.88-.252Zm51.732,6.552a.291.291,0,0,0,.324-.252c0-.036-.108-.18-.18-.324-1.476-1.224-1.944-1.62-3.492-2.772-.864,1.044-1.116,1.368-1.98,2.52h-20.772a11.524,11.524,0,0,1-2.844-.288l.288,1.332a11.474,11.474,0,0,1,2.556-.216h7.308a49.8,49.8,0,0,1-3.852,8.352,5.175,5.175,0,0,1-.648.036c-.432,0-.9,0-1.512-.036-2.052-.072-2.052-.072-2.916-.108.18,1.008.5,2.484.72,3.456.144.612.216.684.432.684.288,0,.4-.18.756-1.26a178.515,178.515,0,0,0,19.332-2.772,31.745,31.745,0,0,1,1.872,3.276c.216.4.36.54.612.54a.8.8,0,0,0,.612-.36,5.524,5.524,0,0,0,.576-2.232,3.505,3.505,0,0,0-1.368-2.52,40.816,40.816,0,0,0-7.2-5.4l-.288.36a35.88,35.88,0,0,1,4.68,5.58c-3.564.4-9.036.684-14.652.756,2.124-2.412,2.52-2.988,6.156-8.352Zm-30.672-3.348a37.99,37.99,0,0,0,8.532-5.832,42.488,42.488,0,0,0,7.776-9.036,12.648,12.648,0,0,0,1.512,2.7,41.835,41.835,0,0,0,4.968,5.9,31.181,31.181,0,0,0,8.028,5.76c.684-2.052,1.116-2.556,2.592-2.952v-.36a25.188,25.188,0,0,1-8.676-3.6,23.722,23.722,0,0,1-7.812-7.776c.792-.036,1.368-.324,1.368-.648,0-.288-.288-.4-4.248-1.3a10.047,10.047,0,0,1-1.188,2.628,51.352,51.352,0,0,1-7.92,9.72,31.055,31.055,0,0,1-5.292,4.284Zm7.272-2.484c1.332-.108,1.872-.144,2.484-.144H-137.2c.324,0,.468-.072.468-.216a.435.435,0,0,0-.216-.324c-1.4-1.188-1.872-1.548-3.312-2.7-.9,1.008-1.152,1.332-2.016,2.412h-9.072a16.011,16.011,0,0,1-2.916-.288Zm55.98,5.292h6.264v4.428c0,.36-.144.54-.468.54h-.18c-.756-.036-.792-.036-2.124-.144l-2.232-.108v.5a3,3,0,0,0,.54.144l.684.18a8.53,8.53,0,0,1,1.656.5c.5.288.612.468.828,1.548a6.517,6.517,0,0,0,2.376-.5,2.248,2.248,0,0,0,1.332-2.16V-6.588c0-.324,0-1.08-.036-2.268v-11.16c.756-.4,1.152-.756,1.152-1.008a.573.573,0,0,0-.18-.36,21.244,21.244,0,0,0-2.124-1.548l-1.548,1.548H-97.02a1.641,1.641,0,0,0,.18-.828,4.43,4.43,0,0,0-.108-1.188c2.7-1.62,4.1-2.484,5.508-3.492a8.475,8.475,0,0,1,1.332-.36l.432-.108c.432-.18.648-.288.648-.5,0-.108-.108-.216-.36-.4-1.188-.864-1.548-1.116-2.736-1.908-.576.612-1.08,1.116-1.512,1.584h-12.6a20.583,20.583,0,0,1-3.492-.324l.324,1.368a26.3,26.3,0,0,1,3.168-.216H-93.78a32.165,32.165,0,0,1-3.528,3.816,22,22,0,0,0-6.7-2.628l-.288.36a15.962,15.962,0,0,1,3.6,2.448,11.2,11.2,0,0,1,2.268,2.376H-106.2c-1.008-.576-1.332-.756-2.448-1.3.108,2.052.144,3.888.144,6.624,0,5.364-.072,10.692-.144,13.032.072.18.18.252.432.252.432,0,1.62-.072,1.728-.072.216-.072.288-.216.324-.54v-.54L-106.2-6.8v-3.672h5.976v1.224c-.072,3.708-.144,5.76-.18,6.156.072.252.144.324.4.324a11.252,11.252,0,0,0,1.548-.144c.324-.036.432-.144.468-.5,0-3.78,0-3.78-.036-6.192Zm0-.828v-4.14h6.264v4.14Zm-2.2,0H-106.2v-4.14h5.976Zm2.2-4.968v-4.284h6.264v4.284Zm-2.2,0H-106.2v-4.284h5.976Zm-18.864-12.636a24.457,24.457,0,0,1,2.16,2.736,29.15,29.15,0,0,1,2.016,3.924c.432,1.188.576,1.4.972,1.4.684,0,1.476-1.44,1.476-2.664a3.438,3.438,0,0,0-1.152-1.944,26.23,26.23,0,0,0-5-3.816Zm-.684,14.94a14.211,14.211,0,0,1,2.7-.216h2.484V-4.86a20.708,20.708,0,0,1-4.68,2.808c-.18.108-.5.252-.9.468,1.476,2.988,1.872,3.672,2.124,3.672s.432-.288.432-.72a.9.9,0,0,0-.036-.288V.54c.5-.612.5-.612,1.908-2.2.288-.36.288-.36,1.26-1.62.828-1.044.828-1.044,1.3-1.584A9.021,9.021,0,0,0-109.26.072c2.376,1.512,4.32,1.728,15.012,1.728l5.076-.108,1.116-.036c.108-1.4.4-1.8,1.908-2.556v-.36c-2.952.252-13.14.612-16.092.612A23,23,0,0,1-106.164-.9a10.048,10.048,0,0,1-4.9-2.052,3.234,3.234,0,0,1-1.116-1.908v-8.676c.72-.4,1.116-.756,1.116-.936,0-.072-.036-.144-.216-.36a14.043,14.043,0,0,0-2.34-1.728,16.916,16.916,0,0,0-1.26,1.548h-2.2a13.223,13.223,0,0,1-3.06-.4Zm40.788-.612a32.486,32.486,0,0,0,9.4-5.688c2.628-2.124,4.032-3.6,7.524-7.812a33.327,33.327,0,0,0,6.84,7.632,31.98,31.98,0,0,0,8.028,4.86,4.015,4.015,0,0,1,.684-1.764,2.36,2.36,0,0,1,1.62-1.044l.108-.36a30.458,30.458,0,0,1-12.744-5.688,14.265,14.265,0,0,1-4-4.068c1.08-.288,1.4-.468,1.4-.72,0-.288-.432-.432-4.176-1.224a22.678,22.678,0,0,1-4.068,5.94,40.547,40.547,0,0,1-10.908,9.36Zm10.908-4.464c.9-.072,1.332-.108,1.908-.108h9.684c.18,0,.36-.108.36-.252a.672.672,0,0,0-.18-.36c-1.116-1.044-1.476-1.332-2.664-2.34-.792.9-1.044,1.188-1.836,2.124h-5.364a13.256,13.256,0,0,1-2.2-.252Zm-5.256,10.3a10.6,10.6,0,0,1-1.008,3.78,6.743,6.743,0,0,1-2.592,2.844c-.756.36-.864.468-.864.972,0,1.116.54,2.088,1.152,2.088C-76,.936-75.168.252-74.376-.9c1.224-1.8,1.584-3.492,1.62-7.74Zm3.888,8.532c0,1.3.5,1.944,1.584,2.052.612.072,3.42.108,6.444.108a40.977,40.977,0,0,0,6.48-.36C-54.036,1.4-53.6,1.008-53.6.4c0-.5-.324-.792-1.116-.936-.612-.072-.648-.108-.648-.468v-.5l.252-4.356-.4-.036A35.542,35.542,0,0,1-56.844-1.62c-.324.9-.54,1.188-.9,1.332a19.312,19.312,0,0,1-4.464.252c-1.008,0-2.2-.036-3.492-.108h-.72c-.432-.036-.648-.144-.648-.36V-7.38c1.26-.468,1.44-.576,1.44-.864s-.54-.432-2.16-.576c-.4-.036-1.044-.108-1.872-.18a11.59,11.59,0,0,1,.216,2.484Zm-3.1-14.76a15.716,15.716,0,0,1,2.16-.18h13.9a40.438,40.438,0,0,1-3.1,5.364.8.8,0,0,0-.18.4c0,.216.54.4,1.26.4,1.008,0,1.224-.072,1.512-.36.936-1.584.936-1.584,2.772-5.22,1.3-.252,1.584-.4,1.584-.648,0-.108-.072-.216-.288-.468-.9-.756-1.188-.972-2.16-1.728-.612.612-.792.792-1.4,1.44H-70.2a12.431,12.431,0,0,1-2.592-.288Zm18.756,6.66A34.193,34.193,0,0,1-49.176,0c.18.432.36.612.612.612.72,0,1.512-1.3,1.512-2.412,0-.756-.288-1.26-1.548-2.556A35.311,35.311,0,0,0-53.46-8.64Zm-12.384-2.3A22.816,22.816,0,0,1-61.452-4.9c.684,1.08.684,1.116.972,1.116.468,0,1.044-1.152,1.044-2.088,0-.756-.324-1.26-1.224-1.944a34.718,34.718,0,0,0-5.22-3.2Zm45.648-6.012v-11.16c1.008-.288,1.332-.468,1.332-.756s-.36-.4-2.3-.648c-.4-.036-1.044-.144-1.908-.252a23.536,23.536,0,0,1,.288,4.392v24.8H-33.264A13.713,13.713,0,0,1-36.54-.54l.288,1.4A13.575,13.575,0,0,1-33.264.576H-4.14c.144,0,.288-.108.288-.216A.43.43,0,0,0-4,.072C-5.58-1.368-6.084-1.8-7.74-3.168c-.972,1.188-1.3,1.584-2.3,2.916H-20.52V-15.8H-6.732c.18,0,.36-.108.36-.216a.43.43,0,0,0-.144-.288c-1.512-1.368-2.016-1.764-3.6-3.132l-2.3,2.808ZM12.924-22v-6.192c1.188-.432,1.548-.612,1.548-.936,0-.4-.468-.5-4.032-.9a37.778,37.778,0,0,1,.144,4.212V-22H6.912a11.938,11.938,0,0,1-2.628-.288l.216,1.3a18.584,18.584,0,0,1,2.412-.18h3.24a32.909,32.909,0,0,1-1.8,6.264A50.773,50.773,0,0,1,3.78-5.724l.36.324a25.512,25.512,0,0,0,4.032-5.508,32.035,32.035,0,0,0,2.916-6.516l-.216,4.1c-.072.792-.072,2.52-.072,5.04,0,.828-.036,1.548-.036,2.52-.036,1.908-.036,1.908-.18,7.92.036.324.108.4.468.4a7.181,7.181,0,0,0,1.692-.216c.252-.108.324-.144.324-.36V1.944C13-2.916,13-2.916,12.96-16.884a17.542,17.542,0,0,1,3.06,4.824c.576,1.332.72,1.512,1.08,1.512.5,0,1.08-1.224,1.08-2.376,0-1.044-.468-1.62-2.34-2.952a32.291,32.291,0,0,0-2.88-1.764v-3.528h5.9c.216,0,.36-.072.36-.18a.608.608,0,0,0-.072-.18c-1.224-1.26-1.584-1.62-2.844-2.772-.792.936-1.044,1.26-1.872,2.3ZM22.5-27.468a30.1,30.1,0,0,0-2.7-1.908c.072,4.788.108,7.308.108,14.436,0,11.628,0,11.628-.144,16.488,0,.4.108.5.5.5,1.584,0,2.016-.144,2.016-.612V-.972H32.472V1.44c0,.324.144.432.54.432a6.12,6.12,0,0,0,1.728-.216.437.437,0,0,0,.288-.468c-.108-6.876-.108-6.876-.108-27.108,1.044-.432,1.332-.648,1.332-.936,0-.18-.144-.36-.432-.612-.936-.756-1.224-.972-2.2-1.656-.612.684-.792.9-1.44,1.656Zm9.972,8.136H22.284V-26.64H32.472Zm0,.828v7.7H22.284v-7.7Zm0,8.532V-1.8H22.284V-9.972ZM63.144-15.3V-27.828c1.152-.18,1.656-.432,1.656-.792,0-.4-.54-.54-2.484-.756-.432-.036-1.08-.108-1.98-.216a33.563,33.563,0,0,1,.216,4.068V-15.3H51.3a24.627,24.627,0,0,1-3.2-.288l.288,1.332a22.569,22.569,0,0,1,2.844-.18h21.42v6.264H52.884a19.548,19.548,0,0,1-3.492-.252l.252,1.3a20.757,20.757,0,0,1,3.24-.18H72.648V-.18H51.192A18.5,18.5,0,0,1,47.88-.432L48.1.864A18.006,18.006,0,0,1,51.264.648H72.648V2.124c.036.324.18.432.648.432A5.171,5.171,0,0,0,75.1,2.3c.216-.108.288-.252.288-.612-.072-4.356-.072-5.112-.072-6.588v-8.856c1.044-.5,1.368-.756,1.368-1.08,0-.18-.144-.36-.468-.648-.972-.72-1.3-.972-2.412-1.692-.684.828-.864,1.08-1.476,1.872ZM48.888-27.4a28.76,28.76,0,0,1,4.68,9c.468,1.368.5,1.476.828,1.476.684,0,1.62-1.764,1.62-3.024a4.418,4.418,0,0,0-1.08-2.412A34.062,34.062,0,0,0,49.32-27.72Zm22.536.792a30.682,30.682,0,0,1-1.4,3.276A57.177,57.177,0,0,1,66.2-16.38l.576.288A74.5,74.5,0,0,0,74.2-25.524c1.584-.252,2.052-.432,2.052-.828,0-.36-.216-.432-4.284-1.692ZM87.912,3.312H98.1V-16.056H96.552V1.764h-8.64ZM138.06-27.9c1.512.252,2.2.612,2.592,1.3.288.54.324,1.08.432,4.14.108,2.7.144,3.492.252,4.356.18,1.548.5,2.34,1.044,2.736a2.431,2.431,0,0,0,1.728.54,23.071,23.071,0,0,0-4.392,2.88c-2.376,1.98-3.528,3.96-3.528,6.048a5.705,5.705,0,0,0,3.924,5.328,18.406,18.406,0,0,0,6.12.828,55.816,55.816,0,0,0,6.912-.468c1.152-.216,1.548-.54,1.548-1.188a2.047,2.047,0,0,0-1.944-1.764,3.467,3.467,0,0,0-.72.108,42.017,42.017,0,0,1-8.352,1.044c-4,0-6.048-1.332-6.048-3.924,0-1.692.864-3.1,2.808-4.608,2.268-1.728,4.644-2.808,9-4.032a22.757,22.757,0,0,0,2.412-.756,1.142,1.142,0,0,0,.756-1.08,1.755,1.755,0,0,0-1.728-1.512,3.132,3.132,0,0,0-1.476.432c-3.276,1.548-4.068,1.836-4.824,1.836-1.116,0-1.4-.54-1.4-2.664a28.314,28.314,0,0,1,.792-7.308c.252-.648.288-.648.288-.936v-.072c0-.5-.288-.864-1.008-1.152a11.652,11.652,0,0,0-3.636-.684A1.908,1.908,0,0,0,138.06-27.9Zm41.184,14.472L177.3-8.784l-1.512,3.6a14.285,14.285,0,0,1-.576-4.464,28.142,28.142,0,0,1,2.736-11.736c.576-1.188.576-1.188.576-1.584a5.114,5.114,0,0,0-1.3-2.736c-1.008-1.3-1.692-1.764-2.52-1.8a5.6,5.6,0,0,1,1.044,3.168,15.77,15.77,0,0,1-.54,3.24,53.114,53.114,0,0,0-1.62,11.988,21.322,21.322,0,0,0,1.152,7.236c.432,1.116.936,1.62,1.548,1.62a.815.815,0,0,0,.684-.4c.18-.288.216-.432.252-1.584a12.307,12.307,0,0,1,.468-3.06c.432-1.764,1.44-5.688,2.088-7.956Zm3.816-5.94a7.164,7.164,0,0,0,5.94,2.52,15.959,15.959,0,0,0,3.168-.288l.036,4.608.072,3.852v.612c-1.008-.072-1.512-.108-2.2-.108-4.1,0-6.768,1.584-6.768,4.068,0,2.16,2.2,3.672,5.328,3.672,3.6,0,5.76-1.548,5.76-4.14a7.533,7.533,0,0,0-.036-.864,11.09,11.09,0,0,1,3.888,2.88c.72.72.972.9,1.26.9.4,0,.72-.576.72-1.332,0-2.088-1.764-3.492-5.94-4.608a70.981,70.981,0,0,1-.468-9.792c3.744-.72,6.372-1.8,6.372-2.592a.77.77,0,0,0-.468-.648,4.272,4.272,0,0,0-1.692-.468c-.324,0-.432.036-.792.4a8.7,8.7,0,0,1-3.312,1.476,16.177,16.177,0,0,1,.756-4.824c.324-.828.324-.864.324-1.116,0-.54-.54-.972-1.584-1.3a10.582,10.582,0,0,0-2.448-.324,1.994,1.994,0,0,0-1.728.576,3.67,3.67,0,0,1,2.376.828c.468.5.5.972.5,5v1.584a19.316,19.316,0,0,1-4.1.5,7.484,7.484,0,0,1-4.644-1.476Zm9.18,13.176a4.524,4.524,0,0,1-.468,2.52c-.576,1.116-1.98,1.692-3.96,1.692-2.124,0-3.528-.864-3.528-2.124,0-1.584,1.764-2.52,4.608-2.52A11.629,11.629,0,0,1,192.24-6.192Zm35.316-1.62a7.45,7.45,0,0,1,3.888-6.7c2.484-1.62,2.484-1.62,3.24-2.412a5.534,5.534,0,0,0,1.584-4.1c0-3.888-3.06-6.192-8.208-6.192a11.371,11.371,0,0,0-5.832,1.368,6.092,6.092,0,0,0-3.132,5.076c0,1.044.648,1.512,2.052,1.512,1.224,0,1.62-.36,1.62-1.548a7.427,7.427,0,0,1,.576-3.168c.72-1.512,2.232-2.3,4.356-2.3a5.023,5.023,0,0,1,3.672,1.3,5.22,5.22,0,0,1,1.44,3.744,6.493,6.493,0,0,1-.9,3.348c-.432.756-.468.792-2.412,2.7a9.534,9.534,0,0,0-3.1,5.076,9.752,9.752,0,0,0-.144,2.3Zm-.576,2.844a2.368,2.368,0,0,0-2.412,2.412A2.368,2.368,0,0,0,226.98-.144a2.368,2.368,0,0,0,2.412-2.412A2.368,2.368,0,0,0,226.98-4.968Z" transform="translate(381.815 5635.32)" fill="#9b805b"/>
    <path id="パス_4130" data-name="パス 4130" d="M513,31.181H0A31.181,31.181,0,0,1-31.181,0,31.181,31.181,0,0,1,0-31.181H513A31.181,31.181,0,0,1,544.181,0,31.181,31.181,0,0,1,513,31.181Z" transform="translate(146.815 5707.5)" fill="#fff6d8"/>
    <path id="パス_4129" data-name="パス 4129" d="M6.168-13.9c.624-1.1.912-1.656,1.512-2.952.816-.072,1.08-.168,1.08-.384,0-.24-.456-.432-2.736-1.152a17.435,17.435,0,0,1-1.008,3.408,25.9,25.9,0,0,1-3.5,6.624l.288.24a23.551,23.551,0,0,0,4.032-5.232h5.3V-7.7H6.024A10.81,10.81,0,0,1,3.912-7.9l.192.888a10.993,10.993,0,0,1,1.92-.144h5.112V-.384H3.816A11.835,11.835,0,0,1,1.272-.6l.24.936A13.961,13.961,0,0,1,3.84.168h18.7c.144,0,.288-.072.288-.168a.312.312,0,0,0-.12-.168C21.552-1.1,21.192-1.392,20.04-2.256A22.415,22.415,0,0,1,18.528-.384H12.816V-7.152H20.4c.216,0,.336-.072.336-.168a.35.35,0,0,0-.12-.192C19.584-8.4,19.272-8.664,18.24-9.48c-.6.768-.768,1.008-1.3,1.776H12.816v-5.64h8.208q.288,0,.288-.144c0-.048-.048-.1-.12-.192-1.032-.912-1.368-1.176-2.472-2.016-.6.768-.768,1.008-1.32,1.8H12.816V-18.5c.792-.384.984-.5.984-.7,0-.264-.648-.384-2.808-.552a18.036,18.036,0,0,1,.144,2.424V-13.9ZM38.04-16.032a20.079,20.079,0,0,0,2.808-2.712c.936-.12,1.152-.216,1.152-.432s-.936-.6-2.664-1.1a8.913,8.913,0,0,1-.96,2.544,16.561,16.561,0,0,1-1.008,1.7H28.3a15.42,15.42,0,0,1-3.024-.192l.168.912A14.767,14.767,0,0,1,28.3-15.48H47.088c.12,0,.168-.048.168-.12a.287.287,0,0,0-.1-.192c-.936-.912-1.248-1.176-2.184-1.992-.672.744-.888.984-1.536,1.752ZM33.624-5.3V-.888c0,.192-.024.24-.12.24h-.1C32.688-.7,32.52-.7,31.176-.816c-.24-.024-.624-.048-1.08-.072L30.072-.6c1.992.36,2.4.648,2.568,1.872C34.824.7,35.256.408,35.256-.552V-.7c-.024-1.872-.072-5.664-.072-5.856v-5.52c.624-.336.792-.456.792-.576,0-.048-.048-.1-.144-.24A13.562,13.562,0,0,0,34.3-14.064c-.384.432-.5.576-.864,1.032H29.064a18.769,18.769,0,0,0-1.944-1.032c.072,1.368.1,2.328.1,4.632,0,3.792-.048,8.568-.1,10.368a.287.287,0,0,0,.336.264,8.941,8.941,0,0,0,1.128-.1c.168-.048.24-.12.288-.336,0-1.9,0-2.088-.024-3.48-.024-1.08-.024-1.872-.024-2.208V-5.3Zm0-.552h-4.8V-9h4.8Zm0-3.7h-4.8V-12.48h4.8ZM30.288-19.9a12.263,12.263,0,0,1,1.968,3.168c.168.456.264.552.48.552.36,0,.816-.768.816-1.416,0-.744-.816-1.416-3.048-2.616Zm7.848,6.576c.1,1.176.12,1.9.12,2.616,0,3.024-.024,4.824-.072,7.536,0,.192.1.288.264.288h.072c.1-.024.264-.024.48-.048.672-.048.84-.12.84-.432-.024-1.032-.048-4.608-.048-7.008v-1.848c.48-.192.744-.384.744-.528C40.536-12.936,39.912-13.08,38.136-13.32ZM43.224-1.008c0,.12-.024.168-.168.216-1.08,0-1.272-.024-3.6-.168-.216,0-.552-.024-.984-.048v.36c3.312.528,3.312.528,3.648,1.968A6.161,6.161,0,0,0,44.064.648a1.353,1.353,0,0,0,.816-1.3c-.048-1.944-.048-1.944-.1-7.08v-5.136c.624-.192.912-.36.912-.552s-.744-.384-2.64-.648a16.86,16.86,0,0,1,.168,2.76Zm6.192-2.448A18.723,18.723,0,0,1,53.112.36c1.056,1.584,1.056,1.584,1.224,1.728a.788.788,0,0,0,.336.144c.408,0,.864-.816.864-1.584a2.426,2.426,0,0,0-1.272-2.112,21.741,21.741,0,0,0-4.68-2.3ZM95.232-13.464a.16.16,0,0,0,.168-.144.479.479,0,0,0-.072-.192c-.864-.792-1.128-1.032-2.016-1.848-.624.7-.792.912-1.392,1.632H86.664a40.352,40.352,0,0,0,1.68-4.776c.624-.1,1.032-.264,1.032-.456,0-.24-.264-.336-2.664-.936A32.979,32.979,0,0,1,83.28-8.856l.336.168A27,27,0,0,0,85.2-11.136a21.379,21.379,0,0,0,2.4,6.288,19.428,19.428,0,0,1-2.352,2.736,17.677,17.677,0,0,1-4.92,3.432l.12.336A16.755,16.755,0,0,0,85.7-1.128a16.876,16.876,0,0,0,2.688-2.5,14.359,14.359,0,0,0,5.472,4.848c.456-1.1.888-1.464,1.872-1.56V-.648A12.676,12.676,0,0,1,89.16-4.584a17.807,17.807,0,0,0,2.376-4.728,26.307,26.307,0,0,0,1.008-4.152Zm-4.488,0a22.6,22.6,0,0,1-.576,3.024,15.443,15.443,0,0,1-1.944,4.632A15.99,15.99,0,0,1,87-7.872,15.013,15.013,0,0,1,85.632-11.9c.336-.6.456-.864.792-1.56Zm-11.256-1.08v-4.08c.912-.288,1.032-.336,1.056-.528,0-.192-.408-.336-1.464-.5-.312-.048-.744-.144-1.32-.24.1,1.176.144,1.752.144,2.568v2.808H75.552a17.915,17.915,0,0,1-2.328-.192l.12.84a20.959,20.959,0,0,1,2.184-.12H77.9V-8.88H76.44a19.877,19.877,0,0,0-1.992-1.08c.048,1.08.072,1.536.072,3.288,0,2.4-.024,5.112-.072,7.152,0,.192.072.264.336.264h.072c.072,0,.24-.024.456-.024Q76.1.72,76.1.432a.261.261,0,0,0-.024-.12L76.1-1.032H81.1V-.5c0,.192.1.24.432.24.888,0,1.152-.1,1.176-.408,0-1.1,0-1.2-.024-2.16-.024-1.512-.024-1.68-.024-2.568V-7.848c.432-.216.6-.384.6-.528,0-.072-.024-.1-.144-.24A11.9,11.9,0,0,0,81.72-9.792a7.868,7.868,0,0,0-.864.912H79.488v-5.112h4.776a.2.2,0,0,0,.168-.168.5.5,0,0,0-.168-.192,23.7,23.7,0,0,0-2.016-1.776l-1.32,1.584ZM76.1-8.328H81.1v6.744H76.1ZM97.344,1.3a17.58,17.58,0,0,0,7.008-5.9A23.12,23.12,0,0,0,108.192-15a18.567,18.567,0,0,0,.576,3.48,26.991,26.991,0,0,0,2.784,6.7A17.689,17.689,0,0,0,117.288.984a4.18,4.18,0,0,1,.7-1.2,1.479,1.479,0,0,1,1.224-.48h.168l.024-.288a12.122,12.122,0,0,1-2.736-1.32,16.9,16.9,0,0,1-4.872-4.632,19.685,19.685,0,0,1-3.384-10.584c0-.216,0-.408.024-.744.936-.384,1.032-.432,1.032-.624,0-.24-.288-.312-2.9-.648.048.648.072.912.072,1.392a27.188,27.188,0,0,1-.552,5.136,23.037,23.037,0,0,1-4.344,9.744A18.5,18.5,0,0,1,97.152.984Zm28.7-4.536c2.52,2.064,2.616,2.184,2.664,2.808a.558.558,0,0,0,.648.552,3.508,3.508,0,0,0,2.3-1.08c1.392-1.536,2.616-5.52,2.616-8.592,0-2.52-.984-3.744-3.048-3.744a9.156,9.156,0,0,0-2.088.264,25.3,25.3,0,0,1,1.536-3.24c.288-.432.336-.528.336-.7,0-.5-.6-.96-1.68-1.272a6.726,6.726,0,0,0-1.632-.312.982.982,0,0,0-.7.264c1.368.432,1.848.864,1.848,1.608a13.53,13.53,0,0,1-.984,3.936,25.027,25.027,0,0,1-4.08.84c-.888,0-1.32-.336-1.824-1.32a1.587,1.587,0,0,0-.144.528,3.807,3.807,0,0,0,.792,1.824,1.773,1.773,0,0,0,1.056.72,1.255,1.255,0,0,0,.7-.264,16.92,16.92,0,0,1,3.12-1.248c-2.3,5.064-3.336,7.032-4.416,8.352a1.6,1.6,0,0,0-.552,1.344c0,1.032.264,1.656.7,1.656.216,0,.408-.144.576-.456.384-.672,1.176-2.4,2.136-4.656.816-1.944,1.3-3.072,1.416-3.36,1.056-2.424,1.056-2.424,1.392-3.264a8.381,8.381,0,0,1,2.5-.48,1.8,1.8,0,0,1,1.08.24q.648.432.648,1.944a18.44,18.44,0,0,1-1.416,6.432C130.92-2.4,130.512-1.9,129.984-1.9a12.164,12.164,0,0,1-3.72-1.632Zm10.608-9.624a7.221,7.221,0,0,1,4.032,5.5,36.531,36.531,0,0,1-3.672,1.224l.1.312a21.225,21.225,0,0,1,3-.216,1.462,1.462,0,0,1,.984.264.953.953,0,0,0,.552.168c.6,0,.96-.48.96-1.32a5.652,5.652,0,0,0-1.368-3.384,8.341,8.341,0,0,0-4.392-2.88Zm.7-4.824a11.367,11.367,0,0,1,1.848,2.52c.744,1.56.744,1.56,1.056,1.56.408,0,.744-.432.744-1.008s-.336-1.128-1.2-1.9A10.108,10.108,0,0,0,137.664-18Zm2.52-1.392a12.293,12.293,0,0,1,2.64,3.432c.192.336.336.456.552.456.36,0,.6-.408.6-.984,0-.672-.312-1.152-1.224-1.848a10.616,10.616,0,0,0-2.3-1.368ZM165.528-6.624a.194.194,0,0,0,.216-.168c0-.024-.072-.12-.12-.216-.984-.816-1.3-1.08-2.328-1.848-.576.7-.744.912-1.32,1.68H148.128a7.683,7.683,0,0,1-1.9-.192l.192.888a7.649,7.649,0,0,1,1.7-.144H153a33.2,33.2,0,0,1-2.568,5.568,3.45,3.45,0,0,1-.432.024c-.288,0-.6,0-1.008-.024-1.368-.048-1.368-.048-1.944-.072.12.672.336,1.656.48,2.3.1.408.144.456.288.456.192,0,.264-.12.5-.84a119.011,119.011,0,0,0,12.888-1.848,21.162,21.162,0,0,1,1.248,2.184c.144.264.24.36.408.36a.53.53,0,0,0,.408-.24,3.683,3.683,0,0,0,.384-1.488,2.337,2.337,0,0,0-.912-1.68,27.21,27.21,0,0,0-4.8-3.6l-.192.24a23.92,23.92,0,0,1,3.12,3.72c-2.376.264-6.024.456-9.768.5a42.338,42.338,0,0,0,4.1-5.568ZM145.08-8.856a25.327,25.327,0,0,0,5.688-3.888,28.326,28.326,0,0,0,5.184-6.024,8.432,8.432,0,0,0,1.008,1.8,27.89,27.89,0,0,0,3.312,3.936,20.787,20.787,0,0,0,5.352,3.84c.456-1.368.744-1.7,1.728-1.968v-.24a16.792,16.792,0,0,1-5.784-2.4,15.815,15.815,0,0,1-5.208-5.184c.528-.024.912-.216.912-.432,0-.192-.192-.264-2.832-.864a6.7,6.7,0,0,1-.792,1.752,34.234,34.234,0,0,1-5.28,6.48,20.7,20.7,0,0,1-3.528,2.856Zm4.848-1.656c.888-.072,1.248-.1,1.656-.1h9.552c.216,0,.312-.048.312-.144a.29.29,0,0,0-.144-.216c-.936-.792-1.248-1.032-2.208-1.8-.6.672-.768.888-1.344,1.608H151.7a10.674,10.674,0,0,1-1.944-.192Zm24.312.5a26.679,26.679,0,0,0,2.976-4.392c1.08-.24,1.2-.288,1.2-.48,0-.072-.048-.144-.264-.384-.576-.5-.768-.672-1.416-1.2-.5.5-.672.648-1.152,1.2H174.24v-3.528c.72-.24.912-.36.912-.552,0-.24-.312-.312-1.464-.408-.264-.024-.672-.072-1.2-.12a8.137,8.137,0,0,1,.192,2.088v2.52h-1.92a8.971,8.971,0,0,1-1.872-.216l.168.888a12.678,12.678,0,0,1,1.7-.12h4.824a24.746,24.746,0,0,1-2.952,4.92,22.681,22.681,0,0,1-4.008,4.248l.264.36a20.044,20.044,0,0,0,3.792-3.048v4.176c-.048,3.456-.072,5.3-.072,5.568.072.192.168.24.528.24h.312c.6,0,.792-.1.864-.408-.048-1.128-.048-1.128-.072-5.52v-5.16A10.571,10.571,0,0,1,177.192-6.6c.432.648.456.672.6.792a1.536,1.536,0,0,0,.264.144c.288,0,.528-.552.528-1.152a1.789,1.789,0,0,0-1.1-1.68,13.005,13.005,0,0,0-3.24-1.272Zm8.4-.984V-.12h-4.248a17.217,17.217,0,0,1-2.5-.192l.216.912a11.583,11.583,0,0,1,2.28-.168h12.552c.12,0,.24-.072.24-.168a.312.312,0,0,0-.12-.168,29.944,29.944,0,0,0-2.232-2.088c-.744.816-.96,1.08-1.608,1.872H184.3V-10.992h6a.237.237,0,0,0,.24-.192.413.413,0,0,0-.1-.168c-.96-.888-1.272-1.152-2.28-1.992l-1.392,1.8H184.3v-7.224c.7-.264.96-.432.96-.624,0-.216-.288-.312-1.536-.432-.24-.024-.744-.072-1.248-.144a20.011,20.011,0,0,1,.168,3v5.424h-3.408a10.107,10.107,0,0,1-2.112-.192l.192.912a15.026,15.026,0,0,1,1.92-.168Zm16.608,2.04-1.272,3.36a19.021,19.021,0,0,1-.864,2.04,9.094,9.094,0,0,1-.456-3.168,13.164,13.164,0,0,1,.312-2.976,20.412,20.412,0,0,1,1.3-3.816c.48-.96.5-1.056.5-1.44a3.239,3.239,0,0,0-.888-1.9c-.648-.84-1.08-1.152-1.608-1.176a4.268,4.268,0,0,1,.672,2.256,11.234,11.234,0,0,1-.336,2.232A36.721,36.721,0,0,0,195.768-9a21.624,21.624,0,0,0-.192,2.568,14.221,14.221,0,0,0,.84,5.112c.264.648.624.984,1.032.984a.59.59,0,0,0,.576-.408,3.5,3.5,0,0,0,.072-1.032A9.438,9.438,0,0,1,198.5-4.32c.672-2.784,1.032-4.3,1.08-4.512Zm3.1-6.024a4.229,4.229,0,0,0,3.264,1.344c.216,0,.48-.024.984-.048-.384.288-1.2.96-2.28,1.872l.24.24a24.509,24.509,0,0,1,3.1-1.7,13.758,13.758,0,0,1,3.408-.84c.5-.1.672-.24.672-.552s-.24-.6-.744-.888a1.826,1.826,0,0,0-.84-.336c-.168,0-.216.024-.528.192a12.744,12.744,0,0,1-4.824,1.08,3.756,3.756,0,0,1-2.232-.648ZM202.2-7.728a6.506,6.506,0,0,0-.288,1.9,3.986,3.986,0,0,0,1.3,3.12c1.08.96,3.216,1.464,6.216,1.464a12.068,12.068,0,0,0,3-.264c.336-.12.528-.312.528-.6a1.847,1.847,0,0,0-1.512-1.416,1.184,1.184,0,0,0-.36.072,3.739,3.739,0,0,1-1.272.384,11.326,11.326,0,0,1-2.04.168c-3.72,0-5.232-1.08-5.232-3.72a9.334,9.334,0,0,1,.072-1.008Zm27.1-6.816c.144,0,.264-.1.264-.192a.953.953,0,0,0-.168-.288c-.816-.72-1.08-.96-1.968-1.632-.5.648-.672.864-1.248,1.56h-2.424v-3.36c1.1-.456,1.1-.456,1.1-.624,0-.288-.432-.384-2.808-.624a13.4,13.4,0,0,1,.1,1.728v2.88h-2.736a17.025,17.025,0,0,1-2.016-.24l.192.936a15.059,15.059,0,0,1,1.848-.144h5.28c-.144,1.224-.264,1.992-.312,2.328a20.9,20.9,0,0,1-.864,3.192,41.6,41.6,0,0,0-4.08-4.032l-.264.192c1.512,1.848,2.64,3.312,3.84,5.064a31.22,31.22,0,0,1-1.512,2.88A24.27,24.27,0,0,1,217.368.456l.24.24a22.281,22.281,0,0,0,6.312-7.152,22.168,22.168,0,0,1,2.016,3.864c.24.648.36.816.6.816.456,0,.816-.864.816-1.9,0-.816-.6-1.7-2.736-4.128a20.462,20.462,0,0,0,1.776-6.744Zm4.8.744h-3.72a8.092,8.092,0,0,1-1.872-.288l.192.984a7.832,7.832,0,0,1,1.608-.144H234.1V-.984c0,.408-.1.5-.48.5-1.584-.024-1.608-.024-4.488-.168v.384A7.548,7.548,0,0,1,232.2.384c.408.216.552.456.72,1.224a6.249,6.249,0,0,0,2.16-.816c.5-.312.648-.624.672-1.392l-.024-5.5v-7.152h3.528a.22.22,0,0,0,.24-.192.7.7,0,0,0-.12-.24,21.234,21.234,0,0,0-1.8-1.8c-.48.72-.648.96-1.128,1.68h-.72v-4.656c.912-.36,1.08-.48,1.08-.7,0-.264-.312-.312-2.832-.6a23.75,23.75,0,0,1,.12,2.4Zm-5.616,2.568a21.134,21.134,0,0,1,2.448,5.952c.1.432.24.648.408.648.552,0,1.1-.888,1.1-1.8,0-.432-.144-.744-.744-1.632a20.73,20.73,0,0,0-2.952-3.336Zm31.368,6.648A14.839,14.839,0,0,1,256.8-2.448a12.465,12.465,0,0,1-5.472,1.536,3.531,3.531,0,0,1-2.136-.648c-.672-.552-.96-1.416-.96-2.88a74.087,74.087,0,0,1,1.248-11.52,2.508,2.508,0,0,0,.216-.864c0-.5-.48-.984-1.392-1.416a5.964,5.964,0,0,0-2.16-.552.969.969,0,0,0-.672.24c1.7.72,1.944,1.128,1.944,3.192,0,.864-.024,1.536-.168,4.128-.12,2.184-.192,4.464-.192,5.784a8.207,8.207,0,0,0,.672,4.056,4.353,4.353,0,0,0,3.984,2.04c2.976,0,6.12-1.848,8.424-4.968Zm4.512-11.064a.945.945,0,0,0-.264.624,3.427,3.427,0,0,0,.624,1.608A2.649,2.649,0,0,0,266.568-12a1.582,1.582,0,0,0,.96-.336,26.8,26.8,0,0,1,3.84-1.536,38.7,38.7,0,0,1,6.888-1.656,12.336,12.336,0,0,0-3.912,2.736,8.942,8.942,0,0,0-2.616,5.856,6.344,6.344,0,0,0,2.784,5.376A9.912,9.912,0,0,0,279.384.168c.528,0,.888-.264.888-.672a2.1,2.1,0,0,0-.72-1.152,1.223,1.223,0,0,0-1.008-.384,7.518,7.518,0,0,1-2.448-.576,4.867,4.867,0,0,1-3.168-4.728c0-4.032,3.96-7.944,8.064-7.944a3.523,3.523,0,0,1,.672.048,3.078,3.078,0,0,0,.432.024c.456,0,.744-.24.744-.6,0-.336-.216-.6-.7-.912a3.2,3.2,0,0,0-1.3-.5,3.024,3.024,0,0,0-.84.192,25.184,25.184,0,0,1-3.24.768c-1.584.312-2.88.6-3.888.84-5.376,1.3-5.976,1.416-6.648,1.416a1.36,1.36,0,0,1-1.08-.408A2.653,2.653,0,0,1,264.36-15.648Zm28.368-2.808c.984.168,1.416.384,1.728.888.192.384.24.72.288,2.76.1,3.36.264,4.2.864,4.7a1.568,1.568,0,0,0,1.056.36h.1a16.638,16.638,0,0,0-2.928,1.92c-1.584,1.344-2.352,2.64-2.352,4.032A3.81,3.81,0,0,0,294.1-.216a12.271,12.271,0,0,0,4.08.552,37.211,37.211,0,0,0,4.608-.312c.768-.168,1.032-.36,1.032-.816a1.365,1.365,0,0,0-1.3-1.176,2.311,2.311,0,0,0-.48.072,28.133,28.133,0,0,1-5.568.72c-2.664,0-4.032-.888-4.032-2.616a3.862,3.862,0,0,1,1.872-3.072,16.347,16.347,0,0,1,6-2.688,15.172,15.172,0,0,0,1.608-.5.761.761,0,0,0,.5-.72,1.17,1.17,0,0,0-1.152-1.008,2.088,2.088,0,0,0-.984.288c-2.184,1.008-2.712,1.2-3.216,1.2-.744,0-.936-.36-.936-1.776a18.521,18.521,0,0,1,.528-4.848c.168-.432.192-.456.192-.624v-.048c0-.36-.192-.576-.672-.768a7.768,7.768,0,0,0-2.424-.456A1.337,1.337,0,0,0,292.728-18.456ZM302.04-17.3a11.417,11.417,0,0,1,1.824,2.544c.768,1.56.768,1.56,1.08,1.56.408,0,.744-.432.744-1.008s-.336-1.128-1.2-1.92a12.24,12.24,0,0,0-2.136-1.488Zm2.52-1.392a12.293,12.293,0,0,1,2.64,3.432c.192.336.336.456.552.456.36,0,.6-.408.6-.984,0-.672-.312-1.152-1.248-1.848a10.843,10.843,0,0,0-2.28-1.368Zm9.36,11.688a11.162,11.162,0,0,1-1.56,2.136c-.384.384-.408.432-.408.72a4.447,4.447,0,0,0,.264,1.32c.144.36.336.552.552.552.24,0,.336-.144.816-1.3A16.806,16.806,0,0,1,315.7-.96c.072.168.336.912.408,1.152.12.456.312.648.576.648.576,0,1.032-1.128,1.032-2.5a7.183,7.183,0,0,0-.072-1.128c-.168-1.848-.24-3-.24-4.3,0-.36,0-.672.024-1.248a34.733,34.733,0,0,1,3.648-3.792c1.92-1.7,3.168-2.424,4.2-2.424.936,0,1.464.672,1.464,1.848a15.427,15.427,0,0,1-.6,3.792,25.023,25.023,0,0,0-.6,4.272c0,2.184.984,3.36,2.808,3.36,1.7,0,3.576-.984,5.3-2.76l-.192-.288a8.776,8.776,0,0,1-4.464,1.7,2.1,2.1,0,0,1-1.224-.36c-.432-.312-.6-.816-.6-1.776a23.128,23.128,0,0,1,.432-3.936,15.688,15.688,0,0,0,.48-3.552,3.012,3.012,0,0,0-.648-2.112,2.48,2.48,0,0,0-1.9-.864c-1.056,0-2.184.5-3.864,1.7A39.014,39.014,0,0,0,317.5-9.84a5.658,5.658,0,0,1,.048-.888,15.685,15.685,0,0,1,.768-1.56c.312-.5.336-.552.336-.7,0-.192-.168-.384-.7-.936a10.628,10.628,0,0,1,.432-1.9c.24-.72.24-.72.24-.984,0-.456-.48-1.056-1.248-1.584a3.238,3.238,0,0,0-1.536-.648.468.468,0,0,0-.312.12,2.6,2.6,0,0,1,1.368,2.664,19.635,19.635,0,0,1-.168,2.544,11.979,11.979,0,0,1-3.456,1.44c-.5,0-1.032-.384-1.56-1.152a2.058,2.058,0,0,0-.072.408c0,.768,1.152,2.184,1.776,2.184.216,0,.36-.072.816-.384.432-.312,1.7-1.176,2.424-1.656-.024.36-.024.36-.072.84-.024.624-.024.624-.048,1.008Zm2.592-2.232c-.072.984-.1,1.536-.1,2.712-.024,3.576-.024,3.576-.072,4.488A20.948,20.948,0,0,1,313.8-3.984c.456-.96.72-1.488,1.272-2.544C316.152-8.544,316.176-8.544,316.512-9.24Zm19.392-4.3c.888,1.536,1.824,2.16,3.288,2.16a12.318,12.318,0,0,0,2.3-.24c-1.56,4.512-2.64,7.008-3.768,8.592-.5.72-.528.792-.528,1.176a3.59,3.59,0,0,0,.336,1.392c.144.336.312.48.552.48.5,0,.816-.6,1.776-3.456.888-2.616,1.7-5.112,2.5-7.488.024-.072.144-.408.312-.912a25.96,25.96,0,0,0,4.2-1.416c1.008-.432,1.392-.744,1.392-1.152,0-.192-.12-.336-.384-.432a4.461,4.461,0,0,0-1.272-.264c-.192,0-.288.048-.672.408a8.892,8.892,0,0,1-2.784,1.464,21.35,21.35,0,0,1,1.44-3.432c.288-.408.288-.408.288-.576,0-.36-.36-.7-1.08-.96a6.087,6.087,0,0,0-2.064-.456,1.268,1.268,0,0,0-.744.216c1.344.456,1.7.768,1.7,1.488a17.216,17.216,0,0,1-.816,4.08,11.183,11.183,0,0,1-3.048.456,3.289,3.289,0,0,1-2.64-1.32Zm10.656,3.96a13.132,13.132,0,0,1,4.392-.888h.192c-.648.648-1.008.984-1.176,1.128l-.792.72-.36.36.144.216a3.274,3.274,0,0,0,.48-.288l.888-.576a6.473,6.473,0,0,1,.792-.456,3.133,3.133,0,0,1,1.848-.48c.7-.048.912-.168.912-.576a.8.8,0,0,0-.384-.672,2.927,2.927,0,0,0-1.512-.432,10.842,10.842,0,0,0-5.568,1.632ZM345.408-5.52a4.9,4.9,0,0,0-.216,1.512,3.656,3.656,0,0,0,2.04,3.48,10.694,10.694,0,0,0,4.44.768c1.9,0,2.832-.264,2.832-.792a.948.948,0,0,0-.432-.672,2.745,2.745,0,0,0-1.224-.576,1.077,1.077,0,0,0-.408.1,5.745,5.745,0,0,1-2.3.36,6.823,6.823,0,0,1-2.568-.456,2.965,2.965,0,0,1-1.824-2.9c0-.1,0-.384.024-.744Zm4.872-12.672a10.837,10.837,0,0,1,1.848,2.52c.744,1.56.744,1.56,1.056,1.56.408,0,.744-.432.744-1.008s-.336-1.128-1.2-1.92a12.241,12.241,0,0,0-2.136-1.488Zm2.544-1.392a11.773,11.773,0,0,1,2.616,3.408c.192.336.336.456.552.456.36,0,.6-.408.6-.984,0-.648-.312-1.152-1.224-1.848a11.671,11.671,0,0,0-2.3-1.368Zm12.768,9.768c-.432,1.3-1.872,5.208-2.16,5.928a8.619,8.619,0,0,1-.576-3.744A20.035,20.035,0,0,1,364.1-14.3a3.338,3.338,0,0,0,.336-1.32,3.289,3.289,0,0,0-1.056-1.92,2.441,2.441,0,0,0-1.584-.936,4,4,0,0,1,.864,2.3,17.47,17.47,0,0,1-.384,2.976,29.6,29.6,0,0,0-.528,5.448A13.8,13.8,0,0,0,362.9-1.536c.288.552.648.864,1.008.864.408,0,.6-.36.6-1.128a2.653,2.653,0,0,0-.024-.384v-.264a47.222,47.222,0,0,1,1.464-7.272Zm2.04-3.576a4.527,4.527,0,0,0,3.768,1.7A13.7,13.7,0,0,0,374.184-12v1.224c0,4.128-.384,6.264-1.512,8.232a11.35,11.35,0,0,1-3.384,3.7l.192.312a12.243,12.243,0,0,0,3.648-2.616c1.8-1.9,2.448-3.84,2.448-7.632v-3.528a17.76,17.76,0,0,0,3.264-1.056c.672-.336.84-.48.84-.768,0-.384-.672-.72-1.44-.72a.753.753,0,0,0-.5.168,5.254,5.254,0,0,1-2.184,1.032,11.647,11.647,0,0,1,.312-3.456,2.7,2.7,0,0,0,.12-.576c0-.72-1.152-1.2-2.88-1.2-.792,0-.96.048-1.32.36,1.128.264,1.8.624,2.04,1.1a9.6,9.6,0,0,1,.288,3.36v.84a13.832,13.832,0,0,1-3.456.5,4.027,4.027,0,0,1-2.784-.96Zm26.952-4.944h7.848c.144,0,.264-.072.264-.168a.365.365,0,0,0-.1-.144c-.96-.84-1.272-1.08-2.28-1.848-.624.816-.624.816-1.248,1.608H387.36a10.694,10.694,0,0,1-2.112-.216l.192.912a16.8,16.8,0,0,1,1.92-.144h5.568v2.952h-7.68a9.985,9.985,0,0,1-2.112-.24l.192.96a17.276,17.276,0,0,1,1.92-.168h19.128c.144,0,.264-.072.264-.168,0-.048-.048-.1-.12-.192-.96-.792-1.272-1.056-2.28-1.824-.6.7-.768.912-1.32,1.632h-6.336Zm4.608,15v.768c.024.192.12.264.336.264a4.954,4.954,0,0,0,1.2-.168.318.318,0,0,0,.216-.312c-.048-1.608-.1-4.872-.1-7.272V-11.88c.408-.264.6-.408.624-.408a.473.473,0,0,0,.1-.192c0-.048-.072-.12-.288-.312-.552-.432-.744-.576-1.392-1.056-.408.456-.552.6-.936,1.056h-10.44a11.738,11.738,0,0,0-1.824-1.152,58,58,0,0,1,.12,6.336c0,.744-.024,1.344-.12,5.208,0,.288.12.384.48.384a6.183,6.183,0,0,0,1.08-.1c.168-.048.216-.1.264-.288v-.936Zm0-.552h-10.68v-2.52h10.68Zm0-3.072h-10.68V-9.408h10.68Zm0-3h-10.68v-2.28h10.68ZM382.92,1.584a24.02,24.02,0,0,0,8.256-2.616c.288,0,.5.024.648.024h.264c.336,0,.552-.1.552-.24,0-.24-.864-.7-2.256-1.224a11.37,11.37,0,0,1-2.976,1.92A23.36,23.36,0,0,1,382.824,1.3ZM395.76-1.8a27.507,27.507,0,0,1,3.768,1.44A29.639,29.639,0,0,1,402.552,1.3c.6.384.624.408.768.408.192,0,.312-.192.312-.48a2.031,2.031,0,0,0-1.08-1.968,27.033,27.033,0,0,0-6.72-1.392Zm17.88-6.24h3.1a.26.26,0,0,0,.192-.192.383.383,0,0,0-.072-.192,13.316,13.316,0,0,0-1.176-1.152c-.456.48-.456.48-.888.984h-1.128a20.571,20.571,0,0,0,2.016-2.616c.7-.072.84-.12.84-.312a.286.286,0,0,0-.12-.216,15.593,15.593,0,0,0-1.728-.792,19.433,19.433,0,0,1-1.44,3.936H411.12a9.48,9.48,0,0,1-1.656-.192l.144.84c.192-.024.7-.048,1.512-.1h1.128v2.928h-.912a11.936,11.936,0,0,1-1.7-.192l.144.84c.1,0,.624-.048,1.56-.1h.912v1.512c0,.48-.072,2.64-.12,3.768,0,.168.072.24.24.24.216,0,1.032-.072,1.152-.1.144-.024.192-.1.192-.24V.576c-.024-.816-.072-3.024-.072-3.624V-4.56h3a.206.206,0,0,0,.168-.192.264.264,0,0,0-.072-.144c-.528-.576-.7-.744-1.272-1.3-.384.456-.5.6-.912,1.08h-.912Zm10.128-4.824v-.888l.024-3.528c0-.216,0-.648-.024-1.416.624-.216.96-.36,1.008-.384a.259.259,0,0,0,.072-.168c0-.264-.024-.264-2.616-.576.024,1.2.048,2.232.048,3.72,0,1.392,0,1.9-.048,3.24h-1.44a8.866,8.866,0,0,1-1.584-.144l.144.816c.216-.048.7-.072,1.44-.12h1.416a29.583,29.583,0,0,1-1.992,10.32,12.335,12.335,0,0,1-2.088,3.5l.264.264A12.764,12.764,0,0,0,421.68-2.88c1.056-2.352,1.488-4.368,1.944-8.76.072.576.072.576.216,1.944a23.433,23.433,0,0,0,.792,4.632A17.493,17.493,0,0,0,427.56,1.3c.552-1.056.864-1.344,1.728-1.536l.048-.288a7.278,7.278,0,0,1-1.7-1.608,15.114,15.114,0,0,1-2.472-4.44,25.79,25.79,0,0,1-1.2-5.736H428.9c.12,0,.192-.048.192-.144a.65.65,0,0,0-.072-.192c-.744-.744-.96-.96-1.728-1.68-.576.624-.744.816-1.3,1.464Zm-10.128-4.2v-1.824c1.032-.384,1.056-.408,1.056-.576,0-.216-.5-.336-2.64-.552a14.757,14.757,0,0,1,.1,2.256v.7H408.84a12.609,12.609,0,0,1-2.16-.216l.192.936a17.16,17.16,0,0,1,1.968-.168h3.312v2.856H409.44a14.666,14.666,0,0,0-1.8-.984c.048.936.072,1.32.072,2.256,0,7.9-.048,11.976-.168,13.968v.1c0,.144.1.168.6.168a3.726,3.726,0,0,0,.744-.072c.192-.024.24-.072.24-.288V-13.1h7.992v12.7c0,.264-.024.288-.336.288-.792-.024-1.152-.048-2.472-.144V.072c1.776.36,1.776.36,1.992,1.416a4.891,4.891,0,0,0,1.632-.552,1.335,1.335,0,0,0,.648-1.2V-12.888c.144-.1.24-.168.312-.216a.838.838,0,0,0,.216-.144.245.245,0,0,0,.12-.192c0-.072-.048-.144-.216-.312a12.025,12.025,0,0,0-1.152-.888c-.408.408-.528.552-.936.984H413.64v-2.856h6.072c.216,0,.312-.048.312-.144q0-.072-.144-.216c-.84-.768-1.1-.984-1.992-1.68-.6.624-.792.84-1.368,1.488Zm-3.648,4.752A10.143,10.143,0,0,1,411.456-9.5c.1.312.216.456.384.456.288,0,.672-.624.672-1.1a1.861,1.861,0,0,0-.72-1.2,11.325,11.325,0,0,0-1.632-1.176Zm14.64-5.9a12.527,12.527,0,0,1,1.224,2.064,11.788,11.788,0,0,1,.528,1.248c.144.384.216.48.384.48.384,0,.744-.792.744-1.56a.932.932,0,0,0-.336-.792,13.747,13.747,0,0,0-2.352-1.632ZM449.688-4.584a14.839,14.839,0,0,1-3.048,2.136,12.465,12.465,0,0,1-5.472,1.536,3.531,3.531,0,0,1-2.136-.648c-.672-.552-.96-1.416-.96-2.88a74.083,74.083,0,0,1,1.248-11.52,2.508,2.508,0,0,0,.216-.864c0-.5-.48-.984-1.392-1.416a5.964,5.964,0,0,0-2.16-.552.969.969,0,0,0-.672.24c1.7.72,1.944,1.128,1.944,3.192,0,.864-.024,1.536-.168,4.128-.12,2.184-.192,4.464-.192,5.784a8.207,8.207,0,0,0,.672,4.056,4.353,4.353,0,0,0,3.984,2.04c2.976,0,6.12-1.848,8.424-4.968Zm6.408-9.288c.888,1.536,1.824,2.16,3.288,2.16a12.317,12.317,0,0,0,2.3-.24c-1.632,4.752-2.568,6.84-3.768,8.592-.5.72-.528.792-.528,1.176a3.591,3.591,0,0,0,.336,1.392c.144.336.312.48.552.48.5,0,.816-.6,1.776-3.456,1.32-3.912,1.32-3.912,1.8-5.352.72-2.232.72-2.232,1.008-3.048a28.667,28.667,0,0,0,4.2-1.392c1.008-.456,1.392-.768,1.392-1.176,0-.192-.12-.336-.384-.432a4.461,4.461,0,0,0-1.272-.264c-.192,0-.288.048-.672.408a8.122,8.122,0,0,1-2.784,1.464,19.922,19.922,0,0,1,1.44-3.432c.288-.408.288-.408.288-.576,0-.36-.36-.7-1.08-.96a6.087,6.087,0,0,0-2.064-.456,1.268,1.268,0,0,0-.744.216c1.344.456,1.7.768,1.7,1.512a17.289,17.289,0,0,1-.816,4.056,11.183,11.183,0,0,1-3.048.456,3.289,3.289,0,0,1-2.64-1.32Zm10.656,3.96a12.506,12.506,0,0,1,4.584-.888c-.744.744-.96.936-1.176,1.128-.864.792-.864.792-1.152,1.08l.144.216c.384-.216.384-.216.84-.5a11.241,11.241,0,0,1,1.32-.816,3.469,3.469,0,0,1,1.848-.48c.7-.024.912-.168.912-.552a.8.8,0,0,0-.384-.672,2.926,2.926,0,0,0-1.512-.432,11.044,11.044,0,0,0-5.568,1.608ZM465.6-5.856a4.9,4.9,0,0,0-.216,1.512,3.656,3.656,0,0,0,2.04,3.48,10.693,10.693,0,0,0,4.44.768c1.9,0,2.832-.264,2.832-.792a.948.948,0,0,0-.432-.672,2.745,2.745,0,0,0-1.224-.576,1.077,1.077,0,0,0-.408.1,5.745,5.745,0,0,1-2.3.36,6.823,6.823,0,0,1-2.568-.456,2.965,2.965,0,0,1-1.824-2.9c0-.1,0-.384.024-.744Zm19.08-4.368c-1.008,2.208-1.008,2.208-1.92,3.984a16.111,16.111,0,0,1-1.776,2.832,1.576,1.576,0,0,0-.552,1.344c0,1.032.264,1.656.7,1.656.216,0,.408-.144.576-.456.384-.672,1.176-2.4,2.136-4.656.84-1.992,1.32-3.12,1.416-3.36,1.056-2.448,1.056-2.448,1.392-3.264a7.768,7.768,0,0,1,2.52-.5c1.272,0,1.7.576,1.7,2.184a18.565,18.565,0,0,1-1.416,6.456c-.624,1.512-1.008,2.016-1.56,2.016a12.08,12.08,0,0,1-3.72-1.656l-.216.312c2.544,2.088,2.592,2.136,2.664,2.808a.558.558,0,0,0,.648.552,3.4,3.4,0,0,0,2.3-1.08c1.392-1.56,2.616-5.544,2.616-8.616,0-2.52-.984-3.744-3.048-3.744a8.355,8.355,0,0,0-2.088.288,23.23,23.23,0,0,1,1.536-3.264c.288-.408.336-.5.336-.7,0-.5-.6-.936-1.68-1.248a6.576,6.576,0,0,0-1.608-.312,1.085,1.085,0,0,0-.72.24c1.392.456,1.848.864,1.848,1.608a13.529,13.529,0,0,1-.984,3.936,24.816,24.816,0,0,1-4.08.84c-.888,0-1.32-.312-1.824-1.32a1.587,1.587,0,0,0-.144.528,3.807,3.807,0,0,0,.792,1.824,1.773,1.773,0,0,0,1.056.72,1.255,1.255,0,0,0,.7-.264,18.58,18.58,0,0,1,3.12-1.248Zm9.888-2.76a6.965,6.965,0,0,1,3.288,3.192,6.165,6.165,0,0,1,.744,2.3,36.534,36.534,0,0,1-3.672,1.224l.1.336a21.225,21.225,0,0,1,3-.216,1.549,1.549,0,0,1,.984.24.909.909,0,0,0,.552.168c.6,0,.96-.48.96-1.3a5.657,5.657,0,0,0-1.368-3.408,8.341,8.341,0,0,0-4.392-2.88Z" transform="translate(151.911 5718.023)" fill="#333"/>
    <path id="パス_4128" data-name="パス 4128" d="M2.784-14.9a4.9,4.9,0,0,0,1.752,1.752,3.884,3.884,0,0,0,2.112.5,7.117,7.117,0,0,0,1.128-.1,31.858,31.858,0,0,1-3,5.64,10.766,10.766,0,0,1-1.152,1.44A1.018,1.018,0,0,0,3.36-4.8c0,.96.336,1.7.744,1.7.288,0,.5-.216.864-.864.216-.408,2.064-4.44,2.784-6.1.648-1.44,1.056-2.424,1.272-2.9,3.816-.888,5.3-1.488,5.3-2.112,0-.408-.7-.72-1.632-.72a.589.589,0,0,0-.5.192,6.257,6.257,0,0,1-2.664,1.32c.864-1.776,1.368-2.76,1.464-2.952a1.026,1.026,0,0,0,.24-.624c0-.336-.312-.6-1.128-1.008a5.04,5.04,0,0,0-1.92-.552,1.02,1.02,0,0,0-.576.168c1.152.576,1.536,1.056,1.536,1.848a9.932,9.932,0,0,1-.864,3.408A10.5,10.5,0,0,1,6.1-13.7,3.85,3.85,0,0,1,3.072-15.1ZM15.7-13.368a6.688,6.688,0,0,1,3.1,1.656c-.888.192-.936.216-1.3.312a4.487,4.487,0,0,0-2.28,1.128c-.648.72-.84,1.464-.84,3.432,0,.288,0,.48.072,2.376a7.764,7.764,0,0,0-1.44-.12c-2.664,0-4.488,1.176-4.488,2.856C8.52-.216,10.008.816,12.168.816a4.43,4.43,0,0,0,3.12-1.032,2.693,2.693,0,0,0,.672-2.04v-.456A8.726,8.726,0,0,1,18.864-.6c.5.552.6.624.84.624.288,0,.48-.336.48-.816a2.289,2.289,0,0,0-.96-1.9,10.821,10.821,0,0,0-3.408-1.56,34.3,34.3,0,0,1-.48-4.128c0-1.656.6-2.184,2.52-2.184a3.773,3.773,0,0,1,2.352.5.906.906,0,0,0,.552.192.626.626,0,0,0,.624-.7c0-.552-.576-1.272-1.512-1.872a8.48,8.48,0,0,0-4.1-1.32ZM14.472-2.592c0,1.512-1.008,2.3-2.952,2.3-1.488,0-2.4-.528-2.4-1.416,0-1.128,1.248-1.824,3.288-1.824a6.7,6.7,0,0,1,2.064.288ZM30.888-18.456c.984.168,1.416.384,1.728.888.192.384.24.72.288,2.76.1,3.36.264,4.2.864,4.7a1.568,1.568,0,0,0,1.056.36h.1a16.638,16.638,0,0,0-2.928,1.92C30.408-6.48,29.64-5.184,29.64-3.792A3.81,3.81,0,0,0,32.256-.216a12.271,12.271,0,0,0,4.08.552A37.211,37.211,0,0,0,40.944.024c.768-.168,1.032-.36,1.032-.816a1.365,1.365,0,0,0-1.3-1.176,2.311,2.311,0,0,0-.48.072,28.133,28.133,0,0,1-5.568.72c-2.664,0-4.032-.888-4.032-2.616a3.862,3.862,0,0,1,1.872-3.072,16.348,16.348,0,0,1,6-2.688,15.172,15.172,0,0,0,1.608-.5.761.761,0,0,0,.5-.72,1.17,1.17,0,0,0-1.152-1.008,2.088,2.088,0,0,0-.984.288c-2.184,1.008-2.712,1.2-3.216,1.2-.744,0-.936-.36-.936-1.776a18.52,18.52,0,0,1,.528-4.848c.168-.432.192-.456.192-.624v-.048c0-.36-.192-.576-.672-.768a7.768,7.768,0,0,0-2.424-.456A1.337,1.337,0,0,0,30.888-18.456ZM40.2-17.3a11.418,11.418,0,0,1,1.824,2.544c.768,1.56.768,1.56,1.08,1.56.408,0,.744-.432.744-1.008s-.336-1.128-1.2-1.92a12.24,12.24,0,0,0-2.136-1.488ZM42.72-18.7a12.293,12.293,0,0,1,2.64,3.432c.192.336.336.456.552.456.36,0,.6-.408.6-.984,0-.672-.312-1.152-1.248-1.848a10.843,10.843,0,0,0-2.28-1.368Zm10.1,14.928c0,1.872,0,2.328-.1,5.256v.048c0,.216.12.264.576.264.84,0,1.056-.072,1.056-.384v-.1c-.048-2.784-.048-3.552-.048-5.232V-9.384q.36-.108,1.728-.432a12.858,12.858,0,0,1,.312,1.488c.048.264.144.384.288.384.408,0,.84-.7.84-1.344,0-.7-.792-1.824-2.232-3.216l-.24.192a14.21,14.21,0,0,1,.864,1.992c-1.632.168-1.872.192-3.84.336a33.848,33.848,0,0,0,4.608-5.784h.1c.792,0,1.08-.1,1.08-.336,0-.12-.12-.216-.384-.312q-.216-.072-.72-.288c-.288-.12-.72-.288-1.272-.5a25.977,25.977,0,0,1-2.16,4.344,32.283,32.283,0,0,1-1.92,2.928c-.576.024-1.056.048-1.488.048h-.744c.312,1.92.384,2.184.6,2.184.192,0,.312-.24.456-.768,1.128-.216,1.512-.288,2.64-.552ZM64.488-13.08a25.511,25.511,0,0,1,1.752,2.664c-1.968.192-3.384.288-5.28.384a24.638,24.638,0,0,0,2.784-4.944c.744-.048,1.032-.168,1.032-.384s-.312-.336-2.352-.792a28.488,28.488,0,0,1-2.064,6.144c-.336.024-.528.024-.816.024-.456,0-.72,0-1.344-.048.48,2.16.48,2.16.672,2.16.168,0,.336-.24.456-.672.816-.144.816-.144,1.44-.264L64.3-9.456c.96-.192,1.344-.264,2.208-.456A10.861,10.861,0,0,1,67.2-8.3c.1.336.216.48.408.48.384,0,.792-.792.792-1.584a1.831,1.831,0,0,0-.7-1.44,33.578,33.578,0,0,0-2.976-2.472Zm-15.36-3.24a15.094,15.094,0,0,1,2.28,3.624c.12.336.24.456.384.456.336,0,.7-.7.7-1.32,0-.576-.288-1.008-1.152-1.656a23.557,23.557,0,0,0,2.856-3.5c.744,0,1.08-.12,1.08-.36,0-.192-.192-.288-2.448-1.008a19.747,19.747,0,0,1-1.944,4.536A14.084,14.084,0,0,0,49.3-16.584ZM49.368.84A19.027,19.027,0,0,0,51.5-6.144c.528-.192.672-.264.672-.408,0-.216-.048-.24-2.16-.5A30.176,30.176,0,0,1,49.008.672ZM61.752-7.848A11.3,11.3,0,0,1,64.2-4.392c.144.36.264.48.432.48.312,0,.672-.768.672-1.44a1.475,1.475,0,0,0-.648-1.1,20.172,20.172,0,0,0-2.712-1.632ZM58.248-5.5A5.447,5.447,0,0,1,56.784-2.28c-.648.624-.672.672-.672,1.176,0,.816.24,1.32.648,1.32.312,0,.72-.432,1.1-1.152.576-1.1.72-1.944.816-4.512Zm9.12-.24a13.949,13.949,0,0,1,2.3,4.824c.216.84.24.888.5.888a.566.566,0,0,0,.384-.168,2.893,2.893,0,0,0,.528-1.656c0-1.008-1.128-2.376-3.408-4.152ZM55.032-7.728a18.312,18.312,0,0,1,.72,4.128c.024.552.12.792.312.792.408,0,.912-.936.912-1.7s-.528-1.776-1.68-3.336ZM60-2.592l-.024,2.4c.024,1.2.072,1.224,3.816,1.224A20.691,20.691,0,0,0,67.512.84c.48-.144.72-.408.72-.816A.514.514,0,0,0,67.8-.5c-.528-.168-.576-.216-.576-.672V-1.3l.144-2.616-.36-.024a19.87,19.87,0,0,1-.96,3.24c-.216.36-.216.36-2.328.36-2.04,0-2.04,0-2.16-.1-.072-.048-.1-.144-.1-.336V-5.52c.624-.144.888-.288.888-.48,0-.216-.264-.312-1.248-.432-.264-.024-.672-.1-1.224-.168A17.676,17.676,0,0,1,60-4.32Zm4.56-17.064a2.757,2.757,0,0,1,.552,1.056,19.8,19.8,0,0,0,1.92,4.128,10.833,10.833,0,0,0,2.952,3.24,1.871,1.871,0,0,1,1.464-1.632V-13.2a9.385,9.385,0,0,1-4.44-3.264,7.489,7.489,0,0,1-1.488-3.12,1.081,1.081,0,0,1,.048-.336Zm-7.536,8.208a19.967,19.967,0,0,0,4.488-6.864c.672-.12.792-.168.792-.336,0-.216-.264-.336-2.16-.984a14.142,14.142,0,0,1-.84,3.048A26.064,26.064,0,0,1,56.76-11.76ZM73.056-8.064a24.173,24.173,0,0,0,5.688-3.888,28.334,28.334,0,0,0,5.424-6.5,23.257,23.257,0,0,0,4.3,5.952,17.587,17.587,0,0,0,5.28,3.912c.5-1.128.888-1.464,1.9-1.584l.048-.336a18.515,18.515,0,0,1-6.216-2.976A17.443,17.443,0,0,1,84.528-18.7c.648-.12.936-.264.936-.456,0-.216-.288-.312-1.608-.576-.264-.048-.672-.144-1.224-.24a7.824,7.824,0,0,1-.432,1.176,24.94,24.94,0,0,1-2.64,3.96,29.9,29.9,0,0,1-6.768,6.408Zm5.832-2.52a9.046,9.046,0,0,1,1.584-.144h8.184c.264,0,.312-.024.312-.12,0-.072-.072-.168-.192-.288-.864-.72-1.152-.912-2.016-1.584-.552.624-.72.84-1.272,1.44H80.472a10.72,10.72,0,0,1-1.776-.192ZM78.72.024H88.872V1.152q0,.288.36.288a6.029,6.029,0,0,0,1.224-.168c.168-.048.216-.12.216-.312v-.1c-.1-3.72-.1-3.72-.1-7.224.576-.192.792-.36.792-.5,0-.1-.048-.168-.24-.336-.648-.552-.864-.72-1.536-1.224A14.657,14.657,0,0,0,88.608-7.2h-9.7a16.472,16.472,0,0,0-1.92-1.224c.048.912.072,1.8.072,3.7,0,.984-.024,2.16-.072,5.9,0,.264.072.336.336.336a5.07,5.07,0,0,0,1.248-.144c.12-.048.144-.12.144-.336Zm0-6.672H88.872v6.12H78.72Zm22.56-8.592a14.562,14.562,0,0,0,2.016-3.168c.984-.12,1.128-.192,1.128-.432,0-.1-.072-.168-.216-.24-.312-.144-1.488-.48-2.472-.744a17.527,17.527,0,0,1-.96,4.584H100.1a14.867,14.867,0,0,0-1.8-1.224c.12,2.52.144,3.864.144,9.216,0,4.152,0,4.968-.1,7.656,0,.24.072.264.432.264H99.1c.648,0,.768-.048.816-.336V-1.68h4.272V-.288c0,.168.1.24.312.24h.072c.072,0,.192-.024.384-.024.624-.024.792-.1.792-.288V-.48c-.024-1.656-.048-5.736-.048-10.776,0-.528,0-1.56.024-3.072.672-.336.816-.432.816-.576,0-.1-.072-.168-.24-.336-.552-.456-.72-.6-1.248-1.008-.384.432-.48.576-.864,1.008ZM99.912-9.264v-5.424h4.272v5.424Zm4.272.552v6.48H99.912v-6.48Zm6-6.528a20.253,20.253,0,0,0,1.368-3.312c.912-.216,1.1-.312,1.1-.5,0-.1-.072-.192-.24-.24a25.4,25.4,0,0,0-2.544-.672,20.523,20.523,0,0,1-1.08,4.68,26.125,26.125,0,0,1-2.616,5.736l.312.192a22.5,22.5,0,0,0,3.408-5.328h6.5a68.821,68.821,0,0,1-.456,9.024,18.454,18.454,0,0,1-.984,4.536c-.216.408-.312.432-1.656.432-.6,0-.936,0-2.328-.072-.24-.024-.648-.048-1.1-.072v.408a5.659,5.659,0,0,0,.672.1l.7.072a3.4,3.4,0,0,1,1.248.36c.384.24.552.528.768,1.344,2.016-.36,2.352-.5,2.808-1.1.648-.864,1.1-2.568,1.464-5.352a64.236,64.236,0,0,0,.528-9.1c.84-.432.888-.456.888-.672,0-.144-.048-.24-.24-.408-.6-.528-.792-.7-1.416-1.224-.456.5-.6.648-1.056,1.176Zm-1.176,3.96A10.1,10.1,0,0,1,111.144-8.3a19.3,19.3,0,0,1,1.1,2.472c.144.384.312.552.5.552.432,0,.816-.864.816-1.776a2.265,2.265,0,0,0-.864-1.728,18.534,18.534,0,0,0-3.5-2.736Zm18.24,2.328-1.272,3.36a19.024,19.024,0,0,1-.864,2.04,9.094,9.094,0,0,1-.456-3.168,13.164,13.164,0,0,1,.312-2.976,20.413,20.413,0,0,1,1.3-3.816c.48-.96.5-1.056.5-1.44a3.239,3.239,0,0,0-.888-1.9c-.648-.84-1.08-1.152-1.608-1.176a4.268,4.268,0,0,1,.672,2.256,11.234,11.234,0,0,1-.336,2.232A36.72,36.72,0,0,0,123.768-9a21.627,21.627,0,0,0-.192,2.568,14.221,14.221,0,0,0,.84,5.112c.264.648.624.984,1.032.984a.59.59,0,0,0,.576-.408,3.505,3.505,0,0,0,.072-1.032A9.438,9.438,0,0,1,126.5-4.32c.672-2.784,1.032-4.3,1.08-4.512Zm3.1-6.024a4.229,4.229,0,0,0,3.264,1.344c.216,0,.48-.024.984-.048-.384.288-1.2.96-2.28,1.872l.24.24a24.509,24.509,0,0,1,3.1-1.7,13.758,13.758,0,0,1,3.408-.84c.5-.1.672-.24.672-.552s-.24-.6-.744-.888a1.826,1.826,0,0,0-.84-.336c-.168,0-.216.024-.528.192a12.744,12.744,0,0,1-4.824,1.08,3.756,3.756,0,0,1-2.232-.648ZM130.2-7.728a6.506,6.506,0,0,0-.288,1.9,3.986,3.986,0,0,0,1.3,3.12c1.08.96,3.216,1.464,6.216,1.464a12.068,12.068,0,0,0,3-.264c.336-.12.528-.312.528-.6a1.847,1.847,0,0,0-1.512-1.416,1.184,1.184,0,0,0-.36.072,3.739,3.739,0,0,1-1.272.384,11.326,11.326,0,0,1-2.04.168c-3.72,0-5.232-1.08-5.232-3.72a9.334,9.334,0,0,1,.072-1.008Zm22.32-3.84c0-.5,0-.864-.024-1.056v-1.7c0-1.176,0-2.328.024-4.224.792-.264.936-.36.936-.552,0-.264-.24-.336-1.44-.456-.264-.024-.672-.072-1.152-.12.1,1.368.144,2.76.144,5.64v2.472h-3.5a12.011,12.011,0,0,1-1.848-.216l.192.912a8.9,8.9,0,0,1,1.656-.144h3.5L150.96-6.7h-3.888a17.151,17.151,0,0,1-2.208-.192l.192.864a13.792,13.792,0,0,1,2.016-.12h3.888c-.024,4.32-.024,4.728-.1,7.416,0,.264.12.336.552.336a4.462,4.462,0,0,0,.936-.12c.192-.1.24-.192.24-.432-.024-3.672-.024-3.72-.048-6.408v-.792h6.216c.168,0,.24-.048.24-.12a.207.207,0,0,0-.072-.144c-.864-.792-1.128-1.032-2.04-1.752-.528.6-.7.792-1.224,1.464h-3.12l-.024-4.32h5.88a.194.194,0,0,0,.216-.168.35.35,0,0,0-.12-.192c-.792-.72-1.032-.936-1.872-1.656-.384.5-.768.984-1.152,1.464Zm-6.744-6.6a16.213,16.213,0,0,1,2.136,4.728c.168.528.312.7.528.7a.458.458,0,0,0,.336-.168,3.061,3.061,0,0,0,.552-1.536,2.035,2.035,0,0,0-.6-1.272,18.855,18.855,0,0,0-2.712-2.664Zm7.968,5.76a33.93,33.93,0,0,0,3.744-4.7c.84-.072,1.056-.144,1.056-.336,0-.312-.408-.5-2.52-1.152a22.2,22.2,0,0,1-2.568,6Zm7.344-4.608c.7-.24.864-.336.864-.5,0-.24-.408-.336-2.472-.624.048,1.224.072,2.328.072,5.784,0,3.216,0,4.1-.072,8.544v.072c0,.216.1.288.384.288a4.9,4.9,0,0,0,1.056-.12.312.312,0,0,0,.264-.336v-.12c-.048-1.752-.1-6.864-.1-11.04Zm3,16.3c0,.288-.072.36-.312.36H163.7c-2.28-.1-3.528-.144-3.768-.168l-.024.36a5.239,5.239,0,0,1,2.52.648,1.337,1.337,0,0,1,.624,1.224,6.645,6.645,0,0,0,2.3-.84c.336-.24.408-.48.432-1.368l-.072-9.312v-8.64c.768-.216,1.008-.36,1.008-.576,0-.264-.408-.408-1.56-.5-.264-.024-.672-.072-1.2-.12a13.1,13.1,0,0,1,.12,1.92ZM175.1-11.328a13.369,13.369,0,0,1-.888,2.064,17.891,17.891,0,0,1-2.472,3.936l.336.264a15.258,15.258,0,0,0,3.528-4.584c0,2.208,0,2.208-.12,6.168.024.168.1.216.288.216a4.23,4.23,0,0,0,1.056-.168.175.175,0,0,0,.144-.168v-.816l-.048-5.3a12.454,12.454,0,0,1,2.04,2.256c.48.72.624.888.792.888.312,0,.552-.5.552-1.152,0-.864-.5-1.248-3.384-2.472v-1.128h4.1c.144,0,.192-.024.192-.072a.405.405,0,0,0-.048-.12c-.72-.816-.936-1.056-1.656-1.8-.432.624-.576.816-1.032,1.44h-1.56v-2.808c0-1.224,0-1.512.024-3.984.816-.408.816-.408.816-.552,0-.216-.336-.312-2.28-.552.072.7.144,3.192.144,4.92v1.224c-.024.384-.024.984-.024,1.752h-1.56A7.647,7.647,0,0,1,172.2-12.1l.144.864c.936-.072,1.464-.1,1.584-.1Zm13.1-.36h2.664c.12,0,.216-.072.216-.144a.319.319,0,0,0-.072-.192c-.672-.576-1.344-1.152-2.04-1.752l-1.152,1.536H183.48c.024-1.176.048-2.256.048-3.192v-1.3a27.831,27.831,0,0,0,6-1.512c.768.048.768.048.936.072h.024c.144,0,.288-.1.288-.216,0-.168-.672-.7-1.968-1.536l-.336.24a15.822,15.822,0,0,1-4.536,2.352,13.7,13.7,0,0,0-2.04-1.056v.792c.048,2.856.048,3.024.048,4.056,0,6.192-.408,9.072-1.68,11.592-.864-.792-1.08-.984-1.944-1.7-.456.6-.6.768-1.08,1.368h-5.664V-17.856c.672-.264.864-.408.864-.6,0-.24-.888-.456-2.592-.624.12,1.1.144,3.1.144,9.6,0,4.7-.024,7.9-.1,9.648.024.192.1.288.264.288a6.187,6.187,0,0,0,1.272-.12c.1-.048.12-.144.144-.312V-1.728h8.568a9.95,9.95,0,0,1-2.16,2.76l.24.288a8.309,8.309,0,0,0,2.016-1.7,11.754,11.754,0,0,0,2.472-4.92,30.985,30.985,0,0,0,.744-6.384h3.1v6.6c-.048,3.816-.072,5.952-.1,6.408,0,.24.12.336.432.336a5.363,5.363,0,0,0,1.3-.144c.1-.048.144-.12.144-.288-.072-1.248-.072-1.248-.12-6.384ZM172.3-17.256a15.516,15.516,0,0,1,1.3,3.72c.1.408.168.5.336.5.336,0,.816-.864.816-1.464a1.773,1.773,0,0,0-.384-.984,9.9,9.9,0,0,0-1.8-1.944Zm5.424,4.512a15.115,15.115,0,0,0,1.368-1.92c.864-1.416.864-1.416,1.176-1.872.648-.048.888-.144.888-.36,0-.192-.648-.48-2.112-.96A38.449,38.449,0,0,1,177.5-12.84Zm29.232-4.176a18.272,18.272,0,0,1,1.944,1.392,15.094,15.094,0,0,1-1.752.888c-1.2.48-1.2.48-1.512.624-.96-1.224-1.584-1.992-1.848-2.3-.744-.84-.984-1.152-.984-1.272,0-.168.24-.264.744-.264a9.646,9.646,0,0,1,1.08.1l.12-.36a8.6,8.6,0,0,0-2.808-.5c-1.032,0-1.632.336-1.632.888,0,.336.168.528.912.936a12.735,12.735,0,0,1,3.336,3.12,16.17,16.17,0,0,1-4.44.744,5.8,5.8,0,0,1-3.84-1.32l-.264.24a5.352,5.352,0,0,0,4.416,2.112A16.38,16.38,0,0,0,205.3-12.7a19.892,19.892,0,0,1,2.88,5.328,17.848,17.848,0,0,0-4.7-.624c-3.936,0-6.312,1.44-6.312,3.84,0,1.728,1.272,3.192,3.432,3.912a14.94,14.94,0,0,0,4.7.648c1.68,0,2.088-.144,2.088-.744a1.755,1.755,0,0,0-1.488-1.3,1.772,1.772,0,0,0-.288.048,10.175,10.175,0,0,1-2.088.168,9.435,9.435,0,0,1-3.336-.528,2.718,2.718,0,0,1-1.872-2.424c0-1.728,1.728-2.808,4.488-2.808a10.568,10.568,0,0,1,4.344.912,6.324,6.324,0,0,1,1.608,1.128c.336.336.48.408.744.408.48,0,.648-.336.648-1.272a3.478,3.478,0,0,0-.528-1.8,58.238,58.238,0,0,0-3.288-5.184,25.236,25.236,0,0,0,3.5-1.488c.912-.528,1.32-.888,1.32-1.248,0-.48-.336-.744-.936-.744h-.144a.817.817,0,0,1-.24.024,11.173,11.173,0,0,1-2.712-.744ZM220.08-7.008a11.162,11.162,0,0,1-1.56,2.136c-.384.384-.408.432-.408.72a4.447,4.447,0,0,0,.264,1.32c.144.36.336.552.552.552.24,0,.336-.144.816-1.3A16.808,16.808,0,0,1,221.856-.96c.072.168.336.912.408,1.152.12.456.312.648.576.648.576,0,1.032-1.128,1.032-2.5a7.186,7.186,0,0,0-.072-1.128c-.168-1.848-.24-3-.24-4.3,0-.36,0-.672.024-1.248a34.734,34.734,0,0,1,3.648-3.792c1.92-1.7,3.168-2.424,4.2-2.424.936,0,1.464.672,1.464,1.848a15.428,15.428,0,0,1-.6,3.792,25.024,25.024,0,0,0-.6,4.272c0,2.184.984,3.36,2.808,3.36,1.7,0,3.576-.984,5.3-2.76l-.192-.288a8.776,8.776,0,0,1-4.464,1.7,2.1,2.1,0,0,1-1.224-.36c-.432-.312-.6-.816-.6-1.776a23.127,23.127,0,0,1,.432-3.936,15.688,15.688,0,0,0,.48-3.552,3.011,3.011,0,0,0-.648-2.112,2.48,2.48,0,0,0-1.9-.864c-1.056,0-2.184.5-3.864,1.7a39.015,39.015,0,0,0-4.176,3.672,5.66,5.66,0,0,1,.048-.888,15.7,15.7,0,0,1,.768-1.56c.312-.5.336-.552.336-.7,0-.192-.168-.384-.7-.936a10.628,10.628,0,0,1,.432-1.9c.24-.72.24-.72.24-.984,0-.456-.48-1.056-1.248-1.584A3.238,3.238,0,0,0,222-19.032a.468.468,0,0,0-.312.12,2.6,2.6,0,0,1,1.368,2.664,19.635,19.635,0,0,1-.168,2.544,11.979,11.979,0,0,1-3.456,1.44c-.5,0-1.032-.384-1.56-1.152a2.059,2.059,0,0,0-.072.408c0,.768,1.152,2.184,1.776,2.184.216,0,.36-.072.816-.384.432-.312,1.7-1.176,2.424-1.656-.024.36-.024.36-.072.84-.024.624-.024.624-.048,1.008Zm2.592-2.232c-.072.984-.1,1.536-.1,2.712-.024,3.576-.024,3.576-.072,4.488a20.945,20.945,0,0,1-2.544-1.944c.456-.96.72-1.488,1.272-2.544C222.312-8.544,222.336-8.544,222.672-9.24Zm21.48-5.9c1.2,1.608,2.184,2.064,4.464,2.064.816,0,1.776-.048,3.1-.168v.288l.048,1.752v1.68a19.764,19.764,0,0,1-2.328.168,5.065,5.065,0,0,1-2.808-.528c-.36-.288-.48-.624-.5-1.368l-.36-.024c-.024.264-.048.5-.048.672a2.088,2.088,0,0,0,1.08,1.824,6.568,6.568,0,0,0,3.192.528c.36,0,.816-.024,1.776-.072V-6.24c0,.336,0,.5.024,1.656-.576-.024-.816-.024-1.2-.024-3.192,0-5.424,1.2-5.424,2.9,0,1.512,1.656,2.568,4.056,2.568a5.393,5.393,0,0,0,3.216-.888,2.4,2.4,0,0,0,.816-2.016c0-.288-.024-.528-.072-1.056a8.6,8.6,0,0,1,2.4,1.008A13.749,13.749,0,0,1,257.592-.6c.624.6.72.672.96.672.312,0,.528-.336.528-.84a2.073,2.073,0,0,0-.7-1.584,12.45,12.45,0,0,0-5.28-2.064c-.072-.6-.1-.96-.144-1.872-.024-.84-.024-1.224-.072-2.16a25.8,25.8,0,0,0,3.912-.7c1.512-.408,1.848-.6,1.848-1.032a.494.494,0,0,0-.288-.456,2.781,2.781,0,0,0-1.224-.36.578.578,0,0,0-.36.1,3.744,3.744,0,0,1-1.2.6,19.94,19.94,0,0,1-2.736.648c-.024-1.056-.024-1.536-.024-2.184,0-.552,0-.912.024-1.536a40.684,40.684,0,0,0,4.584-.84c1.488-.36,1.872-.552,1.872-.888a.72.72,0,0,0-.408-.576,3.06,3.06,0,0,0-1.248-.408.682.682,0,0,0-.288.1,12.215,12.215,0,0,1-4.464,1.416,7.75,7.75,0,0,1,.432-2.544c.312-.672.312-.672.312-.816,0-.36-.24-.6-.816-.792a6.7,6.7,0,0,0-2.016-.312c-.672,0-.864.048-1.2.384,1.824.264,1.992.6,2.088,4.272a21.9,21.9,0,0,1-3.432.288,4.921,4.921,0,0,1-3.864-1.3Zm7.584,11.736v.072c0,.192-.024.744-.048.912a1.832,1.832,0,0,1-.528,1.248,3.973,3.973,0,0,1-2.736.864c-1.632,0-2.616-.5-2.616-1.368q0-.936,1.3-1.44a7.47,7.47,0,0,1,2.616-.456A14.1,14.1,0,0,1,251.736-3.408ZM272.5,1.368a12.232,12.232,0,0,0,3.576-2.28,8.319,8.319,0,0,0,2.592-6.1A6.262,6.262,0,0,0,277.9-10.2c-.024-.36-.024-.648-.024-.816,0-.888.072-2.352.168-3.264.984-.072,1.68-.1,2.568-.1a25.621,25.621,0,0,1,3.7.24,9.618,9.618,0,0,0,1.3.144c.36,0,.528-.144.528-.408a.739.739,0,0,0-.384-.648,4.238,4.238,0,0,0-2.04-.888,2.194,2.194,0,0,0-.888.264,10.853,10.853,0,0,1-3.192.432c-.936.072-.936.072-1.56.144a6.03,6.03,0,0,1,.528-2.328c.216-.408.24-.456.24-.648,0-.336-.336-.648-.912-.84a8.023,8.023,0,0,0-2.328-.336c-.648,0-.816.072-1.1.432,1.224.168,1.8.5,2.064,1.176a8.034,8.034,0,0,1,.264,2.664c-2.448.264-3.312.384-6.144.84a12.812,12.812,0,0,1-2.064.216,2.788,2.788,0,0,1-2.328-1.224.8.8,0,0,0-.12.288,3.571,3.571,0,0,0,.96,1.752,2.469,2.469,0,0,0,1.536.912,2.276,2.276,0,0,0,.552-.12,8.9,8.9,0,0,1,1.56-.648,32.877,32.877,0,0,1,6.048-1.2,4.6,4.6,0,0,1,.024.48c0,.768-.024,2.088-.024,2.5a2.419,2.419,0,0,0-1.344-.408c-1.776,0-3.1,1.56-3.1,3.672,0,1.968,1.272,3.456,2.952,3.456a2.746,2.746,0,0,0,1.536-.48c-.6,2.568-1.776,4.1-4.56,6Zm4.416-9.432c0,1.488-.5,2.256-1.536,2.256-1.128,0-1.944-1.1-1.944-2.616,0-1.464.84-2.592,1.92-2.592C276.408-11.016,276.912-10.056,276.912-8.064Zm12.48,4.1a3.1,3.1,0,0,0-3.1,3.1,3.1,3.1,0,0,0,3.1,3.1,3.1,3.1,0,0,0,3.1-3.1A3.073,3.073,0,0,0,289.392-3.96Zm0,.768A2.315,2.315,0,0,1,291.72-.864a2.315,2.315,0,0,1-2.328,2.328,2.346,2.346,0,0,1-2.328-2.328A2.315,2.315,0,0,1,289.392-3.192Z" transform="translate(152.911 5791.023)" fill="#333"/>
    <path id="パス_4127" data-name="パス 4127" d="M402,31.181H0A31.181,31.181,0,0,1-31.181,0,31.181,31.181,0,0,1,0-31.181H402A31.181,31.181,0,0,1,433.181,0,31.181,31.181,0,0,1,402,31.181Z" transform="translate(732.815 5707.5)" fill="#fff6d8"/>
    <path id="パス_4126" data-name="パス 4126" d="M6.144-18.048A.873.873,0,0,0,6-17.592,3.039,3.039,0,0,0,6.456-16.2c.456.84,1.008,1.32,1.488,1.32a1.4,1.4,0,0,0,.72-.264,19.354,19.354,0,0,1,2.9-1.344,9.76,9.76,0,0,1,2.616-.912.309.309,0,0,1,.336.312c0,.384-1.176,1.7-3.84,4.224-3.312,3.192-5.5,4.872-6.744,5.256-.48.144-.648.288-.648.624A1.737,1.737,0,0,0,4.632-5.712c.144,0,.264-.048.6-.264a43.72,43.72,0,0,1,8.592-3.48,9.988,9.988,0,0,0-2.712,2.064A4.928,4.928,0,0,0,9.624-3.984c0,2.784,2.712,4.8,6.528,4.8.84,0,1.224-.192,1.224-.648A1.908,1.908,0,0,0,15.96-1.2c-.048,0-.192.024-.384.048a2.613,2.613,0,0,1-.456.024,5.43,5.43,0,0,1-2.112-.264,3.159,3.159,0,0,1-2.376-3c0-1.68,1.224-3.36,3.264-4.44a10.985,10.985,0,0,1,4.272-1.2,8.677,8.677,0,0,0,1.536-.12.477.477,0,0,0,.48-.456c0-.264-.1-.432-.408-.7a2.392,2.392,0,0,0-1.248-.576,2.531,2.531,0,0,0-.984.24c-.552.192-1.248.384-2.232.672A96.693,96.693,0,0,0,5.976-7.944c2.448-1.824,5.136-3.912,6.96-5.424A28.9,28.9,0,0,1,16.1-15.792c.528-.216.6-.288.6-.552A3.471,3.471,0,0,0,14.52-18.6a.748.748,0,0,0-.432.168,1.836,1.836,0,0,1-.48.36,13.256,13.256,0,0,1-1.872.6,22.272,22.272,0,0,1-3.7.84,1.46,1.46,0,0,1-.984-.288A3.012,3.012,0,0,1,6.144-18.048ZM35.976-.072a14.319,14.319,0,0,0,4.68-1.488,8.27,8.27,0,0,0,4.776-7.272,7.327,7.327,0,0,0-2.3-5.64,9.119,9.119,0,0,0-6.192-2.208,11.638,11.638,0,0,0-8.256,3.36,7.5,7.5,0,0,0-2.16,4.752,4.609,4.609,0,0,0,.552,2.184,14.939,14.939,0,0,1,1.056,2.256A4.712,4.712,0,0,0,28.8-2.592a1.393,1.393,0,0,0,1.056.5c.888,0,2.064-1.176,3.576-3.576,1.824-2.928,3.168-6.432,3.168-8.3a3.132,3.132,0,0,0-.744-1.992,5.525,5.525,0,0,1,.84-.048,7.922,7.922,0,0,1,4.152,1.1A5.954,5.954,0,0,1,43.56-9.6a8.537,8.537,0,0,1-2.136,5.784A10.915,10.915,0,0,1,35.808-.48Zm-.624-15.792a2.679,2.679,0,0,1,.336,1.2c0,1.488-1.272,4.584-3.048,7.416C31.464-5.376,30.312-4.08,29.784-4.08c-.264,0-.576-.264-.912-.7a5.616,5.616,0,0,1-.96-3.168C27.912-11.64,31.176-15.12,35.352-15.864ZM61.2-6.984v-5.424c.768-.288.96-.408.96-.6,0-.264-.552-.36-2.712-.576.048.792.048,1.056.048,2.088V.072H55.512V-8.256c.672-.288.936-.456.936-.624,0-.264-.384-.336-2.664-.576a15.206,15.206,0,0,1,.048,1.584V.072H51.648a9.474,9.474,0,0,1-2.328-.24l.168.912a14.176,14.176,0,0,1,1.968-.12H70.728c.1,0,.144-.048.144-.1,0-.072-.048-.144-.144-.24-1.056-.912-1.392-1.176-2.5-2.04-.648.792-.84,1.032-1.464,1.824H61.2v-6.5h6.7c.144,0,.216-.048.216-.12,0-.048-.024-.1-.12-.192-.984-.84-1.3-1.08-2.3-1.824-.624.768-.624.768-1.32,1.584ZM48.552-8.4a22.985,22.985,0,0,0,6.12-3.744,28.594,28.594,0,0,0,5.808-6.288,21.087,21.087,0,0,0,4.248,5.76,25.365,25.365,0,0,0,5.04,3.6c.6-1.032.96-1.344,1.776-1.416l.1-.36A19.633,19.633,0,0,1,65.76-13.7a14.149,14.149,0,0,1-4.8-4.944c.792-.192.96-.264.96-.456s-.1-.24-1.416-.624c-.288-.072-.768-.216-1.344-.384a23.005,23.005,0,0,1-3.528,5.16A28.293,28.293,0,0,1,48.36-8.688Zm35.856-2.832h9.12c.192,0,.264-.048.264-.12a.259.259,0,0,0-.072-.168c-.864-.72-1.152-.936-2.064-1.584-.6.552-.768.744-1.344,1.32h-4.1a19.529,19.529,0,0,0,1.56-1.272c.144-.12.384-.312.672-.552.192.024.5.024.528.024.336,0,.528-.072.528-.24,0-.1-.12-.216-.336-.336-1.056-.6-1.056-.6-1.848-1.056H94.92c.168,0,.24-.024.24-.12,0-.048-.024-.1-.12-.192-.912-.792-1.2-1.032-2.16-1.752l-1.344,1.512H88.488c.96-.84,1.056-.936,2.784-2.64.84-.024,1.032-.1,1.032-.288,0-.1-.048-.144-.216-.24-.432-.24-1.392-.648-2.112-.936-.288,1.008-.576,1.536-2.136,4.1H86.448V-19.08c.792-.24.936-.312.936-.5,0-.12-.072-.192-.24-.24a9.871,9.871,0,0,0-2.256-.288c.048.816.048,1.1.048,2.136v2.208H82.512v-3.36c.72-.216.912-.312.912-.5,0-.264-.384-.336-2.472-.5.048.936.072,1.392.072,2.16v2.208H75.888a9.285,9.285,0,0,1-2.544-.312l.168.984a15.382,15.382,0,0,1,2.376-.12h3.648l-.216.288a8.828,8.828,0,0,1,1.368,2.568,2.189,2.189,0,0,0,.264.576H77.208a9.2,9.2,0,0,1-2.4-.264l.168.936a18.356,18.356,0,0,1,2.232-.12h5.664v2.208h-4.3a11.478,11.478,0,0,1-2.5-.264l.144.96a20.9,20.9,0,0,1,2.352-.144h4.3v2.184H76.224a11.119,11.119,0,0,1-2.64-.24l.144.984a16.46,16.46,0,0,1,2.5-.192h5.232A14.574,14.574,0,0,1,78.768-3.12,24.741,24.741,0,0,1,72.816.36l.168.384A22.967,22.967,0,0,0,78-1.344a22.074,22.074,0,0,0,4.872-3.84v1.992c0,.888-.072,3.5-.12,4.656v.048c0,.216.048.288.288.288,1.2,0,1.368-.048,1.392-.408-.024-2.52-.024-4.032-.024-4.488V-5.472A19.527,19.527,0,0,0,87.96-2.064a19.943,19.943,0,0,0,5.3,2.688C93.84-.408,94.08-.624,94.92-.864v-.36a18.217,18.217,0,0,1-2.544-.408,18.9,18.9,0,0,1-4.8-1.9,14.118,14.118,0,0,1-2.808-2.208h9.408c.168,0,.264-.048.264-.144a.738.738,0,0,0-.1-.216c-.888-.72-1.152-.96-2.064-1.656-.624.624-.816.816-1.416,1.464H84.408V-8.472h7.368c.168,0,.24-.048.24-.12,0-.048-.024-.1-.1-.168-.816-.7-1.08-.912-1.9-1.584-.552.552-.7.744-1.224,1.32H84.408Zm2.784-3.984a11.513,11.513,0,0,1-1.608,3.432H81.528a1.383,1.383,0,0,0,.576-.984c0-.552-.48-1.032-2.472-2.448ZM76.056-19.632a9.382,9.382,0,0,1,1.8,2.784c.24.576.36.744.576.744.336,0,.792-.768.792-1.344,0-.744-.864-1.44-2.952-2.4Zm27.192,10.68-1.272,3.36a19.024,19.024,0,0,1-.864,2.04,9.094,9.094,0,0,1-.456-3.168,13.164,13.164,0,0,1,.312-2.976,20.413,20.413,0,0,1,1.3-3.816c.48-.96.5-1.056.5-1.44a3.239,3.239,0,0,0-.888-1.9c-.648-.84-1.08-1.152-1.608-1.176a4.268,4.268,0,0,1,.672,2.256,11.234,11.234,0,0,1-.336,2.232A36.72,36.72,0,0,0,99.768-9a21.627,21.627,0,0,0-.192,2.568,14.221,14.221,0,0,0,.84,5.112c.264.648.624.984,1.032.984a.59.59,0,0,0,.576-.408,3.505,3.505,0,0,0,.072-1.032A9.438,9.438,0,0,1,102.5-4.32c.672-2.784,1.032-4.3,1.08-4.512Zm3.1-6.024a4.229,4.229,0,0,0,3.264,1.344c.216,0,.48-.024.984-.048-.384.288-1.2.96-2.28,1.872l.24.24a24.51,24.51,0,0,1,3.1-1.7,13.758,13.758,0,0,1,3.408-.84c.5-.1.672-.24.672-.552s-.24-.6-.744-.888a1.826,1.826,0,0,0-.84-.336c-.168,0-.216.024-.528.192a12.744,12.744,0,0,1-4.824,1.08,3.756,3.756,0,0,1-2.232-.648ZM106.2-7.728a6.506,6.506,0,0,0-.288,1.9,3.986,3.986,0,0,0,1.3,3.12c1.08.96,3.216,1.464,6.216,1.464a12.068,12.068,0,0,0,3-.264c.336-.12.528-.312.528-.6a1.847,1.847,0,0,0-1.512-1.416,1.185,1.185,0,0,0-.36.072,3.739,3.739,0,0,1-1.272.384,11.326,11.326,0,0,1-2.04.168c-3.72,0-5.232-1.08-5.232-3.72a9.333,9.333,0,0,1,.072-1.008Zm16.224-5.52A3.99,3.99,0,0,0,126-11.28a11.231,11.231,0,0,0,1.872-.168c-.072,2.376-.072,2.376-.12,3.456-.024.456-.024.816-.048,1.152a11.918,11.918,0,0,0-3.816,2.472,2.077,2.077,0,0,0-.72,1.344,1.142,1.142,0,0,0,.792,1.008,9.907,9.907,0,0,1,1.608,1.08c1.464,1.3,1.464,1.3,1.8,1.3a1.459,1.459,0,0,0,1.152-.888,2.811,2.811,0,0,0,.312-1.416c0-.192,0-.456-.024-.912-.024-.72-.024-.72-.024-3.264a15.506,15.506,0,0,1,6.5-1.728c2.3,0,3.552,1.008,3.552,2.856a3.034,3.034,0,0,1-3,3.288,3.21,3.21,0,0,1-2.28-.912A7.132,7.132,0,0,1,132.12-4.7l-.36.12c.84,2.784,2.424,4.248,4.632,4.248a4.088,4.088,0,0,0,4.1-4.176c0-2.544-2.064-4.1-5.352-4.1a17.779,17.779,0,0,0-6.36,1.32c.024-1.44.072-2.5.1-3.144.048-.864.048-.864.072-1.2a16.688,16.688,0,0,0,3.5-1.176c.864-.408,1.08-.6,1.08-.936a.611.611,0,0,0-.408-.528,2.924,2.924,0,0,0-.912-.216,1.14,1.14,0,0,0-.576.24,6.877,6.877,0,0,1-2.616,1.392,9.106,9.106,0,0,1,.744-3.576c.264-.48.264-.48.264-.624a.983.983,0,0,0-.528-.768,5.608,5.608,0,0,0-2.472-.6A1.349,1.349,0,0,0,126-18.1c1.656.288,1.944.792,1.944,3.312,0,.432,0,1.512-.024,2.208a10.528,10.528,0,0,1-2.4.312,4.011,4.011,0,0,1-2.856-1.224Zm5.208,7.68c0,.144-.048,1.32-.168,3.48-.024.432-.144.6-.432.6a5.019,5.019,0,0,1-1.488-.384c-.648-.24-.96-.5-.96-.744q0-.4.72-1.152A10.052,10.052,0,0,1,127.632-5.568Zm8.352-10.008a6.676,6.676,0,0,1,1.656.624,3.618,3.618,0,0,1,1.512,1.488,16.961,16.961,0,0,1-2.616,1.536l.144.24a15.5,15.5,0,0,1,2.952-.648,3.172,3.172,0,0,1,.5.048,1.4,1.4,0,0,0,.36.048.662.662,0,0,0,.72-.7,2.734,2.734,0,0,0-1.68-2.112,7.957,7.957,0,0,0-3.528-.864ZM154.56-9.72c-.312.528-.312.528-.7,1.152-1.248,2.088-1.248,2.088-2.016,3.384-.528.888-.528.888-.792,1.272a3.484,3.484,0,0,1-1.248-1.872,10.279,10.279,0,0,1-.552-3.48,18.768,18.768,0,0,1,.432-3.576,4.093,4.093,0,0,0,.072-.624,2.894,2.894,0,0,0-1.08-1.9,3.561,3.561,0,0,0-1.8-1.176h-.216c1.032,1.344,1.2,1.9,1.224,4.128a27.166,27.166,0,0,0,.168,4.224,11,11,0,0,0,1.632,4.8,4.516,4.516,0,0,0,2.64,2.04.567.567,0,0,0,.528-.6,2.1,2.1,0,0,0-.048-.384,2.877,2.877,0,0,1-.144-.816c0-.96.5-2.376,2.256-6.408Zm5.352-3.888a6.633,6.633,0,0,1,2.976,3.144,8.716,8.716,0,0,1,.744,3.144c0,.456-.072.552-.552.72-.216.072-1.3.384-3.24.912l.072.36c.816-.048,1.272-.048,1.824-.048a3.2,3.2,0,0,1,1.8.288,1.158,1.158,0,0,0,.72.264c.72,0,1.2-.744,1.2-1.9a7.483,7.483,0,0,0-5.424-7.176Zm9.648-2.04a.945.945,0,0,0-.264.624,3.428,3.428,0,0,0,.624,1.608A2.649,2.649,0,0,0,171.768-12a1.582,1.582,0,0,0,.96-.336,26.8,26.8,0,0,1,3.84-1.536,38.7,38.7,0,0,1,6.888-1.656,12.336,12.336,0,0,0-3.912,2.736,8.942,8.942,0,0,0-2.616,5.856,6.344,6.344,0,0,0,2.784,5.376A9.912,9.912,0,0,0,184.584.168c.528,0,.888-.264.888-.672a2.1,2.1,0,0,0-.72-1.152,1.223,1.223,0,0,0-1.008-.384,7.518,7.518,0,0,1-2.448-.576,4.867,4.867,0,0,1-3.168-4.728c0-4.032,3.96-7.944,8.064-7.944a3.523,3.523,0,0,1,.672.048,3.078,3.078,0,0,0,.432.024c.456,0,.744-.24.744-.6,0-.336-.216-.6-.7-.912a3.205,3.205,0,0,0-1.3-.5,3.023,3.023,0,0,0-.84.192,25.185,25.185,0,0,1-3.24.768c-1.584.312-2.88.6-3.888.84-5.376,1.3-5.976,1.416-6.648,1.416a1.36,1.36,0,0,1-1.08-.408A2.653,2.653,0,0,1,169.56-15.648Zm28.368-2.808c.984.168,1.416.384,1.728.888.192.384.24.72.288,2.76.1,3.36.264,4.2.864,4.7a1.568,1.568,0,0,0,1.056.36h.1a16.639,16.639,0,0,0-2.928,1.92c-1.584,1.344-2.352,2.64-2.352,4.032A3.81,3.81,0,0,0,199.3-.216a12.271,12.271,0,0,0,4.08.552,37.211,37.211,0,0,0,4.608-.312c.768-.168,1.032-.36,1.032-.816a1.365,1.365,0,0,0-1.3-1.176,2.311,2.311,0,0,0-.48.072,28.133,28.133,0,0,1-5.568.72c-2.664,0-4.032-.888-4.032-2.616a3.862,3.862,0,0,1,1.872-3.072,16.348,16.348,0,0,1,6-2.688,15.171,15.171,0,0,0,1.608-.5.761.761,0,0,0,.5-.72,1.17,1.17,0,0,0-1.152-1.008,2.088,2.088,0,0,0-.984.288c-2.184,1.008-2.712,1.2-3.216,1.2-.744,0-.936-.36-.936-1.776a18.52,18.52,0,0,1,.528-4.848c.168-.432.192-.456.192-.624v-.048c0-.36-.192-.576-.672-.768a7.768,7.768,0,0,0-2.424-.456A1.337,1.337,0,0,0,197.928-18.456ZM207.24-17.3a11.418,11.418,0,0,1,1.824,2.544c.768,1.56.768,1.56,1.08,1.56.408,0,.744-.432.744-1.008s-.336-1.128-1.2-1.92a12.24,12.24,0,0,0-2.136-1.488Zm2.52-1.392a12.293,12.293,0,0,1,2.64,3.432c.192.336.336.456.552.456.36,0,.6-.408.6-.984,0-.672-.312-1.152-1.248-1.848a10.842,10.842,0,0,0-2.28-1.368ZM225.816-.072A14.319,14.319,0,0,0,230.5-1.56a8.27,8.27,0,0,0,4.776-7.272,7.327,7.327,0,0,0-2.3-5.64,9.119,9.119,0,0,0-6.192-2.208,11.638,11.638,0,0,0-8.256,3.36,7.5,7.5,0,0,0-2.16,4.752,4.609,4.609,0,0,0,.552,2.184,14.94,14.94,0,0,1,1.056,2.256,4.711,4.711,0,0,0,.672,1.536,1.393,1.393,0,0,0,1.056.5c.888,0,2.064-1.176,3.576-3.576,1.824-2.928,3.168-6.432,3.168-8.3a3.132,3.132,0,0,0-.744-1.992,5.525,5.525,0,0,1,.84-.048,7.922,7.922,0,0,1,4.152,1.1A5.954,5.954,0,0,1,233.4-9.6a8.537,8.537,0,0,1-2.136,5.784A10.915,10.915,0,0,1,225.648-.48Zm-.624-15.792a2.679,2.679,0,0,1,.336,1.2c0,1.488-1.272,4.584-3.048,7.416-1.176,1.872-2.328,3.168-2.856,3.168-.264,0-.576-.264-.912-.7a5.616,5.616,0,0,1-.96-3.168C217.752-11.64,221.016-15.12,225.192-15.864Zm20.784-2.544c1.56.264,1.92.648,2.088,2.04.192,1.608.192,1.608.336,11.256-.408-.024-.72-.024-.912-.024a10.26,10.26,0,0,0-3.48.576c-1.512.576-2.328,1.488-2.328,2.64,0,1.608,1.584,2.616,4.1,2.616a7.985,7.985,0,0,0,2.448-.36,2.337,2.337,0,0,0,1.7-2.376c0-.432,0-.432-.048-1.56a12.808,12.808,0,0,1,5.4,3.048c.264.216.408.312.576.312.312,0,.48-.336.48-.912a2.338,2.338,0,0,0-1.488-2.064,15.4,15.4,0,0,0-5.064-1.752c-.144-1.56-.264-4.368-.264-6.264v-1.056a2.112,2.112,0,0,0,1.608.6,10.2,10.2,0,0,0,3.336-.744c1.1-.408,1.416-.6,1.416-.96,0-.216-.12-.36-.5-.576a3.058,3.058,0,0,0-1.032-.312c-.144,0-.264.072-.528.264a7.872,7.872,0,0,1-3.648,1.416.788.788,0,0,1-.648-.264v-.456a12.342,12.342,0,0,1,.48-3.456c.192-.48.192-.48.192-.672,0-.48-.384-.816-1.2-1.032a7.311,7.311,0,0,0-1.92-.288A1.47,1.47,0,0,0,245.976-18.408Zm2.4,14.448c0,1.632-.072,2.136-.384,2.52a3.919,3.919,0,0,1-3,.984c-1.7,0-2.688-.552-2.688-1.512,0-1.2,1.776-2.04,4.248-2.04C247.32-4.008,247.608-4.008,248.376-3.96Zm21.576-16.032a5.581,5.581,0,0,0,4.056,2.616c-.6.216-2.256.96-4.056,1.776l.12.336c4.968-1.44,4.968-1.44,5.976-1.464.648,0,.984-.192.984-.528a1.194,1.194,0,0,0-.5-.816,1.855,1.855,0,0,0-1.3-.576h-.552a7.056,7.056,0,0,1-4.488-1.536ZM271.728,1.9A11.048,11.048,0,0,0,275.5-.912a11.713,11.713,0,0,0,2.976-7.752,6.338,6.338,0,0,0-.912-3.528,3.8,3.8,0,0,0-2.976-1.608c-1.224,0-2.016.264-4.056,1.368a6.492,6.492,0,0,1-2.208.936c-.624,0-1.1-.6-1.32-1.656a1.3,1.3,0,0,0-.384.888,3.028,3.028,0,0,0,.648,1.608,2.193,2.193,0,0,0,1.584,1.08c.384,0,.528-.1.984-.552,1.656-1.8,3.336-2.832,4.608-2.832,1.416,0,2.28,1.464,2.28,3.84a14.759,14.759,0,0,1-2.04,7.3,13.26,13.26,0,0,1-3.168,3.456ZM287.9-14.9a4.9,4.9,0,0,0,1.752,1.752,3.883,3.883,0,0,0,2.112.5,7.117,7.117,0,0,0,1.128-.1,31.857,31.857,0,0,1-3,5.64,10.764,10.764,0,0,1-1.152,1.44,1.018,1.018,0,0,0-.264.864c0,.96.336,1.7.744,1.7.288,0,.5-.216.864-.864.216-.408,2.064-4.44,2.784-6.1.648-1.44,1.056-2.424,1.272-2.9,3.816-.888,5.3-1.488,5.3-2.112,0-.408-.7-.72-1.632-.72a.589.589,0,0,0-.5.192,6.257,6.257,0,0,1-2.664,1.32c.864-1.776,1.368-2.76,1.464-2.952a1.026,1.026,0,0,0,.24-.624c0-.336-.312-.6-1.128-1.008a5.04,5.04,0,0,0-1.92-.552,1.02,1.02,0,0,0-.576.168c1.152.576,1.536,1.056,1.536,1.848a9.932,9.932,0,0,1-.864,3.408,10.5,10.5,0,0,1-2.184.288,3.85,3.85,0,0,1-3.024-1.392Zm12.912,1.536a6.688,6.688,0,0,1,3.1,1.656c-.888.192-.936.216-1.3.312a4.487,4.487,0,0,0-2.28,1.128c-.648.72-.84,1.464-.84,3.432,0,.288,0,.48.072,2.376a7.764,7.764,0,0,0-1.44-.12c-2.664,0-4.488,1.176-4.488,2.856,0,1.512,1.488,2.544,3.648,2.544a4.43,4.43,0,0,0,3.12-1.032,2.693,2.693,0,0,0,.672-2.04v-.456a8.726,8.726,0,0,1,2.9,2.112c.5.552.6.624.84.624.288,0,.48-.336.48-.816a2.289,2.289,0,0,0-.96-1.9,10.821,10.821,0,0,0-3.408-1.56,34.3,34.3,0,0,1-.48-4.128c0-1.656.6-2.184,2.52-2.184a3.773,3.773,0,0,1,2.352.5.906.906,0,0,0,.552.192.626.626,0,0,0,.624-.7c0-.552-.576-1.272-1.512-1.872a8.48,8.48,0,0,0-4.1-1.32ZM299.592-2.592c0,1.512-1.008,2.3-2.952,2.3-1.488,0-2.4-.528-2.4-1.416,0-1.128,1.248-1.824,3.288-1.824a6.7,6.7,0,0,1,2.064.288Zm13.56-1.968c-.072,3.984-.1,5.976-.1,6,.024.288.1.36.384.36,1.152,0,1.344-.048,1.344-.408V-.1c-.048-1.3-.048-2.088-.048-2.52V-4.56l.024-4.512c.672-.264.792-.336.792-.5,0-.192-.576-.36-1.536-.456a34.632,34.632,0,0,0,2.376-3.192h.5c.36,0,.576-.1.576-.288,0-.216-.576-.5-2.448-1.224a19.37,19.37,0,0,1-1.584,3.36,17.938,17.938,0,0,1-3.624,4.728l.288.312a16.7,16.7,0,0,0,3.048-2.64Zm7.488-4.728a10.306,10.306,0,0,1-2.952-.264l.24.984a6.759,6.759,0,0,1,1.44-.144,17.308,17.308,0,0,0,3.456,5.568,21.268,21.268,0,0,1-6.936,4.416l.216.384a20.592,20.592,0,0,0,7.68-3.864,15.546,15.546,0,0,0,6.768,3.528,2.291,2.291,0,0,1,1.824-1.728V-.7a18.961,18.961,0,0,1-4.992-1.128,15.448,15.448,0,0,1-2.616-1.248,19.907,19.907,0,0,0,3.864-4.9c.984-.216,1.392-.384,1.392-.576,0-.1-.072-.192-.264-.336a18.2,18.2,0,0,0-1.776-1.488c-.432.432-.576.576-1.032,1.08Zm6.312.552a16.019,16.019,0,0,1-3.36,4.848,12.78,12.78,0,0,1-3.7-4.848h7.056ZM310.32-13.008a14.748,14.748,0,0,0,3.36-2.472,17.093,17.093,0,0,0,2.76-3.048c1.032-.024,1.272-.072,1.272-.312s-.6-.5-2.688-1.272A10.445,10.445,0,0,1,313.68-17.5a16.525,16.525,0,0,1-3.6,4.176Zm6.288,3.624a9.747,9.747,0,0,0,3.288-2.448,7.382,7.382,0,0,0,1.68-5.232v-.912h3.792v5.064c0,.6.168,1.008.48,1.176a3.6,3.6,0,0,0,1.7.216,21.692,21.692,0,0,0,3.624-.192c.456-.12.816-.456.816-.768,0-.24-.12-.384-.5-.528-.312-.144-.408-.264-.408-.528a1.23,1.23,0,0,1,.024-.24l.144-3.24h-.312c-.744,2.472-1.128,3.744-1.152,3.792-.144.336-.36.384-1.44.384h-1.056c-.312,0-.336-.048-.336-.408v-4.224c.936-.576.96-.576.96-.744,0-.1-.072-.168-.24-.312-.648-.528-.84-.7-1.536-1.2-.456.5-.576.648-1.008,1.2H321.84a13.137,13.137,0,0,0-2.016-1.2c.072,1.032.1,1.8.1,2.64a9.494,9.494,0,0,1-.816,4.272,7.449,7.449,0,0,1-2.712,3.144Zm24.12-1.9v-6.672h2.112c.1,0,.168-.048.168-.1a.341.341,0,0,0-.048-.144c-.792-.768-1.032-1.008-1.8-1.728-.552.6-.72.792-1.272,1.416h-4.224a6.752,6.752,0,0,1-1.824-.144l.12.816a4.166,4.166,0,0,1,1.248-.12h.288V-3.72a13.02,13.02,0,0,1-1.656.36c.264.624.336.744.576,1.32.288.648.36.816.384.888.1.144.192.24.264.24.192,0,.288-.36.312-1.128.648-.384.648-.384,3.216-1.8a4.669,4.669,0,0,1,.624-.384v.672c0,.936-.048,3.576-.1,5.064V1.56c0,.264.168.336.672.336.72,0,.912-.1.96-.408V-.048L340.728-2.9v-7.824h9.336a20.409,20.409,0,0,0,.984,6.48A21.657,21.657,0,0,1,345.216,1.8l.192.312A14.184,14.184,0,0,0,349.44-.6a21.418,21.418,0,0,0,2.136-2.28A13.458,13.458,0,0,0,353.688.384c.792.888,1.392,1.3,1.872,1.3a.741.741,0,0,0,.72-.792,1.2,1.2,0,0,0-.24-.648c-.24-.36-.264-.408-.264-.672a2.338,2.338,0,0,1,.024-.384c0-.192.024-.336.024-.456l.312-4.248-.312-.1c-.288,1.032-.288,1.032-.6,2.112-.456,1.488-.456,1.488-.72,2.352a9.266,9.266,0,0,1-1.944-3.024,26.039,26.039,0,0,0,2.352-4.152h.288c.456,0,.744-.12.744-.288,0-.12-.12-.216-.336-.288-1.128-.408-1.128-.408-1.968-.744a14.187,14.187,0,0,1-1.656,3.912,22.038,22.038,0,0,1-.552-4.992h4.8c.144,0,.24-.048.24-.144,0-.024-.048-.072-.1-.144-.888-.816-1.152-1.056-2.04-1.8-.576.624-.744.84-1.3,1.536h-1.608c-.072-2.952-.1-4.368-.1-5.04,0-.7,0-1.224.048-2.328.84-.312,1.008-.408,1.008-.576,0-.264-.12-.288-2.592-.648.048.816.072,1.344.1,1.872.1,5.688.1,5.688.144,6.72h-3.912a24.471,24.471,0,0,0,2.064-3.048h.12c.5,0,.792-.1.792-.288,0-.168-.264-.336-1.056-.624-.216-.1-.6-.24-1.08-.432a15.561,15.561,0,0,1-1.392,4.392Zm-1.512-6.672V-13.7H336.96v-4.248Zm0,4.752v3.984H336.96V-13.2Zm0,4.44v3.936c-.96.336-1.368.456-2.256.72V-8.76Zm6.792-7.968v-2.016c.96-.36,1.032-.384,1.032-.576,0-.12-.1-.192-.312-.24-.432-.1-1.488-.24-2.3-.312a8.706,8.706,0,0,1,.168,1.7v1.44h-1.464a6.3,6.3,0,0,1-1.728-.216l.144.84a5.443,5.443,0,0,1,1.584-.168h6.336c.12,0,.216-.048.216-.12a.351.351,0,0,0-.072-.12c-.72-.648-.936-.84-1.656-1.464-.432.552-.576.72-.984,1.248Zm-3.768,1.08a10.543,10.543,0,0,1,1.152,3.672c.048.264.144.384.312.384.408,0,.984-.816.984-1.368,0-.5-.864-1.632-2.184-2.808Zm1.776,6.888a15.448,15.448,0,0,0-1.752-.96c.072,1.56.1,2.448.1,4.656,0,2.184-.024,3.024-.1,4.992,0,.24.12.336.432.336h.216c.672-.024.864-.072.936-.336v-1.56h3.12V-1.2c0,.192.072.24.336.24.864,0,1.056-.1,1.08-.552-.048-1.032-.048-1.728-.048-3.024,0-1.176,0-1.752.048-3.288.48-.264.624-.384.624-.576,0-.1-.072-.168-.264-.36-.7-.48-.7-.48-1.224-.84a8.435,8.435,0,0,1-.744.84Zm2.952,3.168h-3.12V-8.208h3.12Zm0,.5v2.9h-3.12v-2.9ZM351.72-17.76a11.389,11.389,0,0,1,2.136,3.984c.1.336.192.456.36.456.336,0,.888-1.056.888-1.752,0-.72-1.032-1.656-3.192-2.88Zm12.24,7.536c-1.008,2.208-1.008,2.208-1.92,3.984a16.111,16.111,0,0,1-1.776,2.832,1.576,1.576,0,0,0-.552,1.344c0,1.032.264,1.656.7,1.656.216,0,.408-.144.576-.456.384-.672,1.176-2.4,2.136-4.656.84-1.992,1.32-3.12,1.416-3.36,1.056-2.448,1.056-2.448,1.392-3.264a7.768,7.768,0,0,1,2.52-.5c1.272,0,1.7.576,1.7,2.184a18.565,18.565,0,0,1-1.416,6.456c-.624,1.512-1.008,2.016-1.56,2.016a12.08,12.08,0,0,1-3.72-1.656l-.216.312c2.544,2.088,2.592,2.136,2.664,2.808a.558.558,0,0,0,.648.552,3.4,3.4,0,0,0,2.3-1.08c1.392-1.56,2.616-5.544,2.616-8.616,0-2.52-.984-3.744-3.048-3.744a8.355,8.355,0,0,0-2.088.288,23.23,23.23,0,0,1,1.536-3.264c.288-.408.336-.5.336-.7,0-.5-.6-.936-1.68-1.248a6.576,6.576,0,0,0-1.608-.312,1.085,1.085,0,0,0-.72.24c1.392.456,1.848.864,1.848,1.608a13.529,13.529,0,0,1-.984,3.936,24.816,24.816,0,0,1-4.08.84c-.888,0-1.32-.312-1.824-1.32a1.587,1.587,0,0,0-.144.528,3.807,3.807,0,0,0,.792,1.824,1.773,1.773,0,0,0,1.056.72,1.255,1.255,0,0,0,.7-.264,18.58,18.58,0,0,1,3.12-1.248Zm9.888-2.76a6.965,6.965,0,0,1,3.288,3.192,6.165,6.165,0,0,1,.744,2.3,36.534,36.534,0,0,1-3.672,1.224l.1.336a21.225,21.225,0,0,1,3-.216,1.549,1.549,0,0,1,.984.24.909.909,0,0,0,.552.168c.6,0,.96-.48.96-1.3a5.657,5.657,0,0,0-1.368-3.408,8.341,8.341,0,0,0-4.392-2.88Z" transform="translate(737.911 5718.023)" fill="#333"/>
    <path id="パス_4125" data-name="パス 4125" d="M1094,.5H0v-1H1094Z" transform="translate(95.815 5548.5)" fill="#8c7100"/>
    <path id="パス_4124" data-name="パス 4124" d="M1094,.5H0v-1H1094Z" transform="translate(95.815 5844)" fill="#8c7100"/>
  </g>
</svg>
