<?xml version="1.0" encoding="UTF-8"?><svg xmlns="http://www.w3.org/2000/svg" viewBox="0 0 666.88 44.03"><defs><style>.d{fill:#42210b;}.e{fill:none;stroke:#000;stroke-miterlimit:10;stroke-width:1.7px;}.f{isolation:isolate;}</style></defs><g id="a"/><g id="b"><g id="c"><g><g class="f"><path class="d" d="M59.58,34.07c1.36-1.75,2.77-3.9,3.93-6.04,.37-.68,.61-1.2,.6-1.32s-.12-.2-.24-.18c-.45,.06-1.41,.49-3.91,1.74-3.44,1.72-3.94,1.99-5.08,2.63,.12,1.38,.19,1.88,.3,2.74,.4,3,.74,4.38,1.27,5.01,.54,.64,1.64,.84,3.52,.6,2.1-.27,4.13-.84,5.33-1.47,.37-.2,.43-.24,.58-.25,.27-.03,.74,.09,1.23,.33,.64,.31,1,.72,1.06,1.14,.04,.36-.16,.63-.6,.77-.99,.4-2.74,.74-4.89,1.02-4.25,.55-6.31,.16-7.43-1.36-.79-1.07-1.27-2.89-1.97-7.73q-.25,.19-1.39,.82c-.2,.12-.57,.35-1.11,.66-.28,.19-.59,.4-.87,.57-.38,.24-.42,.27-.78,.56-.36,.29-.62,.42-.92,.46-.63,.09-1.52-.4-2.4-1.25-.6-.58-1.03-1.25-1.09-1.67-.01-.09,0-.21,.01-.36,1.08,.97,1.77,1.27,2.64,1.16,.75-.1,3.6-1.27,5.75-2.34-.8-5.61-.84-5.89-1.15-6.6-.34-.77-1.11-1.18-2.46-1.37,.23-.33,.46-.46,.98-.52,1.03-.14,2.38,.05,3.47,.45,.65,.25,1,.59,1.05,.98,.02,.18,.03,.18-.15,.75-.25,.82-.27,2.82-.06,5.58,3.34-1.62,5.34-2.57,6.19-3.04q1.58-.84,2.1-1.33c.27-.28,.45-.36,.75-.4,.57-.07,1.5,.29,2.52,.98,.74,.5,1.05,.83,1.1,1.19,.05,.42-.08,.55-.74,.91-.29,.16-1,.85-2.85,2.84-1.27,1.31-2.2,2.19-3.93,3.68-.14-.13-.21-.19-.35-.32Z"/><path class="d" d="M98.44,23.81c-1.41,2.48-2.25,3.69-3.92,5.57-2.43,2.75-5.1,5.02-8.38,7.12-1.58,1.06-1.61,1.07-2.08,1.7-.21,.3-.4,.44-.64,.47-.6,.07-2.19-1.52-2.29-2.33-.02-.15,0-.16,.09-.55,.15-.66,.08-1.37-.3-4.59-.79-6.58-1.28-9.46-1.81-10.51-.36-.71-.89-1.01-2.27-1.3,.33-.28,.54-.37,.9-.41,.64-.08,1.61,.08,2.51,.43,1.25,.48,1.93,1.01,2,1.61,.02,.18,.02,.18-.08,.64-.1,.49-.1,1.63-.04,3,.08,1.82,.53,7.28,.79,9.48l.18,1.49c4.14-2.09,6.65-3.77,9.64-6.47,2.1-1.9,3.98-3.92,5.29-5.66l.43,.31Z"/><path class="d" d="M109.09,16.23c1.45,.93,2.33,1.2,3.48,1.08,1.79-.19,4.44-.91,6.73-1.83,1.67-.68,2.32-.99,3.08-1.6,.2-.14,.38-.22,.59-.24,.94-.09,2.45,.63,2.5,1.2,.04,.39-.54,.75-2.02,1.22-3.59,1.11-6.06,1.78-7.77,2.08,1.56,.56,2.09,.99,2.16,1.74,.02,.21,.03,.22-.06,.88-.08,.57-.12,1.52-.07,2.6,1.58-.4,6.52-1.62,6.99-1.75,.88-.24,1.45-.44,1.94-.7,.23-.11,.44-.19,.62-.21,.45-.04,1.33,.17,2.03,.5,.64,.3,1.04,.71,1.08,1.07,.03,.36-.28,.6-.88,.66-.09,0-.19,.02-.36,.03-.5,.03-1.91,.12-2.78,.21-2.72,.26-4.51,.59-8.59,1.52,.12,1.8,.17,2.58,.25,3.35,.22,2.15,.39,2.89,.74,3.42,.43,.65,1.21,.84,2.56,.71,2.01-.2,3.97-.7,5.18-1.3,.09-.04,.2-.08,.33-.09,.36-.04,.96,.15,1.5,.46,.55,.31,.82,.61,.85,.97,.04,.42-.24,.69-.83,.86-.96,.28-2.76,.57-4.15,.71-3.84,.38-5.58,.02-6.57-1.36-.67-.93-.94-2.04-1.23-4.03-.06-.4-.07-.41-.27-2.38l-.1-.96c-2.26,.56-4.43,1.33-5.44,1.89-.34,.22-.49,.26-.7,.29-.42,.04-.9-.12-1.46-.51-.86-.6-1.7-1.69-1.77-2.29-.02-.21,.02-.36,.12-.59,.91,1.05,1.74,1.44,2.92,1.32,.9-.1,2.31-.4,6.17-1.37-.02-.51-.02-.54-.07-.96-.35-3.46-.5-3.96-1.22-4.46-.27,.06-.51,.08-.66,.1-1.57,.16-2.85-.07-3.8-.66-.42-.26-.73-.53-1.41-1.21,.16-.15,.23-.22,.39-.37Z"/><path class="d" d="M142.3,33.87c2.06-2.02,3.71-4.83,4.77-8.01,.79-2.35,1.36-5.36,1.24-6.67-.07-.81-.7-1.35-1.95-1.76,.16-.23,.37-.33,.67-.36,.39-.03,1.49,.27,2.4,.66,.82,.35,1.15,.56,1.39,.93,1.32-.96,3.86-3.31,5.06-4.73,.64-.72,.86-1.06,.84-1.27-.03-.36-.4-.42-1.83-.3-2,.17-7.12,1.42-10.32,2.55-1.12,.4-2.15,.85-3,1.32-.17,.11-.47,.19-.68,.21-.67,.06-1.84-.74-2.61-1.78-.39-.54-.69-1.2-.72-1.56-.02-.21,.02-.42,.15-.71,.66,1.17,1.68,1.65,3.16,1.52,1.09-.1,1.63-.21,7.24-1.42,.27-.05,.93-.2,2.07-.42,4.66-.94,4.89-1.02,5.51-1.37,.18-.07,.24-.11,.39-.12,.33-.03,.9,.23,1.68,.73,1.39,.88,2.35,1.82,2.39,2.33,.04,.45-.16,.57-1.02,.9-.47,.18-.8,.34-1.43,.75-2.4,1.61-3.7,2.41-6.84,4.22-.14,.52-.16,.59-.34,1.38-1.01,4.21-1.98,6.66-3.6,8.92-1.31,1.83-2.71,3.28-4.3,4.42-.13-.14-.2-.22-.34-.36Z"/><path class="d" d="M169.09,13.08c.45,.34,.8,.45,1.4,.4,.85-.06,1.59-.28,8.3-2.39,1.07-.35,2.79-.85,4.84-1.4,2.09-.55,3.15-.93,4.03-1.27,.58-.23,.8-.3,1.05-.31,.36-.02,1.05,.2,1.68,.52,.63,.32,.93,.69,.96,1.08,.03,.45-.31,.77-.89,.81-.15,.01-.34,.03-.58,0-.36-.03-.52-.02-.85,0-5.19,.35-9.84,5.59-9.47,10.71,.19,2.66,1.76,4.65,4.43,5.55,1.02,.35,2.2,.55,3.09,.51,.59-.03,.85,.03,1.3,.39,.61,.49,.98,1.02,1,1.38,.03,.48-.39,.87-1.03,.91-1.74,.12-4.52-.65-6.29-1.73-2.4-1.45-3.78-3.7-3.98-6.45-.18-2.42,.83-5.21,2.77-7.54,1.12-1.4,2.24-2.3,4.7-3.79-3.73,.71-10.53,3.25-13.26,4.99-.58,.41-.79,.48-1.18,.51-.73,.06-1.69-.56-2.47-1.59-.54-.68-.91-1.46-.94-1.94-.02-.24,.03-.42,.27-.83,.33,.73,.62,1.1,1.12,1.48Zm18.19,1.38c1.16,.55,2.02,1.07,2.82,1.67,1.16,.91,1.62,1.57,1.67,2.29,.05,.72-.34,1.29-.85,1.32q-.39,.03-1.46-1.86c-.61-1.01-1.67-2.26-2.55-3.01,.15-.17,.22-.25,.37-.42Zm3-1.95c1.12,.41,2.05,.88,3.02,1.51,1.21,.78,1.64,1.4,1.7,2.2,.05,.72-.22,1.25-.68,1.28-.27,.02-.46-.12-.73-.52-1.18-1.82-1.81-2.56-3.61-4.03,.12-.18,.18-.26,.3-.44Z"/><path class="d" d="M208.1,17.29c-.43,1.92-1.1,5.24-1.36,6.72-.23,1.32-.27,1.83-.24,2.57,.04,.94,0,1.09-.13,1.33-.13,.22-.31,.35-.55,.36-.51,.03-.96-.36-1.38-1.27-.69-1.49-1.2-3.74-1.33-5.96-.17-2.75,0-5.29,.75-10.05,.28-1.88,.32-2.21,.29-2.72-.05-.9-.34-1.6-1.04-2.58,.7-.01,1.3,.35,2.22,1.37,.74,.83,1.2,1.64,1.23,2.21q.02,.33-.41,1.35c-1.28,3.08-1.91,6.7-1.71,9.9,.09,1.53,.27,2.48,.71,3.68,.43-1.23,.65-1.84,1.09-3.07,.56-1.58,.84-2.38,1.4-3.96,.19,.05,.28,.07,.46,.12Zm2.71-5.6c1.51,.85,2.46,1.09,3.98,1.01,1.06-.06,2.2-.27,3.43-.61l-.07-1.32c-.18-3.35-.23-3.74-.65-4.14-.39-.37-1.07-.54-2.04-.58,.4-.41,.64-.52,1.43-.56,.67-.04,1.51,.03,2.08,.16,.88,.2,1.37,.56,1.4,1.01,.01,.21,0,.24-.22,.94-.29,.88-.41,1.98-.42,4.05,1.37-.46,2.23-.9,2.73-1.37,.29-.32,.38-.35,.65-.36,.36-.02,1.07,.12,1.45,.32,.25,.11,.41,.31,.42,.52,.03,.66-2.13,1.67-5.25,2.44,.21,3.98,.39,5.63,.83,8.13,3.55,.74,5.09,1.84,5.18,3.58,.03,.63-.21,1.12-.55,1.14-.24,.01-.46-.13-1.09-.69-1.39-1.28-2.18-1.78-3.38-2.23,.04,.27,.06,.51,.07,.72,.11,2.16-1.62,3.54-4.63,3.71-2.62,.15-4.53-1.01-4.63-2.8-.12-2.07,2.04-3.51,5.48-3.7,.57-.03,1-.02,1.85-.01l-.03-.51c-.09-1.28-.14-1.92-.23-3.2-.09-1.53-.14-2.3-.24-3.83-.9,.23-1.77,.34-2.65,.39-2.21,.12-3.51-.34-5.12-1.82,.1-.14,.15-.21,.25-.35Zm5.24,10.67c-2.38,.13-3.82,.99-3.74,2.31,.06,1.05,1.28,1.7,3.05,1.6,1.66-.09,2.8-.63,3.24-1.59,.27-.56,.34-1.01,.28-2.12-.86-.19-1.71-.27-2.83-.21Z"/><path class="d" d="M239.63,10.14c.38-.02,.56-.02,.94-.04,.51-.74,.69-.99,1.2-1.79,1.04,.77,1.35,1.02,2.3,1.85,.1,.12,.16,.2,.16,.26,0,.12-.11,.21-.29,.22-1.71,.07-2.57,.11-4.28,.18,.04,.97,.06,1.46,.11,2.43,2.94,1.4,3.82,2.12,3.87,3.14,.04,.93-.32,1.78-.8,1.81-.18,0-.31-.11-.44-.46-.61-1.51-1.58-2.9-2.59-3.82,.09,2.12,.14,3.18,.23,5.3,.2,3.77,.3,5.66,.5,9.44v.06c.02,.36-.28,.46-1.27,.51-.69,.03-.78,0-.8-.32-.12-5-.17-7.51-.29-12.51,0-1-.01-1.49-.02-2.49-1.33,4.14-2.39,6.23-4.63,9.22-.16-.1-.24-.15-.4-.25,1.55-2.99,1.87-3.78,2.73-6.34,.83-2.46,1.14-3.54,1.54-5.6-.93,.04-1.4,.06-2.34,.11-.88,.04-1.18,.08-1.84,.27-.11-.43-.16-.64-.26-1.07,.61,.12,1.13,.16,2.16,.11,1.04-.05,1.57-.07,2.61-.12-.08-1.83-.12-2.75-.21-4.59-1.66,.4-2.41,.56-4.38,.86l-.11-.42c2.31-.71,3.7-1.28,5.68-2.36,1.66-.91,2.11-1.2,2.78-1.92,2.83,1.26,2.89,1.29,2.9,1.53,0,.18-.2,.31-.57,.32-.21,0-.61,0-.98-.02-1.49,.75-2.03,.99-3.44,1.44,.09,2.03,.13,3.04,.22,5.06Zm10.73,5.53c-.02,1.8-.17,3.31-.51,4.73-.62,2.67-2.05,4.76-4.36,6.45-1.11,.8-1.97,1.22-3.93,1.97-.09-.16-.14-.25-.23-.41,2.38-1.36,3.61-2.38,4.83-4.11,1.62-2.29,2.28-4.87,2.13-8.55-.58,.02-.87,.03-1.45,.06l.04,.9c.02,.42-.19,.52-1.25,.56-.67,.03-.7,0-.71-.3-.04-1.56-.04-2.34-.11-4.08-.14-3.27-.22-4.61-.42-6.32,1.12,.49,1.43,.66,2.46,1.25,2.08-.08,3.12-.12,5.19-.2,.97-1.75,1.88-4.18,2.27-6.12,.68,.21,1.2,.38,1.54,.48,1.48,.46,1.82,.59,1.83,.8,0,.27-.29,.37-1.41,.56-1.63,2.22-2.56,3.37-3.53,4.24,1.15-.04,1.73-.06,2.89-.11,.49-.62,.64-.83,1.11-1.42,.75,.51,1,.66,1.68,1.17,.25,.14,.34,.26,.35,.38,0,.24-.69,.46-.86,.75-.97,1.68,.25,5.33,.39,7.7,.03,.44-.28,.58-1.43,.62-.51,.02-.64-.04-.65-.34v-.09l-.03-.81c-.7,.03-1.05,.04-1.76,.06,.14,3.83,.21,5.74,.35,9.56q.02,.6,1.77,.54c.06,0,.27-.01,.54-.02,1.17-.04,1.44-.14,1.63-.72,.42-1.03,.47-1.28,1.45-6.05l.4,.05c-.07,2.16-.11,3.25-.18,5.41v.21q.03,.63,.82,.84c.27,.05,.43,.29,.44,.58,.03,.99-.77,1.22-4.71,1.37-2.41,.09-2.98,.04-3.41-.17-.39-.2-.59-.52-.65-1.3-.13-1.76-.07-1.95-.1-2.64l-.29-7.58c-.86,.03-1.29,.05-2.15,.08Zm-4.9-13.89c2.56,1.49,3.83,2.7,3.86,3.6,.04,.9-.51,1.85-1.05,1.87-.27,.01-.43-.19-.71-.9-.78-1.98-1.27-2.83-2.43-4.32,.13-.1,.19-.15,.32-.25Zm1.37,13.34c3.74-.15,5.61-.22,9.35-.36l-.24-6.6c-3.75,.14-5.63,.21-9.38,.36,.11,2.64,.16,3.96,.27,6.59Z"/><path class="d" d="M273.98,11.19c.25,0,.38-.01,.64-.02,.59-.74,.76-.98,1.35-1.72,.96,.78,1.21,1.05,2.08,1.89,.09,.09,.13,.15,.13,.21,0,.12-.12,.21-.33,.22-1.54,.04-2.31,.06-3.85,.1,.08,2.98,.12,4.46,.21,7.44,2.09-1.02,2.92-1.43,4.62-2.44l.25,.41c-2.46,2.07-5.81,4.36-8.9,6.1-.03,.96-.14,1.32-.35,1.33-.27,0-.59-.55-1.69-2.89,1.49-.53,2.48-.89,4.12-1.62-.1-3.31-.14-4.97-.24-8.28-.72,.02-1.07,.03-1.79,.05-.48,.01-.91,.06-1.78,.17-.1-.42-.15-.63-.24-1.04,.73,.13,1.52,.19,2.07,.18,.69-.02,1.04-.03,1.73-.05-.09-2.97-.13-4.46-.21-7.44-.71,.02-1.06,.03-1.76,.05-.85,.03-1.19,.06-2,.21-.1-.42-.15-.63-.25-1.04,.8,.16,1.25,.17,2.29,.14,1.72-.05,2.57-.08,4.29-.12,.65-.74,.83-.98,1.47-1.78,1,.78,1.28,1.05,2.24,1.89,.09,.12,.16,.24,.16,.3,0,.12-.12,.18-.33,.19-1.66,.04-2.48,.07-4.14,.11,.08,2.97,.12,4.46,.21,7.44Zm13.15,7.75c1.55-.03,2.32-.05,3.87-.08,.68-.82,.86-1.07,1.54-1.83,1.1,.85,1.44,1.14,2.52,2.05,.09,.06,.12,.15,.12,.21,0,.09-.15,.18-.36,.19-3.07,.06-4.6,.09-7.67,.15,.05,2.21,.07,3.31,.12,5.52,2.02-.04,3.04-.06,5.06-.1,.71-.91,.94-1.19,1.65-2.04,1.16,.94,1.5,1.23,2.57,2.23,.09,.12,.15,.21,.15,.24,0,.15-.09,.18-.36,.19-7.16,.13-10.73,.2-17.89,.39-.51,.01-.99,.05-2.38,.18-.1-.44-.14-.66-.24-1.1,.88,.19,1.7,.25,2.63,.23,2.78-.07,4.17-.11,6.96-.17-.05-2.21-.07-3.31-.12-5.52-1.72,.04-2.57,.06-4.29,.1-.54,.01-.81,.05-2.32,.18-.11-.42-.16-.63-.27-1.04,1.03,.18,1.21,.21,2.54,.18,1.73-.04,2.59-.06,4.32-.1-.04-1.97-.07-2.95-.11-4.92-1.73,.04-2.6,.06-4.33,.1l.03,1.35c-.05,.39-.23,.52-.89,.53-1,.03-1.19-.04-1.19-.45,0-2.64,.05-5.19-.06-9.48-.08-3.27-.13-3.81-.32-5.21,1.05,.54,1.36,.75,2.29,1.35,4.21-.1,6.32-.15,10.54-.23,.47-.64,.62-.82,1.16-1.43,.87,.61,1.11,.79,1.85,1.38,.25,.18,.34,.29,.34,.41,0,.06-.09,.21-.15,.3-.06,.03-.39,.28-.99,.71l.06,3.27c.07,3.54,.13,5.55,.33,8.16-.03,.27-.08,.39-.29,.49-.12,.06-1.03,.2-1.39,.21-.27,0-.33-.05-.4-.38l-.02-1.2c-1.89,.04-2.83,.06-4.72,.1,.04,1.97,.06,2.95,.11,4.92Zm-2.21-16.09c-1.74,.04-2.61,.06-4.35,.1l.12,4.98c1.74-.04,2.61-.06,4.34-.1-.05-1.99-.07-2.99-.11-4.98Zm.13,5.67c-1.74,.04-2.6,.06-4.34,.1,.05,1.94,.07,2.92,.12,4.86,1.73-.04,2.6-.06,4.33-.1-.04-1.94-.07-2.92-.11-4.86Zm6.57-.83c-.04-1.99-.06-2.99-.1-4.98-1.9,.04-2.85,.06-4.75,.1,.04,1.99,.07,2.99,.11,4.98,1.89-.04,2.84-.06,4.74-.1Zm-4.62,5.65c1.89-.04,2.84-.06,4.73-.1-.04-1.94-.06-2.92-.1-4.86-1.89,.04-2.84,.06-4.74,.1,.04,1.94,.06,2.92,.11,4.86Z"/><path class="d" d="M325.02,10.77c.88-1.05,1.12-1.38,1.93-2.38,1.4,1.05,1.8,1.41,3.1,2.54,.12,.12,.18,.21,.18,.3,0,.12-.15,.21-.33,.21-5.01,0-7.51,.02-12.52,.06,.04,4.97,.06,7.45,.09,12.42,2.6-.02,3.91-.03,6.51-.04q1.08-1.26,1.95-2.35c.97,.81,2,1.64,3.05,2.51,.09,.12,.15,.21,.15,.3,0,.12-.18,.21-.42,.21-8.45,.02-12.67,.05-21.12,.15-.87,.01-1.75,.08-2.62,.24-.09-.48-.14-.72-.23-1.2,.97,.2,1.81,.28,2.84,.26,3.07-.04,4.61-.05,7.69-.08-.04-4.97-.06-7.45-.11-12.42-3.87,.03-5.8,.05-9.67,.1-.94,.01-1.36,.05-2.24,.24-.08-.47-.12-.7-.2-1.17,1,.2,1.49,.25,2.43,.24,3.87-.05,5.8-.07,9.67-.1-.02-2.81-.04-4.21-.06-7.02-.01-1.56-.05-2.34-.18-3.81,1.68,.22,3.31,.45,3.6,.54,.24,.08,.37,.18,.37,.33,0,.27-.21,.39-1.58,.7,.03,3.7,.04,5.54,.07,9.24,3.06-.02,4.58-.03,7.64-.04Z"/><path class="d" d="M350.12,24.1c3.26-.93,5.35-2.16,7.1-4.1,1.79-1.99,2.74-4.44,2.78-7.2,.04-2.91-1.12-5.24-3.35-6.67-1.33-.88-3.33-1.41-5.25-1.43-.37,0-.58,0-1.06,.05,.72,1.06,.93,1.63,.92,2.5-.02,2.34-1.75,6.72-4.08,10.35-1.91,2.98-3.41,4.45-4.52,4.45-.51,0-1.02-.25-1.33-.64-.27-.34-.33-.48-.84-1.92-.27-.78-.45-1.14-1.32-2.82-.48-.96-.69-1.77-.69-2.73,0-1.89,1.04-4.11,2.75-5.93,2.47-2.57,6.5-4.17,10.48-4.14,3.07,.03,5.89,1.05,7.82,2.84,1.92,1.79,2.86,4.18,2.82,7.09-.05,3.75-2.3,7.05-6.12,9.02-1.76,.91-3.33,1.38-5.9,1.81-.08-.2-.12-.31-.21-.51Zm-9.88-9.38c0,1.44,.44,2.91,1.2,3.96,.42,.54,.81,.87,1.14,.87,.66,0,2.12-1.61,3.62-3.94,2.26-3.53,3.9-7.38,3.92-9.24,0-.45-.09-.75-.41-1.5-5.3,.89-9.44,5.23-9.46,9.85Z"/><path class="d" d="M373.27,16.13c-.07,.66-.11,.99-.12,1.35-.07,3.57,2.16,5.29,7.02,5.39,2.41,.05,4.9-.31,6.69-.95,.15-.06,.36-.08,.51-.08,.45,.01,1.16,.27,1.64,.64,.41,.32,.65,.71,.64,1.07-.01,.45-.35,.77-.99,.9-1.4,.32-4.35,.49-7.04,.43-3.37-.08-5.51-.57-6.99-1.59-1.45-1-2.45-2.9-2.42-4.76,.01-.75,.18-1.53,.53-2.54,.2,.05,.31,.08,.51,.13Zm1.16-11.83c1.53,1.05,2.59,1.37,4.63,1.41,2.01,.04,4.57-.26,6.34-.76,.21-.05,.46-.11,.55-.11,.79,.02,1.8,.94,1.79,1.6-.01,.51-.22,.61-2.24,.99-1.61,.31-3.31,.88-8.17,2.79-.08-.18-.12-.27-.2-.45,.86-.49,1.41-.78,2.24-1.21,.8-.4,1.2-.6,2-1.01,.23-.14,.35-.21,.59-.35-.67,.05-1.73,.05-2.28,.04-1.12-.02-2.53-.38-3.45-.88-.78-.43-1.26-.83-2.09-1.78,.12-.12,.19-.18,.31-.29Zm13.94-2.33c1.11,.66,1.92,1.25,2.66,1.93,1.07,1.02,1.47,1.72,1.46,2.44s-.46,1.25-.98,1.23q-.39-.01-1.31-1.99c-.49-1.06-1.43-2.41-2.23-3.24l.41-.38Zm3.18-1.66c1.08,.51,1.95,1.09,2.85,1.79,1.15,.91,1.54,1.52,1.52,2.36-.02,.72-.34,1.22-.8,1.21-.27,0-.45-.16-.68-.59-1.01-1.92-1.6-2.72-3.23-4.38,.14-.15,.21-.23,.35-.38Z"/><path class="d" d="M401.4,26.36c1.13-3.18,1.84-6.54,2-9.45,2.52,.62,2.79,.72,2.78,.99,0,.21-.22,.32-.95,.42-.84,3.42-1.6,5.29-3.41,8.23-.17-.08-.25-.12-.42-.19Zm7.71-23.78c-1.51,2.11-2.02,2.72-3.59,4.23,.09,.06,.15,.12,.18,.16,1.13,.88,1.47,1.37,1.45,1.97-.03,.81-.61,1.75-1.03,1.74-.21,0-.33-.16-.47-.53-.44-1.25-1.57-3.02-3.15-4.94l.37-.26c.99,.57,1.19,.73,2.26,1.55,1.1-1.94,1.83-3.81,2.27-5.69,.63,.23,1.11,.43,1.45,.53,1.3,.47,1.59,.63,1.59,.9,0,.27-.41,.38-1.23,.35h-.09Zm-2.06,12.11c-1.13,.2-1.71,.27-3.47,.48-.24,.86-.37,1.1-.64,1.09q-.27,0-.7-2.81,.91,.06,.97,.06c.42,.01,.76,0,1.97-.05,3.11-3.98,4.81-6.5,5.96-8.89,2.46,1.11,2.75,1.27,2.75,1.51-.01,.27-.35,.38-.99,.35-.06,0-.24,0-.39-.01-2.24,2.86-4.51,5.36-6.42,7.04,.33-.02,.34-.02,.91-.03,.84,0,2.12-.05,4.34-.18-.36-1-.55-1.46-1.06-2.56l.31-.2c1.88,1.87,3.06,3.56,3.03,4.34-.03,.72-.7,1.69-1.15,1.67-.27-.01-.3-.13-.53-1.13-.1-.45-.24-.94-.4-1.52-.28,.08-.28,.08-.79,.18-.4,.08-.76,.15-1.83,.35-.09,2.58-.14,3.87-.23,6.45q-.11,3.24-.13,6.99v.06c0,.18-.07,.27-.25,.32-.18,.05-1.06,.11-1.42,.1-.3-.01-.42-.14-.41-.4,.04-.79,.09-1.57,.13-1.95,.19-2.25,.14-2.31,.24-5.18,.08-2.43,.13-3.65,.21-6.09Zm3.01,2.15c1.86,2.2,2.99,4.22,2.95,5.21-.03,.9-.9,2.22-1.44,2.2-.3-.01-.39-.26-.44-1.22-.09-1.82-.5-3.65-1.39-5.9,.13-.12,.19-.17,.31-.29Zm11.37-12.92c-.6,2.86-.89,3.87-1.62,5.52-.77,1.74-2.05,3.4-3.55,4.6-.63,.49-1.06,.77-2.11,1.33l-.25-.64c1.34-.97,2-1.63,2.71-2.72,1.48-2.22,2.18-4.33,2.7-8.18-1.12-.04-1.68-.07-2.8-.11-.79-.03-1.55,0-2.17,.07-.06-.45-.08-.67-.14-1.12,.81,.27,1.12,.31,2.36,.36,3.93,.15,5.9,.23,9.83,.4,.57-.55,.73-.72,1.31-1.26,.76,.66,1,.85,1.7,1.55,.17,.19,.26,.31,.26,.4,0,.21-.32,.41-1.19,.79-.51,3.97-.92,6.21-1.47,7.92-.5,1.53-1.18,1.93-3.71,2.21-.22-1.36-.51-1.56-3.52-2.22l.05-.48c1.48,.18,3.33,.32,4.27,.36,.76,.03,.95-.11,1.2-.97,.51-1.87,.88-4.2,1.21-7.6-2.02-.09-3.03-.13-5.05-.21Zm3.73,13.13c.51-.52,.67-.69,1.2-1.18,.73,.57,.97,.73,1.58,1.3,.23,.19,.32,.34,.31,.46,0,.21-.2,.38-1.01,.83-.03,.72-.04,.93-.07,1.56-.07,1.56-.26,7.22-.26,8.58v.06c-.01,.27-.4,.32-1.1,.34-.2,0-.36,.01-.42,.01h-.09c-.33-.02-.45-.14-.43-.41v-.12l.09-1.92c-3.38-.15-5.08-.22-8.46-.35-.03,.77-.05,1.15-.08,1.92,0,.24-.07,.33-.26,.38-.18,.05-.88,.09-1.36,.07-.33-.01-.45-.11-.44-.41,.11-2.04,.18-3.11,.23-4.49,.21-5.49,.26-6.86,.23-8.28,.95,.52,1.25,.68,2.19,1.32,3.25,.13,4.88,.19,8.14,.33Zm-8.63,8.47c3.39,.13,5.08,.2,8.46,.35,.14-3.25,.21-4.87,.35-8.12-3.4-.15-5.1-.22-8.5-.35l-.32,8.12Z"/><path class="d" d="M436.27,16.74c3.12-1.74,6.19-4.29,8.91-7.39,1.39-1.55,2.83-3.49,3.77-5,.3-.46,.4-.7,.68-1.37,3.16,.8,3.46,.91,3.44,1.21-.02,.27-.27,.38-1.16,.51,.71,1.48,1.33,2.39,2.68,3.91,1.98,2.18,4.13,3.9,6.57,5.25,1.47,.81,2.42,1.2,4.18,1.73l-.12,.41c-1.22,.11-1.76,.49-2.73,1.94-1.94-1.11-4.22-3.08-6.22-5.33-2.14-2.41-3.69-4.78-4.9-7.67-2.44,3.32-4.7,5.68-7.55,7.95-2.62,2.09-4.63,3.25-7.32,4.29-.1-.17-.15-.26-.25-.43Zm.95,12.27c5.46-2.47,7.24-5.31,7.61-12.32,.07-1.32,.07-1.86-.02-3.1,2.8,.48,3.37,.63,3.35,.93-.01,.21-.32,.37-1.19,.6,0,.45-.02,.84-.03,1.05-.13,2.37-.51,4.65-1.07,6.37-.83,2.58-2.4,4.32-5.09,5.62-1.02,.52-1.73,.78-3.41,1.24-.06-.16-.1-.24-.16-.4Zm19.58-13.64c-.03,.09-.35,.22-.97,.43-.03,1.02-.15,3.4-.35,7.16-.14,2.63-.19,3.84-.27,6.32v.09c-.02,.21-.09,.36-.27,.41-.34,.1-1,.15-1.7,.11-.24-.01-.33-.08-.37-.35,.3-3.11,.49-5.92,.72-10.11,.12-2.13,.15-2.67,.14-5.19,2.07,.39,2.62,.48,2.91,.62,.09,.04,.29,.26,.29,.32l-.13,.2Z"/><path class="d" d="M474.45,9.4c.66,1.13,1.11,1.68,1.95,2.29,1,.73,1.9,1.12,3.46,1.53,1.13-4.1,1.26-4.54,1.31-5.26,.07-1.02-.31-1.68-1.47-2.6,.25-.07,.34-.1,.53-.08,.55,.04,1.33,.42,2.19,1.08,.93,.71,1.48,1.61,1.43,2.27-.02,.27-.13,.5-.46,.84-.57,.68-.96,1.47-1.96,4.04,.62,.22,.89,.39,1.17,.74,.22,.28,.38,.72,.35,1.02-.03,.39-.41,.6-1.01,.56-.3-.02-.69-.11-1.17-.23-.74,1.96-1.23,3.7-1.59,5.45,.71,.2,1.22,.29,1.53,.32,.09,0,.16,0,.24-.01,.17-.03,.3,0,.33,0,.78,.06,1.75,1.05,1.7,1.74-.03,.42-.44,.66-1.07,.62-.84-.06-2.1-.36-3.16-.76-.11,.71-.16,1.07-.19,1.46-.21,3.05,1.39,4.87,4.43,5.09,2.05,.14,3.88-.51,4.9-1.69,.73-.85,1.13-1.84,1.22-2.98,.18-2.48-1.3-5.42-4.02-7.81,.14-.15,.22-.22,.36-.36,4.28,3.04,6,5.67,5.77,8.72-.27,3.62-3.6,6.14-7.78,5.84-1.56-.11-3.03-.66-4-1.51-1.48-1.27-2.11-3.12-1.94-5.73,.02-.36,.08-.75,.16-1.49-1.14-.62-1.73-1.02-2.31-1.69-.76-.88-1.2-2.03-1.13-3.05,.05-.69,.43-1.43,1.07-2,.76-.67,1.56-1.04,3.04-1.39-1.18-.53-2.01-1.13-2.82-2.05-.59-.69-.92-1.32-1.4-2.74l.35-.16Zm1.34,6.79c-.49,.45-.73,.88-.77,1.45-.08,1.26,.88,2.25,2.92,3.02,.25-1.49,.64-3.17,1.28-5.39-1.76-.03-2.66,.24-3.44,.91Z"/><path class="d" d="M501.66,13.9c.86,.25,1.41,.35,2.47,.44,1.51,.12,2.27,.18,3.79,.31,.54-.45,.81-.67,1.34-1.12,.79,.73,1.02,.93,1.73,1.62,.25,.23,.34,.36,.33,.45q-.02,.24-1.24,.65c-1.19,3.3-2.56,5.99-4.41,8.52-1.81,2.47-3.55,4.2-6.31,6.24-.12-.17-.18-.25-.3-.41,2.13-2.06,3.75-4.13,5.32-6.68,1.64-2.67,2.59-4.97,3.52-8.56-1.58-.13-2.36-.19-3.94-.32-.88-.07-1.3-.07-2.17,.04-.05-.46-.07-.69-.12-1.15Zm19.46-4.37c.63-.55,.83-.71,1.52-1.22,1.06,.85,1.34,1.11,2.27,1.98,.19,.23,.24,.35,.23,.5,0,.09-.12,.21-.27,.25-.2,.05-.22,.04-1.86-.02-1.39,.84-1.91,1.16-2.87,1.65,.25,3.12,.45,4.32,.97,6.38,.97-.64,1.3-.92,2.33-1.87,1.19-1.1,1.73-1.65,2.19-2.33,.52,.38,.88,.68,1.14,.86,1.23,.9,1.54,1.19,1.51,1.46-.02,.18-.24,.28-.54,.25q-.09,0-.96-.18c-2.2,1.09-3.06,1.47-5.52,2.37,.55,2.04,1.23,3.69,2.11,5.34,1.38,2.56,2.73,4.13,4.95,5.66l-.06,.36c-1.28,.06-1.86,.43-2.67,1.71-1.4-1.63-2.35-3.2-3.51-5.83-1.57-3.57-2.39-8.07-2.49-13.92q-.23,.13-1.34,.7c-.38,.18-.83,.38-1.62,.73,.35,.15,.52,.29,.51,.44-.02,.27-.25,.37-1.39,.51-.1,1.15-.15,1.72-.25,2.87,.45,.04,.67,.06,1.12,.1,.47-.56,.61-.73,1.14-1.26,.85,.8,1.1,1.03,1.79,1.81,.06,.06,.08,.13,.08,.19-.01,.12-.17,.2-.38,.18-1.52-.13-2.29-.2-3.81-.33-.11,1.33-.17,1.99-.28,3.32,.62,.05,.92,.08,1.54,.13,.63-.64,.83-.83,1.49-1.38,.84,.8,1.09,1.06,1.9,1.91,.08,.13,.11,.19,.1,.25-.01,.12-.14,.2-.29,.19-1.92-.17-2.88-.25-4.8-.42-.12,1.42-.18,2.13-.3,3.56,1.04,.09,1.55,.13,2.59,.22,.69-.63,.89-.83,1.55-1.43,.9,.86,1.18,1.13,2.01,1.98,.05,.09,.1,.19,.1,.25-.01,.12-.17,.2-.35,.18-2.39-.21-3.58-.31-5.96-.52-.25,3.26-.23,3.28-.32,4.43-.08,1.06-.31,1.5-.92,1.88-.55,.35-1.19,.5-2.51,.66-.17-.89-.41-1.27-.98-1.62s-1.02-.45-3.46-.92c.02-.2,.03-.31,.04-.51,2.16,.27,3.23,.41,5.39,.69,.36,0,.43-.08,.46-.44,.15-1.73,.22-2.6,.37-4.33-1.6-.14-2.4-.2-4.01-.34-.69-.06-1.06-.06-1.85,.03-.03-.47-.05-.71-.09-1.18,.65,.23,1.51,.42,1.99,.46,1.6,.13,2.4,.2,4.01,.34,.12-1.42,.18-2.13,.3-3.56-1.09-.09-1.63-.14-2.72-.23-.6-.05-1-.05-1.77,.03-.04-.45-.05-.67-.09-1.12,.71,.24,1.31,.35,1.91,.4,1.09,.09,1.63,.14,2.72,.23,.11-1.33,.17-1.99,.28-3.32-.69-.06-1.03-.09-1.72-.15-.63-.05-1-.05-1.74,.04-.05-.45-.07-.67-.12-1.12,.68,.24,1.04,.33,1.92,.4,.69,.06,1.03,.09,1.72,.15,.08-.93,.12-1.4,.2-2.33,.04-.45,.04-.87,.09-2.16,.99,.23,1.28,.35,1.99,.59,1.59-1.04,3.35-2.42,4.95-3.91-4.82-.42-7.23-.63-12.06-1.02-1.52-.12-1.8-.12-2.75-.01-.05-.46-.07-.69-.12-1.15,.9,.25,1.62,.37,3.05,.49,4.87,.4,7.31,.61,12.18,1.03Z"/><path class="d" d="M540.96,36.77c2.26-1.1,3.7-2.14,5.19-3.7,2.38-2.56,3.78-5.83,4.18-9.74,.27-2.6,.07-5.11-.49-6.26-.44-.92-1.14-1.44-2.02-1.53-1.51-.15-3.03,1-4.37,3.33-1.06,1.85-1.85,4.25-2.05,6.28-.05,.51-.05,.84-.06,1.86,.01,.18-.01,.42-.03,.63-.06,.57-.36,.87-.87,.82-1.14-.11-1.66-2.6-1.3-6.31,.24-2.48,.57-4.01,1.74-7.91,.36-1.17,.51-1.73,.55-2.15,.09-.96-.28-1.56-1.43-2.28,.25-.07,.44-.11,.56-.1,.64,.06,1.57,.56,2.33,1.22,.78,.68,1.08,1.19,1.02,1.79-.04,.39-.12,.56-.54,1.09-1.34,1.77-2.78,5.91-3.05,8.68-.03,.27-.06,.57-.08,1.11h.06c1.28-3.73,2.67-6.09,4.28-7.47,1.24-1.06,2.51-1.53,3.87-1.39,2.91,.29,4.61,4.03,4.09,9.01-.4,3.88-1.84,6.99-4.28,9.42-1.99,1.98-4.15,3.2-7.11,4.05l-.2-.47Z"/><path class="d" d="M565.65,18.04c1.46,1.49,2.39,1.89,4.69,2.15,1.3,.15,2.49,.19,4.36,.13,.4-4.57,.23-5.02-2.03-5.6,.47-.37,.72-.4,1.57-.31,.85,.1,1.83,.36,2.5,.68,.69,.32,.97,.65,.92,1.1-.02,.18-.02,.18-.51,.97-.33,.53-.64,1.56-.91,3.1,3.06-.22,4.75-.54,5.83-1.11,.1-.05,.29-.09,.38-.08,.36,.04,1.21,.43,1.51,.69,.29,.25,.46,.51,.43,.78-.05,.42-.57,.6-2.49,.83-2.1,.24-4.06,.37-5.89,.38-.12,.77-.17,1.22-.25,1.9-.09,.8-.16,1.4-.28,2.72,1.26-.07,2.48-.19,3.53-.41,.81-.17,.98-.25,1.59-.57,.13-.08,.29-.09,.47-.07,.42,.05,1.15,.35,1.49,.63,.23,.15,.32,.37,.29,.61-.06,.54-.52,.73-2.47,1.01-1.54,.22-3.55,.34-5.01,.3-.07,1.17-.14,1.66-.22,2.69-.08,1.12-.09,1.59-.09,2.34,2.71,.82,5.23,2.14,6.31,3.33,.51,.57,.73,1.29,.64,2.07-.07,.63-.39,1.01-.78,.97-.3-.04-.41-.14-1.1-.97-.45-.54-1.49-1.53-2.31-2.14-.95-.71-1.66-1.13-2.86-1.6-.02,.66-.02,.96-.06,1.32-.13,1.16-.55,1.9-1.31,2.39-.92,.59-2.52,.83-4.14,.65-3-.34-4.92-1.87-4.72-3.75,.23-2.12,3.19-3.3,7.19-2.85,.48,.05,.78,.09,1.5,.2,.13-1.43,.16-1.64,.2-2.06l.05-.48c.08-.72,.13-1.13,.16-1.37l.08-.75c-1.21-.08-1.79-.11-2.24-.16-1.96-.22-3.26-.59-3.94-1.1-.8-.61-1.21-1.49-1.11-2.42,.02-.21,.09-.5,.15-.83,.18,.03,.27,.05,.45,.08-.07,.93,.05,1.36,.45,1.77,.44,.45,1.71,.85,3.46,1.05,.85,.09,1.58,.12,2.95,.12l.04-.36c.08-.69,.12-1.04,.2-1.73,.07-.87,.11-1.31,.19-2.18l.04-.36c-1.68-.04-2.89-.12-3.92-.23-2.87-.32-4.05-1.02-5.34-3.19l.34-.26Zm5.07,15.41c-1.17-.13-2.37-.05-3.34,.2-1.13,.3-1.73,.83-1.82,1.61-.12,1.07,1.04,1.83,3.08,2.06,1.47,.16,2.74-.09,3.54-.69,.43-.31,.66-.74,.84-1.48,.05-.21,.16-.89,.19-1.13v-.09c-1.14-.28-1.68-.4-2.49-.49Z"/><path class="d" d="M598.86,42.64c3.77-1.91,5.48-3.63,6.64-6.71-.74,.33-1.31,.44-2,.35-2.1-.27-3.46-2.31-3.15-4.75,.33-2.62,2.23-4.34,4.46-4.06,.57,.07,.89,.21,1.62,.72,.07-.51,.31-2.14,.43-3.09,0-.06,.04-.33,.05-.6-2.38-.1-5.26,.11-7.8,.52-.78,.14-1.32,.29-2.06,.56-.19,.04-.53,.09-.71,.06-.54-.07-1.2-.57-1.79-1.37-.58-.78-1-1.85-.94-2.32,0-.06,.09-.2,.19-.34,.66,1.11,1.54,1.73,2.74,1.88,.6,.07,1.28,.1,2.63,.06,3.63-.12,4.74-.13,7.86-.06,.23-1.79,.26-2.67,.09-3.34-.21-.87-.9-1.39-2.42-1.79,.42-.4,.64-.46,1.46-.36,1.03,.13,2.05,.41,2.88,.79,.69,.32,1.07,.77,1.01,1.19-.03,.24-.07,.29-.41,.76-.41,.58-.73,1.39-1.04,2.8q.8,.01,1.99,.08c2.92,.16,3.29,.17,4.09,0,.78-.17,.92-.21,1.16-.18,.6,.08,1.74,.75,2.42,1.44,.33,.32,.42,.54,.38,.87s-.28,.48-.73,.42c-.21-.03-.27-.04-1.61-.4-1.54-.42-2.83-.68-4.61-.91-1.12-.15-2.93-.54-3.25-.3-.33,.25-.59,2.92-.74,4.02-.03,.21-.07,.57-.1,1.02,.56,1.61,.65,2.56,.45,4.08-.38,2.92-1.9,5.47-4.22,7.14-1.28,.92-2.86,1.69-4.82,2.26-.08-.17-.11-.25-.19-.42Zm5.72-14.48c-1.36-.17-2.59,1.09-2.82,2.91-.24,1.87,.61,3.37,2.02,3.55,1.29,.17,2.05-.71,2.28-2.55,.32-2.47-.16-3.74-1.49-3.91Z"/></g><g><path class="e" d="M.13,41.81c9.99-1.59,19.99-3.1,30-4.53"/><path class="e" d="M636.75,37.28c10.01,1.43,20.01,2.94,30,4.53"/></g></g></g></g></svg>