<?xml version="1.0" encoding="UTF-8"?><svg id="_イヤー_2" xmlns="http://www.w3.org/2000/svg" viewBox="0 0 747.35 750.29"><g id="main"><g><g><rect x=".57" y="110.83" width="140.77" height="638.9" fill="#f2f2f2" stroke="#d4d4d4" stroke-miterlimit="10" stroke-width="1.13"/><line x1=".57" y1="156.56" x2="141.33" y2="156.56" fill="#f2f2f2" stroke="#d4d4d4" stroke-miterlimit="10" stroke-width="1.13"/><line x1=".57" y1="202.23" x2="141.33" y2="202.23" fill="#f2f2f2" stroke="#d4d4d4" stroke-miterlimit="10" stroke-width="1.13"/><line x1=".57" y1="247.89" x2="141.33" y2="247.89" fill="#f2f2f2" stroke="#d4d4d4" stroke-miterlimit="10" stroke-width="1.13"/><line x1=".57" y1="293.56" x2="141.33" y2="293.56" fill="#f2f2f2" stroke="#d4d4d4" stroke-miterlimit="10" stroke-width="1.13"/><line x1=".57" y1="339.23" x2="141.33" y2="339.23" fill="#f2f2f2" stroke="#d4d4d4" stroke-miterlimit="10" stroke-width="1.13"/><line x1=".57" y1="384.9" x2="141.33" y2="384.9" fill="#f2f2f2" stroke="#d4d4d4" stroke-miterlimit="10" stroke-width="1.13"/><line x1=".57" y1="430.57" x2="141.33" y2="430.57" fill="#f2f2f2" stroke="#d4d4d4" stroke-miterlimit="10" stroke-width="1.13"/><line x1=".57" y1="476.24" x2="141.33" y2="476.24" fill="#f2f2f2" stroke="#d4d4d4" stroke-miterlimit="10" stroke-width="1.13"/><line x1=".57" y1="521.91" x2="141.33" y2="521.91" fill="#f2f2f2" stroke="#d4d4d4" stroke-miterlimit="10" stroke-width="1.13"/><line x1=".57" y1="567.58" x2="141.33" y2="567.58" fill="#f2f2f2" stroke="#d4d4d4" stroke-miterlimit="10" stroke-width="1.13"/><line x1=".57" y1="613.25" x2="141.33" y2="613.25" fill="#f2f2f2" stroke="#d4d4d4" stroke-miterlimit="10" stroke-width="1.13"/><line x1=".57" y1="658.92" x2="141.33" y2="658.92" fill="#f2f2f2" stroke="#d4d4d4" stroke-miterlimit="10" stroke-width="1.13"/><line x1=".57" y1="704.59" x2="141.33" y2="704.59" fill="#f2f2f2" stroke="#d4d4d4" stroke-miterlimit="10" stroke-width="1.13"/></g><g><path d="M19.44,138.59c-.41-.45-1.31-1.33-2-1.96v6.31h-.96v-5.96c-.78,.78-1.59,1.46-2.38,1.96-.12-.25-.38-.71-.54-.88,1.82-1.06,3.75-3.01,4.79-5.05h-4.28v-.92h2.42v-2.8h.96v2.8h1.41l.2-.04,.55,.38c-.48,1.16-1.17,2.28-1.98,3.29,.67,.54,2.04,1.72,2.43,2.07l-.61,.81Zm8.22,2.94v.98h-8.4v-.98h3.85v-6.36h-3.27v-.96h3.27v-4.82h.99v4.82h3.25v.96h-3.25v6.36h3.55Z"/><path d="M43.93,140.06h-3.66v2.89h-1v-2.89h-4.21c-.18,1.17-.96,2.26-3.69,2.92-.12-.2-.42-.55-.6-.74,2.36-.52,3.11-1.33,3.32-2.19h-3.66v-.87h3.75v-1.25h.94v1.25h4.16v-1.25h1v1.25h3.66v.87Zm-6.63-5.75c-.74,1.95-2.64,3.38-5.91,4.08-.11-.21-.33-.53-.51-.71,1.31-.25,2.4-.63,3.25-1.09-.45-.39-1.09-.83-1.7-1.17-.43,.25-.85,.46-1.29,.66-.12-.17-.41-.5-.6-.65,1.24-.48,2.47-1.17,3.3-2.07h-2.91v-.81h12.58v.81h-4.78v1.6c1.3-.31,2.67-.71,3.46-1.09l.75,.58c-1.12,.5-2.76,.92-4.21,1.2v.87c0,.39,.13,.45,.85,.45h2.61c.52,0,.63-.13,.67-1.14,.21,.15,.57,.27,.84,.33-.12,1.29-.41,1.62-1.42,1.62h-2.76c-1.35,0-1.71-.24-1.71-1.26v-3.17h-2.94c-.2,.25-.42,.5-.67,.73h2.35l.18-.04,.55,.25Zm-3.13-3.17h-3.57v-.84h3.57v-1.03h.99v1.03h4.02v-1.03h.98v1.03h3.69v.84h-3.69v1.08h-.98v-1.08h-4.02v1.08h-.99v-1.08Zm-.75,3.63c-.1,.09-.23,.17-.34,.24,.62,.34,1.3,.78,1.75,1.14,.58-.41,1.02-.87,1.32-1.38h-2.73Z"/><path d="M57.16,137.33c.85,1.05,2.16,1.96,3.45,2.43-.21,.18-.51,.52-.64,.76-1.46-.63-2.96-1.84-3.84-3.19h-4.79c-.92,1.39-2.46,2.7-3.9,3.39-.13-.24-.42-.57-.64-.77,1.26-.51,2.6-1.51,3.48-2.62h-3.33v-.86h2.98v-4.84h-2.31v-.84h2.31v-1.5h.99v1.5h5.56v-1.5h1.01v1.5h2.29v.84h-2.29v4.84h2.94v.86h-3.27Zm-3,4.35h5.19v.85h-11.26v-.85h5.07v-1.68h-3.13v-.84h3.13v-1.32h1.01v1.32h3.19v.84h-3.19v1.68Zm-3.24-10.05v1.08h5.56v-1.08h-5.56Zm0,2.94h5.56v-1.09h-5.56v1.09Zm0,1.91h5.56v-1.14h-5.56v1.14Z"/><path d="M71.3,133.48c1.26,2.61,3.48,5.04,5.87,6.2-.24,.19-.57,.58-.75,.87-2.31-1.24-4.38-3.61-5.75-6.27v4.83h2.94v.99h-2.94v2.85h-1.02v-2.85h-2.98v-.99h2.98v-4.8c-1.39,2.66-3.49,4.98-5.73,6.27-.17-.25-.48-.63-.71-.81,2.29-1.2,4.53-3.66,5.8-6.29h-5.31v-.99h5.94v-3.18h1.02v3.18h6v.99h-5.37Z"/><path d="M85.39,141.34c-1.23,.66-3.12,1.29-4.61,1.65-.17-.2-.5-.57-.72-.75,1.53-.29,3.33-.76,4.43-1.3l.9,.4Zm-3.44-5.41c-.4,.13-.87,.24-1.38,.34-.09-.22-.29-.6-.46-.78,2-.39,3.1-.92,3.72-1.53h-2.16l-.07,.19-.93-.06c.32-.66,.63-1.58,.87-2.36h3.01v-.9h-3.7v-.69h3.7v-.85h.92v.85h2.43v-.85h.95v.85h3.36v2.27h-3.36v.84h4.32s-.02,.22-.03,.34c-.1,.92-.21,1.35-.43,1.56-.18,.18-.41,.26-.71,.27h-.38v5.31h-9.66v-4.81Zm2.36-2.67c.12-.27,.18-.55,.21-.84h-2.28c-.09,.29-.2,.57-.3,.84h2.37Zm6.31,2.55h-7.7v.99h7.7v-.99Zm0,1.63h-7.7v.96h7.7v-.96Zm0,1.62h-7.7v1h7.7v-1Zm-5.61-5.1c-.26,.43-.63,.82-1.2,1.18h6.86c-.04-.15-.11-.31-.17-.42,.46,.03,.92,.04,1.07,.03,.18,0,.28,0,.36-.08,.09-.09,.17-.3,.21-.72h-3.3v1.12h-.95v-1.12h-2.88Zm2.88-1.54h-2.45c-.03,.29-.06,.57-.13,.84h2.58v-.84Zm-2.43-.68h2.43v-.9h-2.43v.9Zm3.29,9.21c1.66,.44,3.46,1.04,4.57,1.47l-1.06,.54c-.96-.43-2.61-.99-4.3-1.48l.79-.53Zm.09-10.11v.9h2.46v-.9h-2.46Z"/><path d="M108.91,141.53c0,.69-.2,1-.66,1.17-.5,.18-1.37,.18-2.78,.17-.03-.25-.2-.69-.34-.96,1.08,.04,2.1,.03,2.4,.02,.29-.02,.39-.11,.39-.39v-3.19h-4.19v4.48h-.99v-4.48h-3.87c-.22,1.68-.72,3.39-1.89,4.69-.14-.2-.53-.54-.75-.66,1.65-1.86,1.82-4.5,1.82-6.61v-5.4h10.86v11.17Zm-6.17-4.14v-2.62h-3.72v.99c0,.52-.02,1.06-.06,1.63h3.78Zm-3.72-6.09v2.54h3.72v-2.54h-3.72Zm8.89,0h-4.19v2.54h4.19v-2.54Zm0,6.09v-2.62h-4.19v2.62h4.19Z"/></g><g><path d="M20.5,178.09h-6.62v-.86h2.85v-1.51h-2.31v-.85h2.31v-1.59h.93v1.59h2.25v.85h-2.25v1.51h2.83v.86Zm-2.83,5.77v3.04h-.93v-3.04h-2.5v-.87h2.5v-1.65h-2.65v-.87h1.53c-.09-.58-.38-1.47-.67-2.14l.75-.21c.34,.69,.67,1.6,.75,2.17l-.57,.18h2.59l-.5-.15c.27-.61,.63-1.59,.81-2.22l.84,.23c-.27,.75-.59,1.56-.87,2.14h1.56v.87h-2.64v1.65h2.4v.87h-2.4Zm8.46-7.65c-.08,5.58-.17,9.49,.76,9.73,.09,.03,.21-1.18,.23-2.61,.19,.22,.49,.51,.64,.58-.09,2.68-.46,3.25-1.19,3-1.53-.48-1.44-4.32-1.41-9.78h-1.88v.63c0,1.05-.04,2.16-.24,3.27,.75,.61,1.41,1.23,1.82,1.75l-.6,.76c-.33-.43-.84-.96-1.42-1.48-.48,1.77-1.41,3.49-3.25,4.89-.15-.18-.51-.46-.75-.62,1.89-1.42,2.79-3.18,3.19-4.96-.61-.5-1.26-.96-1.88-1.35l.56-.68c.48,.3,1,.65,1.5,1.02,.12-.9,.15-1.79,.15-2.62v-.62h-2.08v-.93h2.08v-2.92h.93v2.92h2.84Z"/><path d="M35.29,176.82c-.48,.78-1.07,1.54-1.68,2.28v7.89h-.99v-6.79c-.6,.62-1.2,1.17-1.79,1.63-.15-.19-.51-.63-.7-.82,1.53-1.1,3.18-2.83,4.21-4.53l.94,.34Zm-.6-3.16c-.97,1.3-2.49,2.73-3.82,3.67-.13-.21-.41-.6-.58-.79,1.25-.83,2.7-2.18,3.45-3.25l.96,.38Zm9.26,5.61h-2.29v6.38c0,.63-.17,.94-.63,1.11-.49,.15-1.3,.15-2.8,.15-.04-.27-.18-.67-.33-.96,1.11,.04,2.1,.04,2.38,.01,.27,0,.38-.08,.38-.33v-6.36h-5.12v-.96h8.42v.96Zm-.44-4.12h-7.33v-.93h7.33v.93Z"/><path d="M48.95,175.27c-.42,.63-.87,1.19-1.32,1.64-.18-.15-.57-.42-.81-.54,.88-.79,1.69-1.96,2.15-3.15l.93,.25c-.13,.33-.29,.66-.46,.98h4.05v.82h-2.83c.25,.45,.49,.95,.62,1.29l-.9,.27c-.12-.41-.41-1.04-.71-1.56h-.71Zm11.52,0h-3.44c.36,.44,.69,.93,.84,1.29l-.89,.32c-.18-.44-.61-1.08-1.03-1.61h-1.26c-.28,.36-.58,.71-.88,1h.32v1.2h5.85v2.78h-.96v-1.98h-10.59v1.98h-.94v-2.78h5.68v-.85c-.21-.15-.51-.33-.71-.42,.97-.71,1.86-1.82,2.33-2.99l.96,.24c-.13,.34-.32,.67-.5,.99h5.22v.82Zm-9.91,8.01h8.2v3.63h-.99v-.48h-7.21v.51h-.95v-7.68h8.22v2.92h-7.27v1.09Zm0-3.24v1.36h6.31v-1.36h-6.31Zm0,4.03v1.56h7.21v-1.56h-7.21Z"/><path d="M68.12,183.82c-1.59,.54-3.3,1.12-4.61,1.54l-.24-1c.57-.15,1.27-.38,2.04-.63v-4.16h-1.72v-.93h1.72v-3.38h-1.88v-.94h4.59v.94h-1.75v3.38h1.54v.93h-1.54v3.86c.54-.18,1.12-.38,1.68-.55l.17,.94Zm9,1.71v.92h-9.69v-.92h4.63v-2.16h-3.46v-.91h3.46v-1.85h-3.27v-6.63h7.6v6.63h-3.33v1.85h3.55v.91h-3.55v2.16h4.05Zm-7.41-8.65h2.42v-2.01h-2.42v2.01Zm0,2.86h2.42v-2.04h-2.42v2.04Zm5.73-4.87h-2.45v2.01h2.45v-2.01Zm0,2.83h-2.45v2.04h2.45v-2.04Z"/><path d="M85.39,185.34c-1.23,.66-3.12,1.29-4.61,1.65-.17-.2-.5-.57-.72-.75,1.53-.29,3.33-.76,4.43-1.3l.9,.4Zm-3.44-5.41c-.4,.13-.87,.24-1.38,.34-.09-.22-.29-.6-.46-.78,2-.39,3.1-.92,3.72-1.53h-2.16l-.07,.19-.93-.06c.32-.66,.63-1.58,.87-2.36h3.01v-.9h-3.7v-.69h3.7v-.85h.92v.85h2.43v-.85h.95v.85h3.36v2.27h-3.36v.84h4.32s-.02,.22-.03,.34c-.1,.92-.21,1.35-.43,1.56-.18,.18-.41,.26-.71,.27h-.38v5.31h-9.66v-4.81Zm2.36-2.67c.12-.27,.18-.55,.21-.84h-2.28c-.09,.29-.2,.57-.3,.84h2.37Zm6.31,2.55h-7.7v.99h7.7v-.99Zm0,1.63h-7.7v.96h7.7v-.96Zm0,1.62h-7.7v1h7.7v-1Zm-5.61-5.1c-.26,.43-.63,.82-1.2,1.18h6.86c-.04-.15-.11-.31-.17-.42,.46,.03,.92,.04,1.07,.03,.18,0,.28,0,.36-.08,.09-.09,.17-.3,.21-.72h-3.3v1.12h-.95v-1.12h-2.88Zm2.88-1.54h-2.45c-.03,.29-.06,.57-.13,.84h2.58v-.84Zm-2.43-.68h2.43v-.9h-2.43v.9Zm3.29,9.21c1.66,.44,3.46,1.04,4.57,1.47l-1.06,.54c-.96-.43-2.61-.99-4.3-1.48l.79-.53Zm.09-10.11v.9h2.46v-.9h-2.46Z"/><path d="M108.91,185.53c0,.69-.2,1-.66,1.17-.5,.18-1.37,.18-2.78,.17-.03-.25-.2-.69-.34-.96,1.08,.04,2.1,.03,2.4,.02,.29-.02,.39-.11,.39-.39v-3.19h-4.19v4.48h-.99v-4.48h-3.87c-.22,1.68-.72,3.39-1.89,4.69-.14-.2-.53-.54-.75-.66,1.65-1.86,1.82-4.5,1.82-6.61v-5.4h10.86v11.17Zm-6.17-4.14v-2.62h-3.72v.99c0,.52-.02,1.06-.06,1.63h3.78Zm-3.72-6.09v2.54h3.72v-2.54h-3.72Zm8.89,0h-4.19v2.54h4.19v-2.54Zm0,6.09v-2.62h-4.19v2.62h4.19Z"/></g><g><path d="M18.67,219.68c-.45,1.12-1,2.27-1.62,3.33v9.92h-1v-8.37c-.51,.72-1.06,1.38-1.61,1.93-.12-.24-.43-.73-.63-.97,1.56-1.47,3-3.76,3.88-6.13l.97,.3Zm8.74,3.95h-1.93v7.92c0,.81-.22,1.09-.76,1.26-.57,.18-1.54,.18-3.17,.17-.08-.27-.25-.71-.41-.99,1.29,.04,2.51,.03,2.85,.01,.35-.01,.48-.12,.48-.45v-7.92h-6.12v-1h6.12v-3.15h1v3.15h1.93v1Zm-5.85,5.83c-.45-.95-1.44-2.57-2.22-3.77l.85-.4c.79,1.18,1.79,2.76,2.28,3.66l-.92,.51Z"/><path d="M43.88,220.9v.86h-2.46v2.37h-8.44v-2.37h-2.47v-.86h2.47v-1.51h.94v1.51h2.75v-1.6h.95v1.6h2.83v-1.51h.98v1.51h2.46Zm-12.96,4.21h12.52v2.9h-.94v-2.07h-4.89v1.65h4.33v3.13c0,.52-.1,.78-.51,.93-.42,.15-1.09,.15-2.14,.15-.06-.27-.2-.6-.33-.86,.82,.03,1.53,.02,1.74,.02,.21-.02,.27-.08,.27-.24v-2.31h-3.36v4.53h-.96v-4.53h-3.07v3.41h-.97v-4.23h4.05v-1.65h-4.8v2.07h-.93v-2.9Zm3-1.8h2.75v-1.56h-2.75v1.56Zm6.52-1.56h-2.83v1.56h2.83v-1.56Z"/><path d="M47.5,226.46h5.23v6.34h-.99v-.67h-3.3v.82h-.95v-6.49Zm.95,.96v3.75h3.3v-3.75h-3.3Zm9.31-2.59h-8.07v-4.91h8.07v4.91Zm-1-3.95h-6.09v2.99h6.09v-2.99Zm3.22,5.58v6.39h-.99v-.72h-3.6v.82h-.96v-6.49h5.55Zm-.99,4.71v-3.75h-3.6v3.75h3.6Z"/><path d="M68.89,231.34c-1.23,.66-3.12,1.29-4.61,1.65-.17-.2-.5-.57-.72-.75,1.53-.29,3.33-.76,4.43-1.3l.9,.4Zm-3.44-5.41c-.4,.13-.87,.24-1.38,.34-.09-.22-.29-.6-.46-.78,2-.39,3.1-.92,3.72-1.53h-2.16l-.07,.19-.93-.06c.32-.66,.63-1.58,.87-2.36h3.01v-.9h-3.7v-.69h3.7v-.85h.92v.85h2.43v-.85h.95v.85h3.36v2.27h-3.36v.84h4.32s-.02,.22-.03,.34c-.1,.92-.21,1.35-.43,1.56-.18,.18-.41,.26-.71,.27h-.38v5.31h-9.66v-4.81Zm2.36-2.67c.12-.27,.18-.55,.21-.84h-2.28c-.09,.29-.2,.57-.3,.84h2.37Zm6.31,2.55h-7.7v.99h7.7v-.99Zm0,1.63h-7.7v.96h7.7v-.96Zm0,1.62h-7.7v1h7.7v-1Zm-5.61-5.1c-.26,.43-.63,.82-1.2,1.18h6.86c-.04-.15-.11-.31-.17-.42,.46,.03,.92,.04,1.07,.03,.18,0,.28,0,.36-.08,.09-.09,.17-.3,.21-.72h-3.3v1.12h-.95v-1.12h-2.88Zm2.88-1.54h-2.45c-.03,.29-.06,.57-.13,.84h2.58v-.84Zm-2.43-.68h2.43v-.9h-2.43v.9Zm3.29,9.21c1.66,.44,3.46,1.04,4.57,1.47l-1.06,.54c-.96-.43-2.61-.99-4.3-1.48l.79-.53Zm.09-10.11v.9h2.46v-.9h-2.46Z"/><path d="M92.41,231.53c0,.69-.2,1-.66,1.17-.5,.18-1.37,.18-2.78,.17-.03-.25-.2-.69-.34-.96,1.08,.04,2.1,.03,2.4,.02,.29-.02,.39-.11,.39-.39v-3.19h-4.19v4.48h-.99v-4.48h-3.87c-.22,1.68-.72,3.39-1.89,4.69-.14-.2-.53-.54-.75-.66,1.65-1.86,1.82-4.5,1.82-6.61v-5.4h10.86v11.17Zm-6.17-4.14v-2.62h-3.72v.99c0,.52-.02,1.06-.06,1.63h3.78Zm-3.72-6.09v2.54h3.72v-2.54h-3.72Zm8.89,0h-4.19v2.54h4.19v-2.54Zm0,6.09v-2.62h-4.19v2.62h4.19Z"/></g><g><path d="M21.05,265.31c1.58,2.22,4.23,4.2,6.6,5.21-.22,.22-.48,.6-.64,.87-2.33-1.12-4.98-3.15-6.39-5.12-1.22,1.82-3.69,3.9-6.23,5.19-.12-.24-.39-.6-.6-.79,2.58-1.26,5.08-3.42,6.25-5.36h1Zm-6.49,7.49h12.34v.93h-7.11c-.54,1.16-1.21,2.52-1.83,3.6,1.92-.06,4.14-.15,6.33-.24-.63-.73-1.37-1.5-2.07-2.11l.84-.46c1.38,1.2,2.87,2.82,3.55,3.93l-.88,.55c-.18-.3-.43-.64-.72-1.02-3.7,.18-7.62,.34-10.18,.43l-.13-.99c.64-.01,1.38-.03,2.17-.06,.61-1.07,1.29-2.5,1.72-3.63h-4.03v-.93Zm9.66-2.85v.92h-7.14v-.92h7.14Z"/><path d="M35.06,273.99c-1.53,.77-3.16,1.56-4.41,2.16l-.39-.97c.57-.24,1.29-.56,2.07-.92v-4.79h-1.8v-.96h1.8v-3.12h.93v3.12h1.66v.96h-1.66v4.35l1.57-.72,.22,.88Zm2.75-1.69c-.2,.39-.44,.75-.69,1.11h6.52s-.02,.27-.04,.42c-.22,3.12-.46,4.29-.88,4.71-.21,.25-.48,.33-.83,.36-.32,.01-.88,.01-1.47-.01-.02-.24-.11-.6-.24-.83,.58,.04,1.1,.06,1.3,.06,.22,0,.36-.01,.46-.15,.27-.27,.5-1.25,.71-3.72h-1.27c-.6,1.83-1.79,3.78-3.09,4.75-.15-.21-.47-.43-.72-.57,1.24-.84,2.35-2.52,2.97-4.19h-1.56c-.79,1.56-2.27,3.23-3.66,4.11-.17-.21-.44-.46-.68-.63,1.28-.69,2.61-2.08,3.42-3.48h-1.62c-.6,.69-1.29,1.29-1.98,1.76-.13-.15-.49-.48-.69-.62,1.2-.74,2.31-1.83,3.03-3.09h-2.17v-.86h9.39v.86h-6.21Zm5.13-1.75h-6.81v-4.8h6.81v4.8Zm-.93-4.04h-4.98v1.28h4.98v-1.28Zm0,2h-4.98v1.29h4.98v-1.29Z"/><path d="M51.36,265.55c-.42,1.07-.96,2.13-1.56,3.13v10.33h-.96v-8.88c-.54,.76-1.12,1.47-1.72,2.05-.1-.24-.38-.73-.57-.97,1.53-1.41,3-3.67,3.88-5.96l.93,.29Zm4.74,7.96c-.12,1.05-.39,2.04-1.02,2.94,1.53,.84,3.45,1.38,5.61,1.63-.23,.21-.46,.62-.6,.9-2.14-.32-4.05-.92-5.59-1.84-.75,.76-1.85,1.39-3.45,1.88-.1-.23-.39-.63-.6-.83,1.5-.41,2.54-.95,3.24-1.59-.93-.67-1.68-1.5-2.23-2.47l.82-.27c.48,.79,1.16,1.49,2,2.08,.53-.74,.75-1.56,.85-2.43h-3.67v-4.07h3.75v-1.54h-4.21v-.91h4.21v-1.65h.97v1.65h4.38v.91h-4.38v1.54h3.87v4.07h-3.94Zm-.92-.86c.02-.27,.02-.51,.02-.78v-1.59h-2.84v2.37h2.82Zm.99-2.37v1.6c0,.25,0,.51-.02,.76h2.93v-2.37h-2.91Z"/><path d="M75.91,277.53c0,.69-.2,1-.66,1.17-.5,.18-1.37,.18-2.78,.17-.03-.25-.2-.69-.34-.96,1.08,.04,2.1,.03,2.4,.02,.29-.02,.39-.11,.39-.39v-3.19h-4.19v4.48h-.99v-4.48h-3.87c-.22,1.68-.72,3.39-1.89,4.69-.14-.2-.53-.54-.75-.66,1.65-1.86,1.82-4.5,1.82-6.61v-5.4h10.86v11.17Zm-6.17-4.14v-2.62h-3.72v.99c0,.52-.02,1.06-.06,1.63h3.78Zm-3.72-6.09v2.54h3.72v-2.54h-3.72Zm8.89,0h-4.19v2.54h4.19v-2.54Zm0,6.09v-2.62h-4.19v2.62h4.19Z"/><path d="M83.32,271.47c.42,.48,1.92,2.52,2.26,3.04l-.67,.76c-.27-.57-1.04-1.79-1.59-2.65v6.31h-.93v-6.33c-.57,1.65-1.38,3.38-2.13,4.38-.12-.27-.36-.71-.54-.96,.9-1.05,1.88-3.07,2.4-4.8h-2.16v-.93h2.43v-4.98h.93v4.98h2.47v.93h-2.47v.24Zm-2.4-1.75c-.07-.88-.43-2.25-.84-3.29l.75-.18c.44,1.02,.78,2.37,.88,3.25l-.79,.21Zm4.83-3.29c-.36,1.11-.83,2.5-1.23,3.34l-.66-.22c.36-.88,.81-2.35,1.04-3.36l.86,.24Zm5.88,8.26v4.25h-.95v-4.06l-4.74,.85-.17-.93,4.91-.88v-8.62h.95v8.47l1.82-.33,.13,.92-1.95,.34Zm-2.96-2.08c-.52-.55-1.6-1.3-2.5-1.78l.46-.69c.9,.45,2.01,1.14,2.54,1.68l-.5,.79Zm.65-3.63c-.48-.57-1.5-1.38-2.36-1.92l.5-.67c.88,.53,1.89,1.29,2.37,1.84l-.51,.75Z"/></g><g><path d="M19.45,314.59h-5.62v-.81h5.62v.81Zm-.52,9.48h-3.54v.72h-.88v-5.02h4.42v4.3Zm-4.41-8.29h4.42v.81h-4.42v-.81Zm0,2h4.42v.81h-4.42v-.81Zm4.38-5.14h-4.29v-.81h4.29v.81Zm-3.51,7.98v2.66h2.67v-2.66h-2.67Zm6.22-7.02c0,1.26-.33,2.82-1.92,3.87-.13-.18-.51-.53-.72-.66,1.46-.93,1.7-2.19,1.7-3.22v-1.82h4.63v3.72c0,.33,.04,.39,.3,.39h.83c.28,0,.34-.2,.36-1.67,.18,.17,.58,.31,.84,.36-.08,1.74-.33,2.16-1.1,2.16h-1.06c-.86,0-1.11-.25-1.11-1.23v-2.83h-2.75v.93Zm5.09,4.38c-.51,1.84-1.43,3.3-2.58,4.42,.99,.76,2.19,1.35,3.54,1.68-.22,.21-.51,.62-.66,.86-1.38-.41-2.61-1.05-3.63-1.89-1.12,.89-2.43,1.5-3.81,1.91-.11-.24-.36-.66-.55-.88,1.3-.33,2.56-.88,3.63-1.7-.92-.95-1.65-2.08-2.16-3.4l.89-.27c.45,1.17,1.14,2.19,2.01,3.06,.9-.84,1.6-1.86,2.07-3.09h-5.79v-.92h6.24l.18-.04,.63,.27Z"/><path d="M34.18,311.62c-.33,.99-.72,2-1.17,2.94v10.38h-.96v-8.58c-.47,.79-.98,1.53-1.5,2.15-.09-.23-.36-.75-.54-.99,1.32-1.51,2.52-3.81,3.26-6.15l.91,.25Zm9.86,4.68h-8.52v2.33c0,1.84-.18,4.5-1.37,6.3-.15-.17-.51-.5-.74-.62,1.08-1.68,1.18-3.99,1.18-5.7v-3.19h9.44v.88Zm-7.25-2.7h-2.49v-.88h2.49v-1.3h.92v1.3h2.91v-1.3h.94v1.3h2.42v.88h-2.42v1.28h-.94v-1.28h-2.91v1.28h-.92v-1.28Zm6.85,10.33c0,.46-.09,.72-.42,.85-.34,.15-.92,.17-1.83,.15-.03-.21-.15-.55-.25-.79,.69,.01,1.23,.01,1.42,0,.17,0,.21-.06,.21-.21v-1.49h-2.33v2.4h-.84v-2.4h-2.25v2.49h-.87v-7.48h7.15v6.48Zm-6.29-5.7v1.4h2.25v-1.4h-2.25Zm2.25,3.48v-1.37h-2.25v1.37h2.25Zm.84-3.48v1.4h2.33v-1.4h-2.33Zm2.33,3.48v-1.37h-2.33v1.37h2.33Z"/><path d="M52.39,323.34c-1.23,.66-3.12,1.29-4.61,1.65-.17-.2-.5-.57-.72-.75,1.53-.29,3.33-.76,4.43-1.3l.9,.4Zm-3.44-5.41c-.4,.13-.87,.24-1.38,.34-.09-.22-.29-.6-.46-.78,2-.39,3.1-.92,3.72-1.53h-2.16l-.07,.19-.93-.06c.32-.66,.63-1.58,.87-2.36h3.01v-.9h-3.7v-.69h3.7v-.85h.92v.85h2.43v-.85h.95v.85h3.36v2.27h-3.36v.84h4.32s-.02,.22-.03,.34c-.1,.92-.21,1.35-.43,1.56-.18,.18-.41,.26-.71,.27h-.38v5.31h-9.66v-4.81Zm2.36-2.67c.12-.27,.18-.55,.21-.84h-2.28c-.09,.29-.2,.57-.3,.84h2.37Zm6.31,2.55h-7.7v.99h7.7v-.99Zm0,1.63h-7.7v.96h7.7v-.96Zm0,1.62h-7.7v1h7.7v-1Zm-5.61-5.1c-.26,.43-.63,.82-1.2,1.18h6.86c-.04-.15-.11-.31-.17-.42,.46,.03,.92,.04,1.07,.03,.18,0,.28,0,.36-.08,.09-.09,.17-.3,.21-.72h-3.3v1.12h-.95v-1.12h-2.88Zm2.88-1.54h-2.45c-.03,.29-.06,.57-.13,.84h2.58v-.84Zm-2.43-.68h2.43v-.9h-2.43v.9Zm3.29,9.21c1.66,.44,3.46,1.04,4.57,1.47l-1.06,.54c-.96-.43-2.61-.99-4.3-1.48l.79-.53Zm.09-10.11v.9h2.46v-.9h-2.46Z"/><path d="M75.91,323.53c0,.69-.2,1-.66,1.17-.5,.18-1.37,.18-2.78,.17-.03-.25-.2-.69-.34-.96,1.08,.04,2.1,.03,2.4,.02,.29-.02,.39-.11,.39-.39v-3.19h-4.19v4.48h-.99v-4.48h-3.87c-.22,1.68-.72,3.39-1.89,4.69-.14-.2-.53-.54-.75-.66,1.65-1.86,1.82-4.5,1.82-6.61v-5.4h10.86v11.17Zm-6.17-4.14v-2.62h-3.72v.99c0,.52-.02,1.06-.06,1.63h3.78Zm-3.72-6.09v2.54h3.72v-2.54h-3.72Zm8.89,0h-4.19v2.54h4.19v-2.54Zm0,6.09v-2.62h-4.19v2.62h4.19Z"/></g><g><path d="M16.49,363.74c-.58-.49-1.73-1.17-2.67-1.57l.54-.74c.95,.36,2.12,.99,2.68,1.47l-.55,.84Zm1.08,2.12c-.71,1.59-1.68,3.5-2.46,4.89l-.87-.61c.74-1.17,1.79-3.17,2.57-4.88l.76,.6Zm-.39-6.04c-.56-.52-1.68-1.25-2.62-1.67l.57-.73c.92,.4,2.07,1.08,2.64,1.6l-.58,.79Zm4.48,8.92c-.93,.84-2.4,1.71-3.6,2.25-.17-.2-.54-.57-.75-.74,1.21-.45,2.59-1.14,3.42-1.86l.93,.34Zm-2.71-7.62h-.9v-2.36h4.05v-1.47h1v1.47h4.17v2.36h-.96v-1.52h-7.37v1.52Zm3.16,1.92v-1.17h-2.94v-.83h6.99v.83h-3.09v1.17h3.49v5.05h-7.81v-5.05h3.36Zm-2.47,2.14h2.47v-1.35h-2.47v1.35Zm0,2.12h2.47v-1.35h-2.47v1.35Zm3.44-3.46v1.35h2.56v-1.35h-2.56Zm2.56,2.11h-2.56v1.35h2.56v-1.35Zm-1.35,2.37c1.06,.58,2.45,1.46,3.16,2.05l-.76,.6c-.68-.58-2.06-1.52-3.14-2.13l.74-.53Z"/><path d="M43,364.79v6.12h-1.02v-.92h-9.55v.95h-.98v-6.15h.98v4.23h4.18v-5.22h-4.6v-5.08h.99v4.11h3.61v-5.48h1.01v5.48h3.76v-4.12h1.02v5.1h-4.78v5.22h4.36v-4.23h1.02Z"/><path d="M52.39,369.34c-1.23,.66-3.12,1.29-4.61,1.65-.17-.2-.5-.57-.72-.75,1.53-.29,3.33-.76,4.43-1.3l.9,.4Zm-3.44-5.41c-.4,.13-.87,.24-1.38,.34-.09-.22-.29-.6-.46-.78,2-.39,3.1-.92,3.72-1.53h-2.16l-.07,.19-.93-.06c.32-.66,.63-1.58,.87-2.36h3.01v-.9h-3.7v-.69h3.7v-.85h.92v.85h2.43v-.85h.95v.85h3.36v2.27h-3.36v.84h4.32s-.02,.22-.03,.34c-.1,.92-.21,1.35-.43,1.56-.18,.18-.41,.26-.71,.27h-.38v5.31h-9.66v-4.81Zm2.36-2.67c.12-.27,.18-.55,.21-.84h-2.28c-.09,.29-.2,.57-.3,.84h2.37Zm6.31,2.55h-7.7v.99h7.7v-.99Zm0,1.63h-7.7v.96h7.7v-.96Zm0,1.62h-7.7v1h7.7v-1Zm-5.61-5.1c-.26,.43-.63,.82-1.2,1.18h6.86c-.04-.15-.11-.31-.17-.42,.46,.03,.92,.04,1.07,.03,.18,0,.28,0,.36-.08,.09-.09,.17-.3,.21-.72h-3.3v1.12h-.95v-1.12h-2.88Zm2.88-1.54h-2.45c-.03,.29-.06,.57-.13,.84h2.58v-.84Zm-2.43-.68h2.43v-.9h-2.43v.9Zm3.29,9.21c1.66,.44,3.46,1.04,4.57,1.47l-1.06,.54c-.96-.43-2.61-.99-4.3-1.48l.79-.53Zm.09-10.11v.9h2.46v-.9h-2.46Z"/><path d="M75.91,369.53c0,.69-.2,1-.66,1.17-.5,.18-1.37,.18-2.78,.17-.03-.25-.2-.69-.34-.96,1.08,.04,2.1,.03,2.4,.02,.29-.02,.39-.11,.39-.39v-3.19h-4.19v4.48h-.99v-4.48h-3.87c-.22,1.68-.72,3.39-1.89,4.69-.14-.2-.53-.54-.75-.66,1.65-1.86,1.82-4.5,1.82-6.61v-5.4h10.86v11.17Zm-6.17-4.14v-2.62h-3.72v.99c0,.52-.02,1.06-.06,1.63h3.78Zm-3.72-6.09v2.54h3.72v-2.54h-3.72Zm8.89,0h-4.19v2.54h4.19v-2.54Zm0,6.09v-2.62h-4.19v2.62h4.19Z"/></g><g><path d="M20.24,403.13c-1.25,.58-2.91,1.16-4.46,1.58v2.82h4.21v.95h-4.21v3.75h4.3v.96h-4.3v1.3h-.99v-10.83l.63,.24c1.46-.45,3-1.06,3.96-1.57l.85,.81Zm6.67,9.12c0,.61-.12,.96-.57,1.15-.45,.18-1.25,.2-2.37,.2-.06-.3-.24-.76-.41-1.07,.96,.04,1.8,.03,2.06,.02,.25-.02,.32-.09,.32-.32v-7.92h-3.9v11.57h-.99v-12.54h5.87v8.91Z"/><path d="M38.32,413.17c0,.44-.06,.69-.36,.84-.32,.15-.79,.17-1.53,.17-.04-.26-.16-.58-.3-.83,.6,.01,1.02,.01,1.18,0,.15,0,.18-.04,.18-.2v-3.73h-1.69v6.48h-.85v-6.48h-1.58v4.89h-.78v-5.75h2.36v-1.58h-2.67v1.22c0,2.2-.17,5.35-1.34,7.47-.13-.19-.52-.48-.75-.58,1.08-1.99,1.17-4.8,1.17-6.88v-5.06h6.92v3.84h-2.48v1.58h2.52v4.6Zm-6.04-7.08h5.07v-2.04h-5.07v2.04Zm8.1,6.1h-.95v-8.32h.95v8.32Zm3.01-9.61v11.98c0,.69-.18,1-.62,1.17-.42,.17-1.25,.2-2.34,.2-.04-.27-.19-.74-.34-1.04,.92,.03,1.75,.03,2.03,.01,.24-.01,.31-.08,.31-.33v-12h.96Z"/><path d="M52.39,414.34c-1.23,.66-3.12,1.29-4.61,1.65-.17-.2-.5-.57-.72-.75,1.53-.29,3.33-.76,4.43-1.3l.9,.4Zm-3.44-5.41c-.4,.13-.87,.24-1.38,.34-.09-.22-.29-.6-.46-.78,2-.39,3.1-.92,3.72-1.53h-2.16l-.07,.19-.93-.06c.32-.66,.63-1.58,.87-2.36h3.01v-.9h-3.7v-.69h3.7v-.85h.92v.85h2.43v-.85h.95v.85h3.36v2.27h-3.36v.84h4.32s-.02,.22-.03,.34c-.1,.92-.21,1.35-.43,1.56-.18,.18-.41,.26-.71,.27h-.38v5.31h-9.66v-4.81Zm2.36-2.67c.12-.27,.18-.55,.21-.84h-2.28c-.09,.29-.2,.57-.3,.84h2.37Zm6.31,2.55h-7.7v.99h7.7v-.99Zm0,1.63h-7.7v.96h7.7v-.96Zm0,1.62h-7.7v1h7.7v-1Zm-5.61-5.1c-.26,.43-.63,.82-1.2,1.18h6.86c-.04-.15-.11-.31-.17-.42,.46,.03,.92,.04,1.07,.03,.18,0,.28,0,.36-.08,.09-.09,.17-.3,.21-.72h-3.3v1.12h-.95v-1.12h-2.88Zm2.88-1.54h-2.45c-.03,.29-.06,.57-.13,.84h2.58v-.84Zm-2.43-.68h2.43v-.9h-2.43v.9Zm3.29,9.21c1.66,.44,3.46,1.04,4.57,1.47l-1.06,.54c-.96-.43-2.61-.99-4.3-1.48l.79-.53Zm.09-10.11v.9h2.46v-.9h-2.46Z"/><path d="M75.91,414.53c0,.69-.2,1-.66,1.17-.5,.18-1.37,.18-2.78,.17-.03-.25-.2-.69-.34-.96,1.08,.04,2.1,.03,2.4,.02,.29-.02,.39-.11,.39-.39v-3.19h-4.19v4.48h-.99v-4.48h-3.87c-.22,1.68-.72,3.39-1.89,4.69-.14-.2-.53-.54-.75-.66,1.65-1.86,1.82-4.5,1.82-6.61v-5.4h10.86v11.17Zm-6.17-4.14v-2.62h-3.72v.99c0,.52-.02,1.06-.06,1.63h3.78Zm-3.72-6.09v2.54h3.72v-2.54h-3.72Zm8.89,0h-4.19v2.54h4.19v-2.54Zm0,6.09v-2.62h-4.19v2.62h4.19Z"/></g><g><path d="M16.15,450.32v3.06c0,2.22-.21,5.43-1.59,7.59-.17-.18-.6-.46-.84-.56,1.33-2.05,1.44-4.95,1.44-7.03v-4h5.43v-2.08h1.02v2.08h5.79v.95h-11.25Zm10.47,10.68c-.15-.4-.38-.88-.64-1.39-3.48,.22-7.14,.43-9.58,.54l-.11-1.02c.54-.01,1.15-.04,1.81-.06,.87-2.1,1.89-5.37,2.45-7.74l1.09,.25c-.66,2.37-1.65,5.37-2.5,7.44,1.92-.08,4.15-.18,6.34-.29-.65-1.09-1.42-2.26-2.2-3.22l.88-.42c1.35,1.69,2.83,3.96,3.43,5.43l-.98,.48Z"/><path d="M43.78,452.87v.93h-13.14v-.93h6.34v-2.48h-3.76c-.45,.79-.96,1.5-1.46,2.07-.2-.13-.65-.41-.9-.54,1.11-1.09,2.05-2.8,2.64-4.48l.99,.22c-.23,.63-.5,1.23-.76,1.8h3.25v-2.19h1.04v2.19h4.62v.93h-4.62v2.48h5.76Zm-11.26,2.47h9.46v5.75h-1.02v-.86h-7.46v.87h-.99v-5.76Zm.99,.93v3.03h7.46v-3.03h-7.46Z"/><path d="M52.39,459.34c-1.23,.66-3.12,1.29-4.61,1.65-.17-.2-.5-.57-.72-.75,1.53-.29,3.33-.76,4.43-1.3l.9,.4Zm-3.44-5.41c-.4,.13-.87,.24-1.38,.34-.09-.22-.29-.6-.46-.78,2-.39,3.1-.92,3.72-1.53h-2.16l-.07,.19-.93-.06c.32-.66,.63-1.58,.87-2.36h3.01v-.9h-3.7v-.69h3.7v-.85h.92v.85h2.43v-.85h.95v.85h3.36v2.27h-3.36v.84h4.32s-.02,.22-.03,.34c-.1,.92-.21,1.35-.43,1.56-.18,.18-.41,.26-.71,.27h-.38v5.31h-9.66v-4.81Zm2.36-2.67c.12-.27,.18-.55,.21-.84h-2.28c-.09,.29-.2,.57-.3,.84h2.37Zm6.31,2.55h-7.7v.99h7.7v-.99Zm0,1.63h-7.7v.96h7.7v-.96Zm0,1.62h-7.7v1h7.7v-1Zm-5.61-5.1c-.26,.43-.63,.82-1.2,1.18h6.86c-.04-.15-.11-.31-.17-.42,.46,.03,.92,.04,1.07,.03,.18,0,.28,0,.36-.08,.09-.09,.17-.3,.21-.72h-3.3v1.12h-.95v-1.12h-2.88Zm2.88-1.54h-2.45c-.03,.29-.06,.57-.13,.84h2.58v-.84Zm-2.43-.68h2.43v-.9h-2.43v.9Zm3.29,9.21c1.66,.44,3.46,1.04,4.57,1.47l-1.06,.54c-.96-.43-2.61-.99-4.3-1.48l.79-.53Zm.09-10.11v.9h2.46v-.9h-2.46Z"/><path d="M75.91,459.53c0,.69-.2,1-.66,1.17-.5,.18-1.37,.18-2.78,.17-.03-.25-.2-.69-.34-.96,1.08,.04,2.1,.03,2.4,.02,.29-.02,.39-.11,.39-.39v-3.19h-4.19v4.48h-.99v-4.48h-3.87c-.22,1.68-.72,3.39-1.89,4.69-.14-.2-.53-.54-.75-.66,1.65-1.86,1.82-4.5,1.82-6.61v-5.4h10.86v11.17Zm-6.17-4.14v-2.62h-3.72v.99c0,.52-.02,1.06-.06,1.63h3.78Zm-3.72-6.09v2.54h3.72v-2.54h-3.72Zm8.89,0h-4.19v2.54h4.19v-2.54Zm0,6.09v-2.62h-4.19v2.62h4.19Z"/></g><g><path d="M21.05,493.31c1.58,2.22,4.23,4.2,6.6,5.21-.22,.22-.48,.6-.64,.87-2.33-1.12-4.98-3.15-6.39-5.12-1.22,1.82-3.69,3.9-6.23,5.19-.12-.24-.39-.6-.6-.79,2.58-1.26,5.08-3.42,6.25-5.36h1Zm-6.49,7.49h12.34v.93h-7.11c-.54,1.16-1.21,2.52-1.83,3.6,1.92-.06,4.14-.15,6.33-.24-.63-.73-1.37-1.5-2.07-2.11l.84-.46c1.38,1.2,2.87,2.82,3.55,3.93l-.88,.55c-.18-.3-.43-.64-.72-1.02-3.7,.18-7.62,.34-10.18,.43l-.13-.99c.64-.01,1.38-.03,2.17-.06,.61-1.07,1.29-2.5,1.72-3.63h-4.03v-.93Zm9.66-2.85v.92h-7.14v-.92h7.14Z"/><path d="M35.06,501.99c-1.53,.77-3.16,1.56-4.41,2.16l-.39-.97c.57-.24,1.29-.56,2.07-.92v-4.79h-1.8v-.96h1.8v-3.12h.93v3.12h1.66v.96h-1.66v4.35l1.57-.72,.22,.88Zm2.75-1.69c-.2,.39-.44,.75-.69,1.11h6.52s-.02,.27-.04,.42c-.22,3.12-.46,4.29-.88,4.71-.21,.25-.48,.33-.83,.36-.32,.01-.88,.01-1.47-.01-.02-.24-.11-.6-.24-.83,.58,.04,1.1,.06,1.3,.06,.22,0,.36-.01,.46-.15,.27-.27,.5-1.25,.71-3.72h-1.27c-.6,1.83-1.79,3.78-3.09,4.75-.15-.21-.47-.43-.72-.57,1.24-.84,2.35-2.52,2.97-4.19h-1.56c-.79,1.56-2.27,3.23-3.66,4.11-.17-.21-.44-.46-.68-.63,1.28-.69,2.61-2.08,3.42-3.48h-1.62c-.6,.69-1.29,1.29-1.98,1.76-.13-.15-.49-.48-.69-.62,1.2-.74,2.31-1.83,3.03-3.09h-2.17v-.86h9.39v.86h-6.21Zm5.13-1.75h-6.81v-4.8h6.81v4.8Zm-.93-4.04h-4.98v1.28h4.98v-1.28Zm0,2h-4.98v1.29h4.98v-1.29Z"/><path d="M50.42,496.53c-.3,.63-.66,1.27-1.05,1.9v8.47h-.92v-7.15c-.45,.6-.92,1.15-1.36,1.62-.12-.21-.42-.66-.6-.86,1.12-1.08,2.31-2.7,3.06-4.27l.87,.29Zm-.28-2.93c-.72,1.2-1.88,2.54-2.93,3.42-.12-.21-.39-.57-.54-.75,.94-.78,2.01-1.99,2.55-2.98l.92,.31Zm6.09,10.68v.86c-2.1,.36-4.37,.73-5.94,.97l-.25-.9,.87-.12v-4.74h.83v4.62l1.35-.21v-5.59h-2.61v-.92h2.61v-2.45h-1.14c-.29,.72-.61,1.37-.96,1.88-.18-.13-.59-.39-.79-.48,.73-.99,1.26-2.46,1.57-3.93l.9,.18c-.11,.5-.24,.97-.41,1.46h3.63v.9h-1.92v2.45h2.01v.92h-2.01v1.9h1.92v.87h-1.92v2.69l2.27-.35Zm4-.71c0,.47-.11,.75-.4,.93-.32,.15-.78,.18-1.59,.17-.03-.24-.17-.65-.3-.9,.55,.01,1.04,.01,1.2,0,.12,0,.18-.04,.18-.21v-8.23h-1.91v11.59h-.9v-12.48h3.72v9.13Z"/><path d="M69.38,496.43c-.48,1.14-1.18,2.24-1.99,3.22,.72,.58,2.1,1.82,2.49,2.16l-.61,.81c-.42-.48-1.41-1.47-2.15-2.14v6.46h-.98v-5.94c-.82,.81-1.71,1.5-2.56,2.02-.11-.27-.36-.72-.53-.9,1.91-1.08,3.93-3.03,5.04-5.12h-4.53v-.92h2.58v-2.8h.98v2.8h1.51l.18-.04,.57,.38Zm5.82,9.39c.75,0,.87-.6,.97-2.89,.24,.19,.64,.38,.95,.43-.15,2.55-.44,3.42-1.86,3.42h-2.7c-1.39,0-1.8-.41-1.8-1.95v-11.26h1v11.28c0,.81,.15,.97,.88,.97h2.55Z"/><path d="M85.39,505.34c-1.23,.66-3.12,1.29-4.61,1.65-.17-.2-.5-.57-.72-.75,1.53-.29,3.33-.76,4.43-1.3l.9,.4Zm-3.44-5.41c-.4,.13-.87,.24-1.38,.34-.09-.22-.29-.6-.46-.78,2-.39,3.1-.92,3.72-1.53h-2.16l-.07,.19-.93-.06c.32-.66,.63-1.58,.87-2.36h3.01v-.9h-3.7v-.69h3.7v-.85h.92v.85h2.43v-.85h.95v.85h3.36v2.27h-3.36v.84h4.32s-.02,.22-.03,.34c-.1,.92-.21,1.35-.43,1.56-.18,.18-.41,.26-.71,.27h-.38v5.31h-9.66v-4.81Zm2.36-2.67c.12-.27,.18-.55,.21-.84h-2.28c-.09,.29-.2,.57-.3,.84h2.37Zm6.31,2.55h-7.7v.99h7.7v-.99Zm0,1.63h-7.7v.96h7.7v-.96Zm0,1.62h-7.7v1h7.7v-1Zm-5.61-5.1c-.26,.43-.63,.82-1.2,1.18h6.86c-.04-.15-.11-.31-.17-.42,.46,.03,.92,.04,1.07,.03,.18,0,.28,0,.36-.08,.09-.09,.17-.3,.21-.72h-3.3v1.12h-.95v-1.12h-2.88Zm2.88-1.54h-2.45c-.03,.29-.06,.57-.13,.84h2.58v-.84Zm-2.43-.68h2.43v-.9h-2.43v.9Zm3.29,9.21c1.66,.44,3.46,1.04,4.57,1.47l-1.06,.54c-.96-.43-2.61-.99-4.3-1.48l.79-.53Zm.09-10.11v.9h2.46v-.9h-2.46Z"/><path d="M108.91,505.53c0,.69-.2,1-.66,1.17-.5,.18-1.37,.18-2.78,.17-.03-.25-.2-.69-.34-.96,1.08,.04,2.1,.03,2.4,.02,.29-.02,.39-.11,.39-.39v-3.19h-4.19v4.48h-.99v-4.48h-3.87c-.22,1.68-.72,3.39-1.89,4.69-.14-.2-.53-.54-.75-.66,1.65-1.86,1.82-4.5,1.82-6.61v-5.4h10.86v11.17Zm-6.17-4.14v-2.62h-3.72v.99c0,.52-.02,1.06-.06,1.63h3.78Zm-3.72-6.09v2.54h3.72v-2.54h-3.72Zm8.89,0h-4.19v2.54h4.19v-2.54Zm0,6.09v-2.62h-4.19v2.62h4.19Z"/></g><g><path d="M19.54,543.62c-.5-.67-1.42-1.74-2.25-2.5-.66,1.11-1.68,2.49-3.17,3.63-.15-.21-.44-.51-.62-.65,1.52-1.12,2.58-2.62,3.15-3.81h1c.92,.79,2.01,1.93,2.59,2.67l-.72,.66Zm4.6,2.34c0,1.12,.46,5.2,3.5,7.14-.19,.22-.5,.63-.65,.85-2.4-1.59-3.18-4.6-3.31-5.82-.17,1.21-.99,4.18-3.57,5.82-.13-.19-.42-.6-.6-.79,3.24-2.01,3.67-6.01,3.67-7.2v-2.04h-1.25c-.39,1.14-.87,2.14-1.44,2.94-.17-.13-.57-.39-.83-.52v2.64h-3.83v2.87c.79-.23,1.65-.5,2.51-.77-.23-.48-.48-.97-.74-1.39l.81-.3c.57,.93,1.19,2.19,1.44,2.95l-.85,.39c-.08-.25-.18-.55-.32-.88-1.59,.55-3.23,1.09-4.5,1.5l-.36-.95c.33-.09,.69-.18,1.1-.3v-7.93h1.93v-1.4h.92v1.4h1.89v2.1c1.09-1.42,1.79-3.64,2.16-5.98l.99,.15c-.15,.88-.36,1.75-.58,2.57h4.32l.17-.03,.66,.2c-.31,1.32-.75,2.85-1.2,3.79l-.78-.28c.3-.69,.62-1.75,.84-2.75h-2.1v2.04Zm-8.29-1.04v1.25h2.94v-1.25h-2.94Zm2.94,3.29v-1.31h-2.94v1.31h2.94Z"/><path d="M43.07,549.5c-1.04,.75-2.35,1.54-3.52,2.13,1.18,.72,2.68,1.2,4.38,1.44-.22,.21-.5,.62-.62,.87-3.22-.57-5.64-1.98-6.91-4.37h-2.46v3.06l3.99-.36v.87c-2.36,.25-4.83,.51-6.54,.66l-.15-.92,1.72-.17v-8.08c-.67,.42-1.38,.81-2.08,1.14-.12-.22-.37-.58-.58-.79,2.55-1.12,5.05-3.01,6.29-4.71h.96c1.63,1.87,4.27,3.64,6.58,4.54-.23,.23-.46,.58-.63,.87-.67-.3-1.38-.67-2.07-1.09v4.98h-4.02c.38,.58,.84,1.1,1.41,1.54,1.19-.6,2.62-1.5,3.51-2.19l.75,.57Zm-1.99-5.12c-1.53-.96-3-2.12-3.96-3.21-.84,1.05-2.21,2.21-3.75,3.21h3.27v-1.56h1v1.56h3.44Zm-7.14,2.17h6.51v-1.35h-6.51v1.35Zm0,2.19h6.51v-1.41h-6.51v1.41Z"/><path d="M52.39,552.34c-1.23,.66-3.12,1.29-4.61,1.65-.17-.2-.5-.57-.72-.75,1.53-.29,3.33-.76,4.43-1.3l.9,.4Zm-3.44-5.41c-.4,.13-.87,.24-1.38,.34-.09-.22-.29-.6-.46-.78,2-.39,3.1-.92,3.72-1.53h-2.16l-.07,.19-.93-.06c.32-.66,.63-1.58,.87-2.36h3.01v-.9h-3.7v-.69h3.7v-.85h.92v.85h2.43v-.85h.95v.85h3.36v2.27h-3.36v.84h4.32s-.02,.22-.03,.34c-.1,.92-.21,1.35-.43,1.56-.18,.18-.41,.26-.71,.27h-.38v5.31h-9.66v-4.81Zm2.36-2.67c.12-.27,.18-.55,.21-.84h-2.28c-.09,.29-.2,.57-.3,.84h2.37Zm6.31,2.55h-7.7v.99h7.7v-.99Zm0,1.63h-7.7v.96h7.7v-.96Zm0,1.62h-7.7v1h7.7v-1Zm-5.61-5.1c-.26,.43-.63,.82-1.2,1.18h6.86c-.04-.15-.11-.31-.17-.42,.46,.03,.92,.04,1.07,.03,.18,0,.28,0,.36-.08,.09-.09,.17-.3,.21-.72h-3.3v1.12h-.95v-1.12h-2.88Zm2.88-1.54h-2.45c-.03,.29-.06,.57-.13,.84h2.58v-.84Zm-2.43-.68h2.43v-.9h-2.43v.9Zm3.29,9.21c1.66,.44,3.46,1.04,4.57,1.47l-1.06,.54c-.96-.43-2.61-.99-4.3-1.48l.79-.53Zm.09-10.11v.9h2.46v-.9h-2.46Z"/><path d="M75.91,552.53c0,.69-.2,1-.66,1.17-.5,.18-1.37,.18-2.78,.17-.03-.25-.2-.69-.34-.96,1.08,.04,2.1,.03,2.4,.02,.29-.02,.39-.11,.39-.39v-3.19h-4.19v4.48h-.99v-4.48h-3.87c-.22,1.68-.72,3.39-1.89,4.69-.14-.2-.53-.54-.75-.66,1.65-1.86,1.82-4.5,1.82-6.61v-5.4h10.86v11.17Zm-6.17-4.14v-2.62h-3.72v.99c0,.52-.02,1.06-.06,1.63h3.78Zm-3.72-6.09v2.54h3.72v-2.54h-3.72Zm8.89,0h-4.19v2.54h4.19v-2.54Zm0,6.09v-2.62h-4.19v2.62h4.19Z"/></g><g><path d="M15.5,592.92c-.21,1.41-.58,2.85-1.08,3.79-.17-.12-.57-.3-.79-.38,.51-.93,.82-2.25,1-3.58l.87,.17Zm2.52-3.78c.62,.96,1.21,2.24,1.42,3.03l-.76,.36c-.06-.25-.17-.57-.3-.9l-1.26,.07v6.29h-.88v-6.22c-.88,.04-1.71,.1-2.4,.15l-.07-.91,.96-.05c.35-.42,.71-.93,1.07-1.47-.48-.66-1.26-1.51-1.96-2.13l.51-.64c.15,.13,.32,.27,.47,.42,.51-.86,1.06-2,1.38-2.83l.87,.34c-.5,.99-1.12,2.21-1.69,3.01,.36,.36,.69,.74,.93,1.07,.6-.96,1.15-1.93,1.56-2.75l.85,.39c-.85,1.45-2.01,3.24-3.01,4.56l2.35-.12c-.23-.48-.48-.96-.74-1.38l.72-.29Zm.4,3.52c.42,.86,.83,1.98,.97,2.72l-.78,.27c-.13-.75-.53-1.88-.93-2.75l.73-.24Zm8.7,4.11c0,.55-.12,.85-.48,1.02-.38,.15-1,.17-1.93,.17-.03-.25-.17-.69-.3-.93,.71,.01,1.35,.01,1.54,0,.2,0,.26-.06,.26-.25v-8.71h-2.45c-.04,.5-.12,.97-.2,1.44,.95,1.38,2.03,3.12,2.55,4.23l-.75,.62c-.44-.96-1.28-2.38-2.07-3.63-.4,1.53-1.08,2.8-2.22,3.73-.12-.18-.41-.45-.63-.6v4.09h-.88v-10.81h3.34c.06-.92,.09-1.88,.11-2.85h.95c-.02,.97-.04,1.93-.12,2.85h3.28v9.64Zm-6.67-2.97c1.56-1.28,2.14-3.32,2.38-5.75h-2.38v5.75Z"/><path d="M33.7,589.65c.45,.56,1.68,2.31,1.96,2.75l-.57,.78c-.25-.53-.88-1.56-1.39-2.34v7.08h-.93v-7.27c-.54,1.72-1.26,3.43-1.99,4.46-.11-.25-.36-.65-.54-.87,.96-1.28,1.95-3.67,2.42-5.79h-2.13v-.92h2.25v-3.24h.93v3.24h1.86v.92h-1.86v1.21Zm10.05-3.54v2.64h-.95v-1.77h-6.01v1.77h-.93v-2.64h3.42v-1.83h.98v1.83h3.5Zm-5.97,7.28h5.55v4.5h-.99v-.53h-4.56v.57h-.94v-9.46h5.76v3.63h-4.82v1.29Zm0-4.08v1.95h3.84v-1.95h-3.84Zm0,4.93v2.24h4.56v-2.24h-4.56Z"/><path d="M59.41,596.53c0,.69-.2,1-.66,1.17-.5,.18-1.37,.18-2.78,.17-.03-.25-.2-.69-.34-.96,1.08,.04,2.1,.03,2.4,.02,.29-.02,.39-.11,.39-.39v-3.19h-4.19v4.48h-.99v-4.48h-3.87c-.22,1.68-.72,3.39-1.89,4.69-.14-.2-.53-.54-.75-.66,1.65-1.86,1.82-4.5,1.82-6.61v-5.4h10.86v11.17Zm-6.17-4.14v-2.62h-3.72v.99c0,.52-.02,1.06-.06,1.63h3.78Zm-3.72-6.09v2.54h3.72v-2.54h-3.72Zm8.89,0h-4.19v2.54h4.19v-2.54Zm0,6.09v-2.62h-4.19v2.62h4.19Z"/><path d="M64,591.46h5.23v6.34h-.99v-.67h-3.3v.82h-.95v-6.49Zm.95,.96v3.75h3.3v-3.75h-3.3Zm9.31-2.59h-8.07v-4.91h8.07v4.91Zm-1-3.95h-6.09v2.99h6.09v-2.99Zm3.22,5.58v6.39h-.99v-.72h-3.6v.82h-.96v-6.49h5.55Zm-.99,4.71v-3.75h-3.6v3.75h3.6Z"/><path d="M85.39,596.34c-1.23,.66-3.12,1.29-4.61,1.65-.17-.2-.5-.57-.72-.75,1.53-.29,3.33-.76,4.43-1.3l.9,.4Zm-3.44-5.41c-.4,.13-.87,.24-1.38,.34-.09-.22-.29-.6-.46-.78,2-.39,3.1-.92,3.72-1.53h-2.16l-.07,.19-.93-.06c.32-.66,.63-1.58,.87-2.36h3.01v-.9h-3.7v-.69h3.7v-.85h.92v.85h2.43v-.85h.95v.85h3.36v2.27h-3.36v.84h4.32s-.02,.22-.03,.34c-.1,.92-.21,1.35-.43,1.56-.18,.18-.41,.26-.71,.27h-.38v5.31h-9.66v-4.81Zm2.36-2.67c.12-.27,.18-.55,.21-.84h-2.28c-.09,.29-.2,.57-.3,.84h2.37Zm6.31,2.55h-7.7v.99h7.7v-.99Zm0,1.63h-7.7v.96h7.7v-.96Zm0,1.62h-7.7v1h7.7v-1Zm-5.61-5.1c-.26,.43-.63,.82-1.2,1.18h6.86c-.04-.15-.11-.31-.17-.42,.46,.03,.92,.04,1.07,.03,.18,0,.28,0,.36-.08,.09-.09,.17-.3,.21-.72h-3.3v1.12h-.95v-1.12h-2.88Zm2.88-1.54h-2.45c-.03,.29-.06,.57-.13,.84h2.58v-.84Zm-2.43-.68h2.43v-.9h-2.43v.9Zm3.29,9.21c1.66,.44,3.46,1.04,4.57,1.47l-1.06,.54c-.96-.43-2.61-.99-4.3-1.48l.79-.53Zm.09-10.11v.9h2.46v-.9h-2.46Z"/><path d="M108.91,596.53c0,.69-.2,1-.66,1.17-.5,.18-1.37,.18-2.78,.17-.03-.25-.2-.69-.34-.96,1.08,.04,2.1,.03,2.4,.02,.29-.02,.39-.11,.39-.39v-3.19h-4.19v4.48h-.99v-4.48h-3.87c-.22,1.68-.72,3.39-1.89,4.69-.14-.2-.53-.54-.75-.66,1.65-1.86,1.82-4.5,1.82-6.61v-5.4h10.86v11.17Zm-6.17-4.14v-2.62h-3.72v.99c0,.52-.02,1.06-.06,1.63h3.78Zm-3.72-6.09v2.54h3.72v-2.54h-3.72Zm8.89,0h-4.19v2.54h4.19v-2.54Zm0,6.09v-2.62h-4.19v2.62h4.19Z"/></g><g><path d="M16.87,640.97c.75,1.14,2.15,1.67,3.97,1.72,1.62,.08,4.98,.03,6.71-.09-.12,.24-.29,.71-.33,1-1.62,.08-4.73,.11-6.38,.04-2.01-.08-3.43-.62-4.39-1.8-.69,.64-1.4,1.3-2.15,1.95l-.55-.99c.64-.46,1.44-1.14,2.14-1.77v-3.93h-1.92v-.94h2.9v4.8Zm-.33-7.26c-.45-.75-1.49-1.79-2.43-2.49l.75-.58c.93,.67,2,1.7,2.47,2.43l-.79,.65Zm3.38,1.38c-.06,2.01-.38,4.58-1.77,6.39-.15-.18-.57-.48-.79-.57,1.46-1.88,1.61-4.47,1.61-6.42v-3.44h8.01v.95h-7.05v2.21h5.73l.18-.04,.63,.22c-.5,1.98-1.4,3.57-2.54,4.81,.97,.89,2.17,1.54,3.57,1.95-.23,.21-.51,.57-.65,.86-1.41-.47-2.62-1.19-3.61-2.13-.99,.88-2.12,1.53-3.29,1.98-.12-.25-.38-.63-.57-.83,1.12-.38,2.22-1,3.18-1.86-.97-1.12-1.71-2.49-2.22-4.08h-.42Zm1.36,0c.45,1.3,1.1,2.46,1.95,3.42,.87-.95,1.56-2.08,2.01-3.42h-3.96Z"/><path d="M36.38,633.43c-.48,1.14-1.18,2.24-1.99,3.22,.72,.58,2.1,1.82,2.49,2.16l-.61,.81c-.42-.48-1.41-1.47-2.15-2.14v6.46h-.98v-5.94c-.82,.81-1.71,1.5-2.56,2.02-.11-.27-.36-.72-.53-.9,1.91-1.08,3.93-3.03,5.04-5.12h-4.53v-.92h2.58v-2.8h.98v2.8h1.51l.18-.04,.57,.38Zm5.82,9.39c.75,0,.87-.6,.97-2.89,.24,.19,.64,.38,.95,.43-.15,2.55-.44,3.42-1.86,3.42h-2.7c-1.39,0-1.8-.41-1.8-1.95v-11.26h1v11.28c0,.81,.15,.97,.88,.97h2.55Z"/><path d="M47.5,637.46h5.23v6.34h-.99v-.67h-3.3v.82h-.95v-6.49Zm.95,.96v3.75h3.3v-3.75h-3.3Zm9.31-2.59h-8.07v-4.91h8.07v4.91Zm-1-3.95h-6.09v2.99h6.09v-2.99Zm3.22,5.58v6.39h-.99v-.72h-3.6v.82h-.96v-6.49h5.55Zm-.99,4.71v-3.75h-3.6v3.75h3.6Z"/><path d="M68.89,642.34c-1.23,.66-3.12,1.29-4.61,1.65-.17-.2-.5-.57-.72-.75,1.53-.29,3.33-.76,4.43-1.3l.9,.4Zm-3.44-5.41c-.4,.13-.87,.24-1.38,.34-.09-.22-.29-.6-.46-.78,2-.39,3.1-.92,3.72-1.53h-2.16l-.07,.19-.93-.06c.32-.66,.63-1.58,.87-2.36h3.01v-.9h-3.7v-.69h3.7v-.85h.92v.85h2.43v-.85h.95v.85h3.36v2.27h-3.36v.84h4.32s-.02,.22-.03,.34c-.1,.92-.21,1.35-.43,1.56-.18,.18-.41,.26-.71,.27h-.38v5.31h-9.66v-4.81Zm2.36-2.67c.12-.27,.18-.55,.21-.84h-2.28c-.09,.29-.2,.57-.3,.84h2.37Zm6.31,2.55h-7.7v.99h7.7v-.99Zm0,1.63h-7.7v.96h7.7v-.96Zm0,1.62h-7.7v1h7.7v-1Zm-5.61-5.1c-.26,.43-.63,.82-1.2,1.18h6.86c-.04-.15-.11-.31-.17-.42,.46,.03,.92,.04,1.07,.03,.18,0,.28,0,.36-.08,.09-.09,.17-.3,.21-.72h-3.3v1.12h-.95v-1.12h-2.88Zm2.88-1.54h-2.45c-.03,.29-.06,.57-.13,.84h2.58v-.84Zm-2.43-.68h2.43v-.9h-2.43v.9Zm3.29,9.21c1.66,.44,3.46,1.04,4.57,1.47l-1.06,.54c-.96-.43-2.61-.99-4.3-1.48l.79-.53Zm.09-10.11v.9h2.46v-.9h-2.46Z"/><path d="M92.41,642.53c0,.69-.2,1-.66,1.17-.5,.18-1.37,.18-2.78,.17-.03-.25-.2-.69-.34-.96,1.08,.04,2.1,.03,2.4,.02,.29-.02,.39-.11,.39-.39v-3.19h-4.19v4.48h-.99v-4.48h-3.87c-.22,1.68-.72,3.39-1.89,4.69-.14-.2-.53-.54-.75-.66,1.65-1.86,1.82-4.5,1.82-6.61v-5.4h10.86v11.17Zm-6.17-4.14v-2.62h-3.72v.99c0,.52-.02,1.06-.06,1.63h3.78Zm-3.72-6.09v2.54h3.72v-2.54h-3.72Zm8.89,0h-4.19v2.54h4.19v-2.54Zm0,6.09v-2.62h-4.19v2.62h4.19Z"/></g><g><path d="M17.74,685.82c-.75,1.3-1.92,2.61-3,3.45-.18-.18-.58-.5-.83-.65,1.11-.76,2.21-1.92,2.85-3.12l.97,.31Zm9.6-2.43v.96h-6.18v4.41c0,.58-.12,.87-.59,1.03-.43,.14-1.17,.14-2.34,.14-.06-.26-.19-.66-.34-.93,.91,.03,1.72,.03,1.96,.02,.24-.02,.31-.08,.31-.25v-4.41h-6.12v-.96h13.29Zm-11.92-2.43h-.99v-3.15h5.71v-1.58h1.02v1.58h5.85v3.15h-1v-2.21H15.41v2.21Zm1.21,.57v-.9h8.04v.9h-8.04Zm7.62,3.99c1.09,.96,2.38,2.31,2.98,3.22l-.87,.57c-.57-.92-1.83-2.31-2.94-3.29l.83-.51Z"/><path d="M43.06,680c-.38,2.44-.96,4.44-1.89,6.06,.76,1.33,1.72,2.4,2.97,3.04-.24,.21-.57,.58-.72,.85-1.17-.69-2.12-1.69-2.85-2.95-.9,1.23-2.06,2.2-3.56,2.98-.1-.22-.39-.67-.6-.88,1.59-.75,2.76-1.77,3.61-3.11-.6-1.27-1.05-2.74-1.39-4.36-.33,.71-.69,1.33-1.08,1.89-.15-.17-.54-.5-.78-.64-.62,.75-1.47,1.51-2.25,2.07v.69l3.12-.34v.85l-3.12,.36v2.34c0,.52-.12,.78-.51,.94-.39,.14-1.02,.14-1.98,.14-.04-.26-.18-.62-.33-.87,.78,.01,1.42,.01,1.62,0,.19,0,.25-.04,.25-.21v-2.22c-1.17,.13-2.27,.25-3.15,.34l-.12-.9c.88-.09,2.02-.21,3.27-.34v-1.37h.5c.45-.33,.92-.75,1.3-1.17h-1.86c-.84,.77-1.75,1.42-2.73,1.98-.15-.21-.51-.57-.74-.77,.69-.36,1.34-.76,1.94-1.21h-.42v-.81h1.41c.42-.38,.81-.76,1.18-1.19h-3.79v-.88h2.64v-1.54h-2.04v-.87h2.04v-1.62h.92v1.62h1.95v.87h-1.95v1.54h.96c.83-1.09,1.52-2.34,2.05-3.69l.93,.27c-.51,1.25-1.12,2.38-1.83,3.42h1.54v.88h-2.21c-.33,.42-.66,.81-1.02,1.19h1.76l.2-.06,.54,.39c1.12-1.56,1.89-3.96,2.33-6.42l1,.15c-.17,.9-.38,1.78-.62,2.62h4.46v.93h-.96Zm-3.81,.06c.3,1.8,.75,3.46,1.38,4.91,.67-1.38,1.11-3.02,1.4-4.96h-2.76v.06Z"/><path d="M59.68,682.28c-.93,.75-2.17,1.58-3.17,2.16,.98,1.59,2.28,2.82,3.94,3.46-.22,.2-.54,.57-.69,.86-2.88-1.28-4.65-4.16-5.59-7.73h-.03c-.46,.39-1,.75-1.59,1.1,2.89,2.46,2.93,6.36,1.47,7.38-.5,.38-.9,.46-1.56,.46-.34,.01-.82,0-1.32-.03-.01-.27-.09-.69-.27-.95,.55,.04,1.06,.06,1.39,.06,.41,0,.74-.02,1.04-.27,.6-.42,.86-1.62,.51-2.98-1.63,1.39-4.15,2.75-6.27,3.43-.12-.24-.33-.6-.53-.83,2.28-.61,5.01-2.08,6.5-3.49-.15-.33-.34-.68-.57-1.01-1.29,.96-3.3,1.98-4.86,2.54-.1-.24-.33-.58-.54-.78,1.62-.47,3.77-1.47,4.94-2.37-.23-.25-.46-.5-.75-.74-1.19,.58-2.49,1.08-3.71,1.44-.12-.18-.39-.6-.55-.79,1.84-.47,3.88-1.22,5.31-2.18h-3.37v-.85h8.46v.85h-2.82c.27,.95,.62,1.85,1.04,2.66,.97-.6,2.12-1.42,2.83-2.07l.77,.66Zm-11.16-1.74h-.96v-2.9h5.61v-1.35h.99v1.35h5.74v2.9h-1v-1.96h-10.38v1.96Z"/><path d="M64.61,683.81c.81-.83,2.08-2.56,2.97-3.62,.85-1,1.59-1.15,2.57-.15,.88,.9,2.02,2.37,3,3.42,.9,.99,2.41,2.59,3.75,3.78l-.84,.98c-1.16-1.08-2.53-2.64-3.57-3.81-.98-1.11-2.13-2.55-2.82-3.31-.66-.74-.95-.62-1.48,.04-.72,.88-1.98,2.56-2.76,3.51-.3,.39-.65,.83-.87,1.12l-.99-1c.36-.27,.66-.57,1.05-.96Z"/><path d="M87.13,689.24l-.62-.99c.47-.04,.93-.1,1.28-.18,1.92-.43,3.88-1.88,3.88-4.54,0-2.28-1.51-4.23-4.17-4.42-.19,1.42-.48,2.99-.9,4.38-.92,3.09-2.1,4.62-3.44,4.62s-2.61-1.47-2.61-3.95c0-3.21,2.88-6.03,6.49-6.03s5.7,2.46,5.7,5.44c0,3.15-2.1,5.22-5.62,5.67Zm-3.92-2.35c.71,0,1.56-1,2.34-3.65,.39-1.27,.69-2.73,.84-4.12-2.94,.33-4.8,2.85-4.8,4.96,0,1.95,.91,2.81,1.62,2.81Z"/><path d="M99.92,679.53c-.3,.63-.66,1.27-1.05,1.9v8.47h-.92v-7.15c-.45,.6-.92,1.15-1.36,1.62-.12-.21-.42-.66-.6-.86,1.12-1.08,2.31-2.7,3.06-4.27l.87,.29Zm-.28-2.93c-.72,1.2-1.88,2.54-2.93,3.42-.12-.21-.39-.57-.54-.75,.94-.78,2.01-1.99,2.55-2.98l.92,.31Zm6.09,10.68v.86c-2.1,.36-4.37,.73-5.94,.97l-.25-.9,.87-.12v-4.74h.83v4.62l1.35-.21v-5.59h-2.61v-.92h2.61v-2.45h-1.14c-.29,.72-.61,1.37-.96,1.88-.18-.13-.59-.39-.79-.48,.73-.99,1.26-2.46,1.57-3.93l.9,.18c-.11,.5-.24,.97-.41,1.46h3.63v.9h-1.92v2.45h2.01v.92h-2.01v1.9h1.92v.87h-1.92v2.69l2.27-.35Zm4-.71c0,.47-.11,.75-.4,.93-.32,.15-.78,.18-1.59,.17-.03-.24-.17-.65-.3-.9,.55,.01,1.04,.01,1.2,0,.12,0,.18-.04,.18-.21v-8.23h-1.91v11.59h-.9v-12.48h3.72v9.13Z"/><path d="M118.88,679.43c-.48,1.14-1.18,2.24-1.99,3.22,.72,.58,2.1,1.82,2.49,2.16l-.61,.81c-.42-.48-1.41-1.47-2.15-2.14v6.46h-.98v-5.94c-.82,.81-1.71,1.5-2.56,2.02-.11-.27-.36-.72-.53-.9,1.91-1.08,3.93-3.03,5.04-5.12h-4.53v-.92h2.58v-2.8h.98v2.8h1.51l.18-.04,.57,.38Zm5.82,9.39c.75,0,.87-.6,.97-2.89,.24,.19,.64,.38,.95,.43-.15,2.55-.44,3.42-1.86,3.42h-2.7c-1.39,0-1.8-.41-1.8-1.95v-11.26h1v11.28c0,.81,.15,.97,.88,.97h2.55Z"/></g><g><path d="M21.13,726.36c0,1.61,1,5.83,6.28,7.7-.22,.21-.51,.64-.66,.92-4.47-1.68-5.86-5.21-6.15-6.65-.27,1.46-1.58,4.86-5.94,6.65-.13-.21-.45-.62-.67-.84,5.13-1.94,6.1-6.13,6.1-7.77v-4.84h1.04v4.84Zm-3.85-1.83c-.27,1.75-.78,3.58-2.12,4.59l-.84-.58c1.21-.92,1.74-2.55,1.98-4.21l.98,.21Zm9.48,.18c-.72,1.39-1.68,3.12-2.44,4.18l-.83-.39c.74-1.09,1.7-2.91,2.22-4.21l1.05,.42Z"/><path d="M43.93,732.06h-3.66v2.89h-1v-2.89h-4.21c-.18,1.17-.96,2.26-3.69,2.92-.12-.2-.42-.55-.6-.74,2.36-.52,3.11-1.33,3.32-2.19h-3.66v-.87h3.75v-1.25h.94v1.25h4.16v-1.25h1v1.25h3.66v.87Zm-6.63-5.75c-.74,1.95-2.64,3.38-5.91,4.08-.11-.21-.33-.53-.51-.71,1.31-.25,2.4-.63,3.25-1.09-.45-.39-1.09-.83-1.7-1.17-.43,.25-.85,.46-1.29,.66-.12-.17-.41-.5-.6-.65,1.24-.48,2.47-1.17,3.3-2.07h-2.91v-.81h12.58v.81h-4.78v1.6c1.3-.31,2.67-.71,3.46-1.09l.75,.58c-1.12,.5-2.76,.92-4.21,1.2v.87c0,.39,.13,.45,.85,.45h2.61c.52,0,.63-.13,.67-1.14,.21,.15,.57,.27,.84,.33-.12,1.29-.41,1.62-1.42,1.62h-2.76c-1.35,0-1.71-.24-1.71-1.26v-3.17h-2.94c-.2,.25-.42,.5-.67,.73h2.35l.18-.04,.55,.25Zm-3.13-3.17h-3.57v-.84h3.57v-1.03h.99v1.03h4.02v-1.03h.98v1.03h3.69v.84h-3.69v1.08h-.98v-1.08h-4.02v1.08h-.99v-1.08Zm-.75,3.63c-.1,.09-.23,.17-.34,.24,.62,.34,1.3,.78,1.75,1.14,.58-.41,1.02-.87,1.32-1.38h-2.73Z"/><path d="M51.56,729.99c-1.53,.77-3.16,1.56-4.41,2.16l-.39-.97c.57-.24,1.29-.56,2.07-.92v-4.79h-1.8v-.96h1.8v-3.12h.93v3.12h1.66v.96h-1.66v4.35l1.57-.72,.22,.88Zm2.75-1.69c-.2,.39-.44,.75-.69,1.11h6.52s-.02,.27-.04,.42c-.22,3.12-.46,4.29-.88,4.71-.21,.25-.48,.33-.83,.36-.32,.01-.88,.01-1.47-.01-.02-.24-.11-.6-.24-.83,.58,.04,1.1,.06,1.3,.06,.22,0,.36-.01,.46-.15,.27-.27,.5-1.25,.71-3.72h-1.27c-.6,1.83-1.79,3.78-3.09,4.75-.15-.21-.47-.43-.72-.57,1.24-.84,2.35-2.52,2.97-4.19h-1.56c-.79,1.56-2.27,3.23-3.66,4.11-.17-.21-.44-.46-.68-.63,1.28-.69,2.61-2.08,3.42-3.48h-1.62c-.6,.69-1.29,1.29-1.98,1.76-.13-.15-.49-.48-.69-.62,1.2-.74,2.31-1.83,3.03-3.09h-2.17v-.86h9.39v.86h-6.21Zm5.13-1.75h-6.81v-4.8h6.81v4.8Zm-.93-4.04h-4.98v1.28h4.98v-1.28Zm0,2h-4.98v1.29h4.98v-1.29Z"/><path d="M68.89,733.34c-1.23,.66-3.12,1.29-4.61,1.65-.17-.2-.5-.57-.72-.75,1.53-.29,3.33-.76,4.43-1.3l.9,.4Zm-3.44-5.41c-.4,.13-.87,.24-1.38,.34-.09-.22-.29-.6-.46-.78,2-.39,3.1-.92,3.72-1.53h-2.16l-.07,.19-.93-.06c.32-.66,.63-1.58,.87-2.36h3.01v-.9h-3.7v-.69h3.7v-.85h.92v.85h2.43v-.85h.95v.85h3.36v2.27h-3.36v.84h4.32s-.02,.22-.03,.34c-.1,.92-.21,1.35-.43,1.56-.18,.18-.41,.26-.71,.27h-.38v5.31h-9.66v-4.81Zm2.36-2.67c.12-.27,.18-.55,.21-.84h-2.28c-.09,.29-.2,.57-.3,.84h2.37Zm6.31,2.55h-7.7v.99h7.7v-.99Zm0,1.63h-7.7v.96h7.7v-.96Zm0,1.62h-7.7v1h7.7v-1Zm-5.61-5.1c-.26,.43-.63,.82-1.2,1.18h6.86c-.04-.15-.11-.31-.17-.42,.46,.03,.92,.04,1.07,.03,.18,0,.28,0,.36-.08,.09-.09,.17-.3,.21-.72h-3.3v1.12h-.95v-1.12h-2.88Zm2.88-1.54h-2.45c-.03,.29-.06,.57-.13,.84h2.58v-.84Zm-2.43-.68h2.43v-.9h-2.43v.9Zm3.29,9.21c1.66,.44,3.46,1.04,4.57,1.47l-1.06,.54c-.96-.43-2.61-.99-4.3-1.48l.79-.53Zm.09-10.11v.9h2.46v-.9h-2.46Z"/><path d="M92.41,733.53c0,.69-.2,1-.66,1.17-.5,.18-1.37,.18-2.78,.17-.03-.25-.2-.69-.34-.96,1.08,.04,2.1,.03,2.4,.02,.29-.02,.39-.11,.39-.39v-3.19h-4.19v4.48h-.99v-4.48h-3.87c-.22,1.68-.72,3.39-1.89,4.69-.14-.2-.53-.54-.75-.66,1.65-1.86,1.82-4.5,1.82-6.61v-5.4h10.86v11.17Zm-6.17-4.14v-2.62h-3.72v.99c0,.52-.02,1.06-.06,1.63h3.78Zm-3.72-6.09v2.54h3.72v-2.54h-3.72Zm8.89,0h-4.19v2.54h4.19v-2.54Zm0,6.09v-2.62h-4.19v2.62h4.19Z"/></g></g><polygon points="306 .57 170.22 .57 170.22 52.8 306 52.8 441.79 52.8 441.79 .57 306 .57" fill="#242851" stroke="#d4d4d4" stroke-miterlimit="10" stroke-width="1.13"/><g><path d="M235.82,30.5c-.44-.55-1.29-1.46-2.07-2.24v7.56h-1.75v-7.01c-.85,.84-1.77,1.56-2.66,2.13-.17-.46-.61-1.29-.87-1.63,2.17-1.23,4.35-3.44,5.64-5.81h-4.98v-1.62h2.87v-3.5h1.75v3.5h1.31l.3-.06,.99,.67c-.57,1.44-1.41,2.83-2.36,4.08,.89,.72,2.47,2.09,2.91,2.49l-1.08,1.44Zm10.6,3.04v1.75h-10.64v-1.75h4.6v-7.45h-3.84v-1.71h3.84v-5.85h1.8v5.85h3.84v1.71h-3.84v7.45h4.24Z" fill="#fff"/><path d="M266.98,32.31h-4.46v3.51h-1.79v-3.51h-4.69c-.3,1.46-1.37,2.81-4.81,3.59-.21-.38-.72-1.03-1.04-1.33,2.68-.55,3.72-1.37,4.08-2.26h-4.41v-1.5h4.62v-1.41h1.65v1.41h4.6v-1.41h1.79v1.41h4.46v1.5Zm-8.3-7.41c-.97,2.51-3.42,4.24-7.52,5.11-.17-.36-.57-.89-.87-1.2,1.48-.27,2.74-.65,3.74-1.12-.46-.38-1.12-.84-1.73-1.22-.46,.25-.91,.47-1.37,.67-.21-.29-.7-.86-1.03-1.1,1.44-.51,2.89-1.27,3.91-2.22h-3.29v-1.37h15.94v1.37h-5.72v1.56c1.48-.32,2.98-.74,3.89-1.16l1.24,.99c-1.41,.59-3.38,1.03-5.13,1.33v.76c0,.51,.13,.61,.99,.61h2.83c.65,0,.76-.19,.84-1.35,.32,.25,.95,.46,1.41,.57-.19,1.69-.63,2.13-2.07,2.13h-3.15c-1.94,0-2.43-.42-2.43-1.96v-3.48h-3.51c-.21,.25-.42,.49-.65,.72h2.41l.29-.06,.99,.42Zm-4.29-3.97h-4.29v-1.41h4.29v-1.16h1.75v1.16h4.54v-1.16h1.77v1.16h4.43v1.41h-4.43v1.16h-1.77v-1.16h-4.54v1.16h-1.75v-1.16Zm-.7,4.69l-.29,.21c.63,.36,1.33,.82,1.8,1.2,.63-.42,1.12-.89,1.46-1.41h-2.98Z" fill="#fff"/><path d="M281.53,27.1c0,1.22-.99,2.2-2.2,2.2s-2.2-.99-2.2-2.2,.99-2.2,2.2-2.2,2.2,.99,2.2,2.2Z" fill="#fff"/><path d="M298.6,20.49c-.02,.46-.04,1.06-.08,1.75,1.33-.15,2.7-.42,3.74-.72l.04,1.86c-1.1,.25-2.51,.47-3.82,.63-.02,.76-.04,1.52-.04,2.2v.66c1.39-.4,2.79-.61,3.95-.61,2.83,0,4.96,1.52,4.96,3.95,0,2.26-1.31,3.84-4.1,4.5-.86,.19-1.71,.25-2.41,.28l-.68-1.94c.76,.02,1.58,.02,2.28-.13,1.6-.3,2.98-1.14,2.98-2.74,0-1.46-1.31-2.28-3.04-2.28-1.33,0-2.64,.23-3.89,.63,.02,1.58,.08,3.17,.08,3.93,0,2.01-.74,2.6-1.86,2.6-1.65,0-4.18-1.52-4.18-3.34,0-1.61,1.96-3.3,4.2-4.27v-1.18c0-.67,0-1.39,.02-2.11-.47,.04-.89,.06-1.25,.06-1.16,0-1.88-.04-2.51-.09l-.06-1.82c1.08,.13,1.82,.15,2.53,.15,.4,0,.84-.02,1.31-.06,0-.85,.02-1.54,.02-1.88,0-.4-.06-1.16-.11-1.5h2.09c-.06,.36-.11,1.01-.15,1.46Zm-2.43,12.56c.38,0,.65-.25,.65-.87s-.04-1.71-.06-2.94c-1.39,.68-2.38,1.65-2.38,2.41s1.14,1.41,1.79,1.41Zm12.75-9.2l-.93,1.52c-.91-.84-3.19-2.19-4.39-2.81l.84-1.44c1.41,.7,3.53,2,4.48,2.74Z" fill="#fff"/><path d="M321.15,27.39s0,.49-.02,.72c-.21,4.63-.4,6.4-.91,6.99-.34,.44-.72,.55-1.29,.61-.49,.08-1.39,.08-2.3,.04-.04-.47-.21-1.12-.49-1.56,.87,.09,1.71,.09,2.03,.09,.3,0,.49-.02,.63-.21,.32-.34,.51-1.69,.66-5.11h-2.66c-.44,2.68-1.31,5.21-3.31,6.88-.27-.42-.78-.97-1.22-1.23,2.55-2.05,2.96-5.74,3.13-9.04h-1.98v-6.31h7.58v6.31h-3.88c-.04,.61-.08,1.22-.15,1.82h4.16Zm-6.1-3.38h4.26v-3.19h-4.26v3.19Zm9.37,7.14h-1.71v-10.49h1.71v10.49Zm4.6-12.39v14.82c0,1.1-.27,1.62-.93,1.94-.7,.27-1.84,.32-3.57,.3-.09-.48-.36-1.29-.63-1.8,1.29,.06,2.49,.04,2.87,.04,.36-.02,.49-.13,.49-.48v-14.82h1.77Z" fill="#fff"/><path d="M337.85,19.1l2.2,.08c-.1,.49-.25,1.5-.4,2.75l.06-.02,.63,.8c-.23,.34-.59,.89-.89,1.37-.02,.27-.04,.53-.08,.82,1.5-1.35,3.84-3.06,5.72-3.06s2.79,1.1,2.79,2.68c0,1.92-.68,4.98-.68,6.93,0,.57,.29,1.03,.87,1.03,.82,0,1.77-.53,2.7-1.48l.29,2.07c-.97,.93-2.13,1.52-3.53,1.52-1.33,0-2.22-.91-2.22-2.6,0-2.09,.7-5.07,.7-6.86,0-1.04-.53-1.5-1.44-1.5-1.48,0-3.67,1.79-5.32,3.57-.04,.68-.06,1.35-.06,1.94,0,1.65-.02,3,.09,4.73,.02,.34,.06,.89,.09,1.29h-2.05c.04-.4,.06-.95,.06-1.25,.02-1.79,.02-2.87,.08-4.98-.89,1.31-2.01,2.95-2.81,4.05l-1.18-1.65c1.04-1.33,3.12-4.07,4.14-5.6,.04-.55,.08-1.1,.11-1.65-.89,.11-2.47,.32-3.61,.48l-.19-1.94c.48,.02,.87,.02,1.42-.02,.59-.04,1.58-.15,2.49-.29,.06-.82,.09-1.44,.09-1.65,0-.49,0-1.03-.08-1.54Z" fill="#fff"/><path d="M363.67,35.04l-1.12-1.79c.65-.06,1.22-.15,1.69-.27,2.43-.55,4.6-2.34,4.6-5.39,0-2.75-1.67-4.94-4.6-5.3-.27,1.71-.59,3.55-1.14,5.34-1.14,3.88-2.72,6.02-4.6,6.02s-3.61-2.09-3.61-5.26c0-4.26,3.72-7.9,8.49-7.9s7.45,3.19,7.45,7.16-2.55,6.72-7.16,7.39Zm-5.11-3.65c.85,0,1.75-1.23,2.62-4.16,.47-1.5,.82-3.23,1.04-4.9-3.42,.55-5.42,3.51-5.42,5.87,0,2.18,.93,3.19,1.75,3.19Z" fill="#fff"/><path d="M379.37,24.4c-1.04,.74-2.17,1.42-3.31,1.98-.19-.4-.66-1.06-1.04-1.44,3.25-1.48,6.34-4.22,7.77-6.54h1.82c2.01,2.79,5.17,5.11,8.13,6.27-.42,.44-.82,1.06-1.12,1.6-1.1-.53-2.26-1.2-3.36-1.98v1.48h-8.89v-1.37Zm-3.27,3.34h15.6v1.65h-8.7c-.63,1.27-1.33,2.7-2.01,3.91,2.11-.08,4.46-.17,6.78-.27-.7-.8-1.46-1.6-2.2-2.26l1.52-.82c1.73,1.46,3.53,3.48,4.41,4.88l-1.61,1.01c-.21-.36-.49-.78-.84-1.24-4.52,.23-9.35,.44-12.58,.57l-.23-1.73,2.81-.1c.63-1.18,1.31-2.7,1.77-3.97h-4.71v-1.65Zm11.95-3.61c-1.71-1.22-3.27-2.64-4.27-4.03-.91,1.33-2.36,2.75-4.05,4.03h8.32Z" fill="#fff"/></g><rect x="170.22" y="53.28" width="135.79" height="57.82" fill="#ddf4ff" stroke="#d4d4d4" stroke-miterlimit="10" stroke-width="1.13"/><rect x="306" y="53.28" width="135.79" height="57.82" fill="#ffdbdb" stroke="#d4d4d4" stroke-miterlimit="10" stroke-width="1.13"/><g><path d="M221.98,79.4c-1.04,.74-2.17,1.42-3.31,1.98-.19-.4-.66-1.06-1.04-1.44,3.25-1.48,6.35-4.22,7.77-6.54h1.82c2.01,2.79,5.17,5.11,8.13,6.27-.42,.44-.82,1.06-1.12,1.6-1.1-.53-2.26-1.2-3.36-1.98v1.48h-8.89v-1.37Zm-3.27,3.34h15.6v1.65h-8.7c-.63,1.27-1.33,2.7-2.01,3.91,2.11-.08,4.46-.17,6.78-.27-.7-.8-1.46-1.6-2.2-2.26l1.52-.82c1.73,1.46,3.53,3.48,4.41,4.88l-1.62,1.01c-.21-.36-.49-.78-.84-1.24-4.52,.23-9.35,.44-12.58,.57l-.23-1.73,2.81-.1c.63-1.18,1.31-2.7,1.77-3.97h-4.71v-1.65Zm11.95-3.61c-1.71-1.22-3.27-2.64-4.27-4.03-.91,1.33-2.36,2.75-4.05,4.03h8.32Z"/><path d="M245.64,85.5c-.44-.55-1.29-1.46-2.07-2.24v7.56h-1.75v-7.01c-.85,.84-1.77,1.56-2.66,2.13-.17-.46-.61-1.29-.87-1.63,2.17-1.23,4.35-3.44,5.64-5.81h-4.98v-1.62h2.87v-3.5h1.75v3.5h1.31l.3-.06,.99,.67c-.57,1.44-1.41,2.83-2.36,4.08,.89,.72,2.47,2.09,2.91,2.49l-1.08,1.44Zm10.6,3.04v1.75h-10.64v-1.75h4.6v-7.45h-3.84v-1.71h3.84v-5.85h1.8v5.85h3.84v1.71h-3.84v7.45h4.24Z"/></g><g><path d="M370.26,81.3c-1.1,.87-2.51,1.8-3.71,2.47,1.12,1.84,2.64,3.29,4.58,4.08-.42,.36-.97,1.04-1.23,1.54-3.5-1.69-5.55-5.24-6.69-9.69h-.04c-.51,.44-1.12,.85-1.75,1.22,3.59,3.13,3.51,7.9,1.67,9.23-.67,.53-1.22,.7-2.13,.7-.47,0-1.04-.02-1.63-.06-.04-.47-.19-1.18-.49-1.69,.68,.08,1.31,.09,1.77,.09,.49,0,.89-.04,1.25-.38,.57-.42,.85-1.56,.63-2.91-2.07,1.61-5.05,3.19-7.56,4.03-.23-.42-.59-1.08-.93-1.46,2.79-.72,6.14-2.39,8.02-4.08-.15-.32-.32-.65-.51-.97-1.62,1.12-4.05,2.34-5.95,3.02-.19-.42-.57-1.01-.89-1.37,1.96-.51,4.58-1.65,6.02-2.72-.21-.23-.44-.46-.7-.67-1.46,.7-3.08,1.27-4.58,1.69-.17-.32-.65-1.06-.93-1.37,2.17-.49,4.5-1.29,6.23-2.32h-3.5v-1.52h10.39v1.52h-2.79c.27,.95,.61,1.88,1.01,2.74,1.08-.7,2.28-1.6,3.06-2.32l1.39,1.18Zm-13.91-2.38h-1.75v-3.95h6.92v-1.6h1.82v1.6h7.03v3.95h-1.79v-2.34h-12.23v2.34Z"/><path d="M382.04,80.51s0,.53-.02,.76c-.21,5.98-.44,8.13-.97,8.81-.32,.47-.68,.61-1.2,.68-.46,.08-1.16,.08-1.92,.04-.02-.47-.19-1.18-.46-1.61,.68,.06,1.27,.06,1.56,.06,.25,.02,.4-.04,.57-.25,.34-.44,.55-2.17,.74-6.88h-2.13c-.25,3.46-.87,6.59-2.51,8.72-.29-.4-.84-.95-1.25-1.22,1.98-2.58,2.18-7.03,2.26-11.49h-2v-1.65h3.31v-3.08h1.71v3.08h2.72v1.27c.87-1.23,1.6-2.81,2.05-4.41l1.6,.38c-.21,.68-.44,1.37-.72,2.01h6.48v1.62h-7.26c-.49,.93-1.04,1.75-1.62,2.41-.29-.29-1.01-.76-1.39-.97,.19-.21,.4-.42,.57-.67h-3.78c-.02,.8-.04,1.6-.08,2.38h3.72Zm6.44,4.65c.72,1.94,2.05,3.53,3.88,4.29-.36,.29-.87,.93-1.1,1.35-1.63-.82-2.87-2.3-3.69-4.12-.66,1.48-1.94,2.94-4.31,4.12-.25-.34-.76-.91-1.14-1.2,2.83-1.25,3.88-2.93,4.24-4.45h-3.65v-1.6h3.86v-2.41h-1.27c-.36,.74-.76,1.42-1.18,1.96-.3-.27-1.01-.72-1.39-.91,.97-1.12,1.71-2.81,2.11-4.54l1.63,.38c-.15,.51-.3,1.03-.49,1.54h5.61v1.58h-3.34v2.41h3.67v1.6h-3.42Z"/></g><g><rect x="170.22" y="110.82" width="271.58" height="638.91" fill="#fff" stroke="#d4d4d4" stroke-miterlimit="10" stroke-width="1.13"/><line x1="170.22" y1="156.56" x2="441.79" y2="156.56" fill="#fff" stroke="#d4d4d4" stroke-miterlimit="10" stroke-width="1.13"/><line x1="170.22" y1="202.23" x2="441.79" y2="202.23" fill="#fff" stroke="#d4d4d4" stroke-miterlimit="10" stroke-width="1.13"/><line x1="170.22" y1="247.89" x2="441.79" y2="247.89" fill="#fff" stroke="#d4d4d4" stroke-miterlimit="10" stroke-width="1.13"/><line x1="170.22" y1="293.56" x2="441.79" y2="293.56" fill="#fff" stroke="#d4d4d4" stroke-miterlimit="10" stroke-width="1.13"/><line x1="170.22" y1="339.23" x2="441.79" y2="339.23" fill="#fff" stroke="#d4d4d4" stroke-miterlimit="10" stroke-width="1.13"/><line x1="170.22" y1="384.9" x2="441.79" y2="384.9" fill="#fff" stroke="#d4d4d4" stroke-miterlimit="10" stroke-width="1.13"/><line x1="170.22" y1="430.57" x2="441.79" y2="430.57" fill="#fff" stroke="#d4d4d4" stroke-miterlimit="10" stroke-width="1.13"/><line x1="170.22" y1="476.24" x2="441.79" y2="476.24" fill="#fff" stroke="#d4d4d4" stroke-miterlimit="10" stroke-width="1.13"/><line x1="170.22" y1="521.91" x2="441.79" y2="521.91" fill="#fff" stroke="#d4d4d4" stroke-miterlimit="10" stroke-width="1.13"/><line x1="170.22" y1="567.58" x2="441.79" y2="567.58" fill="#fff" stroke="#d4d4d4" stroke-miterlimit="10" stroke-width="1.13"/><line x1="170.22" y1="613.25" x2="441.79" y2="613.25" fill="#fff" stroke="#d4d4d4" stroke-miterlimit="10" stroke-width="1.13"/><line x1="170.22" y1="658.92" x2="441.79" y2="658.92" fill="#fff" stroke="#d4d4d4" stroke-miterlimit="10" stroke-width="1.13"/><line x1="170.22" y1="704.59" x2="441.79" y2="704.59" fill="#fff" stroke="#d4d4d4" stroke-miterlimit="10" stroke-width="1.13"/><line x1="306" y1="750.22" x2="306" y2="110.89" fill="#fff" stroke="#d4d4d4" stroke-miterlimit="10" stroke-width="1.13"/></g><circle cx="237.85" cy="135.22" r="11"/><circle cx="237.78" cy="179.22" r="11"/><circle cx="237.78" cy="224.22" r="11"/><circle cx="237.78" cy="269.22" r="11"/><circle cx="237.78" cy="316.22" r="11"/><circle cx="237.78" cy="362.22" r="11"/><circle cx="237.78" cy="408.22" r="11"/><circle cx="237.78" cy="454.22" r="11"/><circle cx="237.78" cy="498.22" r="11"/><g><path d="M206.84,549.64c.88,1.39,2.48,2,4.64,2.07,1.93,.09,6.03,.04,8.12-.09-.13,.27-.31,.81-.38,1.17-1.95,.07-5.76,.11-7.72,.04-2.39-.09-4.05-.74-5.17-2.18-.94,.81-1.91,1.58-2.93,2.36l-.59-1.15c.85-.58,1.93-1.35,2.88-2.12v-4.75h-2.67v-1.13h3.82v5.8Zm-.5-8.71c-.58-.9-1.85-2.16-3.01-3.01l.85-.74c1.15,.83,2.47,2.04,3.04,2.94l-.88,.81Zm4.92-1.93c.79,.29,1.67,.65,2.54,1.03,.94-.41,1.93-.95,2.68-1.51h-7.72v-.97h8.89l.22-.05,.76,.56c-.97,.92-2.38,1.82-3.75,2.47,.56,.27,1.04,.52,1.46,.76h2.29v8.03c0,.61-.13,.92-.58,1.08-.45,.18-1.21,.2-2.43,.2-.05-.31-.2-.72-.34-1.01,.88,.04,1.66,.02,1.89,.02,.25-.02,.32-.09,.32-.29v-1.8h-3.31v2.97h-1.08v-2.97h-3.2v3.04h-1.12v-9.27h5.33c-1.12-.56-2.47-1.13-3.62-1.57l.77-.7Zm-1.37,3.22v1.67h3.2v-1.67h-3.2Zm3.2,4.34v-1.75h-3.2v1.75h3.2Zm4.39-4.34h-3.31v1.67h3.31v-1.67Zm0,4.34v-1.75h-3.31v1.75h3.31Z"/><path d="M227.52,540.31c-.47,1.1-1.04,2.18-1.67,3.19v9.65h-1.21v-7.94c-.67,.86-1.39,1.64-2.11,2.29-.18-.23-.63-.68-.9-.9,1.91-1.57,3.67-4.05,4.74-6.63l1.15,.34Zm10.46-.38h-15.72v-1.12h7.2v-2.05h1.21v2.05h7.31v1.12Zm-.49,2.45c-.81,2.97-2.2,5.28-3.98,7.04,1.42,1.22,3.12,2.18,4.99,2.74-.25,.25-.61,.74-.81,1.04-1.89-.65-3.58-1.69-5.02-3.03-1.58,1.35-3.4,2.32-5.35,3.01-.16-.29-.52-.79-.77-1.01,1.94-.61,3.76-1.53,5.31-2.81-1.04-1.1-1.93-2.38-2.61-3.78-.58,.68-1.17,1.3-1.82,1.82-.22-.25-.58-.63-.83-.83,2.07-1.64,3.82-4.3,4.68-6.61l1.17,.34c-.23,.58-.52,1.17-.83,1.76h4.9l.2-.05,.77,.36Zm-6.45,.7c-.34,.56-.7,1.1-1.1,1.62,.67,1.44,1.6,2.77,2.74,3.93,1.48-1.44,2.67-3.28,3.37-5.55h-5.01Zm2.23,3.47c-.4-.61-1.31-1.53-2.11-2.2l.76-.58c.79,.61,1.71,1.49,2.16,2.11l-.81,.67Z"/><path d="M244.96,544.2c.5,.58,2.3,3.02,2.72,3.66l-.81,.92c-.32-.68-1.24-2.14-1.91-3.19v7.58h-1.12v-7.6c-.68,1.98-1.66,4.05-2.56,5.26-.14-.32-.43-.85-.65-1.15,1.08-1.26,2.25-3.69,2.88-5.76h-2.59v-1.12h2.92v-5.98h1.12v5.98h2.97v1.12h-2.97v.29Zm-2.88-2.11c-.09-1.06-.52-2.7-1.01-3.94l.9-.22c.52,1.22,.94,2.84,1.06,3.91l-.96,.25Zm5.8-3.94c-.43,1.33-.99,3.01-1.48,4.02l-.79-.27c.43-1.06,.97-2.83,1.24-4.03l1.03,.29Zm7.06,9.92v5.1h-1.13v-4.88l-5.69,1.03-.2-1.12,5.89-1.06v-10.35h1.13v10.17l2.18-.4,.16,1.1-2.34,.41Zm-3.55-2.5c-.63-.67-1.93-1.57-3.01-2.14l.56-.83c1.08,.54,2.41,1.37,3.04,2.02l-.59,.95Zm.77-4.36c-.58-.68-1.8-1.66-2.83-2.3l.59-.81c1.06,.63,2.27,1.55,2.84,2.21l-.61,.9Z"/><path d="M265.43,549.42c-1.91,.65-3.96,1.35-5.53,1.85l-.29-1.21c.68-.18,1.53-.45,2.45-.76v-4.99h-2.07v-1.12h2.07v-4.05h-2.25v-1.13h5.51v1.13h-2.11v4.05h1.85v1.12h-1.85v4.63c.65-.22,1.35-.45,2.02-.67l.2,1.13Zm10.8,2.05v1.1h-11.63v-1.1h5.56v-2.59h-4.16v-1.1h4.16v-2.21h-3.93v-7.96h9.13v7.96h-4v2.21h4.27v1.1h-4.27v2.59h4.86Zm-8.89-10.39h2.9v-2.41h-2.9v2.41Zm0,3.44h2.9v-2.45h-2.9v2.45Zm6.88-5.85h-2.93v2.41h2.93v-2.41Zm0,3.4h-2.93v2.45h2.93v-2.45Z"/></g><g><path d="M215,677.75h-6.03v-.97h6.03v.97Zm-.47,11.38h-3.8v.86h-1.03v-6.03h4.83v5.17Zm-4.81-9.96h4.81v.97h-4.81v-.97Zm0,2.39h4.81v.97h-4.81v-.97Zm4.74-6.18h-4.65v-.97h4.65v.97Zm-3.73,9.56v3.19h2.77v-3.19h-2.77Zm8.52-2.05c-.18,3.85-.76,6.07-3.92,7.29-.13-.27-.45-.72-.7-.94,2.9-1.01,3.35-2.92,3.49-6.36h1.13Zm-2.74,.88h-1.1v-3.12h9.78v3.12h-1.13v-2.12h-7.54v2.12Zm3.1-7.31h-4.14v-1.03h4.14v-1.67h1.19v1.67h4.32v1.03h-4.32v1.78h3.8v1.03h-8.55v-1.03h3.57v-1.78Zm4.43,12.41c.43,0,.5-.29,.54-2.39,.23,.2,.7,.4,1.01,.49-.09,2.38-.4,2.99-1.42,2.99h-1.55c-1.15,0-1.44-.36-1.44-1.58v-5.46h1.12v5.46c0,.45,.07,.5,.47,.5h1.28Z"/><path d="M229.89,684.14c-.25,1.69-.7,3.42-1.3,4.56-.2-.14-.68-.36-.96-.45,.61-1.12,.99-2.7,1.21-4.3l1.04,.2Zm1.94-1.46v7.54h-1.06v-7.47c-1.06,.05-2.05,.13-2.88,.18l-.09-1.1,1.15-.05c.41-.5,.85-1.12,1.28-1.76-.58-.79-1.51-1.82-2.36-2.56l.61-.77c.18,.16,.38,.32,.56,.5,.61-1.03,1.28-2.39,1.66-3.4l1.04,.41c-.59,1.19-1.35,2.65-2.03,3.62,.43,.43,.83,.88,1.12,1.28,.72-1.15,1.39-2.32,1.87-3.29l1.03,.47c-1.03,1.75-2.41,3.89-3.62,5.47l2.83-.14c-.27-.58-.58-1.15-.88-1.66l.86-.34c.74,1.15,1.46,2.68,1.71,3.64l-.92,.43c-.07-.31-.2-.68-.36-1.08l-1.51,.09Zm1.57,1.15c.5,1.03,.99,2.38,1.17,3.26l-.94,.32c-.16-.9-.63-2.25-1.12-3.29l.88-.29Zm6.54,4.72h4.41v1.08h-10.25v-1.08h4.66v-3.1h-3.49v-1.08h3.49v-2.67h1.17v2.67h3.62v1.08h-3.62v3.1Zm3.58-13.52c-.7,1.98-1.85,3.53-3.28,4.75,1.22,.85,2.68,1.48,4.32,1.84-.25,.23-.58,.68-.76,.99-1.69-.45-3.21-1.15-4.48-2.11-1.33,.94-2.84,1.64-4.41,2.14-.14-.31-.43-.74-.68-.99,1.48-.41,2.92-1.06,4.18-1.93-1.12-1.03-2.02-2.27-2.65-3.71l.72-.23h-1.89v-1.06h7.89l.23-.05,.81,.36Zm-6.64,.76c.56,1.26,1.39,2.36,2.43,3.26,1.08-.88,1.98-1.98,2.59-3.26h-5.02Z"/><path d="M250.96,681.2c.5,.58,2.3,3.02,2.72,3.66l-.81,.92c-.32-.68-1.24-2.14-1.91-3.19v7.58h-1.12v-7.6c-.68,1.98-1.66,4.05-2.56,5.26-.14-.32-.43-.85-.65-1.15,1.08-1.26,2.25-3.69,2.88-5.76h-2.59v-1.12h2.92v-5.98h1.12v5.98h2.97v1.12h-2.97v.29Zm-2.88-2.11c-.09-1.06-.52-2.7-1.01-3.94l.9-.22c.52,1.22,.94,2.84,1.06,3.91l-.96,.25Zm5.8-3.94c-.43,1.33-.99,3.01-1.48,4.02l-.79-.27c.43-1.06,.97-2.83,1.24-4.03l1.03,.29Zm7.06,9.92v5.1h-1.13v-4.88l-5.69,1.03-.2-1.12,5.89-1.06v-10.35h1.13v10.17l2.18-.4,.16,1.1-2.34,.41Zm-3.55-2.5c-.63-.67-1.93-1.57-3.01-2.14l.56-.83c1.08,.54,2.41,1.37,3.04,2.02l-.59,.95Zm.77-4.36c-.58-.68-1.8-1.66-2.83-2.3l.59-.81c1.06,.63,2.27,1.55,2.84,2.21l-.61,.9Z"/></g><line x1="362.85" y1="135.22" x2="384.85" y2="135.22" fill="none" stroke="#000" stroke-miterlimit="10" stroke-width="1.42"/><line x1="362.85" y1="179.22" x2="384.85" y2="179.22" fill="none" stroke="#000" stroke-miterlimit="10" stroke-width="1.42"/><line x1="362.85" y1="225.22" x2="384.85" y2="225.22" fill="none" stroke="#000" stroke-miterlimit="10" stroke-width="1.42"/><line x1="362.85" y1="270.22" x2="384.85" y2="270.22" fill="none" stroke="#000" stroke-miterlimit="10" stroke-width="1.42"/><line x1="362.85" y1="316.22" x2="384.85" y2="316.22" fill="none" stroke="#000" stroke-miterlimit="10" stroke-width="1.42"/><line x1="362.85" y1="362.22" x2="384.85" y2="362.22" fill="none" stroke="#000" stroke-miterlimit="10" stroke-width="1.42"/><line x1="362.85" y1="407.22" x2="384.85" y2="407.22" fill="none" stroke="#000" stroke-miterlimit="10" stroke-width="1.42"/><line x1="362.85" y1="453.22" x2="384.85" y2="453.22" fill="none" stroke="#000" stroke-miterlimit="10" stroke-width="1.42"/><line x1="362.85" y1="499.22" x2="384.85" y2="499.22" fill="none" stroke="#000" stroke-miterlimit="10" stroke-width="1.42"/><line x1="362.78" y1="545.72" x2="384.78" y2="545.72" fill="none" stroke="#000" stroke-miterlimit="10" stroke-width="1.42"/><line x1="362.78" y1="589.72" x2="384.78" y2="589.72" fill="none" stroke="#000" stroke-miterlimit="10" stroke-width="1.42"/><line x1="226.78" y1="589.72" x2="248.78" y2="589.72" fill="none" stroke="#000" stroke-miterlimit="10" stroke-width="1.42"/><line x1="362.78" y1="636.72" x2="384.78" y2="636.72" fill="none" stroke="#000" stroke-miterlimit="10" stroke-width="1.42"/><line x1="362.78" y1="680.72" x2="384.78" y2="680.72" fill="none" stroke="#000" stroke-miterlimit="10" stroke-width="1.42"/><line x1="226.78" y1="636.72" x2="248.78" y2="636.72" fill="none" stroke="#000" stroke-miterlimit="10" stroke-width="1.42"/><line x1="362.78" y1="727.72" x2="384.78" y2="727.72" fill="none" stroke="#000" stroke-miterlimit="10" stroke-width="1.42"/><line x1="226.78" y1="727.72" x2="248.78" y2="727.72" fill="none" stroke="#000" stroke-miterlimit="10" stroke-width="1.42"/><polygon points="610.99 1.57 475.2 1.57 475.2 53.8 610.99 53.8 746.78 53.8 746.78 1.57 610.99 1.57" fill="#242851" stroke="#d4d4d4" stroke-miterlimit="10" stroke-width="1.13"/><rect x="475.2" y="54.28" width="135.79" height="57.82" fill="#ddf4ff" stroke="#d4d4d4" stroke-miterlimit="10" stroke-width="1.13"/><rect x="610.99" y="54.28" width="135.79" height="57.82" fill="#ffdbdb" stroke="#d4d4d4" stroke-miterlimit="10" stroke-width="1.13"/><g><path d="M526.97,79.4c-1.04,.74-2.17,1.42-3.31,1.98-.19-.4-.67-1.06-1.04-1.44,3.25-1.48,6.34-4.22,7.77-6.54h1.82c2.01,2.79,5.17,5.11,8.13,6.27-.42,.44-.82,1.06-1.12,1.6-1.1-.53-2.26-1.2-3.36-1.98v1.48h-8.89v-1.37Zm-3.27,3.34h15.6v1.65h-8.7c-.63,1.27-1.33,2.7-2.01,3.91,2.11-.08,4.46-.17,6.78-.27-.7-.8-1.46-1.6-2.2-2.26l1.52-.82c1.73,1.46,3.53,3.48,4.41,4.88l-1.62,1.01c-.21-.36-.49-.78-.84-1.24-4.52,.23-9.35,.44-12.58,.57l-.23-1.73,2.81-.1c.63-1.18,1.31-2.7,1.77-3.97h-4.71v-1.65Zm11.95-3.61c-1.71-1.22-3.27-2.64-4.27-4.03-.91,1.33-2.36,2.75-4.05,4.03h8.32Z"/><path d="M550.62,85.5c-.44-.55-1.29-1.46-2.07-2.24v7.56h-1.75v-7.01c-.85,.84-1.77,1.56-2.66,2.13-.17-.46-.61-1.29-.87-1.63,2.17-1.23,4.35-3.44,5.64-5.81h-4.98v-1.62h2.87v-3.5h1.75v3.5h1.31l.3-.06,.99,.67c-.57,1.44-1.41,2.83-2.36,4.08,.89,.72,2.47,2.09,2.91,2.49l-1.08,1.44Zm10.6,3.04v1.75h-10.64v-1.75h4.6v-7.45h-3.84v-1.71h3.84v-5.85h1.8v5.85h3.84v1.71h-3.84v7.45h4.24Z"/></g><g><path d="M676.8,81.3c-1.1,.87-2.51,1.8-3.71,2.47,1.12,1.84,2.64,3.29,4.58,4.08-.42,.36-.97,1.04-1.23,1.54-3.5-1.69-5.55-5.24-6.69-9.69h-.04c-.51,.44-1.12,.85-1.75,1.22,3.59,3.13,3.51,7.9,1.67,9.23-.67,.53-1.22,.7-2.13,.7-.47,0-1.04-.02-1.63-.06-.04-.47-.19-1.18-.49-1.69,.68,.08,1.31,.09,1.77,.09,.49,0,.89-.04,1.25-.38,.57-.42,.85-1.56,.63-2.91-2.07,1.61-5.05,3.19-7.56,4.03-.23-.42-.59-1.08-.93-1.46,2.79-.72,6.14-2.39,8.02-4.08-.15-.32-.32-.65-.51-.97-1.62,1.12-4.05,2.34-5.95,3.02-.19-.42-.57-1.01-.89-1.37,1.96-.51,4.58-1.65,6.02-2.72-.21-.23-.44-.46-.7-.67-1.46,.7-3.08,1.27-4.58,1.69-.17-.32-.65-1.06-.93-1.37,2.17-.49,4.5-1.29,6.23-2.32h-3.5v-1.52h10.39v1.52h-2.79c.27,.95,.61,1.88,1.01,2.74,1.08-.7,2.28-1.6,3.06-2.32l1.39,1.18Zm-13.91-2.38h-1.75v-3.95h6.92v-1.6h1.82v1.6h7.03v3.95h-1.79v-2.34h-12.23v2.34Z"/><path d="M688.58,80.51s0,.53-.02,.76c-.21,5.98-.44,8.13-.97,8.81-.32,.47-.68,.61-1.2,.68-.46,.08-1.16,.08-1.92,.04-.02-.47-.19-1.18-.46-1.61,.68,.06,1.27,.06,1.56,.06,.25,.02,.4-.04,.57-.25,.34-.44,.55-2.17,.74-6.88h-2.13c-.25,3.46-.87,6.59-2.51,8.72-.29-.4-.84-.95-1.25-1.22,1.98-2.58,2.18-7.03,2.26-11.49h-2v-1.65h3.31v-3.08h1.71v3.08h2.72v1.27c.87-1.23,1.6-2.81,2.05-4.41l1.6,.38c-.21,.68-.44,1.37-.72,2.01h6.48v1.62h-7.26c-.49,.93-1.04,1.75-1.62,2.41-.29-.29-1.01-.76-1.39-.97,.19-.21,.4-.42,.57-.67h-3.78c-.02,.8-.04,1.6-.08,2.38h3.72Zm6.44,4.65c.72,1.94,2.05,3.53,3.88,4.29-.36,.29-.87,.93-1.1,1.35-1.63-.82-2.87-2.3-3.69-4.12-.66,1.48-1.94,2.94-4.31,4.12-.25-.34-.76-.91-1.14-1.2,2.83-1.25,3.88-2.93,4.24-4.45h-3.65v-1.6h3.86v-2.41h-1.27c-.36,.74-.76,1.42-1.18,1.96-.3-.27-1.01-.72-1.39-.91,.97-1.12,1.71-2.81,2.11-4.54l1.63,.38c-.15,.51-.3,1.03-.49,1.54h5.61v1.58h-3.34v2.41h3.67v1.6h-3.42Z"/></g><g><path d="M592.27,21.42c2.03,2.83,5.24,5.34,8.23,6.63-.44,.44-.86,1.04-1.16,1.58-1.01-.53-2.07-1.18-3.08-1.92v1.35h-9.46v-1.29c-.97,.72-2.01,1.37-3.06,1.94-.21-.42-.72-1.04-1.08-1.41,3.25-1.65,6.36-4.5,7.81-6.88h1.8Zm-6.55,9.78h11.7v7.64h-1.8v-.74h-8.17v.74h-1.73v-7.64Zm10.22-3.72c-1.79-1.33-3.42-2.87-4.48-4.33-.97,1.41-2.49,2.96-4.27,4.33h8.76Zm-8.49,5.32v3.72h8.17v-3.72h-8.17Z" fill="#fff"/><path d="M620.28,36.69c0,1.01-.23,1.54-.86,1.82-.63,.28-1.62,.34-3.21,.32-.08-.47-.36-1.27-.61-1.73,1.08,.06,2.19,.04,2.51,.04,.32-.02,.44-.13,.44-.46v-12.71h-12.25v14.88h-1.71V22.31h15.69v14.38Zm-3.1-9.5h-9.5v-1.5h9.5v1.5Zm-6.93,7.87v1.33h-1.63v-7.45h7.62v6.12h-5.98Zm0-4.63v3.15h4.35v-3.15h-4.35Z" fill="#fff"/><path d="M641.86,35.31h-4.46v3.51h-1.79v-3.51h-4.69c-.3,1.46-1.37,2.81-4.81,3.59-.21-.38-.72-1.03-1.04-1.33,2.68-.55,3.72-1.37,4.08-2.26h-4.41v-1.5h4.62v-1.41h1.65v1.41h4.6v-1.41h1.79v1.41h4.46v1.5Zm-8.3-7.41c-.97,2.51-3.42,4.24-7.52,5.11-.17-.36-.57-.89-.87-1.2,1.48-.27,2.74-.65,3.74-1.12-.46-.38-1.12-.84-1.73-1.22-.46,.25-.91,.47-1.37,.67-.21-.29-.7-.86-1.03-1.1,1.44-.51,2.89-1.27,3.91-2.22h-3.29v-1.37h15.94v1.37h-5.72v1.56c1.48-.32,2.98-.74,3.89-1.16l1.24,.99c-1.41,.59-3.38,1.03-5.13,1.33v.76c0,.51,.13,.61,.99,.61h2.83c.65,0,.76-.19,.84-1.35,.32,.25,.95,.46,1.41,.57-.19,1.69-.63,2.13-2.07,2.13h-3.15c-1.94,0-2.43-.42-2.43-1.96v-3.48h-3.51c-.21,.25-.42,.49-.65,.72h2.41l.29-.06,.99,.42Zm-4.29-3.97h-4.29v-1.41h4.29v-1.16h1.75v1.16h4.54v-1.16h1.77v1.16h4.43v1.41h-4.43v1.16h-1.77v-1.16h-4.54v1.16h-1.75v-1.16Zm-.7,4.69l-.29,.21c.63,.36,1.33,.82,1.8,1.2,.63-.42,1.12-.89,1.46-1.41h-2.98Z" fill="#fff"/></g><g><rect x="475.2" y="110.82" width="271.58" height="638.91" fill="#fff" stroke="#d4d4d4" stroke-miterlimit="10" stroke-width="1.13"/><line x1="475.2" y1="156.56" x2="746.78" y2="156.56" fill="#fff" stroke="#d4d4d4" stroke-miterlimit="10" stroke-width="1.13"/><line x1="475.2" y1="202.23" x2="746.78" y2="202.23" fill="#fff" stroke="#d4d4d4" stroke-miterlimit="10" stroke-width="1.13"/><line x1="475.2" y1="247.89" x2="746.78" y2="247.89" fill="#fff" stroke="#d4d4d4" stroke-miterlimit="10" stroke-width="1.13"/><line x1="475.2" y1="293.56" x2="746.78" y2="293.56" fill="#fff" stroke="#d4d4d4" stroke-miterlimit="10" stroke-width="1.13"/><line x1="475.2" y1="339.23" x2="746.78" y2="339.23" fill="#fff" stroke="#d4d4d4" stroke-miterlimit="10" stroke-width="1.13"/><line x1="475.2" y1="384.9" x2="746.78" y2="384.9" fill="#fff" stroke="#d4d4d4" stroke-miterlimit="10" stroke-width="1.13"/><line x1="475.2" y1="430.57" x2="746.78" y2="430.57" fill="#fff" stroke="#d4d4d4" stroke-miterlimit="10" stroke-width="1.13"/><line x1="475.2" y1="476.24" x2="746.78" y2="476.24" fill="#fff" stroke="#d4d4d4" stroke-miterlimit="10" stroke-width="1.13"/><line x1="475.2" y1="521.91" x2="746.78" y2="521.91" fill="#fff" stroke="#d4d4d4" stroke-miterlimit="10" stroke-width="1.13"/><line x1="475.2" y1="567.58" x2="746.78" y2="567.58" fill="#fff" stroke="#d4d4d4" stroke-miterlimit="10" stroke-width="1.13"/><line x1="475.2" y1="613.25" x2="746.78" y2="613.25" fill="#fff" stroke="#d4d4d4" stroke-miterlimit="10" stroke-width="1.13"/><line x1="475.2" y1="658.92" x2="746.78" y2="658.92" fill="#fff" stroke="#d4d4d4" stroke-miterlimit="10" stroke-width="1.13"/><line x1="475.2" y1="704.59" x2="746.78" y2="704.59" fill="#fff" stroke="#d4d4d4" stroke-miterlimit="10" stroke-width="1.13"/><line x1="610.99" y1="750.22" x2="610.99" y2="110.89" fill="#fff" stroke="#d4d4d4" stroke-miterlimit="10" stroke-width="1.13"/></g><circle cx="542.83" cy="135.22" r="11"/><circle cx="542.77" cy="179.22" r="11"/><circle cx="542.77" cy="224.22" r="11"/><circle cx="542.77" cy="269.22" r="11"/><circle cx="542.77" cy="316.22" r="11"/><circle cx="542.77" cy="362.22" r="11"/><circle cx="542.77" cy="408.22" r="11"/><circle cx="542.77" cy="454.22" r="11"/><circle cx="542.77" cy="498.22" r="11"/><circle cx="678.77" cy="590.22" r="11"/><circle cx="678.77" cy="636.22" r="11"/><circle cx="678.77" cy="727.22" r="11"/><g><path d="M520.99,677.75h-6.03v-.97h6.03v.97Zm-.47,11.38h-3.8v.86h-1.03v-6.03h4.83v5.17Zm-4.81-9.96h4.81v.97h-4.81v-.97Zm0,2.39h4.81v.97h-4.81v-.97Zm4.74-6.18h-4.65v-.97h4.65v.97Zm-3.73,9.56v3.19h2.77v-3.19h-2.77Zm8.52-2.05c-.18,3.85-.76,6.07-3.92,7.29-.13-.27-.45-.72-.7-.94,2.9-1.01,3.35-2.92,3.49-6.36h1.13Zm-2.74,.88h-1.1v-3.12h9.78v3.12h-1.13v-2.12h-7.54v2.12Zm3.1-7.31h-4.14v-1.03h4.14v-1.67h1.19v1.67h4.32v1.03h-4.32v1.78h3.8v1.03h-8.55v-1.03h3.57v-1.78Zm4.43,12.41c.43,0,.5-.29,.54-2.39,.23,.2,.7,.4,1.01,.49-.09,2.38-.4,2.99-1.42,2.99h-1.55c-1.15,0-1.44-.36-1.44-1.58v-5.46h1.12v5.46c0,.45,.07,.5,.47,.5h1.28Z"/><path d="M535.87,684.14c-.25,1.69-.7,3.42-1.3,4.56-.2-.14-.68-.36-.95-.45,.61-1.12,.99-2.7,1.21-4.3l1.04,.2Zm1.94-1.46v7.54h-1.06v-7.47c-1.06,.05-2.05,.13-2.88,.18l-.09-1.1,1.15-.05c.41-.5,.85-1.12,1.28-1.76-.58-.79-1.51-1.82-2.36-2.56l.61-.77c.18,.16,.38,.32,.56,.5,.61-1.03,1.28-2.39,1.66-3.4l1.04,.41c-.59,1.19-1.35,2.65-2.03,3.62,.43,.43,.83,.88,1.12,1.28,.72-1.15,1.39-2.32,1.87-3.29l1.03,.47c-1.03,1.75-2.41,3.89-3.62,5.47l2.83-.14c-.27-.58-.58-1.15-.88-1.66l.87-.34c.74,1.15,1.46,2.68,1.71,3.64l-.92,.43c-.07-.31-.2-.68-.36-1.08l-1.51,.09Zm1.57,1.15c.5,1.03,.99,2.38,1.17,3.26l-.94,.32c-.16-.9-.63-2.25-1.12-3.29l.88-.29Zm6.54,4.72h4.41v1.08h-10.25v-1.08h4.66v-3.1h-3.49v-1.08h3.49v-2.67h1.17v2.67h3.62v1.08h-3.62v3.1Zm3.58-13.52c-.7,1.98-1.85,3.53-3.28,4.75,1.22,.85,2.68,1.48,4.32,1.84-.25,.23-.58,.68-.76,.99-1.69-.45-3.21-1.15-4.48-2.11-1.33,.94-2.84,1.64-4.41,2.14-.14-.31-.43-.74-.68-.99,1.48-.41,2.92-1.06,4.18-1.93-1.12-1.03-2.02-2.27-2.65-3.71l.72-.23h-1.89v-1.06h7.89l.23-.05,.81,.36Zm-6.64,.76c.56,1.26,1.39,2.36,2.43,3.26,1.08-.88,1.98-1.98,2.59-3.26h-5.02Z"/><path d="M556.95,681.2c.5,.58,2.3,3.02,2.72,3.66l-.81,.92c-.32-.68-1.24-2.14-1.91-3.19v7.58h-1.12v-7.6c-.68,1.98-1.66,4.05-2.56,5.26-.14-.32-.43-.85-.65-1.15,1.08-1.26,2.25-3.69,2.88-5.76h-2.59v-1.12h2.92v-5.98h1.12v5.98h2.97v1.12h-2.97v.29Zm-2.88-2.11c-.09-1.06-.52-2.7-1.01-3.94l.9-.22c.52,1.22,.94,2.84,1.06,3.91l-.96,.25Zm5.8-3.94c-.43,1.33-.99,3.01-1.48,4.02l-.79-.27c.43-1.06,.97-2.83,1.24-4.03l1.03,.29Zm7.06,9.92v5.1h-1.13v-4.88l-5.69,1.03-.2-1.12,5.89-1.06v-10.35h1.13v10.17l2.18-.4,.16,1.1-2.34,.41Zm-3.55-2.5c-.63-.67-1.93-1.57-3.01-2.14l.56-.83c1.08,.54,2.41,1.37,3.04,2.02l-.59,.95Zm.77-4.36c-.58-.68-1.8-1.66-2.83-2.3l.59-.81c1.06,.63,2.27,1.55,2.84,2.21l-.61,.9Z"/></g><g><path d="M658.12,683.45v5.26h-1.13v-5.26h-2.43c-.07,2.14-.54,4.52-2.45,6.23-.2-.2-.61-.52-.88-.68,1.71-1.55,2.12-3.67,2.2-5.54h-2.05v-1.12h2.07v-3.55h1.13v3.55h2.41v-3.55h1.13v3.55h2.09v1.12h-2.09Zm8.03-3.8c-.72,2.5-1.75,4.74-3.02,6.63,.65,1.73,1.48,2.74,2.45,2.74,.52,0,.76-.95,.87-3.37,.27,.23,.7,.5,1.01,.61-.2,3.02-.65,3.92-1.96,3.92s-2.39-1.04-3.19-2.79c-.88,1.1-1.87,2.05-2.97,2.85-.2-.23-.61-.68-.86-.88,1.28-.86,2.41-1.94,3.37-3.21-.72-2.18-1.12-5.08-1.33-8.32h-9.09v-1.15h9.04c-.04-.94-.07-1.89-.07-2.86h1.22c0,.99,0,1.94,.04,2.86h3.89c-.63-.63-1.82-1.51-2.81-2.12l.77-.67c1.04,.58,2.32,1.48,2.95,2.12l-.74,.67h1.33v1.15h-5.35c.16,2.75,.5,5.17,1.01,7.04,.99-1.6,1.77-3.44,2.32-5.47l1.13,.25Z"/><path d="M684.98,690.21h-1.21v-.76h-7.62v.72h-1.17v-5.8c-1.48,.88-3.03,1.58-4.54,2.07-.13-.32-.45-.83-.68-1.04,2.29-.67,4.68-1.89,6.75-3.53-.79-.94-2.16-2.14-3.4-3.04-.72,.59-1.53,1.17-2.41,1.69-.16-.29-.58-.7-.85-.9,2.95-1.62,5.02-3.96,6.05-5.89l1.35,.25c-.31,.52-.67,1.06-1.06,1.6h5.28l.23-.07,.78,.41c-1.08,2.7-2.9,4.95-5.06,6.72h7.56v7.56Zm-9.65-13.54c-.41,.47-.86,.94-1.33,1.39,1.24,.86,2.65,2.05,3.47,3.01,1.4-1.28,2.59-2.75,3.4-4.39h-5.54Zm8.44,11.67v-4.57h-7.62v4.57h7.62Z"/><path d="M692.95,681.2c.5,.58,2.3,3.02,2.72,3.66l-.81,.92c-.32-.68-1.24-2.14-1.91-3.19v7.58h-1.12v-7.6c-.68,1.98-1.66,4.05-2.56,5.26-.14-.32-.43-.85-.65-1.15,1.08-1.26,2.25-3.69,2.88-5.76h-2.59v-1.12h2.92v-5.98h1.12v5.98h2.97v1.12h-2.97v.29Zm-2.88-2.11c-.09-1.06-.52-2.7-1.01-3.94l.9-.22c.52,1.22,.94,2.84,1.06,3.91l-.96,.25Zm5.8-3.94c-.43,1.33-.99,3.01-1.48,4.02l-.79-.27c.43-1.06,.97-2.83,1.24-4.03l1.03,.29Zm7.06,9.92v5.1h-1.13v-4.88l-5.69,1.03-.2-1.12,5.89-1.06v-10.35h1.13v10.17l2.18-.4,.16,1.1-2.34,.41Zm-3.55-2.5c-.63-.67-1.93-1.57-3.01-2.14l.56-.83c1.08,.54,2.41,1.37,3.04,2.02l-.59,.95Zm.77-4.36c-.58-.68-1.8-1.66-2.83-2.3l.59-.81c1.06,.63,2.27,1.55,2.84,2.21l-.61,.9Z"/></g><g><path d="M510.83,549.64c.88,1.39,2.48,2,4.64,2.07,1.93,.09,6.03,.04,8.12-.09-.13,.27-.31,.81-.38,1.17-1.94,.07-5.76,.11-7.72,.04-2.39-.09-4.05-.74-5.17-2.18-.94,.81-1.91,1.58-2.93,2.36l-.59-1.15c.85-.58,1.93-1.35,2.88-2.12v-4.75h-2.67v-1.13h3.82v5.8Zm-.5-8.71c-.58-.9-1.85-2.16-3.01-3.01l.85-.74c1.15,.83,2.47,2.04,3.04,2.94l-.88,.81Zm4.92-1.93c.79,.29,1.67,.65,2.54,1.03,.94-.41,1.93-.95,2.68-1.51h-7.72v-.97h8.89l.22-.05,.76,.56c-.97,.92-2.38,1.82-3.75,2.47,.56,.27,1.04,.52,1.46,.76h2.29v8.03c0,.61-.13,.92-.58,1.08-.45,.18-1.21,.2-2.43,.2-.05-.31-.2-.72-.34-1.01,.88,.04,1.66,.02,1.89,.02,.25-.02,.32-.09,.32-.29v-1.8h-3.31v2.97h-1.08v-2.97h-3.2v3.04h-1.12v-9.27h5.33c-1.12-.56-2.47-1.13-3.62-1.57l.77-.7Zm-1.37,3.22v1.67h3.2v-1.67h-3.2Zm3.2,4.34v-1.75h-3.2v1.75h3.2Zm4.39-4.34h-3.31v1.67h3.31v-1.67Zm0,4.34v-1.75h-3.31v1.75h3.31Z"/><path d="M531.51,540.31c-.47,1.1-1.04,2.18-1.67,3.19v9.65h-1.21v-7.94c-.67,.86-1.39,1.64-2.11,2.29-.18-.23-.63-.68-.9-.9,1.91-1.57,3.67-4.05,4.74-6.63l1.15,.34Zm10.46-.38h-15.72v-1.12h7.2v-2.05h1.21v2.05h7.31v1.12Zm-.49,2.45c-.81,2.97-2.2,5.28-3.98,7.04,1.42,1.22,3.12,2.18,4.99,2.74-.25,.25-.61,.74-.81,1.04-1.89-.65-3.58-1.69-5.02-3.03-1.58,1.35-3.4,2.32-5.35,3.01-.16-.29-.52-.79-.78-1.01,1.95-.61,3.76-1.53,5.31-2.81-1.04-1.1-1.93-2.38-2.61-3.78-.58,.68-1.17,1.3-1.82,1.82-.22-.25-.58-.63-.83-.83,2.07-1.64,3.82-4.3,4.68-6.61l1.17,.34c-.23,.58-.52,1.17-.83,1.76h4.9l.2-.05,.77,.36Zm-6.45,.7c-.34,.56-.7,1.1-1.1,1.62,.67,1.44,1.6,2.77,2.74,3.93,1.48-1.44,2.66-3.28,3.37-5.55h-5.01Zm2.23,3.47c-.4-.61-1.31-1.53-2.11-2.2l.76-.58c.79,.61,1.71,1.49,2.16,2.11l-.81,.67Z"/><path d="M548.95,544.2c.5,.58,2.3,3.02,2.72,3.66l-.81,.92c-.32-.68-1.24-2.14-1.91-3.19v7.58h-1.12v-7.6c-.68,1.98-1.66,4.05-2.56,5.26-.14-.32-.43-.85-.65-1.15,1.08-1.26,2.25-3.69,2.88-5.76h-2.59v-1.12h2.92v-5.98h1.12v5.98h2.97v1.12h-2.97v.29Zm-2.88-2.11c-.09-1.06-.52-2.7-1.01-3.94l.9-.22c.52,1.22,.94,2.84,1.06,3.91l-.96,.25Zm5.8-3.94c-.43,1.33-.99,3.01-1.48,4.02l-.79-.27c.43-1.06,.97-2.83,1.24-4.03l1.03,.29Zm7.06,9.92v5.1h-1.13v-4.88l-5.69,1.03-.2-1.12,5.89-1.06v-10.35h1.13v10.17l2.18-.4,.16,1.1-2.34,.41Zm-3.55-2.5c-.63-.67-1.93-1.57-3.01-2.14l.56-.83c1.08,.54,2.41,1.37,3.04,2.02l-.59,.95Zm.77-4.36c-.58-.68-1.8-1.66-2.83-2.3l.59-.81c1.06,.63,2.27,1.55,2.84,2.21l-.61,.9Z"/><path d="M569.42,549.42c-1.91,.65-3.96,1.35-5.53,1.85l-.29-1.21c.68-.18,1.53-.45,2.45-.76v-4.99h-2.07v-1.12h2.07v-4.05h-2.25v-1.13h5.51v1.13h-2.11v4.05h1.86v1.12h-1.86v4.63c.65-.22,1.35-.45,2.02-.67l.2,1.13Zm10.8,2.05v1.1h-11.63v-1.1h5.56v-2.59h-4.16v-1.1h4.16v-2.21h-3.93v-7.96h9.13v7.96h-4v2.21h4.27v1.1h-4.27v2.59h4.86Zm-8.9-10.39h2.9v-2.41h-2.9v2.41Zm0,3.44h2.9v-2.45h-2.9v2.45Zm6.88-5.85h-2.94v2.41h2.94v-2.41Zm0,3.4h-2.94v2.45h2.94v-2.45Z"/></g><g><path d="M637.66,544.35c.49,.65,1.98,2.85,2.32,3.42l-.83,.9c-.25-.61-.94-1.85-1.49-2.81v7.31h-1.1v-6.95c-.58,1.78-1.35,3.57-2.11,4.68-.13-.38-.45-.9-.65-1.22,.95-1.28,1.98-3.71,2.56-5.76h-2.38v-1.12h2.58v-5.98h1.1v5.98h2.03v1.12h-2.03v.43Zm-2.45-2.27c-.09-1.04-.52-2.68-1.01-3.91l.85-.22c.5,1.24,.94,2.84,1.06,3.89l-.9,.23Zm2.75-.2c.41-1.04,.94-2.81,1.19-4l1.01,.27c-.41,1.31-.99,2.97-1.44,3.98l-.76-.25Zm12.42,.7v.94h-10.01v-.94h4.3v-1.31h-3.35v-.88h3.35v-1.17h-3.82v-.94h3.82v-1.48h1.13v1.48h4.12v.94h-4.12v1.17h3.73v.88h-3.73v1.31h4.57Zm-1.22,9.31c0,.61-.13,.9-.56,1.08-.45,.18-1.19,.2-2.3,.18-.05-.31-.18-.7-.34-.99,.85,.02,1.57,.02,1.78,0,.23,0,.29-.07,.29-.27v-1.67h-5.35v2.93h-1.13v-8.5h7.62v7.24Zm-6.48-6.3v1.44h5.35v-1.44h-5.35Zm5.35,3.75v-1.42h-5.35v1.42h5.35Z"/><path d="M656.45,549.64c.88,1.37,2.52,2,4.68,2.07,1.96,.09,6.07,.04,8.17-.09-.14,.27-.34,.81-.38,1.17-1.98,.07-5.8,.11-7.78,.04-2.39-.09-4.05-.74-5.19-2.16-.81,.79-1.64,1.57-2.52,2.34l-.65-1.13c.76-.59,1.69-1.35,2.52-2.12v-4.77h-2.34v-1.13h3.47v5.8Zm-.41-8.73c-.52-.9-1.75-2.16-2.86-3.03l.92-.67c1.12,.83,2.36,2.07,2.92,2.95l-.97,.74Zm2.94,.88c-.54,.65-1.12,1.26-1.71,1.76-.18-.25-.63-.68-.92-.9,1.76-1.39,3.33-3.55,4.23-5.83l1.17,.32c-.36,.86-.77,1.69-1.26,2.49h3.03c.4-.85,.81-1.91,1.06-2.68l1.28,.29c-.36,.79-.77,1.66-1.17,2.39h3.96v1.03h-4.09v2.02h3.64v1.01h-3.64v2.04h3.6v1.03h-3.6v2.07h4.38v1.04h-9.96v-8.07Zm4.43-1.13h-3.28v2.02h3.28v-2.02Zm0,3.02h-3.28v2.04h3.28v-2.04Zm0,3.06h-3.28v2.07h3.28v-2.07Z"/><path d="M674.87,546.63c-.67-.56-1.98-1.35-3.06-1.82l.68-.83c1.08,.43,2.43,1.15,3.1,1.73l-.72,.92Zm1.39-7.47h-4.11v-1.08h4.11v-1.3h1.17v1.3h5.01v-1.3h1.17v1.3h4.25v1.08h-4.25v1.58h-1.17v-1.58h-5.01v1.58h-1.17v-1.58Zm-4.07,13.04c.99-1.1,2.43-2.95,3.57-4.61l.72,.85c-1.01,1.53-2.32,3.35-3.4,4.66l-.88-.9Zm1.55-11.65c1.01,.5,2.36,1.26,3.06,1.8l-.76,.9c-.65-.54-1.98-1.35-3.01-1.89l.7-.81Zm13.2,1.37c-.79,1.3-1.94,2.45-3.28,3.4,1.49,.83,3.19,1.49,4.77,1.91-.25,.23-.59,.7-.76,.99-1.66-.49-3.42-1.28-5.02-2.25-1.31,.79-2.72,1.44-4.12,1.91h7.98v5.31h-1.19v-.77h-5.82v.77h-1.15v-5.26c-.43,.16-.85,.29-1.28,.4-.13-.31-.38-.76-.61-.97,1.71-.4,3.55-1.1,5.19-2.02-.88-.61-1.69-1.28-2.38-1.96-.59,.63-1.3,1.24-2.05,1.8-.2-.25-.58-.58-.85-.72,1.87-1.28,3.31-2.97,4.09-4.32l1.17,.22c-.23,.38-.49,.74-.76,1.13h5.1l.2-.05,.77,.49Zm-7.44,6.93v2.59h5.82v-2.59h-5.82Zm.47-6.25c.7,.74,1.62,1.46,2.68,2.11,1.01-.67,1.89-1.42,2.56-2.27h-5.09l-.14,.16Z"/><path d="M697.78,543.28c1.73-1.06,3.76-2.02,4.77-2.59,.49-.29,.85-.5,1.22-.81l.68,1.15c-.38,.23-.79,.45-1.31,.72-1.22,.65-3.76,1.85-5.55,3.03-1.71,1.12-2.72,2.32-2.72,3.71,0,1.53,1.46,2.5,4.38,2.5,1.96,0,4.38-.23,5.74-.59l-.02,1.42c-1.31,.23-3.44,.45-5.67,.45-3.35,0-5.74-1.01-5.74-3.64,0-1.82,1.15-3.3,3.13-4.65-.83-1.48-1.78-3.6-2.63-5.58l1.28-.54c.7,2,1.64,3.98,2.43,5.42Z"/><path d="M714.65,539.54c-.09,2.05-.22,6.36-.22,9.13,0,2,1.26,2.72,3.03,2.72,3.37,0,5.22-1.87,6.52-3.73l.9,1.08c-1.24,1.71-3.53,3.94-7.45,3.94-2.52,0-4.3-1.03-4.3-3.94,0-2.72,.2-7.24,.2-9.2,0-.63-.04-1.22-.14-1.71h1.64c-.09,.58-.14,1.15-.16,1.71Z"/></g><line x1="531.77" y1="589.72" x2="553.77" y2="589.72" fill="none" stroke="#000" stroke-miterlimit="10" stroke-width="1.42"/><line x1="531.77" y1="636.72" x2="553.77" y2="636.72" fill="none" stroke="#000" stroke-miterlimit="10" stroke-width="1.42"/><line x1="531.77" y1="727.72" x2="553.77" y2="727.72" fill="none" stroke="#000" stroke-miterlimit="10" stroke-width="1.42"/><line x1="667.77" y1="135.72" x2="689.77" y2="135.72" fill="none" stroke="#000" stroke-miterlimit="10" stroke-width="1.42"/><line x1="667.77" y1="179.72" x2="689.77" y2="179.72" fill="none" stroke="#000" stroke-miterlimit="10" stroke-width="1.42"/><line x1="667.77" y1="225.72" x2="689.77" y2="225.72" fill="none" stroke="#000" stroke-miterlimit="10" stroke-width="1.42"/><line x1="667.77" y1="270.72" x2="689.77" y2="270.72" fill="none" stroke="#000" stroke-miterlimit="10" stroke-width="1.42"/><line x1="667.77" y1="316.72" x2="689.77" y2="316.72" fill="none" stroke="#000" stroke-miterlimit="10" stroke-width="1.42"/><line x1="667.77" y1="362.72" x2="689.77" y2="362.72" fill="none" stroke="#000" stroke-miterlimit="10" stroke-width="1.42"/><line x1="667.77" y1="407.72" x2="689.77" y2="407.72" fill="none" stroke="#000" stroke-miterlimit="10" stroke-width="1.42"/><line x1="667.77" y1="453.72" x2="689.77" y2="453.72" fill="none" stroke="#000" stroke-miterlimit="10" stroke-width="1.42"/><line x1="667.77" y1="499.72" x2="689.77" y2="499.72" fill="none" stroke="#000" stroke-miterlimit="10" stroke-width="1.42"/></g></svg>