<?xml version="1.0" encoding="UTF-8"?><svg xmlns="http://www.w3.org/2000/svg" viewBox="0 0 161.02 156.3"><defs><style>.d{fill:#c9a07a;}</style></defs><g id="a"/><g id="b"><g id="c"><g><path class="d" d="M83.2,94.32c-.07-.14-.14-.29-.23-.42-.03-.05-.16-.07-.16-.1,.01-.69-.72-1.17-.51-1.93,.09-.32-.01-.68,.04-1.01,.03-.21,.22-.39,.28-.59,.07-.22,.08-.47,.11-.7-.13,0-.28-.02-.39,.03-.19,.08-.34,.24-.53,.31-.34,.12-.7,.19-1.04,.3-.25,.08-1.86-.38-2.05-.59-.06-.07-.18-.13-.26-.12-.07,.02-.16,.14-.16,.23,0,.16-.01,.36,.08,.46,.73,.8,.46,1.79,.26,2.6-.13,.53-.34,1.35-1.12,1.58-.06,.64-.92,.24-1.06,.8-.01,.05-.23,.06-.35,.07-.53,.01-1.07,.03-1.6,.02-.26,0-.57,.05-.71-.31-.03-.08-.27-.07-.38-.14-.3-.19-.59-.39-.87-.61-.13-.1-.22-.24-.36-.34-.16-.29,.02-.74-.46-.9-.06-.02-.06-.23-.07-.35,0-.59-.03-1.18,0-1.76,.01-.18,.21-.35,.28-.54,.09-.25,.13-.52,.22-.88-.33,.06-.61,.03-.71,.15-.44,.51-1.02,.34-1.56,.38-.34,.02-.71,.07-1-.06-.45-.2-.96-.3-1.3-.74-.2-.26-.52-.43-.71-.7-.17-.25-.34-.5-.5-.76-.04-.07-.07-.17-.07-.25,0-.73,0-1.46,0-2.19,0-.09,.08-.18,.12-.27,.13-.25,.27-.5,.46-.85-.53,.02-.89-.15-1.09,.31-.03,.06-.18,.1-.28,.1-.66,.01-1.36,.16-1.96-.03-.44-.14-1-.24-1.33-.73-.17-.26-.5-.41-.82-.65-.1-.25,.1-.72-.41-.9-.08-.03-.07-.33-.07-.51,0-.46-.02-.93,0-1.39,.01-.26-.08-.6,.33-.68,.03,0,.08-.09,.07-.13-.09-.78,.74-.96,.99-1.51,.03-.07,.23-.04,.34-.09,.18-.09,.35-.2,.53-.3,.07-.04,.15-.11,.22-.11,.71,0,1.42-.01,2.13,0,.08,0,.22,.04,.23,.09,.14,.51,.54,.25,.91,.35-.68-1.52-.74-2.99,.02-4.49-.4,.01-.76-.14-.97,.31-.03,.07-.22,.1-.34,.11-.6,.01-1.25,.14-1.8-.02-.47-.14-1.02-.28-1.38-.74-.21-.26-.53-.43-.82-.66-.1-.29,.08-.73-.4-.9-.07-.02-.07-.26-.08-.4,0-.52-.04-1.03,0-1.55,.02-.2,.2-.39,.3-.59,.04-.07,.09-.15,.1-.23,.02-.56,.5-.77,.78-1.13,.27-.35,.69-.26,.88-.46,.71-.73,1.55-.28,2.32-.36,.15-.02,.32,.19,.5,.25,.26,.1,.53,.16,.86,.25,0-.46,.16-.83-.31-1.04-.08-.04-.1-.25-.1-.39-.01-.6-.02-1.21,0-1.81,0-.16,.15-.31,.24-.46,.03-.06,.14-.1,.13-.14-.08-.78,.75-.95,1-1.51,.02-.05,.19-.04,.29-.07,.22-.06,.52,.05,.59-.32,.01-.06,.24-.11,.37-.11,.6-.01,1.21-.03,1.81,0,.17,0,.31,.2,.49,.26,.29,.1,.59,.16,.88,.24,.13,.11,.25,.22,.38,.34,.22,.43,.43,.87,.65,1.3,0,.01,.03,.01,.05,.02,.3,.28,.3,2.38,.04,2.7-.15,.18-.19,.45-.26,.68-.01,.04,.08,.16,.14,.17,.07,.02,.21-.04,.22-.08,.04-.37,.34-.27,.56-.34,.31-.09,.6-.25,.92-.31,.24-.05,.57-.07,.75,.05,.46,.31,.92,.24,1.4,.26,0-1.01-.01-1.95,0-2.88,0-.19,.03-.51,.12-.54,.36-.12,.31-.38,.32-.64l.79-.75c1.04-.72,2.22-.61,3.39-.53,.27,.02,.57-.04,.7,.34,.03,.08,.26,.08,.46,.13-.05-.43,.17-.84-.35-1.06-.07-.03-.09-.26-.09-.4-.01-.5-.02-1,0-1.49,0-.25-.06-.56,.32-.64,.04,0,.06-.08,.08-.12,.46-1.11,.7-1.09,1.65-1.72,.8-.53,1.53-.26,2.28-.34,.17-.02,.36,.18,.54,.28,.06,.03,.1,.09,.16,.11,.96,.34,1.05,.65,1.68,1.61,.47,.72,.34,1.39,.36,2.09,0,.25-.23,.5-.31,.76-.09,.27-.12,.56-.19,.92,.43-.08,.84,.18,1.04-.34,.02-.07,.21-.1,.32-.1,.62-.01,1.25-.03,1.87,0,.16,0,.32,.17,.48,.27,.07,.04,.14,.11,.21,.12,.54,.03,.77,.45,1.1,.78,.87,.86,.95,1.91,.86,3.02-.02,.28,.02,.57-.31,.78-.16,.1-.14,.47-.21,.8,.43-.06,.86,.2,1.05-.34,.85,0,1.71-.02,2.56,.05,.07,0,.36,.2,.56,.3,.28,.14,.59,.31,.78,.55,.32,.4,.57,.85,.82,1.3,.07,.12,.08,.27,.08,.41,.01,.53,.03,1.07,0,1.6-.01,.19-.19,.37-.29,.55-.05,.09-.11,.18-.12,.28-.05,.52-.58,.73-.75,1.08-.26,.55-.97,.2-1.11,.76,0,.04-.12,.06-.19,.06-.71,0-1.42,.04-2.13-.01-.27-.02-.51-.28-.78-.37-.1-.03-.25,.09-.38,.15,.06,.11,.13,.22,.19,.33,.07,.12,.21,.25,.21,.37,.02,.94,.01,1.88,0,2.81,0,.12-.16,.23-.23,.35-.06,.09-.16,.21-.14,.29,.02,.07,.19,.17,.27,.15,.23-.04,.56,.12,.65-.28,.02-.07,.23-.13,.36-.13,.6-.02,1.21-.03,1.81,0,.17,0,.33,.17,.49,.27,.06,.03,.11,.12,.16,.11,.76-.05,1.15,.6,1.46,1.03,.69,.94,.84,2.15,.46,3.22-.19,.53-.51,1.14-1.09,1.62-.94,.78-1.9,.9-2.99,.84-.28-.02-.56,.04-.77-.32-.09-.15-.5-.12-.9-.2,.09,.34,.08,.59,.2,.75,.67,.88,.36,1.87,.25,2.79-.06,.48-.48,.95-.83,1.34-.24,.27-.66,.36-.94,.6-.66,.59-1.45,.39-2.19,.41-.38,0-.76,.03-1.06-.33-.11-.14-.41-.12-.67-.19,0,.42-.11,.76,.31,.95,.05,.02,.1,.11,.1,.17,0,.76,.2,1.6-.05,2.27-.21,.55-.54,1.14-1.1,1.62-.94,.79-1.9,.9-2.99,.84-.28-.02-.62,.07-.76-.32-.02-.06-.19-.08-.29-.11-.23-.07-.56,.02-.59-.39,0-.05-.28-.08-.43-.12l.02,.02Zm.35-31.61c.05,.22,.05,.43,.12,.46,.41,.17,.37,.53,.38,.85,0,.76-.03,1.52-.02,2.28,0,.15,.13,.44,.19,.43,.37-.02,.73-.1,1.09-.17,.23-.05,.46-.22,.67-.19,.53,.09,1.04,.26,1.55,.4,.05,.01,.07,.11,.12,.15,.09,.08,.19,.14,.28,.21,.04-.1,.14-.23,.11-.31-.11-.26-.35-.5-.37-.76-.05-.74-.03-1.49-.02-2.23,0-.07,.05-.19,.11-.22,.46-.2,.27-.57,.29-.92-.83-.15-1.36,.74-2.19,.49-.71-.21-1.46-.32-2.3-.49Zm-15.88,5.29l-.15,.19c-.02,.76,.76,1.33,.53,2.15-.2,.72-.31,1.46-.47,2.22,.17,0,.38,.02,.4-.02,.18-.54,.65-.4,1.02-.42,.64-.03,1.27,0,1.91,0,.22,0,.44,0,.74,0-.07-.44,0-.9-.2-1.18-.63-.87,.4-1.53,.21-2.32,0-.01,.06-.04,.08-.06,.09-.1,.18-.2,.27-.31-.16-.04-.31-.11-.47-.1-.12,0-.26,.09-.34,.18-.28,.29-2.37,.35-2.68,.11-.25-.19-.56-.29-.84-.43Zm25.74,.08c-.46-.12-.75,.3-1.02,.33-.88,.09-1.83,.48-2.65-.23-.11-.1-.34-.08-.51-.08-.07,0-.17,.08-.19,.14-.02,.06,.05,.15,.09,.22,.1,.2,.22,.4,.3,.61,.09,.24,.08,.54,.2,.75,.22,.36,.18,.65,0,1.02-.17,.37-.19,.82-.3,1.3,.6-.05,1.05-.16,1.48-.12,.77,.08,1.64-.31,2.28,.47,.04,.05,.19,0,.33,0-.06-.39,.17-.81-.35-.97l.02-2.51c.49-.19,.29-.59,.33-.94Zm-21.48,15.05c-.13-.34-.22-.62-.34-.89-.05-.12-.17-.24-.18-.36-.04-.56-.09-1.12-.05-1.67,.02-.3,.22-.59,.38-.97-.32,0-.45,0-.59,0-.82,0-1.63,.04-2.45,0-.22,0-.41-.24-.64-.31-.13-.04-.31,.02-.46,.04,.07,.24,.13,.48,.21,.72,.04,.12,.2,.21,.2,.32,.02,.67,.02,1.35,.01,2.02,0,.09-.05,.24-.12,.27-.44,.21-.26,.59-.31,1.01,.31-.06,.7-.04,.78-.18,.2-.36,.49-.31,.77-.31,.57-.01,1.14,0,1.71,.02,.13,0,.31,.08,.38,.18,.25,.37,.5,.22,.7,.13Zm17.49-3.9c.15,.68,.44,1.33,.4,1.96-.04,.64-.41,1.26-.68,2.03,.25-.09,.47-.16,.67-.24,.13-.05,.26-.18,.39-.19,.69-.02,1.39-.02,2.08,0,.11,0,.22,.08,.32,.13,.25,.13,.49,.26,.78,.41,.09-.72,.08-.73-.25-1.06-.07-.07-.11-.22-.12-.33-.01-.66-.01-1.32,0-1.97,0-.11,.08-.21,.13-.32,.1-.22,.21-.43,.28-.65,.02-.06-.08-.18-.15-.22-.06-.03-.22,.01-.24,.05-.13,.49-.56,.38-.87,.39-.88,.03-1.77,.01-2.74,.02Zm-5.47,5.31c.18,.6,.33,1.05,.44,1.51,.04,.18,.03,.39,0,.57-.06,.3-.17,.59-.27,.88-.08,.24,.07,.6-.35,.68-.02,0,0,.23,0,.35,.26-.04,.53-.06,.78-.14,.16-.05,.29-.24,.43-.25,.64-.03,1.28-.02,1.92,0,.11,0,.3,.04,.32,.1,.19,.49,.56,.27,.95,.3-.07-.29-.05-.67-.18-.73-.38-.19-.3-.49-.31-.77-.02-.51-.02-1.03,0-1.54,0-.25-.07-.53,.29-.66,.08-.03,.04-.38,.05-.52-.7,.23-1.3,.55-1.91,.58-.64,.04-1.29-.21-2.15-.36Zm-10.81-.15c.09,.64,.16,1.36,.31,2.06,.17,.79-.44,1.38-.52,2.1,.59,.07,.59,.06,.99-.3,.06-.05,.16-.07,.24-.07,.69,0,1.39,0,2.08,0,.1,0,.26,.04,.27,.1,.16,.5,.54,.23,.89,.31-.02-.17-.02-.37-.06-.38-.47-.08-.31-.47-.39-.75-.07-.26-.2-.51-.26-.78-.04-.21-.11-.52,0-.65,.36-.44,.22-.92,.28-1.47-.7,.14-1.34,.39-1.96,.36-.63-.03-1.25-.34-1.88-.54Zm5.31-16.16c.12,.36,.21,.64,.3,.91,.09,.27,.22,.54,.27,.82,.04,.23,.04,.48,0,.72-.06,.33-.19,.65-.25,.99-.02,.11,.08,.25,.12,.37,.1-.07,.2-.14,.31-.19,.12-.06,.24-.15,.36-.15,.5-.03,.99-.05,1.49-.03,.31,.01,.7-.11,.87,.31,.11-.06,.32-.13,.31-.17-.04-.32-.14-.64-.18-.97-.04-.31-.09-.63-.06-.94,.04-.32,.2-.62,.27-.94,.08-.36-.02-.54-.45-.45-.31,.07-.64,.09-.95,.08-.79-.04-1.63,.18-2.33-.4-.02-.02-.11,.04-.1,.04Zm-1.68,9.17c-.1-.53-.2-.9-.22-1.28-.03-.46-.01-.93,.02-1.39,.01-.15,.13-.29,.2-.43,.04-.07,.13-.18,.11-.21-.05-.07-.16-.16-.23-.15-.36,.05-.71,.14-1.07,.19-.25,.04-.52,.09-.76,.05-.32-.05-.62-.19-.93-.27-.41-.11-.55,0-.51,.48,.06,.86,.01,1.74,.01,2.61,0,.14,0,.27,0,.51,.63-.17,1.2-.42,1.76-.44,.55-.01,1.11,.21,1.62,.33Zm10.83-3.59c-.42,.09-.84,.1-1.19,.26-.39,.19-.68,.19-1.07,0-.34-.16-.77-.13-1.21-.18,.6,1.23,.59,2.31,0,3.52,.64-.14,1.21-.37,1.77-.36,.57,.01,1.13,.26,1.71,.41v-3.65Zm-5.37,5.6c-.51,.1-.9,.19-1.29,.23-.35,.03-.71,.04-1.06,0-.25-.03-.49-.2-.74-.25-.1-.02-.33,.09-.32,.12,.03,.23,.06,.48,.18,.66,.22,.34,.23,1.32,.02,1.68-.16,.27-.22,.6-.32,.9l.19,.18c.45-.15,.89-.32,1.35-.43,.2-.05,.49-.04,.65,.07,.45,.31,.93,.2,1.48,.24-.16-.64-.4-1.19-.41-1.75-.01-.56,.2-1.13,.3-1.63Z"/><path class="d" d="M72.46,62.32c-.13-.11-.25-.22-.38-.34-.08-.4,.15-.9-.39-1.16-.08-.04-.08-.26-.08-.4-.01-.5-.04-1,0-1.49,.02-.21,.19-.4,.29-.59,.04-.07,.1-.15,.1-.23,.02-.75,.67-1.07,1.11-1.47,.35-.31,.92-.43,1.41-.5,.52-.08,1.2-.2,1.56,.06,.41,.29,1.08,.11,1.27,.72,.82,.2,.75,1.09,1.22,1.58,.34,.34,.05,2.07-.21,2.5-.16,.27-.14,.64-.2,.97l-.79,.75c-.44,0-.79,.27-1.17,.39-1.07,.35-2.14,.08-3.14-.43-.04-.02-.05-.1-.09-.12-.17-.08-.34-.15-.51-.23Z"/><path class="d" d="M83.19,94.3c.12,.29,.22,.6,.35,.88,.39,.82,.8,1.67,.5,2.59-.2,.62-.58,1.18-.88,1.76-.02,.04-.07,.07-.12,.09-.45,.2-.97,.32-1.33,.63-.46,.39-.95,.32-1.44,.3-.62-.03-1.15-.32-1.61-.74-.07-.06-.21-.06-.28-.12-.17-.14-.37-.28-.49-.46-.28-.43-.52-.89-.8-1.32-.17-.26-.08-1.63,.15-1.86,.05-.05,.14-.11,.13-.15-.09-.57,.52-.82,.58-1.32,0-.05,.03-.12,.06-.14,.38-.19,.77-.36,1.16-.54,.08-.04,.22,0,.25-.06,.47-.64,1.15-.38,1.71-.32,.44,.05,.84,.44,1.28,.63,.24,.1,.52,.11,.79,.16l-.02-.02Z"/><path class="d" d="M101.85,72.07c.36,.08,.81-.16,1.01,.35,0,.02,.07,.04,.1,.04,.56-.14,.8,.52,1.3,.53,.07,0,.17,.12,.2,.21,.2,.44,.3,.97,.61,1.32,.45,.51,.39,1.06,.29,1.58-.1,.48-.42,.91-.64,1.37-.06,.12-.1,.27-.18,.37-.13,.16-.28,.33-.46,.43-.43,.26-.89,.46-1.3,.73-.32,.21-1.51,.21-1.8-.04-.08-.07-.16-.12-.25-.17-.41-.19-.83-.37-1.24-.58-.09-.05-.17-.18-.21-.29-.14-.43-.69-.67-.56-1.22-.59-.39-.35-1-.36-1.53,0-.15,.15-.31,.23-.46,.03-.06,.13-.11,.12-.15-.11-.59,.47-.87,.6-1.34,.02-.06,.06-.15,.11-.17,.41-.2,.83-.37,1.24-.57,.17-.08,.29-.29,.46-.34,.23-.07,.49-.05,.73-.06Z"/><path class="d" d="M93,91.79c.06-.5-.1-.92,.37-1.11,.04-.01,.04-.13,.04-.2,.06-.76,.76-1.05,1.11-1.57,.35-.51,1-.16,1.26-.72,.12-.25,1.43-.05,1.66,.19,.05,.05,.1,.12,.16,.12,.85,.02,1.26,.64,1.71,1.22,.52,.68,.93,1.43,.74,2.28-.16,.72-.4,1.46-1.06,1.96-.25,.19-.43,.46-.65,.69-.02,.03-.05,.07-.07,.07-.75,.07-1.41,.78-2.19,.42-.46-.21-1.02-.24-1.39-.69-.31-.38-.73-.66-1.11-.99-.04-.03-.1-.06-.11-.1-.18-.57-.35-1.14-.48-1.58Z"/><path class="d" d="M55.6,75.73c.08-.35-.15-.78,.35-.97,.04-.02,.05-.16,.06-.25,.07-.74,.62-1.12,1.14-1.5,.39-.29,.82-.53,1.24-.78,.31-.18,1.39,0,1.67,.24,.05,.04,.12,.09,.18,.09,.82,.03,1.23,.63,1.66,1.2,.45,.6,.84,1.25,.76,2.02-.09,.87-.38,1.67-1.11,2.25-.24,.19-.43,.47-.64,.7-.01,.01-.03,.03-.04,.03-.78,.1-1.47,.79-2.29,.43-.81-.35-1.56-.76-2.2-1.47-.38-.42-.12-1.07-.72-1.31-.1-.04-.05-.47-.07-.7Z"/><path class="d" d="M60.96,91.82c.09-.43-.13-.86,.37-1.05,.04-.01,.05-.13,.05-.2,.05-.78,.78-1.07,1.13-1.6,.34-.52,1-.15,1.27-.71,.12-.26,1.36-.04,1.64,.22,.05,.04,.12,.09,.18,.09,.84,.03,1.23,.65,1.68,1.23,.49,.63,.82,1.31,.76,2.11-.02,.25-.19,.49-.28,.73-.04,.11-.05,.24-.11,.35-.17,.33-.31,.67-.54,.96-.23,.29-.54,.52-.81,.78-.01,.01-.03,.03-.04,.03-.79,.12-1.52,.81-2.34,.42-.78-.37-1.61-.68-2.13-1.52-.39-.62-.66-1.24-.82-1.85Z"/><path class="d" d="M76.84,54.16c.13-.23,.29-.5,.44-.78,.03-.06,.05-.14,.04-.2-.05-.56,.39-.82,.71-1.16,.22-.23,.43-.45,.65-.68,.02-.03,.04-.08,.06-.08,.77-.05,1.51-.86,2.23-.4,.44,.28,1.05,.1,1.37,.69,.23,.41,.73,.67,1.11,1,.01,.01,.04,.02,.04,.04,.08,.78,.84,1.49,.42,2.27-.32,.6-.36,1.35-1.09,1.81-.44,.28-.8,.64-1.33,.85-.39,.16-.75,.31-1.16,.31-.38,0-1.4-.48-1.72-.77-.37-.33-.77-.65-1.15-.97-.03-.02-.07-.04-.07-.07-.17-.57-.35-1.15-.56-1.86Z"/><path class="d" d="M91.21,93.31c.36,.19,.64,.35,.93,.5,.06,.03,.13,.06,.2,.05,.58-.02,.88,.35,1.19,.76,.18,.24,.45,.41,.68,.61,.03,.02,.08,.04,.08,.07,.03,.75,.8,1.42,.41,2.18-.32,.62-.31,1.46-1.11,1.83-.24,.11-.39,.43-.58,.66-.02,.03-.04,.08-.06,.08-.78,.06-1.49,.83-2.29,.41-.6-.32-1.4-.36-1.77-1.11-.12-.24-.45-.38-.68-.57-.01-.01-.03-.02-.03-.04-.05-.79-.83-1.52-.41-2.31,.31-.59,.41-1.3,1.05-1.75,.45-.32,.75-.8,1.41-.84,.32-.02,.62-.32,.99-.52Z"/><path class="d" d="M98.29,86.17c.12-.21,.28-.49,.43-.77,.03-.06,.04-.14,.04-.21-.04-.57,.38-.85,.73-1.18,.23-.21,.42-.46,.63-.69,.02-.03,.04-.08,.06-.08,.76,.02,1.43-.84,2.15-.4,.46,.27,1,.26,1.44,.67,.37,.34,.64,.83,1.12,1.06,.02,0,.04,.02,.04,.03,.01,.76,.81,1.43,.4,2.18-.33,.62-.29,1.47-1.11,1.83-.25,.11-.4,.46-.59,.7-.01,.01-.03,.03-.04,.03-.76,.01-1.44,.82-2.18,.4-.45-.25-1.04-.15-1.39-.7-.26-.41-.77-.66-1.17-.99-.01-.01-.03-.03-.03-.04-.17-.56-.33-1.13-.54-1.84Z"/><path class="d" d="M69.99,93.45c.2,.1,.48,.24,.75,.38,.06,.03,.13,.08,.19,.07,.6-.03,.92,.33,1.23,.77,.17,.24,.44,.4,.67,.6,.03,.02,.08,.04,.08,.06,.02,.76,.81,1.42,.41,2.18-.32,.62-.29,1.46-1.1,1.83-.25,.11-.4,.46-.59,.7-.01,.01-.03,.03-.04,.03-.78,.06-1.49,.83-2.28,.41-.6-.32-1.4-.35-1.77-1.1-.12-.24-.44-.38-.67-.57-.03-.02-.07-.05-.07-.07,.07-.72-.7-1.26-.44-2.02,.06-.18,.17-.35,.26-.52,.04-.07,.11-.14,.11-.22,.02-.84,.69-1.2,1.23-1.66,.56-.48,1.2-.69,2.02-.87Z"/><path class="d" d="M96.63,56.03c.19,.1,.45,.23,.71,.36,.09,.04,.19,.09,.29,.09,.55,0,.87,.31,1.14,.74,.1,.17,.26,.36,.43,.42,.63,.22,.22,.97,.71,1.3,.26,.18,.09,1.21-.13,1.49-.07,.09-.14,.21-.15,.32-.03,.54-.34,.86-.77,1.15-.24,.16-.4,.46-.6,.7-.02,.03-.05,.06-.07,.07-.66,.15-1.35,.46-1.99,.4-.5-.05-1.12-.2-1.53-.69-.32-.38-.77-.66-1.16-.99-.03-.02-.07-.05-.07-.07,.05-.74-.77-1.35-.41-2.06,.24-.48,.17-1.1,.71-1.46,.22-.15,.3-.5,.51-.68,.28-.24,.62-.41,.95-.6,.18-.11,.36-.22,.55-.28,.25-.08,.51-.12,.9-.2Z"/><path class="d" d="M59.17,82.79c.21,.12,.37,.22,.54,.31,.11,.06,.22,.14,.33,.14,.64-.01,1.01,.33,1.46,.78,.46,.47,.79,.89,.86,1.53,.01,.13,.16,.24,.17,.37,.03,.31,.06,.63,.02,.94-.02,.2-.23,.38-.24,.57-.02,.58-.31,.95-.79,1.25-.25,.16-.4,.46-.59,.7-.02,.03-.05,.06-.08,.07-.55,.15-1.09,.32-1.65,.43-.15,.03-.34-.11-.52-.16-.23-.07-.47-.18-.7-.2-.51-.03-.76-.42-1.08-.71-.23-.21-.45-.43-.68-.64-.04-.03-.11-.05-.12-.09-.15-.54-.33-1.07-.43-1.62-.03-.17,.15-.38,.22-.57,.04-.11,.12-.23,.11-.34-.04-.67,.39-1.02,.79-1.48,.46-.53,.92-.82,1.61-.85,.24-.01,.47-.26,.76-.43Z"/><path class="d" d="M64.47,56.08c.19,.11,.34,.2,.5,.28,.14,.07,.28,.18,.42,.17,.62-.03,1.01,.28,1.34,.78,.16,.24,.44,.41,.66,.61,.03,.02,.09,.04,.09,.05-.17,.82,.96,1.53,.2,2.41-.08,.1-.1,.27-.11,.4-.02,.54-.31,.88-.74,1.17-.25,.16-.41,.45-.62,.68-.03,.04-.06,.09-.11,.1-.5,.15-.99,.33-1.49,.43-.21,.04-.45-.1-.67-.17-.17-.05-.33-.17-.5-.17-.61,0-.96-.36-1.3-.79-.18-.23-.44-.39-.67-.58-.03-.02-.08-.03-.08-.06-.16-.62-.54-1.31-.4-1.86,.13-.5,.12-1.15,.41-1.48,.33-.37,.68-.8,1.1-1.14,.39-.31,.76-.27,1.13-.4,.27-.09,.52-.27,.81-.44Z"/><path class="d" d="M73.35,54.38c-.69,.39-.25,1.21-.77,1.79-.35,.4-.86,.66-1.12,1.16-.04,.08-.26,.06-.4,.1-.32,.1-.64,.23-.97,.31-.2,.05-.42,.05-.62,0-.33-.08-.66-.18-.96-.32-.33-.15-.67-.32-.95-.55-.3-.24-.54-.55-.79-.84-.07-.08-.07-.23-.09-.34-.07-.38,.07-.81-.34-1.11-.08-.06,.02-.42,.07-.62,.05-.17,.22-.32,.22-.48-.04-.66,.32-1.05,.79-1.43,.25-.2,.43-.49,.66-.72,.06-.06,.19-.07,.29-.09,.39-.08,.84,.07,1.15-.36,.06-.08,.41,.03,.62,.09,.15,.04,.29,.2,.44,.2,.67-.02,1.04,.36,1.51,.79,.53,.48,.79,.96,.87,1.63,.03,.23,.22,.45,.39,.78Z"/><path class="d" d="M91.16,57.79c-.13-.04-.26-.07-.39-.12-.24-.09-.47-.24-.71-.26-.55-.03-.85-.39-1.17-.75-.21-.23-.45-.42-.68-.63-.03-.02-.08-.03-.09-.06-.16-.6-.54-1.26-.4-1.79,.13-.5,.25-1,.37-1.51,.05-.21,.25-.42,.43-.55,.56-.4,.98-.93,1.8-1.05,.59-.09,1.04-.17,1.64,.02,.59,.18,1.14,.24,1.48,.85,.15,.26,.47,.41,.69,.64,.06,.06,.06,.19,.1,.29,.12,.37,.28,.74,.36,1.12,.04,.21,0,.45-.06,.66-.06,.26-.23,.51-.25,.77-.05,.52-.35,.83-.74,1.12-.24,.18-.42,.43-.63,.66-.03,.04-.05,.11-.09,.12-.55,.13-1.1,.26-1.65,.38v.09Z"/><path class="d" d="M62.62,65.03c-.13,.34-.28,.65-.37,.98-.08,.32,0,.63-.39,.89-.42,.28-.69,.76-1.05,1.14-.07,.07-.23,.05-.35,.09-.34,.11-.67,.24-1.02,.33-.2,.05-.43,.06-.62,.02-.36-.09-.73-.2-1.06-.36-.32-.16-.61-.38-.88-.61-.24-.21-.44-.47-.67-.7-.03-.04-.12-.04-.13-.08-.16-.6-.55-1.29-.39-1.79,.17-.51,.14-1.07,.39-1.5,.24-.44,.81-.68,1.11-1.11,.34-.48,.79-.37,1.23-.45,.1-.02,.18-.16,.28-.18,.24-.06,.63-.18,.7-.09,.25,.34,.58,.3,.9,.3,.51,.01,.78,.36,1.06,.7,.17,.2,.3,.5,.52,.59,.36,.15,.29,.43,.35,.69,.07,.26,.19,.51,.28,.76,.05,.13,.07,.27,.1,.39Z"/><path class="d" d="M101.77,61.39c.2,.05,.32,.08,.43,.12,.26,.1,.51,.28,.78,.29,.54,.02,.82,.36,1.12,.72,.17,.2,.31,.5,.53,.59,.37,.15,.27,.44,.34,.69,.07,.25,.21,.47,.25,.72,.04,.27,.03,.56-.01,.83-.03,.2-.21,.38-.22,.57-.02,.6-.28,1-.8,1.3-.25,.15-.4,.46-.59,.7-.02,.03-.05,.06-.08,.07-.58,.15-1.26,.55-1.73,.38-.58-.21-1.24-.16-1.81-.66-.39-.34-.63-.88-1.17-1.06-.05-.02-.04-.19-.06-.3-.08-.38,.07-.8-.35-1.11-.09-.06,.06-.49,.13-.74,.03-.12,.17-.24,.16-.35-.04-.68,.37-1.07,.8-1.54,.47-.52,.92-.81,1.61-.84,.24-.01,.47-.26,.67-.38Z"/><path class="d" d="M82.79,102.31c0-.37,.01-.75,0-1.12-.03-.5,.43-.71,.65-1.06,.18-.29,.5-.5,.78-.71,.13-.1,.31-.16,.47-.17,.82-.02,1.64-.08,2.45,.02,.36,.04,.69,.4,1,.66,.24,.2,.42,.46,.62,.7,.09,.11,.22,.24,.22,.37,.02,.88,.06,1.77,0,2.65-.03,.38-.32,.72-.68,.94-.2,.12-.4,.33-.54,.48-.65,.69-1.45,.35-2.17,.46-.22,.03-.46-.06-.69-.06-.57,0-.9-.37-1.24-.75-.21-.23-.45-.43-.66-.67-.09-.11-.17-.26-.18-.4-.04-.44-.05-.89-.07-1.33h.05Z"/><path class="d" d="M75.22,99.21c.35,.02,.71,.04,1.06,.04,.55,0,.87,.36,1.18,.74,.14,.18,.28,.37,.46,.52,.71,.58,.38,1.39,.49,2.1,.05,.31-.05,.63-.08,.95-.05,.48-.36,.78-.72,1.05-.2,.14-.4,.34-.53,.48-.65,.69-1.45,.35-2.17,.46-.24,.03-.49-.06-.74-.06-.56,0-.85-.4-1.19-.74-.22-.22-.46-.43-.65-.67-.1-.12-.19-.3-.19-.45-.02-.83-.07-1.67,.01-2.5,.04-.34,.35-.68,.59-.97,.22-.27,.51-.49,.8-.7,.14-.1,.34-.17,.52-.18,.39-.03,.78,0,1.17-.01v-.05Z"/><path class="d" d="M104.11,80.91c0-.37-.08-.77,.02-1.11,.11-.38,.33-.75,.58-1.06,.23-.28,.54-.51,.85-.72,.15-.1,.35-.17,.53-.18,.73-.02,1.45-.01,2.18-.01,.55,0,.89,.34,1.19,.74,.14,.18,.28,.38,.45,.52,.69,.55,.37,1.33,.47,2.01,.05,.33-.03,.67-.06,1.01-.04,.49-.42,.75-.71,1.07-.18,.2-.47,.35-.58,.5-.29,.41-.66,.37-1.03,.38-.64,.02-1.29,.08-1.9-.04-.4-.08-.76-.43-1.11-.7-.18-.13-.33-.33-.44-.52-.48-.85-.48-.85-.44-1.88Z"/><path class="d" d="M107.2,67.15c.28,0,.57,0,.85,0,.61,0,1.04,.28,1.4,.77,.13,.18,.32,.37,.47,.5,.57,.49,.35,1.12,.42,1.68,.06,.45,.02,.93-.07,1.38-.08,.42-.35,.75-.7,1.03-.2,.16-.47,.34-.59,.49-.31,.42-.7,.37-1.09,.38-.55,.02-1.1,0-1.65,0-.58,0-.95-.34-1.31-.76-.15-.17-.33-.4-.46-.5-.56-.43-.38-.99-.42-1.51-.04-.49-.06-1.01,.04-1.48,.09-.38,.34-.75,.59-1.06,.23-.28,.55-.5,.85-.72,.13-.1,.31-.16,.48-.17,.39-.03,.78,0,1.17-.01h0Z"/><path class="d" d="M53.84,77.95c.35,0,.71,0,1.06,0,.33,0,.94,.44,1.15,.74,.13,.19,.27,.39,.45,.52,.6,.41,.4,1.05,.46,1.6,.05,.49,.03,1-.07,1.48-.08,.41-.34,.75-.71,1.02-.19,.14-.43,.33-.54,.47-.37,.5-.85,.38-1.3,.4-.56,.03-1.15,.08-1.69-.05-.39-.09-.73-.43-1.06-.7-.2-.16-.29-.48-.51-.59-.43-.23-.37-.61-.38-.97-.02-.51,.01-1.03-.01-1.54-.03-.67,.29-1.13,.8-1.51,.26-.2,.45-.47,.7-.68,.11-.09,.28-.15,.43-.16,.41-.02,.82,0,1.22,0h0Z"/><path class="d" d="M55.94,67.85c.1,.09,.22,.2,.34,.31,.05,.04,.11,.07,.15,.12,.5,.71,.47,1.53,.54,2.35,.06,.71-.33,1.23-.55,1.82-.1,.26-.51,.4-.79,.59-.07,.05-.19,.02-.25,.08-.83,.8-1.83,.27-2.75,.36-.2-.48-.76-.42-1.11-.75-1.1-1.04-.88-2.3-.79-3.53,.03-.37,.46-.71,.73-1.06,.94-1.2,2.26-.9,3.49-.84,.32,.02,.62,.34,.99,.55Z"/><path class="d" d="M83.6,46.43c1.48-.84,2.9-.88,4.44,.04,.14,.24,.38,.63,.62,1.03,.09,.15,.21,.31,.22,.48,.04,.44-.03,.9,.06,1.33,.14,.7-.37,1.17-.55,1.75-.08,.26-.56,.39-.86,.57-.06,.03-.16,0-.2,.05-.81,.83-1.81,.25-2.72,.36-.14-.54-.74-.41-1.09-.75-1.08-1.05-.88-2.29-.78-3.51,.03-.37,.47-.7,.72-1.05,.08-.12,.14-.26,.15-.29Z"/><path class="d" d="M71.99,48.94c0-.25-.02-.5,0-.75,.02-.26-.09-.59,.32-.68,.04,0,.06-.12,.08-.18,.16-.56,.58-.79,1.04-1.1,.87-.6,1.74-.28,2.61-.34,.15-.01,.32,.16,.48,.25,.07,.04,.14,.11,.22,.12,.6,.09,.79,.57,1.1,1.01,.63,.88,.39,1.83,.31,2.73-.04,.39-.43,.84-.67,1.24-.28,.48-.97,.21-1.07,.79,0,.03-.2,.05-.3,.05-.59,.01-1.17,.03-1.76,.02-.27,0-.59,.07-.7-.32-.01-.04-.11-.08-.18-.09-.63-.1-.95-.48-1.11-1.07-.07-.27-.31-.5-.38-.77-.07-.29-.02-.6-.02-.9h0Z"/><path class="d" d="M101.95,93.88c.3,0,.61-.03,.91,0,.15,.02,.3,.15,.44,.24,.05,.03,.09,.12,.15,.12,.72,.06,.89,.64,1.24,1.15,.62,.89,.22,1.8,.31,2.69-.47,.22-.32,.82-.76,1.16-.46,.35-.93,.7-1.46,.8-.61,.12-1.27,.03-1.91,0-.09,0-.18-.11-.28-.17-.12-.08-.23-.19-.36-.22-.54-.12-.85-.44-1-.96-.04-.13-.15-.24-.22-.37-.07-.12-.18-.25-.19-.38-.02-.66-.02-1.32,0-1.97,0-.13,.12-.26,.19-.38,.06-.11,.16-.2,.21-.32,.2-.51,.58-.77,1.06-1.06,.57-.35,1.1-.33,1.68-.35Z"/><path class="d" d="M93.46,102.27c0-.09,0-.18,0-.27-.09-.8,.42-1.31,.81-1.91,.22-.34,.59-.31,.76-.49,.66-.68,1.43-.3,2.15-.37,.28-.03,.71-.17,.81,.34,0,.03,.09,.05,.14,.05,.71,.05,.83,.64,1.18,1.1,.55,.72,.3,1.46,.36,2.19,.03,.48-.52,1.22-.79,1.66-.22,.36-.59,.28-.76,.46-.68,.73-1.5,.3-2.25,.39-.24,.03-.6,.1-.65-.33,0-.02-.05-.06-.08-.06-.75-.07-1.05-.52-1.3-1.21-.31-.86-.39-.83-.39-1.55Z"/><path class="d" d="M56.07,97.06c0-.14,0-.28,0-.43-.06-.75,.44-1.23,.8-1.81,.23-.37,.63-.31,.81-.5,.63-.69,1.4-.28,2.1-.36,.3-.04,.73-.17,.86,.34,0,.03,.09,.04,.14,.04,.67,.05,.81,.62,1.15,1.06,.58,.75,.36,1.56,.36,2.34,0,.62-.4,1.08-.79,1.55-.4,.48-.92,.72-1.44,.83-.61,.13-1.34,.19-1.89-.04-.38-.16-.89-.27-1.22-.7-.85-1.12-.88-1.09-.88-2.33Z"/><path class="d" d="M64.59,99.3c.28,0,.57-.03,.85,.01,.17,.03,.32,.17,.48,.27,.06,.03,.1,.1,.16,.11,.73,.06,.84,.69,1.21,1.15,.57,.7,.29,1.42,.35,2.14,.04,.47-.52,1.25-.79,1.67-.22,.35-.59,.28-.77,.46-.75,.78-1.64,.27-2.46,.37-.12,.01-.26-.14-.39-.23-.07-.04-.12-.15-.18-.15-.72-.07-.87-.66-1.25-1.14-.59-.75-.27-1.48-.36-2.21-.07-.62,.44-1,.71-1.48,.19-.33,.54-.47,.94-.61,.81-.29,.78-.37,1.5-.35Z"/><path class="d" d="M98.71,54.4c0-.28,0-.4,0-.53-.07-.95,.59-1.57,1.12-2.18,.43-.49,2.62-.84,3.13-.48,.58,.41,1.24,.68,1.63,1.48,.36,.75,.28,1.43,.33,2.14,.04,.68-.42,1.13-.79,1.65-.23,.32-.62,.3-.78,.48-.64,.73-1.43,.3-2.15,.39-.26,.03-.63,.12-.71-.34,0-.03-.12-.07-.19-.07-.51,.04-.82-.36-.97-.67-.31-.63-.93-1.2-.62-1.87Z"/><path class="d" d="M58.99,51.25c.41,0,.69-.04,.94,.01,.19,.04,.35,.19,.53,.29,.06,.03,.11,.09,.17,.1,.74,.05,.84,.71,1.21,1.16,.61,.74,.28,1.53,.36,2.29,.03,.25-.59,1.26-.77,1.46-.89,.99-2.05,1-3.23,.87-.13-.01-.26-.16-.38-.25-.07-.05-.13-.13-.2-.14-.69-.1-.86-.7-1.24-1.15-.54-.65-.28-1.3-.39-1.95-.12-.71,.41-1.15,.72-1.66,.19-.3,.43-.72,.94-.62,.36-.64,.98-.31,1.34-.4Z"/><path class="d" d="M53.87,88.64c.28,0,.57-.03,.85,.01,.17,.03,.32,.17,.48,.27,.06,.03,.1,.11,.16,.11,.74,.06,.85,.71,1.22,1.17,.58,.7,.29,1.43,.35,2.14,.04,.43-.5,1.28-.8,1.63-.93,1.05-2.17,1.1-3.31,.79-.64-.17-1.31-.62-1.74-1.45-.43-.83-.26-1.56-.33-2.33-.05-.55,.45-.9,.69-1.34,.18-.32,.45-.68,.94-.6,.36-.64,.98-.31,1.49-.39Z"/><path class="d" d="M104.13,91.63c0-.27-.02-.53,0-.8,.02-.23-.08-.52,.3-.58,.05,0,.08-.14,.11-.21,.23-.54,.62-.84,1.13-1.18,.85-.56,1.66-.24,2.48-.32,.14-.01,.29,.15,.44,.24,.05,.03,.09,.12,.15,.13,.75,.05,.88,.68,1.25,1.18,.63,.86,.36,1.73,.27,2.55-.04,.34-.32,.84-.69,1.22-.96,.98-2.09,.93-3.27,.84-.13-.01-.25-.17-.37-.26-.07-.05-.13-.12-.2-.13-.66-.11-.89-.58-1.22-1.12-.34-.54-.35-1.02-.37-1.57Z"/><path class="d" d="M80.48,104.6c.34,0,.57-.02,.8,0,.25,.03,.6-.11,.67,.33,0,.03,.08,.06,.13,.07,.72,.05,.86,.68,1.22,1.13,.61,.76,.39,1.57,.34,2.34-.04,.71-.48,1.36-1.04,1.79-.73,.56-1.99,.83-2.98,.47-.67-.24-1.36-.61-1.78-1.45-.36-.72-.29-1.36-.37-2.05-.09-.71,.44-1.13,.74-1.65,.19-.34,.48-.66,.96-.6,.32-.7,.96-.25,1.33-.39Z"/><path class="d" d="M104,59.56c.06-.41,0-.93,.21-1.21,.76-.95,1.45-2.08,2.96-1.88,.42,.05,.97-.09,1.23,.13,.92,.78,2.08,1.47,1.87,2.98-.06,.41,.05,.93-.17,1.22-.74,.99-1.47,2.09-2.98,1.89-.4-.05-.91,.06-1.18-.15-.95-.77-2.12-1.45-1.95-2.99Z"/><path class="d" d="M109.38,75.59c.06-.41-.02-.94,.2-1.22,.76-.93,1.44-2.08,2.95-1.89,.43,.05,.98-.06,1.27,.17,.93,.75,2.04,1.44,1.85,2.92-.05,.43,.02,.95-.2,1.26-.7,1-1.44,2.05-2.92,1.88-.4-.05-.93,.07-1.19-.14-.93-.78-2.13-1.43-1.96-2.97Z"/><path class="d" d="M48.36,72.63c.33,0,.56,0,.8,0,.52,0,.82,.35,1.15,.67,.17,.16,.29,.39,.48,.52,1.09,.74,.81,1.85,.72,2.86-.03,.31-.39,.6-.62,.89-.15,.18-.37,.29-.5,.48-.74,1.07-1.82,.81-2.84,.74-.29-.02-.59-.26-.84-.46-.21-.18-.32-.5-.54-.65-1.02-.73-.84-1.79-.76-2.79,.02-.31,.27-.63,.47-.9,.24-.32,.5-.68,.84-.86,.53-.29,1.05-.74,1.64-.48Z"/><path class="d" d="M53.82,56.54c.4,.06,.9-.02,1.17,.2,.96,.77,2.09,1.48,1.89,3-.06,.41,0,.9-.21,1.2-.71,1-1.44,2.04-2.92,1.87-.4-.05-.91,.06-1.18-.16-.97-.77-2.11-1.48-1.91-3.01,.05-.37-.08-.82,.09-1.1,.34-.55,.77-1.08,1.28-1.47,.49-.37,1.09-.71,1.79-.54Z"/><path class="d" d="M93.37,48.93c0-.18,.03-.36,0-.53-.13-.58,.38-.87,.59-1.28,.15-.29,.42-.55,.7-.73,.34-.23,.72-.46,1.12-.53,.46-.09,.96-.03,1.44-.02,.49,0,.77,.37,1.1,.64,.18,.15,.29,.4,.49,.52,.77,.47,.76,1.2,.8,1.97,.03,.64-.1,1.21-.48,1.68-.31,.38-.82,.6-1.14,.97-.62,.7-1.4,.34-2.11,.41-.55,.06-.89-.34-1.24-.67-.39-.37-.75-.78-1.11-1.19-.07-.08-.12-.21-.13-.32-.02-.3,0-.6,0-.91,0,0-.01,0-.02,0Z"/><path class="d" d="M61.33,49.01c0-.16,.02-.32,0-.48-.1-.62,.36-.96,.67-1.38,.19-.24,.37-.51,.61-.68,.32-.23,.68-.48,1.06-.55,.5-.09,1.04-.1,1.54,0,.38,.08,.73,.38,1.06,.62,.2,.15,.31,.41,.52,.56,1.09,.78,.82,1.91,.66,2.92-.07,.45-.63,.84-.99,1.24-.22,.24-.5,.44-.75,.65-.05,.04-.11,.12-.16,.12-.73,.01-1.49,.15-2.17-.03-.47-.13-.84-.68-1.24-1.06-.26-.24-.57-.47-.7-.78-.14-.34-.1-.76-.14-1.15h.04Z"/><path class="d" d="M88.16,107.67c-.17-1.05,.51-1.62,1.12-2.31,.72-.81,1.56-.81,2.48-.79,.58,0,.94,.36,1.35,.7,.39,.33,.73,.66,.96,1.11,.09,.18,.23,.35,.25,.53,.04,.39,.02,.78,.03,1.17,.01,.61-.37,1-.71,1.46-.34,.46-.83,.68-1.19,1.07-.09,.1-.29,.13-.44,.14-.5,.02-1.01,.09-1.48-.02-.4-.09-.76-.39-1.1-.64-.23-.16-.43-.38-.6-.59-.23-.29-.43-.6-.64-.9-.02-.03-.01-.07-.01-.1,0-.28,0-.57,0-.83Z"/><path class="d" d="M66.71,107.71c.08-.41,.04-.9,.26-1.2,.73-.97,1.43-2.07,2.91-1.9,.41,.05,.91-.01,1.21,.2,1,.7,1.97,1.44,1.91,2.92-.07,1.7-1.42,2.99-3.12,3.12-1.39,.11-3.38-1.73-3.18-3.14Z"/><path class="d" d="M80.43,40.52c1.69,0,3.11,1.4,3.11,3.08,0,1.72-1.39,3.03-3.09,3.16-1.38,.11-3.26-1.73-3.15-3.15,.14-1.67,1.44-3.09,3.13-3.09Z"/><path class="d" d="M109.46,86.27c0-1.67,1.42-3.09,3.09-3.1,1.72,0,3.11,1.4,3.12,3.13,0,1.69-1.42,3.08-3.14,3.08-1.64,0-3.06-1.44-3.06-3.11Z"/><path class="d" d="M48.49,83.2c.6,.19,1.28,.23,1.67,.59,.39,.36,.83,.74,1.1,1.29,.27,.56,.34,1.08,.33,1.66-.02,.61-.3,1.1-.75,1.51-.21,.19-.36,.46-.55,.69-.06,.07-.17,.08-.26,.13-.2,.11-.4,.22-.61,.32-.09,.05-.19,.11-.29,.1-.6-.07-1.21,.24-1.8-.3-.21-.19-.66-.32-.94-.54-.25-.2-.39-.53-.57-.8-.1-.15-.2-.31-.28-.47-.06-.12-.13-.24-.14-.37-.02-.26-.01-.53-.02-.8-.01-.66,.36-1.15,.75-1.63,.19-.24,.38-.47,.56-.71,.03-.04,.06-.1,.1-.11,.55-.19,1.11-.37,1.69-.56Z"/><path class="d" d="M115.68,65.08c-.15,.44-.18,1.13-.55,1.5-.38,.39-.74,.87-1.38,1.1-.49,.17-.94,.34-1.44,.33-.3,0-.66,.1-.81-.32-.02-.05-.16-.08-.24-.08-.49-.04-.75-.38-1-.74-.25-.37-.52-.72-.78-1.09-.18-.27-.02-1.6,.2-1.84,.06-.06,.11-.14,.12-.22,.08-.51,.46-.77,.8-1.1,.66-.64,1.4-.85,2.27-.8,.25,.02,.55-.06,.66,.3,.02,.05,.15,.08,.24,.08,.51,.03,.68,.54,1.03,.75,.46,.27,.37,.78,.69,1.09,.18,.17,.12,.6,.18,1.05Z"/><path class="d" d="M69.8,40.55c.31,.06,.76-.17,.96,.34,.01,.04,.13,.04,.2,.05,.53,.03,.72,.56,1.07,.75,.52,.28,.27,.9,.74,1.16,.23,.12,.05,1.51-.15,1.75-.06,.08-.13,.18-.14,.27-.07,.51-.59,.71-.76,1.06-.27,.55-.94,.21-1.19,.75-.12,.26-1.41,0-1.71-.26-.06-.05-.16-.08-.24-.08-.53-.02-.82-.36-1.08-.76-.25-.38-.54-.74-.79-1.13-.19-.29,.02-1.44,.28-1.74,.03-.04,.06-.09,.06-.14,.02-.59,.41-.9,.85-1.23,.62-.47,1.23-.79,1.91-.79Z"/><path class="d" d="M88.02,43.53c.06-.29-.17-.72,.34-.9,.04-.01,.05-.13,.05-.19,.04-.53,.58-.75,.74-1.12,.25-.6,.97-.18,1.18-.75,.09-.24,1.48-.02,1.74,.22,.07,.06,.18,.1,.28,.1,.52,.03,.68,.57,1.03,.74,.54,.26,.28,.89,.74,1.16,.23,.13,.08,1.52-.12,1.75-.07,.08-.14,.17-.15,.26-.09,.51-.46,.76-.83,1.09-.66,.59-1.38,.87-2.25,.8-.23-.02-.52,.06-.59-.3,0-.03-.08-.08-.12-.08-.61,0-.92-.39-1.26-.84-.48-.63-.78-1.22-.78-1.94Z"/><path class="d" d="M46.81,62.52c.27-.17,.53-.35,.8-.52,.24-.16,1.59,0,1.79,.2,.05,.05,.1,.12,.16,.12,.59,.03,.84,.46,1.19,.85,.54,.59,.78,1.21,.78,1.98,0,.71-.27,1.27-.78,1.75-.21,.2-.34,.47-.54,.69-.07,.08-.21,.07-.32,.12-.19,.09-.37,.2-.55,.3-.1,.05-.22,.13-.33,.12-.55-.06-1.19,.3-1.63-.34-.04-.06-.2-.05-.31-.06-.44-.02-.65-.38-.89-.66-.3-.34-.52-.76-.78-1.13-.18-.26-.06-1.58,.19-1.81,.05-.05,.11-.11,.11-.16,.04-.59,.38-.95,.87-1.22,.08-.05,.09-.22,.13-.33l.09,.12Z"/><path class="d" d="M108.96,99.72c.16,.21,.3,.58,.57,.71,.43,.21,.28,.67,.48,.88,.4,.4,.41,.86,.3,1.27-.14,.53-.21,1.13-.72,1.53-.23,.18-.39,.47-.57,.71-.02,.03-.04,.08-.06,.08-.77,.04-1.47,.85-2.2,.4-.42-.26-.94-.23-1.33-.67-.37-.42-.66-.79-.9-1.3-.2-.43-.37-.8-.32-1.25,.02-.21,.18-.41,.27-.62,.03-.06,.1-.11,.1-.17,.03-.6,.41-.93,.86-1.28,.64-.5,1.3-.82,2.11-.77,.18,.01,.36,.17,.54,.23,.27,.09,.55,.16,.88,.26Z"/><path class="d" d="M76.94,110.45c.18,.24,.33,.64,.6,.76,.43,.19,.26,.6,.44,.79,.32,.34,.37,.7,.34,1.1-.06,.66-.26,1.27-.77,1.76-.22,.21-.37,.48-.55,.73-.02,.03-.05,.08-.07,.08-.74,0-1.37,.81-2.1,.42-.44-.24-1.03-.2-1.35-.69-.1-.16-.34-.23-.45-.39-.28-.39-.52-.81-.78-1.21-.18-.27-.07-1.36,.17-1.58,.05-.04,.13-.1,.13-.15,.02-.63,.42-.96,.88-1.32,.62-.49,1.27-.81,2.06-.76,.21,.01,.41,.19,.62,.26,.26,.08,.53,.13,.84,.21Z"/><path class="d" d="M82.67,113.05c.2-.35,.36-.63,.5-.91,.05-.09,.06-.2,.07-.3,.04-.51,.57-.71,.74-1.07,.28-.58,.96-.24,1.24-.75,.14-.25,1.29-.05,1.55,.19,.05,.04,.11,.11,.17,.1,.64-.01,.91,.44,1.27,.87,.51,.61,.8,1.25,.78,2.03,0,.35-.5,1.32-.76,1.61-.21,.22-.38,.48-.56,.72-.02,.03-.04,.08-.06,.08-.77,.02-1.45,.85-2.2,.4-.42-.25-.92-.27-1.32-.67-.4-.41-.79-.7-.88-1.31-.05-.33-.33-.62-.54-1Z"/><path class="d" d="M56.95,102.56c-.49,.39-.23,1.15-.78,1.71-.45,.47-.8,.82-1.46,.86-.28,.02-.54,.28-.82,.33-.16,.03-.35-.13-.53-.21-.11-.05-.23-.15-.33-.13-.56,.12-.93-.27-1.29-.53-.27-.19-.38-.63-.55-.96-.12-.24-.26-.48-.31-.74-.05-.29-.06-.61,0-.9,.04-.25,.26-.48,.29-.73,.05-.52,.56-.72,.74-1.09,.35-.75,1.26-.15,1.63-.8,.06-.1,.52,0,.79,.07,.24,.06,.46,.25,.7,.27,.54,.04,.72,.52,1.08,.76,.61,.4,.26,1.17,.77,1.56,.08,.06,.04,.27,.07,.53Z"/><path class="d" d="M121.14,80.99c-.68,.45-.26,1.32-.95,1.74-.24,.15-.37,.48-.58,.71-.07,.08-.21,.1-.32,.12-.36,.06-.72,0-1.01,.36-.11,.13-.53,.03-.79-.03-.25-.06-.48-.26-.73-.29-.53-.05-.74-.51-1.11-.74-.63-.38-.18-1.21-.78-1.58-.09-.06,.08-.55,.15-.83,.03-.13,.16-.24,.16-.36,.05-.65,.38-1.04,.87-1.48,.34-.31,.63-.31,.98-.4,.14-.04,.28-.11,.4-.2,.33-.25,.65-.25,.98,0,.1,.07,.2,.18,.3,.18,.7,0,1.05,.42,1.5,.9,.54,.57,.32,1.34,.93,1.9Z"/><path class="d" d="M98.77,107.65c.11-.18,.2-.32,.29-.47,.06-.1,.15-.21,.15-.32,.04-.67,.4-1.08,.89-1.53,.32-.3,.59-.31,.93-.39,.16-.04,.29-.19,.45-.21,.31-.04,.63-.05,.95-.02,.14,.01,.26,.21,.39,.21,.67,0,.96,.47,1.41,.85,.56,.48,.27,1.19,.74,1.64,.11,.1-.1,.53-.17,.81-.04,.14-.14,.26-.15,.39-.02,.62-.47,.9-.83,1.32-.32,.37-.63,.32-.98,.4-.14,.03-.27,.14-.4,.22-.33,.21-.65,.27-.98-.04-.11-.1-.29-.21-.41-.18-.55,.13-.95-.26-1.23-.54-.29-.29-.64-.67-.61-1.23,.01-.29-.27-.59-.45-.93Z"/><path class="d" d="M115.72,97.08c-.57,.39-.29,1.15-.81,1.71-.46,.49-.85,.83-1.53,.89-.28,.02-.53,.26-.82,.33-.12,.03-.29-.11-.43-.18-.12-.05-.26-.18-.36-.16-.56,.13-.98-.26-1.29-.54-.32-.29-.41-.86-.6-1.3-.12-.29-.29-.57-.36-.87-.03-.14,.13-.31,.2-.47,.06-.14,.15-.28,.16-.43,.03-.62,.44-.96,.83-1.39,.35-.39,.7-.33,1.08-.44,.3-.08,.56-.26,.86-.33,.13-.03,.3,.11,.44,.18,.11,.05,.23,.17,.31,.15,.57-.14,.94,.28,1.29,.56,.29,.22,.41,.68,.57,1.04,.16,.37,.28,.76,.45,1.25Z"/><path class="d" d="M62.34,107.81c-.48,.45-.21,1.25-.8,1.72-.25,.2-.42,.49-.63,.74-.01,.01-.02,.04-.03,.04-.62,.17-1.28,.55-1.84,.43-.44-.09-1.03-.15-1.37-.41-.5-.38-1.14-.76-1.15-1.56,0-.18-.15-.37-.26-.54-.19-.33-.24-.63,.04-.94,.1-.11,.18-.26,.19-.4,.04-.63,.43-1,.84-1.44,.36-.39,.71-.32,1.08-.43,.28-.09,.53-.27,.81-.33,.15-.03,.33,.11,.49,.18,.11,.05,.23,.17,.32,.15,.57-.14,1.02,.26,1.27,.57,.23,.29,.67,.54,.62,1.09-.03,.34,.24,.69,.41,1.13Z"/><path class="d" d="M120.95,70.37c-.48,.38-.14,1.21-.76,1.66-.25,.18-.42,.49-.63,.74-.01,.01-.02,.04-.03,.04-.62,.16-1.24,.32-1.86,.48-.35-.62-1.14-.21-1.64-.74-.43-.46-.78-.84-.88-1.46-.04-.25-.3-.46-.33-.71-.03-.19,.14-.41,.21-.62,.06-.16,.14-.32,.15-.49,.03-.59,.43-.89,.79-1.3,.37-.41,.77-.36,1.18-.46,.13-.03,.22-.27,.34-.27,.28-.02,.57,.02,.85,.07,.12,.02,.22,.21,.33,.21,.7,0,1.19,.3,1.49,.93,.06,.12,.29,.16,.33,.27,.17,.5,.29,1.02,.46,1.65Z"/><path class="d" d="M46.41,81.09c-.74,.48-.31,1.34-.97,1.79-.26,.17-.4,.51-.64,.73-.1,.09-.29,.11-.44,.13-.32,.05-.65-.03-.89,.33-.08,.11-.49,.03-.74-.02-.23-.05-.44-.27-.67-.28-.57-.03-.83-.44-1.19-.78-.37-.36-.38-.75-.47-1.17-.06-.26-.26-.49-.33-.76-.03-.12,.12-.29,.18-.43,.06-.12,.15-.24,.16-.36,.04-.65,.43-1.03,.86-1.49,.37-.38,.79-.22,1.07-.43,.55-.42,.95-.24,1.54-.04,.63,.22,1.08,.46,1.56,.95,.55,.56,.2,1.36,.96,1.83Z"/><path class="d" d="M107.09,45.8c.35,.15,.64,.3,.95,.4,.3,.09,.65-.06,.86,.36,.15,.29,.5,.46,.76,.7,.05,.04,.08,.11,.11,.17,.14,.42,.28,.84,.42,1.26,.02,.05,.03,.12,0,.16-.36,.55-.24,1.26-.68,1.83-.22,.28-.58,.4-.73,.74-.04,.09-.28,.12-.43,.14-.32,.05-.65-.05-.89,.32-.06,.09-.46-.03-.7-.08-.14-.03-.25-.18-.38-.19-1.13-.15-1.64-.79-1.96-1.89-.17-.59-.25-.98,0-1.58,.24-.59,.44-1.08,.93-1.53,.34-.32,.64-.33,1-.41,.14-.03,.27-.11,.4-.18,.13-.07,.25-.15,.37-.22Z"/><path class="d" d="M57.02,49.01c-.81,.43-.36,1.24-.91,1.78-.23,.22-.58,.4-.73,.73-.04,.08-.21,.13-.32,.14-.37,.05-.76-.05-1.05,.35-.06,.08-.41-.02-.62-.08-.2-.05-.38-.22-.58-.23-.59-.05-.94-.38-1.31-.83-.32-.38-.41-.75-.45-1.19-.01-.1-.18-.18-.19-.28-.04-.25-.06-.51-.02-.76,.03-.2,.22-.38,.24-.58,.06-.59,.46-.9,.82-1.31,.37-.41,.76-.41,1.2-.46,.1-.01,.17-.18,.27-.19,.25-.03,.51-.04,.76-.01,.1,.01,.18,.2,.27,.2,.75,0,1.19,.4,1.69,.94,.52,.55,.16,1.32,.94,1.78Z"/><path class="d" d="M51.61,97.17c-.55,.38-.15,1.23-.78,1.69-.26,.18-.38,.6-.65,.71-.59,.25-1.29,.61-1.84,.49-.44-.09-1.02-.14-1.37-.4-.54-.4-1.17-.85-1.16-1.69,0-.16-.19-.31-.23-.48-.05-.25-.1-.53-.05-.78,.04-.25,.27-.46,.3-.71,.06-.54,.49-.79,.77-1.16,.36-.48,.82-.43,1.28-.49,.07,0,.13-.1,.19-.15,.3-.29,.59-.28,.89,0,.08,.08,.22,.17,.3,.15,.58-.12,.99,.25,1.36,.55,.29,.24,.42,.68,.58,1.05,.15,.36,.26,.73,.42,1.21Z"/><path class="d" d="M46.24,70.5c-.63,.36-.26,1.15-.79,1.71-.48,.51-.89,.88-1.59,.89-.11,0-.21,.18-.33,.19-.28,.03-.56,.03-.84,0-.13-.02-.25-.18-.38-.2-1.14-.16-1.72-.73-1.91-1.89-.02-.13-.08-.27-.16-.36-.29-.32-.34-.61,.03-.91,.07-.06,.09-.17,.13-.27,.17-.45,.24-1.01,.55-1.32,.26-.26,.52-.72,1.07-.65,.25,.03,.54,.05,.74-.28,.06-.1,.5,0,.75,.04,.15,.03,.31,.24,.42,.21,.59-.14,.94,.31,1.3,.57,.3,.22,.4,.72,.57,1.1,.15,.34,.27,.69,.44,1.15Z"/><path class="d" d="M75.17,35.27c.19,.08,.48,.24,.8,.32,.31,.08,.64-.02,.86,.38,.16,.29,.51,.46,.76,.7,.07,.07,.11,.18,.14,.28,.13,.37,.25,.74,.38,1.11,0,.02,.01,.04,0,.05-.19,.62-.33,1.25-.6,1.84-.14,.31-.49,.52-.76,.76-.12,.11-.28,.21-.44,.24-.35,.05-.73-.03-.99,.35-.06,.09-.48,.07-.53-.02-.21-.35-.54-.27-.84-.31-.5-.08-.8-.41-1.12-.78-.33-.38-.45-.77-.48-1.24,0-.08-.12-.16-.16-.24-.07-.15-.21-.34-.17-.45,.21-.56,.43-1.11,.71-1.64,.16-.3,.45-.54,.68-.81,.02-.03,.04-.07,.07-.07,.51-.14,1.03-.28,1.66-.45Z"/><path class="d" d="M88.81,38.38c-.56,.33-.19,1.11-.71,1.67-.49,.53-.93,.9-1.65,.92-.1,0-.2,.1-.29,.18-.26,.24-.51,.24-.79,.01-.11-.09-.27-.21-.38-.19-.58,.13-.9-.36-1.34-.54-.21-.09-.33-.46-.45-.72-.19-.43-.05-.98-.49-1.33-.05-.04-.04-.22,0-.31,.28-.62,.54-1.25,.86-1.85,.11-.2,.34-.39,.55-.47,.58-.21,1.2-.56,1.77-.49,.67,.08,1.32,.49,1.94,.83,.22,.12,.4,.4,.49,.65,.18,.49,.29,1.02,.47,1.64Z"/><path class="d" d="M115.54,54.32c-.21,.47-.52,1.02-.68,1.62-.11,.44-.52,.47-.73,.75-.09,.12-.3,.17-.46,.2-.32,.05-.66-.04-.9,.31-.06,.09-.4,.03-.59-.02-.23-.06-.44-.24-.67-.27-.57-.08-.91-.39-1.27-.83-.31-.38-.42-.75-.45-1.2,0-.1-.17-.18-.19-.28-.05-.22-.11-.46-.07-.68,.05-.25,.24-.47,.29-.72,.11-.53,.47-.84,.81-1.22,.36-.4,.75-.45,1.2-.47,.1,0,.18-.16,.28-.18,.24-.04,.48-.07,.72-.04,.18,.03,.35,.22,.53,.23,.64,.04,.97,.48,1.41,.87,.57,.49,.2,1.26,.75,1.66,.03,.02,.01,.1,.02,.27Z"/><path class="d" d="M103.81,41.39c.59,.7,.74,1.43,.79,2.21,.05,.8-.4,1.43-.65,2.06-.66,.39-1.33,.66-2.12,.64-.79-.01-1.49-.18-2.12-.64-.71-.84-.73-1.89-.57-2.93,.09-.6,.4-1.07,.98-1.48,.74-.52,1.49-.36,2.24-.38,.36,0,.76-.09,1.01,.36,.07,.13,.38,.14,.45,.16Z"/><path class="d" d="M50.49,52.21c1,1.47,.93,2.89,.03,4.3-1.35,.81-2.78,.83-4.15,.01-.76-.95-.8-2.06-.58-3.14,.1-.48,.38-.95,.89-1.31,.82-.58,1.66-.38,2.51-.4,.28,0,.58-.06,.75,.32,.07,.15,.4,.17,.55,.22Z"/><path class="d" d="M98.7,115.04c-.27,.21-.5,.39-.73,.56-.05,.04-.13,.06-.19,.06-.76,0-1.57,.15-2.27-.05-.39-.11-.91-.34-1.23-.9-.46-.81-.4-1.6-.35-2.41,.04-.7,.43-1.17,1.04-1.61,.93-.67,1.88-.28,2.82-.36,.2,.5,.98,.3,1.12,.98,.06,.33,.46,.59,.42,1.03-.04,.58-.03,1.16-.04,1.74,0,.09-.01,.19-.06,.25-.17,.25-.36,.49-.52,.71Z"/><path class="d" d="M66.63,115.14c-.23,.17-.45,.35-.69,.51-.09,.06-.23,.08-.34,.08-.53,.02-1.08-.05-1.59,.05-.64,.12-.99-.41-1.49-.59-.3-.11-.48-.71-.58-1.12-.11-.44,0-.93-.08-1.38-.12-.68,.31-1.17,.62-1.64,.23-.34,.77-.55,1.2-.64,.55-.11,1.13,0,1.7-.05,.59-.05,.81,.6,1.35,.61,.39,.76,.76,1.54,.6,2.43-.07,.41,.14,.93-.43,1.2-.12,.05-.1,.39-.15,.6l-.11-.06Z"/><path class="d" d="M61.13,41.51c.98,1.46,.96,2.88,.04,4.3-1.36,.79-2.78,.84-4.12,0-.79-.94-.81-2.02-.62-3.09,.1-.53,.42-.98,.93-1.35,.77-.57,1.58-.39,2.39-.4,.3,0,.65-.09,.84,.34,.06,.14,.41,.16,.54,.2Z"/><path class="d" d="M120.07,93.58c-.33,.26-.55,.44-.79,.6-.08,.05-.19,.07-.29,.07-.39,.02-.79-.02-1.17,.06-.75,.16-1.29-.36-1.93-.53-.05-.01-.08-.11-.12-.16-.52-.76-.56-1.61-.58-2.51-.01-.65,.33-1.13,.65-1.51,.27-.31,.72-.71,1.29-.7,.41,.01,.83,.06,1.22-.02,.71-.15,1.08,.49,1.66,.62,.06,.01,.07,.19,.12,.27,.09,.15,.2,.29,.29,.44,.06,.1,.15,.2,.15,.3,.02,.71,.02,1.42,0,2.12,0,.12-.1,.23-.17,.35-.14,.24-.28,.48-.35,.61Z"/><path class="d" d="M43.23,94.46c-.37-.02-.74,.07-1-.06-.49-.24-1-.41-1.37-.96-.57-.87-.46-1.78-.32-2.65,.07-.48,.42-.95,.91-1.31,.8-.59,1.64-.45,2.47-.39,.65,.05,1.11,.46,1.54,1.04,.55,.75,.4,1.49,.39,2.25,0,.31,.11,.7-.37,.81-.02,0-.04,.06-.05,.09,0,.48-.44,.54-.69,.79-.51,.52-1.07,.24-1.53,.39Z"/><path class="d" d="M117.85,62.23c-.27,0-.53,.02-.8,0-.22-.02-.53,.08-.56-.31,0-.04-.11-.09-.17-.09-.46,0-.52-.4-.76-.67-.61-.7-.3-1.48-.4-2.22-.08-.6,.32-1.03,.63-1.33,.37-.35,.79-.83,1.45-.75,.26,.03,.54,.04,.8-.02,.76-.17,1.32,.29,1.83,.67,.34,.25,.53,.79,.64,1.23,.11,.44,.05,.92,.03,1.38-.02,.32,.14,.73-.37,.87-.06,.02-.05,.23-.09,.34-.05,.13-.09,.31-.19,.35-.29,.12-.6,.15-.79,.49-.06,.11-.43,.05-.66,.06-.2,0-.39,0-.59,0h0Z"/><path class="d" d="M43.09,62.45c-.43-.06-.96,.02-1.27-.2-.81-.61-1.63-1.29-1.43-2.52,.07-.44-.04-1.01,.2-1.32,.6-.8,1.27-1.62,2.49-1.41,.44,.08,1.05-.08,1.32,.16,.75,.66,1.65,1.3,1.41,2.55-.08,.43,.07,1.01-.17,1.28-.66,.74-1.24,1.78-2.55,1.46Z"/><path class="d" d="M96.47,40.97c-.43-.05-.99,.06-1.28-.17-.79-.64-1.68-1.29-1.45-2.55,.08-.43-.06-1,.17-1.28,.63-.77,1.27-1.66,2.51-1.43,.44,.08,1.05-.08,1.32,.16,.73,.66,1.66,1.28,1.41,2.53-.08,.43,.07,1.02-.17,1.28-.66,.73-1.23,1.76-2.52,1.46Z"/><path class="d" d="M64.43,35.63c.21,0,.43,.03,.64,0,.56-.11,.81,.36,1.16,.63,.27,.21,.5,.48,.73,.75,.07,.08,.1,.22,.11,.33,.02,.51,0,1.03,.04,1.54,.04,.61-.34,.94-.72,1.3-.23,.21-.41,.47-.64,.69-.08,.07-.22,.1-.33,.1-.48,.02-.96,0-1.44,.04-.65,.06-.99-.39-1.45-.72-1.13-.82-.78-1.95-.74-3.01,.01-.25,.27-.51,.46-.73,.28-.31,.56-.67,.92-.83,.37-.16,.84-.09,1.26-.12v.04Z"/><path class="d" d="M80.6,121.09c-.42-.03-.98,.09-1.24-.13-.77-.67-1.71-1.32-1.46-2.6,.08-.42-.04-.98,.19-1.27,.62-.79,1.28-1.64,2.52-1.42,.43,.08,1.04-.1,1.28,.14,.71,.7,1.69,1.31,1.42,2.58-.09,.42,.05,1-.18,1.27-.65,.75-1.23,1.76-2.53,1.44Z"/><path class="d" d="M123.25,78.29c-.43-.06-.98,.04-1.27-.2-.78-.64-1.68-1.28-1.45-2.53,.08-.43-.04-.98,.19-1.27,.62-.77,1.25-1.65,2.49-1.43,.43,.08,1.04-.09,1.28,.14,.7,.69,1.68,1.28,1.44,2.54-.08,.41,.08,.99-.14,1.23-.69,.71-1.21,1.82-2.53,1.51Z"/><path class="d" d="M91.3,115.63c.42,.05,.99-.06,1.23,.17,.72,.7,1.7,1.32,1.45,2.59-.08,.39,.07,.93-.15,1.18-.66,.78-1.29,1.73-2.58,1.47-.39-.08-.95,.09-1.19-.12-.76-.68-1.71-1.3-1.47-2.58,.08-.41-.05-.96,.18-1.22,.65-.76,1.24-1.76,2.53-1.49Z"/><path class="d" d="M69.92,121.11c-.42-.05-.97,.06-1.23-.17-.75-.65-1.69-1.27-1.46-2.52,.08-.43-.04-.98,.19-1.27,.62-.77,1.23-1.67,2.47-1.45,.43,.08,1.03-.09,1.28,.15,.72,.68,1.69,1.28,1.44,2.54-.08,.41,.07,.98-.16,1.22-.67,.73-1.21,1.81-2.53,1.5Z"/><path class="d" d="M37.81,78.46c-.42-.04-.98,.07-1.23-.15-.74-.66-1.7-1.26-1.47-2.52,.08-.43-.05-.99,.18-1.27,.62-.76,1.23-1.67,2.47-1.46,.43,.08,1.03-.09,1.28,.14,.72,.68,1.69,1.27,1.45,2.53-.08,.41,.08,.98-.15,1.23-.67,.72-1.2,1.82-2.53,1.5Z"/><path class="d" d="M123.24,88.97c-.41-.06-.93,.01-1.21-.21-.81-.63-1.66-1.3-1.45-2.53,.07-.42,.04-.92,.26-1.24,.56-.84,1.22-1.62,2.42-1.43,.41,.06,.99-.08,1.22,.14,.73,.69,1.72,1.3,1.47,2.58-.08,.39,.05,.92-.17,1.17-.66,.76-1.22,1.79-2.53,1.52Z"/><path class="d" d="M37.84,89.15c-.42-.06-.95,.03-1.23-.19-.77-.63-1.59-1.25-1.51-2.48,.04-.67,.12-1.31,.57-1.76,.55-.56,1.16-1.16,2.1-.97,.41,.08,.96-.06,1.23,.16,.76,.65,1.52,1.27,1.54,2.52,.02,1.32-1.37,2.94-2.7,2.72Z"/><path class="d" d="M123.18,67.55c-.2,0-.39,0-.59,0-.55,.02-.89-.32-1.2-.71-.18-.22-.35-.45-.54-.66-.48-.54-.37-1.95,0-2.63,.3-.55,.88-.75,1.18-1.25,.04-.07,.23-.07,.35-.07,.43-.01,.86,0,1.28-.02,.63-.04,1.02,.28,1.36,.75,.18,.25,.43,.46,.66,.67,.26,.24,.27,2.25,.02,2.5-.26,.27-.44,.61-.72,.84-.28,.24-.61,.44-.96,.55-.25,.09-.56,.02-.85,.02h0Z"/><path class="d" d="M80.44,35.6c-.2,0-.39,0-.59,0-.57,.04-.92-.31-1.24-.71-.16-.19-.29-.41-.47-.58-.73-.7-.36-1.56-.3-2.34,.02-.29,.4-.57,.63-.83,.22-.25,.45-.48,.7-.7,.09-.08,.24-.15,.36-.15,.59-.02,1.18-.07,1.75,.01,.32,.05,.64,.31,.9,.54,.28,.24,.49,.57,.75,.84,.21,.22,.25,2.26,.02,2.47-.24,.23-.52,.42-.7,.69-.35,.53-.8,.81-1.44,.76-.12,0-.25,0-.37,0h0Z"/><path class="d" d="M37.77,62.39c1.59,0,2.59,1.09,2.71,2.68,.1,1.31-1.34,2.82-2.76,2.7-1.57-.14-2.62-1.09-2.62-2.71,0-1.58,1.08-2.67,2.67-2.67Z"/><path class="d" d="M112.61,110.3c-1.63,0-2.66-1.04-2.66-2.68,0-1.58,1.08-2.66,2.66-2.67,1.63,0,2.61,1.07,2.72,2.71,.09,1.28-1.36,2.92-2.71,2.64Z"/><path class="d" d="M107.26,115.65c-1.6,0-2.64-1.05-2.64-2.69,0-1.58,1.09-2.66,2.71-2.66,1.55,0,2.55,1.11,2.66,2.69,.09,1.28-1.38,2.93-2.73,2.65Z"/><path class="d" d="M48.51,110.43c-1.59,0-2.64-1.05-2.65-2.67,0-1.59,1.08-2.68,2.67-2.68,1.6,0,2.59,1.09,2.7,2.7,.09,1.28-1.37,2.93-2.73,2.65Z"/><path class="d" d="M55.99,111.46c.38,.62,.79,1.31,.54,2.06-.2,.63-.57,1.2-.87,1.8l-.14-.13c-.24,.17-.47,.4-.73,.48-.33,.1-.7,.07-1.05,.08-.69,.02-1.17-.32-1.69-.77-.8-.68-.94-1.52-.8-2.42,.07-.46,.4-.87,.67-1.28,.29-.44,.82-.37,1.09-.78,.1-.15,.58-.01,.86-.09,.68-.2,1.09,.43,1.68,.52,.17,.02,.29,.35,.43,.53Z"/><path class="d" d="M117.94,104.94c-1.36,.12-2.67-1.31-2.69-2.64-.02-1.33,1.35-2.75,2.72-2.73,1.3,.01,2.7,1.4,2.67,2.74-.02,1.31-1.31,2.76-2.71,2.63Z"/><path class="d" d="M93.2,31.27c.15,.24,.31,.47,.45,.71,.06,.1,.11,.23,.1,.34-.06,.59,.2,1.2-.31,1.79-.19,.22-.47,.55-.57,.9,0,.03-.03,.07-.05,.08-.78,.4-1.64,.72-2.46,.41-.32-.12-.77-.3-1.1-.68-.57-.65-.85-1.29-.83-2.12,.02-.67,.37-1.12,.78-1.61,.68-.82,1.54-.97,2.47-.82,.45,.07,.91,.32,1.23,.72,.09,.11,.25,.16,.38,.23l-.08,.04Z"/><path class="d" d="M71.88,31.38c.11,.18,.3,.4,.4,.65,.09,.22,.14,.48,.12,.71-.04,.46,.14,.92-.31,1.37-.2,.2-.35,.61-.57,.9-.03,.04-.03,.11-.07,.13-.78,.41-1.64,.72-2.46,.41-.32-.12-.76-.34-1.1-.67-.75-.72-.92-1.53-.78-2.44,.07-.46,.4-.87,.67-1.29,.28-.44,.83-.36,1.08-.79,.07-.12,.48-.02,.71-.09,.72-.21,1.23,.35,1.84,.51,.18,.05,.29,.35,.47,.6Z"/><path class="d" d="M45.31,104.09c-.12,.14-.24,.28-.36,.42-.02,.03-.02,.08-.05,.09-.8,.37-1.62,.68-2.52,.46-.3-.08-.56-.34-.85-.48-.14-.12-.28-.24-.42-.36-.03-.02-.07-.02-.09-.05-.32-.31-.69-2.16-.47-2.53,.27-.46,.58-.91,.91-1.33,.28-.36,2.07-.74,2.5-.51,.49,.27,1.09,.53,1.36,.96,.45,.71,.75,1.57,.49,2.45-.09,.32-.35,.58-.53,.87h.03Z"/><path class="d" d="M109.01,39.6l-.5,.51,.23,.19c-.26,.18-.51,.42-.8,.52-.29,.1-.63,.08-.95,.05-.28-.02-.67,.18-.79-.3,0-.03-.1-.08-.13-.07-.53,.15-.66-.46-1.06-.55-.01,0-.03-.02-.04-.04-.24-.76-.78-1.49-.46-2.31,.21-.55,.61-1.02,.95-1.52,.04-.06,.2-.05,.3-.07,.12-.02,.31,0,.35-.08,.44-.72,1.26-.49,1.63-.28,.38,.21,.89,.25,1.23,.74,.5,.71,.89,1.36,.79,2.23-.02,.19-.19,.36-.27,.55-.09,.24-.15,.49-.23,.73l-.28-.3Z"/><path class="d" d="M50.26,45.05l-.48,.52,.24,.21c-.26,.17-.52,.32-.77,.5-.27,.19-1.53,.03-1.79-.23-.04-.04-.09-.09-.13-.08-.53,.15-.66-.46-1.06-.55-.01,0-.03-.02-.04-.04-.27-.77-.77-1.53-.45-2.37,.2-.55,.53-1.17,.99-1.47,.62-.4,1.42-.83,2.19-.49,.41,.18,.84,.45,1.24,.68,.52,.3,.25,.94,.79,1.15,.25,.1,0,1.5-.2,1.76-.14,.19-.17,.48-.25,.72l-.3-.32Z"/><path class="d" d="M115.15,43.57c-.06,.36,.16,.83-.37,1.03-.01,0-.02,.03-.02,.05-.08,.71-.62,.9-1.15,1.25-.58,.39-1.08,.24-1.61,.29-.14,.01-.3-.14-.45-.22-.06-.03-.1-.12-.15-.13-.73-.07-.92-.63-1.27-1.17-.35-.54-.35-1.04-.27-1.52,.09-.49,.44-.95,.68-1.4,.28-.52,.92-.26,1.11-.8,.08-.24,1.57-.03,1.79,.2,.03,.04,.07,.09,.11,.1,.71,.11,.96,.58,1.26,1.2,.18,.38,.31,.71,.34,1.12Z"/><path class="d" d="M101.96,120.99c-.34-.06-.79,.17-.97-.35,0-.01-.03-.02-.05-.02-.78-.06-1-.63-1.35-1.24-.26-.45-.25-.83-.28-1.26-.03-.41,.49-1.24,.78-1.57,.62-.72,1.39-.96,2.31-.88,.2,.02,1.18,.74,1.34,.76,.65,.11,.27,.91,.81,1.12,.26,.1,.03,1.47-.23,1.73-.06,.06-.09,.14-.11,.22-.12,.63-.5,.9-1.1,1.14-.38,.15-.72,.38-1.16,.34Z"/><path class="d" d="M61.14,119.82l-.7,.31,.4,.37c-.26,.18-.51,.42-.8,.52-.29,.1-.63,.08-.95,.06-.28-.02-.67,.19-.78-.3,0-.03-.1-.08-.13-.07-.53,.15-.66-.46-1.06-.55-.01,0-.03-.02-.04-.04-.24-.76-.78-1.49-.46-2.31,.21-.55,.61-1.02,.95-1.52,.04-.06,.2-.05,.3-.08,.12-.03,.31,0,.35-.08,.44-.72,1.27-.49,1.63-.28,.38,.22,.89,.26,1.23,.74,.51,.7,.89,1.36,.79,2.23-.02,.19-.19,.36-.27,.55-.09,.24-.15,.49-.23,.73l-.25-.27Z"/><path class="d" d="M43.19,51.75c-.44-.16-.89,.15-1.07-.39-.02-.05-.19-.05-.29-.07-.52-.12-.75-.52-1.02-.94-.34-.53-.48-1.08-.36-1.65,.11-.53,.47-.98,.71-1.45,.28-.55,.94-.26,1.16-.81,.1-.25,1.42,0,1.71,.26,.02,.02,.05,.05,.08,.06,.74,.1,.94,.65,1.3,1.22,.35,.55,.28,1.02,.31,1.54,0,.15-.15,.3-.24,.45-.03,.06-.13,.11-.12,.15,.15,.53-.46,.65-.55,1.05,0,.03-.04,.06-.07,.07-.54,.19-1.08,.37-1.54,.53Z"/><path class="d" d="M117.84,51.55c-.35-.09-.81,.18-.99-.36,0-.01-.03-.02-.04-.02-.75-.07-.99-.58-1.33-1.19-.27-.48-.34-.91-.29-1.36,.07-.57,.33-1.08,.76-1.53,.65-.7,1.42-1.02,2.31-.84,.49,.1,.92,.49,1.37,.71,.56,.27,.24,.94,.79,1.15,.25,.1,.03,1.49-.23,1.73-.02,.02-.07,.04-.07,.07-.09,.79-.54,1.19-1.31,1.29-.18,.56-.65,.25-.98,.36Z"/><path class="d" d="M55.89,39.92c-.16,.18-.29,.32-.41,.46-.02,.03-.02,.08-.05,.09-.78,.24-1.53,.79-2.38,.47-.52-.2-.97-.6-1.44-.91-.01,0-.03-.02-.04-.04-.18-.74-.81-1.44-.43-2.2,.21-.42,.29-.92,.75-1.29,.7-.57,1.39-.94,2.29-.81,.16,.02,.3,.16,.45,.25,.07,.04,.13,.12,.21,.13,.69,.09,.89,.59,1.2,1.14,.31,.54,.37,1.03,.33,1.58-.01,.16-.18,.3-.24,.45-.1,.23-.17,.48-.24,.69Z"/><path class="d" d="M85.97,121.04c.31,.05,.76-.16,.95,.36,.02,.05,.2,.03,.3,.05,.41,.08,.89,.6,.98,1.01,.03,.14,.16,.26,.25,.39,.05,.08,.14,.18,.13,.26-.08,.53,.35,1.17-.34,1.57-.03,.02-.02,.1-.03,.15-.09,.68-.52,.91-1.12,1.19-.53,.25-1,.37-1.53,.32-.17-.01-.33-.16-.49-.25-.07-.04-.14-.11-.21-.12-.67-.1-1.07-.46-1.18-1.16-.04-.26-.32-.5-.35-.76-.09-.84,.17-1.57,.81-2.16,.55-.5,1.2-.85,1.84-.85Z"/><path class="d" d="M76.94,125.9c-.3,.12-.68-.04-.89,.4-.12,.25-1.44,.04-1.68-.21-.04-.05-.11-.09-.17-.1-.71-.08-1-.52-1.24-1.17-.14-.38-.37-.7-.35-1.14,.03-.58,.39-1.28,.82-1.75,.59-.65,1.3-.94,2.16-.87,.23,.02,.52-.06,.59,.3,0,.04,.11,.09,.17,.1,.69,.12,.9,.62,1.23,1.17,.32,.54,.34,1,.33,1.53,0,.15-.17,.3-.24,.46-.1,.25-.18,.51-.27,.76l-.24-.27-.51,.51,.29,.28Z"/><path class="d" d="M125.19,98.33l-.7,.31,.4,.36c-.27,.17-.54,.33-.81,.52-.26,.18-1.48,.04-1.71-.21-.03-.04-.07-.09-.11-.1-.79-.07-1.05-.59-1.34-1.26-.16-.37-.31-.71-.3-1.1,.03-.67,.32-1.21,.79-1.7,.62-.66,1.33-.96,2.21-.86,.19,.02,.36,.18,.54,.28,.06,.03,.11,.09,.17,.1,.7,.11,.91,.6,1.24,1.17,.32,.55,.35,1.04,.33,1.58,0,.14-.16,.27-.22,.41-.1,.25-.19,.5-.28,.75l-.21-.24Z"/><path class="d" d="M40.62,97.04c-.18,.41,.02,.84-.48,1.02-.04,.02-.04,.16-.06,.24-.09,.52-.6,.84-1.07,1.09-.51,.27-.98,.45-1.53,.36-.19-.03-.36-.18-.54-.28-.06-.03-.11-.09-.17-.1-.73-.07-.97-.58-1.25-1.18-.16-.37-.34-.68-.35-1.09,0-.72,.34-1.26,.81-1.76,.57-.6,1.22-.95,2.06-.89,.26,.02,.59-.09,.69,.32,0,.04,.12,.06,.18,.08,.62,.17,1.09,.44,1.18,1.19,.04,.35,.34,.67,.52,1Z"/><path class="d" d="M128.63,83.67c-.38-.19-.81,.04-.96-.47-.01-.03-.13-.04-.2-.05-.72-.04-.95-.57-1.15-1.13-.14-.4-.38-.8-.36-1.19,.03-.47,.2-.98,.46-1.37,.24-.37,.65-.62,1.07-.87,.47-.28,.92-.44,1.37-.32,.51,.13,.94,.53,1.44,.71,.61,.21,.37,.93,.86,1.23,.27,.17,.03,1.27-.25,1.57-.04,.05-.08,.12-.08,.18-.09,.7-.5,1.04-1.17,1.2-.36,.09-.69,.33-1.03,.51Z"/><path class="d" d="M123.12,56.85c-.27-.06-.69,.16-.85-.34-.01-.03-.13-.04-.2-.05-.71-.05-.95-.56-1.14-1.13-.13-.4-.35-.79-.37-1.2-.04-.95,.72-1.74,1.55-2.23,.47-.28,.88-.36,1.37-.36,.3,0,1.15,.52,1.49,.83,.61,.56,.9,1.24,.87,2.06-.01,.35-.45,1.17-.85,1.56-.53,.53-1.2,.84-1.87,.84Z"/><path class="d" d="M128.63,73c-.39-.2-.82,.03-.97-.48-.01-.03-.13-.04-.2-.05-.72-.04-.95-.58-1.15-1.14-.13-.35-.35-.69-.37-1.04-.07-1.05,.62-1.84,1.58-2.37,.42-.23,.78-.44,1.21-.34,.49,.11,1.05,.26,1.42,.57,.68,.58,1.15,1.35,1.06,2.31-.02,.21-.18,.41-.28,.61-.01,.03-.07,.04-.07,.07-.11,.79-.54,1.23-1.34,1.37-.31,.05-.58,.32-.87,.48Z"/><path class="d" d="M101.72,35.59c-.24-.07-.5-.13-.73-.22-1.11-.45-1.78-1.31-1.82-2.48-.05-1.28,1.32-2.66,2.65-2.64,1.2,.01,2.63,1.37,2.6,2.66-.03,1.29-1.3,2.63-2.7,2.68Z"/><path class="d" d="M32.45,83.74c-1.37-.04-2.6-1.3-2.61-2.66-.01-1.29,1.32-2.61,2.6-2.63,.27,0,.56,.05,.8,.16,1.06,.49,1.82,1.26,1.85,2.48,.04,1.3-1.29,2.63-2.64,2.65Z"/><path class="d" d="M40.45,54.57c-.09,.16-.24,.43-.39,.69,0,.01-.03,.03-.03,.04-.11,.79-.58,1.16-1.34,1.42-.31,.11-.61,.32-.97,.3-.31-.02-.7,.13-.86-.33-.01-.04-.12-.05-.19-.06-.68-.08-.97-.57-1.17-1.14-.14-.4-.35-.8-.37-1.2-.04-.9,.76-1.78,1.56-2.2,.37-.19,.69-.33,1.11-.39,.61-.08,1.01,.35,1.43,.59,.75,.42,1.08,1.23,1.22,2.26Z"/><path class="d" d="M32.38,73.12c-.25-.07-.5-.12-.73-.22-1.11-.46-1.78-1.3-1.83-2.48-.05-1.28,1.32-2.65,2.65-2.64,.25,0,.52,.06,.74,.17,1.07,.49,1.83,1.26,1.85,2.49,.03,1.29-1.29,2.63-2.68,2.69Z"/><path class="d" d="M59.05,35.62c-1.1,.08-2.62-1.6-2.64-2.63-.01-1.03,1.58-2.7,2.67-2.69,.96,0,2.64,1.65,2.64,2.67,0,1-1.62,2.77-2.68,2.64Z"/><path class="d" d="M75.21,24.97s.17,.13,.32,.22c.1,.06,.21,.14,.32,.14,.51-.01,.73,.4,1.06,.67,.32,.26,.44,.57,.44,.96,0,.07,.09,.14,.15,.19,.31,.29,.29,.58,.04,.9-.08,.1-.2,.22-.19,.33,.02,.54-.5,.72-.68,1.08-.28,.6-1.07,.16-1.31,.75-.02,.05-.34,.08-.4,.02-.36-.4-1.01-.19-1.33-.67-.15-.22-.42-.37-.62-.56-.08-.08-.13-.19-.18-.29-.11-.25-.23-.49-.3-.75-.05-.18-.12-.47-.03-.56,.4-.41,.21-1.1,.74-1.46,.24-.16,1.56-.96,1.97-.96Z"/><path class="d" d="M96.62,126.43c-.19-.14-.32-.23-.45-.32-.08-.05-.16-.13-.26-.15-.88-.17-1.4-.71-1.58-1.58-.02-.09-.09-.18-.15-.26-.21-.31-.25-.61,.03-.9,.04-.04,.1-.08,.1-.12-.08-.77,.58-1.06,.97-1.52,.07-.08,.21-.09,.31-.15,.21-.11,.42-.29,.64-.32,.26-.04,.55,.02,.82,.07,.12,.02,.21,.17,.33,.2,.84,.2,1.35,.7,1.52,1.55,.02,.1,.1,.21,.18,.28,.3,.28,.23,.57,.04,.88-.09,.14-.23,.29-.22,.42,.03,.49-.41,.66-.63,.97-.24,.33-.59,.48-1.03,.49-.2,0-.38,.26-.62,.43Z"/><path class="d" d="M88.49,27.58c-.13,.19-.23,.34-.33,.48-.04,.06-.12,.11-.12,.16,.03,.62-.47,.88-.79,1.3-.37,.48-1,.23-1.34,.68-.04,.06-.42-.14-.65-.22-.09-.03-.18-.09-.28-.11-.84-.18-1.33-.7-1.53-1.52-.03-.11-.1-.21-.16-.31-.21-.31-.24-.6,.02-.9,.07-.08,.12-.21,.14-.32,.14-.69,.8-1.35,1.5-1.51,.12-.03,.22-.18,.33-.19,.29-.04,.59-.05,.88-.02,.13,.01,.26,.22,.37,.21,.5-.05,.7,.37,1,.61,.29,.24,.51,.54,.5,.99,0,.21,.26,.42,.44,.68Z"/><path class="d" d="M131.32,91.54c-.12,.19-.2,.32-.29,.46-.06,.1-.16,.2-.16,.3,.02,.56-.47,.77-.73,1.15-.26,.38-.56,.37-.9,.41-.08,.01-.15,.12-.23,.18-.29,.24-.57,.28-.85-.02-.07-.08-.19-.16-.29-.16-.55,.02-.76-.47-1.13-.7-.54-.33-.24-1-.69-1.32-.04-.03-.05-.14-.03-.2,.24-.66,.29-1.43,.94-1.87,.43-.29,.86-.57,1.32-.79,.18-.08,.45-.02,.66,.05,.23,.07,.45,.19,.65,.32,.27,.17,.55,.34,.78,.56,.3,.27,.5,.59,.5,1.04,0,.19,.26,.38,.43,.61Z"/><path class="d" d="M67.33,123.74c-.14,.2-.24,.34-.34,.48-.05,.08-.13,.18-.13,.27,.02,.54-.48,.76-.69,1.13-.31,.56-1.05,.18-1.32,.74-.02,.05-.47-.1-.72-.17-.09-.03-.16-.13-.25-.15-.89-.17-1.4-.7-1.59-1.57-.02-.11-.17-.19-.18-.3-.02-.28,0-.56,.02-.83,0-.05,.14-.1,.14-.14-.08-.76,.57-1.07,.96-1.52,.07-.08,.2-.1,.31-.15,.22-.11,.42-.28,.65-.32,.26-.04,.55,0,.82,.06,.13,.03,.26,.21,.38,.21,.51-.03,.7,.42,1.03,.65,.35,.25,.42,.6,.47,1,.03,.2,.26,.38,.45,.62Z"/><path class="d" d="M32.46,94.46c-.15-.1-.27-.18-.39-.26-.08-.05-.17-.15-.25-.15-.59,.02-.81-.52-1.21-.76-.56-.34-.25-.99-.66-1.34-.07-.06,.04-.36,.09-.54,.02-.09,.15-.17,.15-.25-.03-.61,.5-.84,.77-1.24,.35-.51,1.04-.18,1.26-.74,.01-.03,.11-.05,.15-.03,.47,.28,1.08,.25,1.5,.66,.13,.13,.26,.27,.42,.34,.61,.27,.23,1.08,.77,1.38,.03,.02,.04,.12,.02,.15-.31,.46-.2,1.1-.67,1.48-.17,.14-.41,.28-.46,.47-.12,.48-.49,.33-.78,.42-.24,.08-.45,.25-.71,.41Z"/><path class="d" d="M128.52,62.2c-.14-.08-.25-.15-.36-.22-.09-.06-.19-.18-.28-.17-.6,.02-.8-.53-1.2-.76-.58-.34-.22-1-.65-1.34-.07-.05,.04-.35,.09-.53,.03-.13,.14-.25,.14-.37-.01-.56,.51-.73,.73-1.1,.32-.55,1.02-.23,1.31-.74,.03-.06,.38,.03,.57,.08,.15,.05,.29,.22,.42,.21,.53-.04,.72,.41,1.04,.67,.32,.26,.54,.58,.47,1.03,0,.05,.11,.11,.15,.18,.07,.11,.2,.3,.17,.34-.36,.41-.16,1.08-.66,1.44-.19,.14-.45,.31-.49,.51-.09,.42-.39,.3-.64,.37-.15,.04-.3,.13-.44,.2-.12,.06-.23,.13-.38,.21Z"/><path class="d" d="M34.69,59.74c.15,1.42-.82,2.33-2.31,2.32-1.4,0-2.29-.97-2.3-2.34,0-1.37,.97-2.29,2.32-2.3,1.39,0,2.45,.87,2.28,2.32Z"/><path class="d" d="M66.63,26.54c0,.48-.03,1.12,.01,1.76,.04,.58-.4,.8-.71,1.14-.82,.91-1.85,.25-2.69,.44-.31-.34-.58-.61-.82-.9-.11-.13-.25-.28-.26-.44-.04-.49,0-.99-.04-1.49-.05-.62,.42-.86,.76-1.23,.78-.85,1.72-.38,2.59-.38,.23,0,.47,.35,.7,.55,.14,.12,.24,.28,.46,.54Z"/><path class="d" d="M95.28,29.81c-.31-.34-.58-.61-.82-.9-.11-.13-.25-.28-.26-.44-.04-.49,0-.99-.04-1.49-.05-.62,.42-.86,.76-1.23,.78-.85,1.72-.38,2.59-.38,.23,0,.47,.35,.7,.55,.14,.12,.24,.28,.46,.54,0,.48-.03,1.12,.01,1.76,.04,.57-.4,.8-.71,1.14-.82,.91-1.85,.25-2.69,.44Z"/><path class="d" d="M48.56,120.71c-1.38,.2-2.3-.97-2.32-2.24-.02-1.34,.98-2.32,2.3-2.33,1.32,0,2.31,.91,2.3,2.29,0,1.37-.89,2.47-2.29,2.28Z"/><path class="d" d="M114.88,117.06c0,.57-.03,1.14,.01,1.7,.04,.64-.35,.96-.76,1.37-.81,.81-1.73,.29-2.59,.36-.17,.01-.45-.23-.52-.42-.16-.38-.69-.5-.64-1.03,.05-.42,.02-.85,0-1.28-.04-.63,.41-.89,.78-1.28,.78-.82,1.69-.36,2.55-.37,.23,0,.48,.34,.71,.55,.14,.12,.24,.29,.35,.43l.12-.04Z"/><path class="d" d="M123.27,109.85c-.18,0-.36-.01-.53,0-.61,.05-.87-.39-1.25-.75-.81-.77-.36-1.66-.38-2.5,0-.2,.23-.49,.44-.6,.38-.2,.56-.73,1.12-.65,.38,.05,.78,.04,1.17,0,.63-.06,.89,.41,1.28,.76,.83,.76,.34,1.68,.38,2.53,0,.23-.28,.53-.51,.72-.63,.52-.65,.51-1.7,.49Z"/><path class="d" d="M45.45,113.06c0,.23-.02,.46,0,.69,.05,.58-.41,.82-.72,1.17-.75,.87-1.71,.34-2.57,.38-.22,.01-.5-.3-.7-.51-.78-.8-.53-1.79-.45-2.73,.02-.22,.25-.49,.45-.6,.39-.21,.61-.73,1.2-.61,.37,.08,.78,.03,1.17,0,.58-.04,.91,.32,1.17,.75,.48,.78,.46,.78,.45,1.45Z"/><path class="d" d="M117.97,115.26c-.42-.04-.99,.08-1.24-.15-.61-.54-1.1-1.15-1.1-2.15,0-1.35,.97-2.31,2.31-2.31,1.37,0,2.33,.88,2.32,2.31-.01,1.38-.87,2.45-2.29,2.3Z"/><path class="d" d="M82.86,127.95c0,.43-.03,1,.01,1.57,.04,.64-.35,.96-.76,1.37-.81,.82-1.73,.29-2.59,.36-.17,.01-.44-.23-.52-.42-.16-.38-.69-.5-.64-1.03,.05-.42,.03-.85,0-1.28-.04-.63,.41-.89,.78-1.28,.78-.82,1.69-.37,2.55-.37,.24,0,.48,.38,.72,.6,.13,.12,.24,.25,.46,.47Z"/><path class="d" d="M133.93,77.8c-1.38,.21-2.31-.99-2.33-2.23-.02-1.32,1-2.33,2.31-2.33,1.29,0,2.31,.92,2.29,2.31-.02,1.31-.91,2.44-2.27,2.24Z"/><path class="d" d="M40.11,107.73c.19,1.4-.86,2.35-2.21,2.36-1.4,.01-2.32-1.03-2.35-2.26-.03-1.34,.99-2.34,2.29-2.35,1.31,0,2.46,.93,2.27,2.24Z"/><path class="d" d="M93.55,129.05c.17,1.31-.87,2.3-2.3,2.29-1.31,0-2.25-1.09-2.26-2.32-.01-1.25,1.03-2.3,2.33-2.28,1.22,.01,2.44,.92,2.22,2.31Z"/><path class="d" d="M120.06,38.18c.18,1.33-.88,2.3-2.23,2.32-1.39,.01-2.31-1.09-2.33-2.31-.02-1.24,1.04-2.29,2.29-2.29,1.25,0,2.47,.92,2.26,2.28Z"/><path class="d" d="M69.95,131.33c-1.36,.23-2.29-1.05-2.31-2.23-.03-1.29,1.03-2.33,2.3-2.33,1.24,0,2.31,.92,2.29,2.3-.02,1.31-.92,2.46-2.28,2.25Z"/><path class="d" d="M109.55,123.66c.19,1.31-.92,2.38-2.27,2.28-1.5-.11-2.14-.77-2.25-2.3-.09-1.2,1.03-2.34,2.3-2.25,1.49,.11,2.22,.75,2.22,2.27Z"/><path class="d" d="M45.29,38.39c.18,1.28-.92,2.35-2.32,2.24-1.46-.11-2.1-.78-2.21-2.29-.09-1.22,1.03-2.35,2.29-2.26,1.52,.1,2.24,.75,2.24,2.31Z"/><path class="d" d="M136.17,86.25c.19,1.26-.94,2.35-2.28,2.25-1.47-.11-2.13-.78-2.25-2.27-.09-1.21,1.05-2.37,2.3-2.27,1.5,.11,2.22,.76,2.22,2.3Z"/><path class="d" d="M27.11,78.02c-1.52,0-2.17-.74-2.29-2.24-.09-1.24,1.03-2.36,2.27-2.28,1.53,.1,2.18,.74,2.28,2.29,.08,1.29-.95,2.45-2.26,2.23Z"/><path class="d" d="M125.4,43.57c.18,1.27-.92,2.34-2.32,2.23-1.45-.11-2.09-.78-2.2-2.3-.09-1.21,1.03-2.35,2.3-2.26,1.51,.11,2.23,.75,2.23,2.32Z"/><path class="d" d="M130.86,102.23c.21,1.31-.95,2.39-2.22,2.3-1.52-.11-2.18-.76-2.3-2.27-.1-1.19,1.06-2.36,2.25-2.28,1.52,.1,2.27,.74,2.27,2.24Z"/><path class="d" d="M53.85,126.02c-1.47,0-2.2-.76-2.2-2.27,0-1.48,.77-2.22,2.3-2.22,1.47,0,2.12,.76,2.22,2.3,.08,1.23-.98,2.43-2.32,2.2Z"/><path class="d" d="M114.7,32.84c.21,1.31-.95,2.39-2.22,2.3-1.52-.11-2.18-.77-2.3-2.27-.09-1.19,1.06-2.36,2.25-2.28,1.52,.1,2.27,.74,2.27,2.24Z"/><path class="d" d="M37.7,45.96c-1.48,0-2.14-.75-2.26-2.24-.1-1.21,1.05-2.37,2.3-2.28,1.49,.11,2.15,.77,2.25,2.29,.08,1.27-.98,2.46-2.29,2.23Z"/><path class="d" d="M133.86,67.11c-1.48,0-2.23-.76-2.22-2.28,0-1.42,.8-2.21,2.24-2.21,1.5,0,2.17,.76,2.27,2.27,.08,1.22-1.02,2.45-2.29,2.22Z"/><path class="d" d="M32.49,104.7c-1.47,0-2.23-.76-2.23-2.23,0-1.47,.78-2.26,2.26-2.26,1.48,0,2.15,.76,2.25,2.25,.09,1.24-1.03,2.47-2.28,2.24Z"/><path class="d" d="M50.62,33.01c.21,1.25-.98,2.37-2.24,2.27-1.49-.11-2.25-.78-2.25-2.28,0-1.47,.77-2.24,2.26-2.24,1.48,0,2.22,.75,2.23,2.24Z"/><path class="d" d="M80.42,24.5c-1.51,0-2.27-.74-2.28-2.22,0-1.47,.78-2.26,2.24-2.26,1.49,0,2.16,.75,2.28,2.22,.1,1.28-1.03,2.5-2.24,2.27Z"/><path class="d" d="M29.37,86.48c.2,1.21-.99,2.34-2.27,2.24-1.46-.12-2.22-.8-2.22-2.31,0-1.44,.8-2.21,2.3-2.2,1.44,0,2.19,.78,2.19,2.28Z"/><path class="d" d="M25.54,66.84c-.24-.33-.49-.55-.58-.82-.11-.34-.11-.72-.12-1.09-.02-.77,.39-1.24,.99-1.7,.55-.42,1.11-.45,1.67-.34,.57,.1,1.07,.36,1.45,.94,.35,.52,.39,1.01,.36,1.56-.03,.71-.4,1.16-.99,1.6-.52,.39-1.02,.34-1.55,.35-.29,0-.58,.04-.78-.3-.08-.14-.37-.16-.45-.19Z"/><path class="d" d="M128.53,51.1c-1.11,.21-2.29-1.18-2.31-2.21-.02-1.08,1.22-2.32,2.29-2.31,1.05,0,2.28,1.17,2.27,2.29-.01,1.08-1.17,2.4-2.25,2.23Z"/><path class="d" d="M71.95,22.32c.17,1.02-1.16,2.25-2.26,2.24-1.04-.01-2.28-1.24-2.26-2.32,.02-.98,1.24-2.26,2.3-2.24,1.01,.02,2.42,1.19,2.21,2.32Z"/><path class="d" d="M91.03,24.48c-1.03,.18-2.27-1.19-2.24-2.29,.03-.97,1.23-2.25,2.32-2.22,.99,.03,2.27,1.18,2.23,2.34-.03,1.01-1.19,2.38-2.32,2.18Z"/><path class="d" d="M101.98,131.25c-1.21,0-2.17-1.04-2.25-2.26-.07-.95,1.27-2.31,2.27-2.23,1.21,.09,2.21,1.04,2.21,2.29,0,1.19-1.02,2.19-2.23,2.2Z"/><path class="d" d="M34.62,49.06c.19,1.04-1.18,2.28-2.23,2.28-1.04,0-2.29-1.26-2.28-2.29,.01-.99,1.27-2.25,2.26-2.26,1.03-.01,2.42,1.21,2.25,2.27Z"/><path class="d" d="M59.27,131.33c-1.19,0-2.24-1.03-2.24-2.2,0-1.19,1.04-2.25,2.21-2.26,1.23,0,2.25,1.01,2.25,2.24,0,1.2-1.02,2.22-2.21,2.22Z"/><path class="d" d="M109.34,27.54c.19,1.04-1.18,2.28-2.24,2.28-1.04,0-2.29-1.26-2.28-2.29,.01-.99,1.27-2.25,2.26-2.26,1.03,0,2.42,1.21,2.25,2.27Z"/><path class="d" d="M53.71,29.89c-1.03,.18-2.29-1.25-2.28-2.25,.01-.96,1.28-2.31,2.28-2.24,1.24,.09,2.16,1.02,2.25,2.28,.07,.98-1.24,2.4-2.25,2.21Z"/><path class="d" d="M136.21,96.92c-.04,.27,0,.65-.15,.8-.61,.59-1.01,1.53-2.1,1.42-.28-.03-.68,.06-.81-.1-.56-.65-1.51-1.03-1.44-2.14,.06-1.07,1.16-2.22,2.24-2.22,1.11,0,2.23,1.12,2.26,2.24Z"/><path class="d" d="M27.12,99.36c-1.04,0-2.2-1.18-2.2-2.24,0-1.07,1.17-2.23,2.26-2.2,.27,0,.6,.03,.79,.18,.68,.54,1.46,1.01,1.41,2.08-.05,1.06-1.17,2.18-2.26,2.18Z"/><path class="d" d="M136.08,54.18c0,1.07-1.14,2.24-2.2,2.23-.28,0-.67,.04-.8-.12-.56-.63-1.47-1.02-1.44-2.08,.03-1.06,1.18-2.24,2.24-2.24,1.04,0,2.21,1.16,2.21,2.21Z"/><path class="d" d="M77.51,134.39c0,1.06-1.16,2.23-2.21,2.24-1.03,0-2.22-1.19-2.23-2.21,0-1.02,1.18-2.22,2.2-2.22,1.06,0,2.23,1.15,2.23,2.2Z"/><path class="d" d="M85.97,136.6c-.64,.11-1.01-.27-1.37-.71-.19-.24-.41-.46-.63-.68-.29-.3-.31-1.35-.03-1.64,.41-.41,.81-.82,1.22-1.23,.23-.23,1.32-.25,1.58-.03,.26,.22,.5,.46,.77,.66,.51,.39,.96,1.51,.61,2.02-.3,.43-.52,1.01-1.13,1.21-.34,.11-.63,.35-.94,.54l-.08-.14Z"/><path class="d" d="M29.27,54.42c.14,.62-.31,.97-.66,1.36-.23,.26-.51,.48-.76,.72-.23,.23-1.4,.15-1.62-.09-.19-.21-.39-.42-.62-.59-.51-.38-.79-.85-.77-1.5,.01-.58,.35-.95,.74-1.3,.22-.21,.45-.42,.68-.63,.26-.24,1.29-.27,1.57-.03,.26,.22,.53,.42,.77,.66,.38,.39,.8,.77,.68,1.4Z"/><path class="d" d="M104,22.2c.07,.63-.35,.99-.71,1.37-.24,.25-.48,.61-.77,.68-.48,.12-1.04,.14-1.52,.02-.33-.08-.57-.49-.87-.71-.65-.48-.69-1.49-.28-2.23,.3-.53,.72-.9,1.17-1.13,.39-.2,1.05-.21,1.44,0,.54,.28,.97,.82,1.39,1.3,.14,.16,.1,.47,.14,.71Z"/><path class="d" d="M61.37,22.29c-.39,.49-.41,1.08-.91,1.46-.31,.24-1.19,.86-1.48,.74-.45-.18-.89-.38-1.31-.66-.43-.29-.35-.82-.74-1.07-.07-.04-.1-.19-.1-.28,.03-.62,.29-1.15,.75-1.56,.33-.29,.69-.57,1.07-.76,.21-.1,.66-.12,.75,0,.29,.41,.84,.28,1.15,.72,.32,.45,.4,.98,.82,1.41Z"/><path class="d" d="M141.64,80.82c-.34,.56-.66,.96-.84,1.42-.21,.55-.83,.37-1.14,.77-.13,.17-.65,.25-.91-.13-.05-.08-.17-.13-.26-.15-.58-.12-.9-.49-1.08-1.02-.04-.13-.2-.22-.22-.34-.06-.28-.18-.77-.08-.83,.46-.27,.18-.97,.78-1.16,.4-.13,.74-.47,1.11-.7,.04-.02,.1-.01,.16,0,.6,.03,1.04,.37,1.51,.7,.56,.39,.4,1.09,.98,1.45Z"/><path class="d" d="M141.57,70.21c-.31,.5-.66,.9-.82,1.36-.2,.59-.94,.29-1.18,.8-.03,.06-.53-.1-.81-.17-.09-.02-.16-.13-.26-.15-.61-.1-.93-.49-1.12-1.05-.04-.12-.2-.22-.21-.34-.03-.3-.03-.61,.02-.91,.02-.15,.19-.28,.23-.44,.13-.49,.45-.78,.93-.93,.14-.04,.27-.15,.41-.19,.27-.07,.73-.24,.78-.15,.29,.44,.87,.28,1.2,.73,.34,.47,.36,1.04,.83,1.43Z"/><path class="d" d="M21.75,78.74c.44,.53,1,.56,1.47,.9,.47,.34,.21,.97,.74,1.21,.07,.03,.17,.57-.2,.82-.3,.21-.15,.72-.57,.97-.15,.09-.35,.19-.5,.31-.61,.5-1.15,.45-1.81,.02-.38-.25-.7-.47-.9-.88-.08-.17-.19-.32-.26-.49-.06-.14-.18-.31-.14-.42,.2-.51,.35-1.01,.73-1.46,.41-.49,1.06-.36,1.43-.97Z"/><path class="d" d="M98.94,134.36c-.13,.19-.2,.31-.28,.43-.06,.09-.17,.19-.18,.29-.08,.68-.44,1.04-1.12,1.13-.11,.01-.2,.19-.31,.21-.25,.06-.71,.15-.75,.08-.15-.36-.47-.24-.7-.36-.25-.13-.52-.31-.66-.54-.21-.34-.37-.74-.44-1.13-.04-.2,.2-.44,.26-.67,.09-.36,.06-.76,.53-.92,.17-.06,.3-.21,.46-.31,.15-.1,.31-.18,.48-.26,.11-.05,.25-.13,.34-.1,.49,.21,1.02,.29,1.46,.66,.31,.26,.35,.53,.45,.85,.07,.22,.28,.4,.45,.63Z"/><path class="d" d="M24.05,70.43c-.13,.18-.24,.33-.34,.49-.05,.07-.1,.14-.11,.22-.1,.67-.46,1.05-1.15,1.16-.28,.05-.52,.58-.82,.32-.37-.32-.85-.38-1.25-.67-.46-.34-.28-.93-.74-1.17-.06-.03-.09-.22-.05-.3,.21-.49,.36-.98,.69-1.44,.32-.46,.91-.28,1.18-.72,.06-.09,.52-.09,.59,0,.3,.44,.98,.18,1.22,.74,.19,.46,.5,.88,.79,1.37Z"/><path class="d" d="M37.76,120.73c-.11-.09-.22-.2-.34-.29-.06-.05-.14-.12-.21-.13-.71-.06-1.06-.47-1.19-1.14-.02-.1-.17-.19-.18-.29-.04-.26-.07-.53-.03-.79,.03-.18,.21-.34,.26-.53,.13-.45,.46-.68,.85-.87,.19-.09,.38-.2,.57-.3,.08-.04,.16-.06,.25-.08,.25-.04,1.29,.58,1.51,.65,.61,.21,.23,.99,.79,1.22,.07,.03,.07,.53-.03,.58-.35,.19-.23,.59-.4,.79-.22,.26-.34,.67-.8,.72-.19,.02-.36,.19-.55,.28-.14,.06-.28,.1-.5,.17Z"/><path class="d" d="M125.64,118.29c-.15,.19-.26,.33-.35,.47-.06,.08-.12,.17-.13,.27-.09,.64-.44,1-1.08,1.1-.11,.02-.21,.19-.32,.2-.29,.03-.58,.03-.87,0-.11-.01-.2-.18-.32-.2-.62-.11-.94-.49-1.09-1.07-.03-.12-.18-.23-.19-.35-.03-.28-.02-.57,0-.86,.01-.12,.15-.22,.18-.35,.13-.58,.5-.9,1.05-1.06,.11-.03,.21-.1,.32-.14,.18-.07,.47-.24,.54-.18,.39,.35,.97,.25,1.37,.68,.25,.27,.32,.51,.42,.81,.08,.23,.28,.41,.47,.67Z"/><path class="d" d="M66.89,134.44c-.12,.18-.19,.29-.27,.41-.06,.09-.16,.19-.18,.29-.08,.67-.44,1.05-1.12,1.13-.11,.01-.2,.18-.31,.21-.25,.06-.71,.15-.74,.08-.15-.36-.47-.24-.7-.35-.25-.13-.53-.3-.65-.53-.21-.42-.53-.96-.41-1.32,.15-.43,.26-.93,.64-1.35,.36-.4,.95-.22,1.18-.69,.02-.04,.18-.05,.25-.03,.42,.13,.9,.19,1.23,.44,.29,.22,.64,.51,.64,1.01,0,.22,.27,.44,.43,.69Z"/><path class="d" d="M120.29,123.6c-.14,.22-.22,.34-.29,.46-.06,.09-.16,.18-.18,.28-.11,.63-.43,1.05-1.11,1.14-.11,.01-.2,.18-.32,.2-.25,.06-.71,.16-.74,.09-.16-.35-.47-.24-.7-.36-.25-.12-.53-.3-.65-.53-.22-.41-.53-.96-.42-1.32,.14-.43,.27-.93,.64-1.35,.36-.41,.94-.23,1.18-.7,.01-.03,.1-.02,.15-.03,.24-.03,1.29,.54,1.51,.67,.59,.35,.37,1.1,.93,1.44Z"/><path class="d" d="M43.17,126.04c-.11-.08-.24-.17-.36-.26-.07-.05-.12-.14-.19-.15-.74-.07-1.12-.49-1.23-1.21-.04-.22-.33-.5-.27-.62,.24-.45,.3-.96,.65-1.41,.35-.45,.94-.24,1.18-.7,.02-.04,.18-.06,.25-.03,.42,.13,.91,.18,1.24,.43,.29,.22,.69,.5,.62,1.02-.01,.08,.16,.17,.18,.27,.05,.25,.13,.51,.09,.75-.04,.23-.19,.44-.32,.64-.21,.33-.36,.72-.83,.82-.21,.04-.39,.21-.59,.31-.11,.05-.23,.08-.42,.14Z"/><path class="d" d="M74.97,19.17c-.1-.08-.23-.17-.35-.26-.07-.05-.13-.14-.2-.14-.75-.06-1.12-.48-1.23-1.21-.03-.22-.33-.5-.27-.62,.24-.45,.3-.96,.65-1.41,.35-.44,.94-.24,1.19-.7,.02-.04,.18-.05,.25-.03,.42,.13,.91,.18,1.24,.44,.28,.23,.71,.5,.62,1.02-.01,.07,.16,.16,.19,.26,.06,.23,.18,.64,.11,.69-.33,.19-.24,.52-.37,.76-.18,.31-.37,.68-.81,.77-.21,.04-.39,.22-.59,.31-.11,.05-.23,.07-.42,.13Z"/><path class="d" d="M88.01,16.91c-.13,.17-.22,.29-.31,.42-.06,.08-.13,.17-.14,.26-.09,.68-.43,1.1-1.15,1.16-.1,0-.18,.16-.28,.18-.25,.06-.51,.13-.75,.1-.22-.04-.43-.2-.63-.33-.25-.16-.56-.31-.7-.55-.22-.37-.5-.87-.41-1.23,.11-.47,.28-.96,.63-1.41,.35-.45,.94-.24,1.18-.7,.02-.04,.18-.06,.25-.03,.42,.13,.91,.18,1.24,.44,.29,.22,.66,.5,.64,1.02,0,.2,.26,.41,.44,.67Z"/><path class="d" d="M34.78,113.11c-.09,.17-.15,.28-.22,.4-.07,.12-.19,.24-.21,.37-.11,.6-.53,.85-1.09,1.12-.55,.26-.89,.32-1.45,0-.47-.27-.96-.55-1.09-1.12-.03-.13-.12-.24-.17-.36-.05-.14-.17-.36-.12-.42,.34-.39,.28-.93,.66-1.36,.38-.43,.97-.23,1.25-.69,.03-.04,.18-.04,.26-.01,.41,.13,.89,.18,1.18,.44,.27,.24,.66,.52,.6,1.04-.02,.17,.26,.38,.41,.59Z"/><path class="d" d="M128.55,115.15c-.06-.04-.19-.13-.32-.22-.07-.05-.12-.15-.18-.15-.78-.06-.92-.68-1.29-1.22-.57-.81,.18-1.25,.23-1.86,.02-.21,.58-.39,.9-.58,.11-.07,.23-.12,.35-.18,.11-.05,.24-.16,.32-.13,.5,.19,1,.34,1.48,.62,.54,.31,.22,1.02,.78,1.23,.04,.01,.06,.19,.02,.25-.28,.43-.44,.93-.65,1.38-.29,.61-1.05,.24-1.26,.81-.01,.04-.17,.02-.37,.05Z"/><path class="d" d="M141.53,91.5c-.09,.17-.16,.3-.24,.43-.05,.08-.19,.17-.18,.22,.12,.52-.42,.69-.54,1.09-.02,.05-.19,.05-.28,.09-.24,.11-.46,.26-.7,.33-.2,.05-.44,.03-.65-.02-.19-.05-.37-.18-.54-.29-.26-.17-.58-.3-.76-.54-.19-.24-.22-.6-.36-.89-.15-.32-.2-.59,.13-.83,.06-.05,.05-.2,.07-.3,.1-.54,.49-.92,1-1.04,.16-.04,.29-.14,.44-.21,.09-.04,.22-.13,.29-.09,.48,.24,1.03,.23,1.48,.64,.3,.27,.36,.53,.44,.86,.05,.2,.26,.35,.42,.56Z"/><path class="d" d="M23.65,91.77c0,1.52-.33,1.84-1.82,1.9-1.39,.05-1.9-.6-1.9-1.84,0-1.34,.52-1.89,1.83-1.89,1.35,0,1.95,.39,1.9,1.84Z"/><path class="d" d="M124.98,32.98c-.03,1.42-.43,1.72-1.99,1.74-1.25,.01-1.73-.72-1.72-1.94,.02-1.31,.62-1.81,1.95-1.78,1.33,.03,1.84,.49,1.76,1.98Z"/><path class="d" d="M141.05,59.56c0,1.48-.37,1.82-1.91,1.81-1.37-.01-1.79-.47-1.8-1.89,0-1.32,.59-1.83,1.91-1.81,1.31,.02,1.87,.46,1.8,1.9Z"/><path class="d" d="M114.54,129.02c-.07,.4-.03,.86-.23,1.18-.36,.59-1.01,.65-1.66,.64-1.43-.02-1.82-.42-1.85-1.85-.02-1.32,.56-1.87,1.87-1.85,1.31,.01,1.9,.45,1.87,1.88Z"/><path class="d" d="M130.32,38.25c-.01,1.44-.39,1.78-1.94,1.76-1.34-.02-1.75-.48-1.75-1.91,0-1.27,.6-1.8,1.9-1.78,1.31,.02,1.87,.5,1.79,1.93Z"/><path class="d" d="M23.57,59.81c0,1.47-.37,1.81-1.9,1.8-1.38-.01-1.77-.44-1.79-1.87-.02-1.28,.58-1.83,1.86-1.82,1.32,0,1.9,.49,1.82,1.89Z"/><path class="d" d="M39.53,33.07c0,1.47-.37,1.81-1.9,1.8-1.38-.01-1.77-.44-1.79-1.87-.02-1.28,.58-1.83,1.86-1.82,1.32,0,1.9,.49,1.82,1.89Z"/><path class="d" d="M44.85,27.7c0,1.43-.38,1.8-1.83,1.81-1.42,0-1.8-.41-1.84-1.85-.03-1.25,.6-1.84,1.88-1.82,1.22,.01,1.89,.56,1.79,1.86Z"/><path class="d" d="M98.23,16.87c.11,1.24-.58,1.91-1.84,1.86-1.4-.06-1.78-.42-1.82-1.82-.04-1.27,.58-1.87,1.84-1.86,1.24,0,1.92,.54,1.83,1.83Z"/><path class="d" d="M50.41,129.15c0,1.47-.37,1.82-1.89,1.81-1.38,0-1.77-.43-1.79-1.86-.02-1.28,.57-1.83,1.84-1.83,1.3,0,1.92,.48,1.84,1.88Z"/><path class="d" d="M119.62,27.57c0,1.44-.38,1.79-1.87,1.79-1.4,0-1.79-.42-1.81-1.85-.02-1.3,.59-1.85,1.9-1.84,1.26,.02,1.87,.52,1.78,1.89Z"/><path class="d" d="M66.18,17.03c.11,1.14-.62,1.83-1.89,1.77-1.35-.07-1.74-.46-1.77-1.88-.03-1.2,.62-1.81,1.86-1.8,1.22,0,1.91,.58,1.8,1.91Z"/><path class="d" d="M29,107.79c0,1.47-.37,1.85-1.83,1.85-1.4,0-1.79-.41-1.83-1.8-.04-1.27,.58-1.87,1.83-1.87,1.24,0,1.93,.54,1.83,1.82Z"/><path class="d" d="M134,109.42c-1.45,0-1.84-.4-1.88-1.83-.03-1.29,.55-1.86,1.81-1.86,1.31,0,1.92,.47,1.88,1.85-.04,1.47-.36,1.83-1.82,1.84Z"/><path class="d" d="M34.2,38.38c0,1.47-.36,1.83-1.83,1.84-1.43,0-1.81-.4-1.84-1.82-.03-1.27,.57-1.86,1.83-1.86,1.27,0,1.93,.51,1.84,1.84Z"/><path class="d" d="M135.65,43.52c0,1.13-.69,1.72-1.81,1.83-.94,.09-1.86-.94-1.85-1.86,0-.92,.9-1.89,1.85-1.81,1.15,.09,1.81,.68,1.81,1.84Z"/><path class="d" d="M114.24,22.21c0,1.1-.71,1.79-1.84,1.79-1.02,0-1.76-.75-1.76-1.8,0-1.11,.71-1.81,1.83-1.8,1.1,0,1.78,.69,1.78,1.82Z"/><path class="d" d="M27.04,45.54c-1.06,0-1.8-.74-1.8-1.82,0-1.08,.71-1.78,1.79-1.79,1.14,0,1.81,.67,1.81,1.83,0,1.08-.71,1.77-1.81,1.77Z"/><path class="d" d="M82.45,139.75c0,1.11-.71,1.8-1.84,1.8-1.03,0-1.76-.74-1.77-1.8,0-1.12,.7-1.81,1.82-1.81,1.13,0,1.78,.67,1.78,1.81Z"/><path class="d" d="M48.36,24.13c-1.06,0-1.8-.74-1.81-1.8,0-1.07,.71-1.79,1.77-1.8,1.15,0,1.83,.67,1.83,1.81,0,1.08-.71,1.78-1.79,1.78Z"/><path class="d" d="M53.9,136.26c-1.02,0-1.76-.77-1.76-1.82,0-1.06,.73-1.77,1.82-1.77,1.09,0,1.78,.71,1.77,1.85,0,1.04-.74,1.74-1.83,1.74Z"/><path class="d" d="M107.3,136.15c-1.02,0-1.76-.77-1.76-1.82,0-1.06,.74-1.77,1.82-1.77,1.11,0,1.77,.7,1.77,1.85,0,1.05-.73,1.74-1.83,1.74Z"/><path class="d" d="M144.57,77.32c-1,0-1.77-.78-1.77-1.81,0-1.05,.74-1.78,1.8-1.78,1.1,0,1.78,.71,1.78,1.83,0,1.03-.75,1.75-1.81,1.75Z"/><path class="d" d="M71.76,139.78c0,1.07-.73,1.78-1.84,1.78-1,0-1.74-.79-1.74-1.83,0-1.03,.76-1.75,1.83-1.75,1.06,0,1.76,.71,1.76,1.81Z"/><path class="d" d="M93.12,139.75c0,1.06-.74,1.77-1.86,1.76-.98,0-1.73-.8-1.73-1.85,0-1,.76-1.73,1.79-1.73,1.11,0,1.8,.69,1.8,1.82Z"/><path class="d" d="M141.1,102.26c0,1.07-.74,1.77-1.85,1.77-.99,0-1.74-.8-1.74-1.84,0-1.03,.76-1.75,1.83-1.74,1.07,0,1.75,.71,1.75,1.81Z"/><path class="d" d="M23.61,102.49c0,1.04-.76,1.78-1.83,1.78-.99,0-1.75-.79-1.75-1.82,0-1.02,.75-1.75,1.81-1.75,1.05,0,1.76,.72,1.76,1.79Z"/><path class="d" d="M16.43,77.59c-1,0-1.78-.78-1.78-1.78,0-1.05,.73-1.79,1.77-1.79,1.08,0,1.8,.72,1.8,1.8,0,1.02-.75,1.77-1.79,1.77Z"/><path class="d" d="M144.58,88c-.99,0-1.75-.79-1.75-1.82,0-1,.75-1.74,1.76-1.75,1.09,0,1.8,.72,1.8,1.81,0,1.01-.77,1.75-1.81,1.75Z"/><path class="d" d="M146.35,64.88c0,.99-.79,1.75-1.82,1.75-.95,0-1.73-.81-1.74-1.78,0-1.01,.77-1.77,1.79-1.77,1.04,0,1.76,.74,1.76,1.8Z"/><path class="d" d="M16.43,88.26c-.95,0-1.75-.81-1.75-1.78,0-1.02,.77-1.78,1.8-1.77,1,0,1.75,.76,1.75,1.77,0,1.01-.78,1.78-1.8,1.78Z"/><path class="d" d="M23.49,49.07c0,1.01-.78,1.79-1.8,1.79-.95,0-1.74-.81-1.74-1.79,0-.99,.77-1.75,1.77-1.75,1.03,0,1.77,.74,1.78,1.75Z"/><path class="d" d="M140.97,48.84c0,1.02-.77,1.78-1.79,1.78-.99,0-1.77-.8-1.77-1.81,0-.99,.77-1.75,1.76-1.75,1.05,0,1.79,.73,1.79,1.77Z"/><path class="d" d="M82.15,11.62c0,.97-.8,1.75-1.79,1.75-.94,0-1.75-.82-1.75-1.78,0-1,.76-1.76,1.76-1.76,1.06,0,1.79,.73,1.78,1.8Z"/><path class="d" d="M55.46,17.01c0,.94-.82,1.74-1.79,1.74-.96,0-1.76-.83-1.75-1.82,0-.96,.79-1.72,1.77-1.72,1.02,0,1.77,.76,1.77,1.79Z"/><path class="d" d="M108.86,16.88c0,.98-.8,1.77-1.8,1.76-.96,0-1.75-.81-1.75-1.8,0-.98,.78-1.74,1.78-1.74,1.02,0,1.76,.76,1.76,1.78Z"/><path class="d" d="M18.18,65.11c0,1-.78,1.78-1.78,1.78-.95,0-1.76-.82-1.77-1.78,0-1,.76-1.76,1.76-1.76,1.03,0,1.78,.74,1.78,1.76Z"/><path class="d" d="M67.94,11.61c0-.98,.78-1.76,1.75-1.76,1,0,1.77,.77,1.77,1.76,0,.92-.83,1.75-1.75,1.76-.93,0-1.77-.83-1.77-1.76Z"/><path class="d" d="M100.26,139.71c0-.94,.8-1.76,1.74-1.76,.96,0,1.77,.8,1.77,1.75,0,.89-.85,1.75-1.73,1.76-.91,0-1.77-.83-1.77-1.75Z"/><path class="d" d="M89.3,11.57c0-.98,.77-1.76,1.76-1.75,.99,0,1.77,.78,1.76,1.77,0,.92-.83,1.75-1.75,1.75-.92,0-1.77-.84-1.77-1.77Z"/><path class="d" d="M60.53,140.94c-.3,.19-.55,.36-.81,.52-.09,.05-.2,.05-.3,.08-.39,.13-.57-.24-.86-.34-.32-.11-.61-.19-.67-.6-.03-.2-.26-.37-.33-.57-.13-.39,.13-.67,.3-.99,.16-.31,.22-.63,.65-.69,.22-.03,.43-.29,.62-.28,.33,.03,.63,.23,.96,.29,.42,.08,.57,.32,.61,.71,0,.09,.15,.16,.16,.24,.04,.3,.12,.62,.06,.91-.06,.27-.27,.5-.4,.72Z"/><path class="d" d="M128.68,125.46c-.28-.17-.51-.35-.78-.45-.31-.11-.57-.21-.6-.6,0-.12-.13-.23-.21-.34-.22-.32-.27-.62,.03-.92,.04-.04,.11-.07,.11-.1-.06-.75,.69-.73,1.04-1.1,.06-.06,.21-.08,.3-.05,.32,.1,.62,.27,.94,.32,.46,.07,.51,.37,.58,.73,.04,.19,.33,.37,.31,.53-.04,.31-.28,.6-.31,.92-.05,.43-.32,.5-.65,.62-.25,.09-.47,.27-.76,.45Z"/><path class="d" d="M145.79,95.63c.21,.34,.43,.61,.54,.91,.08,.21,.07,.5-.01,.72-.1,.29-.31,.54-.52,.89-.51-.13-.87,.87-1.58,.4-.47-.31-.87-.65-1.19-1.17-.47-.77,.46-1.1,.33-1.62,.84-.74,1.69-.68,2.42-.13Z"/><path class="d" d="M31.41,122.61c.22-.13,.48-.33,.77-.44,.2-.08,.47-.09,.67-.02,.33,.12,.63,.33,.89,.47,.17,.3,.34,.59,.5,.88,.02,.03,.02,.07,.03,.1,.12,.43-.45,1.43-.86,1.57-.17,.06-.31,.19-.46,.28-.07,.04-.16,.08-.24,.09-.45,.08-1.36-.5-1.5-.95-.04-.12-.17-.22-.2-.34-.06-.25-.17-.54-.1-.77,.09-.31,.33-.57,.51-.87Z"/><path class="d" d="M14.76,97.18c.01-.74,1.02-1.74,1.71-1.73,.74,0,1.79,1.01,1.71,1.72-.05,.41-.18,.9-.46,1.15-.33,.3-.85,.51-1.29,.52-.39,0-.88-.23-1.17-.52-.28-.29-.35-.78-.5-1.14Z"/><path class="d" d="M135.21,119.42c-.3,.17-.6,.36-.91,.53-.04,.03-.1,.03-.15,.04-.45,.09-1.36-.5-1.51-.94-.08-.23-.35-.44-.33-.65,.02-.31,.28-.6,.32-.91,.06-.41,.29-.54,.64-.62,.18-.04,.35-.29,.5-.28,.34,.04,.66,.23,1,.29,.42,.07,.59,.31,.62,.71,0,.09,.12,.16,.14,.25,.06,.24,.18,.5,.13,.72-.08,.32-.3,.6-.45,.86Z"/><path class="d" d="M123.41,127.26c.36,.15,.88,.23,1.17,.53,.28,.28,.42,.78,.46,1.2,.07,.7-1.03,1.73-1.73,1.72-.65,0-1.69-1.07-1.69-1.72,0-.71,1.01-1.73,1.79-1.72Z"/><path class="d" d="M37.87,127.45c.72-.01,1.72,.94,1.74,1.66,.02,.68-.97,1.72-1.67,1.75-.66,.03-1.74-1.04-1.74-1.71,0-.66,1.01-1.69,1.67-1.7Z"/><path class="d" d="M144.53,52.47c.72,0,1.72,.99,1.71,1.7,0,.69-1.04,1.72-1.72,1.71-.65,0-1.69-1.07-1.68-1.72,0-.67,1.03-1.69,1.69-1.69Z"/><path class="d" d="M27.21,120.19c-.65,.01-1.7-1.04-1.71-1.7,0-.68,1.01-1.7,1.69-1.7,.69,0,1.68,.95,1.71,1.65,.03,.7-.98,1.73-1.69,1.75Z"/><path class="d" d="M18.06,54.45c-.02,.7-1.04,1.7-1.72,1.67-.63-.03-1.63-1.06-1.64-1.67,0-.66,1.01-1.68,1.67-1.68,.72,0,1.7,.98,1.68,1.69Z"/><path class="d" d="M76.74,145.12c.09,.99-.54,1.4-1.43,1.4-1.04,0-1.42-.46-1.41-1.44,0-.95,.4-1.44,1.42-1.44,.9,0,1.51,.46,1.42,1.48Z"/><path class="d" d="M87.42,145.07c.09,1.03-.54,1.43-1.46,1.42-1,0-1.38-.46-1.39-1.41,0-.95,.38-1.46,1.4-1.46,.91,0,1.53,.45,1.44,1.45Z"/><path class="d" d="M124.52,22.16c0,1.06-.33,1.37-1.38,1.42-.93,.04-1.42-.45-1.42-1.4,0-.89,.49-1.47,1.4-1.43,1.04,.05,1.39,.36,1.4,1.41Z"/><path class="d" d="M140.74,112.89c0,1.09-.34,1.41-1.42,1.44-.94,.02-1.39-.45-1.39-1.39,0-.92,.44-1.48,1.4-1.45,1.05,.03,1.41,.36,1.42,1.4Z"/><path class="d" d="M44.66,134.45c0,1.07-.33,1.4-1.37,1.43-.98,.03-1.44-.43-1.44-1.39,0-.92,.44-1.48,1.4-1.45,1.04,.04,1.41,.37,1.41,1.41Z"/><path class="d" d="M60.43,11.6c.11,1-.52,1.44-1.38,1.44-1.01,0-1.44-.43-1.45-1.4,0-.93,.41-1.46,1.41-1.46,.87,0,1.51,.48,1.42,1.42Z"/><path class="d" d="M33.76,27.7c0,1.07-.33,1.38-1.4,1.41-.98,.03-1.42-.46-1.42-1.41,0-.92,.45-1.46,1.42-1.43,1.03,.04,1.39,.38,1.39,1.43Z"/><path class="d" d="M129.89,27.53c.09,.99-.54,1.4-1.43,1.39-1.03,0-1.41-.47-1.41-1.44,0-.95,.4-1.43,1.43-1.43,.9,0,1.5,.46,1.41,1.48Z"/><path class="d" d="M103.16,11.54c.09,1.03-.54,1.43-1.46,1.42-1,0-1.38-.46-1.39-1.41,0-.95,.38-1.46,1.4-1.46,.91,0,1.53,.45,1.44,1.45Z"/><path class="d" d="M119.43,134.34c.09,1-.53,1.41-1.42,1.41-1.04,0-1.42-.45-1.42-1.43,0-.95,.39-1.44,1.42-1.45,.9,0,1.51,.45,1.43,1.47Z"/><path class="d" d="M135.23,32.85c0,1.05-.34,1.37-1.41,1.39-.97,.02-1.41-.47-1.4-1.43,0-.89,.46-1.44,1.39-1.41,1.08,.03,1.43,.36,1.43,1.45Z"/><path class="d" d="M23.25,113.13c0,1.06-.33,1.41-1.37,1.42-1.06,.01-1.4-.33-1.41-1.38,0-1.02,.37-1.42,1.37-1.42,1.05,0,1.4,.34,1.41,1.38Z"/><path class="d" d="M28.42,33.06c0,1.05-.34,1.38-1.41,1.38-1.01,0-1.38-.38-1.37-1.42,0-1,.38-1.37,1.36-1.38,1.06,0,1.42,.35,1.42,1.42Z"/><path class="d" d="M151.33,80.91c0,1.02-.35,1.34-1.45,1.33-.98,0-1.32-.37-1.31-1.4,0-1.04,.35-1.39,1.39-1.38,1.04,0,1.38,.36,1.37,1.45Z"/><path class="d" d="M39.07,22.37c0,1.03-.35,1.37-1.41,1.37-1.02,0-1.36-.36-1.35-1.42,0-1,.36-1.36,1.35-1.36,1.06,0,1.41,.35,1.41,1.42Z"/><path class="d" d="M148.57,70.16c0-1.06,.32-1.38,1.37-1.38,1.03,0,1.37,.35,1.37,1.39,0,1.07-.33,1.39-1.43,1.38-1.03,0-1.3-.3-1.3-1.39Z"/><path class="d" d="M9.74,70.45c0-1.06,.32-1.38,1.37-1.36,.28,0,.64-.02,.81,.14,.34,.32,.61,.68,.57,1.26-.08,1.04-.34,1.35-1.44,1.34-1.02,0-1.31-.3-1.31-1.38Z"/><path class="d" d="M98.05,144.94c0,1.14-.32,1.46-1.37,1.46-1.06,0-1.35-.27-1.34-1.34,0-.29-.03-.66,.12-.86,.28-.36,.67-.64,1.2-.54,.29,.06,.69,0,.85,.16,.3,.31,.78,.62,.54,1.11Z"/><path class="d" d="M140.55,38.06c0,1.13-.32,1.45-1.38,1.45-1.05,0-1.34-.28-1.33-1.35,0-.29-.02-.65,.13-.85,.27-.37,.67-.64,1.2-.54,.27,.05,.68-.03,.81,.13,.29,.34,.82,.64,.57,1.16Z"/><path class="d" d="M12.49,81.16c0,1.05-.32,1.36-1.42,1.35-1.03,0-1.31-.3-1.31-1.39,0-1.06,.32-1.38,1.38-1.37,1.02,0,1.35,.35,1.35,1.41Z"/><path class="d" d="M65.96,145.86c-.65,.72-1.41,.83-2.2,.42-.45-.23-.52-.72-.47-1.2,.03-.26-.04-.59,.09-.78,.33-.51,1.34-.79,1.93-.49,.89,.45,.72,1.31,.64,2.05Z"/><path class="d" d="M20.33,38.39c.04-.27,0-.64,.15-.8,.31-.31,.65-.69,1.2-.55,.28,.07,.66,0,.85,.16,.34,.31,.61,.67,.56,1.25-.08,1-.35,1.31-1.41,1.31-1.04,0-1.32-.28-1.35-1.37Z"/><path class="d" d="M116.41,16.84c.04-.28-.02-.67,.13-.81,.32-.28,.63-.71,1.2-.56,.28,.08,.68-.01,.85,.16,.33,.31,.62,.66,.57,1.25-.09,1-.35,1.32-1.4,1.32-1.06,0-1.33-.27-1.36-1.36Z"/><path class="d" d="M44.33,16.29c.09,.72,.26,1.6-.63,1.96-.43,.18-1.12,.11-1.54-.13-.73-.42-.6-1.27-.38-1.89,.14-.39,.66-.64,1.25-.62,.56,.02,.89,.31,1.29,.69Z"/><path class="d" d="M146.06,107.59c-.06,.27-.03,.63-.19,.79-.33,.31-.7,.58-1.24,.54-1.01-.06-1.31-.33-1.3-1.4,0-.26-.04-.64,.11-.76,.33-.28,.64-.71,1.2-.56,.27,.07,.69-.01,.8,.14,.25,.36,.86,.62,.61,1.25Z"/><path class="d" d="M73.67,6.24c.04-.27-.01-.65,.15-.8,.32-.29,.64-.7,1.2-.56,.27,.07,.67-.02,.81,.14,.3,.33,.65,.64,.6,1.23-.09,1.01-.35,1.34-1.39,1.34-1.03,0-1.33-.3-1.36-1.35Z"/><path class="d" d="M87.11,6.25c-.05,.27-.01,.65-.18,.79-.34,.29-.68,.59-1.24,.55-1.02-.07-1.33-.32-1.32-1.38,0-.27-.03-.64,.12-.8,.3-.32,.66-.67,1.2-.55,.27,.06,.63-.01,.82,.14,.57,.48,.55,.52,.59,1.25Z"/><path class="d" d="M47.24,139.77c.05-.27,.02-.6,.18-.79,.29-.35,.68-.64,1.2-.54,.27,.05,.64,0,.8,.15,.33,.32,.71,.67,.56,1.24-.07,.25,.03,.63-.11,.76-.35,.3-.7,.71-1.28,.56-.27-.07-.62,0-.81-.15-.35-.3-.66-.69-.54-1.24Z"/><path class="d" d="M111.33,139.69c.03-.28-.04-.69,.12-.82,.33-.27,.63-.73,1.2-.57,.28,.08,.69-.01,.85,.16,.29,.31,.63,.62,.58,1.19-.09,1.05-.34,1.37-1.42,1.37-1.02,0-1.3-.29-1.33-1.33Z"/><path class="d" d="M151.25,59.41c0,1.07-.34,1.41-1.34,1.41-1.03,0-1.34-.31-1.33-1.36,0-.26-.04-.64,.11-.76,.34-.27,.64-.72,1.21-.56,.27,.07,.67,0,.79,.17,.26,.34,.84,.59,.57,1.11Z"/><path class="d" d="M151.27,90.81c.17,1.22,.03,1.86-.62,1.99-.49,.1-1.06,.06-1.53-.11-.21-.08-.6-.42-.5-.89,.07-.34-.09-.83,.1-1.03,.8-.87,1.68-.86,2.54,.04Z"/><path class="d" d="M12.48,91.74c0,1.07-.34,1.41-1.34,1.41-1.03,0-1.34-.31-1.33-1.36,0-.26-.04-.65,.11-.76,.34-.27,.64-.72,1.21-.57,.27,.07,.67,0,.79,.17,.26,.34,.84,.59,.57,1.11Z"/><path class="d" d="M17.86,107.74c0,1.07-.35,1.42-1.34,1.42-1.01,0-1.33-.31-1.33-1.32,0-1,.33-1.36,1.29-1.35,.28,0,.69-.02,.8,.14,.26,.35,.83,.59,.58,1.11Z"/><path class="d" d="M9.74,59.81c0-.99,.35-1.36,1.3-1.36,.94,0,1.36,.42,1.36,1.35,0,.91-.41,1.31-1.35,1.32-.95,0-1.32-.35-1.32-1.3Z"/><path class="d" d="M143.21,43.47c0-.93,.39-1.33,1.32-1.32,.88,0,1.34,.47,1.34,1.35,0,.87-.47,1.31-1.39,1.3-.87,0-1.27-.42-1.27-1.33Z"/><path class="d" d="M17.71,43.75c0,.57-.74,1.31-1.31,1.31-.61,0-1.33-.68-1.33-1.27,0-.61,.71-1.36,1.3-1.37,.56,0,1.35,.77,1.35,1.32Z"/><path class="d" d="M65.69,6.28c0,.56-.75,1.3-1.33,1.3-.61,0-1.32-.68-1.32-1.28,0-.6,.72-1.35,1.31-1.35,.56,0,1.34,.78,1.34,1.34Z"/><path class="d" d="M95.08,6.2c0-.57,.72-1.32,1.29-1.32,.59,0,1.37,.78,1.36,1.37,0,.55-.77,1.27-1.36,1.27-.6,0-1.29-.7-1.29-1.31Z"/><path class="d" d="M111.12,11.53c0-.55,.76-1.34,1.3-1.34,.51,0,1.34,.8,1.34,1.31,0,.55-.78,1.32-1.34,1.32-.56,0-1.29-.73-1.3-1.29Z"/><path class="d" d="M47.04,11.64c0-.53,.79-1.32,1.31-1.31,.5,0,1.32,.82,1.32,1.32,0,.54-.8,1.3-1.36,1.3-.54,0-1.28-.75-1.27-1.3Z"/><path class="d" d="M53.96,143.84c.43,0,1.32,.87,1.32,1.29,0,.46-.87,1.28-1.35,1.27-.45,0-1.25-.82-1.25-1.28,0-.43,.86-1.29,1.28-1.28Z"/><path class="d" d="M106.07,145.03c0-.44,.83-1.3,1.26-1.3,.45,0,1.35,.87,1.34,1.31,0,.45-.88,1.27-1.35,1.26-.46,0-1.25-.81-1.26-1.27Z"/><path class="d" d="M149.99,103.47c-.45,0-1.27-.81-1.27-1.26,0-.4,.84-1.27,1.24-1.27,.42,0,1.3,.82,1.31,1.24,.01,.46-.8,1.28-1.28,1.29Z"/><path class="d" d="M12.39,102.49c.07,.36-.87,1.29-1.25,1.26-.43-.03-1.25-.82-1.25-1.25,0-.4,.84-1.24,1.23-1.25,.42,0,1.26,.82,1.27,1.23Z"/><path class="d" d="M81.95,150.42c0,.46-.84,1.26-1.31,1.25-.46,0-1.25-.84-1.24-1.29,.01-.42,.86-1.24,1.27-1.24,.42,0,1.28,.87,1.27,1.28Z"/><path class="d" d="M134.93,128.04v1.8h-1.82v-1.79h1.82Z"/><path class="d" d="M154.35,74.59h1.81v1.81h-1.8v-1.81Z"/><path class="d" d="M70.9,151.36h-1.81v-1.81h1.81v1.81Z"/><path class="d" d="M92.26,149.49v1.8h-1.82v-1.79h1.82Z"/><path class="d" d="M150.77,49.71h-1.8v-1.79h1.79v1.79Z"/><path class="d" d="M28.11,128.3v1.76h-1.78v-1.76h1.78Z"/><path class="d" d="M127.8,133.41h1.76v1.77h-1.76v-1.77Z"/><path class="d" d="M11.92,48.24v1.74h-1.76v-1.74h1.76Z"/><path class="d" d="M4.87,76.7v-1.74h1.74v1.73h-1.74Z"/><path class="d" d="M4.92,87.28v-1.62h1.64c.39,1.67,.05,2.02-1.64,1.62Z"/><path class="d" d="M21.01,122.99h1.79c-.05,.58,.1,1.3-.18,1.59-.29,.29-1,.16-1.6,.22v-1.8Z"/><path class="d" d="M138.48,124.47v-1.72h1.73v1.72h-1.73Z"/><path class="d" d="M154.43,85.32h1.72v1.74h-1.72v-1.74Z"/><path class="d" d="M107.92,5.34v1.71h-1.72v-1.71h1.72Z"/><path class="d" d="M54.44,5.46c.4,1.67,.06,2.01-1.63,1.63v-1.63h1.63Z"/><path class="d" d="M156.03,63.98c.39,1.68,.05,2.02-1.64,1.63v-1.62h1.64Z"/><path class="d" d="M5.75,64.24c.78,0,.9,.13,.89,.93,0,.72-.17,.88-.92,.88-.79,0-.89-.11-.89-.93,0-.81,.07-.88,.92-.88Z"/><path class="d" d="M122.46,139.64c0-.82,.07-.89,.92-.89,.78,0,.89,.11,.9,.88,0,.78-.15,.93-.91,.94-.79,0-.9-.11-.9-.93Z"/><path class="d" d="M79.45,.89c0-.82,.07-.89,.91-.89,.78,0,.89,.11,.9,.87,0,.78-.15,.94-.91,.94-.79,0-.9-.11-.9-.93Z"/><path class="d" d="M132.9,22.17c0-.77,.13-.91,.88-.91,.75,0,.92,.16,.92,.89,0,.69-.2,.9-.87,.9-.75,0-.92-.16-.93-.89Z"/><path class="d" d="M33.44,135.38h-1.73v-1.73h1.72v1.73Z"/><path class="d" d="M144.7,117.36c.54,0,.89,.36,.88,.91,0,.54-.37,.89-.93,.88-.52,0-.87-.38-.86-.93,0-.47,.42-.87,.91-.86Z"/><path class="d" d="M26.11,22.38c0-.46,.41-.88,.87-.89,.5,0,.91,.38,.92,.87,0,.53-.37,.91-.9,.92-.49,0-.89-.4-.89-.9Z"/><path class="d" d="M37.92,138.94c.53,0,.91,.37,.91,.89,0,.57-.34,.91-.91,.91-.52,0-.89-.37-.89-.91,0-.5,.39-.89,.89-.89Z"/><path class="d" d="M138.26,27.49c0-.46,.41-.89,.86-.89,.51,0,.92,.38,.92,.86,0,.53-.37,.92-.89,.92-.49,0-.89-.4-.89-.89Z"/><path class="d" d="M101.14,150.33c0-.44,.47-.85,.95-.83,.41,.01,.83,.47,.83,.9,0,.49-.43,.89-.94,.88-.44,0-.85-.46-.84-.94Z"/><path class="d" d="M58.42,150.42c0-.44,.48-.85,.95-.83,.41,.01,.83,.47,.82,.9,0,.49-.43,.88-.94,.87-.44,0-.85-.46-.84-.94Z"/><path class="d" d="M15.63,118.49c0-.45,.46-.87,.92-.86,.42,0,.85,.45,.85,.87,0,.49-.41,.9-.91,.9-.45,0-.87-.44-.86-.91Z"/><path class="d" d="M128.44,15.94c.47,0,.89,.42,.89,.89,0,.49-.42,.89-.92,.89-.42,0-.85-.44-.85-.87,0-.47,.42-.9,.88-.9Z"/><path class="d" d="M91.04,0c.46,0,.89,.43,.88,.89,0,.45-.43,.88-.88,.88-.47,0-.89-.42-.9-.88,0-.48,.41-.89,.89-.89Z"/><path class="d" d="M20.78,27.69c0-.45,.46-.85,.94-.84,.42,.01,.83,.46,.83,.89,0,.49-.43,.89-.93,.88-.45,0-.85-.45-.85-.93Z"/><path class="d" d="M68.79,.89c0-.46,.45-.86,.94-.85,.42,0,.84,.45,.84,.89,0,.49-.42,.89-.92,.89-.45,0-.86-.45-.85-.93Z"/><path class="d" d="M154.46,96.62c.18-.21,.27-.39,.42-.48,.16-.09,.42-.2,.55-.13,.28,.14,.58,.35,.72,.62,.1,.18,.2,.59-.27,.71-.17,.04-.29,.35-.46,.37-.63,.1-1.02-.42-.96-1.1Z"/><path class="d" d="M32.31,17.91c-.4,0-.86-.47-.87-.88,0-.44,.44-.88,.89-.88,.41,0,.87,.47,.87,.87,0,.42-.47,.89-.89,.88Z"/><path class="d" d="M15.48,33.04c0-.32,.53-.82,.85-.81,.39,0,.86,.5,.85,.89-.01,.35-.53,.82-.9,.81-.34-.01-.81-.53-.8-.89Z"/><path class="d" d="M143.95,32.76l.49-.43-.33-.33c.61-.09,1.21,.24,1.25,.69,.04,.49-.4,.99-.88,.98-.52,0-.87-.53-.82-1.21l.29,.29Z"/><path class="d" d="M5.43,53.71c.55-.32,.98,.25,1.02,.5,.13,.73-.28,1.25-1.08,.97-.2-.07-.74-.46-.49-.96,.11-.21,.36-.34,.54-.51Z"/><path class="d" d="M154.59,54l.49-.5-.19-.19c.64-.04,1.17,.32,1.18,.8,0,.39-.49,.88-.89,.88-.48-.01-.84-.56-.79-1.19l.2,.2Z"/><path class="d" d="M11.14,112.36c.32,0,.84,.5,.84,.82,0,.3-.5,.82-.8,.83-.33,0-.84-.48-.85-.81,0-.31,.5-.83,.81-.84Z"/><path class="d" d="M149.97,112.06c.36,0,.87,.48,.87,.84,0,.33-.5,.83-.83,.84-.31,0-.83-.49-.84-.8-.01-.34,.48-.86,.81-.87Z"/><path class="d" d="M37.36,10.92c.61-.33,.9,.21,1.1,.53,.3,.49-.81,1.42-1.13,.99-.22-.28-.78-.51-.5-1.03,.11-.2,.35-.33,.53-.5Z"/><path class="d" d="M5.16,97.03l.49-.5-.19-.19c.64-.04,1.18,.31,1.19,.79,.01,.43-.47,.92-.91,.9-.47-.02-.83-.57-.77-1.2l.19,.19Z"/><path class="d" d="M42.42,145.12c0-.32,.53-.82,.86-.81,.34,0,.84,.52,.83,.86,0,.35-.53,.84-.88,.83-.34,0-.82-.53-.81-.88Z"/><path class="d" d="M117.44,144.85l.45-.47-.2-.2c.63-.06,1.18,.3,1.19,.78,.01,.4-.48,.9-.87,.89-.48,0-.85-.54-.81-1.17l.24,.17Z"/><path class="d" d="M122.46,11.35l.49-.5-.19-.19c.64-.04,1.17,.32,1.18,.8,0,.39-.49,.88-.89,.88-.48-.01-.84-.56-.79-1.19l.2,.2Z"/><path class="d" d="M149.4,38.55v-.84h.84c.22,.88,.1,1.02-.84,.84Z"/><path class="d" d="M58.6,.4c.3,.08,.64,.1,.87,.27,.1,.07,.06,.53-.07,.67-.13,.14-.58,.2-.66,.11-.18-.23-.22-.56-.32-.85l.18-.19Z"/><path class="d" d="M101.32,.31c.3,.08,.64,.1,.88,.27,.1,.07,.06,.53-.07,.67-.13,.14-.58,.2-.66,.11-.18-.22-.22-.56-.32-.85l.17-.19Z"/><path class="d" d="M74.96,155.23c.29,.09,.63,.11,.85,.28,.1,.07,.05,.53-.08,.66-.13,.13-.58,.18-.66,.09-.17-.22-.21-.56-.3-.85l.18-.18Z"/><path class="d" d="M85.65,155.21c.28,.08,.63,.08,.83,.25,.11,.09,.05,.54-.08,.7-.11,.13-.59,.16-.66,.06-.17-.23-.18-.57-.26-.86l.18-.16Z"/><path class="d" d="M11.44,38.86h-.85v-.86h.85v.86Z"/><path class="d" d="M.79,70.9H0v-.81H.79v.81Z"/><path class="d" d="M161,69.74v.83h-.82v-.83h.82Z"/><path class="d" d="M42.55,6.74v-.84h.83v.84h-.83Z"/><path class="d" d="M.81,81.58H.02v-.81H.81v.81Z"/><path class="d" d="M161.02,80.41v.85h-.82v-.84h.82Z"/><path class="d" d="M118.16,5.75v.83h-.85v-.83h.85Z"/><path class="d" d="M48.21,150.88v-.79h.81v.79h-.81Z"/><path class="d" d="M113.13,149.93v.81h-.83v-.81h.83Z"/><path class="d" d="M64.26,155.44c.29,.05,.78-.38,.84,.32-.35-.05-.75,.21-.84-.32Z"/><path class="d" d="M97.19,155.7h-.93c.01-.13,0-.35,.04-.36,.24-.04,.48-.06,.72-.03,.06,0,.09,.21,.16,.39Z"/><path class="d" d="M72.46,62.32c.17,.07,.35,.14,.51,.23,.04,.02,.05,.1,.09,.12,1,.51,2.07,.78,3.14,.43,.38-.12,.73-.4,1.17-.39-.01,.26,.04,.52-.32,.64-.09,.03-.12,.35-.12,.54-.01,.94,0,1.88,0,2.88-.48-.02-.95,.05-1.4-.26-.18-.12-.51-.09-.75-.05-.31,.06-.61,.22-.92,.31-.22,.06-.52-.04-.56,.34,0,.04-.15,.09-.22,.08-.06-.01-.16-.13-.14-.17,.07-.23,.11-.5,.26-.68,.25-.32,.26-2.42-.04-2.7-.01-.01-.04-.01-.05-.02-.22-.43-.43-.86-.65-1.3Z"/><path class="d" d="M83.55,62.71c.84,.18,1.59,.28,2.3,.49,.83,.25,1.36-.64,2.19-.49-.02,.35,.17,.72-.29,.92-.06,.03-.11,.14-.11,.22,0,.75-.03,1.49,.02,2.23,.02,.26,.27,.5,.37,.76,.03,.08-.07,.2-.11,.31-.1-.07-.2-.13-.28-.21-.05-.04-.07-.14-.12-.15-.51-.15-1.03-.32-1.55-.4-.21-.03-.44,.14-.67,.19-.36,.08-.72,.15-1.09,.17-.06,0-.18-.28-.19-.43,0-.76,.03-1.52,.02-2.28,0-.32,.03-.68-.38-.85-.07-.03-.07-.25-.12-.46Z"/><path class="d" d="M67.67,68c.28,.14,.59,.24,.84,.43,.32,.24,2.4,.18,2.68-.11,.09-.09,.23-.17,.34-.18,.15,0,.31,.07,.47,.1-.09,.1-.18,.21-.27,.31-.02,.03-.08,.05-.08,.06,.19,.79-.84,1.45-.21,2.32,.2,.28,.14,.74,.2,1.18-.3,0-.52,0-.74,0-.64,0-1.28-.04-1.91,0-.37,.02-.84-.13-1.02,.42-.01,.04-.23,.02-.4,.02,.16-.77,.28-1.51,.47-2.22,.22-.82-.55-1.39-.53-2.15l.15-.19Z"/><path class="d" d="M93.41,68.08c-.04,.35,.17,.75-.33,.94l-.02,2.51c.52,.16,.3,.58,.35,.97-.14,0-.29,.04-.33,0-.63-.78-1.51-.39-2.28-.47-.43-.04-.88,.06-1.48,.12,.1-.49,.12-.93,.3-1.3,.18-.37,.21-.66,0-1.02-.13-.21-.12-.5-.2-.75-.07-.21-.2-.4-.3-.61-.04-.07-.11-.16-.09-.22,.02-.06,.12-.14,.19-.14,.17,0,.4-.02,.51,.08,.83,.72,1.78,.33,2.65,.23,.27-.03,.56-.45,1.02-.33Z"/><path class="d" d="M71.92,83.13c-.19,.09-.44,.24-.7-.13-.07-.1-.25-.17-.38-.18-.57-.02-1.14-.03-1.71-.02-.28,0-.57-.04-.77,.31-.08,.15-.47,.12-.78,.18,.05-.42-.13-.79,.31-1.01,.07-.03,.12-.18,.12-.27,0-.67,.01-1.35-.01-2.02,0-.11-.16-.21-.2-.32-.09-.23-.14-.48-.21-.72,.15-.02,.33-.09,.46-.04,.22,.07,.42,.31,.64,.31,.81,.03,1.63,0,2.45,0,.14,0,.27,0,.59,0-.15,.37-.35,.66-.38,.97-.04,.55,.01,1.12,.05,1.67,0,.12,.13,.23,.18,.36,.11,.28,.21,.56,.34,.89Z"/><path class="d" d="M89.41,79.23c.98,0,1.86,.01,2.74-.02,.32-.01,.74,.1,.87-.39,.01-.04,.18-.08,.24-.05,.07,.04,.17,.17,.15,.22-.07,.22-.18,.44-.28,.65-.05,.11-.12,.21-.13,.32-.01,.66-.01,1.32,0,1.97,0,.11,.04,.25,.12,.33,.32,.32,.34,.34,.25,1.06-.29-.15-.53-.29-.78-.41-.1-.05-.21-.13-.32-.13-.69-.01-1.39-.01-2.08,0-.13,0-.26,.13-.39,.19-.21,.08-.42,.15-.67,.24,.27-.77,.64-1.39,.68-2.03,.04-.63-.25-1.28-.4-1.96Z"/><path class="d" d="M83.94,84.54c.86,.16,1.51,.4,2.15,.36,.61-.03,1.21-.35,1.91-.58,0,.13,.03,.49-.05,.52-.36,.13-.29,.42-.29,.66-.02,.51-.02,1.03,0,1.54,.01,.28-.07,.58,.31,.77,.13,.07,.12,.44,.18,.73-.39-.03-.76,.19-.95-.3-.03-.07-.21-.1-.32-.1-.64-.01-1.28-.02-1.92,0-.15,0-.28,.2-.43,.25-.25,.07-.52,.09-.78,.14,0-.12-.01-.35,0-.35,.42-.08,.28-.44,.35-.68,.09-.29,.2-.58,.27-.88,.04-.18,.05-.39,0-.57-.11-.46-.26-.91-.44-1.51Z"/><path class="d" d="M73.14,84.39c.63,.19,1.25,.5,1.88,.54,.62,.03,1.26-.22,1.96-.36-.05,.54,.09,1.02-.28,1.47-.11,.13-.05,.44,0,.65,.06,.27,.19,.51,.26,.78,.08,.28-.09,.67,.39,.75,.03,0,.03,.21,.06,.38-.34-.08-.73,.19-.89-.31-.02-.06-.18-.1-.27-.1-.69,0-1.39,0-2.08,0-.08,0-.18,.02-.24,.07-.41,.37-.4,.37-.99,.3,.08-.72,.69-1.32,.52-2.1-.15-.7-.22-1.42-.31-2.06Z"/><path class="d" d="M78.44,68.23s.07-.05,.1-.04c.7,.57,1.54,.36,2.33,.4,.32,.01,.64-.01,.95-.08,.42-.09,.53,.09,.45,.45-.07,.32-.23,.62-.27,.94-.04,.31,.01,.63,.06,.94,.05,.32,.15,.64,.18,.97,0,.04-.2,.11-.31,.17-.18-.42-.56-.3-.87-.31-.5-.02-.99,0-1.49,.03-.12,0-.24,.09-.36,.15-.11,.06-.21,.13-.31,.19-.04-.12-.14-.26-.12-.37,.06-.33,.19-.65,.25-.99,.04-.23,.05-.49,0-.72-.05-.28-.18-.55-.27-.82-.09-.27-.18-.55-.3-.91Z"/><path class="d" d="M76.76,77.4c-.51-.11-1.07-.34-1.62-.33-.57,.02-1.13,.27-1.76,.44,0-.24,0-.37,0-.51,0-.87,.05-1.74-.01-2.61-.03-.48,.1-.59,.51-.48,.31,.08,.62,.23,.93,.27,.25,.04,.51-.01,.76-.05,.36-.05,.71-.14,1.07-.19,.07-.01,.18,.08,.23,.15,.02,.03-.07,.14-.11,.21-.07,.14-.19,.28-.2,.43-.03,.46-.05,.93-.02,1.39,.02,.38,.13,.75,.22,1.28Z"/><path class="d" d="M87.59,73.81v3.65c-.58-.15-1.14-.4-1.7-.41-.56-.01-1.13,.22-1.77,.36,.59-1.2,.59-2.28,0-3.52,.44,.06,.87,.03,1.21,.18,.39,.18,.68,.18,1.07,0,.35-.17,.77-.18,1.19-.26Z"/><path class="d" d="M82.23,79.41c-.1,.5-.31,1.07-.3,1.63,.01,.56,.25,1.11,.41,1.75-.55-.04-1.02,.07-1.48-.24-.16-.11-.44-.11-.65-.07-.46,.11-.9,.28-1.35,.43l-.19-.18c.1-.3,.16-.63,.32-.9,.21-.35,.21-1.33-.02-1.68-.12-.18-.15-.43-.18-.66,0-.03,.23-.14,.32-.12,.25,.06,.49,.22,.74,.25,.35,.05,.71,.04,1.06,0,.39-.04,.78-.14,1.29-.23Z"/></g></g></g></svg>