<svg xmlns="http://www.w3.org/2000/svg" width="596" height="326"><g transform="translate(-23267 23628)"><path data-name="長方形 2632" fill="#f4f4f4" d="M23267-23628h596v326h-596z"/><circle data-name="楕円形 251" cx="50" cy="50" r="50" transform="translate(23393 -23472)" fill="#980000"/><path data-name="パス 3904" d="M23427.637-23442.9a1.6 1.6 0 0 0 .351-.459 3.743 3.743 0 0 0 .3-1.053c0-.243-.189-.54-.648-.972-.459-.459-1.674-1.458-2.079-1.755a50.234 50.234 0 0 0 9.774-1.89c.378.054.675.081.864.108a1.913 1.913 0 0 0 .378.027c.189 0 .378-.135.378-.27 0-.243 0-.243-2.376-1.809a26.305 26.305 0 0 1-5.832 1.944 92.176 92.176 0 0 1-12.582 2l.054.486c1.836-.054 2.457-.054 3.564-.135a2.379 2.379 0 0 1 .54.891 19.492 19.492 0 0 1 .864 2.322.962.962 0 0 0 .3.567h-3.753c.027-.324.027-.513.027-.729a10.732 10.732 0 0 0-.054-1.188h-.432a5.17 5.17 0 0 1-.513 2.43 7.116 7.116 0 0 1-1.62 1.971c-.378.27-.459.405-.459.729a3.191 3.191 0 0 0 .317 1.128c.162.378.351.567.54.567.27 0 .729-.432 1.134-1.053a6.958 6.958 0 0 0 1-3.24h17.9a25.4 25.4 0 0 1-1.241 3.213l.3.162a14.8 14.8 0 0 0 2.16-2.106c.135-.135.351-.378.621-.648 1.539-.162 1.539-.162 1.674-.3a.239.239 0 0 0 .108-.135.663.663 0 0 0-.27-.4c-1-.837-1.3-1.053-2.241-1.809l-1.269 1.4h-4.158a19.187 19.187 0 0 0 3.264-3.454c.945-.108 1.215-.216 1.215-.459s0-.243-2.808-1.134a20.061 20.061 0 0 1-2.429 5.053Zm-5.508 0a2.591 2.591 0 0 0 .567-1.4 1.439 1.439 0 0 0-.54-.945c-.3-.27-1.269-1.107-1.728-1.458 1.566-.081 2.727-.189 4.563-.351a16.47 16.47 0 0 1 1.62 3.51 1.049 1.049 0 0 0 .351.648Zm16.74 13.847a28.866 28.866 0 0 1-10.8-3 25.637 25.637 0 0 0 4.914-5.319c1.269-.243 1.4-.27 1.566-.4a.821.821 0 0 0 .135-.189 1.557 1.557 0 0 0-.216-.378c-.972-.81-1.269-1.026-2.214-1.728-.459.513-.594.675-1 1.188h-10.718a14.1 14.1 0 0 1-2.4-.189l.162.945a19.44 19.44 0 0 1 2.241-.135h.918a14.657 14.657 0 0 0 4.212 6.021 34.778 34.778 0 0 1-10.992 5.56l.135.378a29.675 29.675 0 0 0 12.123-4.887 29.3 29.3 0 0 0 4.617 2.619 23.263 23.263 0 0 0 5.13 1.809 2.73 2.73 0 0 1 2.187-2Zm-7.749-9.207a20.755 20.755 0 0 1-4.509 5.292 17.687 17.687 0 0 1-2.835-2.646 7.448 7.448 0 0 1-1.593-2.646Zm32.78-2.727h7.99c.216 0 .351-.081.351-.189a.365.365 0 0 0-.135-.243c-.783-.783-1.053-1.026-1.944-1.809-.594.7-.81.918-1.431 1.62h-2.106v-2.565h4.1c.189 0 .324-.081.324-.189 0-.054-.054-.135-.189-.27a19.967 19.967 0 0 0-1.778-1.568c-.513.567-.675.783-1.215 1.4h-1.242v-2.214h4.509c.216 0 .351-.081.351-.189 0-.054-.054-.135-.162-.27a22 22 0 0 0-1.836-1.647c-.567.621-.729.81-1.269 1.485h-1.593v-1.728c.756-.189 1-.324 1-.513 0-.243-.378-.378-1.377-.486-.3-.054-.729-.108-1.323-.216a15.437 15.437 0 0 1 .135 2.3v.648h-3.646v-1.728c.837-.216 1.08-.351 1.08-.567a.312.312 0 0 0-.216-.243c-.3-.162-.378-.189-2.538-.486.108 1.4.108 1.674.108 2.241v.783h-1.242a9.031 9.031 0 0 1-2.349-.243l.135.972a16.143 16.143 0 0 1 2.079-.108h1.377v2.214h-.486a20.881 20.881 0 0 1-2.187-.162l.108.891a18.506 18.506 0 0 1 2.079-.108h.486v2.565h-1.566a13.349 13.349 0 0 1-2.4-.189l.162.918a18.121 18.121 0 0 1 2.214-.108h4.023v2.079h-2.946a19.1 19.1 0 0 0-2.052-1.161c.054 1.3.081 3.726.081 5.994v1.7a7.517 7.517 0 0 1-2.106-.216l.162.972a15.325 15.325 0 0 1 1.944-.135c-.054 4-.054 4-.081 5.481 0 .3.081.351.459.351a5.17 5.17 0 0 0 1.134-.135c.135-.054.189-.135.189-.351v-5.344h8.424v3.024c0 .243-.054.324-.324.324-1.053 0-1.053 0-3.915-.162l.027.378a9.784 9.784 0 0 1 2.592.594c.459.27.54.405.756 1.458 2.106-.4 2.592-.783 2.592-2.025v-.621l-.027-2.268v-.7h2.754c.162 0 .3-.081.3-.189q0-.081-.162-.243a16.532 16.532 0 0 0-1.485-1.674c-.486.648-.648.837-1.134 1.485h-.27v-5.375c.81-.432 1-.594 1-.756a.663.663 0 0 0-.27-.4c-.594-.486-.81-.648-1.485-1.161a11.633 11.633 0 0 0-1.138 1.156h-3.4Zm0 8.613v-2.781h3.591v2.781Zm-1.62 0h-3.215v-2.781h3.213Zm1.62-3.4v-2.511h3.591v2.511Zm-1.62 0h-3.215v-2.511h3.213Zm-.864-11.232h3.645v2.214h-3.647Zm0 2.835h3.645v2.565h-3.647Zm-13.34-4.029c.756-.054 1.134-.081 1.863-.081h5.454c.3 0 .459-.081.459-.216a.365.365 0 0 0-.135-.243 21.143 21.143 0 0 0-1.809-1.593c-.594.594-.783.783-1.377 1.431h-2.592a10.577 10.577 0 0 1-2-.243Zm-1.242 3.568a17.373 17.373 0 0 1 2.079-.135h6.939c.189 0 .3-.081.3-.189a.365.365 0 0 0-.135-.243c-.756-.783-1.026-1.026-1.89-1.809a16.5 16.5 0 0 0-1.35 1.62h-3.864a9.427 9.427 0 0 1-2.213-.243Zm1.107 3.726c1.026-.081 1.431-.108 1.917-.108h5.427c.162 0 .324-.081.324-.189a.323.323 0 0 0-.108-.216c-.675-.675-.918-.891-1.728-1.62-.513.594-.675.783-1.188 1.4h-2.727a8.994 8.994 0 0 1-2.106-.216Zm-.081 3.564a16.7 16.7 0 0 1 2.079-.108h5.454c.189 0 .3-.081.3-.162a.7.7 0 0 0-.108-.27c-.783-.729-1.026-.972-1.89-1.728-.567.648-.7.864-1.215 1.539h-2.541a10.356 10.356 0 0 1-2.3-.216Zm1.782 9.774h3.267v1.026c.027.243.108.3.405.3.918 0 1.242-.108 1.3-.486v-.7c-.054-2.025-.054-2.025-.054-5.94.7-.378.756-.432.756-.621 0-.081-.054-.189-.243-.378-.567-.513-.756-.7-1.4-1.242a15.678 15.678 0 0 0-1.034 1.237h-2.7c-.864-.54-1.161-.729-2.025-1.242.054.648.081 2 .081 3.672 0 1.7-.027 3.7-.081 5.643.054.243.162.351.405.351h.054c.108 0 .216-.027.378-.027.621-.027.783-.135.891-.459Zm0-6.183h3.267v5.562h-3.267Zm-30.642 33.811h-1.512a9.913 9.913 0 0 1-2.079-.189l.135.945a19.619 19.619 0 0 1 1.944-.135h21.138a.218.218 0 0 0 .243-.189.394.394 0 0 0-.135-.216 53.086 53.086 0 0 0-2.241-1.971c-.7.729-.918.972-1.566 1.755h-.756v-5.778h4.729a.267.267 0 0 0 .27-.216.417.417 0 0 0-.081-.162 40.245 40.245 0 0 0-2.241-2c-.675.756-.891.972-1.539 1.755h-1.138v-5.749h3.645c.216 0 .351-.081.351-.216a1.468 1.468 0 0 0-.108-.216c-.972-.891-1.3-1.161-2.3-1.971a22.16 22.16 0 0 0-1.458 1.782h-14.17a23.085 23.085 0 0 0 1.863-2.538c1.161-.027 1.62-.135 1.62-.378s0-.243-3.078-1.323a12.689 12.689 0 0 1-1.458 3.078 35.479 35.479 0 0 1-4.428 5.8l.324.3a23.653 23.653 0 0 0 4.026-3.616v5.049h-2.16a11.34 11.34 0 0 1-2.484-.216l.135.972a18.153 18.153 0 0 1 2.349-.135h2.16Zm1.7 0v-5.778h2.808v5.778Zm4.428 0v-5.778h2.835v5.778Zm-4.428-6.4v-5.75h2.808v5.751Zm4.428 0v-5.75h2.835v5.751Zm4.455-5.751h2.862v5.751h-2.862Zm0 6.372h2.862v5.779h-2.862Zm-10.422 7.4a4.953 4.953 0 0 1-1.539 2.3 5.175 5.175 0 0 1-1.539 1.107c-.783.324-.891.459-.891 1.026 0 .7.324 1.242.729 1.242a3.185 3.185 0 0 0 1.836-1.161 7.107 7.107 0 0 0 1.809-4.4Zm3.564.054a18.959 18.959 0 0 1 .538 4.265c0 .837.108 1.107.432 1.107.621 0 1.4-.945 1.4-1.7a9.785 9.785 0 0 0-2.075-3.807Zm4.914-.027a18.539 18.539 0 0 1 1.782 4.428c.189.81.243.945.486.945.513 0 1.161-.972 1.161-1.782a1.967 1.967 0 0 0-.513-1.107 15.877 15.877 0 0 0-2.592-2.646Zm5.265.108a21.255 21.255 0 0 1 3.456 4.671c.216.459.459.7.648.7a.763.763 0 0 0 .486-.351 3.516 3.516 0 0 0 .459-1.458c0-.432-.243-.783-1.026-1.431a18.188 18.188 0 0 0-3.755-2.347Zm20.763-8.262h4.533c.216 0 .351-.081.351-.189a.394.394 0 0 0-.135-.216 15.428 15.428 0 0 0-1.944-1.809 11.806 11.806 0 0 0-1.215 1.593h-1.62v-8.209c.837-.189 1.134-.351 1.134-.594 0-.3-.378-.378-3.024-.648a28.905 28.905 0 0 1 .243 3.564v5.886h-3.482a4.736 4.736 0 0 1-1.3-.243l.108 1.026a6.571 6.571 0 0 1 1.188-.162h2.866a25.021 25.021 0 0 1-1.377 4.077 36.669 36.669 0 0 1-3.267 6.507l.274.163a17.338 17.338 0 0 0 2.457-3.24 31.065 31.065 0 0 0 2.723-5.46l-.189 5.049c-.027 4.86-.027 4.86-.162 7.1.027.351.189.459.567.459a5.355 5.355 0 0 0 1.053-.135c.216-.054.3-.108.351-.324-.081-7.236-.135-11.232-.135-11.934a9.022 9.022 0 0 1 2.565 3.485c.162.351.324.513.513.513.324 0 .648-.756.648-1.566 0-.459-.027-.648-.189-.837a3.979 3.979 0 0 0-1.242-1.026 22.774 22.774 0 0 0-2.3-1.134Zm14.283 5.4c-.027-2.97-.054-7.182-.054-8.8 0-1.107 0-3.024.027-5.292.891-.27 1.161-.405 1.161-.648 0-.3-.7-.459-3.159-.729.162 1.485.216 4.536.216 10.125v5.7l-7.7 1.512a9.648 9.648 0 0 1-1.269.108h-.243l.351.945a6.9 6.9 0 0 1 1.323-.432l7.533-1.431c0 2.43-.027 6.561-.027 7.749 0 .27.135.378.459.378a4.361 4.361 0 0 0 1.35-.189.421.421 0 0 0 .162-.324c0-1 0-1.08-.027-1.917-.054-1.566-.081-2.7-.081-3.456l-.027-2.592 4.347-.837c.162-.027.3-.162.3-.27s-.135-.27-.405-.459a26.977 26.977 0 0 0-2.349-1.35c-.513.891-.675 1.161-1.188 2.079Zm-20.306-13.123a20.846 20.846 0 0 1 1.188 3.942 11.483 11.483 0 0 1 .243 1.427c.081.3.162.378.351.378.486 0 1.026-.891 1.026-1.674a3.343 3.343 0 0 0-.7-1.674 13.424 13.424 0 0 0-1.863-2.511Zm7.047 5.859a11.245 11.245 0 0 0 1.593-2.214c.864-1.458.972-1.674 1.431-2.592.648-.054.891-.162.891-.351 0-.243-.459-.432-2.484-1a13.156 13.156 0 0 1-.513 2.4 24.9 24.9 0 0 1-1.188 3.645Zm4.995-5.211a14.519 14.519 0 0 1 3 3.78c.459.891.54 1 .783 1 .432 0 .675-.54.675-1.431a1.871 1.871 0 0 0-.944-1.918 21.91 21.91 0 0 0-3.321-1.728Zm-.864 6.721a15.453 15.453 0 0 1 3.267 3.645c.378.621.567.81.837.81.351 0 .648-.7.648-1.512a1.279 1.279 0 0 0-.432-1.188 14.106 14.106 0 0 0-4.158-1.971Z" fill="#fff"/><path data-name="パス 3900" d="M23395.86-23529.437a67.809 67.809 0 0 0 7.564-11.163c2.745-.61 3.05-.732 3.05-1.22 0-.183-.122-.366-.671-.976a102.43 102.43 0 0 0-3.6-3.05c-1.28 1.281-1.703 1.646-2.927 3.046h-3.416v-8.967c1.83-.61 2.318-.915 2.318-1.4 0-.61-.793-.793-3.721-1.037-.671-.061-1.708-.183-3.05-.305a20.682 20.682 0 0 1 .488 5.307v6.402h-4.88a22.8 22.8 0 0 1-4.758-.549l.427 2.257a32.222 32.222 0 0 1 4.331-.305h12.261a62.9 62.9 0 0 1-7.5 12.5 57.649 57.649 0 0 1-10.187 10.8l.671.915a50.945 50.945 0 0 0 9.638-7.747v10.614c-.122 8.784-.183 13.481-.183 14.152.183.488.427.61 1.342.61h.793c1.525 0 2.013-.244 2.2-1.037-.122-2.867-.122-2.867-.183-14.03v-13.109a26.868 26.868 0 0 1 7.5 6.954c1.1 1.647 1.159 1.708 1.525 2.013a3.9 3.9 0 0 0 .671.366c.732 0 1.342-1.4 1.342-2.928 0-1.891-.793-3.111-2.806-4.27a33.055 33.055 0 0 0-8.235-3.233Zm21.35-2.5v27.632h-10.8a43.761 43.761 0 0 1-6.344-.488l.549 2.318a29.439 29.439 0 0 1 5.8-.427h31.9c.305 0 .61-.183.61-.427a.792.792 0 0 0-.305-.427 76.11 76.11 0 0 0-5.673-5.307c-1.891 2.074-2.44 2.745-4.087 4.758h-7.441v-27.633h15.25a.6.6 0 0 0 .61-.488 1.049 1.049 0 0 0-.244-.427c-2.44-2.257-3.233-2.928-5.8-5.063l-3.535 4.575h-6.281v-18.359c1.769-.671 2.44-1.1 2.44-1.586 0-.549-.732-.793-3.9-1.1-.61-.061-1.891-.183-3.172-.366a50.861 50.861 0 0 1 .427 7.625v13.786h-8.666a25.688 25.688 0 0 1-5.368-.488l.488 2.318a38.191 38.191 0 0 1 4.88-.427Zm70.821-7.747h19.4c.427 0 .671-.122.671-.366a1.2 1.2 0 0 0-.244-.488c-2.257-1.952-2.928-2.562-5.246-4.453-1.647 1.647-2.135 2.2-3.721 3.9h-38.859a23.628 23.628 0 0 1-5.612-.61l.427 2.379a22.522 22.522 0 0 1 5.185-.366h7.137a33.669 33.669 0 0 1-4.331 5.917 43.173 43.173 0 0 1-9.7 8.54l.549.854a36.053 36.053 0 0 0 9.394-5.8 16.556 16.556 0 0 1 4.7 4.758c.366.488.488.61.976.671-4.27 3.294-8.784 5.612-15.86 8.174l.305.976a54.844 54.844 0 0 0 14.152-5.063c5.795-3.05 9.028-6.039 13.054-11.9 2.074-.671 2.379-.793 2.379-1.159 0-.183-.122-.366-.549-.732-1.342-1.1-1.769-1.4-3.172-2.5-1.1.915-1.4 1.159-2.44 2.135h-8.6a30.8 30.8 0 0 0 3.721-4.88h12.563v15.616c.122 3.111.671 3.294 10.492 3.294 11.346 0 12.993-.305 12.993-2.318a1.484 1.484 0 0 0-1.281-1.464c-1.1-.427-1.1-.427-1.1-.732v-1.4l.366-4.819-.732-.061a59.441 59.441 0 0 1-2.745 6.771c-.366.61-.671.671-2.989.671h-2.5c-1.586.061-2.5.061-3.05.061-1.647 0-4.575-.122-5-.183-.61-.122-.732-.305-.732-1.159v-3.477a60.168 60.168 0 0 0 12.932-4.575c.793 0 1.952.061 2.2.061.732 0 1.159-.183 1.159-.549 0-.427-.793-.915-5.185-3.294a40.2 40.2 0 0 1-11.1 7.259Zm-11.407 6.284a30.769 30.769 0 0 1-6.893 7.93 3.335 3.335 0 0 0 .488-1.769c0-1.037-.671-1.586-2.745-2.379a19.911 19.911 0 0 0-3.782-1.037c1.22-1.037 1.83-1.586 2.989-2.745Zm-2.379-15.984v-2.989c2.013-.549 2.562-.793 2.562-1.22 0-.549-.671-.732-3.6-1.037a63.44 63.44 0 0 1-3.05-.366 27.387 27.387 0 0 1 .244 3.9c0 .488 0 1.037-.061 1.708h-11.65a22.133 22.133 0 0 1-5.307-.488l.427 2.2a27.281 27.281 0 0 1 4.88-.305h11.651c0 1.1-.061 1.769-.183 3.843.061.366.244.488.61.488a10.346 10.346 0 0 0 3.294-.305c.183-.122.244-.244.244-.61-.061-.793-.122-1.22-.122-1.586l.061-1.1v-.732h11.712c0 1.159-.061 1.83-.122 3.782 0 .427.122.549.732.549 2.745 0 3.294-.122 3.355-.854-.061-1.647-.061-2.2-.061-3.477h18.666c.366 0 .61-.122.61-.366a1.2 1.2 0 0 0-.244-.488c-2.5-2.013-3.294-2.623-5.734-4.575-1.647 1.647-2.2 2.2-3.9 4.026h-9.394c0-.671 0-.671.061-2.989 2.074-.549 2.562-.793 2.562-1.22 0-.549-1.525-.854-6.771-1.4a30.1 30.1 0 0 1 .305 5.124 2.308 2.308 0 0 0-.061.488Zm-14.884 35.014a21.677 21.677 0 0 1-5.185-.427l.424 2.197a21.2 21.2 0 0 1 4.758-.366h11.1a13.071 13.071 0 0 1-3.416 7.259c-2.623 2.745-6.222 4.392-13.359 6.161l.244.915c7.5-.793 12.688-2.684 16.47-6.039 2.2-1.952 3.294-4.148 4.087-8.3h11.468v4.026c0 3.111-.061 4.819-.244 8.906 0 .488.183.671.732.671a11.244 11.244 0 0 0 3.233-.366.572.572 0 0 0 .305-.549c-.122-7.076-.122-7.442-.122-8.967v-3.718h18.483c.244 0 .549-.244.549-.427a1.2 1.2 0 0 0-.244-.488c-2.379-2.074-3.111-2.684-5.612-4.575-1.647 1.647-2.135 2.2-3.782 4.087h-9.333v-2.623c2.013-.854 2.135-.915 2.135-1.342 0-.549-.488-.61-6.344-1.159a36.982 36.982 0 0 1 .244 5.124h-11.28c.122-.793.122-1.037.305-2.867 1.952-.671 2.257-.793 2.257-1.22s-1.037-.732-3.66-1.1c-.671-.061-1.647-.244-2.928-.427a13.546 13.546 0 0 1 .244 2.623 26.989 26.989 0 0 1-.183 2.989Zm95.4-5.673a103.892 103.892 0 0 0 8.784-6.4c4.209-3.538 5.795-4.758 6.4-5 1.4-.549 1.708-.793 1.708-1.647 0-.732-.549-1.464-1.891-2.684-1.891-1.647-3.6-2.623-4.758-2.623a2.187 2.187 0 0 0-1.586.61c-1.159.854-1.159.854-4.514 2.135-1.83.732-6.039 2.135-13.115 4.514.3-5.612.854-9.638 1.586-11.224.488-1.1.488-1.1.488-1.464 0-.793-.61-1.586-1.83-2.257a15.655 15.655 0 0 0-6.771-1.83 2.336 2.336 0 0 0-2.074.793c2.623.732 4.026 1.769 4.514 3.416.427 1.525.427 2.074.549 13.6-4.575 1.586-10.553 3.172-12.078 3.172-1.769 0-3.05-.793-4.941-3.05a4.506 4.506 0 0 0-.122.732 7.361 7.361 0 0 0 1.708 3.66c1.525 1.952 3.172 3.172 4.453 3.172a3.559 3.559 0 0 0 1.952-.671 9.2 9.2 0 0 1 1.708-.915c.61-.3 1.281-.61 1.891-.915 1.159-.488 1.952-.854 2.379-1.037a21.675 21.675 0 0 0 2.989-1.281c.122 9.943.549 13.725 1.891 16.1 1.83 3.416 5.856 4.7 14.518 4.7a45.408 45.408 0 0 0 10.065-.793c.915-.183 1.4-.671 1.4-1.4a3.336 3.336 0 0 0-1.83-2.562 5.122 5.122 0 0 0-2.379-.976 3.215 3.215 0 0 0-1.22.366 34.163 34.163 0 0 1-11.041 1.586c-3.843 0-5.978-.671-6.893-2.135-.915-1.4-1.22-4.27-1.22-10.431 0-1.769 0-2.806.122-5.612 2.44-.976 3.477-1.4 10.8-3.965 5.307-1.891 7.32-2.5 8.235-2.5a.417.417 0 0 1 .427.427 10.468 10.468 0 0 1-1.525 2.5 90.687 90.687 0 0 1-9.394 11.163Zm53.68-30.2c2.562 4.209 5.246 6.161 11.59 8.235 3.965 1.281 9.394 2.623 10.8 2.623.915 0 1.464-.488 1.464-1.281 0-.915-.976-2.379-2.44-3.6a3.64 3.64 0 0 0-1.586-.854.55.55 0 0 0-.3.061 8.482 8.482 0 0 1-1.647.183 36.766 36.766 0 0 1-8.052-1.1c-4.453-1.1-6.466-2.135-9.15-4.758Zm1.342 14.945c1.342 4.27 4.148 6.588 11.041 9.089a40.528 40.528 0 0 0 7.991 2.135 1.339 1.339 0 0 0 1.464-1.281c0-.793-.732-1.952-2.074-3.294-.854-.854-1.342-1.1-1.952-1.1h-.61a5.582 5.582 0 0 1-.976.061 31.31 31.31 0 0 1-9.089-1.952 9.712 9.712 0 0 1-5.124-3.965Zm-4.026 15.677a11.154 11.154 0 0 0 4.943 7.142c2.2 1.4 5.124 2.623 10.736 4.453 9.333 2.989 10.187 3.233 11.529 3.782a5.54 5.54 0 0 0 1.708.427 1.239 1.239 0 0 0 1.4-1.342 6.845 6.845 0 0 0-1.891-3.782c-1.342-1.525-2.257-2.074-3.66-2.074a3.284 3.284 0 0 0-.671.061h-.244a47.231 47.231 0 0 1-6.466-.915 52.008 52.008 0 0 1-11.1-3.05 10.242 10.242 0 0 1-5.612-4.941Zm71.313 18.61a37.112 37.112 0 0 0 11.224-11.224c3.416-5.612 4.941-11.041 5.8-21.045a74.839 74.839 0 0 1 7.686-.427 59.189 59.189 0 0 1 10.736.915 4.376 4.376 0 0 0 .793.061 1.238 1.238 0 0 0 1.281-1.22c0-.976-1.037-1.891-3.172-2.928a6.9 6.9 0 0 0-2.928-.732 2.62 2.62 0 0 0-1.281.305 18.765 18.765 0 0 1-4.941.915c-3.66.305-7.015.61-8.113.732.183-4.575.671-8.174 1.4-9.76a2.576 2.576 0 0 0 .366-1.281c0-.854-.427-1.342-1.586-1.952a18.547 18.547 0 0 0-7.442-1.769 2.986 2.986 0 0 0-2.5.915 7.324 7.324 0 0 1 4.087 1.586c1.342 1.342 1.647 2.684 1.647 7.991 0 2.135 0 3.05-.061 4.758-2.379.244-3.965.488-5.978.793-8.6 1.342-8.906 1.4-10.553 1.4-2.074 0-3.721-.915-5.49-3.05a1.753 1.753 0 0 0-.3.915c0 .915.915 2.44 2.135 3.782 1.525 1.647 2.867 2.44 4.026 2.44a4.41 4.41 0 0 0 1.952-.488 52.384 52.384 0 0 1 14.091-3.416c-.488 7.32-1.708 13.115-3.965 17.934a39.961 39.961 0 0 1-9.463 13.061Zm60.573-31.842c-.427.427-.488.549-.488 1.4a10.96 10.96 0 0 0 2.318 5.612q1.556 2.013 2.928 2.013a4.863 4.863 0 0 0 .915-.183c.976-.549 1.525-.61 4.392-.793 2.135-.122 16.1-.488 21.777-.549 11.529-.122 12.993-.183 14.64-.732a1.79 1.79 0 0 0 1.4-1.647 1.27 1.27 0 0 0-.854-1.22c-1.1-.427-2.44-.549-7.93-.549-2.013 0-21.411.305-23.79.366-6.832.183-6.832.183-7.5.183-3.233 0-4.392-.3-5.917-1.464a5.471 5.471 0 0 1-1.891-2.437Z"/><path data-name="パス 3901" d="M23536.734-23448.072a.178.178 0 0 0 .2-.154c0-.022-.066-.11-.11-.2-.9-.748-1.188-.99-2.134-1.694-.528.638-.682.836-1.21 1.54h-12.696a7.042 7.042 0 0 1-1.738-.176l.176.814a7.012 7.012 0 0 1 1.562-.132h4.466a30.432 30.432 0 0 1-2.35 5.106 3.163 3.163 0 0 1-.4.022c-.264 0-.55 0-.924-.022-1.254-.044-1.254-.044-1.782-.066.11.616.308 1.518.44 2.112.088.374.132.418.264.418.176 0 .242-.11.462-.77a109.093 109.093 0 0 0 11.814-1.694 19.4 19.4 0 0 1 1.144 2c.132.242.22.33.374.33a.486.486 0 0 0 .374-.22 3.376 3.376 0 0 0 .352-1.362 2.142 2.142 0 0 0-.836-1.54 24.943 24.943 0 0 0-4.4-3.3l-.176.22a21.926 21.926 0 0 1 2.86 3.41c-2.178.242-5.522.418-8.954.462a38.809 38.809 0 0 0 3.762-5.1Zm-18.744-2.046a23.216 23.216 0 0 0 5.21-3.564 25.965 25.965 0 0 0 4.756-5.518 7.729 7.729 0 0 0 .924 1.65 25.566 25.566 0 0 0 3.036 3.608 19.055 19.055 0 0 0 4.906 3.52c.418-1.254.682-1.562 1.584-1.8v-.22a15.393 15.393 0 0 1-5.3-2.2 14.5 14.5 0 0 1-4.776-4.758c.484-.022.836-.2.836-.4 0-.176-.176-.242-2.6-.792a6.14 6.14 0 0 1-.726 1.606 31.382 31.382 0 0 1-4.84 5.942 18.978 18.978 0 0 1-3.23 2.618Zm4.444-1.518c.814-.066 1.144-.088 1.518-.088h8.756c.2 0 .286-.044.286-.132a.266.266 0 0 0-.132-.2c-.862-.724-1.144-.944-2.024-1.644-.55.616-.7.814-1.232 1.474h-5.544a9.784 9.784 0 0 1-1.782-.176Zm25.586.462a24.456 24.456 0 0 0 2.728-4.026c.99-.22 1.1-.264 1.1-.44 0-.066-.044-.132-.242-.352-.528-.462-.7-.616-1.3-1.1-.462.462-.616.594-1.056 1.1h-1.23v-3.234c.66-.22.836-.33.836-.506 0-.22-.286-.286-1.342-.374-.242-.022-.616-.066-1.1-.11a7.459 7.459 0 0 1 .176 1.916v2.31h-1.76a8.224 8.224 0 0 1-1.716-.2l.154.814a11.621 11.621 0 0 1 1.562-.11h4.422a22.683 22.683 0 0 1-2.706 4.51 20.791 20.791 0 0 1-3.674 3.894l.242.33a18.374 18.374 0 0 0 3.476-2.794v3.828c-.044 3.168-.066 4.862-.066 5.1.066.176.154.22.484.22h.286c.55 0 .726-.088.792-.374-.044-1.028-.044-1.028-.066-5.056v-4.73a9.69 9.69 0 0 1 2.706 2.508c.4.594.418.616.55.726a1.408 1.408 0 0 0 .242.132c.264 0 .484-.506.484-1.056a1.64 1.64 0 0 0-1.012-1.54 11.921 11.921 0 0 0-2.97-1.166Zm7.7-.9v9.964h-3.894a15.783 15.783 0 0 1-2.288-.176l.2.836a10.617 10.617 0 0 1 2.088-.15h11.506c.11 0 .22-.066.22-.154a.286.286 0 0 0-.11-.154 27.45 27.45 0 0 0-2.042-1.918c-.682.748-.88.99-1.474 1.716h-2.688v-9.966h5.5a.217.217 0 0 0 .22-.176.378.378 0 0 0-.088-.154 41.366 41.366 0 0 0-2.09-1.826l-1.28 1.65h-2.262v-6.618c.638-.242.88-.4.88-.572 0-.2-.264-.286-1.408-.4-.22-.022-.682-.066-1.144-.132a18.343 18.343 0 0 1 .154 2.75v4.972h-3.12a9.265 9.265 0 0 1-1.936-.176l.176.836a13.774 13.774 0 0 1 1.76-.154Zm17.424 7.104c2.31 1.892 2.4 2 2.442 2.574a.511.511 0 0 0 .594.506 3.215 3.215 0 0 0 2.112-.99c1.276-1.408 2.4-5.06 2.4-7.876 0-2.31-.9-3.432-2.794-3.432a8.392 8.392 0 0 0-1.914.242 23.192 23.192 0 0 1 1.408-2.97c.264-.4.308-.484.308-.638 0-.462-.55-.88-1.54-1.166a6.166 6.166 0 0 0-1.5-.286.9.9 0 0 0-.638.242c1.254.4 1.694.792 1.694 1.474a12.4 12.4 0 0 1-.9 3.608 22.941 22.941 0 0 1-3.74.77c-.814 0-1.21-.308-1.672-1.21a1.455 1.455 0 0 0-.132.484 3.489 3.489 0 0 0 .728 1.672 1.625 1.625 0 0 0 .968.66 1.151 1.151 0 0 0 .638-.242 15.51 15.51 0 0 1 2.86-1.144c-2.112 4.642-3.058 6.446-4.048 7.656a1.469 1.469 0 0 0-.508 1.236c0 .946.242 1.518.638 1.518.2 0 .374-.132.528-.418.352-.616 1.078-2.2 1.958-4.268.748-1.782 1.188-2.816 1.3-3.08.968-2.222.968-2.222 1.276-2.992a7.683 7.683 0 0 1 2.288-.44 1.647 1.647 0 0 1 .99.22q.594.4.594 1.782a16.9 16.9 0 0 1-1.3 5.9c-.572 1.386-.946 1.848-1.43 1.848a11.151 11.151 0 0 1-3.41-1.5Zm9.724-8.822a6.619 6.619 0 0 1 3.7 5.038 33.486 33.486 0 0 1-3.368 1.122l.088.286a19.457 19.457 0 0 1 2.75-.2 1.34 1.34 0 0 1 .9.242.874.874 0 0 0 .506.154c.55 0 .88-.44.88-1.21a5.181 5.181 0 0 0-1.254-3.1 7.646 7.646 0 0 0-4.026-2.64Zm.638-4.422a10.42 10.42 0 0 1 1.694 2.314c.682 1.43.682 1.43.968 1.43.374 0 .682-.4.682-.924s-.308-1.034-1.1-1.738a9.266 9.266 0 0 0-1.958-1.368Zm2.31-1.276a11.268 11.268 0 0 1 2.42 3.146c.176.308.308.418.506.418.33 0 .55-.374.55-.9 0-.616-.286-1.056-1.122-1.694a9.731 9.731 0 0 0-2.112-1.254Zm22.264 6.864v9.966c0 .242-.066.286-.374.308a85.586 85.586 0 0 1-4.18-.198v.374l1.474.22a5.406 5.406 0 0 1 1.21.264c.528.242.7.506.748 1.21a6.115 6.115 0 0 0 2.042-.618 1.155 1.155 0 0 0 .7-1.078v-.2c-.044-2.772-.044-3.872-.044-5.852v-4.4h4.4c.088 0 .2-.066.2-.154 0-.022-.022-.066-.088-.154a24.493 24.493 0 0 0-1.936-1.76c-.572.66-.748.858-1.32 1.562h-8.178a8.026 8.026 0 0 1-2.112-.22l.176.88a14.286 14.286 0 0 1 1.936-.154Zm-10.868 6.446q-.066 4.488-.132 5.346v.11c0 .154.11.2.484.2a7.306 7.306 0 0 0 .9-.088c.2-.044.242-.066.264-.242v-1.608c-.022-2.882-.022-2.882-.022-4.048v-3.762c.616-.2.7-.242.7-.4 0-.2-.264-.286-1.452-.55a27.9 27.9 0 0 0 2.446-3.078.5.5 0 0 0 .154.022c.55 0 .836-.11.836-.308 0-.176-.2-.286-1.144-.66-.22-.088-.572-.242-1.056-.44a15.442 15.442 0 0 1-1.89 3.386 19.28 19.28 0 0 1-3.674 4.268l.2.286a15.164 15.164 0 0 0 3.388-2.706Zm-2.9-7.766a21.216 21.216 0 0 0 5.764-5.038c.2 0 .374.022.506.022.242 0 .462-.11.462-.242a.616.616 0 0 0-.11-.22 12.686 12.686 0 0 0-2-.968 18.679 18.679 0 0 1-1.606 2.53 22.642 22.642 0 0 1-3.234 3.652Zm7.436-4.048a11.093 11.093 0 0 1 2.046-.154h8.8c.132 0 .264-.088.264-.176a.292.292 0 0 0-.066-.154c-.88-.77-1.144-.99-2.024-1.65a26.71 26.71 0 0 0-1.188 1.474h-5.79a10.224 10.224 0 0 1-2.2-.22Zm24.552-2.332a5.116 5.116 0 0 0 3.718 2.4c-.55.2-2.068.88-3.718 1.628l.11.308c4.554-1.32 4.554-1.32 5.478-1.342.594 0 .9-.176.9-.484a1.1 1.1 0 0 0-.462-.748 1.7 1.7 0 0 0-1.188-.528h-.506a6.468 6.468 0 0 1-4.114-1.408Zm1.628 20.064a10.127 10.127 0 0 0 3.454-2.574 10.737 10.737 0 0 0 2.728-7.106 5.809 5.809 0 0 0-.836-3.234 3.48 3.48 0 0 0-2.728-1.474c-1.122 0-1.848.242-3.718 1.254a5.951 5.951 0 0 1-2.024.858c-.572 0-1.012-.55-1.21-1.518a1.192 1.192 0 0 0-.352.814 2.776 2.776 0 0 0 .594 1.474 2.01 2.01 0 0 0 1.452.99c.352 0 .484-.088.9-.506 1.518-1.65 3.058-2.6 4.224-2.6 1.3 0 2.09 1.342 2.09 3.52a13.529 13.529 0 0 1-1.87 6.688 12.155 12.155 0 0 1-2.9 3.168Zm31.856-12.1v.352c0 .176.066.22.242.22h.066c.088 0 .22-.022.4-.022.594-.022.726-.088.726-.352-.044-.99-.044-1.034-.044-2.64.55-.286.638-.352.638-.506 0-.066-.044-.132-.2-.242-.506-.4-.66-.506-1.21-.88-.374.352-.484.462-.814.792h-4.554v-1.716h9.35c.088 0 .176-.066.176-.11a.4.4 0 0 0-.088-.2 18.877 18.877 0 0 0-1.87-1.606c-.55.594-.7.77-1.254 1.408h-6.314v-1.516c.66-.2.858-.308.858-.484 0-.242-.154-.286-2.376-.572a25.385 25.385 0 0 1 .11 2.574h-7.282a4.974 4.974 0 0 1-1.474-.154l.088.748a7.23 7.23 0 0 1 1.364-.088h7.3v1.716h-4.51a21.963 21.963 0 0 0-1.43-.792c.022.594.022.77.022 1.5 0 1.254-.022 1.914-.066 3.256 0 .154.066.2.242.2a7.749 7.749 0 0 0 .99-.088c.11-.044.154-.11.154-.264v-.528h4.6v1.776h-5.742a3.371 3.371 0 0 1-1.21-.154l.088.748a4.877 4.877 0 0 1 1.122-.088h5.742v2.046h-7.634a5.172 5.172 0 0 1-1.364-.154l.11.748a6.835 6.835 0 0 1 1.254-.088h7.634v2.2h-5.456a5.576 5.576 0 0 1-1.5-.176l.088.792a6.855 6.855 0 0 1 1.364-.11h5.5v2.464c0 .2-.066.264-.33.264h-.616c-.638 0-.88 0-3.388-.154v.33c3.256.528 3.388.594 3.432 1.65 1.5-.33 2.046-.572 2.266-.924.11-.176.132-.33.132-.924l-.044-1.628a9.969 9.969 0 0 0-.022-1.078h4.972v1.232c0 .154.11.22.352.22a5.529 5.529 0 0 0 1.056-.11c.11-.044.154-.11.154-.264-.022-.528-.044-1.8-.066-3.784h3.212c.11 0 .2-.066.2-.132q0-.066-.132-.2c-.7-.682-.924-.88-1.65-1.5-.528.572-.682.748-1.21 1.32h-.418l-.02-1.688c.572-.352.638-.418.638-.55 0-.088-.066-.154-.2-.264-.55-.4-.726-.528-1.32-.9-.352.374-.462.484-.792.858h-4.8v-1.782Zm0-.506h-4.752v-2.266h4.752Zm-6.16 0h-4.6v-2.266h4.6Zm6.4 4.84h-4.994v-2.046h4.994Zm0 .506v2.2h-4.974l-.022-.77v-1.43Zm21.646-9.178a18.405 18.405 0 0 0 2.574-2.486c.858-.11 1.056-.2 1.056-.4s-.858-.55-2.442-1.012a8.17 8.17 0 0 1-.88 2.332 15.181 15.181 0 0 1-.924 1.562h-8.316a14.135 14.135 0 0 1-2.772-.176l.154.836a13.537 13.537 0 0 1 2.618-.154h17.226c.11 0 .154-.044.154-.11a.263.263 0 0 0-.088-.176c-.858-.836-1.144-1.078-2-1.826-.616.682-.814.9-1.408 1.606Zm-4.048 9.834v4.052c0 .176-.022.22-.11.22h-.088c-.66-.044-.814-.044-2.046-.154-.22-.022-.572-.044-.99-.066l-.022.264c1.826.33 2.2.594 2.354 1.716 2-.528 2.4-.792 2.4-1.672v-.132c-.022-1.716-.066-5.192-.066-5.368v-5.06c.572-.308.726-.418.726-.528 0-.044-.044-.088-.132-.22a12.43 12.43 0 0 0-1.408-1.078c-.352.4-.462.528-.792.946h-4a17.206 17.206 0 0 0-1.782-.946c.066 1.254.088 2.134.088 4.246 0 3.476-.044 7.854-.088 9.5a.263.263 0 0 0 .308.242 8.2 8.2 0 0 0 1.026-.084c.154-.044.22-.11.264-.308 0-1.738 0-1.914-.022-3.19-.022-.99-.022-1.716-.022-2.024v-.352Zm0-.506h-4.4v-2.878h4.4Zm0-3.388h-4.4v-2.68h4.4Zm-3.058-9.482a11.241 11.241 0 0 1 1.8 2.9c.154.418.242.506.44.506.33 0 .748-.7.748-1.3 0-.682-.748-1.3-2.794-2.4Zm7.194 6.028c.088 1.078.11 1.738.11 2.4 0 2.772-.022 4.422-.066 6.908 0 .176.088.264.242.264h.066c.088-.022.242-.022.44-.044.616-.044.77-.11.77-.4-.022-.946-.044-4.224-.044-6.424v-1.69c.44-.176.682-.352.682-.484 0-.174-.572-.306-2.2-.526Zm4.664 11.29c0 .11-.022.154-.154.2-.99 0-1.166-.022-3.3-.154-.2 0-.506-.022-.9-.044v.33c3.036.484 3.036.484 3.344 1.8a5.648 5.648 0 0 0 1.782-.616 1.24 1.24 0 0 0 .748-1.188c-.044-1.782-.044-1.782-.088-6.49v-4.708c.572-.176.836-.33.836-.506s-.682-.352-2.42-.594a15.455 15.455 0 0 1 .154 2.53Zm22.528-11.484v-2.222h5.83c.11 0 .2-.044.2-.132a.453.453 0 0 0-.11-.2c-.748-.638-.99-.836-1.716-1.408a15.069 15.069 0 0 0-1.1 1.232h-3.764l2.024-1.958c.726-.044.968-.11.968-.286s-.22-.286-1.3-.638c-.2-.066-.506-.154-.9-.286a15.1 15.1 0 0 1-1.364 3.168h-3.3c.528-.748.726-1.034 1.32-2h.2c.484 0 .7-.088.7-.264 0-.2-.4-.374-2.2-.968a15.731 15.731 0 0 1-1.144 2.75 22.573 22.573 0 0 1-3.146 4.906l.22.176a16.245 16.245 0 0 0 2.376-2.4c0 5.214 0 5.214-.044 7.282 0 .176.066.242.242.242a3.945 3.945 0 0 0 1.034-.132.192.192 0 0 0 .132-.2v-.506h10.67c.154 0 .22-.044.22-.11 0-.044-.022-.088-.088-.176-.77-.682-.99-.88-1.76-1.5-.484.528-.616.7-1.1 1.276h-3.1v-2.42h5.1c.11 0 .2-.044.2-.11 0-.044-.022-.088-.088-.176-.77-.638-.99-.836-1.782-1.452-.506.506-.66.682-1.166 1.232h-2.264v-2.212h5.082c.088 0 .176-.044.176-.132a.394.394 0 0 0-.088-.176c-.748-.638-.99-.814-1.738-1.408-.462.484-.594.66-1.056 1.21Zm-4.84 3.234h3.52v2.42h-3.52Zm0-.506v-2.22h3.52v2.22Zm0-2.728v-2.222h3.52v2.222Zm1.672 9.174v-1.408c.616-.22.77-.308.77-.462 0-.22-.176-.242-2.266-.44.022.638.022.726.022 1.826v.484h-6.974a9.829 9.829 0 0 1-2-.176l.132.77a13.137 13.137 0 0 1 1.848-.088h7c0 1.694 0 1.694-.044 4.334 0 .154.066.2.242.2h.044c.088 0 .264-.022.506-.022.594-.022.748-.088.77-.308-.044-2.376-.066-2.706-.066-3.322v-.374a2.6 2.6 0 0 0 .022-.352v-.154h9.372c.132 0 .22-.066.22-.132a.5.5 0 0 0-.088-.2 27.422 27.422 0 0 0-2-1.628c-.572.594-.748.792-1.3 1.452Zm-8.646-14.454a9.455 9.455 0 0 1 2.244 2.488c.176.264.242.352.374.352.264 0 .484-.506.484-1.078 0-.858-.484-1.188-3.014-2Zm-1.672 3.322a9.113 9.113 0 0 1 2.178 2.332c.176.264.264.352.418.352.286 0 .506-.506.506-1.144 0-.418-.132-.616-.594-.858a14.9 14.9 0 0 0-2.4-.924Zm.4 5.324c.968.374 1.078.44 1.32.682a1.891 1.891 0 0 1 .44 1.43c0 .22-.022.616-.044 1.078-.044.66-.066.88-.066.924 0 .308.176.462.506.462a1.464 1.464 0 0 0 1.342-1.364 3.517 3.517 0 0 0-.352-1.43 2.382 2.382 0 0 1-.308-1.012 1.886 1.886 0 0 1 .22-.77l3.058-6.82-.308-.132c-.264.462-.7 1.254-1.342 2.4-.9 1.606-.9 1.606-2.068 3.564-.484.792-.572.88-.836.88-.088 0-1.056-.132-1.5-.2Zm41.488 5.542v3.126c0 .22-.022.242-.2.264a19.511 19.511 0 0 1-2.178-.132l-.044.352a4.585 4.585 0 0 1 1.37.374c.308.176.4.308.528.9 1.188-.22 1.5-.33 1.782-.616a.983.983 0 0 0 .242-.814c-.022-.858-.022-.858-.066-3.96v-5.124c.528-.33.66-.44.66-.572q0-.1-.2-.264c-.55-.4-.726-.528-1.342-.946-.308.352-.418.462-.7.814h-6.974c-.682-.374-.9-.484-1.628-.814.066 1.1.088 2.222.088 7.634v.88c-.09 2.706-.09 2.706-.09 3.476 0 .22.088.286.44.286.836 0 1.034-.088 1.034-.44v-4.424h2.9c-.022 2.288-.044 3.7-.044 4.29 0 .2.11.264.4.264a2.7 2.7 0 0 0 .964-.154.274.274 0 0 0 .088-.242c0-.286 0-.286-.066-4.158Zm-3.036-3.586v-2.506h3.036v2.508Zm0 .506h3.036v2.58h-3.036Zm-1.342 2.58h-2.882v-2.578h2.882Zm0-3.08h-2.882v-2.512h2.882Zm-12.738-.18a19.088 19.088 0 0 0 2.376-3.1v7.7c0 1.76 0 2.332-.066 4.026 0 .242.088.286.462.286.792 0 1.056-.11 1.056-.44v-.068l-.022-7.238v-4.356c.44-.2.572-.33.572-.462 0-.2-.352-.308-1.408-.44a32.1 32.1 0 0 0 2.64-5.808c.616-.066.836-.154.836-.352 0-.22-.2-.286-2.354-.858a17.753 17.753 0 0 1-1.386 5.148 30.741 30.741 0 0 1-3.014 5.7Zm10.912-8.36v-1.474c.594-.154.792-.264.792-.44 0-.088-.088-.176-.264-.242a15.715 15.715 0 0 0-2.024-.374c.044.792.066 1.144.066 2.53h-1.848a10.224 10.224 0 0 1-1.914-.22l.176.858a7.531 7.531 0 0 1 1.716-.132h1.87c-.022.638-.022.9-.044 1.914v.044c0 .176.132.242.44.242.726 0 1.078-.11 1.078-.352v-.066c-.022-.264-.022-.858-.044-1.782h2.926c0 .638 0 .836-.022 1.892 0 .22.088.286.4.286.748 0 1.1-.11 1.1-.33v-.11c-.022-.836-.022-.836-.022-1.738h4.4c.22 0 .308-.044.308-.132 0-.066-.044-.132-.132-.22a20.637 20.637 0 0 0-1.76-1.562l-1.078 1.408h-1.768v-1.54c.506-.088.792-.242.792-.418 0-.242-.4-.33-2.244-.572.044.594.044.924.044 1.3v1.232Zm-6.534 16.632a12.212 12.212 0 0 0 2.508-5.522 35.844 35.844 0 0 0 .528-7.392h12.694c.176 0 .242-.022.242-.11 0-.044-.022-.088-.11-.176a19.829 19.829 0 0 0-1.694-1.606c-.528.594-.7.77-1.232 1.386h-9.724a8.166 8.166 0 0 0-1.782-.968 18.227 18.227 0 0 1 .132 3.212c0 5.478-.4 7.766-1.848 11Zm23.276-15.312a3.554 3.554 0 0 0 3.278 1.694 8.342 8.342 0 0 0 1.474-.132 17.719 17.719 0 0 1-4.092 4.73c-.616.506-.638.528-.638.99 0 .7.242 1.166.594 1.166.22 0 .4-.132.814-.7 1.584-2.024 3.322-3.19 4.774-3.19a1.252 1.252 0 0 1 1.122.66 3.7 3.7 0 0 1 .308 1.738 15.894 15.894 0 0 0-2.724 1.954 4.183 4.183 0 0 0-1.584 3.014 2.411 2.411 0 0 0 1.624 2.332 11.375 11.375 0 0 0 4.466.638 24.455 24.455 0 0 0 3.938-.308c.44-.088.682-.308.682-.594 0-.484-.858-1.1-1.54-1.1a1.625 1.625 0 0 0-.418.066 15.908 15.908 0 0 1-4.422.616c-2.464 0-3.674-.572-3.674-1.76a2.944 2.944 0 0 1 1.078-2.046 11.181 11.181 0 0 1 2.574-1.738 21.015 21.015 0 0 1-.154 2.354 2.4 2.4 0 0 0-.022.374.66.66 0 0 0 .7.66.7.7 0 0 0 .616-.418 6.1 6.1 0 0 0 .176-1.892c0-.946 0-1.078-.022-1.782a35.723 35.723 0 0 1 5.9-2.266c.616-.132.792-.286.792-.682a3.09 3.09 0 0 0-2.486-2.222 1.071 1.071 0 0 0-.506.132c.638.264 1.012.66 1.012 1.034 0 .4-.528.748-2.706 1.848-1.782.9-1.782.9-2.156 1.078a2.44 2.44 0 0 0-2.464-2.2 5.954 5.954 0 0 0-2.838.88c.418-.594.594-.836 1.188-1.76.506-.77.77-1.166 1.166-1.716a35.277 35.277 0 0 0 4.8-1.254c.66-.22.946-.44.946-.7 0-.418-.616-.726-1.474-.726a.617.617 0 0 0-.418.154 7.24 7.24 0 0 1-3.174 1.404c.154-.22.154-.22.55-.858.176-.242.44-.638.638-.9.264-.33.352-.484.352-.638 0-.264-.242-.506-.792-.726a4.654 4.654 0 0 0-1.716-.374 1.745 1.745 0 0 0-.99.242c1.144.286 1.562.638 1.562 1.232a5.941 5.941 0 0 1-.77 2.244 11.661 11.661 0 0 1-2.354.286 3.62 3.62 0 0 1-2.75-1.034Z"/><path data-name="パス 3903" d="M23560.2-23381q-.437 0-.437-.654t.437-.654a23.615 23.615 0 0 0 5.886-.545 4.835 4.835 0 0 0 2.943-2.125 15.2 15.2 0 0 0 1.635-4.851l3.815-20.71a26.578 26.578 0 0 0 .545-4.251 3.1 3.1 0 0 0-.382-1.744 1.55 1.55 0 0 0-1.363-.545q-1.526 0-7.521 2.725l-.218.109q-.436 0-.545-.545a.675.675 0 0 1 .218-.763l17.767-8.72q.218-.218.545 0a.442.442 0 0 1 .218.545l-6.1 33.9a20.554 20.554 0 0 0-.327 3.27q0 2.616 1.744 3.434t6.649.817q.327 0 .327.654t-.336.653q-3.379 0-5.341-.109l-7.3-.109-7.41.109q-1.962.109-5.449.109Z" fill="#980000"/><path data-name="パス 3902" d="M23607.98-23395.928c-1.18 2.576-1.18 2.576-2.24 4.648a18.793 18.793 0 0 1-2.072 3.3 1.839 1.839 0 0 0-.644 1.568c0 1.2.308 1.932.812 1.932.252 0 .476-.168.672-.532.448-.78 1.372-2.796 2.492-5.428.98-2.324 1.54-3.64 1.652-3.92 1.232-2.856 1.232-2.856 1.624-3.808a9.063 9.063 0 0 1 2.94-.588c1.484 0 1.988.672 1.988 2.548a21.659 21.659 0 0 1-1.652 7.532c-.728 1.764-1.176 2.352-1.82 2.352a14.094 14.094 0 0 1-4.34-1.932l-.252.364c2.968 2.436 3.024 2.492 3.108 3.276a.651.651 0 0 0 .752.644 3.966 3.966 0 0 0 2.688-1.26c1.624-1.82 3.052-6.468 3.052-10.052 0-2.94-1.148-4.368-3.556-4.368a9.747 9.747 0 0 0-2.436.336 27.108 27.108 0 0 1 1.792-3.808c.336-.476.392-.588.392-.812 0-.588-.7-1.092-1.96-1.456a7.672 7.672 0 0 0-1.872-.364 1.265 1.265 0 0 0-.84.28c1.624.532 2.156 1.008 2.156 1.876a15.784 15.784 0 0 1-1.148 4.592 28.952 28.952 0 0 1-4.76.98c-1.036 0-1.54-.364-2.128-1.54a1.851 1.851 0 0 0-.168.616 4.441 4.441 0 0 0 .924 2.128 2.069 2.069 0 0 0 1.232.84 1.464 1.464 0 0 0 .812-.308 21.677 21.677 0 0 1 3.64-1.456Zm11.536-3.22a8.126 8.126 0 0 1 3.836 3.724 7.192 7.192 0 0 1 .868 2.688 42.619 42.619 0 0 1-4.284 1.428l.112.392a24.763 24.763 0 0 1 3.5-.252 1.807 1.807 0 0 1 1.148.28 1.06 1.06 0 0 0 .644.2c.7 0 1.12-.56 1.12-1.512a6.6 6.6 0 0 0-1.6-3.976 9.731 9.731 0 0 0-5.124-3.36Zm22.876-7.28a5.825 5.825 0 0 0 1.428 2.24 8.842 8.842 0 0 0 2.548 1.6 24.888 24.888 0 0 1-3.3 1.064 6.9 6.9 0 0 0-2.888 1.284c-.364.364-.448.616-.448 1.6a31.246 31.246 0 0 1-.532 3.7c-.14.98-.28 1.764-.336 2.324a11.593 11.593 0 0 1-.308 1.68c-.028.2-.084.42-.084.448a3.244 3.244 0 0 0 .588 1.428c.448.644.812.924 1.232.924.308 0 .5-.14.784-.56a6.4 6.4 0 0 1 1.54-1.764c2.184-1.9 4.7-3.052 6.692-3.052 2.044 0 3.388 1.2 3.388 3.052 0 1.764-.868 3.164-2.8 4.536a16.094 16.094 0 0 1-7.028 2.484l.084.448a20.554 20.554 0 0 0 6.356-1.092c3.5-1.2 5.516-3.388 5.516-5.964 0-2.548-2.212-4.368-5.348-4.368-2.548 0-5.74 1.2-9.128 3.472.056-1.876.252-4.2.448-5.684.056-.5.084-.756.084-.9a2.239 2.239 0 0 0-.2-.9 2.776 2.776 0 0 1-.168-.812 1.082 1.082 0 0 1 .308-.756 2.761 2.761 0 0 1 1.288-.5 23.943 23.943 0 0 1 5.348-.784 9.456 9.456 0 0 1 1.372.084c.364.056.5.084.588.084a.615.615 0 0 0 .672-.588 2.024 2.024 0 0 0-.616-1.232 1.741 1.741 0 0 0-1.148-.7 26.015 26.015 0 0 1-2.016-.532 5.769 5.769 0 0 1-3.556-2.464Zm37.128 14.812v-1.428c.812-.168 1.092-.28 1.092-.5 0-.14-.112-.224-.364-.308a30.972 30.972 0 0 0 4.564-3.024c1.092-.084 1.428-.2 1.428-.448 0-.14-.112-.28-.364-.476-.812-.644-1.092-.84-1.96-1.484-.532.532-.7.7-1.232 1.26h-10.052a11.863 11.863 0 0 1-2.156-.2l.168.98a12.417 12.417 0 0 1 2.016-.14h9.828a17.55 17.55 0 0 1-2.968 3.36 49.725 49.725 0 0 0-2.128-.364c.056 1.568.056 1.736.056 2.3v.476h-9.436a11.508 11.508 0 0 1-2.412-.228l.168.98a20.343 20.343 0 0 1 2.3-.112h9.38v6.552c0 .308-.084.392-.448.392-2.968-.14-3.164-.14-5.292-.308v.42c3.92.616 4.092.7 4.392 2.216a6.211 6.211 0 0 0 2.44-.62 1.6 1.6 0 0 0 1.008-1.6c-.028-1.76-.028-2.572-.028-3.78v-3.272h11.508c.2 0 .336-.084.336-.2a.591.591 0 0 0-.112-.28 66.092 66.092 0 0 0-2.552-2.32 40.56 40.56 0 0 0-1.792 2.156Zm3.22-9.884a32.58 32.58 0 0 0 3.86-3.752c.224 0 .476.028.616.028.448 0 .784-.168.784-.42s-.28-.392-2.94-1.428a24.576 24.576 0 0 1-3.02 5.572h-12.656c.028-.588.028-.756.028-1.6h-.532c-.28 2.072-.84 3.276-1.96 4.116-.7.532-.84.728-.84 1.12a3.358 3.358 0 0 0 .308 1.148c.112.308.308.448.5.448a1.968 1.968 0 0 0 1.232-.868 6.36 6.36 0 0 0 1.232-3.724h18.288a16.513 16.513 0 0 1-.784 3.164l.28.112c.588-.588.588-.588 1.12-1.176.84-.952.84-.952 1.4-1.54 1.26-.028 1.736-.2 1.736-.532 0-.14-.112-.28-.392-.476-.98-.756-1.288-.952-2.3-1.624-.616.588-.784.784-1.372 1.428Zm-12.1-5.04a13.563 13.563 0 0 1 1.932 3.808c.28.784.392.952.672.952a.532.532 0 0 0 .42-.224 3 3 0 0 0 .588-1.6 1.623 1.623 0 0 0-.672-1.176 18.245 18.245 0 0 0-2.66-1.988Zm5.684-.616a10.547 10.547 0 0 1 1.9 4.032c.28 1.008.364 1.148.7 1.148a.7.7 0 0 0 .588-.364 3.622 3.622 0 0 0 .532-1.54c0-.728-1.008-1.764-3.416-3.528Zm31.332 1.624a8.106 8.106 0 0 0 3.164 4.34c-2.38 1.428-3.332 2.632-3.332 4.144 0 1.232.728 2.6 2.492 4.676a39.662 39.662 0 0 0-6.828 3.672c-1.876 1.2-2.3 1.456-2.632 1.456a1.434 1.434 0 0 1-.868-.616 3.57 3.57 0 0 1-.672-1.6 1.026 1.026 0 0 0-.364.9c0 1.624 1.54 3.78 2.716 3.78.364 0 .56-.14 1.036-.812a19.749 19.749 0 0 1 1.68-1.9c2.044 1.792 4.06 2.716 5.936 2.716a3.577 3.577 0 0 0 3.78-3.528c0-1.232-.56-2.3-1.988-3.864a9.774 9.774 0 0 1 2.268-.308 6.778 6.778 0 0 1 3.92 1.2 4.166 4.166 0 0 1 1.764 2.744 25.576 25.576 0 0 1-4.032 1.6l.056.308c1.988-.14 3-.224 3.108-.224a3.049 3.049 0 0 1 1.2.168 2.537 2.537 0 0 0 .784.168c.784 0 1.26-.56 1.26-1.456a5.021 5.021 0 0 0-2.324-3.612 9.747 9.747 0 0 0-5.488-1.54 11.291 11.291 0 0 0-3 .392c-2.548-2.464-3.22-3.388-3.22-4.452a2.336 2.336 0 0 1 1.344-1.932 5.463 5.463 0 0 1 2.492-.784 6.442 6.442 0 0 1 .9.14 3.017 3.017 0 0 0 .924.252.688.688 0 0 0 .7-.672 1.773 1.773 0 0 0-.532-1.12 2.841 2.841 0 0 0-1.316-.924 7.56 7.56 0 0 1-4.564-3.444Zm2.744 13.8a5.8 5.8 0 0 1 1.372 3.248 2.189 2.189 0 0 1-2.436 2.352 9.226 9.226 0 0 1-4.9-1.736 17.922 17.922 0 0 1 5.964-3.86Zm5.432-12.236a11.791 11.791 0 0 1 2.128 2.94c.9 1.82.9 1.82 1.26 1.82.476 0 .868-.5.868-1.176s-.392-1.316-1.4-2.24a14.28 14.28 0 0 0-2.492-1.736Zm2.94-1.624a13.839 13.839 0 0 1 3.08 3.976c.224.392.392.532.644.532.42 0 .7-.476.7-1.12 0-.784-.364-1.372-1.456-2.184a12.65 12.65 0 0 0-2.66-1.6Z"/><path data-name="パス 3902 - アウトライン" d="m23676.624-23407.851.219.16c2.595 1.9 3.559 2.933 3.559 3.81a3.953 3.953 0 0 1-.6 1.742 1.326 1.326 0 0 1-.258.288h2.314a24.5 24.5 0 0 0 2.876-5.35l.127-.325.325.127c1.326.516 2.076.816 2.494 1.019.353.172.669.357.669.735 0 .461-.456.77-1.134.77-.073 0-.161-.006-.262-.012l-.206-.012a35.926 35.926 0 0 1-3.047 3.049h3.476l.085-.093c.444-.488.647-.71 1.2-1.238l.2-.193.464.309c.828.552 1.172.781 2.078 1.479a1 1 0 0 1 .535.758c0 .734-.972.849-1.932.878-.459.482-.509.539-1.291 1.425-.541.6-.541.6-1.135 1.192l-.163.163-.638-.255a.623.623 0 0 1 .007.1c0 .637-.823.725-1.651.789a35.838 35.838 0 0 1-4.035 2.73.552.552 0 0 1 .06.258c0 .488-.5.656-1.092.788v.794h6.872c.647-.82.915-1.145 1.7-2.037l.231-.262.263.23a65.826 65.826 0 0 1 2.558 2.333l.029.027.022.033a.909.909 0 0 1 .171.474c0 .316-.289.546-.686.546h-11.158v2.922c0 1.212 0 2.013.028 3.774v.033a1.944 1.944 0 0 1-1.191 1.882 6.606 6.606 0 0 1-2.562.655l-.319.037-.064-.315c-.155-.761-.254-1-.658-1.2a15.182 15.182 0 0 0-3.45-.736l-.3-.046v-1.1l.378.03c1.871.148 2.248.165 4.338.263l.934.044h.089v-6.239h-9.03a20.109 20.109 0 0 0-2.265.111l-.321.028-.307-1.788.49.086a11.124 11.124 0 0 0 2.347.219h9.093v-.126c0-.554 0-.722-.056-2.284l-.015-.421.417.063c.446.067 1.124.173 1.973.334a15.636 15.636 0 0 0 2.375-2.634h-9.134a12.031 12.031 0 0 0-1.971.137l-.333.043-.309-1.8.491.088a11.473 11.473 0 0 0 2.094.191h9.9a50.7 50.7 0 0 1 1.135-1.157l.214-.214.243.18.455.336c.554.409.858.634 1.514 1.155a1.631 1.631 0 0 1 .388.393l.045-.126a14.188 14.188 0 0 0 .69-2.7h-17.544a6.373 6.373 0 0 1-1.272 3.593 2.234 2.234 0 0 1-1.5 1 .909.909 0 0 1-.828-.664 3.672 3.672 0 0 1-.334-1.282c0-.561.244-.841.978-1.4 1.028-.771 1.556-1.9 1.825-3.884l.041-.3h1.188v.35c0 .642 0 .9-.013 1.246h2.818a4.594 4.594 0 0 1-.321-.764 13.156 13.156 0 0 0-1.889-3.725l-.189-.269.728-.583.209.128a18.657 18.657 0 0 1 2.711 2.026 1.953 1.953 0 0 1 .788 1.437 3.376 3.376 0 0 1-.613 1.75h4.376a3.073 3.073 0 0 1-.473-1.177 10.213 10.213 0 0 0-1.855-3.929l-.185-.266Zm10.968 2.214a24.462 24.462 0 0 0-2.332-.983 25.585 25.585 0 0 1-2.407 4.571 33.476 33.476 0 0 0 3.495-3.442l.1-.111h.152c.137 0 .276.009.4.017.085.006.166.011.216.011a.963.963 0 0 0 .376-.063Zm-8.66 3.311c.047 0 .158 0 .3-.208l.011-.016a3.318 3.318 0 0 0 .462-1.33c0-.64-1.323-1.773-2.58-2.729a10.6 10.6 0 0 1 1.445 3.386v.006a4.347 4.347 0 0 0 .307.889.4.4 0 0 0 .055.002Zm-5.684.2a.214.214 0 0 0 .121-.055l.015-.024.018-.02a2.684 2.684 0 0 0 .505-1.37 1.313 1.313 0 0 0-.552-.913l-.006-.005a17.543 17.543 0 0 0-1.949-1.526 13.858 13.858 0 0 1 1.5 3.192 3.281 3.281 0 0 0 .317.715Zm17.774 1.3a1.29 1.29 0 0 0-.223-.184l-.013-.01c-.89-.687-1.2-.9-2.042-1.454-.389.378-.58.587-.964 1.009l-.242.265h.525l-.079.415c-.229 1.2-.343 1.783-.52 2.38.138-.145.27-.29.532-.581.841-.954.841-.954 1.406-1.547l.1-.105h.145a3.261 3.261 0 0 0 1.375-.195Zm-21.99-.317h-.015l.017-.367c.01-.216.017-.373.021-.528a5.163 5.163 0 0 1-1.925 3.338c-.7.532-.7.635-.7.84a3.06 3.06 0 0 0 .276 1l.011.027c.054.15.129.218.175.218.152 0 .532-.2.957-.735a6.01 6.01 0 0 0 1.158-3.54Zm16.8 3.775a1.716 1.716 0 0 0-.176-.153 42.565 42.565 0 0 0-1.5-1.142l-.213-.157a47.85 47.85 0 0 0-1.012 1.04l-.05.053h.291l-.408.557a19.355 19.355 0 0 1-2.416 2.87 33.375 33.375 0 0 0 4.252-2.862l.081-.059.1-.008a5.287 5.287 0 0 0 1.056-.146Zm-14.116-.336c-.27-.02-.54-.05-.818-.09l.029.167c.313-.044.55-.073.794-.084Zm7.9 4.063-.168-.033a54.728 54.728 0 0 0-1.7-.3c.052 1.185.052 1.374.052 1.882v7.672c0 .658-.426.742-.8.742h-.016l-.943-.045-1.675-.077a4.735 4.735 0 0 1 1.052.345 1.75 1.75 0 0 1 .961 1.369 5.19 5.19 0 0 0 1.994-.537 1.26 1.26 0 0 0 .827-1.302c-.03-1.757-.03-2.559-.03-3.775v-5.629l.279-.058c.307-.064.507-.114.636-.155l-.424-.141Zm11.26 2.319a60.928 60.928 0 0 0-2.14-1.956 38.974 38.974 0 0 0-1.55 1.879l-.061.077Zm-23.929.022c-.3-.023-.583-.059-.915-.112l.03.176c.338-.03.603-.051.885-.064Zm-24.084-15.779.179.253a5.429 5.429 0 0 0 3.379 2.334c.541.171 1.37.389 1.975.521a2.084 2.084 0 0 1 1.348.818 2.323 2.323 0 0 1 .7 1.457.961.961 0 0 1-1.022.938 2.539 2.539 0 0 1-.377-.046l-.258-.041a9.128 9.128 0 0 0-1.325-.081 23.481 23.481 0 0 0-5.259.773 2.712 2.712 0 0 0-1.129.413.732.732 0 0 0-.205.509 2.5 2.5 0 0 0 .15.7 2.553 2.553 0 0 1 .214 1.006c0 .159-.027.4-.086.935v.007a63.74 63.74 0 0 0-.42 4.974c3.236-2.068 6.251-3.158 8.753-3.158a6.417 6.417 0 0 1 4.072 1.308 4.339 4.339 0 0 1 1.626 3.41c0 2.743-2.1 5.037-5.752 6.295a20.982 20.982 0 0 1-6.455 1.111l-.3.013-.206-1.1.353-.058a15.877 15.877 0 0 0 6.882-2.431c1.832-1.3 2.65-2.613 2.65-4.249s-1.192-2.7-3.038-2.7c-1.916 0-4.332 1.109-6.462 2.966a6.072 6.072 0 0 0-1.472 1.684l-.007.011a1.246 1.246 0 0 1-1.075.716 2 2 0 0 1-1.519-1.074l-.01-.016a3.424 3.424 0 0 1-.64-1.612.88.88 0 0 1 .029-.185c.018-.087.043-.206.059-.312l.007-.035.018-.071a11.283 11.283 0 0 0 .282-1.565c.036-.355.1-.8.183-1.3.048-.308.1-.657.155-1.028v-.012a30.265 30.265 0 0 0 .526-3.643c0-.977.077-1.36.546-1.831a7.007 7.007 0 0 1 3.035-1.38c1.547-.45 2.094-.609 2.525-.761a8.161 8.161 0 0 1-1.906-1.306 6.151 6.151 0 0 1-1.516-2.368l-.126-.294Zm6.557 5.621c.16 0 .322-.074.322-.238a1.649 1.649 0 0 0-.528-1l-.011-.013a1.389 1.389 0 0 0-.936-.574h-.014a26.694 26.694 0 0 1-2.047-.54h-.007a6.7 6.7 0 0 1-2.953-1.637 4.327 4.327 0 0 0 .813 1.022 8.493 8.493 0 0 0 2.452 1.532l.746.336-.758.308a25.087 25.087 0 0 1-3.338 1.076c-.41.123-.766.237-1.076.345a24.188 24.188 0 0 1 5.374-.779 9.827 9.827 0 0 1 1.413.086h.012l.269.042c.132.017.235.034.267.034Zm-8.971 4.788c.053-.473.081-.734.081-.854a1.911 1.911 0 0 0-.176-.78v-.014a3.046 3.046 0 0 1-.183-.915 1.442 1.442 0 0 1 .153-.646c-.178.207-.237.423-.237 1.234v.017a30.488 30.488 0 0 1-.536 3.735c-.053.372-.107.721-.155 1.029-.078.5-.145.936-.178 1.274v.012a11.967 11.967 0 0 1-.3 1.648l-.013.053c-.018.123-.046.252-.064.339l-.013.064a2.927 2.927 0 0 0 .53 1.213c.471.675.739.766.939.766.119 0 .222 0 .489-.4a6.73 6.73 0 0 1 1.608-1.841c2.246-1.964 4.834-3.134 6.914-3.134 2.236 0 3.738 1.367 3.738 3.4 0 1.887-.909 3.374-2.947 4.821h-.005a14.4 14.4 0 0 1-5.186 2.171 17.677 17.677 0 0 0 4.283-.936c3.358-1.155 5.282-3.208 5.282-5.634a3.6 3.6 0 0 0-1.373-2.869 5.721 5.721 0 0 0-3.628-1.149c-2.473 0-5.646 1.212-8.933 3.413l-.565.378.026-.679c.05-1.753.236-4.103.449-5.716Zm78.529-9.74.249.111a13.015 13.015 0 0 1 2.729 1.637c1.147.854 1.595 1.545 1.595 2.463 0 .866-.432 1.47-1.05 1.47a1.112 1.112 0 0 1-.948-.708 13.481 13.481 0 0 0-3.019-3.9l-.228-.22Zm3.522 4.98c.193 0 .35-.345.35-.77 0-.586-.215-1.085-1.315-1.9a12.542 12.542 0 0 0-2.086-1.317 13.668 13.668 0 0 1 2.717 3.641c.197.346.276.346.334.346Zm-14.322-4.676.149.259a7.223 7.223 0 0 0 4.373 3.287h.013a3.18 3.18 0 0 1 1.453 1.019 2.106 2.106 0 0 1 .62 1.353 1.037 1.037 0 0 1-1.05 1.022 3.09 3.09 0 0 1-1.016-.264 6.458 6.458 0 0 0-.8-.128 5.166 5.166 0 0 0-2.315.736 2.017 2.017 0 0 0-1.171 1.63c0 .916.644 1.8 2.975 4.067a11.32 11.32 0 0 1 2.891-.357 10.133 10.133 0 0 1 5.689 1.6 5.383 5.383 0 0 1 2.473 3.9 1.608 1.608 0 0 1-1.61 1.806 2.058 2.058 0 0 1-.667-.122l-.21-.059-.032-.011a2.68 2.68 0 0 0-1.078-.145c-.051 0-.368.024-.807.057-.506.038-1.27.1-2.276.166l-.313.022-.166-.912.284-.1a33.776 33.776 0 0 0 3.75-1.444 3.8 3.8 0 0 0-1.583-2.276 6.469 6.469 0 0 0-3.71-1.134 7.681 7.681 0 0 0-1.607.178 5.485 5.485 0 0 1 1.677 3.644 3.922 3.922 0 0 1-4.13 3.878 9.371 9.371 0 0 1-5.916-2.587 19.515 19.515 0 0 0-1.419 1.635c-.476.672-.766.953-1.317.953a2.88 2.88 0 0 1-2.083-1.427 4.926 4.926 0 0 1-.983-2.7 1.371 1.371 0 0 1 .467-1.143l.441-.441.146.607a3.262 3.262 0 0 0 .6 1.452l.01.013a1.29 1.29 0 0 0 .593.479 9.633 9.633 0 0 0 2.44-1.407 43.5 43.5 0 0 1 6.437-3.522c-1.6-1.941-2.26-3.272-2.26-4.526 0-1.567.9-2.8 3.079-4.183a8.216 8.216 0 0 1-2.888-4.175l-.126-.327Zm4.292 4.207a8.515 8.515 0 0 1-3.918-2.421 7.483 7.483 0 0 0 2.491 2.854l.393.314-.432.259a8.618 8.618 0 0 0-2.57 2.1 3.713 3.713 0 0 1 .814-.629 5.824 5.824 0 0 1 2.668-.831 6.189 6.189 0 0 1 .965.147h.024l.023.008a2.978 2.978 0 0 0 .809.233.337.337 0 0 0 .35-.322 1.466 1.466 0 0 0-.446-.891 2.489 2.489 0 0 0-1.172-.822Zm-1.323 9.5-.089-.086a16.354 16.354 0 0 1-2.983-3.393 11.93 11.93 0 0 0 2.176 3.278l.326.383-.472.173a39.314 39.314 0 0 0-6.764 3.634c-1.941 1.248-2.371 1.51-2.821 1.51a1.74 1.74 0 0 1-1.14-.746 2.664 2.664 0 0 1-.4-.644 4.547 4.547 0 0 0 .835 2.019 2.36 2.36 0 0 0 1.515 1.135c.175 0 .28 0 .75-.664l.01-.014a20.046 20.046 0 0 1 1.71-1.933l.232-.232.012.011.152-.147a18.389 18.389 0 0 1 6.078-3.938l.256-.1.159.225a6.077 6.077 0 0 1 1.436 3.45 2.676 2.676 0 0 1-.747 1.984 2.86 2.86 0 0 1-2.039.718 8.757 8.757 0 0 1-4.039-1.161 8.008 8.008 0 0 0 4.682 1.8 3.238 3.238 0 0 0 3.43-3.178c0-1.127-.514-2.11-1.9-3.628l-.409-.449Zm9.7 5.528c.821 0 .91-.773.91-1.106a4.738 4.738 0 0 0-2.173-3.323 9 9 0 0 0-4.351-1.439 6.736 6.736 0 0 1 2.941 1.179 4.5 4.5 0 0 1 1.9 2.959l.045.238-.207.126a17.224 17.224 0 0 1-2.747 1.153l.835-.063c.6-.045.794-.059.859-.059a3.408 3.408 0 0 1 1.314.185l.2.055a1.414 1.414 0 0 0 .475.096Zm-11.508.392a1.845 1.845 0 0 0 2.086-2 5.138 5.138 0 0 0-1.148-2.821 17.358 17.358 0 0 0-5.277 3.383 8.581 8.581 0 0 0 4.34 1.439Zm-100.239-19.627a7.923 7.923 0 0 1 1.975.378c1.466.424 2.211 1.027 2.211 1.792 0 .338-.111.525-.453 1.01a22.808 22.808 0 0 0-1.5 3.127 8.433 8.433 0 0 1 1.855-.2 3.593 3.593 0 0 1 2.953 1.211 5.428 5.428 0 0 1 .953 3.507c0 3.667-1.438 8.377-3.141 10.285a4.314 4.314 0 0 1-2.953 1.374.989.989 0 0 1-1.1-.951v-.006c-.069-.64-.07-.653-2.982-3.043l-.249-.2.618-.893.279.159c2.434 1.388 3.766 1.882 4.166 1.882s.759-.349 1.5-2.136a21.224 21.224 0 0 0 1.626-7.4 2.97 2.97 0 0 0-.364-1.763 1.485 1.485 0 0 0-1.274-.435 8.217 8.217 0 0 0-2.68.526c-.333.809-.4.963-1.561 3.654-.074.183-.322.772-.732 1.741l-.921 2.181c-1.142 2.677-2.055 4.668-2.512 5.468a1.131 1.131 0 0 1-.978.712c-.349 0-1.162-.222-1.162-2.282a2.156 2.156 0 0 1 .73-1.8l.005-.006a18.192 18.192 0 0 0 2.021-3.229c1.059-2.057 1.06-2.063 2.232-4.63l.5-1.075a17.128 17.128 0 0 0-2.8 1.158 1.765 1.765 0 0 1-.989.356 2.375 2.375 0 0 1-1.51-.977 4.728 4.728 0 0 1-1-2.341 2.09 2.09 0 0 1 .193-.746l.289-.724.349.7c.529 1.057.919 1.347 1.815 1.347a27.6 27.6 0 0 0 4.5-.923 15.345 15.345 0 0 0 1.059-4.3c0-.608-.3-1.013-1.915-1.543l-.685-.224.6-.4a1.6 1.6 0 0 1 1.032-.341Zm1.07 7.281.259-.625a26.906 26.906 0 0 1 1.824-3.868l.005-.008c.328-.465.328-.5.328-.61 0-.392-.638-.811-1.707-1.12a9.842 9.842 0 0 0-1.4-.32 1.884 1.884 0 0 1 1.287 1.776 16.1 16.1 0 0 1-1.173 4.721l-.065.164-.17.045a28.612 28.612 0 0 1-4.85.992 2.156 2.156 0 0 1-1.847-.783 4.936 4.936 0 0 0 .751 1.422 1.872 1.872 0 0 0 .956.706c.125 0 .223-.012.632-.258h.005a22.192 22.192 0 0 1 3.7-1.484l.774-.265-1.179 2.559c-1.181 2.581-1.181 2.581-2.249 4.661v.006a18.458 18.458 0 0 1-2.122 3.371 1.509 1.509 0 0 0-.555 1.335c0 1.091.27 1.582.462 1.582.146 0 .278-.189.364-.348v-.008c.436-.764 1.361-2.781 2.474-5.4l.921-2.18c.411-.973.66-1.561.728-1.733v-.009c1.231-2.853 1.231-2.853 1.622-3.8l.064-.154.16-.048a9.439 9.439 0 0 1 3.04-.6c1.94 0 2.338 1.159 2.338 2.9a22 22 0 0 1-1.68 7.669c-.7 1.7-1.226 2.565-2.142 2.565a10.372 10.372 0 0 1-3.3-1.309c1.933 1.6 2.079 1.821 2.165 2.627.032.255.094.334.408.334a3.627 3.627 0 0 0 2.429-1.145c1.578-1.771 2.961-6.356 2.961-9.817a4.854 4.854 0 0 0-.8-3.066 2.9 2.9 0 0 0-2.409-.952 9.335 9.335 0 0 0-2.358.327Zm105.962-5.975.241.137a14.686 14.686 0 0 1 2.55 1.778h.005c1.075.985 1.513 1.709 1.513 2.5a1.383 1.383 0 0 1-1.218 1.526.74.74 0 0 1-.718-.378 16.323 16.323 0 0 1-.856-1.637 11.41 11.41 0 0 0-2.057-2.842l-.248-.238Zm2.326 2.437a13.215 13.215 0 0 0-1.956-1.414 12.46 12.46 0 0 1 1.776 2.6 11.531 11.531 0 0 0 .861 1.621h.084c.249 0 .518-.316.518-.826.001-.568-.371-1.141-1.283-1.978Zm-98.885 2.409.266.078a10.117 10.117 0 0 1 5.3 3.482 6.922 6.922 0 0 1 1.671 4.194c0 1.149-.563 1.862-1.47 1.862a1.394 1.394 0 0 1-.82-.243 1.474 1.474 0 0 0-.972-.233 24.435 24.435 0 0 0-3.463.25l-.293.031-.287-1 .328-.1c2.527-.776 3.261-1.013 4-1.314a6.907 6.907 0 0 0-.795-2.3 7.757 7.757 0 0 0-3.687-3.577l-.32-.176Zm5.767 8.912c.67 0 .77-.728.77-1.162a6.252 6.252 0 0 0-1.523-3.762 9.045 9.045 0 0 0-3.753-2.817 8.206 8.206 0 0 1 2.827 3.2 7.5 7.5 0 0 1 .906 2.81l.031.262-.243.1a28.528 28.528 0 0 1-2.89 1 16.407 16.407 0 0 1 2.083-.1 2.143 2.143 0 0 1 1.32.325h.008a.718.718 0 0 0 .464.144Z"/></g></svg>