<svg xmlns="http://www.w3.org/2000/svg" width="150.643" height="557.546" viewBox="0 0 150.643 557.546">
  <g id="グループ_1671" data-name="グループ 1671" transform="translate(-930.186 -683.38)">
    <path id="パス_3911" data-name="パス 3911" d="M-9.248-24.31c1.292.578,1.6.782,2.006,1.462.51.782.646,1.6.646,4.08a21.944,21.944,0,0,1-.442,5.542,2.676,2.676,0,0,0-.136.748,4.685,4.685,0,0,0,.612,1.9c.408.748.85,1.156,1.292,1.156.34,0,.612-.272.68-.748A9.631,9.631,0,0,0-4.488-12v-1.156c-.034-1.36-.034-2.142-.034-2.584a42.94,42.94,0,0,1,.306-5.848c.034-.306.1-.646.1-.748,0-.408-.306-.816-.884-1.19a7.372,7.372,0,0,0-3.2-1.054A1.59,1.59,0,0,0-9.248-24.31ZM-4.352,1.6c5.066-2.04,8.7-5.44,10.132-9.35.714-2.006.918-3.57,1.088-8.5.136-4.216.306-6.46.578-7.276.2-.578.2-.578.2-.816,0-.51-.374-.952-1.224-1.36a10.077,10.077,0,0,0-3.468-.952,1.746,1.746,0,0,0-1.394.51,4.222,4.222,0,0,1,2.448,1.224c.51.646.646,1.734.646,5.134,0,8.024-.51,10.948-2.414,14.178C.714-3.06-1.224-1.156-4.624,1.156Zm-9.01,45.722a30.2,30.2,0,0,0,5.95-3.332,36.968,36.968,0,0,0,8.228-7.65,29.145,29.145,0,0,1,8.092,8.33,10.113,10.113,0,0,0,.816,1.36,1.071,1.071,0,0,0,.782.544c.578,0,.918-.68.918-1.768a4.507,4.507,0,0,0-1.292-3.366c-1.326-1.5-4.012-3.23-8.806-5.746,2.652-3.468,2.652-3.468,4.284-5.916,1.224-1.836,1.224-1.836,1.938-2.312a.79.79,0,0,0,.442-.646c0-.646-1.938-2.38-2.652-2.38a1.351,1.351,0,0,0-.782.306,8.814,8.814,0,0,1-3.2.952,54.06,54.06,0,0,1-7.14.952c-1.5,0-2.21-.51-3.2-2.278a1.355,1.355,0,0,0-.238.68A4.2,4.2,0,0,0-8.5,27.09c.748,1.326,1.462,1.938,2.21,1.938a1.588,1.588,0,0,0,.578-.1,17.75,17.75,0,0,1,2.856-.918,36.292,36.292,0,0,1,7.174-1.5A22.837,22.837,0,0,1,2.006,30.9a60.46,60.46,0,0,1-6.494,8.466,49.137,49.137,0,0,1-9.146,7.446Zm2.584,37.392A33.991,33.991,0,0,0-.986,75.4a3.106,3.106,0,0,0,2.108.986,3.09,3.09,0,0,0,1.122-.238,25.818,25.818,0,0,1,4.318-1.088c.2,0,.306.1.306.238a5.771,5.771,0,0,1-.544,1.734A41.839,41.839,0,0,1-2.958,90.492a37.861,37.861,0,0,1-7.514,6.086l.238.476A30.676,30.676,0,0,0-1.8,91.75,39.778,39.778,0,0,0,8.228,78.966,7.026,7.026,0,0,1,9.86,76.552c.408-.374.51-.544.51-.85,0-.748-1.938-2.516-2.754-2.516a.917.917,0,0,0-.578.2,10.406,10.406,0,0,1-2.686.918,23.929,23.929,0,0,1-4.08.68,3.708,3.708,0,0,1-.884-.136c1.8-2.652,1.836-2.686,1.836-3.094,0-.544-.51-1.122-1.6-1.734a6.239,6.239,0,0,0-2.788-.918,1.159,1.159,0,0,0-.646.2,5.022,5.022,0,0,0,.612.306,5.063,5.063,0,0,1,.816.612c.51.442.646.714.646,1.156,0,.748-.85,2.482-2.244,4.59a38.056,38.056,0,0,1-7.14,8.33Zm4.862,47.422a30.623,30.623,0,0,1,3.944,3.876,27.961,27.961,0,0,1,3.3,5c.442.952.714,1.224,1.19,1.224.68,0,1.156-.918,1.156-2.244,0-1.428-.646-2.346-2.924-4.284,1.224-.782,1.836-1.258,3.57-2.584,1.19-.918,2.176-1.666,2.89-2.21,1.326-.952,2.21-1.632,2.516-1.87a6.96,6.96,0,0,1,1.9-1.258c.68-.238.68-.238.85-.306a.714.714,0,0,0,.408-.68c0-.442-.442-1.088-1.428-2.108-1.122-1.156-1.8-1.632-2.38-1.632a1.535,1.535,0,0,0-.85.238,2.135,2.135,0,0,1-1.088.408c-.306.068-2.04.306-5.236.714A103.609,103.609,0,0,1-9.35,125.64a3.722,3.722,0,0,1-2.074-.408,4.143,4.143,0,0,1-1.632-1.7,1.677,1.677,0,0,0-.2.782,5.232,5.232,0,0,0,1.19,2.584c.816,1.122,1.666,1.768,2.278,1.768a2.156,2.156,0,0,0,.952-.272c1.394-.68,2.822-1.088,6.7-1.836a80.738,80.738,0,0,1,10.54-1.53c.34,0,.544.1.544.272s-.272.544-1.088,1.6a74.5,74.5,0,0,1-7.786,8.228,29.877,29.877,0,0,0-5.678-3.434Zm.612,32.6a8,8,0,0,0,2.992,2.822,14.913,14.913,0,0,0,5.644,1.054c1.19,0,1.734-.238,1.734-.782a2.4,2.4,0,0,0-1.938-1.836,2.357,2.357,0,0,0-.544.1,8.909,8.909,0,0,1-2.244.238,10.224,10.224,0,0,1-3.128-.476,5.041,5.041,0,0,1-2.142-1.428Zm-8.772,22.576a43.814,43.814,0,0,0,12.92-6.664,7.106,7.106,0,0,1,.238,2.686c0,1.258-.068,2.584-.272,4.794a5.436,5.436,0,0,1-.442,1.938,1.259,1.259,0,0,0-.136.51,4.358,4.358,0,0,0,.646,1.87c.476.884.952,1.326,1.462,1.326s.816-.442.816-1.258a7.157,7.157,0,0,0-.034-.782c-.068-1.122-.1-3.706-.1-5.848l.034-2.04c0-1.632,0-1.734-.2-2.278A4.207,4.207,0,0,0-.238,179.93a61.222,61.222,0,0,0,4.794-3.978,13.481,13.481,0,0,1,2.958-2.312c.51-.272.612-.408.612-.646,0-.306-.136-.544-.612-.986a3.948,3.948,0,0,0-1.972-1.19,1.607,1.607,0,0,0-.884.34c-.68.374-.748.374-3.468.918a44.159,44.159,0,0,1-7.038,1.02,3.521,3.521,0,0,1-3.434-1.836,1.119,1.119,0,0,0-.17.612c0,1.428,1.734,3.638,2.89,3.638.306,0,.374-.034,1.054-.306a13.088,13.088,0,0,1,2.89-.952,66.956,66.956,0,0,1,7.344-1.666,60.751,60.751,0,0,1-9.758,8.806,61.857,61.857,0,0,1-9.282,5.474Zm16.8-6.7a28.449,28.449,0,0,1,8.3,4.624c.612.476.782.578.986.578.544,0,.884-.51.884-1.292a2.843,2.843,0,0,0-1.8-2.652,26.956,26.956,0,0,0-8.3-1.768Zm-15.81,42.73A16.546,16.546,0,0,1-7.65,228c.51.646.714.782,1.054.782.51,0,.952-.748.952-1.632A2.422,2.422,0,0,0-6.936,224.9a18.159,18.159,0,0,0-5.95-2.006Zm3.706-5.984a15.484,15.484,0,0,1,4.658,3.74c1.462,1.8,1.462,1.8,1.836,1.8.51,0,.918-.748.918-1.7,0-1.972-1.734-3.026-7.174-4.318Zm22.338,4.386A78.989,78.989,0,0,1-2.074,233.3c-3.536,2.21-5.78,3.332-6.528,3.332a3.241,3.241,0,0,1-2.55-2.108,1.135,1.135,0,0,0-.306.782,5.693,5.693,0,0,0,1.054,2.618c.952,1.394,1.734,2.04,2.414,2.04a1.144,1.144,0,0,0,.782-.34,17.16,17.16,0,0,1,2.618-1.87A74.78,74.78,0,0,0,8.3,227.862a40.32,40.32,0,0,0,5.066-5.814ZM4.964,214.4a14.318,14.318,0,0,1,2.584,3.57c1.088,2.21,1.088,2.21,1.53,2.21.578,0,1.054-.612,1.054-1.428s-.476-1.6-1.7-2.72a15.641,15.641,0,0,0-3.026-2.074Zm3.57-1.972a17.277,17.277,0,0,1,3.74,4.828c.272.51.476.68.782.68.51,0,.85-.578.85-1.394,0-.952-.442-1.632-1.734-2.618a16.678,16.678,0,0,0-3.264-1.972ZM-7.242,269.2a47.291,47.291,0,0,1,7.31,5.508,61.382,61.382,0,0,1-6.63,7.854,46.211,46.211,0,0,1-6.46,5.474l.306.51a32.408,32.408,0,0,0,7.14-4.658,39.644,39.644,0,0,0,7.14-7.65,24.41,24.41,0,0,1,3.468,4.148c.85,1.258.918,1.326,1.258,1.326.476,0,.816-.782.816-1.836,0-1.8-.612-2.584-4.25-5.406,1.87-2.754,1.87-2.754,3.468-5.338a12.847,12.847,0,0,1,1.87-2.618c.442-.476.578-.714.578-1.054,0-.646-.884-1.564-2.244-2.414a5.955,5.955,0,0,0-2.55-.952.917.917,0,0,0-.578.2c1.292.782,1.836,1.462,1.836,2.278a4.267,4.267,0,0,1-.476,1.836,41.667,41.667,0,0,1-3.672,6.8,41.2,41.2,0,0,0-8.024-4.454Zm-3.876,44.532a17.619,17.619,0,0,1,5.542,5c.918,1.19,1.088,1.36,1.462,1.36.578,0,.952-.782.952-1.9a2.611,2.611,0,0,0-1.156-2.312,19.4,19.4,0,0,0-6.562-2.55Zm23.868,1.224A53.783,53.783,0,0,1,3.6,324.032a49.327,49.327,0,0,1-8.126,5.61,8.45,8.45,0,0,1-3.3,1.428,2.205,2.205,0,0,1-1.36-.714,5.174,5.174,0,0,1-1.224-1.5,1.623,1.623,0,0,0-.17.68c0,1.734,2.584,5,3.978,5,.442,0,.646-.17,1.19-.816.238-.306.408-.442,2.006-1.564a67.224,67.224,0,0,0,9.554-7.752,35.367,35.367,0,0,0,7.14-9.146ZM-6.358,357.446a3.485,3.485,0,0,1,2.584,3.026,55.484,55.484,0,0,1,.238,5.848c0,8.67-.2,13.09-.714,14.722a2.567,2.567,0,0,0-.17.952c0,1.122,1.36,2.958,2.176,2.958a.771.771,0,0,0,.612-.306,2.167,2.167,0,0,0,.17-1.156c0-.51,0-1.088-.034-1.8-.068-2.856-.068-2.856-.068-3.876v-4.964c0-1.02,0-2.074-.034-4.216a19.572,19.572,0,0,1,7.99,4.42c.884.816.918.816,1.258.816.51,0,.816-.578.816-1.564,0-1.224-.578-1.9-2.108-2.618a30.736,30.736,0,0,0-7.922-1.9c0-3.944.2-6.494.612-7.412.2-.51.2-.51.2-.748,0-.646-.816-1.326-2.244-1.87a6.867,6.867,0,0,0-2.516-.578A1.368,1.368,0,0,0-6.358,357.446ZM-13.8,409.968a1.475,1.475,0,0,0-.374.918,4.856,4.856,0,0,0,.884,2.278,3.753,3.753,0,0,0,2.618,2.006,2.241,2.241,0,0,0,1.36-.476c3.2-1.734,10.982-4.046,15.2-4.556a17.623,17.623,0,0,0-5.542,3.91,12.6,12.6,0,0,0-3.706,8.3A9.03,9.03,0,0,0,.578,429.96a14.041,14.041,0,0,0,6.936,2.448c.714,0,1.224-.408,1.224-.952a2.784,2.784,0,0,0-1.02-1.632,1.693,1.693,0,0,0-1.428-.544,10.275,10.275,0,0,1-3.434-.816,6.9,6.9,0,0,1-4.522-6.63c0-5.814,5.61-11.356,11.424-11.356a4.651,4.651,0,0,1,.952.068,4.814,4.814,0,0,0,.646.034c.646,0,1.054-.34,1.054-.85,0-.442-.306-.884-.986-1.292a4.541,4.541,0,0,0-1.836-.714A4.283,4.283,0,0,0,8.4,408a37.243,37.243,0,0,1-4.59,1.122c-2.346.442-4.284.884-5.508,1.19-7.65,1.836-8.5,2.006-9.452,2.006a1.927,1.927,0,0,1-1.53-.578A3.7,3.7,0,0,1-13.8,409.968Zm20.876,5.27a16.31,16.31,0,0,1,2.618,3.6c1.054,2.21,1.054,2.21,1.5,2.21.578,0,1.054-.612,1.054-1.428s-.476-1.6-1.7-2.72A17.342,17.342,0,0,0,7.514,414.8Zm3.57-1.938a16.228,16.228,0,0,1,3.74,4.828c.272.476.476.646.782.646.51,0,.85-.578.85-1.394,0-.918-.442-1.632-1.734-2.618a16.536,16.536,0,0,0-3.264-1.938ZM-4.964,481.938A17.328,17.328,0,0,0,.1,478.708a11.785,11.785,0,0,0,3.672-8.636,8.872,8.872,0,0,0-1.088-4.522c-.034-.51-.034-.918-.034-1.156,0-1.258.1-3.332.238-4.624,1.394-.1,2.38-.136,3.638-.136a36.294,36.294,0,0,1,5.236.34,13.626,13.626,0,0,0,1.836.2c.51,0,.748-.2.748-.578a1.047,1.047,0,0,0-.544-.918,6,6,0,0,0-2.89-1.258,3.109,3.109,0,0,0-1.258.374c-.884.306-1.258.374-4.522.612-1.326.1-1.326.1-2.21.2a8.542,8.542,0,0,1,.748-3.3c.306-.578.34-.646.34-.918,0-.476-.476-.918-1.292-1.19a11.366,11.366,0,0,0-3.3-.476c-.918,0-1.156.1-1.564.612,1.734.238,2.55.714,2.924,1.666a11.381,11.381,0,0,1,.374,3.774c-3.468.374-4.692.544-8.7,1.19a18.149,18.149,0,0,1-2.924.306,3.95,3.95,0,0,1-3.3-1.734,1.136,1.136,0,0,0-.17.408,5.059,5.059,0,0,0,1.36,2.482,3.5,3.5,0,0,0,2.176,1.292,3.223,3.223,0,0,0,.782-.17,12.612,12.612,0,0,1,2.21-.918,46.575,46.575,0,0,1,8.568-1.7,6.518,6.518,0,0,1,.034.68c0,1.088-.034,2.958-.034,3.536a3.426,3.426,0,0,0-1.9-.578c-2.516,0-4.386,2.21-4.386,5.2,0,2.788,1.8,4.9,4.182,4.9A3.891,3.891,0,0,0,1.224,473c-.85,3.638-2.516,5.814-6.46,8.5Zm6.256-13.362c0,2.108-.714,3.2-2.176,3.2-1.6,0-2.754-1.564-2.754-3.706,0-2.074,1.19-3.672,2.72-3.672C.578,464.394,1.292,465.754,1.292,468.576Z" transform="translate(944.5 711.436)" fill="#3c1a00"/>
    <path id="パス_3910" data-name="パス 3910" d="M10.744-5.406V-.578c0,.34-.034.374-.306.408a30.153,30.153,0,0,1-3.366-.2L7,.17A7.085,7.085,0,0,1,9.112.748c.476.272.612.476.816,1.394,1.836-.34,2.312-.51,2.754-.952a1.52,1.52,0,0,0,.374-1.258c-.034-1.326-.034-1.326-.1-6.12V-14.11c.816-.51,1.02-.68,1.02-.884q0-.153-.306-.408c-.85-.612-1.122-.816-2.074-1.462-.476.544-.646.714-1.088,1.258H-.272c-1.054-.578-1.394-.748-2.516-1.258.1,1.7.136,3.434.136,11.8v1.36C-2.788.476-2.788.476-2.788,1.666c0,.34.136.442.68.442,1.292,0,1.6-.136,1.6-.68V-5.406H3.978C3.944-1.87,3.91.306,3.91,1.224c0,.306.17.408.612.408a4.174,4.174,0,0,0,1.5-.238.424.424,0,0,0,.136-.374c0-.442,0-.442-.1-6.426ZM6.052-10.948v-3.876h4.692v3.876Zm0,.782h4.692v3.978H6.052ZM3.978-6.188H-.476v-3.978H3.978Zm0-4.76H-.476v-3.876H3.978Zm-19.686-.272a29.5,29.5,0,0,0,3.672-4.794v11.9c0,2.72,0,3.6-.1,6.222,0,.374.136.442.714.442,1.224,0,1.632-.17,1.632-.68v-.1L-9.826-9.418V-16.15c.68-.306.884-.51.884-.714,0-.306-.544-.476-2.176-.68a49.608,49.608,0,0,0,4.08-8.976c.952-.1,1.292-.238,1.292-.544,0-.34-.306-.442-3.638-1.326a27.437,27.437,0,0,1-2.142,7.956,47.509,47.509,0,0,1-4.658,8.806ZM1.156-24.14v-2.278c.918-.238,1.224-.408,1.224-.68,0-.136-.136-.272-.408-.374a24.286,24.286,0,0,0-3.128-.578c.068,1.224.1,1.768.1,3.91H-3.91a15.8,15.8,0,0,1-2.958-.34l.272,1.326a11.639,11.639,0,0,1,2.652-.2h2.89c-.034.986-.034,1.394-.068,2.958v.068c0,.272.2.374.68.374,1.122,0,1.666-.17,1.666-.544v-.1c-.034-.408-.034-1.326-.068-2.754H5.678c0,.986,0,1.292-.034,2.924,0,.34.136.442.612.442,1.156,0,1.7-.17,1.7-.51v-.17c-.034-1.292-.034-1.292-.034-2.686h6.8c.34,0,.476-.068.476-.2,0-.1-.068-.2-.2-.34a31.894,31.894,0,0,0-2.72-2.414L10.608-24.14H7.888v-2.38c.782-.136,1.224-.374,1.224-.646,0-.374-.612-.51-3.468-.884.068.918.068,1.428.068,2.006v1.9Zm-10.1,25.7A18.873,18.873,0,0,0-5.066-6.97c.612-3.094.782-5.644.816-11.424H15.368c.272,0,.374-.034.374-.17,0-.068-.034-.136-.17-.272a30.641,30.641,0,0,0-2.618-2.482c-.816.918-1.088,1.19-1.9,2.142H-3.978a12.62,12.62,0,0,0-2.754-1.5,28.169,28.169,0,0,1,.2,4.964c0,8.466-.612,12-2.856,17Zm4.794,19.1C-2.72,22.7-1.53,23.52,1.428,24.506c-.85.238-3.5,1.054-6.12,1.9l.136.442c3.3-.544,5.066-.85,5.338-.884A21.279,21.279,0,0,1,3.6,25.73a3.306,3.306,0,0,1,.612.034,2.991,2.991,0,0,0,.476.034.676.676,0,0,0,.68-.646,2.438,2.438,0,0,0-.816-1.53,1.951,1.951,0,0,0-1.462-.714,12.338,12.338,0,0,1-2.482-.374,9.3,9.3,0,0,1-4.42-2.176Zm-4.76,9.078a1.611,1.611,0,0,0-.544,1.224,6.065,6.065,0,0,0,.612,2.176c.476.918,1.02,1.394,1.564,1.394a2.843,2.843,0,0,0,1.326-.51c3.23-1.87,6.834-3.4,7.99-3.4.238,0,.374.068.374.2,0,.2-.136.408-.714,1.19A116.4,116.4,0,0,1-6.63,41.2a37.514,37.514,0,0,1-4.93,4.25,1.061,1.061,0,0,0-.544.952c0,1.054.646,2.312,1.224,2.312.238,0,.476-.2.816-.646a35.263,35.263,0,0,1,3.5-4.182C-4.454,41.744-2.38,40.52-.85,40.52a1.955,1.955,0,0,1,2.04,1.938,21.922,21.922,0,0,0,.442,2.618,4.023,4.023,0,0,0,1.9,2.652c1.258.782,2.89,1.088,5.474,1.088,2.958,0,3.978-.272,3.978-1.054,0-.408-.238-.714-.85-1.19a3.308,3.308,0,0,0-1.632-.782,1.174,1.174,0,0,0-.442.1,3.255,3.255,0,0,1-1.19.374,19.975,19.975,0,0,1-2.108.136c-2.38,0-2.992-.408-3.434-2.38-.544-2.244-.782-2.856-1.53-3.536a3.347,3.347,0,0,0-2.244-.85,8.129,8.129,0,0,0-3.808,1.19c2.074-2.244,5.644-5.746,6.8-6.7a6.944,6.944,0,0,1,1.9-1.36c.85-.34.986-.442.986-.85,0-.952-1.87-2.856-2.788-2.856-.17,0-.272.034-.578.238-.442.306-.646.374-3.2,1.19-4.42,1.428-5.032,1.6-5.848,1.6a1.544,1.544,0,0,1-1.088-.408A3.661,3.661,0,0,1-8.908,29.742Zm2.244,53.576L-8.5,87.7l-1.428,3.4a13.491,13.491,0,0,1-.544-4.216A26.579,26.579,0,0,1-7.888,75.8c.544-1.122.544-1.122.544-1.5a4.83,4.83,0,0,0-1.224-2.584c-.952-1.224-1.6-1.666-2.38-1.7a5.289,5.289,0,0,1,.986,2.992,14.894,14.894,0,0,1-.51,3.06A50.164,50.164,0,0,0-12,87.4a20.137,20.137,0,0,0,1.088,6.834c.408,1.054.884,1.53,1.462,1.53a.77.77,0,0,0,.646-.374c.17-.272.2-.408.238-1.5A11.623,11.623,0,0,1-8.126,91c.408-1.666,1.36-5.372,1.972-7.514Zm3.6-5.61a6.766,6.766,0,0,0,5.61,2.38,15.072,15.072,0,0,0,2.992-.272l.034,4.352.068,3.638v.578c-.952-.068-1.428-.1-2.074-.1-3.876,0-6.392,1.5-6.392,3.842,0,2.04,2.074,3.468,5.032,3.468,3.4,0,5.44-1.462,5.44-3.91a7.116,7.116,0,0,0-.034-.816,10.474,10.474,0,0,1,3.672,2.72c.68.68.918.85,1.19.85.374,0,.68-.544.68-1.258,0-1.972-1.666-3.3-5.61-4.352a67.038,67.038,0,0,1-.442-9.248c3.536-.68,6.018-1.7,6.018-2.448a.727.727,0,0,0-.442-.612,4.034,4.034,0,0,0-1.6-.442c-.306,0-.408.034-.748.374a8.22,8.22,0,0,1-3.128,1.394,15.279,15.279,0,0,1,.714-4.556c.306-.782.306-.816.306-1.054,0-.51-.51-.918-1.5-1.224A9.994,9.994,0,0,0,4.42,70.7a1.883,1.883,0,0,0-1.632.544,3.466,3.466,0,0,1,2.244.782c.442.476.476.918.476,4.726v1.5a18.243,18.243,0,0,1-3.876.476,7.068,7.068,0,0,1-4.386-1.394ZM5.61,90.152a4.273,4.273,0,0,1-.442,2.38c-.544,1.054-1.87,1.6-3.74,1.6-2.006,0-3.332-.816-3.332-2.006,0-1.5,1.666-2.38,4.352-2.38A10.982,10.982,0,0,1,5.61,90.152ZM1.7,134.106v-7.684c1.088-.408,1.36-.578,1.36-.85,0-.374-.782-.51-3.842-.816.068,1.122.068,1.5.068,2.958V144.1H-6.358V132.3c.952-.408,1.326-.646,1.326-.884,0-.374-.544-.476-3.774-.816a21.543,21.543,0,0,1,.068,2.244V144.1h-3.094a13.421,13.421,0,0,1-3.3-.34l.238,1.292a20.082,20.082,0,0,1,2.788-.17H15.2c.136,0,.2-.068.2-.136,0-.1-.068-.2-.2-.34-1.5-1.292-1.972-1.666-3.536-2.89-.918,1.122-1.19,1.462-2.074,2.584H1.7v-9.214h9.486c.2,0,.306-.068.306-.17,0-.068-.034-.136-.17-.272-1.394-1.19-1.836-1.53-3.264-2.584-.884,1.088-.884,1.088-1.87,2.244ZM-16.218,132.1a32.562,32.562,0,0,0,8.67-5.3A40.509,40.509,0,0,0,.68,117.888a29.874,29.874,0,0,0,6.018,8.16,35.933,35.933,0,0,0,7.14,5.1c.85-1.462,1.36-1.9,2.516-2.006l.136-.51a27.814,27.814,0,0,1-8.33-4.046,20.044,20.044,0,0,1-6.8-7c1.122-.272,1.36-.374,1.36-.646s-.136-.34-2.006-.884c-.408-.1-1.088-.306-1.9-.544a32.591,32.591,0,0,1-5,7.31,40.082,40.082,0,0,1-10.3,8.874Zm16.8,43.988H13.5c.272,0,.374-.068.374-.17a.367.367,0,0,0-.1-.238c-1.224-1.02-1.632-1.326-2.924-2.244-.85.782-1.088,1.054-1.9,1.87H3.128a27.665,27.665,0,0,0,2.21-1.8c.2-.17.544-.442.952-.782.272.034.714.034.748.034.476,0,.748-.1.748-.34,0-.136-.17-.306-.476-.476-1.5-.85-1.5-.85-2.618-1.5H15.47c.238,0,.34-.034.34-.17,0-.068-.034-.136-.17-.272-1.292-1.122-1.7-1.462-3.06-2.482l-1.9,2.142H6.358c1.36-1.19,1.5-1.326,3.944-3.74,1.19-.034,1.462-.136,1.462-.408,0-.136-.068-.2-.306-.34-.612-.34-1.972-.918-2.992-1.326-.408,1.428-.816,2.176-3.026,5.814H3.468V164.97c1.122-.34,1.326-.442,1.326-.714,0-.17-.1-.272-.34-.34a13.984,13.984,0,0,0-3.2-.408c.068,1.156.068,1.564.068,3.026v3.128H-2.108V164.9c1.02-.306,1.292-.442,1.292-.714,0-.374-.544-.476-3.5-.714.068,1.326.1,1.972.1,3.06v3.128h-7.276a13.154,13.154,0,0,1-3.6-.442l.238,1.394a21.791,21.791,0,0,1,3.366-.17h5.168l-.306.408a12.505,12.505,0,0,1,1.938,3.638,3.1,3.1,0,0,0,.374.816h-5.3a13.034,13.034,0,0,1-3.4-.374l.238,1.326a26,26,0,0,1,3.162-.17H-1.6v3.128H-7.684a16.26,16.26,0,0,1-3.536-.374l.2,1.36a29.608,29.608,0,0,1,3.332-.2H-1.6v3.094h-9.418a15.751,15.751,0,0,1-3.74-.34l.2,1.394a23.319,23.319,0,0,1,3.536-.272H-3.6a20.646,20.646,0,0,1-3.808,3.706,35.05,35.05,0,0,1-8.432,4.93l.238.544A32.536,32.536,0,0,0-8.5,190.1a31.271,31.271,0,0,0,6.9-5.44v2.822c0,1.258-.1,4.964-.17,6.6v.068c0,.306.068.408.408.408,1.7,0,1.938-.068,1.972-.578-.034-3.57-.034-5.712-.034-6.358v-3.366a27.664,27.664,0,0,0,5.032,4.828,28.253,28.253,0,0,0,7.514,3.808c.816-1.462,1.156-1.768,2.346-2.108v-.51a25.809,25.809,0,0,1-3.6-.578A26.774,26.774,0,0,1,5.066,187a20,20,0,0,1-3.978-3.128H14.416c.238,0,.374-.068.374-.2a1.046,1.046,0,0,0-.136-.306c-1.258-1.02-1.632-1.36-2.924-2.346-.884.884-1.156,1.156-2.006,2.074H.578V180H11.016c.238,0,.34-.068.34-.17,0-.068-.034-.136-.136-.238-1.156-.986-1.53-1.292-2.686-2.244-.782.782-.986,1.054-1.734,1.87H.578Zm3.944-5.644a16.31,16.31,0,0,1-2.278,4.862H-3.5a1.959,1.959,0,0,0,.816-1.394c0-.782-.68-1.462-3.5-3.468Zm-15.776-6.256a13.291,13.291,0,0,1,2.55,3.944c.34.816.51,1.054.816,1.054.476,0,1.122-1.088,1.122-1.9,0-1.054-1.224-2.04-4.182-3.4Zm4.522,63.13-1.8,4.76a26.95,26.95,0,0,1-1.224,2.89,12.884,12.884,0,0,1-.646-4.488,18.649,18.649,0,0,1,.442-4.216,28.919,28.919,0,0,1,1.836-5.406c.68-1.36.714-1.5.714-2.04a4.589,4.589,0,0,0-1.258-2.686c-.918-1.19-1.53-1.632-2.278-1.666a6.046,6.046,0,0,1,.952,3.2,15.915,15.915,0,0,1-.476,3.162,52.022,52.022,0,0,0-1.19,6.426,30.636,30.636,0,0,0-.272,3.638,20.147,20.147,0,0,0,1.19,7.242c.374.918.884,1.394,1.462,1.394a.836.836,0,0,0,.816-.578,4.965,4.965,0,0,0,.1-1.462,13.371,13.371,0,0,1,.578-3.6c.952-3.944,1.462-6.086,1.53-6.392Zm4.386-8.534a5.991,5.991,0,0,0,4.624,1.9c.306,0,.68-.034,1.394-.068-.544.408-1.7,1.36-3.23,2.652l.34.34A34.723,34.723,0,0,1,5.168,221.2,19.49,19.49,0,0,1,10,220.008c.714-.136.952-.34.952-.782s-.34-.85-1.054-1.258a2.587,2.587,0,0,0-1.19-.476c-.238,0-.306.034-.748.272a18.054,18.054,0,0,1-6.834,1.53,5.322,5.322,0,0,1-3.162-.918Zm-.2,10.268a9.217,9.217,0,0,0-.408,2.686,5.647,5.647,0,0,0,1.836,4.42c1.53,1.36,4.556,2.074,8.806,2.074a17.1,17.1,0,0,0,4.25-.374c.476-.17.748-.442.748-.85A2.617,2.617,0,0,0,10.54,235a1.678,1.678,0,0,0-.51.1,5.3,5.3,0,0,1-1.8.544,16.046,16.046,0,0,1-2.89.238c-5.27,0-7.412-1.53-7.412-5.27a13.223,13.223,0,0,1,.1-1.428Zm-3.91,32.6c1.428.238,2.074.578,2.448,1.224.272.51.306,1.02.408,3.91.1,2.55.136,3.3.238,4.114.17,1.462.476,2.21.986,2.584a2.3,2.3,0,0,0,1.632.51,21.788,21.788,0,0,0-4.148,2.72c-2.244,1.87-3.332,3.74-3.332,5.712a5.388,5.388,0,0,0,3.706,5.032,17.383,17.383,0,0,0,5.78.782,52.713,52.713,0,0,0,6.528-.442c1.088-.2,1.462-.51,1.462-1.122a1.933,1.933,0,0,0-1.836-1.666,3.274,3.274,0,0,0-.68.1,39.683,39.683,0,0,1-7.888.986c-3.774,0-5.712-1.258-5.712-3.706,0-1.6.816-2.924,2.652-4.352,2.142-1.632,4.386-2.652,8.5-3.808a21.489,21.489,0,0,0,2.278-.714,1.078,1.078,0,0,0,.714-1.02,1.657,1.657,0,0,0-1.632-1.428,2.958,2.958,0,0,0-1.394.408C1.156,272.938.408,273.21-.306,273.21c-1.054,0-1.326-.51-1.326-2.516a26.74,26.74,0,0,1,.748-6.9c.238-.612.272-.612.272-.884v-.068c0-.476-.272-.816-.952-1.088A11,11,0,0,0-5,261.106,1.8,1.8,0,0,0-6.46,261.65Zm3.128,74.044c5.066-.578,8.058-1.5,10.778-3.332a7.981,7.981,0,0,0,3.672-6.392c0-3.876-3.128-6.6-7.582-6.6a15.022,15.022,0,0,0-2.652.2,42.494,42.494,0,0,0-7.752,2.414,11.373,11.373,0,0,1-2.992.952c-.816,0-1.564-.646-2.108-1.87a1.6,1.6,0,0,0-.238.68c0,1.564,2.04,4.012,3.3,4.012.408,0,.714-.17,1.36-.646,3.6-2.856,7.99-4.624,11.288-4.624a4.73,4.73,0,0,1,5.066,4.93,7.112,7.112,0,0,1-2.856,5.508c-2.38,2.04-5.168,3.23-9.418,4.114Zm-10.1,26.138a1.339,1.339,0,0,0-.374.884,4.855,4.855,0,0,0,.884,2.278A3.753,3.753,0,0,0-10.3,367a2.241,2.241,0,0,0,1.36-.476,37.969,37.969,0,0,1,5.44-2.176A54.823,54.823,0,0,1,6.256,362a17.476,17.476,0,0,0-5.542,3.876,12.668,12.668,0,0,0-3.706,8.3A8.987,8.987,0,0,0,.952,381.79a14.042,14.042,0,0,0,6.9,2.448c.748,0,1.258-.374,1.258-.952a2.975,2.975,0,0,0-1.02-1.632,1.732,1.732,0,0,0-1.428-.544,10.651,10.651,0,0,1-3.468-.816,6.9,6.9,0,0,1-4.488-6.7c0-5.712,5.61-11.254,11.424-11.254a4.991,4.991,0,0,1,.952.068,4.361,4.361,0,0,0,.612.034c.646,0,1.054-.34,1.054-.85,0-.476-.306-.85-.986-1.292a4.541,4.541,0,0,0-1.836-.714,4.283,4.283,0,0,0-1.19.272,35.675,35.675,0,0,1-4.59,1.088c-2.244.442-4.08.85-5.508,1.19-7.616,1.836-8.466,2.006-9.418,2.006a1.927,1.927,0,0,1-1.53-.578A3.758,3.758,0,0,1-13.43,361.832ZM8.33,424.486v1.156c.068.272.17.34.646.34a5.008,5.008,0,0,0,1.394-.17c.2-.034.272-.136.306-.408-.068-1.462-.068-1.666-.068-9.452.952-.544,1.088-.646,1.088-.884,0-.068-.034-.136-.17-.272-.952-.748-1.258-.986-2.244-1.666a12.312,12.312,0,0,0-1.292,1.394H.918V411.5H15.164a.292.292,0,0,0,.272-.272.452.452,0,0,0-.1-.238c-1.326-1.224-1.768-1.564-3.128-2.652a19.247,19.247,0,0,0-2.074,2.38H.918v-3.434a64.72,64.72,0,0,0,8.534-1.394,5.283,5.283,0,0,0,1.632.374.275.275,0,0,0,.306-.238c0-.306-.51-.748-3.06-2.516-4.454,1.836-12.954,3.468-21.012,3.944l.068.578a103.631,103.631,0,0,0,11.22-.51v3.2H-10.88a34.641,34.641,0,0,1-3.91-.238l.17,1.156c1.054-.1,2.244-.136,3.74-.136h9.486v3.026H-7.82c-1.19-.714-1.6-.952-2.822-1.6,0,.714,0,1.122.034,2.482,0,1.19.034,2.55.034,3.3,0,2.38-.068,5.032-.17,6.9,0,.34.136.442.578.442,1.224,0,1.6-.068,1.7-.374v-1.19h7.072v3.5H-8.466a30.154,30.154,0,0,1-4.352-.306l.238,1.224c1.02-.068,2.788-.136,4.114-.136h7.072v3.706H-10.88a42.517,42.517,0,0,1-4.284-.272l.17,1.19a32.691,32.691,0,0,1,4.114-.136H15.368a.292.292,0,0,0,.272-.238.483.483,0,0,0-.068-.2c-1.258-1.122-1.666-1.462-3.06-2.584-.85.952-1.088,1.224-1.9,2.244H.918V428.77h12.92a.219.219,0,0,0,.2-.2.669.669,0,0,0-.136-.272c-1.292-1.054-1.666-1.36-2.924-2.312-.816.85-1.088,1.122-1.87,2.006H.918v-3.5Zm0-.782H.918v-4.012H8.33Zm0-4.794H.918v-3.6H8.33ZM-1.394,423.7H-8.466v-4.012h7.072Zm0-4.794H-8.466v-3.6h7.072Zm16.66,51.774c.2,0,.34-.068.34-.2,0-.068-.068-.17-.2-.34-1.19-1.088-1.6-1.428-2.924-2.482-.918.918-1.19,1.19-2.108,2.244H-2.958c.51-.748.68-1.02,1.394-2.142,1.054-.136,1.394-.272,1.394-.51,0-.2-.272-.34-3.026-1.156A20.9,20.9,0,0,1-5.44,469.9h-7.14a8.53,8.53,0,0,1-3.026-.374l.2,1.326a10.951,10.951,0,0,1,2.788-.17h6.63c-1.19,1.666-1.836,2.482-3.944,5.066-.34.408-.374.442-.374.544a.182.182,0,0,0,.1.136,7.506,7.506,0,0,0,1.7.34.589.589,0,0,0,.476-.272c.578-.646.748-.85,1.156-1.326a35.984,35.984,0,0,1,5.95,1.394,22.2,22.2,0,0,1-5.032,2.958,35.138,35.138,0,0,1-9.214,2.278v.578a30.45,30.45,0,0,0,9.35-1.428,18.889,18.889,0,0,0,6.97-3.706,39.265,39.265,0,0,1,7.956,3.842c1.972,1.224,2.108,1.326,2.346,1.326.34,0,.578-.34.578-.816a3.817,3.817,0,0,0-1.7-2.856,47.559,47.559,0,0,0-7.888-2.618,20.408,20.408,0,0,0,4.182-5.44Zm-11.22,0a15.6,15.6,0,0,1-3.808,4.93c-1.8-.34-2.992-.544-6.63-1.02,1.088-1.36,1.7-2.21,2.89-3.91ZM4.284,454.3H14.926a.227.227,0,0,0,.238-.2.965.965,0,0,0-.2-.34c-1.292-1.054-1.7-1.394-3.026-2.38-.85.884-1.122,1.156-2.006,2.142h-22a9.94,9.94,0,0,1-2.958-.34l.2,1.326a15.761,15.761,0,0,1,2.414-.2h7.582v4.318H-9.486c-1.224-.612-1.6-.816-2.754-1.292,0,.68,0,1.36.034,2.074.034,2.176.034,2.176.034,3.23,0,1.258,0,2.312-.068,4.386,0,.272.136.374.442.374,1.5,0,1.768-.1,1.768-.544v-.918H9.656v1.088c0,.306.136.442.476.442,1.462,0,1.87-.1,1.87-.51v-.1c-.136-1.938-.136-1.938-.17-6.936.918-.544,1.02-.646,1.02-.85,0-.1-.068-.2-.34-.442-.816-.646-1.054-.85-1.87-1.462-.578.612-.782.816-1.36,1.462h-5Zm-2.108,0v4.318h-4.93V454.3Zm-7,5.1v5.746h-5.2V459.4Zm2.074,0h4.93v5.746h-4.93Zm7.038,0H9.656v5.746H4.284Zm-17.34,47.49a6.941,6.941,0,0,0,2.482,2.482,5.5,5.5,0,0,0,2.992.714,10.081,10.081,0,0,0,1.6-.136,45.13,45.13,0,0,1-4.25,7.99,15.251,15.251,0,0,1-1.632,2.04,1.443,1.443,0,0,0-.374,1.224c0,1.36.476,2.414,1.054,2.414.408,0,.714-.306,1.224-1.224.306-.578,2.924-6.29,3.944-8.636.918-2.04,1.5-3.434,1.8-4.114,5.406-1.258,7.514-2.108,7.514-2.992,0-.578-.986-1.02-2.312-1.02a.835.835,0,0,0-.714.272c-.952.816-1.258.986-3.774,1.87,1.224-2.516,1.938-3.91,2.074-4.182a1.453,1.453,0,0,0,.34-.884c0-.476-.442-.85-1.6-1.428a7.14,7.14,0,0,0-2.72-.782,1.445,1.445,0,0,0-.816.238c1.632.816,2.176,1.5,2.176,2.618a14.07,14.07,0,0,1-1.224,4.828,14.88,14.88,0,0,1-3.094.408c-1.7,0-2.652-.442-4.284-1.972Zm18.292,2.176c2.414.816,3.468,1.36,4.386,2.346-1.258.272-1.326.306-1.836.442a6.356,6.356,0,0,0-3.23,1.6c-.918,1.02-1.19,2.074-1.19,4.862,0,.408,0,.68.1,3.366a11,11,0,0,0-2.04-.17c-3.774,0-6.358,1.666-6.358,4.046,0,2.142,2.108,3.6,5.168,3.6a6.276,6.276,0,0,0,4.42-1.462,3.815,3.815,0,0,0,.952-2.89v-.646a12.361,12.361,0,0,1,4.114,2.992c.714.782.85.884,1.19.884.408,0,.68-.476.68-1.156a3.242,3.242,0,0,0-1.36-2.686,15.328,15.328,0,0,0-4.828-2.21,48.594,48.594,0,0,1-.68-5.848c0-2.346.85-3.094,3.57-3.094a5.345,5.345,0,0,1,3.332.714,1.283,1.283,0,0,0,.782.272.887.887,0,0,0,.884-.986c0-.782-.816-1.8-2.142-2.652a12.012,12.012,0,0,0-5.814-1.87ZM3.5,524.328c0,2.142-1.428,3.264-4.182,3.264-2.108,0-3.4-.748-3.4-2.006,0-1.6,1.768-2.584,4.658-2.584a9.5,9.5,0,0,1,2.924.408Z" transform="translate(1004.727 711.77)" fill="#3c1a00"/>
    <path id="パス_3909" data-name="パス 3909" d="M-8.16-14.178A37.8,37.8,0,0,0-3.944-20.4c1.53-.34,1.7-.408,1.7-.68,0-.1-.068-.2-.374-.544-.816-.714-1.088-.952-2.006-1.7-.714.714-.952.918-1.632,1.7h-1.9v-5c1.02-.34,1.292-.51,1.292-.782,0-.34-.442-.442-2.074-.578-.374-.034-.952-.1-1.7-.17a11.528,11.528,0,0,1,.272,2.958v3.57h-2.72a12.709,12.709,0,0,1-2.652-.306l.238,1.258a17.96,17.96,0,0,1,2.414-.17h6.834a35.056,35.056,0,0,1-4.182,6.97,32.132,32.132,0,0,1-5.678,6.018l.374.51a28.4,28.4,0,0,0,5.372-4.318v5.916c-.068,4.9-.1,7.514-.1,7.888.1.272.238.34.748.34h.442c.85,0,1.122-.136,1.224-.578-.068-1.6-.068-1.6-.1-7.82v-7.31A14.975,14.975,0,0,1-3.978-9.35c.612.918.646.952.85,1.122a2.176,2.176,0,0,0,.374.2c.408,0,.748-.782.748-1.632a2.535,2.535,0,0,0-1.564-2.38,18.424,18.424,0,0,0-4.59-1.8Zm11.9-1.394V-.17H-2.278A24.391,24.391,0,0,1-5.814-.442L-5.508.85A16.409,16.409,0,0,1-2.278.612H15.5c.17,0,.34-.1.34-.238a.442.442,0,0,0-.17-.238,42.422,42.422,0,0,0-3.162-2.958c-1.054,1.156-1.36,1.53-2.278,2.652H6.086v-15.4h8.5a.336.336,0,0,0,.34-.272.585.585,0,0,0-.136-.238c-1.36-1.258-1.8-1.632-3.23-2.822l-1.972,2.55h-3.5V-26.588c.986-.374,1.36-.612,1.36-.884,0-.306-.408-.442-2.176-.612-.34-.034-1.054-.1-1.768-.2a28.348,28.348,0,0,1,.238,4.25v7.684H-1.088a14.318,14.318,0,0,1-2.992-.272l.272,1.292a21.287,21.287,0,0,1,2.72-.238ZM4.114,28.11H14.926c.238,0,.374-.068.374-.2a.669.669,0,0,0-.136-.272c-1.258-1.088-1.632-1.428-2.924-2.482-.918.918-1.19,1.224-2.074,2.176H-11.492a13.17,13.17,0,0,1-3.128-.34l.238,1.326a12.553,12.553,0,0,1,2.89-.2h3.978a18.766,18.766,0,0,1-2.414,3.3,24.064,24.064,0,0,1-5.406,4.76l.306.476a20.1,20.1,0,0,0,5.236-3.23,9.228,9.228,0,0,1,2.618,2.652c.2.272.272.34.544.374A30.5,30.5,0,0,1-15.47,41l.17.544a30.569,30.569,0,0,0,7.888-2.822,18.076,18.076,0,0,0,7.276-6.63c1.156-.374,1.326-.442,1.326-.646,0-.1-.068-.2-.306-.408C.136,30.422-.1,30.252-.884,29.64c-.612.51-.782.646-1.36,1.19H-7.038a17.168,17.168,0,0,0,2.074-2.72h7v8.7c.068,1.734.374,1.836,5.848,1.836,6.324,0,7.242-.17,7.242-1.292a.827.827,0,0,0-.714-.816c-.612-.238-.612-.238-.612-.408v-.782l.2-2.686-.408-.034a33.129,33.129,0,0,1-1.53,3.774c-.2.34-.374.374-1.666.374H9.01c-.884.034-1.394.034-1.7.034-.918,0-2.55-.068-2.788-.1-.34-.068-.408-.17-.408-.646V34.128a33.537,33.537,0,0,0,7.208-2.55c.442,0,1.088.034,1.224.034.408,0,.646-.1.646-.306,0-.238-.442-.51-2.89-1.836a22.409,22.409,0,0,1-6.188,4.046Zm-6.358,3.5a17.15,17.15,0,0,1-3.842,4.42,1.859,1.859,0,0,0,.272-.986c0-.578-.374-.884-1.53-1.326a11.1,11.1,0,0,0-2.108-.578c.68-.578,1.02-.884,1.666-1.53ZM-3.57,22.7V21.038c1.122-.306,1.428-.442,1.428-.68,0-.306-.374-.408-2.006-.578-.374-.034-.986-.1-1.7-.2a15.265,15.265,0,0,1,.136,2.176c0,.272,0,.578-.034.952H-12.24a12.336,12.336,0,0,1-2.958-.272l.238,1.224a15.206,15.206,0,0,1,2.72-.17h6.494c0,.612-.034.986-.1,2.142.034.2.136.272.34.272a5.767,5.767,0,0,0,1.836-.17c.1-.068.136-.136.136-.34-.034-.442-.068-.68-.068-.884l.034-.612v-.408H2.958c0,.646-.034,1.02-.068,2.108,0,.238.068.306.408.306,1.53,0,1.836-.068,1.87-.476-.034-.918-.034-1.224-.034-1.938h10.4c.2,0,.34-.068.34-.2a.67.67,0,0,0-.136-.272c-1.394-1.122-1.836-1.462-3.2-2.55-.918.918-1.224,1.224-2.176,2.244H5.134c0-.374,0-.374.034-1.666,1.156-.306,1.428-.442,1.428-.68,0-.306-.85-.476-3.774-.782a16.777,16.777,0,0,1,.17,2.856,1.286,1.286,0,0,0-.034.272Zm-8.3,19.516a12.082,12.082,0,0,1-2.89-.238l.238,1.224a11.815,11.815,0,0,1,2.652-.2h6.188a7.285,7.285,0,0,1-1.9,4.046c-1.462,1.53-3.468,2.448-7.446,3.434l.136.51c4.182-.442,7.072-1.5,9.18-3.366C-4.488,46.538-3.876,45.314-3.434,43H2.958v2.244c0,1.734-.034,2.686-.136,4.964,0,.272.1.374.408.374a6.267,6.267,0,0,0,1.8-.2.319.319,0,0,0,.17-.306c-.068-3.944-.068-4.148-.068-5V43h10.3c.136,0,.306-.136.306-.238a.67.67,0,0,0-.136-.272c-1.326-1.156-1.734-1.5-3.128-2.55-.918.918-1.19,1.224-2.108,2.278h-5.2V40.758c1.122-.476,1.19-.51,1.19-.748,0-.306-.272-.34-3.536-.646a20.613,20.613,0,0,1,.136,2.856h-6.29c.068-.442.068-.578.17-1.6,1.088-.374,1.258-.442,1.258-.68s-.578-.408-2.04-.612c-.374-.034-.918-.136-1.632-.238a7.55,7.55,0,0,1,.136,1.462,15.044,15.044,0,0,1-.1,1.666Zm5.134,41.1-1.8,4.76a26.951,26.951,0,0,1-1.224,2.89A12.884,12.884,0,0,1-10.4,86.48a18.649,18.649,0,0,1,.442-4.216,28.919,28.919,0,0,1,1.836-5.406c.68-1.36.714-1.5.714-2.04A4.589,4.589,0,0,0-8.67,72.132c-.918-1.19-1.53-1.632-2.278-1.666a6.046,6.046,0,0,1,.952,3.2,15.915,15.915,0,0,1-.476,3.162,52.022,52.022,0,0,0-1.19,6.426,30.636,30.636,0,0,0-.272,3.638,20.147,20.147,0,0,0,1.19,7.242c.374.918.884,1.394,1.462,1.394a.836.836,0,0,0,.816-.578,4.965,4.965,0,0,0,.1-1.462,13.371,13.371,0,0,1,.578-3.6c.952-3.944,1.462-6.086,1.53-6.392Zm4.386-8.534a5.991,5.991,0,0,0,4.624,1.9c.306,0,.68-.034,1.394-.068-.544.408-1.7,1.36-3.23,2.652l.34.34A34.723,34.723,0,0,1,5.168,77.2,19.491,19.491,0,0,1,10,76.008c.714-.136.952-.34.952-.782s-.34-.85-1.054-1.258a2.587,2.587,0,0,0-1.19-.476c-.238,0-.306.034-.748.272a18.054,18.054,0,0,1-6.834,1.53,5.322,5.322,0,0,1-3.162-.918Zm-.2,10.268a9.217,9.217,0,0,0-.408,2.686,5.647,5.647,0,0,0,1.836,4.42c1.53,1.36,4.556,2.074,8.806,2.074a17.1,17.1,0,0,0,4.25-.374c.476-.17.748-.442.748-.85A2.617,2.617,0,0,0,10.54,91a1.678,1.678,0,0,0-.51.1,5.3,5.3,0,0,1-1.8.544,16.046,16.046,0,0,1-2.89.238c-5.27,0-7.412-1.53-7.412-5.27a13.223,13.223,0,0,1,.1-1.428Zm-.272,57.214a26.722,26.722,0,0,0,8.4-1.972c4.964-2.108,7.82-5.746,7.82-9.962,0-4.454-3.536-7.48-8.7-7.48-3.536,0-7.072.918-12.444,3.264a11.478,11.478,0,0,1-4.114,1.224,2.269,2.269,0,0,1-1.394-.544,2.769,2.769,0,0,1-.952-1.258,1.826,1.826,0,0,0-.272.85c0,1.53,2.482,3.91,4.08,3.91a1.938,1.938,0,0,0,1.292-.578c4.488-3.5,9.69-5.678,13.668-5.678,3.706,0,6.222,2.312,6.222,5.712,0,3.57-2.278,6.9-6.256,9.146a28.213,28.213,0,0,1-7.514,2.856Zm.782,35.964c-.442.748-.442.748-.986,1.632-1.768,2.958-1.768,2.958-2.856,4.794-.748,1.258-.748,1.258-1.122,1.8a4.936,4.936,0,0,1-1.768-2.652,14.562,14.562,0,0,1-.782-4.93,26.589,26.589,0,0,1,.612-5.066,5.8,5.8,0,0,0,.1-.884,4.1,4.1,0,0,0-1.53-2.686,5.045,5.045,0,0,0-2.55-1.666h-.306c1.462,1.9,1.7,2.686,1.734,5.848a38.484,38.484,0,0,0,.238,5.984,15.585,15.585,0,0,0,2.312,6.8c1.054,1.564,2.788,2.89,3.74,2.89a.8.8,0,0,0,.748-.85,2.976,2.976,0,0,0-.068-.544,4.076,4.076,0,0,1-.2-1.156c0-1.36.714-3.366,3.2-9.078Zm7.582-5.508a9.4,9.4,0,0,1,4.216,4.454,12.348,12.348,0,0,1,1.054,4.454c0,.646-.1.782-.782,1.02-.306.1-1.836.544-4.59,1.292l.1.51c1.156-.068,1.8-.068,2.584-.068a4.527,4.527,0,0,1,2.55.408,1.641,1.641,0,0,0,1.02.374c1.02,0,1.7-1.054,1.7-2.686,0-4.692-3.4-9.214-7.684-10.166Zm-18.972,45.11a1.339,1.339,0,0,0-.374.884,4.856,4.856,0,0,0,.884,2.278A3.753,3.753,0,0,0-10.3,223a2.241,2.241,0,0,0,1.36-.476,37.967,37.967,0,0,1,5.44-2.176A54.824,54.824,0,0,1,6.256,218a17.477,17.477,0,0,0-5.542,3.876,12.668,12.668,0,0,0-3.706,8.3A8.987,8.987,0,0,0,.952,237.79a14.042,14.042,0,0,0,6.9,2.448c.748,0,1.258-.374,1.258-.952a2.975,2.975,0,0,0-1.02-1.632,1.732,1.732,0,0,0-1.428-.544,10.651,10.651,0,0,1-3.468-.816,6.9,6.9,0,0,1-4.488-6.7c0-5.712,5.61-11.254,11.424-11.254a4.99,4.99,0,0,1,.952.068,4.361,4.361,0,0,0,.612.034c.646,0,1.054-.34,1.054-.85,0-.476-.306-.85-.986-1.292a4.54,4.54,0,0,0-1.836-.714,4.283,4.283,0,0,0-1.19.272,35.678,35.678,0,0,1-4.59,1.088c-2.244.442-4.08.85-5.508,1.19-7.616,1.836-8.466,2.006-9.418,2.006a1.927,1.927,0,0,1-1.53-.578A3.758,3.758,0,0,1-13.43,217.832ZM-.034,287.9A20.286,20.286,0,0,0,6.6,285.79c4.284-2.278,6.766-6.052,6.766-10.3A10.38,10.38,0,0,0,10.1,267.5a12.919,12.919,0,0,0-8.772-3.128,16.487,16.487,0,0,0-11.7,4.76,10.626,10.626,0,0,0-3.06,6.732,6.529,6.529,0,0,0,.782,3.094,21.163,21.163,0,0,1,1.5,3.2,6.675,6.675,0,0,0,.952,2.176,1.973,1.973,0,0,0,1.5.714c1.258,0,2.924-1.666,5.066-5.066C-1.054,275.828.85,270.864.85,268.212A4.437,4.437,0,0,0-.2,265.39a7.824,7.824,0,0,1,1.19-.068,11.224,11.224,0,0,1,5.882,1.564A8.434,8.434,0,0,1,10.71,274.4a12.094,12.094,0,0,1-3.026,8.194c-1.938,2.244-4.284,3.638-7.956,4.726Zm-.884-22.372a3.8,3.8,0,0,1,.476,1.7c0,2.108-1.8,6.494-4.318,10.506-1.666,2.652-3.3,4.488-4.046,4.488-.374,0-.816-.374-1.292-.986a7.955,7.955,0,0,1-1.36-4.488C-11.458,271.51-6.834,266.58-.918,265.526Zm1.9,49.122a.263.263,0,0,0,.272-.238.948.948,0,0,0-.17-.306,36.325,36.325,0,0,0-2.72-2.414c-.782.918-1.02,1.224-1.734,2.176H-9.86a44.114,44.114,0,0,0,2.108-4.42c1.19-.136,1.53-.272,1.53-.612s-.68-.544-3.706-1.156a22.711,22.711,0,0,1-1.088,4.216,28.738,28.738,0,0,1-3.978,8.126l.408.374a21.489,21.489,0,0,0,4.284-5.746H-7.48c-.034,4.25-.068,4.9-.272,7.616h-4.522a13.823,13.823,0,0,1-2.89-.238l.34,1.19a13.1,13.1,0,0,1,2.142-.17H-7.82a21.807,21.807,0,0,1-2.006,7.82,16.258,16.258,0,0,1-5.474,6.358l.306.442A15.95,15.95,0,0,0-8.772,332.5a17.458,17.458,0,0,0,2.38-4.93,16,16,0,0,1,2.55,2.55,21.83,21.83,0,0,1,3.06,4.42c.2.374.34.51.578.51.51,0,.986-1.088.986-2.278a2.352,2.352,0,0,0-.612-1.6A21.839,21.839,0,0,0-5.542,327.3c-.408-.238-.408-.238-.68-.374a21.878,21.878,0,0,0,.68-3.876H1.19a.327.327,0,0,0,.306-.272.428.428,0,0,0-.136-.238c-1.122-1.054-1.5-1.394-2.72-2.38A26.262,26.262,0,0,0-3.2,322.264H-5.508c.2-2.788.238-3.23.34-7.616Zm3.944-1.326a23.523,23.523,0,0,0-2.686-1.632c.1,1.326.136,4.114.136,12.954,0,5.44-.034,7.922-.136,11.458.068.408.238.476.884.476,1.19,0,1.428-.1,1.5-.544v-2.278h6.8v1.734c.034.374.17.476.714.476,1.224,0,1.6-.17,1.666-.714-.034-3.5-.1-8.772-.1-8.84V314.648c.884-.578,1.054-.748,1.054-.918q0-.153-.306-.408a15.723,15.723,0,0,0-1.972-1.632,13.618,13.618,0,0,0-1.224,1.632Zm-.306.782h6.8v18.87h-6.8ZM15.3,368.768c.136,0,.272-.1.272-.2a.676.676,0,0,0-.2-.306L12.41,365.81c-.816.918-1.088,1.224-1.87,2.176H8.6c-.1-2.006-.136-3.842-.136-5.984,0-1.36,0-2.312.068-4.284,1.054-.374,1.53-.646,1.53-.884q0-.255-.408-.408a27.693,27.693,0,0,0-3.468-.578,19.751,19.751,0,0,1,.17,2.346c.034,3.638.136,7.514.238,9.792H1.02a16.513,16.513,0,0,0,1.394-2.312c1.02-1.87,1.02-1.87,1.326-2.448,1.088-.1,1.258-.17,1.258-.408,0-.272-.374-.442-2.822-1.19A56.353,56.353,0,0,1,.34,367.986H-3.706a16.45,16.45,0,0,1-3.366-.238l.238,1.19a19.238,19.238,0,0,1,3.128-.17H6.664a30.532,30.532,0,0,0,1.36,8.6,36.933,36.933,0,0,1-3.842,5c-.068-1.088-.068-1.5-.068-2.108,0-.374,0-.85.034-1.632v-5.78c.782-.374.952-.476.952-.646,0-.1-.1-.238-.374-.476-.714-.544-.952-.714-1.666-1.224a12.883,12.883,0,0,0-1.054,1.258h-4.08c-.986-.578-1.326-.748-2.346-1.292.034,1.8.068,3.264.068,5.984s-.034,4.454-.136,7.548c.034.272.17.374.51.374,1.224,0,1.564-.136,1.6-.646V382.4H2.176v.34c0,.17.17.272.544.272a2.257,2.257,0,0,0,.442-.034c.1-.034.272-.034.476-.068a22.77,22.77,0,0,1-4.182,3.4l.306.442a29.471,29.471,0,0,0,9.112-7.242,16.256,16.256,0,0,0,4.046,5.542,2.938,2.938,0,0,0,1.9.952.77.77,0,0,0,.85-.85,1.565,1.565,0,0,0-.306-.918c-.544-.714-.544-.748-.544-1.054,0-.034,0-.034.034-.374l.646-6.766-.476-.068a50.315,50.315,0,0,1-1.9,6.188,12.536,12.536,0,0,1-2.924-4.488c.782-1.224,1.156-1.87,3.128-5.338,1.156-.1,1.6-.238,1.6-.544,0-.136-.1-.238-.306-.34-.374-.2-1.768-.748-2.924-1.156a25.318,25.318,0,0,1-2.312,4.862,34.743,34.743,0,0,1-.748-6.392ZM2.176,376.384H-2.38v-3.842H2.176Zm0,.782v4.454H-2.38v-4.454ZM.85,360.472v-2.89c1.156-.374,1.428-.51,1.428-.782,0-.306-.374-.408-2.074-.612-.34-.034-.918-.1-1.632-.17a12.384,12.384,0,0,1,.136,1.938v2.516H-3.3a11.923,11.923,0,0,1-2.618-.306l.238,1.258a13.528,13.528,0,0,1,2.38-.17H5.678q.408,0,.408-.2c0-.068-.034-.136-.17-.272-.952-.918-1.258-1.19-2.244-2.04L2.38,360.472Zm-15.47-1.6a14.2,14.2,0,0,1,2.006-.136h6.052c.17,0,.306-.1.306-.2,0-.068-.034-.136-.136-.238-.986-.952-1.292-1.224-2.38-2.142-.612.782-.782,1.02-1.394,1.8h-2.448a12.166,12.166,0,0,1-2.176-.238Zm-.884,4.284c1.156-.068,1.666-.1,2.244-.1h6.9c.238,0,.374-.1.374-.2a.353.353,0,0,0-.17-.272c-.986-.952-1.292-1.258-2.278-2.108a15.323,15.323,0,0,0-1.53,1.8h-3.3A13.45,13.45,0,0,1-15.708,362Zm.646,4.386c1.122-.1,1.632-.136,2.244-.136h5.78c.374,0,.51-.068.51-.2,0-.068-.034-.136-.136-.238a26.77,26.77,0,0,0-2.312-2.04,16.858,16.858,0,0,0-1.462,1.7h-2.38a9.843,9.843,0,0,1-2.482-.272Zm.1,4.488a19.327,19.327,0,0,1,2.142-.136h5.78q.51,0,.51-.2a.406.406,0,0,0-.136-.272c-.986-.884-1.292-1.156-2.346-1.972-.612.714-.816.918-1.394,1.666h-2.414a16.5,16.5,0,0,1-2.414-.238ZM-12.614,384h3.3v1.53c0,.272.136.374.476.374,1.156,0,1.564-.17,1.6-.646-.034-2.176-.034-3.536-.034-4.114V377.03c.884-.68.952-.748.952-.952,0-.1-.068-.238-.306-.442-.68-.578-.884-.782-1.7-1.394-.442.612-.578.782-.986,1.394h-2.89c-1.122-.646-1.462-.85-2.584-1.394.1,1.292.1,1.734.1,5.2,0,1.9-.034,4.352-.068,6.766,0,.272.136.374.476.374,1.36,0,1.666-.1,1.666-.612Zm0-7.582h3.3v6.8h-3.3Zm8.126-14.62a13.772,13.772,0,0,1,1.564,4.9c.136.816.2.918.442.918.51,0,1.156-1.122,1.156-1.972,0-.578-.136-.918-.782-1.8a10.427,10.427,0,0,0-2.108-2.278Zm14.042-2.72a12.561,12.561,0,0,1,2.652,4.794c.272.884.34,1.02.578,1.02.544,0,1.258-1.36,1.258-2.346,0-1.054-1.36-2.278-4.25-3.774ZM-6.46,405.65c1.428.238,2.074.578,2.448,1.224.272.51.306,1.02.408,3.91.1,2.55.136,3.3.238,4.114.17,1.462.476,2.21.986,2.584a2.3,2.3,0,0,0,1.632.51,21.788,21.788,0,0,0-4.148,2.72c-2.244,1.87-3.332,3.74-3.332,5.712a5.388,5.388,0,0,0,3.706,5.032,17.383,17.383,0,0,0,5.78.782,52.713,52.713,0,0,0,6.528-.442c1.088-.2,1.462-.51,1.462-1.122a1.933,1.933,0,0,0-1.836-1.666,3.274,3.274,0,0,0-.68.1,39.683,39.683,0,0,1-7.888.986c-3.774,0-5.712-1.258-5.712-3.706,0-1.6.816-2.924,2.652-4.352,2.142-1.632,4.386-2.652,8.5-3.808a21.489,21.489,0,0,0,2.278-.714,1.078,1.078,0,0,0,.714-1.02,1.657,1.657,0,0,0-1.632-1.428,2.958,2.958,0,0,0-1.394.408C1.156,416.938.408,417.21-.306,417.21c-1.054,0-1.326-.51-1.326-2.516a26.74,26.74,0,0,1,.748-6.9c.238-.612.272-.612.272-.884v-.068c0-.476-.272-.816-.952-1.088A11,11,0,0,0-5,405.106,1.8,1.8,0,0,0-6.46,405.65Z" transform="translate(1064.951 711.77)" fill="#3c1a00"/>
  </g>
</svg>
