<?xml version="1.0" encoding="UTF-8"?><svg id="_イヤー_2" xmlns="http://www.w3.org/2000/svg" viewBox="0 0 53.8 157.43"><g id="main"><g><path d="M35.42,11.05c1.17,.29,2.47,.78,3.51,1.38,.86,.49,1.2,1.01,1.2,1.82,0,.65-.26,1.25-.57,1.25-.03,0-.21-.1-.29-.16-.16-.13-.18-.16-.65-.86-.81-1.12-1.74-2-3.2-2.96v5.59q.03,4.76,.08,5.98c-.08,.34-.29,.44-.94,.44h-.34c-.39,0-.49-.05-.57-.26,0-.29,.03-2.29,.08-6.03v-4.52c-1.27,1.3-2.31,2.13-4.11,3.3l-.29-.39c1.69-1.4,2.89-2.65,4.34-4.6s2.29-3.35,3.2-5.33h-5.23c-.57,0-.96,.03-1.85,.13l-.18-.96c.7,.16,1.43,.23,2.03,.23h2.08V2.37c0-1.04-.03-1.38-.21-2.26,.57,.05,1.01,.1,1.3,.13,1.25,.1,1.59,.18,1.59,.44,0,.21-.21,.34-.99,.6v3.82h1.46c.52-.6,.7-.75,1.25-1.3,.7,.57,.91,.75,1.53,1.3,.23,.26,.29,.34,.29,.42,0,.21-.13,.26-1.3,.52-1.09,1.95-1.79,2.99-3.22,4.76v.26Zm5.41-1.33c-.55,0-1.04,.05-2.08,.18l-.21-.99c1.07,.18,1.46,.21,2.29,.21h3.69V3.25c0-1.35-.03-2.03-.18-3.25,.55,.08,1.09,.13,1.35,.16,1.35,.13,1.66,.23,1.66,.47,0,.21-.29,.39-1.04,.68v7.83h2.68l1.51-1.95c1.09,.91,1.43,1.2,2.47,2.16,.05,.05,.1,.16,.1,.18,0,.1-.13,.21-.26,.21h-6.5v11.78h3.17c.7-.86,.94-1.14,1.74-2.03,1.07,.91,1.38,1.22,2.42,2.26,.08,.05,.13,.16,.13,.18,0,.1-.13,.18-.26,.18h-13.6c-1.07,0-1.51,.03-2.47,.18l-.23-.99c.91,.13,1.77,.21,2.7,.21h4.6V9.72h-3.69Z" fill="#42210b"/><path d="M44.81,39.16c2.11-1.01,3.48-1.9,4.73-3.09,1.87,1.01,2.21,1.22,2.21,1.4,0,.16-.18,.23-.49,.23-.1,0-.6-.03-.94-.03-1.77,.86-3.51,1.48-5.51,1.95v1.48c0,.36,.05,.44,.31,.49,.18,.03,1.43,.08,2.13,.08,.23,0,.62,0,1.3-.03h1.07c.99,0,1.12-.03,1.27-.29,.18-.29,.73-1.64,1.17-2.89l.31,.03-.16,2.05v.6q0,.13,.47,.31c.36,.1,.55,.31,.55,.62,0,.86-.7,.99-5.54,.99-4.19,0-4.42-.08-4.47-1.4v-6.66h-5.36c-.62,.96-.96,1.4-1.59,2.08h3.67c.44-.42,.57-.52,1.04-.91,.6,.47,.78,.6,1.35,1.07,.18,.16,.23,.23,.23,.31,0,.16-.13,.21-1.01,.49-1.72,2.5-3.09,3.77-5.56,5.07-1.82,.96-3.56,1.59-6.03,2.16l-.13-.42c3.02-1.09,4.94-2.08,6.76-3.48-.21-.03-.26-.08-.42-.29-.62-.91-1.38-1.66-2-2.03-1.69,1.33-2.5,1.82-4,2.47l-.23-.36c1.61-1.04,2.68-2,4.13-3.64,.86-.99,1.33-1.61,1.85-2.52h-3.04c-1.12,0-1.3,0-2.21,.16l-.18-1.01c.81,.18,1.48,.26,2.39,.26h16.56c.68-.73,.88-.96,1.59-1.66,.99,.81,1.27,1.07,2.24,1.9,.05,.08,.1,.16,.1,.21,0,.1-.1,.16-.29,.16h-8.27v4.13Zm-.88-8.27c0-.13,.03-.18,.03-.21,0-1.14-.05-1.72-.13-2.18,2.24,.23,2.89,.36,2.89,.6,0,.18-.21,.29-1.09,.52q-.03,.99-.03,1.27h4c.73-.78,.96-1.01,1.66-1.72,1.04,.83,1.38,1.09,2.44,1.95,.05,.08,.1,.16,.1,.21,0,.1-.1,.16-.26,.16h-7.96c0,.55,0,.78,.03,1.48-.03,.31-.26,.36-1.43,.36-.26,0-.31-.05-.31-.23,.03-.83,.05-1.12,.05-1.61h-4.99v.31l-.03,.47c0,.16,.03,.34,.05,.68,0,.16-.03,.21-.1,.26-.1,.08-.68,.13-1.4,.13-.16,0-.23-.05-.26-.21,.05-.88,.08-1.17,.08-1.64h-4.97c-1.09,0-1.3,.03-2.08,.13l-.18-.94c.73,.16,1.25,.21,2.26,.21h4.97c.03-.29,.03-.52,.03-.73,0-.7-.03-.99-.1-1.66,.55,.08,1.01,.13,1.3,.16,1.25,.13,1.53,.21,1.53,.44,0,.18-.23,.29-1.09,.52v1.27h4.99Zm-6.5,14.92c.05-.52,.08-.83,.08-1.27,0-.42-.03-.65-.1-1.12,.55,.08,.96,.16,1.25,.18,1.12,.16,1.56,.29,1.56,.47s-.13,.23-.96,.52c-.08,.78-.08,.88-.13,1.22h4.81c0-1.3-.03-1.33-.1-2.18,2.5,.23,2.7,.26,2.7,.49,0,.18-.05,.21-.91,.57v1.12h3.98c.7-.81,.91-1.04,1.61-1.74,1.07,.81,1.38,1.07,2.39,1.95,.05,.08,.1,.16,.1,.21,0,.08-.13,.18-.23,.18h-7.88v1.59c0,.65,0,.81,.05,3.82,0,.13-.05,.18-.13,.23-.13,.08-.81,.16-1.38,.16-.23,0-.31-.08-.31-.29,.08-1.74,.1-2.47,.1-3.8v-1.72h-4.89c-.34,1.77-.81,2.7-1.74,3.54-1.61,1.43-3.82,2.24-7.02,2.57l-.1-.39c3.04-.75,4.58-1.46,5.69-2.63,.75-.78,1.2-1.69,1.46-3.09h-4.73c-.96,0-1.35,.03-2.03,.16l-.18-.94c.75,.16,1.2,.18,2.21,.18h4.84Zm-1.72-8.11c-.49,.49-.75,.73-1.27,1.17,.49,.08,.96,.21,1.61,.44,.88,.34,1.17,.57,1.17,1.01,0,.31-.08,.52-.21,.75,1.27-1.07,2.03-1.95,2.94-3.38h-4.24Z" fill="#42210b"/><path d="M43.09,69.63c1.35-1.35,2.78-3.04,4-4.76,.39-.55,.65-.96,.65-1.07s-.08-.18-.18-.18c-.39,0-1.25,.26-3.51,1.07-3.12,1.09-3.56,1.27-4.6,1.69-.05,1.2-.05,1.64-.05,2.39,0,2.63,.13,3.85,.52,4.45,.39,.62,1.3,.91,2.94,.91,1.82,0,3.61-.26,4.71-.68,.34-.13,.39-.16,.52-.16,.23,0,.62,.16,1.01,.42,.52,.34,.78,.73,.78,1.09,0,.31-.21,.52-.6,.6-.88,.23-2.42,.34-4.29,.34-3.69,0-5.41-.55-6.19-2-.57-1.01-.75-2.63-.81-6.86q-.23,.13-1.27,.55c-.18,.08-.52,.23-1.01,.44-.26,.13-.55,.26-.81,.39-.36,.16-.39,.18-.73,.39s-.57,.29-.83,.29c-.55,0-1.25-.52-1.9-1.35-.44-.57-.73-1.2-.73-1.56,0-.08,.03-.18,.05-.31,.81,.96,1.35,1.3,2.11,1.3,.65,0,3.2-.68,5.15-1.35-.05-4.91-.05-5.15-.23-5.8-.21-.7-.81-1.14-1.92-1.46,.23-.26,.44-.34,.88-.34,.88,0,2,.31,2.89,.78,.52,.29,.78,.62,.78,.96q0,.16-.21,.62c-.31,.68-.55,2.39-.68,4.78,3.02-1.01,4.81-1.61,5.59-1.92q1.43-.55,1.92-.91c.26-.21,.42-.26,.68-.26,.49,0,1.22,.42,2.03,1.12,.57,.52,.81,.83,.81,1.14,0,.36-.13,.47-.73,.7-.26,.1-.94,.62-2.73,2.13-1.22,.99-2.11,1.64-3.74,2.73l-.26-.31Z" fill="#42210b"/><path d="M35.47,96.15c.6,1.07,1.17,1.56,2.39,2.11,1.14,.49,2.44,.86,4.73,1.3,1.25,.23,2.29,.39,2.76,.39h.1c.13-.03,.23-.03,.29-.03,.6,0,.99,.23,1.56,.88,.49,.57,.81,1.2,.81,1.61,0,.36-.21,.57-.6,.57-.18,0-.34-.05-.73-.18-.57-.23-.94-.34-4.91-1.61-2.39-.78-3.64-1.3-4.58-1.9-1.12-.75-1.72-1.59-2.11-3.04l.29-.1Zm1.14-13.16c1.14,1.12,2,1.56,3.9,2.03,1.17,.29,2.47,.47,3.43,.47,.23,0,.42-.03,.7-.08,.05-.03,.08-.03,.13-.03,.13,0,.36,.13,.68,.36,.62,.52,1.04,1.14,1.04,1.53,0,.34-.23,.55-.62,.55-.6,0-2.91-.57-4.6-1.12-2.7-.88-3.85-1.72-4.94-3.51l.29-.21Zm.57,6.45c.55,.83,1.14,1.27,2.18,1.69,1.25,.47,2.94,.83,3.87,.83,.05,0,.34,0,.42-.03h.26c.26,0,.47,.1,.83,.47,.57,.57,.88,1.07,.88,1.4,0,.31-.26,.55-.62,.55-.44,0-2.11-.44-3.41-.91-2.94-1.07-4.13-2.05-4.71-3.87l.29-.13Z" fill="#42210b"/><path d="M35.45,130.31c1.85-1.74,3.02-3.38,4.03-5.56,.96-2.05,1.48-4.52,1.69-7.64-2.37,.29-4.45,.78-6.01,1.46-.44,.18-.6,.21-.83,.21-.49,0-1.07-.34-1.72-1.04-.52-.57-.91-1.22-.91-1.61,0-.1,.03-.21,.13-.39,.75,.91,1.46,1.3,2.34,1.3,.7,0,.83-.03,4.5-.6,.86-.13,1.53-.23,2.55-.34,.03-.73,.03-1.12,.03-2.03,0-2.26-.13-2.83-.7-3.41-.36-.34-.88-.55-1.74-.68,.34-.31,.55-.39,1.07-.39,.99,0,2.39,.34,3.17,.75,.49,.26,.68,.47,.68,.83,0,.16-.03,.29-.16,.55-.31,.68-.52,2.21-.6,4.16,.47-.05,1.9-.18,3.46-.31,.99-.08,1.59-.21,2.11-.39,.21-.1,.36-.13,.55-.13,.42,0,.78,.1,1.25,.31,.91,.44,1.35,.83,1.35,1.25,0,.29-.23,.52-.55,.52-.08,0-.18,0-.34-.03-1.43-.26-2.91-.39-4.58-.39-.94,0-1.48,.03-3.28,.18-.36,4.26-1.01,6.58-2.47,8.97-1.12,1.82-2.73,3.41-4.78,4.78l-.23-.34Z" fill="#42210b"/><path d="M40.83,140.95c0-1.87-.08-2.42-.42-2.86-.31-.39-.75-.68-1.43-.88,.21-.23,.49-.34,.83-.34,.55,0,1.48,.29,2.34,.75,.86,.44,1.12,.7,1.12,1.12,0,.26-.05,.36-.36,.81-.26,.42-.31,1.56-.31,11.47-.03,5.49-.18,6.42-1.04,6.42-.23,0-.42-.18-.55-.52-.18-.42-.23-1.27-.23-3.22l.05-12.74Z" fill="#42210b"/><path d="M.23,18.88c2.5-1.56,5.07-3.67,6.99-5.69,1.56-1.64,3.43-4.08,4.97-6.47,.83-1.27,1.27-2.13,1.77-3.35-1.25,.08-2.63,.36-5.49,1.14-1.25,.34-1.35,.36-2.18,.7-.13,.05-.29,.08-.44,.08-.57,0-1.12-.47-1.69-1.48-.36-.6-.55-1.14-.55-1.56,0-.16,.05-.29,.18-.52,.75,1.35,1.3,1.74,2.44,1.74,.86,0,3.48-.34,5.46-.73,1.51-.29,1.98-.44,2.44-.73,.29-.18,.42-.23,.6-.23,.55,0,2.03,1.33,2.03,1.82,0,.18-.1,.34-.34,.49q-.55,.36-1.48,1.77-1.25,1.87-3.28,4.52c3.67,1.92,5.72,3.25,6.73,4.39,.7,.75,.99,1.51,.99,2.57,0,.83-.26,1.35-.7,1.35-.18,0-.39-.13-.6-.42q-.1-.13-.62-1.04c-1.3-2.18-3.54-4.5-6.19-6.37-2.11,2.55-3.8,4.13-6.29,5.85-1.64,1.14-2.76,1.77-4.55,2.55l-.21-.39Z" fill="#42210b"/><path d="M.44,37.42c1.72-1.98,2.96-3.85,4.11-5.98,1.14-2.18,1.85-3.9,1.85-4.55,0-.7-.52-1.22-1.72-1.72,.29-.13,.42-.18,.65-.18,.62,0,1.48,.29,2.37,.75,.78,.44,1.17,.83,1.17,1.2,0,.26-.03,.31-.52,1.07-.05,.1-.21,.36-.44,.75-.39,.75-1.12,1.98-1.53,2.63,.42,.36,.88,.52,1.53,.52,1.2,0,3.46-.34,5.75-.86,2.16-.52,3.02-.78,3.93-1.27,.1-.08,.31-.13,.47-.13,.26,0,.94,.23,1.46,.52,.62,.34,.86,.57,.86,.88,0,.23-.16,.39-.47,.47-.16,.05-.23,.05-1.35,.18-.21,.03-2.34,.31-3.15,.44q-2.05,.31-2.68,.39c1.09,.68,1.61,1.22,1.61,1.69,0,.36-.31,1.51-.7,2.55-1.66,4.47-4.37,7.85-8.03,10.11l-.29-.29c1.92-1.72,3.56-3.87,4.91-6.47,1.35-2.55,2.08-4.78,2.08-6.29,0-.47-.16-.73-.7-1.2-.21,.03-.39,.05-.49,.05-1.2,.13-1.82,.18-2.68,.18-1.14,0-1.48-.13-2.42-.91-1.9,2.7-3.48,4.42-5.36,5.69l-.21-.23Z" fill="#42210b"/><path d="M.81,59.41c2.16,.44,3.69,.96,4.55,1.53,.7,.44,.99,.96,.99,1.72,0,.68-.34,1.25-.73,1.25-.26,0-.42-.1-.81-.6-1.33-1.66-2.55-2.7-4.16-3.56l.16-.34Zm20.07-.65c-.57,.94-2.03,2.6-3.87,4.45-2.86,2.76-5.72,4.97-9.85,7.57-1.38,.91-1.69,1.12-2,1.43-.21,.18-.39,.26-.6,.26-.52,0-1.12-.49-1.85-1.56-.47-.7-.81-1.51-.81-2,0-.23,.08-.42,.23-.6,.49,.99,1.22,1.61,1.95,1.61,.57,0,2.29-.86,4.99-2.55,4.76-2.91,8.63-5.93,11.49-8.84l.31,.23Zm-17.21-3.95c4.16,.99,5.49,1.79,5.49,3.3,0,.73-.31,1.3-.7,1.3q-.29,0-1.4-1.38c-1.01-1.2-2.31-2.24-3.56-2.86l.18-.36Zm11.13-2.24c.96,.52,1.66,1.01,2.31,1.59,.94,.86,1.3,1.46,1.3,2.08s-.36,1.09-.81,1.09q-.34,0-1.17-1.69c-.44-.91-1.27-2.05-1.98-2.73l.34-.34Zm2.68-1.53c.94,.44,1.69,.88,2.5,1.51,.99,.75,1.33,1.27,1.33,2,0,.62-.26,1.07-.65,1.07-.23,0-.39-.13-.6-.52-.91-1.64-1.43-2.29-2.86-3.69l.29-.36Z" fill="#42210b"/><path d="M10.27,82.08c.86,0,2.39-.21,3.72-.49,.68-.16,.81-.21,1.09-.36,.1-.08,.23-.13,.34-.18,.18-.08,.23-.1,.39-.1,.26,0,.83,.39,1.3,.88,.42,.44,.52,.62,.52,.88,0,.16-.03,.23-.18,.42-.21,.29-.31,.62-.6,1.79-.39,1.48-.94,3.8-1.12,4.58q.23-.03,1.07-.05c1.9-.13,2.11-.16,2.73-.39,.26-.1,.34-.13,.44-.13,.21,0,.7,.21,1.09,.44,.62,.36,1.01,.83,1.01,1.2,0,.29-.26,.52-.6,.52q-.21,0-1.4-.26c-.65-.16-1.69-.23-3.12-.23-2.5,0-4.42,.23-6.76,.81-1.04,.23-1.66,.44-2.26,.73-.34,.18-.44,.21-.68,.21-.47,0-1.01-.31-1.48-.86-.44-.52-.86-1.35-.86-1.74,0-.08,.03-.21,.1-.44,.55,.83,1.2,1.25,1.98,1.25,.26,0,.94-.08,1.77-.21,1.66-.23,2.96-.42,3.95-.55q1.07-.13,1.59-.21c.42-2.08,1.01-6.24,1.01-7.1,0-.08-.03-.1-.08-.1-.31,0-2.21,.42-3.12,.68-.75,.23-.99,.31-1.48,.55-.18,.08-.44,.13-.62,.13-.47,0-.91-.36-1.3-1.04-.31-.55-.49-1.07-.49-1.43,0-.16,.03-.26,.16-.49,.42,.88,1.07,1.33,1.9,1.33Z" fill="#42210b"/><path d="M9.83,106.26c0-1.87-.08-2.42-.42-2.86-.31-.39-.75-.68-1.43-.88,.21-.23,.49-.34,.83-.34,.55,0,1.48,.29,2.34,.75,.86,.44,1.12,.7,1.12,1.12,0,.26-.05,.36-.36,.81-.26,.42-.31,1.56-.31,11.47-.03,5.49-.18,6.42-1.04,6.42-.23,0-.42-.18-.55-.52-.18-.42-.23-1.27-.23-3.22l.05-12.74Z" fill="#42210b"/><path d="M0,147.76c1.43-1.33,2.47-2.83,3.48-4.94,.99-2.05,1.79-5.25,1.79-7.05,0-1.01-.44-1.53-1.77-2.03,.29-.18,.42-.23,.7-.23,.57,0,1.2,.21,1.95,.65,.96,.57,1.4,1.01,1.4,1.43,0,.21-.05,.42-.34,1.2q-.03,.1-.26,.91c-.83,2.73-1.07,3.38-1.77,4.78-1.25,2.47-2.7,4.13-4.91,5.56l-.29-.29Zm22.21-10.38c-.81,1.38-1.48,2.24-2.83,3.67-1.51,1.61-3.9,3.69-5.51,4.76-.49,.34-1.25,.94-1.48,1.17-.21,.21-.34,.29-.52,.29-.6,0-1.56-1.35-1.56-2.16,0-.05,.05-.31,.18-.81,.16-.6,.23-2.91,.23-7.05,0-5.9-.1-6.24-2-6.66,.26-.31,.44-.39,.83-.39,.62,0,1.43,.29,2.29,.81,.75,.47,1.07,.83,1.07,1.2,0,.13-.03,.23-.21,.7-.13,.34-.26,1.22-.36,2.55-.1,1.09-.34,6.84-.34,7.83,0,.34,0,.62,.05,1.2,3.02-1.17,6.84-4.06,9.83-7.36l.34,.26Z" fill="#42210b"/></g></g></svg>