<?xml version="1.0" encoding="UTF-8"?><svg id="_イヤー_2" xmlns="http://www.w3.org/2000/svg" viewBox="0 0 469.97 182.73"><g id="main"><path id="_ス_3948" d="M.57,25.83c.34-1.66,1.13-2.38,2.72-2.53,1.06-.04,2.12,.08,3.15,.35,.68,.15,1.37,.2,2.07,.17,.88-.02,1.67-.53,2.06-1.32l.46,.22c-.08,.49-.27,.96-.55,1.36-.49,.69-1.28,1.12-2.13,1.15-.93,.02-1.86-.06-2.77-.26-.8-.2-1.62-.29-2.44-.26-.91-.02-1.74,.5-2.11,1.33l-.46-.22Z" fill="#d9af71" stroke="#d9af71"/><path id="_ス_3949" d="M44.67,22.09c1.33-1.56,2.54-3.23,3.61-4.99,.24-.34,.43-.71,.57-1.1,0-.1-.09-.17-.19-.17h0c-.39,.03-1.22,.36-3.4,1.31-3,1.32-3.44,1.53-4.44,2.02,.04,1.18,.07,1.61,.13,2.36,.2,2.59,.43,3.78,.86,4.34,.44,.57,1.35,.8,2.97,.67,1.58-.09,3.13-.43,4.6-1.02,.15-.1,.32-.16,.5-.19,.37,.02,.72,.14,1.03,.34,.43,.18,.75,.56,.85,1.02,.02,.31-.17,.53-.55,.63-1.38,.37-2.79,.59-4.21,.65-3.65,.28-5.38-.15-6.27-1.5-.63-.95-.95-2.53-1.33-6.69-.39,.24-.8,.45-1.22,.64-.17,.09-.5,.27-.97,.51-.25,.15-.52,.31-.77,.45-.24,.13-.47,.27-.69,.44-.23,.19-.51,.31-.8,.35-.8-.11-1.51-.53-1.99-1.18-.41-.4-.71-.91-.85-1.48,0-.1,0-.21,.03-.31,.88,.88,1.44,1.17,2.19,1.11,1.72-.42,3.39-1,5-1.74-.43-4.83-.45-5.07-.68-5.69-.25-.67-.89-1.06-2.03-1.28,.2-.27,.52-.42,.85-.4,1.01-.04,2.01,.14,2.93,.54,.54,.24,.82,.55,.85,.89,.01,.15,.01,.16-.16,.63-.32,1.57-.42,3.17-.3,4.76,2.91-1.23,4.65-1.96,5.4-2.32,.67-.23,1.3-.58,1.84-1.04,.17-.19,.4-.3,.65-.31,.78,.09,1.52,.42,2.1,.95,.6,.46,.86,.76,.88,1.07,.03,.36-.09,.47-.67,.74-.92,.69-1.77,1.46-2.55,2.3-1.12,1.05-2.29,2.04-3.51,2.97l-.28-.28Z" fill="#d9af71" stroke="#d9af71"/><path id="_ス_3950" d="M79.46,14.91c-.99,1.68-2.19,3.22-3.57,4.6-2.19,2.26-4.69,4.19-7.43,5.74-1.39,.84-1.42,.84-1.84,1.36-.12,.2-.33,.34-.57,.37-.51,.04-1.8-1.39-1.85-2.09,0-.13,0-.14,.1-.47,.15-.55,.13-1.17-.06-3.93-.39-5.66-.69-8.14-1.09-9.06-.27-.62-.71-.9-1.88-1.21,.22-.19,.49-.3,.78-.31,.73,0,1.45,.16,2.11,.47,1.04,.47,1.6,.95,1.63,1.46,0,.19-.02,.37-.09,.55-.13,.85-.19,1.7-.16,2.56-.01,1.56,.14,6.25,.27,8.14,.02,.26,.05,.72,.09,1.28,3.06-1.28,5.92-3,8.48-5.12,1.72-1.39,3.3-2.94,4.73-4.62l.35,.28Z" fill="#d9af71" stroke="#d9af71"/><path id="_ス_3951" d="M90.11,8.79c1.19,.86,1.93,1.12,2.92,1.07,1.98-.19,3.93-.62,5.8-1.3,.96-.27,1.86-.69,2.68-1.25,.15-.11,.33-.17,.51-.18,.8-.04,2.05,.64,2.08,1.12,.02,.33-.49,.62-1.77,.97-2.2,.62-4.43,1.11-6.69,1.47,1.3,.55,1.74,.93,1.77,1.57,.01,.25-.02,.51-.09,.75-.12,.73-.17,1.48-.16,2.22,1.36-.28,5.61-1.13,6.02-1.23,.58-.11,1.14-.29,1.68-.53,.17-.08,.35-.14,.54-.16,.6,.04,1.18,.21,1.71,.5,.53,.28,.86,.65,.88,.96s-.26,.5-.78,.53c-.08,0-.16,.01-.31,.02-.43,0-1.63,.03-2.38,.07-2.48,.14-4.94,.46-7.37,.96,.03,1.54,.04,2.21,.08,2.88,.1,1.85,.22,2.48,.5,2.96,.34,.57,1,.77,2.16,.7,1.53-.05,3.04-.36,4.47-.91,.09-.04,.18-.06,.28-.07,.45,.03,.89,.19,1.26,.45,.45,.29,.67,.56,.69,.86,.02,.36-.23,.59-.73,.71-1.17,.24-2.36,.39-3.56,.44-3.29,.18-4.76-.2-5.55-1.42-.54-.82-.72-1.79-.89-3.5-.03-.35-.05-.36-.14-2.05l-.05-.82c-1.61,.29-3.19,.76-4.71,1.4-.18,.13-.39,.2-.61,.21-.45-.01-.89-.19-1.22-.5-.68-.5-1.18-1.21-1.41-2.03,0-.17,.04-.35,.13-.5,.52,.83,1.45,1.31,2.43,1.25,1.79-.2,3.56-.51,5.31-.92,0-.44,0-.46-.02-.82-.17-2.97-.27-3.41-.86-3.86-1.3,.19-2.62-.04-3.77-.66-.43-.31-.82-.68-1.15-1.09l.34-.3Z" fill="#d9af71" stroke="#d9af71"/><path id="_ス_3952" d="M119,25.1c1.95-1.86,3.45-4.14,4.36-6.68,.72-1.81,1.16-3.72,1.3-5.66-.03-.69-.54-1.18-1.6-1.57,.14-.18,.36-.29,.59-.28,.71,.1,1.39,.32,2.02,.66,.46,.16,.86,.45,1.15,.85,1.61-1.15,3.11-2.44,4.48-3.87,.57-.59,.77-.88,.76-1.06-.01-.31-.33-.37-1.54-.32-3,.33-5.97,.93-8.87,1.8-.89,.27-1.76,.61-2.6,1.02-.18,.09-.38,.14-.59,.16-.57,.03-1.54-.7-2.15-1.62-.28-.41-.47-.87-.56-1.36,0-.21,.05-.42,.15-.6,.47,1,1.54,1.58,2.64,1.42,.93-.04,1.39-.12,6.21-.95,.23-.04,.8-.14,1.78-.28,3.99-.64,4.2-.69,4.73-.97,.1-.05,.22-.08,.33-.09,.52,.1,1.01,.33,1.4,.69,1.15,.8,1.93,1.64,1.95,2.08,.02,.39-.16,.48-.9,.73-.44,.14-.86,.34-1.25,.59-2.1,1.29-3.24,1.93-5.97,3.36-.14,.44-.16,.5-.34,1.17-1.01,3.57-1.92,5.63-3.39,7.5-1.07,1.41-2.36,2.64-3.83,3.62l-.28-.32Z" fill="#d9af71" stroke="#d9af71"/><path id="_ス_3953" d="M153.95,22.68c2.75-.91,4.49-2.03,5.91-3.76,1.45-1.75,2.21-3.98,2.11-6.25,.05-2.28-1.13-4.42-3.09-5.59-1.38-.75-2.94-1.11-4.52-1.04-.3,0-.61,.03-.9,.08,.53,.58,.84,1.32,.87,2.1,.06,2-1.26,5.81-3.12,8.99-1.53,2.62-2.75,3.92-3.71,3.96-.44,.01-.86-.17-1.15-.5-.24-.28-.3-.4-.78-1.61-.34-.82-.75-1.62-1.22-2.37-.41-.7-.65-1.5-.68-2.31,.07-1.92,.83-3.76,2.14-5.17,2.3-2.41,5.46-3.81,8.78-3.89,2.44-.14,4.85,.63,6.75,2.16,1.71,1.5,2.68,3.68,2.66,5.96,.09,3.21-1.71,6.11-4.9,7.93-1.54,.86-3.22,1.45-4.97,1.75l-.19-.43Zm-8.75-7.69c.04,1.21,.44,2.38,1.15,3.35,.38,.45,.72,.72,1.01,.71,.57-.02,1.75-1.45,2.95-3.49,1.81-3.09,3.07-6.45,3.02-8.04-.03-.45-.17-.89-.4-1.27-4.48,.94-7.87,4.79-7.72,8.74Z" fill="#d9af71" stroke="#d9af71"/><path id="_ス_3954" d="M174.73,11.25h-.26c-.76,.02-1.52,.09-2.27,.22l-.2-.89c.81,.11,1.64,.14,2.46,.09,6.88-.17,10.31-.24,17.19-.36,.63-.78,.84-1.02,1.47-1.8,.76,.66,1.52,1.28,2.23,1.89,.16,.13,.21,.2,.21,.28s-.13,.16-.23,.16c-5.12,.08-7.68,.13-12.79,.24,.06,2.69,.09,4.03,.14,6.73,.05,2.44,.11,3.9,.25,6.03,0,.14-.09,.27-.22,.31-.41,.11-.83,.18-1.26,.21-.21,0-.31-.07-.31-.25v-.05c.03-2.36,.01-3.03-.01-4.16q-3.37,1.31-7.15,2.66c-.13,.88-.18,1.06-.41,1.06-.26,0-.47-.48-1.12-2.51,.84-.06,1.68-.17,2.52-.32-.09-3.81-.14-5.71-.23-9.52Zm2.64-2.12v.08c0,.21-.28,.29-1.11,.31-.52,.01-.65-.04-.65-.24v-.05c.03-1.85,.04-2.67-.01-5.01-.04-1.72-.07-2.13-.18-3.23,.84,.44,1.1,.59,1.92,1.09,4.82-.11,7.24-.16,12.06-.25,.38-.5,.51-.65,.94-1.15,.56,.37,1.09,.78,1.58,1.23,.13,.13,.18,.2,.19,.28,0,.15-.58,.27-.82,.73-.82,1.61,.08,4.47,.15,5.72v.03c-.02,.23-.06,.28-.2,.34-.38,.09-.77,.13-1.16,.12-.34,0-.41-.04-.42-.25,0-.27,0-.4-.01-.67-4.92,.09-7.37,.14-12.29,.25l.02,.67Zm-.98,4.54c1.85-.04,2.77-.06,4.62-.1-.02-.99-.03-1.48-.05-2.46-1.85,.04-2.78,.06-4.63,.1,.02,.99,.03,1.48,.06,2.46h0Zm.07,3.13c1.85-.04,2.77-.06,4.62-.1-.02-1.02-.03-1.53-.05-2.54-1.85,.04-2.77,.06-4.62,.1,.02,1.02,.04,1.53,.06,2.54h0Zm.09,3.65c2.21-.44,3-.61,4.59-1.03-.02-.85-.03-1.28-.05-2.13-1.85,.04-2.77,.06-4.61,.1l.07,3.05Zm12.99-18.05c-4.93,.09-7.39,.14-12.32,.25l.05,2.26c4.92-.11,7.38-.16,12.31-.25-.02-.9-.03-1.35-.04-2.26h0Zm-12.25,3.1c.02,.94,.03,1.42,.05,2.36,4.92-.11,7.38-.16,12.29-.25-.02-.94-.03-1.42-.04-2.36-4.92,.1-7.38,.14-12.31,.26h0Zm13.74,7.71c.46-.47,.61-.6,1.09-1.05,.68,.53,.86,.7,1.57,1.28,.16,.15,.24,.25,.24,.33,0,.15-.1,.23-1.17,.64-.79,1.68-1.78,3.26-2.96,4.7,1.8,1.23,3.87,2,6.04,2.26,0,.13,0,.2,0,.33-.42,.08-.81,.27-1.12,.56-.33,.28-.54,.66-.6,1.09-1.94-.72-3.72-1.83-5.23-3.25-1.52,1.49-3.31,2.69-5.26,3.54l-.21-.28c1.78-1.09,3.35-2.49,4.66-4.12-1.42-1.53-2.5-3.35-3.15-5.33h-.23c-.43,.02-.86,.07-1.29,.16-.08-.34-.12-.51-.2-.84,.49,.09,.98,.12,1.47,.1,2.54-.05,3.81-.07,6.35-.12h0Zm-5.64,.69c.4,.97,.95,1.88,1.63,2.69,.53,.65,1.12,1.24,1.76,1.76,1.02-1.38,1.78-2.92,2.27-4.56-2.26,.05-3.39,.07-5.66,.11h0Z" fill="#d9af71" stroke="#d9af71"/><path id="_ス_3955" d="M220.86,10.05c.66-.81,.99-1.21,1.64-2.01,1.14,.97,1.51,1.25,2.6,2.22,.06,.05,.1,.13,.1,.21,0,.08-.13,.15-.26,.16-3.96,.02-5.94,.03-9.9,.06,.04,4.44,.05,6.66,.09,11.09,3-.02,4.49-.03,7.49-.05,.72-.95,.95-1.24,1.64-2.09,1.19,.97,1.55,1.28,2.69,2.3,.06,.05,.1,.13,.1,.2,0,.08-.1,.15-.21,.16-6.94,.02-13.88,.07-20.81,.15-.72,0-1.43,.08-2.13,.23l-.22-1c.77,.15,1.56,.21,2.35,.18,2.9-.03,4.35-.05,7.26-.07-.06-7.08-.09-10.61-.15-17.69,.02-1.05-.06-2.1-.24-3.13,.62,.07,1.09,.15,1.38,.17,1.4,.17,1.66,.24,1.66,.45s-.23,.34-.95,.55c.03,3.18,.04,4.78,.06,7.96,2.33-.02,3.49-.02,5.81-.04Z" fill="#d9af71" stroke="#d9af71"/><path id="_ス_3956" d="M237.21,22.68c-.03,.33-.22,.42-1,.44-.13,0-.26,.03-.36,.03h-.05c-.28,0-.39-.11-.39-.39,.04-1.4,.1-2.34,.1-4.34,0-3.62-.02-5.85-.07-6.7,.72,.33,1.41,.7,2.07,1.13,1.94,0,2.91,0,4.85,.01,.47-.56,.62-.74,1.14-1.28,.64,.54,.82,.7,1.39,1.24,.18,.23,.23,.31,.23,.41q0,.18-.8,.69c0,2.08,.1,6.88,.02,8.4,.01,.17-.1,.33-.26,.38-.38,.09-.77,.14-1.16,.15-.18,.03-.35-.09-.38-.27v-.03c0-.64,0-.95,0-1.59-2.13,0-3.2,0-5.33-.01,0,.7,0,1.05,0,1.75Zm0-2.34c2.13,0,3.2,0,5.33,.01,0-2.76,.01-4.14,.02-6.91-2.14,0-3.21,0-5.34-.01v6.91Zm4.01-9.96c-.03,.41-.28,.51-1.22,.51-.44,0-.55-.08-.57-.28-.18-1.86,.06-2.67,.06-5.01,0-2.18,0-3.29-.04-4.57,.99,.49,1.3,.64,2.31,1.21,3.43,0,5.15,.02,8.58,.04,.35-.42,.72-.83,1.12-1.2,.72,.57,.95,.75,1.65,1.35,.15,.15,.21,.26,.2,.36,0,.18-.7,.38-.89,.69-.58,.93,0,5.02,0,6.78,.03,.18-.07,.35-.24,.41-.35,.1-.7,.15-1.06,.15-.36,0-.49-.08-.51-.39,0-.48,0-.72,0-1.21-3.77-.02-5.65-.03-9.41-.04v1.2Zm0-1.8c3.77,0,5.65,.02,9.42,.04l.04-5.75c-3.78-.02-5.66-.03-9.44-.04,0,2.3,0,3.45-.01,5.75h0Zm6.18,6.68c0-1.21-.02-2.03-.03-3.67,.88,.52,1.16,.7,2.03,1.29,1.93,.01,2.9,.02,4.83,.03,.44-.51,.57-.66,1.04-1.17,.72,.6,.92,.78,1.56,1.32,.15,.16,.2,.23,.2,.36,0,.18-.18,.33-.78,.59v1.36c-.03,2.57,.03,6.06-.02,7.09,.01,.18-.09,.34-.26,.41-.37,.1-.75,.15-1.13,.15-.31,0-.44-.11-.46-.39v-1.62c-2.14-.02-3.22-.02-5.37-.04,0,.63,0,.94,0,1.57-.05,.33-.23,.44-.85,.46-.22,0-.41,.02-.44,.02h-.05c-.23,0-.33-.08-.36-.28,.04-2.99,.06-4.49,.09-7.48h0Zm1.62,5.12c2.15,.01,3.23,.02,5.38,.04,.02-2.76,.03-4.14,.05-6.91-2.16-.02-3.24-.02-5.4-.04-.01,2.76-.02,4.14-.04,6.91h0Z" fill="#d9af71" stroke="#d9af71"/><path id="_ス_3957" d="M273.72,5.62c-.02,1.16-.02,2.12-.02,2.82,0,.1,0,.21,0,.26,0,.08,0,.18,0,.31,0,.21-.03,.28-.11,.33-.37,.1-.76,.14-1.14,.11-.28,0-.41-.08-.41-.26v-.05q.07-1,.13-3.54c-1.32-.02-1.97-.03-3.29-.05-.42,2.36-1.4,3.83-3.61,5.35l-.28-.26c.96-.95,1.65-2.15,1.98-3.47,.3-1.27,.44-2.57,.41-3.87,0-.62,.01-.9-.03-1.64,.67,.34,1.31,.75,1.91,1.21,1.26-.32,2.5-.76,3.68-1.31,.55-.22,1.05-.54,1.49-.93,1.65,1.03,2.13,1.42,2.13,1.63,0,.15-.16,.23-.44,.22-.16,0-.36-.03-.85-.09-2.06,.5-4.14,.87-6.24,1.11,0,.13,0,.21,0,.28,0,.38-.04,.82-.04,1.18,2.12,.03,3.17,.04,5.28,.08,.53-.58,.69-.73,1.24-1.26,.74,.68,.97,.89,1.71,1.65,.03,.03,.04,.07,.05,.1,0,.07-.11,.15-.18,.15-1.34-.02-2-.03-3.34-.05Zm-8.25,17.94c3.48-.75,6.54-1.99,7.82-3.2,1.97,.62,2.51,.86,2.51,1.14,0,.13-.21,.23-.54,.22h-.23c-.18,0-.36,0-.54,.01-2.82,1.25-5.83,2.01-8.91,2.26-.04-.17-.06-.26-.1-.44h0Zm6.02-3.36c.01,.12-.05,.23-.16,.28-.41,.1-.84,.15-1.26,.14-.28,0-.41-.08-.43-.29,.13-2.08,.19-4.26,.23-7.57,.04-1.21,.01-2.42-.08-3.62,.68,.29,1.34,.62,1.98,.98,4.31,.06,6.47,.1,10.78,.18,.32-.38,.42-.51,.77-.94,.66,.48,.87,.61,1.53,1.08,.18,.13,.25,.24,.25,.31,0,.18-.65,.42-.82,.68-1.05,1.68-.11,7.01-.07,8.86l-.03,.02c0,.23-.07,.28-.26,.33-.41,.08-.82,.11-1.24,.1-.23,0-.31-.06-.33-.21,0-.27,0-.4,.01-.67-4.35-.08-6.52-.12-10.87-.18,0,.21,0,.31-.01,.51h0Zm11-7.13c.02-.87,.02-1.31,.04-2.18-4.36-.08-6.54-.12-10.91-.18-.01,.87-.02,1.31-.03,2.18,4.36,.06,6.54,.1,10.9,.18h0Zm-10.91,.41l-.04,2.44c4.35,.06,6.53,.1,10.89,.18,.02-.98,.03-1.46,.05-2.44-4.36-.08-6.54-.12-10.89-.18h0Zm-.04,3.03c-.02,1.04-.02,1.56-.04,2.59,4.35,.06,6.52,.1,10.87,.18,.02-1.04,.03-1.56,.05-2.59-4.35-.08-6.53-.12-10.88-.18h0Zm7.78-10.79c-.13,.6-.38,1.16-.73,1.66-.83,1.17-2.03,2.04-3.41,2.46l-.15-.23c1.57-1.16,2.08-1.77,2.48-2.96,.36-1.29,.55-2.63,.56-3.97,0-.36,0-.46,0-.92,.69,.34,1.34,.75,1.95,1.22,1.5-.29,2.96-.76,4.36-1.38,.58-.21,1.12-.51,1.6-.89,1.51,.9,2.2,1.43,2.2,1.69-.02,.15-.16,.26-.32,.25-.36-.03-.71-.1-1.06-.2-2.34,.57-4.72,.95-7.13,1.12,0,.21-.03,.33-.03,.44-.04,.39-.1,.77-.18,1.15,2.57,.05,3.85,.07,6.42,.12q.61-.63,1.32-1.33c.82,.69,1.07,.89,1.83,1.63,.05,.04,.08,.1,.1,.16,0,.08-.11,.2-.19,.2-1.91-.04-2.86-.06-4.76-.1,0,.39-.01,1.35-.03,2.88,.01,.09-.03,.18-.11,.23-.39,.1-.79,.14-1.19,.13-.21,0-.32-.1-.33-.29-.03-.64,0-1.29,.06-1.92,.02-.35,.04-.67,.04-.77,0-.08,0-.15,0-.28-1.33-.02-1.99-.03-3.32-.06h0Zm-.45,14.97c2.26,.24,4.51,.64,6.72,1.18,.72,.36,1.18,1.09,1.17,1.9,.03,.27-.17,.52-.44,.55-.03,0-.06,0-.08,0-.23,0-.24,0-1.04-.53-1.17-.69-2.4-1.29-3.67-1.79-.49-.19-1.05-.38-2.76-.95l.1-.36Z" fill="#d9af71" stroke="#d9af71"/><path id="_ス_3958" d="M297.81,5.75c.84,.86,2,1.33,3.21,1.29,.93,0,1.86-.08,2.78-.26,.5-.79,.83-1.67,.98-2.59,.02-.69-.46-1.12-1.8-1.49,.36-.2,.77-.28,1.17-.25,.69,.04,1.38,.21,2.01,.49,.63,.28,.92,.57,.91,.87,0,.18-.13,.36-.44,.73-.24,.29-.57,.75-.78,1.03q-.49,.73-.68,.98c2.19-.55,2.9-.84,3.78-1.53,.14-.11,.32-.17,.5-.17,1.01,.03,1.72,.41,1.71,.9,0,.31-.35,.55-1.14,.79-1.86,.56-3.76,1-5.69,1.3-.48,.63-.82,1.08-1.43,1.96-.73,1.05-.94,1.34-1.45,2.02,1.02-.59,2.18-.91,3.36-.94,1.49,.02,2.71,1.17,2.82,2.65q.45-.19,2.57-1.18c2.59-1.21,3.23-1.6,3.25-2.06,.01-.44-.41-.91-1.15-1.24,.19-.09,.39-.14,.6-.14,1.14,.04,2.87,1.66,2.84,2.68-.01,.46-.23,.64-.95,.77-2.4,.6-4.74,1.41-7,2.43,0,.82,0,.98-.04,2.08,.02,.74-.07,1.49-.27,2.2-.14,.28-.42,.46-.73,.47-.43,.02-.79-.32-.8-.74,0-.02,0-.03,0-.05,0-.15,.01-.29,.04-.44,.14-.91,.22-1.82,.26-2.74-1.11,.5-2.15,1.15-3.07,1.94-.75,.57-1.23,1.42-1.33,2.35-.04,1.39,1.36,2.09,4.24,2.17,1.75,.05,3.5-.14,5.19-.56,.16-.04,.33-.06,.49-.06,.8,.02,1.78,.78,1.76,1.34-.01,.33-.3,.59-.82,.67-1.53,.2-3.07,.27-4.61,.22-2.42-.07-4.18-.38-5.2-.89-1.15-.43-1.89-1.55-1.83-2.77,.03-1.21,.65-2.29,1.95-3.47,1.01-.85,2.1-1.58,3.26-2.19,.07-.69-.04-1.39-.3-2.04-.25-.49-.75-.8-1.3-.81-1.71-.05-3.78,1.26-5.7,3.57-.51,.65-.72,.81-.98,.8-.41-.01-.68-.56-.66-1.38,.01-.54,.04-.56,.78-1.14,1.87-1.39,3.04-2.7,4.95-5.39-.57,.09-1.16,.12-1.74,.11-1.76-.05-2.65-.53-3.81-2.08l.29-.22Z" fill="#d9af71" stroke="#d9af71"/><path id="_ス_3959" d="M328.09,14.09c-2.16,.36-2.67,.25-2.93,.48-.25,.22-.34,.91-.55,.91-.08,0-.18-.08-.22-.24q-.1-.21-.34-2.12l.49,.02c.28,.01,1.5,.26,2.02,0,.16-.08,.19-.25,.54-.7,1.73-2.13,3.23-4.43,4.48-6.87,2.09,.93,2.27,1.04,2.26,1.27s-.32,.29-1.05,.27h-.1c-1.6,2.15-3.38,4.17-5.33,6.01,2.07-.05,2.67-.08,4.35-.25-.21-.72-.48-1.41-.8-2.09l.26-.15c.53,.56,1.02,1.16,1.48,1.78,.74,.97,1,1.53,.98,1.97-.03,.67-.6,1.52-1.02,1.5-.15,0-.25-.14-.29-.45-.1-.71-.26-1.41-.46-2.1-.72,.2-1.45,.36-2.19,.48l-.19,5.11c-.08,2.21-.07,2.54-.19,6.44-.01,.33-.25,.4-1.38,.36-.26,0-.36-.09-.35-.37,.08-1.44,.3-5.41,.34-6.49,.07-1.91,.1-2.86,.18-4.77Zm-4.44,9.88c.79-2.62,1.31-5.31,1.55-8.04q2.41,.6,2.4,.88c0,.21-.24,.32-.95,.45-.56,2.39-1.48,4.69-2.72,6.81l-.28-.11Zm6.23-20.33c-.86,1.33-1.89,2.53-3.07,3.59,.93,.83,1.25,1.28,1.23,1.77s-.54,1.32-.83,1.31c-.16,0-.3-.19-.47-.61-.51-1.39-1.28-2.66-2.27-3.76l.22-.25c.59,.37,1.17,.76,1.72,1.19,.89-1.49,1.61-3.09,2.12-4.75,.54,.2,.95,.34,1.23,.46,1,.37,1.3,.56,1.3,.74-.01,.26-.35,.35-1.13,.32h-.05Zm.82,12.39c.74,.84,1.38,1.76,1.91,2.75,.28,.41,.45,.89,.49,1.38-.03,.69-.63,1.59-1.07,1.58-.26-.01-.3-.15-.45-1.15-.25-1.51-.65-2.99-1.2-4.41l.32-.14Zm8.95,8.4c1.48,.06,2.22,.09,3.7,.16,.73-.82,.97-1.06,1.7-1.8,1.02,.94,1.31,1.24,2.25,2.23,.04,.06,.06,.13,.07,.21,0,.08-.11,.12-.24,.12-5.6-.25-8.4-.37-14.01-.59-.74-.06-1.48-.03-2.22,.07l-.15-.95c.78,.2,1.58,.31,2.38,.3,1.93,.07,2.9,.12,4.83,.2,.1-2.35,.15-3.52,.24-5.87-1.1-.05-1.66-.07-2.76-.11-.63-.05-1.27-.01-1.89,.1-.05-.38-.07-.57-.12-.95,.66,.17,1.34,.26,2.03,.26,1.1,.04,1.66,.07,2.76,.11,.03-.75,.05-1.12,.08-1.87,.04-.75,.03-1.51-.04-2.26,2.8,.37,2.88,.4,2.87,.63,0,.21-.35,.37-1.11,.6-.05,1.19-.07,1.79-.13,2.98,1.12,.05,1.69,.07,2.81,.12,.68-.74,.89-.96,1.57-1.65,.97,.84,1.27,1.11,2.21,2.03,.06,.06,.1,.15,.09,.24,0,.07-.11,.15-.26,.14-2.58-.12-3.86-.17-6.44-.28-.09,2.35-.14,3.52-.24,5.87h0Zm3.82-19.88c.51-.54,.68-.72,1.22-1.23,.7,.6,.9,.78,1.55,1.38,.2,.19,.27,.29,.27,.4-.01,.26-.38,.42-1.14,.59-1.2,1.91-2.71,3.61-4.47,5.02,.7,.46,1.42,.87,2.18,1.22,1.58,.8,3.28,1.33,5.03,1.59,0,.15,0,.22-.02,.36-.84,.11-1.54,.69-1.8,1.49-2.4-.83-4.61-2.14-6.48-3.85-1.72,1.19-3.59,2.14-5.58,2.8l-.19-.37c1.74-.92,3.39-2.03,4.9-3.3-1.61-1.62-2.76-3.63-3.34-5.84h-.23c-.6-.03-1.2,0-1.79,.07-.07-.42-.1-.64-.17-1.06,.68,.24,1.39,.37,2.11,.39,3.18,.12,4.77,.19,7.96,.33h0Zm-7.38,.28c.75,1.99,2.03,3.74,3.71,5.06,1.49-1.39,2.76-2.99,3.78-4.75-3-.13-4.5-.2-7.49-.32h0Z" fill="#d9af71" stroke="#d9af71"/><path id="_ス_3960" d="M355.28,9.58c1.15,.44,2.24,1.01,3.26,1.7,.46,.28,.73,.78,.71,1.32-.04,.74-.38,1.47-.72,1.46-.15,0-.3-.17-.51-.54-.78-1.37-1.77-2.62-2.93-3.69l.19-.25Zm-.19,9.22c.25,.06,.46,.13,.59,.16,.17,.04,.34,.09,.51,.15,.17,.06,.34,.1,.51,.13,.28,.01,.5-.16,.73-.58,.06-.13,.26-.5,.57-1.08,.4-.75,1-1.93,1.75-3.49,1.21-2.48,1.62-3.31,2.54-5.06l.41,.17c-1.67,4.12-2.51,6.18-4.17,10.31-.21,.41-.35,.84-.43,1.29,.02,.67,.15,1.33,.39,1.95,.14,.51,.2,1.05,.18,1.58,.04,1.1-.81,2.04-1.91,2.12-.33-.02-.53-.26-.51-.64,0-.1,.05-.31,.17-.89,.15-.68,.4-2.4,.43-2.91,.1-.63-.04-1.27-.4-1.79-.44-.43-.94-.79-1.5-1.05,.05-.14,.08-.21,.14-.36h0Zm2.02-14.86c1.21,.44,2.37,1.02,3.45,1.71,.43,.28,.68,.78,.64,1.29-.04,.8-.41,1.47-.77,1.45-.21-.01-.33-.15-.57-.59-.81-1.33-1.8-2.55-2.93-3.62l.19-.25Zm7.91,17.22c-.26,1.11-.8,2.14-1.57,2.98-1.11,1.29-2.55,2.26-4.16,2.8l-.21-.37c1.29-.68,2.38-1.68,3.19-2.9,1.1-1.64,1.37-3.07,1.66-8.71-1.1,.3-1.6,.41-3.09,.69-.07-.17-.11-.25-.19-.42,2.02-.47,3.98-1.16,5.85-2.06,.74-.34,1.44-.74,2.11-1.2-1.49-1.19-2.71-2.68-3.58-4.38l-.72-.04c-.7-.05-1.4-.01-2.08,.12-.06-.44-.09-.65-.15-1.09,.73,.24,1.5,.36,2.27,.37,1.76,.09,2.64,.14,4.4,.23,.02-.45,.04-.68,.06-1.13,.03-.54,.03-1,.05-1.98q2.55,.45,2.8,.59c.05,.05,.12,.14,.12,.21-.01,.21-.28,.34-1.15,.5l-.1,1.9c1.82,.1,2.73,.15,4.56,.25,.6-.58,1.18-1.12,1.73-1.65q1.01,.93,2.19,2.08c.07,.11,.12,.16,.12,.24,0,.1-.11,.15-.35,.13-1.49-.09-2.24-.13-3.73-.21-1.15,1.61-2.61,2.97-4.29,4.01,1.08,.57,2.22,1.03,3.4,1.37,1.63,.52,3.31,.86,5.02,1.01,0,.15-.01,.21-.02,.36-.92,.2-1.16,.42-1.5,1.4-1.01-.23-1.99-.53-2.95-.91-.15,2.76-.23,4.14-.39,6.9-.12,2.13-.12,2.15-.18,5.03-.04,.18-.07,.27-.2,.32-.42,.07-.84,.09-1.27,.06-.23-.01-.37-.12-.4-.28-.05-.32,.14-2,.29-4.74,.02-.43,.04-.65,.06-1.08-3.04-.16-4.56-.24-7.59-.4h0Zm.58-13.55c1.02,1.5,2.34,2.77,3.87,3.73,1.33-.91,2.49-2.03,3.43-3.34-2.92-.16-4.38-.24-7.3-.39h0Zm7.05,13.37c.07-1.36,.11-2.05,.19-3.41-2.92-.16-4.38-.24-7.3-.39-.14,1.59-.24,2.58-.38,3.4,3,.16,4.5,.24,7.49,.4h0Zm.22-4c.05-.93,.07-1.4,.13-2.33-1.16-.55-2.28-1.18-3.34-1.91-1.28,.67-2.61,1.24-3.98,1.72-.03,.64-.05,.95-.08,1.59,0,.1-.01,.26-.03,.54,2.92,.15,4.38,.23,7.3,.4h0Z" fill="#d9af71" stroke="#d9af71"/><path id="_ス_3961" d="M394.01,10.64c.44-.43,.56-.58,1-1.02,.54,.47,.71,.64,1.28,1.16,.17,.19,.24,.27,.24,.38-.01,.15-.17,.25-.92,.56-.13,1.61-.2,2.71-.24,3.28-.35,5.38-.6,9.74-.69,11.51,0,.05,0,.1,0,.13-.01,.2-.21,.28-.87,.25-.2,0-.34,0-.41,0h-.08c-.23-.02-.33-.1-.32-.28v-.07c.04-.56,.06-.85,.09-1.41-1.83-.12-2.75-.17-4.58-.29-.05,.86-.08,1.29-.13,2.15-.07,.3-.2,.35-.89,.3l-.33-.02c-.39-.02-.46-.05-.45-.31,.28-2.86,.33-3.74,.6-8.17,.35-5.72,.41-7.15,.45-9.85,.65,.43,1.28,.91,1.86,1.43l.72,.05c1.01-2.84,1.21-3.58,1.34-4.83,1.05,.35,2.29,.79,2.62,.96,.15,.09,.22,.17,.22,.27-.02,.26-.18,.32-1.25,.38-.65,1.18-1.46,2.27-2.39,3.25,1.25,.08,1.88,.12,3.13,.19Zm-.41,6.38c.15-2.32,.22-3.47,.37-5.79-1.84-.12-2.76-.17-4.6-.29-.15,2.32-.21,3.48-.36,5.8,1.84,.11,2.76,.17,4.59,.28Zm-4.63,.3c-.17,2.77-.26,4.15-.43,6.92,1.83,.11,2.75,.17,4.58,.29,.18-2.77,.26-4.15,.44-6.92-1.84-.12-2.75-.17-4.59-.29h0Zm18.01-5.82c.53-.53,.7-.67,1.22-1.17,.63,.61,.83,.81,1.43,1.41,.19,.19,.24,.3,.23,.45-.02,.23-.73,.27-1.01,.65-1.71,2.34-.61,6.5-1.25,9.67-.59,2.94-1.21,4.73-1.96,5.6-.53,.61-.9,.73-3.08,.97-.17-.89-.33-1.21-.73-1.49-.4-.24-.85-.4-1.31-.47l-.74-.13c-.24-.03-.48-.08-.71-.15,.01-.17,.02-.26,.03-.44,.49,.06,.93,.12,1.17,.16,.82,.13,1.65,.21,2.49,.24,1.44,.1,1.54,.08,1.8-.34,.66-1.52,1.13-3.13,1.39-4.77,.6-3.17,.98-6.38,1.15-9.6-2.8-.19-4.2-.29-7.01-.47-1.78,2.92-2.66,4.1-4.04,5.45-.13-.09-.19-.14-.32-.23,1.31-1.84,2.39-3.84,3.21-5.94,.7-1.57,1.2-3.23,1.49-4.92,.91,.25,1.82,.55,2.7,.9,.18,.06,.25,.17,.24,.27-.01,.2-.23,.29-1.23,.46-.47,1.19-1.04,2.34-1.71,3.44,2.61,.17,3.91,.26,6.52,.44h0Zm-7.84,3.46c1.31,.91,2.51,1.97,3.57,3.17,.54,.48,.83,1.18,.8,1.91-.07,.97-.54,1.87-1,1.83-.21-.01-.37-.21-.5-.63-.27-.93-.61-1.83-1.01-2.71-.49-1.23-1.19-2.36-2.08-3.33l.22-.24Z" fill="#d9af71" stroke="#d9af71"/><path id="_ス_3962" d="M422.75,19.51c-.07,.23-.58,1.81-1.52,4.73-.34,.86-.55,1.76-.64,2.68,0,.37-.05,.74-.16,1.1-.11,.26-.37,.42-.65,.39-.44-.03-.79-.42-1.03-1.13-.5-1.79-.67-3.67-.5-5.52,.08-.92,.22-1.83,.41-2.72,.32-1.62,.74-3.21,1.26-4.77,.26-.76,.44-1.55,.54-2.35,.05-.86-.13-1.71-.55-2.46,.57,.07,1.01,.45,1.64,1.38,.49,.59,.77,1.33,.81,2.09-.03,.41-.08,.51-.66,1.5-.69,1.26-1.26,2.59-1.7,3.97-.3,1.03-.5,2.08-.57,3.15-.12,1.14-.04,2.3,.24,3.42,.4-.68,.77-1.38,1.09-2.11,.65-1.39,.98-2.09,1.63-3.48l.35,.16Zm3.15,1.53c-.07,.35-.13,.71-.16,1.07-.22,2.82,1.31,4.09,5.3,4.4,.73,.06,1.47,.05,2.2,0,.48-.02,.95-.12,1.39-.3,.13-.03,.26-.05,.39-.05,.79,.19,1.38,.84,1.5,1.64-.02,.31-.25,.5-.62,.59-1.07,.14-2.16,.15-3.23,.02-3.21-.26-5.47-.97-6.53-2.08-.87-.92-1.29-2.18-1.13-3.44,.05-.69,.21-1.36,.46-2l.43,.14Zm.57-8.14c.67,.53,1.49,.84,2.35,.88,1.79,.1,3.59-.16,5.28-.74,.35-.15,.4-.17,.59-.16,.32,.08,.62,.22,.88,.43,.5,.36,.75,.68,.72,1.01s-.22,.47-.77,.53c-1.27,.04-2.53,.24-3.74,.6-1.19,.43-2.35,.95-3.47,1.56l-.24-.28c1.24-.88,2.17-1.53,2.61-1.81-.54-.02-.83-.01-1.06-.03-1.33-.05-2.57-.67-3.4-1.71l.26-.29Z" fill="#d9af71" stroke="#d9af71"/><path id="_ス_3963" d="M458.53,24.85c.63-1.57,1.54-2.13,3.14-1.98,1.05,.16,2.07,.47,3.03,.92,.64,.27,1.31,.45,2,.55,.87,.14,1.74-.22,2.27-.92l.41,.29c-.17,.47-.44,.89-.79,1.24-.61,.59-1.46,.86-2.3,.74-.92-.15-1.82-.4-2.68-.76-.75-.34-1.54-.58-2.35-.71-.89-.19-1.8,.18-2.31,.93l-.42-.3Z" fill="#d9af71" stroke="#d9af71"/><path id="_ス_3964" d="M.57,25.83c.34-1.66,1.13-2.38,2.72-2.53,1.06-.04,2.12,.08,3.15,.35,.68,.15,1.37,.2,2.07,.17,.88-.02,1.67-.53,2.06-1.32l.46,.22c-.08,.49-.27,.96-.55,1.36-.49,.69-1.28,1.12-2.13,1.15-.93,.02-1.86-.06-2.77-.26-.8-.2-1.62-.29-2.44-.26-.91-.02-1.74,.5-2.11,1.33l-.46-.22Z" fill="#d9af71" stroke="#d9af71" stroke-width=".5"/><path id="_ス_3965" d="M44.67,22.09c1.33-1.56,2.54-3.23,3.61-4.99,.24-.34,.43-.71,.57-1.1,0-.1-.09-.17-.19-.17h0c-.39,.03-1.22,.36-3.4,1.31-3,1.32-3.44,1.53-4.44,2.02,.04,1.18,.07,1.61,.13,2.36,.2,2.59,.43,3.78,.86,4.34,.44,.57,1.35,.8,2.97,.67,1.58-.09,3.13-.43,4.6-1.02,.15-.1,.32-.16,.5-.19,.37,.02,.72,.14,1.03,.34,.43,.18,.75,.56,.85,1.02,.02,.31-.17,.53-.55,.63-1.38,.37-2.79,.59-4.21,.65-3.65,.28-5.38-.15-6.27-1.5-.63-.95-.95-2.53-1.33-6.69-.39,.24-.8,.45-1.22,.64-.17,.09-.5,.27-.97,.51-.25,.15-.52,.31-.77,.45-.24,.13-.47,.27-.69,.44-.23,.19-.51,.31-.8,.35-.8-.11-1.51-.53-1.99-1.18-.41-.4-.71-.91-.85-1.48,0-.1,0-.21,.03-.31,.88,.88,1.44,1.17,2.19,1.11,1.72-.42,3.39-1,5-1.74-.43-4.83-.45-5.07-.68-5.69-.25-.67-.89-1.06-2.03-1.28,.2-.27,.52-.42,.85-.4,1.01-.04,2.01,.14,2.93,.54,.54,.24,.82,.55,.85,.89,.01,.15,.01,.16-.16,.63-.32,1.57-.42,3.17-.3,4.76,2.91-1.23,4.65-1.96,5.4-2.32,.67-.23,1.3-.58,1.84-1.04,.17-.19,.4-.3,.65-.31,.78,.09,1.52,.42,2.1,.95,.6,.46,.86,.76,.88,1.07,.03,.36-.09,.47-.67,.74-.92,.69-1.77,1.46-2.55,2.3-1.12,1.05-2.29,2.04-3.51,2.97l-.28-.28Z" fill="#d9af71" stroke="#d9af71" stroke-width=".5"/><path id="_ス_3966" d="M79.46,14.91c-.99,1.68-2.19,3.22-3.57,4.6-2.19,2.26-4.69,4.19-7.43,5.74-1.39,.84-1.42,.84-1.84,1.36-.12,.2-.33,.34-.57,.37-.51,.04-1.8-1.39-1.85-2.09,0-.13,0-.14,.1-.47,.15-.55,.13-1.17-.06-3.93-.39-5.66-.69-8.14-1.09-9.06-.27-.62-.71-.9-1.88-1.21,.22-.19,.49-.3,.78-.31,.73,0,1.45,.16,2.11,.47,1.04,.47,1.6,.95,1.63,1.46,0,.19-.02,.37-.09,.55-.13,.85-.19,1.7-.16,2.56-.01,1.56,.14,6.25,.27,8.14,.02,.26,.05,.72,.09,1.28,3.06-1.28,5.92-3,8.48-5.12,1.72-1.39,3.3-2.94,4.73-4.62l.35,.28Z" fill="#d9af71" stroke="#d9af71" stroke-width=".5"/><path id="_ス_3967" d="M90.11,8.79c1.19,.86,1.93,1.12,2.92,1.07,1.98-.19,3.93-.62,5.8-1.3,.96-.27,1.86-.69,2.68-1.25,.15-.11,.33-.17,.51-.18,.8-.04,2.05,.64,2.08,1.12,.02,.33-.49,.62-1.77,.97-2.2,.62-4.43,1.11-6.69,1.47,1.3,.55,1.74,.93,1.77,1.57,.01,.25-.02,.51-.09,.75-.12,.73-.17,1.48-.16,2.22,1.36-.28,5.61-1.13,6.02-1.23,.58-.11,1.14-.29,1.68-.53,.17-.08,.35-.14,.54-.16,.6,.04,1.18,.21,1.71,.5,.53,.28,.86,.65,.88,.96s-.26,.5-.78,.53c-.08,0-.16,.01-.31,.02-.43,0-1.63,.03-2.38,.07-2.48,.14-4.94,.46-7.37,.96,.03,1.54,.04,2.21,.08,2.88,.1,1.85,.22,2.48,.5,2.96,.34,.57,1,.77,2.16,.7,1.53-.05,3.04-.36,4.47-.91,.09-.04,.18-.06,.28-.07,.45,.03,.89,.19,1.26,.45,.45,.29,.67,.56,.69,.86,.02,.36-.23,.59-.73,.71-1.17,.24-2.36,.39-3.56,.44-3.29,.18-4.76-.2-5.55-1.42-.54-.82-.72-1.79-.89-3.5-.03-.35-.05-.36-.14-2.05l-.05-.82c-1.61,.29-3.19,.76-4.71,1.4-.18,.13-.39,.2-.61,.21-.45-.01-.89-.19-1.22-.5-.68-.5-1.18-1.21-1.41-2.03,0-.17,.04-.35,.13-.5,.52,.83,1.45,1.31,2.43,1.25,1.79-.2,3.56-.51,5.31-.92,0-.44,0-.46-.02-.82-.17-2.97-.27-3.41-.86-3.86-1.3,.19-2.62-.04-3.77-.66-.43-.31-.82-.68-1.15-1.09l.34-.3Z" fill="#d9af71" stroke="#d9af71" stroke-width=".5"/><path id="_ス_3968" d="M119,25.1c1.95-1.86,3.45-4.14,4.36-6.68,.72-1.81,1.16-3.72,1.3-5.66-.03-.69-.54-1.18-1.6-1.57,.14-.18,.36-.29,.59-.28,.71,.1,1.39,.32,2.02,.66,.46,.16,.86,.45,1.15,.85,1.61-1.15,3.11-2.44,4.48-3.87,.57-.59,.77-.88,.76-1.06-.01-.31-.33-.37-1.54-.32-3,.33-5.97,.93-8.87,1.8-.89,.27-1.76,.61-2.6,1.02-.18,.09-.38,.14-.59,.16-.57,.03-1.54-.7-2.15-1.62-.28-.41-.47-.87-.56-1.36,0-.21,.05-.42,.15-.6,.47,1,1.54,1.58,2.64,1.42,.93-.04,1.39-.12,6.21-.95,.23-.04,.8-.14,1.78-.28,3.99-.64,4.2-.69,4.73-.97,.1-.05,.22-.08,.33-.09,.52,.1,1.01,.33,1.4,.69,1.15,.8,1.93,1.64,1.95,2.08,.02,.39-.16,.48-.9,.73-.44,.14-.86,.34-1.25,.59-2.1,1.29-3.24,1.93-5.97,3.36-.14,.44-.16,.5-.34,1.17-1.01,3.57-1.92,5.63-3.39,7.5-1.07,1.41-2.36,2.64-3.83,3.62l-.28-.32Z" fill="#d9af71" stroke="#d9af71" stroke-width=".5"/><path id="_ス_3969" d="M153.95,22.68c2.75-.91,4.49-2.03,5.91-3.76,1.45-1.75,2.21-3.98,2.11-6.25,.05-2.28-1.13-4.42-3.09-5.59-1.38-.75-2.94-1.11-4.52-1.04-.3,0-.61,.03-.9,.08,.53,.58,.84,1.32,.87,2.1,.06,2-1.26,5.81-3.12,8.99-1.53,2.62-2.75,3.92-3.71,3.96-.44,.01-.86-.17-1.15-.5-.24-.28-.3-.4-.78-1.61-.34-.82-.75-1.62-1.22-2.37-.41-.7-.65-1.5-.68-2.31,.07-1.92,.83-3.76,2.14-5.17,2.3-2.41,5.46-3.81,8.78-3.89,2.44-.14,4.85,.63,6.75,2.16,1.71,1.5,2.68,3.68,2.66,5.96,.09,3.21-1.71,6.11-4.9,7.93-1.54,.86-3.22,1.45-4.97,1.75l-.19-.43Zm-8.75-7.69c.04,1.21,.44,2.38,1.15,3.35,.38,.45,.72,.72,1.01,.71,.57-.02,1.75-1.45,2.95-3.49,1.81-3.09,3.07-6.45,3.02-8.04-.03-.45-.17-.89-.4-1.27-4.48,.94-7.87,4.79-7.72,8.74Z" fill="#d9af71" stroke="#d9af71" stroke-width=".5"/><path id="_ス_3970" d="M174.73,11.25h-.26c-.76,.02-1.52,.09-2.27,.22l-.2-.89c.81,.11,1.64,.14,2.46,.09,6.88-.17,10.31-.24,17.19-.36,.63-.78,.84-1.02,1.47-1.8,.76,.66,1.52,1.28,2.23,1.89,.16,.13,.21,.2,.21,.28s-.13,.16-.23,.16c-5.12,.08-7.68,.13-12.79,.24,.06,2.69,.09,4.03,.14,6.73,.05,2.44,.11,3.9,.25,6.03,0,.14-.09,.27-.22,.31-.41,.11-.83,.18-1.26,.21-.21,0-.31-.07-.31-.25v-.05c.03-2.36,.01-3.03-.01-4.16q-3.37,1.31-7.15,2.66c-.13,.88-.18,1.06-.41,1.06-.26,0-.47-.48-1.12-2.51,.84-.06,1.68-.17,2.52-.32-.09-3.81-.14-5.71-.23-9.52Zm2.64-2.12v.08c0,.21-.28,.29-1.11,.31-.52,.01-.65-.04-.65-.24v-.05c.03-1.85,.04-2.67-.01-5.01-.04-1.72-.07-2.13-.18-3.23,.84,.44,1.1,.59,1.92,1.09,4.82-.11,7.24-.16,12.06-.25,.38-.5,.51-.65,.94-1.15,.56,.37,1.09,.78,1.58,1.23,.13,.13,.18,.2,.19,.28,0,.15-.58,.27-.82,.73-.82,1.61,.08,4.47,.15,5.72v.03c-.02,.23-.06,.28-.2,.34-.38,.09-.77,.13-1.16,.12-.34,0-.41-.04-.42-.25,0-.27,0-.4-.01-.67-4.92,.09-7.37,.14-12.29,.25l.02,.67Zm-.98,4.54c1.85-.04,2.77-.06,4.62-.1-.02-.99-.03-1.48-.05-2.46-1.85,.04-2.78,.06-4.63,.1,.02,.99,.03,1.48,.06,2.46h0Zm.07,3.13c1.85-.04,2.77-.06,4.62-.1-.02-1.02-.03-1.53-.05-2.54-1.85,.04-2.77,.06-4.62,.1,.02,1.02,.04,1.53,.06,2.54h0Zm.09,3.65c2.21-.44,3-.61,4.59-1.03-.02-.85-.03-1.28-.05-2.13-1.85,.04-2.77,.06-4.61,.1l.07,3.05Zm12.99-18.05c-4.93,.09-7.39,.14-12.32,.25l.05,2.26c4.92-.11,7.38-.16,12.31-.25-.02-.9-.03-1.35-.04-2.26h0Zm-12.25,3.1c.02,.94,.03,1.42,.05,2.36,4.92-.11,7.38-.16,12.29-.25-.02-.94-.03-1.42-.04-2.36-4.92,.1-7.38,.14-12.31,.26h0Zm13.74,7.71c.46-.47,.61-.6,1.09-1.05,.68,.53,.86,.7,1.57,1.28,.16,.15,.24,.25,.24,.33,0,.15-.1,.23-1.17,.64-.79,1.68-1.78,3.26-2.96,4.7,1.8,1.23,3.87,2,6.04,2.26,0,.13,0,.2,0,.33-.42,.08-.81,.27-1.12,.56-.33,.28-.54,.66-.6,1.09-1.94-.72-3.72-1.83-5.23-3.25-1.52,1.49-3.31,2.69-5.26,3.54l-.21-.28c1.78-1.09,3.35-2.49,4.66-4.12-1.42-1.53-2.5-3.35-3.15-5.33h-.23c-.43,.02-.86,.07-1.29,.16-.08-.34-.12-.51-.2-.84,.49,.09,.98,.12,1.47,.1,2.54-.05,3.81-.07,6.35-.12h0Zm-5.64,.69c.4,.97,.95,1.88,1.63,2.69,.53,.65,1.12,1.24,1.76,1.76,1.02-1.38,1.78-2.92,2.27-4.56-2.26,.05-3.39,.07-5.66,.11h0Z" fill="#d9af71" stroke="#d9af71" stroke-width=".5"/><path id="_ス_3971" d="M220.86,10.05c.66-.81,.99-1.21,1.64-2.01,1.14,.97,1.51,1.25,2.6,2.22,.06,.05,.1,.13,.1,.21,0,.08-.13,.15-.26,.16-3.96,.02-5.94,.03-9.9,.06,.04,4.44,.05,6.66,.09,11.09,3-.02,4.49-.03,7.49-.05,.72-.95,.95-1.24,1.64-2.09,1.19,.97,1.55,1.28,2.69,2.3,.06,.05,.1,.13,.1,.2,0,.08-.1,.15-.21,.16-6.94,.02-13.88,.07-20.81,.15-.72,0-1.43,.08-2.13,.23l-.22-1c.77,.15,1.56,.21,2.35,.18,2.9-.03,4.35-.05,7.26-.07-.06-7.08-.09-10.61-.15-17.69,.02-1.05-.06-2.1-.24-3.13,.62,.07,1.09,.15,1.38,.17,1.4,.17,1.66,.24,1.66,.45s-.23,.34-.95,.55c.03,3.18,.04,4.78,.06,7.96,2.33-.02,3.49-.02,5.81-.04Z" fill="#d9af71" stroke="#d9af71" stroke-width=".5"/><path id="_ス_3972" d="M237.21,22.68c-.03,.33-.22,.42-1,.44-.13,0-.26,.03-.36,.03h-.05c-.28,0-.39-.11-.39-.39,.04-1.4,.1-2.34,.1-4.34,0-3.62-.02-5.85-.07-6.7,.72,.33,1.41,.7,2.07,1.13,1.94,0,2.91,0,4.85,.01,.47-.56,.62-.74,1.14-1.28,.64,.54,.82,.7,1.39,1.24,.18,.23,.23,.31,.23,.41q0,.18-.8,.69c0,2.08,.1,6.88,.02,8.4,.01,.17-.1,.33-.26,.38-.38,.09-.77,.14-1.16,.15-.18,.03-.35-.09-.38-.27v-.03c0-.64,0-.95,0-1.59-2.13,0-3.2,0-5.33-.01,0,.7,0,1.05,0,1.75Zm0-2.34c2.13,0,3.2,0,5.33,.01,0-2.76,.01-4.14,.02-6.91-2.14,0-3.21,0-5.34-.01v6.91Zm4.01-9.96c-.03,.41-.28,.51-1.22,.51-.44,0-.55-.08-.57-.28-.18-1.86,.06-2.67,.06-5.01,0-2.18,0-3.29-.04-4.57,.99,.49,1.3,.64,2.31,1.21,3.43,0,5.15,.02,8.58,.04,.35-.42,.72-.83,1.12-1.2,.72,.57,.95,.75,1.65,1.35,.15,.15,.21,.26,.2,.36,0,.18-.7,.38-.89,.69-.58,.93,0,5.02,0,6.78,.03,.18-.07,.35-.24,.41-.35,.1-.7,.15-1.06,.15-.36,0-.49-.08-.51-.39,0-.48,0-.72,0-1.21-3.77-.02-5.65-.03-9.41-.04v1.2Zm0-1.8c3.77,0,5.65,.02,9.42,.04l.04-5.75c-3.78-.02-5.66-.03-9.44-.04,0,2.3,0,3.45-.01,5.75h0Zm6.18,6.68c0-1.21-.02-2.03-.03-3.67,.88,.52,1.16,.7,2.03,1.29,1.93,.01,2.9,.02,4.83,.03,.44-.51,.57-.66,1.04-1.17,.72,.6,.92,.78,1.56,1.32,.15,.16,.2,.23,.2,.36,0,.18-.18,.33-.78,.59v1.36c-.03,2.57,.03,6.06-.02,7.09,.01,.18-.09,.34-.26,.41-.37,.1-.75,.15-1.13,.15-.31,0-.44-.11-.46-.39v-1.62c-2.14-.02-3.22-.02-5.37-.04,0,.63,0,.94,0,1.57-.05,.33-.23,.44-.85,.46-.22,0-.41,.02-.44,.02h-.05c-.23,0-.33-.08-.36-.28,.04-2.99,.06-4.49,.09-7.48h0Zm1.62,5.12c2.15,.01,3.23,.02,5.38,.04,.02-2.76,.03-4.14,.05-6.91-2.16-.02-3.24-.02-5.4-.04-.01,2.76-.02,4.14-.04,6.91h0Z" fill="#d9af71" stroke="#d9af71" stroke-width=".5"/><path id="_ス_3973" d="M273.72,5.62c-.02,1.16-.02,2.12-.02,2.82,0,.1,0,.21,0,.26,0,.08,0,.18,0,.31,0,.21-.03,.28-.11,.33-.37,.1-.76,.14-1.14,.11-.28,0-.41-.08-.41-.26v-.05q.07-1,.13-3.54c-1.32-.02-1.97-.03-3.29-.05-.42,2.36-1.4,3.83-3.61,5.35l-.28-.26c.96-.95,1.65-2.15,1.98-3.47,.3-1.27,.44-2.57,.41-3.87,0-.62,.01-.9-.03-1.64,.67,.34,1.31,.75,1.91,1.21,1.26-.32,2.5-.76,3.68-1.31,.55-.22,1.05-.54,1.49-.93,1.65,1.03,2.13,1.42,2.13,1.63,0,.15-.16,.23-.44,.22-.16,0-.36-.03-.85-.09-2.06,.5-4.14,.87-6.24,1.11,0,.13,0,.21,0,.28,0,.38-.04,.82-.04,1.18,2.12,.03,3.17,.04,5.28,.08,.53-.58,.69-.73,1.24-1.26,.74,.68,.97,.89,1.71,1.65,.03,.03,.04,.07,.05,.1,0,.07-.11,.15-.18,.15-1.34-.02-2-.03-3.34-.05Zm-8.25,17.94c3.48-.75,6.54-1.99,7.82-3.2,1.97,.62,2.51,.86,2.51,1.14,0,.13-.21,.23-.54,.22h-.23c-.18,0-.36,0-.54,.01-2.82,1.25-5.83,2.01-8.91,2.26-.04-.17-.06-.26-.1-.44h0Zm6.02-3.36c.01,.12-.05,.23-.16,.28-.41,.1-.84,.15-1.26,.14-.28,0-.41-.08-.43-.29,.13-2.08,.19-4.26,.23-7.57,.04-1.21,.01-2.42-.08-3.62,.68,.29,1.34,.62,1.98,.98,4.31,.06,6.47,.1,10.78,.18,.32-.38,.42-.51,.77-.94,.66,.48,.87,.61,1.53,1.08,.18,.13,.25,.24,.25,.31,0,.18-.65,.42-.82,.68-1.05,1.68-.11,7.01-.07,8.86l-.03,.02c0,.23-.07,.28-.26,.33-.41,.08-.82,.11-1.24,.1-.23,0-.31-.06-.33-.21,0-.27,0-.4,.01-.67-4.35-.08-6.52-.12-10.87-.18,0,.21,0,.31-.01,.51h0Zm11-7.13c.02-.87,.02-1.31,.04-2.18-4.36-.08-6.54-.12-10.91-.18-.01,.87-.02,1.31-.03,2.18,4.36,.06,6.54,.1,10.9,.18h0Zm-10.91,.41l-.04,2.44c4.35,.06,6.53,.1,10.89,.18,.02-.98,.03-1.46,.05-2.44-4.36-.08-6.54-.12-10.89-.18h0Zm-.04,3.03c-.02,1.04-.02,1.56-.04,2.59,4.35,.06,6.52,.1,10.87,.18,.02-1.04,.03-1.56,.05-2.59-4.35-.08-6.53-.12-10.88-.18h0Zm7.78-10.79c-.13,.6-.38,1.16-.73,1.66-.83,1.17-2.03,2.04-3.41,2.46l-.15-.23c1.57-1.16,2.08-1.77,2.48-2.96,.36-1.29,.55-2.63,.56-3.97,0-.36,0-.46,0-.92,.69,.34,1.34,.75,1.95,1.22,1.5-.29,2.96-.76,4.36-1.38,.58-.21,1.12-.51,1.6-.89,1.51,.9,2.2,1.43,2.2,1.69-.02,.15-.16,.26-.32,.25-.36-.03-.71-.1-1.06-.2-2.34,.57-4.72,.95-7.13,1.12,0,.21-.03,.33-.03,.44-.04,.39-.1,.77-.18,1.15,2.57,.05,3.85,.07,6.42,.12q.61-.63,1.32-1.33c.82,.69,1.07,.89,1.83,1.63,.05,.04,.08,.1,.1,.16,0,.08-.11,.2-.19,.2-1.91-.04-2.86-.06-4.76-.1,0,.39-.01,1.35-.03,2.88,.01,.09-.03,.18-.11,.23-.39,.1-.79,.14-1.19,.13-.21,0-.32-.1-.33-.29-.03-.64,0-1.29,.06-1.92,.02-.35,.04-.67,.04-.77,0-.08,0-.15,0-.28-1.33-.02-1.99-.03-3.32-.06h0Zm-.45,14.97c2.26,.24,4.51,.64,6.72,1.18,.72,.36,1.18,1.09,1.17,1.9,.03,.27-.17,.52-.44,.55-.03,0-.06,0-.08,0-.23,0-.24,0-1.04-.53-1.17-.69-2.4-1.29-3.67-1.79-.49-.19-1.05-.38-2.76-.95l.1-.36Z" fill="#d9af71" stroke="#d9af71" stroke-width=".5"/><path id="_ス_3974" d="M297.81,5.75c.84,.86,2,1.33,3.21,1.29,.93,0,1.86-.08,2.78-.26,.5-.79,.83-1.67,.98-2.59,.02-.69-.46-1.12-1.8-1.49,.36-.2,.77-.28,1.17-.25,.69,.04,1.38,.21,2.01,.49,.63,.28,.92,.57,.91,.87,0,.18-.13,.36-.44,.73-.24,.29-.57,.75-.78,1.03q-.49,.73-.68,.98c2.19-.55,2.9-.84,3.78-1.53,.14-.11,.32-.17,.5-.17,1.01,.03,1.72,.41,1.71,.9,0,.31-.35,.55-1.14,.79-1.86,.56-3.76,1-5.69,1.3-.48,.63-.82,1.08-1.43,1.96-.73,1.05-.94,1.34-1.45,2.02,1.02-.59,2.18-.91,3.36-.94,1.49,.02,2.71,1.17,2.82,2.65q.45-.19,2.57-1.18c2.59-1.21,3.23-1.6,3.25-2.06,.01-.44-.41-.91-1.15-1.24,.19-.09,.39-.14,.6-.14,1.14,.04,2.87,1.66,2.84,2.68-.01,.46-.23,.64-.95,.77-2.4,.6-4.74,1.41-7,2.43,0,.82,0,.98-.04,2.08,.02,.74-.07,1.49-.27,2.2-.14,.28-.42,.46-.73,.47-.43,.02-.79-.32-.8-.74,0-.02,0-.03,0-.05,0-.15,.01-.29,.04-.44,.14-.91,.22-1.82,.26-2.74-1.11,.5-2.15,1.15-3.07,1.94-.75,.57-1.23,1.42-1.33,2.35-.04,1.39,1.36,2.09,4.24,2.17,1.75,.05,3.5-.14,5.19-.56,.16-.04,.33-.06,.49-.06,.8,.02,1.78,.78,1.76,1.34-.01,.33-.3,.59-.82,.67-1.53,.2-3.07,.27-4.61,.22-2.42-.07-4.18-.38-5.2-.89-1.15-.43-1.89-1.55-1.83-2.77,.03-1.21,.65-2.29,1.95-3.47,1.01-.85,2.1-1.58,3.26-2.19,.07-.69-.04-1.39-.3-2.04-.25-.49-.75-.8-1.3-.81-1.71-.05-3.78,1.26-5.7,3.57-.51,.65-.72,.81-.98,.8-.41-.01-.68-.56-.66-1.38,.01-.54,.04-.56,.78-1.14,1.87-1.39,3.04-2.7,4.95-5.39-.57,.09-1.16,.12-1.74,.11-1.76-.05-2.65-.53-3.81-2.08l.29-.22Z" fill="#d9af71" stroke="#d9af71" stroke-width=".5"/><path id="_ス_3975" d="M328.09,14.09c-2.16,.36-2.67,.25-2.93,.48-.25,.22-.34,.91-.55,.91-.08,0-.18-.08-.22-.24q-.1-.21-.34-2.12l.49,.02c.28,.01,1.5,.26,2.02,0,.16-.08,.19-.25,.54-.7,1.73-2.13,3.23-4.43,4.48-6.87,2.09,.93,2.27,1.04,2.26,1.27s-.32,.29-1.05,.27h-.1c-1.6,2.15-3.38,4.17-5.33,6.01,2.07-.05,2.67-.08,4.35-.25-.21-.72-.48-1.41-.8-2.09l.26-.15c.53,.56,1.02,1.16,1.48,1.78,.74,.97,1,1.53,.98,1.97-.03,.67-.6,1.52-1.02,1.5-.15,0-.25-.14-.29-.45-.1-.71-.26-1.41-.46-2.1-.72,.2-1.45,.36-2.19,.48l-.19,5.11c-.08,2.21-.07,2.54-.19,6.44-.01,.33-.25,.4-1.38,.36-.26,0-.36-.09-.35-.37,.08-1.44,.3-5.41,.34-6.49,.07-1.91,.1-2.86,.18-4.77Zm-4.44,9.88c.79-2.62,1.31-5.31,1.55-8.04q2.41,.6,2.4,.88c0,.21-.24,.32-.95,.45-.56,2.39-1.48,4.69-2.72,6.81l-.28-.11Zm6.23-20.33c-.86,1.33-1.89,2.53-3.07,3.59,.93,.83,1.25,1.28,1.23,1.77s-.54,1.32-.83,1.31c-.16,0-.3-.19-.47-.61-.51-1.39-1.28-2.66-2.27-3.76l.22-.25c.59,.37,1.17,.76,1.72,1.19,.89-1.49,1.61-3.09,2.12-4.75,.54,.2,.95,.34,1.23,.46,1,.37,1.3,.56,1.3,.74-.01,.26-.35,.35-1.13,.32h-.05Zm.82,12.39c.74,.84,1.38,1.76,1.91,2.75,.28,.41,.45,.89,.49,1.38-.03,.69-.63,1.59-1.07,1.58-.26-.01-.3-.15-.45-1.15-.25-1.51-.65-2.99-1.2-4.41l.32-.14Zm8.95,8.4c1.48,.06,2.22,.09,3.7,.16,.73-.82,.97-1.06,1.7-1.8,1.02,.94,1.31,1.24,2.25,2.23,.04,.06,.06,.13,.07,.21,0,.08-.11,.12-.24,.12-5.6-.25-8.4-.37-14.01-.59-.74-.06-1.48-.03-2.22,.07l-.15-.95c.78,.2,1.58,.31,2.38,.3,1.93,.07,2.9,.12,4.83,.2,.1-2.35,.15-3.52,.24-5.87-1.1-.05-1.66-.07-2.76-.11-.63-.05-1.27-.01-1.89,.1-.05-.38-.07-.57-.12-.95,.66,.17,1.34,.26,2.03,.26,1.1,.04,1.66,.07,2.76,.11,.03-.75,.05-1.12,.08-1.87,.04-.75,.03-1.51-.04-2.26,2.8,.37,2.88,.4,2.87,.63,0,.21-.35,.37-1.11,.6-.05,1.19-.07,1.79-.13,2.98,1.12,.05,1.69,.07,2.81,.12,.68-.74,.89-.96,1.57-1.65,.97,.84,1.27,1.11,2.21,2.03,.06,.06,.1,.15,.09,.24,0,.07-.11,.15-.26,.14-2.58-.12-3.86-.17-6.44-.28-.09,2.35-.14,3.52-.24,5.87h0Zm3.82-19.88c.51-.54,.68-.72,1.22-1.23,.7,.6,.9,.78,1.55,1.38,.2,.19,.27,.29,.27,.4-.01,.26-.38,.42-1.14,.59-1.2,1.91-2.71,3.61-4.47,5.02,.7,.46,1.42,.87,2.18,1.22,1.58,.8,3.28,1.33,5.03,1.59,0,.15,0,.22-.02,.36-.84,.11-1.54,.69-1.8,1.49-2.4-.83-4.61-2.14-6.48-3.85-1.72,1.19-3.59,2.14-5.58,2.8l-.19-.37c1.74-.92,3.39-2.03,4.9-3.3-1.61-1.62-2.76-3.63-3.34-5.84h-.23c-.6-.03-1.2,0-1.79,.07-.07-.42-.1-.64-.17-1.06,.68,.24,1.39,.37,2.11,.39,3.18,.12,4.77,.19,7.96,.33h0Zm-7.38,.28c.75,1.99,2.03,3.74,3.71,5.06,1.49-1.39,2.76-2.99,3.78-4.75-3-.13-4.5-.2-7.49-.32h0Z" fill="#d9af71" stroke="#d9af71" stroke-width=".5"/><path id="_ス_3976" d="M355.28,9.58c1.15,.44,2.24,1.01,3.26,1.7,.46,.28,.73,.78,.71,1.32-.04,.74-.38,1.47-.72,1.46-.15,0-.3-.17-.51-.54-.78-1.37-1.77-2.62-2.93-3.69l.19-.25Zm-.19,9.22c.25,.06,.46,.13,.59,.16,.17,.04,.34,.09,.51,.15,.17,.06,.34,.1,.51,.13,.28,.01,.5-.16,.73-.58,.06-.13,.26-.5,.57-1.08,.4-.75,1-1.93,1.75-3.49,1.21-2.48,1.62-3.31,2.54-5.06l.41,.17c-1.67,4.12-2.51,6.18-4.17,10.31-.21,.41-.35,.84-.43,1.29,.02,.67,.15,1.33,.39,1.95,.14,.51,.2,1.05,.18,1.58,.04,1.1-.81,2.04-1.91,2.12-.33-.02-.53-.26-.51-.64,0-.1,.05-.31,.17-.89,.15-.68,.4-2.4,.43-2.91,.1-.63-.04-1.27-.4-1.79-.44-.43-.94-.79-1.5-1.05,.05-.14,.08-.21,.14-.36h0Zm2.02-14.86c1.21,.44,2.37,1.02,3.45,1.71,.43,.28,.68,.78,.64,1.29-.04,.8-.41,1.47-.77,1.45-.21-.01-.33-.15-.57-.59-.81-1.33-1.8-2.55-2.93-3.62l.19-.25Zm7.91,17.22c-.26,1.11-.8,2.14-1.57,2.98-1.11,1.29-2.55,2.26-4.16,2.8l-.21-.37c1.29-.68,2.38-1.68,3.19-2.9,1.1-1.64,1.37-3.07,1.66-8.71-1.1,.3-1.6,.41-3.09,.69-.07-.17-.11-.25-.19-.42,2.02-.47,3.98-1.16,5.85-2.06,.74-.34,1.44-.74,2.11-1.2-1.49-1.19-2.71-2.68-3.58-4.38l-.72-.04c-.7-.05-1.4-.01-2.08,.12-.06-.44-.09-.65-.15-1.09,.73,.24,1.5,.36,2.27,.37,1.76,.09,2.64,.14,4.4,.23,.02-.45,.04-.68,.06-1.13,.03-.54,.03-1,.05-1.98q2.55,.45,2.8,.59c.05,.05,.12,.14,.12,.21-.01,.21-.28,.34-1.15,.5l-.1,1.9c1.82,.1,2.73,.15,4.56,.25,.6-.58,1.18-1.12,1.73-1.65q1.01,.93,2.19,2.08c.07,.11,.12,.16,.12,.24,0,.1-.11,.15-.35,.13-1.49-.09-2.24-.13-3.73-.21-1.15,1.61-2.61,2.97-4.29,4.01,1.08,.57,2.22,1.03,3.4,1.37,1.63,.52,3.31,.86,5.02,1.01,0,.15-.01,.21-.02,.36-.92,.2-1.16,.42-1.5,1.4-1.01-.23-1.99-.53-2.95-.91-.15,2.76-.23,4.14-.39,6.9-.12,2.13-.12,2.15-.18,5.03-.04,.18-.07,.27-.2,.32-.42,.07-.84,.09-1.27,.06-.23-.01-.37-.12-.4-.28-.05-.32,.14-2,.29-4.74,.02-.43,.04-.65,.06-1.08-3.04-.16-4.56-.24-7.59-.4h0Zm.58-13.55c1.02,1.5,2.34,2.77,3.87,3.73,1.33-.91,2.49-2.03,3.43-3.34-2.92-.16-4.38-.24-7.3-.39h0Zm7.05,13.37c.07-1.36,.11-2.05,.19-3.41-2.92-.16-4.38-.24-7.3-.39-.14,1.59-.24,2.58-.38,3.4,3,.16,4.5,.24,7.49,.4h0Zm.22-4c.05-.93,.07-1.4,.13-2.33-1.16-.55-2.28-1.18-3.34-1.91-1.28,.67-2.61,1.24-3.98,1.72-.03,.64-.05,.95-.08,1.59,0,.1-.01,.26-.03,.54,2.92,.15,4.38,.23,7.3,.4h0Z" fill="#d9af71" stroke="#d9af71" stroke-width=".5"/><path id="_ス_3977" d="M394.01,10.64c.44-.43,.56-.58,1-1.02,.54,.47,.71,.64,1.28,1.16,.17,.19,.24,.27,.24,.38-.01,.15-.17,.25-.92,.56-.13,1.61-.2,2.71-.24,3.28-.35,5.38-.6,9.74-.69,11.51,0,.05,0,.1,0,.13-.01,.2-.21,.28-.87,.25-.2,0-.34,0-.41,0h-.08c-.23-.02-.33-.1-.32-.28v-.07c.04-.56,.06-.85,.09-1.41-1.83-.12-2.75-.17-4.58-.29-.05,.86-.08,1.29-.13,2.15-.07,.3-.2,.35-.89,.3l-.33-.02c-.39-.02-.46-.05-.45-.31,.28-2.86,.33-3.74,.6-8.17,.35-5.72,.41-7.15,.45-9.85,.65,.43,1.28,.91,1.86,1.43l.72,.05c1.01-2.84,1.21-3.58,1.34-4.83,1.05,.35,2.29,.79,2.62,.96,.15,.09,.22,.17,.22,.27-.02,.26-.18,.32-1.25,.38-.65,1.18-1.46,2.27-2.39,3.25,1.25,.08,1.88,.12,3.13,.19Zm-.41,6.38c.15-2.32,.22-3.47,.37-5.79-1.84-.12-2.76-.17-4.6-.29-.15,2.32-.21,3.48-.36,5.8,1.84,.11,2.76,.17,4.59,.28Zm-4.63,.3c-.17,2.77-.26,4.15-.43,6.92,1.83,.11,2.75,.17,4.58,.29,.18-2.77,.26-4.15,.44-6.92-1.84-.12-2.75-.17-4.59-.29h0Zm18.01-5.82c.53-.53,.7-.67,1.22-1.17,.63,.61,.83,.81,1.43,1.41,.19,.19,.24,.3,.23,.45-.02,.23-.73,.27-1.01,.65-1.71,2.34-.61,6.5-1.25,9.67-.59,2.94-1.21,4.73-1.96,5.6-.53,.61-.9,.73-3.08,.97-.17-.89-.33-1.21-.73-1.49-.4-.24-.85-.4-1.31-.47l-.74-.13c-.24-.03-.48-.08-.71-.15,.01-.17,.02-.26,.03-.44,.49,.06,.93,.12,1.17,.16,.82,.13,1.65,.21,2.49,.24,1.44,.1,1.54,.08,1.8-.34,.66-1.52,1.13-3.13,1.39-4.77,.6-3.17,.98-6.38,1.15-9.6-2.8-.19-4.2-.29-7.01-.47-1.78,2.92-2.66,4.1-4.04,5.45-.13-.09-.19-.14-.32-.23,1.31-1.84,2.39-3.84,3.21-5.94,.7-1.57,1.2-3.23,1.49-4.92,.91,.25,1.82,.55,2.7,.9,.18,.06,.25,.17,.24,.27-.01,.2-.23,.29-1.23,.46-.47,1.19-1.04,2.34-1.71,3.44,2.61,.17,3.91,.26,6.52,.44h0Zm-7.84,3.46c1.31,.91,2.51,1.97,3.57,3.17,.54,.48,.83,1.18,.8,1.91-.07,.97-.54,1.87-1,1.83-.21-.01-.37-.21-.5-.63-.27-.93-.61-1.83-1.01-2.71-.49-1.23-1.19-2.36-2.08-3.33l.22-.24Z" fill="#d9af71" stroke="#d9af71" stroke-width=".5"/><path id="_ス_3978" d="M422.75,19.51c-.07,.23-.58,1.81-1.52,4.73-.34,.86-.55,1.76-.64,2.68,0,.37-.05,.74-.16,1.1-.11,.26-.37,.42-.65,.39-.44-.03-.79-.42-1.03-1.13-.5-1.79-.67-3.67-.5-5.52,.08-.92,.22-1.83,.41-2.72,.32-1.62,.74-3.21,1.26-4.77,.26-.76,.44-1.55,.54-2.35,.05-.86-.13-1.71-.55-2.46,.57,.07,1.01,.45,1.64,1.38,.49,.59,.77,1.33,.81,2.09-.03,.41-.08,.51-.66,1.5-.69,1.26-1.26,2.59-1.7,3.97-.3,1.03-.5,2.08-.57,3.15-.12,1.14-.04,2.3,.24,3.42,.4-.68,.77-1.38,1.09-2.11,.65-1.39,.98-2.09,1.63-3.48l.35,.16Zm3.15,1.53c-.07,.35-.13,.71-.16,1.07-.22,2.82,1.31,4.09,5.3,4.4,.73,.06,1.47,.05,2.2,0,.48-.02,.95-.12,1.39-.3,.13-.03,.26-.05,.39-.05,.79,.19,1.38,.84,1.5,1.64-.02,.31-.25,.5-.62,.59-1.07,.14-2.16,.15-3.23,.02-3.21-.26-5.47-.97-6.53-2.08-.87-.92-1.29-2.18-1.13-3.44,.05-.69,.21-1.36,.46-2l.43,.14Zm.57-8.14c.67,.53,1.49,.84,2.35,.88,1.79,.1,3.59-.16,5.28-.74,.35-.15,.4-.17,.59-.16,.32,.08,.62,.22,.88,.43,.5,.36,.75,.68,.72,1.01s-.22,.47-.77,.53c-1.27,.04-2.53,.24-3.74,.6-1.19,.43-2.35,.95-3.47,1.56l-.24-.28c1.24-.88,2.17-1.53,2.61-1.81-.54-.02-.83-.01-1.06-.03-1.33-.05-2.57-.67-3.4-1.71l.26-.29Z" fill="#d9af71" stroke="#d9af71" stroke-width=".5"/><path id="_ス_3979" d="M458.53,24.85c.63-1.57,1.54-2.13,3.14-1.98,1.05,.16,2.07,.47,3.03,.92,.64,.27,1.31,.45,2,.55,.87,.14,1.74-.22,2.27-.92l.41,.29c-.17,.47-.44,.89-.79,1.24-.61,.59-1.46,.86-2.3,.74-.92-.15-1.82-.4-2.68-.76-.75-.34-1.54-.58-2.35-.71-.89-.19-1.8,.18-2.31,.93l-.42-.3Z" fill="#d9af71" stroke="#d9af71" stroke-width=".5"/><path d="M382.18,54.86v2.05h4.15c5.79,0,10.5,4.71,10.5,10.5v44.97h2.05v-44.97c0-6.92-5.63-12.55-12.55-12.55h-4.15Z" fill="#d9af71"/><path d="M73.54,67.41c0-5.79,4.71-10.5,10.5-10.5h6.55v-2.05h-6.55c-6.92,0-12.55,5.63-12.55,12.55v44.97h2.05v-44.97Z" fill="#d9af71"/><path d="M152.89,64.08h-5.12v4.06h-2.92v-4.06h-5.52c-1.51,3.34-5.61,3.99-6.72,4.17l-1.18-2.43c.69-.05,3.27-.21,4.71-1.74h-4.98v-2.46h6.14c.07-.53,.12-.77,.12-1.39h2.64c0,.3-.07,1.06-.09,1.39h4.89v-1.25c-.42,0-1.11-.19-1.51-.72-.01-.01-.01-.03-.02-.05-.25-.35-.37-.87-.37-1.07v-5.5h-3.97c-.19,.3-.28,.42-.6,.81h3.66v1.88c-.26,.42-.55,.81-.87,1.18-.97,1.12-2.18,2-3.5,2.69-1.8,.94-3.79,1.52-5.62,1.81l-.75-1.81-.22-.53c.9-.07,2.32-.19,4.24-.83-.37-.37-.51-.51-1.14-1.04l.49-.28,1.64-.95c.26,.22,.61,.53,1.03,.95,.11,.11,.19,.18,.31,.31,.19-.11,.32-.21,.47-.31,.76-.51,1.07-.86,1.38-1.25h-3.27c-.37,.25-1.16,.74-2.28,1.25-.56,.25-1.17,.5-1.9,.72l-.34-.72-.7-1.48c.55-.12,1.22-.32,1.92-.57,1.07-.39,2.2-.95,3.11-1.82h-4.69v-2.09h21.33v2.09h-7.07v1.85c.06,0,.13-.03,.19-.04,1.76-.3,3.49-.76,5.23-1.61l.96,1.61,.27,.45c-1.78,.73-3.94,1.27-5.93,1.6-.24,.04-.49,.09-.72,.12v.63c0,.23,0,.56,.56,.56h3.55c.37,0,.51-.19,.58-.35,.06-.13,.11-.54,.14-.95,.02-.32,.04-.64,.05-.81l2.6,.77s0,.03,0,.04c-.1,1.07-.22,2.05-.65,2.69-.32,.47-.8,.77-1.59,.77h-3.08v1.25h5.12v2.46Zm-30.96,3.31h-13.77v-2.92h5.61v-9.09h-4.54v-2.95h4.54v-6.21h2.95v6.21h4.78v2.95h-4.78v9.09h5.22v2.92Zm-15.13-7.79c-.17-.2-.33-.36-.5-.58v9.09h-2.9v-8.41c-1.18,1.04-1.97,1.6-2.64,2.06l-.64-2.16-.31-1.02c.78-.48,1.53-1.06,2.24-1.67,.75-.65,1.41-1.34,2-2.05,.69-.83,1.29-1.66,1.65-2.42,0-.02,.03-.05,.04-.07h-5.59v-2.71h3.25v-3.43h2.9v3.43h2.57v2.71s-.02,.04-.03,.07c-.49,1.01-.91,1.76-1.32,2.42-.25,.41-.51,.79-.78,1.15,.31,.35,.58,.64,.85,.9,1.02,1,1.8,1.46,2.37,1.79l-.47,.9-.94,1.81c-.55-.49-1.14-1.09-1.75-1.81m32.46-9.92v.9h-2.87v-.9h-5.24v-2.41h5.24v-1.06h2.87v1.06h5.63v-1.06h2.87v1.06h5.12v2.41h-5.12v.9h-2.87v-.9h-5.63Zm18.51,21.44c.67-.67,1.08-1.59,1.08-2.61h0v-23.53c0-.1-.02-.2-.03-.3-.11-1.4-.99-2.58-2.23-3.11-.44-.19-.93-.29-1.44-.29h-57.15c-.51,0-.99,.1-1.44,.29-1.24,.52-2.11,1.71-2.23,3.11,0,.1-.03,.19-.03,.3v23.53h0c0,1.02,.41,1.94,1.08,2.61,.67,.67,1.59,1.08,2.61,1.08h57.15c1.02,0,1.94-.41,2.61-1.08" fill="#d9af71"/><polygon points="335.57 59.61 335.57 61.65 340.88 61.65 340.88 59.61 340.88 57.68 335.57 57.68 335.57 59.61" fill="#d9af71"/><path d="M314.43,48.61c-1.2,1.49-2.6,2.73-4.26,3.83-.08,.05-.14,.11-.22,.16h9.07c-.08-.06-.14-.11-.22-.16-2.43-1.69-3.7-3.08-4.37-3.83" fill="#d9af71"/><rect x="309.13" y="59.84" width="11.76" height="4.78" fill="#d9af71"/><path d="M371.54,53.04h-7.07v1.85c.06,0,.13-.03,.19-.04,1.76-.3,3.49-.76,5.23-1.61l.96,1.61,.27,.45c-1.78,.73-3.94,1.27-5.93,1.6-.24,.04-.49,.09-.72,.12v.63c0,.23,0,.56,.56,.56h3.55c.37,0,.51-.19,.58-.35,.06-.13,.11-.54,.14-.95,.02-.32,.04-.64,.05-.81l2.6,.77s0,.03,0,.04c-.11,1.07-.22,2.05-.65,2.69-.32,.47-.8,.77-1.59,.77h-3.08v1.25h5.12v2.46h-5.12v4.06h-2.92v-4.06h-5.52c-1.51,3.34-5.61,3.99-6.73,4.17l-1.18-2.43c.69-.05,3.27-.21,4.7-1.74h-4.98v-2.46h6.14c.07-.53,.12-.77,.12-1.39h2.64c0,.3-.07,1.06-.09,1.39h4.89v-1.25c-.42,0-1.11-.19-1.51-.72,0-.01-.01-.03-.02-.05-.25-.35-.37-.87-.37-1.07v-5.5h-3.96c-.19,.3-.28,.42-.6,.81h3.66v1.88c-.26,.42-.55,.81-.87,1.18-.97,1.12-2.18,2-3.5,2.69-1.8,.94-3.79,1.52-5.62,1.81l-.75-1.81-.22-.53c.9-.07,2.32-.19,4.24-.83-.37-.37-.51-.51-1.14-1.04l.49-.28,1.64-.95c.26,.22,.61,.53,1.03,.95,.11,.11,.19,.18,.32,.31,.19-.11,.32-.21,.47-.31,.76-.51,1.07-.86,1.38-1.25h-3.27c-.37,.25-1.16,.74-2.27,1.25-.56,.25-1.17,.5-1.9,.72l-.34-.72-.7-1.48c.55-.12,1.22-.32,1.92-.57,1.07-.39,2.2-.95,3.11-1.82h-4.68v-2.09h21.33v2.09Zm-23.77,12.87c0,2.2-1.79,2.2-2.34,2.2h-3.9l-.49-2.94h3.13c.28,0,.69,0,.69-.63v-14.84h-14.4v18.41h-2.92v-21.14h20.22v18.95Zm-16.55-13.47v-1.25h12.89v2.5h-12.89v-1.25Zm1.11,7.16v-4.38h10.69v8.83h-10.69v-4.45Zm-9.07,8.46h-2.92v-.86h-11.75v.86h-2.92v-10.85h17.6v10.85Zm2.42-15.63l-1.33,2.42-.26,.48c-.29-.13-.65-.3-1.03-.48-.71-.34-1.56-.76-2.49-1.31v1.67h-12.03v-1.74c-1.08,.61-1.93,1.04-2.64,1.38-.39,.18-.76,.35-1.07,.48l-.25-.48-1.27-2.42v-.02c3.79-1.25,7.29-3.34,9.61-6.21h3.15c1.3,1.51,3.52,3.89,9.62,6.21v.02Zm32.4-2.76v.9h-2.88v-.9h-5.24v-2.41h5.24v-1.06h2.88v1.06h5.63v-1.06h2.87v1.06h5.12v2.41h-5.12v.9h-2.87v-.9h-5.63Zm16.5-8.39h-71.36c-.57,0-1.11,.11-1.59,.32-.66,.28-1.21,.73-1.64,1.29-.53,.69-.86,1.55-.86,2.49v22.71c0,1.39,.7,2.62,1.76,3.36,.02,.01,.03,.03,.05,.04,.06,.04,.13,.07,.19,.1,.62,.37,1.33,.6,2.1,.6h71.36c.72,0,1.39-.2,1.97-.53,1.03-.57,1.8-1.56,2.04-2.75,.05-.27,.08-.54,.08-.83v-22.71c0-1.41-.72-2.66-1.81-3.4-.65-.44-1.44-.7-2.29-.7" fill="#d9af71"/><rect x="196.31" y="49.57" width="5.77" height="2.83" fill="#d9af71"/><path d="M243.74,54.86c-.29,.66-.48,1.35-.6,2.05-.09,.56-.15,1.12-.15,1.67,0,.38,.02,.72,.06,1.02,.26,2.03,1.3,2.44,1.79,2.44,.79,0,1.55-.85,2.2-2.44,.3-.73,.58-1.63,.82-2.69,.14-.63,.27-1.31,.39-2.05,.12-.75,.22-1.56,.31-2.42,.05-.5,.11-.97,.15-1.51-1.31,.3-2.32,.84-3.14,1.51-.83,.68-1.44,1.51-1.84,2.42" fill="#d9af71"/><path d="M273.51,48.55c-1.11,1.54-2.73,2.88-4.14,3.89l-.03,.02h8.44l-.03-.02c-2.48-1.84-3.64-3.18-4.24-3.89" fill="#d9af71"/><path d="M173.7,62.06c0,1.37,1.18,1.81,1.95,1.81,1.02,0,1.02-.42,1.02-.88v-4.59c-.41,.22-1.14,.61-1.78,1.21-.65,.6-1.19,1.41-1.19,2.46" fill="#d9af71"/><path d="M283.81,59.95h-11.76c-.88,2.06-1.46,3.39-2.18,4.78,.74,0,4.61-.09,8.41-.39-.51-.69-1.11-1.46-2.34-2.87l2.46-1.32c2.64,2.62,4.61,5.87,5.1,6.66l-2.64,1.51c-.25-.47-.42-.81-.93-1.65-2.99,.35-6.77,.81-16.14,1l-.37-2.92c.3,0,2.78,.02,3.32,.02,.67-1.27,1.46-3.18,1.99-4.8h-5.56v-2.71h20.64v2.71Zm-33.58,7.09l-.97-2.97c3.41-.15,6.6-1.02,7.64-4.47,.22-.74,.38-1.57,.38-2.57,0-.04,0-.08,0-.12,0-.67-.08-1.37-.26-2.05-.23-.88-.64-1.73-1.31-2.42-.83-.87-2.06-1.5-3.9-1.65-.04,.48-.09,1.05-.15,1.65-.07,.75-.16,1.56-.29,2.42-.1,.67-.22,1.36-.36,2.05-.19,.92-.42,1.83-.71,2.69-.3,.89-.65,1.74-1.09,2.48-.39,.67-1.88,3.11-4.55,3.11s-4.28-2.67-4.63-5.59c-.05-.42-.08-.85-.08-1.27,0-.49,.07-.95,.13-1.42,.09-.72,.23-1.4,.45-2.05,.28-.87,.63-1.69,1.12-2.42,1.86-2.8,5.12-4.52,9.25-4.52s7.09,1.65,8.6,4.52c.38,.73,.69,1.53,.87,2.42,.13,.64,.2,1.33,.22,2.05,0,.1,.02,.18,.02,.28,0,.87-.07,1.67-.21,2.41-.92,5.07-4.88,7.08-10.18,7.44m-13.13-.74c-3.85-.3-6.03-.88-5.84-5.93l.03-.76,.1-2.69,.08-2.05,.02-.5c.02-.74,0-1.42-.2-1.93-.19-.48-.55-.79-1.22-.79-.57,0-1.41,.23-2.38,.79-.88,.5-1.87,1.28-2.89,2.42-.24,.27-.48,.54-.73,.85,0,.45-.02,.84-.03,1.2-.02,.99-.03,1.78-.04,2.69,0,.27,0,.54,0,.86,0,2.97,.07,5.45,.11,6.63h-3.13c0-1.09,.05-5.86,.07-6.84-1.32,2.09-2.23,2.97-2.83,3.55l-1.69-2.97c.28-.27,.71-.71,1.2-1.23,.65-.69,1.41-1.58,2.19-2.69,.39-.56,.78-1.15,1.15-1.8v-1.67h-3.82v-2.9h3.85c0-.3,.02-3.34,.02-3.41h3.13c-.03,.56-.09,3.1-.12,4.66,1.32-1.27,3.78-3.18,6.65-3.18,1.53,0,2.71,.76,3.32,1.76,.29,.49,.44,1.18,.5,2.06,.03,.45,.05,.92,.03,1.48l-.03,.94-.06,2.05-.08,2.69v.49c-.06,1.92-.11,3.22,3.3,3.15l-.67,3.06Zm-23.03-.32c0,1.64-1.16,2.04-2.18,2.04h-3.62l-.53-2.97h2.9c.58,0,.6-.28,.6-.83v-18.02h2.83v19.78Zm-7.54-6.38v-12.01h2.76v14.98h-2.76v-2.97Zm-2.74,6.84c-.19,.51-.6,1.58-2.74,1.58h-2.46l-.53-2.64h2.09c.79,0,.95-.16,1.07-.46,.25-.7,.43-3.81,.48-5.31,0-.03,0-.06,0-.09h-3.16s0,.06-.01,.09c-.3,2.42-.81,5.55-3.67,8.44l-2.09-2.29c1.68-1.65,2.5-3.38,2.93-6.14,.13-.81,.23-1.68,.3-2.69,.04-.63,.08-1.29,.11-2.01h-2.53v-7.88h11.15v7.88h-5.84c-.05,.83-.05,1.14-.09,1.95h5.77s0,.05,0,.06c-.02,.49-.05,1.51-.1,2.69-.11,2.55-.32,5.92-.68,6.84m-22.77,.74l-.63-2.71c2.71,0,6.93,.02,6.93-3.8,0-.4-.06-.75-.15-1.07-.69-2.36-3.65-2.36-4.51-2.36-1.53,0-2.37,.18-3.06,.35v6.1c0,.86,0,3.01-3.68,3.01s-5.12-2.83-5.12-4.52c0-.53,.1-1.49,.67-2.57,.47-.87,1.28-1.81,2.63-2.69,.71-.46,1.52-.91,2.56-1.32v-3.11h-5.35v-2.85h5.35v-2.46h2.95v2.46h5.06v2.85h-5.06v2.38h0s.05,0,.08,0c.63-.12,1.7-.31,3.26-.31,1.16,0,2.07,.13,2.82,.31,1.41,.35,2.2,.91,2.66,1.29,.27,.24,.45,.5,.66,.76,.71,.89,1.08,1.85,1.23,2.69,.08,.47,.13,.91,.13,1.25,0,5.17-4.69,6.4-9.41,6.33m10.48-14.03l-2.74,1.53c-.34-.76-.8-1.52-1.29-2.25-1.02-1.54-2.27-2.94-3.4-3.8l2.3-1.74c2.4,1.87,3.7,3.66,4.72,5.54,.13,.24,.27,.48,.4,.72m93.25-.3l-1.05,2-.43,.83c-.42-.19-.99-.44-1.72-.83-.55-.29-1.18-.65-1.94-1.14v1.32h-12.2v-1.27c-.78,.47-1.42,.81-1.97,1.1-.76,.39-1.35,.66-1.76,.85l-.43-.85-1.01-2c.35-.14,.65-.28,.98-.42,4.96-2.11,7.49-4.47,8.67-6.21h3.29c1.18,1.49,3.31,3.88,8.63,6.21,.32,.14,.6,.28,.94,.42m7.48,14.17v-20.57c0-.36-.04-.71-.1-1.04-.48-2.36-2.57-4.13-5.07-4.13h-116.37c-2.86,0-5.17,2.32-5.17,5.17v20.57c0,.36,.04,.71,.11,1.04,.48,2.36,2.57,4.13,5.07,4.13h116.37c2.86,0,5.17-2.32,5.17-5.17" fill="#d9af71"/><path d="M38.08,118.95l6.91,.7c.94,.1,1.46,.52,1.46,1.18,0,.52-.28,.89-.89,1.27l-.71,.47v13.69h2.21l3.43-4.75,5.03,4.61c.33,.28,.47,.52,.47,.8,0,.47-.28,.61-1.08,.61h-10.06v21.26h3.57l3.95-5.41,5.13,5.08c.38,.38,.52,.66,.52,.94,0,.47-.33,.66-1.18,.66h-22.95c-2.77,0-3.95,.05-7.62,.19l-.56-1.69c4,.23,4.61,.23,8.18,.23h4.19v-21.26h-3.15c-2.21,0-2.92,0-5.78,.14l-.52-1.55c3.2,.14,4.19,.14,6.3,.14h3.15v-17.31Zm-19.23,10.96c-1.98,0-2.96,.05-5.88,.14l-.42-1.6c3.15,.14,3.62,.14,6.3,.19v-10.25l6.4,1.08c1.03,.14,1.55,.61,1.55,1.32,0,.56-.33,.99-1.18,1.36l-.56,.28v6.21l2.07-3.34,4.61,4.37c.47,.42,.66,.8,.66,1.18,0,.56-.33,.85-1.18,1.03l-.61,.14c-1.88,3.06-3.72,5.55-5.6,7.62v.85c2.91,.61,3.81,.89,4.89,1.65,1.5,1.03,2.26,2.4,2.26,4,0,2.02-1.27,3.39-3.15,3.39-1.65,0-2.16-.75-2.49-3.39-.28-2.21-.56-3.1-1.5-4.61v18.2c0,.99-.33,1.46-1.22,1.93-1.18,.61-2.73,.99-3.81,.99-.85,0-1.22-.42-1.22-1.41v-16.22c-2.68,1.83-5.55,3.39-6.16,3.39-.23,0-.38-.14-.38-.38,0-.19,.09-.38,.42-.66,5.17-5.74,9.45-12.09,11.71-17.45h-5.5Z" fill="#d9af71"/><path d="M82.2,130h6.16v-4.75h-6.16v4.75Zm-5.97,5.55c-.85,.8-1.32,1.18-3.01,2.4,1.51,.28,2.54,1.04,3.01,2.21,1.6-1.6,2.26-2.4,3.9-4.61h-3.9Zm6.63,10.58c.8,.14,1.36,.57,1.36,1.13,0,.42-.33,.85-.94,1.13l-.66,.28c-.09,1.22-.09,1.41-.23,2.44h6.25v-5.27l6.02,.71c.89,.14,1.46,.52,1.46,1.08,0,.42-.33,.85-.89,1.13l-.47,.28v2.07h4.75l3.57-4.14,4.47,3.86c.38,.28,.52,.52,.52,.85,0,.47-.38,.7-1.22,.7h-12.09v7.1c0,1.22-.42,1.74-1.65,2.12-.8,.24-2.4,.47-3.15,.47-.94,0-1.32-.42-1.32-1.46v-8.23h-6.49c-.99,4.7-3.86,7.43-9.74,9.22-2.3,.7-5.64,1.41-6.58,1.41-.28,0-.47-.19-.47-.38,0-.38,.24-.52,1.22-.89,5.64-2.12,8.89-5.31,9.45-9.36h-3.48c-2.49,0-4.47,.05-8.46,.24l-.8-1.79c4.14,.24,5.6,.28,9.26,.28h3.67c.23-1.69,.33-2.92,.33-4.28q0-.8-.05-1.51l6.35,.8Zm-.94-26.9c.85,.09,1.41,.52,1.41,1.03,0,.47-.38,.94-.89,1.18l-.23,.1v2.45h6.16v-5.45l6.02,.8c.89,.1,1.46,.52,1.46,1.08,0,.42-.38,.85-.94,1.13l-.42,.23v2.21h5.5l3.29-3.81,4.37,3.57c.24,.19,.38,.47,.38,.8,0,.52-.38,.7-1.22,.7h-12.32v4.75h4.66l3.01-3.95,4.28,3.62c.33,.28,.57,.66,.57,.99,0,.42-.38,.61-1.22,.61h-12.79v5.27c.56-.28,.99-.57,1.32-.75,2.49-1.37,3.15-1.79,5.74-3.9l3.53,2.92c.33,.28,.61,.75,.61,1.13,0,.47-.47,.75-1.22,.75h-1.03c-2.49,.47-6.16,.89-8.94,1.08v1.79c0,.94,.33,1.03,3.48,1.03,.47,0,1.04,0,1.79-.05,.89-.05,1.79-.1,1.83-.1,1.93,0,2.35-.42,4.99-4.47,.47-.8,.52-.85,.8-.85,.24,0,.42,.19,.42,.47l-.05,.66c-.1,.8-.33,3.53-.33,3.9,0,.33,.09,.47,.42,.61,.89,.38,1.41,.99,1.41,1.55,0,1.27-1.18,2.4-2.87,2.73-1.65,.38-4.14,.52-8.28,.52-8.32,0-9.31-.47-9.31-4.52v-9.78h-7.01c-1.22,1.46-1.83,2.12-2.73,3.06h2.96l2.3-2.45,3.72,3.95c.33,.33,.56,.75,.56,1.08,0,.47-.38,.75-1.08,.85l-.66,.09c-4.42,4.89-7.66,7.24-12.37,9.08-3.43,1.36-6.77,2.26-8.32,2.26-.33,0-.47-.14-.47-.38,0-.19,.14-.33,.52-.56,3.2-1.5,5.03-2.68,8.04-5.08-.56-.56-.66-.8-.8-2.26-.14-.94-.24-1.41-.42-1.83-2.59,1.6-6.21,3.34-7.01,3.34-.19,0-.33-.14-.33-.33,0-.24,.09-.38,.89-.99,3.53-2.77,5.83-5.55,8.14-9.83-4.37,.05-5.03,.09-8.56,.24l-.8-1.79c4.14,.23,5.6,.28,9.26,.28h2.96v-4.75h-3.72c-2.4,0-4.37,.05-8.42,.24l-.85-1.74c4.19,.19,5.69,.23,9.26,.23h3.72v-5.45l5.83,.7Z" fill="#d9af71"/><path d="M148.87,123.89c0,1.93,1.55,3.48,3.48,3.48s3.48-1.55,3.48-3.53-1.55-3.43-3.53-3.43-3.43,1.6-3.43,3.48m.28,4.47c1.65,1.65,2.12,2.3,2.12,3.01,0,.42-.23,.94-.52,1.18-.14,.1-.75,.38-1.83,.85-.33,.61-.52,1.03-.61,1.22-.71,1.41-1.41,2.82-2.07,4.23-.99,1.93-4.33,6.73-6.49,9.17-4.09,4.75-7.9,7.52-13.83,10.25-2.02,.89-4.61,1.83-5.13,1.83-.23,0-.42-.19-.42-.38,0-.24,.19-.47,.61-.71,8.42-4.84,15.47-14.39,20.17-27.04l.19-.52c-2.63,.23-6.3,.75-10.77,1.6-2.12,.52-4.7,1.08-5.97,1.36-.75,.19-.94,.28-1.32,.52l-.89,.66c-.33,.24-.61,.38-.8,.38-.7,0-2.3-1.55-3.86-3.72-1.18-1.6-1.46-2.3-1.46-3.39,0-1.41,.38-2.45,1.13-3.1,1.32,2.16,2.35,3.06,3.67,3.06,.47,0,1.08-.05,1.74-.14,9.69-1.13,14.86-1.64,19.7-1.93l2.16-1.98c1.32,.8,1.65,1.08,3.53,2.73v-.05c-.99-1.32-1.32-2.21-1.32-3.57,0-3.01,2.45-5.45,5.45-5.45s5.46,2.45,5.46,5.45-2.45,5.46-5.46,5.46c-1.18,0-2.07-.28-3.2-1.04v.05Z" fill="#d9af71"/><path d="M167.81,148.16l.1-6.54,.05-6.21,.05-5.46c0-2.59-.14-3.15-.85-3.76-.19-.19-1.03-.61-2.45-1.27,.85-1.04,2.59-1.97,3.48-1.97,.47,0,2.77,.8,4.37,1.5,2.54,1.13,3.67,1.98,3.67,2.73q0,.56-1.6,2.12c-.52,6.96-.85,13.54-.99,19.71,8.84-3.2,18.86-8.84,25.72-14.48,.52-.52,.71-.61,.89-.61,.24,0,.38,.19,.38,.42,0,.89-4.56,6.35-8.32,9.97-3.2,3.06-6.82,5.83-10.96,8.28-1.88,1.13-2.35,1.36-8.23,4.33-.61,1.5-.85,1.88-1.46,1.88-.47,0-1.03-.33-1.46-.89l-1.36-1.88-1.46-1.97q-1.46-2.02-1.97-2.73l2.4-.71v-2.45Z" fill="#d9af71"/><path d="M228.33,124.97c2.77,1.32,4.14,3.01,4.14,5.08,0,1.83-1.46,3.24-3.34,3.24-1.27,0-2.35-.52-4.09-2.12-4.14-3.76-8.42-6.25-13.07-7.71-.75-.28-.8-.28-.8-.61,0-.47,.19-.52,2.02-.52,6.3,0,11.62,.94,15.14,2.63m-4.47,10.96c5.36,1.5,8.42,4,8.42,6.87,0,1.83-1.27,3.2-3.06,3.2-1.13,0-1.97-.42-3.34-1.74-5.03-4.65-9.22-7.29-14.11-8.89-.61-.19-.75-.28-.75-.61,0-.28,.19-.42,.61-.42,4.23,0,8.42,.56,12.23,1.6m-14.01,10.21c.19,0,1.27,.05,2.77,.09,7.24,.19,14.44,2.12,19,5.03,2.21,1.41,3.39,3.29,3.39,5.31,0,2.21-1.46,3.67-3.76,3.67-.89,0-1.69-.28-2.54-.85q-.28-.19-3.48-3.06c-4.42-4-10.68-7.57-16.13-9.22-.33-.14-.47-.24-.47-.52,0-.33,.28-.52,.66-.52,.19,0,.28,0,.56,.05" fill="#d9af71"/><path d="M276.77,122.53c1.83,.89,2.59,1.41,5.17,3.67,2.16,1.88,2.68,2.54,2.68,3.43,0,.38-.24,.7-.66,.89-.09,.05-.94,.14-2.59,.28-6.63,3.72-9.22,5.03-13.5,6.87-1.51,5.64-2.21,7.67-3.72,10.44-2.49,4.7-5.97,8.28-10.58,10.82-2.12,1.18-2.59,1.41-2.82,1.41-.19,0-.33-.14-.33-.33,0-.14,.09-.28,.28-.47,2.92-2.68,4.56-4.99,6.3-8.79,1.65-3.57,3.29-10.68,3.29-14.2,0-.89-.05-.99-.66-1.32-.7-.38-1.32-.7-2.26-1.08,.56-.71,.89-.94,1.74-1.18,.66-.19,1.46-.28,2.02-.28,1.37,0,3.01,.85,6.49,3.24,1.88-1.93,3.57-4.23,5.69-7.62-2.21,0-7.95,.66-13.31,1.55-6.82,1.46-7.2,1.55-8.75,2.78-.38,.28-.8,.42-1.08,.42-.61,0-1.6-.75-3.34-2.49-2.02-2.02-2.73-3.24-2.73-4.61,0-1.08,.19-1.65,.75-2.07,1.22,1.69,2.3,2.31,3.95,2.31,.33,0,1.04-.05,2.16-.19,2.73-.33,12.6-1.13,23.61-1.88l2.16-1.6Z" fill="#d9af71"/><path d="M295.71,150.51c3.72-.14,14.39-.75,17.64-1.04-1.5-3.71-4.19-7.81-5.88-9.12-.38-.28-.47-.42-.47-.66,0-.28,.28-.47,.61-.47,.8,0,4.18,1.46,6.35,2.78,5.31,3.24,8.98,8.14,8.98,12.09,0,2.63-1.69,4.61-3.9,4.61-2.07,0-3.11-1.22-4.05-4.7-.42-1.36-.56-1.88-.89-2.77l-.99,.28c-.42,.09-3.39,.85-5.97,1.55l-6.77,1.83-6.49,1.65-2.54,.7c-.28,.38-.56,.71-.61,.85-.61,.85-.99,1.13-1.41,1.13-.66,0-1.18-.47-3.48-3.15-1.36-1.55-2.12-3.06-2.12-4.37,0-.47,.14-1.13,.33-1.83,.23-.61,.33-.8,.85-1.08,1.18,1.65,1.46,1.93,2.4,1.93,.38,0,.99,0,1.69-.05,.61,0,1.55,0,2.68-.05h1.18l.14-.38,.14-.42c2.78-7.15,7.06-21.87,7.06-24.08,0-.47-.28-.89-.89-1.27q-.09-.09-1.04-.61l-.7-.38c.85-.66,2.68-1.32,3.67-1.32,.61,0,1.97,.71,4.04,2.02,2.96,1.83,4.37,3.2,4.37,4.09,0,.57-.66,1.03-2.45,1.65-3.06,6.11-7.85,14.67-11.43,20.22l-.24,.38h.19Z" fill="#d9af71"/><path d="M367.56,125.64c0,2.27,1.83,4.1,4.05,4.1s4.1-1.83,4.1-4.1-1.83-4.05-4.16-4.05c-2.16,0-3.99,1.89-3.99,4.05m10.49,.06c0,3.55-2.89,6.44-6.44,6.44s-6.44-2.89-6.44-6.49,2.94-6.38,6.55-6.38,6.33,2.94,6.33,6.44m-20.2,5.49c3.88,.94,9.76,3.83,13.43,6.71,4.88,3.83,7.6,7.88,7.6,11.43,0,3.27-2.11,5.66-4.99,5.66-.94,0-1.94-.39-2.55-1q-.94-1-2.5-4.88c-2.83-6.77-6.6-12.32-11.65-17.03-.44-.39-.56-.56-.56-.72s.17-.33,.33-.33c.11,0,.22,0,.45,.05l.44,.11Zm-14.26,15.81c-4.44,4.6-6.77,6.38-11.71,9.04-2.11,1.16-3.27,1.66-3.61,1.66-.11,0-.28-.11-.28-.28q0-.22,2.44-2.55c5.77-6.27,8.49-10.54,11.71-18.42,.39-1.11,.61-1.83,.67-1.94,.17-.33,.22-.61,.22-.78,0-.28-.39-.72-.94-1.05-.22-.17-.28-.17-1.44-.67-.5-.22-.5-.28-.89-.44,1.05-1.28,2.72-2.22,3.88-2.22s3.61,.94,6.1,2.44c2.72,1.61,3.77,2.66,3.77,3.83,0,.83-.5,1.17-2.66,2-4.22,6.05-4.99,7.05-7.27,9.38" fill="#d9af71"/><path d="M395.5,132.97c3.86,.94,6.07,3.1,6.07,5.83,0,1.79-1.27,3.15-2.96,3.15-.8,0-1.46-.38-1.88-.99q-.33-.52-.85-2.73c-.33-1.88-1.5-3.53-3.62-5.17-.14-.14-.19-.24-.19-.38,0-.19,.14-.33,.38-.33,.42,0,1.65,.23,3.06,.61m-5.78,26.9c-.38,.14-.52,.19-.61,.19-.19,0-.33-.14-.33-.28s.14-.33,.52-.52c5.27-3.01,8.8-6.02,11.8-10.11,2.02-2.73,3.81-5.92,5.5-9.97,.89-2.21,1.32-3.48,1.32-4.04,0-.47-.75-1.18-2.07-1.88,.42-.71,1.55-1.18,2.82-1.18,.94,0,1.69,.33,3.29,1.51,1.69,1.27,3.15,2.91,3.15,3.62,0,.14-.09,.33-.24,.42-.14,.09-.42,.24-.8,.38-.14,.09-.33,.19-.56,.33-6.44,11.99-11.95,17.21-22.24,20.98l-1.55,.56Zm-1.88-23.98c3.72,1.08,5.83,3.24,5.83,5.93,0,1.83-1.27,3.2-2.96,3.2-.85,0-1.55-.38-1.93-1.03q-.33-.52-.75-2.77c-.28-1.88-1.41-3.67-3.43-5.31-.14-.14-.19-.23-.19-.33,0-.23,.14-.38,.38-.38,.38,0,1.65,.28,3.06,.7" fill="#d9af71"/><path d="M437.42,133.47c-3.06,4.03-4.9,5.92-8.25,8.4-2.91,2.18-6.6,4.37-7.28,4.37-.15,0-.29-.15-.29-.29s.1-.29,.49-.63c5.44-5,9.76-12.04,12.72-20.87,.15-.39,.29-.83,.34-.87,.1-.29,.19-.58,.19-.78s-.24-.48-.68-.83q-.1-.05-.83-.49c-.24-.15-.29-.19-.68-.39,.49-.73,1.89-1.31,3.15-1.31,2.33,0,8.01,3.79,8.01,5.34,0,.53-.29,.78-2.13,1.6-.24,.34-.73,1.12-1.55,2.33l-.44,.63-.1,.1h.29l3.49-.34,4.03-.39,1.26-.14,1.8-1.84q1.55,.92,4.37,2.96c2.04,1.5,2.43,1.89,2.43,2.52,0,.34-.19,.68-.48,.87q-.1,0-.97,.39c-.29,.1-.34,.1-.68,.29l-.44,.73q-.19,.34-3.01,5.15c-4.61,7.77-11.16,14.08-18.49,17.86-3.01,1.5-8.45,3.64-9.32,3.64-.19,0-.34-.15-.34-.29,0-.24,.19-.44,1.02-.87,8.74-4.66,16.79-14.32,22.67-26.99l-.58,.05c-2.09,.24-3.4,.44-3.93,.48l-2.14,.39-2.28,.39-.68,.1-.68-1.26Z" fill="#d9af71"/><path d="M453.55,156.64h-1.59v-1.73h1.58c.5,0,.96,.14,.96,.85,0,.58-.34,.88-.95,.88m1,.39v-.02c.18-.06,.92-.33,.92-1.4,0-.93-.62-1.49-1.83-1.49h-2.64v5.53h.97v-2.28h1.42c.9,0,1.1,.45,1.1,1.46,0,.27,0,.57,.15,.81h1.04c-.21-.22-.3-.81-.3-1.45,0-.88-.49-1.12-.82-1.17" fill="#d9af71"/><path d="M453.09,160.88c-2.19,0-3.96-1.78-3.96-3.96s1.78-3.96,3.96-3.96,3.96,1.78,3.96,3.96-1.77,3.96-3.96,3.96m.01-8.6c-2.57,0-4.65,2.08-4.65,4.65s2.08,4.64,4.65,4.64,4.64-2.08,4.64-4.64-2.08-4.65-4.64-4.65" fill="#d9af71"/><path d="M197.44,103.43s-11.35-.21-12.28-.21c-2.67,0-5.93-2.03-5.93-5.73v-6.06h9.15c2.57,0,3.73,.82,3.73,2.18,0,1.18-1.23,1.74-3.46,1.74h-4.27v2.8h7.9c4.25,0,6.03-1.95,6.03-4.66,0-2.89-1.86-4.85-5.89-4.85h-13.18v-3.98h-6.21v3.98h-3.9v2.79h3.9v7.19c0,7.8,8.9,7.59,8.9,7.59h15.52v-2.79Z" fill="#d9af71"/><path d="M227.07,92.61h-6.64c-.49,.92-9.05,11.15-13.29,9.3-1.27-.55-1.35-1.11-1.35-4.13v-13.02h-5.98v13.4c0,7.21,4.91,7.7,7.26,7.7,5.82,0,7.15-1.24,8.97-2.22,2.39-1.3,9.03-6.65,11.02-11.03" fill="#d9af71"/><path d="M227.87,93.18v2.57h8.24v3.2c0,6.23,3.35,7.18,9.02,7.18h9.57v-2.79s-4.26-.14-5.94-.14c-4.25,0-7.21-.87-7.21-3.82v-3.63h14.27v-2.57h-14.27v-4.54h14.27v-2.79h-27.95v2.79h8.24v4.54h-8.24Z" fill="#d9af71"/><path d="M278.36,85.85h-20.88v2.79h19.01c1.5,0,3.44,.57,3.44,2.64,0,1.32-.84,2.39-3.44,2.39h-10.41s0,3.01,0,4.97c0,2.83-1.33,4.77-3.7,4.77h-4.91v2.79h5.91c4.34,0,8.3-1.46,8.3-7.4,0-1.1,0-2.34,0-2.34h8.3c8.34,0,8.5-10.62-1.62-10.62" fill="#d9af71"/><path d="M282.38,103.63h-1.19v-1.29h1.18c.38,0,.72,.11,.72,.63,0,.44-.25,.66-.71,.66m.75,.29h0c.14-.06,.69-.26,.69-1.06,0-.7-.47-1.12-1.37-1.12h-1.98v4.14h.72v-1.71h1.07c.67,0,.83,.34,.83,1.09,0,.21,0,.43,.11,.62h.78c-.15-.17-.22-.62-.22-1.09,0-.66-.37-.84-.62-.88" fill="#d9af71"/><path d="M282.04,106.8c-1.64,0-2.97-1.33-2.97-2.96s1.33-2.97,2.97-2.97,2.96,1.33,2.96,2.97-1.33,2.96-2.96,2.96m3.48-2.95c0-1.92-1.56-3.48-3.48-3.48s-3.48,1.56-3.48,3.48,1.56,3.47,3.48,3.47,3.48-1.55,3.48-3.47" fill="#d9af71"/><rect x="128.73" y="95.53" width="32.27" height=".99" fill="#d9af71"/><rect x="295.78" y="95.39" width="32.27" height=".99" fill="#d9af71"/><path d="M396.84,168.5v1.67c0,5.79-4.71,10.5-10.5,10.5H84.04c-5.79,0-10.5-4.71-10.5-10.5v-1.67h-2.05v1.67c0,6.92,5.63,12.55,12.55,12.55H386.34c6.92,0,12.55-5.63,12.55-12.55v-1.67h-2.05Z" fill="#d9af71"/></g></svg>