<svg xmlns="http://www.w3.org/2000/svg" width="258" height="87.364" viewBox="0 0 258 87.364">
  <g id="グループ_3119" data-name="グループ 3119" transform="translate(-153 -1996)">
    <path id="パス_3962" data-name="パス 3962" d="M31.5,0h195a31.5,31.5,0,0,1,0,63H31.5a31.5,31.5,0,0,1,0-63Z" transform="translate(153 1996)" fill="#b4903f"/>
    <path id="パス_3962_-_アウトライン" data-name="パス 3962 - アウトライン" d="M31.5,1A30.508,30.508,0,0,0,19.628,59.6,30.308,30.308,0,0,0,31.5,62h195A30.508,30.508,0,0,0,238.372,3.4,30.308,30.308,0,0,0,226.5,1H31.5m0-1h195a31.5,31.5,0,0,1,0,63H31.5a31.5,31.5,0,0,1,0-63Z" transform="translate(153 1996)" fill="#b4903f"/>
    <path id="パス_3961" data-name="パス 3961" d="M26,0A26,26,0,1,1,0,26,26,26,0,0,1,26,0Z" transform="translate(161 2002)" fill="#fff"/>
    <path id="パス_3960" data-name="パス 3960" d="M8.262-17.442V0H2.108V-17.442ZM1.7-24.14a3.347,3.347,0,0,1,.272-1.343,3.527,3.527,0,0,1,.748-1.1,3.527,3.527,0,0,1,1.1-.748,3.347,3.347,0,0,1,1.343-.272,3.347,3.347,0,0,1,1.343.272,3.527,3.527,0,0,1,1.105.748,3.527,3.527,0,0,1,.748,1.1,3.347,3.347,0,0,1,.272,1.343A3.347,3.347,0,0,1,8.364-22.8a3.527,3.527,0,0,1-.748,1.1,3.527,3.527,0,0,1-1.105.748,3.347,3.347,0,0,1-1.343.272,3.347,3.347,0,0,1-1.343-.272,3.527,3.527,0,0,1-1.1-.748,3.527,3.527,0,0,1-.748-1.1A3.347,3.347,0,0,1,1.7-24.14Z" transform="translate(181 2041)" fill="#b4903f"/>
    <path id="パス_3959" data-name="パス 3959" d="M10.746,0,21.491,42.983H0Z" transform="matrix(-0.883, 0.469, -0.469, -0.883, 272.682, 2073.274)" fill="#b4903f"/>
    <path id="パス_3957" data-name="パス 3957" d="M12.214-17.329c.713-.31.961-.5.961-.713,0-.4-.62-.527-4.03-.744.093,1.581.093,1.7.093,2.015v3.038c-.031,1.457-.031,1.457-.031,1.674v.651a2.436,2.436,0,0,0,.155.775A53.556,53.556,0,0,1,1.8-7.037l.155.31a38.208,38.208,0,0,0,8.525-2.728c.961.31,1.612.341,5.611.341s5.828-.062,6.541-.279c.868-.217,1.426-.775,1.426-1.4,0-.682-.31-1.023-1.178-1.333-.341-.155-.434-.248-.434-.558v-.5l.093-2.976-.31-.031c-1.333,3.379-1.643,3.968-2.108,4.34-.434.341-1.333.434-5.673.434l-.186-.031a34.444,34.444,0,0,0,8.06-6.448h.062c.868,0,1.147-.093,1.147-.372,0-.093-.062-.155-.217-.279a30.951,30.951,0,0,0-3.286-1.736,18.144,18.144,0,0,1-3.906,4.681,34.171,34.171,0,0,1-3.906,3.162Zm-6.2-4.929a8.022,8.022,0,0,0-.4-1.984H5.332c-.248,2.17-.868,3.193-2.418,3.968-.9.465-.9.465-1.085.713a2.03,2.03,0,0,0-.31,1.085,3.192,3.192,0,0,0,.341,1.4,1.309,1.309,0,0,0,1.209.806c1.674,0,3.007-2.232,3.007-5.053v-.279H24.862a20.084,20.084,0,0,1-1.116,2.79l.31.186a38.588,38.588,0,0,0,3.937-1.8c1.457-.062,2.077-.248,2.077-.651,0-.155-.093-.31-.372-.527-1.426-1.147-1.86-1.488-3.317-2.542a20.419,20.419,0,0,0-1.8,1.891H17.3v-2.17c.9-.217,1.3-.434,1.3-.744,0-.527-.9-.682-4.96-.961.062.93.093,1.3.093,2.232v1.643Zm7.9,22.227H8.494V-5.177c.837-.217,1.24-.465,1.24-.744,0-.155-.124-.248-.372-.372-.4-.155-.62-.155-4.309-.434A15.875,15.875,0,0,1,5.177-4.65c0,2.542-.031,4.526-.124,6.386,0,.651.186.806,1.085.806.651,0,1.488-.062,1.767-.093.434-.093.558-.248.589-.713V.62H22.661V1.953c0,.527.155.62,1.147.62a6.9,6.9,0,0,0,2.015-.217.635.635,0,0,0,.279-.62V1.612c-.093-1.86-.124-2.6-.124-4l.031-2.852c.868-.248,1.178-.465,1.178-.806,0-.465-.589-.558-4.588-.837.062,1.054.062,1.55.062,2.387V-.031H17.267V-6.665c.9-.31,1.147-.465,1.147-.744,0-.186-.155-.341-.465-.4a36.176,36.176,0,0,0-4.216-.434,13.6,13.6,0,0,1,.186,2.7ZM7.161-17.825a5.481,5.481,0,0,1-3.286,3.689c-.961.5-1.178.806-1.178,1.581,0,1.085.713,2.139,1.488,2.139a2.908,2.908,0,0,0,2.108-1.426,9.853,9.853,0,0,0,1.24-4.96c0-.217,0-.589-.031-1.023Zm16.089.682a15.8,15.8,0,0,1,2.883,5.425,3.761,3.761,0,0,0,.341.9.653.653,0,0,0,.558.341,2.58,2.58,0,0,0,2.108-2.6c0-.837-.372-1.364-1.519-2.17a19.2,19.2,0,0,0-4.247-2.108ZM11.873-20.677a9.425,9.425,0,0,1,2.48,3.069c.527,1.054.62,1.178.992,1.178.806,0,1.643-1.085,1.643-2.139a1.441,1.441,0,0,0-1.054-1.488,13.633,13.633,0,0,0-3.906-.868Zm39,2.263H60.14c.217,0,.372-.062.372-.186,0-.093-.062-.186-.186-.31-1.426-1.085-1.891-1.395-3.317-2.356-.93.93-1.209,1.209-2.139,2.2H34.875a9.549,9.549,0,0,1-2.263-.248l.186,1.054a11.5,11.5,0,0,1,2.077-.155H38.5a24.7,24.7,0,0,1-6.6,7.347l.186.31a21.107,21.107,0,0,0,5.7-3.193,1.592,1.592,0,0,1,.31.961,1.162,1.162,0,0,1-.031.341,11.448,11.448,0,0,0-.124,1.24,1.08,1.08,0,0,0,.961,1.116,27.414,27.414,0,0,1-7.068,3.813l.124.341a26.663,26.663,0,0,0,7.595-2.294A19.1,19.1,0,0,0,46.717-14.6c.93-.31.992-.341.992-.558,0-.155-.093-.248-.279-.434A23.436,23.436,0,0,0,45.1-17.3a15.885,15.885,0,0,0-1.519,1.364h-3.5a17.868,17.868,0,0,0,2.108-2.48h5.58v8.153c.062.9.279,1.333.868,1.581.651.279,1.364.31,5.518.31a19,19,0,0,0,4.991-.341c.806-.279,1.178-.713,1.178-1.364a1.309,1.309,0,0,0-1.147-1.333c-.31-.062-.4-.155-.4-.372l.031-.5.124-2.17-.279-.062c-1.519,3.41-1.581,3.441-2.945,3.472-.279,0-1.116,0-2.356.031h-.31a8.011,8.011,0,0,1-2.046-.124c-.093-.062-.124-.217-.124-.558v-1.674A32.233,32.233,0,0,0,57.443-15.1c.5.062.992.093,1.116.093.341,0,.558-.124.558-.31,0-.248-.4-.589-1.767-1.426-.341-.217-.9-.589-1.581-1.023a21.855,21.855,0,0,1-4.9,3.627Zm-7.285,3.131a19.432,19.432,0,0,1-2.914,3.5v-.341c0-.775-.713-1.364-2.573-2.046.527-.4.837-.713,1.3-1.116Zm-.248-7.936v-1.519c.9-.248,1.209-.434,1.209-.713,0-.372-.186-.4-4.588-.744a15.132,15.132,0,0,1,.124,1.984v.992H34.5a11.4,11.4,0,0,1-2.2-.248l.186,1.085a11.335,11.335,0,0,1,2.015-.186h5.549c0,.93,0,1.085-.031,2.015,0,.4.155.465,1.116.465,1.86,0,2.2-.093,2.232-.651-.031-1.488-.031-1.488-.031-1.829h5.456c-.031.992-.031,1.085-.062,1.984,0,.465.155.527,1.271.527,1.674,0,2.046-.124,2.077-.713-.031-.992-.031-1.24-.031-1.8h8.742c.217,0,.372-.093.372-.217q0-.093-.186-.279c-1.457-1.147-1.922-1.457-3.41-2.511-.93.992-1.209,1.3-2.2,2.356H52.049v-1.488c.992-.248,1.271-.4,1.271-.682,0-.4-.155-.434-4.65-.775a14.961,14.961,0,0,1,.124,2.077v.868ZM34.72-5.022a8.89,8.89,0,0,1-2.263-.248l.186,1.085a8.779,8.779,0,0,1,2.077-.186h5.735a7.021,7.021,0,0,1-1.4,3.193C37.758.4,35.9,1.488,32.674,2.573l.093.31c3.937-.4,6.076-1.054,8-2.356a7.187,7.187,0,0,0,2.976-4.9H48.67v1.736c0,.961,0,1.054-.062,4.619,0,.558.124.62,1.24.62,1.829,0,2.263-.155,2.263-.775-.124-3.72-.124-4.092-.124-4.681V-4.371h8.525c.248,0,.4-.093.4-.217,0-.093-.062-.186-.186-.31a40.084,40.084,0,0,0-3.162-2.511c-.961.961-1.271,1.3-2.2,2.387H52.018v-1.3c.837-.31,1.054-.434,1.054-.651,0-.4-.093-.4-4.557-.806a17.311,17.311,0,0,1,.155,2.759H43.834c.062-.558.093-.775.155-1.426.93-.31,1.178-.465,1.178-.682,0-.31-.5-.434-2.449-.589-.5-.031-1.209-.124-2.17-.217a11.1,11.1,0,0,1,.093,1.3,14.9,14.9,0,0,1-.093,1.612ZM70.711-24.769c1.426.248,2.108.62,2.387,1.333.217.527.279,1.147.4,4.123.124,3.937.279,4.836,1.023,5.549a2.606,2.606,0,0,0,1.674.651.605.605,0,0,0,.217-.031c-4.805,2.511-7.285,5.3-7.285,8.277A5.3,5.3,0,0,0,72.571.093a16.341,16.341,0,0,0,6.231.9A36.717,36.717,0,0,0,84.971.527C86.087.248,86.614-.186,86.614-.9a1.832,1.832,0,0,0-.589-1.4,2.883,2.883,0,0,0-2.17-1.023,3.014,3.014,0,0,0-1.054.186,27.909,27.909,0,0,1-7.347,1.085C72.509-2.046,70.9-3.1,70.9-5.022c0-1.3.682-2.418,2.2-3.534a21.733,21.733,0,0,1,7.812-3.286c2.759-.651,2.759-.651,3.1-.837a1.3,1.3,0,0,0,.837-1.3A2.026,2.026,0,0,0,82.8-15.934a6.392,6.392,0,0,0-2.7.868,8.083,8.083,0,0,1-2.821,1.023c-.682,0-1.023-.465-1.023-1.457a18,18,0,0,1,.93-6.479c.341-.713.341-.713.341-1.054,0-.713-.558-1.271-1.767-1.7a9.086,9.086,0,0,0-3.162-.62A2.263,2.263,0,0,0,70.711-24.769Zm32.364,12.555c-.837,1.674-1.085,2.17-1.829,3.751-.744,1.612-.961,2.046-1.488,3.038A10.911,10.911,0,0,1,99.417-8.4a19.625,19.625,0,0,1,1.333-6.82,21.67,21.67,0,0,1,1.209-2.387,2.763,2.763,0,0,0,.558-1.612,5.635,5.635,0,0,0-1.674-3.255,4.851,4.851,0,0,0-2.759-1.8,5.259,5.259,0,0,1,.961,3.038,14.43,14.43,0,0,1-.527,3.255C97.4-12.772,97.092-10.54,97.092-7.5A17.88,17.88,0,0,0,98.177-.93c.5,1.085,1.116,1.612,1.86,1.612A1.5,1.5,0,0,0,101.525-.93c0-.217-.031-.527-.062-.837-.031-.5-.062-.775-.062-1.023a26.6,26.6,0,0,1,.992-5.394l1.023-3.937Zm2.263-5.146a7.794,7.794,0,0,0,1.953,2.077,5.955,5.955,0,0,0,3.72,1.054,15.344,15.344,0,0,0,2.17-.186c.062,1.767.124,6.727.124,7.1-.62-.031-.992-.062-1.426-.062-3.751,0-6.293,1.674-6.293,4.123,0,2.2,2.046,3.658,5.115,3.658,3.441,0,5.487-1.457,5.487-3.844a2.223,2.223,0,0,0-.031-.4,9.922,9.922,0,0,1,2.48,1.891c1.3,1.3,1.395,1.4,1.767,1.4.651,0,1.085-.744,1.085-1.86a2.977,2.977,0,0,0-1.333-2.542A11.555,11.555,0,0,0,116.1-6.82a51.032,51.032,0,0,1-.434-6.789v-1.178c4-.868,5.921-1.705,5.921-2.635a1.159,1.159,0,0,0-.31-.775,3.105,3.105,0,0,0-1.953-.744,1.026,1.026,0,0,0-.744.31,6.973,6.973,0,0,1-2.759,1.364,8.485,8.485,0,0,1,.744-3.534,2.324,2.324,0,0,0,.31-1.054c0-.558-.4-1.023-1.209-1.364a7.7,7.7,0,0,0-3.286-.682,2.679,2.679,0,0,0-2.046.651c1.333.124,2.17.558,2.48,1.364.248.589.31,1.488.341,5.363a15.632,15.632,0,0,1-3.6.434,5.5,5.5,0,0,1-3.968-1.488ZM113.15-4.9c.031,0,.031.031.031.062,0,.217-.031.744-.062.961a2.241,2.241,0,0,1-.62,1.333,4.131,4.131,0,0,1-2.945.93c-1.8,0-2.976-.682-2.976-1.674,0-1.24,1.457-2.015,3.782-2.015A8.164,8.164,0,0,1,113.15-4.9Z" transform="translate(237 2039)" fill="#fff"/>
  </g>
</svg>
