<?xml version="1.0" encoding="UTF-8"?><svg xmlns="http://www.w3.org/2000/svg" viewBox="0 0 54.35 176.44"><defs><style>.d{fill:#42210b;}</style></defs><g id="a"/><g id="b"><g id="c"><g><path class="d" d="M30.64,22.75c3.17-.39,5.33-.99,7.85-2.24,1.46-.73,2.39-1.4,3.56-2.6-2.24-.91-2.91-1.12-5.3-1.69-.34,.55-.52,.83-1.04,1.61-.16,.16-.26,.21-.36,.21h-.05c-.26-.05-.49-.08-.65-.1-.7-.05-.78-.1-.81-.36,1.51-2.26,2.13-3.3,3.69-6.32h-5.23c-.39,0-1.22,.08-2.03,.21l-.26-1.14c1.12,.26,1.64,.34,2.26,.34h5.54c1.07-2.13,1.66-3.64,2.24-5.56q2.55,.73,2.65,.78c.13,.08,.18,.13,.18,.23,0,.26-.16,.31-1.35,.55-.73,1.77-1.04,2.42-1.82,4h10.24c.65-.86,.86-1.09,1.51-1.92,1.09,.94,1.46,1.25,2.57,2.26,.05,.05,.08,.1,.08,.13,0,.08-.1,.13-.26,.13h-6.08c-.7,2.29-1.04,3.09-1.85,4.45-.44,.73-.83,1.25-1.38,1.92,2.55,.86,4.73,1.82,6.08,2.6,.81,.49,1.04,.94,1.04,1.95,0,.52-.18,1.04-.39,1.04q-.16,0-.83-.55c-.75-.62-3.3-2.29-4.45-2.91-.75-.42-1.22-.65-2.34-1.14-1.22,1.25-2.44,2.05-4.37,2.89-2.81,1.2-4.94,1.61-8.61,1.69l-.05-.44ZM41.14,3.46V1.95c0-1.01,0-1.2-.05-1.95,2.29,.29,2.94,.44,2.94,.7,0,.18-.31,.36-1.07,.57V3.46h7.59c.47-.62,.6-.81,1.12-1.43,1.14,.81,1.48,1.07,2.5,2.03,.13,.13,.18,.21,.18,.29,0,.18-.23,.23-1.69,.44-1.46,1.25-1.82,1.53-3.28,2.68l-.26-.18q1.17-2.24,1.56-3.22h-17.21c-.18,1.27-.44,2.18-.83,2.96-.39,.75-1.2,1.59-1.56,1.59-.44,0-.94-.96-.94-1.77,0-.34,.1-.49,.49-.73,.55-.34,1.09-.88,1.51-1.48,.42-.62,.44-.68,1.14-3.2h.31c0,1.07-.03,1.38-.08,2.03h7.62Zm-1.74,7.8c-.78,1.56-1.69,3.3-2.37,4.47q.57,.13,2,.42c1.22,.23,2.16,.47,3.77,.94,1.48-1.85,2.34-3.46,3.02-5.82h-6.42Z"/><path class="d" d="M34.33,37.91c.03,.68,.03,.88,.03,1.33,0,2.57-.55,5.23-1.43,6.84-.52,.99-1.17,1.64-1.59,1.64s-.78-.88-.78-1.85c0-.44,.08-.57,.68-1.12,.7-.68,1.43-1.85,1.87-3.15,.42-1.14,.6-2.05,.78-3.69h.44Zm2.83-.21c0-1.09-.05-2.47-.13-3.59,2.81,.42,3.12,.49,3.12,.78,0,.23-.03,.23-1.14,.65v13.52c0,.42,.16,.49,1.04,.55,.23,0,2.76,.03,3.64,.03,2.11,0,2.57-.1,2.83-.62,.29-.55,.65-1.9,1.59-5.88l.34,.03-.34,5.67v.08c0,.26,.18,.42,.52,.47,.52,.08,.78,.34,.78,.7,0,.44-.39,.75-1.17,.91-.6,.13-2.96,.26-4.78,.26-4.21,0-5.02-.03-5.49-.21-.62-.21-.86-.52-.91-1.3,.1-2.6,.1-2.81,.1-3.74v-8.29Zm.7-8.4c3.09,.75,4.52,1.3,6.21,2.34,.42,.26,.62,.47,.75,.78,.13,.34,.21,.81,.21,1.17,0,.65-.23,1.17-.52,1.17-.16,0-.34-.13-.73-.57-1.56-1.77-3.72-3.35-6.11-4.52l.18-.36Zm11.08,8.4c3.04,2.94,4.6,5.2,4.6,6.63,0,.47-.21,1.22-.52,1.85-.26,.49-.49,.73-.73,.73-.26,0-.42-.26-.57-.96-.75-3.3-1.61-5.54-3.12-8.03l.34-.21Z"/><path class="d" d="M41.87,76.49c2.81-.83,4.6-1.9,6.08-3.61,1.53-1.74,2.31-3.87,2.31-6.27,0-2.52-1.01-4.52-2.94-5.75-1.14-.75-2.86-1.2-4.5-1.2-.31,0-.49,0-.91,.05,.62,.91,.81,1.4,.81,2.16,0,2.03-1.46,5.82-3.43,9-1.64,2.6-2.91,3.88-3.87,3.88-.44,0-.86-.21-1.14-.55-.23-.31-.29-.42-.73-1.66-.23-.68-.39-.99-1.14-2.44-.42-.83-.6-1.53-.6-2.37,0-1.64,.88-3.56,2.34-5.15,2.11-2.24,5.54-3.64,8.94-3.64,2.63,0,5.04,.86,6.71,2.39s2.5,3.59,2.5,6.11c0,3.25-1.9,6.14-5.17,7.88-1.51,.81-2.86,1.22-5.07,1.61l-.18-.44Zm-8.55-8.09c0,1.25,.39,2.52,1.04,3.43,.36,.47,.7,.75,.99,.75,.57,0,1.82-1.4,3.09-3.43,1.92-3.07,3.3-6.42,3.3-8.03,0-.39-.08-.65-.36-1.3-4.52,.81-8.06,4.58-8.06,8.58Z"/><path class="d" d="M12.14,10.82c1.3,.1,2.08,.31,2.91,.73,1.48,.78,2.34,2.24,2.34,4.03,0,3.2-2.57,5.33-6.45,5.33-3.38,0-5.9-1.61-5.9-3.77,0-.83,.47-1.22,1.48-1.22,.75,0,1.04,.26,1.09,.99,.05,1.27,.18,1.77,.65,2.34,.52,.62,1.43,.96,2.57,.96,2.57,0,4.08-1.72,4.08-4.65,0-1.82-.62-3.17-1.74-3.77-.75-.39-1.85-.62-3.02-.62h-1.14v-.83h1.14c1.04,0,2.08-.29,2.83-.78,.96-.65,1.48-1.82,1.48-3.3,0-.99-.23-1.9-.65-2.57-.55-.88-1.4-1.3-2.7-1.3-1.95,0-2.94,1.01-3.07,3.07-.05,.99-.29,1.25-1.2,1.25-.96,0-1.38-.29-1.38-.99,0-2.21,2.57-4.03,5.67-4.03,3.3,0,5.72,1.92,5.72,4.52,0,1.46-.81,2.76-2.13,3.54-.73,.42-1.43,.62-2.6,.86v.23Z"/><path class="d" d="M8.79,44.8c2.39-.6,4.11-1.25,5.75-2.18,3.04-1.72,4.78-4.26,4.78-6.99s-1.92-4.37-4.76-4.37c-3.04,0-7.02,1.66-10.45,4.34-.42,.34-.68,.44-.99,.44-1.22,0-3.12-1.82-3.12-2.99,0-.18,.05-.34,.21-.65,.26,.55,.42,.73,.73,.96,.39,.29,.7,.42,1.07,.42,.68,0,1.66-.29,3.15-.94,4.11-1.79,6.81-2.5,9.52-2.5,3.95,0,6.66,2.31,6.66,5.72,0,3.22-2.18,6.01-5.98,7.62-1.98,.83-3.87,1.27-6.42,1.51l-.13-.39Z"/><path class="d" d="M10.87,71.01c2.81-.83,4.6-1.9,6.08-3.61,1.53-1.74,2.31-3.87,2.31-6.27,0-2.52-1.01-4.52-2.94-5.75-1.14-.75-2.86-1.2-4.5-1.2-.31,0-.49,0-.91,.05,.62,.91,.81,1.4,.81,2.16,0,2.03-1.46,5.82-3.43,9-1.64,2.6-2.91,3.88-3.87,3.88-.44,0-.86-.21-1.14-.55-.23-.31-.29-.42-.73-1.66-.23-.68-.39-.99-1.14-2.44-.42-.83-.6-1.53-.6-2.37,0-1.64,.88-3.56,2.34-5.15,2.11-2.24,5.54-3.64,8.94-3.64,2.63,0,5.04,.86,6.71,2.39s2.5,3.59,2.5,6.11c0,3.25-1.9,6.14-5.17,7.88-1.51,.81-2.86,1.22-5.07,1.61l-.18-.44ZM2.31,62.92c0,1.25,.39,2.52,1.04,3.43,.36,.47,.7,.75,.99,.75,.57,0,1.82-1.4,3.09-3.43,1.92-3.07,3.3-6.42,3.3-8.03,0-.39-.08-.65-.36-1.3-4.52,.81-8.06,4.58-8.06,8.58Z"/><path class="d" d="M5.56,89.29c-.18,2.26-.68,4.08-1.56,5.67-.62,1.09-1.2,1.64-1.79,1.64-.47,0-.78-.62-.78-1.51,0-.52,.13-.75,.65-1.04,1.35-.75,2.73-2.99,3.02-4.84l.47,.08Zm-2.81-4.78c.88,1.12,1.53,1.4,3.04,1.4,.81,0,2.21-.13,4.47-.42v-.62c0-2.44-.05-3.02-.36-3.54-.26-.47-.65-.73-1.74-1.12,.23-.21,.44-.29,.78-.29,.52,0,1.59,.23,2.26,.52,.88,.36,1.27,.73,1.27,1.17,0,.26-.05,.36-.29,.81-.31,.6-.39,1.09-.52,2.83,1.95-.26,4.19-.91,4.58-1.3,.21-.13,.31-.18,.49-.18h.05c.42,.03,1.09,.23,1.59,.52,.49,.26,.73,.52,.73,.78,0,.34-.31,.49-1.2,.6-1.07,.1-1.14,.13-3.3,.42-1.61,.23-2.6,.36-2.96,.42-.03,1.35-.03,1.59-.03,2.21,0,3.04,.08,4.91,.29,6.99,.03,.29,.03,.55,.03,.86,0,.83-.1,1.35-.44,2.08-.29,.68-.6,.96-1.04,.96-.34,0-.55-.23-.75-.83-.18-.57-.52-.94-1.43-1.53-.49-.34-1.04-.65-1.59-1.01l-.57-.34-.47-.31,.13-.26c1.87,.62,2.52,.81,4.34,1.14,.1-1.69,.13-2.7,.18-9.8-1.25,.16-3.25,.31-4.08,.31-2,0-2.94-.57-3.8-2.26l.34-.21Zm12.56,4.32c1.92,1.2,3.2,2.24,4.06,3.28,.62,.75,.81,1.2,.81,1.92,0,1.09-.47,2.05-.96,2.05-.31,0-.36-.08-.81-1.38-.73-2.16-1.92-4.13-3.35-5.59l.26-.29Zm5.64-8.97c0,1.59-1.27,2.86-2.83,2.86s-2.86-1.27-2.86-2.86,1.27-2.83,2.86-2.83,2.83,1.27,2.83,2.83Zm-4.84,0c0,1.09,.91,2,2,2s1.98-.88,1.98-2-.88-1.98-1.98-1.98-2,.88-2,1.98Z"/><path class="d" d="M.6,119.45c3.25-1.74,6.73-4.37,9.78-7.38,2.57-2.52,4.24-4.63,4.24-5.38,0-.49-.42-.91-1.46-1.48,.29-.1,.34-.1,.52-.1,.75,0,1.4,.23,2.24,.78,.88,.6,1.35,1.2,1.35,1.69,0,.23-.03,.29-1.04,1.14q-.26,.21-2.11,1.98c-1.82,1.74-1.98,1.87-3.09,2.81,1.01,.75,1.46,1.14,1.59,1.46,.1,.26,.16,1.48,.18,3.82,.03,1.82,.08,3.48,.13,4.97,0,.57,.03,1.33,.03,1.48,0,.91-.18,1.3-.6,1.3-.6,0-1.77-1.43-1.77-2.18q0-.18,.16-.68c.23-.65,.47-3.87,.47-6.4,0-1.27-.05-2.05-.16-2.47-.08-.26-.18-.39-.57-.81-1.82,1.46-3.69,2.78-4.99,3.56-1.46,.86-3.33,1.77-4.68,2.26l-.21-.36Z"/><path class="d" d="M2.76,132.68c2.5,.62,4,1.22,5.02,1.95,.6,.42,.88,.99,.88,1.77,0,.86-.29,1.46-.73,1.46-.29,0-.42-.13-1.12-1.04-1.27-1.69-2.21-2.55-4.24-3.82l.18-.31Zm18.49,1.48c-1.3,2.44-2.89,4.5-5.46,6.99-2.39,2.31-4,3.61-7.31,5.93-1.22,.86-1.35,.96-1.53,1.2-.42,.49-.57,.62-.91,.62-1.07,0-3.04-2.5-3.04-3.82,0-.16,.03-.26,.13-.52,.52,.78,.57,.83,.94,1.14,.39,.36,.75,.55,1.04,.55,.44,0,1.25-.34,2.52-1.09,2.91-1.69,3.93-2.42,6.21-4.29,3.2-2.6,4.76-4.19,6.99-6.94l.42,.23Z"/><path class="d" d="M6.86,155.2c.55,0,1.12,.13,1.92,.44,1.09,.42,1.72,.94,1.72,1.43q0,.18-.16,.57c-.31,.7-.47,2.65-.47,5.67,1.95,.18,4.52,.81,6.06,1.46,1.17,.55,1.61,1.07,1.61,2,0,.75-.23,1.2-.62,1.2-.26,0-.29,0-.96-.62-1.72-1.59-3.72-2.68-6.11-3.38,.03,1.64,.03,2.44,.03,3.22v3.8q0,.78,.05,2.96c.03,.55,.03,.99,.03,1.38,0,.49-.03,.73-.13,.88-.08,.13-.29,.23-.47,.23-.62,0-1.66-1.4-1.66-2.26,0-.26,.03-.42,.13-.73,.39-1.25,.55-4.63,.55-11.26,0-1.87-.08-3.77-.18-4.47-.16-1.17-.73-1.82-1.98-2.31,.31-.18,.42-.21,.65-.21Z"/></g></g></g></svg>