<?xml version="1.0" encoding="UTF-8"?><svg xmlns="http://www.w3.org/2000/svg" viewBox="0 0 135.28 47.76"><defs><style>.e{fill:#42210b;}.f{isolation:isolate;}</style></defs><g id="a"/><g id="b"><g id="c"><g><path class="e" d="M131.47,42.62H0V0H131.47V42.62ZM1,41.62H130.47V1H1V41.62Z"/><path class="e" d="M135.28,47.76H3.81V5.14H135.28V47.76ZM4.81,46.76H134.28V6.14H4.81V46.76Z"/><g class="f"><path class="e" d="M36.54,23.99h-4.65v-1.12h4.65v1.12Zm-.44,7.39h-2.48v.46h-1.2v-4.05h3.68v3.59Zm-3.65-6.86h3.66v1.08h-3.66v-1.08Zm0,1.63h3.66v1.06h-3.66v-1.06Zm3.64-3.8h-3.59v-1.07h3.59v1.07Zm-2.47,6.56v1.37h1.26v-1.37h-1.26Zm9.4,.38h-2.59v2.72h-1.39v-2.72h-2.65v-1.28h2.65v-1.2h-2.03v-1.25h2.03v-1.13h-2.27v-1.28h1.08c-.14-.54-.43-1.22-.73-1.76l1.14-.43c.38,.62,.72,1.42,.86,1.96l-.57,.23h2.32l-.54-.18c.29-.57,.64-1.45,.82-2.08l1.38,.39c-.33,.68-.69,1.37-.99,1.87h1.28v1.28h-2.4v1.13h2.15v1.25h-2.15v1.2h2.59v1.28Z"/><path class="e" d="M48.71,23.13c-.05,1.28-.14,3.95-.14,5.42,0,1.2,.71,1.59,1.64,1.59,1.96,0,3.21-1.13,4.07-2.42l1.08,1.31c-.76,1.14-2.45,2.73-5.16,2.73-1.95,0-3.21-.86-3.21-2.89,0-1.59,.12-4.72,.12-5.74,0-.56-.05-1.13-.15-1.6l1.91,.02c-.07,.5-.13,1.11-.16,1.58Z"/><path class="e" d="M63.97,23.22c-.77,.62-2.34,1.83-3.14,2.51-.63,.55-.62,.68,.02,1.24,.89,.75,3.15,2.53,4.36,3.71l-1.39,1.27c-.33-.37-.68-.75-1.03-1.11-.72-.75-2.47-2.23-3.55-3.16-1.19-1.01-1.09-1.64,.09-2.64,.94-.76,2.57-2.08,3.36-2.85,.34-.34,.73-.72,.92-1.01l1.39,1.22c-.37,.29-.76,.59-1.03,.82Z"/><path class="e" d="M71.12,22.86c-.18,.8-.57,3.41-.57,4.6,0,.24,.01,.54,.05,.77,.16-.42,.36-.82,.54-1.22l.73,.59c-.33,.98-.71,2.19-.86,2.83-.04,.17-.06,.43-.06,.56,0,.12,.01,.32,.02,.49l-1.34,.11c-.25-.83-.48-2.19-.48-3.8,0-1.79,.36-4.04,.49-4.96,.05-.33,.11-.78,.12-1.17l1.64,.14c-.09,.24-.24,.84-.27,1.06Zm6-.42c-.01,.26-.02,.7-.04,1.22,.65-.06,1.27-.16,1.84-.27v1.49c-.57,.08-1.19,.15-1.84,.2,.02,1.15,.08,2.1,.13,2.91,.99,.4,1.74,1.01,2.31,1.53l-.82,1.25c-.5-.46-.97-.88-1.45-1.2-.07,1.14-.71,1.95-2.32,1.95s-2.66-.69-2.66-1.94,1.02-2.03,2.64-2.03c.27,0,.54,.01,.77,.05-.02-.74-.07-1.6-.08-2.45-.29,.01-.57,.01-.84,.01-.7,0-1.38-.02-2.08-.07v-1.41c.68,.07,1.37,.11,2.08,.11,.27,0,.56,0,.83-.01,0-.58-.01-1.07-.01-1.32,0-.18-.04-.55-.08-.78h1.7c-.04,.23-.06,.51-.07,.77Zm-2.35,7.68c.72,0,.97-.38,.97-1.08v-.21c-.31-.08-.63-.13-.95-.13-.68,0-1.13,.29-1.13,.74,0,.49,.48,.69,1.11,.69Z"/><path class="e" d="M84.08,28.57c0,.76,.72,1.31,2.44,1.31,1.6,0,3.13-.18,4.17-.47v1.68c-1.02,.25-2.45,.4-4.11,.4-2.72,0-4.09-.92-4.09-2.54,0-.69,.14-1.27,.24-1.71l1.56,.14c-.12,.43-.2,.8-.2,1.2Zm2.44-6.1c1.18,0,2.53-.07,3.45-.17v1.58c-.83,.07-2.31,.14-3.44,.14-1.25,0-2.28-.05-3.25-.13v-1.57c.88,.1,1.99,.14,3.23,.14Z"/><path class="e" d="M97.75,22.71c-.02,.11-.05,.24-.07,.37,1.36-.07,2.96-.25,4.4-.56l.02,1.41c-1.24,.2-3.13,.43-4.72,.51-.17,.72-.36,1.49-.54,2.07,.96-.54,1.89-.75,2.95-.75,1.92,0,3.2,1.02,3.2,2.54,0,2.67-2.58,3.64-6.42,3.22l-.42-1.53c2.6,.43,5.23,.11,5.23-1.64,0-.71-.61-1.31-1.77-1.31-1.37,0-2.58,.49-3.29,1.39-.13,.17-.21,.32-.33,.52l-1.4-.5c.57-1.11,1.05-2.69,1.36-3.99-.75-.01-1.45-.05-2.06-.11v-1.47c.71,.12,1.6,.21,2.33,.23,.02-.18,.05-.34,.07-.49,.07-.51,.08-.81,.06-1.2l1.69,.07c-.13,.42-.2,.82-.29,1.21Z"/><path class="e" d="M108.28,26.58c1.08-.79,2.26-1.13,3.51-1.13,2.08,0,3.29,1.28,3.29,2.72,0,2.16-1.71,3.83-6.66,3.41l-.45-1.56c3.57,.49,5.46-.38,5.46-1.89,0-.77-.74-1.34-1.77-1.34-1.34,0-2.55,.5-3.3,1.4-.21,.26-.33,.45-.44,.69l-1.37-.34c.24-1.17,.51-3.5,.59-4.97l1.59,.23c-.15,.65-.37,2.1-.45,2.78Zm5.13-4.24l-.36,1.45c-1.2-.15-3.85-.71-4.78-.95l.38-1.43c1.13,.36,3.72,.81,4.75,.93Z"/></g><path id="d" class="e" d="M22.95,26.33l-5.2,2.6v-5.2l5.2,2.6Z"/></g></g></g></svg>