<?xml version="1.0" encoding="UTF-8"?><svg xmlns="http://www.w3.org/2000/svg" viewBox="0 0 151 41.5"><defs><style>.d{fill:#42210b;}.e{isolation:isolate;}</style></defs><g id="a"/><g id="b"><g id="c"><g><g class="e"><path class="d" d="M34.8,18.47c.92-.29,3.34-1.14,5.08-1.14,2.15,0,3.84,1.24,3.84,3.44,0,2.7-2.57,4.42-6.75,4.64l-.69-1.58c3.22-.08,5.74-1.01,5.74-3.08,0-1.12-.77-1.97-2.2-1.97-1.75,0-4.56,1.19-5.8,1.72l-.68-1.66c.44-.07,1.03-.24,1.46-.36Z"/><path class="d" d="M47.87,18.64c.9-.29,3.32-1.13,5.08-1.13,2.14,0,3.83,1.24,3.83,3.44,0,2.69-2.57,4.41-6.75,4.62l-.69-1.58c3.21-.06,5.74-1,5.74-3.08,0-1.12-.76-1.96-2.2-1.96-1.76,0-4.56,1.18-5.8,1.72l-.68-1.66c.44-.08,1.03-.24,1.47-.37Zm8.19-1.22l-.95,.42c-.25-.49-.62-1.2-.94-1.66l.95-.38c.3,.44,.71,1.19,.94,1.63Zm1.43-.55l-.95,.4c-.24-.5-.63-1.19-.95-1.64l.94-.38c.31,.44,.75,1.2,.96,1.62Z"/><path class="d" d="M64.87,19.4c-.06-.14-.11-.29-.15-.42-.1-.27-.17-.5-.24-.7-1.12,.06-2.51,.04-4.01-.11l-.08-1.37c1.41,.17,2.63,.21,3.72,.18-.12-.38-.24-.76-.38-1.18l1.59-.18c.06,.43,.13,.84,.21,1.25,.82-.11,1.58-.27,2.34-.51l.19,1.37c-.65,.18-1.4,.33-2.19,.44,.06,.19,.12,.38,.18,.56,.06,.17,.13,.34,.2,.53,.97-.12,1.69-.32,2.27-.47l.24,1.4c-.55,.14-1.19,.27-1.9,.37,.2,.38,.4,.75,.62,1.06,.15,.23,.32,.4,.53,.61l-.73,1.09c-.67-.13-1.95-.29-2.82-.38l.12-1.13c.5,.05,1.14,.11,1.5,.14-.25-.42-.48-.83-.67-1.24-1.46,.1-3.38,.1-5.17-.01l-.08-1.4c1.77,.17,3.38,.18,4.7,.09Zm-2.94,3.98c0,.88,.83,1.24,2.4,1.24,1.13,0,2.14-.1,2.98-.26l-.08,1.51c-.83,.14-1.91,.23-2.89,.23-2.38,0-3.85-.7-3.88-2.4-.02-.76,.24-1.34,.51-1.91l1.47,.29c-.29,.39-.52,.81-.52,1.32Z"/><path class="d" d="M76.57,17c1.13-.06,2.32-.17,3.36-.34v1.38c-1.14,.17-2.6,.26-3.89,.3-.2,.44-.44,.87-.68,1.21,.31-.14,.95-.24,1.34-.24,.73,0,1.32,.31,1.58,.92,.62-.29,1.12-.49,1.6-.7,.46-.2,.88-.39,1.32-.62l.59,1.38c-.38,.11-1.01,.34-1.41,.5-.53,.21-1.21,.48-1.94,.81,.01,.67,.04,1.54,.05,2.09h-1.43c.04-.36,.05-.93,.06-1.45-.89,.51-1.37,.97-1.37,1.57,0,.65,.56,.83,1.72,.83,1.01,0,2.33-.13,3.38-.33l-.05,1.53c-.78,.11-2.25,.2-3.36,.2-1.87,0-3.25-.45-3.25-1.98s1.43-2.47,2.78-3.17c-.18-.3-.5-.4-.83-.4-.67,0-1.4,.38-1.85,.82-.36,.36-.7,.78-1.11,1.31l-1.27-.95c1.25-1.15,2.09-2.21,2.63-3.28h-.15c-.49,0-1.35-.02-2.01-.07v-1.39c.61,.1,1.49,.14,2.09,.14h.57c.13-.48,.21-.94,.24-1.37l1.57,.13c-.06,.3-.14,.69-.3,1.19Z"/><path class="d" d="M94.08,24.94c.4,0,.48-.2,.54-1.58,.3,.23,.93,.46,1.3,.56-.15,1.88-.52,2.37-1.7,2.37h-1.57c-1.41,0-1.75-.43-1.75-1.76v-1.9h-1.44c-.25,1.89-.95,3.14-3.89,3.8-.13-.38-.51-.96-.78-1.26,2.44-.45,2.95-1.25,3.15-2.54h-1.45v-6.98h7.77v6.98h-1.94v1.89c0,.38,.07,.43,.52,.43h1.24Zm-6.23-7.32h4.97v-.74h-4.97v.74Zm0,1.88h4.97v-.74h-4.97v.74Zm0,1.89h4.97v-.74h-4.97v.74Z"/><path class="d" d="M101.43,16.34c.63,0,3.17-.05,3.85-.11,.49-.05,.76-.08,.9-.13l.77,1.06c-.27,.18-.56,.34-.83,.55-.64,.45-1.89,1.5-2.64,2.09,.39-.09,.75-.13,1.13-.13,2.02,0,3.55,1.26,3.55,3,0,1.88-1.43,3.36-4.3,3.36-1.65,0-2.9-.76-2.9-1.95,0-.96,.87-1.85,2.13-1.85,1.47,0,2.37,.9,2.53,2.03,.65-.34,.99-.89,.99-1.62,0-1.07-1.07-1.79-2.47-1.79-1.82,0-3.01,.96-4.28,2.41l-1.08-1.12c.84-.68,2.28-1.89,2.98-2.47,.67-.55,1.9-1.54,2.48-2.06-.61,.01-2.25,.08-2.88,.12-.32,.02-.7,.06-.97,.1l-.05-1.55c.33,.05,.75,.06,1.08,.06Zm2.14,8.33c.25,0,.48-.01,.69-.04-.07-.77-.51-1.27-1.15-1.27-.45,0-.74,.27-.74,.57,0,.44,.49,.74,1.2,.74Z"/></g><path class="d" d="M130.25,41.5H20.75C9.31,41.5,0,32.19,0,20.75S9.31,0,20.75,0h109.5c11.44,0,20.75,9.31,20.75,20.75s-9.31,20.75-20.75,20.75ZM20.75,1C9.86,1,1,9.86,1,20.75s8.86,19.75,19.75,19.75h109.5c10.89,0,19.75-8.86,19.75-19.75S141.14,1,130.25,1H20.75Z"/><g><rect class="d" x="118.03" y="20.56" width="18" height="1.13"/><rect class="d" x="126.46" y="12.13" width="1.13" height="18"/></g></g></g></g></svg>