<?xml version="1.0" encoding="UTF-8"?><svg xmlns="http://www.w3.org/2000/svg" viewBox="0 0 19.39 12.32"><defs><style>.d{fill:#42210b;}</style></defs><g id="a"/><g id="b"><g id="c"><path class="d" d="M0,2.6c.31-.31,.62-.61,.93-.92C1.46,1.16,1.98,.64,2.5,.11c.13-.13,.2-.13,.33,0,2.24,2.24,4.48,4.48,6.71,6.72,.14,.14,.2,.14,.34,0C12.11,4.6,14.34,2.37,16.57,.14q.19-.19,.38,0c.78,.78,1.56,1.57,2.35,2.34,.12,.12,.13,.19,0,.32-3.15,3.14-6.29,6.28-9.43,9.43-.15,.15-.22,.1-.34-.02C6.36,9.03,3.18,5.85,0,2.67v-.08Z"/></g></g></svg>