<svg xmlns="http://www.w3.org/2000/svg" width="457.128" height="289.742" viewBox="0 0 457.128 289.742">
  <g id="グループ_3123" data-name="グループ 3123" transform="translate(-166.217 -7909.211)">
    <path id="パス_4103" data-name="パス 4103" d="M0,0H457.128V283.8H0Z" transform="translate(166.217 7915.15)" fill="#fff"/>
    <path id="パス_4103_-_アウトライン" data-name="パス 4103 - アウトライン" d="M3,3V280.8H454.128V3H3M0,0H457.128V283.8H0Z" transform="translate(166.217 7915.15)" fill="#80272d"/>
    <path id="パス_4102" data-name="パス 4102" d="M0,0H457.128V78.939H0Z" transform="translate(166.217 7909.211)" fill="#80272d"/>
    <path id="パス_4101" data-name="パス 4101" d="M7.617-38.816l10.474-5.11h1.047v36.34a19.3,19.3,0,0,0,.3,4.507,2.356,2.356,0,0,0,1.254,1.365,10.672,10.672,0,0,0,3.872.54V0H8.379V-1.174A10.92,10.92,0,0,0,12.314-1.7a2.6,2.6,0,0,0,1.238-1.238,16.819,16.819,0,0,0,.349-4.65V-30.818a34.168,34.168,0,0,0-.317-6.03,2.545,2.545,0,0,0-.809-1.492,2.172,2.172,0,0,0-1.412-.476,8.448,8.448,0,0,0-3.269.984ZM35.991,10.823v-1.4a10.4,10.4,0,0,0,5.062-3.348A7.633,7.633,0,0,0,42.847,1.27,1.741,1.741,0,0,0,42.561.254a.6.6,0,0,0-.444-.286A4.641,4.641,0,0,0,40.593.6a2.662,2.662,0,0,1-1.206.286,3.345,3.345,0,0,1-2.476-.92,3.431,3.431,0,0,1-.92-2.539,3.519,3.519,0,0,1,1.19-2.666,4.1,4.1,0,0,1,2.9-1.111,4.9,4.9,0,0,1,3.729,1.825A6.982,6.982,0,0,1,45.449.317,9.482,9.482,0,0,1,43.18,6.4,15,15,0,0,1,35.991,10.823Zm40.974-53.86-2.476,5.4H61.541l-2.825,5.776q8.411,1.238,13.33,6.252a14.052,14.052,0,0,1,4.221,10.156,14.381,14.381,0,0,1-1.381,6.284,16.957,16.957,0,0,1-3.475,4.919A17.7,17.7,0,0,1,66.746-.984,17.18,17.18,0,0,1,59.255.762q-3.872,0-5.634-1.317a3.679,3.679,0,0,1-1.761-2.9,2.1,2.1,0,0,1,.73-1.571,2.59,2.59,0,0,1,1.841-.682,3.786,3.786,0,0,1,1.444.254,13.4,13.4,0,0,1,2.111,1.3,8.4,8.4,0,0,0,4.824,1.65,8.948,8.948,0,0,0,6.522-2.809,9.308,9.308,0,0,0,2.809-6.84,11.989,11.989,0,0,0-2.507-7.284,16.091,16.091,0,0,0-6.919-5.221,28.072,28.072,0,0,0-9.426-1.65l8.252-16.726ZM83.6-21.265A32.787,32.787,0,0,1,85.82-33.944a17.744,17.744,0,0,1,5.9-7.919,9.963,9.963,0,0,1,5.9-2.063q4.951,0,8.887,5.046,4.919,6.252,4.919,16.948A33.41,33.41,0,0,1,109.275-9.2a16.841,16.841,0,0,1-5.507,7.6A11.268,11.268,0,0,1,97.31.762q-6.157,0-10.251-7.268A29.565,29.565,0,0,1,83.6-21.265Zm6.221.793q0,8.887,2.19,14.5,1.809,4.729,5.4,4.729a5.633,5.633,0,0,0,3.555-1.539,9.8,9.8,0,0,0,2.793-5.157q1.46-5.459,1.46-15.393a42.139,42.139,0,0,0-1.523-12.283,10.9,10.9,0,0,0-2.952-5.173A4.853,4.853,0,0,0,97.6-41.831a4.991,4.991,0,0,0-3.84,1.936q-2.285,2.634-3.11,8.284A77,77,0,0,0,89.819-20.471Zm26.279-.793a32.787,32.787,0,0,1,2.222-12.679,17.744,17.744,0,0,1,5.9-7.919,9.963,9.963,0,0,1,5.9-2.063q4.951,0,8.887,5.046,4.919,6.252,4.919,16.948A33.41,33.41,0,0,1,141.775-9.2a16.841,16.841,0,0,1-5.507,7.6A11.268,11.268,0,0,1,129.81.762q-6.157,0-10.251-7.268A29.565,29.565,0,0,1,116.1-21.265Zm6.221.793q0,8.887,2.19,14.5,1.809,4.729,5.4,4.729a5.633,5.633,0,0,0,3.555-1.539,9.8,9.8,0,0,0,2.793-5.157q1.46-5.459,1.46-15.393a42.139,42.139,0,0,0-1.523-12.283,10.9,10.9,0,0,0-2.952-5.173,4.853,4.853,0,0,0-3.142-1.047,4.991,4.991,0,0,0-3.84,1.936q-2.285,2.634-3.11,8.284A77,77,0,0,0,122.319-20.471Z" transform="translate(252.027 8078.414)" fill="#95000a"/>
    <path id="パス_4100" data-name="パス 4100" d="M40.678-31.175c.344,0,.516-.129.516-.3,0-.129-.086-.258-.258-.43-1.806-1.634-2.365-2.107-4.257-3.655-1.2,1.462-1.548,1.892-2.752,3.4H7.654a25.8,25.8,0,0,1-5.289-.387l.258,1.677a40.5,40.5,0,0,1,5.031-.3h8.428c0,2.236,0,2.881-.086,4.171-.387,8.9-2.279,15.48-5.891,20.812a29.584,29.584,0,0,1-8.041,8.3l.344.645A30.141,30.141,0,0,0,6.751.043a30.512,30.512,0,0,0,8.17-9.46A35.481,35.481,0,0,0,18.447-20.9H31.433A81.917,81.917,0,0,1,30.272-8.3c-.645,3.741-1.118,5.289-1.806,6.063-.3.344-.6.43-1.634.43-1.849,0-4.9-.172-9.331-.473v.688c4.343.688,5.289.9,6.149,1.247a2.634,2.634,0,0,1,1.806,2.408c3.225-.473,4-.731,4.945-1.548,1.333-1.161,2.193-3.827,2.967-8.987a109.9,109.9,0,0,0,1.075-11.61c1.419-.774,1.634-.9,1.634-1.2,0-.086-.086-.215-.344-.43-1.247-.9-1.634-1.2-3.01-2.15a25.868,25.868,0,0,0-1.806,1.978h-12.3a59.751,59.751,0,0,0,.645-9.288ZM53.492-17.243H79.679V-2.107c0,.387-.129.516-.645.516h-.172c-5.547-.3-5.547-.3-7.654-.43l-.043.731c.43.086.9.129,1.333.172.86.086,1.29.172,1.333.172a5.718,5.718,0,0,1,2.322.688,3.609,3.609,0,0,1,1.333,2.322C82,1.2,82.732.731,82.775-1.29c0-3.139,0-6.364-.043-9.632V-30.917c1.2-.86,1.376-.989,1.376-1.247,0-.172-.129-.344-.473-.688-1.2-.989-1.591-1.29-2.752-2.15a12.9,12.9,0,0,0-1.634,2.15H53.922a29.283,29.283,0,0,0-3.569-2.193c.086,2.021.086,2.064.086,5.59,0,9.546-.086,21.629-.215,31.132,0,.559.258.731.989.731,1.763,0,2.279-.215,2.322-.946-.043-5.59-.043-5.762-.043-9.89ZM67.9-18.232V-31.863H79.679v13.631Zm-3.053,0H53.492V-31.863H64.844Z" transform="translate(407.074 8075.533)" fill="#95000a"/>
    <path id="パス_4099" data-name="パス 4099" d="M3.4-14.319c2.408-2.924,4.988-4.687,6.88-4.687,2.193,0,5.418,1.29,9.933,4,4.988,2.967,6.364,3.655,8.041,4.128a10.672,10.672,0,0,0,2.8.387,7.52,7.52,0,0,0,5.5-2.322,16.468,16.468,0,0,0,3.956-5.074l-.989-.645a15.017,15.017,0,0,1-3.483,3.741,6.351,6.351,0,0,1-3.483,1.29c-2.021,0-4.257-.946-9.2-3.784-6.364-3.741-8.557-4.644-10.922-4.644-3.569,0-6.708,2.15-9.976,6.751Z" transform="translate(504.122 8079.359)" fill="#95000a"/>
    <path id="パス_4098" data-name="パス 4098" d="M-54.87-16.43a.316.316,0,0,0,.341-.279q0-.093-.186-.279a34.929,34.929,0,0,0-3.069-2.6c-.806,1.023-1.054,1.364-1.8,2.449h-8.711c.155-1.829.217-3.038.341-6.634.93-.31,1.333-.558,1.333-.868,0-.372-.248-.4-3.844-.744a13.357,13.357,0,0,1,.155,2.139c0,1.891-.093,4.278-.248,6.107h-8.9a15.843,15.843,0,0,1-3.193-.248l.186,1.178a13.81,13.81,0,0,1,2.883-.217h8.99A21.064,21.064,0,0,1-77.655-2.263,29.644,29.644,0,0,1-83.39,1.674l.248.434A24.583,24.583,0,0,0-79.112.279,23.482,23.482,0,0,0-72.85-4.9a20.2,20.2,0,0,0,4.4-10.943A33.208,33.208,0,0,0-66.929-10.6,26.987,26.987,0,0,0-61.938-2.48a20.264,20.264,0,0,0,5.3,4.371c.651-1.519,1.085-1.86,2.821-2.077l.062-.434a14.654,14.654,0,0,1-4.061-1.736,21.887,21.887,0,0,1-6.541-6.076,24.7,24.7,0,0,1-3.658-8Zm26.381,8.308v5.859c0,.465,0,.527-.031,2.139.062,1.426.31,1.55,3.41,1.55a37.385,37.385,0,0,0,4.34-.155c.961-.186,1.3-.465,1.3-1.023,0-.465-.124-.558-.868-.9-.31-.124-.4-.279-.4-.682v-.186l.155-4.65h-.465c-.806,3.751-1.116,4.991-1.4,5.487-.217.4-.434.465-1.829.465-2.263,0-2.325-.031-2.325-.527V-8.122h1.488v.775c0,.341.093.372.744.372,1.054,0,1.4-.124,1.4-.5-.093-3.007-.124-4.991-.124-15.252.682-.341,1.023-.651,1.023-.868,0-.093-.093-.217-.31-.4-.744-.62-.992-.806-1.767-1.4a19.221,19.221,0,0,0-1.3,1.426H-33.2a15.082,15.082,0,0,0-2.387-1.55c.124,2.046.155,3.224.155,5.735,0,7.471-.031,9.517-.124,12.4,0,.341.093.372.806.372,1.054,0,1.271-.093,1.271-.527v-.589h1.271a9.645,9.645,0,0,1-2.356,6.014C-36.146-.279-37.882.62-41.943,1.705l.062.465a22.364,22.364,0,0,0,4.123-.806A10.284,10.284,0,0,0-31.93-2.759a10.09,10.09,0,0,0,1.736-5.363Zm3.379-10.819h-8.37V-23.25h8.37Zm0,.713v4.216h-8.37v-4.216Zm0,4.929v4.464h-8.37V-13.3Zm-16.12-5.766c.062-3.6.062-3.6.062-5.456.93-.341,1.116-.465,1.116-.682,0-.31-.372-.372-3.348-.713a29.794,29.794,0,0,1,.186,4.557c0,.527,0,1.3.031,2.294H-45.6a7.6,7.6,0,0,1-2.232-.279l.186,1.147a9.456,9.456,0,0,1,2.046-.155h2.418c-.031,2.325-.062,3.751-.186,5.673h-2.914a7.415,7.415,0,0,1-2.17-.248l.248,1.147a10.6,10.6,0,0,1,1.922-.186h2.852A21.183,21.183,0,0,1-44.578-6.51,17.843,17.843,0,0,1-49.1.558l.372.372A15.358,15.358,0,0,0-43.4-5.084a15.829,15.829,0,0,0,1.3-3.472,16.9,16.9,0,0,1,3.472,4.619c.62,1.178.682,1.24.961,1.24.434,0,.775-.806.775-1.86a2.61,2.61,0,0,0-1.3-2.263,19.373,19.373,0,0,0-3.782-2.2,20.905,20.905,0,0,0,.465-2.945h5.363c.155,0,.279-.093.279-.186a.7.7,0,0,0-.124-.279c-.93-.961-1.209-1.24-2.232-2.17-.682.806-.868,1.054-1.519,1.922h-1.7c.155-2.139.217-3.6.217-5.673h4.9c.186,0,.31-.062.31-.155a.5.5,0,0,0-.093-.248,24.237,24.237,0,0,0-2.17-2.2c-.682.806-.868,1.054-1.519,1.891ZM3.689-5.363c.31.651.4.806.527,1.085A12.464,12.464,0,0,0,8.711.217a13.148,13.148,0,0,0,3.937,1.736,3.248,3.248,0,0,1,1.984-2.17l.031-.434A15.132,15.132,0,0,1,6.882-2.7,8.074,8.074,0,0,1,4.371-5.363H14.663c.155,0,.31-.093.31-.217q0-.093-.186-.279c-1.3-1.023-1.3-1.023-2.7-2.139L10.447-6.076H3.875a14.143,14.143,0,0,0,.62-3.162h4.65v.651c.062.217.155.31.434.31a6.974,6.974,0,0,0,1.395-.155c.155-.062.217-.155.248-.372-.062-2.759-.062-2.79-.093-7.75.713-.372.93-.558.93-.713,0-.093-.093-.217-.4-.5-.527-.372-1.054-.806-1.643-1.271-.527.558-.682.744-1.147,1.3H-1.3a24.13,24.13,0,0,0-2.294-1.3c.093,2.015.093,2.759.093,4.681,0,2.294,0,2.914-.093,6.107.031.279.155.372.4.372A11.022,11.022,0,0,0-1.736-8a.455.455,0,0,0,.217-.372v-.868h4a11.737,11.737,0,0,1-.589,3.162H-3.782a10.18,10.18,0,0,1-2.883-.31l.31,1.271a8.229,8.229,0,0,1,2.573-.248H1.612A9.036,9.036,0,0,1-1.054-1.581,17.574,17.574,0,0,1-6.7,1.55l.124.465a15.755,15.755,0,0,0,2.945-.806A13.174,13.174,0,0,0,1.085-1.612,10.331,10.331,0,0,0,3.627-5.363Zm-5.208-8.773v-2.883H9.145v2.883Zm10.664.713v3.472H-1.519v-3.472ZM-8.029-18.972v-5.394c1.054-.31,1.4-.465,1.4-.713,0-.31-.341-.4-1.829-.558-.372-.031-.9-.093-1.612-.186.093,1.457.124,2.2.124,3.441v3.41h-2.387a7.476,7.476,0,0,1-2.046-.279l.31,1.209a4.832,4.832,0,0,1,1.736-.217h2.17A51.119,51.119,0,0,1-14.6-4.867l.341.279a29.9,29.9,0,0,0,4.681-9.827L-9.8-9.207l-.341,11.191c.031.279.124.372.465.372h.062c.093,0,.279-.031.527-.031C-8.246,2.325-8,2.2-8,1.767v-16.4a10.551,10.551,0,0,1,1.7,3.224c.279.837.279.837.434.992a.564.564,0,0,0,.248.186c.434,0,.93-.961.93-1.8,0-.558-.186-.868-.837-1.426A13.925,13.925,0,0,0-8-15.159v-3.1h3.875c.155,0,.279-.093.279-.186a.341.341,0,0,0-.093-.186l-2.046-2.046c-.527.744-.682.961-1.271,1.7Zm9.7-3.193V-24.49c.961-.279,1.24-.4,1.24-.651,0-.279-.868-.465-3.255-.682.062.961.093,1.4.093,2.573v1.085H-3.069a6.728,6.728,0,0,1-2.294-.341l.279,1.3a6.906,6.906,0,0,1,2.015-.248H-.248c-.031.837-.031,1.147-.093,2.356,0,.248.124.372.4.372a6.974,6.974,0,0,0,1.395-.155c.186-.062.248-.217.248-.527-.031-.992-.031-1.4-.031-2.046H5.642c0,1.271,0,1.271-.031,2.387,0,.248.124.372.4.372,1.612-.093,1.612-.124,1.612-.62-.062-1.023-.062-1.395-.062-2.139h6.417c.217,0,.372-.093.372-.186,0-.062-.031-.124-.124-.217a24.735,24.735,0,0,0-2.573-2.2c-.713.806-.93,1.054-1.612,1.891H7.564v-2.356c.837-.186,1.209-.372,1.209-.62s-.4-.372-1.7-.5c-.341-.062-.806-.093-1.519-.186a19.724,19.724,0,0,1,.093,2.449v1.209Zm25.3,9.238A34.46,34.46,0,0,0,30.814-18.6c1.4-.31,1.55-.372,1.55-.62,0-.093-.062-.186-.341-.5-.744-.651-.992-.868-1.829-1.55-.651.651-.868.837-1.488,1.55H26.97v-4.557c.93-.31,1.178-.465,1.178-.713,0-.31-.4-.4-1.891-.527-.341-.031-.868-.093-1.55-.155a10.511,10.511,0,0,1,.248,2.7v3.255h-2.48a11.588,11.588,0,0,1-2.418-.279l.217,1.147a16.375,16.375,0,0,1,2.2-.155h6.231a31.963,31.963,0,0,1-3.813,6.355,29.3,29.3,0,0,1-5.177,5.487l.341.465a25.89,25.89,0,0,0,4.9-3.937v5.394c-.062,4.464-.093,6.851-.093,7.192.093.248.217.31.682.31h.4c.775,0,1.023-.124,1.116-.527C27,.279,27,.279,26.97-5.394v-6.665a13.654,13.654,0,0,1,3.813,3.534c.558.837.589.868.775,1.023a1.984,1.984,0,0,0,.341.186c.372,0,.682-.713.682-1.488a2.311,2.311,0,0,0-1.426-2.17,16.8,16.8,0,0,0-4.185-1.643ZM37.82-14.2V-.155H32.333A22.239,22.239,0,0,1,29.109-.4L29.388.775A14.961,14.961,0,0,1,32.333.558H48.546c.155,0,.31-.093.31-.217A.4.4,0,0,0,48.7.124a38.678,38.678,0,0,0-2.883-2.7c-.961,1.054-1.24,1.395-2.077,2.418H39.959V-14.2h7.75a.306.306,0,0,0,.31-.248.533.533,0,0,0-.124-.217c-1.24-1.147-1.643-1.488-2.945-2.573l-1.8,2.325H39.959v-9.331c.9-.341,1.24-.558,1.24-.806,0-.279-.372-.4-1.984-.558-.31-.031-.961-.093-1.612-.186a25.847,25.847,0,0,1,.217,3.875v7.006h-4.4a13.055,13.055,0,0,1-2.728-.248l.248,1.178a19.408,19.408,0,0,1,2.48-.217Zm34.751-3.937h9.858c.217,0,.341-.062.341-.186a.61.61,0,0,0-.124-.248c-1.147-.992-1.488-1.3-2.666-2.263-.837.837-1.085,1.116-1.891,1.984H58.342a12.008,12.008,0,0,1-2.852-.31l.217,1.209a11.445,11.445,0,0,1,2.635-.186h3.627a17.11,17.11,0,0,1-2.2,3.007,21.94,21.94,0,0,1-4.929,4.34l.279.434A18.322,18.322,0,0,0,59.892-13.3a8.414,8.414,0,0,1,2.387,2.418c.186.248.248.31.5.341a27.812,27.812,0,0,1-8.06,4.154l.155.5a27.872,27.872,0,0,0,7.192-2.573A16.481,16.481,0,0,0,68.7-14.508c1.054-.341,1.209-.4,1.209-.589,0-.093-.062-.186-.279-.372-.682-.558-.9-.713-1.612-1.271-.558.465-.713.589-1.24,1.085H62.4a15.653,15.653,0,0,0,1.891-2.48H70.68V-10.2c.062,1.581.341,1.674,5.332,1.674,5.766,0,6.6-.155,6.6-1.178a.754.754,0,0,0-.651-.744c-.558-.217-.558-.217-.558-.372v-.713l.186-2.449-.372-.031a30.206,30.206,0,0,1-1.4,3.441c-.186.31-.341.341-1.519.341H77.035c-.806.031-1.271.031-1.55.031-.837,0-2.325-.062-2.542-.093-.31-.062-.372-.155-.372-.589v-1.767a30.577,30.577,0,0,0,6.572-2.325c.4,0,.992.031,1.116.031.372,0,.589-.093.589-.279,0-.217-.4-.465-2.635-1.674a20.432,20.432,0,0,1-5.642,3.689Zm-5.8,3.193a15.637,15.637,0,0,1-3.5,4.03,1.7,1.7,0,0,0,.248-.9c0-.527-.341-.806-1.395-1.209a10.118,10.118,0,0,0-1.922-.527c.62-.527.93-.806,1.519-1.395Zm-1.209-8.122v-1.519c1.023-.279,1.3-.4,1.3-.62,0-.279-.341-.372-1.829-.527-.341-.031-.9-.093-1.55-.186a13.918,13.918,0,0,1,.124,1.984c0,.248,0,.527-.031.868H57.66a11.248,11.248,0,0,1-2.7-.248L55.18-22.2a13.864,13.864,0,0,1,2.48-.155h5.921c0,.558-.031.9-.093,1.953.031.186.124.248.31.248a5.258,5.258,0,0,0,1.674-.155c.093-.062.124-.124.124-.31-.031-.4-.062-.62-.062-.806l.031-.558v-.372h5.952c0,.589-.031.93-.062,1.922,0,.217.062.279.372.279,1.4,0,1.674-.062,1.705-.434-.031-.837-.031-1.116-.031-1.767h9.486c.186,0,.31-.062.31-.186a.61.61,0,0,0-.124-.248C81.9-23.808,81.5-24.118,80.259-25.11c-.837.837-1.116,1.116-1.984,2.046H73.5c0-.341,0-.341.031-1.519,1.054-.279,1.3-.4,1.3-.62,0-.279-.775-.434-3.441-.713a15.3,15.3,0,0,1,.155,2.6,1.173,1.173,0,0,0-.031.248ZM58-5.27a11.016,11.016,0,0,1-2.635-.217l.217,1.116A10.772,10.772,0,0,1,58-4.557h5.642A6.642,6.642,0,0,1,61.907-.868c-1.333,1.4-3.162,2.232-6.789,3.131l.124.465c3.813-.4,6.448-1.364,8.37-3.069a6.639,6.639,0,0,0,2.077-4.216h5.828v2.046c0,1.581-.031,2.449-.124,4.526,0,.248.093.341.372.341a5.714,5.714,0,0,0,1.643-.186.291.291,0,0,0,.155-.279c-.062-3.6-.062-3.782-.062-4.557V-4.557h9.393c.124,0,.279-.124.279-.217a.61.61,0,0,0-.124-.248C81.84-6.076,81.468-6.386,80.2-7.347c-.837.837-1.085,1.116-1.922,2.077H73.532V-6.6c1.023-.434,1.085-.465,1.085-.682,0-.279-.248-.31-3.224-.589a18.794,18.794,0,0,1,.124,2.6H65.782c.062-.4.062-.527.155-1.457.992-.341,1.147-.4,1.147-.62s-.527-.372-1.86-.558c-.341-.031-.837-.124-1.488-.217a6.884,6.884,0,0,1,.124,1.333,13.716,13.716,0,0,1-.093,1.519Z" transform="translate(399.574 7962.145)" fill="#fff"/>
    <path id="パス_4098_-_アウトライン" data-name="パス 4098 - アウトライン" d="M-36.374-26.76l1.13.628a15.533,15.533,0,0,1,2.282,1.461h7.185c.4-.467.6-.694,1.127-1.218l.437-.437.589.448c.706.537.971.738,1.7,1.341l.008.006a1.289,1.289,0,0,1,.557.941c0,.462-.327.878-1.023,1.29,0,9.944.033,11.887.124,14.809v.022a1.084,1.084,0,0,1-.773,1.055,4.07,4.07,0,0,1-1.331.15,2.092,2.092,0,0,1-.924-.128.962.962,0,0,1-.529-.952v-.066h-.071v6.46c.373.028,1.048.028,1.616.028a7.386,7.386,0,0,0,1.187-.06l.018-.032.006-.011a35.232,35.232,0,0,0,1.32-5.288l.12-.56h1.77l-.179,5.37v.174c0,.016,0,.03,0,.043.711.326,1.27.587,1.27,1.538,0,1.356-1.315,1.61-1.876,1.719l-.012,0a37.008,37.008,0,0,1-4.463.166,8.292,8.292,0,0,1-3.139-.3,1.931,1.931,0,0,1-.979-1.923V-.138c.031-1.605.031-1.664.031-2.125v-5.15h-.362a10.24,10.24,0,0,1-1.785,5.055,10.955,10.955,0,0,1-6.2,4.4,23.1,23.1,0,0,1-4.238.831l-.7.094-.238-1.786.6-.161C-38.22-.023-36.578-.863-35.1-2.571l.005-.006a8.576,8.576,0,0,0,2-4.1,1.137,1.137,0,0,1-.35.225,3.5,3.5,0,0,1-1.3.155,2.324,2.324,0,0,1-.96-.12.954.954,0,0,1-.554-.961V-7.4c.041-1.275.07-2.391.089-3.856h-4.7c-.079.685-.16,1.227-.286,1.837a19.066,19.066,0,0,1,3.4,2.043,3.294,3.294,0,0,1,1.573,2.821c0,1.536-.6,2.569-1.484,2.569-.736,0-.968-.441-1.588-1.619l-.007-.013a16.66,16.66,0,0,0-2.493-3.587,15.393,15.393,0,0,1-1.015,2.443A15.952,15.952,0,0,1-48.311,1.5l-.491.362L-50.1.568l.482-.5a17.061,17.061,0,0,0,4.369-6.814,19.883,19.883,0,0,0,1.031-4.51h-2.069a9.887,9.887,0,0,0-1.806.176l-.666.111-.629-2.911,1.1.265a6.771,6.771,0,0,0,2,.228h2.247c.077-1.348.108-2.51.134-4.256h-1.7a8.706,8.706,0,0,0-1.9.14l-.727.153-.479-2.952,1.051.273a6.933,6.933,0,0,0,2.054.256h1.691c-.013-.661-.013-1.2-.013-1.585a29.063,29.063,0,0,0-.181-4.473l-.106-.89.89.1c1.435.164,2.342.272,2.854.378.307.064,1.122.234,1.122,1.039,0,.627-.465.912-1.116,1.172,0,1.3-.005,1.665-.05,4.257h.358c.485-.624.714-.918,1.325-1.64l.474-.56.543.492a21.8,21.8,0,0,1,1.667,1.644c0-2.466-.033-3.634-.154-5.633Zm-5.489,1.739c-.229-.029-.477-.059-.736-.089.078.843.094,1.63.094,3.751,0,.514,0,1.291.031,2.272v.026h.009l0,.2.016.5h-.022v.014c-.032,2.426-.067,3.828-.185,5.668h0l0,.049-.042.655h-.015l-.006.066a22.047,22.047,0,0,1-1.185,5.63,19.762,19.762,0,0,1-1.118,2.6A15.288,15.288,0,0,0-44.034-5.4l0-.007a15.094,15.094,0,0,0,1.248-3.331l.121-.455a20.173,20.173,0,0,0,.448-2.847l.032-.3.028-.387c.161-2.22.215-3.638.215-5.622v0h-.012l.012-.721c.062-3.59.062-3.59.062-5.444v-.495ZM-23-23.587c-.441-.365-.7-.571-1.079-.859-.155.163-.282.306-.44.488h.119V-7.684h.035a5.611,5.611,0,0,0,.679-.031c-.086-2.838-.116-4.986-.116-15.009v-.438l.392-.2A4.431,4.431,0,0,0-23-23.587Zm-11.188-.232c-.217-.158-.409-.289-.62-.422.065,1.358.084,2.512.084,4.463,0,7.082-.027,9.3-.113,12.063h.086c.27,0,.447-.007.562-.017Zm8.37,1.278h-6.953v2.892h6.953Zm-11.535,3.481c-.288-.309-.532-.557-.865-.87-.245.3-.43.534-.692.87Zm1.2,5.447c.007-1.113.01-2.427.012-4.042a1.414,1.414,0,0,1-.189.012h-4.192c-.011,1.451-.057,2.664-.163,4.256h.591c.493-.656.718-.946,1.332-1.671l.474-.561.543.494C-37.013-14.459-36.652-14.118-36.155-13.614Zm10.336-3.905h-6.953v2.8h6.953Zm-11.4,4.845c-.315-.317-.576-.569-.936-.9-.248.3-.434.544-.7.9Zm11.4.084h-6.953v3.047h6.953Zm-5.087,4.464H-31.5l0,.042a10.42,10.42,0,0,1-2.53,6.443,10.63,10.63,0,0,1-.854.884,8.936,8.936,0,0,0,2.368-2.4l0-.007A9.392,9.392,0,0,0-30.906-8.126Zm3.6,0h-.474v5.863c0,.471,0,.533-.031,2.13.028.618.088.646.152.675A9.594,9.594,0,0,0-25.11.717,36.862,36.862,0,0,0-20.9.574c.6-.117.708-.235.715-.244a.363.363,0,0,0,.007-.082c0-.011,0-.021,0-.03-.11-.066-.326-.166-.44-.218a1.277,1.277,0,0,1-.831-1.325,4.763,4.763,0,0,1-.375.985c-.451.832-1.162.832-2.45.832A11.6,11.6,0,0,1-26.445.4a1.048,1.048,0,0,1-.861-1.14ZM-37.7-3.708a3.273,3.273,0,0,0,.1-.849c0-.615-.154-1.026-1.027-1.7l-.007-.005a12.114,12.114,0,0,0-1.14-.79A17.429,17.429,0,0,1-38-4.26C-37.916-4.11-37.8-3.9-37.7-3.708ZM62.679-26.747l.91.13c.789.113,1.358.168,1.514.182h.009a10.149,10.149,0,0,1,1.594.24,1.057,1.057,0,0,1,.87.991,1.006,1.006,0,0,1-.674.928,4.654,4.654,0,0,1-.628.227v.275h4.563a12.612,12.612,0,0,0-.143-2.027l-.153-.918.926.1c1.453.152,2.261.258,2.789.367.385.079,1.287.265,1.287,1.051,0,.673-.57.945-1.316,1.164,0,.1,0,.19-.007.266h3.748c.718-.766,1.02-1.068,1.79-1.838l.449-.449.5.4c.523.418.9.715,1.25,1,.478.38.93.739,1.666,1.331l.085.068.06.091a1.142,1.142,0,0,1,.243.641.928.928,0,0,1-1.019.895H80.108l.32.261c.965.788,1.373,1.141,2.111,1.782l.57.494.073.063.053.08a1.142,1.142,0,0,1,.243.641.934.934,0,0,1-1.05.895H78.72c1.012.549,1.643.9,2.027,1.141.323.2.81.513.81,1.064a.96.96,0,0,1-.156.513l.951.079-.237,3.124v.356l.078.031A1.441,1.441,0,0,1,83.324-9.7c0,1.207-.921,1.526-1.723,1.67-.273.049-.6.087-.981.117l0,0c1.292.977,1.675,1.3,2.89,2.356l.071.062.053.079a1.142,1.142,0,0,1,.243.641,1,1,0,0,1-.988.926H74.21v1.182c0,.772,0,.955.062,4.545v.012a.993.993,0,0,1-.471.869l-.028.018a6.03,6.03,0,0,1-2.008.287.989.989,0,0,1-1.081-1.05V1.983c.091-2.04.123-2.9.123-4.494V-3.848H66.266A6.871,6.871,0,0,1,64.083.189c-2.024,1.8-4.809,2.826-8.766,3.244l-.6.064-.466-1.748.7-.174c3.481-.863,5.229-1.658,6.447-2.933a5.389,5.389,0,0,0,1.364-2.491H58a10.036,10.036,0,0,0-2.284.173l-.694.134-.308-1.585-.325.075-.553-1.77.637-.231a28.452,28.452,0,0,0,7.156-3.521,8.726,8.726,0,0,0-1.708-1.851A18.107,18.107,0,0,1,55.4-9.7l-.552.238L53.86-11l.595-.384A21.1,21.1,0,0,0,59.236-15.6a20.735,20.735,0,0,0,1.455-1.83H58.342a10.778,10.778,0,0,0-2.515.176l-.693.119-.53-2.953,1.042.235a11.312,11.312,0,0,0,2.7.293h4.95a.962.962,0,0,1-.5-.725l-.013-.079,0-.08c.014-.238.026-.44.037-.617.014-.233.026-.42.035-.586H57.66a13.19,13.19,0,0,0-2.386.149l-.662.088-.549-2.824L55.111-24a10.553,10.553,0,0,0,2.549.232H62.9c0-.054,0-.107,0-.159a13.3,13.3,0,0,0-.119-1.9ZM72.835-25.04c-.213-.027-.429-.053-.633-.076.033.434.055,1,.055,1.8a.845.845,0,0,1-.026.2.144.144,0,0,0,0,.046v.713c0,.369-.012.641-.027,1.018-.006.142-.012.3-.019.472.21,0,.454-.009.633-.024-.02-.613-.02-.909-.02-1.466v-.713c0-.35,0-.35.031-1.538Zm-7.979,0c-.133-.013-.328-.033-.573-.062.026.343.037.674.037,1.165,0,.254,0,.542-.031.9v.682c0,.454-.019.764-.057,1.382l-.006.105c.272-.007.481-.021.634-.035l0-.039c-.017-.187-.031-.335-.031-.483v-.039l.03-.538ZM81.7-23.06l-.627-.5-.758-.6c-.39.392-.666.673-1.07,1.1Zm-10.9,1.417H66.256l-.013.238c0,.08.011.188.025.334.01.111.023.242.035.4l0,.054a1,1,0,0,1-.42.886.987.987,0,0,1-.422.172h5.779a.925.925,0,0,1-.495-.872v-.022c.012-.4.025-.7.035-.942C70.786-21.481,70.789-21.563,70.792-21.642Zm9,0H74.212c0,.279.011.567.028,1.032l0,.043,0,.042a1.056,1.056,0,0,1-.814.968H77.78l.11-.119c.576-.621.865-.933,1.589-1.658Zm1.459,2.8c-.4-.347-.735-.633-1.218-1.031-.368.376-.62.645-.978,1.031Zm-17.8.7h-.662l-.2.356a17.621,17.621,0,0,1-2.281,3.12l-.005.006q-.191.215-.375.417c.489-.419.782-.688,1.3-1.2l.208-.208h.007l.448-.485A13.871,13.871,0,0,0,63.449-18.139Zm8.413,0h-.474v7.926c.027.675.068.688.322.768a21.009,21.009,0,0,0,4.3.211c2.013,0,3.563-.017,4.583-.1A3,3,0,0,0,81.9-9.6a.568.568,0,0,0,.008-.108s0,0,0-.007a.532.532,0,0,0-.137-.056l-.032-.009-.031-.012c-.581-.226-.974-.379-1.008-.951a5.063,5.063,0,0,1-.272.539c-.411.678-.984.678-2.122.678H77.049c-.811.031-1.282.031-1.564.031-.8,0-2.354-.059-2.642-.1L72.8-9.6a1.118,1.118,0,0,1-.942-1.284Zm-4.132.713H64.677c-.277.418-.511.754-.745,1.063h2.562c.357-.33.551-.492.938-.814Zm2.241,0H68.287l.164.128c.217.169.387.3.539.419.325.251.566.438.982.777Zm7.772,0H73.28v3.076a18.111,18.111,0,0,0,4.443-3.056Zm1.225,1.75c-.211-.117-.431-.237-.645-.353a16.885,16.885,0,0,1-1.853,1.449c.792-.306,1.574-.647,2.364-1.03Zm-10.222.406c-.224-.179-.4-.319-.624-.489l-.092-.071c-.074.063-.142.12-.209.179h.245l-.693,1.089a16.349,16.349,0,0,1-2.879,3.522l.077.01-.705.544-.139.117-.006-.005-.512.395q-.151.117-.3.23a15.792,15.792,0,0,0,5.207-5.161l.137-.2.229-.074Zm11.513,1.036c-.055,0-.143,0-.308-.01-.189-.007-.433-.017-.649-.02A31.151,31.151,0,0,1,73.28-12.09v1.115c.484.028,1.538.068,2.205.068.273,0,.73,0,1.523-.03h1.3c.267,0,.737,0,.931-.028a31.92,31.92,0,0,0,1.315-3.282v0A2.36,2.36,0,0,1,80.259-14.233Zm-14.817,0H62.013c-.117.115-.224.218-.327.316.21.066.434.142.678.23l.013,0a3.032,3.032,0,0,1,1.664,1.112A13.584,13.584,0,0,0,65.442-14.233Zm5.189,5.806a2.145,2.145,0,0,1-.659-1.744v-4.036a8.354,8.354,0,0,1-.829.3A17.178,17.178,0,0,1,64.05-8.792l.494.076c.3.047.561.088.744.105l.034,0a11.027,11.027,0,0,1,1.535.29c.621.186.936.512.936.97a.966.966,0,0,1-.581.891,4.927,4.927,0,0,1-.613.249l-.022.228h4.228a13.219,13.219,0,0,0-.078-1.406c-.012-.123-.025-.262-.04-.425Zm-7.885-3.023a.922.922,0,0,0,.064-.362c0-.064,0-.066-.055-.113a2.81,2.81,0,0,0-.644-.339C62.331-12.007,62.544-11.734,62.746-11.449Zm.374,5.471c.022-.283.031-.522.031-.81a6.173,6.173,0,0,0-.114-1.217l-.028-.165q-.3.168-.617.335a25.771,25.771,0,0,1-4.459,1.857H63.12Zm14.833,0c.68-.78.962-1.088,1.743-1.869l.016-.016c-.95.038-2.163.048-3.7.048h-.846a.882.882,0,0,1,.159.533.955.955,0,0,1-.493.861,4.656,4.656,0,0,1-.592.288v.156ZM65.142-7.2c-.17-.016-.361-.044-.587-.079.009.15.013.308.013.49a13.93,13.93,0,0,1-.09,1.523h.016l-.035.19-.051.514h-.044l-.025.133A7.321,7.321,0,0,1,62.417-.375q-.129.135-.263.263a8.876,8.876,0,0,0,.989-.759,5.878,5.878,0,0,0,1.826-3.69h-.012l.126-.816c.039-.251.051-.38.083-.726.016-.17.037-.389.067-.694l.039-.385Zm7.681.176-.646-.063c.034.417.048.805.048,1.818v2.759c0,1.507-.03,2.4-.107,4.15.281-.013.541-.038.73-.064-.056-3.286-.056-3.484-.056-4.241v-2.6h.031Zm8.86,1.759c-.469-.4-.847-.7-1.42-1.141-.392.4-.648.682-1.051,1.141ZM4.761-26.64l.88.115c.307.04.565.068.793.093.29.032.522.057.73.093a8.252,8.252,0,0,1,1.445.224c.76.223.873.706.873.974,0,.682-.631,1-1.209,1.173v1.095H9.708c.532-.648.775-.925,1.417-1.652l.442-.5.72.564a23.966,23.966,0,0,1,2.435,2.1l.008.007a1.019,1.019,0,0,1,.332.718.979.979,0,0,1-1.081.895H8.276c.005.377.019.755.058,1.387v.043a1.2,1.2,0,0,1-.272.872h.471c.325-.388.511-.6.963-1.08l.445-.471.509.4.4.316c.424.338.825.657,1.215.932l.034.024.031.028c.361.325.638.607.638,1.023,0,.5-.381.82-.927,1.133.028,4.528.03,4.639.088,7.234L12-8.98l.536.429c1.393,1.114,1.393,1.114,2.692,2.135l.033.026.03.03a1.123,1.123,0,0,1,.394.78.977.977,0,0,1-1.019.926H5.755A6.085,6.085,0,0,0,7.268-3.291,14.381,14.381,0,0,0,14.69-1.359l.732.028L15.307.279l-.415.164A2.55,2.55,0,0,0,13.311,2.2l-.233.617-.632-.188A13.843,13.843,0,0,1,8.333.816,13.154,13.154,0,0,1,3.672-3.8a10.843,10.843,0,0,1-2.1,2.7A13.915,13.915,0,0,1-3.374,1.871a16.444,16.444,0,0,1-3.05.837l-.659.14-.224-.84a1.084,1.084,0,0,1-.6.832,2.541,2.541,0,0,1-1.179.194c-.121,0-.226.01-.318.018-.076.007-.141.013-.209.013h-.062a1.045,1.045,0,0,1-1.169-1l-.006-.05L-10.5-9.236l.023-.558a27.045,27.045,0,0,1-3.2,5.62l-.44.614-1.364-1.116.253-.507a49.915,49.915,0,0,0,4.2-12.366h-1.306a4.139,4.139,0,0,0-1.523.184l-.714.225-.786-3.066,1.138.265a6.8,6.8,0,0,0,1.885.26h1.678v-2.7c0-1.253-.032-1.979-.123-3.4l-.055-.859.854.111c.737.1,1.239.154,1.579.182h.015a9.387,9.387,0,0,1,1.6.247,1.073,1.073,0,0,1,.862,1.016c0,.69-.606.987-1.395,1.239v3.8c.236-.31.419-.567.759-1.047l.485-.685.185.185-.4-1.89,1.109.284a6.032,6.032,0,0,0,2.118.319H-.957v-.376c0-1.111-.028-1.549-.085-2.422L-1.1-26.6l.825.075a24.926,24.926,0,0,1,2.6.33c.388.082,1.3.273,1.3,1.058,0,.669-.535.95-1.24,1.178v1.09H4.933v-.5a19.02,19.02,0,0,0-.09-2.383Zm-3.8,1.665c-.164-.02-.346-.04-.547-.062.028.514.043.979.043,1.787v1.089H.487l-.027.735c-.009.248-.016.45-.022.643-.012.39-.024.735-.052,1.338.216-.015.44-.04.607-.064-.027-.912-.027-1.307-.027-1.943Zm5.89.021c-.144-.022-.32-.042-.531-.065.027.464.027.859.027,1.645v1.922c0,1.12,0,1.261-.021,2.03.205-.013.416-.028.577-.046-.052-.9-.052-1.277-.052-1.984ZM-8.6-24.937c-.2-.017-.43-.042-.718-.076.051.912.074,1.616.074,2.632v4.119h-.2l-.027.138q-.346,1.8-.779,3.5l1.38.243-.217,5.2L-9.417,1.63c.093-.007.207-.014.334-.014.174,0,.294-.006.376-.014V-18.263h-.031V-24.9Zm21.464,2.777c-.36-.32-.677-.576-1.121-.925-.289.33-.5.574-.788.925ZM-.981-20.743H-3.069a6.132,6.132,0,0,0-1.77.209l.486.486-.008-.176,1.089.561A24.044,24.044,0,0,1-1.1-18.441h.246a1.107,1.107,0,0,1-.2-.655v-.036C-1.008-19.921-.995-20.319-.981-20.743Zm5.914,0H2.385c0,.348.01.725.029,1.315v.022a1.284,1.284,0,0,1-.335.965h3a1.118,1.118,0,0,1-.175-.624v-.02C4.926-19.932,4.932-20.13,4.933-20.743ZM-5.276-18.968l-.617-.617c-.15.206-.287.389-.464.617ZM11.058-17.32c-.32-.234-.64-.486-.971-.75-.1.116-.2.223-.3.343h.067V-9c.218-.014.47-.039.654-.064-.056-2.493-.057-2.739-.087-7.426l0-.5.384-.2C10.9-17.234,10.986-17.28,11.058-17.32Zm-13.285-.151c-.228-.139-.417-.25-.609-.358.042,1.2.042,1.978.042,3.477,0,2.214,0,2.873-.083,5.76.221-.012.46-.033.649-.054Zm-2.018-.079H-7.289v1.976A14.653,14.653,0,0,1-5.062-14l.005,0a3.533,3.533,0,0,1,.844.949c0-.386,0-.808,0-1.31C-4.212-15.733-4.212-16.5-4.246-17.55ZM8.436-16.31H-.81v1.466H8.436Zm-14.413,3.4q-.127-.107-.253-.209a12.6,12.6,0,0,1,.609,1.491l.1.288a1.979,1.979,0,0,0,.135-.684C-5.39-12.282-5.39-12.41-5.976-12.914Zm14.413.2H-.81v2.055H8.436ZM-6.391-9.946c-.246-.252-.292-.39-.574-1.238-.1-.286-.2-.572-.324-.851v4.747l.809.218a9.575,9.575,0,0,0,2.7.286H1.367A8.85,8.85,0,0,0,1.7-8.529H-.81v.21l-.007.05a1.153,1.153,0,0,1-.493.839l-.114.086-.139.035a11.006,11.006,0,0,1-1.629.145,1.045,1.045,0,0,1-1.107-1l-.005-.049v-.05c.031-1.052.051-1.824.065-2.468-.275.665-.75,1.213-1.372,1.213A1.12,1.12,0,0,1-6.391-9.946Zm10.173.7h-.59l-.007.072a12.414,12.414,0,0,1-.553,3.1h.023l-.11.277-.135.428H2.376L2.271-5.1A9.678,9.678,0,0,1-.009-1.585q.317-.26.6-.534L.6-2.127a9.605,9.605,0,0,0,2.372-3.5l.1-.248L3.1-5.986l-.057-.086h.084L3.2-6.287A13.232,13.232,0,0,0,3.782-9.242Zm4.654.713H5.123a14.736,14.736,0,0,1-.308,1.745H10.12l.77-.9a10.645,10.645,0,0,1-1.311.117,1.065,1.065,0,0,1-1.115-.824l-.027-.1ZM13.37-6.072c-.377-.3-.65-.515-1.187-.944l-.807.944ZM-6.872-4.242l-.418-1.713V1.009l.356-.127a16.9,16.9,0,0,0,5.42-3A8.266,8.266,0,0,0,.516-4.654h-4.3a7.545,7.545,0,0,0-2.389.224ZM13.05-.048A15.3,15.3,0,0,1,7.43-1.565,15.263,15.263,0,0,0,9.085-.385l.009.006A11.608,11.608,0,0,0,12.25,1.089,4.1,4.1,0,0,1,13.05-.048ZM36.782-26.625l.921.132c.581.083,1.177.142,1.5.174l.086.008a10.292,10.292,0,0,1,1.723.257c.743.215.9.666.9,1.006,0,.663-.608,1.024-1.24,1.289v8.139H42.8l2.035-2.631.565.471c1.291,1.076,1.719,1.437,2.973,2.6l.02.019a1.166,1.166,0,0,1,.332.718,1,1,0,0,1-1.019.957H40.668V-.864h2.738c.687-.839,1-1.214,1.889-2.187l.462-.507.522.445A38.869,38.869,0,0,1,49.17-.41a1.036,1.036,0,0,1,.4.751.977.977,0,0,1-1.019.926H32.333a14.275,14.275,0,0,0-2.832.208l-.651.106L28.18-1.252l1.029.147a21.39,21.39,0,0,0,3.124.241h4.778V-13.489H33.418a18.819,18.819,0,0,0-2.392.212l-.647.081-.514-2.442c-.555.845-1.134,1.635-1.871,2.567a17.123,17.123,0,0,1,3.514,1.484A3.017,3.017,0,0,1,33.29-8.8c0,1.092-.478,2.2-1.391,2.2-.09,0-.277,0-.734-.305l-.031-.021L31.1-6.958a4.418,4.418,0,0,1-.9-1.164,12.011,12.011,0,0,0-2.522-2.567v5.294c.031,5.656.031,5.656.092,7.1l0,.1-.022.094c-.248,1.076-1.262,1.076-1.807,1.076h-.4A1.244,1.244,0,0,1,24.2,2.2l-.045-.12V1.953c0-.342.03-2.628.093-7.2V-8.962a28.52,28.52,0,0,1-3.8,2.86l-.562.366L18.75-7.28l.513-.426a28.562,28.562,0,0,0,5.062-5.366,31.353,31.353,0,0,0,3.259-5.222H22.475a15.661,15.661,0,0,0-2.118.15l-.656.077-.54-2.853,1.05.233a10.946,10.946,0,0,0,2.264.262h1.771v-2.546a9.863,9.863,0,0,0-.233-2.554l-.193-.935.951.086c.4.037.758.074,1.042.1.2.021.369.039.506.051A9.875,9.875,0,0,1,27.945-26c.793.214.911.729.911,1.017,0,.666-.542.979-1.178,1.217v3.344h.707c.369-.414.6-.647.935-.973.109-.108.23-.227.372-.369l.453-.453.5.4c.847.69,1.1.911,1.848,1.566l.032.028.028.031a1.457,1.457,0,0,1,.523.97.973.973,0,0,1-.7.945,7.925,7.925,0,0,1-1.1.3c-.424.751-.806,1.394-1.191,2l.723.123a12.421,12.421,0,0,0,2.609.238h3.693v-6.3A25.139,25.139,0,0,0,36.9-25.7Zm2.8,1.769c-.129-.014-.273-.029-.433-.044l-.087-.009c-.161-.016-.388-.039-.65-.068a28.453,28.453,0,0,1,.119,3.06V-.151h.722v-24.58ZM26.3-24.8l-.106-.009h-.005c-.146-.013-.323-.032-.527-.053l-.1-.01a12.794,12.794,0,0,1,.094,1.9v3.259h.6v-5.072Zm4.968,5.367c-.389-.34-.645-.561-1.033-.881-.212.21-.381.379-.587.6h.16l-.463,1.005a31.405,31.405,0,0,1-3.063,5.347l.08.053.053-.065A33.712,33.712,0,0,0,30.2-18.946l.155-.277.31-.069C30.826-19.329,31.056-19.38,31.272-19.431ZM46.58-14.907c-.521-.47-.918-.81-1.519-1.314l-1.016,1.314ZM26.261-13.178v-.146c-.25.354-.515.718-.8,1.1l-.2.268.4-.412v7.139c-.051,3.66-.08,5.9-.09,6.783h.373a3.1,3.1,0,0,0,.4-.02c-.053-1.256-.054-1.553-.084-6.925Zm5.546,4.9a2.126,2.126,0,0,0,.065-.527c0-.609-.171-1.038-1.071-1.556a13.556,13.556,0,0,0-1.29-.647,12.98,12.98,0,0,1,1.846,2.068l.015.021C31.6-8.584,31.724-8.394,31.807-8.277ZM47.421-.151c-.542-.535-.932-.9-1.542-1.434-.486.542-.781.892-1.226,1.434Zm-118.7-26.028.883.084c1.872.178,2.8.267,3.335.37.344.065,1.15.218,1.15,1.08,0,.741-.715,1.133-1.35,1.376-.1,2.735-.157,4.024-.264,5.417h7.57c.614-.89.893-1.263,1.614-2.179l.434-.551.556.429a35.415,35.415,0,0,1,3.117,2.645l.019.019a1.123,1.123,0,0,1,.394.78,1.021,1.021,0,0,1-1.05.988h-12.2a23.171,23.171,0,0,0,3.29,6.882,21.151,21.151,0,0,0,6.326,5.876,13.988,13.988,0,0,0,3.9,1.665l.583.176L-53.191.45l-.537.067C-55.2.7-55.429.871-55.986,2.17l-.326.761-.7-.44a20.944,20.944,0,0,1-5.455-4.5,27.55,27.55,0,0,1-5.122-8.336c-.267-.675-.506-1.363-.734-2.129A19.888,19.888,0,0,1-72.3-4.448,24.218,24.218,0,0,1-78.758.893a25.465,25.465,0,0,1-4.13,1.877l-.568.218-.9-1.58.619-.351a29.006,29.006,0,0,0,5.615-3.851,20.16,20.16,0,0,0,6.751-12.928h-8.2a13.1,13.1,0,0,0-2.76.206l-.711.125-.453-2.866.973.166a15.076,15.076,0,0,0,3.074.238h8.242c.12-1.666.195-3.711.195-5.4a12.76,12.76,0,0,0-.149-2.048Zm3.1,1.729c-.405-.046-.907-.1-1.481-.151a12.566,12.566,0,0,1,.057,1.35c0,1.93-.1,4.321-.246,6.111h.032l-.068.771a22.33,22.33,0,0,1-2.234,8.047A21.922,21.922,0,0,1-76.63-2.246a20.817,20.817,0,0,0,3.233-3.1A19.522,19.522,0,0,0-69.152-15.92l.539-.029q-.041-.143-.083-.288l-.056-.2h-.313L-69-17.2c.154-1.822.215-2.994.339-6.6l.017-.492.467-.156Zm12.249,7.311c-.62-.562-1.054-.926-1.735-1.46-.392.507-.645.855-1.063,1.46Zm.333,16.662A13.715,13.715,0,0,1-58.182-1.75a22.579,22.579,0,0,1-6.753-6.274l-.129-.186A26.649,26.649,0,0,0-61.41-2.953l0,0A18.423,18.423,0,0,0-56.93.865,2.852,2.852,0,0,1-55.594-.476Z" transform="translate(399.574 7962.145)" fill="#fff"/>
    <path id="パス_4060" data-name="パス 4060" d="M21.27-32.443,19.4-28.376H9.642L7.513-24.021a17.087,17.087,0,0,1,10.049,4.713,10.593,10.593,0,0,1,3.182,7.656A10.841,10.841,0,0,1,19.7-6.915a12.783,12.783,0,0,1-2.62,3.708A13.34,13.34,0,0,1,13.566-.742,12.951,12.951,0,0,1,7.919.574,7.165,7.165,0,0,1,3.673-.419,2.773,2.773,0,0,1,2.345-2.608,1.579,1.579,0,0,1,2.9-3.792a1.952,1.952,0,0,1,1.388-.514,2.854,2.854,0,0,1,1.089.191,10.1,10.1,0,0,1,1.591.981A6.33,6.33,0,0,0,10.6-1.89a6.745,6.745,0,0,0,4.917-2.117,7.017,7.017,0,0,0,2.117-5.156,9.038,9.038,0,0,0-1.89-5.491,12.13,12.13,0,0,0-5.216-3.936,21.162,21.162,0,0,0-7.106-1.244L9.642-32.443Zm5,16.413a24.716,24.716,0,0,1,1.675-9.558,13.376,13.376,0,0,1,4.45-5.969,7.51,7.51,0,0,1,4.45-1.555q3.732,0,6.7,3.8,3.708,4.713,3.708,12.776a25.186,25.186,0,0,1-1.627,9.594,12.7,12.7,0,0,1-4.151,5.73A8.494,8.494,0,0,1,36.606.574q-4.642,0-7.728-5.479A22.288,22.288,0,0,1,26.271-16.03Zm4.689.6A30.521,30.521,0,0,0,32.611-4.5Q33.975-.933,36.678-.933a4.246,4.246,0,0,0,2.68-1.16,7.386,7.386,0,0,0,2.105-3.888,47.283,47.283,0,0,0,1.1-11.6,31.767,31.767,0,0,0-1.148-9.259,8.216,8.216,0,0,0-2.225-3.9,3.659,3.659,0,0,0-2.369-.79,3.762,3.762,0,0,0-2.9,1.459,12.19,12.19,0,0,0-2.345,6.245A58.05,58.05,0,0,0,30.96-15.432Zm19.811-.6a24.716,24.716,0,0,1,1.675-9.558,13.376,13.376,0,0,1,4.45-5.969,7.51,7.51,0,0,1,4.45-1.555q3.732,0,6.7,3.8,3.708,4.713,3.708,12.776a25.186,25.186,0,0,1-1.627,9.594,12.7,12.7,0,0,1-4.151,5.73A8.494,8.494,0,0,1,61.106.574q-4.642,0-7.728-5.479A22.288,22.288,0,0,1,50.771-16.03Zm4.689.6A30.521,30.521,0,0,0,57.111-4.5Q58.475-.933,61.178-.933a4.246,4.246,0,0,0,2.68-1.16,7.386,7.386,0,0,0,2.105-3.888,47.283,47.283,0,0,0,1.1-11.6,31.767,31.767,0,0,0-1.148-9.259,8.216,8.216,0,0,0-2.225-3.9,3.659,3.659,0,0,0-2.369-.79,3.762,3.762,0,0,0-2.9,1.459,12.19,12.19,0,0,0-2.345,6.245A58.05,58.05,0,0,0,55.46-15.432Z" transform="translate(412.27 8151.118)" fill="#1a1a1a"/>
    <path id="パス_4059" data-name="パス 4059" d="M1.512,1.458A19.778,19.778,0,0,0,9.4-5.184c2.268-3.24,3.537-6.669,4.32-11.691a20.888,20.888,0,0,0,.648,3.915A30.365,30.365,0,0,0,17.5-5.427a19.9,19.9,0,0,0,6.453,6.534,4.7,4.7,0,0,1,.783-1.35,1.663,1.663,0,0,1,1.377-.54H26.3l.027-.324a13.638,13.638,0,0,1-3.078-1.485A19.011,19.011,0,0,1,17.766-7.8,22.146,22.146,0,0,1,13.959-19.71c0-.243,0-.459.027-.837,1.053-.432,1.161-.486,1.161-.7,0-.27-.324-.351-3.267-.729.054.729.081,1.026.081,1.566a30.586,30.586,0,0,1-.621,5.778A25.916,25.916,0,0,1,6.453-3.672,20.812,20.812,0,0,1,1.3,1.107ZM30.483-8.991c1.512-1.836,3.132-2.943,4.32-2.943,1.377,0,3.4.81,6.237,2.511,3.132,1.863,4,2.3,5.049,2.592a6.7,6.7,0,0,0,1.755.243A4.722,4.722,0,0,0,51.3-8.046a10.341,10.341,0,0,0,2.484-3.186l-.621-.4a9.429,9.429,0,0,1-2.187,2.349,3.988,3.988,0,0,1-2.187.81c-1.269,0-2.673-.594-5.778-2.376-4-2.349-5.373-2.916-6.858-2.916-2.241,0-4.212,1.35-6.264,4.239Z" transform="translate(492.562 8148.324)" fill="#1a1a1a"/>
    <path id="パス_4058" data-name="パス 4058" d="M5.913-4.833c0,2.349,0,2.808-.054,6.588.027.216.135.3.405.3.918,0,1.323-.135,1.323-.4V1.485L7.533-4.833v-5.643c1.512-.351,2.322-.54,2.376-.567.243.621.351.945.459,1.3.216.837.324,1,.567,1,.459,0,.972-.756.972-1.458a2.146,2.146,0,0,0-.648-1.323,18.229,18.229,0,0,0-2.511-2.484l-.3.27a10.933,10.933,0,0,1,1.215,2.106c-2.781.3-3.564.351-4.7.4A51.169,51.169,0,0,0,10.5-17.874c.891-.027,1.215-.162,1.215-.432,0-.189-.27-.351-1.35-.729-.27-.108-.837-.3-1.377-.486A25.419,25.419,0,0,1,6.453-14.5a22.157,22.157,0,0,1-2.268,3.321c-1.215.027-1.728.054-2.025.054H1.4c.459,2.3.567,2.592.864,2.592.216,0,.405-.324.486-1.026,2.025-.3,2.214-.351,3.159-.54ZM1.269-18.2a10.436,10.436,0,0,1,2.106,2.322c.27.4.837,1.377.945,1.593.216.459.324.594.513.594a.561.561,0,0,0,.432-.3,2.9,2.9,0,0,0,.378-1.242,1.785,1.785,0,0,0-.459-.972,9.351,9.351,0,0,0-1.053-.81c.675-.756.675-.756.81-.918A24.748,24.748,0,0,0,7.56-21.06c1.134-.108,1.323-.189,1.323-.405,0-.243-.243-.351-1.512-.756-.324-.108-.864-.3-1.512-.513a19.341,19.341,0,0,1-2.214,5.4A12.01,12.01,0,0,0,1.431-18.5Zm13.878,1.026c.594-1.242.918-1.971,1.755-4.023.783-.108,1.08-.243,1.08-.459,0-.27-.459-.432-3-1.08a24.235,24.235,0,0,1-.837,3.915A28.488,28.488,0,0,1,11.475-12.2l.324.243a25.4,25.4,0,0,0,3.024-4.59h8.046v1.134c0,6.372-.621,12.15-1.512,14.094-.3.648-.486.783-1.053.783-.945,0-2.295-.108-5.454-.405l-.027.405A16.654,16.654,0,0,1,18.171.3a1.674,1.674,0,0,1,1.08,1.539c2.268-.162,3.294-.756,3.861-2.3a29.587,29.587,0,0,0,1.161-5.319c.3-2.16.324-2.565.621-10.287.594-.243.864-.459.864-.675,0-.108-.081-.243-.3-.432a17.007,17.007,0,0,0-1.485-1.215,10.973,10.973,0,0,0-1.3,1.215ZM1.4,1a31.091,31.091,0,0,0,2.97-7.452c.594-.135.837-.27.837-.513s-.081-.27-2.484-.864A27.157,27.157,0,0,1,.918.81ZM8.559-8.019A19.722,19.722,0,0,1,9.99-2.943a8.135,8.135,0,0,0,.216,1.458.372.372,0,0,0,.378.27c.54,0,1.161-1.107,1.161-2.052,0-.972-.918-2.592-2.835-4.941Zm5.589-4.725a20.45,20.45,0,0,1,3.375,6.291c.135.4.27.594.459.594.486,0,1.08-1.134,1.08-2.025,0-.648-.243-1.08-1.107-2.052a23.509,23.509,0,0,0-3.51-3.132Z" transform="translate(378.978 8148.324)" fill="#1a1a1a"/>
    <path id="パス_4057" data-name="パス 4057" d="M0,0H107.7V35.5H0Z" transform="translate(251.587 8118.545)" fill="#fff"/>
    <path id="パス_4057_-_アウトライン" data-name="パス 4057 - アウトライン" d="M-.381-.381H108.081V35.882H-.381Zm107.7.762H.381V35.12H107.319Z" transform="translate(251.587 8118.545)" fill="#4d4d4d"/>
    <path id="パス_4056" data-name="パス 4056" d="M8.36-9.69c.266-.342.361-.494.684-.988.646-.076.817-.133.817-.285,0-.171-.437-.323-1.862-.646A5.839,5.839,0,0,1,6.878-9.69H2.736A7.386,7.386,0,0,1,.969-9.9l.171.76c.323-.038,1.2-.114,1.52-.114H6.536A14.775,14.775,0,0,1,5.054-7.676,16.325,16.325,0,0,1,.912-4.636l.133.3A15.794,15.794,0,0,0,5.377-6.821,17.175,17.175,0,0,0,8-9.253h2.85a8.79,8.79,0,0,0,2.033,2.394,11.548,11.548,0,0,0,4.56,2.451A1.415,1.415,0,0,1,18.6-5.662v-.266a13.561,13.561,0,0,1-5.377-1.615,7.566,7.566,0,0,1-1.9-1.71h6.8c.114,0,.19-.057.19-.133a.585.585,0,0,0-.076-.171c-.684-.627-.893-.8-1.615-1.387A15.833,15.833,0,0,0,15.352-9.69ZM4.351-12.331H3.4c-.437,0-.646,0-1.178-.038.247,1.634.323,1.9.513,1.9.133,0,.19-.1.4-.741,1.881-.1,2.736-.171,7.087-.627,1.938-.209,2.2-.228,3.781-.494a11.7,11.7,0,0,1,1.14,1.311c.171.209.266.285.38.285.247,0,.437-.361.437-.817a1.405,1.405,0,0,0-.551-1.273,21.018,21.018,0,0,0-3.876-1.843l-.152.209a10.686,10.686,0,0,1,2.242,1.767c-1.539.114-6,.323-7.182.323a22.419,22.419,0,0,0,2.128-2.584c.722-.114.874-.19.874-.361,0-.057-.038-.095-.133-.152a17.876,17.876,0,0,0-1.843-.57A17.441,17.441,0,0,1,5.852-12.35ZM2.66,1.5A24.252,24.252,0,0,0,14.592-2.812c.4.038.57.057.646.057.19,0,.342-.1.342-.19,0-.133-.646-.532-1.748-1.1A17.734,17.734,0,0,1,9.614-1.235a25.882,25.882,0,0,1-7.03,2.47Zm.266-4.807A21.852,21.852,0,0,0,10.2-6.84c.285.019.532.038.57.038.209,0,.361-.076.361-.19,0-.133-.266-.3-1.558-.988A17.339,17.339,0,0,1,7.2-5.985,20.723,20.723,0,0,1,2.812-3.591ZM2.85-1.083A23.929,23.929,0,0,0,12.217-4.75a5.626,5.626,0,0,0,.589.057c.19,0,.323-.076.323-.171,0-.114-.437-.38-1.6-.969A16.964,16.964,0,0,1,8.474-3.724a23.608,23.608,0,0,1-5.7,2.356Zm22.458-9.8a19.177,19.177,0,0,0,1.254-3.287h4.313a.106.106,0,0,0,.114-.1.43.43,0,0,0-.095-.19c-.627-.646-.836-.855-1.52-1.482a14.827,14.827,0,0,0-1.121,1.33H23.427a16.924,16.924,0,0,1-2.185-.171l.114.722a14.679,14.679,0,0,1,1.957-.114H25.1a18.894,18.894,0,0,1-.931,3,18.855,18.855,0,0,1-3.192,5.453l.209.209a13.676,13.676,0,0,0,2.527-2.717,3.33,3.33,0,0,1,.893,1.273c.513,1.311.513,1.311.532,1.349.076.266.152.342.285.342.285,0,.57-.627.57-1.254a1.155,1.155,0,0,0-.494-.931,7.9,7.9,0,0,0-1.615-1.026,22.74,22.74,0,0,0,1.2-1.976h3.173a19.45,19.45,0,0,1-2.489,6.08A15.95,15.95,0,0,1,20.843.8l.171.247a14.386,14.386,0,0,0,1.52-.817A15.779,15.779,0,0,0,26.2-3.1a19.1,19.1,0,0,0,3.363-6.859c.874-.4.874-.4.874-.513a.363.363,0,0,0-.133-.228A9.245,9.245,0,0,0,28.918-11.7c-.266.342-.361.456-.665.817Zm7.752-1.482-.019-.931c.665-.19.874-.3.874-.437,0-.1-.057-.152-.209-.19-.228-.057-1.159-.228-1.938-.361.076,1.083.095,2.014.095,5.13,0,3.952-.019,5.225-.095,6.5.019.171.057.209.247.209a5.284,5.284,0,0,0,.855-.076c.19-.057.266-.114.285-.247C33.079-4.2,33.06-5.3,33.06-8.3Zm2.6,11.647c0,.133-.076.19-.209.209-1.577-.038-2.2-.076-3.8-.19v.3A9.507,9.507,0,0,1,34.1.171c.437.19.551.361.627.969A4.285,4.285,0,0,0,36.309.646a1.053,1.053,0,0,0,.665-1.007c-.038-1.2-.038-1.2-.038-2.66-.019-1.6-.019-1.6-.076-3.933V-14.8c.646-.19.76-.247.76-.418,0-.19-.3-.266-2.147-.494a15.073,15.073,0,0,1,.114,2.223Zm13.4-12.35v-1.957c.627-.209.8-.3.8-.456,0-.171-.209-.228-1.159-.342-.209-.019-.551-.057-.988-.133.057.893.076,1.33.076,1.9v.988H44.232a4.676,4.676,0,0,1-1.273-.152l.114.7a4.278,4.278,0,0,1,1.159-.114h3.553v3.192H42.636A8.237,8.237,0,0,1,40.945-9.6l.133.722a6.173,6.173,0,0,1,1.558-.133h6.935a31.7,31.7,0,0,1-2.964,2.28,11.238,11.238,0,0,0-1.2-.513c.038.646.038.836.057,1.235a37.847,37.847,0,0,1-5.092,2.641l.114.285a24.95,24.95,0,0,0,5-2.09v1.254c0,3.116-.019,3.42-.076,5.149.019.133.114.19.323.209l.8-.076c.095-.019.152-.076.209-.228V.247H53.6v.874c.019.133.095.209.266.209H53.9c.057,0,.171-.019.361-.019.494-.019.627-.095.646-.323-.1-2.242-.1-2.242-.114-6.783.532-.266.684-.38.684-.494,0-.057-.057-.133-.19-.247-.494-.38-.646-.494-1.14-.855-.342.342-.437.456-.779.836H47.823a29.823,29.823,0,0,0,3.306-2.451h6.916c.114,0,.228-.057.228-.133,0-.038-.038-.1-.133-.171-.741-.608-.988-.8-1.786-1.406-.4.437-.8.855-1.178,1.273H51.623a33.092,33.092,0,0,0,4.009-4.18c.19,0,.437.019.532.019.3,0,.532-.1.532-.209,0-.152-.114-.209-2.071-1.045a10.9,10.9,0,0,1-1.33,1.976c-.665-.57-1.178-1.007-1.558-1.311-.418.475-.551.627-.95,1.121Zm4.047.437a30.357,30.357,0,0,1-3.059,3.192h-.988v-3.192ZM46.74-5.871l.4-.247H53.58v2.565H46.74Zm6.84,2.755V-.19H46.74V-3.116Z" transform="translate(275.938 8144.078)" fill="#333"/>
  </g>
</svg>
