<svg xmlns="http://www.w3.org/2000/svg" width="456.931" height="289.742" viewBox="0 0 456.931 289.742">
  <g id="グループ_3125" data-name="グループ 3125" transform="translate(-656.852 -7909.211)">
    <g id="グループ_3124" data-name="グループ 3124">
      <path id="パス_4097" data-name="パス 4097" d="M0,0H456.931V283.8H0Z" transform="translate(656.853 7915.15)" fill="#fff"/>
      <path id="パス_4097_-_アウトライン" data-name="パス 4097 - アウトライン" d="M3,3V280.8H453.931V3H3M0,0H456.931V283.8H0Z" transform="translate(656.853 7915.15)" fill="#004700"/>
      <path id="パス_4096" data-name="パス 4096" d="M0,0H456.931V78.939H0Z" transform="translate(656.852 7909.211)" fill="#004700"/>
      <path id="パス_4095" data-name="パス 4095" d="M3.3-34.849a17.484,17.484,0,0,1,4.65-6.713,10.5,10.5,0,0,1,7-2.365q5.173,0,7.935,3.364A8.227,8.227,0,0,1,24.978-35.2q0,4.7-5.9,9.712a12.778,12.778,0,0,1,6,4.443A11.5,11.5,0,0,1,27.1-14.25,14.287,14.287,0,0,1,23.55-4.57Q18.916.762,10.125.762,5.776.762,4.205-.317A2.949,2.949,0,0,1,2.634-2.634,2.156,2.156,0,0,1,3.38-4.253a2.531,2.531,0,0,1,1.793-.7A5.486,5.486,0,0,1,6.792-4.7,19.064,19.064,0,0,1,9.236-3.539a15.513,15.513,0,0,0,2.634,1.19A8.757,8.757,0,0,0,14.377-2a7.548,7.548,0,0,0,5.634-2.507,8.3,8.3,0,0,0,2.4-5.935A11.44,11.44,0,0,0,21.3-15.33a8.659,8.659,0,0,0-1.809-2.7,13.152,13.152,0,0,0-3.745-2.3,12.1,12.1,0,0,0-4.856-1.031H9.871v-.952A13.113,13.113,0,0,0,14.9-24.121a9.563,9.563,0,0,0,3.666-3.586,9.453,9.453,0,0,0,1.143-4.6,7.085,7.085,0,0,0-2.047-5.284,6.972,6.972,0,0,0-5.094-2.015q-4.919,0-8.22,5.269ZM34.849-21.265A32.787,32.787,0,0,1,37.07-33.944a17.744,17.744,0,0,1,5.9-7.919,9.963,9.963,0,0,1,5.9-2.063q4.951,0,8.887,5.046,4.919,6.252,4.919,16.948A33.41,33.41,0,0,1,60.525-9.2a16.841,16.841,0,0,1-5.507,7.6A11.268,11.268,0,0,1,48.56.762Q42.4.762,38.308-6.506A29.565,29.565,0,0,1,34.849-21.265Zm6.221.793q0,8.887,2.19,14.5,1.809,4.729,5.4,4.729a5.633,5.633,0,0,0,3.555-1.539A9.8,9.8,0,0,0,55-7.935q1.46-5.459,1.46-15.393A42.139,42.139,0,0,0,54.939-35.61a10.9,10.9,0,0,0-2.952-5.173,4.853,4.853,0,0,0-3.142-1.047A4.991,4.991,0,0,0,45-39.9q-2.285,2.634-3.11,8.284A77.005,77.005,0,0,0,41.069-20.471Zm26.279-.793A32.787,32.787,0,0,1,69.57-33.944a17.744,17.744,0,0,1,5.9-7.919,9.963,9.963,0,0,1,5.9-2.063q4.951,0,8.887,5.046,4.919,6.252,4.919,16.948A33.41,33.41,0,0,1,93.025-9.2a16.841,16.841,0,0,1-5.507,7.6A11.268,11.268,0,0,1,81.06.762Q74.9.762,70.808-6.506A29.565,29.565,0,0,1,67.349-21.265Zm6.221.793q0,8.887,2.19,14.5,1.809,4.729,5.4,4.729a5.633,5.633,0,0,0,3.555-1.539A9.8,9.8,0,0,0,87.5-7.935q1.46-5.459,1.46-15.393A42.139,42.139,0,0,0,87.439-35.61a10.9,10.9,0,0,0-2.952-5.173,4.853,4.853,0,0,0-3.142-1.047A4.991,4.991,0,0,0,77.5-39.9q-2.285,2.634-3.11,8.284A77,77,0,0,0,73.569-20.471Z" transform="translate(762.111 8078.414)" fill="#95000a"/>
      <path id="パス_4094" data-name="パス 4094" d="M40.678-31.175c.344,0,.516-.129.516-.3,0-.129-.086-.258-.258-.43-1.806-1.634-2.365-2.107-4.257-3.655-1.2,1.462-1.548,1.892-2.752,3.4H7.654a25.8,25.8,0,0,1-5.289-.387l.258,1.677a40.5,40.5,0,0,1,5.031-.3h8.428c0,2.236,0,2.881-.086,4.171-.387,8.9-2.279,15.48-5.891,20.812a29.584,29.584,0,0,1-8.041,8.3l.344.645A30.141,30.141,0,0,0,6.751.043a30.512,30.512,0,0,0,8.17-9.46A35.481,35.481,0,0,0,18.447-20.9H31.433A81.917,81.917,0,0,1,30.272-8.3c-.645,3.741-1.118,5.289-1.806,6.063-.3.344-.6.43-1.634.43-1.849,0-4.9-.172-9.331-.473v.688c4.343.688,5.289.9,6.149,1.247a2.634,2.634,0,0,1,1.806,2.408c3.225-.473,4-.731,4.945-1.548,1.333-1.161,2.193-3.827,2.967-8.987a109.9,109.9,0,0,0,1.075-11.61c1.419-.774,1.634-.9,1.634-1.2,0-.086-.086-.215-.344-.43-1.247-.9-1.634-1.2-3.01-2.15a25.868,25.868,0,0,0-1.806,1.978h-12.3a59.751,59.751,0,0,0,.645-9.288ZM53.492-17.243H79.679V-2.107c0,.387-.129.516-.645.516h-.172c-5.547-.3-5.547-.3-7.654-.43l-.043.731c.43.086.9.129,1.333.172.86.086,1.29.172,1.333.172a5.718,5.718,0,0,1,2.322.688,3.609,3.609,0,0,1,1.333,2.322C82,1.2,82.732.731,82.775-1.29c0-3.139,0-6.364-.043-9.632V-30.917c1.2-.86,1.376-.989,1.376-1.247,0-.172-.129-.344-.473-.688-1.2-.989-1.591-1.29-2.752-2.15a12.9,12.9,0,0,0-1.634,2.15H53.922a29.283,29.283,0,0,0-3.569-2.193c.086,2.021.086,2.064.086,5.59,0,9.546-.086,21.629-.215,31.132,0,.559.258.731.989.731,1.763,0,2.279-.215,2.322-.946-.043-5.59-.043-5.762-.043-9.89ZM67.9-18.232V-31.863H79.679v13.631Zm-3.053,0H53.492V-31.863H64.844Z" transform="translate(868.477 8075.533)" fill="#95000a"/>
      <path id="パス_4093" data-name="パス 4093" d="M3.4-14.319c2.408-2.924,4.988-4.687,6.88-4.687,2.193,0,5.418,1.29,9.933,4,4.988,2.967,6.364,3.655,8.041,4.128a10.672,10.672,0,0,0,2.8.387,7.52,7.52,0,0,0,5.5-2.322,16.468,16.468,0,0,0,3.956-5.074l-.989-.645a15.017,15.017,0,0,1-3.483,3.741,6.351,6.351,0,0,1-3.483,1.29c-2.021,0-4.257-.946-9.2-3.784-6.364-3.741-8.557-4.644-10.922-4.644-3.569,0-6.708,2.15-9.976,6.751Z" transform="translate(965.524 8079.359)" fill="#95000a"/>
      <path id="パス_4092" data-name="パス 4092" d="M-76.291-9.145v1.7c0,.279.093.372.4.372a6.974,6.974,0,0,0,1.612-.186c.186-.093.248-.155.248-.372-.093-2.635-.124-4.247-.124-6.634,0-.775,0-1.8.031-3.224.775-.434.961-.589.992-.806v-.031c0-.155-.124-.279-.341-.465-.837-.589-1.085-.775-2.015-1.364-.465.589-.62.775-1.116,1.364h-8.618v-5.58c1.209-.434,1.395-.527,1.395-.806,0-.31-.372-.4-2.077-.558-.341,0-.9-.062-1.612-.124.155,1.364.155,1.364.186,7.068h-7.657a14.52,14.52,0,0,0-2.7-1.333c.062,2.511.062,3.72.062,5.363,0,.279-.031,2.759-.093,7.409,0,.31.124.4.5.4a9.256,9.256,0,0,0,1.55-.155.29.29,0,0,0,.248-.341v-1.7h8.091V-6.2c0,3.72,0,3.72-.062,8.184,0,.279.093.341.4.341a7.359,7.359,0,0,0,1.674-.186.278.278,0,0,0,.217-.31c-.093-6.355-.093-6.386-.093-10.974Zm0-.713h-8.9c-.031-4.433-.031-7.161-.031-8.215h8.928Zm-11.036,0h-8.091v-8.215h8.091v8.215ZM-52.762-1.55c0,.4-.093.5-.5.527A62.716,62.716,0,0,1-59.8-1.55v.527c4.433.806,5.053,1.147,5.146,2.852,3.348-.558,4.154-1.147,4.247-3.162-.031-3.534-.062-6.076-.062-7.409V-23.56c1.054-.248,1.426-.434,1.426-.806,0-.4-.217-.465-3.875-.961a31.3,31.3,0,0,1,.155,3.286Zm5.983-16A30.89,30.89,0,0,1-43-11.9a54.447,54.447,0,0,1,2.852,6.6c.248.775.434,1.054.713,1.054.589,0,1.116-1.55,1.116-3.193,0-1.085-.5-2.077-1.984-3.968a41.72,41.72,0,0,0-6.045-6.417ZM-65.658-3.875a26.7,26.7,0,0,0,4.371-5.084A40.111,40.111,0,0,0-57.35-16h.155c.961,0,1.364-.155,1.364-.527,0-.124-.093-.217-.279-.31a28.366,28.366,0,0,0-3.317-1.209,35.854,35.854,0,0,1-1.86,5.487A38.335,38.335,0,0,1-66.03-4.216Zm54.374-4.247v5.859c0,.465,0,.527-.031,2.139.062,1.426.31,1.55,3.41,1.55a37.385,37.385,0,0,0,4.34-.155c.961-.186,1.3-.465,1.3-1.023,0-.465-.124-.558-.868-.9-.31-.124-.4-.279-.4-.682v-.186l.155-4.65h-.465C-4.65-2.418-4.96-1.178-5.239-.682c-.217.4-.434.465-1.829.465-2.263,0-2.325-.031-2.325-.527V-8.122h1.488v.775c0,.341.093.372.744.372,1.054,0,1.4-.124,1.4-.5-.093-3.007-.124-4.991-.124-15.252.682-.341,1.023-.651,1.023-.868,0-.093-.093-.217-.31-.4-.744-.62-.992-.806-1.767-1.4a19.221,19.221,0,0,0-1.3,1.426H-16a15.082,15.082,0,0,0-2.387-1.55c.124,2.046.155,3.224.155,5.735,0,7.471-.031,9.517-.124,12.4,0,.341.093.372.806.372,1.054,0,1.271-.093,1.271-.527v-.589H-15A9.645,9.645,0,0,1-17.36-2.108C-18.941-.279-20.677.62-24.738,1.705l.062.465a22.364,22.364,0,0,0,4.123-.806,10.284,10.284,0,0,0,5.828-4.123,10.09,10.09,0,0,0,1.736-5.363Zm3.379-10.819h-8.37V-23.25h8.37Zm0,.713v4.216h-8.37v-4.216Zm0,4.929v4.464h-8.37V-13.3Zm-16.12-5.766c.062-3.6.062-3.6.062-5.456.93-.341,1.116-.465,1.116-.682,0-.31-.372-.372-3.348-.713a29.794,29.794,0,0,1,.186,4.557c0,.527,0,1.3.031,2.294H-28.4a7.6,7.6,0,0,1-2.232-.279l.186,1.147a9.456,9.456,0,0,1,2.046-.155h2.418c-.031,2.325-.062,3.751-.186,5.673h-2.914a7.415,7.415,0,0,1-2.17-.248L-31-11.78a10.6,10.6,0,0,1,1.922-.186h2.852A21.183,21.183,0,0,1-27.373-6.51,17.843,17.843,0,0,1-31.9.558l.372.372A15.358,15.358,0,0,0-26.2-5.084a15.829,15.829,0,0,0,1.3-3.472,16.9,16.9,0,0,1,3.472,4.619c.62,1.178.682,1.24.961,1.24.434,0,.775-.806.775-1.86a2.61,2.61,0,0,0-1.3-2.263,19.373,19.373,0,0,0-3.782-2.2,20.906,20.906,0,0,0,.465-2.945h5.363c.155,0,.279-.093.279-.186a.7.7,0,0,0-.124-.279c-.93-.961-1.209-1.24-2.232-2.17-.682.806-.868,1.054-1.519,1.922h-1.7c.155-2.139.217-3.6.217-5.673h4.9c.186,0,.31-.062.31-.155a.5.5,0,0,0-.093-.248,24.237,24.237,0,0,0-2.17-2.2c-.682.806-.868,1.054-1.519,1.891Zm44.919,13.7c.31.651.4.806.527,1.085a12.464,12.464,0,0,0,4.5,4.495,13.148,13.148,0,0,0,3.937,1.736,3.248,3.248,0,0,1,1.984-2.17l.031-.434A15.132,15.132,0,0,1,24.087-2.7a8.074,8.074,0,0,1-2.511-2.666H31.868c.155,0,.31-.093.31-.217q0-.093-.186-.279C30.69-6.882,30.69-6.882,29.3-8L27.652-6.076H21.08a14.143,14.143,0,0,0,.62-3.162h4.65v.651c.062.217.155.31.434.31a6.974,6.974,0,0,0,1.395-.155c.155-.062.217-.155.248-.372-.062-2.759-.062-2.79-.093-7.75.713-.372.93-.558.93-.713,0-.093-.093-.217-.4-.5-.527-.372-1.054-.806-1.643-1.271-.527.558-.682.744-1.147,1.3H15.9a24.13,24.13,0,0,0-2.294-1.3c.093,2.015.093,2.759.093,4.681,0,2.294,0,2.914-.093,6.107.031.279.155.372.4.372A11.022,11.022,0,0,0,15.469-8a.455.455,0,0,0,.217-.372v-.868h4A11.737,11.737,0,0,1,19.1-6.076H13.423a10.18,10.18,0,0,1-2.883-.31l.31,1.271a8.229,8.229,0,0,1,2.573-.248h5.394a9.036,9.036,0,0,1-2.666,3.782A17.574,17.574,0,0,1,10.509,1.55l.124.465a15.755,15.755,0,0,0,2.945-.806A13.174,13.174,0,0,0,18.29-1.612a10.331,10.331,0,0,0,2.542-3.751Zm-5.208-8.773v-2.883H26.35v2.883Zm10.664.713v3.472H15.686v-3.472ZM9.176-18.972v-5.394c1.054-.31,1.4-.465,1.4-.713,0-.31-.341-.4-1.829-.558-.372-.031-.9-.093-1.612-.186.093,1.457.124,2.2.124,3.441v3.41H4.867a7.476,7.476,0,0,1-2.046-.279l.31,1.209a4.832,4.832,0,0,1,1.736-.217h2.17A51.119,51.119,0,0,1,2.6-4.867l.341.279a29.9,29.9,0,0,0,4.681-9.827L7.409-9.207,7.068,1.984c.031.279.124.372.465.372H7.6c.093,0,.279-.031.527-.031.837,0,1.085-.124,1.085-.558v-16.4a10.551,10.551,0,0,1,1.7,3.224c.279.837.279.837.434.992a.564.564,0,0,0,.248.186c.434,0,.93-.961.93-1.8,0-.558-.186-.868-.837-1.426a13.925,13.925,0,0,0-2.48-1.7v-3.1h3.875c.155,0,.279-.093.279-.186a.341.341,0,0,0-.093-.186l-2.046-2.046c-.527.744-.682.961-1.271,1.7Zm9.7-3.193V-24.49c.961-.279,1.24-.4,1.24-.651,0-.279-.868-.465-3.255-.682.062.961.093,1.4.093,2.573v1.085H14.136a6.728,6.728,0,0,1-2.294-.341l.279,1.3a6.906,6.906,0,0,1,2.015-.248h2.821c-.031.837-.031,1.147-.093,2.356,0,.248.124.372.4.372a6.974,6.974,0,0,0,1.395-.155c.186-.062.248-.217.248-.527-.031-.992-.031-1.4-.031-2.046h3.968c0,1.271,0,1.271-.031,2.387,0,.248.124.372.4.372,1.612-.093,1.612-.124,1.612-.62-.062-1.023-.062-1.395-.062-2.139h6.417c.217,0,.372-.093.372-.186,0-.062-.031-.124-.124-.217a24.735,24.735,0,0,0-2.573-2.2c-.713.806-.93,1.054-1.612,1.891h-2.48v-2.356c.837-.186,1.209-.372,1.209-.62s-.4-.372-1.7-.5c-.341-.062-.806-.093-1.519-.186a19.724,19.724,0,0,1,.093,2.449v1.209Zm25.3,9.238A34.46,34.46,0,0,0,48.019-18.6c1.4-.31,1.55-.372,1.55-.62,0-.093-.062-.186-.341-.5-.744-.651-.992-.868-1.829-1.55-.651.651-.868.837-1.488,1.55H44.175v-4.557c.93-.31,1.178-.465,1.178-.713,0-.31-.4-.4-1.891-.527-.341-.031-.868-.093-1.55-.155a10.511,10.511,0,0,1,.248,2.7v3.255H39.68a11.588,11.588,0,0,1-2.418-.279l.217,1.147A16.375,16.375,0,0,1,39.68-19h6.231A31.963,31.963,0,0,1,42.1-12.648a29.3,29.3,0,0,1-5.177,5.487l.341.465a25.89,25.89,0,0,0,4.9-3.937v5.394c-.062,4.464-.093,6.851-.093,7.192.093.248.217.31.682.31h.4c.775,0,1.023-.124,1.116-.527-.062-1.457-.062-1.457-.093-7.13v-6.665a13.654,13.654,0,0,1,3.813,3.534c.558.837.589.868.775,1.023a1.984,1.984,0,0,0,.341.186c.372,0,.682-.713.682-1.488a2.311,2.311,0,0,0-1.426-2.17,16.8,16.8,0,0,0-4.185-1.643ZM55.025-14.2V-.155H49.538A22.239,22.239,0,0,1,46.314-.4L46.593.775A14.961,14.961,0,0,1,49.538.558H65.751c.155,0,.31-.093.31-.217a.4.4,0,0,0-.155-.217,38.678,38.678,0,0,0-2.883-2.7c-.961,1.054-1.24,1.395-2.077,2.418H57.164V-14.2h7.75a.306.306,0,0,0,.31-.248.533.533,0,0,0-.124-.217c-1.24-1.147-1.643-1.488-2.945-2.573l-1.8,2.325H57.164v-9.331c.9-.341,1.24-.558,1.24-.806,0-.279-.372-.4-1.984-.558-.31-.031-.961-.093-1.612-.186a25.847,25.847,0,0,1,.217,3.875v7.006h-4.4a13.055,13.055,0,0,1-2.728-.248l.248,1.178a19.408,19.408,0,0,1,2.48-.217Zm34.751-3.937h9.858c.217,0,.341-.062.341-.186a.61.61,0,0,0-.124-.248c-1.147-.992-1.488-1.3-2.666-2.263-.837.837-1.085,1.116-1.891,1.984H75.547a12.008,12.008,0,0,1-2.852-.31l.217,1.209a11.445,11.445,0,0,1,2.635-.186h3.627a17.11,17.11,0,0,1-2.2,3.007,21.94,21.94,0,0,1-4.929,4.34l.279.434A18.322,18.322,0,0,0,77.1-13.3a8.414,8.414,0,0,1,2.387,2.418c.186.248.248.31.5.341a27.812,27.812,0,0,1-8.06,4.154l.155.5a27.871,27.871,0,0,0,7.192-2.573A16.481,16.481,0,0,0,85.9-14.508c1.054-.341,1.209-.4,1.209-.589,0-.093-.062-.186-.279-.372-.682-.558-.9-.713-1.612-1.271-.558.465-.713.589-1.24,1.085H79.608a15.652,15.652,0,0,0,1.891-2.48h6.386V-10.2c.062,1.581.341,1.674,5.332,1.674,5.766,0,6.6-.155,6.6-1.178a.754.754,0,0,0-.651-.744c-.558-.217-.558-.217-.558-.372v-.713l.186-2.449-.372-.031a30.206,30.206,0,0,1-1.4,3.441c-.186.31-.341.341-1.519.341H94.24c-.806.031-1.271.031-1.55.031-.837,0-2.325-.062-2.542-.093-.31-.062-.372-.155-.372-.589v-1.767a30.577,30.577,0,0,0,6.572-2.325c.4,0,.992.031,1.116.031.372,0,.589-.093.589-.279,0-.217-.4-.465-2.635-1.674a20.432,20.432,0,0,1-5.642,3.689Zm-5.8,3.193a15.637,15.637,0,0,1-3.5,4.03,1.7,1.7,0,0,0,.248-.9c0-.527-.341-.806-1.395-1.209a10.118,10.118,0,0,0-1.922-.527c.62-.527.93-.806,1.519-1.395ZM82.77-23.064v-1.519c1.023-.279,1.3-.4,1.3-.62,0-.279-.341-.372-1.829-.527-.341-.031-.9-.093-1.55-.186a13.918,13.918,0,0,1,.124,1.984c0,.248,0,.527-.031.868H74.865a11.248,11.248,0,0,1-2.7-.248l.217,1.116a13.864,13.864,0,0,1,2.48-.155h5.921c0,.558-.031.9-.093,1.953.031.186.124.248.31.248a5.258,5.258,0,0,0,1.674-.155c.093-.062.124-.124.124-.31-.031-.4-.062-.62-.062-.806l.031-.558v-.372h5.952c0,.589-.031.93-.062,1.922,0,.217.062.279.372.279,1.4,0,1.674-.062,1.705-.434-.031-.837-.031-1.116-.031-1.767h9.486c.186,0,.31-.062.31-.186a.61.61,0,0,0-.124-.248c-1.271-1.023-1.674-1.333-2.914-2.325-.837.837-1.116,1.116-1.984,2.046H90.706c0-.341,0-.341.031-1.519,1.054-.279,1.3-.4,1.3-.62,0-.279-.775-.434-3.441-.713a15.3,15.3,0,0,1,.155,2.6,1.173,1.173,0,0,0-.031.248ZM75.206-5.27a11.016,11.016,0,0,1-2.635-.217l.217,1.116a10.772,10.772,0,0,1,2.418-.186h5.642A6.642,6.642,0,0,1,79.112-.868c-1.333,1.4-3.162,2.232-6.789,3.131l.124.465c3.813-.4,6.448-1.364,8.37-3.069a6.639,6.639,0,0,0,2.077-4.216h5.828v2.046c0,1.581-.031,2.449-.124,4.526,0,.248.093.341.372.341a5.714,5.714,0,0,0,1.643-.186.291.291,0,0,0,.155-.279c-.062-3.6-.062-3.782-.062-4.557V-4.557H100.1c.124,0,.279-.124.279-.217a.61.61,0,0,0-.124-.248C99.045-6.076,98.673-6.386,97.4-7.347c-.837.837-1.085,1.116-1.922,2.077H90.737V-6.6c1.023-.434,1.085-.465,1.085-.682,0-.279-.248-.31-3.224-.589a18.794,18.794,0,0,1,.124,2.6H82.987c.062-.4.062-.527.155-1.457.992-.341,1.147-.4,1.147-.62s-.527-.372-1.86-.558c-.341-.031-.837-.124-1.488-.217a6.884,6.884,0,0,1,.124,1.333,13.715,13.715,0,0,1-.093,1.519Z" transform="translate(885.317 7962.145)" fill="#fff"/>
      <path id="パス_4092_-_アウトライン" data-name="パス 4092 - アウトライン" d="M71.918,3.5l-.466-1.748.7-.174C75.634.712,77.381-.083,78.6-1.358a5.389,5.389,0,0,0,1.364-2.491H75.206a10.037,10.037,0,0,0-2.284.173l-.694.134-.308-1.585-.325.075-.553-1.77.637-.231a28.452,28.452,0,0,0,7.156-3.521,8.726,8.726,0,0,0-1.708-1.851A18.107,18.107,0,0,1,72.6-9.7l-.552.238L71.065-11l.595-.384A21.1,21.1,0,0,0,76.441-15.6a20.736,20.736,0,0,0,1.455-1.83H75.547a10.777,10.777,0,0,0-2.515.176l-.693.119-.53-2.953,1.042.235a11.312,11.312,0,0,0,2.7.293H80.5a.962.962,0,0,1-.5-.725l-.013-.079,0-.08c.014-.238.026-.44.037-.617.014-.233.026-.42.035-.586H74.865a13.188,13.188,0,0,0-2.386.149l-.662.088-.549-2.824L72.316-24a10.554,10.554,0,0,0,2.549.232h5.243c0-.054,0-.107,0-.159a13.3,13.3,0,0,0-.119-1.9l-.105-.913.91.13c.789.113,1.358.168,1.514.182h.009a10.149,10.149,0,0,1,1.594.24,1.017,1.017,0,0,1,.87.991,1.006,1.006,0,0,1-.674.928,4.653,4.653,0,0,1-.628.227v.275h4.563A12.612,12.612,0,0,0,87.9-25.8l-.153-.918.926.1c1.453.152,2.261.258,2.789.367.385.079,1.287.265,1.287,1.051,0,.673-.57.945-1.316,1.164,0,.1,0,.19-.007.266h3.748c.718-.766,1.02-1.068,1.79-1.838l.449-.448.5.4c.523.418.9.715,1.25,1,.478.38.93.739,1.666,1.331l.085.068.06.091a1.142,1.142,0,0,1,.243.641.928.928,0,0,1-1.019.895H97.313l.32.261c.965.788,1.372,1.141,2.111,1.782l.57.494.073.063.053.08a1.142,1.142,0,0,1,.243.641.934.934,0,0,1-1.05.895H95.925c1.012.549,1.643.9,2.027,1.141.323.2.81.513.81,1.064a.96.96,0,0,1-.156.513l.951.079L99.32-11.5v.356l.078.031A1.441,1.441,0,0,1,100.529-9.7c0,1.207-.921,1.526-1.723,1.67-.273.049-.6.087-.981.117l0,0c1.292.977,1.675,1.3,2.89,2.356l.071.062.053.079a1.142,1.142,0,0,1,.243.641,1,1,0,0,1-.988.926H91.415v1.182c0,.772,0,.955.062,4.545v.012a.993.993,0,0,1-.471.869l-.028.018a6.03,6.03,0,0,1-2.008.287.989.989,0,0,1-1.081-1.05V1.983c.091-2.04.123-2.9.123-4.494V-3.848H83.471A6.87,6.87,0,0,1,81.288.189c-2.024,1.8-4.809,2.826-8.766,3.244ZM89.431-4.561v2.05c0,1.507-.03,2.4-.107,4.15.281-.013.541-.038.73-.064C90-1.711,90-1.909,90-2.666v-2.6h.031V-7.025l-.646-.063c.034.417.048.805.048,1.818Zm-7.861,0-.025.133A7.32,7.32,0,0,1,79.622-.375q-.129.135-.263.263a8.876,8.876,0,0,0,.989-.759,5.878,5.878,0,0,0,1.826-3.69h-.012l.126-.816c.039-.251.051-.38.083-.726.016-.17.037-.389.067-.694l.039-.385L82.347-7.2c-.17-.016-.362-.044-.587-.079.009.15.013.308.013.49a13.93,13.93,0,0,1-.09,1.523H81.7l-.035.19-.051.514Zm14.847-.7h2.471c-.469-.4-.847-.7-1.42-1.141C97.076-6.006,96.82-5.725,96.417-5.266Zm-4.971-.713h3.712c.68-.78.962-1.088,1.743-1.869l.016-.016c-.95.038-2.163.048-3.7.048h-.846a.883.883,0,0,1,.159.533.955.955,0,0,1-.493.861,4.656,4.656,0,0,1-.592.288Zm-7.664,0H88.01a13.221,13.221,0,0,0-.078-1.406c-.012-.123-.025-.262-.04-.425l-.056-.617a2.145,2.145,0,0,1-.659-1.744v-4.036a8.354,8.354,0,0,1-.829.3,17.179,17.179,0,0,1-5.093,5.116l.494.076c.3.047.561.088.744.105l.034,0a11.028,11.028,0,0,1,1.535.29c.621.186.936.512.936.97a.966.966,0,0,1-.581.891,4.927,4.927,0,0,1-.613.249Zm-8.644,0h5.187c.022-.283.031-.522.031-.81a6.174,6.174,0,0,0-.114-1.216l-.028-.165q-.3.168-.617.335A25.772,25.772,0,0,1,75.138-5.979Zm13.456-4.235c.027.676.067.688.322.768a21.009,21.009,0,0,0,4.3.211c2.013,0,3.563-.017,4.583-.1A3,3,0,0,0,99.1-9.6a.567.567,0,0,0,.008-.108s0,0,0-.007a.532.532,0,0,0-.137-.056l-.032-.009-.031-.012a3.311,3.311,0,0,1-.624-.28.83.83,0,0,1-.383-.67,5.066,5.066,0,0,1-.271.537c-.411.678-.984.678-2.122.678H94.254c-.811.031-1.282.031-1.564.031-.8,0-2.354-.059-2.642-.1L90.009-9.6a1.118,1.118,0,0,1-.942-1.284v-7.258h-.474Zm-7.669-.16-.512.395q-.151.117-.3.23a15.792,15.792,0,0,0,5.207-5.161l.137-.2.229-.074.268-.087c-.224-.179-.4-.319-.624-.489l-.092-.071c-.074.063-.142.12-.21.179h.245l-.693,1.089A16.349,16.349,0,0,1,81.7-11.039l.077.01-.705.544-.139.117Zm9.56-.6c.484.028,1.538.068,2.205.068.273,0,.73,0,1.523-.03h1.3c.267,0,.737,0,.931-.028a31.929,31.929,0,0,0,1.315-3.282v0a2.36,2.36,0,0,1-.294.017c-.055,0-.143,0-.308-.01-.189-.007-.433-.017-.649-.02a31.152,31.152,0,0,1-6.022,2.172ZM79.317-12.263c.219.256.432.529.635.814a.922.922,0,0,0,.064-.362c0-.064,0-.066-.055-.113A2.81,2.81,0,0,0,79.317-12.263Zm-.426-1.654c.21.066.434.142.678.23l.013,0a3.032,3.032,0,0,1,1.664,1.112,13.586,13.586,0,0,0,1.4-1.663H79.218C79.1-14.119,78.994-14.015,78.891-13.917Zm1.1-4.222-.2.356a17.621,17.621,0,0,1-2.281,3.12l-.005.006q-.191.215-.375.417c.489-.419.782-.688,1.3-1.2l.208-.208h.007l.448-.485a13.87,13.87,0,0,0,1.567-2Zm10.492.713v3.076a18.109,18.109,0,0,0,4.443-3.056l.021-.02Zm5.043,1.4a16.884,16.884,0,0,1-1.853,1.449c.792-.306,1.574-.647,2.364-1.03l.135-.065C95.962-15.793,95.742-15.913,95.528-16.029Zm-10.036-1.4.164.128c.217.169.387.3.539.419.325.251.566.438.982.777v-1.324Zm-4.355,1.063H83.7c.357-.33.551-.492.938-.814l.3-.248H81.882C81.606-17.008,81.371-16.672,81.137-16.364Zm15.119-2.48h2.2c-.4-.347-.735-.633-1.218-1.031C96.866-19.5,96.614-19.229,96.256-18.844Zm-5.627-.713h4.355l.11-.118c.576-.622.865-.934,1.59-1.658l.309-.309H91.417c0,.279.011.567.028,1.032l0,.043,0,.042A1.056,1.056,0,0,1,90.629-19.557Zm-7.963,0h5.779a.925.925,0,0,1-.495-.872v-.022c.012-.4.025-.7.035-.942,0-.088.007-.171.01-.25H83.461l-.013.239c0,.08.011.188.025.334.01.112.023.242.035.4l0,.054a1,1,0,0,1-.42.887A.987.987,0,0,1,82.667-19.557Zm6.764-3.5v.709c0,.369-.012.641-.027,1.018-.006.142-.012.3-.019.472.21,0,.454-.009.633-.024C90-21.5,90-21.794,90-22.351v-.713c0-.35,0-.35.031-1.538l.012-.438c-.213-.027-.429-.053-.633-.076.033.434.055,1,.055,1.8a.846.846,0,0,1-.026.2.144.144,0,0,0,0,.046Zm-7.936.027v.682c0,.454-.019.764-.057,1.382l-.006.105c.272-.007.481-.021.634-.035l0-.039c-.017-.187-.031-.335-.031-.483v-.039l.03-.539v-3.036c-.133-.013-.328-.033-.573-.062.026.343.037.674.037,1.165C81.526-23.678,81.526-23.39,81.495-23.033Zm14.953-.027H98.9l-.627-.5-.758-.6C97.127-23.769,96.852-23.487,96.448-23.06ZM7.595,3.065H7.533a1.045,1.045,0,0,1-1.169-1l-.006-.05L6.7-9.236l.023-.558a27.045,27.045,0,0,1-3.2,5.62l-.44.614L1.717-4.677l.253-.507a49.915,49.915,0,0,0,4.2-12.366H4.867a4.139,4.139,0,0,0-1.523.184l-.714.225-.786-3.066,1.138.265a6.8,6.8,0,0,0,1.885.26H6.545v-2.7c0-1.253-.032-1.979-.123-3.4l-.055-.859.854.111c.737.1,1.239.154,1.579.182h.015a9.387,9.387,0,0,1,1.6.247,1.039,1.039,0,0,1,.862,1.016c0,.69-.606.987-1.4,1.239v3.8c.236-.31.419-.567.759-1.047l.485-.685.185.185-.4-1.89,1.109.284a6.032,6.032,0,0,0,2.118.319h2.112v-.376c0-1.111-.028-1.549-.085-2.422L16.1-26.6l.825.075a24.929,24.929,0,0,1,2.6.33c.388.082,1.3.273,1.3,1.058,0,.669-.535.95-1.24,1.178v1.09h2.551v-.5a19.014,19.014,0,0,0-.09-2.383l-.083-.884.88.115c.307.04.565.068.793.093.29.032.522.057.73.093a8.257,8.257,0,0,1,1.445.224c.76.223.873.706.873.974,0,.682-.631,1-1.209,1.173v1.095h1.435c.532-.648.775-.925,1.417-1.652l.442-.5.72.564a23.974,23.974,0,0,1,2.435,2.1l.008.007a1.019,1.019,0,0,1,.332.718.979.979,0,0,1-1.081.895H25.481c.005.377.019.755.058,1.387v.043a1.2,1.2,0,0,1-.272.872h.471c.325-.388.511-.6.963-1.08l.445-.472.509.4.4.316c.424.338.825.657,1.215.932l.034.024.031.028c.361.325.638.607.638,1.023,0,.5-.381.82-.927,1.133.028,4.528.03,4.639.088,7.234l.068-.08.536.429C31.13-7.437,31.13-7.437,32.43-6.416l.033.026.03.03a1.123,1.123,0,0,1,.394.78.977.977,0,0,1-1.019.926H22.96a6.084,6.084,0,0,0,1.511,1.362,14.379,14.379,0,0,0,7.423,1.933l.732.028L32.512.279,32.1.442A2.55,2.55,0,0,0,30.516,2.2l-.233.617-.632-.188A13.843,13.843,0,0,1,25.538.816,13.152,13.152,0,0,1,20.877-3.8a10.845,10.845,0,0,1-2.1,2.7,13.916,13.916,0,0,1-4.95,2.972,16.444,16.444,0,0,1-3.05.837l-.659.14L9.9,2.008a1.084,1.084,0,0,1-.6.832,2.541,2.541,0,0,1-1.179.194c-.121,0-.226.01-.318.018C7.728,3.059,7.663,3.065,7.595,3.065ZM8.117-9.18,7.788,1.63c.093-.007.207-.014.334-.014.174,0,.294-.006.376-.014V-18.263H8.467V-24.9l.14-.041c-.2-.017-.43-.042-.718-.076.051.912.074,1.616.074,2.632v4.119h-.2l-.027.138q-.346,1.8-.779,3.5l1.38.243ZM24.635-1.565A15.267,15.267,0,0,0,26.29-.385l.009.006a11.608,11.608,0,0,0,3.155,1.468,4.1,4.1,0,0,1,.8-1.137A15.3,15.3,0,0,1,24.635-1.565ZM9.916-5.955V1.009l.356-.127a16.9,16.9,0,0,0,5.42-3,8.267,8.267,0,0,0,2.03-2.534h-4.3a7.545,7.545,0,0,0-2.389.224l-.7.189Zm9.665.588-.105.265A9.678,9.678,0,0,1,17.2-1.585q.317-.26.6-.534l.008-.007a9.605,9.605,0,0,0,2.372-3.5l.1-.248.034-.109-.057-.086h.084l.067-.216a13.232,13.232,0,0,0,.583-2.955H20.4l-.007.072a12.413,12.413,0,0,1-.553,3.1h.023l-.11.277-.135.428Zm9-.7h1.995c-.377-.3-.65-.515-1.187-.944ZM22.02-6.785h5.306l.77-.9a10.642,10.642,0,0,1-1.311.117,1.065,1.065,0,0,1-1.115-.824l-.027-.1v-.042H22.328A14.737,14.737,0,0,1,22.02-6.785Zm-12.1-.5.809.218a9.574,9.574,0,0,0,2.7.286h5.149A8.849,8.849,0,0,0,18.9-8.529H16.395v.21l-.007.05a1.153,1.153,0,0,1-.493.839l-.115.086-.139.035a11.009,11.009,0,0,1-1.629.145,1.045,1.045,0,0,1-1.107-1L12.9-8.217v-.05c.031-1.052.051-1.824.065-2.468-.275.665-.75,1.213-1.372,1.213a1.12,1.12,0,0,1-.78-.425c-.246-.252-.292-.39-.574-1.238-.1-.286-.2-.572-.324-.851ZM14.368-17.83c.042,1.2.042,1.978.042,3.477,0,2.214,0,2.873-.083,5.76.221-.012.46-.033.649-.054v-8.825C14.749-17.611,14.56-17.722,14.368-17.83Zm12.69,8.587V-9c.218-.014.47-.04.654-.064-.056-2.493-.057-2.739-.087-7.426l0-.5.384-.2c.1-.052.184-.1.256-.138-.32-.234-.64-.486-.971-.75-.1.116-.2.223-.3.343h.067ZM16.395-10.66h9.247v-2.055H16.395Zm-5.419-2.463a12.6,12.6,0,0,1,.609,1.491l.1.288a1.979,1.979,0,0,0,.135-.684c0-.254,0-.382-.587-.886C11.143-12.985,11.059-13.055,10.976-13.123Zm-1.06-2.451A14.654,14.654,0,0,1,12.143-14l.005,0a3.532,3.532,0,0,1,.844.949c0-.386,0-.807,0-1.31,0-1.38,0-2.142-.034-3.2H9.916Zm6.479.729h9.247V-16.31H16.395Zm2.889-3.6h3a1.118,1.118,0,0,1-.175-.624v-.02c.024-.847.029-1.046.03-1.659H19.59c0,.348.01.725.029,1.315v.022A1.284,1.284,0,0,1,19.284-18.441Zm-3.178,0h.246a1.107,1.107,0,0,1-.2-.655v-.036c.04-.789.054-1.186.068-1.611H14.136a6.132,6.132,0,0,0-1.77.209l.486.486-.008-.177,1.089.561A24.05,24.05,0,0,1,16.106-18.441Zm-5.257-.527h1.081l-.617-.617C11.163-19.378,11.025-19.2,10.849-18.968Zm12.707-3.193v.709c0,1.12,0,1.26-.021,2.03.205-.013.416-.028.577-.046-.052-.9-.052-1.277-.052-1.984v-3.5c-.144-.022-.32-.042-.531-.065.027.464.027.859.027,1.645Zm-5.89,0h.027l-.027.735c-.009.248-.016.45-.022.643-.012.39-.024.735-.052,1.338.216-.015.44-.04.607-.064-.027-.912-.027-1.307-.027-1.943v-3.523c-.164-.02-.346-.04-.547-.062.028.514.043.979.043,1.787Zm10.5,0h1.91c-.36-.32-.677-.576-1.121-.925C28.661-22.756,28.452-22.512,28.162-22.161ZM-86.986,3.034A.986.986,0,0,1-88.1,1.984v-.01c.062-4.459.062-4.459.062-8.174V-8.436h-6.674v1a.984.984,0,0,1-.733,1.013l-.029.009a9.546,9.546,0,0,1-1.745.182,1.055,1.055,0,0,1-1.2-1.112v-.009c.077-5.761.093-7.2.093-7.4,0-1.651,0-2.843-.062-5.345l-.026-1.069,1,.393a14.839,14.839,0,0,1,2.631,1.284h6.75a48.06,48.06,0,0,0-.178-6.279l-.1-.861.863.075.515.046c.437.04.814.075,1.036.075h.032l.032,0a11.778,11.778,0,0,1,1.8.242c.765.2.926.668.926,1.022a1.069,1.069,0,0,1-.6.961,5.593,5.593,0,0,1-.793.341v4.375h7.579c.334-.4.5-.6.89-1.094l.4-.5.54.342c.815.516,1.119.731,1.725,1.158l.319.225.028.019.026.022a1.335,1.335,0,0,1,.588,1v.081l-.007.05c-.071.5-.408.777-.993,1.122-.023,1.215-.023,2.125-.023,2.808,0,2.353.03,3.959.124,6.609v.025a1.029,1.029,0,0,1-.64,1.006l-.033.017-.035.013a7.381,7.381,0,0,1-1.861.231A1.007,1.007,0,0,1-77-7.44v-1h-7.48c0,3.923.005,4.248.093,10.255v.01a.969.969,0,0,1-.662.968l-.014.006A7.738,7.738,0,0,1-86.986,3.034Zm.368-12.183V-6.2c0,3.614,0,3.722-.057,7.808.311-.015.641-.05.867-.084C-85.9-4.523-85.9-4.6-85.9-9.145v-.708c-.031-4.435-.031-7.185-.031-8.22v-6.792l.345-.124-.352-.033c-.21,0-.471-.021-.784-.049.072.867.077,1.912.1,6.281l0,.712h0Zm-10.329-9.9c.037,1.816.037,2.889.037,4.291,0,.351-.047,3.98-.089,7.1.286-.013.632-.047.872-.079V-18.63C-96.422-18.794-96.67-18.921-96.948-19.047Zm21.365,9.9v1.364c.3-.017.623-.053.837-.087-.087-2.51-.115-4.1-.115-6.387,0-.762,0-1.806.031-3.239l.009-.4.353-.2c.172-.1.3-.173.4-.234l-.136-.1c-.444-.313-.71-.5-1.131-.776-.119.148-.227.278-.35.427h.1Zm-8.9-1.417H-77v-6.8H-84.51C-84.509-16.1-84.505-13.834-84.484-10.567Zm-10.225,0h6.674v-6.8h-6.674ZM43.152,2.972h-.4A1.244,1.244,0,0,1,41.4,2.2l-.045-.12V1.953c0-.342.03-2.629.093-7.2V-8.962a28.518,28.518,0,0,1-3.8,2.86l-.562.366L35.955-7.28l.513-.426a28.562,28.562,0,0,0,5.062-5.366,31.356,31.356,0,0,0,3.259-5.222H39.68a15.664,15.664,0,0,0-2.118.15l-.656.077-.54-2.853,1.05.233a10.946,10.946,0,0,0,2.264.262h1.771v-2.546a9.862,9.862,0,0,0-.233-2.554l-.193-.935.951.086c.4.037.758.074,1.042.1.2.021.37.039.506.051A9.873,9.873,0,0,1,45.15-26c.793.214.911.729.911,1.017,0,.666-.542.979-1.178,1.217v3.344h.707c.369-.414.6-.647.935-.973.109-.108.23-.227.372-.369l.453-.453.5.4c.847.69,1.1.911,1.848,1.566l.032.028.028.031a1.457,1.457,0,0,1,.523.97.973.973,0,0,1-.7.945,7.921,7.921,0,0,1-1.1.3c-.424.751-.806,1.394-1.191,2l.723.123a12.42,12.42,0,0,0,2.609.238h3.693v-6.3a25.138,25.138,0,0,0-.211-3.785l-.118-.923.921.132c.581.083,1.177.142,1.5.174l.086.009a10.3,10.3,0,0,1,1.723.257c.743.215.9.666.9,1.006,0,.663-.608,1.024-1.24,1.289v8.139h2.137l2.035-2.631.565.471c1.291,1.076,1.719,1.437,2.973,2.6l.02.019a1.166,1.166,0,0,1,.332.718,1,1,0,0,1-1.019.957H57.873V-.864H60.61c.687-.839,1-1.214,1.889-2.187l.462-.507.522.445a38.869,38.869,0,0,1,2.891,2.7,1.036,1.036,0,0,1,.4.751.977.977,0,0,1-1.019.926H49.538a14.273,14.273,0,0,0-2.832.208l-.651.106-.671-2.832,1.029.147a21.388,21.388,0,0,0,3.124.241h4.778V-13.489H50.623a18.817,18.817,0,0,0-2.392.212l-.647.081-.514-2.442c-.555.845-1.134,1.635-1.871,2.567a17.124,17.124,0,0,1,3.514,1.484A3.017,3.017,0,0,1,50.495-8.8c0,1.092-.478,2.2-1.391,2.2-.09,0-.277,0-.734-.3l-.031-.021-.029-.024a4.417,4.417,0,0,1-.9-1.164,12.011,12.011,0,0,0-2.522-2.567v5.294c.031,5.656.031,5.656.092,7.1l0,.1-.022.094C44.71,2.972,43.7,2.972,43.152,2.972Zm-.373-1.417h.373a3.1,3.1,0,0,0,.4-.02C43.5.279,43.5-.018,43.466-5.39v-7.934c-.25.354-.515.718-.8,1.1l-.2.268.4-.413v7.139C42.818-1.57,42.788.668,42.779,1.554Zm19.08-1.7h2.768c-.542-.535-.932-.9-1.542-1.434C62.6-1.043,62.3-.692,61.858-.151Zm-6.125,0h.722v-24.58l.33-.125c-.129-.014-.273-.029-.433-.044l-.087-.009c-.161-.016-.388-.039-.65-.068a28.453,28.453,0,0,1,.119,3.06ZM46.716-11.007a12.98,12.98,0,0,1,1.846,2.068l.015.021c.223.334.351.524.435.641a2.126,2.126,0,0,0,.065-.527c0-.609-.171-1.038-1.071-1.556A13.555,13.555,0,0,0,46.716-11.007ZM43.492-13.36l.08.053.053-.065A33.713,33.713,0,0,0,47.4-18.946l.155-.277.31-.069c.166-.037.4-.088.612-.139-.389-.34-.645-.561-1.033-.881-.212.21-.382.379-.587.6h.16l-.463,1.005A31.4,31.4,0,0,1,43.492-13.36Zm17.758-1.547h2.535c-.521-.47-.918-.81-1.519-1.314Zm-18.381-4.8h.6v-5.072l.042-.014-.106-.009H43.4c-.146-.013-.323-.032-.527-.053l-.1-.01a12.8,12.8,0,0,1,.094,1.9ZM-25.285,2.967l-.238-1.786.6-.161C-21.015-.023-19.373-.862-17.9-2.571l.005-.006a8.576,8.576,0,0,0,2-4.1,1.137,1.137,0,0,1-.35.225,3.5,3.5,0,0,1-1.3.155,2.324,2.324,0,0,1-.96-.12.954.954,0,0,1-.554-.961V-7.4c.041-1.275.07-2.391.089-3.857h-4.7c-.079.685-.16,1.227-.286,1.837a19.07,19.07,0,0,1,3.4,2.042,3.3,3.3,0,0,1,1.574,2.821c0,1.536-.6,2.569-1.484,2.569-.736,0-.968-.441-1.588-1.619l-.007-.013a16.66,16.66,0,0,0-2.493-3.587,15.393,15.393,0,0,1-1.015,2.444A15.953,15.953,0,0,1-31.106,1.5l-.491.362L-32.892.568l.482-.5a17.061,17.061,0,0,0,4.369-6.814,19.882,19.882,0,0,0,1.031-4.51h-2.069a9.888,9.888,0,0,0-1.806.176l-.666.111-.629-2.911,1.1.265a6.771,6.771,0,0,0,2,.228h2.247c.077-1.348.108-2.51.134-4.256h-1.7a8.705,8.705,0,0,0-1.9.14l-.727.153L-31.5-20.3l1.051.273a6.934,6.934,0,0,0,2.054.256H-26.7c-.013-.661-.013-1.2-.013-1.585a29.057,29.057,0,0,0-.181-4.473l-.106-.89.89.1c1.434.164,2.342.272,2.854.378.307.064,1.122.234,1.122,1.039,0,.623-.482.917-1.116,1.172,0,1.3-.005,1.665-.05,4.258h.358c.485-.624.714-.918,1.325-1.64l.474-.56.543.492a21.8,21.8,0,0,1,1.667,1.644c0-2.466-.033-3.634-.154-5.633l-.078-1.29,1.13.628a15.53,15.53,0,0,1,2.282,1.461h7.185c.4-.467.6-.694,1.127-1.218l.437-.437.589.448c.706.537.971.738,1.7,1.341l.008.006a1.289,1.289,0,0,1,.557.941c0,.462-.327.878-1.023,1.29,0,9.944.033,11.887.124,14.809v.022A1.084,1.084,0,0,1-5.83-6.416a4.069,4.069,0,0,1-1.331.15,2.092,2.092,0,0,1-.924-.128.962.962,0,0,1-.529-.952v-.066h-.071v6.46c.373.028,1.048.028,1.616.028a7.385,7.385,0,0,0,1.187-.06l.018-.032.006-.011a35.234,35.234,0,0,0,1.32-5.288l.12-.56h1.77l-.179,5.371v.174c0,.016,0,.03,0,.043.711.326,1.27.587,1.27,1.538,0,1.356-1.315,1.61-1.876,1.719l-.011,0a37.01,37.01,0,0,1-4.463.166,8.292,8.292,0,0,1-3.139-.3,1.931,1.931,0,0,1-.979-1.923V-.138c.031-1.605.031-1.664.031-2.125v-5.15h-.362a10.24,10.24,0,0,1-1.785,5.055,10.955,10.955,0,0,1-6.2,4.4,23.1,23.1,0,0,1-4.238.831Zm14.679-3.1c.028.618.088.645.152.675A9.593,9.593,0,0,0-7.905.717,36.845,36.845,0,0,0-3.694.574c.6-.117.708-.235.715-.244A.361.361,0,0,0-2.972.248c0-.011,0-.021,0-.03C-3.082.152-3.3.052-3.412,0a1.277,1.277,0,0,1-.83-1.325,4.761,4.761,0,0,1-.376.985c-.451.832-1.162.832-2.45.832A11.6,11.6,0,0,1-9.24.4,1.048,1.048,0,0,1-10.1-.744V-8.126h-.474v5.863C-10.575-1.792-10.575-1.73-10.606-.133Zm-6.221-1.508a10.628,10.628,0,0,1-.854.884,8.936,8.936,0,0,0,2.368-2.4l0-.007A9.392,9.392,0,0,0-13.7-8.126h-.593l0,.042A10.42,10.42,0,0,1-16.827-1.641ZM-25.514-11.97l-.006.066A22.049,22.049,0,0,1-26.7-6.275a19.763,19.763,0,0,1-1.118,2.6A15.288,15.288,0,0,0-26.829-5.4l0-.007a15.094,15.094,0,0,0,1.248-3.331l.121-.455a20.172,20.172,0,0,0,.448-2.847l.032-.3.028-.386c.161-2.22.215-3.638.215-5.622v0h-.012l.012-.721c.062-3.59.062-3.59.062-5.444v-.495l.014-.005c-.229-.029-.477-.059-.736-.089.078.843.094,1.63.094,3.751,0,.514,0,1.291.031,2.272v.026h.009l0,.2.016.5h-.022v.014c-.032,2.426-.067,3.828-.185,5.668h0l0,.048-.042.656Zm4.724,7.71c.079.151.192.364.3.552a3.274,3.274,0,0,0,.1-.849c0-.615-.154-1.026-1.027-1.7l-.007-.005a12.115,12.115,0,0,0-1.14-.79A17.426,17.426,0,0,1-20.79-4.26ZM-7.2-7.684h.035a5.609,5.609,0,0,0,.679-.031C-6.568-10.553-6.6-12.7-6.6-22.723v-.438l.392-.2a4.432,4.432,0,0,0,.411-.23c-.441-.365-.7-.571-1.079-.859-.155.163-.282.306-.44.488H-7.2Zm-10.436-.031h.086c.27,0,.447-.007.562-.017V-23.819c-.217-.158-.409-.289-.62-.422.065,1.358.084,2.512.084,4.463C-17.519-12.7-17.546-10.477-17.632-7.715Zm2.066-1.829h6.953V-12.59h-6.953Zm-6.088-3.131h1.64c-.315-.317-.576-.569-.936-.9C-21.2-13.274-21.384-13.033-21.654-12.675Zm-1.828-.713h.591c.493-.656.718-.946,1.332-1.671l.474-.561.543.494c.733.667,1.094,1.008,1.592,1.511.007-1.113.01-2.427.012-4.042a1.415,1.415,0,0,1-.189.012h-4.192C-23.33-16.192-23.376-14.979-23.482-13.388Zm7.916-1.333h6.953v-2.8h-6.953Zm-6.139-4.34h1.556c-.288-.309-.532-.557-.865-.87C-21.258-19.633-21.443-19.4-21.7-19.061Zm6.139-.589h6.953v-2.892h-6.953ZM-55.317,2.658l-.043-.791C-55.421.755-55.436.491-59.926-.326l-.582-.106V-2.357l.8.1a60.093,60.093,0,0,0,6.237.51v-20.3a30.627,30.627,0,0,0-.152-3.223l-.079-.884.88.119c1.95.264,2.852.4,3.386.53.33.082,1.1.276,1.1,1.133,0,.817-.715,1.155-1.426,1.358V-8.742c0,.887.014,2.284.032,4.218.009.947.019,2.011.03,3.185V-1.3c-.121,2.622-1.525,3.276-4.838,3.828ZM-55-.4A2.206,2.206,0,0,1-54.048,1c2.69-.518,2.872-1.057,2.933-2.348-.01-1.165-.02-2.223-.03-3.164-.019-1.938-.032-3.338-.032-4.232V-24.121l.546-.129.089-.021c-.448-.073-1.007-.153-1.6-.235.065.875.085,1.519.085,2.465V-1.55A1.1,1.1,0,0,1-53.2-.316l-.044,0-.044,0C-53.946-.346-54.506-.373-55-.4ZM-65.66-2.915l-1.325-1.214.389-.514a37.888,37.888,0,0,0,4.653-8.182l0-.005a34.969,34.969,0,0,0,1.822-5.37l.171-.746.73.227a29.2,29.2,0,0,1,3.444,1.262,1.03,1.03,0,0,1,.65.933,1.116,1.116,0,0,1-.775,1.064,3.089,3.089,0,0,1-1,.166A39.629,39.629,0,0,1-60.708-8.55a27.337,27.337,0,0,1-4.473,5.2Zm5.027-9.369c-.494,1.2-1.054,2.382-1.669,3.531q.21-.293.433-.612A39.3,39.3,0,0,0-57.992-16.3l.191-.409h.126c-.37-.134-.8-.283-1.248-.432A39.476,39.476,0,0,1-60.632-12.284Zm21.2,8.745c-.891,0-1.2-.963-1.387-1.542a53.886,53.886,0,0,0-2.8-6.489A30.173,30.173,0,0,0-47.327-17.1l-.5-.615,1.548-1,.4.345a42.321,42.321,0,0,1,6.141,6.518c1.6,2.027,2.134,3.139,2.134,4.4C-37.607-5.872-38.093-3.538-39.432-3.538ZM-43.3-13.887c.3.511.607,1.053.926,1.65a54.711,54.711,0,0,1,2.9,6.712l0,.008c.029.092.056.171.081.239a6.046,6.046,0,0,0,.365-2.162c0-.9-.462-1.789-1.832-3.53C-41.715-12.067-42.505-13.016-43.3-13.887Z" transform="translate(885.317 7962.145)" fill="#fff"/>
      <path id="パス_4055" data-name="パス 4055" d="M21.27-32.443,19.4-28.376H9.642L7.513-24.021a17.087,17.087,0,0,1,10.049,4.713,10.593,10.593,0,0,1,3.182,7.656A10.841,10.841,0,0,1,19.7-6.915a12.783,12.783,0,0,1-2.62,3.708A13.34,13.34,0,0,1,13.566-.742,12.951,12.951,0,0,1,7.919.574,7.165,7.165,0,0,1,3.673-.419,2.773,2.773,0,0,1,2.345-2.608,1.579,1.579,0,0,1,2.9-3.792a1.952,1.952,0,0,1,1.388-.514,2.854,2.854,0,0,1,1.089.191,10.1,10.1,0,0,1,1.591.981A6.33,6.33,0,0,0,10.6-1.89a6.745,6.745,0,0,0,4.917-2.117,7.017,7.017,0,0,0,2.117-5.156,9.038,9.038,0,0,0-1.89-5.491,12.13,12.13,0,0,0-5.216-3.936,21.162,21.162,0,0,0-7.106-1.244L9.642-32.443Zm5,16.413a24.716,24.716,0,0,1,1.675-9.558,13.376,13.376,0,0,1,4.45-5.969,7.51,7.51,0,0,1,4.45-1.555q3.732,0,6.7,3.8,3.708,4.713,3.708,12.776a25.186,25.186,0,0,1-1.627,9.594,12.7,12.7,0,0,1-4.151,5.73A8.494,8.494,0,0,1,36.606.574q-4.642,0-7.728-5.479A22.288,22.288,0,0,1,26.271-16.03Zm4.689.6A30.521,30.521,0,0,0,32.611-4.5Q33.975-.933,36.678-.933a4.246,4.246,0,0,0,2.68-1.16,7.386,7.386,0,0,0,2.105-3.888,47.283,47.283,0,0,0,1.1-11.6,31.767,31.767,0,0,0-1.148-9.259,8.216,8.216,0,0,0-2.225-3.9,3.659,3.659,0,0,0-2.369-.79,3.762,3.762,0,0,0-2.9,1.459,12.19,12.19,0,0,0-2.345,6.245A58.05,58.05,0,0,0,30.96-15.432Zm19.811-.6a24.716,24.716,0,0,1,1.675-9.558,13.376,13.376,0,0,1,4.45-5.969,7.51,7.51,0,0,1,4.45-1.555q3.732,0,6.7,3.8,3.708,4.713,3.708,12.776a25.186,25.186,0,0,1-1.627,9.594,12.7,12.7,0,0,1-4.151,5.73A8.494,8.494,0,0,1,61.106.574q-4.642,0-7.728-5.479A22.288,22.288,0,0,1,50.771-16.03Zm4.689.6A30.521,30.521,0,0,0,57.111-4.5Q58.475-.933,61.178-.933a4.246,4.246,0,0,0,2.68-1.16,7.386,7.386,0,0,0,2.105-3.888,47.283,47.283,0,0,0,1.1-11.6,31.767,31.767,0,0,0-1.148-9.259,8.216,8.216,0,0,0-2.225-3.9,3.659,3.659,0,0,0-2.369-.79,3.762,3.762,0,0,0-2.9,1.459,12.19,12.19,0,0,0-2.345,6.245A58.05,58.05,0,0,0,55.46-15.432Z" transform="translate(964.941 8151.118)" fill="#1a1a1a"/>
      <path id="パス_4054" data-name="パス 4054" d="M1.512,1.458A19.778,19.778,0,0,0,9.4-5.184c2.268-3.24,3.537-6.669,4.32-11.691a20.888,20.888,0,0,0,.648,3.915A30.365,30.365,0,0,0,17.5-5.427a19.9,19.9,0,0,0,6.453,6.534,4.7,4.7,0,0,1,.783-1.35,1.663,1.663,0,0,1,1.377-.54H26.3l.027-.324a13.638,13.638,0,0,1-3.078-1.485A19.011,19.011,0,0,1,17.766-7.8,22.146,22.146,0,0,1,13.959-19.71c0-.243,0-.459.027-.837,1.053-.432,1.161-.486,1.161-.7,0-.27-.324-.351-3.267-.729.054.729.081,1.026.081,1.566a30.586,30.586,0,0,1-.621,5.778A25.916,25.916,0,0,1,6.453-3.672,20.812,20.812,0,0,1,1.3,1.107Z" transform="translate(1042.458 8151.047)" fill="#1a1a1a"/>
      <path id="パス_4053" data-name="パス 4053" d="M12.636-8.37c0,.3-.081.351-.432.378C10.1-8.1,9.45-8.154,7.587-8.37v.378a9.152,9.152,0,0,1,2.97.918A1.649,1.649,0,0,1,11.583-5.7,5.058,5.058,0,0,0,13.8-6.372a1.734,1.734,0,0,0,.81-1.62c-.054-3.24-.054-3.753-.054-4.131V-21.06c.81-.108,1.134-.27,1.134-.54,0-.3-.513-.4-3.159-.783.081,1.134.108,1.674.108,2.592Zm5.373-9.261a27.85,27.85,0,0,1,5.832,6.615c.243.378.378.513.594.513.405,0,.648-.513.648-1.35a2.967,2.967,0,0,0-1.161-2.538,27.847,27.847,0,0,0-5.616-3.537ZM1.863-7.209A20.075,20.075,0,0,0,5.319-10.8a24.762,24.762,0,0,0,3.348-5.481c1-.108,1.4-.27,1.4-.54,0-.243-.3-.378-1.566-.729-.351-.081-.891-.243-1.593-.459a22.26,22.26,0,0,1-1.647,4.536A32.339,32.339,0,0,1,1.539-7.479ZM1.971,2C8.883.837,13.392-1.323,17.361-5.373a26.505,26.505,0,0,0,3.672-4.644c1.161-.027,1.431-.108,1.431-.4,0-.27-.108-.324-2.862-1.431a20.2,20.2,0,0,1-5.481,7.209A31.185,31.185,0,0,1,1.836,1.62Zm27.891-.54a19.778,19.778,0,0,0,7.884-6.642c2.268-3.24,3.537-6.669,4.32-11.691a20.888,20.888,0,0,0,.648,3.915,30.365,30.365,0,0,0,3.132,7.533A19.9,19.9,0,0,0,52.3,1.107a4.7,4.7,0,0,1,.783-1.35,1.663,1.663,0,0,1,1.377-.54h.189l.027-.324A13.638,13.638,0,0,1,51.6-2.592,19.011,19.011,0,0,1,46.116-7.8,22.146,22.146,0,0,1,42.309-19.71c0-.243,0-.459.027-.837,1.053-.432,1.161-.486,1.161-.7,0-.27-.324-.351-3.267-.729.054.729.081,1.026.081,1.566a30.586,30.586,0,0,1-.621,5.778A25.916,25.916,0,0,1,34.8-3.672a20.812,20.812,0,0,1-5.157,4.779Zm41.5-8.8c.108,0,.216-.081.216-.162a.233.233,0,0,0-.081-.162c-.864-.783-1.134-1-2.052-1.755-.486.621-.648.81-1.134,1.458H64.233c.3-.54.324-.594.675-1.215.729-.108.945-.216.945-.459,0-.189-.378-.3-2.322-.729-.27.7-.513,1.269-1.053,2.4H60.8A13.219,13.219,0,0,1,58-8.235l.189,1a25.971,25.971,0,0,1,2.646-.108h1.35c-.324.621-.567,1.053-1.269,2.3-.405.675-.486.81-1.134,1.917v.081c0,.135.27.216.81.216.7,0,.864-.054,1.026-.432.243-.405.4-.675.513-.891a19.612,19.612,0,0,1,3.105,1.485C63.5-.729,61.614.405,58.185,1.566l.162.351A16.18,16.18,0,0,0,63.585.27a11.484,11.484,0,0,0,2.889-2.187A9.378,9.378,0,0,1,68.256-.459c.27.27.405.351.54.351.189,0,.324-.378.324-.891a1.923,1.923,0,0,0-.378-1.269c-.216-.27-.486-.405-1.35-.756a12.378,12.378,0,0,0,2.052-4.32Zm-3.7,0a10.651,10.651,0,0,1-1.728,3.78c-1.026-.351-1.7-.567-3.51-1.107q1.053-1.944,1.458-2.673Zm-.4,9.315a19,19,0,0,0,6.264-3.24A13.644,13.644,0,0,0,75.87-3.591a19.259,19.259,0,0,0,5.292,5.265c.432-1.107.81-1.35,2.187-1.4L83.4-.081a17.2,17.2,0,0,1-6.669-4.725,21.91,21.91,0,0,0,2.484-5.67,23.92,23.92,0,0,0,.918-4.644h2.808c.054,0,.108-.081.108-.162a.323.323,0,0,0-.108-.216c-1.188-1-1.188-1-2.241-1.917-.648.729-.837.945-1.512,1.674H74.034a50.1,50.1,0,0,0,1.863-5.13c.918-.189,1.161-.3,1.161-.513,0-.3-.108-.324-2.943-1.026a25.551,25.551,0,0,1-.864,4.347,39.226,39.226,0,0,1-3.267,8.532l.324.243a27.726,27.726,0,0,0,2.241-3.348,22.007,22.007,0,0,0,2.43,7.587,16.56,16.56,0,0,1-1.7,2.268A17.952,17.952,0,0,1,67.1,1.62ZM78.165-15.12a23.074,23.074,0,0,1-2.484,8.829,19.809,19.809,0,0,1-2.727-7.1c.324-.648.513-1.026.837-1.728ZM66.15-16.227h5.778c.135,0,.243-.081.243-.162a.445.445,0,0,0-.135-.243c-.837-.7-1.107-.945-2-1.647-.459.621-.594.81-1,1.431H66.15c-.027-2.862-.027-2.862-.027-3.024v-1.215a2.083,2.083,0,0,1,.4-.162,3.636,3.636,0,0,0,.513-.216.343.343,0,0,0,.108-.189c0-.3-.3-.351-2.727-.594.081.783.135,1.944.135,2.673v2.727H60.642A18,18,0,0,1,58.1-17.01l.162.918a23.306,23.306,0,0,1,2.349-.135h2.97a15.125,15.125,0,0,1-1.458,2.16A22.134,22.134,0,0,1,58.1-9.99l.162.27a14.89,14.89,0,0,0,3.4-2.349,19.671,19.671,0,0,0,2.889-2.916v1.053c0,.783-.027,1.431-.081,2.835v.135c0,.162.162.27.432.27h.054c.135,0,.243-.027.3-.027.675-.027.837-.108.891-.378v-3.375a9.078,9.078,0,0,1,2.727,2.241c.648.81.7.837.972.837.3,0,.459-.3.459-.81a2.23,2.23,0,0,0-.4-1.35,6.512,6.512,0,0,0-2.457-1.053c-1.08-.324-1.08-.324-1.3-.378ZM59.7-21.3a10.123,10.123,0,0,1,1.836,3.24c.189.621.351.864.567.864.351,0,.918-.891.918-1.4,0-.756-.783-1.512-3.051-2.943Zm7.884,4.077c.783-.783.783-.783,1.539-1.62,1-1.134,1-1.134,1.323-1.485a2.2,2.2,0,0,1,.486-.054,1.671,1.671,0,0,0,.432-.081c.081-.054.135-.108.135-.189,0-.216-.378-.432-1.323-.756-.243-.081-.648-.216-1.161-.405a16.475,16.475,0,0,1-1.809,4.4Zm19.6,8.235c1.512-1.836,3.132-2.943,4.32-2.943,1.377,0,3.4.81,6.237,2.511,3.132,1.863,4,2.3,5.049,2.592a6.7,6.7,0,0,0,1.755.243A4.722,4.722,0,0,0,108-8.046a10.34,10.34,0,0,0,2.484-3.186l-.621-.4a9.429,9.429,0,0,1-2.187,2.349,3.988,3.988,0,0,1-2.187.81c-1.269,0-2.673-.594-5.778-2.376-4-2.349-5.373-2.916-6.858-2.916-2.241,0-4.212,1.35-6.264,4.239Zm32.13,4.158c0,2.349,0,2.808-.054,6.588.027.216.135.3.4.3.918,0,1.323-.135,1.323-.4V1.485l-.054-6.318v-5.643c1.512-.351,2.322-.54,2.376-.567.243.621.351.945.459,1.3.216.837.324,1,.567,1,.459,0,.972-.756.972-1.458a2.146,2.146,0,0,0-.648-1.323,18.229,18.229,0,0,0-2.511-2.484l-.3.27a10.933,10.933,0,0,1,1.215,2.106c-2.781.3-3.564.351-4.7.4a51.168,51.168,0,0,0,5.535-6.642c.891-.027,1.215-.162,1.215-.432,0-.189-.27-.351-1.35-.729-.27-.108-.837-.3-1.377-.486a25.419,25.419,0,0,1-2.538,5.022,22.157,22.157,0,0,1-2.268,3.321c-1.215.027-1.728.054-2.025.054H114.8c.459,2.3.567,2.592.864,2.592.216,0,.4-.324.486-1.026,2.025-.3,2.214-.351,3.159-.54ZM114.669-18.2a10.436,10.436,0,0,1,2.106,2.322c.27.4.837,1.377.945,1.593.216.459.324.594.513.594a.561.561,0,0,0,.432-.3,2.9,2.9,0,0,0,.378-1.242,1.785,1.785,0,0,0-.459-.972,9.35,9.35,0,0,0-1.053-.81c.675-.756.675-.756.81-.918a24.747,24.747,0,0,0,2.619-3.132c1.134-.108,1.323-.189,1.323-.405,0-.243-.243-.351-1.512-.756-.324-.108-.864-.3-1.512-.513a19.341,19.341,0,0,1-2.214,5.4,12.01,12.01,0,0,0-2.214-1.161Zm13.878,1.026c.594-1.242.918-1.971,1.755-4.023.783-.108,1.08-.243,1.08-.459,0-.27-.459-.432-3-1.08a24.236,24.236,0,0,1-.837,3.915,28.488,28.488,0,0,1-2.673,6.615l.324.243a25.4,25.4,0,0,0,3.024-4.59h8.046v1.134c0,6.372-.621,12.15-1.512,14.094-.3.648-.486.783-1.053.783-.945,0-2.295-.108-5.454-.405l-.027.405A16.654,16.654,0,0,1,131.571.3a1.674,1.674,0,0,1,1.08,1.539c2.268-.162,3.294-.756,3.861-2.3a29.586,29.586,0,0,0,1.161-5.319c.3-2.16.324-2.565.621-10.287.594-.243.864-.459.864-.675,0-.108-.081-.243-.3-.432a17.01,17.01,0,0,0-1.485-1.215,10.971,10.971,0,0,0-1.3,1.215ZM114.8,1a31.091,31.091,0,0,0,2.97-7.452c.594-.135.837-.27.837-.513s-.081-.27-2.484-.864A27.157,27.157,0,0,1,114.318.81Zm7.155-9.018a19.721,19.721,0,0,1,1.431,5.076,8.135,8.135,0,0,0,.216,1.458.372.372,0,0,0,.378.27c.54,0,1.161-1.107,1.161-2.052,0-.972-.918-2.592-2.835-4.941Zm5.589-4.725a20.45,20.45,0,0,1,3.375,6.291c.135.4.27.594.459.594.486,0,1.08-1.134,1.08-2.025,0-.648-.243-1.08-1.107-2.052a23.508,23.508,0,0,0-3.51-3.132Z" transform="translate(821.425 8148.324)" fill="#1a1a1a"/>
      <path id="パス_4052" data-name="パス 4052" d="M0,0H107.7V35.5H0Z" transform="translate(698.658 8118.545)" fill="#fff"/>
      <path id="パス_4052_-_アウトライン" data-name="パス 4052 - アウトライン" d="M-.381-.381H108.081V35.882H-.381Zm107.7.762H.381V35.12H107.319Z" transform="translate(698.658 8118.545)" fill="#4d4d4d"/>
      <path id="パス_4051" data-name="パス 4051" d="M8.36-9.69c.266-.342.361-.494.684-.988.646-.076.817-.133.817-.285,0-.171-.437-.323-1.862-.646A5.839,5.839,0,0,1,6.878-9.69H2.736A7.386,7.386,0,0,1,.969-9.9l.171.76c.323-.038,1.2-.114,1.52-.114H6.536A14.775,14.775,0,0,1,5.054-7.676,16.325,16.325,0,0,1,.912-4.636l.133.3A15.794,15.794,0,0,0,5.377-6.821,17.175,17.175,0,0,0,8-9.253h2.85a8.79,8.79,0,0,0,2.033,2.394,11.548,11.548,0,0,0,4.56,2.451A1.415,1.415,0,0,1,18.6-5.662v-.266a13.561,13.561,0,0,1-5.377-1.615,7.566,7.566,0,0,1-1.9-1.71h6.8c.114,0,.19-.057.19-.133a.585.585,0,0,0-.076-.171c-.684-.627-.893-.8-1.615-1.387A15.833,15.833,0,0,0,15.352-9.69ZM4.351-12.331H3.4c-.437,0-.646,0-1.178-.038.247,1.634.323,1.9.513,1.9.133,0,.19-.1.4-.741,1.881-.1,2.736-.171,7.087-.627,1.938-.209,2.2-.228,3.781-.494a11.7,11.7,0,0,1,1.14,1.311c.171.209.266.285.38.285.247,0,.437-.361.437-.817a1.405,1.405,0,0,0-.551-1.273,21.018,21.018,0,0,0-3.876-1.843l-.152.209a10.686,10.686,0,0,1,2.242,1.767c-1.539.114-6,.323-7.182.323a22.419,22.419,0,0,0,2.128-2.584c.722-.114.874-.19.874-.361,0-.057-.038-.095-.133-.152a17.876,17.876,0,0,0-1.843-.57A17.441,17.441,0,0,1,5.852-12.35ZM2.66,1.5A24.252,24.252,0,0,0,14.592-2.812c.4.038.57.057.646.057.19,0,.342-.1.342-.19,0-.133-.646-.532-1.748-1.1A17.734,17.734,0,0,1,9.614-1.235a25.882,25.882,0,0,1-7.03,2.47Zm.266-4.807A21.852,21.852,0,0,0,10.2-6.84c.285.019.532.038.57.038.209,0,.361-.076.361-.19,0-.133-.266-.3-1.558-.988A17.339,17.339,0,0,1,7.2-5.985,20.723,20.723,0,0,1,2.812-3.591ZM2.85-1.083A23.929,23.929,0,0,0,12.217-4.75a5.626,5.626,0,0,0,.589.057c.19,0,.323-.076.323-.171,0-.114-.437-.38-1.6-.969A16.964,16.964,0,0,1,8.474-3.724a23.608,23.608,0,0,1-5.7,2.356Zm22.458-9.8a19.177,19.177,0,0,0,1.254-3.287h4.313a.106.106,0,0,0,.114-.1.43.43,0,0,0-.095-.19c-.627-.646-.836-.855-1.52-1.482a14.827,14.827,0,0,0-1.121,1.33H23.427a16.924,16.924,0,0,1-2.185-.171l.114.722a14.679,14.679,0,0,1,1.957-.114H25.1a18.894,18.894,0,0,1-.931,3,18.855,18.855,0,0,1-3.192,5.453l.209.209a13.676,13.676,0,0,0,2.527-2.717,3.33,3.33,0,0,1,.893,1.273c.513,1.311.513,1.311.532,1.349.076.266.152.342.285.342.285,0,.57-.627.57-1.254a1.155,1.155,0,0,0-.494-.931,7.9,7.9,0,0,0-1.615-1.026,22.74,22.74,0,0,0,1.2-1.976h3.173a19.45,19.45,0,0,1-2.489,6.08A15.95,15.95,0,0,1,20.843.8l.171.247a14.386,14.386,0,0,0,1.52-.817A15.779,15.779,0,0,0,26.2-3.1a19.1,19.1,0,0,0,3.363-6.859c.874-.4.874-.4.874-.513a.363.363,0,0,0-.133-.228A9.245,9.245,0,0,0,28.918-11.7c-.266.342-.361.456-.665.817Zm7.752-1.482-.019-.931c.665-.19.874-.3.874-.437,0-.1-.057-.152-.209-.19-.228-.057-1.159-.228-1.938-.361.076,1.083.095,2.014.095,5.13,0,3.952-.019,5.225-.095,6.5.019.171.057.209.247.209a5.284,5.284,0,0,0,.855-.076c.19-.057.266-.114.285-.247C33.079-4.2,33.06-5.3,33.06-8.3Zm2.6,11.647c0,.133-.076.19-.209.209-1.577-.038-2.2-.076-3.8-.19v.3A9.507,9.507,0,0,1,34.1.171c.437.19.551.361.627.969A4.285,4.285,0,0,0,36.309.646a1.053,1.053,0,0,0,.665-1.007c-.038-1.2-.038-1.2-.038-2.66-.019-1.6-.019-1.6-.076-3.933V-14.8c.646-.19.76-.247.76-.418,0-.19-.3-.266-2.147-.494a15.073,15.073,0,0,1,.114,2.223Zm13.4-12.35v-1.957c.627-.209.8-.3.8-.456,0-.171-.209-.228-1.159-.342-.209-.019-.551-.057-.988-.133.057.893.076,1.33.076,1.9v.988H44.232a4.676,4.676,0,0,1-1.273-.152l.114.7a4.278,4.278,0,0,1,1.159-.114h3.553v3.192H42.636A8.237,8.237,0,0,1,40.945-9.6l.133.722a6.173,6.173,0,0,1,1.558-.133h6.935a31.7,31.7,0,0,1-2.964,2.28,11.238,11.238,0,0,0-1.2-.513c.038.646.038.836.057,1.235a37.847,37.847,0,0,1-5.092,2.641l.114.285a24.95,24.95,0,0,0,5-2.09v1.254c0,3.116-.019,3.42-.076,5.149.019.133.114.19.323.209l.8-.076c.095-.019.152-.076.209-.228V.247H53.6v.874c.019.133.095.209.266.209H53.9c.057,0,.171-.019.361-.019.494-.019.627-.095.646-.323-.1-2.242-.1-2.242-.114-6.783.532-.266.684-.38.684-.494,0-.057-.057-.133-.19-.247-.494-.38-.646-.494-1.14-.855-.342.342-.437.456-.779.836H47.823a29.823,29.823,0,0,0,3.306-2.451h6.916c.114,0,.228-.057.228-.133,0-.038-.038-.1-.133-.171-.741-.608-.988-.8-1.786-1.406-.4.437-.8.855-1.178,1.273H51.623a33.092,33.092,0,0,0,4.009-4.18c.19,0,.437.019.532.019.3,0,.532-.1.532-.209,0-.152-.114-.209-2.071-1.045a10.9,10.9,0,0,1-1.33,1.976c-.665-.57-1.178-1.007-1.558-1.311-.418.475-.551.627-.95,1.121Zm4.047.437a30.357,30.357,0,0,1-3.059,3.192h-.988v-3.192ZM46.74-5.871l.4-.247H53.58v2.565H46.74Zm6.84,2.755V-.19H46.74V-3.116Z" transform="translate(723.009 8144.078)" fill="#333"/>
    </g>
  </g>
</svg>
