<?xml version="1.0" encoding="utf-8"?>
<!-- Generator: Adobe Illustrator 26.0.1, SVG Export Plug-In . SVG Version: 6.00 Build 0)  -->
<svg version="1.1" id="レイヤー_1" xmlns="http://www.w3.org/2000/svg" xmlns:xlink="http://www.w3.org/1999/xlink" x="0px"
	 y="0px" viewBox="0 0 72.5 271.8" style="enable-background:new 0 0 72.5 271.8;" xml:space="preserve">
<style type="text/css">
	.st0{fill:#005748;}
	.st1{fill:#FFFFFF;}
	.st2{fill:#222222;}
</style>
<g id="グループ_3122" transform="translate(-577.977 -7354.971)">
	<g id="syasou" transform="translate(0.5 398.711)">
		<path id="パス_1929" class="st0" d="M634.3,7015.1h-41.1c-5.2,0-9.5-4.2-9.5-9.5v-39.9c0-5.2,4.2-9.5,9.5-9.5h41
			c5.2,0,9.5,4.2,9.5,9.5v39.9C643.7,7010.8,639.5,7015.1,634.3,7015.1z"/>
		<path id="パス_1930" class="st1" d="M599.1,7002.9c0.8,0,1.4-0.7,1.4-1.5c0-1.1-1.1-2.5-4.6-3c1.4-1.5,2.6-3.1,3.6-4.9
			c0.4,0,0.8-0.1,1.2-0.3l-2.5-2.4l-1.5,1.5h-0.8v-4.3c0.8-0.1,1-0.3,1.1-0.6l-3.7-0.3v5.3h-3.7l0.1,0.5h7.2
			c-1.6,4.1-4.2,7.7-7.7,10.4l0.2,0.2c1.4-0.7,2.6-1.5,3.8-2.4v9.3h0.5c0.8,0.1,1.6-0.2,2.2-0.8v-10.5c1.1,1,1.8,2.2,2.2,3.6
			C598.4,7002.7,598.7,7002.9,599.1,7002.9z"/>
		<path id="パス_1931" class="st1" d="M608.8,7008.4H607v-12h4.3c0.7,0,1-0.1,1.2-0.4l-2.7-2l-1.5,2H607v-8.1
			c0.7-0.1,1-0.3,1.1-0.7l-3.8-0.3v9.1h-4.6l0.1,0.5h4.5v12h-6.1l0.1,0.5h13.6c0.7,0,1-0.1,1.2-0.4l-2.7-2.1L608.8,7008.4z"/>
		<path id="パス_1932" class="st1" d="M630.1,6993.8l-3.2-0.2v4.9c0,2,0.5,2.5,3,2.5h3.9c2.3,0,3.1-0.4,3.1-1.3
			c0-0.3-0.1-0.5-1-0.8l0-1.7h-0.2c-0.8,1.9-1.1,1.9-1.9,1.9h-3.7c-0.7,0-0.8,0-0.8-0.5v-1.4c1.8-0.2,3.6-0.6,5.3-1.1
			c0.2,0.1,0.5,0.1,0.8,0.1c0.2,0,0.4,0,0.6-0.2l-2.3-1.9c-1.4,1-2.8,1.8-4.4,2.4v-2.1C630,6994.2,630.1,6994,630.1,6993.8z"/>
		<path id="パス_1933" class="st1" d="M620.8,6989.9v2.3c2.2,0,2.5-0.6,2.5-0.6v-1.6h5.4v2.1c2.4,0,2.6-0.6,2.6-0.6v-1.5h5.3
			c0.6,0,0.9-0.1,1.1-0.4l-2.5-1.9l-1.3,1.8h-2.6v-1.8c0.7-0.1,0.9-0.2,0.9-0.6l-3.5-0.2v2.6h-5.4v-1.8c0.7-0.1,0.9-0.2,0.9-0.6
			l-3.5-0.2v2.6h-6.3l0.1,0.5L620.8,6989.9L620.8,6989.9z"/>
		<path id="パス_1934" class="st1" d="M634.5,6991.1l-1.3,1.6h-17.8l0.1,0.5h4.8c-1.2,2-2.8,3.7-4.8,5l0.1,0.4
			c0.9-0.3,1.8-0.7,2.6-1.2c0.6,0.5,1,1.1,1.3,1.8c0.2,0.2,0.5,0.3,0.9,0.3c-1.6,1.2-3.4,2.1-5.3,2.6l0.2,0.5
			c5.6-0.8,8.2-2.7,10.5-6.2c0.4,0,0.8-0.1,1.1-0.3l-2.3-1.8l-1.2,1.2h-2.1c0.7-0.6,1.4-1.3,2-2.1h12.6c0.7,0,1-0.1,1.2-0.4
			L634.5,6991.1z M623.3,6995.8c-0.6,1.1-1.3,2.1-2.2,2.9c0-0.1,0-0.2,0-0.2c0-0.6-0.6-1.3-2.4-1.5c0.7-0.4,1.3-0.8,1.9-1.3
			L623.3,6995.8L623.3,6995.8z"/>
		<path id="パス_1935" class="st1" d="M635.2,7002.4l-1.4,1.8h-2.3v-2.1c0.6-0.1,0.7-0.2,0.8-0.5l-3.4-0.3v2.9h-5.7v-2.1
			c0.6-0.1,0.8-0.2,0.9-0.5l-3.5-0.3v2.9h-6.2l0.1,0.5h6c-0.1,2-1.3,3.9-5.7,5.2l0.1,0.3c6.3-1,7.9-3.2,8.1-5.5h5.7v5.5
			c2.1,0,2.6-0.6,2.6-0.7v-4.8h5.1c0.7,0,1-0.1,1.2-0.4L635.2,7002.4z"/>
		<path id="パス_1936" class="st1" d="M591.9,6971.7v-3.7h4.2c1.2,0,1.7,0.5,1.7,1.3c0,0.7-0.6,1.1-1.6,1.1h-2v1.7h3.6
			c1.4,0.1,2.6-0.9,2.8-2.3c0-0.2,0-0.4,0-0.6c0-1.8-0.9-2.9-2.7-2.9h-6v-2.4h-2.8v2.4h-1.8v1.7h1.8v4.4c0,4.7,4.1,4.6,4.1,4.6h7.1
			v-1.7c0,0-5.2-0.1-5.6-0.1C593.4,6975.1,591.9,6973.9,591.9,6971.7z"/>
		<path id="パス_1937" class="st1" d="M604.6,6976.7c1.5,0.1,3-0.3,4.1-1.4c2.2-1.8,3.9-4.1,5-6.7h-3c-0.2,0.6-4.1,6.8-6.1,5.7
			c-0.6-0.3-0.6-0.7-0.6-2.5v-7.9h-2.7v8.2C601.3,6976.4,603.5,6976.7,604.6,6976.7z"/>
		<path id="パス_1938" class="st1" d="M626.9,6966.3v-1.7h-12.8v1.7h3.8v2.8h-3.8v1.6h3.8v1.9c0,3.8,1.5,4.4,4.1,4.4h4.4v-1.7
			c0,0-1.9-0.1-2.7-0.1c-1.9,0-3.3-0.5-3.3-2.3v-2.2h6.5v-1.6h-6.5v-2.8L626.9,6966.3z"/>
		<path id="パス_1939" class="st1" d="M634.1,6972.5c0,3.6-1.8,4.5-3.8,4.5h-2.7v-1.7h2.2c1.1,0,1.7-1.2,1.7-2.9v-3h4.7
			c1.2,0,1.6-0.7,1.6-1.5c0.1-0.8-0.5-1.5-1.3-1.6c-0.1,0-0.2,0-0.3,0h-8.7v-1.7h9.5c4.6,0,4.5,6.5,0.7,6.5h-3.8L634.1,6972.5z"/>
		<path id="パス_1940" class="st1" d="M638.9,6975.6L638.9,6975.6c0.3-0.1,0.4-0.4,0.4-0.6c0-0.4-0.3-0.7-0.8-0.7h-1.2v2.5h0.4v-1
			h0.6c0.4,0,0.5,0.2,0.5,0.7c0,0.1,0,0.3,0.1,0.4h0.5c-0.1-0.2-0.2-0.4-0.1-0.7C639.2,6975.7,639,6975.6,638.9,6975.6z
			 M638.4,6975.4h-0.7v-0.8h0.7c0.2,0,0.4,0.1,0.4,0.4C638.9,6975.2,638.7,6975.4,638.4,6975.4
			C638.5,6975.4,638.4,6975.4,638.4,6975.4L638.4,6975.4z"/>
		<path id="パス_1941" class="st1" d="M638.2,6973.4c-1.2,0-2.1,0.9-2.1,2.1c0,1.2,0.9,2.1,2.1,2.1c1.2,0,2.1-0.9,2.1-2.1l0,0
			C640.3,6974.4,639.4,6973.4,638.2,6973.4C638.2,6973.4,638.2,6973.4,638.2,6973.4L638.2,6973.4z M638.2,6977.3
			c-1,0-1.8-0.8-1.8-1.8c0-1,0.8-1.8,1.8-1.8c1,0,1.8,0.8,1.8,1.8l0,0C640,6976.5,639.2,6977.3,638.2,6977.3
			C638.2,6977.3,638.2,6977.3,638.2,6977.3L638.2,6977.3z"/>
		<rect id="長方形_1490" x="586.9" y="6982.3" class="st1" width="53.7" height="0.6"/>
	</g>
	<g>
		<path id="パス_4091" class="st2" d="M627.9,7459.4c1.5-1.8,2.8-3.8,4-5.9c1.4-0.3,1.6-0.4,1.6-0.6c0-0.1-0.1-0.2-0.4-0.5
			c-0.8-0.7-1-0.9-1.9-1.6c-0.7,0.7-0.9,0.9-1.5,1.6h-1.8v-4.7c1-0.3,1.2-0.5,1.2-0.7c0-0.3-0.4-0.4-2-0.5c-0.4,0-0.9-0.1-1.6-0.2
			c0.2,0.9,0.3,1.8,0.3,2.8v3.4h-2.6c-0.8,0-1.7-0.1-2.5-0.3l0.2,1.2c0.8-0.1,1.5-0.2,2.3-0.2h6.4c-1.1,2.3-2.4,4.5-3.9,6.6
			c-1.5,2.1-3.3,4-5.3,5.7l0.4,0.5c1.8-1.1,3.5-2.5,5.1-4.1v5.6c-0.1,4.6-0.1,7.1-0.1,7.4c0.1,0.3,0.2,0.3,0.7,0.3h0.4
			c0.8,0,1.1-0.1,1.2-0.5c-0.1-1.5-0.1-1.5-0.1-7.4v-6.9c1.5,1,2.9,2.2,3.9,3.6c0.6,0.9,0.6,0.9,0.8,1.1c0.1,0.1,0.2,0.1,0.4,0.2
			c0.4,0,0.7-0.7,0.7-1.5c0-1-0.6-1.9-1.5-2.2c-1.4-0.8-2.8-1.3-4.3-1.7L627.9,7459.4z M639.1,7458.1v14.5h-5.7
			c-1.1,0-2.2-0.1-3.3-0.3l0.3,1.2c1-0.2,2-0.2,3-0.2h16.7c0.2,0,0.3-0.1,0.3-0.2c0-0.1-0.1-0.2-0.2-0.2c-0.9-1-1.9-1.9-3-2.8
			c-1,1.1-1.3,1.4-2.1,2.5h-3.9v-14.5h8c0.2,0,0.3-0.1,0.3-0.3c0-0.1-0.1-0.2-0.1-0.2c-1.3-1.2-1.7-1.5-3-2.7l-1.9,2.4h-3.3v-9.6
			c0.9-0.4,1.3-0.6,1.3-0.8c0-0.3-0.4-0.4-2-0.6c-0.3,0-1-0.1-1.7-0.2c0.2,1.3,0.2,2.7,0.2,4v7.2h-4.5c-0.9,0-1.9-0.1-2.8-0.3
			l0.3,1.2c0.8-0.1,1.7-0.2,2.6-0.2H639.1z M639.4,7492h10.2c0.2,0,0.4-0.1,0.4-0.2c0-0.1-0.1-0.2-0.1-0.3c-1.2-1-1.5-1.3-2.8-2.3
			c-0.9,0.9-1.1,1.2-2,2h-20.4c-1,0-2-0.1-2.9-0.3l0.2,1.2c0.9-0.2,1.8-0.2,2.7-0.2h3.7c-0.6,1.1-1.4,2.2-2.3,3.1
			c-1.5,1.7-3.2,3.3-5.1,4.5l0.3,0.4c1.8-0.8,3.5-1.8,4.9-3c1,0.7,1.8,1.5,2.5,2.5c0.2,0.3,0.3,0.3,0.5,0.4
			c-2.5,1.9-5.3,3.3-8.3,4.3l0.2,0.5c2.6-0.5,5.1-1.4,7.4-2.7c2.8-1.4,5.2-3.6,6.8-6.2c1.1-0.4,1.2-0.4,1.2-0.6
			c0-0.1-0.1-0.2-0.3-0.4c-0.7-0.6-0.9-0.7-1.7-1.3c-0.6,0.5-0.7,0.6-1.3,1.1h-4.5c0.7-0.8,1.4-1.6,2-2.6h6.6v8.2
			c0.1,1.6,0.4,1.7,5.5,1.7c6,0,6.8-0.2,6.8-1.2c0-0.4-0.3-0.7-0.7-0.8c-0.6-0.2-0.6-0.2-0.6-0.4v-0.7l0.2-2.5l-0.4,0
			c-0.4,1.2-0.9,2.4-1.4,3.6c-0.2,0.3-0.4,0.4-1.6,0.4H644c-0.8,0-1.3,0-1.6,0c-0.9,0-2.4-0.1-2.6-0.1c-0.3-0.1-0.4-0.2-0.4-0.6
			v-1.8c2.3-0.5,4.6-1.3,6.8-2.4c0.4,0,1,0,1.2,0c0.4,0,0.6-0.1,0.6-0.3c0-0.2-0.4-0.5-2.7-1.7c-1.7,1.6-3.7,2.9-5.8,3.8V7492z
			 M633.4,7495.3c-1,1.6-2.2,3-3.6,4.2c0.2-0.3,0.3-0.6,0.3-0.9c0-0.5-0.4-0.8-1.4-1.2c-0.6-0.2-1.3-0.4-2-0.5
			c0.6-0.5,1-0.8,1.6-1.4L633.4,7495.3z M632.2,7486.9v-1.6c1.1-0.3,1.3-0.4,1.3-0.6c0-0.3-0.4-0.4-1.9-0.5c-0.4,0-0.9-0.1-1.6-0.2
			c0.1,0.7,0.1,1.4,0.1,2c0,0.3,0,0.5,0,0.9H624c-0.9,0-1.9-0.1-2.8-0.3l0.2,1.2c0.8-0.1,1.7-0.2,2.6-0.2h6.1c0,0.6,0,0.9-0.1,2
			c0,0.2,0.1,0.3,0.3,0.3c0.6,0,1.2,0,1.7-0.2c0.1-0.1,0.1-0.1,0.1-0.3c0-0.4-0.1-0.6-0.1-0.8l0-0.6v-0.4h6.1c0,0.6,0,1-0.1,2
			c0,0.2,0.1,0.3,0.4,0.3c1.4,0,1.7-0.1,1.8-0.4c0-0.9,0-1.2,0-1.8h9.8c0.2,0,0.3-0.1,0.3-0.2c0-0.1-0.1-0.2-0.1-0.3
			c-1.3-1.1-1.7-1.4-3-2.4c-0.9,0.9-1.2,1.2-2,2.1h-4.9c0-0.4,0-0.4,0-1.6c1.1-0.3,1.3-0.4,1.3-0.6c0-0.3-0.8-0.4-3.6-0.7
			c0.1,0.9,0.2,1.8,0.2,2.7c0,0.1,0,0.2,0,0.3H632.2z M624.4,7505.3c-0.9,0-1.8,0-2.7-0.2l0.2,1.2c0.8-0.2,1.7-0.2,2.5-0.2h5.8
			c-0.2,1.4-0.8,2.8-1.8,3.8c-1.4,1.4-3.3,2.3-7,3.2l0.1,0.5c3.9-0.4,6.7-1.4,8.6-3.2c1.2-1.1,2-2.7,2.1-4.3h6v2.1
			c0,1.6,0,2.5-0.1,4.7c0,0.3,0.1,0.4,0.4,0.4c0.6,0,1.1,0,1.7-0.2c0.1-0.1,0.2-0.2,0.2-0.3c-0.1-3.7-0.1-3.9-0.1-4.7v-2h9.7
			c0.1,0,0.3-0.1,0.3-0.2c0-0.1-0.1-0.2-0.1-0.3c-1.2-1.1-1.6-1.4-2.9-2.4c-0.9,0.9-1.1,1.2-2,2.1h-4.9v-1.4
			c1.1-0.4,1.1-0.5,1.1-0.7c0-0.3-0.3-0.3-3.3-0.6c0.1,0.9,0.1,1.8,0.1,2.7h-5.9c0.1-0.4,0.1-0.5,0.2-1.5c1-0.4,1.2-0.4,1.2-0.6
			c0-0.2-0.5-0.4-1.9-0.6c-0.4,0-0.9-0.1-1.5-0.2c0.1,0.5,0.1,0.9,0.1,1.4c0,0.5,0,1-0.1,1.6L624.4,7505.3z M635.5,7548.6
			c2.2-0.3,4.3-1,6.2-2c4-2.1,6.4-5.7,6.4-9.7c0.1-2.8-1-5.6-3.1-7.5c-2.3-2-5.2-3-8.3-2.9c-4.1,0-8.1,1.6-11,4.5
			c-1.7,1.7-2.7,3.9-2.9,6.3c0,1,0.3,2,0.7,2.9c0.5,1,1,2,1.4,3c0.2,0.7,0.5,1.4,0.9,2c0.3,0.4,0.9,0.7,1.4,0.7
			c1.2,0,2.8-1.6,4.8-4.8c2.4-3.9,4.2-8.6,4.2-11.1c0-1-0.4-1.9-1-2.7c0.4,0,0.7-0.1,1.1-0.1c1.9,0,3.9,0.5,5.5,1.5
			c2.4,1.5,3.8,4.2,3.6,7.1c0,2.8-1,5.6-2.8,7.7c-2,2.2-4.6,3.8-7.5,4.4L635.5,7548.6z M634.7,7527.6c0.3,0.5,0.4,1,0.4,1.6
			c0,2-1.7,6.1-4.1,9.9c-1.6,2.5-3.1,4.2-3.8,4.2c-0.4,0-0.8-0.4-1.2-0.9c-0.8-1.2-1.3-2.7-1.3-4.2
			C624.8,7533.2,629.1,7528.6,634.7,7527.6L634.7,7527.6z"/>
		<path id="パス_4090" class="st2" d="M587.4,7459.4c1.1-0.9,2-2.1,2.7-3.4h5.8c0,1.1,0,1.2-0.1,2.4c0,0.3,0.1,0.4,0.7,0.4
			c1.1,0,1.3-0.1,1.4-0.5c0-1.1-0.1-1.6-0.1-2.3h7.5c-0.2,1.5-0.4,2-0.7,2c-0.7-0.1-1.5-0.2-2.2-0.4c-0.2,0-0.4-0.1-0.7-0.1
			l-0.1,0.4c1.8,0.6,2.3,1,2.4,2.1c1.6-0.1,2.3-0.4,2.6-1.1c0.3-0.8,0.5-1.7,0.5-2.6c0.6-0.3,0.8-0.4,0.8-0.5c0-0.1-0.1-0.2-0.3-0.4
			c-0.6-0.5-0.8-0.7-1.5-1.2c-0.5,0.5-0.7,0.7-1.2,1.2h-7v-2.6h5.5v0.5c0,0.3,0.1,0.3,0.7,0.3c1.1,0,1.3-0.1,1.3-0.5
			c-0.1-1.3-0.1-1.8-0.1-3.4c0.7-0.4,1-0.6,1-0.8c0-0.1-0.1-0.2-0.4-0.4c-0.5-0.4-1.1-0.8-1.7-1.1c-0.4,0.4-0.8,0.8-1.1,1.3h-5.2
			v-1.4c1-0.3,1.3-0.4,1.3-0.7c0-0.3-0.1-0.4-3.3-0.6c0.1,0.9,0.2,1.8,0.1,2.8h-4.7l0-1.5c0.9-0.2,1.2-0.4,1.2-0.7
			c0-0.3-0.2-0.4-3.4-0.6c0.1,0.7,0.2,1.5,0.2,2.2c0,0.2,0,0.4,0,0.6h-5.2c-1,0-2.1-0.1-3.1-0.3l0.2,1.2c1-0.2,1.9-0.2,2.9-0.2h5.2
			c0,1.3-0.1,1.7-0.2,2.7h-4.4c-0.9-0.6-1.2-0.7-2-1.2c-0.5,2.2-1.3,4.4-2.4,6.4c0,0.1-0.1,0.2-0.1,0.3c0,0.3,0.4,0.4,1.5,0.4
			c0.4,0,0.5-0.1,0.7-0.4c0.2-0.5,0.3-0.7,0.5-1.3h5.1c-0.6,1.2-1.5,2.2-2.5,3.1c-0.5-0.2-1-0.4-1.5-0.5c0.1,0.6,0.1,1.1,0.1,1.7
			c-1.5,1.2-3.1,2.2-4.8,3l0.3,0.4c1.6-0.5,3.1-1.2,4.6-2.1v3.6c0,2,0,3.2-0.1,5.3v0.1c0,0.3,0.2,0.4,0.8,0.4c1.1,0,1.4-0.1,1.4-0.5
			v-0.7h14.1v0.4c0,0.3,0.1,0.4,0.6,0.4c1.4,0,1.6-0.1,1.6-0.5c-0.1-4.2-0.1-4.2-0.1-9.5c0.6-0.4,0.7-0.4,0.7-0.6
			c0-0.1-0.1-0.2-0.2-0.3c-0.6-0.5-1.1-0.9-1.8-1.3c-0.4,0.4-0.5,0.6-0.9,1L587.4,7459.4z M586.4,7460.2h14.1v2.4h-14.1V7460.2z
			 M600.5,7463.3v2.4h-14.1v-2.4L600.5,7463.3z M600.5,7466.4v2.8h-14.1v-2.8L600.5,7466.4z M596,7452.7c0,1.2,0,1.2,0,2.6h-5.5
			c0.3-0.8,0.5-1.7,0.6-2.6H596z M589,7452.7c-0.1,0.9-0.3,1.8-0.6,2.6h-5.2c0.5-1.5,0.5-1.5,0.9-2.6H589z M591.1,7452
			c0.1-0.9,0.1-1.2,0.2-2.7h4.7v2.7H591.1z M597.9,7452v-2.7h5.5v2.7H597.9z M579.6,7475.6c3.6-0.4,7.1-1.4,10.4-2.8h0.9
			c0.8,0,1-0.1,1-0.4c0-0.2-0.2-0.3-1.7-0.9c-0.3-0.1-0.8-0.3-1.4-0.6c-1.6,1.5-4.6,2.8-9.3,4.2L579.6,7475.6z M596.5,7471.7
			c3.2,0.7,6.3,1.9,9.2,3.5c0.6,0.4,0.8,0.4,1.1,0.4c0.3,0,0.4-0.2,0.4-0.6c0-1.2-0.8-2.2-2-2.5c-2.8-0.7-5.6-1.2-8.5-1.3
			L596.5,7471.7z M592.7,7500.9v2.9c0,1.3,0,4.8-0.1,6.8c0,0.4,0.2,0.5,0.6,0.5h0.4c1,0,1.2-0.2,1.3-0.7c0-1.2,0-1.2-0.1-2.8
			c0-1.8,0-1.8,0-3.8v-2.9h7.9v8.8c0,0.4-0.1,0.4-0.4,0.4h-0.3c-0.9,0-0.9,0-2.1-0.1c-1.9-0.1-1.9-0.1-3-0.2v0.5
			c3.6,0.4,3.8,0.6,4.3,2.5c1-0.1,1.9-0.4,2.8-0.8c0.6-0.2,1-0.8,1-1.5c-0.1-4.1-0.1-5.3-0.1-8.1v-14.9c1-0.6,1.2-0.7,1.2-1
			c0-0.1-0.1-0.3-0.4-0.4c-0.9-0.7-1.1-0.9-2-1.5c-0.5,0.5-0.9,1-1.3,1.5h-17.1c-0.8-0.6-1.7-1.1-2.6-1.6c0.1,1.5,0.2,2.5,0.2,4.1
			c0,1.3-0.1,5.7-0.1,7.2c0.1,2.9-0.2,5.7-0.8,8.5c-0.7,3.1-2.1,6.1-4.1,8.5l0.4,0.3c1.9-1.5,3.5-3.5,4.5-5.7c1-2.1,1.7-4.3,2-6.6
			H592.7z M594.9,7500.1v-6.6h7.9v6.6H594.9z M592.7,7500.1H585c0.2-1.9,0.2-3.6,0.2-6.6h7.5V7500.1z M594.9,7492.8v-6h7.9v6H594.9z
			 M592.7,7492.8h-7.5v-2.4c0-1,0-1.7,0-2c0-0.3,0-0.9,0-1.5h7.5V7492.8z M587.5,7523.9c1.3,0.2,2,0.5,2.3,1.2
			c0.3,0.5,0.3,1,0.4,3.7c0.1,2.4,0.1,3.1,0.2,3.9c0.2,1.4,0.4,2.1,0.9,2.4c0.4,0.4,1,0.5,1.5,0.5c-1.4,0.7-2.7,1.6-3.9,2.6
			c-2.1,1.8-3.1,3.5-3.1,5.4c0,2.2,1.4,4.1,3.5,4.7c1.8,0.6,3.6,0.8,5.4,0.7c2.1,0,4.1-0.2,6.1-0.4c1-0.2,1.4-0.5,1.4-1.1
			c-0.1-0.9-0.8-1.5-1.7-1.6c-0.2,0-0.4,0-0.6,0.1c-2.4,0.6-4.9,0.9-7.4,0.9c-3.6,0-5.4-1.2-5.4-3.5c0-1.5,0.8-2.8,2.5-4.1
			c2-1.5,4.1-2.5,8-3.6c0.7-0.2,1.4-0.4,2.1-0.7c0.4-0.1,0.7-0.5,0.7-1c-0.1-0.8-0.8-1.3-1.5-1.3c-0.5,0-0.9,0.1-1.3,0.4
			c-2.9,1.4-3.6,1.6-4.3,1.6c-1,0-1.2-0.5-1.2-2.4c-0.1-2.2,0.2-4.4,0.7-6.5c0.2-0.6,0.3-0.6,0.3-0.8v-0.1c0-0.4-0.3-0.8-0.9-1
			c-1-0.4-2.1-0.6-3.2-0.6C588.3,7523.4,587.8,7523.6,587.5,7523.9z M601.2,7571.6v0.5c0,0.3,0.1,0.3,0.4,0.3h0.1c0.1,0,0.3,0,0.6,0
			c0.9,0,1.1-0.1,1.1-0.5c-0.1-1.4-0.1-1.5-0.1-3.8c0.8-0.4,0.9-0.5,0.9-0.7c0-0.1-0.1-0.2-0.3-0.4c-0.7-0.6-1-0.7-1.8-1.3
			c-0.5,0.5-0.7,0.7-1.2,1.2h-6.6v-2.5h13.6c0.1,0,0.3-0.1,0.3-0.2c0-0.1-0.1-0.2-0.1-0.3c-0.9-0.8-1.8-1.6-2.7-2.3
			c-0.8,0.9-1,1.1-1.8,2h-9.2v-2.2c1-0.3,1.2-0.4,1.2-0.7c0-0.4-0.2-0.4-3.5-0.8c0.1,1.2,0.2,2.5,0.2,3.7h-10.6
			c-0.7,0-1.4,0-2.1-0.2l0.1,1.1c0.7-0.1,1.3-0.1,2-0.1h10.6v2.5h-6.6c-0.9-0.5-1.2-0.7-2.1-1.2c0,0.9,0,1.1,0,2.2
			c0,1.8,0,2.8-0.1,4.7c0,0.2,0.1,0.3,0.4,0.3c0.5,0,1-0.1,1.4-0.1c0.2-0.1,0.2-0.2,0.2-0.4v-0.8h6.7v2.6h-8.4c-0.6,0-1.2,0-1.8-0.2
			l0.1,1.1c0.5-0.1,1.1-0.1,1.6-0.1h8.4v3h-11.1c-0.7,0-1.3-0.1-2-0.2l0.2,1.1c0.6-0.1,1.2-0.1,1.8-0.1h11.1v3.2h-7.9
			c-0.7,0-1.5-0.1-2.2-0.3l0.1,1.2c0.7-0.1,1.3-0.2,2-0.2h8v3.6c0,0.3-0.1,0.4-0.5,0.4h-0.9c-0.9,0-1.3,0-4.9-0.2v0.5
			c4.7,0.8,4.9,0.9,5,2.4c2.2-0.5,3-0.8,3.3-1.3c0.2-0.3,0.2-0.5,0.2-1.3l-0.1-2.4c0-0.5,0-1.1,0-1.6h7.2v1.8c0,0.2,0.2,0.3,0.5,0.3
			c0.5,0,1-0.1,1.5-0.2c0.2-0.1,0.2-0.2,0.2-0.4c0-0.8-0.1-2.6-0.1-5.5h4.7c0.2,0,0.3-0.1,0.3-0.2c0-0.1-0.1-0.2-0.2-0.3
			c-1-1-1.3-1.3-2.4-2.2c-0.8,0.8-1,1.1-1.8,1.9h-0.6l0-2.5c0.8-0.5,0.9-0.6,0.9-0.8c0-0.1-0.1-0.2-0.3-0.4
			c-0.8-0.6-1.1-0.8-1.9-1.3c-0.5,0.5-0.7,0.7-1.2,1.2h-7v-2.6H601.2z M601.2,7570.9h-6.9v-3.3h6.9V7570.9z M592.3,7570.9h-6.7v-3.3
			h6.7V7570.9z M601.6,7578h-7.3v-3h7.3V7578z M601.6,7578.7v3.2h-7.2l0-1.1v-2.1H601.6z M595.1,7607.8c-0.1,1.1-0.4,2.3-0.7,3.4
			c-0.7,2.4-1.6,4.8-2.8,7c-1.7,3-4,5.7-6.7,8l0.3,0.4c3.1-1.9,5.7-4.4,7.7-7.3c2-3,3.2-5.9,4.2-10.7c0.9-0.4,1.1-0.6,1.1-0.8
			c0-0.2-0.1-0.3-0.3-0.4c-0.8-0.6-1.1-0.8-1.9-1.4c-0.4,0.5-0.6,0.7-1.1,1.2h-4c0.6-1.8,1.1-3.6,1.3-5.5h6.7c0.3,0,0.4-0.1,0.4-0.2
			c0-0.1-0.1-0.2-0.1-0.3c-1-1-1.3-1.3-2.4-2.3c-0.8,0.9-1,1.2-1.7,2h-5.3c-1,0-2-0.1-3-0.3l0.3,1.2c0.9-0.1,1.8-0.1,2.8-0.1h0.2
			c-0.2,2.2-0.7,4.4-1.3,6.5c-0.9,2.9-2.2,5.7-3.8,8.3l0.3,0.3c1.6-1.6,2.9-3.4,3.9-5.4c0.8,1.1,1.3,2.3,1.7,3.6
			c0.3,0.9,0.4,1.1,0.6,1.1c0.5,0,1.2-1.2,1.2-2c-0.1-0.5-0.3-1-0.7-1.3c-0.8-0.7-1.6-1.3-2.5-1.8c0.5-1.2,0.9-1.9,1.3-3
			L595.1,7607.8z M578.4,7614c1.3-1.4,2.5-2.9,3.6-4.5v6.6c-0.1,7.9-0.1,7.9-0.1,10.1v0.1c0,0.3,0.1,0.4,0.4,0.4
			c0.5,0,1-0.1,1.5-0.2c0.2,0,0.3-0.1,0.3-0.3v-2.4c-0.1-6.8-0.1-6.8-0.1-8.1v-6.4c0.8-0.2,1-0.3,1-0.5c0-0.3-0.5-0.5-2.2-0.7
			c1.5-2.7,2.8-5.5,3.7-8.5c1-0.2,1.3-0.3,1.3-0.6c0-0.3-0.4-0.4-3.4-1.1c-0.4,2.5-1.1,5-2.1,7.4c-1.1,2.9-2.5,5.8-4.2,8.4
			L578.4,7614z M601.1,7603.3c0.7-0.2,1.1-0.4,1.1-0.7c0-0.3-0.4-0.4-3.1-0.6c0.2,1.6,0.2,3.3,0.1,4.9c0,5.2,0,5.9-0.1,12.9
			c0,0.3,0.1,0.4,0.4,0.4c1.4,0,1.6-0.1,1.7-0.5c0-3.2,0-3.2,0-5.5c0-3.6,0-7.1,0-7.6L601.1,7603.3z M597.9,7624.4
			c2.7,0.3,3,0.4,3.5,0.7c0.6,0.3,1.1,1,1.2,1.7c0.9-0.1,1.8-0.4,2.6-1c0.7-0.4,1.1-1.1,1-1.9v-0.4l0-4.8l0-3.4v-15.2
			c1.1-0.4,1.3-0.5,1.3-0.7c0-0.4-1-0.6-3.6-0.9c0.1,0.9,0.1,1,0.1,2.3v22.7c0,0.5-0.1,0.6-0.4,0.7c-1.6,0-1.8,0-4.2-0.2
			c-0.3,0-0.9,0-1.6-0.1V7624.4z"/>
	</g>
</g>
</svg>
