<?xml version="1.0" encoding="UTF-8"?><svg xmlns="http://www.w3.org/2000/svg" viewBox="0 0 850 249"><defs><style>.d,.e{fill:#fff;}.f{fill:#af8e04;}.g{fill:#480813;}.h{fill:#28010a;}.i{fill:none;stroke:#480813;stroke-width:1.04px;}.i,.e{stroke-miterlimit:10;}.e{stroke:#fff;stroke-width:.28px;}.j{isolation:isolate;}</style></defs><g id="a"/><g id="b"><g id="c"><g><rect class="h" y="10.27" width="850" height="238.73"/><rect class="g" width="850" height="238.73"/><g><path class="f" d="M157.35,170.2h-1.45v1.71h1.45v-1.71Zm-1.45,2.65v.55h-1.13v-4.23h3.69v4.23h-1.11v-.55h-1.45Zm-2.7-5.26h2.51v-1.46h-2.51v1.46Zm3.67,.95h-4.82v-3.39h4.82v3.39Zm-3.88,1.65h-1.4v1.71h1.4v-1.71Zm-1.4,2.65v.55h-1.13v-4.23h3.64v4.06h-1.11v-.38h-1.4Z"/><path class="f" d="M165.59,170.82h-3.77v.34h3.77v-.34Zm0-.9h-3.77v.33h3.77v-.33Zm-3.77-.56h3.77v-.33h-3.77v.33Zm4.88-1.04v3.62h-.81c.31,.17,.88,.45,1.85,.63-.24,.26-.51,.66-.65,.9-.83-.21-1.91-.69-2.72-1.2l.37-.33h-2.3l.38,.3c.09,.07,.12,.09,.12,.15,0,.08-.1,.08-.14,.08-.06,0-.1,0-.18,0-.66,.32-1.49,.74-2.4,1-.19-.43-.5-.74-.63-.87,.6-.13,1.39-.41,1.84-.66h-.75v-3.62h3.24c-.12-.12-.46-.39-.8-.49,.79-.65,.88-1.16,.83-2.7l.43,.06c.68,.02,1.74-.15,2.38-.37l.55,.74s.05,.08,.05,.12c0,.05-.04,.07-.1,.07-.03,0-.21-.05-.22-.05-.82,.18-1.91,.26-2.1,.27,0,.16,0,.22-.02,.38h2.9v.78h-1.29v1.02h-1.06v-1.02h-.68c-.05,.12-.27,.69-.72,1.2h2.61Zm-3.9-.19h-1v-1.02h-.65c-.2,.88-.56,1.33-.84,1.62-.32-.3-.74-.43-.96-.49,.87-.77,.84-1.98,.81-3.12l.69,.12c.56,0,1.46-.13,2.03-.38l.46,.76s.04,.08,.04,.11c0,.05-.04,.08-.08,.08s-.07,0-.23-.09c-.8,.18-1.18,.23-1.82,.29,0,.14,0,.18-.02,.33h2.38v.78h-.82v1.02Z"/><path class="f" d="M172.97,167.34h2.38v-1.16h-2.38v1.16Zm1.77,6.03h-1.15v-2.38c-.77,1-1.42,1.53-2.02,1.98-.2-.31-.35-.45-.83-.79,1.04-.56,1.87-1.44,2.3-2.01h-2.01v-1.04h2.55v-.77h-1.81v-3.18h4.77v3.18h-1.58c.04,.12-.12,.17-.23,.18v.58h2.36v1.04h-1.95c.12,.14,1.06,1.22,2.24,1.94-.35,.28-.54,.48-.8,.86-.39-.28-1.08-.87-1.85-1.86v2.26Zm-4.08,0h-1.14v-4.59c-.31,.43-.39,.51-.49,.62-.14-.35-.48-.71-.72-.91,1.28-1.61,1.89-3.36,1.99-3.64l1.05,.42c.07,.03,.15,.06,.15,.17s-.13,.13-.24,.13c-.23,.57-.62,1.36-.71,1.52,.17,.05,.31,.1,.31,.19,0,.08-.08,.12-.19,.16v5.94Z"/><path class="f" d="M186.4,172.05v1.01h-4.94v-1.01h.43v-4.82l1.14,.05c.08,0,.19,.04,.19,.14,0,.09-.07,.12-.25,.18v4.46h.55v-5.88h-2v-.98h4.75v.98h-1.68v2.09h1.53v1.04h-1.53v2.74h1.82Zm-6.15-1.04h-1.04v.94h1.04v-.94Zm.76-1.31h-2.64v-.84h2.64v.84Zm0-1.23h-2.64v-.81h2.64v.81Zm0-2.45h-2.64v-.81h2.64v.81Zm-1.79,6.86v.48h-1.01v-3.24h3.03v3.14h-.99v-.38h-1.04Zm2.2-5.63h-3.49v-.84h3.49v.84Z"/><rect class="f" x="190.99" y="164.06" width="2.05" height="9.87"/><path class="f" d="M201.61,166.87c-.03-.31-.12-.59-.37-.93-.26-.35-.76-.56-1.74-.56-.48,0-2.19,0-2.19,1.1,0,.86,.65,1.07,3.46,1.92,1.64,.5,3.21,.98,3.21,2.73,0,1.07-.8,3.08-4.33,3.08-2.1,0-4.63-.68-4.78-3.28h2.15c.06,1.1,.86,1.69,2.58,1.69,.47,0,1.23-.06,1.72-.36,.3-.19,.55-.56,.55-.93,0-.78-.73-1.02-2.5-1.5-2.54-.7-4.19-1.25-4.19-3.13,0-1.06,.7-2.91,4.16-2.91,2.55,0,4,.79,4.38,3.08h-2.12Z"/><path class="f" d="M207.36,169c0,2.73,1.78,3.62,3.3,3.62,1.38,0,3.31-.75,3.31-3.62s-1.81-3.62-3.31-3.62-3.3,.83-3.3,3.62m8.71,0c0,3.07-2.22,5.21-5.42,5.21s-5.42-2.14-5.42-5.21,2.11-5.21,5.42-5.21,5.42,2.26,5.42,5.21"/><path class="f" d="M219.17,167.28c0,1.04,.82,1.79,2.13,1.79,1.75,0,2.25-1.07,2.25-1.82,0-.88-.64-1.9-2.24-1.9-1.78,0-2.14,1.24-2.14,1.93m.19,4.17c.25,.88,1.03,1.17,1.82,1.17,1.94,0,2.41-1.37,2.54-3.13-.33,.31-1.03,1.01-2.83,1.01-2.46,0-3.63-1.45-3.63-3.26,0-2.14,1.65-3.46,4-3.46s4.31,1.35,4.31,5.13c0,4.72-3.11,5.3-4.37,5.3-.36,0-3.32-.09-3.82-2.76h1.99Z"/><path class="f" d="M228.7,169c0,.54,0,3.63,2.23,3.63s2.22-3.09,2.22-3.63,0-3.63-2.22-3.63-2.23,3.05-2.23,3.63m6.39,0c0,1.77-.46,5.21-4.16,5.21s-4.16-3.43-4.16-5.21,.43-5.21,4.16-5.21,4.16,3.45,4.16,5.21"/><path class="f" d="M238.22,169c0,.54,0,3.63,2.23,3.63s2.22-3.09,2.22-3.63,0-3.63-2.22-3.63-2.23,3.05-2.23,3.63m6.39,0c0,1.77-.46,5.21-4.16,5.21s-4.16-3.43-4.16-5.21,.43-5.21,4.16-5.21,4.16,3.45,4.16,5.21"/><path class="f" d="M251.37,173.93h-1.88v-6.67h-2.11v-1.38c1.05-.05,2.06-.17,2.49-1.83h1.49v9.87Z"/><path class="f" d="M262.79,169.78c.36,.59,.76,1.69,.92,2.23-.43,.11-.56,.17-.94,.36-.16-.74-.39-1.52-.73-2.15l.75-.43Zm-1.81-3.6c-.05,.51-.14,.79-.2,1,.42,.26,.56,.38,.65,.45-.09,.1-.14,.17-.21,.28,.16,.05,.31,.1,.46,.1,.26,0,.33-.16,.4-.54,.05-.25,.09-.77,.09-1.29h-1.18Zm2.22-.96c-.04,1.77-.06,2.2-.27,2.99-.09,.35-.28,.84-1.26,.84-.17,0-.29-.02-.41-.04-.02-.16-.04-.36-.19-.86-.06,.11-.08,.19-.15,.36-.13-.12-.27-.25-.57-.45-.42,.67-.8,1.03-1.47,1.44-.29-.39-.55-.56-.74-.68,.7-.39,1.11-.76,1.39-1.24-.44-.24-.62-.31-.83-.38l.46-.85c.19,.07,.41,.16,.74,.33,.03-.12,.07-.27,.08-.52h-1.44v-.96h4.65Zm-5.85,5.79h-.92v.96h.92v-.96Zm.73-1.31h-2.43v-.84h2.43v.84Zm0-1.24h-2.43v-.8h2.43v.8Zm0-2.47h-2.44v-.78h2.44v.78Zm2.9,2.91c.28,.31,.56,.73,1.03,1.36-.2,.1-.61,.34-.81,.54-.2-.4-.27-.52-.37-.68,0,.05-.06,.08-.2,.17v1.76c0,.13,0,.25,.35,.25,.48,0,.49-.11,.58-1.04,.15,.11,.51,.38,.99,.46-.14,.84-.42,1.53-1.15,1.53h-.98c-.54,0-.76-.29-.76-.79v-1.85h-.05c-.08,.54-.25,1.25-.67,2.02-.14-.09-.31-.2-.61-.32v.97h-.97v-.38h-.92v.46h-.99v-3.25h2.87v1.65c.2-.49,.3-.84,.43-1.59l.9,.18v-.5l.91,.09c.1,0,.15,.02,.19,.04-.19-.29-.31-.42-.42-.55l.66-.52Zm-2.47-1.64h-3.33v-.86h3.33v.86Z"/><path class="f" d="M272.81,172.05v1.01h-4.94v-1.01h.43v-4.82l1.14,.05c.08,0,.19,.04,.19,.14,0,.09-.07,.12-.25,.18v4.46h.55v-5.88h-2v-.98h4.75v.98h-1.68v2.09h1.53v1.04h-1.53v2.74h1.82Zm-6.15-1.04h-1.04v.94h1.04v-.94Zm.76-1.31h-2.64v-.84h2.64v.84Zm0-1.23h-2.64v-.81h2.64v.81Zm0-2.45h-2.64v-.81h2.64v.81Zm-1.79,6.86v.48h-1.01v-3.24h3.03v3.14h-.99v-.38h-1.04Zm2.2-5.63h-3.49v-.84h3.49v.84Z"/><rect class="f" x="278.9" y="168.84" width="18.34" height=".63"/><rect class="f" x="125.44" y="168.84" width="18.34" height=".63"/><path class="f" d="M314.91,80.23v1.44h2.92c4.07,0,7.38,3.31,7.38,7.38v31.59h1.44v-31.59c0-4.86-3.95-8.82-8.82-8.82h-2.92Z"/><path class="f" d="M98.08,89.04c0-4.07,3.31-7.38,7.38-7.38h4.6v-1.44h-4.6c-4.86,0-8.81,3.96-8.81,8.82v31.59h1.44v-31.59Z"/><path class="f" d="M325.2,175.25c0,4.07-3.31,7.38-7.38,7.38H105.46c-4.07,0-7.38-3.31-7.38-7.38v-15.19h-1.44v15.19c0,4.86,3.95,8.82,8.81,8.82h212.37c4.86,0,8.82-3.95,8.82-8.82v-15.19h-1.44v15.19Z"/><path class="f" d="M153.82,86.7h-3.6v2.85h-2.05v-2.85h-3.88c-1.06,2.35-3.94,2.8-4.72,2.93l-.83-1.71c.49-.03,2.3-.15,3.31-1.22h-3.5v-1.73h4.32c.05-.38,.08-.54,.08-.98h1.86c0,.21-.05,.75-.06,.98h3.44v-.88c-.29,0-.78-.13-1.06-.51,0,0,0-.02-.02-.03-.18-.25-.26-.61-.26-.75v-3.86h-2.79c-.13,.21-.19,.29-.42,.57h2.57v1.32c-.18,.29-.39,.57-.61,.83-.68,.79-1.53,1.41-2.46,1.89-1.26,.66-2.66,1.07-3.95,1.27l-.53-1.27-.16-.37c.63-.05,1.63-.13,2.98-.59-.26-.26-.36-.36-.8-.73l.35-.2,1.15-.66c.18,.16,.43,.37,.72,.66,.08,.07,.14,.13,.22,.21,.13-.08,.23-.15,.33-.21,.54-.36,.75-.6,.97-.88h-2.3c-.26,.17-.82,.52-1.6,.88-.39,.18-.82,.35-1.33,.51l-.24-.51-.49-1.04c.39-.08,.86-.22,1.35-.4,.75-.27,1.55-.67,2.19-1.28h-3.29v-1.47h14.99v1.47h-4.97v1.3s.09-.02,.14-.03c1.24-.21,2.45-.53,3.68-1.13l.67,1.13,.19,.32c-1.25,.51-2.77,.89-4.17,1.12-.17,.03-.34,.06-.51,.08v.44c0,.16,0,.39,.39,.39h2.49c.26,0,.36-.13,.41-.25,.05-.09,.08-.38,.1-.67,.02-.23,.03-.45,.03-.57l1.82,.54v.03c-.08,.75-.16,1.44-.46,1.89-.22,.33-.56,.54-1.12,.54h-2.17v.88h3.6v1.73Zm-21.75,2.33h-9.67v-2.05h3.94v-6.39h-3.19v-2.07h3.19v-4.36h2.07v4.36h3.36v2.07h-3.36v6.39h3.66v2.05Zm-10.63-5.47c-.12-.14-.23-.25-.35-.41v6.38h-2.04v-5.91c-.83,.73-1.38,1.12-1.86,1.45l-.45-1.51-.21-.72c.55-.34,1.07-.74,1.57-1.18,.53-.46,.99-.94,1.41-1.44,.49-.58,.9-1.16,1.16-1.7,0-.02,.02-.03,.03-.05h-3.93v-1.91h2.28v-2.41h2.04v2.41h1.81v1.91s-.02,.03-.02,.05c-.35,.71-.64,1.24-.93,1.7-.18,.28-.36,.55-.55,.81,.22,.25,.41,.45,.6,.63,.72,.7,1.27,1.03,1.67,1.26l-.33,.63-.66,1.27c-.38-.35-.8-.77-1.23-1.27m22.8-6.97v.63h-2.02v-.63h-3.68v-1.7h3.68v-.75h2.02v.75h3.96v-.75h2.02v.75h3.6v1.7h-3.6v.63h-2.02v-.63h-3.96Zm13,15.06c.47-.47,.76-1.12,.76-1.83h0v-16.53c0-.07-.02-.14-.02-.21-.08-.98-.69-1.81-1.56-2.18-.31-.13-.65-.2-1.01-.2h-40.15c-.36,0-.7,.07-1.01,.2-.87,.37-1.48,1.2-1.56,2.18,0,.07-.02,.14-.02,.21v16.53h0c0,.72,.29,1.37,.76,1.84,.47,.47,1.12,.76,1.83,.76h40.15c.72,0,1.36-.29,1.83-.76"/><polygon class="f" points="282.16 83.56 282.16 84.99 285.89 84.99 285.89 83.56 285.89 82.21 282.16 82.21 282.16 83.56"/><path class="f" d="M267.31,75.84c-.84,1.04-1.83,1.92-2.99,2.69-.05,.04-.1,.08-.15,.11h6.37c-.06-.04-.1-.07-.16-.11-1.71-1.19-2.6-2.17-3.07-2.69"/><rect class="f" x="263.59" y="83.72" width="8.26" height="3.36"/><path class="f" d="M307.43,78.95h-4.97v1.3s.09-.02,.14-.03c1.24-.21,2.45-.53,3.68-1.13l.67,1.13,.19,.32c-1.25,.51-2.77,.89-4.17,1.12-.17,.03-.34,.06-.51,.08v.44c0,.16,0,.39,.39,.39h2.49c.26,0,.36-.13,.41-.25,.04-.09,.07-.38,.1-.67,.02-.23,.03-.45,.03-.57l1.82,.54v.03c-.08,.75-.16,1.44-.46,1.89-.22,.33-.56,.54-1.12,.54h-2.17v.88h3.6v1.73h-3.6v2.85h-2.05v-2.85h-3.88c-1.06,2.35-3.94,2.8-4.72,2.93l-.83-1.71c.49-.03,2.29-.15,3.3-1.22h-3.5v-1.73h4.32c.05-.38,.08-.54,.08-.98h1.86c0,.21-.05,.75-.07,.98h3.44v-.88c-.29,0-.78-.13-1.06-.51,0,0,0-.02-.02-.03-.18-.25-.26-.61-.26-.75v-3.86h-2.78c-.13,.21-.2,.29-.42,.57h2.57v1.32c-.18,.29-.39,.57-.61,.83-.68,.79-1.53,1.41-2.46,1.89-1.26,.66-2.66,1.07-3.95,1.27l-.53-1.27-.16-.37c.64-.05,1.63-.13,2.98-.59-.26-.26-.36-.36-.8-.73l.35-.2,1.15-.66c.18,.16,.43,.37,.72,.66,.08,.07,.14,.13,.22,.21,.13-.08,.23-.15,.33-.21,.54-.36,.75-.6,.97-.88h-2.3c-.26,.17-.81,.52-1.6,.88-.39,.18-.82,.35-1.33,.51l-.24-.51-.49-1.04c.39-.08,.86-.22,1.35-.4,.75-.27,1.55-.67,2.19-1.28h-3.29v-1.47h14.98v1.47Zm-16.7,9.04c0,1.55-1.25,1.55-1.65,1.55h-2.74l-.34-2.07h2.2c.2,0,.49,0,.49-.44v-10.43h-10.11v12.93h-2.05v-14.85h14.2v13.31Zm-11.63-9.46v-.88h9.06v1.76h-9.06v-.88Zm.78,5.03v-3.08h7.51v6.21h-7.51v-3.13Zm-6.37,5.95h-2.05v-.6h-8.26v.6h-2.05v-7.62h12.36v7.62Zm1.7-10.98l-.93,1.7-.18,.34c-.2-.09-.46-.21-.73-.34-.5-.24-1.09-.54-1.75-.92v1.17h-8.45v-1.22c-.76,.43-1.35,.73-1.86,.97-.28,.13-.53,.24-.75,.34l-.18-.34-.89-1.7v-.02c2.66-.88,5.12-2.35,6.75-4.37h2.21c.91,1.06,2.48,2.74,6.76,4.37v.02Zm22.76-1.94v.63h-2.02v-.63h-3.68v-1.7h3.68v-.75h2.02v.75h3.96v-.75h2.02v.75h3.6v1.7h-3.6v.63h-2.02v-.63h-3.96Zm11.59-5.9h-50.13c-.4,0-.78,.08-1.12,.23-.46,.2-.85,.51-1.15,.9-.37,.49-.61,1.09-.61,1.75v15.96c0,.98,.49,1.84,1.24,2.36,.01,0,.02,.02,.03,.03,.04,.03,.09,.05,.14,.07,.43,.26,.93,.42,1.47,.42h50.13c.51,0,.97-.14,1.39-.37,.72-.4,1.26-1.09,1.43-1.93,.04-.19,.06-.38,.06-.58v-15.96c0-.99-.5-1.87-1.27-2.39-.46-.31-1.01-.49-1.61-.49"/><rect class="f" x="184.33" y="76.51" width="4.05" height="1.99"/><path class="f" d="M217.65,80.23c-.21,.46-.34,.95-.42,1.44-.06,.39-.11,.79-.11,1.18,0,.27,.02,.5,.04,.72,.19,1.42,.92,1.71,1.26,1.71,.55,0,1.09-.6,1.55-1.71,.21-.52,.41-1.15,.58-1.89,.1-.44,.19-.92,.28-1.44,.08-.53,.16-1.09,.22-1.7,.04-.35,.08-.68,.1-1.06-.92,.21-1.63,.59-2.2,1.06-.58,.48-1.01,1.06-1.29,1.7"/><path class="f" d="M238.56,75.79c-.78,1.08-1.92,2.02-2.91,2.74l-.02,.02h5.93l-.02-.02c-1.75-1.29-2.56-2.23-2.98-2.74"/><path class="f" d="M168.44,85.29c0,.96,.83,1.27,1.37,1.27,.72,0,.72-.29,.72-.62v-3.22c-.29,.15-.8,.43-1.25,.85-.45,.42-.84,.99-.84,1.73"/><path class="f" d="M245.8,83.8h-8.26c-.62,1.45-1.03,2.38-1.53,3.36,.52,0,3.24-.06,5.91-.28-.36-.49-.78-1.03-1.65-2.02l1.73-.93c1.86,1.84,3.24,4.12,3.58,4.68l-1.86,1.06c-.18-.33-.29-.57-.65-1.16-2.1,.25-4.76,.57-11.34,.7l-.26-2.05c.21,0,1.96,.02,2.33,.02,.47-.9,1.02-2.23,1.4-3.37h-3.91v-1.9h14.5v1.9Zm-23.59,4.98l-.68-2.09c2.4-.11,4.64-.72,5.37-3.14,.16-.52,.27-1.1,.27-1.81,0-.03,0-.06,0-.08,0-.47-.06-.96-.18-1.44-.16-.62-.45-1.21-.92-1.7-.59-.61-1.45-1.06-2.74-1.16-.03,.34-.06,.73-.1,1.16-.05,.53-.11,1.1-.2,1.7-.07,.47-.15,.95-.25,1.44-.13,.64-.29,1.28-.5,1.89-.21,.63-.46,1.23-.76,1.74-.28,.47-1.32,2.18-3.19,2.18s-3.01-1.88-3.25-3.93c-.04-.3-.05-.6-.05-.9,0-.35,.05-.67,.09-1,.06-.5,.16-.98,.31-1.44,.2-.61,.45-1.19,.79-1.7,1.31-1.96,3.6-3.18,6.5-3.18s4.98,1.16,6.04,3.18c.27,.51,.48,1.08,.61,1.7,.09,.45,.14,.93,.15,1.44,0,.07,.02,.13,.02,.2,0,.61-.05,1.18-.15,1.69-.65,3.56-3.43,4.97-7.15,5.23m-9.22-.52c-2.7-.21-4.23-.62-4.11-4.17l.02-.54,.07-1.89,.06-1.44v-.35c.03-.52,.02-1-.13-1.35-.14-.34-.39-.55-.85-.55-.4,0-.99,.16-1.67,.55-.62,.35-1.31,.9-2.03,1.7-.17,.19-.34,.38-.51,.6,0,.32-.01,.59-.02,.84-.02,.7-.02,1.25-.03,1.89,0,.19,0,.38,0,.6,0,2.08,.05,3.83,.08,4.66h-2.2c0-.77,.03-4.12,.05-4.81-.93,1.47-1.56,2.09-1.99,2.49l-1.19-2.09c.19-.19,.5-.5,.84-.86,.46-.49,.99-1.11,1.54-1.89,.27-.39,.55-.81,.81-1.27v-1.17h-2.69v-2.04h2.7c0-.21,.02-2.35,.02-2.39h2.2c-.02,.39-.07,2.18-.08,3.27,.93-.9,2.65-2.23,4.67-2.23,1.08,0,1.91,.54,2.33,1.24,.21,.35,.31,.83,.35,1.45,.02,.31,.03,.65,.02,1.04l-.02,.66-.04,1.44-.06,1.89v.34c-.04,1.35-.07,2.26,2.32,2.22l-.47,2.15Zm-16.18-.23c0,1.16-.82,1.43-1.53,1.43h-2.54l-.37-2.09h2.04c.41,0,.42-.19,.42-.58v-12.66h1.99v13.89Zm-5.29-4.48v-8.44h1.94v10.52h-1.94v-2.09Zm-1.92,4.81c-.13,.36-.42,1.11-1.92,1.11h-1.73l-.37-1.86h1.47c.56,0,.67-.11,.75-.33,.18-.5,.31-2.68,.34-3.73v-.07h-2.21v.07c-.22,1.7-.58,3.9-2.59,5.93l-1.47-1.61c1.18-1.16,1.76-2.38,2.06-4.32,.09-.57,.16-1.18,.21-1.89,.03-.44,.05-.91,.08-1.41h-1.78v-5.54h7.83v5.54h-4.11c-.03,.59-.03,.8-.06,1.37h4.05v.05c-.01,.35-.04,1.06-.07,1.89-.08,1.79-.23,4.16-.48,4.81m-16,.52l-.44-1.91c1.91,0,4.87,.02,4.87-2.67,0-.28-.04-.53-.11-.75-.48-1.66-2.56-1.66-3.17-1.66-1.08,0-1.66,.13-2.15,.24v4.28c0,.6,0,2.12-2.59,2.12s-3.6-1.99-3.6-3.18c0-.37,.07-1.05,.47-1.81,.33-.61,.9-1.27,1.85-1.89,.5-.33,1.06-.64,1.8-.93v-2.18h-3.76v-2h3.76v-1.73h2.07v1.73h3.55v2h-3.55v1.67h.05c.45-.08,1.19-.22,2.29-.22,.81,0,1.45,.09,1.98,.22,.99,.24,1.55,.64,1.87,.9,.19,.17,.32,.35,.46,.53,.5,.63,.76,1.3,.86,1.89,.06,.33,.09,.64,.09,.88,0,3.63-3.29,4.5-6.61,4.45m7.36-9.85l-1.92,1.07c-.24-.54-.56-1.06-.9-1.58-.72-1.08-1.59-2.06-2.39-2.67l1.61-1.22c1.69,1.31,2.6,2.57,3.32,3.89,.09,.17,.19,.33,.28,.51m65.51-.21l-.74,1.41-.3,.58c-.3-.13-.7-.31-1.21-.58-.39-.2-.83-.45-1.36-.8v.93h-8.57v-.9c-.55,.33-1,.57-1.38,.77-.53,.28-.95,.46-1.24,.6l-.3-.6-.71-1.41c.25-.1,.46-.19,.69-.29,3.48-1.48,5.26-3.14,6.09-4.37h2.31c.83,1.05,2.33,2.73,6.06,4.37,.22,.1,.42,.2,.66,.29m5.25,9.96v-14.45c0-.25-.03-.5-.07-.73-.34-1.66-1.8-2.9-3.56-2.9h-81.75c-2.01,0-3.63,1.63-3.63,3.63v14.45c0,.25,.03,.5,.07,.73,.34,1.66,1.8,2.9,3.56,2.9h81.75c2.01,0,3.63-1.63,3.63-3.63"/><path class="f" d="M73.17,125.25l4.86,.5c.66,.07,1.02,.36,1.02,.83,0,.36-.2,.63-.63,.89l-.5,.33v9.61h1.55l2.41-3.34,3.54,3.24c.23,.2,.33,.36,.33,.56,0,.33-.2,.43-.76,.43h-7.07v14.93h2.51l2.78-3.8,3.6,3.57c.26,.26,.36,.46,.36,.66,0,.33-.23,.46-.83,.46h-16.12c-1.95,0-2.77,.03-5.35,.13l-.4-1.19c2.81,.16,3.24,.16,5.75,.16h2.94v-14.93h-2.21c-1.55,0-2.05,0-4.06,.1l-.36-1.09c2.25,.1,2.94,.1,4.43,.1h2.21v-12.16Zm-13.51,7.7c-1.39,0-2.08,.03-4.13,.1l-.3-1.12c2.21,.1,2.54,.1,4.43,.13v-7.2l4.49,.76c.73,.1,1.09,.43,1.09,.93,0,.4-.23,.69-.83,.96l-.4,.2v4.36l1.45-2.35,3.24,3.07c.33,.3,.46,.56,.46,.83,0,.4-.23,.59-.83,.73l-.43,.1c-1.32,2.15-2.61,3.9-3.93,5.35v.6c2.05,.43,2.68,.63,3.44,1.16,1.06,.73,1.59,1.68,1.59,2.81,0,1.42-.89,2.38-2.21,2.38-1.16,0-1.52-.53-1.75-2.38-.2-1.55-.4-2.18-1.06-3.24v12.79c0,.69-.23,1.02-.86,1.35-.83,.43-1.92,.69-2.68,.69-.59,0-.86-.3-.86-.99v-11.4c-1.88,1.29-3.9,2.38-4.33,2.38-.16,0-.26-.1-.26-.26,0-.13,.07-.27,.3-.46,3.63-4.03,6.64-8.49,8.23-12.26h-3.87Z"/><path class="f" d="M104.17,133.01h4.33v-3.34h-4.33v3.34Zm-4.2,3.9c-.59,.56-.93,.83-2.11,1.68,1.06,.2,1.78,.73,2.11,1.55,1.12-1.12,1.59-1.68,2.74-3.24h-2.74Zm4.66,7.43c.56,.1,.96,.4,.96,.79,0,.3-.23,.59-.66,.79l-.46,.2c-.07,.86-.07,.99-.16,1.72h4.39v-3.7l4.23,.5c.63,.1,1.02,.36,1.02,.76,0,.3-.23,.59-.63,.79l-.33,.2v1.45h3.34l2.51-2.91,3.14,2.71c.26,.2,.36,.36,.36,.59,0,.33-.26,.5-.86,.5h-8.49v4.99c0,.86-.3,1.22-1.16,1.49-.56,.17-1.68,.33-2.21,.33-.66,0-.93-.3-.93-1.02v-5.78h-4.56c-.69,3.3-2.71,5.22-6.84,6.48-1.62,.5-3.96,.99-4.63,.99-.2,0-.33-.13-.33-.26,0-.26,.17-.36,.86-.63,3.96-1.49,6.24-3.73,6.64-6.57h-2.44c-1.75,0-3.14,.03-5.95,.17l-.56-1.26c2.91,.17,3.93,.2,6.51,.2h2.58c.16-1.19,.23-2.05,.23-3.01q0-.56-.03-1.06l4.46,.56Zm-.66-18.9c.59,.07,.99,.36,.99,.73,0,.33-.26,.66-.63,.83l-.16,.07v1.72h4.33v-3.83l4.23,.56c.63,.07,1.02,.36,1.02,.76,0,.3-.26,.59-.66,.79l-.3,.16v1.55h3.87l2.31-2.68,3.07,2.51c.17,.13,.26,.33,.26,.56,0,.36-.26,.5-.86,.5h-8.66v3.34h3.27l2.11-2.77,3.01,2.54c.23,.2,.4,.46,.4,.69,0,.3-.26,.43-.86,.43h-8.99v3.7c.4-.2,.69-.4,.93-.53,1.75-.96,2.21-1.26,4.03-2.74l2.48,2.05c.23,.2,.43,.53,.43,.79,0,.33-.33,.53-.86,.53h-.73c-1.75,.33-4.33,.63-6.28,.76v1.26c0,.66,.23,.73,2.44,.73,.33,0,.73,0,1.26-.03,.63-.03,1.26-.07,1.29-.07,1.35,0,1.65-.3,3.5-3.14,.33-.56,.36-.59,.56-.59,.17,0,.3,.13,.3,.33l-.03,.46c-.07,.56-.23,2.48-.23,2.74,0,.23,.07,.33,.3,.43,.63,.26,.99,.69,.99,1.09,0,.89-.83,1.68-2.02,1.92-1.16,.26-2.91,.36-5.81,.36-5.85,0-6.54-.33-6.54-3.17v-6.87h-4.92c-.86,1.02-1.29,1.49-1.92,2.15h2.08l1.62-1.72,2.61,2.77c.23,.23,.4,.53,.4,.76,0,.33-.26,.53-.76,.59l-.46,.07c-3.11,3.44-5.38,5.09-8.69,6.38-2.41,.96-4.76,1.59-5.85,1.59-.23,0-.33-.1-.33-.27,0-.13,.1-.23,.36-.4,2.25-1.06,3.53-1.88,5.65-3.57-.4-.4-.46-.56-.56-1.59-.1-.66-.17-.99-.3-1.29-1.82,1.12-4.36,2.35-4.92,2.35-.13,0-.23-.1-.23-.23,0-.17,.07-.26,.63-.69,2.48-1.95,4.1-3.9,5.72-6.9-3.07,.03-3.54,.07-6.01,.17l-.56-1.26c2.91,.16,3.93,.2,6.51,.2h2.08v-3.34h-2.61c-1.68,0-3.07,.03-5.91,.17l-.59-1.22c2.94,.13,4,.16,6.51,.16h2.61v-3.83l4.1,.5Z"/><path class="f" d="M151,128.72c0,1.36,1.09,2.45,2.44,2.45s2.45-1.09,2.45-2.48-1.09-2.41-2.48-2.41-2.41,1.12-2.41,2.44m.2,3.14c1.16,1.16,1.49,1.62,1.49,2.11,0,.3-.16,.66-.36,.83-.1,.07-.53,.26-1.29,.59-.23,.43-.36,.73-.43,.86-.5,.99-.99,1.98-1.45,2.97-.69,1.35-3.04,4.72-4.56,6.44-2.87,3.34-5.55,5.29-9.71,7.2-1.42,.63-3.24,1.29-3.6,1.29-.16,0-.3-.13-.3-.26,0-.17,.13-.33,.43-.5,5.91-3.4,10.87-10.11,14.17-19l.13-.36c-1.85,.16-4.43,.53-7.57,1.12-1.49,.36-3.3,.76-4.2,.96-.53,.13-.66,.2-.93,.36l-.63,.46c-.23,.17-.43,.27-.56,.27-.5,0-1.62-1.09-2.71-2.61-.83-1.12-1.02-1.62-1.02-2.38,0-.99,.27-1.72,.79-2.18,.93,1.52,1.65,2.15,2.58,2.15,.33,0,.76-.03,1.22-.1,6.8-.79,10.44-1.16,13.84-1.35l1.52-1.39c.93,.56,1.16,.76,2.48,1.92v-.03c-.69-.93-.92-1.55-.92-2.51,0-2.11,1.72-3.83,3.83-3.83s3.83,1.72,3.83,3.83-1.72,3.83-3.83,3.83c-.83,0-1.45-.2-2.25-.73v.03Z"/><path class="f" d="M164.31,145.77l.07-4.59,.03-4.36,.03-3.83c0-1.82-.1-2.21-.59-2.64-.13-.13-.73-.43-1.72-.89,.59-.73,1.82-1.39,2.44-1.39,.33,0,1.95,.56,3.07,1.06,1.78,.79,2.58,1.39,2.58,1.92q0,.4-1.12,1.49c-.36,4.89-.59,9.51-.69,13.84,6.21-2.25,13.25-6.21,18.07-10.18,.36-.36,.5-.43,.63-.43,.17,0,.26,.13,.26,.3,0,.63-3.2,4.46-5.85,7-2.25,2.15-4.79,4.1-7.7,5.82-1.32,.79-1.65,.96-5.78,3.04-.43,1.06-.59,1.32-1.02,1.32-.33,0-.73-.23-1.02-.63l-.96-1.32-1.02-1.39q-1.02-1.42-1.39-1.92l1.68-.5v-1.72Z"/><path class="f" d="M206.82,129.48c1.95,.93,2.91,2.11,2.91,3.57,0,1.29-1.02,2.28-2.35,2.28-.89,0-1.65-.36-2.87-1.49-2.91-2.64-5.91-4.39-9.18-5.42-.53-.2-.56-.2-.56-.43,0-.33,.13-.36,1.42-.36,4.43,0,8.16,.66,10.64,1.85m-3.14,7.7c3.77,1.06,5.91,2.81,5.91,4.82,0,1.29-.89,2.25-2.15,2.25-.79,0-1.39-.3-2.35-1.22-3.54-3.27-6.48-5.12-9.91-6.24-.43-.13-.53-.2-.53-.43,0-.2,.13-.3,.43-.3,2.97,0,5.91,.4,8.59,1.12m-9.84,7.17c.13,0,.89,.03,1.95,.07,5.09,.13,10.14,1.49,13.35,3.53,1.55,.99,2.38,2.31,2.38,3.73,0,1.55-1.02,2.58-2.64,2.58-.63,0-1.19-.2-1.78-.59q-.2-.13-2.44-2.15c-3.11-2.81-7.5-5.32-11.33-6.47-.23-.1-.33-.17-.33-.36,0-.23,.2-.36,.46-.36,.13,0,.2,0,.4,.03"/><path class="f" d="M240.85,127.76c1.29,.63,1.82,.99,3.63,2.58,1.52,1.32,1.88,1.78,1.88,2.41,0,.26-.17,.5-.46,.63-.07,.03-.66,.1-1.82,.2-4.66,2.61-6.48,3.54-9.48,4.82-1.06,3.96-1.55,5.39-2.61,7.33-1.75,3.3-4.2,5.81-7.43,7.6-1.49,.83-1.82,.99-1.98,.99-.13,0-.23-.1-.23-.23,0-.1,.07-.2,.2-.33,2.05-1.88,3.2-3.5,4.43-6.18,1.16-2.51,2.31-7.5,2.31-9.98,0-.63-.03-.69-.46-.93-.5-.26-.92-.5-1.59-.76,.4-.5,.63-.66,1.22-.83,.46-.13,1.02-.2,1.42-.2,.96,0,2.11,.59,4.56,2.28,1.32-1.35,2.51-2.97,4-5.35-1.55,0-5.58,.46-9.35,1.09-4.79,1.02-5.06,1.09-6.15,1.95-.26,.2-.56,.3-.76,.3-.43,0-1.12-.53-2.35-1.75-1.42-1.42-1.92-2.28-1.92-3.24,0-.76,.13-1.16,.53-1.45,.86,1.19,1.62,1.62,2.77,1.62,.23,0,.73-.03,1.52-.13,1.92-.23,8.85-.79,16.59-1.32l1.52-1.12Z"/><path class="f" d="M254.16,147.42c2.61-.1,10.11-.53,12.39-.73-1.06-2.61-2.94-5.48-4.13-6.41-.26-.2-.33-.3-.33-.46,0-.2,.2-.33,.43-.33,.56,0,2.94,1.02,4.46,1.95,3.73,2.28,6.31,5.72,6.31,8.49,0,1.85-1.19,3.24-2.74,3.24-1.45,0-2.18-.86-2.84-3.3-.3-.96-.4-1.32-.63-1.95l-.69,.2c-.3,.07-2.38,.59-4.2,1.09l-4.76,1.29-4.56,1.16-1.78,.5c-.2,.27-.4,.5-.43,.59-.43,.59-.69,.79-.99,.79-.46,0-.83-.33-2.44-2.21-.96-1.09-1.49-2.15-1.49-3.07,0-.33,.1-.79,.23-1.29,.16-.43,.23-.56,.59-.76,.83,1.16,1.02,1.36,1.68,1.36,.26,0,.69,0,1.19-.03,.43,0,1.09,0,1.88-.03h.83l.1-.26,.1-.3c1.95-5.02,4.96-15.36,4.96-16.92,0-.33-.2-.63-.63-.89q-.07-.07-.73-.43l-.5-.26c.59-.46,1.88-.93,2.58-.93,.43,0,1.39,.5,2.84,1.42,2.08,1.29,3.07,2.25,3.07,2.87,0,.4-.46,.73-1.72,1.16-2.15,4.3-5.52,10.31-8.03,14.21l-.17,.26h.13Z"/><path class="f" d="M304.63,129.95c0,1.6,1.29,2.88,2.84,2.88s2.88-1.29,2.88-2.88-1.29-2.85-2.92-2.85c-1.52,0-2.81,1.32-2.81,2.85m7.37,.04c0,2.49-2.03,4.52-4.52,4.52s-4.52-2.03-4.52-4.56,2.07-4.48,4.6-4.48,4.44,2.06,4.44,4.52m-14.19,3.86c2.73,.66,6.86,2.69,9.43,4.72,3.43,2.69,5.34,5.54,5.34,8.03,0,2.3-1.48,3.98-3.51,3.98-.66,0-1.36-.27-1.79-.7q-.66-.7-1.75-3.43c-1.99-4.76-4.64-8.65-8.18-11.96-.31-.27-.39-.39-.39-.51s.12-.23,.23-.23c.08,0,.16,0,.31,.04l.31,.08Zm-10.02,11.11c-3.12,3.23-4.76,4.48-8.22,6.35-1.48,.82-2.3,1.17-2.53,1.17-.08,0-.19-.08-.19-.19q0-.16,1.72-1.79c4.05-4.4,5.96-7.41,8.22-12.94,.27-.78,.43-1.29,.47-1.36,.12-.23,.16-.43,.16-.55,0-.19-.27-.51-.66-.74-.16-.12-.2-.12-1.01-.47-.35-.16-.35-.19-.62-.31,.74-.9,1.91-1.56,2.73-1.56s2.53,.66,4.29,1.72c1.91,1.13,2.65,1.87,2.65,2.69,0,.58-.35,.82-1.87,1.4-2.96,4.25-3.51,4.95-5.11,6.59"/><path class="f" d="M324.26,135.1c2.71,.66,4.26,2.18,4.26,4.1,0,1.25-.89,2.21-2.08,2.21-.56,0-1.02-.26-1.32-.69q-.23-.36-.59-1.92c-.23-1.32-1.06-2.48-2.54-3.63-.1-.1-.13-.17-.13-.26,0-.13,.1-.23,.26-.23,.3,0,1.16,.16,2.15,.43m-4.06,18.9c-.26,.1-.36,.13-.43,.13-.13,0-.23-.1-.23-.2s.1-.23,.36-.36c3.7-2.11,6.18-4.23,8.29-7.1,1.42-1.92,2.68-4.16,3.87-7,.63-1.55,.93-2.44,.93-2.84,0-.33-.53-.83-1.45-1.32,.3-.5,1.09-.83,1.98-.83,.66,0,1.19,.23,2.31,1.06,1.19,.89,2.21,2.05,2.21,2.54,0,.1-.07,.23-.17,.3-.1,.07-.3,.17-.56,.26-.1,.07-.23,.13-.4,.23-4.53,8.42-8.39,12.09-15.63,14.74l-1.09,.4Zm-1.32-16.85c2.61,.76,4.1,2.28,4.1,4.16,0,1.29-.89,2.25-2.08,2.25-.59,0-1.09-.26-1.35-.73q-.23-.36-.53-1.95c-.2-1.32-.99-2.58-2.41-3.73-.1-.1-.13-.16-.13-.23,0-.16,.1-.26,.26-.26,.26,0,1.16,.2,2.15,.5"/><path class="f" d="M353.71,135.45c-2.15,2.83-3.44,4.16-5.8,5.9-2.05,1.53-4.64,3.07-5.11,3.07-.1,0-.21-.1-.21-.2s.07-.2,.34-.44c3.82-3.51,6.85-8.46,8.93-14.66,.1-.27,.2-.58,.24-.61,.07-.2,.14-.41,.14-.55s-.17-.34-.48-.58q-.07-.03-.58-.34c-.17-.1-.21-.14-.48-.27,.34-.51,1.33-.92,2.22-.92,1.64,0,5.63,2.66,5.63,3.75,0,.38-.2,.55-1.5,1.13-.17,.24-.51,.78-1.09,1.64l-.31,.44-.07,.07h.21l2.45-.24,2.83-.27,.89-.1,1.26-1.3q1.09,.65,3.07,2.08c1.43,1.06,1.71,1.33,1.71,1.77,0,.24-.14,.48-.34,.61q-.07,0-.68,.27c-.2,.07-.24,.07-.48,.2l-.31,.51q-.14,.24-2.11,3.61c-3.24,5.46-7.84,9.89-12.99,12.55-2.11,1.06-5.93,2.56-6.55,2.56-.14,0-.24-.1-.24-.2,0-.17,.14-.31,.71-.61,6.14-3.27,11.8-10.06,15.93-18.96l-.41,.03c-1.47,.17-2.39,.31-2.76,.34l-1.5,.27-1.6,.27-.48,.07-.48-.89Z"/><path class="f" d="M365.04,151.73h-1.11v-1.22h1.11c.35,0,.67,.1,.67,.6,0,.41-.24,.62-.67,.62m.7,.27v-.02c.13-.04,.64-.23,.64-.98,0-.65-.44-1.05-1.28-1.05h-1.86v3.89h.68v-1.6h1c.63,0,.77,.32,.77,1.03,0,.19,0,.4,.1,.57h.73c-.15-.16-.21-.57-.21-1.02,0-.62-.34-.79-.58-.82"/><path class="f" d="M364.72,154.71c-1.54,0-2.78-1.25-2.78-2.78s1.25-2.78,2.78-2.78,2.78,1.25,2.78,2.78-1.24,2.78-2.78,2.78m0-6.04c-1.8,0-3.26,1.46-3.26,3.27s1.46,3.26,3.26,3.26,3.26-1.46,3.26-3.26-1.46-3.27-3.26-3.27"/><path class="f" d="M185.12,114.34s-7.97-.15-8.63-.15c-1.87,0-4.17-1.43-4.17-4.02v-4.26h6.43c1.81,0,2.62,.58,2.62,1.53,0,.83-.87,1.23-2.43,1.23h-3v1.97h5.55c2.99,0,4.24-1.37,4.24-3.28,0-2.03-1.31-3.41-4.14-3.41h-9.26v-2.8h-4.36v2.8h-2.74v1.96h2.74v5.05c0,5.48,6.25,5.33,6.25,5.33h10.91v-1.96Z"/><path class="f" d="M205.93,106.75h-4.66c-.35,.65-6.36,7.83-9.33,6.53-.89-.39-.95-.78-.95-2.9v-9.15h-4.2v9.41c0,5.07,3.45,5.41,5.1,5.41,4.09,0,5.02-.87,6.3-1.56,1.68-.91,6.34-4.67,7.74-7.75"/><path class="f" d="M206.5,107.15v1.81h5.79v2.25c0,4.38,2.35,5.04,6.34,5.04h6.72v-1.96s-2.99-.1-4.17-.1c-2.98,0-5.06-.61-5.06-2.69v-2.55h10.03v-1.81h-10.03v-3.19h10.03v-1.96h-19.64v1.96h5.79v3.19h-5.79Z"/><path class="f" d="M241.97,102h-14.67v1.96h13.36c1.06,0,2.41,.4,2.41,1.86,0,.93-.59,1.68-2.41,1.68h-7.31s0,2.11,0,3.49c0,1.99-.94,3.35-2.6,3.35h-3.45v1.96h4.15c3.05,0,5.83-1.03,5.83-5.2,0-.77,0-1.64,0-1.64h5.83c5.86,0,5.97-7.46-1.14-7.46"/><path class="f" d="M244.79,114.49h-.83v-.91h.83c.26,0,.51,.08,.51,.45,0,.31-.18,.46-.5,.46m.53,.21h0c.1-.04,.48-.19,.48-.74,0-.49-.33-.79-.96-.79h-1.39v2.91h.51v-1.2h.75c.47,0,.58,.24,.58,.77,0,.15,0,.3,.08,.43h.55c-.11-.12-.16-.43-.16-.76,0-.46-.26-.59-.43-.62"/><path class="f" d="M244.55,116.72c-1.15,0-2.08-.93-2.08-2.08s.93-2.08,2.08-2.08,2.08,.93,2.08,2.08-.93,2.08-2.08,2.08m2.45-2.08c0-1.35-1.09-2.45-2.44-2.45s-2.44,1.1-2.44,2.45,1.09,2.44,2.44,2.44,2.44-1.09,2.44-2.44"/><rect class="f" x="136.85" y="108.8" width="22.67" height=".69"/><rect class="f" x="254.21" y="108.7" width="22.67" height=".69"/></g><g><path class="e" d="M408.33,51.81c1.56-1.41,3.24-3.17,4.7-4.96,.47-.57,.78-1,.79-1.11,.01-.11-.06-.19-.17-.19-.41,0-1.33,.27-3.78,1.11-3.37,1.14-3.85,1.33-4.98,1.76-.19,1.25-.23,1.71-.32,2.5-.29,2.74-.29,4.01,.05,4.64,.34,.65,1.26,.95,2.96,.95,1.9,0,3.8-.27,4.98-.71,.37-.14,.42-.16,.56-.16,.24,0,.63,.16,1.01,.43,.5,.35,.73,.76,.69,1.14-.03,.33-.27,.54-.69,.62-.95,.24-2.56,.35-4.51,.35-3.85,0-5.58-.57-6.23-2.09-.49-1.06-.5-2.74-.09-7.16q-.26,.14-1.39,.57c-.2,.08-.57,.24-1.11,.46-.29,.14-.6,.27-.88,.41-.4,.16-.43,.19-.8,.41-.38,.22-.63,.3-.9,.3-.57,0-1.25-.54-1.83-1.41-.4-.6-.63-1.25-.59-1.63,0-.08,.05-.19,.09-.33,.74,1,1.27,1.36,2.05,1.36,.68,0,3.41-.71,5.52-1.41,.48-5.13,.51-5.37,.39-6.05-.14-.73-.72-1.19-1.85-1.52,.27-.27,.5-.35,.96-.35,.92,0,2.05,.33,2.92,.81,.51,.3,.75,.65,.71,1q-.02,.16-.29,.65c-.4,.71-.83,2.5-1.23,4.99,3.26-1.06,5.19-1.68,6.04-2.01q1.55-.57,2.11-.95c.29-.22,.46-.27,.73-.27,.52,0,1.23,.43,1.99,1.17,.54,.54,.75,.87,.72,1.19-.04,.38-.19,.49-.84,.73-.28,.11-1.04,.65-3.08,2.22-1.38,1.03-2.38,1.71-4.2,2.85l-.24-.33Z"/><path class="e" d="M447.4,46.79c-1.71,2.09-2.68,3.09-4.52,4.61-2.67,2.22-5.46,3.99-8.77,5.53-1.6,.79-1.63,.79-2.17,1.3-.24,.24-.45,.35-.66,.35-.54,0-1.62-1.6-1.54-2.33q.01-.14,.19-.49c.25-.6,.34-1.22,.65-4.15,.63-5.99,.77-8.62,.52-9.63-.17-.68-.57-1-1.72-1.41,.35-.22,.54-.27,.87-.27,.57,0,1.38,.24,2.1,.65,1,.57,1.48,1.11,1.43,1.65q-.02,.16-.2,.57c-.18,.43-.42,1.44-.63,2.68-.31,1.65-.99,6.59-1.2,8.6-.03,.27-.08,.76-.14,1.36,4.06-1.44,6.6-2.69,9.75-4.8,2.22-1.49,4.26-3.12,5.74-4.56l.32,.33Z"/><path class="e" d="M459.45,41.02c1.09,.98,1.82,1.3,2.85,1.3,1.6,0,4.06-.41,6.24-1.03,1.59-.46,2.21-.68,3-1.17,.2-.11,.37-.16,.56-.16,.84,0,2.03,.79,1.98,1.3-.04,.35-.61,.62-2,.92-3.35,.68-5.64,1.06-7.2,1.17,1.26,.65,1.65,1.08,1.58,1.76q-.02,.19-.22,.79c-.19,.52-.39,1.36-.54,2.33,1.46-.22,6.03-.87,6.47-.95,.83-.14,1.36-.27,1.84-.46,.23-.08,.42-.14,.58-.14,.41,0,1.14,.27,1.7,.62,.51,.33,.79,.73,.76,1.06s-.35,.52-.89,.52h-.33c-.46-.03-1.7-.05-2.49-.05-2.44,0-4.08,.14-7.84,.6-.23,1.63-.33,2.33-.4,3.04-.21,1.95-.2,2.63,.02,3.15,.26,.62,.91,.87,2.13,.87,1.82,0,3.63-.27,4.82-.71,.08-.03,.2-.05,.3-.05,.33,0,.82,.22,1.24,.54s.61,.62,.58,.95c-.04,.38-.33,.6-.89,.71-.91,.16-2.55,.27-3.8,.27-3.47,0-4.94-.49-5.56-1.82-.42-.9-.51-1.87-.34-3.74q.01-.38,.2-2.17,.03-.33,.09-.87c-2.09,.3-4.15,.79-5.14,1.19-.34,.16-.48,.19-.67,.19-.38,0-.77-.19-1.18-.6-.64-.62-1.18-1.68-1.12-2.22,.02-.19,.09-.33,.22-.52,.6,1.03,1.25,1.46,2.31,1.46,.81,0,2.1-.14,5.68-.65,.08-.46,.08-.49,.12-.87,.33-3.15,.3-3.61-.25-4.12-.25,.03-.46,.03-.6,.03-1.41,0-2.49-.33-3.21-.95-.32-.27-.54-.54-1.01-1.22l.41-.3Z"/><path class="e" d="M488.39,59.81c2.18-1.65,4.14-4.04,5.63-6.83,1.11-2.06,2.12-4.72,2.25-5.91,.08-.73-.38-1.27-1.42-1.74,.18-.19,.38-.27,.65-.27,.35,0,1.26,.35,2,.79,.67,.38,.91,.6,1.07,.95,1.33-.76,3.97-2.69,5.26-3.88,.69-.6,.93-.9,.95-1.08,.03-.33-.28-.41-1.56-.41-1.79,0-6.5,.73-9.51,1.49-1.06,.27-2.04,.6-2.87,.95-.17,.08-.45,.14-.64,.14-.6,0-1.49-.81-1.98-1.82-.24-.52-.4-1.14-.36-1.46,.02-.19,.09-.38,.25-.62,.37,1.11,1.19,1.63,2.51,1.63,.98,0,1.47-.05,6.61-.71,.25-.03,.85-.11,1.89-.22,4.25-.49,4.48-.54,5.07-.81,.17-.05,.23-.08,.36-.08,.3,0,.76,.27,1.35,.79,1.07,.89,1.76,1.82,1.71,2.28-.04,.41-.22,.52-1.05,.73-.45,.14-.76,.24-1.39,.57-2.38,1.27-3.67,1.9-6.74,3.28-.21,.46-.24,.52-.54,1.22-1.61,3.72-2.89,5.83-4.72,7.76-1.49,1.55-2.97,2.74-4.58,3.63l-.23-.35Z"/><path class="e" d="M525.22,58.73c3.02-.87,5.01-1.98,6.74-3.77,1.79-1.82,2.84-4.04,3.1-6.54,.28-2.63-.56-4.72-2.43-5.99-1.11-.79-2.85-1.25-4.56-1.25-.33,0-.52,0-.95,.05,.55,.95,.69,1.46,.6,2.25-.22,2.12-2.16,6.07-4.57,9.38-1.99,2.71-3.46,4.04-4.46,4.04-.46,0-.87-.22-1.13-.57-.21-.33-.25-.43-.58-1.74-.17-.71-.3-1.03-.93-2.55-.34-.87-.46-1.6-.36-2.47,.18-1.71,1.31-3.72,3-5.37,2.44-2.33,6.17-3.8,9.73-3.8,2.74,0,5.17,.89,6.73,2.49,1.57,1.6,2.21,3.74,1.93,6.37-.36,3.39-2.65,6.4-6.26,8.22-1.66,.84-3.12,1.27-5.46,1.68l-.14-.46Zm-8.03-8.43c-.14,1.3,.13,2.63,.71,3.58,.33,.49,.65,.79,.95,.79,.6,0,2.05-1.46,3.6-3.58,2.34-3.2,4.15-6.7,4.32-8.38,.04-.41,0-.68-.24-1.36-4.81,.84-8.91,4.77-9.35,8.95Z"/><path class="e" d="M546.85,47.28h-.27c-.89,0-1.69,.05-2.4,.16l-.09-.95c.8,.14,1.2,.16,2.56,.16h18.03c.76-.81,1.01-1.06,1.77-1.87,.71,.71,1.43,1.38,2.09,2.03,.15,.14,.19,.22,.19,.3s-.15,.16-.26,.16h-13.42l-.75,7.1c-.27,2.58-.41,4.12-.53,6.37-.05,.19-.11,.27-.28,.33-.2,.08-1,.19-1.35,.19-.22,0-.32-.08-.3-.27v-.05c.35-2.49,.42-3.2,.55-4.39q-3.72,1.3-7.87,2.63c-.26,.92-.33,1.11-.58,1.11-.27,0-.43-.52-.83-2.68,.98-.05,1.28-.08,2.69-.27l1.06-10.06Zm.65,9.76c2.38-.41,3.23-.57,4.96-.98l.24-2.25h-4.85l-.34,3.23Zm.4-3.85h4.85l.28-2.69h-4.85l-.28,2.69Zm1.99-8.08v.08c-.03,.22-.34,.3-1.21,.3-.54,0-.67-.05-.65-.27,0-.03,0-.05,0-.05,.29-1.95,.41-2.82,.66-5.29,.19-1.82,.21-2.25,.25-3.42,.82,.49,1.07,.65,1.85,1.19h12.61c.46-.52,.61-.68,1.13-1.19,.7,.54,.9,.73,1.49,1.33,.12,.14,.17,.22,.16,.3q-.02,.16-.95,.76c-.38,3.58-.5,4.72-.58,6.05v.03c-.06,.24-.09,.3-.26,.35-.2,.08-.64,.11-1.23,.11-.35,0-.43-.05-.41-.27l.07-.71h-12.88l-.07,.71Zm-1.64,4.77h4.85l.27-2.6h-4.85l-.27,2.6Zm2.04-8.6l-.26,2.49h12.88l.26-2.49h-12.88Zm13.2-3.01h-12.88l-.25,2.39h12.88l.25-2.39Zm.15,11.44c.54-.49,.72-.62,1.28-1.08,.64,.57,.81,.76,1.48,1.38,.15,.16,.22,.27,.21,.35-.02,.16-.13,.24-1.32,.65-1.68,2.6-2.47,3.63-3.71,4.91,1.83,1.38,3.26,1.95,6.05,2.49l-.04,.35c-.58,.14-.87,.27-1.25,.57-.45,.38-.58,.6-.77,1.14-2.4-1.11-3.62-1.95-5.08-3.53-1.82,1.57-3.29,2.44-5.99,3.63l-.19-.3c2.1-1.19,3.4-2.2,5.44-4.26-1.38-1.84-2-3.17-2.6-5.69h-.24c-.43,0-.87,.05-1.37,.14l-.09-.9c.5,.11,.83,.14,1.53,.14h6.67Zm-6,.62c.56,1.6,.76,2.01,1.35,2.87,.5,.71,.95,1.27,1.62,1.9,1.39-1.65,1.98-2.63,2.97-4.77h-5.94Z"/><path class="e" d="M594.4,49.51c.36-.35,.76-.76,1.18-1.19,.83,.6,1.08,.79,1.75,1.36,.15,.16,.19,.22,.18,.33-.02,.19-.05,.22-1.08,.73l-.46,4.39c-.07,.9-.12,1.71-.21,2.5-.1,1.22-.11,1.3-.16,2.01-.1,.71-.37,.98-1.22,1.27-.48,.19-1.04,.33-2.2,.52,0-.71-.19-1.03-.7-1.3-.41-.24-.99-.35-2.58-.52l.05-.49c1.94,.11,2.83,.16,4.4,.16,.22-.03,.29-.14,.32-.46l.91-8.68h-17.35l-.58,5.53c-.21,2.03-.27,2.6-.51,5.37-.07,.16-.13,.22-.35,.24-.3,.05-.91,.11-1.29,.11-.3,0-.37-.05-.41-.24,.42-3.25,.46-3.61,.54-4.39,.52-4.99,.66-6.54,.82-8.54,1.03,.52,1.34,.68,2.22,1.3h16.7Zm.72-9.98c.82-.87,1.07-1.14,1.9-2.06,1.2,.95,1.55,1.25,2.61,2.25,.07,.08,.12,.16,.11,.22-.01,.14-.13,.22-.29,.22h-21.69c-.73,0-1.96,.08-2.6,.19l-.12-1.14c.85,.16,2.16,.33,2.73,.33h8.27l.16-1.55c.05-.43,.06-.81,0-1.63,2.73,.3,3.1,.38,3.07,.73-.02,.19-.25,.33-1.12,.62l-.19,1.82h7.16Zm-3.58,2.87c.43-.46,.55-.62,1.04-1.08,.73,.52,.96,.68,1.61,1.19,.15,.14,.17,.19,.16,.27-.02,.16-.05,.19-.97,.76-.05,.49-.1,.92-.12,1.17-.06,.6-.11,1-.28,3.2-.02,.22-.08,.27-.31,.35-.17,.05-.85,.11-1.23,.11-.27,0-.37-.08-.35-.3l.1-.92h-9.79l-.07,.71s0,.05,0,.08c-.03,.27-.39,.41-1.21,.41-.6,0-.7-.05-.67-.3v-.08c.21-1.44,.31-2.09,.45-3.44,.14-1.36,.2-2.12,.25-3.17,.96,.41,1.21,.57,2.03,1.06h9.38Zm-2.49,10.03c.43-.46,.55-.6,1.03-1.03,.71,.49,.91,.65,1.5,1.19,.1,.11,.12,.16,.11,.22q-.01,.14-.83,.71l-.11,1.08c-.05,.46-.12,1.11-.21,1.95-.02,.49-.08,.98-.12,1.41-.06,.33-.45,.43-1.48,.43-.24,0-.32-.05-.33-.19l.1-.92h-7.05l-.14,1.36c-.08,.24-.31,.33-.96,.35-.19,0-.33,.03-.41,.03h-.05c-.3,0-.42-.11-.4-.35l.44-3.93c.15-1.46,.23-2.44,.27-3.36,.9,.43,1.19,.57,2.03,1.06h6.62Zm-7.59-5.91h9.79l.37-3.5h-9.79l-.37,3.5Zm.26,10.14h7.05l.38-3.61h-7.05l-.38,3.61Z"/><path class="e" d="M605.65,60.11c-.06,.35-.26,.43-1.11,.46-.14,0-.27,.03-.38,.03h-.05c-.3,0-.4-.11-.37-.41,.24-1.52,.37-2.47,.59-4.58,.4-3.82,.62-6.18,.66-7.08,.93,.46,1.18,.62,2.04,1.19h5.1c.55-.6,.73-.79,1.34-1.36,.62,.57,.79,.73,1.33,1.3,.17,.24,.21,.33,.2,.43q-.02,.19-.92,.73c-.23,2.2-.72,7.16-.88,8.87-.05,.24-.12,.35-.31,.41-.17,.08-.86,.16-1.24,.16-.24,0-.34-.08-.37-.33l.18-1.68h-5.61l-.19,1.84Zm.26-2.47h5.61l.77-7.29h-5.61l-.77,7.29Zm5.31-10.52c-.07,.43-.35,.54-1.33,.54-.46,0-.54-.05-.56-.3,.29-2.25,.35-2.82,.61-5.29,.24-2.31,.37-3.47,.45-4.83,.98,.52,1.28,.68,2.28,1.27h8.97c.55-.6,.73-.76,1.3-1.27,.7,.6,.92,.79,1.59,1.41,.15,.16,.19,.27,.18,.38-.02,.19-.23,.35-1,.73-.25,2.41-.53,5.29-.7,7.16-.03,.24-.09,.35-.29,.43-.17,.08-.78,.16-1.13,.16-.38,0-.51-.08-.5-.41l.13-1.27h-9.87l-.13,1.27Zm.2-1.9h9.87l.64-6.07h-9.87l-.64,6.07Zm5.77,7.02c.13-1.27,.2-2.14,.35-3.88,.87,.54,1.14,.73,2,1.36h5.07c.52-.54,.67-.71,1.22-1.25,.69,.62,.89,.81,1.51,1.38,.15,.16,.19,.24,.18,.38-.02,.19-.23,.35-.88,.62l-.15,1.44c-.29,2.71-.64,6.32-.73,7.48-.05,.24-.12,.35-.32,.43-.17,.08-.8,.16-1.21,.16-.33,0-.45-.11-.45-.41l.18-1.71h-5.67l-.17,1.65c-.09,.35-.26,.43-.95,.49-.24,0-.44,.03-.46,.03h-.05c-.24,0-.34-.08-.35-.3l.88-7.89Zm1.17,5.4h5.67l.77-7.29h-5.67l-.77,7.29Z"/><path class="e" d="M632.67,60.84c3.75-.84,7.09-2.2,8.56-3.5,2.02,.62,2.57,.87,2.53,1.17-.01,.14-.24,.24-.59,.24h-.24c-.19,0-.3,0-.57,.03-3.18,1.38-5.83,2.09-9.62,2.52l-.06-.46Zm10.41-19.06c-.13,1.22-.23,2.22-.29,2.98-.01,.11-.02,.22-.03,.27,0,.08-.02,.19-.03,.33-.02,.22-.06,.3-.15,.35-.14,.08-.64,.14-1.21,.14-.3,0-.42-.08-.4-.27,0,0,0-.03,0-.05q.17-1.06,.47-3.74h-3.44c-.67,2.49-1.84,4.07-4.31,5.69l-.27-.27c1.17-1.11,1.86-2.17,2.42-3.69,.38-1.03,.62-2.25,.81-4.1,.07-.65,.1-.95,.13-1.74,.9,.49,1.12,.68,1.88,1.25,1.2-.3,2.55-.79,3.97-1.44,.71-.33,1-.49,1.65-1,1.62,1.06,2.1,1.46,2.07,1.68-.02,.16-.19,.24-.49,.24-.16,0-.38-.03-.89-.08-1.95,.52-4.19,.95-6.64,1.27-.01,.14-.02,.22-.03,.3-.04,.41-.12,.87-.16,1.25h5.53c.61-.62,.79-.79,1.42-1.36,.71,.71,.93,.92,1.64,1.71,.03,.03,.05,.08,.04,.11,0,.08-.13,.16-.21,.16h-3.5Zm-3.74,15.43c-.02,.16-.08,.24-.19,.3-.22,.08-.8,.16-1.34,.16-.3,0-.42-.08-.43-.3,.34-2.2,.61-4.5,.98-8,.2-1.93,.23-2.5,.27-3.82,.91,.41,1.16,.54,1.98,1h11.31c.37-.41,.49-.54,.89-1,.65,.49,.86,.62,1.51,1.11,.18,.14,.25,.24,.24,.33-.02,.19-.29,.41-.92,.73-.45,4.28-.75,7.4-.88,9.36l-.03,.03c-.03,.24-.09,.3-.31,.35-.25,.08-.88,.14-1.32,.14-.24,0-.32-.05-.33-.22l.07-.71h-11.44l-.06,.54Zm.41-3.91l-.29,2.74h11.44l.29-2.74h-11.44Zm.34-3.2l-.27,2.58h11.44l.27-2.58h-11.44Zm11.51-.62l.24-2.3h-11.44l-.24,2.3h11.44Zm-2.66-7.7c-.27,.81-.47,1.17-.92,1.76-.94,1.22-2.03,1.98-3.8,2.66l-.14-.24c1.76-1.25,2.34-1.9,2.88-3.17,.4-.98,.8-2.71,.96-4.2,.04-.38,.05-.49,.08-.98,.9,.49,1.15,.65,1.93,1.25,1.05-.16,2.79-.73,4.69-1.55,1-.43,1.23-.57,1.76-.98,1.5,.92,2.18,1.46,2.15,1.74-.01,.14-.16,.27-.35,.27s-.19,0-1.09-.19c-2.18,.6-3.59,.84-7.57,1.33-.02,.22-.06,.35-.07,.46-.15,.68-.17,.84-.29,1.22h6.72q.7-.68,1.51-1.44c.79,.71,1.04,.92,1.78,1.68,.05,.05,.09,.14,.09,.16,0,.08-.13,.22-.21,.22h-4.99c-.04,.41-.15,1.41-.29,3.04-.01,.14-.05,.19-.13,.24-.12,.08-.83,.16-1.26,.16-.22,0-.32-.08-.32-.3q.08-.73,.24-2.03c.07-.38,.1-.71,.11-.81,0-.08,.02-.16,.03-.3h-3.47Zm-1.85,15.81c3.64,.43,6.44,.9,6.99,1.11,.7,.33,1.15,1.14,1.07,1.98-.04,.38-.28,.6-.6,.6q-.24,0-1.05-.54c-.63-.43-2.44-1.33-3.71-1.82-.5-.19-1.07-.38-2.83-.95l.15-.38Z"/><path class="e" d="M667.09,41.4c1.19,1.03,1.79,1.27,3.26,1.27,.87,0,1.67-.11,2.94-.35,.72-1.17,1.18-2.17,1.24-2.77,.08-.73-.39-1.17-1.77-1.52,.49-.24,.74-.3,1.25-.3,.62,0,1.39,.16,2.07,.46,.65,.27,.92,.57,.88,.9-.02,.19-.15,.38-.52,.79-.28,.33-.66,.81-.9,1.11q-.57,.79-.79,1.06c2.35-.65,3.11-.98,4.09-1.74,.18-.14,.34-.19,.53-.19,1.06,0,1.78,.38,1.72,.9-.03,.33-.42,.6-1.26,.87-2.5,.79-3.83,1.11-6.07,1.55-.56,.68-.94,1.17-1.66,2.12-.85,1.14-1.1,1.44-1.69,2.17,1.6-.79,2.58-1.08,3.61-1.08,1.6,0,2.68,1.08,2.75,2.71q.48-.22,2.8-1.33c2.83-1.36,3.52-1.79,3.57-2.28,.05-.46-.36-.95-1.11-1.27,.31-.14,.45-.16,.64-.16,1.19,0,2.89,1.65,2.78,2.74-.05,.49-.29,.68-1.07,.84-1.67,.38-5.33,1.74-7.56,2.79-.06,.87-.08,1.03-.2,2.2-.13,1.22-.3,2.06-.46,2.33-.17,.3-.49,.52-.81,.52-.51,0-.83-.35-.78-.81,.01-.14,.03-.27,.07-.46,.19-.79,.34-1.71,.5-2.9-1.78,.92-2.62,1.46-3.4,2.14-.99,.87-1.51,1.71-1.59,2.52-.15,1.46,1.26,2.17,4.3,2.17,1.9,0,3.83-.27,5.53-.76,.2-.05,.39-.08,.52-.08,.84,0,1.82,.76,1.76,1.36-.04,.35-.36,.62-.92,.73-1.14,.22-3.21,.38-4.89,.38-2.55,0-4.39-.27-5.42-.79-1.31-.65-1.84-1.55-1.7-2.87,.13-1.27,.88-2.44,2.34-3.72,.78-.68,1.71-1.3,3.62-2.41,.09-1.14,.06-1.57-.15-2.14-.19-.49-.7-.81-1.3-.81-1.79,0-4.08,1.44-6.3,3.93-.59,.7-.82,.87-1.09,.87-.43,0-.67-.57-.58-1.44,.06-.57,.09-.6,.91-1.22,2.08-1.52,3.43-2.93,5.66-5.83-.91,.14-1.26,.16-1.83,.16-1.84,0-2.74-.49-3.82-2.09l.32-.24Z"/><path class="e" d="M691.97,59.81c1.17-3.42,1.98-6.43,2.23-8.54q2.49,.54,2.46,.84c-.02,.22-.28,.35-1.03,.52-1.07,3.2-1.84,4.88-3.37,7.29l-.29-.11Zm5.4-10.6q-2.3,.46-3.13,.62c-.27,.73-.43,.98-.64,.98-.08,0-.18-.08-.22-.24q-.09-.22-.2-2.22h.52c.3,0,1.01-.03,2.12-.08q.22-.27,.62-.76c2.01-2.36,4.15-5.45,5.2-7.43,2.13,.89,2.31,1,2.28,1.25s-.36,.33-1.12,.33h-.11c-2.25,2.79-3.93,4.64-6.03,6.56,2.18-.14,2.81-.19,4.6-.43-.25-1-.35-1.3-.69-2.17l.29-.16c.61,.68,.89,1.06,1.44,1.82,.71,1,.95,1.57,.9,2.03-.07,.7-.74,1.63-1.17,1.63-.16,0-.26-.14-.28-.46-.07-.84-.11-1.06-.34-2.2-.98,.3-1.12,.33-2.34,.6l-.57,5.4c-.25,2.33-.28,2.66-.66,6.81-.04,.35-.29,.43-1.48,.43-.27,0-.37-.08-.34-.38,.22-1.55,.71-5.72,.83-6.86l.53-5.04Zm2.63-11.09c-1.51,2.01-1.88,2.44-3.47,3.9,.92,.84,1.22,1.3,1.17,1.82-.05,.52-.66,1.41-.96,1.41-.16,0-.31-.19-.45-.62-.47-1.49-.85-2.2-2.11-3.88l.25-.27c.84,.54,1.14,.73,1.72,1.19,1.27-2.06,1.99-3.5,2.57-5.1,.55,.19,.97,.33,1.26,.43,1.02,.35,1.33,.54,1.31,.73-.03,.27-.39,.38-1.21,.38h-.05Zm8.85,21.53h3.9c.83-.9,1.1-1.17,1.92-1.98,1.01,.95,1.31,1.25,2.23,2.25,.04,.08,.06,.16,.06,.22,0,.08-.12,.14-.26,.14h-14.78c-1.11,0-1.27,0-2.35,.16l-.08-1c.88,.19,1.2,.22,2.5,.22h5.1l.65-6.21h-2.9c-.81,0-1.22,.03-2,.19l-.06-1c.77,.16,1.09,.19,2.12,.19h2.9l.21-1.98c.11-1.08,.13-1.49,.12-2.39,2.93,.27,3.01,.3,2.98,.54-.02,.22-.4,.41-1.21,.68l-.33,3.15h2.96c.76-.81,1.01-1.06,1.76-1.82,.97,.84,1.27,1.11,2.2,2.03,.07,.08,.09,.16,.08,.24,0,.08-.13,.16-.29,.16h-6.78l-.65,6.21Zm-8.87-8.49c.68,.79,1.26,1.71,1.82,2.82,.32,.6,.46,1.08,.42,1.44-.08,.73-.78,1.71-1.24,1.71-.27,0-.31-.14-.39-1.19-.13-1.38-.45-2.98-.95-4.61l.34-.16Zm14.21-12.66c.58-.6,.76-.79,1.36-1.36,.7,.6,.89,.79,1.54,1.38,.2,.19,.27,.3,.26,.41-.03,.27-.43,.46-1.24,.68-1.94,2.69-3.13,3.99-5.03,5.51,.71,.46,1.33,.79,2.21,1.19,1.89,.84,2.94,1.14,5.19,1.44l-.04,.38c-1.09,.33-1.42,.6-1.99,1.65-3.01-1.06-4.69-2.03-6.57-3.77-2.22,1.52-3.74,2.31-6.06,3.2l-.18-.38c2.16-1.22,3.65-2.25,5.38-3.69-1.75-1.93-2.67-3.77-3.11-6.02h-.24c-.57,0-1.23,.05-1.89,.16l-.1-1.11c1,.27,1.46,.33,2.19,.33h8.32Zm-7.77,.62c.53,1.9,1.71,3.61,3.55,5.18,1.65-1.52,2.77-2.87,4.29-5.18h-7.84Z"/><path class="e" d="M722.83,52.95c.27,.05,.48,.11,.61,.14,.27,.05,.45,.11,.53,.14,.29,.08,.48,.11,.53,.11,.3,0,.54-.19,.8-.65,.07-.14,.3-.54,.66-1.17,.47-.81,1.17-2.09,2.05-3.77,1.42-2.68,1.89-3.58,2.96-5.48l.42,.16-4.99,11.09c-.39,.84-.5,1.14-.52,1.38-.05,.43-.01,.65,.3,2.03,.11,.54,.15,1.11,.1,1.65-.13,1.27-1.11,2.33-2.14,2.33-.35,0-.54-.24-.5-.65,.01-.11,.06-.33,.24-.95,.19-.73,.57-2.55,.62-3.09,.09-.9,0-1.49-.32-1.87-.27-.3-.57-.52-1.52-1.03l.18-.38Zm.75-9.74c1.56,.6,2.62,1.11,3.33,1.63,.5,.35,.73,.79,.67,1.36-.08,.79-.49,1.57-.84,1.57-.16,0-.31-.16-.51-.54-.8-1.46-1.37-2.22-2.86-3.74l.22-.27Zm2.26-6.05c1.49,.52,2.76,1.11,3.52,1.63,.45,.33,.66,.73,.59,1.33-.09,.84-.52,1.57-.9,1.57-.22,0-.34-.14-.56-.6-.49-.98-1.78-2.66-2.87-3.66l.22-.27Zm7.33,17.74c-.41,1.33-.88,2.17-1.83,3.23-1.26,1.44-2.46,2.28-4.56,3.17l-.2-.38c1.74-1.08,2.61-1.9,3.54-3.23,1.27-1.79,1.62-3.31,2.25-9.27-1.18,.38-1.71,.52-3.29,.9l-.17-.43c2.27-.65,4.05-1.36,6.28-2.5,.83-.43,1.5-.81,2.29-1.38-1.62-1.33-2.42-2.31-3.52-4.42h-.76c-.92,0-1.58,.08-2.2,.24l-.1-1.14c.79,.22,1.27,.27,2.36,.27h4.61l.12-1.19c.06-.57,.08-1.06,.17-2.09q2.65,.33,2.91,.46c.05,.05,.12,.14,.11,.22-.02,.22-.31,.38-1.23,.6l-.21,2.01h4.77c.67-.65,1.3-1.25,1.9-1.84q1.01,.92,2.2,2.06c.07,.11,.12,.16,.11,.24-.01,.11-.13,.16-.37,.16h-3.91c-1.66,2.11-2.74,3.15-4.73,4.47,1.01,.49,2.1,.9,3.5,1.25,1.85,.46,3,.65,5.23,.76l-.04,.38c-.98,.27-1.25,.52-1.66,1.57-1.44-.27-1.91-.41-3.06-.79l-.77,7.29c-.24,2.25-.24,2.28-.45,5.31-.05,.19-.08,.27-.23,.35-.17,.05-.8,.14-1.34,.14-.24,0-.34-.08-.41-.27,.05-.43,.25-2.12,.55-5.02l.12-1.14h-8Zm8.06-.62l.38-3.61h-7.67c-.23,1.68-.4,2.74-.6,3.61h7.89Zm.44-4.23l.26-2.47c-1.45-.65-2.4-1.14-3.42-1.82-1.35,.76-2.72,1.41-4.28,2.03l-.18,1.68c-.01,.11-.03,.27-.06,.57h7.67Zm-7.14-9.46c.93,1.46,1.99,2.49,3.87,3.71,1.86-1.46,2.7-2.25,3.78-3.71h-7.65Z"/><path class="e" d="M761.53,42.05c.49-.49,.61-.65,1.1-1.14,.55,.46,.72,.62,1.29,1.14,.17,.19,.24,.27,.23,.38-.02,.16-.19,.27-.99,.65-.21,1.71-.33,2.87-.39,3.47-.6,5.69-1.06,10.31-1.23,12.18v.14c-.04,.22-.24,.3-.94,.33-.22,0-.35,.03-.44,.03h-.08c-.24,0-.34-.08-.32-.27,0,0,0-.05,0-.08l.16-1.49h-4.83l-.24,2.28c-.09,.33-.23,.38-.96,.38h-.35c-.41,0-.49-.03-.46-.3,.43-3.04,.52-3.96,1.02-8.65,.64-6.05,.77-7.57,.93-10.41,.87,.54,1.09,.73,1.89,1.38h.76c1.19-3.06,1.44-3.85,1.63-5.18,1.08,.3,2.37,.68,2.71,.84,.15,.08,.23,.16,.22,.27-.03,.27-.2,.35-1.33,.49-.98,1.63-1.46,2.25-2.65,3.58h3.28Zm-5.6,7.38l-.77,7.32h4.83l.77-7.32h-4.83Zm4.89-.62l.64-6.13h-4.83l-.64,6.13h4.83Zm14.32-6.75c.58-.6,.76-.76,1.33-1.33,.64,.6,.84,.79,1.45,1.38,.2,.19,.24,.3,.22,.46-.03,.24-.08,.27-1.08,.76-.8,6.29-.89,6.89-1.68,10.28-.74,3.15-1.46,5.07-2.29,6.05-.59,.68-.98,.84-3.3,1.25-.15-.92-.3-1.25-.71-1.52-.23-.16-.67-.3-1.37-.41l-.78-.08c-.27-.03-.51-.05-.75-.11l.05-.46c.51,.03,.97,.05,1.24,.08,1.56,.08,1.94,.08,2.62,.08,1.52,0,1.63-.03,1.92-.49,.49-.84,1.15-2.9,1.65-5.12,.71-3.15,1.12-5.78,1.59-10.2h-7.35c-1.99,3.2-2.97,4.5-4.48,6.02l-.33-.22c1.53-2.14,2.5-3.9,3.64-6.48,.93-2.17,1.48-3.72,1.78-5.29,1.19,.27,2.48,.62,2.79,.76,.18,.05,.25,.16,.24,.27-.02,.22-.25,.33-1.31,.57-.61,1.44-.98,2.14-1.94,3.74h6.83Zm-8.39,4.2c1.82,1.27,2.71,2.03,3.63,3.09,.66,.73,.84,1.25,.77,1.95-.11,1.03-.64,2.01-1.13,2.01-.22,0-.39-.19-.5-.62-.23-.92-.52-1.74-.95-2.79-.6-1.49-1.02-2.17-2.06-3.36l.25-.27Z"/><path class="e" d="M789.92,49.29c-.08,.24-.67,1.95-1.76,5.1-.55,1.6-.67,2.03-.76,2.88-.08,.79-.13,1-.2,1.17-.14,.3-.4,.46-.7,.46-.46,0-.83-.38-1.05-1.11-.45-1.41-.57-3.61-.34-5.78,.08-.81,.27-1.82,.52-2.9q.36-1.57,1.49-5.13c.41-1.27,.58-1.95,.64-2.52,.09-.9-.05-1.57-.49-2.55,.59,.03,1.04,.38,1.68,1.33,.59,.84,.84,1.55,.78,2.14-.05,.43-.08,.54-.74,1.63-.66,1.14-1.51,3.04-1.92,4.31-.35,1.03-.58,2.2-.71,3.36-.16,1.49-.12,2.44,.14,3.58,.56-.95,.83-1.49,1.22-2.31l1.83-3.8,.37,.14Zm3.27,1.36c-.11,.54-.16,.79-.2,1.14-.31,2.98,1.27,4.2,5.47,4.2,.79,0,1.58-.05,2.32-.19q.58-.08,1.48-.43c.17-.05,.31-.08,.42-.08,.71,0,1.61,.95,1.54,1.6-.03,.33-.27,.54-.67,.68-.59,.19-1.9,.3-3.42,.3-3.39,0-5.74-.57-6.85-1.65-.88-.9-1.25-2.03-1.09-3.53,.07-.68,.22-1.27,.55-2.14l.45,.11Zm.85-8.62c.89,.57,1.47,.73,2.44,.73,1.68,0,4.37-.6,5.58-1.22,.37-.19,.43-.22,.62-.22,.22,0,.55,.14,.91,.38,.54,.33,.77,.65,.73,1-.04,.35-.24,.52-.82,.62-1.82,.27-2.85,.52-3.95,.95-.88,.35-2.54,1.22-3.7,1.93l-.24-.27c1.33-1.03,2.33-1.79,2.8-2.12-.57,.03-.87,.05-1.12,.05-1.52,0-2.48-.41-3.53-1.52l.28-.33Z"/></g><g><path class="e" d="M401.35,105.65c.72,.18,1.52,.48,2.16,.85,.53,.3,.74,.62,.74,1.12,0,.4-.16,.77-.35,.77-.02,0-.13-.06-.18-.1-.1-.08-.11-.1-.4-.53-.5-.69-1.07-1.23-1.97-1.82v3.44q.02,2.93,.05,3.68c-.05,.21-.18,.27-.58,.27h-.21c-.24,0-.3-.03-.35-.16,0-.18,.02-1.41,.05-3.71v-2.79c-.78,.8-1.42,1.31-2.53,2.03l-.18-.24c1.04-.86,1.78-1.63,2.67-2.83,.9-1.2,1.41-2.06,1.97-3.28h-3.22c-.35,0-.59,.02-1.14,.08l-.11-.59c.43,.1,.88,.14,1.25,.14h1.28v-1.68c0-.64-.02-.85-.13-1.39,.35,.03,.62,.06,.8,.08,.77,.06,.98,.11,.98,.27,0,.13-.13,.21-.61,.37v2.35h.9c.32-.37,.43-.46,.77-.8,.43,.35,.56,.46,.94,.8,.14,.16,.18,.21,.18,.26,0,.13-.08,.16-.8,.32-.67,1.2-1.1,1.84-1.99,2.93v.16Zm3.33-.82c-.34,0-.64,.03-1.28,.11l-.13-.61c.66,.11,.9,.13,1.41,.13h2.27v-3.62c0-.83-.02-1.25-.11-2,.34,.05,.67,.08,.83,.1,.83,.08,1.02,.14,1.02,.29,0,.13-.18,.24-.64,.42v4.82h1.65l.93-1.2c.67,.56,.88,.74,1.52,1.33,.03,.03,.06,.1,.06,.11,0,.06-.08,.13-.16,.13h-4v7.25h1.95c.43-.53,.58-.7,1.07-1.25,.66,.56,.85,.75,1.49,1.39,.05,.03,.08,.1,.08,.11,0,.06-.08,.11-.16,.11h-8.37c-.66,0-.93,.02-1.52,.11l-.14-.61c.56,.08,1.09,.13,1.66,.13h2.83v-7.25h-2.27Z"/><path class="e" d="M424.73,105.35c1.3-.62,2.14-1.17,2.91-1.9,1.15,.62,1.36,.75,1.36,.86,0,.1-.11,.14-.3,.14-.06,0-.37-.02-.58-.02-1.09,.53-2.16,.91-3.39,1.2v.91c0,.22,.03,.27,.19,.3,.11,.02,.88,.05,1.31,.05,.14,0,.38,0,.8-.02h.66c.61,0,.69-.02,.78-.18,.11-.18,.45-1.01,.72-1.78l.19,.02-.1,1.26v.37q0,.08,.29,.19c.22,.06,.34,.19,.34,.38,0,.53-.43,.61-3.41,.61-2.58,0-2.72-.05-2.75-.86v-4.1h-3.3c-.38,.59-.59,.86-.98,1.28h2.26c.27-.26,.35-.32,.64-.56,.37,.29,.48,.37,.83,.66,.11,.1,.14,.14,.14,.19,0,.1-.08,.13-.62,.3-1.06,1.54-1.9,2.32-3.42,3.12-1.12,.59-2.19,.98-3.71,1.33l-.08-.26c1.86-.67,3.04-1.28,4.16-2.15-.13-.02-.16-.05-.26-.18-.38-.56-.85-1.02-1.23-1.25-1.04,.82-1.54,1.12-2.46,1.52l-.14-.22c.99-.64,1.65-1.23,2.55-2.24,.53-.61,.82-.99,1.14-1.55h-1.87c-.69,0-.8,0-1.36,.1l-.11-.62c.5,.11,.91,.16,1.47,.16h10.2c.42-.45,.54-.59,.98-1.02,.61,.5,.79,.66,1.38,1.17,.03,.05,.06,.1,.06,.13,0,.06-.06,.1-.18,.1h-5.09v2.54Zm-.54-5.09c0-.08,.02-.11,.02-.13,0-.7-.03-1.06-.08-1.34,1.38,.14,1.78,.22,1.78,.37,0,.11-.13,.18-.67,.32q-.02,.61-.02,.78h2.46c.45-.48,.59-.62,1.02-1.06,.64,.51,.85,.67,1.5,1.2,.03,.05,.06,.1,.06,.13,0,.06-.06,.1-.16,.1h-4.9c0,.34,0,.48,.02,.91-.02,.19-.16,.22-.88,.22-.16,0-.19-.03-.19-.14,.02-.51,.03-.69,.03-.99h-3.07v.19l-.02,.29c0,.1,.02,.21,.03,.42,0,.1-.02,.13-.06,.16-.06,.05-.42,.08-.86,.08-.1,0-.14-.03-.16-.13,.03-.54,.05-.72,.05-1.01h-3.06c-.67,0-.8,.02-1.28,.08l-.11-.58c.45,.1,.77,.13,1.39,.13h3.06c.02-.18,.02-.32,.02-.45,0-.43-.02-.61-.06-1.02,.34,.05,.62,.08,.8,.1,.77,.08,.94,.13,.94,.27,0,.11-.14,.18-.67,.32v.78h3.07Zm-4,9.19c.03-.32,.05-.51,.05-.78,0-.26-.02-.4-.06-.69,.34,.05,.59,.1,.77,.11,.69,.1,.96,.18,.96,.29s-.08,.14-.59,.32c-.05,.48-.05,.54-.08,.75h2.96c0-.8-.02-.82-.06-1.34,1.54,.14,1.67,.16,1.67,.3,0,.11-.03,.13-.56,.35v.69h2.45c.43-.5,.56-.64,.99-1.07,.66,.5,.85,.66,1.47,1.2,.03,.05,.06,.1,.06,.13,0,.05-.08,.11-.14,.11h-4.85v.98c0,.4,0,.5,.03,2.35,0,.08-.03,.11-.08,.14-.08,.05-.5,.1-.85,.1-.14,0-.19-.05-.19-.18,.05-1.07,.06-1.52,.06-2.34v-1.06h-3.01c-.21,1.09-.5,1.66-1.07,2.18-.99,.88-2.35,1.38-4.32,1.58l-.06-.24c1.87-.46,2.82-.9,3.51-1.62,.46-.48,.74-1.04,.9-1.9h-2.91c-.59,0-.83,.02-1.25,.1l-.11-.58c.46,.1,.74,.11,1.36,.11h2.98Zm-1.06-4.99c-.3,.3-.46,.45-.79,.72,.3,.05,.59,.13,.99,.27,.54,.21,.72,.35,.72,.62,0,.19-.05,.32-.13,.46,.78-.66,1.25-1.2,1.81-2.08h-2.61Z"/><path class="e" d="M441.85,106.08c0,.82-.66,1.47-1.46,1.47s-1.47-.66-1.47-1.47,.66-1.46,1.47-1.46,1.46,.66,1.46,1.46Z"/><path class="e" d="M451.77,103.17c.64,.58,1.2,.82,1.91,.82,.45,0,.86-.05,1.6-.21,.02-.46,.02-1.18,.02-1.47,0-1.68-.19-2.02-1.3-2.21,.22-.18,.35-.22,.69-.22,.54,0,1.22,.16,1.65,.4,.21,.11,.35,.34,.35,.51q0,.1-.18,.42c-.26,.46-.42,1.22-.5,2.38,.85-.29,1.23-.5,1.74-.93,.13-.1,.29-.16,.38-.16,.14,0,.42,.06,.61,.14,.16,.06,.27,.21,.27,.35,0,.22-.14,.35-.72,.62-.72,.34-1.47,.59-2.34,.78q-.02,.22-.05,.8c-.02,.43-.05,1.14-.06,2.1,1.79-.64,2.95-.88,4.24-.88,2.19,0,3.57,1.04,3.57,2.74,0,1.57-1.2,2.79-2.74,2.79s-2.53-.98-3.09-2.83l.24-.08c.38,.74,.62,1.07,.96,1.39,.45,.42,.94,.61,1.52,.61,1.17,0,2-.91,2-2.19s-.83-1.9-2.37-1.9c-1.26,0-2.79,.4-4.34,1.15q0,1.7,.02,2.18c.02,.3,.02,.48,.02,.61,0,.38-.06,.69-.21,.94-.19,.37-.5,.59-.77,.59q-.22,0-1.2-.86c-.34-.27-.8-.59-1.07-.72-.35-.16-.53-.4-.53-.67,0-.26,.16-.58,.48-.9,.59-.61,1.14-.96,2.54-1.65,.02-.22,.02-.46,.03-.77q.03-.72,.08-2.31c-.5,.08-.86,.11-1.25,.11-1.02,0-1.71-.37-2.39-1.31l.16-.16Zm1.76,6.48c-.32,.34-.48,.59-.48,.77,0,.16,.21,.34,.64,.5,.35,.14,.78,.26,.99,.26,.19,0,.27-.11,.29-.4,.08-1.44,.11-2.23,.11-2.32-.75,.46-1.15,.77-1.55,1.2Zm7.14-8.1c.98,.05,1.7,.22,2.35,.58,.7,.38,1.12,.91,1.12,1.41,0,.29-.19,.46-.48,.46-.03,0-.11,0-.24-.03-.22-.03-.29-.03-.34-.03-.24,0-.62,.08-1.97,.43l-.1-.16c.96-.5,1.52-.83,1.75-1.02-.26-.45-.51-.7-1.01-.99-.32-.18-.58-.27-1.1-.42l.02-.22Z"/><path class="e" d="M470.28,105.09c0,.13-.03,.18-.16,.21-.08,.03-.43,.06-.59,.06-.24,0-.32-.05-.32-.18v-.03c.05-1.1,.06-1.55,.06-2.58,0-1.65-.02-2.72-.06-3.44,.64,.26,.82,.35,1.38,.72h3.81c.24-.32,.3-.42,.56-.72,.45,.29,.58,.38,.96,.72,.13,.11,.18,.18,.18,.24,0,.05-.03,.1-.06,.13-.02,.02-.16,.1-.43,.27,.02,2.64,.02,2.75,.08,4.29,0,.13-.03,.19-.13,.22-.1,.03-.43,.08-.67,.08-.26,0-.34-.06-.34-.22v-.66h-2.13c-.05,.99-.1,1.44-.24,2.24h2.22c.22-.26,.3-.34,.56-.58,.38,.3,.5,.42,.86,.77,.11,.13,.13,.16,.13,.21q0,.08-.48,.34c-.24,2.34-.5,3.92-.77,4.69-.11,.35-.37,.66-.67,.82-.29,.14-.53,.21-1.18,.32-.03-.7-.24-.85-1.76-1.22l.05-.24c.9,.11,1.89,.21,2.13,.21,.34,0,.46-.16,.59-.7,.24-1.07,.53-3.15,.58-4.24h-2.32c-.21,1.04-.45,1.86-.77,2.59-.46,1.02-1.18,2.03-2,2.79-.34,.32-.58,.5-1.14,.86l-.16-.18c1.52-1.47,2.34-2.95,2.83-5.07,.26-1.12,.38-2.06,.45-3.6h-1.04v.88Zm0-1.25h4.26v-3.62h-4.26v3.62Zm8.21,2.87c0,.58,.02,.72,.06,2.58v.08c0,.19-.11,.26-.58,.27-.11,0-.21,0-.27,.02h-.05c-.16,0-.24-.06-.24-.18v-.06c.05-.98,.06-2.91,.06-5.14,0-2.43-.03-3.87-.08-4.32,1.26,.1,1.73,.21,1.73,.4,0,.13-.11,.18-.66,.34l.02,6.02Zm2.11-6.56c0-.5-.02-.74-.1-1.31,.32,.06,.58,.1,.75,.11,.78,.11,1.02,.19,1.02,.34,0,.05-.03,.1-.06,.13-.02,.02-.19,.1-.53,.26v6.02q.06,4.85,.11,6.07v.22c0,.56-.43,.82-1.79,1.1-.21-.62-.21-.64-.45-.78-.3-.16-.77-.29-1.73-.5v-.26c.35,.02,.62,.05,.8,.06q1.2,.11,1.79,.11c.18,0,.24-.05,.24-.18l-.06-11.4Z"/><path class="e" d="M489.66,104.82q.02-.26,.03-.67t.05-.56c-.48,.32-1.33,.9-1.62,1.1-.3,.21-.4,.26-.54,.26-.42,0-1.18-.94-1.18-1.46,0-.03,.02-.16,.05-.27,.35,.51,.71,.77,1.04,.77s1.36-.43,2.3-.96c.08-.67,.11-1.12,.11-1.7,0-.93-.14-1.2-.91-1.78,.1-.06,.13-.08,.21-.08,.26,0,.61,.16,1.02,.43,.51,.35,.83,.75,.83,1.06q0,.18-.16,.66c-.11,.3-.22,.82-.29,1.26,.35,.37,.46,.5,.46,.62,0,.1-.02,.13-.22,.46-.19,.35-.35,.66-.51,1.04-.03,.27-.03,.34-.03,.59,1.57-1.49,2.1-1.95,2.79-2.45,1.12-.8,1.87-1.14,2.58-1.14,.5,0,.95,.21,1.26,.58,.3,.35,.43,.78,.43,1.41s-.02,.72-.32,2.37c-.19,1.04-.29,1.97-.29,2.62s.11,.98,.4,1.18c.22,.16,.51,.24,.82,.24,.8,0,1.92-.42,2.98-1.14l.13,.19c-1.15,1.18-2.4,1.84-3.54,1.84-1.22,0-1.87-.78-1.87-2.24,0-.58,.14-1.6,.4-2.85,.37-1.71,.4-1.94,.4-2.53,0-.78-.35-1.23-.98-1.23-.69,0-1.52,.48-2.8,1.62-.83,.74-1.58,1.52-2.43,2.53-.02,.38-.02,.59-.02,.83,0,.86,.05,1.63,.16,2.86,.05,.38,.05,.51,.05,.75,0,.91-.3,1.66-.69,1.66-.18,0-.3-.13-.38-.43-.05-.16-.22-.66-.27-.77-.18-.32-.69-.98-1.41-1.74-.32,.77-.38,.86-.54,.86-.14,0-.27-.13-.37-.37-.1-.26-.18-.64-.18-.88,0-.19,.02-.22,.27-.48,.26-.24,.51-.59,1.04-1.42l1.75-2.67Zm-.98,2.99c-.37,.7-.54,1.06-.85,1.7,.94,.78,1.23,1.01,1.7,1.3q.03-.61,.05-2.99c0-.78,.02-1.15,.06-1.81-.22,.46-.24,.46-.96,1.81Z"/><path class="e" d="M510.67,111.85c1.73-.51,2.83-1.17,3.75-2.22,.94-1.07,1.42-2.39,1.42-3.86,0-1.55-.62-2.79-1.81-3.54-.7-.46-1.76-.74-2.77-.74-.19,0-.3,0-.56,.03,.38,.56,.5,.86,.5,1.33,0,1.25-.9,3.59-2.11,5.54-1.01,1.6-1.79,2.38-2.39,2.38-.27,0-.53-.13-.7-.34-.14-.19-.18-.26-.45-1.02-.14-.42-.24-.61-.7-1.5-.26-.51-.37-.94-.37-1.46,0-1.01,.54-2.19,1.44-3.17,1.3-1.38,3.41-2.24,5.51-2.24,1.62,0,3.1,.53,4.13,1.47s1.54,2.21,1.54,3.76c0,2-1.17,3.78-3.19,4.85-.93,.5-1.76,.75-3.12,.99l-.11-.27Zm-5.27-4.98c0,.77,.24,1.55,.64,2.11,.22,.29,.43,.46,.61,.46,.35,0,1.12-.86,1.91-2.11,1.18-1.89,2.03-3.95,2.03-4.95,0-.24-.05-.4-.22-.8-2.79,.5-4.96,2.82-4.96,5.28Z"/><path class="e" d="M520.95,106.04c.93-.61,1.44-1.02,2.35-1.9,1.49-1.46,2.59-2.83,3.52-4.32,.27-.46,.38-.69,.53-1.17,1.76,.4,1.89,.45,1.89,.58,0,.14-.26,.27-.61,.29,.99,1.54,1.92,2.45,3.47,3.46,1.28,.82,2.18,1.18,3.86,1.6v.16c-.66,.18-.85,.4-1.15,1.31-1.3-.64-2.45-1.47-3.57-2.56-.75-.74-1.58-1.71-2.21-2.62-.3-.43-.42-.62-.67-1.2-.96,1.49-2.03,2.75-3.46,4.02-1.22,1.09-2.26,1.79-3.79,2.59l-.16-.22Zm6.91,1.71c-1.62,2.39-1.79,2.64-2.74,3.71,2.5-.03,4.93-.16,6.51-.34-.71-1.01-1.26-1.68-2.08-2.48l.13-.16c1.06,.61,2.14,1.42,3.2,2.4,.42,.4,.61,.74,.61,1.12,0,.29-.13,.78-.26,.99-.06,.1-.18,.16-.27,.16-.11,0-.18-.06-.27-.24-.29-.56-.62-1.17-.83-1.46-2.56,.53-6.03,1.02-8.6,1.23-.16,.48-.21,.56-.34,.56-.1,0-.13-.03-.19-.3-.1-.43-.24-1.09-.32-1.54q.38,.02,1.3,.05c.27,.02,.48,.02,.67,.02,.05,0,.16,0,.29-.02,.7-1.22,.9-1.67,1.71-3.71h-3.25c-.5,0-.7,.02-1.14,.1l-.13-.59c.45,.1,.72,.13,1.26,.13h9.24c.38-.51,.5-.66,.88-1.12,.69,.51,.9,.69,1.55,1.23,.03,.06,.08,.13,.08,.14,0,.06-.06,.11-.14,.11h-6.88Zm-3.63-3.15c.4,.08,.9,.13,1.3,.13h4.03c.38-.48,.5-.62,.9-1.07,.64,.51,.85,.67,1.47,1.2,.06,.05,.1,.1,.1,.14,0,.06-.06,.1-.21,.1h-6.37c-.27,0-.51,.02-1.1,.06l-.11-.56Z"/><path class="e" d="M547.45,106.08c0,.82-.66,1.47-1.46,1.47s-1.47-.66-1.47-1.47,.66-1.46,1.47-1.46,1.46,.66,1.46,1.46Z"/><path class="e" d="M556.12,106.55c1.78-1.23,3.07-2.47,4.51-4.27,.75-.94,1.44-1.98,1.76-2.64,.11-.24,.18-.42,.29-.78,.37,.06,.64,.13,.82,.16,.88,.18,1.07,.24,1.07,.38,0,.13-.19,.22-.62,.3,.78,1.31,1.86,2.43,3.3,3.47,1.36,.98,2.66,1.58,4.15,1.98l-.03,.22c-.67,.08-.93,.3-1.26,1.06-1.49-.77-2.35-1.39-3.52-2.61-1.18-1.2-1.71-1.94-2.87-3.97-1.14,1.81-2.14,3.01-3.62,4.34-1.28,1.14-2.32,1.86-3.79,2.59l-.18-.24Zm3.95,6.31c0,.14-.02,.19-.1,.22-.14,.05-.51,.1-.83,.1-.18,0-.22-.05-.22-.22,.03-2.5,.05-3.28,.05-3.94,0-1.26-.02-1.86-.05-2.46,.59,.34,.77,.45,1.28,.82h6.47c.26-.35,.35-.46,.66-.82,.45,.34,.59,.45,1.02,.82,.13,.11,.16,.16,.16,.22,0,.1-.14,.21-.53,.34q0,2.34,.06,4.82v.06c0,.13-.03,.18-.14,.21-.11,.05-.64,.11-.82,.11-.16,0-.24-.06-.24-.19v-.75h-6.77v.67Zm-.02-8.34c.46,.08,.85,.13,1.18,.13h3.35c.37-.4,.48-.54,.85-.96,.58,.45,.77,.58,1.34,1.06,.08,.08,.13,.14,.13,.19,0,.06-.03,.08-.21,.08h-5.46c-.3,0-.54,.02-1.06,.1l-.13-.59Zm.02,7.3h6.77v-4.08h-6.77v4.08Z"/><path class="e" d="M576.33,108.92q0,1.34,.03,3.87c-.02,.24-.21,.3-.86,.3-.29,0-.38-.06-.38-.24,.05-1.71,.08-5.2,.08-7.44,0-3.06-.02-5.41-.05-6.19,.61,.3,.78,.4,1.39,.7h9.41c.24-.35,.32-.45,.58-.78,.51,.32,.66,.43,1.12,.78,.11,.1,.18,.16,.18,.22s-.05,.11-.18,.22c-.02,.02-.05,.03-.08,.06-.06,.05-.18,.13-.3,.22v6.51q0,.56,.03,3.31v1.31c-.02,.42-.11,.56-.48,.77-.38,.21-.82,.34-1.58,.45-.18-.56-.29-.74-.56-.88-.26-.14-.35-.16-1.76-.34v-.24q1.99,.08,2.93,.11h.08c.13,0,.19-.05,.19-.18v-11.2h-9.78v8.63Zm.75-6.61c.8,.16,1.17,.21,1.6,.21h4.51c.29-.35,.56-.7,.82-1.04,.58,.48,.75,.62,1.31,1.12,.05,.06,.08,.11,.08,.14,0,.08-.08,.14-.18,.14h-6.61c-.29,0-.53,.03-1.33,.16l-.21-.74Zm2.34,7.65c0,.13-.03,.18-.13,.22-.08,.03-.43,.08-.64,.08-.24,0-.35-.06-.35-.19v-.05c.05-1.25,.06-1.86,.06-2.88,0-1.6-.02-2.32-.06-2.98,.58,.24,.75,.34,1.3,.62h3.25c.24-.3,.32-.4,.58-.72,.45,.3,.58,.4,.98,.72,.1,.08,.14,.14,.14,.18,0,.08-.11,.19-.46,.48-.02,.61-.02,1.06-.02,1.36,0,1.39,.02,2.18,.06,3.01,0,.26-.16,.32-.78,.32-.21,0-.29-.06-.29-.26v-.96h-3.63v1.04Zm0-1.41h3.63v-3.39h-3.63v3.39Z"/><path class="e" d="M600.73,105.35c1.3-.62,2.14-1.17,2.91-1.9,1.15,.62,1.36,.75,1.36,.86,0,.1-.11,.14-.3,.14-.06,0-.37-.02-.58-.02-1.09,.53-2.16,.91-3.39,1.2v.91c0,.22,.03,.27,.19,.3,.11,.02,.88,.05,1.31,.05,.14,0,.38,0,.8-.02h.66c.61,0,.69-.02,.78-.18,.11-.18,.45-1.01,.72-1.78l.19,.02-.1,1.26v.37q0,.08,.29,.19c.22,.06,.34,.19,.34,.38,0,.53-.43,.61-3.41,.61-2.58,0-2.72-.05-2.75-.86v-4.1h-3.3c-.38,.59-.59,.86-.98,1.28h2.26c.27-.26,.35-.32,.64-.56,.37,.29,.48,.37,.83,.66,.11,.1,.14,.14,.14,.19,0,.1-.08,.13-.62,.3-1.06,1.54-1.91,2.32-3.43,3.12-1.12,.59-2.19,.98-3.71,1.33l-.08-.26c1.86-.67,3.04-1.28,4.16-2.15-.13-.02-.16-.05-.26-.18-.38-.56-.85-1.02-1.23-1.25-1.04,.82-1.54,1.12-2.46,1.52l-.14-.22c.99-.64,1.65-1.23,2.54-2.24,.53-.61,.82-.99,1.14-1.55h-1.87c-.69,0-.8,0-1.36,.1l-.11-.62c.5,.11,.91,.16,1.47,.16h10.2c.42-.45,.54-.59,.98-1.02,.61,.5,.78,.66,1.38,1.17,.03,.05,.06,.1,.06,.13,0,.06-.06,.1-.18,.1h-5.09v2.54Zm-.54-5.09c0-.08,.02-.11,.02-.13,0-.7-.03-1.06-.08-1.34,1.38,.14,1.78,.22,1.78,.37,0,.11-.13,.18-.67,.32q-.02,.61-.02,.78h2.46c.45-.48,.59-.62,1.02-1.06,.64,.51,.85,.67,1.5,1.2,.03,.05,.06,.1,.06,.13,0,.06-.06,.1-.16,.1h-4.9c0,.34,0,.48,.02,.91-.02,.19-.16,.22-.88,.22-.16,0-.19-.03-.19-.14,.02-.51,.03-.69,.03-.99h-3.07v.19l-.02,.29c0,.1,.02,.21,.03,.42,0,.1-.02,.13-.06,.16-.06,.05-.42,.08-.86,.08-.1,0-.14-.03-.16-.13,.03-.54,.05-.72,.05-1.01h-3.06c-.67,0-.8,.02-1.28,.08l-.11-.58c.45,.1,.77,.13,1.39,.13h3.06c.02-.18,.02-.32,.02-.45,0-.43-.02-.61-.06-1.02,.34,.05,.62,.08,.8,.1,.77,.08,.94,.13,.94,.27,0,.11-.14,.18-.67,.32v.78h3.07Zm-4,9.19c.03-.32,.05-.51,.05-.78,0-.26-.02-.4-.06-.69,.34,.05,.59,.1,.77,.11,.69,.1,.96,.18,.96,.29s-.08,.14-.59,.32c-.05,.48-.05,.54-.08,.75h2.96c0-.8-.02-.82-.06-1.34,1.54,.14,1.66,.16,1.66,.3,0,.11-.03,.13-.56,.35v.69h2.45c.43-.5,.56-.64,.99-1.07,.66,.5,.85,.66,1.47,1.2,.03,.05,.06,.1,.06,.13,0,.05-.08,.11-.14,.11h-4.85v.98c0,.4,0,.5,.03,2.35,0,.08-.03,.11-.08,.14-.08,.05-.5,.1-.85,.1-.14,0-.19-.05-.19-.18,.05-1.07,.06-1.52,.06-2.34v-1.06h-3.01c-.21,1.09-.5,1.66-1.07,2.18-.99,.88-2.35,1.38-4.32,1.58l-.06-.24c1.87-.46,2.82-.9,3.5-1.62,.46-.48,.74-1.04,.9-1.9h-2.91c-.59,0-.83,.02-1.25,.1l-.11-.58c.46,.1,.74,.11,1.36,.11h2.98Zm-1.06-4.99c-.3,.3-.46,.45-.78,.72,.3,.05,.59,.13,.99,.27,.54,.21,.72,.35,.72,.62,0,.19-.05,.32-.13,.46,.79-.66,1.25-1.2,1.81-2.08h-2.61Z"/><path class="e" d="M613.45,106.28c-.03,.14-.27,1.15-.72,3.01-.22,.94-.27,1.2-.27,1.7,0,.46-.02,.59-.05,.69-.06,.18-.21,.27-.38,.27-.27,0-.51-.22-.69-.66-.35-.83-.56-2.13-.56-3.41,0-.48,.05-1.07,.13-1.71q.11-.93,.56-3.03c.16-.75,.22-1.15,.22-1.49,0-.53-.13-.93-.45-1.5,.35,.02,.64,.22,1.07,.78,.4,.5,.59,.91,.59,1.26,0,.26-.02,.32-.34,.96-.32,.67-.7,1.79-.86,2.54-.14,.61-.21,1.3-.21,1.98,0,.88,.08,1.44,.3,2.11,.27-.56,.4-.88,.58-1.36l.85-2.24,.22,.08Zm2.02,.8c-.03,.32-.05,.46-.05,.67,0,1.76,1.01,2.48,3.49,2.48,.46,0,.93-.03,1.36-.11q.34-.05,.85-.26c.1-.03,.18-.05,.24-.05,.42,0,1.01,.56,1.01,.94,0,.19-.13,.32-.35,.4-.34,.11-1.1,.18-2,.18-2,0-3.43-.34-4.15-.98-.58-.53-.86-1.2-.86-2.08,0-.4,.05-.75,.19-1.26l.27,.06Zm-.03-5.09c.56,.34,.91,.43,1.49,.43,.99,0,2.54-.35,3.22-.72,.21-.11,.24-.13,.35-.13,.13,0,.34,.08,.56,.22,.34,.19,.5,.38,.5,.59s-.11,.3-.45,.37c-1.06,.16-1.65,.3-2.27,.56-.5,.21-1.42,.72-2.07,1.14l-.16-.16c.72-.61,1.26-1.06,1.52-1.25-.34,.02-.51,.03-.66,.03-.9,0-1.49-.24-2.18-.9l.14-.19Z"/><path class="e" d="M626.53,112.87c1.38-.82,2.27-1.49,3.27-2.43,.54-.53,.91-.94,1.49-1.75,.35,.16,.62,.27,.8,.34,.82,.34,.9,.38,.9,.51s-.18,.21-.46,.21h-.45c-1.02,.94-1.6,1.38-2.74,2.03-.91,.54-1.47,.82-2.66,1.3l-.14-.21Zm9.12-9.99v-2.18c0-.77-.02-1.18-.08-1.76,1.75,.26,1.86,.29,1.86,.45,0,.14-.16,.22-.7,.4v3.09h1.46c.37-.5,.48-.62,.86-1.07,.62,.51,.82,.67,1.41,1.2,.05,.05,.06,.11,.06,.14,0,.05-.06,.1-.14,.1h-3.65v4.32h2.19c.42-.54,.56-.7,.99-1.2,.67,.54,.86,.72,1.44,1.3,.05,.06,.08,.11,.08,.16,0,.06-.1,.11-.21,.11h-13.21c-.42,0-.74,.03-1.09,.11l-.11-.64c.5,.13,.8,.16,1.26,.16h2.8v-4.32h-2.03c-.35,0-.74,.03-1.09,.08l-.1-.58c.46,.1,.8,.13,1.3,.13h1.92v-1.97c0-.74-.03-1.33-.1-2,1.46,.16,1.91,.26,1.91,.43,0,.14-.16,.21-.74,.35v3.19h3.7Zm-3.7,4.69h3.7v-4.32h-3.7v4.32Zm3.39,1.23c.37,.18,.7,.32,.9,.4,1.44,.64,2.35,1.14,3.06,1.67,.38,.29,.51,.58,.51,1.15s-.1,.86-.27,.86c-.16,0-.24-.08-.78-.69-1.38-1.54-1.76-1.89-3.55-3.2l.14-.19Z"/><path class="e" d="M644.2,105.32c.48,.11,.91,.18,1.36,.18h.98c.22-.3,.3-.4,.56-.69,.48,.3,.62,.4,1.04,.77,.08,.1,.1,.13,.1,.16,0,.08-.18,.24-.5,.42v3.86c.13,.45,.22,.61,.5,.85,.48,.43,1.3,.77,2.18,.91,.42,.08,1.04,.11,1.75,.11,1.31,0,5.84-.16,7.16-.27v.16c-.67,.34-.8,.51-.85,1.14l-.5,.02-2.26,.05c-4.75,0-5.62-.1-6.67-.77-.85-.53-1.3-1.09-1.75-2.19q-.21,.24-.58,.7t-.56,.72q-.62,.7-.85,.98v.24s.02,.1,.02,.13c0,.19-.08,.32-.19,.32s-.29-.3-.94-1.63c.18-.1,.32-.16,.4-.21,1.01-.48,1.17-.58,2.08-1.25v-4.15h-1.1q-.98,.05-1.2,.1l-.16-.64Zm.67-6.16c1.33,.88,1.73,1.18,2.23,1.7,.34,.35,.51,.66,.51,.86,0,.54-.35,1.18-.66,1.18-.18,0-.24-.1-.43-.62-.16-.43-.59-1.25-.9-1.74-.29-.42-.53-.74-.96-1.22l.21-.16Zm9.16,8.74q.02,1.07,.02,2.75c-.02,.16-.06,.21-.21,.22-.19,.03-.5,.06-.69,.06-.11,0-.14-.03-.18-.14,.02-.18,.05-1.09,.08-2.74v-.54h-2.66v1.63l.02,1.28v.24c-.02,.14-.05,.21-.14,.24-.05,0-.58,.03-.77,.03-.11,0-.16-.03-.19-.11,.03-1.04,.06-3.41,.06-5.79,0-1.22-.02-2.03-.06-2.95,.5,.24,.64,.32,1.09,.58h3.46c-.53-.66-.58-.7-1.01-1.06-.62-.53-1.04-.82-1.6-1.09l.13-.16c1.17,.27,2.27,.7,2.98,1.17,.56-.51,.88-.86,1.57-1.7h-5.54c-.42,0-1.12,.05-1.41,.1l-.14-.61c.37,.08,1.09,.14,1.55,.14h5.6c.19-.21,.42-.43,.67-.7,.53,.35,.69,.46,1.22,.85,.11,.08,.16,.13,.16,.18,0,.1-.1,.14-.29,.22l-.19,.05c-.14,.02-.34,.08-.59,.16-.62,.45-1.25,.83-2.45,1.55,.05,.22,.05,.3,.05,.53,0,.14-.02,.24-.08,.37h2.19c.22-.22,.45-.45,.69-.69,.42,.27,.54,.37,.94,.69,.05,.05,.08,.11,.08,.16,0,.11-.18,.27-.51,.45v4.96c.02,.53,.02,.86,.02,1.01v.46c-.03,.5-.19,.75-.59,.96-.22,.11-.45,.16-1.06,.22-.1-.48-.14-.56-.37-.69-.13-.06-.34-.13-.74-.22l-.3-.08c-.08-.02-.16-.03-.24-.06v-.22q.34,.02,.99,.05c.59,.05,.61,.05,.94,.06h.08c.14,0,.21-.08,.21-.24v-1.97h-2.79v.38Zm-.98-4.87h-2.66v1.9h2.66v-1.9Zm0,2.27h-2.66v1.84h2.66v-1.84Zm3.76-.37v-1.9h-2.79v1.9h2.79Zm0,2.21v-1.84h-2.79v1.84h2.79Z"/><path class="e" d="M674.62,109.28c-1.54,2.08-3.63,3.31-5.62,3.31-1.22,0-2.16-.5-2.66-1.36-.32-.56-.45-1.34-.45-2.71,0-.88,.05-2.4,.13-3.86,.1-1.73,.11-2.18,.11-2.75,0-1.38-.16-1.65-1.3-2.13,.18-.13,.27-.16,.45-.16,.37,0,.94,.14,1.44,.37,.61,.29,.93,.61,.93,.94,0,.11-.02,.21-.14,.58-.3,.96-.83,5.81-.83,7.68,0,.98,.19,1.55,.64,1.92,.35,.27,.86,.43,1.42,.43,1.09,0,2.43-.38,3.65-1.02,.74-.38,1.2-.72,2.03-1.42l.19,.18Z"/><path class="e" d="M681,102.55c.22,.21,.4,.27,.72,.27,.45,0,.85-.08,4.43-.94,.67-.16,1.54-.35,2.59-.56,1.22-.24,1.68-.35,2.16-.51,.32-.1,.43-.13,.56-.13,.19,0,.54,.14,.86,.34,.32,.21,.46,.38,.46,.61,0,.24-.19,.4-.5,.4-.06,0-.18,0-.29-.02-.21-.03-.29-.03-.45-.03-2.74,0-5.38,2.61-5.38,5.3,0,1.47,.74,2.56,2.11,3.15,.53,.22,1.17,.37,1.63,.38,.32,0,.43,.05,.67,.26,.29,.29,.48,.58,.48,.77,0,.27-.24,.45-.59,.45-.91,0-2.35-.51-3.25-1.15-1.22-.86-1.86-2.1-1.86-3.59,0-1.3,.64-2.72,1.75-3.91,.64-.7,1.28-1.14,2.61-1.82-1.46,.21-2.77,.51-4.59,1.1-1.01,.32-2.05,.75-2.56,1.02-.32,.19-.43,.22-.64,.22-.38,0-.86-.37-1.23-.94-.26-.38-.42-.82-.42-1.07,0-.13,.03-.22,.18-.42,.14,.38,.27,.59,.53,.82Z"/><path class="e" d="M699.94,107.43c-.03,.35-.05,.53-.05,.72,0,1.9,1.2,2.8,3.78,2.8,1.28,0,2.59-.22,3.54-.59,.08-.03,.19-.05,.27-.05,.24,0,.61,.13,.88,.32,.22,.18,.35,.37,.35,.56,0,.24-.18,.42-.51,.5-.74,.19-2.3,.32-3.73,.32-1.79,0-2.93-.22-3.73-.77-.8-.51-1.33-1.52-1.33-2.51,0-.4,.08-.82,.26-1.36l.27,.06Zm.5-6.32c.82,.54,1.38,.7,2.45,.7s2.4-.19,3.33-.48c.11-.03,.24-.06,.29-.06,.42,0,.96,.48,.96,.83,0,.27-.1,.34-1.17,.56-.85,.19-1.73,.51-4.27,1.58l-.11-.24c.45-.27,.74-.43,1.17-.67l1.04-.56,.3-.19c-.35,.03-.91,.05-1.2,.05-.59,0-1.33-.18-1.83-.43-.42-.22-.67-.43-1.12-.93l.16-.16Zm7.3-1.41c.59,.34,1.02,.64,1.42,.99,.58,.53,.8,.9,.8,1.28s-.22,.67-.5,.67q-.21,0-.72-1.04c-.27-.56-.79-1.26-1.22-1.7l.21-.21Zm1.65-.93c.58,.26,1.04,.54,1.52,.91,.62,.46,.83,.78,.83,1.23,0,.38-.16,.66-.4,.66-.14,0-.24-.08-.37-.3-.56-1.01-.88-1.42-1.76-2.29l.18-.21Z"/><path class="e" d="M719.19,103.41h1.23c.32-.46,.42-.59,.75-1.01,.56,.5,.74,.64,1.28,1.15,.05,.05,.06,.1,.06,.13,0,.05-.08,.1-.18,.1h-3.15v1.57c1.01,.45,1.42,.67,1.97,1.06s.72,.61,.72,.99c0,.58-.21,1.02-.48,1.02-.11,0-.18-.06-.26-.24-.27-.61-.72-1.31-1.14-1.76-.22-.26-.38-.4-.82-.72v2.42c0,1.86,0,1.9,.08,5.04,0,.1-.03,.14-.11,.16-.11,.05-.58,.1-.85,.1-.13,0-.16-.03-.18-.16q.05-2.15,.06-5.14l.08-3.12c-1.09,2.32-1.87,3.52-3.43,5.2l-.18-.14c.96-1.44,1.46-2.32,2.13-3.76,.46-.99,.62-1.41,.94-2.51h-1.86c-.29,0-.54,.02-.88,.08l-.1-.56c.46,.08,.75,.11,1.14,.11h2.08v-2.53c-1.33,.29-1.79,.37-2.99,.5l-.06-.24c1.28-.34,2.32-.69,3.62-1.23,.91-.37,1.22-.53,1.79-.93,.91,.59,1.34,.94,1.34,1.07,0,.06-.08,.13-.19,.13-.06,0-.4-.06-.67-.13-.8,.3-1.06,.38-1.78,.58v2.79Zm5.71-2.9c0,.11-.08,.16-.59,.37q.02,6.51,.06,8.63c0,.08-.03,.11-.1,.14-.13,.05-.58,.1-.88,.1-.13,0-.18-.03-.18-.16q.02-1.12,.02-1.49c0-5.83-.02-7.03-.08-8,1.65,.22,1.74,.26,1.74,.42Zm2.18,.29c-.02-.53-.03-.91-.06-1.73,1.38,.21,1.5,.22,1.63,.27,.13,.03,.19,.1,.19,.18,0,.13-.11,.19-.64,.4v8.64c0,.14,.03,1.28,.08,3.38,0,.43-.08,.62-.38,.86-.35,.27-.72,.4-1.46,.53-.06-.43-.16-.61-.43-.78-.16-.1-.58-.22-1.06-.32l-.58-.1-.48-.1,.02-.27q.72,.05,1.75,.1,.7,.02,1.2,.05c.22,0,.27-.05,.27-.26v-.05l-.05-10.8Z"/><path class="e" d="M735.27,107.24c-.16,1.2-.5,2.27-1.01,3.31-.61,1.22-1.23,2-2.27,2.85l-.18-.16c1.06-1.3,1.65-2.56,2.05-4.27,.29-1.23,.37-2,.42-4.27,.02-.75,.05-2.95,.05-3.59,0-.83-.02-1.31-.08-2.06,.58,.34,.75,.45,1.28,.82h8.56c.27-.34,.35-.43,.66-.75,.45,.32,.58,.42,1.01,.75,.13,.1,.19,.16,.19,.22,0,.11-.1,.18-.59,.48v7.44c0,1.39,0,2.02,.03,4.07-.05,.4-.14,.54-.5,.74-.29,.16-.66,.27-1.41,.4-.22-.94-.35-1.02-2.13-1.25v-.24q.59,.03,1.52,.08,.58,.03,1.04,.05h.13c.16,0,.19-.05,.19-.22v-4.39h-3.95v1.46q.02,1.04,.02,1.92t.03,1.38c-.02,.24-.16,.32-.64,.34h-.22c-.22,0-.32-.08-.32-.26,.02-.98,.03-2.74,.03-3.38v-1.46h-3.91Zm3.91-3.67h-3.75c-.02,1.5-.03,2.34-.11,3.3h3.86v-3.3Zm0-3.35h-3.75c.02,.34,.02,.62,.02,.77,0,.13,0,.5-.02,.99v1.22h3.75v-2.98Zm5.06,2.98v-2.98h-3.95v2.98h3.95Zm0,3.67v-3.3h-3.95v3.3h3.95Z"/><path class="e" d="M753.5,108.02v1.34c0,.29,0,.45,.03,2-.02,.51-.13,.7-.51,.94-.37,.22-.7,.34-1.38,.4-.18-.78-.32-.88-1.94-1.25l.05-.26c.34,.03,.62,.05,.8,.06,.94,.1,1.09,.1,1.7,.11h.06c.11,0,.13-.02,.13-.18v-10.66h-1.33c-.45,0-.69,.02-.99,.1l-.06-.56c.26,.06,.58,.1,1.06,.1h2.87c.32-.42,.43-.54,.77-.93,.46,.42,.61,.56,1.07,1.02,.05,.06,.08,.13,.08,.14,0,.08-.06,.13-.18,.13h-2.22v7.48Zm.3,4.87c.99-.37,1.55-.69,2.67-1.47,.51-.37,.85-.66,1.34-1.2q.56,.29,.86,.45c.1,.06,.18,.1,.24,.13,.16,.08,.24,.14,.24,.22,0,.1-.11,.16-.27,.16-.14,0-.3-.02-.46-.03-1.5,1.06-2.62,1.55-4.56,2l-.06-.26Zm6.75-12.68c-.7,1.02-.99,1.39-1.68,2.11h3.2c.21-.3,.27-.4,.51-.69,.42,.27,.54,.37,.93,.66,.14,.11,.18,.16,.18,.21,0,.11-.16,.24-.51,.4v2.13c0,2.3,.02,3.43,.1,4.96v.05c0,.06-.03,.11-.11,.13-.1,.05-.48,.08-.7,.08-.24,0-.3-.03-.3-.16v-.43h-4.98v.34c-.02,.11-.05,.14-.14,.18-.03,.02-.53,.05-.66,.05-.21,0-.3-.06-.3-.19v-.03q.1-3.54,.1-3.87c0-2.23-.02-3.94-.05-4.48,.5,.29,.66,.37,1.14,.69h1.31c.24-.69,.27-.8,.53-2.11h-1.92c-.43,0-.83,.05-1.14,.11l-.1-.64c.4,.11,.64,.14,1.23,.14h5.04c.4-.46,.53-.61,.88-1.04,.62,.48,.82,.64,1.41,1.12,.06,.06,.11,.13,.11,.16,0,.08-.08,.14-.16,.14h-3.91Zm1.6,2.48h-4.98v1.73h4.98v-1.73Zm-4.98,2.1v1.98h4.98v-1.98h-4.98Zm0,2.35v2.14h4.98v-2.14h-4.98Zm3.17,3.14c.42,.13,.74,.24,.94,.3,1.58,.5,2.23,.75,2.66,1.06,.26,.18,.34,.37,.34,.9,0,.43-.13,.7-.32,.7-.1,0-.13-.03-.5-.43-.46-.54-1.95-1.62-3.22-2.34l.1-.19Z"/><path class="e" d="M772.2,105.68c-.69,2.83-.98,4.29-.98,4.85v.18c.02,.13,.02,.19,.02,.26,0,.51-.13,.75-.4,.75-.24,0-.48-.21-.67-.58-.51-.99-.77-2.38-.77-4.15,0-1.18,.08-1.95,.35-3.63,.21-1.17,.26-1.62,.26-1.98,0-.5-.19-.99-.58-1.54,.35,.02,.67,.22,1.06,.62,.46,.51,.7,.94,.7,1.28,0,.21-.02,.3-.22,.88-.54,1.52-.83,3.04-.83,4.45,0,1.18,.11,1.94,.38,2.5,.19-.48,1.15-3.09,1.44-3.95l.24,.06Zm1.28-2.64c.72,.51,1.1,.64,1.86,.64,.66,0,1.58-.13,2.3-.34v-.56c0-1.33-.05-1.97-.19-2.24-.16-.32-.61-.56-1.36-.74,.24-.21,.35-.24,.88-.24,1.15,0,1.92,.32,1.92,.8,0,.06-.03,.22-.08,.38-.16,.59-.18,.78-.21,2.3,.86-.27,1.06-.37,1.46-.69,.11-.08,.19-.11,.34-.11,.51,0,.96,.22,.96,.48,0,.19-.11,.29-.56,.51-.51,.24-1.01,.4-2.18,.7v2.35c0,2.53-.43,3.83-1.63,5.09-.7,.72-1.41,1.25-2.43,1.75l-.13-.21c1.17-.91,1.73-1.52,2.26-2.47,.75-1.31,1.01-2.74,1.01-5.49v-.82c-.72,.14-1.28,.21-1.86,.21-1.07,0-1.79-.32-2.51-1.14l.16-.19Z"/><path class="e" d="M406.51,132.99c-.62,.19-2.13,.78-3.23,1.26-.32,.14-.53,.21-.66,.21-.29,0-.61-.22-.91-.67-.29-.43-.45-.85-.45-1.18,0-.14,.03-.26,.14-.42,.24,.75,.67,1.17,1.2,1.17,.42,0,1.94-.35,3.03-.69,.62-.21,.66-.21,.99-.5,.06-.05,.14-.08,.22-.08,.21,0,.46,.16,.87,.56,.37,.35,.48,.53,.48,.72,0,.11-.08,.21-.27,.3-.46,.24-.62,.37-1.33,1.07-1.01,1.01-1.6,1.6-2.35,2.4q-1.54,1.65-1.87,1.98l.03,.03c1.71-1.07,3.01-1.52,4.35-1.52,2.05,0,3.43,1.2,3.43,2.99,0,2.29-2.13,3.99-5.03,3.99-1.57,0-2.58-.62-2.58-1.6,0-.78,.74-1.36,1.73-1.36,.79,0,1.5,.29,2.03,.78,.29,.27,.46,.53,.7,.99,1.22-.53,1.94-1.63,1.94-2.99,0-.88-.35-1.6-.99-1.98-.34-.19-.96-.32-1.58-.32-1.57,0-3.76,1.28-5.09,2.98-.27,.34-.38,.43-.54,.43-.24,0-.53-.56-.53-1.04,0-.19,.11-.37,.34-.56,.61-.46,.86-.72,2.22-2.23,1.95-2.19,2.56-2.9,3.83-4.53q.13-.18,.16-.26s-.03-.03-.05-.03c0,0-.02,0-.02,.02h-.05s-.03,.02-.08,.03l-.08,.03Zm-2.46,9.19c-.61,0-1.01,.32-1.01,.82,0,.59,.7,.98,1.82,.98,.43,0,.64-.03,1.14-.14-.32-1.02-1.06-1.65-1.95-1.65Z"/><path class="e" d="M417.77,136.35c.02,.32,.02,.56,.02,.72,0,.96-.14,2.16-.35,2.88-.34,1.1-1.01,2.06-1.49,2.06-.22,0-.45-.42-.45-.86,0-.42,.06-.53,.4-.8,.48-.38,.75-.77,1.07-1.52,.29-.72,.42-1.34,.51-2.48h.29Zm1.82-.22c0-1.17-.02-1.39-.05-1.92,.35,.05,.62,.1,.8,.13,.88,.14,1.07,.21,1.07,.35,0,.13-.16,.22-.74,.4v5.95c1.76-1.78,2.77-3.09,4.08-5.23,.67-1.1,1.39-2.42,1.71-3.14,.1-.21,.14-.35,.24-.69,.32,.14,.56,.26,.72,.34,.77,.34,.93,.43,.93,.58,0,.16-.08,.18-.8,.21-2.03,3.91-4.03,6.47-6.88,8.84v1.54c0,.16,.02,.21,.13,.24,.16,.05,.83,.08,2.16,.08,1.44,0,2.21-.05,2.42-.13,.13-.06,.19-.19,.34-.7,.21-.7,.38-1.49,.69-3.01l.22,.02-.16,3.41v.03c0,.11,.03,.14,.29,.19,.34,.08,.5,.21,.5,.43,0,.24-.21,.43-.61,.53-.43,.11-1.76,.18-3.33,.18-2.42,0-2.93-.03-3.3-.16-.3-.1-.45-.34-.45-.7l.02-.51v-.66c-1.01,.8-2.1,1.44-3.76,2.21l-.18-.24c1.7-.96,2.83-1.79,3.94-2.85v-5.7Zm.46-5.01c1.55,.3,2.82,.7,3.49,1.1,.53,.3,.69,.56,.69,1.09,0,.4-.14,.7-.34,.7-.1,0-.19-.05-.35-.21-1.28-1.23-2.14-1.81-3.58-2.43l.1-.26Zm7.25,5.44c.85,.82,1.63,1.76,2.34,2.88,.26,.38,.35,.67,.35,.98,0,.7-.45,1.65-.77,1.65-.14,0-.21-.13-.34-.66-.43-1.94-.77-2.8-1.81-4.72l.22-.13Z"/><path class="e" d="M443.51,139.78c-.7,1.22-1.09,1.71-1.97,2.56,1.68,.45,3.25,.96,3.71,1.23,.43,.26,.8,.88,.8,1.34,0,.22-.11,.38-.27,.38-.11,0-.18-.05-1.1-.62-1.26-.78-2.19-1.23-3.75-1.81-1.04,.85-1.97,1.34-3.28,1.74-1.5,.46-2.66,.64-4.4,.67v-.27c2.05-.3,3.11-.56,4.34-1.07,.86-.37,1.6-.8,2.37-1.39-1.15-.35-1.62-.46-2.8-.66-.19,.22-.27,.32-.54,.62-.08,.1-.14,.13-.22,.13-.16,0-.72-.11-.8-.16-.03-.02-.05-.05-.05-.06,0-.05,.02-.06,.18-.26,.99-1.22,1.3-1.6,1.86-2.38h-3.12q-1.02,.02-1.31,.08l-.1-.62c.48,.14,.72,.18,1.42,.18h3.36c.66-.98,.88-1.36,1.06-1.79,1.3,.38,1.42,.45,1.42,.54,0,.11-.16,.18-.66,.24-.34,.53-.42,.66-.66,1.01h6.27c.43-.5,.56-.62,.99-1.06,.62,.5,.82,.66,1.38,1.17,.06,.08,.1,.13,.1,.16,0,.06-.06,.1-.16,.1h-4.07Zm-1.1-5.68h2.35c.27-.3,.37-.4,.64-.69,.38,.29,.5,.38,.88,.69,.13,.11,.16,.16,.16,.21,0,.1-.05,.14-.48,.4q.02,2.35,.08,3.27v.05c0,.19-.19,.24-.88,.24-.16,0-.22-.06-.22-.21v-.51h-9.27v.43c0,.21-.13,.26-.83,.26-.14,0-.21-.05-.21-.18,.03-.98,.03-1.47,.03-2.06q0-.5-.02-1.52c-.02-.34-.02-.66-.02-.98,.54,.22,.72,.32,1.3,.61h2.19v-2.03h-3.57c-.32,0-.75,.03-1.14,.1l-.1-.62c.4,.11,.75,.16,1.39,.16h10.36c.42-.46,.54-.59,.94-1.01,.62,.46,.82,.62,1.42,1.12,.05,.06,.1,.13,.1,.16,0,.05-.05,.1-.11,.1h-5.01v2.03Zm-6.74,.37v2.71h2.45v-2.71h-2.45Zm3.07,5.31c-.56,.8-.85,1.2-1.36,1.84,1.71,.22,2.27,.32,3.12,.48,.85-.78,1.23-1.26,1.79-2.32h-3.55Zm.35-7.72v2.03h2.32v-2.03h-2.32Zm0,5.11h2.32v-2.71h-2.32v2.71Zm3.31,0h2.53v-2.71h-2.53v2.71Z"/><path class="e" d="M452.04,134.1c.77,.72,1.22,.93,2.02,.93,.42,0,.85-.06,1.46-.19,.4-1.04,.58-1.71,.58-2.27,0-.53-.26-.85-1.02-1.23,.18-.1,.26-.11,.38-.11,.32,0,.82,.14,1.28,.37,.54,.27,.75,.45,.75,.67,0,.13-.03,.22-.16,.42-.06,.13-.4,.78-.98,1.97,1.18-.42,1.33-.5,1.78-.88,.13-.11,.18-.13,.34-.13,.62,0,1.09,.21,1.09,.48,0,.42-.99,.82-3.54,1.41-.14,.32-.42,.98-.85,1.94-.48,1.1-1.71,3.79-1.86,4.07-.24,.43-.38,.58-.58,.58-.27,0-.5-.5-.5-1.14,0-.32,.03-.42,.18-.58,.35-.38,.54-.62,.77-.96,.78-1.17,1.36-2.26,2-3.76-.35,.05-.5,.06-.75,.06-.58,0-1.01-.1-1.41-.34-.48-.27-.85-.66-1.17-1.17l.19-.13Zm8.47,.9c1.1,.1,2,.38,2.74,.88,.62,.4,1.01,.88,1.01,1.25,0,.27-.16,.46-.42,.46-.13,0-.22-.03-.37-.13-.45-.27-.75-.34-1.57-.34-1.28,0-1.68,.35-1.68,1.46,0,.43,.08,1.12,.32,2.75,.98,.29,1.81,.67,2.27,1.04,.43,.34,.64,.75,.64,1.26,0,.32-.13,.54-.32,.54-.16,0-.22-.05-.56-.42-.58-.62-1.1-1.01-1.94-1.41v.3c0,.64-.13,1.01-.45,1.36-.43,.43-1.18,.69-2.08,.69-1.44,0-2.43-.69-2.43-1.7,0-1.12,1.22-1.9,2.99-1.9,.37,0,.54,.02,.96,.08-.05-1.26-.05-1.39-.05-1.58,0-1.31,.13-1.81,.56-2.29,.32-.34,.77-.56,1.52-.75,.24-.06,.27-.08,.86-.21-.43-.46-.93-.72-2.07-1.1l.05-.26Zm-.86,7.01c-.5-.14-.87-.19-1.38-.19-1.36,0-2.19,.46-2.19,1.22,0,.59,.61,.94,1.6,.94,1.3,0,1.97-.53,1.97-1.54v-.43Z"/><path class="e" d="M471.02,133.55c.38,.58,.64,.85,1.1,1.15,.56,.35,1.04,.53,1.87,.69,.45-2.23,.5-2.46,.5-2.85,0-.54-.22-.88-.86-1.33,.13-.05,.18-.06,.27-.06,.29,0,.7,.18,1.18,.5,.51,.35,.83,.8,.83,1.15,0,.14-.05,.27-.21,.46-.27,.38-.45,.82-.88,2.23,.34,.1,.48,.18,.64,.35,.13,.14,.22,.37,.22,.53,0,.21-.19,.34-.51,.34-.16,0-.37-.03-.62-.08-.32,1.07-.51,2.02-.64,2.96,.38,.08,.66,.11,.82,.11,.05,0,.08,0,.13-.02,.1-.02,.16-.02,.18-.02,.42,0,.96,.5,.96,.86,0,.22-.21,.37-.54,.37-.45,0-1.12-.11-1.7-.29-.03,.38-.05,.58-.05,.78,0,1.63,.91,2.54,2.53,2.54,1.09,0,2.03-.42,2.53-1.09,.35-.48,.53-1.02,.53-1.63,0-1.33-.9-2.83-2.42-4l.18-.21c2.37,1.46,3.38,2.79,3.38,4.42,0,1.94-1.66,3.41-3.89,3.41-.83,0-1.63-.24-2.18-.66-.83-.62-1.23-1.58-1.23-2.98,0-.19,.02-.4,.03-.8-.62-.29-.94-.48-1.28-.82-.43-.45-.71-1.04-.71-1.58,0-.37,.18-.77,.5-1.1,.38-.38,.78-.61,1.55-.85-.64-.24-1.09-.53-1.55-.99-.34-.35-.53-.67-.83-1.41l.18-.1Zm.94,3.57c-.24,.26-.35,.5-.35,.8,0,.67,.54,1.17,1.65,1.5,.08-.8,.22-1.71,.48-2.91-.93,.05-1.39,.22-1.78,.61Z"/><path class="e" d="M493.07,143.85c1.73-.51,2.83-1.17,3.75-2.22,.94-1.07,1.42-2.39,1.42-3.86,0-1.55-.62-2.79-1.81-3.54-.7-.46-1.76-.74-2.77-.74-.19,0-.3,0-.56,.03,.38,.56,.5,.86,.5,1.33,0,1.25-.9,3.59-2.11,5.54-1.01,1.6-1.79,2.38-2.39,2.38-.27,0-.53-.13-.7-.34-.14-.19-.18-.26-.45-1.02-.14-.42-.24-.61-.7-1.5-.26-.51-.37-.94-.37-1.46,0-1.01,.54-2.19,1.44-3.17,1.3-1.38,3.41-2.24,5.51-2.24,1.62,0,3.1,.53,4.13,1.47s1.54,2.21,1.54,3.76c0,2-1.17,3.78-3.19,4.85-.93,.5-1.76,.75-3.12,.99l-.11-.27Zm-5.27-4.98c0,.77,.24,1.55,.64,2.11,.22,.29,.43,.46,.61,.46,.35,0,1.12-.86,1.91-2.11,1.18-1.89,2.03-3.95,2.03-4.95,0-.24-.05-.4-.22-.8-2.79,.5-4.96,2.82-4.96,5.28Z"/><path class="e" d="M505.29,133.62c.77,.61,1.14,.75,2,.75,.51,0,.98-.06,1.71-.21,.35-.69,.56-1.28,.56-1.63,0-.43-.3-.69-1.14-.9,.27-.14,.42-.18,.72-.18,.37,0,.83,.1,1.25,.27,.4,.16,.58,.34,.58,.53,0,.11-.06,.22-.26,.46-.14,.19-.34,.48-.46,.66q-.29,.46-.4,.62c1.34-.38,1.78-.58,2.31-1.02,.1-.08,.19-.11,.3-.11,.62,0,1.07,.22,1.07,.53,0,.19-.21,.35-.69,.51-1.42,.46-2.19,.66-3.49,.91-.29,.4-.48,.69-.85,1.25-.43,.67-.56,.85-.86,1.28,.9-.46,1.46-.64,2.07-.64,.94,0,1.65,.64,1.79,1.6q.27-.13,1.57-.78c1.58-.8,1.97-1.06,1.97-1.34,0-.27-.27-.56-.74-.75,.18-.08,.26-.1,.37-.1,.7,0,1.81,.98,1.81,1.62,0,.29-.13,.4-.58,.5-.96,.22-3.04,1.02-4.29,1.65,.02,.51,.02,.61,.02,1.3s-.05,1.22-.13,1.38c-.08,.18-.26,.3-.45,.3-.3,0-.51-.21-.51-.48,0-.08,0-.16,.02-.27,.06-.46,.1-1.01,.11-1.71-.99,.54-1.46,.86-1.87,1.26-.53,.51-.78,1.01-.78,1.49,0,.86,.88,1.28,2.67,1.28,1.12,0,2.24-.16,3.22-.45,.11-.03,.22-.05,.3-.05,.5,0,1.12,.45,1.12,.8,0,.21-.18,.37-.5,.43-.66,.13-1.87,.22-2.87,.22-1.5,0-2.61-.16-3.25-.46-.82-.38-1.18-.91-1.18-1.7s.37-1.44,1.15-2.19c.42-.4,.93-.77,1.98-1.42-.02-.67-.06-.93-.22-1.26-.14-.29-.46-.48-.82-.48-1.06,0-2.32,.85-3.47,2.32-.3,.42-.43,.51-.59,.51-.26,0-.43-.34-.43-.85,0-.34,.02-.35,.46-.72,1.14-.9,1.84-1.73,2.98-3.44-.53,.08-.74,.1-1.07,.1-1.09,0-1.65-.29-2.38-1.23l.18-.14Z"/><path class="e" d="M520.77,138.69c.93-1.41,1.57-2.61,2.19-4.15,.61-1.52,.94-2.77,1.01-3.75,1.57,.42,1.71,.46,1.71,.62,0,.14-.16,.21-.61,.26-.75,2.02-1.17,2.94-1.92,4.23,.77,.1,1.02,.18,1.02,.32,0,.1-.1,.19-.42,.34v3.17l.02,5.27v.05c0,.24-.19,.32-.77,.32-.27,0-.34-.03-.34-.21,.05-1.23,.05-1.65,.05-2.93v-5.6c-.61,.96-.91,1.34-1.73,2.26l-.22-.19Zm3.2,6.08c1.06-2.35,1.34-4.02,1.34-8,0-1.55,0-1.58-.1-2.34,.61,.26,.77,.35,1.3,.7h7.07c.38-.45,.51-.58,.9-1.01,.58,.5,.74,.66,1.23,1.17,.06,.06,.08,.1,.08,.13,0,.06-.05,.08-.18,.08h-9.24c-.02,2.72-.1,3.92-.38,5.38-.29,1.54-.82,2.69-1.82,4.02l-.21-.13Zm7.11-11.97v-.9c0-.27,0-.51-.03-.94,1.34,.18,1.63,.24,1.63,.42,0,.13-.21,.24-.58,.3v1.12h1.28l.78-1.02c.59,.48,.77,.64,1.28,1.14,.06,.06,.1,.11,.1,.16,0,.06-.06,.1-.22,.1h-3.2q0,.66,.02,1.26v.08c0,.16-.26,.24-.8,.24-.22,0-.29-.05-.29-.21,.02-.77,.02-.91,.02-1.38h-2.13c.02,.67,.02,1.1,.03,1.3v.05c0,.18-.26,.26-.78,.26-.22,0-.32-.05-.32-.18v-.03c.02-.74,.02-.93,.03-1.39h-1.36c-.62,0-.82,.02-1.25,.1l-.13-.62c.48,.1,.98,.16,1.39,.16h1.34c0-1.01-.02-1.26-.05-1.84,1.17,.19,1.34,.22,1.47,.27,.13,.05,.19,.11,.19,.18,0,.13-.14,.21-.58,.32v1.07h2.14Zm.16,8.82q.05,2.82,.05,3.02c0,.1-.02,.13-.06,.18-.08,.05-.4,.11-.7,.11-.21,0-.29-.05-.29-.19,0-.43,.02-1.46,.03-3.12h-2.11v3.22c0,.26-.14,.32-.75,.32-.26,0-.32-.05-.32-.21q0-.56,.06-2.53v-.64c0-3.94-.02-4.75-.06-5.55,.53,.24,.69,.32,1.18,.59h5.07c.21-.26,.29-.34,.51-.59,.45,.3,.58,.4,.98,.69,.1,.08,.14,.14,.14,.19,0,.1-.1,.18-.48,.42v3.73q.03,2.26,.05,2.88c0,.32-.03,.43-.18,.59-.21,.21-.43,.29-1.3,.45-.1-.43-.16-.53-.38-.66-.22-.11-.5-.19-.99-.27l.03-.26q1.15,.1,1.58,.1c.13-.02,.14-.03,.14-.19v-2.27h-2.21Zm-.98-4.43h-2.1v1.82h2.1v-1.82Zm0,2.19h-2.1v1.87h2.1v-1.87Zm3.19-.37v-1.82h-2.21v1.82h2.21Zm-2.21,2.24h2.21v-1.87h-2.21v1.87Z"/><path class="e" d="M542.2,136.48c.13,.13,.32,.19,.51,.19,.38,0,.67-.08,2.75-.75,1.2-.38,1.3-.42,1.5-.56,.14-.1,.19-.11,.27-.11,.43,0,1.31,.9,1.31,1.34,0,.19-.06,.24-.46,.4-.26,.11-.42,.22-.9,.64-.54,.45-2.23,2.1-3.2,3.15,.77-.4,1.28-.56,1.79-.56,.4,0,.77,.14,1.06,.4,.35,.32,.46,.61,.72,1.67,.21,.93,.5,1.12,1.62,1.12,.34,0,.7-.03,.99-.06q.22-.03,.56-.18c.08-.03,.14-.05,.21-.05,.18,0,.48,.14,.77,.37s.4,.37,.4,.56c0,.37-.48,.5-1.87,.5-1.22,0-1.99-.14-2.58-.51-.46-.27-.74-.66-.9-1.25q-.06-.26-.21-1.23c-.08-.59-.42-.91-.96-.91-.72,0-1.7,.58-2.69,1.58-.5,.5-.86,.93-1.65,1.97-.16,.21-.27,.3-.38,.3-.27,0-.58-.59-.58-1.09,0-.19,.06-.3,.26-.45,.9-.66,1.25-.96,2.32-2,1.18-1.15,3.09-3.25,3.92-4.32,.27-.37,.34-.46,.34-.56,0-.06-.06-.1-.18-.1-.54,0-2.24,.72-3.76,1.6-.3,.18-.48,.24-.62,.24-.26,0-.51-.22-.74-.66-.16-.34-.29-.77-.29-1.02,0-.22,.06-.37,.26-.58,.14,.56,.22,.74,.4,.91Zm2-5.33c.78,.62,1.23,.83,2.08,1.02,.45,.11,.61,.13,1.17,.18,.29,.02,.45,.1,.69,.34s.38,.51,.38,.72c0,.16-.14,.3-.32,.3-.03,0-.13,0-.22-.02-.08-.02-.18-.02-.29-.02q-.29,0-1.33,.11c-.13,.02-.96,.16-2.51,.42l-.06-.21c1.23-.4,2.48-.78,2.88-.9-1.39-.46-1.95-.85-2.62-1.81l.16-.14Z"/><path class="e" d="M557.29,134.79c.66,.67,1.07,.88,1.76,.88,.62,0,1.3-.1,2.03-.3,.32-1.04,.54-2.16,.54-2.71,0-.5-.24-.7-1.14-1.01,.21-.11,.29-.14,.5-.14,.37,0,.9,.11,1.38,.3,.48,.18,.72,.4,.72,.64q0,.11-.19,.38c-.21,.3-.56,1.15-.96,2.29,.9-.32,1.47-.62,1.86-.98,.26-.24,.32-.27,.45-.27,.21,0,.59,.08,.85,.18,.18,.06,.26,.16,.26,.29,0,.27-.26,.48-.93,.78-.72,.32-1.79,.67-2.8,.93q-.19,.54-.67,2.03-.32,.96-1.2,3.57c-.64,1.9-.85,2.31-1.18,2.31-.16,0-.27-.1-.37-.32-.13-.26-.22-.66-.22-.93,0-.26,.02-.3,.35-.78,.8-1.17,1.42-2.56,2.51-5.73-.61,.11-1.07,.16-1.54,.16-.98,0-1.6-.42-2.19-1.44l.19-.13Zm6.39,5.52c-.02,.24-.02,.43-.02,.5,0,.91,.43,1.6,1.22,1.94,.43,.19,1.09,.3,1.71,.3,.66,0,1.02-.05,1.54-.24,.11-.05,.21-.06,.27-.06,.18,0,.54,.18,.82,.38,.19,.16,.29,.3,.29,.45,0,.35-.62,.53-1.89,.53s-2.26-.18-2.96-.51c-.86-.42-1.36-1.25-1.36-2.32,0-.35,.03-.62,.14-1.01l.24,.05Zm.43-2.96c1.15-.69,2.46-1.07,3.71-1.07,.34,0,.75,.11,1.01,.29,.16,.1,.26,.27,.26,.45,0,.26-.14,.35-.61,.37-.59,.03-.78,.08-1.23,.32-.32,.18-.34,.18-.88,.54q-.3,.19-.56,.34l-.1-.14q.19-.19,.77-.72c.14-.13,.29-.26,.78-.75-1.06,0-1.91,.18-3.06,.59l-.1-.21Z"/><path class="e" d="M583.42,132.79v-.4l-.02-.98c0-.26,0-.32-.05-.66,1.7,.18,1.81,.21,1.81,.38,0,.14-.19,.26-.64,.37v1.28h1.39c.38-.48,.51-.61,.91-1.07,.64,.53,.82,.69,1.39,1.25,.03,.03,.05,.08,.05,.11,0,.05-.06,.08-.18,.08h-3.57v5.43h1.7c.37-.48,.5-.61,.93-1.04,.62,.5,.82,.67,1.44,1.23,.03,.03,.05,.08,.05,.1,0,.06-.05,.08-.18,.08h-4.72c.34,.5,.58,.75,1.01,1.09,.99,.8,2.05,1.25,4.13,1.73l-.02,.21c-.53,.13-.78,.37-1.07,.99-1.79-.94-2.69-1.6-3.44-2.54-.37-.46-.56-.8-.88-1.47h-4.23c-.75,1.06-1.09,1.42-1.92,2.13-1.12,.93-2.1,1.5-3.67,2.19l-.11-.22c1.42-.9,2.38-1.63,3.09-2.38,.43-.46,.67-.78,1.3-1.71h-2.69c-.43,0-.7,.03-1.17,.11l-.08-.62c.37,.08,.91,.14,1.25,.14h2.48v-5.43h-1.76c-.37,0-.79,.03-1.06,.1l-.08-.61c.38,.1,.78,.14,1.14,.14h1.76v-.35c0-.78,0-.93-.03-1.68,1.46,.11,1.78,.18,1.78,.37,0,.14-.16,.24-.64,.37v1.3h4.59Zm-.43,8.85c.35-.43,.46-.56,.83-.98,.58,.46,.74,.61,1.22,1.12,.05,.05,.06,.1,.06,.13,0,.06-.05,.1-.19,.1h-3.39v2.43h3.92c.38-.48,.51-.62,.93-1.07,.66,.5,.87,.66,1.47,1.23,.03,.05,.05,.1,.05,.11,0,.06-.05,.1-.19,.1h-11.72c-.37,0-.82,.03-1.22,.1l-.08-.59c.37,.08,.86,.13,1.3,.13h4.48v-2.43h-2.03c-.5,0-.67,.02-1.01,.08l-.1-.58c.45,.1,.75,.13,1.1,.13h2.03v-.88c0-.4-.02-.7-.06-1.31,1.5,.13,1.65,.16,1.65,.32,0,.13-.14,.21-.53,.3v1.57h1.47Zm-4.16-6.98h4.59v-1.5h-4.59v1.5Zm0,1.92h4.59v-1.55h-4.59v1.55Zm0,2h4.59v-1.63h-4.59v1.63Z"/><path class="e" d="M603.47,134.08c.4-.53,.51-.69,.91-1.18,.72,.51,.93,.67,1.6,1.28,.06,.08,.1,.13,.1,.16,0,.06-.08,.11-.18,.11h-6.5c.42,1.09,.85,1.76,1.87,2.95,1.17,1.36,2.32,2.43,3.33,3.1,.58,.37,.99,.59,1.92,.99v.21c-.66,.11-.99,.35-1.34,.94-1.39-1.02-2.38-2.02-3.58-3.62-.98-1.3-1.58-2.37-2.35-4.15l.02,3.6v2.93h1.57c.37-.5,.5-.64,.86-1.07,.66,.48,.85,.64,1.46,1.22,.03,.05,.05,.1,.05,.13,0,.05-.06,.1-.14,.1h-3.79v.22c.05,2.27,.05,2.4,.06,3.2-.03,.11-.05,.14-.13,.16-.05,.02-.59,.05-.8,.05-.16,0-.22-.05-.22-.21l.02-.88c0-.66,.02-1.1,.02-1.26,.02-.61,.03-1.04,.03-1.09v-.19h-2.42c-.62,0-.9,.02-1.2,.1l-.08-.59c.37,.08,.85,.13,1.28,.13h2.4v-2.91l.03-2.85c-.48,1.04-.7,1.42-1.39,2.31-.98,1.26-2.48,2.79-3.65,3.71-.67,.53-1.04,.75-1.95,1.22l-.1-.18c1.84-1.41,3.03-2.62,4.5-4.66,.99-1.38,1.46-2.16,2.1-3.6h-4.98c-.35,0-.72,.03-1.04,.1l-.08-.62c.29,.08,.86,.16,1.09,.16h5.44v-1.86c0-.7-.02-.91-.06-1.47,.37,.05,.66,.1,.85,.11,.78,.11,.94,.18,.94,.34s-.08,.21-.67,.4v2.48h4.23Z"/><path class="e" d="M609.05,142.28c1.57-1.23,2.96-2.8,3.94-4.43,.5-.85,.66-1.23,.66-1.58,0-.26-.22-.51-.8-.91,.18-.05,.24-.06,.35-.06,.29,0,.83,.22,1.31,.54,.54,.37,.77,.61,.77,.86,0,.13-.05,.22-.19,.35-.29,.24-.32,.27-.67,.74-1.28,1.71-1.89,2.34-3.36,3.51-.75,.56-1.22,.86-1.87,1.17l-.13-.18Zm8.58-7.03c1.68,1.01,3.2,2.35,4.21,3.73,.5,.67,.67,1.12,.67,1.71,0,.66-.26,1.17-.61,1.17-.22,0-.29-.1-.53-.74-.8-2.16-2.16-4.13-3.92-5.67l.18-.21Zm5.33-1.58c0,.98-.78,1.76-1.74,1.76s-1.76-.8-1.76-1.76,.78-1.75,1.76-1.75,1.74,.78,1.74,1.75Zm-2.98,0c0,.67,.56,1.23,1.23,1.23s1.22-.54,1.22-1.23-.54-1.22-1.22-1.22-1.23,.54-1.23,1.22Z"/><path class="e" d="M629.46,136.19c1.6,.98,2.22,1.58,2.22,2.19,0,.48-.26,.93-.51,.93-.16,0-.26-.11-.4-.45-.43-1.06-.66-1.42-1.47-2.51l.16-.16Zm1.49,8.23c1.09-.83,1.6-1.31,2.38-2.19,1.31-1.47,2.4-3.15,3.09-4.75,.22-.53,.3-.77,.3-1.01,0-.37-.16-.54-.83-.85,.16-.11,.24-.14,.38-.14,.37,0,.86,.19,1.34,.51,.43,.29,.61,.5,.61,.74,0,.16-.03,.21-.22,.4-.1,.1-.34,.48-.56,.86-1.14,1.95-1.39,2.34-2.21,3.31-1.28,1.55-2.66,2.66-4.13,3.36l-.16-.24Zm1.38-8.8c.59,.3,.99,.56,1.41,.93,.43,.35,.59,.64,.59,.99,0,.48-.27,.98-.53,.98-.18,0-.27-.13-.38-.5-.3-.96-.66-1.6-1.23-2.23l.14-.18Z"/><path class="e" d="M646.36,138.66c1.18-.99,2.24-2.24,3.36-3.92,.66-.99,1.06-1.81,1.06-2.16,0-.21-.06-.34-.3-.54q-.21-.18-.38-.29t-.29-.14c.14-.08,.21-.1,.3-.1,.35,0,.88,.18,1.31,.43,.51,.29,.75,.56,.75,.82,0,.19-.02,.21-.86,1.46,.21,.05,.3,.06,.42,.06,.32,0,1.1-.13,1.92-.32,.66-.16,.93-.26,1.26-.43,.13-.08,.18-.1,.27-.1,.38,0,1.3,.83,1.3,1.18,0,.14-.05,.22-.24,.4-.27,.24-.35,.37-.77,1.14-1.41,2.64-2.77,4.39-4.72,6.02-1.38,1.17-2.58,1.92-3.97,2.5l-.11-.22c1.28-.78,2.24-1.57,3.54-2.87,1.94-1.92,3.44-4.1,4.37-6.34,.16-.35,.26-.69,.26-.82,0-.06-.05-.11-.14-.11-.24,0-1.25,.26-2.03,.51-.29,.1-.38,.11-.53,.11-.34,0-.67-.16-.99-.46-1.23,1.76-2.87,3.31-4.61,4.39l-.16-.19Z"/><path class="e" d="M665.03,144.55c2.51-2.13,3.91-3.76,5.3-6.13,1.02-1.78,1.91-3.73,1.91-4.27,0-.16-.08-.21-.32-.21-.3,0-1.81,.27-2.96,.54-1.22,.29-2.24,.61-2.93,.91-.26,.11-.43,.16-.59,.16-.34,0-.75-.32-1.15-.86-.27-.37-.42-.74-.42-1.01,0-.1,.02-.18,.11-.32,.26,.59,.8,.93,1.49,.93,.54,0,1.75-.18,4.56-.66,1.41-.24,1.52-.27,1.86-.45q.19-.11,.32-.11c.24,0,.69,.29,1.17,.74,.34,.34,.5,.58,.5,.77,0,.16-.03,.22-.22,.43-.22,.24-.27,.34-.54,.88-2.18,4.29-4.66,7.07-7.92,8.85l-.14-.19Zm12.07-12.26c0,.98-.78,1.76-1.74,1.76s-1.76-.8-1.76-1.76,.78-1.74,1.76-1.74,1.74,.78,1.74,1.74Zm-2.98,0c0,.67,.56,1.23,1.23,1.23s1.22-.54,1.22-1.23-.54-1.22-1.22-1.22-1.23,.54-1.23,1.22Z"/><path class="e" d="M683.75,144.53c1.58-1.22,2.59-2.21,3.65-3.57,1.3-1.65,2.26-3.39,2.69-4.88-1.55,.11-2.99,.34-4.66,.74-1.01,.24-1.33,.34-1.67,.5-.26,.13-.32,.14-.48,.14-.56,0-1.47-1.15-1.47-1.86,0-.11,.02-.16,.1-.27,.37,.64,.8,.93,1.39,.93,.62,0,3.33-.34,5.41-.69,.86-.14,.99-.18,1.31-.37,.11-.06,.19-.1,.26-.1,.14,0,.38,.16,.75,.48,.45,.42,.64,.67,.64,.88,0,.13-.08,.26-.24,.4-.22,.16-.32,.3-.59,.83-1.73,3.27-4.31,5.86-6.95,7.03l-.14-.19Zm-.21-12.39c.54,.62,1.02,.86,1.71,.86,1.07,0,3.01-.42,3.62-.77,.13-.06,.21-.1,.34-.1,.45,0,1.25,.56,1.25,.88,0,.19-.14,.29-.61,.35-1.91,.29-3.22,.42-4.08,.42-1.2,0-1.68-.3-2.45-1.5l.22-.14Z"/><path class="e" d="M699.27,133.49c1.54,.38,2.46,.75,3.09,1.2,.37,.26,.54,.61,.54,1.09,0,.53-.18,.9-.45,.9-.18,0-.26-.08-.69-.64-.78-1.04-1.36-1.57-2.61-2.35l.11-.19Zm11.38,.91c-.8,1.5-1.78,2.77-3.36,4.31-1.47,1.42-2.46,2.22-4.5,3.65-.75,.53-.83,.59-.94,.74-.26,.3-.35,.38-.56,.38-.66,0-1.87-1.54-1.87-2.35,0-.1,.02-.16,.08-.32,.32,.48,.35,.51,.58,.7,.24,.22,.46,.34,.64,.34,.27,0,.77-.21,1.55-.67,1.79-1.04,2.42-1.49,3.83-2.64,1.97-1.6,2.93-2.58,4.31-4.27l.26,.14Z"/></g><g><path class="f" d="M59.41,65H24.54c-4.43,0-8.05-3.62-8.05-8.05V23.07c0-4.43,3.62-8.05,8.05-8.05H59.41c4.43,0,8.05,3.62,8.05,8.05V56.95c0,4.43-3.62,8.05-8.05,8.05"/><path class="g" d="M28.77,44.25l2.1,2.05c-.19,.17-.45,.23-.97,.28-.74,1.38-1.8,2.84-3.07,4.19,2.92,.49,3.88,1.67,3.88,2.58,0,.7-.53,1.25-1.14,1.25-.3,0-.59-.11-.89-.38-.25-1.06-1.04-2.29-1.88-3.07v8.9c-.02,.15-.74,.72-1.84,.72h-.4v-7.88c-1.02,.8-2.12,1.5-3.24,2.05l-.21-.19c2.73-1.95,5.38-5.78,6.5-8.85h-6.08l-.13-.42h3.13v-4.53l3.18,.3c-.04,.32-.25,.47-.91,.55v3.69h.68l1.31-1.23Zm10.29,13.28l2.31,1.8c-.17,.28-.47,.36-1.04,.36h-11.59l-.11-.42h5.21v-10.17h-3.79l-.11-.42h3.9v-7.73l3.24,.3c-.04,.3-.25,.49-.89,.57v6.86h1.23l1.23-1.67,2.24,1.72c-.17,.27-.44,.38-1.04,.38h-3.66v10.17h1.59l1.27-1.74Z"/><path class="g" d="M47.92,43.57h-5.27l-.11-.42h5.38v-2.24l2.96,.21c-.04,.32-.19,.45-.8,.53v1.5h4.58v-2.24l3.01,.21c-.02,.32-.19,.45-.8,.53v1.5h2.2l1.12-1.52,2.16,1.59c-.17,.28-.4,.36-.95,.36h-4.53v1.29s-.19,.53-2.2,.53v-1.82h-4.58v1.4s-.25,.53-2.16,.53v-1.93Zm12.24,10.65l2.22,1.57c-.17,.28-.42,.38-1.02,.38h-4.34v4.07s-.42,.57-2.22,.57v-4.64h-4.85c-.21,1.95-1.53,3.77-6.9,4.64l-.13-.25c3.73-1.08,4.7-2.69,4.83-4.38h-5.08l-.13-.42h5.23v-2.46l2.94,.23c-.02,.25-.19,.4-.74,.47v1.76h4.83v-2.46l2.88,.23c-.02,.23-.17,.36-.66,.44v1.78h1.93l1.21-1.52Zm-.59-9.62l2.16,1.44c-.17,.28-.42,.36-1,.36h-10.7c-.47,.63-1.04,1.23-1.67,1.78h1.82l.97-.97,1.95,1.57c-.15,.17-.45,.25-.93,.28-2.01,2.94-4.24,4.57-8.96,5.27l-.15-.4c1.8-.51,3.26-1.21,4.47-2.18-.25,.02-.51-.04-.74-.25-.15-.53-.59-1.14-1.06-1.52-.7,.38-1.44,.7-2.2,.97l-.13-.32c1.67-1.04,3.24-2.65,4.11-4.21h-4.11l-.13-.42h15.14l1.14-1.38Zm-11.71,4c-.51,.38-1.04,.74-1.59,1.06,1.48,.13,2.01,.7,2.01,1.23,0,.06-.02,.15-.04,.21,.72-.7,1.33-1.53,1.88-2.5h-2.27Zm5.32-1.95l2.73,.21c-.04,.23-.17,.34-.7,.42v1.82c1.42-.59,2.92-1.44,3.73-2.05l1.95,1.65c-.11,.11-.27,.15-.49,.15-.17,0-.4-.04-.66-.13-1.12,.34-2.88,.74-4.53,.95v1.14c0,.47,.02,.47,.66,.47h3.16c.72,0,.89,0,1.61-1.61h.19l.02,1.46c.76,.28,.85,.38,.85,.68,0,.74-.68,1.12-2.67,1.12h-3.33c-2.12,0-2.52-.42-2.52-2.14v-4.15Z"/><path class="g" d="M23.42,28.09v-3.14h3.55c1,0,1.45,.43,1.45,1.13,0,.61-.48,.9-1.34,.9h-1.66v1.45h3.06c1.65,0,2.34-1.01,2.34-2.41,0-1.5-.72-2.51-2.28-2.51h-5.11v-2.06h-2.41v2.06h-1.51v1.44h1.51v3.72c0,4.04,3.45,3.93,3.45,3.93h6.02v-1.44s-4.4-.11-4.76-.11c-1.03,0-2.3-1.05-2.3-2.96"/><path class="g" d="M34.21,32.42c2.26,0,2.77-.64,3.48-1.15,.93-.67,3.5-3.44,4.27-5.7h-2.57c-.19,.48-3.51,5.76-5.15,4.81-.49-.29-.52-.57-.52-2.14v-6.74h-2.32v6.93c0,3.73,1.9,3.98,2.82,3.98"/><path class="g" d="M53.1,23.52v-1.45h-10.83v1.45h3.19v2.35h-3.19v1.33h3.19v1.65c0,3.22,1.3,3.71,3.5,3.71h3.71v-1.44s-1.65-.07-2.3-.07c-1.65,0-2.79-.45-2.79-1.98v-1.87h5.53v-1.33h-5.53v-2.35h5.53Z"/><path class="g" d="M59.25,28.77c0,3.07-1.53,3.83-3.22,3.83h-2.29v-1.44h1.9c.92,0,1.44-1,1.44-2.47,0-1.01,0-2.57,0-2.57h4.04c1,0,1.33-.55,1.33-1.24,0-1.07-.75-1.37-1.33-1.37h-7.37v-1.45h8.09c3.92,0,3.86,5.49,.63,5.49h-3.21s0,.64,0,1.21"/><path class="g" d="M61.93,32.44h.37v-.88h.55c.35,0,.43,.17,.43,.57,0,.1,0,.22,.06,.32h.4c-.08-.09-.12-.32-.12-.56,0-.34-.19-.44-.32-.45h0c.07-.03,.35-.14,.35-.55,0-.36-.24-.58-.71-.58h-1.02v2.14Zm.37-1.84h.61c.19,0,.37,.05,.37,.33,0,.22-.13,.34-.37,.34h-.61v-.67"/><path class="g" d="M64.54,31.38c0,.99-.81,1.8-1.8,1.8s-1.8-.8-1.8-1.8,.8-1.8,1.8-1.8,1.8,.81,1.8,1.8m-1.8-1.54c-.85,0-1.53,.69-1.53,1.53s.69,1.53,1.53,1.53,1.53-.69,1.53-1.53-.69-1.53-1.53-1.53"/><line class="i" x1="19.18" y1="37.4" x2="64.77" y2="37.4"/></g><rect class="d" x="397" y="75.72" width="414" height=".57"/><rect class="d" x="618" y="168" width="187" height="47"/><polygon class="g" points="780.57 198.67 778.64 196.75 783.19 192.21 778.64 187.66 780.57 185.74 787.04 192.2 780.57 198.67"/><g class="j"><path class="g" d="M652.64,188.72h-6.34v-1.52h6.34v1.52Zm-.6,10.08h-3.39v.63h-1.64v-5.53h5.02v4.89Zm-4.98-9.35h4.99v1.47h-4.99v-1.47Zm0,2.22h4.99v1.44h-4.99v-1.44Zm4.96-5.19h-4.89v-1.46h4.89v1.46Zm-3.37,8.95v1.86h1.72v-1.86h-1.72Zm12.82,.52h-3.53v3.71h-1.9v-3.71h-3.61v-1.75h3.61v-1.64h-2.77v-1.7h2.77v-1.54h-3.09v-1.75h1.47c-.19-.73-.58-1.67-.99-2.4l1.56-.58c.52,.84,.99,1.93,1.17,2.67l-.78,.31h3.16l-.73-.24c.39-.78,.88-1.98,1.12-2.84l1.88,.54c-.45,.92-.94,1.86-1.34,2.54h1.75v1.75h-3.27v1.54h2.93v1.7h-2.93v1.64h3.53v1.75Z"/><path class="g" d="M669.22,187.56c-.07,1.75-.2,5.38-.2,7.39,0,1.64,.97,2.17,2.24,2.17,2.67,0,4.38-1.54,5.54-3.31l1.47,1.78c-1.04,1.56-3.34,3.73-7.03,3.73-2.66,0-4.38-1.17-4.38-3.94,0-2.17,.16-6.43,.16-7.83,0-.76-.06-1.54-.21-2.19l2.61,.03c-.1,.68-.18,1.51-.21,2.16Z"/><path class="g" d="M690.02,187.69c-1.05,.84-3.19,2.5-4.28,3.42-.86,.75-.84,.92,.03,1.69,1.21,1.02,4.29,3.45,5.95,5.06l-1.9,1.73c-.45-.5-.92-1.02-1.41-1.51-.99-1.02-3.37-3.05-4.84-4.31-1.62-1.38-1.49-2.24,.13-3.6,1.28-1.04,3.5-2.84,4.59-3.89,.47-.47,.99-.99,1.25-1.38l1.9,1.67c-.5,.39-1.04,.81-1.41,1.12Z"/><path class="g" d="M699.75,187.18c-.24,1.09-.78,4.65-.78,6.27,0,.32,.02,.73,.06,1.05,.21-.57,.49-1.12,.73-1.67l.99,.81c-.45,1.33-.97,2.98-1.17,3.86-.05,.23-.08,.58-.08,.76,0,.16,.02,.44,.03,.66l-1.83,.15c-.34-1.13-.65-2.98-.65-5.19,0-2.45,.49-5.51,.66-6.76,.07-.45,.15-1.07,.16-1.59l2.24,.2c-.13,.32-.32,1.15-.37,1.44Zm8.18-.57c-.02,.36-.03,.96-.05,1.67,.89-.08,1.73-.21,2.51-.37v2.03c-.78,.11-1.62,.21-2.51,.28,.03,1.57,.11,2.87,.18,3.97,1.34,.55,2.37,1.38,3.14,2.09l-1.12,1.7c-.68-.63-1.33-1.2-1.98-1.64-.1,1.56-.97,2.66-3.16,2.66s-3.63-.94-3.63-2.64,1.39-2.77,3.6-2.77c.37,0,.73,.02,1.05,.06-.03-1-.1-2.19-.11-3.34-.39,.02-.78,.02-1.15,.02-.96,0-1.88-.03-2.84-.1v-1.93c.92,.1,1.86,.15,2.84,.15,.37,0,.76,0,1.13-.02,0-.79-.02-1.46-.02-1.8,0-.24-.05-.75-.11-1.07h2.32c-.05,.31-.08,.7-.1,1.05Zm-3.21,10.47c.99,0,1.33-.52,1.33-1.47v-.29c-.42-.11-.86-.18-1.3-.18-.92,0-1.54,.39-1.54,1,0,.66,.65,.94,1.51,.94Z"/><path class="g" d="M717.4,194.98c0,1.04,.99,1.78,3.32,1.78,2.19,0,4.26-.24,5.69-.65l.02,2.28c-1.41,.34-3.35,.55-5.62,.55-3.71,0-5.57-1.25-5.57-3.47,0-.94,.19-1.73,.32-2.33l2.12,.19c-.16,.58-.28,1.09-.28,1.64Zm3.32-8.31c1.6,0,3.45-.1,4.7-.23v2.16c-1.13,.1-3.14,.19-4.68,.19-1.7,0-3.11-.06-4.42-.18v-2.14c1.2,.13,2.71,.19,4.41,.19Z"/><path class="g" d="M736.03,186.99c-.03,.15-.07,.32-.1,.5,1.85-.1,4.04-.34,6-.76l.03,1.93c-1.69,.28-4.26,.58-6.43,.7-.23,.99-.49,2.03-.73,2.82,1.31-.73,2.58-1.02,4.02-1.02,2.62,0,4.36,1.39,4.36,3.47,0,3.65-3.52,4.96-8.75,4.39l-.57-2.09c3.55,.58,7.13,.15,7.13-2.24,0-.97-.83-1.78-2.41-1.78-1.86,0-3.52,.66-4.49,1.9-.18,.23-.29,.44-.45,.71l-1.91-.68c.78-1.51,1.43-3.66,1.85-5.45-1.02-.02-1.98-.06-2.8-.15v-2.01c.97,.16,2.19,.29,3.18,.31,.03-.24,.07-.47,.1-.67,.1-.7,.11-1.1,.08-1.64l2.3,.1c-.18,.57-.28,1.12-.39,1.65Z"/><path class="g" d="M750.36,192.26c1.47-1.07,3.08-1.54,4.78-1.54,2.84,0,4.49,1.75,4.49,3.71,0,2.95-2.33,5.22-9.08,4.65l-.62-2.12c4.86,.67,7.44-.52,7.44-2.58,0-1.05-1-1.83-2.41-1.83-1.83,0-3.48,.68-4.5,1.91-.29,.36-.45,.62-.6,.94l-1.86-.47c.32-1.59,.7-4.76,.81-6.77l2.17,.31c-.21,.89-.5,2.87-.62,3.79Zm7-5.79l-.49,1.98c-1.64-.21-5.25-.97-6.51-1.3l.52-1.94c1.54,.49,5.07,1.1,6.48,1.26Z"/></g></g></g></g></svg>