<?xml version="1.0" encoding="UTF-8"?><svg xmlns="http://www.w3.org/2000/svg" viewBox="0 0 55.34 108.84"><defs><style>.d{fill:#42210b;}</style></defs><g id="a"/><g id="b"><g id="c"><g><path class="d" d="M38.12,2.5c.23,.21,.6,.31,1.07,.31s2.11-.36,4-.91c1.07-.29,1.69-.49,2.03-.65q.16-.08,.52-.39c.13-.1,.31-.18,.47-.18,.75,0,2.37,1.66,2.37,2.44,0,.29-.08,.36-.65,.6-.36,.18-1.48,1.01-3.43,2.63-1.98,1.64-4.89,3.9-7.54,5.88,2.83-1.09,4.86-1.77,10.11-3.28,1.07-.31,1.82-.52,2.42-.73,.65-.23,.81-.26,1.07-.26,.34,0,.91,.26,1.35,.62,.34,.29,.44,.47,.44,.75,0,.26-.21,.47-.52,.49-.21,.05-.23,.05-1.66,.13-1.43,.05-3.3,.6-4.63,1.3-2.21,1.17-3.54,2.99-3.54,4.81,0,1.51,.96,2.7,2.57,3.25,.68,.23,1.09,.29,2.29,.29,.18,0,.36,0,.49-.03,.21-.03,.36-.05,.42-.05,.57,0,1.53,.94,1.53,1.48,0,.49-.42,.7-1.33,.7-4.13,0-7.07-2.18-7.07-5.2,0-1.3,.55-2.57,1.61-3.69,.81-.88,1.51-1.4,2.94-2.24-2.99,.83-7.75,2.76-9.31,3.77-.36,.23-.49,.29-.65,.29-.57,0-1.46-.86-1.46-1.38,0-.36,.18-.52,.7-.68,1.35-.42,3.72-2.24,7.31-5.69,2.89-2.73,4.16-4.16,4.16-4.58,0-.21-.16-.34-.36-.34-.29,0-.55,.08-2.83,.99-1.51,.6-2.42,1.01-3.15,1.46-.36,.21-.55,.29-.78,.29-.52,0-1.12-.52-1.61-1.43-.31-.52-.49-1.12-.49-1.51,0-.13,.03-.26,.16-.49,.29,.55,.52,.86,.99,1.22Z"/><path class="d" d="M43.27,46.44c2.81-.83,4.6-1.9,6.08-3.61,1.53-1.74,2.31-3.88,2.31-6.27,0-2.52-1.01-4.52-2.94-5.75-1.14-.75-2.86-1.2-4.5-1.2-.31,0-.49,0-.91,.05,.62,.91,.81,1.4,.81,2.16,0,2.03-1.46,5.82-3.43,9-1.64,2.6-2.91,3.87-3.87,3.87-.44,0-.86-.21-1.14-.55-.23-.31-.29-.42-.73-1.66-.23-.68-.39-.99-1.14-2.44-.42-.83-.6-1.53-.6-2.37,0-1.64,.88-3.56,2.34-5.15,2.11-2.24,5.54-3.64,8.94-3.64,2.63,0,5.04,.86,6.71,2.39s2.5,3.59,2.5,6.11c0,3.25-1.9,6.14-5.17,7.88-1.51,.81-2.86,1.22-5.07,1.61l-.18-.44Zm-8.55-8.09c0,1.25,.39,2.52,1.04,3.43,.36,.47,.7,.75,.99,.75,.57,0,1.82-1.4,3.09-3.43,1.92-3.07,3.3-6.42,3.3-8.03,0-.39-.08-.65-.36-1.3-4.52,.81-8.06,4.58-8.06,8.58Z"/><path class="d" d="M31.05,65.99c2.08-2.99,2.94-4.55,4.37-7.93,1.01-2.42,1.4-3.64,1.74-5.49,.6,.18,1.07,.31,1.35,.39,1.56,.42,1.77,.52,1.77,.73,0,.26-.39,.42-1.27,.49-1.09,2.63-1.9,4.19-3.46,6.68,.21,.03,.39,.05,.49,.08,1.07,.16,1.43,.26,1.43,.44s-.21,.34-.91,.6v6.71q.03,2.7,.03,7.12c-.05,.34-.26,.42-.96,.44-.23,0-.39,.03-.44,.03h-.08c-.31,0-.44-.1-.47-.36,.13-4.58,.21-6.99,.21-7.23v-6.73c-1.46,2.16-2.24,3.09-3.54,4.29l-.26-.26Zm11.02,6.89c0,.57,.08,.7,.47,.81,.31,.08,2.55,.13,5.46,.13,4.03,0,4.13,0,4.42-.49,.18-.26,.36-.7,.6-1.43,.05-.18,.21-.68,.47-1.48,.1-.36,.34-1.09,.55-1.72h.34l-.23,3.95c-.03,.1-.03,.23-.03,.31q0,.21,.44,.39c.55,.23,.78,.47,.78,.78,0,.52-.44,.88-1.3,1.07-.75,.16-2.42,.23-5.28,.23-2.6,0-5.51-.05-6.29-.1-1.77-.13-2.18-.57-2.18-2.16v-9.88l-.55,.18c-.68,.21-1.01,.36-1.64,.68l-.49-.88c1.12-.13,1.33-.16,2.03-.39l.65-.18v-4.42c0-.99-.03-1.25-.05-2.03,1.12,.08,2.34,.21,2.63,.29,.21,.05,.31,.16,.31,.29,0,.21-.18,.31-1.09,.68v4.63l3.77-1.17c.03-.86,.03-4.34,.03-5.8,0-1.04,0-1.27-.08-2.08,2.89,.36,3.02,.39,3.02,.68s-.29,.42-1.25,.65l.03,6.01,3.67-1.14c.36-.65,.47-.83,.86-1.43,.75,.39,.99,.52,1.66,.94,.21,.1,.31,.21,.31,.29,0,.13-.23,.39-.78,.88,0,3.51-.21,6.24-.55,7.67-.31,1.22-.83,1.56-2.99,1.82-.23-1.17-.57-1.43-2.18-1.74,0,1.01,.03,2.24,.03,3.67-.03,.23-.1,.31-.34,.36-.34,.05-.81,.1-1.04,.1-.34,0-.47-.1-.47-.42q.03-2.94,.08-9.85l-3.77,1.2v10.14Zm5.51-11.88v6.27c1.48,.18,2.05,.23,2.47,.23,.7,0,.94-.21,1.09-.91,.26-1.3,.36-3.22,.39-6.81l-3.95,1.22Z"/><path class="d" d="M43.27,100.6c2.81-.83,4.6-1.9,6.08-3.61,1.53-1.74,2.31-3.88,2.31-6.27,0-2.52-1.01-4.52-2.94-5.75-1.14-.75-2.86-1.2-4.5-1.2-.31,0-.49,0-.91,.05,.62,.91,.81,1.4,.81,2.16,0,2.03-1.46,5.82-3.43,9-1.64,2.6-2.91,3.87-3.87,3.87-.44,0-.86-.21-1.14-.55-.23-.31-.29-.42-.73-1.66-.23-.68-.39-.99-1.14-2.44-.42-.83-.6-1.53-.6-2.37,0-1.64,.88-3.56,2.34-5.15,2.11-2.24,5.54-3.64,8.94-3.64,2.63,0,5.04,.86,6.71,2.39s2.5,3.59,2.5,6.11c0,3.25-1.9,6.14-5.17,7.88-1.51,.81-2.86,1.22-5.07,1.61l-.18-.44Zm-8.55-8.09c0,1.25,.39,2.52,1.04,3.43,.36,.47,.7,.75,.99,.75,.57,0,1.82-1.4,3.09-3.43,1.92-3.07,3.3-6.42,3.3-8.03,0-.39-.08-.65-.36-1.3-4.52,.81-8.06,4.58-8.06,8.58Z"/><path class="d" d="M6.24,11.05c1.17,.29,2.47,.78,3.51,1.38,.86,.49,1.2,1.01,1.2,1.82,0,.65-.26,1.25-.57,1.25-.03,0-.21-.1-.29-.16-.16-.13-.18-.16-.65-.86-.81-1.12-1.74-2-3.2-2.96v5.59q.03,4.76,.08,5.98c-.08,.34-.29,.44-.94,.44h-.34c-.39,0-.49-.05-.57-.26,0-.29,.03-2.29,.08-6.03v-4.52c-1.27,1.3-2.31,2.13-4.11,3.3l-.29-.39c1.69-1.4,2.89-2.65,4.34-4.6s2.29-3.35,3.2-5.33H2.47c-.57,0-.96,.03-1.85,.13l-.18-.96c.7,.16,1.43,.23,2.03,.23h2.08V2.37c0-1.04-.03-1.38-.21-2.26,.57,.05,1.01,.1,1.3,.13,1.25,.1,1.59,.18,1.59,.44,0,.21-.21,.34-.99,.6v3.82h1.46c.52-.6,.7-.75,1.25-1.3,.7,.57,.91,.75,1.53,1.3,.23,.26,.29,.34,.29,.42,0,.21-.13,.26-1.3,.52-1.09,1.95-1.79,2.99-3.22,4.76v.26Zm5.41-1.33c-.55,0-1.04,.05-2.08,.18l-.21-.99c1.07,.18,1.46,.21,2.29,.21h3.69V3.25c0-1.35-.03-2.03-.18-3.25,.55,.08,1.09,.13,1.35,.16,1.35,.13,1.66,.23,1.66,.47,0,.21-.29,.39-1.04,.68v7.83h2.68l1.51-1.95c1.09,.91,1.43,1.2,2.47,2.16,.05,.05,.1,.16,.1,.18,0,.1-.13,.21-.26,.21h-6.5v11.78h3.17c.7-.86,.94-1.14,1.74-2.03,1.07,.91,1.38,1.22,2.42,2.26,.08,.05,.13,.16,.13,.18,0,.1-.13,.18-.26,.18H10.74c-1.07,0-1.51,.03-2.47,.18l-.23-.99c.91,.13,1.77,.21,2.7,.21h4.6V9.72h-3.69Z"/><path class="d" d="M15.63,39.16c2.11-1.01,3.48-1.9,4.73-3.09,1.87,1.01,2.21,1.22,2.21,1.4,0,.16-.18,.23-.49,.23-.1,0-.6-.03-.94-.03-1.77,.86-3.51,1.48-5.51,1.95v1.48c0,.36,.05,.44,.31,.49,.18,.03,1.43,.08,2.13,.08,.23,0,.62,0,1.3-.03h1.07c.99,0,1.12-.03,1.27-.29,.18-.29,.73-1.64,1.17-2.89l.31,.03-.16,2.05v.6q0,.13,.47,.31c.36,.1,.55,.31,.55,.62,0,.86-.7,.99-5.54,.99-4.19,0-4.42-.08-4.47-1.4v-6.66h-5.36c-.62,.96-.96,1.4-1.59,2.08h3.67c.44-.42,.57-.52,1.04-.91,.6,.47,.78,.6,1.35,1.07,.18,.16,.23,.23,.23,.31,0,.16-.13,.21-1.01,.49-1.72,2.5-3.09,3.77-5.56,5.07-1.82,.96-3.56,1.59-6.03,2.16l-.13-.42c3.02-1.09,4.94-2.08,6.76-3.48-.21-.03-.26-.08-.42-.29-.62-.91-1.38-1.66-2-2.03-1.69,1.33-2.5,1.82-4,2.47l-.23-.36c1.61-1.04,2.68-2,4.13-3.64,.86-.99,1.33-1.61,1.85-2.52H3.69c-1.12,0-1.3,0-2.21,.16l-.18-1.01c.81,.18,1.48,.26,2.39,.26H20.25c.68-.73,.88-.96,1.59-1.66,.99,.81,1.27,1.07,2.24,1.9,.05,.08,.1,.16,.1,.21,0,.1-.1,.16-.29,.16H15.63v4.13Zm-.88-8.27c0-.13,.03-.18,.03-.21,0-1.14-.05-1.72-.13-2.18,2.24,.23,2.89,.36,2.89,.6,0,.18-.21,.29-1.09,.52q-.03,.99-.03,1.27h4c.73-.78,.96-1.01,1.66-1.72,1.04,.83,1.38,1.09,2.44,1.95,.05,.08,.1,.16,.1,.21,0,.1-.1,.16-.26,.16h-7.96c0,.55,0,.78,.03,1.48-.03,.31-.26,.36-1.43,.36-.26,0-.31-.05-.31-.23,.03-.83,.05-1.12,.05-1.61h-4.99v.31l-.03,.47c0,.16,.03,.34,.05,.68,0,.16-.03,.21-.1,.26-.1,.08-.68,.13-1.4,.13-.16,0-.23-.05-.26-.21,.05-.88,.08-1.17,.08-1.64H3.12c-1.09,0-1.3,.03-2.08,.13l-.18-.94c.73,.16,1.25,.21,2.26,.21h4.97c.03-.29,.03-.52,.03-.73,0-.7-.03-.99-.1-1.66,.55,.08,1.01,.13,1.3,.16,1.25,.13,1.53,.21,1.53,.44,0,.18-.23,.29-1.09,.52v1.27h4.99Zm-6.5,14.92c.05-.52,.08-.83,.08-1.27,0-.42-.03-.65-.1-1.12,.55,.08,.96,.16,1.25,.18,1.12,.16,1.56,.29,1.56,.47s-.13,.23-.96,.52c-.08,.78-.08,.88-.13,1.22h4.81c0-1.3-.03-1.33-.1-2.18,2.5,.23,2.7,.26,2.7,.49,0,.18-.05,.21-.91,.57v1.12h3.98c.7-.81,.91-1.04,1.61-1.74,1.07,.81,1.38,1.07,2.39,1.95,.05,.08,.1,.16,.1,.21,0,.08-.13,.18-.23,.18h-7.88v1.59c0,.65,0,.81,.05,3.82,0,.13-.05,.18-.13,.23-.13,.08-.81,.16-1.38,.16-.23,0-.31-.08-.31-.29,.08-1.74,.1-2.47,.1-3.8v-1.72h-4.89c-.34,1.77-.81,2.7-1.74,3.54-1.61,1.43-3.82,2.24-7.02,2.57l-.1-.39c3.04-.75,4.58-1.46,5.69-2.63,.75-.78,1.2-1.69,1.46-3.09H3.41c-.96,0-1.35,.03-2.03,.16l-.18-.94c.75,.16,1.2,.18,2.21,.18h4.84Zm-1.72-8.11c-.49,.49-.75,.73-1.27,1.17,.49,.08,.96,.21,1.61,.44,.88,.34,1.17,.57,1.17,1.01,0,.31-.08,.52-.21,.75,1.27-1.07,2.03-1.95,2.94-3.38H6.53Z"/><path class="d" d="M11.23,66.67h1.04q.65-.81,1.48-1.82c.91,.86,1.2,1.14,2.03,1.98,.08,.08,.16,.18,.16,.23,0,.08-.1,.21-.16,.21h-4.55v6.5q.05,4.94,.08,6.14c-.05,.21-.13,.26-.36,.31-.26,.05-.78,.1-1.07,.1-.39,0-.49-.08-.52-.34q.03-1.17,.05-6.21v-6.5h-3.67c-.16,3.17-.39,5.07-.83,6.68-.62,2.37-1.69,4.11-3.93,6.55l-.36-.23c.88-1.33,1.25-2.03,1.82-3.41,1.04-2.63,1.3-4.21,1.51-9.59H1.69c-.47,0-.78,.03-1.46,.16l-.23-.94c.73,.13,1.27,.18,1.66,.18H3.98c.05-1.4,.05-1.92,.05-5.1v-1.92h-1.72c-.6,0-.83,.03-1.38,.16l-.29-.94c.62,.13,1.2,.18,1.69,.18H11.49c.6-.78,.78-1.01,1.4-1.77,.96,.83,1.25,1.09,2.16,1.92,.05,.1,.1,.23,.1,.26,0,.08-.05,.18-.1,.18h-3.82v7.02Zm-5.36-7.02c-.03,4.06-.08,6.4-.1,7.02h3.64v-7.02h-3.54Zm6.45,20.25c3.67-2.18,5.17-3.38,7.2-5.69,1.43-1.61,2.31-2.96,2.83-4.26,2.18,1.01,2.6,1.27,2.6,1.56,0,.18-.29,.29-.75,.29h-.49c-2,2.6-3.15,3.8-4.99,5.17-2.03,1.53-3.61,2.37-6.19,3.25l-.21-.31Zm1.09-7.88c2.34-1.38,4.03-2.78,5.8-4.73,1.38-1.48,2.21-2.7,2.7-3.85,.62,.31,1.09,.52,1.4,.68,.88,.39,1.27,.68,1.27,.88,0,.23-.18,.29-1.3,.29-2.7,2.86-3.2,3.3-4.65,4.34-1.66,1.2-2.94,1.9-4.99,2.73l-.23-.34Zm1.14-7.1c1.59-1.2,2.96-2.52,4.47-4.34,1.17-1.43,1.74-2.37,2.11-3.35,2.21,1.04,2.81,1.38,2.81,1.56s-.18,.26-.52,.26h-.91c-1.12,1.4-2.18,2.42-3.8,3.72-1.25,1.01-2.29,1.66-3.9,2.47l-.26-.31Z"/><path class="d" d="M8.92,87.21c2.39,1.25,3.51,2.16,3.51,2.91,0,.7-.36,1.4-.7,1.4-.16,0-.26-.1-.39-.39-.13-.26-.34-.65-.75-1.27-3.2,.57-4.13,.7-8.42,1.17-.21,.68-.26,.75-.42,.75-.1,0-.21-.1-.26-.29-.03-.05-.13-.7-.36-1.95,.6,.1,.81,.1,1.43,.1h.7c1.01-1.59,1.48-2.55,1.85-3.82,.96,.23,2.08,.52,2.39,.65,.13,.05,.21,.16,.21,.23,0,.23-.23,.31-1.17,.42-.31,.31-.55,.55-.7,.7-1.2,1.25-1.3,1.35-1.9,1.79,.29,0,2.42-.05,6.4-.16-.52-.78-.86-1.14-1.66-1.98l.26-.29Zm-3.98,15.94c-.18,1.79-.62,3.2-1.35,4.32-.52,.81-1.22,1.38-1.69,1.38-.21,0-.36-.1-.49-.31-.16-.29-.29-.7-.29-1.04,0-.55,.16-.75,.7-1.01,.49-.21,1.22-.83,1.69-1.38,.49-.57,.73-.99,1.01-1.95h.42Zm-.73-5.17v3.8c-.03,.23-.18,.29-1.01,.29-.52,0-.6-.05-.6-.34,.08-2.03,.08-2.68,.08-4.99,0-2.5-.03-4.32-.08-5.25,.86,.36,1.12,.49,1.92,.91h4.58c.42-.42,.55-.55,.94-.94,.55,.42,.73,.52,1.2,.94,.26,.26,.31,.34,.31,.44,0,.13-.18,.26-.75,.49v7.07c0,1.09-.42,1.46-2.16,1.85-.16-1.12-.31-1.25-2.76-1.79l.03-.31c1.66,.18,2,.21,3.09,.26,.26,0,.29-.03,.29-.26v-2.16H4.21Zm5.07-3.15v-1.85H4.21v1.85h5.07Zm-5.07,.6v1.95h5.07v-1.95H4.21Zm3.04,9.1c0-.44,0-.55-.05-1.66,2.44,.31,2.73,.39,2.73,.65,0,.21-.23,.36-1.04,.6v2.6c0,.36,.03,.42,.16,.52,.29,.13,.57,.16,3.74,.16,3.38,0,3.61-.03,3.95-.36,.18-.21,.55-1.12,1.14-2.91l.31,.03-.08,2.24c-.03,.08-.03,.16-.03,.18q0,.31,.57,.6c.36,.21,.47,.34,.47,.65,0,.81-.96,.99-5.04,.99h-1.38c-1.27-.03-2-.03-2.5-.03h-.65c-1.9,0-2.24-.21-2.31-1.27v-2.96Zm3.69-2.03c2.08,.55,2.94,.83,3.35,1.17,.31,.23,.49,.7,.49,1.2,0,.52-.29,1.04-.57,1.04-.13,0-.23-.08-.44-.44-.26-.39-.83-1.07-1.25-1.46-.47-.42-.86-.68-1.72-1.17l.13-.34Zm4.08-12.4c2.34-.94,4.34-2.11,5.62-3.28,.44,.26,.78,.44,1.01,.57,.86,.47,1.2,.73,1.2,.91,0,.16-.18,.26-.44,.26-.13,0-.42-.03-.94-.08-2.63,1.07-3.51,1.35-6.45,2.13v1.17c0,.36,.03,.44,.16,.52,.18,.08,1.07,.13,2.89,.13h.18c1.07,0,1.66-.03,1.98-.03h.29c1.07,0,1.09-.03,2-2.96l.29,.03v1.95c0,.65,.03,.68,.31,.86,.34,.18,.47,.34,.47,.57,0,.26-.21,.55-.52,.65-.49,.21-1.38,.26-5.02,.26-2.83,0-3.61-.05-4.03-.21-.39-.16-.55-.49-.57-1.22,.03-1.9,.03-1.92,.03-2.31v-2.16c0-.62-.03-1.04-.08-1.85,.6,.08,1.01,.13,1.33,.16,1.01,.1,1.4,.26,1.4,.49,0,.21-.23,.31-1.09,.57v2.86Zm0,8.06c1.38-.47,1.61-.57,2.31-.88,1.22-.57,2.24-1.22,3.15-1.98,.68,.36,1.48,.83,1.85,1.09,.16,.1,.21,.18,.21,.29,0,.13-.23,.23-.57,.23-.18,0-.39,0-.65-.03-2.31,.91-3.77,1.33-6.29,1.79v1.46c0,.36,.03,.52,.13,.57,.16,.1,1.09,.16,2.68,.16,1.74,0,2.94-.03,3.2-.08,.29-.05,.44-.23,.7-.75,.18-.39,.21-.44,.88-2.57l.31,.05-.13,2.18c0,.18-.03,.29-.03,.36v.05c0,.26,.08,.36,.42,.52,.31,.16,.44,.34,.44,.6,0,.36-.31,.65-.88,.81-.42,.13-1.87,.18-5.36,.18-2.34,0-2.96-.05-3.38-.31-.42-.23-.55-.6-.57-1.46,.03-1.48,.03-1.59,.03-2.05v-1.95c0-.96,0-1.22-.08-1.98,.52,.08,.94,.13,1.2,.16,1.07,.16,1.38,.29,1.38,.49,0,.23-.26,.39-.94,.57v2.47Zm4.55,5.15c2.99,1.66,3.15,1.77,3.77,2.39,.36,.34,.55,.75,.55,1.17,0,.39-.23,1.07-.49,1.4-.13,.18-.29,.29-.44,.29-.23,0-.31-.1-.68-.88-.73-1.53-1.56-2.63-3.04-4.08l.34-.29Z"/></g></g></g></svg>