<?xml version="1.0" encoding="UTF-8"?><svg xmlns="http://www.w3.org/2000/svg" viewBox="0 0 720 109.8"><defs><style>.e,.f{fill:#fff;}.g{fill:#8d6f3a;}.f{stroke:#fff;stroke-width:.28px;}</style></defs><g id="a"/><g id="b"><g id="c"><g><path class="g" d="M718.02,43.98v63.83H1.98V43.98H718.02m1.98-1.98H0V109.8H720V42h0Z"/><path class="g" d="M6,0H182c3.31,0,6,2.69,6,6V42H0V6C0,2.69,2.69,0,6,0Z"/><g><path class="f" d="M37.72,16.06v-.99c0-.57,0-.82-.06-1.37,.76,.08,1.65,.23,1.98,.3,.17,.04,.25,.11,.25,.21,0,.13-.17,.23-.82,.47v1.37h5.43c.3-.42,.4-.53,.74-.91,.74,.49,.97,.67,1.67,1.2,.13,.11,.17,.17,.17,.28,0,.04-.04,.11-.09,.15-.04,.04-.19,.08-.36,.11l-.36,.06c-.13,.04-.27,.06-.4,.09-.89,.74-1.46,1.24-1.71,1.44l-.17-.08,.63-1.92h-12.54c-.21,1.8-.93,3.23-1.63,3.23-.17,0-.28-.09-.38-.34-.09-.27-.19-.7-.19-.87,0-.27,.08-.36,.49-.68,.28-.21,.55-.55,.84-1.04,.4-.67,.57-1.16,.66-1.98h.25c.02,.34,.02,.36,.02,.65,0,.23,0,.38-.02,.61h5.6Zm-2,6.33c.99-.59,1.84-1.2,2.75-1.94,1.33-1.1,2.01-1.86,2.74-3.06,1.12,.57,1.63,.91,1.63,1.08,0,.1-.21,.19-.42,.19-.06,0-.23-.02-.46-.04-1.35,1.58-2.98,2.85-5.47,4.26,.47,.04,.7,.04,1.14,.04,2.6,0,3.31-.04,3.53-.23,.23-.17,.4-.65,1.06-2.93l.27,.06-.11,2.15-.04,.3c0,.17,.04,.19,.49,.42,.19,.09,.3,.25,.3,.38,0,.29-.34,.53-.86,.63-.47,.08-2.6,.13-5.03,.13-1.31,0-1.71-.04-2.11-.23-1.79,.87-3.1,1.33-5.09,1.77l-.11-.27c2.2-.86,3.29-1.33,4.71-2.09l-.08-.36v-.36q0-.09,.02-1.03v-1.65c0-.3,0-.59-.04-1.27,.42,.04,.74,.08,.95,.09,.84,.08,.99,.13,.99,.32,0,.17-.17,.29-.78,.48v3.15Zm-2.26-3.57c-.13,1.22-.4,2.07-.99,3.08-.42,.72-.97,1.25-1.29,1.25-.27,0-.61-.65-.61-1.14,0-.25,.04-.29,.51-.55,.32-.19,.85-.65,1.12-.99,.49-.63,.7-.99,.93-1.65h.32Zm4.26,7.12c0-.68-.02-.89-.08-1.5,.76,.08,1.63,.19,1.86,.27,.13,.04,.19,.09,.19,.19,0,.19-.06,.21-.7,.47v4.14h4.2v-2.85c0-.29,0-.44-.04-1.42,.46,.06,.8,.09,1.03,.11,.78,.08,1.01,.15,1.01,.36,0,.17-.17,.3-.72,.51q-.02,1.63-.02,1.86c0,.91,.02,1.42,.08,2.66,0,.17-.04,.25-.17,.29-.09,.04-.57,.08-.87,.08-.19,0-.29-.06-.29-.19v-.97h-9.73v.84c0,.29-.02,.3-1.04,.36-.25,0-.32-.08-.32-.27,.02-1.14,.04-3.91,.04-4.65,0-.21-.02-.4-.04-.74,2.09,.25,2.2,.27,2.2,.46s-.25,.32-.84,.49v3.08h4.26v-3.57Zm-1.33-8.99c1.04,.3,1.98,.7,2.38,1.03,.17,.13,.25,.32,.25,.57,0,.42-.29,.97-.51,.97-.11,0-.17-.08-.32-.34-.11-.21-.47-.7-.68-.97-.32-.36-.61-.63-1.24-1.06l.13-.19Zm6.67,2.24c1.04,.42,1.98,.99,2.77,1.71,.3,.29,.4,.49,.4,.87,0,.51-.34,1.16-.63,1.16-.13,0-.25-.11-.4-.42-.13-.25-.63-1.1-.87-1.5-.29-.46-.4-.61-1.39-1.67l.11-.15Z"/><path class="f" d="M63.38,21.68c1.54-.74,2.55-1.39,3.46-2.26,1.37,.74,1.61,.89,1.61,1.03,0,.11-.13,.17-.36,.17-.08,0-.44-.02-.68-.02-1.29,.63-2.56,1.08-4.03,1.42v1.08c0,.27,.04,.32,.23,.36,.13,.02,1.04,.06,1.56,.06,.17,0,.46,0,.95-.02h.78c.72,0,.82-.02,.93-.21,.13-.21,.53-1.2,.86-2.11l.23,.02-.11,1.5v.44q0,.09,.34,.23c.27,.08,.4,.23,.4,.46,0,.63-.51,.72-4.05,.72-3.06,0-3.23-.06-3.27-1.03v-4.86h-3.91c-.46,.7-.7,1.03-1.16,1.52h2.68c.32-.3,.42-.38,.76-.67,.44,.34,.57,.44,.99,.78,.13,.11,.17,.17,.17,.23,0,.11-.09,.15-.74,.36-1.25,1.82-2.26,2.75-4.07,3.7-1.33,.7-2.6,1.16-4.41,1.58l-.1-.3c2.2-.8,3.61-1.52,4.94-2.55-.15-.02-.19-.06-.3-.21-.46-.67-1.01-1.22-1.46-1.48-1.23,.97-1.82,1.33-2.93,1.8l-.17-.27c1.18-.76,1.96-1.46,3.02-2.66,.63-.72,.97-1.18,1.35-1.84h-2.22c-.82,0-.95,0-1.61,.11l-.13-.74c.59,.13,1.08,.19,1.75,.19h12.1c.49-.53,.65-.7,1.16-1.22,.72,.59,.93,.78,1.63,1.39,.04,.06,.08,.11,.08,.15,0,.08-.08,.11-.21,.11h-6.04v3.02Zm-.65-6.04c0-.09,.02-.13,.02-.15,0-.84-.04-1.25-.09-1.6,1.63,.17,2.11,.27,2.11,.44,0,.13-.15,.21-.8,.38q-.02,.72-.02,.93h2.93c.53-.57,.7-.74,1.22-1.25,.76,.61,1.01,.8,1.79,1.42,.04,.06,.08,.11,.08,.15,0,.08-.08,.11-.19,.11h-5.81c0,.4,0,.57,.02,1.08-.02,.23-.19,.27-1.04,.27-.19,0-.23-.04-.23-.17,.02-.61,.04-.82,.04-1.18h-3.65v.23l-.02,.34c0,.11,.02,.25,.04,.49,0,.11-.02,.15-.08,.19-.08,.06-.49,.09-1.03,.09-.11,0-.17-.04-.19-.15,.04-.65,.06-.86,.06-1.2h-3.63c-.8,0-.95,.02-1.52,.1l-.13-.68c.53,.11,.91,.15,1.65,.15h3.63c.02-.21,.02-.38,.02-.53,0-.51-.02-.72-.08-1.22,.4,.06,.74,.09,.95,.11,.91,.09,1.12,.15,1.12,.32,0,.13-.17,.21-.8,.38v.93h3.65Zm-4.75,10.9c.04-.38,.06-.61,.06-.93,0-.3-.02-.48-.08-.82,.4,.06,.7,.11,.91,.13,.82,.11,1.14,.21,1.14,.34s-.09,.17-.7,.38c-.06,.57-.06,.65-.09,.89h3.51c0-.95-.02-.97-.08-1.6,1.82,.17,1.98,.19,1.98,.36,0,.13-.04,.15-.67,.42v.82h2.91c.51-.59,.67-.76,1.18-1.27,.78,.59,1.01,.78,1.75,1.42,.04,.06,.08,.11,.08,.15,0,.06-.09,.13-.17,.13h-5.76v1.16c0,.47,0,.59,.04,2.79,0,.09-.04,.13-.09,.17-.1,.06-.59,.11-1.01,.11-.17,0-.23-.06-.23-.21,.06-1.27,.08-1.8,.08-2.77v-1.25h-3.57c-.25,1.29-.59,1.98-1.27,2.58-1.18,1.04-2.79,1.63-5.13,1.88l-.08-.29c2.22-.55,3.34-1.06,4.16-1.92,.55-.57,.87-1.23,1.06-2.26h-3.46c-.7,0-.99,.02-1.48,.11l-.13-.68c.55,.11,.87,.13,1.61,.13h3.53Zm-1.25-5.93c-.36,.36-.55,.53-.93,.85,.36,.06,.7,.15,1.18,.32,.65,.25,.85,.42,.85,.74,0,.23-.06,.38-.15,.55,.93-.78,1.48-1.42,2.15-2.47h-3.1Z"/><path class="f" d="M79.57,22.78c-.04,.17-.32,1.37-.85,3.57-.27,1.12-.32,1.42-.32,2.01,0,.55-.02,.7-.06,.82-.08,.21-.25,.32-.46,.32-.32,0-.61-.27-.82-.78-.42-.99-.66-2.53-.66-4.05,0-.57,.06-1.27,.15-2.03q.13-1.1,.67-3.59c.19-.89,.27-1.37,.27-1.77,0-.63-.15-1.1-.53-1.79,.42,.02,.76,.27,1.27,.93,.47,.59,.7,1.08,.7,1.5,0,.3-.02,.38-.4,1.14-.38,.8-.84,2.13-1.03,3.02-.17,.72-.25,1.54-.25,2.36,0,1.04,.09,1.71,.36,2.51,.32-.67,.47-1.04,.68-1.62l1.01-2.66,.27,.09Zm2.39,.95c-.04,.38-.06,.55-.06,.8,0,2.09,1.2,2.94,4.14,2.94,.55,0,1.1-.04,1.61-.13q.4-.06,1.01-.3c.11-.04,.21-.06,.29-.06,.49,0,1.2,.67,1.2,1.12,0,.23-.15,.38-.42,.47-.4,.13-1.31,.21-2.38,.21-2.38,0-4.07-.4-4.92-1.16-.68-.63-1.03-1.42-1.03-2.47,0-.47,.06-.89,.23-1.5l.32,.08Zm-.04-6.04c.67,.4,1.08,.51,1.77,.51,1.18,0,3.02-.42,3.82-.85,.25-.13,.28-.15,.42-.15,.15,0,.4,.09,.66,.27,.4,.23,.59,.46,.59,.7s-.13,.36-.53,.44c-1.25,.19-1.96,.36-2.7,.66-.59,.25-1.69,.86-2.45,1.35l-.19-.19c.86-.72,1.5-1.25,1.81-1.48-.4,.02-.61,.04-.78,.04-1.06,0-1.77-.29-2.58-1.06l.17-.23Z"/><path class="f" d="M102.41,28.52c1.75-.44,3-.91,4.2-1.6,2.22-1.25,3.5-3.12,3.5-5.11s-1.41-3.19-3.48-3.19c-2.22,0-5.13,1.22-7.64,3.17-.3,.25-.49,.32-.72,.32-.89,0-2.28-1.33-2.28-2.18,0-.13,.04-.25,.15-.47,.19,.4,.3,.53,.53,.7,.29,.21,.51,.3,.78,.3,.49,0,1.22-.21,2.3-.68,3-1.31,4.98-1.82,6.95-1.82,2.89,0,4.86,1.69,4.86,4.18,0,2.36-1.6,4.39-4.37,5.57-1.44,.61-2.83,.93-4.69,1.1l-.09-.29Z"/><path class="f" d="M124.58,22.21c-1.39,3.19-1.79,4.31-1.79,5.07q0,.15,.11,.65c.02,.09,.04,.21,.04,.3,0,.27-.19,.48-.42,.48-.53,0-1.5-.74-2.09-1.62-.65-.93-1.1-2.28-1.29-3.8-.11-.83-.13-1.31-.13-3.34-.02-1.77-.15-2.2-.97-3.27h.17c.3,0,.86,.36,1.42,.93,.57,.55,.86,1.06,.86,1.5,0,.11-.02,.27-.06,.49-.23,1.16-.34,2.05-.34,2.83,0,1.03,.15,1.98,.44,2.75,.28,.78,.51,1.12,.99,1.48q.21-.3,.63-1.01,.61-1.03,1.6-2.68,.3-.49,.55-.91l.29,.13Zm4.05-3.44c2.39,.53,4.29,3.06,4.29,5.68,0,.91-.38,1.5-.95,1.5-.19,0-.3-.04-.57-.21-.25-.17-.61-.23-1.42-.23-.44,0-.8,0-1.44,.04l-.06-.28c1.54-.42,2.39-.67,2.56-.72,.38-.13,.44-.21,.44-.57,0-.7-.27-1.8-.59-2.49-.51-1.1-1.27-1.9-2.36-2.49l.1-.23Z"/><path class="f" d="M139.01,18.36c.27,.25,.47,.32,.85,.32,.53,0,1.01-.09,5.26-1.12,.8-.19,1.82-.42,3.08-.67,1.44-.29,1.99-.42,2.56-.61,.38-.11,.51-.15,.67-.15,.23,0,.65,.17,1.03,.4,.38,.25,.55,.46,.55,.72,0,.29-.23,.48-.59,.48-.08,0-.21,0-.34-.02-.25-.04-.34-.04-.53-.04-3.25,0-6.38,3.1-6.38,6.29,0,1.75,.87,3.04,2.51,3.74,.63,.27,1.39,.44,1.94,.46,.38,0,.51,.06,.8,.3,.34,.34,.57,.68,.57,.91,0,.32-.29,.53-.7,.53-1.08,0-2.79-.61-3.86-1.37-1.44-1.03-2.2-2.49-2.2-4.26,0-1.54,.76-3.23,2.07-4.64,.76-.83,1.52-1.35,3.1-2.17-1.73,.25-3.29,.61-5.45,1.31-1.2,.38-2.43,.89-3.04,1.22-.38,.23-.51,.27-.76,.27-.46,0-1.03-.44-1.46-1.12-.3-.46-.49-.97-.49-1.27,0-.15,.04-.27,.21-.49,.17,.46,.32,.7,.63,.97Z"/></g><g><path class="g" d="M34.68,80.73c-.44-.55-1.29-1.46-2.07-2.24v7.56h-1.75v-7.01c-.85,.84-1.77,1.56-2.66,2.13-.17-.46-.61-1.29-.87-1.63,2.17-1.23,4.35-3.44,5.64-5.81h-4.98v-1.62h2.87v-3.5h1.75v3.5h1.31l.3-.06,.99,.67c-.57,1.44-1.41,2.83-2.36,4.08,.89,.72,2.47,2.09,2.91,2.49l-1.08,1.44Zm10.6,3.04v1.75h-10.64v-1.75h4.6v-7.45h-3.84v-1.71h3.84v-5.85h1.8v5.85h3.84v1.71h-3.84v7.45h4.24Z"/><path class="g" d="M65.84,82.54h-4.46v3.51h-1.79v-3.51h-4.69c-.3,1.46-1.37,2.81-4.81,3.59-.21-.38-.72-1.03-1.04-1.33,2.68-.55,3.72-1.37,4.08-2.26h-4.41v-1.5h4.62v-1.41h1.65v1.41h4.6v-1.41h1.79v1.41h4.46v1.5Zm-8.3-7.41c-.97,2.51-3.42,4.24-7.52,5.11-.17-.36-.57-.89-.87-1.2,1.48-.27,2.74-.65,3.74-1.12-.46-.38-1.12-.84-1.73-1.22-.46,.25-.91,.47-1.37,.67-.21-.29-.7-.86-1.03-1.1,1.44-.51,2.89-1.27,3.91-2.22h-3.29v-1.37h15.94v1.37h-5.72v1.56c1.48-.32,2.98-.74,3.89-1.16l1.23,.99c-1.41,.59-3.38,1.03-5.13,1.33v.76c0,.51,.13,.61,.99,.61h2.83c.65,0,.76-.19,.84-1.35,.32,.25,.95,.46,1.41,.57-.19,1.69-.63,2.13-2.07,2.13h-3.15c-1.94,0-2.43-.42-2.43-1.96v-3.48h-3.51c-.21,.25-.42,.49-.65,.72h2.41l.29-.06,.99,.42Zm-4.29-3.97h-4.29v-1.41h4.29v-1.16h1.75v1.16h4.54v-1.16h1.77v1.16h4.43v1.41h-4.43v1.16h-1.77v-1.16h-4.54v1.16h-1.75v-1.16Zm-.7,4.69l-.29,.21c.63,.36,1.33,.82,1.81,1.2,.63-.42,1.12-.89,1.46-1.41h-2.98Z"/><path class="g" d="M69.41,81.51l1.56-1.37c1.35,1.1,3.12,2.89,4.2,4.2l-1.62,1.37c-1.2-1.46-2.81-3.08-4.14-4.2Z"/><path class="g" d="M87.56,70.72c-.02,.46-.04,1.06-.08,1.75,1.33-.15,2.7-.42,3.74-.72l.04,1.86c-1.1,.25-2.51,.47-3.82,.63-.02,.76-.04,1.52-.04,2.2v.66c1.39-.4,2.79-.61,3.95-.61,2.83,0,4.96,1.52,4.96,3.95,0,2.26-1.31,3.84-4.1,4.5-.86,.19-1.71,.25-2.41,.28l-.68-1.94c.76,.02,1.58,.02,2.28-.13,1.6-.3,2.98-1.14,2.98-2.74,0-1.46-1.31-2.28-3.04-2.28-1.33,0-2.64,.23-3.89,.63,.02,1.58,.08,3.17,.08,3.93,0,2.01-.74,2.6-1.86,2.6-1.65,0-4.18-1.52-4.18-3.34,0-1.61,1.96-3.3,4.2-4.27v-1.18c0-.67,0-1.39,.02-2.11-.47,.04-.89,.06-1.25,.06-1.16,0-1.88-.04-2.51-.09l-.06-1.82c1.08,.13,1.82,.15,2.53,.15,.4,0,.84-.02,1.31-.06,0-.85,.02-1.54,.02-1.88,0-.4-.06-1.16-.11-1.5h2.09c-.06,.36-.11,1.01-.15,1.46Zm-2.43,12.56c.38,0,.65-.25,.65-.87s-.04-1.71-.06-2.94c-1.39,.68-2.38,1.65-2.38,2.41s1.14,1.41,1.79,1.41Zm12.75-9.2l-.93,1.52c-.91-.84-3.19-2.19-4.39-2.81l.84-1.44c1.41,.7,3.53,2,4.48,2.74Z"/><path class="g" d="M109.73,77.62s0,.49-.02,.72c-.21,4.63-.4,6.4-.91,6.99-.34,.44-.72,.55-1.29,.61-.49,.08-1.39,.08-2.3,.04-.04-.47-.21-1.12-.49-1.56,.87,.09,1.71,.09,2.03,.09,.3,0,.49-.02,.63-.21,.32-.34,.51-1.69,.67-5.11h-2.66c-.44,2.68-1.31,5.21-3.31,6.88-.27-.42-.78-.97-1.22-1.23,2.55-2.05,2.96-5.74,3.13-9.04h-1.98v-6.31h7.58v6.31h-3.88c-.04,.61-.08,1.22-.15,1.82h4.16Zm-6.1-3.38h4.25v-3.19h-4.25v3.19Zm9.37,7.14h-1.71v-10.49h1.71v10.49Zm4.6-12.39v14.82c0,1.1-.27,1.62-.93,1.94-.7,.27-1.84,.32-3.57,.3-.09-.48-.36-1.29-.63-1.8,1.29,.06,2.49,.04,2.87,.04,.36-.02,.49-.13,.49-.48v-14.82h1.77Z"/><path class="g" d="M126.62,69.34l2.2,.08c-.09,.49-.25,1.5-.4,2.75l.06-.02,.63,.8c-.23,.34-.59,.89-.89,1.37-.02,.27-.04,.53-.08,.82,1.5-1.35,3.84-3.06,5.72-3.06s2.79,1.1,2.79,2.68c0,1.92-.68,4.98-.68,6.93,0,.57,.29,1.03,.87,1.03,.82,0,1.77-.53,2.7-1.48l.29,2.07c-.97,.93-2.13,1.52-3.53,1.52-1.33,0-2.22-.91-2.22-2.6,0-2.09,.7-5.07,.7-6.86,0-1.04-.53-1.5-1.44-1.5-1.48,0-3.67,1.79-5.32,3.57-.04,.68-.06,1.35-.06,1.94,0,1.65-.02,3,.09,4.73,.02,.34,.06,.89,.09,1.29h-2.05c.04-.4,.06-.95,.06-1.25,.02-1.79,.02-2.87,.08-4.98-.89,1.31-2.01,2.95-2.81,4.05l-1.18-1.65c1.04-1.33,3.12-4.07,4.14-5.6,.04-.55,.08-1.1,.11-1.65-.89,.11-2.47,.32-3.61,.48l-.19-1.94c.47,.02,.87,.02,1.42-.02,.59-.04,1.58-.15,2.49-.29,.06-.82,.1-1.44,.1-1.65,0-.49,0-1.03-.08-1.54Z"/><path class="g" d="M151.97,85.27l-1.12-1.79c.65-.06,1.21-.15,1.69-.27,2.43-.55,4.6-2.34,4.6-5.39,0-2.75-1.67-4.94-4.6-5.3-.27,1.71-.59,3.55-1.14,5.34-1.14,3.88-2.72,6.02-4.6,6.02s-3.61-2.09-3.61-5.26c0-4.26,3.72-7.9,8.49-7.9s7.45,3.19,7.45,7.16-2.55,6.72-7.16,7.39Zm-5.11-3.65c.86,0,1.75-1.23,2.62-4.16,.47-1.5,.82-3.23,1.04-4.9-3.42,.55-5.41,3.51-5.41,5.87,0,2.18,.93,3.19,1.75,3.19Z"/><path class="g" d="M167.28,74.64c-1.04,.74-2.17,1.42-3.31,1.98-.19-.4-.67-1.06-1.04-1.44,3.25-1.48,6.35-4.22,7.77-6.54h1.82c2.01,2.79,5.17,5.11,8.13,6.27-.42,.44-.82,1.06-1.12,1.6-1.1-.53-2.26-1.2-3.36-1.98v1.48h-8.89v-1.37Zm-3.27,3.34h15.6v1.65h-8.7c-.63,1.27-1.33,2.7-2.01,3.91,2.11-.08,4.46-.17,6.78-.27-.7-.8-1.46-1.6-2.2-2.26l1.52-.82c1.73,1.46,3.53,3.48,4.41,4.88l-1.61,1.01c-.21-.36-.49-.78-.84-1.24-4.52,.23-9.35,.44-12.58,.57l-.23-1.73,2.81-.1c.63-1.18,1.31-2.7,1.77-3.97h-4.71v-1.65Zm11.95-3.61c-1.71-1.22-3.27-2.64-4.27-4.03-.91,1.33-2.36,2.75-4.05,4.03h8.32Z"/><path class="g" d="M193.08,85.27l-1.12-1.79c.65-.06,1.22-.15,1.69-.27,2.43-.55,4.6-2.34,4.6-5.39,0-2.75-1.67-4.94-4.6-5.3-.27,1.71-.59,3.55-1.14,5.34-1.14,3.88-2.72,6.02-4.6,6.02s-3.61-2.09-3.61-5.26c0-4.26,3.72-7.9,8.49-7.9s7.45,3.19,7.45,7.16-2.55,6.72-7.16,7.39Zm-5.11-3.65c.86,0,1.75-1.23,2.62-4.16,.47-1.5,.82-3.23,1.04-4.9-3.42,.55-5.41,3.51-5.41,5.87,0,2.18,.93,3.19,1.75,3.19Z"/><path class="g" d="M221.33,71.5v1.61h-16.93v-1.61h4.35c-.32-.68-.99-1.63-1.58-2.34l1.65-.57c.7,.76,1.5,1.82,1.82,2.55l-.97,.36h5.47c.63-.89,1.29-2.07,1.67-2.96l1.92,.59c-.51,.82-1.04,1.65-1.58,2.38h4.16Zm-8.7,12.69c0,.82-.17,1.25-.72,1.5-.57,.29-1.42,.3-2.62,.3-.11-.44-.36-1.12-.59-1.52,.84,.04,1.67,.04,1.9,.02,.27-.02,.34-.1,.34-.34v-2.15h-3.76v3.95h-1.65v-11.32h7.1v9.56Zm-5.45-8.05v1.56h3.76v-1.56h-3.76Zm3.76,4.52v-1.61h-3.76v1.61h3.76Zm5.34,1.88h-1.63v-7.73h1.63v7.73Zm2.15-8.26h1.75v9.73c0,.93-.21,1.41-.85,1.67-.63,.29-1.62,.34-3.04,.32-.08-.47-.38-1.23-.63-1.67,1.06,.04,2.09,.04,2.38,.02,.3-.02,.4-.09,.4-.36v-9.71Z"/><path class="g" d="M228.95,71.6c-.32,1.56-.93,5.13-.93,7.16,0,.67,.04,1.33,.11,2.03,.32-.78,.7-1.71,1.01-2.41l.95,.76c-.49,1.44-1.16,3.48-1.35,4.43-.06,.27-.11,.67-.09,.87,0,.19,.02,.48,.04,.7l-1.73,.11c-.38-1.33-.7-3.57-.7-6.14,0-2.83,.61-6.06,.82-7.58,.08-.48,.15-1.06,.17-1.58l2.11,.19c-.13,.34-.32,1.1-.4,1.44Zm4.54,9.52c0,.85,.67,1.56,2.96,1.56,1.71,0,3.13-.15,4.73-.51l.04,2.03c-1.2,.23-2.77,.38-4.81,.38-3.23,0-4.71-1.12-4.71-2.96,0-.68,.09-1.41,.32-2.34l1.71,.15c-.17,.67-.25,1.18-.25,1.69Zm7.14-9.59v1.94c-2.17,.21-5.76,.23-7.96,0l-.02-1.94c2.18,.34,6,.27,7.98,0Z"/><path class="g" d="M251.89,73.29c-.59,.97-1.29,1.96-2.07,2.91v9.9h-1.77v-7.94c-.63,.63-1.27,1.22-1.88,1.71-.23-.38-.86-1.16-1.22-1.5,1.94-1.39,3.99-3.55,5.26-5.7l1.67,.63Zm-.72-3.99c-1.29,1.69-3.27,3.57-5.02,4.81-.21-.4-.68-1.08-1.01-1.42,1.58-1.03,3.4-2.72,4.33-4.08l1.69,.7Zm11.4,7.29h-2.74v7.31c0,1.01-.23,1.52-.95,1.8-.7,.27-1.82,.28-3.59,.28-.08-.51-.32-1.25-.57-1.77,1.22,.04,2.49,.04,2.83,.02,.36,0,.48-.1,.48-.36v-7.29h-6v-1.69h10.54v1.69Zm-.53-5.19h-9.21v-1.69h9.21v1.69Z"/><path class="g" d="M274.29,75.74c-2.17,0-4.03,.65-5.09,.95-.57,.17-1.2,.42-1.69,.61l-.59-2.17c.57-.06,1.29-.17,1.88-.3,1.37-.32,3.51-.89,5.72-.89,2.83,0,4.88,1.6,4.88,4.43,0,4.08-3.72,6.5-8.81,7.24l-1.08-1.84c4.65-.57,7.83-2.26,7.83-5.47,0-1.46-1.16-2.54-3.04-2.54Zm3.55-5.4l-.3,1.84c-2.15-.13-6.1-.51-8.26-.89l.29-1.82c2.15,.48,6.36,.86,8.28,.87Z"/><path class="g" d="M283.77,81.51l1.56-1.37c1.35,1.1,3.12,2.89,4.2,4.2l-1.62,1.37c-1.2-1.46-2.81-3.08-4.14-4.2Z"/><path class="g" d="M302.85,79.27c-.91,0-1.54-.08-1.96-.3-1.5,.67-3.1,1.22-4.69,1.65-.19-.38-.68-1.1-1.01-1.44,1.73-.4,3.44-.93,5-1.6v-3.8h1.6v3.06c2.18-1.1,4.05-2.53,5.3-4.24l1.52,.68c-1.39,1.86-3.31,3.36-5.47,4.58h3.15c.82,0,.95-.23,1.03-1.65,.36,.25,1.01,.46,1.44,.55-.19,2.01-.67,2.51-2.3,2.51h-3.61Zm-3.53-4.71c-.49,1.39-1.23,2.81-2.56,3.65l-1.37-.91c1.22-.76,2.05-2.01,2.47-3.29l1.46,.55Zm-1.63-.63h-1.73v-3.8h7.05v-1.52h1.8v1.52h7.18v3.8h-1.8v-2.2h-12.5v2.2Zm11.13,6.59h1.77v5.49h-1.77v-.74h-9.58v.78h-1.75v-5.53h1.75v3.12h3.78v-4.12h1.79v4.12h4.01v-3.12Zm-4.54-5.76c-.7-.63-2.09-1.46-3.25-1.98l.85-1.01c1.14,.46,2.58,1.21,3.31,1.84l-.91,1.14Zm5.15-.65c1.22,1.01,2.64,2.47,3.27,3.5l-1.35,.95c-.59-1.01-1.98-2.53-3.19-3.59l1.27-.86Z"/><path class="g" d="M333.4,82.54h-4.46v3.51h-1.79v-3.51h-4.69c-.3,1.46-1.37,2.81-4.81,3.59-.21-.38-.72-1.03-1.04-1.33,2.68-.55,3.72-1.37,4.08-2.26h-4.41v-1.5h4.62v-1.41h1.65v1.41h4.6v-1.41h1.79v1.41h4.46v1.5Zm-8.3-7.41c-.97,2.51-3.42,4.24-7.52,5.11-.17-.36-.57-.89-.87-1.2,1.48-.27,2.74-.65,3.74-1.12-.46-.38-1.12-.84-1.73-1.22-.46,.25-.91,.47-1.37,.67-.21-.29-.7-.86-1.03-1.1,1.44-.51,2.89-1.27,3.91-2.22h-3.29v-1.37h15.94v1.37h-5.72v1.56c1.48-.32,2.98-.74,3.89-1.16l1.23,.99c-1.41,.59-3.38,1.03-5.13,1.33v.76c0,.51,.13,.61,.99,.61h2.83c.65,0,.76-.19,.84-1.35,.32,.25,.95,.46,1.41,.57-.19,1.69-.63,2.13-2.07,2.13h-3.15c-1.94,0-2.43-.42-2.43-1.96v-3.48h-3.51c-.21,.25-.42,.49-.65,.72h2.41l.29-.06,.99,.42Zm-4.29-3.97h-4.29v-1.41h4.29v-1.16h1.75v1.16h4.54v-1.16h1.77v1.16h4.43v1.41h-4.43v1.16h-1.77v-1.16h-4.54v1.16h-1.75v-1.16Zm-.7,4.69l-.29,.21c.63,.36,1.33,.82,1.81,1.2,.63-.42,1.12-.89,1.46-1.41h-2.98Z"/><path class="g" d="M340.94,71.6c-.32,1.56-.93,5.13-.93,7.16,0,.67,.04,1.33,.11,2.03,.32-.78,.7-1.71,1.01-2.41l.95,.76c-.49,1.44-1.16,3.48-1.35,4.43-.06,.27-.11,.67-.09,.87,0,.19,.02,.48,.04,.7l-1.73,.11c-.38-1.33-.7-3.57-.7-6.14,0-2.83,.61-6.06,.82-7.58,.08-.48,.15-1.06,.17-1.58l2.11,.19c-.13,.34-.32,1.1-.4,1.44Zm4.54,9.52c0,.85,.67,1.56,2.96,1.56,1.71,0,3.13-.15,4.73-.51l.04,2.03c-1.2,.23-2.77,.38-4.81,.38-3.23,0-4.71-1.12-4.71-2.96,0-.68,.09-1.41,.32-2.34l1.71,.15c-.17,.67-.25,1.18-.25,1.69Zm7.14-9.59v1.94c-2.17,.21-5.76,.23-7.96,0l-.02-1.94c2.18,.34,6,.27,7.98,0Z"/><path class="g" d="M359.31,73.86c1.54-.47,5.32-1.84,8.11-1.84,3.27,0,5.85,1.88,5.85,5.21,0,4.45-4.35,6.9-10.56,7.22l-.85-1.98c5.03-.13,9.31-1.63,9.31-5.26,0-1.92-1.37-3.4-3.82-3.4-2.98,0-7.66,2.01-9.38,2.74l-.86-2.13c.68-.11,1.48-.34,2.2-.55Z"/><path class="g" d="M380.22,73.21c-.02,1.2,0,2.79,.13,4.27,.29,2.98,1.06,5,2.34,5,.95,0,1.79-2.07,2.22-3.8l1.5,1.77c-1.2,3.25-2.37,4.37-3.76,4.37-1.92,0-3.69-1.82-4.2-6.82-.19-1.67-.21-3.95-.21-5.09,0-.47-.04-1.27-.15-1.79l2.32,.04c-.09,.55-.19,1.54-.19,2.05Zm13.32,8.06l-1.96,.76c-.32-3.27-1.41-7.49-3.33-9.76l1.88-.63c1.75,2.2,3.15,6.55,3.4,9.63Z"/><path class="g" d="M397.94,71.63c1.39-.13,4.77-.46,8.26-.74,2.03-.17,3.93-.29,5.24-.34v1.92c-1.04,0-2.7,.02-3.69,.29-2.53,.76-4.22,3.46-4.22,5.72,0,3.46,3.23,4.62,6.38,4.75l-.7,2.01c-3.72-.17-7.62-2.17-7.62-6.36,0-2.85,1.69-5.17,3.23-6.17-1.92,.21-6.34,.67-8.45,1.12l-.21-2.09c.74-.02,1.41-.06,1.77-.09Z"/><path class="g" d="M422.13,70.99c-.06,.42-.13,1.01-.23,1.73,1.41,0,2.68-.1,3.69-.25l-.06,1.79c-1.18,.11-2.26,.19-3.82,.19h-.04c-.13,.99-.27,2.07-.38,3.06h.27c1.24,0,2.6-.06,3.89-.23l-.06,1.79c-1.16,.11-2.32,.19-3.55,.19h-.72c-.06,.66-.09,1.25-.09,1.65,0,1.73,1.01,2.74,3.04,2.74,2.77,0,4.45-1.23,4.45-3.02,0-1.29-.68-2.62-2.01-3.8l2.11-.44c1.27,1.5,1.9,2.83,1.9,4.46,0,2.85-2.55,4.71-6.48,4.71-2.75,0-4.86-1.2-4.86-4.35,0-.49,.06-1.22,.13-2.07-1.39-.11-2.72-.34-3.8-.65l.09-1.82c1.23,.44,2.6,.65,3.89,.76,.13-1.01,.27-2.07,.4-3.08-1.37-.11-2.79-.36-3.95-.67l.09-1.75c1.16,.38,2.64,.61,4.05,.72,.09-.68,.15-1.29,.19-1.79,.06-.76,.06-1.12,.02-1.5l2.13,.11c-.13,.59-.21,1.04-.29,1.5Z"/><path class="g" d="M440.12,74.03c-.68,4.77-2.36,8.51-4.5,10.51-.28-.4-.93-1.08-1.31-1.33,1.82-1.62,3.21-4.45,3.88-7.9h-3.27v-1.6h3.8l.34-.08,1.06,.4Zm3.93,6.99h3.7v1.48h-3.7v1.54c0,1.01-.25,1.48-.95,1.75-.7,.27-1.82,.3-3.42,.3-.09-.48-.4-1.22-.65-1.69,1.2,.06,2.43,.06,2.79,.04,.34-.02,.46-.11,.46-.44v-1.5h-3.57v-1.48h3.57v-1.62h-2.56v-1.42h2.56v-1.54h-2.15v-1.44h2.15v-2.18h1.12c.86-.44,1.73-.99,2.45-1.56h-8.55v-1.62h10.37l.4-.09,1.2,.89c-1.35,1.37-3.31,2.77-5.22,3.69v.87h2.36v1.44h-2.36v1.54h2.7v1.42h-2.7v1.62Zm7.86-6.36c-.91,1.04-2.01,2.28-2.94,3.19,.72,2.2,1.77,4.07,3.21,5.21-.42,.32-1.03,1.01-1.31,1.52-2.56-2.28-3.84-6.38-4.54-11.15l1.58-.27c.15,1.03,.34,2.03,.57,3,.74-.86,1.52-1.82,2.01-2.6l1.42,1.1Z"/><path class="g" d="M459.29,74.14c.84-1.73,2.66-3.76,4.96-3.76,2.58,0,4.5,2.55,4.5,6.63,0,5.3-3.31,7.73-8.15,8.62l-1.14-1.73c4.16-.65,7.28-2.19,7.28-6.9,0-2.96-1.01-4.9-2.81-4.9-2.32,0-4.43,3.42-4.6,5.93-.06,.63-.06,1.27,.08,2.18l-1.86,.13c-.1-.72-.21-1.82-.21-3.08,0-1.79,.3-4.39,.55-6.12,.09-.65,.13-1.27,.15-1.8l2.07,.09c-.32,1.2-.7,3.5-.82,4.69Z"/><path class="g" d="M482.81,70.65c-.02,.23-.02,.59-.04,1.01,1.63-.08,3.31-.25,5-.53v1.75c-1.41,.17-3.17,.34-5.01,.42v2.36c1.88-.08,3.55-.25,5.21-.47l-.02,1.77c-1.75,.21-3.32,.34-5.15,.42,.04,.87,.1,1.79,.13,2.64,2.47,.68,4.35,2.01,5.45,2.91l-1.1,1.69c-1.08-.99-2.53-2.07-4.25-2.77,.02,.4,.04,.72,.04,.99,0,1.44-1.04,2.75-3.53,2.75-2.85,0-4.39-1.06-4.39-2.96s1.69-3.06,4.52-3.06c.49,0,.95,.04,1.41,.08-.02-.74-.06-1.52-.08-2.22h-1.04c-1.22,0-3.32-.09-4.63-.25l-.02-1.79c1.29,.21,3.53,.34,4.69,.34h.97v-2.34h-.78c-1.25,0-3.53-.19-4.77-.34l-.02-1.73c1.27,.23,3.55,.42,4.77,.42h.82v-1.16c0-.32-.02-.89-.09-1.2h2.03c-.04,.34-.08,.76-.09,1.29Zm-3.53,13.22c1.06,0,1.88-.32,1.88-1.54,0-.27,0-.65-.02-1.06-.55-.11-1.14-.17-1.73-.17-1.62,0-2.49,.63-2.49,1.39,0,.82,.72,1.39,2.36,1.39Z"/><path class="g" d="M502.78,70.78c-.02,.23-.02,.57-.02,.95h5.7l-.04,1.79c-1.12-.06-2.92-.1-5.68-.1,.02,1.03,.02,2.13,.02,2.98,.44,.68,.67,1.56,.67,2.53,0,2.53-1.35,5.51-5.85,6.82l-1.62-1.6c2.24-.49,3.99-1.33,4.9-2.79-.38,.19-.84,.29-1.33,.29-1.54,0-3.19-1.14-3.19-3.31,0-2,1.62-3.42,3.53-3.42,.38,0,.74,.04,1.06,.13,0-.49-.02-1.06-.02-1.61-2.89,.04-6,.15-8.36,.3l-.06-1.82c2.15-.04,5.68-.13,8.4-.17-.02-.42-.02-.74-.04-.97-.06-.61-.11-1.2-.15-1.39h2.19c-.06,.25-.11,1.12-.11,1.39Zm-2.93,9.21c.99,0,1.73-.78,1.48-2.56-.3-.63-.85-.91-1.48-.91-.87,0-1.73,.65-1.73,1.79,0,1.04,.82,1.69,1.73,1.69Z"/></g><rect class="g" x="535" y="58" width="159" height="37"/><g><path class="e" d="M561.22,73.55h-5.73v-1.11h5.73v1.11Zm-.54,9.36h-3.31v.63h-1.2v-5.04h4.51v4.41Zm-4.48-8.43h4.5v1.08h-4.5v-1.08Zm0,1.99h4.5v1.1h-4.5v-1.1Zm4.45-4.92h-4.39v-1.1h4.39v1.1Zm-3.28,8.07v2.16h2.1v-2.16h-2.1Zm11.95,.54h-3.42v3.55h-1.37v-3.55h-3.48v-1.28h3.48v-1.86h-2.71v-1.26h2.71v-1.73h-3v-1.26h1.56c-.2-.69-.58-1.62-1-2.34l1.12-.41c.48,.78,.96,1.8,1.12,2.49l-.63,.25h3.01l-.63-.22c.36-.71,.85-1.83,1.08-2.62l1.38,.4c-.44,.86-.89,1.79-1.28,2.45h1.82v1.26h-3.2v1.73h2.87v1.26h-2.87v1.86h3.42v1.28Z"/><path class="e" d="M575.37,72.5c-.08,1.67-.18,5.13-.18,7.2,0,1.59,.98,2.13,2.28,2.13,2.62,0,4.2-1.49,5.28-3.09l1.06,1.3c-.99,1.42-3.01,3.36-6.38,3.36-2.28,0-3.81-.97-3.81-3.46,0-2.13,.15-6,.15-7.44,0-.63-.06-1.25-.17-1.74h1.92c-.09,.57-.15,1.2-.16,1.74Z"/><path class="e" d="M593.1,72.53c-1,.84-3.08,2.47-4.14,3.38-.86,.73-.86,.93,.03,1.69,1.27,1.05,4,3.23,5.56,4.79l-1.37,1.25c-.36-.41-.75-.83-1.14-1.21-1-1.02-3.24-2.94-4.63-4.11-1.46-1.21-1.3-1.93,.12-3.12,1.15-.96,3.33-2.7,4.35-3.71,.34-.36,.78-.81,.97-1.12l1.4,1.25c-.38,.28-.86,.69-1.16,.93Z"/><path class="e" d="M601.08,72.2c-.25,1.21-.74,4.33-.74,5.94,0,.54,.03,1.05,.12,1.61,.21-.62,.54-1.37,.78-1.92l.75,.58c-.41,1.14-.92,2.67-1.08,3.43-.04,.21-.08,.51-.08,.69,.01,.15,.03,.38,.04,.55l-1.33,.1c-.31-1.06-.58-2.73-.58-4.77,0-2.22,.48-5.08,.66-6.28,.04-.38,.1-.86,.12-1.25l1.63,.15c-.09,.27-.24,.89-.3,1.16Zm7.57-.36c-.01,.38-.03,1.02-.04,1.71,.88-.07,1.73-.19,2.49-.34v1.46c-.78,.12-1.62,.22-2.49,.29,.02,1.5,.12,2.85,.17,4,1.25,.5,2.21,1.26,2.96,1.93l-.81,1.26c-.71-.66-1.4-1.23-2.08-1.67v.08c0,1.38-.66,2.57-2.75,2.57s-3.21-.84-3.21-2.28,1.18-2.4,3.19-2.4c.42,0,.83,.03,1.22,.09-.06-1.05-.12-2.34-.15-3.51-.42,.01-.84,.03-1.26,.03-.87,0-1.7-.04-2.57-.1v-1.41c.84,.09,1.68,.13,2.58,.13,.42,0,.83-.01,1.25-.03v-1.77c0-.25-.04-.67-.09-.96h1.69c-.04,.3-.07,.63-.09,.93Zm-2.76,9.88c1.11,0,1.46-.57,1.46-1.51v-.41c-.45-.13-.92-.21-1.39-.21-1.01,0-1.71,.44-1.71,1.08,0,.71,.69,1.05,1.65,1.05Z"/><path class="e" d="M616.84,79.66c0,1.06,1.05,1.81,3.34,1.81,2.06,0,3.98-.22,5.19-.6v1.65c-1.16,.32-3.01,.53-5.13,.53-3.22,0-4.96-1.07-4.96-3.03,0-.81,.17-1.53,.3-2.11l1.54,.13c-.18,.57-.29,1.09-.29,1.62Zm3.41-7.61c1.46,0,3.08-.1,4.18-.21v1.56c-1.04,.08-2.77,.18-4.17,.18-1.53,0-2.83-.08-4.03-.17v-1.56c1.09,.13,2.49,.19,4.02,.19Z"/><path class="e" d="M633.97,72.1c-.03,.19-.08,.42-.13,.67,1.75-.08,3.9-.3,5.73-.71l.03,1.44c-1.68,.29-4.08,.54-6.04,.63-.24,1.11-.54,2.33-.83,3.14,1.28-.81,2.54-1.12,4-1.12,2.4,0,3.9,1.24,3.9,3.07,0,3.22-3.23,4.41-7.92,3.92l-.41-1.51c3.41,.5,6.75-.02,6.75-2.37,0-1.02-.86-1.83-2.49-1.83-1.75,0-3.36,.62-4.32,1.79-.17,.21-.3,.42-.44,.67l-1.41-.5c.75-1.46,1.35-3.54,1.72-5.22-.99-.01-1.92-.06-2.75-.13v-1.47c.86,.15,2.04,.25,2.96,.25h.08c.04-.32,.09-.6,.12-.83,.07-.54,.1-.92,.07-1.35l1.68,.07c-.14,.45-.21,.95-.32,1.38Z"/><path class="e" d="M646.2,77.42c1.4-1.14,2.99-1.67,4.68-1.67,2.44,0,3.97,1.49,3.97,3.27,0,2.7-2.28,4.65-8.14,4.15l-.45-1.54c4.63,.58,6.97-.66,6.97-2.64,0-1.11-1.04-1.91-2.47-1.91-1.85,0-3.44,.71-4.42,1.91-.25,.29-.39,.54-.51,.79l-1.38-.33c.3-1.41,.66-4.47,.77-6.17l1.59,.21c-.21,.95-.46,3-.6,3.92Zm6.63-5.61l-.34,1.46c-1.47-.2-4.77-.89-5.92-1.19l.38-1.42c1.35,.42,4.58,1.02,5.89,1.16Z"/></g><path id="d" class="e" d="M681.78,76.77l-5.63,5.63-1.68-1.68,3.95-3.95-3.95-3.95,1.68-1.68,5.63,5.63Z"/></g></g></g></svg>