<?xml version="1.0" encoding="UTF-8"?><svg id="_イヤー_2" xmlns="http://www.w3.org/2000/svg" viewBox="0 0 243.78 67.32"><g id="main"><g><path id="_方形_2503" d="M5.29,0H238.49c2.92,0,5.29,1.92,5.29,4.28V63.04c0,2.36-2.37,4.28-5.29,4.28H5.29c-2.92,0-5.29-1.92-5.29-4.28V4.28C0,1.92,2.37,0,5.29,0Z" fill="#802727"/><path d="M78.71,17.96c0,.5,.01,.77,.05,1.09h-1.3c.05-.32,.06-.61,.06-1.11v-2.69c-.42,.39-.64,.56-1.19,.91-.13-.41-.32-.79-.55-1.11,.75-.43,1.26-.83,1.84-1.45,.5-.52,.81-.96,1.17-1.65h-1.75c-.39,0-.61,.01-.9,.04v-1.19c.27,.03,.49,.04,.85,.04h.54v-.9c0-.28-.02-.57-.06-.81h1.3c-.04,.25-.06,.48-.06,.84v.88h.44c.33,0,.48-.01,.62-.03l.51,.56c-.1,.16-.16,.27-.24,.45-.35,.77-.56,1.12-1.07,1.83,.5,.57,1,.95,1.7,1.36-.26,.34-.42,.64-.59,1.05-.56-.36-.92-.67-1.38-1.21v3.11Zm4.54-.5h1.29c.54,0,.89-.02,1.22-.06v1.3c-.38-.05-.79-.07-1.22-.07h-3.66c-.43,0-.84,.02-1.21,.07v-1.3c.34,.04,.72,.06,1.23,.06h1.17v-4.19h-.8c-.36,0-.71,.02-1.05,.05v-1.21c.31,.04,.59,.05,1.05,.05h.8v-1.89c0-.44-.02-.7-.08-1.11h1.34c-.06,.43-.07,.65-.07,1.11v1.89h1.14c.48,0,.75-.01,1.05-.05v1.21c-.34-.03-.67-.05-1.05-.05h-1.14v4.19Z" fill="#fff"/><path d="M92.98,13.27s-.01,.02-.06,.09t-.17,.21c-.39,.51-1.05,1.07-1.68,1.44-.8,.46-1.64,.77-2.74,1-.13-.35-.23-.5-.54-.87,.87-.12,1.36-.25,2-.51-.29-.27-.45-.41-.74-.6-.23,.1-.38,.16-.78,.31-.18-.4-.32-.59-.57-.83,.74-.21,.94-.28,1.31-.47,.44-.2,.7-.41,.93-.67h-.84c-.49,0-.76,.01-1.07,.05v-.99c.27,.04,.58,.05,1.07,.05h7.08c.48,0,.79-.01,1.07-.05v.99c-.31-.04-.6-.05-1.07-.05h-1.97v.87c1.14-.21,1.82-.45,2.31-.79l.77,.82c-.93,.4-1.91,.66-3.08,.85v.31c0,.24,.09,.26,1.18,.26,.63,0,.87-.04,.96-.2,.06-.11,.11-.36,.11-.77,.36,.14,.63,.19,1.09,.24-.08,1.03-.2,1.34-.57,1.48-.29,.11-.79,.14-2.14,.14v.63h1.31c.59,0,1-.02,1.29-.06v1.09c-.38-.04-.77-.06-1.29-.06h-1.31v.97c0,.38,.01,.66,.06,.96h-1.27c.04-.26,.06-.55,.06-.96v-.97h-1.84c-.4,1.09-1.2,1.63-2.99,1.97-.25-.45-.39-.64-.72-.96,1.4-.13,2.08-.41,2.52-1.01h-1.59c-.48,0-.85,.02-1.2,.06v-1.08c.31,.04,.66,.05,1.2,.05h1.83c.01-.12,.01-.18,.01-.25,0-.19-.01-.3-.03-.52h1.2c-.01,.1-.02,.18-.03,.42-.01,.17-.01,.22-.02,.35h1.66v-.72c-.43-.1-.57-.26-.57-.69v-2.42h-1.89c-.13,.16-.17,.21-.3,.36h.86c.27,0,.47-.01,.67-.03l.5,.59Zm-2.68-3.53c0-.25-.01-.41-.04-.58h1.23c-.03,.18-.04,.34-.04,.58v.06h2.23v-.06c0-.23-.01-.4-.04-.58h1.23c-.03,.17-.04,.32-.04,.58v.06h1.48c.5,0,.83-.02,1.15-.06v1.05c-.32-.04-.64-.05-1.15-.05h-1.48c0,.24,.01,.38,.04,.55h-1.22c.02-.16,.03-.29,.03-.55h-2.23c0,.3,.01,.38,.03,.55h-1.22c.03-.17,.04-.28,.04-.55h-1.33c-.5,0-.79,.01-1.15,.05v-1.05c.34,.04,.66,.06,1.15,.06h1.33v-.06Zm-.26,3.74c-.08,.05-.1,.06-.16,.11,.25,.15,.57,.4,.78,.59,.41-.25,.6-.4,.87-.7h-1.49Z" fill="#fff"/><path d="M102.31,14.5c-.68,.57-.98,1.02-.98,1.48,0,.7,.78,1,2.59,1,1.27,0,2.68-.19,3.36-.46l.12,1.47c-.19,0-.23,0-.47,.04-1.29,.19-1.97,.25-2.89,.25-1.17,0-2.11-.12-2.68-.35-.92-.36-1.37-.95-1.37-1.79s.42-1.53,1.38-2.33l.93,.71Zm-1.63-4.4c.82,.19,1.78,.27,3.21,.27,1.36,0,2.12-.05,2.83-.2l.04,1.21c-.64,.28-1.96,1.1-2.86,1.77l-.93-.74c.67-.43,.79-.5,1.06-.65,.11-.06,.14-.09,.28-.17,.09-.04,.1-.04,.24-.13-.47,.06-.93,.08-1.61,.08-.55,0-1.44-.05-1.96-.13-.13-.01-.2-.02-.25-.02-.02,0-.08-.01-.15-.01l.1-1.27Zm5.66,2.38c.47,.5,.76,.91,1.12,1.57l-.75,.4c-.35-.65-.65-1.08-1.12-1.6l.75-.38Zm1.66,1.3c-.32-.59-.67-1.09-1.09-1.55l.72-.38c.48,.49,.78,.9,1.11,1.51l-.74,.42Z" fill="#fff"/><path d="M113.05,12.15c.33,.8,.72,1.37,1.44,2.07-.05,.08-.1,.16-.13,.2-.22,.35-.26,.43-.43,.91-.47-.63-.7-1.02-1.02-1.8,.03,.62,.04,.88,.04,1.47v2.75c0,.54,.02,1,.06,1.32h-1.26c.04-.34,.06-.77,.06-1.32v-2.21c0-.47,.03-1.23,.08-1.61-.24,.75-.36,1.08-.64,1.63-.25,.51-.44,.83-.63,1.09-.18-.51-.33-.81-.59-1.17,.7-.84,1.29-2.02,1.64-3.34h-.52c-.34,0-.56,.01-.78,.04v-1.15c.19,.04,.43,.05,.79,.05h.66v-.87c0-.57-.02-.81-.06-1.11h1.26c-.04,.28-.06,.61-.06,1.1v.88h.61c.28,0,.49-.01,.69-.05v1.13c-.25-.02-.43-.03-.67-.03h-.52Zm1.47,6.88c.03-.4,.05-.85,.05-1.37v-7.02c0-.36-.01-.62-.04-1.14,.29,.02,.49,.03,.95,.03h3.21c.46,0,.7-.01,.92-.04-.02,.31-.03,.6-.03,1.09v7.06c0,.57,.02,1.03,.05,1.36h-1.22v-.61h-2.69v.63h-1.21Zm1.21-6.88h2.69v-1.52h-2.69v1.52Zm0,2.53h2.69v-1.51h-2.69v1.51Zm0,2.65h2.69v-1.63h-2.69v1.63Z" fill="#fff"/><path d="M121.98,10.93c.26,.04,.46,.05,.86,.05h2.1c.44,0,.6-.01,.86-.04v1.1c-.22-.03-.38-.04-.81-.04h-2.14c-.37,0-.6,.01-.86,.04v-1.11Zm7.32,2.6c-.03,.19-.04,.37-.04,.6,0,1.06,.24,1.83,.74,2.44,.5,.61,1.17,1.07,2.04,1.4-.29,.4-.4,.6-.61,1.13-1.27-.63-2.13-1.49-2.67-2.66-.45,1.29-1.23,2.07-2.71,2.68-.16-.39-.32-.71-.51-.97,.01,.39,.02,.5,.04,.74h-1.07v-.44h-1.06v.56h-1.1c.03-.33,.05-.71,.05-1.05v-1.64c0-.32-.01-.55-.04-.83,.21,.03,.39,.04,.72,.04h1.84c.35,0,.46,0,.64-.03-.02,.19-.03,.38-.03,.77v1.8c.85-.29,1.36-.61,1.82-1.15,.56-.64,.79-1.48,.79-2.73,0-.3-.01-.46-.03-.66h1.2Zm-6.9-4.1c.25,.04,.44,.05,.87,.05h1.37c.43,0,.61-.01,.87-.05v1.03c-.29-.02-.48-.03-.87-.03h-1.37c-.39,0-.61,.01-.87,.03v-1.03Zm0,3.11c.2,.02,.34,.03,.67,.03h1.76c.34,0,.48-.01,.66-.03v1c-.19-.02-.35-.03-.66-.03h-1.76c-.33,0-.47,.01-.67,.03v-1Zm0,1.49c.2,.02,.34,.03,.67,.03h1.76c.34,0,.48-.01,.66-.03v1c-.18-.02-.35-.03-.67-.03h-1.75c-.32,0-.48,.01-.67,.03v-1Zm1.01,3.51h1.11v-1.14h-1.11v1.14Zm5.9-8.3c-.03,.21-.04,.41-.04,.61,0,.57,.11,1.2,.27,1.54,.2,.46,.52,.85,1.01,1.21,.37,.28,.69,.43,1.36,.66-.3,.43-.41,.61-.59,1.06-.8-.39-1.32-.75-1.82-1.31-.34-.39-.43-.51-.75-1.15-.18,.47-.42,.88-.74,1.24-.45,.5-.91,.81-1.78,1.21-.2-.43-.34-.65-.62-.96,1.04-.34,1.64-.76,2.08-1.47,.33-.54,.47-1.16,.47-2.06,0-.25-.01-.36-.03-.6h1.19Zm-1.81,5.46c-.28,.97-.42,1.32-.76,1.89l-1-.45c.37-.54,.57-1,.72-1.76l1.04,.32Zm.08-4.71c-.2,.83-.35,1.22-.71,1.85l-1.01-.41c.39-.61,.52-.96,.65-1.7l1.06,.26Zm4.15,.02c-.43,.83-.67,1.22-1.19,1.84-.35-.28-.52-.38-.91-.55,.52-.6,.74-.95,1.06-1.7l1.04,.41Zm-.02,4.68c-.41,.85-.61,1.19-1.1,1.81-.4-.31-.45-.34-.9-.56,.46-.56,.69-.95,.98-1.67l1.03,.42Z" fill="#fff"/><path d="M139.16,13.83c-.12,2.65-1.12,4.06-3.55,4.99-.26-.54-.44-.77-.88-1.19,2.1-.67,2.94-1.72,3.01-3.8h-2.6c-.84,0-1,.01-1.36,.05v-1.27c.37,.06,.59,.08,1.38,.08h6.27c.79,0,1.01-.01,1.38-.08v1.27c-.36-.04-.52-.05-1.36-.05h-2.29Zm1.62-2.62c-.33-.04-.48-.05-1.36-.05h-3.19c-.88,0-1.02,.01-1.36,.05v-1.31c.36,.06,.58,.08,1.38,.08h3.15c.81,0,1.03-.01,1.38-.08v1.31Zm.62-2c.41,.56,.65,.99,.95,1.69l-.8,.3c-.3-.72-.55-1.16-.94-1.71l.79-.28Zm1.53,1.52c-.25-.61-.56-1.16-.92-1.66l.77-.28c.43,.57,.69,1,.94,1.63l-.79,.31Z" fill="#fff"/><path d="M153.37,18.51c-.89-1.09-2.12-2.29-3.29-3.18-1.21,1.35-2.44,2.29-4.08,3.1-.3-.56-.43-.73-.87-1.19,.82-.32,1.34-.61,2.14-1.18,1.62-1.14,2.9-2.69,3.6-4.36l.12-.28q-.17,.01-3.55,.06c-.51,.01-.8,.03-1.17,.09l-.04-1.37c.3,.05,.5,.06,.94,.06h.26l3.77-.05c.6-.01,.69-.02,.95-.12l.71,.73c-.14,.16-.23,.31-.34,.58-.49,1.15-1.02,2.08-1.67,2.96,.67,.45,1.25,.9,1.98,1.55q.27,.24,1.56,1.49l-1.03,1.11Z" fill="#fff"/><path d="M164.75,11.3c-.11,.16-.15,.26-.27,.64-.49,1.63-1.25,3.07-2.2,4.13-.99,1.12-2.16,1.96-3.81,2.72-.3-.54-.44-.72-.91-1.12,1.07-.44,1.67-.76,2.35-1.26,1.53-1.14,2.54-2.6,3.13-4.52l-3.22,.05c-.65,1.04-1.49,1.96-2.51,2.74-.32-.44-.48-.58-1.04-.92,1.22-.84,1.99-1.69,2.77-3.11,.33-.61,.5-1.03,.55-1.41l1.47,.29q-.06,.1-.18,.33-.03,.05-.14,.3l-.14,.28q-.06,.15-.17,.34c.14-.01,.31-.02,.51-.02l2.35-.03c.42,0,.54-.02,.78-.11l.69,.67Z" fill="#fff"/><path d="M39.11,45.81c-1.03-1.06-1.54-2.55-1.54-4.45v-9.67c0-1.91,.52-3.4,1.55-4.46s2.54-1.59,4.52-1.59,3.5,.53,4.53,1.58,1.54,2.54,1.54,4.46v9.67c0,1.91-.52,3.4-1.55,4.46s-2.54,1.59-4.52,1.59-3.5-.53-4.53-1.6Zm6.86-2.07c.5-.55,.75-1.34,.75-2.38v-9.67c0-1.03-.25-1.83-.75-2.38-.5-.55-1.28-.83-2.34-.83s-1.84,.28-2.34,.83c-.5,.55-.75,1.34-.75,2.38v9.67c0,1.03,.25,1.83,.75,2.38,.5,.55,1.28,.83,2.33,.83s1.83-.28,2.33-.83Z" fill="#fff"/><path d="M59.24,47.19h-2.99V29.15l-3.03,1.86v-3.09l3.03-2.02h2.99v21.28Z" fill="#fff"/><path d="M63.75,44.59l7.42-9.89c.43-.57,.76-1.15,1-1.76,.24-.61,.36-1.18,.36-1.71v-.03c0-.85-.25-1.51-.75-1.98-.5-.47-1.21-.7-2.12-.7-.87,0-1.57,.26-2.11,.77-.54,.51-.86,1.24-.98,2.17h-3.09c.18-1.22,.53-2.26,1.08-3.12s1.24-1.52,2.1-1.98c.86-.45,1.85-.68,2.97-.68,1.27,0,2.35,.22,3.25,.65,.9,.43,1.58,1.07,2.05,1.9s.7,1.83,.7,3h0c0,.77-.16,1.55-.47,2.37-.31,.82-.75,1.61-1.3,2.37l-6.16,8.37h8.05v2.84h-12v-2.59Z" fill="#fff"/><path d="M81.1,45.81c-1.03-1.06-1.54-2.55-1.54-4.45v-9.67c0-1.91,.52-3.4,1.55-4.46s2.54-1.59,4.52-1.59,3.5,.53,4.53,1.58,1.54,2.54,1.54,4.46v9.67c0,1.91-.52,3.4-1.55,4.46s-2.54,1.59-4.52,1.59-3.5-.53-4.53-1.6Zm6.86-2.07c.5-.55,.75-1.34,.75-2.38v-9.67c0-1.03-.25-1.83-.75-2.38-.5-.55-1.28-.83-2.34-.83s-1.84,.28-2.34,.83c-.5,.55-.75,1.34-.75,2.38v9.67c0,1.03,.25,1.83,.75,2.38,.5,.55,1.28,.83,2.33,.83s1.83-.28,2.33-.83Z" fill="#fff"/><path d="M106.07,38.14v2.84h-9.84v-2.84h9.84Z" fill="#fff"/><path d="M110.17,41.33l7.14-15.41h3.07l-6.97,15.24h10.44v2.77h-13.68v-2.59Zm9.18-6.66h2.91v12.53h-2.91v-12.53Z" fill="#fff"/><path d="M138.51,28.57l-5.5,18.62h-3.18l5.5-18.44h-5.42v3.06h-2.99v-5.9h11.58v2.66Z" fill="#fff"/><path d="M144.15,45.81c-1.03-1.06-1.54-2.55-1.54-4.45v-9.67c0-1.91,.52-3.4,1.55-4.46s2.54-1.59,4.52-1.59,3.5,.53,4.53,1.58,1.54,2.54,1.54,4.46v9.67c0,1.91-.52,3.4-1.55,4.46s-2.54,1.59-4.52,1.59-3.5-.53-4.53-1.6Zm6.86-2.07c.5-.55,.75-1.34,.75-2.38v-9.67c0-1.03-.25-1.83-.75-2.38-.5-.55-1.28-.83-2.34-.83s-1.84,.28-2.34,.83c-.5,.55-.75,1.34-.75,2.38v9.67c0,1.03,.25,1.83,.75,2.38,.5,.55,1.28,.83,2.33,.83s1.83-.28,2.33-.83Z" fill="#fff"/><path d="M169.13,38.14v2.84h-9.84v-2.84h9.84Z" fill="#fff"/><path d="M173.22,41.33l7.14-15.41h3.07l-6.97,15.24h10.44v2.77h-13.68v-2.59Zm9.18-6.66h2.91v12.53h-2.91v-12.53Z" fill="#fff"/><path d="M201.56,28.57l-5.5,18.62h-3.18l5.5-18.44h-5.42v3.06h-2.99v-5.9h11.58v2.66Z" fill="#fff"/><path d="M207.2,45.81c-1.03-1.06-1.54-2.55-1.54-4.45v-9.67c0-1.91,.52-3.4,1.55-4.46s2.54-1.59,4.52-1.59,3.5,.53,4.53,1.58,1.54,2.54,1.54,4.46v9.67c0,1.91-.52,3.4-1.55,4.46s-2.54,1.59-4.52,1.59-3.5-.53-4.53-1.6Zm6.86-2.07c.5-.55,.75-1.34,.75-2.38v-9.67c0-1.03-.25-1.83-.75-2.38-.5-.55-1.28-.83-2.34-.83s-1.84,.28-2.34,.83c-.5,.55-.75,1.34-.75,2.38v9.67c0,1.03,.25,1.83,.75,2.38,.5,.55,1.28,.83,2.33,.83s1.83-.28,2.33-.83Z" fill="#fff"/><path id="_ス_597" d="M14.27,28.85c-1.49,1.17-1.52,4.45-.69,7.02,.86,2.58,2.15,4.99,3.82,7.14,1.69,2.11,3.72,3.94,5.99,5.41,2.31,1.45,5.48,2.2,6.99,1.01,.77-.68,1.4-1.49,1.87-2.4,0,0-.8-1.01-.97-1.25l-2.68-3.4c-.2-.26-1.27,.08-1.82,.45-.55,.48-.99,1.06-1.31,1.71-.5,.35-.95,.09-1.9-.25-1.15-.4-2.54-1.88-3.68-3.25-1.03-1.4-2.14-3.11-2.27-4.35-.11-1-.23-1.5,.22-1.9,.7-.15,1.37-.44,1.95-.86,.48-.42,1.06-1.38,.87-1.65l-2.65-3.43c-.18-.21-.97-1.25-.97-1.25-.99,.24-1.94,.67-2.78,1.25Z" fill="#fff"/><path id="_方形_2505" d="M230.31,0h9.19c2.36,0,4.28,1.92,4.28,4.28h0V63.04c0,2.36-1.92,4.28-4.28,4.28h-9.19V0h0Z" fill="#6e0f0f"/><path id="_ス_3817" d="M235.7,28.94l-1.11,1.11,3.6,3.6-3.6,3.6,1.11,1.11,4.72-4.72-4.72-4.72Z" fill="#fff"/><path d="M81.21,61.57c-.72,0-.87,0-1.2,.05,.06-.53,.12-.85,.24-1.19,.25-.68,.67-1.27,1.27-1.82,.32-.29,.6-.5,1.53-1.12,.85-.58,1.11-.89,1.11-1.36,0-.63-.49-1.02-1.28-1.02-.54,0-.95,.19-1.18,.55-.16,.22-.22,.43-.29,.85l-1.33-.16c.13-.71,.3-1.09,.64-1.48,.46-.54,1.2-.83,2.12-.83,1.62,0,2.63,.78,2.63,2.05,0,.61-.2,1.06-.66,1.48-.26,.24-.35,.31-1.56,1.14-.41,.29-.87,.68-1.1,.93-.28,.3-.39,.48-.53,.83h2.6c.58,0,1.05-.03,1.35-.07v1.22c-.44-.04-.81-.06-1.4-.06h-2.98Z" fill="#fff"/><path d="M92.97,59.92c-.34-.05-.54-.06-.93-.07h-.33v.66c0,.47,.02,.71,.07,1.06h-1.32c.06-.32,.07-.61,.07-1.08v-.64h-2.57c-.55,0-.84,0-1.16,.04v-1.14c.32-.34,.42-.46,.74-.85l2.2-2.69c.41-.49,.56-.69,.77-1.02h1.25c-.06,.54-.06,.86-.06,1.57v3.04h.32c.37,0,.59-.02,.94-.07v1.19Zm-2.42-3.03c0-.44,0-.73,.05-1.11-.19,.27-.3,.42-.63,.83l-1.78,2.21h2.37v-1.92Z" fill="#fff"/><path d="M94.4,55.09c0-.42,0-.66-.04-.94,.2,.02,.38,.03,.82,.03h1.12c.42,0,.58,0,.81-.03-.03,.21-.03,.38-.03,.92v5.31c0,.49,0,.7,.03,.93h-.95v-.46h-.84v.78h-.97c.04-.29,.06-.61,.06-1.1v-5.43Zm.93,1.91h.83v-1.94h-.83v1.94Zm0,2.94h.83v-2.09h-.83v2.09Zm3.19-4.39q-.77,.02-.99,.05v-.98c.26,.04,.56,.06,.96,.06h.82v-.25c0-.26-.02-.46-.06-.7h1.07c-.03,.21-.05,.41-.05,.7v.25h1.01c.4,0,.71-.02,.96-.06v.98c-.26-.04-.54-.05-.96-.05h-1.02v.88h1.28c.45,0,.78-.02,1.01-.05v.98c-.25-.04-.5-.05-.91-.05h-.16v.79h.12c.45,0,.7,0,.92-.05v1.01c-.27-.05-.5-.05-.92-.05h-.12v2.1c0,.54-.09,.76-.37,.89-.23,.1-.56,.15-1.02,.15q-.08,0-.72,0c-.02-.4-.08-.68-.22-.97,.23,.04,.71,.07,1.04,.07,.29,0,.34-.05,.34-.25v-1.98h-2.22c-.34,0-.7,.02-.99,.05v-1.01c.24,.04,.53,.05,1.01,.05h2.2v-.79h-2.2c-.39,0-.73,.02-1.02,.05v-.98c.23,.04,.58,.05,1.03,.05h.96v-.88h-.79Zm.36,5.61c-.37-.62-.72-1.07-1.19-1.52l.79-.52c.45,.41,.83,.83,1.22,1.42l-.82,.62Z" fill="#fff"/><path d="M105.12,61.05c0,.56,.02,.89,.06,1.14h-1.09c.04-.28,.06-.57,.06-1.15v-6.06c0-.48,0-.74-.04-1.04,.26,.03,.5,.04,.96,.04h1.64c.48,0,.7,0,.95-.04-.02,.3-.03,.5-.03,.86v1.42c0,.43,0,.64,.03,.84-.24-.02-.53-.03-.85-.03h-1.68v4.01Zm0-5.85h1.6v-.46h-1.6v.46Zm0,1.13h1.6v-.47h-1.6v.47Zm4.76,3.99c0,.35,0,.57,.03,.81,.2,.02,.54,.05,.71,.05,.26,0,.34-.07,.34-.25v-3.88h-1.83c-.32,0-.62,0-.85,.03,.02-.27,.03-.45,.03-.84v-1.42c0-.31,0-.57-.03-.86,.25,.03,.47,.04,.95,.04h1.78c.46,0,.7,0,.96-.04-.03,.33-.04,.57-.04,1.03v6.08c0,.56-.11,.8-.45,.94-.19,.08-.47,.11-1.05,.11-.13,0-.17,0-.64-.03-.06-.42-.1-.58-.24-.96-.27,0-.45,0-.52,0h-1.97v.52h-.98c.04-.22,.06-.59,.06-.93v-2.26c0-.33,0-.58-.03-.83,.27,.03,.48,.04,.86,.04h2.07c.39,0,.59,0,.86-.04-.02,.24-.03,.47-.03,.83v1.88Zm-2.82-1.35h1.89v-.56h-1.89v.56Zm0,1.35h1.89v-.6h-1.89v.6Zm2.16-5.13h1.73v-.46h-1.73v.46Zm0,1.13h1.73v-.47h-1.73v.47Z" fill="#fff"/><path d="M114.85,59.56c.12,.43,.2,.58,.44,.76,.31,.24,.68,.36,1.12,.36,.92,0,1.5-.47,1.5-1.21,0-.43-.19-.78-.52-.97-.22-.13-.66-.22-1.07-.22s-.68,0-.99,.05v-1.15c.3,.04,.5,.05,.9,.05,.93,0,1.48-.43,1.48-1.14,0-.64-.44-1-1.22-1-.45,0-.79,.1-1.01,.29-.19,.18-.28,.33-.39,.71l-1.33-.22c.23-.69,.45-1.01,.88-1.33,.47-.34,1.08-.51,1.82-.51,1.55,0,2.55,.78,2.55,1.99,0,.56-.24,1.07-.64,1.36-.2,.16-.41,.23-.9,.36,.66,.1,1,.26,1.33,.62,.31,.34,.45,.73,.45,1.28,0,.5-.21,1.01-.56,1.36-.51,.49-1.29,.75-2.28,.75-1.09,0-1.83-.28-2.36-.88-.23-.26-.35-.5-.52-1.04l1.33-.26Z" fill="#fff"/><path d="M124.97,55.99c-.24-.68-.58-.94-1.24-.94s-1.14,.33-1.46,.96c-.23,.48-.33,.93-.38,1.64,.5-.68,1.05-.93,1.99-.93s1.74,.41,2.15,1.1c.22,.36,.33,.84,.33,1.39,0,1.47-1.11,2.5-2.69,2.5-.74,0-1.43-.22-1.88-.61-.69-.59-1.08-1.71-1.08-3.11,0-1.14,.29-2.24,.76-2.87,.55-.74,1.29-1.1,2.26-1.1,.8,0,1.46,.24,1.9,.71,.24,.25,.38,.46,.58,.95l-1.25,.3Zm-2.89,3.24c0,.84,.66,1.47,1.57,1.47,.54,0,1.01-.24,1.27-.65,.14-.21,.21-.52,.21-.84,0-.92-.55-1.46-1.47-1.46s-1.59,.63-1.59,1.48Z" fill="#fff"/><path d="M129.11,59.65c.08,.27,.15,.39,.28,.54,.26,.32,.65,.47,1.14,.47,.92,0,1.52-.61,1.52-1.53s-.58-1.49-1.46-1.49c-.45,0-.86,.15-1.15,.43-.13,.13-.19,.21-.28,.42l-1.16-.11c.09-.66,.1-.71,.12-.96l.21-2.3c0-.17,.03-.48,.04-.95,.28,.02,.49,.03,.98,.03h2.28c.64,0,.87,0,1.29-.07v1.17c-.41-.06-.77-.07-1.28-.07h-2.18l-.15,1.62c0,.07-.03,.2-.06,.39,.45-.39,.95-.57,1.59-.57,.75,0,1.35,.22,1.81,.7,.45,.45,.66,1,.66,1.74,0,1.63-1.07,2.64-2.79,2.64-.92,0-1.6-.26-2.12-.81-.25-.27-.38-.49-.58-1.01l1.28-.27Z" fill="#fff"/><path d="M135.42,55.06c0-.36-.02-.69-.05-.99,.3,.04,.6,.05,1.03,.05h4.49c.44,0,.72,0,1-.05-.04,.35-.05,.62-.05,.95v5.99c0,.48,.02,.79,.06,1.12h-1.12v-.56h-4.31v.56h-1.1c.04-.32,.06-.69,.06-1.12v-5.95Zm1.05,2.19h4.31v-2.15h-4.31v2.15Zm0,3.35h4.31v-2.38h-4.31v2.38Z" fill="#fff"/><path d="M145.56,54.57c0-.42,0-.62-.06-.87h1.08c-.03,.25-.05,.5-.05,.87v.52h.66c.39,0,.61,0,.89-.06v.99c-.22-.02-.34-.03-.72-.03-.06,.96-.28,1.9-.63,2.81,.58,.74,.66,.84,1.32,1.77l-.73,.82c-.39-.67-.53-.88-1.07-1.6-.52,.9-.99,1.48-1.85,2.29-.25-.41-.4-.58-.71-.86,.85-.66,1.4-1.32,1.9-2.27-.43-.54-.94-1.09-1.58-1.71l.68-.69q.19,.19,.73,.75c.07,.07,.23,.25,.58,.66,.19-.6,.32-1.3,.36-1.97h-1.72c-.34,0-.6,0-.86,.05v-1.01c.28,.04,.56,.06,.92,.06h.84v-.52Zm3.09,2.5c.62,.84,.88,1.27,1.31,2.14l-.84,.56c-.44-1.02-.74-1.56-1.3-2.24l.83-.46Zm.52-.58c-.4,0-.62,0-.88,.05v-1.02c.25,.04,.47,.05,.88,.05h1.18v-.73c0-.55-.02-.84-.06-1.1h1.11c-.04,.29-.06,.6-.06,1.1v.73h.11c.39,0,.64-.02,.87-.06v1.04q-.07,0-.21-.03c-.09-.02-.4-.03-.65-.03h-.12v4.48c0,.48-.03,.64-.17,.81-.18,.22-.51,.32-1.12,.32-.38,0-.72,0-1.09-.04-.06-.46-.13-.7-.29-1.03,.33,.06,.89,.11,1.12,.11,.5,0,.56-.03,.56-.22v-4.42h-1.18Z" fill="#fff"/><path d="M155.15,55.47c0,4.04-.18,5.21-.96,6.66-.3-.37-.48-.55-.83-.8,.34-.6,.48-.97,.6-1.61,.13-.7,.19-2.05,.19-3.92,0-.67,0-.98-.04-1.3,.31,.04,.57,.05,.96,.05h2.37v-.41c0-.2,0-.35-.05-.53h1.12c-.04,.15-.05,.29-.05,.54v.4h2.4c.51,0,.83-.02,1.09-.05v1.03c-.32-.04-.61-.05-1.09-.05h-3.07c1.24,.7,1.43,.82,2.32,1.54l-.71,.79c-.7-.7-1.22-1.08-2.36-1.7l.71-.63h-2.63Zm-.07,5.45c.29-.63,.38-.91,.5-1.52,.11-.58,.16-.96,.2-1.79l.96,.25c-.15,1.72-.29,2.42-.73,3.66l-.94-.6Zm3.18-3.86c-.03,.21-.05,.48-.05,.87v2.91c0,.25,.07,.29,.63,.29,.73,0,.74-.04,.74-1.71,.37,.17,.67,.27,.98,.32-.07,1.27-.16,1.73-.36,1.99s-.58,.36-1.37,.36c-1.29,0-1.61-.14-1.61-.7v-3.49c0-.42,0-.64-.06-.86h1.09Zm2.88,4.3c-.26-1.43-.49-2.17-1.07-3.36l.88-.44c.61,1.35,.86,2.06,1.18,3.32l-.99,.47Z" fill="#fff"/></g></g></svg>