<?xml version="1.0" encoding="UTF-8"?><svg id="_レイヤー_2" xmlns="http://www.w3.org/2000/svg" viewBox="0 0 330.46 35.91"><g id="main"><g><g><path d="M38.47,32.85c-1.76-1.74-2.65-4.15-2.65-7.24V9.85c0-3.12,.89-5.54,2.66-7.26s4.34-2.59,7.71-2.59,5.96,.86,7.73,2.58c1.76,1.72,2.65,4.14,2.65,7.27v15.76c0,3.12-.89,5.54-2.66,7.26-1.77,1.72-4.34,2.59-7.71,2.59s-5.96-.87-7.73-2.61Zm10.64-5.03c.62-.9,.93-2.19,.93-3.88V11.52c0-1.68-.31-2.98-.93-3.88s-1.59-1.35-2.91-1.35-2.29,.45-2.91,1.35-.93,2.19-.93,3.88v12.42c0,1.68,.31,2.98,.93,3.88s1.59,1.35,2.91,1.35,2.29-.45,2.91-1.35Z" fill="#9c272d"/><path d="M72.1,35.1h-6.53V8.11l-4.22,1.6V2.77l5.17-2.34h5.58V35.1Z" fill="#9c272d"/><path d="M78.49,29.21l11.9-15.64c.54-.7,.96-1.42,1.25-2.16,.29-.74,.44-1.43,.44-2.06v-.05c0-.94-.3-1.66-.91-2.17-.6-.51-1.46-.76-2.58-.76s-1.96,.35-2.62,1.06c-.67,.71-1.07,1.71-1.22,3.02v.02h-6.7v-.02c.14-2.16,.66-4.02,1.56-5.58,.9-1.56,2.11-2.75,3.64-3.57,1.53-.82,3.29-1.23,5.29-1.23,2.16,0,4.01,.35,5.54,1.06,1.53,.71,2.7,1.74,3.51,3.09,.8,1.35,1.2,2.98,1.2,4.89v.02c0,1.57-.27,3.14-.82,4.69-.55,1.55-1.32,2.95-2.3,4.21l-8.54,10.78h11.85v6.3h-20.51v-5.89Z" fill="#9c272d"/><path d="M106.89,32.85c-1.76-1.74-2.65-4.15-2.65-7.24V9.85c0-3.12,.89-5.54,2.66-7.26s4.34-2.59,7.71-2.59,5.96,.86,7.73,2.58c1.76,1.72,2.65,4.14,2.65,7.27v15.76c0,3.12-.89,5.54-2.66,7.26-1.77,1.72-4.34,2.59-7.71,2.59s-5.96-.87-7.73-2.61Zm10.64-5.03c.62-.9,.93-2.19,.93-3.88V11.52c0-1.68-.31-2.98-.93-3.88s-1.59-1.35-2.91-1.35-2.29,.45-2.91,1.35-.93,2.19-.93,3.88v12.42c0,1.68,.31,2.98,.93,3.88s1.59,1.35,2.91,1.35,2.29-.45,2.91-1.35Z" fill="#9c272d"/><path d="M148.41,19.53v6.3h-16.98v-6.3h16.98Z" fill="#9c272d"/><path d="M154.13,23.78L164.82,.45h7.39l-10.4,23.04h15.57v6.29h-23.25v-6.01Zm14-9.06h6.53v20.41h-6.53V14.71Z" fill="#9c272d"/><path d="M201.25,4.77l-7.77,30.33h-7.08l7.54-28.38h-5.96v5.22h-6.53V.43h19.82V4.77Z" fill="#9c272d"/><path d="M209.63,32.85c-1.76-1.74-2.65-4.15-2.65-7.24V9.85c0-3.12,.89-5.54,2.66-7.26s4.34-2.59,7.71-2.59,5.96,.86,7.73,2.58c1.76,1.72,2.65,4.14,2.65,7.27v15.76c0,3.12-.89,5.54-2.66,7.26-1.77,1.72-4.34,2.59-7.71,2.59s-5.96-.87-7.73-2.61Zm10.64-5.03c.62-.9,.93-2.19,.93-3.88V11.52c0-1.68-.31-2.98-.93-3.88s-1.59-1.35-2.91-1.35-2.29,.45-2.91,1.35-.93,2.19-.93,3.88v12.42c0,1.68,.31,2.98,.93,3.88s1.59,1.35,2.91,1.35,2.29-.45,2.91-1.35Z" fill="#9c272d"/><path d="M251.14,19.53v6.3h-16.98v-6.3h16.98Z" fill="#9c272d"/><path d="M256.87,23.78L267.55,.45h7.39l-10.4,23.04h15.57v6.29h-23.25v-6.01Zm14-9.06h6.53v20.41h-6.53V14.71Z" fill="#9c272d"/><path d="M303.99,4.77l-7.77,30.33h-7.08l7.54-28.38h-5.96v5.22h-6.53V.43h19.82V4.77Z" fill="#9c272d"/><path d="M312.36,32.85c-1.76-1.74-2.65-4.15-2.65-7.24V9.85c0-3.12,.89-5.54,2.66-7.26s4.34-2.59,7.71-2.59,5.96,.86,7.73,2.58c1.76,1.72,2.65,4.14,2.65,7.27v15.76c0,3.12-.89,5.54-2.66,7.26-1.77,1.72-4.34,2.59-7.71,2.59s-5.96-.87-7.73-2.61Zm10.64-5.03c.62-.9,.93-2.19,.93-3.88V11.52c0-1.68-.31-2.98-.93-3.88s-1.59-1.35-2.91-1.35-2.29,.45-2.91,1.35-.93,2.19-.93,3.88v12.42c0,1.68,.31,2.98,.93,3.88s1.59,1.35,2.91,1.35,2.29-.45,2.91-1.35Z" fill="#9c272d"/></g><path d="M1.84,4.4C-.38,6.15-.42,11.03,.81,14.85c1.28,3.84,3.2,7.43,5.69,10.62,2.52,3.15,5.54,5.87,8.93,8.05,3.44,2.15,8.15,3.28,10.41,1.5,1.14-1.01,2.09-2.22,2.79-3.57,0,0-1.19-1.5-1.45-1.86l-3.99-5.07c-.29-.39-1.89,.13-2.71,.67-.81,.71-1.48,1.58-1.96,2.54-.75,.52-1.41,.13-2.83-.37-1.71-.6-3.79-2.81-5.48-4.84-1.54-2.09-3.18-4.63-3.38-6.48-.16-1.48-.35-2.24,.33-2.84,1.05-.22,2.04-.65,2.91-1.28,.72-.63,1.58-2.06,1.29-2.45l-3.94-5.1c-.26-.32-1.45-1.86-1.45-1.86-1.48,.36-2.89,1-4.14,1.86h0Z" fill="#9c272d"/></g></g></svg>