<?xml version="1.0" encoding="utf-8"?>
<!-- Generator: Adobe Illustrator 26.5.0, SVG Export Plug-In . SVG Version: 6.00 Build 0)  -->
<svg version="1.1"
	 id="レイヤー_1" shape-rendering="geometricPrecision" image-rendering="optimizeQuality" text-rendering="geometricPrecision" xmlns:xodm="http://www.corel.com/coreldraw/odm/2003"
	 xmlns="http://www.w3.org/2000/svg" xmlns:xlink="http://www.w3.org/1999/xlink" x="0px" y="0px" viewBox="0 0 508 512"
	 style="enable-background:new 0 0 508 512;" xml:space="preserve">
<style type="text/css">
	.st0{fill:#92272D;}
</style>
<path class="st0" d="M123.4,249.4c15.1,27.2,32.4,53.3,55,77c22.6,23.9,50.7,45.7,87.1,64.3c2.7,1.3,5.3,1.3,7.5,0.4
	c3.5-1.3,7-4.2,10.5-7.7c2.7-2.7,6-7,9.6-11.7c14-18.4,31.3-41.3,55.8-29.9c0.5,0.2,0.9,0.5,1.5,0.8l81.7,47
	c0.2,0.1,0.5,0.4,0.8,0.5c10.8,7.4,15.2,18.8,15.3,31.8c0,13.2-4.8,28-12,40.5c-9.4,16.5-23.3,27.4-39.2,34.7
	c-15.2,7-32.1,10.7-48.4,13.1c-25.5,3.8-49.5,1.4-73.9-6.2c-23.9-7.4-48-19.6-74.4-35.9l-1.9-1.2c-12.1-7.5-25.1-15.6-37.9-25.1
	c-46.9-35.4-94.6-86.5-125.7-142.7C8.6,251.9-5.6,201,2.2,152.4c4.3-26.6,15.7-50.8,35.6-66.8c17.3-14,40.7-21.6,71-19
	c3.5,0.2,6.6,2.3,8.2,5.2l52.3,88.5c7.7,9.9,8.6,19.7,4.4,29.6c-3.5,8.1-10.5,15.5-20,22.5c-2.8,2.4-6.2,4.8-9.7,7.4
	c-11.7,8.5-25,18.3-20.4,29.8L123.4,249.4z"/>
</svg>
