<?xml version="1.0" encoding="UTF-8"?><svg id="_イヤー_2" xmlns="http://www.w3.org/2000/svg" viewBox="0 0 421.81 105.04"><g id="main"><rect x="0" y="0" width="421.81" height="105.04" rx="7" ry="7" fill="#560a17"/><rect x="0" y=".04" width="421.81" height="101.04" rx="7" ry="7" fill="#882525"/><path d="M396.12,59.63c-.29-.29-.57-.58-.86-.87-.49-.49-.97-.98-1.47-1.47-.12-.12-.12-.19,0-.31,2.1-2.09,4.19-4.19,6.29-6.28,.13-.13,.13-.19,0-.32-2.09-2.08-4.18-4.17-6.27-6.26q-.18-.18,0-.35c.73-.73,1.47-1.46,2.19-2.2,.11-.11,.18-.12,.3,0,2.94,2.94,5.88,5.89,8.82,8.82,.14,.14,.09,.21-.02,.32-2.98,2.97-5.95,5.95-8.92,8.92h-.07Z" fill="#fff"/><g><g><path d="M72.48,40.65c2.93,1.04,6.24,2.42,8.2,3.37l-3.97,1.52c-1.64-.95-4.57-2.3-7.48-3.39l2.59-1.5h-8.4l2.62,1.15c-2.39,1.55-6.07,2.96-8.97,3.77-.6-.66-1.81-1.9-2.53-2.5,2.79-.52,5.93-1.44,7.91-2.42h-4.23v-11.68h6.01c-.34-.69-.89-1.52-1.35-1.98l.03,.12c-2.47,.72-5.15,1.5-7.31,2.1l-1.27-2.99c2.13-.4,5.21-1.12,8.25-1.84l.29,2.59c4.57-.75,6.1-1.98,6.73-4.03h-2.07c-.66,.81-1.41,1.58-2.3,2.3-.6-.6-1.78-1.29-2.56-1.61,2.07-1.44,3.48-3.34,4.23-5l3.02,.49c-.23,.49-.46,.95-.75,1.41h8.49l.52-.09,2.27,.58c-.75,1.55-1.78,3.28-2.73,4.34l-2.65-.83c.34-.43,.75-.98,1.12-1.58h-3.19c.6,1.84,2.24,3.42,8.05,4.11-.63,.63-1.38,1.96-1.7,2.79-.69-.11-1.32-.23-1.9-.37v11.19h-4.98Zm-10.87-16.94c-1.32-.72-4.03-1.75-6.01-2.33l1.5-2.33c1.9,.46,4.63,1.38,6.07,2.07l-1.55,2.59Zm-.09,8.54h12.46v-1.24h-12.46v1.24Zm0,3.16h12.46v-1.24h-12.46v1.24Zm0,3.19h12.46v-1.27h-12.46v1.27Zm14.32-9.64c-2.21-.81-3.54-1.87-4.4-3.11-1.01,1.35-2.62,2.36-5.26,3.11h9.66Z" fill="#fff"/><path d="M92.72,39.04c-.43-.92-1.24-2.42-2.07-3.74v10.1h-3.16v-10.15c-.92,2.67-2.07,5.35-3.31,7.08-.29-1.04-1.04-2.59-1.55-3.54,1.44-1.75,2.91-4.83,3.8-7.45h-3.28v-3.19h4.34v-9.41h3.16v9.41h4.26v3.19h-4.26v.2c.83,.83,3.57,4.06,4.17,4.86l-2.1,2.65Zm-8.31-11.42c-.06-1.78-.63-4.57-1.29-6.64l2.39-.63c.75,2.07,1.32,4.8,1.47,6.59l-2.56,.69Zm11.02-6.79c-.75,2.3-1.58,5.03-2.3,6.7l-2.16-.6c.58-1.81,1.27-4.72,1.58-6.73l2.88,.63Zm11.16,16.85v7.77h-3.22v-7.19l-8.03,1.44-.52-3.19,8.54-1.52V18.59h3.22v15.82l2.93-.55,.52,3.19-3.45,.63Zm-9.84-10.44c1.67,.89,3.8,2.27,4.83,3.31l-1.73,2.73c-.95-1.06-3.05-2.59-4.72-3.6l1.61-2.44Zm4.17-1.04c-.89-1.12-2.88-2.67-4.46-3.74l1.64-2.3c1.61,.95,3.65,2.42,4.57,3.48l-1.75,2.56Z" fill="#fff"/><path d="M122.63,26.07h-10.93v-2.7h10.93v2.7Zm-.92,17.89h-5.87v1.12h-2.88v-9.81h8.74v8.69Zm-.03-13.98h-8.63v-2.62h8.63v2.62Zm-8.63,1.32h8.63v2.56h-8.63v-2.56Zm8.54-9.2h-8.46v-2.59h8.46v2.59Zm-5.75,15.88v3.31h2.96v-3.31h-2.96Zm22.58-10.87v2.47h-15.79v-2.47h6.24v-1.15h-4.83v-2.3h4.83v-1.04h-5.55v-2.44h5.55v-1.55h3.25v1.55h5.78v2.44h-5.78v1.04h5.35v2.3h-5.35v1.15h6.3Zm-1.55,15.19c0,1.44-.26,2.19-1.24,2.62-.95,.46-2.3,.49-4.14,.49-.12-.83-.52-1.98-.89-2.73,1.06,.03,2.24,.03,2.62,0,.37,0,.46-.11,.46-.43v-2.07h-5.95v5.26h-3.13v-14.78h12.28v11.65Zm-9.15-9.23v1.29h5.95v-1.29h-5.95Zm5.95,4.86v-1.35h-5.95v1.35h5.95Z" fill="#fff"/><path d="M151.01,37.54c-2.85,1.84-6.04,3.83-8.54,5.26l-2.13-3.16c2.39-1.18,6.1-3.25,9.52-5.23l1.15,3.14Zm14.76-8.63c-1.73,1.98-3.91,4.14-5.67,5.7,2.04,2.5,4.54,4.54,7.45,5.87-.83,.69-1.96,2.07-2.53,3.05-4.03-2.16-7.13-5.67-9.46-9.95v7.71c0,2.01-.37,2.96-1.58,3.51-1.21,.6-3.05,.72-5.61,.69-.14-.98-.66-2.56-1.18-3.6,1.75,.09,3.57,.06,4.14,.06s.75-.17,.75-.69v-14.99h-10.84v-3.31h10.84v-4.31h3.48v4.31h5.87c-1.18-.81-2.73-1.7-3.97-2.33l1.98-2.16c1.73,.81,4.14,2.07,5.35,2.99l-1.32,1.5h3.19v3.31h-11.1v.29c.69,1.93,1.61,3.77,2.67,5.49,1.61-1.55,3.39-3.57,4.52-5.23l3.02,2.1Zm-19.1,5.32c-.81-1.44-2.73-3.68-4.31-5.21l2.62-1.84c1.61,1.47,3.6,3.54,4.49,5.03l-2.79,2.01Z" fill="#fff"/><path d="M186.32,32.05c0,2.01-1.67,3.68-3.68,3.68s-3.68-1.67-3.68-3.68,1.67-3.68,3.68-3.68,3.68,1.67,3.68,3.68Z" fill="#fff"/><path d="M209.29,22.13c-.03,.63-.06,1.32-.09,2.04,1.9-.23,3.8-.6,5.29-1.04l.09,3.57c-1.64,.37-3.62,.66-5.49,.89-.03,.86-.03,1.75-.03,2.59v1.06c1.96-.49,3.94-.75,5.52-.75,4.43,0,7.91,2.3,7.91,6.27,0,3.39-1.78,5.95-6.36,7.1-1.32,.29-2.59,.37-3.77,.46l-1.32-3.71c1.29,0,2.53-.03,3.54-.2,2.33-.43,4.17-1.58,4.17-3.68,0-1.96-1.73-3.11-4.23-3.11-1.78,0-3.65,.29-5.41,.81,.06,2.27,.12,4.52,.12,5.49,0,3.57-1.27,4.52-3.16,4.52-2.79,0-6.73-2.42-6.73-5.46,0-2.5,2.88-5.12,6.41-6.64-.03-.69-.03-1.38-.03-2.04v-2.42c-.55,.03-1.06,.06-1.52,.06-1.93,0-3.05-.03-4.03-.14l-.06-3.48c1.7,.2,2.93,.23,3.97,.23,.52,0,1.09-.03,1.67-.06,.03-1.01,.03-1.84,.03-2.33,0-.6-.12-2.01-.2-2.53h3.97c-.09,.52-.2,1.75-.26,2.5Zm-4.31,18.38c.52,0,.92-.23,.92-1.21,0-.72-.03-2.04-.09-3.6-1.75,.95-2.93,2.13-2.93,3.14,0,.89,1.35,1.67,2.1,1.67Zm19.85-13.72l-1.73,2.93c-1.38-1.18-5.15-3.34-6.93-4.2l1.58-2.79c2.21,1.06,5.55,2.96,7.08,4.06Z" fill="#fff"/><path d="M231.52,30.41v15.07h-3.39V19.71h10.99v10.7h-7.59Zm0-8.08v1.55h4.4v-1.55h-4.4Zm4.4,5.49v-1.64h-4.4v1.64h4.4Zm1.75,13.6v1.61h-3.19v-10.64h11.13v9.03h-7.94Zm0-6.21v3.39h4.75v-3.39h-4.75Zm14.67,6.18c0,1.9-.37,2.88-1.58,3.42-1.18,.58-2.99,.66-5.64,.66-.12-.98-.66-2.59-1.15-3.51,1.67,.12,3.62,.09,4.17,.06,.55,0,.75-.17,.75-.69v-10.9h-7.79v-10.73h11.25v21.69Zm-8-19.1v1.58h4.54v-1.58h-4.54Zm4.54,5.55v-1.67h-4.54v1.67h4.54Z" fill="#fff"/><path d="M261.66,25.92c-.03,1.87,0,4.03,.17,6.1,.4,4.14,1.27,6.99,3.08,6.99,1.35,0,2.5-3.37,3.05-5.67l2.88,3.51c-1.9,5-3.71,6.76-6.01,6.76-3.16,0-5.9-2.85-6.7-10.56-.29-2.65-.32-6.01-.32-7.77,0-.81-.06-2.04-.23-2.93l4.43,.06c-.2,1.04-.35,2.7-.35,3.51Zm19.96,12.05l-3.77,1.47c-.46-4.63-1.98-11.62-5.12-15.19l3.65-1.18c2.73,3.31,4.92,10.5,5.24,14.9Z" fill="#fff"/><path d="M299.18,18.65c3.08,4.4,7.74,8.05,12.31,9.89-.83,.89-1.61,2.01-2.21,3.08-1.47-.75-2.96-1.7-4.4-2.73v1.98h-14.32v-2.01c-1.41,1.04-2.93,1.98-4.46,2.82-.46-.83-1.41-2.07-2.16-2.79,4.95-2.39,9.55-6.73,11.71-10.24h3.54Zm-10.53,15.07h18.24v11.79h-3.51v-1.06h-11.36v1.06h-3.37v-11.79Zm14.81-5.87c-2.39-1.87-4.52-3.94-5.9-5.84-1.35,1.93-3.37,3.97-5.72,5.84h11.62Zm-11.45,8.89v4.69h11.36v-4.69h-11.36Z" fill="#fff"/><path d="M319.74,19.65l4.2,.14c-.17,.81-.4,2.27-.63,4.08l1.06,1.35c-.4,.52-.98,1.47-1.47,2.21-.03,.26-.03,.55-.06,.81,2.91-2.16,5.87-2.96,8.46-2.96,4.43,0,7.91,3.14,7.94,7.77,0,5.81-3.65,9.29-10.79,10.7l-1.73-3.48c5.06-.75,8.69-2.82,8.66-7.31,0-2.24-1.81-4.31-4.69-4.31-3.05,0-5.72,1.47-8.14,3.68-.03,.83-.06,1.67-.06,2.42,0,2.36,0,4.77,.17,7.48,.03,.52,.11,1.55,.2,2.21h-3.97c.06-.63,.09-1.67,.09-2.13,.06-2.24,.09-3.91,.11-6.33-1.21,1.81-2.62,3.91-3.62,5.26l-2.27-3.14c1.64-2.01,4.52-5.81,6.16-8.23,.06-.66,.11-1.35,.14-2.04-1.41,.17-3.62,.46-5.24,.69l-.37-3.68c.83,.03,1.5,.03,2.5-.03,.83-.06,2.1-.2,3.34-.37,.06-1.09,.12-1.9,.12-2.21,0-.83,.03-1.7-.12-2.59Z" fill="#fff"/><path d="M362.62,22.9c-.03,1.12-.03,2.16-.06,3.11,.78-.06,1.5-.11,2.16-.14,.81-.06,1.93-.11,2.76-.2v3.54c-.49-.03-2.01,0-2.76,.03-.63,.03-1.38,.06-2.21,.12-.09,2.19-.2,4.54-.43,5.75-.32,1.52-1.04,1.9-2.5,1.9-1.04,0-3.34-.29-4.34-.43l.09-3.19c.89,.2,2.07,.37,2.65,.37s.83-.11,.89-.66c.11-.78,.2-2.1,.23-3.48-2.56,.2-5.38,.46-7.82,.72-.03,2.65-.06,5.29,0,6.53,.06,2.82,.32,3.45,4.63,3.45,2.82,0,6.44-.35,8.6-.72l-.14,3.91c-1.93,.23-5.46,.46-8.2,.46-7.45,0-8.34-1.55-8.49-6.53-.03-1.24-.03-4.03-.03-6.7-.78,.09-1.44,.14-1.93,.2-.92,.12-2.7,.4-3.45,.52l-.4-3.68c.83,0,2.16-.06,3.62-.2,.52-.06,1.27-.12,2.19-.2v-2.91c0-1.18-.09-2.16-.23-3.19h4.06c-.14,.98-.17,1.78-.17,2.99,0,.66-.03,1.64-.03,2.76,2.45-.23,5.24-.49,7.85-.72v-3.25c0-.72-.12-2.07-.2-2.65h3.85c-.06,.46-.14,1.73-.17,2.5Z" fill="#fff"/></g><g><path d="M106.5,67.89l-6.08,6.08,6.08,6.08-.53,.53-6.08-6.08-6.09,6.09-.53-.53,6.09-6.09-6.08-6.08,.53-.53,6.08,6.08,6.08-6.08,.53,.53Zm-11.86,7.46c-.75,0-1.38-.63-1.38-1.38s.63-1.38,1.38-1.38,1.38,.63,1.38,1.38-.63,1.38-1.38,1.38Zm3.87-6.63c0-.75,.63-1.38,1.38-1.38s1.38,.63,1.38,1.38-.63,1.38-1.38,1.38-1.38-.63-1.38-1.38Zm2.76,10.49c0,.75-.63,1.38-1.38,1.38s-1.38-.63-1.38-1.38,.63-1.38,1.38-1.38,1.38,.63,1.38,1.38Zm3.87-6.63c.76,0,1.38,.63,1.38,1.38s-.63,1.38-1.38,1.38-1.38-.63-1.38-1.38,.63-1.38,1.38-1.38Z" fill="#fff"/><path d="M126.81,77.45h-1.91v3.2h-2.23v-.75h-3.31v.57c0,1.09-.26,1.53-.98,1.84-.7,.28-1.69,.31-3.26,.31-.11-.52-.44-1.27-.72-1.73,.88,.04,1.97,.04,2.26,.04,.35-.02,.46-.13,.46-.46v-.57h-5.6v-1.58h5.6v-.87h-7.29v-1.68h7.29v-.79h-5.45v-1.47h5.45v-.81h-4.99v-3.65h4.99v-.75h-6.87v-1.73h6.87v-1.2h2.23v1.2h7.03v1.73h-7.03v.75h5.23v3.65h-5.23v.81h5.54v2.26h1.91v1.68Zm-9.68-6.13v-.88h-2.89v.88h2.89Zm2.23-.88v.88h2.98v-.88h-2.98Zm0,5.34h3.31v-.79h-3.31v.79Zm3.31,1.68h-3.31v.87h3.31v-.87Z" fill="#fff"/><path d="M145.04,68.1v1.97h-16.66v-1.97h3.92c-.33-.63-.86-1.42-1.38-2.03l2.08-.72c.66,.7,1.4,1.69,1.71,2.39l-1.01,.35h5.12c.55-.85,1.14-1.93,1.51-2.78l2.38,.7c-.44,.72-.94,1.44-1.4,2.08h3.74Zm-8.38,12.3c0,.94-.18,1.45-.81,1.77-.59,.31-1.44,.35-2.56,.35-.11-.55-.42-1.36-.7-1.86,.68,.04,1.42,.04,1.66,.02,.22,0,.29-.07,.29-.29v-1.64h-3.07v3.72h-2.08v-11.12h7.27v9.06Zm-5.19-7.22v1.14h3.07v-1.14h-3.07Zm3.07,3.96v-1.2h-3.07v1.2h3.07Zm5.71,1.9h-2.01v-7.51h2.01v7.51Zm1.66-8.03h2.15v9.15c0,1.09-.2,1.62-.94,1.97-.7,.33-1.69,.39-3.02,.37-.11-.59-.46-1.49-.79-2.06,.94,.04,1.9,.04,2.21,.02,.3,0,.39-.07,.39-.33v-9.11Z" fill="#fff"/><path d="M155.98,81.83l-1.38-2.19c.7-.07,1.22-.18,1.71-.29,2.36-.55,4.2-2.25,4.2-4.93,0-2.54-1.38-4.44-3.87-4.86-.26,1.57-.57,3.26-1.1,4.99-1.1,3.72-2.69,6-4.7,6s-3.74-2.25-3.74-5.36c0-4.25,3.68-7.88,8.45-7.88s7.44,3.17,7.44,7.18-2.38,6.63-7.01,7.35Zm-5.06-4.12c.77,0,1.49-1.16,2.25-3.65,.42-1.36,.77-2.93,.98-4.46-3.04,.63-4.68,3.31-4.68,5.34,0,1.86,.74,2.76,1.45,2.76Z" fill="#fff"/><path d="M172.21,67.62c-.02,.41-.04,.85-.06,1.31,1.22-.15,2.43-.39,3.39-.66l.06,2.28c-1.05,.24-2.32,.42-3.52,.57-.02,.55-.02,1.12-.02,1.66v.68c1.25-.31,2.52-.48,3.54-.48,2.84,0,5.06,1.47,5.06,4.01,0,2.17-1.14,3.81-4.07,4.55-.85,.18-1.66,.24-2.41,.29l-.85-2.38c.83,0,1.62-.02,2.26-.13,1.49-.28,2.67-1.01,2.67-2.36,0-1.25-1.1-1.99-2.71-1.99-1.14,0-2.34,.18-3.46,.52,.04,1.45,.07,2.89,.07,3.52,0,2.28-.81,2.89-2.02,2.89-1.79,0-4.31-1.55-4.31-3.5,0-1.6,1.84-3.28,4.11-4.25-.02-.44-.02-.88-.02-1.31v-1.55c-.35,.02-.68,.04-.98,.04-1.23,0-1.95-.02-2.58-.09l-.04-2.23c1.09,.13,1.88,.15,2.54,.15,.33,0,.7-.02,1.07-.04,.02-.64,.02-1.18,.02-1.49,0-.39-.07-1.29-.13-1.62h2.54c-.06,.33-.13,1.12-.17,1.6Zm-2.76,11.77c.33,0,.59-.15,.59-.77,0-.46-.02-1.31-.06-2.3-1.12,.61-1.88,1.36-1.88,2.01,0,.57,.87,1.07,1.34,1.07Zm12.7-8.78l-1.1,1.88c-.88-.75-3.3-2.14-4.44-2.69l1.01-1.79c1.42,.68,3.55,1.9,4.53,2.6Z" fill="#fff"/><path d="M197.77,80.34c.63,0,.74-.31,.83-2.45,.46,.35,1.44,.72,2.01,.87-.24,2.91-.81,3.66-2.63,3.66h-2.43c-2.19,0-2.71-.66-2.71-2.72v-2.95h-2.23c-.39,2.93-1.47,4.86-6.02,5.89-.2-.59-.79-1.49-1.22-1.95,3.77-.7,4.57-1.93,4.88-3.94h-2.25v-10.81h12.04v10.81h-3v2.93c0,.59,.11,.66,.81,.66h1.91Zm-9.65-11.34h7.7v-1.14h-7.7v1.14Zm0,2.91h7.7v-1.14h-7.7v1.14Zm0,2.93h7.7v-1.14h-7.7v1.14Z" fill="#fff"/><path d="M207.6,77.03c-.2-.42-.59-1.05-.98-1.66v7.18h-2.14v-6.39c-.57,1.33-1.23,2.54-1.91,3.42-.2-.63-.66-1.53-1.01-2.08,1.05-1.22,2.1-3.26,2.78-5.08h-2.3v-2.04h2.45v-2.06c-.72,.11-1.42,.2-2.08,.28-.09-.46-.37-1.22-.61-1.68,1.99-.28,4.16-.77,5.54-1.36l1.45,1.68c-.66,.26-1.4,.48-2.17,.66v2.49h1.71v-.31h4.16v-.63h-3.26v-1.27h3.26v-.63h-3.59v-1.33h3.59v-.83h2.19v.83h3.81v1.33h-3.81v.63h3.39v1.27h-3.39v.63h4.18v1.36h-10.42v.99h-1.82v.59c.59,.55,1.91,1.91,2.23,2.3l-1.25,1.71Zm8.41,2.58c1.12,.66,2.39,1.44,3.13,1.95l-1.91,1.03c-.68-.57-1.95-1.47-3.04-2.15l1.14-.83h-3.35l1.23,.81c-1.12,.87-2.95,1.75-4.42,2.23-.33-.39-.94-.98-1.34-1.36,1.25-.37,2.71-1.05,3.63-1.68h-1.6v-7.55h8.51v7.55h-1.97Zm-4.58-5.43h4.47v-.77h-4.47v.77Zm0,2.04h4.47v-.79h-4.47v.79Zm0,2.03h4.47v-.77h-4.47v.77Z" fill="#fff"/><path d="M225.5,70.01c.88-1.44,2.49-2.98,4.57-2.98,2.56,0,4.55,2.5,4.55,6.55,0,5.21-3.19,7.7-8.06,8.58l-1.4-2.14c4.09-.63,6.98-1.97,6.98-6.43,0-2.84-.96-4.42-2.5-4.42-2.17,0-4.07,3.26-4.16,5.69-.04,.5-.02,1.09,.09,1.95l-2.26,.15c-.11-.72-.24-1.84-.24-3.07,0-1.71,.26-4,.52-5.89,.09-.7,.15-1.44,.15-1.93l2.52,.11c-.26,.9-.63,2.8-.74,3.83Z" fill="#fff"/><path d="M246.32,67.86c-.06,.31-.13,.81-.2,1.42,1.33-.02,2.5-.13,3.37-.26l-.07,2.19c-1.1,.11-2.12,.18-3.59,.18-.11,.81-.22,1.68-.31,2.5h.13c1.14,0,2.5-.07,3.7-.22l-.06,2.19c-1.03,.09-2.1,.17-3.26,.17h-.74c-.04,.55-.07,1.01-.07,1.34,0,1.53,.94,2.34,2.74,2.34,2.58,0,3.98-1.18,3.98-2.69,0-1.25-.68-2.43-1.9-3.57l2.6-.55c1.22,1.55,1.79,2.85,1.79,4.42,0,2.78-2.5,4.77-6.54,4.77-2.89,0-4.93-1.25-4.93-4.33,0-.44,.06-1.1,.13-1.86-1.34-.13-2.56-.33-3.54-.61l.13-2.23c1.2,.41,2.43,.61,3.63,.74,.11-.83,.22-1.69,.31-2.52-1.27-.13-2.58-.35-3.66-.66l.13-2.12c1.07,.35,2.45,.59,3.79,.7,.06-.57,.11-1.07,.15-1.49,.06-.87,.06-1.23,.02-1.64l2.6,.15c-.17,.66-.24,1.16-.31,1.64Z" fill="#fff"/><path d="M262.66,70.69c-.66,4.7-2.21,8.49-4.27,10.48-.33-.5-1.1-1.34-1.58-1.68,1.66-1.49,2.85-4.12,3.46-7.24h-2.84v-1.97h3.5l.37-.09,1.36,.5Zm3.98,6.68h3.3v1.8h-3.3v1.01c0,1.16-.24,1.69-1.01,2.03-.77,.33-1.9,.37-3.44,.37-.11-.59-.48-1.49-.79-2.06,1.09,.06,2.26,.06,2.6,.06,.35-.02,.46-.11,.46-.42v-.98h-3.18v-1.8h3.18v-1.18h-2.26v-1.73h2.26v-1.18h-1.82v-1.71h1.82v-2.08h1.14c.63-.35,1.25-.75,1.8-1.18h-7.49v-1.97h9.72l.46-.11,1.47,1.07c-1.25,1.36-3.06,2.76-4.92,3.66v.61h1.95v1.71h-1.95v1.18h2.39v1.73h-2.39v1.18Zm7.55-5.87c-.85,1.01-1.82,2.17-2.69,3.04,.66,2.03,1.6,3.72,2.93,4.81-.53,.42-1.27,1.27-1.62,1.88-2.5-2.34-3.65-6.39-4.29-11.08l1.93-.31c.13,.87,.28,1.71,.44,2.54,.61-.74,1.18-1.55,1.57-2.23l1.73,1.36Z" fill="#fff"/><path d="M280.74,70.01c.88-1.44,2.49-2.98,4.57-2.98,2.56,0,4.55,2.5,4.55,6.55,0,5.21-3.19,7.7-8.06,8.58l-1.4-2.14c4.09-.63,6.98-1.97,6.98-6.43,0-2.84-.96-4.42-2.5-4.42-2.17,0-4.07,3.26-4.16,5.69-.04,.5-.02,1.09,.09,1.95l-2.26,.15c-.11-.72-.24-1.84-.24-3.07,0-1.71,.26-4,.52-5.89,.09-.7,.15-1.44,.15-1.93l2.52,.11c-.26,.9-.63,2.8-.74,3.83Z" fill="#fff"/><path d="M304.13,67.38c-.02,.18-.02,.46-.02,.75,1.51-.07,3.04-.22,4.66-.5l-.02,2.12c-1.22,.15-2.89,.31-4.68,.41v1.9c1.86-.09,3.42-.24,4.92-.44l-.02,2.17c-1.66,.18-3.09,.31-4.86,.37,.04,.7,.07,1.45,.13,2.19,2.32,.66,4.09,1.9,5.16,2.78l-1.33,2.06c-.99-.92-2.25-1.9-3.72-2.56,.02,.26,.02,.48,.02,.68,0,1.56-1.2,2.78-3.63,2.78-2.95,0-4.49-1.12-4.49-3.07s1.71-3.17,4.55-3.17c.39,0,.77,.02,1.14,.06-.04-.57-.06-1.16-.07-1.71h-.96c-1.07,0-3.17-.09-4.38-.24l-.02-2.17c1.2,.22,3.46,.35,4.44,.35h.88c0-.61,0-1.27,.02-1.9h-.68c-1.16,0-3.3-.17-4.51-.33l-.06-2.1c1.33,.22,3.42,.41,4.55,.41h.72v-.87c0-.35-.04-.92-.11-1.27h2.49c-.06,.37-.09,.83-.11,1.31Zm-3.72,12.63c.98,0,1.62-.28,1.62-1.34,0-.2,0-.46-.02-.79-.5-.07-.99-.13-1.51-.13-1.31,0-2.03,.52-2.03,1.14,0,.7,.66,1.12,1.93,1.12Z" fill="#fff"/><path d="M323.55,67.71c0,.15,0,.35-.02,.57,1.86,0,4.38-.04,5.34-.02l-.02,2.17c-1.1-.06-2.82-.09-5.32-.09,0,.94,.02,1.95,.02,2.76,.44,.7,.66,1.56,.66,2.52,0,2.39-1.4,5.45-5.89,6.7l-1.97-1.95c1.86-.39,3.48-.99,4.49-2.1-.26,.06-.53,.09-.83,.09-1.42,0-3.17-1.14-3.17-3.39,0-2.08,1.68-3.44,3.68-3.44,.26,0,.5,.02,.74,.06,0-.41,0-.83-.02-1.23-2.78,.04-5.65,.15-7.92,.28l-.06-2.23c2.1,0,5.45-.07,7.95-.11-.02-.24-.02-.42-.04-.57-.06-.75-.13-1.38-.18-1.6h2.67c-.04,.29-.11,1.29-.13,1.58Zm-3.07,8.62c.77,0,1.46-.59,1.2-2.21-.26-.42-.7-.64-1.2-.64-.72,0-1.42,.5-1.42,1.47,0,.85,.68,1.38,1.42,1.38Z" fill="#fff"/></g><line x1="55.81" y1="55.32" x2="367.81" y2="55.32" fill="none" stroke="#fff" stroke-miterlimit="10" stroke-width="1.13"/></g></g></svg>