<svg xmlns="http://www.w3.org/2000/svg" width="418" height="125"><path data-name="長方形 2324" fill="#811a42" d="M11 12h407v113H11z"/><path data-name="長方形 2299" d="M1 1v111h405V1H1M0 0h407v113H0Z" fill="#811a42"/><path data-name="長方形 2328" d="M12 13v99h394V13H12m-1-1h396v101H11Z" fill="#fff"/><path data-name="パス 3941" d="M165.352 56.388h-9.664v2.88h9.664Zm1.216 4.288h-12.512v3.008h12.512Zm-4.48 16.256v3.68H158.7v-3.68Zm3.3-3.008h-9.924v10.912h3.236v-1.248h6.688Zm-9.828-1.568h9.856v-2.848h-9.856Zm0-4.32h9.856v-2.912h-9.856Zm28.448 6.464h-6.976v-3.232h5.792v-3.36h-5.792v-3.04h6.468v-3.456h-3.46c.8-1.344 1.76-3.2 2.656-5.024l-3.712-1.056a37.041 37.041 0 0 1-2.208 5.6l1.44.48h-6.24l1.536-.608a20.552 20.552 0 0 0-2.3-5.28l-3.072 1.152a22.8 22.8 0 0 1 1.952 4.736h-2.916v3.456h6.112v3.04h-5.472v3.36h5.472V74.5h-7.136v3.456h7.136v7.328h3.744v-7.328h6.976Zm12.864-17.376-5.152-.064a20.41 20.41 0 0 1 .416 4.32c0 2.752-.32 11.168-.32 15.456 0 5.472 3.392 7.776 8.64 7.776a16.565 16.565 0 0 0 13.888-7.36l-2.912-3.52c-2.304 3.488-5.664 6.528-10.944 6.528-2.5 0-4.416-1.056-4.416-4.288 0-3.968.256-11.136.384-14.592a50.32 50.32 0 0 1 .416-4.256Zm43.616 2.3-3.744-3.3a22.241 22.241 0 0 1-2.464 2.72c-2.144 2.08-6.528 5.632-9.056 7.68-3.2 2.688-3.456 4.384-.256 7.1 2.912 2.5 7.616 6.5 9.568 8.512.96.96 1.888 1.984 2.784 2.976l3.744-3.412c-3.264-3.168-9.344-7.968-11.744-9.984-1.728-1.5-1.76-1.856-.064-3.328 2.144-1.824 6.368-5.088 8.444-6.752.74-.608 1.8-1.436 2.788-2.208Zm17.824 10.436h13.376v1.984h-13.376Zm0-5.088h13.376v1.984h-13.376Zm0-5.056h13.376V61.7h-13.376Zm13.44 21.7c-1.216 0-1.408-.128-1.408-1.152v-5.092h5.216V56.388h-20.928v18.784h3.9c-.544 3.488-1.92 5.632-8.48 6.848a12.06 12.06 0 0 1 2.112 3.392c7.9-1.792 9.792-5.152 10.464-10.24h3.872v5.12c0 3.584.9 4.736 4.7 4.736h4.224c3.168 0 4.16-1.312 4.576-6.368a12.12 12.12 0 0 1-3.488-1.5c-.16 3.712-.352 4.256-1.44 4.256Zm21.728-2.692c0-.8.768-1.536 1.984-1.536 1.728 0 2.912 1.344 3.1 3.424a16.706 16.706 0 0 1-1.856.1c-1.916-.004-3.228-.804-3.228-1.988Zm-5.44-20.608.128 4.16c.736-.1 1.76-.192 2.624-.256 1.7-.1 6.112-.288 7.744-.32-1.568 1.376-4.9 4.064-6.688 5.536-1.888 1.568-5.76 4.832-8.032 6.656l2.912 3.008c3.424-3.9 6.624-6.5 11.52-6.5 3.776 0 6.656 1.952 6.656 4.832a4.638 4.638 0 0 1-2.656 4.352c-.448-3.04-2.848-5.472-6.816-5.472-3.392 0-5.728 2.4-5.728 4.992 0 3.2 3.36 5.248 7.808 5.248 7.744 0 11.584-4 11.584-9.056 0-4.672-4.128-8.064-9.568-8.064a12.5 12.5 0 0 0-3.04.352c2.016-1.6 5.376-4.416 7.1-5.632.736-.544 1.5-.992 2.24-1.472l-2.08-2.848a13.981 13.981 0 0 1-2.432.352c-1.824.16-8.672.288-10.368.288a22.207 22.207 0 0 1-2.908-.156Z" fill="#fff"/><path data-name="多角形 14" d="m123 77-7-14h14Z" fill="#fff"/></svg>