<?xml version="1.0" encoding="utf-8"?>
<!-- Generator: Adobe Illustrator 26.3.1, SVG Export Plug-In . SVG Version: 6.00 Build 0)  -->
<svg version="1.1" id="_イヤー_2" xmlns="http://www.w3.org/2000/svg" xmlns:xlink="http://www.w3.org/1999/xlink" x="0px"
	 y="0px" viewBox="0 0 74.6 295" style="enable-background:new 0 0 74.6 295;" xml:space="preserve">
<style type="text/css">
	.st0{fill:#222222;}
	.st1{fill:#005748;}
</style>
<g id="_イヤー_1-2">
	<path id="_ス_4070" class="st0" d="M57.4,162.4c2.2-0.3,4.3-1,6.2-2c4-2.1,6.4-5.7,6.4-9.7c0.1-2.8-1-5.6-3.1-7.5
		c-2.3-2-5.2-3-8.3-2.9c-4.1,0-8.1,1.6-11,4.5c-1.7,1.7-2.7,3.9-2.9,6.3c0,1,0.3,2,0.7,2.9c0.6,1,1,2,1.4,3c0.2,0.7,0.5,1.4,0.9,2
		c0.3,0.4,0.9,0.7,1.4,0.7c1.2,0,2.8-1.6,4.8-4.8c2.4-3.9,4.2-8.6,4.2-11.1c0-1-0.4-1.9-1-2.7c0.4,0,0.7-0.1,1.1-0.1
		c1.9,0,3.9,0.5,5.5,1.5c2.4,1.5,3.8,4.2,3.6,7.1c0,2.8-1,5.6-2.8,7.7c-2,2.2-4.6,3.8-7.5,4.4L57.4,162.4L57.4,162.4z M56.5,141.4
		c0.3,0.5,0.4,1,0.4,1.6c0,2-1.7,6.1-4.1,9.9c-1.6,2.5-3.1,4.2-3.8,4.2c-0.4,0-0.8-0.4-1.2-0.9c-0.8-1.2-1.3-2.7-1.3-4.2
		C46.6,147.1,51,142.4,56.5,141.4L56.5,141.4z"/>
	<path id="_ス_4069" class="st0" d="M7.9,13.3c1.5-1.8,2.8-3.8,4-5.9c1.4-0.3,1.6-0.4,1.6-0.6c0-0.1-0.1-0.2-0.4-0.5
		c-0.8-0.7-1-0.9-1.9-1.6c-0.7,0.7-0.9,0.9-1.5,1.6H7.9V1.6c1-0.3,1.2-0.5,1.2-0.7c0-0.3-0.4-0.4-2-0.5c-0.4,0-0.9-0.1-1.6-0.2
		C5.7,1.1,5.8,2,5.8,3v3.4H3.2c-0.8,0-1.7-0.1-2.5-0.3l0.2,1.2c0.8-0.1,1.5-0.2,2.3-0.2h6.4c-1.1,2.3-2.4,4.5-3.9,6.6
		s-3.3,4-5.3,5.7l0.4,0.5c1.8-1.1,3.5-2.5,5.1-4.1v5.6c-0.1,4.6-0.1,7.1-0.1,7.4c0.1,0.3,0.2,0.3,0.7,0.3h0.4c0.8,0,1.1-0.1,1.2-0.5
		C8,27.6,8,25.1,8,21.2v-6.9c1.5,1,2.9,2.2,3.9,3.6c0.4,0.6,0.7,1,0.8,1.1s0.2,0.1,0.4,0.2c0.4,0,0.7-0.7,0.7-1.5
		c0-1-0.6-1.9-1.5-2.2c-1.4-0.8-2.8-1.3-4.3-1.7C8,13.8,7.9,13.3,7.9,13.3z M19.1,12v14.5h-5.7c-1.1,0-2.2-0.1-3.3-0.3l0.3,1.2
		c1-0.2,2-0.2,3-0.2h16.7c0.2,0,0.3-0.1,0.3-0.2s-0.1-0.2-0.2-0.2c-0.9-1-1.9-1.9-3-2.8c-1,1.1-1.3,1.4-2.1,2.5h-3.9V12h8
		c0.2,0,0.3-0.1,0.3-0.3c0-0.1-0.1-0.2-0.1-0.2c-1.3-1.2-1.7-1.5-3-2.7l-1.9,2.4h-3.3V1.6c0.9-0.4,1.3-0.6,1.3-0.8
		c0-0.3-0.4-0.4-2-0.6c-0.3,0-1-0.1-1.7-0.2C19,1.3,19,2.7,19,4v7.2h-4.4c-0.9,0-1.9-0.1-2.8-0.3l0.3,1.2c0.8-0.1,1.7-0.2,2.6-0.2
		h4.4V12L19.1,12z M19.5,46h10.1c0.2,0,0.4-0.1,0.4-0.2s-0.1-0.2-0.1-0.3c-1.2-1-1.5-1.3-2.8-2.3c-0.9,0.9-1.1,1.2-2,2H4.7
		c-1,0-2-0.1-2.9-0.3L2,46.1c0.9-0.2,1.8-0.2,2.7-0.2h3.7C7.8,47,7,48.1,6.1,49c-1.5,1.7-3.2,3.3-5.1,4.5l0.3,0.4
		c1.8-0.8,3.5-1.8,4.9-3c1,0.7,1.8,1.5,2.5,2.5c0.2,0.3,0.3,0.3,0.5,0.4c-2.5,1.9-5.3,3.3-8.3,4.3l0.2,0.5c2.6-0.5,5.1-1.4,7.4-2.7
		c2.8-1.4,5.2-3.6,6.8-6.2c1.1-0.4,1.2-0.4,1.2-0.6c0-0.1-0.1-0.2-0.3-0.4c-0.7-0.6-0.9-0.7-1.7-1.3c-0.6,0.5-0.7,0.6-1.3,1.1H8.7
		c0.7-0.8,1.4-1.6,2-2.6h6.6v8.2c0.1,1.6,0.4,1.7,5.5,1.7c6,0,6.8-0.2,6.8-1.2c0-0.4-0.3-0.7-0.7-0.8c-0.4-0.1-0.6-0.3-0.6-0.4v-0.7
		l0.2-2.5h-0.4c-0.4,1.2-0.9,2.4-1.4,3.6c-0.2,0.3-0.4,0.4-1.6,0.4h-2.9c-0.9,0-2.4-0.1-2.6-0.1c-0.3-0.1-0.4-0.2-0.4-0.6v-1.8
		c2.3-0.5,4.6-1.3,6.8-2.4h1.2c0.4,0,0.6-0.1,0.6-0.3s-0.4-0.5-2.7-1.7c-1.7,1.6-3.7,2.9-5.8,3.8V46H19.5z M13.5,49.3
		c-1,1.6-2.2,3-3.6,4.2c0.2-0.3,0.3-0.6,0.3-0.9c0-0.5-0.4-0.8-1.4-1.2c-0.6-0.2-1.3-0.4-2-0.5c0.6-0.5,1-0.8,1.6-1.4
		C8.4,49.5,13.5,49.3,13.5,49.3z M12.2,40.9v-1.6c1.1-0.3,1.3-0.4,1.3-0.6c0-0.3-0.4-0.4-1.9-0.5c-0.4,0-0.9-0.1-1.6-0.2
		c0.1,0.7,0.1,1.4,0.1,2v0.9H4c-0.9,0-1.9-0.1-2.8-0.3l0.2,1.2c0.8-0.1,1.7-0.2,2.6-0.2h6.1c0,0.6,0,0.9-0.1,2
		c0,0.2,0.1,0.3,0.3,0.3c0.6,0,1.2,0,1.7-0.2c0.1-0.1,0.1-0.2,0.1-0.3c0-0.4-0.1-0.6-0.1-0.8v-1h6.1c0,0.6,0,1-0.1,2
		c0,0.2,0.1,0.3,0.4,0.3c1.4,0,1.7-0.1,1.8-0.4v-1.8H30c0.2,0,0.3-0.1,0.3-0.2s-0.1-0.2-0.1-0.3c-1.3-1.1-1.7-1.4-3-2.4
		c-0.9,0.9-1.2,1.2-2,2.1h-4.9v-1.6c1.1-0.3,1.3-0.4,1.3-0.6c0-0.3-0.8-0.4-3.6-0.7c0.1,0.9,0.2,1.8,0.2,2.7V41L12.2,40.9L12.2,40.9
		z M4.4,59.2c-0.9,0-1.8,0-2.7-0.2l0.2,1.2C2.7,60,3.6,60,4.4,60h5.8c-0.2,1.4-0.8,2.8-1.8,3.8c-1.4,1.4-3.3,2.3-7,3.2l0.1,0.5
		c3.9-0.4,6.7-1.4,8.6-3.2c1.2-1.1,2-2.7,2.1-4.3h6v2.1c0,1.6,0,2.5-0.1,4.7c0,0.3,0.1,0.4,0.4,0.4c0.6,0,1.1,0,1.7-0.2
		c0.1-0.1,0.2-0.2,0.2-0.3c-0.1-3.7-0.1-3.9-0.1-4.7v-2H30c0.1,0,0.3-0.1,0.3-0.2s-0.1-0.2-0.1-0.3c-1.2-1.1-1.6-1.4-2.9-2.4
		c-0.9,0.9-1.1,1.2-2,2.1h-4.9v-1.4c1.1-0.4,1.1-0.5,1.1-0.7c0-0.3-0.3-0.3-3.3-0.6c0.1,0.9,0.1,1.8,0.1,2.7h-5.9
		c0.1-0.4,0.1-0.5,0.2-1.5c1-0.4,1.2-0.4,1.2-0.6s-0.5-0.4-1.9-0.6c-0.4,0-0.9-0.1-1.5-0.2c0.1,0.5,0.1,0.9,0.1,1.4s0,1-0.1,1.6
		C10.4,59.3,4.4,59.2,4.4,59.2z M7.6,103.8c6.5-3.6,11.5-9.1,15.8-17.7c0.3-0.6,0.6-1.2,1.1-1.8c0.4-0.4,0.4-0.5,0.4-0.9
		s-0.3-0.9-1-1.5c-0.6-0.7-1.4-1.2-2.3-1.5c-0.2,0-0.4,0.1-0.6,0.2c-0.7,0.4-0.9,0.4-3.7,0.9c-3,0.6-6.1,1.1-9.1,1.3
		c-1.3,0.1-2.5-0.7-3-1.9C5.1,81.1,5,81.3,5,81.5c0.1,0.7,0.4,1.4,0.8,2c0.8,1.1,1.6,1.7,2.3,1.7c0.4,0,0.8-0.1,1.2-0.3
		c1.9-0.8,3.9-1.4,5.9-1.8c1.9-0.5,3.9-0.8,5.9-1.1c0.5,0,0.6,0.1,0.6,0.4c0,1.1-1.8,5-3.8,8.5c-2.7,4.7-6.3,8.9-10.6,12.3
		C7.3,103.2,7.6,103.8,7.6,103.8z M27.9,75.4c-1.9,0-3.5,1.5-3.5,3.5l0,0c0,1.9,1.6,3.5,3.5,3.5s3.5-1.6,3.5-3.5
		S29.9,75.4,27.9,75.4z M27.9,76.5c1.4,0,2.5,1.1,2.5,2.4c0,1.4-1.1,2.5-2.5,2.5s-2.5-1.1-2.5-2.5C25.5,77.6,26.5,76.5,27.9,76.5
		L27.9,76.5z M8.7,116.9c1.5,2.4,2.5,3,4.9,3c2.7-0.1,5.5-0.4,8.2-0.8c0.9-0.1,1.2-0.3,1.2-0.7c0-0.6-1.6-1.8-2.5-1.8
		c-0.2,0-0.5,0.1-0.7,0.2c-2.3,0.9-4.7,1.5-7.2,1.5c-1.4,0-2.6-0.6-3.4-1.7C9.2,116.6,8.7,116.9,8.7,116.9z M9.8,141.8
		c5.3-2.3,10.4-7.5,13.9-14c0.5-1.1,0.7-1.3,1.2-1.7c0.3-0.2,0.4-0.5,0.5-0.8c0-0.4-0.4-0.9-1.3-1.8c-0.7-0.6-1.2-1-1.5-1
		c-0.2,0-0.4,0.1-0.5,0.2c-0.8,0.4-1.7,0.7-2.6,0.7c-4.2,0.7-9.6,1.4-10.8,1.4s-2.3-0.7-2.8-1.9c-0.1,0.1-0.2,0.3-0.2,0.5
		c0,1.4,1.8,3.7,2.9,3.7c0.3,0,0.7-0.1,1-0.3c1.1-0.5,2.2-0.8,3.3-1c3.1-0.8,6.2-1.2,9.3-1.5c-1.2,3.6-3,6.9-5.4,9.8
		c-2.1,2.7-4.5,5.1-7.3,7.1C9.5,141.2,9.8,141.8,9.8,141.8z M5.1,157.7c2.1,1.2,3.8,2.8,5.2,4.7c0.9,1.1,1,1.3,1.4,1.3
		c0.5,0,0.9-0.7,0.9-1.8c0-0.9-0.4-1.7-1.1-2.2c-1.9-1.2-4-2-6.2-2.4C5.3,157.3,5.1,157.7,5.1,157.7z M27.6,158.9
		c-2.5,3.2-5.4,6.1-8.6,8.5c-2.4,2-4.9,3.8-7.6,5.3c-0.9,0.7-2,1.1-3.1,1.3c-0.5-0.1-0.9-0.3-1.3-0.7c-0.5-0.4-0.9-0.9-1.2-1.4
		c-0.1,0.2-0.2,0.4-0.2,0.6c0,1.6,2.4,4.7,3.7,4.7c0.4,0,0.6-0.2,1.1-0.8c0.2-0.3,0.4-0.4,1.9-1.5c3.2-2.2,6.2-4.6,9-7.3
		c2.7-2.5,5-5.4,6.7-8.6L27.6,158.9z M9.5,191.9c1.3,0.2,2,0.5,2.3,1.2c0.3,0.5,0.3,1,0.4,3.7c0.1,2.4,0.1,3.1,0.2,3.9
		c0.2,1.4,0.4,2.1,0.9,2.4c0.4,0.4,1,0.5,1.5,0.5c-1.4,0.7-2.7,1.6-3.9,2.6c-2.1,1.8-3.1,3.5-3.1,5.4c0,2.2,1.4,4.1,3.5,4.7
		c1.8,0.5,3.6,0.8,5.4,0.7c2.1,0,4.1-0.2,6.1-0.4c1-0.2,1.4-0.5,1.4-1.1c-0.1-0.9-0.8-1.5-1.7-1.6c-0.2,0-0.4,0-0.6,0.1
		c-2.4,0.6-4.9,0.9-7.4,0.9c-3.6,0-5.4-1.2-5.4-3.5c0-1.5,0.8-2.8,2.5-4.1c2-1.5,4.1-2.5,8-3.6c0.7-0.2,1.4-0.4,2.1-0.7
		c0.4-0.1,0.7-0.5,0.7-1c-0.1-0.8-0.8-1.3-1.5-1.3c-0.5,0-0.9,0.1-1.3,0.4c-2.9,1.4-3.6,1.6-4.3,1.6c-1,0-1.2-0.5-1.2-2.4
		c-0.1-2.2,0.2-4.4,0.7-6.5c0.2-0.6,0.3-0.6,0.3-0.8v-0.1c0-0.4-0.3-0.8-0.9-1c-1-0.4-2.1-0.6-3.2-0.6
		C10.4,191.3,9.9,191.5,9.5,191.9L9.5,191.9z M9.5,241.4c1.1-0.9,2-2.1,2.7-3.4H18c0,1.1,0,1.2-0.1,2.4c0,0.3,0.1,0.4,0.7,0.4
		c1.1,0,1.3-0.1,1.4-0.5c0-1.1-0.1-1.6-0.1-2.3h7.5c-0.2,1.5-0.4,2-0.7,2c-0.7-0.1-1.5-0.2-2.2-0.4c-0.2,0-0.4-0.1-0.7-0.1l-0.1,0.4
		c1.8,0.6,2.3,1,2.4,2.1c1.6-0.1,2.3-0.4,2.6-1.1c0.3-0.8,0.5-1.7,0.5-2.6c0.6-0.3,0.8-0.4,0.8-0.5s-0.1-0.2-0.3-0.4
		c-0.6-0.5-0.8-0.7-1.5-1.2c-0.5,0.5-0.7,0.7-1.2,1.2h-7v-2.6h5.5v0.5c0,0.3,0.1,0.3,0.7,0.3c1.1,0,1.3-0.1,1.3-0.5
		c-0.1-1.3-0.1-1.8-0.1-3.4c0.7-0.4,1-0.6,1-0.8c0-0.1-0.1-0.2-0.4-0.4c-0.5-0.4-1.1-0.8-1.7-1.1c-0.4,0.4-0.8,0.8-1.1,1.3H20v-1.4
		c1-0.3,1.3-0.4,1.3-0.7s-0.1-0.4-3.3-0.6c0.1,0.9,0.2,1.8,0.1,2.8h-4.7v-1.5c0.9-0.2,1.2-0.4,1.2-0.7s-0.2-0.4-3.4-0.6
		c0.1,0.7,0.2,1.5,0.2,2.2v0.6H6.2c-1,0-2.1-0.1-3.1-0.3l0.2,1.2c1-0.2,1.9-0.2,2.9-0.2h5.2c0,1.3-0.1,1.7-0.2,2.7H6.8
		c-0.9-0.6-1.2-0.7-2-1.2c-0.5,2.2-1.3,4.4-2.4,6.4c0,0.1-0.1,0.2-0.1,0.3c0,0.3,0.4,0.4,1.5,0.4c0.4,0,0.5-0.1,0.7-0.4
		c0.2-0.5,0.3-0.7,0.5-1.3h5.1c-0.6,1.2-1.5,2.2-2.5,3.1c-0.5-0.2-1-0.4-1.5-0.5c0.1,0.6,0.1,1.1,0.1,1.7c-1.5,1.2-3.1,2.2-4.8,3
		l0.3,0.4c1.6-0.5,3.1-1.2,4.6-2.1v3.6c0,2,0,3.2-0.1,5.3v0.1c0,0.3,0.2,0.4,0.8,0.4c1.1,0,1.4-0.1,1.4-0.5v-0.7h14.2v0.4
		c0,0.3,0.1,0.4,0.6,0.4c1.4,0,1.6-0.1,1.6-0.5c-0.1-2.8-0.1-6-0.1-9.5c0.6-0.4,0.7-0.4,0.7-0.6c0-0.1-0.1-0.2-0.2-0.3
		c-0.6-0.5-1.1-0.9-1.8-1.3c-0.4,0.4-0.5,0.6-0.9,1L9.5,241.4L9.5,241.4z M8.4,242.1h14.2v2.4H8.5v-2.4H8.4z M22.6,245.2v2.4H8.5
		v-2.4H22.6z M22.6,248.4v2.8H8.5v-2.8H22.6z M18,234.7v2.6h-5.5c0.3-0.8,0.5-1.7,0.6-2.6H18z M11.1,234.7c-0.1,0.9-0.3,1.8-0.6,2.6
		H5.3c0.3-1,0.6-1.9,0.9-2.6C6.2,234.7,11.1,234.7,11.1,234.7z M13.1,233.9c0.1-0.9,0.1-1.2,0.2-2.7H18v2.7H13.1z M19.9,233.9v-2.7
		h5.5v2.7H19.9z M1.6,257.6c3.6-0.4,7.1-1.4,10.4-2.8h0.9c0.8,0,1-0.1,1-0.4c0-0.2-0.2-0.3-1.7-0.9c-0.3-0.1-0.8-0.3-1.4-0.6
		c-1.6,1.5-4.6,2.8-9.3,4.2L1.6,257.6z M18.5,253.7c3.2,0.7,6.3,1.9,9.2,3.5c0.6,0.4,0.8,0.4,1.1,0.4s0.4-0.2,0.4-0.6
		c0-1.2-0.8-2.2-2-2.5c-2.8-0.7-5.6-1.2-8.5-1.3L18.5,253.7L18.5,253.7z M14.8,282.8v2.9c0,1.3,0,4.8-0.1,6.8c0,0.4,0.2,0.5,0.6,0.5
		h0.4c1,0,1.2-0.2,1.3-0.7c0-0.8,0-1.7-0.1-2.8v-6.7h7.9v8.8c0,0.4-0.1,0.4-0.4,0.4h-0.3c-0.6,0-1.3,0-2.1-0.1
		c-1.3-0.1-2.3-0.1-3-0.2v0.5c3.6,0.4,3.8,0.6,4.3,2.5c1-0.1,1.9-0.4,2.8-0.8c0.6-0.2,1-0.8,1-1.5c-0.1-4.1-0.1-5.3-0.1-8.1v-14.9
		c1-0.6,1.2-0.7,1.2-1c0-0.1-0.1-0.3-0.4-0.4c-0.9-0.7-1.1-0.9-2-1.5c-0.5,0.5-0.9,1-1.3,1.5H7.4c-0.8-0.6-1.7-1.1-2.6-1.6
		c0.1,1.5,0.2,2.5,0.2,4.1c0,1.3-0.1,5.7-0.1,7.2c0.1,2.9-0.2,5.7-0.8,8.5c-0.7,3.1-2.1,6.1-4.1,8.5l0.4,0.3
		c1.9-1.5,3.5-3.5,4.5-5.7c1-2.1,1.7-4.3,2-6.6L14.8,282.8L14.8,282.8z M17,282.1v-6.6h7.9v6.6H17z M14.8,282.1H7.1
		c0.2-1.9,0.2-3.6,0.2-6.6h7.5C14.8,275.5,14.8,282.1,14.8,282.1z M17,274.8v-6h7.9v6H17z M14.8,274.8H7.3v-5.9h7.5V274.8z"/>
	<g>
		<path class="st1" d="M52.1,16.7c0-1.3-0.1-4.3-0.2-7.9c4.3-0.1,8.6-0.2,10.7-0.2c3-0.1,4.4,1,4.4,2.7c0,1.5-1.4,2.3-4,2.4
			c-3,0.1-5,0.1-5,0.1l0.1,3.6c0,0,4.3-0.1,9.2-0.2c5-0.1,7-2.7,6.9-6.2c-0.1-3.8-2.3-6.3-7-6.2C63,5,57.1,5.1,51.9,5.2
			C51.8,2.3,51.8,0,51.8,0l-7.3,0.1c0,0,0,2,0.1,5.2C41.8,5.4,40,5.4,40,5.4L40.1,9c0,0,1.9,0,4.6-0.1c0.1,2.7,0.1,5.9,0.2,9.4
			C45.1,28.5,55.5,28,55.5,28l18.2-0.4L73.6,24c0,0-13.3,0-14.4,0C56.1,24.1,52.2,21.5,52.1,16.7z"/>
		<path class="st1" d="M51.9,63.4c6.3,0,7.8-1.6,9.7-2.9c2.6-1.7,9.8-8.7,12-14.3h-7.2c-0.5,1.2-9.8,14.5-14.4,12.1
			c-1.4-0.7-1.5-1.4-1.5-5.4c0-3.2,0-16.9,0-16.9H44c0,0,0,2.2,0,17.4C44,62.7,49.4,63.4,51.9,63.4z"/>
		<path class="st1" d="M73.6,75v-3.6H40.8V75h9.6c0,1.2,0,3.2,0,5.9h-9.6v3.3h9.6c0,1.5,0,2.4,0,4.2c0,8.1,3.9,9.3,10.6,9.3
			c3.9,0,11.2,0,11.2,0v-3.6c0,0-5-0.2-7-0.2c-5,0-8.4-1.1-8.4-5c0-1,0-2.4,0-4.7h16.7v-3.3H56.8c0-2.4,0-4.6,0-5.9
			C56.8,75,73.6,75,73.6,75z"/>
		<path class="st1" d="M57.7,122.6c0,7.7-4.6,9.6-9.7,9.6c-1.8,0-6.9,0-6.9,0v-3.6c0,0,2.5,0,5.7,0c2.8,0,4.3-2.5,4.3-6.2
			c0-2.6,0-6.5,0-6.5s6.7,0,12.2,0c3,0,4-1.4,4-3.1c0-2.7-2.3-3.4-4-3.4c-3.4,0-22.3,0-22.3,0v-3.6c0,0,12.6,0,24.5,0
			s11.7,13.8,1.9,13.8c-3.6,0-9.7,0-9.7,0S57.7,121.1,57.7,122.6z"/>
		<path class="st1" d="M68.2,131.7H69v-2h1.2c0.8,0,0.9,0.4,0.9,1.3c0,0.2,0,0.5,0.1,0.7h0.9c-0.2-0.2-0.3-0.7-0.3-1.3
			c0-0.8-0.4-1-0.7-1l0,0c0.2-0.1,0.8-0.3,0.8-1.2c0-0.8-0.5-1.3-1.6-1.3H68v4.8H68.2z M69,127.7h1.4c0.4,0,0.8,0.1,0.8,0.7
			c0,0.5-0.3,0.8-0.8,0.8H69V127.7"/>
		<path class="st1" d="M74,129.4c0,2.2-1.8,4-4,4s-4-1.8-4-4s1.8-4,4-4C72.2,125.4,74,127.2,74,129.4z M70,126
			c-1.9,0-3.4,1.5-3.4,3.4s1.5,3.4,3.4,3.4s3.4-1.5,3.4-3.4S71.9,126,70,126z"/>
	</g>
</g>
</svg>
