<?xml version="1.0" encoding="utf-8"?>
<!-- Generator: Adobe Illustrator 26.0.1, SVG Export Plug-In . SVG Version: 6.00 Build 0)  -->
<svg version="1.1" id="レイヤー_1" xmlns="http://www.w3.org/2000/svg" xmlns:xlink="http://www.w3.org/1999/xlink" x="0px"
	 y="0px" viewBox="0 0 70.2 295" style="enable-background:new 0 0 70.2 295;" xml:space="preserve">
<style type="text/css">
	.st0{fill:#222222;}
</style>
<g id="グループ_1676" transform="translate(-588.617 -2852.746)">
	<path id="パス_4070" class="st0" d="M646.7,2870.9c1.6-1,3.1-2.2,4.6-3.4c1-1,2.2-1.8,3.4-2.6c0.7-0.3,0.9-0.4,0.9-0.9
		c0-0.4-0.3-0.8-1-1.4c-0.7-0.7-1.5-1.2-2.5-1.4c-0.3,0-0.6,0.1-0.8,0.3c-0.7,0.5-1.5,0.9-2.4,1.1c-1,0.4-3.2,1.1-6.9,2.4
		c0-2,0.3-4,0.8-5.9c0.3-0.6,0.3-0.6,0.3-0.8c0-0.4-0.3-0.8-1-1.2c-1.1-0.6-2.3-0.9-3.6-1c-0.4-0.1-0.8,0.1-1.1,0.4
		c1.4,0.4,2.1,0.9,2.4,1.8c0.2,0.8,0.2,1.1,0.3,7.1c-2.1,0.8-4.2,1.3-6.3,1.7c-0.9,0-1.6-0.4-2.6-1.6c0,0.1-0.1,0.3-0.1,0.4
		c0.1,0.7,0.4,1.4,0.9,1.9c0.5,0.9,1.4,1.5,2.3,1.7c0.4,0,0.7-0.1,1-0.4c0.3-0.2,0.6-0.4,0.9-0.5c0.3-0.2,0.7-0.3,1-0.5
		c0.6-0.3,1-0.4,1.2-0.5c0.5-0.2,1.1-0.4,1.6-0.7c0.1,5.2,0.3,7.2,1,8.4c1,1.8,3.1,2.5,7.6,2.5c1.8,0.1,3.5-0.1,5.3-0.4
		c0.5-0.1,0.7-0.4,0.7-0.7c-0.1-0.6-0.4-1.1-1-1.3c-0.4-0.3-0.8-0.5-1.3-0.5c-0.2,0-0.4,0.1-0.6,0.2c-1.9,0.6-3.8,0.9-5.8,0.8
		c-2,0-3.1-0.4-3.6-1.1c-0.5-0.7-0.6-2.2-0.6-5.5c0-0.9,0-1.5,0.1-2.9c1.3-0.5,1.8-0.7,5.7-2.1c1.4-0.6,2.8-1,4.3-1.3
		c0.1,0,0.2,0.1,0.2,0.2l0,0c-0.2,0.5-0.5,0.9-0.8,1.3c-1.5,2.1-3.1,4-4.9,5.9L646.7,2870.9z M656.2,2902.2c-1.9,2-4,3.8-6.2,5.4
		c-3.3,2.4-7,4.3-10.9,5.7v-1.6c0-2.4,0.2-8.2,0.4-10.1c0-1.1,0.2-2.1,0.4-3.2c0.1-0.2,0.2-0.4,0.2-0.7c0-0.6-0.6-1.3-1.9-2
		c-0.8-0.4-1.7-0.7-2.6-0.8c-0.4,0-0.7,0.1-1,0.3c1.4,0.5,1.9,0.9,2.2,1.7c0.4,1.2,0.6,4.3,0.6,11.4c0,3.5,0,4.2-0.3,4.9
		c-0.2,0.4-0.2,0.4-0.2,0.6c0,0.9,1.5,2.8,2.1,2.8c0.3,0,0.6-0.2,0.7-0.4c0.6-0.6,0.6-0.6,2.4-1.5c3.5-1.7,6.8-3.9,9.7-6.5
		c1.8-1.6,3.4-3.4,4.8-5.4L656.2,2902.2z M634.5,2934.1c0.4,0.5,0.8,1,1.3,1.4c1.1,0.8,2.5,1.2,3.9,1.1c0.2,0,0.5,0,0.7,0
		c0.7,0.6,0.8,1.2,0.8,4.9c0,0.4,0,0.5,0,1c-2.2,0.4-4.4,0.6-6.6,0.8c-1.2,0-2.3-0.7-2.9-1.7c-0.1,0.2-0.2,0.4-0.2,0.6
		c0.2,1,0.8,1.9,1.6,2.6c0.4,0.4,0.9,0.7,1.5,0.7c0.3,0,0.5-0.1,0.8-0.2c1.9-0.7,3.9-1.2,5.9-1.4v1c0,2.1,0,2.1,0,2.6
		c-0.1,1.5,0.2,3,0.9,4.4c0.9,1.6,2.7,2.1,6.8,2.1c1.5,0,3-0.1,4.4-0.3c0.6-0.1,1-0.4,1-0.8c0-0.4-0.3-0.7-0.8-1.1
		c-0.4-0.3-1-0.6-1.5-0.6c-0.1,0-0.2,0-0.4,0.1c-1.8,0.6-3.7,0.9-5.6,0.8c-1.4,0-2.2-0.3-2.6-1c-0.3-0.6-0.4-1.4-0.4-3.7
		c0-0.8,0-1.7,0.1-3.6c3-0.4,6.1-0.7,9.2-0.7c0.9,0,2.4,0,2.9,0.1h0.4c0.6,0,1-0.2,1-0.6c0-0.4-0.4-0.9-1-1.2
		c-0.6-0.4-1.3-0.6-2.1-0.7c-0.2,0-0.5,0.1-0.7,0.2c-0.7,0.3-1.4,0.4-2.1,0.5c-0.5,0.1-5.8,0.9-7.5,1.1c0-0.9,0.2-1.8,0.4-2.8
		c0.1-0.3,0.2-0.6,0.2-0.9c0-0.8-0.5-1.3-2.1-2.1c2.8-0.3,5.6-0.7,8.4-1.4c1.6-0.4,2.2-0.7,2.2-1.1c0-0.6-1.5-1.5-2.5-1.5
		c-0.2,0-0.4,0.1-0.6,0.2c-1,0.6-2.2,1.1-3.4,1.4c-2.3,0.7-4.8,1.1-7.2,1.2c-1.3,0-2.6-0.6-3.5-1.5L634.5,2934.1z M636.5,2994.3
		c1.9-1.1,3.6-2.6,5-4.3c1.9-2.3,3.2-4.8,4.6-9.2c0.3-0.8,0.3-0.9,0.5-1.4c3.5-1.6,4.9-2.4,7.6-3.9c0.5-0.3,1-0.5,1.6-0.7
		c1-0.3,1.2-0.4,1.2-0.9s-0.9-1.6-2.3-2.7c-0.5-0.5-1.1-0.8-1.7-0.9c-0.1,0-0.3,0-0.4,0.1c-0.7,0.3-0.9,0.4-5.9,1
		c-1.2,0.1-1.9,0.2-2.2,0.3c-6,0.8-6.6,0.8-7.7,0.8c-1.4,0.1-2.7-0.7-3.2-1.9c-0.1,0.2-0.2,0.5-0.2,0.7c0.1,0.6,0.3,1.2,0.6,1.7
		c0.7,1.2,1.9,2.1,2.6,2.1c0.3,0,0.5-0.1,0.7-0.2c1.1-0.5,2.1-0.8,3.3-1.1c3.6-0.9,7.3-1.5,11-1.8c1.5,0,1.9,0.1,1.9,0.5
		c0,0.2-0.3,0.6-1,1.3c-1.8,1.7-3.7,3.2-5.7,4.6c-0.2-0.4-0.5-0.7-1.4-1.1c-0.8-0.5-1.6-0.8-2.5-0.9c-0.3,0-0.6,0.1-0.7,0.3
		c1.3,0.5,1.9,1.2,1.9,2c-0.3,2.4-0.9,4.8-1.9,7c-1.3,3.1-3.3,5.9-5.8,8.1L636.5,2994.3z M644.6,3031.2c2.2-0.3,4.3-1,6.2-2
		c4-2.1,6.4-5.7,6.4-9.7c0.1-2.8-1-5.6-3.1-7.5c-2.3-2-5.2-3-8.3-2.9c-4.1,0-8.1,1.6-11,4.5c-1.7,1.7-2.7,3.9-2.9,6.3
		c0,1,0.3,2,0.7,2.9c0.6,1,1,2,1.4,3c0.2,0.7,0.5,1.4,0.9,2c0.3,0.4,0.9,0.7,1.4,0.7c1.2,0,2.8-1.6,4.8-4.8
		c2.4-3.9,4.2-8.6,4.2-11.1c0-1-0.4-1.9-1-2.7c0.4,0,0.7-0.1,1.1-0.1c1.9,0,3.9,0.5,5.5,1.5c2.4,1.5,3.8,4.2,3.6,7.1
		c0,2.8-1,5.6-2.8,7.7c-2,2.2-4.6,3.8-7.5,4.4L644.6,3031.2z M643.7,3010.1c0.3,0.5,0.4,1,0.4,1.6c0,2-1.7,6.1-4.1,9.9
		c-1.6,2.5-3.1,4.2-3.8,4.2c-0.4,0-0.8-0.4-1.2-0.9c-0.8-1.2-1.3-2.7-1.3-4.2C633.8,3015.8,638.2,3011.1,643.7,3010.1L643.7,3010.1z
		"/>
	<path id="パス_4069" class="st0" d="M594.9,2865.9c1.5-1.8,2.8-3.8,4-5.9c1.4-0.3,1.6-0.4,1.6-0.6c0-0.1-0.1-0.2-0.4-0.5
		c-0.8-0.7-1-0.9-1.9-1.6c-0.7,0.7-0.9,0.9-1.5,1.6h-1.8v-4.7c1-0.3,1.2-0.5,1.2-0.7c0-0.3-0.4-0.4-2-0.5c-0.4,0-0.9-0.1-1.6-0.2
		c0.2,0.9,0.3,1.8,0.3,2.8v3.4h-2.6c-0.8,0-1.7-0.1-2.5-0.3l0.2,1.2c0.8-0.1,1.5-0.2,2.3-0.2h6.4c-1.1,2.3-2.4,4.5-3.9,6.6
		s-3.3,4-5.3,5.7l0.4,0.5c1.8-1.1,3.5-2.5,5.1-4.1v5.6c-0.1,4.6-0.1,7.1-0.1,7.4c0.1,0.3,0.2,0.3,0.7,0.3h0.4c0.8,0,1.1-0.1,1.2-0.5
		c-0.1-1.5-0.1-1.5-0.1-7.4v-6.9c1.5,1,2.9,2.2,3.9,3.6c0.6,0.9,0.6,0.9,0.8,1.1c0.1,0.1,0.2,0.1,0.4,0.2c0.4,0,0.7-0.7,0.7-1.5
		c0-1-0.6-1.9-1.5-2.2c-1.4-0.8-2.8-1.3-4.3-1.7L594.9,2865.9z M606.1,2864.6v14.5h-5.7c-1.1,0-2.2-0.1-3.3-0.3l0.3,1.2
		c1-0.2,2-0.2,3-0.2h16.7c0.2,0,0.3-0.1,0.3-0.2c0-0.1-0.1-0.2-0.2-0.2c-0.9-1-1.9-1.9-3-2.8c-1,1.1-1.3,1.4-2.1,2.5h-3.9v-14.5h8
		c0.2,0,0.3-0.1,0.3-0.3c0-0.1-0.1-0.2-0.1-0.2c-1.3-1.2-1.7-1.5-3-2.7l-1.9,2.4h-3.3v-9.6c0.9-0.4,1.3-0.6,1.3-0.8
		c0-0.3-0.4-0.4-2-0.6c-0.3,0-1-0.1-1.7-0.2c0.2,1.3,0.2,2.7,0.2,4v7.2h-4.4c-0.9,0-1.9-0.1-2.8-0.3l0.3,1.2
		c0.8-0.1,1.7-0.2,2.6-0.2h4.4V2864.6z M606.5,2898.6h10.1c0.2,0,0.4-0.1,0.4-0.2c0-0.1-0.1-0.2-0.1-0.3c-1.2-1-1.5-1.3-2.8-2.3
		c-0.9,0.9-1.1,1.2-2,2h-20.4c-1,0-2-0.1-2.9-0.3l0.2,1.2c0.9-0.2,1.8-0.2,2.7-0.2h3.7c-0.6,1.1-1.4,2.2-2.3,3.1
		c-1.5,1.7-3.2,3.3-5.1,4.5l0.3,0.4c1.8-0.8,3.5-1.8,4.9-3c1,0.7,1.8,1.5,2.5,2.5c0.2,0.3,0.3,0.3,0.5,0.4c-2.5,1.9-5.3,3.3-8.3,4.3
		l0.2,0.5c2.6-0.5,5.1-1.4,7.4-2.7c2.8-1.4,5.2-3.6,6.8-6.2c1.1-0.4,1.2-0.4,1.2-0.6c0-0.1-0.1-0.2-0.3-0.4
		c-0.7-0.6-0.9-0.7-1.7-1.3c-0.6,0.5-0.7,0.6-1.3,1.1h-4.5c0.7-0.8,1.4-1.6,2-2.6h6.6v8.2c0.1,1.6,0.4,1.7,5.5,1.7
		c6,0,6.8-0.2,6.8-1.2c0-0.4-0.3-0.7-0.7-0.8c-0.6-0.2-0.6-0.2-0.6-0.4v-0.7l0.2-2.5h-0.4c-0.4,1.2-0.9,2.4-1.4,3.6
		c-0.2,0.3-0.4,0.4-1.6,0.4h-1.3c-0.8,0-1.3,0-1.6,0c-0.9,0-2.4-0.1-2.6-0.1c-0.3-0.1-0.4-0.2-0.4-0.6v-1.8c2.3-0.5,4.6-1.3,6.8-2.4
		c0.4,0,1,0,1.2,0c0.4,0,0.6-0.1,0.6-0.3s-0.4-0.5-2.7-1.7c-1.7,1.6-3.7,2.9-5.8,3.8v-5.1L606.5,2898.6L606.5,2898.6z M600.5,2901.9
		c-1,1.6-2.2,3-3.6,4.2c0.2-0.3,0.3-0.6,0.3-0.9c0-0.5-0.4-0.8-1.4-1.2c-0.6-0.2-1.3-0.4-2-0.5c0.6-0.5,1-0.8,1.6-1.4L600.5,2901.9z
		 M599.2,2893.5v-1.6c1.1-0.3,1.3-0.4,1.3-0.6c0-0.3-0.4-0.4-1.9-0.5c-0.4,0-0.9-0.1-1.6-0.2c0.1,0.7,0.1,1.4,0.1,2
		c0,0.3,0,0.5,0,0.9H591c-0.9,0-1.9-0.1-2.8-0.3l0.2,1.2c0.8-0.1,1.7-0.2,2.6-0.2h6.1c0,0.6,0,0.9-0.1,2c0,0.2,0.1,0.3,0.3,0.3
		c0.6,0,1.2,0,1.7-0.2c0.1-0.1,0.1-0.1,0.1-0.3c0-0.4-0.1-0.6-0.1-0.8v-0.6v-0.4h6.1c0,0.6,0,1-0.1,2c0,0.2,0.1,0.3,0.4,0.3
		c1.4,0,1.7-0.1,1.8-0.4c0-0.9,0-1.2,0-1.8h9.8c0.2,0,0.3-0.1,0.3-0.2c0-0.1-0.1-0.2-0.1-0.3c-1.3-1.1-1.7-1.4-3-2.4
		c-0.9,0.9-1.2,1.2-2,2.1h-4.9c0-0.4,0-0.4,0-1.6c1.1-0.3,1.3-0.4,1.3-0.6c0-0.3-0.8-0.4-3.6-0.7c0.1,0.9,0.2,1.8,0.2,2.7
		c0,0.1,0,0.2,0,0.3L599.2,2893.5L599.2,2893.5z M591.4,2911.8c-0.9,0-1.8,0-2.7-0.2l0.2,1.2c0.8-0.2,1.7-0.2,2.5-0.2h5.8
		c-0.2,1.4-0.8,2.8-1.8,3.8c-1.4,1.4-3.3,2.3-7,3.2l0.1,0.5c3.9-0.4,6.7-1.4,8.6-3.2c1.2-1.1,2-2.7,2.1-4.3h6v2.1
		c0,1.6,0,2.5-0.1,4.7c0,0.3,0.1,0.4,0.4,0.4c0.6,0,1.1,0,1.7-0.2c0.1-0.1,0.2-0.2,0.2-0.3c-0.1-3.7-0.1-3.9-0.1-4.7v-2h9.7
		c0.1,0,0.3-0.1,0.3-0.2c0-0.1-0.1-0.2-0.1-0.3c-1.2-1.1-1.6-1.4-2.9-2.4c-0.9,0.9-1.1,1.2-2,2.1h-4.9v-1.4c1.1-0.4,1.1-0.5,1.1-0.7
		c0-0.3-0.3-0.3-3.3-0.6c0.1,0.9,0.1,1.8,0.1,2.7h-5.9c0.1-0.4,0.1-0.5,0.2-1.5c1-0.4,1.2-0.4,1.2-0.6c0-0.2-0.5-0.4-1.9-0.6
		c-0.4,0-0.9-0.1-1.5-0.2c0.1,0.5,0.1,0.9,0.1,1.4s0,1-0.1,1.6L591.4,2911.8z M594.6,2956.4c6.5-3.6,11.5-9.1,15.8-17.7
		c0.3-0.6,0.6-1.2,1.1-1.8c0.4-0.4,0.4-0.5,0.4-0.9s-0.3-0.9-1-1.5c-0.6-0.7-1.4-1.2-2.3-1.5c-0.3,0-0.3,0-0.6,0.2
		c-0.7,0.4-0.9,0.4-3.7,0.9c-3,0.6-6.1,1.1-9.1,1.3c-1.3,0.1-2.5-0.7-3-1.9c-0.1,0.2-0.2,0.4-0.2,0.6c0.1,0.7,0.4,1.4,0.8,2
		c0.8,1.1,1.6,1.7,2.3,1.7c0.4,0,0.8-0.1,1.2-0.3c1.9-0.8,3.9-1.4,5.9-1.8c1.9-0.5,3.9-0.8,5.9-1.1c0.5,0,0.6,0.1,0.6,0.4
		c0,1.1-1.8,5-3.8,8.5c-2.7,4.7-6.3,8.9-10.6,12.3L594.6,2956.4z M614.9,2928c-1.9,0-3.5,1.5-3.5,3.5l0,0c0,1.9,1.6,3.5,3.5,3.5
		s3.5-1.6,3.5-3.5C618.4,2929.6,616.9,2928,614.9,2928z M614.9,2929.1c1.4,0,2.5,1.1,2.5,2.4c0,1.4-1.1,2.5-2.5,2.5
		s-2.5-1.1-2.5-2.5C612.5,2930.2,613.5,2929.1,614.9,2929.1L614.9,2929.1z M595.7,2969.5c1.5,2.4,2.5,3,4.9,3
		c2.7-0.1,5.5-0.4,8.2-0.8c0.9-0.1,1.2-0.3,1.2-0.7c0-0.6-1.6-1.8-2.5-1.8c-0.2,0-0.5,0.1-0.7,0.2c-2.3,0.9-4.7,1.5-7.2,1.5
		c-1.4,0-2.6-0.6-3.4-1.7L595.7,2969.5z M596.8,2994.4c5.3-2.3,10.4-7.5,13.9-14c0.5-1.1,0.7-1.3,1.2-1.7c0.3-0.2,0.4-0.5,0.5-0.8
		c0-0.4-0.4-0.9-1.3-1.8c-0.7-0.6-1.2-1-1.5-1c-0.2,0-0.4,0.1-0.5,0.2c-0.8,0.4-1.7,0.7-2.6,0.7c-4.2,0.7-9.6,1.4-10.8,1.4
		s-2.3-0.7-2.8-1.9c-0.1,0.1-0.2,0.3-0.2,0.5c0,1.4,1.8,3.7,2.9,3.7c0.3,0,0.7-0.1,1-0.3c1.1-0.5,2.2-0.8,3.3-1
		c3.1-0.8,6.2-1.2,9.3-1.5c-1.2,3.6-3,6.9-5.4,9.8c-2.1,2.7-4.5,5.1-7.3,7.1L596.8,2994.4z M592.1,3010.3c2.1,1.2,3.8,2.8,5.2,4.7
		c0.9,1.1,1,1.3,1.4,1.3c0.5,0,0.9-0.7,0.9-1.8c0-0.9-0.4-1.7-1.1-2.2c-1.9-1.2-4-2-6.2-2.4L592.1,3010.3z M614.6,3011.5
		c-2.5,3.2-5.4,6.1-8.6,8.5c-2.4,2-4.9,3.8-7.6,5.3c-0.9,0.7-2,1.1-3.1,1.3c-0.5-0.1-0.9-0.3-1.3-0.7c-0.5-0.4-0.9-0.9-1.2-1.4
		c-0.1,0.2-0.2,0.4-0.2,0.6c0,1.6,2.4,4.7,3.7,4.7c0.4,0,0.6-0.2,1.1-0.8c0.2-0.3,0.4-0.4,1.9-1.5c3.2-2.2,6.2-4.6,9-7.3
		c2.7-2.5,5-5.4,6.7-8.6L614.6,3011.5z M596.5,3044.5c1.3,0.2,2,0.5,2.3,1.2c0.3,0.5,0.3,1,0.4,3.7c0.1,2.4,0.1,3.1,0.2,3.9
		c0.2,1.4,0.4,2.1,0.9,2.4c0.4,0.4,1,0.5,1.5,0.5c-1.4,0.7-2.7,1.6-3.9,2.6c-2.1,1.8-3.1,3.5-3.1,5.4c0,2.2,1.4,4.1,3.5,4.7
		c1.8,0.5,3.6,0.8,5.4,0.7c2.1,0,4.1-0.2,6.1-0.4c1-0.2,1.4-0.5,1.4-1.1c-0.1-0.9-0.8-1.5-1.7-1.6c-0.2,0-0.4,0-0.6,0.1
		c-2.4,0.6-4.9,0.9-7.4,0.9c-3.6,0-5.4-1.2-5.4-3.5c0-1.5,0.8-2.8,2.5-4.1c2-1.5,4.1-2.5,8-3.6c0.7-0.2,1.4-0.4,2.1-0.7
		c0.4-0.1,0.7-0.5,0.7-1c-0.1-0.8-0.8-1.3-1.5-1.3c-0.5,0-0.9,0.1-1.3,0.4c-2.9,1.4-3.6,1.6-4.3,1.6c-1,0-1.2-0.5-1.2-2.4
		c-0.1-2.2,0.2-4.4,0.7-6.5c0.2-0.6,0.3-0.6,0.3-0.8v-0.1c0-0.4-0.3-0.8-0.9-1c-1-0.4-2.1-0.6-3.2-0.6
		C597.4,3043.9,596.9,3044.1,596.5,3044.5z M596.5,3094c1.1-0.9,2-2.1,2.7-3.4h5.8c0,1.1,0,1.2-0.1,2.4c0,0.3,0.1,0.4,0.7,0.4
		c1.1,0,1.3-0.1,1.4-0.5c0-1.1-0.1-1.6-0.1-2.3h7.5c-0.2,1.5-0.4,2-0.7,2c-0.7-0.1-1.5-0.2-2.2-0.4c-0.2,0-0.4-0.1-0.7-0.1l-0.1,0.4
		c1.8,0.6,2.3,1,2.4,2.1c1.6-0.1,2.3-0.4,2.6-1.1c0.3-0.8,0.5-1.7,0.5-2.6c0.6-0.3,0.8-0.4,0.8-0.5s-0.1-0.2-0.3-0.4
		c-0.6-0.5-0.8-0.7-1.5-1.2c-0.5,0.5-0.7,0.7-1.2,1.2h-7v-2.6h5.5v0.5c0,0.3,0.1,0.3,0.7,0.3c1.1,0,1.3-0.1,1.3-0.5
		c-0.1-1.3-0.1-1.8-0.1-3.4c0.7-0.4,1-0.6,1-0.8c0-0.1-0.1-0.2-0.4-0.4c-0.5-0.4-1.1-0.8-1.7-1.1c-0.4,0.4-0.8,0.8-1.1,1.3H607v-1.4
		c1-0.3,1.3-0.4,1.3-0.7s-0.1-0.4-3.3-0.6c0.1,0.9,0.2,1.8,0.1,2.8h-4.7v-1.5c0.9-0.2,1.2-0.4,1.2-0.7s-0.2-0.4-3.4-0.6
		c0.1,0.7,0.2,1.5,0.2,2.2c0,0.2,0,0.4,0,0.6h-5.2c-1,0-2.1-0.1-3.1-0.3l0.2,1.2c1-0.2,1.9-0.2,2.9-0.2h5.2c0,1.3-0.1,1.7-0.2,2.7
		h-4.4c-0.9-0.6-1.2-0.7-2-1.2c-0.5,2.2-1.3,4.4-2.4,6.4c0,0.1-0.1,0.2-0.1,0.3c0,0.3,0.4,0.4,1.5,0.4c0.4,0,0.5-0.1,0.7-0.4
		c0.2-0.5,0.3-0.7,0.5-1.3h5.1c-0.6,1.2-1.5,2.2-2.5,3.1c-0.5-0.2-1-0.4-1.5-0.5c0.1,0.6,0.1,1.1,0.1,1.7c-1.5,1.2-3.1,2.2-4.8,3
		l0.3,0.4c1.6-0.5,3.1-1.2,4.6-2.1v3.6c0,2,0,3.2-0.1,5.3v0.1c0,0.3,0.2,0.4,0.8,0.4c1.1,0,1.4-0.1,1.4-0.5v-0.7h14.2v0.4
		c0,0.3,0.1,0.4,0.6,0.4c1.4,0,1.6-0.1,1.6-0.5c-0.1-4.2-0.1-4.2-0.1-9.5c0.6-0.4,0.7-0.4,0.7-0.6c0-0.1-0.1-0.2-0.2-0.3
		c-0.6-0.5-1.1-0.9-1.8-1.3c-0.4,0.4-0.5,0.6-0.9,1L596.5,3094z M595.4,3094.7h14.2v2.4h-14.1v-2.4H595.4z M609.6,3097.8v2.4h-14.1
		v-2.4H609.6z M609.6,3101v2.8h-14.1v-2.8H609.6z M605,3087.3c0,1.2,0,1.2,0,2.6h-5.5c0.3-0.8,0.5-1.7,0.6-2.6H605z M598.1,3087.3
		c-0.1,0.9-0.3,1.8-0.6,2.6h-5.2c0.5-1.5,0.5-1.5,0.9-2.6H598.1z M600.1,3086.5c0.1-0.9,0.1-1.2,0.2-2.7h4.7v2.7H600.1z
		 M606.9,3086.5v-2.7h5.5v2.7H606.9z M588.6,3110.2c3.6-0.4,7.1-1.4,10.4-2.8h0.9c0.8,0,1-0.1,1-0.4c0-0.2-0.2-0.3-1.7-0.9
		c-0.3-0.1-0.8-0.3-1.4-0.6c-1.6,1.5-4.6,2.8-9.3,4.2L588.6,3110.2z M605.5,3106.3c3.2,0.7,6.3,1.9,9.2,3.5c0.6,0.4,0.8,0.4,1.1,0.4
		s0.4-0.2,0.4-0.6c0-1.2-0.8-2.2-2-2.5c-2.8-0.7-5.6-1.2-8.5-1.3L605.5,3106.3z M601.8,3135.4v2.9c0,1.3,0,4.8-0.1,6.8
		c0,0.4,0.2,0.5,0.6,0.5h0.4c1,0,1.2-0.2,1.3-0.7c0-1.2,0-1.2-0.1-2.8c0-1.8,0-1.8,0-3.8v-2.9h7.9v8.8c0,0.4-0.1,0.4-0.4,0.4h-0.3
		c-0.9,0-0.9,0-2.1-0.1c-1.9-0.1-1.9-0.1-3-0.2v0.5c3.6,0.4,3.8,0.6,4.3,2.5c1-0.1,1.9-0.4,2.8-0.8c0.6-0.2,1-0.8,1-1.5
		c-0.1-4.1-0.1-5.3-0.1-8.1V3122c1-0.6,1.2-0.7,1.2-1c0-0.1-0.1-0.3-0.4-0.4c-0.9-0.7-1.1-0.9-2-1.5c-0.5,0.5-0.9,1-1.3,1.5h-17.1
		c-0.8-0.6-1.7-1.1-2.6-1.6c0.1,1.5,0.2,2.5,0.2,4.1c0,1.3-0.1,5.7-0.1,7.2c0.1,2.9-0.2,5.7-0.8,8.5c-0.7,3.1-2.1,6.1-4.1,8.5
		l0.4,0.3c1.9-1.5,3.5-3.5,4.5-5.7c1-2.1,1.7-4.3,2-6.6L601.8,3135.4z M604,3134.7v-6.6h7.9v6.6H604z M601.8,3134.7h-7.7
		c0.2-1.9,0.2-3.6,0.2-6.6h7.5V3134.7z M604,3127.4v-6h7.9v6H604z M601.8,3127.4h-7.5v-2.4c0-1,0-1.7,0-2s0-0.9,0-1.5h7.5V3127.4z"
		/>
</g>
</svg>
