<?xml version="1.0" encoding="UTF-8"?><svg id="_イヤー_2" xmlns="http://www.w3.org/2000/svg" viewBox="0 0 86.7 260.15"><g id="_イヤー_1-2"><path d="M33.87,1.99c.47,.11,.66-.43,1.33-.13-2.04,1.55-4.17,2.85-5.85,4.68,.66-.47,1.32-.94,1.97-1.42,1.91-1.41,3.83-2.78,6.41-2.45,.54,.07,.93-.22,1.33-.61,1.06-1,2.43-1.27,3.83-1.3,1.7-.03,3.4-.02,5.1,0,.76,0,1.49,0,2.14-.49,.26-.19,.61-.45,.95-.1,.87,.9,2.1,.74,3.16,1.16,.03-.46-.64-.46-.44-.82,.22-.4,.63-.16,.95-.06,4.64,1.53,8.52,4.22,11.89,7.72,.37,.38,.56,.85,.56,1.39,0,.32,0,.64,.03,.95,.06,.48,.24,.92,.68,1.19,.07,.04,.27,.02,.31-.04,.33-.45-.09-.81-.15-1.22-.07-.48-.62-.87-.28-1.45,2.01,2.11,2.8,4.76,3.41,7.48,1.76,7.77,.54,15.14-3.1,22.13-1.07,2.06-2.39,4-4.08,5.64-.48,.46-.92,.78-1.66,.69-.69-.08-1.29,.29-1.76,.82-.14,.16-.4,.33-.07,.56,.89,.63,.34,.93-.28,1.19-.95,.4-1.82,.96-2.64,1.57-2.74,2.04-5.91,2.67-9.2,3.04-8.78,.99-15.7-2.84-21.84-8.51-2.44-2.26-3.72-5.36-4.88-8.44-1.03-2.73-2.13-5.45-2.55-8.36-.23-1.55-.43-3.09-.02-4.68,.34-1.29,.45-2.64,.65-3.96,.55-3.79,2.7-6.78,4.95-9.69,1.98-2.56,4.12-4.98,6.91-6.73,.37-.23,.74-.46,1.14-.63,1.07-.45,1.19-.36,1.11,.85Z" fill="#c8a463"/><g><path d="M65.8,77.65c2.6-1.6,4.5-3.2,6.5-5.6,1.5-1.8,2.6-3.3,3.2-4.6,.5,.2,.9,.3,1.2,.3,1.2,.3,1.3,.4,1.3,.6s-.2,.2-.9,.4c.9,1.7,2.2,3,4.3,4.4,1.9,1.3,3.7,2.1,5.3,2.6l-.1,.3c-.7,.1-1.1,.3-1.6,1.3-1.8-1-3.3-2-4.5-3.2-1.6-1.5-2.8-3.2-3.8-5.2-1.6,2.3-3.1,4-5.2,5.6-2,1.6-3.5,2.5-5.5,3.4l-.2-.3Zm14.4,1.5l1.2-1.4c.9,.7,1.2,.9,2.1,1.6q.1,.1,.1,.2c0,.1-.1,.1-.2,.1h-6v5.8h5c.6-.7,.7-.9,1.3-1.6,1,.8,1.3,1,2.2,1.8,.1,.1,.1,.2,.1,.2,0,0,0,.1-.1,.1h-17.3c-.7,0-1,0-1.8,.1l-.2-.8c.9,.2,1.2,.2,2.1,.2h2v-8.5c2,.2,2.4,.3,2.4,.5s-.2,.3-.8,.6v7.5h3.6v-12.3c1.9,.2,2.4,.3,2.4,.5s-.2,.3-.9,.5v4.9h2.8Z" fill="#42210b"/><path d="M76.6,102.15h3.9c.5-.5,.6-.7,1.1-1.2,.7,.6,1,.8,1.7,1.4q.1,.1,.1,.2c0,.1-.1,.1-.2,.1h-6.6v2h5.8c.5-.6,.7-.8,1.3-1.3,.8,.6,1.1,.8,1.9,1.5,0,.1,.1,.2,.1,.2,0,.1-.1,.1-.2,.1h-8.4c.6,.6,1.6,1.4,2.5,2,1.2,.7,2.8,1.3,4.3,1.7,.7,.2,1.2,.2,2.3,.4v.3c-.8,.2-1,.4-1.5,1.3-2.4-.9-3.4-1.4-4.8-2.4-1.2-.9-2-1.7-3.2-3.1v6.1c0,.3-.2,.4-1.2,.4-.2,0-.3-.1-.3-.3h0c0-1,.1-3.4,.1-4.2v-1.8c-1.5,1.5-2.7,2.5-4.4,3.4-1.2,.7-2.2,1.1-4.5,1.9l-.2-.3c2.2-.9,3.7-1.8,5.3-3.1,1.1-.8,1.5-1.3,2.4-2.3h-4.7c-.8,0-1.5,.1-2.2,.2l-.1-.9c.8,.2,1.4,.2,2.4,.2h6v-2h-3.9c-.7,0-1.3,0-2.1,.1l-.1-.9c.9,.2,1.4,.2,2.2,.2h3.9v-2h-5.1c-.7,0-1.2,0-2,.1l-.2-.7c.9,.2,1.3,.2,2.2,.2h3.4q-.1-.2-.2-.5c-.3-.9-.7-1.6-1.2-2.3l.2-.3h-3.4c-1.1,0-1.5,0-2.1,.1l-.2-.9c1,.2,1.4,.3,2.3,.3h4.6v-2c0-.7,0-1.1-.1-1.9,1.9,.2,2.2,.2,2.2,.5,0,.2-.2,.3-.8,.5v3h2.2v-3.9c1.8,.2,1.9,.2,2,.3,.2,0,.2,.1,.2,.2,0,.2-.1,.2-.8,.5v3h1.2c1.4-2.3,1.7-2.8,1.9-3.7,.6,.3,1.5,.6,1.9,.8q.2,.1,.2,.2c0,.2-.2,.2-.9,.3-1.6,1.5-1.6,1.6-2.5,2.4h2.7q.5-.6,1.2-1.4c.9,.6,1.1,.9,1.9,1.6q.1,.1,.1,.2c0,.1-.1,.1-.2,.1h-6.8q.7,.4,1.7,.9c.2,.1,.3,.2,.3,.3,0,.2-.2,.2-.5,.2h-.5c-.3,.2-.5,.4-.6,.5-.8,.7-1,.8-1.4,1.1h3.7l1.2-1.2c.8,.6,1.1,.8,1.9,1.4,0,0,.1,.1,.1,.2s-.1,.1-.2,.1h-8.2l-.1,1.9h0Zm-7.3-9.7c1.9,.9,2.6,1.5,2.6,2.2,0,.5-.4,1.2-.7,1.2-.2,0-.3-.2-.5-.7-.4-1-.9-1.7-1.6-2.5l.2-.2Zm3,4.1c1.8,1.3,2.2,1.7,2.2,2.2,0,.3-.2,.6-.5,.9h3.6c.9-1.4,1.2-2.2,1.4-3.1h-6.7Z" fill="#42210b"/><path d="M78.2,121.45c0,1.1-.9,2-2,2s-2-.9-2-2,.9-2,2-2,2,.9,2,2Z" fill="#42210b"/><path d="M69,149.95c0,.3-.2,.4-.9,.4h-.3c-.2,0-.3-.1-.3-.3h0c.1-4.8,.1-6,.1-12.1,0-5.1,0-5.6-.1-6.5,.7,.3,1,.4,1.7,.8h13.8c.4-.5,.5-.6,.9-1,.6,.5,.8,.6,1.4,1,.1,.1,.2,.3,.2,.3,0,.2-.2,.3-.7,.5v1.5c0,7.5,0,11.8,.1,15.1,0,.2,0,.3-.2,.3s-.7,.1-1,.1-.4-.1-.4-.3v-1h-14.3v1.2Zm0-1.6h14.3v-15.5h-14.3v15.5Zm9.1-12.9c0-.5,0-.8-.1-1.7,2.3,.3,2.4,.3,2.4,.5s-.2,.3-.9,.5v2.5h.5c.5-.6,.6-.8,1.1-1.3,.8,.6,1,.8,1.6,1.5q.1,.1,.1,.2c0,.1-.1,.2-.2,.2h-3v8c-.1,.7-.2,.9-.6,1.2s-.9,.4-2,.5c0-.6-.2-.8-.7-1.1s-1.2-.4-2.5-.5v-.4q2.5,.2,3.9,.2h.1c.3,0,.4-.1,.4-.3v-7.7h-6c-.9,0-1.2,0-1.8,.1l-.1-.8c.7,.2,1.2,.2,1.9,.2h6v-1.8h-.1Zm-5.9,3.4c1.5,.9,2,1.3,2.6,1.8,.6,.6,.9,1,.9,1.4,0,.6-.4,1.4-.7,1.4-.2,0-.3-.1-.5-.7-.6-1.3-1.2-2.3-2.4-3.7l.1-.2Z" fill="#42210b"/><path d="M66,166.35c.8-.9,1.2-1.6,1.9-3,1.6-3.1,2.4-5.3,3-7.7,2.1,.6,2.3,.7,2.3,.9s-.2,.3-1,.4c-.9,2.3-1.6,3.7-2.7,5.5,1.2,.1,1.5,.2,1.5,.4s-.2,.3-.7,.5v11.4q0,.2-.2,.3c-.1,.1-.6,.1-.9,.1s-.3-.1-.4-.4v-11.3c-1.1,1.6-1.6,2.2-2.6,3.1l-.2-.2Zm11.5,3.6v-2.2l.1-5.2c-1.2,2.6-2,3.7-3.2,5.2-1.1,1.4-2.1,2.3-3.5,3.4l-.2-.3c1.7-1.7,2.8-3.3,4.2-5.7,.8-1.5,1.2-2.4,1.8-4h-3c-.9,0-1.2,0-2,.1l-.2-.9c.8,.2,1.6,.2,2.4,.2h3.7v-3c0-.5,0-.9-.2-1.7,2.5,.3,2.6,.3,2.6,.5s-.1,.2-.9,.5v3.7h3.6c.5-.7,.7-.9,1.2-1.6,.9,.7,1.2,.9,2.1,1.7,.1,.1,.1,.2,.1,.2,0,.1-.1,.2-.2,.2h-6.8c.6,1.5,1,2.3,2.1,3.6s2.4,2.5,3.6,3.3c.5,.3,.9,.5,1.8,.9l-.1,.2c-.8,.2-1.2,.5-1.6,1.3-1.4-1.2-2.5-2.3-3.6-4s-1.8-3-2.4-4.9l.1,6.2v2.2h1.4c.5-.6,.6-.8,1.1-1.4,.8,.7,1,.9,1.7,1.6,0,.1,.1,.1,.1,.2s-.1,.1-.2,.1h-4.1q0,2.9,.1,4.4c0,.2-.1,.2-.3,.3-.4,.1-.6,.1-.9,.1-.4,0-.5,0-.5-.3q0-1.6,.1-4.5h-2.5c-.6,0-.9,0-1.6,.1l-.2-.8c.7,.2,1,.2,1.9,.2l2.4,.1h0Z" fill="#42210b"/><path d="M71.1,197.45c.3-1.7,.7-3,1.6-4.2,.8-1.2,1.7-2.1,4.5-4.3,.9-.7,1.3-1.2,1.6-1.7,.3-.6,.5-1.2,.5-1.8,0-1.8-1.2-3-2.9-3-1.3,0-2.2,.6-2.6,1.7-.1,.4-.2,.8-.2,1.6,0,.7-.3,.9-1,.9-.8,0-1.1-.2-1.1-.9,0-2.2,2.2-3.9,5-3.9,1.8,0,3.3,.6,4.1,1.6,.5,.6,.7,1.3,.7,2.3,0,1.8-.8,2.9-3.2,4.3-2.7,1.7-3.3,2.1-4.2,3-.9,.9-1.4,1.6-1.8,2.7h6.2c1.6,0,2.1-.5,2.5-2.3l.6,.2-.4,3.8h-9.9Z" fill="#42210b"/><path d="M72.9,210.25c1.1-1.1,2.2-1.6,3.8-1.6,2.9,0,4.7,1.9,4.7,4.8s-2.1,5-5.5,5c-2.5,0-4.6-1.3-4.6-2.8,0-.6,.4-.9,1.2-.9,.7,0,.9,.2,.9,.9,.1,1.4,1.1,2.3,2.6,2.3,2,0,3.4-1.7,3.4-4.3,0-1.2-.3-2.3-.8-3.1s-1.4-1.2-2.4-1.2c-1.5,0-2.9,1-3.6,2.5l-.7-.1,.7-8.9h8.1l-.3,1.7h-7.1l-.4,5.7Z" fill="#42210b"/><path d="M72.1,225.75c.8-1.5,2.3-2.4,4.2-2.4,1.8,0,3.4,.9,4.2,2.4,.8,1.5,1.2,3.4,1.2,5.6s-.4,4.1-1.2,5.6c-.8,1.5-2.3,2.4-4.2,2.4-1.8,0-3.4-.9-4.2-2.4-.8-1.5-1.2-3.5-1.2-5.6-.1-2.1,.4-4.1,1.2-5.6Zm4.1,13c2.3,0,3.3-2.3,3.3-7.4s-1-7.4-3.3-7.4-3.3,2.3-3.3,7.4c0,5.1,1,7.4,3.3,7.4Z" fill="#42210b"/><path d="M72.1,246.55c.8-1.5,2.3-2.4,4.2-2.4,1.8,0,3.4,.9,4.2,2.4,.8,1.5,1.2,3.4,1.2,5.6s-.4,4.1-1.2,5.6c-.8,1.5-2.3,2.4-4.2,2.4-1.8,0-3.4-.9-4.2-2.4-.8-1.5-1.2-3.5-1.2-5.6-.1-2.2,.4-4.1,1.2-5.6Zm4.1,12.9c2.3,0,3.3-2.3,3.3-7.4s-1-7.4-3.3-7.4-3.3,2.3-3.3,7.4c0,5.2,1,7.4,3.3,7.4Z" fill="#42210b"/><path d="M40.8,67.95c.6,0,1.7,.2,2.2,.4,.4,.2,.6,.4,.6,.7h0q0,.2-.2,.6c-.3,.7-.5,2.6-.5,4.4,0,1.3,.2,1.6,.8,1.6,.5,0,.9-.2,2.9-1.1,.4-.2,.6-.3,.9-.3,.5,0,1,.5,1,.9,0,.3-.2,.5-.5,.6-.2,.1-.5,.2-1.4,.5-2.6,.7-4,1.4-5.4,2.4-1.2,.9-1.7,1.7-1.7,2.8,0,1.5,1.2,2.3,3.6,2.3,1.3,0,3.4-.3,5-.6,.2,0,.3-.1,.4-.1,.6,0,1.2,.5,1.2,1.1,0,.4-.2,.6-.9,.7s-2.8,.3-4.1,.3c-1.6,0-2.8-.2-3.7-.5-1.4-.5-2.3-1.8-2.3-3.2,0-1.2,.7-2.4,2.1-3.6,.6-.6,1.4-1,2.6-1.7-.5,0-.7-.1-1-.3-.3-.2-.5-.7-.6-1.6-.1-.5-.1-1-.2-2.6-.1-1.8-.1-2.2-.3-2.5-.2-.4-.6-.6-1.5-.8,.4-.4,.5-.4,1-.4Z" fill="#42210b"/><path d="M43.8,107.65c2.3-.7,3.8-1.6,5-3,1.3-1.4,1.9-3.2,1.9-5.2,0-2.1-.8-3.7-2.4-4.8-.9-.6-2.4-1-3.7-1h-.8c.5,.8,.7,1.2,.7,1.8,0,1.7-1.2,4.8-2.8,7.4-1.4,2.2-2.4,3.2-3.2,3.2-.4,0-.7-.2-.9-.5s-.2-.3-.6-1.4c-.2-.6-.3-.8-.9-2-.3-.7-.5-1.3-.5-2,0-1.4,.7-2.9,1.9-4.3,1.7-1.9,4.6-3,7.4-3,2.2,0,4.2,.7,5.6,2,1.4,1.3,2.1,3,2.1,5.1,0,2.7-1.6,5.1-4.3,6.5-1.2,.7-2.4,1-4.2,1.3l-.3-.1Zm-7.1-6.7c0,1,.3,2.1,.9,2.8,.3,.4,.6,.6,.8,.6,.5,0,1.5-1.2,2.6-2.8,1.6-2.5,2.7-5.3,2.7-6.7,0-.3-.1-.5-.3-1.1-3.8,.8-6.7,3.9-6.7,7.2Z" fill="#42210b"/><path d="M48.2,116.15c-.3,2.1-.4,2.7-.8,3.8-.6,1.8-1.9,3.4-3.8,4.6q.7,.1,1.8,.4c.3,.1,.4,.2,.4,.3,0,.2-.3,.4-1,.5-.2,.6-.2,.9-.4,1.3h6c.5-.6,.7-.8,1.2-1.5,.9,.7,1.1,.9,2,1.7q.1,.1,.1,.2c0,.1-.1,.2-.3,.2h-8.5c.7,1.1,1.5,1.8,2.8,2.5,1.7,.9,3.9,1.4,6.4,1.4v.3c-.5,.2-.7,.3-1,.6s-.4,.5-.5,.9c-1.9-.5-2.8-.8-4-1.5-2-1.1-3.3-2.5-4.1-4.2h-.2c-.7,1.6-1.8,2.9-3.4,3.9-1.7,1.1-3.4,1.7-6.5,2.1l-.1-.3c2.7-.7,4-1.2,5.6-2.4,1.4-1,2.1-1.9,2.8-3.3h-6c-.7,0-1.1,0-1.9,.1l-.2-.8c1.1,.2,1.4,.2,2.1,.2h6.2c.4-1,.5-1.5,.5-2.3-.8,.5-1.3,.8-2.6,1.3l-.2-.3c1.3-.6,2.2-1.2,3.2-2.2,1.8-1.7,2.6-3.7,2.9-7.3h-.8c-.6,0-.9,0-1.4,.1l-.2-.8c.6,.1,1.1,.2,1.7,.2h5.2c.3-.4,.5-.5,.8-.9,.6,.4,.8,.5,1.3,.9,.2,.1,.2,.2,.2,.3,0,.2-.2,.3-.8,.5-.2,3.7-.5,5.7-.9,7-.4,1-1,1.4-2.9,1.7-.2-.7-.4-.9-.8-1.2-.3-.2-.6-.3-1.7-.4v-.3c1.9,.2,2.9,.2,3.2,.2,.6,0,.8-.2,1-1.2,.3-1.4,.6-3.7,.7-6.1h-3.1v-.2h0Zm-9.6-.3c0-.7,0-1-.2-1.7,2.1,.1,2.3,.2,2.3,.4s-.2,.3-.8,.5l.1,1.8h1.9c.5-.5,.6-.7,1.1-1.1,.7,.5,.9,.7,1.6,1.3,.1,.1,.1,.2,.1,.2,0,.1-.1,.2-.2,.2h-4.5l.1,2.4h1.6c.4-.5,.5-.7,.9-1.1,.7,.5,.9,.7,1.6,1.3q.1,.1,.1,.2c0,.1-.1,.2-.3,.2h-3.9l.1,2.4c1.1-.2,1.8-.3,3.4-.7l.1,.3c-1.8,.7-5.6,1.9-7.8,2.5-.1,.6-.2,.8-.4,.8-.1,0-.2-.1-.2-.2,0,0-.2-.7-.6-1.9,1.2,0,2.4-.2,4.1-.5l-.1-2.7h-1.7c-.5,0-1.1,0-1.7,.2l-.2-.8c.5,.1,1.2,.2,1.9,.2h1.9l-.1-2.4h-2.3c-.4,0-1.1,.1-1.6,.1l-.2-.8c.8,.1,1.2,.2,1.8,.2h2.3l-.2-1.3Z" fill="#42210b"/><path d="M33.9,157.35c.9-2.2,1.3-4.2,1.4-6.9,1.9,.5,2,.5,2,.7s-.2,.3-.7,.4c-.7,2.4-1.1,3.5-2.4,5.9l-.3-.1Zm.4-15.4c.9,.4,1.1,.5,1.8,.9,.9-1.6,1.5-3,1.8-4.3,.5,.2,.9,.3,1.2,.4,1,.3,1.2,.4,1.2,.6s-.2,.2-1.1,.3c-.5,.8-.7,.9-2.1,2.5q-.1,.1-.6,.7c.5,.4,.6,.5,.8,.6,.2,.2,.4,.6,.4,.8,0,.3-.2,.8-.3,1s-.2,.2-.3,.2c-.2,0-.2-.1-.4-.5-.1-.2-.5-.9-.8-1.3-.4-.6-.8-1.1-1.6-1.9h0Zm3.6,6.7c-.8,.2-.9,.2-2.5,.4-.1,.6-.2,.8-.4,.8s-.3-.2-.7-2.1h2.2c.6-.8,1-1.3,1.8-2.6,1.2-2,1.6-2.8,2-4,.4,.2,.9,.3,1.1,.4,.9,.3,1.1,.4,1.1,.6s-.3,.3-1,.3c-1.4,1.9-2.9,3.8-4.4,5.3,.9,0,1.5-.1,3.7-.3-.3-.7-.5-.9-1-1.7l.2-.2c.8,.7,1.5,1.4,2,2,.3,.4,.5,.8,.5,1.1,0,.6-.4,1.2-.8,1.2-.2,0-.3-.1-.5-.8-.1-.3-.2-.5-.4-1,0,0-.7,.2-1.9,.5v9.6c0,.2-.3,.3-1.1,.3-.2,0-.3-.1-.3-.2v-9.6h.4Zm2.4,1.5c1.5,1.9,2.3,3.2,2.3,3.9,0,.8-.5,1.6-.9,1.6-.2,0-.2-.1-.3-.2q0-.1-.2-1.2c-.2-1.4-.5-2.6-1.1-4l.2-.1Zm10.9-7.1c.4-.5,.6-.6,1-1,.5,.4,.7,.5,1.2,1,.2,.2,.2,.3,.2,.3,0,.2-.2,.3-.7,.5-.2,6.2-.3,6.5-.5,8.2-.2,1.6-.6,3.3-.9,4.2-.5,1.2-1.3,1.7-3.1,1.8-.1-.7-.3-1-.9-1.2-.4-.2-1-.3-2.7-.7v-.3c2.5,.2,3.6,.3,4.3,.3,.5,0,.6-.1,.8-.6,.7-1.5,1.2-6.2,1.2-11.2v-.9h-6.1c-.8,1.5-1.3,2.2-2.4,3.7l-.3-.2c1-1.8,1.5-3.1,2.1-5.3,.3-1.2,.5-2,.7-3.1,2,.5,2.4,.6,2.4,.9,0,.2-.2,.3-.9,.4-.7,1.6-.9,2.2-1.4,3.2h6Zm-6.5,3.3c1.1,.8,2,1.6,2.8,2.5,.7,.8,.9,1.1,.9,1.6,0,.7-.5,1.6-.9,1.6-.2,0-.3-.2-.4-.5-.6-1.7-1.4-3.4-2.7-5l.3-.2Z" fill="#42210b"/><path d="M1.4,78.15c1.5-2.7,2-3.7,2.8-5.9,.7-2,1.1-3.5,1.3-4.8,.8,.2,1.8,.5,2,.6s.3,.2,.3,.3c0,.2-.3,.3-.9,.4-1.2,3.1-1.5,3.9-2.2,5.1,1.3,.3,1.7,.4,1.7,.6s-.2,.3-.7,.5v11.8c0,.1-.1,.2-.2,.2-.2,0-.7,.1-1,.1s-.4-.1-.4-.4c.1-2.1,.1-5,.1-7.5v-4.5c-.7,1.2-1.2,2-2.6,3.7l-.2-.2Zm8.1,8.2q0,.2-.1,.3c-.1,.1-.6,.2-1.1,.2-.2,0-.3-.1-.3-.2h0c.1-3.3,.1-6.5,.1-10.1,0-2.8,0-5.9-.1-8.1,.7,.3,1,.5,1.6,.8h9c.4-.4,.5-.6,.9-1,.6,.4,.8,.6,1.3,.9,.1,.2,.2,.3,.2,.3,0,.1-.2,.3-.8,.6v13.7c0,.9,0,1.1,.1,2.4,0,.1,0,.2-.1,.2-.1,.2-.6,.3-1.2,.3-.2,0-.3-.1-.3-.3v-1.2H9.4l.1,1.2h0Zm0-1.5h9.3v-15.1H9.5v15.1Zm6.5-11.2c.4-.5,.6-.7,1-1.2l1.4,1.4q.1,.1,.1,.2c0,.1-.1,.1-.3,.1h-3.6v3.3h1.2c.3-.3,.4-.4,.7-.8,.5,.3,.6,.4,1.1,.8l.3,.3c0,.2-.1,.2-.5,.5v4.8c0,.2-.1,.2-.2,.3-.2,0-.6,.1-.9,.1-.2,0-.3-.1-.3-.3v-.9h-3.7v.9c0,.1,0,.2-.2,.3-.1,0-.7,.1-1,.1-.2,0-.3-.1-.3-.3,0-1.1,.1-1.8,.1-4.3,0-.3,0-.8-.1-2.3,.6,.3,.8,.4,1.4,.8h1.1v-3.3h-1.7c-.8,0-1,0-1.6,.1l-.1-.8c.7,.1,1.2,.2,1.8,.2h1.7v-1.6c0-.7,0-1-.1-1.6,1.9,.2,2.2,.3,2.2,.5s-.2,.3-.7,.5v2.2h1.2Zm-3.6,8.1h3.6v-3.9h-3.7v3.9h.1Z" fill="#42210b"/><path d="M1.9,111.05c2-1.4,3-2.4,4.1-3.8,2-2.6,3.3-5.4,3.9-8.7,.3-1.6,.5-3.3,.5-4.6,0-.4,0-.7-.1-1.2,2.3,.3,2.6,.4,2.6,.6s-.1,.2-.9,.6v.7c0,3.1,1.2,6.8,3,9.5,1.2,1.7,2.7,3.1,4.4,4.2,.8,.5,1.3,.8,2.5,1.2v.3h-.2c-.5,0-.8,.1-1.1,.4-.2,.2-.3,.4-.6,1.1-2.2-1.4-3.8-3-5.1-5.2-1-1.6-1.9-3.9-2.5-6-.3-.9-.4-1.6-.5-3.1-.6,4-1.6,6.7-3.4,9.3-1.7,2.3-3.4,3.8-6.3,5.3l-.3-.6Z" fill="#42210b"/><path d="M1.6,126.75c1.2-.8,1.9-1.4,3.2-2.6,2-2,3.5-3.8,4.7-5.8,.4-.6,.5-.9,.7-1.6,2.4,.5,2.5,.6,2.5,.8s-.3,.4-.8,.4c1.3,2.1,2.6,3.3,4.7,4.7,1.7,1.1,2.9,1.6,5.2,2.2v.2c-.9,.2-1.1,.5-1.6,1.8-1.7-.9-3.3-2-4.8-3.4-1-1-2.1-2.3-3-3.5-.4-.6-.6-.8-.9-1.6-1.3,2-2.7,3.7-4.7,5.4-1.6,1.5-3,2.4-5.1,3.5l-.1-.5Zm9.3,2.3c-2.2,3.2-2.4,3.6-3.7,5,3.4,0,6.6-.2,8.8-.5-.9-1.4-1.7-2.3-2.8-3.3l.2-.2c1.4,.8,2.9,1.9,4.3,3.2,.6,.5,.8,1,.8,1.5,0,.4-.2,1.1-.3,1.3-.1,.1-.2,.2-.4,.2s-.2-.1-.4-.3c-.4-.8-.8-1.6-1.1-2-3.4,.7-8.1,1.4-11.6,1.7-.2,.6-.3,.8-.5,.8-.1,0-.2,0-.3-.4-.1-.6-.3-1.5-.4-2.1q.5,0,1.7,.1h1.3c.9-1.6,1.2-2.2,2.3-5H4.4c-.7,0-.9,0-1.5,.1l-.2-.8c.6,.1,1,.2,1.7,.2h12.6c.5-.7,.7-.9,1.2-1.5,.9,.7,1.2,.9,2.1,1.7,0,.1,.1,.2,.1,.2,0,.1-.1,.2-.2,.2l-9.3-.1h0Zm-4.9-4.3c.5,.1,1.2,.2,1.7,.2h5.4c.5-.6,.7-.8,1.2-1.4,.9,.7,1.1,.9,2,1.6q.1,.1,.1,.2c0,.1-.1,.1-.3,.1H7.5c-.4,0-.7,0-1.5,.1v-.8Z" fill="#42210b"/><path d="M2.1,161.15c1.9-.7,2.9-1.2,4.3-2.1,1.1-.7,1.4-.9,1.8-1.4,.8,.3,1.7,.7,1.9,.8l.2,.2c0,.2-.2,.2-.5,.2h-.5c-2,1.2-3.7,1.8-7.1,2.5l-.1-.2Zm4.1-3.7c0,.3-.3,.3-1.1,.3-.3,0-.4,0-.4-.3,0-2,.1-3,.1-5.2v-5c.8,.4,1.1,.6,1.9,1.1h10.2c.3-.4,.5-.6,.8-.9,.6,.4,.8,.6,1.4,1.1l.2,.2c0,.2-.1,.2-.7,.6,0,3.6,0,5.3,.1,7.9,0,.3-.2,.4-.8,.4h-.4c-.2,0-.3-.1-.3-.3v-.6H6.2v.7Zm.8-10.5c0,.3-.2,.3-.9,.3-.4,0-.5,0-.6-.3v-3.4c0-.7,0-.9-.1-1.6,.7,.4,1,.5,1.7,.9H15.9c.4-.4,.6-.6,1-.9,.5,.4,.7,.6,1.2,1,.1,.1,.2,.2,.2,.3s0,.1-.7,.5c0,1.7,0,1.9,.1,2.9,0,.2-.1,.3-.2,.3-.2,0-.6,.1-.9,.1-.2,0-.3-.1-.3-.2v-.4H7v.5Zm10,4.1v-2.1H6.2v2.1h10.8Zm-10.8,.5v2.2h10.8v-2.2H6.2Zm0,2.7v2.2h10.8v-2.2H6.2Zm.8-8.1h9.3v-2.6H7v2.6Zm6.8,11.6c2.5,.5,4.5,1.1,5.1,1.4,.8,.4,1.1,.9,1.1,1.7,0,.4-.1,.6-.3,.6s-.3-.1-.6-.3c-1.7-1.3-2.8-2-5.4-3.1l.1-.3Z" fill="#42210b"/><path d="M0,183.85c.3-1.7,.7-3,1.6-4.2,.8-1.2,1.7-2.1,4.5-4.3,.9-.7,1.3-1.2,1.6-1.7,.3-.6,.5-1.2,.5-1.8,0-1.8-1.2-3-2.9-3-1.3,0-2.2,.6-2.6,1.7-.1,.4-.2,.7-.2,1.6,0,.7-.3,.9-1,.9-.8,0-1.1-.3-1.1-.9,0-2.2,2.2-3.9,5-3.9,1.8,0,3.3,.6,4.1,1.6,.5,.6,.7,1.3,.7,2.3,0,1.8-.8,2.9-3.2,4.3-2.7,1.7-3.3,2.1-4.2,3s-1.4,1.6-1.8,2.7H7.2c1.6,0,2.1-.5,2.5-2.3l.6,.2-.6,3.7-9.7,.1H0Z" fill="#42210b"/><path d="M23.3,179.95c0,2.6-2.1,4.2-5.4,4.2s-5.2-1.5-5.2-4c0-1.2,.6-2.3,1.6-3.1,.5-.4,1.1-.7,2.1-1.1-1-.5-1.5-.8-1.9-1.1-.8-.7-1.1-1.4-1.1-2.6,0-.9,.3-1.9,.8-2.5,.8-.9,2.3-1.5,4-1.5s3.2,.6,3.9,1.7c.4,.6,.6,1.2,.6,2.1,0,1.1-.4,1.8-1.2,2.5-.6,.5-1.2,.8-2,1,2.5,1,3.8,2.4,3.8,4.4Zm-7.8-2.7c-.8,.7-1.2,1.7-1.2,2.8,0,2.1,1.5,3.6,3.7,3.6s3.5-1.3,3.5-3.2c0-1-.5-1.8-1.6-2.6-.4-.3-1.1-.6-2-1.1-.2-.1-.9-.4-.9-.4-.7,.3-1,.5-1.5,.9Zm5.6-5.2c0-2.1-1.2-3.3-3.2-3.3-1.8,0-3,1.1-3,2.9,0,1.1,.5,1.8,1.8,2.6q.3,.2,1.5,.7l.6,.3c1.6-.7,2.3-1.7,2.3-3.2Z" fill="#42210b"/><path d="M10.5,193.65c0,2.3-.1,2.7-.3,4.7h6.2c.4-.4,.5-.6,.9-1,.7,.5,.9,.6,1.5,1.1l.2,.2c0,.2-.1,.2-.8,.6-.3,3.7-.3,4.3-.5,5.8-.4,2.6-.8,3.9-1.5,4.5-.5,.4-.9,.5-2.5,.8-.1-.7-.3-1-.9-1.2-.4-.2-.9-.3-3.1-.6v-.3c2.2,.2,3.7,.2,4.7,.2,.5,0,.7,0,.8-.2,.3-.4,.6-1.2,.9-3,.3-1.9,.5-3.4,.6-6.3h-6.5c-.4,2.4-.9,4.2-1.8,5.7-.9,1.8-2.4,3.4-4.1,4.7-.6,.5-1.1,.8-2.2,1.4l-.2-.3c1.7-1.2,2.8-2.4,4-4.2,1.8-2.7,2.8-6,2.9-10.4v-2.1H4.6c-.9,0-1.9,.1-2.5,.2l-.1-.8c.8,.2,1.4,.2,2.6,.2h13.2c.6-.8,.8-1,1.4-1.7,.9,.8,1.2,1,2.1,1.8,.1,.1,.1,.2,.1,.2,0,.1-.1,.2-.3,.2H10.5v-.2Z" fill="#42210b"/><path d="M1.9,234.95c2-1.4,3-2.4,4.1-3.8,2-2.6,3.3-5.4,3.9-8.7,.3-1.6,.5-3.3,.5-4.6,0-.4,0-.7-.1-1.2,2.3,.3,2.6,.4,2.6,.6s-.1,.2-.9,.6v.7c0,3.1,1.2,6.8,3,9.5,1.2,1.7,2.7,3.1,4.4,4.2,.8,.5,1.3,.8,2.5,1.2v.3h-.2c-.5,0-.8,.1-1.1,.4-.2,.2-.3,.4-.6,1.1-2.2-1.4-3.8-3-5.1-5.2-1-1.6-1.9-3.9-2.5-6-.3-.9-.4-1.6-.5-3.1-.6,4-1.6,6.7-3.4,9.3-1.7,2.3-3.4,3.8-6.3,5.3l-.3-.6Z" fill="#42210b"/></g><path d="M38.3,40.15c.3-2.1,.9-3.7,2-5.2,1-1.5,2.1-2.5,5.5-5.3,1.1-.9,1.6-1.5,2-2.1,.4-.7,.6-1.4,.6-2.2,0-2.2-1.5-3.7-3.6-3.7-1.6,0-2.7,.7-3.2,2-.2,.5-.2,.9-.3,2-.1,.9-.3,1.1-1.3,1.1s-1.4-.3-1.4-1.1c0-2.7,2.7-4.8,6.2-4.8,2.2,0,4.1,.7,5.1,2,.6,.7,.8,1.6,.8,2.8,0,2.2-1,3.6-3.9,5.4-3.3,2-4,2.6-5.2,3.7-1.2,1.1-1.7,2-2.2,3.4h7.7c1.9,0,2.6-.6,3.1-2.8l.8,.2-.7,4.6h-12Z" fill="#42210b"/><g><path d="M35.3,11.45h.2c.2-.3,.3-.3,.5-.6l.7,.7v.1s0,.1-.1,.1h-1.3v2.6c.7-.3,1-.5,1.6-.8l.1,.1c-.9,.7-2.1,1.5-3.1,2,0,.3-.1,.5-.1,.5-.1,0-.2-.2-.6-1,.5-.2,.9-.3,1.4-.5v-2.9h-1.2l-.1-.4c.2,.1,.5,.1,.7,.1h.6v-2.6h-.6c-.3,0-.4,0-.7,.1l-.1-.4c.3,.1,.4,.1,.8,.1h1.5c.2-.3,.3-.3,.5-.6,.3,.3,.4,.4,.8,.7l.1,.1s0,.1-.1,.1h-1.4l-.1,2.5h0Zm4.4,2.8h1.3c.2-.3,.3-.4,.5-.6,.4,.3,.5,.4,.9,.7v.1l-.1,.1h-2.7v1.9h1.8c.3-.3,.3-.4,.6-.7,.4,.3,.5,.4,.9,.8l.1,.1q0,.1-.1,.1h-7l-.1-.4c.3,.1,.6,.1,.9,.1h2.4v-1.9h-2.3l-.1-.4q.4,.1,.9,.1h1.5v-1.7h-1.5v.5c0,.1-.1,.2-.3,.2-.3,0-.4,0-.4-.2,0-.9,.1-1.8,.1-3.3,0-1.1,0-1.3-.1-1.8,.4,.2,.5,.3,.8,.5h3.6c.2-.2,.2-.3,.4-.5,.3,.2,.4,.3,.6,.5l.1,.1s0,.1-.1,.1c0,0-.1,.1-.3,.2v1.1c0,1.2,0,1.9,.1,2.8q0,.1-.1,.2s-.4,.1-.5,.1-.1,0-.1-.1v-.4h-1.6v1.7h-.1Zm-.6-5.6h-1.5v1.7h1.5v-1.7Zm0,2h-1.5v1.7h1.5v-1.7Zm2.3-.3v-1.7h-1.6v1.7h1.6Zm-1.7,2h1.6v-1.7h-1.6v1.7Z" fill="#42210b"/><path d="M46.6,16.55v.4q0,.1-.1,.1s-.4,.1-.5,.1-.1,0-.1-.1v-7.3c.4,.2,.5,.3,.9,.5h2.5v-1.4q0-1-.1-1.3c1,.1,1.2,.2,1.2,.3s-.2,.2-.5,.3v2.1h2.8c.2-.2,.2-.3,.4-.5,.3,.2,.4,.3,.7,.5l.1,.1c0,.1-.1,.1-.4,.3v6.2h0q0,.1-.1,.2c-.1,0-.4,.1-.5,.1s-.2,0-.2-.2v-.5l-6.1,.1h0Zm2.7-6h-2.7v2.6h2.7v-2.6Zm0,2.9h-2.7v2.9h2.7v-2.9Zm3.5-2.9h-2.9v2.6h2.9v-2.6Zm0,2.9h-2.9v2.9h2.9v-2.9Z" fill="#42210b"/></g></g></svg>