<?xml version="1.0" encoding="UTF-8"?><svg id="_イヤー_2" xmlns="http://www.w3.org/2000/svg" viewBox="0 0 53.42 208.07"><g id="_イヤー_1-2"><g><path d="M39.6,70.37l1.2-1.2c.7,.6,1,.8,1.7,1.4q.1,.1,.1,.2c0,.1-.1,.2-.2,.2h-4.7c1.5,1,1.8,1.3,1.8,1.8s-.6,1.2-.9,1.2c-.2,0-.2-.1-.3-.7-.3-1.1-.4-1.3-1-2.3h-1.1c-1.2,1.6-2.1,2.5-3.5,3.7l-.2-.3c1.2-1.5,1.9-2.5,2.6-4.1,.5-1.1,.7-1.6,.8-2.3q2.4,.5,2.4,.7c0,.2-.2,.3-.9,.4-.4,.7-.6,1-.9,1.5h3.1v-.2Zm-4.1,10.5c-.1,.5-.2,.6-.3,1-.1,.2-.2,.2-.4,.2-.7,0-1.1-.1-1.1-.3v-.2c.4-1.1,.7-2,1.1-3.3q.2-.6,.5-2.1c.6,.4,.8,.6,1.4,1h4.7v-2.7h-5.2c-.5,0-.7,0-1.4,.2l-.2-.9c.6,.2,1,.2,1.6,.2h11.6l.9-.9c.5,.4,.7,.5,1.2,.9,.2,.1,.2,.2,.2,.3,0,.2-.2,.3-.6,.5v3.5c0,.1,0,.2-.1,.2-.1,.1-.6,.2-1,.2-.2,0-.3-.1-.3-.2v-.7h-5.2l.1,2.6h6c.4-.4,.5-.5,.8-.9,.5,.4,.7,.6,1.2,1,.1,.1,.2,.2,.2,.3s-.1,.2-.6,.5c-.1,.7-.2,1.8-.4,2.6-.2,1-.5,1.4-1.2,1.8-.4,.2-.8,.3-1.6,.4-.2-.7-.3-.9-.6-1.1-.4-.2-.8-.3-2.5-.6v-.3q.7,0,2.1,.2h1.6c.5,0,.6-.1,.8-.5,.2-.5,.4-1.8,.4-3h-6.2l.1,2.1v4.4c0,.2-.1,.2-.2,.2-.3,.1-.7,.1-1,.1-.2,0-.3,0-.3-.2v-5.9c-1.4,1.6-2.6,2.6-4.5,3.8-1.2,.7-2.2,1.2-4,1.9l-.2-.3c1.9-1,3.5-2.1,4.9-3.3,1-.9,1.6-1.5,2.6-2.8h-4.9v.1Zm5.9-3.1h-5c-.3,1.2-.4,1.6-.8,2.6h5.8v-2.6Zm7.4-7.4c.5-.6,.7-.8,1.2-1.5,.9,.7,1.1,.9,1.9,1.7,0,.1,.1,.2,.1,.2,0,.1-.1,.1-.2,.1h-6.2c.7,.3,1.1,.7,1.5,1,.3,.3,.4,.5,.4,.8,0,.5-.5,1.2-.8,1.2-.2,0-.2-.1-.3-.5-.3-1-.6-1.6-1.2-2.5h-1.2c-.9,1.3-1.6,2-2.7,3l-.3-.2c1.5-1.8,2.3-3.5,2.9-5.7,.5,.1,.9,.2,1.1,.3,1.1,.2,1.2,.2,1.2,.4s-.4,.4-1,.5c-.4,.6-.5,.8-.8,1.3h4.4v-.1Zm-6,6.9h5.2v-2.7h-5.3l.1,2.7Z" fill="#42210b"/><path d="M32.5,108.87c.8,.2,1.5,.2,2.5,.2h13.1c.6-.8,.8-1,1.5-1.8,1,.8,1.4,1.1,2.3,2,0,.1,.1,.1,.1,.2s-.1,.2-.3,.2h-16.8c-.8,0-1.7,.1-2.3,.2l-.1-1Zm1.6-14.4c.9,.2,1.1,.2,2.5,.2h10.1c.6-.7,.7-.9,1.3-1.6,.9,.8,1.2,1,2.2,1.8q.1,.1,.1,.2c0,.1-.1,.2-.3,.2h-13.5c-.8,0-1.6,0-2.2,.2l-.2-1Zm1.2,6.7c.9,.2,1.2,.2,2.3,.2h7.8c.5-.7,.7-.9,1.2-1.6,.9,.8,1.2,1,2.1,1.8,0,0,.1,.1,.1,.2s-.1,.1-.3,.1h-11c-.8,0-1.5,0-2.1,.2l-.1-.9Z" fill="#42210b"/><path d="M43.7,119.57c.5-.6,.6-.7,1.1-1.3,.4,.3,1,.8,1.8,1.5,.7-.9,.9-1.2,1.5-2.2,2.2,.9,2.3,1,2.3,1.2,0,.1-.3,.2-.6,.2h-.6c-1.9,2.3-2.8,3.2-4.5,4.7h4c.4-.5,.9-.9,1.3-1.4,.9,.7,1.2,.9,2,1.6l.2,.2c0,.1-.1,.2-.3,.2h-7.8c-1.3,1.1-2.3,1.8-3.7,2.8h6.3c.4-.4,.5-.6,.9-.9,.6,.4,.7,.5,1.3,1,.2,.1,.2,.2,.2,.3s-.2,.3-.8,.6q0,5.1,.1,7.7c0,.3-.2,.3-.7,.4h-.4c-.2,0-.3-.1-.3-.2v-1h-7.8v1q-.1,.2-.2,.3l-.9,.1c-.2,0-.3-.1-.4-.2,.1-2,.1-2.3,.1-5.8v-1.4c-2,1.1-3.6,1.7-5.7,2.4l-.1-.3c2.6-1.1,3.9-1.9,5.8-3,0-.5,0-.7-.1-1.4,.7,.3,.9,.3,1.4,.6,1.2-.8,2.2-1.6,3.4-2.6h-7.9c-.8,0-1.2,0-1.8,.2l-.2-.8c.7,.1,1.2,.2,1.9,.2h5.8v-3.6h-4c-.6,0-.9,0-1.3,.1l-.1-.8c.5,.1,.9,.2,1.4,.2h4v-1.1c0-.6,0-1.1-.1-2.2,.5,.1,.9,.1,1.1,.2,1.1,.1,1.3,.2,1.3,.4s-.2,.3-.9,.5v2.2h2v-.6Zm-4.6,10.7h7.8v-2.9h-7.3l-.5,.3v2.6Zm0,.5v3.3h7.8v-3.3h-7.8Zm2.7-10.7v3.6h1.1c1.4-1.3,2.3-2.2,3.5-3.6h-4.6Z" fill="#42210b"/><path d="M36.5,145.67c.4-.5,.5-.6,.9-1.1,.6,.6,.8,.7,1.3,1.3,0,.1,.1,.1,.1,.2s-.1,.1-.3,.1h-2.3v1.7c1.1,.8,1.2,.9,1.5,1.3,.4,.5,.5,.8,.5,1.1,0,.5-.4,1.2-.7,1.2-.2,0-.2-.1-.3-.4-.2-1.1-.4-1.7-1.1-2.9v12.2c-.1,.2-.2,.3-.7,.3h-.4c-.2,0-.3-.1-.3-.3,0-.4,.1-3.2,.2-8.5l.1-3c-1,3.3-1.5,4.5-3.1,7l-.3-.2c.9-1.9,1.4-3.3,2.1-5.8,.5-1.6,.6-2.3,.8-3.7h-1.1c-.6,0-.8,0-1.3,.2l-.1-.8c.4,.1,.8,.2,1.4,.2h1.3v-2.3c0-.8,0-1.3-.1-2.3,.5,0,.9,.1,1.1,.1,1.1,.1,1.2,.1,1.2,.3s-.1,.2-.9,.5v3.7h.5v-.1Zm4.6,6.8c0,.8,0,.9-.1,1.4,2,.9,2.6,1.4,2.6,2.2,0,.7-.2,1.2-.5,1.2-.2,0-.2-.1-.6-.8-.4-.9-.9-1.6-1.5-2.3-.2,1.2-.5,2.1-1,3-.7,1.3-1.5,2.1-2.9,3.2l-.2-.2c1.4-1.6,2.1-2.9,2.5-4.7,.2-1,.3-1.6,.3-3.1h-.6c-.8,0-1.1,0-1.6,.2l-.2-.9c.6,.2,1,.2,1.8,.2h5.3c-.1-.4-.2-.7-.2-1.1-.4-2.2-.5-2.9-.6-7.8,0-.8,0-1.2-.1-2.1,1,.1,1.9,.2,2.2,.3,.2,0,.2,.1,.2,.2,0,.2-.1,.2-1,.5v2.7c0,3.1,.2,5.3,.7,7.2h3.8c.5-.6,.6-.7,1.1-1.2,.7,.6,.9,.8,1.6,1.4q.1,.1,.1,.2c0,.1-.2,.2-.3,.2h-6.2c.3,1.1,.7,1.9,1.2,2.8,.8-.8,1.2-1.4,1.7-2.3,1.7,.8,2,.9,2,1.1,0,.1-.2,.2-.4,.2-.1,0-.4,0-.8-.1-.8,.9-1.1,1.3-1.8,2,.8,.9,1.3,1.4,2.5,2.2,.7-1.1,.8-1.4,1.8-3.4l.3,.1-.7,3.1c0,.2-.1,.6-.1,.7,0,.2,.1,.3,.3,.5,.2,.2,.2,.3,.2,.5,0,.4-.2,.6-.6,.6-1.1,0-3.1-1.5-4.6-3.5-2,1.6-3.6,2.4-6.6,3.2l-.1-.3c2.3-.9,4.1-2,6.1-3.7-.8-1.2-1.2-2.1-1.6-3.7h-3.4v.1h0Zm-2.8-8.9c.5,.3,.7,.4,1.1,.7,.5-.8,.8-1.6,1.2-2.9q1.9,.8,1.9,1t-.1,.2c-.1,0-.3,.1-.8,.1l-1.9,1.9,.1,.1c.5,.4,.7,.6,.7,1,0,.6-.3,1.2-.6,1.2-.1,0-.2-.1-.3-.3-.5-1.3-.7-1.7-1.5-2.8l.2-.2Zm4.6,1.7c-.8,1.2-2,2.6-3.1,3.6q1.6-.1,2.6-.2c-.2-.5-.3-.7-.5-1.4l.2-.2c1,1,1.5,1.6,1.5,2.2,0,.5-.4,1.1-.6,1.1-.1,0-.2-.1-.2-.4-.1-.5-.1-.6-.2-1.1-1,.4-1.1,.4-3.2,1,0,.1,0,.2-.1,.3,0,.3-.1,.4-.2,.4q-.2,0-.7-1.7h.8c1.4-1.8,2.2-3.1,2.9-4.9,1.2,.6,1.7,.9,1.7,1,0,.2-.2,.2-.8,.2l-.1,.1h0Zm3-1.9c.5,.4,.7,.5,1.1,.8,.6-.9,1-1.7,1.4-2.9l1,.5c.8,.4,1.1,.6,1.1,.7s-.2,.2-.5,.2h-.7q-.4,.3-1.5,1.3c-.1,.1-.2,.1-.5,.4,.4,.3,.5,.6,.5,1,0,.5-.3,1.1-.6,1.1-.1,0-.2-.1-.3-.4-.3-1-.6-1.6-1.1-2.5l.1-.2Zm3.9,3.4c1.4,1,1.9,1.7,1.9,2.2s-.4,1.1-.6,1.1-.2-.1-.3-.5c0-.3-.1-.5-.3-1.1-1,.2-1.2,.3-3.8,.7-.1,.6-.2,.8-.3,.8s-.1-.1-.2-.2c0,0-.1-.5-.4-1.5h1c.5-.6,.9-1.1,1.2-1.7,.6-.9,1.3-2.2,1.6-2.7,.4,.2,.8,.3,1,.4,.9,.4,1.1,.5,1.1,.6,0,.2-.3,.2-1,.2-1.1,1.2-2.3,2.3-3.2,3.1h.9q1,0,1.9-.1c-.2-.5-.3-.6-.6-1.2l.1-.1Zm-2.7,2.8c1.3,.3,1.9,.7,1.9,1.2,0,.2-.2,.6-.3,.8,0,.1-.1,.1-.2,.1s-.2-.1-.4-.4c-.3-.6-.8-1.1-1.2-1.5l.2-.2Z" fill="#42210b"/><path d="M34.6,172.47v12.8c0,.3-.3,.3-1.1,.3-.3,0-.4-.1-.4-.3,.1-2.9,.1-4,.1-10.2,0-7,0-7.8-.1-9.4,.7,.4,.9,.5,1.6,1h4.4c.4-.4,.5-.6,.9-1,.6,.4,.8,.6,1.3,1,.2,.1,.2,.2,.2,.3,0,.2-.2,.3-.7,.5v5.5c0,.3-.2,.3-1.1,.3q-.3,0-.4-.2v-.6h-4.7Zm4.8-5.2h-4.8v2.1h4.8v-2.1Zm0,2.6h-4.8v2.2h4.8v-2.2Zm3.2,6.8c-.1,1.4-.1,1.5-.2,2.3h3.1l1.2-1.2c.7,.6,.9,.8,1.6,1.4,.1,.1,.1,.2,.1,.2,0,.1-.1,.1-.2,.1h-5.9c-.1,.5-.1,.6-.2,.9,1.6,.6,2.8,1.1,3.6,1.4,1.2,.6,1.5,.9,1.5,1.7v.3c.9,.1,1.2,.1,2.2,.1,.2,0,.3,0,.3-.3v-11.2h-4.6v.4c0,.3-.2,.3-1.1,.3-.3,0-.4,0-.5-.3v-7.2c.7,.4,.9,.5,1.6,1h4.6c.4-.4,.5-.6,.8-1,.5,.4,.7,.5,1.1,.9l.3,.3c0,.2-.1,.3-.7,.6v16.2c0,.6-.1,.8-.3,1.1-.3,.3-.7,.5-2,.8-.1-.5-.2-.7-.5-.9-.3-.3-.7-.4-1.1-.6-.1,.3-.2,.4-.4,.4s-.3-.1-.8-.7c-.5-.5-2-1.9-2.9-2.5-.4-.3-.6-.4-1.1-.7-.5,.9-1.1,1.6-2.3,2.4-1.2,.8-2.3,1.2-4,1.5l-.2-.3c1-.3,1.4-.4,2.2-.9,1.4-.8,2.4-1.8,2.9-2.7,.2-.4,.3-.8,.5-1.3h-3.3c-.8,0-1.2,0-1.5,.1l-.2-.8c.5,.1,.8,.2,1.7,.2h3.1c.2-.8,.2-1.1,.2-2.3h-2.9c-.7,0-1,0-1.4,.1l-.2-.8c.5,.1,.9,.2,1.6,.2h1.6l-.3-.6c-.3-.6-.7-1.1-1.6-2.1l.2-.2c1.9,.9,2.6,1.4,2.6,1.8,0,.2-.3,.8-.5,1.1h2.5q.3-.4,.7-1.1c.7-1.1,.7-1.2,.9-1.7,.4,.1,.7,.3,.9,.3,.9,.3,1.1,.5,1.1,.6s-.2,.2-.5,.2h-.4q-.5,.3-1.9,1.5s-.1,.1-.3,.2h1.9l1.1-1.1c.6,.5,.8,.7,1.5,1.3,0,.1,.1,.1,.1,.2s-.1,.1-.1,.1h-5.2v.3h0Zm6.9-9.4h-4.6v2.1h4.6v-2.1Zm0,2.6h-4.6v2.2h4.6v-2.2Z" fill="#42210b"/><path d="M37,204.67c1.6,.9,2.9,1.5,3.3,1.5,.5,0,.8-.5,1.4-1.8,.8-1.8,1.3-4.1,1.3-5.8,0-.9-.2-1.5-.6-1.7-.2-.2-.5-.2-1-.2-.6,0-1,.1-2.2,.4q-.3,.8-1.2,2.9c-.1,.3-.5,1.3-1.3,3-.9,2-1.6,3.6-1.9,4.2-.2,.3-.3,.4-.5,.4-.4,0-.6-.6-.6-1.5,0-.5,.1-.7,.5-1.2,1-1.2,1.9-2.9,4-7.5-1.4,.5-2.3,.8-2.8,1.1-.3,.2-.5,.2-.6,.2-.2,0-.7-.3-.9-.6-.4-.5-.7-1.2-.7-1.6,0-.1,0-.3,.1-.5,.5,.9,.8,1.2,1.6,1.2,.5,0,2.1-.3,3.7-.8,.5-1.2,.9-2.8,.9-3.5s-.4-1.1-1.7-1.4c.3-.2,.4-.2,.6-.2,.3,0,.9,.1,1.5,.3,1,.3,1.5,.7,1.5,1.1q0,.2-.3,.6c-.4,.7-.8,1.4-1.4,2.9,.9-.2,1.3-.2,1.9-.2,1.9,0,2.7,1.1,2.7,3.4,0,2.8-1.1,6.3-2.3,7.7-.5,.6-1.4,1-2.1,1-.4,0-.5-.2-.6-.5,0-.6-.1-.7-2.4-2.5l.1-.4Zm9.5-8.7c1.7,.5,3,1.4,3.9,2.6,.8,1.1,1.2,2.1,1.2,3,0,.8-.3,1.2-.9,1.2-.2,0-.3,0-.5-.2-.4-.2-.5-.2-.9-.2-.8,0-.9,0-2.7,.2l-.1-.3c2.1-.6,2.7-.8,3.3-1.1-.3-2.1-1.7-4.1-3.6-4.9l.3-.3Zm.7-4.3c.8,.4,1.4,.8,1.9,1.3,.8,.7,1.1,1.2,1.1,1.7s-.3,.9-.7,.9q-.3,0-.9-1.4c-.4-.8-1.1-1.7-1.7-2.3l.3-.2Zm2.2-1.3c.8,.3,1.4,.7,2.1,1.2,.8,.6,1.1,1.1,1.1,1.7,0,.5-.2,.9-.5,.9-.2,0-.3-.1-.5-.4-.8-1.4-1.2-1.9-2.4-3.1l.2-.3Z" fill="#42210b"/><path d="M0,71.97c.7,.1,1.4,.2,2.2,.2h3.6c.4-.4,.8-.8,1.1-1.2,.7,.6,1,.8,1.7,1.4,.1,.1,.1,.2,.1,.2,0,.1-.1,.1-.2,.1H2.1c-1,0-1.3,0-2,.1L0,71.97Zm.7,2.8c.6,.1,1.3,.2,2,.2h2.2c.4-.6,.5-.7,1-1.3,.8,.6,1,.8,1.7,1.4q.1,.1,.1,.2c0,.1-.1,.2-.2,.2H2.8c-.7,0-1,0-1.8,.1l-.3-.8Zm.2,3c.6,.1,.9,.2,1.8,.2h2.1c.4-.5,.5-.7,.9-1.2,.7,.6,.9,.8,1.6,1.3q.1,.1,.1,.2c0,.1-.1,.2-.3,.2H2.6c-.8,0-1,0-1.6,.1l-.1-.8Zm0-8.7c.6,.1,.9,.2,1.8,.2h2.5c.5-.6,.6-.7,1.1-1.3,.7,.6,.9,.8,1.6,1.5,0,.1,.1,.1,.1,.2s-.1,.1-.2,.1H2.8c-.8,0-1.1,0-1.6,.1l-.3-.8Zm1.6,18c0,.2,0,.3-.2,.4-.1,0-.7,.2-1,.2-.2,0-.2-.1-.3-.3v-5.5c0-.6,0-1.1-.1-2.1,.7,.4,.9,.6,1.6,1h2.5c.3-.4,.4-.5,.8-.9,.5,.3,.7,.5,1.1,.9,.1,.1,.2,.2,.2,.3,0,.2-.2,.3-.7,.6,0,1.4,0,4.3,.1,5.2,0,.3-.2,.4-1.1,.4-.2,0-.3-.1-.3-.4v-.6H2.2v.8h.3Zm0-1.3h2.9v-4.4H2.5v4.4Zm6.7-14.3c1.9,.4,1.9,.5,2.6,.6,.2-.8,.2-1.2,.2-2.3h-1c-.7,0-1.7,0-2.3,.1l-.2-.8c.8,.2,1.4,.2,2.4,.2h5.9l.9-.9c.6,.5,.8,.6,1.3,1.1,.1,.1,.2,.2,.2,.3q0,.2-.6,.6c-.2,2.6-.2,2.9-.4,4.3-.3,2.1-.5,2.7-1.1,3.2-.4,.3-.8,.5-1.8,.6-.3-.9-.7-1.1-2.7-1.4v-.4c.8,.1,2.5,.2,3,.2,.7,0,.9-.2,1.1-1.1,.3-1.2,.6-3.8,.6-5.8h-3.6c-.1,1.2-.2,1.8-.4,2.7,1.1,.3,1.4,.5,1.6,.8,.2,.3,.4,.8,.4,1.2,0,.3-.1,.5-.3,.5-.1,0-.2-.1-.4-.3-.5-.4-.9-.7-1.6-1.1-.5,1.4-1.2,2.5-2.1,3.5-.9,1-1.8,1.6-3.4,2.2l-.2-.3c1.8-1.2,2.6-2,3.5-3.6,.5-.8,.8-1.6,1-2.5-.9-.5-1.3-.6-2.6-1.2v-.4Zm.4,9v.6c0,1.7-.3,3.1-1,4.3-.3,.5-.5,.7-.7,.7-.3,0-.6-.6-.6-1.3q0-.3,.4-.7c.8-.8,1.4-2.1,1.6-3.7l.3,.1h0Zm1.2,1.2c0-.6,0-1-.1-1.8,1.8,.2,2.2,.3,2.2,.5s-.2,.3-.7,.5v4.3c0,.4,.1,.5,.8,.5h1c1.1,0,1.4-.1,1.6-.3,.1-.2,.2-.4,.5-1.3q.4-1.3,.6-2h.3l-.1,2.9h0q0,.2,.4,.4c.2,.1,.4,.3,.4,.5,0,.7-.7,.8-3.5,.8-1.9,0-2.4,0-2.7-.2s-.5-.3-.5-.8v-4h-.2Zm1.1-3.5c2.5,1,3.5,1.7,3.5,2.4,0,.6-.3,1.2-.6,1.2-.2,0-.3-.1-.6-.8-.4-.8-1.1-1.6-2.5-2.7l.2-.1Zm5.3,2.2c1.7,1.7,2.6,3,2.6,3.8,0,.6-.5,1.5-.8,1.5-.2,0-.2-.1-.5-1-.5-2-.8-2.5-1.6-4.2l.3-.1Z" fill="#42210b"/><path d="M3.8,94.57c.8,.6,1.4,1.2,1.7,1.8,.2,.4,.4,1.2,.7,2.3,1.5-.8,2.6-1.1,4.5-1.4,.3-1.1,.4-1.9,.4-2.5,0-.5-.2-.7-1-.7h-.4l-.1-.2c.6-.3,1-.4,1.4-.4,.8,0,1.7,.7,1.7,1.3,0,.4-.3,1.6-.6,2.5,3.6,.2,6,2.5,6,5.7,0,2.4-1.4,4.4-3.9,5.8-1.3,.7-2.5,1-4.2,1.2l-.1-.3c1.9-.6,3-1.2,4.2-2.2,1.6-1.4,2.4-3.1,2.4-4.9,0-1.7-.7-3-1.9-3.9-.8-.5-1.5-.8-2.7-.8-.9,2.4-2.3,5-3.6,6.7,.3,.5,.4,.6,.8,1.1,.6,.8,.7,.9,.7,1.1s-.2,.5-.5,.5c-.5,0-1.2-.6-1.9-1.6-.3,.5-.8,.9-1.7,1.6-.7,.5-1.2,.8-1.7,.8s-.7-.3-.9-1.1c-.2-.7-.3-.9-.6-1.4-.4-.5-.5-.9-.5-1.3,0-1.7,1.2-3.5,3.4-5-.4-2.5-.6-3.1-1.6-4.4v-.3Zm-.1,7.4c-.5,.8-.7,1.7-.7,2.5,0,1,.6,2.1,1.1,2.1s1.6-.8,2.6-1.9c-.6-1.4-.9-2.4-1.3-4.7-.8,.9-1.2,1.3-1.7,2Zm3.9,1.7c1.2-1.7,2.2-3.6,2.8-5.7-1.9,.3-2.8,.6-4.2,1.6,.8,2.4,.9,2.9,1.4,4.1Z" fill="#42210b"/><path d="M11.6,118.07c-.8,.3-2.9,1.1-4.3,1.7-.4,.2-.7,.3-.9,.3-.4,0-.8-.3-1.2-.9-.4-.6-.6-1.1-.6-1.6,0-.2,0-.3,.2-.6,.3,1,.9,1.6,1.6,1.6,.6,0,2.6-.5,4.1-.9,.8-.3,.9-.3,1.3-.7,.1-.1,.2-.1,.3-.1,.3,0,.6,.2,1.2,.8,.5,.5,.6,.7,.6,1,0,.2-.1,.3-.4,.4-.6,.3-.8,.5-1.8,1.4l-3.2,3.2q-2.1,2.2-2.5,2.7h0c2.3-1.4,4-2,5.9-2,2.8,0,4.6,1.6,4.6,4,0,3.1-2.9,5.4-6.8,5.4-2.1,0-3.5-.8-3.5-2.2,0-1.1,1-1.8,2.3-1.8,1.1,0,2,.4,2.7,1.1,.4,.4,.6,.7,.9,1.3,1.6-.7,2.6-2.2,2.6-4,0-1.2-.5-2.2-1.3-2.7-.5-.3-1.3-.4-2.1-.4-2.1,0-5.1,1.7-6.8,4-.4,.5-.5,.6-.7,.6-.3,0-.7-.8-.7-1.4,0-.3,.2-.5,.5-.8,.8-.6,1.2-1,3-3,2.6-2.9,3.4-3.9,5.1-6.1q.2-.2,.2-.3h-.1s0,0-.2,0q.1,0,0,0h0Zm-3.3,12.4c-.8,0-1.4,.4-1.4,1.1,0,.8,.9,1.3,2.5,1.3,.6,0,.9,0,1.5-.2-.4-1.4-1.4-2.2-2.6-2.2Z" fill="#42210b"/><path d="M2.6,158.47c0,.3-.2,.3-.8,.4h-.3c-.2,0-.3-.1-.3-.3,.1-1.2,.1-2,.1-3.6,0-3,0-4.9-.1-5.6,.8,.4,1,.5,1.7,.9h4c.4-.5,.5-.6,.9-1.1,.5,.5,.7,.6,1.2,1,.2,.2,.2,.3,.2,.3q0,.2-.7,.6v7c0,.2-.1,.3-.2,.3-.1,.1-.7,.1-1,.1-.2,0-.3-.1-.3-.3v-1.3H2.5l.1,1.6h0Zm0-2H7v-5.8H2.5v5.8h.1Zm3.3-8.3c0,.3-.2,.4-1,.4q-.4,0-.5-.2v-8c.8,.4,1.1,.5,1.9,1h7.1c.4-.5,.5-.6,.9-1,.6,.5,.8,.6,1.4,1.1,.1,.1,.2,.2,.2,.3,0,.2-.2,.3-.7,.6v5.7c0,.2,0,.3-.2,.3-.1,.1-.6,.1-.9,.1s-.4-.1-.4-.3v-1H5.9v1Zm0-1.5h7.8v-4.8H5.9v4.8Zm5.2,5.5v-3.1c.7,.4,1,.6,1.7,1.1h4c.4-.4,.5-.6,.9-1,.6,.5,.8,.6,1.3,1.1,.1,.1,.2,.2,.2,.3,0,.2-.2,.3-.6,.5v7c0,.2-.1,.3-.2,.3-.1,.1-.6,.1-.9,.1s-.4-.1-.4-.3v-1.4h-4.5v1.3c0,.3-.2,.3-.7,.4h-.4c-.1,0,0,0,0,0-.2,0-.3-.1-.3-.2l-.1-6.1Zm1.4,4.3h4.5v-5.8h-4.5v5.8Z" fill="#42210b"/><path d="M7.1,168.67v2.9q0,.2-.1,.3c-.1,.1-.5,.1-.9,.1-.2,0-.3-.1-.3-.2h0q0-.8,.1-3H3.2c-.3,2-1.1,3.2-3,4.5l-.2-.2c.8-.9,1.3-1.7,1.6-2.9,.2-.8,.3-1.8,.3-3.3v-1.4c.8,.4,.9,.5,1.6,1,.9-.2,2-.6,3-1.1,.5-.3,.8-.4,1.2-.8,1.4,.8,1.8,1.2,1.8,1.3s-.1,.2-.4,.2c-.1,0-.3,0-.7-.1-1.5,.4-3.3,.8-5.2,1v1.2H7.6c.4-.5,.6-.6,1-1.1,.6,.6,.8,.7,1.4,1.4v.1c0,.1-.1,.1-.2,.1h-2.7ZM.4,183.77c2.9-.7,5.4-1.7,6.5-2.8,1.7,.5,2.1,.7,2.1,.9,0,.1-.2,.2-.5,.2h-.7c-2.4,1.1-4.5,1.7-7.4,2v-.3Zm5-2.9c0,.1,0,.2-.1,.2-.2,.1-.6,.1-1.1,.1-.2,0-.3-.1-.4-.2,.1-1.7,.1-3.6,.1-6.4,0-1.5,0-2-.1-3,.8,.3,1,.4,1.7,.8H14.5c.3-.3,.3-.4,.6-.8,.6,.4,.7,.5,1.3,.9,.2,.1,.2,.2,.2,.3,0,.2-.2,.3-.7,.6,0,3.4,0,5.9,.1,7.4h0q0,.2-.2,.3c-.2,.1-.7,.1-1,.1-.2,0-.3,0-.3-.2v-.6H5.4v.5Zm9.1-6.1v-1.8H5.4v1.8H14.5Zm-9.1,.5v2H14.5v-2H5.4Zm0,2.5v2.2H14.5v-2.2H5.4Zm6.3-9.1c-.2,.6-.3,.9-.6,1.4-.6,1-1.4,1.6-2.8,2.1l-.1-.2c1.3-1,1.7-1.5,2-2.5,.2-.8,.4-2.2,.4-3.3v-.8c.8,.4,1,.5,1.6,1,.8-.1,2.2-.6,3.6-1.2,.8-.3,.9-.5,1.3-.8,1.3,.7,1.9,1.2,1.9,1.4,0,.1-.1,.2-.3,.2s-.2,0-.9-.2c-1.7,.5-2.8,.7-5.9,1.1v.4c-.1,.5-.1,.7-.1,1h5.3l1.1-1.1c.7,.6,.9,.7,1.5,1.3l.1,.1c0,.1-.1,.2-.2,.2h-4v2.4c0,.1,0,.2-.1,.2-.1,.1-.6,.1-1,.1-.2,0-.3-.1-.3-.2v-2.4h-2.5v-.2Zm-.1,12.5c2.9,.3,5.2,.7,5.6,.9,.6,.3,1,.9,1,1.6,0,.3-.2,.5-.4,.5s-.2,0-.9-.4c-.5-.3-2-1.1-3.1-1.4-.4-.2-.9-.3-2.3-.8l.1-.4Z" fill="#42210b"/></g><path d="M15.73,1.88c.38,.19,.71-.38,1.22-.01-.71,1.18-2.2,1.38-2.93,2.52,.52-.31,1.03-.63,1.56-.92,.9-.5,1.79-.91,2.89-.72,.68,.12,1.47,.04,1.99-.49,1.24-1.28,2.83-1.43,4.44-1.48,1.49-.05,2.98-.01,4.46-.01,.82,0,1.64,.07,2.35-.52,.25-.21,.71-.42,.95-.06,.56,.82,1.48,.58,2.21,.88,.13,.05,.42,.06,.43,.04,.39-1.65,1.43-.5,1.93-.29,3.9,1.6,7.45,3.8,10.43,6.83,.69,.7,1.11,1.51,1.06,2.52,0,.16,0,.31,.02,.47,.03,.42,.22,.75,.62,.92,.07,.03,.26-.03,.29-.1,.15-.32-.06-.61-.15-.89-.15-.51-.53-.95-.44-1.52,.25-.17,.39-.02,.5,.14,1.72,2.37,2.56,5.06,3.17,7.9,1.8,8.37-.02,16.05-4.31,23.26-.72,1.2-1.57,2.34-2.55,3.35-.61,.63-1.29,1.13-2.24,1.09-.58-.02-1.04,.3-1.42,.72-.14,.15-.43,.33-.15,.57,.98,.85,.11,1-.46,1.31-.82,.45-1.69,.85-2.43,1.41-2.73,2.09-5.92,2.64-9.21,3.05-7.98,.99-14.36-2.46-20.34-7.09-2.55-1.98-4.06-4.73-5.33-7.6-1.25-2.83-2.31-5.73-3.1-8.73-.79-3-.28-5.93,.06-8.93,.56-4.87,3.23-8.56,6.18-12.15,1.72-2.09,3.58-4.04,5.9-5.49,.36-.23,.73-.45,1.12-.64,1.12-.56,1.22-.5,1.3,.69Z" fill="#c8a463"/><path d="M31.08,37.47c0,1.2,.1,1.9,.5,2.1,.2,.2,.5,.3,1.5,.3v.8h-6.4v-.8c1.2,0,1.4-.1,1.7-.3,.3-.3,.5-.9,.5-2.1v-1.9h-9v-1.2l9.6-12.8h1.7v12.9h2.8v1.1h-2.8l-.1,1.9h0Zm-2.2-13.5l-7.8,10.5h7.8v-10.5Z" fill="#42210b"/><g><path d="M18.68,12.07h.2c.2-.3,.3-.3,.5-.6l.7,.7v.1s0,.1-.1,.1h-1.3v2.6c.7-.3,1-.5,1.6-.8l.1,.1c-.9,.7-2.1,1.5-3.1,2,0,.3-.1,.5-.1,.5-.1,0-.2-.2-.6-1,.5-.2,.9-.3,1.4-.5v-2.9h-1.2l-.1-.4c.3,.1,.5,.1,.7,.1h.6v-2.6h-.6c-.3,0-.4,0-.7,.1l-.1-.4c.3,.1,.4,.1,.8,.1h1.5c.2-.3,.3-.3,.5-.6,.3,.3,.4,.4,.8,.7l.1,.1s0,.1-.1,.1h-1.4v2.5h-.1Zm4.5,2.8h1.3c.2-.3,.3-.4,.5-.6,.4,.3,.5,.4,.9,.7v.1l-.1,.1h-2.7v1.9h1.8c.3-.3,.3-.4,.6-.7,.4,.3,.5,.4,.9,.8l.1,.1q0,.1-.1,.1h-7l-.1-.4c.3,.1,.6,.1,.9,.1h2.3v-1.9h-2.3l-.1-.4q.4,.1,.9,.1h1.5v-1.7h-1.5v.5c0,.1-.1,.2-.3,.2-.3,0-.4,0-.4-.2,0-.9,.1-1.8,.1-3.3,0-1.1,0-1.3-.1-1.8,.4,.2,.5,.3,.8,.5h3.6c.2-.2,.2-.3,.4-.5,.3,.2,.4,.3,.6,.5l.1,.1s0,.1-.1,.1c0,0-.1,.1-.3,.2v1.1c0,1.2,0,1.9,.1,2.8q0,.1-.1,.2s-.4,.1-.5,.1-.1,0-.1-.1v-.4h-1.6v1.7Zm-.7-5.6h-1.5v1.7h1.5v-1.7Zm0,1.9h-1.5v1.7h1.5v-1.7Zm2.3-.2v-1.7h-1.6v1.7h1.6Zm-1.6,1.9h1.6v-1.7h-1.6v1.7Z" fill="#42210b"/><path d="M29.98,17.17v.4q0,.1-.1,.1s-.4,.1-.5,.1-.1,0-.1-.1v-7.3c.4,.2,.5,.3,.9,.5h2.5v-1.4q0-1-.1-1.3c1,.1,1.2,.2,1.2,.3s-.2,.2-.5,.3v2.1h2.8c.2-.2,.2-.3,.4-.5,.3,.2,.4,.3,.7,.5l.1,.1c0,.1-.1,.1-.4,.3v6.2h0q0,.1-.1,.2c-.1,0-.4,.1-.5,.1s-.2,0-.2-.2v-.5l-6.1,.1h0Zm2.7-6h-2.7v2.6h2.7v-2.6Zm0,2.9h-2.7v2.9h2.7v-2.9Zm3.5-2.9h-2.9v2.6h2.9v-2.6Zm0,2.9h-2.9v2.9h2.9v-2.9Z" fill="#42210b"/></g></g></svg>