<svg xmlns="http://www.w3.org/2000/svg" width="76.72" height="226.72" viewBox="0 0 76.72 226.72">
  <g id="グループ_1676" data-name="グループ 1676" transform="translate(-1091.88 -4944.188)">
    <path id="パス_4064" data-name="パス 4064" d="M10.34-9.36h7.6c.16,0,.22-.04.22-.1a.216.216,0,0,0-.06-.14c-.72-.6-.96-.78-1.72-1.32-.5.46-.64.62-1.12,1.1H11.84a16.275,16.275,0,0,0,1.3-1.06c.12-.1.32-.26.56-.46.16.02.42.02.44.02.28,0,.44-.06.44-.2,0-.08-.1-.18-.28-.28-.88-.5-.88-.5-1.54-.88H19.1c.14,0,.2-.02.2-.1,0-.04-.02-.08-.1-.16-.76-.66-1-.86-1.8-1.46l-1.12,1.26H13.74c.8-.7.88-.78,2.32-2.2.7-.02.86-.08.86-.24,0-.08-.04-.12-.18-.2-.36-.2-1.16-.54-1.76-.78a13.16,13.16,0,0,1-1.78,3.42H12.04V-15.9c.66-.2.78-.26.78-.42,0-.1-.06-.16-.2-.2a8.226,8.226,0,0,0-1.88-.24c.04.68.04.92.04,1.78v1.84H8.76v-2.8c.6-.18.76-.26.76-.42,0-.22-.32-.28-2.06-.42.04.78.06,1.16.06,1.8v1.84H3.24a7.738,7.738,0,0,1-2.12-.26l.14.82a12.818,12.818,0,0,1,1.98-.1H6.28l-.18.24A7.356,7.356,0,0,1,7.24-10.3a1.824,1.824,0,0,0,.22.48H4.34a7.667,7.667,0,0,1-2-.22l.14.78a15.3,15.3,0,0,1,1.86-.1H9.06v1.84H5.48A9.565,9.565,0,0,1,3.4-7.74l.12.8a17.417,17.417,0,0,1,1.96-.12H9.06v1.82H3.52a9.266,9.266,0,0,1-2.2-.2l.12.82a13.717,13.717,0,0,1,2.08-.16H7.88A12.145,12.145,0,0,1,5.64-2.6,20.618,20.618,0,0,1,.68.3L.82.62A19.139,19.139,0,0,0,5-1.12a18.4,18.4,0,0,0,4.06-3.2v1.66c0,.74-.06,2.92-.1,3.88v.04c0,.18.04.24.24.24,1,0,1.14-.04,1.16-.34-.02-2.1-.02-3.36-.02-3.74V-4.56A16.273,16.273,0,0,0,13.3-1.72,16.619,16.619,0,0,0,17.72.52c.48-.86.68-1.04,1.38-1.24v-.3a15.181,15.181,0,0,1-2.12-.34,15.749,15.749,0,0,1-4-1.58,11.765,11.765,0,0,1-2.34-1.84h7.84c.14,0,.22-.04.22-.12a.615.615,0,0,0-.08-.18c-.74-.6-.96-.8-1.72-1.38-.52.52-.68.68-1.18,1.22H10.34V-7.06h6.14c.14,0,.2-.04.2-.1,0-.04-.02-.08-.08-.14-.68-.58-.9-.76-1.58-1.32-.46.46-.58.62-1.02,1.1H10.34Zm2.32-3.32a9.594,9.594,0,0,1-1.34,2.86H7.94a1.152,1.152,0,0,0,.48-.82c0-.46-.4-.86-2.06-2.04ZM3.38-16.36a7.818,7.818,0,0,1,1.5,2.32c.2.48.3.62.48.62.28,0,.66-.64.66-1.12,0-.62-.72-1.2-2.46-2ZM7.8,21.58a9.755,9.755,0,0,1-2.5,2.54A15.224,15.224,0,0,1,.62,26.44l.14.32A15.512,15.512,0,0,0,6.52,24.4c.02.28.02.4.02.66a5.452,5.452,0,0,1-1.38,4.08,9.632,9.632,0,0,1-3.88,2.24l.12.28c3.22-.62,5.2-1.78,5.94-3.5a9.381,9.381,0,0,0,.64-3.08c.64-.18.74-.24.74-.4,0-.14-.16-.24-.58-.32a10.076,10.076,0,0,0-1.22-.24,9.065,9.065,0,0,0,2.46-2.54h1.2a7.724,7.724,0,0,0,1.76,1.84,16.113,16.113,0,0,0,5.92,3.14c.3-.88.6-1.18,1.32-1.32l.02-.26a15.454,15.454,0,0,1-6.2-1.74,11.523,11.523,0,0,1-2.36-1.66h3.94v.54c0,.2.08.28.34.28a2.724,2.724,0,0,0,.86-.12.31.31,0,0,0,.16-.28c-.04-1.34-.04-1.94-.04-3.14,0-.28,0-2.24.02-3.48.6-.28.78-.4.78-.58,0-.08-.04-.14-.16-.24-.58-.4-.74-.52-1.32-.9-.4.4-.52.52-.88.94H5.18a13.53,13.53,0,0,0-1.62-.94c.02,1.02.06,3.86.06,5.3,0,1.02-.02,1.8-.06,3.28,0,.2.1.28.38.28a3.719,3.719,0,0,0,.78-.1.226.226,0,0,0,.2-.26v-.58Zm7.18-3.74H10.5V15.06h4.48Zm0,.48v2.8H10.5v-2.8Zm-5.76,2.8H4.92v-2.8h4.3Zm-4.3-3.28V15.06h4.3v2.78ZM12,24.24c.04.58.04.88.04,1.74,0,3.04,0,3.04-.04,5.24,0,.16.12.22.44.22a3.006,3.006,0,0,0,.84-.12c.1-.04.14-.1.14-.26-.04-1.82-.06-2.9-.06-3.92,0-.62,0-.68.02-2.02.46-.14.6-.22.6-.4S13.58,24.44,12,24.24ZM2.9,58.58a18.5,18.5,0,0,1-1.96.2c.46,1.6.62,1.98.82,1.98.18,0,.22-.14.34-.82,2.96-.98,2.96-.98,5.6-1.94,0,.88,0,1.4-.06,3.24v.04c0,.14.08.2.24.2a4.262,4.262,0,0,0,.98-.14c.12-.04.16-.1.18-.24-.08-1.66-.1-2.8-.1-4.7V51.16h9.9c.08,0,.18-.06.18-.12s-.04-.12-.16-.22c-.54-.48-1.12-.98-1.7-1.5-.5.6-.66.78-1.16,1.38H2.7a9.457,9.457,0,0,1-1.9-.12l.14.7a11.591,11.591,0,0,1,1.76-.12h.2Zm1.24-7.42H7.72v1.92H4.14Zm0,2.38H7.72v1.98H4.14Zm0,2.44H7.72v1.66c-1.24.3-1.86.42-3.58.72Zm6.42-3.02a4.73,4.73,0,0,1-1.14-.1l.14.66a6.045,6.045,0,0,1,1-.1h.18a11.2,11.2,0,0,0,2.36,4.2,13.884,13.884,0,0,1-3.68,3.14l.16.22a13.47,13.47,0,0,0,4.14-2.68,11.947,11.947,0,0,0,4.02,2.6,1.382,1.382,0,0,1,.48-.84,1.813,1.813,0,0,1,.88-.42v-.26a10.43,10.43,0,0,1-4.66-1.84,17.335,17.335,0,0,0,2.36-3.62c.84-.3.92-.36.92-.48,0-.06-.06-.14-.18-.26-.54-.46-.68-.6-1.2-1.02-.38.34-.5.44-.86.8Zm4.92.46a11.277,11.277,0,0,1-1.82,3.52,9.788,9.788,0,0,1-1.34-1.4,8.354,8.354,0,0,1-1.22-2.12ZM4.98,49.04h9.5v.52c0,.16.06.2.32.2a2.984,2.984,0,0,0,.9-.08c.12-.04.14-.08.16-.26V49.4c-.04-.98-.04-1.82-.04-4.46.64-.44.64-.44.64-.56,0-.06-.04-.12-.14-.22a9.82,9.82,0,0,0-1.2-.98c-.34.38-.44.5-.74.88H5.08c-.62-.4-.82-.52-1.46-.88.06.86.08,1.18.08,2.52,0,1.82-.02,2.46-.08,3.9v.04c0,.16.1.2.5.2.64,0,.86-.06.86-.22v-.58Zm9.5-2.76H4.98V44.52h9.5Zm0,.46v1.84H4.98V46.74Zm-3.86,28.7V74.1c.62-.22.78-.32.78-.46,0-.26-.28-.32-2.32-.54a6.563,6.563,0,0,1,.12,1.2v1.14H3.1a14.955,14.955,0,0,1-2.04-.24l.18.84a14.127,14.127,0,0,1,1.9-.14h16c.12,0,.2-.06.2-.16a.292.292,0,0,0-.1-.16,25.587,25.587,0,0,0-2.1-1.66c-.54.68-.7.88-1.24,1.52ZM6.56,77.56a10.564,10.564,0,0,0-1.58-.78c.04.78.06,1.34.06,2.34s-.02,1.48-.06,2.54v.06c0,.18.08.22.52.22.6,0,.86-.1.86-.3v-.58h7.22v.68c0,.16.08.22.28.22a4.965,4.965,0,0,0,.9-.08c.16-.06.2-.1.2-.26-.04-1.62-.04-1.92-.04-2.36V78.4c.64-.42.66-.44.66-.56,0-.06-.02-.1-.14-.2-.52-.38-.7-.5-1.28-.88-.32.34-.4.46-.68.8Zm-.2.46h7.22V80.6H6.36Zm1.18,6.94c-.66-.36-.88-.46-1.58-.78.04.68.06,1.4.06,2.48L6,89.56c0,.18.1.26.32.26h.04c.06,0,.16-.02.3-.02.48-.02.64-.08.68-.26v-1h5.2v.68c.02.1.08.14.26.14.76,0,1.04-.08,1.06-.32,0-.32,0-.68-.02-1.04V85.76c.56-.42.56-.42.56-.52,0-.04-.02-.08-.1-.16a9.288,9.288,0,0,0-1.2-.88,8.044,8.044,0,0,0-.68.76Zm-.2.46h5.2v2.66H7.34ZM3.82,82.8a11.141,11.141,0,0,0-1.74-.96c.04,1.48.06,2.62.06,6.3,0,.58,0,.84-.06,3.24.04.14.1.18.32.18a6.6,6.6,0,0,0,.94-.08c.16-.02.2-.06.24-.18-.04-2.04-.04-2.46-.04-3.96V83.26h12.8v6.4c0,.24-.04.32-.2.34-1.16,0-1.82-.04-3.26-.12v.36a5.282,5.282,0,0,1,1.94.38,1.032,1.032,0,0,1,.62.96,7.174,7.174,0,0,0,1.58-.38c.6-.22.78-.42.8-.94-.02-.52-.02-.58-.04-1.48,0-.58-.02-1.18-.04-1.84V83.7c.72-.38.74-.4.74-.54,0-.08-.04-.12-.16-.24-.54-.42-.74-.56-1.4-1-.28.32-.54.62-.78.88Zm-.16,30.56a20,20,0,0,0,5.76-5.48,1.827,1.827,0,0,0,1.24.58,1.818,1.818,0,0,0,.66-.14,15.187,15.187,0,0,1,2.54-.64c.12,0,.18.06.18.14a3.4,3.4,0,0,1-.32,1.02,24.611,24.611,0,0,1-5.46,7.92,22.271,22.271,0,0,1-4.42,3.58l.14.28a18.045,18.045,0,0,0,4.96-3.12,23.4,23.4,0,0,0,5.9-7.52,4.133,4.133,0,0,1,.96-1.42c.24-.22.3-.32.3-.5,0-.44-1.14-1.48-1.62-1.48a.539.539,0,0,0-.34.12,6.121,6.121,0,0,1-1.58.54,14.076,14.076,0,0,1-2.4.4,2.181,2.181,0,0,1-.52-.08c1.06-1.56,1.08-1.58,1.08-1.82,0-.32-.3-.66-.94-1.02a3.67,3.67,0,0,0-1.64-.54.682.682,0,0,0-.38.12,2.955,2.955,0,0,0,.36.18,2.978,2.978,0,0,1,.48.36c.3.26.38.42.38.68a7.331,7.331,0,0,1-1.32,2.7,22.386,22.386,0,0,1-4.2,4.9Zm2,21.8c.96,1.5,1.56,1.88,3.06,1.88a37.294,37.294,0,0,0,5.1-.52c.58-.08.76-.2.76-.44,0-.4-1-1.1-1.56-1.1a.84.84,0,0,0-.42.12,12.947,12.947,0,0,1-4.52.96,2.6,2.6,0,0,1-2.14-1.08Zm.72,15.54c3.3-1.46,6.52-4.7,8.68-8.78.34-.66.46-.84.74-1.04a.718.718,0,0,0,.3-.5c0-.26-.24-.58-.8-1.1-.46-.4-.76-.6-.94-.6a.709.709,0,0,0-.32.12,3.742,3.742,0,0,1-1.64.46c-2.6.44-5.98.86-6.76.86a1.921,1.921,0,0,1-1.74-1.16.475.475,0,0,0-.12.34c0,.88,1.14,2.32,1.84,2.32a1.084,1.084,0,0,0,.6-.18,10.023,10.023,0,0,1,2.08-.62,34.719,34.719,0,0,1,5.82-.92,19.085,19.085,0,0,1-3.36,6.1,23.053,23.053,0,0,1-4.56,4.46ZM2.14,179.6a17.763,17.763,0,0,0,3.5-1.96,21.746,21.746,0,0,0,4.84-4.5,17.144,17.144,0,0,1,4.76,4.9,5.948,5.948,0,0,0,.48.8.63.63,0,0,0,.46.32c.34,0,.54-.4.54-1.04a2.651,2.651,0,0,0-.76-1.98c-.78-.88-2.36-1.9-5.18-3.38,1.56-2.04,1.56-2.04,2.52-3.48.72-1.08.72-1.08,1.14-1.36a.465.465,0,0,0,.26-.38c0-.38-1.14-1.4-1.56-1.4a.8.8,0,0,0-.46.18,5.185,5.185,0,0,1-1.88.56,31.8,31.8,0,0,1-4.2.56c-.88,0-1.3-.3-1.88-1.34a.8.8,0,0,0-.14.4A2.47,2.47,0,0,0,5,167.7c.44.78.86,1.14,1.3,1.14a.934.934,0,0,0,.34-.06,10.442,10.442,0,0,1,1.68-.54,21.348,21.348,0,0,1,4.22-.88,13.433,13.433,0,0,1-1.36,2.58,35.565,35.565,0,0,1-3.82,4.98,28.9,28.9,0,0,1-5.38,4.38Zm7.84,30.34a11.933,11.933,0,0,0,3.9-1.24,6.892,6.892,0,0,0,3.98-6.06,6.106,6.106,0,0,0-1.92-4.7,7.6,7.6,0,0,0-5.16-1.84,9.7,9.7,0,0,0-6.88,2.8,6.25,6.25,0,0,0-1.8,3.96,3.841,3.841,0,0,0,.46,1.82,12.45,12.45,0,0,1,.88,1.88A3.926,3.926,0,0,0,4,207.84a1.161,1.161,0,0,0,.88.42c.74,0,1.72-.98,2.98-2.98,1.52-2.44,2.64-5.36,2.64-6.92a2.61,2.61,0,0,0-.62-1.66,4.6,4.6,0,0,1,.7-.04,6.6,6.6,0,0,1,3.46.92A4.961,4.961,0,0,1,16.3,202a7.114,7.114,0,0,1-1.78,4.82,9.1,9.1,0,0,1-4.68,2.78Zm-.52-13.16a2.232,2.232,0,0,1,.28,1c0,1.24-1.06,3.82-2.54,6.18-.98,1.56-1.94,2.64-2.38,2.64-.22,0-.48-.22-.76-.58a4.68,4.68,0,0,1-.8-2.64C3.26,200.3,5.98,197.4,9.46,196.78Z" transform="translate(1149 4960.968)" fill="#333"/>
    <path id="パス_4063" data-name="パス 4063" d="M6.36-9.9h7.28v.94c.02.24.12.3.4.3a2.85,2.85,0,0,0,.82-.12c.14-.06.18-.14.18-.32-.02-1.38-.04-3.5-.04-5.28.54-.28.68-.4.68-.54,0-.08-.04-.16-.16-.28-.54-.46-.72-.6-1.28-1.04a9.8,9.8,0,0,0-.86.94H6.76c-.78-.44-1.02-.56-1.78-.94.04,1,.04,1.86.04,3.56,0,1.82,0,2.24-.04,3.9.04.18.1.22.44.22.72,0,.92-.08.94-.4Zm0-4.94h7.28v4.48H6.36ZM3.26-.74H7.4V.5a.259.259,0,0,0,.3.24A3.371,3.371,0,0,0,8.6.62c.14-.04.18-.12.2-.3C8.78-.94,8.76-4.6,8.76-6.22c.62-.4.62-.4.62-.54,0-.08-.04-.14-.18-.32-.44-.42-.58-.54-1.08-.96-.4.42-.52.56-.88,1H3.48a12.453,12.453,0,0,0-1.6-.88q.06.99.06,5.22c0,1.56-.02,2.26-.08,3.38,0,.22.08.3.3.3H2.2c.08,0,.18-.02.28-.02.62-.02.76-.08.78-.34Zm0-5.84H7.4V-1.2H3.26ZM11.12.64c.02.16.1.22.28.22h.04c.02,0,.16-.02.34-.02.5-.04.62-.1.66-.36V-.74h4.18V.52c.02.22.12.3.36.3A3.09,3.09,0,0,0,17.86.7c.14-.06.18-.14.2-.32-.02-.86-.04-3.52-.04-5.52V-6.2c.46-.2.6-.32.6-.46,0-.1-.04-.16-.16-.28-.5-.42-.66-.56-1.22-1.02-.36.4-.46.52-.8.92H12.7c-.68-.46-.9-.6-1.58-1,.02,1.28.04,1.92.04,2.86Zm1.32-7.22h4.18V-1.2H12.44ZM10.02,17.1c.06,0,.14-.06.14-.12a.152.152,0,0,0-.04-.08c-.58-.58-.76-.74-1.34-1.26-.42.42-.54.54-.94,1H3.76c0-.28.02-.62.02-.92V15.5a37.831,37.831,0,0,0,4.8-.94c.38.04.54.06.66.06.22,0,.34-.06.34-.18,0-.16-.38-.46-1.66-1.24a4.13,4.13,0,0,1-1.14.74A15.574,15.574,0,0,1,3.96,15a9.771,9.771,0,0,0-1.48-.92c.04.58.04.8.04,1.28a11.849,11.849,0,0,1-.28,3.02A5.8,5.8,0,0,1,.74,21.1l.22.2A5.786,5.786,0,0,0,3.7,17.1H6.24c-.02,1.98-.02,1.98-.06,2.76v.04c0,.14.1.2.32.2a2.562,2.562,0,0,0,.88-.1c.06-.04.08-.1.08-.26V19.3c-.02-.56-.02-1.3-.02-2.2Zm4.3,0v.22c0,.08,0,.32-.02.6-.02.96-.02.96-.02,1.5.02.16.1.22.26.22a3.078,3.078,0,0,0,.92-.12c.06-.04.08-.08.08-.18-.02-1.2-.02-1.94-.02-2.24H19.2c.06,0,.14-.1.14-.16a.3.3,0,0,0-.08-.12c-.6-.56-.8-.72-1.44-1.24-.54.56-.54.56-1,1.06H11.86c.06-.28.06-.4.12-.9,0-.08.02-.18.02-.34a31.88,31.88,0,0,0,5.48-.98,3.68,3.68,0,0,0,.82.14.225.225,0,0,0,.24-.2c0-.2-.54-.6-1.72-1.28a4.22,4.22,0,0,1-1.22.72,15.259,15.259,0,0,1-3.34,1.14,9.6,9.6,0,0,0-1.52-.92c.02.36.02.44.02.72a12.252,12.252,0,0,1-.38,3.1A4.266,4.266,0,0,1,8.5,20.18l.12.18a5.045,5.045,0,0,0,2.6-1.96,3.492,3.492,0,0,0,.54-1.3Zm-13,14.4a21.114,21.114,0,0,0,6.9-1.86,3.4,3.4,0,0,1,.42-.02h.18c.26,0,.42-.08.42-.18,0-.22-.42-.4-1.96-.86-.98.96-3.34,1.96-6.04,2.58Zm10.22-2.46c1.34.42,1.78.56,2.16.7a20.035,20.035,0,0,1,2.88,1.34c.64.4.64.4.82.4a.39.39,0,0,0,.4-.44,1.647,1.647,0,0,0-.94-1.46,42.509,42.509,0,0,0-5.24-.82Zm-5.66-.96h8.44v.52c.02.12.08.16.26.16a4.156,4.156,0,0,0,.96-.1c.16-.04.2-.08.2-.26l.02-.02c-.06-1.44-.08-3.74-.08-6.9.44-.24.62-.4.62-.54,0-.06-.06-.14-.2-.24-.52-.36-.68-.46-1.2-.82-.26.34-.34.44-.58.74H5.98a15.692,15.692,0,0,0-1.54-.74,27.423,27.423,0,0,1,.1,2.82c0,2.58-.02,4.28-.1,5.9.02.16.12.22.34.22a3.567,3.567,0,0,0,.98-.12.212.212,0,0,0,.12-.22Zm0-5.3v-1.7h8.44v1.7Zm8.44.46v1.9H5.88v-1.9Zm0,2.36v2.02H5.88V25.6ZM1.88,47.04a.868.868,0,0,0-.22.54,2.856,2.856,0,0,0,.52,1.34A2.207,2.207,0,0,0,3.72,50.1a1.318,1.318,0,0,0,.8-.28,33.817,33.817,0,0,1,8.94-2.68,10.366,10.366,0,0,0-3.26,2.3,7.411,7.411,0,0,0-2.18,4.88,5.312,5.312,0,0,0,2.32,4.48,8.26,8.26,0,0,0,4.08,1.44c.42,0,.72-.24.72-.56a1.638,1.638,0,0,0-.6-.96,1,1,0,0,0-.84-.32,6.044,6.044,0,0,1-2.02-.48,4.058,4.058,0,0,1-2.66-3.9,7.094,7.094,0,0,1,6.72-6.68,2.736,2.736,0,0,1,.56.04,2.832,2.832,0,0,0,.38.02c.38,0,.62-.2.62-.5,0-.26-.18-.52-.58-.76a2.671,2.671,0,0,0-1.08-.42,2.52,2.52,0,0,0-.7.16,21.906,21.906,0,0,1-2.7.66c-1.38.26-2.52.52-3.24.7-4.5,1.08-5,1.18-5.56,1.18a1.133,1.133,0,0,1-.9-.34A2.177,2.177,0,0,1,1.88,47.04Zm12.28,3.1a9.594,9.594,0,0,1,1.54,2.12c.62,1.3.62,1.3.88,1.3.34,0,.62-.36.62-.84s-.28-.94-1-1.6a10.2,10.2,0,0,0-1.78-1.24ZM16.26,49a9.546,9.546,0,0,1,2.2,2.84c.16.28.28.38.46.38.3,0,.5-.34.5-.82,0-.54-.26-.96-1.02-1.54a9.727,9.727,0,0,0-1.92-1.14ZM3.7,80.44a11,11,0,0,1-.6,2.84A6.37,6.37,0,0,1,1.66,85.7c-.46.42-.52.52-.52.86,0,.74.28,1.42.6,1.42s.82-.5,1.22-1.26a11.858,11.858,0,0,0,1.1-5.26c0-.34,0-.5-.02-1.02Zm2.52,6.22c0,.72,0,.88-.08,2.88.04.6.22.84.7,1,.36.14.98.16,4.22.16a28.959,28.959,0,0,0,3.68-.2c.6-.12.9-.36.9-.7,0-.28-.2-.48-.6-.54-.26-.04-.4-.16-.4-.36v-.06l.26-4.36-.26-.02a29.1,29.1,0,0,1-1.22,4.52c-.2.4-.56.48-2.18.48-.68,0-2.62-.02-2.8-.02-.68-.04-.8-.1-.8-.42V78.62c.86-.32.88-.32.88-.5,0-.22-.24-.28-2.4-.6.06.86.1,1.92.1,2.76Zm.4-12.56a15.316,15.316,0,0,1,4.7,3.48c.3.34.44.44.56.44.22,0,.4-.4.4-.9a2.751,2.751,0,0,0-.16-.9,1.268,1.268,0,0,0-.58-.6,14.663,14.663,0,0,0-4.78-1.8Zm8.4,6.34a19.259,19.259,0,0,1,2.4,6.18c.12.54.24.74.44.74.18,0,.36-.18.56-.56a3.662,3.662,0,0,0,.4-1.42c0-1.1-1.2-2.84-3.54-5.1ZM5.7,111.48c-.84,1.84-.84,1.84-1.6,3.32a13.424,13.424,0,0,1-1.48,2.36,1.314,1.314,0,0,0-.46,1.12c0,.86.22,1.38.58,1.38.18,0,.34-.12.48-.38.32-.56.98-2,1.78-3.88.7-1.66,1.1-2.6,1.18-2.8.88-2.04.88-2.04,1.16-2.72a6.474,6.474,0,0,1,2.1-.42c1.06,0,1.42.48,1.42,1.82a15.471,15.471,0,0,1-1.18,5.38c-.52,1.26-.84,1.68-1.3,1.68a10.067,10.067,0,0,1-3.1-1.38l-.18.26c2.12,1.74,2.16,1.78,2.22,2.34a.465.465,0,0,0,.54.46,2.833,2.833,0,0,0,1.92-.9c1.16-1.3,2.18-4.62,2.18-7.18,0-2.1-.82-3.12-2.54-3.12a6.962,6.962,0,0,0-1.74.24,19.364,19.364,0,0,1,1.28-2.72c.24-.34.28-.42.28-.58,0-.42-.5-.78-1.4-1.04a5.48,5.48,0,0,0-1.34-.26.9.9,0,0,0-.6.2c1.16.38,1.54.72,1.54,1.34a11.275,11.275,0,0,1-.82,3.28,20.68,20.68,0,0,1-3.4.7c-.74,0-1.1-.26-1.52-1.1a1.322,1.322,0,0,0-.12.44,3.172,3.172,0,0,0,.66,1.52,1.478,1.478,0,0,0,.88.6,1.046,1.046,0,0,0,.58-.22,15.484,15.484,0,0,1,2.6-1.04Zm8.24-2.3a5.8,5.8,0,0,1,2.74,2.66,5.137,5.137,0,0,1,.62,1.92,30.443,30.443,0,0,1-3.06,1.02l.08.28a17.688,17.688,0,0,1,2.5-.18,1.291,1.291,0,0,1,.82.2.757.757,0,0,0,.46.14c.5,0,.8-.4.8-1.08a4.714,4.714,0,0,0-1.14-2.84,6.951,6.951,0,0,0-3.66-2.4Zm-6.66,24.8a4.161,4.161,0,0,0,1.02,1.6,6.316,6.316,0,0,0,1.82,1.14,17.778,17.778,0,0,1-2.36.76,4.929,4.929,0,0,0-2.06.92c-.26.26-.32.44-.32,1.14A22.319,22.319,0,0,1,5,142.18c-.1.7-.2,1.26-.24,1.66a8.28,8.28,0,0,1-.22,1.2c-.02.14-.06.3-.06.32a2.317,2.317,0,0,0,.42,1.02c.32.46.58.66.88.66.22,0,.36-.1.56-.4a4.574,4.574,0,0,1,1.1-1.26,7.951,7.951,0,0,1,4.78-2.18,2.171,2.171,0,0,1,2.42,2.18,3.876,3.876,0,0,1-2,3.24,11.5,11.5,0,0,1-5.02,1.78l.06.32a14.681,14.681,0,0,0,4.54-.78c2.5-.86,3.94-2.42,3.94-4.26,0-1.82-1.58-3.12-3.82-3.12a12.534,12.534,0,0,0-6.52,2.48c.04-1.34.18-3,.32-4.06.04-.36.06-.54.06-.64a1.6,1.6,0,0,0-.14-.64,1.983,1.983,0,0,1-.12-.58.773.773,0,0,1,.22-.54,1.972,1.972,0,0,1,.92-.36,17.1,17.1,0,0,1,3.82-.56,6.753,6.753,0,0,1,.98.06c.26.04.36.06.42.06a.439.439,0,0,0,.48-.42,1.445,1.445,0,0,0-.44-.88,1.244,1.244,0,0,0-.82-.5c-.46-.1-1.06-.26-1.44-.38a4.121,4.121,0,0,1-2.54-1.76Zm2.7,45.96a11.933,11.933,0,0,0,3.9-1.24,6.892,6.892,0,0,0,3.98-6.06,6.106,6.106,0,0,0-1.92-4.7,7.6,7.6,0,0,0-5.16-1.84,9.7,9.7,0,0,0-6.88,2.8,6.25,6.25,0,0,0-1.8,3.96,3.841,3.841,0,0,0,.46,1.82,12.45,12.45,0,0,1,.88,1.88A3.926,3.926,0,0,0,4,177.84a1.161,1.161,0,0,0,.88.42c.74,0,1.72-.98,2.98-2.98,1.52-2.44,2.64-5.36,2.64-6.92a2.61,2.61,0,0,0-.62-1.66,4.6,4.6,0,0,1,.7-.04,6.6,6.6,0,0,1,3.46.92A4.961,4.961,0,0,1,16.3,172a7.114,7.114,0,0,1-1.78,4.82,9.1,9.1,0,0,1-4.68,2.78Zm-.52-13.16a2.232,2.232,0,0,1,.28,1c0,1.24-1.06,3.82-2.54,6.18-.98,1.56-1.94,2.64-2.38,2.64-.22,0-.48-.22-.76-.58a4.68,4.68,0,0,1-.8-2.64C3.26,170.3,5.98,167.4,9.46,166.78Z" transform="translate(1120 4960.968)" fill="#333"/>
    <path id="パス_4062" data-name="パス 4062" d="M2.02-11.04A3.325,3.325,0,0,0,5-9.4a9.359,9.359,0,0,0,1.56-.14c-.06,1.98-.06,1.98-.1,2.88-.02.38-.02.68-.04.96A9.932,9.932,0,0,0,3.24-3.64a1.731,1.731,0,0,0-.6,1.12.951.951,0,0,0,.66.84,8.256,8.256,0,0,1,1.34.9C5.86.3,5.86.3,6.14.3A1.215,1.215,0,0,0,7.1-.44a2.343,2.343,0,0,0,.26-1.18c0-.16,0-.38-.02-.76-.02-.6-.02-.6-.02-2.72a12.922,12.922,0,0,1,5.42-1.44c1.92,0,2.96.84,2.96,2.38a2.528,2.528,0,0,1-2.5,2.74,2.675,2.675,0,0,1-1.9-.76,5.944,5.944,0,0,1-1.2-1.74l-.3.1c.7,2.32,2.02,3.54,3.86,3.54a3.407,3.407,0,0,0,3.42-3.48c0-2.12-1.72-3.42-4.46-3.42a14.816,14.816,0,0,0-5.3,1.1c.02-1.2.06-2.08.08-2.62.04-.72.04-.72.06-1a13.907,13.907,0,0,0,2.92-.98c.72-.34.9-.5.9-.78a.51.51,0,0,0-.34-.44,2.437,2.437,0,0,0-.76-.18.95.95,0,0,0-.48.2,5.731,5.731,0,0,1-2.18,1.16,7.589,7.589,0,0,1,.62-2.98c.22-.4.22-.4.22-.52a.819.819,0,0,0-.44-.64,4.674,4.674,0,0,0-2.06-.5,1.124,1.124,0,0,0-.86.28c1.38.24,1.62.66,1.62,2.76,0,.36,0,1.26-.02,1.84a8.774,8.774,0,0,1-2,.26,3.343,3.343,0,0,1-2.38-1.02Zm4.34,6.4c0,.12-.04,1.1-.14,2.9-.02.36-.12.5-.36.5a4.183,4.183,0,0,1-1.24-.32c-.54-.2-.8-.42-.8-.62q0-.33.6-.96A8.376,8.376,0,0,1,6.36-4.64Zm6.96-8.34a5.564,5.564,0,0,1,1.38.52,3.015,3.015,0,0,1,1.26,1.24,14.134,14.134,0,0,1-2.18,1.28l.12.2a12.916,12.916,0,0,1,2.46-.54,2.643,2.643,0,0,1,.42.04,1.167,1.167,0,0,0,.3.04.551.551,0,0,0,.6-.58,2.278,2.278,0,0,0-1.4-1.76,6.631,6.631,0,0,0-2.94-.72ZM4.06,16.86A4.95,4.95,0,0,0,5.1,18.62a5.052,5.052,0,0,0,1.94,1.24A4.218,4.218,0,0,0,5.1,20.92a2.065,2.065,0,0,0-.62,1.38,2.984,2.984,0,0,0,.88,1.98,4.907,4.907,0,0,0,1.6,1.02c-.02.5-.04.76-.04,1a4.288,4.288,0,0,0,1.54,3.72,4.572,4.572,0,0,0,2.72.82c2.78,0,4.86-1.84,4.86-4.26,0-2.04-1.26-3.7-4.22-5.52l-.22.26a6.835,6.835,0,0,1,3.02,5,3.363,3.363,0,0,1-.66,2.04,3.888,3.888,0,0,1-3.16,1.36,2.872,2.872,0,0,1-3.16-3.18c0-.26.02-.5.06-.98a8.106,8.106,0,0,0,2.12.36c.42,0,.68-.18.68-.46a1.387,1.387,0,0,0-1.2-1.08,1.322,1.322,0,0,0-.22.02.44.44,0,0,1-.16.02,5.545,5.545,0,0,1-1.02-.14,23.79,23.79,0,0,1,.8-3.7,4.6,4.6,0,0,0,.78.1c.4,0,.64-.16.64-.42a1.131,1.131,0,0,0-.28-.66,1.452,1.452,0,0,0-.8-.44,9.47,9.47,0,0,1,1.1-2.78.862.862,0,0,0,.26-.58,2.078,2.078,0,0,0-1.04-1.44,3.066,3.066,0,0,0-1.48-.62.825.825,0,0,0-.34.08c.8.56,1.08.98,1.08,1.66A21.1,21.1,0,0,1,8,19.04a6.082,6.082,0,0,1-2.34-.86,4.352,4.352,0,0,1-1.38-1.44Zm3.62,3.58a33.057,33.057,0,0,0-.6,3.64c-1.38-.42-2.06-1.04-2.06-1.88a1.385,1.385,0,0,1,.44-1A3.015,3.015,0,0,1,7.68,20.44ZM2.1,46.96a.788.788,0,0,0-.22.52,2.856,2.856,0,0,0,.52,1.34A2.207,2.207,0,0,0,3.94,50a1.318,1.318,0,0,0,.8-.28,22.333,22.333,0,0,1,3.2-1.28,32.25,32.25,0,0,1,5.74-1.38,10.28,10.28,0,0,0-3.26,2.28,7.452,7.452,0,0,0-2.18,4.88,5.286,5.286,0,0,0,2.32,4.48,8.26,8.26,0,0,0,4.06,1.44c.44,0,.74-.22.74-.56a1.75,1.75,0,0,0-.6-.96,1.019,1.019,0,0,0-.84-.32,6.265,6.265,0,0,1-2.04-.48,4.056,4.056,0,0,1-2.64-3.94,7.086,7.086,0,0,1,6.72-6.62,2.935,2.935,0,0,1,.56.04,2.565,2.565,0,0,0,.36.02c.38,0,.62-.2.62-.5,0-.28-.18-.5-.58-.76a2.671,2.671,0,0,0-1.08-.42,2.52,2.52,0,0,0-.7.16,20.987,20.987,0,0,1-2.7.64c-1.32.26-2.4.5-3.24.7-4.48,1.08-4.98,1.18-5.54,1.18a1.133,1.133,0,0,1-.9-.34A2.211,2.211,0,0,1,2.1,46.96Zm.22,30.62a4.083,4.083,0,0,0,1.46,1.46,3.236,3.236,0,0,0,1.76.42,5.93,5.93,0,0,0,.94-.08,26.548,26.548,0,0,1-2.5,4.7,8.971,8.971,0,0,1-.96,1.2A.849.849,0,0,0,2.8,86c0,.8.28,1.42.62,1.42.24,0,.42-.18.72-.72.18-.34,1.72-3.7,2.32-5.08.54-1.2.88-2.02,1.06-2.42,3.18-.74,4.42-1.24,4.42-1.76,0-.34-.58-.6-1.36-.6a.491.491,0,0,0-.42.16,5.214,5.214,0,0,1-2.22,1.1c.72-1.48,1.14-2.3,1.22-2.46a.855.855,0,0,0,.2-.52c0-.28-.26-.5-.94-.84a4.2,4.2,0,0,0-1.6-.46.85.85,0,0,0-.48.14c.96.48,1.28.88,1.28,1.54a8.277,8.277,0,0,1-.72,2.84,8.753,8.753,0,0,1-1.82.24,3.208,3.208,0,0,1-2.52-1.16Zm10.76,1.28a5.574,5.574,0,0,1,2.58,1.38c-.74.16-.78.18-1.08.26a3.739,3.739,0,0,0-1.9.94c-.54.6-.7,1.22-.7,2.86,0,.24,0,.4.06,1.98a6.47,6.47,0,0,0-1.2-.1c-2.22,0-3.74.98-3.74,2.38,0,1.26,1.24,2.12,3.04,2.12a3.692,3.692,0,0,0,2.6-.86,2.244,2.244,0,0,0,.56-1.7v-.38a7.272,7.272,0,0,1,2.42,1.76c.42.46.5.52.7.52.24,0,.4-.28.4-.68a1.907,1.907,0,0,0-.8-1.58,9.017,9.017,0,0,0-2.84-1.3,28.585,28.585,0,0,1-.4-3.44c0-1.38.5-1.82,2.1-1.82a3.144,3.144,0,0,1,1.96.42.755.755,0,0,0,.46.16.522.522,0,0,0,.52-.58c0-.46-.48-1.06-1.26-1.56a7.066,7.066,0,0,0-3.42-1.1Zm-1.02,8.98c0,1.26-.84,1.92-2.46,1.92-1.24,0-2-.44-2-1.18,0-.94,1.04-1.52,2.74-1.52a5.587,5.587,0,0,1,1.72.24Zm4.48,28.34A12.366,12.366,0,0,1,14,117.96a10.387,10.387,0,0,1-4.56,1.28,2.942,2.942,0,0,1-1.78-.54,2.845,2.845,0,0,1-.8-2.4,61.738,61.738,0,0,1,1.04-9.6,2.09,2.09,0,0,0,.18-.72c0-.42-.4-.82-1.16-1.18a4.97,4.97,0,0,0-1.8-.46.807.807,0,0,0-.56.2c1.42.6,1.62.94,1.62,2.66,0,.72-.02,1.28-.14,3.44-.1,1.82-.16,3.72-.16,4.82a6.839,6.839,0,0,0,.56,3.38,3.627,3.627,0,0,0,3.32,1.7c2.48,0,5.1-1.54,7.02-4.14ZM2.9,137a3.231,3.231,0,0,0,2.98,1.54,7.583,7.583,0,0,0,1.34-.12,16.108,16.108,0,0,1-3.72,4.3c-.56.46-.58.48-.58.9,0,.64.22,1.06.54,1.06.2,0,.36-.12.74-.64,1.44-1.84,3.02-2.9,4.34-2.9a1.138,1.138,0,0,1,1.02.6,3.367,3.367,0,0,1,.28,1.58,14.448,14.448,0,0,0-2.48,1.78,3.8,3.8,0,0,0-1.44,2.74,2.191,2.191,0,0,0,1.48,2.12,10.341,10.341,0,0,0,4.06.58,22.231,22.231,0,0,0,3.58-.28c.4-.08.62-.28.62-.54,0-.44-.78-1-1.4-1a1.478,1.478,0,0,0-.38.06,14.462,14.462,0,0,1-4.02.56c-2.24,0-3.34-.52-3.34-1.6a2.676,2.676,0,0,1,.98-1.86,10.164,10.164,0,0,1,2.34-1.58,19.1,19.1,0,0,1-.14,2.14,2.18,2.18,0,0,0-.02.34.6.6,0,0,0,.64.6.635.635,0,0,0,.56-.38,5.548,5.548,0,0,0,.16-1.72c0-.86,0-.98-.02-1.62a32.476,32.476,0,0,1,5.36-2.06c.56-.12.72-.26.72-.62a2.809,2.809,0,0,0-2.26-2.02.973.973,0,0,0-.46.12c.58.24.92.6.92.94,0,.36-.48.68-2.46,1.68-1.62.82-1.62.82-1.96.98a2.218,2.218,0,0,0-2.24-2,5.413,5.413,0,0,0-2.58.8c.38-.54.54-.76,1.08-1.6.46-.7.7-1.06,1.06-1.56a32.071,32.071,0,0,0,4.36-1.14c.6-.2.86-.4.86-.64,0-.38-.56-.66-1.34-.66a.561.561,0,0,0-.38.14,6.582,6.582,0,0,1-2.88,1.28c.14-.2.14-.2.5-.78.16-.22.4-.58.58-.82.24-.3.32-.44.32-.58,0-.24-.22-.46-.72-.66a4.231,4.231,0,0,0-1.56-.34,1.587,1.587,0,0,0-.9.22c1.04.26,1.42.58,1.42,1.12a5.4,5.4,0,0,1-.7,2.04,10.6,10.6,0,0,1-2.14.26,3.291,3.291,0,0,1-2.5-.94Z" transform="translate(1090 4960.968)" fill="#333"/>
  </g>
</svg>
