<?xml version="1.0" encoding="UTF-8"?><svg id="_イヤー_2" xmlns="http://www.w3.org/2000/svg" viewBox="0 0 85.4 275.59"><g id="_イヤー_1-2"><g><path d="M77.8,85.59c0,1,.1,1.5,.4,1.7,.2,.2,.4,.2,1.2,.2v.6h-5.2v-.6c.9,0,1.1-.1,1.4-.2,.3-.2,.4-.7,.4-1.7v-1.6h-7.3v-1l7.8-10.4h1.4v10.5h2.2v.9h-2.2l-.1,1.6Zm-1.8-11l-6.3,8.5h6.3v-8.5Z" fill="#42210b"/><path d="M73.6,97.59c0,2.3-.1,2.7-.3,4.7h6.2c.4-.4,.5-.6,.9-1,.7,.5,.9,.6,1.5,1.1l.2,.2c0,.2-.1,.2-.8,.6-.3,3.7-.3,4.3-.5,5.8-.4,2.6-.8,3.9-1.5,4.5-.5,.4-.9,.5-2.5,.8-.1-.7-.3-1-.9-1.2-.4-.2-.9-.3-3.1-.6v-.3c2.2,.1,3.7,.2,4.7,.2,.5,0,.7,0,.8-.2,.3-.4,.6-1.2,.9-3,.3-1.9,.5-3.4,.6-6.3h-6.5c-.4,2.4-.9,4.2-1.8,5.8-.9,1.8-2.4,3.4-4.1,4.7-.6,.5-1.1,.8-2.2,1.4l-.2-.3c1.7-1.2,2.8-2.4,4-4.2,1.8-2.7,2.7-6,2.9-10.4v-2.1h-4.2c-.9,0-1.9,.1-2.5,.2l-.1-.8c.8,.1,1.4,.2,2.6,.2h13.2c.6-.8,.8-1,1.4-1.7,.9,.8,1.2,1,2.1,1.8,.1,.1,.1,.2,.1,.2,0,.1-.1,.2-.3,.2l-10.6-.3Z" fill="#42210b"/><path d="M65.1,138.89c2-1.4,3-2.4,4.1-3.8,2-2.6,3.2-5.5,3.9-8.7,.3-1.6,.5-3.3,.5-4.6,0-.4,0-.7-.1-1.2,2.3,.3,2.6,.4,2.6,.6s-.1,.2-.9,.6v.7c0,3.1,1.2,6.8,3.1,9.5,1.2,1.7,2.7,3.1,4.4,4.1,.8,.5,1.3,.8,2.5,1.2v.3h-.2c-.5,0-.8,.1-1.1,.4-.2,.2-.3,.4-.6,1.1-2.2-1.4-3.8-3-5.2-5.2-1-1.6-1.9-3.9-2.5-6-.3-.9-.4-1.6-.5-3.1-.6,4-1.6,6.7-3.4,9.3-1.7,2.4-3.4,3.8-6.3,5.3l-.3-.5Z" fill="#42210b"/><path d="M71.1,149.49c.5-.6,.6-.8,1.1-1.3,.7,.6,.9,.8,1.5,1.5,0,.1,.1,.1,.1,.2s-.1,.1-.2,.1h-3.4c0,1.4,0,2.5-.1,3.9h1.2c.5-.6,.6-.8,1.1-1.3,.7,.6,.9,.8,1.6,1.5,0,.1,.1,.2,.1,.2,0,.1-.1,.1-.2,.1h-3.7c-.1,.8-.1,1.3-.3,2,1.1,.5,2,1,2.6,1.5,.7,.5,.9,.9,.9,1.6s-.2,1.3-.5,1.3q-.2,0-.7-.9c-.6-1.1-1.5-2.4-2.4-3.2-.3,1-.5,1.6-.9,2.4-.9,1.7-1.8,2.8-3.7,4.2l-.3-.3c1.6-1.7,2.4-3,3.1-4.9,.4-1.2,.7-2.3,.8-3.8h-2c-.5,0-.8,0-1.3,.1l-.2-.8c.6,.1,.9,.2,1.5,.2h2c.1-1.3,.1-2.3,.1-3.9h-1.7c-.6,0-1,0-1.4,.1l-.1-.8c.6,.1,.9,.2,1.5,.2h1.7v-1.6c0-2,0-2.3-.1-3.2,2.1,.2,2.3,.3,2.3,.5s-.1,.2-.8,.5v3.8l.8,.1Zm6.7,7.6c-.2,1.7-.5,2.7-1.2,3.7-.9,1.4-2.2,2.3-4,2.9-.8,.3-1.4,.4-2.9,.6v-.3c2.8-.8,4-1.4,5.1-2.7,1-1.1,1.5-2.5,1.6-4.2h-.9v.4c0,.3-.1,.4-.9,.4-.5,0-.6,0-.6-.3,.1-2,.1-3.4,.1-8.6,0-1.7,0-2.6-.1-4,.8,.4,1,.6,1.7,1.1h5.4c.4-.5,.5-.6,.9-1,.5,.4,.7,.5,1.2,1,.2,.1,.2,.2,.2,.3,0,.2-.2,.4-.7,.6,0,7.1,0,8.5,.1,10.6,0,.3-.2,.3-1,.3q-.5,0-.5-.3v-.5h-1v5.1c0,.3,0,.4,1.6,.4,1,0,1.1,0,1.3-.3,.2-.3,.4-1.2,1-3.8h.3l-.1,3.2v.1c0,.3,.1,.4,.3,.5,.5,.2,.6,.3,.6,.6,0,.4-.2,.6-.9,.7-.4,.1-1.5,.1-3,.1-2.2,0-2.3-.1-2.4-1.1v-5.6l-1.2,.1Zm3.5-10.5h-5.8v3h5.8v-3Zm-5.8,3.5v2.9h5.8v-2.9h-5.8Zm0,3.4v3.1h5.8v-3.1h-5.8Z" fill="#42210b"/><path d="M69.9,174.39c.4-.5,.5-.7,.9-1.2l1.4,1.4,.1,.1c0,.1-.1,.1-.2,.1h-2.7v2.2c.7,.4,1.2,.7,1.7,1.2,.5,.4,.6,.6,.6,1,0,.6-.3,1.2-.6,1.2,0,0-.1-.1-.2-.1q-.1-.1-.3-.7c-.3-.8-.7-1.7-1.2-2.2v11.4c0,.3-.2,.4-.8,.4h-.4c-.2,0-.3-.1-.3-.3l.2-7.8,.1-3.6c-1,3.2-1.7,4.7-3.2,6.8l-.2-.2c1.4-2.8,2.4-5.8,3.1-9.3h-1.5c-.6,0-.8,0-1.2,.2l-.2-.8c.6,.1,.9,.2,1.4,.2h1.7v-2.4c0-.9,0-1.4-.1-2.4,.5,.1,.9,.1,1.1,.1,1,.1,1.3,.2,1.3,.4s-.2,.3-1,.5v3.7l.5,.1Zm7.6,9.4c-.4,1-1,1.9-1.8,2.6-.8,.8-2,1.5-3.3,2-.6,.2-1,.3-2,.6l-.1-.3c1.6-.6,2.8-1.3,3.9-2.2,.9-.8,1.4-1.5,1.8-2.6h-3.7c-.9,0-1.2,0-1.8,.2l-.2-.9c.6,.1,1.1,.2,2,.2h3.9c.3-.8,.3-1.1,.4-2.2h-2.8v.6c0,.2-.1,.2-.1,.3-.1,0-.7,.1-1,.1-.2,0-.3-.1-.3-.3,.1-2.2,.1-2.6,.1-4.2,0-1.3,0-1.9-.1-3.3,.7,.4,.9,.5,1.6,.9h7.1c.3-.4,.4-.5,.8-.9,.4,.3,.8,.6,1.1,.9l.3,.3c0,.1-.1,.2-.6,.5,0,3.4,0,3.5,.1,5.4,0,.2-.1,.2-.2,.3-.1,0-.7,.1-1,.1-.2,0-.3-.1-.3-.2v-.5h-3.2c-.1,1.1-.2,1.5-.4,2.2h4.6l1.1-1.3q1,.8,1.9,1.5c.1,.1,.1,.2,.1,.2,0,.1-.1,.2-.2,.2h-7.1c.6,1,1.1,1.4,1.7,1.8,1.4,.9,3.1,1.3,5.4,1.4v.3c-.7,.3-1.1,.7-1.4,1.5-1.2-.4-1.8-.6-2.7-1.2-1.4-.9-2.5-1.9-3.1-3.1-.2-.3-.3-.4-.5-.9h0Zm1.3-11.7v-.8c0-.8,0-1-.1-1.7,.5,.1,.8,.1,1.1,.1,.9,.1,1.2,.2,1.2,.3,0,.2-.3,.3-.8,.4v1.6h1.7c.5-.6,.6-.8,1.1-1.3,.8,.6,1.1,.8,1.8,1.5q.1,.1,.1,.2c0,.1-.1,.1-.3,.1h-4.5v1.5c0,.3,0,.4-1.1,.4-.2,0-.3-.1-.3-.3v-1.7h-2.8v1.4c0,.2,0,.3-.2,.4-.1,0-.6,.1-1,.1-.2,0-.3-.1-.3-.3,0-.8,0-1.1,.1-1.6h-2c-.6,0-.9,0-1.4,.2l-.2-.9c.8,.2,.9,.2,1.6,.2h2v-.8c0-.8,0-1.1-.1-1.8,1.7,.1,2.3,.3,2.3,.5s-.2,.3-.9,.5v1.6l3,.2Zm2.5,5.6v-2h-7.4v2h7.4Zm-7.4,.5v2.4h7.4v-2.4h-7.4Z" fill="#42210b"/><path d="M74.8,210.29c2.3-.7,3.8-1.6,5-3,1.3-1.4,1.9-3.2,1.9-5.2,0-2.1-.8-3.7-2.4-4.8-.9-.6-2.4-1-3.7-1h-.8c.5,.8,.7,1.2,.7,1.8,0,1.7-1.2,4.8-2.8,7.5-1.4,2.2-2.4,3.2-3.2,3.2-.4,0-.7-.2-.9-.5q-.2-.3-.6-1.4c-.2-.6-.3-.8-1-2-.3-.7-.5-1.3-.5-2,0-1.4,.7-3,1.9-4.3,1.7-1.9,4.6-3,7.4-3,2.2,0,4.2,.7,5.6,2s2.1,3,2.1,5.1c0,2.7-1.6,5.1-4.3,6.5-1.2,.7-2.4,1-4.2,1.3l-.2-.2Zm-7.1-6.7c0,1,.3,2.1,.9,2.8,.3,.4,.6,.6,.8,.6,.5,0,1.5-1.2,2.6-2.8,1.6-2.5,2.7-5.3,2.7-6.7,0-.3-.1-.5-.3-1.1-3.8,.8-6.7,3.9-6.7,7.2Z" fill="#42210b"/><path d="M37.2,80.59c1,.2,2,.6,2.9,1.1,.7,.4,1,.8,1,1.5,0,.5-.2,1-.5,1l-.2-.1c-.1-.1-.2-.1-.5-.7-.7-.9-1.4-1.7-2.7-2.4v4.6q0,3.9,.1,5c-.1,.3-.2,.4-.8,.4h-.3c-.3,0-.4,0-.5-.2,0-.2,0-1.9,.1-5v-3.7c-1.1,1.1-1.9,1.8-3.4,2.7l-.2-.4c1.4-1.2,2.4-2.2,3.6-3.8,1.2-1.6,1.9-2.8,2.6-4.4h-4.3c-.5,0-.8,0-1.5,.1l-.2-.8c.6,.1,1.2,.2,1.7,.2h1.7v-2.3c0-.9,0-1.1-.2-1.9,.5,0,.8,.1,1.1,.1,1,.1,1.3,.1,1.3,.4,0,.2-.2,.3-.8,.5v3.2h1.2c.4-.5,.6-.6,1-1.1,.6,.5,.8,.6,1.3,1.1,.2,.2,.2,.3,.2,.3,0,.2-.1,.2-1.1,.4-.9,1.6-1.5,2.5-2.7,3.9l.1,.3Zm4.5-1.1c-.5,0-.9,0-1.7,.2l-.2-.8c.9,.1,1.2,.2,1.9,.2h3.1v-4.9c0-1.1,0-1.7-.2-2.7,.5,.1,.9,.1,1.1,.1,1.1,.1,1.4,.2,1.4,.4s-.2,.3-.9,.6v6.5h2.2l1.2-1.6c.9,.8,1.2,1,2,1.8,0,0,.1,.1,.1,.2s-.1,.2-.2,.2h-5.4v9.8h2.6c.6-.7,.8-.9,1.4-1.7,.9,.8,1.1,1,2,1.9,.1,0,.1,.1,.1,.2s-.1,.2-.2,.2h-11.3c-.9,0-1.2,0-2,.2l-.2-.8c.8,.1,1.5,.2,2.2,.2h3.8v-9.8l-2.8-.4Z" fill="#42210b"/><path d="M45.1,104.89c1.7-.8,2.9-1.6,3.9-2.6,1.6,.8,1.8,1,1.8,1.2,0,.1-.1,.2-.4,.2h-.8c-1.5,.7-2.9,1.2-4.6,1.6v1.2c0,.3,0,.4,.3,.4,.2,0,1.2,.1,1.8,.1h2c.8,0,.9,0,1.1-.2,.2-.2,.6-1.4,1-2.4h.3l-.1,1.7v.6q0,.1,.4,.3c.3,.1,.5,.3,.5,.5,0,.7-.6,.8-4.6,.8-3.5,0-3.7-.1-3.7-1.2v-5.5h-4.4c-.5,.8-.8,1.2-1.3,1.7h3c.4-.3,.5-.4,.9-.8,.5,.4,.6,.5,1.1,.9,.2,.1,.2,.2,.2,.3s-.1,.2-.8,.4c-1.4,2.1-2.6,3.1-4.6,4.2-1.5,.8-2.9,1.3-5,1.8l-.1-.3c2.5-.9,4.1-1.7,5.6-2.9-.2,0-.2-.1-.3-.2-.5-.8-1.1-1.4-1.7-1.7-1.4,1.1-2.1,1.5-3.3,2.1l-.2-.3c1.3-.9,2.2-1.7,3.4-3,.7-.8,1.1-1.3,1.5-2.1h-2.5c-.9,0-1.1,0-1.8,.1l-.2-.8c.7,.1,1.2,.2,2,.2h13.7c.6-.6,.7-.8,1.3-1.4,.8,.7,1.1,.9,1.9,1.6,0,.1,.1,.1,.1,.2s-.1,.1-.2,.1h-6.8l-.4,3.2Zm-.8-6.8v-.2c0-.9,0-1.4-.1-1.8,1.9,.2,2.4,.3,2.4,.5s-.2,.2-.9,.4v1.1h3.3l1.4-1.4c.9,.7,1.1,.9,2,1.6,0,.1,.1,.1,.1,.2s-.1,.1-.2,.1h-6.6v1.2c0,.3-.2,.3-1.2,.3-.2,0-.3,0-.3-.2v-1.3h-4.1v1.3c0,.1,0,.2-.1,.2-.1,.1-.6,.1-1.2,.1-.1,0-.2,0-.2-.2,0-.7,.1-1,.1-1.4h-4.1c-.9,0-1.1,0-1.7,.1l-.2-.8c.6,.1,1,.2,1.9,.2h4.1v-.6c0-.6,0-.8-.1-1.4,.5,.1,.8,.1,1.1,.1,1,.1,1.3,.2,1.3,.4s-.2,.2-.9,.4v1.1h4.2Zm-5.3,12.4c0-.4,.1-.7,.1-1.1,0-.3,0-.5-.1-.9,.5,.1,.8,.1,1,.1,.9,.1,1.3,.2,1.3,.4s-.1,.2-.8,.4c-.1,.6-.1,.7-.1,1h4q0-1.1-.1-1.8c2.1,.2,2.2,.2,2.2,.4s0,.2-.8,.5v.9h3.3c.6-.7,.8-.9,1.3-1.4,.9,.7,1.1,.9,2,1.6,0,.1,.1,.1,.1,.2s-.1,.2-.2,.2h-6.5v4.5c0,.1,0,.2-.1,.2-.1,.1-.7,.1-1.1,.1-.2,0-.3-.1-.3-.2,.1-1.4,.1-2,.1-3.1v-1.4h-4c-.3,1.5-.7,2.2-1.4,2.9-1.3,1.2-3.2,1.9-5.8,2.1l-.1-.3c2.5-.6,3.8-1.2,4.7-2.2,.6-.6,1-1.4,1.2-2.6h-3.9c-.8,0-1.1,0-1.7,.1l-.2-.8c.6,.1,1,.1,1.8,.1l4.1,.1Zm-1.5-6.8c-.4,.4-.6,.6-1.1,1,.4,.1,.8,.2,1.3,.4,.7,.3,1,.5,1,.8s-.1,.4-.2,.6c1.1-.9,1.7-1.6,2.4-2.8h-3.4Z" fill="#42210b"/><path d="M44.5,125.29c0,1.1-.9,2-2,2s-2-.9-2-2,.9-2,2-2,2,.9,2,2Z" fill="#42210b"/><path d="M34.2,139.59c.9,.8,1.6,1.1,2.6,1.1,.6,0,1.2-.1,2.2-.3v-2c0-2.3-.3-2.7-1.8-3,.3-.2,.5-.3,.9-.3,.7,0,1.6,.2,2.2,.5,.3,.2,.5,.5,.5,.7q0,.1-.2,.6c-.3,.6-.6,1.6-.7,3.2,1.1-.4,1.7-.7,2.3-1.3,.2-.1,.4-.2,.5-.2,.2,0,.6,.1,.8,.2,.2,.1,.4,.3,.4,.5,0,.3-.2,.5-1,.8-1,.5-2,.8-3.1,1.1q0,.3-.1,1.1c0,.6-.1,1.5-.1,2.8,2.4-.9,4-1.2,5.7-1.2,3,0,4.8,1.4,4.8,3.7,0,2.1-1.6,3.8-3.7,3.8s-3.4-1.3-4.2-3.8l.3-.1c.5,1,.8,1.4,1.3,1.9,.6,.6,1.3,.8,2,.8,1.6,0,2.7-1.2,2.7-3,0-1.7-1.1-2.6-3.2-2.6-1.7,0-3.7,.5-5.8,1.6v3.7c0,.5-.1,.9-.3,1.3-.3,.5-.7,.8-1,.8s-.3,0-1.6-1.2c-.5-.4-1.1-.8-1.4-1-.5-.2-.7-.5-.7-.9,0-.3,.2-.8,.6-1.2,.8-.8,1.5-1.3,3.4-2.2v-1q0-1,.1-3.1c-.7,.1-1.2,.2-1.7,.2-1.4,0-2.3-.5-3.2-1.8l.5-.2Zm2.3,8.7c-.4,.5-.6,.8-.6,1s.3,.5,.9,.7c.5,.2,1.1,.3,1.3,.3,.3,0,.4-.2,.4-.5,.1-1.9,.1-3,.1-3.1-1,.6-1.5,1-2.1,1.6Zm9.6-10.9c1.3,.1,2.3,.3,3.2,.8s1.5,1.2,1.5,1.9c0,.4-.3,.6-.6,.6h-.8c-.3,0-.8,.1-2.6,.6l-.1-.2c1.3-.7,2-1.1,2.3-1.4-.3-.6-.7-.9-1.4-1.3-.4-.2-.8-.4-1.5-.6v-.4Z" fill="#42210b"/><path d="M35.4,166.29q0,.2-.2,.3c-.1,0-.6,.1-.8,.1-.3,0-.4-.1-.4-.2h0c.1-1.5,.1-2.1,.1-3.5,0-2.2,0-3.7-.1-4.6,.9,.3,1.1,.5,1.9,1h5.1c.3-.4,.4-.6,.8-1,.6,.4,.8,.5,1.3,1q.2,.2,.2,.3t-.1,.2s-.2,.1-.6,.4c0,3.6,0,3.7,.1,5.8,0,.2,0,.3-.2,.3-.1,0-.6,.1-.9,.1s-.5-.1-.5-.3v-.9h-2.9c-.1,1.3-.1,1.9-.3,3h3c.3-.3,.4-.5,.8-.8,.5,.4,.7,.6,1.2,1q.2,.2,.2,.3,0,.1-.6,.5c-.3,3.1-.7,5.3-1,6.3-.2,.5-.5,.9-.9,1.1-.4,.2-.7,.3-1.6,.4,0-.9-.3-1.1-2.4-1.6l.1-.3c1.2,.1,2.5,.3,2.9,.3,.5,0,.6-.2,.8-.9,.3-1.4,.7-4.2,.8-5.7h-3.1c-.3,1.4-.6,2.5-1,3.5-.6,1.4-1.6,2.7-2.7,3.8-.5,.4-.8,.7-1.5,1.2l-.2-.2c2-2,3.1-4,3.8-6.8,.3-1.5,.5-2.8,.6-4.8h-1.4l-.3,.7Zm0-1.6h5.7v-4.9h-5.7v4.9Zm11.1,3.8c0,.8,0,1,.1,3.5v.1c0,.3-.1,.3-.8,.4h-.5c-.2,0-.3-.1-.3-.2v-.1c.1-1.3,.1-3.9,.1-6.9,0-3.3-.1-5.2-.1-5.8,1.7,.1,2.3,.3,2.3,.5s-.2,.2-.9,.5l.1,8Zm2.8-8.8c0-.7,0-1-.1-1.8,.4,.1,.8,.1,1,.1,1.1,.1,1.4,.3,1.4,.4s0,.1-.1,.2c0,0-.3,.1-.7,.3v8.1q.1,6.5,.2,8.2v.3c0,.8-.6,1.1-2.4,1.5-.3-.8-.3-.9-.6-1.1-.4-.2-1-.4-2.3-.7v-.3c.5,0,.8,.1,1.1,.1q1.6,.1,2.4,.1c.2,0,.3-.1,.3-.2l-.2-15.2Z" fill="#42210b"/><path d="M37.9,189.79v-.9q0-.4,.1-.8c-.6,.4-1.8,1.2-2.2,1.5s-.5,.3-.7,.3c-.6,0-1.6-1.3-1.6-2,0,0,0-.2,.1-.4,.5,.7,1,1,1.4,1s1.8-.6,3.1-1.3c.1-.9,.1-1.5,.1-2.3,0-1.2-.2-1.6-1.2-2.4,.1-.1,.2-.1,.3-.1,.3,0,.8,.2,1.4,.6,.7,.5,1.1,1,1.1,1.4q0,.2-.2,.9c-.1,.4-.3,1.1-.4,1.7,.5,.5,.6,.7,.6,.8s0,.2-.3,.6c-.3,.5-.5,.9-.7,1.4v.8c2.1-2,2.8-2.6,3.7-3.3,1.5-1.1,2.5-1.5,3.5-1.5,.7,0,1.3,.3,1.7,.8s.6,1.1,.6,1.9,0,1-.4,3.2c-.3,1.4-.4,2.6-.4,3.5s.2,1.3,.5,1.6c.3,.2,.7,.3,1.1,.3,1.1,0,2.6-.6,4-1.5l.2,.3c-1.5,1.6-3.2,2.5-4.8,2.5s-2.5-1-2.5-3c0-.8,.2-2.2,.5-3.8,.5-2.3,.5-2.6,.5-3.4,0-1.1-.5-1.7-1.3-1.7-.9,0-2,.7-3.8,2.2-1.1,1-2.1,2.1-3.3,3.4v1.1c0,1.2,.1,2.2,.2,3.9,.1,.5,.1,.7,.1,1,0,1.2-.4,2.2-.9,2.2-.2,0-.4-.2-.5-.6-.1-.2-.3-.9-.4-1-.2-.4-.9-1.3-1.9-2.3-.4,1-.5,1.2-.7,1.2s-.4-.2-.5-.5-.2-.9-.2-1.2,0-.3,.4-.6c.3-.3,.7-.8,1.4-1.9l2.3-3.6Zm-1.3,4c-.5,.9-.7,1.4-1.1,2.3,1.3,1.1,1.7,1.4,2.3,1.7q0-.8,.1-4c0-1.1,0-1.6,.1-2.4-.4,.6-.5,.6-1.4,2.4Z" fill="#42210b"/><path d="M42.5,221.69c2.3-.7,3.8-1.6,5-3,1.3-1.4,1.9-3.2,1.9-5.2,0-2.1-.8-3.7-2.4-4.8-.9-.6-2.4-1-3.7-1h-.8c.5,.8,.7,1.2,.7,1.8,0,1.7-1.2,4.8-2.8,7.5-1.4,2.2-2.4,3.2-3.2,3.2-.4,0-.7-.2-.9-.5s-.2-.3-.6-1.4c-.2-.6-.3-.8-1-2-.3-.7-.5-1.3-.5-2,0-1.4,.7-3,1.9-4.3,1.7-1.9,4.6-3,7.4-3,2.2,0,4.2,.7,5.6,2s2.1,3,2.1,5.1c0,2.7-1.6,5.1-4.3,6.5-1.2,.7-2.4,1-4.2,1.3l-.2-.2Zm-7.1-6.7c0,1,.3,2.1,.9,2.8,.3,.4,.6,.6,.8,.6,.5,0,1.5-1.2,2.6-2.8,1.6-2.5,2.7-5.3,2.7-6.7,0-.3-.1-.5-.3-1.1-3.7,.8-6.7,3.9-6.7,7.2Z" fill="#42210b"/><path d="M32.7,237.69c1.2-.8,1.9-1.4,3.2-2.6,2-2,3.5-3.8,4.7-5.8,.4-.6,.5-.9,.7-1.6,2.4,.5,2.5,.6,2.5,.8s-.3,.4-.8,.4c1.3,2.1,2.6,3.3,4.7,4.6,1.7,1.1,2.9,1.6,5.2,2.1v.2c-.9,.2-1.1,.5-1.5,1.8-1.7-.9-3.3-2-4.8-3.4-1-1-2.1-2.3-3-3.5-.4-.6-.6-.8-.9-1.6-1.3,2-2.7,3.7-4.6,5.4-1.6,1.5-3,2.4-5.1,3.5l-.3-.3Zm9.3,2.3c-2.2,3.2-2.4,3.6-3.7,5,3.4,0,6.6-.2,8.8-.5-1-1.4-1.7-2.3-2.8-3.3l.2-.2c1.4,.8,2.9,1.9,4.3,3.2,.6,.5,.8,1,.8,1.5,0,.4-.2,1.1-.3,1.3-.1,.1-.2,.2-.4,.2s-.2-.1-.4-.3c-.4-.8-.8-1.6-1.1-2-3.4,.7-8.1,1.4-11.6,1.7-.2,.6-.3,.8-.5,.8-.1,0-.2,0-.3-.4-.1-.6-.3-1.5-.4-2.1q.5,0,1.7,.1h1.3c.9-1.6,1.2-2.2,2.3-5h-4.4c-.7,0-.9,0-1.5,.1l-.2-.8c.6,.1,1,.2,1.7,.2h12.4c.5-.7,.7-.9,1.2-1.5,.9,.7,1.2,.9,2.1,1.7,0,.1,.1,.2,.1,.2,0,.1-.1,.2-.2,.2l-9.1-.1Zm-4.9-4.2c.5,.1,1.2,.2,1.7,.2h5.4c.5-.6,.7-.8,1.2-1.4,.9,.7,1.1,.9,2,1.6q.1,.1,.1,.2c0,.1-.1,.1-.3,.1h-8.6c-.4,0-.7,0-1.5,.1v-.8Z" fill="#42210b"/><path d="M44.7,257.09c0,1.1-.9,2-2,2s-2-.9-2-2,.9-2,2-2c1.2,.1,2,1,2,2Z" fill="#42210b"/><path d="M.1,81.89c2.4-1.7,4.1-3.3,6.1-5.8,1-1.3,1.9-2.7,2.4-3.6,.1-.3,.2-.6,.4-1.1,.5,.1,.9,.2,1.1,.2,1.2,.2,1.4,.3,1.4,.5s-.3,.3-.8,.4c1.1,1.8,2.5,3.3,4.4,4.7,1.8,1.3,3.6,2.1,5.6,2.7v.3c-.9,.1-1.2,.4-1.7,1.4-2-1-3.2-1.9-4.7-3.5-1.6-1.6-2.3-2.6-3.9-5.3-1.5,2.4-2.9,4.1-4.9,5.8-1.7,1.5-3.1,2.5-5.1,3.5l-.3-.2Zm5.3,8.4c0,.2,0,.3-.1,.3-.2,.1-.7,.1-1.1,.1-.2,0-.3-.1-.3-.3,0-3.4,.1-4.4,.1-5.3,0-1.7,0-2.5-.1-3.3,.8,.5,1,.6,1.7,1.1H14.3c.3-.5,.5-.6,.9-1.1,.6,.5,.8,.6,1.4,1.1q.2,.2,.2,.3c0,.1-.2,.3-.7,.5q0,3.1,.1,6.5v.1q0,.2-.2,.3c-.2,.1-.9,.2-1.1,.2s-.3-.1-.3-.3v-1l-9.2-.1v.9Zm-.1-11.2c.6,.1,1.1,.2,1.6,.2h4.5c.5-.5,.6-.7,1.1-1.3,.8,.6,1,.8,1.8,1.4,.1,.1,.2,.2,.2,.3s0,.1-.3,.1H6.9c-.4,0-.7,0-1.4,.1l-.2-.8Zm.1,9.8H14.5v-5.5H5.4v5.5Z" fill="#42210b"/><path d="M3.6,109.49q0,1.8,.1,5.2c0,.3-.3,.4-1.2,.4-.4,0-.5-.1-.5-.3,.1-2.3,.1-7,.1-10,0-4.1,0-7.3-.1-8.3,.8,.4,1.1,.5,1.9,.9h12.7c.3-.5,.4-.6,.8-1.1,.7,.4,.9,.6,1.5,1.1,.2,.1,.2,.2,.2,.3s-.1,.2-.2,.3c0,0-.1,0-.1,.1-.1,.1-.2,.2-.4,.3v8.8q0,.8,.1,4.5v1.8c0,.6-.1,.8-.6,1-.5,.3-1.1,.5-2.1,.6-.2-.8-.4-1-.8-1.2-.3-.2-.5-.2-2.4-.4v-.3q2.7,.1,3.9,.1h.1c.2,0,.3-.1,.3-.2v-15.1H3.7l-.1,11.5Zm1-8.9c1.1,.2,1.6,.3,2.2,.3h6.1c.4-.5,.8-.9,1.1-1.4,.8,.6,1,.8,1.8,1.5,.1,.1,.1,.2,.1,.2,0,.1-.1,.2-.2,.2H6.8c-.4,0-.7,0-1.8,.2l-.4-1Zm3.2,10.3q0,.2-.2,.3c-.1,0-.6,.1-.9,.1s-.5-.1-.5-.3v-.1c.1-1.7,.1-2.5,.1-3.9,0-2.2,0-3.1-.1-4,.8,.3,1,.5,1.7,.8h4.4c.3-.4,.4-.5,.8-1,.6,.4,.8,.5,1.3,1l.2,.2c0,.1-.2,.3-.6,.6v1.8c0,1.9,0,2.9,.1,4,0,.3-.2,.4-1.1,.4-.3,0-.4-.1-.4-.3v-1.3H7.7l.1,1.7Zm0-1.9h4.9v-4.6H7.8v4.6Z" fill="#42210b"/><path d="M12.8,129.19c1.7-.8,2.9-1.6,3.9-2.6,1.6,.8,1.8,1,1.8,1.2,0,.1-.2,.2-.4,.2h-.8c-1.5,.7-2.9,1.2-4.6,1.6v1.2c0,.3,0,.4,.3,.4,.2,0,1.2,.1,1.8,.1h2c.8,0,.9,0,1.1-.2s.6-1.4,1-2.4h.3l-.1,1.7v.6q0,.1,.4,.3c.3,.1,.5,.3,.5,.5,0,.7-.6,.8-4.6,.8-3.5,0-3.7-.1-3.7-1.2v-5.5H7.3c-.5,.8-.8,1.2-1.3,1.7h3c.4-.3,.5-.4,.9-.8,.5,.4,.6,.5,1.1,.9,.2,.1,.2,.2,.2,.3s-.1,.2-.8,.4c-1.4,2.1-2.6,3.1-4.6,4.2-1.5,.8-2.9,1.3-5,1.8l-.1-.3c2.5-.9,4.1-1.7,5.6-2.9-.2,0-.2-.1-.3-.2-.5-.8-1.1-1.4-1.7-1.7-1.4,1.1-2.1,1.5-3.3,2.1l-.2-.3c1.3-.9,2.2-1.7,3.4-3,.7-.8,1.1-1.3,1.5-2.1H3.2c-.9,0-1.1,0-1.8,.1l-.2-.8c.7,.1,1.2,.2,2,.2h13.7c.6-.6,.7-.8,1.3-1.4,.8,.7,1.1,.9,1.9,1.6,0,.1,.1,.1,.1,.2s-.1,.1-.2,.1h-6.8l-.4,3.2Zm-.7-6.9v-.2c0-.9,0-1.4-.1-1.8,1.9,.2,2.4,.3,2.4,.5s-.2,.2-.9,.4v1.1h3.3l1.4-1.4c.9,.7,1.1,.9,2,1.6,0,.1,.1,.1,.1,.2s-.1,.1-.2,.1h-6.6v1.2c0,.3-.2,.3-1.2,.3-.2,0-.3,0-.3-.2v-1.3H7.9v1.3c0,.1,0,.2-.1,.2-.1,.1-.6,.1-1.2,.1-.1,0-.2,0-.2-.2,0-.7,.1-1,.1-1.4H2.4c-.9,0-1.1,0-1.7,.1l-.2-.8c.6,.1,1,.2,1.9,.2H6.5v-.6c0-.6,0-.8-.1-1.4,.5,.1,.8,.1,1.1,.1,1,.1,1.3,.2,1.3,.4s-.2,.2-.9,.4v1.1h4.2Zm-5.4,12.4c0-.4,.1-.7,.1-1.1,0-.3,0-.5-.1-.9,.5,.1,.8,.1,1,.1,.9,.1,1.3,.2,1.3,.4s-.1,.2-.8,.4c-.1,.6-.1,.7-.1,1h4q0-1.1-.1-1.8c2.1,.2,2.2,.2,2.2,.4s0,.2-.8,.5v.9h3.3c.6-.7,.8-.9,1.3-1.4,.9,.7,1.1,.9,2,1.6,0,.1,.1,.1,.1,.2s-.1,.2-.2,.2h-6.5v4.5c0,.1,0,.2-.1,.2-.1,.1-.7,.1-1.1,.1-.2,0-.3-.1-.3-.2,.1-1.4,.1-2,.1-3.1v-1.4h-4c-.3,1.5-.7,2.2-1.4,2.9-1.3,1.2-3.2,1.9-5.8,2.1l-.1-.3c2.5-.6,3.8-1.2,4.7-2.2,.6-.6,1-1.4,1.2-2.6H2.7c-.8,0-1.1,0-1.7,.1l-.2-.8c.6,.1,1,.1,1.8,.1l4.1,.1Zm-1.4-6.7c-.4,.4-.6,.6-1.1,1,.4,.1,.8,.2,1.3,.4,.7,.3,1,.5,1,.8s-.1,.4-.2,.6c1.1-.9,1.7-1.6,2.4-2.8h-3.4Z" fill="#42210b"/><path d="M12.2,149.59c0,1.1-.9,2-2,2s-2-.9-2-2,.9-2,2-2,2,.9,2,2Z" fill="#42210b"/><path d="M0,169.99c1.8-1.7,3.1-3.3,4.4-5.5,.6-1,1.2-2.3,1.6-3.2,.1-.4,.2-.7,.4-1.3,1.9,.7,2.3,.9,2.3,1.1s-.3,.3-.9,.4c-1.1,2.2-2,3.6-3.4,5.2-1.3,1.5-2.4,2.5-4.3,3.7l-.1-.4Zm12.3-.3c1.4,1.2,2.3,2,3.9,3.7,1.1,1.2,1.5,1.9,1.5,2.7s-.4,1.7-.8,1.7c-.1,0-.2-.1-.3-.2q-.1-.2-.6-1.3c-.2-.4-.3-.6-.5-1.1-1.8,.4-2.3,.5-4.5,.9-2.6,.4-2.8,.5-5.6,.8-.8,.1-1.5,.2-2.2,.3-.1,.7-.2,.9-.4,.9-.1,0-.2-.1-.3-.3-.1-.3-.4-1.4-.6-2.4,.8,.1,1.2,.1,1.9,.1h1.2c2.1-4.1,3.5-7.7,3.9-10.1,2.1,.4,2.6,.6,2.6,.8s-.2,.3-1,.5c-.9,2.2-1.6,3.7-3.1,6.1-.7,1.2-1,1.6-1.8,2.7,3.9-.2,4.4-.2,9.6-.7-.9-1.7-2-3.3-3.3-4.8l.4-.3Zm.6-9.9v.3c0,.6,.6,1.9,1.6,3.2,.9,1.2,2.1,2.4,3.5,3.3,.9,.6,1.4,.8,2.6,1.2v.3c-1,.3-1.4,.6-1.7,1.5-1.6-1.2-2.7-2.2-3.8-3.7-.9-1.2-1.7-2.6-2.6-4.8-.3-.6-.3-.7-.6-1l1-.3Z" fill="#42210b"/><path d="M12.9,192.69c1.7-.8,2.9-1.6,3.9-2.6,1.6,.8,1.8,1,1.8,1.2,0,.1-.2,.2-.4,.2h-.8c-1.5,.7-2.9,1.2-4.6,1.6v1.2c0,.3,0,.4,.3,.4,.2,0,1.2,.1,1.8,.1h2c.8,0,.9,0,1.1-.2s.6-1.4,1-2.4h.3l-.1,1.7v.6q0,.1,.4,.3c.3,.1,.5,.3,.5,.5,0,.7-.6,.8-4.6,.8-3.5,0-3.7-.1-3.7-1.2v-5.5H7.4c-.5,.8-.8,1.2-1.3,1.7h3c.4-.3,.5-.4,.9-.8,.5,.4,.6,.5,1.1,.9,.2,.1,.2,.2,.2,.3s-.1,.2-.8,.4c-1.4,2.1-2.6,3.1-4.6,4.2-1.5,.8-2.9,1.3-5,1.8l-.1-.3c2.5-.9,4.1-1.7,5.6-2.9-.2,0-.2-.1-.3-.2-.5-.8-1.1-1.4-1.7-1.7-1.4,1.1-2.1,1.5-3.3,2.1l-.2-.3c1.3-.9,2.2-1.7,3.4-3,.7-.8,1.1-1.3,1.5-2.1H3.3c-.9,0-1.1,0-1.8,.1l-.2-.8c.7,.1,1.2,.2,2,.2h13.7c.6-.6,.7-.8,1.3-1.4,.8,.7,1.1,.9,1.9,1.6,0,.1,.1,.1,.1,.2s-.1,.1-.2,.1h-6.8l-.4,3.2Zm-.7-6.8v-.2c0-.9,0-1.4-.1-1.8,1.9,.2,2.4,.3,2.4,.5s-.2,.2-.9,.4v1.1h3.3l1.4-1.4c.9,.7,1.1,.9,2,1.6,0,.1,.1,.1,.1,.2s-.1,.1-.2,.1h-6.6v1.2c0,.3-.2,.3-1.2,.3-.2,0-.3,0-.3-.2v-1.3H8v1.3c0,.1,0,.2-.1,.2-.1,.1-.6,.1-1.2,.1-.1,0-.2,0-.2-.2,0-.7,.1-1,.1-1.4H2.5c-.9,0-1.1,0-1.7,.1l-.2-.8c.6,.1,1,.2,1.9,.2H6.6v-.6c0-.6,0-.8-.1-1.4,.5,.1,.8,.1,1.1,.1,1,.1,1.3,.2,1.3,.4s-.2,.2-.9,.4v1.1h4.2Zm-5.4,12.3c0-.4,.1-.7,.1-1.1,0-.3,0-.5-.1-.9,.5,.1,.8,.1,1,.1,.9,.1,1.3,.2,1.3,.4s-.1,.2-.8,.4c-.1,.6-.1,.7-.1,1h4q0-1.1-.1-1.8c2.1,.2,2.2,.2,2.2,.4s0,.2-.8,.5v.9h3.3c.6-.7,.8-.9,1.3-1.4,.9,.7,1.1,.9,2,1.6,0,.1,.1,.1,.1,.2s-.1,.2-.2,.2h-6.5v4.5c0,.1,0,.2-.1,.2-.1,.1-.7,.1-1.1,.1-.2,0-.3-.1-.3-.2,.1-1.4,.1-2,.1-3.1v-1.4h-4c-.3,1.5-.7,2.2-1.4,2.9-1.3,1.2-3.2,1.9-5.8,2.1l-.1-.3c2.5-.6,3.8-1.2,4.7-2.2,.6-.6,1-1.4,1.2-2.6H2.8c-.8,0-1.1,0-1.7,.1l-.2-.8c.6,.1,1,.1,1.8,.1l4.1,.1Zm-1.4-6.7c-.4,.4-.6,.6-1.1,1,.4,.1,.8,.2,1.3,.4,.7,.3,1,.5,1,.8s-.1,.4-.2,.6c1.1-.9,1.7-1.6,2.4-2.8h-3.4Z" fill="#42210b"/><path d="M10.2,224.59c2.3-.7,3.8-1.6,5-3,1.3-1.4,1.9-3.2,1.9-5.2,0-2.1-.8-3.7-2.4-4.8-.9-.6-2.4-1-3.7-1h-.8c.5,.8,.7,1.2,.7,1.8,0,1.7-1.2,4.8-2.8,7.5-1.4,2.2-2.4,3.2-3.2,3.2-.4,0-.7-.2-.9-.5q-.2-.3-.6-1.4c-.2-.6-.3-.8-1-2-.3-.7-.5-1.3-.5-2,0-1.4,.7-3,1.9-4.3,1.7-1.9,4.6-3,7.4-3,2.2,0,4.2,.7,5.6,2s2.1,3,2.1,5.1c0,2.7-1.6,5.1-4.3,6.5-1.2,.7-2.4,1-4.2,1.3l-.2-.2Zm-7.1-6.6c0,1,.3,2.1,.9,2.8,.3,.4,.6,.6,.8,.6,.5,0,1.5-1.2,2.6-2.8,1.6-2.5,2.7-5.3,2.7-6.7,0-.3-.1-.5-.3-1.1-3.7,.7-6.7,3.8-6.7,7.2Z" fill="#42210b"/><path d="M5.2,237.99c-.4,0-.5,0-1.9,.1l-.2-.8q.5,.1,2.1,.1h4.3v-1.1c0-.6,0-.9-.1-1.5q2.3,.3,2.3,.4c0,.1,0,.2-.2,.3,0,0-.1,0-.3,.2-.1,0-.1,.1-.2,.1v1.6h3.8l1.1-1.3c.8,.6,1.1,.9,1.9,1.5q.1,.1,.1,.2c0,.1-.1,.2-.2,.2h-6.7c0,.9,0,1.3-.1,2.3h3.8l1.2-1.4c.8,.7,1.1,.9,2,1.7v.1c0,.1-.1,.2-.2,.2h-6.8c-.1,1-.2,1.5-.3,2.4h5.6c.6-.7,.8-.9,1.4-1.5,.9,.7,1.2,.9,2.1,1.7,.1,.1,.1,.2,.1,.2,0,.1-.1,.1-.1,.1H10.9c.9,1.2,1.8,2,3.3,2.9,1.7,1,3.8,1.5,6.5,1.7v.2c-.8,.3-1.1,.7-1.4,1.7-2.5-.6-4.5-1.5-6.2-3.1-1.2-1.1-1.9-1.9-2.7-3.2-.4,1.3-1.2,2.3-2.3,3.3-1.9,1.7-4.1,2.6-7.5,3.2l-.1-.3c2.5-.8,4.2-1.7,5.8-3,1.4-1.2,2.1-2.2,2.6-3.5H3.6c-1,0-1.3,0-2,.2l-.2-.8c.7,.1,1.7,.2,2.3,.2h5.4c.2-.9,.3-1.3,.4-2.4H5.5c-.5,0-.9,0-1.9,.1l-.3-.8c.5,.1,1.8,.2,2.1,.2h4c.1-1,.1-1.3,.1-2.3l-4.3-.1Zm12-4.4l1-1.1c.8,.5,1.1,.7,1.9,1.2,.2,.2,.3,.3,.3,.4s0,.1-.1,.2c-.1,0-.3,.1-.6,.2-.5,.1-.8,.2-.8,.2-.8,.7-1.2,1.1-2.1,1.8l-.3-.2c.5-.9,.6-1.3,1-2.2H3.4c-.1,1.6-1,3.3-1.7,3.3-.3,0-.7-.7-.7-1.2,0-.3,.1-.4,.5-.7,1-.7,1.2-1.2,1.6-3h.4v1.1h6v-1.4c0-.5,0-.8-.1-1.5,.9,.1,1.9,.2,2.2,.3,.2,0,.3,.1,.3,.2q0,.2-.9,.6v1.7l6.2,.1Z" fill="#42210b"/><path d="M.7,274.49c.6-1.9,.9-3.4,1.2-7,1.8,.5,2,.5,2,.7,0,.1-.1,.2-.7,.3-1,3.6-1.2,4.2-2.2,6h-.3Zm.4-15.7c.6,.3,.8,.5,1.3,.9,.8-1.5,1.3-2.8,1.6-4.1,1.8,.6,2.2,.7,2.2,.9s-.2,.2-.9,.3q-.9,1.2-2.6,3.1c1,.8,1.2,1.1,1.2,1.4,0,.7-.3,1.4-.6,1.4-.2,0-.2-.1-.4-.4-.5-1.2-1-2.1-2.1-3.3l.3-.2Zm3,7c-.9,.2-1,.2-2.2,.5-.1,.6-.2,.8-.3,.8s-.2-.1-.2-.2c0,0-.2-.6-.4-1.8,.4,.1,.6,.1,.9,.1h1c.7-1.1,1-1.6,1.9-3,1.1-1.9,1.4-2.6,1.9-3.9,1.7,.7,2.1,.9,2.1,1.1s-.2,.2-1,.3c-1.8,2.6-2.7,3.9-4.2,5.6,1.6-.1,2.3-.1,3.6-.3-.3-.8-.4-1.1-.8-1.9l.2-.2c1.2,1.2,2,2.3,2,2.9,0,.5-.5,1.3-.8,1.3-.1,0-.2-.1-.2-.2q-.1-.1-.2-.9c0-.2-.1-.4-.2-.8q-1.1,.3-1.7,.4v4.6l.1,5c0,.3-.2,.4-1.1,.4q-.3,0-.4-.2v-9.6Zm2.2,9.3c1.6-.5,2.5-.9,3.7-1.6,.9-.5,1.2-.7,1.7-1.2,.4,.2,.5,.2,.8,.4l.8,.4q.2,.1,.2,.2c0,.1-.2,.2-.4,.2s-.4,0-.6-.1c-1.9,1-3.3,1.5-6,1.9l-.2-.2Zm.3-7.7c.5,.4,.6,.6,1.1,1.3,.6,.9,.8,1.3,.8,1.7,0,.6-.5,1.6-.8,1.6-.2,0-.2-.1-.3-.9-.2-1.3-.4-2.2-.9-3.6l.1-.1Zm11.3-5.1c.5-.6,.6-.7,1.2-1.2,.7,.6,1,.8,1.7,1.4q.1,.1,.1,.2c0,.1-.1,.1-.2,.1H10c-.8,0-1.2,0-1.9,.2l-.2-.8c.7,.1,1,.2,2,.2h3.1v-1.8h-2.2c-.6,0-1.2,.1-1.7,.2l-.2-.9c.6,.2,1,.2,1.8,.2h2.2v-1.7h-2.8c-.6,0-1,0-1.6,.2l-.1-.8c.6,.1,1,.2,1.7,.2h2.8v-.3c0-.9,0-1.2-.1-2,1.7,.1,2.3,.3,2.3,.5s-.3,.3-.8,.5v1.3h3c.5-.5,.6-.7,1.1-1.2,.7,.6,.9,.8,1.6,1.4l.2,.2c0,.1-.1,.1-.2,.1h-5.6v1.7h2.5c.4-.5,.5-.6,.9-1.1,.7,.5,.9,.7,1.6,1.3,0-.1,0,0,0,0,0,.1-.1,.1-.2,.1h-4.9v1.8h3.6Zm-7.2,9.9c0,.2-.1,.2-.2,.3-.2,.1-.5,.1-.8,.1-.2,0-.3,0-.3-.2,.1-1.4,.1-3.8,.1-5.8,0-.9,0-1.7-.1-2.9,.7,.4,.9,.5,1.6,.9h5.9l.9-.9c.5,.4,.6,.5,1.1,.8,.2,.2,.2,.3,.2,.3,0,.2-.2,.3-.7,.5v1.6c0,1.7,0,2.2,.1,5.1,0,.2-.1,.2-.2,.2s-.7,.1-.9,.1-.2,0-.3-.2v-.4h-6.3l-.1,.5Zm6.3-7.3h-6.3v1.7h6.3v-1.7Zm-6.3,2.2v1.7h6.3v-1.7h-6.3Zm0,2.3v1.9h6.3v-1.9h-6.3Zm4.2,3.2c2.9,.4,3.9,.6,4.6,1,.4,.2,.6,.7,.6,1.2,0,.4-.1,.6-.2,.6s-.2-.1-.3-.2c-.2-.2-.8-.6-1.4-.9-1.1-.6-2.1-1.1-3.4-1.5l.1-.2Z" fill="#42210b"/></g><path d="M30.17,4.35c.43-.27,.89-.49,1.28-.8,1.27-1.04,2.84-.76,4.28-1.05,.23-.05,.54,0,.69-.14,2.18-2.06,4.92-1.86,7.6-1.89,.91,0,1.82,0,2.73,0,.16,0,.38,.08,.47,0,1.2-1.04,2.25-.14,3.35,.22,.49,.16,.91,.37,1.36-.22,.37-.49,.96-.19,1.44-.03,3.12,1.05,5.8,2.88,8.42,4.8,.83,.61,1.56,1.34,2.31,2.04,.77,.72,1.26,1.5,1.17,2.6-.06,.71,.24,1.28,.89,1.82,.31-.96-.33-1.57-.5-2.28-.06-.24-.15-.51,.09-.65,.3-.17,.36,.14,.5,.33,3.23,4.56,4.07,9.87,3.9,15.17-.23,7.19-2.65,13.79-7.38,19.39-.66,.78-1.37,1.45-2.59,1.4-.66-.02-1.74,.2-1.12,1.46,.21,.43,.04,.77-.42,.94-1.27,.48-2.4,1.24-3.47,2.03-2.22,1.65-4.81,2.1-7.44,2.57-8.1,1.45-14.81-1.76-21.03-6.38-3.18-2.37-5.23-5.69-6.66-9.37-1.25-3.21-2.55-6.41-3.12-9.83-.23-1.38-.28-2.74,.01-4.12,.26-1.24,.45-2.49,.6-3.75,.39-3.27,1.99-5.97,3.87-8.56,2.35-3.25,4.93-6.29,8.31-8.54,.43-.29,.88-.52,1.39-.66,.44-.12,.86-.11,.8,.48-.06,.6,.1,.63,.55,.36,.21-.13,.46-.25,.58,.07,.09,.27-.13,.45-.34,.56-.94,.52-1.79,1.15-2.51,2.01Z" fill="#c8a463" isolation="isolate"/><path d="M39.4,43.39c1.1-.1,1.4-.1,1.8-.3,.6-.3,.7-.8,.7-2.7v-11.2q-.1-2.3-.3-2.5c-.2-.2-.5-.2-1.2-.2h-1v-.7c2-.2,3.7-.4,5-.7-.1,2.1-.2,4.4-.2,7.5v7.8c0,1.8,.1,2.3,.5,2.6,.3,.3,.4,.3,1.9,.4v.8h-7.2v-.8Z" fill="#42210b"/><g><path d="M33.6,15.49h.2c.2-.3,.3-.3,.5-.6l.7,.7v.1s0,.1-.1,.1h-1.3v2.6c.7-.3,1-.5,1.6-.8l.1,.1c-.9,.7-2.1,1.5-3.1,2,0,.3-.1,.5-.1,.5-.1,0-.2-.2-.6-1,.5-.2,.9-.3,1.4-.5v-2.9h-1.2l-.1-.4c.3,.1,.5,.1,.7,.1h.6v-2.6h-.6c-.3,0-.4,0-.7,.1l-.1-.4c.3,.1,.4,.1,.8,.1h1.5c.2-.3,.3-.3,.5-.6,.3,.3,.4,.4,.8,.7l.1,.1s0,.1-.1,.1h-1.4l-.1,2.5h0Zm4.5,2.8h1.3c.2-.3,.3-.4,.5-.6,.4,.3,.5,.4,.9,.7v.1l-.1,.1h-2.7v1.9h1.8c.3-.3,.3-.4,.6-.7,.4,.3,.5,.4,.9,.8l.1,.1q0,.1-.1,.1h-7l-.2-.4c.3,.1,.6,.1,.9,.1h2.4v-1.9h-2.3l-.1-.4q.4,.1,.9,.1h1.5v-1.7h-1.5v.5c0,.1-.1,.2-.3,.2-.3,0-.4,0-.4-.2,0-.9,.1-1.8,.1-3.3,0-1.1,0-1.3-.1-1.8,.4,.2,.5,.3,.8,.5h3.6c.2-.2,.2-.3,.4-.5,.3,.2,.4,.3,.6,.5l.1,.1s0,.1-.1,.1c0,0-.1,.1-.3,.2v1.1c0,1.2,0,1.9,.1,2.8q0,.1-.1,.2s-.4,.1-.5,.1-.1,0-.1-.1v-.4h-1.6v1.7Zm-.7-5.6h-1.5v1.7h1.5v-1.7Zm0,1.9h-1.5v1.7h1.5v-1.7Zm2.3-.2v-1.7h-1.6v1.7h1.6Zm-1.6,1.9h1.6v-1.7h-1.6v1.7Z" fill="#42210b"/><path d="M44.9,20.59v.4q0,.1-.1,.1s-.4,.1-.5,.1-.1,0-.1-.1v-7.3c.4,.2,.5,.3,.9,.5h2.5v-1.4q0-1-.1-1.3c1,.1,1.2,.2,1.2,.3s-.2,.2-.5,.3v2.2h2.8c.2-.2,.2-.3,.4-.5,.3,.2,.4,.3,.7,.5l.1,.1c0,.1-.1,.1-.4,.3v6.2h0q0,.1-.1,.2c-.1,0-.4,.1-.5,.1s-.2,0-.2-.2v-.5h-6.1Zm2.7-6h-2.7v2.6h2.7v-2.6Zm0,2.9h-2.7v2.9h2.7v-2.9Zm3.5-2.9h-2.9v2.6h2.9v-2.6Zm0,2.9h-2.9v2.9h2.9v-2.9Z" fill="#42210b"/></g></g></svg>