<?xml version="1.0" encoding="utf-8"?>
<!-- Generator: Adobe Illustrator 26.3.1, SVG Export Plug-In . SVG Version: 6.00 Build 0)  -->
<svg version="1.1" id="レイヤー_1" xmlns="http://www.w3.org/2000/svg" xmlns:xlink="http://www.w3.org/1999/xlink" x="0px"
	 y="0px" viewBox="0 0 74 219" style="enable-background:new 0 0 74 219;" xml:space="preserve">
<style type="text/css">
	.st0{fill:#005748;}
	.st1{fill:#222222;}
</style>
<path class="st0" d="M51.3,16.7c0-1.3-0.1-4.3-0.2-7.9c4.3-0.1,8.6-0.2,10.7-0.2c3-0.1,4.4,1,4.4,2.7c0,1.5-1.4,2.3-4,2.4
	c-3,0.1-5,0.1-5,0.1l0.1,3.6c0,0,4.3-0.1,9.2-0.2c5-0.1,7-2.7,6.9-6.2c-0.1-3.8-2.3-6.3-7-6.2C62.2,5,56.3,5.1,51.1,5.2
	C51,2.3,51,0,51,0l-7.3,0.1c0,0,0,2,0.1,5.2c-2.8,0.1-4.6,0.1-4.6,0.1L39.3,9c0,0,1.9,0,4.6-0.1c0.1,2.7,0.1,5.9,0.2,9.4
	C44.3,28.5,54.7,28,54.7,28l18.2-0.4L72.8,24c0,0-13.3,0-14.4,0C55.3,24.1,51.4,21.5,51.3,16.7z M51.2,63.4c6.3,0,7.8-1.6,9.7-2.9
	c2.6-1.7,9.8-8.7,12-14.3h-7.2c-0.5,1.2-9.8,14.5-14.4,12.1c-1.4-0.7-1.5-1.4-1.5-5.4c0-3.2,0-16.9,0-16.9h-6.5c0,0,0,2.2,0,17.4
	C43.3,62.7,48.6,63.4,51.2,63.4z M72.8,75v-3.6H40.1V75h9.6c0,1.2,0,3.2,0,5.9h-9.6v3.3h9.6c0,1.5,0,2.4,0,4.2
	c0,8.1,3.9,9.3,10.6,9.3c3.9,0,11.2,0,11.2,0v-3.6c0,0-5-0.2-7-0.2c-5,0-8.4-1.1-8.4-5c0-1,0-2.4,0-4.7h16.7v-3.3H56.1
	c0-2.4,0-4.6,0-5.9C56.1,75,72.8,75,72.8,75z M57,122.6c0,7.7-4.6,9.6-9.7,9.6c-1.8,0-6.9,0-6.9,0v-3.6c0,0,2.5,0,5.7,0
	c2.8,0,4.3-2.5,4.3-6.2c0-2.6,0-6.5,0-6.5s6.7,0,12.2,0c3,0,4-1.4,4-3.1c0-2.7-2.3-3.4-4-3.4c-3.4,0-22.3,0-22.3,0v-3.6
	c0,0,12.6,0,24.5,0s11.7,13.8,1.9,13.8c-3.6,0-9.7,0-9.7,0S57,121.1,57,122.6z M67.4,131.7h0.8v-2h1.2c0.8,0,0.9,0.4,0.9,1.3
	c0,0.2,0,0.5,0.1,0.7h0.9c-0.2-0.2-0.3-0.7-0.3-1.3c0-0.8-0.4-1-0.7-1l0,0c0.2-0.1,0.8-0.3,0.8-1.2c0-0.8-0.5-1.3-1.6-1.3h-2.3v4.8
	H67.4z M68.3,127.7h1.4c0.4,0,0.8,0.1,0.8,0.7c0,0.5-0.3,0.8-0.8,0.8h-1.4V127.7 M73.2,129.4c0,2.2-1.8,4-4,4s-4-1.8-4-4s1.8-4,4-4
	C71.5,125.4,73.2,127.2,73.2,129.4z M69.2,126c-1.9,0-3.4,1.5-3.4,3.4s1.5,3.4,3.4,3.4s3.4-1.5,3.4-3.4S71.1,126,69.2,126z"/>
<path class="st1" d="M17.3,22.5c0.2,0,0.4-0.1,0.6-0.2C18,22.2,18,22.1,18,22s-0.1-0.2-0.2-0.3c-0.3-0.1-1.9-0.6-3.1-0.9
	c-0.7,1-1.5,1.9-2.4,2.7c-0.7,0.7-1.5,1.3-2.4,1.9C8.6,25,7.6,24,7,22.7V15c0.7-0.5,1-0.7,1-1c0-0.2-0.1-0.3-0.2-0.4
	c-0.6-0.5-1.2-1-1.9-1.4c-0.5,0.6-0.7,0.8-1.2,1.4H2.9c-0.8,0-1.5-0.1-2.2-0.3l0.4,1.2c0.6-0.1,1.2-0.2,1.8-0.2h2v8.8
	c-1.3,1-2.6,1.8-4.1,2.5c1.4,2.8,1.7,3.3,2,3.3c0.2,0,0.4-0.3,0.4-0.6c0-0.3-0.1-0.7-0.1-1c1.2-1.5,2.3-3,3.2-4.7
	c0.6,1.7,1.8,3.2,3.4,4.1c1.5,1,3,1.4,5.7,1.5c1.4,0.1,3.3,0.1,9.4,0.1c1.7,0,2.8,0,4.3-0.1c0.4-1.6,0.8-2,1.9-2.2v-0.4
	c-6.1,0.4-10.2,0.6-14,0.6c-2.2,0.1-4.4-0.1-6.5-0.6c2.1-0.8,4.1-1.8,5.9-3.1c0.1,0,0.3,0,0.4,0L17.3,22.5z M16.1,6.2L16.1,6.2
	c0,0.3,0.2,0.5,0.4,0.5c0.4,0,0.9,0,1.3-0.1c0.1,0,0.1-0.1,0.2-0.3c0-0.7,0-0.7,0-1.4c0-1,0-1,0-1.8c0.7-0.4,1-0.7,1-0.9
	c0-0.1-0.1-0.2-0.2-0.3c-0.7-0.5-1-0.7-1.8-1.2c-0.4,0.5-0.6,0.6-1,1.2h-5c-0.7,0-1.4-0.1-2-0.3l0.2,1.2c0.6-0.1,1.2-0.2,1.8-0.2h5
	v2.7h-4.4c-0.7-0.4-1.5-0.9-2.2-1.2c0.1,0.6,0.1,1.1,0.1,1.7c0,4,0,4,0.2,4.3c0.4,0.5,1.2,0.7,4.5,0.7c1.4,0,2.8-0.1,4.2-0.3
	c0.4-0.1,0.7-0.4,0.7-0.8c0-0.3-0.2-0.6-0.4-0.7c-0.3-0.1-0.3-0.1-0.3-0.3V8.5l0.1-1.4L18.1,7c-0.8,1.6-1,2-1.4,2.1
	c-0.9,0.1-1.7,0.1-2.6,0.1c-0.8,0.1-1.7,0-2.5-0.1c-0.2-0.1-0.2-0.3-0.2-0.7V6.1L16.1,6.2L16.1,6.2z M26.8,6.2v0.3
	c0,0.2,0.1,0.3,0.4,0.3c1,0,1.4-0.1,1.4-0.5s0-0.6,0-0.7V3.1c0.7-0.5,0.8-0.5,0.8-0.7c0-0.1-0.1-0.2-0.3-0.4
	c-0.5-0.4-1.1-0.8-1.6-1.2C27.1,1.3,27,1.4,26.6,2h-4.8c-0.7,0-1.3-0.1-2-0.2l0.3,1.1c0.6-0.1,1.1-0.1,1.7-0.2h5v2.7h-4.2
	c-0.7-0.6-1.5-1-2.3-1.3c0.1,0.5,0.1,1.1,0.1,1.6c0,4.2,0,4.2,0.4,4.6s1.2,0.5,3.6,0.5c1.5,0.1,3.1,0,4.6-0.3
	c0.5-0.1,0.9-0.5,0.9-0.9c0-0.3-0.1-0.4-0.5-0.6S29,8.7,29,8.6s0-0.2,0-0.3l0.1-1.2L28.7,7c-0.9,1.7-1,1.9-1.3,2
	c-0.7,0.1-1.4,0.2-2.2,0.2h-0.1c-0.7,0-1.2-0.1-1.6-0.1H23c-0.6,0-0.8-0.1-0.8-0.4V6.2H26.8z M16.4,14.7v-1.8c0.9-0.4,1-0.4,1-0.6
	c0-0.4-0.5-0.5-3.2-0.7c0.2,0.7,0.3,1.5,0.3,2.2v0.9H12c-0.7,0-1.4-0.1-2.1-0.2l0.3,1.1c0.6-0.1,1.2-0.2,1.9-0.2h2.5v3.9h-3.9
	c-0.7,0-1.4-0.1-2-0.3L9,20.2c0.5-0.1,1.1-0.2,1.7-0.2h19.6c0.2,0,0.3-0.1,0.3-0.3c0-0.1-0.1-0.2-0.1-0.2c-1.1-1-1.4-1.3-2.6-2.2
	c-0.6,0.8-0.9,1.1-1.5,2h-3v-3.9h5.4c0.3,0,0.4-0.1,0.4-0.2s-0.1-0.1-0.1-0.2c-1.1-1-1.5-1.2-2.6-2.1c-0.6,0.8-0.8,1-1.4,1.8h-1.9
	V13c0.8-0.4,1.1-0.5,1.1-0.7c0-0.1-0.1-0.2-0.4-0.3c-1-0.2-1.9-0.4-2.9-0.4c0.2,0.7,0.3,1.5,0.2,2.3v0.9L16.4,14.7z M16.4,15.4h4.9
	v3.9h-4.9V15.4z M20.9,21.2c1.5,0.7,2.9,1.6,4.1,2.7c0.5,0.5,1,0.9,1.5,1.2c0.2,0.1,0.5,0.2,0.7,0.2c0.4,0,0.5-0.3,0.5-0.9
	c0-0.8-0.4-1.6-1.1-2.1c-1.8-0.7-3.6-1.2-5.5-1.6L20.9,21.2z M1.7,1.4c1.2,1.5,2.2,3.1,2.9,4.9c0.6,1.6,0.8,2,1.1,2C6.2,8.3,7,7,7,6
	c0-0.7-0.4-1.4-1-1.8C4.8,3,3.4,2,2,1L1.7,1.4z M9.2,53.8c-0.6,1.4-1.4,3.3-1.7,4.1c-0.7,1.6-1.1,2.7-1.3,3.2
	c-0.4-1.3-0.6-2.6-0.5-4c0.1-3.6,0.9-7.1,2.4-10.4c0.5-1.1,0.5-1.1,0.5-1.4c-0.1-0.9-0.5-1.8-1.2-2.4c-0.9-1.2-1.5-1.6-2.2-1.6
	c0.6,0.8,0.9,1.8,0.9,2.8C6,45.1,5.9,46,5.6,47c-0.9,3.5-1.4,7.1-1.4,10.7c0,2.2,0.3,4.4,1,6.4c0.4,1,0.8,1.4,1.4,1.4
	c0.3,0,0.5-0.1,0.6-0.4c0.2-0.3,0.2-0.4,0.2-1.4v-0.1c0-1,0.5-3,2.3-9.7L9.2,53.8z M12.6,48.5c1.3,1.5,3.3,2.4,5.3,2.2
	c0.9,0,1.9-0.1,2.8-0.3v4.1l0.1,3.4v0.5c-0.9-0.1-1.3-0.1-2-0.1c-3.6,0-6,1.4-6,3.6c0,1.9,2,3.3,4.7,3.3c3.2,0,5.1-1.4,5.1-3.7
	c0-0.3,0-0.5,0-0.8c1.3,0.6,2.5,1.5,3.5,2.6c0.6,0.6,0.9,0.8,1.1,0.8c0.4,0,0.6-0.5,0.6-1.2c0-1.9-1.6-3.1-5.3-4.1
	c-0.3-2.9-0.5-5.8-0.4-8.7c3.3-0.6,5.7-1.6,5.7-2.3c0-0.3-0.2-0.5-0.4-0.6c-0.5-0.2-1-0.4-1.5-0.4c-0.3,0-0.4,0-0.7,0.4
	c-0.9,0.6-1.9,1.1-3,1.3c0-1.5,0.2-2.9,0.7-4.3c0.3-0.7,0.3-0.8,0.3-1c0-0.5-0.5-0.9-1.4-1.2c-0.7-0.2-1.4-0.3-2.2-0.3
	c-0.6-0.1-1.1,0.1-1.5,0.5c0.8,0,1.5,0.2,2.1,0.7c0.4,0.4,0.4,0.9,0.4,4.4v1.4c-1.2,0.3-2.4,0.4-3.6,0.4c-1.5,0-2.9-0.4-4.1-1.3
	L12.6,48.5z M20.7,60.2c0.1,0.8-0.1,1.5-0.4,2.2c-0.5,1-1.7,1.5-3.5,1.5c-1.9,0-3.1-0.7-3.1-1.9c0-1.4,1.6-2.2,4.1-2.2
	C18.8,59.8,19.8,60,20.7,60.2z M23.5,39.9c1,1,1.8,2.1,2.5,3.4c1,2.1,1,2.1,1.4,2.1c0.5,0,0.9-0.6,0.9-1.3c0-0.8-0.4-1.5-1.6-2.6
	c-0.8-0.8-1.8-1.4-2.8-2L23.5,39.9z M26.7,38.1c1.4,1.3,2.6,2.8,3.5,4.5c0.3,0.4,0.4,0.6,0.7,0.6c0.4,0,0.8-0.5,0.8-1.3
	c0-0.9-0.4-1.5-1.6-2.5c-0.9-0.7-1.9-1.3-3-1.8L26.7,38.1z M5.3,93.9c-0.6,1-1.3,2-2.1,2.8c-0.5,0.5-0.5,0.6-0.5,1
	c0,0.6,0.1,1.2,0.4,1.8c0.2,0.5,0.4,0.7,0.7,0.7s0.4-0.2,1.1-1.7c1.1,1.1,2,2.2,2.8,3.5c0.1,0.2,0.4,1.2,0.5,1.5
	c0.2,0.6,0.4,0.9,0.8,0.9c0.8,0,1.4-1.5,1.4-3.3c0-0.5,0-1-0.1-1.5c-0.2-2.5-0.3-4-0.3-5.7c0-0.5,0-0.9,0-1.7
	c1.5-1.8,3.1-3.5,4.9-5.1c2.6-2.3,4.2-3.2,5.6-3.2c1.2,0,2,0.9,2,2.5c0,1.2-0.1,1.6-0.8,5.1c-0.4,1.9-0.7,3.8-0.8,5.7
	c0,2.9,1.3,4.5,3.7,4.5c2.3,0,4.8-1.3,7.1-3.7l-0.3-0.4c-1.7,1.3-3.8,2.1-6,2.3c-0.6,0-1.2-0.2-1.6-0.5C23.2,99,23,98.3,23,97
	c0-1.8,0.2-3.5,0.6-5.2c0.4-1.5,0.6-3.1,0.6-4.7c0.1-1-0.2-2-0.9-2.8c-0.6-0.7-1.6-1.2-2.5-1.2c-1.4,0-2.9,0.7-5.2,2.3
	c-2,1.5-3.8,3.1-5.6,4.9c0-0.4,0-0.8,0.1-1.2c0.3-0.7,0.6-1.4,1-2.1s0.4-0.7,0.4-0.9c0-0.3-0.2-0.5-0.9-1.2c0.1-0.9,0.3-1.7,0.6-2.5
	c0.3-1,0.3-1,0.3-1.3c0-0.6-0.6-1.4-1.7-2.1c-0.6-0.5-1.3-0.8-2-0.9c-0.2,0-0.3,0.1-0.4,0.2c1.5,1.2,1.8,1.7,1.8,3.6
	c0,1.1-0.1,2.3-0.2,3.4c-1.4,0.9-3,1.5-4.6,1.9c-0.7,0-1.4-0.5-2.1-1.5c-0.1,0.2-0.1,0.4-0.1,0.5c0,1,1.5,2.9,2.4,2.9
	c0.3,0,0.5-0.1,1.1-0.5S8,87,8.9,86.4c0,0.5,0,0.5-0.1,1.1c0,0.8,0,0.8-0.1,1.3L5.3,93.9z M8.7,91c-0.1,1.3-0.1,2-0.1,3.6
	c0,4.8,0,4.8-0.1,6C7.3,99.8,6.2,99,5.1,98c0.6-1.3,1-2,1.7-3.4C8.3,91.9,8.3,91.9,8.7,91z M18.6,118.9c0.1,0,0.1,0,0.2-0.1h0.1l0,0
	l0,0l0.1,0.1c-0.1,0.2-0.2,0.4-0.3,0.5c-2.5,3.3-3.7,4.7-7.6,9.1c-2.7,3-3.2,3.5-4.4,4.4c-0.4,0.3-0.6,0.7-0.7,1.1
	c0,1,0.6,2.1,1.1,2.1c0.3,0,0.5-0.2,1.1-0.9c2.7-3.4,7-6,10.2-6c1.1,0,2.2,0.2,3.2,0.6c1.3,0.9,2.1,2.4,2,4c0.1,2.6-1.5,5-3.9,6
	c-0.3-0.7-0.8-1.4-1.4-2c-1.1-1-2.6-1.6-4.1-1.6c-2,0-3.5,1.2-3.5,2.7c0,2,2,3.2,5.2,3.2c5.8,0,10-3.4,10-8c0-3.6-2.8-6-6.8-6
	c-2.7,0-5.3,0.9-8.7,3l-0.1-0.1c0.7-0.7,0.7-0.7,3.7-4c1.5-1.6,2.7-2.8,4.7-4.8c0.7-0.9,1.6-1.6,2.6-2.1c0.4-0.2,0.5-0.4,0.5-0.6
	c0-0.4-0.2-0.7-1-1.4c-0.8-0.8-1.3-1.1-1.7-1.1c-0.2,0-0.3,0.1-0.4,0.2c-0.6,0.5-1.2,0.9-2,1c-2,0.6-4,1.1-6,1.4
	c-1.1,0-1.9-0.8-2.4-2.3c-0.2,0.2-0.3,0.5-0.3,0.8c0.1,0.9,0.4,1.7,0.9,2.4c0.6,0.9,1.2,1.3,1.8,1.3c0.5-0.1,0.9-0.2,1.3-0.4
	c2.2-1,5.2-2.1,6.5-2.5H18.6z M17.4,140.6c-0.7,0.2-1.5,0.3-2.3,0.3c-2.2,0-3.6-0.8-3.6-2c0-1,0.8-1.6,2-1.6
	C15.4,137.4,17,138.8,17.4,140.6z M21.3,167.4h5v1.3c0.1,0.4,0.1,0.4,0.4,0.4c0.5,0,1-0.1,1.5-0.2c0.2-0.1,0.3-0.2,0.3-0.5
	c-0.2-2.8-0.2-4.9-0.2-8.7v-3.5c0.6-0.4,1-0.7,1.1-0.7c0.1-0.1,0.1-0.2,0.2-0.3c0-0.1-0.1-0.3-0.4-0.4c-0.8-0.6-1-0.8-1.9-1.5
	c-0.4,0.5-0.9,1-1.2,1.5H15c-0.8-0.6-1.5-1.1-2.4-1.5c0.2,1.8,0.3,3.7,0.2,5.6c0,4.6-0.1,7.2-0.2,10.1c0,0.4,0.2,0.5,1.2,0.5
	c0.7,0,0.9-0.1,1-0.5v-1.4h4.6v5.2h-4.6c-0.9,0-1.8,0-2.7-0.3l0.3,1.1c1.6-0.1,1.9-0.1,2.5-0.1h4.5v5.9H12c-0.9,0-1.9-0.1-2.8-0.3
	l0.2,1.2c1.5-0.1,2-0.1,2.5-0.1h19c0.3,0,0.4,0,0.4-0.2c0-0.1-0.1-0.2-0.2-0.3c-1.1-1.1-1.5-1.4-2.7-2.4c-0.8,0.9-1,1.2-1.8,2.1
	h-5.4v-5.9h8.1c0.2,0,0.4-0.1,0.4-0.2s-0.1-0.2-0.1-0.2c-1.1-1-1.5-1.3-2.6-2.2c-0.7,0.8-0.9,1.1-1.7,1.9h-4.1v-5.4L21.3,167.4
	L21.3,167.4z M21.3,160.8v-5.3h5v5.3H21.3z M21.3,161.5h5v5.2h-5V161.5z M19.4,166.7h-4.6v-5.2h4.6V166.7z M19.4,160.8h-4.6v-5.3
	h4.6V160.8z M7.6,156.1H12c0.2,0,0.4-0.1,0.4-0.2s-0.1-0.2-0.2-0.3c-1-0.9-1.3-1.2-2.3-2.1c-0.7,0.8-0.9,1.1-1.6,1.9H3.8
	c-0.8,0-1.6,0-2.4-0.2l0.2,1.1c0.7-0.1,1.4-0.2,2.1-0.2h1.9v7.9H3.8c-0.7,0-1.5-0.1-2.2-0.3l0.2,1.1c0.6-0.1,1.3-0.1,1.9-0.1h1.9
	v8.8c-1.8,0.7-2.8,1.1-4.4,1.6c1.1,2.5,1.4,3.1,1.7,3.1c0.2,0,0.4-0.4,0.4-1.4c3.4-1.8,6.6-3.9,9.6-6.2l-0.3-0.4
	c-1.6,0.9-3.3,1.7-5,2.5v-7.9h4.1c0.2,0,0.4-0.1,0.4-0.2s0-0.1-0.1-0.2c-0.7-0.7-1.4-1.4-2.1-2.1c-0.6,0.8-0.8,1-1.5,1.8H7.7
	L7.6,156.1z M25.3,217.7v1.5c0,0.4,0.1,0.5,0.5,0.5c0.5,0,1.1-0.1,1.6-0.2c0.2-0.1,0.3-0.3,0.3-0.5v-0.1c-0.1-6-0.1-6-0.1-19.1
	c0.9-0.5,1.1-0.7,1.1-0.9c0-0.1-0.1-0.2-0.3-0.4c-0.9-0.6-1.1-0.9-2-1.5c-0.4,0.5-0.9,1-1.2,1.5h-8.5V192c1-0.3,1.5-0.6,1.5-0.9
	s-0.6-0.5-3.8-0.9c0.2,1.3,0.3,2.6,0.2,3.9v4.4H6.8c-1.2-0.7-1.5-0.9-2.7-1.5c0.1,1.5,0.1,2.2,0.1,11.9c0,3.3,0,3.3-0.1,10.3
	c0,0.2,0.2,0.4,0.4,0.4l0,0c0.5,0,1.1-0.1,1.6-0.2c0.2-0.1,0.3-0.2,0.3-0.4v-1.2L25.3,217.7z M25.3,217h-8.7v-8.9h8.7V217z
	 M25.3,207.4h-8.7v-8h8.7V207.4z M14.5,217H6.3v-8.9h8.2V217z M14.5,207.4H6.3v-8.1h8.2V207.4z"/>
<path class="st1" d="M47.7,162c3.4,2.8,3.5,2.9,3.6,3.7c0,0.4,0.3,0.7,0.7,0.7l0,0c1.2-0.1,2.3-0.6,3.1-1.4c1.9-2,3.5-7.4,3.5-11.5
	c0-3.4-1.3-5-4.1-5c-0.9,0-1.9,0.1-2.8,0.4c0.6-1.5,1.3-2.9,2-4.3c0.4-0.6,0.4-0.7,0.4-0.9c0-0.7-0.8-1.3-2.2-1.7
	c-0.7-0.2-1.4-0.4-2.2-0.4c-0.3,0-0.7,0.1-0.9,0.4c1.8,0.6,2.5,1.2,2.5,2.1c-0.2,1.8-0.6,3.6-1.3,5.2c-1.8,0.5-3.6,0.9-5.4,1.1
	c-1.2,0-1.8-0.4-2.4-1.8c-0.1,0.2-0.2,0.5-0.2,0.7c0.1,0.9,0.5,1.7,1.1,2.4c0.3,0.5,0.8,0.8,1.4,1c0.3,0,0.7-0.1,0.9-0.4
	c1.3-0.7,2.7-1.2,4.2-1.7c-3.1,6.8-4.4,9.4-5.9,11.1c-0.5,0.4-0.8,1.1-0.7,1.8c0,1.4,0.4,2.2,0.9,2.2c0.3,0,0.5-0.2,0.8-0.6
	c0.5-0.9,1.6-3.2,2.8-6.2c1.1-2.6,1.7-4.1,1.9-4.5c1.4-3.2,1.4-3.2,1.9-4.4c1.1-0.4,2.2-0.6,3.3-0.6c0.5,0,1,0.1,1.4,0.3
	c0.6,0.4,0.9,1.2,0.9,2.6c-0.1,2.9-0.7,5.9-1.9,8.6c-0.8,2-1.4,2.7-2.1,2.7c-0.7,0-2.5-0.8-5-2.2L47.7,162z M61.8,149.1
	c2.9,1.4,4.9,4.1,5.4,7.3c-1.6,0.6-3.2,1.2-4.9,1.6l0.1,0.4c1.3-0.2,2.7-0.3,4-0.3c0.5,0,0.9,0.1,1.3,0.4c0.2,0.1,0.5,0.2,0.7,0.2
	c0.8,0,1.3-0.6,1.3-1.8c-0.1-1.7-0.7-3.3-1.8-4.5c-1.5-1.9-3.5-3.2-5.9-3.8L61.8,149.1z M62.8,142.7c1,1,1.8,2.1,2.5,3.4
	c1,2.1,1,2.1,1.4,2.1c0.5,0,1-0.6,1-1.3s-0.4-1.5-1.6-2.5c-0.9-0.8-1.8-1.4-2.8-2L62.8,142.7z M66.1,140.9c1.4,1.3,2.6,2.9,3.5,4.6
	c0.3,0.4,0.4,0.6,0.7,0.6c0.5,0,0.8-0.5,0.8-1.3c0-0.9-0.4-1.5-1.6-2.5c-0.9-0.7-2-1.3-3.1-1.8L66.1,140.9z"/>
</svg>
