<?xml version="1.0" encoding="UTF-8"?><svg id="_イヤー_2" xmlns="http://www.w3.org/2000/svg" viewBox="0 0 53.38 298.01"><g id="_イヤー_1-2"><g><path d="M37.58,77.81c1,.2,2,.6,2.9,1.1,.7,.4,1,.8,1,1.5,0,.5-.2,1-.5,1l-.2-.1c-.1-.1-.2-.1-.5-.7-.7-.9-1.4-1.7-2.7-2.4v4.6q0,3.9,.1,5c-.1,.3-.2,.4-.8,.4h-.3c-.3,0-.4,0-.5-.2,0-.2,0-1.9,.1-5v-3.7c-1.1,1.1-1.9,1.8-3.4,2.7l-.2-.3c1.4-1.2,2.4-2.2,3.6-3.8,1.2-1.6,1.9-2.8,2.6-4.4h-4.3c-.5,0-.8,0-1.5,.1l-.2-.8c.6,.1,1.2,.2,1.7,.2h1.7v-2.3c0-.9,0-1.1-.2-1.9,.5,0,.8,.1,1.1,.1,1,.1,1.3,.1,1.3,.4,0,.2-.2,.3-.8,.5v3.2h1.2c.4-.5,.6-.6,1-1.1,.6,.5,.8,.6,1.3,1.1,.2,.2,.2,.3,.2,.3,0,.2-.1,.2-1.1,.4-.9,1.6-1.5,2.5-2.7,3.9l.1,.2Zm4.5-1.1c-.5,0-.9,0-1.7,.2l-.2-.8c.9,.1,1.2,.2,1.9,.2h3.1v-4.9c0-1.1,0-1.7-.2-2.7,.5,.1,.9,.1,1.1,.1,1.1,.1,1.4,.2,1.4,.4s-.2,.3-.9,.6v6.5h2.2l1.2-1.6c.9,.8,1.2,1,2,1.8,0,0,.1,.1,.1,.2s-.1,.2-.2,.2h-5.4v9.8h2.6c.6-.7,.8-.9,1.4-1.7,.9,.8,1.1,1,2,1.9,.1,0,.1,.1,.1,.2s-.1,.2-.2,.2h-11.3c-.9,0-1.2,0-2,.2l-.2-.8c.8,.1,1.5,.2,2.2,.2h3.8v-9.8l-2.8-.4Z" fill="#42210b"/><path d="M45.48,102.21c1.7-.8,2.9-1.6,3.9-2.6,1.6,.8,1.8,1,1.8,1.2,0,.1-.1,.2-.4,.2h-.8c-1.5,.7-2.9,1.2-4.6,1.6v1.2c0,.3,0,.4,.3,.4,.2,0,1.2,.1,1.8,.1h2c.8,0,.9,0,1.1-.2s.6-1.4,1-2.4h.3l-.1,1.7v.6q0,.1,.4,.3c.3,.1,.5,.3,.5,.5,0,.7-.6,.8-4.6,.8-3.5,0-3.7-.1-3.7-1.2v-5.5h-4.4c-.5,.8-.8,1.2-1.3,1.7h3c.4-.3,.5-.4,.9-.8,.5,.4,.6,.5,1.1,.9,.2,.1,.2,.2,.2,.3s-.1,.2-.8,.4c-1.4,2.1-2.6,3.1-4.6,4.2-1.5,.8-2.9,1.3-5,1.8l-.1-.3c2.5-.9,4.1-1.7,5.6-2.9-.2,0-.2-.1-.3-.2-.5-.8-1.1-1.4-1.7-1.7-1.4,1.1-2.1,1.5-3.3,2.1l-.2-.3c1.3-.9,2.2-1.7,3.4-3,.7-.8,1.1-1.3,1.5-2.1h-2.5c-.9,0-1.1,0-1.8,.1l-.2-.8c.7,.1,1.2,.2,2,.2h13.7c.6-.6,.7-.8,1.3-1.4,.8,.7,1.1,.9,1.9,1.6,0,.1,.1,.1,.1,.2s-.1,.1-.2,.1h-6.8l-.4,3.2Zm-.8-6.9v-.2c0-.9,0-1.4-.1-1.8,1.9,.2,2.4,.3,2.4,.5s-.2,.2-.9,.4v1.1h3.3l1.4-1.4c.9,.7,1.1,.9,2,1.6,0,.1,.1,.1,.1,.2s-.1,.1-.2,.1h-6.6v1.2c0,.3-.2,.3-1.2,.3-.2,0-.3,0-.3-.2v-1.3h-4.1v1.3c0,.1,0,.2-.1,.2-.1,.1-.6,.1-1.2,.1-.1,0-.2,0-.2-.2,0-.7,.1-1,.1-1.4h-4.1c-.9,0-1.1,0-1.7,.1l-.2-.8c.6,.1,1,.2,1.9,.2h4.1v-.6c0-.6,0-.8-.1-1.4,.5,.1,.8,.1,1.1,.1,1,.1,1.3,.2,1.3,.4s-.2,.2-.9,.4v1.1h4.2Zm-5.3,12.4c0-.4,.1-.7,.1-1.1,0-.3,0-.5-.1-.9,.5,.1,.8,.1,1,.1,.9,.1,1.3,.2,1.3,.4s-.1,.2-.8,.4c-.1,.6-.1,.7-.1,1h4q0-1.1-.1-1.8c2.1,.2,2.2,.2,2.2,.4s0,.2-.8,.5v.9h3.3c.6-.7,.8-.9,1.3-1.4,.9,.7,1.1,.9,2,1.6,0,.1,.1,.1,.1,.2s-.1,.2-.2,.2h-6.5v4.5c0,.1,0,.2-.1,.2-.1,.1-.7,.1-1.1,.1-.2,0-.3-.1-.3-.2,.1-1.4,.1-2,.1-3.1v-1.4h-4c-.3,1.5-.7,2.2-1.4,2.9-1.3,1.2-3.2,1.9-5.8,2.1l-.1-.3c2.5-.6,3.8-1.2,4.7-2.2,.6-.6,1-1.4,1.2-2.6h-3.9c-.8,0-1.1,0-1.7,.1l-.2-.8c.6,.1,1,.1,1.8,.1l4.1,.1Zm-1.5-6.7c-.4,.4-.6,.6-1.1,1,.4,.1,.8,.2,1.3,.4,.7,.3,1,.5,1,.8s-.1,.4-.2,.6c1.1-.9,1.7-1.6,2.4-2.8h-3.4Z" fill="#42210b"/><path d="M36.88,129.11c0,.5-.1,.7-.1,1,0,2.6,1.6,3.8,5.1,3.8,1.7,0,3.5-.3,4.8-.8,.1,0,.3-.1,.4-.1,.3,0,.8,.2,1.2,.4,.3,.2,.5,.5,.5,.8s-.2,.6-.7,.7c-1,.3-3.1,.4-5,.4-2.4,0-3.9-.3-5-1s-1.8-2-1.8-3.4c0-.5,.1-1.1,.3-1.8h.3Zm.7-8.5c1.1,.7,1.9,.9,3.3,.9s3.2-.3,4.5-.7c.2,0,.3-.1,.4-.1,.6,0,1.3,.6,1.3,1.1,0,.4-.1,.5-1.6,.8-1.1,.3-2.3,.7-5.7,2.1l-.2-.3c.6-.4,1-.6,1.6-.9l1.4-.8,.4-.3c-.5,0-1.2,.1-1.6,.1-.8,0-1.8-.2-2.5-.6-.6-.3-.9-.6-1.5-1.2l.2-.1Zm9.8-1.9c.8,.5,1.4,.9,1.9,1.3,.8,.7,1.1,1.2,1.1,1.7s-.3,.9-.7,.9q-.3,0-1-1.4c-.4-.8-1.1-1.7-1.6-2.3l.3-.2Zm2.2-1.3c.8,.3,1.4,.7,2,1.2,.8,.6,1.1,1.1,1.1,1.7,0,.5-.2,.9-.5,.9-.2,0-.3-.1-.5-.4-.8-1.4-1.2-1.9-2.4-3.1l.3-.3Z" fill="#42210b"/><path d="M39.18,146.61c.5-.6,.6-.8,1.1-1.4,.8,.7,1,.9,1.7,1.7v.1c0,.1-.1,.1-.2,.1h-3.5v2.2c.7,.4,1.1,.6,1.7,1.1,1.1,.8,1.4,1.1,1.4,1.8s-.3,1.4-.6,1.4c-.2,0-.3-.1-.6-.9-.5-1.2-1.1-2-1.8-2.9q0,8.4,.1,11.3h0c0,.1,0,.2-.2,.2-.2,.1-.7,.1-1,.1-.2,0-.3,0-.3-.2q.1-3.6,.1-4.7v-4.5l.1-2.5c-.6,1.7-.9,2.5-1.7,3.9-.8,1.4-1.3,2.1-2.4,3.3l-.2-.2c1.1-1.8,2-3.5,2.7-5.5,.5-1.3,.7-2.2,1.1-3.7h-1.9c-.5,0-.9,0-1.4,.1l-.1-.8c.6,.1,1.1,.2,1.6,.2h2.2v-2.3c0-1.2,0-1.5-.1-2.5,2.1,.2,2.4,.3,2.4,.5s-.2,.3-.9,.6v3.7l.7-.2Zm10.6-3.3c.4-.5,.5-.6,.9-1,.6,.4,.8,.5,1.3,1,.2,.2,.3,.3,.3,.4,0,.2-.2,.3-.8,.6q0,12.1,.1,16.2,0,.2-.2,.3c-.2,.1-.6,.1-1,.1-.2,0-.3-.1-.3-.3v-1.4h-6.1v1.4c0,.3-.3,.4-1.2,.4-.2,0-.3-.1-.3-.3q.1-2.9,.1-9.9c0-4.3,0-5.8-.1-8.6,.7,.5,.9,.6,1.6,1.1h5.7Zm.2,.5h-6.1v4.4h6.1v-4.4Zm-6.1,4.8v4.6h6.1v-4.6h-6.1Zm0,5.1v4.9h6.1v-4.9h-6.1Z" fill="#42210b"/><path d="M32.98,170.61c.5,.1,1.1,.2,1.6,.2h3.4c.5-.6,.6-.8,1.1-1.4,.8,.6,1,.8,1.7,1.4,.1,.1,.2,.2,.2,.3s-.1,.2-.2,.2h-6.4c-.4,0-.7,0-1.4,.1v-.8Zm.8-2.9c.4,.1,.9,.1,1.4,.1h2.5q.6-.7,1.2-1.3c.7,.6,.9,.8,1.6,1.4,.1,.1,.1,.2,.1,.2,0,.1-.1,.2-.2,.2h-5.3c-.3,0-.6,0-1.1,.1l-.2-.7Zm0,5.8c.4,.1,.9,.1,1.4,.1h2.4c.4-.5,.5-.7,1-1.2,.7,.6,.9,.8,1.6,1.4,0,.1,.1,.1,.1,.2s-.1,.2-.2,.2h-5c-.4,0-.7,0-1.1,.1l-.2-.8Zm0,3c.6,.1,.9,.1,1.4,.1h2.5c.4-.5,.5-.7,1-1.3,.7,.6,.9,.8,1.6,1.4v.2c0,.1-.1,.2-.2,.2h-5.1c-.5,0-.7,0-1.1,.1l-.1-.7Zm1.5,9.2c0,.3-.2,.3-1,.3-.3,0-.4-.1-.4-.3v-3.3c0-1.4,0-2.8-.1-3.8,.7,.3,.9,.4,1.5,.8h2.6c.3-.4,.5-.6,.8-1,.5,.4,.7,.6,1.2,1q.2,.2,.2,.3c0,.1-.2,.3-.7,.5,0,2,0,3.4,.1,4.7,0,.2-.1,.2-.2,.3-.2,.1-.6,.1-.9,.1-.2,0-.3-.1-.3-.2v-.6h-3l.2,1.2Zm0-1.7h3v-4h-3v4Zm3.9,1.9c2.7-1.1,4-2.1,4.9-3.5,.7-1.1,1.1-2.4,1.3-4.4,.1-.6,.1-1.3,.1-1.7v-.8c1.2,.1,1.8,.2,2.1,.3,.1,0,.2,.2,.2,.2l-.1,.2c0,.1-.2,.2-.8,.4,0,1.2,0,1.5,.2,2.2,.1,.6,.2,1,.5,1.5l.2-.2c.9-.8,2-2,2.5-3,.8,.4,1.7,.9,1.9,1q.1,.1,.1,.2c0,.1-.2,.2-.5,.2-.1,0-.3,0-.6-.1-1.1,.8-1.3,1-3.5,2.2,.5,.8,1.1,1.4,1.9,2,1,.7,2,1,3.7,1.2v.3c-.8,.3-1.1,.7-1.3,1.6-1.7-.8-2.7-1.6-3.6-2.8-.7-.8-1.2-1.8-1.4-2.7-.1-.5-.2-.9-.3-1.9-.2,1.6-.4,2.4-.8,3.3-.7,1.4-1.9,2.7-3.4,3.4-.9,.5-1.6,.7-3.1,1.1l-.2-.2Zm7.6-17.6c-.3,2.6-.3,3-.7,4.1,2.5,.8,4.2,1.6,5.4,2.2,.5,.3,.8,.8,.8,1.7,0,.4-.1,.6-.3,.6-.1,0-.3-.1-1-.8-1.6-1.5-3-2.5-4.9-3.5-.4,.9-.8,1.5-1.5,2.2-1,1-2.1,1.7-3.8,2.3l-.2-.3c1.2-.6,1.9-1,2.6-1.8,1.4-1.4,2-2.9,2.2-5.3,.1-.9,.1-2.1,.1-2.4,0-.2,0-.4-.1-.8,.4,0,.8,.1,1,.1,.9,.1,1.3,.2,1.3,.4s-.3,.3-.9,.5v.8Zm-3,8.9c-.1,1.3-.4,2.4-1,3.3-.4,.6-.9,1.1-1.2,1.1s-.6-.5-.6-1.2c0-.2,.1-.4,.2-.5l.4-.2c.9-.4,1.6-1.3,1.9-2.7l.3,.2Zm0-8.4c-.1,1.3-.3,2.3-.8,3.2-.4,.7-.9,1.3-1.3,1.3-.3,0-.6-.5-.6-1.1,0-.3,0-.4,.5-.6,.8-.3,1.6-1.5,1.9-2.8h.3Zm3.3,2.9c.8-.6,1.3-1.1,2.3-2.3,.5-.6,.6-.7,.8-1.1l1,.5c.8,.4,1.1,.6,1.1,.8,0,.1-.2,.2-.5,.2-.1,0-.3,0-.5-.1-1.6,1-3.2,1.8-4.1,2.2l-.1-.2Z" fill="#42210b"/><path d="M38.68,209.61c1.4-1.6,2.3-3.1,3.1-5.1,.6-1.6,1-3.4,1-4.4,0-.5-.1-.8-.6-1.1-1.3,.1-3.7,.8-4.8,1.4-.4,.2-.5,.2-.7,.2-.4,0-.8-.3-1.4-.8-.5-.5-.7-.9-.7-1.3,0-.1,0-.2,.1-.4,.5,.7,1,1,1.8,1q.5,0,3.7-.6c1.7-.3,2.6-.4,6.6-.8,.4,0,1-.2,1.7-.4q.3-.1,.5-.1c.3,0,.7,.1,1.1,.3,.6,.3,1,.7,1,1s-.2,.4-.6,.4q-.2,0-.5-.1c-.9-.2-2.3-.3-3.5-.3s-2.4,.1-3.5,.2c1,.5,1.4,1,1.4,1.5,0,.8-.6,2.7-1.4,4.2-1.2,2.4-2.3,3.8-4.3,5.2h0Zm-.5-16.7c.9,.8,1.6,1.2,2.6,1.2,1.4,0,3.4-.5,4.5-1.1,.2-.1,.4-.2,.6-.2,.6,0,1.5,.7,1.5,1.1,0,.3-.3,.4-1.1,.6-1.4,.3-3.8,.6-4.9,.6-1.6,0-2.5-.5-3.5-2l.3-.2Zm9.9-1.4c.8,.4,1.4,.8,1.9,1.3,.8,.7,1.1,1.2,1.1,1.7s-.3,.9-.7,.9q-.3,0-1-1.4c-.4-.8-1.1-1.7-1.6-2.3l.3-.2Zm2.2-1.3c.8,.3,1.4,.7,2,1.2,.8,.6,1.1,1.1,1.1,1.7,0,.5-.2,.9-.5,.9-.2,0-.3-.1-.5-.4-.8-1.4-1.2-1.9-2.4-3.1l.3-.3Z" fill="#42210b"/><path d="M34.48,230.41c2.1-1.3,4.2-3,5.8-4.7,1.3-1.4,2.8-3.4,4.1-5.4,.7-1.1,1.1-1.8,1.5-2.8-1,.1-2.2,.3-4.5,1-1,.3-1.1,.3-1.8,.6-.1,0-.2,.1-.4,.1-.5,0-.9-.4-1.4-1.2-.3-.5-.5-.9-.5-1.3,0-.1,0-.2,.1-.4,.6,1.1,1.1,1.4,2,1.4,.7,0,2.9-.3,4.5-.6,1.2-.2,1.6-.4,2-.6,.2-.2,.3-.2,.5-.2,.5,0,1.7,1.1,1.7,1.5,0,.2-.1,.3-.3,.4q-.5,.3-1.2,1.5-1,1.6-2.7,3.8c3,1.6,4.7,2.7,5.6,3.6,.6,.6,.8,1.2,.8,2.1,0,.7-.2,1.1-.6,1.1-.2,0-.3-.1-.5-.3q-.1-.1-.5-.9c-1.1-1.8-2.9-3.7-5.1-5.3-1.7,2.1-3.1,3.4-5.2,4.9-1.4,1-2.3,1.5-3.8,2.1l-.1-.4Z" fill="#42210b"/><path d="M36.08,245.91c1.6-1.3,3-3,4.5-5.3,.9-1.3,1.4-2.4,1.4-2.9,0-.3-.1-.5-.4-.7s-.3-.2-.5-.4l-.4-.2c.2-.1,.3-.1,.4-.1,.5,0,1.2,.2,1.8,.6,.7,.4,1,.8,1,1.1s0,.3-1.2,2c.3,.1,.4,.1,.6,.1,.4,0,1.5-.2,2.6-.4,.9-.2,1.2-.3,1.7-.6q.2-.1,.4-.1c.5,0,1.7,1.1,1.7,1.6,0,.2-.1,.3-.3,.5-.4,.3-.5,.5-1,1.5-1.9,3.6-3.7,5.9-6.3,8.1-1.8,1.6-3.5,2.6-5.3,3.4l-.2-.3c1.7-1.1,3-2.1,4.8-3.9,2.6-2.6,4.6-5.5,5.9-8.5,.2-.5,.3-.9,.3-1.1,0-.1-.1-.2-.2-.2-.3,0-1.7,.3-2.7,.7-.4,.1-.5,.2-.7,.2-.5,0-.9-.2-1.3-.6-1.7,2.4-3.8,4.5-6.2,5.9l-.4-.4Z" fill="#42210b"/><path d="M39.18,267.81c0,.2-.4,1.5-1,4-.3,1.3-.4,1.6-.4,2.3,0,.6,0,.8-.1,.9-.1,.2-.3,.4-.5,.4-.4,0-.7-.3-.9-.9-.5-1.1-.8-2.9-.8-4.6,0-.6,.1-1.4,.2-2.3q.1-1.2,.7-4.1c.2-1,.3-1.6,.3-2,0-.7-.2-1.2-.6-2,.5,0,.9,.3,1.4,1.1,.5,.7,.8,1.2,.8,1.7,0,.3,0,.4-.4,1.3s-.9,2.4-1.2,3.4c-.2,.8-.3,1.7-.3,2.7,0,1.2,.1,1.9,.4,2.8,.4-.8,.5-1.2,.8-1.8l1.1-3,.5,.1Zm2.8,1c0,.4-.1,.6-.1,.9,0,2.4,1.4,3.3,4.7,3.3,.6,0,1.2,0,1.8-.2q.5-.1,1.1-.3c.1,0,.2-.1,.3-.1,.6,0,1.4,.8,1.4,1.3,0,.3-.2,.4-.5,.5-.5,.2-1.5,.2-2.7,.2-2.7,0-4.6-.4-5.6-1.3-.8-.7-1.2-1.6-1.2-2.8,0-.5,.1-1,.3-1.7l.5,.2Zm-.1-6.8c.8,.5,1.2,.6,2,.6,1.3,0,3.4-.5,4.3-1q.3-.2,.5-.2c.2,0,.5,.1,.8,.3,.5,.3,.7,.5,.7,.8s-.1,.4-.6,.5c-1.4,.2-2.2,.4-3.1,.8-.7,.3-1.9,1-2.8,1.5l-.2-.2c1-.8,1.7-1.4,2-1.7h-.9c-1.2,0-2-.3-2.9-1.2l.2-.2Z" fill="#42210b"/><path d="M35.48,285.11c.3,.3,.5,.4,1,.4,.6,0,1.1-.1,6-1.3,.9-.2,2.1-.5,3.5-.8,1.6-.3,2.3-.5,2.9-.7,.4-.1,.6-.2,.8-.2,.3,0,.7,.2,1.2,.5,.4,.3,.6,.5,.6,.8s-.3,.5-.7,.5h-1c-3.7,0-7.2,3.5-7.2,7.1,0,2,1,3.4,2.9,4.2,.7,.3,1.6,.5,2.2,.5,.4,0,.6,.1,.9,.3,.4,.4,.6,.8,.6,1,0,.4-.3,.6-.8,.6-1.2,0-3.2-.7-4.4-1.5-1.6-1.2-2.5-2.8-2.5-4.8,0-1.7,.9-3.7,2.3-5.3,.9-.9,1.7-1.5,3.5-2.5-2,.3-3.7,.7-6.2,1.5-1.4,.4-2.8,1-3.4,1.4-.4,.3-.6,.3-.9,.3-.5,0-1.2-.5-1.7-1.3-.3-.5-.6-1.1-.6-1.4,0-.2,0-.3,.2-.6,.2,.7,.4,1,.8,1.3Z" fill="#42210b"/><path d="M3.58,72.41c1,.7,1.7,1,2.9,1,1,0,2.6-.3,3.5-.7-.5-.9-1.4-2-1.9-2.4-.3-.2-.9-.4-1.7-.4,.1-.4,.3-.4,.9-.6,.3-.1,.6-.1,1-.1,.8,0,1.3,.1,1.5,.3q.2,.2,.3,.8,0,.4,.9,2.1c2-.7,2.5-1,3.1-1.6,.2-.2,.4-.2,.7-.2,.8,0,1.3,.2,1.3,.6,0,.3-.3,.5-1.4,1-.3,.2-1.4,.5-3.2,1.1q.2,.4,.5,.8c.1,.2,.5,.8,1.1,1.8,1.7-.7,2.1-.8,2.7-1.2-.5-.5-.6-.6-1.1-1l.2-.2c.8,.4,1.4,.6,1.8,.6h.6c.3,0,.6,.2,.6,.5,0,.5-1.2,1.2-4.2,2.2,.7,1.1,.8,1.3,1,1.7q.5,.9,1,1.7c.3,.4,.4,.8,.4,1.2,0,.8-.3,1.4-.7,1.4-.2,0-.3,0-.6-.3-1.1-.9-3.1-1.5-5-1.5-1,0-2,.2-2.7,.6-.9,.5-1.3,1-1.3,1.7,0,1.3,1.4,2,4.1,2,1.1,0,1.7-.1,2.7-.3h.3c.6,0,1.4,.6,1.4,1.1,0,.2-.1,.3-.3,.4-.4,.2-1.7,.3-2.9,.3-1.7,0-3.2-.2-4.1-.6-1.3-.6-2.1-1.6-2.1-2.7,0-1.9,2.3-3.2,5.7-3.2,1.3,0,2.5,.1,4,.5-.2-.9-.8-2.1-1.6-3.7-1.4,.5-3.3,.8-4.6,.8-.9,0-1.6-.2-2.2-.6-.4-.3-.7-.6-1-1.3l.3-.2c.7,.9,1.4,1.3,2.5,1.3,1.2,0,2.8-.3,4.6-.8-.5-.8-1-1.8-1.5-2.6-1.4,.5-2.9,.7-4,.7-1.2,0-2.2-.5-3.1-1.6l-.4-.4Z" fill="#42210b"/><path d="M4.48,94.61c.8,.6,1.4,1.2,1.7,1.8,.2,.4,.4,1.2,.7,2.3,1.5-.8,2.6-1.1,4.5-1.4,.3-1.1,.4-1.9,.4-2.5,0-.5-.2-.7-1-.7h-.4l-.1-.2c.6-.3,1-.4,1.4-.4,.8,0,1.7,.7,1.7,1.3,0,.4-.3,1.6-.6,2.5,3.6,.1,6,2.4,6,5.7,0,2.4-1.4,4.4-3.9,5.8-1.3,.7-2.5,1-4.2,1.3l-.1-.3c1.9-.6,3-1.2,4.2-2.2,1.5-1.4,2.4-3.1,2.4-4.9,0-1.7-.7-3-1.9-3.9-.8-.5-1.5-.8-2.7-.8-.9,2.4-2.2,5-3.6,6.7,.3,.5,.4,.6,.8,1.1,.6,.8,.7,.9,.7,1.1s-.2,.5-.5,.5c-.5,0-1.2-.6-1.9-1.6-.3,.5-.8,.9-1.7,1.6-.7,.5-1.2,.8-1.7,.8s-.7-.3-.9-1.1c-.2-.7-.3-.9-.6-1.4-.4-.5-.5-.9-.5-1.3,0-1.7,1.2-3.5,3.4-5-.4-2.5-.6-3.1-1.6-4.4v-.4Zm0,7.4c-.5,.8-.7,1.7-.7,2.5,0,1,.6,2.1,1.1,2.1s1.6-.8,2.6-1.9c-.6-1.4-.9-2.4-1.3-4.6-.9,.7-1.3,1.2-1.7,1.9Zm3.9,1.6c1.2-1.7,2.2-3.6,2.8-5.7-1.9,.3-2.8,.7-4.2,1.6,.7,2.5,.8,3,1.4,4.1Z" fill="#42210b"/><path d="M.68,134.51c.7-2.3,1.1-4.8,1.1-7,1.9,.3,2.1,.4,2.1,.6s-.2,.3-.8,.4c-.5,2.6-.9,3.7-2,6.1l-.4-.1Zm1.3-9.4h1c.7-1,1.2-1.6,1.7-2.5,.3-.6,1.2-2.3,1.6-3.1,.2-.3,.2-.5,.4-1.1,1.7,.6,1.9,.7,1.9,.9s-.2,.3-.8,.3c-1.8,2.6-2.8,3.9-4.2,5.5q2.5-.2,3.5-.3c-.3-.8-.4-1.2-.8-2l.2-.1c1.6,1.7,2.1,2.3,2.1,2.9s-.4,1.4-.7,1.4c-.2,0-.2-.1-.4-.8-.1-.3-.1-.5-.2-1-.8,.2-.9,.2-1.7,.4v4.8c0,2.2,0,3.1,.1,4.7q0,.2-.1,.3c-.1,.1-.7,.1-1.1,.1-.2,0-.2-.1-.2-.2q.1-3.4,.1-4.7v-4.7c-.4,.1-.7,.1-.9,.2-.9,.2-1,.2-1.6,.3-.1,.6-.2,.7-.3,.7-.2,0-.2-.1-.7-1.9h.8l.3-.1Zm-.8-6.2c.8,.5,1,.6,1.5,1,.7-1.4,1.3-3,1.6-4.2,1.9,.5,2.1,.6,2.1,.8s-.2,.3-.9,.3c-1,1.6-1.4,2.1-2.4,3.3,.9,.7,1.1,1,1.1,1.5,0,.4-.2,.9-.4,1.2-.1,.1-.2,.1-.3,.1s-.2-.1-.3-.4c-.5-1.2-1.1-2.2-2.2-3.5l.2-.1Zm5.4,8c1.1,1.3,1.9,2.7,1.9,3.5,0,.6-.5,1.5-.8,1.5-.1,0-.2-.1-.3-.3q0-.2-.1-1.1c-.1-1.1-.3-1.6-.9-3.4l.2-.2Zm4,8.1c0,.3-.3,.3-1.1,.3-.3,0-.4-.1-.4-.3h0c.1-2.4,.1-5.8,.1-11.6,0-3-.1-5.3-.1-7,.7,.4,.9,.5,1.6,1h7c.4-.5,.5-.6,.9-1,.5,.4,.7,.5,1.2,1q.2,.2,.2,.3c0,.1-.2,.2-.7,.5v8.8c0,1.9,.1,4.1,.2,7.6,0,.2,0,.3-.2,.3-.3,.1-.6,.1-1,.1-.2,0-.3-.1-.3-.2h0v-1.2h-7.4v1.4Zm2.8-17h-2.9v7h2.9v-7Zm0,7.5h-2.9v7.8h2.9v-7.8Zm4.6-.5v-7h-3.2v7h3.2Zm-3.2,8.2h3.2v-7.8h-3.2v7.8Z" fill="#42210b"/><path d="M10.68,140.51c2.2,1.1,3.1,2,3.1,3.1,0,.5-.2,.8-.6,.8-.1,0-.2,0-.7-.2-.6-.2-1.4-.4-2.3-.5-1.5-.2-2.8-.3-3.3-.3s-.8,.2-.8,.6c0,.3,.5,1.4,1.4,3.4,1.2-.6,2.5-1.3,3.8-1.8,1.6-.6,2.8-.9,4.1-.9,2.6,0,4.5,1.4,4.5,3.4,0,.8-.4,1.8-1.1,2.5-.8,.8-2,1.2-3.4,1.2-1.7,0-3.6-.6-4.9-1.6l.1-.3c1.1,.6,2.5,.9,3.8,.9,1.4,0,2.6-.4,3.2-1.2,.5-.5,.7-1.2,.7-1.9,0-1.5-1.1-2.3-3.1-2.3-1.2,0-2.2,.3-4.1,1.2-1,.5-2,1-3.2,1.8,1,2.1,1.7,3.5,2.4,5.4,.8,2.1,1.1,2.8,1.1,3.5,0,.9-.4,1.6-1,1.6-.1,0-.2-.1-.3-.2-.1-.2-.2-.4-.3-.9-.4-2.7-1.3-5.6-2.7-8.9-1.2,.8-2,1.3-2.2,1.5-.3,.2-.4,.3-.6,.4-.3,.2-.5,.3-.8,.3-.9,0-2.3-1.4-2.3-2.3,0-.1,0-.2,.1-.4,.5,.7,1,1.1,1.5,1.1,.6,0,1.9-.6,3.8-1.7-.5-1.2-1.1-2.1-1.5-2.6s-.5-.6-.5-.9c0-.7,.8-1.5,1.6-1.5q.3,0,.7,.1c.1,0,.3,0,.6,.1h3.3c1.2,0,1.4,0,1.4-.3,0-.4-.8-1.3-1.7-2l.2-.2Z" fill="#42210b"/><path d="M6.68,170.41c-1.5,.5-2.2,.8-2.8,1.1-.3,.2-.5,.2-.6,.2-.2,0-.7-.3-.9-.6-.4-.5-.7-1.2-.7-1.6,0-.1,0-.3,.1-.5,.5,.9,.8,1.2,1.6,1.2,.5,0,2-.3,3.7-.8,.5-1.2,.9-2.8,.9-3.5s-.4-1-1.7-1.4c.3-.2,.4-.2,.6-.2,.3,0,.9,.1,1.4,.3,1,.3,1.5,.7,1.5,1.1,0,.2,0,.3-.3,.6-.3,.5-.8,1.4-1.4,2.9,.9-.2,1.4-.3,1.9-.3,1.9,0,2.7,1.1,2.7,3.4,0,2.8-1.1,6.3-2.3,7.7-.5,.6-1.4,1-2.1,1-.4,0-.5-.1-.6-.5q-.1-.6-2.4-2.5l.2-.3c1.7,.9,2.9,1.5,3.3,1.5,.5,0,.8-.5,1.4-1.8,.8-1.8,1.3-4.2,1.3-5.8,0-1.4-.4-2-1.5-2-.6,0-1,.1-2.3,.5q-.3,.7-1.2,2.9c-.1,.2-.5,1.2-1.3,3-.9,2-1.6,3.6-1.9,4.2-.2,.3-.3,.4-.5,.4-.4,0-.6-.6-.6-1.5,0-.6,.1-.7,.5-1.2s1-1.4,1.6-2.5q.8-1.6,1.7-3.6l.7-1.4Zm8.4-1.4c1.7,.5,3,1.4,3.9,2.6,.8,1.1,1.2,2.1,1.2,3.1,0,.7-.3,1.2-.9,1.2-.2,0-.3,0-.5-.1-.3-.2-.5-.2-.9-.2-.8,0-.9,0-2.7,.2l-.1-.3c2.2-.7,2.6-.8,3.3-1.1-.1-.7-.3-1.3-.7-2.1-.7-1.3-1.5-2.1-3-2.9l.4-.4Z" fill="#42210b"/><path d="M2.68,190.41c1,1,1.6,1.2,2.7,1.2,.6,0,1.1-.1,2-.3,.5-1.4,.8-2.3,.8-3.1,0-.7-.3-1.1-1.4-1.7,.2-.1,.3-.2,.5-.2,.4,0,1.1,.2,1.7,.5,.7,.4,1,.6,1,.9,0,.2,0,.3-.2,.6-.1,.2-.5,1.1-1.3,2.7,1.6-.6,1.8-.7,2.4-1.2q.2-.2,.5-.2c.8,0,1.5,.3,1.5,.6,0,.6-1.3,1.1-4.8,1.9-.2,.4-.6,1.3-1.1,2.6-.6,1.5-2.3,5.1-2.5,5.5-.3,.6-.5,.8-.8,.8-.4,0-.7-.7-.7-1.5,0-.4,0-.6,.2-.8,.5-.5,.7-.8,1-1.3,1.1-1.6,1.8-3,2.7-5.1-.5,.1-.7,.1-1,.1-.8,0-1.4-.1-1.9-.4-.6-.4-1.1-.9-1.6-1.6h.3Zm11.4,1.2c1.5,.1,2.7,.5,3.7,1.2,.8,.5,1.4,1.2,1.4,1.7,0,.4-.2,.6-.6,.6-.2,0-.3,0-.5-.2-.6-.4-1-.5-2.1-.4-1.7,0-2.3,.5-2.3,2,0,.6,.1,1.5,.4,3.7,1.3,.4,2.4,.9,3.1,1.4,.6,.5,.9,1,.9,1.7,0,.4-.2,.7-.4,.7s-.3-.1-.8-.6c-.8-.8-1.5-1.4-2.6-1.9v.4c0,.9-.2,1.4-.6,1.8-.6,.6-1.6,.9-2.8,.9-1.9,0-3.3-.9-3.3-2.3,0-1.5,1.6-2.6,4-2.6,.5,0,.7,0,1.3,.1-.1-1.7-.1-1.9-.1-2.1,0-1.8,.2-2.4,.7-3.1,.4-.5,1-.8,2-1,.3-.1,.4-.1,1.2-.3-.6-.6-1.3-1-2.8-1.5l.2-.2Zm-1.1,9.4c-.7-.2-1.2-.3-1.9-.3-1.8,0-2.9,.6-2.9,1.6,0,.8,.8,1.3,2.2,1.3,1.7,0,2.6-.7,2.6-2.1v-.5Z" fill="#42210b"/><path d="M9.38,215.31c-.3,2.7-.7,4.1-1.6,6.1,1.9,2.2,2.5,3,2.5,3.7,0,.9-.3,1.7-.7,1.7-.2,0-.3-.2-.5-.7-.4-1-1.1-2.4-1.8-3.5-1.5,2.6-3.2,4.6-5.6,6.4l-.2-.2c1.4-1.3,2.4-2.7,3.7-4.8,.5-.8,.8-1.5,1.4-2.6-1.1-1.6-2.1-2.9-3.5-4.5l.2-.2c1.2,1,2,1.8,3.7,3.6,.3-1,.6-1.8,.8-2.9,0-.3,.1-1,.3-2.1H3.38c-.4,0-.7,0-1.7,.1l-.2-.8c.6,.1,1.5,.2,1.8,.2h2.5v-2.6c0-.7,0-.9-.1-1.6,2.1,.2,2.5,.3,2.5,.6q0,.2-1,.6v3h2.2c.5-.6,.7-.8,1.1-1.4,.8,.6,1,.8,1.8,1.5,.1,.1,.2,.2,.2,.3s-.1,.2-.2,.2l-2.9-.1Zm2.1,2.9c1.2,1.2,1.9,2,2.7,3,.5,.8,.7,1.1,.7,1.5,0,.8-.5,1.6-1,1.6-.2,0-.3-.2-.4-.6-.4-1.8-1.1-3.4-2.2-5.3l.2-.2Zm4.8-5.4c0-.7,0-1.2-.1-2.2,2.3,.3,2.5,.3,2.5,.5s-.1,.3-1,.6v4.2h.6l1-1.5,1.6,1.6c.1,.1,.1,.2,.1,.2,0,.1-.1,.2-.2,.2h-3.2v11.3c0,.7-.1,1-.6,1.2-.5,.3-1,.5-1.9,.7-.2-.7-.3-.9-.6-1.1-.5-.3-1.1-.4-2.8-.6v-.3q2.6,.1,4,.1c.3,0,.4-.1,.4-.5v-11h-3.4c-.5,0-.8,0-1.4,.1l-.2-.9c.5,.1,1.2,.3,1.7,.3h3.3l.2-2.9Z" fill="#42210b"/><path d="M17.18,238.41c.6-.8,.7-1,1.3-1.7,1,.8,1.3,1,2.2,1.8,.1,.1,.1,.2,.1,.2,0,.1-.1,.2-.3,.2H4.38v1.4c0,2.5-.1,4.8-.3,6.5-.2,2.2-.8,4-2,5.9-.4,.7-.7,1-1.3,1.8l-.2-.2c.9-1.5,1.4-2.9,1.8-4.8,.4-1.8,.5-3.9,.5-8.5,0-2.2,0-2.6-.1-3.8,.8,.5,1.1,.6,1.9,1.1h5.8v-1.9c0-.5,0-.8-.1-1.5,2,.2,2.6,.3,2.6,.6,0,.2-.2,.3-.9,.5v2.4h5.1Zm-10.4,6.1v1.6c0,2-.1,3.3-.6,4.4-.2,.5-.4,.8-.7,.8s-.5-.1-.7-.5-.4-.7-.4-.9,.1-.3,.4-.7c.8-.9,1.3-2.5,1.4-4.6l.6-.1Zm2.1-.7c0-1,0-1.4-.1-2.3,2.1,.2,2.5,.3,2.5,.6,0,.2-.2,.3-.9,.5v9.6c0,.3,0,.5,.2,.5,.2,.1,.8,.2,1.7,.2h2.1c.6,0,.7-.1,.9-.4,.1-.3,.2-.5,.4-1.5,.3-1.3,.6-2.2,.7-2.8h.2v3.6q0,.6,.1,.7l.5,.1c.3,.1,.6,.3,.6,.5,0,.3-.2,.6-.6,.7-.4,.2-1.9,.2-4.1,.2-2,0-3.2-.1-3.6-.3-.4-.1-.5-.5-.6-1.2v-8.7Zm2.5-3.8c1.4,.6,2.5,1.2,3.3,1.9,.4,.3,.6,.7,.6,1.1,0,.5-.1,1-.2,1.2-.1,.2-.3,.3-.4,.3-.2,0-.3-.1-.6-.7-.6-1.3-1.6-2.5-2.8-3.6l.1-.2Zm5.4,4.5c2.7,2.1,3.8,3.4,3.8,4.3,0,.8-.5,1.7-1,1.7-.1,0-.2-.1-.3-.2s-.1-.1-.5-1.4c-.3-1.1-1.2-2.7-2.3-4.2l.3-.2Z" fill="#42210b"/></g><g><path d="M48.89,8.82c.94,1.61,2.15,3.06,2.68,4.92,3,10.43,1.42,20.06-4.97,28.86-.57,.79-1.35,1.44-2.02,2.16-.27,.29-.59,.35-.97,.29-.54-.08-1.01,.07-1.45,.39-.38,.27-.76,.44-.19,.95,.31,.28,.44,.81-.19,1.04-1.54,.57-2.83,1.57-4.18,2.45-2.16,1.41-4.59,1.85-7.05,2.24-8.3,1.3-15.13-1.99-21.4-6.93-3.53-2.78-5.17-6.79-6.74-10.81-.88-2.24-1.65-4.52-2.16-6.88-.58-2.69,.02-5.3,.31-7.95,.59-5.43,3.68-9.48,7.13-13.32,1.52-1.7,3.06-3.42,5.09-4.58,.44-.25,.91-.47,1.36-.7,.11-.05,.26-.16,.33-.12,.55,.31,.65,1.3,1.58,1.06-.03,.37-.34,.5-.59,.69-.92,.7-2.02,1.15-2.69,2.17,.55-.36,1.12-.68,1.63-1.08,1.4-1.08,3.08-.92,4.68-1.09,.24-.03,.49,.02,.65-.19,1.4-1.71,3.38-1.67,5.31-1.75,1.42-.06,2.85-.01,4.27,0,.56,0,1.07-.04,1.58-.37,.41-.27,.89-.44,1.39,.05,.53,.51,1.32,.45,1.99,.67,.15,.05,.39,.08,.42-.08,.21-1.28,1.1-.57,1.53-.4,4.21,1.61,7.97,3.97,11.15,7.2,.63,.64,.97,1.43,.94,2.35,0,.31,.01,.64,.12,.93,.11,.28,.33,.66,.67,.54,.46-.16,.13-.54,.05-.81-.17-.59-.37-1.17-.56-1.76l.31-.13Z" fill="#c8a463"/><path d="M28.08,31.61c1.3,.1,2.1,.3,3,.7,1.5,.8,2.4,2.3,2.4,4.1,0,3.3-2.6,5.4-6.6,5.4-3.4,0-6-1.6-6-3.8,0-.8,.5-1.2,1.5-1.2,.8,0,1.1,.3,1.1,1,.1,1.3,.2,1.8,.7,2.4,.5,.6,1.5,1,2.6,1,2.6,0,4.2-1.8,4.2-4.7,0-1.9-.6-3.2-1.8-3.8-.8-.4-1.9-.6-3.1-.6h-1.2v-.8h1.2c1.1,0,2.1-.3,2.9-.8,1-.7,1.5-1.9,1.5-3.4,0-1-.2-1.9-.7-2.6-.6-.9-1.4-1.3-2.8-1.3-2,0-3,1-3.1,3.1-.1,1-.3,1.3-1.2,1.3-1,0-1.4-.3-1.4-1,0-2.3,2.6-4.1,5.8-4.1,3.4,0,5.8,2,5.8,4.6,0,1.5-.8,2.8-2.2,3.6-.7,.4-1.5,.6-2.7,.9h.1Z" fill="#42210b"/><g><path d="M17.68,12.81h.2c.2-.3,.3-.3,.5-.6l.7,.7v.1s0,.1-.1,.1h-1.3v2.6c.7-.3,1-.5,1.6-.8l.1,.1c-.9,.7-2.1,1.5-3.1,2,0,.3-.1,.5-.1,.5-.1,0-.2-.2-.6-1,.5-.2,.9-.3,1.4-.5v-2.9h-1.2l-.1-.4c.3,.1,.5,.1,.7,.1h.6v-2.6h-.6c-.3,0-.4,0-.7,.1l-.1-.4c.3,.1,.4,.1,.8,.1h1.5c.2-.3,.3-.3,.5-.6,.3,.3,.4,.4,.8,.7l.1,.1s0,.1-.1,.1h-1.4v2.5h-.1Zm4.5,2.8h1.3c.2-.3,.3-.4,.5-.6,.4,.3,.5,.4,.9,.7v.1l-.1,.1h-2.7v1.9h1.8c.3-.3,.3-.4,.6-.7,.4,.3,.5,.4,.9,.8l.1,.1q0,.1-.1,.1h-7l-.1-.4c.3,.1,.6,.1,.9,.1h2.4v-1.9h-2.4l-.1-.4q.4,.1,.9,.1h1.5v-1.7h-1.5v.5c0,.1-.1,.2-.3,.2-.3,0-.4,0-.4-.2,0-.9,.1-1.8,.1-3.3,0-1.1,0-1.3-.1-1.8,.4,.2,.5,.3,.8,.5h3.6c.2-.2,.2-.3,.4-.5,.3,.2,.4,.3,.6,.5l.1,.1s0,.1-.1,.1c0,0-.1,.1-.3,.2v1.1c0,1.2,0,1.9,.1,2.8q0,.1-.1,.2s-.4,.1-.5,.1-.1,0-.1-.1v-.4h-1.6v1.7Zm-.7-5.6h-1.5v1.7h1.5v-1.7Zm0,1.9h-1.5v1.7h1.5v-1.7Zm2.3-.2v-1.7h-1.6v1.7h1.6Zm-1.6,1.9h1.6v-1.7h-1.6v1.7Z" fill="#42210b"/><path d="M28.98,17.91v.4q0,.1-.1,.1s-.4,.1-.5,.1-.1,0-.1-.1v-7.3c.4,.2,.5,.3,.9,.5h2.5v-1.4q0-1-.1-1.3c1,.1,1.2,.2,1.2,.3s-.2,.2-.5,.3v2.1h2.8c.2-.2,.2-.3,.4-.5,.3,.2,.4,.3,.7,.5l.1,.1c0,.1-.1,.1-.4,.3v6.2h0q0,.1-.1,.2c-.1,0-.4,.1-.5,.1s-.2,0-.2-.2v-.4h-6.1Zm2.7-6h-2.7v2.6h2.7v-2.6Zm0,2.9h-2.7v2.9h2.7v-2.9Zm3.5-2.9h-2.9v2.6h2.9v-2.6Zm0,2.9h-2.9v2.9h2.9v-2.9Z" fill="#42210b"/></g></g></g></svg>