<?xml version="1.0" encoding="UTF-8"?><svg xmlns="http://www.w3.org/2000/svg" viewBox="0 0 724.68 44.58"><defs><style>.d{fill:#42210b;}</style></defs><g id="a"/><g id="b"><g id="c"><g><g><path class="d" d="M61.19,37.95c1.57,.43,2.16,.68,2.19,.89,.02,.13-.13,.26-.39,.29h-.08c-.11,.02-.29,.05-.53,.08-.99,1.28-1.46,1.82-2.34,2.72,2.66-.35,3.98-.53,6.64-.87,.61-.91,.81-1.2,1.5-2.15,1.28,.72,1.66,.96,2.84,1.78,.12,.09,.15,.14,.16,.22,.01,.11-.08,.2-.21,.22-8.86,1.13-13.29,1.72-22.13,2.93-.98,.13-1.48,.23-2.46,.53-.12-.4-.18-.6-.3-1,1.11,.03,1.72,0,2.7-.13,2.64-.36,3.97-.54,6.61-.9-.16-.19-.19-.24-.31-.52-.41-1.04-.99-1.93-1.75-2.82,.11-.1,.16-.15,.26-.25-.66,.09-.99,.13-1.64,.22,.04,.32,.06,.47,.11,.79,.02,.32-.18,.43-.93,.53-.61,.08-.79,.02-.85-.29-.2-1.09-.14-1.83-.28-2.85-.16-1.21-.3-1.97-.54-3.19,.96,.3,1.24,.39,2.13,.78,4.64-.63,6.96-.94,11.6-1.54,.36-.53,.48-.68,.9-1.19,.72,.36,.93,.47,1.59,.81,.26,.13,.36,.25,.37,.35,.02,.18-.07,.28-.79,.77,.08,.62,.12,.93,.2,1.55,.11,.82,.14,1.1,.32,2.04v.05c.04,.24-.29,.39-.98,.48-.61,.08-.69,.06-.73-.2l-.07-.5c-1.12,.15-1.69,.22-2.81,.37Zm-15.72-4.79c.54,0,1.67-.04,2.12-.1,7.03-.97,10.55-1.43,17.59-2.34,.57-.85,.72-1.08,1.35-1.91,1.14,.71,1.47,.91,2.53,1.63,.09,.07,.13,.15,.13,.17,.02,.13-.11,.23-.29,.25-8.49,1.09-12.74,1.65-21.23,2.81-.96,.13-1.24,.2-1.97,.43-.09-.37-.14-.56-.24-.93Zm6.79-10.48c-.12-.87-.23-1.33-.48-2.18,1.97-.1,2.79-.05,2.83,.21,.02,.16-.13,.28-.89,.63,.09,.69,.14,1.04,.23,1.74,1.51-.2,2.27-.3,3.79-.5l-.09-.71c-.1-.74-.18-1.18-.41-2.09,2.11-.06,2.69,0,2.72,.26,.02,.16-.2,.32-.85,.57,.09,.7,.14,1.06,.23,1.76,1.44-.19,2.16-.28,3.6-.47,.4-.51,.51-.65,.91-1.16,.7,.36,.91,.5,1.52,.85,.26,.13,.36,.25,.37,.38,.02,.16-.59,.39-.73,.68-.73,1.59,.51,3.95,.88,6.44v.05c.03,.21-.02,.28-.14,.34-.09,.04-.81,.21-1.02,.24-.37,.05-.54,0-.57-.22v-.05c-.03-.17-.04-.25-.06-.42-5.78,.75-8.67,1.13-14.44,1.92,.05,.37,.08,.55,.13,.92,.04,.32-.09,.4-.98,.53-.08,.01-.16,.02-.24,.03h-.11c-.32,.06-.49-.02-.53-.31v-.08c-.19-1.9-.29-2.85-.46-4.06-.27-1.95-.58-3.8-.79-4.95,.94,.3,1.22,.39,2.09,.76,1.43-.19,2.14-.29,3.57-.48-.03-.24-.05-.36-.08-.6Zm.16,1.21c-1.46,.2-2.19,.3-3.65,.49,.14,1.02,.21,1.53,.35,2.55,1.46-.2,2.19-.3,3.65-.49-.14-1.02-.21-1.53-.34-2.55Zm-3.22,3.65c.15,1.11,.23,1.67,.38,2.79,1.46-.2,2.19-.3,3.64-.49-.15-1.11-.23-1.67-.38-2.79-1.46,.2-2.19,.3-3.65,.49Zm2.66,11.04c4.82-.65,7.23-.97,12.06-1.6-.16-1.2-.23-1.8-.39-3-4.83,.63-7.25,.95-12.07,1.61,.16,1.2,.24,1.8,.41,3Zm1.72,.38c1.73,.65,2.71,1.35,2.8,1.98,.07,.5-.12,1.09-.52,1.54,1.43-.19,2.14-.29,3.57-.48,.61-1.5,1.08-3.03,1.2-3.98-2.82,.37-4.23,.56-7.05,.94Zm4.56-13.24c-.13-1.02-.2-1.53-.34-2.55-1.51,.2-2.27,.3-3.79,.5,.14,1.02,.2,1.53,.34,2.55,1.51-.2,2.27-.3,3.78-.5Zm-3.33,3.89c1.51-.2,2.27-.3,3.78-.5-.15-1.11-.22-1.67-.37-2.79-1.51,.2-2.27,.3-3.78,.5,.15,1.11,.22,1.67,.37,2.79Zm8.76-4.61c-.13-1.02-.2-1.53-.33-2.55-1.54,.2-2.3,.3-3.84,.5,.13,1.02,.2,1.53,.34,2.55,1.53-.2,2.3-.3,3.84-.5Zm-3.39,3.89c1.53-.2,2.3-.3,3.83-.5-.14-1.12-.22-1.67-.36-2.79-1.53,.2-2.3,.3-3.84,.5,.15,1.12,.22,1.67,.37,2.79Z"/><path class="d" d="M84.16,19.22c-.06-.54-.1-.81-.16-1.34-.1-.87-.16-1.13-.29-1.73,2.98-.04,3.14-.03,3.18,.29q.03,.24-1.11,.72c.09,.74,.13,1.11,.22,1.84,3.19-.38,4.79-.57,7.99-.94,.44-.66,.57-.89,1.01-1.56,1.13,.67,1.48,.9,2.6,1.62,.18,.14,.24,.21,.25,.26,0,.05-.07,.16-.14,.2-.06,.04-.32,.13-.68,.21-.31,.07-.55,.14-.76,.19-.6,.68-.79,.87-1.69,1.75-.12-.07-.18-.11-.29-.18,.17-.87,.21-1.23,.23-1.95-7.26,.84-10.9,1.28-18.16,2.18,.03,1.33-.13,2.26-.58,3.2-.28,.6-.73,1.08-1.02,1.12-.24,.03-.45-.11-.71-.47-.26-.37-.44-.72-.47-.93-.05-.37,0-.45,.77-1.22,.36-.37,.81-1.17,1.01-1.86,.17-.58,.25-1.07,.31-2.1,.18-.02,.27-.03,.45-.06,.05,.42,.1,.84,.12,.95q.05,.39,.07,.77c3.14-.39,4.71-.58,7.85-.96Zm10.04,11.1c.32-.52,.41-.69,.77-1.24,.91,.4,1.19,.5,2.05,.91,.17,.11,.24,.21,.25,.29,.02,.18-.68,.43-.88,.96-1.1,2.82,.98,5.97,.96,7.61,0,.16-.1,.32-.2,.37-.16,.08-.78,.22-1.23,.28-.21,.02-.33-.04-.4-.25-.06-.53-.09-.79-.15-1.32-6.13,.72-9.2,1.08-15.33,1.84,.06,.46,.09,.69,.14,1.16q-.07,.3-1.51,.59c-.26,.03-.38-.03-.44-.27-.1-1.48-.15-2.07-.35-3.65-.36-2.92-.67-5.13-.9-6.36,1.04,.3,1.35,.42,2.35,.86,5.95-.73,8.92-1.09,14.88-1.79Zm-17.42-7.39c.74,.07,1.55,.08,2.03,.02,4.97-.61,7.46-.91,12.43-1.5,.43-.69,.57-.9,1.03-1.59,.99,.58,1.31,.78,2.36,1.46,.09,.07,.13,.14,.13,.17,0,.08-.06,.17-.12,.17-6.29,.73-9.44,1.11-15.73,1.88-.83,.1-1.12,.17-1.82,.36-.12-.39-.19-.59-.31-.98Zm9.38,11.84c-.14-1.14-.21-1.71-.34-2.84-2.67,.32-4,.48-6.67,.81,.14,1.14,.21,1.71,.35,2.84,2.66-.33,3.99-.49,6.66-.81Zm-6.21,4.39c2.66-.33,3.99-.49,6.65-.81-.14-1.19-.22-1.79-.36-2.98-2.66,.32-3.99,.48-6.66,.81,.15,1.19,.22,1.79,.37,2.98Zm11.4-14.95c.24-.48,.3-.62,.63-1.12,.8,.39,1.03,.52,1.76,.97,.21,.19,.24,.21,.25,.29,.01,.1-.3,.41-.78,.73l.2,1.71c.12,1.03,.25,1.35,.29,2.02,.02,.26-.12,.36-.68,.43l-.13,.02c-.08,0-.29,.03-.61,.1h-.05c-.19,.03-.27-.04-.3-.23l-.08-.68c-4.29,.5-6.43,.76-10.72,1.29l.08,.68c-.05,.27-.25,.38-1.02,.47-.56,.07-.71,.03-.75-.18-.2-.95-.15-1.64-.3-2.88-.2-1.61-.27-2.21-.44-3.15,.92,.26,1.21,.39,2.07,.79,4.23-.52,6.35-.77,10.58-1.27Zm-10.29,4.92c4.29-.52,6.43-.78,10.72-1.29-.14-1.21-.21-1.82-.36-3.03-4.29,.51-6.44,.76-10.73,1.29,.15,1.21,.22,1.82,.37,3.03Zm13.47,1.76c-2.81,.33-4.21,.49-7.01,.83,.14,1.14,.2,1.71,.34,2.84,2.8-.34,4.2-.5,7-.83-.13-1.14-.2-1.71-.33-2.85Zm-6.6,4.28c.14,1.19,.21,1.79,.36,2.98,2.8-.33,4.2-.5,6.99-.83-.14-1.19-.21-1.79-.35-2.98-2.8,.33-4.2,.49-7,.83Z"/><path class="d" d="M103.78,19.61c1.41,1.04,2.2,1.3,3.53,1.16,.69-.08,1.4-.26,2.39-.58,.48-1.79,.65-2.93,.55-3.85-.09-.87-.58-1.35-1.93-1.84,.28-.19,.41-.23,.62-.25,.53-.06,1.4,.08,2.21,.37,.95,.34,1.34,.6,1.38,.97,.02,.21-.01,.37-.19,.71-.08,.22-.53,1.36-1.28,3.42,1.9-.9,2.13-1.06,2.81-1.77,.19-.21,.27-.24,.54-.27,1.04-.11,1.85,.15,1.9,.6,.07,.69-1.51,1.52-5.65,2.96-.18,.55-.53,1.69-1.06,3.35-.61,1.89-2.16,6.56-2.35,7.04-.32,.76-.53,1.02-.85,1.06-.45,.05-.91-.73-1.03-1.78-.06-.53-.02-.69,.19-.98,.51-.7,.79-1.13,1.1-1.72,1.09-2.07,1.85-3.97,2.64-6.57-.58,.14-.82,.2-1.24,.24-.96,.11-1.7,.02-2.41-.29-.83-.37-1.53-.92-2.16-1.71,.12-.1,.18-.15,.3-.25Zm14.28-.06c1.86-.04,3.41,.3,4.72,.97,1.09,.56,1.83,1.28,1.89,1.88,.05,.45-.19,.79-.61,.84-.21,.02-.38-.01-.64-.15-.79-.37-1.31-.43-2.67-.28-2.13,.22-2.74,.88-2.54,2.7,.08,.71,.13,3.66,1.01,4.48,.57,.53,3.12,.8,3.95,1.32,.77,.48,1.19,1.13,1.28,1.98,.05,.53-.12,.92-.44,.95-.27,.03-.38-.04-1-.59-1.06-.93-2-1.47-3.46-1.98l.05,.5c.11,1.06-.03,1.71-.5,2.32-.61,.78-1.84,1.34-3.32,1.5-2.39,.26-4.15-.7-4.33-2.36-.2-1.85,1.68-3.36,4.62-3.68,.61-.07,.91-.07,1.61-.04-.3-2.07-.32-2.29-.36-2.6-.23-2.16-.1-3,.53-3.87,.47-.61,1.18-1.06,2.4-1.51,.39-.15,.44-.18,1.4-.49-.8-.69-1.67-1.03-3.63-1.46,.01-.17,.02-.26,.03-.43Zm-.21,11.71c-.85-.15-1.47-.16-2.32-.07-2.26,.24-3.56,1.16-3.42,2.4,.11,.98,1.18,1.45,2.82,1.27,2.15-.23,3.17-1.22,2.99-2.88l-.08-.71Z"/><path class="d" d="M134.61,23.24c-2.17,.67-2.71,.63-2.95,.91-.23,.26-.22,.98-.44,1-.08,0-.19-.06-.26-.21q-.13-.2-.64-2.12c.21-.02,.4-.04,.51-.05,.29-.03,1.57,.05,2.07-.29,.15-.1,.16-.28,.46-.79,1.5-2.47,3-5.65,3.64-7.66,2.28,.66,2.47,.75,2.5,.99,.02,.24-.29,.35-1.04,.42-.04,0-.06,0-.11,.01-1.66,2.91-2.95,4.85-4.63,6.91,2.12-.34,2.73-.46,4.44-.86-.44-.94-.6-1.22-1.11-2.03,.1-.07,.15-.11,.25-.18,.73,.59,1.09,.93,1.77,1.61,.89,.89,1.24,1.43,1.28,1.87,.07,.69-.41,1.64-.83,1.68-.16,.02-.28-.11-.36-.42-.24-.8-.31-1.01-.77-2.08-.9,.38-1.04,.42-2.18,.8,.21,2.1,.31,3.15,.52,5.25,.22,2.27,.28,2.61,.7,6.62,.04,.34-.2,.45-1.36,.56-.27,.03-.38-.05-.41-.33-.12-1.48-.45-5.58-.55-6.69-.19-1.96-.29-2.95-.49-4.91Zm-3.17,10.74c.46-3.41,.65-6.38,.47-8.45q2.56,.28,2.58,.57c.02,.21-.21,.37-.91,.6-.41,3.19-.83,4.88-1.84,7.36-.12-.03-.18-.05-.3-.08Zm3.55-21.68c-1.09,2.08-1.37,2.53-2.65,4.1,1.07,.72,1.46,1.14,1.51,1.64,.05,.5-.37,1.42-.66,1.45-.16,.02-.34-.15-.57-.56-.76-1.39-1.28-2.03-2.86-3.53,.08-.11,.11-.17,.19-.29,.94,.44,1.27,.59,1.93,.98,.84-2.11,1.27-3.57,1.51-5.16,.58,.13,1.02,.22,1.33,.3,1.08,.24,1.42,.4,1.44,.58,.03,.26-.31,.4-1.11,.48h-.05Zm2.58,12.58c.82,.69,1.57,1.53,2.34,2.54,.43,.55,.66,1,.69,1.35,.07,.71-.42,1.72-.88,1.76-.27,.03-.33-.11-.62-1.11-.38-1.31-1.03-2.83-1.85-4.35l.3-.19Zm10.36,7.35c1.53-.14,2.29-.21,3.82-.35,.64-.94,.85-1.22,1.5-2.08,1.17,.82,1.52,1.09,2.62,1.97,.06,.07,.09,.15,.1,.2,0,.08-.09,.14-.23,.15-5.79,.52-8.68,.79-14.46,1.35-1.09,.1-1.25,.12-2.27,.38-.11-.38-.17-.58-.28-.96,.89,.1,1.21,.1,2.49-.03,2-.19,2.99-.29,4.99-.48-.23-2.42-.34-3.63-.57-6.05-1.14,.11-1.71,.16-2.85,.27-.8,.08-1.19,.14-1.92,.37-.1-.38-.15-.58-.25-.96,.79,.09,1.11,.08,2.12-.02,1.14-.11,1.71-.16,2.85-.27-.07-.77-.11-1.16-.18-1.93-.1-1.06-.16-1.45-.35-2.31,2.93,0,3.01,.01,3.04,.25,.02,.21-.31,.43-1.06,.76,.11,1.23,.17,1.84,.29,3.06,1.16-.11,1.74-.16,2.9-.27,.59-.85,.78-1.11,1.38-1.91,1.11,.72,1.46,.96,2.55,1.77,.09,.07,.12,.15,.13,.23s-.09,.17-.25,.18c-2.66,.24-3.99,.36-6.65,.61,.23,2.42,.34,3.63,.57,6.05Zm1.15-20.89c.46-.63,.6-.83,1.08-1.43,.8,.51,1.04,.68,1.78,1.2,.23,.17,.32,.27,.33,.37,.02,.26-.33,.48-1.09,.77-1.39,2.76-2.32,4.13-3.89,5.77,.79,.38,1.46,.64,2.4,.95,2.02,.64,3.12,.83,5.38,.92l.03,.37c-1.01,.41-1.28,.7-1.64,1.77-3.16-.75-5.01-1.54-7.19-3.04-1.89,1.67-3.23,2.57-5.33,3.65-.1-.14-.15-.21-.25-.35,1.89-1.38,3.15-2.51,4.57-4.06-2.1-1.7-3.37-3.39-4.25-5.52-.1,0-.14,.01-.24,.02-.56,.05-1.2,.17-1.83,.34-.13-.43-.19-.64-.32-1.06,1.04,.17,1.5,.18,2.23,.11,3.29-.31,4.93-.47,8.22-.77Zm-7.55,1.32c.9,1.78,2.39,3.32,4.51,4.66,1.33-1.62,2.17-3.03,3.22-5.39-3.09,.28-4.64,.43-7.74,.73Z"/><path class="d" d="M161.48,24.05c.1,.55,.11,.6,.14,1.03,.12,1.43,.05,2.76-.16,3.64-.19,.79-.63,1.41-1.02,1.45-.19,.02-.3-.13-.44-.41-.11-.22-.26-.8-.28-1.1-.03-.37,.01-.48,.43-.94,.7-.83,.95-1.73,.97-3.63,.15-.01,.22-.02,.37-.03Zm5-10.66c.41-.59,.53-.76,.97-1.28,.77,.52,1.03,.71,1.83,1.28,.09,.07,.15,.15,.15,.2,0,.08-.12,.17-.28,.18-1.31,.11-1.96,.16-3.26,.27,.11,1.28,.16,1.92,.27,3.2l.59-.05c.43-.6,.55-.79,.99-1.39,.83,.57,1.09,.76,1.89,1.38,.06,.08,.12,.18,.13,.23,0,.11-.07,.14-.31,.16-1.29,.11-1.94,.16-3.23,.27l.3,3.57c.48-.04,.72-.06,1.2-.1,.41-.52,.56-.69,.92-1.17,.65,.42,.82,.54,1.43,1,.23,.19,.29,.27,.3,.35,.01,.13-.5,.31-.65,.59-.69,1.3,.07,3.65-.04,5.25-.15,2.24-.33,2.9-.93,3.56-.46,.51-1.01,.75-2.32,1-.2-1.13-.71-1.41-2.81-1.6l-.03-.4c.27,0,.51,0,.64,0,1.1,.04,2.6,.04,2.89,.02,.53-.05,.74-.47,.89-1.81,.2-1.82,.19-2.52,.01-6.21-2.15,.18-3.23,.27-5.38,.46l.05,.53c-.01,.19-.04,.29-.16,.33-.12,.05-.69,.14-1.06,.17-.27,.02-.4-.06-.43-.31-.23-1.94-.28-4.42-.74-9.66q-.17-1.93-.5-4.54c.87,.38,1.13,.54,1.96,1.08,1.79-.16,2.68-.23,4.47-.38,.51-.71,.65-.91,1.16-1.56,.97,.61,1.26,.83,2.2,1.47,.11,.07,.17,.15,.18,.2,0,.11-.12,.22-.22,.23-1.59,.13-2.38,.2-3.97,.33,.11,1.27,.16,1.9,.27,3.17,.26-.02,.39-.03,.64-.05Zm-3.79,10.66c.8,1.16,1.35,2.31,1.4,2.89,.03,.4-.02,.7-.21,1.03-.22,.39-.53,.66-.74,.68-.13,.01-.22-.09-.24-.27,0-.11,0-.3-.02-.5,0-.23,0-.56-.03-.96-.1-1.11-.19-1.61-.45-2.73l.28-.13Zm1.35-13.64c-.97,.08-1.46,.13-2.44,.21,.11,1.27,.16,1.9,.27,3.17,.97-.08,1.46-.13,2.43-.21-.11-1.27-.16-1.9-.27-3.17Zm-2.11,3.99c.11,1.28,.17,1.92,.28,3.2,.97-.08,1.46-.13,2.43-.21-.11-1.28-.16-1.92-.27-3.2-.97,.08-1.46,.13-2.43,.21Zm.33,3.81c.12,1.43,.19,2.14,.31,3.57,.97-.08,1.46-.13,2.43-.21-.12-1.43-.18-2.14-.31-3.57-.97,.08-1.46,.12-2.43,.21Zm1.86,5.33c1.13,.97,2.07,2.22,2.12,2.85,.05,.53-.35,1.26-.69,1.28-.16,.01-.25-.11-.3-.37-.37-1.54-.76-2.57-1.38-3.61,.1-.06,.15-.09,.25-.15Zm1.47-.69c1.15,.57,1.99,1.38,2.04,1.93,.04,.45-.3,1.14-.57,1.17-.11,0-.17-.09-.27-.32-.23-.78-.8-1.85-1.4-2.57,.08-.08,.12-.12,.2-.2Zm11.41,.81c-.29,1.75-.86,3.01-1.88,4.22-.87,1.03-2,2.03-3.24,2.85-.66,.43-1.25,.72-2.49,1.25-.11-.16-.16-.24-.27-.4,2.37-1.4,3.66-2.57,4.9-4.48,.76-1.13,1.12-1.98,1.39-3.31-1.09,.09-1.63,.13-2.72,.22l.05,.66c.02,.26-.03,.34-.18,.39-.2,.06-.76,.17-1.08,.2-.24,.02-.33-.05-.37-.31,0-1.38-.04-1.83-.2-3.71-.21-2.48-.22-2.7-.42-3.72,.84,.36,1.09,.47,1.88,.91,1.27-.1,1.91-.16,3.18-.26l-.1-1.19c-.05-.59-.07-.89-.12-1.48-.68,.06-1.03,.08-1.71,.14-.8,.07-1.28,.16-1.99,.38-.11-.42-.16-.63-.27-1.04,.74,.13,1.28,.13,2.21,.06,1.59-.13,2.39-.19,3.98-.32,.51-.73,.65-.96,1.18-1.69,.94,.7,1.23,.91,2.12,1.64,.12,.1,.18,.2,.18,.25,0,.11-.07,.14-.28,.16-1.53,.12-2.29,.18-3.82,.3q.14,2.09,.19,2.67c1.27-.1,1.91-.15,3.18-.25,.29-.4,.58-.79,.88-1.16,.7,.42,.93,.57,1.58,.99,.2,.15,.26,.22,.27,.33,.01,.16-.24,.36-.8,.7,.09,1.18,.14,1.78,.23,2.96,.07,.87,.15,1.27,.22,2.14,.03,.42,0,.45-1.42,.67-.19-.01-.28-.11-.32-.35l-.06-.71c-1.3,.1-1.95,.15-3.25,.26,.64,1.31,1.05,1.78,1.93,2.43,1.59,1.15,3.23,1.66,6.17,1.89l.03,.37c-.91,.39-1.34,.93-1.56,1.9-2.66-.83-3.81-1.57-5.23-3.29-.89-1.05-1.23-1.71-1.84-3.26h-.11Zm-8.02-7.45c2.06-2.09,3.17-3.59,4.39-5.85,.75-1.42,1.09-2.24,1.24-3.06,.52,.09,.93,.14,1.17,.17,1.36,.18,1.67,.29,1.69,.56,.02,.21-.14,.28-1.06,.54,1.31,1.54,2.12,2.19,3.68,2.95,1.41,.69,2.5,1,4.46,1.3l.02,.29c-.72,.46-.98,.85-1.3,1.96-1.78-.82-2.71-1.36-3.87-2.33-1.04-.88-1.8-1.69-3.37-3.7-.97,1.65-1.55,2.47-2.74,3.82-1.33,1.52-2.28,2.37-4.03,3.63-.12-.12-.18-.18-.29-.29Zm6.54,6.97c.14-1.26,.17-2.17,.05-4.39-1.31,.11-1.97,.16-3.28,.27,.14,1.74,.22,2.62,.36,4.36,1.15-.09,1.73-.14,2.88-.24Zm5.3-.42c-.14-1.75-.21-2.62-.34-4.36-1.33,.1-2,.16-3.34,.27,.09,2.44,.1,3.24-.05,4.4,1.49-.12,2.24-.18,3.73-.3Z"/><path class="d" d="M189.72,12.47c.4,.31,.7,.4,1.24,.36,.75-.06,1.4-.24,7.33-2.1,.95-.31,2.46-.75,4.27-1.23,1.84-.49,2.78-.82,3.56-1.12,.52-.2,.71-.26,.92-.28,.32-.02,.93,.18,1.48,.46,.56,.28,.82,.61,.84,.95,.03,.4-.28,.68-.79,.72-.13,0-.3,.02-.51,0-.32-.02-.46-.02-.75,0-4.58,.3-8.69,4.93-8.37,9.46,.17,2.35,1.55,4.12,3.9,4.91,.9,.31,1.94,.49,2.73,.45,.52-.03,.75,.03,1.15,.35,.54,.44,.86,.9,.88,1.22,.03,.43-.35,.77-.91,.81-1.54,.1-3.99-.58-5.56-1.53-2.12-1.29-3.33-3.27-3.51-5.71-.15-2.14,.74-4.6,2.45-6.67,.99-1.24,1.98-2.03,4.15-3.34-3.29,.62-9.29,2.86-11.71,4.39-.51,.36-.7,.43-1.04,.45-.64,.05-1.49-.5-2.18-1.41-.47-.6-.8-1.3-.83-1.72-.02-.21,.03-.37,.24-.74,.29,.64,.54,.97,.99,1.31Zm16.06,1.25c1.03,.49,1.78,.94,2.49,1.48,1.02,.81,1.43,1.39,1.48,2.03,.04,.64-.3,1.14-.75,1.17q-.35,.02-1.29-1.64c-.54-.89-1.48-2-2.25-2.67l.32-.37Zm2.65-1.72c.99,.36,1.81,.78,2.67,1.34,1.06,.69,1.45,1.24,1.5,1.95,.04,.64-.2,1.1-.6,1.13-.24,.02-.41-.11-.65-.46-1.04-1.61-1.6-2.26-3.19-3.56,.11-.16,.16-.23,.27-.39Z"/><path class="d" d="M221.91,11.33c.52-.75,.67-.97,1.16-1.67,.93,.72,1.19,.97,2.07,1.76,.06,.08,.09,.13,.09,.18,0,.11-.07,.14-.31,.15-1.53,.09-2.3,.14-3.83,.23,.2,3.25,.3,4.88,.5,8.13,1.46-.65,1.98-.89,3.44-1.59,.08,.13,.12,.2,.21,.33-1.63,1.32-2.59,1.96-6.84,4.54-.02,.98-.13,1.31-.4,1.33-.24,.02-.48-.4-1.42-2.62,1.18-.37,1.86-.62,3.29-1.24-.22-3.51-.32-5.26-.54-8.76-.63,.04-.95,.06-1.58,.1-.75,.05-1.17,.13-1.65,.26-.08-.4-.12-.6-.2-1,.6,.12,1.35,.15,1.81,.12,.63-.04,.95-.06,1.58-.1l-.23-3.73c-.08-1.32-.14-1.85-.27-3.04,3,.19,3.17,.23,3.18,.52,.01,.24-.19,.36-1.25,.74,.13,2.16,.2,3.24,.33,5.4,.34-.02,.51-.03,.86-.05Zm15.03,3.33c.65-.83,.85-1.08,1.48-1.86,1.11,.79,1.45,1.04,2.51,1.89,.06,.08,.12,.15,.12,.21,0,.11-.1,.16-.29,.17-6.09,.32-9.14,.49-15.22,.85-1.02,.06-1.57,.15-2.13,.29-.09-.39-.13-.58-.22-.97,.68,.09,1.51,.12,2.31,.08,2.89-.17,4.33-.25,7.21-.42,1.11-2.67,1.62-4.23,1.94-6.17,2.62,.78,3.06,.95,3.08,1.21,.01,.27-.22,.36-1.37,.53-1.11,1.84-1.85,2.94-3,4.39,1.43-.08,2.15-.12,3.58-.2Zm-1.29-7.02c.57-.8,.75-1.03,1.33-1.75,1.14,.74,1.48,.98,2.49,1.81,.09,.1,.12,.15,.12,.21,0,.08-.07,.14-.23,.15-5.37,.28-8.06,.44-13.42,.75-.59,.03-1.26,.13-1.87,.27-.07-.4-.1-.6-.17-1,.63,.12,1.3,.16,2,.12,1.76-.1,2.64-.15,4.4-.25-.05-.82-.07-1.22-.12-2.04q-.09-1.54-.18-2.28c2.43,.08,3.03,.18,3.04,.49,.01,.21-.09,.3-1.17,.7,.07,1.21,.1,1.81,.17,3.02,1.45-.08,2.17-.12,3.62-.2Zm-.17,10.69c.4-.45,.76-.84,1.08-1.23,.67,.42,.86,.56,1.53,1.06,.22,.17,.31,.28,.31,.35,0,.08-.04,.16-.12,.25-.08,.03-.16,.09-.26,.17-.08,.03-.3,.14-.34,.23-.24,.56,.08,1.91,.11,2.44,.06,1.14,.07,1.32,.36,5.19,.01,.24-.04,.33-.22,.39-.12,.04-.93,.13-1.22,.14-.24,.01-.35-.06-.39-.24-.03-.6-.05-.91-.08-1.51-3.22,.18-4.84,.27-8.06,.46,.03,.55,.05,.83,.08,1.38,.02,.34-.19,.44-1.12,.49-.53,.03-.67-.01-.68-.25-.03-1.89-.08-3.1-.31-7.02-.05-.87-.14-1.9-.29-3.04,.99,.47,1.29,.61,2.24,1.17,2.94-.17,4.42-.25,7.36-.42Zm-8.96-9.03c2,1.53,2.98,2.67,3.02,3.47,.02,.4-.23,1.21-.47,1.59-.17,.25-.35,.39-.54,.4-.29,.02-.36-.14-.6-1.06-.29-1.12-.66-2.09-1.72-4.2,.12-.08,.19-.12,.31-.2Zm1.64,16.11c3.22-.19,4.84-.28,8.06-.46-.13-2.42-.2-3.62-.33-6.04-3.23,.18-4.85,.27-8.08,.46,.14,2.42,.21,3.62,.35,6.04Z"/><path class="d" d="M254.37,23.64c3.29-.84,5.44-1.91,7.23-3.54,1.38-1.26,2.12-2.8,2.06-4.39-.1-2.31-1.77-3.78-4.15-3.67-2.59,.12-5.98,1.65-8.71,4.02-.49,.4-.72,.54-1.04,.56-.99,.05-2.68-1.78-2.75-3,0-.13,.04-.27,.16-.54,.47,.93,1.09,1.41,1.73,1.38,.35-.02,.98-.26,2.32-.86,2.36-1.07,4.5-1.83,6.01-2.17,.64-.14,1.22-.22,2.08-.25,3.5-.16,6.06,1.86,6.18,4.88,.08,1.88-.97,3.86-2.67,5.11-2.07,1.51-4.38,2.34-8.32,2.98-.05-.2-.08-.3-.13-.5Z"/><path class="d" d="M272.57,8.05c1.14,1.07,1.85,1.39,3,1.35,1.04-.04,2.16-.24,3.38-.63,.47-1.74,.78-3.61,.75-4.51-.03-.82-.44-1.15-1.97-1.6,.34-.2,.47-.26,.82-.27,.62-.02,1.52,.15,2.33,.42,.8,.27,1.23,.62,1.24,1.02,0,.19,0,.19-.3,.65-.33,.51-.87,1.94-1.48,3.85,1.48-.58,2.43-1.12,3.05-1.72,.42-.41,.52-.47,.73-.48,.35-.01,1,.1,1.43,.24,.3,.1,.44,.25,.44,.46,.01,.45-.4,.81-1.51,1.35-1.18,.57-2.96,1.22-4.63,1.7-.29,.91-.28,.93-1,3.41-.47,1.61-.48,1.61-1.79,5.99-.95,3.19-1.27,3.87-1.83,3.89-.27,.01-.45-.16-.63-.51-.21-.41-.41-1.07-.43-1.52-.02-.42,0-.5,.54-1.32,1.26-1.99,2.21-4.33,3.84-9.65-1.01,.22-1.78,.33-2.56,.36-1.63,.06-2.7-.59-3.76-2.25,.13-.09,.19-.14,.31-.23Zm11,8.76c-.01,.4,0,.72,0,.82,.05,1.51,.81,2.63,2.13,3.14,.73,.29,1.83,.44,2.87,.41,1.09-.03,1.7-.13,2.55-.48,.18-.09,.34-.12,.45-.12,.29,0,.93,.26,1.38,.6,.33,.24,.49,.49,.5,.73,.02,.58-1.01,.91-3.12,.97-2.05,.06-3.77-.17-4.95-.69-1.46-.64-2.33-1.99-2.4-3.77-.02-.58,.02-1.03,.18-1.68,.16,.03,.24,.04,.4,.06Zm.55-4.93c1.89-1.2,4.06-1.91,6.15-1.98,.56-.02,1.26,.15,1.7,.42,.27,.15,.44,.44,.45,.73,.01,.43-.23,.58-1,.64-.98,.07-1.32,.17-2.04,.59-.52,.3-.55,.31-1.44,.95q-.5,.33-.92,.59c-.07-.09-.1-.14-.17-.23q.31-.33,1.24-1.23c.23-.22,.47-.44,1.27-1.29-1.77,.06-3.18,.39-5.08,1.15-.07-.14-.1-.2-.17-.34Z"/><path class="d" d="M318.91,13.64c.6-.68,.81-.92,1.44-1.59,.98,.78,1.25,1.04,2.17,1.85,.05,.05,.08,.13,.08,.16,0,.08-.1,.13-.27,.14-2.27,.04-3.4,.06-5.66,.1,.03,1.42,.04,2.13,.07,3.56,.95-.02,1.42-.03,2.37-.05,.55-.73,.73-.94,1.3-1.64,.98,.8,1.25,1.04,2.19,1.87,.08,.08,.11,.16,.11,.21,0,.05-.08,.11-.21,.11-2.3,.04-3.46,.06-5.76,.11,.03,1.51,.04,2.26,.07,3.77,1.05-.02,1.58-.03,2.64-.05,.65-.83,.86-1.1,1.48-1.94,1.08,.86,1.41,1.12,2.43,2.03,.14,.11,.19,.18,.19,.26,0,.11-.16,.19-.34,.19-4.64,.08-6.96,.12-11.61,.23,.01,.5,.02,.75,.03,1.25-.05,.35-.26,.4-1.19,.43-.45,.01-.61-.04-.64-.22-.17-.91,0-1.14-.1-6.69-.05-2.11-.07-3.17-.12-5.28-.91,1.19-1.41,1.73-2.5,2.87q.08,3.32,.26,6.31c-.02,.21-.07,.32-.2,.35-.24,.08-.74,.15-1.14,.16-.27,0-.37-.07-.38-.31l-.03-1.09c-1.12,.03-1.68,.04-2.8,.07l.06,2.17c-.05,.24-.1,.36-.28,.41-.27,.07-.77,.13-1.09,.13-.21,0-.36-.09-.38-.26-.08-.53-.02-2.71-.09-6.21l-.12-4.64c-.89,1.75-1.35,2.45-2.46,3.89-.13-.1-.2-.15-.33-.26,1.4-2.61,2.16-4.5,2.96-7.46,.54-2.02,.77-3.31,1.01-5.36-.58,.01-.87,.02-1.45,.04-.16,0-.78,.07-1.9,.21-.1-.39-.14-.58-.24-.97,.73,.14,1.35,.17,2.26,.15,1.56-.04,2.34-.06,3.89-.1,.65-.84,.86-1.08,1.51-1.89,1.02,.88,1.32,1.14,2.36,2.07,.06,.08,.08,.13,.08,.18,0,.08-.13,.16-.32,.17-1.73,.04-2.59,.06-4.32,.1-.49,2.83-1.01,4.62-2.07,7.11l.08,.08c1.22-.03,1.83-.05,3.05-.08,.47-.49,.63-.63,1.07-1.11,.63,.46,.82,.59,1.42,1.05,.14,.1,.19,.18,.19,.26,0,.16-.36,.49-.73,.65l.04,1.54c0,.13,.03,1.06,.05,1.91,1.84-2.22,4.26-6.81,5.47-10.42-.98,.02-1.46,.03-2.44,.05-.08,1.17-.23,1.79-.64,2.59-.33,.64-.75,1.03-1.13,1.03-.43,.01-.85-.67-.87-1.47,0-.29,.07-.45,.41-.7,.69-.52,.97-.91,1.3-1.68,.22-.51,.3-.94,.33-1.94,.23,0,.34,0,.56-.01,.04,.45,.04,.66,.05,1.01v.56c1.05-.02,1.57-.03,2.62-.06,.45-1.44,.65-2.29,.78-3.55,2.35,.48,3.08,.68,3.08,.87s-.95,.21-1.36,.58c-.39,.35-.41,1.15-.76,2.06,2.19-.05,3.29-.07,5.48-.11,.5-.59,.66-.78,1.18-1.4,.95,.73,1.23,.93,2.07,1.64,.22,.21,.27,.31,.28,.42,0,.24-.5,.41-1.73,.59-1.19,1.27-1.53,1.59-2.53,2.41l-.24-.15c.62-1.18,.83-1.63,1.23-2.89-2.39,.04-3.59,.07-5.98,.12-1.07,2.65-1.64,3.8-2.57,5.36,1.27-.03,1.91-.04,3.19-.07,.51-1.31,.91-2.83,.99-3.95,2.02,.44,2.59,.61,2.59,.82,0,.21-.34,.35-1.04,.44q-1.22,1.8-1.93,2.67c1.47-.03,2.2-.04,3.67-.07,.6-.75,.78-1,1.39-1.75,.98,.83,1.31,1.09,2.28,1.95,.08,.08,.14,.16,.14,.24s-.08,.13-.16,.14c-2.47,.04-3.71,.07-6.18,.11,.03,1.46,.04,2.2,.07,3.66,.9-.02,1.35-.03,2.24-.04Zm-16.11,6.54c1.12-.03,1.68-.04,2.8-.07-.09-3.69-.14-5.54-.23-9.23-1.12,.03-1.69,.04-2.81,.07,.1,3.69,.14,5.54,.24,9.23Zm12.21-6.47c-.03-1.46-.04-2.2-.07-3.66-1.43,.03-2.15,.04-3.59,.08,.03,1.46,.05,2.2,.08,3.66,1.43-.03,2.15-.05,3.58-.08Zm-3.49,4.24c1.43-.03,2.14-.05,3.57-.08-.03-1.42-.04-2.13-.07-3.56-1.43,.03-2.15,.04-3.58,.08,.03,1.42,.05,2.13,.08,3.56Zm3.59,.53c-1.43,.03-2.14,.04-3.57,.08l.08,3.77c1.43-.03,2.14-.05,3.57-.08-.03-1.51-.05-2.26-.08-3.77Z"/><path class="d" d="M334.81,8.99c-1.87,.66-2.77,1.02-3.46,1.42-.4,.24-.56,.3-.77,.3-.29,0-.83-.34-1.19-.78-.48-.6-.91-1.53-.91-2,0-.13,.05-.32,.15-.59,.58,1.11,1.07,1.44,2.06,1.43,.59,0,3.67-.2,4.54-.99,.68-.61,1.06-3.44,1.05-4.36,0-.82-.52-1.27-2.09-1.75,.32-.22,.48-.27,.8-.27,.4,0,1.08,.12,1.8,.32,1.21,.34,1.89,.8,1.89,1.36,0,.21-.06,.32-.37,.77-.37,.55-.92,1.76-1.68,3.63,1.18-.28,1.68-.34,2.33-.34,2.3-.02,3.41,1.32,3.44,4.11,.03,3.4-1.29,7.81-2.82,9.55-.66,.72-1.69,1.21-2.54,1.22-.45,0-.67-.18-.73-.6-.09-.73-.14-.8-2.99-3.07,.09-.14,.14-.21,.24-.35,2.07,1.14,3.59,1.79,4.15,1.78,.61,0,1.03-.58,1.71-2.25,.89-2.18,1.53-5.13,1.51-7.15-.02-1.78-.5-2.41-1.92-2.4-.8,0-1.29,.12-2.81,.59q-.36,.91-1.51,3.63c-.1,.27-.62,1.52-1.53,3.73-1.03,2.5-1.89,4.43-2.31,5.18-.18,.35-.39,.51-.63,.51-.48,0-.78-.68-.8-1.82,0-.69,.07-.89,.59-1.49,.51-.59,1.2-1.72,1.93-3.16,1-1.95,.99-1.98,2.08-4.43,.31-.69,.47-1.04,.78-1.73Zm10.43-1.8c2.09,.59,3.74,1.65,4.92,3.15,1.02,1.3,1.54,2.57,1.54,3.76,0,.9-.39,1.44-1.06,1.44-.21,0-.35-.03-.61-.18-.43-.24-.59-.26-1.1-.26-.93,0-1.07,0-3.34,.26-.04-.15-.07-.22-.11-.37,2.69-.84,3.25-1.03,4.08-1.38-.11-.9-.36-1.64-.84-2.54-.87-1.61-1.92-2.61-3.69-3.5,.08-.15,.13-.22,.21-.37Z"/><path class="d" d="M357.44,5.17c1.29,1.19,2.04,1.54,3.38,1.54,.7,0,1.42-.11,2.44-.32,.67-1.73,.97-2.84,.97-3.77,0-.88-.43-1.41-1.72-2.04,.29-.16,.43-.19,.64-.19,.54,0,1.38,.24,2.15,.61,.91,.44,1.26,.75,1.26,1.12,0,.21-.05,.37-.27,.69-.11,.21-.67,1.3-1.64,3.26,1.99-.69,2.23-.82,2.98-1.45,.22-.19,.3-.21,.56-.21,1.05,0,1.82,.35,1.82,.8,0,.69-1.67,1.34-5.93,2.32-.24,.53-.71,1.62-1.42,3.21-.81,1.81-2.86,6.29-3.1,6.74-.4,.72-.64,.96-.96,.96-.45,0-.83-.82-.83-1.88,0-.53,.05-.69,.29-.96,.59-.64,.91-1.04,1.28-1.59,1.31-1.94,2.27-3.74,3.34-6.24-.59,.08-.83,.11-1.26,.11-.96,0-1.69-.17-2.36-.55-.79-.45-1.42-1.09-1.96-1.93,.13-.09,.19-.13,.32-.21Zm14.18,1.5c1.85,.17,3.35,.68,4.57,1.48,1.02,.67,1.68,1.47,1.67,2.08,0,.45-.27,.77-.7,.77-.21,0-.37-.06-.61-.21-.75-.46-1.26-.57-2.62-.57-2.14-.01-2.81,.57-2.82,2.4,0,.72-.27,3.66,.52,4.56,.51,.59,3.01,1.14,3.78,1.74,.71,.56,1.06,1.25,1.05,2.1,0,.53-.22,.9-.54,.9-.27,0-.37-.08-.93-.7-.95-1.04-1.83-1.68-3.21-2.35,0,.21,0,.4,0,.5,0,1.06-.22,1.7-.75,2.25-.69,.71-1.97,1.13-3.47,1.13-2.4,0-4.05-1.14-4.04-2.82,0-1.86,2.03-3.16,4.99-3.15,.61,0,.91,.03,1.6,.14-.07-2.09-.07-2.31-.07-2.63,0-2.17,.22-3,.95-3.79,.54-.55,1.29-.92,2.55-1.24,.4-.1,.46-.13,1.45-.34-.72-.77-1.55-1.2-3.45-1.85,.03-.17,.05-.26,.08-.43Zm-1.49,11.62c-.83-.24-1.44-.32-2.29-.33-2.27,0-3.66,.76-3.66,2.01,0,.98,1.01,1.57,2.66,1.57,2.16,0,3.28-.87,3.28-2.54,0-.29,0-.43,0-.72Z"/><path class="d" d="M384.46,21.4c3.33-2.44,6.38-5.78,9.03-9.93,2.12-3.31,3.32-5.82,3.34-7.01,.01-.8-.38-1.36-1.45-2.09,.22-.08,.35-.1,.59-.1,.51,0,1.62,.55,2.53,1.26,.79,.61,1.19,1.13,1.18,1.56,0,.32-.1,.45-.47,.82-.38,.38-.68,.81-1.26,1.81-3.91,6.79-8.26,11.45-13.24,14.08-.1-.16-.16-.24-.26-.4Z"/><path class="d" d="M413.22,23.08c2.14-1.44,3.59-2.73,5.06-4.55,1.6-1.97,2.74-3.94,3.88-6.7,.74-1.78,1.07-3,1.27-4.5-.43-.04-.54-.04-.86-.05-2.41-.06-6.18,.32-9.35,.94-.22,.05-.38,.07-.48,.07-.32,0-.67-.15-1.36-.51,.1,.29,.11,.33,.11,1.2,0,1.87-.02,3.69-.03,3.82-.02,.98-.22,1.43-.65,1.42-.59-.01-1.49-1.41-1.48-2.26,0-.19,.05-.3,.2-.61,.18-.37,.26-1,.28-1.93,.04-2.04-.4-2.9-1.88-3.78,.22-.1,.32-.13,.54-.12,.75,.01,1.15,.23,2.78,1.57,.67,.01,.78,0,2.66-.24,1.07-.13,1.43-.15,2.29-.24,.04-.42,.04-.61,.05-1.19,.04-1.64-.04-2.37-.28-2.82-.24-.44-.44-.59-1.43-.99,.22-.18,.41-.26,.68-.25,1.56,.04,3.53,.91,3.51,1.57,0,.16-.06,.26-.26,.6-.39,.63-.57,1.47-.66,2.93,4.65-.29,5.11-.32,5.51-.52,.22-.1,.35-.15,.49-.15,.27,0,.7,.26,1.29,.75,.76,.64,1.02,1.01,1.01,1.38,0,.27-.04,.33-.34,.63-.24,.23-.42,.6-.82,1.57-1.03,2.52-1.71,3.93-2.71,5.48-1.86,2.9-3.54,4.69-5.94,6.27-1.19,.8-1.87,1.18-2.86,1.58-.09-.15-.14-.23-.23-.38Z"/><path class="d" d="M430.64,18.83c2.7-1.99,5.08-4.52,6.8-7.17,.87-1.38,1.16-2,1.18-2.59,.01-.42-.32-.83-1.29-1.56,.3-.07,.43-.09,.59-.09,.48,.02,1.41,.43,2.17,.97,.9,.65,1.28,1.05,1.26,1.48,0,.21-.09,.37-.34,.57-.52,.41-.55,.41-1.16,1.18-2.35,2.84-3.5,4-5.82,5.62-1.2,.87-1.96,1.32-3.18,1.87l-.2-.3Zm14.71-11.2c2.75,1.77,5.21,4.09,6.81,6.44,.78,1.17,1.05,1.93,1.01,2.88-.04,1.09-.5,1.92-1.09,1.9-.37-.01-.47-.18-.83-1.25-1.17-3.6-3.19-6.73-6.2-9.63,.12-.13,.18-.2,.31-.33Z"/><path class="d" d="M465.28,24.81c2.17-1.39,3.65-2.65,5.17-4.44,1.64-1.93,2.83-3.88,4.03-6.61,.78-1.77,1.14-2.97,1.37-4.47-.43-.05-.53-.05-.86-.07-2.41-.12-6.18,.18-9.37,.73-.22,.05-.38,.06-.48,.06-.32-.01-.66-.16-1.34-.54,.09,.3,.1,.33,.08,1.2-.04,1.87-.11,3.69-.11,3.82-.04,.98-.25,1.42-.68,1.4-.59-.03-1.46-1.44-1.43-2.29,0-.19,.06-.3,.21-.6,.19-.37,.28-1,.32-1.92,.09-2.04-.33-2.91-1.8-3.82,.22-.1,.33-.12,.54-.11,.75,.03,1.14,.26,2.75,1.63,.67,.03,.78,.01,2.66-.18,1.08-.11,1.43-.12,2.29-.19,.05-.42,.05-.61,.08-1.19,.08-1.64,.01-2.37-.22-2.82-.23-.45-.43-.6-1.41-1.02,.22-.18,.42-.25,.68-.24,1.56,.07,3.51,.99,3.47,1.65,0,.16-.07,.26-.27,.6-.41,.62-.61,1.46-.73,2.91,4.65-.18,5.11-.21,5.52-.4,.22-.1,.36-.14,.49-.14,.27,.01,.7,.27,1.28,.78,.74,.66,1,1.03,.98,1.4-.01,.27-.04,.33-.35,.62-.24,.23-.43,.59-.86,1.55-1.09,2.5-1.8,3.89-2.84,5.41-1.93,2.85-3.64,4.61-6.09,6.14-1.21,.77-1.89,1.14-2.89,1.52-.09-.15-.13-.23-.22-.38Z"/><path class="d" d="M485.85,9.33c.36,.35,.65,.49,1.18,.52,.75,.04,1.42-.06,7.53-1.15,.98-.18,2.54-.43,4.4-.68,1.89-.25,2.86-.46,3.67-.66,.54-.13,.74-.17,.95-.16,.32,.02,.9,.29,1.41,.64,.52,.35,.74,.71,.71,1.05-.02,.4-.36,.64-.87,.61-.13,0-.3-.01-.51-.06-.31-.07-.45-.08-.75-.1-4.58-.28-9.25,3.79-9.51,8.32-.13,2.36,1.01,4.28,3.25,5.37,.86,.42,1.87,.73,2.65,.79,.52,.04,.74,.12,1.09,.49,.48,.5,.74,1,.72,1.32-.03,.43-.44,.72-1,.69-1.54-.09-3.89-1.09-5.31-2.23-1.94-1.55-2.89-3.67-2.75-6.11,.12-2.15,1.32-4.47,3.28-6.3,1.14-1.1,2.22-1.76,4.54-2.79-3.35,.2-9.58,1.65-12.17,2.87-.55,.29-.74,.33-1.09,.31-.64-.03-1.41-.69-1.98-1.68-.39-.66-.62-1.39-.6-1.81,.01-.21,.07-.37,.33-.7,.21,.68,.41,1.03,.81,1.42Zm15.76,3.28c.96,.62,1.65,1.16,2.28,1.79,.91,.93,1.24,1.56,1.2,2.2-.04,.64-.44,1.09-.9,1.06q-.35-.02-1.07-1.79c-.42-.96-1.21-2.17-1.89-2.93,.15-.13,.22-.19,.37-.32Zm2.85-1.37c.94,.48,1.69,1.01,2.47,1.67,.97,.82,1.28,1.41,1.24,2.12-.04,.64-.34,1.07-.74,1.04-.24-.02-.39-.16-.58-.54-.83-1.73-1.3-2.45-2.71-3.94,.13-.14,.19-.21,.32-.35Z"/><path class="d" d="M514.77,15.14l-.27-.02c-.88-.06-1.66-.06-2.36,0l-.13-.94c.79,.18,1.19,.24,2.53,.33,7.11,.47,10.66,.72,17.77,1.24,.73-.74,.96-.97,1.68-1.71,.72,.75,1.45,1.47,2.12,2.15,.15,.14,.2,.23,.19,.31,0,.08-.15,.15-.25,.14-5.29-.4-7.93-.59-13.22-.96-.19,2.77-.29,4.16-.48,6.94-.17,2.51-.25,4.02-.3,6.23-.04,.18-.11,.25-.26,.3-.19,.06-.97,.12-1.31,.1-.21-.01-.31-.1-.3-.29v-.05c.25-2.43,.3-3.12,.38-4.28q-3.6,1.03-7.62,2.07c-.22,.89-.28,1.07-.52,1.06-.27-.02-.45-.53-.92-2.69,.96,0,1.26,0,2.63-.09,.26-3.93,.39-5.89,.65-9.82Zm2.92-1.93v.08c-.02,.21-.32,.27-1.17,.21-.53-.04-.67-.1-.65-.31v-.05c.21-1.9,.29-2.75,.45-5.16,.12-1.77,.12-2.2,.11-3.34,.83,.53,1.09,.71,1.88,1.29,4.99,.34,7.48,.51,12.47,.87,.44-.47,.58-.62,1.08-1.09,.71,.58,.91,.78,1.52,1.41,.12,.14,.17,.22,.17,.3-.01,.16-.63,.22-.91,.68-.99,1.58-.34,4.6-.38,5.9v.03c-.05,.24-.09,.28-.24,.33-.19,.06-.62,.06-1.21,.02-.35-.03-.42-.08-.41-.3l.05-.69c-5.08-.37-7.62-.55-12.7-.89-.02,.28-.03,.41-.05,.69Zm-1.43,4.58c1.91,.13,2.87,.19,4.78,.32,.07-1.02,.1-1.53,.17-2.54-1.91-.13-2.87-.2-4.78-.32-.07,1.02-.1,1.53-.17,2.54Zm-.22,3.23c1.91,.13,2.86,.19,4.77,.32,.07-1.05,.11-1.57,.18-2.62-1.91-.13-2.87-.2-4.78-.32-.07,1.05-.1,1.57-.17,2.62Zm-.25,3.76c2.32-.24,3.15-.35,4.83-.63,.06-.88,.09-1.32,.15-2.2-1.91-.13-2.86-.2-4.77-.32-.08,1.26-.13,1.89-.21,3.15Zm15.08-17.35c-5.09-.37-7.64-.55-12.74-.89-.06,.93-.09,1.4-.16,2.33,5.09,.34,7.64,.52,12.72,.89,.07-.93,.1-1.4,.17-2.33Zm-12.93,2.05l-.16,2.44c5.08,.34,7.63,.52,12.71,.89,.07-.97,.11-1.46,.18-2.44-5.09-.37-7.63-.55-12.72-.89Zm13.46,9.22c.52-.44,.69-.56,1.23-.97,.65,.61,.83,.81,1.5,1.47,.15,.17,.22,.28,.21,.36-.01,.16-.12,.23-1.27,.54-1.57,2.44-2.31,3.39-3.49,4.56,1.84,1.49,3.27,2.15,6.02,2.89l-.03,.34c-.57,.09-.86,.2-1.21,.47-.42,.32-.55,.54-.72,1.07-2.39-1.27-3.6-2.18-5.09-3.83-1.73,1.42-3.15,2.17-5.75,3.15l-.19-.31c2.02-1.03,3.26-1.93,5.19-3.81-1.41-1.91-2.07-3.26-2.75-5.78-.1,0-.14-.01-.24-.02-.43-.03-.86,0-1.34,.04-.05-.35-.08-.53-.13-.89,.5,.14,.82,.19,1.51,.24,2.63,.18,3.94,.28,6.56,.47Zm-5.89,.19c.61,1.61,.82,2.04,1.43,2.92,.5,.73,.98,1.32,1.65,1.98,1.31-1.53,1.86-2.44,2.76-4.48-2.34-.17-3.51-.25-5.84-.42Z"/><path class="d" d="M541.19,17.38c.55,.15,1.27,.28,1.83,.33,.8,.06,1.2,.09,2,.16,.41-.45,.56-.59,.97-1.01,.71,.48,.94,.66,1.6,1.22,.2,.15,.28,.23,.27,.31-.01,.13-.27,.35-1,.77-.2,2.56-.31,3.84-.51,6.4,.56,1.37,1.08,1.97,2.18,2.46,1.4,.63,2.92,.9,6.22,1.18,2.63,.22,2.65,.24,6.74,.36,2.55,.08,2.56,.06,3.82,.12l-.03,.32c-1.04,.28-1.22,.43-1.7,1.69-.86,0-.86,0-9.11-.7-3.19-.27-5.24-.91-6.65-2.06-.88-.71-1.43-1.53-2.32-3.43-.81,1.05-2.26,2.56-3.36,3.54,0,.24,0,.4-.01,.48-.03,.37-.18,.65-.34,.64-.16-.01-.33-.19-.45-.46-.13-.3-.32-.69-.5-1.16-.09-.27-.22-.66-.42-1.15,1.26-.33,1.7-.53,4.14-1.96,.22-2.77,.33-4.16,.55-6.93-.85-.07-1.28-.1-2.14-.17q-1.23-.02-1.59,.09c-.08-.41-.11-.62-.19-1.03Zm1.92-10.18c2.02,1.44,2.36,1.7,3.17,2.54,.77,.79,1.03,1.31,.98,1.89-.03,.4-.24,.99-.46,1.32-.18,.28-.38,.42-.62,.4-.24-.02-.34-.16-.47-.52-.19-.63-.55-1.48-1.06-2.58-.57-1.24-.91-1.75-1.8-2.8,.1-.1,.16-.15,.26-.25Zm14.59,10.69c.67,.06,1.01,.09,1.68,.14,.5-.54,.65-.72,1.21-1.2,.72,.7,.94,.93,1.57,1.71,.05,.08,.07,.16,.06,.19,0,.1-.12,.15-.31,.13-1.71-.15-2.56-.22-4.27-.37-.08,.97-.12,1.46-.21,2.43,.5,.04,.75,.06,1.25,.11,.41-.39,.53-.49,.96-.82,.53,.39,.68,.54,1.12,1,.18,.15,.25,.24,.24,.29,0,.11-.15,.23-.71,.47-.04,.48-.07,.87-.1,1.11-.07,.84-.03,1.42-.15,2.36-.02,.19-.14,.34-.24,.35-1,.05-1.05,.04-1.08,.04-.13-.01-.23-.1-.25-.23l.03-.4c-1.71-.15-2.57-.22-4.28-.36-.05,.54-.07,.81-.11,1.35-.05,.29-.27,.18-.77,.25-.05,0-.22,0-.46,.02h-.05c-.16-.02-.28-.11-.3-.27-.05-.49,.02-.71,.26-2.19,.03-.2,.07-.55,.12-1.08,.14-1.69,.16-2.25,.16-3.26,.69,.4,.89,.55,1.5,1.03,.57,.05,.85,.07,1.41,.12,.08-.97,.12-1.46,.2-2.43-1.01-.09-1.52-.13-2.54-.21-.24-.02-1.23-.02-1.64,0-.02-.37-.03-.56-.06-.94,.24,.07,.82,.17,1.75,.33,1.01,.08,1.52,.13,2.54,.21,.07-.86,.11-1.29,.18-2.14-1.93-.16-2.9-.24-4.84-.4-.24,2.92-.36,4.38-.6,7.3-.18,2.17-.11,3.1-.33,4.66-.02,.17-.11,.25-.21,.28-.05,.01-1.31,.03-1.42,.02-.16-.01-.28-.16-.27-.32v-.13c.24-1.23,.31-1.65,.46-3.56,.43-5.31,.63-8.09,.68-10.08,.93,.45,1.21,.63,2.08,1.26,.92,.08,1.38,.11,2.3,.19-.23-.18-.27-.29-.28-.82-.02-.93-.24-1.99-.56-2.68,.1-.07,.15-.1,.26-.17-.88-.07-1.32-.11-2.2-.18-.64-.05-1.75-.06-2.4,0-.13-.41-.19-.62-.32-1.04,1.03,.22,2.05,.38,2.77,.44,2.01,.16,3.02,.25,5.04,.42,.05-.66,.08-.98,.14-1.64,.02-.21,.01-.45,.03-1.28,.61,.13,1.09,.22,1.38,.28,1.33,.25,1.59,.37,1.57,.61-.02,.21-.16,.25-1.15,.54-.06,.66-.08,.98-.14,1.64,1.64,.14,2.46,.21,4.1,.35,.66-.74,.87-.96,1.55-1.65,.95,.91,1.22,1.17,2.13,2.16,.05,.08,.09,.19,.08,.27,0,.08-.15,.15-.34,.13-2.29-.2-3.44-.3-5.73-.5,.96,.48,1.53,.78,1.71,.87,.29,.14,.46,.25,.45,.38-.02,.19-.38,.29-1,.31q-.8,.81-2.24,1.97c1.38,.12,2.07,.18,3.45,.3,.45-.52,.6-.67,1.09-1.13,.66,.51,.86,.66,1.43,1.16,.07,.11,.16,.2,.22,.26,.05,.05,.12,.17,.12,.2,0,.05-.06,.13-.12,.18-.06,.05-.23,.14-.37,.23-.11,.04-.25,.14-.45,.25-.26,3.01-.4,4.52-.66,7.53q-.09,1.06-.16,2.12c0,.05-.03,.29-.05,.61-.18,.81-.39,1.06-1.16,1.28-.47,.12-.93,.19-1.57,.24-.12-.84-.31-1.1-1.06-1.42-.46-.2-.96-.38-1.59-.54l.02-.29c.98,.16,1.11,.28,3.15,.43,.38,.03,.49-.04,.51-.36,.35-4.05,.53-6.07,.88-10.12-1.98-.17-2.97-.26-4.94-.42-.07,.86-.11,1.29-.18,2.14Zm-3.85-6.71c.35,.32,.47,.46,.87,.92,.76,.91,.95,1.25,.92,1.62-.04,.42-.49,.97-.93,1.15,1.51,.13,2.26,.19,3.77,.32,.73-1.27,1.23-2.45,1.48-3.5-2.44-.21-3.66-.31-6.1-.51Zm.45,13.06c1.71,.14,2.57,.22,4.29,.36,.1-1.17,.15-1.76,.25-2.93-1.72-.15-2.57-.22-4.29-.36-.1,1.17-.15,1.76-.24,2.93Z"/><path class="d" d="M572.29,14.67c1.18,1.31,1.89,1.72,3.23,1.84,.69,.06,1.43,.02,2.46-.09,.83-1.66,1.23-2.74,1.31-3.66,.08-.87-.3-1.44-1.52-2.19,.31-.13,.45-.15,.66-.12,.54,.05,1.35,.36,2.09,.81,.87,.52,1.19,.86,1.15,1.23-.02,.21-.09,.36-.33,.66-.13,.2-.79,1.23-1.94,3.09,2.04-.5,2.3-.61,3.1-1.17,.23-.16,.31-.18,.58-.16,1.04,.1,1.78,.52,1.74,.97-.07,.69-1.79,1.18-6.12,1.76-.29,.5-.86,1.55-1.71,3.06-.97,1.73-3.43,6-3.71,6.42-.46,.68-.72,.89-1.04,.86-.45-.04-.75-.89-.65-1.95,.05-.53,.12-.68,.38-.92,.64-.58,1-.95,1.42-1.47,1.48-1.81,2.61-3.52,3.91-5.9-.6,.02-.84,.03-1.27-.01-.96-.09-1.67-.33-2.3-.77-.74-.53-1.32-1.21-1.78-2.11,.14-.07,.2-.11,.34-.18Zm14,2.8c1.83,.34,3.28,.98,4.42,1.9,.96,.77,1.54,1.62,1.48,2.23-.04,.45-.34,.74-.77,.7-.21-.02-.37-.09-.59-.27-.7-.52-1.2-.68-2.56-.81-2.13-.21-2.86,.31-3.03,2.13-.07,.71-.6,3.62,.09,4.59,.45,.64,2.9,1.41,3.61,2.09,.66,.62,.94,1.35,.86,2.19-.05,.53-.3,.88-.62,.84-.26-.03-.36-.11-.86-.78-.85-1.12-1.67-1.84-2.99-2.64-.02,.21-.04,.4-.05,.5-.1,1.06-.38,1.67-.96,2.17-.75,.65-2.07,.94-3.56,.8-2.39-.23-3.93-1.51-3.77-3.18,.17-1.85,2.32-2.96,5.27-2.67,.61,.06,.9,.11,1.58,.29,.12-2.09,.14-2.3,.17-2.62,.21-2.16,.5-2.96,1.3-3.69,.59-.5,1.37-.8,2.65-.99,.41-.07,.47-.09,1.47-.2-.64-.84-1.43-1.34-3.27-2.16,.05-.17,.07-.25,.12-.42Zm-2.56,11.43c-.8-.32-1.4-.45-2.26-.54-2.26-.22-3.71,.42-3.83,1.66-.09,.98,.86,1.65,2.51,1.81,2.15,.2,3.35-.56,3.51-2.22,.03-.28,.04-.43,.07-.71Z"/><path class="d" d="M612.47,18.54c.03-.98,.08-1.46,.14-2.31,.13-1.82,.15-2.17,.14-3.08,2.55,.49,3.02,.62,2.99,.91-.02,.18-.36,.33-1.11,.46-.06,.53-.09,.82-.13,1.19-.1,.95-.2,2.06-.27,3.01,1.63,.18,2.45,.27,4.09,.45,.76-.77,1-1.01,1.81-1.72,.97,.99,1.26,1.29,2.2,2.33,.04,.08,.09,.2,.08,.25-.01,.1-.18,.19-.32,.18-3.16-.36-4.74-.53-7.9-.88-.14,2.79-.13,4.56,.1,6.28,.27,2.08,.89,4.18,1.72,5.9,.5,1.07,1.01,1.77,2.28,3.16,1.63-2.54,1.73-2.72,2.81-4.65,.11,.03,.17,.05,.29,.09-.59,1.79-.88,2.69-1.47,4.48q-.24,.69-.25,.8c-.03,.24,.07,.43,.37,.79,.26,.31,.37,.58,.34,.84-.05,.42-.4,.67-.87,.62-.53-.06-1.27-.43-1.95-1.02-1.74-1.48-3.15-3.88-4.06-6.8-.91-2.94-1.2-5.73-1.02-10.68-4.37-.47-6.55-.7-10.92-1.16-1.23-.13-1.9-.14-2.83-.08l-.05-1.12c1.02,.34,1.44,.44,2.94,.59,4.35,.45,6.52,.68,10.87,1.15Zm-7.05,12.21c4.1-.66,4.54-.74,6.39-1.21l.13,.33c-1.7,.78-2.81,1.16-6.49,2.16-2.41,.65-3.84,1.01-6.44,1.54-.25,1.09-.35,1.32-.62,1.3-.29-.03-.31-.14-1.03-3.28,2.45-.07,4.21-.26,6.21-.64,.31-2.93,.46-4.4,.77-7.34-1.19-.13-1.79-.19-2.98-.31-.56-.06-1.34-.06-1.94,.01-.03-.44-.05-.66-.08-1.1,.67,.26,1.28,.4,2.08,.48,2.58,.27,3.87,.4,6.45,.68,.7-.75,.91-.97,1.68-1.63,.93,.9,1.19,1.2,2.05,2.22,.07,.09,.11,.2,.11,.25-.01,.1-.15,.17-.31,.15-2.1-.23-3.15-.34-5.25-.56-.29,2.78-.44,4.16-.73,6.94Zm10.66-16.36c.26,.13,.46,.24,.59,.28,1.31,.62,1.57,.77,2.09,1.22,.43,.37,.55,.62,.49,1.18-.07,.63-.48,1.2-.86,1.16-.16-.02-.18-.05-.34-.36-.04-.08-.13-.25-.27-.51-.05-.06-.23-.4-.59-1.05-.18-.31-.44-.66-1.31-1.64l.19-.27Z"/><path class="d" d="M633.63,23.55c.64-.59,.82-.78,1.45-1.33,.75,.78,.98,1.05,1.67,1.88,.09,.14,.14,.2,.13,.28,0,.08-.12,.14-.31,.12-1.69-.2-2.54-.3-4.24-.5-.31,2.67-.47,4-.78,6.67,1.22-.34,1.76-.51,3.19-.99,.06,.16,.09,.23,.14,.39-1.64,.9-2.56,1.38-3.33,1.72q-2.9,1.34-3.61,1.69c-.17,.97-.28,1.28-.55,1.25-.11-.01-.2-.1-.26-.3-.02-.06-.27-.94-.74-2.68,.93-.13,1.95-.31,3.36-.65,.34-2.92,.51-4.38,.85-7.3-.62-.07-.93-.11-1.55-.18-.77-.09-1.2-.11-1.72-.06-.03-.39-.05-.58-.08-.97,.54,.22,1.1,.34,1.87,.43,.62,.07,.93,.11,1.55,.18,.22-1.87,.33-2.8,.54-4.66,.11-.95,.14-1.48,.18-2.46,2.56,.62,2.87,.74,2.84,1-.02,.21-.28,.31-1.13,.43-.28,2.36-.42,3.54-.69,5.9l1.23,.14Zm8.3,8.21c-1.35,1.57-2.15,2.36-3.32,3.18-1.94,1.4-4.07,2.29-7.02,2.96l-.17-.42c2.51-.83,4.35-1.81,6.08-3.18,1.02-.84,1.58-1.47,2.54-2.77-.91-.11-1.37-.17-2.29-.28-1.5,1.24-3.9,2.47-6.65,3.43-.07-.17-.1-.25-.17-.42,2.13-1.01,3.3-1.78,4.96-3.24,1.14-1.01,1.58-1.47,2.51-2.75-.9-.11-1.36-.16-2.26-.27-1.04-.12-1.49-.15-2.23-.1l-.07-1.02c.78,.28,1.33,.4,2.37,.52,4.58,.54,6.86,.82,11.44,1.39,.75-.63,.99-.81,1.74-1.39,.87,.83,1.13,1.1,1.96,2.04,.09,.12,.14,.2,.13,.28-.01,.1-.13,.14-.34,.12-4.29-.54-6.43-.8-10.72-1.32-1.07,1.23-1.37,1.54-2.04,2.19,3.64,.44,5.45,.66,9.09,1.11,.48-.42,.63-.54,1.1-.85,.63,.56,.83,.72,1.4,1.35,.15,.12,.19,.24,.18,.32-.03,.21-.29,.37-.93,.55-.76,3.25-1.64,5.87-2.27,6.8-.48,.71-1.59,1.14-3.1,1.19-.07-1.37-.34-1.59-2.92-2.28,.03-.18,.05-.27,.08-.44,1.6,.36,2.7,.57,3.39,.66,.71,.09,.97-.01,1.27-.51,.5-.79,1.32-3.5,1.84-6.16-.55-.07-.83-.1-1.38-.17-1.24,1.98-2.09,2.99-3.52,4.14-1.33,1.07-3.16,2.1-5.11,2.88-.82,.33-1.43,.52-2.79,.92-.09-.16-.13-.24-.22-.4,2.73-1.04,4.64-2.2,6.78-4.07,1.39-1.22,1.99-1.95,3.04-3.69-.95-.12-1.42-.17-2.36-.29Zm-2.71-5.7c-.04,.37-.35,.44-1.31,.32-.37-.04-.47-.14-.44-.4,.25-1.84,.42-2.81,.52-3.68,.37-3.14,.54-4.74,.6-5.7,.85,.58,1.13,.78,1.89,1.4,2.49,.3,3.73,.45,6.22,.76,.51-.42,.67-.56,1.17-.95,.64,.56,.83,.74,1.39,1.29,.17,.18,.23,.3,.22,.4-.02,.16-.11,.23-.93,.53-.09,.76-.11,.87-.19,1.55-.13,1.08-.27,2.49-.6,5.3-.03,.24-.1,.32-.32,.36-.18,.04-.81,.03-1.13,0-.24-.03-.34-.12-.31-.33,.03-.26,.05-.39,.08-.66-2.72-.33-4.07-.5-6.79-.83l-.08,.63Zm7.71-6.65c-2.72-.34-4.09-.5-6.81-.83-.13,1.08-.2,1.63-.33,2.71,2.72,.33,4.08,.49,6.8,.83,.13-1.08,.2-1.63,.33-2.71Zm-7.21,2.49c-.14,1.17-.21,1.76-.35,2.93,2.72,.33,4.08,.49,6.79,.83,.14-1.17,.22-1.75,.36-2.92-2.72-.34-4.08-.5-6.8-.83Z"/><path class="d" d="M658.59,23.33c1.15,1.16,1.73,1.48,3.17,1.67,.85,.11,1.64,.11,2.9,.03,.73-1.05,1.21-1.98,1.29-2.56,.09-.71-.36-1.2-1.7-1.72,.49-.18,.73-.2,1.24-.13,.61,.08,1.37,.35,2.02,.72,.62,.35,.89,.68,.85,1-.02,.18-.17,.35-.53,.7-.28,.27-.66,.72-.92,.98q-.58,.7-.8,.94c2.32-.34,3.08-.56,4.06-1.17,.18-.11,.34-.14,.53-.12,1.04,.14,1.74,.61,1.67,1.11-.04,.32-.42,.53-1.26,.69-2.47,.45-3.79,.59-6.01,.73-.57,.6-.96,1.03-1.68,1.87-.86,1-1.11,1.27-1.71,1.92,1.59-.57,2.56-.74,3.57-.6,1.57,.21,2.6,1.41,2.63,3.02q.48-.15,2.78-.94c2.81-.96,3.5-1.29,3.57-1.77,.06-.45-.33-.98-1.06-1.4,.31-.09,.45-.1,.63-.07,1.17,.16,2.79,2.01,2.64,3.06-.06,.47-.3,.63-1.07,.68-1.64,.15-5.28,1-7.48,1.75-.09,.85-.11,1-.26,2.13-.16,1.18-.35,1.99-.51,2.23-.17,.26-.49,.44-.81,.4-.5-.07-.8-.46-.74-.9,.02-.13,.03-.26,.09-.44,.21-.75,.38-1.64,.56-2.79-1.76,.68-2.6,1.1-3.38,1.67-.99,.72-1.52,1.49-1.62,2.27-.19,1.42,1.18,2.29,4.14,2.69,1.85,.25,3.74,.23,5.42-.03,.19-.03,.38-.03,.51,0,.82,.11,1.75,.99,1.67,1.57-.05,.34-.37,.57-.92,.6-1.11,.07-3.14-.05-4.78-.27-2.49-.33-4.28-.84-5.27-1.47-1.26-.81-1.76-1.76-1.6-3.05,.16-1.24,.92-2.29,2.38-3.35,.78-.57,1.71-1.06,3.6-1.91,.12-1.11,.1-1.55-.1-2.13-.17-.5-.67-.89-1.25-.97-1.76-.23-4.04,.89-6.26,3.06-.59,.62-.83,.75-1.09,.72-.42-.05-.65-.64-.54-1.49,.07-.55,.1-.57,.92-1.09,2.08-1.23,3.42-2.45,5.68-5.01-.9,.02-1.25,0-1.8-.08-1.81-.24-2.68-.83-3.71-2.54,.13-.08,.19-.12,.32-.2Z"/></g><g><path class="d" d="M31.92,35.87c-10.58,1.52-21.14,3.12-31.69,4.79-.09-.56-.13-.84-.22-1.4,10.56-1.68,21.13-3.28,31.71-4.8l.2,1.4Z"/><path class="d" d="M724.46,41.26c-10.55-1.68-21.11-3.28-31.69-4.79,.08-.56,.12-.84,.2-1.4,10.58,1.52,21.15,3.12,31.7,4.8-.09,.56-.13,.84-.22,1.4Z"/></g></g></g></g></svg>