<?xml version="1.0" encoding="UTF-8"?><svg xmlns="http://www.w3.org/2000/svg" viewBox="0 0 46 93"><defs><style>.d{fill:#fff;}.e{fill:#42210b;}</style></defs><g id="a"/><g id="b"><g id="c"><g><rect class="d" width="46" height="93"/><g><path class="e" d="M18.26,16.46c-.28,3.47-1.66,6.48-2.97,6.48-.41,0-.71-.58-.71-1.36,0-.41,.12-.6,.6-.87,1.22-.74,2.32-2.51,2.67-4.3l.41,.05Zm-2.64-4.37c1.04,1.2,1.5,1.43,2.67,1.43,.97,0,2.35-.14,4.12-.39v-.34c0-2.41-.05-2.94-.28-3.33-.28-.46-.64-.69-1.66-.94,.28-.23,.46-.3,.78-.3,.62,0,1.7,.28,2.35,.57,.55,.25,.76,.51,.76,.94,0,.14-.02,.23-.16,.48-.34,.76-.46,1.4-.48,2.74q.39-.09,1.98-.41c.87-.18,1.59-.46,2.02-.76,.16-.12,.28-.16,.41-.16,.28,0,.8,.14,1.24,.35,.58,.28,.87,.53,.87,.8,0,.3-.28,.44-1.06,.53-1.2,.12-4.3,.55-5.52,.76-.02,1.29-.02,1.52-.02,1.98,0,2.12,.07,4.19,.21,6.14,.05,.41,.05,.55,.05,.78,0,.67-.12,1.22-.39,1.84-.23,.55-.53,.83-.92,.83-.3,0-.48-.21-.67-.73-.25-.69-.48-.9-2.42-2.07-.34-.21-.64-.41-1.17-.76l.11-.23c1.54,.51,2.6,.78,3.79,1.01,.05-.69,.11-3.59,.18-8.67-1.2,.16-2.97,.3-3.73,.3-1.68,0-2.39-.46-3.38-2.18l.3-.18Zm11.27,3.98c1.93,1.2,2.9,1.96,3.63,2.9,.48,.6,.69,1.13,.69,1.75,0,.94-.41,1.77-.87,1.77-.28,0-.32-.04-.71-1.22-.62-1.88-1.66-3.61-2.97-4.94l.23-.25Z"/><path class="e" d="M18.44,54.24c1.52-1.7,2.48-3.29,3.31-5.43,.64-1.68,1.1-3.61,1.1-4.69,0-.55-.14-.8-.57-1.12-1.5,.16-4.02,.87-5.11,1.45-.39,.18-.48,.23-.74,.23-.48,0-1.17-.48-1.79-1.31-.23-.3-.46-.8-.46-1.01,0-.12,.02-.18,.09-.44,.55,.78,1.1,1.1,1.93,1.1,.62,0,.76-.02,3.93-.57,1.4-.23,4-.55,7.08-.85,.46-.04,1.31-.23,1.79-.39q.37-.12,.58-.12c.32,0,.76,.12,1.22,.35,.62,.3,1.08,.74,1.08,1.06,0,.28-.25,.46-.64,.46-.18,0-.25,0-.58-.07-.92-.18-2.44-.3-3.7-.3-1.4,0-2.62,.07-3.77,.23,1.06,.6,1.5,1.06,1.5,1.59,0,.87-.64,2.85-1.45,4.51-1.27,2.6-2.42,4-4.55,5.61l-.25-.28Zm-.44-17.75c.97,.92,1.68,1.24,2.74,1.24,1.54,0,3.59-.48,4.85-1.12,.25-.14,.46-.19,.69-.19,.6,0,1.56,.76,1.56,1.22,0,.28-.28,.41-1.2,.62-1.5,.3-4.05,.6-5.24,.6-1.72,0-2.62-.51-3.73-2.14l.32-.23Z"/><path class="e" d="M13.63,79.73c1.26-1.17,2.18-2.51,3.08-4.37,.87-1.82,1.59-4.64,1.59-6.23,0-.9-.39-1.36-1.56-1.79,.25-.16,.37-.21,.62-.21,.51,0,1.06,.18,1.72,.58,.85,.51,1.24,.9,1.24,1.26,0,.18-.05,.37-.3,1.06q-.02,.09-.23,.8c-.74,2.41-.94,2.99-1.56,4.23-1.1,2.19-2.39,3.66-4.35,4.92l-.25-.25Zm19.64-9.18c-.71,1.22-1.31,1.98-2.51,3.24-1.33,1.42-3.45,3.26-4.88,4.21-.44,.3-1.1,.83-1.31,1.04-.18,.18-.3,.25-.46,.25-.53,0-1.38-1.2-1.38-1.91,0-.04,.05-.28,.16-.71,.14-.53,.21-2.57,.21-6.23,0-5.22-.09-5.52-1.77-5.89,.23-.28,.39-.35,.74-.35,.55,0,1.26,.25,2.02,.71,.67,.41,.94,.74,.94,1.06,0,.11-.02,.21-.18,.62-.12,.3-.23,1.08-.32,2.25-.09,.97-.3,6.05-.3,6.92,0,.3,0,.55,.05,1.06,2.67-1.04,6.05-3.59,8.69-6.51l.3,.23Z"/></g></g></g></g></svg>