<?xml version="1.0" encoding="UTF-8"?><svg xmlns="http://www.w3.org/2000/svg" viewBox="0 0 46 190"><defs><style>.d{fill:#fff;}.e{fill:#42210b;}</style></defs><g id="a"/><g id="b"><g id="c"><g><rect class="d" width="46" height="190"/><g><path class="e" d="M25.84,16.98c1.86-.9,3.08-1.68,4.19-2.74,1.66,.9,1.95,1.08,1.95,1.24,0,.14-.16,.21-.44,.21-.09,0-.53-.02-.83-.02-1.56,.76-3.1,1.31-4.88,1.72v1.31c0,.32,.05,.39,.28,.44,.16,.02,1.26,.07,1.89,.07,.21,0,.55,0,1.15-.02h.94c.87,0,.99-.02,1.13-.25,.16-.25,.64-1.45,1.04-2.55l.28,.02-.14,1.82v.53q0,.12,.41,.28c.32,.09,.48,.28,.48,.55,0,.76-.62,.87-4.9,.87-3.7,0-3.91-.07-3.96-1.24v-5.89h-4.74c-.55,.85-.85,1.24-1.4,1.84h3.24c.39-.37,.51-.46,.92-.8,.53,.41,.69,.53,1.2,.94,.16,.14,.21,.21,.21,.28,0,.14-.11,.18-.9,.44-1.52,2.21-2.74,3.33-4.92,4.48-1.61,.85-3.15,1.4-5.33,1.91l-.12-.37c2.67-.96,4.37-1.84,5.98-3.08-.18-.02-.23-.07-.37-.25-.55-.8-1.22-1.47-1.77-1.79-1.5,1.17-2.21,1.61-3.54,2.18l-.21-.32c1.42-.92,2.37-1.77,3.66-3.22,.76-.87,1.17-1.43,1.63-2.23h-2.69c-.99,0-1.15,0-1.95,.14l-.16-.9c.71,.16,1.31,.23,2.12,.23h14.65c.6-.64,.78-.85,1.4-1.47,.87,.71,1.13,.94,1.98,1.68,.05,.07,.09,.14,.09,.19,0,.09-.09,.14-.25,.14h-7.31v3.66Zm-.78-7.31c0-.12,.02-.16,.02-.18,0-1.01-.05-1.52-.11-1.93,1.98,.21,2.55,.32,2.55,.53,0,.16-.18,.25-.97,.46q-.02,.88-.02,1.13h3.54c.64-.69,.85-.9,1.47-1.52,.92,.74,1.22,.97,2.16,1.72,.05,.07,.09,.14,.09,.18,0,.09-.09,.14-.23,.14h-7.04c0,.48,0,.69,.02,1.31-.02,.28-.23,.32-1.26,.32-.23,0-.28-.05-.28-.21,.02-.74,.05-.99,.05-1.43h-4.42v.28l-.02,.41c0,.14,.02,.3,.05,.6,0,.14-.02,.19-.09,.23-.09,.07-.6,.12-1.24,.12-.14,0-.21-.05-.23-.18,.05-.78,.07-1.04,.07-1.45h-4.39c-.97,0-1.15,.02-1.84,.12l-.16-.83c.64,.14,1.1,.18,2,.18h4.39c.02-.25,.02-.46,.02-.64,0-.62-.02-.88-.09-1.47,.48,.07,.9,.12,1.15,.14,1.1,.12,1.36,.18,1.36,.39,0,.16-.21,.25-.97,.46v1.13h4.42Zm-5.75,13.2c.05-.46,.07-.73,.07-1.13,0-.37-.02-.57-.09-.99,.48,.07,.85,.14,1.1,.16,.99,.14,1.38,.25,1.38,.41s-.12,.21-.85,.46c-.07,.69-.07,.78-.11,1.08h4.25c0-1.15-.02-1.17-.09-1.93,2.21,.21,2.39,.23,2.39,.44,0,.16-.05,.18-.8,.51v.99h3.52c.62-.71,.8-.92,1.43-1.54,.94,.71,1.22,.94,2.12,1.72,.05,.07,.09,.14,.09,.19,0,.07-.11,.16-.21,.16h-6.97v1.4c0,.58,0,.71,.05,3.38,0,.12-.05,.16-.12,.21-.12,.07-.71,.14-1.22,.14-.21,0-.28-.07-.28-.25,.07-1.54,.09-2.18,.09-3.36v-1.52h-4.32c-.3,1.56-.71,2.39-1.54,3.13-1.43,1.27-3.38,1.98-6.21,2.28l-.09-.35c2.69-.67,4.05-1.29,5.04-2.32,.67-.69,1.06-1.49,1.29-2.74h-4.19c-.85,0-1.2,.02-1.79,.14l-.16-.83c.67,.14,1.06,.16,1.95,.16h4.28Zm-1.52-7.17c-.44,.44-.67,.64-1.13,1.04,.44,.07,.85,.18,1.43,.39,.78,.3,1.04,.51,1.04,.9,0,.28-.07,.46-.18,.67,1.13-.94,1.79-1.73,2.6-2.99h-3.75Z"/><path class="e" d="M11.93,48.84c.78-1.27,1.1-1.84,1.77-3.33,1.45-3.27,2.18-5.61,2.53-8.03,1.91,.37,2.62,.57,2.62,.83,0,.18-.37,.34-1.06,.46-.64,2.19-1.24,3.56-2.53,5.91,1.4,.18,1.66,.25,1.66,.51,0,.16-.21,.3-.69,.44v8.21c0,.71,0,1.04,.02,4.21,0,.19-.02,.25-.09,.3-.09,.09-.78,.19-1.26,.19-.18,0-.28-.09-.28-.23v-.14c.02-.37,.02-2.83,.07-7.38v-5.06c-.83,1.36-1.26,1.98-2.41,3.33l-.34-.21Zm8.85,2.09l-1.4,.02c-.97,0-1.45,.02-2.44,.12l-.21-.85c.92,.14,1.52,.19,2.44,.19h.21l1.4-.02v-1.68c-1.24,.23-1.86,.3-3.24,.41l-.07-.25c1.38-.3,2.6-.67,3.93-1.22,.55-.23,.69-.3,1.26-.67l.44-.28c1.4,.99,1.61,1.17,1.61,1.38,0,.12-.14,.23-.28,.23-.18,0-.28-.02-.8-.25-.69,.18-.85,.23-1.52,.39v1.91l3.84-.04c-.12-.51-.16-.83-.21-1.27-.12-1.36-.14-1.4-.3-2.05,1.93,.18,2,.21,2,.41,0,.12-.09,.18-.44,.37,0,1.2,.05,1.61,.21,2.51l3.31-.05c.48-.62,.62-.8,1.15-1.4,.8,.67,1.04,.85,1.75,1.56,.07,.07,.12,.14,.12,.18,0,.09-.09,.14-.35,.14l-5.84,.09c.28,1.06,.6,1.75,1.2,2.55,.53-.62,.87-1.13,1.36-2q1.91,.94,1.91,1.13c0,.23-.18,.28-.99,.3-.67,.76-.92,1.04-1.45,1.54,.6,.62,1.33,1.22,1.79,1.43,.14,.07,.23,.12,.28,.16,.05,.02,.07,.05,.09,.05,.07,0,.16-.09,.28-.3,.18-.35,.41-.74,.62-1.13,.37-.62,.39-.69,.76-1.33l.25,.12-.6,2.35c-.05,.21-.07,.34-.07,.46,0,.21,.02,.23,.48,.71,.14,.14,.25,.44,.25,.67,0,.3-.3,.55-.62,.55-.39,0-1.29-.37-2.14-.87-.92-.55-1.66-1.17-2.39-1.98-1.63,1.27-2.99,1.98-5.27,2.76l-.14-.35c1.24-.55,2.14-1.12,3.54-2.3,.44-.34,.76-.64,1.15-1.01-.78-1.13-1.22-2.14-1.59-3.47l-3.96,.07v2.02c1.47-.25,2.05-.37,3.33-.69l.09,.32c-1.52,.58-2.18,.8-3.43,1.2v1.03l.02,1.7v.55c0,.57-.09,.78-.48,1.04-.37,.25-.76,.37-1.54,.44-.16-.97-.55-1.17-2.35-1.38v-.3q1.98,.16,2.78,.16h.05c.14,0,.18-.07,.18-.28v-2.57c-.87,.23-1.29,.34-2.48,.62-.05,.11-.07,.21-.09,.28-.12,.37-.18,.48-.32,.48q-.21,0-.62-2.05c.94-.04,1.72-.12,3.52-.37v-2.19Zm4.67-7.72h3.4c.51-.6,.67-.78,1.17-1.33,.76,.64,1.01,.83,1.75,1.47,.09,.12,.14,.18,.14,.25,0,.09-.09,.14-.3,.14h-6.16v2.09h4.74c.53-.62,.69-.8,1.24-1.43,.78,.69,1.04,.9,1.77,1.59,.09,.09,.14,.16,.14,.23s-.09,.14-.25,.14h-13.68c-.53,0-.99,.02-1.91,.14l-.23-.85c.62,.09,1.77,.18,2.14,.18h4.65v-2.09h-2.42c-.92,0-1.4,.05-2.39,.18l-.18-.87c.76,.12,1.56,.16,2.58,.16h2.42v-2.12h-3.82c-.85,0-1.2,.02-2.07,.16l-.21-.9c1.01,.16,1.59,.21,2.35,.21h2.14c-.11-.19-.14-.25-.25-.53-.3-.85-.6-1.33-1.38-2.23l.25-.21c.87,.32,1.36,.6,2.07,1.15,.32,.25,.46,.46,.46,.67,0,.41-.21,.83-.58,1.15h3.01c.48-.83,1.06-2.23,1.29-3.2,1.96,.62,2.28,.78,2.28,1.01,0,.18-.28,.28-.92,.3q-.64,.64-2.07,1.89h3.38c.51-.62,.67-.8,1.22-1.43,.9,.64,1.17,.87,2.02,1.59,.09,.09,.14,.18,.14,.23,0,.12-.05,.14-.34,.14h-7.57v2.12Zm2.69,3.98c1.7,.46,2.37,.85,2.37,1.45,0,.51-.3,1.13-.55,1.13-.16,0-.23-.07-.41-.46-.25-.55-.74-1.15-1.52-1.88l.12-.23Z"/><path class="e" d="M27.73,81.84h2.28c.67-.69,.87-.9,1.54-1.56,.97,.71,1.26,.94,2.23,1.75,.07,.07,.09,.12,.09,.16,0,.09-.09,.18-.16,.18h-5.98v1.91q.02,1.68,.02,2.32c-.09,1.01-.58,1.33-2.6,1.66-.25-.67-.46-.92-.92-1.1-.18-.09-.46-.14-1.31-.3q-.62-.12-1.1-.23v-.3l1.43,.07c.94,.05,1.63,.07,2.02,.07h.71c.16-.04,.21-.09,.21-.28v-3.82H15.38c-.58,0-1.24,.02-2.78,.09l-.16-.78c1.08,.11,2.02,.16,2.94,.16h10.81v-2.28h-8.97v.8c-.02,.25-.16,.32-.8,.35-.18,0-.32,.02-.37,.02h-.07c-.21,0-.32-.07-.41-.25,.07-1.33,.09-2.44,.09-4.83,0-1.84-.02-2.58-.09-4,.8,.37,1.04,.51,1.84,.94h4.55v-2.16h-5.93c-1.04,0-2.18,.05-2.99,.12l-.23-.83c.94,.14,1.86,.19,3.31,.19h5.84v-.71c0-.46-.05-1.33-.12-1.93,2.48,.34,2.64,.37,2.64,.62,0,.19-.07,.23-.97,.58v1.45h6.14c.58-.67,.76-.85,1.36-1.47,.99,.67,1.29,.87,2.23,1.61,.07,.09,.12,.16,.12,.21,0,.09-.07,.18-.14,.18h-9.7v2.16h4.94c.41-.44,.55-.55,.97-.94,.67,.48,.85,.64,1.43,1.17,.09,.09,.11,.14,.11,.21,0,.14-.11,.23-.71,.67,0,2.67,.02,5.82,.05,6.42-.07,.32-.32,.41-1.17,.41-.35,0-.46-.05-.48-.25v-.71h-.92v2.28Zm-10.32,.94c1.72,.96,1.95,1.08,2.58,1.59,.85,.64,1.04,.9,1.04,1.36,0,.6-.46,1.45-.81,1.45-.18,0-.25-.09-.53-.67-.58-1.22-1.36-2.32-2.51-3.47l.23-.25Zm4.55-9.66h-4.74v2.55h4.74v-2.55Zm0,3.08h-4.74v2.83h4.74v-2.83Zm6.69-3.08h-5.13v2.55h5.13v-2.55Zm0,3.08h-5.13v2.83h5.13v-2.83Z"/><path class="e" d="M16.85,109.4c-.23,1.72-.71,3.27-1.45,4.76-.87,1.75-1.77,2.88-3.27,4.09l-.25-.23c1.52-1.86,2.37-3.68,2.94-6.14,.41-1.77,.53-2.88,.6-6.14,.02-1.08,.07-4.23,.07-5.15,0-1.2-.02-1.89-.11-2.97,.83,.48,1.08,.64,1.84,1.17h12.3c.39-.48,.51-.62,.94-1.08,.64,.46,.83,.6,1.45,1.08,.18,.14,.28,.23,.28,.32,0,.16-.14,.25-.85,.69v10.69c0,2,0,2.9,.05,5.84-.07,.57-.21,.78-.71,1.06-.41,.23-.94,.39-2.02,.58-.32-1.36-.51-1.47-3.06-1.79v-.34q.85,.04,2.18,.11,.83,.05,1.5,.07h.18c.23,0,.28-.07,.28-.32v-6.3h-5.68v2.09q.02,1.5,.02,2.76,.02,1.1,.05,1.98c-.02,.34-.23,.46-.92,.48h-.32c-.32,0-.46-.12-.46-.37,.02-1.4,.05-3.93,.05-4.85v-2.09h-5.61Zm5.61-5.27h-5.38c-.02,2.16-.05,3.36-.16,4.74h5.54v-4.74Zm0-4.81h-5.38c.02,.48,.02,.9,.02,1.1,0,.19,0,.71-.02,1.43v1.75h5.38v-4.28Zm7.27,4.28v-4.28h-5.68v4.28h5.68Zm0,5.27v-4.74h-5.68v4.74h5.68Z"/><path class="e" d="M24.83,131.8c-.07-.85-.07-1.26-.09-2-.07-1.59-.07-1.88-.16-2.67,2.21,.19,2.62,.25,2.62,.51,0,.16-.28,.32-.9,.51v1.04c0,.83,.02,1.79,.05,2.62h3.52c.58-.73,.76-.96,1.38-1.65,.92,.76,1.2,.99,2.09,1.79,.05,.07,.09,.16,.09,.21,0,.09-.14,.18-.25,.18h-6.81c.14,2.41,.32,3.93,.67,5.4,.44,1.77,1.15,3.52,2.02,4.92,.53,.88,1.04,1.43,2.25,2.51,1.15-2.35,1.22-2.51,1.95-4.28l.25,.04-.83,4q-.14,.62-.14,.71c0,.21,.09,.37,.39,.64,.25,.25,.37,.46,.37,.69,0,.37-.28,.62-.69,.62-.46,0-1.13-.25-1.77-.69-1.63-1.11-3.08-3.01-4.12-5.47-1.08-2.46-1.56-4.83-1.86-9.11H15.47c-1.06,0-1.63,.05-2.42,.18l-.14-.96c.9,.21,1.26,.25,2.55,.25h9.36Zm-4.9,11.18c3.45-.94,3.82-1.06,5.36-1.63l.14,.28c-1.38,.83-2.3,1.26-5.36,2.46-2,.78-3.2,1.22-5.38,1.91-.12,.96-.18,1.17-.41,1.17-.25,0-.28-.09-1.17-2.74,2.09-.28,3.59-.6,5.27-1.1v-6.39h-2.58c-.48,0-1.15,.07-1.66,.18l-.16-.94c.6,.16,1.13,.23,1.82,.23h5.57c.53-.71,.69-.92,1.29-1.56,.87,.69,1.13,.92,1.96,1.72,.07,.07,.12,.16,.12,.21,0,.09-.12,.16-.25,.16h-4.53v6.05Zm7.59-15.08c.23,.09,.41,.16,.53,.18,1.17,.41,1.4,.51,1.89,.85,.41,.28,.53,.48,.53,.96,0,.55-.3,1.08-.62,1.08-.14,0-.16-.02-.32-.28-.05-.07-.14-.21-.28-.41-.05-.04-.23-.32-.6-.85-.18-.25-.44-.53-1.26-1.29l.14-.25Z"/><path class="e" d="M18.03,163.96c.48-.57,.62-.76,1.1-1.29,.71,.6,.94,.8,1.61,1.45,.09,.11,.14,.16,.14,.23s-.09,.14-.25,.14h-3.66v5.82c1.01-.41,1.45-.62,2.62-1.17l.16,.32c-1.31,.94-2.05,1.45-2.67,1.82q-2.35,1.45-2.92,1.82c-.05,.85-.12,1.13-.35,1.13-.09,0-.18-.07-.25-.23-.02-.04-.32-.78-.9-2.23,.78-.21,1.63-.46,2.81-.9v-6.37h-1.33c-.67,0-1.04,.02-1.47,.12l-.16-.83c.48,.14,.97,.18,1.63,.18h1.33v-4.07c0-.83-.02-1.29-.09-2.14,2.23,.28,2.51,.35,2.51,.58,0,.18-.21,.3-.92,.48v5.15h1.06Zm7.91,6.21c-.99,1.49-1.59,2.25-2.51,3.08-1.52,1.4-3.24,2.39-5.7,3.26l-.18-.34c2.07-.97,3.54-2,4.88-3.36,.78-.83,1.2-1.43,1.89-2.64h-1.98c-1.15,1.22-3.08,2.53-5.33,3.63l-.18-.34c1.72-1.08,2.64-1.86,3.91-3.29,.87-.99,1.2-1.43,1.86-2.62h-1.96c-.9,0-1.29,.02-1.91,.14l-.16-.87c.69,.16,1.17,.21,2.07,.21h9.89c.58-.62,.76-.8,1.33-1.38,.83,.62,1.08,.83,1.89,1.54,.09,.09,.14,.16,.14,.23,0,.09-.09,.14-.28,.14h-9.27c-.78,1.17-1.01,1.47-1.52,2.09h7.86c.37-.41,.48-.53,.85-.85,.6,.41,.78,.53,1.33,1.01,.14,.09,.18,.18,.18,.25,0,.18-.21,.35-.74,.57-.3,2.88-.78,5.22-1.22,6.09-.34,.67-1.24,1.15-2.53,1.36-.21-1.17-.46-1.33-2.74-1.66l.02-.39c1.4,.14,2.37,.21,2.97,.21s.83-.12,1.04-.57c.34-.74,.76-3.15,.92-5.5h-1.2c-.85,1.84-1.47,2.78-2.58,3.93-1.04,1.06-2.48,2.14-4.07,3.01-.67,.37-1.17,.6-2.3,1.08l-.23-.32c2.23-1.17,3.75-2.37,5.38-4.21,1.06-1.2,1.49-1.89,2.21-3.5h-2.05Zm-2.9-4.62c0,.32-.25,.41-1.08,.41-.32,0-.41-.07-.41-.3,.05-1.63,.07-2.46,.07-3.22,0-2.74-.02-4.14-.07-4.97,.78,.41,1.04,.55,1.75,1.01h5.36c.39-.41,.51-.55,.9-.94,.6,.41,.78,.55,1.31,.97,.16,.14,.23,.23,.23,.32,0,.14-.07,.21-.74,.55v1.36c0,.94,.02,2.16,.05,4.62,0,.21-.05,.28-.23,.35-.16,.05-.69,.12-.97,.12-.21,0-.3-.07-.3-.25v-.57h-5.86v.55Zm5.86-6.53h-5.86v2.37h5.86v-2.37Zm-5.86,2.9v2.55h5.86v-2.55h-5.86Z"/></g></g></g></g></svg>