<svg xmlns="http://www.w3.org/2000/svg" width="66.809" height="207.568" viewBox="0 0 66.809 207.568">
  <g id="tp0601" transform="translate(-818.146 -10178.742)">
    <path id="パス_4191" data-name="パス 4191" d="M7.776-21.792a7.456,7.456,0,0,0,2.24,1.856,8.736,8.736,0,0,0,3.648.864c.576,0,1.7-.032,2.4-.1l-.608.384-2.08,1.12c-.864.48-1.44.8-2.336,1.344l.224.48c5.088-2.144,6.848-2.784,8.544-3.168,2.144-.448,2.336-.576,2.336-1.12a2.2,2.2,0,0,0-1.92-1.664,3.246,3.246,0,0,0-.576.128,24.954,24.954,0,0,1-6.656.96,7.5,7.5,0,0,1-4.9-1.408ZM6.56-9.6a8.7,8.7,0,0,0-.512,2.72A6.126,6.126,0,0,0,8.7-1.856C10.3-.768,12.576-.32,16.16-.32a36.74,36.74,0,0,0,7.456-.64c.672-.16,1.024-.512,1.024-.992a1.527,1.527,0,0,0-.7-1.12,3.493,3.493,0,0,0-1.76-.64,1.625,1.625,0,0,0-.544.1A20.572,20.572,0,0,1,14.56-2.432c-5.152,0-7.552-1.792-7.552-5.6,0-.384.032-.736.1-1.44ZM22.272-24.512A14.266,14.266,0,0,1,24.7-21.12c1.024,2.08,1.024,2.08,1.44,2.08.544,0,.992-.576.992-1.344s-.448-1.5-1.6-2.56a16.32,16.32,0,0,0-2.848-1.984Zm3.36-1.856a16.39,16.39,0,0,1,3.52,4.576c.256.448.448.608.736.608.48,0,.8-.544.8-1.312,0-.9-.416-1.536-1.664-2.464a14.457,14.457,0,0,0-3.04-1.824ZM6.816,32.528c0,3.072,0,3.072-.064,5.536-.032.416-.032,1.216-.064,2.08,0,.288.128.416.448.416a9.023,9.023,0,0,0,1.5-.16.317.317,0,0,0,.256-.352v-.064c-.128-4-.128-4-.128-7.456v-6.88c1.12-.256,1.5-.352,1.92-.448a6.605,6.605,0,0,0,.832-.224c.192.608.352,1.12.48,1.6.288,1.056.32,1.184.608,1.184.48,0,1.152-1.056,1.152-1.824,0-.832-1.312-2.592-3.36-4.512l-.32.224A27.3,27.3,0,0,1,11.3,24.336c-2.336.224-3.68.32-4.576.352-.608.032-.608.032-.96.064a56.265,56.265,0,0,0,6.5-7.744h.416c.672,0,1.024-.128,1.024-.416,0-.256-.32-.416-2.944-1.5a52.735,52.735,0,0,1-5.952,9.7c-1.28.1-1.632.128-2.08.128-.064,0-.064,0-1.024-.032.544,2.976.544,2.976.832,2.976s.416-.256.64-1.184c1.856-.288,2.464-.384,3.648-.64ZM8.64,13.04c.864,0,1.28-.128,1.28-.416s-.32-.448-1.7-.9c-.352-.1-.864-.288-1.536-.512A22.51,22.51,0,0,1,4.512,17.36,17.084,17.084,0,0,0,2.08,15.792L1.7,16.08a20.142,20.142,0,0,1,3.488,5.152c.16.384.288.544.512.544.448,0,1.024-1.024,1.024-1.888,0-.64-.384-1.152-1.6-2.048a1.218,1.218,0,0,0-.192-.16,24.6,24.6,0,0,0,3.616-4.64Zm18.208.928a50.241,50.241,0,0,1-.928,8.16c-.224.928-.416,1.088-1.216,1.088-.992,0-2.944-.064-4.512-.192l-.032.512c3.2.576,3.52.768,3.808,2.208,2.656-.416,3.36-.864,3.808-2.528A48.305,48.305,0,0,0,28.96,14.7c.9-.448,1.216-.672,1.216-.9,0-.1-.1-.224-.288-.416-.768-.7-1.024-.9-1.856-1.568-.576.608-.736.8-1.312,1.408H16.384a6.837,6.837,0,0,1-2.5-.288l.192,1.184a15.79,15.79,0,0,1,2.272-.16H19.3c-.384,4.128-1.024,6.4-2.5,8.832a9.94,9.94,0,0,1-2.752,3.008l.288.672a13.113,13.113,0,0,0,2.176-1.5,13.338,13.338,0,0,0,3.552-5.056,24.935,24.935,0,0,0,1.472-5.952ZM1.7,38.864a26.2,26.2,0,0,0,3.328-8.9c.768-.128.992-.256.992-.48,0-.288-.288-.384-2.976-.96A37.257,37.257,0,0,1,1.248,38.672ZM9.76,28.528a19.27,19.27,0,0,1,1.7,6.24c.1,1.024.192,1.28.512,1.28.576,0,1.44-1.44,1.44-2.4,0-1.056-1.28-3.168-3.328-5.44Zm7.68-.736a21.834,21.834,0,0,0-2.368-1.312c.1,1.5.1,2.976.1,8.832,0,1.472,0,2.592-.064,4.8,0,.32.128.416.48.416a7.384,7.384,0,0,0,1.44-.128c.192-.064.256-.16.256-.416V37.936h8.992v2.176c0,.288.128.416.48.416h.1A3.042,3.042,0,0,0,27.3,40.5c.8,0,1.152-.128,1.152-.416v-.064c-.064-1.44-.128-7.488-.128-9.152V29.2c.832-.512,1.024-.7,1.024-.928,0-.128-.1-.288-.352-.48a20.262,20.262,0,0,0-1.728-1.312c-.544.544-.7.736-1.216,1.312Zm-.16.736h8.992V37.2H17.28ZM1.248,65.376a26.912,26.912,0,0,0,7.488-4.96,41.422,41.422,0,0,0,7.488-8.9,27.448,27.448,0,0,0,5.6,7.872,27.507,27.507,0,0,0,6.88,5.28c.928-1.6,1.472-2.048,2.752-2.24l.1-.448a19.228,19.228,0,0,1-4.512-1.568,26.18,26.18,0,0,1-7.232-5.184,15.77,15.77,0,0,1-3.04-4c.928-.192,1.184-.32,1.184-.608,0-.32-.32-.416-3.68-1.088a7.564,7.564,0,0,1-.64,1.5,40.448,40.448,0,0,1-3.68,5.536A35.985,35.985,0,0,1,.96,64.928ZM2.784,78.368a16.125,16.125,0,0,0,3.552-1.5,9.605,9.605,0,0,0,5.088-6.272,28.854,28.854,0,0,0,.768-6.848c0-.224,0-.64-.032-1.12.9-.288,1.216-.48,1.216-.7,0-.32-.608-.448-3.584-.8a22,22,0,0,1,.192,3.3c0,7.488-1.728,10.624-7.392,13.536ZM22.656,62.08c0-.064-.224-.288-.32-.32a20.115,20.115,0,0,0-3.1-.48c.16,2.688.16,3.264.16,5.536,0,4.48-.032,7.488-.16,10.816.064.288.16.352.416.352a6.116,6.116,0,0,0,1.792-.224c.192-.064.256-.224.256-.448v-.1c-.064-2.656-.1-3.936-.1-6.752-.032-4.032-.032-6.56-.064-7.648.64-.256.96-.416.992-.512ZM5.44,93.712a12.4,12.4,0,0,1-3.552-.352L2.08,94.7a17.083,17.083,0,0,1,3.36-.256H18.528c.416,5.952,1.088,9.248,2.592,12.672a17.055,17.055,0,0,0,5.728,7.616,4.93,4.93,0,0,0,2.464.96.868.868,0,0,0,.96-.864,1.369,1.369,0,0,0-.512-.96c-.416-.384-.544-.608-.544-.9a4.792,4.792,0,0,1,.192-.992l1.152-5.568-.352-.064c-1.024,2.464-1.12,2.688-2.72,5.952a13.9,13.9,0,0,1-3.136-3.488,24.268,24.268,0,0,1-2.816-6.848,42.271,42.271,0,0,1-.928-7.52H30.08c.16,0,.352-.128.352-.256A.724.724,0,0,0,30.3,93.9c-1.248-1.12-1.632-1.44-2.912-2.5-.864.96-1.12,1.28-1.92,2.3h-4.9c-.032-1.152-.064-2.5-.064-3.648v-1.44c.864-.256,1.248-.48,1.248-.7,0-.352-.576-.448-3.648-.7.128,1.088.128,1.5.224,3.712.032,1.024.032,1.6.128,2.784Zm6.208,7.136h6.3c.192,0,.352-.1.352-.224a.527.527,0,0,0-.16-.288,27.048,27.048,0,0,0-2.72-2.4,19.626,19.626,0,0,0-1.792,2.176H5.888a9.12,9.12,0,0,1-2.528-.32l.224,1.312a11.547,11.547,0,0,1,2.3-.256H9.472v8.9a43.294,43.294,0,0,1-7.328,1.536c1.248,3.68,1.28,3.808,1.632,3.808.32,0,.416-.288.576-1.632,3.04-.96,4.7-1.568,7.488-2.656a42.128,42.128,0,0,0,7.456-3.424l-.192-.384a66.49,66.49,0,0,1-7.456,2.272ZM22.016,88.624a12.8,12.8,0,0,1,1.76,1.792c.512.736.768,1.12.832,1.184l.384.576c.224.352.256.384.448.384.448,0,.864-.736.864-1.5a1.337,1.337,0,0,0-.736-1.344,8.543,8.543,0,0,0-2.624-1.184,5.155,5.155,0,0,1-.736-.256Zm.832,54.864a15.584,15.584,0,0,1-3.072,4.864,24.454,24.454,0,0,1-7.488,5.856l.32.448a32.112,32.112,0,0,0,3.2-1.5,25.04,25.04,0,0,0,5.664-4.192,17.454,17.454,0,0,0,3.584-5.472H26.72a30.924,30.924,0,0,1-1.28,7.648c-.288.64-.576.8-1.44.8-.832,0-2.176-.1-4.128-.288l-.032.544c3.168.448,3.52.672,3.808,2.3,1.792-.288,3.04-.96,3.52-1.888.608-1.216,1.28-4.48,1.7-8.48.736-.32,1.024-.544,1.024-.8,0-.1-.064-.224-.256-.352a15.731,15.731,0,0,0-1.856-1.408,10.327,10.327,0,0,0-1.184,1.184H15.648a29.865,29.865,0,0,0,2.112-2.912h12.9q.384,0,.384-.192c0-.1-.064-.192-.192-.32a32.08,32.08,0,0,0-2.624-2.144c-.8.8-1.056,1.056-1.856,1.92H12.608a11.1,11.1,0,0,1-2.88-.288l.224,1.216a12.52,12.52,0,0,1,2.656-.192h2.72a16.7,16.7,0,0,1-2.592,3.648,21.753,21.753,0,0,1-5.44,4.576l.256.48a26.907,26.907,0,0,0,7.424-5.056h2.752a16.229,16.229,0,0,1-2.624,3.68A22.124,22.124,0,0,1,8.32,151.84l.256.48a21.756,21.756,0,0,0,7.936-4.544A19.8,19.8,0,0,0,20,143.488ZM7.52,134.848V127.68c.992-.256,1.28-.416,1.28-.672,0-.32-.384-.416-3.488-.8.1,1.184.128,1.824.128,2.976v5.664H3.584a7.935,7.935,0,0,1-2.272-.256l.224,1.152a9.133,9.133,0,0,1,2.048-.16H5.44v8.864a39.752,39.752,0,0,1-3.9,1.248c.8,2.016,1.216,3.04,1.248,3.1.1.224.224.32.352.32.32,0,.416-.384.48-1.568.8-.512.8-.512,4.064-2.528.864-.512,1.888-1.216,3.712-2.528l-.224-.448c-1.632.768-2.24,1.056-3.648,1.632v-8.1h5.088c.224,0,.352-.1.352-.192s-.064-.16-.192-.32c-.928-.9-1.248-1.184-2.24-2.016-.672.736-.864.992-1.536,1.792Zm8.448,1.44h8.16v.8c0,.256.128.352.416.352a7.369,7.369,0,0,0,1.344-.16c.256-.1.32-.192.32-.48-.032-3.424-.064-5.12-.064-6.432V128.48c.928-.48,1.024-.576,1.024-.768,0-.128-.1-.256-.32-.448-.736-.576-.992-.768-1.824-1.344-.544.544-.7.736-1.248,1.312H16.32a25.451,25.451,0,0,0-2.432-1.408c.064,1.152.1,3.1.1,6.912,0,1.056-.032,2.208-.1,4.48,0,.32.128.416.576.416,1.152,0,1.5-.128,1.5-.576Zm8.16-5.024h-8.16v-3.3h8.16Zm0,.736v3.552h-8.16V132ZM16,174.928a2.928,2.928,0,1,0,2.912,2.912A2.93,2.93,0,0,0,16,174.928Z" transform="translate(853.402 10205.526)" fill="#333"/>
    <path id="パス_4192" data-name="パス 4192" d="M5.216-18.656c1.376,2.4,2.368,3.04,4.7,3.04a51.237,51.237,0,0,0,5.184-.416c-.1,7.072-.192,11.1-.256,12.064a40.047,40.047,0,0,1-5.28-1.408l-.16.32c.736.48,1.152.768,1.632,1.056,2.688,1.632,3.008,1.92,3.36,2.88.256.736.512,1.024.928,1.024.544,0,.96-.384,1.28-1.152a5.943,5.943,0,0,0,.544-2.56A7.856,7.856,0,0,0,17.088-4.9c-.192-2.72-.288-5.6-.288-8.544,0-.64,0-.96.032-2.752,1.7-.288,6.016-.9,7.68-1.056,1.088-.128,1.472-.32,1.472-.736,0-.384-.416-.736-1.216-1.12a4.9,4.9,0,0,0-1.728-.48.942.942,0,0,0-.576.224A8.233,8.233,0,0,1,19.648-18.3c-2.208.448-2.208.448-2.752.576a8.54,8.54,0,0,1,.672-3.808,1.234,1.234,0,0,0,.224-.672c0-.608-.288-.96-1.056-1.312a9.563,9.563,0,0,0-3.264-.8,1.464,1.464,0,0,0-1.088.416c1.408.352,1.92.672,2.3,1.312.32.544.384,1.28.384,4.64v.48a44.166,44.166,0,0,1-5.728.544c-1.632,0-2.272-.32-3.712-1.984Zm3.52,5.76A9.439,9.439,0,0,1,5.024-6.912c-.672.384-.832.64-.832,1.216,0,1.088.416,1.888.992,1.888,1.824,0,3.744-4.192,4.128-9.024Zm12.256-.128a17.837,17.837,0,0,1,4.128,6.88c.544,1.632.608,1.7.992,1.7.64,0,1.216-1.152,1.216-2.464a3.685,3.685,0,0,0-.96-2.432,17.871,17.871,0,0,0-5.056-4.032Zm-12.48,27.7c1.536,2.272,2.784,2.976,5.184,2.976a49.046,49.046,0,0,0,7.3-.832c1.28-.288,1.664-.48,1.664-.864,0-.64-1.344-1.7-2.176-1.7a1.883,1.883,0,0,0-.96.256,16.864,16.864,0,0,1-6.752,1.568A4.988,4.988,0,0,1,8.96,14.352ZM9.92,39.44a18.938,18.938,0,0,0,6.336-7.808,19.387,19.387,0,0,0,2.016-6.272c0-.736-.608-1.376-2.08-2.208a37.569,37.569,0,0,1,5.248-.32,30.233,30.233,0,0,1,5.152.416,2.9,2.9,0,0,0,.8.1c.544,0,.9-.256.9-.64,0-.448-.64-1.056-1.5-1.472a4.046,4.046,0,0,0-1.7-.48,1.883,1.883,0,0,0-.8.16,14.572,14.572,0,0,1-2.5.544c-4.288.416-7.9.864-9.856,1.184-4.416.768-4.608.8-5.472.8A3.021,3.021,0,0,1,3.776,21.9a2.229,2.229,0,0,0-.128.608,3.343,3.343,0,0,0,.64,1.408,3.906,3.906,0,0,0,2.5,1.824,2.021,2.021,0,0,0,1.024-.32,25.644,25.644,0,0,1,7.1-2.016,1.632,1.632,0,0,1,.8,1.568A21.841,21.841,0,0,1,14.176,31.5a23.175,23.175,0,0,1-4.608,7.552ZM3.232,75.1A16.361,16.361,0,0,0,9.28,68.256a30.548,30.548,0,0,0,2.176-5.888c.288-.992.288-.992.32-1.12a4.572,4.572,0,0,0,.416-1.472c0-.512-.544-1.056-1.728-1.76a4.815,4.815,0,0,0-2.4-.8A1.337,1.337,0,0,0,7.2,57.5c1.632.608,2.176,1.248,2.176,2.5a24.422,24.422,0,0,1-2.208,8.672,19.125,19.125,0,0,1-4.288,6.08Zm26.56-13.44c-3.68,4.064-8.384,7.616-12.1,9.056a13.773,13.773,0,0,1-.064-1.472c0-1.216.288-8.288.416-9.632A15.147,15.147,0,0,1,18.5,56.48a2.411,2.411,0,0,0,.256-.864c0-.448-.384-.9-1.312-1.472a5.861,5.861,0,0,0-2.816-.992,1.1,1.1,0,0,0-1.024.48c2.336.512,2.464.928,2.464,8.192a64.18,64.18,0,0,1-.288,8.672,7.864,7.864,0,0,0-.224.992c0,.992,1.184,2.656,1.92,2.656.224,0,.384-.1.64-.352a18.212,18.212,0,0,1,1.824-1.44A45.271,45.271,0,0,0,26.72,66.5a22.024,22.024,0,0,0,3.488-4.512Z" transform="translate(815.266 10205.526)" fill="#333"/>
  </g>
</svg>
