<?xml version="1.0" encoding="UTF-8"?><svg xmlns="http://www.w3.org/2000/svg" viewBox="0 0 46 183"><defs><style>.d{fill:#fff;}.e{fill:#42210b;}</style></defs><g id="a"/><g id="b"><g id="c"><g><rect class="d" width="46" height="183"/><g><path class="e" d="M18.33,9.86c.21,.19,.53,.28,.94,.28s1.86-.32,3.54-.8c.94-.25,1.5-.44,1.79-.58q.14-.07,.46-.34c.12-.09,.28-.16,.41-.16,.67,0,2.09,1.47,2.09,2.16,0,.25-.07,.32-.57,.53-.32,.16-1.31,.9-3.04,2.32-1.75,1.45-4.32,3.45-6.67,5.2,2.51-.97,4.3-1.56,8.95-2.9,.94-.28,1.61-.46,2.14-.64,.57-.21,.71-.23,.94-.23,.3,0,.8,.23,1.2,.55,.3,.25,.39,.41,.39,.67,0,.23-.18,.41-.46,.44-.18,.04-.21,.04-1.47,.11-1.26,.05-2.92,.53-4.09,1.15-1.95,1.04-3.13,2.64-3.13,4.25,0,1.33,.85,2.39,2.28,2.88,.6,.21,.97,.25,2.02,.25,.16,0,.32,0,.44-.02,.18-.02,.32-.05,.37-.05,.51,0,1.36,.83,1.36,1.31,0,.44-.37,.62-1.17,.62-3.66,0-6.25-1.93-6.25-4.6,0-1.15,.48-2.28,1.43-3.26,.71-.78,1.33-1.24,2.6-1.98-2.64,.74-6.85,2.44-8.23,3.33-.32,.21-.44,.25-.58,.25-.51,0-1.29-.76-1.29-1.22,0-.32,.16-.46,.62-.6,1.2-.37,3.29-1.98,6.46-5.04,2.55-2.41,3.68-3.68,3.68-4.05,0-.18-.14-.3-.32-.3-.25,0-.48,.07-2.51,.87-1.33,.53-2.14,.9-2.78,1.29-.32,.18-.48,.25-.69,.25-.46,0-.99-.46-1.43-1.26-.28-.46-.44-.99-.44-1.33,0-.12,.02-.23,.14-.44,.25,.48,.46,.76,.87,1.08Z"/><path class="e" d="M22.88,53.32c2.48-.74,4.07-1.68,5.38-3.2,1.36-1.54,2.05-3.43,2.05-5.54,0-2.23-.9-4-2.6-5.08-1.01-.67-2.53-1.06-3.98-1.06-.28,0-.44,0-.8,.05,.55,.8,.71,1.24,.71,1.91,0,1.79-1.29,5.15-3.04,7.96-1.45,2.3-2.58,3.43-3.43,3.43-.39,0-.76-.18-1.01-.48-.21-.28-.25-.37-.64-1.47-.21-.6-.34-.87-1.01-2.16-.37-.74-.53-1.36-.53-2.09,0-1.45,.78-3.15,2.07-4.55,1.86-1.98,4.9-3.22,7.91-3.22,2.32,0,4.46,.76,5.93,2.12s2.21,3.17,2.21,5.4c0,2.87-1.68,5.43-4.58,6.97-1.33,.71-2.53,1.08-4.48,1.43l-.16-.39Zm-7.57-7.15c0,1.1,.34,2.23,.92,3.04,.32,.41,.62,.67,.87,.67,.51,0,1.61-1.24,2.74-3.04,1.7-2.71,2.92-5.68,2.92-7.11,0-.35-.07-.58-.32-1.15-4,.71-7.13,4.05-7.13,7.59Z"/><path class="e" d="M12.07,75.22c1.84-2.64,2.6-4.02,3.86-7.01,.9-2.14,1.24-3.22,1.54-4.85,.53,.16,.94,.28,1.2,.35,1.38,.37,1.56,.46,1.56,.64,0,.23-.34,.37-1.13,.44-.97,2.32-1.68,3.7-3.06,5.91,.18,.02,.35,.05,.44,.07,.94,.14,1.26,.23,1.26,.39s-.18,.3-.8,.53v5.93q.02,2.39,.02,6.3c-.05,.3-.23,.37-.85,.39-.21,0-.34,.02-.39,.02h-.07c-.28,0-.39-.09-.41-.32,.12-4.05,.18-6.19,.18-6.39v-5.96c-1.29,1.91-1.98,2.74-3.13,3.79l-.23-.23Zm9.75,6.09c0,.51,.07,.62,.41,.71,.28,.07,2.25,.12,4.83,.12,3.56,0,3.66,0,3.91-.44,.16-.23,.32-.62,.53-1.26,.05-.16,.18-.6,.41-1.31,.09-.32,.3-.97,.48-1.52h.3l-.21,3.49c-.02,.09-.02,.21-.02,.28q0,.18,.39,.34c.48,.21,.69,.41,.69,.69,0,.46-.39,.78-1.15,.94-.67,.14-2.14,.21-4.67,.21-2.3,0-4.88-.04-5.56-.09-1.56-.12-1.93-.51-1.93-1.91v-8.74l-.48,.16c-.6,.19-.9,.32-1.45,.6l-.44-.78c.99-.12,1.17-.14,1.79-.34l.58-.16v-3.91c0-.88-.02-1.1-.05-1.79,.99,.07,2.07,.19,2.32,.25,.18,.04,.28,.14,.28,.25,0,.19-.16,.28-.97,.6v4.09l3.33-1.04c.02-.76,.02-3.84,.02-5.13,0-.92,0-1.13-.07-1.84,2.55,.32,2.67,.35,2.67,.6s-.25,.37-1.1,.57l.02,5.31,3.24-1.01c.32-.57,.41-.74,.76-1.26,.67,.34,.87,.46,1.47,.83,.18,.09,.28,.19,.28,.25,0,.12-.21,.34-.69,.78,0,3.11-.18,5.52-.48,6.78-.28,1.08-.74,1.38-2.64,1.61-.21-1.03-.51-1.26-1.93-1.54,0,.9,.02,1.98,.02,3.24-.02,.21-.09,.28-.3,.32-.3,.04-.71,.09-.92,.09-.3,0-.41-.09-.41-.37q.02-2.6,.07-8.71l-3.33,1.06v8.97Zm4.88-10.51v5.54c1.31,.16,1.82,.21,2.18,.21,.62,0,.83-.18,.97-.8,.23-1.15,.32-2.85,.34-6.02l-3.5,1.08Z"/><path class="e" d="M22.88,110.43c2.48-.73,4.07-1.68,5.38-3.2,1.36-1.54,2.05-3.43,2.05-5.54,0-2.23-.9-4-2.6-5.08-1.01-.67-2.53-1.06-3.98-1.06-.28,0-.44,0-.8,.04,.55,.8,.71,1.24,.71,1.91,0,1.79-1.29,5.15-3.04,7.96-1.45,2.3-2.58,3.43-3.43,3.43-.39,0-.76-.18-1.01-.48-.21-.28-.25-.37-.64-1.47-.21-.6-.34-.88-1.01-2.16-.37-.74-.53-1.36-.53-2.09,0-1.45,.78-3.15,2.07-4.55,1.86-1.98,4.9-3.22,7.91-3.22,2.32,0,4.46,.76,5.93,2.12,1.47,1.36,2.21,3.17,2.21,5.4,0,2.88-1.68,5.43-4.58,6.97-1.33,.71-2.53,1.08-4.48,1.43l-.16-.39Zm-7.57-7.15c0,1.1,.34,2.23,.92,3.04,.32,.41,.62,.67,.87,.67,.51,0,1.61-1.24,2.74-3.04,1.7-2.71,2.92-5.68,2.92-7.11,0-.34-.07-.57-.32-1.15-4,.71-7.13,4.05-7.13,7.59Z"/><path class="e" d="M18.23,125.06c.32-.46,.64-.92,.97-1.36,.74,.6,.97,.8,1.68,1.45,.12,.14,.16,.23,.16,.3,0,.09-.09,.14-.25,.14h-4.14c-.02,1.68-.02,1.79-.14,3.27h2.16c.32-.37,.41-.48,.76-.87,.57,.44,.74,.57,1.29,1.08,.12,.16,.16,.23,.16,.32,0,.14-.02,.14-.6,.51-.32,5.04-.6,7.13-1.15,9.08-.39,1.38-.97,1.79-2.71,1.91-.12-1.04-.21-1.13-1.91-1.61l.05-.28c1.4,.16,2.05,.21,2.41,.21,.55,0,.62-.16,1.04-2.12,.39-1.84,.64-4.48,.74-7.7h-2.28c-.23,2.62-.3,3.22-.67,4.78-.69,2.97-1.7,4.99-3.5,7.04l-.37-.25c1.1-1.66,1.63-2.85,2.18-5.06,.71-2.83,.99-5.68,1.01-10.3h-.92c-.07,0-.44,.02-.99,.07-.09,.02-.25,.02-.48,.04l-.18-.83c.74,.12,1.31,.18,1.66,.18h1.43v-2.62c0-.48-.02-.87-.09-1.68,1.96,.3,2.18,.34,2.42,.44,.07,.02,.18,.16,.18,.18v.02l-.12,.18s-.14,.09-.3,.14c-.11,.02-.28,.07-.48,.14v3.2h.99Zm11.71-.46c.55-.76,.74-.96,1.36-1.7,.94,.78,1.22,1.04,2.12,1.91,.05,.07,.07,.14,.07,.18,0,.09-.09,.14-.21,.14h-10.39c-.85,1.38-1.4,2.07-2.55,3.15l-.28-.16c1.45-2.53,2.58-5.33,3.01-7.54,.46,.12,.85,.23,1.08,.28,1.1,.28,1.4,.41,1.4,.62s-.18,.28-.99,.41c-.55,1.22-.8,1.72-1.38,2.71h6.76Zm.28,4.81c.32-.55,.44-.71,.83-1.27,.64,.28,.83,.37,1.47,.71,.18,.09,.25,.16,.25,.25,0,.07-.05,.16-.14,.23-.07,.05-.18,.16-.32,.28-.12,.07-.28,.21-.48,.39-.05,3.43-.07,4.09-.21,5.27-.12,1.13-.46,1.47-1.89,1.86-.32-1.17-.55-1.38-1.72-1.56l.05,1.84c-.02,.37-.12,.41-.76,.46-.23,0-.39,0-.44,.02h-.07c-.21,0-.32-.09-.32-.28l.02-.05c.05-2.74,.05-3.13,.05-4.46,0-.28,0-1.04-.02-2.3l-2.25,.6v7.56c0,.41,.14,.55,.6,.58,.02,0,.23,0,.53,.02,.28,.02,.48,.02,.92,.02,2.02,0,4.55-.02,4.88-.07,.39-.02,.51-.14,.64-.64,.18-.57,.62-2.39,.97-4.02l.37,.05-.09,3.63-.02,.34v.14q0,.21,.44,.44c.25,.14,.39,.32,.39,.57,0,.76-.87,.9-5.54,.9-3.29,0-4.46-.09-5.01-.34-.32-.16-.46-.46-.53-1.13v-.62l.02-2.28v-4.78l-.18,.05c-.51,.14-.87,.28-1.54,.64l-.41-.81c.83-.11,1.36-.21,1.84-.32l.3-.07v-2.28c0-.67-.05-1.15-.14-2.12,2.07,.25,2.51,.37,2.51,.62,0,.19-.23,.35-.92,.6v2.8l2.25-.57q-.05-3.61-.16-4.42c1.82,.21,2.37,.32,2.37,.57,0,.19-.16,.28-.76,.53-.02,.67-.02,.99-.02,1.47v.85q.02,.19,.02,.62l2.25-.55Zm-2.25,1.03c0,1.7,.02,3.31,.05,4.83q.51,.04,1.24,.07c.14,0,.28,0,.46,.02h.12c.3,0,.37-.12,.44-.64,.05-.73,.12-2.76,.12-4.41v-.48l-2.41,.62Z"/><path class="e" d="M12.49,154.53c.92,.18,1.4,.23,2.46,.23h4.19c.37-.44,.76-.88,1.13-1.31,.87,.62,1.15,.83,1.96,1.5,.05,.09,.09,.16,.09,.21,0,.09-.09,.14-.25,.14h-7.11c-1.1,0-1.43,.02-2.25,.16l-.21-.92Zm.87-2.94c.71,.16,1.33,.23,1.91,.23h2.92c.48-.6,.62-.76,1.1-1.31,.83,.62,1.06,.83,1.84,1.52,.05,.07,.09,.16,.09,.19,0,.09-.09,.14-.23,.14h-5.73c-.48,0-.87,.02-1.75,.12l-.16-.87Zm.28,8.97c.8,.19,1.29,.23,1.95,.23h2.16c.46-.57,.62-.76,1.17-1.31,.78,.62,1.01,.8,1.72,1.45,.07,.09,.14,.21,.14,.23,0,.09-.09,.16-.16,.16h-5.04c-.74,0-1.03,.02-1.77,.12l-.18-.88Zm.02-2.99c.83,.16,1.31,.21,1.93,.21h2.44c.39-.46,.78-.9,1.15-1.33,.78,.64,1.03,.85,1.75,1.52,.05,.07,.09,.16,.09,.21,0,.07-.09,.14-.25,.14h-5.17c-.78,0-1.06,.02-1.75,.14l-.18-.87Zm1.52,13.5c-.02,.18-.09,.23-.25,.28-.18,.05-.55,.07-.76,.07-.35,0-.46-.09-.51-.34,.07-2.55,.07-3.11,.07-4.02,0-1.22-.02-2.97-.07-4.07,.78,.44,.99,.57,1.7,1.03h3.13c.28-.3,.58-.62,.87-.94,.58,.39,.74,.53,1.22,.94,.16,.14,.28,.3,.28,.39,0,.14-.09,.21-.74,.6-.02,.53-.02,.83-.02,1.17,0,.64,.05,2.99,.07,3.59-.02,.16-.05,.23-.16,.28-.16,.09-.67,.16-1.06,.16-.28,0-.34-.07-.34-.28v-.37h-3.43v1.52Zm0-2.05h3.43v-4.48h-3.43v4.48Zm18.88,.53c-.44,.09-.64,.18-.97,.48-.39,.35-.55,.6-.74,1.2-2.3-1.01-3.96-2.12-5.5-3.68-2.14,1.88-4.35,3.06-7.54,4l-.14-.34c2.71-1.17,4.74-2.51,6.85-4.58-1.31-1.66-2.05-3.22-2.62-5.61h-.44c-.55,.02-.69,.04-1.15,.14l-.18-.9c.69,.16,1.29,.21,2.14,.21h5.63c.39-.44,.53-.57,.9-.99,.76,.53,.99,.69,1.68,1.22,.16,.14,.23,.23,.23,.32,0,.14-.3,.28-1.15,.53-1.27,2.6-2.05,3.77-3.31,5.1,1.79,1.36,3.47,2,6.32,2.51l-.02,.39Zm-13.31-9.52c2.05-2.07,2.62-3.79,2.62-7.77,0-.57-.02-.85-.09-1.59,.8,.46,1.04,.62,1.75,1.15h3.06c.39-.44,.53-.58,.92-1.04,.6,.46,.78,.6,1.29,1.04,.21,.21,.25,.3,.25,.39,0,.16-.14,.28-.85,.64v4.19c0,.39,.09,.41,1.24,.41,.74,0,.97-.07,1.15-.32,.18-.28,.25-.55,.97-3.36l.3,.02-.21,2.97v.09c0,.35,.02,.37,.48,.6,.16,.09,.28,.28,.28,.48,0,.64-.62,.8-3.1,.8-1.47,0-1.93-.04-2.21-.21-.3-.18-.39-.46-.39-1.06v-.07c.02-.6,.02-.8,.02-1.42v-3.63h-3.31c-.16,2.85-.39,3.91-1.17,5.17-.69,1.13-1.4,1.82-2.81,2.74l-.18-.23Zm3.22,.96c.48,1.89,1.38,3.38,2.85,4.83,1.2-1.4,1.86-2.58,2.71-4.83h-5.56Z"/></g></g></g></g></svg>