<?xml version="1.0" encoding="UTF-8"?><svg id="_イヤー_2" xmlns="http://www.w3.org/2000/svg" viewBox="0 0 252 75.3"><g id="_イヤー_1-2"><path d="M6.6,7.2H252V75.3H6.6V7.2Z" fill="#9d6315"/><path d="M1,1V67.1H244.4V1H1M0,0H245.4V68.1H0V0Z" fill="#9d6315"/><path d="M7.6,8.2v58.9H244.3V8.2H7.6m-1-1H245.3v60.9H6.6V7.2Z" fill="#fff"/><path d="M64.2,46.4l-4.3-8.4h8.4l-4.1,8.4Z" fill="#fff"/><path d="M91.65,34.26l2.53-.3c.19,.99,.47,2.01,.79,2.94,1.35-.21,2.66-.51,3.84-.86l.3,2.36c-.96,.28-2.16,.51-3.34,.68,.54,1.22,1.2,2.38,1.67,3.06,.32,.47,.68,.88,1.01,1.26l-1.16,1.69c-1.05-.21-3.41-.45-4.99-.58l.19-1.99c.92,.08,2.16,.19,2.74,.23-.56-.9-1.24-2.14-1.76-3.39-2.23,.17-4.8,.19-8.01-.08l-.04-2.4c2.81,.34,5.21,.39,7.2,.26-.15-.43-.26-.83-.38-1.14-.15-.43-.36-1.11-.6-1.73Zm-3.39,11.53c0,1.58,1.41,2.25,3.98,2.25,2.04,0,3.69-.19,5.03-.45l-.13,2.36c-1.07,.21-2.76,.45-5.04,.45-3.83-.02-6.24-1.5-6.24-4.2,0-1.14,.36-2.21,.99-3.49l2.34,.54c-.6,.88-.92,1.71-.92,2.53Z" fill="#fff"/><path d="M105.53,42.36c1.71-1.24,3.56-1.78,5.53-1.78,3.28,0,5.19,2.02,5.19,4.29,0,3.41-2.7,6.04-10.5,5.38l-.71-2.46c5.63,.77,8.61-.6,8.61-2.98,0-1.22-1.16-2.12-2.79-2.12-2.12,0-4.03,.79-5.21,2.21-.34,.41-.52,.71-.69,1.09l-2.16-.54c.38-1.84,.81-5.51,.94-7.84l2.51,.36c-.24,1.03-.58,3.32-.71,4.39Zm8.1-6.7l-.56,2.29c-1.89-.24-6.08-1.12-7.54-1.5l.6-2.25c1.78,.56,5.87,1.28,7.5,1.46Z" fill="#fff"/><path d="M123.46,36.61c-.24,1.26-.9,5.01-.9,6.88,0,.36,.02,.84,.08,1.22,.28-.64,.58-1.29,.84-1.91l1.16,.92c-.53,1.56-1.14,3.6-1.35,4.59-.06,.28-.09,.69-.09,.88,0,.21,.02,.51,.04,.77l-2.18,.15c-.38-1.29-.73-3.58-.73-6.13,0-2.81,.58-5.98,.79-7.43,.06-.53,.17-1.24,.19-1.84l2.62,.23c-.15,.39-.39,1.33-.47,1.67Zm4.63,9.17c0,.83,.71,1.33,2.63,1.33,1.67,0,3.06-.15,4.71-.49l.04,2.53c-1.22,.23-2.72,.36-4.84,.36-3.23,0-4.78-1.14-4.78-3.08,0-.73,.11-1.48,.32-2.44l2.16,.21c-.15,.62-.23,1.07-.23,1.58Zm6.79-9.6v2.42c-2.31,.21-5.7,.23-8.06,0v-2.4c2.31,.32,6.04,.23,8.06-.02Z" fill="#fff"/><path d="M152.85,48.67c.64,0,.75-.32,.84-2.49,.47,.36,1.46,.73,2.04,.88-.24,2.96-.83,3.73-2.68,3.73h-2.48c-2.23,0-2.76-.67-2.76-2.78v-3h-2.27c-.39,2.98-1.5,4.95-6.13,6-.21-.6-.81-1.52-1.24-1.99,3.84-.71,4.65-1.97,4.97-4.01h-2.29v-11.01h12.26v11.01h-3.06v2.98c0,.6,.11,.67,.83,.67h1.95Zm-9.83-11.55h7.84v-1.16h-7.84v1.16Zm0,2.96h7.84v-1.16h-7.84v1.16Zm0,2.98h7.84v-1.16h-7.84v1.16Z" fill="#fff"/><path d="M162.55,35.11c.99,0,5.01-.07,6.08-.17,.77-.08,1.2-.13,1.42-.21l1.22,1.67c-.43,.28-.88,.54-1.31,.86-1.01,.71-2.98,2.36-4.16,3.3,.62-.15,1.18-.21,1.78-.21,3.19,0,5.61,1.99,5.61,4.73,0,2.96-2.25,5.31-6.79,5.31-2.61,0-4.58-1.2-4.58-3.08,0-1.52,1.37-2.92,3.36-2.92,2.33,0,3.73,1.42,3.99,3.21,1.03-.54,1.56-1.41,1.56-2.55,0-1.69-1.69-2.83-3.9-2.83-2.87,0-4.74,1.52-6.75,3.81l-1.71-1.76c1.33-1.07,3.6-2.98,4.71-3.9,1.05-.86,3-2.44,3.92-3.24-.96,.02-3.54,.13-4.54,.19-.51,.04-1.11,.09-1.54,.15l-.08-2.44c.52,.08,1.18,.09,1.71,.09Zm3.38,13.15c.39,0,.75-.02,1.09-.06-.11-1.22-.81-2.01-1.82-2.01-.71,0-1.16,.43-1.16,.9,0,.69,.77,1.16,1.89,1.16Z" fill="#fff"/></g></svg>