<?xml version="1.0" encoding="utf-8"?>
<!-- Generator: Adobe Illustrator 26.2.1, SVG Export Plug-In . SVG Version: 6.00 Build 0)  -->
<svg version="1.1" id="レイヤー_1" xmlns="http://www.w3.org/2000/svg" xmlns:xlink="http://www.w3.org/1999/xlink" x="0px"
	 y="0px" viewBox="0 0 70.2 240" style="enable-background:new 0 0 70.2 240;" xml:space="preserve">
<style type="text/css">
	.st0{fill:#42210B;}
</style>
<g>
	<path class="st0" d="M40.2,34.6c4-0.5,6.7-1.2,9.9-2.8c1.8-0.9,3-1.8,4.5-3.3c-2.8-1.1-3.7-1.4-6.7-2.1c-0.4,0.7-0.7,1-1.3,2
		c-0.2,0.2-0.3,0.3-0.5,0.3c0,0,0,0-0.1,0c-0.3-0.1-0.6-0.1-0.8-0.1c-0.9-0.1-1-0.1-1-0.5c1.9-2.8,2.7-4.2,4.6-7.9h-6.6
		c-0.5,0-1.5,0.1-2.6,0.3L39.4,19c1.4,0.3,2.1,0.4,2.8,0.4h7c1.3-2.7,2.1-4.6,2.8-7c3.2,0.9,3.2,0.9,3.3,1c0.2,0.1,0.2,0.2,0.2,0.3
		c0,0.3-0.2,0.4-1.7,0.7c-0.9,2.2-1.3,3-2.3,5h12.9c0.8-1.1,1.1-1.4,1.9-2.4c1.4,1.2,1.8,1.6,3.2,2.8c0.1,0.1,0.1,0.1,0.1,0.2
		c0,0.1-0.1,0.2-0.3,0.2h-7.7c-0.9,2.9-1.3,3.9-2.3,5.6c-0.6,0.9-1,1.6-1.7,2.4c3.2,1.1,6,2.3,7.7,3.3c1,0.6,1.3,1.2,1.3,2.5
		c0,0.7-0.2,1.3-0.5,1.3c-0.2,0-0.2,0-1-0.7c-0.9-0.8-4.2-2.9-5.6-3.7c-0.9-0.5-1.5-0.8-2.9-1.4C55.1,31,53.5,32,51.1,33
		c-3.5,1.5-6.2,2-10.8,2.1L40.2,34.6z M53.4,10.3V8.4c0-1.3,0-1.5-0.1-2.5C56.2,6.3,57,6.5,57,6.9c0,0.2-0.4,0.5-1.3,0.7v2.7h9.5
		c0.6-0.8,0.8-1,1.4-1.8c1.4,1,1.9,1.3,3.1,2.6c0.2,0.2,0.2,0.3,0.2,0.4c0,0.2-0.3,0.3-2.1,0.6c-1.8,1.6-2.3,1.9-4.1,3.4l-0.3-0.2
		c1.5-2.8,1.5-2.8,2-4.1H43.8c-0.2,1.6-0.6,2.7-1,3.7c-0.5,0.9-1.5,2-2,2c-0.6,0-1.2-1.2-1.2-2.2c0-0.4,0.1-0.6,0.6-0.9
		c0.7-0.4,1.4-1.1,1.9-1.9c0.5-0.8,0.6-0.9,1.4-4h0.4c0,1.3,0,1.7-0.1,2.6H53.4z M51.2,20.1c-1,2-2.1,4.2-3,5.6
		c0.7,0.2,0.7,0.2,2.5,0.5c1.5,0.3,2.7,0.6,4.7,1.2c1.9-2.3,2.9-4.3,3.8-7.3H51.2z"/>
	<path class="st0" d="M44.8,53.7c0,0.9,0,1.1,0,1.7c0,3.2-0.7,6.6-1.8,8.6c-0.7,1.2-1.5,2.1-2,2.1s-1-1.1-1-2.3
		c0-0.6,0.1-0.7,0.8-1.4c0.9-0.9,1.8-2.3,2.4-4c0.5-1.4,0.8-2.6,1-4.6H44.8z M48.4,53.4c0-1.4-0.1-3.1-0.2-4.5
		c3.5,0.5,3.9,0.6,3.9,1c0,0.3,0,0.3-1.4,0.8v17c0,0.5,0.2,0.6,1.3,0.7c0.3,0,3.5,0,4.6,0c2.6,0,3.2-0.1,3.6-0.8
		c0.4-0.7,0.8-2.4,2-7.4l0.4,0l-0.4,7.1v0.1c0,0.3,0.2,0.5,0.7,0.6c0.7,0.1,1,0.4,1,0.9c0,0.6-0.5,0.9-1.5,1.1
		c-0.8,0.2-3.7,0.3-6,0.3c-5.3,0-6.3,0-6.9-0.3c-0.8-0.3-1.1-0.7-1.1-1.6c0.1-3.3,0.1-3.5,0.1-4.7V53.4z M49.3,42.8
		c3.9,0.9,5.7,1.6,7.8,2.9c0.5,0.3,0.8,0.6,0.9,1c0.2,0.4,0.3,1,0.3,1.5c0,0.8-0.3,1.5-0.7,1.5c-0.2,0-0.4-0.2-0.9-0.7
		c-2-2.2-4.7-4.2-7.7-5.7L49.3,42.8z M63.2,53.4c3.8,3.7,5.8,6.5,5.8,8.3c0,0.6-0.3,1.5-0.7,2.3C68,64.7,67.7,65,67.4,65
		c-0.3,0-0.5-0.3-0.7-1.2c-0.9-4.2-2-7-3.9-10.1L63.2,53.4z"/>
	<path class="st0" d="M54.3,102.2c3.5-1,5.8-2.4,7.7-4.5c1.9-2.2,2.9-4.9,2.9-7.9c0-3.2-1.3-5.7-3.7-7.2c-1.4-0.9-3.6-1.5-5.7-1.5
		c-0.4,0-0.6,0-1.1,0.1c0.8,1.1,1,1.8,1,2.7c0,2.6-1.8,7.3-4.3,11.3c-2.1,3.3-3.7,4.9-4.9,4.9c-0.6,0-1.1-0.3-1.4-0.7
		c-0.3-0.4-0.4-0.5-0.9-2.1c-0.3-0.9-0.5-1.2-1.4-3.1c-0.5-1-0.8-1.9-0.8-3c0-2.1,1.1-4.5,2.9-6.5c2.6-2.8,7-4.6,11.2-4.6
		c3.3,0,6.3,1.1,8.4,3s3.1,4.5,3.1,7.7c0,4.1-2.4,7.7-6.5,9.9c-1.9,1-3.6,1.5-6.4,2L54.3,102.2z M43.6,92c0,1.6,0.5,3.2,1.3,4.3
		c0.5,0.6,0.9,0.9,1.2,0.9c0.7,0,2.3-1.8,3.9-4.3c2.4-3.9,4.2-8.1,4.2-10.1c0-0.5-0.1-0.8-0.5-1.6C48,82.2,43.6,87,43.6,92z"/>
	<path class="st0" d="M16.9,19.6c1.6,0.1,2.6,0.4,3.7,0.9c1.9,1,2.9,2.8,2.9,5.1c0,4-3.2,6.7-8.1,6.7c-4.3,0-7.4-2-7.4-4.7
		c0-1,0.6-1.5,1.9-1.5c0.9,0,1.3,0.3,1.4,1.2c0.1,1.6,0.2,2.2,0.8,2.9c0.7,0.8,1.8,1.2,3.2,1.2c3.2,0,5.1-2.2,5.1-5.9
		c0-2.3-0.8-4-2.2-4.7c-0.9-0.5-2.3-0.8-3.8-0.8H13v-1h1.4c1.3,0,2.6-0.4,3.6-1c1.2-0.8,1.9-2.3,1.9-4.2c0-1.2-0.3-2.4-0.8-3.2
		C18.4,9.5,17.3,9,15.7,9c-2.5,0-3.7,1.3-3.9,3.9c-0.1,1.2-0.4,1.6-1.5,1.6c-1.2,0-1.7-0.4-1.7-1.2c0-2.8,3.2-5.1,7.1-5.1
		c4.2,0,7.2,2.4,7.2,5.7c0,1.8-1,3.5-2.7,4.4c-0.9,0.5-1.8,0.8-3.3,1.1V19.6z"/>
	<path class="st0" d="M12.7,62.3c3-0.8,5.2-1.6,7.2-2.7c3.8-2.2,6-5.4,6-8.8c0-3.3-2.4-5.5-6-5.5c-3.8,0-8.8,2.1-13.1,5.5
		c-0.5,0.4-0.9,0.6-1.2,0.6c-1.5,0-3.9-2.3-3.9-3.8c0-0.2,0.1-0.4,0.3-0.8c0.3,0.7,0.5,0.9,0.9,1.2c0.5,0.4,0.9,0.5,1.3,0.5
		c0.9,0,2.1-0.4,4-1.2c5.2-2.3,8.6-3.1,12-3.1c5,0,8.4,2.9,8.4,7.2c0,4.1-2.7,7.6-7.5,9.6c-2.5,1-4.9,1.6-8.1,1.9L12.7,62.3z"/>
	<path class="st0" d="M15.3,95.3c3.5-1,5.8-2.4,7.7-4.5c1.9-2.2,2.9-4.9,2.9-7.9c0-3.2-1.3-5.7-3.7-7.2c-1.4-0.9-3.6-1.5-5.7-1.5
		c-0.4,0-0.6,0-1.1,0.1c0.8,1.1,1,1.8,1,2.7c0,2.6-1.8,7.3-4.3,11.3c-2.1,3.3-3.7,4.9-4.9,4.9c-0.6,0-1.1-0.3-1.4-0.7
		c-0.3-0.4-0.4-0.5-0.9-2.1c-0.3-0.9-0.5-1.2-1.4-3.1c-0.5-1-0.8-1.9-0.8-3c0-2.1,1.1-4.5,2.9-6.5c2.6-2.8,7-4.6,11.2-4.6
		c3.3,0,6.3,1.1,8.4,3s3.1,4.5,3.1,7.7c0,4.1-2.4,7.7-6.5,9.9c-1.9,1-3.6,1.5-6.4,2L15.3,95.3z M4.6,85.1c0,1.6,0.5,3.2,1.3,4.3
		c0.5,0.6,0.9,0.9,1.2,0.9c0.7,0,2.3-1.8,3.9-4.3c2.4-3.9,4.2-8.1,4.2-10.1c0-0.5-0.1-0.8-0.5-1.6C9,75.3,4.6,80.1,4.6,85.1z"/>
	<path class="st0" d="M8.7,118.3c-0.2,2.8-0.9,5.1-2,7.1c-0.8,1.4-1.5,2.1-2.3,2.1c-0.6,0-1-0.8-1-1.9c0-0.7,0.2-0.9,0.8-1.3
		c1.7-0.9,3.4-3.8,3.8-6.1L8.7,118.3z M5.1,112.2c1.1,1.4,1.9,1.8,3.8,1.8c1,0,2.8-0.2,5.6-0.5c0-0.4,0-0.6,0-0.8
		c0-3.1-0.1-3.8-0.5-4.4c-0.3-0.6-0.8-0.9-2.2-1.4c0.3-0.3,0.6-0.4,1-0.4c0.7,0,2,0.3,2.8,0.7c1.1,0.5,1.6,0.9,1.6,1.5
		c0,0.3-0.1,0.5-0.4,1c-0.4,0.8-0.5,1.4-0.7,3.6c2.5-0.3,5.3-1.1,5.8-1.6c0.3-0.2,0.4-0.2,0.6-0.2c0,0,0.1,0,0.1,0
		c0.5,0,1.4,0.3,2,0.7c0.6,0.3,0.9,0.7,0.9,1c0,0.4-0.4,0.6-1.5,0.8c-1.3,0.1-1.4,0.2-4.2,0.5c-2,0.3-3.3,0.5-3.7,0.5
		c0,1.7,0,2,0,2.8c0,3.8,0.1,6.2,0.4,8.8c0,0.4,0,0.7,0,1.1c0,1-0.1,1.7-0.6,2.6c-0.4,0.9-0.8,1.2-1.3,1.2c-0.4,0-0.7-0.3-0.9-1
		c-0.2-0.7-0.7-1.2-1.8-1.9c-0.6-0.4-1.3-0.8-2-1.3l-0.7-0.4l-0.6-0.4l0.2-0.3c2.4,0.8,3.2,1,5.5,1.4c0.1-2.1,0.2-3.4,0.2-12.3
		c-1.6,0.2-4.1,0.4-5.1,0.4c-2.5,0-3.7-0.7-4.8-2.8L5.1,112.2z M20.9,117.7c2.4,1.5,4,2.8,5.1,4.1c0.8,0.9,1,1.5,1,2.4
		c0,1.4-0.6,2.6-1.2,2.6c-0.4,0-0.5-0.1-1-1.7c-0.9-2.7-2.4-5.2-4.2-7L20.9,117.7z M28,106.4c0,2-1.6,3.6-3.6,3.6
		c-2,0-3.6-1.6-3.6-3.6c0-2,1.6-3.6,3.6-3.6C26.4,102.8,28,104.4,28,106.4z M22,106.4c0,1.4,1.1,2.5,2.5,2.5s2.5-1.1,2.5-2.5
		c0-1.4-1.1-2.5-2.5-2.5C23.1,103.9,22,105,22,106.4z"/>
	<path class="st0" d="M2.4,156.2c4.1-2.2,8.5-5.5,12.3-9.3c3.2-3.2,5.3-5.8,5.3-6.8c0-0.6-0.5-1.1-1.8-1.9c0.4-0.1,0.4-0.1,0.7-0.1
		c0.9,0,1.8,0.3,2.8,1c1.1,0.8,1.7,1.5,1.7,2.1c0,0.3,0,0.4-1.3,1.4c-0.3,0.3-0.3,0.3-2.6,2.5c-2.3,2.2-2.5,2.4-3.9,3.5
		c1.3,0.9,1.8,1.4,2,1.8c0.1,0.3,0.2,1.9,0.2,4.8c0,2.3,0.1,4.4,0.2,6.2c0,0.7,0,1.7,0,1.9c0,1.1-0.2,1.6-0.8,1.6
		c-0.8,0-2.2-1.8-2.2-2.7c0-0.2,0-0.2,0.2-0.8c0.3-0.8,0.6-4.9,0.6-8c0-1.6-0.1-2.6-0.2-3.1c-0.1-0.3-0.2-0.5-0.7-1
		c-2.3,1.8-4.6,3.5-6.3,4.5c-1.8,1.1-4.2,2.2-5.9,2.8L2.4,156.2z"/>
	<path class="st0" d="M5.1,172.8c3.1,0.8,5,1.5,6.3,2.5c0.8,0.5,1.1,1.2,1.1,2.2c0,1.1-0.4,1.8-0.9,1.8c-0.4,0-0.5-0.2-1.4-1.3
		c-1.6-2.1-2.8-3.2-5.3-4.8L5.1,172.8z M28.4,174.7c-1.6,3.1-3.6,5.7-6.9,8.8c-3,2.9-5,4.5-9.2,7.5c-1.5,1.1-1.7,1.2-1.9,1.5
		c-0.5,0.6-0.7,0.8-1.1,0.8c-1.3,0-3.8-3.1-3.8-4.8c0-0.2,0-0.3,0.2-0.7c0.7,1,0.7,1,1.2,1.4c0.5,0.5,0.9,0.7,1.3,0.7
		c0.6,0,1.6-0.4,3.2-1.4c3.7-2.1,4.9-3,7.8-5.4c4-3.3,6-5.3,8.8-8.7L28.4,174.7z"/>
	<path class="st0" d="M10.3,201.2c0.7,0,1.4,0.2,2.4,0.6c1.4,0.5,2.2,1.2,2.2,1.8c0,0.2,0,0.2-0.2,0.7c-0.4,0.9-0.6,3.3-0.6,7.1
		c2.5,0.2,5.7,1,7.6,1.8c1.5,0.7,2,1.3,2,2.5c0,0.9-0.3,1.5-0.8,1.5c-0.3,0-0.4,0-1.2-0.8c-2.2-2-4.7-3.4-7.7-4.3c0,2.1,0,3.1,0,4.1
		c0,0.9,0,1.2,0,2c0,1.5,0,2,0,2.8c0,1,0,1,0.1,3.7c0,0.7,0,1.2,0,1.7c0,0.6,0,0.9-0.2,1.1c-0.1,0.2-0.4,0.3-0.6,0.3
		c-0.8,0-2.1-1.8-2.1-2.8c0-0.3,0-0.5,0.2-0.9c0.5-1.6,0.7-5.8,0.7-14.2c0-2.4-0.1-4.7-0.2-5.6c-0.2-1.5-0.9-2.3-2.5-2.9
		C9.9,201.2,10,201.2,10.3,201.2z"/>
</g>
</svg>
